<?xml version="1.0" encoding="UTF-8"?>
<song>
  <riffPack Tempo="90">
    <riff IsDrum="False" MidiInstrument="106" Tempo="104" Length="11">
      <note Length="0.03125" Pitch="65" RiffPosition="0" Velocity="46" />
      <note Length="0.015625" Pitch="65" RiffPosition="0.03125" Velocity="48" />
      <note Length="0.015625" Pitch="53" RiffPosition="0.046875" Velocity="64" />
      <note Length="0.09375" Pitch="53" RiffPosition="0.0625" Velocity="67" />
      <note Length="0.09375" Pitch="65" RiffPosition="0.15625" Velocity="44" />
      <note Length="0.03125" Pitch="65" RiffPosition="0.25" Velocity="83" />
      <note Length="0.015625" Pitch="70" RiffPosition="0.28125" Velocity="80" />
      <note Length="0.015625" Pitch="68" RiffPosition="0.296875" Velocity="64" />
      <note Length="0.09375" Pitch="67" RiffPosition="0.3125" Velocity="50" />
      <note Length="0.09375" Pitch="68" RiffPosition="0.40625" Velocity="53" />
      <note Length="0.03125" Pitch="65" RiffPosition="0.5" Velocity="40" />
      <note Length="0.015625" Pitch="70" RiffPosition="0.53125" Velocity="40" />
      <note Length="0.015625" Pitch="67" RiffPosition="0.546875" Velocity="65" />
      <note Length="0.09375" Pitch="65" RiffPosition="0.5625" Velocity="84" />
      <note Length="0.09375" Pitch="65" RiffPosition="0.65625" Velocity="68" />
      <note Length="0.03125" Pitch="53" RiffPosition="0.75" Velocity="35" />
      <note Length="0.015625" Pitch="65" RiffPosition="0.78125" Velocity="34" />
      <note Length="0.015625" Pitch="68" RiffPosition="0.796875" Velocity="49" />
      <note Length="0.09375" Pitch="65" RiffPosition="0.8125" Velocity="52" />
      <note Length="0.09375" Pitch="65" RiffPosition="0.90625" Velocity="69" />
      <note Length="0.03125" Pitch="63" RiffPosition="1" Velocity="97" />
      <note Length="0.015625" Pitch="63" RiffPosition="1.03125" Velocity="70" />
      <note Length="0.015625" Pitch="51" RiffPosition="1.046875" Velocity="45" />
      <note Length="0.09375" Pitch="59" RiffPosition="1.0625" Velocity="33" />
      <note Length="0.09375" Pitch="63" RiffPosition="1.15625" Velocity="39" />
      <note Length="0.03125" Pitch="65" RiffPosition="1.25" Velocity="35" />
      <note Length="0.015625" Pitch="68" RiffPosition="1.28125" Velocity="62" />
      <note Length="0.015625" Pitch="66" RiffPosition="1.296875" Velocity="88" />
      <note Length="0.09375" Pitch="63" RiffPosition="1.3125" Velocity="96" />
      <note Length="0.09375" Pitch="66" RiffPosition="1.40625" Velocity="40" />
      <note Length="0.03125" Pitch="63" RiffPosition="1.5" Velocity="59" />
      <note Length="0.015625" Pitch="68" RiffPosition="1.53125" Velocity="50" />
      <note Length="0.015625" Pitch="66" RiffPosition="1.546875" Velocity="33" />
      <note Length="0.09375" Pitch="63" RiffPosition="1.5625" Velocity="31" />
      <note Length="0.09375" Pitch="63" RiffPosition="1.65625" Velocity="81" />
      <note Length="0.03125" Pitch="51" RiffPosition="1.75" Velocity="64" />
      <note Length="0.015625" Pitch="63" RiffPosition="1.78125" Velocity="45" />
      <note Length="0.015625" Pitch="66" RiffPosition="1.796875" Velocity="40" />
      <note Length="0.09375" Pitch="63" RiffPosition="1.8125" Velocity="51" />
      <note Length="0.09375" Pitch="63" RiffPosition="1.90625" Velocity="50" />
      <note Length="0.03125" Pitch="65" RiffPosition="2" Velocity="45" />
      <note Length="0.015625" Pitch="65" RiffPosition="2.03125" Velocity="47" />
      <note Length="0.015625" Pitch="53" RiffPosition="2.046875" Velocity="63" />
      <note Length="0.09375" Pitch="61" RiffPosition="2.0625" Velocity="73" />
      <note Length="0.09375" Pitch="65" RiffPosition="2.15625" Velocity="45" />
      <note Length="0.03125" Pitch="67" RiffPosition="2.25" Velocity="84" />
      <note Length="0.015625" Pitch="70" RiffPosition="2.28125" Velocity="81" />
      <note Length="0.015625" Pitch="67" RiffPosition="2.296875" Velocity="65" />
      <note Length="0.09375" Pitch="65" RiffPosition="2.3125" Velocity="51" />
      <note Length="0.09375" Pitch="68" RiffPosition="2.40625" Velocity="54" />
      <note Length="0.03125" Pitch="53" RiffPosition="2.5" Velocity="41" />
      <note Length="0.015625" Pitch="70" RiffPosition="2.53125" Velocity="39" />
      <note Length="0.015625" Pitch="68" RiffPosition="2.546875" Velocity="71" />
      <note Length="0.09375" Pitch="65" RiffPosition="2.5625" Velocity="83" />
      <note Length="0.09375" Pitch="65" RiffPosition="2.65625" Velocity="67" />
      <note Length="0.03125" Pitch="53" RiffPosition="2.75" Velocity="36" />
      <note Length="0.015625" Pitch="67" RiffPosition="2.78125" Velocity="32" />
      <note Length="0.015625" Pitch="67" RiffPosition="2.796875" Velocity="48" />
      <note Length="0.09375" Pitch="65" RiffPosition="2.8125" Velocity="51" />
      <note Length="0.09375" Pitch="65" RiffPosition="2.90625" Velocity="70" />
      <note Length="0.03125" Pitch="63" RiffPosition="3" Velocity="98" />
      <note Length="0.015625" Pitch="63" RiffPosition="3.03125" Velocity="71" />
      <note Length="0.015625" Pitch="51" RiffPosition="3.046875" Velocity="46" />
      <note Length="0.09375" Pitch="51" RiffPosition="3.0625" Velocity="34" />
      <note Length="0.09375" Pitch="63" RiffPosition="3.15625" Velocity="40" />
      <note Length="0.03125" Pitch="63" RiffPosition="3.25" Velocity="34" />
      <note Length="0.015625" Pitch="70" RiffPosition="3.28125" Velocity="61" />
      <note Length="0.015625" Pitch="66" RiffPosition="3.296875" Velocity="87" />
      <note Length="0.09375" Pitch="63" RiffPosition="3.3125" Velocity="95" />
      <note Length="0.09375" Pitch="66" RiffPosition="3.40625" Velocity="39" />
      <note Length="0.03125" Pitch="63" RiffPosition="3.5" Velocity="53" />
      <note Length="0.015625" Pitch="68" RiffPosition="3.53125" Velocity="51" />
      <note Length="0.015625" Pitch="66" RiffPosition="3.546875" Velocity="34" />
      <note Length="0.09375" Pitch="63" RiffPosition="3.5625" Velocity="32" />
      <note Length="0.09375" Pitch="63" RiffPosition="3.65625" Velocity="74" />
      <note Length="0.03125" Pitch="51" RiffPosition="3.75" Velocity="65" />
      <note Length="0.015625" Pitch="65" RiffPosition="3.78125" Velocity="46" />
      <note Length="0.015625" Pitch="66" RiffPosition="3.796875" Velocity="39" />
      <note Length="0.09375" Pitch="63" RiffPosition="3.8125" Velocity="58" />
      <note Length="0.09375" Pitch="63" RiffPosition="3.90625" Velocity="49" />
      <note Length="0.03125" Pitch="65" RiffPosition="4" Velocity="44" />
      <note Length="0.015625" Pitch="65" RiffPosition="4.03125" Velocity="46" />
      <note Length="0.015625" Pitch="53" RiffPosition="4.046875" Velocity="62" />
      <note Length="0.09375" Pitch="61" RiffPosition="4.0625" Velocity="72" />
      <note Length="0.09375" Pitch="65" RiffPosition="4.15625" Velocity="46" />
      <note Length="0.03125" Pitch="65" RiffPosition="4.25" Velocity="85" />
      <note Length="0.015625" Pitch="70" RiffPosition="4.28125" Velocity="82" />
      <note Length="0.015625" Pitch="68" RiffPosition="4.296875" Velocity="58" />
      <note Length="0.09375" Pitch="67" RiffPosition="4.3125" Velocity="52" />
      <note Length="0.09375" Pitch="68" RiffPosition="4.40625" Velocity="55" />
      <note Length="0.03125" Pitch="65" RiffPosition="4.5" Velocity="42" />
      <note Length="0.015625" Pitch="70" RiffPosition="4.53125" Velocity="45" />
      <note Length="0.015625" Pitch="67" RiffPosition="4.546875" Velocity="70" />
      <note Length="0.09375" Pitch="65" RiffPosition="4.5625" Velocity="82" />
      <note Length="0.09375" Pitch="65" RiffPosition="4.65625" Velocity="66" />
      <note Length="0.03125" Pitch="53" RiffPosition="4.75" Velocity="37" />
      <note Length="0.015625" Pitch="65" RiffPosition="4.78125" Velocity="31" />
      <note Length="0.015625" Pitch="68" RiffPosition="4.796875" Velocity="47" />
      <note Length="0.09375" Pitch="65" RiffPosition="4.8125" Velocity="50" />
      <note Length="0.09375" Pitch="65" RiffPosition="4.90625" Velocity="71" />
      <note Length="0.03125" Pitch="63" RiffPosition="5" Velocity="99" />
      <note Length="0.015625" Pitch="63" RiffPosition="5.03125" Velocity="72" />
      <note Length="0.015625" Pitch="51" RiffPosition="5.046875" Velocity="47" />
      <note Length="0.09375" Pitch="59" RiffPosition="5.0625" Velocity="35" />
      <note Length="0.09375" Pitch="63" RiffPosition="5.15625" Velocity="41" />
      <note Length="0.03125" Pitch="65" RiffPosition="5.25" Velocity="40" />
      <note Length="0.015625" Pitch="68" RiffPosition="5.28125" Velocity="60" />
      <note Length="0.015625" Pitch="66" RiffPosition="5.296875" Velocity="86" />
      <note Length="0.09375" Pitch="63" RiffPosition="5.3125" Velocity="94" />
      <note Length="0.09375" Pitch="66" RiffPosition="5.40625" Velocity="46" />
      <note Length="0.03125" Pitch="63" RiffPosition="5.5" Velocity="54" />
      <note Length="0.015625" Pitch="68" RiffPosition="5.53125" Velocity="52" />
      <note Length="0.015625" Pitch="66" RiffPosition="5.546875" Velocity="35" />
      <note Length="0.09375" Pitch="63" RiffPosition="5.5625" Velocity="35" />
      <note Length="0.09375" Pitch="63" RiffPosition="5.65625" Velocity="75" />
      <note Length="0.03125" Pitch="51" RiffPosition="5.75" Velocity="65" />
      <note Length="0.015625" Pitch="63" RiffPosition="5.78125" Velocity="47" />
      <note Length="0.015625" Pitch="66" RiffPosition="5.796875" Velocity="38" />
      <note Length="0.09375" Pitch="63" RiffPosition="5.8125" Velocity="57" />
      <note Length="0.09375" Pitch="63" RiffPosition="5.90625" Velocity="48" />
      <note Length="0.03125" Pitch="53" RiffPosition="6" Velocity="43" />
      <note Length="0.015625" Pitch="65" RiffPosition="6.03125" Velocity="45" />
      <note Length="0.015625" Pitch="53" RiffPosition="6.046875" Velocity="68" />
      <note Length="0.09375" Pitch="53" RiffPosition="6.0625" Velocity="71" />
      <note Length="0.09375" Pitch="65" RiffPosition="6.15625" Velocity="47" />
      <note Length="0.03125" Pitch="67" RiffPosition="6.25" Velocity="86" />
      <note Length="0.015625" Pitch="72" RiffPosition="6.28125" Velocity="76" />
      <note Length="0.015625" Pitch="67" RiffPosition="6.296875" Velocity="59" />
      <note Length="0.09375" Pitch="65" RiffPosition="6.3125" Velocity="53" />
      <note Length="0.09375" Pitch="68" RiffPosition="6.40625" Velocity="56" />
      <note Length="0.03125" Pitch="65" RiffPosition="6.5" Velocity="43" />
      <note Length="0.015625" Pitch="70" RiffPosition="6.53125" Velocity="44" />
      <note Length="0.015625" Pitch="68" RiffPosition="6.546875" Velocity="69" />
      <note Length="0.09375" Pitch="65" RiffPosition="6.5625" Velocity="81" />
      <note Length="0.09375" Pitch="65" RiffPosition="6.65625" Velocity="65" />
      <note Length="0.03125" Pitch="53" RiffPosition="6.75" Velocity="38" />
      <note Length="0.015625" Pitch="67" RiffPosition="6.78125" Velocity="30" />
      <note Length="0.015625" Pitch="67" RiffPosition="6.796875" Velocity="46" />
      <note Length="0.09375" Pitch="65" RiffPosition="6.8125" Velocity="49" />
      <note Length="0.09375" Pitch="65" RiffPosition="6.90625" Velocity="72" />
      <note Length="0.03125" Pitch="63" RiffPosition="7" Velocity="92" />
      <note Length="0.015625" Pitch="63" RiffPosition="7.03125" Velocity="73" />
      <note Length="0.015625" Pitch="51" RiffPosition="7.046875" Velocity="48" />
      <note Length="0.09375" Pitch="51" RiffPosition="7.0625" Velocity="36" />
      <note Length="0.09375" Pitch="63" RiffPosition="7.15625" Velocity="34" />
      <note Length="0.03125" Pitch="63" RiffPosition="7.25" Velocity="39" />
      <note Length="0.015625" Pitch="70" RiffPosition="7.28125" Velocity="59" />
      <note Length="0.015625" Pitch="66" RiffPosition="7.296875" Velocity="85" />
      <note Length="0.09375" Pitch="63" RiffPosition="7.3125" Velocity="101" />
      <note Length="0.09375" Pitch="66" RiffPosition="7.40625" Velocity="45" />
      <note Length="0.03125" Pitch="63" RiffPosition="7.5" Velocity="55" />
      <note Length="0.015625" Pitch="68" RiffPosition="7.53125" Velocity="53" />
      <note Length="0.015625" Pitch="66" RiffPosition="7.546875" Velocity="36" />
      <note Length="0.09375" Pitch="63" RiffPosition="7.5625" Velocity="34" />
      <note Length="0.09375" Pitch="63" RiffPosition="7.65625" Velocity="76" />
      <note Length="0.03125" Pitch="51" RiffPosition="7.75" Velocity="66" />
      <note Length="0.015625" Pitch="65" RiffPosition="7.78125" Velocity="48" />
      <note Length="0.015625" Pitch="66" RiffPosition="7.796875" Velocity="44" />
      <note Length="0.09375" Pitch="63" RiffPosition="7.8125" Velocity="56" />
      <note Length="0.09375" Pitch="63" RiffPosition="7.90625" Velocity="47" />
      <note Length="0.03125" Pitch="65" RiffPosition="8" Velocity="42" />
      <note Length="0.015625" Pitch="65" RiffPosition="8.03125" Velocity="51" />
      <note Length="0.015625" Pitch="53" RiffPosition="8.046875" Velocity="67" />
      <note Length="0.09375" Pitch="61" RiffPosition="8.0625" Velocity="70" />
      <note Length="0.09375" Pitch="65" RiffPosition="8.15625" Velocity="48" />
      <note Length="0.03125" Pitch="65" RiffPosition="8.25" Velocity="87" />
      <note Length="0.015625" Pitch="70" RiffPosition="8.28125" Velocity="77" />
      <note Length="0.015625" Pitch="68" RiffPosition="8.296875" Velocity="60" />
      <note Length="0.09375" Pitch="65" RiffPosition="8.3125" Velocity="54" />
      <note Length="0.09375" Pitch="68" RiffPosition="8.40625" Velocity="57" />
      <note Length="0.03125" Pitch="65" RiffPosition="8.5" Velocity="44" />
      <note Length="0.015625" Pitch="70" RiffPosition="8.53125" Velocity="43" />
      <note Length="0.015625" Pitch="67" RiffPosition="8.546875" Velocity="68" />
      <note Length="0.09375" Pitch="65" RiffPosition="8.5625" Velocity="80" />
      <note Length="0.09375" Pitch="65" RiffPosition="8.65625" Velocity="64" />
      <note Length="0.03125" Pitch="53" RiffPosition="8.75" Velocity="32" />
      <note Length="0.015625" Pitch="65" RiffPosition="8.78125" Velocity="31" />
      <note Length="0.015625" Pitch="68" RiffPosition="8.796875" Velocity="45" />
      <note Length="0.09375" Pitch="65" RiffPosition="8.8125" Velocity="48" />
      <note Length="0.09375" Pitch="65" RiffPosition="8.90625" Velocity="66" />
      <note Length="0.03125" Pitch="63" RiffPosition="9" Velocity="0" />
      <note Length="0.015625" Pitch="63" RiffPosition="9.03125" Velocity="0" />
      <note Length="0.015625" Pitch="51" RiffPosition="9.046875" Velocity="0" />
      <note Length="0.09375" Pitch="59" RiffPosition="9.0625" Velocity="0" />
      <note Length="0.09375" Pitch="63" RiffPosition="9.15625" Velocity="0" />
      <note Length="0.03125" Pitch="65" RiffPosition="9.25" Velocity="0" />
      <note Length="0.015625" Pitch="68" RiffPosition="9.28125" Velocity="0" />
      <note Length="0.015625" Pitch="66" RiffPosition="9.296875" Velocity="0" />
      <note Length="0.09375" Pitch="63" RiffPosition="9.3125" Velocity="0" />
      <note Length="0.09375" Pitch="66" RiffPosition="9.40625" Velocity="0" />
      <note Length="0.03125" Pitch="63" RiffPosition="9.5" Velocity="0" />
      <note Length="0.015625" Pitch="68" RiffPosition="9.53125" Velocity="0" />
      <note Length="0.015625" Pitch="66" RiffPosition="9.546875" Velocity="0" />
      <note Length="0.09375" Pitch="63" RiffPosition="9.5625" Velocity="0" />
      <note Length="0.09375" Pitch="63" RiffPosition="9.65625" Velocity="0" />
      <note Length="0.03125" Pitch="51" RiffPosition="9.75" Velocity="0" />
      <note Length="0.015625" Pitch="63" RiffPosition="9.78125" Velocity="0" />
      <note Length="0.015625" Pitch="65" RiffPosition="9.796875" Velocity="0" />
      <note Length="0.09375" Pitch="63" RiffPosition="9.8125" Velocity="0" />
      <note Length="0.09375" Pitch="63" RiffPosition="9.90625" Velocity="0" />
      <note Length="0.03125" Pitch="53" RiffPosition="10" Velocity="0" />
      <note Length="0.015625" Pitch="65" RiffPosition="10.03125" Velocity="0" />
      <note Length="0.015625" Pitch="53" RiffPosition="10.046875" Velocity="0" />
      <note Length="0.09375" Pitch="53" RiffPosition="10.0625" Velocity="0" />
      <note Length="0.09375" Pitch="65" RiffPosition="10.15625" Velocity="0" />
      <note Length="0.03125" Pitch="67" RiffPosition="10.25" Velocity="0" />
      <note Length="0.015625" Pitch="72" RiffPosition="10.28125" Velocity="0" />
      <note Length="0.015625" Pitch="67" RiffPosition="10.296875" Velocity="0" />
      <note Length="0.09375" Pitch="65" RiffPosition="10.3125" Velocity="0" />
      <note Length="0.09375" Pitch="68" RiffPosition="10.40625" Velocity="0" />
      <note Length="0.03125" Pitch="65" RiffPosition="10.5" Velocity="0" />
      <note Length="0.015625" Pitch="70" RiffPosition="10.53125" Velocity="0" />
      <note Length="0.015625" Pitch="68" RiffPosition="10.546875" Velocity="0" />
      <note Length="0.09375" Pitch="65" RiffPosition="10.5625" Velocity="0" />
      <note Length="0.09375" Pitch="65" RiffPosition="10.65625" Velocity="0" />
      <note Length="0.03125" Pitch="53" RiffPosition="10.75" Velocity="0" />
      <note Length="0.015625" Pitch="67" RiffPosition="10.78125" Velocity="0" />
      <note Length="0.015625" Pitch="68" RiffPosition="10.796875" Velocity="0" />
      <note Length="0.09375" Pitch="65" RiffPosition="10.8125" Velocity="0" />
      <note Length="0.09375" Pitch="65" RiffPosition="10.90625" Velocity="0" />
    </riff>
    <riff IsDrum="False" MidiInstrument="106" Tempo="80" Length="11">
      <note Length="0.015625" Pitch="53" RiffPosition="0" Velocity="103" />
      <note Length="0.015625" Pitch="53" RiffPosition="0.015625" Velocity="91" />
      <note Length="0.015625" Pitch="53" RiffPosition="0.03125" Velocity="77" />
      <note Length="0.015625" Pitch="53" RiffPosition="0.046875" Velocity="95" />
      <note Length="0.015625" Pitch="67" RiffPosition="0.0625" Velocity="79" />
      <note Length="0.015625" Pitch="72" RiffPosition="0.078125" Velocity="99" />
      <note Length="0.03125" Pitch="72" RiffPosition="0.09375" Velocity="86" />
      <note Length="0.03125" Pitch="65" RiffPosition="0.125" Velocity="65" />
      <note Length="0.03125" Pitch="53" RiffPosition="0.15625" Velocity="32" />
      <note Length="0.03125" Pitch="65" RiffPosition="0.1875" Velocity="31" />
      <note Length="0.015625" Pitch="68" RiffPosition="0.21875" Velocity="33" />
      <note Length="0.015625" Pitch="68" RiffPosition="0.234375" Velocity="77" />
      <note Length="0.015625" Pitch="53" RiffPosition="0.25" Velocity="54" />
      <note Length="0.015625" Pitch="61" RiffPosition="0.265625" Velocity="66" />
      <note Length="0.015625" Pitch="53" RiffPosition="0.28125" Velocity="46" />
      <note Length="0.015625" Pitch="53" RiffPosition="0.296875" Velocity="62" />
      <note Length="0.015625" Pitch="65" RiffPosition="0.3125" Velocity="78" />
      <note Length="0.015625" Pitch="65" RiffPosition="0.328125" Velocity="70" />
      <note Length="0.03125" Pitch="65" RiffPosition="0.34375" Velocity="83" />
      <note Length="0.03125" Pitch="53" RiffPosition="0.375" Velocity="70" />
      <note Length="0.03125" Pitch="60" RiffPosition="0.40625" Velocity="52" />
      <note Length="0.03125" Pitch="65" RiffPosition="0.4375" Velocity="50" />
      <note Length="0.015625" Pitch="67" RiffPosition="0.46875" Velocity="33" />
      <note Length="0.015625" Pitch="65" RiffPosition="0.484375" Velocity="50" />
      <note Length="0.015625" Pitch="53" RiffPosition="0.5" Velocity="33" />
      <note Length="0.015625" Pitch="53" RiffPosition="0.515625" Velocity="45" />
      <note Length="0.015625" Pitch="53" RiffPosition="0.53125" Velocity="35" />
      <note Length="0.015625" Pitch="53" RiffPosition="0.546875" Velocity="41" />
      <note Length="0.015625" Pitch="68" RiffPosition="0.5625" Velocity="71" />
      <note Length="0.015625" Pitch="72" RiffPosition="0.578125" Velocity="56" />
      <note Length="0.03125" Pitch="72" RiffPosition="0.59375" Velocity="44" />
      <note Length="0.03125" Pitch="53" RiffPosition="0.625" Velocity="56" />
      <note Length="0.03125" Pitch="53" RiffPosition="0.65625" Velocity="54" />
      <note Length="0.03125" Pitch="65" RiffPosition="0.6875" Velocity="56" />
      <note Length="0.015625" Pitch="68" RiffPosition="0.71875" Velocity="53" />
      <note Length="0.015625" Pitch="65" RiffPosition="0.734375" Velocity="42" />
      <note Length="0.015625" Pitch="53" RiffPosition="0.75" Velocity="31" />
      <note Length="0.015625" Pitch="60" RiffPosition="0.765625" Velocity="53" />
      <note Length="0.015625" Pitch="60" RiffPosition="0.78125" Velocity="55" />
      <note Length="0.015625" Pitch="53" RiffPosition="0.796875" Velocity="37" />
      <note Length="0.015625" Pitch="65" RiffPosition="0.8125" Velocity="53" />
      <note Length="0.015625" Pitch="65" RiffPosition="0.828125" Velocity="56" />
      <note Length="0.03125" Pitch="65" RiffPosition="0.84375" Velocity="34" />
      <note Length="0.03125" Pitch="53" RiffPosition="0.875" Velocity="38" />
      <note Length="0.03125" Pitch="60" RiffPosition="0.90625" Velocity="72" />
      <note Length="0.03125" Pitch="65" RiffPosition="0.9375" Velocity="69" />
      <note Length="0.015625" Pitch="65" RiffPosition="0.96875" Velocity="52" />
      <note Length="0.015625" Pitch="53" RiffPosition="0.984375" Velocity="63" />
      <note Length="0.015625" Pitch="51" RiffPosition="1" Velocity="32" />
      <note Length="0.015625" Pitch="59" RiffPosition="1.015625" Velocity="40" />
      <note Length="0.015625" Pitch="51" RiffPosition="1.03125" Velocity="55" />
      <note Length="0.015625" Pitch="63" RiffPosition="1.046875" Velocity="36" />
      <note Length="0.015625" Pitch="66" RiffPosition="1.0625" Velocity="52" />
      <note Length="0.015625" Pitch="68" RiffPosition="1.078125" Velocity="33" />
      <note Length="0.03125" Pitch="68" RiffPosition="1.09375" Velocity="46" />
      <note Length="0.03125" Pitch="51" RiffPosition="1.125" Velocity="60" />
      <note Length="0.03125" Pitch="51" RiffPosition="1.15625" Velocity="58" />
      <note Length="0.03125" Pitch="65" RiffPosition="1.1875" Velocity="34" />
      <note Length="0.015625" Pitch="66" RiffPosition="1.21875" Velocity="37" />
      <note Length="0.015625" Pitch="63" RiffPosition="1.234375" Velocity="80" />
      <note Length="0.015625" Pitch="51" RiffPosition="1.25" Velocity="69" />
      <note Length="0.015625" Pitch="58" RiffPosition="1.265625" Velocity="57" />
      <note Length="0.015625" Pitch="58" RiffPosition="1.28125" Velocity="77" />
      <note Length="0.015625" Pitch="51" RiffPosition="1.296875" Velocity="61" />
      <note Length="0.015625" Pitch="63" RiffPosition="1.3125" Velocity="79" />
      <note Length="0.015625" Pitch="65" RiffPosition="1.328125" Velocity="53" />
      <note Length="0.03125" Pitch="51" RiffPosition="1.34375" Velocity="40" />
      <note Length="0.03125" Pitch="51" RiffPosition="1.375" Velocity="52" />
      <note Length="0.03125" Pitch="58" RiffPosition="1.40625" Velocity="70" />
      <note Length="0.03125" Pitch="63" RiffPosition="1.4375" Velocity="73" />
      <note Length="0.015625" Pitch="66" RiffPosition="1.46875" Velocity="38" />
      <note Length="0.015625" Pitch="51" RiffPosition="1.484375" Velocity="45" />
      <note Length="0.015625" Pitch="51" RiffPosition="1.5" Velocity="37" />
      <note Length="0.015625" Pitch="51" RiffPosition="1.515625" Velocity="45" />
      <note Length="0.015625" Pitch="51" RiffPosition="1.53125" Velocity="31" />
      <note Length="0.015625" Pitch="65" RiffPosition="1.546875" Velocity="45" />
      <note Length="0.015625" Pitch="66" RiffPosition="1.5625" Velocity="61" />
      <note Length="0.015625" Pitch="68" RiffPosition="1.578125" Velocity="75" />
      <note Length="0.03125" Pitch="68" RiffPosition="1.59375" Velocity="54" />
      <note Length="0.03125" Pitch="51" RiffPosition="1.625" Velocity="76" />
      <note Length="0.03125" Pitch="51" RiffPosition="1.65625" Velocity="78" />
      <note Length="0.03125" Pitch="66" RiffPosition="1.6875" Velocity="76" />
      <note Length="0.015625" Pitch="66" RiffPosition="1.71875" Velocity="79" />
      <note Length="0.015625" Pitch="63" RiffPosition="1.734375" Velocity="90" />
      <note Length="0.015625" Pitch="51" RiffPosition="1.75" Velocity="67" />
      <note Length="0.015625" Pitch="59" RiffPosition="1.765625" Velocity="79" />
      <note Length="0.015625" Pitch="58" RiffPosition="1.78125" Velocity="60" />
      <note Length="0.015625" Pitch="51" RiffPosition="1.796875" Velocity="41" />
      <note Length="0.015625" Pitch="51" RiffPosition="1.8125" Velocity="57" />
      <note Length="0.015625" Pitch="66" RiffPosition="1.828125" Velocity="60" />
      <note Length="0.03125" Pitch="63" RiffPosition="1.84375" Velocity="39" />
      <note Length="0.03125" Pitch="51" RiffPosition="1.875" Velocity="33" />
      <note Length="0.03125" Pitch="51" RiffPosition="1.90625" Velocity="51" />
      <note Length="0.03125" Pitch="63" RiffPosition="1.9375" Velocity="53" />
      <note Length="0.015625" Pitch="66" RiffPosition="1.96875" Velocity="71" />
      <note Length="0.015625" Pitch="66" RiffPosition="1.984375" Velocity="60" />
      <note Length="0.015625" Pitch="53" RiffPosition="2" Velocity="94" />
      <note Length="0.015625" Pitch="53" RiffPosition="2.015625" Velocity="82" />
      <note Length="0.015625" Pitch="53" RiffPosition="2.03125" Velocity="102" />
      <note Length="0.015625" Pitch="65" RiffPosition="2.046875" Velocity="86" />
      <note Length="0.015625" Pitch="65" RiffPosition="2.0625" Velocity="70" />
      <note Length="0.015625" Pitch="70" RiffPosition="2.078125" Velocity="90" />
      <note Length="0.03125" Pitch="68" RiffPosition="2.09375" Velocity="77" />
      <note Length="0.03125" Pitch="65" RiffPosition="2.125" Velocity="56" />
      <note Length="0.03125" Pitch="53" RiffPosition="2.15625" Velocity="53" />
      <note Length="0.03125" Pitch="68" RiffPosition="2.1875" Velocity="56" />
      <note Length="0.015625" Pitch="68" RiffPosition="2.21875" Velocity="42" />
      <note Length="0.015625" Pitch="65" RiffPosition="2.234375" Velocity="52" />
      <note Length="0.015625" Pitch="53" RiffPosition="2.25" Velocity="63" />
      <note Length="0.015625" Pitch="61" RiffPosition="2.265625" Velocity="75" />
      <note Length="0.015625" Pitch="60" RiffPosition="2.28125" Velocity="55" />
      <note Length="0.015625" Pitch="53" RiffPosition="2.296875" Velocity="71" />
      <note Length="0.015625" Pitch="65" RiffPosition="2.3125" Velocity="53" />
      <note Length="0.015625" Pitch="68" RiffPosition="2.328125" Velocity="79" />
      <note Length="0.03125" Pitch="67" RiffPosition="2.34375" Velocity="92" />
      <note Length="0.03125" Pitch="61" RiffPosition="2.375" Velocity="79" />
      <note Length="0.03125" Pitch="60" RiffPosition="2.40625" Velocity="61" />
      <note Length="0.03125" Pitch="53" RiffPosition="2.4375" Velocity="59" />
      <note Length="0.015625" Pitch="68" RiffPosition="2.46875" Velocity="52" />
      <note Length="0.015625" Pitch="67" RiffPosition="2.484375" Velocity="41" />
      <note Length="0.015625" Pitch="53" RiffPosition="2.5" Velocity="42" />
      <note Length="0.015625" Pitch="53" RiffPosition="2.515625" Velocity="40" />
      <note Length="0.015625" Pitch="53" RiffPosition="2.53125" Velocity="34" />
      <note Length="0.015625" Pitch="65" RiffPosition="2.546875" Velocity="44" />
      <note Length="0.015625" Pitch="68" RiffPosition="2.5625" Velocity="62" />
      <note Length="0.015625" Pitch="70" RiffPosition="2.578125" Velocity="47" />
      <note Length="0.03125" Pitch="68" RiffPosition="2.59375" Velocity="69" />
      <note Length="0.03125" Pitch="67" RiffPosition="2.625" Velocity="81" />
      <note Length="0.03125" Pitch="53" RiffPosition="2.65625" Velocity="45" />
      <note Length="0.03125" Pitch="68" RiffPosition="2.6875" Velocity="47" />
      <note Length="0.015625" Pitch="65" RiffPosition="2.71875" Velocity="44" />
      <note Length="0.015625" Pitch="53" RiffPosition="2.734375" Velocity="33" />
      <note Length="0.015625" Pitch="53" RiffPosition="2.75" Velocity="56" />
      <note Length="0.015625" Pitch="60" RiffPosition="2.765625" Velocity="44" />
      <note Length="0.015625" Pitch="53" RiffPosition="2.78125" Velocity="64" />
      <note Length="0.015625" Pitch="53" RiffPosition="2.796875" Velocity="46" />
      <note Length="0.015625" Pitch="53" RiffPosition="2.8125" Velocity="62" />
      <note Length="0.015625" Pitch="67" RiffPosition="2.828125" Velocity="31" />
      <note Length="0.03125" Pitch="67" RiffPosition="2.84375" Velocity="43" />
      <note Length="0.03125" Pitch="61" RiffPosition="2.875" Velocity="31" />
      <note Length="0.03125" Pitch="61" RiffPosition="2.90625" Velocity="47" />
      <note Length="0.03125" Pitch="65" RiffPosition="2.9375" Velocity="78" />
      <note Length="0.015625" Pitch="68" RiffPosition="2.96875" Velocity="61" />
      <note Length="0.015625" Pitch="65" RiffPosition="2.984375" Velocity="38" />
      <note Length="0.015625" Pitch="63" RiffPosition="3" Velocity="37" />
      <note Length="0.015625" Pitch="59" RiffPosition="3.015625" Velocity="50" />
      <note Length="0.015625" Pitch="51" RiffPosition="3.03125" Velocity="30" />
      <note Length="0.015625" Pitch="63" RiffPosition="3.046875" Velocity="45" />
      <note Length="0.015625" Pitch="66" RiffPosition="3.0625" Velocity="33" />
      <note Length="0.015625" Pitch="68" RiffPosition="3.078125" Velocity="42" />
      <note Length="0.03125" Pitch="66" RiffPosition="3.09375" Velocity="55" />
      <note Length="0.03125" Pitch="63" RiffPosition="3.125" Velocity="51" />
      <note Length="0.03125" Pitch="51" RiffPosition="3.15625" Velocity="49" />
      <note Length="0.03125" Pitch="65" RiffPosition="3.1875" Velocity="51" />
      <note Length="0.015625" Pitch="66" RiffPosition="3.21875" Velocity="46" />
      <note Length="0.015625" Pitch="51" RiffPosition="3.234375" Velocity="70" />
      <note Length="0.015625" Pitch="51" RiffPosition="3.25" Velocity="60" />
      <note Length="0.015625" Pitch="59" RiffPosition="3.265625" Velocity="82" />
      <note Length="0.015625" Pitch="51" RiffPosition="3.28125" Velocity="68" />
      <note Length="0.015625" Pitch="51" RiffPosition="3.296875" Velocity="52" />
      <note Length="0.015625" Pitch="51" RiffPosition="3.3125" Velocity="70" />
      <note Length="0.015625" Pitch="65" RiffPosition="3.328125" Velocity="44" />
      <note Length="0.03125" Pitch="63" RiffPosition="3.34375" Velocity="65" />
      <note Length="0.03125" Pitch="58" RiffPosition="3.375" Velocity="43" />
      <note Length="0.03125" Pitch="58" RiffPosition="3.40625" Velocity="61" />
      <note Length="0.03125" Pitch="65" RiffPosition="3.4375" Velocity="64" />
      <note Length="0.015625" Pitch="65" RiffPosition="3.46875" Velocity="47" />
      <note Length="0.015625" Pitch="63" RiffPosition="3.484375" Velocity="36" />
      <note Length="0.015625" Pitch="51" RiffPosition="3.5" Velocity="48" />
      <note Length="0.015625" Pitch="51" RiffPosition="3.515625" Velocity="36" />
      <note Length="0.015625" Pitch="51" RiffPosition="3.53125" Velocity="38" />
      <note Length="0.015625" Pitch="63" RiffPosition="3.546875" Velocity="40" />
      <note Length="0.015625" Pitch="66" RiffPosition="3.5625" Velocity="70" />
      <note Length="0.015625" Pitch="63" RiffPosition="3.578125" Velocity="84" />
      <note Length="0.03125" Pitch="68" RiffPosition="3.59375" Velocity="63" />
      <note Length="0.03125" Pitch="63" RiffPosition="3.625" Velocity="51" />
      <note Length="0.03125" Pitch="51" RiffPosition="3.65625" Velocity="87" />
      <note Length="0.03125" Pitch="63" RiffPosition="3.6875" Velocity="85" />
      <note Length="0.015625" Pitch="66" RiffPosition="3.71875" Velocity="88" />
      <note Length="0.015625" Pitch="65" RiffPosition="3.734375" Velocity="99" />
      <note Length="0.015625" Pitch="51" RiffPosition="3.75" Velocity="76" />
      <note Length="0.015625" Pitch="58" RiffPosition="3.765625" Velocity="88" />
      <note Length="0.015625" Pitch="59" RiffPosition="3.78125" Velocity="35" />
      <note Length="0.015625" Pitch="51" RiffPosition="3.796875" Velocity="50" />
      <note Length="0.015625" Pitch="51" RiffPosition="3.8125" Velocity="66" />
      <note Length="0.015625" Pitch="63" RiffPosition="3.828125" Velocity="35" />
      <note Length="0.03125" Pitch="63" RiffPosition="3.84375" Velocity="48" />
      <note Length="0.03125" Pitch="51" RiffPosition="3.875" Velocity="36" />
      <note Length="0.03125" Pitch="59" RiffPosition="3.90625" Velocity="76" />
      <note Length="0.03125" Pitch="65" RiffPosition="3.9375" Velocity="44" />
      <note Length="0.015625" Pitch="65" RiffPosition="3.96875" Velocity="62" />
      <note Length="0.015625" Pitch="63" RiffPosition="3.984375" Velocity="85" />
      <note Length="0.015625" Pitch="53" RiffPosition="4" Velocity="85" />
      <note Length="0.015625" Pitch="53" RiffPosition="4.015625" Velocity="73" />
      <note Length="0.015625" Pitch="61" RiffPosition="4.03125" Velocity="93" />
      <note Length="0.015625" Pitch="53" RiffPosition="4.046875" Velocity="77" />
      <note Length="0.015625" Pitch="68" RiffPosition="4.0625" Velocity="95" />
      <note Length="0.015625" Pitch="72" RiffPosition="4.078125" Velocity="81" />
      <note Length="0.03125" Pitch="70" RiffPosition="4.09375" Velocity="68" />
      <note Length="0.03125" Pitch="53" RiffPosition="4.125" Velocity="47" />
      <note Length="0.03125" Pitch="53" RiffPosition="4.15625" Velocity="44" />
      <note Length="0.03125" Pitch="65" RiffPosition="4.1875" Velocity="47" />
      <note Length="0.015625" Pitch="70" RiffPosition="4.21875" Velocity="43" />
      <note Length="0.015625" Pitch="67" RiffPosition="4.234375" Velocity="61" />
      <note Length="0.015625" Pitch="53" RiffPosition="4.25" Velocity="72" />
      <note Length="0.015625" Pitch="60" RiffPosition="4.265625" Velocity="50" />
      <note Length="0.015625" Pitch="61" RiffPosition="4.28125" Velocity="64" />
      <note Length="0.015625" Pitch="53" RiffPosition="4.296875" Velocity="46" />
      <note Length="0.015625" Pitch="65" RiffPosition="4.3125" Velocity="62" />
      <note Length="0.015625" Pitch="65" RiffPosition="4.328125" Velocity="88" />
      <note Length="0.03125" Pitch="65" RiffPosition="4.34375" Velocity="67" />
      <note Length="0.03125" Pitch="53" RiffPosition="4.375" Velocity="89" />
      <note Length="0.03125" Pitch="60" RiffPosition="4.40625" Velocity="70" />
      <note Length="0.03125" Pitch="65" RiffPosition="4.4375" Velocity="68" />
      <note Length="0.015625" Pitch="65" RiffPosition="4.46875" Velocity="43" />
      <note Length="0.015625" Pitch="53" RiffPosition="4.484375" Velocity="32" />
      <note Length="0.015625" Pitch="53" RiffPosition="4.5" Velocity="43" />
      <note Length="0.015625" Pitch="53" RiffPosition="4.515625" Velocity="31" />
      <note Length="0.015625" Pitch="65" RiffPosition="4.53125" Velocity="43" />
      <note Length="0.015625" Pitch="65" RiffPosition="4.546875" Velocity="35" />
      <note Length="0.015625" Pitch="68" RiffPosition="4.5625" Velocity="53" />
      <note Length="0.015625" Pitch="72" RiffPosition="4.578125" Velocity="72" />
      <note Length="0.03125" Pitch="70" RiffPosition="4.59375" Velocity="60" />
      <note Length="0.03125" Pitch="53" RiffPosition="4.625" Velocity="72" />
      <note Length="0.03125" Pitch="53" RiffPosition="4.65625" Velocity="70" />
      <note Length="0.03125" Pitch="67" RiffPosition="4.6875" Velocity="38" />
      <note Length="0.015625" Pitch="68" RiffPosition="4.71875" Velocity="35" />
      <note Length="0.015625" Pitch="65" RiffPosition="4.734375" Velocity="58" />
      <note Length="0.015625" Pitch="53" RiffPosition="4.75" Velocity="47" />
      <note Length="0.015625" Pitch="60" RiffPosition="4.765625" Velocity="35" />
      <note Length="0.015625" Pitch="60" RiffPosition="4.78125" Velocity="39" />
      <note Length="0.015625" Pitch="53" RiffPosition="4.796875" Velocity="55" />
      <note Length="0.015625" Pitch="65" RiffPosition="4.8125" Velocity="71" />
      <note Length="0.015625" Pitch="65" RiffPosition="4.828125" Velocity="40" />
      <note Length="0.03125" Pitch="53" RiffPosition="4.84375" Velocity="52" />
      <note Length="0.03125" Pitch="53" RiffPosition="4.875" Velocity="40" />
      <note Length="0.03125" Pitch="60" RiffPosition="4.90625" Velocity="56" />
      <note Length="0.03125" Pitch="65" RiffPosition="4.9375" Velocity="53" />
      <note Length="0.015625" Pitch="68" RiffPosition="4.96875" Velocity="70" />
      <note Length="0.015625" Pitch="53" RiffPosition="4.984375" Velocity="47" />
      <note Length="0.015625" Pitch="51" RiffPosition="5" Velocity="46" />
      <note Length="0.015625" Pitch="51" RiffPosition="5.015625" Velocity="35" />
      <note Length="0.015625" Pitch="51" RiffPosition="5.03125" Velocity="39" />
      <note Length="0.015625" Pitch="51" RiffPosition="5.046875" Velocity="54" />
      <note Length="0.015625" Pitch="65" RiffPosition="5.0625" Velocity="36" />
      <note Length="0.015625" Pitch="68" RiffPosition="5.078125" Velocity="51" />
      <note Length="0.03125" Pitch="68" RiffPosition="5.09375" Velocity="30" />
      <note Length="0.03125" Pitch="51" RiffPosition="5.125" Velocity="42" />
      <note Length="0.03125" Pitch="51" RiffPosition="5.15625" Velocity="40" />
      <note Length="0.03125" Pitch="66" RiffPosition="5.1875" Velocity="42" />
      <note Length="0.015625" Pitch="66" RiffPosition="5.21875" Velocity="39" />
      <note Length="0.015625" Pitch="63" RiffPosition="5.234375" Velocity="61" />
      <note Length="0.015625" Pitch="51" RiffPosition="5.25" Velocity="51" />
      <note Length="0.015625" Pitch="58" RiffPosition="5.265625" Velocity="73" />
      <note Length="0.015625" Pitch="58" RiffPosition="5.28125" Velocity="58" />
      <note Length="0.015625" Pitch="51" RiffPosition="5.296875" Velocity="77" />
      <note Length="0.015625" Pitch="51" RiffPosition="5.3125" Velocity="61" />
      <note Length="0.015625" Pitch="66" RiffPosition="5.328125" Velocity="35" />
      <note Length="0.03125" Pitch="63" RiffPosition="5.34375" Velocity="56" />
      <note Length="0.03125" Pitch="51" RiffPosition="5.375" Velocity="68" />
      <note Length="0.03125" Pitch="59" RiffPosition="5.40625" Velocity="52" />
      <note Length="0.03125" Pitch="51" RiffPosition="5.4375" Velocity="55" />
      <note Length="0.015625" Pitch="66" RiffPosition="5.46875" Velocity="38" />
      <note Length="0.015625" Pitch="63" RiffPosition="5.484375" Velocity="33" />
      <note Length="0.015625" Pitch="51" RiffPosition="5.5" Velocity="39" />
      <note Length="0.015625" Pitch="51" RiffPosition="5.515625" Velocity="33" />
      <note Length="0.015625" Pitch="51" RiffPosition="5.53125" Velocity="47" />
      <note Length="0.015625" Pitch="65" RiffPosition="5.546875" Velocity="31" />
      <note Length="0.015625" Pitch="65" RiffPosition="5.5625" Velocity="79" />
      <note Length="0.015625" Pitch="68" RiffPosition="5.578125" Velocity="59" />
      <note Length="0.03125" Pitch="68" RiffPosition="5.59375" Velocity="72" />
      <note Length="0.03125" Pitch="63" RiffPosition="5.625" Velocity="60" />
      <note Length="0.03125" Pitch="51" RiffPosition="5.65625" Velocity="62" />
      <note Length="0.03125" Pitch="66" RiffPosition="5.6875" Velocity="94" />
      <note Length="0.015625" Pitch="65" RiffPosition="5.71875" Velocity="97" />
      <note Length="0.015625" Pitch="51" RiffPosition="5.734375" Velocity="74" />
      <note Length="0.015625" Pitch="51" RiffPosition="5.75" Velocity="85" />
      <note Length="0.015625" Pitch="58" RiffPosition="5.765625" Velocity="97" />
      <note Length="0.015625" Pitch="58" RiffPosition="5.78125" Velocity="44" />
      <note Length="0.015625" Pitch="59" RiffPosition="5.796875" Velocity="59" />
      <note Length="0.015625" Pitch="63" RiffPosition="5.8125" Velocity="41" />
      <note Length="0.015625" Pitch="66" RiffPosition="5.828125" Velocity="44" />
      <note Length="0.03125" Pitch="66" RiffPosition="5.84375" Velocity="57" />
      <note Length="0.03125" Pitch="51" RiffPosition="5.875" Velocity="45" />
      <note Length="0.03125" Pitch="59" RiffPosition="5.90625" Velocity="67" />
      <note Length="0.03125" Pitch="51" RiffPosition="5.9375" Velocity="69" />
      <note Length="0.015625" Pitch="66" RiffPosition="5.96875" Velocity="87" />
      <note Length="0.015625" Pitch="65" RiffPosition="5.984375" Velocity="76" />
      <note Length="0.015625" Pitch="53" RiffPosition="6" Velocity="76" />
      <note Length="0.015625" Pitch="53" RiffPosition="6.015625" Velocity="98" />
      <note Length="0.015625" Pitch="53" RiffPosition="6.03125" Velocity="84" />
      <note Length="0.015625" Pitch="65" RiffPosition="6.046875" Velocity="102" />
      <note Length="0.015625" Pitch="68" RiffPosition="6.0625" Velocity="86" />
      <note Length="0.015625" Pitch="68" RiffPosition="6.078125" Velocity="72" />
      <note Length="0.03125" Pitch="68" RiffPosition="6.09375" Velocity="93" />
      <note Length="0.03125" Pitch="65" RiffPosition="6.125" Velocity="38" />
      <note Length="0.03125" Pitch="53" RiffPosition="6.15625" Velocity="35" />
      <note Length="0.03125" Pitch="68" RiffPosition="6.1875" Velocity="38" />
      <note Length="0.015625" Pitch="67" RiffPosition="6.21875" Velocity="34" />
      <note Length="0.015625" Pitch="65" RiffPosition="6.234375" Velocity="70" />
      <note Length="0.015625" Pitch="53" RiffPosition="6.25" Velocity="47" />
      <note Length="0.015625" Pitch="60" RiffPosition="6.265625" Velocity="59" />
      <note Length="0.015625" Pitch="53" RiffPosition="6.28125" Velocity="73" />
      <note Length="0.015625" Pitch="53" RiffPosition="6.296875" Velocity="55" />
      <note Length="0.015625" Pitch="65" RiffPosition="6.3125" Velocity="71" />
      <note Length="0.015625" Pitch="68" RiffPosition="6.328125" Velocity="63" />
      <note Length="0.03125" Pitch="67" RiffPosition="6.34375" Velocity="76" />
      <note Length="0.03125" Pitch="61" RiffPosition="6.375" Velocity="64" />
      <note Length="0.03125" Pitch="60" RiffPosition="6.40625" Velocity="45" />
      <note Length="0.03125" Pitch="53" RiffPosition="6.4375" Velocity="77" />
      <note Length="0.015625" Pitch="68" RiffPosition="6.46875" Velocity="34" />
      <note Length="0.015625" Pitch="67" RiffPosition="6.484375" Velocity="57" />
      <note Length="0.015625" Pitch="65" RiffPosition="6.5" Velocity="34" />
      <note Length="0.015625" Pitch="61" RiffPosition="6.515625" Velocity="38" />
      <note Length="0.015625" Pitch="53" RiffPosition="6.53125" Velocity="42" />
      <note Length="0.015625" Pitch="65" RiffPosition="6.546875" Velocity="34" />
      <note Length="0.015625" Pitch="68" RiffPosition="6.5625" Velocity="44" />
      <note Length="0.015625" Pitch="68" RiffPosition="6.578125" Velocity="63" />
      <note Length="0.03125" Pitch="68" RiffPosition="6.59375" Velocity="51" />
      <note Length="0.03125" Pitch="65" RiffPosition="6.625" Velocity="63" />
      <note Length="0.03125" Pitch="53" RiffPosition="6.65625" Velocity="61" />
      <note Length="0.03125" Pitch="67" RiffPosition="6.6875" Velocity="63" />
      <note Length="0.015625" Pitch="68" RiffPosition="6.71875" Velocity="35" />
      <note Length="0.015625" Pitch="53" RiffPosition="6.734375" Velocity="49" />
      <note Length="0.015625" Pitch="53" RiffPosition="6.75" Velocity="38" />
      <note Length="0.015625" Pitch="61" RiffPosition="6.765625" Velocity="60" />
      <note Length="0.015625" Pitch="53" RiffPosition="6.78125" Velocity="48" />
      <note Length="0.015625" Pitch="53" RiffPosition="6.796875" Velocity="64" />
      <note Length="0.015625" Pitch="53" RiffPosition="6.8125" Velocity="46" />
      <note Length="0.015625" Pitch="67" RiffPosition="6.828125" Velocity="49" />
      <note Length="0.03125" Pitch="65" RiffPosition="6.84375" Velocity="33" />
      <note Length="0.03125" Pitch="60" RiffPosition="6.875" Velocity="49" />
      <note Length="0.03125" Pitch="60" RiffPosition="6.90625" Velocity="65" />
      <note Length="0.03125" Pitch="68" RiffPosition="6.9375" Velocity="62" />
      <note Length="0.015625" Pitch="68" RiffPosition="6.96875" Velocity="45" />
      <note Length="0.015625" Pitch="65" RiffPosition="6.984375" Velocity="56" />
      <note Length="0.015625" Pitch="51" RiffPosition="7" Velocity="55" />
      <note Length="0.015625" Pitch="58" RiffPosition="7.015625" Velocity="34" />
      <note Length="0.015625" Pitch="51" RiffPosition="7.03125" Velocity="48" />
      <note Length="0.015625" Pitch="51" RiffPosition="7.046875" Velocity="31" />
      <note Length="0.015625" Pitch="65" RiffPosition="7.0625" Velocity="45" />
      <note Length="0.015625" Pitch="63" RiffPosition="7.078125" Velocity="60" />
      <note Length="0.03125" Pitch="66" RiffPosition="7.09375" Velocity="39" />
      <note Length="0.03125" Pitch="63" RiffPosition="7.125" Velocity="67" />
      <note Length="0.03125" Pitch="51" RiffPosition="7.15625" Velocity="31" />
      <note Length="0.03125" Pitch="65" RiffPosition="7.1875" Velocity="33" />
      <note Length="0.015625" Pitch="66" RiffPosition="7.21875" Velocity="30" />
      <note Length="0.015625" Pitch="63" RiffPosition="7.234375" Velocity="52" />
      <note Length="0.015625" Pitch="51" RiffPosition="7.25" Velocity="76" />
      <note Length="0.015625" Pitch="59" RiffPosition="7.265625" Velocity="64" />
      <note Length="0.015625" Pitch="51" RiffPosition="7.28125" Velocity="83" />
      <note Length="0.015625" Pitch="51" RiffPosition="7.296875" Velocity="68" />
      <note Length="0.015625" Pitch="51" RiffPosition="7.3125" Velocity="52" />
      <note Length="0.015625" Pitch="63" RiffPosition="7.328125" Velocity="60" />
      <note Length="0.03125" Pitch="63" RiffPosition="7.34375" Velocity="47" />
      <note Length="0.03125" Pitch="51" RiffPosition="7.375" Velocity="59" />
      <note Length="0.03125" Pitch="59" RiffPosition="7.40625" Velocity="77" />
      <note Length="0.03125" Pitch="63" RiffPosition="7.4375" Velocity="46" />
      <note Length="0.015625" Pitch="65" RiffPosition="7.46875" Velocity="31" />
      <note Length="0.015625" Pitch="63" RiffPosition="7.484375" Velocity="52" />
      <note Length="0.015625" Pitch="51" RiffPosition="7.5" Velocity="30" />
      <note Length="0.015625" Pitch="51" RiffPosition="7.515625" Velocity="42" />
      <note Length="0.015625" Pitch="51" RiffPosition="7.53125" Velocity="38" />
      <note Length="0.015625" Pitch="51" RiffPosition="7.546875" Velocity="38" />
      <note Length="0.015625" Pitch="68" RiffPosition="7.5625" Velocity="54" />
      <note Length="0.015625" Pitch="63" RiffPosition="7.578125" Velocity="68" />
      <note Length="0.03125" Pitch="70" RiffPosition="7.59375" Velocity="81" />
      <note Length="0.03125" Pitch="63" RiffPosition="7.625" Velocity="69" />
      <note Length="0.03125" Pitch="51" RiffPosition="7.65625" Velocity="71" />
      <note Length="0.03125" Pitch="63" RiffPosition="7.6875" Velocity="69" />
      <note Length="0.015625" Pitch="66" RiffPosition="7.71875" Velocity="72" />
      <note Length="0.015625" Pitch="65" RiffPosition="7.734375" Velocity="83" />
      <note Length="0.015625" Pitch="51" RiffPosition="7.75" Velocity="94" />
      <note Length="0.015625" Pitch="58" RiffPosition="7.765625" Velocity="72" />
      <note Length="0.015625" Pitch="59" RiffPosition="7.78125" Velocity="53" />
      <note Length="0.015625" Pitch="51" RiffPosition="7.796875" Velocity="68" />
      <note Length="0.015625" Pitch="63" RiffPosition="7.8125" Velocity="50" />
      <note Length="0.015625" Pitch="63" RiffPosition="7.828125" Velocity="53" />
      <note Length="0.03125" Pitch="63" RiffPosition="7.84375" Velocity="32" />
      <note Length="0.03125" Pitch="51" RiffPosition="7.875" Velocity="54" />
      <note Length="0.03125" Pitch="59" RiffPosition="7.90625" Velocity="58" />
      <note Length="0.03125" Pitch="63" RiffPosition="7.9375" Velocity="60" />
      <note Length="0.015625" Pitch="65" RiffPosition="7.96875" Velocity="77" />
      <note Length="0.015625" Pitch="63" RiffPosition="7.984375" Velocity="67" />
      <note Length="0.015625" Pitch="53" RiffPosition="8" Velocity="101" />
      <note Length="0.015625" Pitch="53" RiffPosition="8.015625" Velocity="89" />
      <note Length="0.015625" Pitch="53" RiffPosition="8.03125" Velocity="75" />
      <note Length="0.015625" Pitch="65" RiffPosition="8.046875" Velocity="93" />
      <note Length="0.015625" Pitch="68" RiffPosition="8.0625" Velocity="77" />
      <note Length="0.015625" Pitch="70" RiffPosition="8.078125" Velocity="97" />
      <note Length="0.03125" Pitch="70" RiffPosition="8.09375" Velocity="84" />
      <note Length="0.03125" Pitch="53" RiffPosition="8.125" Velocity="63" />
      <note Length="0.03125" Pitch="53" RiffPosition="8.15625" Velocity="60" />
      <note Length="0.03125" Pitch="65" RiffPosition="8.1875" Velocity="31" />
      <note Length="0.015625" Pitch="68" RiffPosition="8.21875" Velocity="35" />
      <note Length="0.015625" Pitch="67" RiffPosition="8.234375" Velocity="79" />
      <note Length="0.015625" Pitch="53" RiffPosition="8.25" Velocity="56" />
      <note Length="0.015625" Pitch="60" RiffPosition="8.265625" Velocity="68" />
      <note Length="0.015625" Pitch="61" RiffPosition="8.28125" Velocity="48" />
      <note Length="0.015625" Pitch="53" RiffPosition="8.296875" Velocity="64" />
      <note Length="0.015625" Pitch="65" RiffPosition="8.3125" Velocity="80" />
      <note Length="0.015625" Pitch="65" RiffPosition="8.328125" Velocity="72" />
      <note Length="0.03125" Pitch="53" RiffPosition="8.34375" Velocity="85" />
      <note Length="0.03125" Pitch="53" RiffPosition="8.375" Velocity="73" />
      <note Length="0.03125" Pitch="60" RiffPosition="8.40625" Velocity="55" />
      <note Length="0.03125" Pitch="65" RiffPosition="8.4375" Velocity="52" />
      <note Length="0.015625" Pitch="65" RiffPosition="8.46875" Velocity="35" />
      <note Length="0.015625" Pitch="53" RiffPosition="8.484375" Velocity="48" />
      <note Length="0.015625" Pitch="53" RiffPosition="8.5" Velocity="35" />
      <note Length="0.015625" Pitch="53" RiffPosition="8.515625" Velocity="47" />
      <note Length="0.015625" Pitch="53" RiffPosition="8.53125" Velocity="33" />
      <note Length="0.015625" Pitch="65" RiffPosition="8.546875" Velocity="43" />
      <note Length="0.015625" Pitch="68" RiffPosition="8.5625" Velocity="69" />
      <note Length="0.015625" Pitch="70" RiffPosition="8.578125" Velocity="54" />
      <note Length="0.03125" Pitch="70" RiffPosition="8.59375" Velocity="76" />
      <note Length="0.03125" Pitch="53" RiffPosition="8.625" Velocity="54" />
      <note Length="0.03125" Pitch="53" RiffPosition="8.65625" Velocity="52" />
      <note Length="0.03125" Pitch="67" RiffPosition="8.6875" Velocity="54" />
      <note Length="0.015625" Pitch="68" RiffPosition="8.71875" Velocity="50" />
      <note Length="0.015625" Pitch="65" RiffPosition="8.734375" Velocity="40" />
      <note Length="0.015625" Pitch="53" RiffPosition="8.75" Velocity="31" />
      <note Length="0.015625" Pitch="58" RiffPosition="8.765625" Velocity="51" />
      <note Length="0.015625" Pitch="60" RiffPosition="8.78125" Velocity="57" />
      <note Length="0.015625" Pitch="53" RiffPosition="8.796875" Velocity="39" />
      <note Length="0.015625" Pitch="53" RiffPosition="8.8125" Velocity="55" />
      <note Length="0.015625" Pitch="68" RiffPosition="8.828125" Velocity="58" />
      <note Length="0.03125" Pitch="65" RiffPosition="8.84375" Velocity="36" />
      <note Length="0.03125" Pitch="53" RiffPosition="8.875" Velocity="36" />
      <note Length="0.03125" Pitch="60" RiffPosition="8.90625" Velocity="74" />
      <note Length="0.03125" Pitch="65" RiffPosition="8.9375" Velocity="72" />
      <note Length="0.015625" Pitch="68" RiffPosition="8.96875" Velocity="54" />
      <note Length="0.015625" Pitch="53" RiffPosition="8.984375" Velocity="65" />
      <note Length="0.015625" Pitch="51" RiffPosition="9" Velocity="0" />
      <note Length="0.015625" Pitch="51" RiffPosition="9.015625" Velocity="0" />
      <note Length="0.015625" Pitch="51" RiffPosition="9.03125" Velocity="0" />
      <note Length="0.015625" Pitch="63" RiffPosition="9.046875" Velocity="0" />
      <note Length="0.015625" Pitch="65" RiffPosition="9.0625" Velocity="0" />
      <note Length="0.015625" Pitch="68" RiffPosition="9.078125" Velocity="0" />
      <note Length="0.03125" Pitch="68" RiffPosition="9.09375" Velocity="0" />
      <note Length="0.03125" Pitch="51" RiffPosition="9.125" Velocity="0" />
      <note Length="0.03125" Pitch="51" RiffPosition="9.15625" Velocity="0" />
      <note Length="0.03125" Pitch="66" RiffPosition="9.1875" Velocity="0" />
      <note Length="0.015625" Pitch="66" RiffPosition="9.21875" Velocity="0" />
      <note Length="0.015625" Pitch="63" RiffPosition="9.234375" Velocity="0" />
      <note Length="0.015625" Pitch="51" RiffPosition="9.25" Velocity="0" />
      <note Length="0.015625" Pitch="59" RiffPosition="9.265625" Velocity="0" />
      <note Length="0.015625" Pitch="58" RiffPosition="9.28125" Velocity="0" />
      <note Length="0.015625" Pitch="51" RiffPosition="9.296875" Velocity="0" />
      <note Length="0.015625" Pitch="63" RiffPosition="9.3125" Velocity="0" />
      <note Length="0.015625" Pitch="66" RiffPosition="9.328125" Velocity="0" />
      <note Length="0.03125" Pitch="63" RiffPosition="9.34375" Velocity="0" />
      <note Length="0.03125" Pitch="59" RiffPosition="9.375" Velocity="0" />
      <note Length="0.03125" Pitch="59" RiffPosition="9.40625" Velocity="0" />
      <note Length="0.03125" Pitch="51" RiffPosition="9.4375" Velocity="0" />
      <note Length="0.015625" Pitch="66" RiffPosition="9.46875" Velocity="0" />
      <note Length="0.015625" Pitch="65" RiffPosition="9.484375" Velocity="0" />
      <note Length="0.015625" Pitch="51" RiffPosition="9.5" Velocity="0" />
      <note Length="0.015625" Pitch="51" RiffPosition="9.515625" Velocity="0" />
      <note Length="0.015625" Pitch="51" RiffPosition="9.53125" Velocity="0" />
      <note Length="0.015625" Pitch="63" RiffPosition="9.546875" Velocity="0" />
      <note Length="0.015625" Pitch="65" RiffPosition="9.5625" Velocity="0" />
      <note Length="0.015625" Pitch="68" RiffPosition="9.578125" Velocity="0" />
      <note Length="0.03125" Pitch="68" RiffPosition="9.59375" Velocity="0" />
      <note Length="0.03125" Pitch="65" RiffPosition="9.625" Velocity="0" />
      <note Length="0.03125" Pitch="51" RiffPosition="9.65625" Velocity="0" />
      <note Length="0.03125" Pitch="66" RiffPosition="9.6875" Velocity="0" />
      <note Length="0.015625" Pitch="65" RiffPosition="9.71875" Velocity="0" />
      <note Length="0.015625" Pitch="51" RiffPosition="9.734375" Velocity="0" />
      <note Length="0.015625" Pitch="51" RiffPosition="9.75" Velocity="0" />
      <note Length="0.015625" Pitch="58" RiffPosition="9.765625" Velocity="0" />
      <note Length="0.015625" Pitch="58" RiffPosition="9.78125" Velocity="0" />
      <note Length="0.015625" Pitch="51" RiffPosition="9.796875" Velocity="0" />
      <note Length="0.015625" Pitch="63" RiffPosition="9.8125" Velocity="0" />
      <note Length="0.015625" Pitch="66" RiffPosition="9.828125" Velocity="0" />
      <note Length="0.03125" Pitch="65" RiffPosition="9.84375" Velocity="0" />
      <note Length="0.03125" Pitch="59" RiffPosition="9.875" Velocity="0" />
      <note Length="0.03125" Pitch="59" RiffPosition="9.90625" Velocity="0" />
      <note Length="0.03125" Pitch="51" RiffPosition="9.9375" Velocity="0" />
      <note Length="0.015625" Pitch="66" RiffPosition="9.96875" Velocity="0" />
      <note Length="0.015625" Pitch="65" RiffPosition="9.984375" Velocity="0" />
      <note Length="0.015625" Pitch="53" RiffPosition="10" Velocity="0" />
      <note Length="0.015625" Pitch="61" RiffPosition="10.015625" Velocity="0" />
      <note Length="0.015625" Pitch="53" RiffPosition="10.03125" Velocity="0" />
      <note Length="0.015625" Pitch="65" RiffPosition="10.046875" Velocity="0" />
      <note Length="0.015625" Pitch="68" RiffPosition="10.0625" Velocity="0" />
      <note Length="0.015625" Pitch="68" RiffPosition="10.078125" Velocity="0" />
      <note Length="0.03125" Pitch="68" RiffPosition="10.09375" Velocity="0" />
      <note Length="0.03125" Pitch="65" RiffPosition="10.125" Velocity="0" />
      <note Length="0.03125" Pitch="53" RiffPosition="10.15625" Velocity="0" />
      <note Length="0.03125" Pitch="68" RiffPosition="10.1875" Velocity="0" />
      <note Length="0.015625" Pitch="67" RiffPosition="10.21875" Velocity="0" />
      <note Length="0.015625" Pitch="53" RiffPosition="10.234375" Velocity="0" />
      <note Length="0.015625" Pitch="53" RiffPosition="10.25" Velocity="0" />
      <note Length="0.015625" Pitch="53" RiffPosition="10.265625" Velocity="0" />
      <note Length="0.015625" Pitch="53" RiffPosition="10.28125" Velocity="0" />
      <note Length="0.015625" Pitch="53" RiffPosition="10.296875" Velocity="0" />
      <note Length="0.015625" Pitch="53" RiffPosition="10.3125" Velocity="0" />
      <note Length="0.015625" Pitch="67" RiffPosition="10.328125" Velocity="0" />
      <note Length="0.03125" Pitch="65" RiffPosition="10.34375" Velocity="0" />
      <note Length="0.03125" Pitch="60" RiffPosition="10.375" Velocity="0" />
      <note Length="0.03125" Pitch="60" RiffPosition="10.40625" Velocity="0" />
      <note Length="0.03125" Pitch="65" RiffPosition="10.4375" Velocity="0" />
      <note Length="0.015625" Pitch="68" RiffPosition="10.46875" Velocity="0" />
      <note Length="0.015625" Pitch="65" RiffPosition="10.484375" Velocity="0" />
      <note Length="0.015625" Pitch="53" RiffPosition="10.5" Velocity="0" />
      <note Length="0.015625" Pitch="61" RiffPosition="10.515625" Velocity="0" />
      <note Length="0.015625" Pitch="53" RiffPosition="10.53125" Velocity="0" />
      <note Length="0.015625" Pitch="65" RiffPosition="10.546875" Velocity="0" />
      <note Length="0.015625" Pitch="68" RiffPosition="10.5625" Velocity="0" />
      <note Length="0.015625" Pitch="65" RiffPosition="10.578125" Velocity="0" />
      <note Length="0.03125" Pitch="70" RiffPosition="10.59375" Velocity="0" />
      <note Length="0.03125" Pitch="65" RiffPosition="10.625" Velocity="0" />
      <note Length="0.03125" Pitch="53" RiffPosition="10.65625" Velocity="0" />
      <note Length="0.03125" Pitch="67" RiffPosition="10.6875" Velocity="0" />
      <note Length="0.015625" Pitch="68" RiffPosition="10.71875" Velocity="0" />
      <note Length="0.015625" Pitch="53" RiffPosition="10.734375" Velocity="0" />
      <note Length="0.015625" Pitch="53" RiffPosition="10.75" Velocity="0" />
      <note Length="0.015625" Pitch="61" RiffPosition="10.765625" Velocity="0" />
      <note Length="0.015625" Pitch="53" RiffPosition="10.78125" Velocity="0" />
      <note Length="0.015625" Pitch="53" RiffPosition="10.796875" Velocity="0" />
      <note Length="0.015625" Pitch="53" RiffPosition="10.8125" Velocity="0" />
      <note Length="0.015625" Pitch="67" RiffPosition="10.828125" Velocity="0" />
      <note Length="0.03125" Pitch="65" RiffPosition="10.84375" Velocity="0" />
      <note Length="0.03125" Pitch="60" RiffPosition="10.875" Velocity="0" />
      <note Length="0.03125" Pitch="53" RiffPosition="10.90625" Velocity="0" />
      <note Length="0.03125" Pitch="67" RiffPosition="10.9375" Velocity="0" />
      <note Length="0.015625" Pitch="67" RiffPosition="10.96875" Velocity="0" />
      <note Length="0.015625" Pitch="65" RiffPosition="10.984375" Velocity="0" />
    </riff>
    <riff IsDrum="False" MidiInstrument="34" Tempo="121" Length="11">
      <note Length="0.03125" Pitch="44" RiffPosition="0" Velocity="0" />
      <note Length="0.03125" Pitch="41" RiffPosition="0.03125" Velocity="0" />
      <note Length="0.015625" Pitch="36" RiffPosition="0.0625" Velocity="0" />
      <note Length="0.046875" Pitch="29" RiffPosition="0.078125" Velocity="0" />
      <note Length="0.03125" Pitch="44" RiffPosition="0.125" Velocity="0" />
      <note Length="0.03125" Pitch="29" RiffPosition="0.15625" Velocity="0" />
      <note Length="0.015625" Pitch="29" RiffPosition="0.1875" Velocity="0" />
      <note Length="0.046875" Pitch="29" RiffPosition="0.203125" Velocity="0" />
      <note Length="0.03125" Pitch="44" RiffPosition="0.25" Velocity="0" />
      <note Length="0.03125" Pitch="29" RiffPosition="0.28125" Velocity="0" />
      <note Length="0.015625" Pitch="37" RiffPosition="0.3125" Velocity="0" />
      <note Length="0.046875" Pitch="29" RiffPosition="0.328125" Velocity="0" />
      <note Length="0.03125" Pitch="44" RiffPosition="0.375" Velocity="0" />
      <note Length="0.03125" Pitch="41" RiffPosition="0.40625" Velocity="0" />
      <note Length="0.015625" Pitch="36" RiffPosition="0.4375" Velocity="0" />
      <note Length="0.046875" Pitch="29" RiffPosition="0.453125" Velocity="0" />
      <note Length="0.03125" Pitch="44" RiffPosition="0.5" Velocity="0" />
      <note Length="0.03125" Pitch="29" RiffPosition="0.53125" Velocity="0" />
      <note Length="0.015625" Pitch="29" RiffPosition="0.5625" Velocity="0" />
      <note Length="0.046875" Pitch="29" RiffPosition="0.578125" Velocity="0" />
      <note Length="0.03125" Pitch="46" RiffPosition="0.625" Velocity="0" />
      <note Length="0.03125" Pitch="29" RiffPosition="0.65625" Velocity="0" />
      <note Length="0.015625" Pitch="37" RiffPosition="0.6875" Velocity="0" />
      <note Length="0.046875" Pitch="29" RiffPosition="0.703125" Velocity="0" />
      <note Length="0.03125" Pitch="44" RiffPosition="0.75" Velocity="0" />
      <note Length="0.03125" Pitch="41" RiffPosition="0.78125" Velocity="0" />
      <note Length="0.015625" Pitch="36" RiffPosition="0.8125" Velocity="0" />
      <note Length="0.046875" Pitch="29" RiffPosition="0.828125" Velocity="0" />
      <note Length="0.03125" Pitch="46" RiffPosition="0.875" Velocity="0" />
      <note Length="0.03125" Pitch="29" RiffPosition="0.90625" Velocity="0" />
      <note Length="0.015625" Pitch="29" RiffPosition="0.9375" Velocity="0" />
      <note Length="0.046875" Pitch="29" RiffPosition="0.953125" Velocity="0" />
      <note Length="0.03125" Pitch="42" RiffPosition="1" Velocity="55" />
      <note Length="0.03125" Pitch="27" RiffPosition="1.03125" Velocity="45" />
      <note Length="0.015625" Pitch="35" RiffPosition="1.0625" Velocity="52" />
      <note Length="0.046875" Pitch="27" RiffPosition="1.078125" Velocity="72" />
      <note Length="0.03125" Pitch="42" RiffPosition="1.125" Velocity="65" />
      <note Length="0.03125" Pitch="39" RiffPosition="1.15625" Velocity="96" />
      <note Length="0.015625" Pitch="34" RiffPosition="1.1875" Velocity="41" />
      <note Length="0.046875" Pitch="27" RiffPosition="1.203125" Velocity="45" />
      <note Length="0.03125" Pitch="44" RiffPosition="1.25" Velocity="60" />
      <note Length="0.03125" Pitch="27" RiffPosition="1.28125" Velocity="70" />
      <note Length="0.015625" Pitch="35" RiffPosition="1.3125" Velocity="43" />
      <note Length="0.046875" Pitch="27" RiffPosition="1.328125" Velocity="43" />
      <note Length="0.03125" Pitch="42" RiffPosition="1.375" Velocity="89" />
      <note Length="0.03125" Pitch="39" RiffPosition="1.40625" Velocity="51" />
      <note Length="0.015625" Pitch="34" RiffPosition="1.4375" Velocity="45" />
      <note Length="0.046875" Pitch="27" RiffPosition="1.453125" Velocity="50" />
      <note Length="0.03125" Pitch="42" RiffPosition="1.5" Velocity="75" />
      <note Length="0.03125" Pitch="39" RiffPosition="1.53125" Velocity="65" />
      <note Length="0.015625" Pitch="27" RiffPosition="1.5625" Velocity="38" />
      <note Length="0.046875" Pitch="27" RiffPosition="1.578125" Velocity="47" />
      <note Length="0.03125" Pitch="44" RiffPosition="1.625" Velocity="66" />
      <note Length="0.03125" Pitch="27" RiffPosition="1.65625" Velocity="35" />
      <note Length="0.015625" Pitch="35" RiffPosition="1.6875" Velocity="49" />
      <note Length="0.046875" Pitch="27" RiffPosition="1.703125" Velocity="54" />
      <note Length="0.03125" Pitch="42" RiffPosition="1.75" Velocity="71" />
      <note Length="0.03125" Pitch="39" RiffPosition="1.78125" Velocity="61" />
      <note Length="0.015625" Pitch="35" RiffPosition="1.8125" Velocity="36" />
      <note Length="0.046875" Pitch="27" RiffPosition="1.828125" Velocity="88" />
      <note Length="0.03125" Pitch="42" RiffPosition="1.875" Velocity="41" />
      <note Length="0.03125" Pitch="39" RiffPosition="1.90625" Velocity="60" />
      <note Length="0.015625" Pitch="27" RiffPosition="1.9375" Velocity="45" />
      <note Length="0.046875" Pitch="27" RiffPosition="1.953125" Velocity="40" />
      <note Length="0.03125" Pitch="46" RiffPosition="2" Velocity="0" />
      <note Length="0.03125" Pitch="29" RiffPosition="2.03125" Velocity="0" />
      <note Length="0.015625" Pitch="37" RiffPosition="2.0625" Velocity="0" />
      <note Length="0.046875" Pitch="29" RiffPosition="2.078125" Velocity="0" />
      <note Length="0.03125" Pitch="44" RiffPosition="2.125" Velocity="0" />
      <note Length="0.03125" Pitch="41" RiffPosition="2.15625" Velocity="0" />
      <note Length="0.015625" Pitch="36" RiffPosition="2.1875" Velocity="0" />
      <note Length="0.046875" Pitch="29" RiffPosition="2.203125" Velocity="0" />
      <note Length="0.03125" Pitch="44" RiffPosition="2.25" Velocity="0" />
      <note Length="0.03125" Pitch="29" RiffPosition="2.28125" Velocity="0" />
      <note Length="0.015625" Pitch="29" RiffPosition="2.3125" Velocity="0" />
      <note Length="0.046875" Pitch="29" RiffPosition="2.328125" Velocity="0" />
      <note Length="0.03125" Pitch="44" RiffPosition="2.375" Velocity="0" />
      <note Length="0.03125" Pitch="29" RiffPosition="2.40625" Velocity="0" />
      <note Length="0.015625" Pitch="37" RiffPosition="2.4375" Velocity="0" />
      <note Length="0.046875" Pitch="29" RiffPosition="2.453125" Velocity="0" />
      <note Length="0.03125" Pitch="44" RiffPosition="2.5" Velocity="0" />
      <note Length="0.03125" Pitch="41" RiffPosition="2.53125" Velocity="0" />
      <note Length="0.015625" Pitch="36" RiffPosition="2.5625" Velocity="0" />
      <note Length="0.046875" Pitch="29" RiffPosition="2.578125" Velocity="0" />
      <note Length="0.03125" Pitch="46" RiffPosition="2.625" Velocity="0" />
      <note Length="0.03125" Pitch="29" RiffPosition="2.65625" Velocity="0" />
      <note Length="0.015625" Pitch="29" RiffPosition="2.6875" Velocity="0" />
      <note Length="0.046875" Pitch="29" RiffPosition="2.703125" Velocity="0" />
      <note Length="0.03125" Pitch="46" RiffPosition="2.75" Velocity="0" />
      <note Length="0.03125" Pitch="29" RiffPosition="2.78125" Velocity="0" />
      <note Length="0.015625" Pitch="37" RiffPosition="2.8125" Velocity="0" />
      <note Length="0.046875" Pitch="29" RiffPosition="2.828125" Velocity="0" />
      <note Length="0.03125" Pitch="44" RiffPosition="2.875" Velocity="0" />
      <note Length="0.03125" Pitch="41" RiffPosition="2.90625" Velocity="0" />
      <note Length="0.015625" Pitch="36" RiffPosition="2.9375" Velocity="0" />
      <note Length="0.046875" Pitch="29" RiffPosition="2.953125" Velocity="0" />
      <note Length="0.03125" Pitch="44" RiffPosition="3" Velocity="65" />
      <note Length="0.03125" Pitch="27" RiffPosition="3.03125" Velocity="56" />
      <note Length="0.015625" Pitch="35" RiffPosition="3.0625" Velocity="41" />
      <note Length="0.046875" Pitch="27" RiffPosition="3.078125" Velocity="57" />
      <note Length="0.03125" Pitch="42" RiffPosition="3.125" Velocity="54" />
      <note Length="0.03125" Pitch="39" RiffPosition="3.15625" Velocity="85" />
      <note Length="0.015625" Pitch="34" RiffPosition="3.1875" Velocity="99" />
      <note Length="0.046875" Pitch="27" RiffPosition="3.203125" Velocity="35" />
      <note Length="0.03125" Pitch="42" RiffPosition="3.25" Velocity="49" />
      <note Length="0.03125" Pitch="27" RiffPosition="3.28125" Velocity="59" />
      <note Length="0.015625" Pitch="34" RiffPosition="3.3125" Velocity="53" />
      <note Length="0.046875" Pitch="27" RiffPosition="3.328125" Velocity="38" />
      <note Length="0.03125" Pitch="44" RiffPosition="3.375" Velocity="79" />
      <note Length="0.03125" Pitch="27" RiffPosition="3.40625" Velocity="41" />
      <note Length="0.015625" Pitch="35" RiffPosition="3.4375" Velocity="35" />
      <note Length="0.046875" Pitch="27" RiffPosition="3.453125" Velocity="39" />
      <note Length="0.03125" Pitch="42" RiffPosition="3.5" Velocity="54" />
      <note Length="0.03125" Pitch="39" RiffPosition="3.53125" Velocity="76" />
      <note Length="0.015625" Pitch="34" RiffPosition="3.5625" Velocity="49" />
      <note Length="0.046875" Pitch="27" RiffPosition="3.578125" Velocity="37" />
      <note Length="0.03125" Pitch="42" RiffPosition="3.625" Velocity="76" />
      <note Length="0.03125" Pitch="39" RiffPosition="3.65625" Velocity="45" />
      <note Length="0.015625" Pitch="27" RiffPosition="3.6875" Velocity="39" />
      <note Length="0.046875" Pitch="27" RiffPosition="3.703125" Velocity="44" />
      <note Length="0.03125" Pitch="44" RiffPosition="3.75" Velocity="81" />
      <note Length="0.03125" Pitch="27" RiffPosition="3.78125" Velocity="71" />
      <note Length="0.015625" Pitch="35" RiffPosition="3.8125" Velocity="44" />
      <note Length="0.046875" Pitch="27" RiffPosition="3.828125" Velocity="41" />
      <note Length="0.03125" Pitch="42" RiffPosition="3.875" Velocity="51" />
      <note Length="0.03125" Pitch="39" RiffPosition="3.90625" Velocity="50" />
      <note Length="0.015625" Pitch="34" RiffPosition="3.9375" Velocity="55" />
      <note Length="0.046875" Pitch="27" RiffPosition="3.953125" Velocity="51" />
      <note Length="0.03125" Pitch="44" RiffPosition="4" Velocity="36" />
      <note Length="0.03125" Pitch="29" RiffPosition="4.03125" Velocity="44" />
      <note Length="0.015625" Pitch="29" RiffPosition="4.0625" Velocity="69" />
      <note Length="0.046875" Pitch="29" RiffPosition="4.078125" Velocity="53" />
      <note Length="0.03125" Pitch="44" RiffPosition="4.125" Velocity="84" />
      <note Length="0.03125" Pitch="29" RiffPosition="4.15625" Velocity="46" />
      <note Length="0.015625" Pitch="37" RiffPosition="4.1875" Velocity="60" />
      <note Length="0.046875" Pitch="29" RiffPosition="4.203125" Velocity="64" />
      <note Length="0.03125" Pitch="44" RiffPosition="4.25" Velocity="79" />
      <note Length="0.03125" Pitch="41" RiffPosition="4.28125" Velocity="51" />
      <note Length="0.015625" Pitch="36" RiffPosition="4.3125" Velocity="46" />
      <note Length="0.046875" Pitch="29" RiffPosition="4.328125" Velocity="62" />
      <note Length="0.03125" Pitch="46" RiffPosition="4.375" Velocity="39" />
      <note Length="0.03125" Pitch="29" RiffPosition="4.40625" Velocity="70" />
      <note Length="0.015625" Pitch="29" RiffPosition="4.4375" Velocity="64" />
      <note Length="0.046875" Pitch="29" RiffPosition="4.453125" Velocity="69" />
      <note Length="0.03125" Pitch="44" RiffPosition="4.5" Velocity="56" />
      <note Length="0.03125" Pitch="29" RiffPosition="4.53125" Velocity="46" />
      <note Length="0.015625" Pitch="37" RiffPosition="4.5625" Velocity="51" />
      <note Length="0.046875" Pitch="29" RiffPosition="4.578125" Velocity="73" />
      <note Length="0.03125" Pitch="44" RiffPosition="4.625" Velocity="47" />
      <note Length="0.03125" Pitch="41" RiffPosition="4.65625" Velocity="54" />
      <note Length="0.015625" Pitch="36" RiffPosition="4.6875" Velocity="71" />
      <note Length="0.046875" Pitch="29" RiffPosition="4.703125" Velocity="66" />
      <note Length="0.03125" Pitch="46" RiffPosition="4.75" Velocity="52" />
      <note Length="0.03125" Pitch="29" RiffPosition="4.78125" Velocity="42" />
      <note Length="0.015625" Pitch="29" RiffPosition="4.8125" Velocity="84" />
      <note Length="0.046875" Pitch="29" RiffPosition="4.828125" Velocity="69" />
      <note Length="0.03125" Pitch="44" RiffPosition="4.875" Velocity="48" />
      <note Length="0.03125" Pitch="41" RiffPosition="4.90625" Velocity="60" />
      <note Length="0.015625" Pitch="37" RiffPosition="4.9375" Velocity="44" />
      <note Length="0.046875" Pitch="29" RiffPosition="4.953125" Velocity="49" />
      <note Length="0.03125" Pitch="42" RiffPosition="5" Velocity="76" />
      <note Length="0.03125" Pitch="39" RiffPosition="5.03125" Velocity="66" />
      <note Length="0.015625" Pitch="34" RiffPosition="5.0625" Velocity="39" />
      <note Length="0.046875" Pitch="27" RiffPosition="5.078125" Velocity="46" />
      <note Length="0.03125" Pitch="44" RiffPosition="5.125" Velocity="44" />
      <note Length="0.03125" Pitch="27" RiffPosition="5.15625" Velocity="75" />
      <note Length="0.015625" Pitch="35" RiffPosition="5.1875" Velocity="89" />
      <note Length="0.046875" Pitch="27" RiffPosition="5.203125" Velocity="94" />
      <note Length="0.03125" Pitch="42" RiffPosition="5.25" Velocity="39" />
      <note Length="0.03125" Pitch="39" RiffPosition="5.28125" Velocity="49" />
      <note Length="0.015625" Pitch="34" RiffPosition="5.3125" Velocity="76" />
      <note Length="0.046875" Pitch="27" RiffPosition="5.328125" Velocity="48" />
      <note Length="0.03125" Pitch="42" RiffPosition="5.375" Velocity="69" />
      <note Length="0.03125" Pitch="27" RiffPosition="5.40625" Velocity="100" />
      <note Length="0.015625" Pitch="27" RiffPosition="5.4375" Velocity="46" />
      <note Length="0.046875" Pitch="27" RiffPosition="5.453125" Velocity="41" />
      <note Length="0.03125" Pitch="44" RiffPosition="5.5" Velocity="43" />
      <note Length="0.03125" Pitch="27" RiffPosition="5.53125" Velocity="86" />
      <note Length="0.015625" Pitch="35" RiffPosition="5.5625" Velocity="59" />
      <note Length="0.046875" Pitch="27" RiffPosition="5.578125" Velocity="44" />
      <note Length="0.03125" Pitch="42" RiffPosition="5.625" Velocity="53" />
      <note Length="0.03125" Pitch="39" RiffPosition="5.65625" Velocity="55" />
      <note Length="0.015625" Pitch="34" RiffPosition="5.6875" Velocity="42" />
      <note Length="0.046875" Pitch="27" RiffPosition="5.703125" Velocity="37" />
      <note Length="0.03125" Pitch="42" RiffPosition="5.75" Velocity="91" />
      <note Length="0.03125" Pitch="39" RiffPosition="5.78125" Velocity="82" />
      <note Length="0.015625" Pitch="27" RiffPosition="5.8125" Velocity="55" />
      <note Length="0.046875" Pitch="27" RiffPosition="5.828125" Velocity="39" />
      <note Length="0.03125" Pitch="44" RiffPosition="5.875" Velocity="62" />
      <note Length="0.03125" Pitch="27" RiffPosition="5.90625" Velocity="39" />
      <note Length="0.015625" Pitch="35" RiffPosition="5.9375" Velocity="73" />
      <note Length="0.046875" Pitch="27" RiffPosition="5.953125" Velocity="61" />
      <note Length="0.03125" Pitch="44" RiffPosition="6" Velocity="0" />
      <note Length="0.03125" Pitch="41" RiffPosition="6.03125" Velocity="0" />
      <note Length="0.015625" Pitch="36" RiffPosition="6.0625" Velocity="0" />
      <note Length="0.046875" Pitch="29" RiffPosition="6.078125" Velocity="0" />
      <note Length="0.03125" Pitch="46" RiffPosition="6.125" Velocity="0" />
      <note Length="0.03125" Pitch="29" RiffPosition="6.15625" Velocity="0" />
      <note Length="0.015625" Pitch="29" RiffPosition="6.1875" Velocity="0" />
      <note Length="0.046875" Pitch="29" RiffPosition="6.203125" Velocity="0" />
      <note Length="0.03125" Pitch="44" RiffPosition="6.25" Velocity="0" />
      <note Length="0.03125" Pitch="29" RiffPosition="6.28125" Velocity="0" />
      <note Length="0.015625" Pitch="37" RiffPosition="6.3125" Velocity="0" />
      <note Length="0.046875" Pitch="29" RiffPosition="6.328125" Velocity="0" />
      <note Length="0.03125" Pitch="44" RiffPosition="6.375" Velocity="0" />
      <note Length="0.03125" Pitch="41" RiffPosition="6.40625" Velocity="0" />
      <note Length="0.015625" Pitch="36" RiffPosition="6.4375" Velocity="0" />
      <note Length="0.046875" Pitch="29" RiffPosition="6.453125" Velocity="0" />
      <note Length="0.03125" Pitch="46" RiffPosition="6.5" Velocity="0" />
      <note Length="0.03125" Pitch="29" RiffPosition="6.53125" Velocity="0" />
      <note Length="0.015625" Pitch="29" RiffPosition="6.5625" Velocity="0" />
      <note Length="0.046875" Pitch="29" RiffPosition="6.578125" Velocity="0" />
      <note Length="0.03125" Pitch="44" RiffPosition="6.625" Velocity="0" />
      <note Length="0.03125" Pitch="41" RiffPosition="6.65625" Velocity="0" />
      <note Length="0.015625" Pitch="37" RiffPosition="6.6875" Velocity="0" />
      <note Length="0.046875" Pitch="29" RiffPosition="6.703125" Velocity="0" />
      <note Length="0.03125" Pitch="44" RiffPosition="6.75" Velocity="0" />
      <note Length="0.03125" Pitch="41" RiffPosition="6.78125" Velocity="0" />
      <note Length="0.015625" Pitch="36" RiffPosition="6.8125" Velocity="0" />
      <note Length="0.046875" Pitch="29" RiffPosition="6.828125" Velocity="0" />
      <note Length="0.03125" Pitch="46" RiffPosition="6.875" Velocity="0" />
      <note Length="0.03125" Pitch="29" RiffPosition="6.90625" Velocity="0" />
      <note Length="0.015625" Pitch="37" RiffPosition="6.9375" Velocity="0" />
      <note Length="0.046875" Pitch="29" RiffPosition="6.953125" Velocity="0" />
      <note Length="0.03125" Pitch="42" RiffPosition="7" Velocity="0" />
      <note Length="0.03125" Pitch="39" RiffPosition="7.03125" Velocity="0" />
      <note Length="0.015625" Pitch="34" RiffPosition="7.0625" Velocity="0" />
      <note Length="0.046875" Pitch="27" RiffPosition="7.078125" Velocity="0" />
      <note Length="0.03125" Pitch="42" RiffPosition="7.125" Velocity="0" />
      <note Length="0.03125" Pitch="27" RiffPosition="7.15625" Velocity="0" />
      <note Length="0.015625" Pitch="27" RiffPosition="7.1875" Velocity="0" />
      <note Length="0.046875" Pitch="27" RiffPosition="7.203125" Velocity="0" />
      <note Length="0.03125" Pitch="44" RiffPosition="7.25" Velocity="0" />
      <note Length="0.03125" Pitch="27" RiffPosition="7.28125" Velocity="0" />
      <note Length="0.015625" Pitch="35" RiffPosition="7.3125" Velocity="0" />
      <note Length="0.046875" Pitch="27" RiffPosition="7.328125" Velocity="0" />
      <note Length="0.03125" Pitch="42" RiffPosition="7.375" Velocity="0" />
      <note Length="0.03125" Pitch="39" RiffPosition="7.40625" Velocity="0" />
      <note Length="0.015625" Pitch="34" RiffPosition="7.4375" Velocity="0" />
      <note Length="0.046875" Pitch="27" RiffPosition="7.453125" Velocity="0" />
      <note Length="0.03125" Pitch="42" RiffPosition="7.5" Velocity="0" />
      <note Length="0.03125" Pitch="27" RiffPosition="7.53125" Velocity="0" />
      <note Length="0.015625" Pitch="27" RiffPosition="7.5625" Velocity="0" />
      <note Length="0.046875" Pitch="27" RiffPosition="7.578125" Velocity="0" />
      <note Length="0.03125" Pitch="44" RiffPosition="7.625" Velocity="0" />
      <note Length="0.03125" Pitch="27" RiffPosition="7.65625" Velocity="0" />
      <note Length="0.015625" Pitch="35" RiffPosition="7.6875" Velocity="0" />
      <note Length="0.046875" Pitch="27" RiffPosition="7.703125" Velocity="0" />
      <note Length="0.03125" Pitch="42" RiffPosition="7.75" Velocity="0" />
      <note Length="0.03125" Pitch="39" RiffPosition="7.78125" Velocity="0" />
      <note Length="0.015625" Pitch="34" RiffPosition="7.8125" Velocity="0" />
      <note Length="0.046875" Pitch="27" RiffPosition="7.828125" Velocity="0" />
      <note Length="0.03125" Pitch="42" RiffPosition="7.875" Velocity="0" />
      <note Length="0.03125" Pitch="27" RiffPosition="7.90625" Velocity="0" />
      <note Length="0.015625" Pitch="27" RiffPosition="7.9375" Velocity="0" />
      <note Length="0.046875" Pitch="27" RiffPosition="7.953125" Velocity="0" />
      <note Length="0.03125" Pitch="44" RiffPosition="8" Velocity="57" />
      <note Length="0.03125" Pitch="29" RiffPosition="8.03125" Velocity="47" />
      <note Length="0.015625" Pitch="37" RiffPosition="8.0625" Velocity="50" />
      <note Length="0.046875" Pitch="29" RiffPosition="8.078125" Velocity="74" />
      <note Length="0.03125" Pitch="44" RiffPosition="8.125" Velocity="63" />
      <note Length="0.03125" Pitch="41" RiffPosition="8.15625" Velocity="94" />
      <note Length="0.015625" Pitch="36" RiffPosition="8.1875" Velocity="39" />
      <note Length="0.046875" Pitch="29" RiffPosition="8.203125" Velocity="44" />
      <note Length="0.03125" Pitch="46" RiffPosition="8.25" Velocity="58" />
      <note Length="0.03125" Pitch="29" RiffPosition="8.28125" Velocity="68" />
      <note Length="0.015625" Pitch="37" RiffPosition="8.3125" Velocity="45" />
      <note Length="0.046875" Pitch="29" RiffPosition="8.328125" Velocity="41" />
      <note Length="0.03125" Pitch="44" RiffPosition="8.375" Velocity="88" />
      <note Length="0.03125" Pitch="41" RiffPosition="8.40625" Velocity="49" />
      <note Length="0.015625" Pitch="37" RiffPosition="8.4375" Velocity="43" />
      <note Length="0.046875" Pitch="29" RiffPosition="8.453125" Velocity="48" />
      <note Length="0.03125" Pitch="44" RiffPosition="8.5" Velocity="77" />
      <note Length="0.03125" Pitch="41" RiffPosition="8.53125" Velocity="67" />
      <note Length="0.015625" Pitch="36" RiffPosition="8.5625" Velocity="40" />
      <note Length="0.046875" Pitch="29" RiffPosition="8.578125" Velocity="45" />
      <note Length="0.03125" Pitch="46" RiffPosition="8.625" Velocity="67" />
      <note Length="0.03125" Pitch="29" RiffPosition="8.65625" Velocity="36" />
      <note Length="0.015625" Pitch="29" RiffPosition="8.6875" Velocity="47" />
      <note Length="0.046875" Pitch="29" RiffPosition="8.703125" Velocity="52" />
      <note Length="0.03125" Pitch="44" RiffPosition="8.75" Velocity="72" />
      <note Length="0.03125" Pitch="41" RiffPosition="8.78125" Velocity="63" />
      <note Length="0.015625" Pitch="37" RiffPosition="8.8125" Velocity="36" />
      <note Length="0.046875" Pitch="29" RiffPosition="8.828125" Velocity="89" />
      <note Length="0.03125" Pitch="44" RiffPosition="8.875" Velocity="43" />
      <note Length="0.03125" Pitch="41" RiffPosition="8.90625" Velocity="58" />
      <note Length="0.015625" Pitch="29" RiffPosition="8.9375" Velocity="47" />
      <note Length="0.046875" Pitch="29" RiffPosition="8.953125" Velocity="42" />
      <note Length="0.03125" Pitch="44" RiffPosition="9" Velocity="43" />
      <note Length="0.03125" Pitch="27" RiffPosition="9.03125" Velocity="87" />
      <note Length="0.015625" Pitch="35" RiffPosition="9.0625" Velocity="60" />
      <note Length="0.046875" Pitch="27" RiffPosition="9.078125" Velocity="45" />
      <note Length="0.03125" Pitch="42" RiffPosition="9.125" Velocity="92" />
      <note Length="0.03125" Pitch="39" RiffPosition="9.15625" Velocity="54" />
      <note Length="0.015625" Pitch="34" RiffPosition="9.1875" Velocity="68" />
      <note Length="0.046875" Pitch="27" RiffPosition="9.203125" Velocity="73" />
      <note Length="0.03125" Pitch="42" RiffPosition="9.25" Velocity="52" />
      <note Length="0.03125" Pitch="27" RiffPosition="9.28125" Velocity="42" />
      <note Length="0.015625" Pitch="27" RiffPosition="9.3125" Velocity="55" />
      <note Length="0.046875" Pitch="27" RiffPosition="9.328125" Velocity="70" />
      <note Length="0.03125" Pitch="42" RiffPosition="9.375" Velocity="48" />
      <note Length="0.03125" Pitch="27" RiffPosition="9.40625" Velocity="79" />
      <note Length="0.015625" Pitch="35" RiffPosition="9.4375" Velocity="72" />
      <note Length="0.046875" Pitch="27" RiffPosition="9.453125" Velocity="62" />
      <note Length="0.03125" Pitch="42" RiffPosition="9.5" Velocity="47" />
      <note Length="0.03125" Pitch="39" RiffPosition="9.53125" Velocity="38" />
      <note Length="0.015625" Pitch="34" RiffPosition="9.5625" Velocity="80" />
      <note Length="0.046875" Pitch="27" RiffPosition="9.578125" Velocity="64" />
      <note Length="0.03125" Pitch="42" RiffPosition="9.625" Velocity="38" />
      <note Length="0.03125" Pitch="27" RiffPosition="9.65625" Velocity="63" />
      <note Length="0.015625" Pitch="27" RiffPosition="9.6875" Velocity="62" />
      <note Length="0.046875" Pitch="27" RiffPosition="9.703125" Velocity="58" />
      <note Length="0.03125" Pitch="44" RiffPosition="9.75" Velocity="43" />
      <note Length="0.03125" Pitch="27" RiffPosition="9.78125" Velocity="103" />
      <note Length="0.015625" Pitch="35" RiffPosition="9.8125" Velocity="76" />
      <note Length="0.046875" Pitch="27" RiffPosition="9.828125" Velocity="60" />
      <note Length="0.03125" Pitch="42" RiffPosition="9.875" Velocity="57" />
      <note Length="0.03125" Pitch="39" RiffPosition="9.90625" Velocity="52" />
      <note Length="0.015625" Pitch="34" RiffPosition="9.9375" Velocity="53" />
      <note Length="0.046875" Pitch="27" RiffPosition="9.953125" Velocity="57" />
      <note Length="0.03125" Pitch="46" RiffPosition="10" Velocity="67" />
      <note Length="0.03125" Pitch="29" RiffPosition="10.03125" Velocity="58" />
      <note Length="0.015625" Pitch="29" RiffPosition="10.0625" Velocity="39" />
      <note Length="0.046875" Pitch="29" RiffPosition="10.078125" Velocity="55" />
      <note Length="0.03125" Pitch="44" RiffPosition="10.125" Velocity="53" />
      <note Length="0.03125" Pitch="29" RiffPosition="10.15625" Velocity="84" />
      <note Length="0.015625" Pitch="37" RiffPosition="10.1875" Velocity="97" />
      <note Length="0.046875" Pitch="29" RiffPosition="10.203125" Velocity="37" />
      <note Length="0.03125" Pitch="44" RiffPosition="10.25" Velocity="48" />
      <note Length="0.03125" Pitch="41" RiffPosition="10.28125" Velocity="57" />
      <note Length="0.015625" Pitch="36" RiffPosition="10.3125" Velocity="55" />
      <note Length="0.046875" Pitch="29" RiffPosition="10.328125" Velocity="39" />
      <note Length="0.03125" Pitch="46" RiffPosition="10.375" Velocity="77" />
      <note Length="0.03125" Pitch="29" RiffPosition="10.40625" Velocity="108" />
      <note Length="0.015625" Pitch="37" RiffPosition="10.4375" Velocity="37" />
      <note Length="0.046875" Pitch="29" RiffPosition="10.453125" Velocity="37" />
      <note Length="0.03125" Pitch="44" RiffPosition="10.5" Velocity="52" />
      <note Length="0.03125" Pitch="41" RiffPosition="10.53125" Velocity="78" />
      <note Length="0.015625" Pitch="37" RiffPosition="10.5625" Velocity="51" />
      <note Length="0.046875" Pitch="29" RiffPosition="10.578125" Velocity="35" />
      <note Length="0.03125" Pitch="44" RiffPosition="10.625" Velocity="78" />
      <note Length="0.03125" Pitch="41" RiffPosition="10.65625" Velocity="47" />
      <note Length="0.015625" Pitch="29" RiffPosition="10.6875" Velocity="37" />
      <note Length="0.046875" Pitch="29" RiffPosition="10.703125" Velocity="42" />
      <note Length="0.03125" Pitch="46" RiffPosition="10.75" Velocity="83" />
      <note Length="0.03125" Pitch="29" RiffPosition="10.78125" Velocity="73" />
      <note Length="0.015625" Pitch="37" RiffPosition="10.8125" Velocity="46" />
      <note Length="0.046875" Pitch="29" RiffPosition="10.828125" Velocity="39" />
      <note Length="0.03125" Pitch="44" RiffPosition="10.875" Velocity="53" />
      <note Length="0.03125" Pitch="41" RiffPosition="10.90625" Velocity="48" />
      <note Length="0.015625" Pitch="36" RiffPosition="10.9375" Velocity="82" />
      <note Length="0.046875" Pitch="29" RiffPosition="10.953125" Velocity="52" />
    </riff>
    <riff IsDrum="False" MidiInstrument="36" Tempo="126" Length="11">
      <note Length="0.0625" Pitch="44" RiffPosition="0" Velocity="0" />
      <note Length="0.015625" Pitch="41" RiffPosition="0.0625" Velocity="0" />
      <note Length="0.046875" Pitch="41" RiffPosition="0.078125" Velocity="0" />
      <note Length="0.0625" Pitch="29" RiffPosition="0.125" Velocity="0" />
      <note Length="0.015625" Pitch="29" RiffPosition="0.1875" Velocity="0" />
      <note Length="0.046875" Pitch="29" RiffPosition="0.203125" Velocity="0" />
      <note Length="0.0625" Pitch="44" RiffPosition="0.25" Velocity="0" />
      <note Length="0.015625" Pitch="41" RiffPosition="0.3125" Velocity="0" />
      <note Length="0.046875" Pitch="41" RiffPosition="0.328125" Velocity="0" />
      <note Length="0.0625" Pitch="29" RiffPosition="0.375" Velocity="0" />
      <note Length="0.015625" Pitch="29" RiffPosition="0.4375" Velocity="0" />
      <note Length="0.046875" Pitch="29" RiffPosition="0.453125" Velocity="0" />
      <note Length="0.0625" Pitch="43" RiffPosition="0.5" Velocity="0" />
      <note Length="0.015625" Pitch="41" RiffPosition="0.5625" Velocity="0" />
      <note Length="0.046875" Pitch="29" RiffPosition="0.578125" Velocity="0" />
      <note Length="0.0625" Pitch="29" RiffPosition="0.625" Velocity="0" />
      <note Length="0.015625" Pitch="29" RiffPosition="0.6875" Velocity="0" />
      <note Length="0.046875" Pitch="41" RiffPosition="0.703125" Velocity="0" />
      <note Length="0.0625" Pitch="44" RiffPosition="0.75" Velocity="0" />
      <note Length="0.015625" Pitch="41" RiffPosition="0.8125" Velocity="0" />
      <note Length="0.046875" Pitch="29" RiffPosition="0.828125" Velocity="0" />
      <note Length="0.0625" Pitch="29" RiffPosition="0.875" Velocity="0" />
      <note Length="0.015625" Pitch="29" RiffPosition="0.9375" Velocity="0" />
      <note Length="0.046875" Pitch="41" RiffPosition="0.953125" Velocity="0" />
      <note Length="0.0625" Pitch="42" RiffPosition="1" Velocity="69" />
      <note Length="0.015625" Pitch="39" RiffPosition="1.0625" Velocity="50" />
      <note Length="0.046875" Pitch="39" RiffPosition="1.078125" Velocity="59" />
      <note Length="0.0625" Pitch="27" RiffPosition="1.125" Velocity="57" />
      <note Length="0.015625" Pitch="27" RiffPosition="1.1875" Velocity="43" />
      <note Length="0.046875" Pitch="27" RiffPosition="1.203125" Velocity="50" />
      <note Length="0.0625" Pitch="42" RiffPosition="1.25" Velocity="40" />
      <note Length="0.015625" Pitch="39" RiffPosition="1.3125" Velocity="65" />
      <note Length="0.046875" Pitch="39" RiffPosition="1.328125" Velocity="41" />
      <note Length="0.0625" Pitch="27" RiffPosition="1.375" Velocity="37" />
      <note Length="0.015625" Pitch="27" RiffPosition="1.4375" Velocity="64" />
      <note Length="0.046875" Pitch="27" RiffPosition="1.453125" Velocity="36" />
      <note Length="0.0625" Pitch="41" RiffPosition="1.5" Velocity="46" />
      <note Length="0.015625" Pitch="39" RiffPosition="1.5625" Velocity="44" />
      <note Length="0.046875" Pitch="27" RiffPosition="1.578125" Velocity="54" />
      <note Length="0.0625" Pitch="27" RiffPosition="1.625" Velocity="64" />
      <note Length="0.015625" Pitch="27" RiffPosition="1.6875" Velocity="50" />
      <note Length="0.046875" Pitch="39" RiffPosition="1.703125" Velocity="61" />
      <note Length="0.0625" Pitch="42" RiffPosition="1.75" Velocity="61" />
      <note Length="0.015625" Pitch="39" RiffPosition="1.8125" Velocity="36" />
      <note Length="0.046875" Pitch="27" RiffPosition="1.828125" Velocity="57" />
      <note Length="0.0625" Pitch="27" RiffPosition="1.875" Velocity="37" />
      <note Length="0.015625" Pitch="27" RiffPosition="1.9375" Velocity="62" />
      <note Length="0.046875" Pitch="39" RiffPosition="1.953125" Velocity="38" />
      <note Length="0.0625" Pitch="44" RiffPosition="2" Velocity="0" />
      <note Length="0.015625" Pitch="41" RiffPosition="2.0625" Velocity="0" />
      <note Length="0.046875" Pitch="41" RiffPosition="2.078125" Velocity="0" />
      <note Length="0.0625" Pitch="29" RiffPosition="2.125" Velocity="0" />
      <note Length="0.015625" Pitch="29" RiffPosition="2.1875" Velocity="0" />
      <note Length="0.046875" Pitch="29" RiffPosition="2.203125" Velocity="0" />
      <note Length="0.0625" Pitch="44" RiffPosition="2.25" Velocity="0" />
      <note Length="0.015625" Pitch="41" RiffPosition="2.3125" Velocity="0" />
      <note Length="0.046875" Pitch="41" RiffPosition="2.328125" Velocity="0" />
      <note Length="0.0625" Pitch="29" RiffPosition="2.375" Velocity="0" />
      <note Length="0.015625" Pitch="29" RiffPosition="2.4375" Velocity="0" />
      <note Length="0.046875" Pitch="29" RiffPosition="2.453125" Velocity="0" />
      <note Length="0.0625" Pitch="43" RiffPosition="2.5" Velocity="0" />
      <note Length="0.015625" Pitch="41" RiffPosition="2.5625" Velocity="0" />
      <note Length="0.046875" Pitch="29" RiffPosition="2.578125" Velocity="0" />
      <note Length="0.0625" Pitch="29" RiffPosition="2.625" Velocity="0" />
      <note Length="0.015625" Pitch="29" RiffPosition="2.6875" Velocity="0" />
      <note Length="0.046875" Pitch="41" RiffPosition="2.703125" Velocity="0" />
      <note Length="0.0625" Pitch="44" RiffPosition="2.75" Velocity="0" />
      <note Length="0.015625" Pitch="41" RiffPosition="2.8125" Velocity="0" />
      <note Length="0.046875" Pitch="29" RiffPosition="2.828125" Velocity="0" />
      <note Length="0.0625" Pitch="29" RiffPosition="2.875" Velocity="0" />
      <note Length="0.015625" Pitch="29" RiffPosition="2.9375" Velocity="0" />
      <note Length="0.046875" Pitch="41" RiffPosition="2.953125" Velocity="0" />
      <note Length="0.0625" Pitch="42" RiffPosition="3" Velocity="62" />
      <note Length="0.015625" Pitch="39" RiffPosition="3.0625" Velocity="43" />
      <note Length="0.046875" Pitch="39" RiffPosition="3.078125" Velocity="68" />
      <note Length="0.0625" Pitch="27" RiffPosition="3.125" Velocity="65" />
      <note Length="0.015625" Pitch="27" RiffPosition="3.1875" Velocity="49" />
      <note Length="0.046875" Pitch="27" RiffPosition="3.203125" Velocity="44" />
      <note Length="0.0625" Pitch="42" RiffPosition="3.25" Velocity="39" />
      <note Length="0.015625" Pitch="39" RiffPosition="3.3125" Velocity="71" />
      <note Length="0.046875" Pitch="39" RiffPosition="3.328125" Velocity="47" />
      <note Length="0.0625" Pitch="27" RiffPosition="3.375" Velocity="44" />
      <note Length="0.015625" Pitch="27" RiffPosition="3.4375" Velocity="56" />
      <note Length="0.046875" Pitch="27" RiffPosition="3.453125" Velocity="42" />
      <note Length="0.0625" Pitch="41" RiffPosition="3.5" Velocity="40" />
      <note Length="0.015625" Pitch="39" RiffPosition="3.5625" Velocity="36" />
      <note Length="0.046875" Pitch="27" RiffPosition="3.578125" Velocity="62" />
      <note Length="0.0625" Pitch="27" RiffPosition="3.625" Velocity="58" />
      <note Length="0.015625" Pitch="27" RiffPosition="3.6875" Velocity="44" />
      <note Length="0.046875" Pitch="39" RiffPosition="3.703125" Velocity="69" />
      <note Length="0.0625" Pitch="42" RiffPosition="3.75" Velocity="70" />
      <note Length="0.015625" Pitch="39" RiffPosition="3.8125" Velocity="42" />
      <note Length="0.046875" Pitch="27" RiffPosition="3.828125" Velocity="51" />
      <note Length="0.0625" Pitch="27" RiffPosition="3.875" Velocity="45" />
      <note Length="0.015625" Pitch="27" RiffPosition="3.9375" Velocity="68" />
      <note Length="0.046875" Pitch="39" RiffPosition="3.953125" Velocity="44" />
      <note Length="0.0625" Pitch="44" RiffPosition="4" Velocity="45" />
      <note Length="0.015625" Pitch="41" RiffPosition="4.0625" Velocity="61" />
      <note Length="0.046875" Pitch="41" RiffPosition="4.078125" Velocity="36" />
      <note Length="0.0625" Pitch="29" RiffPosition="4.125" Velocity="39" />
      <note Length="0.015625" Pitch="29" RiffPosition="4.1875" Velocity="45" />
      <note Length="0.046875" Pitch="29" RiffPosition="4.203125" Velocity="53" />
      <note Length="0.0625" Pitch="44" RiffPosition="4.25" Velocity="51" />
      <note Length="0.015625" Pitch="41" RiffPosition="4.3125" Velocity="41" />
      <note Length="0.046875" Pitch="41" RiffPosition="4.328125" Velocity="68" />
      <note Length="0.0625" Pitch="29" RiffPosition="4.375" Velocity="72" />
      <note Length="0.015625" Pitch="29" RiffPosition="4.4375" Velocity="36" />
      <note Length="0.046875" Pitch="29" RiffPosition="4.453125" Velocity="57" />
      <note Length="0.0625" Pitch="43" RiffPosition="4.5" Velocity="52" />
      <note Length="0.015625" Pitch="41" RiffPosition="4.5625" Velocity="48" />
      <note Length="0.046875" Pitch="29" RiffPosition="4.578125" Velocity="39" />
      <note Length="0.0625" Pitch="29" RiffPosition="4.625" Velocity="42" />
      <note Length="0.015625" Pitch="29" RiffPosition="4.6875" Velocity="64" />
      <note Length="0.046875" Pitch="41" RiffPosition="4.703125" Velocity="38" />
      <note Length="0.0625" Pitch="44" RiffPosition="4.75" Velocity="46" />
      <note Length="0.015625" Pitch="41" RiffPosition="4.8125" Velocity="54" />
      <note Length="0.046875" Pitch="29" RiffPosition="4.828125" Velocity="44" />
      <note Length="0.0625" Pitch="29" RiffPosition="4.875" Velocity="57" />
      <note Length="0.015625" Pitch="29" RiffPosition="4.9375" Velocity="35" />
      <note Length="0.046875" Pitch="41" RiffPosition="4.953125" Velocity="63" />
      <note Length="0.0625" Pitch="42" RiffPosition="5" Velocity="71" />
      <note Length="0.015625" Pitch="39" RiffPosition="5.0625" Velocity="37" />
      <note Length="0.046875" Pitch="39" RiffPosition="5.078125" Velocity="61" />
      <note Length="0.0625" Pitch="27" RiffPosition="5.125" Velocity="59" />
      <note Length="0.015625" Pitch="27" RiffPosition="5.1875" Velocity="41" />
      <note Length="0.046875" Pitch="27" RiffPosition="5.203125" Velocity="37" />
      <note Length="0.0625" Pitch="42" RiffPosition="5.25" Velocity="38" />
      <note Length="0.015625" Pitch="39" RiffPosition="5.3125" Velocity="63" />
      <note Length="0.046875" Pitch="39" RiffPosition="5.328125" Velocity="39" />
      <note Length="0.0625" Pitch="27" RiffPosition="5.375" Velocity="50" />
      <note Length="0.015625" Pitch="27" RiffPosition="5.4375" Velocity="62" />
      <note Length="0.046875" Pitch="27" RiffPosition="5.453125" Velocity="36" />
      <note Length="0.0625" Pitch="41" RiffPosition="5.5" Velocity="48" />
      <note Length="0.015625" Pitch="39" RiffPosition="5.5625" Velocity="42" />
      <note Length="0.046875" Pitch="27" RiffPosition="5.578125" Velocity="56" />
      <note Length="0.0625" Pitch="27" RiffPosition="5.625" Velocity="66" />
      <note Length="0.015625" Pitch="27" RiffPosition="5.6875" Velocity="38" />
      <note Length="0.046875" Pitch="39" RiffPosition="5.703125" Velocity="63" />
      <note Length="0.0625" Pitch="42" RiffPosition="5.75" Velocity="63" />
      <note Length="0.015625" Pitch="39" RiffPosition="5.8125" Velocity="36" />
      <note Length="0.046875" Pitch="27" RiffPosition="5.828125" Velocity="59" />
      <note Length="0.0625" Pitch="27" RiffPosition="5.875" Velocity="39" />
      <note Length="0.015625" Pitch="27" RiffPosition="5.9375" Velocity="60" />
      <note Length="0.046875" Pitch="39" RiffPosition="5.953125" Velocity="36" />
      <note Length="0.0625" Pitch="44" RiffPosition="6" Velocity="0" />
      <note Length="0.015625" Pitch="41" RiffPosition="6.0625" Velocity="0" />
      <note Length="0.046875" Pitch="41" RiffPosition="6.078125" Velocity="0" />
      <note Length="0.0625" Pitch="29" RiffPosition="6.125" Velocity="0" />
      <note Length="0.015625" Pitch="29" RiffPosition="6.1875" Velocity="0" />
      <note Length="0.046875" Pitch="29" RiffPosition="6.203125" Velocity="0" />
      <note Length="0.0625" Pitch="44" RiffPosition="6.25" Velocity="0" />
      <note Length="0.015625" Pitch="41" RiffPosition="6.3125" Velocity="0" />
      <note Length="0.046875" Pitch="41" RiffPosition="6.328125" Velocity="0" />
      <note Length="0.0625" Pitch="29" RiffPosition="6.375" Velocity="0" />
      <note Length="0.015625" Pitch="29" RiffPosition="6.4375" Velocity="0" />
      <note Length="0.046875" Pitch="29" RiffPosition="6.453125" Velocity="0" />
      <note Length="0.0625" Pitch="43" RiffPosition="6.5" Velocity="0" />
      <note Length="0.015625" Pitch="41" RiffPosition="6.5625" Velocity="0" />
      <note Length="0.046875" Pitch="29" RiffPosition="6.578125" Velocity="0" />
      <note Length="0.0625" Pitch="29" RiffPosition="6.625" Velocity="0" />
      <note Length="0.015625" Pitch="29" RiffPosition="6.6875" Velocity="0" />
      <note Length="0.046875" Pitch="41" RiffPosition="6.703125" Velocity="0" />
      <note Length="0.0625" Pitch="44" RiffPosition="6.75" Velocity="0" />
      <note Length="0.015625" Pitch="41" RiffPosition="6.8125" Velocity="0" />
      <note Length="0.046875" Pitch="29" RiffPosition="6.828125" Velocity="0" />
      <note Length="0.0625" Pitch="29" RiffPosition="6.875" Velocity="0" />
      <note Length="0.015625" Pitch="29" RiffPosition="6.9375" Velocity="0" />
      <note Length="0.046875" Pitch="41" RiffPosition="6.953125" Velocity="0" />
      <note Length="0.0625" Pitch="42" RiffPosition="7" Velocity="0" />
      <note Length="0.015625" Pitch="39" RiffPosition="7.0625" Velocity="0" />
      <note Length="0.046875" Pitch="39" RiffPosition="7.078125" Velocity="0" />
      <note Length="0.0625" Pitch="27" RiffPosition="7.125" Velocity="0" />
      <note Length="0.015625" Pitch="27" RiffPosition="7.1875" Velocity="0" />
      <note Length="0.046875" Pitch="27" RiffPosition="7.203125" Velocity="0" />
      <note Length="0.0625" Pitch="42" RiffPosition="7.25" Velocity="0" />
      <note Length="0.015625" Pitch="39" RiffPosition="7.3125" Velocity="0" />
      <note Length="0.046875" Pitch="39" RiffPosition="7.328125" Velocity="0" />
      <note Length="0.0625" Pitch="27" RiffPosition="7.375" Velocity="0" />
      <note Length="0.015625" Pitch="27" RiffPosition="7.4375" Velocity="0" />
      <note Length="0.046875" Pitch="27" RiffPosition="7.453125" Velocity="0" />
      <note Length="0.0625" Pitch="41" RiffPosition="7.5" Velocity="0" />
      <note Length="0.015625" Pitch="39" RiffPosition="7.5625" Velocity="0" />
      <note Length="0.046875" Pitch="27" RiffPosition="7.578125" Velocity="0" />
      <note Length="0.0625" Pitch="27" RiffPosition="7.625" Velocity="0" />
      <note Length="0.015625" Pitch="27" RiffPosition="7.6875" Velocity="0" />
      <note Length="0.046875" Pitch="39" RiffPosition="7.703125" Velocity="0" />
      <note Length="0.0625" Pitch="42" RiffPosition="7.75" Velocity="0" />
      <note Length="0.015625" Pitch="39" RiffPosition="7.8125" Velocity="0" />
      <note Length="0.046875" Pitch="27" RiffPosition="7.828125" Velocity="0" />
      <note Length="0.0625" Pitch="27" RiffPosition="7.875" Velocity="0" />
      <note Length="0.015625" Pitch="27" RiffPosition="7.9375" Velocity="0" />
      <note Length="0.046875" Pitch="39" RiffPosition="7.953125" Velocity="0" />
      <note Length="0.0625" Pitch="44" RiffPosition="8" Velocity="43" />
      <note Length="0.015625" Pitch="41" RiffPosition="8.0625" Velocity="59" />
      <note Length="0.046875" Pitch="41" RiffPosition="8.078125" Velocity="47" />
      <note Length="0.0625" Pitch="29" RiffPosition="8.125" Velocity="37" />
      <note Length="0.015625" Pitch="29" RiffPosition="8.1875" Velocity="43" />
      <note Length="0.046875" Pitch="29" RiffPosition="8.203125" Velocity="55" />
      <note Length="0.0625" Pitch="44" RiffPosition="8.25" Velocity="53" />
      <note Length="0.015625" Pitch="41" RiffPosition="8.3125" Velocity="43" />
      <note Length="0.046875" Pitch="41" RiffPosition="8.328125" Velocity="70" />
      <note Length="0.0625" Pitch="29" RiffPosition="8.375" Velocity="74" />
      <note Length="0.015625" Pitch="29" RiffPosition="8.4375" Velocity="36" />
      <note Length="0.046875" Pitch="29" RiffPosition="8.453125" Velocity="59" />
      <note Length="0.0625" Pitch="43" RiffPosition="8.5" Velocity="54" />
      <note Length="0.015625" Pitch="41" RiffPosition="8.5625" Velocity="60" />
      <note Length="0.046875" Pitch="29" RiffPosition="8.578125" Velocity="37" />
      <note Length="0.0625" Pitch="29" RiffPosition="8.625" Velocity="40" />
      <note Length="0.015625" Pitch="29" RiffPosition="8.6875" Velocity="62" />
      <note Length="0.046875" Pitch="41" RiffPosition="8.703125" Velocity="36" />
      <note Length="0.0625" Pitch="44" RiffPosition="8.75" Velocity="44" />
      <note Length="0.015625" Pitch="41" RiffPosition="8.8125" Velocity="52" />
      <note Length="0.046875" Pitch="29" RiffPosition="8.828125" Velocity="46" />
      <note Length="0.0625" Pitch="29" RiffPosition="8.875" Velocity="44" />
      <note Length="0.015625" Pitch="29" RiffPosition="8.9375" Velocity="37" />
      <note Length="0.046875" Pitch="41" RiffPosition="8.953125" Velocity="65" />
      <note Length="0.0625" Pitch="42" RiffPosition="9" Velocity="72" />
      <note Length="0.015625" Pitch="39" RiffPosition="9.0625" Velocity="39" />
      <note Length="0.046875" Pitch="39" RiffPosition="9.078125" Velocity="63" />
      <note Length="0.0625" Pitch="27" RiffPosition="9.125" Velocity="61" />
      <note Length="0.015625" Pitch="27" RiffPosition="9.1875" Velocity="53" />
      <note Length="0.046875" Pitch="27" RiffPosition="9.203125" Velocity="39" />
      <note Length="0.0625" Pitch="42" RiffPosition="9.25" Velocity="36" />
      <note Length="0.015625" Pitch="39" RiffPosition="9.3125" Velocity="61" />
      <note Length="0.046875" Pitch="39" RiffPosition="9.328125" Velocity="37" />
      <note Length="0.0625" Pitch="27" RiffPosition="9.375" Velocity="48" />
      <note Length="0.015625" Pitch="27" RiffPosition="9.4375" Velocity="60" />
      <note Length="0.046875" Pitch="27" RiffPosition="9.453125" Velocity="38" />
      <note Length="0.0625" Pitch="41" RiffPosition="9.5" Velocity="35" />
      <note Length="0.015625" Pitch="39" RiffPosition="9.5625" Velocity="40" />
      <note Length="0.046875" Pitch="27" RiffPosition="9.578125" Velocity="58" />
      <note Length="0.0625" Pitch="27" RiffPosition="9.625" Velocity="68" />
      <note Length="0.015625" Pitch="27" RiffPosition="9.6875" Velocity="40" />
      <note Length="0.046875" Pitch="39" RiffPosition="9.703125" Velocity="65" />
      <note Length="0.0625" Pitch="42" RiffPosition="9.75" Velocity="65" />
      <note Length="0.015625" Pitch="39" RiffPosition="9.8125" Velocity="38" />
      <note Length="0.046875" Pitch="27" RiffPosition="9.828125" Velocity="46" />
      <note Length="0.0625" Pitch="27" RiffPosition="9.875" Velocity="41" />
      <note Length="0.015625" Pitch="27" RiffPosition="9.9375" Velocity="58" />
      <note Length="0.046875" Pitch="39" RiffPosition="9.953125" Velocity="36" />
      <note Length="0.0625" Pitch="44" RiffPosition="10" Velocity="49" />
      <note Length="0.015625" Pitch="41" RiffPosition="10.0625" Velocity="66" />
      <note Length="0.046875" Pitch="41" RiffPosition="10.078125" Velocity="39" />
      <note Length="0.0625" Pitch="29" RiffPosition="10.125" Velocity="41" />
      <note Length="0.015625" Pitch="29" RiffPosition="10.1875" Velocity="50" />
      <note Length="0.046875" Pitch="29" RiffPosition="10.203125" Velocity="49" />
      <note Length="0.0625" Pitch="44" RiffPosition="10.25" Velocity="61" />
      <note Length="0.015625" Pitch="41" RiffPosition="10.3125" Velocity="37" />
      <note Length="0.046875" Pitch="41" RiffPosition="10.328125" Velocity="63" />
      <note Length="0.0625" Pitch="29" RiffPosition="10.375" Velocity="67" />
      <note Length="0.015625" Pitch="29" RiffPosition="10.4375" Velocity="44" />
      <note Length="0.046875" Pitch="29" RiffPosition="10.453125" Velocity="67" />
      <note Length="0.0625" Pitch="43" RiffPosition="10.5" Velocity="48" />
      <note Length="0.015625" Pitch="41" RiffPosition="10.5625" Velocity="52" />
      <note Length="0.046875" Pitch="29" RiffPosition="10.578125" Velocity="41" />
      <note Length="0.0625" Pitch="29" RiffPosition="10.625" Velocity="47" />
      <note Length="0.015625" Pitch="29" RiffPosition="10.6875" Velocity="68" />
      <note Length="0.046875" Pitch="41" RiffPosition="10.703125" Velocity="43" />
      <note Length="0.0625" Pitch="44" RiffPosition="10.75" Velocity="36" />
      <note Length="0.015625" Pitch="41" RiffPosition="10.8125" Velocity="59" />
      <note Length="0.046875" Pitch="29" RiffPosition="10.828125" Velocity="40" />
      <note Length="0.0625" Pitch="29" RiffPosition="10.875" Velocity="53" />
      <note Length="0.015625" Pitch="29" RiffPosition="10.9375" Velocity="39" />
      <note Length="0.046875" Pitch="41" RiffPosition="10.953125" Velocity="59" />
    </riff>
    <riff IsDrum="True" MidiInstrument="0" Tempo="77" Length="11">
      <note Length="0.0625" Pitch="38" RiffPosition="0" Velocity="0" />
      <note Length="0.0625" Pitch="38" RiffPosition="0.0625" Velocity="105" />
      <note Length="0.0625" Pitch="38" RiffPosition="0.125" Velocity="0" />
      <note Length="0.0625" Pitch="38" RiffPosition="0.1875" Velocity="105" />
      <note Length="0.0625" Pitch="38" RiffPosition="0.25" Velocity="0" />
      <note Length="0.0625" Pitch="38" RiffPosition="0.3125" Velocity="105" />
      <note Length="0.0625" Pitch="38" RiffPosition="0.375" Velocity="0" />
      <note Length="0.0625" Pitch="38" RiffPosition="0.4375" Velocity="105" />
      <note Length="0.0625" Pitch="38" RiffPosition="0.5" Velocity="0" />
      <note Length="0.0625" Pitch="38" RiffPosition="0.5625" Velocity="105" />
      <note Length="0.0625" Pitch="38" RiffPosition="0.625" Velocity="0" />
      <note Length="0.0625" Pitch="38" RiffPosition="0.6875" Velocity="105" />
      <note Length="0.0625" Pitch="38" RiffPosition="0.75" Velocity="0" />
      <note Length="0.0625" Pitch="38" RiffPosition="0.8125" Velocity="105" />
      <note Length="0.0625" Pitch="38" RiffPosition="0.875" Velocity="0" />
      <note Length="0.0625" Pitch="38" RiffPosition="0.9375" Velocity="105" />
      <note Length="0.0625" Pitch="38" RiffPosition="1" Velocity="0" />
      <note Length="0.0625" Pitch="38" RiffPosition="1.0625" Velocity="105" />
      <note Length="0.0625" Pitch="38" RiffPosition="1.125" Velocity="0" />
      <note Length="0.0625" Pitch="38" RiffPosition="1.1875" Velocity="105" />
      <note Length="0.0625" Pitch="38" RiffPosition="1.25" Velocity="0" />
      <note Length="0.0625" Pitch="38" RiffPosition="1.3125" Velocity="105" />
      <note Length="0.0625" Pitch="38" RiffPosition="1.375" Velocity="0" />
      <note Length="0.0625" Pitch="38" RiffPosition="1.4375" Velocity="105" />
      <note Length="0.0625" Pitch="38" RiffPosition="1.5" Velocity="0" />
      <note Length="0.0625" Pitch="38" RiffPosition="1.5625" Velocity="105" />
      <note Length="0.0625" Pitch="38" RiffPosition="1.625" Velocity="0" />
      <note Length="0.0625" Pitch="38" RiffPosition="1.6875" Velocity="105" />
      <note Length="0.0625" Pitch="38" RiffPosition="1.75" Velocity="0" />
      <note Length="0.0625" Pitch="38" RiffPosition="1.8125" Velocity="105" />
      <note Length="0.0625" Pitch="38" RiffPosition="1.875" Velocity="0" />
      <note Length="0.0625" Pitch="38" RiffPosition="1.9375" Velocity="105" />
      <note Length="0.0625" Pitch="38" RiffPosition="2" Velocity="0" />
      <note Length="0.0625" Pitch="38" RiffPosition="2.0625" Velocity="105" />
      <note Length="0.0625" Pitch="38" RiffPosition="2.125" Velocity="0" />
      <note Length="0.0625" Pitch="38" RiffPosition="2.1875" Velocity="105" />
      <note Length="0.0625" Pitch="38" RiffPosition="2.25" Velocity="0" />
      <note Length="0.0625" Pitch="38" RiffPosition="2.3125" Velocity="105" />
      <note Length="0.0625" Pitch="38" RiffPosition="2.375" Velocity="0" />
      <note Length="0.0625" Pitch="38" RiffPosition="2.4375" Velocity="105" />
      <note Length="0.0625" Pitch="38" RiffPosition="2.5" Velocity="0" />
      <note Length="0.0625" Pitch="38" RiffPosition="2.5625" Velocity="105" />
      <note Length="0.0625" Pitch="38" RiffPosition="2.625" Velocity="0" />
      <note Length="0.0625" Pitch="38" RiffPosition="2.6875" Velocity="105" />
      <note Length="0.0625" Pitch="38" RiffPosition="2.75" Velocity="0" />
      <note Length="0.0625" Pitch="38" RiffPosition="2.8125" Velocity="105" />
      <note Length="0.0625" Pitch="38" RiffPosition="2.875" Velocity="0" />
      <note Length="0.0625" Pitch="38" RiffPosition="2.9375" Velocity="105" />
      <note Length="0.0625" Pitch="38" RiffPosition="3" Velocity="0" />
      <note Length="0.0625" Pitch="38" RiffPosition="3.0625" Velocity="0" />
      <note Length="0.0625" Pitch="38" RiffPosition="3.125" Velocity="0" />
      <note Length="0.0625" Pitch="38" RiffPosition="3.1875" Velocity="0" />
      <note Length="0.0625" Pitch="38" RiffPosition="3.25" Velocity="0" />
      <note Length="0.0625" Pitch="38" RiffPosition="3.3125" Velocity="0" />
      <note Length="0.0625" Pitch="38" RiffPosition="3.375" Velocity="0" />
      <note Length="0.0625" Pitch="38" RiffPosition="3.4375" Velocity="0" />
      <note Length="0.0625" Pitch="38" RiffPosition="3.5" Velocity="0" />
      <note Length="0.0625" Pitch="38" RiffPosition="3.5625" Velocity="0" />
      <note Length="0.0625" Pitch="38" RiffPosition="3.625" Velocity="0" />
      <note Length="0.0625" Pitch="38" RiffPosition="3.6875" Velocity="0" />
      <note Length="0.0625" Pitch="38" RiffPosition="3.75" Velocity="0" />
      <note Length="0.0625" Pitch="38" RiffPosition="3.8125" Velocity="0" />
      <note Length="0.0625" Pitch="38" RiffPosition="3.875" Velocity="0" />
      <note Length="0.0625" Pitch="38" RiffPosition="3.9375" Velocity="0" />
      <note Length="0.0625" Pitch="38" RiffPosition="4" Velocity="0" />
      <note Length="0.0625" Pitch="38" RiffPosition="4.0625" Velocity="0" />
      <note Length="0.0625" Pitch="38" RiffPosition="4.125" Velocity="0" />
      <note Length="0.0625" Pitch="38" RiffPosition="4.1875" Velocity="0" />
      <note Length="0.0625" Pitch="38" RiffPosition="4.25" Velocity="0" />
      <note Length="0.0625" Pitch="38" RiffPosition="4.3125" Velocity="0" />
      <note Length="0.0625" Pitch="38" RiffPosition="4.375" Velocity="0" />
      <note Length="0.0625" Pitch="38" RiffPosition="4.4375" Velocity="0" />
      <note Length="0.0625" Pitch="38" RiffPosition="4.5" Velocity="0" />
      <note Length="0.0625" Pitch="38" RiffPosition="4.5625" Velocity="0" />
      <note Length="0.0625" Pitch="38" RiffPosition="4.625" Velocity="0" />
      <note Length="0.0625" Pitch="38" RiffPosition="4.6875" Velocity="0" />
      <note Length="0.0625" Pitch="38" RiffPosition="4.75" Velocity="0" />
      <note Length="0.0625" Pitch="38" RiffPosition="4.8125" Velocity="0" />
      <note Length="0.0625" Pitch="38" RiffPosition="4.875" Velocity="0" />
      <note Length="0.0625" Pitch="38" RiffPosition="4.9375" Velocity="0" />
      <note Length="0.0625" Pitch="38" RiffPosition="5" Velocity="0" />
      <note Length="0.0625" Pitch="38" RiffPosition="5.0625" Velocity="0" />
      <note Length="0.0625" Pitch="38" RiffPosition="5.125" Velocity="0" />
      <note Length="0.0625" Pitch="38" RiffPosition="5.1875" Velocity="0" />
      <note Length="0.0625" Pitch="38" RiffPosition="5.25" Velocity="0" />
      <note Length="0.0625" Pitch="38" RiffPosition="5.3125" Velocity="0" />
      <note Length="0.0625" Pitch="38" RiffPosition="5.375" Velocity="0" />
      <note Length="0.0625" Pitch="38" RiffPosition="5.4375" Velocity="0" />
      <note Length="0.0625" Pitch="38" RiffPosition="5.5" Velocity="0" />
      <note Length="0.0625" Pitch="38" RiffPosition="5.5625" Velocity="0" />
      <note Length="0.0625" Pitch="38" RiffPosition="5.625" Velocity="0" />
      <note Length="0.0625" Pitch="38" RiffPosition="5.6875" Velocity="0" />
      <note Length="0.0625" Pitch="38" RiffPosition="5.75" Velocity="0" />
      <note Length="0.0625" Pitch="38" RiffPosition="5.8125" Velocity="0" />
      <note Length="0.0625" Pitch="38" RiffPosition="5.875" Velocity="0" />
      <note Length="0.0625" Pitch="38" RiffPosition="5.9375" Velocity="0" />
      <note Length="0.0625" Pitch="38" RiffPosition="6" Velocity="0" />
      <note Length="0.0625" Pitch="38" RiffPosition="6.0625" Velocity="105" />
      <note Length="0.0625" Pitch="38" RiffPosition="6.125" Velocity="0" />
      <note Length="0.0625" Pitch="38" RiffPosition="6.1875" Velocity="105" />
      <note Length="0.0625" Pitch="38" RiffPosition="6.25" Velocity="0" />
      <note Length="0.0625" Pitch="38" RiffPosition="6.3125" Velocity="105" />
      <note Length="0.0625" Pitch="38" RiffPosition="6.375" Velocity="0" />
      <note Length="0.0625" Pitch="38" RiffPosition="6.4375" Velocity="105" />
      <note Length="0.0625" Pitch="38" RiffPosition="6.5" Velocity="0" />
      <note Length="0.0625" Pitch="38" RiffPosition="6.5625" Velocity="105" />
      <note Length="0.0625" Pitch="38" RiffPosition="6.625" Velocity="0" />
      <note Length="0.0625" Pitch="38" RiffPosition="6.6875" Velocity="105" />
      <note Length="0.0625" Pitch="38" RiffPosition="6.75" Velocity="0" />
      <note Length="0.0625" Pitch="38" RiffPosition="6.8125" Velocity="105" />
      <note Length="0.0625" Pitch="38" RiffPosition="6.875" Velocity="0" />
      <note Length="0.0625" Pitch="38" RiffPosition="6.9375" Velocity="105" />
      <note Length="0.0625" Pitch="38" RiffPosition="7" Velocity="0" />
      <note Length="0.0625" Pitch="38" RiffPosition="7.0625" Velocity="105" />
      <note Length="0.0625" Pitch="38" RiffPosition="7.125" Velocity="0" />
      <note Length="0.0625" Pitch="38" RiffPosition="7.1875" Velocity="105" />
      <note Length="0.0625" Pitch="38" RiffPosition="7.25" Velocity="0" />
      <note Length="0.0625" Pitch="38" RiffPosition="7.3125" Velocity="105" />
      <note Length="0.0625" Pitch="38" RiffPosition="7.375" Velocity="0" />
      <note Length="0.0625" Pitch="38" RiffPosition="7.4375" Velocity="105" />
      <note Length="0.0625" Pitch="38" RiffPosition="7.5" Velocity="0" />
      <note Length="0.0625" Pitch="38" RiffPosition="7.5625" Velocity="105" />
      <note Length="0.0625" Pitch="38" RiffPosition="7.625" Velocity="0" />
      <note Length="0.0625" Pitch="38" RiffPosition="7.6875" Velocity="105" />
      <note Length="0.0625" Pitch="38" RiffPosition="7.75" Velocity="0" />
      <note Length="0.0625" Pitch="38" RiffPosition="7.8125" Velocity="105" />
      <note Length="0.0625" Pitch="38" RiffPosition="7.875" Velocity="0" />
      <note Length="0.0625" Pitch="38" RiffPosition="7.9375" Velocity="105" />
      <note Length="0.0625" Pitch="38" RiffPosition="8" Velocity="0" />
      <note Length="0.0625" Pitch="38" RiffPosition="8.0625" Velocity="105" />
      <note Length="0.0625" Pitch="38" RiffPosition="8.125" Velocity="0" />
      <note Length="0.0625" Pitch="38" RiffPosition="8.1875" Velocity="105" />
      <note Length="0.0625" Pitch="38" RiffPosition="8.25" Velocity="0" />
      <note Length="0.0625" Pitch="38" RiffPosition="8.3125" Velocity="105" />
      <note Length="0.0625" Pitch="38" RiffPosition="8.375" Velocity="0" />
      <note Length="0.0625" Pitch="38" RiffPosition="8.4375" Velocity="105" />
      <note Length="0.0625" Pitch="38" RiffPosition="8.5" Velocity="0" />
      <note Length="0.0625" Pitch="38" RiffPosition="8.5625" Velocity="105" />
      <note Length="0.0625" Pitch="38" RiffPosition="8.625" Velocity="0" />
      <note Length="0.0625" Pitch="38" RiffPosition="8.6875" Velocity="105" />
      <note Length="0.0625" Pitch="38" RiffPosition="8.75" Velocity="0" />
      <note Length="0.0625" Pitch="38" RiffPosition="8.8125" Velocity="105" />
      <note Length="0.0625" Pitch="38" RiffPosition="8.875" Velocity="0" />
      <note Length="0.0625" Pitch="38" RiffPosition="8.9375" Velocity="105" />
      <note Length="0.0625" Pitch="38" RiffPosition="9" Velocity="0" />
      <note Length="0.0625" Pitch="38" RiffPosition="9.0625" Velocity="105" />
      <note Length="0.0625" Pitch="38" RiffPosition="9.125" Velocity="0" />
      <note Length="0.0625" Pitch="38" RiffPosition="9.1875" Velocity="105" />
      <note Length="0.0625" Pitch="38" RiffPosition="9.25" Velocity="0" />
      <note Length="0.0625" Pitch="38" RiffPosition="9.3125" Velocity="105" />
      <note Length="0.0625" Pitch="38" RiffPosition="9.375" Velocity="0" />
      <note Length="0.0625" Pitch="38" RiffPosition="9.4375" Velocity="105" />
      <note Length="0.0625" Pitch="38" RiffPosition="9.5" Velocity="0" />
      <note Length="0.0625" Pitch="38" RiffPosition="9.5625" Velocity="105" />
      <note Length="0.0625" Pitch="38" RiffPosition="9.625" Velocity="0" />
      <note Length="0.0625" Pitch="38" RiffPosition="9.6875" Velocity="105" />
      <note Length="0.0625" Pitch="38" RiffPosition="9.75" Velocity="0" />
      <note Length="0.0625" Pitch="38" RiffPosition="9.8125" Velocity="105" />
      <note Length="0.0625" Pitch="38" RiffPosition="9.875" Velocity="0" />
      <note Length="0.0625" Pitch="38" RiffPosition="9.9375" Velocity="105" />
      <note Length="0.0625" Pitch="38" RiffPosition="10" Velocity="0" />
      <note Length="0.0625" Pitch="38" RiffPosition="10.0625" Velocity="0" />
      <note Length="0.0625" Pitch="38" RiffPosition="10.125" Velocity="0" />
      <note Length="0.0625" Pitch="38" RiffPosition="10.1875" Velocity="0" />
      <note Length="0.0625" Pitch="38" RiffPosition="10.25" Velocity="0" />
      <note Length="0.0625" Pitch="38" RiffPosition="10.3125" Velocity="0" />
      <note Length="0.0625" Pitch="38" RiffPosition="10.375" Velocity="0" />
      <note Length="0.0625" Pitch="38" RiffPosition="10.4375" Velocity="0" />
      <note Length="0.0625" Pitch="38" RiffPosition="10.5" Velocity="0" />
      <note Length="0.0625" Pitch="38" RiffPosition="10.5625" Velocity="0" />
      <note Length="0.0625" Pitch="38" RiffPosition="10.625" Velocity="0" />
      <note Length="0.0625" Pitch="38" RiffPosition="10.6875" Velocity="0" />
      <note Length="0.0625" Pitch="38" RiffPosition="10.75" Velocity="0" />
      <note Length="0.0625" Pitch="38" RiffPosition="10.8125" Velocity="0" />
      <note Length="0.0625" Pitch="38" RiffPosition="10.875" Velocity="0" />
      <note Length="0.0625" Pitch="38" RiffPosition="10.9375" Velocity="0" />
    </riff>
    <riff IsDrum="True" MidiInstrument="0" Tempo="81" Length="11">
      <note Length="0.015625" Pitch="35" RiffPosition="0" Velocity="127" />
      <note Length="0.015625" Pitch="35" RiffPosition="0.015625" Velocity="127" />
      <note Length="0.03125" Pitch="35" RiffPosition="0.03125" Velocity="127" />
      <note Length="0.09375" Pitch="35" RiffPosition="0.0625" Velocity="127" />
      <note Length="0.09375" Pitch="35" RiffPosition="0.15625" Velocity="127" />
      <note Length="0.015625" Pitch="35" RiffPosition="0.25" Velocity="127" />
      <note Length="0.015625" Pitch="35" RiffPosition="0.265625" Velocity="127" />
      <note Length="0.03125" Pitch="35" RiffPosition="0.28125" Velocity="127" />
      <note Length="0.09375" Pitch="35" RiffPosition="0.3125" Velocity="127" />
      <note Length="0.09375" Pitch="35" RiffPosition="0.40625" Velocity="127" />
      <note Length="0.015625" Pitch="35" RiffPosition="0.5" Velocity="127" />
      <note Length="0.015625" Pitch="35" RiffPosition="0.515625" Velocity="127" />
      <note Length="0.03125" Pitch="35" RiffPosition="0.53125" Velocity="127" />
      <note Length="0.09375" Pitch="35" RiffPosition="0.5625" Velocity="127" />
      <note Length="0.09375" Pitch="35" RiffPosition="0.65625" Velocity="127" />
      <note Length="0.015625" Pitch="35" RiffPosition="0.75" Velocity="127" />
      <note Length="0.015625" Pitch="35" RiffPosition="0.765625" Velocity="127" />
      <note Length="0.03125" Pitch="35" RiffPosition="0.78125" Velocity="127" />
      <note Length="0.09375" Pitch="35" RiffPosition="0.8125" Velocity="127" />
      <note Length="0.09375" Pitch="35" RiffPosition="0.90625" Velocity="127" />
      <note Length="0.015625" Pitch="35" RiffPosition="1" Velocity="127" />
      <note Length="0.015625" Pitch="35" RiffPosition="1.015625" Velocity="127" />
      <note Length="0.03125" Pitch="35" RiffPosition="1.03125" Velocity="127" />
      <note Length="0.09375" Pitch="35" RiffPosition="1.0625" Velocity="127" />
      <note Length="0.09375" Pitch="35" RiffPosition="1.15625" Velocity="127" />
      <note Length="0.015625" Pitch="35" RiffPosition="1.25" Velocity="127" />
      <note Length="0.015625" Pitch="35" RiffPosition="1.265625" Velocity="127" />
      <note Length="0.03125" Pitch="35" RiffPosition="1.28125" Velocity="127" />
      <note Length="0.09375" Pitch="35" RiffPosition="1.3125" Velocity="127" />
      <note Length="0.09375" Pitch="35" RiffPosition="1.40625" Velocity="127" />
      <note Length="0.015625" Pitch="35" RiffPosition="1.5" Velocity="127" />
      <note Length="0.015625" Pitch="35" RiffPosition="1.515625" Velocity="127" />
      <note Length="0.03125" Pitch="35" RiffPosition="1.53125" Velocity="127" />
      <note Length="0.09375" Pitch="35" RiffPosition="1.5625" Velocity="127" />
      <note Length="0.09375" Pitch="35" RiffPosition="1.65625" Velocity="127" />
      <note Length="0.015625" Pitch="35" RiffPosition="1.75" Velocity="127" />
      <note Length="0.015625" Pitch="35" RiffPosition="1.765625" Velocity="127" />
      <note Length="0.03125" Pitch="35" RiffPosition="1.78125" Velocity="127" />
      <note Length="0.09375" Pitch="35" RiffPosition="1.8125" Velocity="127" />
      <note Length="0.09375" Pitch="35" RiffPosition="1.90625" Velocity="127" />
      <note Length="0.015625" Pitch="35" RiffPosition="2" Velocity="127" />
      <note Length="0.015625" Pitch="35" RiffPosition="2.015625" Velocity="127" />
      <note Length="0.03125" Pitch="35" RiffPosition="2.03125" Velocity="127" />
      <note Length="0.09375" Pitch="35" RiffPosition="2.0625" Velocity="127" />
      <note Length="0.09375" Pitch="35" RiffPosition="2.15625" Velocity="127" />
      <note Length="0.015625" Pitch="35" RiffPosition="2.25" Velocity="127" />
      <note Length="0.015625" Pitch="35" RiffPosition="2.265625" Velocity="127" />
      <note Length="0.03125" Pitch="35" RiffPosition="2.28125" Velocity="127" />
      <note Length="0.09375" Pitch="35" RiffPosition="2.3125" Velocity="127" />
      <note Length="0.09375" Pitch="35" RiffPosition="2.40625" Velocity="127" />
      <note Length="0.015625" Pitch="35" RiffPosition="2.5" Velocity="127" />
      <note Length="0.015625" Pitch="35" RiffPosition="2.515625" Velocity="127" />
      <note Length="0.03125" Pitch="35" RiffPosition="2.53125" Velocity="127" />
      <note Length="0.09375" Pitch="35" RiffPosition="2.5625" Velocity="127" />
      <note Length="0.09375" Pitch="35" RiffPosition="2.65625" Velocity="127" />
      <note Length="0.015625" Pitch="35" RiffPosition="2.75" Velocity="127" />
      <note Length="0.015625" Pitch="35" RiffPosition="2.765625" Velocity="127" />
      <note Length="0.03125" Pitch="35" RiffPosition="2.78125" Velocity="127" />
      <note Length="0.09375" Pitch="35" RiffPosition="2.8125" Velocity="127" />
      <note Length="0.09375" Pitch="35" RiffPosition="2.90625" Velocity="127" />
      <note Length="0.015625" Pitch="35" RiffPosition="3" Velocity="127" />
      <note Length="0.015625" Pitch="35" RiffPosition="3.015625" Velocity="127" />
      <note Length="0.03125" Pitch="35" RiffPosition="3.03125" Velocity="127" />
      <note Length="0.09375" Pitch="35" RiffPosition="3.0625" Velocity="127" />
      <note Length="0.09375" Pitch="35" RiffPosition="3.15625" Velocity="127" />
      <note Length="0.015625" Pitch="35" RiffPosition="3.25" Velocity="127" />
      <note Length="0.015625" Pitch="35" RiffPosition="3.265625" Velocity="127" />
      <note Length="0.03125" Pitch="35" RiffPosition="3.28125" Velocity="127" />
      <note Length="0.09375" Pitch="35" RiffPosition="3.3125" Velocity="127" />
      <note Length="0.09375" Pitch="35" RiffPosition="3.40625" Velocity="127" />
      <note Length="0.015625" Pitch="35" RiffPosition="3.5" Velocity="127" />
      <note Length="0.015625" Pitch="35" RiffPosition="3.515625" Velocity="127" />
      <note Length="0.03125" Pitch="35" RiffPosition="3.53125" Velocity="127" />
      <note Length="0.09375" Pitch="35" RiffPosition="3.5625" Velocity="127" />
      <note Length="0.09375" Pitch="35" RiffPosition="3.65625" Velocity="127" />
      <note Length="0.015625" Pitch="35" RiffPosition="3.75" Velocity="127" />
      <note Length="0.015625" Pitch="35" RiffPosition="3.765625" Velocity="127" />
      <note Length="0.03125" Pitch="35" RiffPosition="3.78125" Velocity="127" />
      <note Length="0.09375" Pitch="35" RiffPosition="3.8125" Velocity="127" />
      <note Length="0.09375" Pitch="35" RiffPosition="3.90625" Velocity="127" />
      <note Length="0.015625" Pitch="35" RiffPosition="4" Velocity="127" />
      <note Length="0.015625" Pitch="35" RiffPosition="4.015625" Velocity="127" />
      <note Length="0.03125" Pitch="35" RiffPosition="4.03125" Velocity="127" />
      <note Length="0.09375" Pitch="35" RiffPosition="4.0625" Velocity="127" />
      <note Length="0.09375" Pitch="35" RiffPosition="4.15625" Velocity="127" />
      <note Length="0.015625" Pitch="35" RiffPosition="4.25" Velocity="127" />
      <note Length="0.015625" Pitch="35" RiffPosition="4.265625" Velocity="127" />
      <note Length="0.03125" Pitch="35" RiffPosition="4.28125" Velocity="127" />
      <note Length="0.09375" Pitch="35" RiffPosition="4.3125" Velocity="127" />
      <note Length="0.09375" Pitch="35" RiffPosition="4.40625" Velocity="127" />
      <note Length="0.015625" Pitch="35" RiffPosition="4.5" Velocity="127" />
      <note Length="0.015625" Pitch="35" RiffPosition="4.515625" Velocity="127" />
      <note Length="0.03125" Pitch="35" RiffPosition="4.53125" Velocity="127" />
      <note Length="0.09375" Pitch="35" RiffPosition="4.5625" Velocity="127" />
      <note Length="0.09375" Pitch="35" RiffPosition="4.65625" Velocity="127" />
      <note Length="0.015625" Pitch="35" RiffPosition="4.75" Velocity="127" />
      <note Length="0.015625" Pitch="35" RiffPosition="4.765625" Velocity="127" />
      <note Length="0.03125" Pitch="35" RiffPosition="4.78125" Velocity="127" />
      <note Length="0.09375" Pitch="35" RiffPosition="4.8125" Velocity="127" />
      <note Length="0.09375" Pitch="35" RiffPosition="4.90625" Velocity="127" />
      <note Length="0.015625" Pitch="35" RiffPosition="5" Velocity="127" />
      <note Length="0.015625" Pitch="35" RiffPosition="5.015625" Velocity="127" />
      <note Length="0.03125" Pitch="35" RiffPosition="5.03125" Velocity="127" />
      <note Length="0.09375" Pitch="35" RiffPosition="5.0625" Velocity="127" />
      <note Length="0.09375" Pitch="35" RiffPosition="5.15625" Velocity="127" />
      <note Length="0.015625" Pitch="35" RiffPosition="5.25" Velocity="127" />
      <note Length="0.015625" Pitch="35" RiffPosition="5.265625" Velocity="127" />
      <note Length="0.03125" Pitch="35" RiffPosition="5.28125" Velocity="127" />
      <note Length="0.09375" Pitch="35" RiffPosition="5.3125" Velocity="127" />
      <note Length="0.09375" Pitch="35" RiffPosition="5.40625" Velocity="127" />
      <note Length="0.015625" Pitch="35" RiffPosition="5.5" Velocity="127" />
      <note Length="0.015625" Pitch="35" RiffPosition="5.515625" Velocity="127" />
      <note Length="0.03125" Pitch="35" RiffPosition="5.53125" Velocity="127" />
      <note Length="0.09375" Pitch="35" RiffPosition="5.5625" Velocity="127" />
      <note Length="0.09375" Pitch="35" RiffPosition="5.65625" Velocity="127" />
      <note Length="0.015625" Pitch="35" RiffPosition="5.75" Velocity="127" />
      <note Length="0.015625" Pitch="35" RiffPosition="5.765625" Velocity="127" />
      <note Length="0.03125" Pitch="35" RiffPosition="5.78125" Velocity="127" />
      <note Length="0.09375" Pitch="35" RiffPosition="5.8125" Velocity="127" />
      <note Length="0.09375" Pitch="35" RiffPosition="5.90625" Velocity="127" />
      <note Length="0.015625" Pitch="35" RiffPosition="6" Velocity="127" />
      <note Length="0.015625" Pitch="35" RiffPosition="6.015625" Velocity="127" />
      <note Length="0.03125" Pitch="35" RiffPosition="6.03125" Velocity="127" />
      <note Length="0.09375" Pitch="35" RiffPosition="6.0625" Velocity="127" />
      <note Length="0.09375" Pitch="35" RiffPosition="6.15625" Velocity="127" />
      <note Length="0.015625" Pitch="35" RiffPosition="6.25" Velocity="127" />
      <note Length="0.015625" Pitch="35" RiffPosition="6.265625" Velocity="127" />
      <note Length="0.03125" Pitch="35" RiffPosition="6.28125" Velocity="127" />
      <note Length="0.09375" Pitch="35" RiffPosition="6.3125" Velocity="127" />
      <note Length="0.09375" Pitch="35" RiffPosition="6.40625" Velocity="127" />
      <note Length="0.015625" Pitch="35" RiffPosition="6.5" Velocity="127" />
      <note Length="0.015625" Pitch="35" RiffPosition="6.515625" Velocity="127" />
      <note Length="0.03125" Pitch="35" RiffPosition="6.53125" Velocity="127" />
      <note Length="0.09375" Pitch="35" RiffPosition="6.5625" Velocity="127" />
      <note Length="0.09375" Pitch="35" RiffPosition="6.65625" Velocity="127" />
      <note Length="0.015625" Pitch="35" RiffPosition="6.75" Velocity="127" />
      <note Length="0.015625" Pitch="35" RiffPosition="6.765625" Velocity="127" />
      <note Length="0.03125" Pitch="35" RiffPosition="6.78125" Velocity="127" />
      <note Length="0.09375" Pitch="35" RiffPosition="6.8125" Velocity="127" />
      <note Length="0.09375" Pitch="35" RiffPosition="6.90625" Velocity="127" />
      <note Length="0.015625" Pitch="35" RiffPosition="7" Velocity="127" />
      <note Length="0.015625" Pitch="35" RiffPosition="7.015625" Velocity="127" />
      <note Length="0.03125" Pitch="35" RiffPosition="7.03125" Velocity="127" />
      <note Length="0.09375" Pitch="35" RiffPosition="7.0625" Velocity="127" />
      <note Length="0.09375" Pitch="35" RiffPosition="7.15625" Velocity="127" />
      <note Length="0.015625" Pitch="35" RiffPosition="7.25" Velocity="127" />
      <note Length="0.015625" Pitch="35" RiffPosition="7.265625" Velocity="127" />
      <note Length="0.03125" Pitch="35" RiffPosition="7.28125" Velocity="127" />
      <note Length="0.09375" Pitch="35" RiffPosition="7.3125" Velocity="127" />
      <note Length="0.09375" Pitch="35" RiffPosition="7.40625" Velocity="127" />
      <note Length="0.015625" Pitch="35" RiffPosition="7.5" Velocity="127" />
      <note Length="0.015625" Pitch="35" RiffPosition="7.515625" Velocity="127" />
      <note Length="0.03125" Pitch="35" RiffPosition="7.53125" Velocity="127" />
      <note Length="0.09375" Pitch="35" RiffPosition="7.5625" Velocity="127" />
      <note Length="0.09375" Pitch="35" RiffPosition="7.65625" Velocity="127" />
      <note Length="0.015625" Pitch="35" RiffPosition="7.75" Velocity="127" />
      <note Length="0.015625" Pitch="35" RiffPosition="7.765625" Velocity="127" />
      <note Length="0.03125" Pitch="35" RiffPosition="7.78125" Velocity="127" />
      <note Length="0.09375" Pitch="35" RiffPosition="7.8125" Velocity="127" />
      <note Length="0.09375" Pitch="35" RiffPosition="7.90625" Velocity="127" />
      <note Length="0.015625" Pitch="35" RiffPosition="8" Velocity="127" />
      <note Length="0.015625" Pitch="35" RiffPosition="8.015625" Velocity="127" />
      <note Length="0.03125" Pitch="35" RiffPosition="8.03125" Velocity="127" />
      <note Length="0.09375" Pitch="35" RiffPosition="8.0625" Velocity="127" />
      <note Length="0.09375" Pitch="35" RiffPosition="8.15625" Velocity="127" />
      <note Length="0.015625" Pitch="35" RiffPosition="8.25" Velocity="127" />
      <note Length="0.015625" Pitch="35" RiffPosition="8.265625" Velocity="127" />
      <note Length="0.03125" Pitch="35" RiffPosition="8.28125" Velocity="127" />
      <note Length="0.09375" Pitch="35" RiffPosition="8.3125" Velocity="127" />
      <note Length="0.09375" Pitch="35" RiffPosition="8.40625" Velocity="127" />
      <note Length="0.015625" Pitch="35" RiffPosition="8.5" Velocity="127" />
      <note Length="0.015625" Pitch="35" RiffPosition="8.515625" Velocity="127" />
      <note Length="0.03125" Pitch="35" RiffPosition="8.53125" Velocity="127" />
      <note Length="0.09375" Pitch="35" RiffPosition="8.5625" Velocity="127" />
      <note Length="0.09375" Pitch="35" RiffPosition="8.65625" Velocity="127" />
      <note Length="0.015625" Pitch="35" RiffPosition="8.75" Velocity="127" />
      <note Length="0.015625" Pitch="35" RiffPosition="8.765625" Velocity="127" />
      <note Length="0.03125" Pitch="35" RiffPosition="8.78125" Velocity="127" />
      <note Length="0.09375" Pitch="35" RiffPosition="8.8125" Velocity="127" />
      <note Length="0.09375" Pitch="35" RiffPosition="8.90625" Velocity="127" />
      <note Length="0.015625" Pitch="35" RiffPosition="9" Velocity="0" />
      <note Length="0.015625" Pitch="35" RiffPosition="9.015625" Velocity="0" />
      <note Length="0.03125" Pitch="35" RiffPosition="9.03125" Velocity="0" />
      <note Length="0.09375" Pitch="35" RiffPosition="9.0625" Velocity="0" />
      <note Length="0.09375" Pitch="35" RiffPosition="9.15625" Velocity="0" />
      <note Length="0.015625" Pitch="35" RiffPosition="9.25" Velocity="0" />
      <note Length="0.015625" Pitch="35" RiffPosition="9.265625" Velocity="0" />
      <note Length="0.03125" Pitch="35" RiffPosition="9.28125" Velocity="0" />
      <note Length="0.09375" Pitch="35" RiffPosition="9.3125" Velocity="0" />
      <note Length="0.09375" Pitch="35" RiffPosition="9.40625" Velocity="0" />
      <note Length="0.015625" Pitch="35" RiffPosition="9.5" Velocity="0" />
      <note Length="0.015625" Pitch="35" RiffPosition="9.515625" Velocity="0" />
      <note Length="0.03125" Pitch="35" RiffPosition="9.53125" Velocity="0" />
      <note Length="0.09375" Pitch="35" RiffPosition="9.5625" Velocity="0" />
      <note Length="0.09375" Pitch="35" RiffPosition="9.65625" Velocity="0" />
      <note Length="0.015625" Pitch="35" RiffPosition="9.75" Velocity="0" />
      <note Length="0.015625" Pitch="35" RiffPosition="9.765625" Velocity="0" />
      <note Length="0.03125" Pitch="35" RiffPosition="9.78125" Velocity="0" />
      <note Length="0.09375" Pitch="35" RiffPosition="9.8125" Velocity="0" />
      <note Length="0.09375" Pitch="35" RiffPosition="9.90625" Velocity="0" />
      <note Length="0.015625" Pitch="35" RiffPosition="10" Velocity="0" />
      <note Length="0.015625" Pitch="35" RiffPosition="10.015625" Velocity="0" />
      <note Length="0.03125" Pitch="35" RiffPosition="10.03125" Velocity="0" />
      <note Length="0.09375" Pitch="35" RiffPosition="10.0625" Velocity="0" />
      <note Length="0.09375" Pitch="35" RiffPosition="10.15625" Velocity="0" />
      <note Length="0.015625" Pitch="35" RiffPosition="10.25" Velocity="0" />
      <note Length="0.015625" Pitch="35" RiffPosition="10.265625" Velocity="0" />
      <note Length="0.03125" Pitch="35" RiffPosition="10.28125" Velocity="0" />
      <note Length="0.09375" Pitch="35" RiffPosition="10.3125" Velocity="0" />
      <note Length="0.09375" Pitch="35" RiffPosition="10.40625" Velocity="0" />
      <note Length="0.015625" Pitch="35" RiffPosition="10.5" Velocity="0" />
      <note Length="0.015625" Pitch="35" RiffPosition="10.515625" Velocity="0" />
      <note Length="0.03125" Pitch="35" RiffPosition="10.53125" Velocity="0" />
      <note Length="0.09375" Pitch="35" RiffPosition="10.5625" Velocity="0" />
      <note Length="0.09375" Pitch="35" RiffPosition="10.65625" Velocity="0" />
      <note Length="0.015625" Pitch="35" RiffPosition="10.75" Velocity="0" />
      <note Length="0.015625" Pitch="35" RiffPosition="10.765625" Velocity="0" />
      <note Length="0.03125" Pitch="35" RiffPosition="10.78125" Velocity="0" />
      <note Length="0.09375" Pitch="35" RiffPosition="10.8125" Velocity="0" />
      <note Length="0.09375" Pitch="35" RiffPosition="10.90625" Velocity="0" />
    </riff>
    <riff IsDrum="True" MidiInstrument="0" Tempo="109" Length="11">
      <note Length="0.0234375" Pitch="53" RiffPosition="0" Velocity="71" />
      <note Length="0.0078125" Pitch="35" RiffPosition="0.0234375" Velocity="0" />
      <note Length="0.015625" Pitch="33" RiffPosition="0.03125" Velocity="55" />
      <note Length="0.015625" Pitch="47" RiffPosition="0.046875" Velocity="106" />
      <note Length="0.015625" Pitch="44" RiffPosition="0.0625" Velocity="102" />
      <note Length="0.046875" Pitch="48" RiffPosition="0.078125" Velocity="41" />
      <note Length="0.0625" Pitch="43" RiffPosition="0.125" Velocity="107" />
      <note Length="0.0625" Pitch="34" RiffPosition="0.1875" Velocity="91" />
      <note Length="0.0625" Pitch="45" RiffPosition="0.25" Velocity="95" />
      <note Length="0.015625" Pitch="54" RiffPosition="0.3125" Velocity="101" />
      <note Length="0.015625" Pitch="51" RiffPosition="0.328125" Velocity="40" />
      <note Length="0.015625" Pitch="35" RiffPosition="0.34375" Velocity="0" />
      <note Length="0.015625" Pitch="39" RiffPosition="0.359375" Velocity="0" />
      <note Length="0.015625" Pitch="45" RiffPosition="0.375" Velocity="111" />
      <note Length="0.046875" Pitch="49" RiffPosition="0.390625" Velocity="33" />
      <note Length="0.0078125" Pitch="44" RiffPosition="0.4375" Velocity="76" />
      <note Length="0.0234375" Pitch="43" RiffPosition="0.4453125" Velocity="73" />
      <note Length="0.015625" Pitch="47" RiffPosition="0.46875" Velocity="61" />
      <note Length="0.015625" Pitch="51" RiffPosition="0.484375" Velocity="112" />
      <note Length="0.0625" Pitch="35" RiffPosition="0.5" Velocity="0" />
      <note Length="0.03125" Pitch="47" RiffPosition="0.5625" Velocity="117" />
      <note Length="0.03125" Pitch="44" RiffPosition="0.59375" Velocity="71" />
      <note Length="0.03125" Pitch="39" RiffPosition="0.625" Velocity="0" />
      <note Length="0.03125" Pitch="36" RiffPosition="0.65625" Velocity="0" />
      <note Length="0.015625" Pitch="46" RiffPosition="0.6875" Velocity="101" />
      <note Length="0.015625" Pitch="44" RiffPosition="0.703125" Velocity="40" />
      <note Length="0.03125" Pitch="47" RiffPosition="0.71875" Velocity="45" />
      <note Length="0.0625" Pitch="44" RiffPosition="0.75" Velocity="124" />
      <note Length="0.03125" Pitch="49" RiffPosition="0.8125" Velocity="36" />
      <note Length="0.03125" Pitch="46" RiffPosition="0.84375" Velocity="62" />
      <note Length="0.03125" Pitch="48" RiffPosition="0.875" Velocity="108" />
      <note Length="0.03125" Pitch="38" RiffPosition="0.90625" Velocity="0" />
      <note Length="0.03125" Pitch="40" RiffPosition="0.9375" Velocity="0" />
      <note Length="0.03125" Pitch="50" RiffPosition="0.96875" Velocity="61" />
      <note Length="0.0234375" Pitch="47" RiffPosition="1" Velocity="71" />
      <note Length="0.0078125" Pitch="43" RiffPosition="1.0234375" Velocity="58" />
      <note Length="0.015625" Pitch="48" RiffPosition="1.03125" Velocity="55" />
      <note Length="0.015625" Pitch="45" RiffPosition="1.046875" Velocity="106" />
      <note Length="0.015625" Pitch="39" RiffPosition="1.0625" Velocity="0" />
      <note Length="0.046875" Pitch="43" RiffPosition="1.078125" Velocity="41" />
      <note Length="0.0625" Pitch="50" RiffPosition="1.125" Velocity="107" />
      <note Length="0.0625" Pitch="49" RiffPosition="1.1875" Velocity="50" />
      <note Length="0.0625" Pitch="41" RiffPosition="1.25" Velocity="95" />
      <note Length="0.015625" Pitch="39" RiffPosition="1.3125" Velocity="0" />
      <note Length="0.015625" Pitch="45" RiffPosition="1.328125" Velocity="40" />
      <note Length="0.015625" Pitch="43" RiffPosition="1.34375" Velocity="45" />
      <note Length="0.015625" Pitch="46" RiffPosition="1.359375" Velocity="106" />
      <note Length="0.015625" Pitch="40" RiffPosition="1.375" Velocity="0" />
      <note Length="0.046875" Pitch="44" RiffPosition="1.390625" Velocity="60" />
      <note Length="0.0078125" Pitch="52" RiffPosition="1.4375" Velocity="42" />
      <note Length="0.0234375" Pitch="50" RiffPosition="1.4453125" Velocity="73" />
      <note Length="0.015625" Pitch="40" RiffPosition="1.46875" Velocity="0" />
      <note Length="0.015625" Pitch="46" RiffPosition="1.484375" Velocity="112" />
      <note Length="0.0625" Pitch="44" RiffPosition="1.5" Velocity="94" />
      <note Length="0.03125" Pitch="42" RiffPosition="1.5625" Velocity="117" />
      <note Length="0.03125" Pitch="52" RiffPosition="1.59375" Velocity="39" />
      <note Length="0.03125" Pitch="40" RiffPosition="1.625" Velocity="0" />
      <note Length="0.03125" Pitch="44" RiffPosition="1.65625" Velocity="68" />
      <note Length="0.015625" Pitch="45" RiffPosition="1.6875" Velocity="101" />
      <note Length="0.015625" Pitch="45" RiffPosition="1.703125" Velocity="40" />
      <note Length="0.03125" Pitch="43" RiffPosition="1.71875" Velocity="45" />
      <note Length="0.0625" Pitch="53" RiffPosition="1.75" Velocity="124" />
      <note Length="0.03125" Pitch="44" RiffPosition="1.8125" Velocity="65" />
      <note Length="0.03125" Pitch="45" RiffPosition="1.84375" Velocity="62" />
      <note Length="0.03125" Pitch="43" RiffPosition="1.875" Velocity="108" />
      <note Length="0.03125" Pitch="53" RiffPosition="1.90625" Velocity="42" />
      <note Length="0.03125" Pitch="34" RiffPosition="1.9375" Velocity="117" />
      <note Length="0.03125" Pitch="44" RiffPosition="1.96875" Velocity="61" />
      <note Length="0.0234375" Pitch="46" RiffPosition="2" Velocity="71" />
      <note Length="0.0078125" Pitch="44" RiffPosition="2.0234375" Velocity="58" />
      <note Length="0.015625" Pitch="44" RiffPosition="2.03125" Velocity="55" />
      <note Length="0.015625" Pitch="41" RiffPosition="2.046875" Velocity="106" />
      <note Length="0.015625" Pitch="54" RiffPosition="2.0625" Velocity="102" />
      <note Length="0.046875" Pitch="51" RiffPosition="2.078125" Velocity="41" />
      <note Length="0.0625" Pitch="45" RiffPosition="2.125" Velocity="107" />
      <note Length="0.0625" Pitch="44" RiffPosition="2.1875" Velocity="91" />
      <note Length="0.0625" Pitch="35" RiffPosition="2.25" Velocity="0" />
      <note Length="0.015625" Pitch="47" RiffPosition="2.3125" Velocity="101" />
      <note Length="0.015625" Pitch="40" RiffPosition="2.328125" Velocity="0" />
      <note Length="0.015625" Pitch="44" RiffPosition="2.34375" Velocity="45" />
      <note Length="0.015625" Pitch="42" RiffPosition="2.359375" Velocity="106" />
      <note Length="0.015625" Pitch="39" RiffPosition="2.375" Velocity="0" />
      <note Length="0.046875" Pitch="52" RiffPosition="2.390625" Velocity="33" />
      <note Length="0.0078125" Pitch="46" RiffPosition="2.4375" Velocity="76" />
      <note Length="0.0234375" Pitch="44" RiffPosition="2.4453125" Velocity="73" />
      <note Length="0.015625" Pitch="47" RiffPosition="2.46875" Velocity="61" />
      <note Length="0.015625" Pitch="44" RiffPosition="2.484375" Velocity="112" />
      <note Length="0.0625" Pitch="44" RiffPosition="2.5" Velocity="94" />
      <note Length="0.03125" Pitch="49" RiffPosition="2.5625" Velocity="64" />
      <note Length="0.03125" Pitch="46" RiffPosition="2.59375" Velocity="71" />
      <note Length="0.03125" Pitch="48" RiffPosition="2.625" Velocity="59" />
      <note Length="0.03125" Pitch="39" RiffPosition="2.65625" Velocity="0" />
      <note Length="0.015625" Pitch="40" RiffPosition="2.6875" Velocity="0" />
      <note Length="0.015625" Pitch="53" RiffPosition="2.703125" Velocity="40" />
      <note Length="0.03125" Pitch="50" RiffPosition="2.71875" Velocity="45" />
      <note Length="0.0625" Pitch="47" RiffPosition="2.75" Velocity="124" />
      <note Length="0.03125" Pitch="39" RiffPosition="2.8125" Velocity="0" />
      <note Length="0.03125" Pitch="40" RiffPosition="2.84375" Velocity="0" />
      <note Length="0.03125" Pitch="51" RiffPosition="2.875" Velocity="108" />
      <note Length="0.03125" Pitch="39" RiffPosition="2.90625" Velocity="0" />
      <note Length="0.03125" Pitch="49" RiffPosition="2.9375" Velocity="64" />
      <note Length="0.03125" Pitch="40" RiffPosition="2.96875" Velocity="0" />
      <note Length="0.0234375" Pitch="41" RiffPosition="3" Velocity="71" />
      <note Length="0.0078125" Pitch="53" RiffPosition="3.0234375" Velocity="58" />
      <note Length="0.015625" Pitch="51" RiffPosition="3.03125" Velocity="55" />
      <note Length="0.015625" Pitch="35" RiffPosition="3.046875" Velocity="0" />
      <note Length="0.015625" Pitch="39" RiffPosition="3.0625" Velocity="0" />
      <note Length="0.046875" Pitch="45" RiffPosition="3.078125" Velocity="41" />
      <note Length="0.0625" Pitch="40" RiffPosition="3.125" Velocity="0" />
      <note Length="0.0625" Pitch="52" RiffPosition="3.1875" Velocity="50" />
      <note Length="0.0625" Pitch="44" RiffPosition="3.25" Velocity="95" />
      <note Length="0.015625" Pitch="42" RiffPosition="3.3125" Velocity="101" />
      <note Length="0.015625" Pitch="39" RiffPosition="3.328125" Velocity="0" />
      <note Length="0.015625" Pitch="52" RiffPosition="3.34375" Velocity="25" />
      <note Length="0.015625" Pitch="49" RiffPosition="3.359375" Velocity="58" />
      <note Length="0.015625" Pitch="40" RiffPosition="3.375" Velocity="0" />
      <note Length="0.046875" Pitch="46" RiffPosition="3.390625" Velocity="60" />
      <note Length="0.0078125" Pitch="45" RiffPosition="3.4375" Velocity="76" />
      <note Length="0.0234375" Pitch="40" RiffPosition="3.4453125" Velocity="0" />
      <note Length="0.015625" Pitch="43" RiffPosition="3.46875" Velocity="61" />
      <note Length="0.015625" Pitch="40" RiffPosition="3.484375" Velocity="0" />
      <note Length="0.0625" Pitch="53" RiffPosition="3.5" Velocity="94" />
      <note Length="0.03125" Pitch="44" RiffPosition="3.5625" Velocity="117" />
      <note Length="0.03125" Pitch="45" RiffPosition="3.59375" Velocity="71" />
      <note Length="0.03125" Pitch="43" RiffPosition="3.625" Velocity="59" />
      <note Length="0.03125" Pitch="53" RiffPosition="3.65625" Velocity="68" />
      <note Length="0.015625" Pitch="34" RiffPosition="3.6875" Velocity="101" />
      <note Length="0.015625" Pitch="39" RiffPosition="3.703125" Velocity="0" />
      <note Length="0.03125" Pitch="44" RiffPosition="3.71875" Velocity="45" />
      <note Length="0.0625" Pitch="46" RiffPosition="3.75" Velocity="124" />
      <note Length="0.03125" Pitch="54" RiffPosition="3.8125" Velocity="65" />
      <note Length="0.03125" Pitch="35" RiffPosition="3.84375" Velocity="0" />
      <note Length="0.03125" Pitch="45" RiffPosition="3.875" Velocity="108" />
      <note Length="0.03125" Pitch="46" RiffPosition="3.90625" Velocity="42" />
      <note Length="0.03125" Pitch="44" RiffPosition="3.9375" Velocity="117" />
      <note Length="0.03125" Pitch="38" RiffPosition="3.96875" Velocity="0" />
      <note Length="0.0234375" Pitch="35" RiffPosition="4" Velocity="0" />
      <note Length="0.0078125" Pitch="47" RiffPosition="4.0234375" Velocity="58" />
      <note Length="0.015625" Pitch="46" RiffPosition="4.03125" Velocity="55" />
      <note Length="0.015625" Pitch="44" RiffPosition="4.046875" Velocity="106" />
      <note Length="0.015625" Pitch="47" RiffPosition="4.0625" Velocity="102" />
      <note Length="0.046875" Pitch="41" RiffPosition="4.078125" Velocity="41" />
      <note Length="0.0625" Pitch="39" RiffPosition="4.125" Velocity="0" />
      <note Length="0.0625" Pitch="46" RiffPosition="4.1875" Velocity="91" />
      <note Length="0.0625" Pitch="44" RiffPosition="4.25" Velocity="95" />
      <note Length="0.015625" Pitch="50" RiffPosition="4.3125" Velocity="101" />
      <note Length="0.015625" Pitch="34" RiffPosition="4.328125" Velocity="40" />
      <note Length="0.015625" Pitch="47" RiffPosition="4.34375" Velocity="45" />
      <note Length="0.015625" Pitch="44" RiffPosition="4.359375" Velocity="106" />
      <note Length="0.015625" Pitch="48" RiffPosition="4.375" Velocity="111" />
      <note Length="0.046875" Pitch="45" RiffPosition="4.390625" Velocity="60" />
      <note Length="0.0078125" Pitch="40" RiffPosition="4.4375" Velocity="0" />
      <note Length="0.0234375" Pitch="39" RiffPosition="4.4453125" Velocity="0" />
      <note Length="0.015625" Pitch="50" RiffPosition="4.46875" Velocity="61" />
      <note Length="0.015625" Pitch="34" RiffPosition="4.484375" Velocity="112" />
      <note Length="0.0625" Pitch="38" RiffPosition="4.5" Velocity="0" />
      <note Length="0.03125" Pitch="39" RiffPosition="4.5625" Velocity="0" />
      <note Length="0.03125" Pitch="41" RiffPosition="4.59375" Velocity="71" />
      <note Length="0.03125" Pitch="51" RiffPosition="4.625" Velocity="59" />
      <note Length="0.03125" Pitch="39" RiffPosition="4.65625" Velocity="0" />
      <note Length="0.015625" Pitch="49" RiffPosition="4.6875" Velocity="56" />
      <note Length="0.015625" Pitch="46" RiffPosition="4.703125" Velocity="40" />
      <note Length="0.03125" Pitch="40" RiffPosition="4.71875" Velocity="0" />
      <note Length="0.0625" Pitch="41" RiffPosition="4.75" Velocity="124" />
      <note Length="0.03125" Pitch="40" RiffPosition="4.8125" Velocity="0" />
      <note Length="0.03125" Pitch="43" RiffPosition="4.84375" Velocity="62" />
      <note Length="0.03125" Pitch="40" RiffPosition="4.875" Velocity="0" />
      <note Length="0.03125" Pitch="42" RiffPosition="4.90625" Velocity="42" />
      <note Length="0.03125" Pitch="52" RiffPosition="4.9375" Velocity="64" />
      <note Length="0.03125" Pitch="40" RiffPosition="4.96875" Velocity="0" />
      <note Length="0.0234375" Pitch="44" RiffPosition="5" Velocity="71" />
      <note Length="0.0078125" Pitch="46" RiffPosition="5.0234375" Velocity="58" />
      <note Length="0.015625" Pitch="54" RiffPosition="5.03125" Velocity="55" />
      <note Length="0.015625" Pitch="44" RiffPosition="5.046875" Velocity="106" />
      <note Length="0.015625" Pitch="42" RiffPosition="5.0625" Velocity="102" />
      <note Length="0.046875" Pitch="39" RiffPosition="5.078125" Velocity="0" />
      <note Length="0.0625" Pitch="41" RiffPosition="5.125" Velocity="107" />
      <note Length="0.0625" Pitch="45" RiffPosition="5.1875" Velocity="91" />
      <note Length="0.0625" Pitch="53" RiffPosition="5.25" Velocity="95" />
      <note Length="0.015625" Pitch="44" RiffPosition="5.3125" Velocity="101" />
      <note Length="0.015625" Pitch="48" RiffPosition="5.328125" Velocity="40" />
      <note Length="0.015625" Pitch="45" RiffPosition="5.34375" Velocity="45" />
      <note Length="0.015625" Pitch="39" RiffPosition="5.359375" Velocity="0" />
      <note Length="0.015625" Pitch="43" RiffPosition="5.375" Velocity="111" />
      <note Length="0.046875" Pitch="40" RiffPosition="5.390625" Velocity="0" />
      <note Length="0.0078125" Pitch="34" RiffPosition="5.4375" Velocity="76" />
      <note Length="0.0234375" Pitch="40" RiffPosition="5.4453125" Velocity="0" />
      <note Length="0.015625" Pitch="45" RiffPosition="5.46875" Velocity="61" />
      <note Length="0.015625" Pitch="49" RiffPosition="5.484375" Velocity="62" />
      <note Length="0.0625" Pitch="46" RiffPosition="5.5" Velocity="94" />
      <note Length="0.03125" Pitch="54" RiffPosition="5.5625" Velocity="117" />
      <note Length="0.03125" Pitch="35" RiffPosition="5.59375" Velocity="0" />
      <note Length="0.03125" Pitch="45" RiffPosition="5.625" Velocity="59" />
      <note Length="0.03125" Pitch="46" RiffPosition="5.65625" Velocity="68" />
      <note Length="0.015625" Pitch="44" RiffPosition="5.6875" Velocity="101" />
      <note Length="0.015625" Pitch="41" RiffPosition="5.703125" Velocity="40" />
      <note Length="0.03125" Pitch="39" RiffPosition="5.71875" Velocity="0" />
      <note Length="0.0625" Pitch="36" RiffPosition="5.75" Velocity="0" />
      <note Length="0.03125" Pitch="47" RiffPosition="5.8125" Velocity="65" />
      <note Length="0.03125" Pitch="44" RiffPosition="5.84375" Velocity="62" />
      <note Length="0.03125" Pitch="39" RiffPosition="5.875" Velocity="0" />
      <note Length="0.03125" Pitch="49" RiffPosition="5.90625" Velocity="23" />
      <note Length="0.03125" Pitch="46" RiffPosition="5.9375" Velocity="117" />
      <note Length="0.03125" Pitch="48" RiffPosition="5.96875" Velocity="61" />
      <note Length="0.0234375" Pitch="45" RiffPosition="6" Velocity="71" />
      <note Length="0.0078125" Pitch="41" RiffPosition="6.0234375" Velocity="58" />
      <note Length="0.015625" Pitch="40" RiffPosition="6.03125" Velocity="0" />
      <note Length="0.015625" Pitch="53" RiffPosition="6.046875" Velocity="106" />
      <note Length="0.015625" Pitch="50" RiffPosition="6.0625" Velocity="102" />
      <note Length="0.046875" Pitch="34" RiffPosition="6.078125" Velocity="41" />
      <note Length="0.0625" Pitch="48" RiffPosition="6.125" Velocity="107" />
      <note Length="0.0625" Pitch="40" RiffPosition="6.1875" Velocity="0" />
      <note Length="0.0625" Pitch="39" RiffPosition="6.25" Velocity="0" />
      <note Length="0.015625" Pitch="39" RiffPosition="6.3125" Velocity="0" />
      <note Length="0.015625" Pitch="44" RiffPosition="6.328125" Velocity="40" />
      <note Length="0.015625" Pitch="41" RiffPosition="6.34375" Velocity="45" />
      <note Length="0.015625" Pitch="54" RiffPosition="6.359375" Velocity="106" />
      <note Length="0.015625" Pitch="51" RiffPosition="6.375" Velocity="111" />
      <note Length="0.046875" Pitch="35" RiffPosition="6.390625" Velocity="0" />
      <note Length="0.0078125" Pitch="49" RiffPosition="6.4375" Velocity="42" />
      <note Length="0.0234375" Pitch="48" RiffPosition="6.4453125" Velocity="73" />
      <note Length="0.015625" Pitch="40" RiffPosition="6.46875" Velocity="0" />
      <note Length="0.015625" Pitch="44" RiffPosition="6.484375" Velocity="112" />
      <note Length="0.0625" Pitch="41" RiffPosition="6.5" Velocity="94" />
      <note Length="0.03125" Pitch="40" RiffPosition="6.5625" Velocity="0" />
      <note Length="0.03125" Pitch="43" RiffPosition="6.59375" Velocity="71" />
      <note Length="0.03125" Pitch="40" RiffPosition="6.625" Velocity="0" />
      <note Length="0.03125" Pitch="42" RiffPosition="6.65625" Velocity="68" />
      <note Length="0.015625" Pitch="52" RiffPosition="6.6875" Velocity="56" />
      <note Length="0.015625" Pitch="49" RiffPosition="6.703125" Velocity="22" />
      <note Length="0.03125" Pitch="40" RiffPosition="6.71875" Velocity="0" />
      <note Length="0.0625" Pitch="44" RiffPosition="6.75" Velocity="124" />
      <note Length="0.03125" Pitch="42" RiffPosition="6.8125" Velocity="65" />
      <note Length="0.03125" Pitch="52" RiffPosition="6.84375" Velocity="34" />
      <note Length="0.03125" Pitch="41" RiffPosition="6.875" Velocity="108" />
      <note Length="0.03125" Pitch="44" RiffPosition="6.90625" Velocity="42" />
      <note Length="0.03125" Pitch="45" RiffPosition="6.9375" Velocity="117" />
      <note Length="0.03125" Pitch="43" RiffPosition="6.96875" Velocity="61" />
      <note Length="0.0234375" Pitch="53" RiffPosition="7" Velocity="71" />
      <note Length="0.0078125" Pitch="36" RiffPosition="7.0234375" Velocity="0" />
      <note Length="0.015625" Pitch="34" RiffPosition="7.03125" Velocity="55" />
      <note Length="0.015625" Pitch="38" RiffPosition="7.046875" Velocity="0" />
      <note Length="0.015625" Pitch="44" RiffPosition="7.0625" Velocity="102" />
      <note Length="0.046875" Pitch="48" RiffPosition="7.078125" Velocity="41" />
      <note Length="0.0625" Pitch="43" RiffPosition="7.125" Velocity="107" />
      <note Length="0.0625" Pitch="35" RiffPosition="7.1875" Velocity="0" />
      <note Length="0.0625" Pitch="46" RiffPosition="7.25" Velocity="95" />
      <note Length="0.015625" Pitch="47" RiffPosition="7.3125" Velocity="101" />
      <note Length="0.015625" Pitch="51" RiffPosition="7.328125" Velocity="40" />
      <note Length="0.015625" Pitch="35" RiffPosition="7.34375" Velocity="0" />
      <note Length="0.015625" Pitch="39" RiffPosition="7.359375" Velocity="0" />
      <note Length="0.015625" Pitch="45" RiffPosition="7.375" Velocity="111" />
      <note Length="0.046875" Pitch="43" RiffPosition="7.390625" Velocity="60" />
      <note Length="0.0078125" Pitch="44" RiffPosition="7.4375" Velocity="76" />
      <note Length="0.0234375" Pitch="43" RiffPosition="7.4453125" Velocity="73" />
      <note Length="0.015625" Pitch="39" RiffPosition="7.46875" Velocity="0" />
      <note Length="0.015625" Pitch="52" RiffPosition="7.484375" Velocity="62" />
      <note Length="0.0625" Pitch="36" RiffPosition="7.5" Velocity="0" />
      <note Length="0.03125" Pitch="47" RiffPosition="7.5625" Velocity="117" />
      <note Length="0.03125" Pitch="44" RiffPosition="7.59375" Velocity="71" />
      <note Length="0.03125" Pitch="39" RiffPosition="7.625" Velocity="0" />
      <note Length="0.03125" Pitch="49" RiffPosition="7.65625" Velocity="37" />
      <note Length="0.015625" Pitch="46" RiffPosition="7.6875" Velocity="101" />
      <note Length="0.015625" Pitch="44" RiffPosition="7.703125" Velocity="40" />
      <note Length="0.03125" Pitch="48" RiffPosition="7.71875" Velocity="45" />
      <note Length="0.0625" Pitch="38" RiffPosition="7.75" Velocity="0" />
      <note Length="0.03125" Pitch="50" RiffPosition="7.8125" Velocity="65" />
      <note Length="0.03125" Pitch="47" RiffPosition="7.84375" Velocity="62" />
      <note Length="0.03125" Pitch="48" RiffPosition="7.875" Velocity="108" />
      <note Length="0.03125" Pitch="39" RiffPosition="7.90625" Velocity="0" />
      <note Length="0.03125" Pitch="40" RiffPosition="7.9375" Velocity="0" />
      <note Length="0.03125" Pitch="50" RiffPosition="7.96875" Velocity="61" />
      <note Length="0.0234375" Pitch="39" RiffPosition="8" Velocity="0" />
      <note Length="0.0078125" Pitch="44" RiffPosition="8.0234375" Velocity="58" />
      <note Length="0.015625" Pitch="49" RiffPosition="8.03125" Velocity="30" />
      <note Length="0.015625" Pitch="46" RiffPosition="8.046875" Velocity="106" />
      <note Length="0.015625" Pitch="40" RiffPosition="8.0625" Velocity="0" />
      <note Length="0.046875" Pitch="44" RiffPosition="8.078125" Velocity="41" />
      <note Length="0.0625" Pitch="51" RiffPosition="8.125" Velocity="107" />
      <note Length="0.0625" Pitch="43" RiffPosition="8.1875" Velocity="91" />
      <note Length="0.0625" Pitch="41" RiffPosition="8.25" Velocity="95" />
      <note Length="0.015625" Pitch="40" RiffPosition="8.3125" Velocity="0" />
      <note Length="0.015625" Pitch="46" RiffPosition="8.328125" Velocity="40" />
      <note Length="0.015625" Pitch="44" RiffPosition="8.34375" Velocity="45" />
      <note Length="0.015625" Pitch="47" RiffPosition="8.359375" Velocity="106" />
      <note Length="0.015625" Pitch="41" RiffPosition="8.375" Velocity="111" />
      <note Length="0.046875" Pitch="44" RiffPosition="8.390625" Velocity="60" />
      <note Length="0.0078125" Pitch="52" RiffPosition="8.4375" Velocity="42" />
      <note Length="0.0234375" Pitch="51" RiffPosition="8.4453125" Velocity="73" />
      <note Length="0.015625" Pitch="40" RiffPosition="8.46875" Velocity="0" />
      <note Length="0.015625" Pitch="46" RiffPosition="8.484375" Velocity="112" />
      <note Length="0.0625" Pitch="44" RiffPosition="8.5" Velocity="94" />
      <note Length="0.03125" Pitch="43" RiffPosition="8.5625" Velocity="117" />
      <note Length="0.03125" Pitch="53" RiffPosition="8.59375" Velocity="71" />
      <note Length="0.03125" Pitch="34" RiffPosition="8.625" Velocity="59" />
      <note Length="0.03125" Pitch="44" RiffPosition="8.65625" Velocity="68" />
      <note Length="0.015625" Pitch="45" RiffPosition="8.6875" Velocity="101" />
      <note Length="0.015625" Pitch="39" RiffPosition="8.703125" Velocity="0" />
      <note Length="0.03125" Pitch="43" RiffPosition="8.71875" Velocity="45" />
      <note Length="0.0625" Pitch="53" RiffPosition="8.75" Velocity="124" />
      <note Length="0.03125" Pitch="44" RiffPosition="8.8125" Velocity="65" />
      <note Length="0.03125" Pitch="46" RiffPosition="8.84375" Velocity="62" />
      <note Length="0.03125" Pitch="44" RiffPosition="8.875" Velocity="108" />
      <note Length="0.03125" Pitch="54" RiffPosition="8.90625" Velocity="42" />
      <note Length="0.03125" Pitch="35" RiffPosition="8.9375" Velocity="0" />
      <note Length="0.03125" Pitch="45" RiffPosition="8.96875" Velocity="61" />
      <note Length="0.0234375" Pitch="46" RiffPosition="9" Velocity="0" />
      <note Length="0.0078125" Pitch="38" RiffPosition="9.0234375" Velocity="0" />
      <note Length="0.015625" Pitch="44" RiffPosition="9.03125" Velocity="0" />
      <note Length="0.015625" Pitch="41" RiffPosition="9.046875" Velocity="0" />
      <note Length="0.015625" Pitch="38" RiffPosition="9.0625" Velocity="0" />
      <note Length="0.046875" Pitch="51" RiffPosition="9.078125" Velocity="0" />
      <note Length="0.0625" Pitch="45" RiffPosition="9.125" Velocity="0" />
      <note Length="0.0625" Pitch="44" RiffPosition="9.1875" Velocity="0" />
      <note Length="0.0625" Pitch="36" RiffPosition="9.25" Velocity="0" />
      <note Length="0.015625" Pitch="47" RiffPosition="9.3125" Velocity="0" />
      <note Length="0.015625" Pitch="44" RiffPosition="9.328125" Velocity="0" />
      <note Length="0.015625" Pitch="44" RiffPosition="9.34375" Velocity="0" />
      <note Length="0.015625" Pitch="42" RiffPosition="9.359375" Velocity="0" />
      <note Length="0.015625" Pitch="39" RiffPosition="9.375" Velocity="0" />
      <note Length="0.046875" Pitch="52" RiffPosition="9.390625" Velocity="0" />
      <note Length="0.0078125" Pitch="46" RiffPosition="9.4375" Velocity="0" />
      <note Length="0.0234375" Pitch="45" RiffPosition="9.4453125" Velocity="0" />
      <note Length="0.015625" Pitch="48" RiffPosition="9.46875" Velocity="0" />
      <note Length="0.015625" Pitch="45" RiffPosition="9.484375" Velocity="0" />
      <note Length="0.0625" Pitch="39" RiffPosition="9.5" Velocity="0" />
      <note Length="0.03125" Pitch="50" RiffPosition="9.5625" Velocity="0" />
      <note Length="0.03125" Pitch="47" RiffPosition="9.59375" Velocity="0" />
      <note Length="0.03125" Pitch="48" RiffPosition="9.625" Velocity="0" />
      <note Length="0.03125" Pitch="39" RiffPosition="9.65625" Velocity="0" />
      <note Length="0.015625" Pitch="40" RiffPosition="9.6875" Velocity="0" />
      <note Length="0.015625" Pitch="54" RiffPosition="9.703125" Velocity="0" />
      <note Length="0.03125" Pitch="51" RiffPosition="9.71875" Velocity="0" />
      <note Length="0.0625" Pitch="39" RiffPosition="9.75" Velocity="0" />
      <note Length="0.03125" Pitch="40" RiffPosition="9.8125" Velocity="0" />
      <note Length="0.03125" Pitch="41" RiffPosition="9.84375" Velocity="0" />
      <note Length="0.03125" Pitch="51" RiffPosition="9.875" Velocity="0" />
      <note Length="0.03125" Pitch="39" RiffPosition="9.90625" Velocity="0" />
      <note Length="0.03125" Pitch="43" RiffPosition="9.9375" Velocity="0" />
      <note Length="0.03125" Pitch="40" RiffPosition="9.96875" Velocity="0" />
      <note Length="0.0234375" Pitch="42" RiffPosition="10" Velocity="0" />
      <note Length="0.0078125" Pitch="53" RiffPosition="10.0234375" Velocity="0" />
      <note Length="0.015625" Pitch="52" RiffPosition="10.03125" Velocity="0" />
      <note Length="0.015625" Pitch="36" RiffPosition="10.046875" Velocity="0" />
      <note Length="0.015625" Pitch="40" RiffPosition="10.0625" Velocity="0" />
      <note Length="0.046875" Pitch="46" RiffPosition="10.078125" Velocity="0" />
      <note Length="0.0625" Pitch="54" RiffPosition="10.125" Velocity="0" />
      <note Length="0.0625" Pitch="52" RiffPosition="10.1875" Velocity="0" />
      <note Length="0.0625" Pitch="44" RiffPosition="10.25" Velocity="0" />
      <note Length="0.015625" Pitch="43" RiffPosition="10.3125" Velocity="0" />
      <note Length="0.015625" Pitch="40" RiffPosition="10.328125" Velocity="0" />
      <note Length="0.015625" Pitch="53" RiffPosition="10.34375" Velocity="0" />
      <note Length="0.015625" Pitch="50" RiffPosition="10.359375" Velocity="0" />
      <note Length="0.015625" Pitch="34" RiffPosition="10.375" Velocity="0" />
      <note Length="0.046875" Pitch="47" RiffPosition="10.390625" Velocity="0" />
      <note Length="0.0078125" Pitch="45" RiffPosition="10.4375" Velocity="0" />
      <note Length="0.0234375" Pitch="40" RiffPosition="10.4453125" Velocity="0" />
      <note Length="0.015625" Pitch="43" RiffPosition="10.46875" Velocity="0" />
      <note Length="0.015625" Pitch="40" RiffPosition="10.484375" Velocity="0" />
      <note Length="0.0625" Pitch="53" RiffPosition="10.5" Velocity="0" />
      <note Length="0.03125" Pitch="44" RiffPosition="10.5625" Velocity="0" />
      <note Length="0.03125" Pitch="46" RiffPosition="10.59375" Velocity="0" />
      <note Length="0.03125" Pitch="44" RiffPosition="10.625" Velocity="0" />
      <note Length="0.03125" Pitch="54" RiffPosition="10.65625" Velocity="0" />
      <note Length="0.015625" Pitch="35" RiffPosition="10.6875" Velocity="0" />
      <note Length="0.015625" Pitch="39" RiffPosition="10.703125" Velocity="0" />
      <note Length="0.03125" Pitch="45" RiffPosition="10.71875" Velocity="0" />
      <note Length="0.0625" Pitch="46" RiffPosition="10.75" Velocity="0" />
      <note Length="0.03125" Pitch="38" RiffPosition="10.8125" Velocity="0" />
      <note Length="0.03125" Pitch="35" RiffPosition="10.84375" Velocity="0" />
      <note Length="0.03125" Pitch="46" RiffPosition="10.875" Velocity="0" />
      <note Length="0.03125" Pitch="47" RiffPosition="10.90625" Velocity="0" />
      <note Length="0.03125" Pitch="44" RiffPosition="10.9375" Velocity="0" />
      <note Length="0.03125" Pitch="39" RiffPosition="10.96875" Velocity="0" />
    </riff>
    <riff IsDrum="True" MidiInstrument="0" Tempo="97" Length="11">
      <note Length="0.046875" Pitch="51" RiffPosition="0" Velocity="84" />
      <note Length="0.015625" Pitch="44" RiffPosition="0.046875" Velocity="41" />
      <note Length="0.015625" Pitch="41" RiffPosition="0.0625" Velocity="115" />
      <note Length="0.015625" Pitch="39" RiffPosition="0.078125" Velocity="0" />
      <note Length="0.0078125" Pitch="38" RiffPosition="0.09375" Velocity="0" />
      <note Length="0.0234375" Pitch="38" RiffPosition="0.1015625" Velocity="0" />
      <note Length="0.015625" Pitch="38" RiffPosition="0.125" Velocity="0" />
      <note Length="0.015625" Pitch="39" RiffPosition="0.140625" Velocity="0" />
      <note Length="0.015625" Pitch="40" RiffPosition="0.15625" Velocity="0" />
      <note Length="0.015625" Pitch="41" RiffPosition="0.171875" Velocity="50" />
      <note Length="0.015625" Pitch="42" RiffPosition="0.1875" Velocity="89" />
      <note Length="0.015625" Pitch="43" RiffPosition="0.203125" Velocity="101" />
      <note Length="0.03125" Pitch="43" RiffPosition="0.21875" Velocity="113" />
      <note Length="0.046875" Pitch="43" RiffPosition="0.25" Velocity="121" />
      <note Length="0.015625" Pitch="41" RiffPosition="0.296875" Velocity="42" />
      <note Length="0.015625" Pitch="41" RiffPosition="0.3125" Velocity="116" />
      <note Length="0.015625" Pitch="41" RiffPosition="0.328125" Velocity="91" />
      <note Length="0.0078125" Pitch="42" RiffPosition="0.34375" Velocity="87" />
      <note Length="0.0234375" Pitch="43" RiffPosition="0.3515625" Velocity="49" />
      <note Length="0.015625" Pitch="44" RiffPosition="0.375" Velocity="94" />
      <note Length="0.015625" Pitch="46" RiffPosition="0.390625" Velocity="97" />
      <note Length="0.015625" Pitch="48" RiffPosition="0.40625" Velocity="86" />
      <note Length="0.015625" Pitch="50" RiffPosition="0.421875" Velocity="49" />
      <note Length="0.015625" Pitch="51" RiffPosition="0.4375" Velocity="105" />
      <note Length="0.015625" Pitch="52" RiffPosition="0.453125" Velocity="56" />
      <note Length="0.03125" Pitch="52" RiffPosition="0.46875" Velocity="63" />
      <note Length="0.046875" Pitch="49" RiffPosition="0.5" Velocity="66" />
      <note Length="0.015625" Pitch="44" RiffPosition="0.546875" Velocity="43" />
      <note Length="0.015625" Pitch="43" RiffPosition="0.5625" Velocity="117" />
      <note Length="0.015625" Pitch="42" RiffPosition="0.578125" Velocity="92" />
      <note Length="0.0078125" Pitch="41" RiffPosition="0.59375" Velocity="103" />
      <note Length="0.0234375" Pitch="41" RiffPosition="0.6015625" Velocity="48" />
      <note Length="0.015625" Pitch="41" RiffPosition="0.625" Velocity="93" />
      <note Length="0.015625" Pitch="41" RiffPosition="0.640625" Velocity="81" />
      <note Length="0.015625" Pitch="42" RiffPosition="0.65625" Velocity="122" />
      <note Length="0.015625" Pitch="42" RiffPosition="0.671875" Velocity="48" />
      <note Length="0.015625" Pitch="43" RiffPosition="0.6875" Velocity="106" />
      <note Length="0.015625" Pitch="42" RiffPosition="0.703125" Velocity="118" />
      <note Length="0.03125" Pitch="42" RiffPosition="0.71875" Velocity="115" />
      <note Length="0.046875" Pitch="40" RiffPosition="0.75" Velocity="0" />
      <note Length="0.015625" Pitch="38" RiffPosition="0.796875" Velocity="0" />
      <note Length="0.015625" Pitch="39" RiffPosition="0.8125" Velocity="0" />
      <note Length="0.015625" Pitch="40" RiffPosition="0.828125" Velocity="0" />
      <note Length="0.0078125" Pitch="41" RiffPosition="0.84375" Velocity="104" />
      <note Length="0.0234375" Pitch="42" RiffPosition="0.8515625" Velocity="48" />
      <note Length="0.015625" Pitch="45" RiffPosition="0.875" Velocity="92" />
      <note Length="0.015625" Pitch="48" RiffPosition="0.890625" Velocity="118" />
      <note Length="0.015625" Pitch="51" RiffPosition="0.90625" Velocity="106" />
      <note Length="0.015625" Pitch="53" RiffPosition="0.921875" Velocity="47" />
      <note Length="0.015625" Pitch="54" RiffPosition="0.9375" Velocity="107" />
      <note Length="0.015625" Pitch="54" RiffPosition="0.953125" Velocity="119" />
      <note Length="0.03125" Pitch="54" RiffPosition="0.96875" Velocity="94" />
      <note Length="0.046875" Pitch="51" RiffPosition="1" Velocity="103" />
      <note Length="0.015625" Pitch="44" RiffPosition="1.046875" Velocity="57" />
      <note Length="0.015625" Pitch="41" RiffPosition="1.0625" Velocity="97" />
      <note Length="0.015625" Pitch="39" RiffPosition="1.078125" Velocity="0" />
      <note Length="0.0078125" Pitch="38" RiffPosition="1.09375" Velocity="0" />
      <note Length="0.0234375" Pitch="38" RiffPosition="1.1015625" Velocity="0" />
      <note Length="0.015625" Pitch="38" RiffPosition="1.125" Velocity="0" />
      <note Length="0.015625" Pitch="39" RiffPosition="1.140625" Velocity="0" />
      <note Length="0.015625" Pitch="40" RiffPosition="1.15625" Velocity="0" />
      <note Length="0.015625" Pitch="41" RiffPosition="1.171875" Velocity="49" />
      <note Length="0.015625" Pitch="42" RiffPosition="1.1875" Velocity="108" />
      <note Length="0.015625" Pitch="43" RiffPosition="1.203125" Velocity="83" />
      <note Length="0.03125" Pitch="43" RiffPosition="1.21875" Velocity="95" />
      <note Length="0.046875" Pitch="43" RiffPosition="1.25" Velocity="102" />
      <note Length="0.015625" Pitch="41" RiffPosition="1.296875" Velocity="56" />
      <note Length="0.015625" Pitch="41" RiffPosition="1.3125" Velocity="98" />
      <note Length="0.015625" Pitch="41" RiffPosition="1.328125" Velocity="109" />
      <note Length="0.0078125" Pitch="42" RiffPosition="1.34375" Velocity="106" />
      <note Length="0.0234375" Pitch="43" RiffPosition="1.3515625" Velocity="50" />
      <note Length="0.015625" Pitch="44" RiffPosition="1.375" Velocity="112" />
      <note Length="0.015625" Pitch="46" RiffPosition="1.390625" Velocity="101" />
      <note Length="0.015625" Pitch="48" RiffPosition="1.40625" Velocity="104" />
      <note Length="0.015625" Pitch="50" RiffPosition="1.421875" Velocity="50" />
      <note Length="0.015625" Pitch="51" RiffPosition="1.4375" Velocity="124" />
      <note Length="0.015625" Pitch="52" RiffPosition="1.453125" Velocity="46" />
      <note Length="0.03125" Pitch="52" RiffPosition="1.46875" Velocity="52" />
      <note Length="0.046875" Pitch="49" RiffPosition="1.5" Velocity="56" />
      <note Length="0.015625" Pitch="44" RiffPosition="1.546875" Velocity="40" />
      <note Length="0.015625" Pitch="43" RiffPosition="1.5625" Velocity="99" />
      <note Length="0.015625" Pitch="42" RiffPosition="1.578125" Velocity="110" />
      <note Length="0.0078125" Pitch="41" RiffPosition="1.59375" Velocity="122" />
      <note Length="0.0234375" Pitch="41" RiffPosition="1.6015625" Velocity="52" />
      <note Length="0.015625" Pitch="41" RiffPosition="1.625" Velocity="111" />
      <note Length="0.015625" Pitch="41" RiffPosition="1.640625" Velocity="100" />
      <note Length="0.015625" Pitch="42" RiffPosition="1.65625" Velocity="88" />
      <note Length="0.015625" Pitch="42" RiffPosition="1.671875" Velocity="51" />
      <note Length="0.015625" Pitch="43" RiffPosition="1.6875" Velocity="88" />
      <note Length="0.015625" Pitch="42" RiffPosition="1.703125" Velocity="100" />
      <note Length="0.03125" Pitch="42" RiffPosition="1.71875" Velocity="96" />
      <note Length="0.046875" Pitch="40" RiffPosition="1.75" Velocity="0" />
      <note Length="0.015625" Pitch="38" RiffPosition="1.796875" Velocity="0" />
      <note Length="0.015625" Pitch="39" RiffPosition="1.8125" Velocity="0" />
      <note Length="0.015625" Pitch="40" RiffPosition="1.828125" Velocity="0" />
      <note Length="0.0078125" Pitch="41" RiffPosition="1.84375" Velocity="86" />
      <note Length="0.0234375" Pitch="42" RiffPosition="1.8515625" Velocity="51" />
      <note Length="0.015625" Pitch="45" RiffPosition="1.875" Velocity="110" />
      <note Length="0.015625" Pitch="48" RiffPosition="1.890625" Velocity="99" />
      <note Length="0.015625" Pitch="51" RiffPosition="1.90625" Velocity="87" />
      <note Length="0.015625" Pitch="53" RiffPosition="1.921875" Velocity="50" />
      <note Length="0.015625" Pitch="54" RiffPosition="1.9375" Velocity="89" />
      <note Length="0.015625" Pitch="54" RiffPosition="1.953125" Velocity="101" />
      <note Length="0.03125" Pitch="54" RiffPosition="1.96875" Velocity="112" />
      <note Length="0.046875" Pitch="51" RiffPosition="2" Velocity="121" />
      <note Length="0.015625" Pitch="44" RiffPosition="2.046875" Velocity="41" />
      <note Length="0.015625" Pitch="41" RiffPosition="2.0625" Velocity="116" />
      <note Length="0.015625" Pitch="39" RiffPosition="2.078125" Velocity="0" />
      <note Length="0.0078125" Pitch="38" RiffPosition="2.09375" Velocity="0" />
      <note Length="0.0234375" Pitch="38" RiffPosition="2.1015625" Velocity="0" />
      <note Length="0.015625" Pitch="38" RiffPosition="2.125" Velocity="0" />
      <note Length="0.015625" Pitch="39" RiffPosition="2.140625" Velocity="0" />
      <note Length="0.015625" Pitch="40" RiffPosition="2.15625" Velocity="0" />
      <note Length="0.015625" Pitch="41" RiffPosition="2.171875" Velocity="49" />
      <note Length="0.015625" Pitch="42" RiffPosition="2.1875" Velocity="105" />
      <note Length="0.015625" Pitch="43" RiffPosition="2.203125" Velocity="102" />
      <note Length="0.03125" Pitch="43" RiffPosition="2.21875" Velocity="113" />
      <note Length="0.046875" Pitch="43" RiffPosition="2.25" Velocity="120" />
      <note Length="0.015625" Pitch="41" RiffPosition="2.296875" Velocity="42" />
      <note Length="0.015625" Pitch="41" RiffPosition="2.3125" Velocity="117" />
      <note Length="0.015625" Pitch="41" RiffPosition="2.328125" Velocity="91" />
      <note Length="0.0078125" Pitch="42" RiffPosition="2.34375" Velocity="103" />
      <note Length="0.0234375" Pitch="43" RiffPosition="2.3515625" Velocity="49" />
      <note Length="0.015625" Pitch="44" RiffPosition="2.375" Velocity="94" />
      <note Length="0.015625" Pitch="46" RiffPosition="2.390625" Velocity="82" />
      <note Length="0.015625" Pitch="48" RiffPosition="2.40625" Velocity="122" />
      <note Length="0.015625" Pitch="50" RiffPosition="2.421875" Velocity="48" />
      <note Length="0.015625" Pitch="51" RiffPosition="2.4375" Velocity="106" />
      <note Length="0.015625" Pitch="52" RiffPosition="2.453125" Velocity="65" />
      <note Length="0.03125" Pitch="52" RiffPosition="2.46875" Velocity="63" />
      <note Length="0.046875" Pitch="49" RiffPosition="2.5" Velocity="57" />
      <note Length="0.015625" Pitch="44" RiffPosition="2.546875" Velocity="58" />
      <note Length="0.015625" Pitch="43" RiffPosition="2.5625" Velocity="80" />
      <note Length="0.015625" Pitch="42" RiffPosition="2.578125" Velocity="92" />
      <note Length="0.0078125" Pitch="41" RiffPosition="2.59375" Velocity="104" />
      <note Length="0.0234375" Pitch="41" RiffPosition="2.6015625" Velocity="47" />
      <note Length="0.015625" Pitch="41" RiffPosition="2.625" Velocity="93" />
      <note Length="0.015625" Pitch="41" RiffPosition="2.640625" Velocity="118" />
      <note Length="0.015625" Pitch="42" RiffPosition="2.65625" Velocity="106" />
      <note Length="0.015625" Pitch="42" RiffPosition="2.671875" Velocity="47" />
      <note Length="0.015625" Pitch="43" RiffPosition="2.6875" Velocity="107" />
      <note Length="0.015625" Pitch="42" RiffPosition="2.703125" Velocity="119" />
      <note Length="0.03125" Pitch="42" RiffPosition="2.71875" Velocity="93" />
      <note Length="0.046875" Pitch="40" RiffPosition="2.75" Velocity="0" />
      <note Length="0.015625" Pitch="38" RiffPosition="2.796875" Velocity="0" />
      <note Length="0.015625" Pitch="39" RiffPosition="2.8125" Velocity="0" />
      <note Length="0.015625" Pitch="40" RiffPosition="2.828125" Velocity="0" />
      <note Length="0.0078125" Pitch="41" RiffPosition="2.84375" Velocity="105" />
      <note Length="0.0234375" Pitch="42" RiffPosition="2.8515625" Velocity="48" />
      <note Length="0.015625" Pitch="45" RiffPosition="2.875" Velocity="114" />
      <note Length="0.015625" Pitch="48" RiffPosition="2.890625" Velocity="117" />
      <note Length="0.015625" Pitch="51" RiffPosition="2.90625" Velocity="105" />
      <note Length="0.015625" Pitch="53" RiffPosition="2.921875" Velocity="49" />
      <note Length="0.015625" Pitch="54" RiffPosition="2.9375" Velocity="108" />
      <note Length="0.015625" Pitch="54" RiffPosition="2.953125" Velocity="82" />
      <note Length="0.03125" Pitch="54" RiffPosition="2.96875" Velocity="94" />
      <note Length="0.046875" Pitch="51" RiffPosition="3" Velocity="102" />
      <note Length="0.015625" Pitch="44" RiffPosition="3.046875" Velocity="57" />
      <note Length="0.015625" Pitch="41" RiffPosition="3.0625" Velocity="97" />
      <note Length="0.015625" Pitch="39" RiffPosition="3.078125" Velocity="0" />
      <note Length="0.0078125" Pitch="38" RiffPosition="3.09375" Velocity="0" />
      <note Length="0.0234375" Pitch="38" RiffPosition="3.1015625" Velocity="0" />
      <note Length="0.015625" Pitch="38" RiffPosition="3.125" Velocity="0" />
      <note Length="0.015625" Pitch="39" RiffPosition="3.140625" Velocity="0" />
      <note Length="0.015625" Pitch="40" RiffPosition="3.15625" Velocity="0" />
      <note Length="0.015625" Pitch="41" RiffPosition="3.171875" Velocity="50" />
      <note Length="0.015625" Pitch="42" RiffPosition="3.1875" Velocity="124" />
      <note Length="0.015625" Pitch="43" RiffPosition="3.203125" Velocity="83" />
      <note Length="0.03125" Pitch="43" RiffPosition="3.21875" Velocity="95" />
      <note Length="0.046875" Pitch="43" RiffPosition="3.25" Velocity="86" />
      <note Length="0.015625" Pitch="41" RiffPosition="3.296875" Velocity="41" />
      <note Length="0.015625" Pitch="41" RiffPosition="3.3125" Velocity="98" />
      <note Length="0.015625" Pitch="41" RiffPosition="3.328125" Velocity="110" />
      <note Length="0.0078125" Pitch="42" RiffPosition="3.34375" Velocity="122" />
      <note Length="0.0234375" Pitch="43" RiffPosition="3.3515625" Velocity="52" />
      <note Length="0.015625" Pitch="44" RiffPosition="3.375" Velocity="112" />
      <note Length="0.015625" Pitch="46" RiffPosition="3.390625" Velocity="100" />
      <note Length="0.015625" Pitch="48" RiffPosition="3.40625" Velocity="89" />
      <note Length="0.015625" Pitch="50" RiffPosition="3.421875" Velocity="51" />
      <note Length="0.015625" Pitch="51" RiffPosition="3.4375" Velocity="87" />
      <note Length="0.015625" Pitch="52" RiffPosition="3.453125" Velocity="54" />
      <note Length="0.03125" Pitch="52" RiffPosition="3.46875" Velocity="53" />
      <note Length="0.046875" Pitch="49" RiffPosition="3.5" Velocity="47" />
      <note Length="0.015625" Pitch="44" RiffPosition="3.546875" Velocity="40" />
      <note Length="0.015625" Pitch="43" RiffPosition="3.5625" Velocity="114" />
      <note Length="0.015625" Pitch="42" RiffPosition="3.578125" Velocity="111" />
      <note Length="0.0078125" Pitch="41" RiffPosition="3.59375" Velocity="85" />
      <note Length="0.0234375" Pitch="41" RiffPosition="3.6015625" Velocity="51" />
      <note Length="0.015625" Pitch="41" RiffPosition="3.625" Velocity="111" />
      <note Length="0.015625" Pitch="41" RiffPosition="3.640625" Velocity="99" />
      <note Length="0.015625" Pitch="42" RiffPosition="3.65625" Velocity="88" />
      <note Length="0.015625" Pitch="42" RiffPosition="3.671875" Velocity="51" />
      <note Length="0.015625" Pitch="43" RiffPosition="3.6875" Velocity="88" />
      <note Length="0.015625" Pitch="42" RiffPosition="3.703125" Velocity="100" />
      <note Length="0.03125" Pitch="42" RiffPosition="3.71875" Velocity="112" />
      <note Length="0.046875" Pitch="40" RiffPosition="3.75" Velocity="0" />
      <note Length="0.015625" Pitch="38" RiffPosition="3.796875" Velocity="0" />
      <note Length="0.015625" Pitch="39" RiffPosition="3.8125" Velocity="0" />
      <note Length="0.015625" Pitch="40" RiffPosition="3.828125" Velocity="0" />
      <note Length="0.0078125" Pitch="41" RiffPosition="3.84375" Velocity="86" />
      <note Length="0.0234375" Pitch="42" RiffPosition="3.8515625" Velocity="50" />
      <note Length="0.015625" Pitch="45" RiffPosition="3.875" Velocity="95" />
      <note Length="0.015625" Pitch="48" RiffPosition="3.890625" Velocity="98" />
      <note Length="0.015625" Pitch="51" RiffPosition="3.90625" Velocity="87" />
      <note Length="0.015625" Pitch="53" RiffPosition="3.921875" Velocity="50" />
      <note Length="0.015625" Pitch="54" RiffPosition="3.9375" Velocity="104" />
      <note Length="0.015625" Pitch="54" RiffPosition="3.953125" Velocity="101" />
      <note Length="0.03125" Pitch="54" RiffPosition="3.96875" Velocity="113" />
      <note Length="0.046875" Pitch="51" RiffPosition="4" Velocity="121" />
      <note Length="0.015625" Pitch="44" RiffPosition="4.046875" Velocity="42" />
      <note Length="0.015625" Pitch="41" RiffPosition="4.0625" Velocity="116" />
      <note Length="0.015625" Pitch="39" RiffPosition="4.078125" Velocity="0" />
      <note Length="0.0078125" Pitch="38" RiffPosition="4.09375" Velocity="0" />
      <note Length="0.0234375" Pitch="38" RiffPosition="4.1015625" Velocity="0" />
      <note Length="0.015625" Pitch="38" RiffPosition="4.125" Velocity="0" />
      <note Length="0.015625" Pitch="39" RiffPosition="4.140625" Velocity="0" />
      <note Length="0.015625" Pitch="40" RiffPosition="4.15625" Velocity="0" />
      <note Length="0.015625" Pitch="41" RiffPosition="4.171875" Velocity="49" />
      <note Length="0.015625" Pitch="42" RiffPosition="4.1875" Velocity="105" />
      <note Length="0.015625" Pitch="43" RiffPosition="4.203125" Velocity="117" />
      <note Length="0.03125" Pitch="43" RiffPosition="4.21875" Velocity="114" />
      <note Length="0.046875" Pitch="43" RiffPosition="4.25" Velocity="105" />
      <note Length="0.015625" Pitch="41" RiffPosition="4.296875" Velocity="58" />
      <note Length="0.015625" Pitch="41" RiffPosition="4.3125" Velocity="80" />
      <note Length="0.015625" Pitch="41" RiffPosition="4.328125" Velocity="91" />
      <note Length="0.0078125" Pitch="42" RiffPosition="4.34375" Velocity="103" />
      <note Length="0.0234375" Pitch="43" RiffPosition="4.3515625" Velocity="47" />
      <note Length="0.015625" Pitch="44" RiffPosition="4.375" Velocity="93" />
      <note Length="0.015625" Pitch="46" RiffPosition="4.390625" Velocity="119" />
      <note Length="0.015625" Pitch="48" RiffPosition="4.40625" Velocity="107" />
      <note Length="0.015625" Pitch="50" RiffPosition="4.421875" Velocity="48" />
      <note Length="0.015625" Pitch="51" RiffPosition="4.4375" Velocity="106" />
      <note Length="0.015625" Pitch="52" RiffPosition="4.453125" Velocity="65" />
      <note Length="0.03125" Pitch="52" RiffPosition="4.46875" Velocity="51" />
      <note Length="0.046875" Pitch="49" RiffPosition="4.5" Velocity="57" />
      <note Length="0.015625" Pitch="44" RiffPosition="4.546875" Velocity="58" />
      <note Length="0.015625" Pitch="43" RiffPosition="4.5625" Velocity="96" />
      <note Length="0.015625" Pitch="42" RiffPosition="4.578125" Velocity="92" />
      <note Length="0.0078125" Pitch="41" RiffPosition="4.59375" Velocity="104" />
      <note Length="0.0234375" Pitch="41" RiffPosition="4.6015625" Velocity="48" />
      <note Length="0.015625" Pitch="41" RiffPosition="4.625" Velocity="114" />
      <note Length="0.015625" Pitch="41" RiffPosition="4.640625" Velocity="118" />
      <note Length="0.015625" Pitch="42" RiffPosition="4.65625" Velocity="106" />
      <note Length="0.015625" Pitch="42" RiffPosition="4.671875" Velocity="48" />
      <note Length="0.015625" Pitch="43" RiffPosition="4.6875" Velocity="107" />
      <note Length="0.015625" Pitch="42" RiffPosition="4.703125" Velocity="119" />
      <note Length="0.03125" Pitch="42" RiffPosition="4.71875" Velocity="93" />
      <note Length="0.046875" Pitch="40" RiffPosition="4.75" Velocity="0" />
      <note Length="0.015625" Pitch="38" RiffPosition="4.796875" Velocity="0" />
      <note Length="0.015625" Pitch="39" RiffPosition="4.8125" Velocity="0" />
      <note Length="0.015625" Pitch="40" RiffPosition="4.828125" Velocity="0" />
      <note Length="0.0078125" Pitch="41" RiffPosition="4.84375" Velocity="105" />
      <note Length="0.0234375" Pitch="42" RiffPosition="4.8515625" Velocity="49" />
      <note Length="0.015625" Pitch="45" RiffPosition="4.875" Velocity="113" />
      <note Length="0.015625" Pitch="48" RiffPosition="4.890625" Velocity="102" />
      <note Length="0.015625" Pitch="51" RiffPosition="4.90625" Velocity="105" />
      <note Length="0.015625" Pitch="53" RiffPosition="4.921875" Velocity="49" />
      <note Length="0.015625" Pitch="54" RiffPosition="4.9375" Velocity="123" />
      <note Length="0.015625" Pitch="54" RiffPosition="4.953125" Velocity="83" />
      <note Length="0.03125" Pitch="54" RiffPosition="4.96875" Velocity="94" />
      <note Length="0.046875" Pitch="51" RiffPosition="5" Velocity="87" />
      <note Length="0.015625" Pitch="44" RiffPosition="5.046875" Velocity="42" />
      <note Length="0.015625" Pitch="41" RiffPosition="5.0625" Velocity="98" />
      <note Length="0.015625" Pitch="39" RiffPosition="5.078125" Velocity="0" />
      <note Length="0.0078125" Pitch="38" RiffPosition="5.09375" Velocity="0" />
      <note Length="0.0234375" Pitch="38" RiffPosition="5.1015625" Velocity="0" />
      <note Length="0.015625" Pitch="38" RiffPosition="5.125" Velocity="0" />
      <note Length="0.015625" Pitch="39" RiffPosition="5.140625" Velocity="0" />
      <note Length="0.015625" Pitch="40" RiffPosition="5.15625" Velocity="0" />
      <note Length="0.015625" Pitch="41" RiffPosition="5.171875" Velocity="50" />
      <note Length="0.015625" Pitch="42" RiffPosition="5.1875" Velocity="87" />
      <note Length="0.015625" Pitch="43" RiffPosition="5.203125" Velocity="99" />
      <note Length="0.03125" Pitch="43" RiffPosition="5.21875" Velocity="95" />
      <note Length="0.046875" Pitch="43" RiffPosition="5.25" Velocity="86" />
      <note Length="0.015625" Pitch="41" RiffPosition="5.296875" Velocity="41" />
      <note Length="0.015625" Pitch="41" RiffPosition="5.3125" Velocity="114" />
      <note Length="0.015625" Pitch="41" RiffPosition="5.328125" Velocity="110" />
      <note Length="0.0078125" Pitch="42" RiffPosition="5.34375" Velocity="85" />
      <note Length="0.0234375" Pitch="43" RiffPosition="5.3515625" Velocity="52" />
      <note Length="0.015625" Pitch="44" RiffPosition="5.375" Velocity="112" />
      <note Length="0.015625" Pitch="46" RiffPosition="5.390625" Velocity="100" />
      <note Length="0.015625" Pitch="48" RiffPosition="5.40625" Velocity="88" />
      <note Length="0.015625" Pitch="50" RiffPosition="5.421875" Velocity="51" />
      <note Length="0.015625" Pitch="51" RiffPosition="5.4375" Velocity="88" />
      <note Length="0.015625" Pitch="52" RiffPosition="5.453125" Velocity="55" />
      <note Length="0.03125" Pitch="52" RiffPosition="5.46875" Velocity="61" />
      <note Length="0.046875" Pitch="49" RiffPosition="5.5" Velocity="67" />
      <note Length="0.015625" Pitch="44" RiffPosition="5.546875" Velocity="40" />
      <note Length="0.015625" Pitch="43" RiffPosition="5.5625" Velocity="115" />
      <note Length="0.015625" Pitch="42" RiffPosition="5.578125" Velocity="126" />
      <note Length="0.0078125" Pitch="41" RiffPosition="5.59375" Velocity="86" />
      <note Length="0.0234375" Pitch="41" RiffPosition="5.6015625" Velocity="51" />
      <note Length="0.015625" Pitch="41" RiffPosition="5.625" Velocity="96" />
      <note Length="0.015625" Pitch="41" RiffPosition="5.640625" Velocity="99" />
      <note Length="0.015625" Pitch="42" RiffPosition="5.65625" Velocity="87" />
      <note Length="0.015625" Pitch="42" RiffPosition="5.671875" Velocity="50" />
      <note Length="0.015625" Pitch="43" RiffPosition="5.6875" Velocity="104" />
      <note Length="0.015625" Pitch="42" RiffPosition="5.703125" Velocity="101" />
      <note Length="0.03125" Pitch="42" RiffPosition="5.71875" Velocity="112" />
      <note Length="0.046875" Pitch="40" RiffPosition="5.75" Velocity="0" />
      <note Length="0.015625" Pitch="38" RiffPosition="5.796875" Velocity="0" />
      <note Length="0.015625" Pitch="39" RiffPosition="5.8125" Velocity="0" />
      <note Length="0.015625" Pitch="40" RiffPosition="5.828125" Velocity="0" />
      <note Length="0.0078125" Pitch="41" RiffPosition="5.84375" Velocity="102" />
      <note Length="0.0234375" Pitch="42" RiffPosition="5.8515625" Velocity="50" />
      <note Length="0.015625" Pitch="45" RiffPosition="5.875" Velocity="95" />
      <note Length="0.015625" Pitch="48" RiffPosition="5.890625" Velocity="83" />
      <note Length="0.015625" Pitch="51" RiffPosition="5.90625" Velocity="123" />
      <note Length="0.015625" Pitch="53" RiffPosition="5.921875" Velocity="49" />
      <note Length="0.015625" Pitch="54" RiffPosition="5.9375" Velocity="105" />
      <note Length="0.015625" Pitch="54" RiffPosition="5.953125" Velocity="117" />
      <note Length="0.03125" Pitch="54" RiffPosition="5.96875" Velocity="113" />
      <note Length="0.046875" Pitch="51" RiffPosition="6" Velocity="105" />
      <note Length="0.015625" Pitch="44" RiffPosition="6.046875" Velocity="57" />
      <note Length="0.015625" Pitch="41" RiffPosition="6.0625" Velocity="79" />
      <note Length="0.015625" Pitch="39" RiffPosition="6.078125" Velocity="0" />
      <note Length="0.0078125" Pitch="38" RiffPosition="6.09375" Velocity="0" />
      <note Length="0.0234375" Pitch="38" RiffPosition="6.1015625" Velocity="0" />
      <note Length="0.015625" Pitch="38" RiffPosition="6.125" Velocity="0" />
      <note Length="0.015625" Pitch="39" RiffPosition="6.140625" Velocity="0" />
      <note Length="0.015625" Pitch="40" RiffPosition="6.15625" Velocity="0" />
      <note Length="0.015625" Pitch="41" RiffPosition="6.171875" Velocity="48" />
      <note Length="0.015625" Pitch="42" RiffPosition="6.1875" Velocity="106" />
      <note Length="0.015625" Pitch="43" RiffPosition="6.203125" Velocity="118" />
      <note Length="0.03125" Pitch="43" RiffPosition="6.21875" Velocity="92" />
      <note Length="0.046875" Pitch="43" RiffPosition="6.25" Velocity="104" />
      <note Length="0.015625" Pitch="41" RiffPosition="6.296875" Velocity="59" />
      <note Length="0.015625" Pitch="41" RiffPosition="6.3125" Velocity="95" />
      <note Length="0.015625" Pitch="41" RiffPosition="6.328125" Velocity="92" />
      <note Length="0.0078125" Pitch="42" RiffPosition="6.34375" Velocity="104" />
      <note Length="0.0234375" Pitch="43" RiffPosition="6.3515625" Velocity="47" />
      <note Length="0.015625" Pitch="44" RiffPosition="6.375" Velocity="115" />
      <note Length="0.015625" Pitch="46" RiffPosition="6.390625" Velocity="118" />
      <note Length="0.015625" Pitch="48" RiffPosition="6.40625" Velocity="106" />
      <note Length="0.015625" Pitch="50" RiffPosition="6.421875" Velocity="48" />
      <note Length="0.015625" Pitch="51" RiffPosition="6.4375" Velocity="107" />
      <note Length="0.015625" Pitch="52" RiffPosition="6.453125" Velocity="65" />
      <note Length="0.03125" Pitch="52" RiffPosition="6.46875" Velocity="51" />
      <note Length="0.046875" Pitch="49" RiffPosition="6.5" Velocity="57" />
      <note Length="0.015625" Pitch="44" RiffPosition="6.546875" Velocity="58" />
      <note Length="0.015625" Pitch="43" RiffPosition="6.5625" Velocity="96" />
      <note Length="0.015625" Pitch="42" RiffPosition="6.578125" Velocity="108" />
      <note Length="0.0078125" Pitch="41" RiffPosition="6.59375" Velocity="105" />
      <note Length="0.0234375" Pitch="41" RiffPosition="6.6015625" Velocity="48" />
      <note Length="0.015625" Pitch="41" RiffPosition="6.625" Velocity="114" />
      <note Length="0.015625" Pitch="41" RiffPosition="6.640625" Velocity="102" />
      <note Length="0.015625" Pitch="42" RiffPosition="6.65625" Velocity="106" />
      <note Length="0.015625" Pitch="42" RiffPosition="6.671875" Velocity="49" />
      <note Length="0.015625" Pitch="43" RiffPosition="6.6875" Velocity="123" />
      <note Length="0.015625" Pitch="42" RiffPosition="6.703125" Velocity="82" />
      <note Length="0.03125" Pitch="42" RiffPosition="6.71875" Velocity="94" />
      <note Length="0.046875" Pitch="40" RiffPosition="6.75" Velocity="0" />
      <note Length="0.015625" Pitch="38" RiffPosition="6.796875" Velocity="0" />
      <note Length="0.015625" Pitch="39" RiffPosition="6.8125" Velocity="0" />
      <note Length="0.015625" Pitch="40" RiffPosition="6.828125" Velocity="0" />
      <note Length="0.0078125" Pitch="41" RiffPosition="6.84375" Velocity="121" />
      <note Length="0.0234375" Pitch="42" RiffPosition="6.8515625" Velocity="64" />
      <note Length="0.015625" Pitch="45" RiffPosition="6.875" Velocity="113" />
      <note Length="0.015625" Pitch="48" RiffPosition="6.890625" Velocity="101" />
      <note Length="0.015625" Pitch="51" RiffPosition="6.90625" Velocity="90" />
      <note Length="0.015625" Pitch="53" RiffPosition="6.921875" Velocity="50" />
      <note Length="0.015625" Pitch="54" RiffPosition="6.9375" Velocity="86" />
      <note Length="0.015625" Pitch="54" RiffPosition="6.953125" Velocity="98" />
      <note Length="0.03125" Pitch="54" RiffPosition="6.96875" Velocity="95" />
      <note Length="0.046875" Pitch="51" RiffPosition="7" Velocity="86" />
      <note Length="0.015625" Pitch="44" RiffPosition="7.046875" Velocity="41" />
      <note Length="0.015625" Pitch="41" RiffPosition="7.0625" Velocity="113" />
      <note Length="0.015625" Pitch="39" RiffPosition="7.078125" Velocity="0" />
      <note Length="0.0078125" Pitch="38" RiffPosition="7.09375" Velocity="0" />
      <note Length="0.0234375" Pitch="38" RiffPosition="7.1015625" Velocity="0" />
      <note Length="0.015625" Pitch="38" RiffPosition="7.125" Velocity="0" />
      <note Length="0.015625" Pitch="39" RiffPosition="7.140625" Velocity="0" />
      <note Length="0.015625" Pitch="40" RiffPosition="7.15625" Velocity="0" />
      <note Length="0.015625" Pitch="41" RiffPosition="7.171875" Velocity="52" />
      <note Length="0.015625" Pitch="42" RiffPosition="7.1875" Velocity="87" />
      <note Length="0.015625" Pitch="43" RiffPosition="7.203125" Velocity="99" />
      <note Length="0.03125" Pitch="43" RiffPosition="7.21875" Velocity="111" />
      <note Length="0.046875" Pitch="43" RiffPosition="7.25" Velocity="85" />
      <note Length="0.015625" Pitch="41" RiffPosition="7.296875" Velocity="40" />
      <note Length="0.015625" Pitch="41" RiffPosition="7.3125" Velocity="114" />
      <note Length="0.015625" Pitch="41" RiffPosition="7.328125" Velocity="126" />
      <note Length="0.0078125" Pitch="42" RiffPosition="7.34375" Velocity="85" />
      <note Length="0.0234375" Pitch="43" RiffPosition="7.3515625" Velocity="51" />
      <note Length="0.015625" Pitch="44" RiffPosition="7.375" Velocity="96" />
      <note Length="0.015625" Pitch="46" RiffPosition="7.390625" Velocity="99" />
      <note Length="0.015625" Pitch="48" RiffPosition="7.40625" Velocity="88" />
      <note Length="0.015625" Pitch="50" RiffPosition="7.421875" Velocity="51" />
      <note Length="0.015625" Pitch="51" RiffPosition="7.4375" Velocity="103" />
      <note Length="0.015625" Pitch="52" RiffPosition="7.453125" Velocity="55" />
      <note Length="0.03125" Pitch="52" RiffPosition="7.46875" Velocity="62" />
      <note Length="0.046875" Pitch="49" RiffPosition="7.5" Velocity="67" />
      <note Length="0.015625" Pitch="44" RiffPosition="7.546875" Velocity="56" />
      <note Length="0.015625" Pitch="43" RiffPosition="7.5625" Velocity="115" />
      <note Length="0.015625" Pitch="42" RiffPosition="7.578125" Velocity="89" />
      <note Length="0.0078125" Pitch="41" RiffPosition="7.59375" Velocity="101" />
      <note Length="0.0234375" Pitch="41" RiffPosition="7.6015625" Velocity="50" />
      <note Length="0.015625" Pitch="41" RiffPosition="7.625" Velocity="95" />
      <note Length="0.015625" Pitch="41" RiffPosition="7.640625" Velocity="83" />
      <note Length="0.015625" Pitch="42" RiffPosition="7.65625" Velocity="124" />
      <note Length="0.015625" Pitch="42" RiffPosition="7.671875" Velocity="50" />
      <note Length="0.015625" Pitch="43" RiffPosition="7.6875" Velocity="104" />
      <note Length="0.015625" Pitch="42" RiffPosition="7.703125" Velocity="116" />
      <note Length="0.03125" Pitch="42" RiffPosition="7.71875" Velocity="113" />
      <note Length="0.046875" Pitch="40" RiffPosition="7.75" Velocity="0" />
      <note Length="0.015625" Pitch="38" RiffPosition="7.796875" Velocity="0" />
      <note Length="0.015625" Pitch="39" RiffPosition="7.8125" Velocity="0" />
      <note Length="0.015625" Pitch="40" RiffPosition="7.828125" Velocity="0" />
      <note Length="0.0078125" Pitch="41" RiffPosition="7.84375" Velocity="102" />
      <note Length="0.0234375" Pitch="42" RiffPosition="7.8515625" Velocity="46" />
      <note Length="0.015625" Pitch="45" RiffPosition="7.875" Velocity="94" />
      <note Length="0.015625" Pitch="48" RiffPosition="7.890625" Velocity="120" />
      <note Length="0.015625" Pitch="51" RiffPosition="7.90625" Velocity="108" />
      <note Length="0.015625" Pitch="53" RiffPosition="7.921875" Velocity="49" />
      <note Length="0.015625" Pitch="54" RiffPosition="7.9375" Velocity="105" />
      <note Length="0.015625" Pitch="54" RiffPosition="7.953125" Velocity="117" />
      <note Length="0.03125" Pitch="54" RiffPosition="7.96875" Velocity="91" />
      <note Length="0.046875" Pitch="51" RiffPosition="8" Velocity="105" />
      <note Length="0.015625" Pitch="44" RiffPosition="8.046875" Velocity="60" />
      <note Length="0.015625" Pitch="41" RiffPosition="8.0625" Velocity="95" />
      <note Length="0.015625" Pitch="39" RiffPosition="8.078125" Velocity="0" />
      <note Length="0.0078125" Pitch="38" RiffPosition="8.09375" Velocity="0" />
      <note Length="0.0234375" Pitch="38" RiffPosition="8.1015625" Velocity="0" />
      <note Length="0.015625" Pitch="38" RiffPosition="8.125" Velocity="0" />
      <note Length="0.015625" Pitch="39" RiffPosition="8.140625" Velocity="0" />
      <note Length="0.015625" Pitch="40" RiffPosition="8.15625" Velocity="0" />
      <note Length="0.015625" Pitch="41" RiffPosition="8.171875" Velocity="47" />
      <note Length="0.015625" Pitch="42" RiffPosition="8.1875" Velocity="106" />
      <note Length="0.015625" Pitch="43" RiffPosition="8.203125" Velocity="118" />
      <note Length="0.03125" Pitch="43" RiffPosition="8.21875" Velocity="92" />
      <note Length="0.046875" Pitch="43" RiffPosition="8.25" Velocity="104" />
      <note Length="0.015625" Pitch="41" RiffPosition="8.296875" Velocity="59" />
      <note Length="0.015625" Pitch="41" RiffPosition="8.3125" Velocity="96" />
      <note Length="0.015625" Pitch="41" RiffPosition="8.328125" Velocity="107" />
      <note Length="0.0078125" Pitch="42" RiffPosition="8.34375" Velocity="104" />
      <note Length="0.0234375" Pitch="43" RiffPosition="8.3515625" Velocity="48" />
      <note Length="0.015625" Pitch="44" RiffPosition="8.375" Velocity="115" />
      <note Length="0.015625" Pitch="46" RiffPosition="8.390625" Velocity="103" />
      <note Length="0.015625" Pitch="48" RiffPosition="8.40625" Velocity="106" />
      <note Length="0.015625" Pitch="50" RiffPosition="8.421875" Velocity="48" />
      <note Length="0.015625" Pitch="51" RiffPosition="8.4375" Velocity="122" />
      <note Length="0.015625" Pitch="52" RiffPosition="8.453125" Velocity="45" />
      <note Length="0.03125" Pitch="52" RiffPosition="8.46875" Velocity="51" />
      <note Length="0.046875" Pitch="49" RiffPosition="8.5" Velocity="48" />
      <note Length="0.015625" Pitch="44" RiffPosition="8.546875" Velocity="43" />
      <note Length="0.015625" Pitch="43" RiffPosition="8.5625" Velocity="97" />
      <note Length="0.015625" Pitch="42" RiffPosition="8.578125" Velocity="108" />
      <note Length="0.0078125" Pitch="41" RiffPosition="8.59375" Velocity="120" />
      <note Length="0.0234375" Pitch="41" RiffPosition="8.6015625" Velocity="63" />
      <note Length="0.015625" Pitch="41" RiffPosition="8.625" Velocity="114" />
      <note Length="0.015625" Pitch="41" RiffPosition="8.640625" Velocity="102" />
      <note Length="0.015625" Pitch="42" RiffPosition="8.65625" Velocity="90" />
      <note Length="0.015625" Pitch="42" RiffPosition="8.671875" Velocity="49" />
      <note Length="0.015625" Pitch="43" RiffPosition="8.6875" Velocity="86" />
      <note Length="0.015625" Pitch="42" RiffPosition="8.703125" Velocity="98" />
      <note Length="0.03125" Pitch="42" RiffPosition="8.71875" Velocity="94" />
      <note Length="0.046875" Pitch="40" RiffPosition="8.75" Velocity="0" />
      <note Length="0.015625" Pitch="38" RiffPosition="8.796875" Velocity="0" />
      <note Length="0.015625" Pitch="39" RiffPosition="8.8125" Velocity="0" />
      <note Length="0.015625" Pitch="40" RiffPosition="8.828125" Velocity="0" />
      <note Length="0.0078125" Pitch="41" RiffPosition="8.84375" Velocity="84" />
      <note Length="0.0234375" Pitch="42" RiffPosition="8.8515625" Velocity="53" />
      <note Length="0.015625" Pitch="45" RiffPosition="8.875" Velocity="113" />
      <note Length="0.015625" Pitch="48" RiffPosition="8.890625" Velocity="101" />
      <note Length="0.015625" Pitch="51" RiffPosition="8.90625" Velocity="89" />
      <note Length="0.015625" Pitch="53" RiffPosition="8.921875" Velocity="52" />
      <note Length="0.015625" Pitch="54" RiffPosition="8.9375" Velocity="87" />
      <note Length="0.015625" Pitch="54" RiffPosition="8.953125" Velocity="99" />
      <note Length="0.03125" Pitch="54" RiffPosition="8.96875" Velocity="110" />
      <note Length="0.046875" Pitch="51" RiffPosition="9" Velocity="0" />
      <note Length="0.015625" Pitch="44" RiffPosition="9.046875" Velocity="0" />
      <note Length="0.015625" Pitch="41" RiffPosition="9.0625" Velocity="0" />
      <note Length="0.015625" Pitch="39" RiffPosition="9.078125" Velocity="0" />
      <note Length="0.0078125" Pitch="38" RiffPosition="9.09375" Velocity="0" />
      <note Length="0.0234375" Pitch="38" RiffPosition="9.1015625" Velocity="0" />
      <note Length="0.015625" Pitch="38" RiffPosition="9.125" Velocity="0" />
      <note Length="0.015625" Pitch="39" RiffPosition="9.140625" Velocity="0" />
      <note Length="0.015625" Pitch="40" RiffPosition="9.15625" Velocity="0" />
      <note Length="0.015625" Pitch="41" RiffPosition="9.171875" Velocity="0" />
      <note Length="0.015625" Pitch="42" RiffPosition="9.1875" Velocity="0" />
      <note Length="0.015625" Pitch="43" RiffPosition="9.203125" Velocity="0" />
      <note Length="0.03125" Pitch="43" RiffPosition="9.21875" Velocity="0" />
      <note Length="0.046875" Pitch="43" RiffPosition="9.25" Velocity="0" />
      <note Length="0.015625" Pitch="41" RiffPosition="9.296875" Velocity="0" />
      <note Length="0.015625" Pitch="41" RiffPosition="9.3125" Velocity="0" />
      <note Length="0.015625" Pitch="41" RiffPosition="9.328125" Velocity="0" />
      <note Length="0.0078125" Pitch="42" RiffPosition="9.34375" Velocity="0" />
      <note Length="0.0234375" Pitch="43" RiffPosition="9.3515625" Velocity="0" />
      <note Length="0.015625" Pitch="44" RiffPosition="9.375" Velocity="0" />
      <note Length="0.015625" Pitch="46" RiffPosition="9.390625" Velocity="0" />
      <note Length="0.015625" Pitch="48" RiffPosition="9.40625" Velocity="0" />
      <note Length="0.015625" Pitch="50" RiffPosition="9.421875" Velocity="0" />
      <note Length="0.015625" Pitch="51" RiffPosition="9.4375" Velocity="0" />
      <note Length="0.015625" Pitch="52" RiffPosition="9.453125" Velocity="0" />
      <note Length="0.03125" Pitch="52" RiffPosition="9.46875" Velocity="0" />
      <note Length="0.046875" Pitch="49" RiffPosition="9.5" Velocity="0" />
      <note Length="0.015625" Pitch="44" RiffPosition="9.546875" Velocity="0" />
      <note Length="0.015625" Pitch="43" RiffPosition="9.5625" Velocity="0" />
      <note Length="0.015625" Pitch="42" RiffPosition="9.578125" Velocity="0" />
      <note Length="0.0078125" Pitch="41" RiffPosition="9.59375" Velocity="0" />
      <note Length="0.0234375" Pitch="41" RiffPosition="9.6015625" Velocity="0" />
      <note Length="0.015625" Pitch="41" RiffPosition="9.625" Velocity="0" />
      <note Length="0.015625" Pitch="41" RiffPosition="9.640625" Velocity="0" />
      <note Length="0.015625" Pitch="42" RiffPosition="9.65625" Velocity="0" />
      <note Length="0.015625" Pitch="42" RiffPosition="9.671875" Velocity="0" />
      <note Length="0.015625" Pitch="43" RiffPosition="9.6875" Velocity="0" />
      <note Length="0.015625" Pitch="42" RiffPosition="9.703125" Velocity="0" />
      <note Length="0.03125" Pitch="42" RiffPosition="9.71875" Velocity="0" />
      <note Length="0.046875" Pitch="40" RiffPosition="9.75" Velocity="0" />
      <note Length="0.015625" Pitch="38" RiffPosition="9.796875" Velocity="0" />
      <note Length="0.015625" Pitch="39" RiffPosition="9.8125" Velocity="0" />
      <note Length="0.015625" Pitch="40" RiffPosition="9.828125" Velocity="0" />
      <note Length="0.0078125" Pitch="41" RiffPosition="9.84375" Velocity="0" />
      <note Length="0.0234375" Pitch="42" RiffPosition="9.8515625" Velocity="0" />
      <note Length="0.015625" Pitch="45" RiffPosition="9.875" Velocity="0" />
      <note Length="0.015625" Pitch="48" RiffPosition="9.890625" Velocity="0" />
      <note Length="0.015625" Pitch="51" RiffPosition="9.90625" Velocity="0" />
      <note Length="0.015625" Pitch="53" RiffPosition="9.921875" Velocity="0" />
      <note Length="0.015625" Pitch="54" RiffPosition="9.9375" Velocity="0" />
      <note Length="0.015625" Pitch="54" RiffPosition="9.953125" Velocity="0" />
      <note Length="0.03125" Pitch="54" RiffPosition="9.96875" Velocity="0" />
      <note Length="0.046875" Pitch="51" RiffPosition="10" Velocity="0" />
      <note Length="0.015625" Pitch="44" RiffPosition="10.046875" Velocity="0" />
      <note Length="0.015625" Pitch="41" RiffPosition="10.0625" Velocity="0" />
      <note Length="0.015625" Pitch="39" RiffPosition="10.078125" Velocity="0" />
      <note Length="0.0078125" Pitch="38" RiffPosition="10.09375" Velocity="0" />
      <note Length="0.0234375" Pitch="38" RiffPosition="10.1015625" Velocity="0" />
      <note Length="0.015625" Pitch="38" RiffPosition="10.125" Velocity="0" />
      <note Length="0.015625" Pitch="39" RiffPosition="10.140625" Velocity="0" />
      <note Length="0.015625" Pitch="40" RiffPosition="10.15625" Velocity="0" />
      <note Length="0.015625" Pitch="41" RiffPosition="10.171875" Velocity="0" />
      <note Length="0.015625" Pitch="42" RiffPosition="10.1875" Velocity="0" />
      <note Length="0.015625" Pitch="43" RiffPosition="10.203125" Velocity="0" />
      <note Length="0.03125" Pitch="43" RiffPosition="10.21875" Velocity="0" />
      <note Length="0.046875" Pitch="43" RiffPosition="10.25" Velocity="0" />
      <note Length="0.015625" Pitch="41" RiffPosition="10.296875" Velocity="0" />
      <note Length="0.015625" Pitch="41" RiffPosition="10.3125" Velocity="0" />
      <note Length="0.015625" Pitch="41" RiffPosition="10.328125" Velocity="0" />
      <note Length="0.0078125" Pitch="42" RiffPosition="10.34375" Velocity="0" />
      <note Length="0.0234375" Pitch="43" RiffPosition="10.3515625" Velocity="0" />
      <note Length="0.015625" Pitch="44" RiffPosition="10.375" Velocity="0" />
      <note Length="0.015625" Pitch="46" RiffPosition="10.390625" Velocity="0" />
      <note Length="0.015625" Pitch="48" RiffPosition="10.40625" Velocity="0" />
      <note Length="0.015625" Pitch="50" RiffPosition="10.421875" Velocity="0" />
      <note Length="0.015625" Pitch="51" RiffPosition="10.4375" Velocity="0" />
      <note Length="0.015625" Pitch="52" RiffPosition="10.453125" Velocity="0" />
      <note Length="0.03125" Pitch="52" RiffPosition="10.46875" Velocity="0" />
      <note Length="0.046875" Pitch="49" RiffPosition="10.5" Velocity="0" />
      <note Length="0.015625" Pitch="44" RiffPosition="10.546875" Velocity="0" />
      <note Length="0.015625" Pitch="43" RiffPosition="10.5625" Velocity="0" />
      <note Length="0.015625" Pitch="42" RiffPosition="10.578125" Velocity="0" />
      <note Length="0.0078125" Pitch="41" RiffPosition="10.59375" Velocity="0" />
      <note Length="0.0234375" Pitch="41" RiffPosition="10.6015625" Velocity="0" />
      <note Length="0.015625" Pitch="41" RiffPosition="10.625" Velocity="0" />
      <note Length="0.015625" Pitch="41" RiffPosition="10.640625" Velocity="0" />
      <note Length="0.015625" Pitch="42" RiffPosition="10.65625" Velocity="0" />
      <note Length="0.015625" Pitch="42" RiffPosition="10.671875" Velocity="0" />
      <note Length="0.015625" Pitch="43" RiffPosition="10.6875" Velocity="0" />
      <note Length="0.015625" Pitch="42" RiffPosition="10.703125" Velocity="0" />
      <note Length="0.03125" Pitch="42" RiffPosition="10.71875" Velocity="0" />
      <note Length="0.046875" Pitch="40" RiffPosition="10.75" Velocity="0" />
      <note Length="0.015625" Pitch="38" RiffPosition="10.796875" Velocity="0" />
      <note Length="0.015625" Pitch="39" RiffPosition="10.8125" Velocity="0" />
      <note Length="0.015625" Pitch="40" RiffPosition="10.828125" Velocity="0" />
      <note Length="0.0078125" Pitch="41" RiffPosition="10.84375" Velocity="0" />
      <note Length="0.0234375" Pitch="42" RiffPosition="10.8515625" Velocity="0" />
      <note Length="0.015625" Pitch="45" RiffPosition="10.875" Velocity="0" />
      <note Length="0.015625" Pitch="48" RiffPosition="10.890625" Velocity="0" />
      <note Length="0.015625" Pitch="51" RiffPosition="10.90625" Velocity="0" />
      <note Length="0.015625" Pitch="53" RiffPosition="10.921875" Velocity="0" />
      <note Length="0.015625" Pitch="54" RiffPosition="10.9375" Velocity="0" />
      <note Length="0.015625" Pitch="54" RiffPosition="10.953125" Velocity="0" />
      <note Length="0.03125" Pitch="54" RiffPosition="10.96875" Velocity="0" />
    </riff>
    <riff IsDrum="True" MidiInstrument="0" Tempo="121" Length="11">
      <note Length="0.03125" Pitch="40" RiffPosition="0" Velocity="0" />
      <note Length="0.03125" Pitch="40" RiffPosition="0.03125" Velocity="0" />
      <note Length="0.03125" Pitch="40" RiffPosition="0.0625" Velocity="0" />
      <note Length="0.03125" Pitch="40" RiffPosition="0.09375" Velocity="0" />
      <note Length="0.03125" Pitch="40" RiffPosition="0.125" Velocity="0" />
      <note Length="0.03125" Pitch="40" RiffPosition="0.15625" Velocity="0" />
      <note Length="0.03125" Pitch="40" RiffPosition="0.1875" Velocity="0" />
      <note Length="0.03125" Pitch="40" RiffPosition="0.21875" Velocity="0" />
      <note Length="0.03125" Pitch="40" RiffPosition="0.25" Velocity="0" />
      <note Length="0.03125" Pitch="40" RiffPosition="0.28125" Velocity="0" />
      <note Length="0.03125" Pitch="40" RiffPosition="0.3125" Velocity="0" />
      <note Length="0.03125" Pitch="40" RiffPosition="0.34375" Velocity="0" />
      <note Length="0.03125" Pitch="40" RiffPosition="0.375" Velocity="0" />
      <note Length="0.03125" Pitch="40" RiffPosition="0.40625" Velocity="0" />
      <note Length="0.03125" Pitch="40" RiffPosition="0.4375" Velocity="0" />
      <note Length="0.03125" Pitch="40" RiffPosition="0.46875" Velocity="0" />
      <note Length="0.03125" Pitch="40" RiffPosition="0.5" Velocity="0" />
      <note Length="0.03125" Pitch="40" RiffPosition="0.53125" Velocity="0" />
      <note Length="0.03125" Pitch="40" RiffPosition="0.5625" Velocity="0" />
      <note Length="0.03125" Pitch="40" RiffPosition="0.59375" Velocity="0" />
      <note Length="0.03125" Pitch="40" RiffPosition="0.625" Velocity="0" />
      <note Length="0.03125" Pitch="40" RiffPosition="0.65625" Velocity="0" />
      <note Length="0.03125" Pitch="40" RiffPosition="0.6875" Velocity="0" />
      <note Length="0.03125" Pitch="40" RiffPosition="0.71875" Velocity="0" />
      <note Length="0.03125" Pitch="40" RiffPosition="0.75" Velocity="0" />
      <note Length="0.03125" Pitch="40" RiffPosition="0.78125" Velocity="0" />
      <note Length="0.03125" Pitch="40" RiffPosition="0.8125" Velocity="0" />
      <note Length="0.03125" Pitch="40" RiffPosition="0.84375" Velocity="0" />
      <note Length="0.03125" Pitch="40" RiffPosition="0.875" Velocity="0" />
      <note Length="0.03125" Pitch="40" RiffPosition="0.90625" Velocity="0" />
      <note Length="0.03125" Pitch="40" RiffPosition="0.9375" Velocity="0" />
      <note Length="0.03125" Pitch="40" RiffPosition="0.96875" Velocity="0" />
      <note Length="0.03125" Pitch="40" RiffPosition="1" Velocity="0" />
      <note Length="0.03125" Pitch="40" RiffPosition="1.03125" Velocity="0" />
      <note Length="0.03125" Pitch="40" RiffPosition="1.0625" Velocity="0" />
      <note Length="0.03125" Pitch="40" RiffPosition="1.09375" Velocity="0" />
      <note Length="0.03125" Pitch="40" RiffPosition="1.125" Velocity="0" />
      <note Length="0.03125" Pitch="40" RiffPosition="1.15625" Velocity="0" />
      <note Length="0.03125" Pitch="40" RiffPosition="1.1875" Velocity="0" />
      <note Length="0.03125" Pitch="40" RiffPosition="1.21875" Velocity="0" />
      <note Length="0.03125" Pitch="40" RiffPosition="1.25" Velocity="0" />
      <note Length="0.03125" Pitch="40" RiffPosition="1.28125" Velocity="0" />
      <note Length="0.03125" Pitch="40" RiffPosition="1.3125" Velocity="0" />
      <note Length="0.03125" Pitch="40" RiffPosition="1.34375" Velocity="0" />
      <note Length="0.03125" Pitch="40" RiffPosition="1.375" Velocity="0" />
      <note Length="0.03125" Pitch="40" RiffPosition="1.40625" Velocity="0" />
      <note Length="0.03125" Pitch="40" RiffPosition="1.4375" Velocity="0" />
      <note Length="0.03125" Pitch="40" RiffPosition="1.46875" Velocity="0" />
      <note Length="0.03125" Pitch="40" RiffPosition="1.5" Velocity="0" />
      <note Length="0.03125" Pitch="40" RiffPosition="1.53125" Velocity="0" />
      <note Length="0.03125" Pitch="40" RiffPosition="1.5625" Velocity="0" />
      <note Length="0.03125" Pitch="40" RiffPosition="1.59375" Velocity="0" />
      <note Length="0.03125" Pitch="40" RiffPosition="1.625" Velocity="0" />
      <note Length="0.03125" Pitch="40" RiffPosition="1.65625" Velocity="0" />
      <note Length="0.03125" Pitch="40" RiffPosition="1.6875" Velocity="0" />
      <note Length="0.03125" Pitch="40" RiffPosition="1.71875" Velocity="0" />
      <note Length="0.03125" Pitch="40" RiffPosition="1.75" Velocity="0" />
      <note Length="0.03125" Pitch="40" RiffPosition="1.78125" Velocity="0" />
      <note Length="0.03125" Pitch="40" RiffPosition="1.8125" Velocity="0" />
      <note Length="0.03125" Pitch="40" RiffPosition="1.84375" Velocity="0" />
      <note Length="0.03125" Pitch="40" RiffPosition="1.875" Velocity="0" />
      <note Length="0.03125" Pitch="40" RiffPosition="1.90625" Velocity="0" />
      <note Length="0.03125" Pitch="40" RiffPosition="1.9375" Velocity="0" />
      <note Length="0.03125" Pitch="40" RiffPosition="1.96875" Velocity="0" />
      <note Length="0.03125" Pitch="40" RiffPosition="2" Velocity="0" />
      <note Length="0.03125" Pitch="40" RiffPosition="2.03125" Velocity="0" />
      <note Length="0.03125" Pitch="40" RiffPosition="2.0625" Velocity="0" />
      <note Length="0.03125" Pitch="40" RiffPosition="2.09375" Velocity="0" />
      <note Length="0.03125" Pitch="40" RiffPosition="2.125" Velocity="0" />
      <note Length="0.03125" Pitch="40" RiffPosition="2.15625" Velocity="0" />
      <note Length="0.03125" Pitch="40" RiffPosition="2.1875" Velocity="0" />
      <note Length="0.03125" Pitch="40" RiffPosition="2.21875" Velocity="0" />
      <note Length="0.03125" Pitch="40" RiffPosition="2.25" Velocity="0" />
      <note Length="0.03125" Pitch="40" RiffPosition="2.28125" Velocity="0" />
      <note Length="0.03125" Pitch="40" RiffPosition="2.3125" Velocity="0" />
      <note Length="0.03125" Pitch="40" RiffPosition="2.34375" Velocity="0" />
      <note Length="0.03125" Pitch="40" RiffPosition="2.375" Velocity="0" />
      <note Length="0.03125" Pitch="40" RiffPosition="2.40625" Velocity="0" />
      <note Length="0.03125" Pitch="40" RiffPosition="2.4375" Velocity="0" />
      <note Length="0.03125" Pitch="40" RiffPosition="2.46875" Velocity="0" />
      <note Length="0.03125" Pitch="40" RiffPosition="2.5" Velocity="0" />
      <note Length="0.03125" Pitch="40" RiffPosition="2.53125" Velocity="0" />
      <note Length="0.03125" Pitch="40" RiffPosition="2.5625" Velocity="0" />
      <note Length="0.03125" Pitch="40" RiffPosition="2.59375" Velocity="0" />
      <note Length="0.03125" Pitch="40" RiffPosition="2.625" Velocity="0" />
      <note Length="0.03125" Pitch="40" RiffPosition="2.65625" Velocity="0" />
      <note Length="0.03125" Pitch="40" RiffPosition="2.6875" Velocity="0" />
      <note Length="0.03125" Pitch="40" RiffPosition="2.71875" Velocity="0" />
      <note Length="0.03125" Pitch="40" RiffPosition="2.75" Velocity="0" />
      <note Length="0.03125" Pitch="40" RiffPosition="2.78125" Velocity="0" />
      <note Length="0.03125" Pitch="40" RiffPosition="2.8125" Velocity="0" />
      <note Length="0.03125" Pitch="40" RiffPosition="2.84375" Velocity="0" />
      <note Length="0.03125" Pitch="40" RiffPosition="2.875" Velocity="0" />
      <note Length="0.03125" Pitch="40" RiffPosition="2.90625" Velocity="0" />
      <note Length="0.03125" Pitch="40" RiffPosition="2.9375" Velocity="0" />
      <note Length="0.03125" Pitch="40" RiffPosition="2.96875" Velocity="0" />
      <note Length="0.03125" Pitch="40" RiffPosition="3" Velocity="0" />
      <note Length="0.03125" Pitch="40" RiffPosition="3.03125" Velocity="105" />
      <note Length="0.03125" Pitch="40" RiffPosition="3.0625" Velocity="0" />
      <note Length="0.03125" Pitch="40" RiffPosition="3.09375" Velocity="105" />
      <note Length="0.03125" Pitch="40" RiffPosition="3.125" Velocity="0" />
      <note Length="0.03125" Pitch="40" RiffPosition="3.15625" Velocity="105" />
      <note Length="0.03125" Pitch="40" RiffPosition="3.1875" Velocity="0" />
      <note Length="0.03125" Pitch="40" RiffPosition="3.21875" Velocity="105" />
      <note Length="0.03125" Pitch="40" RiffPosition="3.25" Velocity="0" />
      <note Length="0.03125" Pitch="40" RiffPosition="3.28125" Velocity="105" />
      <note Length="0.03125" Pitch="40" RiffPosition="3.3125" Velocity="0" />
      <note Length="0.03125" Pitch="40" RiffPosition="3.34375" Velocity="105" />
      <note Length="0.03125" Pitch="40" RiffPosition="3.375" Velocity="0" />
      <note Length="0.03125" Pitch="40" RiffPosition="3.40625" Velocity="105" />
      <note Length="0.03125" Pitch="40" RiffPosition="3.4375" Velocity="0" />
      <note Length="0.03125" Pitch="40" RiffPosition="3.46875" Velocity="105" />
      <note Length="0.03125" Pitch="40" RiffPosition="3.5" Velocity="0" />
      <note Length="0.03125" Pitch="40" RiffPosition="3.53125" Velocity="105" />
      <note Length="0.03125" Pitch="40" RiffPosition="3.5625" Velocity="0" />
      <note Length="0.03125" Pitch="40" RiffPosition="3.59375" Velocity="105" />
      <note Length="0.03125" Pitch="40" RiffPosition="3.625" Velocity="0" />
      <note Length="0.03125" Pitch="40" RiffPosition="3.65625" Velocity="105" />
      <note Length="0.03125" Pitch="40" RiffPosition="3.6875" Velocity="0" />
      <note Length="0.03125" Pitch="40" RiffPosition="3.71875" Velocity="105" />
      <note Length="0.03125" Pitch="40" RiffPosition="3.75" Velocity="0" />
      <note Length="0.03125" Pitch="40" RiffPosition="3.78125" Velocity="105" />
      <note Length="0.03125" Pitch="40" RiffPosition="3.8125" Velocity="0" />
      <note Length="0.03125" Pitch="40" RiffPosition="3.84375" Velocity="105" />
      <note Length="0.03125" Pitch="40" RiffPosition="3.875" Velocity="0" />
      <note Length="0.03125" Pitch="40" RiffPosition="3.90625" Velocity="105" />
      <note Length="0.03125" Pitch="40" RiffPosition="3.9375" Velocity="0" />
      <note Length="0.03125" Pitch="40" RiffPosition="3.96875" Velocity="105" />
      <note Length="0.03125" Pitch="40" RiffPosition="4" Velocity="0" />
      <note Length="0.03125" Pitch="40" RiffPosition="4.03125" Velocity="105" />
      <note Length="0.03125" Pitch="40" RiffPosition="4.0625" Velocity="0" />
      <note Length="0.03125" Pitch="40" RiffPosition="4.09375" Velocity="105" />
      <note Length="0.03125" Pitch="40" RiffPosition="4.125" Velocity="0" />
      <note Length="0.03125" Pitch="40" RiffPosition="4.15625" Velocity="105" />
      <note Length="0.03125" Pitch="40" RiffPosition="4.1875" Velocity="0" />
      <note Length="0.03125" Pitch="40" RiffPosition="4.21875" Velocity="105" />
      <note Length="0.03125" Pitch="40" RiffPosition="4.25" Velocity="0" />
      <note Length="0.03125" Pitch="40" RiffPosition="4.28125" Velocity="105" />
      <note Length="0.03125" Pitch="40" RiffPosition="4.3125" Velocity="0" />
      <note Length="0.03125" Pitch="40" RiffPosition="4.34375" Velocity="105" />
      <note Length="0.03125" Pitch="40" RiffPosition="4.375" Velocity="0" />
      <note Length="0.03125" Pitch="40" RiffPosition="4.40625" Velocity="105" />
      <note Length="0.03125" Pitch="40" RiffPosition="4.4375" Velocity="0" />
      <note Length="0.03125" Pitch="40" RiffPosition="4.46875" Velocity="105" />
      <note Length="0.03125" Pitch="40" RiffPosition="4.5" Velocity="0" />
      <note Length="0.03125" Pitch="40" RiffPosition="4.53125" Velocity="105" />
      <note Length="0.03125" Pitch="40" RiffPosition="4.5625" Velocity="0" />
      <note Length="0.03125" Pitch="40" RiffPosition="4.59375" Velocity="105" />
      <note Length="0.03125" Pitch="40" RiffPosition="4.625" Velocity="0" />
      <note Length="0.03125" Pitch="40" RiffPosition="4.65625" Velocity="105" />
      <note Length="0.03125" Pitch="40" RiffPosition="4.6875" Velocity="0" />
      <note Length="0.03125" Pitch="40" RiffPosition="4.71875" Velocity="105" />
      <note Length="0.03125" Pitch="40" RiffPosition="4.75" Velocity="0" />
      <note Length="0.03125" Pitch="40" RiffPosition="4.78125" Velocity="105" />
      <note Length="0.03125" Pitch="40" RiffPosition="4.8125" Velocity="0" />
      <note Length="0.03125" Pitch="40" RiffPosition="4.84375" Velocity="105" />
      <note Length="0.03125" Pitch="40" RiffPosition="4.875" Velocity="0" />
      <note Length="0.03125" Pitch="40" RiffPosition="4.90625" Velocity="105" />
      <note Length="0.03125" Pitch="40" RiffPosition="4.9375" Velocity="0" />
      <note Length="0.03125" Pitch="40" RiffPosition="4.96875" Velocity="105" />
      <note Length="0.03125" Pitch="40" RiffPosition="5" Velocity="0" />
      <note Length="0.03125" Pitch="40" RiffPosition="5.03125" Velocity="105" />
      <note Length="0.03125" Pitch="40" RiffPosition="5.0625" Velocity="0" />
      <note Length="0.03125" Pitch="40" RiffPosition="5.09375" Velocity="105" />
      <note Length="0.03125" Pitch="40" RiffPosition="5.125" Velocity="0" />
      <note Length="0.03125" Pitch="40" RiffPosition="5.15625" Velocity="105" />
      <note Length="0.03125" Pitch="40" RiffPosition="5.1875" Velocity="0" />
      <note Length="0.03125" Pitch="40" RiffPosition="5.21875" Velocity="105" />
      <note Length="0.03125" Pitch="40" RiffPosition="5.25" Velocity="0" />
      <note Length="0.03125" Pitch="40" RiffPosition="5.28125" Velocity="105" />
      <note Length="0.03125" Pitch="40" RiffPosition="5.3125" Velocity="0" />
      <note Length="0.03125" Pitch="40" RiffPosition="5.34375" Velocity="105" />
      <note Length="0.03125" Pitch="40" RiffPosition="5.375" Velocity="0" />
      <note Length="0.03125" Pitch="40" RiffPosition="5.40625" Velocity="105" />
      <note Length="0.03125" Pitch="40" RiffPosition="5.4375" Velocity="0" />
      <note Length="0.03125" Pitch="40" RiffPosition="5.46875" Velocity="105" />
      <note Length="0.03125" Pitch="40" RiffPosition="5.5" Velocity="0" />
      <note Length="0.03125" Pitch="40" RiffPosition="5.53125" Velocity="105" />
      <note Length="0.03125" Pitch="40" RiffPosition="5.5625" Velocity="0" />
      <note Length="0.03125" Pitch="40" RiffPosition="5.59375" Velocity="105" />
      <note Length="0.03125" Pitch="40" RiffPosition="5.625" Velocity="0" />
      <note Length="0.03125" Pitch="40" RiffPosition="5.65625" Velocity="105" />
      <note Length="0.03125" Pitch="40" RiffPosition="5.6875" Velocity="0" />
      <note Length="0.03125" Pitch="40" RiffPosition="5.71875" Velocity="105" />
      <note Length="0.03125" Pitch="40" RiffPosition="5.75" Velocity="0" />
      <note Length="0.03125" Pitch="40" RiffPosition="5.78125" Velocity="105" />
      <note Length="0.03125" Pitch="40" RiffPosition="5.8125" Velocity="0" />
      <note Length="0.03125" Pitch="40" RiffPosition="5.84375" Velocity="105" />
      <note Length="0.03125" Pitch="40" RiffPosition="5.875" Velocity="0" />
      <note Length="0.03125" Pitch="40" RiffPosition="5.90625" Velocity="105" />
      <note Length="0.03125" Pitch="40" RiffPosition="5.9375" Velocity="0" />
      <note Length="0.03125" Pitch="40" RiffPosition="5.96875" Velocity="105" />
      <note Length="0.03125" Pitch="40" RiffPosition="6" Velocity="0" />
      <note Length="0.03125" Pitch="40" RiffPosition="6.03125" Velocity="0" />
      <note Length="0.03125" Pitch="40" RiffPosition="6.0625" Velocity="0" />
      <note Length="0.03125" Pitch="40" RiffPosition="6.09375" Velocity="0" />
      <note Length="0.03125" Pitch="40" RiffPosition="6.125" Velocity="0" />
      <note Length="0.03125" Pitch="40" RiffPosition="6.15625" Velocity="0" />
      <note Length="0.03125" Pitch="40" RiffPosition="6.1875" Velocity="0" />
      <note Length="0.03125" Pitch="40" RiffPosition="6.21875" Velocity="0" />
      <note Length="0.03125" Pitch="40" RiffPosition="6.25" Velocity="0" />
      <note Length="0.03125" Pitch="40" RiffPosition="6.28125" Velocity="0" />
      <note Length="0.03125" Pitch="40" RiffPosition="6.3125" Velocity="0" />
      <note Length="0.03125" Pitch="40" RiffPosition="6.34375" Velocity="0" />
      <note Length="0.03125" Pitch="40" RiffPosition="6.375" Velocity="0" />
      <note Length="0.03125" Pitch="40" RiffPosition="6.40625" Velocity="0" />
      <note Length="0.03125" Pitch="40" RiffPosition="6.4375" Velocity="0" />
      <note Length="0.03125" Pitch="40" RiffPosition="6.46875" Velocity="0" />
      <note Length="0.03125" Pitch="40" RiffPosition="6.5" Velocity="0" />
      <note Length="0.03125" Pitch="40" RiffPosition="6.53125" Velocity="0" />
      <note Length="0.03125" Pitch="40" RiffPosition="6.5625" Velocity="0" />
      <note Length="0.03125" Pitch="40" RiffPosition="6.59375" Velocity="0" />
      <note Length="0.03125" Pitch="40" RiffPosition="6.625" Velocity="0" />
      <note Length="0.03125" Pitch="40" RiffPosition="6.65625" Velocity="0" />
      <note Length="0.03125" Pitch="40" RiffPosition="6.6875" Velocity="0" />
      <note Length="0.03125" Pitch="40" RiffPosition="6.71875" Velocity="0" />
      <note Length="0.03125" Pitch="40" RiffPosition="6.75" Velocity="0" />
      <note Length="0.03125" Pitch="40" RiffPosition="6.78125" Velocity="0" />
      <note Length="0.03125" Pitch="40" RiffPosition="6.8125" Velocity="0" />
      <note Length="0.03125" Pitch="40" RiffPosition="6.84375" Velocity="0" />
      <note Length="0.03125" Pitch="40" RiffPosition="6.875" Velocity="0" />
      <note Length="0.03125" Pitch="40" RiffPosition="6.90625" Velocity="0" />
      <note Length="0.03125" Pitch="40" RiffPosition="6.9375" Velocity="0" />
      <note Length="0.03125" Pitch="40" RiffPosition="6.96875" Velocity="0" />
      <note Length="0.03125" Pitch="40" RiffPosition="7" Velocity="0" />
      <note Length="0.03125" Pitch="40" RiffPosition="7.03125" Velocity="105" />
      <note Length="0.03125" Pitch="40" RiffPosition="7.0625" Velocity="0" />
      <note Length="0.03125" Pitch="40" RiffPosition="7.09375" Velocity="105" />
      <note Length="0.03125" Pitch="40" RiffPosition="7.125" Velocity="0" />
      <note Length="0.03125" Pitch="40" RiffPosition="7.15625" Velocity="105" />
      <note Length="0.03125" Pitch="40" RiffPosition="7.1875" Velocity="0" />
      <note Length="0.03125" Pitch="40" RiffPosition="7.21875" Velocity="105" />
      <note Length="0.03125" Pitch="40" RiffPosition="7.25" Velocity="0" />
      <note Length="0.03125" Pitch="40" RiffPosition="7.28125" Velocity="105" />
      <note Length="0.03125" Pitch="40" RiffPosition="7.3125" Velocity="0" />
      <note Length="0.03125" Pitch="40" RiffPosition="7.34375" Velocity="105" />
      <note Length="0.03125" Pitch="40" RiffPosition="7.375" Velocity="0" />
      <note Length="0.03125" Pitch="40" RiffPosition="7.40625" Velocity="105" />
      <note Length="0.03125" Pitch="40" RiffPosition="7.4375" Velocity="0" />
      <note Length="0.03125" Pitch="40" RiffPosition="7.46875" Velocity="105" />
      <note Length="0.03125" Pitch="40" RiffPosition="7.5" Velocity="0" />
      <note Length="0.03125" Pitch="40" RiffPosition="7.53125" Velocity="105" />
      <note Length="0.03125" Pitch="40" RiffPosition="7.5625" Velocity="0" />
      <note Length="0.03125" Pitch="40" RiffPosition="7.59375" Velocity="105" />
      <note Length="0.03125" Pitch="40" RiffPosition="7.625" Velocity="0" />
      <note Length="0.03125" Pitch="40" RiffPosition="7.65625" Velocity="105" />
      <note Length="0.03125" Pitch="40" RiffPosition="7.6875" Velocity="0" />
      <note Length="0.03125" Pitch="40" RiffPosition="7.71875" Velocity="105" />
      <note Length="0.03125" Pitch="40" RiffPosition="7.75" Velocity="0" />
      <note Length="0.03125" Pitch="40" RiffPosition="7.78125" Velocity="105" />
      <note Length="0.03125" Pitch="40" RiffPosition="7.8125" Velocity="0" />
      <note Length="0.03125" Pitch="40" RiffPosition="7.84375" Velocity="105" />
      <note Length="0.03125" Pitch="40" RiffPosition="7.875" Velocity="0" />
      <note Length="0.03125" Pitch="40" RiffPosition="7.90625" Velocity="105" />
      <note Length="0.03125" Pitch="40" RiffPosition="7.9375" Velocity="0" />
      <note Length="0.03125" Pitch="40" RiffPosition="7.96875" Velocity="105" />
      <note Length="0.03125" Pitch="40" RiffPosition="8" Velocity="0" />
      <note Length="0.03125" Pitch="40" RiffPosition="8.03125" Velocity="105" />
      <note Length="0.03125" Pitch="40" RiffPosition="8.0625" Velocity="0" />
      <note Length="0.03125" Pitch="40" RiffPosition="8.09375" Velocity="105" />
      <note Length="0.03125" Pitch="40" RiffPosition="8.125" Velocity="0" />
      <note Length="0.03125" Pitch="40" RiffPosition="8.15625" Velocity="105" />
      <note Length="0.03125" Pitch="40" RiffPosition="8.1875" Velocity="0" />
      <note Length="0.03125" Pitch="40" RiffPosition="8.21875" Velocity="105" />
      <note Length="0.03125" Pitch="40" RiffPosition="8.25" Velocity="0" />
      <note Length="0.03125" Pitch="40" RiffPosition="8.28125" Velocity="105" />
      <note Length="0.03125" Pitch="40" RiffPosition="8.3125" Velocity="0" />
      <note Length="0.03125" Pitch="40" RiffPosition="8.34375" Velocity="105" />
      <note Length="0.03125" Pitch="40" RiffPosition="8.375" Velocity="0" />
      <note Length="0.03125" Pitch="40" RiffPosition="8.40625" Velocity="105" />
      <note Length="0.03125" Pitch="40" RiffPosition="8.4375" Velocity="0" />
      <note Length="0.03125" Pitch="40" RiffPosition="8.46875" Velocity="105" />
      <note Length="0.03125" Pitch="40" RiffPosition="8.5" Velocity="0" />
      <note Length="0.03125" Pitch="40" RiffPosition="8.53125" Velocity="105" />
      <note Length="0.03125" Pitch="40" RiffPosition="8.5625" Velocity="0" />
      <note Length="0.03125" Pitch="40" RiffPosition="8.59375" Velocity="105" />
      <note Length="0.03125" Pitch="40" RiffPosition="8.625" Velocity="0" />
      <note Length="0.03125" Pitch="40" RiffPosition="8.65625" Velocity="105" />
      <note Length="0.03125" Pitch="40" RiffPosition="8.6875" Velocity="0" />
      <note Length="0.03125" Pitch="40" RiffPosition="8.71875" Velocity="105" />
      <note Length="0.03125" Pitch="40" RiffPosition="8.75" Velocity="0" />
      <note Length="0.03125" Pitch="40" RiffPosition="8.78125" Velocity="105" />
      <note Length="0.03125" Pitch="40" RiffPosition="8.8125" Velocity="0" />
      <note Length="0.03125" Pitch="40" RiffPosition="8.84375" Velocity="105" />
      <note Length="0.03125" Pitch="40" RiffPosition="8.875" Velocity="0" />
      <note Length="0.03125" Pitch="40" RiffPosition="8.90625" Velocity="105" />
      <note Length="0.03125" Pitch="40" RiffPosition="8.9375" Velocity="0" />
      <note Length="0.03125" Pitch="40" RiffPosition="8.96875" Velocity="105" />
      <note Length="0.03125" Pitch="40" RiffPosition="9" Velocity="0" />
      <note Length="0.03125" Pitch="40" RiffPosition="9.03125" Velocity="0" />
      <note Length="0.03125" Pitch="40" RiffPosition="9.0625" Velocity="0" />
      <note Length="0.03125" Pitch="40" RiffPosition="9.09375" Velocity="0" />
      <note Length="0.03125" Pitch="40" RiffPosition="9.125" Velocity="0" />
      <note Length="0.03125" Pitch="40" RiffPosition="9.15625" Velocity="0" />
      <note Length="0.03125" Pitch="40" RiffPosition="9.1875" Velocity="0" />
      <note Length="0.03125" Pitch="40" RiffPosition="9.21875" Velocity="0" />
      <note Length="0.03125" Pitch="40" RiffPosition="9.25" Velocity="0" />
      <note Length="0.03125" Pitch="40" RiffPosition="9.28125" Velocity="0" />
      <note Length="0.03125" Pitch="40" RiffPosition="9.3125" Velocity="0" />
      <note Length="0.03125" Pitch="40" RiffPosition="9.34375" Velocity="0" />
      <note Length="0.03125" Pitch="40" RiffPosition="9.375" Velocity="0" />
      <note Length="0.03125" Pitch="40" RiffPosition="9.40625" Velocity="0" />
      <note Length="0.03125" Pitch="40" RiffPosition="9.4375" Velocity="0" />
      <note Length="0.03125" Pitch="40" RiffPosition="9.46875" Velocity="0" />
      <note Length="0.03125" Pitch="40" RiffPosition="9.5" Velocity="0" />
      <note Length="0.03125" Pitch="40" RiffPosition="9.53125" Velocity="0" />
      <note Length="0.03125" Pitch="40" RiffPosition="9.5625" Velocity="0" />
      <note Length="0.03125" Pitch="40" RiffPosition="9.59375" Velocity="0" />
      <note Length="0.03125" Pitch="40" RiffPosition="9.625" Velocity="0" />
      <note Length="0.03125" Pitch="40" RiffPosition="9.65625" Velocity="0" />
      <note Length="0.03125" Pitch="40" RiffPosition="9.6875" Velocity="0" />
      <note Length="0.03125" Pitch="40" RiffPosition="9.71875" Velocity="0" />
      <note Length="0.03125" Pitch="40" RiffPosition="9.75" Velocity="0" />
      <note Length="0.03125" Pitch="40" RiffPosition="9.78125" Velocity="0" />
      <note Length="0.03125" Pitch="40" RiffPosition="9.8125" Velocity="0" />
      <note Length="0.03125" Pitch="40" RiffPosition="9.84375" Velocity="0" />
      <note Length="0.03125" Pitch="40" RiffPosition="9.875" Velocity="0" />
      <note Length="0.03125" Pitch="40" RiffPosition="9.90625" Velocity="0" />
      <note Length="0.03125" Pitch="40" RiffPosition="9.9375" Velocity="0" />
      <note Length="0.03125" Pitch="40" RiffPosition="9.96875" Velocity="0" />
      <note Length="0.03125" Pitch="40" RiffPosition="10" Velocity="0" />
      <note Length="0.03125" Pitch="40" RiffPosition="10.03125" Velocity="0" />
      <note Length="0.03125" Pitch="40" RiffPosition="10.0625" Velocity="0" />
      <note Length="0.03125" Pitch="40" RiffPosition="10.09375" Velocity="0" />
      <note Length="0.03125" Pitch="40" RiffPosition="10.125" Velocity="0" />
      <note Length="0.03125" Pitch="40" RiffPosition="10.15625" Velocity="0" />
      <note Length="0.03125" Pitch="40" RiffPosition="10.1875" Velocity="0" />
      <note Length="0.03125" Pitch="40" RiffPosition="10.21875" Velocity="0" />
      <note Length="0.03125" Pitch="40" RiffPosition="10.25" Velocity="0" />
      <note Length="0.03125" Pitch="40" RiffPosition="10.28125" Velocity="0" />
      <note Length="0.03125" Pitch="40" RiffPosition="10.3125" Velocity="0" />
      <note Length="0.03125" Pitch="40" RiffPosition="10.34375" Velocity="0" />
      <note Length="0.03125" Pitch="40" RiffPosition="10.375" Velocity="0" />
      <note Length="0.03125" Pitch="40" RiffPosition="10.40625" Velocity="0" />
      <note Length="0.03125" Pitch="40" RiffPosition="10.4375" Velocity="0" />
      <note Length="0.03125" Pitch="40" RiffPosition="10.46875" Velocity="0" />
      <note Length="0.03125" Pitch="40" RiffPosition="10.5" Velocity="0" />
      <note Length="0.03125" Pitch="40" RiffPosition="10.53125" Velocity="0" />
      <note Length="0.03125" Pitch="40" RiffPosition="10.5625" Velocity="0" />
      <note Length="0.03125" Pitch="40" RiffPosition="10.59375" Velocity="0" />
      <note Length="0.03125" Pitch="40" RiffPosition="10.625" Velocity="0" />
      <note Length="0.03125" Pitch="40" RiffPosition="10.65625" Velocity="0" />
      <note Length="0.03125" Pitch="40" RiffPosition="10.6875" Velocity="0" />
      <note Length="0.03125" Pitch="40" RiffPosition="10.71875" Velocity="0" />
      <note Length="0.03125" Pitch="40" RiffPosition="10.75" Velocity="0" />
      <note Length="0.03125" Pitch="40" RiffPosition="10.78125" Velocity="0" />
      <note Length="0.03125" Pitch="40" RiffPosition="10.8125" Velocity="0" />
      <note Length="0.03125" Pitch="40" RiffPosition="10.84375" Velocity="0" />
      <note Length="0.03125" Pitch="40" RiffPosition="10.875" Velocity="0" />
      <note Length="0.03125" Pitch="40" RiffPosition="10.90625" Velocity="0" />
      <note Length="0.03125" Pitch="40" RiffPosition="10.9375" Velocity="0" />
      <note Length="0.03125" Pitch="40" RiffPosition="10.96875" Velocity="0" />
    </riff>
    <riff IsDrum="False" MidiInstrument="14" Tempo="106" Length="11">
      <note Length="0.375" Pitch="65" RiffPosition="0" Velocity="0" />
      <note Length="0.375" Pitch="48" RiffPosition="0.375" Velocity="0" />
      <note Length="0.0625" Pitch="68" RiffPosition="0.75" Velocity="0" />
      <note Length="0.1875" Pitch="46" RiffPosition="0.8125" Velocity="0" />
      <note Length="0.333333333333333" Pitch="66" RiffPosition="1" Velocity="83" />
      <note Length="0.333333333333333" Pitch="41" RiffPosition="1.33333333333333" Velocity="113" />
      <note Length="0.333333333333333" Pitch="63" RiffPosition="1.66666666666667" Velocity="7" />
      <note Length="0.09375" Pitch="63" RiffPosition="2" Velocity="68" />
      <note Length="0.09375" Pitch="72" RiffPosition="2.09375" Velocity="35" />
      <note Length="0.0625" Pitch="68" RiffPosition="2.1875" Velocity="64" />
      <note Length="0.09375" Pitch="70" RiffPosition="2.25" Velocity="28" />
      <note Length="0.03125" Pitch="49" RiffPosition="2.34375" Velocity="13" />
      <note Length="0.0625" Pitch="55" RiffPosition="2.375" Velocity="41" />
      <note Length="0.0625" Pitch="41" RiffPosition="2.4375" Velocity="29" />
      <note Length="0.0625" Pitch="53" RiffPosition="2.5" Velocity="109" />
      <note Length="0.0625" Pitch="77" RiffPosition="2.5625" Velocity="37" />
      <note Length="0.125" Pitch="82" RiffPosition="2.625" Velocity="12" />
      <note Length="0.0625" Pitch="68" RiffPosition="2.75" Velocity="37" />
      <note Length="0.0625" Pitch="46" RiffPosition="2.8125" Velocity="108" />
      <note Length="0.0625" Pitch="41" RiffPosition="2.875" Velocity="33" />
      <note Length="0.0625" Pitch="41" RiffPosition="2.9375" Velocity="22" />
      <note Length="0.333333333333333" Pitch="66" RiffPosition="3" Velocity="104" />
      <note Length="0.166666666666667" Pitch="39" RiffPosition="3.33333333333333" Velocity="93" />
      <note Length="0.166666666666667" Pitch="63" RiffPosition="3.5" Velocity="96" />
      <note Length="0.0833333333333333" Pitch="63" RiffPosition="3.66666666666667" Velocity="27" />
      <note Length="0.0833333333333333" Pitch="70" RiffPosition="3.75" Velocity="48" />
      <note Length="0.166666666666667" Pitch="46" RiffPosition="3.83333333333333" Velocity="98" />
      <note Length="0.375" Pitch="53" RiffPosition="4" Velocity="88" />
      <note Length="0.375" Pitch="41" RiffPosition="4.375" Velocity="15" />
      <note Length="0.0625" Pitch="67" RiffPosition="4.75" Velocity="17" />
      <note Length="0.1875" Pitch="41" RiffPosition="4.8125" Velocity="87" />
      <note Length="0.333333333333333" Pitch="65" RiffPosition="5" Velocity="77" />
      <note Length="0.333333333333333" Pitch="46" RiffPosition="5.33333333333333" Velocity="119" />
      <note Length="0.333333333333333" Pitch="80" RiffPosition="5.66666666666667" Velocity="0" />
      <note Length="0.09375" Pitch="51" RiffPosition="6" Velocity="62" />
      <note Length="0.09375" Pitch="77" RiffPosition="6.09375" Velocity="41" />
      <note Length="0.0625" Pitch="65" RiffPosition="6.1875" Velocity="71" />
      <note Length="0.09375" Pitch="68" RiffPosition="6.25" Velocity="34" />
      <note Length="0.03125" Pitch="48" RiffPosition="6.34375" Velocity="19" />
      <note Length="0.0625" Pitch="41" RiffPosition="6.375" Velocity="35" />
      <note Length="0.0625" Pitch="41" RiffPosition="6.4375" Velocity="22" />
      <note Length="0.0625" Pitch="68" RiffPosition="6.5" Velocity="103" />
      <note Length="0.0625" Pitch="65" RiffPosition="6.5625" Velocity="31" />
      <note Length="0.125" Pitch="77" RiffPosition="6.625" Velocity="6" />
      <note Length="0.0625" Pitch="65" RiffPosition="6.75" Velocity="43" />
      <note Length="0.0625" Pitch="41" RiffPosition="6.8125" Velocity="67" />
      <note Length="0.0625" Pitch="41" RiffPosition="6.875" Velocity="27" />
      <note Length="0.0625" Pitch="56" RiffPosition="6.9375" Velocity="16" />
      <note Length="0.333333333333333" Pitch="65" RiffPosition="7" Velocity="97" />
      <note Length="0.166666666666667" Pitch="46" RiffPosition="7.33333333333333" Velocity="99" />
      <note Length="0.166666666666667" Pitch="51" RiffPosition="7.5" Velocity="90" />
      <note Length="0.0833333333333333" Pitch="78" RiffPosition="7.66666666666667" Velocity="21" />
      <note Length="0.0833333333333333" Pitch="66" RiffPosition="7.75" Velocity="54" />
      <note Length="0.166666666666667" Pitch="44" RiffPosition="7.83333333333333" Velocity="104" />
      <note Length="0.375" Pitch="66" RiffPosition="8" Velocity="82" />
      <note Length="0.375" Pitch="41" RiffPosition="8.375" Velocity="9" />
      <note Length="0.0625" Pitch="72" RiffPosition="8.75" Velocity="23" />
      <note Length="0.1875" Pitch="49" RiffPosition="8.8125" Velocity="94" />
      <note Length="0.333333333333333" Pitch="51" RiffPosition="9" Velocity="71" />
      <note Length="0.333333333333333" Pitch="44" RiffPosition="9.33333333333333" Velocity="125" />
      <note Length="0.333333333333333" Pitch="78" RiffPosition="9.66666666666667" Velocity="41" />
      <note Length="0.09375" Pitch="68" RiffPosition="10" Velocity="0" />
      <note Length="0.09375" Pitch="65" RiffPosition="10.09375" Velocity="0" />
      <note Length="0.0625" Pitch="70" RiffPosition="10.1875" Velocity="0" />
      <note Length="0.09375" Pitch="65" RiffPosition="10.25" Velocity="0" />
      <note Length="0.03125" Pitch="41" RiffPosition="10.34375" Velocity="0" />
      <note Length="0.0625" Pitch="49" RiffPosition="10.375" Velocity="0" />
      <note Length="0.0625" Pitch="58" RiffPosition="10.4375" Velocity="0" />
      <note Length="0.0625" Pitch="65" RiffPosition="10.5" Velocity="0" />
      <note Length="0.0625" Pitch="65" RiffPosition="10.5625" Velocity="0" />
      <note Length="0.125" Pitch="77" RiffPosition="10.625" Velocity="0" />
      <note Length="0.0625" Pitch="70" RiffPosition="10.75" Velocity="0" />
      <note Length="0.0625" Pitch="48" RiffPosition="10.8125" Velocity="0" />
      <note Length="0.0625" Pitch="48" RiffPosition="10.875" Velocity="0" />
      <note Length="0.0624999999999982" Pitch="55" RiffPosition="10.9375" Velocity="0" />
    </riff>
    <riff IsDrum="False" MidiInstrument="14" Tempo="91" Length="11">
      <note Length="0.0833333333333333" Pitch="65" RiffPosition="0" Velocity="0" />
      <note Length="0.0833333333333333" Pitch="65" RiffPosition="0.0833333333333333" Velocity="0" />
      <note Length="0.0833333333333333" Pitch="58" RiffPosition="0.166666666666667" Velocity="0" />
      <note Length="0.0833333333333333" Pitch="65" RiffPosition="0.25" Velocity="0" />
      <note Length="0.166666666666667" Pitch="65" RiffPosition="0.333333333333333" Velocity="0" />
      <note Length="0.166666666666667" Pitch="61" RiffPosition="0.5" Velocity="0" />
      <note Length="0.0833333333333333" Pitch="60" RiffPosition="0.666666666666667" Velocity="0" />
      <note Length="0.0833333333333333" Pitch="60" RiffPosition="0.75" Velocity="0" />
      <note Length="0.0833333333333333" Pitch="68" RiffPosition="0.833333333333333" Velocity="0" />
      <note Length="0.0833333333333333" Pitch="53" RiffPosition="0.916666666666667" Velocity="0" />
      <note Length="0.0833333333333333" Pitch="63" RiffPosition="1" Velocity="83" />
      <note Length="0.0833333333333333" Pitch="51" RiffPosition="1.08333333333333" Velocity="13" />
      <note Length="0.0833333333333333" Pitch="53" RiffPosition="1.16666666666667" Velocity="43" />
      <note Length="0.25" Pitch="63" RiffPosition="1.25" Velocity="4" />
      <note Length="0.125" Pitch="51" RiffPosition="1.5" Velocity="19" />
      <note Length="0.125" Pitch="63" RiffPosition="1.625" Velocity="94" />
      <note Length="0.125" Pitch="59" RiffPosition="1.75" Velocity="2" />
      <note Length="0.125" Pitch="63" RiffPosition="1.875" Velocity="75" />
      <note Length="0.0625" Pitch="51" RiffPosition="2" Velocity="100" />
      <note Length="0.0625" Pitch="58" RiffPosition="2.0625" Velocity="7" />
      <note Length="0.125" Pitch="53" RiffPosition="2.125" Velocity="35" />
      <note Length="0.09375" Pitch="77" RiffPosition="2.25" Velocity="14" />
      <note Length="0.03125" Pitch="77" RiffPosition="2.34375" Velocity="48" />
      <note Length="0.0625" Pitch="60" RiffPosition="2.375" Velocity="5" />
      <note Length="0.0625" Pitch="55" RiffPosition="2.4375" Velocity="55" />
      <note Length="0.375" Pitch="58" RiffPosition="2.5" Velocity="1" />
      <note Length="0.375" Pitch="53" RiffPosition="2.875" Velocity="58" />
      <note Length="0.75" Pitch="75" RiffPosition="3.25" Velocity="32" />
      <note Length="0.0833333333333333" Pitch="65" RiffPosition="4" Velocity="82" />
      <note Length="0.0833333333333333" Pitch="65" RiffPosition="4.08333333333333" Velocity="39" />
      <note Length="0.0833333333333333" Pitch="55" RiffPosition="4.16666666666667" Velocity="44" />
      <note Length="0.0833333333333333" Pitch="65" RiffPosition="4.25" Velocity="49" />
      <note Length="0.166666666666667" Pitch="65" RiffPosition="4.33333333333333" Velocity="19" />
      <note Length="0.166666666666667" Pitch="61" RiffPosition="4.5" Velocity="38" />
      <note Length="0.0833333333333333" Pitch="60" RiffPosition="4.66666666666667" Velocity="75" />
      <note Length="0.0833333333333333" Pitch="60" RiffPosition="4.75" Velocity="3" />
      <note Length="0.0833333333333333" Pitch="68" RiffPosition="4.83333333333333" Velocity="100" />
      <note Length="0.0833333333333333" Pitch="53" RiffPosition="4.91666666666667" Velocity="50" />
      <note Length="0.0833333333333333" Pitch="67" RiffPosition="5" Velocity="99" />
      <note Length="0.0833333333333333" Pitch="51" RiffPosition="5.08333333333333" Velocity="3" />
      <note Length="0.0833333333333333" Pitch="53" RiffPosition="5.16666666666666" Velocity="26" />
      <note Length="0.25" Pitch="63" RiffPosition="5.25" Velocity="13" />
      <note Length="0.125" Pitch="56" RiffPosition="5.5" Velocity="20" />
      <note Length="0.125" Pitch="63" RiffPosition="5.625" Velocity="92" />
      <note Length="0.125" Pitch="59" RiffPosition="5.75" Velocity="15" />
      <note Length="0.125" Pitch="63" RiffPosition="5.875" Velocity="59" />
      <note Length="0.0625" Pitch="51" RiffPosition="6" Velocity="117" />
      <note Length="0.0625" Pitch="60" RiffPosition="6.0625" Velocity="5" />
      <note Length="0.125" Pitch="53" RiffPosition="6.125" Velocity="52" />
      <note Length="0.09375" Pitch="77" RiffPosition="6.25" Velocity="13" />
      <note Length="0.03125" Pitch="77" RiffPosition="6.34375" Velocity="7" />
      <note Length="0.0625" Pitch="56" RiffPosition="6.375" Velocity="4" />
      <note Length="0.0625" Pitch="55" RiffPosition="6.4375" Velocity="38" />
      <note Length="0.375" Pitch="60" RiffPosition="6.5" Velocity="56" />
      <note Length="0.375" Pitch="53" RiffPosition="6.875" Velocity="41" />
      <note Length="0.75" Pitch="77" RiffPosition="7.25" Velocity="30" />
      <note Length="0.0833333333333333" Pitch="63" RiffPosition="8" Velocity="80" />
      <note Length="0.0833333333333333" Pitch="65" RiffPosition="8.08333333333333" Velocity="16" />
      <note Length="0.0833333333333333" Pitch="55" RiffPosition="8.16666666666666" Velocity="46" />
      <note Length="0.0833333333333333" Pitch="65" RiffPosition="8.25" Velocity="6" />
      <note Length="0.166666666666667" Pitch="65" RiffPosition="8.33333333333333" Velocity="18" />
      <note Length="0.166666666666667" Pitch="61" RiffPosition="8.5" Velocity="21" />
      <note Length="0.0833333333333333" Pitch="60" RiffPosition="8.66666666666666" Velocity="91" />
      <note Length="0.0833333333333333" Pitch="60" RiffPosition="8.75" Velocity="14" />
      <note Length="0.0833333333333333" Pitch="70" RiffPosition="8.83333333333333" Velocity="102" />
      <note Length="0.0833333333333333" Pitch="53" RiffPosition="8.91666666666667" Velocity="51" />
      <note Length="0.0833333333333333" Pitch="65" RiffPosition="9" Velocity="98" />
      <note Length="0.0833333333333333" Pitch="51" RiffPosition="9.08333333333333" Velocity="2" />
      <note Length="0.0833333333333333" Pitch="53" RiffPosition="9.16666666666667" Velocity="28" />
      <note Length="0.25" Pitch="63" RiffPosition="9.25" Velocity="12" />
      <note Length="0.125" Pitch="56" RiffPosition="9.5" Velocity="3" />
      <note Length="0.125" Pitch="63" RiffPosition="9.625" Velocity="109" />
      <note Length="0.125" Pitch="51" RiffPosition="9.75" Velocity="14" />
      <note Length="0.125" Pitch="63" RiffPosition="9.875" Velocity="60" />
      <note Length="0.0625" Pitch="53" RiffPosition="10" Velocity="0" />
      <note Length="0.0625" Pitch="60" RiffPosition="10.0625" Velocity="0" />
      <note Length="0.125" Pitch="53" RiffPosition="10.125" Velocity="0" />
      <note Length="0.09375" Pitch="77" RiffPosition="10.25" Velocity="0" />
      <note Length="0.03125" Pitch="77" RiffPosition="10.34375" Velocity="0" />
      <note Length="0.0625" Pitch="56" RiffPosition="10.375" Velocity="0" />
      <note Length="0.0625" Pitch="55" RiffPosition="10.4375" Velocity="0" />
      <note Length="0.375" Pitch="60" RiffPosition="10.5" Velocity="0" />
      <note Length="0.124999999999998" Pitch="53" RiffPosition="10.875" Velocity="0" />
    </riff>
    <riff IsDrum="False" MidiInstrument="94" Tempo="83" Length="11">
      <note Length="0.125" Pitch="46" RiffPosition="0" Velocity="90" />
      <note Length="0.375" Pitch="46" RiffPosition="0.125" Velocity="90" />
      <note Length="1.5" Pitch="46" RiffPosition="0.5" Velocity="90" />
      <note Length="0.5" Pitch="48" RiffPosition="2" Velocity="90" />
      <note Length="0.5" Pitch="48" RiffPosition="2.5" Velocity="90" />
      <note Length="0.5" Pitch="47" RiffPosition="3" Velocity="90" />
      <note Length="0.5" Pitch="39" RiffPosition="3.5" Velocity="90" />
      <note Length="1" Pitch="41" RiffPosition="4" Velocity="90" />
      <note Length="0.5" Pitch="53" RiffPosition="5" Velocity="90" />
      <note Length="1.5" Pitch="54" RiffPosition="5.5" Velocity="90" />
      <note Length="0.25" Pitch="58" RiffPosition="7" Velocity="90" />
      <note Length="0.25" Pitch="51" RiffPosition="7.25" Velocity="90" />
      <note Length="0.25" Pitch="51" RiffPosition="7.5" Velocity="90" />
      <note Length="0.25" Pitch="51" RiffPosition="7.75" Velocity="90" />
      <note Length="0.125" Pitch="53" RiffPosition="8" Velocity="90" />
      <note Length="0.375" Pitch="53" RiffPosition="8.125" Velocity="90" />
      <note Length="1.5" Pitch="53" RiffPosition="8.5" Velocity="90" />
      <note Length="0.5" Pitch="58" RiffPosition="10" Velocity="0" />
      <note Length="0.5" Pitch="58" RiffPosition="10.5" Velocity="0" />
    </riff>
    <riff IsDrum="False" MidiInstrument="93" Tempo="73" Length="11">
      <note Length="0.25" Pitch="53" RiffPosition="0" Velocity="90" />
      <note Length="0.25" Pitch="53" RiffPosition="0.25" Velocity="90" />
      <note Length="0.25" Pitch="53" RiffPosition="0.5" Velocity="90" />
      <note Length="0.25" Pitch="53" RiffPosition="0.75" Velocity="90" />
      <note Length="3" Pitch="27" RiffPosition="1" Velocity="90" />
      <note Length="1" Pitch="25" RiffPosition="4" Velocity="90" />
      <note Length="1" Pitch="23" RiffPosition="5" Velocity="90" />
      <note Length="0.75" Pitch="25" RiffPosition="6" Velocity="90" />
      <note Length="0.25" Pitch="25" RiffPosition="6.75" Velocity="90" />
      <note Length="0.5" Pitch="23" RiffPosition="7" Velocity="90" />
      <note Length="0.5" Pitch="23" RiffPosition="7.5" Velocity="90" />
      <note Length="0.25" Pitch="25" RiffPosition="8" Velocity="90" />
      <note Length="0.25" Pitch="25" RiffPosition="8.25" Velocity="90" />
      <note Length="0.25" Pitch="25" RiffPosition="8.5" Velocity="90" />
      <note Length="0.25" Pitch="25" RiffPosition="8.75" Velocity="90" />
      <note Length="2" Pitch="51" RiffPosition="9" Velocity="90" />
    </riff>
    <riff IsDrum="False" MidiInstrument="29" Tempo="86" Length="11">
      <note Length="0.09375" Pitch="67" RiffPosition="0" Velocity="0" />
      <note Length="0.03125" Pitch="53" RiffPosition="0.09375" Velocity="0" />
      <note Length="0.0625" Pitch="67" RiffPosition="0.125" Velocity="0" />
      <note Length="0.0625" Pitch="65" RiffPosition="0.1875" Velocity="0" />
      <note Length="0.125" Pitch="68" RiffPosition="0.25" Velocity="0" />
      <note Length="0.0234375" Pitch="58" RiffPosition="0.375" Velocity="0" />
      <note Length="0.0078125" Pitch="61" RiffPosition="0.3984375" Velocity="0" />
      <note Length="0.0234375" Pitch="61" RiffPosition="0.40625" Velocity="0" />
      <note Length="0.0078125" Pitch="53" RiffPosition="0.4296875" Velocity="0" />
      <note Length="0.0625" Pitch="53" RiffPosition="0.4375" Velocity="0" />
      <note Length="0.09375" Pitch="65" RiffPosition="0.5" Velocity="0" />
      <note Length="0.03125" Pitch="65" RiffPosition="0.59375" Velocity="0" />
      <note Length="0.0625" Pitch="53" RiffPosition="0.625" Velocity="0" />
      <note Length="0.0625" Pitch="68" RiffPosition="0.6875" Velocity="0" />
      <note Length="0.125" Pitch="65" RiffPosition="0.75" Velocity="0" />
      <note Length="0.0234375" Pitch="67" RiffPosition="0.875" Velocity="0" />
      <note Length="0.0078125" Pitch="70" RiffPosition="0.8984375" Velocity="0" />
      <note Length="0.0234375" Pitch="72" RiffPosition="0.90625" Velocity="0" />
      <note Length="0.0078125" Pitch="65" RiffPosition="0.9296875" Velocity="0" />
      <note Length="0.0625" Pitch="72" RiffPosition="0.9375" Velocity="0" />
      <note Length="0.09375" Pitch="58" RiffPosition="1" Velocity="0" />
      <note Length="0.03125" Pitch="53" RiffPosition="1.09375" Velocity="0" />
      <note Length="0.0625" Pitch="51" RiffPosition="1.125" Velocity="0" />
      <note Length="0.0625" Pitch="65" RiffPosition="1.1875" Velocity="0" />
      <note Length="0.125" Pitch="65" RiffPosition="1.25" Velocity="0" />
      <note Length="0.0234375" Pitch="51" RiffPosition="1.375" Velocity="0" />
      <note Length="0.0078125" Pitch="65" RiffPosition="1.3984375" Velocity="0" />
      <note Length="0.0234375" Pitch="66" RiffPosition="1.40625" Velocity="0" />
      <note Length="0.0078125" Pitch="68" RiffPosition="1.4296875" Velocity="0" />
      <note Length="0.0625" Pitch="68" RiffPosition="1.4375" Velocity="0" />
      <note Length="0.09375" Pitch="70" RiffPosition="1.5" Velocity="0" />
      <note Length="0.03125" Pitch="51" RiffPosition="1.59375" Velocity="0" />
      <note Length="0.0625" Pitch="63" RiffPosition="1.625" Velocity="0" />
      <note Length="0.0625" Pitch="51" RiffPosition="1.6875" Velocity="0" />
      <note Length="0.125" Pitch="56" RiffPosition="1.75" Velocity="0" />
      <note Length="0.0234375" Pitch="63" RiffPosition="1.875" Velocity="0" />
      <note Length="0.0078125" Pitch="66" RiffPosition="1.8984375" Velocity="0" />
      <note Length="0.0234375" Pitch="68" RiffPosition="1.90625" Velocity="0" />
      <note Length="0.0078125" Pitch="70" RiffPosition="1.9296875" Velocity="0" />
      <note Length="0.0625" Pitch="68" RiffPosition="1.9375" Velocity="0" />
      <note Length="0.09375" Pitch="68" RiffPosition="2" Velocity="0" />
      <note Length="0.03125" Pitch="53" RiffPosition="2.09375" Velocity="0" />
      <note Length="0.0625" Pitch="68" RiffPosition="2.125" Velocity="0" />
      <note Length="0.0625" Pitch="65" RiffPosition="2.1875" Velocity="0" />
      <note Length="0.125" Pitch="67" RiffPosition="2.25" Velocity="0" />
      <note Length="0.0234375" Pitch="58" RiffPosition="2.375" Velocity="0" />
      <note Length="0.0078125" Pitch="53" RiffPosition="2.3984375" Velocity="0" />
      <note Length="0.0234375" Pitch="53" RiffPosition="2.40625" Velocity="0" />
      <note Length="0.0078125" Pitch="53" RiffPosition="2.4296875" Velocity="0" />
      <note Length="0.0625" Pitch="53" RiffPosition="2.4375" Velocity="0" />
      <note Length="0.09375" Pitch="65" RiffPosition="2.5" Velocity="0" />
      <note Length="0.03125" Pitch="53" RiffPosition="2.59375" Velocity="0" />
      <note Length="0.0625" Pitch="53" RiffPosition="2.625" Velocity="0" />
      <note Length="0.0625" Pitch="68" RiffPosition="2.6875" Velocity="0" />
      <note Length="0.125" Pitch="53" RiffPosition="2.75" Velocity="0" />
      <note Length="0.0234375" Pitch="68" RiffPosition="2.875" Velocity="0" />
      <note Length="0.0078125" Pitch="70" RiffPosition="2.8984375" Velocity="0" />
      <note Length="0.0234375" Pitch="70" RiffPosition="2.90625" Velocity="0" />
      <note Length="0.0078125" Pitch="70" RiffPosition="2.9296875" Velocity="0" />
      <note Length="0.0625" Pitch="65" RiffPosition="2.9375" Velocity="0" />
      <note Length="0.09375" Pitch="58" RiffPosition="3" Velocity="0" />
      <note Length="0.03125" Pitch="54" RiffPosition="3.09375" Velocity="0" />
      <note Length="0.0625" Pitch="59" RiffPosition="3.125" Velocity="0" />
      <note Length="0.0625" Pitch="63" RiffPosition="3.1875" Velocity="0" />
      <note Length="0.125" Pitch="63" RiffPosition="3.25" Velocity="0" />
      <note Length="0.0234375" Pitch="63" RiffPosition="3.375" Velocity="0" />
      <note Length="0.0078125" Pitch="66" RiffPosition="3.3984375" Velocity="0" />
      <note Length="0.0234375" Pitch="66" RiffPosition="3.40625" Velocity="0" />
      <note Length="0.0078125" Pitch="66" RiffPosition="3.4296875" Velocity="0" />
      <note Length="0.0625" Pitch="68" RiffPosition="3.4375" Velocity="0" />
      <note Length="0.09375" Pitch="63" RiffPosition="3.5" Velocity="0" />
      <note Length="0.03125" Pitch="63" RiffPosition="3.59375" Velocity="0" />
      <note Length="0.0625" Pitch="51" RiffPosition="3.625" Velocity="0" />
      <note Length="0.0625" Pitch="59" RiffPosition="3.6875" Velocity="0" />
      <note Length="0.125" Pitch="58" RiffPosition="3.75" Velocity="0" />
      <note Length="0.0234375" Pitch="65" RiffPosition="3.875" Velocity="0" />
      <note Length="0.0078125" Pitch="68" RiffPosition="3.8984375" Velocity="0" />
      <note Length="0.0234375" Pitch="68" RiffPosition="3.90625" Velocity="0" />
      <note Length="0.0078125" Pitch="63" RiffPosition="3.9296875" Velocity="0" />
      <note Length="0.0625" Pitch="70" RiffPosition="3.9375" Velocity="0" />
      <note Length="0.09375" Pitch="67" RiffPosition="4" Velocity="0" />
      <note Length="0.03125" Pitch="53" RiffPosition="4.09375" Velocity="0" />
      <note Length="0.0625" Pitch="67" RiffPosition="4.125" Velocity="0" />
      <note Length="0.0625" Pitch="65" RiffPosition="4.1875" Velocity="0" />
      <note Length="0.125" Pitch="68" RiffPosition="4.25" Velocity="0" />
      <note Length="0.0234375" Pitch="58" RiffPosition="4.375" Velocity="0" />
      <note Length="0.0078125" Pitch="61" RiffPosition="4.3984375" Velocity="0" />
      <note Length="0.0234375" Pitch="53" RiffPosition="4.40625" Velocity="0" />
      <note Length="0.0078125" Pitch="53" RiffPosition="4.4296875" Velocity="0" />
      <note Length="0.0625" Pitch="53" RiffPosition="4.4375" Velocity="0" />
      <note Length="0.09375" Pitch="53" RiffPosition="4.5" Velocity="0" />
      <note Length="0.03125" Pitch="53" RiffPosition="4.59375" Velocity="0" />
      <note Length="0.0625" Pitch="65" RiffPosition="4.625" Velocity="0" />
      <note Length="0.0625" Pitch="68" RiffPosition="4.6875" Velocity="0" />
      <note Length="0.125" Pitch="65" RiffPosition="4.75" Velocity="0" />
      <note Length="0.0234375" Pitch="67" RiffPosition="4.875" Velocity="0" />
      <note Length="0.0078125" Pitch="70" RiffPosition="4.8984375" Velocity="0" />
      <note Length="0.0234375" Pitch="72" RiffPosition="4.90625" Velocity="0" />
      <note Length="0.0078125" Pitch="65" RiffPosition="4.9296875" Velocity="0" />
      <note Length="0.0625" Pitch="72" RiffPosition="4.9375" Velocity="0" />
      <note Length="0.09375" Pitch="58" RiffPosition="5" Velocity="0" />
      <note Length="0.03125" Pitch="53" RiffPosition="5.09375" Velocity="0" />
      <note Length="0.0625" Pitch="51" RiffPosition="5.125" Velocity="0" />
      <note Length="0.0625" Pitch="65" RiffPosition="5.1875" Velocity="0" />
      <note Length="0.125" Pitch="65" RiffPosition="5.25" Velocity="0" />
      <note Length="0.0234375" Pitch="51" RiffPosition="5.375" Velocity="0" />
      <note Length="0.0078125" Pitch="65" RiffPosition="5.3984375" Velocity="0" />
      <note Length="0.0234375" Pitch="66" RiffPosition="5.40625" Velocity="0" />
      <note Length="0.0078125" Pitch="68" RiffPosition="5.4296875" Velocity="0" />
      <note Length="0.0625" Pitch="66" RiffPosition="5.4375" Velocity="0" />
      <note Length="0.09375" Pitch="63" RiffPosition="5.5" Velocity="0" />
      <note Length="0.03125" Pitch="51" RiffPosition="5.59375" Velocity="0" />
      <note Length="0.0625" Pitch="51" RiffPosition="5.625" Velocity="0" />
      <note Length="0.0625" Pitch="51" RiffPosition="5.6875" Velocity="0" />
      <note Length="0.125" Pitch="56" RiffPosition="5.75" Velocity="0" />
      <note Length="0.0234375" Pitch="63" RiffPosition="5.875" Velocity="0" />
      <note Length="0.0078125" Pitch="68" RiffPosition="5.8984375" Velocity="0" />
      <note Length="0.0234375" Pitch="68" RiffPosition="5.90625" Velocity="0" />
      <note Length="0.0078125" Pitch="70" RiffPosition="5.9296875" Velocity="0" />
      <note Length="0.0625" Pitch="63" RiffPosition="5.9375" Velocity="0" />
      <note Length="0.09375" Pitch="68" RiffPosition="6" Velocity="57" />
      <note Length="0.03125" Pitch="53" RiffPosition="6.09375" Velocity="65" />
      <note Length="0.0625" Pitch="68" RiffPosition="6.125" Velocity="105" />
      <note Length="0.0625" Pitch="65" RiffPosition="6.1875" Velocity="42" />
      <note Length="0.125" Pitch="67" RiffPosition="6.25" Velocity="42" />
      <note Length="0.0234375" Pitch="58" RiffPosition="6.375" Velocity="56" />
      <note Length="0.0078125" Pitch="53" RiffPosition="6.3984375" Velocity="45" />
      <note Length="0.0234375" Pitch="53" RiffPosition="6.40625" Velocity="43" />
      <note Length="0.0078125" Pitch="53" RiffPosition="6.4296875" Velocity="94" />
      <note Length="0.0625" Pitch="53" RiffPosition="6.4375" Velocity="85" />
      <note Length="0.09375" Pitch="65" RiffPosition="6.5" Velocity="44" />
      <note Length="0.03125" Pitch="53" RiffPosition="6.59375" Velocity="68" />
      <note Length="0.0625" Pitch="53" RiffPosition="6.625" Velocity="100" />
      <note Length="0.0625" Pitch="68" RiffPosition="6.6875" Velocity="44" />
      <note Length="0.125" Pitch="53" RiffPosition="6.75" Velocity="37" />
      <note Length="0.0234375" Pitch="68" RiffPosition="6.875" Velocity="69" />
      <note Length="0.0078125" Pitch="70" RiffPosition="6.8984375" Velocity="41" />
      <note Length="0.0234375" Pitch="70" RiffPosition="6.90625" Velocity="59" />
      <note Length="0.0078125" Pitch="70" RiffPosition="6.9296875" Velocity="80" />
      <note Length="0.0625" Pitch="65" RiffPosition="6.9375" Velocity="90" />
      <note Length="0.09375" Pitch="58" RiffPosition="7" Velocity="59" />
      <note Length="0.03125" Pitch="54" RiffPosition="7.09375" Velocity="63" />
      <note Length="0.0625" Pitch="59" RiffPosition="7.125" Velocity="103" />
      <note Length="0.0625" Pitch="63" RiffPosition="7.1875" Velocity="40" />
      <note Length="0.125" Pitch="63" RiffPosition="7.25" Velocity="51" />
      <note Length="0.0234375" Pitch="63" RiffPosition="7.375" Velocity="65" />
      <note Length="0.0078125" Pitch="66" RiffPosition="7.3984375" Velocity="43" />
      <note Length="0.0234375" Pitch="66" RiffPosition="7.40625" Velocity="45" />
      <note Length="0.0078125" Pitch="68" RiffPosition="7.4296875" Velocity="96" />
      <note Length="0.0625" Pitch="68" RiffPosition="7.4375" Velocity="105" />
      <note Length="0.09375" Pitch="63" RiffPosition="7.5" Velocity="46" />
      <note Length="0.03125" Pitch="63" RiffPosition="7.59375" Velocity="59" />
      <note Length="0.0625" Pitch="51" RiffPosition="7.625" Velocity="99" />
      <note Length="0.0625" Pitch="58" RiffPosition="7.6875" Velocity="35" />
      <note Length="0.125" Pitch="58" RiffPosition="7.75" Velocity="35" />
      <note Length="0.0234375" Pitch="65" RiffPosition="7.875" Velocity="79" />
      <note Length="0.0078125" Pitch="68" RiffPosition="7.8984375" Velocity="38" />
      <note Length="0.0234375" Pitch="68" RiffPosition="7.90625" Velocity="50" />
      <note Length="0.0078125" Pitch="63" RiffPosition="7.9296875" Velocity="82" />
      <note Length="0.0625" Pitch="70" RiffPosition="7.9375" Velocity="92" />
      <note Length="0.09375" Pitch="65" RiffPosition="8" Velocity="50" />
      <note Length="0.03125" Pitch="53" RiffPosition="8.09375" Velocity="73" />
      <note Length="0.0625" Pitch="67" RiffPosition="8.125" Velocity="94" />
      <note Length="0.0625" Pitch="65" RiffPosition="8.1875" Velocity="38" />
      <note Length="0.125" Pitch="68" RiffPosition="8.25" Velocity="49" />
      <note Length="0.0234375" Pitch="58" RiffPosition="8.375" Velocity="63" />
      <note Length="0.0078125" Pitch="61" RiffPosition="8.3984375" Velocity="41" />
      <note Length="0.0234375" Pitch="53" RiffPosition="8.40625" Velocity="36" />
      <note Length="0.0078125" Pitch="53" RiffPosition="8.4296875" Velocity="87" />
      <note Length="0.0625" Pitch="53" RiffPosition="8.4375" Velocity="96" />
      <note Length="0.09375" Pitch="53" RiffPosition="8.5" Velocity="66" />
      <note Length="0.03125" Pitch="53" RiffPosition="8.59375" Velocity="57" />
      <note Length="0.0625" Pitch="65" RiffPosition="8.625" Velocity="108" />
      <note Length="0.0625" Pitch="68" RiffPosition="8.6875" Velocity="37" />
      <note Length="0.125" Pitch="65" RiffPosition="8.75" Velocity="44" />
      <note Length="0.0234375" Pitch="67" RiffPosition="8.875" Velocity="77" />
      <note Length="0.0078125" Pitch="68" RiffPosition="8.8984375" Velocity="36" />
      <note Length="0.0234375" Pitch="70" RiffPosition="8.90625" Velocity="52" />
      <note Length="0.0078125" Pitch="72" RiffPosition="8.9296875" Velocity="84" />
      <note Length="0.0625" Pitch="72" RiffPosition="8.9375" Velocity="82" />
      <note Length="0.09375" Pitch="58" RiffPosition="9" Velocity="52" />
      <note Length="0.03125" Pitch="53" RiffPosition="9.09375" Velocity="71" />
      <note Length="0.0625" Pitch="51" RiffPosition="9.125" Velocity="92" />
      <note Length="0.0625" Pitch="65" RiffPosition="9.1875" Velocity="41" />
      <note Length="0.125" Pitch="65" RiffPosition="9.25" Velocity="47" />
      <note Length="0.0234375" Pitch="51" RiffPosition="9.375" Velocity="72" />
      <note Length="0.0078125" Pitch="65" RiffPosition="9.3984375" Velocity="39" />
      <note Length="0.0234375" Pitch="66" RiffPosition="9.40625" Velocity="38" />
      <note Length="0.0078125" Pitch="68" RiffPosition="9.4296875" Velocity="88" />
      <note Length="0.0625" Pitch="66" RiffPosition="9.4375" Velocity="98" />
      <note Length="0.09375" Pitch="63" RiffPosition="9.5" Velocity="57" />
      <note Length="0.03125" Pitch="51" RiffPosition="9.59375" Velocity="66" />
      <note Length="0.0625" Pitch="51" RiffPosition="9.625" Velocity="106" />
      <note Length="0.0625" Pitch="51" RiffPosition="9.6875" Velocity="42" />
      <note Length="0.125" Pitch="56" RiffPosition="9.75" Velocity="42" />
      <note Length="0.0234375" Pitch="63" RiffPosition="9.875" Velocity="56" />
      <note Length="0.0078125" Pitch="68" RiffPosition="9.8984375" Velocity="45" />
      <note Length="0.0234375" Pitch="68" RiffPosition="9.90625" Velocity="43" />
      <note Length="0.0078125" Pitch="70" RiffPosition="9.9296875" Velocity="93" />
      <note Length="0.0625" Pitch="63" RiffPosition="9.9375" Velocity="84" />
      <note Length="0.09375" Pitch="68" RiffPosition="10" Velocity="0" />
      <note Length="0.03125" Pitch="53" RiffPosition="10.09375" Velocity="0" />
      <note Length="0.0625" Pitch="68" RiffPosition="10.125" Velocity="0" />
      <note Length="0.0625" Pitch="65" RiffPosition="10.1875" Velocity="0" />
      <note Length="0.125" Pitch="65" RiffPosition="10.25" Velocity="0" />
      <note Length="0.0234375" Pitch="60" RiffPosition="10.375" Velocity="0" />
      <note Length="0.0078125" Pitch="53" RiffPosition="10.3984375" Velocity="0" />
      <note Length="0.0234375" Pitch="53" RiffPosition="10.40625" Velocity="0" />
      <note Length="0.0078125" Pitch="53" RiffPosition="10.4296875" Velocity="0" />
      <note Length="0.0625" Pitch="53" RiffPosition="10.4375" Velocity="0" />
      <note Length="0.09375" Pitch="65" RiffPosition="10.5" Velocity="0" />
      <note Length="0.03125" Pitch="65" RiffPosition="10.59375" Velocity="0" />
      <note Length="0.0625" Pitch="53" RiffPosition="10.625" Velocity="0" />
      <note Length="0.0625" Pitch="68" RiffPosition="10.6875" Velocity="0" />
      <note Length="0.125" Pitch="53" RiffPosition="10.75" Velocity="0" />
      <note Length="0.0234375" Pitch="68" RiffPosition="10.875" Velocity="0" />
      <note Length="0.0078125" Pitch="70" RiffPosition="10.8984375" Velocity="0" />
      <note Length="0.0234375" Pitch="70" RiffPosition="10.90625" Velocity="0" />
      <note Length="0.0078125" Pitch="70" RiffPosition="10.9296875" Velocity="0" />
      <note Length="0.0625" Pitch="65" RiffPosition="10.9375" Velocity="0" />
    </riff>
    <riff IsDrum="False" MidiInstrument="29" Tempo="129" Length="11">
      <note Length="0.0625" Pitch="53" RiffPosition="0" Velocity="0" />
      <note Length="0.0625" Pitch="65" RiffPosition="0.0625" Velocity="0" />
      <note Length="0.0625" Pitch="70" RiffPosition="0.125" Velocity="0" />
      <note Length="0.0625" Pitch="68" RiffPosition="0.1875" Velocity="0" />
      <note Length="0.125" Pitch="67" RiffPosition="0.25" Velocity="0" />
      <note Length="0.03125" Pitch="53" RiffPosition="0.375" Velocity="0" />
      <note Length="0.01171875" Pitch="53" RiffPosition="0.40625" Velocity="0" />
      <note Length="0.00390625" Pitch="53" RiffPosition="0.41796875" Velocity="0" />
      <note Length="0.00390625" Pitch="53" RiffPosition="0.421875" Velocity="0" />
      <note Length="0.01171875" Pitch="60" RiffPosition="0.42578125" Velocity="0" />
      <note Length="0.03125" Pitch="65" RiffPosition="0.4375" Velocity="0" />
      <note Length="0.03125" Pitch="60" RiffPosition="0.46875" Velocity="0" />
      <note Length="0.0625" Pitch="61" RiffPosition="0.5" Velocity="0" />
      <note Length="0.0625" Pitch="53" RiffPosition="0.5625" Velocity="0" />
      <note Length="0.0625" Pitch="60" RiffPosition="0.625" Velocity="0" />
      <note Length="0.0625" Pitch="53" RiffPosition="0.6875" Velocity="0" />
      <note Length="0.125" Pitch="65" RiffPosition="0.75" Velocity="0" />
      <note Length="0.03125" Pitch="65" RiffPosition="0.875" Velocity="0" />
      <note Length="0.01171875" Pitch="65" RiffPosition="0.90625" Velocity="0" />
      <note Length="0.00390625" Pitch="70" RiffPosition="0.91796875" Velocity="0" />
      <note Length="0.00390625" Pitch="68" RiffPosition="0.921875" Velocity="0" />
      <note Length="0.01171875" Pitch="67" RiffPosition="0.92578125" Velocity="0" />
      <note Length="0.03125" Pitch="67" RiffPosition="0.9375" Velocity="0" />
      <note Length="0.03125" Pitch="53" RiffPosition="0.96875" Velocity="0" />
      <note Length="0.0625" Pitch="63" RiffPosition="1" Velocity="0" />
      <note Length="0.0625" Pitch="58" RiffPosition="1.0625" Velocity="0" />
      <note Length="0.0625" Pitch="51" RiffPosition="1.125" Velocity="0" />
      <note Length="0.0625" Pitch="51" RiffPosition="1.1875" Velocity="0" />
      <note Length="0.125" Pitch="51" RiffPosition="1.25" Velocity="0" />
      <note Length="0.03125" Pitch="51" RiffPosition="1.375" Velocity="0" />
      <note Length="0.01171875" Pitch="63" RiffPosition="1.40625" Velocity="0" />
      <note Length="0.00390625" Pitch="63" RiffPosition="1.41796875" Velocity="0" />
      <note Length="0.00390625" Pitch="63" RiffPosition="1.421875" Velocity="0" />
      <note Length="0.01171875" Pitch="66" RiffPosition="1.42578125" Velocity="0" />
      <note Length="0.03125" Pitch="66" RiffPosition="1.4375" Velocity="0" />
      <note Length="0.03125" Pitch="63" RiffPosition="1.46875" Velocity="0" />
      <note Length="0.0625" Pitch="68" RiffPosition="1.5" Velocity="0" />
      <note Length="0.0625" Pitch="66" RiffPosition="1.5625" Velocity="0" />
      <note Length="0.0625" Pitch="51" RiffPosition="1.625" Velocity="0" />
      <note Length="0.0625" Pitch="51" RiffPosition="1.6875" Velocity="0" />
      <note Length="0.125" Pitch="63" RiffPosition="1.75" Velocity="0" />
      <note Length="0.03125" Pitch="51" RiffPosition="1.875" Velocity="0" />
      <note Length="0.01171875" Pitch="51" RiffPosition="1.90625" Velocity="0" />
      <note Length="0.00390625" Pitch="51" RiffPosition="1.91796875" Velocity="0" />
      <note Length="0.00390625" Pitch="59" RiffPosition="1.921875" Velocity="0" />
      <note Length="0.01171875" Pitch="58" RiffPosition="1.92578125" Velocity="0" />
      <note Length="0.03125" Pitch="58" RiffPosition="1.9375" Velocity="0" />
      <note Length="0.03125" Pitch="51" RiffPosition="1.96875" Velocity="0" />
      <note Length="0.0625" Pitch="53" RiffPosition="2" Velocity="0" />
      <note Length="0.0625" Pitch="65" RiffPosition="2.0625" Velocity="0" />
      <note Length="0.0625" Pitch="68" RiffPosition="2.125" Velocity="0" />
      <note Length="0.0625" Pitch="65" RiffPosition="2.1875" Velocity="0" />
      <note Length="0.125" Pitch="67" RiffPosition="2.25" Velocity="0" />
      <note Length="0.03125" Pitch="61" RiffPosition="2.375" Velocity="0" />
      <note Length="0.01171875" Pitch="53" RiffPosition="2.40625" Velocity="0" />
      <note Length="0.00390625" Pitch="60" RiffPosition="2.41796875" Velocity="0" />
      <note Length="0.00390625" Pitch="53" RiffPosition="2.421875" Velocity="0" />
      <note Length="0.01171875" Pitch="65" RiffPosition="2.42578125" Velocity="0" />
      <note Length="0.03125" Pitch="53" RiffPosition="2.4375" Velocity="0" />
      <note Length="0.03125" Pitch="53" RiffPosition="2.46875" Velocity="0" />
      <note Length="0.0625" Pitch="53" RiffPosition="2.5" Velocity="0" />
      <note Length="0.0625" Pitch="60" RiffPosition="2.5625" Velocity="0" />
      <note Length="0.0625" Pitch="53" RiffPosition="2.625" Velocity="0" />
      <note Length="0.0625" Pitch="53" RiffPosition="2.6875" Velocity="0" />
      <note Length="0.125" Pitch="68" RiffPosition="2.75" Velocity="0" />
      <note Length="0.03125" Pitch="70" RiffPosition="2.875" Velocity="0" />
      <note Length="0.01171875" Pitch="72" RiffPosition="2.90625" Velocity="0" />
      <note Length="0.00390625" Pitch="67" RiffPosition="2.91796875" Velocity="0" />
      <note Length="0.00390625" Pitch="68" RiffPosition="2.921875" Velocity="0" />
      <note Length="0.01171875" Pitch="68" RiffPosition="2.92578125" Velocity="0" />
      <note Length="0.03125" Pitch="67" RiffPosition="2.9375" Velocity="0" />
      <note Length="0.03125" Pitch="53" RiffPosition="2.96875" Velocity="0" />
      <note Length="0.0625" Pitch="51" RiffPosition="3" Velocity="0" />
      <note Length="0.0625" Pitch="63" RiffPosition="3.0625" Velocity="0" />
      <note Length="0.0625" Pitch="51" RiffPosition="3.125" Velocity="0" />
      <note Length="0.0625" Pitch="51" RiffPosition="3.1875" Velocity="0" />
      <note Length="0.125" Pitch="59" RiffPosition="3.25" Velocity="0" />
      <note Length="0.03125" Pitch="51" RiffPosition="3.375" Velocity="0" />
      <note Length="0.01171875" Pitch="63" RiffPosition="3.40625" Velocity="0" />
      <note Length="0.00390625" Pitch="63" RiffPosition="3.41796875" Velocity="0" />
      <note Length="0.00390625" Pitch="66" RiffPosition="3.421875" Velocity="0" />
      <note Length="0.01171875" Pitch="66" RiffPosition="3.42578125" Velocity="0" />
      <note Length="0.03125" Pitch="63" RiffPosition="3.4375" Velocity="0" />
      <note Length="0.03125" Pitch="68" RiffPosition="3.46875" Velocity="0" />
      <note Length="0.0625" Pitch="63" RiffPosition="3.5" Velocity="0" />
      <note Length="0.0625" Pitch="68" RiffPosition="3.5625" Velocity="0" />
      <note Length="0.0625" Pitch="65" RiffPosition="3.625" Velocity="0" />
      <note Length="0.0625" Pitch="59" RiffPosition="3.6875" Velocity="0" />
      <note Length="0.125" Pitch="51" RiffPosition="3.75" Velocity="0" />
      <note Length="0.03125" Pitch="59" RiffPosition="3.875" Velocity="0" />
      <note Length="0.01171875" Pitch="51" RiffPosition="3.90625" Velocity="0" />
      <note Length="0.00390625" Pitch="51" RiffPosition="3.91796875" Velocity="0" />
      <note Length="0.00390625" Pitch="59" RiffPosition="3.921875" Velocity="0" />
      <note Length="0.01171875" Pitch="58" RiffPosition="3.92578125" Velocity="0" />
      <note Length="0.03125" Pitch="63" RiffPosition="3.9375" Velocity="0" />
      <note Length="0.03125" Pitch="58" RiffPosition="3.96875" Velocity="0" />
      <note Length="0.0625" Pitch="53" RiffPosition="4" Velocity="0" />
      <note Length="0.0625" Pitch="65" RiffPosition="4.0625" Velocity="0" />
      <note Length="0.0625" Pitch="68" RiffPosition="4.125" Velocity="0" />
      <note Length="0.0625" Pitch="72" RiffPosition="4.1875" Velocity="0" />
      <note Length="0.125" Pitch="68" RiffPosition="4.25" Velocity="0" />
      <note Length="0.03125" Pitch="65" RiffPosition="4.375" Velocity="0" />
      <note Length="0.01171875" Pitch="60" RiffPosition="4.40625" Velocity="0" />
      <note Length="0.00390625" Pitch="65" RiffPosition="4.41796875" Velocity="0" />
      <note Length="0.00390625" Pitch="53" RiffPosition="4.421875" Velocity="0" />
      <note Length="0.01171875" Pitch="53" RiffPosition="4.42578125" Velocity="0" />
      <note Length="0.03125" Pitch="53" RiffPosition="4.4375" Velocity="0" />
      <note Length="0.03125" Pitch="61" RiffPosition="4.46875" Velocity="0" />
      <note Length="0.0625" Pitch="53" RiffPosition="4.5" Velocity="0" />
      <note Length="0.0625" Pitch="60" RiffPosition="4.5625" Velocity="0" />
      <note Length="0.0625" Pitch="61" RiffPosition="4.625" Velocity="0" />
      <note Length="0.0625" Pitch="53" RiffPosition="4.6875" Velocity="0" />
      <note Length="0.125" Pitch="65" RiffPosition="4.75" Velocity="0" />
      <note Length="0.03125" Pitch="70" RiffPosition="4.875" Velocity="0" />
      <note Length="0.01171875" Pitch="68" RiffPosition="4.90625" Velocity="0" />
      <note Length="0.00390625" Pitch="68" RiffPosition="4.91796875" Velocity="0" />
      <note Length="0.00390625" Pitch="65" RiffPosition="4.921875" Velocity="0" />
      <note Length="0.01171875" Pitch="68" RiffPosition="4.92578125" Velocity="0" />
      <note Length="0.03125" Pitch="68" RiffPosition="4.9375" Velocity="0" />
      <note Length="0.03125" Pitch="53" RiffPosition="4.96875" Velocity="0" />
      <note Length="0.0625" Pitch="51" RiffPosition="5" Velocity="0" />
      <note Length="0.0625" Pitch="51" RiffPosition="5.0625" Velocity="0" />
      <note Length="0.0625" Pitch="51" RiffPosition="5.125" Velocity="0" />
      <note Length="0.0625" Pitch="58" RiffPosition="5.1875" Velocity="0" />
      <note Length="0.125" Pitch="51" RiffPosition="5.25" Velocity="0" />
      <note Length="0.03125" Pitch="63" RiffPosition="5.375" Velocity="0" />
      <note Length="0.01171875" Pitch="63" RiffPosition="5.40625" Velocity="0" />
      <note Length="0.00390625" Pitch="65" RiffPosition="5.41796875" Velocity="0" />
      <note Length="0.00390625" Pitch="63" RiffPosition="5.421875" Velocity="0" />
      <note Length="0.01171875" Pitch="63" RiffPosition="5.42578125" Velocity="0" />
      <note Length="0.03125" Pitch="63" RiffPosition="5.4375" Velocity="0" />
      <note Length="0.03125" Pitch="70" RiffPosition="5.46875" Velocity="0" />
      <note Length="0.0625" Pitch="68" RiffPosition="5.5" Velocity="0" />
      <note Length="0.0625" Pitch="68" RiffPosition="5.5625" Velocity="0" />
      <note Length="0.0625" Pitch="51" RiffPosition="5.625" Velocity="0" />
      <note Length="0.0625" Pitch="63" RiffPosition="5.6875" Velocity="0" />
      <note Length="0.125" Pitch="51" RiffPosition="5.75" Velocity="0" />
      <note Length="0.03125" Pitch="59" RiffPosition="5.875" Velocity="0" />
      <note Length="0.01171875" Pitch="51" RiffPosition="5.90625" Velocity="0" />
      <note Length="0.00390625" Pitch="58" RiffPosition="5.91796875" Velocity="0" />
      <note Length="0.00390625" Pitch="51" RiffPosition="5.921875" Velocity="0" />
      <note Length="0.01171875" Pitch="63" RiffPosition="5.92578125" Velocity="0" />
      <note Length="0.03125" Pitch="51" RiffPosition="5.9375" Velocity="0" />
      <note Length="0.03125" Pitch="51" RiffPosition="5.96875" Velocity="0" />
      <note Length="0.0625" Pitch="53" RiffPosition="6" Velocity="41" />
      <note Length="0.0625" Pitch="53" RiffPosition="6.0625" Velocity="36" />
      <note Length="0.0625" Pitch="65" RiffPosition="6.125" Velocity="41" />
      <note Length="0.0625" Pitch="65" RiffPosition="6.1875" Velocity="63" />
      <note Length="0.125" Pitch="70" RiffPosition="6.25" Velocity="58" />
      <note Length="0.03125" Pitch="53" RiffPosition="6.375" Velocity="46" />
      <note Length="0.01171875" Pitch="65" RiffPosition="6.40625" Velocity="54" />
      <note Length="0.00390625" Pitch="53" RiffPosition="6.41796875" Velocity="56" />
      <note Length="0.00390625" Pitch="61" RiffPosition="6.421875" Velocity="50" />
      <note Length="0.01171875" Pitch="53" RiffPosition="6.42578125" Velocity="50" />
      <note Length="0.03125" Pitch="60" RiffPosition="6.4375" Velocity="55" />
      <note Length="0.03125" Pitch="53" RiffPosition="6.46875" Velocity="83" />
      <note Length="0.0625" Pitch="61" RiffPosition="6.5" Velocity="95" />
      <note Length="0.0625" Pitch="65" RiffPosition="6.5625" Velocity="70" />
      <note Length="0.0625" Pitch="53" RiffPosition="6.625" Velocity="72" />
      <note Length="0.0625" Pitch="53" RiffPosition="6.6875" Velocity="46" />
      <note Length="0.125" Pitch="65" RiffPosition="6.75" Velocity="59" />
      <note Length="0.03125" Pitch="67" RiffPosition="6.875" Velocity="73" />
      <note Length="0.01171875" Pitch="68" RiffPosition="6.90625" Velocity="96" />
      <note Length="0.00390625" Pitch="68" RiffPosition="6.91796875" Velocity="104" />
      <note Length="0.00390625" Pitch="70" RiffPosition="6.921875" Velocity="106" />
      <note Length="0.01171875" Pitch="68" RiffPosition="6.92578125" Velocity="108" />
      <note Length="0.03125" Pitch="53" RiffPosition="6.9375" Velocity="108" />
      <note Length="0.03125" Pitch="65" RiffPosition="6.96875" Velocity="95" />
      <note Length="0.0625" Pitch="63" RiffPosition="7" Velocity="41" />
      <note Length="0.0625" Pitch="51" RiffPosition="7.0625" Velocity="36" />
      <note Length="0.0625" Pitch="63" RiffPosition="7.125" Velocity="102" />
      <note Length="0.0625" Pitch="58" RiffPosition="7.1875" Velocity="80" />
      <note Length="0.125" Pitch="51" RiffPosition="7.25" Velocity="85" />
      <note Length="0.03125" Pitch="51" RiffPosition="7.375" Velocity="46" />
      <note Length="0.01171875" Pitch="63" RiffPosition="7.40625" Velocity="54" />
      <note Length="0.00390625" Pitch="65" RiffPosition="7.41796875" Velocity="56" />
      <note Length="0.00390625" Pitch="65" RiffPosition="7.421875" Velocity="93" />
      <note Length="0.01171875" Pitch="63" RiffPosition="7.42578125" Velocity="93" />
      <note Length="0.03125" Pitch="70" RiffPosition="7.4375" Velocity="88" />
      <note Length="0.03125" Pitch="66" RiffPosition="7.46875" Velocity="60" />
      <note Length="0.0625" Pitch="70" RiffPosition="7.5" Velocity="48" />
      <note Length="0.0625" Pitch="68" RiffPosition="7.5625" Velocity="73" />
      <note Length="0.0625" Pitch="51" RiffPosition="7.625" Velocity="71" />
      <note Length="0.0625" Pitch="51" RiffPosition="7.6875" Velocity="46" />
      <note Length="0.125" Pitch="58" RiffPosition="7.75" Velocity="59" />
      <note Length="0.03125" Pitch="63" RiffPosition="7.875" Velocity="70" />
      <note Length="0.01171875" Pitch="58" RiffPosition="7.90625" Velocity="46" />
      <note Length="0.00390625" Pitch="63" RiffPosition="7.91796875" Velocity="39" />
      <note Length="0.00390625" Pitch="51" RiffPosition="7.921875" Velocity="37" />
      <note Length="0.01171875" Pitch="51" RiffPosition="7.92578125" Velocity="35" />
      <note Length="0.03125" Pitch="51" RiffPosition="7.9375" Velocity="36" />
      <note Length="0.03125" Pitch="59" RiffPosition="7.96875" Velocity="47" />
      <note Length="0.0625" Pitch="53" RiffPosition="8" Velocity="41" />
      <note Length="0.0625" Pitch="53" RiffPosition="8.0625" Velocity="36" />
      <note Length="0.0625" Pitch="68" RiffPosition="8.125" Velocity="41" />
      <note Length="0.0625" Pitch="68" RiffPosition="8.1875" Velocity="63" />
      <note Length="0.125" Pitch="67" RiffPosition="8.25" Velocity="58" />
      <note Length="0.03125" Pitch="53" RiffPosition="8.375" Velocity="46" />
      <note Length="0.01171875" Pitch="53" RiffPosition="8.40625" Velocity="54" />
      <note Length="0.00390625" Pitch="53" RiffPosition="8.41796875" Velocity="56" />
      <note Length="0.00390625" Pitch="53" RiffPosition="8.421875" Velocity="50" />
      <note Length="0.01171875" Pitch="60" RiffPosition="8.42578125" Velocity="50" />
      <note Length="0.03125" Pitch="53" RiffPosition="8.4375" Velocity="55" />
      <note Length="0.03125" Pitch="53" RiffPosition="8.46875" Velocity="83" />
      <note Length="0.0625" Pitch="53" RiffPosition="8.5" Velocity="95" />
      <note Length="0.0625" Pitch="53" RiffPosition="8.5625" Velocity="70" />
      <note Length="0.0625" Pitch="60" RiffPosition="8.625" Velocity="72" />
      <note Length="0.0625" Pitch="53" RiffPosition="8.6875" Velocity="46" />
      <note Length="0.125" Pitch="70" RiffPosition="8.75" Velocity="59" />
      <note Length="0.03125" Pitch="65" RiffPosition="8.875" Velocity="73" />
      <note Length="0.01171875" Pitch="68" RiffPosition="8.90625" Velocity="96" />
      <note Length="0.00390625" Pitch="68" RiffPosition="8.91796875" Velocity="104" />
      <note Length="0.00390625" Pitch="67" RiffPosition="8.921875" Velocity="106" />
      <note Length="0.01171875" Pitch="65" RiffPosition="8.92578125" Velocity="108" />
      <note Length="0.03125" Pitch="65" RiffPosition="8.9375" Velocity="108" />
      <note Length="0.03125" Pitch="53" RiffPosition="8.96875" Velocity="95" />
      <note Length="0.0625" Pitch="51" RiffPosition="9" Velocity="41" />
      <note Length="0.0625" Pitch="58" RiffPosition="9.0625" Velocity="36" />
      <note Length="0.0625" Pitch="51" RiffPosition="9.125" Velocity="102" />
      <note Length="0.0625" Pitch="51" RiffPosition="9.1875" Velocity="80" />
      <note Length="0.125" Pitch="51" RiffPosition="9.25" Velocity="85" />
      <note Length="0.03125" Pitch="51" RiffPosition="9.375" Velocity="46" />
      <note Length="0.01171875" Pitch="51" RiffPosition="9.40625" Velocity="54" />
      <note Length="0.00390625" Pitch="51" RiffPosition="9.41796875" Velocity="56" />
      <note Length="0.00390625" Pitch="65" RiffPosition="9.421875" Velocity="93" />
      <note Length="0.01171875" Pitch="63" RiffPosition="9.42578125" Velocity="93" />
      <note Length="0.03125" Pitch="66" RiffPosition="9.4375" Velocity="88" />
      <note Length="0.03125" Pitch="63" RiffPosition="9.46875" Velocity="60" />
      <note Length="0.0625" Pitch="66" RiffPosition="9.5" Velocity="48" />
      <note Length="0.0625" Pitch="66" RiffPosition="9.5625" Velocity="73" />
      <note Length="0.0625" Pitch="63" RiffPosition="9.625" Velocity="71" />
      <note Length="0.0625" Pitch="51" RiffPosition="9.6875" Velocity="46" />
      <note Length="0.125" Pitch="63" RiffPosition="9.75" Velocity="59" />
      <note Length="0.03125" Pitch="51" RiffPosition="9.875" Velocity="70" />
      <note Length="0.01171875" Pitch="63" RiffPosition="9.90625" Velocity="46" />
      <note Length="0.00390625" Pitch="51" RiffPosition="9.91796875" Velocity="39" />
      <note Length="0.00390625" Pitch="59" RiffPosition="9.921875" Velocity="37" />
      <note Length="0.01171875" Pitch="51" RiffPosition="9.92578125" Velocity="35" />
      <note Length="0.03125" Pitch="58" RiffPosition="9.9375" Velocity="36" />
      <note Length="0.03125" Pitch="51" RiffPosition="9.96875" Velocity="47" />
      <note Length="0.0625" Pitch="53" RiffPosition="10" Velocity="0" />
      <note Length="0.0625" Pitch="53" RiffPosition="10.0625" Velocity="0" />
      <note Length="0.0625" Pitch="70" RiffPosition="10.125" Velocity="0" />
      <note Length="0.0625" Pitch="65" RiffPosition="10.1875" Velocity="0" />
      <note Length="0.125" Pitch="68" RiffPosition="10.25" Velocity="0" />
      <note Length="0.03125" Pitch="60" RiffPosition="10.375" Velocity="0" />
      <note Length="0.01171875" Pitch="53" RiffPosition="10.40625" Velocity="0" />
      <note Length="0.00390625" Pitch="53" RiffPosition="10.41796875" Velocity="0" />
      <note Length="0.00390625" Pitch="65" RiffPosition="10.421875" Velocity="0" />
      <note Length="0.01171875" Pitch="53" RiffPosition="10.42578125" Velocity="0" />
      <note Length="0.03125" Pitch="61" RiffPosition="10.4375" Velocity="0" />
      <note Length="0.03125" Pitch="53" RiffPosition="10.46875" Velocity="0" />
      <note Length="0.0625" Pitch="53" RiffPosition="10.5" Velocity="0" />
      <note Length="0.0625" Pitch="53" RiffPosition="10.5625" Velocity="0" />
      <note Length="0.0625" Pitch="53" RiffPosition="10.625" Velocity="0" />
      <note Length="0.0625" Pitch="53" RiffPosition="10.6875" Velocity="0" />
      <note Length="0.125" Pitch="67" RiffPosition="10.75" Velocity="0" />
      <note Length="0.03125" Pitch="70" RiffPosition="10.875" Velocity="0" />
      <note Length="0.01171875" Pitch="70" RiffPosition="10.90625" Velocity="0" />
      <note Length="0.00390625" Pitch="65" RiffPosition="10.91796875" Velocity="0" />
      <note Length="0.00390625" Pitch="68" RiffPosition="10.921875" Velocity="0" />
      <note Length="0.01171875" Pitch="65" RiffPosition="10.92578125" Velocity="0" />
      <note Length="0.03125" Pitch="65" RiffPosition="10.9375" Velocity="0" />
      <note Length="0.03125" Pitch="53" RiffPosition="10.96875" Velocity="0" />
    </riff>
  </riffPack>
  <lyrics>
    <line>****** ****** ****** ******</line>
    <line>****** ****** ****** ******</line>
    <line>liberty and freedom in the name of peace of mind</line>
    <line>life is seen through heroin dreaming cold and benign,</line>
    <line>my soul is forever in war in search of the absolute equilibrium,</line>
    <line>but stagnant minds persist to squeeze blood from this stone</line>
    <line>this secret society manipulates our world</line>
    <line>law / reason / time / space blind us to truth</line>
    <line>my soul is forever in war in search of the absolute equilibrium,</line>
    <line>but stagnant minds persist to squeeze blood from this stone</line>
    <line>i'm so sick of apathy and tv show reality</line>
    <line>she makes me feel like it's raining outside</line>
    <line>****** ****** ****** ******</line>
    <line>****** ****** ****** ******</line>
    <line>my soul is forever in war in search of the absolute equilibrium,</line>
    <line>but stagnant minds persist to squeeze blood from this stone</line>
    <line>my soul is forever in war in search of the absolute equilibrium,</line>
    <line>but stagnant minds persist to squeeze blood from this stone</line>
    <line>****** ****** ****** ******</line>
  </lyrics>
  <lyricsSongFactoryCollection>
    <lyricSongFactory BarCount="19" BarCountPerChorus="2">
      <barInfo>
        <bar Intensity="0" LetterCount="67" />
        <bar Intensity="0" LetterCount="67" />
        <bar Intensity="0.5411765" LetterCount="34" />
        <bar Intensity="0.5058824" LetterCount="34" />
        <bar Intensity="1" LetterCount="67" />
        <bar Intensity="1" LetterCount="67" />
        <bar Intensity="0.5411765" LetterCount="33" />
        <bar Intensity="0.5058824" LetterCount="33" />
        <bar Intensity="1" LetterCount="67" />
        <bar Intensity="1" LetterCount="67" />
        <bar Intensity="0.4941176" LetterCount="29" />
        <bar Intensity="0.5294118" LetterCount="31" />
        <bar Intensity="0" LetterCount="16" />
        <bar Intensity="0" LetterCount="16" />
        <bar Intensity="1" LetterCount="67" />
        <bar Intensity="1" LetterCount="67" />
        <bar Intensity="1" LetterCount="62" />
        <bar Intensity="1" LetterCount="64" />
        <bar Intensity="0" LetterCount="16" />
      </barInfo>
      <themeList>
        <theme>activism</theme>
        <theme>philosophy</theme>
        <theme>metaphysics</theme>
        <theme>nature</theme>
        <theme>consciousness</theme>
      </themeList>
      <themeBlackList>
        <theme>sex</theme>
        <theme>racism</theme>
      </themeBlackList>
    </lyricSongFactory>
  </lyricsSongFactoryCollection>
  <predefinedGenerator BarCount="19" IsOverrideScale="True" IsOverrideTempo="True" Modulation="0.15" ScaleName="minorPentatonic" Tempo="90" LyricsToMusicPhase="0">
    <predefinedGeneratorTrack MetaRiffPackName="MeditativeChina">
      <barInfo isOn="True" />
      <barInfo isOn="True" />
      <barInfo isOn="True" />
      <barInfo isOn="True" />
      <barInfo isOn="True" />
      <barInfo isOn="True" />
      <barInfo isOn="True" />
      <barInfo isOn="True" />
      <barInfo isOn="True" />
      <barInfo isOn="False" />
      <barInfo isOn="False" />
      <barInfo isOn="False" />
      <barInfo isOn="False" />
      <barInfo isOn="False" />
      <barInfo isOn="False" />
      <barInfo isOn="False" />
      <barInfo isOn="False" />
      <barInfo isOn="False" />
      <barInfo isOn="False" />
    </predefinedGeneratorTrack>
    <predefinedGeneratorTrack MetaRiffPackName="BassSynth">
      <barInfo isOn="True" />
      <barInfo isOn="True" />
      <barInfo isOn="False" />
      <barInfo isOn="True" />
      <barInfo isOn="True" />
      <barInfo isOn="True" />
      <barInfo isOn="False" />
      <barInfo isOn="False" />
      <barInfo isOn="True" />
      <barInfo isOn="True" />
      <barInfo isOn="True" />
      <barInfo isOn="False" />
      <barInfo isOn="False" />
      <barInfo isOn="False" />
      <barInfo isOn="False" />
      <barInfo isOn="False" />
      <barInfo isOn="False" />
      <barInfo isOn="False" />
      <barInfo isOn="False" />
    </predefinedGeneratorTrack>
    <predefinedGeneratorTrack MetaRiffPackName="DrumSnareQuad">
      <barInfo isOn="True" />
      <barInfo isOn="True" />
      <barInfo isOn="True" />
      <barInfo isOn="False" />
      <barInfo isOn="False" />
      <barInfo isOn="False" />
      <barInfo isOn="True" />
      <barInfo isOn="True" />
      <barInfo isOn="True" />
      <barInfo isOn="True" />
      <barInfo isOn="False" />
      <barInfo isOn="False" />
      <barInfo isOn="False" />
      <barInfo isOn="False" />
      <barInfo isOn="False" />
      <barInfo isOn="False" />
      <barInfo isOn="False" />
      <barInfo isOn="False" />
      <barInfo isOn="False" />
    </predefinedGeneratorTrack>
    <predefinedGeneratorTrack MetaRiffPackName="DrumBassQuad">
      <barInfo isOn="True" />
      <barInfo isOn="True" />
      <barInfo isOn="True" />
      <barInfo isOn="True" />
      <barInfo isOn="True" />
      <barInfo isOn="True" />
      <barInfo isOn="True" />
      <barInfo isOn="True" />
      <barInfo isOn="True" />
      <barInfo isOn="False" />
      <barInfo isOn="False" />
      <barInfo isOn="False" />
      <barInfo isOn="False" />
      <barInfo isOn="False" />
      <barInfo isOn="False" />
      <barInfo isOn="False" />
      <barInfo isOn="False" />
      <barInfo isOn="False" />
      <barInfo isOn="False" />
    </predefinedGeneratorTrack>
    <predefinedGeneratorTrack MetaRiffPackName="DrumOcta">
      <barInfo isOn="True" />
      <barInfo isOn="True" />
      <barInfo isOn="True" />
      <barInfo isOn="True" />
      <barInfo isOn="True" />
      <barInfo isOn="True" />
      <barInfo isOn="True" />
      <barInfo isOn="True" />
      <barInfo isOn="True" />
      <barInfo isOn="False" />
      <barInfo isOn="False" />
      <barInfo isOn="False" />
      <barInfo isOn="False" />
      <barInfo isOn="False" />
      <barInfo isOn="False" />
      <barInfo isOn="False" />
      <barInfo isOn="False" />
      <barInfo isOn="False" />
      <barInfo isOn="False" />
    </predefinedGeneratorTrack>
    <predefinedGeneratorTrack MetaRiffPackName="DrumSnareOcta">
      <barInfo isOn="False" />
      <barInfo isOn="False" />
      <barInfo isOn="False" />
      <barInfo isOn="True" />
      <barInfo isOn="True" />
      <barInfo isOn="True" />
      <barInfo isOn="False" />
      <barInfo isOn="True" />
      <barInfo isOn="True" />
      <barInfo isOn="False" />
      <barInfo isOn="False" />
      <barInfo isOn="False" />
      <barInfo isOn="False" />
      <barInfo isOn="False" />
      <barInfo isOn="False" />
      <barInfo isOn="False" />
      <barInfo isOn="False" />
      <barInfo isOn="False" />
      <barInfo isOn="False" />
    </predefinedGeneratorTrack>
    <predefinedGeneratorTrack MetaRiffPackName="MeditativeTibet">
      <barInfo isOn="False" />
      <barInfo isOn="True" />
      <barInfo isOn="True" />
      <barInfo isOn="True" />
      <barInfo isOn="True" />
      <barInfo isOn="True" />
      <barInfo isOn="True" />
      <barInfo isOn="True" />
      <barInfo isOn="True" />
      <barInfo isOn="True" />
      <barInfo isOn="False" />
      <barInfo isOn="False" />
      <barInfo isOn="False" />
      <barInfo isOn="False" />
      <barInfo isOn="False" />
      <barInfo isOn="False" />
      <barInfo isOn="False" />
      <barInfo isOn="False" />
      <barInfo isOn="False" />
    </predefinedGeneratorTrack>
    <predefinedGeneratorTrack MetaRiffPackName="GuitarMetalSpeed">
      <barInfo isOn="False" />
      <barInfo isOn="False" />
      <barInfo isOn="False" />
      <barInfo isOn="False" />
      <barInfo isOn="False" />
      <barInfo isOn="False" />
      <barInfo isOn="True" />
      <barInfo isOn="True" />
      <barInfo isOn="True" />
      <barInfo isOn="True" />
      <barInfo isOn="False" />
      <barInfo isOn="False" />
      <barInfo isOn="False" />
      <barInfo isOn="False" />
      <barInfo isOn="False" />
      <barInfo isOn="False" />
      <barInfo isOn="False" />
      <barInfo isOn="False" />
      <barInfo isOn="False" />
    </predefinedGeneratorTrack>
  </predefinedGenerator>
</song>