<?xml version="1.0" encoding="UTF-8"?>
<song>
  <riffPack Tempo="101">
    <riff IsDrum="False" MidiInstrument="0" Tempo="82" Length="12">
      <note Length="0.046875" Pitch="50" RiffPosition="0" Velocity="78" />
      <note Length="0.015625" Pitch="48" RiffPosition="0.046875" Velocity="41" />
      <note Length="0.03125" Pitch="51" RiffPosition="0.0625" Velocity="61" />
      <note Length="0.03125" Pitch="39" RiffPosition="0.09375" Velocity="59" />
      <note Length="0.125" Pitch="50" RiffPosition="0.125" Velocity="86" />
      <note Length="0.125" Pitch="69" RiffPosition="0.25" Velocity="65" />
      <note Length="0.125" Pitch="31" RiffPosition="0.375" Velocity="93" />
      <note Length="0.046875" Pitch="60" RiffPosition="0.5" Velocity="75" />
      <note Length="0.015625" Pitch="67" RiffPosition="0.546875" Velocity="40" />
      <note Length="0.03125" Pitch="72" RiffPosition="0.5625" Velocity="104" />
      <note Length="0.03125" Pitch="55" RiffPosition="0.59375" Velocity="96" />
      <note Length="0.125" Pitch="67" RiffPosition="0.625" Velocity="65" />
      <note Length="0.125" Pitch="38" RiffPosition="0.75" Velocity="98" />
      <note Length="0.125" Pitch="57" RiffPosition="0.875" Velocity="53" />
      <note Length="0.046875" Pitch="58" RiffPosition="1" Velocity="84" />
      <note Length="0.015625" Pitch="45" RiffPosition="1.046875" Velocity="47" />
      <note Length="0.03125" Pitch="45" RiffPosition="1.0625" Velocity="54" />
      <note Length="0.03125" Pitch="36" RiffPosition="1.09375" Velocity="67" />
      <note Length="0.125" Pitch="45" RiffPosition="1.125" Velocity="92" />
      <note Length="0.125" Pitch="55" RiffPosition="1.25" Velocity="57" />
      <note Length="0.125" Pitch="43" RiffPosition="1.375" Velocity="99" />
      <note Length="0.046875" Pitch="58" RiffPosition="1.5" Velocity="67" />
      <note Length="0.015625" Pitch="60" RiffPosition="1.546875" Velocity="34" />
      <note Length="0.03125" Pitch="67" RiffPosition="1.5625" Velocity="98" />
      <note Length="0.03125" Pitch="67" RiffPosition="1.59375" Velocity="104" />
      <note Length="0.125" Pitch="62" RiffPosition="1.625" Velocity="71" />
      <note Length="0.125" Pitch="36" RiffPosition="1.75" Velocity="90" />
      <note Length="0.125" Pitch="69" RiffPosition="1.875" Velocity="60" />
      <note Length="0.046875" Pitch="55" RiffPosition="2" Velocity="90" />
      <note Length="0.015625" Pitch="31" RiffPosition="2.046875" Velocity="39" />
      <note Length="0.03125" Pitch="31" RiffPosition="2.0625" Velocity="63" />
      <note Length="0.03125" Pitch="46" RiffPosition="2.09375" Velocity="60" />
      <note Length="0.125" Pitch="31" RiffPosition="2.125" Velocity="84" />
      <note Length="0.125" Pitch="67" RiffPosition="2.25" Velocity="63" />
      <note Length="0.125" Pitch="50" RiffPosition="2.375" Velocity="91" />
      <note Length="0.046875" Pitch="43" RiffPosition="2.5" Velocity="73" />
      <note Length="0.015625" Pitch="58" RiffPosition="2.546875" Velocity="42" />
      <note Length="0.03125" Pitch="55" RiffPosition="2.5625" Velocity="91" />
      <note Length="0.03125" Pitch="70" RiffPosition="2.59375" Velocity="98" />
      <note Length="0.125" Pitch="58" RiffPosition="2.625" Velocity="63" />
      <note Length="0.125" Pitch="46" RiffPosition="2.75" Velocity="96" />
      <note Length="0.125" Pitch="55" RiffPosition="2.875" Velocity="66" />
      <note Length="0.046875" Pitch="43" RiffPosition="3" Velocity="82" />
      <note Length="0.015625" Pitch="51" RiffPosition="3.046875" Velocity="45" />
      <note Length="0.03125" Pitch="36" RiffPosition="3.0625" Velocity="56" />
      <note Length="0.03125" Pitch="31" RiffPosition="3.09375" Velocity="69" />
      <note Length="0.125" Pitch="43" RiffPosition="3.125" Velocity="90" />
      <note Length="0.125" Pitch="72" RiffPosition="3.25" Velocity="55" />
      <note Length="0.125" Pitch="45" RiffPosition="3.375" Velocity="97" />
      <note Length="0.046875" Pitch="50" RiffPosition="3.5" Velocity="65" />
      <note Length="0.015625" Pitch="69" RiffPosition="3.546875" Velocity="36" />
      <note Length="0.03125" Pitch="67" RiffPosition="3.5625" Velocity="100" />
      <note Length="0.03125" Pitch="67" RiffPosition="3.59375" Velocity="92" />
      <note Length="0.125" Pitch="70" RiffPosition="3.625" Velocity="69" />
      <note Length="0.125" Pitch="31" RiffPosition="3.75" Velocity="102" />
      <note Length="0.125" Pitch="62" RiffPosition="3.875" Velocity="58" />
      <note Length="0.046875" Pitch="55" RiffPosition="4" Velocity="88" />
      <note Length="0.015625" Pitch="48" RiffPosition="4.046875" Velocity="37" />
      <note Length="0.03125" Pitch="50" RiffPosition="4.0625" Velocity="65" />
      <note Length="0.03125" Pitch="38" RiffPosition="4.09375" Velocity="62" />
      <note Length="0.125" Pitch="50" RiffPosition="4.125" Velocity="82" />
      <note Length="0.125" Pitch="67" RiffPosition="4.25" Velocity="61" />
      <note Length="0.125" Pitch="31" RiffPosition="4.375" Velocity="89" />
      <note Length="0.046875" Pitch="58" RiffPosition="4.5" Velocity="71" />
      <note Length="0.015625" Pitch="55" RiffPosition="4.546875" Velocity="29" />
      <note Length="0.03125" Pitch="70" RiffPosition="4.5625" Velocity="93" />
      <note Length="0.03125" Pitch="55" RiffPosition="4.59375" Velocity="100" />
      <note Length="0.125" Pitch="55" RiffPosition="4.625" Velocity="75" />
      <note Length="0.125" Pitch="39" RiffPosition="4.75" Velocity="94" />
      <note Length="0.125" Pitch="55" RiffPosition="4.875" Velocity="64" />
      <note Length="0.046875" Pitch="60" RiffPosition="5" Velocity="80" />
      <note Length="0.015625" Pitch="31" RiffPosition="5.046875" Velocity="43" />
      <note Length="0.03125" Pitch="31" RiffPosition="5.0625" Velocity="58" />
      <note Length="0.03125" Pitch="33" RiffPosition="5.09375" Velocity="71" />
      <note Length="0.125" Pitch="31" RiffPosition="5.125" Velocity="88" />
      <note Length="0.125" Pitch="55" RiffPosition="5.25" Velocity="53" />
      <note Length="0.125" Pitch="51" RiffPosition="5.375" Velocity="95" />
      <note Length="0.046875" Pitch="55" RiffPosition="5.5" Velocity="77" />
      <note Length="0.015625" Pitch="62" RiffPosition="5.546875" Velocity="38" />
      <note Length="0.03125" Pitch="67" RiffPosition="5.5625" Velocity="102" />
      <note Length="0.03125" Pitch="67" RiffPosition="5.59375" Velocity="94" />
      <note Length="0.125" Pitch="55" RiffPosition="5.625" Velocity="67" />
      <note Length="0.125" Pitch="33" RiffPosition="5.75" Velocity="100" />
      <note Length="0.125" Pitch="69" RiffPosition="5.875" Velocity="56" />
      <note Length="0.046875" Pitch="43" RiffPosition="6" Velocity="0" />
      <note Length="0.015625" Pitch="38" RiffPosition="6.046875" Velocity="0" />
      <note Length="0.03125" Pitch="39" RiffPosition="6.0625" Velocity="0" />
      <note Length="0.03125" Pitch="45" RiffPosition="6.09375" Velocity="0" />
      <note Length="0.125" Pitch="31" RiffPosition="6.125" Velocity="0" />
      <note Length="0.125" Pitch="67" RiffPosition="6.25" Velocity="0" />
      <note Length="0.125" Pitch="48" RiffPosition="6.375" Velocity="0" />
      <note Length="0.046875" Pitch="43" RiffPosition="6.5" Velocity="0" />
      <note Length="0.015625" Pitch="72" RiffPosition="6.546875" Velocity="0" />
      <note Length="0.03125" Pitch="60" RiffPosition="6.5625" Velocity="0" />
      <note Length="0.03125" Pitch="72" RiffPosition="6.59375" Velocity="0" />
      <note Length="0.125" Pitch="57" RiffPosition="6.625" Velocity="0" />
      <note Length="0.125" Pitch="48" RiffPosition="6.75" Velocity="0" />
      <note Length="0.125" Pitch="55" RiffPosition="6.875" Velocity="0" />
      <note Length="0.046875" Pitch="51" RiffPosition="7" Velocity="78" />
      <note Length="0.015625" Pitch="50" RiffPosition="7.046875" Velocity="41" />
      <note Length="0.03125" Pitch="36" RiffPosition="7.0625" Velocity="60" />
      <note Length="0.03125" Pitch="31" RiffPosition="7.09375" Velocity="58" />
      <note Length="0.125" Pitch="51" RiffPosition="7.125" Velocity="86" />
      <note Length="0.125" Pitch="70" RiffPosition="7.25" Velocity="66" />
      <note Length="0.125" Pitch="45" RiffPosition="7.375" Velocity="93" />
      <note Length="0.046875" Pitch="48" RiffPosition="7.5" Velocity="75" />
      <note Length="0.015625" Pitch="70" RiffPosition="7.546875" Velocity="40" />
      <note Length="0.03125" Pitch="67" RiffPosition="7.5625" Velocity="103" />
      <note Length="0.03125" Pitch="55" RiffPosition="7.59375" Velocity="96" />
      <note Length="0.125" Pitch="70" RiffPosition="7.625" Velocity="65" />
      <note Length="0.125" Pitch="31" RiffPosition="7.75" Velocity="98" />
      <note Length="0.125" Pitch="60" RiffPosition="7.875" Velocity="54" />
      <note Length="0.046875" Pitch="62" RiffPosition="8" Velocity="84" />
      <note Length="0.015625" Pitch="46" RiffPosition="8.046875" Velocity="48" />
      <note Length="0.03125" Pitch="48" RiffPosition="8.0625" Velocity="54" />
      <note Length="0.03125" Pitch="38" RiffPosition="8.09375" Velocity="66" />
      <note Length="0.125" Pitch="48" RiffPosition="8.125" Velocity="92" />
      <note Length="0.125" Pitch="67" RiffPosition="8.25" Velocity="57" />
      <note Length="0.125" Pitch="38" RiffPosition="8.375" Velocity="100" />
      <note Length="0.046875" Pitch="60" RiffPosition="8.5" Velocity="67" />
      <note Length="0.015625" Pitch="55" RiffPosition="8.546875" Velocity="33" />
      <note Length="0.03125" Pitch="69" RiffPosition="8.5625" Velocity="97" />
      <note Length="0.03125" Pitch="62" RiffPosition="8.59375" Velocity="104" />
      <note Length="0.125" Pitch="55" RiffPosition="8.625" Velocity="72" />
      <note Length="0.125" Pitch="38" RiffPosition="8.75" Velocity="90" />
      <note Length="0.125" Pitch="70" RiffPosition="8.875" Velocity="60" />
      <note Length="0.046875" Pitch="58" RiffPosition="9" Velocity="91" />
      <note Length="0.015625" Pitch="31" RiffPosition="9.046875" Velocity="40" />
      <note Length="0.03125" Pitch="45" RiffPosition="9.0625" Velocity="62" />
      <note Length="0.03125" Pitch="50" RiffPosition="9.09375" Velocity="60" />
      <note Length="0.125" Pitch="45" RiffPosition="9.125" Velocity="84" />
      <note Length="0.125" Pitch="62" RiffPosition="9.25" Velocity="64" />
      <note Length="0.125" Pitch="43" RiffPosition="9.375" Velocity="91" />
      <note Length="0.046875" Pitch="43" RiffPosition="9.5" Velocity="73" />
      <note Length="0.015625" Pitch="60" RiffPosition="9.546875" Velocity="41" />
      <note Length="0.03125" Pitch="55" RiffPosition="9.5625" Velocity="91" />
      <note Length="0.03125" Pitch="72" RiffPosition="9.59375" Velocity="98" />
      <note Length="0.125" Pitch="60" RiffPosition="9.625" Velocity="63" />
      <note Length="0.125" Pitch="48" RiffPosition="9.75" Velocity="96" />
      <note Length="0.125" Pitch="67" RiffPosition="9.875" Velocity="66" />
      <note Length="0.046875" Pitch="55" RiffPosition="10" Velocity="82" />
      <note Length="0.015625" Pitch="38" RiffPosition="10.046875" Velocity="46" />
      <note Length="0.03125" Pitch="38" RiffPosition="10.0625" Velocity="56" />
      <note Length="0.03125" Pitch="46" RiffPosition="10.09375" Velocity="68" />
      <note Length="0.125" Pitch="38" RiffPosition="10.125" Velocity="90" />
      <note Length="0.125" Pitch="67" RiffPosition="10.25" Velocity="55" />
      <note Length="0.125" Pitch="46" RiffPosition="10.375" Velocity="98" />
      <note Length="0.046875" Pitch="43" RiffPosition="10.5" Velocity="65" />
      <note Length="0.015625" Pitch="70" RiffPosition="10.546875" Velocity="35" />
      <note Length="0.03125" Pitch="62" RiffPosition="10.5625" Velocity="99" />
      <note Length="0.03125" Pitch="70" RiffPosition="10.59375" Velocity="91" />
      <note Length="0.125" Pitch="72" RiffPosition="10.625" Velocity="70" />
      <note Length="0.125" Pitch="45" RiffPosition="10.75" Velocity="103" />
      <note Length="0.125" Pitch="55" RiffPosition="10.875" Velocity="58" />
      <note Length="0.046875" Pitch="50" RiffPosition="11" Velocity="0" />
      <note Length="0.015625" Pitch="51" RiffPosition="11.046875" Velocity="0" />
      <note Length="0.03125" Pitch="51" RiffPosition="11.0625" Velocity="0" />
      <note Length="0.03125" Pitch="39" RiffPosition="11.09375" Velocity="0" />
      <note Length="0.125" Pitch="43" RiffPosition="11.125" Velocity="0" />
      <note Length="0.125" Pitch="69" RiffPosition="11.25" Velocity="0" />
      <note Length="0.125" Pitch="31" RiffPosition="11.375" Velocity="0" />
      <note Length="0.046875" Pitch="45" RiffPosition="11.5" Velocity="0" />
      <note Length="0.015625" Pitch="67" RiffPosition="11.546875" Velocity="0" />
      <note Length="0.03125" Pitch="72" RiffPosition="11.5625" Velocity="0" />
      <note Length="0.03125" Pitch="55" RiffPosition="11.59375" Velocity="0" />
      <note Length="0.125" Pitch="69" RiffPosition="11.625" Velocity="0" />
      <note Length="0.125" Pitch="31" RiffPosition="11.75" Velocity="0" />
      <note Length="0.125" Pitch="58" RiffPosition="11.875" Velocity="0" />
    </riff>
    <riff IsDrum="False" MidiInstrument="0" Tempo="142" Length="12">
      <note Length="0.0078125" Pitch="31" RiffPosition="0" Velocity="68" />
      <note Length="0.0234375" Pitch="58" RiffPosition="0.0078125" Velocity="81" />
      <note Length="0.015625" Pitch="43" RiffPosition="0.03125" Velocity="62" />
      <note Length="0.015625" Pitch="62" RiffPosition="0.046875" Velocity="36" />
      <note Length="0.03125" Pitch="69" RiffPosition="0.0625" Velocity="85" />
      <note Length="0.03125" Pitch="43" RiffPosition="0.09375" Velocity="59" />
      <note Length="0.0625" Pitch="69" RiffPosition="0.125" Velocity="104" />
      <note Length="0.0625" Pitch="67" RiffPosition="0.1875" Velocity="68" />
      <note Length="0.0078125" Pitch="60" RiffPosition="0.25" Velocity="88" />
      <note Length="0.0234375" Pitch="48" RiffPosition="0.2578125" Velocity="99" />
      <note Length="0.015625" Pitch="72" RiffPosition="0.28125" Velocity="52" />
      <note Length="0.015625" Pitch="46" RiffPosition="0.296875" Velocity="52" />
      <note Length="0.03125" Pitch="43" RiffPosition="0.3125" Velocity="109" />
      <note Length="0.03125" Pitch="62" RiffPosition="0.34375" Velocity="95" />
      <note Length="0.0625" Pitch="31" RiffPosition="0.375" Velocity="61" />
      <note Length="0.0625" Pitch="36" RiffPosition="0.4375" Velocity="81" />
      <note Length="0.0078125" Pitch="67" RiffPosition="0.5" Velocity="102" />
      <note Length="0.0234375" Pitch="55" RiffPosition="0.5078125" Velocity="116" />
      <note Length="0.015625" Pitch="43" RiffPosition="0.53125" Velocity="94" />
      <note Length="0.015625" Pitch="60" RiffPosition="0.546875" Velocity="31" />
      <note Length="0.03125" Pitch="67" RiffPosition="0.5625" Velocity="66" />
      <note Length="0.03125" Pitch="51" RiffPosition="0.59375" Velocity="59" />
      <note Length="0.0625" Pitch="55" RiffPosition="0.625" Velocity="84" />
      <note Length="0.0625" Pitch="60" RiffPosition="0.6875" Velocity="102" />
      <note Length="0.0078125" Pitch="43" RiffPosition="0.75" Velocity="82" />
      <note Length="0.0234375" Pitch="31" RiffPosition="0.7578125" Velocity="98" />
      <note Length="0.015625" Pitch="55" RiffPosition="0.78125" Velocity="66" />
      <note Length="0.015625" Pitch="31" RiffPosition="0.796875" Velocity="30" />
      <note Length="0.03125" Pitch="48" RiffPosition="0.8125" Velocity="80" />
      <note Length="0.03125" Pitch="58" RiffPosition="0.84375" Velocity="60" />
      <note Length="0.0625" Pitch="31" RiffPosition="0.875" Velocity="90" />
      <note Length="0.0625" Pitch="55" RiffPosition="0.9375" Velocity="89" />
      <note Length="0.0078125" Pitch="55" RiffPosition="1" Velocity="68" />
      <note Length="0.0234375" Pitch="51" RiffPosition="1.0078125" Velocity="81" />
      <note Length="0.015625" Pitch="46" RiffPosition="1.03125" Velocity="62" />
      <note Length="0.015625" Pitch="43" RiffPosition="1.046875" Velocity="36" />
      <note Length="0.03125" Pitch="60" RiffPosition="1.0625" Velocity="85" />
      <note Length="0.03125" Pitch="45" RiffPosition="1.09375" Velocity="59" />
      <note Length="0.0625" Pitch="60" RiffPosition="1.125" Velocity="104" />
      <note Length="0.0625" Pitch="58" RiffPosition="1.1875" Velocity="68" />
      <note Length="0.0078125" Pitch="43" RiffPosition="1.25" Velocity="88" />
      <note Length="0.0234375" Pitch="70" RiffPosition="1.2578125" Velocity="99" />
      <note Length="0.015625" Pitch="55" RiffPosition="1.28125" Velocity="52" />
      <note Length="0.015625" Pitch="69" RiffPosition="1.296875" Velocity="52" />
      <note Length="0.03125" Pitch="31" RiffPosition="1.3125" Velocity="109" />
      <note Length="0.03125" Pitch="43" RiffPosition="1.34375" Velocity="95" />
      <note Length="0.0625" Pitch="55" RiffPosition="1.375" Velocity="61" />
      <note Length="0.0625" Pitch="58" RiffPosition="1.4375" Velocity="81" />
      <note Length="0.0078125" Pitch="58" RiffPosition="1.5" Velocity="102" />
      <note Length="0.0234375" Pitch="48" RiffPosition="1.5078125" Velocity="116" />
      <note Length="0.015625" Pitch="45" RiffPosition="1.53125" Velocity="94" />
      <note Length="0.015625" Pitch="43" RiffPosition="1.546875" Velocity="31" />
      <note Length="0.03125" Pitch="58" RiffPosition="1.5625" Velocity="66" />
      <note Length="0.03125" Pitch="31" RiffPosition="1.59375" Velocity="59" />
      <note Length="0.0625" Pitch="57" RiffPosition="1.625" Velocity="84" />
      <note Length="0.0625" Pitch="43" RiffPosition="1.6875" Velocity="102" />
      <note Length="0.0078125" Pitch="45" RiffPosition="1.75" Velocity="82" />
      <note Length="0.0234375" Pitch="55" RiffPosition="1.7578125" Velocity="98" />
      <note Length="0.015625" Pitch="57" RiffPosition="1.78125" Velocity="66" />
      <note Length="0.015625" Pitch="55" RiffPosition="1.796875" Velocity="30" />
      <note Length="0.03125" Pitch="39" RiffPosition="1.8125" Velocity="80" />
      <note Length="0.03125" Pitch="51" RiffPosition="1.84375" Velocity="60" />
      <note Length="0.0625" Pitch="55" RiffPosition="1.875" Velocity="90" />
      <note Length="0.0625" Pitch="57" RiffPosition="1.9375" Velocity="89" />
      <note Length="0.0078125" Pitch="43" RiffPosition="2" Velocity="68" />
      <note Length="0.0234375" Pitch="31" RiffPosition="2.0078125" Velocity="81" />
      <note Length="0.015625" Pitch="38" RiffPosition="2.03125" Velocity="62" />
      <note Length="0.015625" Pitch="45" RiffPosition="2.046875" Velocity="36" />
      <note Length="0.03125" Pitch="43" RiffPosition="2.0625" Velocity="85" />
      <note Length="0.03125" Pitch="67" RiffPosition="2.09375" Velocity="59" />
      <note Length="0.0625" Pitch="43" RiffPosition="2.125" Velocity="104" />
      <note Length="0.0625" Pitch="51" RiffPosition="2.1875" Velocity="68" />
      <note Length="0.0078125" Pitch="31" RiffPosition="2.25" Velocity="88" />
      <note Length="0.0234375" Pitch="62" RiffPosition="2.2578125" Velocity="99" />
      <note Length="0.015625" Pitch="43" RiffPosition="2.28125" Velocity="52" />
      <note Length="0.015625" Pitch="60" RiffPosition="2.296875" Velocity="52" />
      <note Length="0.03125" Pitch="55" RiffPosition="2.3125" Velocity="109" />
      <note Length="0.03125" Pitch="46" RiffPosition="2.34375" Velocity="95" />
      <note Length="0.0625" Pitch="57" RiffPosition="2.375" Velocity="61" />
      <note Length="0.0625" Pitch="43" RiffPosition="2.4375" Velocity="81" />
      <note Length="0.0078125" Pitch="43" RiffPosition="2.5" Velocity="102" />
      <note Length="0.0234375" Pitch="39" RiffPosition="2.5078125" Velocity="116" />
      <note Length="0.015625" Pitch="67" RiffPosition="2.53125" Velocity="94" />
      <note Length="0.015625" Pitch="31" RiffPosition="2.546875" Velocity="31" />
      <note Length="0.03125" Pitch="51" RiffPosition="2.5625" Velocity="66" />
      <note Length="0.03125" Pitch="55" RiffPosition="2.59375" Velocity="59" />
      <note Length="0.0625" Pitch="50" RiffPosition="2.625" Velocity="84" />
      <note Length="0.0625" Pitch="45" RiffPosition="2.6875" Velocity="102" />
      <note Length="0.0078125" Pitch="67" RiffPosition="2.75" Velocity="82" />
      <note Length="0.0234375" Pitch="55" RiffPosition="2.7578125" Velocity="98" />
      <note Length="0.015625" Pitch="50" RiffPosition="2.78125" Velocity="66" />
      <note Length="0.015625" Pitch="55" RiffPosition="2.796875" Velocity="30" />
      <note Length="0.03125" Pitch="62" RiffPosition="2.8125" Velocity="80" />
      <note Length="0.03125" Pitch="31" RiffPosition="2.84375" Velocity="60" />
      <note Length="0.0625" Pitch="55" RiffPosition="2.875" Velocity="90" />
      <note Length="0.0625" Pitch="50" RiffPosition="2.9375" Velocity="89" />
      <note Length="0.0078125" Pitch="48" RiffPosition="3" Velocity="68" />
      <note Length="0.0234375" Pitch="55" RiffPosition="3.0078125" Velocity="81" />
      <note Length="0.015625" Pitch="60" RiffPosition="3.03125" Velocity="62" />
      <note Length="0.015625" Pitch="67" RiffPosition="3.046875" Velocity="36" />
      <note Length="0.03125" Pitch="45" RiffPosition="3.0625" Velocity="85" />
      <note Length="0.03125" Pitch="58" RiffPosition="3.09375" Velocity="59" />
      <note Length="0.0625" Pitch="45" RiffPosition="3.125" Velocity="104" />
      <note Length="0.0625" Pitch="74" RiffPosition="3.1875" Velocity="68" />
      <note Length="0.0078125" Pitch="55" RiffPosition="3.25" Velocity="88" />
      <note Length="0.0234375" Pitch="43" RiffPosition="3.2578125" Velocity="99" />
      <note Length="0.015625" Pitch="48" RiffPosition="3.28125" Velocity="52" />
      <note Length="0.015625" Pitch="43" RiffPosition="3.296875" Velocity="52" />
      <note Length="0.03125" Pitch="57" RiffPosition="3.3125" Velocity="109" />
      <note Length="0.03125" Pitch="38" RiffPosition="3.34375" Velocity="95" />
      <note Length="0.0625" Pitch="50" RiffPosition="3.375" Velocity="61" />
      <note Length="0.0625" Pitch="31" RiffPosition="3.4375" Velocity="81" />
      <note Length="0.0078125" Pitch="31" RiffPosition="3.5" Velocity="102" />
      <note Length="0.0234375" Pitch="62" RiffPosition="3.5078125" Velocity="116" />
      <note Length="0.015625" Pitch="58" RiffPosition="3.53125" Velocity="94" />
      <note Length="0.015625" Pitch="55" RiffPosition="3.546875" Velocity="31" />
      <note Length="0.03125" Pitch="31" RiffPosition="3.5625" Velocity="66" />
      <note Length="0.03125" Pitch="57" RiffPosition="3.59375" Velocity="59" />
      <note Length="0.0625" Pitch="72" RiffPosition="3.625" Velocity="84" />
      <note Length="0.0625" Pitch="67" RiffPosition="3.6875" Velocity="102" />
      <note Length="0.0078125" Pitch="60" RiffPosition="3.75" Velocity="82" />
      <note Length="0.0234375" Pitch="48" RiffPosition="3.7578125" Velocity="98" />
      <note Length="0.015625" Pitch="31" RiffPosition="3.78125" Velocity="66" />
      <note Length="0.015625" Pitch="48" RiffPosition="3.796875" Velocity="30" />
      <note Length="0.03125" Pitch="43" RiffPosition="3.8125" Velocity="80" />
      <note Length="0.03125" Pitch="55" RiffPosition="3.84375" Velocity="60" />
      <note Length="0.0625" Pitch="48" RiffPosition="3.875" Velocity="90" />
      <note Length="0.0625" Pitch="31" RiffPosition="3.9375" Velocity="89" />
      <note Length="0.0078125" Pitch="38" RiffPosition="4" Velocity="68" />
      <note Length="0.0234375" Pitch="57" RiffPosition="4.0078125" Velocity="81" />
      <note Length="0.015625" Pitch="43" RiffPosition="4.03125" Velocity="62" />
      <note Length="0.015625" Pitch="60" RiffPosition="4.046875" Velocity="36" />
      <note Length="0.03125" Pitch="67" RiffPosition="4.0625" Velocity="85" />
      <note Length="0.03125" Pitch="43" RiffPosition="4.09375" Velocity="59" />
      <note Length="0.0625" Pitch="67" RiffPosition="4.125" Velocity="104" />
      <note Length="0.0625" Pitch="55" RiffPosition="4.1875" Velocity="68" />
      <note Length="0.0078125" Pitch="58" RiffPosition="4.25" Velocity="88" />
      <note Length="0.0234375" Pitch="45" RiffPosition="4.2578125" Velocity="99" />
      <note Length="0.015625" Pitch="70" RiffPosition="4.28125" Velocity="52" />
      <note Length="0.015625" Pitch="45" RiffPosition="4.296875" Velocity="52" />
      <note Length="0.03125" Pitch="50" RiffPosition="4.3125" Velocity="109" />
      <note Length="0.03125" Pitch="60" RiffPosition="4.34375" Velocity="95" />
      <note Length="0.0625" Pitch="31" RiffPosition="4.375" Velocity="61" />
      <note Length="0.0625" Pitch="34" RiffPosition="4.4375" Velocity="81" />
      <note Length="0.0078125" Pitch="55" RiffPosition="4.5" Velocity="102" />
      <note Length="0.0234375" Pitch="43" RiffPosition="4.5078125" Velocity="116" />
      <note Length="0.015625" Pitch="51" RiffPosition="4.53125" Velocity="94" />
      <note Length="0.015625" Pitch="58" RiffPosition="4.546875" Velocity="31" />
      <note Length="0.03125" Pitch="55" RiffPosition="4.5625" Velocity="66" />
      <note Length="0.03125" Pitch="50" RiffPosition="4.59375" Velocity="59" />
      <note Length="0.0625" Pitch="55" RiffPosition="4.625" Velocity="84" />
      <note Length="0.0625" Pitch="58" RiffPosition="4.6875" Velocity="102" />
      <note Length="0.0078125" Pitch="43" RiffPosition="4.75" Velocity="82" />
      <note Length="0.0234375" Pitch="70" RiffPosition="4.7578125" Velocity="98" />
      <note Length="0.015625" Pitch="55" RiffPosition="4.78125" Velocity="66" />
      <note Length="0.015625" Pitch="70" RiffPosition="4.796875" Velocity="30" />
      <note Length="0.03125" Pitch="45" RiffPosition="4.8125" Velocity="80" />
      <note Length="0.03125" Pitch="57" RiffPosition="4.84375" Velocity="60" />
      <note Length="0.0625" Pitch="38" RiffPosition="4.875" Velocity="90" />
      <note Length="0.0625" Pitch="55" RiffPosition="4.9375" Velocity="89" />
      <note Length="0.0078125" Pitch="60" RiffPosition="5" Velocity="68" />
      <note Length="0.0234375" Pitch="50" RiffPosition="5.0078125" Velocity="81" />
      <note Length="0.015625" Pitch="45" RiffPosition="5.03125" Velocity="62" />
      <note Length="0.015625" Pitch="43" RiffPosition="5.046875" Velocity="36" />
      <note Length="0.03125" Pitch="58" RiffPosition="5.0625" Velocity="85" />
      <note Length="0.03125" Pitch="31" RiffPosition="5.09375" Velocity="59" />
      <note Length="0.0625" Pitch="58" RiffPosition="5.125" Velocity="104" />
      <note Length="0.0625" Pitch="57" RiffPosition="5.1875" Velocity="68" />
      <note Length="0.0078125" Pitch="50" RiffPosition="5.25" Velocity="88" />
      <note Length="0.0234375" Pitch="67" RiffPosition="5.2578125" Velocity="99" />
      <note Length="0.015625" Pitch="60" RiffPosition="5.28125" Velocity="52" />
      <note Length="0.015625" Pitch="67" RiffPosition="5.296875" Velocity="52" />
      <note Length="0.03125" Pitch="31" RiffPosition="5.3125" Velocity="109" />
      <note Length="0.03125" Pitch="43" RiffPosition="5.34375" Velocity="95" />
      <note Length="0.0625" Pitch="55" RiffPosition="5.375" Velocity="61" />
      <note Length="0.0625" Pitch="57" RiffPosition="5.4375" Velocity="81" />
      <note Length="0.0078125" Pitch="57" RiffPosition="5.5" Velocity="102" />
      <note Length="0.0234375" Pitch="46" RiffPosition="5.5078125" Velocity="116" />
      <note Length="0.015625" Pitch="31" RiffPosition="5.53125" Velocity="94" />
      <note Length="0.015625" Pitch="50" RiffPosition="5.546875" Velocity="31" />
      <note Length="0.03125" Pitch="57" RiffPosition="5.5625" Velocity="66" />
      <note Length="0.03125" Pitch="72" RiffPosition="5.59375" Velocity="59" />
      <note Length="0.0625" Pitch="55" RiffPosition="5.625" Velocity="84" />
      <note Length="0.0625" Pitch="43" RiffPosition="5.6875" Velocity="102" />
      <note Length="0.0078125" Pitch="31" RiffPosition="5.75" Velocity="82" />
      <note Length="0.0234375" Pitch="62" RiffPosition="5.7578125" Velocity="98" />
      <note Length="0.015625" Pitch="55" RiffPosition="5.78125" Velocity="66" />
      <note Length="0.015625" Pitch="62" RiffPosition="5.796875" Velocity="30" />
      <note Length="0.03125" Pitch="67" RiffPosition="5.8125" Velocity="80" />
      <note Length="0.03125" Pitch="50" RiffPosition="5.84375" Velocity="60" />
      <note Length="0.0625" Pitch="60" RiffPosition="5.875" Velocity="90" />
      <note Length="0.0625" Pitch="55" RiffPosition="5.9375" Velocity="89" />
      <note Length="0.0078125" Pitch="43" RiffPosition="6" Velocity="0" />
      <note Length="0.0234375" Pitch="31" RiffPosition="6.0078125" Velocity="0" />
      <note Length="0.015625" Pitch="67" RiffPosition="6.03125" Velocity="0" />
      <note Length="0.015625" Pitch="31" RiffPosition="6.046875" Velocity="0" />
      <note Length="0.03125" Pitch="51" RiffPosition="6.0625" Velocity="0" />
      <note Length="0.03125" Pitch="55" RiffPosition="6.09375" Velocity="0" />
      <note Length="0.0625" Pitch="51" RiffPosition="6.125" Velocity="0" />
      <note Length="0.0625" Pitch="50" RiffPosition="6.1875" Velocity="0" />
      <note Length="0.0078125" Pitch="72" RiffPosition="6.25" Velocity="0" />
      <note Length="0.0234375" Pitch="60" RiffPosition="6.2578125" Velocity="0" />
      <note Length="0.015625" Pitch="43" RiffPosition="6.28125" Velocity="0" />
      <note Length="0.015625" Pitch="58" RiffPosition="6.296875" Velocity="0" />
      <note Length="0.03125" Pitch="55" RiffPosition="6.3125" Velocity="0" />
      <note Length="0.03125" Pitch="45" RiffPosition="6.34375" Velocity="0" />
      <note Length="0.0625" Pitch="55" RiffPosition="6.375" Velocity="0" />
      <note Length="0.0625" Pitch="50" RiffPosition="6.4375" Velocity="0" />
      <note Length="0.0078125" Pitch="50" RiffPosition="6.5" Velocity="0" />
      <note Length="0.0234375" Pitch="69" RiffPosition="6.5078125" Velocity="0" />
      <note Length="0.015625" Pitch="55" RiffPosition="6.53125" Velocity="0" />
      <note Length="0.015625" Pitch="31" RiffPosition="6.546875" Velocity="0" />
      <note Length="0.03125" Pitch="50" RiffPosition="6.5625" Velocity="0" />
      <note Length="0.03125" Pitch="55" RiffPosition="6.59375" Velocity="0" />
      <note Length="0.0625" Pitch="48" RiffPosition="6.625" Velocity="0" />
      <note Length="0.0625" Pitch="67" RiffPosition="6.6875" Velocity="0" />
      <note Length="0.0078125" Pitch="55" RiffPosition="6.75" Velocity="0" />
      <note Length="0.0234375" Pitch="43" RiffPosition="6.7578125" Velocity="0" />
      <note Length="0.015625" Pitch="48" RiffPosition="6.78125" Velocity="0" />
      <note Length="0.015625" Pitch="43" RiffPosition="6.796875" Velocity="0" />
      <note Length="0.03125" Pitch="58" RiffPosition="6.8125" Velocity="0" />
      <note Length="0.03125" Pitch="31" RiffPosition="6.84375" Velocity="0" />
      <note Length="0.0625" Pitch="43" RiffPosition="6.875" Velocity="0" />
      <note Length="0.0625" Pitch="48" RiffPosition="6.9375" Velocity="0" />
      <note Length="0.0078125" Pitch="45" RiffPosition="7" Velocity="68" />
      <note Length="0.0234375" Pitch="55" RiffPosition="7.0078125" Velocity="81" />
      <note Length="0.015625" Pitch="58" RiffPosition="7.03125" Velocity="62" />
      <note Length="0.015625" Pitch="55" RiffPosition="7.046875" Velocity="36" />
      <note Length="0.03125" Pitch="31" RiffPosition="7.0625" Velocity="85" />
      <note Length="0.03125" Pitch="57" RiffPosition="7.09375" Velocity="59" />
      <note Length="0.0625" Pitch="74" RiffPosition="7.125" Velocity="104" />
      <note Length="0.0625" Pitch="72" RiffPosition="7.1875" Velocity="68" />
      <note Length="0.0078125" Pitch="55" RiffPosition="7.25" Velocity="88" />
      <note Length="0.0234375" Pitch="43" RiffPosition="7.2578125" Velocity="99" />
      <note Length="0.015625" Pitch="45" RiffPosition="7.28125" Velocity="52" />
      <note Length="0.015625" Pitch="50" RiffPosition="7.296875" Velocity="52" />
      <note Length="0.03125" Pitch="55" RiffPosition="7.3125" Velocity="109" />
      <note Length="0.03125" Pitch="67" RiffPosition="7.34375" Velocity="95" />
      <note Length="0.0625" Pitch="48" RiffPosition="7.375" Velocity="61" />
      <note Length="0.0625" Pitch="31" RiffPosition="7.4375" Velocity="81" />
      <note Length="0.0078125" Pitch="31" RiffPosition="7.5" Velocity="102" />
      <note Length="0.0234375" Pitch="60" RiffPosition="7.5078125" Velocity="116" />
      <note Length="0.015625" Pitch="55" RiffPosition="7.53125" Velocity="94" />
      <note Length="0.015625" Pitch="55" RiffPosition="7.546875" Velocity="31" />
      <note Length="0.03125" Pitch="72" RiffPosition="7.5625" Velocity="66" />
      <note Length="0.03125" Pitch="55" RiffPosition="7.59375" Velocity="59" />
      <note Length="0.0625" Pitch="70" RiffPosition="7.625" Velocity="84" />
      <note Length="0.0625" Pitch="55" RiffPosition="7.6875" Velocity="102" />
      <note Length="0.0078125" Pitch="58" RiffPosition="7.75" Velocity="82" />
      <note Length="0.0234375" Pitch="46" RiffPosition="7.7578125" Velocity="98" />
      <note Length="0.015625" Pitch="70" RiffPosition="7.78125" Velocity="66" />
      <note Length="0.015625" Pitch="45" RiffPosition="7.796875" Velocity="30" />
      <note Length="0.03125" Pitch="43" RiffPosition="7.8125" Velocity="80" />
      <note Length="0.03125" Pitch="55" RiffPosition="7.84375" Velocity="60" />
      <note Length="0.0625" Pitch="45" RiffPosition="7.875" Velocity="90" />
      <note Length="0.0625" Pitch="38" RiffPosition="7.9375" Velocity="89" />
      <note Length="0.0078125" Pitch="67" RiffPosition="8" Velocity="68" />
      <note Length="0.0234375" Pitch="55" RiffPosition="8.0078125" Velocity="81" />
      <note Length="0.015625" Pitch="51" RiffPosition="8.03125" Velocity="62" />
      <note Length="0.015625" Pitch="58" RiffPosition="8.046875" Velocity="36" />
      <note Length="0.03125" Pitch="55" RiffPosition="8.0625" Velocity="85" />
      <note Length="0.03125" Pitch="50" RiffPosition="8.09375" Velocity="59" />
      <note Length="0.0625" Pitch="55" RiffPosition="8.125" Velocity="104" />
      <note Length="0.0625" Pitch="55" RiffPosition="8.1875" Velocity="68" />
      <note Length="0.0078125" Pitch="55" RiffPosition="8.25" Velocity="88" />
      <note Length="0.0234375" Pitch="31" RiffPosition="8.2578125" Velocity="99" />
      <note Length="0.015625" Pitch="67" RiffPosition="8.28125" Velocity="52" />
      <note Length="0.015625" Pitch="31" RiffPosition="8.296875" Velocity="52" />
      <note Length="0.03125" Pitch="48" RiffPosition="8.3125" Velocity="109" />
      <note Length="0.03125" Pitch="58" RiffPosition="8.34375" Velocity="95" />
      <note Length="0.0625" Pitch="39" RiffPosition="8.375" Velocity="61" />
      <note Length="0.0625" Pitch="55" RiffPosition="8.4375" Velocity="81" />
      <note Length="0.0078125" Pitch="55" RiffPosition="8.5" Velocity="102" />
      <note Length="0.0234375" Pitch="43" RiffPosition="8.5078125" Velocity="116" />
      <note Length="0.015625" Pitch="50" RiffPosition="8.53125" Velocity="94" />
      <note Length="0.015625" Pitch="55" RiffPosition="8.546875" Velocity="31" />
      <note Length="0.03125" Pitch="55" RiffPosition="8.5625" Velocity="66" />
      <note Length="0.03125" Pitch="48" RiffPosition="8.59375" Velocity="59" />
      <note Length="0.0625" Pitch="60" RiffPosition="8.625" Velocity="84" />
      <note Length="0.0625" Pitch="57" RiffPosition="8.6875" Velocity="102" />
      <note Length="0.0078125" Pitch="50" RiffPosition="8.75" Velocity="82" />
      <note Length="0.0234375" Pitch="69" RiffPosition="8.7578125" Velocity="98" />
      <note Length="0.015625" Pitch="62" RiffPosition="8.78125" Velocity="66" />
      <note Length="0.015625" Pitch="67" RiffPosition="8.796875" Velocity="30" />
      <note Length="0.03125" Pitch="31" RiffPosition="8.8125" Velocity="80" />
      <note Length="0.03125" Pitch="55" RiffPosition="8.84375" Velocity="60" />
      <note Length="0.0625" Pitch="36" RiffPosition="8.875" Velocity="90" />
      <note Length="0.0625" Pitch="60" RiffPosition="8.9375" Velocity="89" />
      <note Length="0.0078125" Pitch="58" RiffPosition="9" Velocity="68" />
      <note Length="0.0234375" Pitch="48" RiffPosition="9.0078125" Velocity="81" />
      <note Length="0.015625" Pitch="31" RiffPosition="9.03125" Velocity="62" />
      <note Length="0.015625" Pitch="50" RiffPosition="9.046875" Velocity="36" />
      <note Length="0.03125" Pitch="55" RiffPosition="9.0625" Velocity="85" />
      <note Length="0.03125" Pitch="31" RiffPosition="9.09375" Velocity="59" />
      <note Length="0.0625" Pitch="55" RiffPosition="9.125" Velocity="104" />
      <note Length="0.0625" Pitch="55" RiffPosition="9.1875" Velocity="68" />
      <note Length="0.0078125" Pitch="48" RiffPosition="9.25" Velocity="88" />
      <note Length="0.0234375" Pitch="55" RiffPosition="9.2578125" Velocity="99" />
      <note Length="0.015625" Pitch="58" RiffPosition="9.28125" Velocity="52" />
      <note Length="0.015625" Pitch="55" RiffPosition="9.296875" Velocity="52" />
      <note Length="0.03125" Pitch="39" RiffPosition="9.3125" Velocity="109" />
      <note Length="0.03125" Pitch="51" RiffPosition="9.34375" Velocity="95" />
      <note Length="0.0625" Pitch="62" RiffPosition="9.375" Velocity="61" />
      <note Length="0.0625" Pitch="55" RiffPosition="9.4375" Velocity="81" />
      <note Length="0.0078125" Pitch="55" RiffPosition="9.5" Velocity="102" />
      <note Length="0.0234375" Pitch="45" RiffPosition="9.5078125" Velocity="116" />
      <note Length="0.015625" Pitch="31" RiffPosition="9.53125" Velocity="94" />
      <note Length="0.015625" Pitch="48" RiffPosition="9.546875" Velocity="31" />
      <note Length="0.03125" Pitch="55" RiffPosition="9.5625" Velocity="66" />
      <note Length="0.03125" Pitch="70" RiffPosition="9.59375" Velocity="59" />
      <note Length="0.0625" Pitch="43" RiffPosition="9.625" Velocity="84" />
      <note Length="0.0625" Pitch="50" RiffPosition="9.6875" Velocity="102" />
      <note Length="0.0078125" Pitch="31" RiffPosition="9.75" Velocity="82" />
      <note Length="0.0234375" Pitch="60" RiffPosition="9.7578125" Velocity="98" />
      <note Length="0.015625" Pitch="43" RiffPosition="9.78125" Velocity="66" />
      <note Length="0.015625" Pitch="60" RiffPosition="9.796875" Velocity="30" />
      <note Length="0.03125" Pitch="55" RiffPosition="9.8125" Velocity="80" />
      <note Length="0.03125" Pitch="48" RiffPosition="9.84375" Velocity="60" />
      <note Length="0.0625" Pitch="58" RiffPosition="9.875" Velocity="90" />
      <note Length="0.0625" Pitch="43" RiffPosition="9.9375" Velocity="89" />
      <note Length="0.0078125" Pitch="51" RiffPosition="10" Velocity="68" />
      <note Length="0.0234375" Pitch="39" RiffPosition="10.0078125" Velocity="81" />
      <note Length="0.015625" Pitch="55" RiffPosition="10.03125" Velocity="62" />
      <note Length="0.015625" Pitch="31" RiffPosition="10.046875" Velocity="36" />
      <note Length="0.03125" Pitch="50" RiffPosition="10.0625" Velocity="85" />
      <note Length="0.03125" Pitch="55" RiffPosition="10.09375" Velocity="59" />
      <note Length="0.0625" Pitch="50" RiffPosition="10.125" Velocity="104" />
      <note Length="0.0625" Pitch="48" RiffPosition="10.1875" Velocity="68" />
      <note Length="0.0078125" Pitch="70" RiffPosition="10.25" Velocity="88" />
      <note Length="0.0234375" Pitch="58" RiffPosition="10.2578125" Velocity="99" />
      <note Length="0.015625" Pitch="51" RiffPosition="10.28125" Velocity="52" />
      <note Length="0.015625" Pitch="55" RiffPosition="10.296875" Velocity="52" />
      <note Length="0.03125" Pitch="62" RiffPosition="10.3125" Velocity="109" />
      <note Length="0.03125" Pitch="31" RiffPosition="10.34375" Velocity="95" />
      <note Length="0.0625" Pitch="43" RiffPosition="10.375" Velocity="61" />
      <note Length="0.0625" Pitch="48" RiffPosition="10.4375" Velocity="81" />
      <note Length="0.0078125" Pitch="48" RiffPosition="10.5" Velocity="102" />
      <note Length="0.0234375" Pitch="67" RiffPosition="10.5078125" Velocity="116" />
      <note Length="0.015625" Pitch="55" RiffPosition="10.53125" Velocity="94" />
      <note Length="0.015625" Pitch="70" RiffPosition="10.546875" Velocity="31" />
      <note Length="0.03125" Pitch="48" RiffPosition="10.5625" Velocity="66" />
      <note Length="0.03125" Pitch="62" RiffPosition="10.59375" Velocity="59" />
      <note Length="0.0625" Pitch="45" RiffPosition="10.625" Velocity="84" />
      <note Length="0.0625" Pitch="72" RiffPosition="10.6875" Velocity="102" />
      <note Length="0.0078125" Pitch="55" RiffPosition="10.75" Velocity="82" />
      <note Length="0.0234375" Pitch="43" RiffPosition="10.7578125" Velocity="98" />
      <note Length="0.015625" Pitch="46" RiffPosition="10.78125" Velocity="66" />
      <note Length="0.015625" Pitch="43" RiffPosition="10.796875" Velocity="30" />
      <note Length="0.03125" Pitch="57" RiffPosition="10.8125" Velocity="80" />
      <note Length="0.03125" Pitch="39" RiffPosition="10.84375" Velocity="60" />
      <note Length="0.0625" Pitch="43" RiffPosition="10.875" Velocity="90" />
      <note Length="0.0625" Pitch="45" RiffPosition="10.9375" Velocity="89" />
      <note Length="0.0078125" Pitch="31" RiffPosition="11" Velocity="0" />
      <note Length="0.0234375" Pitch="62" RiffPosition="11.0078125" Velocity="0" />
      <note Length="0.015625" Pitch="57" RiffPosition="11.03125" Velocity="0" />
      <note Length="0.015625" Pitch="55" RiffPosition="11.046875" Velocity="0" />
      <note Length="0.03125" Pitch="31" RiffPosition="11.0625" Velocity="0" />
      <note Length="0.03125" Pitch="55" RiffPosition="11.09375" Velocity="0" />
      <note Length="0.0625" Pitch="72" RiffPosition="11.125" Velocity="0" />
      <note Length="0.0625" Pitch="70" RiffPosition="11.1875" Velocity="0" />
      <note Length="0.0078125" Pitch="62" RiffPosition="11.25" Velocity="0" />
      <note Length="0.0234375" Pitch="50" RiffPosition="11.2578125" Velocity="0" />
      <note Length="0.015625" Pitch="31" RiffPosition="11.28125" Velocity="0" />
      <note Length="0.015625" Pitch="48" RiffPosition="11.296875" Velocity="0" />
      <note Length="0.03125" Pitch="43" RiffPosition="11.3125" Velocity="0" />
      <note Length="0.03125" Pitch="55" RiffPosition="11.34375" Velocity="0" />
      <note Length="0.0625" Pitch="45" RiffPosition="11.375" Velocity="0" />
      <note Length="0.0625" Pitch="39" RiffPosition="11.4375" Velocity="0" />
      <note Length="0.0078125" Pitch="39" RiffPosition="11.5" Velocity="0" />
      <note Length="0.0234375" Pitch="58" RiffPosition="11.5078125" Velocity="0" />
      <note Length="0.015625" Pitch="43" RiffPosition="11.53125" Velocity="0" />
      <note Length="0.015625" Pitch="62" RiffPosition="11.546875" Velocity="0" />
      <note Length="0.03125" Pitch="70" RiffPosition="11.5625" Velocity="0" />
      <note Length="0.03125" Pitch="43" RiffPosition="11.59375" Velocity="0" />
      <note Length="0.0625" Pitch="67" RiffPosition="11.625" Velocity="0" />
      <note Length="0.0625" Pitch="55" RiffPosition="11.6875" Velocity="0" />
      <note Length="0.0078125" Pitch="55" RiffPosition="11.75" Velocity="0" />
      <note Length="0.0234375" Pitch="31" RiffPosition="11.7578125" Velocity="0" />
      <note Length="0.015625" Pitch="69" RiffPosition="11.78125" Velocity="0" />
      <note Length="0.015625" Pitch="31" RiffPosition="11.796875" Velocity="0" />
      <note Length="0.03125" Pitch="50" RiffPosition="11.8125" Velocity="0" />
      <note Length="0.03125" Pitch="62" RiffPosition="11.84375" Velocity="0" />
      <note Length="0.0625" Pitch="31" RiffPosition="11.875" Velocity="0" />
      <note Length="0.0625" Pitch="36" RiffPosition="11.9375" Velocity="0" />
    </riff>
    <riff IsDrum="True" MidiInstrument="0" Tempo="87" Length="12">
      <note Length="0.0625" Pitch="40" RiffPosition="0" Velocity="0" />
      <note Length="0.0625" Pitch="40" RiffPosition="0.0625" Velocity="0" />
      <note Length="0.0625" Pitch="40" RiffPosition="0.125" Velocity="0" />
      <note Length="0.0625" Pitch="40" RiffPosition="0.1875" Velocity="0" />
      <note Length="0.0625" Pitch="40" RiffPosition="0.25" Velocity="0" />
      <note Length="0.0625" Pitch="40" RiffPosition="0.3125" Velocity="0" />
      <note Length="0.0625" Pitch="40" RiffPosition="0.375" Velocity="0" />
      <note Length="0.0625" Pitch="40" RiffPosition="0.4375" Velocity="0" />
      <note Length="0.0625" Pitch="40" RiffPosition="0.5" Velocity="0" />
      <note Length="0.0625" Pitch="40" RiffPosition="0.5625" Velocity="0" />
      <note Length="0.0625" Pitch="40" RiffPosition="0.625" Velocity="0" />
      <note Length="0.0625" Pitch="40" RiffPosition="0.6875" Velocity="0" />
      <note Length="0.0625" Pitch="40" RiffPosition="0.75" Velocity="0" />
      <note Length="0.0625" Pitch="40" RiffPosition="0.8125" Velocity="0" />
      <note Length="0.0625" Pitch="40" RiffPosition="0.875" Velocity="0" />
      <note Length="0.0625" Pitch="40" RiffPosition="0.9375" Velocity="0" />
      <note Length="0.0625" Pitch="40" RiffPosition="1" Velocity="0" />
      <note Length="0.0625" Pitch="40" RiffPosition="1.0625" Velocity="0" />
      <note Length="0.0625" Pitch="40" RiffPosition="1.125" Velocity="0" />
      <note Length="0.0625" Pitch="40" RiffPosition="1.1875" Velocity="0" />
      <note Length="0.0625" Pitch="40" RiffPosition="1.25" Velocity="0" />
      <note Length="0.0625" Pitch="40" RiffPosition="1.3125" Velocity="0" />
      <note Length="0.0625" Pitch="40" RiffPosition="1.375" Velocity="0" />
      <note Length="0.0625" Pitch="40" RiffPosition="1.4375" Velocity="0" />
      <note Length="0.0625" Pitch="40" RiffPosition="1.5" Velocity="0" />
      <note Length="0.0625" Pitch="40" RiffPosition="1.5625" Velocity="0" />
      <note Length="0.0625" Pitch="40" RiffPosition="1.625" Velocity="0" />
      <note Length="0.0625" Pitch="40" RiffPosition="1.6875" Velocity="0" />
      <note Length="0.0625" Pitch="40" RiffPosition="1.75" Velocity="0" />
      <note Length="0.0625" Pitch="40" RiffPosition="1.8125" Velocity="0" />
      <note Length="0.0625" Pitch="40" RiffPosition="1.875" Velocity="0" />
      <note Length="0.0625" Pitch="40" RiffPosition="1.9375" Velocity="0" />
      <note Length="0.0625" Pitch="40" RiffPosition="2" Velocity="0" />
      <note Length="0.0625" Pitch="40" RiffPosition="2.0625" Velocity="0" />
      <note Length="0.0625" Pitch="40" RiffPosition="2.125" Velocity="0" />
      <note Length="0.0625" Pitch="40" RiffPosition="2.1875" Velocity="0" />
      <note Length="0.0625" Pitch="40" RiffPosition="2.25" Velocity="0" />
      <note Length="0.0625" Pitch="40" RiffPosition="2.3125" Velocity="0" />
      <note Length="0.0625" Pitch="40" RiffPosition="2.375" Velocity="0" />
      <note Length="0.0625" Pitch="40" RiffPosition="2.4375" Velocity="0" />
      <note Length="0.0625" Pitch="40" RiffPosition="2.5" Velocity="0" />
      <note Length="0.0625" Pitch="40" RiffPosition="2.5625" Velocity="0" />
      <note Length="0.0625" Pitch="40" RiffPosition="2.625" Velocity="0" />
      <note Length="0.0625" Pitch="40" RiffPosition="2.6875" Velocity="0" />
      <note Length="0.0625" Pitch="40" RiffPosition="2.75" Velocity="0" />
      <note Length="0.0625" Pitch="40" RiffPosition="2.8125" Velocity="0" />
      <note Length="0.0625" Pitch="40" RiffPosition="2.875" Velocity="0" />
      <note Length="0.0625" Pitch="40" RiffPosition="2.9375" Velocity="0" />
      <note Length="0.0625" Pitch="40" RiffPosition="3" Velocity="0" />
      <note Length="0.0625" Pitch="40" RiffPosition="3.0625" Velocity="105" />
      <note Length="0.0625" Pitch="40" RiffPosition="3.125" Velocity="0" />
      <note Length="0.0625" Pitch="40" RiffPosition="3.1875" Velocity="105" />
      <note Length="0.0625" Pitch="40" RiffPosition="3.25" Velocity="0" />
      <note Length="0.0625" Pitch="40" RiffPosition="3.3125" Velocity="105" />
      <note Length="0.0625" Pitch="40" RiffPosition="3.375" Velocity="0" />
      <note Length="0.0625" Pitch="40" RiffPosition="3.4375" Velocity="105" />
      <note Length="0.0625" Pitch="40" RiffPosition="3.5" Velocity="0" />
      <note Length="0.0625" Pitch="40" RiffPosition="3.5625" Velocity="105" />
      <note Length="0.0625" Pitch="40" RiffPosition="3.625" Velocity="0" />
      <note Length="0.0625" Pitch="40" RiffPosition="3.6875" Velocity="105" />
      <note Length="0.0625" Pitch="40" RiffPosition="3.75" Velocity="0" />
      <note Length="0.0625" Pitch="40" RiffPosition="3.8125" Velocity="105" />
      <note Length="0.0625" Pitch="40" RiffPosition="3.875" Velocity="0" />
      <note Length="0.0625" Pitch="40" RiffPosition="3.9375" Velocity="105" />
      <note Length="0.0625" Pitch="40" RiffPosition="4" Velocity="0" />
      <note Length="0.0625" Pitch="40" RiffPosition="4.0625" Velocity="105" />
      <note Length="0.0625" Pitch="40" RiffPosition="4.125" Velocity="0" />
      <note Length="0.0625" Pitch="40" RiffPosition="4.1875" Velocity="105" />
      <note Length="0.0625" Pitch="40" RiffPosition="4.25" Velocity="0" />
      <note Length="0.0625" Pitch="40" RiffPosition="4.3125" Velocity="105" />
      <note Length="0.0625" Pitch="40" RiffPosition="4.375" Velocity="0" />
      <note Length="0.0625" Pitch="40" RiffPosition="4.4375" Velocity="105" />
      <note Length="0.0625" Pitch="40" RiffPosition="4.5" Velocity="0" />
      <note Length="0.0625" Pitch="40" RiffPosition="4.5625" Velocity="105" />
      <note Length="0.0625" Pitch="40" RiffPosition="4.625" Velocity="0" />
      <note Length="0.0625" Pitch="40" RiffPosition="4.6875" Velocity="105" />
      <note Length="0.0625" Pitch="40" RiffPosition="4.75" Velocity="0" />
      <note Length="0.0625" Pitch="40" RiffPosition="4.8125" Velocity="105" />
      <note Length="0.0625" Pitch="40" RiffPosition="4.875" Velocity="0" />
      <note Length="0.0625" Pitch="40" RiffPosition="4.9375" Velocity="105" />
      <note Length="0.0625" Pitch="40" RiffPosition="5" Velocity="0" />
      <note Length="0.0625" Pitch="40" RiffPosition="5.0625" Velocity="105" />
      <note Length="0.0625" Pitch="40" RiffPosition="5.125" Velocity="0" />
      <note Length="0.0625" Pitch="40" RiffPosition="5.1875" Velocity="105" />
      <note Length="0.0625" Pitch="40" RiffPosition="5.25" Velocity="0" />
      <note Length="0.0625" Pitch="40" RiffPosition="5.3125" Velocity="105" />
      <note Length="0.0625" Pitch="40" RiffPosition="5.375" Velocity="0" />
      <note Length="0.0625" Pitch="40" RiffPosition="5.4375" Velocity="105" />
      <note Length="0.0625" Pitch="40" RiffPosition="5.5" Velocity="0" />
      <note Length="0.0625" Pitch="40" RiffPosition="5.5625" Velocity="105" />
      <note Length="0.0625" Pitch="40" RiffPosition="5.625" Velocity="0" />
      <note Length="0.0625" Pitch="40" RiffPosition="5.6875" Velocity="105" />
      <note Length="0.0625" Pitch="40" RiffPosition="5.75" Velocity="0" />
      <note Length="0.0625" Pitch="40" RiffPosition="5.8125" Velocity="105" />
      <note Length="0.0625" Pitch="40" RiffPosition="5.875" Velocity="0" />
      <note Length="0.0625" Pitch="40" RiffPosition="5.9375" Velocity="105" />
      <note Length="0.0625" Pitch="40" RiffPosition="6" Velocity="0" />
      <note Length="0.0625" Pitch="40" RiffPosition="6.0625" Velocity="105" />
      <note Length="0.0625" Pitch="40" RiffPosition="6.125" Velocity="0" />
      <note Length="0.0625" Pitch="40" RiffPosition="6.1875" Velocity="105" />
      <note Length="0.0625" Pitch="40" RiffPosition="6.25" Velocity="0" />
      <note Length="0.0625" Pitch="40" RiffPosition="6.3125" Velocity="105" />
      <note Length="0.0625" Pitch="40" RiffPosition="6.375" Velocity="0" />
      <note Length="0.0625" Pitch="40" RiffPosition="6.4375" Velocity="105" />
      <note Length="0.0625" Pitch="40" RiffPosition="6.5" Velocity="0" />
      <note Length="0.0625" Pitch="40" RiffPosition="6.5625" Velocity="105" />
      <note Length="0.0625" Pitch="40" RiffPosition="6.625" Velocity="0" />
      <note Length="0.0625" Pitch="40" RiffPosition="6.6875" Velocity="105" />
      <note Length="0.0625" Pitch="40" RiffPosition="6.75" Velocity="0" />
      <note Length="0.0625" Pitch="40" RiffPosition="6.8125" Velocity="105" />
      <note Length="0.0625" Pitch="40" RiffPosition="6.875" Velocity="0" />
      <note Length="0.0625" Pitch="40" RiffPosition="6.9375" Velocity="105" />
      <note Length="0.0625" Pitch="40" RiffPosition="7" Velocity="0" />
      <note Length="0.0625" Pitch="40" RiffPosition="7.0625" Velocity="105" />
      <note Length="0.0625" Pitch="40" RiffPosition="7.125" Velocity="0" />
      <note Length="0.0625" Pitch="40" RiffPosition="7.1875" Velocity="105" />
      <note Length="0.0625" Pitch="40" RiffPosition="7.25" Velocity="0" />
      <note Length="0.0625" Pitch="40" RiffPosition="7.3125" Velocity="105" />
      <note Length="0.0625" Pitch="40" RiffPosition="7.375" Velocity="0" />
      <note Length="0.0625" Pitch="40" RiffPosition="7.4375" Velocity="105" />
      <note Length="0.0625" Pitch="40" RiffPosition="7.5" Velocity="0" />
      <note Length="0.0625" Pitch="40" RiffPosition="7.5625" Velocity="105" />
      <note Length="0.0625" Pitch="40" RiffPosition="7.625" Velocity="0" />
      <note Length="0.0625" Pitch="40" RiffPosition="7.6875" Velocity="105" />
      <note Length="0.0625" Pitch="40" RiffPosition="7.75" Velocity="0" />
      <note Length="0.0625" Pitch="40" RiffPosition="7.8125" Velocity="105" />
      <note Length="0.0625" Pitch="40" RiffPosition="7.875" Velocity="0" />
      <note Length="0.0625" Pitch="40" RiffPosition="7.9375" Velocity="105" />
      <note Length="0.0625" Pitch="40" RiffPosition="8" Velocity="0" />
      <note Length="0.0625" Pitch="40" RiffPosition="8.0625" Velocity="105" />
      <note Length="0.0625" Pitch="40" RiffPosition="8.125" Velocity="0" />
      <note Length="0.0625" Pitch="40" RiffPosition="8.1875" Velocity="105" />
      <note Length="0.0625" Pitch="40" RiffPosition="8.25" Velocity="0" />
      <note Length="0.0625" Pitch="40" RiffPosition="8.3125" Velocity="105" />
      <note Length="0.0625" Pitch="40" RiffPosition="8.375" Velocity="0" />
      <note Length="0.0625" Pitch="40" RiffPosition="8.4375" Velocity="105" />
      <note Length="0.0625" Pitch="40" RiffPosition="8.5" Velocity="0" />
      <note Length="0.0625" Pitch="40" RiffPosition="8.5625" Velocity="105" />
      <note Length="0.0625" Pitch="40" RiffPosition="8.625" Velocity="0" />
      <note Length="0.0625" Pitch="40" RiffPosition="8.6875" Velocity="105" />
      <note Length="0.0625" Pitch="40" RiffPosition="8.75" Velocity="0" />
      <note Length="0.0625" Pitch="40" RiffPosition="8.8125" Velocity="105" />
      <note Length="0.0625" Pitch="40" RiffPosition="8.875" Velocity="0" />
      <note Length="0.0625" Pitch="40" RiffPosition="8.9375" Velocity="105" />
      <note Length="0.0625" Pitch="40" RiffPosition="9" Velocity="0" />
      <note Length="0.0625" Pitch="40" RiffPosition="9.0625" Velocity="0" />
      <note Length="0.0625" Pitch="40" RiffPosition="9.125" Velocity="0" />
      <note Length="0.0625" Pitch="40" RiffPosition="9.1875" Velocity="0" />
      <note Length="0.0625" Pitch="40" RiffPosition="9.25" Velocity="0" />
      <note Length="0.0625" Pitch="40" RiffPosition="9.3125" Velocity="0" />
      <note Length="0.0625" Pitch="40" RiffPosition="9.375" Velocity="0" />
      <note Length="0.0625" Pitch="40" RiffPosition="9.4375" Velocity="0" />
      <note Length="0.0625" Pitch="40" RiffPosition="9.5" Velocity="0" />
      <note Length="0.0625" Pitch="40" RiffPosition="9.5625" Velocity="0" />
      <note Length="0.0625" Pitch="40" RiffPosition="9.625" Velocity="0" />
      <note Length="0.0625" Pitch="40" RiffPosition="9.6875" Velocity="0" />
      <note Length="0.0625" Pitch="40" RiffPosition="9.75" Velocity="0" />
      <note Length="0.0625" Pitch="40" RiffPosition="9.8125" Velocity="0" />
      <note Length="0.0625" Pitch="40" RiffPosition="9.875" Velocity="0" />
      <note Length="0.0625" Pitch="40" RiffPosition="9.9375" Velocity="0" />
      <note Length="0.0625" Pitch="40" RiffPosition="10" Velocity="0" />
      <note Length="0.0625" Pitch="40" RiffPosition="10.0625" Velocity="0" />
      <note Length="0.0625" Pitch="40" RiffPosition="10.125" Velocity="0" />
      <note Length="0.0625" Pitch="40" RiffPosition="10.1875" Velocity="0" />
      <note Length="0.0625" Pitch="40" RiffPosition="10.25" Velocity="0" />
      <note Length="0.0625" Pitch="40" RiffPosition="10.3125" Velocity="0" />
      <note Length="0.0625" Pitch="40" RiffPosition="10.375" Velocity="0" />
      <note Length="0.0625" Pitch="40" RiffPosition="10.4375" Velocity="0" />
      <note Length="0.0625" Pitch="40" RiffPosition="10.5" Velocity="0" />
      <note Length="0.0625" Pitch="40" RiffPosition="10.5625" Velocity="0" />
      <note Length="0.0625" Pitch="40" RiffPosition="10.625" Velocity="0" />
      <note Length="0.0625" Pitch="40" RiffPosition="10.6875" Velocity="0" />
      <note Length="0.0625" Pitch="40" RiffPosition="10.75" Velocity="0" />
      <note Length="0.0625" Pitch="40" RiffPosition="10.8125" Velocity="0" />
      <note Length="0.0625" Pitch="40" RiffPosition="10.875" Velocity="0" />
      <note Length="0.0625" Pitch="40" RiffPosition="10.9375" Velocity="0" />
      <note Length="0.0625" Pitch="40" RiffPosition="11" Velocity="0" />
      <note Length="0.0625" Pitch="40" RiffPosition="11.0625" Velocity="105" />
      <note Length="0.0625" Pitch="40" RiffPosition="11.125" Velocity="0" />
      <note Length="0.0625" Pitch="40" RiffPosition="11.1875" Velocity="105" />
      <note Length="0.0625" Pitch="40" RiffPosition="11.25" Velocity="0" />
      <note Length="0.0625" Pitch="40" RiffPosition="11.3125" Velocity="105" />
      <note Length="0.0625" Pitch="40" RiffPosition="11.375" Velocity="0" />
      <note Length="0.0625" Pitch="40" RiffPosition="11.4375" Velocity="105" />
      <note Length="0.0625" Pitch="40" RiffPosition="11.5" Velocity="0" />
      <note Length="0.0625" Pitch="40" RiffPosition="11.5625" Velocity="105" />
      <note Length="0.0625" Pitch="40" RiffPosition="11.625" Velocity="0" />
      <note Length="0.0625" Pitch="40" RiffPosition="11.6875" Velocity="105" />
      <note Length="0.0625" Pitch="40" RiffPosition="11.75" Velocity="0" />
      <note Length="0.0625" Pitch="40" RiffPosition="11.8125" Velocity="105" />
      <note Length="0.0625" Pitch="40" RiffPosition="11.875" Velocity="0" />
      <note Length="0.0625" Pitch="40" RiffPosition="11.9375" Velocity="105" />
    </riff>
    <riff IsDrum="False" MidiInstrument="34" Tempo="117" Length="12">
      <note Length="0.03125" Pitch="43" RiffPosition="0" Velocity="0" />
      <note Length="0.015625" Pitch="31" RiffPosition="0.03125" Velocity="0" />
      <note Length="0.015625" Pitch="39" RiffPosition="0.046875" Velocity="0" />
      <note Length="0.03125" Pitch="38" RiffPosition="0.0625" Velocity="0" />
      <note Length="0.03125" Pitch="31" RiffPosition="0.09375" Velocity="0" />
      <note Length="0.03125" Pitch="43" RiffPosition="0.125" Velocity="0" />
      <note Length="0.015625" Pitch="31" RiffPosition="0.15625" Velocity="0" />
      <note Length="0.015625" Pitch="39" RiffPosition="0.171875" Velocity="0" />
      <note Length="0.03125" Pitch="31" RiffPosition="0.1875" Velocity="0" />
      <note Length="0.03125" Pitch="31" RiffPosition="0.21875" Velocity="0" />
      <note Length="0.03125" Pitch="45" RiffPosition="0.25" Velocity="0" />
      <note Length="0.015625" Pitch="31" RiffPosition="0.28125" Velocity="0" />
      <note Length="0.015625" Pitch="31" RiffPosition="0.296875" Velocity="0" />
      <note Length="0.03125" Pitch="31" RiffPosition="0.3125" Velocity="0" />
      <note Length="0.03125" Pitch="43" RiffPosition="0.34375" Velocity="0" />
      <note Length="0.03125" Pitch="46" RiffPosition="0.375" Velocity="0" />
      <note Length="0.015625" Pitch="43" RiffPosition="0.40625" Velocity="0" />
      <note Length="0.015625" Pitch="31" RiffPosition="0.421875" Velocity="0" />
      <note Length="0.03125" Pitch="31" RiffPosition="0.4375" Velocity="0" />
      <note Length="0.03125" Pitch="45" RiffPosition="0.46875" Velocity="0" />
      <note Length="0.03125" Pitch="48" RiffPosition="0.5" Velocity="0" />
      <note Length="0.015625" Pitch="46" RiffPosition="0.53125" Velocity="0" />
      <note Length="0.015625" Pitch="31" RiffPosition="0.546875" Velocity="0" />
      <note Length="0.03125" Pitch="31" RiffPosition="0.5625" Velocity="0" />
      <note Length="0.03125" Pitch="43" RiffPosition="0.59375" Velocity="0" />
      <note Length="0.03125" Pitch="46" RiffPosition="0.625" Velocity="0" />
      <note Length="0.015625" Pitch="43" RiffPosition="0.65625" Velocity="0" />
      <note Length="0.015625" Pitch="31" RiffPosition="0.671875" Velocity="0" />
      <note Length="0.03125" Pitch="31" RiffPosition="0.6875" Velocity="0" />
      <note Length="0.03125" Pitch="43" RiffPosition="0.71875" Velocity="0" />
      <note Length="0.03125" Pitch="45" RiffPosition="0.75" Velocity="0" />
      <note Length="0.015625" Pitch="31" RiffPosition="0.78125" Velocity="0" />
      <note Length="0.015625" Pitch="31" RiffPosition="0.796875" Velocity="0" />
      <note Length="0.03125" Pitch="31" RiffPosition="0.8125" Velocity="0" />
      <note Length="0.03125" Pitch="31" RiffPosition="0.84375" Velocity="0" />
      <note Length="0.03125" Pitch="43" RiffPosition="0.875" Velocity="0" />
      <note Length="0.015625" Pitch="31" RiffPosition="0.90625" Velocity="0" />
      <note Length="0.015625" Pitch="39" RiffPosition="0.921875" Velocity="0" />
      <note Length="0.03125" Pitch="39" RiffPosition="0.9375" Velocity="0" />
      <note Length="0.03125" Pitch="31" RiffPosition="0.96875" Velocity="0" />
      <note Length="0.03125" Pitch="43" RiffPosition="1" Velocity="0" />
      <note Length="0.015625" Pitch="31" RiffPosition="1.03125" Velocity="0" />
      <note Length="0.015625" Pitch="39" RiffPosition="1.046875" Velocity="0" />
      <note Length="0.03125" Pitch="39" RiffPosition="1.0625" Velocity="0" />
      <note Length="0.03125" Pitch="31" RiffPosition="1.09375" Velocity="0" />
      <note Length="0.03125" Pitch="43" RiffPosition="1.125" Velocity="0" />
      <note Length="0.015625" Pitch="31" RiffPosition="1.15625" Velocity="0" />
      <note Length="0.015625" Pitch="39" RiffPosition="1.171875" Velocity="0" />
      <note Length="0.03125" Pitch="31" RiffPosition="1.1875" Velocity="0" />
      <note Length="0.03125" Pitch="31" RiffPosition="1.21875" Velocity="0" />
      <note Length="0.03125" Pitch="45" RiffPosition="1.25" Velocity="0" />
      <note Length="0.015625" Pitch="31" RiffPosition="1.28125" Velocity="0" />
      <note Length="0.015625" Pitch="31" RiffPosition="1.296875" Velocity="0" />
      <note Length="0.03125" Pitch="31" RiffPosition="1.3125" Velocity="0" />
      <note Length="0.03125" Pitch="43" RiffPosition="1.34375" Velocity="0" />
      <note Length="0.03125" Pitch="46" RiffPosition="1.375" Velocity="0" />
      <note Length="0.015625" Pitch="43" RiffPosition="1.40625" Velocity="0" />
      <note Length="0.015625" Pitch="31" RiffPosition="1.421875" Velocity="0" />
      <note Length="0.03125" Pitch="31" RiffPosition="1.4375" Velocity="0" />
      <note Length="0.03125" Pitch="45" RiffPosition="1.46875" Velocity="0" />
      <note Length="0.03125" Pitch="48" RiffPosition="1.5" Velocity="0" />
      <note Length="0.015625" Pitch="45" RiffPosition="1.53125" Velocity="0" />
      <note Length="0.015625" Pitch="31" RiffPosition="1.546875" Velocity="0" />
      <note Length="0.03125" Pitch="31" RiffPosition="1.5625" Velocity="0" />
      <note Length="0.03125" Pitch="45" RiffPosition="1.59375" Velocity="0" />
      <note Length="0.03125" Pitch="46" RiffPosition="1.625" Velocity="0" />
      <note Length="0.015625" Pitch="43" RiffPosition="1.65625" Velocity="0" />
      <note Length="0.015625" Pitch="31" RiffPosition="1.671875" Velocity="0" />
      <note Length="0.03125" Pitch="31" RiffPosition="1.6875" Velocity="0" />
      <note Length="0.03125" Pitch="43" RiffPosition="1.71875" Velocity="0" />
      <note Length="0.03125" Pitch="46" RiffPosition="1.75" Velocity="0" />
      <note Length="0.015625" Pitch="31" RiffPosition="1.78125" Velocity="0" />
      <note Length="0.015625" Pitch="31" RiffPosition="1.796875" Velocity="0" />
      <note Length="0.03125" Pitch="31" RiffPosition="1.8125" Velocity="0" />
      <note Length="0.03125" Pitch="31" RiffPosition="1.84375" Velocity="0" />
      <note Length="0.03125" Pitch="43" RiffPosition="1.875" Velocity="0" />
      <note Length="0.015625" Pitch="31" RiffPosition="1.90625" Velocity="0" />
      <note Length="0.015625" Pitch="39" RiffPosition="1.921875" Velocity="0" />
      <note Length="0.03125" Pitch="39" RiffPosition="1.9375" Velocity="0" />
      <note Length="0.03125" Pitch="31" RiffPosition="1.96875" Velocity="0" />
      <note Length="0.03125" Pitch="43" RiffPosition="2" Velocity="0" />
      <note Length="0.015625" Pitch="31" RiffPosition="2.03125" Velocity="0" />
      <note Length="0.015625" Pitch="38" RiffPosition="2.046875" Velocity="0" />
      <note Length="0.03125" Pitch="39" RiffPosition="2.0625" Velocity="0" />
      <note Length="0.03125" Pitch="31" RiffPosition="2.09375" Velocity="0" />
      <note Length="0.03125" Pitch="43" RiffPosition="2.125" Velocity="0" />
      <note Length="0.015625" Pitch="31" RiffPosition="2.15625" Velocity="0" />
      <note Length="0.015625" Pitch="31" RiffPosition="2.171875" Velocity="0" />
      <note Length="0.03125" Pitch="31" RiffPosition="2.1875" Velocity="0" />
      <note Length="0.03125" Pitch="31" RiffPosition="2.21875" Velocity="0" />
      <note Length="0.03125" Pitch="45" RiffPosition="2.25" Velocity="0" />
      <note Length="0.015625" Pitch="43" RiffPosition="2.28125" Velocity="0" />
      <note Length="0.015625" Pitch="31" RiffPosition="2.296875" Velocity="0" />
      <note Length="0.03125" Pitch="31" RiffPosition="2.3125" Velocity="0" />
      <note Length="0.03125" Pitch="43" RiffPosition="2.34375" Velocity="0" />
      <note Length="0.03125" Pitch="46" RiffPosition="2.375" Velocity="0" />
      <note Length="0.015625" Pitch="43" RiffPosition="2.40625" Velocity="0" />
      <note Length="0.015625" Pitch="31" RiffPosition="2.421875" Velocity="0" />
      <note Length="0.03125" Pitch="31" RiffPosition="2.4375" Velocity="0" />
      <note Length="0.03125" Pitch="45" RiffPosition="2.46875" Velocity="0" />
      <note Length="0.03125" Pitch="46" RiffPosition="2.5" Velocity="0" />
      <note Length="0.015625" Pitch="45" RiffPosition="2.53125" Velocity="0" />
      <note Length="0.015625" Pitch="43" RiffPosition="2.546875" Velocity="0" />
      <note Length="0.03125" Pitch="31" RiffPosition="2.5625" Velocity="0" />
      <note Length="0.03125" Pitch="45" RiffPosition="2.59375" Velocity="0" />
      <note Length="0.03125" Pitch="46" RiffPosition="2.625" Velocity="0" />
      <note Length="0.015625" Pitch="43" RiffPosition="2.65625" Velocity="0" />
      <note Length="0.015625" Pitch="31" RiffPosition="2.671875" Velocity="0" />
      <note Length="0.03125" Pitch="31" RiffPosition="2.6875" Velocity="0" />
      <note Length="0.03125" Pitch="43" RiffPosition="2.71875" Velocity="0" />
      <note Length="0.03125" Pitch="46" RiffPosition="2.75" Velocity="0" />
      <note Length="0.015625" Pitch="31" RiffPosition="2.78125" Velocity="0" />
      <note Length="0.015625" Pitch="31" RiffPosition="2.796875" Velocity="0" />
      <note Length="0.03125" Pitch="31" RiffPosition="2.8125" Velocity="0" />
      <note Length="0.03125" Pitch="31" RiffPosition="2.84375" Velocity="0" />
      <note Length="0.03125" Pitch="43" RiffPosition="2.875" Velocity="0" />
      <note Length="0.015625" Pitch="31" RiffPosition="2.90625" Velocity="0" />
      <note Length="0.015625" Pitch="31" RiffPosition="2.921875" Velocity="0" />
      <note Length="0.03125" Pitch="39" RiffPosition="2.9375" Velocity="0" />
      <note Length="0.03125" Pitch="31" RiffPosition="2.96875" Velocity="0" />
      <note Length="0.03125" Pitch="43" RiffPosition="3" Velocity="38" />
      <note Length="0.015625" Pitch="31" RiffPosition="3.03125" Velocity="52" />
      <note Length="0.015625" Pitch="38" RiffPosition="3.046875" Velocity="42" />
      <note Length="0.03125" Pitch="39" RiffPosition="3.0625" Velocity="67" />
      <note Length="0.03125" Pitch="31" RiffPosition="3.09375" Velocity="54" />
      <note Length="0.03125" Pitch="43" RiffPosition="3.125" Velocity="41" />
      <note Length="0.015625" Pitch="31" RiffPosition="3.15625" Velocity="41" />
      <note Length="0.015625" Pitch="31" RiffPosition="3.171875" Velocity="53" />
      <note Length="0.03125" Pitch="39" RiffPosition="3.1875" Velocity="76" />
      <note Length="0.03125" Pitch="31" RiffPosition="3.21875" Velocity="62" />
      <note Length="0.03125" Pitch="45" RiffPosition="3.25" Velocity="46" />
      <note Length="0.015625" Pitch="43" RiffPosition="3.28125" Velocity="41" />
      <note Length="0.015625" Pitch="31" RiffPosition="3.296875" Velocity="51" />
      <note Length="0.03125" Pitch="31" RiffPosition="3.3125" Velocity="59" />
      <note Length="0.03125" Pitch="43" RiffPosition="3.34375" Velocity="53" />
      <note Length="0.03125" Pitch="46" RiffPosition="3.375" Velocity="38" />
      <note Length="0.015625" Pitch="43" RiffPosition="3.40625" Velocity="59" />
      <note Length="0.015625" Pitch="31" RiffPosition="3.421875" Velocity="39" />
      <note Length="0.03125" Pitch="31" RiffPosition="3.4375" Velocity="80" />
      <note Length="0.03125" Pitch="45" RiffPosition="3.46875" Velocity="98" />
      <note Length="0.03125" Pitch="48" RiffPosition="3.5" Velocity="50" />
      <note Length="0.015625" Pitch="45" RiffPosition="3.53125" Velocity="63" />
      <note Length="0.015625" Pitch="31" RiffPosition="3.546875" Velocity="38" />
      <note Length="0.03125" Pitch="31" RiffPosition="3.5625" Velocity="74" />
      <note Length="0.03125" Pitch="45" RiffPosition="3.59375" Velocity="84" />
      <note Length="0.03125" Pitch="46" RiffPosition="3.625" Velocity="38" />
      <note Length="0.015625" Pitch="43" RiffPosition="3.65625" Velocity="40" />
      <note Length="0.015625" Pitch="31" RiffPosition="3.671875" Velocity="74" />
      <note Length="0.03125" Pitch="31" RiffPosition="3.6875" Velocity="46" />
      <note Length="0.03125" Pitch="31" RiffPosition="3.71875" Velocity="52" />
      <note Length="0.03125" Pitch="46" RiffPosition="3.75" Velocity="57" />
      <note Length="0.015625" Pitch="31" RiffPosition="3.78125" Velocity="70" />
      <note Length="0.015625" Pitch="31" RiffPosition="3.796875" Velocity="37" />
      <note Length="0.03125" Pitch="31" RiffPosition="3.8125" Velocity="65" />
      <note Length="0.03125" Pitch="31" RiffPosition="3.84375" Velocity="59" />
      <note Length="0.03125" Pitch="45" RiffPosition="3.875" Velocity="53" />
      <note Length="0.015625" Pitch="31" RiffPosition="3.90625" Velocity="45" />
      <note Length="0.015625" Pitch="39" RiffPosition="3.921875" Velocity="71" />
      <note Length="0.03125" Pitch="38" RiffPosition="3.9375" Velocity="97" />
      <note Length="0.03125" Pitch="31" RiffPosition="3.96875" Velocity="84" />
      <note Length="0.03125" Pitch="31" RiffPosition="4" Velocity="65" />
      <note Length="0.015625" Pitch="31" RiffPosition="4.03125" Velocity="45" />
      <note Length="0.015625" Pitch="38" RiffPosition="4.046875" Velocity="65" />
      <note Length="0.03125" Pitch="39" RiffPosition="4.0625" Velocity="85" />
      <note Length="0.03125" Pitch="31" RiffPosition="4.09375" Velocity="64" />
      <note Length="0.03125" Pitch="43" RiffPosition="4.125" Velocity="42" />
      <note Length="0.015625" Pitch="31" RiffPosition="4.15625" Velocity="49" />
      <note Length="0.015625" Pitch="31" RiffPosition="4.171875" Velocity="41" />
      <note Length="0.03125" Pitch="31" RiffPosition="4.1875" Velocity="69" />
      <note Length="0.03125" Pitch="31" RiffPosition="4.21875" Velocity="42" />
      <note Length="0.03125" Pitch="45" RiffPosition="4.25" Velocity="46" />
      <note Length="0.015625" Pitch="43" RiffPosition="4.28125" Velocity="63" />
      <note Length="0.015625" Pitch="31" RiffPosition="4.296875" Velocity="40" />
      <note Length="0.03125" Pitch="31" RiffPosition="4.3125" Velocity="79" />
      <note Length="0.03125" Pitch="43" RiffPosition="4.34375" Velocity="93" />
      <note Length="0.03125" Pitch="46" RiffPosition="4.375" Velocity="45" />
      <note Length="0.015625" Pitch="45" RiffPosition="4.40625" Velocity="58" />
      <note Length="0.015625" Pitch="31" RiffPosition="4.421875" Velocity="36" />
      <note Length="0.03125" Pitch="31" RiffPosition="4.4375" Velocity="71" />
      <note Length="0.03125" Pitch="43" RiffPosition="4.46875" Velocity="80" />
      <note Length="0.03125" Pitch="48" RiffPosition="4.5" Velocity="46" />
      <note Length="0.015625" Pitch="45" RiffPosition="4.53125" Velocity="40" />
      <note Length="0.015625" Pitch="31" RiffPosition="4.546875" Velocity="64" />
      <note Length="0.03125" Pitch="31" RiffPosition="4.5625" Velocity="37" />
      <note Length="0.03125" Pitch="43" RiffPosition="4.59375" Velocity="46" />
      <note Length="0.03125" Pitch="46" RiffPosition="4.625" Velocity="56" />
      <note Length="0.015625" Pitch="43" RiffPosition="4.65625" Velocity="65" />
      <note Length="0.015625" Pitch="31" RiffPosition="4.671875" Velocity="42" />
      <note Length="0.03125" Pitch="31" RiffPosition="4.6875" Velocity="53" />
      <note Length="0.03125" Pitch="43" RiffPosition="4.71875" Velocity="40" />
      <note Length="0.03125" Pitch="45" RiffPosition="4.75" Velocity="44" />
      <note Length="0.015625" Pitch="31" RiffPosition="4.78125" Velocity="58" />
      <note Length="0.015625" Pitch="31" RiffPosition="4.796875" Velocity="36" />
      <note Length="0.03125" Pitch="31" RiffPosition="4.8125" Velocity="60" />
      <note Length="0.03125" Pitch="31" RiffPosition="4.84375" Velocity="47" />
      <note Length="0.03125" Pitch="43" RiffPosition="4.875" Velocity="35" />
      <note Length="0.015625" Pitch="31" RiffPosition="4.90625" Velocity="47" />
      <note Length="0.015625" Pitch="39" RiffPosition="4.921875" Velocity="49" />
      <note Length="0.03125" Pitch="39" RiffPosition="4.9375" Velocity="75" />
      <note Length="0.03125" Pitch="31" RiffPosition="4.96875" Velocity="63" />
      <note Length="0.03125" Pitch="31" RiffPosition="5" Velocity="48" />
      <note Length="0.015625" Pitch="31" RiffPosition="5.03125" Velocity="36" />
      <note Length="0.015625" Pitch="38" RiffPosition="5.046875" Velocity="59" />
      <note Length="0.03125" Pitch="38" RiffPosition="5.0625" Velocity="49" />
      <note Length="0.03125" Pitch="31" RiffPosition="5.09375" Velocity="70" />
      <note Length="0.03125" Pitch="43" RiffPosition="5.125" Velocity="58" />
      <note Length="0.015625" Pitch="31" RiffPosition="5.15625" Velocity="45" />
      <note Length="0.015625" Pitch="31" RiffPosition="5.171875" Velocity="69" />
      <note Length="0.03125" Pitch="31" RiffPosition="5.1875" Velocity="39" />
      <note Length="0.03125" Pitch="31" RiffPosition="5.21875" Velocity="53" />
      <note Length="0.03125" Pitch="46" RiffPosition="5.25" Velocity="63" />
      <note Length="0.015625" Pitch="43" RiffPosition="5.28125" Velocity="46" />
      <note Length="0.015625" Pitch="31" RiffPosition="5.296875" Velocity="67" />
      <note Length="0.03125" Pitch="31" RiffPosition="5.3125" Velocity="43" />
      <note Length="0.03125" Pitch="43" RiffPosition="5.34375" Velocity="62" />
      <note Length="0.03125" Pitch="46" RiffPosition="5.375" Velocity="49" />
      <note Length="0.015625" Pitch="43" RiffPosition="5.40625" Velocity="43" />
      <note Length="0.015625" Pitch="31" RiffPosition="5.421875" Velocity="84" />
      <note Length="0.03125" Pitch="31" RiffPosition="5.4375" Velocity="64" />
      <note Length="0.03125" Pitch="43" RiffPosition="5.46875" Velocity="82" />
      <note Length="0.03125" Pitch="48" RiffPosition="5.5" Velocity="95" />
      <note Length="0.015625" Pitch="45" RiffPosition="5.53125" Velocity="46" />
      <note Length="0.015625" Pitch="31" RiffPosition="5.546875" Velocity="83" />
      <note Length="0.03125" Pitch="31" RiffPosition="5.5625" Velocity="58" />
      <note Length="0.03125" Pitch="43" RiffPosition="5.59375" Velocity="68" />
      <note Length="0.03125" Pitch="46" RiffPosition="5.625" Velocity="77" />
      <note Length="0.015625" Pitch="43" RiffPosition="5.65625" Velocity="85" />
      <note Length="0.015625" Pitch="31" RiffPosition="5.671875" Velocity="57" />
      <note Length="0.03125" Pitch="31" RiffPosition="5.6875" Velocity="40" />
      <note Length="0.03125" Pitch="43" RiffPosition="5.71875" Velocity="35" />
      <note Length="0.03125" Pitch="45" RiffPosition="5.75" Velocity="40" />
      <note Length="0.015625" Pitch="43" RiffPosition="5.78125" Velocity="45" />
      <note Length="0.015625" Pitch="31" RiffPosition="5.796875" Velocity="53" />
      <note Length="0.03125" Pitch="31" RiffPosition="5.8125" Velocity="81" />
      <note Length="0.03125" Pitch="31" RiffPosition="5.84375" Velocity="75" />
      <note Length="0.03125" Pitch="43" RiffPosition="5.875" Velocity="69" />
      <note Length="0.015625" Pitch="31" RiffPosition="5.90625" Velocity="61" />
      <note Length="0.015625" Pitch="39" RiffPosition="5.921875" Velocity="88" />
      <note Length="0.03125" Pitch="39" RiffPosition="5.9375" Velocity="52" />
      <note Length="0.03125" Pitch="31" RiffPosition="5.96875" Velocity="100" />
      <note Length="0.03125" Pitch="31" RiffPosition="6" Velocity="81" />
      <note Length="0.015625" Pitch="31" RiffPosition="6.03125" Velocity="61" />
      <note Length="0.015625" Pitch="39" RiffPosition="6.046875" Velocity="81" />
      <note Length="0.03125" Pitch="38" RiffPosition="6.0625" Velocity="40" />
      <note Length="0.03125" Pitch="31" RiffPosition="6.09375" Velocity="80" />
      <note Length="0.03125" Pitch="43" RiffPosition="6.125" Velocity="58" />
      <note Length="0.015625" Pitch="31" RiffPosition="6.15625" Velocity="37" />
      <note Length="0.015625" Pitch="39" RiffPosition="6.171875" Velocity="58" />
      <note Length="0.03125" Pitch="31" RiffPosition="6.1875" Velocity="53" />
      <note Length="0.03125" Pitch="31" RiffPosition="6.21875" Velocity="73" />
      <note Length="0.03125" Pitch="45" RiffPosition="6.25" Velocity="40" />
      <note Length="0.015625" Pitch="43" RiffPosition="6.28125" Velocity="47" />
      <note Length="0.015625" Pitch="31" RiffPosition="6.296875" Velocity="85" />
      <note Length="0.03125" Pitch="31" RiffPosition="6.3125" Velocity="62" />
      <note Length="0.03125" Pitch="43" RiffPosition="6.34375" Velocity="77" />
      <note Length="0.03125" Pitch="46" RiffPosition="6.375" Velocity="90" />
      <note Length="0.015625" Pitch="43" RiffPosition="6.40625" Velocity="42" />
      <note Length="0.015625" Pitch="31" RiffPosition="6.421875" Velocity="79" />
      <note Length="0.03125" Pitch="31" RiffPosition="6.4375" Velocity="54" />
      <note Length="0.03125" Pitch="45" RiffPosition="6.46875" Velocity="64" />
      <note Length="0.03125" Pitch="48" RiffPosition="6.5" Velocity="69" />
      <note Length="0.015625" Pitch="45" RiffPosition="6.53125" Velocity="56" />
      <note Length="0.015625" Pitch="31" RiffPosition="6.546875" Velocity="48" />
      <note Length="0.03125" Pitch="31" RiffPosition="6.5625" Velocity="49" />
      <note Length="0.03125" Pitch="43" RiffPosition="6.59375" Velocity="41" />
      <note Length="0.03125" Pitch="46" RiffPosition="6.625" Velocity="39" />
      <note Length="0.015625" Pitch="43" RiffPosition="6.65625" Velocity="50" />
      <note Length="0.015625" Pitch="31" RiffPosition="6.671875" Velocity="44" />
      <note Length="0.03125" Pitch="31" RiffPosition="6.6875" Velocity="69" />
      <note Length="0.03125" Pitch="43" RiffPosition="6.71875" Velocity="56" />
      <note Length="0.03125" Pitch="45" RiffPosition="6.75" Velocity="42" />
      <note Length="0.015625" Pitch="43" RiffPosition="6.78125" Velocity="42" />
      <note Length="0.015625" Pitch="31" RiffPosition="6.796875" Velocity="52" />
      <note Length="0.03125" Pitch="31" RiffPosition="6.8125" Velocity="55" />
      <note Length="0.03125" Pitch="31" RiffPosition="6.84375" Velocity="63" />
      <note Length="0.03125" Pitch="43" RiffPosition="6.875" Velocity="51" />
      <note Length="0.015625" Pitch="31" RiffPosition="6.90625" Velocity="40" />
      <note Length="0.015625" Pitch="39" RiffPosition="6.921875" Velocity="65" />
      <note Length="0.03125" Pitch="39" RiffPosition="6.9375" Velocity="40" />
      <note Length="0.03125" Pitch="31" RiffPosition="6.96875" Velocity="80" />
      <note Length="0.03125" Pitch="43" RiffPosition="7" Velocity="65" />
      <note Length="0.015625" Pitch="31" RiffPosition="7.03125" Velocity="51" />
      <note Length="0.015625" Pitch="39" RiffPosition="7.046875" Velocity="75" />
      <note Length="0.03125" Pitch="38" RiffPosition="7.0625" Velocity="38" />
      <note Length="0.03125" Pitch="31" RiffPosition="7.09375" Velocity="45" />
      <note Length="0.03125" Pitch="43" RiffPosition="7.125" Velocity="74" />
      <note Length="0.015625" Pitch="31" RiffPosition="7.15625" Velocity="61" />
      <note Length="0.015625" Pitch="39" RiffPosition="7.171875" Velocity="46" />
      <note Length="0.03125" Pitch="31" RiffPosition="7.1875" Velocity="48" />
      <note Length="0.03125" Pitch="43" RiffPosition="7.21875" Velocity="37" />
      <note Length="0.03125" Pitch="45" RiffPosition="7.25" Velocity="53" />
      <note Length="0.015625" Pitch="31" RiffPosition="7.28125" Velocity="62" />
      <note Length="0.015625" Pitch="31" RiffPosition="7.296875" Velocity="48" />
      <note Length="0.03125" Pitch="31" RiffPosition="7.3125" Velocity="44" />
      <note Length="0.03125" Pitch="43" RiffPosition="7.34375" Velocity="46" />
      <note Length="0.03125" Pitch="46" RiffPosition="7.375" Velocity="66" />
      <note Length="0.015625" Pitch="43" RiffPosition="7.40625" Velocity="44" />
      <note Length="0.015625" Pitch="31" RiffPosition="7.421875" Velocity="68" />
      <note Length="0.03125" Pitch="31" RiffPosition="7.4375" Velocity="48" />
      <note Length="0.03125" Pitch="45" RiffPosition="7.46875" Velocity="66" />
      <note Length="0.03125" Pitch="48" RiffPosition="7.5" Velocity="79" />
      <note Length="0.015625" Pitch="46" RiffPosition="7.53125" Velocity="92" />
      <note Length="0.015625" Pitch="31" RiffPosition="7.546875" Velocity="67" />
      <note Length="0.03125" Pitch="31" RiffPosition="7.5625" Velocity="42" />
      <note Length="0.03125" Pitch="43" RiffPosition="7.59375" Velocity="52" />
      <note Length="0.03125" Pitch="46" RiffPosition="7.625" Velocity="61" />
      <note Length="0.015625" Pitch="43" RiffPosition="7.65625" Velocity="68" />
      <note Length="0.015625" Pitch="31" RiffPosition="7.671875" Velocity="41" />
      <note Length="0.03125" Pitch="31" RiffPosition="7.6875" Velocity="75" />
      <note Length="0.03125" Pitch="43" RiffPosition="7.71875" Velocity="51" />
      <note Length="0.03125" Pitch="45" RiffPosition="7.75" Velocity="46" />
      <note Length="0.015625" Pitch="31" RiffPosition="7.78125" Velocity="41" />
      <note Length="0.015625" Pitch="31" RiffPosition="7.796875" Velocity="69" />
      <note Length="0.03125" Pitch="31" RiffPosition="7.8125" Velocity="36" />
      <note Length="0.03125" Pitch="31" RiffPosition="7.84375" Velocity="92" />
      <note Length="0.03125" Pitch="43" RiffPosition="7.875" Velocity="85" />
      <note Length="0.015625" Pitch="31" RiffPosition="7.90625" Velocity="78" />
      <note Length="0.015625" Pitch="39" RiffPosition="7.921875" Velocity="104" />
      <note Length="0.03125" Pitch="39" RiffPosition="7.9375" Velocity="69" />
      <note Length="0.03125" Pitch="31" RiffPosition="7.96875" Velocity="55" />
      <note Length="0.03125" Pitch="43" RiffPosition="8" Velocity="97" />
      <note Length="0.015625" Pitch="31" RiffPosition="8.03125" Velocity="77" />
      <note Length="0.015625" Pitch="38" RiffPosition="8.046875" Velocity="36" />
      <note Length="0.03125" Pitch="39" RiffPosition="8.0625" Velocity="56" />
      <note Length="0.03125" Pitch="31" RiffPosition="8.09375" Velocity="35" />
      <note Length="0.03125" Pitch="43" RiffPosition="8.125" Velocity="57" />
      <note Length="0.015625" Pitch="31" RiffPosition="8.15625" Velocity="54" />
      <note Length="0.015625" Pitch="31" RiffPosition="8.171875" Velocity="57" />
      <note Length="0.03125" Pitch="31" RiffPosition="8.1875" Velocity="37" />
      <note Length="0.03125" Pitch="31" RiffPosition="8.21875" Velocity="56" />
      <note Length="0.03125" Pitch="45" RiffPosition="8.25" Velocity="75" />
      <note Length="0.015625" Pitch="31" RiffPosition="8.28125" Velocity="40" />
      <note Length="0.015625" Pitch="31" RiffPosition="8.296875" Velocity="69" />
      <note Length="0.03125" Pitch="31" RiffPosition="8.3125" Velocity="46" />
      <note Length="0.03125" Pitch="43" RiffPosition="8.34375" Velocity="61" />
      <note Length="0.03125" Pitch="46" RiffPosition="8.375" Velocity="74" />
      <note Length="0.015625" Pitch="43" RiffPosition="8.40625" Velocity="87" />
      <note Length="0.015625" Pitch="31" RiffPosition="8.421875" Velocity="63" />
      <note Length="0.03125" Pitch="31" RiffPosition="8.4375" Velocity="38" />
      <note Length="0.03125" Pitch="45" RiffPosition="8.46875" Velocity="47" />
      <note Length="0.03125" Pitch="46" RiffPosition="8.5" Velocity="53" />
      <note Length="0.015625" Pitch="45" RiffPosition="8.53125" Velocity="59" />
      <note Length="0.015625" Pitch="31" RiffPosition="8.546875" Velocity="38" />
      <note Length="0.03125" Pitch="31" RiffPosition="8.5625" Velocity="66" />
      <note Length="0.03125" Pitch="45" RiffPosition="8.59375" Velocity="57" />
      <note Length="0.03125" Pitch="46" RiffPosition="8.625" Velocity="47" />
      <note Length="0.015625" Pitch="43" RiffPosition="8.65625" Velocity="36" />
      <note Length="0.015625" Pitch="31" RiffPosition="8.671875" Velocity="61" />
      <note Length="0.03125" Pitch="31" RiffPosition="8.6875" Velocity="46" />
      <note Length="0.03125" Pitch="43" RiffPosition="8.71875" Velocity="72" />
      <note Length="0.03125" Pitch="46" RiffPosition="8.75" Velocity="58" />
      <note Length="0.015625" Pitch="31" RiffPosition="8.78125" Velocity="45" />
      <note Length="0.015625" Pitch="31" RiffPosition="8.796875" Velocity="68" />
      <note Length="0.03125" Pitch="31" RiffPosition="8.8125" Velocity="39" />
      <note Length="0.03125" Pitch="31" RiffPosition="8.84375" Velocity="52" />
      <note Length="0.03125" Pitch="43" RiffPosition="8.875" Velocity="67" />
      <note Length="0.015625" Pitch="31" RiffPosition="8.90625" Velocity="56" />
      <note Length="0.015625" Pitch="38" RiffPosition="8.921875" Velocity="50" />
      <note Length="0.03125" Pitch="39" RiffPosition="8.9375" Velocity="46" />
      <note Length="0.03125" Pitch="31" RiffPosition="8.96875" Velocity="36" />
      <note Length="0.03125" Pitch="43" RiffPosition="9" Velocity="50" />
      <note Length="0.015625" Pitch="31" RiffPosition="9.03125" Velocity="67" />
      <note Length="0.015625" Pitch="38" RiffPosition="9.046875" Velocity="40" />
      <note Length="0.03125" Pitch="39" RiffPosition="9.0625" Velocity="54" />
      <note Length="0.03125" Pitch="31" RiffPosition="9.09375" Velocity="41" />
      <note Length="0.03125" Pitch="43" RiffPosition="9.125" Velocity="41" />
      <note Length="0.015625" Pitch="31" RiffPosition="9.15625" Velocity="77" />
      <note Length="0.015625" Pitch="31" RiffPosition="9.171875" Velocity="40" />
      <note Length="0.03125" Pitch="39" RiffPosition="9.1875" Velocity="64" />
      <note Length="0.03125" Pitch="31" RiffPosition="9.21875" Velocity="49" />
      <note Length="0.03125" Pitch="45" RiffPosition="9.25" Velocity="36" />
      <note Length="0.015625" Pitch="43" RiffPosition="9.28125" Velocity="53" />
      <note Length="0.015625" Pitch="31" RiffPosition="9.296875" Velocity="38" />
      <note Length="0.03125" Pitch="31" RiffPosition="9.3125" Velocity="60" />
      <note Length="0.03125" Pitch="43" RiffPosition="9.34375" Velocity="40" />
      <note Length="0.03125" Pitch="46" RiffPosition="9.375" Velocity="50" />
      <note Length="0.015625" Pitch="43" RiffPosition="9.40625" Velocity="71" />
      <note Length="0.015625" Pitch="31" RiffPosition="9.421875" Velocity="51" />
      <note Length="0.03125" Pitch="31" RiffPosition="9.4375" Velocity="93" />
      <note Length="0.03125" Pitch="45" RiffPosition="9.46875" Velocity="49" />
      <note Length="0.03125" Pitch="48" RiffPosition="9.5" Velocity="63" />
      <note Length="0.015625" Pitch="45" RiffPosition="9.53125" Velocity="75" />
      <note Length="0.015625" Pitch="43" RiffPosition="9.546875" Velocity="50" />
      <note Length="0.03125" Pitch="31" RiffPosition="9.5625" Velocity="87" />
      <note Length="0.03125" Pitch="45" RiffPosition="9.59375" Velocity="36" />
      <note Length="0.03125" Pitch="46" RiffPosition="9.625" Velocity="44" />
      <note Length="0.015625" Pitch="43" RiffPosition="9.65625" Velocity="52" />
      <note Length="0.015625" Pitch="31" RiffPosition="9.671875" Velocity="45" />
      <note Length="0.03125" Pitch="31" RiffPosition="9.6875" Velocity="59" />
      <note Length="0.03125" Pitch="43" RiffPosition="9.71875" Velocity="64" />
      <note Length="0.03125" Pitch="46" RiffPosition="9.75" Velocity="62" />
      <note Length="0.015625" Pitch="31" RiffPosition="9.78125" Velocity="57" />
      <note Length="0.015625" Pitch="31" RiffPosition="9.796875" Velocity="46" />
      <note Length="0.03125" Pitch="31" RiffPosition="9.8125" Velocity="52" />
      <note Length="0.03125" Pitch="31" RiffPosition="9.84375" Velocity="47" />
      <note Length="0.03125" Pitch="43" RiffPosition="9.875" Velocity="40" />
      <note Length="0.015625" Pitch="31" RiffPosition="9.90625" Velocity="94" />
      <note Length="0.015625" Pitch="39" RiffPosition="9.921875" Velocity="59" />
      <note Length="0.03125" Pitch="38" RiffPosition="9.9375" Velocity="85" />
      <note Length="0.03125" Pitch="31" RiffPosition="9.96875" Velocity="71" />
      <note Length="0.03125" Pitch="43" RiffPosition="10" Velocity="52" />
      <note Length="0.015625" Pitch="31" RiffPosition="10.03125" Velocity="94" />
      <note Length="0.015625" Pitch="38" RiffPosition="10.046875" Velocity="52" />
      <note Length="0.03125" Pitch="39" RiffPosition="10.0625" Velocity="73" />
      <note Length="0.03125" Pitch="31" RiffPosition="10.09375" Velocity="51" />
      <note Length="0.03125" Pitch="43" RiffPosition="10.125" Velocity="40" />
      <note Length="0.015625" Pitch="31" RiffPosition="10.15625" Velocity="61" />
      <note Length="0.015625" Pitch="31" RiffPosition="10.171875" Velocity="41" />
      <note Length="0.03125" Pitch="31" RiffPosition="10.1875" Velocity="49" />
      <note Length="0.03125" Pitch="31" RiffPosition="10.21875" Velocity="40" />
      <note Length="0.03125" Pitch="45" RiffPosition="10.25" Velocity="58" />
      <note Length="0.015625" Pitch="43" RiffPosition="10.28125" Velocity="75" />
      <note Length="0.015625" Pitch="31" RiffPosition="10.296875" Velocity="53" />
      <note Length="0.03125" Pitch="31" RiffPosition="10.3125" Velocity="91" />
      <note Length="0.03125" Pitch="43" RiffPosition="10.34375" Velocity="44" />
      <note Length="0.03125" Pitch="46" RiffPosition="10.375" Velocity="58" />
      <note Length="0.015625" Pitch="43" RiffPosition="10.40625" Velocity="71" />
      <note Length="0.015625" Pitch="31" RiffPosition="10.421875" Velocity="46" />
      <note Length="0.03125" Pitch="31" RiffPosition="10.4375" Velocity="83" />
      <note Length="0.03125" Pitch="45" RiffPosition="10.46875" Velocity="39" />
      <note Length="0.03125" Pitch="48" RiffPosition="10.5" Velocity="36" />
      <note Length="0.015625" Pitch="45" RiffPosition="10.53125" Velocity="43" />
      <note Length="0.015625" Pitch="31" RiffPosition="10.546875" Velocity="55" />
      <note Length="0.03125" Pitch="31" RiffPosition="10.5625" Velocity="50" />
      <note Length="0.03125" Pitch="45" RiffPosition="10.59375" Velocity="58" />
      <note Length="0.03125" Pitch="46" RiffPosition="10.625" Velocity="63" />
      <note Length="0.015625" Pitch="43" RiffPosition="10.65625" Velocity="52" />
      <note Length="0.015625" Pitch="31" RiffPosition="10.671875" Velocity="54" />
      <note Length="0.03125" Pitch="31" RiffPosition="10.6875" Velocity="40" />
      <note Length="0.03125" Pitch="43" RiffPosition="10.71875" Velocity="43" />
      <note Length="0.03125" Pitch="45" RiffPosition="10.75" Velocity="57" />
      <note Length="0.015625" Pitch="31" RiffPosition="10.78125" Velocity="61" />
      <note Length="0.015625" Pitch="31" RiffPosition="10.796875" Velocity="47" />
      <note Length="0.03125" Pitch="31" RiffPosition="10.8125" Velocity="47" />
      <note Length="0.03125" Pitch="31" RiffPosition="10.84375" Velocity="36" />
      <note Length="0.03125" Pitch="43" RiffPosition="10.875" Velocity="48" />
      <note Length="0.015625" Pitch="31" RiffPosition="10.90625" Velocity="72" />
      <note Length="0.015625" Pitch="39" RiffPosition="10.921875" Velocity="37" />
      <note Length="0.03125" Pitch="38" RiffPosition="10.9375" Velocity="63" />
      <note Length="0.03125" Pitch="31" RiffPosition="10.96875" Velocity="51" />
      <note Length="0.03125" Pitch="31" RiffPosition="11" Velocity="36" />
      <note Length="0.015625" Pitch="31" RiffPosition="11.03125" Velocity="48" />
      <note Length="0.015625" Pitch="38" RiffPosition="11.046875" Velocity="46" />
      <note Length="0.03125" Pitch="38" RiffPosition="11.0625" Velocity="70" />
      <note Length="0.03125" Pitch="31" RiffPosition="11.09375" Velocity="58" />
      <note Length="0.03125" Pitch="43" RiffPosition="11.125" Velocity="45" />
      <note Length="0.015625" Pitch="31" RiffPosition="11.15625" Velocity="38" />
      <note Length="0.015625" Pitch="31" RiffPosition="11.171875" Velocity="56" />
      <note Length="0.03125" Pitch="31" RiffPosition="11.1875" Velocity="51" />
      <note Length="0.03125" Pitch="31" RiffPosition="11.21875" Velocity="66" />
      <note Length="0.03125" Pitch="46" RiffPosition="11.25" Velocity="50" />
      <note Length="0.015625" Pitch="43" RiffPosition="11.28125" Velocity="37" />
      <note Length="0.015625" Pitch="31" RiffPosition="11.296875" Velocity="55" />
      <note Length="0.03125" Pitch="31" RiffPosition="11.3125" Velocity="55" />
      <note Length="0.03125" Pitch="43" RiffPosition="11.34375" Velocity="57" />
      <note Length="0.03125" Pitch="46" RiffPosition="11.375" Velocity="36" />
      <note Length="0.015625" Pitch="45" RiffPosition="11.40625" Velocity="55" />
      <note Length="0.015625" Pitch="31" RiffPosition="11.421875" Velocity="35" />
      <note Length="0.03125" Pitch="31" RiffPosition="11.4375" Velocity="76" />
      <note Length="0.03125" Pitch="43" RiffPosition="11.46875" Velocity="95" />
      <note Length="0.03125" Pitch="48" RiffPosition="11.5" Velocity="46" />
      <note Length="0.015625" Pitch="45" RiffPosition="11.53125" Velocity="59" />
      <note Length="0.015625" Pitch="31" RiffPosition="11.546875" Velocity="96" />
      <note Length="0.03125" Pitch="31" RiffPosition="11.5625" Velocity="70" />
      <note Length="0.03125" Pitch="43" RiffPosition="11.59375" Velocity="81" />
      <note Length="0.03125" Pitch="46" RiffPosition="11.625" Velocity="90" />
      <note Length="0.015625" Pitch="43" RiffPosition="11.65625" Velocity="36" />
      <note Length="0.015625" Pitch="31" RiffPosition="11.671875" Velocity="70" />
      <note Length="0.03125" Pitch="31" RiffPosition="11.6875" Velocity="42" />
      <note Length="0.03125" Pitch="43" RiffPosition="11.71875" Velocity="48" />
      <note Length="0.03125" Pitch="45" RiffPosition="11.75" Velocity="53" />
      <note Length="0.015625" Pitch="43" RiffPosition="11.78125" Velocity="74" />
      <note Length="0.015625" Pitch="31" RiffPosition="11.796875" Velocity="40" />
      <note Length="0.03125" Pitch="31" RiffPosition="11.8125" Velocity="69" />
      <note Length="0.03125" Pitch="31" RiffPosition="11.84375" Velocity="63" />
      <note Length="0.03125" Pitch="43" RiffPosition="11.875" Velocity="56" />
      <note Length="0.015625" Pitch="31" RiffPosition="11.90625" Velocity="49" />
      <note Length="0.015625" Pitch="39" RiffPosition="11.921875" Velocity="75" />
      <note Length="0.03125" Pitch="39" RiffPosition="11.9375" Velocity="101" />
      <note Length="0.03125" Pitch="31" RiffPosition="11.96875" Velocity="88" />
    </riff>
    <riff IsDrum="False" MidiInstrument="36" Tempo="135" Length="12">
      <note Length="0.0234375" Pitch="46" RiffPosition="0" Velocity="0" />
      <note Length="0.0078125" Pitch="46" RiffPosition="0.0234375" Velocity="0" />
      <note Length="0.015625" Pitch="46" RiffPosition="0.03125" Velocity="0" />
      <note Length="0.015625" Pitch="46" RiffPosition="0.046875" Velocity="0" />
      <note Length="0.015625" Pitch="45" RiffPosition="0.0625" Velocity="0" />
      <note Length="0.015625" Pitch="31" RiffPosition="0.078125" Velocity="0" />
      <note Length="0.0234375" Pitch="31" RiffPosition="0.09375" Velocity="0" />
      <note Length="0.0078125" Pitch="39" RiffPosition="0.1171875" Velocity="0" />
      <note Length="0.0234375" Pitch="39" RiffPosition="0.125" Velocity="0" />
      <note Length="0.0078125" Pitch="38" RiffPosition="0.1484375" Velocity="0" />
      <note Length="0.015625" Pitch="38" RiffPosition="0.15625" Velocity="0" />
      <note Length="0.015625" Pitch="38" RiffPosition="0.171875" Velocity="0" />
      <note Length="0.015625" Pitch="31" RiffPosition="0.1875" Velocity="0" />
      <note Length="0.015625" Pitch="31" RiffPosition="0.203125" Velocity="0" />
      <note Length="0.0234375" Pitch="31" RiffPosition="0.21875" Velocity="0" />
      <note Length="0.0078125" Pitch="46" RiffPosition="0.2421875" Velocity="0" />
      <note Length="0.0234375" Pitch="46" RiffPosition="0.25" Velocity="0" />
      <note Length="0.0078125" Pitch="48" RiffPosition="0.2734375" Velocity="0" />
      <note Length="0.015625" Pitch="48" RiffPosition="0.28125" Velocity="0" />
      <note Length="0.015625" Pitch="48" RiffPosition="0.296875" Velocity="0" />
      <note Length="0.015625" Pitch="46" RiffPosition="0.3125" Velocity="0" />
      <note Length="0.015625" Pitch="46" RiffPosition="0.328125" Velocity="0" />
      <note Length="0.0234375" Pitch="45" RiffPosition="0.34375" Velocity="0" />
      <note Length="0.0078125" Pitch="31" RiffPosition="0.3671875" Velocity="0" />
      <note Length="0.0234375" Pitch="31" RiffPosition="0.375" Velocity="0" />
      <note Length="0.0078125" Pitch="31" RiffPosition="0.3984375" Velocity="0" />
      <note Length="0.015625" Pitch="38" RiffPosition="0.40625" Velocity="0" />
      <note Length="0.015625" Pitch="38" RiffPosition="0.421875" Velocity="0" />
      <note Length="0.015625" Pitch="38" RiffPosition="0.4375" Velocity="0" />
      <note Length="0.015625" Pitch="31" RiffPosition="0.453125" Velocity="0" />
      <note Length="0.0234375" Pitch="31" RiffPosition="0.46875" Velocity="0" />
      <note Length="0.0078125" Pitch="31" RiffPosition="0.4921875" Velocity="0" />
      <note Length="0.0234375" Pitch="31" RiffPosition="0.5" Velocity="0" />
      <note Length="0.0078125" Pitch="46" RiffPosition="0.5234375" Velocity="0" />
      <note Length="0.015625" Pitch="46" RiffPosition="0.53125" Velocity="0" />
      <note Length="0.015625" Pitch="46" RiffPosition="0.546875" Velocity="0" />
      <note Length="0.015625" Pitch="45" RiffPosition="0.5625" Velocity="0" />
      <note Length="0.015625" Pitch="46" RiffPosition="0.578125" Velocity="0" />
      <note Length="0.0234375" Pitch="45" RiffPosition="0.59375" Velocity="0" />
      <note Length="0.0078125" Pitch="43" RiffPosition="0.6171875" Velocity="0" />
      <note Length="0.0234375" Pitch="43" RiffPosition="0.625" Velocity="0" />
      <note Length="0.0078125" Pitch="31" RiffPosition="0.6484375" Velocity="0" />
      <note Length="0.015625" Pitch="31" RiffPosition="0.65625" Velocity="0" />
      <note Length="0.015625" Pitch="31" RiffPosition="0.671875" Velocity="0" />
      <note Length="0.015625" Pitch="31" RiffPosition="0.6875" Velocity="0" />
      <note Length="0.015625" Pitch="31" RiffPosition="0.703125" Velocity="0" />
      <note Length="0.0234375" Pitch="43" RiffPosition="0.71875" Velocity="0" />
      <note Length="0.0078125" Pitch="31" RiffPosition="0.7421875" Velocity="0" />
      <note Length="0.0234375" Pitch="43" RiffPosition="0.75" Velocity="0" />
      <note Length="0.0078125" Pitch="43" RiffPosition="0.7734375" Velocity="0" />
      <note Length="0.015625" Pitch="43" RiffPosition="0.78125" Velocity="0" />
      <note Length="0.015625" Pitch="43" RiffPosition="0.796875" Velocity="0" />
      <note Length="0.015625" Pitch="43" RiffPosition="0.8125" Velocity="0" />
      <note Length="0.015625" Pitch="31" RiffPosition="0.828125" Velocity="0" />
      <note Length="0.0234375" Pitch="31" RiffPosition="0.84375" Velocity="0" />
      <note Length="0.0078125" Pitch="31" RiffPosition="0.8671875" Velocity="0" />
      <note Length="0.0234375" Pitch="31" RiffPosition="0.875" Velocity="0" />
      <note Length="0.0078125" Pitch="31" RiffPosition="0.8984375" Velocity="0" />
      <note Length="0.015625" Pitch="31" RiffPosition="0.90625" Velocity="0" />
      <note Length="0.015625" Pitch="31" RiffPosition="0.921875" Velocity="0" />
      <note Length="0.015625" Pitch="43" RiffPosition="0.9375" Velocity="0" />
      <note Length="0.015625" Pitch="43" RiffPosition="0.953125" Velocity="0" />
      <note Length="0.0234375" Pitch="45" RiffPosition="0.96875" Velocity="0" />
      <note Length="0.0078125" Pitch="46" RiffPosition="0.9921875" Velocity="0" />
      <note Length="0.0234375" Pitch="46" RiffPosition="1" Velocity="0" />
      <note Length="0.0078125" Pitch="46" RiffPosition="1.0234375" Velocity="0" />
      <note Length="0.015625" Pitch="46" RiffPosition="1.03125" Velocity="0" />
      <note Length="0.015625" Pitch="46" RiffPosition="1.046875" Velocity="0" />
      <note Length="0.015625" Pitch="45" RiffPosition="1.0625" Velocity="0" />
      <note Length="0.015625" Pitch="31" RiffPosition="1.078125" Velocity="0" />
      <note Length="0.0234375" Pitch="31" RiffPosition="1.09375" Velocity="0" />
      <note Length="0.0078125" Pitch="39" RiffPosition="1.1171875" Velocity="0" />
      <note Length="0.0234375" Pitch="39" RiffPosition="1.125" Velocity="0" />
      <note Length="0.0078125" Pitch="38" RiffPosition="1.1484375" Velocity="0" />
      <note Length="0.015625" Pitch="38" RiffPosition="1.15625" Velocity="0" />
      <note Length="0.015625" Pitch="38" RiffPosition="1.171875" Velocity="0" />
      <note Length="0.015625" Pitch="31" RiffPosition="1.1875" Velocity="0" />
      <note Length="0.015625" Pitch="31" RiffPosition="1.203125" Velocity="0" />
      <note Length="0.0234375" Pitch="31" RiffPosition="1.21875" Velocity="0" />
      <note Length="0.0078125" Pitch="46" RiffPosition="1.2421875" Velocity="0" />
      <note Length="0.0234375" Pitch="46" RiffPosition="1.25" Velocity="0" />
      <note Length="0.0078125" Pitch="48" RiffPosition="1.2734375" Velocity="0" />
      <note Length="0.015625" Pitch="48" RiffPosition="1.28125" Velocity="0" />
      <note Length="0.015625" Pitch="48" RiffPosition="1.296875" Velocity="0" />
      <note Length="0.015625" Pitch="46" RiffPosition="1.3125" Velocity="0" />
      <note Length="0.015625" Pitch="46" RiffPosition="1.328125" Velocity="0" />
      <note Length="0.0234375" Pitch="45" RiffPosition="1.34375" Velocity="0" />
      <note Length="0.0078125" Pitch="31" RiffPosition="1.3671875" Velocity="0" />
      <note Length="0.0234375" Pitch="31" RiffPosition="1.375" Velocity="0" />
      <note Length="0.0078125" Pitch="31" RiffPosition="1.3984375" Velocity="0" />
      <note Length="0.015625" Pitch="38" RiffPosition="1.40625" Velocity="0" />
      <note Length="0.015625" Pitch="38" RiffPosition="1.421875" Velocity="0" />
      <note Length="0.015625" Pitch="38" RiffPosition="1.4375" Velocity="0" />
      <note Length="0.015625" Pitch="31" RiffPosition="1.453125" Velocity="0" />
      <note Length="0.0234375" Pitch="31" RiffPosition="1.46875" Velocity="0" />
      <note Length="0.0078125" Pitch="31" RiffPosition="1.4921875" Velocity="0" />
      <note Length="0.0234375" Pitch="31" RiffPosition="1.5" Velocity="0" />
      <note Length="0.0078125" Pitch="46" RiffPosition="1.5234375" Velocity="0" />
      <note Length="0.015625" Pitch="46" RiffPosition="1.53125" Velocity="0" />
      <note Length="0.015625" Pitch="46" RiffPosition="1.546875" Velocity="0" />
      <note Length="0.015625" Pitch="45" RiffPosition="1.5625" Velocity="0" />
      <note Length="0.015625" Pitch="46" RiffPosition="1.578125" Velocity="0" />
      <note Length="0.0234375" Pitch="45" RiffPosition="1.59375" Velocity="0" />
      <note Length="0.0078125" Pitch="43" RiffPosition="1.6171875" Velocity="0" />
      <note Length="0.0234375" Pitch="43" RiffPosition="1.625" Velocity="0" />
      <note Length="0.0078125" Pitch="31" RiffPosition="1.6484375" Velocity="0" />
      <note Length="0.015625" Pitch="31" RiffPosition="1.65625" Velocity="0" />
      <note Length="0.015625" Pitch="31" RiffPosition="1.671875" Velocity="0" />
      <note Length="0.015625" Pitch="31" RiffPosition="1.6875" Velocity="0" />
      <note Length="0.015625" Pitch="31" RiffPosition="1.703125" Velocity="0" />
      <note Length="0.0234375" Pitch="43" RiffPosition="1.71875" Velocity="0" />
      <note Length="0.0078125" Pitch="31" RiffPosition="1.7421875" Velocity="0" />
      <note Length="0.0234375" Pitch="43" RiffPosition="1.75" Velocity="0" />
      <note Length="0.0078125" Pitch="43" RiffPosition="1.7734375" Velocity="0" />
      <note Length="0.015625" Pitch="43" RiffPosition="1.78125" Velocity="0" />
      <note Length="0.015625" Pitch="43" RiffPosition="1.796875" Velocity="0" />
      <note Length="0.015625" Pitch="43" RiffPosition="1.8125" Velocity="0" />
      <note Length="0.015625" Pitch="31" RiffPosition="1.828125" Velocity="0" />
      <note Length="0.0234375" Pitch="31" RiffPosition="1.84375" Velocity="0" />
      <note Length="0.0078125" Pitch="31" RiffPosition="1.8671875" Velocity="0" />
      <note Length="0.0234375" Pitch="31" RiffPosition="1.875" Velocity="0" />
      <note Length="0.0078125" Pitch="31" RiffPosition="1.8984375" Velocity="0" />
      <note Length="0.015625" Pitch="31" RiffPosition="1.90625" Velocity="0" />
      <note Length="0.015625" Pitch="31" RiffPosition="1.921875" Velocity="0" />
      <note Length="0.015625" Pitch="43" RiffPosition="1.9375" Velocity="0" />
      <note Length="0.015625" Pitch="43" RiffPosition="1.953125" Velocity="0" />
      <note Length="0.0234375" Pitch="45" RiffPosition="1.96875" Velocity="0" />
      <note Length="0.0078125" Pitch="46" RiffPosition="1.9921875" Velocity="0" />
      <note Length="0.0234375" Pitch="46" RiffPosition="2" Velocity="0" />
      <note Length="0.0078125" Pitch="46" RiffPosition="2.0234375" Velocity="0" />
      <note Length="0.015625" Pitch="46" RiffPosition="2.03125" Velocity="0" />
      <note Length="0.015625" Pitch="46" RiffPosition="2.046875" Velocity="0" />
      <note Length="0.015625" Pitch="45" RiffPosition="2.0625" Velocity="0" />
      <note Length="0.015625" Pitch="31" RiffPosition="2.078125" Velocity="0" />
      <note Length="0.0234375" Pitch="31" RiffPosition="2.09375" Velocity="0" />
      <note Length="0.0078125" Pitch="39" RiffPosition="2.1171875" Velocity="0" />
      <note Length="0.0234375" Pitch="39" RiffPosition="2.125" Velocity="0" />
      <note Length="0.0078125" Pitch="38" RiffPosition="2.1484375" Velocity="0" />
      <note Length="0.015625" Pitch="38" RiffPosition="2.15625" Velocity="0" />
      <note Length="0.015625" Pitch="38" RiffPosition="2.171875" Velocity="0" />
      <note Length="0.015625" Pitch="31" RiffPosition="2.1875" Velocity="0" />
      <note Length="0.015625" Pitch="31" RiffPosition="2.203125" Velocity="0" />
      <note Length="0.0234375" Pitch="31" RiffPosition="2.21875" Velocity="0" />
      <note Length="0.0078125" Pitch="46" RiffPosition="2.2421875" Velocity="0" />
      <note Length="0.0234375" Pitch="46" RiffPosition="2.25" Velocity="0" />
      <note Length="0.0078125" Pitch="48" RiffPosition="2.2734375" Velocity="0" />
      <note Length="0.015625" Pitch="48" RiffPosition="2.28125" Velocity="0" />
      <note Length="0.015625" Pitch="48" RiffPosition="2.296875" Velocity="0" />
      <note Length="0.015625" Pitch="46" RiffPosition="2.3125" Velocity="0" />
      <note Length="0.015625" Pitch="46" RiffPosition="2.328125" Velocity="0" />
      <note Length="0.0234375" Pitch="45" RiffPosition="2.34375" Velocity="0" />
      <note Length="0.0078125" Pitch="31" RiffPosition="2.3671875" Velocity="0" />
      <note Length="0.0234375" Pitch="31" RiffPosition="2.375" Velocity="0" />
      <note Length="0.0078125" Pitch="31" RiffPosition="2.3984375" Velocity="0" />
      <note Length="0.015625" Pitch="38" RiffPosition="2.40625" Velocity="0" />
      <note Length="0.015625" Pitch="38" RiffPosition="2.421875" Velocity="0" />
      <note Length="0.015625" Pitch="38" RiffPosition="2.4375" Velocity="0" />
      <note Length="0.015625" Pitch="31" RiffPosition="2.453125" Velocity="0" />
      <note Length="0.0234375" Pitch="31" RiffPosition="2.46875" Velocity="0" />
      <note Length="0.0078125" Pitch="31" RiffPosition="2.4921875" Velocity="0" />
      <note Length="0.0234375" Pitch="31" RiffPosition="2.5" Velocity="0" />
      <note Length="0.0078125" Pitch="46" RiffPosition="2.5234375" Velocity="0" />
      <note Length="0.015625" Pitch="46" RiffPosition="2.53125" Velocity="0" />
      <note Length="0.015625" Pitch="46" RiffPosition="2.546875" Velocity="0" />
      <note Length="0.015625" Pitch="45" RiffPosition="2.5625" Velocity="0" />
      <note Length="0.015625" Pitch="46" RiffPosition="2.578125" Velocity="0" />
      <note Length="0.0234375" Pitch="45" RiffPosition="2.59375" Velocity="0" />
      <note Length="0.0078125" Pitch="43" RiffPosition="2.6171875" Velocity="0" />
      <note Length="0.0234375" Pitch="43" RiffPosition="2.625" Velocity="0" />
      <note Length="0.0078125" Pitch="31" RiffPosition="2.6484375" Velocity="0" />
      <note Length="0.015625" Pitch="31" RiffPosition="2.65625" Velocity="0" />
      <note Length="0.015625" Pitch="31" RiffPosition="2.671875" Velocity="0" />
      <note Length="0.015625" Pitch="31" RiffPosition="2.6875" Velocity="0" />
      <note Length="0.015625" Pitch="31" RiffPosition="2.703125" Velocity="0" />
      <note Length="0.0234375" Pitch="43" RiffPosition="2.71875" Velocity="0" />
      <note Length="0.0078125" Pitch="31" RiffPosition="2.7421875" Velocity="0" />
      <note Length="0.0234375" Pitch="43" RiffPosition="2.75" Velocity="0" />
      <note Length="0.0078125" Pitch="43" RiffPosition="2.7734375" Velocity="0" />
      <note Length="0.015625" Pitch="43" RiffPosition="2.78125" Velocity="0" />
      <note Length="0.015625" Pitch="43" RiffPosition="2.796875" Velocity="0" />
      <note Length="0.015625" Pitch="43" RiffPosition="2.8125" Velocity="0" />
      <note Length="0.015625" Pitch="31" RiffPosition="2.828125" Velocity="0" />
      <note Length="0.0234375" Pitch="31" RiffPosition="2.84375" Velocity="0" />
      <note Length="0.0078125" Pitch="31" RiffPosition="2.8671875" Velocity="0" />
      <note Length="0.0234375" Pitch="31" RiffPosition="2.875" Velocity="0" />
      <note Length="0.0078125" Pitch="31" RiffPosition="2.8984375" Velocity="0" />
      <note Length="0.015625" Pitch="31" RiffPosition="2.90625" Velocity="0" />
      <note Length="0.015625" Pitch="31" RiffPosition="2.921875" Velocity="0" />
      <note Length="0.015625" Pitch="43" RiffPosition="2.9375" Velocity="0" />
      <note Length="0.015625" Pitch="43" RiffPosition="2.953125" Velocity="0" />
      <note Length="0.0234375" Pitch="45" RiffPosition="2.96875" Velocity="0" />
      <note Length="0.0078125" Pitch="46" RiffPosition="2.9921875" Velocity="0" />
      <note Length="0.0234375" Pitch="46" RiffPosition="3" Velocity="67" />
      <note Length="0.0078125" Pitch="46" RiffPosition="3.0234375" Velocity="85" />
      <note Length="0.015625" Pitch="46" RiffPosition="3.03125" Velocity="72" />
      <note Length="0.015625" Pitch="46" RiffPosition="3.046875" Velocity="48" />
      <note Length="0.015625" Pitch="45" RiffPosition="3.0625" Velocity="49" />
      <note Length="0.015625" Pitch="31" RiffPosition="3.078125" Velocity="76" />
      <note Length="0.0234375" Pitch="31" RiffPosition="3.09375" Velocity="60" />
      <note Length="0.0078125" Pitch="39" RiffPosition="3.1171875" Velocity="49" />
      <note Length="0.0234375" Pitch="39" RiffPosition="3.125" Velocity="61" />
      <note Length="0.0078125" Pitch="38" RiffPosition="3.1484375" Velocity="79" />
      <note Length="0.015625" Pitch="38" RiffPosition="3.15625" Velocity="65" />
      <note Length="0.015625" Pitch="38" RiffPosition="3.171875" Velocity="38" />
      <note Length="0.015625" Pitch="31" RiffPosition="3.1875" Velocity="58" />
      <note Length="0.015625" Pitch="31" RiffPosition="3.203125" Velocity="85" />
      <note Length="0.0234375" Pitch="31" RiffPosition="3.21875" Velocity="72" />
      <note Length="0.0078125" Pitch="46" RiffPosition="3.2421875" Velocity="37" />
      <note Length="0.0234375" Pitch="46" RiffPosition="3.25" Velocity="45" />
      <note Length="0.0078125" Pitch="48" RiffPosition="3.2734375" Velocity="60" />
      <note Length="0.015625" Pitch="48" RiffPosition="3.28125" Velocity="46" />
      <note Length="0.015625" Pitch="48" RiffPosition="3.296875" Velocity="50" />
      <note Length="0.015625" Pitch="46" RiffPosition="3.3125" Velocity="77" />
      <note Length="0.015625" Pitch="46" RiffPosition="3.328125" Velocity="104" />
      <note Length="0.0234375" Pitch="45" RiffPosition="3.34375" Velocity="88" />
      <note Length="0.0078125" Pitch="31" RiffPosition="3.3671875" Velocity="52" />
      <note Length="0.0234375" Pitch="31" RiffPosition="3.375" Velocity="41" />
      <note Length="0.0078125" Pitch="31" RiffPosition="3.3984375" Velocity="52" />
      <note Length="0.015625" Pitch="38" RiffPosition="3.40625" Velocity="41" />
      <note Length="0.015625" Pitch="38" RiffPosition="3.421875" Velocity="53" />
      <note Length="0.015625" Pitch="38" RiffPosition="3.4375" Velocity="74" />
      <note Length="0.015625" Pitch="31" RiffPosition="3.453125" Velocity="97" />
      <note Length="0.0234375" Pitch="31" RiffPosition="3.46875" Velocity="78" />
      <note Length="0.0078125" Pitch="31" RiffPosition="3.4921875" Velocity="38" />
      <note Length="0.0234375" Pitch="31" RiffPosition="3.5" Velocity="46" />
      <note Length="0.0078125" Pitch="46" RiffPosition="3.5234375" Velocity="68" />
      <note Length="0.015625" Pitch="46" RiffPosition="3.53125" Velocity="56" />
      <note Length="0.015625" Pitch="46" RiffPosition="3.546875" Velocity="40" />
      <note Length="0.015625" Pitch="45" RiffPosition="3.5625" Velocity="64" />
      <note Length="0.015625" Pitch="46" RiffPosition="3.578125" Velocity="88" />
      <note Length="0.0234375" Pitch="45" RiffPosition="3.59375" Velocity="68" />
      <note Length="0.0078125" Pitch="43" RiffPosition="3.6171875" Velocity="39" />
      <note Length="0.0234375" Pitch="43" RiffPosition="3.625" Velocity="52" />
      <note Length="0.0078125" Pitch="31" RiffPosition="3.6484375" Velocity="75" />
      <note Length="0.015625" Pitch="31" RiffPosition="3.65625" Velocity="63" />
      <note Length="0.015625" Pitch="31" RiffPosition="3.671875" Velocity="39" />
      <note Length="0.015625" Pitch="31" RiffPosition="3.6875" Velocity="54" />
      <note Length="0.015625" Pitch="31" RiffPosition="3.703125" Velocity="78" />
      <note Length="0.0234375" Pitch="43" RiffPosition="3.71875" Velocity="56" />
      <note Length="0.0078125" Pitch="31" RiffPosition="3.7421875" Velocity="54" />
      <note Length="0.0234375" Pitch="43" RiffPosition="3.75" Velocity="68" />
      <note Length="0.0078125" Pitch="43" RiffPosition="3.7734375" Velocity="93" />
      <note Length="0.015625" Pitch="43" RiffPosition="3.78125" Velocity="81" />
      <note Length="0.015625" Pitch="43" RiffPosition="3.796875" Velocity="58" />
      <note Length="0.015625" Pitch="43" RiffPosition="3.8125" Velocity="36" />
      <note Length="0.015625" Pitch="31" RiffPosition="3.828125" Velocity="59" />
      <note Length="0.0234375" Pitch="31" RiffPosition="3.84375" Velocity="40" />
      <note Length="0.0078125" Pitch="31" RiffPosition="3.8671875" Velocity="70" />
      <note Length="0.0234375" Pitch="31" RiffPosition="3.875" Velocity="83" />
      <note Length="0.0078125" Pitch="31" RiffPosition="3.8984375" Velocity="101" />
      <note Length="0.015625" Pitch="31" RiffPosition="3.90625" Velocity="87" />
      <note Length="0.015625" Pitch="31" RiffPosition="3.921875" Velocity="61" />
      <note Length="0.015625" Pitch="43" RiffPosition="3.9375" Velocity="39" />
      <note Length="0.015625" Pitch="43" RiffPosition="3.953125" Velocity="66" />
      <note Length="0.0234375" Pitch="45" RiffPosition="3.96875" Velocity="50" />
      <note Length="0.0078125" Pitch="46" RiffPosition="3.9921875" Velocity="55" />
      <note Length="0.0234375" Pitch="46" RiffPosition="4" Velocity="67" />
      <note Length="0.0078125" Pitch="46" RiffPosition="4.0234375" Velocity="85" />
      <note Length="0.015625" Pitch="46" RiffPosition="4.03125" Velocity="72" />
      <note Length="0.015625" Pitch="46" RiffPosition="4.046875" Velocity="48" />
      <note Length="0.015625" Pitch="45" RiffPosition="4.0625" Velocity="49" />
      <note Length="0.015625" Pitch="31" RiffPosition="4.078125" Velocity="76" />
      <note Length="0.0234375" Pitch="31" RiffPosition="4.09375" Velocity="60" />
      <note Length="0.0078125" Pitch="39" RiffPosition="4.1171875" Velocity="49" />
      <note Length="0.0234375" Pitch="39" RiffPosition="4.125" Velocity="61" />
      <note Length="0.0078125" Pitch="38" RiffPosition="4.1484375" Velocity="79" />
      <note Length="0.015625" Pitch="38" RiffPosition="4.15625" Velocity="65" />
      <note Length="0.015625" Pitch="38" RiffPosition="4.171875" Velocity="38" />
      <note Length="0.015625" Pitch="31" RiffPosition="4.1875" Velocity="58" />
      <note Length="0.015625" Pitch="31" RiffPosition="4.203125" Velocity="85" />
      <note Length="0.0234375" Pitch="31" RiffPosition="4.21875" Velocity="72" />
      <note Length="0.0078125" Pitch="46" RiffPosition="4.2421875" Velocity="37" />
      <note Length="0.0234375" Pitch="46" RiffPosition="4.25" Velocity="45" />
      <note Length="0.0078125" Pitch="48" RiffPosition="4.2734375" Velocity="60" />
      <note Length="0.015625" Pitch="48" RiffPosition="4.28125" Velocity="46" />
      <note Length="0.015625" Pitch="48" RiffPosition="4.296875" Velocity="50" />
      <note Length="0.015625" Pitch="46" RiffPosition="4.3125" Velocity="77" />
      <note Length="0.015625" Pitch="46" RiffPosition="4.328125" Velocity="104" />
      <note Length="0.0234375" Pitch="45" RiffPosition="4.34375" Velocity="88" />
      <note Length="0.0078125" Pitch="31" RiffPosition="4.3671875" Velocity="52" />
      <note Length="0.0234375" Pitch="31" RiffPosition="4.375" Velocity="41" />
      <note Length="0.0078125" Pitch="31" RiffPosition="4.3984375" Velocity="52" />
      <note Length="0.015625" Pitch="38" RiffPosition="4.40625" Velocity="41" />
      <note Length="0.015625" Pitch="38" RiffPosition="4.421875" Velocity="53" />
      <note Length="0.015625" Pitch="38" RiffPosition="4.4375" Velocity="74" />
      <note Length="0.015625" Pitch="31" RiffPosition="4.453125" Velocity="97" />
      <note Length="0.0234375" Pitch="31" RiffPosition="4.46875" Velocity="78" />
      <note Length="0.0078125" Pitch="31" RiffPosition="4.4921875" Velocity="38" />
      <note Length="0.0234375" Pitch="31" RiffPosition="4.5" Velocity="46" />
      <note Length="0.0078125" Pitch="46" RiffPosition="4.5234375" Velocity="68" />
      <note Length="0.015625" Pitch="46" RiffPosition="4.53125" Velocity="56" />
      <note Length="0.015625" Pitch="46" RiffPosition="4.546875" Velocity="40" />
      <note Length="0.015625" Pitch="45" RiffPosition="4.5625" Velocity="64" />
      <note Length="0.015625" Pitch="46" RiffPosition="4.578125" Velocity="88" />
      <note Length="0.0234375" Pitch="45" RiffPosition="4.59375" Velocity="68" />
      <note Length="0.0078125" Pitch="43" RiffPosition="4.6171875" Velocity="39" />
      <note Length="0.0234375" Pitch="43" RiffPosition="4.625" Velocity="52" />
      <note Length="0.0078125" Pitch="31" RiffPosition="4.6484375" Velocity="75" />
      <note Length="0.015625" Pitch="31" RiffPosition="4.65625" Velocity="63" />
      <note Length="0.015625" Pitch="31" RiffPosition="4.671875" Velocity="39" />
      <note Length="0.015625" Pitch="31" RiffPosition="4.6875" Velocity="54" />
      <note Length="0.015625" Pitch="31" RiffPosition="4.703125" Velocity="78" />
      <note Length="0.0234375" Pitch="43" RiffPosition="4.71875" Velocity="56" />
      <note Length="0.0078125" Pitch="31" RiffPosition="4.7421875" Velocity="54" />
      <note Length="0.0234375" Pitch="43" RiffPosition="4.75" Velocity="68" />
      <note Length="0.0078125" Pitch="43" RiffPosition="4.7734375" Velocity="93" />
      <note Length="0.015625" Pitch="43" RiffPosition="4.78125" Velocity="81" />
      <note Length="0.015625" Pitch="43" RiffPosition="4.796875" Velocity="58" />
      <note Length="0.015625" Pitch="43" RiffPosition="4.8125" Velocity="36" />
      <note Length="0.015625" Pitch="31" RiffPosition="4.828125" Velocity="59" />
      <note Length="0.0234375" Pitch="31" RiffPosition="4.84375" Velocity="40" />
      <note Length="0.0078125" Pitch="31" RiffPosition="4.8671875" Velocity="70" />
      <note Length="0.0234375" Pitch="31" RiffPosition="4.875" Velocity="83" />
      <note Length="0.0078125" Pitch="31" RiffPosition="4.8984375" Velocity="101" />
      <note Length="0.015625" Pitch="31" RiffPosition="4.90625" Velocity="87" />
      <note Length="0.015625" Pitch="31" RiffPosition="4.921875" Velocity="61" />
      <note Length="0.015625" Pitch="43" RiffPosition="4.9375" Velocity="39" />
      <note Length="0.015625" Pitch="43" RiffPosition="4.953125" Velocity="66" />
      <note Length="0.0234375" Pitch="45" RiffPosition="4.96875" Velocity="50" />
      <note Length="0.0078125" Pitch="46" RiffPosition="4.9921875" Velocity="55" />
      <note Length="0.0234375" Pitch="46" RiffPosition="5" Velocity="67" />
      <note Length="0.0078125" Pitch="46" RiffPosition="5.0234375" Velocity="85" />
      <note Length="0.015625" Pitch="46" RiffPosition="5.03125" Velocity="72" />
      <note Length="0.015625" Pitch="46" RiffPosition="5.046875" Velocity="48" />
      <note Length="0.015625" Pitch="45" RiffPosition="5.0625" Velocity="49" />
      <note Length="0.015625" Pitch="31" RiffPosition="5.078125" Velocity="76" />
      <note Length="0.0234375" Pitch="31" RiffPosition="5.09375" Velocity="60" />
      <note Length="0.0078125" Pitch="39" RiffPosition="5.1171875" Velocity="49" />
      <note Length="0.0234375" Pitch="39" RiffPosition="5.125" Velocity="61" />
      <note Length="0.0078125" Pitch="38" RiffPosition="5.1484375" Velocity="79" />
      <note Length="0.015625" Pitch="38" RiffPosition="5.15625" Velocity="65" />
      <note Length="0.015625" Pitch="38" RiffPosition="5.171875" Velocity="38" />
      <note Length="0.015625" Pitch="31" RiffPosition="5.1875" Velocity="58" />
      <note Length="0.015625" Pitch="31" RiffPosition="5.203125" Velocity="85" />
      <note Length="0.0234375" Pitch="31" RiffPosition="5.21875" Velocity="72" />
      <note Length="0.0078125" Pitch="46" RiffPosition="5.2421875" Velocity="37" />
      <note Length="0.0234375" Pitch="46" RiffPosition="5.25" Velocity="45" />
      <note Length="0.0078125" Pitch="48" RiffPosition="5.2734375" Velocity="60" />
      <note Length="0.015625" Pitch="48" RiffPosition="5.28125" Velocity="46" />
      <note Length="0.015625" Pitch="48" RiffPosition="5.296875" Velocity="50" />
      <note Length="0.015625" Pitch="46" RiffPosition="5.3125" Velocity="77" />
      <note Length="0.015625" Pitch="46" RiffPosition="5.328125" Velocity="104" />
      <note Length="0.0234375" Pitch="45" RiffPosition="5.34375" Velocity="88" />
      <note Length="0.0078125" Pitch="31" RiffPosition="5.3671875" Velocity="52" />
      <note Length="0.0234375" Pitch="31" RiffPosition="5.375" Velocity="41" />
      <note Length="0.0078125" Pitch="31" RiffPosition="5.3984375" Velocity="52" />
      <note Length="0.015625" Pitch="38" RiffPosition="5.40625" Velocity="41" />
      <note Length="0.015625" Pitch="38" RiffPosition="5.421875" Velocity="53" />
      <note Length="0.015625" Pitch="38" RiffPosition="5.4375" Velocity="74" />
      <note Length="0.015625" Pitch="31" RiffPosition="5.453125" Velocity="97" />
      <note Length="0.0234375" Pitch="31" RiffPosition="5.46875" Velocity="78" />
      <note Length="0.0078125" Pitch="31" RiffPosition="5.4921875" Velocity="38" />
      <note Length="0.0234375" Pitch="31" RiffPosition="5.5" Velocity="46" />
      <note Length="0.0078125" Pitch="46" RiffPosition="5.5234375" Velocity="68" />
      <note Length="0.015625" Pitch="46" RiffPosition="5.53125" Velocity="56" />
      <note Length="0.015625" Pitch="46" RiffPosition="5.546875" Velocity="40" />
      <note Length="0.015625" Pitch="45" RiffPosition="5.5625" Velocity="64" />
      <note Length="0.015625" Pitch="46" RiffPosition="5.578125" Velocity="88" />
      <note Length="0.0234375" Pitch="45" RiffPosition="5.59375" Velocity="68" />
      <note Length="0.0078125" Pitch="43" RiffPosition="5.6171875" Velocity="39" />
      <note Length="0.0234375" Pitch="43" RiffPosition="5.625" Velocity="52" />
      <note Length="0.0078125" Pitch="31" RiffPosition="5.6484375" Velocity="75" />
      <note Length="0.015625" Pitch="31" RiffPosition="5.65625" Velocity="63" />
      <note Length="0.015625" Pitch="31" RiffPosition="5.671875" Velocity="39" />
      <note Length="0.015625" Pitch="31" RiffPosition="5.6875" Velocity="54" />
      <note Length="0.015625" Pitch="31" RiffPosition="5.703125" Velocity="78" />
      <note Length="0.0234375" Pitch="43" RiffPosition="5.71875" Velocity="56" />
      <note Length="0.0078125" Pitch="31" RiffPosition="5.7421875" Velocity="54" />
      <note Length="0.0234375" Pitch="43" RiffPosition="5.75" Velocity="68" />
      <note Length="0.0078125" Pitch="43" RiffPosition="5.7734375" Velocity="93" />
      <note Length="0.015625" Pitch="43" RiffPosition="5.78125" Velocity="81" />
      <note Length="0.015625" Pitch="43" RiffPosition="5.796875" Velocity="58" />
      <note Length="0.015625" Pitch="43" RiffPosition="5.8125" Velocity="36" />
      <note Length="0.015625" Pitch="31" RiffPosition="5.828125" Velocity="59" />
      <note Length="0.0234375" Pitch="31" RiffPosition="5.84375" Velocity="40" />
      <note Length="0.0078125" Pitch="31" RiffPosition="5.8671875" Velocity="70" />
      <note Length="0.0234375" Pitch="31" RiffPosition="5.875" Velocity="83" />
      <note Length="0.0078125" Pitch="31" RiffPosition="5.8984375" Velocity="101" />
      <note Length="0.015625" Pitch="31" RiffPosition="5.90625" Velocity="87" />
      <note Length="0.015625" Pitch="31" RiffPosition="5.921875" Velocity="61" />
      <note Length="0.015625" Pitch="43" RiffPosition="5.9375" Velocity="39" />
      <note Length="0.015625" Pitch="43" RiffPosition="5.953125" Velocity="66" />
      <note Length="0.0234375" Pitch="45" RiffPosition="5.96875" Velocity="50" />
      <note Length="0.0078125" Pitch="46" RiffPosition="5.9921875" Velocity="55" />
      <note Length="0.0234375" Pitch="46" RiffPosition="6" Velocity="67" />
      <note Length="0.0078125" Pitch="46" RiffPosition="6.0234375" Velocity="85" />
      <note Length="0.015625" Pitch="46" RiffPosition="6.03125" Velocity="72" />
      <note Length="0.015625" Pitch="46" RiffPosition="6.046875" Velocity="48" />
      <note Length="0.015625" Pitch="45" RiffPosition="6.0625" Velocity="49" />
      <note Length="0.015625" Pitch="31" RiffPosition="6.078125" Velocity="76" />
      <note Length="0.0234375" Pitch="31" RiffPosition="6.09375" Velocity="60" />
      <note Length="0.0078125" Pitch="39" RiffPosition="6.1171875" Velocity="49" />
      <note Length="0.0234375" Pitch="39" RiffPosition="6.125" Velocity="61" />
      <note Length="0.0078125" Pitch="38" RiffPosition="6.1484375" Velocity="79" />
      <note Length="0.015625" Pitch="38" RiffPosition="6.15625" Velocity="65" />
      <note Length="0.015625" Pitch="38" RiffPosition="6.171875" Velocity="38" />
      <note Length="0.015625" Pitch="31" RiffPosition="6.1875" Velocity="58" />
      <note Length="0.015625" Pitch="31" RiffPosition="6.203125" Velocity="85" />
      <note Length="0.0234375" Pitch="31" RiffPosition="6.21875" Velocity="72" />
      <note Length="0.0078125" Pitch="46" RiffPosition="6.2421875" Velocity="37" />
      <note Length="0.0234375" Pitch="46" RiffPosition="6.25" Velocity="45" />
      <note Length="0.0078125" Pitch="48" RiffPosition="6.2734375" Velocity="60" />
      <note Length="0.015625" Pitch="48" RiffPosition="6.28125" Velocity="46" />
      <note Length="0.015625" Pitch="48" RiffPosition="6.296875" Velocity="50" />
      <note Length="0.015625" Pitch="46" RiffPosition="6.3125" Velocity="77" />
      <note Length="0.015625" Pitch="46" RiffPosition="6.328125" Velocity="104" />
      <note Length="0.0234375" Pitch="45" RiffPosition="6.34375" Velocity="88" />
      <note Length="0.0078125" Pitch="31" RiffPosition="6.3671875" Velocity="52" />
      <note Length="0.0234375" Pitch="31" RiffPosition="6.375" Velocity="41" />
      <note Length="0.0078125" Pitch="31" RiffPosition="6.3984375" Velocity="52" />
      <note Length="0.015625" Pitch="38" RiffPosition="6.40625" Velocity="41" />
      <note Length="0.015625" Pitch="38" RiffPosition="6.421875" Velocity="53" />
      <note Length="0.015625" Pitch="38" RiffPosition="6.4375" Velocity="74" />
      <note Length="0.015625" Pitch="31" RiffPosition="6.453125" Velocity="97" />
      <note Length="0.0234375" Pitch="31" RiffPosition="6.46875" Velocity="78" />
      <note Length="0.0078125" Pitch="31" RiffPosition="6.4921875" Velocity="38" />
      <note Length="0.0234375" Pitch="31" RiffPosition="6.5" Velocity="46" />
      <note Length="0.0078125" Pitch="46" RiffPosition="6.5234375" Velocity="68" />
      <note Length="0.015625" Pitch="46" RiffPosition="6.53125" Velocity="56" />
      <note Length="0.015625" Pitch="46" RiffPosition="6.546875" Velocity="40" />
      <note Length="0.015625" Pitch="45" RiffPosition="6.5625" Velocity="64" />
      <note Length="0.015625" Pitch="46" RiffPosition="6.578125" Velocity="88" />
      <note Length="0.0234375" Pitch="45" RiffPosition="6.59375" Velocity="68" />
      <note Length="0.0078125" Pitch="43" RiffPosition="6.6171875" Velocity="39" />
      <note Length="0.0234375" Pitch="43" RiffPosition="6.625" Velocity="52" />
      <note Length="0.0078125" Pitch="31" RiffPosition="6.6484375" Velocity="75" />
      <note Length="0.015625" Pitch="31" RiffPosition="6.65625" Velocity="63" />
      <note Length="0.015625" Pitch="31" RiffPosition="6.671875" Velocity="39" />
      <note Length="0.015625" Pitch="31" RiffPosition="6.6875" Velocity="54" />
      <note Length="0.015625" Pitch="31" RiffPosition="6.703125" Velocity="78" />
      <note Length="0.0234375" Pitch="43" RiffPosition="6.71875" Velocity="56" />
      <note Length="0.0078125" Pitch="31" RiffPosition="6.7421875" Velocity="54" />
      <note Length="0.0234375" Pitch="43" RiffPosition="6.75" Velocity="68" />
      <note Length="0.0078125" Pitch="43" RiffPosition="6.7734375" Velocity="93" />
      <note Length="0.015625" Pitch="43" RiffPosition="6.78125" Velocity="81" />
      <note Length="0.015625" Pitch="43" RiffPosition="6.796875" Velocity="58" />
      <note Length="0.015625" Pitch="43" RiffPosition="6.8125" Velocity="36" />
      <note Length="0.015625" Pitch="31" RiffPosition="6.828125" Velocity="59" />
      <note Length="0.0234375" Pitch="31" RiffPosition="6.84375" Velocity="40" />
      <note Length="0.0078125" Pitch="31" RiffPosition="6.8671875" Velocity="70" />
      <note Length="0.0234375" Pitch="31" RiffPosition="6.875" Velocity="83" />
      <note Length="0.0078125" Pitch="31" RiffPosition="6.8984375" Velocity="101" />
      <note Length="0.015625" Pitch="31" RiffPosition="6.90625" Velocity="87" />
      <note Length="0.015625" Pitch="31" RiffPosition="6.921875" Velocity="61" />
      <note Length="0.015625" Pitch="43" RiffPosition="6.9375" Velocity="39" />
      <note Length="0.015625" Pitch="43" RiffPosition="6.953125" Velocity="66" />
      <note Length="0.0234375" Pitch="45" RiffPosition="6.96875" Velocity="50" />
      <note Length="0.0078125" Pitch="46" RiffPosition="6.9921875" Velocity="55" />
      <note Length="0.0234375" Pitch="46" RiffPosition="7" Velocity="67" />
      <note Length="0.0078125" Pitch="46" RiffPosition="7.0234375" Velocity="85" />
      <note Length="0.015625" Pitch="46" RiffPosition="7.03125" Velocity="72" />
      <note Length="0.015625" Pitch="46" RiffPosition="7.046875" Velocity="48" />
      <note Length="0.015625" Pitch="45" RiffPosition="7.0625" Velocity="49" />
      <note Length="0.015625" Pitch="31" RiffPosition="7.078125" Velocity="76" />
      <note Length="0.0234375" Pitch="31" RiffPosition="7.09375" Velocity="60" />
      <note Length="0.0078125" Pitch="39" RiffPosition="7.1171875" Velocity="49" />
      <note Length="0.0234375" Pitch="39" RiffPosition="7.125" Velocity="61" />
      <note Length="0.0078125" Pitch="38" RiffPosition="7.1484375" Velocity="79" />
      <note Length="0.015625" Pitch="38" RiffPosition="7.15625" Velocity="65" />
      <note Length="0.015625" Pitch="38" RiffPosition="7.171875" Velocity="38" />
      <note Length="0.015625" Pitch="31" RiffPosition="7.1875" Velocity="58" />
      <note Length="0.015625" Pitch="31" RiffPosition="7.203125" Velocity="85" />
      <note Length="0.0234375" Pitch="31" RiffPosition="7.21875" Velocity="72" />
      <note Length="0.0078125" Pitch="46" RiffPosition="7.2421875" Velocity="37" />
      <note Length="0.0234375" Pitch="46" RiffPosition="7.25" Velocity="45" />
      <note Length="0.0078125" Pitch="48" RiffPosition="7.2734375" Velocity="60" />
      <note Length="0.015625" Pitch="48" RiffPosition="7.28125" Velocity="46" />
      <note Length="0.015625" Pitch="48" RiffPosition="7.296875" Velocity="50" />
      <note Length="0.015625" Pitch="46" RiffPosition="7.3125" Velocity="77" />
      <note Length="0.015625" Pitch="46" RiffPosition="7.328125" Velocity="104" />
      <note Length="0.0234375" Pitch="45" RiffPosition="7.34375" Velocity="88" />
      <note Length="0.0078125" Pitch="31" RiffPosition="7.3671875" Velocity="52" />
      <note Length="0.0234375" Pitch="31" RiffPosition="7.375" Velocity="41" />
      <note Length="0.0078125" Pitch="31" RiffPosition="7.3984375" Velocity="52" />
      <note Length="0.015625" Pitch="38" RiffPosition="7.40625" Velocity="41" />
      <note Length="0.015625" Pitch="38" RiffPosition="7.421875" Velocity="53" />
      <note Length="0.015625" Pitch="38" RiffPosition="7.4375" Velocity="74" />
      <note Length="0.015625" Pitch="31" RiffPosition="7.453125" Velocity="97" />
      <note Length="0.0234375" Pitch="31" RiffPosition="7.46875" Velocity="78" />
      <note Length="0.0078125" Pitch="31" RiffPosition="7.4921875" Velocity="38" />
      <note Length="0.0234375" Pitch="31" RiffPosition="7.5" Velocity="46" />
      <note Length="0.0078125" Pitch="46" RiffPosition="7.5234375" Velocity="68" />
      <note Length="0.015625" Pitch="46" RiffPosition="7.53125" Velocity="56" />
      <note Length="0.015625" Pitch="46" RiffPosition="7.546875" Velocity="40" />
      <note Length="0.015625" Pitch="45" RiffPosition="7.5625" Velocity="64" />
      <note Length="0.015625" Pitch="46" RiffPosition="7.578125" Velocity="88" />
      <note Length="0.0234375" Pitch="45" RiffPosition="7.59375" Velocity="68" />
      <note Length="0.0078125" Pitch="43" RiffPosition="7.6171875" Velocity="39" />
      <note Length="0.0234375" Pitch="43" RiffPosition="7.625" Velocity="52" />
      <note Length="0.0078125" Pitch="31" RiffPosition="7.6484375" Velocity="75" />
      <note Length="0.015625" Pitch="31" RiffPosition="7.65625" Velocity="63" />
      <note Length="0.015625" Pitch="31" RiffPosition="7.671875" Velocity="39" />
      <note Length="0.015625" Pitch="31" RiffPosition="7.6875" Velocity="54" />
      <note Length="0.015625" Pitch="31" RiffPosition="7.703125" Velocity="78" />
      <note Length="0.0234375" Pitch="43" RiffPosition="7.71875" Velocity="56" />
      <note Length="0.0078125" Pitch="31" RiffPosition="7.7421875" Velocity="54" />
      <note Length="0.0234375" Pitch="43" RiffPosition="7.75" Velocity="68" />
      <note Length="0.0078125" Pitch="43" RiffPosition="7.7734375" Velocity="93" />
      <note Length="0.015625" Pitch="43" RiffPosition="7.78125" Velocity="81" />
      <note Length="0.015625" Pitch="43" RiffPosition="7.796875" Velocity="58" />
      <note Length="0.015625" Pitch="43" RiffPosition="7.8125" Velocity="36" />
      <note Length="0.015625" Pitch="31" RiffPosition="7.828125" Velocity="59" />
      <note Length="0.0234375" Pitch="31" RiffPosition="7.84375" Velocity="40" />
      <note Length="0.0078125" Pitch="31" RiffPosition="7.8671875" Velocity="70" />
      <note Length="0.0234375" Pitch="31" RiffPosition="7.875" Velocity="83" />
      <note Length="0.0078125" Pitch="31" RiffPosition="7.8984375" Velocity="101" />
      <note Length="0.015625" Pitch="31" RiffPosition="7.90625" Velocity="87" />
      <note Length="0.015625" Pitch="31" RiffPosition="7.921875" Velocity="61" />
      <note Length="0.015625" Pitch="43" RiffPosition="7.9375" Velocity="39" />
      <note Length="0.015625" Pitch="43" RiffPosition="7.953125" Velocity="66" />
      <note Length="0.0234375" Pitch="45" RiffPosition="7.96875" Velocity="50" />
      <note Length="0.0078125" Pitch="46" RiffPosition="7.9921875" Velocity="55" />
      <note Length="0.0234375" Pitch="46" RiffPosition="8" Velocity="67" />
      <note Length="0.0078125" Pitch="46" RiffPosition="8.0234375" Velocity="85" />
      <note Length="0.015625" Pitch="46" RiffPosition="8.03125" Velocity="72" />
      <note Length="0.015625" Pitch="46" RiffPosition="8.046875" Velocity="48" />
      <note Length="0.015625" Pitch="45" RiffPosition="8.0625" Velocity="49" />
      <note Length="0.015625" Pitch="31" RiffPosition="8.078125" Velocity="76" />
      <note Length="0.0234375" Pitch="31" RiffPosition="8.09375" Velocity="60" />
      <note Length="0.0078125" Pitch="39" RiffPosition="8.1171875" Velocity="49" />
      <note Length="0.0234375" Pitch="39" RiffPosition="8.125" Velocity="61" />
      <note Length="0.0078125" Pitch="38" RiffPosition="8.1484375" Velocity="79" />
      <note Length="0.015625" Pitch="38" RiffPosition="8.15625" Velocity="65" />
      <note Length="0.015625" Pitch="38" RiffPosition="8.171875" Velocity="38" />
      <note Length="0.015625" Pitch="31" RiffPosition="8.1875" Velocity="58" />
      <note Length="0.015625" Pitch="31" RiffPosition="8.203125" Velocity="85" />
      <note Length="0.0234375" Pitch="31" RiffPosition="8.21875" Velocity="72" />
      <note Length="0.0078125" Pitch="46" RiffPosition="8.2421875" Velocity="37" />
      <note Length="0.0234375" Pitch="46" RiffPosition="8.25" Velocity="45" />
      <note Length="0.0078125" Pitch="48" RiffPosition="8.2734375" Velocity="60" />
      <note Length="0.015625" Pitch="48" RiffPosition="8.28125" Velocity="46" />
      <note Length="0.015625" Pitch="48" RiffPosition="8.296875" Velocity="50" />
      <note Length="0.015625" Pitch="46" RiffPosition="8.3125" Velocity="77" />
      <note Length="0.015625" Pitch="46" RiffPosition="8.328125" Velocity="104" />
      <note Length="0.0234375" Pitch="45" RiffPosition="8.34375" Velocity="88" />
      <note Length="0.0078125" Pitch="31" RiffPosition="8.3671875" Velocity="52" />
      <note Length="0.0234375" Pitch="31" RiffPosition="8.375" Velocity="41" />
      <note Length="0.0078125" Pitch="31" RiffPosition="8.3984375" Velocity="52" />
      <note Length="0.015625" Pitch="38" RiffPosition="8.40625" Velocity="41" />
      <note Length="0.015625" Pitch="38" RiffPosition="8.421875" Velocity="53" />
      <note Length="0.015625" Pitch="38" RiffPosition="8.4375" Velocity="74" />
      <note Length="0.015625" Pitch="31" RiffPosition="8.453125" Velocity="97" />
      <note Length="0.0234375" Pitch="31" RiffPosition="8.46875" Velocity="78" />
      <note Length="0.0078125" Pitch="31" RiffPosition="8.4921875" Velocity="38" />
      <note Length="0.0234375" Pitch="31" RiffPosition="8.5" Velocity="46" />
      <note Length="0.0078125" Pitch="46" RiffPosition="8.5234375" Velocity="68" />
      <note Length="0.015625" Pitch="46" RiffPosition="8.53125" Velocity="56" />
      <note Length="0.015625" Pitch="46" RiffPosition="8.546875" Velocity="40" />
      <note Length="0.015625" Pitch="45" RiffPosition="8.5625" Velocity="64" />
      <note Length="0.015625" Pitch="46" RiffPosition="8.578125" Velocity="88" />
      <note Length="0.0234375" Pitch="45" RiffPosition="8.59375" Velocity="68" />
      <note Length="0.0078125" Pitch="43" RiffPosition="8.6171875" Velocity="39" />
      <note Length="0.0234375" Pitch="43" RiffPosition="8.625" Velocity="52" />
      <note Length="0.0078125" Pitch="31" RiffPosition="8.6484375" Velocity="75" />
      <note Length="0.015625" Pitch="31" RiffPosition="8.65625" Velocity="63" />
      <note Length="0.015625" Pitch="31" RiffPosition="8.671875" Velocity="39" />
      <note Length="0.015625" Pitch="31" RiffPosition="8.6875" Velocity="54" />
      <note Length="0.015625" Pitch="31" RiffPosition="8.703125" Velocity="78" />
      <note Length="0.0234375" Pitch="43" RiffPosition="8.71875" Velocity="56" />
      <note Length="0.0078125" Pitch="31" RiffPosition="8.7421875" Velocity="54" />
      <note Length="0.0234375" Pitch="43" RiffPosition="8.75" Velocity="68" />
      <note Length="0.0078125" Pitch="43" RiffPosition="8.7734375" Velocity="93" />
      <note Length="0.015625" Pitch="43" RiffPosition="8.78125" Velocity="81" />
      <note Length="0.015625" Pitch="43" RiffPosition="8.796875" Velocity="58" />
      <note Length="0.015625" Pitch="43" RiffPosition="8.8125" Velocity="36" />
      <note Length="0.015625" Pitch="31" RiffPosition="8.828125" Velocity="59" />
      <note Length="0.0234375" Pitch="31" RiffPosition="8.84375" Velocity="40" />
      <note Length="0.0078125" Pitch="31" RiffPosition="8.8671875" Velocity="70" />
      <note Length="0.0234375" Pitch="31" RiffPosition="8.875" Velocity="83" />
      <note Length="0.0078125" Pitch="31" RiffPosition="8.8984375" Velocity="101" />
      <note Length="0.015625" Pitch="31" RiffPosition="8.90625" Velocity="87" />
      <note Length="0.015625" Pitch="31" RiffPosition="8.921875" Velocity="61" />
      <note Length="0.015625" Pitch="43" RiffPosition="8.9375" Velocity="39" />
      <note Length="0.015625" Pitch="43" RiffPosition="8.953125" Velocity="66" />
      <note Length="0.0234375" Pitch="45" RiffPosition="8.96875" Velocity="50" />
      <note Length="0.0078125" Pitch="46" RiffPosition="8.9921875" Velocity="55" />
      <note Length="0.0234375" Pitch="46" RiffPosition="9" Velocity="67" />
      <note Length="0.0078125" Pitch="46" RiffPosition="9.0234375" Velocity="85" />
      <note Length="0.015625" Pitch="46" RiffPosition="9.03125" Velocity="72" />
      <note Length="0.015625" Pitch="46" RiffPosition="9.046875" Velocity="48" />
      <note Length="0.015625" Pitch="45" RiffPosition="9.0625" Velocity="49" />
      <note Length="0.015625" Pitch="31" RiffPosition="9.078125" Velocity="76" />
      <note Length="0.0234375" Pitch="31" RiffPosition="9.09375" Velocity="60" />
      <note Length="0.0078125" Pitch="39" RiffPosition="9.1171875" Velocity="49" />
      <note Length="0.0234375" Pitch="39" RiffPosition="9.125" Velocity="61" />
      <note Length="0.0078125" Pitch="38" RiffPosition="9.1484375" Velocity="79" />
      <note Length="0.015625" Pitch="38" RiffPosition="9.15625" Velocity="65" />
      <note Length="0.015625" Pitch="38" RiffPosition="9.171875" Velocity="38" />
      <note Length="0.015625" Pitch="31" RiffPosition="9.1875" Velocity="58" />
      <note Length="0.015625" Pitch="31" RiffPosition="9.203125" Velocity="85" />
      <note Length="0.0234375" Pitch="31" RiffPosition="9.21875" Velocity="72" />
      <note Length="0.0078125" Pitch="46" RiffPosition="9.2421875" Velocity="37" />
      <note Length="0.0234375" Pitch="46" RiffPosition="9.25" Velocity="45" />
      <note Length="0.0078125" Pitch="48" RiffPosition="9.2734375" Velocity="60" />
      <note Length="0.015625" Pitch="48" RiffPosition="9.28125" Velocity="46" />
      <note Length="0.015625" Pitch="48" RiffPosition="9.296875" Velocity="50" />
      <note Length="0.015625" Pitch="46" RiffPosition="9.3125" Velocity="77" />
      <note Length="0.015625" Pitch="46" RiffPosition="9.328125" Velocity="104" />
      <note Length="0.0234375" Pitch="45" RiffPosition="9.34375" Velocity="88" />
      <note Length="0.0078125" Pitch="31" RiffPosition="9.3671875" Velocity="52" />
      <note Length="0.0234375" Pitch="31" RiffPosition="9.375" Velocity="41" />
      <note Length="0.0078125" Pitch="31" RiffPosition="9.3984375" Velocity="52" />
      <note Length="0.015625" Pitch="38" RiffPosition="9.40625" Velocity="41" />
      <note Length="0.015625" Pitch="38" RiffPosition="9.421875" Velocity="53" />
      <note Length="0.015625" Pitch="38" RiffPosition="9.4375" Velocity="74" />
      <note Length="0.015625" Pitch="31" RiffPosition="9.453125" Velocity="97" />
      <note Length="0.0234375" Pitch="31" RiffPosition="9.46875" Velocity="78" />
      <note Length="0.0078125" Pitch="31" RiffPosition="9.4921875" Velocity="38" />
      <note Length="0.0234375" Pitch="31" RiffPosition="9.5" Velocity="46" />
      <note Length="0.0078125" Pitch="46" RiffPosition="9.5234375" Velocity="68" />
      <note Length="0.015625" Pitch="46" RiffPosition="9.53125" Velocity="56" />
      <note Length="0.015625" Pitch="46" RiffPosition="9.546875" Velocity="40" />
      <note Length="0.015625" Pitch="45" RiffPosition="9.5625" Velocity="64" />
      <note Length="0.015625" Pitch="46" RiffPosition="9.578125" Velocity="88" />
      <note Length="0.0234375" Pitch="45" RiffPosition="9.59375" Velocity="68" />
      <note Length="0.0078125" Pitch="43" RiffPosition="9.6171875" Velocity="39" />
      <note Length="0.0234375" Pitch="43" RiffPosition="9.625" Velocity="52" />
      <note Length="0.0078125" Pitch="31" RiffPosition="9.6484375" Velocity="75" />
      <note Length="0.015625" Pitch="31" RiffPosition="9.65625" Velocity="63" />
      <note Length="0.015625" Pitch="31" RiffPosition="9.671875" Velocity="39" />
      <note Length="0.015625" Pitch="31" RiffPosition="9.6875" Velocity="54" />
      <note Length="0.015625" Pitch="31" RiffPosition="9.703125" Velocity="78" />
      <note Length="0.0234375" Pitch="43" RiffPosition="9.71875" Velocity="56" />
      <note Length="0.0078125" Pitch="31" RiffPosition="9.7421875" Velocity="54" />
      <note Length="0.0234375" Pitch="43" RiffPosition="9.75" Velocity="68" />
      <note Length="0.0078125" Pitch="43" RiffPosition="9.7734375" Velocity="93" />
      <note Length="0.015625" Pitch="43" RiffPosition="9.78125" Velocity="81" />
      <note Length="0.015625" Pitch="43" RiffPosition="9.796875" Velocity="58" />
      <note Length="0.015625" Pitch="43" RiffPosition="9.8125" Velocity="36" />
      <note Length="0.015625" Pitch="31" RiffPosition="9.828125" Velocity="59" />
      <note Length="0.0234375" Pitch="31" RiffPosition="9.84375" Velocity="40" />
      <note Length="0.0078125" Pitch="31" RiffPosition="9.8671875" Velocity="70" />
      <note Length="0.0234375" Pitch="31" RiffPosition="9.875" Velocity="83" />
      <note Length="0.0078125" Pitch="31" RiffPosition="9.8984375" Velocity="101" />
      <note Length="0.015625" Pitch="31" RiffPosition="9.90625" Velocity="87" />
      <note Length="0.015625" Pitch="31" RiffPosition="9.921875" Velocity="61" />
      <note Length="0.015625" Pitch="43" RiffPosition="9.9375" Velocity="39" />
      <note Length="0.015625" Pitch="43" RiffPosition="9.953125" Velocity="66" />
      <note Length="0.0234375" Pitch="45" RiffPosition="9.96875" Velocity="50" />
      <note Length="0.0078125" Pitch="46" RiffPosition="9.9921875" Velocity="55" />
      <note Length="0.0234375" Pitch="46" RiffPosition="10" Velocity="67" />
      <note Length="0.0078125" Pitch="46" RiffPosition="10.0234375" Velocity="85" />
      <note Length="0.015625" Pitch="46" RiffPosition="10.03125" Velocity="72" />
      <note Length="0.015625" Pitch="46" RiffPosition="10.046875" Velocity="48" />
      <note Length="0.015625" Pitch="45" RiffPosition="10.0625" Velocity="49" />
      <note Length="0.015625" Pitch="31" RiffPosition="10.078125" Velocity="76" />
      <note Length="0.0234375" Pitch="31" RiffPosition="10.09375" Velocity="60" />
      <note Length="0.0078125" Pitch="39" RiffPosition="10.1171875" Velocity="49" />
      <note Length="0.0234375" Pitch="39" RiffPosition="10.125" Velocity="61" />
      <note Length="0.0078125" Pitch="38" RiffPosition="10.1484375" Velocity="79" />
      <note Length="0.015625" Pitch="38" RiffPosition="10.15625" Velocity="65" />
      <note Length="0.015625" Pitch="38" RiffPosition="10.171875" Velocity="38" />
      <note Length="0.015625" Pitch="31" RiffPosition="10.1875" Velocity="58" />
      <note Length="0.015625" Pitch="31" RiffPosition="10.203125" Velocity="85" />
      <note Length="0.0234375" Pitch="31" RiffPosition="10.21875" Velocity="72" />
      <note Length="0.0078125" Pitch="46" RiffPosition="10.2421875" Velocity="37" />
      <note Length="0.0234375" Pitch="46" RiffPosition="10.25" Velocity="45" />
      <note Length="0.0078125" Pitch="48" RiffPosition="10.2734375" Velocity="60" />
      <note Length="0.015625" Pitch="48" RiffPosition="10.28125" Velocity="46" />
      <note Length="0.015625" Pitch="48" RiffPosition="10.296875" Velocity="50" />
      <note Length="0.015625" Pitch="46" RiffPosition="10.3125" Velocity="77" />
      <note Length="0.015625" Pitch="46" RiffPosition="10.328125" Velocity="104" />
      <note Length="0.0234375" Pitch="45" RiffPosition="10.34375" Velocity="88" />
      <note Length="0.0078125" Pitch="31" RiffPosition="10.3671875" Velocity="52" />
      <note Length="0.0234375" Pitch="31" RiffPosition="10.375" Velocity="41" />
      <note Length="0.0078125" Pitch="31" RiffPosition="10.3984375" Velocity="52" />
      <note Length="0.015625" Pitch="38" RiffPosition="10.40625" Velocity="41" />
      <note Length="0.015625" Pitch="38" RiffPosition="10.421875" Velocity="53" />
      <note Length="0.015625" Pitch="38" RiffPosition="10.4375" Velocity="74" />
      <note Length="0.015625" Pitch="31" RiffPosition="10.453125" Velocity="97" />
      <note Length="0.0234375" Pitch="31" RiffPosition="10.46875" Velocity="78" />
      <note Length="0.0078125" Pitch="31" RiffPosition="10.4921875" Velocity="38" />
      <note Length="0.0234375" Pitch="31" RiffPosition="10.5" Velocity="46" />
      <note Length="0.0078125" Pitch="46" RiffPosition="10.5234375" Velocity="68" />
      <note Length="0.015625" Pitch="46" RiffPosition="10.53125" Velocity="56" />
      <note Length="0.015625" Pitch="46" RiffPosition="10.546875" Velocity="40" />
      <note Length="0.015625" Pitch="45" RiffPosition="10.5625" Velocity="64" />
      <note Length="0.015625" Pitch="46" RiffPosition="10.578125" Velocity="88" />
      <note Length="0.0234375" Pitch="45" RiffPosition="10.59375" Velocity="68" />
      <note Length="0.0078125" Pitch="43" RiffPosition="10.6171875" Velocity="39" />
      <note Length="0.0234375" Pitch="43" RiffPosition="10.625" Velocity="52" />
      <note Length="0.0078125" Pitch="31" RiffPosition="10.6484375" Velocity="75" />
      <note Length="0.015625" Pitch="31" RiffPosition="10.65625" Velocity="63" />
      <note Length="0.015625" Pitch="31" RiffPosition="10.671875" Velocity="39" />
      <note Length="0.015625" Pitch="31" RiffPosition="10.6875" Velocity="54" />
      <note Length="0.015625" Pitch="31" RiffPosition="10.703125" Velocity="78" />
      <note Length="0.0234375" Pitch="43" RiffPosition="10.71875" Velocity="56" />
      <note Length="0.0078125" Pitch="31" RiffPosition="10.7421875" Velocity="54" />
      <note Length="0.0234375" Pitch="43" RiffPosition="10.75" Velocity="68" />
      <note Length="0.0078125" Pitch="43" RiffPosition="10.7734375" Velocity="93" />
      <note Length="0.015625" Pitch="43" RiffPosition="10.78125" Velocity="81" />
      <note Length="0.015625" Pitch="43" RiffPosition="10.796875" Velocity="58" />
      <note Length="0.015625" Pitch="43" RiffPosition="10.8125" Velocity="36" />
      <note Length="0.015625" Pitch="31" RiffPosition="10.828125" Velocity="59" />
      <note Length="0.0234375" Pitch="31" RiffPosition="10.84375" Velocity="40" />
      <note Length="0.0078125" Pitch="31" RiffPosition="10.8671875" Velocity="70" />
      <note Length="0.0234375" Pitch="31" RiffPosition="10.875" Velocity="83" />
      <note Length="0.0078125" Pitch="31" RiffPosition="10.8984375" Velocity="101" />
      <note Length="0.015625" Pitch="31" RiffPosition="10.90625" Velocity="87" />
      <note Length="0.015625" Pitch="31" RiffPosition="10.921875" Velocity="61" />
      <note Length="0.015625" Pitch="43" RiffPosition="10.9375" Velocity="39" />
      <note Length="0.015625" Pitch="43" RiffPosition="10.953125" Velocity="66" />
      <note Length="0.0234375" Pitch="45" RiffPosition="10.96875" Velocity="50" />
      <note Length="0.0078125" Pitch="46" RiffPosition="10.9921875" Velocity="55" />
      <note Length="0.0234375" Pitch="46" RiffPosition="11" Velocity="67" />
      <note Length="0.0078125" Pitch="46" RiffPosition="11.0234375" Velocity="85" />
      <note Length="0.015625" Pitch="46" RiffPosition="11.03125" Velocity="72" />
      <note Length="0.015625" Pitch="46" RiffPosition="11.046875" Velocity="48" />
      <note Length="0.015625" Pitch="45" RiffPosition="11.0625" Velocity="49" />
      <note Length="0.015625" Pitch="31" RiffPosition="11.078125" Velocity="76" />
      <note Length="0.0234375" Pitch="31" RiffPosition="11.09375" Velocity="60" />
      <note Length="0.0078125" Pitch="39" RiffPosition="11.1171875" Velocity="49" />
      <note Length="0.0234375" Pitch="39" RiffPosition="11.125" Velocity="61" />
      <note Length="0.0078125" Pitch="38" RiffPosition="11.1484375" Velocity="79" />
      <note Length="0.015625" Pitch="38" RiffPosition="11.15625" Velocity="65" />
      <note Length="0.015625" Pitch="38" RiffPosition="11.171875" Velocity="38" />
      <note Length="0.015625" Pitch="31" RiffPosition="11.1875" Velocity="58" />
      <note Length="0.015625" Pitch="31" RiffPosition="11.203125" Velocity="85" />
      <note Length="0.0234375" Pitch="31" RiffPosition="11.21875" Velocity="72" />
      <note Length="0.0078125" Pitch="46" RiffPosition="11.2421875" Velocity="37" />
      <note Length="0.0234375" Pitch="46" RiffPosition="11.25" Velocity="45" />
      <note Length="0.0078125" Pitch="48" RiffPosition="11.2734375" Velocity="60" />
      <note Length="0.015625" Pitch="48" RiffPosition="11.28125" Velocity="46" />
      <note Length="0.015625" Pitch="48" RiffPosition="11.296875" Velocity="50" />
      <note Length="0.015625" Pitch="46" RiffPosition="11.3125" Velocity="77" />
      <note Length="0.015625" Pitch="46" RiffPosition="11.328125" Velocity="104" />
      <note Length="0.0234375" Pitch="45" RiffPosition="11.34375" Velocity="88" />
      <note Length="0.0078125" Pitch="31" RiffPosition="11.3671875" Velocity="52" />
      <note Length="0.0234375" Pitch="31" RiffPosition="11.375" Velocity="41" />
      <note Length="0.0078125" Pitch="31" RiffPosition="11.3984375" Velocity="52" />
      <note Length="0.015625" Pitch="38" RiffPosition="11.40625" Velocity="41" />
      <note Length="0.015625" Pitch="38" RiffPosition="11.421875" Velocity="53" />
      <note Length="0.015625" Pitch="38" RiffPosition="11.4375" Velocity="74" />
      <note Length="0.015625" Pitch="31" RiffPosition="11.453125" Velocity="97" />
      <note Length="0.0234375" Pitch="31" RiffPosition="11.46875" Velocity="78" />
      <note Length="0.0078125" Pitch="31" RiffPosition="11.4921875" Velocity="38" />
      <note Length="0.0234375" Pitch="31" RiffPosition="11.5" Velocity="46" />
      <note Length="0.0078125" Pitch="46" RiffPosition="11.5234375" Velocity="68" />
      <note Length="0.015625" Pitch="46" RiffPosition="11.53125" Velocity="56" />
      <note Length="0.015625" Pitch="46" RiffPosition="11.546875" Velocity="40" />
      <note Length="0.015625" Pitch="45" RiffPosition="11.5625" Velocity="64" />
      <note Length="0.015625" Pitch="46" RiffPosition="11.578125" Velocity="88" />
      <note Length="0.0234375" Pitch="45" RiffPosition="11.59375" Velocity="68" />
      <note Length="0.0078125" Pitch="43" RiffPosition="11.6171875" Velocity="39" />
      <note Length="0.0234375" Pitch="43" RiffPosition="11.625" Velocity="52" />
      <note Length="0.0078125" Pitch="31" RiffPosition="11.6484375" Velocity="75" />
      <note Length="0.015625" Pitch="31" RiffPosition="11.65625" Velocity="63" />
      <note Length="0.015625" Pitch="31" RiffPosition="11.671875" Velocity="39" />
      <note Length="0.015625" Pitch="31" RiffPosition="11.6875" Velocity="54" />
      <note Length="0.015625" Pitch="31" RiffPosition="11.703125" Velocity="78" />
      <note Length="0.0234375" Pitch="43" RiffPosition="11.71875" Velocity="56" />
      <note Length="0.0078125" Pitch="31" RiffPosition="11.7421875" Velocity="54" />
      <note Length="0.0234375" Pitch="43" RiffPosition="11.75" Velocity="68" />
      <note Length="0.0078125" Pitch="43" RiffPosition="11.7734375" Velocity="93" />
      <note Length="0.015625" Pitch="43" RiffPosition="11.78125" Velocity="81" />
      <note Length="0.015625" Pitch="43" RiffPosition="11.796875" Velocity="58" />
      <note Length="0.015625" Pitch="43" RiffPosition="11.8125" Velocity="36" />
      <note Length="0.015625" Pitch="31" RiffPosition="11.828125" Velocity="59" />
      <note Length="0.0234375" Pitch="31" RiffPosition="11.84375" Velocity="40" />
      <note Length="0.0078125" Pitch="31" RiffPosition="11.8671875" Velocity="70" />
      <note Length="0.0234375" Pitch="31" RiffPosition="11.875" Velocity="83" />
      <note Length="0.0078125" Pitch="31" RiffPosition="11.8984375" Velocity="101" />
      <note Length="0.015625" Pitch="31" RiffPosition="11.90625" Velocity="87" />
      <note Length="0.015625" Pitch="31" RiffPosition="11.921875" Velocity="61" />
      <note Length="0.015625" Pitch="43" RiffPosition="11.9375" Velocity="39" />
      <note Length="0.015625" Pitch="43" RiffPosition="11.953125" Velocity="66" />
      <note Length="0.0234375" Pitch="45" RiffPosition="11.96875" Velocity="50" />
      <note Length="0.0078125" Pitch="46" RiffPosition="11.9921875" Velocity="55" />
    </riff>
    <riff IsDrum="False" MidiInstrument="106" Tempo="75" Length="12">
      <note Length="0.03125" Pitch="60" RiffPosition="0" Velocity="0" />
      <note Length="0.03125" Pitch="62" RiffPosition="0.03125" Velocity="0" />
      <note Length="0.03125" Pitch="60" RiffPosition="0.0625" Velocity="0" />
      <note Length="0.015625" Pitch="55" RiffPosition="0.09375" Velocity="0" />
      <note Length="0.015625" Pitch="43" RiffPosition="0.109375" Velocity="0" />
      <note Length="0.015625" Pitch="43" RiffPosition="0.125" Velocity="0" />
      <note Length="0.046875" Pitch="43" RiffPosition="0.140625" Velocity="0" />
      <note Length="0.03125" Pitch="43" RiffPosition="0.1875" Velocity="0" />
      <note Length="0.03125" Pitch="43" RiffPosition="0.21875" Velocity="0" />
      <note Length="0.03125" Pitch="43" RiffPosition="0.25" Velocity="0" />
      <note Length="0.03125" Pitch="55" RiffPosition="0.28125" Velocity="0" />
      <note Length="0.03125" Pitch="55" RiffPosition="0.3125" Velocity="0" />
      <note Length="0.015625" Pitch="50" RiffPosition="0.34375" Velocity="0" />
      <note Length="0.015625" Pitch="51" RiffPosition="0.359375" Velocity="0" />
      <note Length="0.015625" Pitch="51" RiffPosition="0.375" Velocity="0" />
      <note Length="0.046875" Pitch="51" RiffPosition="0.390625" Velocity="0" />
      <note Length="0.03125" Pitch="43" RiffPosition="0.4375" Velocity="0" />
      <note Length="0.03125" Pitch="43" RiffPosition="0.46875" Velocity="0" />
      <note Length="0.03125" Pitch="43" RiffPosition="0.5" Velocity="0" />
      <note Length="0.03125" Pitch="58" RiffPosition="0.53125" Velocity="0" />
      <note Length="0.03125" Pitch="55" RiffPosition="0.5625" Velocity="0" />
      <note Length="0.015625" Pitch="43" RiffPosition="0.59375" Velocity="0" />
      <note Length="0.015625" Pitch="51" RiffPosition="0.609375" Velocity="0" />
      <note Length="0.015625" Pitch="43" RiffPosition="0.625" Velocity="0" />
      <note Length="0.046875" Pitch="43" RiffPosition="0.640625" Velocity="0" />
      <note Length="0.03125" Pitch="43" RiffPosition="0.6875" Velocity="0" />
      <note Length="0.03125" Pitch="43" RiffPosition="0.71875" Velocity="0" />
      <note Length="0.03125" Pitch="43" RiffPosition="0.75" Velocity="0" />
      <note Length="0.03125" Pitch="58" RiffPosition="0.78125" Velocity="0" />
      <note Length="0.03125" Pitch="55" RiffPosition="0.8125" Velocity="0" />
      <note Length="0.015625" Pitch="43" RiffPosition="0.84375" Velocity="0" />
      <note Length="0.015625" Pitch="43" RiffPosition="0.859375" Velocity="0" />
      <note Length="0.015625" Pitch="43" RiffPosition="0.875" Velocity="0" />
      <note Length="0.046875" Pitch="55" RiffPosition="0.890625" Velocity="0" />
      <note Length="0.03125" Pitch="58" RiffPosition="0.9375" Velocity="0" />
      <note Length="0.03125" Pitch="57" RiffPosition="0.96875" Velocity="0" />
      <note Length="0.03125" Pitch="60" RiffPosition="1" Velocity="0" />
      <note Length="0.03125" Pitch="62" RiffPosition="1.03125" Velocity="0" />
      <note Length="0.03125" Pitch="60" RiffPosition="1.0625" Velocity="0" />
      <note Length="0.015625" Pitch="43" RiffPosition="1.09375" Velocity="0" />
      <note Length="0.015625" Pitch="43" RiffPosition="1.109375" Velocity="0" />
      <note Length="0.015625" Pitch="43" RiffPosition="1.125" Velocity="0" />
      <note Length="0.046875" Pitch="43" RiffPosition="1.140625" Velocity="0" />
      <note Length="0.03125" Pitch="43" RiffPosition="1.1875" Velocity="0" />
      <note Length="0.03125" Pitch="43" RiffPosition="1.21875" Velocity="0" />
      <note Length="0.03125" Pitch="43" RiffPosition="1.25" Velocity="0" />
      <note Length="0.03125" Pitch="55" RiffPosition="1.28125" Velocity="0" />
      <note Length="0.03125" Pitch="55" RiffPosition="1.3125" Velocity="0" />
      <note Length="0.015625" Pitch="51" RiffPosition="1.34375" Velocity="0" />
      <note Length="0.015625" Pitch="50" RiffPosition="1.359375" Velocity="0" />
      <note Length="0.015625" Pitch="51" RiffPosition="1.375" Velocity="0" />
      <note Length="0.046875" Pitch="43" RiffPosition="1.390625" Velocity="0" />
      <note Length="0.03125" Pitch="43" RiffPosition="1.4375" Velocity="0" />
      <note Length="0.03125" Pitch="43" RiffPosition="1.46875" Velocity="0" />
      <note Length="0.03125" Pitch="43" RiffPosition="1.5" Velocity="0" />
      <note Length="0.03125" Pitch="58" RiffPosition="1.53125" Velocity="0" />
      <note Length="0.03125" Pitch="55" RiffPosition="1.5625" Velocity="0" />
      <note Length="0.015625" Pitch="43" RiffPosition="1.59375" Velocity="0" />
      <note Length="0.015625" Pitch="51" RiffPosition="1.609375" Velocity="0" />
      <note Length="0.015625" Pitch="51" RiffPosition="1.625" Velocity="0" />
      <note Length="0.046875" Pitch="43" RiffPosition="1.640625" Velocity="0" />
      <note Length="0.03125" Pitch="43" RiffPosition="1.6875" Velocity="0" />
      <note Length="0.03125" Pitch="43" RiffPosition="1.71875" Velocity="0" />
      <note Length="0.03125" Pitch="43" RiffPosition="1.75" Velocity="0" />
      <note Length="0.03125" Pitch="57" RiffPosition="1.78125" Velocity="0" />
      <note Length="0.03125" Pitch="55" RiffPosition="1.8125" Velocity="0" />
      <note Length="0.015625" Pitch="43" RiffPosition="1.84375" Velocity="0" />
      <note Length="0.015625" Pitch="43" RiffPosition="1.859375" Velocity="0" />
      <note Length="0.015625" Pitch="43" RiffPosition="1.875" Velocity="0" />
      <note Length="0.046875" Pitch="43" RiffPosition="1.890625" Velocity="0" />
      <note Length="0.03125" Pitch="58" RiffPosition="1.9375" Velocity="0" />
      <note Length="0.03125" Pitch="58" RiffPosition="1.96875" Velocity="0" />
      <note Length="0.03125" Pitch="60" RiffPosition="2" Velocity="39" />
      <note Length="0.03125" Pitch="55" RiffPosition="2.03125" Velocity="36" />
      <note Length="0.03125" Pitch="60" RiffPosition="2.0625" Velocity="79" />
      <note Length="0.015625" Pitch="43" RiffPosition="2.09375" Velocity="74" />
      <note Length="0.015625" Pitch="43" RiffPosition="2.109375" Velocity="56" />
      <note Length="0.015625" Pitch="43" RiffPosition="2.125" Velocity="42" />
      <note Length="0.046875" Pitch="43" RiffPosition="2.140625" Velocity="33" />
      <note Length="0.03125" Pitch="43" RiffPosition="2.1875" Velocity="63" />
      <note Length="0.03125" Pitch="43" RiffPosition="2.21875" Velocity="62" />
      <note Length="0.03125" Pitch="43" RiffPosition="2.25" Velocity="41" />
      <note Length="0.03125" Pitch="57" RiffPosition="2.28125" Velocity="41" />
      <note Length="0.03125" Pitch="43" RiffPosition="2.3125" Velocity="48" />
      <note Length="0.015625" Pitch="51" RiffPosition="2.34375" Velocity="48" />
      <note Length="0.015625" Pitch="50" RiffPosition="2.359375" Velocity="36" />
      <note Length="0.015625" Pitch="51" RiffPosition="2.375" Velocity="40" />
      <note Length="0.046875" Pitch="43" RiffPosition="2.390625" Velocity="53" />
      <note Length="0.03125" Pitch="43" RiffPosition="2.4375" Velocity="62" />
      <note Length="0.03125" Pitch="43" RiffPosition="2.46875" Velocity="48" />
      <note Length="0.03125" Pitch="43" RiffPosition="2.5" Velocity="41" />
      <note Length="0.03125" Pitch="58" RiffPosition="2.53125" Velocity="34" />
      <note Length="0.03125" Pitch="55" RiffPosition="2.5625" Velocity="53" />
      <note Length="0.015625" Pitch="43" RiffPosition="2.59375" Velocity="49" />
      <note Length="0.015625" Pitch="51" RiffPosition="2.609375" Velocity="40" />
      <note Length="0.015625" Pitch="51" RiffPosition="2.625" Velocity="69" />
      <note Length="0.046875" Pitch="43" RiffPosition="2.640625" Velocity="67" />
      <note Length="0.03125" Pitch="43" RiffPosition="2.6875" Velocity="35" />
      <note Length="0.03125" Pitch="43" RiffPosition="2.71875" Velocity="44" />
      <note Length="0.03125" Pitch="43" RiffPosition="2.75" Velocity="91" />
      <note Length="0.03125" Pitch="57" RiffPosition="2.78125" Velocity="96" />
      <note Length="0.03125" Pitch="55" RiffPosition="2.8125" Velocity="50" />
      <note Length="0.015625" Pitch="43" RiffPosition="2.84375" Velocity="36" />
      <note Length="0.015625" Pitch="43" RiffPosition="2.859375" Velocity="57" />
      <note Length="0.015625" Pitch="43" RiffPosition="2.875" Velocity="64" />
      <note Length="0.046875" Pitch="43" RiffPosition="2.890625" Velocity="74" />
      <note Length="0.03125" Pitch="58" RiffPosition="2.9375" Velocity="43" />
      <note Length="0.03125" Pitch="58" RiffPosition="2.96875" Velocity="58" />
      <note Length="0.03125" Pitch="58" RiffPosition="3" Velocity="31" />
      <note Length="0.03125" Pitch="55" RiffPosition="3.03125" Velocity="48" />
      <note Length="0.03125" Pitch="60" RiffPosition="3.0625" Velocity="78" />
      <note Length="0.015625" Pitch="43" RiffPosition="3.09375" Velocity="74" />
      <note Length="0.015625" Pitch="43" RiffPosition="3.109375" Velocity="68" />
      <note Length="0.015625" Pitch="43" RiffPosition="3.125" Velocity="42" />
      <note Length="0.046875" Pitch="43" RiffPosition="3.140625" Velocity="34" />
      <note Length="0.03125" Pitch="55" RiffPosition="3.1875" Velocity="62" />
      <note Length="0.03125" Pitch="43" RiffPosition="3.21875" Velocity="62" />
      <note Length="0.03125" Pitch="43" RiffPosition="3.25" Velocity="41" />
      <note Length="0.03125" Pitch="57" RiffPosition="3.28125" Velocity="41" />
      <note Length="0.03125" Pitch="43" RiffPosition="3.3125" Velocity="52" />
      <note Length="0.015625" Pitch="51" RiffPosition="3.34375" Velocity="47" />
      <note Length="0.015625" Pitch="50" RiffPosition="3.359375" Velocity="35" />
      <note Length="0.015625" Pitch="50" RiffPosition="3.375" Velocity="41" />
      <note Length="0.046875" Pitch="43" RiffPosition="3.390625" Velocity="42" />
      <note Length="0.03125" Pitch="43" RiffPosition="3.4375" Velocity="62" />
      <note Length="0.03125" Pitch="43" RiffPosition="3.46875" Velocity="60" />
      <note Length="0.03125" Pitch="55" RiffPosition="3.5" Velocity="42" />
      <note Length="0.03125" Pitch="57" RiffPosition="3.53125" Velocity="42" />
      <note Length="0.03125" Pitch="55" RiffPosition="3.5625" Velocity="53" />
      <note Length="0.015625" Pitch="43" RiffPosition="3.59375" Velocity="49" />
      <note Length="0.015625" Pitch="51" RiffPosition="3.609375" Velocity="41" />
      <note Length="0.015625" Pitch="51" RiffPosition="3.625" Velocity="69" />
      <note Length="0.046875" Pitch="51" RiffPosition="3.640625" Velocity="67" />
      <note Length="0.03125" Pitch="43" RiffPosition="3.6875" Velocity="43" />
      <note Length="0.03125" Pitch="43" RiffPosition="3.71875" Velocity="44" />
      <note Length="0.03125" Pitch="43" RiffPosition="3.75" Velocity="79" />
      <note Length="0.03125" Pitch="57" RiffPosition="3.78125" Velocity="96" />
      <note Length="0.03125" Pitch="55" RiffPosition="3.8125" Velocity="50" />
      <note Length="0.015625" Pitch="43" RiffPosition="3.84375" Velocity="45" />
      <note Length="0.015625" Pitch="43" RiffPosition="3.859375" Velocity="57" />
      <note Length="0.015625" Pitch="43" RiffPosition="3.875" Velocity="65" />
      <note Length="0.046875" Pitch="43" RiffPosition="3.890625" Velocity="74" />
      <note Length="0.03125" Pitch="58" RiffPosition="3.9375" Velocity="43" />
      <note Length="0.03125" Pitch="58" RiffPosition="3.96875" Velocity="58" />
      <note Length="0.03125" Pitch="60" RiffPosition="4" Velocity="31" />
      <note Length="0.03125" Pitch="55" RiffPosition="4.03125" Velocity="47" />
      <note Length="0.03125" Pitch="58" RiffPosition="4.0625" Velocity="78" />
      <note Length="0.015625" Pitch="55" RiffPosition="4.09375" Velocity="73" />
      <note Length="0.015625" Pitch="43" RiffPosition="4.109375" Velocity="60" />
      <note Length="0.015625" Pitch="43" RiffPosition="4.125" Velocity="41" />
      <note Length="0.046875" Pitch="43" RiffPosition="4.140625" Velocity="34" />
      <note Length="0.03125" Pitch="55" RiffPosition="4.1875" Velocity="74" />
      <note Length="0.03125" Pitch="43" RiffPosition="4.21875" Velocity="54" />
      <note Length="0.03125" Pitch="43" RiffPosition="4.25" Velocity="42" />
      <note Length="0.03125" Pitch="57" RiffPosition="4.28125" Velocity="42" />
      <note Length="0.03125" Pitch="43" RiffPosition="4.3125" Velocity="52" />
      <note Length="0.015625" Pitch="51" RiffPosition="4.34375" Velocity="59" />
      <note Length="0.015625" Pitch="50" RiffPosition="4.359375" Velocity="35" />
      <note Length="0.015625" Pitch="50" RiffPosition="4.375" Velocity="49" />
      <note Length="0.046875" Pitch="43" RiffPosition="4.390625" Velocity="42" />
      <note Length="0.03125" Pitch="43" RiffPosition="4.4375" Velocity="61" />
      <note Length="0.03125" Pitch="43" RiffPosition="4.46875" Velocity="59" />
      <note Length="0.03125" Pitch="55" RiffPosition="4.5" Velocity="42" />
      <note Length="0.03125" Pitch="57" RiffPosition="4.53125" Velocity="42" />
      <note Length="0.03125" Pitch="55" RiffPosition="4.5625" Velocity="52" />
      <note Length="0.015625" Pitch="43" RiffPosition="4.59375" Velocity="48" />
      <note Length="0.015625" Pitch="43" RiffPosition="4.609375" Velocity="41" />
      <note Length="0.015625" Pitch="51" RiffPosition="4.625" Velocity="57" />
      <note Length="0.046875" Pitch="43" RiffPosition="4.640625" Velocity="75" />
      <note Length="0.03125" Pitch="43" RiffPosition="4.6875" Velocity="44" />
      <note Length="0.03125" Pitch="43" RiffPosition="4.71875" Velocity="45" />
      <note Length="0.03125" Pitch="43" RiffPosition="4.75" Velocity="87" />
      <note Length="0.03125" Pitch="58" RiffPosition="4.78125" Velocity="84" />
      <note Length="0.03125" Pitch="57" RiffPosition="4.8125" Velocity="51" />
      <note Length="0.015625" Pitch="43" RiffPosition="4.84375" Velocity="45" />
      <note Length="0.015625" Pitch="43" RiffPosition="4.859375" Velocity="58" />
      <note Length="0.015625" Pitch="43" RiffPosition="4.875" Velocity="65" />
      <note Length="0.046875" Pitch="43" RiffPosition="4.890625" Velocity="75" />
      <note Length="0.03125" Pitch="58" RiffPosition="4.9375" Velocity="42" />
      <note Length="0.03125" Pitch="57" RiffPosition="4.96875" Velocity="57" />
      <note Length="0.03125" Pitch="60" RiffPosition="5" Velocity="30" />
      <note Length="0.03125" Pitch="55" RiffPosition="5.03125" Velocity="47" />
      <note Length="0.03125" Pitch="60" RiffPosition="5.0625" Velocity="82" />
      <note Length="0.015625" Pitch="55" RiffPosition="5.09375" Velocity="73" />
      <note Length="0.015625" Pitch="43" RiffPosition="5.109375" Velocity="59" />
      <note Length="0.015625" Pitch="43" RiffPosition="5.125" Velocity="41" />
      <note Length="0.046875" Pitch="43" RiffPosition="5.140625" Velocity="38" />
      <note Length="0.03125" Pitch="55" RiffPosition="5.1875" Velocity="74" />
      <note Length="0.03125" Pitch="43" RiffPosition="5.21875" Velocity="66" />
      <note Length="0.03125" Pitch="43" RiffPosition="5.25" Velocity="42" />
      <note Length="0.03125" Pitch="55" RiffPosition="5.28125" Velocity="50" />
      <note Length="0.03125" Pitch="43" RiffPosition="5.3125" Velocity="51" />
      <note Length="0.015625" Pitch="43" RiffPosition="5.34375" Velocity="58" />
      <note Length="0.015625" Pitch="50" RiffPosition="5.359375" Velocity="34" />
      <note Length="0.015625" Pitch="50" RiffPosition="5.375" Velocity="49" />
      <note Length="0.046875" Pitch="51" RiffPosition="5.390625" Velocity="43" />
      <note Length="0.03125" Pitch="43" RiffPosition="5.4375" Velocity="53" />
      <note Length="0.03125" Pitch="43" RiffPosition="5.46875" Velocity="59" />
      <note Length="0.03125" Pitch="43" RiffPosition="5.5" Velocity="30" />
      <note Length="0.03125" Pitch="58" RiffPosition="5.53125" Velocity="43" />
      <note Length="0.03125" Pitch="55" RiffPosition="5.5625" Velocity="52" />
      <note Length="0.015625" Pitch="43" RiffPosition="5.59375" Velocity="40" />
      <note Length="0.015625" Pitch="43" RiffPosition="5.609375" Velocity="42" />
      <note Length="0.015625" Pitch="51" RiffPosition="5.625" Velocity="58" />
      <note Length="0.046875" Pitch="43" RiffPosition="5.640625" Velocity="76" />
      <note Length="0.03125" Pitch="43" RiffPosition="5.6875" Velocity="44" />
      <note Length="0.03125" Pitch="43" RiffPosition="5.71875" Velocity="45" />
      <note Length="0.03125" Pitch="43" RiffPosition="5.75" Velocity="88" />
      <note Length="0.03125" Pitch="58" RiffPosition="5.78125" Velocity="85" />
      <note Length="0.03125" Pitch="55" RiffPosition="5.8125" Velocity="59" />
      <note Length="0.015625" Pitch="43" RiffPosition="5.84375" Velocity="46" />
      <note Length="0.015625" Pitch="43" RiffPosition="5.859375" Velocity="54" />
      <note Length="0.015625" Pitch="43" RiffPosition="5.875" Velocity="66" />
      <note Length="0.046875" Pitch="55" RiffPosition="5.890625" Velocity="75" />
      <note Length="0.03125" Pitch="58" RiffPosition="5.9375" Velocity="54" />
      <note Length="0.03125" Pitch="57" RiffPosition="5.96875" Velocity="49" />
      <note Length="0.03125" Pitch="60" RiffPosition="6" Velocity="30" />
      <note Length="0.03125" Pitch="62" RiffPosition="6.03125" Velocity="46" />
      <note Length="0.03125" Pitch="60" RiffPosition="6.0625" Velocity="82" />
      <note Length="0.015625" Pitch="55" RiffPosition="6.09375" Velocity="85" />
      <note Length="0.015625" Pitch="43" RiffPosition="6.109375" Velocity="59" />
      <note Length="0.015625" Pitch="43" RiffPosition="6.125" Velocity="33" />
      <note Length="0.046875" Pitch="43" RiffPosition="6.140625" Velocity="37" />
      <note Length="0.03125" Pitch="43" RiffPosition="6.1875" Velocity="73" />
      <note Length="0.03125" Pitch="43" RiffPosition="6.21875" Velocity="65" />
      <note Length="0.03125" Pitch="43" RiffPosition="6.25" Velocity="43" />
      <note Length="0.03125" Pitch="55" RiffPosition="6.28125" Velocity="50" />
      <note Length="0.03125" Pitch="43" RiffPosition="6.3125" Velocity="51" />
      <note Length="0.015625" Pitch="50" RiffPosition="6.34375" Velocity="58" />
      <note Length="0.015625" Pitch="51" RiffPosition="6.359375" Velocity="34" />
      <note Length="0.015625" Pitch="51" RiffPosition="6.375" Velocity="37" />
      <note Length="0.046875" Pitch="51" RiffPosition="6.390625" Velocity="51" />
      <note Length="0.03125" Pitch="43" RiffPosition="6.4375" Velocity="52" />
      <note Length="0.03125" Pitch="43" RiffPosition="6.46875" Velocity="58" />
      <note Length="0.03125" Pitch="43" RiffPosition="6.5" Velocity="38" />
      <note Length="0.03125" Pitch="58" RiffPosition="6.53125" Velocity="31" />
      <note Length="0.03125" Pitch="55" RiffPosition="6.5625" Velocity="51" />
      <note Length="0.015625" Pitch="43" RiffPosition="6.59375" Velocity="40" />
      <note Length="0.015625" Pitch="50" RiffPosition="6.609375" Velocity="42" />
      <note Length="0.015625" Pitch="43" RiffPosition="6.625" Velocity="58" />
      <note Length="0.046875" Pitch="43" RiffPosition="6.640625" Velocity="76" />
      <note Length="0.03125" Pitch="43" RiffPosition="6.6875" Velocity="45" />
      <note Length="0.03125" Pitch="43" RiffPosition="6.71875" Velocity="46" />
      <note Length="0.03125" Pitch="43" RiffPosition="6.75" Velocity="88" />
      <note Length="0.03125" Pitch="58" RiffPosition="6.78125" Velocity="85" />
      <note Length="0.03125" Pitch="55" RiffPosition="6.8125" Velocity="47" />
      <note Length="0.015625" Pitch="43" RiffPosition="6.84375" Velocity="46" />
      <note Length="0.015625" Pitch="43" RiffPosition="6.859375" Velocity="54" />
      <note Length="0.015625" Pitch="43" RiffPosition="6.875" Velocity="66" />
      <note Length="0.046875" Pitch="55" RiffPosition="6.890625" Velocity="63" />
      <note Length="0.03125" Pitch="58" RiffPosition="6.9375" Velocity="53" />
      <note Length="0.03125" Pitch="57" RiffPosition="6.96875" Velocity="61" />
      <note Length="0.03125" Pitch="60" RiffPosition="7" Velocity="31" />
      <note Length="0.03125" Pitch="62" RiffPosition="7.03125" Velocity="38" />
      <note Length="0.03125" Pitch="60" RiffPosition="7.0625" Velocity="81" />
      <note Length="0.015625" Pitch="55" RiffPosition="7.09375" Velocity="84" />
      <note Length="0.015625" Pitch="43" RiffPosition="7.109375" Velocity="58" />
      <note Length="0.015625" Pitch="43" RiffPosition="7.125" Velocity="32" />
      <note Length="0.046875" Pitch="43" RiffPosition="7.140625" Velocity="37" />
      <note Length="0.03125" Pitch="43" RiffPosition="7.1875" Velocity="65" />
      <note Length="0.03125" Pitch="43" RiffPosition="7.21875" Velocity="65" />
      <note Length="0.03125" Pitch="43" RiffPosition="7.25" Velocity="31" />
      <note Length="0.03125" Pitch="55" RiffPosition="7.28125" Velocity="51" />
      <note Length="0.03125" Pitch="55" RiffPosition="7.3125" Velocity="50" />
      <note Length="0.015625" Pitch="51" RiffPosition="7.34375" Velocity="50" />
      <note Length="0.015625" Pitch="51" RiffPosition="7.359375" Velocity="33" />
      <note Length="0.015625" Pitch="51" RiffPosition="7.375" Velocity="38" />
      <note Length="0.046875" Pitch="51" RiffPosition="7.390625" Velocity="51" />
      <note Length="0.03125" Pitch="43" RiffPosition="7.4375" Velocity="52" />
      <note Length="0.03125" Pitch="43" RiffPosition="7.46875" Velocity="58" />
      <note Length="0.03125" Pitch="43" RiffPosition="7.5" Velocity="39" />
      <note Length="0.03125" Pitch="58" RiffPosition="7.53125" Velocity="31" />
      <note Length="0.03125" Pitch="55" RiffPosition="7.5625" Velocity="43" />
      <note Length="0.015625" Pitch="43" RiffPosition="7.59375" Velocity="39" />
      <note Length="0.015625" Pitch="51" RiffPosition="7.609375" Velocity="38" />
      <note Length="0.015625" Pitch="43" RiffPosition="7.625" Velocity="59" />
      <note Length="0.046875" Pitch="43" RiffPosition="7.640625" Velocity="77" />
      <note Length="0.03125" Pitch="43" RiffPosition="7.6875" Velocity="33" />
      <note Length="0.03125" Pitch="43" RiffPosition="7.71875" Velocity="54" />
      <note Length="0.03125" Pitch="43" RiffPosition="7.75" Velocity="89" />
      <note Length="0.03125" Pitch="57" RiffPosition="7.78125" Velocity="86" />
      <note Length="0.03125" Pitch="55" RiffPosition="7.8125" Velocity="48" />
      <note Length="0.015625" Pitch="43" RiffPosition="7.84375" Velocity="47" />
      <note Length="0.015625" Pitch="43" RiffPosition="7.859375" Velocity="55" />
      <note Length="0.015625" Pitch="43" RiffPosition="7.875" Velocity="75" />
      <note Length="0.046875" Pitch="55" RiffPosition="7.890625" Velocity="64" />
      <note Length="0.03125" Pitch="58" RiffPosition="7.9375" Velocity="53" />
      <note Length="0.03125" Pitch="58" RiffPosition="7.96875" Velocity="60" />
      <note Length="0.03125" Pitch="60" RiffPosition="8" Velocity="31" />
      <note Length="0.03125" Pitch="62" RiffPosition="8.03125" Velocity="38" />
      <note Length="0.03125" Pitch="60" RiffPosition="8.0625" Velocity="81" />
      <note Length="0.015625" Pitch="43" RiffPosition="8.09375" Velocity="76" />
      <note Length="0.015625" Pitch="43" RiffPosition="8.109375" Velocity="58" />
      <note Length="0.015625" Pitch="43" RiffPosition="8.125" Velocity="44" />
      <note Length="0.046875" Pitch="43" RiffPosition="8.140625" Velocity="31" />
      <note Length="0.03125" Pitch="43" RiffPosition="8.1875" Velocity="64" />
      <note Length="0.03125" Pitch="43" RiffPosition="8.21875" Velocity="64" />
      <note Length="0.03125" Pitch="43" RiffPosition="8.25" Velocity="39" />
      <note Length="0.03125" Pitch="57" RiffPosition="8.28125" Velocity="51" />
      <note Length="0.03125" Pitch="43" RiffPosition="8.3125" Velocity="50" />
      <note Length="0.015625" Pitch="51" RiffPosition="8.34375" Velocity="49" />
      <note Length="0.015625" Pitch="50" RiffPosition="8.359375" Velocity="35" />
      <note Length="0.015625" Pitch="51" RiffPosition="8.375" Velocity="38" />
      <note Length="0.046875" Pitch="43" RiffPosition="8.390625" Velocity="52" />
      <note Length="0.03125" Pitch="43" RiffPosition="8.4375" Velocity="51" />
      <note Length="0.03125" Pitch="43" RiffPosition="8.46875" Velocity="57" />
      <note Length="0.03125" Pitch="43" RiffPosition="8.5" Velocity="39" />
      <note Length="0.03125" Pitch="58" RiffPosition="8.53125" Velocity="32" />
      <note Length="0.03125" Pitch="55" RiffPosition="8.5625" Velocity="55" />
      <note Length="0.015625" Pitch="43" RiffPosition="8.59375" Velocity="39" />
      <note Length="0.015625" Pitch="51" RiffPosition="8.609375" Velocity="38" />
      <note Length="0.015625" Pitch="51" RiffPosition="8.625" Velocity="59" />
      <note Length="0.046875" Pitch="43" RiffPosition="8.640625" Velocity="65" />
      <note Length="0.03125" Pitch="43" RiffPosition="8.6875" Velocity="34" />
      <note Length="0.03125" Pitch="43" RiffPosition="8.71875" Velocity="55" />
      <note Length="0.03125" Pitch="43" RiffPosition="8.75" Velocity="89" />
      <note Length="0.03125" Pitch="57" RiffPosition="8.78125" Velocity="94" />
      <note Length="0.03125" Pitch="55" RiffPosition="8.8125" Velocity="48" />
      <note Length="0.015625" Pitch="43" RiffPosition="8.84375" Velocity="35" />
      <note Length="0.015625" Pitch="43" RiffPosition="8.859375" Velocity="55" />
      <note Length="0.015625" Pitch="43" RiffPosition="8.875" Velocity="75" />
      <note Length="0.046875" Pitch="43" RiffPosition="8.890625" Velocity="64" />
      <note Length="0.03125" Pitch="58" RiffPosition="8.9375" Velocity="45" />
      <note Length="0.03125" Pitch="58" RiffPosition="8.96875" Velocity="60" />
      <note Length="0.03125" Pitch="58" RiffPosition="9" Velocity="41" />
      <note Length="0.03125" Pitch="55" RiffPosition="9.03125" Velocity="37" />
      <note Length="0.03125" Pitch="60" RiffPosition="9.0625" Velocity="80" />
      <note Length="0.015625" Pitch="43" RiffPosition="9.09375" Velocity="76" />
      <note Length="0.015625" Pitch="43" RiffPosition="9.109375" Velocity="57" />
      <note Length="0.015625" Pitch="43" RiffPosition="9.125" Velocity="44" />
      <note Length="0.046875" Pitch="43" RiffPosition="9.140625" Velocity="32" />
      <note Length="0.03125" Pitch="43" RiffPosition="9.1875" Velocity="64" />
      <note Length="0.03125" Pitch="43" RiffPosition="9.21875" Velocity="64" />
      <note Length="0.03125" Pitch="43" RiffPosition="9.25" Velocity="39" />
      <note Length="0.03125" Pitch="57" RiffPosition="9.28125" Velocity="40" />
      <note Length="0.03125" Pitch="43" RiffPosition="9.3125" Velocity="42" />
      <note Length="0.015625" Pitch="51" RiffPosition="9.34375" Velocity="49" />
      <note Length="0.015625" Pitch="50" RiffPosition="9.359375" Velocity="37" />
      <note Length="0.015625" Pitch="51" RiffPosition="9.375" Velocity="39" />
      <note Length="0.046875" Pitch="43" RiffPosition="9.390625" Velocity="52" />
      <note Length="0.03125" Pitch="43" RiffPosition="9.4375" Velocity="63" />
      <note Length="0.03125" Pitch="43" RiffPosition="9.46875" Velocity="49" />
      <note Length="0.03125" Pitch="43" RiffPosition="9.5" Velocity="40" />
      <note Length="0.03125" Pitch="57" RiffPosition="9.53125" Velocity="32" />
      <note Length="0.03125" Pitch="55" RiffPosition="9.5625" Velocity="55" />
      <note Length="0.015625" Pitch="43" RiffPosition="9.59375" Velocity="38" />
      <note Length="0.015625" Pitch="51" RiffPosition="9.609375" Velocity="39" />
      <note Length="0.015625" Pitch="51" RiffPosition="9.625" Velocity="68" />
      <note Length="0.046875" Pitch="43" RiffPosition="9.640625" Velocity="65" />
      <note Length="0.03125" Pitch="43" RiffPosition="9.6875" Velocity="34" />
      <note Length="0.03125" Pitch="43" RiffPosition="9.71875" Velocity="43" />
      <note Length="0.03125" Pitch="43" RiffPosition="9.75" Velocity="90" />
      <note Length="0.03125" Pitch="57" RiffPosition="9.78125" Velocity="94" />
      <note Length="0.03125" Pitch="55" RiffPosition="9.8125" Velocity="49" />
      <note Length="0.015625" Pitch="43" RiffPosition="9.84375" Velocity="43" />
      <note Length="0.015625" Pitch="43" RiffPosition="9.859375" Velocity="56" />
      <note Length="0.015625" Pitch="43" RiffPosition="9.875" Velocity="63" />
      <note Length="0.046875" Pitch="43" RiffPosition="9.890625" Velocity="72" />
      <note Length="0.03125" Pitch="58" RiffPosition="9.9375" Velocity="44" />
      <note Length="0.03125" Pitch="58" RiffPosition="9.96875" Velocity="59" />
      <note Length="0.03125" Pitch="60" RiffPosition="10" Velocity="32" />
      <note Length="0.03125" Pitch="55" RiffPosition="10.03125" Velocity="37" />
      <note Length="0.03125" Pitch="58" RiffPosition="10.0625" Velocity="80" />
      <note Length="0.015625" Pitch="55" RiffPosition="10.09375" Velocity="75" />
      <note Length="0.015625" Pitch="43" RiffPosition="10.109375" Velocity="49" />
      <note Length="0.015625" Pitch="43" RiffPosition="10.125" Velocity="43" />
      <note Length="0.046875" Pitch="43" RiffPosition="10.140625" Velocity="32" />
      <note Length="0.03125" Pitch="55" RiffPosition="10.1875" Velocity="63" />
      <note Length="0.03125" Pitch="43" RiffPosition="10.21875" Velocity="63" />
      <note Length="0.03125" Pitch="43" RiffPosition="10.25" Velocity="40" />
      <note Length="0.03125" Pitch="57" RiffPosition="10.28125" Velocity="40" />
      <note Length="0.03125" Pitch="43" RiffPosition="10.3125" Velocity="54" />
      <note Length="0.015625" Pitch="51" RiffPosition="10.34375" Velocity="48" />
      <note Length="0.015625" Pitch="50" RiffPosition="10.359375" Velocity="37" />
      <note Length="0.015625" Pitch="50" RiffPosition="10.375" Velocity="47" />
      <note Length="0.046875" Pitch="43" RiffPosition="10.390625" Velocity="40" />
      <note Length="0.03125" Pitch="43" RiffPosition="10.4375" Velocity="63" />
      <note Length="0.03125" Pitch="43" RiffPosition="10.46875" Velocity="48" />
      <note Length="0.03125" Pitch="55" RiffPosition="10.5" Velocity="40" />
      <note Length="0.03125" Pitch="57" RiffPosition="10.53125" Velocity="40" />
      <note Length="0.03125" Pitch="55" RiffPosition="10.5625" Velocity="54" />
      <note Length="0.015625" Pitch="51" RiffPosition="10.59375" Velocity="50" />
      <note Length="0.015625" Pitch="51" RiffPosition="10.609375" Velocity="39" />
      <note Length="0.015625" Pitch="51" RiffPosition="10.625" Velocity="68" />
      <note Length="0.046875" Pitch="51" RiffPosition="10.640625" Velocity="74" />
      <note Length="0.03125" Pitch="43" RiffPosition="10.6875" Velocity="42" />
      <note Length="0.03125" Pitch="43" RiffPosition="10.71875" Velocity="43" />
      <note Length="0.03125" Pitch="43" RiffPosition="10.75" Velocity="78" />
      <note Length="0.03125" Pitch="57" RiffPosition="10.78125" Velocity="95" />
      <note Length="0.03125" Pitch="57" RiffPosition="10.8125" Velocity="49" />
      <note Length="0.015625" Pitch="43" RiffPosition="10.84375" Velocity="43" />
      <note Length="0.015625" Pitch="43" RiffPosition="10.859375" Velocity="56" />
      <note Length="0.015625" Pitch="43" RiffPosition="10.875" Velocity="64" />
      <note Length="0.046875" Pitch="43" RiffPosition="10.890625" Velocity="73" />
      <note Length="0.03125" Pitch="58" RiffPosition="10.9375" Velocity="44" />
      <note Length="0.03125" Pitch="58" RiffPosition="10.96875" Velocity="59" />
      <note Length="0.03125" Pitch="60" RiffPosition="11" Velocity="32" />
      <note Length="0.03125" Pitch="55" RiffPosition="11.03125" Velocity="49" />
      <note Length="0.03125" Pitch="58" RiffPosition="11.0625" Velocity="72" />
      <note Length="0.015625" Pitch="55" RiffPosition="11.09375" Velocity="75" />
      <note Length="0.015625" Pitch="43" RiffPosition="11.109375" Velocity="61" />
      <note Length="0.015625" Pitch="43" RiffPosition="11.125" Velocity="43" />
      <note Length="0.046875" Pitch="43" RiffPosition="11.140625" Velocity="33" />
      <note Length="0.03125" Pitch="55" RiffPosition="11.1875" Velocity="75" />
      <note Length="0.03125" Pitch="43" RiffPosition="11.21875" Velocity="55" />
      <note Length="0.03125" Pitch="43" RiffPosition="11.25" Velocity="40" />
      <note Length="0.03125" Pitch="55" RiffPosition="11.28125" Velocity="41" />
      <note Length="0.03125" Pitch="43" RiffPosition="11.3125" Velocity="53" />
      <note Length="0.015625" Pitch="51" RiffPosition="11.34375" Velocity="48" />
      <note Length="0.015625" Pitch="50" RiffPosition="11.359375" Velocity="36" />
      <note Length="0.015625" Pitch="50" RiffPosition="11.375" Velocity="48" />
      <note Length="0.046875" Pitch="43" RiffPosition="11.390625" Velocity="41" />
      <note Length="0.03125" Pitch="43" RiffPosition="11.4375" Velocity="62" />
      <note Length="0.03125" Pitch="43" RiffPosition="11.46875" Velocity="60" />
      <note Length="0.03125" Pitch="55" RiffPosition="11.5" Velocity="41" />
      <note Length="0.03125" Pitch="57" RiffPosition="11.53125" Velocity="41" />
      <note Length="0.03125" Pitch="55" RiffPosition="11.5625" Velocity="54" />
      <note Length="0.015625" Pitch="43" RiffPosition="11.59375" Velocity="42" />
      <note Length="0.015625" Pitch="43" RiffPosition="11.609375" Velocity="40" />
      <note Length="0.015625" Pitch="51" RiffPosition="11.625" Velocity="56" />
      <note Length="0.046875" Pitch="43" RiffPosition="11.640625" Velocity="74" />
      <note Length="0.03125" Pitch="43" RiffPosition="11.6875" Velocity="43" />
      <note Length="0.03125" Pitch="43" RiffPosition="11.71875" Velocity="44" />
      <note Length="0.03125" Pitch="43" RiffPosition="11.75" Velocity="86" />
      <note Length="0.03125" Pitch="58" RiffPosition="11.78125" Velocity="95" />
      <note Length="0.03125" Pitch="55" RiffPosition="11.8125" Velocity="50" />
      <note Length="0.015625" Pitch="43" RiffPosition="11.84375" Velocity="44" />
      <note Length="0.015625" Pitch="43" RiffPosition="11.859375" Velocity="64" />
      <note Length="0.015625" Pitch="43" RiffPosition="11.875" Velocity="64" />
      <note Length="0.046875" Pitch="43" RiffPosition="11.890625" Velocity="73" />
      <note Length="0.03125" Pitch="58" RiffPosition="11.9375" Velocity="43" />
      <note Length="0.03125" Pitch="57" RiffPosition="11.96875" Velocity="58" />
    </riff>
    <riff IsDrum="False" MidiInstrument="106" Tempo="86" Length="12">
      <note Length="0.015625" Pitch="43" RiffPosition="0" Velocity="0" />
      <note Length="0.015625" Pitch="43" RiffPosition="0.015625" Velocity="0" />
      <note Length="0.046875" Pitch="55" RiffPosition="0.03125" Velocity="0" />
      <note Length="0.046875" Pitch="60" RiffPosition="0.078125" Velocity="0" />
      <note Length="0.03125" Pitch="43" RiffPosition="0.125" Velocity="0" />
      <note Length="0.03125" Pitch="51" RiffPosition="0.15625" Velocity="0" />
      <note Length="0.0625" Pitch="55" RiffPosition="0.1875" Velocity="0" />
      <note Length="0.015625" Pitch="50" RiffPosition="0.25" Velocity="0" />
      <note Length="0.015625" Pitch="50" RiffPosition="0.265625" Velocity="0" />
      <note Length="0.046875" Pitch="48" RiffPosition="0.28125" Velocity="0" />
      <note Length="0.046875" Pitch="55" RiffPosition="0.328125" Velocity="0" />
      <note Length="0.03125" Pitch="51" RiffPosition="0.375" Velocity="0" />
      <note Length="0.03125" Pitch="50" RiffPosition="0.40625" Velocity="0" />
      <note Length="0.0625" Pitch="43" RiffPosition="0.4375" Velocity="0" />
      <note Length="0.015625" Pitch="43" RiffPosition="0.5" Velocity="0" />
      <note Length="0.015625" Pitch="51" RiffPosition="0.515625" Velocity="0" />
      <note Length="0.046875" Pitch="43" RiffPosition="0.53125" Velocity="0" />
      <note Length="0.046875" Pitch="60" RiffPosition="0.578125" Velocity="0" />
      <note Length="0.03125" Pitch="57" RiffPosition="0.625" Velocity="0" />
      <note Length="0.03125" Pitch="58" RiffPosition="0.65625" Velocity="0" />
      <note Length="0.0625" Pitch="55" RiffPosition="0.6875" Velocity="0" />
      <note Length="0.015625" Pitch="58" RiffPosition="0.75" Velocity="0" />
      <note Length="0.015625" Pitch="55" RiffPosition="0.765625" Velocity="0" />
      <note Length="0.046875" Pitch="43" RiffPosition="0.78125" Velocity="0" />
      <note Length="0.046875" Pitch="55" RiffPosition="0.828125" Velocity="0" />
      <note Length="0.03125" Pitch="51" RiffPosition="0.875" Velocity="0" />
      <note Length="0.03125" Pitch="50" RiffPosition="0.90625" Velocity="0" />
      <note Length="0.0625" Pitch="55" RiffPosition="0.9375" Velocity="0" />
      <note Length="0.015625" Pitch="43" RiffPosition="1" Velocity="0" />
      <note Length="0.015625" Pitch="43" RiffPosition="1.015625" Velocity="0" />
      <note Length="0.046875" Pitch="55" RiffPosition="1.03125" Velocity="0" />
      <note Length="0.046875" Pitch="60" RiffPosition="1.078125" Velocity="0" />
      <note Length="0.03125" Pitch="43" RiffPosition="1.125" Velocity="0" />
      <note Length="0.03125" Pitch="51" RiffPosition="1.15625" Velocity="0" />
      <note Length="0.0625" Pitch="43" RiffPosition="1.1875" Velocity="0" />
      <note Length="0.015625" Pitch="48" RiffPosition="1.25" Velocity="0" />
      <note Length="0.015625" Pitch="50" RiffPosition="1.265625" Velocity="0" />
      <note Length="0.046875" Pitch="48" RiffPosition="1.28125" Velocity="0" />
      <note Length="0.046875" Pitch="43" RiffPosition="1.328125" Velocity="0" />
      <note Length="0.03125" Pitch="51" RiffPosition="1.375" Velocity="0" />
      <note Length="0.03125" Pitch="51" RiffPosition="1.40625" Velocity="0" />
      <note Length="0.0625" Pitch="43" RiffPosition="1.4375" Velocity="0" />
      <note Length="0.015625" Pitch="43" RiffPosition="1.5" Velocity="0" />
      <note Length="0.015625" Pitch="51" RiffPosition="1.515625" Velocity="0" />
      <note Length="0.046875" Pitch="43" RiffPosition="1.53125" Velocity="0" />
      <note Length="0.046875" Pitch="60" RiffPosition="1.578125" Velocity="0" />
      <note Length="0.03125" Pitch="57" RiffPosition="1.625" Velocity="0" />
      <note Length="0.03125" Pitch="58" RiffPosition="1.65625" Velocity="0" />
      <note Length="0.0625" Pitch="55" RiffPosition="1.6875" Velocity="0" />
      <note Length="0.015625" Pitch="58" RiffPosition="1.75" Velocity="0" />
      <note Length="0.015625" Pitch="43" RiffPosition="1.765625" Velocity="0" />
      <note Length="0.046875" Pitch="43" RiffPosition="1.78125" Velocity="0" />
      <note Length="0.046875" Pitch="55" RiffPosition="1.828125" Velocity="0" />
      <note Length="0.03125" Pitch="51" RiffPosition="1.875" Velocity="0" />
      <note Length="0.03125" Pitch="50" RiffPosition="1.90625" Velocity="0" />
      <note Length="0.0625" Pitch="43" RiffPosition="1.9375" Velocity="0" />
      <note Length="0.015625" Pitch="43" RiffPosition="2" Velocity="52" />
      <note Length="0.015625" Pitch="43" RiffPosition="2.015625" Velocity="34" />
      <note Length="0.046875" Pitch="55" RiffPosition="2.03125" Velocity="66" />
      <note Length="0.046875" Pitch="60" RiffPosition="2.078125" Velocity="74" />
      <note Length="0.03125" Pitch="43" RiffPosition="2.125" Velocity="44" />
      <note Length="0.03125" Pitch="51" RiffPosition="2.15625" Velocity="50" />
      <note Length="0.0625" Pitch="55" RiffPosition="2.1875" Velocity="33" />
      <note Length="0.015625" Pitch="50" RiffPosition="2.25" Velocity="50" />
      <note Length="0.015625" Pitch="50" RiffPosition="2.265625" Velocity="49" />
      <note Length="0.046875" Pitch="48" RiffPosition="2.28125" Velocity="68" />
      <note Length="0.046875" Pitch="55" RiffPosition="2.328125" Velocity="72" />
      <note Length="0.03125" Pitch="51" RiffPosition="2.375" Velocity="53" />
      <note Length="0.03125" Pitch="51" RiffPosition="2.40625" Velocity="37" />
      <note Length="0.0625" Pitch="43" RiffPosition="2.4375" Velocity="42" />
      <note Length="0.015625" Pitch="43" RiffPosition="2.5" Velocity="61" />
      <note Length="0.015625" Pitch="51" RiffPosition="2.515625" Velocity="64" />
      <note Length="0.046875" Pitch="43" RiffPosition="2.53125" Velocity="75" />
      <note Length="0.046875" Pitch="60" RiffPosition="2.578125" Velocity="75" />
      <note Length="0.03125" Pitch="57" RiffPosition="2.625" Velocity="56" />
      <note Length="0.03125" Pitch="58" RiffPosition="2.65625" Velocity="39" />
      <note Length="0.0625" Pitch="55" RiffPosition="2.6875" Velocity="39" />
      <note Length="0.015625" Pitch="58" RiffPosition="2.75" Velocity="53" />
      <note Length="0.015625" Pitch="55" RiffPosition="2.765625" Velocity="49" />
      <note Length="0.046875" Pitch="43" RiffPosition="2.78125" Velocity="65" />
      <note Length="0.046875" Pitch="55" RiffPosition="2.828125" Velocity="64" />
      <note Length="0.03125" Pitch="51" RiffPosition="2.875" Velocity="46" />
      <note Length="0.03125" Pitch="50" RiffPosition="2.90625" Velocity="35" />
      <note Length="0.0625" Pitch="55" RiffPosition="2.9375" Velocity="38" />
      <note Length="0.015625" Pitch="43" RiffPosition="3" Velocity="49" />
      <note Length="0.015625" Pitch="43" RiffPosition="3.015625" Velocity="52" />
      <note Length="0.046875" Pitch="55" RiffPosition="3.03125" Velocity="55" />
      <note Length="0.046875" Pitch="60" RiffPosition="3.078125" Velocity="71" />
      <note Length="0.03125" Pitch="43" RiffPosition="3.125" Velocity="61" />
      <note Length="0.03125" Pitch="51" RiffPosition="3.15625" Velocity="47" />
      <note Length="0.0625" Pitch="43" RiffPosition="3.1875" Velocity="30" />
      <note Length="0.015625" Pitch="48" RiffPosition="3.25" Velocity="62" />
      <note Length="0.015625" Pitch="50" RiffPosition="3.265625" Velocity="52" />
      <note Length="0.046875" Pitch="48" RiffPosition="3.28125" Velocity="51" />
      <note Length="0.046875" Pitch="43" RiffPosition="3.328125" Velocity="105" />
      <note Length="0.03125" Pitch="51" RiffPosition="3.375" Velocity="56" />
      <note Length="0.03125" Pitch="51" RiffPosition="3.40625" Velocity="40" />
      <note Length="0.0625" Pitch="43" RiffPosition="3.4375" Velocity="39" />
      <note Length="0.015625" Pitch="43" RiffPosition="3.5" Velocity="79" />
      <note Length="0.015625" Pitch="51" RiffPosition="3.515625" Velocity="61" />
      <note Length="0.046875" Pitch="43" RiffPosition="3.53125" Velocity="63" />
      <note Length="0.046875" Pitch="60" RiffPosition="3.578125" Velocity="93" />
      <note Length="0.03125" Pitch="57" RiffPosition="3.625" Velocity="53" />
      <note Length="0.03125" Pitch="58" RiffPosition="3.65625" Velocity="36" />
      <note Length="0.0625" Pitch="55" RiffPosition="3.6875" Velocity="51" />
      <note Length="0.015625" Pitch="58" RiffPosition="3.75" Velocity="65" />
      <note Length="0.015625" Pitch="43" RiffPosition="3.765625" Velocity="81" />
      <note Length="0.046875" Pitch="43" RiffPosition="3.78125" Velocity="48" />
      <note Length="0.046875" Pitch="55" RiffPosition="3.828125" Velocity="75" />
      <note Length="0.03125" Pitch="51" RiffPosition="3.875" Velocity="49" />
      <note Length="0.03125" Pitch="50" RiffPosition="3.90625" Velocity="47" />
      <note Length="0.0625" Pitch="43" RiffPosition="3.9375" Velocity="55" />
      <note Length="0.015625" Pitch="43" RiffPosition="4" Velocity="66" />
      <note Length="0.015625" Pitch="43" RiffPosition="4.015625" Velocity="48" />
      <note Length="0.046875" Pitch="55" RiffPosition="4.03125" Velocity="51" />
      <note Length="0.046875" Pitch="60" RiffPosition="4.078125" Velocity="88" />
      <note Length="0.03125" Pitch="43" RiffPosition="4.125" Velocity="31" />
      <note Length="0.03125" Pitch="51" RiffPosition="4.15625" Velocity="65" />
      <note Length="0.0625" Pitch="43" RiffPosition="4.1875" Velocity="42" />
      <note Length="0.015625" Pitch="50" RiffPosition="4.25" Velocity="65" />
      <note Length="0.015625" Pitch="50" RiffPosition="4.265625" Velocity="64" />
      <note Length="0.046875" Pitch="48" RiffPosition="4.28125" Velocity="54" />
      <note Length="0.046875" Pitch="55" RiffPosition="4.328125" Velocity="87" />
      <note Length="0.03125" Pitch="51" RiffPosition="4.375" Velocity="39" />
      <note Length="0.03125" Pitch="51" RiffPosition="4.40625" Velocity="52" />
      <note Length="0.0625" Pitch="43" RiffPosition="4.4375" Velocity="56" />
      <note Length="0.015625" Pitch="43" RiffPosition="4.5" Velocity="75" />
      <note Length="0.015625" Pitch="51" RiffPosition="4.515625" Velocity="78" />
      <note Length="0.046875" Pitch="43" RiffPosition="4.53125" Velocity="60" />
      <note Length="0.046875" Pitch="60" RiffPosition="4.578125" Velocity="89" />
      <note Length="0.03125" Pitch="57" RiffPosition="4.625" Velocity="41" />
      <note Length="0.03125" Pitch="58" RiffPosition="4.65625" Velocity="53" />
      <note Length="0.0625" Pitch="55" RiffPosition="4.6875" Velocity="54" />
      <note Length="0.015625" Pitch="58" RiffPosition="4.75" Velocity="68" />
      <note Length="0.015625" Pitch="55" RiffPosition="4.765625" Velocity="64" />
      <note Length="0.046875" Pitch="43" RiffPosition="4.78125" Velocity="80" />
      <note Length="0.046875" Pitch="55" RiffPosition="4.828125" Velocity="78" />
      <note Length="0.03125" Pitch="51" RiffPosition="4.875" Velocity="32" />
      <note Length="0.03125" Pitch="50" RiffPosition="4.90625" Velocity="50" />
      <note Length="0.0625" Pitch="55" RiffPosition="4.9375" Velocity="52" />
      <note Length="0.015625" Pitch="43" RiffPosition="5" Velocity="34" />
      <note Length="0.015625" Pitch="43" RiffPosition="5.015625" Velocity="66" />
      <note Length="0.046875" Pitch="55" RiffPosition="5.03125" Velocity="69" />
      <note Length="0.046875" Pitch="60" RiffPosition="5.078125" Velocity="56" />
      <note Length="0.03125" Pitch="43" RiffPosition="5.125" Velocity="46" />
      <note Length="0.03125" Pitch="51" RiffPosition="5.15625" Velocity="61" />
      <note Length="0.0625" Pitch="43" RiffPosition="5.1875" Velocity="45" />
      <note Length="0.015625" Pitch="48" RiffPosition="5.25" Velocity="48" />
      <note Length="0.015625" Pitch="50" RiffPosition="5.265625" Velocity="67" />
      <note Length="0.046875" Pitch="48" RiffPosition="5.28125" Velocity="66" />
      <note Length="0.046875" Pitch="43" RiffPosition="5.328125" Velocity="90" />
      <note Length="0.03125" Pitch="51" RiffPosition="5.375" Velocity="42" />
      <note Length="0.03125" Pitch="51" RiffPosition="5.40625" Velocity="55" />
      <note Length="0.0625" Pitch="43" RiffPosition="5.4375" Velocity="36" />
      <note Length="0.015625" Pitch="43" RiffPosition="5.5" Velocity="64" />
      <note Length="0.015625" Pitch="51" RiffPosition="5.515625" Velocity="75" />
      <note Length="0.046875" Pitch="43" RiffPosition="5.53125" Velocity="77" />
      <note Length="0.046875" Pitch="60" RiffPosition="5.578125" Velocity="78" />
      <note Length="0.03125" Pitch="57" RiffPosition="5.625" Velocity="38" />
      <note Length="0.03125" Pitch="58" RiffPosition="5.65625" Velocity="39" />
      <note Length="0.0625" Pitch="55" RiffPosition="5.6875" Velocity="36" />
      <note Length="0.015625" Pitch="58" RiffPosition="5.75" Velocity="51" />
      <note Length="0.015625" Pitch="43" RiffPosition="5.765625" Velocity="67" />
      <note Length="0.046875" Pitch="43" RiffPosition="5.78125" Velocity="63" />
      <note Length="0.046875" Pitch="55" RiffPosition="5.828125" Velocity="61" />
      <note Length="0.03125" Pitch="51" RiffPosition="5.875" Velocity="64" />
      <note Length="0.03125" Pitch="50" RiffPosition="5.90625" Velocity="33" />
      <note Length="0.0625" Pitch="55" RiffPosition="5.9375" Velocity="40" />
      <note Length="0.015625" Pitch="43" RiffPosition="6" Velocity="51" />
      <note Length="0.015625" Pitch="43" RiffPosition="6.015625" Velocity="54" />
      <note Length="0.046875" Pitch="55" RiffPosition="6.03125" Velocity="66" />
      <note Length="0.046875" Pitch="60" RiffPosition="6.078125" Velocity="74" />
      <note Length="0.03125" Pitch="43" RiffPosition="6.125" Velocity="63" />
      <note Length="0.03125" Pitch="51" RiffPosition="6.15625" Velocity="50" />
      <note Length="0.0625" Pitch="43" RiffPosition="6.1875" Velocity="33" />
      <note Length="0.015625" Pitch="50" RiffPosition="6.25" Velocity="51" />
      <note Length="0.015625" Pitch="50" RiffPosition="6.265625" Velocity="50" />
      <note Length="0.046875" Pitch="48" RiffPosition="6.28125" Velocity="69" />
      <note Length="0.046875" Pitch="55" RiffPosition="6.328125" Velocity="73" />
      <note Length="0.03125" Pitch="51" RiffPosition="6.375" Velocity="54" />
      <note Length="0.03125" Pitch="51" RiffPosition="6.40625" Velocity="38" />
      <note Length="0.0625" Pitch="43" RiffPosition="6.4375" Velocity="41" />
      <note Length="0.015625" Pitch="43" RiffPosition="6.5" Velocity="61" />
      <note Length="0.015625" Pitch="51" RiffPosition="6.515625" Velocity="63" />
      <note Length="0.046875" Pitch="43" RiffPosition="6.53125" Velocity="45" />
      <note Length="0.046875" Pitch="60" RiffPosition="6.578125" Velocity="75" />
      <note Length="0.03125" Pitch="57" RiffPosition="6.625" Velocity="55" />
      <note Length="0.03125" Pitch="58" RiffPosition="6.65625" Velocity="38" />
      <note Length="0.0625" Pitch="55" RiffPosition="6.6875" Velocity="40" />
      <note Length="0.015625" Pitch="58" RiffPosition="6.75" Velocity="83" />
      <note Length="0.015625" Pitch="55" RiffPosition="6.765625" Velocity="50" />
      <note Length="0.046875" Pitch="43" RiffPosition="6.78125" Velocity="46" />
      <note Length="0.046875" Pitch="55" RiffPosition="6.828125" Velocity="64" />
      <note Length="0.03125" Pitch="51" RiffPosition="6.875" Velocity="47" />
      <note Length="0.03125" Pitch="50" RiffPosition="6.90625" Velocity="36" />
      <note Length="0.0625" Pitch="55" RiffPosition="6.9375" Velocity="37" />
      <note Length="0.015625" Pitch="43" RiffPosition="7" Velocity="69" />
      <note Length="0.015625" Pitch="43" RiffPosition="7.015625" Velocity="51" />
      <note Length="0.046875" Pitch="55" RiffPosition="7.03125" Velocity="54" />
      <note Length="0.046875" Pitch="60" RiffPosition="7.078125" Velocity="70" />
      <note Length="0.03125" Pitch="43" RiffPosition="7.125" Velocity="60" />
      <note Length="0.03125" Pitch="51" RiffPosition="7.15625" Velocity="47" />
      <note Length="0.0625" Pitch="43" RiffPosition="7.1875" Velocity="60" />
      <note Length="0.015625" Pitch="50" RiffPosition="7.25" Velocity="63" />
      <note Length="0.015625" Pitch="50" RiffPosition="7.265625" Velocity="53" />
      <note Length="0.046875" Pitch="48" RiffPosition="7.28125" Velocity="52" />
      <note Length="0.046875" Pitch="43" RiffPosition="7.328125" Velocity="85" />
      <note Length="0.03125" Pitch="51" RiffPosition="7.375" Velocity="57" />
      <note Length="0.03125" Pitch="51" RiffPosition="7.40625" Velocity="70" />
      <note Length="0.0625" Pitch="43" RiffPosition="7.4375" Velocity="58" />
      <note Length="0.015625" Pitch="43" RiffPosition="7.5" Velocity="78" />
      <note Length="0.015625" Pitch="51" RiffPosition="7.515625" Velocity="60" />
      <note Length="0.046875" Pitch="43" RiffPosition="7.53125" Velocity="62" />
      <note Length="0.046875" Pitch="60" RiffPosition="7.578125" Velocity="92" />
      <note Length="0.03125" Pitch="57" RiffPosition="7.625" Velocity="37" />
      <note Length="0.03125" Pitch="58" RiffPosition="7.65625" Velocity="35" />
      <note Length="0.0625" Pitch="55" RiffPosition="7.6875" Velocity="51" />
      <note Length="0.015625" Pitch="58" RiffPosition="7.75" Velocity="66" />
      <note Length="0.015625" Pitch="43" RiffPosition="7.765625" Velocity="82" />
      <note Length="0.046875" Pitch="43" RiffPosition="7.78125" Velocity="49" />
      <note Length="0.046875" Pitch="55" RiffPosition="7.828125" Velocity="76" />
      <note Length="0.03125" Pitch="51" RiffPosition="7.875" Velocity="50" />
      <note Length="0.03125" Pitch="50" RiffPosition="7.90625" Velocity="47" />
      <note Length="0.0625" Pitch="55" RiffPosition="7.9375" Velocity="54" />
      <note Length="0.015625" Pitch="43" RiffPosition="8" Velocity="66" />
      <note Length="0.015625" Pitch="43" RiffPosition="8.015625" Velocity="68" />
      <note Length="0.046875" Pitch="55" RiffPosition="8.03125" Velocity="51" />
      <note Length="0.046875" Pitch="60" RiffPosition="8.078125" Velocity="88" />
      <note Length="0.03125" Pitch="43" RiffPosition="8.125" Velocity="48" />
      <note Length="0.03125" Pitch="51" RiffPosition="8.15625" Velocity="64" />
      <note Length="0.0625" Pitch="43" RiffPosition="8.1875" Velocity="42" />
      <note Length="0.015625" Pitch="50" RiffPosition="8.25" Velocity="66" />
      <note Length="0.015625" Pitch="50" RiffPosition="8.265625" Velocity="65" />
      <note Length="0.046875" Pitch="48" RiffPosition="8.28125" Velocity="84" />
      <note Length="0.046875" Pitch="55" RiffPosition="8.328125" Velocity="88" />
      <note Length="0.03125" Pitch="51" RiffPosition="8.375" Velocity="40" />
      <note Length="0.03125" Pitch="51" RiffPosition="8.40625" Velocity="53" />
      <note Length="0.0625" Pitch="43" RiffPosition="8.4375" Velocity="55" />
      <note Length="0.015625" Pitch="43" RiffPosition="8.5" Velocity="46" />
      <note Length="0.015625" Pitch="51" RiffPosition="8.515625" Velocity="77" />
      <note Length="0.046875" Pitch="43" RiffPosition="8.53125" Velocity="59" />
      <note Length="0.046875" Pitch="60" RiffPosition="8.578125" Velocity="89" />
      <note Length="0.03125" Pitch="57" RiffPosition="8.625" Velocity="40" />
      <note Length="0.03125" Pitch="58" RiffPosition="8.65625" Velocity="52" />
      <note Length="0.0625" Pitch="55" RiffPosition="8.6875" Velocity="54" />
      <note Length="0.015625" Pitch="58" RiffPosition="8.75" Velocity="69" />
      <note Length="0.015625" Pitch="55" RiffPosition="8.765625" Velocity="65" />
      <note Length="0.046875" Pitch="43" RiffPosition="8.78125" Velocity="61" />
      <note Length="0.046875" Pitch="55" RiffPosition="8.828125" Velocity="79" />
      <note Length="0.03125" Pitch="51" RiffPosition="8.875" Velocity="33" />
      <note Length="0.03125" Pitch="50" RiffPosition="8.90625" Velocity="51" />
      <note Length="0.0625" Pitch="55" RiffPosition="8.9375" Velocity="38" />
      <note Length="0.015625" Pitch="43" RiffPosition="9" Velocity="54" />
      <note Length="0.015625" Pitch="43" RiffPosition="9.015625" Velocity="65" />
      <note Length="0.046875" Pitch="55" RiffPosition="9.03125" Velocity="68" />
      <note Length="0.046875" Pitch="60" RiffPosition="9.078125" Velocity="56" />
      <note Length="0.03125" Pitch="43" RiffPosition="9.125" Velocity="45" />
      <note Length="0.03125" Pitch="51" RiffPosition="9.15625" Velocity="61" />
      <note Length="0.0625" Pitch="43" RiffPosition="9.1875" Velocity="45" />
      <note Length="0.015625" Pitch="50" RiffPosition="9.25" Velocity="48" />
      <note Length="0.015625" Pitch="50" RiffPosition="9.265625" Velocity="68" />
      <note Length="0.046875" Pitch="48" RiffPosition="9.28125" Velocity="67" />
      <note Length="0.046875" Pitch="43" RiffPosition="9.328125" Velocity="71" />
      <note Length="0.03125" Pitch="51" RiffPosition="9.375" Velocity="43" />
      <note Length="0.03125" Pitch="50" RiffPosition="9.40625" Velocity="56" />
      <note Length="0.0625" Pitch="43" RiffPosition="9.4375" Velocity="43" />
      <note Length="0.015625" Pitch="43" RiffPosition="9.5" Velocity="63" />
      <note Length="0.015625" Pitch="51" RiffPosition="9.515625" Velocity="45" />
      <note Length="0.046875" Pitch="43" RiffPosition="9.53125" Velocity="76" />
      <note Length="0.046875" Pitch="60" RiffPosition="9.578125" Velocity="77" />
      <note Length="0.03125" Pitch="57" RiffPosition="9.625" Velocity="37" />
      <note Length="0.03125" Pitch="58" RiffPosition="9.65625" Velocity="40" />
      <note Length="0.0625" Pitch="55" RiffPosition="9.6875" Velocity="37" />
      <note Length="0.015625" Pitch="58" RiffPosition="9.75" Velocity="52" />
      <note Length="0.015625" Pitch="43" RiffPosition="9.765625" Velocity="47" />
      <note Length="0.046875" Pitch="43" RiffPosition="9.78125" Velocity="64" />
      <note Length="0.046875" Pitch="55" RiffPosition="9.828125" Velocity="62" />
      <note Length="0.03125" Pitch="51" RiffPosition="9.875" Velocity="44" />
      <note Length="0.03125" Pitch="50" RiffPosition="9.90625" Velocity="33" />
      <note Length="0.0625" Pitch="55" RiffPosition="9.9375" Velocity="39" />
      <note Length="0.015625" Pitch="43" RiffPosition="10" Velocity="51" />
      <note Length="0.015625" Pitch="43" RiffPosition="10.015625" Velocity="53" />
      <note Length="0.046875" Pitch="55" RiffPosition="10.03125" Velocity="65" />
      <note Length="0.046875" Pitch="60" RiffPosition="10.078125" Velocity="73" />
      <note Length="0.03125" Pitch="43" RiffPosition="10.125" Velocity="62" />
      <note Length="0.03125" Pitch="51" RiffPosition="10.15625" Velocity="49" />
      <note Length="0.0625" Pitch="43" RiffPosition="10.1875" Velocity="32" />
      <note Length="0.015625" Pitch="50" RiffPosition="10.25" Velocity="52" />
      <note Length="0.015625" Pitch="50" RiffPosition="10.265625" Velocity="51" />
      <note Length="0.046875" Pitch="48" RiffPosition="10.28125" Velocity="70" />
      <note Length="0.046875" Pitch="55" RiffPosition="10.328125" Velocity="74" />
      <note Length="0.03125" Pitch="51" RiffPosition="10.375" Velocity="55" />
      <note Length="0.03125" Pitch="51" RiffPosition="10.40625" Velocity="39" />
      <note Length="0.0625" Pitch="43" RiffPosition="10.4375" Velocity="40" />
      <note Length="0.015625" Pitch="43" RiffPosition="10.5" Velocity="60" />
      <note Length="0.015625" Pitch="51" RiffPosition="10.515625" Velocity="62" />
      <note Length="0.046875" Pitch="43" RiffPosition="10.53125" Velocity="64" />
      <note Length="0.046875" Pitch="60" RiffPosition="10.578125" Velocity="74" />
      <note Length="0.03125" Pitch="57" RiffPosition="10.625" Velocity="54" />
      <note Length="0.03125" Pitch="58" RiffPosition="10.65625" Velocity="37" />
      <note Length="0.0625" Pitch="55" RiffPosition="10.6875" Velocity="40" />
      <note Length="0.015625" Pitch="58" RiffPosition="10.75" Velocity="63" />
      <note Length="0.015625" Pitch="55" RiffPosition="10.765625" Velocity="51" />
      <note Length="0.046875" Pitch="43" RiffPosition="10.78125" Velocity="47" />
      <note Length="0.046875" Pitch="55" RiffPosition="10.828125" Velocity="94" />
      <note Length="0.03125" Pitch="51" RiffPosition="10.875" Velocity="48" />
      <note Length="0.03125" Pitch="50" RiffPosition="10.90625" Velocity="36" />
      <note Length="0.0625" Pitch="55" RiffPosition="10.9375" Velocity="36" />
      <note Length="0.015625" Pitch="43" RiffPosition="11" Velocity="68" />
      <note Length="0.015625" Pitch="43" RiffPosition="11.015625" Velocity="50" />
      <note Length="0.046875" Pitch="55" RiffPosition="11.03125" Velocity="53" />
      <note Length="0.046875" Pitch="60" RiffPosition="11.078125" Velocity="70" />
      <note Length="0.03125" Pitch="43" RiffPosition="11.125" Velocity="59" />
      <note Length="0.03125" Pitch="51" RiffPosition="11.15625" Velocity="46" />
      <note Length="0.0625" Pitch="43" RiffPosition="11.1875" Velocity="60" />
      <note Length="0.015625" Pitch="50" RiffPosition="11.25" Velocity="63" />
      <note Length="0.015625" Pitch="50" RiffPosition="11.265625" Velocity="83" />
      <note Length="0.046875" Pitch="48" RiffPosition="11.28125" Velocity="53" />
      <note Length="0.046875" Pitch="43" RiffPosition="11.328125" Velocity="86" />
      <note Length="0.03125" Pitch="51" RiffPosition="11.375" Velocity="58" />
      <note Length="0.03125" Pitch="50" RiffPosition="11.40625" Velocity="71" />
      <note Length="0.0625" Pitch="43" RiffPosition="11.4375" Velocity="57" />
      <note Length="0.015625" Pitch="43" RiffPosition="11.5" Velocity="77" />
      <note Length="0.015625" Pitch="51" RiffPosition="11.515625" Velocity="59" />
      <note Length="0.046875" Pitch="43" RiffPosition="11.53125" Velocity="61" />
      <note Length="0.046875" Pitch="60" RiffPosition="11.578125" Velocity="91" />
      <note Length="0.03125" Pitch="57" RiffPosition="11.625" Velocity="38" />
      <note Length="0.03125" Pitch="58" RiffPosition="11.65625" Velocity="54" />
      <note Length="0.0625" Pitch="55" RiffPosition="11.6875" Velocity="52" />
      <note Length="0.015625" Pitch="58" RiffPosition="11.75" Velocity="66" />
      <note Length="0.015625" Pitch="43" RiffPosition="11.765625" Velocity="62" />
      <note Length="0.046875" Pitch="43" RiffPosition="11.78125" Velocity="50" />
      <note Length="0.046875" Pitch="55" RiffPosition="11.828125" Velocity="77" />
      <note Length="0.03125" Pitch="51" RiffPosition="11.875" Velocity="30" />
      <note Length="0.03125" Pitch="50" RiffPosition="11.90625" Velocity="48" />
      <note Length="0.0625" Pitch="55" RiffPosition="11.9375" Velocity="53" />
    </riff>
    <riff IsDrum="False" MidiInstrument="92" Tempo="107" Length="12">
      <note Length="1.5" Pitch="55" RiffPosition="0" Velocity="0" />
      <note Length="0.5" Pitch="69" RiffPosition="1.5" Velocity="0" />
      <note Length="0.75" Pitch="70" RiffPosition="2" Velocity="90" />
      <note Length="0.75" Pitch="69" RiffPosition="2.75" Velocity="90" />
      <note Length="0.25" Pitch="67" RiffPosition="3.5" Velocity="90" />
      <note Length="0.25" Pitch="55" RiffPosition="3.75" Velocity="90" />
      <note Length="0.5" Pitch="55" RiffPosition="4" Velocity="90" />
      <note Length="0.5" Pitch="55" RiffPosition="4.5" Velocity="90" />
      <note Length="3" Pitch="62" RiffPosition="5" Velocity="90" />
      <note Length="1.5" Pitch="58" RiffPosition="8" Velocity="90" />
      <note Length="0.5" Pitch="60" RiffPosition="9.5" Velocity="90" />
      <note Length="0.75" Pitch="58" RiffPosition="10" Velocity="90" />
      <note Length="0.75" Pitch="57" RiffPosition="10.75" Velocity="90" />
      <note Length="0.25" Pitch="43" RiffPosition="11.5" Velocity="90" />
      <note Length="0.25" Pitch="43" RiffPosition="11.75" Velocity="90" />
    </riff>
    <riff IsDrum="False" MidiInstrument="95" Tempo="81" Length="12">
      <note Length="0.25" Pitch="43" RiffPosition="0" Velocity="0" />
      <note Length="0.25" Pitch="43" RiffPosition="0.25" Velocity="0" />
      <note Length="0.5" Pitch="45" RiffPosition="0.5" Velocity="0" />
      <note Length="1.5" Pitch="48" RiffPosition="1" Velocity="0" />
      <note Length="1.5" Pitch="46" RiffPosition="2.5" Velocity="90" />
      <note Length="0.5" Pitch="43" RiffPosition="4" Velocity="90" />
      <note Length="0.5" Pitch="43" RiffPosition="4.5" Velocity="90" />
      <note Length="3" Pitch="43" RiffPosition="5" Velocity="90" />
      <note Length="0.25" Pitch="31" RiffPosition="8" Velocity="90" />
      <note Length="0.25" Pitch="31" RiffPosition="8.25" Velocity="90" />
      <note Length="0.5" Pitch="31" RiffPosition="8.5" Velocity="90" />
      <note Length="1.5" Pitch="31" RiffPosition="9" Velocity="90" />
      <note Length="1.5" Pitch="31" RiffPosition="10.5" Velocity="90" />
    </riff>
    <riff IsDrum="False" MidiInstrument="29" Tempo="80" Length="12">
      <note Length="0.0416666666666667" Pitch="60" RiffPosition="0" Velocity="0" />
      <note Length="0.0416666666666667" Pitch="43" RiffPosition="0.0416666666666667" Velocity="0" />
      <note Length="0.0208333333333333" Pitch="50" RiffPosition="0.0833333333333333" Velocity="0" />
      <note Length="0.0208333333333333" Pitch="45" RiffPosition="0.104166666666667" Velocity="0" />
      <note Length="0.0416666666666667" Pitch="46" RiffPosition="0.125" Velocity="0" />
      <note Length="0.0416666666666667" Pitch="43" RiffPosition="0.166666666666667" Velocity="0" />
      <note Length="0.0416666666666667" Pitch="57" RiffPosition="0.208333333333333" Velocity="0" />
      <note Length="0.0416666666666667" Pitch="60" RiffPosition="0.25" Velocity="0" />
      <note Length="0.0208333333333333" Pitch="55" RiffPosition="0.291666666666667" Velocity="0" />
      <note Length="0.0208333333333333" Pitch="43" RiffPosition="0.3125" Velocity="0" />
      <note Length="0.0208333333333333" Pitch="43" RiffPosition="0.333333333333333" Velocity="0" />
      <note Length="0.0208333333333333" Pitch="51" RiffPosition="0.354166666666667" Velocity="0" />
      <note Length="0.0208333333333333" Pitch="43" RiffPosition="0.375" Velocity="0" />
      <note Length="0.0208333333333333" Pitch="58" RiffPosition="0.395833333333333" Velocity="0" />
      <note Length="0.0833333333333333" Pitch="55" RiffPosition="0.416666666666667" Velocity="0" />
      <note Length="0.015625" Pitch="58" RiffPosition="0.5" Velocity="0" />
      <note Length="0.00390625" Pitch="60" RiffPosition="0.515625" Velocity="0" />
      <note Length="0.01171875" Pitch="60" RiffPosition="0.51953125" Velocity="0" />
      <note Length="0.0078125" Pitch="55" RiffPosition="0.53125" Velocity="0" />
      <note Length="0.0078125" Pitch="57" RiffPosition="0.5390625" Velocity="0" />
      <note Length="0.015625" Pitch="57" RiffPosition="0.546875" Velocity="0" />
      <note Length="0.015625" Pitch="43" RiffPosition="0.5625" Velocity="0" />
      <note Length="0.015625" Pitch="50" RiffPosition="0.578125" Velocity="0" />
      <note Length="0.015625" Pitch="50" RiffPosition="0.59375" Velocity="0" />
      <note Length="0.0234375" Pitch="51" RiffPosition="0.609375" Velocity="0" />
      <note Length="0.0234375" Pitch="43" RiffPosition="0.6328125" Velocity="0" />
      <note Length="0.015625" Pitch="43" RiffPosition="0.65625" Velocity="0" />
      <note Length="0.015625" Pitch="43" RiffPosition="0.671875" Velocity="0" />
      <note Length="0.015625" Pitch="55" RiffPosition="0.6875" Velocity="0" />
      <note Length="0.0234375" Pitch="57" RiffPosition="0.703125" Velocity="0" />
      <note Length="0.0234375" Pitch="58" RiffPosition="0.7265625" Velocity="0" />
      <note Length="0.015625" Pitch="43" RiffPosition="0.75" Velocity="0" />
      <note Length="0.015625" Pitch="55" RiffPosition="0.765625" Velocity="0" />
      <note Length="0.0234375" Pitch="43" RiffPosition="0.78125" Velocity="0" />
      <note Length="0.0234375" Pitch="43" RiffPosition="0.8046875" Velocity="0" />
      <note Length="0.015625" Pitch="45" RiffPosition="0.828125" Velocity="0" />
      <note Length="0.015625" Pitch="48" RiffPosition="0.84375" Velocity="0" />
      <note Length="0.015625" Pitch="50" RiffPosition="0.859375" Velocity="0" />
      <note Length="0.0078125" Pitch="51" RiffPosition="0.875" Velocity="0" />
      <note Length="0.0078125" Pitch="51" RiffPosition="0.8828125" Velocity="0" />
      <note Length="0.015625" Pitch="43" RiffPosition="0.890625" Velocity="0" />
      <note Length="0.015625" Pitch="43" RiffPosition="0.90625" Velocity="0" />
      <note Length="0.015625" Pitch="43" RiffPosition="0.921875" Velocity="0" />
      <note Length="0.015625" Pitch="60" RiffPosition="0.9375" Velocity="0" />
      <note Length="0.015625" Pitch="60" RiffPosition="0.953125" Velocity="0" />
      <note Length="0.015625" Pitch="55" RiffPosition="0.96875" Velocity="0" />
      <note Length="0.015625" Pitch="58" RiffPosition="0.984375" Velocity="0" />
      <note Length="0.0416666666666667" Pitch="60" RiffPosition="1" Velocity="0" />
      <note Length="0.0416666666666667" Pitch="60" RiffPosition="1.04166666666667" Velocity="0" />
      <note Length="0.0208333333333333" Pitch="43" RiffPosition="1.08333333333333" Velocity="0" />
      <note Length="0.0208333333333333" Pitch="43" RiffPosition="1.10416666666667" Velocity="0" />
      <note Length="0.0416666666666667" Pitch="55" RiffPosition="1.125" Velocity="0" />
      <note Length="0.0416666666666667" Pitch="55" RiffPosition="1.16666666666667" Velocity="0" />
      <note Length="0.0416666666666667" Pitch="55" RiffPosition="1.20833333333333" Velocity="0" />
      <note Length="0.0416666666666667" Pitch="60" RiffPosition="1.25" Velocity="0" />
      <note Length="0.0208333333333333" Pitch="43" RiffPosition="1.29166666666667" Velocity="0" />
      <note Length="0.0208333333333333" Pitch="50" RiffPosition="1.3125" Velocity="0" />
      <note Length="0.0208333333333333" Pitch="50" RiffPosition="1.33333333333333" Velocity="0" />
      <note Length="0.0208333333333333" Pitch="51" RiffPosition="1.35416666666667" Velocity="0" />
      <note Length="0.0208333333333333" Pitch="46" RiffPosition="1.375" Velocity="0" />
      <note Length="0.0208333333333333" Pitch="51" RiffPosition="1.39583333333333" Velocity="0" />
      <note Length="0.0833333333333333" Pitch="43" RiffPosition="1.41666666666667" Velocity="0" />
      <note Length="0.015625" Pitch="57" RiffPosition="1.5" Velocity="0" />
      <note Length="0.00390625" Pitch="58" RiffPosition="1.515625" Velocity="0" />
      <note Length="0.01171875" Pitch="58" RiffPosition="1.51953125" Velocity="0" />
      <note Length="0.0078125" Pitch="51" RiffPosition="1.53125" Velocity="0" />
      <note Length="0.0078125" Pitch="51" RiffPosition="1.5390625" Velocity="0" />
      <note Length="0.015625" Pitch="43" RiffPosition="1.546875" Velocity="0" />
      <note Length="0.015625" Pitch="50" RiffPosition="1.5625" Velocity="0" />
      <note Length="0.015625" Pitch="51" RiffPosition="1.578125" Velocity="0" />
      <note Length="0.015625" Pitch="43" RiffPosition="1.59375" Velocity="0" />
      <note Length="0.0234375" Pitch="48" RiffPosition="1.609375" Velocity="0" />
      <note Length="0.0234375" Pitch="51" RiffPosition="1.6328125" Velocity="0" />
      <note Length="0.015625" Pitch="57" RiffPosition="1.65625" Velocity="0" />
      <note Length="0.015625" Pitch="58" RiffPosition="1.671875" Velocity="0" />
      <note Length="0.015625" Pitch="55" RiffPosition="1.6875" Velocity="0" />
      <note Length="0.0234375" Pitch="60" RiffPosition="1.703125" Velocity="0" />
      <note Length="0.0234375" Pitch="62" RiffPosition="1.7265625" Velocity="0" />
      <note Length="0.015625" Pitch="55" RiffPosition="1.75" Velocity="0" />
      <note Length="0.015625" Pitch="55" RiffPosition="1.765625" Velocity="0" />
      <note Length="0.0234375" Pitch="55" RiffPosition="1.78125" Velocity="0" />
      <note Length="0.0234375" Pitch="57" RiffPosition="1.8046875" Velocity="0" />
      <note Length="0.015625" Pitch="43" RiffPosition="1.828125" Velocity="0" />
      <note Length="0.015625" Pitch="55" RiffPosition="1.84375" Velocity="0" />
      <note Length="0.015625" Pitch="51" RiffPosition="1.859375" Velocity="0" />
      <note Length="0.0078125" Pitch="43" RiffPosition="1.875" Velocity="0" />
      <note Length="0.0078125" Pitch="43" RiffPosition="1.8828125" Velocity="0" />
      <note Length="0.015625" Pitch="43" RiffPosition="1.890625" Velocity="0" />
      <note Length="0.015625" Pitch="57" RiffPosition="1.90625" Velocity="0" />
      <note Length="0.015625" Pitch="58" RiffPosition="1.921875" Velocity="0" />
      <note Length="0.015625" Pitch="58" RiffPosition="1.9375" Velocity="0" />
      <note Length="0.015625" Pitch="58" RiffPosition="1.953125" Velocity="0" />
      <note Length="0.015625" Pitch="58" RiffPosition="1.96875" Velocity="0" />
      <note Length="0.015625" Pitch="58" RiffPosition="1.984375" Velocity="0" />
      <note Length="0.0416666666666667" Pitch="60" RiffPosition="2" Velocity="0" />
      <note Length="0.0416666666666667" Pitch="43" RiffPosition="2.04166666666667" Velocity="0" />
      <note Length="0.0208333333333333" Pitch="50" RiffPosition="2.08333333333333" Velocity="0" />
      <note Length="0.0208333333333333" Pitch="45" RiffPosition="2.10416666666667" Velocity="0" />
      <note Length="0.0416666666666667" Pitch="46" RiffPosition="2.125" Velocity="0" />
      <note Length="0.0416666666666667" Pitch="50" RiffPosition="2.16666666666667" Velocity="0" />
      <note Length="0.0416666666666667" Pitch="58" RiffPosition="2.20833333333333" Velocity="0" />
      <note Length="0.0416666666666667" Pitch="55" RiffPosition="2.25" Velocity="0" />
      <note Length="0.0208333333333333" Pitch="55" RiffPosition="2.29166666666667" Velocity="0" />
      <note Length="0.0208333333333333" Pitch="43" RiffPosition="2.3125" Velocity="0" />
      <note Length="0.0208333333333333" Pitch="51" RiffPosition="2.33333333333333" Velocity="0" />
      <note Length="0.0208333333333333" Pitch="43" RiffPosition="2.35416666666667" Velocity="0" />
      <note Length="0.0208333333333333" Pitch="43" RiffPosition="2.375" Velocity="0" />
      <note Length="0.0208333333333333" Pitch="60" RiffPosition="2.39583333333333" Velocity="0" />
      <note Length="0.0833333333333333" Pitch="55" RiffPosition="2.41666666666667" Velocity="0" />
      <note Length="0.015625" Pitch="60" RiffPosition="2.5" Velocity="0" />
      <note Length="0.00390625" Pitch="60" RiffPosition="2.515625" Velocity="0" />
      <note Length="0.01171875" Pitch="60" RiffPosition="2.51953125" Velocity="0" />
      <note Length="0.0078125" Pitch="57" RiffPosition="2.53125" Velocity="0" />
      <note Length="0.0078125" Pitch="57" RiffPosition="2.5390625" Velocity="0" />
      <note Length="0.015625" Pitch="58" RiffPosition="2.546875" Velocity="0" />
      <note Length="0.015625" Pitch="43" RiffPosition="2.5625" Velocity="0" />
      <note Length="0.015625" Pitch="50" RiffPosition="2.578125" Velocity="0" />
      <note Length="0.015625" Pitch="51" RiffPosition="2.59375" Velocity="0" />
      <note Length="0.0234375" Pitch="43" RiffPosition="2.609375" Velocity="0" />
      <note Length="0.0234375" Pitch="43" RiffPosition="2.6328125" Velocity="0" />
      <note Length="0.015625" Pitch="43" RiffPosition="2.65625" Velocity="0" />
      <note Length="0.015625" Pitch="43" RiffPosition="2.671875" Velocity="0" />
      <note Length="0.015625" Pitch="58" RiffPosition="2.6875" Velocity="0" />
      <note Length="0.0234375" Pitch="58" RiffPosition="2.703125" Velocity="0" />
      <note Length="0.0234375" Pitch="43" RiffPosition="2.7265625" Velocity="0" />
      <note Length="0.015625" Pitch="55" RiffPosition="2.75" Velocity="0" />
      <note Length="0.015625" Pitch="55" RiffPosition="2.765625" Velocity="0" />
      <note Length="0.0234375" Pitch="43" RiffPosition="2.78125" Velocity="0" />
      <note Length="0.0234375" Pitch="50" RiffPosition="2.8046875" Velocity="0" />
      <note Length="0.015625" Pitch="48" RiffPosition="2.828125" Velocity="0" />
      <note Length="0.015625" Pitch="48" RiffPosition="2.84375" Velocity="0" />
      <note Length="0.015625" Pitch="50" RiffPosition="2.859375" Velocity="0" />
      <note Length="0.0078125" Pitch="51" RiffPosition="2.875" Velocity="0" />
      <note Length="0.0078125" Pitch="46" RiffPosition="2.8828125" Velocity="0" />
      <note Length="0.015625" Pitch="48" RiffPosition="2.890625" Velocity="0" />
      <note Length="0.015625" Pitch="43" RiffPosition="2.90625" Velocity="0" />
      <note Length="0.015625" Pitch="43" RiffPosition="2.921875" Velocity="0" />
      <note Length="0.015625" Pitch="60" RiffPosition="2.9375" Velocity="0" />
      <note Length="0.015625" Pitch="62" RiffPosition="2.953125" Velocity="0" />
      <note Length="0.015625" Pitch="58" RiffPosition="2.96875" Velocity="0" />
      <note Length="0.015625" Pitch="60" RiffPosition="2.984375" Velocity="0" />
      <note Length="0.0416666666666667" Pitch="60" RiffPosition="3" Velocity="0" />
      <note Length="0.0416666666666667" Pitch="60" RiffPosition="3.04166666666667" Velocity="0" />
      <note Length="0.0208333333333333" Pitch="43" RiffPosition="3.08333333333333" Velocity="0" />
      <note Length="0.0208333333333333" Pitch="55" RiffPosition="3.10416666666667" Velocity="0" />
      <note Length="0.0416666666666667" Pitch="51" RiffPosition="3.125" Velocity="0" />
      <note Length="0.0416666666666667" Pitch="58" RiffPosition="3.16666666666667" Velocity="0" />
      <note Length="0.0416666666666667" Pitch="58" RiffPosition="3.20833333333333" Velocity="0" />
      <note Length="0.0416666666666667" Pitch="60" RiffPosition="3.25" Velocity="0" />
      <note Length="0.0208333333333333" Pitch="43" RiffPosition="3.29166666666667" Velocity="0" />
      <note Length="0.0208333333333333" Pitch="50" RiffPosition="3.3125" Velocity="0" />
      <note Length="0.0208333333333333" Pitch="50" RiffPosition="3.33333333333333" Velocity="0" />
      <note Length="0.0208333333333333" Pitch="51" RiffPosition="3.35416666666667" Velocity="0" />
      <note Length="0.0208333333333333" Pitch="46" RiffPosition="3.375" Velocity="0" />
      <note Length="0.0208333333333333" Pitch="43" RiffPosition="3.39583333333333" Velocity="0" />
      <note Length="0.0833333333333333" Pitch="43" RiffPosition="3.41666666666667" Velocity="0" />
      <note Length="0.015625" Pitch="58" RiffPosition="3.5" Velocity="0" />
      <note Length="0.00390625" Pitch="58" RiffPosition="3.515625" Velocity="0" />
      <note Length="0.01171875" Pitch="43" RiffPosition="3.51953125" Velocity="0" />
      <note Length="0.0078125" Pitch="51" RiffPosition="3.53125" Velocity="0" />
      <note Length="0.0078125" Pitch="43" RiffPosition="3.5390625" Velocity="0" />
      <note Length="0.015625" Pitch="43" RiffPosition="3.546875" Velocity="0" />
      <note Length="0.015625" Pitch="50" RiffPosition="3.5625" Velocity="0" />
      <note Length="0.015625" Pitch="51" RiffPosition="3.578125" Velocity="0" />
      <note Length="0.015625" Pitch="43" RiffPosition="3.59375" Velocity="0" />
      <note Length="0.0234375" Pitch="50" RiffPosition="3.609375" Velocity="0" />
      <note Length="0.0234375" Pitch="43" RiffPosition="3.6328125" Velocity="0" />
      <note Length="0.015625" Pitch="57" RiffPosition="3.65625" Velocity="0" />
      <note Length="0.015625" Pitch="58" RiffPosition="3.671875" Velocity="0" />
      <note Length="0.015625" Pitch="58" RiffPosition="3.6875" Velocity="0" />
      <note Length="0.0234375" Pitch="60" RiffPosition="3.703125" Velocity="0" />
      <note Length="0.0234375" Pitch="55" RiffPosition="3.7265625" Velocity="0" />
      <note Length="0.015625" Pitch="55" RiffPosition="3.75" Velocity="0" />
      <note Length="0.015625" Pitch="60" RiffPosition="3.765625" Velocity="0" />
      <note Length="0.0234375" Pitch="55" RiffPosition="3.78125" Velocity="0" />
      <note Length="0.0234375" Pitch="58" RiffPosition="3.8046875" Velocity="0" />
      <note Length="0.015625" Pitch="55" RiffPosition="3.828125" Velocity="0" />
      <note Length="0.015625" Pitch="51" RiffPosition="3.84375" Velocity="0" />
      <note Length="0.015625" Pitch="43" RiffPosition="3.859375" Velocity="0" />
      <note Length="0.0078125" Pitch="43" RiffPosition="3.875" Velocity="0" />
      <note Length="0.0078125" Pitch="43" RiffPosition="3.8828125" Velocity="0" />
      <note Length="0.015625" Pitch="43" RiffPosition="3.890625" Velocity="0" />
      <note Length="0.015625" Pitch="58" RiffPosition="3.90625" Velocity="0" />
      <note Length="0.015625" Pitch="43" RiffPosition="3.921875" Velocity="0" />
      <note Length="0.015625" Pitch="58" RiffPosition="3.9375" Velocity="0" />
      <note Length="0.015625" Pitch="58" RiffPosition="3.953125" Velocity="0" />
      <note Length="0.015625" Pitch="60" RiffPosition="3.96875" Velocity="0" />
      <note Length="0.015625" Pitch="60" RiffPosition="3.984375" Velocity="0" />
      <note Length="0.0416666666666667" Pitch="55" RiffPosition="4" Velocity="0" />
      <note Length="0.0416666666666667" Pitch="43" RiffPosition="4.04166666666667" Velocity="0" />
      <note Length="0.0208333333333333" Pitch="45" RiffPosition="4.08333333333333" Velocity="0" />
      <note Length="0.0208333333333333" Pitch="46" RiffPosition="4.10416666666667" Velocity="0" />
      <note Length="0.0416666666666667" Pitch="48" RiffPosition="4.125" Velocity="0" />
      <note Length="0.0416666666666667" Pitch="50" RiffPosition="4.16666666666667" Velocity="0" />
      <note Length="0.0416666666666667" Pitch="58" RiffPosition="4.20833333333333" Velocity="0" />
      <note Length="0.0416666666666667" Pitch="57" RiffPosition="4.25" Velocity="0" />
      <note Length="0.0208333333333333" Pitch="57" RiffPosition="4.29166666666667" Velocity="0" />
      <note Length="0.0208333333333333" Pitch="43" RiffPosition="4.3125" Velocity="0" />
      <note Length="0.0208333333333333" Pitch="51" RiffPosition="4.33333333333333" Velocity="0" />
      <note Length="0.0208333333333333" Pitch="43" RiffPosition="4.35416666666667" Velocity="0" />
      <note Length="0.0208333333333333" Pitch="55" RiffPosition="4.375" Velocity="0" />
      <note Length="0.0208333333333333" Pitch="55" RiffPosition="4.39583333333333" Velocity="0" />
      <note Length="0.0833333333333333" Pitch="55" RiffPosition="4.41666666666667" Velocity="0" />
      <note Length="0.015625" Pitch="60" RiffPosition="4.5" Velocity="0" />
      <note Length="0.00390625" Pitch="62" RiffPosition="4.515625" Velocity="0" />
      <note Length="0.01171875" Pitch="62" RiffPosition="4.51953125" Velocity="0" />
      <note Length="0.0078125" Pitch="58" RiffPosition="4.53125" Velocity="0" />
      <note Length="0.0078125" Pitch="58" RiffPosition="4.5390625" Velocity="0" />
      <note Length="0.015625" Pitch="58" RiffPosition="4.546875" Velocity="0" />
      <note Length="0.015625" Pitch="50" RiffPosition="4.5625" Velocity="0" />
      <note Length="0.015625" Pitch="51" RiffPosition="4.578125" Velocity="0" />
      <note Length="0.015625" Pitch="51" RiffPosition="4.59375" Velocity="0" />
      <note Length="0.0234375" Pitch="43" RiffPosition="4.609375" Velocity="0" />
      <note Length="0.0234375" Pitch="43" RiffPosition="4.6328125" Velocity="0" />
      <note Length="0.015625" Pitch="43" RiffPosition="4.65625" Velocity="0" />
      <note Length="0.015625" Pitch="43" RiffPosition="4.671875" Velocity="0" />
      <note Length="0.015625" Pitch="58" RiffPosition="4.6875" Velocity="0" />
      <note Length="0.0234375" Pitch="58" RiffPosition="4.703125" Velocity="0" />
      <note Length="0.0234375" Pitch="43" RiffPosition="4.7265625" Velocity="0" />
      <note Length="0.015625" Pitch="55" RiffPosition="4.75" Velocity="0" />
      <note Length="0.015625" Pitch="55" RiffPosition="4.765625" Velocity="0" />
      <note Length="0.0234375" Pitch="43" RiffPosition="4.78125" Velocity="0" />
      <note Length="0.0234375" Pitch="50" RiffPosition="4.8046875" Velocity="0" />
      <note Length="0.015625" Pitch="48" RiffPosition="4.828125" Velocity="0" />
      <note Length="0.015625" Pitch="50" RiffPosition="4.84375" Velocity="0" />
      <note Length="0.015625" Pitch="51" RiffPosition="4.859375" Velocity="0" />
      <note Length="0.0078125" Pitch="46" RiffPosition="4.875" Velocity="0" />
      <note Length="0.0078125" Pitch="48" RiffPosition="4.8828125" Velocity="0" />
      <note Length="0.015625" Pitch="48" RiffPosition="4.890625" Velocity="0" />
      <note Length="0.015625" Pitch="43" RiffPosition="4.90625" Velocity="0" />
      <note Length="0.015625" Pitch="55" RiffPosition="4.921875" Velocity="0" />
      <note Length="0.015625" Pitch="62" RiffPosition="4.9375" Velocity="0" />
      <note Length="0.015625" Pitch="58" RiffPosition="4.953125" Velocity="0" />
      <note Length="0.015625" Pitch="58" RiffPosition="4.96875" Velocity="0" />
      <note Length="0.015625" Pitch="60" RiffPosition="4.984375" Velocity="0" />
      <note Length="0.0416666666666667" Pitch="62" RiffPosition="5" Velocity="0" />
      <note Length="0.0416666666666667" Pitch="55" RiffPosition="5.04166666666667" Velocity="0" />
      <note Length="0.0208333333333333" Pitch="43" RiffPosition="5.08333333333333" Velocity="0" />
      <note Length="0.0208333333333333" Pitch="55" RiffPosition="5.10416666666667" Velocity="0" />
      <note Length="0.0416666666666667" Pitch="51" RiffPosition="5.125" Velocity="0" />
      <note Length="0.0416666666666667" Pitch="58" RiffPosition="5.16666666666667" Velocity="0" />
      <note Length="0.0416666666666667" Pitch="58" RiffPosition="5.20833333333333" Velocity="0" />
      <note Length="0.0416666666666667" Pitch="60" RiffPosition="5.25" Velocity="0" />
      <note Length="0.0208333333333333" Pitch="43" RiffPosition="5.29166666666667" Velocity="0" />
      <note Length="0.0208333333333333" Pitch="51" RiffPosition="5.3125" Velocity="0" />
      <note Length="0.0208333333333333" Pitch="51" RiffPosition="5.33333333333333" Velocity="0" />
      <note Length="0.0208333333333333" Pitch="46" RiffPosition="5.35416666666667" Velocity="0" />
      <note Length="0.0208333333333333" Pitch="48" RiffPosition="5.375" Velocity="0" />
      <note Length="0.0208333333333333" Pitch="43" RiffPosition="5.39583333333333" Velocity="0" />
      <note Length="0.0833333333333333" Pitch="43" RiffPosition="5.41666666666667" Velocity="0" />
      <note Length="0.015625" Pitch="58" RiffPosition="5.5" Velocity="0" />
      <note Length="0.00390625" Pitch="43" RiffPosition="5.515625" Velocity="0" />
      <note Length="0.01171875" Pitch="43" RiffPosition="5.51953125" Velocity="0" />
      <note Length="0.0078125" Pitch="43" RiffPosition="5.53125" Velocity="0" />
      <note Length="0.0078125" Pitch="43" RiffPosition="5.5390625" Velocity="0" />
      <note Length="0.015625" Pitch="43" RiffPosition="5.546875" Velocity="0" />
      <note Length="0.015625" Pitch="51" RiffPosition="5.5625" Velocity="0" />
      <note Length="0.015625" Pitch="43" RiffPosition="5.578125" Velocity="0" />
      <note Length="0.015625" Pitch="48" RiffPosition="5.59375" Velocity="0" />
      <note Length="0.0234375" Pitch="50" RiffPosition="5.609375" Velocity="0" />
      <note Length="0.0234375" Pitch="43" RiffPosition="5.6328125" Velocity="0" />
      <note Length="0.015625" Pitch="58" RiffPosition="5.65625" Velocity="0" />
      <note Length="0.015625" Pitch="43" RiffPosition="5.671875" Velocity="0" />
      <note Length="0.015625" Pitch="60" RiffPosition="5.6875" Velocity="0" />
      <note Length="0.0234375" Pitch="60" RiffPosition="5.703125" Velocity="0" />
      <note Length="0.0234375" Pitch="55" RiffPosition="5.7265625" Velocity="0" />
      <note Length="0.015625" Pitch="60" RiffPosition="5.75" Velocity="0" />
      <note Length="0.015625" Pitch="60" RiffPosition="5.765625" Velocity="0" />
      <note Length="0.0234375" Pitch="57" RiffPosition="5.78125" Velocity="0" />
      <note Length="0.0234375" Pitch="58" RiffPosition="5.8046875" Velocity="0" />
      <note Length="0.015625" Pitch="51" RiffPosition="5.828125" Velocity="0" />
      <note Length="0.015625" Pitch="51" RiffPosition="5.84375" Velocity="0" />
      <note Length="0.015625" Pitch="43" RiffPosition="5.859375" Velocity="0" />
      <note Length="0.0078125" Pitch="43" RiffPosition="5.875" Velocity="0" />
      <note Length="0.0078125" Pitch="43" RiffPosition="5.8828125" Velocity="0" />
      <note Length="0.015625" Pitch="43" RiffPosition="5.890625" Velocity="0" />
      <note Length="0.015625" Pitch="58" RiffPosition="5.90625" Velocity="0" />
      <note Length="0.015625" Pitch="43" RiffPosition="5.921875" Velocity="0" />
      <note Length="0.015625" Pitch="58" RiffPosition="5.9375" Velocity="0" />
      <note Length="0.015625" Pitch="60" RiffPosition="5.953125" Velocity="0" />
      <note Length="0.015625" Pitch="60" RiffPosition="5.96875" Velocity="0" />
      <note Length="0.015625" Pitch="60" RiffPosition="5.984375" Velocity="0" />
      <note Length="0.0416666666666667" Pitch="55" RiffPosition="6" Velocity="0" />
      <note Length="0.0416666666666667" Pitch="43" RiffPosition="6.04166666666667" Velocity="47" />
      <note Length="0.0208333333333333" Pitch="45" RiffPosition="6.08333333333333" Velocity="56" />
      <note Length="0.0208333333333333" Pitch="46" RiffPosition="6.10416666666667" Velocity="49" />
      <note Length="0.0416666666666667" Pitch="48" RiffPosition="6.125" Velocity="53" />
      <note Length="0.0416666666666667" Pitch="51" RiffPosition="6.16666666666667" Velocity="53" />
      <note Length="0.0416666666666667" Pitch="58" RiffPosition="6.20833333333333" Velocity="63" />
      <note Length="0.0416666666666667" Pitch="58" RiffPosition="6.25" Velocity="50" />
      <note Length="0.0208333333333333" Pitch="58" RiffPosition="6.29166666666667" Velocity="57" />
      <note Length="0.0208333333333333" Pitch="50" RiffPosition="6.3125" Velocity="39" />
      <note Length="0.0208333333333333" Pitch="43" RiffPosition="6.33333333333333" Velocity="52" />
      <note Length="0.0208333333333333" Pitch="43" RiffPosition="6.35416666666667" Velocity="40" />
      <note Length="0.0208333333333333" Pitch="55" RiffPosition="6.375" Velocity="58" />
      <note Length="0.0208333333333333" Pitch="55" RiffPosition="6.39583333333333" Velocity="80" />
      <note Length="0.0833333333333333" Pitch="57" RiffPosition="6.41666666666666" Velocity="50" />
      <note Length="0.015625" Pitch="60" RiffPosition="6.5" Velocity="49" />
      <note Length="0.00390625" Pitch="62" RiffPosition="6.515625" Velocity="66" />
      <note Length="0.01171875" Pitch="62" RiffPosition="6.51953125" Velocity="67" />
      <note Length="0.0078125" Pitch="58" RiffPosition="6.53125" Velocity="49" />
      <note Length="0.0078125" Pitch="58" RiffPosition="6.5390625" Velocity="46" />
      <note Length="0.015625" Pitch="43" RiffPosition="6.546875" Velocity="47" />
      <note Length="0.015625" Pitch="50" RiffPosition="6.5625" Velocity="51" />
      <note Length="0.015625" Pitch="51" RiffPosition="6.578125" Velocity="79" />
      <note Length="0.015625" Pitch="43" RiffPosition="6.59375" Velocity="63" />
      <note Length="0.0234375" Pitch="43" RiffPosition="6.609375" Velocity="64" />
      <note Length="0.0234375" Pitch="48" RiffPosition="6.6328125" Velocity="45" />
      <note Length="0.015625" Pitch="43" RiffPosition="6.65625" Velocity="46" />
      <note Length="0.015625" Pitch="43" RiffPosition="6.671875" Velocity="55" />
      <note Length="0.015625" Pitch="58" RiffPosition="6.6875" Velocity="78" />
      <note Length="0.0234375" Pitch="43" RiffPosition="6.703125" Velocity="90" />
      <note Length="0.0234375" Pitch="55" RiffPosition="6.7265625" Velocity="75" />
      <note Length="0.015625" Pitch="55" RiffPosition="6.75" Velocity="39" />
      <note Length="0.015625" Pitch="57" RiffPosition="6.765625" Velocity="39" />
      <note Length="0.0234375" Pitch="43" RiffPosition="6.78125" Velocity="42" />
      <note Length="0.0234375" Pitch="51" RiffPosition="6.8046875" Velocity="45" />
      <note Length="0.015625" Pitch="48" RiffPosition="6.828125" Velocity="58" />
      <note Length="0.015625" Pitch="50" RiffPosition="6.84375" Velocity="55" />
      <note Length="0.015625" Pitch="51" RiffPosition="6.859375" Velocity="37" />
      <note Length="0.0078125" Pitch="48" RiffPosition="6.875" Velocity="63" />
      <note Length="0.0078125" Pitch="48" RiffPosition="6.8828125" Velocity="69" />
      <note Length="0.015625" Pitch="50" RiffPosition="6.890625" Velocity="75" />
      <note Length="0.015625" Pitch="43" RiffPosition="6.90625" Velocity="92" />
      <note Length="0.015625" Pitch="55" RiffPosition="6.921875" Velocity="76" />
      <note Length="0.015625" Pitch="62" RiffPosition="6.9375" Velocity="59" />
      <note Length="0.015625" Pitch="58" RiffPosition="6.953125" Velocity="55" />
      <note Length="0.015625" Pitch="60" RiffPosition="6.96875" Velocity="61" />
      <note Length="0.015625" Pitch="62" RiffPosition="6.984375" Velocity="80" />
      <note Length="0.0416666666666667" Pitch="62" RiffPosition="7" Velocity="83" />
      <note Length="0.0416666666666667" Pitch="55" RiffPosition="7.04166666666666" Velocity="75" />
      <note Length="0.0208333333333333" Pitch="55" RiffPosition="7.08333333333333" Velocity="44" />
      <note Length="0.0208333333333333" Pitch="51" RiffPosition="7.10416666666666" Velocity="40" />
      <note Length="0.0416666666666667" Pitch="43" RiffPosition="7.125" Velocity="50" />
      <note Length="0.0416666666666667" Pitch="58" RiffPosition="7.16666666666666" Velocity="47" />
      <note Length="0.0416666666666667" Pitch="60" RiffPosition="7.20833333333333" Velocity="99" />
      <note Length="0.0416666666666667" Pitch="55" RiffPosition="7.25" Velocity="72" />
      <note Length="0.0208333333333333" Pitch="43" RiffPosition="7.29166666666667" Velocity="75" />
      <note Length="0.0208333333333333" Pitch="51" RiffPosition="7.3125" Velocity="85" />
      <note Length="0.0208333333333333" Pitch="43" RiffPosition="7.33333333333333" Velocity="97" />
      <note Length="0.0208333333333333" Pitch="48" RiffPosition="7.35416666666666" Velocity="68" />
      <note Length="0.0208333333333333" Pitch="48" RiffPosition="7.375" Velocity="52" />
      <note Length="0.0208333333333333" Pitch="43" RiffPosition="7.39583333333333" Velocity="58" />
      <note Length="0.0833333333333333" Pitch="43" RiffPosition="7.41666666666666" Velocity="36" />
      <note Length="0.015625" Pitch="43" RiffPosition="7.5" Velocity="68" />
      <note Length="0.00390625" Pitch="43" RiffPosition="7.515625" Velocity="91" />
      <note Length="0.01171875" Pitch="55" RiffPosition="7.51953125" Velocity="93" />
      <note Length="0.0078125" Pitch="43" RiffPosition="7.53125" Velocity="80" />
      <note Length="0.0078125" Pitch="43" RiffPosition="7.5390625" Velocity="70" />
      <note Length="0.015625" Pitch="43" RiffPosition="7.546875" Velocity="84" />
      <note Length="0.015625" Pitch="43" RiffPosition="7.5625" Velocity="62" />
      <note Length="0.015625" Pitch="48" RiffPosition="7.578125" Velocity="40" />
      <note Length="0.015625" Pitch="50" RiffPosition="7.59375" Velocity="51" />
      <note Length="0.0234375" Pitch="51" RiffPosition="7.609375" Velocity="68" />
      <note Length="0.0234375" Pitch="43" RiffPosition="7.6328125" Velocity="83" />
      <note Length="0.015625" Pitch="58" RiffPosition="7.65625" Velocity="73" />
      <note Length="0.015625" Pitch="55" RiffPosition="7.671875" Velocity="58" />
      <note Length="0.015625" Pitch="60" RiffPosition="7.6875" Velocity="42" />
      <note Length="0.0234375" Pitch="55" RiffPosition="7.703125" Velocity="45" />
      <note Length="0.0234375" Pitch="55" RiffPosition="7.7265625" Velocity="54" />
      <note Length="0.015625" Pitch="60" RiffPosition="7.75" Velocity="38" />
      <note Length="0.015625" Pitch="60" RiffPosition="7.765625" Velocity="45" />
      <note Length="0.0234375" Pitch="58" RiffPosition="7.78125" Velocity="43" />
      <note Length="0.0234375" Pitch="58" RiffPosition="7.8046875" Velocity="65" />
      <note Length="0.015625" Pitch="51" RiffPosition="7.828125" Velocity="75" />
      <note Length="0.015625" Pitch="43" RiffPosition="7.84375" Velocity="79" />
      <note Length="0.015625" Pitch="43" RiffPosition="7.859375" Velocity="60" />
      <note Length="0.0078125" Pitch="43" RiffPosition="7.875" Velocity="43" />
      <note Length="0.0078125" Pitch="43" RiffPosition="7.8828125" Velocity="40" />
      <note Length="0.015625" Pitch="43" RiffPosition="7.890625" Velocity="37" />
      <note Length="0.015625" Pitch="43" RiffPosition="7.90625" Velocity="36" />
      <note Length="0.015625" Pitch="55" RiffPosition="7.921875" Velocity="48" />
      <note Length="0.015625" Pitch="60" RiffPosition="7.9375" Velocity="71" />
      <note Length="0.015625" Pitch="60" RiffPosition="7.953125" Velocity="79" />
      <note Length="0.015625" Pitch="60" RiffPosition="7.96875" Velocity="66" />
      <note Length="0.015625" Pitch="55" RiffPosition="7.984375" Velocity="42" />
      <note Length="0.0416666666666667" Pitch="57" RiffPosition="8" Velocity="38" />
      <note Length="0.0416666666666667" Pitch="43" RiffPosition="8.04166666666666" Velocity="46" />
      <note Length="0.0208333333333333" Pitch="46" RiffPosition="8.08333333333333" Velocity="57" />
      <note Length="0.0208333333333333" Pitch="48" RiffPosition="8.10416666666666" Velocity="35" />
      <note Length="0.0416666666666667" Pitch="50" RiffPosition="8.125" Velocity="42" />
      <note Length="0.0416666666666667" Pitch="43" RiffPosition="8.16666666666666" Velocity="42" />
      <note Length="0.0416666666666667" Pitch="60" RiffPosition="8.20833333333333" Velocity="64" />
      <note Length="0.0416666666666667" Pitch="58" RiffPosition="8.24999999999999" Velocity="50" />
      <note Length="0.0208333333333333" Pitch="58" RiffPosition="8.29166666666666" Velocity="56" />
      <note Length="0.0208333333333333" Pitch="51" RiffPosition="8.31249999999999" Velocity="38" />
      <note Length="0.0208333333333333" Pitch="43" RiffPosition="8.33333333333333" Velocity="63" />
      <note Length="0.0208333333333333" Pitch="43" RiffPosition="8.35416666666666" Velocity="39" />
      <note Length="0.0208333333333333" Pitch="51" RiffPosition="8.375" Velocity="47" />
      <note Length="0.0208333333333333" Pitch="55" RiffPosition="8.39583333333333" Velocity="79" />
      <note Length="0.0833333333333333" Pitch="58" RiffPosition="8.41666666666666" Velocity="63" />
      <note Length="0.015625" Pitch="62" RiffPosition="8.5" Velocity="63" />
      <note Length="0.00390625" Pitch="55" RiffPosition="8.515625" Velocity="66" />
      <note Length="0.01171875" Pitch="55" RiffPosition="8.51953125" Velocity="66" />
      <note Length="0.0078125" Pitch="58" RiffPosition="8.53125" Velocity="48" />
      <note Length="0.0078125" Pitch="43" RiffPosition="8.5390625" Velocity="49" />
      <note Length="0.015625" Pitch="43" RiffPosition="8.546875" Velocity="35" />
      <note Length="0.015625" Pitch="43" RiffPosition="8.5625" Velocity="52" />
      <note Length="0.015625" Pitch="43" RiffPosition="8.578125" Velocity="66" />
      <note Length="0.015625" Pitch="43" RiffPosition="8.59375" Velocity="75" />
      <note Length="0.0234375" Pitch="43" RiffPosition="8.609375" Velocity="65" />
      <note Length="0.0234375" Pitch="50" RiffPosition="8.6328125" Velocity="45" />
      <note Length="0.015625" Pitch="43" RiffPosition="8.65625" Velocity="38" />
      <note Length="0.015625" Pitch="43" RiffPosition="8.671875" Velocity="56" />
      <note Length="0.015625" Pitch="58" RiffPosition="8.6875" Velocity="79" />
      <note Length="0.0234375" Pitch="43" RiffPosition="8.703125" Velocity="87" />
      <note Length="0.0234375" Pitch="55" RiffPosition="8.7265625" Velocity="76" />
      <note Length="0.015625" Pitch="57" RiffPosition="8.75" Velocity="51" />
      <note Length="0.015625" Pitch="58" RiffPosition="8.765625" Velocity="38" />
      <note Length="0.0234375" Pitch="50" RiffPosition="8.78125" Velocity="42" />
      <note Length="0.0234375" Pitch="51" RiffPosition="8.8046875" Velocity="57" />
      <note Length="0.015625" Pitch="50" RiffPosition="8.828125" Velocity="58" />
      <note Length="0.015625" Pitch="50" RiffPosition="8.84375" Velocity="56" />
      <note Length="0.015625" Pitch="46" RiffPosition="8.859375" Velocity="40" />
      <note Length="0.0078125" Pitch="48" RiffPosition="8.875" Velocity="62" />
      <note Length="0.0078125" Pitch="48" RiffPosition="8.8828125" Velocity="68" />
      <note Length="0.015625" Pitch="50" RiffPosition="8.890625" Velocity="74" />
      <note Length="0.015625" Pitch="55" RiffPosition="8.90625" Velocity="81" />
      <note Length="0.015625" Pitch="57" RiffPosition="8.921875" Velocity="75" />
      <note Length="0.015625" Pitch="57" RiffPosition="8.9375" Velocity="73" />
      <note Length="0.015625" Pitch="58" RiffPosition="8.953125" Velocity="54" />
      <note Length="0.015625" Pitch="60" RiffPosition="8.96875" Velocity="50" />
      <note Length="0.015625" Pitch="62" RiffPosition="8.984375" Velocity="79" />
      <note Length="0.0416666666666667" Pitch="55" RiffPosition="9" Velocity="82" />
      <note Length="0.0416666666666667" Pitch="57" RiffPosition="9.04166666666666" Velocity="75" />
      <note Length="0.0208333333333333" Pitch="55" RiffPosition="9.08333333333333" Velocity="44" />
      <note Length="0.0208333333333333" Pitch="43" RiffPosition="9.10416666666666" Velocity="40" />
      <note Length="0.0416666666666667" Pitch="43" RiffPosition="9.125" Velocity="38" />
      <note Length="0.0416666666666667" Pitch="60" RiffPosition="9.16666666666666" Velocity="48" />
      <note Length="0.0416666666666667" Pitch="60" RiffPosition="9.20833333333333" Velocity="99" />
      <note Length="0.0416666666666667" Pitch="58" RiffPosition="9.25" Velocity="72" />
      <note Length="0.0208333333333333" Pitch="55" RiffPosition="9.29166666666666" Velocity="72" />
      <note Length="0.0208333333333333" Pitch="43" RiffPosition="9.3125" Velocity="85" />
      <note Length="0.0208333333333333" Pitch="48" RiffPosition="9.33333333333333" Velocity="94" />
      <note Length="0.0208333333333333" Pitch="48" RiffPosition="9.35416666666666" Velocity="68" />
      <note Length="0.0208333333333333" Pitch="50" RiffPosition="9.375" Velocity="38" />
      <note Length="0.0208333333333333" Pitch="43" RiffPosition="9.39583333333333" Velocity="47" />
      <note Length="0.0833333333333333" Pitch="50" RiffPosition="9.41666666666667" Velocity="50" />
      <note Length="0.015625" Pitch="43" RiffPosition="9.5" Velocity="71" />
      <note Length="0.00390625" Pitch="55" RiffPosition="9.515625" Velocity="91" />
      <note Length="0.01171875" Pitch="55" RiffPosition="9.51953125" Velocity="93" />
      <note Length="0.0078125" Pitch="43" RiffPosition="9.53125" Velocity="94" />
      <note Length="0.0078125" Pitch="43" RiffPosition="9.5390625" Velocity="83" />
      <note Length="0.015625" Pitch="43" RiffPosition="9.546875" Velocity="73" />
      <note Length="0.015625" Pitch="43" RiffPosition="9.5625" Velocity="62" />
      <note Length="0.015625" Pitch="48" RiffPosition="9.578125" Velocity="54" />
      <note Length="0.015625" Pitch="50" RiffPosition="9.59375" Velocity="51" />
      <note Length="0.0234375" Pitch="43" RiffPosition="9.609375" Velocity="56" />
      <note Length="0.0234375" Pitch="43" RiffPosition="9.6328125" Velocity="82" />
      <note Length="0.015625" Pitch="43" RiffPosition="9.65625" Velocity="76" />
      <note Length="0.015625" Pitch="55" RiffPosition="9.671875" Velocity="57" />
      <note Length="0.015625" Pitch="62" RiffPosition="9.6875" Velocity="42" />
      <note Length="0.0234375" Pitch="55" RiffPosition="9.703125" Velocity="57" />
      <note Length="0.0234375" Pitch="58" RiffPosition="9.7265625" Velocity="54" />
      <note Length="0.015625" Pitch="60" RiffPosition="9.75" Velocity="38" />
      <note Length="0.015625" Pitch="62" RiffPosition="9.765625" Velocity="36" />
      <note Length="0.0234375" Pitch="58" RiffPosition="9.78125" Velocity="42" />
      <note Length="0.0234375" Pitch="60" RiffPosition="9.8046875" Velocity="65" />
      <note Length="0.015625" Pitch="43" RiffPosition="9.828125" Velocity="76" />
      <note Length="0.015625" Pitch="43" RiffPosition="9.84375" Velocity="80" />
      <note Length="0.015625" Pitch="43" RiffPosition="9.859375" Velocity="60" />
      <note Length="0.0078125" Pitch="43" RiffPosition="9.875" Velocity="54" />
      <note Length="0.0078125" Pitch="43" RiffPosition="9.8828125" Velocity="41" />
      <note Length="0.015625" Pitch="50" RiffPosition="9.890625" Velocity="47" />
      <note Length="0.015625" Pitch="55" RiffPosition="9.90625" Velocity="37" />
      <note Length="0.015625" Pitch="55" RiffPosition="9.921875" Velocity="60" />
      <note Length="0.015625" Pitch="60" RiffPosition="9.9375" Velocity="57" />
      <note Length="0.015625" Pitch="62" RiffPosition="9.953125" Velocity="79" />
      <note Length="0.015625" Pitch="55" RiffPosition="9.96875" Velocity="63" />
      <note Length="0.015625" Pitch="55" RiffPosition="9.984375" Velocity="42" />
      <note Length="0.0416666666666667" Pitch="57" RiffPosition="10" Velocity="37" />
      <note Length="0.0416666666666667" Pitch="43" RiffPosition="10.0416666666667" Velocity="46" />
      <note Length="0.0208333333333333" Pitch="48" RiffPosition="10.0833333333333" Velocity="68" />
      <note Length="0.0208333333333333" Pitch="48" RiffPosition="10.1041666666667" Velocity="35" />
      <note Length="0.0416666666666667" Pitch="45" RiffPosition="10.125" Velocity="41" />
      <note Length="0.0416666666666667" Pitch="43" RiffPosition="10.1666666666667" Velocity="56" />
      <note Length="0.0416666666666667" Pitch="55" RiffPosition="10.2083333333333" Velocity="50" />
      <note Length="0.0416666666666667" Pitch="58" RiffPosition="10.25" Velocity="64" />
      <note Length="0.0208333333333333" Pitch="43" RiffPosition="10.2916666666667" Velocity="59" />
      <note Length="0.0208333333333333" Pitch="43" RiffPosition="10.3125" Velocity="37" />
      <note Length="0.0208333333333333" Pitch="43" RiffPosition="10.3333333333333" Velocity="49" />
      <note Length="0.0208333333333333" Pitch="55" RiffPosition="10.3541666666667" Velocity="38" />
      <note Length="0.0208333333333333" Pitch="51" RiffPosition="10.375" Velocity="60" />
      <note Length="0.0208333333333333" Pitch="57" RiffPosition="10.3958333333333" Velocity="68" />
      <note Length="0.0833333333333333" Pitch="58" RiffPosition="10.4166666666667" Velocity="63" />
      <note Length="0.015625" Pitch="55" RiffPosition="10.5" Velocity="51" />
      <note Length="0.00390625" Pitch="55" RiffPosition="10.515625" Velocity="65" />
      <note Length="0.01171875" Pitch="55" RiffPosition="10.51953125" Velocity="66" />
      <note Length="0.0078125" Pitch="43" RiffPosition="10.53125" Velocity="62" />
      <note Length="0.0078125" Pitch="55" RiffPosition="10.5390625" Velocity="48" />
      <note Length="0.015625" Pitch="55" RiffPosition="10.546875" Velocity="35" />
      <note Length="0.015625" Pitch="43" RiffPosition="10.5625" Velocity="63" />
      <note Length="0.015625" Pitch="43" RiffPosition="10.578125" Velocity="66" />
      <note Length="0.015625" Pitch="43" RiffPosition="10.59375" Velocity="75" />
      <note Length="0.0234375" Pitch="50" RiffPosition="10.609375" Velocity="62" />
      <note Length="0.0234375" Pitch="50" RiffPosition="10.6328125" Velocity="46" />
      <note Length="0.015625" Pitch="43" RiffPosition="10.65625" Velocity="44" />
      <note Length="0.015625" Pitch="55" RiffPosition="10.671875" Velocity="56" />
      <note Length="0.015625" Pitch="55" RiffPosition="10.6875" Velocity="65" />
      <note Length="0.0234375" Pitch="55" RiffPosition="10.703125" Velocity="88" />
      <note Length="0.0234375" Pitch="57" RiffPosition="10.7265625" Velocity="62" />
      <note Length="0.015625" Pitch="58" RiffPosition="10.75" Velocity="51" />
      <note Length="0.015625" Pitch="43" RiffPosition="10.765625" Velocity="41" />
      <note Length="0.0234375" Pitch="50" RiffPosition="10.78125" Velocity="41" />
      <note Length="0.0234375" Pitch="43" RiffPosition="10.8046875" Velocity="43" />
      <note Length="0.015625" Pitch="50" RiffPosition="10.828125" Velocity="70" />
      <note Length="0.015625" Pitch="45" RiffPosition="10.84375" Velocity="42" />
      <note Length="0.015625" Pitch="46" RiffPosition="10.859375" Velocity="39" />
      <note Length="0.0078125" Pitch="48" RiffPosition="10.875" Velocity="51" />
      <note Length="0.0078125" Pitch="50" RiffPosition="10.8828125" Velocity="71" />
      <note Length="0.015625" Pitch="50" RiffPosition="10.890625" Velocity="88" />
      <note Length="0.015625" Pitch="55" RiffPosition="10.90625" Velocity="81" />
      <note Length="0.015625" Pitch="43" RiffPosition="10.921875" Velocity="64" />
      <note Length="0.015625" Pitch="58" RiffPosition="10.9375" Velocity="72" />
      <note Length="0.015625" Pitch="60" RiffPosition="10.953125" Velocity="54" />
      <note Length="0.015625" Pitch="60" RiffPosition="10.96875" Velocity="64" />
      <note Length="0.015625" Pitch="55" RiffPosition="10.984375" Velocity="68" />
      <note Length="0.0416666666666667" Pitch="58" RiffPosition="11" Velocity="0" />
      <note Length="0.0416666666666667" Pitch="58" RiffPosition="11.0416666666667" Velocity="0" />
      <note Length="0.0208333333333333" Pitch="51" RiffPosition="11.0833333333333" Velocity="0" />
      <note Length="0.0208333333333333" Pitch="43" RiffPosition="11.1041666666667" Velocity="0" />
      <note Length="0.0416666666666667" Pitch="43" RiffPosition="11.125" Velocity="0" />
      <note Length="0.0416666666666667" Pitch="55" RiffPosition="11.1666666666667" Velocity="0" />
      <note Length="0.0416666666666667" Pitch="62" RiffPosition="11.2083333333333" Velocity="0" />
      <note Length="0.0416666666666667" Pitch="58" RiffPosition="11.25" Velocity="0" />
      <note Length="0.0208333333333333" Pitch="55" RiffPosition="11.2916666666667" Velocity="0" />
      <note Length="0.0208333333333333" Pitch="43" RiffPosition="11.3125" Velocity="0" />
      <note Length="0.0208333333333333" Pitch="48" RiffPosition="11.3333333333333" Velocity="0" />
      <note Length="0.0208333333333333" Pitch="48" RiffPosition="11.3541666666667" Velocity="0" />
      <note Length="0.0208333333333333" Pitch="50" RiffPosition="11.375" Velocity="0" />
      <note Length="0.0208333333333333" Pitch="43" RiffPosition="11.3958333333333" Velocity="0" />
      <note Length="0.0833333333333333" Pitch="50" RiffPosition="11.4166666666667" Velocity="0" />
      <note Length="0.015625" Pitch="55" RiffPosition="11.5" Velocity="0" />
      <note Length="0.00390625" Pitch="55" RiffPosition="11.515625" Velocity="0" />
      <note Length="0.01171875" Pitch="57" RiffPosition="11.51953125" Velocity="0" />
      <note Length="0.0078125" Pitch="43" RiffPosition="11.53125" Velocity="0" />
      <note Length="0.0078125" Pitch="43" RiffPosition="11.5390625" Velocity="0" />
      <note Length="0.015625" Pitch="55" RiffPosition="11.546875" Velocity="0" />
      <note Length="0.015625" Pitch="48" RiffPosition="11.5625" Velocity="0" />
      <note Length="0.015625" Pitch="50" RiffPosition="11.578125" Velocity="0" />
      <note Length="0.015625" Pitch="50" RiffPosition="11.59375" Velocity="0" />
      <note Length="0.0234375" Pitch="43" RiffPosition="11.609375" Velocity="0" />
      <note Length="0.0234375" Pitch="43" RiffPosition="11.6328125" Velocity="0" />
      <note Length="0.015625" Pitch="55" RiffPosition="11.65625" Velocity="0" />
      <note Length="0.015625" Pitch="55" RiffPosition="11.671875" Velocity="0" />
      <note Length="0.015625" Pitch="62" RiffPosition="11.6875" Velocity="0" />
      <note Length="0.0234375" Pitch="55" RiffPosition="11.703125" Velocity="0" />
      <note Length="0.0234375" Pitch="60" RiffPosition="11.7265625" Velocity="0" />
      <note Length="0.015625" Pitch="62" RiffPosition="11.75" Velocity="0" />
      <note Length="0.015625" Pitch="55" RiffPosition="11.765625" Velocity="0" />
      <note Length="0.0234375" Pitch="58" RiffPosition="11.78125" Velocity="0" />
      <note Length="0.0234375" Pitch="55" RiffPosition="11.8046875" Velocity="0" />
      <note Length="0.015625" Pitch="43" RiffPosition="11.828125" Velocity="0" />
      <note Length="0.015625" Pitch="43" RiffPosition="11.84375" Velocity="0" />
      <note Length="0.015625" Pitch="43" RiffPosition="11.859375" Velocity="0" />
      <note Length="0.0078125" Pitch="50" RiffPosition="11.875" Velocity="0" />
      <note Length="0.0078125" Pitch="50" RiffPosition="11.8828125" Velocity="0" />
      <note Length="0.015625" Pitch="50" RiffPosition="11.890625" Velocity="0" />
      <note Length="0.015625" Pitch="55" RiffPosition="11.90625" Velocity="0" />
      <note Length="0.015625" Pitch="55" RiffPosition="11.921875" Velocity="0" />
      <note Length="0.015625" Pitch="62" RiffPosition="11.9375" Velocity="0" />
      <note Length="0.015625" Pitch="62" RiffPosition="11.953125" Velocity="0" />
      <note Length="0.015625" Pitch="57" RiffPosition="11.96875" Velocity="0" />
      <note Length="0.0156249999999964" Pitch="58" RiffPosition="11.984375" Velocity="0" />
    </riff>
    <riff IsDrum="False" MidiInstrument="29" Tempo="81" Length="12">
      <note Length="0.0104166666666667" Pitch="48" RiffPosition="0" Velocity="0" />
      <note Length="0.0104166666666667" Pitch="48" RiffPosition="0.0104166666666667" Velocity="0" />
      <note Length="0.0104166666666667" Pitch="50" RiffPosition="0.0208333333333333" Velocity="0" />
      <note Length="0.0104166666666667" Pitch="43" RiffPosition="0.03125" Velocity="0" />
      <note Length="0.0104166666666667" Pitch="43" RiffPosition="0.0416666666666667" Velocity="0" />
      <note Length="0.0104166666666667" Pitch="43" RiffPosition="0.0520833333333333" Velocity="0" />
      <note Length="0.0104166666666667" Pitch="55" RiffPosition="0.0625" Velocity="0" />
      <note Length="0.0104166666666667" Pitch="57" RiffPosition="0.0729166666666667" Velocity="0" />
      <note Length="0.0104166666666667" Pitch="55" RiffPosition="0.0833333333333333" Velocity="0" />
      <note Length="0.0104166666666667" Pitch="55" RiffPosition="0.09375" Velocity="0" />
      <note Length="0.0104166666666667" Pitch="43" RiffPosition="0.104166666666667" Velocity="0" />
      <note Length="0.0104166666666667" Pitch="55" RiffPosition="0.114583333333333" Velocity="0" />
      <note Length="0.0104166666666667" Pitch="43" RiffPosition="0.125" Velocity="0" />
      <note Length="0.0104166666666667" Pitch="43" RiffPosition="0.135416666666667" Velocity="0" />
      <note Length="0.0104166666666667" Pitch="43" RiffPosition="0.145833333333333" Velocity="0" />
      <note Length="0.0104166666666667" Pitch="43" RiffPosition="0.15625" Velocity="0" />
      <note Length="0.0104166666666667" Pitch="43" RiffPosition="0.166666666666667" Velocity="0" />
      <note Length="0.0104166666666667" Pitch="43" RiffPosition="0.177083333333333" Velocity="0" />
      <note Length="0.0104166666666667" Pitch="43" RiffPosition="0.1875" Velocity="0" />
      <note Length="0.0104166666666667" Pitch="43" RiffPosition="0.197916666666667" Velocity="0" />
      <note Length="0.0104166666666667" Pitch="50" RiffPosition="0.208333333333333" Velocity="0" />
      <note Length="0.0104166666666667" Pitch="50" RiffPosition="0.21875" Velocity="0" />
      <note Length="0.0104166666666667" Pitch="48" RiffPosition="0.229166666666667" Velocity="0" />
      <note Length="0.0104166666666667" Pitch="45" RiffPosition="0.239583333333333" Velocity="0" />
      <note Length="0.0104166666666667" Pitch="45" RiffPosition="0.25" Velocity="0" />
      <note Length="0.0104166666666667" Pitch="45" RiffPosition="0.260416666666667" Velocity="0" />
      <note Length="0.0104166666666667" Pitch="48" RiffPosition="0.270833333333333" Velocity="0" />
      <note Length="0.0104166666666667" Pitch="50" RiffPosition="0.28125" Velocity="0" />
      <note Length="0.0104166666666667" Pitch="51" RiffPosition="0.291666666666667" Velocity="0" />
      <note Length="0.0104166666666667" Pitch="43" RiffPosition="0.302083333333333" Velocity="0" />
      <note Length="0.0104166666666667" Pitch="43" RiffPosition="0.3125" Velocity="0" />
      <note Length="0.0104166666666667" Pitch="43" RiffPosition="0.322916666666667" Velocity="0" />
      <note Length="0.0104166666666667" Pitch="43" RiffPosition="0.333333333333333" Velocity="0" />
      <note Length="0.0104166666666667" Pitch="43" RiffPosition="0.34375" Velocity="0" />
      <note Length="0.0104166666666667" Pitch="58" RiffPosition="0.354166666666667" Velocity="0" />
      <note Length="0.0104166666666667" Pitch="58" RiffPosition="0.364583333333333" Velocity="0" />
      <note Length="0.0104166666666667" Pitch="57" RiffPosition="0.375" Velocity="0" />
      <note Length="0.0104166666666667" Pitch="57" RiffPosition="0.385416666666667" Velocity="0" />
      <note Length="0.0104166666666667" Pitch="57" RiffPosition="0.395833333333333" Velocity="0" />
      <note Length="0.0104166666666667" Pitch="60" RiffPosition="0.40625" Velocity="0" />
      <note Length="0.0104166666666667" Pitch="60" RiffPosition="0.416666666666667" Velocity="0" />
      <note Length="0.0104166666666667" Pitch="55" RiffPosition="0.427083333333334" Velocity="0" />
      <note Length="0.0104166666666667" Pitch="55" RiffPosition="0.4375" Velocity="0" />
      <note Length="0.0104166666666667" Pitch="62" RiffPosition="0.447916666666667" Velocity="0" />
      <note Length="0.0104166666666667" Pitch="60" RiffPosition="0.458333333333334" Velocity="0" />
      <note Length="0.0104166666666667" Pitch="58" RiffPosition="0.46875" Velocity="0" />
      <note Length="0.0104166666666667" Pitch="58" RiffPosition="0.479166666666667" Velocity="0" />
      <note Length="0.0104166666666667" Pitch="55" RiffPosition="0.489583333333334" Velocity="0" />
      <note Length="0.0104166666666667" Pitch="55" RiffPosition="0.5" Velocity="0" />
      <note Length="0.0104166666666667" Pitch="60" RiffPosition="0.510416666666667" Velocity="0" />
      <note Length="0.0104166666666667" Pitch="58" RiffPosition="0.520833333333334" Velocity="0" />
      <note Length="0.0104166666666667" Pitch="58" RiffPosition="0.53125" Velocity="0" />
      <note Length="0.0104166666666667" Pitch="58" RiffPosition="0.541666666666667" Velocity="0" />
      <note Length="0.0104166666666667" Pitch="60" RiffPosition="0.552083333333333" Velocity="0" />
      <note Length="0.0104166666666667" Pitch="60" RiffPosition="0.5625" Velocity="0" />
      <note Length="0.0104166666666667" Pitch="58" RiffPosition="0.572916666666667" Velocity="0" />
      <note Length="0.0104166666666667" Pitch="60" RiffPosition="0.583333333333333" Velocity="0" />
      <note Length="0.0104166666666667" Pitch="60" RiffPosition="0.59375" Velocity="0" />
      <note Length="0.0104166666666667" Pitch="58" RiffPosition="0.604166666666667" Velocity="0" />
      <note Length="0.0104166666666667" Pitch="57" RiffPosition="0.614583333333333" Velocity="0" />
      <note Length="0.0104166666666667" Pitch="55" RiffPosition="0.625" Velocity="0" />
      <note Length="0.0104166666666667" Pitch="55" RiffPosition="0.635416666666667" Velocity="0" />
      <note Length="0.0104166666666667" Pitch="43" RiffPosition="0.645833333333333" Velocity="0" />
      <note Length="0.0104166666666667" Pitch="43" RiffPosition="0.65625" Velocity="0" />
      <note Length="0.0104166666666667" Pitch="57" RiffPosition="0.666666666666666" Velocity="0" />
      <note Length="0.0104166666666667" Pitch="55" RiffPosition="0.677083333333333" Velocity="0" />
      <note Length="0.0104166666666667" Pitch="57" RiffPosition="0.6875" Velocity="0" />
      <note Length="0.0104166666666667" Pitch="55" RiffPosition="0.697916666666666" Velocity="0" />
      <note Length="0.0104166666666667" Pitch="43" RiffPosition="0.708333333333333" Velocity="0" />
      <note Length="0.0104166666666667" Pitch="51" RiffPosition="0.71875" Velocity="0" />
      <note Length="0.0104166666666667" Pitch="50" RiffPosition="0.729166666666666" Velocity="0" />
      <note Length="0.0104166666666667" Pitch="50" RiffPosition="0.739583333333333" Velocity="0" />
      <note Length="0.0104166666666667" Pitch="51" RiffPosition="0.749999999999999" Velocity="0" />
      <note Length="0.0104166666666667" Pitch="51" RiffPosition="0.760416666666666" Velocity="0" />
      <note Length="0.0104166666666667" Pitch="51" RiffPosition="0.770833333333333" Velocity="0" />
      <note Length="0.0104166666666667" Pitch="51" RiffPosition="0.781249999999999" Velocity="0" />
      <note Length="0.0104166666666667" Pitch="43" RiffPosition="0.791666666666666" Velocity="0" />
      <note Length="0.0104166666666667" Pitch="43" RiffPosition="0.802083333333333" Velocity="0" />
      <note Length="0.0104166666666667" Pitch="43" RiffPosition="0.812499999999999" Velocity="0" />
      <note Length="0.0104166666666667" Pitch="55" RiffPosition="0.822916666666666" Velocity="0" />
      <note Length="0.0104166666666667" Pitch="55" RiffPosition="0.833333333333332" Velocity="0" />
      <note Length="0.0104166666666667" Pitch="43" RiffPosition="0.843749999999999" Velocity="0" />
      <note Length="0.0104166666666667" Pitch="43" RiffPosition="0.854166666666666" Velocity="0" />
      <note Length="0.0104166666666667" Pitch="51" RiffPosition="0.864583333333332" Velocity="0" />
      <note Length="0.0104166666666667" Pitch="51" RiffPosition="0.874999999999999" Velocity="0" />
      <note Length="0.0104166666666667" Pitch="51" RiffPosition="0.885416666666666" Velocity="0" />
      <note Length="0.0104166666666667" Pitch="51" RiffPosition="0.895833333333332" Velocity="0" />
      <note Length="0.0104166666666667" Pitch="43" RiffPosition="0.906249999999999" Velocity="0" />
      <note Length="0.0104166666666667" Pitch="43" RiffPosition="0.916666666666666" Velocity="0" />
      <note Length="0.0104166666666667" Pitch="43" RiffPosition="0.927083333333332" Velocity="0" />
      <note Length="0.0104166666666667" Pitch="43" RiffPosition="0.937499999999999" Velocity="0" />
      <note Length="0.0104166666666667" Pitch="51" RiffPosition="0.947916666666665" Velocity="0" />
      <note Length="0.0104166666666667" Pitch="50" RiffPosition="0.958333333333332" Velocity="0" />
      <note Length="0.0104166666666667" Pitch="48" RiffPosition="0.968749999999999" Velocity="0" />
      <note Length="0.0104166666666667" Pitch="48" RiffPosition="0.979166666666665" Velocity="0" />
      <note Length="0.0104166666666667" Pitch="50" RiffPosition="0.989583333333332" Velocity="0" />
      <note Length="0.0104166666666667" Pitch="50" RiffPosition="0.999999999999999" Velocity="0" />
      <note Length="0.0104166666666667" Pitch="50" RiffPosition="1.01041666666667" Velocity="0" />
      <note Length="0.0104166666666667" Pitch="43" RiffPosition="1.02083333333333" Velocity="0" />
      <note Length="0.0104166666666667" Pitch="43" RiffPosition="1.03125" Velocity="0" />
      <note Length="0.0104166666666667" Pitch="43" RiffPosition="1.04166666666667" Velocity="0" />
      <note Length="0.0104166666666667" Pitch="55" RiffPosition="1.05208333333333" Velocity="0" />
      <note Length="0.0104166666666667" Pitch="60" RiffPosition="1.0625" Velocity="0" />
      <note Length="0.0104166666666667" Pitch="55" RiffPosition="1.07291666666667" Velocity="0" />
      <note Length="0.0104166666666667" Pitch="55" RiffPosition="1.08333333333333" Velocity="0" />
      <note Length="0.0104166666666667" Pitch="55" RiffPosition="1.09375" Velocity="0" />
      <note Length="0.0104166666666667" Pitch="62" RiffPosition="1.10416666666667" Velocity="0" />
      <note Length="0.0104166666666667" Pitch="62" RiffPosition="1.11458333333333" Velocity="0" />
      <note Length="0.0104166666666667" Pitch="60" RiffPosition="1.125" Velocity="0" />
      <note Length="0.0104166666666667" Pitch="60" RiffPosition="1.13541666666667" Velocity="0" />
      <note Length="0.0104166666666667" Pitch="55" RiffPosition="1.14583333333333" Velocity="0" />
      <note Length="0.0104166666666667" Pitch="55" RiffPosition="1.15625" Velocity="0" />
      <note Length="0.0104166666666667" Pitch="55" RiffPosition="1.16666666666667" Velocity="0" />
      <note Length="0.0104166666666667" Pitch="55" RiffPosition="1.17708333333333" Velocity="0" />
      <note Length="0.0104166666666667" Pitch="62" RiffPosition="1.1875" Velocity="0" />
      <note Length="0.0104166666666667" Pitch="60" RiffPosition="1.19791666666667" Velocity="0" />
      <note Length="0.0104166666666667" Pitch="58" RiffPosition="1.20833333333333" Velocity="0" />
      <note Length="0.0104166666666667" Pitch="55" RiffPosition="1.21875" Velocity="0" />
      <note Length="0.0104166666666667" Pitch="57" RiffPosition="1.22916666666667" Velocity="0" />
      <note Length="0.0104166666666667" Pitch="43" RiffPosition="1.23958333333333" Velocity="0" />
      <note Length="0.0104166666666667" Pitch="43" RiffPosition="1.25" Velocity="0" />
      <note Length="0.0104166666666667" Pitch="43" RiffPosition="1.26041666666667" Velocity="0" />
      <note Length="0.0104166666666667" Pitch="43" RiffPosition="1.27083333333333" Velocity="0" />
      <note Length="0.0104166666666667" Pitch="43" RiffPosition="1.28125" Velocity="0" />
      <note Length="0.0104166666666667" Pitch="43" RiffPosition="1.29166666666667" Velocity="0" />
      <note Length="0.0104166666666667" Pitch="57" RiffPosition="1.30208333333333" Velocity="0" />
      <note Length="0.0104166666666667" Pitch="57" RiffPosition="1.3125" Velocity="0" />
      <note Length="0.0104166666666667" Pitch="57" RiffPosition="1.32291666666667" Velocity="0" />
      <note Length="0.0104166666666667" Pitch="55" RiffPosition="1.33333333333333" Velocity="0" />
      <note Length="0.0104166666666667" Pitch="55" RiffPosition="1.34375" Velocity="0" />
      <note Length="0.0104166666666667" Pitch="55" RiffPosition="1.35416666666667" Velocity="0" />
      <note Length="0.0104166666666667" Pitch="43" RiffPosition="1.36458333333333" Velocity="0" />
      <note Length="0.0104166666666667" Pitch="43" RiffPosition="1.375" Velocity="0" />
      <note Length="0.0104166666666667" Pitch="55" RiffPosition="1.38541666666667" Velocity="0" />
      <note Length="0.0104166666666667" Pitch="55" RiffPosition="1.39583333333333" Velocity="0" />
      <note Length="0.0104166666666667" Pitch="57" RiffPosition="1.40625" Velocity="0" />
      <note Length="0.0104166666666667" Pitch="55" RiffPosition="1.41666666666667" Velocity="0" />
      <note Length="0.0104166666666667" Pitch="55" RiffPosition="1.42708333333333" Velocity="0" />
      <note Length="0.0104166666666667" Pitch="43" RiffPosition="1.4375" Velocity="0" />
      <note Length="0.0104166666666667" Pitch="43" RiffPosition="1.44791666666667" Velocity="0" />
      <note Length="0.0104166666666667" Pitch="51" RiffPosition="1.45833333333334" Velocity="0" />
      <note Length="0.0104166666666667" Pitch="43" RiffPosition="1.46875" Velocity="0" />
      <note Length="0.0104166666666667" Pitch="50" RiffPosition="1.47916666666667" Velocity="0" />
      <note Length="0.0104166666666667" Pitch="48" RiffPosition="1.48958333333334" Velocity="0" />
      <note Length="0.0104166666666667" Pitch="46" RiffPosition="1.5" Velocity="0" />
      <note Length="0.0104166666666667" Pitch="46" RiffPosition="1.51041666666667" Velocity="0" />
      <note Length="0.0104166666666667" Pitch="45" RiffPosition="1.52083333333334" Velocity="0" />
      <note Length="0.0104166666666667" Pitch="46" RiffPosition="1.53125" Velocity="0" />
      <note Length="0.0104166666666667" Pitch="51" RiffPosition="1.54166666666667" Velocity="0" />
      <note Length="0.0104166666666667" Pitch="43" RiffPosition="1.55208333333334" Velocity="0" />
      <note Length="0.0104166666666667" Pitch="43" RiffPosition="1.5625" Velocity="0" />
      <note Length="0.0104166666666667" Pitch="43" RiffPosition="1.57291666666667" Velocity="0" />
      <note Length="0.0104166666666667" Pitch="43" RiffPosition="1.58333333333334" Velocity="0" />
      <note Length="0.0104166666666667" Pitch="43" RiffPosition="1.59375" Velocity="0" />
      <note Length="0.0104166666666667" Pitch="43" RiffPosition="1.60416666666667" Velocity="0" />
      <note Length="0.0104166666666667" Pitch="51" RiffPosition="1.61458333333334" Velocity="0" />
      <note Length="0.0104166666666667" Pitch="43" RiffPosition="1.625" Velocity="0" />
      <note Length="0.0104166666666667" Pitch="43" RiffPosition="1.63541666666667" Velocity="0" />
      <note Length="0.0104166666666667" Pitch="43" RiffPosition="1.64583333333334" Velocity="0" />
      <note Length="0.0104166666666667" Pitch="43" RiffPosition="1.65625" Velocity="0" />
      <note Length="0.0104166666666667" Pitch="43" RiffPosition="1.66666666666667" Velocity="0" />
      <note Length="0.0104166666666667" Pitch="43" RiffPosition="1.67708333333334" Velocity="0" />
      <note Length="0.0104166666666667" Pitch="55" RiffPosition="1.6875" Velocity="0" />
      <note Length="0.0104166666666667" Pitch="58" RiffPosition="1.69791666666667" Velocity="0" />
      <note Length="0.0104166666666667" Pitch="55" RiffPosition="1.70833333333334" Velocity="0" />
      <note Length="0.0104166666666667" Pitch="55" RiffPosition="1.71875" Velocity="0" />
      <note Length="0.0104166666666667" Pitch="43" RiffPosition="1.72916666666667" Velocity="0" />
      <note Length="0.0104166666666667" Pitch="43" RiffPosition="1.73958333333334" Velocity="0" />
      <note Length="0.0104166666666667" Pitch="43" RiffPosition="1.75" Velocity="0" />
      <note Length="0.0104166666666667" Pitch="43" RiffPosition="1.76041666666667" Velocity="0" />
      <note Length="0.0104166666666667" Pitch="55" RiffPosition="1.77083333333334" Velocity="0" />
      <note Length="0.0104166666666667" Pitch="60" RiffPosition="1.78125" Velocity="0" />
      <note Length="0.0104166666666667" Pitch="60" RiffPosition="1.79166666666667" Velocity="0" />
      <note Length="0.0104166666666667" Pitch="55" RiffPosition="1.80208333333334" Velocity="0" />
      <note Length="0.0104166666666667" Pitch="55" RiffPosition="1.8125" Velocity="0" />
      <note Length="0.0104166666666667" Pitch="55" RiffPosition="1.82291666666667" Velocity="0" />
      <note Length="0.0104166666666667" Pitch="55" RiffPosition="1.83333333333334" Velocity="0" />
      <note Length="0.0104166666666667" Pitch="55" RiffPosition="1.84375" Velocity="0" />
      <note Length="0.0104166666666667" Pitch="60" RiffPosition="1.85416666666667" Velocity="0" />
      <note Length="0.0104166666666667" Pitch="55" RiffPosition="1.86458333333334" Velocity="0" />
      <note Length="0.0104166666666667" Pitch="62" RiffPosition="1.875" Velocity="0" />
      <note Length="0.0104166666666667" Pitch="60" RiffPosition="1.88541666666667" Velocity="0" />
      <note Length="0.0104166666666667" Pitch="60" RiffPosition="1.89583333333334" Velocity="0" />
      <note Length="0.0104166666666667" Pitch="58" RiffPosition="1.90625" Velocity="0" />
      <note Length="0.0104166666666667" Pitch="57" RiffPosition="1.91666666666667" Velocity="0" />
      <note Length="0.0104166666666667" Pitch="55" RiffPosition="1.92708333333334" Velocity="0" />
      <note Length="0.0104166666666667" Pitch="58" RiffPosition="1.93750000000001" Velocity="0" />
      <note Length="0.0104166666666667" Pitch="57" RiffPosition="1.94791666666667" Velocity="0" />
      <note Length="0.0104166666666667" Pitch="55" RiffPosition="1.95833333333334" Velocity="0" />
      <note Length="0.0104166666666667" Pitch="43" RiffPosition="1.96875000000001" Velocity="0" />
      <note Length="0.0104166666666667" Pitch="51" RiffPosition="1.97916666666667" Velocity="0" />
      <note Length="0.0104166666666667" Pitch="50" RiffPosition="1.98958333333334" Velocity="0" />
      <note Length="0.0104166666666667" Pitch="48" RiffPosition="2.00000000000001" Velocity="0" />
      <note Length="0.0104166666666667" Pitch="48" RiffPosition="2.01041666666667" Velocity="0" />
      <note Length="0.0104166666666667" Pitch="43" RiffPosition="2.02083333333334" Velocity="0" />
      <note Length="0.0104166666666667" Pitch="43" RiffPosition="2.03125" Velocity="0" />
      <note Length="0.0104166666666667" Pitch="43" RiffPosition="2.04166666666667" Velocity="0" />
      <note Length="0.0104166666666667" Pitch="43" RiffPosition="2.05208333333334" Velocity="0" />
      <note Length="0.0104166666666667" Pitch="43" RiffPosition="2.0625" Velocity="0" />
      <note Length="0.0104166666666667" Pitch="55" RiffPosition="2.07291666666667" Velocity="0" />
      <note Length="0.0104166666666667" Pitch="55" RiffPosition="2.08333333333334" Velocity="0" />
      <note Length="0.0104166666666667" Pitch="43" RiffPosition="2.09375" Velocity="0" />
      <note Length="0.0104166666666667" Pitch="57" RiffPosition="2.10416666666667" Velocity="0" />
      <note Length="0.0104166666666667" Pitch="55" RiffPosition="2.11458333333334" Velocity="0" />
      <note Length="0.0104166666666667" Pitch="43" RiffPosition="2.125" Velocity="0" />
      <note Length="0.0104166666666667" Pitch="43" RiffPosition="2.13541666666667" Velocity="0" />
      <note Length="0.0104166666666667" Pitch="43" RiffPosition="2.14583333333334" Velocity="0" />
      <note Length="0.0104166666666667" Pitch="43" RiffPosition="2.15625" Velocity="0" />
      <note Length="0.0104166666666667" Pitch="43" RiffPosition="2.16666666666667" Velocity="0" />
      <note Length="0.0104166666666667" Pitch="43" RiffPosition="2.17708333333334" Velocity="0" />
      <note Length="0.0104166666666667" Pitch="43" RiffPosition="2.1875" Velocity="0" />
      <note Length="0.0104166666666667" Pitch="51" RiffPosition="2.19791666666667" Velocity="0" />
      <note Length="0.0104166666666667" Pitch="50" RiffPosition="2.20833333333334" Velocity="0" />
      <note Length="0.0104166666666667" Pitch="48" RiffPosition="2.21875" Velocity="0" />
      <note Length="0.0104166666666667" Pitch="48" RiffPosition="2.22916666666667" Velocity="0" />
      <note Length="0.0104166666666667" Pitch="45" RiffPosition="2.23958333333334" Velocity="0" />
      <note Length="0.0104166666666667" Pitch="31" RiffPosition="2.25" Velocity="0" />
      <note Length="0.0104166666666667" Pitch="48" RiffPosition="2.26041666666667" Velocity="0" />
      <note Length="0.0104166666666667" Pitch="48" RiffPosition="2.27083333333333" Velocity="0" />
      <note Length="0.0104166666666667" Pitch="50" RiffPosition="2.28125" Velocity="0" />
      <note Length="0.0104166666666667" Pitch="51" RiffPosition="2.29166666666667" Velocity="0" />
      <note Length="0.0104166666666667" Pitch="43" RiffPosition="2.30208333333333" Velocity="0" />
      <note Length="0.0104166666666667" Pitch="43" RiffPosition="2.3125" Velocity="0" />
      <note Length="0.0104166666666667" Pitch="43" RiffPosition="2.32291666666667" Velocity="0" />
      <note Length="0.0104166666666667" Pitch="43" RiffPosition="2.33333333333333" Velocity="0" />
      <note Length="0.0104166666666667" Pitch="55" RiffPosition="2.34375" Velocity="0" />
      <note Length="0.0104166666666667" Pitch="58" RiffPosition="2.35416666666667" Velocity="0" />
      <note Length="0.0104166666666667" Pitch="57" RiffPosition="2.36458333333333" Velocity="0" />
      <note Length="0.0104166666666667" Pitch="57" RiffPosition="2.375" Velocity="0" />
      <note Length="0.0104166666666667" Pitch="57" RiffPosition="2.38541666666667" Velocity="0" />
      <note Length="0.0104166666666667" Pitch="57" RiffPosition="2.39583333333333" Velocity="0" />
      <note Length="0.0104166666666667" Pitch="58" RiffPosition="2.40625" Velocity="0" />
      <note Length="0.0104166666666667" Pitch="55" RiffPosition="2.41666666666667" Velocity="0" />
      <note Length="0.0104166666666667" Pitch="55" RiffPosition="2.42708333333333" Velocity="0" />
      <note Length="0.0104166666666667" Pitch="62" RiffPosition="2.4375" Velocity="0" />
      <note Length="0.0104166666666667" Pitch="60" RiffPosition="2.44791666666667" Velocity="0" />
      <note Length="0.0104166666666667" Pitch="60" RiffPosition="2.45833333333333" Velocity="0" />
      <note Length="0.0104166666666667" Pitch="58" RiffPosition="2.46875" Velocity="0" />
      <note Length="0.0104166666666667" Pitch="57" RiffPosition="2.47916666666667" Velocity="0" />
      <note Length="0.0104166666666667" Pitch="55" RiffPosition="2.48958333333333" Velocity="0" />
      <note Length="0.0104166666666667" Pitch="58" RiffPosition="2.5" Velocity="0" />
      <note Length="0.0104166666666667" Pitch="58" RiffPosition="2.51041666666666" Velocity="0" />
      <note Length="0.0104166666666667" Pitch="57" RiffPosition="2.52083333333333" Velocity="0" />
      <note Length="0.0104166666666667" Pitch="58" RiffPosition="2.53125" Velocity="0" />
      <note Length="0.0104166666666667" Pitch="58" RiffPosition="2.54166666666666" Velocity="0" />
      <note Length="0.0104166666666667" Pitch="58" RiffPosition="2.55208333333333" Velocity="0" />
      <note Length="0.0104166666666667" Pitch="60" RiffPosition="2.5625" Velocity="0" />
      <note Length="0.0104166666666667" Pitch="60" RiffPosition="2.57291666666666" Velocity="0" />
      <note Length="0.0104166666666667" Pitch="60" RiffPosition="2.58333333333333" Velocity="0" />
      <note Length="0.0104166666666667" Pitch="58" RiffPosition="2.59375" Velocity="0" />
      <note Length="0.0104166666666667" Pitch="58" RiffPosition="2.60416666666666" Velocity="0" />
      <note Length="0.0104166666666667" Pitch="57" RiffPosition="2.61458333333333" Velocity="0" />
      <note Length="0.0104166666666667" Pitch="55" RiffPosition="2.625" Velocity="0" />
      <note Length="0.0104166666666667" Pitch="43" RiffPosition="2.63541666666666" Velocity="0" />
      <note Length="0.0104166666666667" Pitch="43" RiffPosition="2.64583333333333" Velocity="0" />
      <note Length="0.0104166666666667" Pitch="57" RiffPosition="2.65625" Velocity="0" />
      <note Length="0.0104166666666667" Pitch="55" RiffPosition="2.66666666666666" Velocity="0" />
      <note Length="0.0104166666666667" Pitch="55" RiffPosition="2.67708333333333" Velocity="0" />
      <note Length="0.0104166666666667" Pitch="55" RiffPosition="2.6875" Velocity="0" />
      <note Length="0.0104166666666667" Pitch="43" RiffPosition="2.69791666666666" Velocity="0" />
      <note Length="0.0104166666666667" Pitch="43" RiffPosition="2.70833333333333" Velocity="0" />
      <note Length="0.0104166666666667" Pitch="51" RiffPosition="2.71875" Velocity="0" />
      <note Length="0.0104166666666667" Pitch="48" RiffPosition="2.72916666666666" Velocity="0" />
      <note Length="0.0104166666666667" Pitch="43" RiffPosition="2.73958333333333" Velocity="0" />
      <note Length="0.0104166666666667" Pitch="51" RiffPosition="2.74999999999999" Velocity="0" />
      <note Length="0.0104166666666667" Pitch="50" RiffPosition="2.76041666666666" Velocity="0" />
      <note Length="0.0104166666666667" Pitch="50" RiffPosition="2.77083333333333" Velocity="0" />
      <note Length="0.0104166666666667" Pitch="51" RiffPosition="2.78124999999999" Velocity="0" />
      <note Length="0.0104166666666667" Pitch="51" RiffPosition="2.79166666666666" Velocity="0" />
      <note Length="0.0104166666666667" Pitch="43" RiffPosition="2.80208333333333" Velocity="0" />
      <note Length="0.0104166666666667" Pitch="55" RiffPosition="2.81249999999999" Velocity="0" />
      <note Length="0.0104166666666667" Pitch="55" RiffPosition="2.82291666666666" Velocity="0" />
      <note Length="0.0104166666666667" Pitch="43" RiffPosition="2.83333333333333" Velocity="0" />
      <note Length="0.0104166666666667" Pitch="43" RiffPosition="2.84374999999999" Velocity="0" />
      <note Length="0.0104166666666667" Pitch="51" RiffPosition="2.85416666666666" Velocity="0" />
      <note Length="0.0104166666666667" Pitch="51" RiffPosition="2.86458333333333" Velocity="0" />
      <note Length="0.0104166666666667" Pitch="50" RiffPosition="2.87499999999999" Velocity="0" />
      <note Length="0.0104166666666667" Pitch="50" RiffPosition="2.88541666666666" Velocity="0" />
      <note Length="0.0104166666666667" Pitch="43" RiffPosition="2.89583333333333" Velocity="0" />
      <note Length="0.0104166666666667" Pitch="43" RiffPosition="2.90624999999999" Velocity="0" />
      <note Length="0.0104166666666667" Pitch="43" RiffPosition="2.91666666666666" Velocity="0" />
      <note Length="0.0104166666666667" Pitch="43" RiffPosition="2.92708333333333" Velocity="0" />
      <note Length="0.0104166666666667" Pitch="43" RiffPosition="2.93749999999999" Velocity="0" />
      <note Length="0.0104166666666667" Pitch="51" RiffPosition="2.94791666666666" Velocity="0" />
      <note Length="0.0104166666666667" Pitch="50" RiffPosition="2.95833333333333" Velocity="0" />
      <note Length="0.0104166666666667" Pitch="48" RiffPosition="2.96874999999999" Velocity="0" />
      <note Length="0.0104166666666667" Pitch="50" RiffPosition="2.97916666666666" Velocity="0" />
      <note Length="0.0104166666666667" Pitch="50" RiffPosition="2.98958333333332" Velocity="0" />
      <note Length="0.0104166666666667" Pitch="48" RiffPosition="2.99999999999999" Velocity="0" />
      <note Length="0.0104166666666667" Pitch="50" RiffPosition="3.01041666666666" Velocity="0" />
      <note Length="0.0104166666666667" Pitch="51" RiffPosition="3.02083333333332" Velocity="0" />
      <note Length="0.0104166666666667" Pitch="43" RiffPosition="3.03124999999999" Velocity="0" />
      <note Length="0.0104166666666667" Pitch="43" RiffPosition="3.04166666666666" Velocity="0" />
      <note Length="0.0104166666666667" Pitch="58" RiffPosition="3.05208333333332" Velocity="0" />
      <note Length="0.0104166666666667" Pitch="60" RiffPosition="3.06249999999999" Velocity="0" />
      <note Length="0.0104166666666667" Pitch="62" RiffPosition="3.07291666666666" Velocity="0" />
      <note Length="0.0104166666666667" Pitch="55" RiffPosition="3.08333333333332" Velocity="0" />
      <note Length="0.0104166666666667" Pitch="62" RiffPosition="3.09374999999999" Velocity="0" />
      <note Length="0.0104166666666667" Pitch="62" RiffPosition="3.10416666666666" Velocity="0" />
      <note Length="0.0104166666666667" Pitch="60" RiffPosition="3.11458333333332" Velocity="0" />
      <note Length="0.0104166666666667" Pitch="60" RiffPosition="3.12499999999999" Velocity="0" />
      <note Length="0.0104166666666667" Pitch="55" RiffPosition="3.13541666666666" Velocity="0" />
      <note Length="0.0104166666666667" Pitch="55" RiffPosition="3.14583333333332" Velocity="0" />
      <note Length="0.0104166666666667" Pitch="55" RiffPosition="3.15624999999999" Velocity="0" />
      <note Length="0.0104166666666667" Pitch="55" RiffPosition="3.16666666666666" Velocity="0" />
      <note Length="0.0104166666666667" Pitch="55" RiffPosition="3.17708333333332" Velocity="0" />
      <note Length="0.0104166666666667" Pitch="62" RiffPosition="3.18749999999999" Velocity="0" />
      <note Length="0.0104166666666667" Pitch="60" RiffPosition="3.19791666666666" Velocity="0" />
      <note Length="0.0104166666666667" Pitch="58" RiffPosition="3.20833333333332" Velocity="0" />
      <note Length="0.0104166666666667" Pitch="58" RiffPosition="3.21874999999999" Velocity="0" />
      <note Length="0.0104166666666667" Pitch="57" RiffPosition="3.22916666666665" Velocity="0" />
      <note Length="0.0104166666666667" Pitch="43" RiffPosition="3.23958333333332" Velocity="0" />
      <note Length="0.0104166666666667" Pitch="43" RiffPosition="3.24999999999999" Velocity="0" />
      <note Length="0.0104166666666667" Pitch="43" RiffPosition="3.26041666666665" Velocity="0" />
      <note Length="0.0104166666666667" Pitch="43" RiffPosition="3.27083333333332" Velocity="0" />
      <note Length="0.0104166666666667" Pitch="43" RiffPosition="3.28124999999999" Velocity="0" />
      <note Length="0.0104166666666667" Pitch="55" RiffPosition="3.29166666666665" Velocity="0" />
      <note Length="0.0104166666666667" Pitch="55" RiffPosition="3.30208333333332" Velocity="0" />
      <note Length="0.0104166666666667" Pitch="57" RiffPosition="3.31249999999999" Velocity="0" />
      <note Length="0.0104166666666667" Pitch="55" RiffPosition="3.32291666666665" Velocity="0" />
      <note Length="0.0104166666666667" Pitch="55" RiffPosition="3.33333333333332" Velocity="0" />
      <note Length="0.0104166666666667" Pitch="55" RiffPosition="3.34374999999999" Velocity="0" />
      <note Length="0.0104166666666667" Pitch="55" RiffPosition="3.35416666666665" Velocity="0" />
      <note Length="0.0104166666666667" Pitch="43" RiffPosition="3.36458333333332" Velocity="0" />
      <note Length="0.0104166666666667" Pitch="55" RiffPosition="3.37499999999999" Velocity="0" />
      <note Length="0.0104166666666667" Pitch="55" RiffPosition="3.38541666666665" Velocity="0" />
      <note Length="0.0104166666666667" Pitch="55" RiffPosition="3.39583333333332" Velocity="0" />
      <note Length="0.0104166666666667" Pitch="55" RiffPosition="3.40624999999999" Velocity="0" />
      <note Length="0.0104166666666667" Pitch="55" RiffPosition="3.41666666666665" Velocity="0" />
      <note Length="0.0104166666666667" Pitch="55" RiffPosition="3.42708333333332" Velocity="0" />
      <note Length="0.0104166666666667" Pitch="43" RiffPosition="3.43749999999998" Velocity="0" />
      <note Length="0.0104166666666667" Pitch="43" RiffPosition="3.44791666666665" Velocity="0" />
      <note Length="0.0104166666666667" Pitch="43" RiffPosition="3.45833333333332" Velocity="0" />
      <note Length="0.0104166666666667" Pitch="43" RiffPosition="3.46874999999998" Velocity="0" />
      <note Length="0.0104166666666667" Pitch="50" RiffPosition="3.47916666666665" Velocity="0" />
      <note Length="0.0104166666666667" Pitch="48" RiffPosition="3.48958333333332" Velocity="0" />
      <note Length="0.0104166666666667" Pitch="46" RiffPosition="3.49999999999998" Velocity="0" />
      <note Length="0.0104166666666667" Pitch="45" RiffPosition="3.51041666666665" Velocity="0" />
      <note Length="0.0104166666666667" Pitch="45" RiffPosition="3.52083333333332" Velocity="0" />
      <note Length="0.0104166666666667" Pitch="50" RiffPosition="3.53124999999998" Velocity="0" />
      <note Length="0.0104166666666667" Pitch="50" RiffPosition="3.54166666666665" Velocity="0" />
      <note Length="0.0104166666666667" Pitch="43" RiffPosition="3.55208333333332" Velocity="0" />
      <note Length="0.0104166666666667" Pitch="43" RiffPosition="3.56249999999998" Velocity="0" />
      <note Length="0.0104166666666667" Pitch="43" RiffPosition="3.57291666666665" Velocity="0" />
      <note Length="0.0104166666666667" Pitch="43" RiffPosition="3.58333333333332" Velocity="0" />
      <note Length="0.0104166666666667" Pitch="43" RiffPosition="3.59374999999998" Velocity="0" />
      <note Length="0.0104166666666667" Pitch="51" RiffPosition="3.60416666666665" Velocity="0" />
      <note Length="0.0104166666666667" Pitch="43" RiffPosition="3.61458333333332" Velocity="0" />
      <note Length="0.0104166666666667" Pitch="43" RiffPosition="3.62499999999998" Velocity="0" />
      <note Length="0.0104166666666667" Pitch="43" RiffPosition="3.63541666666665" Velocity="0" />
      <note Length="0.0104166666666667" Pitch="43" RiffPosition="3.64583333333332" Velocity="0" />
      <note Length="0.0104166666666667" Pitch="43" RiffPosition="3.65624999999998" Velocity="0" />
      <note Length="0.0104166666666667" Pitch="43" RiffPosition="3.66666666666665" Velocity="0" />
      <note Length="0.0104166666666667" Pitch="43" RiffPosition="3.67708333333331" Velocity="0" />
      <note Length="0.0104166666666667" Pitch="58" RiffPosition="3.68749999999998" Velocity="0" />
      <note Length="0.0104166666666667" Pitch="57" RiffPosition="3.69791666666665" Velocity="0" />
      <note Length="0.0104166666666667" Pitch="55" RiffPosition="3.70833333333331" Velocity="0" />
      <note Length="0.0104166666666667" Pitch="43" RiffPosition="3.71874999999998" Velocity="0" />
      <note Length="0.0104166666666667" Pitch="43" RiffPosition="3.72916666666665" Velocity="0" />
      <note Length="0.0104166666666667" Pitch="43" RiffPosition="3.73958333333331" Velocity="0" />
      <note Length="0.0104166666666667" Pitch="43" RiffPosition="3.74999999999998" Velocity="0" />
      <note Length="0.0104166666666667" Pitch="43" RiffPosition="3.76041666666665" Velocity="0" />
      <note Length="0.0104166666666667" Pitch="58" RiffPosition="3.77083333333331" Velocity="0" />
      <note Length="0.0104166666666667" Pitch="58" RiffPosition="3.78124999999998" Velocity="0" />
      <note Length="0.0104166666666667" Pitch="60" RiffPosition="3.79166666666665" Velocity="0" />
      <note Length="0.0104166666666667" Pitch="62" RiffPosition="3.80208333333331" Velocity="0" />
      <note Length="0.0104166666666667" Pitch="55" RiffPosition="3.81249999999998" Velocity="0" />
      <note Length="0.0104166666666667" Pitch="55" RiffPosition="3.82291666666665" Velocity="0" />
      <note Length="0.0104166666666667" Pitch="55" RiffPosition="3.83333333333331" Velocity="0" />
      <note Length="0.0104166666666667" Pitch="55" RiffPosition="3.84374999999998" Velocity="0" />
      <note Length="0.0104166666666667" Pitch="55" RiffPosition="3.85416666666665" Velocity="0" />
      <note Length="0.0104166666666667" Pitch="55" RiffPosition="3.86458333333331" Velocity="0" />
      <note Length="0.0104166666666667" Pitch="62" RiffPosition="3.87499999999998" Velocity="0" />
      <note Length="0.0104166666666667" Pitch="60" RiffPosition="3.88541666666665" Velocity="0" />
      <note Length="0.0104166666666667" Pitch="60" RiffPosition="3.89583333333331" Velocity="0" />
      <note Length="0.0104166666666667" Pitch="57" RiffPosition="3.90624999999998" Velocity="0" />
      <note Length="0.0104166666666667" Pitch="57" RiffPosition="3.91666666666664" Velocity="0" />
      <note Length="0.0104166666666667" Pitch="60" RiffPosition="3.92708333333331" Velocity="0" />
      <note Length="0.0104166666666667" Pitch="58" RiffPosition="3.93749999999998" Velocity="0" />
      <note Length="0.0104166666666667" Pitch="57" RiffPosition="3.94791666666664" Velocity="0" />
      <note Length="0.0104166666666667" Pitch="43" RiffPosition="3.95833333333331" Velocity="0" />
      <note Length="0.0104166666666667" Pitch="43" RiffPosition="3.96874999999998" Velocity="0" />
      <note Length="0.0104166666666667" Pitch="51" RiffPosition="3.97916666666664" Velocity="0" />
      <note Length="0.0104166666666667" Pitch="50" RiffPosition="3.98958333333331" Velocity="0" />
      <note Length="0.0104166666666667" Pitch="48" RiffPosition="3.99999999999998" Velocity="0" />
      <note Length="0.0104166666666667" Pitch="50" RiffPosition="4.01041666666664" Velocity="0" />
      <note Length="0.0104166666666667" Pitch="43" RiffPosition="4.02083333333331" Velocity="0" />
      <note Length="0.0104166666666667" Pitch="43" RiffPosition="4.03124999999998" Velocity="0" />
      <note Length="0.0104166666666667" Pitch="43" RiffPosition="4.04166666666664" Velocity="0" />
      <note Length="0.0104166666666667" Pitch="43" RiffPosition="4.05208333333331" Velocity="0" />
      <note Length="0.0104166666666667" Pitch="43" RiffPosition="4.06249999999998" Velocity="0" />
      <note Length="0.0104166666666667" Pitch="55" RiffPosition="4.07291666666665" Velocity="0" />
      <note Length="0.0104166666666667" Pitch="55" RiffPosition="4.08333333333331" Velocity="0" />
      <note Length="0.0104166666666667" Pitch="58" RiffPosition="4.09374999999998" Velocity="0" />
      <note Length="0.0104166666666667" Pitch="55" RiffPosition="4.10416666666665" Velocity="0" />
      <note Length="0.0104166666666667" Pitch="55" RiffPosition="4.11458333333331" Velocity="0" />
      <note Length="0.0104166666666667" Pitch="43" RiffPosition="4.12499999999998" Velocity="0" />
      <note Length="0.0104166666666667" Pitch="43" RiffPosition="4.13541666666665" Velocity="0" />
      <note Length="0.0104166666666667" Pitch="43" RiffPosition="4.14583333333331" Velocity="0" />
      <note Length="0.0104166666666667" Pitch="43" RiffPosition="4.15624999999998" Velocity="0" />
      <note Length="0.0104166666666667" Pitch="43" RiffPosition="4.16666666666665" Velocity="0" />
      <note Length="0.0104166666666667" Pitch="43" RiffPosition="4.17708333333332" Velocity="0" />
      <note Length="0.0104166666666667" Pitch="43" RiffPosition="4.18749999999998" Velocity="0" />
      <note Length="0.0104166666666667" Pitch="51" RiffPosition="4.19791666666665" Velocity="0" />
      <note Length="0.0104166666666667" Pitch="50" RiffPosition="4.20833333333332" Velocity="0" />
      <note Length="0.0104166666666667" Pitch="48" RiffPosition="4.21874999999998" Velocity="0" />
      <note Length="0.0104166666666667" Pitch="46" RiffPosition="4.22916666666665" Velocity="0" />
      <note Length="0.0104166666666667" Pitch="31" RiffPosition="4.23958333333332" Velocity="0" />
      <note Length="0.0104166666666667" Pitch="46" RiffPosition="4.24999999999998" Velocity="0" />
      <note Length="0.0104166666666667" Pitch="46" RiffPosition="4.26041666666665" Velocity="0" />
      <note Length="0.0104166666666667" Pitch="48" RiffPosition="4.27083333333332" Velocity="0" />
      <note Length="0.0104166666666667" Pitch="50" RiffPosition="4.28124999999998" Velocity="0" />
      <note Length="0.0104166666666667" Pitch="50" RiffPosition="4.29166666666665" Velocity="0" />
      <note Length="0.0104166666666667" Pitch="43" RiffPosition="4.30208333333332" Velocity="0" />
      <note Length="0.0104166666666667" Pitch="43" RiffPosition="4.31249999999999" Velocity="0" />
      <note Length="0.0104166666666667" Pitch="43" RiffPosition="4.32291666666665" Velocity="0" />
      <note Length="0.0104166666666667" Pitch="55" RiffPosition="4.33333333333332" Velocity="0" />
      <note Length="0.0104166666666667" Pitch="55" RiffPosition="4.34374999999999" Velocity="0" />
      <note Length="0.0104166666666667" Pitch="57" RiffPosition="4.35416666666665" Velocity="0" />
      <note Length="0.0104166666666667" Pitch="57" RiffPosition="4.36458333333332" Velocity="0" />
      <note Length="0.0104166666666667" Pitch="55" RiffPosition="4.37499999999999" Velocity="0" />
      <note Length="0.0104166666666667" Pitch="55" RiffPosition="4.38541666666665" Velocity="0" />
      <note Length="0.0104166666666667" Pitch="55" RiffPosition="4.39583333333332" Velocity="0" />
      <note Length="0.0104166666666667" Pitch="62" RiffPosition="4.40624999999999" Velocity="0" />
      <note Length="0.0104166666666667" Pitch="55" RiffPosition="4.41666666666666" Velocity="0" />
      <note Length="0.0104166666666667" Pitch="62" RiffPosition="4.42708333333332" Velocity="0" />
      <note Length="0.0104166666666667" Pitch="62" RiffPosition="4.43749999999999" Velocity="0" />
      <note Length="0.0104166666666667" Pitch="60" RiffPosition="4.44791666666666" Velocity="0" />
      <note Length="0.0104166666666667" Pitch="60" RiffPosition="4.45833333333332" Velocity="0" />
      <note Length="0.0104166666666667" Pitch="58" RiffPosition="4.46874999999999" Velocity="0" />
      <note Length="0.0104166666666667" Pitch="57" RiffPosition="4.47916666666666" Velocity="0" />
      <note Length="0.0104166666666667" Pitch="58" RiffPosition="4.48958333333332" Velocity="0" />
      <note Length="0.0104166666666667" Pitch="58" RiffPosition="4.49999999999999" Velocity="0" />
      <note Length="0.0104166666666667" Pitch="58" RiffPosition="4.51041666666666" Velocity="0" />
      <note Length="0.0104166666666667" Pitch="57" RiffPosition="4.52083333333333" Velocity="0" />
      <note Length="0.0104166666666667" Pitch="57" RiffPosition="4.53124999999999" Velocity="0" />
      <note Length="0.0104166666666667" Pitch="58" RiffPosition="4.54166666666666" Velocity="0" />
      <note Length="0.0104166666666667" Pitch="58" RiffPosition="4.55208333333333" Velocity="0" />
      <note Length="0.0104166666666667" Pitch="55" RiffPosition="4.56249999999999" Velocity="0" />
      <note Length="0.0104166666666667" Pitch="60" RiffPosition="4.57291666666666" Velocity="0" />
      <note Length="0.0104166666666667" Pitch="60" RiffPosition="4.58333333333333" Velocity="0" />
      <note Length="0.0104166666666667" Pitch="58" RiffPosition="4.59374999999999" Velocity="0" />
      <note Length="0.0104166666666667" Pitch="58" RiffPosition="4.60416666666666" Velocity="0" />
      <note Length="0.0104166666666667" Pitch="55" RiffPosition="4.61458333333333" Velocity="0" />
      <note Length="0.0104166666666667" Pitch="55" RiffPosition="4.62499999999999" Velocity="0" />
      <note Length="0.0104166666666667" Pitch="43" RiffPosition="4.63541666666666" Velocity="0" />
      <note Length="0.0104166666666667" Pitch="57" RiffPosition="4.64583333333333" Velocity="0" />
      <note Length="0.0104166666666667" Pitch="55" RiffPosition="4.65625" Velocity="0" />
      <note Length="0.0104166666666667" Pitch="55" RiffPosition="4.66666666666666" Velocity="0" />
      <note Length="0.0104166666666667" Pitch="55" RiffPosition="4.67708333333333" Velocity="0" />
      <note Length="0.0104166666666667" Pitch="55" RiffPosition="4.6875" Velocity="0" />
      <note Length="0.0104166666666667" Pitch="43" RiffPosition="4.69791666666666" Velocity="0" />
      <note Length="0.0104166666666667" Pitch="43" RiffPosition="4.70833333333333" Velocity="0" />
      <note Length="0.0104166666666667" Pitch="50" RiffPosition="4.71875" Velocity="0" />
      <note Length="0.0104166666666667" Pitch="43" RiffPosition="4.72916666666666" Velocity="0" />
      <note Length="0.0104166666666667" Pitch="43" RiffPosition="4.73958333333333" Velocity="0" />
      <note Length="0.0104166666666667" Pitch="50" RiffPosition="4.75" Velocity="0" />
      <note Length="0.0104166666666667" Pitch="50" RiffPosition="4.76041666666667" Velocity="0" />
      <note Length="0.0104166666666667" Pitch="50" RiffPosition="4.77083333333333" Velocity="0" />
      <note Length="0.0104166666666667" Pitch="50" RiffPosition="4.78125" Velocity="0" />
      <note Length="0.0104166666666667" Pitch="51" RiffPosition="4.79166666666667" Velocity="0" />
      <note Length="0.0104166666666667" Pitch="43" RiffPosition="4.80208333333333" Velocity="0" />
      <note Length="0.0104166666666667" Pitch="55" RiffPosition="4.8125" Velocity="0" />
      <note Length="0.0104166666666667" Pitch="55" RiffPosition="4.82291666666667" Velocity="0" />
      <note Length="0.0104166666666667" Pitch="43" RiffPosition="4.83333333333333" Velocity="0" />
      <note Length="0.0104166666666667" Pitch="43" RiffPosition="4.84375" Velocity="0" />
      <note Length="0.0104166666666667" Pitch="51" RiffPosition="4.85416666666667" Velocity="0" />
      <note Length="0.0104166666666667" Pitch="50" RiffPosition="4.86458333333333" Velocity="0" />
      <note Length="0.0104166666666667" Pitch="50" RiffPosition="4.875" Velocity="0" />
      <note Length="0.0104166666666667" Pitch="43" RiffPosition="4.88541666666667" Velocity="0" />
      <note Length="0.0104166666666667" Pitch="43" RiffPosition="4.89583333333334" Velocity="0" />
      <note Length="0.0104166666666667" Pitch="43" RiffPosition="4.90625" Velocity="0" />
      <note Length="0.0104166666666667" Pitch="43" RiffPosition="4.91666666666667" Velocity="0" />
      <note Length="0.0104166666666667" Pitch="43" RiffPosition="4.92708333333334" Velocity="0" />
      <note Length="0.0104166666666667" Pitch="51" RiffPosition="4.9375" Velocity="0" />
      <note Length="0.0104166666666667" Pitch="50" RiffPosition="4.94791666666667" Velocity="0" />
      <note Length="0.0104166666666667" Pitch="50" RiffPosition="4.95833333333334" Velocity="0" />
      <note Length="0.0104166666666667" Pitch="51" RiffPosition="4.96875" Velocity="0" />
      <note Length="0.0104166666666667" Pitch="50" RiffPosition="4.97916666666667" Velocity="0" />
      <note Length="0.0104166666666667" Pitch="48" RiffPosition="4.98958333333334" Velocity="0" />
      <note Length="0.0104166666666667" Pitch="48" RiffPosition="5.00000000000001" Velocity="0" />
      <note Length="0.0104166666666667" Pitch="48" RiffPosition="5.01041666666667" Velocity="0" />
      <note Length="0.0104166666666667" Pitch="51" RiffPosition="5.02083333333334" Velocity="0" />
      <note Length="0.0104166666666667" Pitch="43" RiffPosition="5.03125000000001" Velocity="0" />
      <note Length="0.0104166666666667" Pitch="57" RiffPosition="5.04166666666667" Velocity="0" />
      <note Length="0.0104166666666667" Pitch="58" RiffPosition="5.05208333333334" Velocity="0" />
      <note Length="0.0104166666666667" Pitch="58" RiffPosition="5.06250000000001" Velocity="0" />
      <note Length="0.0104166666666667" Pitch="62" RiffPosition="5.07291666666667" Velocity="0" />
      <note Length="0.0104166666666667" Pitch="62" RiffPosition="5.08333333333334" Velocity="0" />
      <note Length="0.0104166666666667" Pitch="62" RiffPosition="5.09375000000001" Velocity="0" />
      <note Length="0.0104166666666667" Pitch="60" RiffPosition="5.10416666666668" Velocity="0" />
      <note Length="0.0104166666666667" Pitch="60" RiffPosition="5.11458333333334" Velocity="0" />
      <note Length="0.0104166666666667" Pitch="55" RiffPosition="5.12500000000001" Velocity="0" />
      <note Length="0.0104166666666667" Pitch="55" RiffPosition="5.13541666666668" Velocity="0" />
      <note Length="0.0104166666666667" Pitch="55" RiffPosition="5.14583333333334" Velocity="0" />
      <note Length="0.0104166666666667" Pitch="55" RiffPosition="5.15625000000001" Velocity="0" />
      <note Length="0.0104166666666667" Pitch="55" RiffPosition="5.16666666666668" Velocity="0" />
      <note Length="0.0104166666666667" Pitch="55" RiffPosition="5.17708333333334" Velocity="0" />
      <note Length="0.0104166666666667" Pitch="60" RiffPosition="5.18750000000001" Velocity="0" />
      <note Length="0.0104166666666667" Pitch="58" RiffPosition="5.19791666666668" Velocity="0" />
      <note Length="0.0104166666666667" Pitch="60" RiffPosition="5.20833333333334" Velocity="0" />
      <note Length="0.0104166666666667" Pitch="58" RiffPosition="5.21875000000001" Velocity="0" />
      <note Length="0.0104166666666667" Pitch="55" RiffPosition="5.22916666666668" Velocity="0" />
      <note Length="0.0104166666666667" Pitch="43" RiffPosition="5.23958333333335" Velocity="0" />
      <note Length="0.0104166666666667" Pitch="43" RiffPosition="5.25000000000001" Velocity="0" />
      <note Length="0.0104166666666667" Pitch="51" RiffPosition="5.26041666666668" Velocity="0" />
      <note Length="0.0104166666666667" Pitch="51" RiffPosition="5.27083333333335" Velocity="0" />
      <note Length="0.0104166666666667" Pitch="43" RiffPosition="5.28125000000001" Velocity="0" />
      <note Length="0.0104166666666667" Pitch="55" RiffPosition="5.29166666666668" Velocity="0" />
      <note Length="0.0104166666666667" Pitch="55" RiffPosition="5.30208333333335" Velocity="0" />
      <note Length="0.0104166666666667" Pitch="55" RiffPosition="5.31250000000001" Velocity="0" />
      <note Length="0.0104166666666667" Pitch="55" RiffPosition="5.32291666666668" Velocity="0" />
      <note Length="0.0104166666666667" Pitch="55" RiffPosition="5.33333333333335" Velocity="0" />
      <note Length="0.0104166666666667" Pitch="43" RiffPosition="5.34375000000002" Velocity="0" />
      <note Length="0.0104166666666667" Pitch="55" RiffPosition="5.35416666666668" Velocity="0" />
      <note Length="0.0104166666666667" Pitch="57" RiffPosition="5.36458333333335" Velocity="0" />
      <note Length="0.0104166666666667" Pitch="55" RiffPosition="5.37500000000002" Velocity="0" />
      <note Length="0.0104166666666667" Pitch="55" RiffPosition="5.38541666666668" Velocity="0" />
      <note Length="0.0104166666666667" Pitch="43" RiffPosition="5.39583333333335" Velocity="0" />
      <note Length="0.0104166666666667" Pitch="55" RiffPosition="5.40625000000002" Velocity="0" />
      <note Length="0.0104166666666667" Pitch="55" RiffPosition="5.41666666666668" Velocity="0" />
      <note Length="0.0104166666666667" Pitch="43" RiffPosition="5.42708333333335" Velocity="0" />
      <note Length="0.0104166666666667" Pitch="43" RiffPosition="5.43750000000002" Velocity="0" />
      <note Length="0.0104166666666667" Pitch="55" RiffPosition="5.44791666666668" Velocity="0" />
      <note Length="0.0104166666666667" Pitch="43" RiffPosition="5.45833333333335" Velocity="0" />
      <note Length="0.0104166666666667" Pitch="51" RiffPosition="5.46875000000002" Velocity="0" />
      <note Length="0.0104166666666667" Pitch="50" RiffPosition="5.47916666666669" Velocity="0" />
      <note Length="0.0104166666666667" Pitch="48" RiffPosition="5.48958333333335" Velocity="0" />
      <note Length="0.0104166666666667" Pitch="45" RiffPosition="5.50000000000002" Velocity="0" />
      <note Length="0.0104166666666667" Pitch="45" RiffPosition="5.51041666666669" Velocity="0" />
      <note Length="0.0104166666666667" Pitch="48" RiffPosition="5.52083333333335" Velocity="0" />
      <note Length="0.0104166666666667" Pitch="48" RiffPosition="5.53125000000002" Velocity="0" />
      <note Length="0.0104166666666667" Pitch="50" RiffPosition="5.54166666666669" Velocity="0" />
      <note Length="0.0104166666666667" Pitch="43" RiffPosition="5.55208333333335" Velocity="0" />
      <note Length="0.0104166666666667" Pitch="43" RiffPosition="5.56250000000002" Velocity="0" />
      <note Length="0.0104166666666667" Pitch="51" RiffPosition="5.57291666666669" Velocity="0" />
      <note Length="0.0104166666666667" Pitch="51" RiffPosition="5.58333333333336" Velocity="0" />
      <note Length="0.0104166666666667" Pitch="51" RiffPosition="5.59375000000002" Velocity="0" />
      <note Length="0.0104166666666667" Pitch="43" RiffPosition="5.60416666666669" Velocity="0" />
      <note Length="0.0104166666666667" Pitch="43" RiffPosition="5.61458333333336" Velocity="0" />
      <note Length="0.0104166666666667" Pitch="43" RiffPosition="5.62500000000002" Velocity="0" />
      <note Length="0.0104166666666667" Pitch="43" RiffPosition="5.63541666666669" Velocity="0" />
      <note Length="0.0104166666666667" Pitch="43" RiffPosition="5.64583333333336" Velocity="0" />
      <note Length="0.0104166666666667" Pitch="43" RiffPosition="5.65625000000002" Velocity="0" />
      <note Length="0.0104166666666667" Pitch="43" RiffPosition="5.66666666666669" Velocity="0" />
      <note Length="0.0104166666666667" Pitch="55" RiffPosition="5.67708333333336" Velocity="0" />
      <note Length="0.0104166666666667" Pitch="58" RiffPosition="5.68750000000002" Velocity="0" />
      <note Length="0.0104166666666667" Pitch="57" RiffPosition="5.69791666666669" Velocity="0" />
      <note Length="0.0104166666666667" Pitch="55" RiffPosition="5.70833333333336" Velocity="0" />
      <note Length="0.0104166666666667" Pitch="43" RiffPosition="5.71875000000003" Velocity="0" />
      <note Length="0.0104166666666667" Pitch="43" RiffPosition="5.72916666666669" Velocity="0" />
      <note Length="0.0104166666666667" Pitch="43" RiffPosition="5.73958333333336" Velocity="0" />
      <note Length="0.0104166666666667" Pitch="43" RiffPosition="5.75000000000003" Velocity="0" />
      <note Length="0.0104166666666667" Pitch="57" RiffPosition="5.76041666666669" Velocity="0" />
      <note Length="0.0104166666666667" Pitch="57" RiffPosition="5.77083333333336" Velocity="0" />
      <note Length="0.0104166666666667" Pitch="58" RiffPosition="5.78125000000003" Velocity="0" />
      <note Length="0.0104166666666667" Pitch="60" RiffPosition="5.79166666666669" Velocity="0" />
      <note Length="0.0104166666666667" Pitch="62" RiffPosition="5.80208333333336" Velocity="0" />
      <note Length="0.0104166666666667" Pitch="55" RiffPosition="5.81250000000003" Velocity="0" />
      <note Length="0.0104166666666667" Pitch="55" RiffPosition="5.8229166666667" Velocity="0" />
      <note Length="0.0104166666666667" Pitch="55" RiffPosition="5.83333333333336" Velocity="0" />
      <note Length="0.0104166666666667" Pitch="67" RiffPosition="5.84375000000003" Velocity="0" />
      <note Length="0.0104166666666667" Pitch="55" RiffPosition="5.8541666666667" Velocity="0" />
      <note Length="0.0104166666666667" Pitch="55" RiffPosition="5.86458333333336" Velocity="0" />
      <note Length="0.0104166666666667" Pitch="60" RiffPosition="5.87500000000003" Velocity="0" />
      <note Length="0.0104166666666667" Pitch="60" RiffPosition="5.8854166666667" Velocity="0" />
      <note Length="0.0104166666666667" Pitch="60" RiffPosition="5.89583333333336" Velocity="0" />
      <note Length="0.0104166666666667" Pitch="57" RiffPosition="5.90625000000003" Velocity="0" />
      <note Length="0.0104166666666667" Pitch="60" RiffPosition="5.9166666666667" Velocity="0" />
      <note Length="0.0104166666666667" Pitch="58" RiffPosition="5.92708333333337" Velocity="0" />
      <note Length="0.0104166666666667" Pitch="58" RiffPosition="5.93750000000003" Velocity="0" />
      <note Length="0.0104166666666667" Pitch="55" RiffPosition="5.9479166666667" Velocity="0" />
      <note Length="0.0104166666666667" Pitch="43" RiffPosition="5.95833333333337" Velocity="0" />
      <note Length="0.0104166666666667" Pitch="43" RiffPosition="5.96875000000003" Velocity="0" />
      <note Length="0.0104166666666667" Pitch="50" RiffPosition="5.9791666666667" Velocity="0" />
      <note Length="0.0104166666666667" Pitch="48" RiffPosition="5.98958333333337" Velocity="0" />
      <note Length="0.0104166666666667" Pitch="51" RiffPosition="6.00000000000003" Velocity="89" />
      <note Length="0.0104166666666667" Pitch="50" RiffPosition="6.0104166666667" Velocity="83" />
      <note Length="0.0104166666666667" Pitch="43" RiffPosition="6.02083333333337" Velocity="56" />
      <note Length="0.0104166666666667" Pitch="43" RiffPosition="6.03125000000003" Velocity="62" />
      <note Length="0.0104166666666667" Pitch="43" RiffPosition="6.0416666666667" Velocity="64" />
      <note Length="0.0104166666666667" Pitch="43" RiffPosition="6.05208333333337" Velocity="65" />
      <note Length="0.0104166666666667" Pitch="43" RiffPosition="6.06250000000004" Velocity="39" />
      <note Length="0.0104166666666667" Pitch="55" RiffPosition="6.0729166666667" Velocity="36" />
      <note Length="0.0104166666666667" Pitch="58" RiffPosition="6.08333333333337" Velocity="62" />
      <note Length="0.0104166666666667" Pitch="57" RiffPosition="6.09375000000004" Velocity="53" />
      <note Length="0.0104166666666667" Pitch="55" RiffPosition="6.1041666666667" Velocity="42" />
      <note Length="0.0104166666666667" Pitch="43" RiffPosition="6.11458333333337" Velocity="40" />
      <note Length="0.0104166666666667" Pitch="43" RiffPosition="6.12500000000004" Velocity="52" />
      <note Length="0.0104166666666667" Pitch="43" RiffPosition="6.1354166666667" Velocity="55" />
      <note Length="0.0104166666666667" Pitch="43" RiffPosition="6.14583333333337" Velocity="39" />
      <note Length="0.0104166666666667" Pitch="43" RiffPosition="6.15625000000004" Velocity="43" />
      <note Length="0.0104166666666667" Pitch="43" RiffPosition="6.16666666666671" Velocity="49" />
      <note Length="0.0104166666666667" Pitch="43" RiffPosition="6.17708333333337" Velocity="47" />
      <note Length="0.0104166666666667" Pitch="51" RiffPosition="6.18750000000004" Velocity="77" />
      <note Length="0.0104166666666667" Pitch="50" RiffPosition="6.19791666666671" Velocity="74" />
      <note Length="0.0104166666666667" Pitch="50" RiffPosition="6.20833333333337" Velocity="68" />
      <note Length="0.0104166666666667" Pitch="48" RiffPosition="6.21875000000004" Velocity="59" />
      <note Length="0.0104166666666667" Pitch="46" RiffPosition="6.22916666666671" Velocity="48" />
      <note Length="0.0104166666666667" Pitch="46" RiffPosition="6.23958333333337" Velocity="67" />
      <note Length="0.0104166666666667" Pitch="46" RiffPosition="6.25000000000004" Velocity="55" />
      <note Length="0.0104166666666667" Pitch="46" RiffPosition="6.26041666666671" Velocity="45" />
      <note Length="0.0104166666666667" Pitch="48" RiffPosition="6.27083333333337" Velocity="56" />
      <note Length="0.0104166666666667" Pitch="48" RiffPosition="6.28125000000004" Velocity="61" />
      <note Length="0.0104166666666667" Pitch="50" RiffPosition="6.29166666666671" Velocity="56" />
      <note Length="0.0104166666666667" Pitch="51" RiffPosition="6.30208333333338" Velocity="58" />
      <note Length="0.0104166666666667" Pitch="43" RiffPosition="6.31250000000004" Velocity="83" />
      <note Length="0.0104166666666667" Pitch="55" RiffPosition="6.32291666666671" Velocity="62" />
      <note Length="0.0104166666666667" Pitch="55" RiffPosition="6.33333333333338" Velocity="68" />
      <note Length="0.0104166666666667" Pitch="55" RiffPosition="6.34375000000004" Velocity="70" />
      <note Length="0.0104166666666667" Pitch="57" RiffPosition="6.35416666666671" Velocity="81" />
      <note Length="0.0104166666666667" Pitch="55" RiffPosition="6.36458333333338" Velocity="93" />
      <note Length="0.0104166666666667" Pitch="55" RiffPosition="6.37500000000004" Velocity="105" />
      <note Length="0.0104166666666667" Pitch="55" RiffPosition="6.38541666666671" Velocity="113" />
      <note Length="0.0104166666666667" Pitch="60" RiffPosition="6.39583333333338" Velocity="85" />
      <note Length="0.0104166666666667" Pitch="62" RiffPosition="6.40625000000005" Velocity="61" />
      <note Length="0.0104166666666667" Pitch="62" RiffPosition="6.41666666666671" Velocity="59" />
      <note Length="0.0104166666666667" Pitch="62" RiffPosition="6.42708333333338" Velocity="56" />
      <note Length="0.0104166666666667" Pitch="60" RiffPosition="6.43750000000005" Velocity="41" />
      <note Length="0.0104166666666667" Pitch="60" RiffPosition="6.44791666666671" Velocity="49" />
      <note Length="0.0104166666666667" Pitch="58" RiffPosition="6.45833333333338" Velocity="47" />
      <note Length="0.0104166666666667" Pitch="58" RiffPosition="6.46875000000005" Velocity="43" />
      <note Length="0.0104166666666667" Pitch="60" RiffPosition="6.47916666666671" Velocity="60" />
      <note Length="0.0104166666666667" Pitch="58" RiffPosition="6.48958333333338" Velocity="52" />
      <note Length="0.0104166666666667" Pitch="58" RiffPosition="6.50000000000005" Velocity="52" />
      <note Length="0.0104166666666667" Pitch="58" RiffPosition="6.51041666666671" Velocity="46" />
      <note Length="0.0104166666666667" Pitch="55" RiffPosition="6.52083333333338" Velocity="51" />
      <note Length="0.0104166666666667" Pitch="57" RiffPosition="6.53125000000005" Velocity="52" />
      <note Length="0.0104166666666667" Pitch="58" RiffPosition="6.54166666666672" Velocity="50" />
      <note Length="0.0104166666666667" Pitch="62" RiffPosition="6.55208333333338" Velocity="47" />
      <note Length="0.0104166666666667" Pitch="62" RiffPosition="6.56250000000005" Velocity="37" />
      <note Length="0.0104166666666667" Pitch="60" RiffPosition="6.57291666666672" Velocity="36" />
      <note Length="0.0104166666666667" Pitch="60" RiffPosition="6.58333333333338" Velocity="37" />
      <note Length="0.0104166666666667" Pitch="58" RiffPosition="6.59375000000005" Velocity="42" />
      <note Length="0.0104166666666667" Pitch="57" RiffPosition="6.60416666666672" Velocity="49" />
      <note Length="0.0104166666666667" Pitch="55" RiffPosition="6.61458333333338" Velocity="49" />
      <note Length="0.0104166666666667" Pitch="43" RiffPosition="6.62500000000005" Velocity="57" />
      <note Length="0.0104166666666667" Pitch="57" RiffPosition="6.63541666666672" Velocity="63" />
      <note Length="0.0104166666666667" Pitch="55" RiffPosition="6.64583333333339" Velocity="52" />
      <note Length="0.0104166666666667" Pitch="55" RiffPosition="6.65625000000005" Velocity="52" />
      <note Length="0.0104166666666667" Pitch="55" RiffPosition="6.66666666666672" Velocity="61" />
      <note Length="0.0104166666666667" Pitch="43" RiffPosition="6.67708333333339" Velocity="64" />
      <note Length="0.0104166666666667" Pitch="55" RiffPosition="6.68750000000005" Velocity="91" />
      <note Length="0.0104166666666667" Pitch="43" RiffPosition="6.69791666666672" Velocity="92" />
      <note Length="0.0104166666666667" Pitch="43" RiffPosition="6.70833333333339" Velocity="90" />
      <note Length="0.0104166666666667" Pitch="43" RiffPosition="6.71875000000005" Velocity="115" />
      <note Length="0.0104166666666667" Pitch="51" RiffPosition="6.72916666666672" Velocity="104" />
      <note Length="0.0104166666666667" Pitch="51" RiffPosition="6.73958333333339" Velocity="92" />
      <note Length="0.0104166666666667" Pitch="50" RiffPosition="6.75000000000006" Velocity="80" />
      <note Length="0.0104166666666667" Pitch="50" RiffPosition="6.76041666666672" Velocity="69" />
      <note Length="0.0104166666666667" Pitch="50" RiffPosition="6.77083333333339" Velocity="45" />
      <note Length="0.0104166666666667" Pitch="50" RiffPosition="6.78125000000006" Velocity="40" />
      <note Length="0.0104166666666667" Pitch="43" RiffPosition="6.79166666666672" Velocity="38" />
      <note Length="0.0104166666666667" Pitch="43" RiffPosition="6.80208333333339" Velocity="61" />
      <note Length="0.0104166666666667" Pitch="43" RiffPosition="6.81250000000006" Velocity="35" />
      <note Length="0.0104166666666667" Pitch="43" RiffPosition="6.82291666666672" Velocity="39" />
      <note Length="0.0104166666666667" Pitch="43" RiffPosition="6.83333333333339" Velocity="37" />
      <note Length="0.0104166666666667" Pitch="43" RiffPosition="6.84375000000006" Velocity="45" />
      <note Length="0.0104166666666667" Pitch="50" RiffPosition="6.85416666666672" Velocity="57" />
      <note Length="0.0104166666666667" Pitch="50" RiffPosition="6.86458333333339" Velocity="69" />
      <note Length="0.0104166666666667" Pitch="43" RiffPosition="6.87500000000006" Velocity="73" />
      <note Length="0.0104166666666667" Pitch="43" RiffPosition="6.88541666666673" Velocity="59" />
      <note Length="0.0104166666666667" Pitch="43" RiffPosition="6.89583333333339" Velocity="43" />
      <note Length="0.0104166666666667" Pitch="51" RiffPosition="6.90625000000006" Velocity="47" />
      <note Length="0.0104166666666667" Pitch="51" RiffPosition="6.91666666666673" Velocity="50" />
      <note Length="0.0104166666666667" Pitch="51" RiffPosition="6.92708333333339" Velocity="44" />
      <note Length="0.0104166666666667" Pitch="51" RiffPosition="6.93750000000006" Velocity="49" />
      <note Length="0.0104166666666667" Pitch="50" RiffPosition="6.94791666666673" Velocity="45" />
      <note Length="0.0104166666666667" Pitch="43" RiffPosition="6.95833333333339" Velocity="64" />
      <note Length="0.0104166666666667" Pitch="51" RiffPosition="6.96875000000006" Velocity="55" />
      <note Length="0.0104166666666667" Pitch="50" RiffPosition="6.97916666666673" Velocity="51" />
      <note Length="0.0104166666666667" Pitch="48" RiffPosition="6.9895833333334" Velocity="39" />
      <note Length="0.0104166666666667" Pitch="48" RiffPosition="7.00000000000006" Velocity="43" />
      <note Length="0.0104166666666667" Pitch="48" RiffPosition="7.01041666666673" Velocity="53" />
      <note Length="0.0104166666666667" Pitch="50" RiffPosition="7.0208333333334" Velocity="85" />
      <note Length="0.0104166666666667" Pitch="43" RiffPosition="7.03125000000006" Velocity="82" />
      <note Length="0.0104166666666667" Pitch="55" RiffPosition="7.04166666666673" Velocity="60" />
      <note Length="0.0104166666666667" Pitch="58" RiffPosition="7.0520833333334" Velocity="59" />
      <note Length="0.0104166666666667" Pitch="58" RiffPosition="7.06250000000006" Velocity="81" />
      <note Length="0.0104166666666667" Pitch="60" RiffPosition="7.07291666666673" Velocity="80" />
      <note Length="0.0104166666666667" Pitch="62" RiffPosition="7.0833333333334" Velocity="82" />
      <note Length="0.0104166666666667" Pitch="60" RiffPosition="7.09375000000006" Velocity="79" />
      <note Length="0.0104166666666667" Pitch="60" RiffPosition="7.10416666666673" Velocity="86" />
      <note Length="0.0104166666666667" Pitch="55" RiffPosition="7.1145833333334" Velocity="69" />
      <note Length="0.0104166666666667" Pitch="55" RiffPosition="7.12500000000007" Velocity="77" />
      <note Length="0.0104166666666667" Pitch="55" RiffPosition="7.13541666666673" Velocity="83" />
      <note Length="0.0104166666666667" Pitch="55" RiffPosition="7.1458333333334" Velocity="55" />
      <note Length="0.0104166666666667" Pitch="55" RiffPosition="7.15625000000007" Velocity="55" />
      <note Length="0.0104166666666667" Pitch="55" RiffPosition="7.16666666666673" Velocity="53" />
      <note Length="0.0104166666666667" Pitch="55" RiffPosition="7.1770833333334" Velocity="50" />
      <note Length="0.0104166666666667" Pitch="60" RiffPosition="7.18750000000007" Velocity="46" />
      <note Length="0.0104166666666667" Pitch="62" RiffPosition="7.19791666666673" Velocity="79" />
      <note Length="0.0104166666666667" Pitch="60" RiffPosition="7.2083333333334" Velocity="77" />
      <note Length="0.0104166666666667" Pitch="58" RiffPosition="7.21875000000007" Velocity="73" />
      <note Length="0.0104166666666667" Pitch="55" RiffPosition="7.22916666666674" Velocity="66" />
      <note Length="0.0104166666666667" Pitch="43" RiffPosition="7.2395833333334" Velocity="58" />
      <note Length="0.0104166666666667" Pitch="51" RiffPosition="7.25000000000007" Velocity="58" />
      <note Length="0.0104166666666667" Pitch="51" RiffPosition="7.26041666666674" Velocity="52" />
      <note Length="0.0104166666666667" Pitch="43" RiffPosition="7.2708333333334" Velocity="46" />
      <note Length="0.0104166666666667" Pitch="43" RiffPosition="7.28125000000007" Velocity="48" />
      <note Length="0.0104166666666667" Pitch="55" RiffPosition="7.29166666666674" Velocity="50" />
      <note Length="0.0104166666666667" Pitch="55" RiffPosition="7.3020833333334" Velocity="60" />
      <note Length="0.0104166666666667" Pitch="55" RiffPosition="7.31250000000007" Velocity="39" />
      <note Length="0.0104166666666667" Pitch="55" RiffPosition="7.32291666666674" Velocity="40" />
      <note Length="0.0104166666666667" Pitch="55" RiffPosition="7.33333333333341" Velocity="38" />
      <note Length="0.0104166666666667" Pitch="43" RiffPosition="7.34375000000007" Velocity="36" />
      <note Length="0.0104166666666667" Pitch="58" RiffPosition="7.35416666666674" Velocity="59" />
      <note Length="0.0104166666666667" Pitch="57" RiffPosition="7.36458333333341" Velocity="51" />
      <note Length="0.0104166666666667" Pitch="55" RiffPosition="7.37500000000007" Velocity="43" />
      <note Length="0.0104166666666667" Pitch="43" RiffPosition="7.38541666666674" Velocity="35" />
      <note Length="0.0104166666666667" Pitch="43" RiffPosition="7.39583333333341" Velocity="51" />
      <note Length="0.0104166666666667" Pitch="55" RiffPosition="7.40625000000007" Velocity="54" />
      <note Length="0.0104166666666667" Pitch="43" RiffPosition="7.41666666666674" Velocity="52" />
      <note Length="0.0104166666666667" Pitch="57" RiffPosition="7.42708333333341" Velocity="50" />
      <note Length="0.0104166666666667" Pitch="55" RiffPosition="7.43750000000007" Velocity="97" />
      <note Length="0.0104166666666667" Pitch="43" RiffPosition="7.44791666666674" Velocity="94" />
      <note Length="0.0104166666666667" Pitch="43" RiffPosition="7.45833333333341" Velocity="95" />
      <note Length="0.0104166666666667" Pitch="51" RiffPosition="7.46875000000008" Velocity="86" />
      <note Length="0.0104166666666667" Pitch="48" RiffPosition="7.47916666666674" Velocity="75" />
      <note Length="0.0104166666666667" Pitch="46" RiffPosition="7.48958333333341" Velocity="63" />
      <note Length="0.0104166666666667" Pitch="45" RiffPosition="7.50000000000008" Velocity="51" />
      <note Length="0.0104166666666667" Pitch="48" RiffPosition="7.51041666666674" Velocity="48" />
      <note Length="0.0104166666666667" Pitch="48" RiffPosition="7.52083333333341" Velocity="41" />
      <note Length="0.0104166666666667" Pitch="48" RiffPosition="7.53125000000008" Velocity="36" />
      <note Length="0.0104166666666667" Pitch="50" RiffPosition="7.54166666666674" Velocity="36" />
      <note Length="0.0104166666666667" Pitch="51" RiffPosition="7.55208333333341" Velocity="37" />
      <note Length="0.0104166666666667" Pitch="43" RiffPosition="7.56250000000008" Velocity="56" />
      <note Length="0.0104166666666667" Pitch="51" RiffPosition="7.57291666666675" Velocity="59" />
      <note Length="0.0104166666666667" Pitch="51" RiffPosition="7.58333333333341" Velocity="65" />
      <note Length="0.0104166666666667" Pitch="43" RiffPosition="7.59375000000008" Velocity="49" />
      <note Length="0.0104166666666667" Pitch="43" RiffPosition="7.60416666666675" Velocity="61" />
      <note Length="0.0104166666666667" Pitch="43" RiffPosition="7.61458333333341" Velocity="66" />
      <note Length="0.0104166666666667" Pitch="43" RiffPosition="7.62500000000008" Velocity="78" />
      <note Length="0.0104166666666667" Pitch="43" RiffPosition="7.63541666666675" Velocity="88" />
      <note Length="0.0104166666666667" Pitch="43" RiffPosition="7.64583333333341" Velocity="71" />
      <note Length="0.0104166666666667" Pitch="43" RiffPosition="7.65625000000008" Velocity="76" />
      <note Length="0.0104166666666667" Pitch="55" RiffPosition="7.66666666666675" Velocity="78" />
      <note Length="0.0104166666666667" Pitch="55" RiffPosition="7.67708333333341" Velocity="48" />
      <note Length="0.0104166666666667" Pitch="57" RiffPosition="7.68750000000008" Velocity="45" />
      <note Length="0.0104166666666667" Pitch="55" RiffPosition="7.69791666666675" Velocity="41" />
      <note Length="0.0104166666666667" Pitch="55" RiffPosition="7.70833333333342" Velocity="35" />
      <note Length="0.0104166666666667" Pitch="43" RiffPosition="7.71875000000008" Velocity="41" />
      <note Length="0.0104166666666667" Pitch="43" RiffPosition="7.72916666666675" Velocity="41" />
      <note Length="0.0104166666666667" Pitch="43" RiffPosition="7.73958333333342" Velocity="49" />
      <note Length="0.0104166666666667" Pitch="55" RiffPosition="7.75000000000008" Velocity="56" />
      <note Length="0.0104166666666667" Pitch="55" RiffPosition="7.76041666666675" Velocity="38" />
      <note Length="0.0104166666666667" Pitch="57" RiffPosition="7.77083333333342" Velocity="65" />
      <note Length="0.0104166666666667" Pitch="58" RiffPosition="7.78125000000008" Velocity="59" />
      <note Length="0.0104166666666667" Pitch="60" RiffPosition="7.79166666666675" Velocity="57" />
      <note Length="0.0104166666666667" Pitch="60" RiffPosition="7.80208333333342" Velocity="54" />
      <note Length="0.0104166666666667" Pitch="55" RiffPosition="7.81250000000009" Velocity="75" />
      <note Length="0.0104166666666667" Pitch="55" RiffPosition="7.82291666666675" Velocity="74" />
      <note Length="0.0104166666666667" Pitch="67" RiffPosition="7.83333333333342" Velocity="44" />
      <note Length="0.0104166666666667" Pitch="67" RiffPosition="7.84375000000009" Velocity="49" />
      <note Length="0.0104166666666667" Pitch="55" RiffPosition="7.85416666666675" Velocity="55" />
      <note Length="0.0104166666666667" Pitch="62" RiffPosition="7.86458333333342" Velocity="63" />
      <note Length="0.0104166666666667" Pitch="60" RiffPosition="7.87500000000009" Velocity="71" />
      <note Length="0.0104166666666667" Pitch="60" RiffPosition="7.88541666666675" Velocity="70" />
      <note Length="0.0104166666666667" Pitch="58" RiffPosition="7.89583333333342" Velocity="49" />
      <note Length="0.0104166666666667" Pitch="60" RiffPosition="7.90625000000009" Velocity="49" />
      <note Length="0.0104166666666667" Pitch="60" RiffPosition="7.91666666666675" Velocity="47" />
      <note Length="0.0104166666666667" Pitch="58" RiffPosition="7.92708333333342" Velocity="50" />
      <note Length="0.0104166666666667" Pitch="57" RiffPosition="7.93750000000009" Velocity="84" />
      <note Length="0.0104166666666667" Pitch="55" RiffPosition="7.94791666666676" Velocity="85" />
      <note Length="0.0104166666666667" Pitch="43" RiffPosition="7.95833333333342" Velocity="83" />
      <note Length="0.0104166666666667" Pitch="43" RiffPosition="7.96875000000009" Velocity="79" />
      <note Length="0.0104166666666667" Pitch="50" RiffPosition="7.97916666666676" Velocity="72" />
      <note Length="0.0104166666666667" Pitch="51" RiffPosition="7.98958333333342" Velocity="95" />
      <note Length="0.0104166666666667" Pitch="50" RiffPosition="8.00000000000009" Velocity="88" />
      <note Length="0.0104166666666667" Pitch="50" RiffPosition="8.01041666666676" Velocity="82" />
      <note Length="0.0104166666666667" Pitch="51" RiffPosition="8.02083333333342" Velocity="55" />
      <note Length="0.0104166666666667" Pitch="43" RiffPosition="8.03125000000009" Velocity="54" />
      <note Length="0.0104166666666667" Pitch="43" RiffPosition="8.04166666666675" Velocity="63" />
      <note Length="0.0104166666666667" Pitch="43" RiffPosition="8.05208333333342" Velocity="64" />
      <note Length="0.0104166666666667" Pitch="43" RiffPosition="8.06250000000009" Velocity="38" />
      <note Length="0.0104166666666667" Pitch="58" RiffPosition="8.07291666666675" Velocity="59" />
      <note Length="0.0104166666666667" Pitch="58" RiffPosition="8.08333333333342" Velocity="54" />
      <note Length="0.0104166666666667" Pitch="57" RiffPosition="8.09375000000009" Velocity="52" />
      <note Length="0.0104166666666667" Pitch="55" RiffPosition="8.10416666666675" Velocity="41" />
      <note Length="0.0104166666666667" Pitch="43" RiffPosition="8.11458333333342" Velocity="41" />
      <note Length="0.0104166666666667" Pitch="43" RiffPosition="8.12500000000008" Velocity="53" />
      <note Length="0.0104166666666667" Pitch="43" RiffPosition="8.13541666666675" Velocity="63" />
      <note Length="0.0104166666666667" Pitch="43" RiffPosition="8.14583333333342" Velocity="40" />
      <note Length="0.0104166666666667" Pitch="43" RiffPosition="8.15625000000008" Velocity="50" />
      <note Length="0.0104166666666667" Pitch="43" RiffPosition="8.16666666666675" Velocity="48" />
      <note Length="0.0104166666666667" Pitch="43" RiffPosition="8.17708333333341" Velocity="46" />
      <note Length="0.0104166666666667" Pitch="51" RiffPosition="8.18750000000008" Velocity="69" />
      <note Length="0.0104166666666667" Pitch="50" RiffPosition="8.19791666666675" Velocity="73" />
      <note Length="0.0104166666666667" Pitch="48" RiffPosition="8.20833333333341" Velocity="67" />
      <note Length="0.0104166666666667" Pitch="48" RiffPosition="8.21875000000008" Velocity="58" />
      <note Length="0.0104166666666667" Pitch="50" RiffPosition="8.22916666666674" Velocity="71" />
      <note Length="0.0104166666666667" Pitch="46" RiffPosition="8.23958333333341" Velocity="59" />
      <note Length="0.0104166666666667" Pitch="45" RiffPosition="8.25000000000008" Velocity="47" />
      <note Length="0.0104166666666667" Pitch="45" RiffPosition="8.26041666666674" Velocity="44" />
      <note Length="0.0104166666666667" Pitch="46" RiffPosition="8.27083333333341" Velocity="57" />
      <note Length="0.0104166666666667" Pitch="48" RiffPosition="8.28125000000007" Velocity="62" />
      <note Length="0.0104166666666667" Pitch="50" RiffPosition="8.29166666666674" Velocity="65" />
      <note Length="0.0104166666666667" Pitch="51" RiffPosition="8.30208333333341" Velocity="66" />
      <note Length="0.0104166666666667" Pitch="55" RiffPosition="8.31250000000007" Velocity="60" />
      <note Length="0.0104166666666667" Pitch="55" RiffPosition="8.32291666666674" Velocity="63" />
      <note Length="0.0104166666666667" Pitch="55" RiffPosition="8.33333333333341" Velocity="69" />
      <note Length="0.0104166666666667" Pitch="55" RiffPosition="8.34375000000007" Velocity="78" />
      <note Length="0.0104166666666667" Pitch="55" RiffPosition="8.35416666666674" Velocity="89" />
      <note Length="0.0104166666666667" Pitch="55" RiffPosition="8.3645833333334" Velocity="94" />
      <note Length="0.0104166666666667" Pitch="55" RiffPosition="8.37500000000007" Velocity="106" />
      <note Length="0.0104166666666667" Pitch="58" RiffPosition="8.38541666666674" Velocity="114" />
      <note Length="0.0104166666666667" Pitch="58" RiffPosition="8.3958333333334" Velocity="69" />
      <note Length="0.0104166666666667" Pitch="60" RiffPosition="8.40625000000007" Velocity="69" />
      <note Length="0.0104166666666667" Pitch="62" RiffPosition="8.41666666666673" Velocity="60" />
      <note Length="0.0104166666666667" Pitch="62" RiffPosition="8.4270833333334" Velocity="57" />
      <note Length="0.0104166666666667" Pitch="60" RiffPosition="8.43750000000007" Velocity="40" />
      <note Length="0.0104166666666667" Pitch="60" RiffPosition="8.44791666666673" Velocity="41" />
      <note Length="0.0104166666666667" Pitch="58" RiffPosition="8.4583333333334" Velocity="39" />
      <note Length="0.0104166666666667" Pitch="60" RiffPosition="8.46875000000006" Velocity="66" />
      <note Length="0.0104166666666667" Pitch="58" RiffPosition="8.47916666666673" Velocity="59" />
      <note Length="0.0104166666666667" Pitch="58" RiffPosition="8.4895833333334" Velocity="51" />
      <note Length="0.0104166666666667" Pitch="58" RiffPosition="8.50000000000006" Velocity="44" />
      <note Length="0.0104166666666667" Pitch="58" RiffPosition="8.51041666666673" Velocity="38" />
      <note Length="0.0104166666666667" Pitch="55" RiffPosition="8.52083333333339" Velocity="52" />
      <note Length="0.0104166666666667" Pitch="55" RiffPosition="8.53125000000006" Velocity="53" />
      <note Length="0.0104166666666667" Pitch="60" RiffPosition="8.54166666666673" Velocity="51" />
      <note Length="0.0104166666666667" Pitch="62" RiffPosition="8.55208333333339" Velocity="46" />
      <note Length="0.0104166666666667" Pitch="62" RiffPosition="8.56250000000006" Velocity="45" />
      <note Length="0.0104166666666667" Pitch="60" RiffPosition="8.57291666666672" Velocity="37" />
      <note Length="0.0104166666666667" Pitch="58" RiffPosition="8.58333333333339" Velocity="38" />
      <note Length="0.0104166666666667" Pitch="58" RiffPosition="8.59375000000006" Velocity="43" />
      <note Length="0.0104166666666667" Pitch="57" RiffPosition="8.60416666666672" Velocity="50" />
      <note Length="0.0104166666666667" Pitch="55" RiffPosition="8.61458333333339" Velocity="58" />
      <note Length="0.0104166666666667" Pitch="58" RiffPosition="8.62500000000006" Velocity="58" />
      <note Length="0.0104166666666667" Pitch="57" RiffPosition="8.63541666666672" Velocity="40" />
      <note Length="0.0104166666666667" Pitch="55" RiffPosition="8.64583333333339" Velocity="51" />
      <note Length="0.0104166666666667" Pitch="55" RiffPosition="8.65625000000005" Velocity="51" />
      <note Length="0.0104166666666667" Pitch="55" RiffPosition="8.66666666666672" Velocity="53" />
      <note Length="0.0104166666666667" Pitch="43" RiffPosition="8.67708333333339" Velocity="63" />
      <note Length="0.0104166666666667" Pitch="55" RiffPosition="8.68750000000005" Velocity="90" />
      <note Length="0.0104166666666667" Pitch="43" RiffPosition="8.69791666666672" Velocity="91" />
      <note Length="0.0104166666666667" Pitch="43" RiffPosition="8.70833333333338" Velocity="113" />
      <note Length="0.0104166666666667" Pitch="43" RiffPosition="8.71875000000005" Velocity="107" />
      <note Length="0.0104166666666667" Pitch="51" RiffPosition="8.72916666666672" Velocity="103" />
      <note Length="0.0104166666666667" Pitch="51" RiffPosition="8.73958333333338" Velocity="90" />
      <note Length="0.0104166666666667" Pitch="50" RiffPosition="8.75000000000005" Velocity="79" />
      <note Length="0.0104166666666667" Pitch="50" RiffPosition="8.76041666666671" Velocity="68" />
      <note Length="0.0104166666666667" Pitch="50" RiffPosition="8.77083333333338" Velocity="37" />
      <note Length="0.0104166666666667" Pitch="43" RiffPosition="8.78125000000005" Velocity="39" />
      <note Length="0.0104166666666667" Pitch="43" RiffPosition="8.79166666666671" Velocity="61" />
      <note Length="0.0104166666666667" Pitch="43" RiffPosition="8.80208333333338" Velocity="60" />
      <note Length="0.0104166666666667" Pitch="43" RiffPosition="8.81250000000004" Velocity="36" />
      <note Length="0.0104166666666667" Pitch="43" RiffPosition="8.82291666666671" Velocity="39" />
      <note Length="0.0104166666666667" Pitch="43" RiffPosition="8.83333333333338" Velocity="45" />
      <note Length="0.0104166666666667" Pitch="43" RiffPosition="8.84375000000004" Velocity="47" />
      <note Length="0.0104166666666667" Pitch="50" RiffPosition="8.85416666666671" Velocity="58" />
      <note Length="0.0104166666666667" Pitch="43" RiffPosition="8.86458333333337" Velocity="70" />
      <note Length="0.0104166666666667" Pitch="43" RiffPosition="8.87500000000004" Velocity="57" />
      <note Length="0.0104166666666667" Pitch="43" RiffPosition="8.88541666666671" Velocity="68" />
      <note Length="0.0104166666666667" Pitch="43" RiffPosition="8.89583333333337" Velocity="44" />
      <note Length="0.0104166666666667" Pitch="51" RiffPosition="8.90625000000004" Velocity="48" />
      <note Length="0.0104166666666667" Pitch="51" RiffPosition="8.91666666666671" Velocity="51" />
      <note Length="0.0104166666666667" Pitch="51" RiffPosition="8.92708333333337" Velocity="52" />
      <note Length="0.0104166666666667" Pitch="50" RiffPosition="8.93750000000004" Velocity="40" />
      <note Length="0.0104166666666667" Pitch="43" RiffPosition="8.9479166666667" Velocity="69" />
      <note Length="0.0104166666666667" Pitch="43" RiffPosition="8.95833333333337" Velocity="63" />
      <note Length="0.0104166666666667" Pitch="50" RiffPosition="8.96875000000004" Velocity="54" />
      <note Length="0.0104166666666667" Pitch="50" RiffPosition="8.9791666666667" Velocity="43" />
      <note Length="0.0104166666666667" Pitch="48" RiffPosition="8.98958333333337" Velocity="39" />
      <note Length="0.0104166666666667" Pitch="48" RiffPosition="9.00000000000003" Velocity="44" />
      <note Length="0.0104166666666667" Pitch="48" RiffPosition="9.0104166666667" Velocity="54" />
      <note Length="0.0104166666666667" Pitch="43" RiffPosition="9.02083333333337" Velocity="86" />
      <note Length="0.0104166666666667" Pitch="43" RiffPosition="9.03125000000003" Velocity="66" />
      <note Length="0.0104166666666667" Pitch="55" RiffPosition="9.0416666666667" Velocity="69" />
      <note Length="0.0104166666666667" Pitch="57" RiffPosition="9.05208333333336" Velocity="60" />
      <note Length="0.0104166666666667" Pitch="58" RiffPosition="9.06250000000003" Velocity="82" />
      <note Length="0.0104166666666667" Pitch="60" RiffPosition="9.0729166666667" Velocity="81" />
      <note Length="0.0104166666666667" Pitch="60" RiffPosition="9.08333333333336" Velocity="83" />
      <note Length="0.0104166666666667" Pitch="60" RiffPosition="9.09375000000003" Velocity="87" />
      <note Length="0.0104166666666667" Pitch="55" RiffPosition="9.10416666666669" Velocity="62" />
      <note Length="0.0104166666666667" Pitch="55" RiffPosition="9.11458333333336" Velocity="70" />
      <note Length="0.0104166666666667" Pitch="55" RiffPosition="9.12500000000003" Velocity="78" />
      <note Length="0.0104166666666667" Pitch="55" RiffPosition="9.13541666666669" Velocity="84" />
      <note Length="0.0104166666666667" Pitch="55" RiffPosition="9.14583333333336" Velocity="63" />
      <note Length="0.0104166666666667" Pitch="55" RiffPosition="9.15625000000002" Velocity="56" />
      <note Length="0.0104166666666667" Pitch="55" RiffPosition="9.16666666666669" Velocity="54" />
      <note Length="0.0104166666666667" Pitch="55" RiffPosition="9.17708333333336" Velocity="51" />
      <note Length="0.0104166666666667" Pitch="55" RiffPosition="9.18750000000002" Velocity="70" />
      <note Length="0.0104166666666667" Pitch="62" RiffPosition="9.19791666666669" Velocity="71" />
      <note Length="0.0104166666666667" Pitch="60" RiffPosition="9.20833333333336" Velocity="76" />
      <note Length="0.0104166666666667" Pitch="57" RiffPosition="9.21875000000002" Velocity="72" />
      <note Length="0.0104166666666667" Pitch="55" RiffPosition="9.22916666666669" Velocity="65" />
      <note Length="0.0104166666666667" Pitch="43" RiffPosition="9.23958333333335" Velocity="57" />
      <note Length="0.0104166666666667" Pitch="51" RiffPosition="9.25000000000002" Velocity="49" />
      <note Length="0.0104166666666667" Pitch="43" RiffPosition="9.26041666666669" Velocity="51" />
      <note Length="0.0104166666666667" Pitch="43" RiffPosition="9.27083333333335" Velocity="48" />
      <note Length="0.0104166666666667" Pitch="43" RiffPosition="9.28125000000002" Velocity="47" />
      <note Length="0.0104166666666667" Pitch="43" RiffPosition="9.29166666666668" Velocity="49" />
      <note Length="0.0104166666666667" Pitch="55" RiffPosition="9.30208333333335" Velocity="52" />
      <note Length="0.0104166666666667" Pitch="55" RiffPosition="9.31250000000002" Velocity="38" />
      <note Length="0.0104166666666667" Pitch="55" RiffPosition="9.32291666666668" Velocity="39" />
      <note Length="0.0104166666666667" Pitch="43" RiffPosition="9.33333333333335" Velocity="37" />
      <note Length="0.0104166666666667" Pitch="57" RiffPosition="9.34375000000001" Velocity="57" />
      <note Length="0.0104166666666667" Pitch="57" RiffPosition="9.35416666666668" Velocity="50" />
      <note Length="0.0104166666666667" Pitch="55" RiffPosition="9.36458333333335" Velocity="42" />
      <note Length="0.0104166666666667" Pitch="55" RiffPosition="9.37500000000001" Velocity="42" />
      <note Length="0.0104166666666667" Pitch="43" RiffPosition="9.38541666666668" Velocity="36" />
      <note Length="0.0104166666666667" Pitch="43" RiffPosition="9.39583333333334" Velocity="50" />
      <note Length="0.0104166666666667" Pitch="55" RiffPosition="9.40625000000001" Velocity="46" />
      <note Length="0.0104166666666667" Pitch="58" RiffPosition="9.41666666666668" Velocity="43" />
      <note Length="0.0104166666666667" Pitch="57" RiffPosition="9.42708333333334" Velocity="74" />
      <note Length="0.0104166666666667" Pitch="55" RiffPosition="9.43750000000001" Velocity="96" />
      <note Length="0.0104166666666667" Pitch="43" RiffPosition="9.44791666666668" Velocity="93" />
      <note Length="0.0104166666666667" Pitch="43" RiffPosition="9.45833333333334" Velocity="87" />
      <note Length="0.0104166666666667" Pitch="50" RiffPosition="9.46875000000001" Velocity="78" />
      <note Length="0.0104166666666667" Pitch="48" RiffPosition="9.47916666666667" Velocity="74" />
      <note Length="0.0104166666666667" Pitch="46" RiffPosition="9.48958333333334" Velocity="62" />
      <note Length="0.0104166666666667" Pitch="48" RiffPosition="9.50000000000001" Velocity="50" />
      <note Length="0.0104166666666667" Pitch="48" RiffPosition="9.51041666666667" Velocity="64" />
      <note Length="0.0104166666666667" Pitch="46" RiffPosition="9.52083333333334" Velocity="37" />
      <note Length="0.0104166666666667" Pitch="48" RiffPosition="9.53125" Velocity="35" />
      <note Length="0.0104166666666667" Pitch="50" RiffPosition="9.54166666666667" Velocity="37" />
      <note Length="0.0104166666666667" Pitch="51" RiffPosition="9.55208333333334" Velocity="38" />
      <note Length="0.0104166666666667" Pitch="43" RiffPosition="9.5625" Velocity="64" />
      <note Length="0.0104166666666667" Pitch="50" RiffPosition="9.57291666666667" Velocity="67" />
      <note Length="0.0104166666666667" Pitch="43" RiffPosition="9.58333333333333" Velocity="42" />
      <note Length="0.0104166666666667" Pitch="43" RiffPosition="9.59375" Velocity="51" />
      <note Length="0.0104166666666667" Pitch="43" RiffPosition="9.60416666666667" Velocity="62" />
      <note Length="0.0104166666666667" Pitch="43" RiffPosition="9.61458333333333" Velocity="74" />
      <note Length="0.0104166666666667" Pitch="43" RiffPosition="9.625" Velocity="86" />
      <note Length="0.0104166666666667" Pitch="43" RiffPosition="9.63541666666666" Velocity="89" />
      <note Length="0.0104166666666667" Pitch="43" RiffPosition="9.64583333333333" Velocity="72" />
      <note Length="0.0104166666666667" Pitch="55" RiffPosition="9.65625" Velocity="77" />
      <note Length="0.0104166666666667" Pitch="55" RiffPosition="9.66666666666666" Velocity="55" />
      <note Length="0.0104166666666667" Pitch="55" RiffPosition="9.67708333333333" Velocity="56" />
      <note Length="0.0104166666666667" Pitch="57" RiffPosition="9.68749999999999" Velocity="44" />
      <note Length="0.0104166666666667" Pitch="55" RiffPosition="9.69791666666666" Velocity="40" />
      <note Length="0.0104166666666667" Pitch="43" RiffPosition="9.70833333333333" Velocity="36" />
      <note Length="0.0104166666666667" Pitch="43" RiffPosition="9.71874999999999" Velocity="42" />
      <note Length="0.0104166666666667" Pitch="43" RiffPosition="9.72916666666666" Velocity="49" />
      <note Length="0.0104166666666667" Pitch="55" RiffPosition="9.73958333333333" Velocity="50" />
      <note Length="0.0104166666666667" Pitch="55" RiffPosition="9.74999999999999" Velocity="37" />
      <note Length="0.0104166666666667" Pitch="55" RiffPosition="9.76041666666666" Velocity="39" />
      <note Length="0.0104166666666667" Pitch="55" RiffPosition="9.77083333333332" Velocity="66" />
      <note Length="0.0104166666666667" Pitch="58" RiffPosition="9.78124999999999" Velocity="67" />
      <note Length="0.0104166666666667" Pitch="58" RiffPosition="9.79166666666666" Velocity="58" />
      <note Length="0.0104166666666667" Pitch="60" RiffPosition="9.80208333333332" Velocity="55" />
      <note Length="0.0104166666666667" Pitch="62" RiffPosition="9.81249999999999" Velocity="76" />
      <note Length="0.0104166666666667" Pitch="55" RiffPosition="9.82291666666665" Velocity="51" />
      <note Length="0.0104166666666667" Pitch="55" RiffPosition="9.83333333333332" Velocity="52" />
      <note Length="0.0104166666666667" Pitch="55" RiffPosition="9.84374999999999" Velocity="50" />
      <note Length="0.0104166666666667" Pitch="55" RiffPosition="9.85416666666665" Velocity="57" />
      <note Length="0.0104166666666667" Pitch="62" RiffPosition="9.86458333333332" Velocity="65" />
      <note Length="0.0104166666666667" Pitch="60" RiffPosition="9.87499999999998" Velocity="72" />
      <note Length="0.0104166666666667" Pitch="58" RiffPosition="9.88541666666665" Velocity="78" />
      <note Length="0.0104166666666667" Pitch="62" RiffPosition="9.89583333333332" Velocity="50" />
      <note Length="0.0104166666666667" Pitch="60" RiffPosition="9.90624999999998" Velocity="44" />
      <note Length="0.0104166666666667" Pitch="58" RiffPosition="9.91666666666665" Velocity="46" />
      <note Length="0.0104166666666667" Pitch="58" RiffPosition="9.92708333333331" Velocity="49" />
      <note Length="0.0104166666666667" Pitch="57" RiffPosition="9.93749999999998" Velocity="76" />
      <note Length="0.0104166666666667" Pitch="55" RiffPosition="9.94791666666665" Velocity="77" />
      <note Length="0.0104166666666667" Pitch="43" RiffPosition="9.95833333333331" Velocity="82" />
      <note Length="0.0104166666666667" Pitch="43" RiffPosition="9.96874999999998" Velocity="78" />
      <note Length="0.0104166666666667" Pitch="43" RiffPosition="9.97916666666664" Velocity="95" />
      <note Length="0.0104166666666667" Pitch="51" RiffPosition="9.98958333333331" Velocity="87" />
      <note Length="0.0104166666666667" Pitch="50" RiffPosition="9.99999999999998" Velocity="80" />
      <note Length="0.0104166666666667" Pitch="50" RiffPosition="10.0104166666666" Velocity="81" />
      <note Length="0.0104166666666667" Pitch="51" RiffPosition="10.0208333333333" Velocity="53" />
      <note Length="0.0104166666666667" Pitch="43" RiffPosition="10.03125" Velocity="53" />
      <note Length="0.0104166666666667" Pitch="43" RiffPosition="10.0416666666666" Velocity="55" />
      <note Length="0.0104166666666667" Pitch="43" RiffPosition="10.0520833333333" Velocity="56" />
      <note Length="0.0104166666666667" Pitch="55" RiffPosition="10.0625" Velocity="62" />
      <note Length="0.0104166666666667" Pitch="58" RiffPosition="10.0729166666666" Velocity="58" />
      <note Length="0.0104166666666667" Pitch="57" RiffPosition="10.0833333333333" Velocity="52" />
      <note Length="0.0104166666666667" Pitch="55" RiffPosition="10.09375" Velocity="44" />
      <note Length="0.0104166666666667" Pitch="55" RiffPosition="10.1041666666666" Velocity="37" />
      <note Length="0.0104166666666667" Pitch="43" RiffPosition="10.1145833333333" Velocity="42" />
      <note Length="0.0104166666666667" Pitch="43" RiffPosition="10.125" Velocity="54" />
      <note Length="0.0104166666666667" Pitch="55" RiffPosition="10.1354166666666" Velocity="65" />
      <note Length="0.0104166666666667" Pitch="43" RiffPosition="10.1458333333333" Velocity="46" />
      <note Length="0.0104166666666667" Pitch="43" RiffPosition="10.15625" Velocity="42" />
      <note Length="0.0104166666666667" Pitch="43" RiffPosition="10.1666666666666" Velocity="46" />
      <note Length="0.0104166666666667" Pitch="43" RiffPosition="10.1770833333333" Velocity="45" />
      <note Length="0.0104166666666667" Pitch="50" RiffPosition="10.1875" Velocity="68" />
      <note Length="0.0104166666666667" Pitch="50" RiffPosition="10.1979166666666" Velocity="64" />
      <note Length="0.0104166666666667" Pitch="48" RiffPosition="10.2083333333333" Velocity="58" />
      <note Length="0.0104166666666667" Pitch="50" RiffPosition="10.21875" Velocity="81" />
      <note Length="0.0104166666666667" Pitch="48" RiffPosition="10.2291666666666" Velocity="70" />
      <note Length="0.0104166666666667" Pitch="45" RiffPosition="10.2395833333333" Velocity="58" />
      <note Length="0.0104166666666667" Pitch="45" RiffPosition="10.25" Velocity="46" />
      <note Length="0.0104166666666667" Pitch="45" RiffPosition="10.2604166666666" Velocity="36" />
      <note Length="0.0104166666666667" Pitch="46" RiffPosition="10.2708333333333" Velocity="59" />
      <note Length="0.0104166666666667" Pitch="48" RiffPosition="10.28125" Velocity="63" />
      <note Length="0.0104166666666667" Pitch="50" RiffPosition="10.2916666666666" Velocity="66" />
      <note Length="0.0104166666666667" Pitch="43" RiffPosition="10.3020833333333" Velocity="42" />
      <note Length="0.0104166666666667" Pitch="43" RiffPosition="10.3125" Velocity="68" />
      <note Length="0.0104166666666667" Pitch="55" RiffPosition="10.3229166666666" Velocity="64" />
      <note Length="0.0104166666666667" Pitch="55" RiffPosition="10.3333333333333" Velocity="70" />
      <note Length="0.0104166666666667" Pitch="55" RiffPosition="10.34375" Velocity="79" />
      <note Length="0.0104166666666667" Pitch="55" RiffPosition="10.3541666666666" Velocity="90" />
      <note Length="0.0104166666666667" Pitch="55" RiffPosition="10.3645833333333" Velocity="102" />
      <note Length="0.0104166666666667" Pitch="58" RiffPosition="10.375" Velocity="107" />
      <note Length="0.0104166666666667" Pitch="58" RiffPosition="10.3854166666666" Velocity="91" />
      <note Length="0.0104166666666667" Pitch="58" RiffPosition="10.3958333333333" Velocity="70" />
      <note Length="0.0104166666666667" Pitch="60" RiffPosition="10.40625" Velocity="70" />
      <note Length="0.0104166666666667" Pitch="60" RiffPosition="10.4166666666666" Velocity="68" />
      <note Length="0.0104166666666667" Pitch="60" RiffPosition="10.4270833333333" Velocity="58" />
      <note Length="0.0104166666666667" Pitch="60" RiffPosition="10.4375" Velocity="39" />
      <note Length="0.0104166666666667" Pitch="60" RiffPosition="10.4479166666666" Velocity="40" />
      <note Length="0.0104166666666667" Pitch="62" RiffPosition="10.4583333333333" Velocity="62" />
      <note Length="0.0104166666666667" Pitch="60" RiffPosition="10.46875" Velocity="58" />
      <note Length="0.0104166666666667" Pitch="58" RiffPosition="10.4791666666666" Velocity="58" />
      <note Length="0.0104166666666667" Pitch="58" RiffPosition="10.4895833333333" Velocity="50" />
      <note Length="0.0104166666666667" Pitch="57" RiffPosition="10.4999999999999" Velocity="43" />
      <note Length="0.0104166666666667" Pitch="57" RiffPosition="10.5104166666666" Velocity="37" />
      <note Length="0.0104166666666667" Pitch="55" RiffPosition="10.5208333333333" Velocity="61" />
      <note Length="0.0104166666666667" Pitch="60" RiffPosition="10.5312499999999" Velocity="61" />
      <note Length="0.0104166666666667" Pitch="60" RiffPosition="10.5416666666666" Velocity="42" />
      <note Length="0.0104166666666667" Pitch="60" RiffPosition="10.5520833333333" Velocity="45" />
      <note Length="0.0104166666666667" Pitch="60" RiffPosition="10.5624999999999" Velocity="46" />
      <note Length="0.0104166666666667" Pitch="58" RiffPosition="10.5729166666666" Velocity="45" />
      <note Length="0.0104166666666667" Pitch="58" RiffPosition="10.5833333333333" Velocity="47" />
      <note Length="0.0104166666666667" Pitch="57" RiffPosition="10.5937499999999" Velocity="44" />
      <note Length="0.0104166666666667" Pitch="55" RiffPosition="10.6041666666666" Velocity="51" />
      <note Length="0.0104166666666667" Pitch="58" RiffPosition="10.6145833333333" Velocity="59" />
      <note Length="0.0104166666666667" Pitch="57" RiffPosition="10.6249999999999" Velocity="42" />
      <note Length="0.0104166666666667" Pitch="55" RiffPosition="10.6354166666666" Velocity="48" />
      <note Length="0.0104166666666667" Pitch="55" RiffPosition="10.6458333333333" Velocity="50" />
      <note Length="0.0104166666666667" Pitch="55" RiffPosition="10.6562499999999" Velocity="50" />
      <note Length="0.0104166666666667" Pitch="43" RiffPosition="10.6666666666666" Velocity="52" />
      <note Length="0.0104166666666667" Pitch="43" RiffPosition="10.6770833333333" Velocity="55" />
      <note Length="0.0104166666666667" Pitch="43" RiffPosition="10.6874999999999" Velocity="81" />
      <note Length="0.0104166666666667" Pitch="55" RiffPosition="10.6979166666666" Velocity="114" />
      <note Length="0.0104166666666667" Pitch="43" RiffPosition="10.7083333333333" Velocity="112" />
      <note Length="0.0104166666666667" Pitch="43" RiffPosition="10.7187499999999" Velocity="106" />
      <note Length="0.0104166666666667" Pitch="50" RiffPosition="10.7291666666666" Velocity="94" />
      <note Length="0.0104166666666667" Pitch="50" RiffPosition="10.7395833333333" Velocity="82" />
      <note Length="0.0104166666666667" Pitch="50" RiffPosition="10.7499999999999" Velocity="77" />
      <note Length="0.0104166666666667" Pitch="48" RiffPosition="10.7604166666666" Velocity="67" />
      <note Length="0.0104166666666667" Pitch="43" RiffPosition="10.7708333333333" Velocity="36" />
      <note Length="0.0104166666666667" Pitch="43" RiffPosition="10.7812499999999" Velocity="55" />
      <note Length="0.0104166666666667" Pitch="43" RiffPosition="10.7916666666666" Velocity="53" />
      <note Length="0.0104166666666667" Pitch="43" RiffPosition="10.8020833333333" Velocity="59" />
      <note Length="0.0104166666666667" Pitch="43" RiffPosition="10.8124999999999" Velocity="37" />
      <note Length="0.0104166666666667" Pitch="43" RiffPosition="10.8229166666666" Velocity="40" />
      <note Length="0.0104166666666667" Pitch="43" RiffPosition="10.8333333333333" Velocity="46" />
      <note Length="0.0104166666666667" Pitch="43" RiffPosition="10.8437499999999" Velocity="55" />
      <note Length="0.0104166666666667" Pitch="43" RiffPosition="10.8541666666666" Velocity="36" />
      <note Length="0.0104166666666667" Pitch="43" RiffPosition="10.8645833333333" Velocity="47" />
      <note Length="0.0104166666666667" Pitch="43" RiffPosition="10.8749999999999" Velocity="58" />
      <note Length="0.0104166666666667" Pitch="43" RiffPosition="10.8854166666666" Velocity="69" />
      <note Length="0.0104166666666667" Pitch="43" RiffPosition="10.8958333333333" Velocity="52" />
      <note Length="0.0104166666666667" Pitch="50" RiffPosition="10.9062499999999" Velocity="50" />
      <note Length="0.0104166666666667" Pitch="50" RiffPosition="10.9166666666666" Velocity="52" />
      <note Length="0.0104166666666667" Pitch="50" RiffPosition="10.9270833333333" Velocity="53" />
      <note Length="0.0104166666666667" Pitch="43" RiffPosition="10.9374999999999" Velocity="64" />
      <note Length="0.0104166666666667" Pitch="43" RiffPosition="10.9479166666666" Velocity="60" />
      <note Length="0.0104166666666667" Pitch="51" RiffPosition="10.9583333333333" Velocity="62" />
      <note Length="0.0104166666666667" Pitch="50" RiffPosition="10.9687499999999" Velocity="53" />
      <note Length="0.0104166666666667" Pitch="48" RiffPosition="10.9791666666666" Velocity="42" />
      <note Length="0.0104166666666667" Pitch="48" RiffPosition="10.9895833333333" Velocity="40" />
      <note Length="0.0104166666666667" Pitch="46" RiffPosition="10.9999999999999" Velocity="52" />
      <note Length="0.0104166666666667" Pitch="50" RiffPosition="11.0104166666666" Velocity="0" />
      <note Length="0.0104166666666667" Pitch="43" RiffPosition="11.0208333333333" Velocity="0" />
      <note Length="0.0104166666666667" Pitch="43" RiffPosition="11.0312499999999" Velocity="0" />
      <note Length="0.0104166666666667" Pitch="55" RiffPosition="11.0416666666666" Velocity="0" />
      <note Length="0.0104166666666667" Pitch="57" RiffPosition="11.0520833333333" Velocity="0" />
      <note Length="0.0104166666666667" Pitch="58" RiffPosition="11.0624999999999" Velocity="0" />
      <note Length="0.0104166666666667" Pitch="60" RiffPosition="11.0729166666666" Velocity="0" />
      <note Length="0.0104166666666667" Pitch="60" RiffPosition="11.0833333333332" Velocity="0" />
      <note Length="0.0104166666666667" Pitch="55" RiffPosition="11.0937499999999" Velocity="0" />
      <note Length="0.0104166666666667" Pitch="55" RiffPosition="11.1041666666666" Velocity="0" />
      <note Length="0.0104166666666667" Pitch="55" RiffPosition="11.1145833333332" Velocity="0" />
      <note Length="0.0104166666666667" Pitch="62" RiffPosition="11.1249999999999" Velocity="0" />
      <note Length="0.0104166666666667" Pitch="62" RiffPosition="11.1354166666666" Velocity="0" />
      <note Length="0.0104166666666667" Pitch="62" RiffPosition="11.1458333333332" Velocity="0" />
      <note Length="0.0104166666666667" Pitch="55" RiffPosition="11.1562499999999" Velocity="0" />
      <note Length="0.0104166666666667" Pitch="55" RiffPosition="11.1666666666666" Velocity="0" />
      <note Length="0.0104166666666667" Pitch="55" RiffPosition="11.1770833333332" Velocity="0" />
      <note Length="0.0104166666666667" Pitch="55" RiffPosition="11.1874999999999" Velocity="0" />
      <note Length="0.0104166666666667" Pitch="60" RiffPosition="11.1979166666666" Velocity="0" />
      <note Length="0.0104166666666667" Pitch="58" RiffPosition="11.2083333333332" Velocity="0" />
      <note Length="0.0104166666666667" Pitch="57" RiffPosition="11.2187499999999" Velocity="0" />
      <note Length="0.0104166666666667" Pitch="55" RiffPosition="11.2291666666666" Velocity="0" />
      <note Length="0.0104166666666667" Pitch="43" RiffPosition="11.2395833333332" Velocity="0" />
      <note Length="0.0104166666666667" Pitch="43" RiffPosition="11.2499999999999" Velocity="0" />
      <note Length="0.0104166666666667" Pitch="43" RiffPosition="11.2604166666666" Velocity="0" />
      <note Length="0.0104166666666667" Pitch="43" RiffPosition="11.2708333333332" Velocity="0" />
      <note Length="0.0104166666666667" Pitch="43" RiffPosition="11.2812499999999" Velocity="0" />
      <note Length="0.0104166666666667" Pitch="43" RiffPosition="11.2916666666666" Velocity="0" />
      <note Length="0.0104166666666667" Pitch="43" RiffPosition="11.3020833333332" Velocity="0" />
      <note Length="0.0104166666666667" Pitch="55" RiffPosition="11.3124999999999" Velocity="0" />
      <note Length="0.0104166666666667" Pitch="43" RiffPosition="11.3229166666666" Velocity="0" />
      <note Length="0.0104166666666667" Pitch="57" RiffPosition="11.3333333333332" Velocity="0" />
      <note Length="0.0104166666666667" Pitch="55" RiffPosition="11.3437499999999" Velocity="0" />
      <note Length="0.0104166666666667" Pitch="57" RiffPosition="11.3541666666666" Velocity="0" />
      <note Length="0.0104166666666667" Pitch="55" RiffPosition="11.3645833333332" Velocity="0" />
      <note Length="0.0104166666666667" Pitch="43" RiffPosition="11.3749999999999" Velocity="0" />
      <note Length="0.0104166666666667" Pitch="43" RiffPosition="11.3854166666666" Velocity="0" />
      <note Length="0.0104166666666667" Pitch="43" RiffPosition="11.3958333333332" Velocity="0" />
      <note Length="0.0104166666666667" Pitch="58" RiffPosition="11.4062499999999" Velocity="0" />
      <note Length="0.0104166666666667" Pitch="57" RiffPosition="11.4166666666666" Velocity="0" />
      <note Length="0.0104166666666667" Pitch="55" RiffPosition="11.4270833333332" Velocity="0" />
      <note Length="0.0104166666666667" Pitch="55" RiffPosition="11.4374999999999" Velocity="0" />
      <note Length="0.0104166666666667" Pitch="43" RiffPosition="11.4479166666666" Velocity="0" />
      <note Length="0.0104166666666667" Pitch="43" RiffPosition="11.4583333333332" Velocity="0" />
      <note Length="0.0104166666666667" Pitch="50" RiffPosition="11.4687499999999" Velocity="0" />
      <note Length="0.0104166666666667" Pitch="48" RiffPosition="11.4791666666666" Velocity="0" />
      <note Length="0.0104166666666667" Pitch="50" RiffPosition="11.4895833333332" Velocity="0" />
      <note Length="0.0104166666666667" Pitch="48" RiffPosition="11.4999999999999" Velocity="0" />
      <note Length="0.0104166666666667" Pitch="48" RiffPosition="11.5104166666666" Velocity="0" />
      <note Length="0.0104166666666667" Pitch="46" RiffPosition="11.5208333333332" Velocity="0" />
      <note Length="0.0104166666666667" Pitch="48" RiffPosition="11.5312499999999" Velocity="0" />
      <note Length="0.0104166666666667" Pitch="50" RiffPosition="11.5416666666666" Velocity="0" />
      <note Length="0.0104166666666667" Pitch="50" RiffPosition="11.5520833333332" Velocity="0" />
      <note Length="0.0104166666666667" Pitch="51" RiffPosition="11.5624999999999" Velocity="0" />
      <note Length="0.0104166666666667" Pitch="43" RiffPosition="11.5729166666666" Velocity="0" />
      <note Length="0.0104166666666667" Pitch="43" RiffPosition="11.5833333333332" Velocity="0" />
      <note Length="0.0104166666666667" Pitch="43" RiffPosition="11.5937499999999" Velocity="0" />
      <note Length="0.0104166666666667" Pitch="43" RiffPosition="11.6041666666666" Velocity="0" />
      <note Length="0.0104166666666667" Pitch="43" RiffPosition="11.6145833333332" Velocity="0" />
      <note Length="0.0104166666666667" Pitch="43" RiffPosition="11.6249999999999" Velocity="0" />
      <note Length="0.0104166666666667" Pitch="43" RiffPosition="11.6354166666666" Velocity="0" />
      <note Length="0.0104166666666667" Pitch="43" RiffPosition="11.6458333333332" Velocity="0" />
      <note Length="0.0104166666666667" Pitch="55" RiffPosition="11.6562499999999" Velocity="0" />
      <note Length="0.0104166666666667" Pitch="55" RiffPosition="11.6666666666665" Velocity="0" />
      <note Length="0.0104166666666667" Pitch="55" RiffPosition="11.6770833333332" Velocity="0" />
      <note Length="0.0104166666666667" Pitch="55" RiffPosition="11.6874999999999" Velocity="0" />
      <note Length="0.0104166666666667" Pitch="55" RiffPosition="11.6979166666665" Velocity="0" />
      <note Length="0.0104166666666667" Pitch="43" RiffPosition="11.7083333333332" Velocity="0" />
      <note Length="0.0104166666666667" Pitch="43" RiffPosition="11.7187499999999" Velocity="0" />
      <note Length="0.0104166666666667" Pitch="55" RiffPosition="11.7291666666665" Velocity="0" />
      <note Length="0.0104166666666667" Pitch="55" RiffPosition="11.7395833333332" Velocity="0" />
      <note Length="0.0104166666666667" Pitch="55" RiffPosition="11.7499999999999" Velocity="0" />
      <note Length="0.0104166666666667" Pitch="55" RiffPosition="11.7604166666665" Velocity="0" />
      <note Length="0.0104166666666667" Pitch="55" RiffPosition="11.7708333333332" Velocity="0" />
      <note Length="0.0104166666666667" Pitch="57" RiffPosition="11.7812499999999" Velocity="0" />
      <note Length="0.0104166666666667" Pitch="58" RiffPosition="11.7916666666665" Velocity="0" />
      <note Length="0.0104166666666667" Pitch="60" RiffPosition="11.8020833333332" Velocity="0" />
      <note Length="0.0104166666666667" Pitch="55" RiffPosition="11.8124999999999" Velocity="0" />
      <note Length="0.0104166666666667" Pitch="55" RiffPosition="11.8229166666665" Velocity="0" />
      <note Length="0.0104166666666667" Pitch="55" RiffPosition="11.8333333333332" Velocity="0" />
      <note Length="0.0104166666666667" Pitch="55" RiffPosition="11.8437499999999" Velocity="0" />
      <note Length="0.0104166666666667" Pitch="62" RiffPosition="11.8541666666665" Velocity="0" />
      <note Length="0.0104166666666667" Pitch="60" RiffPosition="11.8645833333332" Velocity="0" />
      <note Length="0.0104166666666667" Pitch="60" RiffPosition="11.8749999999999" Velocity="0" />
      <note Length="0.0104166666666667" Pitch="55" RiffPosition="11.8854166666665" Velocity="0" />
      <note Length="0.0104166666666667" Pitch="62" RiffPosition="11.8958333333332" Velocity="0" />
      <note Length="0.0104166666666667" Pitch="58" RiffPosition="11.9062499999999" Velocity="0" />
      <note Length="0.0104166666666667" Pitch="58" RiffPosition="11.9166666666665" Velocity="0" />
      <note Length="0.0104166666666667" Pitch="58" RiffPosition="11.9270833333332" Velocity="0" />
      <note Length="0.0104166666666667" Pitch="55" RiffPosition="11.9374999999999" Velocity="0" />
      <note Length="0.0104166666666667" Pitch="55" RiffPosition="11.9479166666665" Velocity="0" />
      <note Length="0.0104166666666667" Pitch="43" RiffPosition="11.9583333333332" Velocity="0" />
      <note Length="0.0104166666666667" Pitch="43" RiffPosition="11.9687499999999" Velocity="0" />
      <note Length="0.0104166666666667" Pitch="43" RiffPosition="11.9791666666665" Velocity="0" />
      <note Length="0.0104166666666667" Pitch="50" RiffPosition="11.9895833333332" Velocity="0" />
      <note Length="1.36779476633819E-13" Pitch="50" RiffPosition="11.9999999999999" Velocity="0" />
    </riff>
    <riff IsDrum="True" MidiInstrument="0" Tempo="74" Length="12">
      <note Length="0.03125" Pitch="40" RiffPosition="0" Velocity="0" />
      <note Length="0.03125" Pitch="40" RiffPosition="0.03125" Velocity="0" />
      <note Length="0.03125" Pitch="40" RiffPosition="0.0625" Velocity="0" />
      <note Length="0.03125" Pitch="40" RiffPosition="0.09375" Velocity="0" />
      <note Length="0.03125" Pitch="40" RiffPosition="0.125" Velocity="0" />
      <note Length="0.03125" Pitch="40" RiffPosition="0.15625" Velocity="0" />
      <note Length="0.03125" Pitch="40" RiffPosition="0.1875" Velocity="0" />
      <note Length="0.03125" Pitch="40" RiffPosition="0.21875" Velocity="0" />
      <note Length="0.03125" Pitch="40" RiffPosition="0.25" Velocity="0" />
      <note Length="0.03125" Pitch="40" RiffPosition="0.28125" Velocity="0" />
      <note Length="0.03125" Pitch="40" RiffPosition="0.3125" Velocity="0" />
      <note Length="0.03125" Pitch="40" RiffPosition="0.34375" Velocity="0" />
      <note Length="0.03125" Pitch="40" RiffPosition="0.375" Velocity="0" />
      <note Length="0.03125" Pitch="40" RiffPosition="0.40625" Velocity="0" />
      <note Length="0.03125" Pitch="40" RiffPosition="0.4375" Velocity="0" />
      <note Length="0.03125" Pitch="40" RiffPosition="0.46875" Velocity="0" />
      <note Length="0.03125" Pitch="40" RiffPosition="0.5" Velocity="0" />
      <note Length="0.03125" Pitch="40" RiffPosition="0.53125" Velocity="0" />
      <note Length="0.03125" Pitch="40" RiffPosition="0.5625" Velocity="0" />
      <note Length="0.03125" Pitch="40" RiffPosition="0.59375" Velocity="0" />
      <note Length="0.03125" Pitch="40" RiffPosition="0.625" Velocity="0" />
      <note Length="0.03125" Pitch="40" RiffPosition="0.65625" Velocity="0" />
      <note Length="0.03125" Pitch="40" RiffPosition="0.6875" Velocity="0" />
      <note Length="0.03125" Pitch="40" RiffPosition="0.71875" Velocity="0" />
      <note Length="0.03125" Pitch="40" RiffPosition="0.75" Velocity="0" />
      <note Length="0.03125" Pitch="40" RiffPosition="0.78125" Velocity="0" />
      <note Length="0.03125" Pitch="40" RiffPosition="0.8125" Velocity="0" />
      <note Length="0.03125" Pitch="40" RiffPosition="0.84375" Velocity="0" />
      <note Length="0.03125" Pitch="40" RiffPosition="0.875" Velocity="0" />
      <note Length="0.03125" Pitch="40" RiffPosition="0.90625" Velocity="0" />
      <note Length="0.03125" Pitch="40" RiffPosition="0.9375" Velocity="0" />
      <note Length="0.03125" Pitch="40" RiffPosition="0.96875" Velocity="0" />
      <note Length="0.03125" Pitch="40" RiffPosition="1" Velocity="0" />
      <note Length="0.03125" Pitch="40" RiffPosition="1.03125" Velocity="0" />
      <note Length="0.03125" Pitch="40" RiffPosition="1.0625" Velocity="0" />
      <note Length="0.03125" Pitch="40" RiffPosition="1.09375" Velocity="0" />
      <note Length="0.03125" Pitch="40" RiffPosition="1.125" Velocity="0" />
      <note Length="0.03125" Pitch="40" RiffPosition="1.15625" Velocity="0" />
      <note Length="0.03125" Pitch="40" RiffPosition="1.1875" Velocity="0" />
      <note Length="0.03125" Pitch="40" RiffPosition="1.21875" Velocity="0" />
      <note Length="0.03125" Pitch="40" RiffPosition="1.25" Velocity="0" />
      <note Length="0.03125" Pitch="40" RiffPosition="1.28125" Velocity="0" />
      <note Length="0.03125" Pitch="40" RiffPosition="1.3125" Velocity="0" />
      <note Length="0.03125" Pitch="40" RiffPosition="1.34375" Velocity="0" />
      <note Length="0.03125" Pitch="40" RiffPosition="1.375" Velocity="0" />
      <note Length="0.03125" Pitch="40" RiffPosition="1.40625" Velocity="0" />
      <note Length="0.03125" Pitch="40" RiffPosition="1.4375" Velocity="0" />
      <note Length="0.03125" Pitch="40" RiffPosition="1.46875" Velocity="0" />
      <note Length="0.03125" Pitch="40" RiffPosition="1.5" Velocity="0" />
      <note Length="0.03125" Pitch="40" RiffPosition="1.53125" Velocity="0" />
      <note Length="0.03125" Pitch="40" RiffPosition="1.5625" Velocity="0" />
      <note Length="0.03125" Pitch="40" RiffPosition="1.59375" Velocity="0" />
      <note Length="0.03125" Pitch="40" RiffPosition="1.625" Velocity="0" />
      <note Length="0.03125" Pitch="40" RiffPosition="1.65625" Velocity="0" />
      <note Length="0.03125" Pitch="40" RiffPosition="1.6875" Velocity="0" />
      <note Length="0.03125" Pitch="40" RiffPosition="1.71875" Velocity="0" />
      <note Length="0.03125" Pitch="40" RiffPosition="1.75" Velocity="0" />
      <note Length="0.03125" Pitch="40" RiffPosition="1.78125" Velocity="0" />
      <note Length="0.03125" Pitch="40" RiffPosition="1.8125" Velocity="0" />
      <note Length="0.03125" Pitch="40" RiffPosition="1.84375" Velocity="0" />
      <note Length="0.03125" Pitch="40" RiffPosition="1.875" Velocity="0" />
      <note Length="0.03125" Pitch="40" RiffPosition="1.90625" Velocity="0" />
      <note Length="0.03125" Pitch="40" RiffPosition="1.9375" Velocity="0" />
      <note Length="0.03125" Pitch="40" RiffPosition="1.96875" Velocity="0" />
      <note Length="0.03125" Pitch="40" RiffPosition="2" Velocity="0" />
      <note Length="0.03125" Pitch="40" RiffPosition="2.03125" Velocity="0" />
      <note Length="0.03125" Pitch="40" RiffPosition="2.0625" Velocity="0" />
      <note Length="0.03125" Pitch="40" RiffPosition="2.09375" Velocity="0" />
      <note Length="0.03125" Pitch="40" RiffPosition="2.125" Velocity="0" />
      <note Length="0.03125" Pitch="40" RiffPosition="2.15625" Velocity="0" />
      <note Length="0.03125" Pitch="40" RiffPosition="2.1875" Velocity="0" />
      <note Length="0.03125" Pitch="40" RiffPosition="2.21875" Velocity="0" />
      <note Length="0.03125" Pitch="40" RiffPosition="2.25" Velocity="0" />
      <note Length="0.03125" Pitch="40" RiffPosition="2.28125" Velocity="0" />
      <note Length="0.03125" Pitch="40" RiffPosition="2.3125" Velocity="0" />
      <note Length="0.03125" Pitch="40" RiffPosition="2.34375" Velocity="0" />
      <note Length="0.03125" Pitch="40" RiffPosition="2.375" Velocity="0" />
      <note Length="0.03125" Pitch="40" RiffPosition="2.40625" Velocity="0" />
      <note Length="0.03125" Pitch="40" RiffPosition="2.4375" Velocity="0" />
      <note Length="0.03125" Pitch="40" RiffPosition="2.46875" Velocity="0" />
      <note Length="0.03125" Pitch="40" RiffPosition="2.5" Velocity="0" />
      <note Length="0.03125" Pitch="40" RiffPosition="2.53125" Velocity="0" />
      <note Length="0.03125" Pitch="40" RiffPosition="2.5625" Velocity="0" />
      <note Length="0.03125" Pitch="40" RiffPosition="2.59375" Velocity="0" />
      <note Length="0.03125" Pitch="40" RiffPosition="2.625" Velocity="0" />
      <note Length="0.03125" Pitch="40" RiffPosition="2.65625" Velocity="0" />
      <note Length="0.03125" Pitch="40" RiffPosition="2.6875" Velocity="0" />
      <note Length="0.03125" Pitch="40" RiffPosition="2.71875" Velocity="0" />
      <note Length="0.03125" Pitch="40" RiffPosition="2.75" Velocity="0" />
      <note Length="0.03125" Pitch="40" RiffPosition="2.78125" Velocity="0" />
      <note Length="0.03125" Pitch="40" RiffPosition="2.8125" Velocity="0" />
      <note Length="0.03125" Pitch="40" RiffPosition="2.84375" Velocity="0" />
      <note Length="0.03125" Pitch="40" RiffPosition="2.875" Velocity="0" />
      <note Length="0.03125" Pitch="40" RiffPosition="2.90625" Velocity="0" />
      <note Length="0.03125" Pitch="40" RiffPosition="2.9375" Velocity="0" />
      <note Length="0.03125" Pitch="40" RiffPosition="2.96875" Velocity="0" />
      <note Length="0.03125" Pitch="40" RiffPosition="3" Velocity="0" />
      <note Length="0.03125" Pitch="40" RiffPosition="3.03125" Velocity="0" />
      <note Length="0.03125" Pitch="40" RiffPosition="3.0625" Velocity="0" />
      <note Length="0.03125" Pitch="40" RiffPosition="3.09375" Velocity="0" />
      <note Length="0.03125" Pitch="40" RiffPosition="3.125" Velocity="0" />
      <note Length="0.03125" Pitch="40" RiffPosition="3.15625" Velocity="0" />
      <note Length="0.03125" Pitch="40" RiffPosition="3.1875" Velocity="0" />
      <note Length="0.03125" Pitch="40" RiffPosition="3.21875" Velocity="0" />
      <note Length="0.03125" Pitch="40" RiffPosition="3.25" Velocity="0" />
      <note Length="0.03125" Pitch="40" RiffPosition="3.28125" Velocity="0" />
      <note Length="0.03125" Pitch="40" RiffPosition="3.3125" Velocity="0" />
      <note Length="0.03125" Pitch="40" RiffPosition="3.34375" Velocity="0" />
      <note Length="0.03125" Pitch="40" RiffPosition="3.375" Velocity="0" />
      <note Length="0.03125" Pitch="40" RiffPosition="3.40625" Velocity="0" />
      <note Length="0.03125" Pitch="40" RiffPosition="3.4375" Velocity="0" />
      <note Length="0.03125" Pitch="40" RiffPosition="3.46875" Velocity="0" />
      <note Length="0.03125" Pitch="40" RiffPosition="3.5" Velocity="0" />
      <note Length="0.03125" Pitch="40" RiffPosition="3.53125" Velocity="0" />
      <note Length="0.03125" Pitch="40" RiffPosition="3.5625" Velocity="0" />
      <note Length="0.03125" Pitch="40" RiffPosition="3.59375" Velocity="0" />
      <note Length="0.03125" Pitch="40" RiffPosition="3.625" Velocity="0" />
      <note Length="0.03125" Pitch="40" RiffPosition="3.65625" Velocity="0" />
      <note Length="0.03125" Pitch="40" RiffPosition="3.6875" Velocity="0" />
      <note Length="0.03125" Pitch="40" RiffPosition="3.71875" Velocity="0" />
      <note Length="0.03125" Pitch="40" RiffPosition="3.75" Velocity="0" />
      <note Length="0.03125" Pitch="40" RiffPosition="3.78125" Velocity="0" />
      <note Length="0.03125" Pitch="40" RiffPosition="3.8125" Velocity="0" />
      <note Length="0.03125" Pitch="40" RiffPosition="3.84375" Velocity="0" />
      <note Length="0.03125" Pitch="40" RiffPosition="3.875" Velocity="0" />
      <note Length="0.03125" Pitch="40" RiffPosition="3.90625" Velocity="0" />
      <note Length="0.03125" Pitch="40" RiffPosition="3.9375" Velocity="0" />
      <note Length="0.03125" Pitch="40" RiffPosition="3.96875" Velocity="0" />
      <note Length="0.03125" Pitch="40" RiffPosition="4" Velocity="0" />
      <note Length="0.03125" Pitch="40" RiffPosition="4.03125" Velocity="0" />
      <note Length="0.03125" Pitch="40" RiffPosition="4.0625" Velocity="0" />
      <note Length="0.03125" Pitch="40" RiffPosition="4.09375" Velocity="0" />
      <note Length="0.03125" Pitch="40" RiffPosition="4.125" Velocity="0" />
      <note Length="0.03125" Pitch="40" RiffPosition="4.15625" Velocity="0" />
      <note Length="0.03125" Pitch="40" RiffPosition="4.1875" Velocity="0" />
      <note Length="0.03125" Pitch="40" RiffPosition="4.21875" Velocity="0" />
      <note Length="0.03125" Pitch="40" RiffPosition="4.25" Velocity="0" />
      <note Length="0.03125" Pitch="40" RiffPosition="4.28125" Velocity="0" />
      <note Length="0.03125" Pitch="40" RiffPosition="4.3125" Velocity="0" />
      <note Length="0.03125" Pitch="40" RiffPosition="4.34375" Velocity="0" />
      <note Length="0.03125" Pitch="40" RiffPosition="4.375" Velocity="0" />
      <note Length="0.03125" Pitch="40" RiffPosition="4.40625" Velocity="0" />
      <note Length="0.03125" Pitch="40" RiffPosition="4.4375" Velocity="0" />
      <note Length="0.03125" Pitch="40" RiffPosition="4.46875" Velocity="0" />
      <note Length="0.03125" Pitch="40" RiffPosition="4.5" Velocity="0" />
      <note Length="0.03125" Pitch="40" RiffPosition="4.53125" Velocity="0" />
      <note Length="0.03125" Pitch="40" RiffPosition="4.5625" Velocity="0" />
      <note Length="0.03125" Pitch="40" RiffPosition="4.59375" Velocity="0" />
      <note Length="0.03125" Pitch="40" RiffPosition="4.625" Velocity="0" />
      <note Length="0.03125" Pitch="40" RiffPosition="4.65625" Velocity="0" />
      <note Length="0.03125" Pitch="40" RiffPosition="4.6875" Velocity="0" />
      <note Length="0.03125" Pitch="40" RiffPosition="4.71875" Velocity="0" />
      <note Length="0.03125" Pitch="40" RiffPosition="4.75" Velocity="0" />
      <note Length="0.03125" Pitch="40" RiffPosition="4.78125" Velocity="0" />
      <note Length="0.03125" Pitch="40" RiffPosition="4.8125" Velocity="0" />
      <note Length="0.03125" Pitch="40" RiffPosition="4.84375" Velocity="0" />
      <note Length="0.03125" Pitch="40" RiffPosition="4.875" Velocity="0" />
      <note Length="0.03125" Pitch="40" RiffPosition="4.90625" Velocity="0" />
      <note Length="0.03125" Pitch="40" RiffPosition="4.9375" Velocity="0" />
      <note Length="0.03125" Pitch="40" RiffPosition="4.96875" Velocity="0" />
      <note Length="0.03125" Pitch="40" RiffPosition="5" Velocity="0" />
      <note Length="0.03125" Pitch="40" RiffPosition="5.03125" Velocity="0" />
      <note Length="0.03125" Pitch="40" RiffPosition="5.0625" Velocity="0" />
      <note Length="0.03125" Pitch="40" RiffPosition="5.09375" Velocity="0" />
      <note Length="0.03125" Pitch="40" RiffPosition="5.125" Velocity="0" />
      <note Length="0.03125" Pitch="40" RiffPosition="5.15625" Velocity="0" />
      <note Length="0.03125" Pitch="40" RiffPosition="5.1875" Velocity="0" />
      <note Length="0.03125" Pitch="40" RiffPosition="5.21875" Velocity="0" />
      <note Length="0.03125" Pitch="40" RiffPosition="5.25" Velocity="0" />
      <note Length="0.03125" Pitch="40" RiffPosition="5.28125" Velocity="0" />
      <note Length="0.03125" Pitch="40" RiffPosition="5.3125" Velocity="0" />
      <note Length="0.03125" Pitch="40" RiffPosition="5.34375" Velocity="0" />
      <note Length="0.03125" Pitch="40" RiffPosition="5.375" Velocity="0" />
      <note Length="0.03125" Pitch="40" RiffPosition="5.40625" Velocity="0" />
      <note Length="0.03125" Pitch="40" RiffPosition="5.4375" Velocity="0" />
      <note Length="0.03125" Pitch="40" RiffPosition="5.46875" Velocity="0" />
      <note Length="0.03125" Pitch="40" RiffPosition="5.5" Velocity="0" />
      <note Length="0.03125" Pitch="40" RiffPosition="5.53125" Velocity="0" />
      <note Length="0.03125" Pitch="40" RiffPosition="5.5625" Velocity="0" />
      <note Length="0.03125" Pitch="40" RiffPosition="5.59375" Velocity="0" />
      <note Length="0.03125" Pitch="40" RiffPosition="5.625" Velocity="0" />
      <note Length="0.03125" Pitch="40" RiffPosition="5.65625" Velocity="0" />
      <note Length="0.03125" Pitch="40" RiffPosition="5.6875" Velocity="0" />
      <note Length="0.03125" Pitch="40" RiffPosition="5.71875" Velocity="0" />
      <note Length="0.03125" Pitch="40" RiffPosition="5.75" Velocity="0" />
      <note Length="0.03125" Pitch="40" RiffPosition="5.78125" Velocity="0" />
      <note Length="0.03125" Pitch="40" RiffPosition="5.8125" Velocity="0" />
      <note Length="0.03125" Pitch="40" RiffPosition="5.84375" Velocity="0" />
      <note Length="0.03125" Pitch="40" RiffPosition="5.875" Velocity="0" />
      <note Length="0.03125" Pitch="40" RiffPosition="5.90625" Velocity="0" />
      <note Length="0.03125" Pitch="40" RiffPosition="5.9375" Velocity="0" />
      <note Length="0.03125" Pitch="40" RiffPosition="5.96875" Velocity="0" />
      <note Length="0.03125" Pitch="40" RiffPosition="6" Velocity="0" />
      <note Length="0.03125" Pitch="40" RiffPosition="6.03125" Velocity="0" />
      <note Length="0.03125" Pitch="40" RiffPosition="6.0625" Velocity="0" />
      <note Length="0.03125" Pitch="40" RiffPosition="6.09375" Velocity="0" />
      <note Length="0.03125" Pitch="40" RiffPosition="6.125" Velocity="0" />
      <note Length="0.03125" Pitch="40" RiffPosition="6.15625" Velocity="0" />
      <note Length="0.03125" Pitch="40" RiffPosition="6.1875" Velocity="0" />
      <note Length="0.03125" Pitch="40" RiffPosition="6.21875" Velocity="0" />
      <note Length="0.03125" Pitch="40" RiffPosition="6.25" Velocity="0" />
      <note Length="0.03125" Pitch="40" RiffPosition="6.28125" Velocity="0" />
      <note Length="0.03125" Pitch="40" RiffPosition="6.3125" Velocity="0" />
      <note Length="0.03125" Pitch="40" RiffPosition="6.34375" Velocity="0" />
      <note Length="0.03125" Pitch="40" RiffPosition="6.375" Velocity="0" />
      <note Length="0.03125" Pitch="40" RiffPosition="6.40625" Velocity="0" />
      <note Length="0.03125" Pitch="40" RiffPosition="6.4375" Velocity="0" />
      <note Length="0.03125" Pitch="40" RiffPosition="6.46875" Velocity="0" />
      <note Length="0.03125" Pitch="40" RiffPosition="6.5" Velocity="0" />
      <note Length="0.03125" Pitch="40" RiffPosition="6.53125" Velocity="0" />
      <note Length="0.03125" Pitch="40" RiffPosition="6.5625" Velocity="0" />
      <note Length="0.03125" Pitch="40" RiffPosition="6.59375" Velocity="0" />
      <note Length="0.03125" Pitch="40" RiffPosition="6.625" Velocity="0" />
      <note Length="0.03125" Pitch="40" RiffPosition="6.65625" Velocity="0" />
      <note Length="0.03125" Pitch="40" RiffPosition="6.6875" Velocity="0" />
      <note Length="0.03125" Pitch="40" RiffPosition="6.71875" Velocity="0" />
      <note Length="0.03125" Pitch="40" RiffPosition="6.75" Velocity="0" />
      <note Length="0.03125" Pitch="40" RiffPosition="6.78125" Velocity="0" />
      <note Length="0.03125" Pitch="40" RiffPosition="6.8125" Velocity="0" />
      <note Length="0.03125" Pitch="40" RiffPosition="6.84375" Velocity="0" />
      <note Length="0.03125" Pitch="40" RiffPosition="6.875" Velocity="0" />
      <note Length="0.03125" Pitch="40" RiffPosition="6.90625" Velocity="0" />
      <note Length="0.03125" Pitch="40" RiffPosition="6.9375" Velocity="0" />
      <note Length="0.03125" Pitch="40" RiffPosition="6.96875" Velocity="0" />
      <note Length="0.03125" Pitch="40" RiffPosition="7" Velocity="0" />
      <note Length="0.03125" Pitch="40" RiffPosition="7.03125" Velocity="0" />
      <note Length="0.03125" Pitch="40" RiffPosition="7.0625" Velocity="0" />
      <note Length="0.03125" Pitch="40" RiffPosition="7.09375" Velocity="0" />
      <note Length="0.03125" Pitch="40" RiffPosition="7.125" Velocity="0" />
      <note Length="0.03125" Pitch="40" RiffPosition="7.15625" Velocity="0" />
      <note Length="0.03125" Pitch="40" RiffPosition="7.1875" Velocity="0" />
      <note Length="0.03125" Pitch="40" RiffPosition="7.21875" Velocity="0" />
      <note Length="0.03125" Pitch="40" RiffPosition="7.25" Velocity="0" />
      <note Length="0.03125" Pitch="40" RiffPosition="7.28125" Velocity="0" />
      <note Length="0.03125" Pitch="40" RiffPosition="7.3125" Velocity="0" />
      <note Length="0.03125" Pitch="40" RiffPosition="7.34375" Velocity="0" />
      <note Length="0.03125" Pitch="40" RiffPosition="7.375" Velocity="0" />
      <note Length="0.03125" Pitch="40" RiffPosition="7.40625" Velocity="0" />
      <note Length="0.03125" Pitch="40" RiffPosition="7.4375" Velocity="0" />
      <note Length="0.03125" Pitch="40" RiffPosition="7.46875" Velocity="0" />
      <note Length="0.03125" Pitch="40" RiffPosition="7.5" Velocity="0" />
      <note Length="0.03125" Pitch="40" RiffPosition="7.53125" Velocity="0" />
      <note Length="0.03125" Pitch="40" RiffPosition="7.5625" Velocity="0" />
      <note Length="0.03125" Pitch="40" RiffPosition="7.59375" Velocity="0" />
      <note Length="0.03125" Pitch="40" RiffPosition="7.625" Velocity="0" />
      <note Length="0.03125" Pitch="40" RiffPosition="7.65625" Velocity="0" />
      <note Length="0.03125" Pitch="40" RiffPosition="7.6875" Velocity="0" />
      <note Length="0.03125" Pitch="40" RiffPosition="7.71875" Velocity="0" />
      <note Length="0.03125" Pitch="40" RiffPosition="7.75" Velocity="0" />
      <note Length="0.03125" Pitch="40" RiffPosition="7.78125" Velocity="0" />
      <note Length="0.03125" Pitch="40" RiffPosition="7.8125" Velocity="0" />
      <note Length="0.03125" Pitch="40" RiffPosition="7.84375" Velocity="0" />
      <note Length="0.03125" Pitch="40" RiffPosition="7.875" Velocity="0" />
      <note Length="0.03125" Pitch="40" RiffPosition="7.90625" Velocity="0" />
      <note Length="0.03125" Pitch="40" RiffPosition="7.9375" Velocity="0" />
      <note Length="0.03125" Pitch="40" RiffPosition="7.96875" Velocity="0" />
      <note Length="0.03125" Pitch="40" RiffPosition="8" Velocity="0" />
      <note Length="0.03125" Pitch="40" RiffPosition="8.03125" Velocity="0" />
      <note Length="0.03125" Pitch="40" RiffPosition="8.0625" Velocity="0" />
      <note Length="0.03125" Pitch="40" RiffPosition="8.09375" Velocity="0" />
      <note Length="0.03125" Pitch="40" RiffPosition="8.125" Velocity="0" />
      <note Length="0.03125" Pitch="40" RiffPosition="8.15625" Velocity="0" />
      <note Length="0.03125" Pitch="40" RiffPosition="8.1875" Velocity="0" />
      <note Length="0.03125" Pitch="40" RiffPosition="8.21875" Velocity="0" />
      <note Length="0.03125" Pitch="40" RiffPosition="8.25" Velocity="0" />
      <note Length="0.03125" Pitch="40" RiffPosition="8.28125" Velocity="0" />
      <note Length="0.03125" Pitch="40" RiffPosition="8.3125" Velocity="0" />
      <note Length="0.03125" Pitch="40" RiffPosition="8.34375" Velocity="0" />
      <note Length="0.03125" Pitch="40" RiffPosition="8.375" Velocity="0" />
      <note Length="0.03125" Pitch="40" RiffPosition="8.40625" Velocity="0" />
      <note Length="0.03125" Pitch="40" RiffPosition="8.4375" Velocity="0" />
      <note Length="0.03125" Pitch="40" RiffPosition="8.46875" Velocity="0" />
      <note Length="0.03125" Pitch="40" RiffPosition="8.5" Velocity="0" />
      <note Length="0.03125" Pitch="40" RiffPosition="8.53125" Velocity="0" />
      <note Length="0.03125" Pitch="40" RiffPosition="8.5625" Velocity="0" />
      <note Length="0.03125" Pitch="40" RiffPosition="8.59375" Velocity="0" />
      <note Length="0.03125" Pitch="40" RiffPosition="8.625" Velocity="0" />
      <note Length="0.03125" Pitch="40" RiffPosition="8.65625" Velocity="0" />
      <note Length="0.03125" Pitch="40" RiffPosition="8.6875" Velocity="0" />
      <note Length="0.03125" Pitch="40" RiffPosition="8.71875" Velocity="0" />
      <note Length="0.03125" Pitch="40" RiffPosition="8.75" Velocity="0" />
      <note Length="0.03125" Pitch="40" RiffPosition="8.78125" Velocity="0" />
      <note Length="0.03125" Pitch="40" RiffPosition="8.8125" Velocity="0" />
      <note Length="0.03125" Pitch="40" RiffPosition="8.84375" Velocity="0" />
      <note Length="0.03125" Pitch="40" RiffPosition="8.875" Velocity="0" />
      <note Length="0.03125" Pitch="40" RiffPosition="8.90625" Velocity="0" />
      <note Length="0.03125" Pitch="40" RiffPosition="8.9375" Velocity="0" />
      <note Length="0.03125" Pitch="40" RiffPosition="8.96875" Velocity="0" />
      <note Length="0.03125" Pitch="40" RiffPosition="9" Velocity="0" />
      <note Length="0.03125" Pitch="40" RiffPosition="9.03125" Velocity="105" />
      <note Length="0.03125" Pitch="40" RiffPosition="9.0625" Velocity="0" />
      <note Length="0.03125" Pitch="40" RiffPosition="9.09375" Velocity="105" />
      <note Length="0.03125" Pitch="40" RiffPosition="9.125" Velocity="0" />
      <note Length="0.03125" Pitch="40" RiffPosition="9.15625" Velocity="105" />
      <note Length="0.03125" Pitch="40" RiffPosition="9.1875" Velocity="0" />
      <note Length="0.03125" Pitch="40" RiffPosition="9.21875" Velocity="105" />
      <note Length="0.03125" Pitch="40" RiffPosition="9.25" Velocity="0" />
      <note Length="0.03125" Pitch="40" RiffPosition="9.28125" Velocity="105" />
      <note Length="0.03125" Pitch="40" RiffPosition="9.3125" Velocity="0" />
      <note Length="0.03125" Pitch="40" RiffPosition="9.34375" Velocity="105" />
      <note Length="0.03125" Pitch="40" RiffPosition="9.375" Velocity="0" />
      <note Length="0.03125" Pitch="40" RiffPosition="9.40625" Velocity="105" />
      <note Length="0.03125" Pitch="40" RiffPosition="9.4375" Velocity="0" />
      <note Length="0.03125" Pitch="40" RiffPosition="9.46875" Velocity="105" />
      <note Length="0.03125" Pitch="40" RiffPosition="9.5" Velocity="0" />
      <note Length="0.03125" Pitch="40" RiffPosition="9.53125" Velocity="105" />
      <note Length="0.03125" Pitch="40" RiffPosition="9.5625" Velocity="0" />
      <note Length="0.03125" Pitch="40" RiffPosition="9.59375" Velocity="105" />
      <note Length="0.03125" Pitch="40" RiffPosition="9.625" Velocity="0" />
      <note Length="0.03125" Pitch="40" RiffPosition="9.65625" Velocity="105" />
      <note Length="0.03125" Pitch="40" RiffPosition="9.6875" Velocity="0" />
      <note Length="0.03125" Pitch="40" RiffPosition="9.71875" Velocity="105" />
      <note Length="0.03125" Pitch="40" RiffPosition="9.75" Velocity="0" />
      <note Length="0.03125" Pitch="40" RiffPosition="9.78125" Velocity="105" />
      <note Length="0.03125" Pitch="40" RiffPosition="9.8125" Velocity="0" />
      <note Length="0.03125" Pitch="40" RiffPosition="9.84375" Velocity="105" />
      <note Length="0.03125" Pitch="40" RiffPosition="9.875" Velocity="0" />
      <note Length="0.03125" Pitch="40" RiffPosition="9.90625" Velocity="105" />
      <note Length="0.03125" Pitch="40" RiffPosition="9.9375" Velocity="0" />
      <note Length="0.03125" Pitch="40" RiffPosition="9.96875" Velocity="105" />
      <note Length="0.03125" Pitch="40" RiffPosition="10" Velocity="0" />
      <note Length="0.03125" Pitch="40" RiffPosition="10.03125" Velocity="105" />
      <note Length="0.03125" Pitch="40" RiffPosition="10.0625" Velocity="0" />
      <note Length="0.03125" Pitch="40" RiffPosition="10.09375" Velocity="105" />
      <note Length="0.03125" Pitch="40" RiffPosition="10.125" Velocity="0" />
      <note Length="0.03125" Pitch="40" RiffPosition="10.15625" Velocity="105" />
      <note Length="0.03125" Pitch="40" RiffPosition="10.1875" Velocity="0" />
      <note Length="0.03125" Pitch="40" RiffPosition="10.21875" Velocity="105" />
      <note Length="0.03125" Pitch="40" RiffPosition="10.25" Velocity="0" />
      <note Length="0.03125" Pitch="40" RiffPosition="10.28125" Velocity="105" />
      <note Length="0.03125" Pitch="40" RiffPosition="10.3125" Velocity="0" />
      <note Length="0.03125" Pitch="40" RiffPosition="10.34375" Velocity="105" />
      <note Length="0.03125" Pitch="40" RiffPosition="10.375" Velocity="0" />
      <note Length="0.03125" Pitch="40" RiffPosition="10.40625" Velocity="105" />
      <note Length="0.03125" Pitch="40" RiffPosition="10.4375" Velocity="0" />
      <note Length="0.03125" Pitch="40" RiffPosition="10.46875" Velocity="105" />
      <note Length="0.03125" Pitch="40" RiffPosition="10.5" Velocity="0" />
      <note Length="0.03125" Pitch="40" RiffPosition="10.53125" Velocity="105" />
      <note Length="0.03125" Pitch="40" RiffPosition="10.5625" Velocity="0" />
      <note Length="0.03125" Pitch="40" RiffPosition="10.59375" Velocity="105" />
      <note Length="0.03125" Pitch="40" RiffPosition="10.625" Velocity="0" />
      <note Length="0.03125" Pitch="40" RiffPosition="10.65625" Velocity="105" />
      <note Length="0.03125" Pitch="40" RiffPosition="10.6875" Velocity="0" />
      <note Length="0.03125" Pitch="40" RiffPosition="10.71875" Velocity="105" />
      <note Length="0.03125" Pitch="40" RiffPosition="10.75" Velocity="0" />
      <note Length="0.03125" Pitch="40" RiffPosition="10.78125" Velocity="105" />
      <note Length="0.03125" Pitch="40" RiffPosition="10.8125" Velocity="0" />
      <note Length="0.03125" Pitch="40" RiffPosition="10.84375" Velocity="105" />
      <note Length="0.03125" Pitch="40" RiffPosition="10.875" Velocity="0" />
      <note Length="0.03125" Pitch="40" RiffPosition="10.90625" Velocity="105" />
      <note Length="0.03125" Pitch="40" RiffPosition="10.9375" Velocity="0" />
      <note Length="0.03125" Pitch="40" RiffPosition="10.96875" Velocity="105" />
      <note Length="0.03125" Pitch="40" RiffPosition="11" Velocity="0" />
      <note Length="0.03125" Pitch="40" RiffPosition="11.03125" Velocity="0" />
      <note Length="0.03125" Pitch="40" RiffPosition="11.0625" Velocity="0" />
      <note Length="0.03125" Pitch="40" RiffPosition="11.09375" Velocity="0" />
      <note Length="0.03125" Pitch="40" RiffPosition="11.125" Velocity="0" />
      <note Length="0.03125" Pitch="40" RiffPosition="11.15625" Velocity="0" />
      <note Length="0.03125" Pitch="40" RiffPosition="11.1875" Velocity="0" />
      <note Length="0.03125" Pitch="40" RiffPosition="11.21875" Velocity="0" />
      <note Length="0.03125" Pitch="40" RiffPosition="11.25" Velocity="0" />
      <note Length="0.03125" Pitch="40" RiffPosition="11.28125" Velocity="0" />
      <note Length="0.03125" Pitch="40" RiffPosition="11.3125" Velocity="0" />
      <note Length="0.03125" Pitch="40" RiffPosition="11.34375" Velocity="0" />
      <note Length="0.03125" Pitch="40" RiffPosition="11.375" Velocity="0" />
      <note Length="0.03125" Pitch="40" RiffPosition="11.40625" Velocity="0" />
      <note Length="0.03125" Pitch="40" RiffPosition="11.4375" Velocity="0" />
      <note Length="0.03125" Pitch="40" RiffPosition="11.46875" Velocity="0" />
      <note Length="0.03125" Pitch="40" RiffPosition="11.5" Velocity="0" />
      <note Length="0.03125" Pitch="40" RiffPosition="11.53125" Velocity="0" />
      <note Length="0.03125" Pitch="40" RiffPosition="11.5625" Velocity="0" />
      <note Length="0.03125" Pitch="40" RiffPosition="11.59375" Velocity="0" />
      <note Length="0.03125" Pitch="40" RiffPosition="11.625" Velocity="0" />
      <note Length="0.03125" Pitch="40" RiffPosition="11.65625" Velocity="0" />
      <note Length="0.03125" Pitch="40" RiffPosition="11.6875" Velocity="0" />
      <note Length="0.03125" Pitch="40" RiffPosition="11.71875" Velocity="0" />
      <note Length="0.03125" Pitch="40" RiffPosition="11.75" Velocity="0" />
      <note Length="0.03125" Pitch="40" RiffPosition="11.78125" Velocity="0" />
      <note Length="0.03125" Pitch="40" RiffPosition="11.8125" Velocity="0" />
      <note Length="0.03125" Pitch="40" RiffPosition="11.84375" Velocity="0" />
      <note Length="0.03125" Pitch="40" RiffPosition="11.875" Velocity="0" />
      <note Length="0.03125" Pitch="40" RiffPosition="11.90625" Velocity="0" />
      <note Length="0.03125" Pitch="40" RiffPosition="11.9375" Velocity="0" />
      <note Length="0.03125" Pitch="40" RiffPosition="11.96875" Velocity="0" />
    </riff>
    <riff IsDrum="True" MidiInstrument="0" Tempo="142" Length="12">
      <note Length="0.0234375" Pitch="35" RiffPosition="0" Velocity="0" />
      <note Length="0.0078125" Pitch="35" RiffPosition="0.0234375" Velocity="0" />
      <note Length="0.03125" Pitch="35" RiffPosition="0.03125" Velocity="0" />
      <note Length="0.015625" Pitch="35" RiffPosition="0.0625" Velocity="0" />
      <note Length="0.015625" Pitch="35" RiffPosition="0.078125" Velocity="0" />
      <note Length="0.03125" Pitch="35" RiffPosition="0.09375" Velocity="0" />
      <note Length="0.0625" Pitch="35" RiffPosition="0.125" Velocity="0" />
      <note Length="0.0625" Pitch="35" RiffPosition="0.1875" Velocity="0" />
      <note Length="0.25" Pitch="35" RiffPosition="0.25" Velocity="0" />
      <note Length="0.0234375" Pitch="35" RiffPosition="0.5" Velocity="0" />
      <note Length="0.0078125" Pitch="35" RiffPosition="0.5234375" Velocity="0" />
      <note Length="0.03125" Pitch="35" RiffPosition="0.53125" Velocity="0" />
      <note Length="0.015625" Pitch="35" RiffPosition="0.5625" Velocity="0" />
      <note Length="0.015625" Pitch="35" RiffPosition="0.578125" Velocity="0" />
      <note Length="0.03125" Pitch="35" RiffPosition="0.59375" Velocity="0" />
      <note Length="0.0625" Pitch="35" RiffPosition="0.625" Velocity="0" />
      <note Length="0.0625" Pitch="35" RiffPosition="0.6875" Velocity="0" />
      <note Length="0.25" Pitch="35" RiffPosition="0.75" Velocity="0" />
      <note Length="0.0234375" Pitch="35" RiffPosition="1" Velocity="0" />
      <note Length="0.0078125" Pitch="35" RiffPosition="1.0234375" Velocity="0" />
      <note Length="0.03125" Pitch="35" RiffPosition="1.03125" Velocity="0" />
      <note Length="0.015625" Pitch="35" RiffPosition="1.0625" Velocity="0" />
      <note Length="0.015625" Pitch="35" RiffPosition="1.078125" Velocity="0" />
      <note Length="0.03125" Pitch="35" RiffPosition="1.09375" Velocity="0" />
      <note Length="0.0625" Pitch="35" RiffPosition="1.125" Velocity="0" />
      <note Length="0.0625" Pitch="35" RiffPosition="1.1875" Velocity="0" />
      <note Length="0.25" Pitch="35" RiffPosition="1.25" Velocity="0" />
      <note Length="0.0234375" Pitch="35" RiffPosition="1.5" Velocity="0" />
      <note Length="0.0078125" Pitch="35" RiffPosition="1.5234375" Velocity="0" />
      <note Length="0.03125" Pitch="35" RiffPosition="1.53125" Velocity="0" />
      <note Length="0.015625" Pitch="35" RiffPosition="1.5625" Velocity="0" />
      <note Length="0.015625" Pitch="35" RiffPosition="1.578125" Velocity="0" />
      <note Length="0.03125" Pitch="35" RiffPosition="1.59375" Velocity="0" />
      <note Length="0.0625" Pitch="35" RiffPosition="1.625" Velocity="0" />
      <note Length="0.0625" Pitch="35" RiffPosition="1.6875" Velocity="0" />
      <note Length="0.25" Pitch="35" RiffPosition="1.75" Velocity="0" />
      <note Length="0.0234375" Pitch="35" RiffPosition="2" Velocity="0" />
      <note Length="0.0078125" Pitch="35" RiffPosition="2.0234375" Velocity="0" />
      <note Length="0.03125" Pitch="35" RiffPosition="2.03125" Velocity="0" />
      <note Length="0.015625" Pitch="35" RiffPosition="2.0625" Velocity="0" />
      <note Length="0.015625" Pitch="35" RiffPosition="2.078125" Velocity="0" />
      <note Length="0.03125" Pitch="35" RiffPosition="2.09375" Velocity="0" />
      <note Length="0.0625" Pitch="35" RiffPosition="2.125" Velocity="0" />
      <note Length="0.0625" Pitch="35" RiffPosition="2.1875" Velocity="0" />
      <note Length="0.25" Pitch="35" RiffPosition="2.25" Velocity="0" />
      <note Length="0.0234375" Pitch="35" RiffPosition="2.5" Velocity="0" />
      <note Length="0.0078125" Pitch="35" RiffPosition="2.5234375" Velocity="0" />
      <note Length="0.03125" Pitch="35" RiffPosition="2.53125" Velocity="0" />
      <note Length="0.015625" Pitch="35" RiffPosition="2.5625" Velocity="0" />
      <note Length="0.015625" Pitch="35" RiffPosition="2.578125" Velocity="0" />
      <note Length="0.03125" Pitch="35" RiffPosition="2.59375" Velocity="0" />
      <note Length="0.0625" Pitch="35" RiffPosition="2.625" Velocity="0" />
      <note Length="0.0625" Pitch="35" RiffPosition="2.6875" Velocity="0" />
      <note Length="0.25" Pitch="35" RiffPosition="2.75" Velocity="0" />
      <note Length="0.0234375" Pitch="35" RiffPosition="3" Velocity="0" />
      <note Length="0.0078125" Pitch="35" RiffPosition="3.0234375" Velocity="0" />
      <note Length="0.03125" Pitch="35" RiffPosition="3.03125" Velocity="0" />
      <note Length="0.015625" Pitch="35" RiffPosition="3.0625" Velocity="0" />
      <note Length="0.015625" Pitch="35" RiffPosition="3.078125" Velocity="0" />
      <note Length="0.03125" Pitch="35" RiffPosition="3.09375" Velocity="0" />
      <note Length="0.0625" Pitch="35" RiffPosition="3.125" Velocity="0" />
      <note Length="0.0625" Pitch="35" RiffPosition="3.1875" Velocity="0" />
      <note Length="0.25" Pitch="35" RiffPosition="3.25" Velocity="0" />
      <note Length="0.0234375" Pitch="35" RiffPosition="3.5" Velocity="0" />
      <note Length="0.0078125" Pitch="35" RiffPosition="3.5234375" Velocity="0" />
      <note Length="0.03125" Pitch="35" RiffPosition="3.53125" Velocity="0" />
      <note Length="0.015625" Pitch="35" RiffPosition="3.5625" Velocity="0" />
      <note Length="0.015625" Pitch="35" RiffPosition="3.578125" Velocity="0" />
      <note Length="0.03125" Pitch="35" RiffPosition="3.59375" Velocity="0" />
      <note Length="0.0625" Pitch="35" RiffPosition="3.625" Velocity="0" />
      <note Length="0.0625" Pitch="35" RiffPosition="3.6875" Velocity="0" />
      <note Length="0.25" Pitch="35" RiffPosition="3.75" Velocity="0" />
      <note Length="0.0234375" Pitch="35" RiffPosition="4" Velocity="0" />
      <note Length="0.0078125" Pitch="35" RiffPosition="4.0234375" Velocity="0" />
      <note Length="0.03125" Pitch="35" RiffPosition="4.03125" Velocity="0" />
      <note Length="0.015625" Pitch="35" RiffPosition="4.0625" Velocity="0" />
      <note Length="0.015625" Pitch="35" RiffPosition="4.078125" Velocity="0" />
      <note Length="0.03125" Pitch="35" RiffPosition="4.09375" Velocity="0" />
      <note Length="0.0625" Pitch="35" RiffPosition="4.125" Velocity="0" />
      <note Length="0.0625" Pitch="35" RiffPosition="4.1875" Velocity="0" />
      <note Length="0.25" Pitch="35" RiffPosition="4.25" Velocity="0" />
      <note Length="0.0234375" Pitch="35" RiffPosition="4.5" Velocity="0" />
      <note Length="0.0078125" Pitch="35" RiffPosition="4.5234375" Velocity="0" />
      <note Length="0.03125" Pitch="35" RiffPosition="4.53125" Velocity="0" />
      <note Length="0.015625" Pitch="35" RiffPosition="4.5625" Velocity="0" />
      <note Length="0.015625" Pitch="35" RiffPosition="4.578125" Velocity="0" />
      <note Length="0.03125" Pitch="35" RiffPosition="4.59375" Velocity="0" />
      <note Length="0.0625" Pitch="35" RiffPosition="4.625" Velocity="0" />
      <note Length="0.0625" Pitch="35" RiffPosition="4.6875" Velocity="0" />
      <note Length="0.25" Pitch="35" RiffPosition="4.75" Velocity="0" />
      <note Length="0.0234375" Pitch="35" RiffPosition="5" Velocity="0" />
      <note Length="0.0078125" Pitch="35" RiffPosition="5.0234375" Velocity="0" />
      <note Length="0.03125" Pitch="35" RiffPosition="5.03125" Velocity="0" />
      <note Length="0.015625" Pitch="35" RiffPosition="5.0625" Velocity="0" />
      <note Length="0.015625" Pitch="35" RiffPosition="5.078125" Velocity="0" />
      <note Length="0.03125" Pitch="35" RiffPosition="5.09375" Velocity="0" />
      <note Length="0.0625" Pitch="35" RiffPosition="5.125" Velocity="0" />
      <note Length="0.0625" Pitch="35" RiffPosition="5.1875" Velocity="0" />
      <note Length="0.25" Pitch="35" RiffPosition="5.25" Velocity="0" />
      <note Length="0.0234375" Pitch="35" RiffPosition="5.5" Velocity="0" />
      <note Length="0.0078125" Pitch="35" RiffPosition="5.5234375" Velocity="0" />
      <note Length="0.03125" Pitch="35" RiffPosition="5.53125" Velocity="0" />
      <note Length="0.015625" Pitch="35" RiffPosition="5.5625" Velocity="0" />
      <note Length="0.015625" Pitch="35" RiffPosition="5.578125" Velocity="0" />
      <note Length="0.03125" Pitch="35" RiffPosition="5.59375" Velocity="0" />
      <note Length="0.0625" Pitch="35" RiffPosition="5.625" Velocity="0" />
      <note Length="0.0625" Pitch="35" RiffPosition="5.6875" Velocity="0" />
      <note Length="0.25" Pitch="35" RiffPosition="5.75" Velocity="0" />
      <note Length="0.0234375" Pitch="35" RiffPosition="6" Velocity="0" />
      <note Length="0.0078125" Pitch="35" RiffPosition="6.0234375" Velocity="0" />
      <note Length="0.03125" Pitch="35" RiffPosition="6.03125" Velocity="0" />
      <note Length="0.015625" Pitch="35" RiffPosition="6.0625" Velocity="0" />
      <note Length="0.015625" Pitch="35" RiffPosition="6.078125" Velocity="0" />
      <note Length="0.03125" Pitch="35" RiffPosition="6.09375" Velocity="0" />
      <note Length="0.0625" Pitch="35" RiffPosition="6.125" Velocity="0" />
      <note Length="0.0625" Pitch="35" RiffPosition="6.1875" Velocity="0" />
      <note Length="0.25" Pitch="35" RiffPosition="6.25" Velocity="0" />
      <note Length="0.0234375" Pitch="35" RiffPosition="6.5" Velocity="0" />
      <note Length="0.0078125" Pitch="35" RiffPosition="6.5234375" Velocity="0" />
      <note Length="0.03125" Pitch="35" RiffPosition="6.53125" Velocity="0" />
      <note Length="0.015625" Pitch="35" RiffPosition="6.5625" Velocity="0" />
      <note Length="0.015625" Pitch="35" RiffPosition="6.578125" Velocity="0" />
      <note Length="0.03125" Pitch="35" RiffPosition="6.59375" Velocity="0" />
      <note Length="0.0625" Pitch="35" RiffPosition="6.625" Velocity="0" />
      <note Length="0.0625" Pitch="35" RiffPosition="6.6875" Velocity="0" />
      <note Length="0.25" Pitch="35" RiffPosition="6.75" Velocity="0" />
      <note Length="0.0234375" Pitch="35" RiffPosition="7" Velocity="0" />
      <note Length="0.0078125" Pitch="35" RiffPosition="7.0234375" Velocity="0" />
      <note Length="0.03125" Pitch="35" RiffPosition="7.03125" Velocity="0" />
      <note Length="0.015625" Pitch="35" RiffPosition="7.0625" Velocity="0" />
      <note Length="0.015625" Pitch="35" RiffPosition="7.078125" Velocity="0" />
      <note Length="0.03125" Pitch="35" RiffPosition="7.09375" Velocity="0" />
      <note Length="0.0625" Pitch="35" RiffPosition="7.125" Velocity="0" />
      <note Length="0.0625" Pitch="35" RiffPosition="7.1875" Velocity="0" />
      <note Length="0.25" Pitch="35" RiffPosition="7.25" Velocity="0" />
      <note Length="0.0234375" Pitch="35" RiffPosition="7.5" Velocity="0" />
      <note Length="0.0078125" Pitch="35" RiffPosition="7.5234375" Velocity="0" />
      <note Length="0.03125" Pitch="35" RiffPosition="7.53125" Velocity="0" />
      <note Length="0.015625" Pitch="35" RiffPosition="7.5625" Velocity="0" />
      <note Length="0.015625" Pitch="35" RiffPosition="7.578125" Velocity="0" />
      <note Length="0.03125" Pitch="35" RiffPosition="7.59375" Velocity="0" />
      <note Length="0.0625" Pitch="35" RiffPosition="7.625" Velocity="0" />
      <note Length="0.0625" Pitch="35" RiffPosition="7.6875" Velocity="0" />
      <note Length="0.25" Pitch="35" RiffPosition="7.75" Velocity="0" />
      <note Length="0.0234375" Pitch="35" RiffPosition="8" Velocity="0" />
      <note Length="0.0078125" Pitch="35" RiffPosition="8.0234375" Velocity="0" />
      <note Length="0.03125" Pitch="35" RiffPosition="8.03125" Velocity="0" />
      <note Length="0.015625" Pitch="35" RiffPosition="8.0625" Velocity="0" />
      <note Length="0.015625" Pitch="35" RiffPosition="8.078125" Velocity="0" />
      <note Length="0.03125" Pitch="35" RiffPosition="8.09375" Velocity="0" />
      <note Length="0.0625" Pitch="35" RiffPosition="8.125" Velocity="0" />
      <note Length="0.0625" Pitch="35" RiffPosition="8.1875" Velocity="0" />
      <note Length="0.25" Pitch="35" RiffPosition="8.25" Velocity="0" />
      <note Length="0.0234375" Pitch="35" RiffPosition="8.5" Velocity="0" />
      <note Length="0.0078125" Pitch="35" RiffPosition="8.5234375" Velocity="0" />
      <note Length="0.03125" Pitch="35" RiffPosition="8.53125" Velocity="0" />
      <note Length="0.015625" Pitch="35" RiffPosition="8.5625" Velocity="0" />
      <note Length="0.015625" Pitch="35" RiffPosition="8.578125" Velocity="0" />
      <note Length="0.03125" Pitch="35" RiffPosition="8.59375" Velocity="0" />
      <note Length="0.0625" Pitch="35" RiffPosition="8.625" Velocity="0" />
      <note Length="0.0625" Pitch="35" RiffPosition="8.6875" Velocity="0" />
      <note Length="0.25" Pitch="35" RiffPosition="8.75" Velocity="0" />
      <note Length="0.0234375" Pitch="35" RiffPosition="9" Velocity="127" />
      <note Length="0.0078125" Pitch="35" RiffPosition="9.0234375" Velocity="127" />
      <note Length="0.03125" Pitch="35" RiffPosition="9.03125" Velocity="127" />
      <note Length="0.015625" Pitch="35" RiffPosition="9.0625" Velocity="127" />
      <note Length="0.015625" Pitch="35" RiffPosition="9.078125" Velocity="127" />
      <note Length="0.03125" Pitch="35" RiffPosition="9.09375" Velocity="127" />
      <note Length="0.0625" Pitch="35" RiffPosition="9.125" Velocity="127" />
      <note Length="0.0625" Pitch="35" RiffPosition="9.1875" Velocity="127" />
      <note Length="0.25" Pitch="35" RiffPosition="9.25" Velocity="127" />
      <note Length="0.0234375" Pitch="35" RiffPosition="9.5" Velocity="127" />
      <note Length="0.0078125" Pitch="35" RiffPosition="9.5234375" Velocity="127" />
      <note Length="0.03125" Pitch="35" RiffPosition="9.53125" Velocity="127" />
      <note Length="0.015625" Pitch="35" RiffPosition="9.5625" Velocity="127" />
      <note Length="0.015625" Pitch="35" RiffPosition="9.578125" Velocity="127" />
      <note Length="0.03125" Pitch="35" RiffPosition="9.59375" Velocity="127" />
      <note Length="0.0625" Pitch="35" RiffPosition="9.625" Velocity="127" />
      <note Length="0.0625" Pitch="35" RiffPosition="9.6875" Velocity="127" />
      <note Length="0.25" Pitch="35" RiffPosition="9.75" Velocity="127" />
      <note Length="0.0234375" Pitch="35" RiffPosition="10" Velocity="127" />
      <note Length="0.0078125" Pitch="35" RiffPosition="10.0234375" Velocity="127" />
      <note Length="0.03125" Pitch="35" RiffPosition="10.03125" Velocity="127" />
      <note Length="0.015625" Pitch="35" RiffPosition="10.0625" Velocity="127" />
      <note Length="0.015625" Pitch="35" RiffPosition="10.078125" Velocity="127" />
      <note Length="0.03125" Pitch="35" RiffPosition="10.09375" Velocity="127" />
      <note Length="0.0625" Pitch="35" RiffPosition="10.125" Velocity="127" />
      <note Length="0.0625" Pitch="35" RiffPosition="10.1875" Velocity="127" />
      <note Length="0.25" Pitch="35" RiffPosition="10.25" Velocity="127" />
      <note Length="0.0234375" Pitch="35" RiffPosition="10.5" Velocity="127" />
      <note Length="0.0078125" Pitch="35" RiffPosition="10.5234375" Velocity="127" />
      <note Length="0.03125" Pitch="35" RiffPosition="10.53125" Velocity="127" />
      <note Length="0.015625" Pitch="35" RiffPosition="10.5625" Velocity="127" />
      <note Length="0.015625" Pitch="35" RiffPosition="10.578125" Velocity="127" />
      <note Length="0.03125" Pitch="35" RiffPosition="10.59375" Velocity="127" />
      <note Length="0.0625" Pitch="35" RiffPosition="10.625" Velocity="127" />
      <note Length="0.0625" Pitch="35" RiffPosition="10.6875" Velocity="127" />
      <note Length="0.25" Pitch="35" RiffPosition="10.75" Velocity="127" />
      <note Length="0.0234375" Pitch="35" RiffPosition="11" Velocity="0" />
      <note Length="0.0078125" Pitch="35" RiffPosition="11.0234375" Velocity="0" />
      <note Length="0.03125" Pitch="35" RiffPosition="11.03125" Velocity="0" />
      <note Length="0.015625" Pitch="35" RiffPosition="11.0625" Velocity="0" />
      <note Length="0.015625" Pitch="35" RiffPosition="11.078125" Velocity="0" />
      <note Length="0.03125" Pitch="35" RiffPosition="11.09375" Velocity="0" />
      <note Length="0.0625" Pitch="35" RiffPosition="11.125" Velocity="0" />
      <note Length="0.0625" Pitch="35" RiffPosition="11.1875" Velocity="0" />
      <note Length="0.25" Pitch="35" RiffPosition="11.25" Velocity="0" />
      <note Length="0.0234375" Pitch="35" RiffPosition="11.5" Velocity="0" />
      <note Length="0.0078125" Pitch="35" RiffPosition="11.5234375" Velocity="0" />
      <note Length="0.03125" Pitch="35" RiffPosition="11.53125" Velocity="0" />
      <note Length="0.015625" Pitch="35" RiffPosition="11.5625" Velocity="0" />
      <note Length="0.015625" Pitch="35" RiffPosition="11.578125" Velocity="0" />
      <note Length="0.03125" Pitch="35" RiffPosition="11.59375" Velocity="0" />
      <note Length="0.0625" Pitch="35" RiffPosition="11.625" Velocity="0" />
      <note Length="0.0625" Pitch="35" RiffPosition="11.6875" Velocity="0" />
      <note Length="0.25" Pitch="35" RiffPosition="11.75" Velocity="0" />
    </riff>
    <riff IsDrum="True" MidiInstrument="0" Tempo="112" Length="12">
      <note Length="0.03125" Pitch="50" RiffPosition="0" Velocity="0" />
      <note Length="0.03125" Pitch="38" RiffPosition="0.03125" Velocity="0" />
      <note Length="0.03125" Pitch="40" RiffPosition="0.0625" Velocity="0" />
      <note Length="0.03125" Pitch="50" RiffPosition="0.09375" Velocity="0" />
      <note Length="0.046875" Pitch="47" RiffPosition="0.125" Velocity="0" />
      <note Length="0.015625" Pitch="34" RiffPosition="0.171875" Velocity="0" />
      <note Length="0.0625" Pitch="38" RiffPosition="0.1875" Velocity="0" />
      <note Length="0.03125" Pitch="48" RiffPosition="0.25" Velocity="0" />
      <note Length="0.03125" Pitch="38" RiffPosition="0.28125" Velocity="0" />
      <note Length="0.03125" Pitch="42" RiffPosition="0.3125" Velocity="0" />
      <note Length="0.03125" Pitch="53" RiffPosition="0.34375" Velocity="0" />
      <note Length="0.046875" Pitch="49" RiffPosition="0.375" Velocity="0" />
      <note Length="0.015625" Pitch="35" RiffPosition="0.421875" Velocity="0" />
      <note Length="0.0625" Pitch="39" RiffPosition="0.4375" Velocity="0" />
      <note Length="0.03125" Pitch="46" RiffPosition="0.5" Velocity="0" />
      <note Length="0.03125" Pitch="36" RiffPosition="0.53125" Velocity="0" />
      <note Length="0.03125" Pitch="39" RiffPosition="0.5625" Velocity="0" />
      <note Length="0.03125" Pitch="51" RiffPosition="0.59375" Velocity="0" />
      <note Length="0.046875" Pitch="50" RiffPosition="0.625" Velocity="0" />
      <note Length="0.015625" Pitch="38" RiffPosition="0.671875" Velocity="0" />
      <note Length="0.0625" Pitch="41" RiffPosition="0.6875" Velocity="0" />
      <note Length="0.03125" Pitch="48" RiffPosition="0.75" Velocity="0" />
      <note Length="0.03125" Pitch="36" RiffPosition="0.78125" Velocity="0" />
      <note Length="0.03125" Pitch="38" RiffPosition="0.8125" Velocity="0" />
      <note Length="0.03125" Pitch="49" RiffPosition="0.84375" Velocity="0" />
      <note Length="0.046875" Pitch="48" RiffPosition="0.875" Velocity="0" />
      <note Length="0.015625" Pitch="36" RiffPosition="0.921875" Velocity="0" />
      <note Length="0.0625" Pitch="41" RiffPosition="0.9375" Velocity="0" />
      <note Length="0.03125" Pitch="50" RiffPosition="1" Velocity="0" />
      <note Length="0.03125" Pitch="38" RiffPosition="1.03125" Velocity="0" />
      <note Length="0.03125" Pitch="40" RiffPosition="1.0625" Velocity="0" />
      <note Length="0.03125" Pitch="51" RiffPosition="1.09375" Velocity="0" />
      <note Length="0.046875" Pitch="47" RiffPosition="1.125" Velocity="0" />
      <note Length="0.015625" Pitch="34" RiffPosition="1.171875" Velocity="0" />
      <note Length="0.0625" Pitch="39" RiffPosition="1.1875" Velocity="0" />
      <note Length="0.03125" Pitch="49" RiffPosition="1.25" Velocity="0" />
      <note Length="0.03125" Pitch="38" RiffPosition="1.28125" Velocity="0" />
      <note Length="0.03125" Pitch="42" RiffPosition="1.3125" Velocity="0" />
      <note Length="0.03125" Pitch="53" RiffPosition="1.34375" Velocity="0" />
      <note Length="0.046875" Pitch="49" RiffPosition="1.375" Velocity="0" />
      <note Length="0.015625" Pitch="36" RiffPosition="1.421875" Velocity="0" />
      <note Length="0.0625" Pitch="39" RiffPosition="1.4375" Velocity="0" />
      <note Length="0.03125" Pitch="47" RiffPosition="1.5" Velocity="0" />
      <note Length="0.03125" Pitch="36" RiffPosition="1.53125" Velocity="0" />
      <note Length="0.03125" Pitch="39" RiffPosition="1.5625" Velocity="0" />
      <note Length="0.03125" Pitch="51" RiffPosition="1.59375" Velocity="0" />
      <note Length="0.046875" Pitch="50" RiffPosition="1.625" Velocity="0" />
      <note Length="0.015625" Pitch="37" RiffPosition="1.671875" Velocity="0" />
      <note Length="0.0625" Pitch="41" RiffPosition="1.6875" Velocity="0" />
      <note Length="0.03125" Pitch="48" RiffPosition="1.75" Velocity="0" />
      <note Length="0.03125" Pitch="36" RiffPosition="1.78125" Velocity="0" />
      <note Length="0.03125" Pitch="38" RiffPosition="1.8125" Velocity="0" />
      <note Length="0.03125" Pitch="49" RiffPosition="1.84375" Velocity="0" />
      <note Length="0.046875" Pitch="47" RiffPosition="1.875" Velocity="0" />
      <note Length="0.015625" Pitch="36" RiffPosition="1.921875" Velocity="0" />
      <note Length="0.0625" Pitch="40" RiffPosition="1.9375" Velocity="0" />
      <note Length="0.03125" Pitch="50" RiffPosition="2" Velocity="0" />
      <note Length="0.03125" Pitch="38" RiffPosition="2.03125" Velocity="0" />
      <note Length="0.03125" Pitch="40" RiffPosition="2.0625" Velocity="0" />
      <note Length="0.03125" Pitch="50" RiffPosition="2.09375" Velocity="0" />
      <note Length="0.046875" Pitch="47" RiffPosition="2.125" Velocity="0" />
      <note Length="0.015625" Pitch="34" RiffPosition="2.171875" Velocity="0" />
      <note Length="0.0625" Pitch="38" RiffPosition="2.1875" Velocity="0" />
      <note Length="0.03125" Pitch="48" RiffPosition="2.25" Velocity="0" />
      <note Length="0.03125" Pitch="38" RiffPosition="2.28125" Velocity="0" />
      <note Length="0.03125" Pitch="41" RiffPosition="2.3125" Velocity="0" />
      <note Length="0.03125" Pitch="53" RiffPosition="2.34375" Velocity="0" />
      <note Length="0.046875" Pitch="49" RiffPosition="2.375" Velocity="0" />
      <note Length="0.015625" Pitch="35" RiffPosition="2.421875" Velocity="0" />
      <note Length="0.0625" Pitch="39" RiffPosition="2.4375" Velocity="0" />
      <note Length="0.03125" Pitch="46" RiffPosition="2.5" Velocity="0" />
      <note Length="0.03125" Pitch="36" RiffPosition="2.53125" Velocity="0" />
      <note Length="0.03125" Pitch="39" RiffPosition="2.5625" Velocity="0" />
      <note Length="0.03125" Pitch="51" RiffPosition="2.59375" Velocity="0" />
      <note Length="0.046875" Pitch="50" RiffPosition="2.625" Velocity="0" />
      <note Length="0.015625" Pitch="38" RiffPosition="2.671875" Velocity="0" />
      <note Length="0.0625" Pitch="41" RiffPosition="2.6875" Velocity="0" />
      <note Length="0.03125" Pitch="48" RiffPosition="2.75" Velocity="0" />
      <note Length="0.03125" Pitch="36" RiffPosition="2.78125" Velocity="0" />
      <note Length="0.03125" Pitch="38" RiffPosition="2.8125" Velocity="0" />
      <note Length="0.03125" Pitch="49" RiffPosition="2.84375" Velocity="0" />
      <note Length="0.046875" Pitch="47" RiffPosition="2.875" Velocity="0" />
      <note Length="0.015625" Pitch="36" RiffPosition="2.921875" Velocity="0" />
      <note Length="0.0625" Pitch="41" RiffPosition="2.9375" Velocity="0" />
      <note Length="0.03125" Pitch="50" RiffPosition="3" Velocity="0" />
      <note Length="0.03125" Pitch="38" RiffPosition="3.03125" Velocity="0" />
      <note Length="0.03125" Pitch="40" RiffPosition="3.0625" Velocity="0" />
      <note Length="0.03125" Pitch="51" RiffPosition="3.09375" Velocity="0" />
      <note Length="0.046875" Pitch="47" RiffPosition="3.125" Velocity="0" />
      <note Length="0.015625" Pitch="34" RiffPosition="3.171875" Velocity="0" />
      <note Length="0.0625" Pitch="38" RiffPosition="3.1875" Velocity="0" />
      <note Length="0.03125" Pitch="49" RiffPosition="3.25" Velocity="0" />
      <note Length="0.03125" Pitch="38" RiffPosition="3.28125" Velocity="0" />
      <note Length="0.03125" Pitch="42" RiffPosition="3.3125" Velocity="0" />
      <note Length="0.03125" Pitch="52" RiffPosition="3.34375" Velocity="0" />
      <note Length="0.046875" Pitch="49" RiffPosition="3.375" Velocity="0" />
      <note Length="0.015625" Pitch="36" RiffPosition="3.421875" Velocity="0" />
      <note Length="0.0625" Pitch="39" RiffPosition="3.4375" Velocity="0" />
      <note Length="0.03125" Pitch="47" RiffPosition="3.5" Velocity="0" />
      <note Length="0.03125" Pitch="36" RiffPosition="3.53125" Velocity="0" />
      <note Length="0.03125" Pitch="40" RiffPosition="3.5625" Velocity="0" />
      <note Length="0.03125" Pitch="51" RiffPosition="3.59375" Velocity="0" />
      <note Length="0.046875" Pitch="50" RiffPosition="3.625" Velocity="0" />
      <note Length="0.015625" Pitch="37" RiffPosition="3.671875" Velocity="0" />
      <note Length="0.0625" Pitch="41" RiffPosition="3.6875" Velocity="0" />
      <note Length="0.03125" Pitch="48" RiffPosition="3.75" Velocity="0" />
      <note Length="0.03125" Pitch="36" RiffPosition="3.78125" Velocity="0" />
      <note Length="0.03125" Pitch="38" RiffPosition="3.8125" Velocity="0" />
      <note Length="0.03125" Pitch="49" RiffPosition="3.84375" Velocity="0" />
      <note Length="0.046875" Pitch="48" RiffPosition="3.875" Velocity="0" />
      <note Length="0.015625" Pitch="36" RiffPosition="3.921875" Velocity="0" />
      <note Length="0.0625" Pitch="40" RiffPosition="3.9375" Velocity="0" />
      <note Length="0.03125" Pitch="50" RiffPosition="4" Velocity="0" />
      <note Length="0.03125" Pitch="38" RiffPosition="4.03125" Velocity="0" />
      <note Length="0.03125" Pitch="40" RiffPosition="4.0625" Velocity="0" />
      <note Length="0.03125" Pitch="50" RiffPosition="4.09375" Velocity="0" />
      <note Length="0.046875" Pitch="47" RiffPosition="4.125" Velocity="0" />
      <note Length="0.015625" Pitch="34" RiffPosition="4.171875" Velocity="0" />
      <note Length="0.0625" Pitch="38" RiffPosition="4.1875" Velocity="0" />
      <note Length="0.03125" Pitch="48" RiffPosition="4.25" Velocity="0" />
      <note Length="0.03125" Pitch="38" RiffPosition="4.28125" Velocity="0" />
      <note Length="0.03125" Pitch="41" RiffPosition="4.3125" Velocity="0" />
      <note Length="0.03125" Pitch="53" RiffPosition="4.34375" Velocity="0" />
      <note Length="0.046875" Pitch="49" RiffPosition="4.375" Velocity="0" />
      <note Length="0.015625" Pitch="36" RiffPosition="4.421875" Velocity="0" />
      <note Length="0.0625" Pitch="39" RiffPosition="4.4375" Velocity="0" />
      <note Length="0.03125" Pitch="46" RiffPosition="4.5" Velocity="0" />
      <note Length="0.03125" Pitch="36" RiffPosition="4.53125" Velocity="0" />
      <note Length="0.03125" Pitch="39" RiffPosition="4.5625" Velocity="0" />
      <note Length="0.03125" Pitch="52" RiffPosition="4.59375" Velocity="0" />
      <note Length="0.046875" Pitch="49" RiffPosition="4.625" Velocity="0" />
      <note Length="0.015625" Pitch="38" RiffPosition="4.671875" Velocity="0" />
      <note Length="0.0625" Pitch="41" RiffPosition="4.6875" Velocity="0" />
      <note Length="0.03125" Pitch="48" RiffPosition="4.75" Velocity="0" />
      <note Length="0.03125" Pitch="36" RiffPosition="4.78125" Velocity="0" />
      <note Length="0.03125" Pitch="38" RiffPosition="4.8125" Velocity="0" />
      <note Length="0.03125" Pitch="49" RiffPosition="4.84375" Velocity="0" />
      <note Length="0.046875" Pitch="47" RiffPosition="4.875" Velocity="0" />
      <note Length="0.015625" Pitch="36" RiffPosition="4.921875" Velocity="0" />
      <note Length="0.0625" Pitch="40" RiffPosition="4.9375" Velocity="0" />
      <note Length="0.03125" Pitch="50" RiffPosition="5" Velocity="0" />
      <note Length="0.03125" Pitch="38" RiffPosition="5.03125" Velocity="0" />
      <note Length="0.03125" Pitch="40" RiffPosition="5.0625" Velocity="0" />
      <note Length="0.03125" Pitch="50" RiffPosition="5.09375" Velocity="0" />
      <note Length="0.046875" Pitch="47" RiffPosition="5.125" Velocity="0" />
      <note Length="0.015625" Pitch="34" RiffPosition="5.171875" Velocity="0" />
      <note Length="0.0625" Pitch="38" RiffPosition="5.1875" Velocity="0" />
      <note Length="0.03125" Pitch="49" RiffPosition="5.25" Velocity="0" />
      <note Length="0.03125" Pitch="38" RiffPosition="5.28125" Velocity="0" />
      <note Length="0.03125" Pitch="42" RiffPosition="5.3125" Velocity="0" />
      <note Length="0.03125" Pitch="52" RiffPosition="5.34375" Velocity="0" />
      <note Length="0.046875" Pitch="49" RiffPosition="5.375" Velocity="0" />
      <note Length="0.015625" Pitch="35" RiffPosition="5.421875" Velocity="0" />
      <note Length="0.0625" Pitch="39" RiffPosition="5.4375" Velocity="0" />
      <note Length="0.03125" Pitch="46" RiffPosition="5.5" Velocity="0" />
      <note Length="0.03125" Pitch="36" RiffPosition="5.53125" Velocity="0" />
      <note Length="0.03125" Pitch="40" RiffPosition="5.5625" Velocity="0" />
      <note Length="0.03125" Pitch="51" RiffPosition="5.59375" Velocity="0" />
      <note Length="0.046875" Pitch="50" RiffPosition="5.625" Velocity="0" />
      <note Length="0.015625" Pitch="38" RiffPosition="5.671875" Velocity="0" />
      <note Length="0.0625" Pitch="41" RiffPosition="5.6875" Velocity="0" />
      <note Length="0.03125" Pitch="48" RiffPosition="5.75" Velocity="0" />
      <note Length="0.03125" Pitch="36" RiffPosition="5.78125" Velocity="0" />
      <note Length="0.03125" Pitch="38" RiffPosition="5.8125" Velocity="0" />
      <note Length="0.03125" Pitch="49" RiffPosition="5.84375" Velocity="0" />
      <note Length="0.046875" Pitch="48" RiffPosition="5.875" Velocity="0" />
      <note Length="0.015625" Pitch="36" RiffPosition="5.921875" Velocity="0" />
      <note Length="0.0625" Pitch="41" RiffPosition="5.9375" Velocity="0" />
      <note Length="0.03125" Pitch="50" RiffPosition="6" Velocity="0" />
      <note Length="0.03125" Pitch="38" RiffPosition="6.03125" Velocity="0" />
      <note Length="0.03125" Pitch="40" RiffPosition="6.0625" Velocity="0" />
      <note Length="0.03125" Pitch="50" RiffPosition="6.09375" Velocity="0" />
      <note Length="0.046875" Pitch="47" RiffPosition="6.125" Velocity="0" />
      <note Length="0.015625" Pitch="34" RiffPosition="6.171875" Velocity="0" />
      <note Length="0.0625" Pitch="38" RiffPosition="6.1875" Velocity="0" />
      <note Length="0.03125" Pitch="49" RiffPosition="6.25" Velocity="0" />
      <note Length="0.03125" Pitch="38" RiffPosition="6.28125" Velocity="0" />
      <note Length="0.03125" Pitch="41" RiffPosition="6.3125" Velocity="0" />
      <note Length="0.03125" Pitch="53" RiffPosition="6.34375" Velocity="0" />
      <note Length="0.046875" Pitch="49" RiffPosition="6.375" Velocity="0" />
      <note Length="0.015625" Pitch="36" RiffPosition="6.421875" Velocity="0" />
      <note Length="0.0625" Pitch="39" RiffPosition="6.4375" Velocity="0" />
      <note Length="0.03125" Pitch="46" RiffPosition="6.5" Velocity="0" />
      <note Length="0.03125" Pitch="36" RiffPosition="6.53125" Velocity="0" />
      <note Length="0.03125" Pitch="39" RiffPosition="6.5625" Velocity="0" />
      <note Length="0.03125" Pitch="52" RiffPosition="6.59375" Velocity="0" />
      <note Length="0.046875" Pitch="49" RiffPosition="6.625" Velocity="0" />
      <note Length="0.015625" Pitch="38" RiffPosition="6.671875" Velocity="0" />
      <note Length="0.0625" Pitch="41" RiffPosition="6.6875" Velocity="0" />
      <note Length="0.03125" Pitch="48" RiffPosition="6.75" Velocity="0" />
      <note Length="0.03125" Pitch="36" RiffPosition="6.78125" Velocity="0" />
      <note Length="0.03125" Pitch="38" RiffPosition="6.8125" Velocity="0" />
      <note Length="0.03125" Pitch="50" RiffPosition="6.84375" Velocity="0" />
      <note Length="0.046875" Pitch="47" RiffPosition="6.875" Velocity="0" />
      <note Length="0.015625" Pitch="36" RiffPosition="6.921875" Velocity="0" />
      <note Length="0.0625" Pitch="40" RiffPosition="6.9375" Velocity="0" />
      <note Length="0.03125" Pitch="50" RiffPosition="7" Velocity="92" />
      <note Length="0.03125" Pitch="38" RiffPosition="7.03125" Velocity="0" />
      <note Length="0.03125" Pitch="40" RiffPosition="7.0625" Velocity="0" />
      <note Length="0.03125" Pitch="50" RiffPosition="7.09375" Velocity="82" />
      <note Length="0.046875" Pitch="47" RiffPosition="7.125" Velocity="51" />
      <note Length="0.015625" Pitch="34" RiffPosition="7.171875" Velocity="69" />
      <note Length="0.0625" Pitch="38" RiffPosition="7.1875" Velocity="0" />
      <note Length="0.03125" Pitch="48" RiffPosition="7.25" Velocity="41" />
      <note Length="0.03125" Pitch="38" RiffPosition="7.28125" Velocity="0" />
      <note Length="0.03125" Pitch="42" RiffPosition="7.3125" Velocity="59" />
      <note Length="0.03125" Pitch="52" RiffPosition="7.34375" Velocity="37" />
      <note Length="0.046875" Pitch="49" RiffPosition="7.375" Velocity="48" />
      <note Length="0.015625" Pitch="35" RiffPosition="7.421875" Velocity="0" />
      <note Length="0.0625" Pitch="39" RiffPosition="7.4375" Velocity="0" />
      <note Length="0.03125" Pitch="46" RiffPosition="7.5" Velocity="67" />
      <note Length="0.03125" Pitch="36" RiffPosition="7.53125" Velocity="0" />
      <note Length="0.03125" Pitch="39" RiffPosition="7.5625" Velocity="0" />
      <note Length="0.03125" Pitch="51" RiffPosition="7.59375" Velocity="107" />
      <note Length="0.046875" Pitch="50" RiffPosition="7.625" Velocity="42" />
      <note Length="0.015625" Pitch="38" RiffPosition="7.671875" Velocity="0" />
      <note Length="0.0625" Pitch="41" RiffPosition="7.6875" Velocity="50" />
      <note Length="0.03125" Pitch="48" RiffPosition="7.75" Velocity="64" />
      <note Length="0.03125" Pitch="36" RiffPosition="7.78125" Velocity="0" />
      <note Length="0.03125" Pitch="38" RiffPosition="7.8125" Velocity="0" />
      <note Length="0.03125" Pitch="49" RiffPosition="7.84375" Velocity="33" />
      <note Length="0.046875" Pitch="48" RiffPosition="7.875" Velocity="105" />
      <note Length="0.015625" Pitch="36" RiffPosition="7.921875" Velocity="0" />
      <note Length="0.0625" Pitch="41" RiffPosition="7.9375" Velocity="89" />
      <note Length="0.03125" Pitch="50" RiffPosition="8" Velocity="58" />
      <note Length="0.03125" Pitch="38" RiffPosition="8.03125" Velocity="0" />
      <note Length="0.03125" Pitch="40" RiffPosition="8.0625" Velocity="0" />
      <note Length="0.03125" Pitch="51" RiffPosition="8.09375" Velocity="101" />
      <note Length="0.046875" Pitch="47" RiffPosition="8.125" Velocity="63" />
      <note Length="0.015625" Pitch="34" RiffPosition="8.171875" Velocity="102" />
      <note Length="0.0625" Pitch="39" RiffPosition="8.1875" Velocity="0" />
      <note Length="0.03125" Pitch="49" RiffPosition="8.25" Velocity="49" />
      <note Length="0.03125" Pitch="38" RiffPosition="8.28125" Velocity="0" />
      <note Length="0.03125" Pitch="42" RiffPosition="8.3125" Velocity="124" />
      <note Length="0.03125" Pitch="53" RiffPosition="8.34375" Velocity="46" />
      <note Length="0.046875" Pitch="49" RiffPosition="8.375" Velocity="53" />
      <note Length="0.015625" Pitch="36" RiffPosition="8.421875" Velocity="0" />
      <note Length="0.0625" Pitch="39" RiffPosition="8.4375" Velocity="0" />
      <note Length="0.03125" Pitch="47" RiffPosition="8.5" Velocity="47" />
      <note Length="0.03125" Pitch="36" RiffPosition="8.53125" Velocity="0" />
      <note Length="0.03125" Pitch="39" RiffPosition="8.5625" Velocity="0" />
      <note Length="0.03125" Pitch="52" RiffPosition="8.59375" Velocity="42" />
      <note Length="0.046875" Pitch="50" RiffPosition="8.625" Velocity="71" />
      <note Length="0.015625" Pitch="38" RiffPosition="8.671875" Velocity="0" />
      <note Length="0.0625" Pitch="41" RiffPosition="8.6875" Velocity="84" />
      <note Length="0.03125" Pitch="48" RiffPosition="8.75" Velocity="119" />
      <note Length="0.03125" Pitch="36" RiffPosition="8.78125" Velocity="0" />
      <note Length="0.03125" Pitch="38" RiffPosition="8.8125" Velocity="0" />
      <note Length="0.03125" Pitch="49" RiffPosition="8.84375" Velocity="30" />
      <note Length="0.046875" Pitch="47" RiffPosition="8.875" Velocity="71" />
      <note Length="0.015625" Pitch="36" RiffPosition="8.921875" Velocity="0" />
      <note Length="0.0625" Pitch="40" RiffPosition="8.9375" Velocity="0" />
      <note Length="0.03125" Pitch="50" RiffPosition="9" Velocity="55" />
      <note Length="0.03125" Pitch="38" RiffPosition="9.03125" Velocity="0" />
      <note Length="0.03125" Pitch="40" RiffPosition="9.0625" Velocity="0" />
      <note Length="0.03125" Pitch="50" RiffPosition="9.09375" Velocity="51" />
      <note Length="0.046875" Pitch="47" RiffPosition="9.125" Velocity="97" />
      <note Length="0.015625" Pitch="34" RiffPosition="9.171875" Velocity="80" />
      <note Length="0.0625" Pitch="38" RiffPosition="9.1875" Velocity="0" />
      <note Length="0.03125" Pitch="48" RiffPosition="9.25" Velocity="94" />
      <note Length="0.03125" Pitch="38" RiffPosition="9.28125" Velocity="0" />
      <note Length="0.03125" Pitch="41" RiffPosition="9.3125" Velocity="73" />
      <note Length="0.03125" Pitch="53" RiffPosition="9.34375" Velocity="79" />
      <note Length="0.046875" Pitch="49" RiffPosition="9.375" Velocity="35" />
      <note Length="0.015625" Pitch="35" RiffPosition="9.421875" Velocity="0" />
      <note Length="0.0625" Pitch="39" RiffPosition="9.4375" Velocity="0" />
      <note Length="0.03125" Pitch="46" RiffPosition="9.5" Velocity="81" />
      <note Length="0.03125" Pitch="36" RiffPosition="9.53125" Velocity="0" />
      <note Length="0.03125" Pitch="39" RiffPosition="9.5625" Velocity="0" />
      <note Length="0.03125" Pitch="51" RiffPosition="9.59375" Velocity="42" />
      <note Length="0.046875" Pitch="50" RiffPosition="9.625" Velocity="122" />
      <note Length="0.015625" Pitch="38" RiffPosition="9.671875" Velocity="0" />
      <note Length="0.0625" Pitch="41" RiffPosition="9.6875" Velocity="99" />
      <note Length="0.03125" Pitch="48" RiffPosition="9.75" Velocity="85" />
      <note Length="0.03125" Pitch="36" RiffPosition="9.78125" Velocity="0" />
      <note Length="0.03125" Pitch="38" RiffPosition="9.8125" Velocity="0" />
      <note Length="0.03125" Pitch="49" RiffPosition="9.84375" Velocity="58" />
      <note Length="0.046875" Pitch="47" RiffPosition="9.875" Velocity="43" />
      <note Length="0.015625" Pitch="36" RiffPosition="9.921875" Velocity="0" />
      <note Length="0.0625" Pitch="41" RiffPosition="9.9375" Velocity="75" />
      <note Length="0.03125" Pitch="50" RiffPosition="10" Velocity="106" />
      <note Length="0.03125" Pitch="38" RiffPosition="10.03125" Velocity="0" />
      <note Length="0.03125" Pitch="40" RiffPosition="10.0625" Velocity="0" />
      <note Length="0.03125" Pitch="51" RiffPosition="10.09375" Velocity="63" />
      <note Length="0.046875" Pitch="47" RiffPosition="10.125" Velocity="86" />
      <note Length="0.015625" Pitch="34" RiffPosition="10.171875" Velocity="47" />
      <note Length="0.0625" Pitch="38" RiffPosition="10.1875" Velocity="0" />
      <note Length="0.03125" Pitch="49" RiffPosition="10.25" Velocity="33" />
      <note Length="0.03125" Pitch="38" RiffPosition="10.28125" Velocity="0" />
      <note Length="0.03125" Pitch="42" RiffPosition="10.3125" Velocity="40" />
      <note Length="0.03125" Pitch="53" RiffPosition="10.34375" Velocity="103" />
      <note Length="0.046875" Pitch="49" RiffPosition="10.375" Velocity="28" />
      <note Length="0.015625" Pitch="36" RiffPosition="10.421875" Velocity="0" />
      <note Length="0.0625" Pitch="39" RiffPosition="10.4375" Velocity="0" />
      <note Length="0.03125" Pitch="47" RiffPosition="10.5" Velocity="114" />
      <note Length="0.03125" Pitch="36" RiffPosition="10.53125" Velocity="0" />
      <note Length="0.03125" Pitch="40" RiffPosition="10.5625" Velocity="0" />
      <note Length="0.03125" Pitch="51" RiffPosition="10.59375" Velocity="71" />
      <note Length="0.046875" Pitch="50" RiffPosition="10.625" Velocity="61" />
      <note Length="0.015625" Pitch="37" RiffPosition="10.671875" Velocity="59" />
      <note Length="0.0625" Pitch="41" RiffPosition="10.6875" Velocity="48" />
      <note Length="0.03125" Pitch="48" RiffPosition="10.75" Velocity="52" />
      <note Length="0.03125" Pitch="36" RiffPosition="10.78125" Velocity="0" />
      <note Length="0.03125" Pitch="38" RiffPosition="10.8125" Velocity="0" />
      <note Length="0.03125" Pitch="49" RiffPosition="10.84375" Velocity="43" />
      <note Length="0.046875" Pitch="48" RiffPosition="10.875" Velocity="76" />
      <note Length="0.015625" Pitch="36" RiffPosition="10.921875" Velocity="0" />
      <note Length="0.0625" Pitch="40" RiffPosition="10.9375" Velocity="0" />
      <note Length="0.03125" Pitch="50" RiffPosition="11" Velocity="0" />
      <note Length="0.03125" Pitch="38" RiffPosition="11.03125" Velocity="0" />
      <note Length="0.03125" Pitch="40" RiffPosition="11.0625" Velocity="0" />
      <note Length="0.03125" Pitch="50" RiffPosition="11.09375" Velocity="0" />
      <note Length="0.046875" Pitch="47" RiffPosition="11.125" Velocity="0" />
      <note Length="0.015625" Pitch="34" RiffPosition="11.171875" Velocity="0" />
      <note Length="0.0625" Pitch="38" RiffPosition="11.1875" Velocity="0" />
      <note Length="0.03125" Pitch="48" RiffPosition="11.25" Velocity="0" />
      <note Length="0.03125" Pitch="38" RiffPosition="11.28125" Velocity="0" />
      <note Length="0.03125" Pitch="41" RiffPosition="11.3125" Velocity="0" />
      <note Length="0.03125" Pitch="53" RiffPosition="11.34375" Velocity="0" />
      <note Length="0.046875" Pitch="49" RiffPosition="11.375" Velocity="0" />
      <note Length="0.015625" Pitch="36" RiffPosition="11.421875" Velocity="0" />
      <note Length="0.0625" Pitch="39" RiffPosition="11.4375" Velocity="0" />
      <note Length="0.03125" Pitch="46" RiffPosition="11.5" Velocity="0" />
      <note Length="0.03125" Pitch="36" RiffPosition="11.53125" Velocity="0" />
      <note Length="0.03125" Pitch="39" RiffPosition="11.5625" Velocity="0" />
      <note Length="0.03125" Pitch="52" RiffPosition="11.59375" Velocity="0" />
      <note Length="0.046875" Pitch="49" RiffPosition="11.625" Velocity="0" />
      <note Length="0.015625" Pitch="38" RiffPosition="11.671875" Velocity="0" />
      <note Length="0.0625" Pitch="41" RiffPosition="11.6875" Velocity="0" />
      <note Length="0.03125" Pitch="48" RiffPosition="11.75" Velocity="0" />
      <note Length="0.03125" Pitch="36" RiffPosition="11.78125" Velocity="0" />
      <note Length="0.03125" Pitch="38" RiffPosition="11.8125" Velocity="0" />
      <note Length="0.03125" Pitch="49" RiffPosition="11.84375" Velocity="0" />
      <note Length="0.046875" Pitch="47" RiffPosition="11.875" Velocity="0" />
      <note Length="0.015625" Pitch="36" RiffPosition="11.921875" Velocity="0" />
      <note Length="0.0625" Pitch="40" RiffPosition="11.9375" Velocity="0" />
    </riff>
    <riff IsDrum="True" MidiInstrument="0" Tempo="114" Length="12">
      <note Length="0.046875" Pitch="53" RiffPosition="0" Velocity="0" />
      <note Length="0.015625" Pitch="36" RiffPosition="0.046875" Velocity="0" />
      <note Length="0.03125" Pitch="35" RiffPosition="0.0625" Velocity="0" />
      <note Length="0.03125" Pitch="44" RiffPosition="0.09375" Velocity="0" />
      <note Length="0.03125" Pitch="54" RiffPosition="0.125" Velocity="0" />
      <note Length="0.03125" Pitch="44" RiffPosition="0.15625" Velocity="0" />
      <note Length="0.03125" Pitch="34" RiffPosition="0.1875" Velocity="0" />
      <note Length="0.03125" Pitch="44" RiffPosition="0.21875" Velocity="0" />
      <note Length="0.03125" Pitch="53" RiffPosition="0.25" Velocity="0" />
      <note Length="0.03125" Pitch="44" RiffPosition="0.28125" Velocity="0" />
      <note Length="0.03125" Pitch="35" RiffPosition="0.3125" Velocity="0" />
      <note Length="0.03125" Pitch="44" RiffPosition="0.34375" Velocity="0" />
      <note Length="0.015625" Pitch="53" RiffPosition="0.375" Velocity="0" />
      <note Length="0.046875" Pitch="53" RiffPosition="0.390625" Velocity="0" />
      <note Length="0.03125" Pitch="36" RiffPosition="0.4375" Velocity="0" />
      <note Length="0.03125" Pitch="44" RiffPosition="0.46875" Velocity="0" />
      <note Length="0.03125" Pitch="52" RiffPosition="0.5" Velocity="0" />
      <note Length="0.03125" Pitch="44" RiffPosition="0.53125" Velocity="0" />
      <note Length="0.0625" Pitch="35" RiffPosition="0.5625" Velocity="0" />
      <note Length="0.046875" Pitch="53" RiffPosition="0.625" Velocity="0" />
      <note Length="0.015625" Pitch="36" RiffPosition="0.671875" Velocity="0" />
      <note Length="0.0625" Pitch="36" RiffPosition="0.6875" Velocity="0" />
      <note Length="0.046875" Pitch="52" RiffPosition="0.75" Velocity="0" />
      <note Length="0.015625" Pitch="35" RiffPosition="0.796875" Velocity="0" />
      <note Length="0.03125" Pitch="34" RiffPosition="0.8125" Velocity="0" />
      <note Length="0.03125" Pitch="44" RiffPosition="0.84375" Velocity="0" />
      <note Length="0.03125" Pitch="53" RiffPosition="0.875" Velocity="0" />
      <note Length="0.03125" Pitch="43" RiffPosition="0.90625" Velocity="0" />
      <note Length="0.03125" Pitch="36" RiffPosition="0.9375" Velocity="0" />
      <note Length="0.03125" Pitch="44" RiffPosition="0.96875" Velocity="0" />
      <note Length="0.03125" Pitch="54" RiffPosition="1" Velocity="0" />
      <note Length="0.03125" Pitch="44" RiffPosition="1.03125" Velocity="0" />
      <note Length="0.03125" Pitch="34" RiffPosition="1.0625" Velocity="0" />
      <note Length="0.03125" Pitch="44" RiffPosition="1.09375" Velocity="0" />
      <note Length="0.015625" Pitch="52" RiffPosition="1.125" Velocity="0" />
      <note Length="0.046875" Pitch="52" RiffPosition="1.140625" Velocity="0" />
      <note Length="0.03125" Pitch="35" RiffPosition="1.1875" Velocity="0" />
      <note Length="0.03125" Pitch="43" RiffPosition="1.21875" Velocity="0" />
      <note Length="0.03125" Pitch="54" RiffPosition="1.25" Velocity="0" />
      <note Length="0.03125" Pitch="44" RiffPosition="1.28125" Velocity="0" />
      <note Length="0.0625" Pitch="36" RiffPosition="1.3125" Velocity="0" />
      <note Length="0.046875" Pitch="52" RiffPosition="1.375" Velocity="0" />
      <note Length="0.015625" Pitch="35" RiffPosition="1.421875" Velocity="0" />
      <note Length="0.0625" Pitch="35" RiffPosition="1.4375" Velocity="0" />
      <note Length="0.046875" Pitch="53" RiffPosition="1.5" Velocity="0" />
      <note Length="0.015625" Pitch="36" RiffPosition="1.546875" Velocity="0" />
      <note Length="0.03125" Pitch="36" RiffPosition="1.5625" Velocity="0" />
      <note Length="0.03125" Pitch="44" RiffPosition="1.59375" Velocity="0" />
      <note Length="0.03125" Pitch="52" RiffPosition="1.625" Velocity="0" />
      <note Length="0.03125" Pitch="44" RiffPosition="1.65625" Velocity="0" />
      <note Length="0.03125" Pitch="34" RiffPosition="1.6875" Velocity="0" />
      <note Length="0.03125" Pitch="44" RiffPosition="1.71875" Velocity="0" />
      <note Length="0.03125" Pitch="53" RiffPosition="1.75" Velocity="0" />
      <note Length="0.03125" Pitch="44" RiffPosition="1.78125" Velocity="0" />
      <note Length="0.03125" Pitch="35" RiffPosition="1.8125" Velocity="0" />
      <note Length="0.03125" Pitch="44" RiffPosition="1.84375" Velocity="0" />
      <note Length="0.015625" Pitch="54" RiffPosition="1.875" Velocity="0" />
      <note Length="0.046875" Pitch="54" RiffPosition="1.890625" Velocity="0" />
      <note Length="0.03125" Pitch="34" RiffPosition="1.9375" Velocity="0" />
      <note Length="0.03125" Pitch="44" RiffPosition="1.96875" Velocity="0" />
      <note Length="0.03125" Pitch="53" RiffPosition="2" Velocity="0" />
      <note Length="0.03125" Pitch="44" RiffPosition="2.03125" Velocity="0" />
      <note Length="0.0625" Pitch="35" RiffPosition="2.0625" Velocity="0" />
      <note Length="0.046875" Pitch="53" RiffPosition="2.125" Velocity="0" />
      <note Length="0.015625" Pitch="34" RiffPosition="2.171875" Velocity="0" />
      <note Length="0.0625" Pitch="36" RiffPosition="2.1875" Velocity="0" />
      <note Length="0.046875" Pitch="52" RiffPosition="2.25" Velocity="0" />
      <note Length="0.015625" Pitch="35" RiffPosition="2.296875" Velocity="0" />
      <note Length="0.03125" Pitch="35" RiffPosition="2.3125" Velocity="0" />
      <note Length="0.03125" Pitch="45" RiffPosition="2.34375" Velocity="0" />
      <note Length="0.03125" Pitch="53" RiffPosition="2.375" Velocity="0" />
      <note Length="0.03125" Pitch="43" RiffPosition="2.40625" Velocity="0" />
      <note Length="0.03125" Pitch="36" RiffPosition="2.4375" Velocity="0" />
      <note Length="0.03125" Pitch="44" RiffPosition="2.46875" Velocity="0" />
      <note Length="0.03125" Pitch="52" RiffPosition="2.5" Velocity="0" />
      <note Length="0.03125" Pitch="44" RiffPosition="2.53125" Velocity="0" />
      <note Length="0.03125" Pitch="34" RiffPosition="2.5625" Velocity="0" />
      <note Length="0.03125" Pitch="44" RiffPosition="2.59375" Velocity="0" />
      <note Length="0.015625" Pitch="53" RiffPosition="2.625" Velocity="0" />
      <note Length="0.046875" Pitch="52" RiffPosition="2.640625" Velocity="0" />
      <note Length="0.03125" Pitch="36" RiffPosition="2.6875" Velocity="0" />
      <note Length="0.03125" Pitch="44" RiffPosition="2.71875" Velocity="0" />
      <note Length="0.03125" Pitch="54" RiffPosition="2.75" Velocity="0" />
      <note Length="0.03125" Pitch="44" RiffPosition="2.78125" Velocity="0" />
      <note Length="0.0625" Pitch="34" RiffPosition="2.8125" Velocity="0" />
      <note Length="0.046875" Pitch="52" RiffPosition="2.875" Velocity="0" />
      <note Length="0.015625" Pitch="35" RiffPosition="2.921875" Velocity="0" />
      <note Length="0.0625" Pitch="35" RiffPosition="2.9375" Velocity="0" />
      <note Length="0.046875" Pitch="54" RiffPosition="3" Velocity="0" />
      <note Length="0.015625" Pitch="34" RiffPosition="3.046875" Velocity="0" />
      <note Length="0.03125" Pitch="36" RiffPosition="3.0625" Velocity="0" />
      <note Length="0.03125" Pitch="44" RiffPosition="3.09375" Velocity="0" />
      <note Length="0.03125" Pitch="52" RiffPosition="3.125" Velocity="0" />
      <note Length="0.03125" Pitch="45" RiffPosition="3.15625" Velocity="0" />
      <note Length="0.03125" Pitch="35" RiffPosition="3.1875" Velocity="0" />
      <note Length="0.03125" Pitch="45" RiffPosition="3.21875" Velocity="0" />
      <note Length="0.03125" Pitch="53" RiffPosition="3.25" Velocity="0" />
      <note Length="0.03125" Pitch="44" RiffPosition="3.28125" Velocity="0" />
      <note Length="0.03125" Pitch="36" RiffPosition="3.3125" Velocity="0" />
      <note Length="0.03125" Pitch="44" RiffPosition="3.34375" Velocity="0" />
      <note Length="0.015625" Pitch="52" RiffPosition="3.375" Velocity="0" />
      <note Length="0.046875" Pitch="54" RiffPosition="3.390625" Velocity="0" />
      <note Length="0.03125" Pitch="34" RiffPosition="3.4375" Velocity="0" />
      <note Length="0.03125" Pitch="44" RiffPosition="3.46875" Velocity="0" />
      <note Length="0.03125" Pitch="53" RiffPosition="3.5" Velocity="0" />
      <note Length="0.03125" Pitch="44" RiffPosition="3.53125" Velocity="0" />
      <note Length="0.0625" Pitch="35" RiffPosition="3.5625" Velocity="0" />
      <note Length="0.046875" Pitch="54" RiffPosition="3.625" Velocity="0" />
      <note Length="0.015625" Pitch="34" RiffPosition="3.671875" Velocity="0" />
      <note Length="0.0625" Pitch="34" RiffPosition="3.6875" Velocity="0" />
      <note Length="0.046875" Pitch="53" RiffPosition="3.75" Velocity="0" />
      <note Length="0.015625" Pitch="36" RiffPosition="3.796875" Velocity="0" />
      <note Length="0.03125" Pitch="35" RiffPosition="3.8125" Velocity="0" />
      <note Length="0.03125" Pitch="44" RiffPosition="3.84375" Velocity="0" />
      <note Length="0.03125" Pitch="54" RiffPosition="3.875" Velocity="0" />
      <note Length="0.03125" Pitch="44" RiffPosition="3.90625" Velocity="0" />
      <note Length="0.03125" Pitch="36" RiffPosition="3.9375" Velocity="0" />
      <note Length="0.03125" Pitch="44" RiffPosition="3.96875" Velocity="0" />
      <note Length="0.03125" Pitch="52" RiffPosition="4" Velocity="0" />
      <note Length="0.03125" Pitch="44" RiffPosition="4.03125" Velocity="0" />
      <note Length="0.03125" Pitch="35" RiffPosition="4.0625" Velocity="0" />
      <note Length="0.03125" Pitch="45" RiffPosition="4.09375" Velocity="0" />
      <note Length="0.015625" Pitch="53" RiffPosition="4.125" Velocity="0" />
      <note Length="0.046875" Pitch="53" RiffPosition="4.140625" Velocity="0" />
      <note Length="0.03125" Pitch="36" RiffPosition="4.1875" Velocity="0" />
      <note Length="0.03125" Pitch="44" RiffPosition="4.21875" Velocity="0" />
      <note Length="0.03125" Pitch="52" RiffPosition="4.25" Velocity="0" />
      <note Length="0.03125" Pitch="44" RiffPosition="4.28125" Velocity="0" />
      <note Length="0.0625" Pitch="34" RiffPosition="4.3125" Velocity="0" />
      <note Length="0.046875" Pitch="53" RiffPosition="4.375" Velocity="0" />
      <note Length="0.015625" Pitch="36" RiffPosition="4.421875" Velocity="0" />
      <note Length="0.0625" Pitch="36" RiffPosition="4.4375" Velocity="0" />
      <note Length="0.046875" Pitch="54" RiffPosition="4.5" Velocity="0" />
      <note Length="0.015625" Pitch="35" RiffPosition="4.546875" Velocity="0" />
      <note Length="0.03125" Pitch="34" RiffPosition="4.5625" Velocity="0" />
      <note Length="0.03125" Pitch="44" RiffPosition="4.59375" Velocity="0" />
      <note Length="0.03125" Pitch="52" RiffPosition="4.625" Velocity="0" />
      <note Length="0.03125" Pitch="45" RiffPosition="4.65625" Velocity="0" />
      <note Length="0.03125" Pitch="35" RiffPosition="4.6875" Velocity="0" />
      <note Length="0.03125" Pitch="44" RiffPosition="4.71875" Velocity="0" />
      <note Length="0.03125" Pitch="54" RiffPosition="4.75" Velocity="0" />
      <note Length="0.03125" Pitch="44" RiffPosition="4.78125" Velocity="0" />
      <note Length="0.03125" Pitch="36" RiffPosition="4.8125" Velocity="0" />
      <note Length="0.03125" Pitch="44" RiffPosition="4.84375" Velocity="0" />
      <note Length="0.015625" Pitch="52" RiffPosition="4.875" Velocity="0" />
      <note Length="0.046875" Pitch="54" RiffPosition="4.890625" Velocity="0" />
      <note Length="0.03125" Pitch="35" RiffPosition="4.9375" Velocity="0" />
      <note Length="0.03125" Pitch="45" RiffPosition="4.96875" Velocity="0" />
      <note Length="0.03125" Pitch="53" RiffPosition="5" Velocity="0" />
      <note Length="0.03125" Pitch="44" RiffPosition="5.03125" Velocity="0" />
      <note Length="0.0625" Pitch="35" RiffPosition="5.0625" Velocity="0" />
      <note Length="0.046875" Pitch="52" RiffPosition="5.125" Velocity="0" />
      <note Length="0.015625" Pitch="35" RiffPosition="5.171875" Velocity="0" />
      <note Length="0.0625" Pitch="34" RiffPosition="5.1875" Velocity="0" />
      <note Length="0.046875" Pitch="53" RiffPosition="5.25" Velocity="0" />
      <note Length="0.015625" Pitch="36" RiffPosition="5.296875" Velocity="0" />
      <note Length="0.03125" Pitch="35" RiffPosition="5.3125" Velocity="0" />
      <note Length="0.03125" Pitch="44" RiffPosition="5.34375" Velocity="0" />
      <note Length="0.03125" Pitch="54" RiffPosition="5.375" Velocity="0" />
      <note Length="0.03125" Pitch="44" RiffPosition="5.40625" Velocity="0" />
      <note Length="0.03125" Pitch="34" RiffPosition="5.4375" Velocity="0" />
      <note Length="0.03125" Pitch="44" RiffPosition="5.46875" Velocity="0" />
      <note Length="0.03125" Pitch="53" RiffPosition="5.5" Velocity="0" />
      <note Length="0.03125" Pitch="44" RiffPosition="5.53125" Velocity="0" />
      <note Length="0.03125" Pitch="35" RiffPosition="5.5625" Velocity="0" />
      <note Length="0.03125" Pitch="44" RiffPosition="5.59375" Velocity="0" />
      <note Length="0.015625" Pitch="54" RiffPosition="5.625" Velocity="0" />
      <note Length="0.046875" Pitch="53" RiffPosition="5.640625" Velocity="0" />
      <note Length="0.03125" Pitch="36" RiffPosition="5.6875" Velocity="0" />
      <note Length="0.03125" Pitch="44" RiffPosition="5.71875" Velocity="0" />
      <note Length="0.03125" Pitch="52" RiffPosition="5.75" Velocity="0" />
      <note Length="0.03125" Pitch="44" RiffPosition="5.78125" Velocity="0" />
      <note Length="0.0625" Pitch="35" RiffPosition="5.8125" Velocity="0" />
      <note Length="0.046875" Pitch="53" RiffPosition="5.875" Velocity="0" />
      <note Length="0.015625" Pitch="34" RiffPosition="5.921875" Velocity="0" />
      <note Length="0.0625" Pitch="36" RiffPosition="5.9375" Velocity="0" />
      <note Length="0.046875" Pitch="52" RiffPosition="6" Velocity="0" />
      <note Length="0.015625" Pitch="35" RiffPosition="6.046875" Velocity="0" />
      <note Length="0.03125" Pitch="34" RiffPosition="6.0625" Velocity="0" />
      <note Length="0.03125" Pitch="44" RiffPosition="6.09375" Velocity="0" />
      <note Length="0.03125" Pitch="53" RiffPosition="6.125" Velocity="0" />
      <note Length="0.03125" Pitch="43" RiffPosition="6.15625" Velocity="0" />
      <note Length="0.03125" Pitch="36" RiffPosition="6.1875" Velocity="0" />
      <note Length="0.03125" Pitch="44" RiffPosition="6.21875" Velocity="0" />
      <note Length="0.03125" Pitch="54" RiffPosition="6.25" Velocity="0" />
      <note Length="0.03125" Pitch="44" RiffPosition="6.28125" Velocity="0" />
      <note Length="0.03125" Pitch="34" RiffPosition="6.3125" Velocity="0" />
      <note Length="0.03125" Pitch="44" RiffPosition="6.34375" Velocity="0" />
      <note Length="0.015625" Pitch="52" RiffPosition="6.375" Velocity="0" />
      <note Length="0.046875" Pitch="52" RiffPosition="6.390625" Velocity="0" />
      <note Length="0.03125" Pitch="35" RiffPosition="6.4375" Velocity="0" />
      <note Length="0.03125" Pitch="44" RiffPosition="6.46875" Velocity="0" />
      <note Length="0.03125" Pitch="54" RiffPosition="6.5" Velocity="0" />
      <note Length="0.03125" Pitch="44" RiffPosition="6.53125" Velocity="0" />
      <note Length="0.0625" Pitch="36" RiffPosition="6.5625" Velocity="0" />
      <note Length="0.046875" Pitch="52" RiffPosition="6.625" Velocity="0" />
      <note Length="0.015625" Pitch="35" RiffPosition="6.671875" Velocity="0" />
      <note Length="0.0625" Pitch="35" RiffPosition="6.6875" Velocity="0" />
      <note Length="0.046875" Pitch="53" RiffPosition="6.75" Velocity="0" />
      <note Length="0.015625" Pitch="34" RiffPosition="6.796875" Velocity="0" />
      <note Length="0.03125" Pitch="35" RiffPosition="6.8125" Velocity="0" />
      <note Length="0.03125" Pitch="44" RiffPosition="6.84375" Velocity="0" />
      <note Length="0.03125" Pitch="52" RiffPosition="6.875" Velocity="0" />
      <note Length="0.03125" Pitch="44" RiffPosition="6.90625" Velocity="0" />
      <note Length="0.03125" Pitch="34" RiffPosition="6.9375" Velocity="0" />
      <note Length="0.03125" Pitch="44" RiffPosition="6.96875" Velocity="0" />
      <note Length="0.03125" Pitch="53" RiffPosition="7" Velocity="109" />
      <note Length="0.03125" Pitch="44" RiffPosition="7.03125" Velocity="44" />
      <note Length="0.03125" Pitch="35" RiffPosition="7.0625" Velocity="0" />
      <note Length="0.03125" Pitch="44" RiffPosition="7.09375" Velocity="105" />
      <note Length="0.015625" Pitch="54" RiffPosition="7.125" Velocity="94" />
      <note Length="0.046875" Pitch="54" RiffPosition="7.140625" Velocity="47" />
      <note Length="0.03125" Pitch="34" RiffPosition="7.1875" Velocity="116" />
      <note Length="0.03125" Pitch="44" RiffPosition="7.21875" Velocity="120" />
      <note Length="0.03125" Pitch="53" RiffPosition="7.25" Velocity="106" />
      <note Length="0.03125" Pitch="44" RiffPosition="7.28125" Velocity="45" />
      <note Length="0.0625" Pitch="35" RiffPosition="7.3125" Velocity="0" />
      <note Length="0.046875" Pitch="54" RiffPosition="7.375" Velocity="107" />
      <note Length="0.015625" Pitch="34" RiffPosition="7.421875" Velocity="62" />
      <note Length="0.0625" Pitch="36" RiffPosition="7.4375" Velocity="0" />
      <note Length="0.046875" Pitch="52" RiffPosition="7.5" Velocity="56" />
      <note Length="0.015625" Pitch="35" RiffPosition="7.546875" Velocity="0" />
      <note Length="0.03125" Pitch="35" RiffPosition="7.5625" Velocity="0" />
      <note Length="0.03125" Pitch="43" RiffPosition="7.59375" Velocity="95" />
      <note Length="0.03125" Pitch="53" RiffPosition="7.625" Velocity="102" />
      <note Length="0.03125" Pitch="43" RiffPosition="7.65625" Velocity="54" />
      <note Length="0.03125" Pitch="36" RiffPosition="7.6875" Velocity="0" />
      <note Length="0.03125" Pitch="44" RiffPosition="7.71875" Velocity="112" />
      <note Length="0.03125" Pitch="52" RiffPosition="7.75" Velocity="64" />
      <note Length="0.03125" Pitch="44" RiffPosition="7.78125" Velocity="43" />
      <note Length="0.03125" Pitch="34" RiffPosition="7.8125" Velocity="104" />
      <note Length="0.03125" Pitch="44" RiffPosition="7.84375" Velocity="119" />
      <note Length="0.015625" Pitch="53" RiffPosition="7.875" Velocity="115" />
      <note Length="0.046875" Pitch="53" RiffPosition="7.890625" Velocity="57" />
      <note Length="0.03125" Pitch="36" RiffPosition="7.9375" Velocity="0" />
      <note Length="0.03125" Pitch="44" RiffPosition="7.96875" Velocity="100" />
      <note Length="0.03125" Pitch="54" RiffPosition="8" Velocity="93" />
      <note Length="0.03125" Pitch="44" RiffPosition="8.03125" Velocity="41" />
      <note Length="0.0625" Pitch="34" RiffPosition="8.0625" Velocity="95" />
      <note Length="0.046875" Pitch="52" RiffPosition="8.125" Velocity="50" />
      <note Length="0.015625" Pitch="36" RiffPosition="8.171875" Velocity="0" />
      <note Length="0.0625" Pitch="35" RiffPosition="8.1875" Velocity="0" />
      <note Length="0.046875" Pitch="54" RiffPosition="8.25" Velocity="108" />
      <note Length="0.015625" Pitch="34" RiffPosition="8.296875" Velocity="40" />
      <note Length="0.03125" Pitch="36" RiffPosition="8.3125" Velocity="0" />
      <note Length="0.03125" Pitch="44" RiffPosition="8.34375" Velocity="108" />
      <note Length="0.03125" Pitch="52" RiffPosition="8.375" Velocity="67" />
      <note Length="0.03125" Pitch="45" RiffPosition="8.40625" Velocity="53" />
      <note Length="0.03125" Pitch="35" RiffPosition="8.4375" Velocity="0" />
      <note Length="0.03125" Pitch="43" RiffPosition="8.46875" Velocity="93" />
      <note Length="0.03125" Pitch="53" RiffPosition="8.5" Velocity="104" />
      <note Length="0.03125" Pitch="44" RiffPosition="8.53125" Velocity="49" />
      <note Length="0.03125" Pitch="35" RiffPosition="8.5625" Velocity="0" />
      <note Length="0.03125" Pitch="44" RiffPosition="8.59375" Velocity="92" />
      <note Length="0.015625" Pitch="52" RiffPosition="8.625" Velocity="54" />
      <note Length="0.046875" Pitch="54" RiffPosition="8.640625" Velocity="42" />
      <note Length="0.03125" Pitch="35" RiffPosition="8.6875" Velocity="0" />
      <note Length="0.03125" Pitch="44" RiffPosition="8.71875" Velocity="115" />
      <note Length="0.03125" Pitch="53" RiffPosition="8.75" Velocity="119" />
      <note Length="0.03125" Pitch="44" RiffPosition="8.78125" Velocity="40" />
      <note Length="0.0625" Pitch="35" RiffPosition="8.8125" Velocity="0" />
      <note Length="0.046875" Pitch="54" RiffPosition="8.875" Velocity="112" />
      <note Length="0.015625" Pitch="34" RiffPosition="8.921875" Velocity="49" />
      <note Length="0.0625" Pitch="34" RiffPosition="8.9375" Velocity="92" />
      <note Length="0.046875" Pitch="53" RiffPosition="9" Velocity="96" />
      <note Length="0.015625" Pitch="36" RiffPosition="9.046875" Velocity="0" />
      <note Length="0.03125" Pitch="35" RiffPosition="9.0625" Velocity="0" />
      <note Length="0.03125" Pitch="43" RiffPosition="9.09375" Velocity="100" />
      <note Length="0.03125" Pitch="54" RiffPosition="9.125" Velocity="89" />
      <note Length="0.03125" Pitch="44" RiffPosition="9.15625" Velocity="49" />
      <note Length="0.03125" Pitch="36" RiffPosition="9.1875" Velocity="0" />
      <note Length="0.03125" Pitch="44" RiffPosition="9.21875" Velocity="107" />
      <note Length="0.03125" Pitch="52" RiffPosition="9.25" Velocity="61" />
      <note Length="0.03125" Pitch="44" RiffPosition="9.28125" Velocity="50" />
      <note Length="0.03125" Pitch="35" RiffPosition="9.3125" Velocity="0" />
      <note Length="0.03125" Pitch="43" RiffPosition="9.34375" Velocity="105" />
      <note Length="0.015625" Pitch="53" RiffPosition="9.375" Velocity="120" />
      <note Length="0.046875" Pitch="53" RiffPosition="9.390625" Velocity="43" />
      <note Length="0.03125" Pitch="36" RiffPosition="9.4375" Velocity="0" />
      <note Length="0.03125" Pitch="44" RiffPosition="9.46875" Velocity="95" />
      <note Length="0.03125" Pitch="52" RiffPosition="9.5" Velocity="58" />
      <note Length="0.03125" Pitch="44" RiffPosition="9.53125" Velocity="46" />
      <note Length="0.0625" Pitch="34" RiffPosition="9.5625" Velocity="100" />
      <note Length="0.046875" Pitch="53" RiffPosition="9.625" Velocity="96" />
      <note Length="0.015625" Pitch="36" RiffPosition="9.671875" Velocity="0" />
      <note Length="0.0625" Pitch="36" RiffPosition="9.6875" Velocity="0" />
      <note Length="0.046875" Pitch="54" RiffPosition="9.75" Velocity="103" />
      <note Length="0.015625" Pitch="35" RiffPosition="9.796875" Velocity="0" />
      <note Length="0.03125" Pitch="34" RiffPosition="9.8125" Velocity="99" />
      <note Length="0.03125" Pitch="44" RiffPosition="9.84375" Velocity="113" />
      <note Length="0.03125" Pitch="52" RiffPosition="9.875" Velocity="60" />
      <note Length="0.03125" Pitch="45" RiffPosition="9.90625" Velocity="58" />
      <note Length="0.03125" Pitch="35" RiffPosition="9.9375" Velocity="0" />
      <note Length="0.03125" Pitch="44" RiffPosition="9.96875" Velocity="88" />
      <note Length="0.03125" Pitch="54" RiffPosition="10" Velocity="99" />
      <note Length="0.03125" Pitch="44" RiffPosition="10.03125" Velocity="45" />
      <note Length="0.03125" Pitch="36" RiffPosition="10.0625" Velocity="0" />
      <note Length="0.03125" Pitch="44" RiffPosition="10.09375" Velocity="97" />
      <note Length="0.015625" Pitch="52" RiffPosition="10.125" Velocity="57" />
      <note Length="0.046875" Pitch="54" RiffPosition="10.140625" Velocity="56" />
      <note Length="0.03125" Pitch="35" RiffPosition="10.1875" Velocity="0" />
      <note Length="0.03125" Pitch="44" RiffPosition="10.21875" Velocity="110" />
      <note Length="0.03125" Pitch="53" RiffPosition="10.25" Velocity="114" />
      <note Length="0.03125" Pitch="44" RiffPosition="10.28125" Velocity="45" />
      <note Length="0.0625" Pitch="35" RiffPosition="10.3125" Velocity="0" />
      <note Length="0.046875" Pitch="52" RiffPosition="10.375" Velocity="64" />
      <note Length="0.015625" Pitch="35" RiffPosition="10.421875" Velocity="0" />
      <note Length="0.0625" Pitch="35" RiffPosition="10.4375" Velocity="0" />
      <note Length="0.046875" Pitch="53" RiffPosition="10.5" Velocity="109" />
      <note Length="0.015625" Pitch="36" RiffPosition="10.546875" Velocity="0" />
      <note Length="0.03125" Pitch="35" RiffPosition="10.5625" Velocity="0" />
      <note Length="0.03125" Pitch="44" RiffPosition="10.59375" Velocity="105" />
      <note Length="0.03125" Pitch="54" RiffPosition="10.625" Velocity="94" />
      <note Length="0.03125" Pitch="44" RiffPosition="10.65625" Velocity="44" />
      <note Length="0.03125" Pitch="34" RiffPosition="10.6875" Velocity="116" />
      <note Length="0.03125" Pitch="44" RiffPosition="10.71875" Velocity="120" />
      <note Length="0.03125" Pitch="53" RiffPosition="10.75" Velocity="106" />
      <note Length="0.03125" Pitch="44" RiffPosition="10.78125" Velocity="45" />
      <note Length="0.03125" Pitch="35" RiffPosition="10.8125" Velocity="0" />
      <note Length="0.03125" Pitch="43" RiffPosition="10.84375" Velocity="110" />
      <note Length="0.015625" Pitch="54" RiffPosition="10.875" Velocity="106" />
      <note Length="0.046875" Pitch="53" RiffPosition="10.890625" Velocity="48" />
      <note Length="0.03125" Pitch="36" RiffPosition="10.9375" Velocity="0" />
      <note Length="0.03125" Pitch="44" RiffPosition="10.96875" Velocity="90" />
      <note Length="0.03125" Pitch="52" RiffPosition="11" Velocity="0" />
      <note Length="0.03125" Pitch="44" RiffPosition="11.03125" Velocity="0" />
      <note Length="0.0625" Pitch="35" RiffPosition="11.0625" Velocity="0" />
      <note Length="0.046875" Pitch="54" RiffPosition="11.125" Velocity="0" />
      <note Length="0.015625" Pitch="34" RiffPosition="11.171875" Velocity="0" />
      <note Length="0.0625" Pitch="36" RiffPosition="11.1875" Velocity="0" />
      <note Length="0.046875" Pitch="52" RiffPosition="11.25" Velocity="0" />
      <note Length="0.015625" Pitch="35" RiffPosition="11.296875" Velocity="0" />
      <note Length="0.03125" Pitch="34" RiffPosition="11.3125" Velocity="0" />
      <note Length="0.03125" Pitch="45" RiffPosition="11.34375" Velocity="0" />
      <note Length="0.03125" Pitch="53" RiffPosition="11.375" Velocity="0" />
      <note Length="0.03125" Pitch="43" RiffPosition="11.40625" Velocity="0" />
      <note Length="0.03125" Pitch="36" RiffPosition="11.4375" Velocity="0" />
      <note Length="0.03125" Pitch="44" RiffPosition="11.46875" Velocity="0" />
      <note Length="0.03125" Pitch="54" RiffPosition="11.5" Velocity="0" />
      <note Length="0.03125" Pitch="44" RiffPosition="11.53125" Velocity="0" />
      <note Length="0.03125" Pitch="34" RiffPosition="11.5625" Velocity="0" />
      <note Length="0.03125" Pitch="44" RiffPosition="11.59375" Velocity="0" />
      <note Length="0.015625" Pitch="52" RiffPosition="11.625" Velocity="0" />
      <note Length="0.046875" Pitch="52" RiffPosition="11.640625" Velocity="0" />
      <note Length="0.03125" Pitch="35" RiffPosition="11.6875" Velocity="0" />
      <note Length="0.03125" Pitch="44" RiffPosition="11.71875" Velocity="0" />
      <note Length="0.03125" Pitch="54" RiffPosition="11.75" Velocity="0" />
      <note Length="0.03125" Pitch="44" RiffPosition="11.78125" Velocity="0" />
      <note Length="0.0625" Pitch="36" RiffPosition="11.8125" Velocity="0" />
      <note Length="0.046875" Pitch="52" RiffPosition="11.875" Velocity="0" />
      <note Length="0.015625" Pitch="35" RiffPosition="11.921875" Velocity="0" />
      <note Length="0.0625" Pitch="35" RiffPosition="11.9375" Velocity="0" />
    </riff>
  </riffPack>
  <lyrics>
    <line>****** ****** ****** ******</line>
    <line>****** ****** ****** ******</line>
    <line>taste the fruit of the gods</line>
    <line>taste the pain caressed by chains</line>
    <line>knew the same of elvis presley, too</line>
    <line>a human candle with a guttering flame</line>
    <line>****** ****** ****** ******</line>
    <line>****** ****** ****** ******</line>
    <line>****** ****** ****** ******</line>
    <line>****** ****** ****** ******</line>
    <line>****** ****** ****** ******</line>
    <line>he could play the drums for my shows</line>
    <line>i do, i do adore you</line>
    <line>creature of insanity,</line>
    <line>i will journey ahead</line>
    <line>throw 'em a couple g's</line>
    <line>we banged the drum slowly</line>
    <line>creature of insanity,</line>
    <line>a river mutters its lullaby</line>
    <line>throw 'em a couple g's</line>
    <line>a humming noice from within.</line>
    <line>creature of insanity,</line>
    <line>throw 'em a couple g's</line>
    <line>creature of insanity,</line>
    <line>****** ****** ****** ******</line>
    <line>****** ****** ****** ******</line>
    <line>****** ****** ****** ******</line>
    <line>****** ****** ****** ******</line>
  </lyrics>
  <lyricsSongFactoryCollection>
    <lyricSongFactory BarCount="28" BarCountPerChorus="2">
      <barInfo>
        <bar Intensity="0" LetterCount="16" />
        <bar Intensity="0" LetterCount="16" />
        <bar Intensity="0.2" LetterCount="27" />
        <bar Intensity="0.1764706" LetterCount="33" />
        <bar Intensity="0.1647059" LetterCount="35" />
        <bar Intensity="0.1764706" LetterCount="38" />
        <bar Intensity="0" LetterCount="27" />
        <bar Intensity="0" LetterCount="27" />
        <bar Intensity="0" LetterCount="31" />
        <bar Intensity="0" LetterCount="34" />
        <bar Intensity="0" LetterCount="30" />
        <bar Intensity="0.1882353" LetterCount="35" />
        <bar Intensity="0.8235294" LetterCount="16" />
        <bar Intensity="1" LetterCount="16" />
        <bar Intensity="0.8235294" LetterCount="16" />
        <bar Intensity="1" LetterCount="16" />
        <bar Intensity="0.8235294" LetterCount="22" />
        <bar Intensity="1" LetterCount="23" />
        <bar Intensity="0.8235294" LetterCount="26" />
        <bar Intensity="1" LetterCount="26" />
        <bar Intensity="0.8" LetterCount="26" />
        <bar Intensity="1" LetterCount="29" />
        <bar Intensity="1" LetterCount="29" />
        <bar Intensity="1" LetterCount="27" />
        <bar Intensity="0" LetterCount="16" />
        <bar Intensity="0" LetterCount="16" />
        <bar Intensity="0" LetterCount="16" />
        <bar Intensity="0" LetterCount="16" />
      </barInfo>
      <themeList>
        <theme>nature</theme>
        <theme>fantastic</theme>
        <theme>love</theme>
        <theme>music</theme>
      </themeList>
      <themeBlackList>
        <theme>sex</theme>
        <theme>racism</theme>
        <theme>social</theme>
        <theme>exclamation</theme>
        <theme>swearing</theme>
        <theme>gangsta</theme>
      </themeBlackList>
    </lyricSongFactory>
  </lyricsSongFactoryCollection>
  <predefinedGenerator BarCount="28" IsOverrideScale="True" IsOverrideTempo="True" Modulation="0" ScaleName="minorPentatonic" Tempo="101" LyricsToMusicPhase="0">
    <predefinedGeneratorTrack MetaRiffPackName="PianoClassic">
      <barInfo isOn="True" />
      <barInfo isOn="True" />
      <barInfo isOn="True" />
      <barInfo isOn="True" />
      <barInfo isOn="True" />
      <barInfo isOn="True" />
      <barInfo isOn="False" />
      <barInfo isOn="True" />
      <barInfo isOn="True" />
      <barInfo isOn="True" />
      <barInfo isOn="True" />
      <barInfo isOn="False" />
      <barInfo isOn="False" />
      <barInfo isOn="False" />
      <barInfo isOn="False" />
      <barInfo isOn="False" />
      <barInfo isOn="False" />
      <barInfo isOn="False" />
      <barInfo isOn="False" />
      <barInfo isOn="False" />
      <barInfo isOn="False" />
      <barInfo isOn="False" />
      <barInfo isOn="False" />
      <barInfo isOn="False" />
      <barInfo isOn="False" />
      <barInfo isOn="False" />
      <barInfo isOn="False" />
      <barInfo isOn="False" />
    </predefinedGeneratorTrack>
    <predefinedGeneratorTrack MetaRiffPackName="MeditativeChina">
      <barInfo isOn="False" />
      <barInfo isOn="False" />
      <barInfo isOn="True" />
      <barInfo isOn="True" />
      <barInfo isOn="True" />
      <barInfo isOn="True" />
      <barInfo isOn="False" />
      <barInfo isOn="False" />
      <barInfo isOn="False" />
      <barInfo isOn="False" />
      <barInfo isOn="False" />
      <barInfo isOn="True" />
      <barInfo isOn="False" />
      <barInfo isOn="False" />
      <barInfo isOn="False" />
      <barInfo isOn="False" />
      <barInfo isOn="False" />
      <barInfo isOn="False" />
      <barInfo isOn="False" />
      <barInfo isOn="False" />
      <barInfo isOn="False" />
      <barInfo isOn="False" />
      <barInfo isOn="False" />
      <barInfo isOn="False" />
      <barInfo isOn="False" />
      <barInfo isOn="False" />
      <barInfo isOn="False" />
      <barInfo isOn="False" />
    </predefinedGeneratorTrack>
    <predefinedGeneratorTrack MetaRiffPackName="DrumSnareQuad">
      <barInfo isOn="False" />
      <barInfo isOn="False" />
      <barInfo isOn="False" />
      <barInfo isOn="True" />
      <barInfo isOn="True" />
      <barInfo isOn="True" />
      <barInfo isOn="True" />
      <barInfo isOn="True" />
      <barInfo isOn="True" />
      <barInfo isOn="False" />
      <barInfo isOn="False" />
      <barInfo isOn="True" />
      <barInfo isOn="False" />
      <barInfo isOn="False" />
      <barInfo isOn="False" />
      <barInfo isOn="False" />
      <barInfo isOn="False" />
      <barInfo isOn="False" />
      <barInfo isOn="False" />
      <barInfo isOn="False" />
      <barInfo isOn="False" />
      <barInfo isOn="False" />
      <barInfo isOn="False" />
      <barInfo isOn="False" />
      <barInfo isOn="False" />
      <barInfo isOn="False" />
      <barInfo isOn="False" />
      <barInfo isOn="False" />
    </predefinedGeneratorTrack>
    <predefinedGeneratorTrack MetaRiffPackName="BassSynth">
      <barInfo isOn="False" />
      <barInfo isOn="False" />
      <barInfo isOn="False" />
      <barInfo isOn="True" />
      <barInfo isOn="True" />
      <barInfo isOn="True" />
      <barInfo isOn="True" />
      <barInfo isOn="True" />
      <barInfo isOn="True" />
      <barInfo isOn="True" />
      <barInfo isOn="True" />
      <barInfo isOn="True" />
      <barInfo isOn="False" />
      <barInfo isOn="False" />
      <barInfo isOn="False" />
      <barInfo isOn="False" />
      <barInfo isOn="False" />
      <barInfo isOn="False" />
      <barInfo isOn="False" />
      <barInfo isOn="False" />
      <barInfo isOn="False" />
      <barInfo isOn="False" />
      <barInfo isOn="False" />
      <barInfo isOn="False" />
      <barInfo isOn="False" />
      <barInfo isOn="False" />
      <barInfo isOn="False" />
      <barInfo isOn="False" />
    </predefinedGeneratorTrack>
    <predefinedGeneratorTrack MetaRiffPackName="MeditativeChina">
      <barInfo isOn="False" />
      <barInfo isOn="False" />
      <barInfo isOn="False" />
      <barInfo isOn="False" />
      <barInfo isOn="False" />
      <barInfo isOn="False" />
      <barInfo isOn="True" />
      <barInfo isOn="True" />
      <barInfo isOn="True" />
      <barInfo isOn="True" />
      <barInfo isOn="True" />
      <barInfo isOn="False" />
      <barInfo isOn="False" />
      <barInfo isOn="False" />
      <barInfo isOn="False" />
      <barInfo isOn="False" />
      <barInfo isOn="False" />
      <barInfo isOn="False" />
      <barInfo isOn="False" />
      <barInfo isOn="False" />
      <barInfo isOn="False" />
      <barInfo isOn="False" />
      <barInfo isOn="False" />
      <barInfo isOn="False" />
      <barInfo isOn="False" />
      <barInfo isOn="False" />
      <barInfo isOn="False" />
      <barInfo isOn="False" />
    </predefinedGeneratorTrack>
    <predefinedGeneratorTrack MetaRiffPackName="GuitarMetalBlack">
      <barInfo isOn="False" />
      <barInfo isOn="False" />
      <barInfo isOn="False" />
      <barInfo isOn="False" />
      <barInfo isOn="False" />
      <barInfo isOn="False" />
      <barInfo isOn="True" />
      <barInfo isOn="True" />
      <barInfo isOn="True" />
      <barInfo isOn="True" />
      <barInfo isOn="True" />
      <barInfo isOn="False" />
      <barInfo isOn="False" />
      <barInfo isOn="False" />
      <barInfo isOn="False" />
      <barInfo isOn="False" />
      <barInfo isOn="False" />
      <barInfo isOn="False" />
      <barInfo isOn="False" />
      <barInfo isOn="False" />
      <barInfo isOn="False" />
      <barInfo isOn="False" />
      <barInfo isOn="False" />
      <barInfo isOn="False" />
      <barInfo isOn="False" />
      <barInfo isOn="False" />
      <barInfo isOn="False" />
      <barInfo isOn="False" />
    </predefinedGeneratorTrack>
    <predefinedGeneratorTrack MetaRiffPackName="DrumSnareOcta">
      <barInfo isOn="False" />
      <barInfo isOn="False" />
      <barInfo isOn="False" />
      <barInfo isOn="False" />
      <barInfo isOn="False" />
      <barInfo isOn="False" />
      <barInfo isOn="False" />
      <barInfo isOn="False" />
      <barInfo isOn="False" />
      <barInfo isOn="True" />
      <barInfo isOn="True" />
      <barInfo isOn="False" />
      <barInfo isOn="False" />
      <barInfo isOn="False" />
      <barInfo isOn="False" />
      <barInfo isOn="False" />
      <barInfo isOn="False" />
      <barInfo isOn="False" />
      <barInfo isOn="False" />
      <barInfo isOn="False" />
      <barInfo isOn="False" />
      <barInfo isOn="False" />
      <barInfo isOn="False" />
      <barInfo isOn="False" />
      <barInfo isOn="False" />
      <barInfo isOn="False" />
      <barInfo isOn="False" />
      <barInfo isOn="False" />
    </predefinedGeneratorTrack>
    <predefinedGeneratorTrack MetaRiffPackName="DrumBassQuad">
      <barInfo isOn="False" />
      <barInfo isOn="False" />
      <barInfo isOn="False" />
      <barInfo isOn="False" />
      <barInfo isOn="False" />
      <barInfo isOn="False" />
      <barInfo isOn="False" />
      <barInfo isOn="False" />
      <barInfo isOn="False" />
      <barInfo isOn="True" />
      <barInfo isOn="True" />
      <barInfo isOn="False" />
      <barInfo isOn="False" />
      <barInfo isOn="False" />
      <barInfo isOn="False" />
      <barInfo isOn="False" />
      <barInfo isOn="False" />
      <barInfo isOn="False" />
      <barInfo isOn="False" />
      <barInfo isOn="False" />
      <barInfo isOn="False" />
      <barInfo isOn="False" />
      <barInfo isOn="False" />
      <barInfo isOn="False" />
      <barInfo isOn="False" />
      <barInfo isOn="False" />
      <barInfo isOn="False" />
      <barInfo isOn="False" />
    </predefinedGeneratorTrack>
    <predefinedGeneratorTrack MetaRiffPackName="DrumQuad">
      <barInfo isOn="False" />
      <barInfo isOn="False" />
      <barInfo isOn="False" />
      <barInfo isOn="False" />
      <barInfo isOn="False" />
      <barInfo isOn="False" />
      <barInfo isOn="False" />
      <barInfo isOn="True" />
      <barInfo isOn="True" />
      <barInfo isOn="True" />
      <barInfo isOn="True" />
      <barInfo isOn="False" />
      <barInfo isOn="False" />
      <barInfo isOn="False" />
      <barInfo isOn="False" />
      <barInfo isOn="False" />
      <barInfo isOn="False" />
      <barInfo isOn="False" />
      <barInfo isOn="False" />
      <barInfo isOn="False" />
      <barInfo isOn="False" />
      <barInfo isOn="False" />
      <barInfo isOn="False" />
      <barInfo isOn="False" />
      <barInfo isOn="False" />
      <barInfo isOn="False" />
      <barInfo isOn="False" />
      <barInfo isOn="False" />
    </predefinedGeneratorTrack>
  </predefinedGenerator>
</song>