<?xml version="1.0" encoding="UTF-8"?>
<song>
  <riffPack Tempo="123">
    <riff IsDrum="False" MidiInstrument="15" Tempo="82" Length="8">
      <note Length="0.0625" Pitch="68" RiffPosition="0" Velocity="46" />
      <note Length="0.03125" Pitch="73" RiffPosition="0.0625" Velocity="84" />
      <note Length="0.03125" Pitch="63" RiffPosition="0.09375" Velocity="118" />
      <note Length="0.046875" Pitch="63" RiffPosition="0.125" Velocity="109" />
      <note Length="0.046875" Pitch="63" RiffPosition="0.171875" Velocity="48" />
      <note Length="0.015625" Pitch="51" RiffPosition="0.21875" Velocity="97" />
      <note Length="0.015625" Pitch="61" RiffPosition="0.234375" Velocity="105" />
      <note Length="0.03125" Pitch="49" RiffPosition="0.25" Velocity="111" />
      <note Length="0.09375" Pitch="57" RiffPosition="0.28125" Velocity="84" />
      <note Length="0.0625" Pitch="61" RiffPosition="0.375" Velocity="46" />
      <note Length="0.0625" Pitch="69" RiffPosition="0.4375" Velocity="43" />
      <note Length="0.0625" Pitch="75" RiffPosition="0.5" Velocity="42" />
      <note Length="0.03125" Pitch="73" RiffPosition="0.5625" Velocity="88" />
      <note Length="0.03125" Pitch="69" RiffPosition="0.59375" Velocity="122" />
      <note Length="0.046875" Pitch="63" RiffPosition="0.625" Velocity="109" />
      <note Length="0.046875" Pitch="69" RiffPosition="0.671875" Velocity="44" />
      <note Length="0.015625" Pitch="61" RiffPosition="0.71875" Velocity="101" />
      <note Length="0.015625" Pitch="49" RiffPosition="0.734375" Velocity="109" />
      <note Length="0.03125" Pitch="57" RiffPosition="0.75" Velocity="116" />
      <note Length="0.09375" Pitch="54" RiffPosition="0.78125" Velocity="84" />
      <note Length="0.0625" Pitch="66" RiffPosition="0.875" Velocity="50" />
      <note Length="0.0625" Pitch="69" RiffPosition="0.9375" Velocity="43" />
      <note Length="0.0625" Pitch="63" RiffPosition="1" Velocity="46" />
      <note Length="0.03125" Pitch="69" RiffPosition="1.0625" Velocity="84" />
      <note Length="0.03125" Pitch="69" RiffPosition="1.09375" Velocity="118" />
      <note Length="0.046875" Pitch="63" RiffPosition="1.125" Velocity="109" />
      <note Length="0.046875" Pitch="61" RiffPosition="1.171875" Velocity="48" />
      <note Length="0.015625" Pitch="57" RiffPosition="1.21875" Velocity="97" />
      <note Length="0.015625" Pitch="57" RiffPosition="1.234375" Velocity="105" />
      <note Length="0.03125" Pitch="57" RiffPosition="1.25" Velocity="111" />
      <note Length="0.09375" Pitch="54" RiffPosition="1.28125" Velocity="84" />
      <note Length="0.0625" Pitch="56" RiffPosition="1.375" Velocity="46" />
      <note Length="0.0625" Pitch="68" RiffPosition="1.4375" Velocity="43" />
      <note Length="0.0625" Pitch="73" RiffPosition="1.5" Velocity="42" />
      <note Length="0.03125" Pitch="69" RiffPosition="1.5625" Velocity="88" />
      <note Length="0.03125" Pitch="68" RiffPosition="1.59375" Velocity="122" />
      <note Length="0.046875" Pitch="69" RiffPosition="1.625" Velocity="109" />
      <note Length="0.046875" Pitch="66" RiffPosition="1.671875" Velocity="44" />
      <note Length="0.015625" Pitch="57" RiffPosition="1.71875" Velocity="101" />
      <note Length="0.015625" Pitch="54" RiffPosition="1.734375" Velocity="109" />
      <note Length="0.03125" Pitch="54" RiffPosition="1.75" Velocity="116" />
      <note Length="0.09375" Pitch="63" RiffPosition="1.78125" Velocity="84" />
      <note Length="0.0625" Pitch="63" RiffPosition="1.875" Velocity="50" />
      <note Length="0.0625" Pitch="75" RiffPosition="1.9375" Velocity="43" />
      <note Length="0.0625" Pitch="63" RiffPosition="2" Velocity="46" />
      <note Length="0.03125" Pitch="68" RiffPosition="2.0625" Velocity="84" />
      <note Length="0.03125" Pitch="75" RiffPosition="2.09375" Velocity="118" />
      <note Length="0.046875" Pitch="61" RiffPosition="2.125" Velocity="109" />
      <note Length="0.046875" Pitch="63" RiffPosition="2.171875" Velocity="48" />
      <note Length="0.015625" Pitch="54" RiffPosition="2.21875" Velocity="97" />
      <note Length="0.015625" Pitch="54" RiffPosition="2.234375" Velocity="105" />
      <note Length="0.03125" Pitch="54" RiffPosition="2.25" Velocity="111" />
      <note Length="0.09375" Pitch="51" RiffPosition="2.28125" Velocity="84" />
      <note Length="0.0625" Pitch="63" RiffPosition="2.375" Velocity="46" />
      <note Length="0.0625" Pitch="63" RiffPosition="2.4375" Velocity="43" />
      <note Length="0.0625" Pitch="69" RiffPosition="2.5" Velocity="42" />
      <note Length="0.03125" Pitch="68" RiffPosition="2.5625" Velocity="88" />
      <note Length="0.03125" Pitch="63" RiffPosition="2.59375" Velocity="122" />
      <note Length="0.046875" Pitch="66" RiffPosition="2.625" Velocity="109" />
      <note Length="0.046875" Pitch="63" RiffPosition="2.671875" Velocity="44" />
      <note Length="0.015625" Pitch="54" RiffPosition="2.71875" Velocity="101" />
      <note Length="0.015625" Pitch="63" RiffPosition="2.734375" Velocity="109" />
      <note Length="0.03125" Pitch="51" RiffPosition="2.75" Velocity="116" />
      <note Length="0.09375" Pitch="61" RiffPosition="2.78125" Velocity="84" />
      <note Length="0.0625" Pitch="63" RiffPosition="2.875" Velocity="50" />
      <note Length="0.0625" Pitch="73" RiffPosition="2.9375" Velocity="43" />
      <note Length="0.0625" Pitch="69" RiffPosition="3" Velocity="46" />
      <note Length="0.03125" Pitch="63" RiffPosition="3.0625" Velocity="84" />
      <note Length="0.03125" Pitch="73" RiffPosition="3.09375" Velocity="118" />
      <note Length="0.046875" Pitch="56" RiffPosition="3.125" Velocity="109" />
      <note Length="0.046875" Pitch="63" RiffPosition="3.171875" Velocity="48" />
      <note Length="0.015625" Pitch="63" RiffPosition="3.21875" Velocity="97" />
      <note Length="0.015625" Pitch="51" RiffPosition="3.234375" Velocity="105" />
      <note Length="0.03125" Pitch="61" RiffPosition="3.25" Velocity="111" />
      <note Length="0.09375" Pitch="49" RiffPosition="3.28125" Velocity="84" />
      <note Length="0.0625" Pitch="69" RiffPosition="3.375" Velocity="46" />
      <note Length="0.0625" Pitch="63" RiffPosition="3.4375" Velocity="43" />
      <note Length="0.0625" Pitch="68" RiffPosition="3.5" Velocity="42" />
      <note Length="0.03125" Pitch="63" RiffPosition="3.5625" Velocity="88" />
      <note Length="0.03125" Pitch="63" RiffPosition="3.59375" Velocity="122" />
      <note Length="0.046875" Pitch="63" RiffPosition="3.625" Velocity="109" />
      <note Length="0.046875" Pitch="63" RiffPosition="3.671875" Velocity="44" />
      <note Length="0.015625" Pitch="51" RiffPosition="3.71875" Velocity="101" />
      <note Length="0.015625" Pitch="61" RiffPosition="3.734375" Velocity="109" />
      <note Length="0.03125" Pitch="61" RiffPosition="3.75" Velocity="116" />
      <note Length="0.09375" Pitch="57" RiffPosition="3.78125" Velocity="84" />
      <note Length="0.0625" Pitch="61" RiffPosition="3.875" Velocity="50" />
      <note Length="0.0625" Pitch="69" RiffPosition="3.9375" Velocity="43" />
      <note Length="0.0625" Pitch="68" RiffPosition="4" Velocity="46" />
      <note Length="0.03125" Pitch="73" RiffPosition="4.0625" Velocity="84" />
      <note Length="0.03125" Pitch="69" RiffPosition="4.09375" Velocity="118" />
      <note Length="0.046875" Pitch="63" RiffPosition="4.125" Velocity="109" />
      <note Length="0.046875" Pitch="69" RiffPosition="4.171875" Velocity="48" />
      <note Length="0.015625" Pitch="61" RiffPosition="4.21875" Velocity="97" />
      <note Length="0.015625" Pitch="49" RiffPosition="4.234375" Velocity="105" />
      <note Length="0.03125" Pitch="57" RiffPosition="4.25" Velocity="111" />
      <note Length="0.09375" Pitch="54" RiffPosition="4.28125" Velocity="84" />
      <note Length="0.0625" Pitch="66" RiffPosition="4.375" Velocity="46" />
      <note Length="0.0625" Pitch="69" RiffPosition="4.4375" Velocity="43" />
      <note Length="0.0625" Pitch="63" RiffPosition="4.5" Velocity="42" />
      <note Length="0.03125" Pitch="69" RiffPosition="4.5625" Velocity="88" />
      <note Length="0.03125" Pitch="69" RiffPosition="4.59375" Velocity="122" />
      <note Length="0.046875" Pitch="63" RiffPosition="4.625" Velocity="109" />
      <note Length="0.046875" Pitch="61" RiffPosition="4.671875" Velocity="44" />
      <note Length="0.015625" Pitch="57" RiffPosition="4.71875" Velocity="101" />
      <note Length="0.015625" Pitch="57" RiffPosition="4.734375" Velocity="109" />
      <note Length="0.03125" Pitch="57" RiffPosition="4.75" Velocity="116" />
      <note Length="0.09375" Pitch="54" RiffPosition="4.78125" Velocity="84" />
      <note Length="0.0625" Pitch="56" RiffPosition="4.875" Velocity="50" />
      <note Length="0.0625" Pitch="68" RiffPosition="4.9375" Velocity="43" />
      <note Length="0.0625" Pitch="73" RiffPosition="5" Velocity="46" />
      <note Length="0.03125" Pitch="69" RiffPosition="5.0625" Velocity="84" />
      <note Length="0.03125" Pitch="68" RiffPosition="5.09375" Velocity="118" />
      <note Length="0.046875" Pitch="69" RiffPosition="5.125" Velocity="109" />
      <note Length="0.046875" Pitch="66" RiffPosition="5.171875" Velocity="48" />
      <note Length="0.015625" Pitch="57" RiffPosition="5.21875" Velocity="97" />
      <note Length="0.015625" Pitch="57" RiffPosition="5.234375" Velocity="105" />
      <note Length="0.03125" Pitch="54" RiffPosition="5.25" Velocity="111" />
      <note Length="0.09375" Pitch="63" RiffPosition="5.28125" Velocity="84" />
      <note Length="0.0625" Pitch="63" RiffPosition="5.375" Velocity="46" />
      <note Length="0.0625" Pitch="75" RiffPosition="5.4375" Velocity="43" />
      <note Length="0.0625" Pitch="73" RiffPosition="5.5" Velocity="42" />
      <note Length="0.03125" Pitch="68" RiffPosition="5.5625" Velocity="88" />
      <note Length="0.03125" Pitch="75" RiffPosition="5.59375" Velocity="122" />
      <note Length="0.046875" Pitch="61" RiffPosition="5.625" Velocity="109" />
      <note Length="0.046875" Pitch="56" RiffPosition="5.671875" Velocity="44" />
      <note Length="0.015625" Pitch="54" RiffPosition="5.71875" Velocity="101" />
      <note Length="0.015625" Pitch="54" RiffPosition="5.734375" Velocity="109" />
      <note Length="0.03125" Pitch="54" RiffPosition="5.75" Velocity="116" />
      <note Length="0.09375" Pitch="51" RiffPosition="5.78125" Velocity="84" />
      <note Length="0.0625" Pitch="63" RiffPosition="5.875" Velocity="50" />
      <note Length="0.0625" Pitch="63" RiffPosition="5.9375" Velocity="43" />
      <note Length="0.0625" Pitch="69" RiffPosition="6" Velocity="46" />
      <note Length="0.03125" Pitch="68" RiffPosition="6.0625" Velocity="84" />
      <note Length="0.03125" Pitch="63" RiffPosition="6.09375" Velocity="118" />
      <note Length="0.046875" Pitch="66" RiffPosition="6.125" Velocity="109" />
      <note Length="0.046875" Pitch="63" RiffPosition="6.171875" Velocity="48" />
      <note Length="0.015625" Pitch="54" RiffPosition="6.21875" Velocity="97" />
      <note Length="0.015625" Pitch="63" RiffPosition="6.234375" Velocity="105" />
      <note Length="0.03125" Pitch="51" RiffPosition="6.25" Velocity="111" />
      <note Length="0.09375" Pitch="61" RiffPosition="6.28125" Velocity="84" />
      <note Length="0.0625" Pitch="63" RiffPosition="6.375" Velocity="46" />
      <note Length="0.0625" Pitch="73" RiffPosition="6.4375" Velocity="43" />
      <note Length="0.0625" Pitch="69" RiffPosition="6.5" Velocity="42" />
      <note Length="0.03125" Pitch="63" RiffPosition="6.5625" Velocity="88" />
      <note Length="0.03125" Pitch="73" RiffPosition="6.59375" Velocity="122" />
      <note Length="0.046875" Pitch="56" RiffPosition="6.625" Velocity="109" />
      <note Length="0.046875" Pitch="63" RiffPosition="6.671875" Velocity="44" />
      <note Length="0.015625" Pitch="63" RiffPosition="6.71875" Velocity="101" />
      <note Length="0.015625" Pitch="51" RiffPosition="6.734375" Velocity="109" />
      <note Length="0.03125" Pitch="61" RiffPosition="6.75" Velocity="116" />
      <note Length="0.09375" Pitch="49" RiffPosition="6.78125" Velocity="84" />
      <note Length="0.0625" Pitch="69" RiffPosition="6.875" Velocity="50" />
      <note Length="0.0625" Pitch="63" RiffPosition="6.9375" Velocity="43" />
      <note Length="0.0625" Pitch="68" RiffPosition="7" Velocity="46" />
      <note Length="0.03125" Pitch="63" RiffPosition="7.0625" Velocity="84" />
      <note Length="0.03125" Pitch="63" RiffPosition="7.09375" Velocity="118" />
      <note Length="0.046875" Pitch="63" RiffPosition="7.125" Velocity="109" />
      <note Length="0.046875" Pitch="63" RiffPosition="7.171875" Velocity="48" />
      <note Length="0.015625" Pitch="51" RiffPosition="7.21875" Velocity="97" />
      <note Length="0.015625" Pitch="61" RiffPosition="7.234375" Velocity="105" />
      <note Length="0.03125" Pitch="61" RiffPosition="7.25" Velocity="111" />
      <note Length="0.09375" Pitch="57" RiffPosition="7.28125" Velocity="84" />
      <note Length="0.0625" Pitch="61" RiffPosition="7.375" Velocity="46" />
      <note Length="0.0625" Pitch="69" RiffPosition="7.4375" Velocity="43" />
      <note Length="0.0625" Pitch="68" RiffPosition="7.5" Velocity="42" />
      <note Length="0.03125" Pitch="73" RiffPosition="7.5625" Velocity="88" />
      <note Length="0.03125" Pitch="69" RiffPosition="7.59375" Velocity="122" />
      <note Length="0.046875" Pitch="63" RiffPosition="7.625" Velocity="109" />
      <note Length="0.046875" Pitch="69" RiffPosition="7.671875" Velocity="44" />
      <note Length="0.015625" Pitch="61" RiffPosition="7.71875" Velocity="101" />
      <note Length="0.015625" Pitch="49" RiffPosition="7.734375" Velocity="109" />
      <note Length="0.03125" Pitch="57" RiffPosition="7.75" Velocity="116" />
      <note Length="0.09375" Pitch="57" RiffPosition="7.78125" Velocity="84" />
      <note Length="0.0625" Pitch="66" RiffPosition="7.875" Velocity="50" />
      <note Length="0.0625" Pitch="69" RiffPosition="7.9375" Velocity="43" />
    </riff>
    <riff IsDrum="False" MidiInstrument="15" Tempo="81" Length="8">
      <note Length="0.0625" Pitch="78" RiffPosition="0" Velocity="60" />
      <note Length="0.03125" Pitch="69" RiffPosition="0.0625" Velocity="79" />
      <note Length="0.03125" Pitch="69" RiffPosition="0.09375" Velocity="46" />
      <note Length="0.03125" Pitch="66" RiffPosition="0.125" Velocity="62" />
      <note Length="0.03125" Pitch="63" RiffPosition="0.15625" Velocity="101" />
      <note Length="0.046875" Pitch="57" RiffPosition="0.1875" Velocity="89" />
      <note Length="0.015625" Pitch="54" RiffPosition="0.234375" Velocity="46" />
      <note Length="0.0625" Pitch="51" RiffPosition="0.25" Velocity="49" />
      <note Length="0.03125" Pitch="56" RiffPosition="0.3125" Velocity="95" />
      <note Length="0.03125" Pitch="54" RiffPosition="0.34375" Velocity="101" />
      <note Length="0.03125" Pitch="63" RiffPosition="0.375" Velocity="66" />
      <note Length="0.03125" Pitch="63" RiffPosition="0.40625" Velocity="42" />
      <note Length="0.046875" Pitch="66" RiffPosition="0.4375" Velocity="84" />
      <note Length="0.015625" Pitch="69" RiffPosition="0.484375" Velocity="97" />
      <note Length="0.0625" Pitch="73" RiffPosition="0.5" Velocity="86" />
      <note Length="0.03125" Pitch="75" RiffPosition="0.5625" Velocity="67" />
      <note Length="0.03125" Pitch="69" RiffPosition="0.59375" Velocity="46" />
      <note Length="0.03125" Pitch="68" RiffPosition="0.625" Velocity="62" />
      <note Length="0.03125" Pitch="61" RiffPosition="0.65625" Velocity="45" />
      <note Length="0.046875" Pitch="61" RiffPosition="0.6875" Velocity="57" />
      <note Length="0.015625" Pitch="54" RiffPosition="0.734375" Velocity="100" />
      <note Length="0.0625" Pitch="49" RiffPosition="0.75" Velocity="115" />
      <note Length="0.03125" Pitch="49" RiffPosition="0.8125" Velocity="95" />
      <note Length="0.03125" Pitch="56" RiffPosition="0.84375" Velocity="45" />
      <note Length="0.03125" Pitch="61" RiffPosition="0.875" Velocity="80" />
      <note Length="0.03125" Pitch="66" RiffPosition="0.90625" Velocity="109" />
      <note Length="0.046875" Pitch="68" RiffPosition="0.9375" Velocity="84" />
      <note Length="0.015625" Pitch="73" RiffPosition="0.984375" Velocity="50" />
      <note Length="0.0625" Pitch="78" RiffPosition="1" Velocity="60" />
      <note Length="0.03125" Pitch="75" RiffPosition="1.0625" Velocity="79" />
      <note Length="0.03125" Pitch="69" RiffPosition="1.09375" Velocity="46" />
      <note Length="0.03125" Pitch="63" RiffPosition="1.125" Velocity="62" />
      <note Length="0.03125" Pitch="63" RiffPosition="1.15625" Velocity="101" />
      <note Length="0.046875" Pitch="57" RiffPosition="1.1875" Velocity="89" />
      <note Length="0.015625" Pitch="51" RiffPosition="1.234375" Velocity="46" />
      <note Length="0.0625" Pitch="51" RiffPosition="1.25" Velocity="49" />
      <note Length="0.03125" Pitch="54" RiffPosition="1.3125" Velocity="95" />
      <note Length="0.03125" Pitch="54" RiffPosition="1.34375" Velocity="101" />
      <note Length="0.03125" Pitch="61" RiffPosition="1.375" Velocity="66" />
      <note Length="0.03125" Pitch="63" RiffPosition="1.40625" Velocity="42" />
      <note Length="0.046875" Pitch="66" RiffPosition="1.4375" Velocity="84" />
      <note Length="0.015625" Pitch="75" RiffPosition="1.484375" Velocity="97" />
      <note Length="0.0625" Pitch="69" RiffPosition="1.5" Velocity="86" />
      <note Length="0.03125" Pitch="69" RiffPosition="1.5625" Velocity="67" />
      <note Length="0.03125" Pitch="75" RiffPosition="1.59375" Velocity="46" />
      <note Length="0.03125" Pitch="66" RiffPosition="1.625" Velocity="62" />
      <note Length="0.03125" Pitch="61" RiffPosition="1.65625" Velocity="45" />
      <note Length="0.046875" Pitch="61" RiffPosition="1.6875" Velocity="57" />
      <note Length="0.015625" Pitch="54" RiffPosition="1.734375" Velocity="100" />
      <note Length="0.0625" Pitch="56" RiffPosition="1.75" Velocity="115" />
      <note Length="0.03125" Pitch="49" RiffPosition="1.8125" Velocity="95" />
      <note Length="0.03125" Pitch="56" RiffPosition="1.84375" Velocity="45" />
      <note Length="0.03125" Pitch="61" RiffPosition="1.875" Velocity="80" />
      <note Length="0.03125" Pitch="66" RiffPosition="1.90625" Velocity="109" />
      <note Length="0.046875" Pitch="68" RiffPosition="1.9375" Velocity="84" />
      <note Length="0.015625" Pitch="73" RiffPosition="1.984375" Velocity="50" />
      <note Length="0.0625" Pitch="73" RiffPosition="2" Velocity="60" />
      <note Length="0.03125" Pitch="75" RiffPosition="2.0625" Velocity="79" />
      <note Length="0.03125" Pitch="69" RiffPosition="2.09375" Velocity="46" />
      <note Length="0.03125" Pitch="69" RiffPosition="2.125" Velocity="62" />
      <note Length="0.03125" Pitch="63" RiffPosition="2.15625" Velocity="101" />
      <note Length="0.046875" Pitch="56" RiffPosition="2.1875" Velocity="89" />
      <note Length="0.015625" Pitch="51" RiffPosition="2.234375" Velocity="46" />
      <note Length="0.0625" Pitch="49" RiffPosition="2.25" Velocity="49" />
      <note Length="0.03125" Pitch="54" RiffPosition="2.3125" Velocity="95" />
      <note Length="0.03125" Pitch="54" RiffPosition="2.34375" Velocity="101" />
      <note Length="0.03125" Pitch="61" RiffPosition="2.375" Velocity="66" />
      <note Length="0.03125" Pitch="63" RiffPosition="2.40625" Velocity="42" />
      <note Length="0.046875" Pitch="69" RiffPosition="2.4375" Velocity="84" />
      <note Length="0.015625" Pitch="73" RiffPosition="2.484375" Velocity="97" />
      <note Length="0.0625" Pitch="69" RiffPosition="2.5" Velocity="86" />
      <note Length="0.03125" Pitch="69" RiffPosition="2.5625" Velocity="67" />
      <note Length="0.03125" Pitch="75" RiffPosition="2.59375" Velocity="46" />
      <note Length="0.03125" Pitch="66" RiffPosition="2.625" Velocity="62" />
      <note Length="0.03125" Pitch="63" RiffPosition="2.65625" Velocity="45" />
      <note Length="0.046875" Pitch="61" RiffPosition="2.6875" Velocity="57" />
      <note Length="0.015625" Pitch="54" RiffPosition="2.734375" Velocity="100" />
      <note Length="0.0625" Pitch="56" RiffPosition="2.75" Velocity="115" />
      <note Length="0.03125" Pitch="56" RiffPosition="2.8125" Velocity="95" />
      <note Length="0.03125" Pitch="54" RiffPosition="2.84375" Velocity="45" />
      <note Length="0.03125" Pitch="56" RiffPosition="2.875" Velocity="80" />
      <note Length="0.03125" Pitch="66" RiffPosition="2.90625" Velocity="109" />
      <note Length="0.046875" Pitch="66" RiffPosition="2.9375" Velocity="84" />
      <note Length="0.015625" Pitch="69" RiffPosition="2.984375" Velocity="50" />
      <note Length="0.0625" Pitch="73" RiffPosition="3" Velocity="60" />
      <note Length="0.03125" Pitch="75" RiffPosition="3.0625" Velocity="79" />
      <note Length="0.03125" Pitch="69" RiffPosition="3.09375" Velocity="46" />
      <note Length="0.03125" Pitch="68" RiffPosition="3.125" Velocity="62" />
      <note Length="0.03125" Pitch="61" RiffPosition="3.15625" Velocity="101" />
      <note Length="0.046875" Pitch="63" RiffPosition="3.1875" Velocity="89" />
      <note Length="0.015625" Pitch="54" RiffPosition="3.234375" Velocity="46" />
      <note Length="0.0625" Pitch="49" RiffPosition="3.25" Velocity="49" />
      <note Length="0.03125" Pitch="49" RiffPosition="3.3125" Velocity="95" />
      <note Length="0.03125" Pitch="61" RiffPosition="3.34375" Velocity="101" />
      <note Length="0.03125" Pitch="61" RiffPosition="3.375" Velocity="66" />
      <note Length="0.03125" Pitch="61" RiffPosition="3.40625" Velocity="42" />
      <note Length="0.046875" Pitch="68" RiffPosition="3.4375" Velocity="84" />
      <note Length="0.015625" Pitch="73" RiffPosition="3.484375" Velocity="97" />
      <note Length="0.0625" Pitch="78" RiffPosition="3.5" Velocity="86" />
      <note Length="0.03125" Pitch="69" RiffPosition="3.5625" Velocity="67" />
      <note Length="0.03125" Pitch="69" RiffPosition="3.59375" Velocity="46" />
      <note Length="0.03125" Pitch="66" RiffPosition="3.625" Velocity="62" />
      <note Length="0.03125" Pitch="63" RiffPosition="3.65625" Velocity="45" />
      <note Length="0.046875" Pitch="57" RiffPosition="3.6875" Velocity="57" />
      <note Length="0.015625" Pitch="51" RiffPosition="3.734375" Velocity="100" />
      <note Length="0.0625" Pitch="51" RiffPosition="3.75" Velocity="115" />
      <note Length="0.03125" Pitch="54" RiffPosition="3.8125" Velocity="95" />
      <note Length="0.03125" Pitch="54" RiffPosition="3.84375" Velocity="45" />
      <note Length="0.03125" Pitch="61" RiffPosition="3.875" Velocity="80" />
      <note Length="0.03125" Pitch="63" RiffPosition="3.90625" Velocity="109" />
      <note Length="0.046875" Pitch="66" RiffPosition="3.9375" Velocity="84" />
      <note Length="0.015625" Pitch="69" RiffPosition="3.984375" Velocity="50" />
      <note Length="0.0625" Pitch="73" RiffPosition="4" Velocity="60" />
      <note Length="0.03125" Pitch="75" RiffPosition="4.0625" Velocity="79" />
      <note Length="0.03125" Pitch="68" RiffPosition="4.09375" Velocity="46" />
      <note Length="0.03125" Pitch="68" RiffPosition="4.125" Velocity="62" />
      <note Length="0.03125" Pitch="61" RiffPosition="4.15625" Velocity="101" />
      <note Length="0.046875" Pitch="61" RiffPosition="4.1875" Velocity="89" />
      <note Length="0.015625" Pitch="54" RiffPosition="4.234375" Velocity="46" />
      <note Length="0.0625" Pitch="49" RiffPosition="4.25" Velocity="49" />
      <note Length="0.03125" Pitch="49" RiffPosition="4.3125" Velocity="95" />
      <note Length="0.03125" Pitch="61" RiffPosition="4.34375" Velocity="101" />
      <note Length="0.03125" Pitch="61" RiffPosition="4.375" Velocity="66" />
      <note Length="0.03125" Pitch="66" RiffPosition="4.40625" Velocity="42" />
      <note Length="0.046875" Pitch="68" RiffPosition="4.4375" Velocity="84" />
      <note Length="0.015625" Pitch="73" RiffPosition="4.484375" Velocity="97" />
      <note Length="0.0625" Pitch="78" RiffPosition="4.5" Velocity="86" />
      <note Length="0.03125" Pitch="75" RiffPosition="4.5625" Velocity="67" />
      <note Length="0.03125" Pitch="69" RiffPosition="4.59375" Velocity="46" />
      <note Length="0.03125" Pitch="63" RiffPosition="4.625" Velocity="62" />
      <note Length="0.03125" Pitch="63" RiffPosition="4.65625" Velocity="45" />
      <note Length="0.046875" Pitch="56" RiffPosition="4.6875" Velocity="57" />
      <note Length="0.015625" Pitch="51" RiffPosition="4.734375" Velocity="100" />
      <note Length="0.0625" Pitch="51" RiffPosition="4.75" Velocity="115" />
      <note Length="0.03125" Pitch="54" RiffPosition="4.8125" Velocity="95" />
      <note Length="0.03125" Pitch="54" RiffPosition="4.84375" Velocity="45" />
      <note Length="0.03125" Pitch="61" RiffPosition="4.875" Velocity="80" />
      <note Length="0.03125" Pitch="63" RiffPosition="4.90625" Velocity="109" />
      <note Length="0.046875" Pitch="73" RiffPosition="4.9375" Velocity="84" />
      <note Length="0.015625" Pitch="75" RiffPosition="4.984375" Velocity="50" />
      <note Length="0.0625" Pitch="69" RiffPosition="5" Velocity="60" />
      <note Length="0.03125" Pitch="69" RiffPosition="5.0625" Velocity="79" />
      <note Length="0.03125" Pitch="75" RiffPosition="5.09375" Velocity="46" />
      <note Length="0.03125" Pitch="66" RiffPosition="5.125" Velocity="62" />
      <note Length="0.03125" Pitch="61" RiffPosition="5.15625" Velocity="101" />
      <note Length="0.046875" Pitch="61" RiffPosition="5.1875" Velocity="89" />
      <note Length="0.015625" Pitch="54" RiffPosition="5.234375" Velocity="46" />
      <note Length="0.0625" Pitch="56" RiffPosition="5.25" Velocity="49" />
      <note Length="0.03125" Pitch="49" RiffPosition="5.3125" Velocity="95" />
      <note Length="0.03125" Pitch="56" RiffPosition="5.34375" Velocity="101" />
      <note Length="0.03125" Pitch="61" RiffPosition="5.375" Velocity="66" />
      <note Length="0.03125" Pitch="66" RiffPosition="5.40625" Velocity="42" />
      <note Length="0.046875" Pitch="66" RiffPosition="5.4375" Velocity="84" />
      <note Length="0.015625" Pitch="69" RiffPosition="5.484375" Velocity="97" />
      <note Length="0.0625" Pitch="73" RiffPosition="5.5" Velocity="86" />
      <note Length="0.03125" Pitch="75" RiffPosition="5.5625" Velocity="67" />
      <note Length="0.03125" Pitch="69" RiffPosition="5.59375" Velocity="46" />
      <note Length="0.03125" Pitch="69" RiffPosition="5.625" Velocity="62" />
      <note Length="0.03125" Pitch="63" RiffPosition="5.65625" Velocity="45" />
      <note Length="0.046875" Pitch="56" RiffPosition="5.6875" Velocity="57" />
      <note Length="0.015625" Pitch="61" RiffPosition="5.734375" Velocity="100" />
      <note Length="0.0625" Pitch="49" RiffPosition="5.75" Velocity="115" />
      <note Length="0.03125" Pitch="54" RiffPosition="5.8125" Velocity="95" />
      <note Length="0.03125" Pitch="54" RiffPosition="5.84375" Velocity="45" />
      <note Length="0.03125" Pitch="61" RiffPosition="5.875" Velocity="80" />
      <note Length="0.03125" Pitch="61" RiffPosition="5.90625" Velocity="109" />
      <note Length="0.046875" Pitch="69" RiffPosition="5.9375" Velocity="84" />
      <note Length="0.015625" Pitch="73" RiffPosition="5.984375" Velocity="50" />
      <note Length="0.0625" Pitch="69" RiffPosition="6" Velocity="60" />
      <note Length="0.03125" Pitch="69" RiffPosition="6.0625" Velocity="79" />
      <note Length="0.03125" Pitch="75" RiffPosition="6.09375" Velocity="46" />
      <note Length="0.03125" Pitch="66" RiffPosition="6.125" Velocity="62" />
      <note Length="0.03125" Pitch="63" RiffPosition="6.15625" Velocity="101" />
      <note Length="0.046875" Pitch="57" RiffPosition="6.1875" Velocity="89" />
      <note Length="0.015625" Pitch="54" RiffPosition="6.234375" Velocity="46" />
      <note Length="0.0625" Pitch="54" RiffPosition="6.25" Velocity="49" />
      <note Length="0.03125" Pitch="56" RiffPosition="6.3125" Velocity="95" />
      <note Length="0.03125" Pitch="54" RiffPosition="6.34375" Velocity="101" />
      <note Length="0.03125" Pitch="54" RiffPosition="6.375" Velocity="66" />
      <note Length="0.03125" Pitch="66" RiffPosition="6.40625" Velocity="42" />
      <note Length="0.046875" Pitch="66" RiffPosition="6.4375" Velocity="84" />
      <note Length="0.015625" Pitch="69" RiffPosition="6.484375" Velocity="97" />
      <note Length="0.0625" Pitch="73" RiffPosition="6.5" Velocity="86" />
      <note Length="0.03125" Pitch="75" RiffPosition="6.5625" Velocity="67" />
      <note Length="0.03125" Pitch="69" RiffPosition="6.59375" Velocity="46" />
      <note Length="0.03125" Pitch="68" RiffPosition="6.625" Velocity="62" />
      <note Length="0.03125" Pitch="61" RiffPosition="6.65625" Velocity="45" />
      <note Length="0.046875" Pitch="63" RiffPosition="6.6875" Velocity="57" />
      <note Length="0.015625" Pitch="54" RiffPosition="6.734375" Velocity="100" />
      <note Length="0.0625" Pitch="49" RiffPosition="6.75" Velocity="115" />
      <note Length="0.03125" Pitch="49" RiffPosition="6.8125" Velocity="95" />
      <note Length="0.03125" Pitch="61" RiffPosition="6.84375" Velocity="45" />
      <note Length="0.03125" Pitch="61" RiffPosition="6.875" Velocity="80" />
      <note Length="0.03125" Pitch="61" RiffPosition="6.90625" Velocity="109" />
      <note Length="0.046875" Pitch="68" RiffPosition="6.9375" Velocity="84" />
      <note Length="0.015625" Pitch="73" RiffPosition="6.984375" Velocity="50" />
      <note Length="0.0625" Pitch="78" RiffPosition="7" Velocity="60" />
      <note Length="0.03125" Pitch="69" RiffPosition="7.0625" Velocity="79" />
      <note Length="0.03125" Pitch="69" RiffPosition="7.09375" Velocity="46" />
      <note Length="0.03125" Pitch="66" RiffPosition="7.125" Velocity="62" />
      <note Length="0.03125" Pitch="63" RiffPosition="7.15625" Velocity="101" />
      <note Length="0.046875" Pitch="57" RiffPosition="7.1875" Velocity="89" />
      <note Length="0.015625" Pitch="51" RiffPosition="7.234375" Velocity="46" />
      <note Length="0.0625" Pitch="51" RiffPosition="7.25" Velocity="49" />
      <note Length="0.03125" Pitch="54" RiffPosition="7.3125" Velocity="95" />
      <note Length="0.03125" Pitch="54" RiffPosition="7.34375" Velocity="101" />
      <note Length="0.03125" Pitch="61" RiffPosition="7.375" Velocity="66" />
      <note Length="0.03125" Pitch="63" RiffPosition="7.40625" Velocity="42" />
      <note Length="0.046875" Pitch="66" RiffPosition="7.4375" Velocity="84" />
      <note Length="0.015625" Pitch="78" RiffPosition="7.484375" Velocity="97" />
      <note Length="0.0625" Pitch="69" RiffPosition="7.5" Velocity="86" />
      <note Length="0.03125" Pitch="75" RiffPosition="7.5625" Velocity="67" />
      <note Length="0.03125" Pitch="68" RiffPosition="7.59375" Velocity="46" />
      <note Length="0.03125" Pitch="66" RiffPosition="7.625" Velocity="62" />
      <note Length="0.03125" Pitch="61" RiffPosition="7.65625" Velocity="45" />
      <note Length="0.046875" Pitch="61" RiffPosition="7.6875" Velocity="57" />
      <note Length="0.015625" Pitch="54" RiffPosition="7.734375" Velocity="100" />
      <note Length="0.0625" Pitch="56" RiffPosition="7.75" Velocity="115" />
      <note Length="0.03125" Pitch="49" RiffPosition="7.8125" Velocity="95" />
      <note Length="0.03125" Pitch="61" RiffPosition="7.84375" Velocity="45" />
      <note Length="0.03125" Pitch="61" RiffPosition="7.875" Velocity="80" />
      <note Length="0.03125" Pitch="66" RiffPosition="7.90625" Velocity="109" />
      <note Length="0.046875" Pitch="68" RiffPosition="7.9375" Velocity="84" />
      <note Length="0.015625" Pitch="73" RiffPosition="7.984375" Velocity="50" />
    </riff>
    <riff IsDrum="True" MidiInstrument="0" Tempo="123" Length="8">
      <note Length="0.03125" Pitch="35" RiffPosition="0" Velocity="0" />
      <note Length="0.03125" Pitch="39" RiffPosition="0.03125" Velocity="0" />
      <note Length="0.015625" Pitch="44" RiffPosition="0.0625" Velocity="65" />
      <note Length="0.046875" Pitch="37" RiffPosition="0.078125" Velocity="94" />
      <note Length="0.015625" Pitch="51" RiffPosition="0.125" Velocity="93" />
      <note Length="0.046875" Pitch="45" RiffPosition="0.140625" Velocity="69" />
      <note Length="0.0625" Pitch="43" RiffPosition="0.1875" Velocity="66" />
      <note Length="0.0625" Pitch="48" RiffPosition="0.25" Velocity="92" />
      <note Length="0.0625" Pitch="38" RiffPosition="0.3125" Velocity="0" />
      <note Length="0.0625" Pitch="44" RiffPosition="0.375" Velocity="91" />
      <note Length="0.046875" Pitch="34" RiffPosition="0.4375" Velocity="68" />
      <note Length="0.015625" Pitch="48" RiffPosition="0.484375" Velocity="111" />
      <note Length="0.03125" Pitch="43" RiffPosition="0.5" Velocity="91" />
      <note Length="0.03125" Pitch="45" RiffPosition="0.53125" Velocity="56" />
      <note Length="0.015625" Pitch="50" RiffPosition="0.5625" Velocity="70" />
      <note Length="0.046875" Pitch="44" RiffPosition="0.578125" Velocity="90" />
      <note Length="0.015625" Pitch="42" RiffPosition="0.625" Velocity="88" />
      <note Length="0.046875" Pitch="52" RiffPosition="0.640625" Velocity="42" />
      <note Length="0.0625" Pitch="49" RiffPosition="0.6875" Velocity="39" />
      <note Length="0.0625" Pitch="40" RiffPosition="0.75" Velocity="0" />
      <note Length="0.0625" Pitch="45" RiffPosition="0.8125" Velocity="71" />
      <note Length="0.0625" Pitch="35" RiffPosition="0.875" Velocity="0" />
      <note Length="0.046875" Pitch="41" RiffPosition="0.9375" Velocity="73" />
      <note Length="0.015625" Pitch="39" RiffPosition="0.984375" Velocity="0" />
      <note Length="0.03125" Pitch="49" RiffPosition="1" Velocity="53" />
      <note Length="0.03125" Pitch="37" RiffPosition="1.03125" Velocity="47" />
      <note Length="0.015625" Pitch="42" RiffPosition="1.0625" Velocity="69" />
      <note Length="0.046875" Pitch="51" RiffPosition="1.078125" Velocity="88" />
      <note Length="0.015625" Pitch="49" RiffPosition="1.125" Velocity="53" />
      <note Length="0.046875" Pitch="43" RiffPosition="1.140625" Velocity="76" />
      <note Length="0.0625" Pitch="41" RiffPosition="1.1875" Velocity="62" />
      <note Length="0.0625" Pitch="46" RiffPosition="1.25" Velocity="98" />
      <note Length="0.0625" Pitch="36" RiffPosition="1.3125" Velocity="0" />
      <note Length="0.0625" Pitch="42" RiffPosition="1.375" Velocity="95" />
      <note Length="0.046875" Pitch="48" RiffPosition="1.4375" Velocity="64" />
      <note Length="0.015625" Pitch="45" RiffPosition="1.484375" Velocity="117" />
      <note Length="0.03125" Pitch="40" RiffPosition="1.5" Velocity="0" />
      <note Length="0.03125" Pitch="44" RiffPosition="1.53125" Velocity="52" />
      <note Length="0.015625" Pitch="48" RiffPosition="1.5625" Velocity="67" />
      <note Length="0.046875" Pitch="42" RiffPosition="1.578125" Velocity="83" />
      <note Length="0.015625" Pitch="40" RiffPosition="1.625" Velocity="0" />
      <note Length="0.046875" Pitch="50" RiffPosition="1.640625" Velocity="71" />
      <note Length="0.0625" Pitch="47" RiffPosition="1.6875" Velocity="67" />
      <note Length="0.0625" Pitch="37" RiffPosition="1.75" Velocity="90" />
      <note Length="0.0625" Pitch="44" RiffPosition="1.8125" Velocity="65" />
      <note Length="0.0625" Pitch="49" RiffPosition="1.875" Velocity="51" />
      <note Length="0.046875" Pitch="39" RiffPosition="1.9375" Velocity="0" />
      <note Length="0.015625" Pitch="37" RiffPosition="1.984375" Velocity="108" />
      <note Length="0.03125" Pitch="47" RiffPosition="2" Velocity="0" />
      <note Length="0.03125" Pitch="51" RiffPosition="2.03125" Velocity="0" />
      <note Length="0.015625" Pitch="39" RiffPosition="2.0625" Velocity="0" />
      <note Length="0.046875" Pitch="49" RiffPosition="2.078125" Velocity="0" />
      <note Length="0.015625" Pitch="47" RiffPosition="2.125" Velocity="0" />
      <note Length="0.046875" Pitch="41" RiffPosition="2.140625" Velocity="0" />
      <note Length="0.0625" Pitch="39" RiffPosition="2.1875" Velocity="0" />
      <note Length="0.0625" Pitch="44" RiffPosition="2.25" Velocity="0" />
      <note Length="0.0625" Pitch="50" RiffPosition="2.3125" Velocity="0" />
      <note Length="0.0625" Pitch="40" RiffPosition="2.375" Velocity="0" />
      <note Length="0.046875" Pitch="45" RiffPosition="2.4375" Velocity="0" />
      <note Length="0.015625" Pitch="44" RiffPosition="2.484375" Velocity="0" />
      <note Length="0.03125" Pitch="38" RiffPosition="2.5" Velocity="0" />
      <note Length="0.03125" Pitch="42" RiffPosition="2.53125" Velocity="0" />
      <note Length="0.015625" Pitch="46" RiffPosition="2.5625" Velocity="0" />
      <note Length="0.046875" Pitch="40" RiffPosition="2.578125" Velocity="0" />
      <note Length="0.015625" Pitch="38" RiffPosition="2.625" Velocity="0" />
      <note Length="0.046875" Pitch="47" RiffPosition="2.640625" Velocity="0" />
      <note Length="0.0625" Pitch="45" RiffPosition="2.6875" Velocity="0" />
      <note Length="0.0625" Pitch="51" RiffPosition="2.75" Velocity="0" />
      <note Length="0.0625" Pitch="41" RiffPosition="2.8125" Velocity="0" />
      <note Length="0.0625" Pitch="47" RiffPosition="2.875" Velocity="0" />
      <note Length="0.046875" Pitch="37" RiffPosition="2.9375" Velocity="0" />
      <note Length="0.015625" Pitch="51" RiffPosition="2.984375" Velocity="0" />
      <note Length="0.03125" Pitch="44" RiffPosition="3" Velocity="0" />
      <note Length="0.03125" Pitch="49" RiffPosition="3.03125" Velocity="0" />
      <note Length="0.015625" Pitch="37" RiffPosition="3.0625" Velocity="0" />
      <note Length="0.046875" Pitch="47" RiffPosition="3.078125" Velocity="0" />
      <note Length="0.015625" Pitch="44" RiffPosition="3.125" Velocity="0" />
      <note Length="0.046875" Pitch="39" RiffPosition="3.140625" Velocity="0" />
      <note Length="0.0625" Pitch="53" RiffPosition="3.1875" Velocity="0" />
      <note Length="0.0625" Pitch="43" RiffPosition="3.25" Velocity="0" />
      <note Length="0.0625" Pitch="48" RiffPosition="3.3125" Velocity="0" />
      <note Length="0.0625" Pitch="38" RiffPosition="3.375" Velocity="0" />
      <note Length="0.046875" Pitch="44" RiffPosition="3.4375" Velocity="0" />
      <note Length="0.015625" Pitch="42" RiffPosition="3.484375" Velocity="0" />
      <note Length="0.03125" Pitch="35" RiffPosition="3.5" Velocity="0" />
      <note Length="0.03125" Pitch="40" RiffPosition="3.53125" Velocity="0" />
      <note Length="0.015625" Pitch="44" RiffPosition="3.5625" Velocity="0" />
      <note Length="0.046875" Pitch="38" RiffPosition="3.578125" Velocity="0" />
      <note Length="0.015625" Pitch="52" RiffPosition="3.625" Velocity="0" />
      <note Length="0.046875" Pitch="45" RiffPosition="3.640625" Velocity="0" />
      <note Length="0.0625" Pitch="44" RiffPosition="3.6875" Velocity="0" />
      <note Length="0.0625" Pitch="49" RiffPosition="3.75" Velocity="0" />
      <note Length="0.0625" Pitch="39" RiffPosition="3.8125" Velocity="0" />
      <note Length="0.0625" Pitch="44" RiffPosition="3.875" Velocity="0" />
      <note Length="0.046875" Pitch="35" RiffPosition="3.9375" Velocity="0" />
      <note Length="0.015625" Pitch="49" RiffPosition="3.984375" Velocity="0" />
      <note Length="0.03125" Pitch="43" RiffPosition="4" Velocity="0" />
      <note Length="0.03125" Pitch="46" RiffPosition="4.03125" Velocity="0" />
      <note Length="0.015625" Pitch="51" RiffPosition="4.0625" Velocity="0" />
      <note Length="0.046875" Pitch="44" RiffPosition="4.078125" Velocity="0" />
      <note Length="0.015625" Pitch="43" RiffPosition="4.125" Velocity="0" />
      <note Length="0.046875" Pitch="53" RiffPosition="4.140625" Velocity="0" />
      <note Length="0.0625" Pitch="50" RiffPosition="4.1875" Velocity="0" />
      <note Length="0.0625" Pitch="40" RiffPosition="4.25" Velocity="0" />
      <note Length="0.0625" Pitch="45" RiffPosition="4.3125" Velocity="0" />
      <note Length="0.0625" Pitch="35" RiffPosition="4.375" Velocity="0" />
      <note Length="0.046875" Pitch="42" RiffPosition="4.4375" Velocity="0" />
      <note Length="0.015625" Pitch="40" RiffPosition="4.484375" Velocity="0" />
      <note Length="0.03125" Pitch="49" RiffPosition="4.5" Velocity="0" />
      <note Length="0.03125" Pitch="38" RiffPosition="4.53125" Velocity="0" />
      <note Length="0.015625" Pitch="42" RiffPosition="4.5625" Velocity="0" />
      <note Length="0.046875" Pitch="52" RiffPosition="4.578125" Velocity="0" />
      <note Length="0.015625" Pitch="50" RiffPosition="4.625" Velocity="0" />
      <note Length="0.046875" Pitch="44" RiffPosition="4.640625" Velocity="0" />
      <note Length="0.0625" Pitch="42" RiffPosition="4.6875" Velocity="0" />
      <note Length="0.0625" Pitch="47" RiffPosition="4.75" Velocity="0" />
      <note Length="0.0625" Pitch="36" RiffPosition="4.8125" Velocity="0" />
      <note Length="0.0625" Pitch="42" RiffPosition="4.875" Velocity="0" />
      <note Length="0.046875" Pitch="49" RiffPosition="4.9375" Velocity="0" />
      <note Length="0.015625" Pitch="46" RiffPosition="4.984375" Velocity="0" />
      <note Length="0.03125" Pitch="41" RiffPosition="5" Velocity="0" />
      <note Length="0.03125" Pitch="44" RiffPosition="5.03125" Velocity="0" />
      <note Length="0.015625" Pitch="48" RiffPosition="5.0625" Velocity="0" />
      <note Length="0.046875" Pitch="43" RiffPosition="5.078125" Velocity="0" />
      <note Length="0.015625" Pitch="41" RiffPosition="5.125" Velocity="0" />
      <note Length="0.046875" Pitch="50" RiffPosition="5.140625" Velocity="0" />
      <note Length="0.0625" Pitch="48" RiffPosition="5.1875" Velocity="0" />
      <note Length="0.0625" Pitch="38" RiffPosition="5.25" Velocity="0" />
      <note Length="0.0625" Pitch="44" RiffPosition="5.3125" Velocity="0" />
      <note Length="0.0625" Pitch="49" RiffPosition="5.375" Velocity="0" />
      <note Length="0.046875" Pitch="40" RiffPosition="5.4375" Velocity="0" />
      <note Length="0.015625" Pitch="38" RiffPosition="5.484375" Velocity="0" />
      <note Length="0.03125" Pitch="47" RiffPosition="5.5" Velocity="0" />
      <note Length="0.03125" Pitch="52" RiffPosition="5.53125" Velocity="0" />
      <note Length="0.015625" Pitch="39" RiffPosition="5.5625" Velocity="0" />
      <note Length="0.046875" Pitch="50" RiffPosition="5.578125" Velocity="0" />
      <note Length="0.015625" Pitch="48" RiffPosition="5.625" Velocity="0" />
      <note Length="0.046875" Pitch="42" RiffPosition="5.640625" Velocity="0" />
      <note Length="0.0625" Pitch="39" RiffPosition="5.6875" Velocity="0" />
      <note Length="0.0625" Pitch="44" RiffPosition="5.75" Velocity="0" />
      <note Length="0.0625" Pitch="50" RiffPosition="5.8125" Velocity="0" />
      <note Length="0.0625" Pitch="40" RiffPosition="5.875" Velocity="0" />
      <note Length="0.046875" Pitch="46" RiffPosition="5.9375" Velocity="0" />
      <note Length="0.015625" Pitch="44" RiffPosition="5.984375" Velocity="0" />
      <note Length="0.03125" Pitch="39" RiffPosition="6" Velocity="0" />
      <note Length="0.03125" Pitch="43" RiffPosition="6.03125" Velocity="58" />
      <note Length="0.015625" Pitch="46" RiffPosition="6.0625" Velocity="71" />
      <note Length="0.046875" Pitch="41" RiffPosition="6.078125" Velocity="88" />
      <note Length="0.015625" Pitch="39" RiffPosition="6.125" Velocity="0" />
      <note Length="0.046875" Pitch="48" RiffPosition="6.140625" Velocity="75" />
      <note Length="0.0625" Pitch="45" RiffPosition="6.1875" Velocity="73" />
      <note Length="0.0625" Pitch="51" RiffPosition="6.25" Velocity="96" />
      <note Length="0.0625" Pitch="41" RiffPosition="6.3125" Velocity="69" />
      <note Length="0.0625" Pitch="47" RiffPosition="6.375" Velocity="97" />
      <note Length="0.046875" Pitch="38" RiffPosition="6.4375" Velocity="0" />
      <note Length="0.015625" Pitch="36" RiffPosition="6.484375" Velocity="0" />
      <note Length="0.03125" Pitch="45" RiffPosition="6.5" Velocity="95" />
      <note Length="0.03125" Pitch="50" RiffPosition="6.53125" Velocity="49" />
      <note Length="0.015625" Pitch="37" RiffPosition="6.5625" Velocity="67" />
      <note Length="0.046875" Pitch="47" RiffPosition="6.578125" Velocity="86" />
      <note Length="0.015625" Pitch="45" RiffPosition="6.625" Velocity="95" />
      <note Length="0.046875" Pitch="40" RiffPosition="6.640625" Velocity="0" />
      <note Length="0.0625" Pitch="53" RiffPosition="6.6875" Velocity="64" />
      <note Length="0.0625" Pitch="43" RiffPosition="6.75" Velocity="98" />
      <note Length="0.0625" Pitch="48" RiffPosition="6.8125" Velocity="67" />
      <note Length="0.0625" Pitch="38" RiffPosition="6.875" Velocity="0" />
      <note Length="0.046875" Pitch="44" RiffPosition="6.9375" Velocity="66" />
      <note Length="0.015625" Pitch="43" RiffPosition="6.984375" Velocity="119" />
      <note Length="0.03125" Pitch="36" RiffPosition="7" Velocity="0" />
      <note Length="0.03125" Pitch="41" RiffPosition="7.03125" Velocity="51" />
      <note Length="0.015625" Pitch="44" RiffPosition="7.0625" Velocity="65" />
      <note Length="0.046875" Pitch="38" RiffPosition="7.078125" Velocity="0" />
      <note Length="0.015625" Pitch="53" RiffPosition="7.125" Velocity="93" />
      <note Length="0.046875" Pitch="46" RiffPosition="7.140625" Velocity="69" />
      <note Length="0.0625" Pitch="44" RiffPosition="7.1875" Velocity="66" />
      <note Length="0.0625" Pitch="49" RiffPosition="7.25" Velocity="51" />
      <note Length="0.0625" Pitch="39" RiffPosition="7.3125" Velocity="0" />
      <note Length="0.0625" Pitch="44" RiffPosition="7.375" Velocity="91" />
      <note Length="0.046875" Pitch="35" RiffPosition="7.4375" Velocity="0" />
      <note Length="0.015625" Pitch="50" RiffPosition="7.484375" Velocity="110" />
      <note Length="0.03125" Pitch="44" RiffPosition="7.5" Velocity="91" />
      <note Length="0.03125" Pitch="47" RiffPosition="7.53125" Velocity="55" />
      <note Length="0.015625" Pitch="51" RiffPosition="7.5625" Velocity="71" />
      <note Length="0.046875" Pitch="45" RiffPosition="7.578125" Velocity="90" />
      <note Length="0.015625" Pitch="43" RiffPosition="7.625" Velocity="89" />
      <note Length="0.046875" Pitch="54" RiffPosition="7.640625" Velocity="78" />
      <note Length="0.0625" Pitch="50" RiffPosition="7.6875" Velocity="70" />
      <note Length="0.0625" Pitch="41" RiffPosition="7.75" Velocity="93" />
      <note Length="0.0625" Pitch="46" RiffPosition="7.8125" Velocity="71" />
      <note Length="0.0625" Pitch="36" RiffPosition="7.875" Velocity="0" />
      <note Length="0.046875" Pitch="43" RiffPosition="7.9375" Velocity="73" />
      <note Length="0.015625" Pitch="40" RiffPosition="7.984375" Velocity="0" />
    </riff>
    <riff IsDrum="True" MidiInstrument="0" Tempo="138" Length="8">
      <note Length="0.0625" Pitch="48" RiffPosition="0" Velocity="62" />
      <note Length="0.0625" Pitch="38" RiffPosition="0.0625" Velocity="0" />
      <note Length="0.03125" Pitch="40" RiffPosition="0.125" Velocity="0" />
      <note Length="0.03125" Pitch="43" RiffPosition="0.15625" Velocity="45" />
      <note Length="0.046875" Pitch="46" RiffPosition="0.1875" Velocity="115" />
      <note Length="0.015625" Pitch="47" RiffPosition="0.234375" Velocity="126" />
      <note Length="0.0625" Pitch="44" RiffPosition="0.25" Velocity="63" />
      <note Length="0.0625" Pitch="51" RiffPosition="0.3125" Velocity="91" />
      <note Length="0.03125" Pitch="41" RiffPosition="0.375" Velocity="41" />
      <note Length="0.03125" Pitch="42" RiffPosition="0.40625" Velocity="47" />
      <note Length="0.046875" Pitch="43" RiffPosition="0.4375" Velocity="89" />
      <note Length="0.015625" Pitch="40" RiffPosition="0.484375" Velocity="0" />
      <note Length="0.0625" Pitch="36" RiffPosition="0.5" Velocity="0" />
      <note Length="0.0625" Pitch="44" RiffPosition="0.5625" Velocity="115" />
      <note Length="0.03125" Pitch="53" RiffPosition="0.625" Velocity="42" />
      <note Length="0.03125" Pitch="43" RiffPosition="0.65625" Velocity="48" />
      <note Length="0.046875" Pitch="44" RiffPosition="0.6875" Velocity="118" />
      <note Length="0.015625" Pitch="39" RiffPosition="0.734375" Velocity="0" />
      <note Length="0.0625" Pitch="45" RiffPosition="0.75" Velocity="63" />
      <note Length="0.0625" Pitch="36" RiffPosition="0.8125" Velocity="0" />
      <note Length="0.03125" Pitch="44" RiffPosition="0.875" Velocity="42" />
      <note Length="0.03125" Pitch="49" RiffPosition="0.90625" Velocity="26" />
      <note Length="0.046875" Pitch="42" RiffPosition="0.9375" Velocity="92" />
      <note Length="0.015625" Pitch="52" RiffPosition="0.984375" Velocity="46" />
      <note Length="0.0625" Pitch="46" RiffPosition="1" Velocity="62" />
      <note Length="0.0625" Pitch="48" RiffPosition="1.0625" Velocity="115" />
      <note Length="0.03125" Pitch="39" RiffPosition="1.125" Velocity="0" />
      <note Length="0.03125" Pitch="41" RiffPosition="1.15625" Velocity="45" />
      <note Length="0.046875" Pitch="45" RiffPosition="1.1875" Velocity="115" />
      <note Length="0.015625" Pitch="45" RiffPosition="1.234375" Velocity="126" />
      <note Length="0.0625" Pitch="42" RiffPosition="1.25" Velocity="63" />
      <note Length="0.0625" Pitch="49" RiffPosition="1.3125" Velocity="50" />
      <note Length="0.03125" Pitch="39" RiffPosition="1.375" Velocity="0" />
      <note Length="0.03125" Pitch="40" RiffPosition="1.40625" Velocity="0" />
      <note Length="0.046875" Pitch="42" RiffPosition="1.4375" Velocity="89" />
      <note Length="0.015625" Pitch="38" RiffPosition="1.484375" Velocity="0" />
      <note Length="0.0625" Pitch="46" RiffPosition="1.5" Velocity="65" />
      <note Length="0.0625" Pitch="43" RiffPosition="1.5625" Velocity="115" />
      <note Length="0.03125" Pitch="51" RiffPosition="1.625" Velocity="42" />
      <note Length="0.03125" Pitch="53" RiffPosition="1.65625" Velocity="48" />
      <note Length="0.046875" Pitch="42" RiffPosition="1.6875" Velocity="118" />
      <note Length="0.015625" Pitch="38" RiffPosition="1.734375" Velocity="0" />
      <note Length="0.0625" Pitch="44" RiffPosition="1.75" Velocity="63" />
      <note Length="0.0625" Pitch="35" RiffPosition="1.8125" Velocity="0" />
      <note Length="0.03125" Pitch="44" RiffPosition="1.875" Velocity="42" />
      <note Length="0.03125" Pitch="47" RiffPosition="1.90625" Velocity="47" />
      <note Length="0.046875" Pitch="51" RiffPosition="1.9375" Velocity="92" />
      <note Length="0.015625" Pitch="50" RiffPosition="1.984375" Velocity="83" />
      <note Length="0.0625" Pitch="45" RiffPosition="2" Velocity="0" />
      <note Length="0.0625" Pitch="46" RiffPosition="2.0625" Velocity="0" />
      <note Length="0.03125" Pitch="37" RiffPosition="2.125" Velocity="0" />
      <note Length="0.03125" Pitch="40" RiffPosition="2.15625" Velocity="0" />
      <note Length="0.046875" Pitch="44" RiffPosition="2.1875" Velocity="0" />
      <note Length="0.015625" Pitch="44" RiffPosition="2.234375" Velocity="0" />
      <note Length="0.0625" Pitch="40" RiffPosition="2.25" Velocity="0" />
      <note Length="0.0625" Pitch="48" RiffPosition="2.3125" Velocity="0" />
      <note Length="0.03125" Pitch="49" RiffPosition="2.375" Velocity="0" />
      <note Length="0.03125" Pitch="38" RiffPosition="2.40625" Velocity="0" />
      <note Length="0.046875" Pitch="40" RiffPosition="2.4375" Velocity="0" />
      <note Length="0.015625" Pitch="36" RiffPosition="2.484375" Velocity="0" />
      <note Length="0.0625" Pitch="44" RiffPosition="2.5" Velocity="0" />
      <note Length="0.0625" Pitch="41" RiffPosition="2.5625" Velocity="0" />
      <note Length="0.03125" Pitch="49" RiffPosition="2.625" Velocity="0" />
      <note Length="0.03125" Pitch="51" RiffPosition="2.65625" Velocity="0" />
      <note Length="0.046875" Pitch="41" RiffPosition="2.6875" Velocity="0" />
      <note Length="0.015625" Pitch="47" RiffPosition="2.734375" Velocity="0" />
      <note Length="0.0625" Pitch="43" RiffPosition="2.75" Velocity="0" />
      <note Length="0.0625" Pitch="45" RiffPosition="2.8125" Velocity="0" />
      <note Length="0.03125" Pitch="42" RiffPosition="2.875" Velocity="0" />
      <note Length="0.03125" Pitch="45" RiffPosition="2.90625" Velocity="0" />
      <note Length="0.046875" Pitch="50" RiffPosition="2.9375" Velocity="0" />
      <note Length="0.015625" Pitch="48" RiffPosition="2.984375" Velocity="0" />
      <note Length="0.0625" Pitch="44" RiffPosition="3" Velocity="0" />
      <note Length="0.0625" Pitch="44" RiffPosition="3.0625" Velocity="0" />
      <note Length="0.03125" Pitch="35" RiffPosition="3.125" Velocity="0" />
      <note Length="0.03125" Pitch="38" RiffPosition="3.15625" Velocity="0" />
      <note Length="0.046875" Pitch="43" RiffPosition="3.1875" Velocity="0" />
      <note Length="0.015625" Pitch="43" RiffPosition="3.234375" Velocity="0" />
      <note Length="0.0625" Pitch="51" RiffPosition="3.25" Velocity="0" />
      <note Length="0.0625" Pitch="46" RiffPosition="3.3125" Velocity="0" />
      <note Length="0.03125" Pitch="47" RiffPosition="3.375" Velocity="0" />
      <note Length="0.03125" Pitch="49" RiffPosition="3.40625" Velocity="0" />
      <note Length="0.046875" Pitch="38" RiffPosition="3.4375" Velocity="0" />
      <note Length="0.015625" Pitch="35" RiffPosition="3.484375" Velocity="0" />
      <note Length="0.0625" Pitch="44" RiffPosition="3.5" Velocity="0" />
      <note Length="0.0625" Pitch="40" RiffPosition="3.5625" Velocity="0" />
      <note Length="0.03125" Pitch="47" RiffPosition="3.625" Velocity="0" />
      <note Length="0.03125" Pitch="50" RiffPosition="3.65625" Velocity="0" />
      <note Length="0.046875" Pitch="50" RiffPosition="3.6875" Velocity="0" />
      <note Length="0.015625" Pitch="46" RiffPosition="3.734375" Velocity="0" />
      <note Length="0.0625" Pitch="41" RiffPosition="3.75" Velocity="0" />
      <note Length="0.0625" Pitch="44" RiffPosition="3.8125" Velocity="0" />
      <note Length="0.03125" Pitch="40" RiffPosition="3.875" Velocity="0" />
      <note Length="0.03125" Pitch="44" RiffPosition="3.90625" Velocity="0" />
      <note Length="0.046875" Pitch="48" RiffPosition="3.9375" Velocity="0" />
      <note Length="0.015625" Pitch="47" RiffPosition="3.984375" Velocity="0" />
      <note Length="0.0625" Pitch="42" RiffPosition="4" Velocity="0" />
      <note Length="0.0625" Pitch="44" RiffPosition="4.0625" Velocity="0" />
      <note Length="0.03125" Pitch="45" RiffPosition="4.125" Velocity="0" />
      <note Length="0.03125" Pitch="36" RiffPosition="4.15625" Velocity="0" />
      <note Length="0.046875" Pitch="41" RiffPosition="4.1875" Velocity="0" />
      <note Length="0.015625" Pitch="41" RiffPosition="4.234375" Velocity="0" />
      <note Length="0.0625" Pitch="49" RiffPosition="4.25" Velocity="0" />
      <note Length="0.0625" Pitch="44" RiffPosition="4.3125" Velocity="0" />
      <note Length="0.03125" Pitch="46" RiffPosition="4.375" Velocity="0" />
      <note Length="0.03125" Pitch="47" RiffPosition="4.40625" Velocity="0" />
      <note Length="0.046875" Pitch="36" RiffPosition="4.4375" Velocity="0" />
      <note Length="0.015625" Pitch="45" RiffPosition="4.484375" Velocity="0" />
      <note Length="0.0625" Pitch="42" RiffPosition="4.5" Velocity="0" />
      <note Length="0.0625" Pitch="49" RiffPosition="4.5625" Velocity="0" />
      <note Length="0.03125" Pitch="46" RiffPosition="4.625" Velocity="0" />
      <note Length="0.03125" Pitch="48" RiffPosition="4.65625" Velocity="0" />
      <note Length="0.046875" Pitch="49" RiffPosition="4.6875" Velocity="0" />
      <note Length="0.015625" Pitch="44" RiffPosition="4.734375" Velocity="0" />
      <note Length="0.0625" Pitch="39" RiffPosition="4.75" Velocity="0" />
      <note Length="0.0625" Pitch="42" RiffPosition="4.8125" Velocity="0" />
      <note Length="0.03125" Pitch="38" RiffPosition="4.875" Velocity="0" />
      <note Length="0.03125" Pitch="43" RiffPosition="4.90625" Velocity="0" />
      <note Length="0.046875" Pitch="47" RiffPosition="4.9375" Velocity="0" />
      <note Length="0.015625" Pitch="45" RiffPosition="4.984375" Velocity="0" />
      <note Length="0.0625" Pitch="52" RiffPosition="5" Velocity="0" />
      <note Length="0.0625" Pitch="42" RiffPosition="5.0625" Velocity="0" />
      <note Length="0.03125" Pitch="44" RiffPosition="5.125" Velocity="0" />
      <note Length="0.03125" Pitch="35" RiffPosition="5.15625" Velocity="0" />
      <note Length="0.046875" Pitch="39" RiffPosition="5.1875" Velocity="0" />
      <note Length="0.015625" Pitch="40" RiffPosition="5.234375" Velocity="0" />
      <note Length="0.0625" Pitch="47" RiffPosition="5.25" Velocity="0" />
      <note Length="0.0625" Pitch="43" RiffPosition="5.3125" Velocity="0" />
      <note Length="0.03125" Pitch="44" RiffPosition="5.375" Velocity="0" />
      <note Length="0.03125" Pitch="45" RiffPosition="5.40625" Velocity="0" />
      <note Length="0.046875" Pitch="46" RiffPosition="5.4375" Velocity="0" />
      <note Length="0.015625" Pitch="44" RiffPosition="5.484375" Velocity="0" />
      <note Length="0.0625" Pitch="40" RiffPosition="5.5" Velocity="0" />
      <note Length="0.0625" Pitch="48" RiffPosition="5.5625" Velocity="0" />
      <note Length="0.03125" Pitch="44" RiffPosition="5.625" Velocity="0" />
      <note Length="0.03125" Pitch="46" RiffPosition="5.65625" Velocity="0" />
      <note Length="0.046875" Pitch="47" RiffPosition="5.6875" Velocity="0" />
      <note Length="0.015625" Pitch="44" RiffPosition="5.734375" Velocity="0" />
      <note Length="0.0625" Pitch="37" RiffPosition="5.75" Velocity="0" />
      <note Length="0.0625" Pitch="41" RiffPosition="5.8125" Velocity="0" />
      <note Length="0.03125" Pitch="49" RiffPosition="5.875" Velocity="0" />
      <note Length="0.03125" Pitch="41" RiffPosition="5.90625" Velocity="0" />
      <note Length="0.046875" Pitch="45" RiffPosition="5.9375" Velocity="0" />
      <note Length="0.015625" Pitch="44" RiffPosition="5.984375" Velocity="0" />
      <note Length="0.0625" Pitch="50" RiffPosition="6" Velocity="62" />
      <note Length="0.0625" Pitch="40" RiffPosition="6.0625" Velocity="0" />
      <note Length="0.03125" Pitch="43" RiffPosition="6.125" Velocity="41" />
      <note Length="0.03125" Pitch="45" RiffPosition="6.15625" Velocity="45" />
      <note Length="0.046875" Pitch="38" RiffPosition="6.1875" Velocity="0" />
      <note Length="0.015625" Pitch="49" RiffPosition="6.234375" Velocity="69" />
      <note Length="0.0625" Pitch="45" RiffPosition="6.25" Velocity="63" />
      <note Length="0.0625" Pitch="53" RiffPosition="6.3125" Velocity="91" />
      <note Length="0.03125" Pitch="44" RiffPosition="6.375" Velocity="41" />
      <note Length="0.03125" Pitch="44" RiffPosition="6.40625" Velocity="47" />
      <note Length="0.046875" Pitch="45" RiffPosition="6.4375" Velocity="89" />
      <note Length="0.015625" Pitch="42" RiffPosition="6.484375" Velocity="80" />
      <note Length="0.0625" Pitch="38" RiffPosition="6.5" Velocity="0" />
      <note Length="0.0625" Pitch="46" RiffPosition="6.5625" Velocity="115" />
      <note Length="0.03125" Pitch="43" RiffPosition="6.625" Velocity="42" />
      <note Length="0.03125" Pitch="45" RiffPosition="6.65625" Velocity="48" />
      <note Length="0.046875" Pitch="46" RiffPosition="6.6875" Velocity="118" />
      <note Length="0.015625" Pitch="42" RiffPosition="6.734375" Velocity="126" />
      <note Length="0.0625" Pitch="48" RiffPosition="6.75" Velocity="63" />
      <note Length="0.0625" Pitch="39" RiffPosition="6.8125" Velocity="0" />
      <note Length="0.03125" Pitch="47" RiffPosition="6.875" Velocity="42" />
      <note Length="0.03125" Pitch="40" RiffPosition="6.90625" Velocity="0" />
      <note Length="0.046875" Pitch="44" RiffPosition="6.9375" Velocity="92" />
      <note Length="0.015625" Pitch="43" RiffPosition="6.984375" Velocity="83" />
      <note Length="0.0625" Pitch="49" RiffPosition="7" Velocity="34" />
      <note Length="0.0625" Pitch="39" RiffPosition="7.0625" Velocity="0" />
      <note Length="0.03125" Pitch="41" RiffPosition="7.125" Velocity="41" />
      <note Length="0.03125" Pitch="44" RiffPosition="7.15625" Velocity="45" />
      <note Length="0.046875" Pitch="47" RiffPosition="7.1875" Velocity="115" />
      <note Length="0.015625" Pitch="48" RiffPosition="7.234375" Velocity="126" />
      <note Length="0.0625" Pitch="44" RiffPosition="7.25" Velocity="63" />
      <note Length="0.0625" Pitch="52" RiffPosition="7.3125" Velocity="50" />
      <note Length="0.03125" Pitch="42" RiffPosition="7.375" Velocity="41" />
      <note Length="0.03125" Pitch="43" RiffPosition="7.40625" Velocity="47" />
      <note Length="0.046875" Pitch="44" RiffPosition="7.4375" Velocity="89" />
      <note Length="0.015625" Pitch="41" RiffPosition="7.484375" Velocity="80" />
      <note Length="0.0625" Pitch="36" RiffPosition="7.5" Velocity="0" />
      <note Length="0.0625" Pitch="45" RiffPosition="7.5625" Velocity="115" />
      <note Length="0.03125" Pitch="53" RiffPosition="7.625" Velocity="42" />
      <note Length="0.03125" Pitch="44" RiffPosition="7.65625" Velocity="48" />
      <note Length="0.046875" Pitch="44" RiffPosition="7.6875" Velocity="118" />
      <note Length="0.015625" Pitch="40" RiffPosition="7.734375" Velocity="0" />
      <note Length="0.0625" Pitch="46" RiffPosition="7.75" Velocity="63" />
      <note Length="0.0625" Pitch="38" RiffPosition="7.8125" Velocity="0" />
      <note Length="0.03125" Pitch="45" RiffPosition="7.875" Velocity="42" />
      <note Length="0.03125" Pitch="49" RiffPosition="7.90625" Velocity="26" />
      <note Length="0.046875" Pitch="42" RiffPosition="7.9375" Velocity="92" />
      <note Length="0.015625" Pitch="52" RiffPosition="7.984375" Velocity="46" />
    </riff>
    <riff IsDrum="False" MidiInstrument="117" Tempo="129" Length="8">
      <note Length="0.03125" Pitch="51" RiffPosition="0" Velocity="40" />
      <note Length="0.0234375" Pitch="56" RiffPosition="0.03125" Velocity="47" />
      <note Length="0.0078125" Pitch="49" RiffPosition="0.0546875" Velocity="66" />
      <note Length="0.015625" Pitch="49" RiffPosition="0.0625" Velocity="59" />
      <note Length="0.015625" Pitch="51" RiffPosition="0.078125" Velocity="56" />
      <note Length="0.0078125" Pitch="51" RiffPosition="0.09375" Velocity="50" />
      <note Length="0.0234375" Pitch="49" RiffPosition="0.1015625" Velocity="49" />
      <note Length="0.03125" Pitch="44" RiffPosition="0.125" Velocity="75" />
      <note Length="0.03125" Pitch="51" RiffPosition="0.15625" Velocity="75" />
      <note Length="0.03125" Pitch="49" RiffPosition="0.1875" Velocity="47" />
      <note Length="0.03125" Pitch="51" RiffPosition="0.21875" Velocity="49" />
      <note Length="0.03125" Pitch="51" RiffPosition="0.25" Velocity="40" />
      <note Length="0.0234375" Pitch="57" RiffPosition="0.28125" Velocity="71" />
      <note Length="0.0078125" Pitch="51" RiffPosition="0.3046875" Velocity="64" />
      <note Length="0.015625" Pitch="54" RiffPosition="0.3125" Velocity="59" />
      <note Length="0.015625" Pitch="54" RiffPosition="0.328125" Velocity="57" />
      <note Length="0.0078125" Pitch="56" RiffPosition="0.34375" Velocity="56" />
      <note Length="0.0234375" Pitch="57" RiffPosition="0.3515625" Velocity="60" />
      <note Length="0.03125" Pitch="51" RiffPosition="0.375" Velocity="74" />
      <note Length="0.03125" Pitch="51" RiffPosition="0.40625" Velocity="85" />
      <note Length="0.03125" Pitch="45" RiffPosition="0.4375" Velocity="72" />
      <note Length="0.03125" Pitch="51" RiffPosition="0.46875" Velocity="45" />
      <note Length="0.03125" Pitch="44" RiffPosition="0.5" Velocity="64" />
      <note Length="0.0234375" Pitch="51" RiffPosition="0.53125" Velocity="67" />
      <note Length="0.0078125" Pitch="49" RiffPosition="0.5546875" Velocity="60" />
      <note Length="0.015625" Pitch="49" RiffPosition="0.5625" Velocity="52" />
      <note Length="0.015625" Pitch="51" RiffPosition="0.578125" Velocity="43" />
      <note Length="0.0078125" Pitch="56" RiffPosition="0.59375" Velocity="44" />
      <note Length="0.0234375" Pitch="57" RiffPosition="0.6015625" Velocity="45" />
      <note Length="0.03125" Pitch="51" RiffPosition="0.625" Velocity="46" />
      <note Length="0.03125" Pitch="56" RiffPosition="0.65625" Velocity="65" />
      <note Length="0.03125" Pitch="51" RiffPosition="0.6875" Velocity="62" />
      <note Length="0.03125" Pitch="51" RiffPosition="0.71875" Velocity="76" />
      <note Length="0.03125" Pitch="49" RiffPosition="0.75" Velocity="76" />
      <note Length="0.0234375" Pitch="49" RiffPosition="0.78125" Velocity="59" />
      <note Length="0.0078125" Pitch="44" RiffPosition="0.8046875" Velocity="53" />
      <note Length="0.015625" Pitch="44" RiffPosition="0.8125" Velocity="43" />
      <note Length="0.015625" Pitch="49" RiffPosition="0.828125" Velocity="41" />
      <note Length="0.0078125" Pitch="49" RiffPosition="0.84375" Velocity="56" />
      <note Length="0.0234375" Pitch="51" RiffPosition="0.8515625" Velocity="56" />
      <note Length="0.03125" Pitch="49" RiffPosition="0.875" Velocity="52" />
      <note Length="0.03125" Pitch="51" RiffPosition="0.90625" Velocity="58" />
      <note Length="0.03125" Pitch="51" RiffPosition="0.9375" Velocity="45" />
      <note Length="0.03125" Pitch="56" RiffPosition="0.96875" Velocity="50" />
      <note Length="0.03125" Pitch="51" RiffPosition="1" Velocity="47" />
      <note Length="0.0234375" Pitch="54" RiffPosition="1.03125" Velocity="65" />
      <note Length="0.0078125" Pitch="49" RiffPosition="1.0546875" Velocity="54" />
      <note Length="0.015625" Pitch="49" RiffPosition="1.0625" Velocity="47" />
      <note Length="0.015625" Pitch="51" RiffPosition="1.078125" Velocity="63" />
      <note Length="0.0078125" Pitch="51" RiffPosition="1.09375" Velocity="42" />
      <note Length="0.0234375" Pitch="51" RiffPosition="1.1015625" Velocity="41" />
      <note Length="0.03125" Pitch="45" RiffPosition="1.125" Velocity="61" />
      <note Length="0.03125" Pitch="51" RiffPosition="1.15625" Velocity="41" />
      <note Length="0.03125" Pitch="49" RiffPosition="1.1875" Velocity="70" />
      <note Length="0.03125" Pitch="51" RiffPosition="1.21875" Velocity="84" />
      <note Length="0.03125" Pitch="49" RiffPosition="1.25" Velocity="76" />
      <note Length="0.0234375" Pitch="51" RiffPosition="1.28125" Velocity="64" />
      <note Length="0.0078125" Pitch="51" RiffPosition="1.3046875" Velocity="72" />
      <note Length="0.015625" Pitch="51" RiffPosition="1.3125" Velocity="65" />
      <note Length="0.015625" Pitch="51" RiffPosition="1.328125" Velocity="57" />
      <note Length="0.0078125" Pitch="57" RiffPosition="1.34375" Velocity="79" />
      <note Length="0.0234375" Pitch="56" RiffPosition="1.3515625" Velocity="64" />
      <note Length="0.03125" Pitch="51" RiffPosition="1.375" Velocity="43" />
      <note Length="0.03125" Pitch="54" RiffPosition="1.40625" Velocity="48" />
      <note Length="0.03125" Pitch="49" RiffPosition="1.4375" Velocity="43" />
      <note Length="0.03125" Pitch="51" RiffPosition="1.46875" Velocity="60" />
      <note Length="0.03125" Pitch="45" RiffPosition="1.5" Velocity="69" />
      <note Length="0.0234375" Pitch="51" RiffPosition="1.53125" Velocity="68" />
      <note Length="0.0078125" Pitch="49" RiffPosition="1.5546875" Velocity="54" />
      <note Length="0.015625" Pitch="49" RiffPosition="1.5625" Velocity="83" />
      <note Length="0.015625" Pitch="51" RiffPosition="1.578125" Velocity="79" />
      <note Length="0.0078125" Pitch="54" RiffPosition="1.59375" Velocity="72" />
      <note Length="0.0234375" Pitch="54" RiffPosition="1.6015625" Velocity="88" />
      <note Length="0.03125" Pitch="51" RiffPosition="1.625" Velocity="70" />
      <note Length="0.03125" Pitch="54" RiffPosition="1.65625" Velocity="52" />
      <note Length="0.03125" Pitch="51" RiffPosition="1.6875" Velocity="54" />
      <note Length="0.03125" Pitch="54" RiffPosition="1.71875" Velocity="57" />
      <note Length="0.03125" Pitch="51" RiffPosition="1.75" Velocity="48" />
      <note Length="0.0234375" Pitch="51" RiffPosition="1.78125" Velocity="49" />
      <note Length="0.0078125" Pitch="49" RiffPosition="1.8046875" Velocity="59" />
      <note Length="0.015625" Pitch="49" RiffPosition="1.8125" Velocity="50" />
      <note Length="0.015625" Pitch="51" RiffPosition="1.828125" Velocity="43" />
      <note Length="0.0078125" Pitch="51" RiffPosition="1.84375" Velocity="49" />
      <note Length="0.0234375" Pitch="51" RiffPosition="1.8515625" Velocity="68" />
      <note Length="0.03125" Pitch="49" RiffPosition="1.875" Velocity="45" />
      <note Length="0.03125" Pitch="54" RiffPosition="1.90625" Velocity="40" />
      <note Length="0.03125" Pitch="51" RiffPosition="1.9375" Velocity="58" />
      <note Length="0.03125" Pitch="54" RiffPosition="1.96875" Velocity="62" />
      <note Length="0.03125" Pitch="51" RiffPosition="2" Velocity="0" />
      <note Length="0.0234375" Pitch="54" RiffPosition="2.03125" Velocity="0" />
      <note Length="0.0078125" Pitch="51" RiffPosition="2.0546875" Velocity="0" />
      <note Length="0.015625" Pitch="51" RiffPosition="2.0625" Velocity="0" />
      <note Length="0.015625" Pitch="51" RiffPosition="2.078125" Velocity="0" />
      <note Length="0.0078125" Pitch="51" RiffPosition="2.09375" Velocity="0" />
      <note Length="0.0234375" Pitch="54" RiffPosition="2.1015625" Velocity="0" />
      <note Length="0.03125" Pitch="49" RiffPosition="2.125" Velocity="0" />
      <note Length="0.03125" Pitch="51" RiffPosition="2.15625" Velocity="0" />
      <note Length="0.03125" Pitch="49" RiffPosition="2.1875" Velocity="0" />
      <note Length="0.03125" Pitch="54" RiffPosition="2.21875" Velocity="0" />
      <note Length="0.03125" Pitch="49" RiffPosition="2.25" Velocity="0" />
      <note Length="0.0234375" Pitch="54" RiffPosition="2.28125" Velocity="0" />
      <note Length="0.0078125" Pitch="51" RiffPosition="2.3046875" Velocity="0" />
      <note Length="0.015625" Pitch="49" RiffPosition="2.3125" Velocity="0" />
      <note Length="0.015625" Pitch="51" RiffPosition="2.328125" Velocity="0" />
      <note Length="0.0078125" Pitch="54" RiffPosition="2.34375" Velocity="0" />
      <note Length="0.0234375" Pitch="51" RiffPosition="2.3515625" Velocity="0" />
      <note Length="0.03125" Pitch="49" RiffPosition="2.375" Velocity="0" />
      <note Length="0.03125" Pitch="51" RiffPosition="2.40625" Velocity="0" />
      <note Length="0.03125" Pitch="49" RiffPosition="2.4375" Velocity="0" />
      <note Length="0.03125" Pitch="51" RiffPosition="2.46875" Velocity="0" />
      <note Length="0.03125" Pitch="51" RiffPosition="2.5" Velocity="0" />
      <note Length="0.0234375" Pitch="51" RiffPosition="2.53125" Velocity="0" />
      <note Length="0.0078125" Pitch="49" RiffPosition="2.5546875" Velocity="0" />
      <note Length="0.015625" Pitch="49" RiffPosition="2.5625" Velocity="0" />
      <note Length="0.015625" Pitch="51" RiffPosition="2.578125" Velocity="0" />
      <note Length="0.0078125" Pitch="51" RiffPosition="2.59375" Velocity="0" />
      <note Length="0.0234375" Pitch="54" RiffPosition="2.6015625" Velocity="0" />
      <note Length="0.03125" Pitch="51" RiffPosition="2.625" Velocity="0" />
      <note Length="0.03125" Pitch="51" RiffPosition="2.65625" Velocity="0" />
      <note Length="0.03125" Pitch="49" RiffPosition="2.6875" Velocity="0" />
      <note Length="0.03125" Pitch="51" RiffPosition="2.71875" Velocity="0" />
      <note Length="0.03125" Pitch="49" RiffPosition="2.75" Velocity="0" />
      <note Length="0.0234375" Pitch="51" RiffPosition="2.78125" Velocity="0" />
      <note Length="0.0078125" Pitch="49" RiffPosition="2.8046875" Velocity="0" />
      <note Length="0.015625" Pitch="49" RiffPosition="2.8125" Velocity="0" />
      <note Length="0.015625" Pitch="51" RiffPosition="2.828125" Velocity="0" />
      <note Length="0.0078125" Pitch="51" RiffPosition="2.84375" Velocity="0" />
      <note Length="0.0234375" Pitch="51" RiffPosition="2.8515625" Velocity="0" />
      <note Length="0.03125" Pitch="51" RiffPosition="2.875" Velocity="0" />
      <note Length="0.03125" Pitch="54" RiffPosition="2.90625" Velocity="0" />
      <note Length="0.03125" Pitch="51" RiffPosition="2.9375" Velocity="0" />
      <note Length="0.03125" Pitch="51" RiffPosition="2.96875" Velocity="0" />
      <note Length="0.03125" Pitch="49" RiffPosition="3" Velocity="0" />
      <note Length="0.0234375" Pitch="51" RiffPosition="3.03125" Velocity="0" />
      <note Length="0.0078125" Pitch="49" RiffPosition="3.0546875" Velocity="0" />
      <note Length="0.015625" Pitch="49" RiffPosition="3.0625" Velocity="0" />
      <note Length="0.015625" Pitch="49" RiffPosition="3.078125" Velocity="0" />
      <note Length="0.0078125" Pitch="51" RiffPosition="3.09375" Velocity="0" />
      <note Length="0.0234375" Pitch="51" RiffPosition="3.1015625" Velocity="0" />
      <note Length="0.03125" Pitch="49" RiffPosition="3.125" Velocity="0" />
      <note Length="0.03125" Pitch="51" RiffPosition="3.15625" Velocity="0" />
      <note Length="0.03125" Pitch="51" RiffPosition="3.1875" Velocity="0" />
      <note Length="0.03125" Pitch="54" RiffPosition="3.21875" Velocity="0" />
      <note Length="0.03125" Pitch="49" RiffPosition="3.25" Velocity="0" />
      <note Length="0.0234375" Pitch="54" RiffPosition="3.28125" Velocity="0" />
      <note Length="0.0078125" Pitch="51" RiffPosition="3.3046875" Velocity="0" />
      <note Length="0.015625" Pitch="49" RiffPosition="3.3125" Velocity="0" />
      <note Length="0.015625" Pitch="51" RiffPosition="3.328125" Velocity="0" />
      <note Length="0.0078125" Pitch="51" RiffPosition="3.34375" Velocity="0" />
      <note Length="0.0234375" Pitch="51" RiffPosition="3.3515625" Velocity="0" />
      <note Length="0.03125" Pitch="49" RiffPosition="3.375" Velocity="0" />
      <note Length="0.03125" Pitch="51" RiffPosition="3.40625" Velocity="0" />
      <note Length="0.03125" Pitch="49" RiffPosition="3.4375" Velocity="0" />
      <note Length="0.03125" Pitch="51" RiffPosition="3.46875" Velocity="0" />
      <note Length="0.03125" Pitch="51" RiffPosition="3.5" Velocity="0" />
      <note Length="0.0234375" Pitch="56" RiffPosition="3.53125" Velocity="0" />
      <note Length="0.0078125" Pitch="51" RiffPosition="3.5546875" Velocity="0" />
      <note Length="0.015625" Pitch="51" RiffPosition="3.5625" Velocity="0" />
      <note Length="0.015625" Pitch="54" RiffPosition="3.578125" Velocity="0" />
      <note Length="0.0078125" Pitch="56" RiffPosition="3.59375" Velocity="0" />
      <note Length="0.0234375" Pitch="56" RiffPosition="3.6015625" Velocity="0" />
      <note Length="0.03125" Pitch="51" RiffPosition="3.625" Velocity="0" />
      <note Length="0.03125" Pitch="54" RiffPosition="3.65625" Velocity="0" />
      <note Length="0.03125" Pitch="49" RiffPosition="3.6875" Velocity="0" />
      <note Length="0.03125" Pitch="51" RiffPosition="3.71875" Velocity="0" />
      <note Length="0.03125" Pitch="49" RiffPosition="3.75" Velocity="0" />
      <note Length="0.0234375" Pitch="51" RiffPosition="3.78125" Velocity="0" />
      <note Length="0.0078125" Pitch="49" RiffPosition="3.8046875" Velocity="0" />
      <note Length="0.015625" Pitch="51" RiffPosition="3.8125" Velocity="0" />
      <note Length="0.015625" Pitch="51" RiffPosition="3.828125" Velocity="0" />
      <note Length="0.0078125" Pitch="54" RiffPosition="3.84375" Velocity="0" />
      <note Length="0.0234375" Pitch="57" RiffPosition="3.8515625" Velocity="0" />
      <note Length="0.03125" Pitch="51" RiffPosition="3.875" Velocity="0" />
      <note Length="0.03125" Pitch="57" RiffPosition="3.90625" Velocity="0" />
      <note Length="0.03125" Pitch="51" RiffPosition="3.9375" Velocity="0" />
      <note Length="0.03125" Pitch="57" RiffPosition="3.96875" Velocity="0" />
      <note Length="0.03125" Pitch="49" RiffPosition="4" Velocity="0" />
      <note Length="0.0234375" Pitch="51" RiffPosition="4.03125" Velocity="0" />
      <note Length="0.0078125" Pitch="49" RiffPosition="4.0546875" Velocity="0" />
      <note Length="0.015625" Pitch="49" RiffPosition="4.0625" Velocity="0" />
      <note Length="0.015625" Pitch="49" RiffPosition="4.078125" Velocity="0" />
      <note Length="0.0078125" Pitch="51" RiffPosition="4.09375" Velocity="0" />
      <note Length="0.0234375" Pitch="51" RiffPosition="4.1015625" Velocity="0" />
      <note Length="0.03125" Pitch="45" RiffPosition="4.125" Velocity="0" />
      <note Length="0.03125" Pitch="51" RiffPosition="4.15625" Velocity="0" />
      <note Length="0.03125" Pitch="51" RiffPosition="4.1875" Velocity="0" />
      <note Length="0.03125" Pitch="57" RiffPosition="4.21875" Velocity="0" />
      <note Length="0.03125" Pitch="54" RiffPosition="4.25" Velocity="0" />
      <note Length="0.0234375" Pitch="57" RiffPosition="4.28125" Velocity="0" />
      <note Length="0.0078125" Pitch="51" RiffPosition="4.3046875" Velocity="0" />
      <note Length="0.015625" Pitch="51" RiffPosition="4.3125" Velocity="0" />
      <note Length="0.015625" Pitch="51" RiffPosition="4.328125" Velocity="0" />
      <note Length="0.0078125" Pitch="51" RiffPosition="4.34375" Velocity="0" />
      <note Length="0.0234375" Pitch="51" RiffPosition="4.3515625" Velocity="0" />
      <note Length="0.03125" Pitch="49" RiffPosition="4.375" Velocity="0" />
      <note Length="0.03125" Pitch="51" RiffPosition="4.40625" Velocity="0" />
      <note Length="0.03125" Pitch="44" RiffPosition="4.4375" Velocity="0" />
      <note Length="0.03125" Pitch="51" RiffPosition="4.46875" Velocity="0" />
      <note Length="0.03125" Pitch="49" RiffPosition="4.5" Velocity="0" />
      <note Length="0.0234375" Pitch="56" RiffPosition="4.53125" Velocity="0" />
      <note Length="0.0078125" Pitch="51" RiffPosition="4.5546875" Velocity="0" />
      <note Length="0.015625" Pitch="51" RiffPosition="4.5625" Velocity="0" />
      <note Length="0.015625" Pitch="54" RiffPosition="4.578125" Velocity="0" />
      <note Length="0.0078125" Pitch="57" RiffPosition="4.59375" Velocity="0" />
      <note Length="0.0234375" Pitch="57" RiffPosition="4.6015625" Velocity="0" />
      <note Length="0.03125" Pitch="51" RiffPosition="4.625" Velocity="0" />
      <note Length="0.03125" Pitch="54" RiffPosition="4.65625" Velocity="0" />
      <note Length="0.03125" Pitch="49" RiffPosition="4.6875" Velocity="0" />
      <note Length="0.03125" Pitch="49" RiffPosition="4.71875" Velocity="0" />
      <note Length="0.03125" Pitch="44" RiffPosition="4.75" Velocity="0" />
      <note Length="0.0234375" Pitch="49" RiffPosition="4.78125" Velocity="0" />
      <note Length="0.0078125" Pitch="45" RiffPosition="4.8046875" Velocity="0" />
      <note Length="0.015625" Pitch="45" RiffPosition="4.8125" Velocity="0" />
      <note Length="0.015625" Pitch="49" RiffPosition="4.828125" Velocity="0" />
      <note Length="0.0078125" Pitch="51" RiffPosition="4.84375" Velocity="0" />
      <note Length="0.0234375" Pitch="51" RiffPosition="4.8515625" Velocity="0" />
      <note Length="0.03125" Pitch="51" RiffPosition="4.875" Velocity="0" />
      <note Length="0.03125" Pitch="57" RiffPosition="4.90625" Velocity="0" />
      <note Length="0.03125" Pitch="51" RiffPosition="4.9375" Velocity="0" />
      <note Length="0.03125" Pitch="57" RiffPosition="4.96875" Velocity="0" />
      <note Length="0.03125" Pitch="49" RiffPosition="5" Velocity="0" />
      <note Length="0.0234375" Pitch="51" RiffPosition="5.03125" Velocity="0" />
      <note Length="0.0078125" Pitch="49" RiffPosition="5.0546875" Velocity="0" />
      <note Length="0.015625" Pitch="45" RiffPosition="5.0625" Velocity="0" />
      <note Length="0.015625" Pitch="45" RiffPosition="5.078125" Velocity="0" />
      <note Length="0.0078125" Pitch="49" RiffPosition="5.09375" Velocity="0" />
      <note Length="0.0234375" Pitch="49" RiffPosition="5.1015625" Velocity="0" />
      <note Length="0.03125" Pitch="44" RiffPosition="5.125" Velocity="0" />
      <note Length="0.03125" Pitch="49" RiffPosition="5.15625" Velocity="0" />
      <note Length="0.03125" Pitch="49" RiffPosition="5.1875" Velocity="0" />
      <note Length="0.03125" Pitch="54" RiffPosition="5.21875" Velocity="0" />
      <note Length="0.03125" Pitch="51" RiffPosition="5.25" Velocity="0" />
      <note Length="0.0234375" Pitch="57" RiffPosition="5.28125" Velocity="0" />
      <note Length="0.0078125" Pitch="51" RiffPosition="5.3046875" Velocity="0" />
      <note Length="0.015625" Pitch="51" RiffPosition="5.3125" Velocity="0" />
      <note Length="0.015625" Pitch="54" RiffPosition="5.328125" Velocity="0" />
      <note Length="0.0078125" Pitch="54" RiffPosition="5.34375" Velocity="0" />
      <note Length="0.0234375" Pitch="54" RiffPosition="5.3515625" Velocity="0" />
      <note Length="0.03125" Pitch="49" RiffPosition="5.375" Velocity="0" />
      <note Length="0.03125" Pitch="51" RiffPosition="5.40625" Velocity="0" />
      <note Length="0.03125" Pitch="42" RiffPosition="5.4375" Velocity="0" />
      <note Length="0.03125" Pitch="49" RiffPosition="5.46875" Velocity="0" />
      <note Length="0.03125" Pitch="49" RiffPosition="5.5" Velocity="0" />
      <note Length="0.0234375" Pitch="51" RiffPosition="5.53125" Velocity="0" />
      <note Length="0.0078125" Pitch="51" RiffPosition="5.5546875" Velocity="0" />
      <note Length="0.015625" Pitch="51" RiffPosition="5.5625" Velocity="0" />
      <note Length="0.015625" Pitch="51" RiffPosition="5.578125" Velocity="0" />
      <note Length="0.0078125" Pitch="57" RiffPosition="5.59375" Velocity="0" />
      <note Length="0.0234375" Pitch="57" RiffPosition="5.6015625" Velocity="0" />
      <note Length="0.03125" Pitch="54" RiffPosition="5.625" Velocity="0" />
      <note Length="0.03125" Pitch="57" RiffPosition="5.65625" Velocity="0" />
      <note Length="0.03125" Pitch="51" RiffPosition="5.6875" Velocity="0" />
      <note Length="0.03125" Pitch="54" RiffPosition="5.71875" Velocity="0" />
      <note Length="0.03125" Pitch="49" RiffPosition="5.75" Velocity="0" />
      <note Length="0.0234375" Pitch="49" RiffPosition="5.78125" Velocity="0" />
      <note Length="0.0078125" Pitch="45" RiffPosition="5.8046875" Velocity="0" />
      <note Length="0.015625" Pitch="45" RiffPosition="5.8125" Velocity="0" />
      <note Length="0.015625" Pitch="49" RiffPosition="5.828125" Velocity="0" />
      <note Length="0.0078125" Pitch="51" RiffPosition="5.84375" Velocity="0" />
      <note Length="0.0234375" Pitch="51" RiffPosition="5.8515625" Velocity="0" />
      <note Length="0.03125" Pitch="49" RiffPosition="5.875" Velocity="0" />
      <note Length="0.03125" Pitch="56" RiffPosition="5.90625" Velocity="0" />
      <note Length="0.03125" Pitch="54" RiffPosition="5.9375" Velocity="0" />
      <note Length="0.03125" Pitch="57" RiffPosition="5.96875" Velocity="0" />
      <note Length="0.03125" Pitch="54" RiffPosition="6" Velocity="48" />
      <note Length="0.0234375" Pitch="54" RiffPosition="6.03125" Velocity="64" />
      <note Length="0.0078125" Pitch="49" RiffPosition="6.0546875" Velocity="66" />
      <note Length="0.015625" Pitch="49" RiffPosition="6.0625" Velocity="57" />
      <note Length="0.015625" Pitch="51" RiffPosition="6.078125" Velocity="43" />
      <note Length="0.0078125" Pitch="51" RiffPosition="6.09375" Velocity="48" />
      <note Length="0.0234375" Pitch="51" RiffPosition="6.1015625" Velocity="49" />
      <note Length="0.03125" Pitch="45" RiffPosition="6.125" Velocity="73" />
      <note Length="0.03125" Pitch="51" RiffPosition="6.15625" Velocity="64" />
      <note Length="0.03125" Pitch="49" RiffPosition="6.1875" Velocity="45" />
      <note Length="0.03125" Pitch="54" RiffPosition="6.21875" Velocity="50" />
      <note Length="0.03125" Pitch="51" RiffPosition="6.25" Velocity="57" />
      <note Length="0.0234375" Pitch="57" RiffPosition="6.28125" Velocity="60" />
      <note Length="0.0078125" Pitch="51" RiffPosition="6.3046875" Velocity="62" />
      <note Length="0.015625" Pitch="51" RiffPosition="6.3125" Velocity="57" />
      <note Length="0.015625" Pitch="54" RiffPosition="6.328125" Velocity="77" />
      <note Length="0.0078125" Pitch="56" RiffPosition="6.34375" Velocity="54" />
      <note Length="0.0234375" Pitch="54" RiffPosition="6.3515625" Velocity="58" />
      <note Length="0.03125" Pitch="51" RiffPosition="6.375" Velocity="72" />
      <note Length="0.03125" Pitch="51" RiffPosition="6.40625" Velocity="83" />
      <note Length="0.03125" Pitch="49" RiffPosition="6.4375" Velocity="79" />
      <note Length="0.03125" Pitch="49" RiffPosition="6.46875" Velocity="62" />
      <note Length="0.03125" Pitch="45" RiffPosition="6.5" Velocity="64" />
      <note Length="0.0234375" Pitch="51" RiffPosition="6.53125" Velocity="65" />
      <note Length="0.0078125" Pitch="49" RiffPosition="6.5546875" Velocity="49" />
      <note Length="0.015625" Pitch="49" RiffPosition="6.5625" Velocity="52" />
      <note Length="0.015625" Pitch="51" RiffPosition="6.578125" Velocity="54" />
      <note Length="0.0078125" Pitch="57" RiffPosition="6.59375" Velocity="49" />
      <note Length="0.0234375" Pitch="57" RiffPosition="6.6015625" Velocity="45" />
      <note Length="0.03125" Pitch="51" RiffPosition="6.625" Velocity="44" />
      <note Length="0.03125" Pitch="56" RiffPosition="6.65625" Velocity="63" />
      <note Length="0.03125" Pitch="51" RiffPosition="6.6875" Velocity="79" />
      <note Length="0.03125" Pitch="54" RiffPosition="6.71875" Velocity="65" />
      <note Length="0.03125" Pitch="49" RiffPosition="6.75" Velocity="74" />
      <note Length="0.0234375" Pitch="49" RiffPosition="6.78125" Velocity="59" />
      <note Length="0.0078125" Pitch="45" RiffPosition="6.8046875" Velocity="51" />
      <note Length="0.015625" Pitch="45" RiffPosition="6.8125" Velocity="41" />
      <note Length="0.015625" Pitch="49" RiffPosition="6.828125" Velocity="41" />
      <note Length="0.0078125" Pitch="51" RiffPosition="6.84375" Velocity="56" />
      <note Length="0.0234375" Pitch="49" RiffPosition="6.8515625" Velocity="58" />
      <note Length="0.03125" Pitch="49" RiffPosition="6.875" Velocity="66" />
      <note Length="0.03125" Pitch="51" RiffPosition="6.90625" Velocity="41" />
      <note Length="0.03125" Pitch="51" RiffPosition="6.9375" Velocity="47" />
      <note Length="0.03125" Pitch="56" RiffPosition="6.96875" Velocity="52" />
      <note Length="0.03125" Pitch="51" RiffPosition="7" Velocity="47" />
      <note Length="0.0234375" Pitch="54" RiffPosition="7.03125" Velocity="51" />
      <note Length="0.0078125" Pitch="51" RiffPosition="7.0546875" Velocity="73" />
      <note Length="0.015625" Pitch="49" RiffPosition="7.0625" Velocity="47" />
      <note Length="0.015625" Pitch="51" RiffPosition="7.078125" Velocity="61" />
      <note Length="0.0078125" Pitch="51" RiffPosition="7.09375" Velocity="44" />
      <note Length="0.0234375" Pitch="51" RiffPosition="7.1015625" Velocity="43" />
      <note Length="0.03125" Pitch="45" RiffPosition="7.125" Velocity="41" />
      <note Length="0.03125" Pitch="51" RiffPosition="7.15625" Velocity="53" />
      <note Length="0.03125" Pitch="45" RiffPosition="7.1875" Velocity="72" />
      <note Length="0.03125" Pitch="51" RiffPosition="7.21875" Velocity="86" />
      <note Length="0.03125" Pitch="49" RiffPosition="7.25" Velocity="78" />
      <note Length="0.0234375" Pitch="54" RiffPosition="7.28125" Velocity="64" />
      <note Length="0.0078125" Pitch="51" RiffPosition="7.3046875" Velocity="55" />
      <note Length="0.015625" Pitch="51" RiffPosition="7.3125" Velocity="79" />
      <note Length="0.015625" Pitch="51" RiffPosition="7.328125" Velocity="59" />
      <note Length="0.0078125" Pitch="54" RiffPosition="7.34375" Velocity="60" />
      <note Length="0.0234375" Pitch="56" RiffPosition="7.3515625" Velocity="75" />
      <note Length="0.03125" Pitch="51" RiffPosition="7.375" Velocity="45" />
      <note Length="0.03125" Pitch="54" RiffPosition="7.40625" Velocity="48" />
      <note Length="0.03125" Pitch="49" RiffPosition="7.4375" Velocity="45" />
      <note Length="0.03125" Pitch="51" RiffPosition="7.46875" Velocity="73" />
      <note Length="0.03125" Pitch="49" RiffPosition="7.5" Velocity="71" />
      <note Length="0.0234375" Pitch="51" RiffPosition="7.53125" Velocity="70" />
      <note Length="0.0078125" Pitch="49" RiffPosition="7.5546875" Velocity="68" />
      <note Length="0.015625" Pitch="49" RiffPosition="7.5625" Velocity="64" />
      <note Length="0.015625" Pitch="51" RiffPosition="7.578125" Velocity="79" />
      <note Length="0.0078125" Pitch="54" RiffPosition="7.59375" Velocity="86" />
      <note Length="0.0234375" Pitch="54" RiffPosition="7.6015625" Velocity="71" />
      <note Length="0.03125" Pitch="51" RiffPosition="7.625" Velocity="70" />
      <note Length="0.03125" Pitch="54" RiffPosition="7.65625" Velocity="54" />
      <note Length="0.03125" Pitch="51" RiffPosition="7.6875" Velocity="54" />
      <note Length="0.03125" Pitch="54" RiffPosition="7.71875" Velocity="59" />
      <note Length="0.03125" Pitch="51" RiffPosition="7.75" Velocity="62" />
      <note Length="0.0234375" Pitch="51" RiffPosition="7.78125" Velocity="66" />
      <note Length="0.0078125" Pitch="49" RiffPosition="7.8046875" Velocity="57" />
      <note Length="0.015625" Pitch="49" RiffPosition="7.8125" Velocity="48" />
      <note Length="0.015625" Pitch="51" RiffPosition="7.828125" Velocity="51" />
      <note Length="0.0078125" Pitch="51" RiffPosition="7.84375" Velocity="49" />
      <note Length="0.0234375" Pitch="51" RiffPosition="7.8515625" Velocity="49" />
      <note Length="0.03125" Pitch="49" RiffPosition="7.875" Velocity="47" />
      <note Length="0.03125" Pitch="51" RiffPosition="7.90625" Velocity="51" />
      <note Length="0.03125" Pitch="51" RiffPosition="7.9375" Velocity="60" />
      <note Length="0.03125" Pitch="54" RiffPosition="7.96875" Velocity="62" />
    </riff>
    <riff IsDrum="True" MidiInstrument="0" Tempo="118" Length="8">
      <note Length="0.0625" Pitch="38" RiffPosition="0" Velocity="0" />
      <note Length="0.0625" Pitch="38" RiffPosition="0.0625" Velocity="105" />
      <note Length="0.0625" Pitch="38" RiffPosition="0.125" Velocity="0" />
      <note Length="0.0625" Pitch="38" RiffPosition="0.1875" Velocity="105" />
      <note Length="0.0625" Pitch="38" RiffPosition="0.25" Velocity="0" />
      <note Length="0.0625" Pitch="38" RiffPosition="0.3125" Velocity="105" />
      <note Length="0.0625" Pitch="38" RiffPosition="0.375" Velocity="0" />
      <note Length="0.0625" Pitch="38" RiffPosition="0.4375" Velocity="105" />
      <note Length="0.0625" Pitch="38" RiffPosition="0.5" Velocity="0" />
      <note Length="0.0625" Pitch="38" RiffPosition="0.5625" Velocity="105" />
      <note Length="0.0625" Pitch="38" RiffPosition="0.625" Velocity="0" />
      <note Length="0.0625" Pitch="38" RiffPosition="0.6875" Velocity="105" />
      <note Length="0.0625" Pitch="38" RiffPosition="0.75" Velocity="0" />
      <note Length="0.0625" Pitch="38" RiffPosition="0.8125" Velocity="105" />
      <note Length="0.0625" Pitch="38" RiffPosition="0.875" Velocity="0" />
      <note Length="0.0625" Pitch="38" RiffPosition="0.9375" Velocity="105" />
      <note Length="0.0625" Pitch="38" RiffPosition="1" Velocity="0" />
      <note Length="0.0625" Pitch="38" RiffPosition="1.0625" Velocity="105" />
      <note Length="0.0625" Pitch="38" RiffPosition="1.125" Velocity="0" />
      <note Length="0.0625" Pitch="38" RiffPosition="1.1875" Velocity="105" />
      <note Length="0.0625" Pitch="38" RiffPosition="1.25" Velocity="0" />
      <note Length="0.0625" Pitch="38" RiffPosition="1.3125" Velocity="105" />
      <note Length="0.0625" Pitch="38" RiffPosition="1.375" Velocity="0" />
      <note Length="0.0625" Pitch="38" RiffPosition="1.4375" Velocity="105" />
      <note Length="0.0625" Pitch="38" RiffPosition="1.5" Velocity="0" />
      <note Length="0.0625" Pitch="38" RiffPosition="1.5625" Velocity="105" />
      <note Length="0.0625" Pitch="38" RiffPosition="1.625" Velocity="0" />
      <note Length="0.0625" Pitch="38" RiffPosition="1.6875" Velocity="105" />
      <note Length="0.0625" Pitch="38" RiffPosition="1.75" Velocity="0" />
      <note Length="0.0625" Pitch="38" RiffPosition="1.8125" Velocity="105" />
      <note Length="0.0625" Pitch="38" RiffPosition="1.875" Velocity="0" />
      <note Length="0.0625" Pitch="38" RiffPosition="1.9375" Velocity="105" />
      <note Length="0.0625" Pitch="38" RiffPosition="2" Velocity="0" />
      <note Length="0.0625" Pitch="38" RiffPosition="2.0625" Velocity="105" />
      <note Length="0.0625" Pitch="38" RiffPosition="2.125" Velocity="0" />
      <note Length="0.0625" Pitch="38" RiffPosition="2.1875" Velocity="105" />
      <note Length="0.0625" Pitch="38" RiffPosition="2.25" Velocity="0" />
      <note Length="0.0625" Pitch="38" RiffPosition="2.3125" Velocity="105" />
      <note Length="0.0625" Pitch="38" RiffPosition="2.375" Velocity="0" />
      <note Length="0.0625" Pitch="38" RiffPosition="2.4375" Velocity="105" />
      <note Length="0.0625" Pitch="38" RiffPosition="2.5" Velocity="0" />
      <note Length="0.0625" Pitch="38" RiffPosition="2.5625" Velocity="105" />
      <note Length="0.0625" Pitch="38" RiffPosition="2.625" Velocity="0" />
      <note Length="0.0625" Pitch="38" RiffPosition="2.6875" Velocity="105" />
      <note Length="0.0625" Pitch="38" RiffPosition="2.75" Velocity="0" />
      <note Length="0.0625" Pitch="38" RiffPosition="2.8125" Velocity="105" />
      <note Length="0.0625" Pitch="38" RiffPosition="2.875" Velocity="0" />
      <note Length="0.0625" Pitch="38" RiffPosition="2.9375" Velocity="105" />
      <note Length="0.0625" Pitch="38" RiffPosition="3" Velocity="0" />
      <note Length="0.0625" Pitch="38" RiffPosition="3.0625" Velocity="105" />
      <note Length="0.0625" Pitch="38" RiffPosition="3.125" Velocity="0" />
      <note Length="0.0625" Pitch="38" RiffPosition="3.1875" Velocity="105" />
      <note Length="0.0625" Pitch="38" RiffPosition="3.25" Velocity="0" />
      <note Length="0.0625" Pitch="38" RiffPosition="3.3125" Velocity="105" />
      <note Length="0.0625" Pitch="38" RiffPosition="3.375" Velocity="0" />
      <note Length="0.0625" Pitch="38" RiffPosition="3.4375" Velocity="105" />
      <note Length="0.0625" Pitch="38" RiffPosition="3.5" Velocity="0" />
      <note Length="0.0625" Pitch="38" RiffPosition="3.5625" Velocity="105" />
      <note Length="0.0625" Pitch="38" RiffPosition="3.625" Velocity="0" />
      <note Length="0.0625" Pitch="38" RiffPosition="3.6875" Velocity="105" />
      <note Length="0.0625" Pitch="38" RiffPosition="3.75" Velocity="0" />
      <note Length="0.0625" Pitch="38" RiffPosition="3.8125" Velocity="105" />
      <note Length="0.0625" Pitch="38" RiffPosition="3.875" Velocity="0" />
      <note Length="0.0625" Pitch="38" RiffPosition="3.9375" Velocity="105" />
      <note Length="0.0625" Pitch="38" RiffPosition="4" Velocity="0" />
      <note Length="0.0625" Pitch="38" RiffPosition="4.0625" Velocity="105" />
      <note Length="0.0625" Pitch="38" RiffPosition="4.125" Velocity="0" />
      <note Length="0.0625" Pitch="38" RiffPosition="4.1875" Velocity="105" />
      <note Length="0.0625" Pitch="38" RiffPosition="4.25" Velocity="0" />
      <note Length="0.0625" Pitch="38" RiffPosition="4.3125" Velocity="105" />
      <note Length="0.0625" Pitch="38" RiffPosition="4.375" Velocity="0" />
      <note Length="0.0625" Pitch="38" RiffPosition="4.4375" Velocity="105" />
      <note Length="0.0625" Pitch="38" RiffPosition="4.5" Velocity="0" />
      <note Length="0.0625" Pitch="38" RiffPosition="4.5625" Velocity="105" />
      <note Length="0.0625" Pitch="38" RiffPosition="4.625" Velocity="0" />
      <note Length="0.0625" Pitch="38" RiffPosition="4.6875" Velocity="105" />
      <note Length="0.0625" Pitch="38" RiffPosition="4.75" Velocity="0" />
      <note Length="0.0625" Pitch="38" RiffPosition="4.8125" Velocity="105" />
      <note Length="0.0625" Pitch="38" RiffPosition="4.875" Velocity="0" />
      <note Length="0.0625" Pitch="38" RiffPosition="4.9375" Velocity="105" />
      <note Length="0.0625" Pitch="38" RiffPosition="5" Velocity="0" />
      <note Length="0.0625" Pitch="38" RiffPosition="5.0625" Velocity="105" />
      <note Length="0.0625" Pitch="38" RiffPosition="5.125" Velocity="0" />
      <note Length="0.0625" Pitch="38" RiffPosition="5.1875" Velocity="105" />
      <note Length="0.0625" Pitch="38" RiffPosition="5.25" Velocity="0" />
      <note Length="0.0625" Pitch="38" RiffPosition="5.3125" Velocity="105" />
      <note Length="0.0625" Pitch="38" RiffPosition="5.375" Velocity="0" />
      <note Length="0.0625" Pitch="38" RiffPosition="5.4375" Velocity="105" />
      <note Length="0.0625" Pitch="38" RiffPosition="5.5" Velocity="0" />
      <note Length="0.0625" Pitch="38" RiffPosition="5.5625" Velocity="105" />
      <note Length="0.0625" Pitch="38" RiffPosition="5.625" Velocity="0" />
      <note Length="0.0625" Pitch="38" RiffPosition="5.6875" Velocity="105" />
      <note Length="0.0625" Pitch="38" RiffPosition="5.75" Velocity="0" />
      <note Length="0.0625" Pitch="38" RiffPosition="5.8125" Velocity="105" />
      <note Length="0.0625" Pitch="38" RiffPosition="5.875" Velocity="0" />
      <note Length="0.0625" Pitch="38" RiffPosition="5.9375" Velocity="105" />
      <note Length="0.0625" Pitch="38" RiffPosition="6" Velocity="0" />
      <note Length="0.0625" Pitch="38" RiffPosition="6.0625" Velocity="105" />
      <note Length="0.0625" Pitch="38" RiffPosition="6.125" Velocity="0" />
      <note Length="0.0625" Pitch="38" RiffPosition="6.1875" Velocity="105" />
      <note Length="0.0625" Pitch="38" RiffPosition="6.25" Velocity="0" />
      <note Length="0.0625" Pitch="38" RiffPosition="6.3125" Velocity="105" />
      <note Length="0.0625" Pitch="38" RiffPosition="6.375" Velocity="0" />
      <note Length="0.0625" Pitch="38" RiffPosition="6.4375" Velocity="105" />
      <note Length="0.0625" Pitch="38" RiffPosition="6.5" Velocity="0" />
      <note Length="0.0625" Pitch="38" RiffPosition="6.5625" Velocity="105" />
      <note Length="0.0625" Pitch="38" RiffPosition="6.625" Velocity="0" />
      <note Length="0.0625" Pitch="38" RiffPosition="6.6875" Velocity="105" />
      <note Length="0.0625" Pitch="38" RiffPosition="6.75" Velocity="0" />
      <note Length="0.0625" Pitch="38" RiffPosition="6.8125" Velocity="105" />
      <note Length="0.0625" Pitch="38" RiffPosition="6.875" Velocity="0" />
      <note Length="0.0625" Pitch="38" RiffPosition="6.9375" Velocity="105" />
      <note Length="0.0625" Pitch="38" RiffPosition="7" Velocity="0" />
      <note Length="0.0625" Pitch="38" RiffPosition="7.0625" Velocity="105" />
      <note Length="0.0625" Pitch="38" RiffPosition="7.125" Velocity="0" />
      <note Length="0.0625" Pitch="38" RiffPosition="7.1875" Velocity="105" />
      <note Length="0.0625" Pitch="38" RiffPosition="7.25" Velocity="0" />
      <note Length="0.0625" Pitch="38" RiffPosition="7.3125" Velocity="105" />
      <note Length="0.0625" Pitch="38" RiffPosition="7.375" Velocity="0" />
      <note Length="0.0625" Pitch="38" RiffPosition="7.4375" Velocity="105" />
      <note Length="0.0625" Pitch="38" RiffPosition="7.5" Velocity="0" />
      <note Length="0.0625" Pitch="38" RiffPosition="7.5625" Velocity="105" />
      <note Length="0.0625" Pitch="38" RiffPosition="7.625" Velocity="0" />
      <note Length="0.0625" Pitch="38" RiffPosition="7.6875" Velocity="105" />
      <note Length="0.0625" Pitch="38" RiffPosition="7.75" Velocity="0" />
      <note Length="0.0625" Pitch="38" RiffPosition="7.8125" Velocity="105" />
      <note Length="0.0625" Pitch="38" RiffPosition="7.875" Velocity="0" />
      <note Length="0.0625" Pitch="38" RiffPosition="7.9375" Velocity="105" />
    </riff>
    <riff IsDrum="True" MidiInstrument="0" Tempo="79" Length="8">
      <note Length="0.0625" Pitch="35" RiffPosition="0" Velocity="127" />
      <note Length="0.0625" Pitch="35" RiffPosition="0.0625" Velocity="127" />
      <note Length="0.046875" Pitch="35" RiffPosition="0.125" Velocity="127" />
      <note Length="0.046875" Pitch="35" RiffPosition="0.171875" Velocity="127" />
      <note Length="0.015625" Pitch="35" RiffPosition="0.21875" Velocity="127" />
      <note Length="0.015625" Pitch="35" RiffPosition="0.234375" Velocity="127" />
      <note Length="0.046875" Pitch="35" RiffPosition="0.25" Velocity="127" />
      <note Length="0.046875" Pitch="35" RiffPosition="0.296875" Velocity="127" />
      <note Length="0.015625" Pitch="35" RiffPosition="0.34375" Velocity="127" />
      <note Length="0.015625" Pitch="35" RiffPosition="0.359375" Velocity="127" />
      <note Length="0.03125" Pitch="35" RiffPosition="0.375" Velocity="127" />
      <note Length="0.03125" Pitch="35" RiffPosition="0.40625" Velocity="127" />
      <note Length="0.03125" Pitch="35" RiffPosition="0.4375" Velocity="127" />
      <note Length="0.03125" Pitch="35" RiffPosition="0.46875" Velocity="127" />
      <note Length="0.0625" Pitch="35" RiffPosition="0.5" Velocity="127" />
      <note Length="0.0625" Pitch="35" RiffPosition="0.5625" Velocity="127" />
      <note Length="0.046875" Pitch="35" RiffPosition="0.625" Velocity="127" />
      <note Length="0.046875" Pitch="35" RiffPosition="0.671875" Velocity="127" />
      <note Length="0.015625" Pitch="35" RiffPosition="0.71875" Velocity="127" />
      <note Length="0.015625" Pitch="35" RiffPosition="0.734375" Velocity="127" />
      <note Length="0.046875" Pitch="35" RiffPosition="0.75" Velocity="127" />
      <note Length="0.046875" Pitch="35" RiffPosition="0.796875" Velocity="127" />
      <note Length="0.015625" Pitch="35" RiffPosition="0.84375" Velocity="127" />
      <note Length="0.015625" Pitch="35" RiffPosition="0.859375" Velocity="127" />
      <note Length="0.03125" Pitch="35" RiffPosition="0.875" Velocity="127" />
      <note Length="0.03125" Pitch="35" RiffPosition="0.90625" Velocity="127" />
      <note Length="0.03125" Pitch="35" RiffPosition="0.9375" Velocity="127" />
      <note Length="0.03125" Pitch="35" RiffPosition="0.96875" Velocity="127" />
      <note Length="0.0625" Pitch="35" RiffPosition="1" Velocity="127" />
      <note Length="0.0625" Pitch="35" RiffPosition="1.0625" Velocity="127" />
      <note Length="0.046875" Pitch="35" RiffPosition="1.125" Velocity="127" />
      <note Length="0.046875" Pitch="35" RiffPosition="1.171875" Velocity="127" />
      <note Length="0.015625" Pitch="35" RiffPosition="1.21875" Velocity="127" />
      <note Length="0.015625" Pitch="35" RiffPosition="1.234375" Velocity="127" />
      <note Length="0.046875" Pitch="35" RiffPosition="1.25" Velocity="127" />
      <note Length="0.046875" Pitch="35" RiffPosition="1.296875" Velocity="127" />
      <note Length="0.015625" Pitch="35" RiffPosition="1.34375" Velocity="127" />
      <note Length="0.015625" Pitch="35" RiffPosition="1.359375" Velocity="127" />
      <note Length="0.03125" Pitch="35" RiffPosition="1.375" Velocity="127" />
      <note Length="0.03125" Pitch="35" RiffPosition="1.40625" Velocity="127" />
      <note Length="0.03125" Pitch="35" RiffPosition="1.4375" Velocity="127" />
      <note Length="0.03125" Pitch="35" RiffPosition="1.46875" Velocity="127" />
      <note Length="0.0625" Pitch="35" RiffPosition="1.5" Velocity="127" />
      <note Length="0.0625" Pitch="35" RiffPosition="1.5625" Velocity="127" />
      <note Length="0.046875" Pitch="35" RiffPosition="1.625" Velocity="127" />
      <note Length="0.046875" Pitch="35" RiffPosition="1.671875" Velocity="127" />
      <note Length="0.015625" Pitch="35" RiffPosition="1.71875" Velocity="127" />
      <note Length="0.015625" Pitch="35" RiffPosition="1.734375" Velocity="127" />
      <note Length="0.046875" Pitch="35" RiffPosition="1.75" Velocity="127" />
      <note Length="0.046875" Pitch="35" RiffPosition="1.796875" Velocity="127" />
      <note Length="0.015625" Pitch="35" RiffPosition="1.84375" Velocity="127" />
      <note Length="0.015625" Pitch="35" RiffPosition="1.859375" Velocity="127" />
      <note Length="0.03125" Pitch="35" RiffPosition="1.875" Velocity="127" />
      <note Length="0.03125" Pitch="35" RiffPosition="1.90625" Velocity="127" />
      <note Length="0.03125" Pitch="35" RiffPosition="1.9375" Velocity="127" />
      <note Length="0.03125" Pitch="35" RiffPosition="1.96875" Velocity="127" />
      <note Length="0.0625" Pitch="35" RiffPosition="2" Velocity="0" />
      <note Length="0.0625" Pitch="35" RiffPosition="2.0625" Velocity="0" />
      <note Length="0.046875" Pitch="35" RiffPosition="2.125" Velocity="0" />
      <note Length="0.046875" Pitch="35" RiffPosition="2.171875" Velocity="0" />
      <note Length="0.015625" Pitch="35" RiffPosition="2.21875" Velocity="0" />
      <note Length="0.015625" Pitch="35" RiffPosition="2.234375" Velocity="0" />
      <note Length="0.046875" Pitch="35" RiffPosition="2.25" Velocity="0" />
      <note Length="0.046875" Pitch="35" RiffPosition="2.296875" Velocity="0" />
      <note Length="0.015625" Pitch="35" RiffPosition="2.34375" Velocity="0" />
      <note Length="0.015625" Pitch="35" RiffPosition="2.359375" Velocity="0" />
      <note Length="0.03125" Pitch="35" RiffPosition="2.375" Velocity="0" />
      <note Length="0.03125" Pitch="35" RiffPosition="2.40625" Velocity="0" />
      <note Length="0.03125" Pitch="35" RiffPosition="2.4375" Velocity="0" />
      <note Length="0.03125" Pitch="35" RiffPosition="2.46875" Velocity="0" />
      <note Length="0.0625" Pitch="35" RiffPosition="2.5" Velocity="0" />
      <note Length="0.0625" Pitch="35" RiffPosition="2.5625" Velocity="0" />
      <note Length="0.046875" Pitch="35" RiffPosition="2.625" Velocity="0" />
      <note Length="0.046875" Pitch="35" RiffPosition="2.671875" Velocity="0" />
      <note Length="0.015625" Pitch="35" RiffPosition="2.71875" Velocity="0" />
      <note Length="0.015625" Pitch="35" RiffPosition="2.734375" Velocity="0" />
      <note Length="0.046875" Pitch="35" RiffPosition="2.75" Velocity="0" />
      <note Length="0.046875" Pitch="35" RiffPosition="2.796875" Velocity="0" />
      <note Length="0.015625" Pitch="35" RiffPosition="2.84375" Velocity="0" />
      <note Length="0.015625" Pitch="35" RiffPosition="2.859375" Velocity="0" />
      <note Length="0.03125" Pitch="35" RiffPosition="2.875" Velocity="0" />
      <note Length="0.03125" Pitch="35" RiffPosition="2.90625" Velocity="0" />
      <note Length="0.03125" Pitch="35" RiffPosition="2.9375" Velocity="0" />
      <note Length="0.03125" Pitch="35" RiffPosition="2.96875" Velocity="0" />
      <note Length="0.0625" Pitch="35" RiffPosition="3" Velocity="0" />
      <note Length="0.0625" Pitch="35" RiffPosition="3.0625" Velocity="0" />
      <note Length="0.046875" Pitch="35" RiffPosition="3.125" Velocity="0" />
      <note Length="0.046875" Pitch="35" RiffPosition="3.171875" Velocity="0" />
      <note Length="0.015625" Pitch="35" RiffPosition="3.21875" Velocity="0" />
      <note Length="0.015625" Pitch="35" RiffPosition="3.234375" Velocity="0" />
      <note Length="0.046875" Pitch="35" RiffPosition="3.25" Velocity="0" />
      <note Length="0.046875" Pitch="35" RiffPosition="3.296875" Velocity="0" />
      <note Length="0.015625" Pitch="35" RiffPosition="3.34375" Velocity="0" />
      <note Length="0.015625" Pitch="35" RiffPosition="3.359375" Velocity="0" />
      <note Length="0.03125" Pitch="35" RiffPosition="3.375" Velocity="0" />
      <note Length="0.03125" Pitch="35" RiffPosition="3.40625" Velocity="0" />
      <note Length="0.03125" Pitch="35" RiffPosition="3.4375" Velocity="0" />
      <note Length="0.03125" Pitch="35" RiffPosition="3.46875" Velocity="0" />
      <note Length="0.0625" Pitch="35" RiffPosition="3.5" Velocity="0" />
      <note Length="0.0625" Pitch="35" RiffPosition="3.5625" Velocity="0" />
      <note Length="0.046875" Pitch="35" RiffPosition="3.625" Velocity="0" />
      <note Length="0.046875" Pitch="35" RiffPosition="3.671875" Velocity="0" />
      <note Length="0.015625" Pitch="35" RiffPosition="3.71875" Velocity="0" />
      <note Length="0.015625" Pitch="35" RiffPosition="3.734375" Velocity="0" />
      <note Length="0.046875" Pitch="35" RiffPosition="3.75" Velocity="0" />
      <note Length="0.046875" Pitch="35" RiffPosition="3.796875" Velocity="0" />
      <note Length="0.015625" Pitch="35" RiffPosition="3.84375" Velocity="0" />
      <note Length="0.015625" Pitch="35" RiffPosition="3.859375" Velocity="0" />
      <note Length="0.03125" Pitch="35" RiffPosition="3.875" Velocity="0" />
      <note Length="0.03125" Pitch="35" RiffPosition="3.90625" Velocity="0" />
      <note Length="0.03125" Pitch="35" RiffPosition="3.9375" Velocity="0" />
      <note Length="0.03125" Pitch="35" RiffPosition="3.96875" Velocity="0" />
      <note Length="0.0625" Pitch="35" RiffPosition="4" Velocity="0" />
      <note Length="0.0625" Pitch="35" RiffPosition="4.0625" Velocity="0" />
      <note Length="0.046875" Pitch="35" RiffPosition="4.125" Velocity="0" />
      <note Length="0.046875" Pitch="35" RiffPosition="4.171875" Velocity="0" />
      <note Length="0.015625" Pitch="35" RiffPosition="4.21875" Velocity="0" />
      <note Length="0.015625" Pitch="35" RiffPosition="4.234375" Velocity="0" />
      <note Length="0.046875" Pitch="35" RiffPosition="4.25" Velocity="0" />
      <note Length="0.046875" Pitch="35" RiffPosition="4.296875" Velocity="0" />
      <note Length="0.015625" Pitch="35" RiffPosition="4.34375" Velocity="0" />
      <note Length="0.015625" Pitch="35" RiffPosition="4.359375" Velocity="0" />
      <note Length="0.03125" Pitch="35" RiffPosition="4.375" Velocity="0" />
      <note Length="0.03125" Pitch="35" RiffPosition="4.40625" Velocity="0" />
      <note Length="0.03125" Pitch="35" RiffPosition="4.4375" Velocity="0" />
      <note Length="0.03125" Pitch="35" RiffPosition="4.46875" Velocity="0" />
      <note Length="0.0625" Pitch="35" RiffPosition="4.5" Velocity="0" />
      <note Length="0.0625" Pitch="35" RiffPosition="4.5625" Velocity="0" />
      <note Length="0.046875" Pitch="35" RiffPosition="4.625" Velocity="0" />
      <note Length="0.046875" Pitch="35" RiffPosition="4.671875" Velocity="0" />
      <note Length="0.015625" Pitch="35" RiffPosition="4.71875" Velocity="0" />
      <note Length="0.015625" Pitch="35" RiffPosition="4.734375" Velocity="0" />
      <note Length="0.046875" Pitch="35" RiffPosition="4.75" Velocity="0" />
      <note Length="0.046875" Pitch="35" RiffPosition="4.796875" Velocity="0" />
      <note Length="0.015625" Pitch="35" RiffPosition="4.84375" Velocity="0" />
      <note Length="0.015625" Pitch="35" RiffPosition="4.859375" Velocity="0" />
      <note Length="0.03125" Pitch="35" RiffPosition="4.875" Velocity="0" />
      <note Length="0.03125" Pitch="35" RiffPosition="4.90625" Velocity="0" />
      <note Length="0.03125" Pitch="35" RiffPosition="4.9375" Velocity="0" />
      <note Length="0.03125" Pitch="35" RiffPosition="4.96875" Velocity="0" />
      <note Length="0.0625" Pitch="35" RiffPosition="5" Velocity="0" />
      <note Length="0.0625" Pitch="35" RiffPosition="5.0625" Velocity="0" />
      <note Length="0.046875" Pitch="35" RiffPosition="5.125" Velocity="0" />
      <note Length="0.046875" Pitch="35" RiffPosition="5.171875" Velocity="0" />
      <note Length="0.015625" Pitch="35" RiffPosition="5.21875" Velocity="0" />
      <note Length="0.015625" Pitch="35" RiffPosition="5.234375" Velocity="0" />
      <note Length="0.046875" Pitch="35" RiffPosition="5.25" Velocity="0" />
      <note Length="0.046875" Pitch="35" RiffPosition="5.296875" Velocity="0" />
      <note Length="0.015625" Pitch="35" RiffPosition="5.34375" Velocity="0" />
      <note Length="0.015625" Pitch="35" RiffPosition="5.359375" Velocity="0" />
      <note Length="0.03125" Pitch="35" RiffPosition="5.375" Velocity="0" />
      <note Length="0.03125" Pitch="35" RiffPosition="5.40625" Velocity="0" />
      <note Length="0.03125" Pitch="35" RiffPosition="5.4375" Velocity="0" />
      <note Length="0.03125" Pitch="35" RiffPosition="5.46875" Velocity="0" />
      <note Length="0.0625" Pitch="35" RiffPosition="5.5" Velocity="0" />
      <note Length="0.0625" Pitch="35" RiffPosition="5.5625" Velocity="0" />
      <note Length="0.046875" Pitch="35" RiffPosition="5.625" Velocity="0" />
      <note Length="0.046875" Pitch="35" RiffPosition="5.671875" Velocity="0" />
      <note Length="0.015625" Pitch="35" RiffPosition="5.71875" Velocity="0" />
      <note Length="0.015625" Pitch="35" RiffPosition="5.734375" Velocity="0" />
      <note Length="0.046875" Pitch="35" RiffPosition="5.75" Velocity="0" />
      <note Length="0.046875" Pitch="35" RiffPosition="5.796875" Velocity="0" />
      <note Length="0.015625" Pitch="35" RiffPosition="5.84375" Velocity="0" />
      <note Length="0.015625" Pitch="35" RiffPosition="5.859375" Velocity="0" />
      <note Length="0.03125" Pitch="35" RiffPosition="5.875" Velocity="0" />
      <note Length="0.03125" Pitch="35" RiffPosition="5.90625" Velocity="0" />
      <note Length="0.03125" Pitch="35" RiffPosition="5.9375" Velocity="0" />
      <note Length="0.03125" Pitch="35" RiffPosition="5.96875" Velocity="0" />
      <note Length="0.0625" Pitch="35" RiffPosition="6" Velocity="127" />
      <note Length="0.0625" Pitch="35" RiffPosition="6.0625" Velocity="127" />
      <note Length="0.046875" Pitch="35" RiffPosition="6.125" Velocity="127" />
      <note Length="0.046875" Pitch="35" RiffPosition="6.171875" Velocity="127" />
      <note Length="0.015625" Pitch="35" RiffPosition="6.21875" Velocity="127" />
      <note Length="0.015625" Pitch="35" RiffPosition="6.234375" Velocity="127" />
      <note Length="0.046875" Pitch="35" RiffPosition="6.25" Velocity="127" />
      <note Length="0.046875" Pitch="35" RiffPosition="6.296875" Velocity="127" />
      <note Length="0.015625" Pitch="35" RiffPosition="6.34375" Velocity="127" />
      <note Length="0.015625" Pitch="35" RiffPosition="6.359375" Velocity="127" />
      <note Length="0.03125" Pitch="35" RiffPosition="6.375" Velocity="127" />
      <note Length="0.03125" Pitch="35" RiffPosition="6.40625" Velocity="127" />
      <note Length="0.03125" Pitch="35" RiffPosition="6.4375" Velocity="127" />
      <note Length="0.03125" Pitch="35" RiffPosition="6.46875" Velocity="127" />
      <note Length="0.0625" Pitch="35" RiffPosition="6.5" Velocity="127" />
      <note Length="0.0625" Pitch="35" RiffPosition="6.5625" Velocity="127" />
      <note Length="0.046875" Pitch="35" RiffPosition="6.625" Velocity="127" />
      <note Length="0.046875" Pitch="35" RiffPosition="6.671875" Velocity="127" />
      <note Length="0.015625" Pitch="35" RiffPosition="6.71875" Velocity="127" />
      <note Length="0.015625" Pitch="35" RiffPosition="6.734375" Velocity="127" />
      <note Length="0.046875" Pitch="35" RiffPosition="6.75" Velocity="127" />
      <note Length="0.046875" Pitch="35" RiffPosition="6.796875" Velocity="127" />
      <note Length="0.015625" Pitch="35" RiffPosition="6.84375" Velocity="127" />
      <note Length="0.015625" Pitch="35" RiffPosition="6.859375" Velocity="127" />
      <note Length="0.03125" Pitch="35" RiffPosition="6.875" Velocity="127" />
      <note Length="0.03125" Pitch="35" RiffPosition="6.90625" Velocity="127" />
      <note Length="0.03125" Pitch="35" RiffPosition="6.9375" Velocity="127" />
      <note Length="0.03125" Pitch="35" RiffPosition="6.96875" Velocity="127" />
      <note Length="0.0625" Pitch="35" RiffPosition="7" Velocity="127" />
      <note Length="0.0625" Pitch="35" RiffPosition="7.0625" Velocity="127" />
      <note Length="0.046875" Pitch="35" RiffPosition="7.125" Velocity="127" />
      <note Length="0.046875" Pitch="35" RiffPosition="7.171875" Velocity="127" />
      <note Length="0.015625" Pitch="35" RiffPosition="7.21875" Velocity="127" />
      <note Length="0.015625" Pitch="35" RiffPosition="7.234375" Velocity="127" />
      <note Length="0.046875" Pitch="35" RiffPosition="7.25" Velocity="127" />
      <note Length="0.046875" Pitch="35" RiffPosition="7.296875" Velocity="127" />
      <note Length="0.015625" Pitch="35" RiffPosition="7.34375" Velocity="127" />
      <note Length="0.015625" Pitch="35" RiffPosition="7.359375" Velocity="127" />
      <note Length="0.03125" Pitch="35" RiffPosition="7.375" Velocity="127" />
      <note Length="0.03125" Pitch="35" RiffPosition="7.40625" Velocity="127" />
      <note Length="0.03125" Pitch="35" RiffPosition="7.4375" Velocity="127" />
      <note Length="0.03125" Pitch="35" RiffPosition="7.46875" Velocity="127" />
      <note Length="0.0625" Pitch="35" RiffPosition="7.5" Velocity="127" />
      <note Length="0.0625" Pitch="35" RiffPosition="7.5625" Velocity="127" />
      <note Length="0.046875" Pitch="35" RiffPosition="7.625" Velocity="127" />
      <note Length="0.046875" Pitch="35" RiffPosition="7.671875" Velocity="127" />
      <note Length="0.015625" Pitch="35" RiffPosition="7.71875" Velocity="127" />
      <note Length="0.015625" Pitch="35" RiffPosition="7.734375" Velocity="127" />
      <note Length="0.046875" Pitch="35" RiffPosition="7.75" Velocity="127" />
      <note Length="0.046875" Pitch="35" RiffPosition="7.796875" Velocity="127" />
      <note Length="0.015625" Pitch="35" RiffPosition="7.84375" Velocity="127" />
      <note Length="0.015625" Pitch="35" RiffPosition="7.859375" Velocity="127" />
      <note Length="0.03125" Pitch="35" RiffPosition="7.875" Velocity="127" />
      <note Length="0.03125" Pitch="35" RiffPosition="7.90625" Velocity="127" />
      <note Length="0.03125" Pitch="35" RiffPosition="7.9375" Velocity="127" />
      <note Length="0.03125" Pitch="35" RiffPosition="7.96875" Velocity="127" />
    </riff>
    <riff IsDrum="False" MidiInstrument="104" Tempo="80" Length="8">
      <note Length="0.09375" Pitch="61" RiffPosition="0" Velocity="0" />
      <note Length="0.09375" Pitch="63" RiffPosition="0.09375" Velocity="0" />
      <note Length="0.0625" Pitch="68" RiffPosition="0.1875" Velocity="0" />
      <note Length="0.046875" Pitch="42" RiffPosition="0.25" Velocity="0" />
      <note Length="0.015625" Pitch="49" RiffPosition="0.296875" Velocity="0" />
      <note Length="0.09375" Pitch="49" RiffPosition="0.3125" Velocity="0" />
      <note Length="0.09375" Pitch="85" RiffPosition="0.40625" Velocity="0" />
      <note Length="0.09375" Pitch="61" RiffPosition="0.5" Velocity="0" />
      <note Length="0.09375" Pitch="63" RiffPosition="0.59375" Velocity="0" />
      <note Length="0.0625" Pitch="66" RiffPosition="0.6875" Velocity="0" />
      <note Length="0.046875" Pitch="42" RiffPosition="0.75" Velocity="0" />
      <note Length="0.015625" Pitch="51" RiffPosition="0.796875" Velocity="0" />
      <note Length="0.09375" Pitch="51" RiffPosition="0.8125" Velocity="0" />
      <note Length="0.09375" Pitch="85" RiffPosition="0.90625" Velocity="0" />
      <note Length="0.09375" Pitch="61" RiffPosition="1" Velocity="0" />
      <note Length="0.09375" Pitch="63" RiffPosition="1.09375" Velocity="0" />
      <note Length="0.0625" Pitch="68" RiffPosition="1.1875" Velocity="0" />
      <note Length="0.046875" Pitch="42" RiffPosition="1.25" Velocity="0" />
      <note Length="0.015625" Pitch="49" RiffPosition="1.296875" Velocity="0" />
      <note Length="0.09375" Pitch="49" RiffPosition="1.3125" Velocity="0" />
      <note Length="0.09375" Pitch="85" RiffPosition="1.40625" Velocity="0" />
      <note Length="0.09375" Pitch="61" RiffPosition="1.5" Velocity="0" />
      <note Length="0.09375" Pitch="63" RiffPosition="1.59375" Velocity="0" />
      <note Length="0.0625" Pitch="66" RiffPosition="1.6875" Velocity="0" />
      <note Length="0.046875" Pitch="42" RiffPosition="1.75" Velocity="0" />
      <note Length="0.015625" Pitch="51" RiffPosition="1.796875" Velocity="0" />
      <note Length="0.09375" Pitch="51" RiffPosition="1.8125" Velocity="0" />
      <note Length="0.09375" Pitch="85" RiffPosition="1.90625" Velocity="0" />
      <note Length="0.09375" Pitch="61" RiffPosition="2" Velocity="38" />
      <note Length="0.09375" Pitch="63" RiffPosition="2.09375" Velocity="67" />
      <note Length="0.0625" Pitch="68" RiffPosition="2.1875" Velocity="89" />
      <note Length="0.046875" Pitch="42" RiffPosition="2.25" Velocity="42" />
      <note Length="0.015625" Pitch="49" RiffPosition="2.296875" Velocity="87" />
      <note Length="0.09375" Pitch="49" RiffPosition="2.3125" Velocity="99" />
      <note Length="0.09375" Pitch="85" RiffPosition="2.40625" Velocity="57" />
      <note Length="0.09375" Pitch="61" RiffPosition="2.5" Velocity="40" />
      <note Length="0.09375" Pitch="63" RiffPosition="2.59375" Velocity="70" />
      <note Length="0.0625" Pitch="66" RiffPosition="2.6875" Velocity="86" />
      <note Length="0.046875" Pitch="42" RiffPosition="2.75" Velocity="39" />
      <note Length="0.015625" Pitch="51" RiffPosition="2.796875" Velocity="90" />
      <note Length="0.09375" Pitch="51" RiffPosition="2.8125" Velocity="97" />
      <note Length="0.09375" Pitch="85" RiffPosition="2.90625" Velocity="54" />
      <note Length="0.09375" Pitch="61" RiffPosition="3" Velocity="37" />
      <note Length="0.09375" Pitch="63" RiffPosition="3.09375" Velocity="67" />
      <note Length="0.0625" Pitch="68" RiffPosition="3.1875" Velocity="88" />
      <note Length="0.046875" Pitch="42" RiffPosition="3.25" Velocity="41" />
      <note Length="0.015625" Pitch="49" RiffPosition="3.296875" Velocity="88" />
      <note Length="0.09375" Pitch="49" RiffPosition="3.3125" Velocity="95" />
      <note Length="0.09375" Pitch="85" RiffPosition="3.40625" Velocity="56" />
      <note Length="0.09375" Pitch="61" RiffPosition="3.5" Velocity="39" />
      <note Length="0.09375" Pitch="63" RiffPosition="3.59375" Velocity="70" />
      <note Length="0.0625" Pitch="66" RiffPosition="3.6875" Velocity="90" />
      <note Length="0.046875" Pitch="42" RiffPosition="3.75" Velocity="38" />
      <note Length="0.015625" Pitch="51" RiffPosition="3.796875" Velocity="91" />
      <note Length="0.09375" Pitch="51" RiffPosition="3.8125" Velocity="98" />
      <note Length="0.09375" Pitch="85" RiffPosition="3.90625" Velocity="53" />
      <note Length="0.09375" Pitch="61" RiffPosition="4" Velocity="0" />
      <note Length="0.09375" Pitch="63" RiffPosition="4.09375" Velocity="0" />
      <note Length="0.0625" Pitch="68" RiffPosition="4.1875" Velocity="0" />
      <note Length="0.046875" Pitch="42" RiffPosition="4.25" Velocity="0" />
      <note Length="0.015625" Pitch="49" RiffPosition="4.296875" Velocity="0" />
      <note Length="0.09375" Pitch="49" RiffPosition="4.3125" Velocity="0" />
      <note Length="0.09375" Pitch="85" RiffPosition="4.40625" Velocity="0" />
      <note Length="0.09375" Pitch="61" RiffPosition="4.5" Velocity="0" />
      <note Length="0.09375" Pitch="63" RiffPosition="4.59375" Velocity="0" />
      <note Length="0.0625" Pitch="66" RiffPosition="4.6875" Velocity="0" />
      <note Length="0.046875" Pitch="42" RiffPosition="4.75" Velocity="0" />
      <note Length="0.015625" Pitch="51" RiffPosition="4.796875" Velocity="0" />
      <note Length="0.09375" Pitch="51" RiffPosition="4.8125" Velocity="0" />
      <note Length="0.09375" Pitch="85" RiffPosition="4.90625" Velocity="0" />
      <note Length="0.09375" Pitch="61" RiffPosition="5" Velocity="0" />
      <note Length="0.09375" Pitch="63" RiffPosition="5.09375" Velocity="0" />
      <note Length="0.0625" Pitch="68" RiffPosition="5.1875" Velocity="0" />
      <note Length="0.046875" Pitch="42" RiffPosition="5.25" Velocity="0" />
      <note Length="0.015625" Pitch="49" RiffPosition="5.296875" Velocity="0" />
      <note Length="0.09375" Pitch="49" RiffPosition="5.3125" Velocity="0" />
      <note Length="0.09375" Pitch="85" RiffPosition="5.40625" Velocity="0" />
      <note Length="0.09375" Pitch="61" RiffPosition="5.5" Velocity="0" />
      <note Length="0.09375" Pitch="63" RiffPosition="5.59375" Velocity="0" />
      <note Length="0.0625" Pitch="66" RiffPosition="5.6875" Velocity="0" />
      <note Length="0.046875" Pitch="42" RiffPosition="5.75" Velocity="0" />
      <note Length="0.015625" Pitch="51" RiffPosition="5.796875" Velocity="0" />
      <note Length="0.09375" Pitch="51" RiffPosition="5.8125" Velocity="0" />
      <note Length="0.09375" Pitch="85" RiffPosition="5.90625" Velocity="0" />
      <note Length="0.09375" Pitch="61" RiffPosition="6" Velocity="40" />
      <note Length="0.09375" Pitch="63" RiffPosition="6.09375" Velocity="70" />
      <note Length="0.0625" Pitch="68" RiffPosition="6.1875" Velocity="86" />
      <note Length="0.046875" Pitch="42" RiffPosition="6.25" Velocity="39" />
      <note Length="0.015625" Pitch="49" RiffPosition="6.296875" Velocity="90" />
      <note Length="0.09375" Pitch="49" RiffPosition="6.3125" Velocity="97" />
      <note Length="0.09375" Pitch="85" RiffPosition="6.40625" Velocity="54" />
      <note Length="0.09375" Pitch="61" RiffPosition="6.5" Velocity="37" />
      <note Length="0.09375" Pitch="63" RiffPosition="6.59375" Velocity="68" />
      <note Length="0.0625" Pitch="66" RiffPosition="6.6875" Velocity="88" />
      <note Length="0.046875" Pitch="42" RiffPosition="6.75" Velocity="41" />
      <note Length="0.015625" Pitch="51" RiffPosition="6.796875" Velocity="88" />
      <note Length="0.09375" Pitch="51" RiffPosition="6.8125" Velocity="95" />
      <note Length="0.09375" Pitch="85" RiffPosition="6.90625" Velocity="56" />
      <note Length="0.09375" Pitch="61" RiffPosition="7" Velocity="39" />
      <note Length="0.09375" Pitch="63" RiffPosition="7.09375" Velocity="71" />
      <note Length="0.0625" Pitch="68" RiffPosition="7.1875" Velocity="90" />
      <note Length="0.046875" Pitch="42" RiffPosition="7.25" Velocity="38" />
      <note Length="0.015625" Pitch="49" RiffPosition="7.296875" Velocity="91" />
      <note Length="0.09375" Pitch="49" RiffPosition="7.3125" Velocity="98" />
      <note Length="0.09375" Pitch="85" RiffPosition="7.40625" Velocity="53" />
      <note Length="0.09375" Pitch="61" RiffPosition="7.5" Velocity="42" />
      <note Length="0.09375" Pitch="63" RiffPosition="7.59375" Velocity="68" />
      <note Length="0.0625" Pitch="66" RiffPosition="7.6875" Velocity="87" />
      <note Length="0.046875" Pitch="42" RiffPosition="7.75" Velocity="40" />
      <note Length="0.015625" Pitch="51" RiffPosition="7.796875" Velocity="89" />
      <note Length="0.09375" Pitch="51" RiffPosition="7.8125" Velocity="96" />
      <note Length="0.09375" Pitch="85" RiffPosition="7.90625" Velocity="55" />
    </riff>
    <riff IsDrum="False" MidiInstrument="14" Tempo="93" Length="8">
      <note Length="0.0625" Pitch="81" RiffPosition="0" Velocity="0" />
      <note Length="0.0625" Pitch="73" RiffPosition="0.0625" Velocity="0" />
      <note Length="0.375" Pitch="63" RiffPosition="0.125" Velocity="0" />
      <note Length="0.0625" Pitch="56" RiffPosition="0.5" Velocity="0" />
      <note Length="0.0625" Pitch="51" RiffPosition="0.5625" Velocity="0" />
      <note Length="0.0625" Pitch="63" RiffPosition="0.625" Velocity="0" />
      <note Length="0.125" Pitch="61" RiffPosition="0.6875" Velocity="0" />
      <note Length="0.0625" Pitch="63" RiffPosition="0.8125" Velocity="0" />
      <note Length="0.03125" Pitch="66" RiffPosition="0.875" Velocity="0" />
      <note Length="0.09375" Pitch="63" RiffPosition="0.90625" Velocity="0" />
      <note Length="0.0625" Pitch="81" RiffPosition="1" Velocity="0" />
      <note Length="0.0625" Pitch="73" RiffPosition="1.0625" Velocity="0" />
      <note Length="0.125" Pitch="63" RiffPosition="1.125" Velocity="0" />
      <note Length="0.0625" Pitch="61" RiffPosition="1.25" Velocity="0" />
      <note Length="0.0625" Pitch="69" RiffPosition="1.3125" Velocity="0" />
      <note Length="0.0625" Pitch="66" RiffPosition="1.375" Velocity="0" />
      <note Length="0.0625" Pitch="44" RiffPosition="1.4375" Velocity="0" />
      <note Length="0.0416666666666667" Pitch="56" RiffPosition="1.5" Velocity="0" />
      <note Length="0.0416666666666667" Pitch="61" RiffPosition="1.54166666666667" Velocity="0" />
      <note Length="0.0416666666666667" Pitch="49" RiffPosition="1.58333333333333" Velocity="0" />
      <note Length="0.0625" Pitch="63" RiffPosition="1.625" Velocity="0" />
      <note Length="0.0625" Pitch="61" RiffPosition="1.6875" Velocity="0" />
      <note Length="0.125" Pitch="85" RiffPosition="1.75" Velocity="0" />
      <note Length="0.125" Pitch="66" RiffPosition="1.875" Velocity="0" />
      <note Length="0.0833333333333333" Pitch="81" RiffPosition="2" Velocity="35" />
      <note Length="0.0833333333333333" Pitch="69" RiffPosition="2.08333333333333" Velocity="6" />
      <note Length="0.0833333333333333" Pitch="45" RiffPosition="2.16666666666667" Velocity="90" />
      <note Length="0.0833333333333333" Pitch="61" RiffPosition="2.25" Velocity="26" />
      <note Length="0.166666666666667" Pitch="63" RiffPosition="2.33333333333333" Velocity="10" />
      <note Length="0.0833333333333333" Pitch="56" RiffPosition="2.5" Velocity="49" />
      <note Length="0.0833333333333333" Pitch="49" RiffPosition="2.58333333333333" Velocity="8" />
      <note Length="0.0833333333333333" Pitch="63" RiffPosition="2.66666666666667" Velocity="76" />
      <note Length="0.0833333333333333" Pitch="85" RiffPosition="2.75" Velocity="9" />
      <note Length="0.0833333333333333" Pitch="63" RiffPosition="2.83333333333333" Velocity="24" />
      <note Length="0.0833333333333333" Pitch="56" RiffPosition="2.91666666666667" Velocity="3" />
      <note Length="0.333333333333333" Pitch="81" RiffPosition="3" Velocity="63" />
      <note Length="0.0416666666666667" Pitch="63" RiffPosition="3.33333333333333" Velocity="38" />
      <note Length="0.0416666666666667" Pitch="66" RiffPosition="3.375" Velocity="56" />
      <note Length="0.0416666666666667" Pitch="56" RiffPosition="3.41666666666667" Velocity="17" />
      <note Length="0.0416666666666667" Pitch="45" RiffPosition="3.45833333333333" Velocity="48" />
      <note Length="0.166666666666667" Pitch="56" RiffPosition="3.5" Velocity="28" />
      <note Length="0.333333333333333" Pitch="63" RiffPosition="3.66666666666667" Velocity="97" />
      <note Length="0.0625" Pitch="81" RiffPosition="4" Velocity="0" />
      <note Length="0.0625" Pitch="73" RiffPosition="4.0625" Velocity="0" />
      <note Length="0.375" Pitch="63" RiffPosition="4.125" Velocity="0" />
      <note Length="0.0625" Pitch="56" RiffPosition="4.5" Velocity="0" />
      <note Length="0.0625" Pitch="51" RiffPosition="4.5625" Velocity="0" />
      <note Length="0.0625" Pitch="63" RiffPosition="4.625" Velocity="0" />
      <note Length="0.125" Pitch="61" RiffPosition="4.6875" Velocity="0" />
      <note Length="0.0625" Pitch="63" RiffPosition="4.8125" Velocity="0" />
      <note Length="0.03125" Pitch="66" RiffPosition="4.875" Velocity="0" />
      <note Length="0.09375" Pitch="63" RiffPosition="4.90625" Velocity="0" />
      <note Length="0.0625" Pitch="81" RiffPosition="5" Velocity="0" />
      <note Length="0.0625" Pitch="73" RiffPosition="5.0625" Velocity="0" />
      <note Length="0.125" Pitch="63" RiffPosition="5.125" Velocity="0" />
      <note Length="0.0625" Pitch="61" RiffPosition="5.25" Velocity="0" />
      <note Length="0.0625" Pitch="69" RiffPosition="5.3125" Velocity="0" />
      <note Length="0.0625" Pitch="66" RiffPosition="5.375" Velocity="0" />
      <note Length="0.0625" Pitch="44" RiffPosition="5.4375" Velocity="0" />
      <note Length="0.0416666666666667" Pitch="56" RiffPosition="5.5" Velocity="0" />
      <note Length="0.0416666666666667" Pitch="61" RiffPosition="5.54166666666667" Velocity="0" />
      <note Length="0.0416666666666667" Pitch="49" RiffPosition="5.58333333333333" Velocity="0" />
      <note Length="0.0625" Pitch="63" RiffPosition="5.625" Velocity="0" />
      <note Length="0.0625" Pitch="61" RiffPosition="5.6875" Velocity="0" />
      <note Length="0.125" Pitch="85" RiffPosition="5.75" Velocity="0" />
      <note Length="0.125" Pitch="66" RiffPosition="5.875" Velocity="0" />
      <note Length="0.0833333333333333" Pitch="81" RiffPosition="6" Velocity="50" />
      <note Length="0.0833333333333333" Pitch="69" RiffPosition="6.08333333333333" Velocity="8" />
      <note Length="0.0833333333333333" Pitch="45" RiffPosition="6.16666666666667" Velocity="76" />
      <note Length="0.0833333333333333" Pitch="61" RiffPosition="6.25" Velocity="8" />
      <note Length="0.166666666666667" Pitch="63" RiffPosition="6.33333333333333" Velocity="25" />
      <note Length="0.0833333333333333" Pitch="56" RiffPosition="6.5" Velocity="64" />
      <note Length="0.0833333333333333" Pitch="49" RiffPosition="6.58333333333333" Velocity="22" />
      <note Length="0.0833333333333333" Pitch="63" RiffPosition="6.66666666666667" Velocity="111" />
      <note Length="0.0833333333333333" Pitch="85" RiffPosition="6.75" Velocity="6" />
      <note Length="0.0833333333333333" Pitch="63" RiffPosition="6.83333333333333" Velocity="39" />
      <note Length="0.0833333333333333" Pitch="56" RiffPosition="6.91666666666667" Velocity="18" />
      <note Length="0.333333333333333" Pitch="81" RiffPosition="7" Velocity="29" />
      <note Length="0.0416666666666667" Pitch="63" RiffPosition="7.33333333333333" Velocity="53" />
      <note Length="0.0416666666666667" Pitch="66" RiffPosition="7.375" Velocity="70" />
      <note Length="0.0416666666666667" Pitch="56" RiffPosition="7.41666666666667" Velocity="17" />
      <note Length="0.0416666666666667" Pitch="45" RiffPosition="7.45833333333333" Velocity="62" />
      <note Length="0.166666666666667" Pitch="56" RiffPosition="7.5" Velocity="43" />
      <note Length="0.333333333333333" Pitch="63" RiffPosition="7.66666666666667" Velocity="82" />
    </riff>
    <riff IsDrum="False" MidiInstrument="106" Tempo="100" Length="8">
      <note Length="0.015625" Pitch="61" RiffPosition="0" Velocity="0" />
      <note Length="0.015625" Pitch="56" RiffPosition="0.015625" Velocity="0" />
      <note Length="0.0234375" Pitch="56" RiffPosition="0.03125" Velocity="0" />
      <note Length="0.0078125" Pitch="61" RiffPosition="0.0546875" Velocity="0" />
      <note Length="0.0625" Pitch="61" RiffPosition="0.0625" Velocity="0" />
      <note Length="0.0625" Pitch="63" RiffPosition="0.125" Velocity="0" />
      <note Length="0.03125" Pitch="63" RiffPosition="0.1875" Velocity="0" />
      <note Length="0.03125" Pitch="69" RiffPosition="0.21875" Velocity="0" />
      <note Length="0.015625" Pitch="63" RiffPosition="0.25" Velocity="0" />
      <note Length="0.015625" Pitch="63" RiffPosition="0.265625" Velocity="0" />
      <note Length="0.0234375" Pitch="61" RiffPosition="0.28125" Velocity="0" />
      <note Length="0.0078125" Pitch="63" RiffPosition="0.3046875" Velocity="0" />
      <note Length="0.0625" Pitch="63" RiffPosition="0.3125" Velocity="0" />
      <note Length="0.0625" Pitch="63" RiffPosition="0.375" Velocity="0" />
      <note Length="0.03125" Pitch="63" RiffPosition="0.4375" Velocity="0" />
      <note Length="0.03125" Pitch="66" RiffPosition="0.46875" Velocity="0" />
      <note Length="0.015625" Pitch="63" RiffPosition="0.5" Velocity="0" />
      <note Length="0.015625" Pitch="61" RiffPosition="0.515625" Velocity="0" />
      <note Length="0.0234375" Pitch="61" RiffPosition="0.53125" Velocity="0" />
      <note Length="0.0078125" Pitch="61" RiffPosition="0.5546875" Velocity="0" />
      <note Length="0.0625" Pitch="63" RiffPosition="0.5625" Velocity="0" />
      <note Length="0.0625" Pitch="63" RiffPosition="0.625" Velocity="0" />
      <note Length="0.03125" Pitch="63" RiffPosition="0.6875" Velocity="0" />
      <note Length="0.03125" Pitch="66" RiffPosition="0.71875" Velocity="0" />
      <note Length="0.015625" Pitch="63" RiffPosition="0.75" Velocity="0" />
      <note Length="0.015625" Pitch="61" RiffPosition="0.765625" Velocity="0" />
      <note Length="0.0234375" Pitch="61" RiffPosition="0.78125" Velocity="0" />
      <note Length="0.0078125" Pitch="63" RiffPosition="0.8046875" Velocity="0" />
      <note Length="0.0625" Pitch="66" RiffPosition="0.8125" Velocity="0" />
      <note Length="0.0625" Pitch="66" RiffPosition="0.875" Velocity="0" />
      <note Length="0.03125" Pitch="63" RiffPosition="0.9375" Velocity="0" />
      <note Length="0.03125" Pitch="66" RiffPosition="0.96875" Velocity="0" />
      <note Length="0.015625" Pitch="61" RiffPosition="1" Velocity="0" />
      <note Length="0.015625" Pitch="56" RiffPosition="1.015625" Velocity="0" />
      <note Length="0.0234375" Pitch="56" RiffPosition="1.03125" Velocity="0" />
      <note Length="0.0078125" Pitch="61" RiffPosition="1.0546875" Velocity="0" />
      <note Length="0.0625" Pitch="61" RiffPosition="1.0625" Velocity="0" />
      <note Length="0.0625" Pitch="63" RiffPosition="1.125" Velocity="0" />
      <note Length="0.03125" Pitch="63" RiffPosition="1.1875" Velocity="0" />
      <note Length="0.03125" Pitch="69" RiffPosition="1.21875" Velocity="0" />
      <note Length="0.015625" Pitch="63" RiffPosition="1.25" Velocity="0" />
      <note Length="0.015625" Pitch="63" RiffPosition="1.265625" Velocity="0" />
      <note Length="0.0234375" Pitch="61" RiffPosition="1.28125" Velocity="0" />
      <note Length="0.0078125" Pitch="63" RiffPosition="1.3046875" Velocity="0" />
      <note Length="0.0625" Pitch="63" RiffPosition="1.3125" Velocity="0" />
      <note Length="0.0625" Pitch="63" RiffPosition="1.375" Velocity="0" />
      <note Length="0.03125" Pitch="63" RiffPosition="1.4375" Velocity="0" />
      <note Length="0.03125" Pitch="66" RiffPosition="1.46875" Velocity="0" />
      <note Length="0.015625" Pitch="63" RiffPosition="1.5" Velocity="0" />
      <note Length="0.015625" Pitch="61" RiffPosition="1.515625" Velocity="0" />
      <note Length="0.0234375" Pitch="61" RiffPosition="1.53125" Velocity="0" />
      <note Length="0.0078125" Pitch="61" RiffPosition="1.5546875" Velocity="0" />
      <note Length="0.0625" Pitch="63" RiffPosition="1.5625" Velocity="0" />
      <note Length="0.0625" Pitch="63" RiffPosition="1.625" Velocity="0" />
      <note Length="0.03125" Pitch="63" RiffPosition="1.6875" Velocity="0" />
      <note Length="0.03125" Pitch="66" RiffPosition="1.71875" Velocity="0" />
      <note Length="0.015625" Pitch="63" RiffPosition="1.75" Velocity="0" />
      <note Length="0.015625" Pitch="61" RiffPosition="1.765625" Velocity="0" />
      <note Length="0.0234375" Pitch="61" RiffPosition="1.78125" Velocity="0" />
      <note Length="0.0078125" Pitch="63" RiffPosition="1.8046875" Velocity="0" />
      <note Length="0.0625" Pitch="66" RiffPosition="1.8125" Velocity="0" />
      <note Length="0.0625" Pitch="66" RiffPosition="1.875" Velocity="0" />
      <note Length="0.03125" Pitch="63" RiffPosition="1.9375" Velocity="0" />
      <note Length="0.03125" Pitch="66" RiffPosition="1.96875" Velocity="0" />
      <note Length="0.015625" Pitch="61" RiffPosition="2" Velocity="45" />
      <note Length="0.015625" Pitch="56" RiffPosition="2.015625" Velocity="69" />
      <note Length="0.0234375" Pitch="56" RiffPosition="2.03125" Velocity="69" />
      <note Length="0.0078125" Pitch="61" RiffPosition="2.0546875" Velocity="79" />
      <note Length="0.0625" Pitch="61" RiffPosition="2.0625" Velocity="82" />
      <note Length="0.0625" Pitch="63" RiffPosition="2.125" Velocity="63" />
      <note Length="0.03125" Pitch="63" RiffPosition="2.1875" Velocity="46" />
      <note Length="0.03125" Pitch="69" RiffPosition="2.21875" Velocity="32" />
      <note Length="0.015625" Pitch="63" RiffPosition="2.25" Velocity="40" />
      <note Length="0.015625" Pitch="63" RiffPosition="2.265625" Velocity="78" />
      <note Length="0.0234375" Pitch="61" RiffPosition="2.28125" Velocity="85" />
      <note Length="0.0078125" Pitch="63" RiffPosition="2.3046875" Velocity="86" />
      <note Length="0.0625" Pitch="63" RiffPosition="2.3125" Velocity="86" />
      <note Length="0.0625" Pitch="63" RiffPosition="2.375" Velocity="88" />
      <note Length="0.03125" Pitch="63" RiffPosition="2.4375" Velocity="50" />
      <note Length="0.03125" Pitch="66" RiffPosition="2.46875" Velocity="54" />
      <note Length="0.015625" Pitch="63" RiffPosition="2.5" Velocity="40" />
      <note Length="0.015625" Pitch="61" RiffPosition="2.515625" Velocity="35" />
      <note Length="0.0234375" Pitch="61" RiffPosition="2.53125" Velocity="35" />
      <note Length="0.0078125" Pitch="61" RiffPosition="2.5546875" Velocity="45" />
      <note Length="0.0625" Pitch="63" RiffPosition="2.5625" Velocity="77" />
      <note Length="0.0625" Pitch="63" RiffPosition="2.625" Velocity="55" />
      <note Length="0.03125" Pitch="63" RiffPosition="2.6875" Velocity="63" />
      <note Length="0.03125" Pitch="66" RiffPosition="2.71875" Velocity="74" />
      <note Length="0.015625" Pitch="63" RiffPosition="2.75" Velocity="38" />
      <note Length="0.015625" Pitch="61" RiffPosition="2.765625" Velocity="34" />
      <note Length="0.0234375" Pitch="61" RiffPosition="2.78125" Velocity="41" />
      <note Length="0.0078125" Pitch="63" RiffPosition="2.8046875" Velocity="47" />
      <note Length="0.0625" Pitch="66" RiffPosition="2.8125" Velocity="39" />
      <note Length="0.0625" Pitch="66" RiffPosition="2.875" Velocity="70" />
      <note Length="0.03125" Pitch="63" RiffPosition="2.9375" Velocity="58" />
      <note Length="0.03125" Pitch="66" RiffPosition="2.96875" Velocity="33" />
      <note Length="0.015625" Pitch="61" RiffPosition="3" Velocity="55" />
      <note Length="0.015625" Pitch="56" RiffPosition="3.015625" Velocity="60" />
      <note Length="0.0234375" Pitch="56" RiffPosition="3.03125" Velocity="59" />
      <note Length="0.0078125" Pitch="61" RiffPosition="3.0546875" Velocity="39" />
      <note Length="0.0625" Pitch="61" RiffPosition="3.0625" Velocity="43" />
      <note Length="0.0625" Pitch="63" RiffPosition="3.125" Velocity="37" />
      <note Length="0.03125" Pitch="63" RiffPosition="3.1875" Velocity="31" />
      <note Length="0.03125" Pitch="69" RiffPosition="3.21875" Velocity="40" />
      <note Length="0.015625" Pitch="63" RiffPosition="3.25" Velocity="56" />
      <note Length="0.015625" Pitch="63" RiffPosition="3.265625" Velocity="42" />
      <note Length="0.0234375" Pitch="61" RiffPosition="3.28125" Velocity="40" />
      <note Length="0.0078125" Pitch="63" RiffPosition="3.3046875" Velocity="39" />
      <note Length="0.0625" Pitch="63" RiffPosition="3.3125" Velocity="39" />
      <note Length="0.0625" Pitch="63" RiffPosition="3.375" Velocity="37" />
      <note Length="0.03125" Pitch="63" RiffPosition="3.4375" Velocity="74" />
      <note Length="0.03125" Pitch="66" RiffPosition="3.46875" Velocity="71" />
      <note Length="0.015625" Pitch="63" RiffPosition="3.5" Velocity="37" />
      <note Length="0.015625" Pitch="61" RiffPosition="3.515625" Velocity="47" />
      <note Length="0.0234375" Pitch="61" RiffPosition="3.53125" Velocity="47" />
      <note Length="0.0078125" Pitch="61" RiffPosition="3.5546875" Velocity="57" />
      <note Length="0.0625" Pitch="63" RiffPosition="3.5625" Velocity="61" />
      <note Length="0.0625" Pitch="63" RiffPosition="3.625" Velocity="45" />
      <note Length="0.03125" Pitch="63" RiffPosition="3.6875" Velocity="36" />
      <note Length="0.03125" Pitch="66" RiffPosition="3.71875" Velocity="54" />
      <note Length="0.015625" Pitch="63" RiffPosition="3.75" Velocity="90" />
      <note Length="0.015625" Pitch="61" RiffPosition="3.765625" Velocity="74" />
      <note Length="0.0234375" Pitch="61" RiffPosition="3.78125" Velocity="81" />
      <note Length="0.0078125" Pitch="63" RiffPosition="3.8046875" Velocity="81" />
      <note Length="0.0625" Pitch="66" RiffPosition="3.8125" Velocity="56" />
      <note Length="0.0625" Pitch="66" RiffPosition="3.875" Velocity="57" />
      <note Length="0.03125" Pitch="63" RiffPosition="3.9375" Velocity="66" />
      <note Length="0.03125" Pitch="66" RiffPosition="3.96875" Velocity="63" />
      <note Length="0.015625" Pitch="61" RiffPosition="4" Velocity="70" />
      <note Length="0.015625" Pitch="56" RiffPosition="4.015625" Velocity="65" />
      <note Length="0.0234375" Pitch="54" RiffPosition="4.03125" Velocity="65" />
      <note Length="0.0078125" Pitch="61" RiffPosition="4.0546875" Velocity="75" />
      <note Length="0.0625" Pitch="61" RiffPosition="4.0625" Velocity="79" />
      <note Length="0.0625" Pitch="63" RiffPosition="4.125" Velocity="59" />
      <note Length="0.03125" Pitch="63" RiffPosition="4.1875" Velocity="42" />
      <note Length="0.03125" Pitch="69" RiffPosition="4.21875" Velocity="36" />
      <note Length="0.015625" Pitch="63" RiffPosition="4.25" Velocity="43" />
      <note Length="0.015625" Pitch="63" RiffPosition="4.265625" Velocity="82" />
      <note Length="0.0234375" Pitch="61" RiffPosition="4.28125" Velocity="89" />
      <note Length="0.0078125" Pitch="63" RiffPosition="4.3046875" Velocity="90" />
      <note Length="0.0625" Pitch="63" RiffPosition="4.3125" Velocity="61" />
      <note Length="0.0625" Pitch="63" RiffPosition="4.375" Velocity="92" />
      <note Length="0.03125" Pitch="63" RiffPosition="4.4375" Velocity="54" />
      <note Length="0.03125" Pitch="66" RiffPosition="4.46875" Velocity="31" />
      <note Length="0.015625" Pitch="63" RiffPosition="4.5" Velocity="36" />
      <note Length="0.015625" Pitch="61" RiffPosition="4.515625" Velocity="31" />
      <note Length="0.0234375" Pitch="61" RiffPosition="4.53125" Velocity="31" />
      <note Length="0.0078125" Pitch="61" RiffPosition="4.5546875" Velocity="70" />
      <note Length="0.0625" Pitch="63" RiffPosition="4.5625" Velocity="73" />
      <note Length="0.0625" Pitch="63" RiffPosition="4.625" Velocity="51" />
      <note Length="0.03125" Pitch="63" RiffPosition="4.6875" Velocity="60" />
      <note Length="0.03125" Pitch="66" RiffPosition="4.71875" Velocity="71" />
      <note Length="0.015625" Pitch="63" RiffPosition="4.75" Velocity="35" />
      <note Length="0.015625" Pitch="61" RiffPosition="4.765625" Velocity="38" />
      <note Length="0.0234375" Pitch="61" RiffPosition="4.78125" Velocity="45" />
      <note Length="0.0078125" Pitch="63" RiffPosition="4.8046875" Velocity="43" />
      <note Length="0.0625" Pitch="66" RiffPosition="4.8125" Velocity="43" />
      <note Length="0.0625" Pitch="66" RiffPosition="4.875" Velocity="45" />
      <note Length="0.03125" Pitch="63" RiffPosition="4.9375" Velocity="62" />
      <note Length="0.03125" Pitch="66" RiffPosition="4.96875" Velocity="37" />
      <note Length="0.015625" Pitch="61" RiffPosition="5" Velocity="58" />
      <note Length="0.015625" Pitch="56" RiffPosition="5.015625" Velocity="63" />
      <note Length="0.0234375" Pitch="56" RiffPosition="5.03125" Velocity="34" />
      <note Length="0.0078125" Pitch="61" RiffPosition="5.0546875" Velocity="36" />
      <note Length="0.0625" Pitch="61" RiffPosition="5.0625" Velocity="39" />
      <note Length="0.0625" Pitch="63" RiffPosition="5.125" Velocity="40" />
      <note Length="0.03125" Pitch="63" RiffPosition="5.1875" Velocity="54" />
      <note Length="0.03125" Pitch="69" RiffPosition="5.21875" Velocity="36" />
      <note Length="0.015625" Pitch="63" RiffPosition="5.25" Velocity="60" />
      <note Length="0.015625" Pitch="63" RiffPosition="5.265625" Velocity="43" />
      <note Length="0.0234375" Pitch="61" RiffPosition="5.28125" Velocity="36" />
      <note Length="0.0078125" Pitch="63" RiffPosition="5.3046875" Velocity="35" />
      <note Length="0.0625" Pitch="63" RiffPosition="5.3125" Velocity="35" />
      <note Length="0.0625" Pitch="63" RiffPosition="5.375" Velocity="33" />
      <note Length="0.03125" Pitch="63" RiffPosition="5.4375" Velocity="71" />
      <note Length="0.03125" Pitch="66" RiffPosition="5.46875" Velocity="67" />
      <note Length="0.015625" Pitch="63" RiffPosition="5.5" Velocity="41" />
      <note Length="0.015625" Pitch="61" RiffPosition="5.515625" Velocity="43" />
      <note Length="0.0234375" Pitch="61" RiffPosition="5.53125" Velocity="43" />
      <note Length="0.0078125" Pitch="61" RiffPosition="5.5546875" Velocity="54" />
      <note Length="0.0625" Pitch="63" RiffPosition="5.5625" Velocity="57" />
      <note Length="0.0625" Pitch="63" RiffPosition="5.625" Velocity="49" />
      <note Length="0.03125" Pitch="63" RiffPosition="5.6875" Velocity="40" />
      <note Length="0.03125" Pitch="66" RiffPosition="5.71875" Velocity="58" />
      <note Length="0.015625" Pitch="63" RiffPosition="5.75" Velocity="65" />
      <note Length="0.015625" Pitch="61" RiffPosition="5.765625" Velocity="77" />
      <note Length="0.0234375" Pitch="61" RiffPosition="5.78125" Velocity="84" />
      <note Length="0.0078125" Pitch="63" RiffPosition="5.8046875" Velocity="85" />
      <note Length="0.0625" Pitch="66" RiffPosition="5.8125" Velocity="59" />
      <note Length="0.0625" Pitch="66" RiffPosition="5.875" Velocity="61" />
      <note Length="0.03125" Pitch="63" RiffPosition="5.9375" Velocity="62" />
      <note Length="0.03125" Pitch="66" RiffPosition="5.96875" Velocity="59" />
      <note Length="0.015625" Pitch="61" RiffPosition="6" Velocity="66" />
      <note Length="0.015625" Pitch="56" RiffPosition="6.015625" Velocity="61" />
      <note Length="0.0234375" Pitch="56" RiffPosition="6.03125" Velocity="61" />
      <note Length="0.0078125" Pitch="61" RiffPosition="6.0546875" Velocity="71" />
      <note Length="0.0625" Pitch="61" RiffPosition="6.0625" Velocity="104" />
      <note Length="0.0625" Pitch="63" RiffPosition="6.125" Velocity="55" />
      <note Length="0.03125" Pitch="63" RiffPosition="6.1875" Velocity="38" />
      <note Length="0.03125" Pitch="69" RiffPosition="6.21875" Velocity="49" />
      <note Length="0.015625" Pitch="63" RiffPosition="6.25" Velocity="47" />
      <note Length="0.015625" Pitch="63" RiffPosition="6.265625" Velocity="85" />
      <note Length="0.0234375" Pitch="61" RiffPosition="6.28125" Velocity="93" />
      <note Length="0.0078125" Pitch="63" RiffPosition="6.3046875" Velocity="65" />
      <note Length="0.0625" Pitch="63" RiffPosition="6.3125" Velocity="65" />
      <note Length="0.0625" Pitch="63" RiffPosition="6.375" Velocity="95" />
      <note Length="0.03125" Pitch="63" RiffPosition="6.4375" Velocity="58" />
      <note Length="0.03125" Pitch="66" RiffPosition="6.46875" Velocity="33" />
      <note Length="0.015625" Pitch="63" RiffPosition="6.5" Velocity="32" />
      <note Length="0.015625" Pitch="61" RiffPosition="6.515625" Velocity="33" />
      <note Length="0.0234375" Pitch="61" RiffPosition="6.53125" Velocity="33" />
      <note Length="0.0078125" Pitch="61" RiffPosition="6.5546875" Velocity="66" />
      <note Length="0.0625" Pitch="63" RiffPosition="6.5625" Velocity="69" />
      <note Length="0.0625" Pitch="63" RiffPosition="6.625" Velocity="76" />
      <note Length="0.03125" Pitch="63" RiffPosition="6.6875" Velocity="56" />
      <note Length="0.03125" Pitch="66" RiffPosition="6.71875" Velocity="67" />
      <note Length="0.015625" Pitch="63" RiffPosition="6.75" Velocity="31" />
      <note Length="0.015625" Pitch="61" RiffPosition="6.765625" Velocity="42" />
      <note Length="0.0234375" Pitch="61" RiffPosition="6.78125" Velocity="40" />
      <note Length="0.0078125" Pitch="63" RiffPosition="6.8046875" Velocity="39" />
      <note Length="0.0625" Pitch="66" RiffPosition="6.8125" Velocity="47" />
      <note Length="0.0625" Pitch="66" RiffPosition="6.875" Velocity="49" />
      <note Length="0.03125" Pitch="63" RiffPosition="6.9375" Velocity="37" />
      <note Length="0.03125" Pitch="66" RiffPosition="6.96875" Velocity="41" />
      <note Length="0.015625" Pitch="61" RiffPosition="7" Velocity="62" />
      <note Length="0.015625" Pitch="56" RiffPosition="7.015625" Velocity="38" />
      <note Length="0.0234375" Pitch="56" RiffPosition="7.03125" Velocity="38" />
      <note Length="0.0078125" Pitch="61" RiffPosition="7.0546875" Velocity="32" />
      <note Length="0.0625" Pitch="61" RiffPosition="7.0625" Velocity="35" />
      <note Length="0.0625" Pitch="63" RiffPosition="7.125" Velocity="44" />
      <note Length="0.03125" Pitch="63" RiffPosition="7.1875" Velocity="50" />
      <note Length="0.03125" Pitch="69" RiffPosition="7.21875" Velocity="33" />
      <note Length="0.015625" Pitch="63" RiffPosition="7.25" Velocity="64" />
      <note Length="0.015625" Pitch="63" RiffPosition="7.265625" Velocity="39" />
      <note Length="0.0234375" Pitch="61" RiffPosition="7.28125" Velocity="32" />
      <note Length="0.0078125" Pitch="63" RiffPosition="7.3046875" Velocity="31" />
      <note Length="0.0625" Pitch="63" RiffPosition="7.3125" Velocity="31" />
      <note Length="0.0625" Pitch="63" RiffPosition="7.375" Velocity="31" />
      <note Length="0.03125" Pitch="63" RiffPosition="7.4375" Velocity="67" />
      <note Length="0.03125" Pitch="66" RiffPosition="7.46875" Velocity="63" />
      <note Length="0.015625" Pitch="63" RiffPosition="7.5" Velocity="44" />
      <note Length="0.015625" Pitch="61" RiffPosition="7.515625" Velocity="39" />
      <note Length="0.0234375" Pitch="61" RiffPosition="7.53125" Velocity="40" />
      <note Length="0.0078125" Pitch="61" RiffPosition="7.5546875" Velocity="50" />
      <note Length="0.0625" Pitch="63" RiffPosition="7.5625" Velocity="53" />
      <note Length="0.0625" Pitch="63" RiffPosition="7.625" Velocity="52" />
      <note Length="0.03125" Pitch="63" RiffPosition="7.6875" Velocity="44" />
      <note Length="0.03125" Pitch="66" RiffPosition="7.71875" Velocity="62" />
      <note Length="0.015625" Pitch="63" RiffPosition="7.75" Velocity="69" />
      <note Length="0.015625" Pitch="61" RiffPosition="7.765625" Velocity="81" />
      <note Length="0.0234375" Pitch="61" RiffPosition="7.78125" Velocity="88" />
      <note Length="0.0078125" Pitch="63" RiffPosition="7.8046875" Velocity="89" />
      <note Length="0.0625" Pitch="66" RiffPosition="7.8125" Velocity="34" />
      <note Length="0.0625" Pitch="66" RiffPosition="7.875" Velocity="65" />
      <note Length="0.03125" Pitch="63" RiffPosition="7.9375" Velocity="59" />
      <note Length="0.03125" Pitch="66" RiffPosition="7.96875" Velocity="84" />
    </riff>
    <riff IsDrum="False" MidiInstrument="106" Tempo="100" Length="8">
      <note Length="0.09375" Pitch="63" RiffPosition="0" Velocity="0" />
      <note Length="0.09375" Pitch="66" RiffPosition="0.09375" Velocity="0" />
      <note Length="0.015625" Pitch="61" RiffPosition="0.1875" Velocity="0" />
      <note Length="0.046875" Pitch="61" RiffPosition="0.203125" Velocity="0" />
      <note Length="0.09375" Pitch="63" RiffPosition="0.25" Velocity="0" />
      <note Length="0.09375" Pitch="68" RiffPosition="0.34375" Velocity="0" />
      <note Length="0.015625" Pitch="61" RiffPosition="0.4375" Velocity="0" />
      <note Length="0.046875" Pitch="63" RiffPosition="0.453125" Velocity="0" />
      <note Length="0.09375" Pitch="63" RiffPosition="0.5" Velocity="0" />
      <note Length="0.09375" Pitch="66" RiffPosition="0.59375" Velocity="0" />
      <note Length="0.015625" Pitch="61" RiffPosition="0.6875" Velocity="0" />
      <note Length="0.046875" Pitch="63" RiffPosition="0.703125" Velocity="0" />
      <note Length="0.09375" Pitch="63" RiffPosition="0.75" Velocity="0" />
      <note Length="0.09375" Pitch="69" RiffPosition="0.84375" Velocity="0" />
      <note Length="0.015625" Pitch="61" RiffPosition="0.9375" Velocity="0" />
      <note Length="0.046875" Pitch="63" RiffPosition="0.953125" Velocity="0" />
      <note Length="0.09375" Pitch="61" RiffPosition="1" Velocity="0" />
      <note Length="0.09375" Pitch="66" RiffPosition="1.09375" Velocity="0" />
      <note Length="0.015625" Pitch="61" RiffPosition="1.1875" Velocity="0" />
      <note Length="0.046875" Pitch="63" RiffPosition="1.203125" Velocity="0" />
      <note Length="0.09375" Pitch="63" RiffPosition="1.25" Velocity="0" />
      <note Length="0.09375" Pitch="69" RiffPosition="1.34375" Velocity="0" />
      <note Length="0.015625" Pitch="61" RiffPosition="1.4375" Velocity="0" />
      <note Length="0.046875" Pitch="61" RiffPosition="1.453125" Velocity="0" />
      <note Length="0.09375" Pitch="63" RiffPosition="1.5" Velocity="0" />
      <note Length="0.09375" Pitch="66" RiffPosition="1.59375" Velocity="0" />
      <note Length="0.015625" Pitch="57" RiffPosition="1.6875" Velocity="0" />
      <note Length="0.046875" Pitch="61" RiffPosition="1.703125" Velocity="0" />
      <note Length="0.09375" Pitch="63" RiffPosition="1.75" Velocity="0" />
      <note Length="0.09375" Pitch="69" RiffPosition="1.84375" Velocity="0" />
      <note Length="0.015625" Pitch="61" RiffPosition="1.9375" Velocity="0" />
      <note Length="0.046875" Pitch="63" RiffPosition="1.953125" Velocity="0" />
      <note Length="0.09375" Pitch="63" RiffPosition="2" Velocity="58" />
      <note Length="0.09375" Pitch="66" RiffPosition="2.09375" Velocity="38" />
      <note Length="0.015625" Pitch="61" RiffPosition="2.1875" Velocity="31" />
      <note Length="0.046875" Pitch="61" RiffPosition="2.203125" Velocity="57" />
      <note Length="0.09375" Pitch="61" RiffPosition="2.25" Velocity="72" />
      <note Length="0.09375" Pitch="68" RiffPosition="2.34375" Velocity="86" />
      <note Length="0.015625" Pitch="61" RiffPosition="2.4375" Velocity="84" />
      <note Length="0.046875" Pitch="63" RiffPosition="2.453125" Velocity="74" />
      <note Length="0.09375" Pitch="63" RiffPosition="2.5" Velocity="68" />
      <note Length="0.09375" Pitch="68" RiffPosition="2.59375" Velocity="54" />
      <note Length="0.015625" Pitch="61" RiffPosition="2.6875" Velocity="40" />
      <note Length="0.046875" Pitch="63" RiffPosition="2.703125" Velocity="35" />
      <note Length="0.09375" Pitch="63" RiffPosition="2.75" Velocity="37" />
      <note Length="0.09375" Pitch="69" RiffPosition="2.84375" Velocity="57" />
      <note Length="0.015625" Pitch="61" RiffPosition="2.9375" Velocity="57" />
      <note Length="0.046875" Pitch="63" RiffPosition="2.953125" Velocity="81" />
      <note Length="0.09375" Pitch="61" RiffPosition="3" Velocity="58" />
      <note Length="0.09375" Pitch="66" RiffPosition="3.09375" Velocity="38" />
      <note Length="0.015625" Pitch="61" RiffPosition="3.1875" Velocity="31" />
      <note Length="0.046875" Pitch="63" RiffPosition="3.203125" Velocity="57" />
      <note Length="0.09375" Pitch="63" RiffPosition="3.25" Velocity="72" />
      <note Length="0.09375" Pitch="69" RiffPosition="3.34375" Velocity="86" />
      <note Length="0.015625" Pitch="61" RiffPosition="3.4375" Velocity="84" />
      <note Length="0.046875" Pitch="63" RiffPosition="3.453125" Velocity="74" />
      <note Length="0.09375" Pitch="63" RiffPosition="3.5" Velocity="68" />
      <note Length="0.09375" Pitch="63" RiffPosition="3.59375" Velocity="54" />
      <note Length="0.015625" Pitch="61" RiffPosition="3.6875" Velocity="40" />
      <note Length="0.046875" Pitch="61" RiffPosition="3.703125" Velocity="35" />
      <note Length="0.09375" Pitch="63" RiffPosition="3.75" Velocity="37" />
      <note Length="0.09375" Pitch="69" RiffPosition="3.84375" Velocity="57" />
      <note Length="0.015625" Pitch="61" RiffPosition="3.9375" Velocity="57" />
      <note Length="0.046875" Pitch="63" RiffPosition="3.953125" Velocity="81" />
      <note Length="0.09375" Pitch="63" RiffPosition="4" Velocity="58" />
      <note Length="0.09375" Pitch="66" RiffPosition="4.09375" Velocity="38" />
      <note Length="0.015625" Pitch="61" RiffPosition="4.1875" Velocity="31" />
      <note Length="0.046875" Pitch="61" RiffPosition="4.203125" Velocity="57" />
      <note Length="0.09375" Pitch="63" RiffPosition="4.25" Velocity="72" />
      <note Length="0.09375" Pitch="69" RiffPosition="4.34375" Velocity="86" />
      <note Length="0.015625" Pitch="61" RiffPosition="4.4375" Velocity="84" />
      <note Length="0.046875" Pitch="63" RiffPosition="4.453125" Velocity="74" />
      <note Length="0.09375" Pitch="63" RiffPosition="4.5" Velocity="68" />
      <note Length="0.09375" Pitch="68" RiffPosition="4.59375" Velocity="54" />
      <note Length="0.015625" Pitch="61" RiffPosition="4.6875" Velocity="40" />
      <note Length="0.046875" Pitch="63" RiffPosition="4.703125" Velocity="35" />
      <note Length="0.09375" Pitch="63" RiffPosition="4.75" Velocity="37" />
      <note Length="0.09375" Pitch="69" RiffPosition="4.84375" Velocity="57" />
      <note Length="0.015625" Pitch="61" RiffPosition="4.9375" Velocity="57" />
      <note Length="0.046875" Pitch="61" RiffPosition="4.953125" Velocity="81" />
      <note Length="0.09375" Pitch="61" RiffPosition="5" Velocity="58" />
      <note Length="0.09375" Pitch="66" RiffPosition="5.09375" Velocity="38" />
      <note Length="0.015625" Pitch="61" RiffPosition="5.1875" Velocity="31" />
      <note Length="0.046875" Pitch="63" RiffPosition="5.203125" Velocity="57" />
      <note Length="0.09375" Pitch="63" RiffPosition="5.25" Velocity="72" />
      <note Length="0.09375" Pitch="69" RiffPosition="5.34375" Velocity="86" />
      <note Length="0.015625" Pitch="61" RiffPosition="5.4375" Velocity="84" />
      <note Length="0.046875" Pitch="63" RiffPosition="5.453125" Velocity="74" />
      <note Length="0.09375" Pitch="63" RiffPosition="5.5" Velocity="68" />
      <note Length="0.09375" Pitch="63" RiffPosition="5.59375" Velocity="54" />
      <note Length="0.015625" Pitch="61" RiffPosition="5.6875" Velocity="40" />
      <note Length="0.046875" Pitch="61" RiffPosition="5.703125" Velocity="35" />
      <note Length="0.09375" Pitch="63" RiffPosition="5.75" Velocity="37" />
      <note Length="0.09375" Pitch="69" RiffPosition="5.84375" Velocity="57" />
      <note Length="0.015625" Pitch="61" RiffPosition="5.9375" Velocity="57" />
      <note Length="0.046875" Pitch="63" RiffPosition="5.953125" Velocity="81" />
      <note Length="0.09375" Pitch="63" RiffPosition="6" Velocity="58" />
      <note Length="0.09375" Pitch="66" RiffPosition="6.09375" Velocity="38" />
      <note Length="0.015625" Pitch="61" RiffPosition="6.1875" Velocity="31" />
      <note Length="0.046875" Pitch="61" RiffPosition="6.203125" Velocity="57" />
      <note Length="0.09375" Pitch="63" RiffPosition="6.25" Velocity="72" />
      <note Length="0.09375" Pitch="69" RiffPosition="6.34375" Velocity="86" />
      <note Length="0.015625" Pitch="61" RiffPosition="6.4375" Velocity="84" />
      <note Length="0.046875" Pitch="63" RiffPosition="6.453125" Velocity="74" />
      <note Length="0.09375" Pitch="63" RiffPosition="6.5" Velocity="68" />
      <note Length="0.09375" Pitch="68" RiffPosition="6.59375" Velocity="54" />
      <note Length="0.015625" Pitch="61" RiffPosition="6.6875" Velocity="40" />
      <note Length="0.046875" Pitch="63" RiffPosition="6.703125" Velocity="35" />
      <note Length="0.09375" Pitch="63" RiffPosition="6.75" Velocity="37" />
      <note Length="0.09375" Pitch="69" RiffPosition="6.84375" Velocity="57" />
      <note Length="0.015625" Pitch="61" RiffPosition="6.9375" Velocity="57" />
      <note Length="0.046875" Pitch="61" RiffPosition="6.953125" Velocity="81" />
      <note Length="0.09375" Pitch="63" RiffPosition="7" Velocity="58" />
      <note Length="0.09375" Pitch="68" RiffPosition="7.09375" Velocity="38" />
      <note Length="0.015625" Pitch="61" RiffPosition="7.1875" Velocity="31" />
      <note Length="0.046875" Pitch="63" RiffPosition="7.203125" Velocity="57" />
      <note Length="0.09375" Pitch="63" RiffPosition="7.25" Velocity="72" />
      <note Length="0.09375" Pitch="69" RiffPosition="7.34375" Velocity="86" />
      <note Length="0.015625" Pitch="61" RiffPosition="7.4375" Velocity="84" />
      <note Length="0.046875" Pitch="63" RiffPosition="7.453125" Velocity="74" />
      <note Length="0.09375" Pitch="61" RiffPosition="7.5" Velocity="68" />
      <note Length="0.09375" Pitch="63" RiffPosition="7.59375" Velocity="54" />
      <note Length="0.015625" Pitch="61" RiffPosition="7.6875" Velocity="40" />
      <note Length="0.046875" Pitch="61" RiffPosition="7.703125" Velocity="35" />
      <note Length="0.09375" Pitch="63" RiffPosition="7.75" Velocity="37" />
      <note Length="0.09375" Pitch="69" RiffPosition="7.84375" Velocity="57" />
      <note Length="0.015625" Pitch="61" RiffPosition="7.9375" Velocity="57" />
      <note Length="0.046875" Pitch="63" RiffPosition="7.953125" Velocity="81" />
    </riff>
    <riff IsDrum="False" MidiInstrument="94" Tempo="119" Length="8">
      <note Length="0.25" Pitch="49" RiffPosition="0" Velocity="90" />
      <note Length="0.25" Pitch="49" RiffPosition="0.25" Velocity="90" />
      <note Length="0.5" Pitch="49" RiffPosition="0.5" Velocity="90" />
      <note Length="0.75" Pitch="49" RiffPosition="1" Velocity="90" />
      <note Length="0.75" Pitch="49" RiffPosition="1.75" Velocity="90" />
      <note Length="0.75" Pitch="49" RiffPosition="2.5" Velocity="90" />
      <note Length="0.75" Pitch="49" RiffPosition="3.25" Velocity="90" />
      <note Length="2" Pitch="61" RiffPosition="4" Velocity="90" />
      <note Length="2" Pitch="49" RiffPosition="6" Velocity="90" />
    </riff>
    <riff IsDrum="False" MidiInstrument="90" Tempo="135" Length="8">
      <note Length="1.5" Pitch="63" RiffPosition="0" Velocity="90" />
      <note Length="1.5" Pitch="61" RiffPosition="1.5" Velocity="90" />
      <note Length="0.75" Pitch="57" RiffPosition="3" Velocity="90" />
      <note Length="0.25" Pitch="57" RiffPosition="3.75" Velocity="90" />
      <note Length="2" Pitch="56" RiffPosition="4" Velocity="90" />
      <note Length="2" Pitch="61" RiffPosition="6" Velocity="90" />
    </riff>
  </riffPack>
  <lyrics>
    <line>****** ****** ****** ******</line>
    <line>****** ****** ****** ******</line>
    <line>****** ****** ****** ******</line>
    <line>****** ****** ****** ******</line>
    <line>****** ****** ****** ******</line>
    <line>****** ****** ****** ******</line>
    <line>****** ****** ****** ******</line>
    <line>****** ****** ****** ******</line>
    <line>****** ****** ****** ******</line>
    <line>****** ****** ****** ******</line>
    <line>****** ****** ****** ******</line>
    <line>****** ****** ****** ******</line>
    <line>****** ****** ****** ******</line>
    <line>****** ****** ****** ******</line>
    <line>****** ****** ****** ******</line>
    <line>****** ****** ****** ******</line>
  </lyrics>
  <lyricsSongFactoryCollection LanguageCode="en" />
  <predefinedGenerator BarCount="8" IsOverrideScale="True" IsOverrideTempo="True" Modulation="0.15" ScaleName="japanese" Tempo="123" LyricsToMusicPhase="0">
    <predefinedGeneratorTrack MetaRiffPackName="MeditativeIndonesia">
      <barInfo isOn="True" />
      <barInfo isOn="True" />
      <barInfo isOn="True" />
      <barInfo isOn="True" />
      <barInfo isOn="True" />
      <barInfo isOn="True" />
      <barInfo isOn="True" />
      <barInfo isOn="True" />
      <barInfo isOn="True" />
      <barInfo isOn="True" />
      <barInfo isOn="True" />
      <barInfo isOn="True" />
      <barInfo isOn="True" />
      <barInfo isOn="True" />
      <barInfo isOn="True" />
      <barInfo isOn="True" />
    </predefinedGeneratorTrack>
    <predefinedGeneratorTrack MetaRiffPackName="DrumChromaticQuad">
      <barInfo isOn="True" />
      <barInfo isOn="True" />
      <barInfo isOn="False" />
      <barInfo isOn="False" />
      <barInfo isOn="False" />
      <barInfo isOn="False" />
      <barInfo isOn="True" />
      <barInfo isOn="True" />
      <barInfo isOn="True" />
      <barInfo isOn="True" />
      <barInfo isOn="True" />
      <barInfo isOn="True" />
      <barInfo isOn="True" />
      <barInfo isOn="True" />
      <barInfo isOn="True" />
      <barInfo isOn="True" />
    </predefinedGeneratorTrack>
    <predefinedGeneratorTrack MetaRiffPackName="DrumSnareQuad">
      <barInfo isOn="True" />
      <barInfo isOn="True" />
      <barInfo isOn="True" />
      <barInfo isOn="True" />
      <barInfo isOn="True" />
      <barInfo isOn="True" />
      <barInfo isOn="True" />
      <barInfo isOn="True" />
      <barInfo isOn="False" />
      <barInfo isOn="False" />
      <barInfo isOn="False" />
      <barInfo isOn="False" />
      <barInfo isOn="False" />
      <barInfo isOn="False" />
      <barInfo isOn="False" />
      <barInfo isOn="False" />
    </predefinedGeneratorTrack>
    <predefinedGeneratorTrack MetaRiffPackName="DrumBassQuad">
      <barInfo isOn="True" />
      <barInfo isOn="True" />
      <barInfo isOn="False" />
      <barInfo isOn="False" />
      <barInfo isOn="False" />
      <barInfo isOn="False" />
      <barInfo isOn="True" />
      <barInfo isOn="True" />
      <barInfo isOn="False" />
      <barInfo isOn="False" />
      <barInfo isOn="False" />
      <barInfo isOn="False" />
      <barInfo isOn="False" />
      <barInfo isOn="False" />
      <barInfo isOn="False" />
      <barInfo isOn="False" />
    </predefinedGeneratorTrack>
    <predefinedGeneratorTrack MetaRiffPackName="MeditativeThailand">
      <barInfo isOn="False" />
      <barInfo isOn="False" />
      <barInfo isOn="True" />
      <barInfo isOn="True" />
      <barInfo isOn="False" />
      <barInfo isOn="False" />
      <barInfo isOn="True" />
      <barInfo isOn="True" />
      <barInfo isOn="False" />
      <barInfo isOn="False" />
      <barInfo isOn="False" />
      <barInfo isOn="False" />
      <barInfo isOn="False" />
      <barInfo isOn="False" />
      <barInfo isOn="False" />
      <barInfo isOn="False" />
    </predefinedGeneratorTrack>
    <predefinedGeneratorTrack MetaRiffPackName="Pad">
      <barInfo isOn="False" />
      <barInfo isOn="False" />
      <barInfo isOn="False" />
      <barInfo isOn="True" />
      <barInfo isOn="False" />
      <barInfo isOn="True" />
      <barInfo isOn="True" />
      <barInfo isOn="True" />
      <barInfo isOn="False" />
      <barInfo isOn="False" />
      <barInfo isOn="False" />
      <barInfo isOn="False" />
      <barInfo isOn="False" />
      <barInfo isOn="False" />
      <barInfo isOn="False" />
      <barInfo isOn="False" />
    </predefinedGeneratorTrack>
    <predefinedGeneratorTrack MetaRiffPackName="MeditativeChina">
      <barInfo isOn="False" />
      <barInfo isOn="False" />
      <barInfo isOn="True" />
      <barInfo isOn="False" />
      <barInfo isOn="True" />
      <barInfo isOn="True" />
      <barInfo isOn="True" />
      <barInfo isOn="True" />
      <barInfo isOn="False" />
      <barInfo isOn="False" />
      <barInfo isOn="False" />
      <barInfo isOn="False" />
      <barInfo isOn="False" />
      <barInfo isOn="False" />
      <barInfo isOn="False" />
      <barInfo isOn="False" />
    </predefinedGeneratorTrack>
  </predefinedGenerator>
</song>