<?xml version="1.0" encoding="UTF-8"?>
<song>
  <riffPack Tempo="94">
    <riff IsDrum="False" MidiInstrument="117" Tempo="93" Length="14">
      <note Length="0.046875" Pitch="34" RiffPosition="0" Velocity="0" />
      <note Length="0.046875" Pitch="39" RiffPosition="0.046875" Velocity="0" />
      <note Length="0.015625" Pitch="32" RiffPosition="0.09375" Velocity="0" />
      <note Length="0.015625" Pitch="34" RiffPosition="0.109375" Velocity="0" />
      <note Length="0.046875" Pitch="39" RiffPosition="0.125" Velocity="0" />
      <note Length="0.015625" Pitch="39" RiffPosition="0.171875" Velocity="0" />
      <note Length="0.0208333333333333" Pitch="27" RiffPosition="0.1875" Velocity="0" />
      <note Length="0.0208333333333333" Pitch="42" RiffPosition="0.208333333333333" Velocity="0" />
      <note Length="0.0208333333333333" Pitch="27" RiffPosition="0.229166666666667" Velocity="0" />
      <note Length="0.046875" Pitch="34" RiffPosition="0.25" Velocity="0" />
      <note Length="0.046875" Pitch="39" RiffPosition="0.296875" Velocity="0" />
      <note Length="0.015625" Pitch="32" RiffPosition="0.34375" Velocity="0" />
      <note Length="0.015625" Pitch="34" RiffPosition="0.359375" Velocity="0" />
      <note Length="0.046875" Pitch="39" RiffPosition="0.375" Velocity="0" />
      <note Length="0.015625" Pitch="39" RiffPosition="0.421875" Velocity="0" />
      <note Length="0.0208333333333333" Pitch="27" RiffPosition="0.4375" Velocity="0" />
      <note Length="0.0208333333333333" Pitch="42" RiffPosition="0.458333333333333" Velocity="0" />
      <note Length="0.0208333333333333" Pitch="27" RiffPosition="0.479166666666667" Velocity="0" />
      <note Length="0.046875" Pitch="34" RiffPosition="0.5" Velocity="0" />
      <note Length="0.046875" Pitch="39" RiffPosition="0.546875" Velocity="0" />
      <note Length="0.015625" Pitch="32" RiffPosition="0.59375" Velocity="0" />
      <note Length="0.015625" Pitch="34" RiffPosition="0.609375" Velocity="0" />
      <note Length="0.046875" Pitch="39" RiffPosition="0.625" Velocity="0" />
      <note Length="0.015625" Pitch="39" RiffPosition="0.671875" Velocity="0" />
      <note Length="0.0208333333333333" Pitch="27" RiffPosition="0.6875" Velocity="0" />
      <note Length="0.0208333333333333" Pitch="42" RiffPosition="0.708333333333333" Velocity="0" />
      <note Length="0.0208333333333333" Pitch="27" RiffPosition="0.729166666666667" Velocity="0" />
      <note Length="0.046875" Pitch="34" RiffPosition="0.75" Velocity="0" />
      <note Length="0.046875" Pitch="39" RiffPosition="0.796875" Velocity="0" />
      <note Length="0.015625" Pitch="32" RiffPosition="0.84375" Velocity="0" />
      <note Length="0.015625" Pitch="34" RiffPosition="0.859375" Velocity="0" />
      <note Length="0.046875" Pitch="39" RiffPosition="0.875" Velocity="0" />
      <note Length="0.015625" Pitch="39" RiffPosition="0.921875" Velocity="0" />
      <note Length="0.0208333333333333" Pitch="27" RiffPosition="0.9375" Velocity="0" />
      <note Length="0.0208333333333333" Pitch="42" RiffPosition="0.958333333333333" Velocity="0" />
      <note Length="0.0208333333333333" Pitch="27" RiffPosition="0.979166666666667" Velocity="0" />
      <note Length="0.046875" Pitch="36" RiffPosition="1" Velocity="12" />
      <note Length="0.046875" Pitch="41" RiffPosition="1.046875" Velocity="12" />
      <note Length="0.015625" Pitch="34" RiffPosition="1.09375" Velocity="58" />
      <note Length="0.015625" Pitch="36" RiffPosition="1.109375" Velocity="69" />
      <note Length="0.046875" Pitch="41" RiffPosition="1.125" Velocity="127" />
      <note Length="0.015625" Pitch="41" RiffPosition="1.171875" Velocity="127" />
      <note Length="0.0208333333333333" Pitch="29" RiffPosition="1.1875" Velocity="127" />
      <note Length="0.0208333333333333" Pitch="44" RiffPosition="1.20833333333333" Velocity="58" />
      <note Length="0.0208333333333333" Pitch="29" RiffPosition="1.22916666666667" Velocity="127" />
      <note Length="0.046875" Pitch="36" RiffPosition="1.25" Velocity="12" />
      <note Length="0.046875" Pitch="41" RiffPosition="1.296875" Velocity="12" />
      <note Length="0.015625" Pitch="34" RiffPosition="1.34375" Velocity="58" />
      <note Length="0.015625" Pitch="36" RiffPosition="1.359375" Velocity="69" />
      <note Length="0.046875" Pitch="41" RiffPosition="1.375" Velocity="127" />
      <note Length="0.015625" Pitch="41" RiffPosition="1.421875" Velocity="127" />
      <note Length="0.0208333333333333" Pitch="29" RiffPosition="1.4375" Velocity="127" />
      <note Length="0.0208333333333333" Pitch="44" RiffPosition="1.45833333333333" Velocity="58" />
      <note Length="0.0208333333333333" Pitch="29" RiffPosition="1.47916666666667" Velocity="127" />
      <note Length="0.046875" Pitch="36" RiffPosition="1.5" Velocity="12" />
      <note Length="0.046875" Pitch="41" RiffPosition="1.546875" Velocity="12" />
      <note Length="0.015625" Pitch="34" RiffPosition="1.59375" Velocity="58" />
      <note Length="0.015625" Pitch="36" RiffPosition="1.609375" Velocity="69" />
      <note Length="0.046875" Pitch="41" RiffPosition="1.625" Velocity="127" />
      <note Length="0.015625" Pitch="41" RiffPosition="1.671875" Velocity="127" />
      <note Length="0.0208333333333333" Pitch="29" RiffPosition="1.6875" Velocity="127" />
      <note Length="0.0208333333333333" Pitch="44" RiffPosition="1.70833333333333" Velocity="58" />
      <note Length="0.0208333333333333" Pitch="29" RiffPosition="1.72916666666667" Velocity="127" />
      <note Length="0.046875" Pitch="36" RiffPosition="1.75" Velocity="12" />
      <note Length="0.046875" Pitch="41" RiffPosition="1.796875" Velocity="12" />
      <note Length="0.015625" Pitch="34" RiffPosition="1.84375" Velocity="58" />
      <note Length="0.015625" Pitch="36" RiffPosition="1.859375" Velocity="69" />
      <note Length="0.046875" Pitch="41" RiffPosition="1.875" Velocity="127" />
      <note Length="0.015625" Pitch="41" RiffPosition="1.921875" Velocity="127" />
      <note Length="0.0208333333333333" Pitch="29" RiffPosition="1.9375" Velocity="127" />
      <note Length="0.0208333333333333" Pitch="44" RiffPosition="1.95833333333333" Velocity="58" />
      <note Length="0.0208333333333333" Pitch="29" RiffPosition="1.97916666666667" Velocity="127" />
      <note Length="0.046875" Pitch="36" RiffPosition="2" Velocity="12" />
      <note Length="0.046875" Pitch="39" RiffPosition="2.046875" Velocity="12" />
      <note Length="0.015625" Pitch="32" RiffPosition="2.09375" Velocity="58" />
      <note Length="0.015625" Pitch="34" RiffPosition="2.109375" Velocity="69" />
      <note Length="0.046875" Pitch="39" RiffPosition="2.125" Velocity="127" />
      <note Length="0.015625" Pitch="39" RiffPosition="2.171875" Velocity="127" />
      <note Length="0.0208333333333333" Pitch="27" RiffPosition="2.1875" Velocity="127" />
      <note Length="0.0208333333333333" Pitch="42" RiffPosition="2.20833333333333" Velocity="58" />
      <note Length="0.0208333333333333" Pitch="27" RiffPosition="2.22916666666667" Velocity="127" />
      <note Length="0.046875" Pitch="34" RiffPosition="2.25" Velocity="12" />
      <note Length="0.046875" Pitch="39" RiffPosition="2.296875" Velocity="12" />
      <note Length="0.015625" Pitch="32" RiffPosition="2.34375" Velocity="58" />
      <note Length="0.015625" Pitch="34" RiffPosition="2.359375" Velocity="69" />
      <note Length="0.046875" Pitch="39" RiffPosition="2.375" Velocity="127" />
      <note Length="0.015625" Pitch="39" RiffPosition="2.421875" Velocity="127" />
      <note Length="0.0208333333333333" Pitch="27" RiffPosition="2.4375" Velocity="127" />
      <note Length="0.0208333333333333" Pitch="42" RiffPosition="2.45833333333333" Velocity="58" />
      <note Length="0.0208333333333333" Pitch="27" RiffPosition="2.47916666666667" Velocity="127" />
      <note Length="0.046875" Pitch="34" RiffPosition="2.5" Velocity="12" />
      <note Length="0.046875" Pitch="39" RiffPosition="2.546875" Velocity="12" />
      <note Length="0.015625" Pitch="32" RiffPosition="2.59375" Velocity="58" />
      <note Length="0.015625" Pitch="34" RiffPosition="2.609375" Velocity="69" />
      <note Length="0.046875" Pitch="39" RiffPosition="2.625" Velocity="127" />
      <note Length="0.015625" Pitch="39" RiffPosition="2.671875" Velocity="127" />
      <note Length="0.0208333333333333" Pitch="27" RiffPosition="2.6875" Velocity="127" />
      <note Length="0.0208333333333333" Pitch="42" RiffPosition="2.70833333333333" Velocity="58" />
      <note Length="0.0208333333333333" Pitch="27" RiffPosition="2.72916666666667" Velocity="127" />
      <note Length="0.046875" Pitch="34" RiffPosition="2.75" Velocity="12" />
      <note Length="0.046875" Pitch="39" RiffPosition="2.796875" Velocity="12" />
      <note Length="0.015625" Pitch="32" RiffPosition="2.84375" Velocity="58" />
      <note Length="0.015625" Pitch="34" RiffPosition="2.859375" Velocity="69" />
      <note Length="0.046875" Pitch="39" RiffPosition="2.875" Velocity="127" />
      <note Length="0.015625" Pitch="39" RiffPosition="2.921875" Velocity="127" />
      <note Length="0.0208333333333333" Pitch="27" RiffPosition="2.9375" Velocity="127" />
      <note Length="0.0208333333333333" Pitch="42" RiffPosition="2.95833333333333" Velocity="58" />
      <note Length="0.0208333333333333" Pitch="27" RiffPosition="2.97916666666667" Velocity="127" />
      <note Length="0.046875" Pitch="36" RiffPosition="3" Velocity="12" />
      <note Length="0.046875" Pitch="41" RiffPosition="3.046875" Velocity="12" />
      <note Length="0.015625" Pitch="34" RiffPosition="3.09375" Velocity="58" />
      <note Length="0.015625" Pitch="36" RiffPosition="3.109375" Velocity="69" />
      <note Length="0.046875" Pitch="41" RiffPosition="3.125" Velocity="127" />
      <note Length="0.015625" Pitch="41" RiffPosition="3.171875" Velocity="127" />
      <note Length="0.0208333333333333" Pitch="29" RiffPosition="3.1875" Velocity="127" />
      <note Length="0.0208333333333333" Pitch="44" RiffPosition="3.20833333333333" Velocity="58" />
      <note Length="0.0208333333333333" Pitch="29" RiffPosition="3.22916666666667" Velocity="127" />
      <note Length="0.046875" Pitch="36" RiffPosition="3.25" Velocity="12" />
      <note Length="0.046875" Pitch="41" RiffPosition="3.296875" Velocity="12" />
      <note Length="0.015625" Pitch="34" RiffPosition="3.34375" Velocity="58" />
      <note Length="0.015625" Pitch="36" RiffPosition="3.359375" Velocity="69" />
      <note Length="0.046875" Pitch="41" RiffPosition="3.375" Velocity="127" />
      <note Length="0.015625" Pitch="41" RiffPosition="3.421875" Velocity="127" />
      <note Length="0.0208333333333333" Pitch="29" RiffPosition="3.4375" Velocity="127" />
      <note Length="0.0208333333333333" Pitch="44" RiffPosition="3.45833333333333" Velocity="58" />
      <note Length="0.0208333333333333" Pitch="29" RiffPosition="3.47916666666667" Velocity="127" />
      <note Length="0.046875" Pitch="36" RiffPosition="3.5" Velocity="12" />
      <note Length="0.046875" Pitch="41" RiffPosition="3.546875" Velocity="12" />
      <note Length="0.015625" Pitch="34" RiffPosition="3.59375" Velocity="58" />
      <note Length="0.015625" Pitch="36" RiffPosition="3.609375" Velocity="69" />
      <note Length="0.046875" Pitch="41" RiffPosition="3.625" Velocity="127" />
      <note Length="0.015625" Pitch="41" RiffPosition="3.671875" Velocity="127" />
      <note Length="0.0208333333333333" Pitch="29" RiffPosition="3.6875" Velocity="127" />
      <note Length="0.0208333333333333" Pitch="44" RiffPosition="3.70833333333334" Velocity="58" />
      <note Length="0.0208333333333333" Pitch="29" RiffPosition="3.72916666666667" Velocity="127" />
      <note Length="0.046875" Pitch="36" RiffPosition="3.75" Velocity="12" />
      <note Length="0.046875" Pitch="41" RiffPosition="3.796875" Velocity="12" />
      <note Length="0.015625" Pitch="34" RiffPosition="3.84375" Velocity="58" />
      <note Length="0.015625" Pitch="36" RiffPosition="3.859375" Velocity="69" />
      <note Length="0.046875" Pitch="41" RiffPosition="3.875" Velocity="127" />
      <note Length="0.015625" Pitch="41" RiffPosition="3.921875" Velocity="127" />
      <note Length="0.0208333333333333" Pitch="29" RiffPosition="3.9375" Velocity="127" />
      <note Length="0.0208333333333333" Pitch="44" RiffPosition="3.95833333333334" Velocity="58" />
      <note Length="0.0208333333333333" Pitch="29" RiffPosition="3.97916666666667" Velocity="127" />
      <note Length="0.046875" Pitch="36" RiffPosition="4" Velocity="0" />
      <note Length="0.046875" Pitch="41" RiffPosition="4.046875" Velocity="0" />
      <note Length="0.015625" Pitch="34" RiffPosition="4.09375" Velocity="0" />
      <note Length="0.015625" Pitch="36" RiffPosition="4.109375" Velocity="0" />
      <note Length="0.046875" Pitch="41" RiffPosition="4.125" Velocity="0" />
      <note Length="0.015625" Pitch="41" RiffPosition="4.171875" Velocity="0" />
      <note Length="0.0208333333333333" Pitch="29" RiffPosition="4.1875" Velocity="0" />
      <note Length="0.0208333333333333" Pitch="44" RiffPosition="4.20833333333334" Velocity="0" />
      <note Length="0.0208333333333333" Pitch="29" RiffPosition="4.22916666666667" Velocity="0" />
      <note Length="0.046875" Pitch="36" RiffPosition="4.25" Velocity="0" />
      <note Length="0.046875" Pitch="41" RiffPosition="4.296875" Velocity="0" />
      <note Length="0.015625" Pitch="34" RiffPosition="4.34375" Velocity="0" />
      <note Length="0.015625" Pitch="36" RiffPosition="4.359375" Velocity="0" />
      <note Length="0.046875" Pitch="41" RiffPosition="4.375" Velocity="0" />
      <note Length="0.015625" Pitch="41" RiffPosition="4.421875" Velocity="0" />
      <note Length="0.0208333333333333" Pitch="29" RiffPosition="4.4375" Velocity="0" />
      <note Length="0.0208333333333333" Pitch="44" RiffPosition="4.45833333333333" Velocity="0" />
      <note Length="0.0208333333333333" Pitch="29" RiffPosition="4.47916666666667" Velocity="0" />
      <note Length="0.046875" Pitch="36" RiffPosition="4.5" Velocity="0" />
      <note Length="0.046875" Pitch="41" RiffPosition="4.546875" Velocity="0" />
      <note Length="0.015625" Pitch="34" RiffPosition="4.59375" Velocity="0" />
      <note Length="0.015625" Pitch="36" RiffPosition="4.609375" Velocity="0" />
      <note Length="0.046875" Pitch="41" RiffPosition="4.625" Velocity="0" />
      <note Length="0.015625" Pitch="41" RiffPosition="4.671875" Velocity="0" />
      <note Length="0.0208333333333333" Pitch="29" RiffPosition="4.6875" Velocity="0" />
      <note Length="0.0208333333333333" Pitch="44" RiffPosition="4.70833333333333" Velocity="0" />
      <note Length="0.0208333333333333" Pitch="29" RiffPosition="4.72916666666667" Velocity="0" />
      <note Length="0.046875" Pitch="36" RiffPosition="4.75" Velocity="0" />
      <note Length="0.046875" Pitch="41" RiffPosition="4.796875" Velocity="0" />
      <note Length="0.015625" Pitch="34" RiffPosition="4.84375" Velocity="0" />
      <note Length="0.015625" Pitch="36" RiffPosition="4.859375" Velocity="0" />
      <note Length="0.046875" Pitch="41" RiffPosition="4.875" Velocity="0" />
      <note Length="0.015625" Pitch="41" RiffPosition="4.921875" Velocity="0" />
      <note Length="0.0208333333333333" Pitch="29" RiffPosition="4.9375" Velocity="0" />
      <note Length="0.0208333333333333" Pitch="44" RiffPosition="4.95833333333333" Velocity="0" />
      <note Length="0.0208333333333333" Pitch="29" RiffPosition="4.97916666666667" Velocity="0" />
      <note Length="0.046875" Pitch="36" RiffPosition="5" Velocity="0" />
      <note Length="0.046875" Pitch="41" RiffPosition="5.046875" Velocity="0" />
      <note Length="0.015625" Pitch="34" RiffPosition="5.09375" Velocity="0" />
      <note Length="0.015625" Pitch="36" RiffPosition="5.109375" Velocity="0" />
      <note Length="0.046875" Pitch="41" RiffPosition="5.125" Velocity="0" />
      <note Length="0.015625" Pitch="41" RiffPosition="5.171875" Velocity="0" />
      <note Length="0.0208333333333333" Pitch="29" RiffPosition="5.1875" Velocity="0" />
      <note Length="0.0208333333333333" Pitch="44" RiffPosition="5.20833333333333" Velocity="0" />
      <note Length="0.0208333333333333" Pitch="29" RiffPosition="5.22916666666667" Velocity="0" />
      <note Length="0.046875" Pitch="36" RiffPosition="5.25" Velocity="0" />
      <note Length="0.046875" Pitch="41" RiffPosition="5.296875" Velocity="0" />
      <note Length="0.015625" Pitch="34" RiffPosition="5.34375" Velocity="0" />
      <note Length="0.015625" Pitch="36" RiffPosition="5.359375" Velocity="0" />
      <note Length="0.046875" Pitch="41" RiffPosition="5.375" Velocity="0" />
      <note Length="0.015625" Pitch="41" RiffPosition="5.421875" Velocity="0" />
      <note Length="0.0208333333333333" Pitch="29" RiffPosition="5.4375" Velocity="0" />
      <note Length="0.0208333333333333" Pitch="44" RiffPosition="5.45833333333333" Velocity="0" />
      <note Length="0.0208333333333333" Pitch="29" RiffPosition="5.47916666666666" Velocity="0" />
      <note Length="0.046875" Pitch="36" RiffPosition="5.5" Velocity="0" />
      <note Length="0.046875" Pitch="41" RiffPosition="5.546875" Velocity="0" />
      <note Length="0.015625" Pitch="34" RiffPosition="5.59375" Velocity="0" />
      <note Length="0.015625" Pitch="36" RiffPosition="5.609375" Velocity="0" />
      <note Length="0.046875" Pitch="41" RiffPosition="5.625" Velocity="0" />
      <note Length="0.015625" Pitch="41" RiffPosition="5.671875" Velocity="0" />
      <note Length="0.0208333333333333" Pitch="29" RiffPosition="5.6875" Velocity="0" />
      <note Length="0.0208333333333333" Pitch="44" RiffPosition="5.70833333333333" Velocity="0" />
      <note Length="0.0208333333333333" Pitch="29" RiffPosition="5.72916666666666" Velocity="0" />
      <note Length="0.046875" Pitch="36" RiffPosition="5.75" Velocity="0" />
      <note Length="0.046875" Pitch="41" RiffPosition="5.796875" Velocity="0" />
      <note Length="0.015625" Pitch="34" RiffPosition="5.84375" Velocity="0" />
      <note Length="0.015625" Pitch="36" RiffPosition="5.859375" Velocity="0" />
      <note Length="0.046875" Pitch="41" RiffPosition="5.875" Velocity="0" />
      <note Length="0.015625" Pitch="41" RiffPosition="5.921875" Velocity="0" />
      <note Length="0.0208333333333333" Pitch="29" RiffPosition="5.9375" Velocity="0" />
      <note Length="0.0208333333333333" Pitch="44" RiffPosition="5.95833333333333" Velocity="0" />
      <note Length="0.0208333333333333" Pitch="29" RiffPosition="5.97916666666666" Velocity="0" />
      <note Length="0.046875" Pitch="36" RiffPosition="6" Velocity="0" />
      <note Length="0.046875" Pitch="41" RiffPosition="6.046875" Velocity="12" />
      <note Length="0.015625" Pitch="34" RiffPosition="6.09375" Velocity="58" />
      <note Length="0.015625" Pitch="36" RiffPosition="6.109375" Velocity="69" />
      <note Length="0.046875" Pitch="41" RiffPosition="6.125" Velocity="127" />
      <note Length="0.015625" Pitch="41" RiffPosition="6.171875" Velocity="127" />
      <note Length="0.0208333333333333" Pitch="29" RiffPosition="6.1875" Velocity="127" />
      <note Length="0.0208333333333333" Pitch="44" RiffPosition="6.20833333333333" Velocity="58" />
      <note Length="0.0208333333333333" Pitch="29" RiffPosition="6.22916666666666" Velocity="127" />
      <note Length="0.046875" Pitch="36" RiffPosition="6.24999999999999" Velocity="12" />
      <note Length="0.046875" Pitch="41" RiffPosition="6.29687499999999" Velocity="12" />
      <note Length="0.015625" Pitch="34" RiffPosition="6.34374999999999" Velocity="58" />
      <note Length="0.015625" Pitch="36" RiffPosition="6.35937499999999" Velocity="69" />
      <note Length="0.046875" Pitch="41" RiffPosition="6.37499999999999" Velocity="127" />
      <note Length="0.015625" Pitch="41" RiffPosition="6.42187499999999" Velocity="127" />
      <note Length="0.0208333333333333" Pitch="29" RiffPosition="6.43749999999999" Velocity="127" />
      <note Length="0.0208333333333333" Pitch="44" RiffPosition="6.45833333333333" Velocity="58" />
      <note Length="0.0208333333333333" Pitch="29" RiffPosition="6.47916666666666" Velocity="127" />
      <note Length="0.046875" Pitch="36" RiffPosition="6.49999999999999" Velocity="12" />
      <note Length="0.046875" Pitch="41" RiffPosition="6.54687499999999" Velocity="12" />
      <note Length="0.015625" Pitch="34" RiffPosition="6.59374999999999" Velocity="58" />
      <note Length="0.015625" Pitch="36" RiffPosition="6.60937499999999" Velocity="69" />
      <note Length="0.046875" Pitch="41" RiffPosition="6.62499999999999" Velocity="127" />
      <note Length="0.015625" Pitch="41" RiffPosition="6.67187499999999" Velocity="127" />
      <note Length="0.0208333333333333" Pitch="29" RiffPosition="6.68749999999999" Velocity="127" />
      <note Length="0.0208333333333333" Pitch="44" RiffPosition="6.70833333333333" Velocity="58" />
      <note Length="0.0208333333333333" Pitch="29" RiffPosition="6.72916666666666" Velocity="127" />
      <note Length="0.046875" Pitch="36" RiffPosition="6.74999999999999" Velocity="12" />
      <note Length="0.046875" Pitch="41" RiffPosition="6.79687499999999" Velocity="12" />
      <note Length="0.015625" Pitch="34" RiffPosition="6.84374999999999" Velocity="58" />
      <note Length="0.015625" Pitch="36" RiffPosition="6.85937499999999" Velocity="69" />
      <note Length="0.046875" Pitch="41" RiffPosition="6.87499999999999" Velocity="127" />
      <note Length="0.015625" Pitch="41" RiffPosition="6.92187499999999" Velocity="127" />
      <note Length="0.0208333333333333" Pitch="29" RiffPosition="6.93749999999999" Velocity="127" />
      <note Length="0.0208333333333333" Pitch="44" RiffPosition="6.95833333333333" Velocity="58" />
      <note Length="0.0208333333333333" Pitch="29" RiffPosition="6.97916666666666" Velocity="127" />
      <note Length="0.046875" Pitch="36" RiffPosition="6.99999999999999" Velocity="12" />
      <note Length="0.046875" Pitch="41" RiffPosition="7.04687499999999" Velocity="12" />
      <note Length="0.015625" Pitch="34" RiffPosition="7.09374999999999" Velocity="58" />
      <note Length="0.015625" Pitch="36" RiffPosition="7.10937499999999" Velocity="69" />
      <note Length="0.046875" Pitch="41" RiffPosition="7.12499999999999" Velocity="127" />
      <note Length="0.015625" Pitch="41" RiffPosition="7.17187499999999" Velocity="127" />
      <note Length="0.0208333333333333" Pitch="29" RiffPosition="7.18749999999999" Velocity="127" />
      <note Length="0.0208333333333333" Pitch="44" RiffPosition="7.20833333333333" Velocity="58" />
      <note Length="0.0208333333333333" Pitch="29" RiffPosition="7.22916666666666" Velocity="127" />
      <note Length="0.046875" Pitch="36" RiffPosition="7.24999999999999" Velocity="12" />
      <note Length="0.046875" Pitch="41" RiffPosition="7.29687499999999" Velocity="12" />
      <note Length="0.015625" Pitch="34" RiffPosition="7.34374999999999" Velocity="58" />
      <note Length="0.015625" Pitch="36" RiffPosition="7.35937499999999" Velocity="69" />
      <note Length="0.046875" Pitch="41" RiffPosition="7.37499999999999" Velocity="127" />
      <note Length="0.015625" Pitch="41" RiffPosition="7.42187499999999" Velocity="127" />
      <note Length="0.0208333333333333" Pitch="29" RiffPosition="7.43749999999999" Velocity="127" />
      <note Length="0.0208333333333333" Pitch="44" RiffPosition="7.45833333333332" Velocity="58" />
      <note Length="0.0208333333333333" Pitch="29" RiffPosition="7.47916666666666" Velocity="127" />
      <note Length="0.046875" Pitch="36" RiffPosition="7.49999999999999" Velocity="12" />
      <note Length="0.046875" Pitch="41" RiffPosition="7.54687499999999" Velocity="12" />
      <note Length="0.015625" Pitch="34" RiffPosition="7.59374999999999" Velocity="58" />
      <note Length="0.015625" Pitch="36" RiffPosition="7.60937499999999" Velocity="69" />
      <note Length="0.046875" Pitch="41" RiffPosition="7.62499999999999" Velocity="127" />
      <note Length="0.015625" Pitch="41" RiffPosition="7.67187499999999" Velocity="127" />
      <note Length="0.0208333333333333" Pitch="29" RiffPosition="7.68749999999999" Velocity="127" />
      <note Length="0.0208333333333333" Pitch="44" RiffPosition="7.70833333333332" Velocity="58" />
      <note Length="0.0208333333333333" Pitch="29" RiffPosition="7.72916666666666" Velocity="127" />
      <note Length="0.046875" Pitch="36" RiffPosition="7.74999999999999" Velocity="12" />
      <note Length="0.046875" Pitch="41" RiffPosition="7.79687499999999" Velocity="12" />
      <note Length="0.015625" Pitch="34" RiffPosition="7.84374999999999" Velocity="58" />
      <note Length="0.015625" Pitch="36" RiffPosition="7.85937499999999" Velocity="69" />
      <note Length="0.046875" Pitch="41" RiffPosition="7.87499999999999" Velocity="127" />
      <note Length="0.015625" Pitch="41" RiffPosition="7.92187499999999" Velocity="127" />
      <note Length="0.0208333333333333" Pitch="29" RiffPosition="7.93749999999999" Velocity="127" />
      <note Length="0.0208333333333333" Pitch="44" RiffPosition="7.95833333333332" Velocity="58" />
      <note Length="0.0208333333333333" Pitch="29" RiffPosition="7.97916666666666" Velocity="127" />
      <note Length="0.046875" Pitch="36" RiffPosition="7.99999999999999" Velocity="12" />
      <note Length="0.046875" Pitch="39" RiffPosition="8.04687499999999" Velocity="12" />
      <note Length="0.015625" Pitch="32" RiffPosition="8.09374999999999" Velocity="58" />
      <note Length="0.015625" Pitch="34" RiffPosition="8.10937499999999" Velocity="69" />
      <note Length="0.046875" Pitch="39" RiffPosition="8.12499999999999" Velocity="127" />
      <note Length="0.015625" Pitch="39" RiffPosition="8.17187499999999" Velocity="127" />
      <note Length="0.0208333333333333" Pitch="27" RiffPosition="8.18749999999999" Velocity="127" />
      <note Length="0.0208333333333333" Pitch="42" RiffPosition="8.20833333333332" Velocity="58" />
      <note Length="0.0208333333333333" Pitch="27" RiffPosition="8.22916666666666" Velocity="127" />
      <note Length="0.046875" Pitch="34" RiffPosition="8.24999999999999" Velocity="12" />
      <note Length="0.046875" Pitch="39" RiffPosition="8.29687499999999" Velocity="12" />
      <note Length="0.015625" Pitch="32" RiffPosition="8.34374999999999" Velocity="58" />
      <note Length="0.015625" Pitch="34" RiffPosition="8.35937499999999" Velocity="69" />
      <note Length="0.046875" Pitch="39" RiffPosition="8.37499999999999" Velocity="127" />
      <note Length="0.015625" Pitch="39" RiffPosition="8.42187499999999" Velocity="127" />
      <note Length="0.0208333333333333" Pitch="27" RiffPosition="8.43749999999999" Velocity="127" />
      <note Length="0.0208333333333333" Pitch="42" RiffPosition="8.45833333333333" Velocity="58" />
      <note Length="0.0208333333333333" Pitch="27" RiffPosition="8.47916666666666" Velocity="127" />
      <note Length="0.046875" Pitch="34" RiffPosition="8.49999999999999" Velocity="12" />
      <note Length="0.046875" Pitch="39" RiffPosition="8.54687499999999" Velocity="12" />
      <note Length="0.015625" Pitch="32" RiffPosition="8.59374999999999" Velocity="58" />
      <note Length="0.015625" Pitch="34" RiffPosition="8.60937499999999" Velocity="69" />
      <note Length="0.046875" Pitch="39" RiffPosition="8.62499999999999" Velocity="127" />
      <note Length="0.015625" Pitch="39" RiffPosition="8.67187499999999" Velocity="127" />
      <note Length="0.0208333333333333" Pitch="27" RiffPosition="8.68749999999999" Velocity="127" />
      <note Length="0.0208333333333333" Pitch="42" RiffPosition="8.70833333333333" Velocity="58" />
      <note Length="0.0208333333333333" Pitch="27" RiffPosition="8.72916666666666" Velocity="127" />
      <note Length="0.046875" Pitch="34" RiffPosition="8.74999999999999" Velocity="12" />
      <note Length="0.046875" Pitch="39" RiffPosition="8.79687499999999" Velocity="12" />
      <note Length="0.015625" Pitch="32" RiffPosition="8.84374999999999" Velocity="58" />
      <note Length="0.015625" Pitch="34" RiffPosition="8.85937499999999" Velocity="69" />
      <note Length="0.046875" Pitch="39" RiffPosition="8.87499999999999" Velocity="127" />
      <note Length="0.015625" Pitch="39" RiffPosition="8.92187499999999" Velocity="127" />
      <note Length="0.0208333333333333" Pitch="27" RiffPosition="8.93749999999999" Velocity="127" />
      <note Length="0.0208333333333333" Pitch="42" RiffPosition="8.95833333333333" Velocity="58" />
      <note Length="0.0208333333333333" Pitch="27" RiffPosition="8.97916666666666" Velocity="127" />
      <note Length="0.046875" Pitch="34" RiffPosition="9" Velocity="12" />
      <note Length="0.046875" Pitch="41" RiffPosition="9.046875" Velocity="12" />
      <note Length="0.015625" Pitch="34" RiffPosition="9.09375" Velocity="58" />
      <note Length="0.015625" Pitch="36" RiffPosition="9.109375" Velocity="69" />
      <note Length="0.046875" Pitch="41" RiffPosition="9.125" Velocity="127" />
      <note Length="0.015625" Pitch="41" RiffPosition="9.171875" Velocity="127" />
      <note Length="0.0208333333333333" Pitch="29" RiffPosition="9.1875" Velocity="127" />
      <note Length="0.0208333333333333" Pitch="44" RiffPosition="9.20833333333333" Velocity="58" />
      <note Length="0.0208333333333333" Pitch="29" RiffPosition="9.22916666666666" Velocity="127" />
      <note Length="0.046875" Pitch="36" RiffPosition="9.25" Velocity="12" />
      <note Length="0.046875" Pitch="41" RiffPosition="9.296875" Velocity="12" />
      <note Length="0.015625" Pitch="34" RiffPosition="9.34375" Velocity="58" />
      <note Length="0.015625" Pitch="36" RiffPosition="9.359375" Velocity="69" />
      <note Length="0.046875" Pitch="41" RiffPosition="9.375" Velocity="127" />
      <note Length="0.015625" Pitch="41" RiffPosition="9.421875" Velocity="127" />
      <note Length="0.0208333333333333" Pitch="29" RiffPosition="9.4375" Velocity="127" />
      <note Length="0.0208333333333333" Pitch="44" RiffPosition="9.45833333333333" Velocity="58" />
      <note Length="0.0208333333333333" Pitch="29" RiffPosition="9.47916666666667" Velocity="127" />
      <note Length="0.046875" Pitch="36" RiffPosition="9.5" Velocity="12" />
      <note Length="0.046875" Pitch="41" RiffPosition="9.546875" Velocity="12" />
      <note Length="0.015625" Pitch="34" RiffPosition="9.59375" Velocity="58" />
      <note Length="0.015625" Pitch="36" RiffPosition="9.609375" Velocity="69" />
      <note Length="0.046875" Pitch="41" RiffPosition="9.625" Velocity="127" />
      <note Length="0.015625" Pitch="41" RiffPosition="9.671875" Velocity="127" />
      <note Length="0.0208333333333333" Pitch="29" RiffPosition="9.6875" Velocity="127" />
      <note Length="0.0208333333333333" Pitch="44" RiffPosition="9.70833333333333" Velocity="58" />
      <note Length="0.0208333333333333" Pitch="29" RiffPosition="9.72916666666667" Velocity="127" />
      <note Length="0.046875" Pitch="36" RiffPosition="9.75" Velocity="12" />
      <note Length="0.046875" Pitch="41" RiffPosition="9.796875" Velocity="12" />
      <note Length="0.015625" Pitch="34" RiffPosition="9.84375" Velocity="58" />
      <note Length="0.015625" Pitch="36" RiffPosition="9.859375" Velocity="69" />
      <note Length="0.046875" Pitch="41" RiffPosition="9.875" Velocity="127" />
      <note Length="0.015625" Pitch="41" RiffPosition="9.921875" Velocity="127" />
      <note Length="0.0208333333333333" Pitch="29" RiffPosition="9.9375" Velocity="127" />
      <note Length="0.0208333333333333" Pitch="44" RiffPosition="9.95833333333334" Velocity="58" />
      <note Length="0.0208333333333333" Pitch="29" RiffPosition="9.97916666666667" Velocity="127" />
      <note Length="0.046875" Pitch="34" RiffPosition="10" Velocity="12" />
      <note Length="0.046875" Pitch="39" RiffPosition="10.046875" Velocity="12" />
      <note Length="0.015625" Pitch="32" RiffPosition="10.09375" Velocity="58" />
      <note Length="0.015625" Pitch="34" RiffPosition="10.109375" Velocity="69" />
      <note Length="0.046875" Pitch="39" RiffPosition="10.125" Velocity="127" />
      <note Length="0.015625" Pitch="39" RiffPosition="10.171875" Velocity="127" />
      <note Length="0.0208333333333333" Pitch="27" RiffPosition="10.1875" Velocity="127" />
      <note Length="0.0208333333333333" Pitch="42" RiffPosition="10.2083333333333" Velocity="58" />
      <note Length="0.0208333333333333" Pitch="27" RiffPosition="10.2291666666667" Velocity="127" />
      <note Length="0.046875" Pitch="34" RiffPosition="10.25" Velocity="12" />
      <note Length="0.046875" Pitch="39" RiffPosition="10.296875" Velocity="12" />
      <note Length="0.015625" Pitch="32" RiffPosition="10.34375" Velocity="58" />
      <note Length="0.015625" Pitch="34" RiffPosition="10.359375" Velocity="69" />
      <note Length="0.046875" Pitch="39" RiffPosition="10.375" Velocity="127" />
      <note Length="0.015625" Pitch="39" RiffPosition="10.421875" Velocity="127" />
      <note Length="0.0208333333333333" Pitch="27" RiffPosition="10.4375" Velocity="127" />
      <note Length="0.0208333333333333" Pitch="42" RiffPosition="10.4583333333333" Velocity="58" />
      <note Length="0.0208333333333333" Pitch="27" RiffPosition="10.4791666666667" Velocity="127" />
      <note Length="0.046875" Pitch="34" RiffPosition="10.5" Velocity="12" />
      <note Length="0.046875" Pitch="39" RiffPosition="10.546875" Velocity="12" />
      <note Length="0.015625" Pitch="32" RiffPosition="10.59375" Velocity="58" />
      <note Length="0.015625" Pitch="34" RiffPosition="10.609375" Velocity="69" />
      <note Length="0.046875" Pitch="39" RiffPosition="10.625" Velocity="127" />
      <note Length="0.015625" Pitch="39" RiffPosition="10.671875" Velocity="127" />
      <note Length="0.0208333333333333" Pitch="27" RiffPosition="10.6875" Velocity="127" />
      <note Length="0.0208333333333333" Pitch="42" RiffPosition="10.7083333333333" Velocity="58" />
      <note Length="0.0208333333333333" Pitch="27" RiffPosition="10.7291666666667" Velocity="127" />
      <note Length="0.046875" Pitch="34" RiffPosition="10.75" Velocity="12" />
      <note Length="0.046875" Pitch="39" RiffPosition="10.796875" Velocity="12" />
      <note Length="0.015625" Pitch="32" RiffPosition="10.84375" Velocity="58" />
      <note Length="0.015625" Pitch="34" RiffPosition="10.859375" Velocity="69" />
      <note Length="0.046875" Pitch="39" RiffPosition="10.875" Velocity="127" />
      <note Length="0.015625" Pitch="39" RiffPosition="10.921875" Velocity="127" />
      <note Length="0.0208333333333333" Pitch="27" RiffPosition="10.9375" Velocity="127" />
      <note Length="0.0208333333333333" Pitch="42" RiffPosition="10.9583333333333" Velocity="58" />
      <note Length="0.0208333333333333" Pitch="27" RiffPosition="10.9791666666667" Velocity="127" />
      <note Length="0.046875" Pitch="37" RiffPosition="11" Velocity="12" />
      <note Length="0.046875" Pitch="42" RiffPosition="11.046875" Velocity="12" />
      <note Length="0.015625" Pitch="35" RiffPosition="11.09375" Velocity="58" />
      <note Length="0.015625" Pitch="37" RiffPosition="11.109375" Velocity="69" />
      <note Length="0.046875" Pitch="42" RiffPosition="11.125" Velocity="127" />
      <note Length="0.015625" Pitch="42" RiffPosition="11.171875" Velocity="127" />
      <note Length="0.0208333333333333" Pitch="30" RiffPosition="11.1875" Velocity="127" />
      <note Length="0.0208333333333333" Pitch="45" RiffPosition="11.2083333333333" Velocity="58" />
      <note Length="0.0208333333333333" Pitch="30" RiffPosition="11.2291666666667" Velocity="127" />
      <note Length="0.046875" Pitch="37" RiffPosition="11.25" Velocity="12" />
      <note Length="0.046875" Pitch="42" RiffPosition="11.296875" Velocity="12" />
      <note Length="0.015625" Pitch="35" RiffPosition="11.34375" Velocity="58" />
      <note Length="0.015625" Pitch="37" RiffPosition="11.359375" Velocity="69" />
      <note Length="0.046875" Pitch="42" RiffPosition="11.375" Velocity="127" />
      <note Length="0.015625" Pitch="42" RiffPosition="11.421875" Velocity="127" />
      <note Length="0.0208333333333333" Pitch="30" RiffPosition="11.4375" Velocity="127" />
      <note Length="0.0208333333333333" Pitch="45" RiffPosition="11.4583333333333" Velocity="58" />
      <note Length="0.0208333333333333" Pitch="30" RiffPosition="11.4791666666667" Velocity="127" />
      <note Length="0.046875" Pitch="37" RiffPosition="11.5" Velocity="12" />
      <note Length="0.046875" Pitch="42" RiffPosition="11.546875" Velocity="12" />
      <note Length="0.015625" Pitch="35" RiffPosition="11.59375" Velocity="58" />
      <note Length="0.015625" Pitch="37" RiffPosition="11.609375" Velocity="69" />
      <note Length="0.046875" Pitch="42" RiffPosition="11.625" Velocity="127" />
      <note Length="0.015625" Pitch="42" RiffPosition="11.671875" Velocity="127" />
      <note Length="0.0208333333333333" Pitch="30" RiffPosition="11.6875" Velocity="127" />
      <note Length="0.0208333333333333" Pitch="45" RiffPosition="11.7083333333333" Velocity="58" />
      <note Length="0.0208333333333333" Pitch="30" RiffPosition="11.7291666666667" Velocity="127" />
      <note Length="0.046875" Pitch="37" RiffPosition="11.75" Velocity="12" />
      <note Length="0.046875" Pitch="42" RiffPosition="11.796875" Velocity="12" />
      <note Length="0.015625" Pitch="35" RiffPosition="11.84375" Velocity="58" />
      <note Length="0.015625" Pitch="37" RiffPosition="11.859375" Velocity="69" />
      <note Length="0.046875" Pitch="42" RiffPosition="11.875" Velocity="127" />
      <note Length="0.015625" Pitch="42" RiffPosition="11.921875" Velocity="127" />
      <note Length="0.0208333333333333" Pitch="30" RiffPosition="11.9375" Velocity="127" />
      <note Length="0.0208333333333333" Pitch="45" RiffPosition="11.9583333333333" Velocity="58" />
      <note Length="0.0208333333333333" Pitch="30" RiffPosition="11.9791666666667" Velocity="127" />
      <note Length="0.046875" Pitch="36" RiffPosition="12" Velocity="12" />
      <note Length="0.046875" Pitch="41" RiffPosition="12.046875" Velocity="12" />
      <note Length="0.015625" Pitch="34" RiffPosition="12.09375" Velocity="58" />
      <note Length="0.015625" Pitch="36" RiffPosition="12.109375" Velocity="69" />
      <note Length="0.046875" Pitch="41" RiffPosition="12.125" Velocity="127" />
      <note Length="0.015625" Pitch="41" RiffPosition="12.171875" Velocity="127" />
      <note Length="0.0208333333333333" Pitch="29" RiffPosition="12.1875" Velocity="127" />
      <note Length="0.0208333333333333" Pitch="44" RiffPosition="12.2083333333334" Velocity="58" />
      <note Length="0.0208333333333333" Pitch="29" RiffPosition="12.2291666666667" Velocity="127" />
      <note Length="0.046875" Pitch="36" RiffPosition="12.25" Velocity="12" />
      <note Length="0.046875" Pitch="41" RiffPosition="12.296875" Velocity="12" />
      <note Length="0.015625" Pitch="34" RiffPosition="12.34375" Velocity="58" />
      <note Length="0.015625" Pitch="36" RiffPosition="12.359375" Velocity="69" />
      <note Length="0.046875" Pitch="41" RiffPosition="12.375" Velocity="127" />
      <note Length="0.015625" Pitch="41" RiffPosition="12.421875" Velocity="127" />
      <note Length="0.0208333333333333" Pitch="29" RiffPosition="12.4375" Velocity="127" />
      <note Length="0.0208333333333333" Pitch="44" RiffPosition="12.4583333333334" Velocity="58" />
      <note Length="0.0208333333333333" Pitch="29" RiffPosition="12.4791666666667" Velocity="127" />
      <note Length="0.046875" Pitch="36" RiffPosition="12.5" Velocity="12" />
      <note Length="0.046875" Pitch="41" RiffPosition="12.546875" Velocity="12" />
      <note Length="0.015625" Pitch="34" RiffPosition="12.59375" Velocity="58" />
      <note Length="0.015625" Pitch="36" RiffPosition="12.609375" Velocity="69" />
      <note Length="0.046875" Pitch="41" RiffPosition="12.625" Velocity="127" />
      <note Length="0.015625" Pitch="41" RiffPosition="12.671875" Velocity="127" />
      <note Length="0.0208333333333333" Pitch="29" RiffPosition="12.6875" Velocity="127" />
      <note Length="0.0208333333333333" Pitch="44" RiffPosition="12.7083333333334" Velocity="58" />
      <note Length="0.0208333333333333" Pitch="29" RiffPosition="12.7291666666667" Velocity="127" />
      <note Length="0.046875" Pitch="36" RiffPosition="12.75" Velocity="12" />
      <note Length="0.046875" Pitch="41" RiffPosition="12.796875" Velocity="12" />
      <note Length="0.015625" Pitch="34" RiffPosition="12.84375" Velocity="58" />
      <note Length="0.015625" Pitch="36" RiffPosition="12.859375" Velocity="69" />
      <note Length="0.046875" Pitch="41" RiffPosition="12.875" Velocity="127" />
      <note Length="0.015625" Pitch="41" RiffPosition="12.921875" Velocity="127" />
      <note Length="0.0208333333333333" Pitch="29" RiffPosition="12.9375" Velocity="127" />
      <note Length="0.0208333333333333" Pitch="44" RiffPosition="12.9583333333334" Velocity="58" />
      <note Length="0.0208333333333333" Pitch="29" RiffPosition="12.9791666666667" Velocity="127" />
      <note Length="0.046875" Pitch="36" RiffPosition="13" Velocity="12" />
      <note Length="0.046875" Pitch="41" RiffPosition="13.046875" Velocity="12" />
      <note Length="0.015625" Pitch="34" RiffPosition="13.09375" Velocity="58" />
      <note Length="0.015625" Pitch="36" RiffPosition="13.109375" Velocity="69" />
      <note Length="0.046875" Pitch="41" RiffPosition="13.125" Velocity="127" />
      <note Length="0.015625" Pitch="41" RiffPosition="13.171875" Velocity="127" />
      <note Length="0.0208333333333333" Pitch="29" RiffPosition="13.1875" Velocity="127" />
      <note Length="0.0208333333333333" Pitch="44" RiffPosition="13.2083333333334" Velocity="58" />
      <note Length="0.0208333333333333" Pitch="29" RiffPosition="13.2291666666667" Velocity="127" />
      <note Length="0.046875" Pitch="36" RiffPosition="13.25" Velocity="12" />
      <note Length="0.046875" Pitch="41" RiffPosition="13.296875" Velocity="12" />
      <note Length="0.015625" Pitch="34" RiffPosition="13.34375" Velocity="58" />
      <note Length="0.015625" Pitch="36" RiffPosition="13.359375" Velocity="69" />
      <note Length="0.046875" Pitch="41" RiffPosition="13.375" Velocity="127" />
      <note Length="0.015625" Pitch="41" RiffPosition="13.421875" Velocity="127" />
      <note Length="0.0208333333333333" Pitch="29" RiffPosition="13.4375" Velocity="127" />
      <note Length="0.0208333333333333" Pitch="44" RiffPosition="13.4583333333334" Velocity="58" />
      <note Length="0.0208333333333333" Pitch="29" RiffPosition="13.4791666666667" Velocity="127" />
      <note Length="0.046875" Pitch="36" RiffPosition="13.5" Velocity="12" />
      <note Length="0.046875" Pitch="41" RiffPosition="13.546875" Velocity="12" />
      <note Length="0.015625" Pitch="34" RiffPosition="13.59375" Velocity="58" />
      <note Length="0.015625" Pitch="36" RiffPosition="13.609375" Velocity="69" />
      <note Length="0.046875" Pitch="41" RiffPosition="13.625" Velocity="127" />
      <note Length="0.015625" Pitch="41" RiffPosition="13.671875" Velocity="127" />
      <note Length="0.0208333333333333" Pitch="29" RiffPosition="13.6875" Velocity="127" />
      <note Length="0.0208333333333333" Pitch="44" RiffPosition="13.7083333333334" Velocity="58" />
      <note Length="0.0208333333333333" Pitch="29" RiffPosition="13.7291666666667" Velocity="127" />
      <note Length="0.046875" Pitch="36" RiffPosition="13.75" Velocity="12" />
      <note Length="0.046875" Pitch="41" RiffPosition="13.796875" Velocity="12" />
      <note Length="0.015625" Pitch="34" RiffPosition="13.84375" Velocity="58" />
      <note Length="0.015625" Pitch="36" RiffPosition="13.859375" Velocity="69" />
      <note Length="0.046875" Pitch="41" RiffPosition="13.875" Velocity="127" />
      <note Length="0.015625" Pitch="41" RiffPosition="13.921875" Velocity="127" />
      <note Length="0.0208333333333333" Pitch="29" RiffPosition="13.9375" Velocity="127" />
      <note Length="0.0208333333333333" Pitch="44" RiffPosition="13.9583333333334" Velocity="58" />
      <note Length="0.020833333333302" Pitch="29" RiffPosition="13.9791666666667" Velocity="127" />
    </riff>
    <riff IsDrum="False" MidiInstrument="117" Tempo="97" Length="14">
      <note Length="0.0208333333333333" Pitch="42" RiffPosition="0" Velocity="0" />
      <note Length="0.0208333333333333" Pitch="27" RiffPosition="0.0208333333333333" Velocity="0" />
      <note Length="0.0208333333333333" Pitch="34" RiffPosition="0.0416666666666667" Velocity="0" />
      <note Length="0.0208333333333333" Pitch="41" RiffPosition="0.0625" Velocity="0" />
      <note Length="0.0208333333333333" Pitch="39" RiffPosition="0.0833333333333333" Velocity="0" />
      <note Length="0.0208333333333333" Pitch="39" RiffPosition="0.104166666666667" Velocity="0" />
      <note Length="0.0208333333333333" Pitch="30" RiffPosition="0.125" Velocity="0" />
      <note Length="0.0208333333333333" Pitch="27" RiffPosition="0.145833333333333" Velocity="0" />
      <note Length="0.0208333333333333" Pitch="44" RiffPosition="0.166666666666667" Velocity="0" />
      <note Length="0.0208333333333333" Pitch="41" RiffPosition="0.1875" Velocity="0" />
      <note Length="0.0208333333333333" Pitch="35" RiffPosition="0.208333333333333" Velocity="0" />
      <note Length="0.0208333333333333" Pitch="39" RiffPosition="0.229166666666667" Velocity="0" />
      <note Length="0.0208333333333333" Pitch="42" RiffPosition="0.25" Velocity="0" />
      <note Length="0.0208333333333333" Pitch="27" RiffPosition="0.270833333333333" Velocity="0" />
      <note Length="0.0208333333333333" Pitch="34" RiffPosition="0.291666666666667" Velocity="0" />
      <note Length="0.0208333333333333" Pitch="41" RiffPosition="0.3125" Velocity="0" />
      <note Length="0.0208333333333333" Pitch="39" RiffPosition="0.333333333333333" Velocity="0" />
      <note Length="0.0208333333333333" Pitch="39" RiffPosition="0.354166666666667" Velocity="0" />
      <note Length="0.0208333333333333" Pitch="30" RiffPosition="0.375" Velocity="0" />
      <note Length="0.0208333333333333" Pitch="27" RiffPosition="0.395833333333333" Velocity="0" />
      <note Length="0.0208333333333333" Pitch="44" RiffPosition="0.416666666666667" Velocity="0" />
      <note Length="0.0208333333333333" Pitch="41" RiffPosition="0.4375" Velocity="0" />
      <note Length="0.0208333333333333" Pitch="35" RiffPosition="0.458333333333333" Velocity="0" />
      <note Length="0.0208333333333333" Pitch="39" RiffPosition="0.479166666666666" Velocity="0" />
      <note Length="0.0208333333333333" Pitch="42" RiffPosition="0.5" Velocity="0" />
      <note Length="0.0208333333333333" Pitch="27" RiffPosition="0.520833333333333" Velocity="0" />
      <note Length="0.0208333333333333" Pitch="34" RiffPosition="0.541666666666667" Velocity="0" />
      <note Length="0.0208333333333333" Pitch="41" RiffPosition="0.5625" Velocity="0" />
      <note Length="0.0208333333333333" Pitch="39" RiffPosition="0.583333333333333" Velocity="0" />
      <note Length="0.0208333333333333" Pitch="39" RiffPosition="0.604166666666667" Velocity="0" />
      <note Length="0.0208333333333333" Pitch="30" RiffPosition="0.625" Velocity="0" />
      <note Length="0.0208333333333333" Pitch="27" RiffPosition="0.645833333333333" Velocity="0" />
      <note Length="0.0208333333333333" Pitch="44" RiffPosition="0.666666666666667" Velocity="0" />
      <note Length="0.0208333333333333" Pitch="41" RiffPosition="0.6875" Velocity="0" />
      <note Length="0.0208333333333333" Pitch="35" RiffPosition="0.708333333333333" Velocity="0" />
      <note Length="0.0208333333333333" Pitch="39" RiffPosition="0.729166666666667" Velocity="0" />
      <note Length="0.0208333333333333" Pitch="42" RiffPosition="0.75" Velocity="0" />
      <note Length="0.0208333333333333" Pitch="27" RiffPosition="0.770833333333334" Velocity="0" />
      <note Length="0.0208333333333333" Pitch="34" RiffPosition="0.791666666666667" Velocity="0" />
      <note Length="0.0208333333333333" Pitch="41" RiffPosition="0.8125" Velocity="0" />
      <note Length="0.0208333333333333" Pitch="39" RiffPosition="0.833333333333334" Velocity="0" />
      <note Length="0.0208333333333333" Pitch="39" RiffPosition="0.854166666666667" Velocity="0" />
      <note Length="0.0208333333333333" Pitch="30" RiffPosition="0.875" Velocity="0" />
      <note Length="0.0208333333333333" Pitch="27" RiffPosition="0.895833333333334" Velocity="0" />
      <note Length="0.0208333333333333" Pitch="44" RiffPosition="0.916666666666667" Velocity="0" />
      <note Length="0.0208333333333333" Pitch="41" RiffPosition="0.937500000000001" Velocity="0" />
      <note Length="0.0208333333333333" Pitch="35" RiffPosition="0.958333333333334" Velocity="0" />
      <note Length="0.0208333333333333" Pitch="39" RiffPosition="0.979166666666667" Velocity="0" />
      <note Length="0.0208333333333333" Pitch="44" RiffPosition="1" Velocity="54" />
      <note Length="0.0208333333333333" Pitch="29" RiffPosition="1.02083333333333" Velocity="67" />
      <note Length="0.0208333333333333" Pitch="36" RiffPosition="1.04166666666667" Velocity="13" />
      <note Length="0.0208333333333333" Pitch="43" RiffPosition="1.0625" Velocity="89" />
      <note Length="0.0208333333333333" Pitch="41" RiffPosition="1.08333333333333" Velocity="102" />
      <note Length="0.0208333333333333" Pitch="41" RiffPosition="1.10416666666667" Velocity="22" />
      <note Length="0.0208333333333333" Pitch="32" RiffPosition="1.125" Velocity="123" />
      <note Length="0.0208333333333333" Pitch="29" RiffPosition="1.14583333333333" Velocity="67" />
      <note Length="0.0208333333333333" Pitch="46" RiffPosition="1.16666666666667" Velocity="56" />
      <note Length="0.0208333333333333" Pitch="43" RiffPosition="1.1875" Velocity="89" />
      <note Length="0.0208333333333333" Pitch="37" RiffPosition="1.20833333333333" Velocity="32" />
      <note Length="0.0208333333333333" Pitch="41" RiffPosition="1.22916666666667" Velocity="22" />
      <note Length="0.0208333333333333" Pitch="44" RiffPosition="1.25" Velocity="54" />
      <note Length="0.0208333333333333" Pitch="29" RiffPosition="1.27083333333333" Velocity="67" />
      <note Length="0.0208333333333333" Pitch="36" RiffPosition="1.29166666666667" Velocity="13" />
      <note Length="0.0208333333333333" Pitch="43" RiffPosition="1.3125" Velocity="89" />
      <note Length="0.0208333333333333" Pitch="41" RiffPosition="1.33333333333333" Velocity="102" />
      <note Length="0.0208333333333333" Pitch="41" RiffPosition="1.35416666666667" Velocity="22" />
      <note Length="0.0208333333333333" Pitch="32" RiffPosition="1.375" Velocity="123" />
      <note Length="0.0208333333333333" Pitch="29" RiffPosition="1.39583333333333" Velocity="67" />
      <note Length="0.0208333333333333" Pitch="46" RiffPosition="1.41666666666667" Velocity="56" />
      <note Length="0.0208333333333333" Pitch="43" RiffPosition="1.4375" Velocity="89" />
      <note Length="0.0208333333333333" Pitch="37" RiffPosition="1.45833333333333" Velocity="32" />
      <note Length="0.0208333333333333" Pitch="41" RiffPosition="1.47916666666667" Velocity="22" />
      <note Length="0.0208333333333333" Pitch="44" RiffPosition="1.5" Velocity="54" />
      <note Length="0.0208333333333333" Pitch="29" RiffPosition="1.52083333333333" Velocity="67" />
      <note Length="0.0208333333333333" Pitch="36" RiffPosition="1.54166666666667" Velocity="13" />
      <note Length="0.0208333333333333" Pitch="43" RiffPosition="1.5625" Velocity="89" />
      <note Length="0.0208333333333333" Pitch="41" RiffPosition="1.58333333333333" Velocity="102" />
      <note Length="0.0208333333333333" Pitch="41" RiffPosition="1.60416666666667" Velocity="22" />
      <note Length="0.0208333333333333" Pitch="32" RiffPosition="1.625" Velocity="123" />
      <note Length="0.0208333333333333" Pitch="29" RiffPosition="1.64583333333333" Velocity="67" />
      <note Length="0.0208333333333333" Pitch="46" RiffPosition="1.66666666666666" Velocity="56" />
      <note Length="0.0208333333333333" Pitch="43" RiffPosition="1.6875" Velocity="89" />
      <note Length="0.0208333333333333" Pitch="37" RiffPosition="1.70833333333333" Velocity="32" />
      <note Length="0.0208333333333333" Pitch="41" RiffPosition="1.72916666666666" Velocity="22" />
      <note Length="0.0208333333333333" Pitch="44" RiffPosition="1.75" Velocity="54" />
      <note Length="0.0208333333333333" Pitch="29" RiffPosition="1.77083333333333" Velocity="67" />
      <note Length="0.0208333333333333" Pitch="36" RiffPosition="1.79166666666666" Velocity="13" />
      <note Length="0.0208333333333333" Pitch="43" RiffPosition="1.8125" Velocity="89" />
      <note Length="0.0208333333333333" Pitch="41" RiffPosition="1.83333333333333" Velocity="102" />
      <note Length="0.0208333333333333" Pitch="41" RiffPosition="1.85416666666666" Velocity="22" />
      <note Length="0.0208333333333333" Pitch="32" RiffPosition="1.875" Velocity="123" />
      <note Length="0.0208333333333333" Pitch="29" RiffPosition="1.89583333333333" Velocity="67" />
      <note Length="0.0208333333333333" Pitch="46" RiffPosition="1.91666666666666" Velocity="56" />
      <note Length="0.0208333333333333" Pitch="43" RiffPosition="1.9375" Velocity="89" />
      <note Length="0.0208333333333333" Pitch="37" RiffPosition="1.95833333333333" Velocity="32" />
      <note Length="0.0208333333333333" Pitch="41" RiffPosition="1.97916666666666" Velocity="22" />
      <note Length="0.0208333333333333" Pitch="44" RiffPosition="2" Velocity="54" />
      <note Length="0.0208333333333333" Pitch="27" RiffPosition="2.02083333333333" Velocity="67" />
      <note Length="0.0208333333333333" Pitch="34" RiffPosition="2.04166666666666" Velocity="13" />
      <note Length="0.0208333333333333" Pitch="41" RiffPosition="2.0625" Velocity="89" />
      <note Length="0.0208333333333333" Pitch="39" RiffPosition="2.08333333333333" Velocity="102" />
      <note Length="0.0208333333333333" Pitch="39" RiffPosition="2.10416666666666" Velocity="22" />
      <note Length="0.0208333333333333" Pitch="30" RiffPosition="2.125" Velocity="123" />
      <note Length="0.0208333333333333" Pitch="27" RiffPosition="2.14583333333333" Velocity="67" />
      <note Length="0.0208333333333333" Pitch="44" RiffPosition="2.16666666666666" Velocity="56" />
      <note Length="0.0208333333333333" Pitch="41" RiffPosition="2.1875" Velocity="89" />
      <note Length="0.0208333333333333" Pitch="35" RiffPosition="2.20833333333333" Velocity="32" />
      <note Length="0.0208333333333333" Pitch="39" RiffPosition="2.22916666666667" Velocity="22" />
      <note Length="0.0208333333333333" Pitch="42" RiffPosition="2.25" Velocity="54" />
      <note Length="0.0208333333333333" Pitch="27" RiffPosition="2.27083333333333" Velocity="67" />
      <note Length="0.0208333333333333" Pitch="34" RiffPosition="2.29166666666667" Velocity="13" />
      <note Length="0.0208333333333333" Pitch="41" RiffPosition="2.3125" Velocity="89" />
      <note Length="0.0208333333333333" Pitch="39" RiffPosition="2.33333333333333" Velocity="102" />
      <note Length="0.0208333333333333" Pitch="39" RiffPosition="2.35416666666667" Velocity="22" />
      <note Length="0.0208333333333333" Pitch="30" RiffPosition="2.375" Velocity="123" />
      <note Length="0.0208333333333333" Pitch="27" RiffPosition="2.39583333333333" Velocity="67" />
      <note Length="0.0208333333333333" Pitch="44" RiffPosition="2.41666666666667" Velocity="56" />
      <note Length="0.0208333333333333" Pitch="41" RiffPosition="2.4375" Velocity="89" />
      <note Length="0.0208333333333333" Pitch="35" RiffPosition="2.45833333333333" Velocity="32" />
      <note Length="0.0208333333333333" Pitch="39" RiffPosition="2.47916666666667" Velocity="22" />
      <note Length="0.0208333333333333" Pitch="42" RiffPosition="2.5" Velocity="54" />
      <note Length="0.0208333333333333" Pitch="27" RiffPosition="2.52083333333333" Velocity="67" />
      <note Length="0.0208333333333333" Pitch="34" RiffPosition="2.54166666666667" Velocity="13" />
      <note Length="0.0208333333333333" Pitch="41" RiffPosition="2.5625" Velocity="89" />
      <note Length="0.0208333333333333" Pitch="39" RiffPosition="2.58333333333333" Velocity="102" />
      <note Length="0.0208333333333333" Pitch="39" RiffPosition="2.60416666666667" Velocity="22" />
      <note Length="0.0208333333333333" Pitch="30" RiffPosition="2.625" Velocity="123" />
      <note Length="0.0208333333333333" Pitch="27" RiffPosition="2.64583333333333" Velocity="67" />
      <note Length="0.0208333333333333" Pitch="44" RiffPosition="2.66666666666667" Velocity="56" />
      <note Length="0.0208333333333333" Pitch="41" RiffPosition="2.6875" Velocity="89" />
      <note Length="0.0208333333333333" Pitch="35" RiffPosition="2.70833333333334" Velocity="32" />
      <note Length="0.0208333333333333" Pitch="39" RiffPosition="2.72916666666667" Velocity="22" />
      <note Length="0.0208333333333333" Pitch="42" RiffPosition="2.75" Velocity="54" />
      <note Length="0.0208333333333333" Pitch="27" RiffPosition="2.77083333333334" Velocity="67" />
      <note Length="0.0208333333333333" Pitch="34" RiffPosition="2.79166666666667" Velocity="13" />
      <note Length="0.0208333333333333" Pitch="41" RiffPosition="2.8125" Velocity="89" />
      <note Length="0.0208333333333333" Pitch="39" RiffPosition="2.83333333333334" Velocity="102" />
      <note Length="0.0208333333333333" Pitch="39" RiffPosition="2.85416666666667" Velocity="22" />
      <note Length="0.0208333333333333" Pitch="30" RiffPosition="2.875" Velocity="123" />
      <note Length="0.0208333333333333" Pitch="27" RiffPosition="2.89583333333334" Velocity="67" />
      <note Length="0.0208333333333333" Pitch="44" RiffPosition="2.91666666666667" Velocity="56" />
      <note Length="0.0208333333333333" Pitch="41" RiffPosition="2.9375" Velocity="89" />
      <note Length="0.0208333333333333" Pitch="35" RiffPosition="2.95833333333334" Velocity="32" />
      <note Length="0.0208333333333333" Pitch="39" RiffPosition="2.97916666666667" Velocity="22" />
      <note Length="0.0208333333333333" Pitch="44" RiffPosition="3" Velocity="54" />
      <note Length="0.0208333333333333" Pitch="29" RiffPosition="3.02083333333334" Velocity="67" />
      <note Length="0.0208333333333333" Pitch="36" RiffPosition="3.04166666666667" Velocity="13" />
      <note Length="0.0208333333333333" Pitch="43" RiffPosition="3.0625" Velocity="89" />
      <note Length="0.0208333333333333" Pitch="41" RiffPosition="3.08333333333334" Velocity="102" />
      <note Length="0.0208333333333333" Pitch="41" RiffPosition="3.10416666666667" Velocity="22" />
      <note Length="0.0208333333333333" Pitch="32" RiffPosition="3.125" Velocity="123" />
      <note Length="0.0208333333333333" Pitch="29" RiffPosition="3.14583333333334" Velocity="67" />
      <note Length="0.0208333333333333" Pitch="46" RiffPosition="3.16666666666667" Velocity="56" />
      <note Length="0.0208333333333333" Pitch="43" RiffPosition="3.18750000000001" Velocity="89" />
      <note Length="0.0208333333333333" Pitch="37" RiffPosition="3.20833333333334" Velocity="32" />
      <note Length="0.0208333333333333" Pitch="41" RiffPosition="3.22916666666667" Velocity="22" />
      <note Length="0.0208333333333333" Pitch="44" RiffPosition="3.25000000000001" Velocity="54" />
      <note Length="0.0208333333333333" Pitch="29" RiffPosition="3.27083333333334" Velocity="67" />
      <note Length="0.0208333333333333" Pitch="36" RiffPosition="3.29166666666667" Velocity="13" />
      <note Length="0.0208333333333333" Pitch="43" RiffPosition="3.31250000000001" Velocity="89" />
      <note Length="0.0208333333333333" Pitch="41" RiffPosition="3.33333333333334" Velocity="102" />
      <note Length="0.0208333333333333" Pitch="41" RiffPosition="3.35416666666667" Velocity="22" />
      <note Length="0.0208333333333333" Pitch="32" RiffPosition="3.37500000000001" Velocity="123" />
      <note Length="0.0208333333333333" Pitch="29" RiffPosition="3.39583333333334" Velocity="67" />
      <note Length="0.0208333333333333" Pitch="46" RiffPosition="3.41666666666667" Velocity="56" />
      <note Length="0.0208333333333333" Pitch="43" RiffPosition="3.43750000000001" Velocity="89" />
      <note Length="0.0208333333333333" Pitch="37" RiffPosition="3.45833333333334" Velocity="32" />
      <note Length="0.0208333333333333" Pitch="41" RiffPosition="3.47916666666667" Velocity="22" />
      <note Length="0.0208333333333333" Pitch="44" RiffPosition="3.50000000000001" Velocity="54" />
      <note Length="0.0208333333333333" Pitch="29" RiffPosition="3.52083333333334" Velocity="67" />
      <note Length="0.0208333333333333" Pitch="36" RiffPosition="3.54166666666667" Velocity="13" />
      <note Length="0.0208333333333333" Pitch="43" RiffPosition="3.56250000000001" Velocity="89" />
      <note Length="0.0208333333333333" Pitch="41" RiffPosition="3.58333333333334" Velocity="102" />
      <note Length="0.0208333333333333" Pitch="41" RiffPosition="3.60416666666668" Velocity="22" />
      <note Length="0.0208333333333333" Pitch="32" RiffPosition="3.62500000000001" Velocity="123" />
      <note Length="0.0208333333333333" Pitch="29" RiffPosition="3.64583333333334" Velocity="67" />
      <note Length="0.0208333333333333" Pitch="46" RiffPosition="3.66666666666668" Velocity="56" />
      <note Length="0.0208333333333333" Pitch="43" RiffPosition="3.68750000000001" Velocity="89" />
      <note Length="0.0208333333333333" Pitch="37" RiffPosition="3.70833333333334" Velocity="32" />
      <note Length="0.0208333333333333" Pitch="41" RiffPosition="3.72916666666668" Velocity="22" />
      <note Length="0.0208333333333333" Pitch="44" RiffPosition="3.75000000000001" Velocity="54" />
      <note Length="0.0208333333333333" Pitch="29" RiffPosition="3.77083333333334" Velocity="67" />
      <note Length="0.0208333333333333" Pitch="36" RiffPosition="3.79166666666668" Velocity="13" />
      <note Length="0.0208333333333333" Pitch="43" RiffPosition="3.81250000000001" Velocity="89" />
      <note Length="0.0208333333333333" Pitch="41" RiffPosition="3.83333333333334" Velocity="102" />
      <note Length="0.0208333333333333" Pitch="41" RiffPosition="3.85416666666668" Velocity="22" />
      <note Length="0.0208333333333333" Pitch="32" RiffPosition="3.87500000000001" Velocity="123" />
      <note Length="0.0208333333333333" Pitch="29" RiffPosition="3.89583333333334" Velocity="67" />
      <note Length="0.0208333333333333" Pitch="46" RiffPosition="3.91666666666668" Velocity="56" />
      <note Length="0.0208333333333333" Pitch="43" RiffPosition="3.93750000000001" Velocity="89" />
      <note Length="0.0208333333333333" Pitch="37" RiffPosition="3.95833333333334" Velocity="32" />
      <note Length="0.0208333333333333" Pitch="41" RiffPosition="3.97916666666668" Velocity="22" />
      <note Length="0.0208333333333333" Pitch="44" RiffPosition="4.00000000000001" Velocity="0" />
      <note Length="0.0208333333333333" Pitch="29" RiffPosition="4.02083333333334" Velocity="0" />
      <note Length="0.0208333333333333" Pitch="36" RiffPosition="4.04166666666668" Velocity="0" />
      <note Length="0.0208333333333333" Pitch="43" RiffPosition="4.06250000000001" Velocity="0" />
      <note Length="0.0208333333333333" Pitch="41" RiffPosition="4.08333333333334" Velocity="0" />
      <note Length="0.0208333333333333" Pitch="41" RiffPosition="4.10416666666668" Velocity="0" />
      <note Length="0.0208333333333333" Pitch="32" RiffPosition="4.12500000000001" Velocity="0" />
      <note Length="0.0208333333333333" Pitch="29" RiffPosition="4.14583333333334" Velocity="0" />
      <note Length="0.0208333333333333" Pitch="46" RiffPosition="4.16666666666668" Velocity="0" />
      <note Length="0.0208333333333333" Pitch="43" RiffPosition="4.18750000000001" Velocity="0" />
      <note Length="0.0208333333333333" Pitch="37" RiffPosition="4.20833333333334" Velocity="0" />
      <note Length="0.0208333333333333" Pitch="41" RiffPosition="4.22916666666667" Velocity="0" />
      <note Length="0.0208333333333333" Pitch="44" RiffPosition="4.25000000000001" Velocity="0" />
      <note Length="0.0208333333333333" Pitch="29" RiffPosition="4.27083333333334" Velocity="0" />
      <note Length="0.0208333333333333" Pitch="36" RiffPosition="4.29166666666667" Velocity="0" />
      <note Length="0.0208333333333333" Pitch="43" RiffPosition="4.31250000000001" Velocity="0" />
      <note Length="0.0208333333333333" Pitch="41" RiffPosition="4.33333333333334" Velocity="0" />
      <note Length="0.0208333333333333" Pitch="41" RiffPosition="4.35416666666667" Velocity="0" />
      <note Length="0.0208333333333333" Pitch="32" RiffPosition="4.37500000000001" Velocity="0" />
      <note Length="0.0208333333333333" Pitch="29" RiffPosition="4.39583333333334" Velocity="0" />
      <note Length="0.0208333333333333" Pitch="46" RiffPosition="4.41666666666667" Velocity="0" />
      <note Length="0.0208333333333333" Pitch="43" RiffPosition="4.4375" Velocity="0" />
      <note Length="0.0208333333333333" Pitch="37" RiffPosition="4.45833333333334" Velocity="0" />
      <note Length="0.0208333333333333" Pitch="41" RiffPosition="4.47916666666667" Velocity="0" />
      <note Length="0.0208333333333333" Pitch="44" RiffPosition="4.5" Velocity="0" />
      <note Length="0.0208333333333333" Pitch="29" RiffPosition="4.52083333333334" Velocity="0" />
      <note Length="0.0208333333333333" Pitch="36" RiffPosition="4.54166666666667" Velocity="0" />
      <note Length="0.0208333333333333" Pitch="43" RiffPosition="4.5625" Velocity="0" />
      <note Length="0.0208333333333333" Pitch="41" RiffPosition="4.58333333333334" Velocity="0" />
      <note Length="0.0208333333333333" Pitch="41" RiffPosition="4.60416666666667" Velocity="0" />
      <note Length="0.0208333333333333" Pitch="32" RiffPosition="4.625" Velocity="0" />
      <note Length="0.0208333333333333" Pitch="29" RiffPosition="4.64583333333333" Velocity="0" />
      <note Length="0.0208333333333333" Pitch="46" RiffPosition="4.66666666666667" Velocity="0" />
      <note Length="0.0208333333333333" Pitch="43" RiffPosition="4.6875" Velocity="0" />
      <note Length="0.0208333333333333" Pitch="37" RiffPosition="4.70833333333333" Velocity="0" />
      <note Length="0.0208333333333333" Pitch="41" RiffPosition="4.72916666666667" Velocity="0" />
      <note Length="0.0208333333333333" Pitch="44" RiffPosition="4.75" Velocity="0" />
      <note Length="0.0208333333333333" Pitch="29" RiffPosition="4.77083333333333" Velocity="0" />
      <note Length="0.0208333333333333" Pitch="36" RiffPosition="4.79166666666667" Velocity="0" />
      <note Length="0.0208333333333333" Pitch="43" RiffPosition="4.8125" Velocity="0" />
      <note Length="0.0208333333333333" Pitch="41" RiffPosition="4.83333333333333" Velocity="0" />
      <note Length="0.0208333333333333" Pitch="41" RiffPosition="4.85416666666667" Velocity="0" />
      <note Length="0.0208333333333333" Pitch="32" RiffPosition="4.875" Velocity="0" />
      <note Length="0.0208333333333333" Pitch="29" RiffPosition="4.89583333333333" Velocity="0" />
      <note Length="0.0208333333333333" Pitch="46" RiffPosition="4.91666666666666" Velocity="0" />
      <note Length="0.0208333333333333" Pitch="43" RiffPosition="4.9375" Velocity="0" />
      <note Length="0.0208333333333333" Pitch="37" RiffPosition="4.95833333333333" Velocity="0" />
      <note Length="0.0208333333333333" Pitch="41" RiffPosition="4.97916666666666" Velocity="0" />
      <note Length="0.0208333333333333" Pitch="44" RiffPosition="5" Velocity="0" />
      <note Length="0.0208333333333333" Pitch="29" RiffPosition="5.02083333333333" Velocity="0" />
      <note Length="0.0208333333333333" Pitch="36" RiffPosition="5.04166666666666" Velocity="0" />
      <note Length="0.0208333333333333" Pitch="43" RiffPosition="5.0625" Velocity="0" />
      <note Length="0.0208333333333333" Pitch="41" RiffPosition="5.08333333333333" Velocity="0" />
      <note Length="0.0208333333333333" Pitch="41" RiffPosition="5.10416666666666" Velocity="0" />
      <note Length="0.0208333333333333" Pitch="32" RiffPosition="5.12499999999999" Velocity="0" />
      <note Length="0.0208333333333333" Pitch="29" RiffPosition="5.14583333333333" Velocity="0" />
      <note Length="0.0208333333333333" Pitch="46" RiffPosition="5.16666666666666" Velocity="0" />
      <note Length="0.0208333333333333" Pitch="43" RiffPosition="5.18749999999999" Velocity="0" />
      <note Length="0.0208333333333333" Pitch="37" RiffPosition="5.20833333333333" Velocity="0" />
      <note Length="0.0208333333333333" Pitch="41" RiffPosition="5.22916666666666" Velocity="0" />
      <note Length="0.0208333333333333" Pitch="44" RiffPosition="5.24999999999999" Velocity="0" />
      <note Length="0.0208333333333333" Pitch="29" RiffPosition="5.27083333333333" Velocity="0" />
      <note Length="0.0208333333333333" Pitch="36" RiffPosition="5.29166666666666" Velocity="0" />
      <note Length="0.0208333333333333" Pitch="43" RiffPosition="5.31249999999999" Velocity="0" />
      <note Length="0.0208333333333333" Pitch="41" RiffPosition="5.33333333333333" Velocity="0" />
      <note Length="0.0208333333333333" Pitch="41" RiffPosition="5.35416666666666" Velocity="0" />
      <note Length="0.0208333333333333" Pitch="32" RiffPosition="5.37499999999999" Velocity="0" />
      <note Length="0.0208333333333333" Pitch="29" RiffPosition="5.39583333333332" Velocity="0" />
      <note Length="0.0208333333333333" Pitch="46" RiffPosition="5.41666666666666" Velocity="0" />
      <note Length="0.0208333333333333" Pitch="43" RiffPosition="5.43749999999999" Velocity="0" />
      <note Length="0.0208333333333333" Pitch="37" RiffPosition="5.45833333333332" Velocity="0" />
      <note Length="0.0208333333333333" Pitch="41" RiffPosition="5.47916666666666" Velocity="0" />
      <note Length="0.0208333333333333" Pitch="44" RiffPosition="5.49999999999999" Velocity="0" />
      <note Length="0.0208333333333333" Pitch="29" RiffPosition="5.52083333333332" Velocity="0" />
      <note Length="0.0208333333333333" Pitch="36" RiffPosition="5.54166666666666" Velocity="0" />
      <note Length="0.0208333333333333" Pitch="43" RiffPosition="5.56249999999999" Velocity="0" />
      <note Length="0.0208333333333333" Pitch="41" RiffPosition="5.58333333333332" Velocity="0" />
      <note Length="0.0208333333333333" Pitch="41" RiffPosition="5.60416666666665" Velocity="0" />
      <note Length="0.0208333333333333" Pitch="32" RiffPosition="5.62499999999999" Velocity="0" />
      <note Length="0.0208333333333333" Pitch="29" RiffPosition="5.64583333333332" Velocity="0" />
      <note Length="0.0208333333333333" Pitch="46" RiffPosition="5.66666666666665" Velocity="0" />
      <note Length="0.0208333333333333" Pitch="43" RiffPosition="5.68749999999999" Velocity="0" />
      <note Length="0.0208333333333333" Pitch="37" RiffPosition="5.70833333333332" Velocity="0" />
      <note Length="0.0208333333333333" Pitch="41" RiffPosition="5.72916666666665" Velocity="0" />
      <note Length="0.0208333333333333" Pitch="44" RiffPosition="5.74999999999999" Velocity="0" />
      <note Length="0.0208333333333333" Pitch="29" RiffPosition="5.77083333333332" Velocity="0" />
      <note Length="0.0208333333333333" Pitch="36" RiffPosition="5.79166666666665" Velocity="0" />
      <note Length="0.0208333333333333" Pitch="43" RiffPosition="5.81249999999998" Velocity="0" />
      <note Length="0.0208333333333333" Pitch="41" RiffPosition="5.83333333333332" Velocity="0" />
      <note Length="0.0208333333333333" Pitch="41" RiffPosition="5.85416666666665" Velocity="0" />
      <note Length="0.0208333333333333" Pitch="32" RiffPosition="5.87499999999998" Velocity="0" />
      <note Length="0.0208333333333333" Pitch="29" RiffPosition="5.89583333333332" Velocity="0" />
      <note Length="0.0208333333333333" Pitch="46" RiffPosition="5.91666666666665" Velocity="0" />
      <note Length="0.0208333333333333" Pitch="43" RiffPosition="5.93749999999998" Velocity="0" />
      <note Length="0.0208333333333333" Pitch="37" RiffPosition="5.95833333333332" Velocity="0" />
      <note Length="0.0208333333333333" Pitch="41" RiffPosition="5.97916666666665" Velocity="0" />
      <note Length="0.0208333333333333" Pitch="44" RiffPosition="5.99999999999998" Velocity="0" />
      <note Length="0.0208333333333333" Pitch="29" RiffPosition="6.02083333333332" Velocity="67" />
      <note Length="0.0208333333333333" Pitch="36" RiffPosition="6.04166666666665" Velocity="13" />
      <note Length="0.0208333333333333" Pitch="43" RiffPosition="6.06249999999998" Velocity="89" />
      <note Length="0.0208333333333333" Pitch="41" RiffPosition="6.08333333333331" Velocity="102" />
      <note Length="0.0208333333333333" Pitch="41" RiffPosition="6.10416666666665" Velocity="22" />
      <note Length="0.0208333333333333" Pitch="32" RiffPosition="6.12499999999998" Velocity="123" />
      <note Length="0.0208333333333333" Pitch="29" RiffPosition="6.14583333333331" Velocity="67" />
      <note Length="0.0208333333333333" Pitch="46" RiffPosition="6.16666666666665" Velocity="56" />
      <note Length="0.0208333333333333" Pitch="43" RiffPosition="6.18749999999998" Velocity="89" />
      <note Length="0.0208333333333333" Pitch="37" RiffPosition="6.20833333333331" Velocity="32" />
      <note Length="0.0208333333333333" Pitch="41" RiffPosition="6.22916666666665" Velocity="22" />
      <note Length="0.0208333333333333" Pitch="44" RiffPosition="6.24999999999998" Velocity="54" />
      <note Length="0.0208333333333333" Pitch="29" RiffPosition="6.27083333333331" Velocity="67" />
      <note Length="0.0208333333333333" Pitch="36" RiffPosition="6.29166666666664" Velocity="13" />
      <note Length="0.0208333333333333" Pitch="43" RiffPosition="6.31249999999998" Velocity="89" />
      <note Length="0.0208333333333333" Pitch="41" RiffPosition="6.33333333333331" Velocity="102" />
      <note Length="0.0208333333333333" Pitch="41" RiffPosition="6.35416666666664" Velocity="22" />
      <note Length="0.0208333333333333" Pitch="32" RiffPosition="6.37499999999998" Velocity="123" />
      <note Length="0.0208333333333333" Pitch="29" RiffPosition="6.39583333333331" Velocity="67" />
      <note Length="0.0208333333333333" Pitch="46" RiffPosition="6.41666666666664" Velocity="56" />
      <note Length="0.0208333333333333" Pitch="43" RiffPosition="6.43749999999998" Velocity="89" />
      <note Length="0.0208333333333333" Pitch="37" RiffPosition="6.45833333333331" Velocity="32" />
      <note Length="0.0208333333333333" Pitch="41" RiffPosition="6.47916666666664" Velocity="22" />
      <note Length="0.0208333333333333" Pitch="44" RiffPosition="6.49999999999998" Velocity="54" />
      <note Length="0.0208333333333333" Pitch="29" RiffPosition="6.52083333333331" Velocity="67" />
      <note Length="0.0208333333333333" Pitch="36" RiffPosition="6.54166666666664" Velocity="13" />
      <note Length="0.0208333333333333" Pitch="43" RiffPosition="6.56249999999997" Velocity="89" />
      <note Length="0.0208333333333333" Pitch="41" RiffPosition="6.58333333333331" Velocity="102" />
      <note Length="0.0208333333333333" Pitch="41" RiffPosition="6.60416666666664" Velocity="22" />
      <note Length="0.0208333333333333" Pitch="32" RiffPosition="6.62499999999997" Velocity="123" />
      <note Length="0.0208333333333333" Pitch="29" RiffPosition="6.64583333333331" Velocity="67" />
      <note Length="0.0208333333333333" Pitch="46" RiffPosition="6.66666666666664" Velocity="56" />
      <note Length="0.0208333333333333" Pitch="43" RiffPosition="6.68749999999997" Velocity="89" />
      <note Length="0.0208333333333333" Pitch="37" RiffPosition="6.70833333333331" Velocity="32" />
      <note Length="0.0208333333333333" Pitch="41" RiffPosition="6.72916666666664" Velocity="22" />
      <note Length="0.0208333333333333" Pitch="44" RiffPosition="6.74999999999997" Velocity="54" />
      <note Length="0.0208333333333333" Pitch="29" RiffPosition="6.7708333333333" Velocity="67" />
      <note Length="0.0208333333333333" Pitch="36" RiffPosition="6.79166666666664" Velocity="13" />
      <note Length="0.0208333333333333" Pitch="43" RiffPosition="6.81249999999997" Velocity="89" />
      <note Length="0.0208333333333333" Pitch="41" RiffPosition="6.8333333333333" Velocity="102" />
      <note Length="0.0208333333333333" Pitch="41" RiffPosition="6.85416666666664" Velocity="22" />
      <note Length="0.0208333333333333" Pitch="32" RiffPosition="6.87499999999997" Velocity="123" />
      <note Length="0.0208333333333333" Pitch="29" RiffPosition="6.8958333333333" Velocity="67" />
      <note Length="0.0208333333333333" Pitch="46" RiffPosition="6.91666666666664" Velocity="56" />
      <note Length="0.0208333333333333" Pitch="43" RiffPosition="6.93749999999997" Velocity="89" />
      <note Length="0.0208333333333333" Pitch="37" RiffPosition="6.9583333333333" Velocity="32" />
      <note Length="0.0208333333333333" Pitch="41" RiffPosition="6.97916666666664" Velocity="22" />
      <note Length="0.0208333333333333" Pitch="44" RiffPosition="6.99999999999997" Velocity="54" />
      <note Length="0.0208333333333333" Pitch="29" RiffPosition="7.0208333333333" Velocity="67" />
      <note Length="0.0208333333333333" Pitch="36" RiffPosition="7.04166666666663" Velocity="13" />
      <note Length="0.0208333333333333" Pitch="43" RiffPosition="7.06249999999997" Velocity="89" />
      <note Length="0.0208333333333333" Pitch="41" RiffPosition="7.0833333333333" Velocity="102" />
      <note Length="0.0208333333333333" Pitch="41" RiffPosition="7.10416666666663" Velocity="22" />
      <note Length="0.0208333333333333" Pitch="32" RiffPosition="7.12499999999997" Velocity="123" />
      <note Length="0.0208333333333333" Pitch="29" RiffPosition="7.1458333333333" Velocity="67" />
      <note Length="0.0208333333333333" Pitch="46" RiffPosition="7.16666666666663" Velocity="56" />
      <note Length="0.0208333333333333" Pitch="43" RiffPosition="7.18749999999997" Velocity="89" />
      <note Length="0.0208333333333333" Pitch="37" RiffPosition="7.2083333333333" Velocity="32" />
      <note Length="0.0208333333333333" Pitch="41" RiffPosition="7.22916666666663" Velocity="22" />
      <note Length="0.0208333333333333" Pitch="44" RiffPosition="7.24999999999996" Velocity="54" />
      <note Length="0.0208333333333333" Pitch="29" RiffPosition="7.2708333333333" Velocity="67" />
      <note Length="0.0208333333333333" Pitch="36" RiffPosition="7.29166666666663" Velocity="13" />
      <note Length="0.0208333333333333" Pitch="43" RiffPosition="7.31249999999996" Velocity="89" />
      <note Length="0.0208333333333333" Pitch="41" RiffPosition="7.3333333333333" Velocity="102" />
      <note Length="0.0208333333333333" Pitch="41" RiffPosition="7.35416666666663" Velocity="22" />
      <note Length="0.0208333333333333" Pitch="32" RiffPosition="7.37499999999996" Velocity="123" />
      <note Length="0.0208333333333333" Pitch="29" RiffPosition="7.3958333333333" Velocity="67" />
      <note Length="0.0208333333333333" Pitch="46" RiffPosition="7.41666666666663" Velocity="56" />
      <note Length="0.0208333333333333" Pitch="43" RiffPosition="7.43749999999996" Velocity="89" />
      <note Length="0.0208333333333333" Pitch="37" RiffPosition="7.45833333333329" Velocity="32" />
      <note Length="0.0208333333333333" Pitch="41" RiffPosition="7.47916666666663" Velocity="22" />
      <note Length="0.0208333333333333" Pitch="44" RiffPosition="7.49999999999996" Velocity="54" />
      <note Length="0.0208333333333333" Pitch="29" RiffPosition="7.52083333333329" Velocity="67" />
      <note Length="0.0208333333333333" Pitch="36" RiffPosition="7.54166666666663" Velocity="13" />
      <note Length="0.0208333333333333" Pitch="43" RiffPosition="7.56249999999996" Velocity="89" />
      <note Length="0.0208333333333333" Pitch="41" RiffPosition="7.58333333333329" Velocity="102" />
      <note Length="0.0208333333333333" Pitch="41" RiffPosition="7.60416666666663" Velocity="22" />
      <note Length="0.0208333333333333" Pitch="32" RiffPosition="7.62499999999996" Velocity="123" />
      <note Length="0.0208333333333333" Pitch="29" RiffPosition="7.64583333333329" Velocity="67" />
      <note Length="0.0208333333333333" Pitch="46" RiffPosition="7.66666666666663" Velocity="56" />
      <note Length="0.0208333333333333" Pitch="43" RiffPosition="7.68749999999996" Velocity="89" />
      <note Length="0.0208333333333333" Pitch="37" RiffPosition="7.70833333333329" Velocity="32" />
      <note Length="0.0208333333333333" Pitch="41" RiffPosition="7.72916666666662" Velocity="22" />
      <note Length="0.0208333333333333" Pitch="44" RiffPosition="7.74999999999996" Velocity="54" />
      <note Length="0.0208333333333333" Pitch="29" RiffPosition="7.77083333333329" Velocity="67" />
      <note Length="0.0208333333333333" Pitch="36" RiffPosition="7.79166666666662" Velocity="13" />
      <note Length="0.0208333333333333" Pitch="43" RiffPosition="7.81249999999996" Velocity="89" />
      <note Length="0.0208333333333333" Pitch="41" RiffPosition="7.83333333333329" Velocity="102" />
      <note Length="0.0208333333333333" Pitch="41" RiffPosition="7.85416666666662" Velocity="22" />
      <note Length="0.0208333333333333" Pitch="32" RiffPosition="7.87499999999996" Velocity="123" />
      <note Length="0.0208333333333333" Pitch="29" RiffPosition="7.89583333333329" Velocity="67" />
      <note Length="0.0208333333333333" Pitch="46" RiffPosition="7.91666666666662" Velocity="56" />
      <note Length="0.0208333333333333" Pitch="43" RiffPosition="7.93749999999995" Velocity="89" />
      <note Length="0.0208333333333333" Pitch="37" RiffPosition="7.95833333333329" Velocity="32" />
      <note Length="0.0208333333333333" Pitch="41" RiffPosition="7.97916666666662" Velocity="22" />
      <note Length="0.0208333333333333" Pitch="44" RiffPosition="7.99999999999995" Velocity="54" />
      <note Length="0.0208333333333333" Pitch="27" RiffPosition="8.02083333333329" Velocity="67" />
      <note Length="0.0208333333333333" Pitch="34" RiffPosition="8.04166666666662" Velocity="13" />
      <note Length="0.0208333333333333" Pitch="41" RiffPosition="8.06249999999996" Velocity="89" />
      <note Length="0.0208333333333333" Pitch="39" RiffPosition="8.08333333333329" Velocity="102" />
      <note Length="0.0208333333333333" Pitch="39" RiffPosition="8.10416666666662" Velocity="22" />
      <note Length="0.0208333333333333" Pitch="30" RiffPosition="8.12499999999996" Velocity="123" />
      <note Length="0.0208333333333333" Pitch="27" RiffPosition="8.14583333333329" Velocity="67" />
      <note Length="0.0208333333333333" Pitch="44" RiffPosition="8.16666666666663" Velocity="56" />
      <note Length="0.0208333333333333" Pitch="41" RiffPosition="8.18749999999996" Velocity="89" />
      <note Length="0.0208333333333333" Pitch="35" RiffPosition="8.20833333333329" Velocity="32" />
      <note Length="0.0208333333333333" Pitch="39" RiffPosition="8.22916666666663" Velocity="22" />
      <note Length="0.0208333333333333" Pitch="42" RiffPosition="8.24999999999996" Velocity="54" />
      <note Length="0.0208333333333333" Pitch="27" RiffPosition="8.27083333333329" Velocity="67" />
      <note Length="0.0208333333333333" Pitch="34" RiffPosition="8.29166666666663" Velocity="13" />
      <note Length="0.0208333333333333" Pitch="41" RiffPosition="8.31249999999996" Velocity="89" />
      <note Length="0.0208333333333333" Pitch="39" RiffPosition="8.3333333333333" Velocity="102" />
      <note Length="0.0208333333333333" Pitch="39" RiffPosition="8.35416666666663" Velocity="22" />
      <note Length="0.0208333333333333" Pitch="30" RiffPosition="8.37499999999996" Velocity="123" />
      <note Length="0.0208333333333333" Pitch="27" RiffPosition="8.3958333333333" Velocity="67" />
      <note Length="0.0208333333333333" Pitch="44" RiffPosition="8.41666666666663" Velocity="56" />
      <note Length="0.0208333333333333" Pitch="41" RiffPosition="8.43749999999997" Velocity="89" />
      <note Length="0.0208333333333333" Pitch="35" RiffPosition="8.4583333333333" Velocity="32" />
      <note Length="0.0208333333333333" Pitch="39" RiffPosition="8.47916666666663" Velocity="22" />
      <note Length="0.0208333333333333" Pitch="42" RiffPosition="8.49999999999997" Velocity="54" />
      <note Length="0.0208333333333333" Pitch="27" RiffPosition="8.5208333333333" Velocity="67" />
      <note Length="0.0208333333333333" Pitch="34" RiffPosition="8.54166666666664" Velocity="13" />
      <note Length="0.0208333333333333" Pitch="41" RiffPosition="8.56249999999997" Velocity="89" />
      <note Length="0.0208333333333333" Pitch="39" RiffPosition="8.5833333333333" Velocity="102" />
      <note Length="0.0208333333333333" Pitch="39" RiffPosition="8.60416666666664" Velocity="22" />
      <note Length="0.0208333333333333" Pitch="30" RiffPosition="8.62499999999997" Velocity="123" />
      <note Length="0.0208333333333333" Pitch="27" RiffPosition="8.64583333333331" Velocity="67" />
      <note Length="0.0208333333333333" Pitch="44" RiffPosition="8.66666666666664" Velocity="56" />
      <note Length="0.0208333333333333" Pitch="41" RiffPosition="8.68749999999997" Velocity="89" />
      <note Length="0.0208333333333333" Pitch="35" RiffPosition="8.70833333333331" Velocity="32" />
      <note Length="0.0208333333333333" Pitch="39" RiffPosition="8.72916666666664" Velocity="22" />
      <note Length="0.0208333333333333" Pitch="42" RiffPosition="8.74999999999998" Velocity="54" />
      <note Length="0.0208333333333333" Pitch="27" RiffPosition="8.77083333333331" Velocity="67" />
      <note Length="0.0208333333333333" Pitch="34" RiffPosition="8.79166666666664" Velocity="13" />
      <note Length="0.0208333333333333" Pitch="41" RiffPosition="8.81249999999998" Velocity="89" />
      <note Length="0.0208333333333333" Pitch="39" RiffPosition="8.83333333333331" Velocity="102" />
      <note Length="0.0208333333333333" Pitch="39" RiffPosition="8.85416666666664" Velocity="22" />
      <note Length="0.0208333333333333" Pitch="30" RiffPosition="8.87499999999998" Velocity="123" />
      <note Length="0.0208333333333333" Pitch="27" RiffPosition="8.89583333333331" Velocity="67" />
      <note Length="0.0208333333333333" Pitch="44" RiffPosition="8.91666666666665" Velocity="56" />
      <note Length="0.0208333333333333" Pitch="41" RiffPosition="8.93749999999998" Velocity="89" />
      <note Length="0.0208333333333333" Pitch="35" RiffPosition="8.95833333333331" Velocity="32" />
      <note Length="0.0208333333333333" Pitch="39" RiffPosition="8.97916666666665" Velocity="22" />
      <note Length="0.0208333333333333" Pitch="42" RiffPosition="8.99999999999998" Velocity="54" />
      <note Length="0.0208333333333333" Pitch="29" RiffPosition="9.02083333333332" Velocity="67" />
      <note Length="0.0208333333333333" Pitch="36" RiffPosition="9.04166666666665" Velocity="13" />
      <note Length="0.0208333333333333" Pitch="43" RiffPosition="9.06249999999998" Velocity="89" />
      <note Length="0.0208333333333333" Pitch="41" RiffPosition="9.08333333333332" Velocity="102" />
      <note Length="0.0208333333333333" Pitch="41" RiffPosition="9.10416666666665" Velocity="22" />
      <note Length="0.0208333333333333" Pitch="32" RiffPosition="9.12499999999999" Velocity="123" />
      <note Length="0.0208333333333333" Pitch="29" RiffPosition="9.14583333333332" Velocity="67" />
      <note Length="0.0208333333333333" Pitch="46" RiffPosition="9.16666666666665" Velocity="56" />
      <note Length="0.0208333333333333" Pitch="43" RiffPosition="9.18749999999999" Velocity="89" />
      <note Length="0.0208333333333333" Pitch="37" RiffPosition="9.20833333333332" Velocity="32" />
      <note Length="0.0208333333333333" Pitch="41" RiffPosition="9.22916666666666" Velocity="22" />
      <note Length="0.0208333333333333" Pitch="44" RiffPosition="9.24999999999999" Velocity="54" />
      <note Length="0.0208333333333333" Pitch="29" RiffPosition="9.27083333333332" Velocity="67" />
      <note Length="0.0208333333333333" Pitch="36" RiffPosition="9.29166666666666" Velocity="13" />
      <note Length="0.0208333333333333" Pitch="43" RiffPosition="9.31249999999999" Velocity="89" />
      <note Length="0.0208333333333333" Pitch="41" RiffPosition="9.33333333333333" Velocity="102" />
      <note Length="0.0208333333333333" Pitch="41" RiffPosition="9.35416666666666" Velocity="22" />
      <note Length="0.0208333333333333" Pitch="32" RiffPosition="9.37499999999999" Velocity="123" />
      <note Length="0.0208333333333333" Pitch="29" RiffPosition="9.39583333333333" Velocity="67" />
      <note Length="0.0208333333333333" Pitch="46" RiffPosition="9.41666666666666" Velocity="56" />
      <note Length="0.0208333333333333" Pitch="43" RiffPosition="9.43749999999999" Velocity="89" />
      <note Length="0.0208333333333333" Pitch="37" RiffPosition="9.45833333333333" Velocity="32" />
      <note Length="0.0208333333333333" Pitch="41" RiffPosition="9.47916666666666" Velocity="22" />
      <note Length="0.0208333333333333" Pitch="44" RiffPosition="9.5" Velocity="54" />
      <note Length="0.0208333333333333" Pitch="29" RiffPosition="9.52083333333333" Velocity="67" />
      <note Length="0.0208333333333333" Pitch="36" RiffPosition="9.54166666666666" Velocity="13" />
      <note Length="0.0208333333333333" Pitch="43" RiffPosition="9.5625" Velocity="89" />
      <note Length="0.0208333333333333" Pitch="41" RiffPosition="9.58333333333333" Velocity="102" />
      <note Length="0.0208333333333333" Pitch="41" RiffPosition="9.60416666666667" Velocity="22" />
      <note Length="0.0208333333333333" Pitch="32" RiffPosition="9.625" Velocity="123" />
      <note Length="0.0208333333333333" Pitch="29" RiffPosition="9.64583333333333" Velocity="67" />
      <note Length="0.0208333333333333" Pitch="46" RiffPosition="9.66666666666667" Velocity="56" />
      <note Length="0.0208333333333333" Pitch="43" RiffPosition="9.6875" Velocity="89" />
      <note Length="0.0208333333333333" Pitch="37" RiffPosition="9.70833333333334" Velocity="32" />
      <note Length="0.0208333333333333" Pitch="41" RiffPosition="9.72916666666667" Velocity="22" />
      <note Length="0.0208333333333333" Pitch="44" RiffPosition="9.75" Velocity="54" />
      <note Length="0.0208333333333333" Pitch="29" RiffPosition="9.77083333333334" Velocity="67" />
      <note Length="0.0208333333333333" Pitch="36" RiffPosition="9.79166666666667" Velocity="13" />
      <note Length="0.0208333333333333" Pitch="43" RiffPosition="9.81250000000001" Velocity="89" />
      <note Length="0.0208333333333333" Pitch="41" RiffPosition="9.83333333333334" Velocity="102" />
      <note Length="0.0208333333333333" Pitch="41" RiffPosition="9.85416666666667" Velocity="22" />
      <note Length="0.0208333333333333" Pitch="32" RiffPosition="9.87500000000001" Velocity="123" />
      <note Length="0.0208333333333333" Pitch="29" RiffPosition="9.89583333333334" Velocity="67" />
      <note Length="0.0208333333333333" Pitch="46" RiffPosition="9.91666666666668" Velocity="56" />
      <note Length="0.0208333333333333" Pitch="43" RiffPosition="9.93750000000001" Velocity="89" />
      <note Length="0.0208333333333333" Pitch="37" RiffPosition="9.95833333333334" Velocity="32" />
      <note Length="0.0208333333333333" Pitch="41" RiffPosition="9.97916666666668" Velocity="22" />
      <note Length="0.0208333333333333" Pitch="42" RiffPosition="10" Velocity="54" />
      <note Length="0.0208333333333333" Pitch="27" RiffPosition="10.0208333333333" Velocity="67" />
      <note Length="0.0208333333333333" Pitch="34" RiffPosition="10.0416666666667" Velocity="13" />
      <note Length="0.0208333333333333" Pitch="41" RiffPosition="10.0625" Velocity="89" />
      <note Length="0.0208333333333333" Pitch="39" RiffPosition="10.0833333333333" Velocity="102" />
      <note Length="0.0208333333333333" Pitch="39" RiffPosition="10.1041666666667" Velocity="22" />
      <note Length="0.0208333333333333" Pitch="30" RiffPosition="10.125" Velocity="123" />
      <note Length="0.0208333333333333" Pitch="27" RiffPosition="10.1458333333333" Velocity="67" />
      <note Length="0.0208333333333333" Pitch="44" RiffPosition="10.1666666666667" Velocity="56" />
      <note Length="0.0208333333333333" Pitch="41" RiffPosition="10.1875" Velocity="89" />
      <note Length="0.0208333333333333" Pitch="35" RiffPosition="10.2083333333333" Velocity="32" />
      <note Length="0.0208333333333333" Pitch="39" RiffPosition="10.2291666666667" Velocity="22" />
      <note Length="0.0208333333333333" Pitch="42" RiffPosition="10.25" Velocity="54" />
      <note Length="0.0208333333333333" Pitch="27" RiffPosition="10.2708333333334" Velocity="67" />
      <note Length="0.0208333333333333" Pitch="34" RiffPosition="10.2916666666667" Velocity="13" />
      <note Length="0.0208333333333333" Pitch="41" RiffPosition="10.3125" Velocity="89" />
      <note Length="0.0208333333333333" Pitch="39" RiffPosition="10.3333333333334" Velocity="102" />
      <note Length="0.0208333333333333" Pitch="39" RiffPosition="10.3541666666667" Velocity="22" />
      <note Length="0.0208333333333333" Pitch="30" RiffPosition="10.375" Velocity="123" />
      <note Length="0.0208333333333333" Pitch="27" RiffPosition="10.3958333333334" Velocity="67" />
      <note Length="0.0208333333333333" Pitch="44" RiffPosition="10.4166666666667" Velocity="56" />
      <note Length="0.0208333333333333" Pitch="41" RiffPosition="10.4375" Velocity="89" />
      <note Length="0.0208333333333333" Pitch="35" RiffPosition="10.4583333333334" Velocity="32" />
      <note Length="0.0208333333333333" Pitch="39" RiffPosition="10.4791666666667" Velocity="22" />
      <note Length="0.0208333333333333" Pitch="42" RiffPosition="10.5" Velocity="54" />
      <note Length="0.0208333333333333" Pitch="27" RiffPosition="10.5208333333334" Velocity="67" />
      <note Length="0.0208333333333333" Pitch="34" RiffPosition="10.5416666666667" Velocity="13" />
      <note Length="0.0208333333333333" Pitch="41" RiffPosition="10.5625" Velocity="89" />
      <note Length="0.0208333333333333" Pitch="39" RiffPosition="10.5833333333334" Velocity="102" />
      <note Length="0.0208333333333333" Pitch="39" RiffPosition="10.6041666666667" Velocity="22" />
      <note Length="0.0208333333333333" Pitch="30" RiffPosition="10.625" Velocity="123" />
      <note Length="0.0208333333333333" Pitch="27" RiffPosition="10.6458333333334" Velocity="67" />
      <note Length="0.0208333333333333" Pitch="44" RiffPosition="10.6666666666667" Velocity="56" />
      <note Length="0.0208333333333333" Pitch="41" RiffPosition="10.6875" Velocity="89" />
      <note Length="0.0208333333333333" Pitch="35" RiffPosition="10.7083333333334" Velocity="32" />
      <note Length="0.0208333333333333" Pitch="39" RiffPosition="10.7291666666667" Velocity="22" />
      <note Length="0.0208333333333333" Pitch="42" RiffPosition="10.75" Velocity="54" />
      <note Length="0.0208333333333333" Pitch="27" RiffPosition="10.7708333333334" Velocity="67" />
      <note Length="0.0208333333333333" Pitch="34" RiffPosition="10.7916666666667" Velocity="13" />
      <note Length="0.0208333333333333" Pitch="41" RiffPosition="10.8125" Velocity="89" />
      <note Length="0.0208333333333333" Pitch="39" RiffPosition="10.8333333333334" Velocity="102" />
      <note Length="0.0208333333333333" Pitch="39" RiffPosition="10.8541666666667" Velocity="22" />
      <note Length="0.0208333333333333" Pitch="30" RiffPosition="10.875" Velocity="123" />
      <note Length="0.0208333333333333" Pitch="27" RiffPosition="10.8958333333334" Velocity="67" />
      <note Length="0.0208333333333333" Pitch="44" RiffPosition="10.9166666666667" Velocity="56" />
      <note Length="0.0208333333333333" Pitch="41" RiffPosition="10.9375" Velocity="89" />
      <note Length="0.0208333333333333" Pitch="35" RiffPosition="10.9583333333334" Velocity="32" />
      <note Length="0.0208333333333333" Pitch="39" RiffPosition="10.9791666666667" Velocity="22" />
      <note Length="0.0208333333333333" Pitch="45" RiffPosition="11" Velocity="54" />
      <note Length="0.0208333333333333" Pitch="30" RiffPosition="11.0208333333334" Velocity="67" />
      <note Length="0.0208333333333333" Pitch="37" RiffPosition="11.0416666666667" Velocity="13" />
      <note Length="0.0208333333333333" Pitch="44" RiffPosition="11.0625" Velocity="89" />
      <note Length="0.0208333333333333" Pitch="42" RiffPosition="11.0833333333334" Velocity="102" />
      <note Length="0.0208333333333333" Pitch="42" RiffPosition="11.1041666666667" Velocity="22" />
      <note Length="0.0208333333333333" Pitch="33" RiffPosition="11.125" Velocity="123" />
      <note Length="0.0208333333333333" Pitch="30" RiffPosition="11.1458333333334" Velocity="67" />
      <note Length="0.0208333333333333" Pitch="47" RiffPosition="11.1666666666667" Velocity="56" />
      <note Length="0.0208333333333333" Pitch="44" RiffPosition="11.1875" Velocity="89" />
      <note Length="0.0208333333333333" Pitch="38" RiffPosition="11.2083333333334" Velocity="32" />
      <note Length="0.0208333333333333" Pitch="42" RiffPosition="11.2291666666667" Velocity="22" />
      <note Length="0.0208333333333333" Pitch="45" RiffPosition="11.25" Velocity="54" />
      <note Length="0.0208333333333333" Pitch="30" RiffPosition="11.2708333333334" Velocity="67" />
      <note Length="0.0208333333333333" Pitch="37" RiffPosition="11.2916666666667" Velocity="13" />
      <note Length="0.0208333333333333" Pitch="44" RiffPosition="11.3125" Velocity="89" />
      <note Length="0.0208333333333333" Pitch="42" RiffPosition="11.3333333333334" Velocity="102" />
      <note Length="0.0208333333333333" Pitch="42" RiffPosition="11.3541666666667" Velocity="22" />
      <note Length="0.0208333333333333" Pitch="33" RiffPosition="11.375" Velocity="123" />
      <note Length="0.0208333333333333" Pitch="30" RiffPosition="11.3958333333334" Velocity="67" />
      <note Length="0.0208333333333333" Pitch="47" RiffPosition="11.4166666666667" Velocity="56" />
      <note Length="0.0208333333333333" Pitch="44" RiffPosition="11.4375000000001" Velocity="89" />
      <note Length="0.0208333333333333" Pitch="38" RiffPosition="11.4583333333334" Velocity="32" />
      <note Length="0.0208333333333333" Pitch="42" RiffPosition="11.4791666666667" Velocity="22" />
      <note Length="0.0208333333333333" Pitch="45" RiffPosition="11.5000000000001" Velocity="54" />
      <note Length="0.0208333333333333" Pitch="30" RiffPosition="11.5208333333334" Velocity="67" />
      <note Length="0.0208333333333333" Pitch="37" RiffPosition="11.5416666666667" Velocity="13" />
      <note Length="0.0208333333333333" Pitch="44" RiffPosition="11.5625000000001" Velocity="89" />
      <note Length="0.0208333333333333" Pitch="42" RiffPosition="11.5833333333334" Velocity="102" />
      <note Length="0.0208333333333333" Pitch="42" RiffPosition="11.6041666666667" Velocity="22" />
      <note Length="0.0208333333333333" Pitch="33" RiffPosition="11.6250000000001" Velocity="123" />
      <note Length="0.0208333333333333" Pitch="30" RiffPosition="11.6458333333334" Velocity="67" />
      <note Length="0.0208333333333333" Pitch="47" RiffPosition="11.6666666666667" Velocity="56" />
      <note Length="0.0208333333333333" Pitch="44" RiffPosition="11.6875000000001" Velocity="89" />
      <note Length="0.0208333333333333" Pitch="38" RiffPosition="11.7083333333334" Velocity="32" />
      <note Length="0.0208333333333333" Pitch="42" RiffPosition="11.7291666666667" Velocity="22" />
      <note Length="0.0208333333333333" Pitch="45" RiffPosition="11.7500000000001" Velocity="54" />
      <note Length="0.0208333333333333" Pitch="30" RiffPosition="11.7708333333334" Velocity="67" />
      <note Length="0.0208333333333333" Pitch="37" RiffPosition="11.7916666666667" Velocity="13" />
      <note Length="0.0208333333333333" Pitch="44" RiffPosition="11.8125000000001" Velocity="89" />
      <note Length="0.0208333333333333" Pitch="42" RiffPosition="11.8333333333334" Velocity="102" />
      <note Length="0.0208333333333333" Pitch="42" RiffPosition="11.8541666666667" Velocity="22" />
      <note Length="0.0208333333333333" Pitch="33" RiffPosition="11.8750000000001" Velocity="123" />
      <note Length="0.0208333333333333" Pitch="30" RiffPosition="11.8958333333334" Velocity="67" />
      <note Length="0.0208333333333333" Pitch="47" RiffPosition="11.9166666666667" Velocity="56" />
      <note Length="0.0208333333333333" Pitch="44" RiffPosition="11.9375000000001" Velocity="89" />
      <note Length="0.0208333333333333" Pitch="38" RiffPosition="11.9583333333334" Velocity="32" />
      <note Length="0.0208333333333333" Pitch="42" RiffPosition="11.9791666666667" Velocity="22" />
      <note Length="0.0208333333333333" Pitch="44" RiffPosition="12.0000000000001" Velocity="54" />
      <note Length="0.0208333333333333" Pitch="29" RiffPosition="12.0208333333334" Velocity="67" />
      <note Length="0.0208333333333333" Pitch="36" RiffPosition="12.0416666666667" Velocity="13" />
      <note Length="0.0208333333333333" Pitch="43" RiffPosition="12.0625000000001" Velocity="89" />
      <note Length="0.0208333333333333" Pitch="41" RiffPosition="12.0833333333334" Velocity="102" />
      <note Length="0.0208333333333333" Pitch="41" RiffPosition="12.1041666666667" Velocity="22" />
      <note Length="0.0208333333333333" Pitch="32" RiffPosition="12.1250000000001" Velocity="123" />
      <note Length="0.0208333333333333" Pitch="29" RiffPosition="12.1458333333334" Velocity="67" />
      <note Length="0.0208333333333333" Pitch="46" RiffPosition="12.1666666666667" Velocity="56" />
      <note Length="0.0208333333333333" Pitch="43" RiffPosition="12.1875000000001" Velocity="89" />
      <note Length="0.0208333333333333" Pitch="37" RiffPosition="12.2083333333334" Velocity="32" />
      <note Length="0.0208333333333333" Pitch="41" RiffPosition="12.2291666666667" Velocity="22" />
      <note Length="0.0208333333333333" Pitch="44" RiffPosition="12.2500000000001" Velocity="54" />
      <note Length="0.0208333333333333" Pitch="29" RiffPosition="12.2708333333334" Velocity="67" />
      <note Length="0.0208333333333333" Pitch="36" RiffPosition="12.2916666666667" Velocity="13" />
      <note Length="0.0208333333333333" Pitch="43" RiffPosition="12.3125000000001" Velocity="89" />
      <note Length="0.0208333333333333" Pitch="41" RiffPosition="12.3333333333334" Velocity="102" />
      <note Length="0.0208333333333333" Pitch="41" RiffPosition="12.3541666666667" Velocity="22" />
      <note Length="0.0208333333333333" Pitch="32" RiffPosition="12.3750000000001" Velocity="123" />
      <note Length="0.0208333333333333" Pitch="29" RiffPosition="12.3958333333334" Velocity="67" />
      <note Length="0.0208333333333333" Pitch="46" RiffPosition="12.4166666666667" Velocity="56" />
      <note Length="0.0208333333333333" Pitch="43" RiffPosition="12.4375000000001" Velocity="89" />
      <note Length="0.0208333333333333" Pitch="37" RiffPosition="12.4583333333334" Velocity="32" />
      <note Length="0.0208333333333333" Pitch="41" RiffPosition="12.4791666666667" Velocity="22" />
      <note Length="0.0208333333333333" Pitch="44" RiffPosition="12.5000000000001" Velocity="54" />
      <note Length="0.0208333333333333" Pitch="29" RiffPosition="12.5208333333334" Velocity="67" />
      <note Length="0.0208333333333333" Pitch="36" RiffPosition="12.5416666666667" Velocity="13" />
      <note Length="0.0208333333333333" Pitch="43" RiffPosition="12.5625000000001" Velocity="89" />
      <note Length="0.0208333333333333" Pitch="41" RiffPosition="12.5833333333334" Velocity="102" />
      <note Length="0.0208333333333333" Pitch="41" RiffPosition="12.6041666666668" Velocity="22" />
      <note Length="0.0208333333333333" Pitch="32" RiffPosition="12.6250000000001" Velocity="123" />
      <note Length="0.0208333333333333" Pitch="29" RiffPosition="12.6458333333334" Velocity="67" />
      <note Length="0.0208333333333333" Pitch="46" RiffPosition="12.6666666666668" Velocity="56" />
      <note Length="0.0208333333333333" Pitch="43" RiffPosition="12.6875000000001" Velocity="89" />
      <note Length="0.0208333333333333" Pitch="37" RiffPosition="12.7083333333334" Velocity="32" />
      <note Length="0.0208333333333333" Pitch="41" RiffPosition="12.7291666666668" Velocity="22" />
      <note Length="0.0208333333333333" Pitch="44" RiffPosition="12.7500000000001" Velocity="54" />
      <note Length="0.0208333333333333" Pitch="29" RiffPosition="12.7708333333334" Velocity="67" />
      <note Length="0.0208333333333333" Pitch="36" RiffPosition="12.7916666666668" Velocity="13" />
      <note Length="0.0208333333333333" Pitch="43" RiffPosition="12.8125000000001" Velocity="89" />
      <note Length="0.0208333333333333" Pitch="41" RiffPosition="12.8333333333334" Velocity="102" />
      <note Length="0.0208333333333333" Pitch="41" RiffPosition="12.8541666666668" Velocity="22" />
      <note Length="0.0208333333333333" Pitch="32" RiffPosition="12.8750000000001" Velocity="123" />
      <note Length="0.0208333333333333" Pitch="29" RiffPosition="12.8958333333334" Velocity="67" />
      <note Length="0.0208333333333333" Pitch="46" RiffPosition="12.9166666666668" Velocity="56" />
      <note Length="0.0208333333333333" Pitch="43" RiffPosition="12.9375000000001" Velocity="89" />
      <note Length="0.0208333333333333" Pitch="37" RiffPosition="12.9583333333334" Velocity="32" />
      <note Length="0.0208333333333333" Pitch="41" RiffPosition="12.9791666666668" Velocity="22" />
      <note Length="0.0208333333333333" Pitch="44" RiffPosition="13.0000000000001" Velocity="54" />
      <note Length="0.0208333333333333" Pitch="29" RiffPosition="13.0208333333334" Velocity="67" />
      <note Length="0.0208333333333333" Pitch="36" RiffPosition="13.0416666666668" Velocity="13" />
      <note Length="0.0208333333333333" Pitch="43" RiffPosition="13.0625000000001" Velocity="89" />
      <note Length="0.0208333333333333" Pitch="41" RiffPosition="13.0833333333334" Velocity="102" />
      <note Length="0.0208333333333333" Pitch="41" RiffPosition="13.1041666666668" Velocity="22" />
      <note Length="0.0208333333333333" Pitch="32" RiffPosition="13.1250000000001" Velocity="123" />
      <note Length="0.0208333333333333" Pitch="29" RiffPosition="13.1458333333334" Velocity="67" />
      <note Length="0.0208333333333333" Pitch="46" RiffPosition="13.1666666666668" Velocity="56" />
      <note Length="0.0208333333333333" Pitch="43" RiffPosition="13.1875000000001" Velocity="89" />
      <note Length="0.0208333333333333" Pitch="37" RiffPosition="13.2083333333334" Velocity="32" />
      <note Length="0.0208333333333333" Pitch="41" RiffPosition="13.2291666666668" Velocity="22" />
      <note Length="0.0208333333333333" Pitch="44" RiffPosition="13.2500000000001" Velocity="54" />
      <note Length="0.0208333333333333" Pitch="29" RiffPosition="13.2708333333334" Velocity="67" />
      <note Length="0.0208333333333333" Pitch="36" RiffPosition="13.2916666666668" Velocity="13" />
      <note Length="0.0208333333333333" Pitch="43" RiffPosition="13.3125000000001" Velocity="89" />
      <note Length="0.0208333333333333" Pitch="41" RiffPosition="13.3333333333334" Velocity="102" />
      <note Length="0.0208333333333333" Pitch="41" RiffPosition="13.3541666666668" Velocity="22" />
      <note Length="0.0208333333333333" Pitch="32" RiffPosition="13.3750000000001" Velocity="123" />
      <note Length="0.0208333333333333" Pitch="29" RiffPosition="13.3958333333334" Velocity="67" />
      <note Length="0.0208333333333333" Pitch="46" RiffPosition="13.4166666666668" Velocity="56" />
      <note Length="0.0208333333333333" Pitch="43" RiffPosition="13.4375000000001" Velocity="89" />
      <note Length="0.0208333333333333" Pitch="37" RiffPosition="13.4583333333334" Velocity="32" />
      <note Length="0.0208333333333333" Pitch="41" RiffPosition="13.4791666666668" Velocity="22" />
      <note Length="0.0208333333333333" Pitch="44" RiffPosition="13.5000000000001" Velocity="54" />
      <note Length="0.0208333333333333" Pitch="29" RiffPosition="13.5208333333334" Velocity="67" />
      <note Length="0.0208333333333333" Pitch="36" RiffPosition="13.5416666666668" Velocity="13" />
      <note Length="0.0208333333333333" Pitch="43" RiffPosition="13.5625000000001" Velocity="89" />
      <note Length="0.0208333333333333" Pitch="41" RiffPosition="13.5833333333334" Velocity="102" />
      <note Length="0.0208333333333333" Pitch="41" RiffPosition="13.6041666666668" Velocity="22" />
      <note Length="0.0208333333333333" Pitch="32" RiffPosition="13.6250000000001" Velocity="123" />
      <note Length="0.0208333333333333" Pitch="29" RiffPosition="13.6458333333334" Velocity="67" />
      <note Length="0.0208333333333333" Pitch="46" RiffPosition="13.6666666666668" Velocity="56" />
      <note Length="0.0208333333333333" Pitch="43" RiffPosition="13.6875000000001" Velocity="89" />
      <note Length="0.0208333333333333" Pitch="37" RiffPosition="13.7083333333334" Velocity="32" />
      <note Length="0.0208333333333333" Pitch="41" RiffPosition="13.7291666666668" Velocity="22" />
      <note Length="0.0208333333333333" Pitch="44" RiffPosition="13.7500000000001" Velocity="54" />
      <note Length="0.0208333333333333" Pitch="29" RiffPosition="13.7708333333335" Velocity="67" />
      <note Length="0.0208333333333333" Pitch="36" RiffPosition="13.7916666666668" Velocity="13" />
      <note Length="0.0208333333333333" Pitch="43" RiffPosition="13.8125000000001" Velocity="89" />
      <note Length="0.0208333333333333" Pitch="41" RiffPosition="13.8333333333335" Velocity="102" />
      <note Length="0.0208333333333333" Pitch="41" RiffPosition="13.8541666666668" Velocity="22" />
      <note Length="0.0208333333333333" Pitch="32" RiffPosition="13.8750000000001" Velocity="123" />
      <note Length="0.0208333333333333" Pitch="29" RiffPosition="13.8958333333335" Velocity="67" />
      <note Length="0.0208333333333333" Pitch="46" RiffPosition="13.9166666666668" Velocity="56" />
      <note Length="0.0208333333333333" Pitch="43" RiffPosition="13.9375000000001" Velocity="89" />
      <note Length="0.0208333333333333" Pitch="37" RiffPosition="13.9583333333335" Velocity="32" />
      <note Length="0.0208333333332096" Pitch="41" RiffPosition="13.9791666666668" Velocity="22" />
    </riff>
    <riff IsDrum="True" MidiInstrument="0" Tempo="135" Length="14">
      <note Length="0.0625" Pitch="39" RiffPosition="0" Velocity="0" />
      <note Length="0.0625" Pitch="39" RiffPosition="0.0625" Velocity="105" />
      <note Length="0.0625" Pitch="39" RiffPosition="0.125" Velocity="0" />
      <note Length="0.0625" Pitch="39" RiffPosition="0.1875" Velocity="105" />
      <note Length="0.0625" Pitch="39" RiffPosition="0.25" Velocity="0" />
      <note Length="0.0625" Pitch="39" RiffPosition="0.3125" Velocity="105" />
      <note Length="0.0625" Pitch="39" RiffPosition="0.375" Velocity="0" />
      <note Length="0.0625" Pitch="39" RiffPosition="0.4375" Velocity="105" />
      <note Length="0.0625" Pitch="39" RiffPosition="0.5" Velocity="0" />
      <note Length="0.0625" Pitch="39" RiffPosition="0.5625" Velocity="105" />
      <note Length="0.0625" Pitch="39" RiffPosition="0.625" Velocity="0" />
      <note Length="0.0625" Pitch="39" RiffPosition="0.6875" Velocity="105" />
      <note Length="0.0625" Pitch="39" RiffPosition="0.75" Velocity="0" />
      <note Length="0.0625" Pitch="39" RiffPosition="0.8125" Velocity="105" />
      <note Length="0.0625" Pitch="39" RiffPosition="0.875" Velocity="0" />
      <note Length="0.0625" Pitch="39" RiffPosition="0.9375" Velocity="105" />
      <note Length="0.0625" Pitch="39" RiffPosition="1" Velocity="0" />
      <note Length="0.0625" Pitch="39" RiffPosition="1.0625" Velocity="105" />
      <note Length="0.0625" Pitch="39" RiffPosition="1.125" Velocity="0" />
      <note Length="0.0625" Pitch="39" RiffPosition="1.1875" Velocity="105" />
      <note Length="0.0625" Pitch="39" RiffPosition="1.25" Velocity="0" />
      <note Length="0.0625" Pitch="39" RiffPosition="1.3125" Velocity="105" />
      <note Length="0.0625" Pitch="39" RiffPosition="1.375" Velocity="0" />
      <note Length="0.0625" Pitch="39" RiffPosition="1.4375" Velocity="105" />
      <note Length="0.0625" Pitch="39" RiffPosition="1.5" Velocity="0" />
      <note Length="0.0625" Pitch="39" RiffPosition="1.5625" Velocity="105" />
      <note Length="0.0625" Pitch="39" RiffPosition="1.625" Velocity="0" />
      <note Length="0.0625" Pitch="39" RiffPosition="1.6875" Velocity="105" />
      <note Length="0.0625" Pitch="39" RiffPosition="1.75" Velocity="0" />
      <note Length="0.0625" Pitch="39" RiffPosition="1.8125" Velocity="105" />
      <note Length="0.0625" Pitch="39" RiffPosition="1.875" Velocity="0" />
      <note Length="0.0625" Pitch="39" RiffPosition="1.9375" Velocity="105" />
      <note Length="0.0625" Pitch="39" RiffPosition="2" Velocity="0" />
      <note Length="0.0625" Pitch="39" RiffPosition="2.0625" Velocity="105" />
      <note Length="0.0625" Pitch="39" RiffPosition="2.125" Velocity="0" />
      <note Length="0.0625" Pitch="39" RiffPosition="2.1875" Velocity="105" />
      <note Length="0.0625" Pitch="39" RiffPosition="2.25" Velocity="0" />
      <note Length="0.0625" Pitch="39" RiffPosition="2.3125" Velocity="105" />
      <note Length="0.0625" Pitch="39" RiffPosition="2.375" Velocity="0" />
      <note Length="0.0625" Pitch="39" RiffPosition="2.4375" Velocity="105" />
      <note Length="0.0625" Pitch="39" RiffPosition="2.5" Velocity="0" />
      <note Length="0.0625" Pitch="39" RiffPosition="2.5625" Velocity="105" />
      <note Length="0.0625" Pitch="39" RiffPosition="2.625" Velocity="0" />
      <note Length="0.0625" Pitch="39" RiffPosition="2.6875" Velocity="105" />
      <note Length="0.0625" Pitch="39" RiffPosition="2.75" Velocity="0" />
      <note Length="0.0625" Pitch="39" RiffPosition="2.8125" Velocity="105" />
      <note Length="0.0625" Pitch="39" RiffPosition="2.875" Velocity="0" />
      <note Length="0.0625" Pitch="39" RiffPosition="2.9375" Velocity="105" />
      <note Length="0.0625" Pitch="39" RiffPosition="3" Velocity="0" />
      <note Length="0.0625" Pitch="39" RiffPosition="3.0625" Velocity="105" />
      <note Length="0.0625" Pitch="39" RiffPosition="3.125" Velocity="0" />
      <note Length="0.0625" Pitch="39" RiffPosition="3.1875" Velocity="105" />
      <note Length="0.0625" Pitch="39" RiffPosition="3.25" Velocity="0" />
      <note Length="0.0625" Pitch="39" RiffPosition="3.3125" Velocity="105" />
      <note Length="0.0625" Pitch="39" RiffPosition="3.375" Velocity="0" />
      <note Length="0.0625" Pitch="39" RiffPosition="3.4375" Velocity="105" />
      <note Length="0.0625" Pitch="39" RiffPosition="3.5" Velocity="0" />
      <note Length="0.0625" Pitch="39" RiffPosition="3.5625" Velocity="105" />
      <note Length="0.0625" Pitch="39" RiffPosition="3.625" Velocity="0" />
      <note Length="0.0625" Pitch="39" RiffPosition="3.6875" Velocity="105" />
      <note Length="0.0625" Pitch="39" RiffPosition="3.75" Velocity="0" />
      <note Length="0.0625" Pitch="39" RiffPosition="3.8125" Velocity="105" />
      <note Length="0.0625" Pitch="39" RiffPosition="3.875" Velocity="0" />
      <note Length="0.0625" Pitch="39" RiffPosition="3.9375" Velocity="105" />
      <note Length="0.0625" Pitch="39" RiffPosition="4" Velocity="0" />
      <note Length="0.0625" Pitch="39" RiffPosition="4.0625" Velocity="0" />
      <note Length="0.0625" Pitch="39" RiffPosition="4.125" Velocity="0" />
      <note Length="0.0625" Pitch="39" RiffPosition="4.1875" Velocity="0" />
      <note Length="0.0625" Pitch="39" RiffPosition="4.25" Velocity="0" />
      <note Length="0.0625" Pitch="39" RiffPosition="4.3125" Velocity="0" />
      <note Length="0.0625" Pitch="39" RiffPosition="4.375" Velocity="0" />
      <note Length="0.0625" Pitch="39" RiffPosition="4.4375" Velocity="0" />
      <note Length="0.0625" Pitch="39" RiffPosition="4.5" Velocity="0" />
      <note Length="0.0625" Pitch="39" RiffPosition="4.5625" Velocity="0" />
      <note Length="0.0625" Pitch="39" RiffPosition="4.625" Velocity="0" />
      <note Length="0.0625" Pitch="39" RiffPosition="4.6875" Velocity="0" />
      <note Length="0.0625" Pitch="39" RiffPosition="4.75" Velocity="0" />
      <note Length="0.0625" Pitch="39" RiffPosition="4.8125" Velocity="0" />
      <note Length="0.0625" Pitch="39" RiffPosition="4.875" Velocity="0" />
      <note Length="0.0625" Pitch="39" RiffPosition="4.9375" Velocity="0" />
      <note Length="0.0625" Pitch="39" RiffPosition="5" Velocity="0" />
      <note Length="0.0625" Pitch="39" RiffPosition="5.0625" Velocity="0" />
      <note Length="0.0625" Pitch="39" RiffPosition="5.125" Velocity="0" />
      <note Length="0.0625" Pitch="39" RiffPosition="5.1875" Velocity="0" />
      <note Length="0.0625" Pitch="39" RiffPosition="5.25" Velocity="0" />
      <note Length="0.0625" Pitch="39" RiffPosition="5.3125" Velocity="0" />
      <note Length="0.0625" Pitch="39" RiffPosition="5.375" Velocity="0" />
      <note Length="0.0625" Pitch="39" RiffPosition="5.4375" Velocity="0" />
      <note Length="0.0625" Pitch="39" RiffPosition="5.5" Velocity="0" />
      <note Length="0.0625" Pitch="39" RiffPosition="5.5625" Velocity="0" />
      <note Length="0.0625" Pitch="39" RiffPosition="5.625" Velocity="0" />
      <note Length="0.0625" Pitch="39" RiffPosition="5.6875" Velocity="0" />
      <note Length="0.0625" Pitch="39" RiffPosition="5.75" Velocity="0" />
      <note Length="0.0625" Pitch="39" RiffPosition="5.8125" Velocity="0" />
      <note Length="0.0625" Pitch="39" RiffPosition="5.875" Velocity="0" />
      <note Length="0.0625" Pitch="39" RiffPosition="5.9375" Velocity="0" />
      <note Length="0.0625" Pitch="39" RiffPosition="6" Velocity="0" />
      <note Length="0.0625" Pitch="39" RiffPosition="6.0625" Velocity="0" />
      <note Length="0.0625" Pitch="39" RiffPosition="6.125" Velocity="0" />
      <note Length="0.0625" Pitch="39" RiffPosition="6.1875" Velocity="0" />
      <note Length="0.0625" Pitch="39" RiffPosition="6.25" Velocity="0" />
      <note Length="0.0625" Pitch="39" RiffPosition="6.3125" Velocity="0" />
      <note Length="0.0625" Pitch="39" RiffPosition="6.375" Velocity="0" />
      <note Length="0.0625" Pitch="39" RiffPosition="6.4375" Velocity="0" />
      <note Length="0.0625" Pitch="39" RiffPosition="6.5" Velocity="0" />
      <note Length="0.0625" Pitch="39" RiffPosition="6.5625" Velocity="0" />
      <note Length="0.0625" Pitch="39" RiffPosition="6.625" Velocity="0" />
      <note Length="0.0625" Pitch="39" RiffPosition="6.6875" Velocity="0" />
      <note Length="0.0625" Pitch="39" RiffPosition="6.75" Velocity="0" />
      <note Length="0.0625" Pitch="39" RiffPosition="6.8125" Velocity="0" />
      <note Length="0.0625" Pitch="39" RiffPosition="6.875" Velocity="0" />
      <note Length="0.0625" Pitch="39" RiffPosition="6.9375" Velocity="0" />
      <note Length="0.0625" Pitch="39" RiffPosition="7" Velocity="0" />
      <note Length="0.0625" Pitch="39" RiffPosition="7.0625" Velocity="0" />
      <note Length="0.0625" Pitch="39" RiffPosition="7.125" Velocity="0" />
      <note Length="0.0625" Pitch="39" RiffPosition="7.1875" Velocity="0" />
      <note Length="0.0625" Pitch="39" RiffPosition="7.25" Velocity="0" />
      <note Length="0.0625" Pitch="39" RiffPosition="7.3125" Velocity="0" />
      <note Length="0.0625" Pitch="39" RiffPosition="7.375" Velocity="0" />
      <note Length="0.0625" Pitch="39" RiffPosition="7.4375" Velocity="0" />
      <note Length="0.0625" Pitch="39" RiffPosition="7.5" Velocity="0" />
      <note Length="0.0625" Pitch="39" RiffPosition="7.5625" Velocity="0" />
      <note Length="0.0625" Pitch="39" RiffPosition="7.625" Velocity="0" />
      <note Length="0.0625" Pitch="39" RiffPosition="7.6875" Velocity="0" />
      <note Length="0.0625" Pitch="39" RiffPosition="7.75" Velocity="0" />
      <note Length="0.0625" Pitch="39" RiffPosition="7.8125" Velocity="0" />
      <note Length="0.0625" Pitch="39" RiffPosition="7.875" Velocity="0" />
      <note Length="0.0625" Pitch="39" RiffPosition="7.9375" Velocity="0" />
      <note Length="0.0625" Pitch="39" RiffPosition="8" Velocity="0" />
      <note Length="0.0625" Pitch="39" RiffPosition="8.0625" Velocity="0" />
      <note Length="0.0625" Pitch="39" RiffPosition="8.125" Velocity="0" />
      <note Length="0.0625" Pitch="39" RiffPosition="8.1875" Velocity="0" />
      <note Length="0.0625" Pitch="39" RiffPosition="8.25" Velocity="0" />
      <note Length="0.0625" Pitch="39" RiffPosition="8.3125" Velocity="0" />
      <note Length="0.0625" Pitch="39" RiffPosition="8.375" Velocity="0" />
      <note Length="0.0625" Pitch="39" RiffPosition="8.4375" Velocity="0" />
      <note Length="0.0625" Pitch="39" RiffPosition="8.5" Velocity="0" />
      <note Length="0.0625" Pitch="39" RiffPosition="8.5625" Velocity="0" />
      <note Length="0.0625" Pitch="39" RiffPosition="8.625" Velocity="0" />
      <note Length="0.0625" Pitch="39" RiffPosition="8.6875" Velocity="0" />
      <note Length="0.0625" Pitch="39" RiffPosition="8.75" Velocity="0" />
      <note Length="0.0625" Pitch="39" RiffPosition="8.8125" Velocity="0" />
      <note Length="0.0625" Pitch="39" RiffPosition="8.875" Velocity="0" />
      <note Length="0.0625" Pitch="39" RiffPosition="8.9375" Velocity="0" />
      <note Length="0.0625" Pitch="39" RiffPosition="9" Velocity="0" />
      <note Length="0.0625" Pitch="39" RiffPosition="9.0625" Velocity="0" />
      <note Length="0.0625" Pitch="39" RiffPosition="9.125" Velocity="0" />
      <note Length="0.0625" Pitch="39" RiffPosition="9.1875" Velocity="0" />
      <note Length="0.0625" Pitch="39" RiffPosition="9.25" Velocity="0" />
      <note Length="0.0625" Pitch="39" RiffPosition="9.3125" Velocity="0" />
      <note Length="0.0625" Pitch="39" RiffPosition="9.375" Velocity="0" />
      <note Length="0.0625" Pitch="39" RiffPosition="9.4375" Velocity="0" />
      <note Length="0.0625" Pitch="39" RiffPosition="9.5" Velocity="0" />
      <note Length="0.0625" Pitch="39" RiffPosition="9.5625" Velocity="0" />
      <note Length="0.0625" Pitch="39" RiffPosition="9.625" Velocity="0" />
      <note Length="0.0625" Pitch="39" RiffPosition="9.6875" Velocity="0" />
      <note Length="0.0625" Pitch="39" RiffPosition="9.75" Velocity="0" />
      <note Length="0.0625" Pitch="39" RiffPosition="9.8125" Velocity="0" />
      <note Length="0.0625" Pitch="39" RiffPosition="9.875" Velocity="0" />
      <note Length="0.0625" Pitch="39" RiffPosition="9.9375" Velocity="0" />
      <note Length="0.0625" Pitch="39" RiffPosition="10" Velocity="0" />
      <note Length="0.0625" Pitch="39" RiffPosition="10.0625" Velocity="0" />
      <note Length="0.0625" Pitch="39" RiffPosition="10.125" Velocity="0" />
      <note Length="0.0625" Pitch="39" RiffPosition="10.1875" Velocity="0" />
      <note Length="0.0625" Pitch="39" RiffPosition="10.25" Velocity="0" />
      <note Length="0.0625" Pitch="39" RiffPosition="10.3125" Velocity="0" />
      <note Length="0.0625" Pitch="39" RiffPosition="10.375" Velocity="0" />
      <note Length="0.0625" Pitch="39" RiffPosition="10.4375" Velocity="0" />
      <note Length="0.0625" Pitch="39" RiffPosition="10.5" Velocity="0" />
      <note Length="0.0625" Pitch="39" RiffPosition="10.5625" Velocity="0" />
      <note Length="0.0625" Pitch="39" RiffPosition="10.625" Velocity="0" />
      <note Length="0.0625" Pitch="39" RiffPosition="10.6875" Velocity="0" />
      <note Length="0.0625" Pitch="39" RiffPosition="10.75" Velocity="0" />
      <note Length="0.0625" Pitch="39" RiffPosition="10.8125" Velocity="0" />
      <note Length="0.0625" Pitch="39" RiffPosition="10.875" Velocity="0" />
      <note Length="0.0625" Pitch="39" RiffPosition="10.9375" Velocity="0" />
      <note Length="0.0625" Pitch="39" RiffPosition="11" Velocity="0" />
      <note Length="0.0625" Pitch="39" RiffPosition="11.0625" Velocity="0" />
      <note Length="0.0625" Pitch="39" RiffPosition="11.125" Velocity="0" />
      <note Length="0.0625" Pitch="39" RiffPosition="11.1875" Velocity="0" />
      <note Length="0.0625" Pitch="39" RiffPosition="11.25" Velocity="0" />
      <note Length="0.0625" Pitch="39" RiffPosition="11.3125" Velocity="0" />
      <note Length="0.0625" Pitch="39" RiffPosition="11.375" Velocity="0" />
      <note Length="0.0625" Pitch="39" RiffPosition="11.4375" Velocity="0" />
      <note Length="0.0625" Pitch="39" RiffPosition="11.5" Velocity="0" />
      <note Length="0.0625" Pitch="39" RiffPosition="11.5625" Velocity="0" />
      <note Length="0.0625" Pitch="39" RiffPosition="11.625" Velocity="0" />
      <note Length="0.0625" Pitch="39" RiffPosition="11.6875" Velocity="0" />
      <note Length="0.0625" Pitch="39" RiffPosition="11.75" Velocity="0" />
      <note Length="0.0625" Pitch="39" RiffPosition="11.8125" Velocity="0" />
      <note Length="0.0625" Pitch="39" RiffPosition="11.875" Velocity="0" />
      <note Length="0.0625" Pitch="39" RiffPosition="11.9375" Velocity="0" />
      <note Length="0.0625" Pitch="39" RiffPosition="12" Velocity="0" />
      <note Length="0.0625" Pitch="39" RiffPosition="12.0625" Velocity="0" />
      <note Length="0.0625" Pitch="39" RiffPosition="12.125" Velocity="0" />
      <note Length="0.0625" Pitch="39" RiffPosition="12.1875" Velocity="0" />
      <note Length="0.0625" Pitch="39" RiffPosition="12.25" Velocity="0" />
      <note Length="0.0625" Pitch="39" RiffPosition="12.3125" Velocity="0" />
      <note Length="0.0625" Pitch="39" RiffPosition="12.375" Velocity="0" />
      <note Length="0.0625" Pitch="39" RiffPosition="12.4375" Velocity="0" />
      <note Length="0.0625" Pitch="39" RiffPosition="12.5" Velocity="0" />
      <note Length="0.0625" Pitch="39" RiffPosition="12.5625" Velocity="0" />
      <note Length="0.0625" Pitch="39" RiffPosition="12.625" Velocity="0" />
      <note Length="0.0625" Pitch="39" RiffPosition="12.6875" Velocity="0" />
      <note Length="0.0625" Pitch="39" RiffPosition="12.75" Velocity="0" />
      <note Length="0.0625" Pitch="39" RiffPosition="12.8125" Velocity="0" />
      <note Length="0.0625" Pitch="39" RiffPosition="12.875" Velocity="0" />
      <note Length="0.0625" Pitch="39" RiffPosition="12.9375" Velocity="0" />
      <note Length="0.0625" Pitch="39" RiffPosition="13" Velocity="0" />
      <note Length="0.0625" Pitch="39" RiffPosition="13.0625" Velocity="0" />
      <note Length="0.0625" Pitch="39" RiffPosition="13.125" Velocity="0" />
      <note Length="0.0625" Pitch="39" RiffPosition="13.1875" Velocity="0" />
      <note Length="0.0625" Pitch="39" RiffPosition="13.25" Velocity="0" />
      <note Length="0.0625" Pitch="39" RiffPosition="13.3125" Velocity="0" />
      <note Length="0.0625" Pitch="39" RiffPosition="13.375" Velocity="0" />
      <note Length="0.0625" Pitch="39" RiffPosition="13.4375" Velocity="0" />
      <note Length="0.0625" Pitch="39" RiffPosition="13.5" Velocity="0" />
      <note Length="0.0625" Pitch="39" RiffPosition="13.5625" Velocity="0" />
      <note Length="0.0625" Pitch="39" RiffPosition="13.625" Velocity="0" />
      <note Length="0.0625" Pitch="39" RiffPosition="13.6875" Velocity="0" />
      <note Length="0.0625" Pitch="39" RiffPosition="13.75" Velocity="0" />
      <note Length="0.0625" Pitch="39" RiffPosition="13.8125" Velocity="0" />
      <note Length="0.0625" Pitch="39" RiffPosition="13.875" Velocity="0" />
      <note Length="0.0625" Pitch="39" RiffPosition="13.9375" Velocity="0" />
    </riff>
    <riff IsDrum="False" MidiInstrument="34" Tempo="79" Length="14">
      <note Length="0.0625" Pitch="39" RiffPosition="0" Velocity="0" />
      <note Length="0.015625" Pitch="27" RiffPosition="0.0625" Velocity="0" />
      <note Length="0.015625" Pitch="27" RiffPosition="0.078125" Velocity="0" />
      <note Length="0.0234375" Pitch="39" RiffPosition="0.09375" Velocity="0" />
      <note Length="0.0078125" Pitch="39" RiffPosition="0.1171875" Velocity="0" />
      <note Length="0.0625" Pitch="39" RiffPosition="0.125" Velocity="0" />
      <note Length="0.015625" Pitch="44" RiffPosition="0.1875" Velocity="0" />
      <note Length="0.015625" Pitch="44" RiffPosition="0.203125" Velocity="0" />
      <note Length="0.0234375" Pitch="41" RiffPosition="0.21875" Velocity="0" />
      <note Length="0.0078125" Pitch="41" RiffPosition="0.2421875" Velocity="0" />
      <note Length="0.0625" Pitch="41" RiffPosition="0.25" Velocity="0" />
      <note Length="0.015625" Pitch="27" RiffPosition="0.3125" Velocity="0" />
      <note Length="0.015625" Pitch="27" RiffPosition="0.328125" Velocity="0" />
      <note Length="0.0234375" Pitch="39" RiffPosition="0.34375" Velocity="0" />
      <note Length="0.0078125" Pitch="39" RiffPosition="0.3671875" Velocity="0" />
      <note Length="0.0625" Pitch="39" RiffPosition="0.375" Velocity="0" />
      <note Length="0.015625" Pitch="42" RiffPosition="0.4375" Velocity="0" />
      <note Length="0.015625" Pitch="42" RiffPosition="0.453125" Velocity="0" />
      <note Length="0.0234375" Pitch="39" RiffPosition="0.46875" Velocity="0" />
      <note Length="0.0078125" Pitch="39" RiffPosition="0.4921875" Velocity="0" />
      <note Length="0.0625" Pitch="39" RiffPosition="0.5" Velocity="0" />
      <note Length="0.015625" Pitch="35" RiffPosition="0.5625" Velocity="0" />
      <note Length="0.015625" Pitch="35" RiffPosition="0.578125" Velocity="0" />
      <note Length="0.0234375" Pitch="27" RiffPosition="0.59375" Velocity="0" />
      <note Length="0.0078125" Pitch="27" RiffPosition="0.6171875" Velocity="0" />
      <note Length="0.0625" Pitch="27" RiffPosition="0.625" Velocity="0" />
      <note Length="0.015625" Pitch="39" RiffPosition="0.6875" Velocity="0" />
      <note Length="0.015625" Pitch="39" RiffPosition="0.703125" Velocity="0" />
      <note Length="0.0234375" Pitch="27" RiffPosition="0.71875" Velocity="0" />
      <note Length="0.0078125" Pitch="27" RiffPosition="0.7421875" Velocity="0" />
      <note Length="0.0625" Pitch="27" RiffPosition="0.75" Velocity="0" />
      <note Length="0.015625" Pitch="34" RiffPosition="0.8125" Velocity="0" />
      <note Length="0.015625" Pitch="34" RiffPosition="0.828125" Velocity="0" />
      <note Length="0.0234375" Pitch="27" RiffPosition="0.84375" Velocity="0" />
      <note Length="0.0078125" Pitch="27" RiffPosition="0.8671875" Velocity="0" />
      <note Length="0.0625" Pitch="27" RiffPosition="0.875" Velocity="0" />
      <note Length="0.015625" Pitch="41" RiffPosition="0.9375" Velocity="0" />
      <note Length="0.015625" Pitch="42" RiffPosition="0.953125" Velocity="0" />
      <note Length="0.0234375" Pitch="27" RiffPosition="0.96875" Velocity="0" />
      <note Length="0.0078125" Pitch="27" RiffPosition="0.9921875" Velocity="0" />
      <note Length="0.0625" Pitch="29" RiffPosition="1" Velocity="0" />
      <note Length="0.015625" Pitch="29" RiffPosition="1.0625" Velocity="0" />
      <note Length="0.015625" Pitch="29" RiffPosition="1.078125" Velocity="0" />
      <note Length="0.0234375" Pitch="41" RiffPosition="1.09375" Velocity="0" />
      <note Length="0.0078125" Pitch="41" RiffPosition="1.1171875" Velocity="0" />
      <note Length="0.0625" Pitch="41" RiffPosition="1.125" Velocity="0" />
      <note Length="0.015625" Pitch="46" RiffPosition="1.1875" Velocity="0" />
      <note Length="0.015625" Pitch="46" RiffPosition="1.203125" Velocity="0" />
      <note Length="0.0234375" Pitch="41" RiffPosition="1.21875" Velocity="0" />
      <note Length="0.0078125" Pitch="43" RiffPosition="1.2421875" Velocity="0" />
      <note Length="0.0625" Pitch="43" RiffPosition="1.25" Velocity="0" />
      <note Length="0.015625" Pitch="29" RiffPosition="1.3125" Velocity="0" />
      <note Length="0.015625" Pitch="29" RiffPosition="1.328125" Velocity="0" />
      <note Length="0.0234375" Pitch="41" RiffPosition="1.34375" Velocity="0" />
      <note Length="0.0078125" Pitch="41" RiffPosition="1.3671875" Velocity="0" />
      <note Length="0.0625" Pitch="41" RiffPosition="1.375" Velocity="0" />
      <note Length="0.015625" Pitch="44" RiffPosition="1.4375" Velocity="0" />
      <note Length="0.015625" Pitch="44" RiffPosition="1.453125" Velocity="0" />
      <note Length="0.0234375" Pitch="41" RiffPosition="1.46875" Velocity="0" />
      <note Length="0.0078125" Pitch="41" RiffPosition="1.4921875" Velocity="0" />
      <note Length="0.0625" Pitch="41" RiffPosition="1.5" Velocity="0" />
      <note Length="0.015625" Pitch="37" RiffPosition="1.5625" Velocity="0" />
      <note Length="0.015625" Pitch="37" RiffPosition="1.578125" Velocity="0" />
      <note Length="0.0234375" Pitch="29" RiffPosition="1.59375" Velocity="0" />
      <note Length="0.0078125" Pitch="29" RiffPosition="1.6171875" Velocity="0" />
      <note Length="0.0625" Pitch="29" RiffPosition="1.625" Velocity="0" />
      <note Length="0.015625" Pitch="41" RiffPosition="1.6875" Velocity="0" />
      <note Length="0.015625" Pitch="41" RiffPosition="1.703125" Velocity="0" />
      <note Length="0.0234375" Pitch="29" RiffPosition="1.71875" Velocity="0" />
      <note Length="0.0078125" Pitch="29" RiffPosition="1.7421875" Velocity="0" />
      <note Length="0.0625" Pitch="29" RiffPosition="1.75" Velocity="0" />
      <note Length="0.015625" Pitch="36" RiffPosition="1.8125" Velocity="0" />
      <note Length="0.015625" Pitch="36" RiffPosition="1.828125" Velocity="0" />
      <note Length="0.0234375" Pitch="29" RiffPosition="1.84375" Velocity="0" />
      <note Length="0.0078125" Pitch="29" RiffPosition="1.8671875" Velocity="0" />
      <note Length="0.0625" Pitch="29" RiffPosition="1.875" Velocity="0" />
      <note Length="0.015625" Pitch="43" RiffPosition="1.9375" Velocity="0" />
      <note Length="0.015625" Pitch="44" RiffPosition="1.953125" Velocity="0" />
      <note Length="0.0234375" Pitch="29" RiffPosition="1.96875" Velocity="0" />
      <note Length="0.0078125" Pitch="29" RiffPosition="1.9921875" Velocity="0" />
      <note Length="0.0625" Pitch="27" RiffPosition="2" Velocity="0" />
      <note Length="0.015625" Pitch="27" RiffPosition="2.0625" Velocity="0" />
      <note Length="0.015625" Pitch="27" RiffPosition="2.078125" Velocity="0" />
      <note Length="0.0234375" Pitch="39" RiffPosition="2.09375" Velocity="0" />
      <note Length="0.0078125" Pitch="39" RiffPosition="2.1171875" Velocity="0" />
      <note Length="0.0625" Pitch="39" RiffPosition="2.125" Velocity="0" />
      <note Length="0.015625" Pitch="44" RiffPosition="2.1875" Velocity="0" />
      <note Length="0.015625" Pitch="44" RiffPosition="2.203125" Velocity="0" />
      <note Length="0.0234375" Pitch="39" RiffPosition="2.21875" Velocity="0" />
      <note Length="0.0078125" Pitch="41" RiffPosition="2.2421875" Velocity="0" />
      <note Length="0.0625" Pitch="41" RiffPosition="2.25" Velocity="0" />
      <note Length="0.015625" Pitch="27" RiffPosition="2.3125" Velocity="0" />
      <note Length="0.015625" Pitch="27" RiffPosition="2.328125" Velocity="0" />
      <note Length="0.0234375" Pitch="39" RiffPosition="2.34375" Velocity="0" />
      <note Length="0.0078125" Pitch="39" RiffPosition="2.3671875" Velocity="0" />
      <note Length="0.0625" Pitch="39" RiffPosition="2.375" Velocity="0" />
      <note Length="0.015625" Pitch="42" RiffPosition="2.4375" Velocity="0" />
      <note Length="0.015625" Pitch="42" RiffPosition="2.453125" Velocity="0" />
      <note Length="0.0234375" Pitch="39" RiffPosition="2.46875" Velocity="0" />
      <note Length="0.0078125" Pitch="39" RiffPosition="2.4921875" Velocity="0" />
      <note Length="0.0625" Pitch="39" RiffPosition="2.5" Velocity="0" />
      <note Length="0.015625" Pitch="35" RiffPosition="2.5625" Velocity="0" />
      <note Length="0.015625" Pitch="35" RiffPosition="2.578125" Velocity="0" />
      <note Length="0.0234375" Pitch="27" RiffPosition="2.59375" Velocity="0" />
      <note Length="0.0078125" Pitch="27" RiffPosition="2.6171875" Velocity="0" />
      <note Length="0.0625" Pitch="27" RiffPosition="2.625" Velocity="0" />
      <note Length="0.015625" Pitch="39" RiffPosition="2.6875" Velocity="0" />
      <note Length="0.015625" Pitch="39" RiffPosition="2.703125" Velocity="0" />
      <note Length="0.0234375" Pitch="27" RiffPosition="2.71875" Velocity="0" />
      <note Length="0.0078125" Pitch="27" RiffPosition="2.7421875" Velocity="0" />
      <note Length="0.0625" Pitch="27" RiffPosition="2.75" Velocity="0" />
      <note Length="0.015625" Pitch="34" RiffPosition="2.8125" Velocity="0" />
      <note Length="0.015625" Pitch="34" RiffPosition="2.828125" Velocity="0" />
      <note Length="0.0234375" Pitch="27" RiffPosition="2.84375" Velocity="0" />
      <note Length="0.0078125" Pitch="27" RiffPosition="2.8671875" Velocity="0" />
      <note Length="0.0625" Pitch="27" RiffPosition="2.875" Velocity="0" />
      <note Length="0.015625" Pitch="42" RiffPosition="2.9375" Velocity="0" />
      <note Length="0.015625" Pitch="42" RiffPosition="2.953125" Velocity="0" />
      <note Length="0.0234375" Pitch="27" RiffPosition="2.96875" Velocity="0" />
      <note Length="0.0078125" Pitch="39" RiffPosition="2.9921875" Velocity="0" />
      <note Length="0.0625" Pitch="29" RiffPosition="3" Velocity="0" />
      <note Length="0.015625" Pitch="29" RiffPosition="3.0625" Velocity="0" />
      <note Length="0.015625" Pitch="29" RiffPosition="3.078125" Velocity="0" />
      <note Length="0.0234375" Pitch="41" RiffPosition="3.09375" Velocity="0" />
      <note Length="0.0078125" Pitch="41" RiffPosition="3.1171875" Velocity="0" />
      <note Length="0.0625" Pitch="41" RiffPosition="3.125" Velocity="0" />
      <note Length="0.015625" Pitch="46" RiffPosition="3.1875" Velocity="0" />
      <note Length="0.015625" Pitch="46" RiffPosition="3.203125" Velocity="0" />
      <note Length="0.0234375" Pitch="41" RiffPosition="3.21875" Velocity="0" />
      <note Length="0.0078125" Pitch="43" RiffPosition="3.2421875" Velocity="0" />
      <note Length="0.0625" Pitch="43" RiffPosition="3.25" Velocity="0" />
      <note Length="0.015625" Pitch="29" RiffPosition="3.3125" Velocity="0" />
      <note Length="0.015625" Pitch="29" RiffPosition="3.328125" Velocity="0" />
      <note Length="0.0234375" Pitch="41" RiffPosition="3.34375" Velocity="0" />
      <note Length="0.0078125" Pitch="41" RiffPosition="3.3671875" Velocity="0" />
      <note Length="0.0625" Pitch="41" RiffPosition="3.375" Velocity="0" />
      <note Length="0.015625" Pitch="44" RiffPosition="3.4375" Velocity="0" />
      <note Length="0.015625" Pitch="44" RiffPosition="3.453125" Velocity="0" />
      <note Length="0.0234375" Pitch="41" RiffPosition="3.46875" Velocity="0" />
      <note Length="0.0078125" Pitch="41" RiffPosition="3.4921875" Velocity="0" />
      <note Length="0.0625" Pitch="29" RiffPosition="3.5" Velocity="0" />
      <note Length="0.015625" Pitch="37" RiffPosition="3.5625" Velocity="0" />
      <note Length="0.015625" Pitch="37" RiffPosition="3.578125" Velocity="0" />
      <note Length="0.0234375" Pitch="29" RiffPosition="3.59375" Velocity="0" />
      <note Length="0.0078125" Pitch="29" RiffPosition="3.6171875" Velocity="0" />
      <note Length="0.0625" Pitch="29" RiffPosition="3.625" Velocity="0" />
      <note Length="0.015625" Pitch="41" RiffPosition="3.6875" Velocity="0" />
      <note Length="0.015625" Pitch="41" RiffPosition="3.703125" Velocity="0" />
      <note Length="0.0234375" Pitch="29" RiffPosition="3.71875" Velocity="0" />
      <note Length="0.0078125" Pitch="29" RiffPosition="3.7421875" Velocity="0" />
      <note Length="0.0625" Pitch="29" RiffPosition="3.75" Velocity="0" />
      <note Length="0.015625" Pitch="36" RiffPosition="3.8125" Velocity="0" />
      <note Length="0.015625" Pitch="36" RiffPosition="3.828125" Velocity="0" />
      <note Length="0.0234375" Pitch="29" RiffPosition="3.84375" Velocity="0" />
      <note Length="0.0078125" Pitch="29" RiffPosition="3.8671875" Velocity="0" />
      <note Length="0.0625" Pitch="29" RiffPosition="3.875" Velocity="0" />
      <note Length="0.015625" Pitch="44" RiffPosition="3.9375" Velocity="0" />
      <note Length="0.015625" Pitch="44" RiffPosition="3.953125" Velocity="0" />
      <note Length="0.0234375" Pitch="29" RiffPosition="3.96875" Velocity="0" />
      <note Length="0.0078125" Pitch="41" RiffPosition="3.9921875" Velocity="0" />
      <note Length="0.0625" Pitch="41" RiffPosition="4" Velocity="62" />
      <note Length="0.015625" Pitch="29" RiffPosition="4.0625" Velocity="77" />
      <note Length="0.015625" Pitch="29" RiffPosition="4.078125" Velocity="90" />
      <note Length="0.0234375" Pitch="41" RiffPosition="4.09375" Velocity="102" />
      <note Length="0.0078125" Pitch="41" RiffPosition="4.1171875" Velocity="109" />
      <note Length="0.0625" Pitch="41" RiffPosition="4.125" Velocity="107" />
      <note Length="0.015625" Pitch="46" RiffPosition="4.1875" Velocity="37" />
      <note Length="0.015625" Pitch="46" RiffPosition="4.203125" Velocity="50" />
      <note Length="0.0234375" Pitch="41" RiffPosition="4.21875" Velocity="62" />
      <note Length="0.0078125" Pitch="43" RiffPosition="4.2421875" Velocity="69" />
      <note Length="0.0625" Pitch="43" RiffPosition="4.25" Velocity="68" />
      <note Length="0.015625" Pitch="29" RiffPosition="4.3125" Velocity="42" />
      <note Length="0.015625" Pitch="29" RiffPosition="4.328125" Velocity="52" />
      <note Length="0.0234375" Pitch="41" RiffPosition="4.34375" Velocity="57" />
      <note Length="0.0078125" Pitch="41" RiffPosition="4.3671875" Velocity="53" />
      <note Length="0.0625" Pitch="41" RiffPosition="4.375" Velocity="48" />
      <note Length="0.015625" Pitch="44" RiffPosition="4.4375" Velocity="87" />
      <note Length="0.015625" Pitch="44" RiffPosition="4.453125" Velocity="104" />
      <note Length="0.0234375" Pitch="41" RiffPosition="4.46875" Velocity="110" />
      <note Length="0.0078125" Pitch="29" RiffPosition="4.4921875" Velocity="106" />
      <note Length="0.0625" Pitch="29" RiffPosition="4.5" Velocity="101" />
      <note Length="0.015625" Pitch="37" RiffPosition="4.5625" Velocity="38" />
      <note Length="0.015625" Pitch="37" RiffPosition="4.578125" Velocity="59" />
      <note Length="0.0234375" Pitch="29" RiffPosition="4.59375" Velocity="72" />
      <note Length="0.0078125" Pitch="29" RiffPosition="4.6171875" Velocity="79" />
      <note Length="0.0625" Pitch="29" RiffPosition="4.625" Velocity="78" />
      <note Length="0.015625" Pitch="43" RiffPosition="4.6875" Velocity="38" />
      <note Length="0.015625" Pitch="41" RiffPosition="4.703125" Velocity="42" />
      <note Length="0.0234375" Pitch="29" RiffPosition="4.71875" Velocity="47" />
      <note Length="0.0078125" Pitch="29" RiffPosition="4.7421875" Velocity="43" />
      <note Length="0.0625" Pitch="29" RiffPosition="4.75" Velocity="39" />
      <note Length="0.015625" Pitch="36" RiffPosition="4.8125" Velocity="89" />
      <note Length="0.015625" Pitch="36" RiffPosition="4.828125" Velocity="99" />
      <note Length="0.0234375" Pitch="29" RiffPosition="4.84375" Velocity="104" />
      <note Length="0.0078125" Pitch="29" RiffPosition="4.8671875" Velocity="100" />
      <note Length="0.0625" Pitch="29" RiffPosition="4.875" Velocity="96" />
      <note Length="0.015625" Pitch="44" RiffPosition="4.9375" Velocity="48" />
      <note Length="0.015625" Pitch="44" RiffPosition="4.953125" Velocity="65" />
      <note Length="0.0234375" Pitch="29" RiffPosition="4.96875" Velocity="77" />
      <note Length="0.0078125" Pitch="29" RiffPosition="4.9921875" Velocity="84" />
      <note Length="0.0625" Pitch="41" RiffPosition="5" Velocity="84" />
      <note Length="0.015625" Pitch="29" RiffPosition="5.0625" Velocity="43" />
      <note Length="0.015625" Pitch="29" RiffPosition="5.078125" Velocity="38" />
      <note Length="0.0234375" Pitch="41" RiffPosition="5.09375" Velocity="37" />
      <note Length="0.0078125" Pitch="41" RiffPosition="5.1171875" Velocity="37" />
      <note Length="0.0625" Pitch="41" RiffPosition="5.125" Velocity="39" />
      <note Length="0.015625" Pitch="46" RiffPosition="5.1875" Velocity="80" />
      <note Length="0.015625" Pitch="46" RiffPosition="5.203125" Velocity="89" />
      <note Length="0.0234375" Pitch="43" RiffPosition="5.21875" Velocity="94" />
      <note Length="0.0078125" Pitch="43" RiffPosition="5.2421875" Velocity="91" />
      <note Length="0.0625" Pitch="43" RiffPosition="5.25" Velocity="86" />
      <note Length="0.015625" Pitch="29" RiffPosition="5.3125" Velocity="54" />
      <note Length="0.015625" Pitch="29" RiffPosition="5.328125" Velocity="70" />
      <note Length="0.0234375" Pitch="41" RiffPosition="5.34375" Velocity="83" />
      <note Length="0.0078125" Pitch="41" RiffPosition="5.3671875" Velocity="90" />
      <note Length="0.0625" Pitch="41" RiffPosition="5.375" Velocity="89" />
      <note Length="0.015625" Pitch="44" RiffPosition="5.4375" Velocity="53" />
      <note Length="0.015625" Pitch="44" RiffPosition="5.453125" Velocity="43" />
      <note Length="0.0234375" Pitch="41" RiffPosition="5.46875" Velocity="38" />
      <note Length="0.0078125" Pitch="29" RiffPosition="5.4921875" Velocity="45" />
      <note Length="0.0625" Pitch="29" RiffPosition="5.5" Velocity="45" />
      <note Length="0.015625" Pitch="37" RiffPosition="5.5625" Velocity="66" />
      <note Length="0.015625" Pitch="37" RiffPosition="5.578125" Velocity="80" />
      <note Length="0.0234375" Pitch="29" RiffPosition="5.59375" Velocity="85" />
      <note Length="0.0078125" Pitch="29" RiffPosition="5.6171875" Velocity="81" />
      <note Length="0.0625" Pitch="29" RiffPosition="5.625" Velocity="76" />
      <note Length="0.015625" Pitch="43" RiffPosition="5.6875" Velocity="63" />
      <note Length="0.015625" Pitch="41" RiffPosition="5.703125" Velocity="80" />
      <note Length="0.0234375" Pitch="29" RiffPosition="5.71875" Velocity="93" />
      <note Length="0.0078125" Pitch="29" RiffPosition="5.7421875" Velocity="100" />
      <note Length="0.0625" Pitch="29" RiffPosition="5.75" Velocity="99" />
      <note Length="0.015625" Pitch="36" RiffPosition="5.8125" Velocity="47" />
      <note Length="0.015625" Pitch="36" RiffPosition="5.828125" Velocity="40" />
      <note Length="0.0234375" Pitch="29" RiffPosition="5.84375" Velocity="52" />
      <note Length="0.0078125" Pitch="29" RiffPosition="5.8671875" Velocity="59" />
      <note Length="0.0625" Pitch="29" RiffPosition="5.875" Velocity="59" />
      <note Length="0.015625" Pitch="44" RiffPosition="5.9375" Velocity="56" />
      <note Length="0.015625" Pitch="44" RiffPosition="5.953125" Velocity="66" />
      <note Length="0.0234375" Pitch="29" RiffPosition="5.96875" Velocity="71" />
      <note Length="0.0078125" Pitch="29" RiffPosition="5.9921875" Velocity="67" />
      <note Length="0.0625" Pitch="41" RiffPosition="6" Velocity="62" />
      <note Length="0.015625" Pitch="29" RiffPosition="6.0625" Velocity="77" />
      <note Length="0.015625" Pitch="29" RiffPosition="6.078125" Velocity="90" />
      <note Length="0.0234375" Pitch="41" RiffPosition="6.09375" Velocity="102" />
      <note Length="0.0078125" Pitch="41" RiffPosition="6.1171875" Velocity="109" />
      <note Length="0.0625" Pitch="41" RiffPosition="6.125" Velocity="107" />
      <note Length="0.015625" Pitch="46" RiffPosition="6.1875" Velocity="37" />
      <note Length="0.015625" Pitch="46" RiffPosition="6.203125" Velocity="50" />
      <note Length="0.0234375" Pitch="43" RiffPosition="6.21875" Velocity="62" />
      <note Length="0.0078125" Pitch="43" RiffPosition="6.2421875" Velocity="69" />
      <note Length="0.0625" Pitch="43" RiffPosition="6.25" Velocity="68" />
      <note Length="0.015625" Pitch="29" RiffPosition="6.3125" Velocity="42" />
      <note Length="0.015625" Pitch="29" RiffPosition="6.328125" Velocity="52" />
      <note Length="0.0234375" Pitch="41" RiffPosition="6.34375" Velocity="57" />
      <note Length="0.0078125" Pitch="41" RiffPosition="6.3671875" Velocity="53" />
      <note Length="0.0625" Pitch="41" RiffPosition="6.375" Velocity="48" />
      <note Length="0.015625" Pitch="44" RiffPosition="6.4375" Velocity="87" />
      <note Length="0.015625" Pitch="44" RiffPosition="6.453125" Velocity="104" />
      <note Length="0.0234375" Pitch="41" RiffPosition="6.46875" Velocity="110" />
      <note Length="0.0078125" Pitch="41" RiffPosition="6.4921875" Velocity="106" />
      <note Length="0.0625" Pitch="29" RiffPosition="6.5" Velocity="101" />
      <note Length="0.015625" Pitch="37" RiffPosition="6.5625" Velocity="38" />
      <note Length="0.015625" Pitch="37" RiffPosition="6.578125" Velocity="59" />
      <note Length="0.0234375" Pitch="29" RiffPosition="6.59375" Velocity="72" />
      <note Length="0.0078125" Pitch="29" RiffPosition="6.6171875" Velocity="79" />
      <note Length="0.0625" Pitch="29" RiffPosition="6.625" Velocity="78" />
      <note Length="0.015625" Pitch="43" RiffPosition="6.6875" Velocity="38" />
      <note Length="0.015625" Pitch="41" RiffPosition="6.703125" Velocity="42" />
      <note Length="0.0234375" Pitch="29" RiffPosition="6.71875" Velocity="47" />
      <note Length="0.0078125" Pitch="29" RiffPosition="6.7421875" Velocity="43" />
      <note Length="0.0625" Pitch="29" RiffPosition="6.75" Velocity="39" />
      <note Length="0.015625" Pitch="36" RiffPosition="6.8125" Velocity="89" />
      <note Length="0.015625" Pitch="36" RiffPosition="6.828125" Velocity="99" />
      <note Length="0.0234375" Pitch="29" RiffPosition="6.84375" Velocity="104" />
      <note Length="0.0078125" Pitch="29" RiffPosition="6.8671875" Velocity="100" />
      <note Length="0.0625" Pitch="29" RiffPosition="6.875" Velocity="96" />
      <note Length="0.015625" Pitch="44" RiffPosition="6.9375" Velocity="48" />
      <note Length="0.015625" Pitch="44" RiffPosition="6.953125" Velocity="65" />
      <note Length="0.0234375" Pitch="29" RiffPosition="6.96875" Velocity="77" />
      <note Length="0.0078125" Pitch="29" RiffPosition="6.9921875" Velocity="84" />
      <note Length="0.0625" Pitch="29" RiffPosition="7" Velocity="84" />
      <note Length="0.015625" Pitch="29" RiffPosition="7.0625" Velocity="43" />
      <note Length="0.015625" Pitch="29" RiffPosition="7.078125" Velocity="38" />
      <note Length="0.0234375" Pitch="41" RiffPosition="7.09375" Velocity="37" />
      <note Length="0.0078125" Pitch="41" RiffPosition="7.1171875" Velocity="37" />
      <note Length="0.0625" Pitch="41" RiffPosition="7.125" Velocity="39" />
      <note Length="0.015625" Pitch="46" RiffPosition="7.1875" Velocity="80" />
      <note Length="0.015625" Pitch="46" RiffPosition="7.203125" Velocity="89" />
      <note Length="0.0234375" Pitch="41" RiffPosition="7.21875" Velocity="94" />
      <note Length="0.0078125" Pitch="43" RiffPosition="7.2421875" Velocity="91" />
      <note Length="0.0625" Pitch="43" RiffPosition="7.25" Velocity="86" />
      <note Length="0.015625" Pitch="29" RiffPosition="7.3125" Velocity="54" />
      <note Length="0.015625" Pitch="29" RiffPosition="7.328125" Velocity="70" />
      <note Length="0.0234375" Pitch="41" RiffPosition="7.34375" Velocity="83" />
      <note Length="0.0078125" Pitch="41" RiffPosition="7.3671875" Velocity="90" />
      <note Length="0.0625" Pitch="41" RiffPosition="7.375" Velocity="89" />
      <note Length="0.015625" Pitch="44" RiffPosition="7.4375" Velocity="53" />
      <note Length="0.015625" Pitch="44" RiffPosition="7.453125" Velocity="43" />
      <note Length="0.0234375" Pitch="41" RiffPosition="7.46875" Velocity="38" />
      <note Length="0.0078125" Pitch="41" RiffPosition="7.4921875" Velocity="45" />
      <note Length="0.0625" Pitch="41" RiffPosition="7.5" Velocity="45" />
      <note Length="0.015625" Pitch="37" RiffPosition="7.5625" Velocity="66" />
      <note Length="0.015625" Pitch="37" RiffPosition="7.578125" Velocity="80" />
      <note Length="0.0234375" Pitch="29" RiffPosition="7.59375" Velocity="85" />
      <note Length="0.0078125" Pitch="29" RiffPosition="7.6171875" Velocity="81" />
      <note Length="0.0625" Pitch="29" RiffPosition="7.625" Velocity="76" />
      <note Length="0.015625" Pitch="41" RiffPosition="7.6875" Velocity="63" />
      <note Length="0.015625" Pitch="41" RiffPosition="7.703125" Velocity="80" />
      <note Length="0.0234375" Pitch="29" RiffPosition="7.71875" Velocity="93" />
      <note Length="0.0078125" Pitch="29" RiffPosition="7.7421875" Velocity="100" />
      <note Length="0.0625" Pitch="29" RiffPosition="7.75" Velocity="99" />
      <note Length="0.015625" Pitch="36" RiffPosition="7.8125" Velocity="47" />
      <note Length="0.015625" Pitch="36" RiffPosition="7.828125" Velocity="40" />
      <note Length="0.0234375" Pitch="29" RiffPosition="7.84375" Velocity="52" />
      <note Length="0.0078125" Pitch="29" RiffPosition="7.8671875" Velocity="59" />
      <note Length="0.0625" Pitch="29" RiffPosition="7.875" Velocity="59" />
      <note Length="0.015625" Pitch="43" RiffPosition="7.9375" Velocity="56" />
      <note Length="0.015625" Pitch="44" RiffPosition="7.953125" Velocity="66" />
      <note Length="0.0234375" Pitch="29" RiffPosition="7.96875" Velocity="71" />
      <note Length="0.0078125" Pitch="29" RiffPosition="7.9921875" Velocity="67" />
      <note Length="0.0625" Pitch="27" RiffPosition="8" Velocity="62" />
      <note Length="0.015625" Pitch="27" RiffPosition="8.0625" Velocity="77" />
      <note Length="0.015625" Pitch="27" RiffPosition="8.078125" Velocity="90" />
      <note Length="0.0234375" Pitch="39" RiffPosition="8.09375" Velocity="102" />
      <note Length="0.0078125" Pitch="39" RiffPosition="8.1171875" Velocity="109" />
      <note Length="0.0625" Pitch="39" RiffPosition="8.125" Velocity="107" />
      <note Length="0.015625" Pitch="44" RiffPosition="8.1875" Velocity="37" />
      <note Length="0.015625" Pitch="44" RiffPosition="8.203125" Velocity="50" />
      <note Length="0.0234375" Pitch="39" RiffPosition="8.21875" Velocity="62" />
      <note Length="0.0078125" Pitch="41" RiffPosition="8.2421875" Velocity="69" />
      <note Length="0.0625" Pitch="41" RiffPosition="8.25" Velocity="68" />
      <note Length="0.015625" Pitch="27" RiffPosition="8.3125" Velocity="42" />
      <note Length="0.015625" Pitch="27" RiffPosition="8.328125" Velocity="52" />
      <note Length="0.0234375" Pitch="39" RiffPosition="8.34375" Velocity="57" />
      <note Length="0.0078125" Pitch="39" RiffPosition="8.3671875" Velocity="53" />
      <note Length="0.0625" Pitch="39" RiffPosition="8.375" Velocity="48" />
      <note Length="0.015625" Pitch="42" RiffPosition="8.4375" Velocity="87" />
      <note Length="0.015625" Pitch="42" RiffPosition="8.453125" Velocity="104" />
      <note Length="0.0234375" Pitch="39" RiffPosition="8.46875" Velocity="110" />
      <note Length="0.0078125" Pitch="39" RiffPosition="8.4921875" Velocity="106" />
      <note Length="0.0625" Pitch="39" RiffPosition="8.5" Velocity="101" />
      <note Length="0.015625" Pitch="35" RiffPosition="8.5625" Velocity="38" />
      <note Length="0.015625" Pitch="35" RiffPosition="8.578125" Velocity="59" />
      <note Length="0.0234375" Pitch="27" RiffPosition="8.59375" Velocity="72" />
      <note Length="0.0078125" Pitch="27" RiffPosition="8.6171875" Velocity="79" />
      <note Length="0.0625" Pitch="27" RiffPosition="8.625" Velocity="78" />
      <note Length="0.015625" Pitch="39" RiffPosition="8.6875" Velocity="38" />
      <note Length="0.015625" Pitch="39" RiffPosition="8.703125" Velocity="42" />
      <note Length="0.0234375" Pitch="27" RiffPosition="8.71875" Velocity="47" />
      <note Length="0.0078125" Pitch="27" RiffPosition="8.7421875" Velocity="43" />
      <note Length="0.0625" Pitch="27" RiffPosition="8.75" Velocity="39" />
      <note Length="0.015625" Pitch="34" RiffPosition="8.8125" Velocity="89" />
      <note Length="0.015625" Pitch="34" RiffPosition="8.828125" Velocity="99" />
      <note Length="0.0234375" Pitch="27" RiffPosition="8.84375" Velocity="104" />
      <note Length="0.0078125" Pitch="27" RiffPosition="8.8671875" Velocity="100" />
      <note Length="0.0625" Pitch="27" RiffPosition="8.875" Velocity="96" />
      <note Length="0.015625" Pitch="42" RiffPosition="8.9375" Velocity="48" />
      <note Length="0.015625" Pitch="42" RiffPosition="8.953125" Velocity="65" />
      <note Length="0.0234375" Pitch="27" RiffPosition="8.96875" Velocity="77" />
      <note Length="0.0078125" Pitch="27" RiffPosition="8.9921875" Velocity="84" />
      <note Length="0.0625" Pitch="29" RiffPosition="9" Velocity="84" />
      <note Length="0.015625" Pitch="29" RiffPosition="9.0625" Velocity="43" />
      <note Length="0.015625" Pitch="29" RiffPosition="9.078125" Velocity="38" />
      <note Length="0.0234375" Pitch="41" RiffPosition="9.09375" Velocity="37" />
      <note Length="0.0078125" Pitch="41" RiffPosition="9.1171875" Velocity="37" />
      <note Length="0.0625" Pitch="41" RiffPosition="9.125" Velocity="39" />
      <note Length="0.015625" Pitch="46" RiffPosition="9.1875" Velocity="80" />
      <note Length="0.015625" Pitch="46" RiffPosition="9.203125" Velocity="89" />
      <note Length="0.0234375" Pitch="41" RiffPosition="9.21875" Velocity="94" />
      <note Length="0.0078125" Pitch="43" RiffPosition="9.2421875" Velocity="91" />
      <note Length="0.0625" Pitch="43" RiffPosition="9.25" Velocity="86" />
      <note Length="0.015625" Pitch="29" RiffPosition="9.3125" Velocity="54" />
      <note Length="0.015625" Pitch="29" RiffPosition="9.328125" Velocity="70" />
      <note Length="0.0234375" Pitch="41" RiffPosition="9.34375" Velocity="83" />
      <note Length="0.0078125" Pitch="41" RiffPosition="9.3671875" Velocity="90" />
      <note Length="0.0625" Pitch="41" RiffPosition="9.375" Velocity="89" />
      <note Length="0.015625" Pitch="44" RiffPosition="9.4375" Velocity="53" />
      <note Length="0.015625" Pitch="44" RiffPosition="9.453125" Velocity="43" />
      <note Length="0.0234375" Pitch="41" RiffPosition="9.46875" Velocity="38" />
      <note Length="0.0078125" Pitch="41" RiffPosition="9.4921875" Velocity="45" />
      <note Length="0.0625" Pitch="41" RiffPosition="9.5" Velocity="45" />
      <note Length="0.015625" Pitch="37" RiffPosition="9.5625" Velocity="66" />
      <note Length="0.015625" Pitch="37" RiffPosition="9.578125" Velocity="80" />
      <note Length="0.0234375" Pitch="29" RiffPosition="9.59375" Velocity="85" />
      <note Length="0.0078125" Pitch="29" RiffPosition="9.6171875" Velocity="81" />
      <note Length="0.0625" Pitch="29" RiffPosition="9.625" Velocity="76" />
      <note Length="0.015625" Pitch="41" RiffPosition="9.6875" Velocity="63" />
      <note Length="0.015625" Pitch="41" RiffPosition="9.703125" Velocity="80" />
      <note Length="0.0234375" Pitch="29" RiffPosition="9.71875" Velocity="93" />
      <note Length="0.0078125" Pitch="29" RiffPosition="9.7421875" Velocity="100" />
      <note Length="0.0625" Pitch="29" RiffPosition="9.75" Velocity="99" />
      <note Length="0.015625" Pitch="36" RiffPosition="9.8125" Velocity="47" />
      <note Length="0.015625" Pitch="36" RiffPosition="9.828125" Velocity="40" />
      <note Length="0.0234375" Pitch="29" RiffPosition="9.84375" Velocity="52" />
      <note Length="0.0078125" Pitch="29" RiffPosition="9.8671875" Velocity="59" />
      <note Length="0.0625" Pitch="29" RiffPosition="9.875" Velocity="59" />
      <note Length="0.015625" Pitch="44" RiffPosition="9.9375" Velocity="56" />
      <note Length="0.015625" Pitch="44" RiffPosition="9.953125" Velocity="66" />
      <note Length="0.0234375" Pitch="29" RiffPosition="9.96875" Velocity="71" />
      <note Length="0.0078125" Pitch="41" RiffPosition="9.9921875" Velocity="67" />
      <note Length="0.0625" Pitch="27" RiffPosition="10" Velocity="62" />
      <note Length="0.015625" Pitch="27" RiffPosition="10.0625" Velocity="77" />
      <note Length="0.015625" Pitch="27" RiffPosition="10.078125" Velocity="90" />
      <note Length="0.0234375" Pitch="39" RiffPosition="10.09375" Velocity="102" />
      <note Length="0.0078125" Pitch="39" RiffPosition="10.1171875" Velocity="109" />
      <note Length="0.0625" Pitch="39" RiffPosition="10.125" Velocity="107" />
      <note Length="0.015625" Pitch="44" RiffPosition="10.1875" Velocity="37" />
      <note Length="0.015625" Pitch="44" RiffPosition="10.203125" Velocity="50" />
      <note Length="0.0234375" Pitch="39" RiffPosition="10.21875" Velocity="62" />
      <note Length="0.0078125" Pitch="41" RiffPosition="10.2421875" Velocity="69" />
      <note Length="0.0625" Pitch="41" RiffPosition="10.25" Velocity="68" />
      <note Length="0.015625" Pitch="27" RiffPosition="10.3125" Velocity="42" />
      <note Length="0.015625" Pitch="27" RiffPosition="10.328125" Velocity="52" />
      <note Length="0.0234375" Pitch="39" RiffPosition="10.34375" Velocity="57" />
      <note Length="0.0078125" Pitch="39" RiffPosition="10.3671875" Velocity="53" />
      <note Length="0.0625" Pitch="39" RiffPosition="10.375" Velocity="48" />
      <note Length="0.015625" Pitch="42" RiffPosition="10.4375" Velocity="87" />
      <note Length="0.015625" Pitch="42" RiffPosition="10.453125" Velocity="104" />
      <note Length="0.0234375" Pitch="39" RiffPosition="10.46875" Velocity="110" />
      <note Length="0.0078125" Pitch="27" RiffPosition="10.4921875" Velocity="106" />
      <note Length="0.0625" Pitch="27" RiffPosition="10.5" Velocity="101" />
      <note Length="0.015625" Pitch="35" RiffPosition="10.5625" Velocity="38" />
      <note Length="0.015625" Pitch="35" RiffPosition="10.578125" Velocity="59" />
      <note Length="0.0234375" Pitch="27" RiffPosition="10.59375" Velocity="72" />
      <note Length="0.0078125" Pitch="27" RiffPosition="10.6171875" Velocity="79" />
      <note Length="0.0625" Pitch="27" RiffPosition="10.625" Velocity="78" />
      <note Length="0.015625" Pitch="41" RiffPosition="10.6875" Velocity="38" />
      <note Length="0.015625" Pitch="39" RiffPosition="10.703125" Velocity="42" />
      <note Length="0.0234375" Pitch="27" RiffPosition="10.71875" Velocity="47" />
      <note Length="0.0078125" Pitch="27" RiffPosition="10.7421875" Velocity="43" />
      <note Length="0.0625" Pitch="27" RiffPosition="10.75" Velocity="39" />
      <note Length="0.015625" Pitch="34" RiffPosition="10.8125" Velocity="89" />
      <note Length="0.015625" Pitch="34" RiffPosition="10.828125" Velocity="99" />
      <note Length="0.0234375" Pitch="27" RiffPosition="10.84375" Velocity="104" />
      <note Length="0.0078125" Pitch="27" RiffPosition="10.8671875" Velocity="100" />
      <note Length="0.0625" Pitch="27" RiffPosition="10.875" Velocity="96" />
      <note Length="0.015625" Pitch="42" RiffPosition="10.9375" Velocity="48" />
      <note Length="0.015625" Pitch="42" RiffPosition="10.953125" Velocity="65" />
      <note Length="0.0234375" Pitch="27" RiffPosition="10.96875" Velocity="77" />
      <note Length="0.0078125" Pitch="39" RiffPosition="10.9921875" Velocity="84" />
      <note Length="0.0625" Pitch="42" RiffPosition="11" Velocity="84" />
      <note Length="0.015625" Pitch="30" RiffPosition="11.0625" Velocity="43" />
      <note Length="0.015625" Pitch="30" RiffPosition="11.078125" Velocity="38" />
      <note Length="0.0234375" Pitch="42" RiffPosition="11.09375" Velocity="37" />
      <note Length="0.0078125" Pitch="42" RiffPosition="11.1171875" Velocity="37" />
      <note Length="0.0625" Pitch="42" RiffPosition="11.125" Velocity="39" />
      <note Length="0.015625" Pitch="47" RiffPosition="11.1875" Velocity="80" />
      <note Length="0.015625" Pitch="47" RiffPosition="11.203125" Velocity="89" />
      <note Length="0.0234375" Pitch="44" RiffPosition="11.21875" Velocity="94" />
      <note Length="0.0078125" Pitch="44" RiffPosition="11.2421875" Velocity="91" />
      <note Length="0.0625" Pitch="44" RiffPosition="11.25" Velocity="86" />
      <note Length="0.015625" Pitch="30" RiffPosition="11.3125" Velocity="54" />
      <note Length="0.015625" Pitch="30" RiffPosition="11.328125" Velocity="70" />
      <note Length="0.0234375" Pitch="42" RiffPosition="11.34375" Velocity="83" />
      <note Length="0.0078125" Pitch="42" RiffPosition="11.3671875" Velocity="90" />
      <note Length="0.0625" Pitch="42" RiffPosition="11.375" Velocity="89" />
      <note Length="0.015625" Pitch="45" RiffPosition="11.4375" Velocity="53" />
      <note Length="0.015625" Pitch="45" RiffPosition="11.453125" Velocity="43" />
      <note Length="0.0234375" Pitch="42" RiffPosition="11.46875" Velocity="38" />
      <note Length="0.0078125" Pitch="30" RiffPosition="11.4921875" Velocity="45" />
      <note Length="0.0625" Pitch="30" RiffPosition="11.5" Velocity="45" />
      <note Length="0.015625" Pitch="38" RiffPosition="11.5625" Velocity="66" />
      <note Length="0.015625" Pitch="38" RiffPosition="11.578125" Velocity="80" />
      <note Length="0.0234375" Pitch="30" RiffPosition="11.59375" Velocity="85" />
      <note Length="0.0078125" Pitch="30" RiffPosition="11.6171875" Velocity="81" />
      <note Length="0.0625" Pitch="30" RiffPosition="11.625" Velocity="76" />
      <note Length="0.015625" Pitch="44" RiffPosition="11.6875" Velocity="63" />
      <note Length="0.015625" Pitch="42" RiffPosition="11.703125" Velocity="80" />
      <note Length="0.0234375" Pitch="30" RiffPosition="11.71875" Velocity="93" />
      <note Length="0.0078125" Pitch="30" RiffPosition="11.7421875" Velocity="100" />
      <note Length="0.0625" Pitch="30" RiffPosition="11.75" Velocity="99" />
      <note Length="0.015625" Pitch="37" RiffPosition="11.8125" Velocity="47" />
      <note Length="0.015625" Pitch="37" RiffPosition="11.828125" Velocity="40" />
      <note Length="0.0234375" Pitch="30" RiffPosition="11.84375" Velocity="52" />
      <note Length="0.0078125" Pitch="30" RiffPosition="11.8671875" Velocity="59" />
      <note Length="0.0625" Pitch="30" RiffPosition="11.875" Velocity="59" />
      <note Length="0.015625" Pitch="45" RiffPosition="11.9375" Velocity="56" />
      <note Length="0.015625" Pitch="45" RiffPosition="11.953125" Velocity="66" />
      <note Length="0.0234375" Pitch="30" RiffPosition="11.96875" Velocity="71" />
      <note Length="0.0078125" Pitch="30" RiffPosition="11.9921875" Velocity="67" />
      <note Length="0.0625" Pitch="41" RiffPosition="12" Velocity="0" />
      <note Length="0.015625" Pitch="29" RiffPosition="12.0625" Velocity="0" />
      <note Length="0.015625" Pitch="29" RiffPosition="12.078125" Velocity="0" />
      <note Length="0.0234375" Pitch="41" RiffPosition="12.09375" Velocity="0" />
      <note Length="0.0078125" Pitch="41" RiffPosition="12.1171875" Velocity="0" />
      <note Length="0.0625" Pitch="41" RiffPosition="12.125" Velocity="0" />
      <note Length="0.015625" Pitch="46" RiffPosition="12.1875" Velocity="0" />
      <note Length="0.015625" Pitch="46" RiffPosition="12.203125" Velocity="0" />
      <note Length="0.0234375" Pitch="43" RiffPosition="12.21875" Velocity="0" />
      <note Length="0.0078125" Pitch="43" RiffPosition="12.2421875" Velocity="0" />
      <note Length="0.0625" Pitch="43" RiffPosition="12.25" Velocity="0" />
      <note Length="0.015625" Pitch="29" RiffPosition="12.3125" Velocity="0" />
      <note Length="0.015625" Pitch="29" RiffPosition="12.328125" Velocity="0" />
      <note Length="0.0234375" Pitch="41" RiffPosition="12.34375" Velocity="0" />
      <note Length="0.0078125" Pitch="41" RiffPosition="12.3671875" Velocity="0" />
      <note Length="0.0625" Pitch="41" RiffPosition="12.375" Velocity="0" />
      <note Length="0.015625" Pitch="44" RiffPosition="12.4375" Velocity="0" />
      <note Length="0.015625" Pitch="44" RiffPosition="12.453125" Velocity="0" />
      <note Length="0.0234375" Pitch="41" RiffPosition="12.46875" Velocity="0" />
      <note Length="0.0078125" Pitch="41" RiffPosition="12.4921875" Velocity="0" />
      <note Length="0.0625" Pitch="29" RiffPosition="12.5" Velocity="0" />
      <note Length="0.015625" Pitch="37" RiffPosition="12.5625" Velocity="0" />
      <note Length="0.015625" Pitch="37" RiffPosition="12.578125" Velocity="0" />
      <note Length="0.0234375" Pitch="29" RiffPosition="12.59375" Velocity="0" />
      <note Length="0.0078125" Pitch="29" RiffPosition="12.6171875" Velocity="0" />
      <note Length="0.0625" Pitch="29" RiffPosition="12.625" Velocity="0" />
      <note Length="0.015625" Pitch="43" RiffPosition="12.6875" Velocity="0" />
      <note Length="0.015625" Pitch="43" RiffPosition="12.703125" Velocity="0" />
      <note Length="0.0234375" Pitch="29" RiffPosition="12.71875" Velocity="0" />
      <note Length="0.0078125" Pitch="29" RiffPosition="12.7421875" Velocity="0" />
      <note Length="0.0625" Pitch="29" RiffPosition="12.75" Velocity="0" />
      <note Length="0.015625" Pitch="36" RiffPosition="12.8125" Velocity="0" />
      <note Length="0.015625" Pitch="36" RiffPosition="12.828125" Velocity="0" />
      <note Length="0.0234375" Pitch="29" RiffPosition="12.84375" Velocity="0" />
      <note Length="0.0078125" Pitch="29" RiffPosition="12.8671875" Velocity="0" />
      <note Length="0.0625" Pitch="29" RiffPosition="12.875" Velocity="0" />
      <note Length="0.015625" Pitch="44" RiffPosition="12.9375" Velocity="0" />
      <note Length="0.015625" Pitch="44" RiffPosition="12.953125" Velocity="0" />
      <note Length="0.0234375" Pitch="29" RiffPosition="12.96875" Velocity="0" />
      <note Length="0.0078125" Pitch="29" RiffPosition="12.9921875" Velocity="0" />
      <note Length="0.0625" Pitch="41" RiffPosition="13" Velocity="0" />
      <note Length="0.015625" Pitch="29" RiffPosition="13.0625" Velocity="0" />
      <note Length="0.015625" Pitch="29" RiffPosition="13.078125" Velocity="0" />
      <note Length="0.0234375" Pitch="41" RiffPosition="13.09375" Velocity="0" />
      <note Length="0.0078125" Pitch="41" RiffPosition="13.1171875" Velocity="0" />
      <note Length="0.0625" Pitch="41" RiffPosition="13.125" Velocity="0" />
      <note Length="0.015625" Pitch="46" RiffPosition="13.1875" Velocity="0" />
      <note Length="0.015625" Pitch="46" RiffPosition="13.203125" Velocity="0" />
      <note Length="0.0234375" Pitch="43" RiffPosition="13.21875" Velocity="0" />
      <note Length="0.0078125" Pitch="43" RiffPosition="13.2421875" Velocity="0" />
      <note Length="0.0625" Pitch="43" RiffPosition="13.25" Velocity="0" />
      <note Length="0.015625" Pitch="29" RiffPosition="13.3125" Velocity="0" />
      <note Length="0.015625" Pitch="29" RiffPosition="13.328125" Velocity="0" />
      <note Length="0.0234375" Pitch="41" RiffPosition="13.34375" Velocity="0" />
      <note Length="0.0078125" Pitch="41" RiffPosition="13.3671875" Velocity="0" />
      <note Length="0.0625" Pitch="41" RiffPosition="13.375" Velocity="0" />
      <note Length="0.015625" Pitch="44" RiffPosition="13.4375" Velocity="0" />
      <note Length="0.015625" Pitch="44" RiffPosition="13.453125" Velocity="0" />
      <note Length="0.0234375" Pitch="41" RiffPosition="13.46875" Velocity="0" />
      <note Length="0.0078125" Pitch="41" RiffPosition="13.4921875" Velocity="0" />
      <note Length="0.0625" Pitch="41" RiffPosition="13.5" Velocity="0" />
      <note Length="0.015625" Pitch="37" RiffPosition="13.5625" Velocity="0" />
      <note Length="0.015625" Pitch="37" RiffPosition="13.578125" Velocity="0" />
      <note Length="0.0234375" Pitch="29" RiffPosition="13.59375" Velocity="0" />
      <note Length="0.0078125" Pitch="29" RiffPosition="13.6171875" Velocity="0" />
      <note Length="0.0625" Pitch="29" RiffPosition="13.625" Velocity="0" />
      <note Length="0.015625" Pitch="41" RiffPosition="13.6875" Velocity="0" />
      <note Length="0.015625" Pitch="41" RiffPosition="13.703125" Velocity="0" />
      <note Length="0.0234375" Pitch="29" RiffPosition="13.71875" Velocity="0" />
      <note Length="0.0078125" Pitch="29" RiffPosition="13.7421875" Velocity="0" />
      <note Length="0.0625" Pitch="29" RiffPosition="13.75" Velocity="0" />
      <note Length="0.015625" Pitch="36" RiffPosition="13.8125" Velocity="0" />
      <note Length="0.015625" Pitch="36" RiffPosition="13.828125" Velocity="0" />
      <note Length="0.0234375" Pitch="29" RiffPosition="13.84375" Velocity="0" />
      <note Length="0.0078125" Pitch="29" RiffPosition="13.8671875" Velocity="0" />
      <note Length="0.0625" Pitch="29" RiffPosition="13.875" Velocity="0" />
      <note Length="0.015625" Pitch="44" RiffPosition="13.9375" Velocity="0" />
      <note Length="0.015625" Pitch="44" RiffPosition="13.953125" Velocity="0" />
      <note Length="0.0234375" Pitch="29" RiffPosition="13.96875" Velocity="0" />
      <note Length="0.0078125" Pitch="29" RiffPosition="13.9921875" Velocity="0" />
    </riff>
    <riff IsDrum="False" MidiInstrument="36" Tempo="125" Length="14">
      <note Length="0.0625" Pitch="34" RiffPosition="0" Velocity="0" />
      <note Length="0.0078125" Pitch="27" RiffPosition="0.0625" Velocity="0" />
      <note Length="0.0234375" Pitch="27" RiffPosition="0.0703125" Velocity="0" />
      <note Length="0.03125" Pitch="27" RiffPosition="0.09375" Velocity="0" />
      <note Length="0.0625" Pitch="34" RiffPosition="0.125" Velocity="0" />
      <note Length="0.0078125" Pitch="39" RiffPosition="0.1875" Velocity="0" />
      <note Length="0.0234375" Pitch="39" RiffPosition="0.1953125" Velocity="0" />
      <note Length="0.03125" Pitch="27" RiffPosition="0.21875" Velocity="0" />
      <note Length="0.0625" Pitch="27" RiffPosition="0.25" Velocity="0" />
      <note Length="0.0078125" Pitch="42" RiffPosition="0.3125" Velocity="0" />
      <note Length="0.0234375" Pitch="42" RiffPosition="0.3203125" Velocity="0" />
      <note Length="0.03125" Pitch="39" RiffPosition="0.34375" Velocity="0" />
      <note Length="0.0625" Pitch="27" RiffPosition="0.375" Velocity="0" />
      <note Length="0.0078125" Pitch="44" RiffPosition="0.4375" Velocity="0" />
      <note Length="0.0234375" Pitch="44" RiffPosition="0.4453125" Velocity="0" />
      <note Length="0.03125" Pitch="42" RiffPosition="0.46875" Velocity="0" />
      <note Length="0.0625" Pitch="39" RiffPosition="0.5" Velocity="0" />
      <note Length="0.0078125" Pitch="44" RiffPosition="0.5625" Velocity="0" />
      <note Length="0.0234375" Pitch="44" RiffPosition="0.5703125" Velocity="0" />
      <note Length="0.03125" Pitch="41" RiffPosition="0.59375" Velocity="0" />
      <note Length="0.0625" Pitch="27" RiffPosition="0.625" Velocity="0" />
      <note Length="0.0078125" Pitch="42" RiffPosition="0.6875" Velocity="0" />
      <note Length="0.0234375" Pitch="42" RiffPosition="0.6953125" Velocity="0" />
      <note Length="0.03125" Pitch="27" RiffPosition="0.71875" Velocity="0" />
      <note Length="0.0625" Pitch="27" RiffPosition="0.75" Velocity="0" />
      <note Length="0.0078125" Pitch="39" RiffPosition="0.8125" Velocity="0" />
      <note Length="0.0234375" Pitch="39" RiffPosition="0.8203125" Velocity="0" />
      <note Length="0.03125" Pitch="27" RiffPosition="0.84375" Velocity="0" />
      <note Length="0.0625" Pitch="34" RiffPosition="0.875" Velocity="0" />
      <note Length="0.0078125" Pitch="39" RiffPosition="0.9375" Velocity="0" />
      <note Length="0.0234375" Pitch="39" RiffPosition="0.9453125" Velocity="0" />
      <note Length="0.03125" Pitch="27" RiffPosition="0.96875" Velocity="0" />
      <note Length="0.0625" Pitch="36" RiffPosition="1" Velocity="0" />
      <note Length="0.0078125" Pitch="41" RiffPosition="1.0625" Velocity="0" />
      <note Length="0.0234375" Pitch="41" RiffPosition="1.0703125" Velocity="0" />
      <note Length="0.03125" Pitch="29" RiffPosition="1.09375" Velocity="0" />
      <note Length="0.0625" Pitch="29" RiffPosition="1.125" Velocity="0" />
      <note Length="0.0078125" Pitch="44" RiffPosition="1.1875" Velocity="0" />
      <note Length="0.0234375" Pitch="44" RiffPosition="1.1953125" Velocity="0" />
      <note Length="0.03125" Pitch="41" RiffPosition="1.21875" Velocity="0" />
      <note Length="0.0625" Pitch="29" RiffPosition="1.25" Velocity="0" />
      <note Length="0.0078125" Pitch="44" RiffPosition="1.3125" Velocity="0" />
      <note Length="0.0234375" Pitch="44" RiffPosition="1.3203125" Velocity="0" />
      <note Length="0.03125" Pitch="41" RiffPosition="1.34375" Velocity="0" />
      <note Length="0.0625" Pitch="29" RiffPosition="1.375" Velocity="0" />
      <note Length="0.0078125" Pitch="44" RiffPosition="1.4375" Velocity="0" />
      <note Length="0.0234375" Pitch="44" RiffPosition="1.4453125" Velocity="0" />
      <note Length="0.03125" Pitch="41" RiffPosition="1.46875" Velocity="0" />
      <note Length="0.0625" Pitch="29" RiffPosition="1.5" Velocity="0" />
      <note Length="0.0078125" Pitch="44" RiffPosition="1.5625" Velocity="0" />
      <note Length="0.0234375" Pitch="44" RiffPosition="1.5703125" Velocity="0" />
      <note Length="0.03125" Pitch="41" RiffPosition="1.59375" Velocity="0" />
      <note Length="0.0625" Pitch="29" RiffPosition="1.625" Velocity="0" />
      <note Length="0.0078125" Pitch="44" RiffPosition="1.6875" Velocity="0" />
      <note Length="0.0234375" Pitch="44" RiffPosition="1.6953125" Velocity="0" />
      <note Length="0.03125" Pitch="41" RiffPosition="1.71875" Velocity="0" />
      <note Length="0.0625" Pitch="29" RiffPosition="1.75" Velocity="0" />
      <note Length="0.0078125" Pitch="44" RiffPosition="1.8125" Velocity="0" />
      <note Length="0.0234375" Pitch="43" RiffPosition="1.8203125" Velocity="0" />
      <note Length="0.03125" Pitch="41" RiffPosition="1.84375" Velocity="0" />
      <note Length="0.0625" Pitch="29" RiffPosition="1.875" Velocity="0" />
      <note Length="0.0078125" Pitch="41" RiffPosition="1.9375" Velocity="0" />
      <note Length="0.0234375" Pitch="41" RiffPosition="1.9453125" Velocity="0" />
      <note Length="0.03125" Pitch="29" RiffPosition="1.96875" Velocity="0" />
      <note Length="0.0625" Pitch="34" RiffPosition="2" Velocity="0" />
      <note Length="0.0078125" Pitch="27" RiffPosition="2.0625" Velocity="0" />
      <note Length="0.0234375" Pitch="27" RiffPosition="2.0703125" Velocity="0" />
      <note Length="0.03125" Pitch="27" RiffPosition="2.09375" Velocity="0" />
      <note Length="0.0625" Pitch="34" RiffPosition="2.125" Velocity="0" />
      <note Length="0.0078125" Pitch="39" RiffPosition="2.1875" Velocity="0" />
      <note Length="0.0234375" Pitch="39" RiffPosition="2.1953125" Velocity="0" />
      <note Length="0.03125" Pitch="27" RiffPosition="2.21875" Velocity="0" />
      <note Length="0.0625" Pitch="27" RiffPosition="2.25" Velocity="0" />
      <note Length="0.0078125" Pitch="42" RiffPosition="2.3125" Velocity="0" />
      <note Length="0.0234375" Pitch="42" RiffPosition="2.3203125" Velocity="0" />
      <note Length="0.03125" Pitch="39" RiffPosition="2.34375" Velocity="0" />
      <note Length="0.0625" Pitch="27" RiffPosition="2.375" Velocity="0" />
      <note Length="0.0078125" Pitch="44" RiffPosition="2.4375" Velocity="0" />
      <note Length="0.0234375" Pitch="44" RiffPosition="2.4453125" Velocity="0" />
      <note Length="0.03125" Pitch="42" RiffPosition="2.46875" Velocity="0" />
      <note Length="0.0625" Pitch="39" RiffPosition="2.5" Velocity="0" />
      <note Length="0.0078125" Pitch="44" RiffPosition="2.5625" Velocity="0" />
      <note Length="0.0234375" Pitch="44" RiffPosition="2.5703125" Velocity="0" />
      <note Length="0.03125" Pitch="41" RiffPosition="2.59375" Velocity="0" />
      <note Length="0.0625" Pitch="27" RiffPosition="2.625" Velocity="0" />
      <note Length="0.0078125" Pitch="42" RiffPosition="2.6875" Velocity="0" />
      <note Length="0.0234375" Pitch="42" RiffPosition="2.6953125" Velocity="0" />
      <note Length="0.03125" Pitch="27" RiffPosition="2.71875" Velocity="0" />
      <note Length="0.0625" Pitch="27" RiffPosition="2.75" Velocity="0" />
      <note Length="0.0078125" Pitch="39" RiffPosition="2.8125" Velocity="0" />
      <note Length="0.0234375" Pitch="39" RiffPosition="2.8203125" Velocity="0" />
      <note Length="0.03125" Pitch="27" RiffPosition="2.84375" Velocity="0" />
      <note Length="0.0625" Pitch="34" RiffPosition="2.875" Velocity="0" />
      <note Length="0.0078125" Pitch="39" RiffPosition="2.9375" Velocity="0" />
      <note Length="0.0234375" Pitch="39" RiffPosition="2.9453125" Velocity="0" />
      <note Length="0.03125" Pitch="27" RiffPosition="2.96875" Velocity="0" />
      <note Length="0.0625" Pitch="36" RiffPosition="3" Velocity="0" />
      <note Length="0.0078125" Pitch="41" RiffPosition="3.0625" Velocity="0" />
      <note Length="0.0234375" Pitch="41" RiffPosition="3.0703125" Velocity="0" />
      <note Length="0.03125" Pitch="29" RiffPosition="3.09375" Velocity="0" />
      <note Length="0.0625" Pitch="29" RiffPosition="3.125" Velocity="0" />
      <note Length="0.0078125" Pitch="44" RiffPosition="3.1875" Velocity="0" />
      <note Length="0.0234375" Pitch="44" RiffPosition="3.1953125" Velocity="0" />
      <note Length="0.03125" Pitch="41" RiffPosition="3.21875" Velocity="0" />
      <note Length="0.0625" Pitch="29" RiffPosition="3.25" Velocity="0" />
      <note Length="0.0078125" Pitch="44" RiffPosition="3.3125" Velocity="0" />
      <note Length="0.0234375" Pitch="44" RiffPosition="3.3203125" Velocity="0" />
      <note Length="0.03125" Pitch="41" RiffPosition="3.34375" Velocity="0" />
      <note Length="0.0625" Pitch="29" RiffPosition="3.375" Velocity="0" />
      <note Length="0.0078125" Pitch="44" RiffPosition="3.4375" Velocity="0" />
      <note Length="0.0234375" Pitch="44" RiffPosition="3.4453125" Velocity="0" />
      <note Length="0.03125" Pitch="41" RiffPosition="3.46875" Velocity="0" />
      <note Length="0.0625" Pitch="29" RiffPosition="3.5" Velocity="0" />
      <note Length="0.0078125" Pitch="44" RiffPosition="3.5625" Velocity="0" />
      <note Length="0.0234375" Pitch="44" RiffPosition="3.5703125" Velocity="0" />
      <note Length="0.03125" Pitch="41" RiffPosition="3.59375" Velocity="0" />
      <note Length="0.0625" Pitch="29" RiffPosition="3.625" Velocity="0" />
      <note Length="0.0078125" Pitch="44" RiffPosition="3.6875" Velocity="0" />
      <note Length="0.0234375" Pitch="44" RiffPosition="3.6953125" Velocity="0" />
      <note Length="0.03125" Pitch="41" RiffPosition="3.71875" Velocity="0" />
      <note Length="0.0625" Pitch="29" RiffPosition="3.75" Velocity="0" />
      <note Length="0.0078125" Pitch="44" RiffPosition="3.8125" Velocity="0" />
      <note Length="0.0234375" Pitch="43" RiffPosition="3.8203125" Velocity="0" />
      <note Length="0.03125" Pitch="41" RiffPosition="3.84375" Velocity="0" />
      <note Length="0.0625" Pitch="29" RiffPosition="3.875" Velocity="0" />
      <note Length="0.0078125" Pitch="41" RiffPosition="3.9375" Velocity="0" />
      <note Length="0.0234375" Pitch="41" RiffPosition="3.9453125" Velocity="0" />
      <note Length="0.03125" Pitch="29" RiffPosition="3.96875" Velocity="0" />
      <note Length="0.0625" Pitch="36" RiffPosition="4" Velocity="57" />
      <note Length="0.0078125" Pitch="29" RiffPosition="4.0625" Velocity="46" />
      <note Length="0.0234375" Pitch="29" RiffPosition="4.0703125" Velocity="43" />
      <note Length="0.03125" Pitch="29" RiffPosition="4.09375" Velocity="79" />
      <note Length="0.0625" Pitch="36" RiffPosition="4.125" Velocity="49" />
      <note Length="0.0078125" Pitch="41" RiffPosition="4.1875" Velocity="44" />
      <note Length="0.0234375" Pitch="41" RiffPosition="4.1953125" Velocity="58" />
      <note Length="0.03125" Pitch="29" RiffPosition="4.21875" Velocity="79" />
      <note Length="0.0625" Pitch="29" RiffPosition="4.25" Velocity="42" />
      <note Length="0.0078125" Pitch="44" RiffPosition="4.3125" Velocity="70" />
      <note Length="0.0234375" Pitch="44" RiffPosition="4.3203125" Velocity="56" />
      <note Length="0.03125" Pitch="41" RiffPosition="4.34375" Velocity="46" />
      <note Length="0.0625" Pitch="29" RiffPosition="4.375" Velocity="52" />
      <note Length="0.0078125" Pitch="46" RiffPosition="4.4375" Velocity="35" />
      <note Length="0.0234375" Pitch="46" RiffPosition="4.4453125" Velocity="55" />
      <note Length="0.03125" Pitch="44" RiffPosition="4.46875" Velocity="94" />
      <note Length="0.0625" Pitch="41" RiffPosition="4.5" Velocity="64" />
      <note Length="0.0078125" Pitch="46" RiffPosition="4.5625" Velocity="39" />
      <note Length="0.0234375" Pitch="46" RiffPosition="4.5703125" Velocity="54" />
      <note Length="0.03125" Pitch="43" RiffPosition="4.59375" Velocity="76" />
      <note Length="0.0625" Pitch="29" RiffPosition="4.625" Velocity="43" />
      <note Length="0.0078125" Pitch="44" RiffPosition="4.6875" Velocity="51" />
      <note Length="0.0234375" Pitch="44" RiffPosition="4.6953125" Velocity="39" />
      <note Length="0.03125" Pitch="29" RiffPosition="4.71875" Velocity="77" />
      <note Length="0.0625" Pitch="29" RiffPosition="4.75" Velocity="48" />
      <note Length="0.0078125" Pitch="41" RiffPosition="4.8125" Velocity="64" />
      <note Length="0.0234375" Pitch="41" RiffPosition="4.8203125" Velocity="83" />
      <note Length="0.03125" Pitch="29" RiffPosition="4.84375" Velocity="110" />
      <note Length="0.0625" Pitch="36" RiffPosition="4.875" Velocity="59" />
      <note Length="0.0078125" Pitch="41" RiffPosition="4.9375" Velocity="42" />
      <note Length="0.0234375" Pitch="41" RiffPosition="4.9453125" Velocity="42" />
      <note Length="0.03125" Pitch="29" RiffPosition="4.96875" Velocity="62" />
      <note Length="0.0625" Pitch="36" RiffPosition="5" Velocity="57" />
      <note Length="0.0078125" Pitch="41" RiffPosition="5.0625" Velocity="46" />
      <note Length="0.0234375" Pitch="41" RiffPosition="5.0703125" Velocity="43" />
      <note Length="0.03125" Pitch="29" RiffPosition="5.09375" Velocity="79" />
      <note Length="0.0625" Pitch="29" RiffPosition="5.125" Velocity="49" />
      <note Length="0.0078125" Pitch="44" RiffPosition="5.1875" Velocity="44" />
      <note Length="0.0234375" Pitch="44" RiffPosition="5.1953125" Velocity="58" />
      <note Length="0.03125" Pitch="41" RiffPosition="5.21875" Velocity="79" />
      <note Length="0.0625" Pitch="29" RiffPosition="5.25" Velocity="42" />
      <note Length="0.0078125" Pitch="44" RiffPosition="5.3125" Velocity="70" />
      <note Length="0.0234375" Pitch="44" RiffPosition="5.3203125" Velocity="56" />
      <note Length="0.03125" Pitch="41" RiffPosition="5.34375" Velocity="46" />
      <note Length="0.0625" Pitch="29" RiffPosition="5.375" Velocity="52" />
      <note Length="0.0078125" Pitch="44" RiffPosition="5.4375" Velocity="35" />
      <note Length="0.0234375" Pitch="44" RiffPosition="5.4453125" Velocity="55" />
      <note Length="0.03125" Pitch="41" RiffPosition="5.46875" Velocity="94" />
      <note Length="0.0625" Pitch="29" RiffPosition="5.5" Velocity="64" />
      <note Length="0.0078125" Pitch="44" RiffPosition="5.5625" Velocity="39" />
      <note Length="0.0234375" Pitch="44" RiffPosition="5.5703125" Velocity="54" />
      <note Length="0.03125" Pitch="41" RiffPosition="5.59375" Velocity="76" />
      <note Length="0.0625" Pitch="29" RiffPosition="5.625" Velocity="43" />
      <note Length="0.0078125" Pitch="44" RiffPosition="5.6875" Velocity="51" />
      <note Length="0.0234375" Pitch="44" RiffPosition="5.6953125" Velocity="39" />
      <note Length="0.03125" Pitch="41" RiffPosition="5.71875" Velocity="77" />
      <note Length="0.0625" Pitch="29" RiffPosition="5.75" Velocity="48" />
      <note Length="0.0078125" Pitch="44" RiffPosition="5.8125" Velocity="64" />
      <note Length="0.0234375" Pitch="43" RiffPosition="5.8203125" Velocity="83" />
      <note Length="0.03125" Pitch="41" RiffPosition="5.84375" Velocity="110" />
      <note Length="0.0625" Pitch="29" RiffPosition="5.875" Velocity="59" />
      <note Length="0.0078125" Pitch="41" RiffPosition="5.9375" Velocity="42" />
      <note Length="0.0234375" Pitch="41" RiffPosition="5.9453125" Velocity="42" />
      <note Length="0.03125" Pitch="29" RiffPosition="5.96875" Velocity="62" />
      <note Length="0.0625" Pitch="36" RiffPosition="6" Velocity="57" />
      <note Length="0.0078125" Pitch="29" RiffPosition="6.0625" Velocity="46" />
      <note Length="0.0234375" Pitch="29" RiffPosition="6.0703125" Velocity="43" />
      <note Length="0.03125" Pitch="29" RiffPosition="6.09375" Velocity="79" />
      <note Length="0.0625" Pitch="36" RiffPosition="6.125" Velocity="49" />
      <note Length="0.0078125" Pitch="41" RiffPosition="6.1875" Velocity="44" />
      <note Length="0.0234375" Pitch="41" RiffPosition="6.1953125" Velocity="58" />
      <note Length="0.03125" Pitch="29" RiffPosition="6.21875" Velocity="79" />
      <note Length="0.0625" Pitch="29" RiffPosition="6.25" Velocity="42" />
      <note Length="0.0078125" Pitch="44" RiffPosition="6.3125" Velocity="70" />
      <note Length="0.0234375" Pitch="44" RiffPosition="6.3203125" Velocity="56" />
      <note Length="0.03125" Pitch="41" RiffPosition="6.34375" Velocity="46" />
      <note Length="0.0625" Pitch="29" RiffPosition="6.375" Velocity="52" />
      <note Length="0.0078125" Pitch="46" RiffPosition="6.4375" Velocity="35" />
      <note Length="0.0234375" Pitch="46" RiffPosition="6.4453125" Velocity="55" />
      <note Length="0.03125" Pitch="44" RiffPosition="6.46875" Velocity="94" />
      <note Length="0.0625" Pitch="41" RiffPosition="6.5" Velocity="64" />
      <note Length="0.0078125" Pitch="46" RiffPosition="6.5625" Velocity="39" />
      <note Length="0.0234375" Pitch="46" RiffPosition="6.5703125" Velocity="54" />
      <note Length="0.03125" Pitch="43" RiffPosition="6.59375" Velocity="76" />
      <note Length="0.0625" Pitch="29" RiffPosition="6.625" Velocity="43" />
      <note Length="0.0078125" Pitch="44" RiffPosition="6.6875" Velocity="51" />
      <note Length="0.0234375" Pitch="44" RiffPosition="6.6953125" Velocity="39" />
      <note Length="0.03125" Pitch="29" RiffPosition="6.71875" Velocity="77" />
      <note Length="0.0625" Pitch="29" RiffPosition="6.75" Velocity="48" />
      <note Length="0.0078125" Pitch="41" RiffPosition="6.8125" Velocity="64" />
      <note Length="0.0234375" Pitch="41" RiffPosition="6.8203125" Velocity="83" />
      <note Length="0.03125" Pitch="29" RiffPosition="6.84375" Velocity="110" />
      <note Length="0.0625" Pitch="36" RiffPosition="6.875" Velocity="59" />
      <note Length="0.0078125" Pitch="41" RiffPosition="6.9375" Velocity="42" />
      <note Length="0.0234375" Pitch="41" RiffPosition="6.9453125" Velocity="42" />
      <note Length="0.03125" Pitch="29" RiffPosition="6.96875" Velocity="62" />
      <note Length="0.0625" Pitch="36" RiffPosition="7" Velocity="57" />
      <note Length="0.0078125" Pitch="41" RiffPosition="7.0625" Velocity="46" />
      <note Length="0.0234375" Pitch="41" RiffPosition="7.0703125" Velocity="43" />
      <note Length="0.03125" Pitch="29" RiffPosition="7.09375" Velocity="79" />
      <note Length="0.0625" Pitch="29" RiffPosition="7.125" Velocity="49" />
      <note Length="0.0078125" Pitch="44" RiffPosition="7.1875" Velocity="44" />
      <note Length="0.0234375" Pitch="44" RiffPosition="7.1953125" Velocity="58" />
      <note Length="0.03125" Pitch="41" RiffPosition="7.21875" Velocity="79" />
      <note Length="0.0625" Pitch="29" RiffPosition="7.25" Velocity="42" />
      <note Length="0.0078125" Pitch="44" RiffPosition="7.3125" Velocity="70" />
      <note Length="0.0234375" Pitch="44" RiffPosition="7.3203125" Velocity="56" />
      <note Length="0.03125" Pitch="41" RiffPosition="7.34375" Velocity="46" />
      <note Length="0.0625" Pitch="29" RiffPosition="7.375" Velocity="52" />
      <note Length="0.0078125" Pitch="44" RiffPosition="7.4375" Velocity="35" />
      <note Length="0.0234375" Pitch="44" RiffPosition="7.4453125" Velocity="55" />
      <note Length="0.03125" Pitch="41" RiffPosition="7.46875" Velocity="94" />
      <note Length="0.0625" Pitch="29" RiffPosition="7.5" Velocity="64" />
      <note Length="0.0078125" Pitch="44" RiffPosition="7.5625" Velocity="39" />
      <note Length="0.0234375" Pitch="44" RiffPosition="7.5703125" Velocity="54" />
      <note Length="0.03125" Pitch="41" RiffPosition="7.59375" Velocity="76" />
      <note Length="0.0625" Pitch="29" RiffPosition="7.625" Velocity="43" />
      <note Length="0.0078125" Pitch="44" RiffPosition="7.6875" Velocity="51" />
      <note Length="0.0234375" Pitch="44" RiffPosition="7.6953125" Velocity="39" />
      <note Length="0.03125" Pitch="41" RiffPosition="7.71875" Velocity="77" />
      <note Length="0.0625" Pitch="29" RiffPosition="7.75" Velocity="48" />
      <note Length="0.0078125" Pitch="44" RiffPosition="7.8125" Velocity="64" />
      <note Length="0.0234375" Pitch="43" RiffPosition="7.8203125" Velocity="83" />
      <note Length="0.03125" Pitch="41" RiffPosition="7.84375" Velocity="110" />
      <note Length="0.0625" Pitch="29" RiffPosition="7.875" Velocity="59" />
      <note Length="0.0078125" Pitch="41" RiffPosition="7.9375" Velocity="42" />
      <note Length="0.0234375" Pitch="41" RiffPosition="7.9453125" Velocity="42" />
      <note Length="0.03125" Pitch="29" RiffPosition="7.96875" Velocity="62" />
      <note Length="0.0625" Pitch="34" RiffPosition="8" Velocity="57" />
      <note Length="0.0078125" Pitch="27" RiffPosition="8.0625" Velocity="46" />
      <note Length="0.0234375" Pitch="27" RiffPosition="8.0703125" Velocity="43" />
      <note Length="0.03125" Pitch="27" RiffPosition="8.09375" Velocity="79" />
      <note Length="0.0625" Pitch="34" RiffPosition="8.125" Velocity="49" />
      <note Length="0.0078125" Pitch="39" RiffPosition="8.1875" Velocity="44" />
      <note Length="0.0234375" Pitch="39" RiffPosition="8.1953125" Velocity="58" />
      <note Length="0.03125" Pitch="27" RiffPosition="8.21875" Velocity="79" />
      <note Length="0.0625" Pitch="27" RiffPosition="8.25" Velocity="42" />
      <note Length="0.0078125" Pitch="42" RiffPosition="8.3125" Velocity="70" />
      <note Length="0.0234375" Pitch="42" RiffPosition="8.3203125" Velocity="56" />
      <note Length="0.03125" Pitch="39" RiffPosition="8.34375" Velocity="46" />
      <note Length="0.0625" Pitch="27" RiffPosition="8.375" Velocity="52" />
      <note Length="0.0078125" Pitch="44" RiffPosition="8.4375" Velocity="35" />
      <note Length="0.0234375" Pitch="44" RiffPosition="8.4453125" Velocity="55" />
      <note Length="0.03125" Pitch="42" RiffPosition="8.46875" Velocity="94" />
      <note Length="0.0625" Pitch="39" RiffPosition="8.5" Velocity="64" />
      <note Length="0.0078125" Pitch="44" RiffPosition="8.5625" Velocity="39" />
      <note Length="0.0234375" Pitch="44" RiffPosition="8.5703125" Velocity="54" />
      <note Length="0.03125" Pitch="41" RiffPosition="8.59375" Velocity="76" />
      <note Length="0.0625" Pitch="27" RiffPosition="8.625" Velocity="43" />
      <note Length="0.0078125" Pitch="42" RiffPosition="8.6875" Velocity="51" />
      <note Length="0.0234375" Pitch="42" RiffPosition="8.6953125" Velocity="39" />
      <note Length="0.03125" Pitch="27" RiffPosition="8.71875" Velocity="77" />
      <note Length="0.0625" Pitch="27" RiffPosition="8.75" Velocity="48" />
      <note Length="0.0078125" Pitch="39" RiffPosition="8.8125" Velocity="64" />
      <note Length="0.0234375" Pitch="39" RiffPosition="8.8203125" Velocity="83" />
      <note Length="0.03125" Pitch="27" RiffPosition="8.84375" Velocity="110" />
      <note Length="0.0625" Pitch="34" RiffPosition="8.875" Velocity="59" />
      <note Length="0.0078125" Pitch="39" RiffPosition="8.9375" Velocity="42" />
      <note Length="0.0234375" Pitch="39" RiffPosition="8.9453125" Velocity="42" />
      <note Length="0.03125" Pitch="27" RiffPosition="8.96875" Velocity="62" />
      <note Length="0.0625" Pitch="36" RiffPosition="9" Velocity="57" />
      <note Length="0.0078125" Pitch="41" RiffPosition="9.0625" Velocity="46" />
      <note Length="0.0234375" Pitch="41" RiffPosition="9.0703125" Velocity="43" />
      <note Length="0.03125" Pitch="29" RiffPosition="9.09375" Velocity="79" />
      <note Length="0.0625" Pitch="29" RiffPosition="9.125" Velocity="49" />
      <note Length="0.0078125" Pitch="44" RiffPosition="9.1875" Velocity="44" />
      <note Length="0.0234375" Pitch="44" RiffPosition="9.1953125" Velocity="58" />
      <note Length="0.03125" Pitch="41" RiffPosition="9.21875" Velocity="79" />
      <note Length="0.0625" Pitch="29" RiffPosition="9.25" Velocity="42" />
      <note Length="0.0078125" Pitch="44" RiffPosition="9.3125" Velocity="70" />
      <note Length="0.0234375" Pitch="44" RiffPosition="9.3203125" Velocity="56" />
      <note Length="0.03125" Pitch="41" RiffPosition="9.34375" Velocity="46" />
      <note Length="0.0625" Pitch="29" RiffPosition="9.375" Velocity="52" />
      <note Length="0.0078125" Pitch="44" RiffPosition="9.4375" Velocity="35" />
      <note Length="0.0234375" Pitch="44" RiffPosition="9.4453125" Velocity="55" />
      <note Length="0.03125" Pitch="41" RiffPosition="9.46875" Velocity="94" />
      <note Length="0.0625" Pitch="29" RiffPosition="9.5" Velocity="64" />
      <note Length="0.0078125" Pitch="44" RiffPosition="9.5625" Velocity="39" />
      <note Length="0.0234375" Pitch="44" RiffPosition="9.5703125" Velocity="54" />
      <note Length="0.03125" Pitch="41" RiffPosition="9.59375" Velocity="76" />
      <note Length="0.0625" Pitch="29" RiffPosition="9.625" Velocity="43" />
      <note Length="0.0078125" Pitch="44" RiffPosition="9.6875" Velocity="51" />
      <note Length="0.0234375" Pitch="44" RiffPosition="9.6953125" Velocity="39" />
      <note Length="0.03125" Pitch="41" RiffPosition="9.71875" Velocity="77" />
      <note Length="0.0625" Pitch="29" RiffPosition="9.75" Velocity="48" />
      <note Length="0.0078125" Pitch="44" RiffPosition="9.8125" Velocity="64" />
      <note Length="0.0234375" Pitch="43" RiffPosition="9.8203125" Velocity="83" />
      <note Length="0.03125" Pitch="41" RiffPosition="9.84375" Velocity="110" />
      <note Length="0.0625" Pitch="29" RiffPosition="9.875" Velocity="59" />
      <note Length="0.0078125" Pitch="41" RiffPosition="9.9375" Velocity="42" />
      <note Length="0.0234375" Pitch="41" RiffPosition="9.9453125" Velocity="42" />
      <note Length="0.03125" Pitch="29" RiffPosition="9.96875" Velocity="62" />
      <note Length="0.0625" Pitch="34" RiffPosition="10" Velocity="57" />
      <note Length="0.0078125" Pitch="27" RiffPosition="10.0625" Velocity="46" />
      <note Length="0.0234375" Pitch="27" RiffPosition="10.0703125" Velocity="43" />
      <note Length="0.03125" Pitch="27" RiffPosition="10.09375" Velocity="79" />
      <note Length="0.0625" Pitch="34" RiffPosition="10.125" Velocity="49" />
      <note Length="0.0078125" Pitch="39" RiffPosition="10.1875" Velocity="44" />
      <note Length="0.0234375" Pitch="39" RiffPosition="10.1953125" Velocity="58" />
      <note Length="0.03125" Pitch="27" RiffPosition="10.21875" Velocity="79" />
      <note Length="0.0625" Pitch="27" RiffPosition="10.25" Velocity="42" />
      <note Length="0.0078125" Pitch="42" RiffPosition="10.3125" Velocity="70" />
      <note Length="0.0234375" Pitch="42" RiffPosition="10.3203125" Velocity="56" />
      <note Length="0.03125" Pitch="39" RiffPosition="10.34375" Velocity="46" />
      <note Length="0.0625" Pitch="27" RiffPosition="10.375" Velocity="52" />
      <note Length="0.0078125" Pitch="44" RiffPosition="10.4375" Velocity="35" />
      <note Length="0.0234375" Pitch="44" RiffPosition="10.4453125" Velocity="55" />
      <note Length="0.03125" Pitch="42" RiffPosition="10.46875" Velocity="94" />
      <note Length="0.0625" Pitch="39" RiffPosition="10.5" Velocity="64" />
      <note Length="0.0078125" Pitch="44" RiffPosition="10.5625" Velocity="39" />
      <note Length="0.0234375" Pitch="44" RiffPosition="10.5703125" Velocity="54" />
      <note Length="0.03125" Pitch="41" RiffPosition="10.59375" Velocity="76" />
      <note Length="0.0625" Pitch="27" RiffPosition="10.625" Velocity="43" />
      <note Length="0.0078125" Pitch="42" RiffPosition="10.6875" Velocity="51" />
      <note Length="0.0234375" Pitch="42" RiffPosition="10.6953125" Velocity="39" />
      <note Length="0.03125" Pitch="27" RiffPosition="10.71875" Velocity="77" />
      <note Length="0.0625" Pitch="27" RiffPosition="10.75" Velocity="48" />
      <note Length="0.0078125" Pitch="39" RiffPosition="10.8125" Velocity="64" />
      <note Length="0.0234375" Pitch="39" RiffPosition="10.8203125" Velocity="83" />
      <note Length="0.03125" Pitch="27" RiffPosition="10.84375" Velocity="110" />
      <note Length="0.0625" Pitch="34" RiffPosition="10.875" Velocity="59" />
      <note Length="0.0078125" Pitch="39" RiffPosition="10.9375" Velocity="42" />
      <note Length="0.0234375" Pitch="39" RiffPosition="10.9453125" Velocity="42" />
      <note Length="0.03125" Pitch="27" RiffPosition="10.96875" Velocity="62" />
      <note Length="0.0625" Pitch="37" RiffPosition="11" Velocity="57" />
      <note Length="0.0078125" Pitch="42" RiffPosition="11.0625" Velocity="46" />
      <note Length="0.0234375" Pitch="42" RiffPosition="11.0703125" Velocity="43" />
      <note Length="0.03125" Pitch="30" RiffPosition="11.09375" Velocity="79" />
      <note Length="0.0625" Pitch="30" RiffPosition="11.125" Velocity="49" />
      <note Length="0.0078125" Pitch="45" RiffPosition="11.1875" Velocity="44" />
      <note Length="0.0234375" Pitch="45" RiffPosition="11.1953125" Velocity="58" />
      <note Length="0.03125" Pitch="42" RiffPosition="11.21875" Velocity="79" />
      <note Length="0.0625" Pitch="30" RiffPosition="11.25" Velocity="42" />
      <note Length="0.0078125" Pitch="45" RiffPosition="11.3125" Velocity="70" />
      <note Length="0.0234375" Pitch="45" RiffPosition="11.3203125" Velocity="56" />
      <note Length="0.03125" Pitch="42" RiffPosition="11.34375" Velocity="46" />
      <note Length="0.0625" Pitch="30" RiffPosition="11.375" Velocity="52" />
      <note Length="0.0078125" Pitch="45" RiffPosition="11.4375" Velocity="35" />
      <note Length="0.0234375" Pitch="45" RiffPosition="11.4453125" Velocity="55" />
      <note Length="0.03125" Pitch="42" RiffPosition="11.46875" Velocity="94" />
      <note Length="0.0625" Pitch="30" RiffPosition="11.5" Velocity="64" />
      <note Length="0.0078125" Pitch="45" RiffPosition="11.5625" Velocity="39" />
      <note Length="0.0234375" Pitch="45" RiffPosition="11.5703125" Velocity="54" />
      <note Length="0.03125" Pitch="42" RiffPosition="11.59375" Velocity="76" />
      <note Length="0.0625" Pitch="30" RiffPosition="11.625" Velocity="43" />
      <note Length="0.0078125" Pitch="45" RiffPosition="11.6875" Velocity="51" />
      <note Length="0.0234375" Pitch="45" RiffPosition="11.6953125" Velocity="39" />
      <note Length="0.03125" Pitch="42" RiffPosition="11.71875" Velocity="77" />
      <note Length="0.0625" Pitch="30" RiffPosition="11.75" Velocity="48" />
      <note Length="0.0078125" Pitch="45" RiffPosition="11.8125" Velocity="64" />
      <note Length="0.0234375" Pitch="44" RiffPosition="11.8203125" Velocity="83" />
      <note Length="0.03125" Pitch="42" RiffPosition="11.84375" Velocity="110" />
      <note Length="0.0625" Pitch="30" RiffPosition="11.875" Velocity="59" />
      <note Length="0.0078125" Pitch="42" RiffPosition="11.9375" Velocity="42" />
      <note Length="0.0234375" Pitch="42" RiffPosition="11.9453125" Velocity="42" />
      <note Length="0.03125" Pitch="30" RiffPosition="11.96875" Velocity="62" />
      <note Length="0.0625" Pitch="36" RiffPosition="12" Velocity="0" />
      <note Length="0.0078125" Pitch="29" RiffPosition="12.0625" Velocity="0" />
      <note Length="0.0234375" Pitch="29" RiffPosition="12.0703125" Velocity="0" />
      <note Length="0.03125" Pitch="29" RiffPosition="12.09375" Velocity="0" />
      <note Length="0.0625" Pitch="36" RiffPosition="12.125" Velocity="0" />
      <note Length="0.0078125" Pitch="41" RiffPosition="12.1875" Velocity="0" />
      <note Length="0.0234375" Pitch="41" RiffPosition="12.1953125" Velocity="0" />
      <note Length="0.03125" Pitch="29" RiffPosition="12.21875" Velocity="0" />
      <note Length="0.0625" Pitch="29" RiffPosition="12.25" Velocity="0" />
      <note Length="0.0078125" Pitch="44" RiffPosition="12.3125" Velocity="0" />
      <note Length="0.0234375" Pitch="44" RiffPosition="12.3203125" Velocity="0" />
      <note Length="0.03125" Pitch="41" RiffPosition="12.34375" Velocity="0" />
      <note Length="0.0625" Pitch="29" RiffPosition="12.375" Velocity="0" />
      <note Length="0.0078125" Pitch="46" RiffPosition="12.4375" Velocity="0" />
      <note Length="0.0234375" Pitch="46" RiffPosition="12.4453125" Velocity="0" />
      <note Length="0.03125" Pitch="44" RiffPosition="12.46875" Velocity="0" />
      <note Length="0.0625" Pitch="41" RiffPosition="12.5" Velocity="0" />
      <note Length="0.0078125" Pitch="46" RiffPosition="12.5625" Velocity="0" />
      <note Length="0.0234375" Pitch="46" RiffPosition="12.5703125" Velocity="0" />
      <note Length="0.03125" Pitch="43" RiffPosition="12.59375" Velocity="0" />
      <note Length="0.0625" Pitch="29" RiffPosition="12.625" Velocity="0" />
      <note Length="0.0078125" Pitch="44" RiffPosition="12.6875" Velocity="0" />
      <note Length="0.0234375" Pitch="44" RiffPosition="12.6953125" Velocity="0" />
      <note Length="0.03125" Pitch="29" RiffPosition="12.71875" Velocity="0" />
      <note Length="0.0625" Pitch="29" RiffPosition="12.75" Velocity="0" />
      <note Length="0.0078125" Pitch="41" RiffPosition="12.8125" Velocity="0" />
      <note Length="0.0234375" Pitch="41" RiffPosition="12.8203125" Velocity="0" />
      <note Length="0.03125" Pitch="29" RiffPosition="12.84375" Velocity="0" />
      <note Length="0.0625" Pitch="36" RiffPosition="12.875" Velocity="0" />
      <note Length="0.0078125" Pitch="41" RiffPosition="12.9375" Velocity="0" />
      <note Length="0.0234375" Pitch="41" RiffPosition="12.9453125" Velocity="0" />
      <note Length="0.03125" Pitch="29" RiffPosition="12.96875" Velocity="0" />
      <note Length="0.0625" Pitch="36" RiffPosition="13" Velocity="0" />
      <note Length="0.0078125" Pitch="41" RiffPosition="13.0625" Velocity="0" />
      <note Length="0.0234375" Pitch="41" RiffPosition="13.0703125" Velocity="0" />
      <note Length="0.03125" Pitch="29" RiffPosition="13.09375" Velocity="0" />
      <note Length="0.0625" Pitch="29" RiffPosition="13.125" Velocity="0" />
      <note Length="0.0078125" Pitch="44" RiffPosition="13.1875" Velocity="0" />
      <note Length="0.0234375" Pitch="44" RiffPosition="13.1953125" Velocity="0" />
      <note Length="0.03125" Pitch="41" RiffPosition="13.21875" Velocity="0" />
      <note Length="0.0625" Pitch="29" RiffPosition="13.25" Velocity="0" />
      <note Length="0.0078125" Pitch="44" RiffPosition="13.3125" Velocity="0" />
      <note Length="0.0234375" Pitch="44" RiffPosition="13.3203125" Velocity="0" />
      <note Length="0.03125" Pitch="41" RiffPosition="13.34375" Velocity="0" />
      <note Length="0.0625" Pitch="29" RiffPosition="13.375" Velocity="0" />
      <note Length="0.0078125" Pitch="44" RiffPosition="13.4375" Velocity="0" />
      <note Length="0.0234375" Pitch="44" RiffPosition="13.4453125" Velocity="0" />
      <note Length="0.03125" Pitch="41" RiffPosition="13.46875" Velocity="0" />
      <note Length="0.0625" Pitch="29" RiffPosition="13.5" Velocity="0" />
      <note Length="0.0078125" Pitch="44" RiffPosition="13.5625" Velocity="0" />
      <note Length="0.0234375" Pitch="44" RiffPosition="13.5703125" Velocity="0" />
      <note Length="0.03125" Pitch="41" RiffPosition="13.59375" Velocity="0" />
      <note Length="0.0625" Pitch="29" RiffPosition="13.625" Velocity="0" />
      <note Length="0.0078125" Pitch="44" RiffPosition="13.6875" Velocity="0" />
      <note Length="0.0234375" Pitch="44" RiffPosition="13.6953125" Velocity="0" />
      <note Length="0.03125" Pitch="41" RiffPosition="13.71875" Velocity="0" />
      <note Length="0.0625" Pitch="29" RiffPosition="13.75" Velocity="0" />
      <note Length="0.0078125" Pitch="44" RiffPosition="13.8125" Velocity="0" />
      <note Length="0.0234375" Pitch="43" RiffPosition="13.8203125" Velocity="0" />
      <note Length="0.03125" Pitch="41" RiffPosition="13.84375" Velocity="0" />
      <note Length="0.0625" Pitch="29" RiffPosition="13.875" Velocity="0" />
      <note Length="0.0078125" Pitch="41" RiffPosition="13.9375" Velocity="0" />
      <note Length="0.0234375" Pitch="41" RiffPosition="13.9453125" Velocity="0" />
      <note Length="0.03125" Pitch="29" RiffPosition="13.96875" Velocity="0" />
    </riff>
    <riff IsDrum="False" MidiInstrument="95" Tempo="78" Length="14">
      <note Length="1" Pitch="27" RiffPosition="0" Velocity="90" />
      <note Length="1" Pitch="37" RiffPosition="1" Velocity="90" />
      <note Length="2" Pitch="34" RiffPosition="2" Velocity="90" />
      <note Length="1.5" Pitch="32" RiffPosition="4" Velocity="0" />
      <note Length="1.5" Pitch="36" RiffPosition="5.5" Velocity="0" />
      <note Length="0.375" Pitch="34" RiffPosition="7" Velocity="0" />
      <note Length="0.125" Pitch="34" RiffPosition="7.375" Velocity="0" />
      <note Length="0.25" Pitch="34" RiffPosition="7.5" Velocity="0" />
      <note Length="0.25" Pitch="34" RiffPosition="7.75" Velocity="0" />
      <note Length="1" Pitch="27" RiffPosition="8" Velocity="0" />
      <note Length="1" Pitch="29" RiffPosition="9" Velocity="0" />
      <note Length="2" Pitch="27" RiffPosition="10" Velocity="90" />
      <note Length="1.5" Pitch="29" RiffPosition="12" Velocity="0" />
      <note Length="0.5" Pitch="36" RiffPosition="13.5" Velocity="0" />
    </riff>
    <riff IsDrum="False" MidiInstrument="91" Tempo="95" Length="14">
      <note Length="0.5" Pitch="51" RiffPosition="0" Velocity="90" />
      <note Length="0.25" Pitch="51" RiffPosition="0.5" Velocity="90" />
      <note Length="0.25" Pitch="51" RiffPosition="0.75" Velocity="90" />
      <note Length="0.5" Pitch="53" RiffPosition="1" Velocity="90" />
      <note Length="1" Pitch="29" RiffPosition="1.5" Velocity="90" />
      <note Length="0.75" Pitch="27" RiffPosition="2.5" Velocity="90" />
      <note Length="0.75" Pitch="29" RiffPosition="3.25" Velocity="90" />
      <note Length="1" Pitch="41" RiffPosition="4" Velocity="0" />
      <note Length="3" Pitch="31" RiffPosition="5" Velocity="0" />
      <note Length="0.5" Pitch="15" RiffPosition="8" Velocity="0" />
      <note Length="0.25" Pitch="15" RiffPosition="8.5" Velocity="0" />
      <note Length="0.25" Pitch="29" RiffPosition="8.75" Velocity="0" />
      <note Length="0.5" Pitch="31" RiffPosition="9" Velocity="0" />
      <note Length="1" Pitch="41" RiffPosition="9.5" Velocity="0" />
      <note Length="0.75" Pitch="39" RiffPosition="10.5" Velocity="90" />
      <note Length="0.75" Pitch="30" RiffPosition="11.25" Velocity="90" />
      <note Length="1" Pitch="29" RiffPosition="12" Velocity="0" />
      <note Length="1" Pitch="41" RiffPosition="13" Velocity="0" />
    </riff>
    <riff IsDrum="False" MidiInstrument="24" Tempo="76" Length="14">
      <note Length="0.03125" Pitch="51" RiffPosition="0" Velocity="66" />
      <note Length="0.03125" Pitch="51" RiffPosition="0.03125" Velocity="33" />
      <note Length="0.015625" Pitch="39" RiffPosition="0.0625" Velocity="44" />
      <note Length="0.046875" Pitch="58" RiffPosition="0.078125" Velocity="34" />
      <note Length="0.03125" Pitch="51" RiffPosition="0.125" Velocity="50" />
      <note Length="0.03125" Pitch="68" RiffPosition="0.15625" Velocity="68" />
      <note Length="0.0625" Pitch="75" RiffPosition="0.1875" Velocity="76" />
      <note Length="0.03125" Pitch="51" RiffPosition="0.25" Velocity="36" />
      <note Length="0.09375" Pitch="56" RiffPosition="0.28125" Velocity="55" />
      <note Length="0.0234375" Pitch="63" RiffPosition="0.375" Velocity="73" />
      <note Length="0.0234375" Pitch="70" RiffPosition="0.3984375" Velocity="37" />
      <note Length="0.046875" Pitch="63" RiffPosition="0.421875" Velocity="53" />
      <note Length="0.03125" Pitch="66" RiffPosition="0.46875" Velocity="81" />
      <note Length="0.03125" Pitch="66" RiffPosition="0.5" Velocity="77" />
      <note Length="0.03125" Pitch="56" RiffPosition="0.53125" Velocity="33" />
      <note Length="0.015625" Pitch="54" RiffPosition="0.5625" Velocity="44" />
      <note Length="0.046875" Pitch="58" RiffPosition="0.578125" Velocity="38" />
      <note Length="0.03125" Pitch="63" RiffPosition="0.625" Velocity="37" />
      <note Length="0.03125" Pitch="68" RiffPosition="0.65625" Velocity="87" />
      <note Length="0.0625" Pitch="63" RiffPosition="0.6875" Velocity="77" />
      <note Length="0.03125" Pitch="51" RiffPosition="0.75" Velocity="42" />
      <note Length="0.09375" Pitch="58" RiffPosition="0.78125" Velocity="83" />
      <note Length="0.0234375" Pitch="65" RiffPosition="0.875" Velocity="57" />
      <note Length="0.0234375" Pitch="68" RiffPosition="0.8984375" Velocity="35" />
      <note Length="0.046875" Pitch="70" RiffPosition="0.921875" Velocity="37" />
      <note Length="0.03125" Pitch="63" RiffPosition="0.96875" Velocity="83" />
      <note Length="0.03125" Pitch="53" RiffPosition="1" Velocity="107" />
      <note Length="0.03125" Pitch="61" RiffPosition="1.03125" Velocity="45" />
      <note Length="0.015625" Pitch="55" RiffPosition="1.0625" Velocity="30" />
      <note Length="0.046875" Pitch="56" RiffPosition="1.078125" Velocity="61" />
      <note Length="0.03125" Pitch="53" RiffPosition="1.125" Velocity="51" />
      <note Length="0.03125" Pitch="65" RiffPosition="1.15625" Velocity="52" />
      <note Length="0.0625" Pitch="70" RiffPosition="1.1875" Velocity="70" />
      <note Length="0.03125" Pitch="65" RiffPosition="1.25" Velocity="46" />
      <note Length="0.09375" Pitch="56" RiffPosition="1.28125" Velocity="94" />
      <note Length="0.0234375" Pitch="67" RiffPosition="1.375" Velocity="30" />
      <note Length="0.0234375" Pitch="68" RiffPosition="1.3984375" Velocity="40" />
      <note Length="0.046875" Pitch="65" RiffPosition="1.421875" Velocity="66" />
      <note Length="0.03125" Pitch="70" RiffPosition="1.46875" Velocity="79" />
      <note Length="0.03125" Pitch="53" RiffPosition="1.5" Velocity="84" />
      <note Length="0.03125" Pitch="60" RiffPosition="1.53125" Velocity="34" />
      <note Length="0.015625" Pitch="58" RiffPosition="1.5625" Velocity="41" />
      <note Length="0.046875" Pitch="58" RiffPosition="1.578125" Velocity="51" />
      <note Length="0.03125" Pitch="68" RiffPosition="1.625" Velocity="75" />
      <note Length="0.03125" Pitch="68" RiffPosition="1.65625" Velocity="46" />
      <note Length="0.0625" Pitch="65" RiffPosition="1.6875" Velocity="59" />
      <note Length="0.03125" Pitch="53" RiffPosition="1.75" Velocity="31" />
      <note Length="0.09375" Pitch="53" RiffPosition="1.78125" Velocity="56" />
      <note Length="0.0234375" Pitch="53" RiffPosition="1.875" Velocity="57" />
      <note Length="0.0234375" Pitch="70" RiffPosition="1.8984375" Velocity="41" />
      <note Length="0.046875" Pitch="70" RiffPosition="1.921875" Velocity="72" />
      <note Length="0.03125" Pitch="68" RiffPosition="1.96875" Velocity="64" />
      <note Length="0.03125" Pitch="51" RiffPosition="2" Velocity="63" />
      <note Length="0.03125" Pitch="56" RiffPosition="2.03125" Velocity="36" />
      <note Length="0.015625" Pitch="53" RiffPosition="2.0625" Velocity="47" />
      <note Length="0.046875" Pitch="53" RiffPosition="2.078125" Velocity="37" />
      <note Length="0.03125" Pitch="63" RiffPosition="2.125" Velocity="47" />
      <note Length="0.03125" Pitch="70" RiffPosition="2.15625" Velocity="71" />
      <note Length="0.0625" Pitch="63" RiffPosition="2.1875" Velocity="56" />
      <note Length="0.03125" Pitch="66" RiffPosition="2.25" Velocity="39" />
      <note Length="0.09375" Pitch="56" RiffPosition="2.28125" Velocity="58" />
      <note Length="0.0234375" Pitch="63" RiffPosition="2.375" Velocity="70" />
      <note Length="0.0234375" Pitch="65" RiffPosition="2.3984375" Velocity="34" />
      <note Length="0.046875" Pitch="75" RiffPosition="2.421875" Velocity="33" />
      <note Length="0.03125" Pitch="68" RiffPosition="2.46875" Velocity="78" />
      <note Length="0.03125" Pitch="51" RiffPosition="2.5" Velocity="96" />
      <note Length="0.03125" Pitch="58" RiffPosition="2.53125" Velocity="30" />
      <note Length="0.015625" Pitch="39" RiffPosition="2.5625" Velocity="48" />
      <note Length="0.046875" Pitch="59" RiffPosition="2.578125" Velocity="42" />
      <note Length="0.03125" Pitch="65" RiffPosition="2.625" Velocity="34" />
      <note Length="0.03125" Pitch="68" RiffPosition="2.65625" Velocity="67" />
      <note Length="0.0625" Pitch="63" RiffPosition="2.6875" Velocity="80" />
      <note Length="0.03125" Pitch="51" RiffPosition="2.75" Velocity="45" />
      <note Length="0.09375" Pitch="59" RiffPosition="2.78125" Velocity="86" />
      <note Length="0.0234375" Pitch="51" RiffPosition="2.875" Velocity="53" />
      <note Length="0.0234375" Pitch="63" RiffPosition="2.8984375" Velocity="45" />
      <note Length="0.046875" Pitch="63" RiffPosition="2.921875" Velocity="40" />
      <note Length="0.03125" Pitch="68" RiffPosition="2.96875" Velocity="80" />
      <note Length="0.03125" Pitch="65" RiffPosition="3" Velocity="104" />
      <note Length="0.03125" Pitch="56" RiffPosition="3.03125" Velocity="42" />
      <note Length="0.015625" Pitch="58" RiffPosition="3.0625" Velocity="50" />
      <note Length="0.046875" Pitch="58" RiffPosition="3.078125" Velocity="58" />
      <note Length="0.03125" Pitch="67" RiffPosition="3.125" Velocity="48" />
      <note Length="0.03125" Pitch="65" RiffPosition="3.15625" Velocity="55" />
      <note Length="0.0625" Pitch="65" RiffPosition="3.1875" Velocity="73" />
      <note Length="0.03125" Pitch="53" RiffPosition="3.25" Velocity="49" />
      <note Length="0.09375" Pitch="60" RiffPosition="3.28125" Velocity="97" />
      <note Length="0.0234375" Pitch="68" RiffPosition="3.375" Velocity="50" />
      <note Length="0.0234375" Pitch="68" RiffPosition="3.3984375" Velocity="43" />
      <note Length="0.046875" Pitch="65" RiffPosition="3.421875" Velocity="69" />
      <note Length="0.03125" Pitch="67" RiffPosition="3.46875" Velocity="76" />
      <note Length="0.03125" Pitch="53" RiffPosition="3.5" Velocity="81" />
      <note Length="0.03125" Pitch="53" RiffPosition="3.53125" Velocity="37" />
      <note Length="0.015625" Pitch="41" RiffPosition="3.5625" Velocity="38" />
      <note Length="0.046875" Pitch="60" RiffPosition="3.578125" Velocity="48" />
      <note Length="0.03125" Pitch="53" RiffPosition="3.625" Velocity="72" />
      <note Length="0.03125" Pitch="70" RiffPosition="3.65625" Velocity="49" />
      <note Length="0.0625" Pitch="77" RiffPosition="3.6875" Velocity="62" />
      <note Length="0.03125" Pitch="53" RiffPosition="3.75" Velocity="34" />
      <note Length="0.09375" Pitch="58" RiffPosition="3.78125" Velocity="59" />
      <note Length="0.0234375" Pitch="65" RiffPosition="3.875" Velocity="54" />
      <note Length="0.0234375" Pitch="72" RiffPosition="3.8984375" Velocity="44" />
      <note Length="0.046875" Pitch="65" RiffPosition="3.921875" Velocity="75" />
      <note Length="0.03125" Pitch="68" RiffPosition="3.96875" Velocity="61" />
      <note Length="0.03125" Pitch="68" RiffPosition="4" Velocity="60" />
      <note Length="0.03125" Pitch="58" RiffPosition="4.03125" Velocity="39" />
      <note Length="0.015625" Pitch="56" RiffPosition="4.0625" Velocity="50" />
      <note Length="0.046875" Pitch="60" RiffPosition="4.078125" Velocity="40" />
      <note Length="0.03125" Pitch="65" RiffPosition="4.125" Velocity="44" />
      <note Length="0.03125" Pitch="70" RiffPosition="4.15625" Velocity="74" />
      <note Length="0.0625" Pitch="65" RiffPosition="4.1875" Velocity="59" />
      <note Length="0.03125" Pitch="53" RiffPosition="4.25" Velocity="41" />
      <note Length="0.09375" Pitch="60" RiffPosition="4.28125" Velocity="61" />
      <note Length="0.0234375" Pitch="68" RiffPosition="4.375" Velocity="67" />
      <note Length="0.0234375" Pitch="70" RiffPosition="4.3984375" Velocity="31" />
      <note Length="0.046875" Pitch="72" RiffPosition="4.421875" Velocity="36" />
      <note Length="0.03125" Pitch="65" RiffPosition="4.46875" Velocity="75" />
      <note Length="0.03125" Pitch="53" RiffPosition="4.5" Velocity="93" />
      <note Length="0.03125" Pitch="61" RiffPosition="4.53125" Velocity="33" />
      <note Length="0.015625" Pitch="56" RiffPosition="4.5625" Velocity="51" />
      <note Length="0.046875" Pitch="56" RiffPosition="4.578125" Velocity="39" />
      <note Length="0.03125" Pitch="53" RiffPosition="4.625" Velocity="31" />
      <note Length="0.03125" Pitch="65" RiffPosition="4.65625" Velocity="70" />
      <note Length="0.0625" Pitch="70" RiffPosition="4.6875" Velocity="83" />
      <note Length="0.03125" Pitch="65" RiffPosition="4.75" Velocity="48" />
      <note Length="0.09375" Pitch="56" RiffPosition="4.78125" Velocity="89" />
      <note Length="0.0234375" Pitch="67" RiffPosition="4.875" Velocity="50" />
      <note Length="0.0234375" Pitch="68" RiffPosition="4.8984375" Velocity="42" />
      <note Length="0.046875" Pitch="65" RiffPosition="4.921875" Velocity="43" />
      <note Length="0.03125" Pitch="70" RiffPosition="4.96875" Velocity="100" />
      <note Length="0.03125" Pitch="53" RiffPosition="5" Velocity="101" />
      <note Length="0.03125" Pitch="61" RiffPosition="5.03125" Velocity="39" />
      <note Length="0.015625" Pitch="58" RiffPosition="5.0625" Velocity="47" />
      <note Length="0.046875" Pitch="60" RiffPosition="5.078125" Velocity="55" />
      <note Length="0.03125" Pitch="68" RiffPosition="5.125" Velocity="68" />
      <note Length="0.03125" Pitch="68" RiffPosition="5.15625" Velocity="58" />
      <note Length="0.0625" Pitch="65" RiffPosition="5.1875" Velocity="76" />
      <note Length="0.03125" Pitch="53" RiffPosition="5.25" Velocity="52" />
      <note Length="0.09375" Pitch="53" RiffPosition="5.28125" Velocity="100" />
      <note Length="0.0234375" Pitch="53" RiffPosition="5.375" Velocity="47" />
      <note Length="0.0234375" Pitch="70" RiffPosition="5.3984375" Velocity="46" />
      <note Length="0.046875" Pitch="70" RiffPosition="5.421875" Velocity="72" />
      <note Length="0.03125" Pitch="68" RiffPosition="5.46875" Velocity="73" />
      <note Length="0.03125" Pitch="53" RiffPosition="5.5" Velocity="78" />
      <note Length="0.03125" Pitch="58" RiffPosition="5.53125" Velocity="43" />
      <note Length="0.015625" Pitch="55" RiffPosition="5.5625" Velocity="35" />
      <note Length="0.046875" Pitch="55" RiffPosition="5.578125" Velocity="45" />
      <note Length="0.03125" Pitch="65" RiffPosition="5.625" Velocity="69" />
      <note Length="0.03125" Pitch="72" RiffPosition="5.65625" Velocity="52" />
      <note Length="0.0625" Pitch="65" RiffPosition="5.6875" Velocity="42" />
      <note Length="0.03125" Pitch="53" RiffPosition="5.75" Velocity="37" />
      <note Length="0.09375" Pitch="58" RiffPosition="5.78125" Velocity="62" />
      <note Length="0.0234375" Pitch="65" RiffPosition="5.875" Velocity="51" />
      <note Length="0.0234375" Pitch="67" RiffPosition="5.8984375" Velocity="47" />
      <note Length="0.046875" Pitch="77" RiffPosition="5.921875" Velocity="55" />
      <note Length="0.03125" Pitch="70" RiffPosition="5.96875" Velocity="58" />
      <note Length="0.03125" Pitch="53" RiffPosition="6" Velocity="80" />
      <note Length="0.03125" Pitch="60" RiffPosition="6.03125" Velocity="42" />
      <note Length="0.015625" Pitch="41" RiffPosition="6.0625" Velocity="53" />
      <note Length="0.046875" Pitch="61" RiffPosition="6.078125" Velocity="40" />
      <note Length="0.03125" Pitch="67" RiffPosition="6.125" Velocity="41" />
      <note Length="0.03125" Pitch="72" RiffPosition="6.15625" Velocity="77" />
      <note Length="0.0625" Pitch="65" RiffPosition="6.1875" Velocity="62" />
      <note Length="0.03125" Pitch="53" RiffPosition="6.25" Velocity="38" />
      <note Length="0.09375" Pitch="61" RiffPosition="6.28125" Velocity="64" />
      <note Length="0.0234375" Pitch="53" RiffPosition="6.375" Velocity="64" />
      <note Length="0.0234375" Pitch="65" RiffPosition="6.3984375" Velocity="51" />
      <note Length="0.046875" Pitch="65" RiffPosition="6.421875" Velocity="39" />
      <note Length="0.03125" Pitch="70" RiffPosition="6.46875" Velocity="72" />
      <note Length="0.03125" Pitch="65" RiffPosition="6.5" Velocity="90" />
      <note Length="0.03125" Pitch="56" RiffPosition="6.53125" Velocity="36" />
      <note Length="0.015625" Pitch="58" RiffPosition="6.5625" Velocity="31" />
      <note Length="0.046875" Pitch="58" RiffPosition="6.578125" Velocity="36" />
      <note Length="0.03125" Pitch="67" RiffPosition="6.625" Velocity="32" />
      <note Length="0.03125" Pitch="65" RiffPosition="6.65625" Velocity="73" />
      <note Length="0.0625" Pitch="65" RiffPosition="6.6875" Velocity="86" />
      <note Length="0.03125" Pitch="53" RiffPosition="6.75" Velocity="51" />
      <note Length="0.09375" Pitch="61" RiffPosition="6.78125" Velocity="92" />
      <note Length="0.0234375" Pitch="68" RiffPosition="6.875" Velocity="70" />
      <note Length="0.0234375" Pitch="68" RiffPosition="6.8984375" Velocity="39" />
      <note Length="0.046875" Pitch="65" RiffPosition="6.921875" Velocity="46" />
      <note Length="0.03125" Pitch="67" RiffPosition="6.96875" Velocity="97" />
      <note Length="0.03125" Pitch="53" RiffPosition="7" Velocity="98" />
      <note Length="0.03125" Pitch="53" RiffPosition="7.03125" Velocity="36" />
      <note Length="0.015625" Pitch="55" RiffPosition="7.0625" Velocity="44" />
      <note Length="0.046875" Pitch="60" RiffPosition="7.078125" Velocity="52" />
      <note Length="0.03125" Pitch="53" RiffPosition="7.125" Velocity="65" />
      <note Length="0.03125" Pitch="70" RiffPosition="7.15625" Velocity="61" />
      <note Length="0.0625" Pitch="77" RiffPosition="7.1875" Velocity="79" />
      <note Length="0.03125" Pitch="53" RiffPosition="7.25" Velocity="55" />
      <note Length="0.09375" Pitch="58" RiffPosition="7.28125" Velocity="80" />
      <note Length="0.0234375" Pitch="65" RiffPosition="7.375" Velocity="44" />
      <note Length="0.0234375" Pitch="72" RiffPosition="7.3984375" Velocity="49" />
      <note Length="0.046875" Pitch="65" RiffPosition="7.421875" Velocity="75" />
      <note Length="0.03125" Pitch="68" RiffPosition="7.46875" Velocity="70" />
      <note Length="0.03125" Pitch="53" RiffPosition="7.5" Velocity="75" />
      <note Length="0.03125" Pitch="60" RiffPosition="7.53125" Velocity="40" />
      <note Length="0.015625" Pitch="56" RiffPosition="7.5625" Velocity="32" />
      <note Length="0.046875" Pitch="60" RiffPosition="7.578125" Velocity="42" />
      <note Length="0.03125" Pitch="65" RiffPosition="7.625" Velocity="65" />
      <note Length="0.03125" Pitch="70" RiffPosition="7.65625" Velocity="55" />
      <note Length="0.0625" Pitch="65" RiffPosition="7.6875" Velocity="45" />
      <note Length="0.03125" Pitch="53" RiffPosition="7.75" Velocity="43" />
      <note Length="0.09375" Pitch="60" RiffPosition="7.78125" Velocity="65" />
      <note Length="0.0234375" Pitch="68" RiffPosition="7.875" Velocity="48" />
      <note Length="0.0234375" Pitch="72" RiffPosition="7.8984375" Velocity="50" />
      <note Length="0.046875" Pitch="72" RiffPosition="7.921875" Velocity="58" />
      <note Length="0.03125" Pitch="65" RiffPosition="7.96875" Velocity="55" />
      <note Length="0.03125" Pitch="63" RiffPosition="8" Velocity="0" />
      <note Length="0.03125" Pitch="53" RiffPosition="8.03125" Velocity="0" />
      <note Length="0.015625" Pitch="54" RiffPosition="8.0625" Velocity="0" />
      <note Length="0.046875" Pitch="54" RiffPosition="8.078125" Velocity="0" />
      <note Length="0.03125" Pitch="51" RiffPosition="8.125" Velocity="0" />
      <note Length="0.03125" Pitch="63" RiffPosition="8.15625" Velocity="0" />
      <note Length="0.0625" Pitch="70" RiffPosition="8.1875" Velocity="0" />
      <note Length="0.03125" Pitch="63" RiffPosition="8.25" Velocity="0" />
      <note Length="0.09375" Pitch="54" RiffPosition="8.28125" Velocity="0" />
      <note Length="0.0234375" Pitch="65" RiffPosition="8.375" Velocity="0" />
      <note Length="0.0234375" Pitch="66" RiffPosition="8.3984375" Velocity="0" />
      <note Length="0.046875" Pitch="63" RiffPosition="8.421875" Velocity="0" />
      <note Length="0.03125" Pitch="70" RiffPosition="8.46875" Velocity="0" />
      <note Length="0.03125" Pitch="51" RiffPosition="8.5" Velocity="0" />
      <note Length="0.03125" Pitch="56" RiffPosition="8.53125" Velocity="0" />
      <note Length="0.015625" Pitch="56" RiffPosition="8.5625" Velocity="0" />
      <note Length="0.046875" Pitch="58" RiffPosition="8.578125" Velocity="0" />
      <note Length="0.03125" Pitch="66" RiffPosition="8.625" Velocity="0" />
      <note Length="0.03125" Pitch="68" RiffPosition="8.65625" Velocity="0" />
      <note Length="0.0625" Pitch="63" RiffPosition="8.6875" Velocity="0" />
      <note Length="0.03125" Pitch="51" RiffPosition="8.75" Velocity="0" />
      <note Length="0.09375" Pitch="51" RiffPosition="8.78125" Velocity="0" />
      <note Length="0.0234375" Pitch="51" RiffPosition="8.875" Velocity="0" />
      <note Length="0.0234375" Pitch="68" RiffPosition="8.8984375" Velocity="0" />
      <note Length="0.046875" Pitch="70" RiffPosition="8.921875" Velocity="0" />
      <note Length="0.03125" Pitch="66" RiffPosition="8.96875" Velocity="0" />
      <note Length="0.03125" Pitch="53" RiffPosition="9" Velocity="0" />
      <note Length="0.03125" Pitch="58" RiffPosition="9.03125" Velocity="0" />
      <note Length="0.015625" Pitch="55" RiffPosition="9.0625" Velocity="0" />
      <note Length="0.046875" Pitch="55" RiffPosition="9.078125" Velocity="0" />
      <note Length="0.03125" Pitch="65" RiffPosition="9.125" Velocity="0" />
      <note Length="0.03125" Pitch="72" RiffPosition="9.15625" Velocity="0" />
      <note Length="0.0625" Pitch="65" RiffPosition="9.1875" Velocity="0" />
      <note Length="0.03125" Pitch="53" RiffPosition="9.25" Velocity="0" />
      <note Length="0.09375" Pitch="60" RiffPosition="9.28125" Velocity="0" />
      <note Length="0.0234375" Pitch="67" RiffPosition="9.375" Velocity="0" />
      <note Length="0.0234375" Pitch="67" RiffPosition="9.3984375" Velocity="0" />
      <note Length="0.046875" Pitch="77" RiffPosition="9.421875" Velocity="0" />
      <note Length="0.03125" Pitch="70" RiffPosition="9.46875" Velocity="0" />
      <note Length="0.03125" Pitch="53" RiffPosition="9.5" Velocity="0" />
      <note Length="0.03125" Pitch="60" RiffPosition="9.53125" Velocity="0" />
      <note Length="0.015625" Pitch="41" RiffPosition="9.5625" Velocity="0" />
      <note Length="0.046875" Pitch="61" RiffPosition="9.578125" Velocity="0" />
      <note Length="0.03125" Pitch="68" RiffPosition="9.625" Velocity="0" />
      <note Length="0.03125" Pitch="72" RiffPosition="9.65625" Velocity="0" />
      <note Length="0.0625" Pitch="65" RiffPosition="9.6875" Velocity="0" />
      <note Length="0.03125" Pitch="65" RiffPosition="9.75" Velocity="0" />
      <note Length="0.09375" Pitch="55" RiffPosition="9.78125" Velocity="0" />
      <note Length="0.0234375" Pitch="53" RiffPosition="9.875" Velocity="0" />
      <note Length="0.0234375" Pitch="65" RiffPosition="9.8984375" Velocity="0" />
      <note Length="0.046875" Pitch="65" RiffPosition="9.921875" Velocity="0" />
      <note Length="0.03125" Pitch="70" RiffPosition="9.96875" Velocity="0" />
      <note Length="0.03125" Pitch="63" RiffPosition="10" Velocity="0" />
      <note Length="0.03125" Pitch="54" RiffPosition="10.03125" Velocity="0" />
      <note Length="0.015625" Pitch="56" RiffPosition="10.0625" Velocity="0" />
      <note Length="0.046875" Pitch="56" RiffPosition="10.078125" Velocity="0" />
      <note Length="0.03125" Pitch="65" RiffPosition="10.125" Velocity="0" />
      <note Length="0.03125" Pitch="63" RiffPosition="10.15625" Velocity="0" />
      <note Length="0.0625" Pitch="63" RiffPosition="10.1875" Velocity="0" />
      <note Length="0.03125" Pitch="51" RiffPosition="10.25" Velocity="0" />
      <note Length="0.09375" Pitch="56" RiffPosition="10.28125" Velocity="0" />
      <note Length="0.0234375" Pitch="66" RiffPosition="10.375" Velocity="0" />
      <note Length="0.0234375" Pitch="68" RiffPosition="10.3984375" Velocity="0" />
      <note Length="0.046875" Pitch="63" RiffPosition="10.421875" Velocity="0" />
      <note Length="0.03125" Pitch="65" RiffPosition="10.46875" Velocity="0" />
      <note Length="0.03125" Pitch="51" RiffPosition="10.5" Velocity="0" />
      <note Length="0.03125" Pitch="51" RiffPosition="10.53125" Velocity="0" />
      <note Length="0.015625" Pitch="53" RiffPosition="10.5625" Velocity="0" />
      <note Length="0.046875" Pitch="53" RiffPosition="10.578125" Velocity="0" />
      <note Length="0.03125" Pitch="51" RiffPosition="10.625" Velocity="0" />
      <note Length="0.03125" Pitch="68" RiffPosition="10.65625" Velocity="0" />
      <note Length="0.0625" Pitch="77" RiffPosition="10.6875" Velocity="0" />
      <note Length="0.03125" Pitch="51" RiffPosition="10.75" Velocity="0" />
      <note Length="0.09375" Pitch="56" RiffPosition="10.78125" Velocity="0" />
      <note Length="0.0234375" Pitch="63" RiffPosition="10.875" Velocity="0" />
      <note Length="0.0234375" Pitch="70" RiffPosition="10.8984375" Velocity="0" />
      <note Length="0.046875" Pitch="63" RiffPosition="10.921875" Velocity="0" />
      <note Length="0.03125" Pitch="68" RiffPosition="10.96875" Velocity="0" />
      <note Length="0.03125" Pitch="54" RiffPosition="11" Velocity="0" />
      <note Length="0.03125" Pitch="61" RiffPosition="11.03125" Velocity="0" />
      <note Length="0.015625" Pitch="57" RiffPosition="11.0625" Velocity="0" />
      <note Length="0.046875" Pitch="61" RiffPosition="11.078125" Velocity="0" />
      <note Length="0.03125" Pitch="66" RiffPosition="11.125" Velocity="0" />
      <note Length="0.03125" Pitch="68" RiffPosition="11.15625" Velocity="0" />
      <note Length="0.0625" Pitch="66" RiffPosition="11.1875" Velocity="0" />
      <note Length="0.03125" Pitch="54" RiffPosition="11.25" Velocity="0" />
      <note Length="0.09375" Pitch="61" RiffPosition="11.28125" Velocity="0" />
      <note Length="0.0234375" Pitch="69" RiffPosition="11.375" Velocity="0" />
      <note Length="0.0234375" Pitch="73" RiffPosition="11.3984375" Velocity="0" />
      <note Length="0.046875" Pitch="66" RiffPosition="11.421875" Velocity="0" />
      <note Length="0.03125" Pitch="66" RiffPosition="11.46875" Velocity="0" />
      <note Length="0.03125" Pitch="66" RiffPosition="11.5" Velocity="0" />
      <note Length="0.03125" Pitch="56" RiffPosition="11.53125" Velocity="0" />
      <note Length="0.015625" Pitch="57" RiffPosition="11.5625" Velocity="0" />
      <note Length="0.046875" Pitch="57" RiffPosition="11.578125" Velocity="0" />
      <note Length="0.03125" Pitch="54" RiffPosition="11.625" Velocity="0" />
      <note Length="0.03125" Pitch="66" RiffPosition="11.65625" Velocity="0" />
      <note Length="0.0625" Pitch="73" RiffPosition="11.6875" Velocity="0" />
      <note Length="0.03125" Pitch="66" RiffPosition="11.75" Velocity="0" />
      <note Length="0.09375" Pitch="59" RiffPosition="11.78125" Velocity="0" />
      <note Length="0.0234375" Pitch="69" RiffPosition="11.875" Velocity="0" />
      <note Length="0.0234375" Pitch="69" RiffPosition="11.8984375" Velocity="0" />
      <note Length="0.046875" Pitch="66" RiffPosition="11.921875" Velocity="0" />
      <note Length="0.03125" Pitch="73" RiffPosition="11.96875" Velocity="0" />
      <note Length="0.03125" Pitch="53" RiffPosition="12" Velocity="71" />
      <note Length="0.03125" Pitch="58" RiffPosition="12.03125" Velocity="51" />
      <note Length="0.015625" Pitch="41" RiffPosition="12.0625" Velocity="39" />
      <note Length="0.046875" Pitch="60" RiffPosition="12.078125" Velocity="31" />
      <note Length="0.03125" Pitch="68" RiffPosition="12.125" Velocity="32" />
      <note Length="0.03125" Pitch="70" RiffPosition="12.15625" Velocity="63" />
      <note Length="0.0625" Pitch="65" RiffPosition="12.1875" Velocity="71" />
      <note Length="0.03125" Pitch="53" RiffPosition="12.25" Velocity="31" />
      <note Length="0.09375" Pitch="53" RiffPosition="12.28125" Velocity="73" />
      <note Length="0.0234375" Pitch="53" RiffPosition="12.375" Velocity="78" />
      <note Length="0.0234375" Pitch="70" RiffPosition="12.3984375" Velocity="42" />
      <note Length="0.046875" Pitch="72" RiffPosition="12.421875" Velocity="48" />
      <note Length="0.03125" Pitch="68" RiffPosition="12.46875" Velocity="86" />
      <note Length="0.03125" Pitch="53" RiffPosition="12.5" Velocity="81" />
      <note Length="0.03125" Pitch="58" RiffPosition="12.53125" Velocity="37" />
      <note Length="0.015625" Pitch="55" RiffPosition="12.5625" Velocity="40" />
      <note Length="0.046875" Pitch="56" RiffPosition="12.578125" Velocity="33" />
      <note Length="0.03125" Pitch="65" RiffPosition="12.625" Velocity="41" />
      <note Length="0.03125" Pitch="72" RiffPosition="12.65625" Velocity="82" />
      <note Length="0.0625" Pitch="65" RiffPosition="12.6875" Velocity="72" />
      <note Length="0.03125" Pitch="53" RiffPosition="12.75" Velocity="60" />
      <note Length="0.09375" Pitch="60" RiffPosition="12.78125" Velocity="78" />
      <note Length="0.0234375" Pitch="67" RiffPosition="12.875" Velocity="61" />
      <note Length="0.0234375" Pitch="68" RiffPosition="12.8984375" Velocity="30" />
      <note Length="0.046875" Pitch="77" RiffPosition="12.921875" Velocity="33" />
      <note Length="0.03125" Pitch="70" RiffPosition="12.96875" Velocity="88" />
      <note Length="0.03125" Pitch="53" RiffPosition="13" Velocity="89" />
      <note Length="0.03125" Pitch="60" RiffPosition="13.03125" Velocity="50" />
      <note Length="0.015625" Pitch="41" RiffPosition="13.0625" Velocity="35" />
      <note Length="0.046875" Pitch="61" RiffPosition="13.078125" Velocity="43" />
      <note Length="0.03125" Pitch="68" RiffPosition="13.125" Velocity="56" />
      <note Length="0.03125" Pitch="72" RiffPosition="13.15625" Velocity="70" />
      <note Length="0.0625" Pitch="77" RiffPosition="13.1875" Velocity="65" />
      <note Length="0.03125" Pitch="65" RiffPosition="13.25" Velocity="42" />
      <note Length="0.09375" Pitch="55" RiffPosition="13.28125" Velocity="90" />
      <note Length="0.0234375" Pitch="53" RiffPosition="13.375" Velocity="35" />
      <note Length="0.0234375" Pitch="65" RiffPosition="13.3984375" Velocity="58" />
      <note Length="0.046875" Pitch="65" RiffPosition="13.421875" Velocity="61" />
      <note Length="0.03125" Pitch="70" RiffPosition="13.46875" Velocity="61" />
      <note Length="0.03125" Pitch="65" RiffPosition="13.5" Velocity="89" />
      <note Length="0.03125" Pitch="58" RiffPosition="13.53125" Velocity="31" />
      <note Length="0.015625" Pitch="58" RiffPosition="13.5625" Velocity="45" />
      <note Length="0.046875" Pitch="58" RiffPosition="13.578125" Velocity="56" />
      <note Length="0.03125" Pitch="67" RiffPosition="13.625" Velocity="56" />
      <note Length="0.03125" Pitch="65" RiffPosition="13.65625" Velocity="41" />
      <note Length="0.0625" Pitch="65" RiffPosition="13.6875" Velocity="54" />
      <note Length="0.03125" Pitch="53" RiffPosition="13.75" Velocity="34" />
      <note Length="0.09375" Pitch="58" RiffPosition="13.78125" Velocity="74" />
      <note Length="0.0234375" Pitch="68" RiffPosition="13.875" Velocity="39" />
      <note Length="0.0234375" Pitch="70" RiffPosition="13.8984375" Velocity="36" />
      <note Length="0.046875" Pitch="77" RiffPosition="13.921875" Velocity="67" />
      <note Length="0.03125" Pitch="67" RiffPosition="13.96875" Velocity="69" />
    </riff>
    <riff IsDrum="False" MidiInstrument="25" Tempo="117" Length="14">
      <note Length="0.0078125" Pitch="68" RiffPosition="0" Velocity="55" />
      <note Length="0.0234375" Pitch="63" RiffPosition="0.0078125" Velocity="72" />
      <note Length="0.03125" Pitch="63" RiffPosition="0.03125" Velocity="39" />
      <note Length="0.0625" Pitch="65" RiffPosition="0.0625" Velocity="80" />
      <note Length="0.0208333333333333" Pitch="63" RiffPosition="0.125" Velocity="92" />
      <note Length="0.0208333333333333" Pitch="63" RiffPosition="0.145833333333333" Velocity="87" />
      <note Length="0.0208333333333333" Pitch="65" RiffPosition="0.166666666666667" Velocity="48" />
      <note Length="0.0208333333333333" Pitch="56" RiffPosition="0.1875" Velocity="53" />
      <note Length="0.0208333333333333" Pitch="39" RiffPosition="0.208333333333333" Velocity="40" />
      <note Length="0.0208333333333333" Pitch="56" RiffPosition="0.229166666666667" Velocity="58" />
      <note Length="0.046875" Pitch="51" RiffPosition="0.25" Velocity="96" />
      <note Length="0.046875" Pitch="51" RiffPosition="0.296875" Velocity="53" />
      <note Length="0.015625" Pitch="59" RiffPosition="0.34375" Velocity="86" />
      <note Length="0.015625" Pitch="66" RiffPosition="0.359375" Velocity="34" />
      <note Length="0.03125" Pitch="63" RiffPosition="0.375" Velocity="54" />
      <note Length="0.03125" Pitch="63" RiffPosition="0.40625" Velocity="30" />
      <note Length="0.0625" Pitch="51" RiffPosition="0.4375" Velocity="80" />
      <note Length="0.0078125" Pitch="66" RiffPosition="0.5" Velocity="95" />
      <note Length="0.0234375" Pitch="66" RiffPosition="0.5078125" Velocity="126" />
      <note Length="0.03125" Pitch="63" RiffPosition="0.53125" Velocity="60" />
      <note Length="0.0625" Pitch="39" RiffPosition="0.5625" Velocity="76" />
      <note Length="0.0208333333333333" Pitch="66" RiffPosition="0.625" Velocity="81" />
      <note Length="0.0208333333333333" Pitch="63" RiffPosition="0.645833333333333" Velocity="65" />
      <note Length="0.0208333333333333" Pitch="68" RiffPosition="0.666666666666667" Velocity="37" />
      <note Length="0.0208333333333333" Pitch="63" RiffPosition="0.6875" Velocity="85" />
      <note Length="0.0208333333333333" Pitch="51" RiffPosition="0.708333333333333" Velocity="70" />
      <note Length="0.0208333333333333" Pitch="68" RiffPosition="0.729166666666667" Velocity="39" />
      <note Length="0.046875" Pitch="75" RiffPosition="0.75" Velocity="78" />
      <note Length="0.046875" Pitch="63" RiffPosition="0.796875" Velocity="33" />
      <note Length="0.015625" Pitch="56" RiffPosition="0.84375" Velocity="32" />
      <note Length="0.015625" Pitch="59" RiffPosition="0.859375" Velocity="51" />
      <note Length="0.03125" Pitch="51" RiffPosition="0.875" Velocity="89" />
      <note Length="0.03125" Pitch="51" RiffPosition="0.90625" Velocity="57" />
      <note Length="0.0625" Pitch="53" RiffPosition="0.9375" Velocity="79" />
      <note Length="0.0078125" Pitch="72" RiffPosition="1" Velocity="49" />
      <note Length="0.0234375" Pitch="65" RiffPosition="1.0078125" Velocity="87" />
      <note Length="0.03125" Pitch="65" RiffPosition="1.03125" Velocity="36" />
      <note Length="0.0625" Pitch="65" RiffPosition="1.0625" Velocity="94" />
      <note Length="0.0208333333333333" Pitch="65" RiffPosition="1.125" Velocity="97" />
      <note Length="0.0208333333333333" Pitch="77" RiffPosition="1.14583333333333" Velocity="102" />
      <note Length="0.0208333333333333" Pitch="68" RiffPosition="1.16666666666667" Velocity="63" />
      <note Length="0.0208333333333333" Pitch="58" RiffPosition="1.1875" Velocity="58" />
      <note Length="0.0208333333333333" Pitch="41" RiffPosition="1.20833333333333" Velocity="55" />
      <note Length="0.0208333333333333" Pitch="60" RiffPosition="1.22916666666667" Velocity="52" />
      <note Length="0.046875" Pitch="65" RiffPosition="1.25" Velocity="90" />
      <note Length="0.046875" Pitch="53" RiffPosition="1.296875" Velocity="67" />
      <note Length="0.015625" Pitch="60" RiffPosition="1.34375" Velocity="72" />
      <note Length="0.015625" Pitch="67" RiffPosition="1.359375" Velocity="48" />
      <note Length="0.03125" Pitch="65" RiffPosition="1.375" Velocity="59" />
      <note Length="0.03125" Pitch="65" RiffPosition="1.40625" Velocity="36" />
      <note Length="0.0625" Pitch="53" RiffPosition="1.4375" Velocity="94" />
      <note Length="0.0078125" Pitch="67" RiffPosition="1.5" Velocity="89" />
      <note Length="0.0234375" Pitch="68" RiffPosition="1.5078125" Velocity="111" />
      <note Length="0.03125" Pitch="65" RiffPosition="1.53125" Velocity="66" />
      <note Length="0.0625" Pitch="55" RiffPosition="1.5625" Velocity="62" />
      <note Length="0.0208333333333333" Pitch="68" RiffPosition="1.625" Velocity="75" />
      <note Length="0.0208333333333333" Pitch="65" RiffPosition="1.64583333333333" Velocity="59" />
      <note Length="0.0208333333333333" Pitch="68" RiffPosition="1.66666666666667" Velocity="52" />
      <note Length="0.0208333333333333" Pitch="65" RiffPosition="1.6875" Velocity="100" />
      <note Length="0.0208333333333333" Pitch="53" RiffPosition="1.70833333333333" Velocity="76" />
      <note Length="0.0208333333333333" Pitch="72" RiffPosition="1.72916666666667" Velocity="34" />
      <note Length="0.046875" Pitch="65" RiffPosition="1.75" Velocity="84" />
      <note Length="0.046875" Pitch="67" RiffPosition="1.796875" Velocity="39" />
      <note Length="0.015625" Pitch="56" RiffPosition="1.84375" Velocity="46" />
      <note Length="0.015625" Pitch="60" RiffPosition="1.859375" Velocity="56" />
      <note Length="0.03125" Pitch="53" RiffPosition="1.875" Velocity="84" />
      <note Length="0.03125" Pitch="61" RiffPosition="1.90625" Velocity="42" />
      <note Length="0.0625" Pitch="41" RiffPosition="1.9375" Velocity="94" />
      <note Length="0.0078125" Pitch="70" RiffPosition="2" Velocity="55" />
      <note Length="0.0234375" Pitch="63" RiffPosition="2.0078125" Velocity="72" />
      <note Length="0.03125" Pitch="63" RiffPosition="2.03125" Velocity="39" />
      <note Length="0.0625" Pitch="63" RiffPosition="2.0625" Velocity="100" />
      <note Length="0.0208333333333333" Pitch="75" RiffPosition="2.125" Velocity="92" />
      <note Length="0.0208333333333333" Pitch="63" RiffPosition="2.14583333333333" Velocity="87" />
      <note Length="0.0208333333333333" Pitch="65" RiffPosition="2.16666666666667" Velocity="48" />
      <note Length="0.0208333333333333" Pitch="58" RiffPosition="2.1875" Velocity="44" />
      <note Length="0.0208333333333333" Pitch="53" RiffPosition="2.20833333333333" Velocity="40" />
      <note Length="0.0208333333333333" Pitch="56" RiffPosition="2.22916666666667" Velocity="58" />
      <note Length="0.046875" Pitch="63" RiffPosition="2.25" Velocity="96" />
      <note Length="0.046875" Pitch="59" RiffPosition="2.296875" Velocity="53" />
      <note Length="0.015625" Pitch="51" RiffPosition="2.34375" Velocity="77" />
      <note Length="0.015625" Pitch="66" RiffPosition="2.359375" Velocity="34" />
      <note Length="0.03125" Pitch="70" RiffPosition="2.375" Velocity="54" />
      <note Length="0.03125" Pitch="63" RiffPosition="2.40625" Velocity="30" />
      <note Length="0.0625" Pitch="51" RiffPosition="2.4375" Velocity="80" />
      <note Length="0.0078125" Pitch="66" RiffPosition="2.5" Velocity="104" />
      <note Length="0.0234375" Pitch="68" RiffPosition="2.5078125" Velocity="126" />
      <note Length="0.03125" Pitch="51" RiffPosition="2.53125" Velocity="60" />
      <note Length="0.0625" Pitch="53" RiffPosition="2.5625" Velocity="76" />
      <note Length="0.0208333333333333" Pitch="66" RiffPosition="2.625" Velocity="81" />
      <note Length="0.0208333333333333" Pitch="63" RiffPosition="2.64583333333333" Velocity="65" />
      <note Length="0.0208333333333333" Pitch="68" RiffPosition="2.66666666666667" Velocity="37" />
      <note Length="0.0208333333333333" Pitch="63" RiffPosition="2.6875" Velocity="85" />
      <note Length="0.0208333333333333" Pitch="51" RiffPosition="2.70833333333333" Velocity="70" />
      <note Length="0.0208333333333333" Pitch="68" RiffPosition="2.72916666666667" Velocity="41" />
      <note Length="0.046875" Pitch="75" RiffPosition="2.75" Velocity="78" />
      <note Length="0.046875" Pitch="63" RiffPosition="2.796875" Velocity="33" />
      <note Length="0.015625" Pitch="56" RiffPosition="2.84375" Velocity="32" />
      <note Length="0.015625" Pitch="58" RiffPosition="2.859375" Velocity="51" />
      <note Length="0.03125" Pitch="51" RiffPosition="2.875" Velocity="89" />
      <note Length="0.03125" Pitch="51" RiffPosition="2.90625" Velocity="57" />
      <note Length="0.0625" Pitch="39" RiffPosition="2.9375" Velocity="79" />
      <note Length="0.0078125" Pitch="72" RiffPosition="3" Velocity="49" />
      <note Length="0.0234375" Pitch="65" RiffPosition="3.0078125" Velocity="67" />
      <note Length="0.03125" Pitch="65" RiffPosition="3.03125" Velocity="36" />
      <note Length="0.0625" Pitch="65" RiffPosition="3.0625" Velocity="85" />
      <note Length="0.0208333333333333" Pitch="65" RiffPosition="3.125" Velocity="97" />
      <note Length="0.0208333333333333" Pitch="77" RiffPosition="3.14583333333333" Velocity="102" />
      <note Length="0.0208333333333333" Pitch="68" RiffPosition="3.16666666666667" Velocity="43" />
      <note Length="0.0208333333333333" Pitch="58" RiffPosition="3.1875" Velocity="58" />
      <note Length="0.0208333333333333" Pitch="41" RiffPosition="3.20833333333333" Velocity="55" />
      <note Length="0.0208333333333333" Pitch="60" RiffPosition="3.22916666666667" Velocity="52" />
      <note Length="0.046875" Pitch="53" RiffPosition="3.25" Velocity="90" />
      <note Length="0.046875" Pitch="53" RiffPosition="3.296875" Velocity="58" />
      <note Length="0.015625" Pitch="61" RiffPosition="3.34375" Velocity="72" />
      <note Length="0.015625" Pitch="67" RiffPosition="3.359375" Velocity="48" />
      <note Length="0.03125" Pitch="65" RiffPosition="3.375" Velocity="68" />
      <note Length="0.03125" Pitch="65" RiffPosition="3.40625" Velocity="36" />
      <note Length="0.0625" Pitch="53" RiffPosition="3.4375" Velocity="94" />
      <note Length="0.0078125" Pitch="67" RiffPosition="3.5" Velocity="89" />
      <note Length="0.0234375" Pitch="68" RiffPosition="3.5078125" Velocity="111" />
      <note Length="0.03125" Pitch="65" RiffPosition="3.53125" Velocity="74" />
      <note Length="0.0625" Pitch="55" RiffPosition="3.5625" Velocity="61" />
      <note Length="0.0208333333333333" Pitch="68" RiffPosition="3.625" Velocity="75" />
      <note Length="0.0208333333333333" Pitch="65" RiffPosition="3.64583333333334" Velocity="59" />
      <note Length="0.0208333333333333" Pitch="68" RiffPosition="3.66666666666667" Velocity="51" />
      <note Length="0.0208333333333333" Pitch="65" RiffPosition="3.6875" Velocity="100" />
      <note Length="0.0208333333333333" Pitch="53" RiffPosition="3.70833333333334" Velocity="76" />
      <note Length="0.0208333333333333" Pitch="70" RiffPosition="3.72916666666667" Velocity="34" />
      <note Length="0.046875" Pitch="77" RiffPosition="3.75" Velocity="84" />
      <note Length="0.046875" Pitch="68" RiffPosition="3.796875" Velocity="39" />
      <note Length="0.015625" Pitch="56" RiffPosition="3.84375" Velocity="46" />
      <note Length="0.015625" Pitch="61" RiffPosition="3.859375" Velocity="65" />
      <note Length="0.03125" Pitch="53" RiffPosition="3.875" Velocity="84" />
      <note Length="0.03125" Pitch="61" RiffPosition="3.90625" Velocity="42" />
      <note Length="0.0625" Pitch="41" RiffPosition="3.9375" Velocity="85" />
      <note Length="0.0078125" Pitch="70" RiffPosition="4" Velocity="55" />
      <note Length="0.0234375" Pitch="65" RiffPosition="4.0078125" Velocity="72" />
      <note Length="0.03125" Pitch="65" RiffPosition="4.03125" Velocity="39" />
      <note Length="0.0625" Pitch="65" RiffPosition="4.0625" Velocity="100" />
      <note Length="0.0208333333333333" Pitch="65" RiffPosition="4.125" Velocity="92" />
      <note Length="0.0208333333333333" Pitch="77" RiffPosition="4.14583333333334" Velocity="88" />
      <note Length="0.0208333333333333" Pitch="67" RiffPosition="4.16666666666667" Velocity="49" />
      <note Length="0.0208333333333333" Pitch="60" RiffPosition="4.1875" Velocity="44" />
      <note Length="0.0208333333333333" Pitch="41" RiffPosition="4.20833333333333" Velocity="40" />
      <note Length="0.0208333333333333" Pitch="58" RiffPosition="4.22916666666667" Velocity="58" />
      <note Length="0.046875" Pitch="65" RiffPosition="4.25" Velocity="105" />
      <note Length="0.046875" Pitch="61" RiffPosition="4.296875" Velocity="53" />
      <note Length="0.015625" Pitch="53" RiffPosition="4.34375" Velocity="77" />
      <note Length="0.015625" Pitch="68" RiffPosition="4.359375" Velocity="34" />
      <note Length="0.03125" Pitch="65" RiffPosition="4.375" Velocity="54" />
      <note Length="0.03125" Pitch="65" RiffPosition="4.40625" Velocity="30" />
      <note Length="0.0625" Pitch="53" RiffPosition="4.4375" Velocity="80" />
      <note Length="0.0078125" Pitch="68" RiffPosition="4.5" Velocity="84" />
      <note Length="0.0234375" Pitch="70" RiffPosition="4.5078125" Velocity="126" />
      <note Length="0.03125" Pitch="53" RiffPosition="4.53125" Velocity="60" />
      <note Length="0.0625" Pitch="55" RiffPosition="4.5625" Velocity="76" />
      <note Length="0.0208333333333333" Pitch="68" RiffPosition="4.625" Velocity="81" />
      <note Length="0.0208333333333333" Pitch="65" RiffPosition="4.64583333333333" Velocity="74" />
      <note Length="0.0208333333333333" Pitch="70" RiffPosition="4.66666666666667" Velocity="37" />
      <note Length="0.0208333333333333" Pitch="53" RiffPosition="4.6875" Velocity="85" />
      <note Length="0.0208333333333333" Pitch="53" RiffPosition="4.70833333333333" Velocity="90" />
      <note Length="0.0208333333333333" Pitch="70" RiffPosition="4.72916666666667" Velocity="32" />
      <note Length="0.046875" Pitch="77" RiffPosition="4.75" Velocity="78" />
      <note Length="0.046875" Pitch="67" RiffPosition="4.796875" Velocity="33" />
      <note Length="0.015625" Pitch="55" RiffPosition="4.84375" Velocity="31" />
      <note Length="0.015625" Pitch="60" RiffPosition="4.859375" Velocity="51" />
      <note Length="0.03125" Pitch="53" RiffPosition="4.875" Velocity="89" />
      <note Length="0.03125" Pitch="53" RiffPosition="4.90625" Velocity="57" />
      <note Length="0.0625" Pitch="41" RiffPosition="4.9375" Velocity="99" />
      <note Length="0.0078125" Pitch="70" RiffPosition="5" Velocity="49" />
      <note Length="0.0234375" Pitch="65" RiffPosition="5.0078125" Velocity="67" />
      <note Length="0.03125" Pitch="65" RiffPosition="5.03125" Velocity="36" />
      <note Length="0.0625" Pitch="67" RiffPosition="5.0625" Velocity="85" />
      <note Length="0.0208333333333333" Pitch="65" RiffPosition="5.125" Velocity="106" />
      <note Length="0.0208333333333333" Pitch="77" RiffPosition="5.14583333333333" Velocity="102" />
      <note Length="0.0208333333333333" Pitch="65" RiffPosition="5.16666666666667" Velocity="43" />
      <note Length="0.0208333333333333" Pitch="58" RiffPosition="5.1875" Velocity="58" />
      <note Length="0.0208333333333333" Pitch="41" RiffPosition="5.20833333333333" Velocity="46" />
      <note Length="0.0208333333333333" Pitch="60" RiffPosition="5.22916666666666" Velocity="52" />
      <note Length="0.046875" Pitch="53" RiffPosition="5.25" Velocity="90" />
      <note Length="0.046875" Pitch="53" RiffPosition="5.296875" Velocity="58" />
      <note Length="0.015625" Pitch="61" RiffPosition="5.34375" Velocity="72" />
      <note Length="0.015625" Pitch="68" RiffPosition="5.359375" Velocity="48" />
      <note Length="0.03125" Pitch="65" RiffPosition="5.375" Velocity="48" />
      <note Length="0.03125" Pitch="65" RiffPosition="5.40625" Velocity="36" />
      <note Length="0.0625" Pitch="53" RiffPosition="5.4375" Velocity="94" />
      <note Length="0.0078125" Pitch="67" RiffPosition="5.5" Velocity="89" />
      <note Length="0.0234375" Pitch="68" RiffPosition="5.5078125" Velocity="111" />
      <note Length="0.03125" Pitch="65" RiffPosition="5.53125" Velocity="75" />
      <note Length="0.0625" Pitch="41" RiffPosition="5.5625" Velocity="61" />
      <note Length="0.0208333333333333" Pitch="70" RiffPosition="5.625" Velocity="75" />
      <note Length="0.0208333333333333" Pitch="65" RiffPosition="5.64583333333333" Velocity="59" />
      <note Length="0.0208333333333333" Pitch="70" RiffPosition="5.66666666666666" Velocity="51" />
      <note Length="0.0208333333333333" Pitch="65" RiffPosition="5.6875" Velocity="91" />
      <note Length="0.0208333333333333" Pitch="53" RiffPosition="5.70833333333333" Velocity="76" />
      <note Length="0.0208333333333333" Pitch="70" RiffPosition="5.72916666666666" Velocity="34" />
      <note Length="0.046875" Pitch="77" RiffPosition="5.75" Velocity="84" />
      <note Length="0.046875" Pitch="65" RiffPosition="5.796875" Velocity="39" />
      <note Length="0.015625" Pitch="56" RiffPosition="5.84375" Velocity="37" />
      <note Length="0.015625" Pitch="61" RiffPosition="5.859375" Velocity="65" />
      <note Length="0.03125" Pitch="53" RiffPosition="5.875" Velocity="84" />
      <note Length="0.03125" Pitch="61" RiffPosition="5.90625" Velocity="42" />
      <note Length="0.0625" Pitch="41" RiffPosition="5.9375" Velocity="85" />
      <note Length="0.0078125" Pitch="70" RiffPosition="6" Velocity="64" />
      <note Length="0.0234375" Pitch="65" RiffPosition="6.0078125" Velocity="81" />
      <note Length="0.03125" Pitch="65" RiffPosition="6.03125" Velocity="39" />
      <note Length="0.0625" Pitch="65" RiffPosition="6.0625" Velocity="100" />
      <note Length="0.0208333333333333" Pitch="65" RiffPosition="6.125" Velocity="92" />
      <note Length="0.0208333333333333" Pitch="77" RiffPosition="6.14583333333333" Velocity="88" />
      <note Length="0.0208333333333333" Pitch="68" RiffPosition="6.16666666666666" Velocity="57" />
      <note Length="0.0208333333333333" Pitch="60" RiffPosition="6.18749999999999" Velocity="44" />
      <note Length="0.0208333333333333" Pitch="41" RiffPosition="6.20833333333333" Velocity="40" />
      <note Length="0.0208333333333333" Pitch="60" RiffPosition="6.22916666666666" Velocity="58" />
      <note Length="0.046875" Pitch="65" RiffPosition="6.24999999999999" Velocity="105" />
      <note Length="0.046875" Pitch="61" RiffPosition="6.29687499999999" Velocity="53" />
      <note Length="0.015625" Pitch="53" RiffPosition="6.34374999999999" Velocity="77" />
      <note Length="0.015625" Pitch="67" RiffPosition="6.35937499999999" Velocity="33" />
      <note Length="0.03125" Pitch="65" RiffPosition="6.37499999999999" Velocity="54" />
      <note Length="0.03125" Pitch="65" RiffPosition="6.40624999999999" Velocity="39" />
      <note Length="0.0625" Pitch="53" RiffPosition="6.43749999999999" Velocity="80" />
      <note Length="0.0078125" Pitch="68" RiffPosition="6.49999999999999" Velocity="84" />
      <note Length="0.0234375" Pitch="70" RiffPosition="6.50781249999999" Velocity="126" />
      <note Length="0.03125" Pitch="65" RiffPosition="6.53124999999999" Velocity="60" />
      <note Length="0.0625" Pitch="55" RiffPosition="6.56249999999999" Velocity="67" />
      <note Length="0.0208333333333333" Pitch="68" RiffPosition="6.62499999999999" Velocity="81" />
      <note Length="0.0208333333333333" Pitch="65" RiffPosition="6.64583333333333" Velocity="74" />
      <note Length="0.0208333333333333" Pitch="70" RiffPosition="6.66666666666666" Velocity="37" />
      <note Length="0.0208333333333333" Pitch="53" RiffPosition="6.68749999999999" Velocity="85" />
      <note Length="0.0208333333333333" Pitch="53" RiffPosition="6.70833333333333" Velocity="90" />
      <note Length="0.0208333333333333" Pitch="70" RiffPosition="6.72916666666666" Velocity="32" />
      <note Length="0.046875" Pitch="65" RiffPosition="6.74999999999999" Velocity="78" />
      <note Length="0.046875" Pitch="67" RiffPosition="6.79687499999999" Velocity="36" />
      <note Length="0.015625" Pitch="55" RiffPosition="6.84374999999999" Velocity="31" />
      <note Length="0.015625" Pitch="60" RiffPosition="6.85937499999999" Velocity="51" />
      <note Length="0.03125" Pitch="53" RiffPosition="6.87499999999999" Velocity="98" />
      <note Length="0.03125" Pitch="53" RiffPosition="6.90624999999999" Velocity="57" />
      <note Length="0.0625" Pitch="41" RiffPosition="6.93749999999999" Velocity="99" />
      <note Length="0.0078125" Pitch="70" RiffPosition="6.99999999999999" Velocity="49" />
      <note Length="0.0234375" Pitch="65" RiffPosition="7.00781249999999" Velocity="67" />
      <note Length="0.03125" Pitch="65" RiffPosition="7.03124999999999" Velocity="36" />
      <note Length="0.0625" Pitch="67" RiffPosition="7.06249999999999" Velocity="85" />
      <note Length="0.0208333333333333" Pitch="65" RiffPosition="7.12499999999999" Velocity="106" />
      <note Length="0.0208333333333333" Pitch="79" RiffPosition="7.14583333333333" Velocity="82" />
      <note Length="0.0208333333333333" Pitch="67" RiffPosition="7.16666666666666" Velocity="43" />
      <note Length="0.0208333333333333" Pitch="58" RiffPosition="7.18749999999999" Velocity="58" />
      <note Length="0.0208333333333333" Pitch="41" RiffPosition="7.20833333333332" Velocity="46" />
      <note Length="0.0208333333333333" Pitch="58" RiffPosition="7.22916666666666" Velocity="52" />
      <note Length="0.046875" Pitch="53" RiffPosition="7.24999999999999" Velocity="90" />
      <note Length="0.046875" Pitch="53" RiffPosition="7.29687499999999" Velocity="58" />
      <note Length="0.015625" Pitch="61" RiffPosition="7.34374999999999" Velocity="72" />
      <note Length="0.015625" Pitch="68" RiffPosition="7.35937499999999" Velocity="39" />
      <note Length="0.03125" Pitch="65" RiffPosition="7.37499999999999" Velocity="48" />
      <note Length="0.03125" Pitch="65" RiffPosition="7.40624999999999" Velocity="36" />
      <note Length="0.0625" Pitch="53" RiffPosition="7.43749999999999" Velocity="85" />
      <note Length="0.0078125" Pitch="68" RiffPosition="7.49999999999999" Velocity="90" />
      <note Length="0.0234375" Pitch="68" RiffPosition="7.50781249999999" Velocity="111" />
      <note Length="0.03125" Pitch="65" RiffPosition="7.53124999999999" Velocity="75" />
      <note Length="0.0625" Pitch="41" RiffPosition="7.56249999999999" Velocity="61" />
      <note Length="0.0208333333333333" Pitch="67" RiffPosition="7.62499999999999" Velocity="75" />
      <note Length="0.0208333333333333" Pitch="65" RiffPosition="7.64583333333332" Velocity="59" />
      <note Length="0.0208333333333333" Pitch="70" RiffPosition="7.66666666666666" Velocity="51" />
      <note Length="0.0208333333333333" Pitch="65" RiffPosition="7.68749999999999" Velocity="91" />
      <note Length="0.0208333333333333" Pitch="53" RiffPosition="7.70833333333332" Velocity="76" />
      <note Length="0.0208333333333333" Pitch="70" RiffPosition="7.72916666666666" Velocity="34" />
      <note Length="0.046875" Pitch="77" RiffPosition="7.74999999999999" Velocity="93" />
      <note Length="0.046875" Pitch="65" RiffPosition="7.79687499999999" Velocity="38" />
      <note Length="0.015625" Pitch="58" RiffPosition="7.84374999999999" Velocity="37" />
      <note Length="0.015625" Pitch="61" RiffPosition="7.85937499999999" Velocity="65" />
      <note Length="0.03125" Pitch="53" RiffPosition="7.87499999999999" Velocity="84" />
      <note Length="0.03125" Pitch="53" RiffPosition="7.90624999999999" Velocity="43" />
      <note Length="0.0625" Pitch="41" RiffPosition="7.93749999999999" Velocity="85" />
      <note Length="0.0078125" Pitch="70" RiffPosition="7.99999999999999" Velocity="64" />
      <note Length="0.0234375" Pitch="63" RiffPosition="8.00781249999999" Velocity="0" />
      <note Length="0.03125" Pitch="63" RiffPosition="8.03124999999999" Velocity="0" />
      <note Length="0.0625" Pitch="63" RiffPosition="8.06249999999999" Velocity="0" />
      <note Length="0.0208333333333333" Pitch="63" RiffPosition="8.12499999999999" Velocity="0" />
      <note Length="0.0208333333333333" Pitch="75" RiffPosition="8.14583333333332" Velocity="0" />
      <note Length="0.0208333333333333" Pitch="66" RiffPosition="8.16666666666666" Velocity="0" />
      <note Length="0.0208333333333333" Pitch="56" RiffPosition="8.18749999999999" Velocity="0" />
      <note Length="0.0208333333333333" Pitch="39" RiffPosition="8.20833333333333" Velocity="0" />
      <note Length="0.0208333333333333" Pitch="58" RiffPosition="8.22916666666666" Velocity="0" />
      <note Length="0.046875" Pitch="63" RiffPosition="8.24999999999999" Velocity="0" />
      <note Length="0.046875" Pitch="51" RiffPosition="8.29687499999999" Velocity="0" />
      <note Length="0.015625" Pitch="58" RiffPosition="8.34374999999999" Velocity="0" />
      <note Length="0.015625" Pitch="65" RiffPosition="8.35937499999999" Velocity="0" />
      <note Length="0.03125" Pitch="63" RiffPosition="8.37499999999999" Velocity="0" />
      <note Length="0.03125" Pitch="63" RiffPosition="8.40624999999999" Velocity="0" />
      <note Length="0.0625" Pitch="51" RiffPosition="8.43749999999999" Velocity="0" />
      <note Length="0.0078125" Pitch="65" RiffPosition="8.49999999999999" Velocity="0" />
      <note Length="0.0234375" Pitch="66" RiffPosition="8.50781249999999" Velocity="0" />
      <note Length="0.03125" Pitch="63" RiffPosition="8.53124999999999" Velocity="0" />
      <note Length="0.0625" Pitch="53" RiffPosition="8.56249999999999" Velocity="0" />
      <note Length="0.0208333333333333" Pitch="66" RiffPosition="8.62499999999999" Velocity="0" />
      <note Length="0.0208333333333333" Pitch="63" RiffPosition="8.64583333333333" Velocity="0" />
      <note Length="0.0208333333333333" Pitch="66" RiffPosition="8.66666666666666" Velocity="0" />
      <note Length="0.0208333333333333" Pitch="51" RiffPosition="8.68749999999999" Velocity="0" />
      <note Length="0.0208333333333333" Pitch="51" RiffPosition="8.70833333333333" Velocity="0" />
      <note Length="0.0208333333333333" Pitch="70" RiffPosition="8.72916666666666" Velocity="0" />
      <note Length="0.046875" Pitch="63" RiffPosition="8.75" Velocity="0" />
      <note Length="0.046875" Pitch="65" RiffPosition="8.796875" Velocity="0" />
      <note Length="0.015625" Pitch="54" RiffPosition="8.84375" Velocity="0" />
      <note Length="0.015625" Pitch="58" RiffPosition="8.859375" Velocity="0" />
      <note Length="0.03125" Pitch="51" RiffPosition="8.875" Velocity="0" />
      <note Length="0.03125" Pitch="59" RiffPosition="8.90625" Velocity="0" />
      <note Length="0.0625" Pitch="39" RiffPosition="8.9375" Velocity="0" />
      <note Length="0.0078125" Pitch="68" RiffPosition="9" Velocity="0" />
      <note Length="0.0234375" Pitch="65" RiffPosition="9.0078125" Velocity="0" />
      <note Length="0.03125" Pitch="65" RiffPosition="9.03125" Velocity="0" />
      <note Length="0.0625" Pitch="65" RiffPosition="9.0625" Velocity="0" />
      <note Length="0.0208333333333333" Pitch="77" RiffPosition="9.125" Velocity="0" />
      <note Length="0.0208333333333333" Pitch="65" RiffPosition="9.14583333333333" Velocity="0" />
      <note Length="0.0208333333333333" Pitch="67" RiffPosition="9.16666666666666" Velocity="0" />
      <note Length="0.0208333333333333" Pitch="60" RiffPosition="9.1875" Velocity="0" />
      <note Length="0.0208333333333333" Pitch="55" RiffPosition="9.20833333333333" Velocity="0" />
      <note Length="0.0208333333333333" Pitch="58" RiffPosition="9.22916666666667" Velocity="0" />
      <note Length="0.046875" Pitch="53" RiffPosition="9.25" Velocity="0" />
      <note Length="0.046875" Pitch="61" RiffPosition="9.296875" Velocity="0" />
      <note Length="0.015625" Pitch="53" RiffPosition="9.34375" Velocity="0" />
      <note Length="0.015625" Pitch="68" RiffPosition="9.359375" Velocity="0" />
      <note Length="0.03125" Pitch="72" RiffPosition="9.375" Velocity="0" />
      <note Length="0.03125" Pitch="65" RiffPosition="9.40625" Velocity="0" />
      <note Length="0.0625" Pitch="53" RiffPosition="9.4375" Velocity="0" />
      <note Length="0.0078125" Pitch="68" RiffPosition="9.5" Velocity="0" />
      <note Length="0.0234375" Pitch="68" RiffPosition="9.5078125" Velocity="0" />
      <note Length="0.03125" Pitch="65" RiffPosition="9.53125" Velocity="0" />
      <note Length="0.0625" Pitch="55" RiffPosition="9.5625" Velocity="0" />
      <note Length="0.0208333333333333" Pitch="68" RiffPosition="9.625" Velocity="0" />
      <note Length="0.0208333333333333" Pitch="65" RiffPosition="9.64583333333333" Velocity="0" />
      <note Length="0.0208333333333333" Pitch="70" RiffPosition="9.66666666666667" Velocity="0" />
      <note Length="0.0208333333333333" Pitch="65" RiffPosition="9.6875" Velocity="0" />
      <note Length="0.0208333333333333" Pitch="53" RiffPosition="9.70833333333334" Velocity="0" />
      <note Length="0.0208333333333333" Pitch="70" RiffPosition="9.72916666666667" Velocity="0" />
      <note Length="0.046875" Pitch="77" RiffPosition="9.75" Velocity="0" />
      <note Length="0.046875" Pitch="65" RiffPosition="9.796875" Velocity="0" />
      <note Length="0.015625" Pitch="58" RiffPosition="9.84375" Velocity="0" />
      <note Length="0.015625" Pitch="60" RiffPosition="9.859375" Velocity="0" />
      <note Length="0.03125" Pitch="53" RiffPosition="9.875" Velocity="0" />
      <note Length="0.03125" Pitch="53" RiffPosition="9.90625" Velocity="0" />
      <note Length="0.0625" Pitch="41" RiffPosition="9.9375" Velocity="0" />
      <note Length="0.0078125" Pitch="70" RiffPosition="10" Velocity="0" />
      <note Length="0.0234375" Pitch="63" RiffPosition="10.0078125" Velocity="0" />
      <note Length="0.03125" Pitch="63" RiffPosition="10.03125" Velocity="0" />
      <note Length="0.0625" Pitch="63" RiffPosition="10.0625" Velocity="0" />
      <note Length="0.0208333333333333" Pitch="63" RiffPosition="10.125" Velocity="0" />
      <note Length="0.0208333333333333" Pitch="75" RiffPosition="10.1458333333333" Velocity="0" />
      <note Length="0.0208333333333333" Pitch="66" RiffPosition="10.1666666666667" Velocity="0" />
      <note Length="0.0208333333333333" Pitch="56" RiffPosition="10.1875" Velocity="0" />
      <note Length="0.0208333333333333" Pitch="39" RiffPosition="10.2083333333333" Velocity="0" />
      <note Length="0.0208333333333333" Pitch="58" RiffPosition="10.2291666666667" Velocity="0" />
      <note Length="0.046875" Pitch="63" RiffPosition="10.25" Velocity="0" />
      <note Length="0.046875" Pitch="51" RiffPosition="10.296875" Velocity="0" />
      <note Length="0.015625" Pitch="59" RiffPosition="10.34375" Velocity="0" />
      <note Length="0.015625" Pitch="65" RiffPosition="10.359375" Velocity="0" />
      <note Length="0.03125" Pitch="63" RiffPosition="10.375" Velocity="0" />
      <note Length="0.03125" Pitch="63" RiffPosition="10.40625" Velocity="0" />
      <note Length="0.0625" Pitch="51" RiffPosition="10.4375" Velocity="0" />
      <note Length="0.0078125" Pitch="65" RiffPosition="10.5" Velocity="0" />
      <note Length="0.0234375" Pitch="66" RiffPosition="10.5078125" Velocity="0" />
      <note Length="0.03125" Pitch="63" RiffPosition="10.53125" Velocity="0" />
      <note Length="0.0625" Pitch="53" RiffPosition="10.5625" Velocity="0" />
      <note Length="0.0208333333333333" Pitch="66" RiffPosition="10.625" Velocity="0" />
      <note Length="0.0208333333333333" Pitch="63" RiffPosition="10.6458333333333" Velocity="0" />
      <note Length="0.0208333333333333" Pitch="66" RiffPosition="10.6666666666667" Velocity="0" />
      <note Length="0.0208333333333333" Pitch="63" RiffPosition="10.6875" Velocity="0" />
      <note Length="0.0208333333333333" Pitch="51" RiffPosition="10.7083333333333" Velocity="0" />
      <note Length="0.0208333333333333" Pitch="68" RiffPosition="10.7291666666667" Velocity="0" />
      <note Length="0.046875" Pitch="75" RiffPosition="10.75" Velocity="0" />
      <note Length="0.046875" Pitch="66" RiffPosition="10.796875" Velocity="0" />
      <note Length="0.015625" Pitch="54" RiffPosition="10.84375" Velocity="0" />
      <note Length="0.015625" Pitch="58" RiffPosition="10.859375" Velocity="0" />
      <note Length="0.03125" Pitch="51" RiffPosition="10.875" Velocity="0" />
      <note Length="0.03125" Pitch="59" RiffPosition="10.90625" Velocity="0" />
      <note Length="0.0625" Pitch="39" RiffPosition="10.9375" Velocity="0" />
      <note Length="0.0078125" Pitch="71" RiffPosition="11" Velocity="0" />
      <note Length="0.0234375" Pitch="66" RiffPosition="11.0078125" Velocity="0" />
      <note Length="0.03125" Pitch="66" RiffPosition="11.03125" Velocity="0" />
      <note Length="0.0625" Pitch="66" RiffPosition="11.0625" Velocity="0" />
      <note Length="0.0208333333333333" Pitch="78" RiffPosition="11.125" Velocity="0" />
      <note Length="0.0208333333333333" Pitch="78" RiffPosition="11.1458333333333" Velocity="0" />
      <note Length="0.0208333333333333" Pitch="68" RiffPosition="11.1666666666667" Velocity="0" />
      <note Length="0.0208333333333333" Pitch="61" RiffPosition="11.1875" Velocity="0" />
      <note Length="0.0208333333333333" Pitch="42" RiffPosition="11.2083333333333" Velocity="0" />
      <note Length="0.0208333333333333" Pitch="59" RiffPosition="11.2291666666667" Velocity="0" />
      <note Length="0.046875" Pitch="66" RiffPosition="11.25" Velocity="0" />
      <note Length="0.046875" Pitch="62" RiffPosition="11.296875" Velocity="0" />
      <note Length="0.015625" Pitch="54" RiffPosition="11.34375" Velocity="0" />
      <note Length="0.015625" Pitch="69" RiffPosition="11.359375" Velocity="0" />
      <note Length="0.03125" Pitch="66" RiffPosition="11.375" Velocity="0" />
      <note Length="0.03125" Pitch="66" RiffPosition="11.40625" Velocity="0" />
      <note Length="0.0625" Pitch="54" RiffPosition="11.4375" Velocity="0" />
      <note Length="0.0078125" Pitch="69" RiffPosition="11.5" Velocity="0" />
      <note Length="0.0234375" Pitch="71" RiffPosition="11.5078125" Velocity="0" />
      <note Length="0.03125" Pitch="54" RiffPosition="11.53125" Velocity="0" />
      <note Length="0.0625" Pitch="56" RiffPosition="11.5625" Velocity="0" />
      <note Length="0.0208333333333333" Pitch="69" RiffPosition="11.625" Velocity="0" />
      <note Length="0.0208333333333333" Pitch="66" RiffPosition="11.6458333333333" Velocity="0" />
      <note Length="0.0208333333333333" Pitch="71" RiffPosition="11.6666666666667" Velocity="0" />
      <note Length="0.0208333333333333" Pitch="54" RiffPosition="11.6875" Velocity="0" />
      <note Length="0.0208333333333333" Pitch="54" RiffPosition="11.7083333333333" Velocity="0" />
      <note Length="0.0208333333333333" Pitch="71" RiffPosition="11.7291666666667" Velocity="0" />
      <note Length="0.046875" Pitch="78" RiffPosition="11.75" Velocity="0" />
      <note Length="0.046875" Pitch="66" RiffPosition="11.796875" Velocity="0" />
      <note Length="0.015625" Pitch="56" RiffPosition="11.84375" Velocity="0" />
      <note Length="0.015625" Pitch="61" RiffPosition="11.859375" Velocity="0" />
      <note Length="0.03125" Pitch="54" RiffPosition="11.875" Velocity="0" />
      <note Length="0.03125" Pitch="54" RiffPosition="11.90625" Velocity="0" />
      <note Length="0.0625" Pitch="42" RiffPosition="11.9375" Velocity="0" />
      <note Length="0.0078125" Pitch="72" RiffPosition="12" Velocity="44" />
      <note Length="0.0234375" Pitch="65" RiffPosition="12.0078125" Velocity="82" />
      <note Length="0.03125" Pitch="65" RiffPosition="12.03125" Velocity="41" />
      <note Length="0.0625" Pitch="67" RiffPosition="12.0625" Velocity="91" />
      <note Length="0.0208333333333333" Pitch="65" RiffPosition="12.125" Velocity="92" />
      <note Length="0.0208333333333333" Pitch="77" RiffPosition="12.1458333333334" Velocity="97" />
      <note Length="0.0208333333333333" Pitch="65" RiffPosition="12.1666666666667" Velocity="58" />
      <note Length="0.0208333333333333" Pitch="58" RiffPosition="12.1875" Velocity="44" />
      <note Length="0.0208333333333333" Pitch="41" RiffPosition="12.2083333333334" Velocity="31" />
      <note Length="0.0208333333333333" Pitch="60" RiffPosition="12.2291666666667" Velocity="47" />
      <note Length="0.046875" Pitch="53" RiffPosition="12.25" Velocity="85" />
      <note Length="0.046875" Pitch="53" RiffPosition="12.296875" Velocity="43" />
      <note Length="0.015625" Pitch="61" RiffPosition="12.34375" Velocity="77" />
      <note Length="0.015625" Pitch="68" RiffPosition="12.359375" Velocity="53" />
      <note Length="0.03125" Pitch="65" RiffPosition="12.375" Velocity="63" />
      <note Length="0.03125" Pitch="65" RiffPosition="12.40625" Velocity="39" />
      <note Length="0.0625" Pitch="53" RiffPosition="12.4375" Velocity="99" />
      <note Length="0.0078125" Pitch="67" RiffPosition="12.5" Velocity="84" />
      <note Length="0.0234375" Pitch="68" RiffPosition="12.5078125" Velocity="106" />
      <note Length="0.03125" Pitch="65" RiffPosition="12.53125" Velocity="69" />
      <note Length="0.0625" Pitch="41" RiffPosition="12.5625" Velocity="67" />
      <note Length="0.0208333333333333" Pitch="70" RiffPosition="12.625" Velocity="90" />
      <note Length="0.0208333333333333" Pitch="65" RiffPosition="12.6458333333334" Velocity="74" />
      <note Length="0.0208333333333333" Pitch="70" RiffPosition="12.6666666666667" Velocity="57" />
      <note Length="0.0208333333333333" Pitch="65" RiffPosition="12.6875" Velocity="96" />
      <note Length="0.0208333333333333" Pitch="53" RiffPosition="12.7083333333334" Velocity="81" />
      <note Length="0.0208333333333333" Pitch="70" RiffPosition="12.7291666666667" Velocity="31" />
      <note Length="0.046875" Pitch="77" RiffPosition="12.75" Velocity="78" />
      <note Length="0.046875" Pitch="65" RiffPosition="12.796875" Velocity="44" />
      <note Length="0.015625" Pitch="56" RiffPosition="12.84375" Velocity="38" />
      <note Length="0.015625" Pitch="61" RiffPosition="12.859375" Velocity="60" />
      <note Length="0.03125" Pitch="53" RiffPosition="12.875" Velocity="78" />
      <note Length="0.03125" Pitch="61" RiffPosition="12.90625" Velocity="37" />
      <note Length="0.0625" Pitch="41" RiffPosition="12.9375" Velocity="90" />
      <note Length="0.0078125" Pitch="70" RiffPosition="13" Velocity="50" />
      <note Length="0.0234375" Pitch="65" RiffPosition="13.0078125" Velocity="76" />
      <note Length="0.03125" Pitch="65" RiffPosition="13.03125" Velocity="33" />
      <note Length="0.0625" Pitch="65" RiffPosition="13.0625" Velocity="85" />
      <note Length="0.0208333333333333" Pitch="65" RiffPosition="13.125" Velocity="87" />
      <note Length="0.0208333333333333" Pitch="77" RiffPosition="13.1458333333334" Velocity="82" />
      <note Length="0.0208333333333333" Pitch="68" RiffPosition="13.1666666666667" Velocity="52" />
      <note Length="0.0208333333333333" Pitch="60" RiffPosition="13.1875" Velocity="49" />
      <note Length="0.0208333333333333" Pitch="41" RiffPosition="13.2083333333334" Velocity="46" />
      <note Length="0.0208333333333333" Pitch="60" RiffPosition="13.2291666666667" Velocity="53" />
      <note Length="0.046875" Pitch="65" RiffPosition="13.25" Velocity="99" />
      <note Length="0.046875" Pitch="61" RiffPosition="13.296875" Velocity="58" />
      <note Length="0.015625" Pitch="53" RiffPosition="13.34375" Velocity="83" />
      <note Length="0.015625" Pitch="67" RiffPosition="13.359375" Velocity="39" />
      <note Length="0.03125" Pitch="65" RiffPosition="13.375" Velocity="48" />
      <note Length="0.03125" Pitch="65" RiffPosition="13.40625" Velocity="33" />
      <note Length="0.0625" Pitch="53" RiffPosition="13.4375" Velocity="85" />
      <note Length="0.0078125" Pitch="68" RiffPosition="13.5" Velocity="99" />
      <note Length="0.0234375" Pitch="70" RiffPosition="13.5078125" Velocity="120" />
      <note Length="0.03125" Pitch="53" RiffPosition="13.53125" Velocity="75" />
      <note Length="0.0625" Pitch="55" RiffPosition="13.5625" Velocity="72" />
      <note Length="0.0208333333333333" Pitch="68" RiffPosition="13.625" Velocity="75" />
      <note Length="0.0208333333333333" Pitch="65" RiffPosition="13.6458333333334" Velocity="68" />
      <note Length="0.0208333333333333" Pitch="70" RiffPosition="13.6666666666667" Velocity="42" />
      <note Length="0.0208333333333333" Pitch="53" RiffPosition="13.6875" Velocity="91" />
      <note Length="0.0208333333333333" Pitch="53" RiffPosition="13.7083333333334" Velocity="75" />
      <note Length="0.0208333333333333" Pitch="70" RiffPosition="13.7291666666667" Velocity="43" />
      <note Length="0.046875" Pitch="79" RiffPosition="13.75" Velocity="93" />
      <note Length="0.046875" Pitch="67" RiffPosition="13.796875" Velocity="31" />
      <note Length="0.015625" Pitch="55" RiffPosition="13.84375" Velocity="37" />
      <note Length="0.015625" Pitch="60" RiffPosition="13.859375" Velocity="65" />
      <note Length="0.03125" Pitch="53" RiffPosition="13.875" Velocity="84" />
      <note Length="0.03125" Pitch="53" RiffPosition="13.90625" Velocity="52" />
      <note Length="0.062499999999968" Pitch="41" RiffPosition="13.9375" Velocity="84" />
    </riff>
    <riff IsDrum="False" MidiInstrument="24" Tempo="81" Length="14">
      <note Length="0.09375" Pitch="63" RiffPosition="0" Velocity="88" />
      <note Length="0.09375" Pitch="65" RiffPosition="0.09375" Velocity="56" />
      <note Length="0.0208333333333333" Pitch="63" RiffPosition="0.1875" Velocity="102" />
      <note Length="0.0208333333333333" Pitch="63" RiffPosition="0.208333333333333" Velocity="40" />
      <note Length="0.0208333333333333" Pitch="51" RiffPosition="0.229166666666667" Velocity="51" />
      <note Length="0.03125" Pitch="70" RiffPosition="0.25" Velocity="122" />
      <note Length="0.03125" Pitch="58" RiffPosition="0.28125" Velocity="63" />
      <note Length="0.03125" Pitch="66" RiffPosition="0.3125" Velocity="62" />
      <note Length="0.03125" Pitch="51" RiffPosition="0.34375" Velocity="39" />
      <note Length="0.0104166666666667" Pitch="63" RiffPosition="0.375" Velocity="98" />
      <note Length="0.0104166666666667" Pitch="63" RiffPosition="0.385416666666667" Velocity="56" />
      <note Length="0.0104166666666667" Pitch="51" RiffPosition="0.395833333333333" Velocity="31" />
      <note Length="0.03125" Pitch="58" RiffPosition="0.40625" Velocity="43" />
      <note Length="0.0234375" Pitch="51" RiffPosition="0.4375" Velocity="77" />
      <note Length="0.0078125" Pitch="58" RiffPosition="0.4609375" Velocity="35" />
      <note Length="0.03125" Pitch="54" RiffPosition="0.46875" Velocity="44" />
      <note Length="0.09375" Pitch="63" RiffPosition="0.5" Velocity="78" />
      <note Length="0.09375" Pitch="39" RiffPosition="0.59375" Velocity="66" />
      <note Length="0.0208333333333333" Pitch="51" RiffPosition="0.6875" Velocity="74" />
      <note Length="0.0208333333333333" Pitch="58" RiffPosition="0.708333333333333" Velocity="51" />
      <note Length="0.0208333333333333" Pitch="58" RiffPosition="0.729166666666667" Velocity="79" />
      <note Length="0.03125" Pitch="66" RiffPosition="0.75" Velocity="112" />
      <note Length="0.03125" Pitch="56" RiffPosition="0.78125" Velocity="69" />
      <note Length="0.03125" Pitch="68" RiffPosition="0.8125" Velocity="72" />
      <note Length="0.03125" Pitch="58" RiffPosition="0.84375" Velocity="48" />
      <note Length="0.0104166666666667" Pitch="70" RiffPosition="0.875" Velocity="66" />
      <note Length="0.0104166666666667" Pitch="63" RiffPosition="0.885416666666667" Velocity="83" />
      <note Length="0.0104166666666667" Pitch="68" RiffPosition="0.895833333333333" Velocity="59" />
      <note Length="0.03125" Pitch="66" RiffPosition="0.90625" Velocity="34" />
      <note Length="0.0234375" Pitch="70" RiffPosition="0.9375" Velocity="71" />
      <note Length="0.0078125" Pitch="68" RiffPosition="0.9609375" Velocity="35" />
      <note Length="0.03125" Pitch="66" RiffPosition="0.96875" Velocity="34" />
      <note Length="0.09375" Pitch="65" RiffPosition="1" Velocity="106" />
      <note Length="0.09375" Pitch="65" RiffPosition="1.09375" Velocity="60" />
      <note Length="0.0208333333333333" Pitch="65" RiffPosition="1.1875" Velocity="106" />
      <note Length="0.0208333333333333" Pitch="70" RiffPosition="1.20833333333333" Velocity="36" />
      <note Length="0.0208333333333333" Pitch="67" RiffPosition="1.22916666666667" Velocity="69" />
      <note Length="0.03125" Pitch="68" RiffPosition="1.25" Velocity="102" />
      <note Length="0.03125" Pitch="53" RiffPosition="1.28125" Velocity="59" />
      <note Length="0.03125" Pitch="53" RiffPosition="1.3125" Velocity="44" />
      <note Length="0.03125" Pitch="58" RiffPosition="1.34375" Velocity="43" />
      <note Length="0.0104166666666667" Pitch="67" RiffPosition="1.375" Velocity="94" />
      <note Length="0.0104166666666667" Pitch="67" RiffPosition="1.38541666666667" Velocity="74" />
      <note Length="0.0104166666666667" Pitch="58" RiffPosition="1.39583333333333" Velocity="49" />
      <note Length="0.03125" Pitch="55" RiffPosition="1.40625" Velocity="36" />
      <note Length="0.0234375" Pitch="53" RiffPosition="1.4375" Velocity="81" />
      <note Length="0.0078125" Pitch="60" RiffPosition="1.4609375" Velocity="44" />
      <note Length="0.03125" Pitch="58" RiffPosition="1.46875" Velocity="62" />
      <note Length="0.09375" Pitch="61" RiffPosition="1.5" Velocity="74" />
      <note Length="0.09375" Pitch="55" RiffPosition="1.59375" Velocity="69" />
      <note Length="0.0208333333333333" Pitch="68" RiffPosition="1.6875" Velocity="78" />
      <note Length="0.0208333333333333" Pitch="60" RiffPosition="1.70833333333333" Velocity="34" />
      <note Length="0.0208333333333333" Pitch="58" RiffPosition="1.72916666666667" Velocity="60" />
      <note Length="0.03125" Pitch="68" RiffPosition="1.75" Velocity="108" />
      <note Length="0.03125" Pitch="53" RiffPosition="1.78125" Velocity="49" />
      <note Length="0.03125" Pitch="68" RiffPosition="1.8125" Velocity="76" />
      <note Length="0.03125" Pitch="65" RiffPosition="1.84375" Velocity="45" />
      <note Length="0.0104166666666667" Pitch="68" RiffPosition="1.875" Velocity="84" />
      <note Length="0.0104166666666667" Pitch="70" RiffPosition="1.88541666666667" Velocity="64" />
      <note Length="0.0104166666666667" Pitch="67" RiffPosition="1.89583333333333" Velocity="55" />
      <note Length="0.03125" Pitch="53" RiffPosition="1.90625" Velocity="30" />
      <note Length="0.0234375" Pitch="77" RiffPosition="1.9375" Velocity="91" />
      <note Length="0.0078125" Pitch="67" RiffPosition="1.9609375" Velocity="43" />
      <note Length="0.03125" Pitch="65" RiffPosition="1.96875" Velocity="30" />
      <note Length="0.09375" Pitch="63" RiffPosition="2" Velocity="102" />
      <note Length="0.09375" Pitch="66" RiffPosition="2.09375" Velocity="79" />
      <note Length="0.0208333333333333" Pitch="66" RiffPosition="2.1875" Velocity="88" />
      <note Length="0.0208333333333333" Pitch="63" RiffPosition="2.20833333333333" Velocity="32" />
      <note Length="0.0208333333333333" Pitch="51" RiffPosition="2.22916666666667" Velocity="66" />
      <note Length="0.03125" Pitch="63" RiffPosition="2.25" Velocity="98" />
      <note Length="0.03125" Pitch="58" RiffPosition="2.28125" Velocity="77" />
      <note Length="0.03125" Pitch="68" RiffPosition="2.3125" Velocity="85" />
      <note Length="0.03125" Pitch="51" RiffPosition="2.34375" Velocity="35" />
      <note Length="0.0104166666666667" Pitch="63" RiffPosition="2.375" Velocity="90" />
      <note Length="0.0104166666666667" Pitch="63" RiffPosition="2.38541666666667" Velocity="70" />
      <note Length="0.0104166666666667" Pitch="51" RiffPosition="2.39583333333333" Velocity="45" />
      <note Length="0.03125" Pitch="58" RiffPosition="2.40625" Velocity="40" />
      <note Length="0.0234375" Pitch="51" RiffPosition="2.4375" Velocity="63" />
      <note Length="0.0078125" Pitch="58" RiffPosition="2.4609375" Velocity="48" />
      <note Length="0.03125" Pitch="56" RiffPosition="2.46875" Velocity="40" />
      <note Length="0.09375" Pitch="65" RiffPosition="2.5" Velocity="92" />
      <note Length="0.09375" Pitch="39" RiffPosition="2.59375" Velocity="51" />
      <note Length="0.0208333333333333" Pitch="51" RiffPosition="2.6875" Velocity="82" />
      <note Length="0.0208333333333333" Pitch="59" RiffPosition="2.70833333333333" Velocity="37" />
      <note Length="0.0208333333333333" Pitch="58" RiffPosition="2.72916666666667" Velocity="56" />
      <note Length="0.03125" Pitch="51" RiffPosition="2.75" Velocity="126" />
      <note Length="0.03125" Pitch="58" RiffPosition="2.78125" Velocity="46" />
      <note Length="0.03125" Pitch="68" RiffPosition="2.8125" Velocity="58" />
      <note Length="0.03125" Pitch="58" RiffPosition="2.84375" Velocity="56" />
      <note Length="0.0104166666666667" Pitch="63" RiffPosition="2.875" Velocity="80" />
      <note Length="0.0104166666666667" Pitch="63" RiffPosition="2.88541666666667" Velocity="60" />
      <note Length="0.0104166666666667" Pitch="70" RiffPosition="2.89583333333333" Velocity="35" />
      <note Length="0.03125" Pitch="51" RiffPosition="2.90625" Velocity="48" />
      <note Length="0.0234375" Pitch="63" RiffPosition="2.9375" Velocity="95" />
      <note Length="0.0078125" Pitch="68" RiffPosition="2.9609375" Velocity="40" />
      <note Length="0.03125" Pitch="66" RiffPosition="2.96875" Velocity="48" />
      <note Length="0.09375" Pitch="65" RiffPosition="3" Velocity="82" />
      <note Length="0.09375" Pitch="67" RiffPosition="3.09375" Velocity="83" />
      <note Length="0.0208333333333333" Pitch="65" RiffPosition="3.1875" Velocity="91" />
      <note Length="0.0208333333333333" Pitch="70" RiffPosition="3.20833333333333" Velocity="47" />
      <note Length="0.0208333333333333" Pitch="61" RiffPosition="3.22916666666667" Velocity="83" />
      <note Length="0.03125" Pitch="70" RiffPosition="3.25" Velocity="95" />
      <note Length="0.03125" Pitch="53" RiffPosition="3.28125" Velocity="73" />
      <note Length="0.03125" Pitch="53" RiffPosition="3.3125" Velocity="68" />
      <note Length="0.03125" Pitch="58" RiffPosition="3.34375" Velocity="31" />
      <note Length="0.0104166666666667" Pitch="68" RiffPosition="3.375" Velocity="108" />
      <note Length="0.0104166666666667" Pitch="53" RiffPosition="3.38541666666667" Velocity="88" />
      <note Length="0.0104166666666667" Pitch="58" RiffPosition="3.39583333333333" Velocity="63" />
      <note Length="0.03125" Pitch="55" RiffPosition="3.40625" Velocity="44" />
      <note Length="0.0234375" Pitch="53" RiffPosition="3.4375" Velocity="67" />
      <note Length="0.0078125" Pitch="55" RiffPosition="3.4609375" Velocity="30" />
      <note Length="0.03125" Pitch="41" RiffPosition="3.46875" Velocity="38" />
      <note Length="0.09375" Pitch="53" RiffPosition="3.5" Velocity="88" />
      <note Length="0.09375" Pitch="58" RiffPosition="3.59375" Velocity="55" />
      <note Length="0.0208333333333333" Pitch="68" RiffPosition="3.6875" Velocity="101" />
      <note Length="0.0208333333333333" Pitch="61" RiffPosition="3.70833333333333" Velocity="41" />
      <note Length="0.0208333333333333" Pitch="60" RiffPosition="3.72916666666667" Velocity="52" />
      <note Length="0.03125" Pitch="68" RiffPosition="3.75" Velocity="122" />
      <note Length="0.03125" Pitch="60" RiffPosition="3.78125" Velocity="63" />
      <note Length="0.03125" Pitch="70" RiffPosition="3.8125" Velocity="61" />
      <note Length="0.03125" Pitch="65" RiffPosition="3.84375" Velocity="39" />
      <note Length="0.0104166666666667" Pitch="70" RiffPosition="3.875" Velocity="98" />
      <note Length="0.0104166666666667" Pitch="70" RiffPosition="3.88541666666667" Velocity="56" />
      <note Length="0.0104166666666667" Pitch="68" RiffPosition="3.89583333333333" Velocity="32" />
      <note Length="0.03125" Pitch="65" RiffPosition="3.90625" Velocity="44" />
      <note Length="0.0234375" Pitch="70" RiffPosition="3.9375" Velocity="77" />
      <note Length="0.0078125" Pitch="68" RiffPosition="3.9609375" Velocity="36" />
      <note Length="0.03125" Pitch="65" RiffPosition="3.96875" Velocity="44" />
      <note Length="0.09375" Pitch="65" RiffPosition="4" Velocity="79" />
      <note Length="0.09375" Pitch="68" RiffPosition="4.09375" Velocity="65" />
      <note Length="0.0208333333333333" Pitch="68" RiffPosition="4.1875" Velocity="74" />
      <note Length="0.0208333333333333" Pitch="67" RiffPosition="4.20833333333333" Velocity="51" />
      <note Length="0.0208333333333333" Pitch="53" RiffPosition="4.22916666666667" Velocity="80" />
      <note Length="0.03125" Pitch="65" RiffPosition="4.25" Velocity="113" />
      <note Length="0.03125" Pitch="61" RiffPosition="4.28125" Velocity="70" />
      <note Length="0.03125" Pitch="70" RiffPosition="4.3125" Velocity="71" />
      <note Length="0.03125" Pitch="58" RiffPosition="4.34375" Velocity="49" />
      <note Length="0.0104166666666667" Pitch="67" RiffPosition="4.375" Velocity="67" />
      <note Length="0.0104166666666667" Pitch="68" RiffPosition="4.38541666666667" Velocity="84" />
      <note Length="0.0104166666666667" Pitch="53" RiffPosition="4.39583333333333" Velocity="59" />
      <note Length="0.03125" Pitch="61" RiffPosition="4.40625" Velocity="34" />
      <note Length="0.0234375" Pitch="53" RiffPosition="4.4375" Velocity="71" />
      <note Length="0.0078125" Pitch="60" RiffPosition="4.4609375" Velocity="34" />
      <note Length="0.03125" Pitch="58" RiffPosition="4.46875" Velocity="35" />
      <note Length="0.09375" Pitch="61" RiffPosition="4.5" Velocity="106" />
      <note Length="0.09375" Pitch="41" RiffPosition="4.59375" Velocity="75" />
      <note Length="0.0208333333333333" Pitch="53" RiffPosition="4.6875" Velocity="105" />
      <note Length="0.0208333333333333" Pitch="53" RiffPosition="4.70833333333333" Velocity="37" />
      <note Length="0.0208333333333333" Pitch="61" RiffPosition="4.72916666666667" Velocity="70" />
      <note Length="0.03125" Pitch="53" RiffPosition="4.75" Velocity="103" />
      <note Length="0.03125" Pitch="61" RiffPosition="4.78125" Velocity="60" />
      <note Length="0.03125" Pitch="53" RiffPosition="4.8125" Velocity="44" />
      <note Length="0.03125" Pitch="61" RiffPosition="4.84375" Velocity="42" />
      <note Length="0.0104166666666667" Pitch="65" RiffPosition="4.875" Velocity="94" />
      <note Length="0.0104166666666667" Pitch="65" RiffPosition="4.88541666666667" Velocity="74" />
      <note Length="0.0104166666666667" Pitch="65" RiffPosition="4.89583333333333" Velocity="49" />
      <note Length="0.03125" Pitch="53" RiffPosition="4.90625" Velocity="35" />
      <note Length="0.0234375" Pitch="65" RiffPosition="4.9375" Velocity="80" />
      <note Length="0.0078125" Pitch="72" RiffPosition="4.9609375" Velocity="44" />
      <note Length="0.03125" Pitch="70" RiffPosition="4.96875" Velocity="62" />
      <note Length="0.09375" Pitch="65" RiffPosition="5" Velocity="75" />
      <note Length="0.09375" Pitch="68" RiffPosition="5.09375" Velocity="69" />
      <note Length="0.0208333333333333" Pitch="65" RiffPosition="5.1875" Velocity="77" />
      <note Length="0.0208333333333333" Pitch="70" RiffPosition="5.20833333333333" Velocity="33" />
      <note Length="0.0208333333333333" Pitch="53" RiffPosition="5.22916666666667" Velocity="60" />
      <note Length="0.03125" Pitch="70" RiffPosition="5.25" Velocity="109" />
      <note Length="0.03125" Pitch="53" RiffPosition="5.28125" Velocity="50" />
      <note Length="0.03125" Pitch="65" RiffPosition="5.3125" Velocity="75" />
      <note Length="0.03125" Pitch="60" RiffPosition="5.34375" Velocity="45" />
      <note Length="0.0104166666666667" Pitch="53" RiffPosition="5.375" Velocity="85" />
      <note Length="0.0104166666666667" Pitch="53" RiffPosition="5.38541666666667" Velocity="64" />
      <note Length="0.0104166666666667" Pitch="60" RiffPosition="5.39583333333333" Velocity="56" />
      <note Length="0.03125" Pitch="56" RiffPosition="5.40625" Velocity="31" />
      <note Length="0.0234375" Pitch="65" RiffPosition="5.4375" Velocity="90" />
      <note Length="0.0078125" Pitch="55" RiffPosition="5.4609375" Velocity="44" />
      <note Length="0.03125" Pitch="41" RiffPosition="5.46875" Velocity="52" />
      <note Length="0.09375" Pitch="53" RiffPosition="5.5" Velocity="103" />
      <note Length="0.09375" Pitch="58" RiffPosition="5.59375" Velocity="79" />
      <note Length="0.0208333333333333" Pitch="53" RiffPosition="5.6875" Velocity="87" />
      <note Length="0.0208333333333333" Pitch="53" RiffPosition="5.70833333333333" Velocity="43" />
      <note Length="0.0208333333333333" Pitch="60" RiffPosition="5.72916666666667" Velocity="66" />
      <note Length="0.03125" Pitch="70" RiffPosition="5.75" Velocity="99" />
      <note Length="0.03125" Pitch="60" RiffPosition="5.78125" Velocity="78" />
      <note Length="0.03125" Pitch="70" RiffPosition="5.8125" Velocity="85" />
      <note Length="0.03125" Pitch="67" RiffPosition="5.84375" Velocity="36" />
      <note Length="0.0104166666666667" Pitch="70" RiffPosition="5.875" Velocity="91" />
      <note Length="0.0104166666666667" Pitch="72" RiffPosition="5.88541666666667" Velocity="70" />
      <note Length="0.0104166666666667" Pitch="68" RiffPosition="5.89583333333333" Velocity="46" />
      <note Length="0.03125" Pitch="67" RiffPosition="5.90625" Velocity="39" />
      <note Length="0.0234375" Pitch="70" RiffPosition="5.9375" Velocity="63" />
      <note Length="0.0078125" Pitch="68" RiffPosition="5.9609375" Velocity="47" />
      <note Length="0.03125" Pitch="65" RiffPosition="5.96875" Velocity="39" />
      <note Length="0.09375" Pitch="77" RiffPosition="6" Velocity="93" />
      <note Length="0.09375" Pitch="53" RiffPosition="6.09375" Velocity="51" />
      <note Length="0.0208333333333333" Pitch="70" RiffPosition="6.1875" Velocity="81" />
      <note Length="0.0208333333333333" Pitch="68" RiffPosition="6.20833333333333" Velocity="37" />
      <note Length="0.0208333333333333" Pitch="65" RiffPosition="6.22916666666667" Velocity="56" />
      <note Length="0.03125" Pitch="67" RiffPosition="6.25" Velocity="127" />
      <note Length="0.03125" Pitch="53" RiffPosition="6.28125" Velocity="46" />
      <note Length="0.03125" Pitch="72" RiffPosition="6.3125" Velocity="57" />
      <note Length="0.03125" Pitch="60" RiffPosition="6.34375" Velocity="34" />
      <note Length="0.0104166666666667" Pitch="68" RiffPosition="6.375" Velocity="81" />
      <note Length="0.0104166666666667" Pitch="68" RiffPosition="6.38541666666667" Velocity="61" />
      <note Length="0.0104166666666667" Pitch="65" RiffPosition="6.39583333333333" Velocity="36" />
      <note Length="0.03125" Pitch="55" RiffPosition="6.40625" Velocity="48" />
      <note Length="0.0234375" Pitch="53" RiffPosition="6.4375" Velocity="94" />
      <note Length="0.0078125" Pitch="53" RiffPosition="6.4609375" Velocity="40" />
      <note Length="0.03125" Pitch="60" RiffPosition="6.46875" Velocity="49" />
      <note Length="0.09375" Pitch="53" RiffPosition="6.5" Velocity="83" />
      <note Length="0.09375" Pitch="55" RiffPosition="6.59375" Velocity="82" />
      <note Length="0.0208333333333333" Pitch="53" RiffPosition="6.6875" Velocity="91" />
      <note Length="0.0208333333333333" Pitch="53" RiffPosition="6.70833333333333" Velocity="47" />
      <note Length="0.0208333333333333" Pitch="55" RiffPosition="6.72916666666667" Velocity="84" />
      <note Length="0.03125" Pitch="65" RiffPosition="6.75" Velocity="95" />
      <note Length="0.03125" Pitch="61" RiffPosition="6.78125" Velocity="74" />
      <note Length="0.03125" Pitch="65" RiffPosition="6.8125" Velocity="67" />
      <note Length="0.03125" Pitch="53" RiffPosition="6.84375" Velocity="32" />
      <note Length="0.0104166666666667" Pitch="65" RiffPosition="6.875" Velocity="71" />
      <note Length="0.0104166666666667" Pitch="68" RiffPosition="6.88541666666667" Velocity="88" />
      <note Length="0.0104166666666667" Pitch="65" RiffPosition="6.89583333333333" Velocity="64" />
      <note Length="0.03125" Pitch="53" RiffPosition="6.90625" Velocity="43" />
      <note Length="0.0234375" Pitch="65" RiffPosition="6.9375" Velocity="66" />
      <note Length="0.0078125" Pitch="65" RiffPosition="6.9609375" Velocity="30" />
      <note Length="0.03125" Pitch="53" RiffPosition="6.96875" Velocity="39" />
      <note Length="0.09375" Pitch="65" RiffPosition="7" Velocity="89" />
      <note Length="0.09375" Pitch="68" RiffPosition="7.09375" Velocity="55" />
      <note Length="0.0208333333333333" Pitch="77" RiffPosition="7.1875" Velocity="101" />
      <note Length="0.0208333333333333" Pitch="65" RiffPosition="7.20833333333333" Velocity="41" />
      <note Length="0.0208333333333333" Pitch="53" RiffPosition="7.22916666666667" Velocity="53" />
      <note Length="0.03125" Pitch="72" RiffPosition="7.25" Velocity="123" />
      <note Length="0.03125" Pitch="58" RiffPosition="7.28125" Velocity="64" />
      <note Length="0.03125" Pitch="65" RiffPosition="7.3125" Velocity="61" />
      <note Length="0.03125" Pitch="61" RiffPosition="7.34375" Velocity="38" />
      <note Length="0.0104166666666667" Pitch="53" RiffPosition="7.375" Velocity="99" />
      <note Length="0.0104166666666667" Pitch="53" RiffPosition="7.38541666666667" Velocity="57" />
      <note Length="0.0104166666666667" Pitch="60" RiffPosition="7.39583333333333" Velocity="32" />
      <note Length="0.03125" Pitch="58" RiffPosition="7.40625" Velocity="53" />
      <note Length="0.0234375" Pitch="60" RiffPosition="7.4375" Velocity="76" />
      <note Length="0.0078125" Pitch="56" RiffPosition="7.4609375" Velocity="36" />
      <note Length="0.03125" Pitch="41" RiffPosition="7.46875" Velocity="45" />
      <note Length="0.09375" Pitch="53" RiffPosition="7.5" Velocity="79" />
      <note Length="0.09375" Pitch="58" RiffPosition="7.59375" Velocity="64" />
      <note Length="0.0208333333333333" Pitch="53" RiffPosition="7.6875" Velocity="73" />
      <note Length="0.0208333333333333" Pitch="53" RiffPosition="7.70833333333333" Velocity="50" />
      <note Length="0.0208333333333333" Pitch="61" RiffPosition="7.72916666666667" Velocity="80" />
      <note Length="0.03125" Pitch="70" RiffPosition="7.75" Velocity="113" />
      <note Length="0.03125" Pitch="61" RiffPosition="7.78125" Velocity="70" />
      <note Length="0.03125" Pitch="72" RiffPosition="7.8125" Velocity="71" />
      <note Length="0.03125" Pitch="53" RiffPosition="7.84375" Velocity="50" />
      <note Length="0.0104166666666667" Pitch="72" RiffPosition="7.875" Velocity="67" />
      <note Length="0.0104166666666667" Pitch="65" RiffPosition="7.88541666666667" Velocity="85" />
      <note Length="0.0104166666666667" Pitch="70" RiffPosition="7.89583333333333" Velocity="60" />
      <note Length="0.03125" Pitch="67" RiffPosition="7.90625" Velocity="35" />
      <note Length="0.0234375" Pitch="72" RiffPosition="7.9375" Velocity="70" />
      <note Length="0.0078125" Pitch="68" RiffPosition="7.9609375" Velocity="33" />
      <note Length="0.03125" Pitch="68" RiffPosition="7.96875" Velocity="35" />
      <note Length="0.09375" Pitch="68" RiffPosition="8" Velocity="0" />
      <note Length="0.09375" Pitch="51" RiffPosition="8.09375" Velocity="0" />
      <note Length="0.0208333333333333" Pitch="68" RiffPosition="8.1875" Velocity="0" />
      <note Length="0.0208333333333333" Pitch="66" RiffPosition="8.20833333333333" Velocity="0" />
      <note Length="0.0208333333333333" Pitch="63" RiffPosition="8.22916666666667" Velocity="0" />
      <note Length="0.03125" Pitch="66" RiffPosition="8.25" Velocity="0" />
      <note Length="0.03125" Pitch="51" RiffPosition="8.28125" Velocity="0" />
      <note Length="0.03125" Pitch="63" RiffPosition="8.3125" Velocity="0" />
      <note Length="0.03125" Pitch="58" RiffPosition="8.34375" Velocity="0" />
      <note Length="0.0104166666666667" Pitch="66" RiffPosition="8.375" Velocity="0" />
      <note Length="0.0104166666666667" Pitch="66" RiffPosition="8.38541666666667" Velocity="0" />
      <note Length="0.0104166666666667" Pitch="58" RiffPosition="8.39583333333333" Velocity="0" />
      <note Length="0.03125" Pitch="54" RiffPosition="8.40625" Velocity="0" />
      <note Length="0.0234375" Pitch="63" RiffPosition="8.4375" Velocity="0" />
      <note Length="0.0078125" Pitch="51" RiffPosition="8.4609375" Velocity="0" />
      <note Length="0.03125" Pitch="58" RiffPosition="8.46875" Velocity="0" />
      <note Length="0.09375" Pitch="51" RiffPosition="8.5" Velocity="0" />
      <note Length="0.09375" Pitch="53" RiffPosition="8.59375" Velocity="0" />
      <note Length="0.0208333333333333" Pitch="63" RiffPosition="8.6875" Velocity="0" />
      <note Length="0.0208333333333333" Pitch="51" RiffPosition="8.70833333333333" Velocity="0" />
      <note Length="0.0208333333333333" Pitch="54" RiffPosition="8.72916666666667" Velocity="0" />
      <note Length="0.03125" Pitch="63" RiffPosition="8.75" Velocity="0" />
      <note Length="0.03125" Pitch="51" RiffPosition="8.78125" Velocity="0" />
      <note Length="0.03125" Pitch="65" RiffPosition="8.8125" Velocity="0" />
      <note Length="0.03125" Pitch="51" RiffPosition="8.84375" Velocity="0" />
      <note Length="0.0104166666666667" Pitch="66" RiffPosition="8.875" Velocity="0" />
      <note Length="0.0104166666666667" Pitch="68" RiffPosition="8.88541666666667" Velocity="0" />
      <note Length="0.0104166666666667" Pitch="65" RiffPosition="8.89583333333333" Velocity="0" />
      <note Length="0.03125" Pitch="51" RiffPosition="8.90625" Velocity="0" />
      <note Length="0.0234375" Pitch="63" RiffPosition="8.9375" Velocity="0" />
      <note Length="0.0078125" Pitch="63" RiffPosition="8.9609375" Velocity="0" />
      <note Length="0.03125" Pitch="51" RiffPosition="8.96875" Velocity="0" />
      <note Length="0.09375" Pitch="77" RiffPosition="9" Velocity="0" />
      <note Length="0.09375" Pitch="70" RiffPosition="9.09375" Velocity="0" />
      <note Length="0.0208333333333333" Pitch="77" RiffPosition="9.1875" Velocity="0" />
      <note Length="0.0208333333333333" Pitch="65" RiffPosition="9.20833333333333" Velocity="0" />
      <note Length="0.0208333333333333" Pitch="53" RiffPosition="9.22916666666667" Velocity="0" />
      <note Length="0.03125" Pitch="65" RiffPosition="9.25" Velocity="0" />
      <note Length="0.03125" Pitch="60" RiffPosition="9.28125" Velocity="0" />
      <note Length="0.03125" Pitch="67" RiffPosition="9.3125" Velocity="0" />
      <note Length="0.03125" Pitch="61" RiffPosition="9.34375" Velocity="0" />
      <note Length="0.0104166666666667" Pitch="53" RiffPosition="9.375" Velocity="0" />
      <note Length="0.0104166666666667" Pitch="53" RiffPosition="9.38541666666667" Velocity="0" />
      <note Length="0.0104166666666667" Pitch="61" RiffPosition="9.39583333333333" Velocity="0" />
      <note Length="0.03125" Pitch="58" RiffPosition="9.40625" Velocity="0" />
      <note Length="0.0234375" Pitch="61" RiffPosition="9.4375" Velocity="0" />
      <note Length="0.0078125" Pitch="58" RiffPosition="9.4609375" Velocity="0" />
      <note Length="0.03125" Pitch="55" RiffPosition="9.46875" Velocity="0" />
      <note Length="0.09375" Pitch="53" RiffPosition="9.5" Velocity="0" />
      <note Length="0.09375" Pitch="41" RiffPosition="9.59375" Velocity="0" />
      <note Length="0.0208333333333333" Pitch="53" RiffPosition="9.6875" Velocity="0" />
      <note Length="0.0208333333333333" Pitch="53" RiffPosition="9.70833333333333" Velocity="0" />
      <note Length="0.0208333333333333" Pitch="53" RiffPosition="9.72916666666667" Velocity="0" />
      <note Length="0.03125" Pitch="65" RiffPosition="9.75" Velocity="0" />
      <note Length="0.03125" Pitch="53" RiffPosition="9.78125" Velocity="0" />
      <note Length="0.03125" Pitch="65" RiffPosition="9.8125" Velocity="0" />
      <note Length="0.03125" Pitch="53" RiffPosition="9.84375" Velocity="0" />
      <note Length="0.0104166666666667" Pitch="65" RiffPosition="9.875" Velocity="0" />
      <note Length="0.0104166666666667" Pitch="65" RiffPosition="9.88541666666667" Velocity="0" />
      <note Length="0.0104166666666667" Pitch="70" RiffPosition="9.89583333333333" Velocity="0" />
      <note Length="0.03125" Pitch="53" RiffPosition="9.90625" Velocity="0" />
      <note Length="0.0234375" Pitch="65" RiffPosition="9.9375" Velocity="0" />
      <note Length="0.0078125" Pitch="70" RiffPosition="9.9609375" Velocity="0" />
      <note Length="0.03125" Pitch="68" RiffPosition="9.96875" Velocity="0" />
      <note Length="0.09375" Pitch="70" RiffPosition="10" Velocity="0" />
      <note Length="0.09375" Pitch="51" RiffPosition="10.09375" Velocity="0" />
      <note Length="0.0208333333333333" Pitch="70" RiffPosition="10.1875" Velocity="0" />
      <note Length="0.0208333333333333" Pitch="68" RiffPosition="10.2083333333333" Velocity="0" />
      <note Length="0.0208333333333333" Pitch="59" RiffPosition="10.2291666666667" Velocity="0" />
      <note Length="0.03125" Pitch="66" RiffPosition="10.25" Velocity="0" />
      <note Length="0.03125" Pitch="51" RiffPosition="10.28125" Velocity="0" />
      <note Length="0.03125" Pitch="65" RiffPosition="10.3125" Velocity="0" />
      <note Length="0.03125" Pitch="59" RiffPosition="10.34375" Velocity="0" />
      <note Length="0.0104166666666667" Pitch="68" RiffPosition="10.375" Velocity="0" />
      <note Length="0.0104166666666667" Pitch="51" RiffPosition="10.3854166666667" Velocity="0" />
      <note Length="0.0104166666666667" Pitch="59" RiffPosition="10.3958333333333" Velocity="0" />
      <note Length="0.03125" Pitch="56" RiffPosition="10.40625" Velocity="0" />
      <note Length="0.0234375" Pitch="63" RiffPosition="10.4375" Velocity="0" />
      <note Length="0.0078125" Pitch="51" RiffPosition="10.4609375" Velocity="0" />
      <note Length="0.03125" Pitch="53" RiffPosition="10.46875" Velocity="0" />
      <note Length="0.09375" Pitch="51" RiffPosition="10.5" Velocity="0" />
      <note Length="0.09375" Pitch="54" RiffPosition="10.59375" Velocity="0" />
      <note Length="0.0208333333333333" Pitch="63" RiffPosition="10.6875" Velocity="0" />
      <note Length="0.0208333333333333" Pitch="56" RiffPosition="10.7083333333333" Velocity="0" />
      <note Length="0.0208333333333333" Pitch="54" RiffPosition="10.7291666666667" Velocity="0" />
      <note Length="0.03125" Pitch="65" RiffPosition="10.75" Velocity="0" />
      <note Length="0.03125" Pitch="54" RiffPosition="10.78125" Velocity="0" />
      <note Length="0.03125" Pitch="65" RiffPosition="10.8125" Velocity="0" />
      <note Length="0.03125" Pitch="51" RiffPosition="10.84375" Velocity="0" />
      <note Length="0.0104166666666667" Pitch="68" RiffPosition="10.875" Velocity="0" />
      <note Length="0.0104166666666667" Pitch="68" RiffPosition="10.8854166666667" Velocity="0" />
      <note Length="0.0104166666666667" Pitch="66" RiffPosition="10.8958333333333" Velocity="0" />
      <note Length="0.03125" Pitch="63" RiffPosition="10.90625" Velocity="0" />
      <note Length="0.0234375" Pitch="75" RiffPosition="10.9375" Velocity="0" />
      <note Length="0.0078125" Pitch="65" RiffPosition="10.9609375" Velocity="0" />
      <note Length="0.03125" Pitch="63" RiffPosition="10.96875" Velocity="0" />
      <note Length="0.09375" Pitch="78" RiffPosition="11" Velocity="0" />
      <note Length="0.09375" Pitch="71" RiffPosition="11.09375" Velocity="0" />
      <note Length="0.0208333333333333" Pitch="71" RiffPosition="11.1875" Velocity="0" />
      <note Length="0.0208333333333333" Pitch="68" RiffPosition="11.2083333333333" Velocity="0" />
      <note Length="0.0208333333333333" Pitch="54" RiffPosition="11.2291666666667" Velocity="0" />
      <note Length="0.03125" Pitch="66" RiffPosition="11.25" Velocity="0" />
      <note Length="0.03125" Pitch="61" RiffPosition="11.28125" Velocity="0" />
      <note Length="0.03125" Pitch="69" RiffPosition="11.3125" Velocity="0" />
      <note Length="0.03125" Pitch="56" RiffPosition="11.34375" Velocity="0" />
      <note Length="0.0104166666666667" Pitch="54" RiffPosition="11.375" Velocity="0" />
      <note Length="0.0104166666666667" Pitch="66" RiffPosition="11.3854166666667" Velocity="0" />
      <note Length="0.0104166666666667" Pitch="54" RiffPosition="11.3958333333333" Velocity="0" />
      <note Length="0.03125" Pitch="61" RiffPosition="11.40625" Velocity="0" />
      <note Length="0.0234375" Pitch="54" RiffPosition="11.4375" Velocity="0" />
      <note Length="0.0078125" Pitch="59" RiffPosition="11.4609375" Velocity="0" />
      <note Length="0.03125" Pitch="57" RiffPosition="11.46875" Velocity="0" />
      <note Length="0.09375" Pitch="61" RiffPosition="11.5" Velocity="0" />
      <note Length="0.09375" Pitch="42" RiffPosition="11.59375" Velocity="0" />
      <note Length="0.0208333333333333" Pitch="66" RiffPosition="11.6875" Velocity="0" />
      <note Length="0.0208333333333333" Pitch="54" RiffPosition="11.7083333333333" Velocity="0" />
      <note Length="0.0208333333333333" Pitch="54" RiffPosition="11.7291666666667" Velocity="0" />
      <note Length="0.03125" Pitch="66" RiffPosition="11.75" Velocity="0" />
      <note Length="0.03125" Pitch="54" RiffPosition="11.78125" Velocity="0" />
      <note Length="0.03125" Pitch="66" RiffPosition="11.8125" Velocity="0" />
      <note Length="0.03125" Pitch="54" RiffPosition="11.84375" Velocity="0" />
      <note Length="0.0104166666666667" Pitch="66" RiffPosition="11.875" Velocity="0" />
      <note Length="0.0104166666666667" Pitch="66" RiffPosition="11.8854166666667" Velocity="0" />
      <note Length="0.0104166666666667" Pitch="66" RiffPosition="11.8958333333333" Velocity="0" />
      <note Length="0.03125" Pitch="54" RiffPosition="11.90625" Velocity="0" />
      <note Length="0.0234375" Pitch="66" RiffPosition="11.9375" Velocity="0" />
      <note Length="0.0078125" Pitch="73" RiffPosition="11.9609375" Velocity="0" />
      <note Length="0.03125" Pitch="69" RiffPosition="11.96875" Velocity="0" />
      <note Length="0.09375" Pitch="65" RiffPosition="12" Velocity="76" />
      <note Length="0.09375" Pitch="65" RiffPosition="12.09375" Velocity="68" />
      <note Length="0.0208333333333333" Pitch="65" RiffPosition="12.1875" Velocity="76" />
      <note Length="0.0208333333333333" Pitch="70" RiffPosition="12.2083333333333" Velocity="32" />
      <note Length="0.0208333333333333" Pitch="53" RiffPosition="12.2291666666667" Velocity="61" />
      <note Length="0.03125" Pitch="70" RiffPosition="12.25" Velocity="110" />
      <note Length="0.03125" Pitch="53" RiffPosition="12.28125" Velocity="51" />
      <note Length="0.03125" Pitch="67" RiffPosition="12.3125" Velocity="52" />
      <note Length="0.03125" Pitch="53" RiffPosition="12.34375" Velocity="47" />
      <note Length="0.0104166666666667" Pitch="53" RiffPosition="12.375" Velocity="86" />
      <note Length="0.0104166666666667" Pitch="53" RiffPosition="12.3854166666667" Velocity="66" />
      <note Length="0.0104166666666667" Pitch="61" RiffPosition="12.3958333333333" Velocity="57" />
      <note Length="0.03125" Pitch="58" RiffPosition="12.40625" Velocity="32" />
      <note Length="0.0234375" Pitch="67" RiffPosition="12.4375" Velocity="89" />
      <note Length="0.0078125" Pitch="58" RiffPosition="12.4609375" Velocity="45" />
      <note Length="0.03125" Pitch="55" RiffPosition="12.46875" Velocity="54" />
      <note Length="0.09375" Pitch="53" RiffPosition="12.5" Velocity="104" />
      <note Length="0.09375" Pitch="58" RiffPosition="12.59375" Velocity="77" />
      <note Length="0.0208333333333333" Pitch="67" RiffPosition="12.6875" Velocity="86" />
      <note Length="0.0208333333333333" Pitch="60" RiffPosition="12.7083333333333" Velocity="42" />
      <note Length="0.0208333333333333" Pitch="58" RiffPosition="12.7291666666667" Velocity="67" />
      <note Length="0.03125" Pitch="68" RiffPosition="12.75" Velocity="100" />
      <note Length="0.03125" Pitch="58" RiffPosition="12.78125" Velocity="79" />
      <note Length="0.03125" Pitch="68" RiffPosition="12.8125" Velocity="84" />
      <note Length="0.03125" Pitch="53" RiffPosition="12.84375" Velocity="37" />
      <note Length="0.0104166666666667" Pitch="70" RiffPosition="12.875" Velocity="92" />
      <note Length="0.0104166666666667" Pitch="72" RiffPosition="12.8854166666667" Velocity="72" />
      <note Length="0.0104166666666667" Pitch="68" RiffPosition="12.8958333333333" Velocity="47" />
      <note Length="0.03125" Pitch="65" RiffPosition="12.90625" Velocity="38" />
      <note Length="0.0234375" Pitch="70" RiffPosition="12.9375" Velocity="61" />
      <note Length="0.0078125" Pitch="68" RiffPosition="12.9609375" Velocity="46" />
      <note Length="0.03125" Pitch="65" RiffPosition="12.96875" Velocity="38" />
      <note Length="0.09375" Pitch="79" RiffPosition="13" Velocity="94" />
      <note Length="0.09375" Pitch="65" RiffPosition="13.09375" Velocity="50" />
      <note Length="0.0208333333333333" Pitch="72" RiffPosition="13.1875" Velocity="96" />
      <note Length="0.0208333333333333" Pitch="68" RiffPosition="13.2083333333333" Velocity="36" />
      <note Length="0.0208333333333333" Pitch="65" RiffPosition="13.2291666666667" Velocity="58" />
      <note Length="0.03125" Pitch="67" RiffPosition="13.25" Velocity="127" />
      <note Length="0.03125" Pitch="61" RiffPosition="13.28125" Velocity="47" />
      <note Length="0.03125" Pitch="68" RiffPosition="13.3125" Velocity="56" />
      <note Length="0.03125" Pitch="56" RiffPosition="13.34375" Velocity="33" />
      <note Length="0.0104166666666667" Pitch="65" RiffPosition="13.375" Velocity="82" />
      <note Length="0.0104166666666667" Pitch="65" RiffPosition="13.3854166666667" Velocity="62" />
      <note Length="0.0104166666666667" Pitch="53" RiffPosition="13.3958333333333" Velocity="37" />
      <note Length="0.03125" Pitch="41" RiffPosition="13.40625" Velocity="50" />
      <note Length="0.0234375" Pitch="53" RiffPosition="13.4375" Velocity="93" />
      <note Length="0.0078125" Pitch="60" RiffPosition="13.4609375" Velocity="41" />
      <note Length="0.03125" Pitch="56" RiffPosition="13.46875" Velocity="50" />
      <note Length="0.09375" Pitch="60" RiffPosition="13.5" Velocity="84" />
      <note Length="0.09375" Pitch="55" RiffPosition="13.59375" Velocity="81" />
      <note Length="0.0208333333333333" Pitch="65" RiffPosition="13.6875" Velocity="90" />
      <note Length="0.0208333333333333" Pitch="65" RiffPosition="13.7083333333333" Velocity="45" />
      <note Length="0.0208333333333333" Pitch="58" RiffPosition="13.7291666666667" Velocity="85" />
      <note Length="0.03125" Pitch="67" RiffPosition="13.75" Velocity="97" />
      <note Length="0.03125" Pitch="53" RiffPosition="13.78125" Velocity="75" />
      <note Length="0.03125" Pitch="68" RiffPosition="13.8125" Velocity="66" />
      <note Length="0.03125" Pitch="53" RiffPosition="13.84375" Velocity="33" />
      <note Length="0.0104166666666667" Pitch="65" RiffPosition="13.875" Velocity="72" />
      <note Length="0.0104166666666667" Pitch="68" RiffPosition="13.8854166666667" Velocity="90" />
      <note Length="0.0104166666666667" Pitch="65" RiffPosition="13.8958333333333" Velocity="65" />
      <note Length="0.03125" Pitch="53" RiffPosition="13.90625" Velocity="42" />
      <note Length="0.0234375" Pitch="65" RiffPosition="13.9375" Velocity="65" />
      <note Length="0.0078125" Pitch="72" RiffPosition="13.9609375" Velocity="32" />
      <note Length="0.03125" Pitch="53" RiffPosition="13.96875" Velocity="40" />
    </riff>
    <riff IsDrum="False" MidiInstrument="19" Tempo="97" Length="14">
      <note Length="0.046875" Pitch="63" RiffPosition="0" Velocity="0" />
      <note Length="0.046875" Pitch="39" RiffPosition="0.046875" Velocity="0" />
      <note Length="0.046875" Pitch="39" RiffPosition="0.09375" Velocity="0" />
      <note Length="0.046875" Pitch="27" RiffPosition="0.140625" Velocity="0" />
      <note Length="0.03125" Pitch="27" RiffPosition="0.1875" Velocity="0" />
      <note Length="0.0078125" Pitch="32" RiffPosition="0.21875" Velocity="0" />
      <note Length="0.0234375" Pitch="42" RiffPosition="0.2265625" Velocity="0" />
      <note Length="0.046875" Pitch="27" RiffPosition="0.25" Velocity="0" />
      <note Length="0.046875" Pitch="53" RiffPosition="0.296875" Velocity="0" />
      <note Length="0.046875" Pitch="56" RiffPosition="0.34375" Velocity="0" />
      <note Length="0.046875" Pitch="63" RiffPosition="0.390625" Velocity="0" />
      <note Length="0.03125" Pitch="51" RiffPosition="0.4375" Velocity="0" />
      <note Length="0.0078125" Pitch="63" RiffPosition="0.46875" Velocity="0" />
      <note Length="0.0234375" Pitch="63" RiffPosition="0.4765625" Velocity="0" />
      <note Length="0.046875" Pitch="63" RiffPosition="0.5" Velocity="0" />
      <note Length="0.046875" Pitch="56" RiffPosition="0.546875" Velocity="0" />
      <note Length="0.046875" Pitch="46" RiffPosition="0.59375" Velocity="0" />
      <note Length="0.046875" Pitch="32" RiffPosition="0.640625" Velocity="0" />
      <note Length="0.03125" Pitch="32" RiffPosition="0.6875" Velocity="0" />
      <note Length="0.0078125" Pitch="41" RiffPosition="0.71875" Velocity="0" />
      <note Length="0.0234375" Pitch="27" RiffPosition="0.7265625" Velocity="0" />
      <note Length="0.046875" Pitch="29" RiffPosition="0.75" Velocity="0" />
      <note Length="0.046875" Pitch="39" RiffPosition="0.796875" Velocity="0" />
      <note Length="0.046875" Pitch="39" RiffPosition="0.84375" Velocity="0" />
      <note Length="0.046875" Pitch="66" RiffPosition="0.890625" Velocity="0" />
      <note Length="0.03125" Pitch="68" RiffPosition="0.9375" Velocity="0" />
      <note Length="0.0078125" Pitch="58" RiffPosition="0.96875" Velocity="0" />
      <note Length="0.0234375" Pitch="63" RiffPosition="0.9765625" Velocity="0" />
      <note Length="0.046875" Pitch="68" RiffPosition="1" Velocity="0" />
      <note Length="0.046875" Pitch="41" RiffPosition="1.046875" Velocity="0" />
      <note Length="0.046875" Pitch="55" RiffPosition="1.09375" Velocity="0" />
      <note Length="0.046875" Pitch="43" RiffPosition="1.140625" Velocity="0" />
      <note Length="0.03125" Pitch="43" RiffPosition="1.1875" Velocity="0" />
      <note Length="0.0078125" Pitch="36" RiffPosition="1.21875" Velocity="0" />
      <note Length="0.0234375" Pitch="32" RiffPosition="1.2265625" Velocity="0" />
      <note Length="0.046875" Pitch="29" RiffPosition="1.25" Velocity="0" />
      <note Length="0.046875" Pitch="58" RiffPosition="1.296875" Velocity="0" />
      <note Length="0.046875" Pitch="58" RiffPosition="1.34375" Velocity="0" />
      <note Length="0.046875" Pitch="53" RiffPosition="1.390625" Velocity="0" />
      <note Length="0.03125" Pitch="53" RiffPosition="1.4375" Velocity="0" />
      <note Length="0.0078125" Pitch="68" RiffPosition="1.46875" Velocity="0" />
      <note Length="0.0234375" Pitch="68" RiffPosition="1.4765625" Velocity="0" />
      <note Length="0.046875" Pitch="65" RiffPosition="1.5" Velocity="0" />
      <note Length="0.046875" Pitch="48" RiffPosition="1.546875" Velocity="0" />
      <note Length="0.046875" Pitch="41" RiffPosition="1.59375" Velocity="0" />
      <note Length="0.046875" Pitch="34" RiffPosition="1.640625" Velocity="0" />
      <note Length="0.03125" Pitch="37" RiffPosition="1.6875" Velocity="0" />
      <note Length="0.0078125" Pitch="43" RiffPosition="1.71875" Velocity="0" />
      <note Length="0.0234375" Pitch="29" RiffPosition="1.7265625" Velocity="0" />
      <note Length="0.046875" Pitch="36" RiffPosition="1.75" Velocity="0" />
      <note Length="0.046875" Pitch="41" RiffPosition="1.796875" Velocity="0" />
      <note Length="0.046875" Pitch="41" RiffPosition="1.84375" Velocity="0" />
      <note Length="0.046875" Pitch="70" RiffPosition="1.890625" Velocity="0" />
      <note Length="0.03125" Pitch="70" RiffPosition="1.9375" Velocity="0" />
      <note Length="0.0078125" Pitch="53" RiffPosition="1.96875" Velocity="0" />
      <note Length="0.0234375" Pitch="53" RiffPosition="1.9765625" Velocity="0" />
      <note Length="0.046875" Pitch="66" RiffPosition="2" Velocity="0" />
      <note Length="0.046875" Pitch="53" RiffPosition="2.046875" Velocity="0" />
      <note Length="0.046875" Pitch="56" RiffPosition="2.09375" Velocity="0" />
      <note Length="0.046875" Pitch="41" RiffPosition="2.140625" Velocity="0" />
      <note Length="0.03125" Pitch="29" RiffPosition="2.1875" Velocity="0" />
      <note Length="0.0078125" Pitch="34" RiffPosition="2.21875" Velocity="0" />
      <note Length="0.0234375" Pitch="34" RiffPosition="2.2265625" Velocity="0" />
      <note Length="0.046875" Pitch="42" RiffPosition="2.25" Velocity="0" />
      <note Length="0.046875" Pitch="56" RiffPosition="2.296875" Velocity="0" />
      <note Length="0.046875" Pitch="46" RiffPosition="2.34375" Velocity="0" />
      <note Length="0.046875" Pitch="63" RiffPosition="2.390625" Velocity="0" />
      <note Length="0.03125" Pitch="63" RiffPosition="2.4375" Velocity="0" />
      <note Length="0.0078125" Pitch="70" RiffPosition="2.46875" Velocity="0" />
      <note Length="0.0234375" Pitch="66" RiffPosition="2.4765625" Velocity="0" />
      <note Length="0.046875" Pitch="51" RiffPosition="2.5" Velocity="0" />
      <note Length="0.046875" Pitch="39" RiffPosition="2.546875" Velocity="0" />
      <note Length="0.046875" Pitch="39" RiffPosition="2.59375" Velocity="0" />
      <note Length="0.046875" Pitch="35" RiffPosition="2.640625" Velocity="0" />
      <note Length="0.03125" Pitch="27" RiffPosition="2.6875" Velocity="0" />
      <note Length="0.0078125" Pitch="29" RiffPosition="2.71875" Velocity="0" />
      <note Length="0.0234375" Pitch="42" RiffPosition="2.7265625" Velocity="0" />
      <note Length="0.046875" Pitch="27" RiffPosition="2.75" Velocity="0" />
      <note Length="0.046875" Pitch="39" RiffPosition="2.796875" Velocity="0" />
      <note Length="0.046875" Pitch="53" RiffPosition="2.84375" Velocity="0" />
      <note Length="0.046875" Pitch="63" RiffPosition="2.890625" Velocity="0" />
      <note Length="0.03125" Pitch="63" RiffPosition="2.9375" Velocity="0" />
      <note Length="0.0078125" Pitch="63" RiffPosition="2.96875" Velocity="0" />
      <note Length="0.0234375" Pitch="51" RiffPosition="2.9765625" Velocity="0" />
      <note Length="0.046875" Pitch="70" RiffPosition="3" Velocity="0" />
      <note Length="0.046875" Pitch="58" RiffPosition="3.046875" Velocity="0" />
      <note Length="0.046875" Pitch="58" RiffPosition="3.09375" Velocity="0" />
      <note Length="0.046875" Pitch="31" RiffPosition="3.140625" Velocity="0" />
      <note Length="0.03125" Pitch="34" RiffPosition="3.1875" Velocity="0" />
      <note Length="0.0078125" Pitch="29" RiffPosition="3.21875" Velocity="0" />
      <note Length="0.0234375" Pitch="29" RiffPosition="3.2265625" Velocity="0" />
      <note Length="0.046875" Pitch="31" RiffPosition="3.25" Velocity="0" />
      <note Length="0.046875" Pitch="48" RiffPosition="3.296875" Velocity="0" />
      <note Length="0.046875" Pitch="41" RiffPosition="3.34375" Velocity="0" />
      <note Length="0.046875" Pitch="65" RiffPosition="3.390625" Velocity="0" />
      <note Length="0.03125" Pitch="68" RiffPosition="3.4375" Velocity="0" />
      <note Length="0.0078125" Pitch="65" RiffPosition="3.46875" Velocity="0" />
      <note Length="0.0234375" Pitch="72" RiffPosition="3.4765625" Velocity="0" />
      <note Length="0.046875" Pitch="65" RiffPosition="3.5" Velocity="0" />
      <note Length="0.046875" Pitch="41" RiffPosition="3.546875" Velocity="0" />
      <note Length="0.046875" Pitch="41" RiffPosition="3.59375" Velocity="0" />
      <note Length="0.046875" Pitch="29" RiffPosition="3.640625" Velocity="0" />
      <note Length="0.03125" Pitch="43" RiffPosition="3.6875" Velocity="0" />
      <note Length="0.0078125" Pitch="34" RiffPosition="3.71875" Velocity="0" />
      <note Length="0.0234375" Pitch="32" RiffPosition="3.7265625" Velocity="0" />
      <note Length="0.046875" Pitch="29" RiffPosition="3.75" Velocity="0" />
      <note Length="0.046875" Pitch="55" RiffPosition="3.796875" Velocity="0" />
      <note Length="0.046875" Pitch="58" RiffPosition="3.84375" Velocity="0" />
      <note Length="0.046875" Pitch="65" RiffPosition="3.890625" Velocity="0" />
      <note Length="0.03125" Pitch="53" RiffPosition="3.9375" Velocity="0" />
      <note Length="0.0078125" Pitch="67" RiffPosition="3.96875" Velocity="0" />
      <note Length="0.0234375" Pitch="65" RiffPosition="3.9765625" Velocity="0" />
      <note Length="0.046875" Pitch="65" RiffPosition="4" Velocity="0" />
      <note Length="0.046875" Pitch="58" RiffPosition="4.046875" Velocity="0" />
      <note Length="0.046875" Pitch="48" RiffPosition="4.09375" Velocity="0" />
      <note Length="0.046875" Pitch="34" RiffPosition="4.140625" Velocity="0" />
      <note Length="0.03125" Pitch="34" RiffPosition="4.1875" Velocity="0" />
      <note Length="0.0078125" Pitch="43" RiffPosition="4.21875" Velocity="0" />
      <note Length="0.0234375" Pitch="29" RiffPosition="4.2265625" Velocity="0" />
      <note Length="0.046875" Pitch="32" RiffPosition="4.25" Velocity="0" />
      <note Length="0.046875" Pitch="41" RiffPosition="4.296875" Velocity="0" />
      <note Length="0.046875" Pitch="41" RiffPosition="4.34375" Velocity="0" />
      <note Length="0.046875" Pitch="68" RiffPosition="4.390625" Velocity="0" />
      <note Length="0.03125" Pitch="70" RiffPosition="4.4375" Velocity="0" />
      <note Length="0.0078125" Pitch="60" RiffPosition="4.46875" Velocity="0" />
      <note Length="0.0234375" Pitch="65" RiffPosition="4.4765625" Velocity="0" />
      <note Length="0.046875" Pitch="68" RiffPosition="4.5" Velocity="0" />
      <note Length="0.046875" Pitch="53" RiffPosition="4.546875" Velocity="0" />
      <note Length="0.046875" Pitch="55" RiffPosition="4.59375" Velocity="0" />
      <note Length="0.046875" Pitch="43" RiffPosition="4.640625" Velocity="0" />
      <note Length="0.03125" Pitch="43" RiffPosition="4.6875" Velocity="0" />
      <note Length="0.0078125" Pitch="36" RiffPosition="4.71875" Velocity="0" />
      <note Length="0.0234375" Pitch="32" RiffPosition="4.7265625" Velocity="0" />
      <note Length="0.046875" Pitch="29" RiffPosition="4.75" Velocity="0" />
      <note Length="0.046875" Pitch="58" RiffPosition="4.796875" Velocity="0" />
      <note Length="0.046875" Pitch="58" RiffPosition="4.84375" Velocity="0" />
      <note Length="0.046875" Pitch="53" RiffPosition="4.890625" Velocity="0" />
      <note Length="0.03125" Pitch="53" RiffPosition="4.9375" Velocity="0" />
      <note Length="0.0078125" Pitch="70" RiffPosition="4.96875" Velocity="0" />
      <note Length="0.0234375" Pitch="68" RiffPosition="4.9765625" Velocity="0" />
      <note Length="0.046875" Pitch="53" RiffPosition="5" Velocity="0" />
      <note Length="0.046875" Pitch="48" RiffPosition="5.046875" Velocity="0" />
      <note Length="0.046875" Pitch="41" RiffPosition="5.09375" Velocity="0" />
      <note Length="0.046875" Pitch="34" RiffPosition="5.140625" Velocity="0" />
      <note Length="0.03125" Pitch="37" RiffPosition="5.1875" Velocity="0" />
      <note Length="0.0078125" Pitch="46" RiffPosition="5.21875" Velocity="0" />
      <note Length="0.0234375" Pitch="29" RiffPosition="5.2265625" Velocity="0" />
      <note Length="0.046875" Pitch="36" RiffPosition="5.25" Velocity="0" />
      <note Length="0.046875" Pitch="41" RiffPosition="5.296875" Velocity="0" />
      <note Length="0.046875" Pitch="41" RiffPosition="5.34375" Velocity="0" />
      <note Length="0.046875" Pitch="70" RiffPosition="5.390625" Velocity="0" />
      <note Length="0.03125" Pitch="65" RiffPosition="5.4375" Velocity="0" />
      <note Length="0.0078125" Pitch="53" RiffPosition="5.46875" Velocity="0" />
      <note Length="0.0234375" Pitch="53" RiffPosition="5.4765625" Velocity="0" />
      <note Length="0.046875" Pitch="68" RiffPosition="5.5" Velocity="0" />
      <note Length="0.046875" Pitch="56" RiffPosition="5.546875" Velocity="0" />
      <note Length="0.046875" Pitch="58" RiffPosition="5.59375" Velocity="0" />
      <note Length="0.046875" Pitch="44" RiffPosition="5.640625" Velocity="0" />
      <note Length="0.03125" Pitch="31" RiffPosition="5.6875" Velocity="0" />
      <note Length="0.0078125" Pitch="36" RiffPosition="5.71875" Velocity="0" />
      <note Length="0.0234375" Pitch="36" RiffPosition="5.7265625" Velocity="0" />
      <note Length="0.046875" Pitch="44" RiffPosition="5.75" Velocity="0" />
      <note Length="0.046875" Pitch="58" RiffPosition="5.796875" Velocity="0" />
      <note Length="0.046875" Pitch="48" RiffPosition="5.84375" Velocity="0" />
      <note Length="0.046875" Pitch="65" RiffPosition="5.890625" Velocity="0" />
      <note Length="0.03125" Pitch="65" RiffPosition="5.9375" Velocity="0" />
      <note Length="0.0078125" Pitch="65" RiffPosition="5.96875" Velocity="0" />
      <note Length="0.0234375" Pitch="68" RiffPosition="5.9765625" Velocity="0" />
      <note Length="0.046875" Pitch="53" RiffPosition="6" Velocity="0" />
      <note Length="0.046875" Pitch="41" RiffPosition="6.046875" Velocity="0" />
      <note Length="0.046875" Pitch="41" RiffPosition="6.09375" Velocity="0" />
      <note Length="0.046875" Pitch="37" RiffPosition="6.140625" Velocity="0" />
      <note Length="0.03125" Pitch="29" RiffPosition="6.1875" Velocity="0" />
      <note Length="0.0078125" Pitch="31" RiffPosition="6.21875" Velocity="0" />
      <note Length="0.0234375" Pitch="44" RiffPosition="6.2265625" Velocity="0" />
      <note Length="0.046875" Pitch="29" RiffPosition="6.25" Velocity="0" />
      <note Length="0.046875" Pitch="53" RiffPosition="6.296875" Velocity="0" />
      <note Length="0.046875" Pitch="55" RiffPosition="6.34375" Velocity="0" />
      <note Length="0.046875" Pitch="65" RiffPosition="6.390625" Velocity="0" />
      <note Length="0.03125" Pitch="65" RiffPosition="6.4375" Velocity="0" />
      <note Length="0.0078125" Pitch="65" RiffPosition="6.46875" Velocity="0" />
      <note Length="0.0234375" Pitch="53" RiffPosition="6.4765625" Velocity="0" />
      <note Length="0.046875" Pitch="72" RiffPosition="6.5" Velocity="0" />
      <note Length="0.046875" Pitch="58" RiffPosition="6.546875" Velocity="0" />
      <note Length="0.046875" Pitch="58" RiffPosition="6.59375" Velocity="0" />
      <note Length="0.046875" Pitch="31" RiffPosition="6.640625" Velocity="0" />
      <note Length="0.03125" Pitch="34" RiffPosition="6.6875" Velocity="0" />
      <note Length="0.0078125" Pitch="29" RiffPosition="6.71875" Velocity="0" />
      <note Length="0.0234375" Pitch="29" RiffPosition="6.7265625" Velocity="0" />
      <note Length="0.046875" Pitch="32" RiffPosition="6.75" Velocity="0" />
      <note Length="0.046875" Pitch="48" RiffPosition="6.796875" Velocity="0" />
      <note Length="0.046875" Pitch="41" RiffPosition="6.84375" Velocity="0" />
      <note Length="0.046875" Pitch="68" RiffPosition="6.890625" Velocity="0" />
      <note Length="0.03125" Pitch="68" RiffPosition="6.9375" Velocity="0" />
      <note Length="0.0078125" Pitch="65" RiffPosition="6.96875" Velocity="0" />
      <note Length="0.0234375" Pitch="72" RiffPosition="6.9765625" Velocity="0" />
      <note Length="0.046875" Pitch="65" RiffPosition="7" Velocity="0" />
      <note Length="0.046875" Pitch="41" RiffPosition="7.046875" Velocity="0" />
      <note Length="0.046875" Pitch="41" RiffPosition="7.09375" Velocity="0" />
      <note Length="0.046875" Pitch="29" RiffPosition="7.140625" Velocity="0" />
      <note Length="0.03125" Pitch="43" RiffPosition="7.1875" Velocity="0" />
      <note Length="0.0078125" Pitch="34" RiffPosition="7.21875" Velocity="0" />
      <note Length="0.0234375" Pitch="32" RiffPosition="7.2265625" Velocity="0" />
      <note Length="0.046875" Pitch="29" RiffPosition="7.25" Velocity="0" />
      <note Length="0.046875" Pitch="56" RiffPosition="7.296875" Velocity="0" />
      <note Length="0.046875" Pitch="58" RiffPosition="7.34375" Velocity="0" />
      <note Length="0.046875" Pitch="65" RiffPosition="7.390625" Velocity="0" />
      <note Length="0.03125" Pitch="53" RiffPosition="7.4375" Velocity="0" />
      <note Length="0.0078125" Pitch="67" RiffPosition="7.46875" Velocity="0" />
      <note Length="0.0234375" Pitch="65" RiffPosition="7.4765625" Velocity="0" />
      <note Length="0.046875" Pitch="65" RiffPosition="7.5" Velocity="0" />
      <note Length="0.046875" Pitch="48" RiffPosition="7.546875" Velocity="0" />
      <note Length="0.046875" Pitch="48" RiffPosition="7.59375" Velocity="0" />
      <note Length="0.046875" Pitch="34" RiffPosition="7.640625" Velocity="0" />
      <note Length="0.03125" Pitch="34" RiffPosition="7.6875" Velocity="0" />
      <note Length="0.0078125" Pitch="43" RiffPosition="7.71875" Velocity="0" />
      <note Length="0.0234375" Pitch="29" RiffPosition="7.7265625" Velocity="0" />
      <note Length="0.046875" Pitch="32" RiffPosition="7.75" Velocity="0" />
      <note Length="0.046875" Pitch="41" RiffPosition="7.796875" Velocity="0" />
      <note Length="0.046875" Pitch="41" RiffPosition="7.84375" Velocity="0" />
      <note Length="0.046875" Pitch="68" RiffPosition="7.890625" Velocity="0" />
      <note Length="0.03125" Pitch="70" RiffPosition="7.9375" Velocity="0" />
      <note Length="0.0078125" Pitch="53" RiffPosition="7.96875" Velocity="0" />
      <note Length="0.0234375" Pitch="65" RiffPosition="7.9765625" Velocity="0" />
      <note Length="0.046875" Pitch="66" RiffPosition="8" Velocity="43" />
      <note Length="0.046875" Pitch="51" RiffPosition="8.046875" Velocity="66" />
      <note Length="0.046875" Pitch="54" RiffPosition="8.09375" Velocity="99" />
      <note Length="0.046875" Pitch="42" RiffPosition="8.140625" Velocity="110" />
      <note Length="0.03125" Pitch="42" RiffPosition="8.1875" Velocity="72" />
      <note Length="0.0078125" Pitch="34" RiffPosition="8.21875" Velocity="55" />
      <note Length="0.0234375" Pitch="30" RiffPosition="8.2265625" Velocity="44" />
      <note Length="0.046875" Pitch="27" RiffPosition="8.25" Velocity="50" />
      <note Length="0.046875" Pitch="56" RiffPosition="8.296875" Velocity="58" />
      <note Length="0.046875" Pitch="56" RiffPosition="8.34375" Velocity="79" />
      <note Length="0.046875" Pitch="51" RiffPosition="8.390625" Velocity="100" />
      <note Length="0.03125" Pitch="63" RiffPosition="8.4375" Velocity="71" />
      <note Length="0.0078125" Pitch="68" RiffPosition="8.46875" Velocity="67" />
      <note Length="0.0234375" Pitch="66" RiffPosition="8.4765625" Velocity="56" />
      <note Length="0.046875" Pitch="51" RiffPosition="8.5" Velocity="50" />
      <note Length="0.046875" Pitch="46" RiffPosition="8.546875" Velocity="41" />
      <note Length="0.046875" Pitch="39" RiffPosition="8.59375" Velocity="77" />
      <note Length="0.046875" Pitch="35" RiffPosition="8.640625" Velocity="105" />
      <note Length="0.03125" Pitch="35" RiffPosition="8.6875" Velocity="83" />
      <note Length="0.0078125" Pitch="44" RiffPosition="8.71875" Velocity="78" />
      <note Length="0.0234375" Pitch="27" RiffPosition="8.7265625" Velocity="70" />
      <note Length="0.046875" Pitch="34" RiffPosition="8.75" Velocity="67" />
      <note Length="0.046875" Pitch="51" RiffPosition="8.796875" Velocity="52" />
      <note Length="0.046875" Pitch="51" RiffPosition="8.84375" Velocity="91" />
      <note Length="0.046875" Pitch="68" RiffPosition="8.890625" Velocity="115" />
      <note Length="0.03125" Pitch="63" RiffPosition="8.9375" Velocity="90" />
      <note Length="0.0078125" Pitch="51" RiffPosition="8.96875" Velocity="61" />
      <note Length="0.0234375" Pitch="51" RiffPosition="8.9765625" Velocity="61" />
      <note Length="0.046875" Pitch="68" RiffPosition="9" Velocity="46" />
      <note Length="0.046875" Pitch="56" RiffPosition="9.046875" Velocity="63" />
      <note Length="0.046875" Pitch="58" RiffPosition="9.09375" Velocity="96" />
      <note Length="0.046875" Pitch="44" RiffPosition="9.140625" Velocity="107" />
      <note Length="0.03125" Pitch="31" RiffPosition="9.1875" Velocity="82" />
      <note Length="0.0078125" Pitch="36" RiffPosition="9.21875" Velocity="51" />
      <note Length="0.0234375" Pitch="36" RiffPosition="9.2265625" Velocity="40" />
      <note Length="0.046875" Pitch="44" RiffPosition="9.25" Velocity="40" />
      <note Length="0.046875" Pitch="48" RiffPosition="9.296875" Velocity="61" />
      <note Length="0.046875" Pitch="48" RiffPosition="9.34375" Velocity="83" />
      <note Length="0.046875" Pitch="65" RiffPosition="9.390625" Velocity="90" />
      <note Length="0.03125" Pitch="65" RiffPosition="9.4375" Velocity="74" />
      <note Length="0.0078125" Pitch="65" RiffPosition="9.46875" Velocity="57" />
      <note Length="0.0234375" Pitch="72" RiffPosition="9.4765625" Velocity="60" />
      <note Length="0.046875" Pitch="53" RiffPosition="9.5" Velocity="54" />
      <note Length="0.046875" Pitch="41" RiffPosition="9.546875" Velocity="51" />
      <note Length="0.046875" Pitch="41" RiffPosition="9.59375" Velocity="73" />
      <note Length="0.046875" Pitch="29" RiffPosition="9.640625" Velocity="101" />
      <note Length="0.03125" Pitch="29" RiffPosition="9.6875" Velocity="93" />
      <note Length="0.0078125" Pitch="31" RiffPosition="9.71875" Velocity="74" />
      <note Length="0.0234375" Pitch="44" RiffPosition="9.7265625" Velocity="80" />
      <note Length="0.046875" Pitch="29" RiffPosition="9.75" Velocity="63" />
      <note Length="0.046875" Pitch="53" RiffPosition="9.796875" Velocity="55" />
      <note Length="0.046875" Pitch="56" RiffPosition="9.84375" Velocity="81" />
      <note Length="0.046875" Pitch="65" RiffPosition="9.890625" Velocity="119" />
      <note Length="0.03125" Pitch="65" RiffPosition="9.9375" Velocity="93" />
      <note Length="0.0078125" Pitch="67" RiffPosition="9.96875" Velocity="65" />
      <note Length="0.0234375" Pitch="53" RiffPosition="9.9765625" Velocity="64" />
      <note Length="0.046875" Pitch="70" RiffPosition="10" Velocity="50" />
      <note Length="0.046875" Pitch="56" RiffPosition="10.046875" Velocity="73" />
      <note Length="0.046875" Pitch="46" RiffPosition="10.09375" Velocity="92" />
      <note Length="0.046875" Pitch="29" RiffPosition="10.140625" Velocity="103" />
      <note Length="0.03125" Pitch="32" RiffPosition="10.1875" Velocity="78" />
      <note Length="0.0078125" Pitch="27" RiffPosition="10.21875" Velocity="48" />
      <note Length="0.0234375" Pitch="27" RiffPosition="10.2265625" Velocity="50" />
      <note Length="0.046875" Pitch="30" RiffPosition="10.25" Velocity="43" />
      <note Length="0.046875" Pitch="46" RiffPosition="10.296875" Velocity="65" />
      <note Length="0.046875" Pitch="39" RiffPosition="10.34375" Velocity="73" />
      <note Length="0.046875" Pitch="66" RiffPosition="10.390625" Velocity="93" />
      <note Length="0.03125" Pitch="66" RiffPosition="10.4375" Velocity="78" />
      <note Length="0.0078125" Pitch="63" RiffPosition="10.46875" Velocity="61" />
      <note Length="0.0234375" Pitch="70" RiffPosition="10.4765625" Velocity="64" />
      <note Length="0.046875" Pitch="63" RiffPosition="10.5" Velocity="58" />
      <note Length="0.046875" Pitch="51" RiffPosition="10.546875" Velocity="48" />
      <note Length="0.046875" Pitch="51" RiffPosition="10.59375" Velocity="69" />
      <note Length="0.046875" Pitch="27" RiffPosition="10.640625" Velocity="111" />
      <note Length="0.03125" Pitch="41" RiffPosition="10.6875" Velocity="90" />
      <note Length="0.0078125" Pitch="32" RiffPosition="10.71875" Velocity="71" />
      <note Length="0.0234375" Pitch="30" RiffPosition="10.7265625" Velocity="76" />
      <note Length="0.046875" Pitch="27" RiffPosition="10.75" Velocity="60" />
      <note Length="0.046875" Pitch="54" RiffPosition="10.796875" Velocity="59" />
      <note Length="0.046875" Pitch="56" RiffPosition="10.84375" Velocity="84" />
      <note Length="0.046875" Pitch="63" RiffPosition="10.890625" Velocity="122" />
      <note Length="0.03125" Pitch="51" RiffPosition="10.9375" Velocity="97" />
      <note Length="0.0078125" Pitch="68" RiffPosition="10.96875" Velocity="68" />
      <note Length="0.0234375" Pitch="63" RiffPosition="10.9765625" Velocity="68" />
      <note Length="0.046875" Pitch="66" RiffPosition="11" Velocity="40" />
      <note Length="0.046875" Pitch="49" RiffPosition="11.046875" Velocity="69" />
      <note Length="0.046875" Pitch="49" RiffPosition="11.09375" Velocity="89" />
      <note Length="0.046875" Pitch="35" RiffPosition="11.140625" Velocity="113" />
      <note Length="0.03125" Pitch="38" RiffPosition="11.1875" Velocity="74" />
      <note Length="0.0078125" Pitch="44" RiffPosition="11.21875" Velocity="58" />
      <note Length="0.0234375" Pitch="30" RiffPosition="11.2265625" Velocity="47" />
      <note Length="0.046875" Pitch="33" RiffPosition="11.25" Velocity="47" />
      <note Length="0.046875" Pitch="42" RiffPosition="11.296875" Velocity="55" />
      <note Length="0.046875" Pitch="42" RiffPosition="11.34375" Velocity="76" />
      <note Length="0.046875" Pitch="69" RiffPosition="11.390625" Velocity="97" />
      <note Length="0.03125" Pitch="71" RiffPosition="11.4375" Velocity="68" />
      <note Length="0.0078125" Pitch="54" RiffPosition="11.46875" Velocity="65" />
      <note Length="0.0234375" Pitch="66" RiffPosition="11.4765625" Velocity="54" />
      <note Length="0.046875" Pitch="69" RiffPosition="11.5" Velocity="48" />
      <note Length="0.046875" Pitch="54" RiffPosition="11.546875" Velocity="44" />
      <note Length="0.046875" Pitch="57" RiffPosition="11.59375" Velocity="66" />
      <note Length="0.046875" Pitch="45" RiffPosition="11.640625" Velocity="108" />
      <note Length="0.03125" Pitch="45" RiffPosition="11.6875" Velocity="86" />
      <note Length="0.0078125" Pitch="37" RiffPosition="11.71875" Velocity="81" />
      <note Length="0.0234375" Pitch="33" RiffPosition="11.7265625" Velocity="73" />
      <note Length="0.046875" Pitch="30" RiffPosition="11.75" Velocity="56" />
      <note Length="0.046875" Pitch="59" RiffPosition="11.796875" Velocity="49" />
      <note Length="0.046875" Pitch="49" RiffPosition="11.84375" Velocity="88" />
      <note Length="0.046875" Pitch="54" RiffPosition="11.890625" Velocity="126" />
      <note Length="0.03125" Pitch="66" RiffPosition="11.9375" Velocity="87" />
      <note Length="0.0078125" Pitch="71" RiffPosition="11.96875" Velocity="72" />
      <note Length="0.0234375" Pitch="69" RiffPosition="11.9765625" Velocity="58" />
      <note Length="0.046875" Pitch="53" RiffPosition="12" Velocity="0" />
      <note Length="0.046875" Pitch="48" RiffPosition="12.046875" Velocity="0" />
      <note Length="0.046875" Pitch="41" RiffPosition="12.09375" Velocity="0" />
      <note Length="0.046875" Pitch="29" RiffPosition="12.140625" Velocity="0" />
      <note Length="0.03125" Pitch="29" RiffPosition="12.1875" Velocity="0" />
      <note Length="0.0078125" Pitch="46" RiffPosition="12.21875" Velocity="0" />
      <note Length="0.0234375" Pitch="43" RiffPosition="12.2265625" Velocity="0" />
      <note Length="0.046875" Pitch="36" RiffPosition="12.25" Velocity="0" />
      <note Length="0.046875" Pitch="53" RiffPosition="12.296875" Velocity="0" />
      <note Length="0.046875" Pitch="53" RiffPosition="12.34375" Velocity="0" />
      <note Length="0.046875" Pitch="70" RiffPosition="12.390625" Velocity="0" />
      <note Length="0.03125" Pitch="65" RiffPosition="12.4375" Velocity="0" />
      <note Length="0.0078125" Pitch="53" RiffPosition="12.46875" Velocity="0" />
      <note Length="0.0234375" Pitch="53" RiffPosition="12.4765625" Velocity="0" />
      <note Length="0.046875" Pitch="72" RiffPosition="12.5" Velocity="0" />
      <note Length="0.046875" Pitch="56" RiffPosition="12.546875" Velocity="0" />
      <note Length="0.046875" Pitch="58" RiffPosition="12.59375" Velocity="0" />
      <note Length="0.046875" Pitch="44" RiffPosition="12.640625" Velocity="0" />
      <note Length="0.03125" Pitch="31" RiffPosition="12.6875" Velocity="0" />
      <note Length="0.0078125" Pitch="29" RiffPosition="12.71875" Velocity="0" />
      <note Length="0.0234375" Pitch="36" RiffPosition="12.7265625" Velocity="0" />
      <note Length="0.046875" Pitch="44" RiffPosition="12.75" Velocity="0" />
      <note Length="0.046875" Pitch="48" RiffPosition="12.796875" Velocity="0" />
      <note Length="0.046875" Pitch="48" RiffPosition="12.84375" Velocity="0" />
      <note Length="0.046875" Pitch="65" RiffPosition="12.890625" Velocity="0" />
      <note Length="0.03125" Pitch="68" RiffPosition="12.9375" Velocity="0" />
      <note Length="0.0078125" Pitch="65" RiffPosition="12.96875" Velocity="0" />
      <note Length="0.0234375" Pitch="72" RiffPosition="12.9765625" Velocity="0" />
      <note Length="0.046875" Pitch="53" RiffPosition="13" Velocity="0" />
      <note Length="0.046875" Pitch="41" RiffPosition="13.046875" Velocity="0" />
      <note Length="0.046875" Pitch="53" RiffPosition="13.09375" Velocity="0" />
      <note Length="0.046875" Pitch="29" RiffPosition="13.140625" Velocity="0" />
      <note Length="0.03125" Pitch="29" RiffPosition="13.1875" Velocity="0" />
      <note Length="0.0078125" Pitch="31" RiffPosition="13.21875" Velocity="0" />
      <note Length="0.0234375" Pitch="46" RiffPosition="13.2265625" Velocity="0" />
      <note Length="0.046875" Pitch="29" RiffPosition="13.25" Velocity="0" />
      <note Length="0.046875" Pitch="56" RiffPosition="13.296875" Velocity="0" />
      <note Length="0.046875" Pitch="56" RiffPosition="13.34375" Velocity="0" />
      <note Length="0.046875" Pitch="65" RiffPosition="13.390625" Velocity="0" />
      <note Length="0.03125" Pitch="65" RiffPosition="13.4375" Velocity="0" />
      <note Length="0.0078125" Pitch="67" RiffPosition="13.46875" Velocity="0" />
      <note Length="0.0234375" Pitch="53" RiffPosition="13.4765625" Velocity="0" />
      <note Length="0.046875" Pitch="72" RiffPosition="13.5" Velocity="0" />
      <note Length="0.046875" Pitch="58" RiffPosition="13.546875" Velocity="0" />
      <note Length="0.046875" Pitch="48" RiffPosition="13.59375" Velocity="0" />
      <note Length="0.046875" Pitch="32" RiffPosition="13.640625" Velocity="0" />
      <note Length="0.03125" Pitch="34" RiffPosition="13.6875" Velocity="0" />
      <note Length="0.0078125" Pitch="29" RiffPosition="13.71875" Velocity="0" />
      <note Length="0.0234375" Pitch="29" RiffPosition="13.7265625" Velocity="0" />
      <note Length="0.046875" Pitch="32" RiffPosition="13.75" Velocity="0" />
      <note Length="0.046875" Pitch="48" RiffPosition="13.796875" Velocity="0" />
      <note Length="0.046875" Pitch="41" RiffPosition="13.84375" Velocity="0" />
      <note Length="0.046875" Pitch="68" RiffPosition="13.890625" Velocity="0" />
      <note Length="0.03125" Pitch="68" RiffPosition="13.9375" Velocity="0" />
      <note Length="0.0078125" Pitch="65" RiffPosition="13.96875" Velocity="0" />
      <note Length="0.0234375" Pitch="72" RiffPosition="13.9765625" Velocity="0" />
    </riff>
    <riff IsDrum="False" MidiInstrument="19" Tempo="75" Length="14">
      <note Length="0.03125" Pitch="54" RiffPosition="0" Velocity="0" />
      <note Length="0.03125" Pitch="66" RiffPosition="0.03125" Velocity="0" />
      <note Length="0.03125" Pitch="66" RiffPosition="0.0625" Velocity="0" />
      <note Length="0.03125" Pitch="56" RiffPosition="0.09375" Velocity="0" />
      <note Length="0.046875" Pitch="39" RiffPosition="0.125" Velocity="0" />
      <note Length="0.046875" Pitch="27" RiffPosition="0.171875" Velocity="0" />
      <note Length="0.015625" Pitch="39" RiffPosition="0.21875" Velocity="0" />
      <note Length="0.015625" Pitch="53" RiffPosition="0.234375" Velocity="0" />
      <note Length="0.03125" Pitch="56" RiffPosition="0.25" Velocity="0" />
      <note Length="0.03125" Pitch="51" RiffPosition="0.28125" Velocity="0" />
      <note Length="0.03125" Pitch="51" RiffPosition="0.3125" Velocity="0" />
      <note Length="0.03125" Pitch="39" RiffPosition="0.34375" Velocity="0" />
      <note Length="0.046875" Pitch="41" RiffPosition="0.375" Velocity="0" />
      <note Length="0.046875" Pitch="27" RiffPosition="0.421875" Velocity="0" />
      <note Length="0.015625" Pitch="54" RiffPosition="0.46875" Velocity="0" />
      <note Length="0.015625" Pitch="51" RiffPosition="0.484375" Velocity="0" />
      <note Length="0.03125" Pitch="65" RiffPosition="0.5" Velocity="0" />
      <note Length="0.03125" Pitch="68" RiffPosition="0.53125" Velocity="0" />
      <note Length="0.03125" Pitch="51" RiffPosition="0.5625" Velocity="0" />
      <note Length="0.03125" Pitch="39" RiffPosition="0.59375" Velocity="0" />
      <note Length="0.046875" Pitch="35" RiffPosition="0.625" Velocity="0" />
      <note Length="0.046875" Pitch="32" RiffPosition="0.671875" Velocity="0" />
      <note Length="0.015625" Pitch="39" RiffPosition="0.71875" Velocity="0" />
      <note Length="0.015625" Pitch="56" RiffPosition="0.734375" Velocity="0" />
      <note Length="0.03125" Pitch="65" RiffPosition="0.75" Velocity="0" />
      <note Length="0.03125" Pitch="63" RiffPosition="0.78125" Velocity="0" />
      <note Length="0.03125" Pitch="70" RiffPosition="0.8125" Velocity="0" />
      <note Length="0.03125" Pitch="56" RiffPosition="0.84375" Velocity="0" />
      <note Length="0.046875" Pitch="41" RiffPosition="0.875" Velocity="0" />
      <note Length="0.046875" Pitch="32" RiffPosition="0.921875" Velocity="0" />
      <note Length="0.015625" Pitch="44" RiffPosition="0.96875" Velocity="0" />
      <note Length="0.015625" Pitch="39" RiffPosition="0.984375" Velocity="0" />
      <note Length="0.03125" Pitch="58" RiffPosition="1" Velocity="0" />
      <note Length="0.03125" Pitch="68" RiffPosition="1.03125" Velocity="0" />
      <note Length="0.03125" Pitch="68" RiffPosition="1.0625" Velocity="0" />
      <note Length="0.03125" Pitch="60" RiffPosition="1.09375" Velocity="0" />
      <note Length="0.046875" Pitch="49" RiffPosition="1.125" Velocity="0" />
      <note Length="0.046875" Pitch="43" RiffPosition="1.171875" Velocity="0" />
      <note Length="0.015625" Pitch="41" RiffPosition="1.21875" Velocity="0" />
      <note Length="0.015625" Pitch="53" RiffPosition="1.234375" Velocity="0" />
      <note Length="0.03125" Pitch="58" RiffPosition="1.25" Velocity="0" />
      <note Length="0.03125" Pitch="53" RiffPosition="1.28125" Velocity="0" />
      <note Length="0.03125" Pitch="60" RiffPosition="1.3125" Velocity="0" />
      <note Length="0.03125" Pitch="41" RiffPosition="1.34375" Velocity="0" />
      <note Length="0.046875" Pitch="43" RiffPosition="1.375" Velocity="0" />
      <note Length="0.046875" Pitch="43" RiffPosition="1.421875" Velocity="0" />
      <note Length="0.015625" Pitch="56" RiffPosition="1.46875" Velocity="0" />
      <note Length="0.015625" Pitch="53" RiffPosition="1.484375" Velocity="0" />
      <note Length="0.03125" Pitch="68" RiffPosition="1.5" Velocity="0" />
      <note Length="0.03125" Pitch="70" RiffPosition="1.53125" Velocity="0" />
      <note Length="0.03125" Pitch="53" RiffPosition="1.5625" Velocity="0" />
      <note Length="0.03125" Pitch="41" RiffPosition="1.59375" Velocity="0" />
      <note Length="0.046875" Pitch="37" RiffPosition="1.625" Velocity="0" />
      <note Length="0.046875" Pitch="32" RiffPosition="1.671875" Velocity="0" />
      <note Length="0.015625" Pitch="41" RiffPosition="1.71875" Velocity="0" />
      <note Length="0.015625" Pitch="60" RiffPosition="1.734375" Velocity="0" />
      <note Length="0.03125" Pitch="65" RiffPosition="1.75" Velocity="0" />
      <note Length="0.03125" Pitch="65" RiffPosition="1.78125" Velocity="0" />
      <note Length="0.03125" Pitch="65" RiffPosition="1.8125" Velocity="0" />
      <note Length="0.03125" Pitch="58" RiffPosition="1.84375" Velocity="0" />
      <note Length="0.046875" Pitch="44" RiffPosition="1.875" Velocity="0" />
      <note Length="0.046875" Pitch="32" RiffPosition="1.921875" Velocity="0" />
      <note Length="0.015625" Pitch="46" RiffPosition="1.96875" Velocity="0" />
      <note Length="0.015625" Pitch="41" RiffPosition="1.984375" Velocity="0" />
      <note Length="0.03125" Pitch="56" RiffPosition="2" Velocity="0" />
      <note Length="0.03125" Pitch="66" RiffPosition="2.03125" Velocity="0" />
      <note Length="0.03125" Pitch="66" RiffPosition="2.0625" Velocity="0" />
      <note Length="0.03125" Pitch="56" RiffPosition="2.09375" Velocity="0" />
      <note Length="0.046875" Pitch="39" RiffPosition="2.125" Velocity="0" />
      <note Length="0.046875" Pitch="27" RiffPosition="2.171875" Velocity="0" />
      <note Length="0.015625" Pitch="39" RiffPosition="2.21875" Velocity="0" />
      <note Length="0.015625" Pitch="51" RiffPosition="2.234375" Velocity="0" />
      <note Length="0.03125" Pitch="56" RiffPosition="2.25" Velocity="0" />
      <note Length="0.03125" Pitch="51" RiffPosition="2.28125" Velocity="0" />
      <note Length="0.03125" Pitch="56" RiffPosition="2.3125" Velocity="0" />
      <note Length="0.03125" Pitch="39" RiffPosition="2.34375" Velocity="0" />
      <note Length="0.046875" Pitch="41" RiffPosition="2.375" Velocity="0" />
      <note Length="0.046875" Pitch="41" RiffPosition="2.421875" Velocity="0" />
      <note Length="0.015625" Pitch="54" RiffPosition="2.46875" Velocity="0" />
      <note Length="0.015625" Pitch="51" RiffPosition="2.484375" Velocity="0" />
      <note Length="0.03125" Pitch="66" RiffPosition="2.5" Velocity="0" />
      <note Length="0.03125" Pitch="70" RiffPosition="2.53125" Velocity="0" />
      <note Length="0.03125" Pitch="51" RiffPosition="2.5625" Velocity="0" />
      <note Length="0.03125" Pitch="39" RiffPosition="2.59375" Velocity="0" />
      <note Length="0.046875" Pitch="34" RiffPosition="2.625" Velocity="0" />
      <note Length="0.046875" Pitch="32" RiffPosition="2.671875" Velocity="0" />
      <note Length="0.015625" Pitch="39" RiffPosition="2.71875" Velocity="0" />
      <note Length="0.015625" Pitch="56" RiffPosition="2.734375" Velocity="0" />
      <note Length="0.03125" Pitch="65" RiffPosition="2.75" Velocity="0" />
      <note Length="0.03125" Pitch="63" RiffPosition="2.78125" Velocity="0" />
      <note Length="0.03125" Pitch="70" RiffPosition="2.8125" Velocity="0" />
      <note Length="0.03125" Pitch="56" RiffPosition="2.84375" Velocity="0" />
      <note Length="0.046875" Pitch="41" RiffPosition="2.875" Velocity="0" />
      <note Length="0.046875" Pitch="32" RiffPosition="2.921875" Velocity="0" />
      <note Length="0.015625" Pitch="44" RiffPosition="2.96875" Velocity="0" />
      <note Length="0.015625" Pitch="39" RiffPosition="2.984375" Velocity="0" />
      <note Length="0.03125" Pitch="58" RiffPosition="3" Velocity="0" />
      <note Length="0.03125" Pitch="67" RiffPosition="3.03125" Velocity="0" />
      <note Length="0.03125" Pitch="68" RiffPosition="3.0625" Velocity="0" />
      <note Length="0.03125" Pitch="60" RiffPosition="3.09375" Velocity="0" />
      <note Length="0.046875" Pitch="49" RiffPosition="3.125" Velocity="0" />
      <note Length="0.046875" Pitch="43" RiffPosition="3.171875" Velocity="0" />
      <note Length="0.015625" Pitch="41" RiffPosition="3.21875" Velocity="0" />
      <note Length="0.015625" Pitch="55" RiffPosition="3.234375" Velocity="0" />
      <note Length="0.03125" Pitch="58" RiffPosition="3.25" Velocity="0" />
      <note Length="0.03125" Pitch="53" RiffPosition="3.28125" Velocity="0" />
      <note Length="0.03125" Pitch="60" RiffPosition="3.3125" Velocity="0" />
      <note Length="0.03125" Pitch="41" RiffPosition="3.34375" Velocity="0" />
      <note Length="0.046875" Pitch="43" RiffPosition="3.375" Velocity="0" />
      <note Length="0.046875" Pitch="29" RiffPosition="3.421875" Velocity="0" />
      <note Length="0.015625" Pitch="56" RiffPosition="3.46875" Velocity="0" />
      <note Length="0.015625" Pitch="53" RiffPosition="3.484375" Velocity="0" />
      <note Length="0.03125" Pitch="67" RiffPosition="3.5" Velocity="0" />
      <note Length="0.03125" Pitch="70" RiffPosition="3.53125" Velocity="0" />
      <note Length="0.03125" Pitch="53" RiffPosition="3.5625" Velocity="0" />
      <note Length="0.03125" Pitch="41" RiffPosition="3.59375" Velocity="0" />
      <note Length="0.046875" Pitch="37" RiffPosition="3.625" Velocity="0" />
      <note Length="0.046875" Pitch="32" RiffPosition="3.671875" Velocity="0" />
      <note Length="0.015625" Pitch="41" RiffPosition="3.71875" Velocity="0" />
      <note Length="0.015625" Pitch="60" RiffPosition="3.734375" Velocity="0" />
      <note Length="0.03125" Pitch="67" RiffPosition="3.75" Velocity="0" />
      <note Length="0.03125" Pitch="65" RiffPosition="3.78125" Velocity="0" />
      <note Length="0.03125" Pitch="65" RiffPosition="3.8125" Velocity="0" />
      <note Length="0.03125" Pitch="58" RiffPosition="3.84375" Velocity="0" />
      <note Length="0.046875" Pitch="44" RiffPosition="3.875" Velocity="0" />
      <note Length="0.046875" Pitch="32" RiffPosition="3.921875" Velocity="0" />
      <note Length="0.015625" Pitch="46" RiffPosition="3.96875" Velocity="0" />
      <note Length="0.015625" Pitch="41" RiffPosition="3.984375" Velocity="0" />
      <note Length="0.03125" Pitch="58" RiffPosition="4" Velocity="0" />
      <note Length="0.03125" Pitch="68" RiffPosition="4.03125" Velocity="0" />
      <note Length="0.03125" Pitch="67" RiffPosition="4.0625" Velocity="0" />
      <note Length="0.03125" Pitch="60" RiffPosition="4.09375" Velocity="0" />
      <note Length="0.046875" Pitch="41" RiffPosition="4.125" Velocity="0" />
      <note Length="0.046875" Pitch="29" RiffPosition="4.171875" Velocity="0" />
      <note Length="0.015625" Pitch="41" RiffPosition="4.21875" Velocity="0" />
      <note Length="0.015625" Pitch="53" RiffPosition="4.234375" Velocity="0" />
      <note Length="0.03125" Pitch="58" RiffPosition="4.25" Velocity="0" />
      <note Length="0.03125" Pitch="53" RiffPosition="4.28125" Velocity="0" />
      <note Length="0.03125" Pitch="58" RiffPosition="4.3125" Velocity="0" />
      <note Length="0.03125" Pitch="41" RiffPosition="4.34375" Velocity="0" />
      <note Length="0.046875" Pitch="43" RiffPosition="4.375" Velocity="0" />
      <note Length="0.046875" Pitch="43" RiffPosition="4.421875" Velocity="0" />
      <note Length="0.015625" Pitch="56" RiffPosition="4.46875" Velocity="0" />
      <note Length="0.015625" Pitch="53" RiffPosition="4.484375" Velocity="0" />
      <note Length="0.03125" Pitch="68" RiffPosition="4.5" Velocity="0" />
      <note Length="0.03125" Pitch="72" RiffPosition="4.53125" Velocity="0" />
      <note Length="0.03125" Pitch="53" RiffPosition="4.5625" Velocity="0" />
      <note Length="0.03125" Pitch="41" RiffPosition="4.59375" Velocity="0" />
      <note Length="0.046875" Pitch="36" RiffPosition="4.625" Velocity="0" />
      <note Length="0.046875" Pitch="34" RiffPosition="4.671875" Velocity="0" />
      <note Length="0.015625" Pitch="41" RiffPosition="4.71875" Velocity="0" />
      <note Length="0.015625" Pitch="60" RiffPosition="4.734375" Velocity="0" />
      <note Length="0.03125" Pitch="67" RiffPosition="4.75" Velocity="0" />
      <note Length="0.03125" Pitch="65" RiffPosition="4.78125" Velocity="0" />
      <note Length="0.03125" Pitch="72" RiffPosition="4.8125" Velocity="0" />
      <note Length="0.03125" Pitch="58" RiffPosition="4.84375" Velocity="0" />
      <note Length="0.046875" Pitch="43" RiffPosition="4.875" Velocity="0" />
      <note Length="0.046875" Pitch="34" RiffPosition="4.921875" Velocity="0" />
      <note Length="0.015625" Pitch="46" RiffPosition="4.96875" Velocity="0" />
      <note Length="0.015625" Pitch="41" RiffPosition="4.984375" Velocity="0" />
      <note Length="0.03125" Pitch="58" RiffPosition="5" Velocity="0" />
      <note Length="0.03125" Pitch="67" RiffPosition="5.03125" Velocity="0" />
      <note Length="0.03125" Pitch="68" RiffPosition="5.0625" Velocity="0" />
      <note Length="0.03125" Pitch="58" RiffPosition="5.09375" Velocity="0" />
      <note Length="0.046875" Pitch="49" RiffPosition="5.125" Velocity="0" />
      <note Length="0.046875" Pitch="29" RiffPosition="5.171875" Velocity="0" />
      <note Length="0.015625" Pitch="41" RiffPosition="5.21875" Velocity="0" />
      <note Length="0.015625" Pitch="55" RiffPosition="5.234375" Velocity="0" />
      <note Length="0.03125" Pitch="58" RiffPosition="5.25" Velocity="0" />
      <note Length="0.03125" Pitch="53" RiffPosition="5.28125" Velocity="0" />
      <note Length="0.03125" Pitch="60" RiffPosition="5.3125" Velocity="0" />
      <note Length="0.03125" Pitch="41" RiffPosition="5.34375" Velocity="0" />
      <note Length="0.046875" Pitch="43" RiffPosition="5.375" Velocity="0" />
      <note Length="0.046875" Pitch="29" RiffPosition="5.421875" Velocity="0" />
      <note Length="0.015625" Pitch="56" RiffPosition="5.46875" Velocity="0" />
      <note Length="0.015625" Pitch="53" RiffPosition="5.484375" Velocity="0" />
      <note Length="0.03125" Pitch="67" RiffPosition="5.5" Velocity="0" />
      <note Length="0.03125" Pitch="70" RiffPosition="5.53125" Velocity="0" />
      <note Length="0.03125" Pitch="65" RiffPosition="5.5625" Velocity="0" />
      <note Length="0.03125" Pitch="41" RiffPosition="5.59375" Velocity="0" />
      <note Length="0.046875" Pitch="37" RiffPosition="5.625" Velocity="0" />
      <note Length="0.046875" Pitch="32" RiffPosition="5.671875" Velocity="0" />
      <note Length="0.015625" Pitch="41" RiffPosition="5.71875" Velocity="0" />
      <note Length="0.015625" Pitch="58" RiffPosition="5.734375" Velocity="0" />
      <note Length="0.03125" Pitch="67" RiffPosition="5.75" Velocity="0" />
      <note Length="0.03125" Pitch="65" RiffPosition="5.78125" Velocity="0" />
      <note Length="0.03125" Pitch="70" RiffPosition="5.8125" Velocity="0" />
      <note Length="0.03125" Pitch="58" RiffPosition="5.84375" Velocity="0" />
      <note Length="0.046875" Pitch="44" RiffPosition="5.875" Velocity="0" />
      <note Length="0.046875" Pitch="32" RiffPosition="5.921875" Velocity="0" />
      <note Length="0.015625" Pitch="44" RiffPosition="5.96875" Velocity="0" />
      <note Length="0.015625" Pitch="41" RiffPosition="5.984375" Velocity="0" />
      <note Length="0.03125" Pitch="58" RiffPosition="6" Velocity="0" />
      <note Length="0.03125" Pitch="68" RiffPosition="6.03125" Velocity="0" />
      <note Length="0.03125" Pitch="68" RiffPosition="6.0625" Velocity="0" />
      <note Length="0.03125" Pitch="60" RiffPosition="6.09375" Velocity="0" />
      <note Length="0.046875" Pitch="41" RiffPosition="6.125" Velocity="0" />
      <note Length="0.046875" Pitch="43" RiffPosition="6.171875" Velocity="0" />
      <note Length="0.015625" Pitch="41" RiffPosition="6.21875" Velocity="0" />
      <note Length="0.015625" Pitch="53" RiffPosition="6.234375" Velocity="0" />
      <note Length="0.03125" Pitch="58" RiffPosition="6.25" Velocity="0" />
      <note Length="0.03125" Pitch="53" RiffPosition="6.28125" Velocity="0" />
      <note Length="0.03125" Pitch="60" RiffPosition="6.3125" Velocity="0" />
      <note Length="0.03125" Pitch="41" RiffPosition="6.34375" Velocity="0" />
      <note Length="0.046875" Pitch="43" RiffPosition="6.375" Velocity="0" />
      <note Length="0.046875" Pitch="43" RiffPosition="6.421875" Velocity="0" />
      <note Length="0.015625" Pitch="56" RiffPosition="6.46875" Velocity="0" />
      <note Length="0.015625" Pitch="53" RiffPosition="6.484375" Velocity="0" />
      <note Length="0.03125" Pitch="68" RiffPosition="6.5" Velocity="0" />
      <note Length="0.03125" Pitch="70" RiffPosition="6.53125" Velocity="0" />
      <note Length="0.03125" Pitch="53" RiffPosition="6.5625" Velocity="0" />
      <note Length="0.03125" Pitch="41" RiffPosition="6.59375" Velocity="0" />
      <note Length="0.046875" Pitch="36" RiffPosition="6.625" Velocity="0" />
      <note Length="0.046875" Pitch="34" RiffPosition="6.671875" Velocity="0" />
      <note Length="0.015625" Pitch="41" RiffPosition="6.71875" Velocity="0" />
      <note Length="0.015625" Pitch="60" RiffPosition="6.734375" Velocity="0" />
      <note Length="0.03125" Pitch="68" RiffPosition="6.75" Velocity="0" />
      <note Length="0.03125" Pitch="65" RiffPosition="6.78125" Velocity="0" />
      <note Length="0.03125" Pitch="72" RiffPosition="6.8125" Velocity="0" />
      <note Length="0.03125" Pitch="58" RiffPosition="6.84375" Velocity="0" />
      <note Length="0.046875" Pitch="43" RiffPosition="6.875" Velocity="0" />
      <note Length="0.046875" Pitch="32" RiffPosition="6.921875" Velocity="0" />
      <note Length="0.015625" Pitch="46" RiffPosition="6.96875" Velocity="0" />
      <note Length="0.015625" Pitch="41" RiffPosition="6.984375" Velocity="0" />
      <note Length="0.03125" Pitch="58" RiffPosition="7" Velocity="0" />
      <note Length="0.03125" Pitch="67" RiffPosition="7.03125" Velocity="0" />
      <note Length="0.03125" Pitch="68" RiffPosition="7.0625" Velocity="0" />
      <note Length="0.03125" Pitch="58" RiffPosition="7.09375" Velocity="0" />
      <note Length="0.046875" Pitch="41" RiffPosition="7.125" Velocity="0" />
      <note Length="0.046875" Pitch="29" RiffPosition="7.171875" Velocity="0" />
      <note Length="0.015625" Pitch="41" RiffPosition="7.21875" Velocity="0" />
      <note Length="0.015625" Pitch="55" RiffPosition="7.234375" Velocity="0" />
      <note Length="0.03125" Pitch="58" RiffPosition="7.25" Velocity="0" />
      <note Length="0.03125" Pitch="53" RiffPosition="7.28125" Velocity="0" />
      <note Length="0.03125" Pitch="53" RiffPosition="7.3125" Velocity="0" />
      <note Length="0.03125" Pitch="41" RiffPosition="7.34375" Velocity="0" />
      <note Length="0.046875" Pitch="43" RiffPosition="7.375" Velocity="0" />
      <note Length="0.046875" Pitch="29" RiffPosition="7.421875" Velocity="0" />
      <note Length="0.015625" Pitch="56" RiffPosition="7.46875" Velocity="0" />
      <note Length="0.015625" Pitch="53" RiffPosition="7.484375" Velocity="0" />
      <note Length="0.03125" Pitch="67" RiffPosition="7.5" Velocity="0" />
      <note Length="0.03125" Pitch="70" RiffPosition="7.53125" Velocity="0" />
      <note Length="0.03125" Pitch="53" RiffPosition="7.5625" Velocity="0" />
      <note Length="0.03125" Pitch="41" RiffPosition="7.59375" Velocity="0" />
      <note Length="0.046875" Pitch="37" RiffPosition="7.625" Velocity="0" />
      <note Length="0.046875" Pitch="34" RiffPosition="7.671875" Velocity="0" />
      <note Length="0.015625" Pitch="41" RiffPosition="7.71875" Velocity="0" />
      <note Length="0.015625" Pitch="58" RiffPosition="7.734375" Velocity="0" />
      <note Length="0.03125" Pitch="67" RiffPosition="7.75" Velocity="0" />
      <note Length="0.03125" Pitch="65" RiffPosition="7.78125" Velocity="0" />
      <note Length="0.03125" Pitch="72" RiffPosition="7.8125" Velocity="0" />
      <note Length="0.03125" Pitch="58" RiffPosition="7.84375" Velocity="0" />
      <note Length="0.046875" Pitch="44" RiffPosition="7.875" Velocity="0" />
      <note Length="0.046875" Pitch="34" RiffPosition="7.921875" Velocity="0" />
      <note Length="0.015625" Pitch="44" RiffPosition="7.96875" Velocity="0" />
      <note Length="0.015625" Pitch="41" RiffPosition="7.984375" Velocity="0" />
      <note Length="0.03125" Pitch="56" RiffPosition="8" Velocity="104" />
      <note Length="0.03125" Pitch="66" RiffPosition="8.03125" Velocity="71" />
      <note Length="0.03125" Pitch="66" RiffPosition="8.0625" Velocity="89" />
      <note Length="0.03125" Pitch="58" RiffPosition="8.09375" Velocity="68" />
      <note Length="0.046875" Pitch="47" RiffPosition="8.125" Velocity="110" />
      <note Length="0.046875" Pitch="41" RiffPosition="8.171875" Velocity="114" />
      <note Length="0.015625" Pitch="39" RiffPosition="8.21875" Velocity="63" />
      <note Length="0.015625" Pitch="51" RiffPosition="8.234375" Velocity="94" />
      <note Length="0.03125" Pitch="56" RiffPosition="8.25" Velocity="89" />
      <note Length="0.03125" Pitch="51" RiffPosition="8.28125" Velocity="62" />
      <note Length="0.03125" Pitch="58" RiffPosition="8.3125" Velocity="99" />
      <note Length="0.03125" Pitch="39" RiffPosition="8.34375" Velocity="65" />
      <note Length="0.046875" Pitch="41" RiffPosition="8.375" Velocity="114" />
      <note Length="0.046875" Pitch="41" RiffPosition="8.421875" Velocity="105" />
      <note Length="0.015625" Pitch="54" RiffPosition="8.46875" Velocity="69" />
      <note Length="0.015625" Pitch="51" RiffPosition="8.484375" Velocity="96" />
      <note Length="0.03125" Pitch="66" RiffPosition="8.5" Velocity="87" />
      <note Length="0.03125" Pitch="68" RiffPosition="8.53125" Velocity="70" />
      <note Length="0.03125" Pitch="51" RiffPosition="8.5625" Velocity="113" />
      <note Length="0.03125" Pitch="39" RiffPosition="8.59375" Velocity="73" />
      <note Length="0.046875" Pitch="35" RiffPosition="8.625" Velocity="101" />
      <note Length="0.046875" Pitch="32" RiffPosition="8.671875" Velocity="86" />
      <note Length="0.015625" Pitch="39" RiffPosition="8.71875" Velocity="74" />
      <note Length="0.015625" Pitch="58" RiffPosition="8.734375" Velocity="104" />
      <note Length="0.03125" Pitch="66" RiffPosition="8.75" Velocity="119" />
      <note Length="0.03125" Pitch="63" RiffPosition="8.78125" Velocity="63" />
      <note Length="0.03125" Pitch="70" RiffPosition="8.8125" Velocity="109" />
      <note Length="0.03125" Pitch="56" RiffPosition="8.84375" Velocity="69" />
      <note Length="0.046875" Pitch="42" RiffPosition="8.875" Velocity="91" />
      <note Length="0.046875" Pitch="30" RiffPosition="8.921875" Velocity="102" />
      <note Length="0.015625" Pitch="44" RiffPosition="8.96875" Velocity="62" />
      <note Length="0.015625" Pitch="39" RiffPosition="8.984375" Velocity="95" />
      <note Length="0.03125" Pitch="56" RiffPosition="9" Velocity="114" />
      <note Length="0.03125" Pitch="68" RiffPosition="9.03125" Velocity="61" />
      <note Length="0.03125" Pitch="68" RiffPosition="9.0625" Velocity="102" />
      <note Length="0.03125" Pitch="58" RiffPosition="9.09375" Velocity="78" />
      <note Length="0.046875" Pitch="41" RiffPosition="9.125" Velocity="97" />
      <note Length="0.046875" Pitch="29" RiffPosition="9.171875" Velocity="104" />
      <note Length="0.015625" Pitch="41" RiffPosition="9.21875" Velocity="50" />
      <note Length="0.015625" Pitch="53" RiffPosition="9.234375" Velocity="104" />
      <note Length="0.03125" Pitch="58" RiffPosition="9.25" Velocity="99" />
      <note Length="0.03125" Pitch="53" RiffPosition="9.28125" Velocity="75" />
      <note Length="0.03125" Pitch="58" RiffPosition="9.3125" Velocity="89" />
      <note Length="0.03125" Pitch="41" RiffPosition="9.34375" Velocity="75" />
      <note Length="0.046875" Pitch="43" RiffPosition="9.375" Velocity="101" />
      <note Length="0.046875" Pitch="43" RiffPosition="9.421875" Velocity="95" />
      <note Length="0.015625" Pitch="56" RiffPosition="9.46875" Velocity="78" />
      <note Length="0.015625" Pitch="53" RiffPosition="9.484375" Velocity="106" />
      <note Length="0.03125" Pitch="68" RiffPosition="9.5" Velocity="97" />
      <note Length="0.03125" Pitch="72" RiffPosition="9.53125" Velocity="84" />
      <note Length="0.03125" Pitch="53" RiffPosition="9.5625" Velocity="103" />
      <note Length="0.03125" Pitch="41" RiffPosition="9.59375" Velocity="60" />
      <note Length="0.046875" Pitch="37" RiffPosition="9.625" Velocity="111" />
      <note Length="0.046875" Pitch="34" RiffPosition="9.671875" Velocity="99" />
      <note Length="0.015625" Pitch="41" RiffPosition="9.71875" Velocity="84" />
      <note Length="0.015625" Pitch="58" RiffPosition="9.734375" Velocity="114" />
      <note Length="0.03125" Pitch="67" RiffPosition="9.75" Velocity="106" />
      <note Length="0.03125" Pitch="65" RiffPosition="9.78125" Velocity="76" />
      <note Length="0.03125" Pitch="72" RiffPosition="9.8125" Velocity="99" />
      <note Length="0.03125" Pitch="58" RiffPosition="9.84375" Velocity="56" />
      <note Length="0.046875" Pitch="43" RiffPosition="9.875" Velocity="101" />
      <note Length="0.046875" Pitch="34" RiffPosition="9.921875" Velocity="115" />
      <note Length="0.015625" Pitch="46" RiffPosition="9.96875" Velocity="72" />
      <note Length="0.015625" Pitch="41" RiffPosition="9.984375" Velocity="105" />
      <note Length="0.03125" Pitch="56" RiffPosition="10" Velocity="101" />
      <note Length="0.03125" Pitch="65" RiffPosition="10.03125" Velocity="51" />
      <note Length="0.03125" Pitch="66" RiffPosition="10.0625" Velocity="92" />
      <note Length="0.03125" Pitch="58" RiffPosition="10.09375" Velocity="65" />
      <note Length="0.046875" Pitch="47" RiffPosition="10.125" Velocity="107" />
      <note Length="0.046875" Pitch="41" RiffPosition="10.171875" Velocity="117" />
      <note Length="0.015625" Pitch="39" RiffPosition="10.21875" Velocity="60" />
      <note Length="0.015625" Pitch="53" RiffPosition="10.234375" Velocity="91" />
      <note Length="0.03125" Pitch="56" RiffPosition="10.25" Velocity="86" />
      <note Length="0.03125" Pitch="51" RiffPosition="10.28125" Velocity="65" />
      <note Length="0.03125" Pitch="58" RiffPosition="10.3125" Velocity="102" />
      <note Length="0.03125" Pitch="39" RiffPosition="10.34375" Velocity="85" />
      <note Length="0.046875" Pitch="41" RiffPosition="10.375" Velocity="111" />
      <note Length="0.046875" Pitch="41" RiffPosition="10.421875" Velocity="85" />
      <note Length="0.015625" Pitch="54" RiffPosition="10.46875" Velocity="65" />
      <note Length="0.015625" Pitch="51" RiffPosition="10.484375" Velocity="93" />
      <note Length="0.03125" Pitch="66" RiffPosition="10.5" Velocity="84" />
      <note Length="0.03125" Pitch="68" RiffPosition="10.53125" Velocity="74" />
      <note Length="0.03125" Pitch="51" RiffPosition="10.5625" Velocity="116" />
      <note Length="0.03125" Pitch="39" RiffPosition="10.59375" Velocity="70" />
      <note Length="0.046875" Pitch="35" RiffPosition="10.625" Velocity="98" />
      <note Length="0.046875" Pitch="30" RiffPosition="10.671875" Velocity="89" />
      <note Length="0.015625" Pitch="39" RiffPosition="10.71875" Velocity="71" />
      <note Length="0.015625" Pitch="58" RiffPosition="10.734375" Velocity="101" />
      <note Length="0.03125" Pitch="63" RiffPosition="10.75" Velocity="116" />
      <note Length="0.03125" Pitch="63" RiffPosition="10.78125" Velocity="66" />
      <note Length="0.03125" Pitch="63" RiffPosition="10.8125" Velocity="112" />
      <note Length="0.03125" Pitch="56" RiffPosition="10.84375" Velocity="66" />
      <note Length="0.046875" Pitch="42" RiffPosition="10.875" Velocity="88" />
      <note Length="0.046875" Pitch="30" RiffPosition="10.921875" Velocity="105" />
      <note Length="0.015625" Pitch="44" RiffPosition="10.96875" Velocity="59" />
      <note Length="0.015625" Pitch="39" RiffPosition="10.984375" Velocity="115" />
      <note Length="0.03125" Pitch="59" RiffPosition="11" Velocity="111" />
      <note Length="0.03125" Pitch="69" RiffPosition="11.03125" Velocity="64" />
      <note Length="0.03125" Pitch="68" RiffPosition="11.0625" Velocity="82" />
      <note Length="0.03125" Pitch="61" RiffPosition="11.09375" Velocity="75" />
      <note Length="0.046875" Pitch="42" RiffPosition="11.125" Velocity="94" />
      <note Length="0.046875" Pitch="30" RiffPosition="11.171875" Velocity="107" />
      <note Length="0.015625" Pitch="42" RiffPosition="11.21875" Velocity="70" />
      <note Length="0.015625" Pitch="54" RiffPosition="11.234375" Velocity="101" />
      <note Length="0.03125" Pitch="59" RiffPosition="11.25" Velocity="96" />
      <note Length="0.03125" Pitch="54" RiffPosition="11.28125" Velocity="78" />
      <note Length="0.03125" Pitch="59" RiffPosition="11.3125" Velocity="92" />
      <note Length="0.03125" Pitch="42" RiffPosition="11.34375" Velocity="72" />
      <note Length="0.046875" Pitch="44" RiffPosition="11.375" Velocity="98" />
      <note Length="0.046875" Pitch="44" RiffPosition="11.421875" Velocity="98" />
      <note Length="0.015625" Pitch="57" RiffPosition="11.46875" Velocity="75" />
      <note Length="0.015625" Pitch="54" RiffPosition="11.484375" Velocity="103" />
      <note Length="0.03125" Pitch="69" RiffPosition="11.5" Velocity="94" />
      <note Length="0.03125" Pitch="73" RiffPosition="11.53125" Velocity="87" />
      <note Length="0.03125" Pitch="54" RiffPosition="11.5625" Velocity="106" />
      <note Length="0.03125" Pitch="42" RiffPosition="11.59375" Velocity="57" />
      <note Length="0.046875" Pitch="37" RiffPosition="11.625" Velocity="108" />
      <note Length="0.046875" Pitch="35" RiffPosition="11.671875" Velocity="102" />
      <note Length="0.015625" Pitch="42" RiffPosition="11.71875" Velocity="81" />
      <note Length="0.015625" Pitch="61" RiffPosition="11.734375" Velocity="111" />
      <note Length="0.03125" Pitch="68" RiffPosition="11.75" Velocity="103" />
      <note Length="0.03125" Pitch="66" RiffPosition="11.78125" Velocity="56" />
      <note Length="0.03125" Pitch="73" RiffPosition="11.8125" Velocity="102" />
      <note Length="0.03125" Pitch="59" RiffPosition="11.84375" Velocity="53" />
      <note Length="0.046875" Pitch="44" RiffPosition="11.875" Velocity="98" />
      <note Length="0.046875" Pitch="35" RiffPosition="11.921875" Velocity="118" />
      <note Length="0.015625" Pitch="47" RiffPosition="11.96875" Velocity="69" />
      <note Length="0.015625" Pitch="42" RiffPosition="11.984375" Velocity="102" />
      <note Length="0.03125" Pitch="58" RiffPosition="12" Velocity="0" />
      <note Length="0.03125" Pitch="67" RiffPosition="12.03125" Velocity="0" />
      <note Length="0.03125" Pitch="68" RiffPosition="12.0625" Velocity="0" />
      <note Length="0.03125" Pitch="58" RiffPosition="12.09375" Velocity="0" />
      <note Length="0.046875" Pitch="49" RiffPosition="12.125" Velocity="0" />
      <note Length="0.046875" Pitch="43" RiffPosition="12.171875" Velocity="0" />
      <note Length="0.015625" Pitch="41" RiffPosition="12.21875" Velocity="0" />
      <note Length="0.015625" Pitch="55" RiffPosition="12.234375" Velocity="0" />
      <note Length="0.03125" Pitch="58" RiffPosition="12.25" Velocity="0" />
      <note Length="0.03125" Pitch="53" RiffPosition="12.28125" Velocity="0" />
      <note Length="0.03125" Pitch="60" RiffPosition="12.3125" Velocity="0" />
      <note Length="0.03125" Pitch="41" RiffPosition="12.34375" Velocity="0" />
      <note Length="0.046875" Pitch="43" RiffPosition="12.375" Velocity="0" />
      <note Length="0.046875" Pitch="29" RiffPosition="12.421875" Velocity="0" />
      <note Length="0.015625" Pitch="56" RiffPosition="12.46875" Velocity="0" />
      <note Length="0.015625" Pitch="53" RiffPosition="12.484375" Velocity="0" />
      <note Length="0.03125" Pitch="67" RiffPosition="12.5" Velocity="0" />
      <note Length="0.03125" Pitch="70" RiffPosition="12.53125" Velocity="0" />
      <note Length="0.03125" Pitch="65" RiffPosition="12.5625" Velocity="0" />
      <note Length="0.03125" Pitch="41" RiffPosition="12.59375" Velocity="0" />
      <note Length="0.046875" Pitch="37" RiffPosition="12.625" Velocity="0" />
      <note Length="0.046875" Pitch="32" RiffPosition="12.671875" Velocity="0" />
      <note Length="0.015625" Pitch="41" RiffPosition="12.71875" Velocity="0" />
      <note Length="0.015625" Pitch="58" RiffPosition="12.734375" Velocity="0" />
      <note Length="0.03125" Pitch="67" RiffPosition="12.75" Velocity="0" />
      <note Length="0.03125" Pitch="65" RiffPosition="12.78125" Velocity="0" />
      <note Length="0.03125" Pitch="70" RiffPosition="12.8125" Velocity="0" />
      <note Length="0.03125" Pitch="58" RiffPosition="12.84375" Velocity="0" />
      <note Length="0.046875" Pitch="44" RiffPosition="12.875" Velocity="0" />
      <note Length="0.046875" Pitch="32" RiffPosition="12.921875" Velocity="0" />
      <note Length="0.015625" Pitch="46" RiffPosition="12.96875" Velocity="0" />
      <note Length="0.015625" Pitch="41" RiffPosition="12.984375" Velocity="0" />
      <note Length="0.03125" Pitch="58" RiffPosition="13" Velocity="0" />
      <note Length="0.03125" Pitch="68" RiffPosition="13.03125" Velocity="0" />
      <note Length="0.03125" Pitch="67" RiffPosition="13.0625" Velocity="0" />
      <note Length="0.03125" Pitch="60" RiffPosition="13.09375" Velocity="0" />
      <note Length="0.046875" Pitch="41" RiffPosition="13.125" Velocity="0" />
      <note Length="0.046875" Pitch="43" RiffPosition="13.171875" Velocity="0" />
      <note Length="0.015625" Pitch="41" RiffPosition="13.21875" Velocity="0" />
      <note Length="0.015625" Pitch="53" RiffPosition="13.234375" Velocity="0" />
      <note Length="0.03125" Pitch="58" RiffPosition="13.25" Velocity="0" />
      <note Length="0.03125" Pitch="53" RiffPosition="13.28125" Velocity="0" />
      <note Length="0.03125" Pitch="60" RiffPosition="13.3125" Velocity="0" />
      <note Length="0.03125" Pitch="41" RiffPosition="13.34375" Velocity="0" />
      <note Length="0.046875" Pitch="43" RiffPosition="13.375" Velocity="0" />
      <note Length="0.046875" Pitch="43" RiffPosition="13.421875" Velocity="0" />
      <note Length="0.015625" Pitch="56" RiffPosition="13.46875" Velocity="0" />
      <note Length="0.015625" Pitch="53" RiffPosition="13.484375" Velocity="0" />
      <note Length="0.03125" Pitch="68" RiffPosition="13.5" Velocity="0" />
      <note Length="0.03125" Pitch="70" RiffPosition="13.53125" Velocity="0" />
      <note Length="0.03125" Pitch="53" RiffPosition="13.5625" Velocity="0" />
      <note Length="0.03125" Pitch="41" RiffPosition="13.59375" Velocity="0" />
      <note Length="0.046875" Pitch="36" RiffPosition="13.625" Velocity="0" />
      <note Length="0.046875" Pitch="34" RiffPosition="13.671875" Velocity="0" />
      <note Length="0.015625" Pitch="41" RiffPosition="13.71875" Velocity="0" />
      <note Length="0.015625" Pitch="60" RiffPosition="13.734375" Velocity="0" />
      <note Length="0.03125" Pitch="68" RiffPosition="13.75" Velocity="0" />
      <note Length="0.03125" Pitch="65" RiffPosition="13.78125" Velocity="0" />
      <note Length="0.03125" Pitch="72" RiffPosition="13.8125" Velocity="0" />
      <note Length="0.03125" Pitch="58" RiffPosition="13.84375" Velocity="0" />
      <note Length="0.046875" Pitch="43" RiffPosition="13.875" Velocity="0" />
      <note Length="0.046875" Pitch="34" RiffPosition="13.921875" Velocity="0" />
      <note Length="0.015625" Pitch="46" RiffPosition="13.96875" Velocity="0" />
      <note Length="0.015625" Pitch="41" RiffPosition="13.984375" Velocity="0" />
    </riff>
    <riff IsDrum="False" MidiInstrument="14" Tempo="109" Length="14">
      <note Length="0.125" Pitch="51" RiffPosition="0" Velocity="0" />
      <note Length="0.125" Pitch="66" RiffPosition="0.125" Velocity="0" />
      <note Length="0.125" Pitch="58" RiffPosition="0.25" Velocity="0" />
      <note Length="0.125" Pitch="53" RiffPosition="0.375" Velocity="0" />
      <note Length="0.0625" Pitch="51" RiffPosition="0.5" Velocity="0" />
      <note Length="0.0625" Pitch="68" RiffPosition="0.5625" Velocity="0" />
      <note Length="0.09375" Pitch="65" RiffPosition="0.625" Velocity="0" />
      <note Length="0.03125" Pitch="66" RiffPosition="0.71875" Velocity="0" />
      <note Length="0.09375" Pitch="51" RiffPosition="0.75" Velocity="0" />
      <note Length="0.03125" Pitch="51" RiffPosition="0.84375" Velocity="0" />
      <note Length="0.0625" Pitch="53" RiffPosition="0.875" Velocity="0" />
      <note Length="0.0625" Pitch="51" RiffPosition="0.9375" Velocity="0" />
      <note Length="0.125" Pitch="53" RiffPosition="1" Velocity="0" />
      <note Length="0.09375" Pitch="70" RiffPosition="1.125" Velocity="0" />
      <note Length="0.09375" Pitch="68" RiffPosition="1.21875" Velocity="0" />
      <note Length="0.1875" Pitch="53" RiffPosition="1.3125" Velocity="0" />
      <note Length="0.1875" Pitch="53" RiffPosition="1.5" Velocity="0" />
      <note Length="0.0625" Pitch="70" RiffPosition="1.6875" Velocity="0" />
      <note Length="0.0625" Pitch="53" RiffPosition="1.75" Velocity="0" />
      <note Length="0.03125" Pitch="65" RiffPosition="1.8125" Velocity="0" />
      <note Length="0.03125" Pitch="53" RiffPosition="1.84375" Velocity="0" />
      <note Length="0.0625" Pitch="56" RiffPosition="1.875" Velocity="0" />
      <note Length="0.03125" Pitch="53" RiffPosition="1.9375" Velocity="0" />
      <note Length="0.03125" Pitch="65" RiffPosition="1.96875" Velocity="0" />
      <note Length="0.1875" Pitch="51" RiffPosition="2" Velocity="0" />
      <note Length="0.1875" Pitch="68" RiffPosition="2.1875" Velocity="0" />
      <note Length="0.1875" Pitch="54" RiffPosition="2.375" Velocity="0" />
      <note Length="0.1875" Pitch="68" RiffPosition="2.5625" Velocity="0" />
      <note Length="0.09375" Pitch="51" RiffPosition="2.75" Velocity="0" />
      <note Length="0.09375" Pitch="51" RiffPosition="2.84375" Velocity="0" />
      <note Length="0.125" Pitch="51" RiffPosition="2.9375" Velocity="0" />
      <note Length="0.0625" Pitch="65" RiffPosition="3.0625" Velocity="0" />
      <note Length="0.09375" Pitch="68" RiffPosition="3.125" Velocity="0" />
      <note Length="0.09375" Pitch="68" RiffPosition="3.21875" Velocity="0" />
      <note Length="0.09375" Pitch="53" RiffPosition="3.3125" Velocity="0" />
      <note Length="0.09375" Pitch="60" RiffPosition="3.40625" Velocity="0" />
      <note Length="0.046875" Pitch="53" RiffPosition="3.5" Velocity="0" />
      <note Length="0.015625" Pitch="68" RiffPosition="3.546875" Velocity="0" />
      <note Length="0.03125" Pitch="70" RiffPosition="3.5625" Velocity="0" />
      <note Length="0.03125" Pitch="65" RiffPosition="3.59375" Velocity="0" />
      <note Length="0.03125" Pitch="65" RiffPosition="3.625" Velocity="0" />
      <note Length="0.03125" Pitch="53" RiffPosition="3.65625" Velocity="0" />
      <note Length="0.03125" Pitch="70" RiffPosition="3.6875" Velocity="0" />
      <note Length="0.03125" Pitch="68" RiffPosition="3.71875" Velocity="0" />
      <note Length="0.125" Pitch="53" RiffPosition="3.75" Velocity="0" />
      <note Length="0.125" Pitch="55" RiffPosition="3.875" Velocity="0" />
      <note Length="0.125" Pitch="53" RiffPosition="4" Velocity="0" />
      <note Length="0.125" Pitch="68" RiffPosition="4.125" Velocity="0" />
      <note Length="0.125" Pitch="61" RiffPosition="4.25" Velocity="0" />
      <note Length="0.125" Pitch="55" RiffPosition="4.375" Velocity="0" />
      <note Length="0.0625" Pitch="53" RiffPosition="4.5" Velocity="0" />
      <note Length="0.0625" Pitch="70" RiffPosition="4.5625" Velocity="0" />
      <note Length="0.09375" Pitch="67" RiffPosition="4.625" Velocity="0" />
      <note Length="0.03125" Pitch="68" RiffPosition="4.71875" Velocity="0" />
      <note Length="0.09375" Pitch="53" RiffPosition="4.75" Velocity="0" />
      <note Length="0.03125" Pitch="53" RiffPosition="4.84375" Velocity="0" />
      <note Length="0.0625" Pitch="56" RiffPosition="4.875" Velocity="0" />
      <note Length="0.0625" Pitch="53" RiffPosition="4.9375" Velocity="0" />
      <note Length="0.125" Pitch="53" RiffPosition="5" Velocity="0" />
      <note Length="0.09375" Pitch="70" RiffPosition="5.125" Velocity="0" />
      <note Length="0.09375" Pitch="68" RiffPosition="5.21875" Velocity="0" />
      <note Length="0.1875" Pitch="53" RiffPosition="5.3125" Velocity="0" />
      <note Length="0.1875" Pitch="53" RiffPosition="5.5" Velocity="0" />
      <note Length="0.0625" Pitch="70" RiffPosition="5.6875" Velocity="0" />
      <note Length="0.0625" Pitch="53" RiffPosition="5.75" Velocity="0" />
      <note Length="0.03125" Pitch="65" RiffPosition="5.8125" Velocity="0" />
      <note Length="0.03125" Pitch="53" RiffPosition="5.84375" Velocity="0" />
      <note Length="0.0625" Pitch="56" RiffPosition="5.875" Velocity="0" />
      <note Length="0.03125" Pitch="53" RiffPosition="5.9375" Velocity="0" />
      <note Length="0.03125" Pitch="65" RiffPosition="5.96875" Velocity="0" />
      <note Length="0.1875" Pitch="53" RiffPosition="6" Velocity="0" />
      <note Length="0.1875" Pitch="70" RiffPosition="6.1875" Velocity="0" />
      <note Length="0.1875" Pitch="56" RiffPosition="6.375" Velocity="0" />
      <note Length="0.1875" Pitch="70" RiffPosition="6.5625" Velocity="0" />
      <note Length="0.09375" Pitch="53" RiffPosition="6.75" Velocity="0" />
      <note Length="0.09375" Pitch="53" RiffPosition="6.84375" Velocity="0" />
      <note Length="0.125" Pitch="53" RiffPosition="6.9375" Velocity="0" />
      <note Length="0.0625" Pitch="65" RiffPosition="7.0625" Velocity="0" />
      <note Length="0.09375" Pitch="68" RiffPosition="7.125" Velocity="0" />
      <note Length="0.09375" Pitch="68" RiffPosition="7.21875" Velocity="0" />
      <note Length="0.09375" Pitch="53" RiffPosition="7.3125" Velocity="0" />
      <note Length="0.09375" Pitch="60" RiffPosition="7.40625" Velocity="0" />
      <note Length="0.046875" Pitch="53" RiffPosition="7.5" Velocity="0" />
      <note Length="0.015625" Pitch="68" RiffPosition="7.546875" Velocity="0" />
      <note Length="0.03125" Pitch="70" RiffPosition="7.5625" Velocity="0" />
      <note Length="0.03125" Pitch="72" RiffPosition="7.59375" Velocity="0" />
      <note Length="0.03125" Pitch="67" RiffPosition="7.625" Velocity="0" />
      <note Length="0.03125" Pitch="53" RiffPosition="7.65625" Velocity="0" />
      <note Length="0.03125" Pitch="70" RiffPosition="7.6875" Velocity="0" />
      <note Length="0.03125" Pitch="68" RiffPosition="7.71875" Velocity="0" />
      <note Length="0.125" Pitch="53" RiffPosition="7.75" Velocity="0" />
      <note Length="0.125" Pitch="55" RiffPosition="7.875" Velocity="0" />
      <note Length="0.125" Pitch="51" RiffPosition="8" Velocity="39" />
      <note Length="0.125" Pitch="66" RiffPosition="8.125" Velocity="59" />
      <note Length="0.125" Pitch="58" RiffPosition="8.25" Velocity="92" />
      <note Length="0.125" Pitch="53" RiffPosition="8.375" Velocity="90" />
      <note Length="0.0625" Pitch="51" RiffPosition="8.5" Velocity="47" />
      <note Length="0.0625" Pitch="68" RiffPosition="8.5625" Velocity="97" />
      <note Length="0.09375" Pitch="65" RiffPosition="8.625" Velocity="26" />
      <note Length="0.03125" Pitch="66" RiffPosition="8.71875" Velocity="38" />
      <note Length="0.09375" Pitch="51" RiffPosition="8.75" Velocity="60" />
      <note Length="0.03125" Pitch="51" RiffPosition="8.84375" Velocity="15" />
      <note Length="0.0625" Pitch="54" RiffPosition="8.875" Velocity="100" />
      <note Length="0.0625" Pitch="51" RiffPosition="8.9375" Velocity="31" />
      <note Length="0.125" Pitch="53" RiffPosition="9" Velocity="87" />
      <note Length="0.09375" Pitch="68" RiffPosition="9.125" Velocity="45" />
      <note Length="0.09375" Pitch="68" RiffPosition="9.21875" Velocity="54" />
      <note Length="0.1875" Pitch="53" RiffPosition="9.3125" Velocity="97" />
      <note Length="0.1875" Pitch="53" RiffPosition="9.5" Velocity="82" />
      <note Length="0.0625" Pitch="70" RiffPosition="9.6875" Velocity="60" />
      <note Length="0.0625" Pitch="53" RiffPosition="9.75" Velocity="69" />
      <note Length="0.03125" Pitch="65" RiffPosition="9.8125" Velocity="82" />
      <note Length="0.03125" Pitch="53" RiffPosition="9.84375" Velocity="25" />
      <note Length="0.0625" Pitch="56" RiffPosition="9.875" Velocity="49" />
      <note Length="0.03125" Pitch="53" RiffPosition="9.9375" Velocity="89" />
      <note Length="0.03125" Pitch="65" RiffPosition="9.96875" Velocity="33" />
      <note Length="0.1875" Pitch="51" RiffPosition="10" Velocity="39" />
      <note Length="0.1875" Pitch="68" RiffPosition="10.1875" Velocity="60" />
      <note Length="0.1875" Pitch="54" RiffPosition="10.375" Velocity="90" />
      <note Length="0.1875" Pitch="68" RiffPosition="10.5625" Velocity="97" />
      <note Length="0.09375" Pitch="51" RiffPosition="10.75" Velocity="60" />
      <note Length="0.09375" Pitch="51" RiffPosition="10.84375" Velocity="15" />
      <note Length="0.125" Pitch="51" RiffPosition="10.9375" Velocity="31" />
      <note Length="0.0625" Pitch="66" RiffPosition="11.0625" Velocity="61" />
      <note Length="0.09375" Pitch="69" RiffPosition="11.125" Velocity="45" />
      <note Length="0.09375" Pitch="69" RiffPosition="11.21875" Velocity="54" />
      <note Length="0.09375" Pitch="54" RiffPosition="11.3125" Velocity="97" />
      <note Length="0.09375" Pitch="61" RiffPosition="11.40625" Velocity="26" />
      <note Length="0.046875" Pitch="54" RiffPosition="11.5" Velocity="82" />
      <note Length="0.015625" Pitch="69" RiffPosition="11.546875" Velocity="7" />
      <note Length="0.03125" Pitch="71" RiffPosition="11.5625" Velocity="42" />
      <note Length="0.03125" Pitch="73" RiffPosition="11.59375" Velocity="4" />
      <note Length="0.03125" Pitch="68" RiffPosition="11.625" Velocity="83" />
      <note Length="0.03125" Pitch="54" RiffPosition="11.65625" Velocity="38" />
      <note Length="0.03125" Pitch="71" RiffPosition="11.6875" Velocity="60" />
      <note Length="0.03125" Pitch="69" RiffPosition="11.71875" Velocity="13" />
      <note Length="0.125" Pitch="54" RiffPosition="11.75" Velocity="69" />
      <note Length="0.125" Pitch="56" RiffPosition="11.875" Velocity="49" />
      <note Length="0.125" Pitch="53" RiffPosition="12" Velocity="0" />
      <note Length="0.125" Pitch="68" RiffPosition="12.125" Velocity="0" />
      <note Length="0.125" Pitch="60" RiffPosition="12.25" Velocity="0" />
      <note Length="0.125" Pitch="56" RiffPosition="12.375" Velocity="0" />
      <note Length="0.0625" Pitch="53" RiffPosition="12.5" Velocity="0" />
      <note Length="0.0625" Pitch="70" RiffPosition="12.5625" Velocity="0" />
      <note Length="0.09375" Pitch="67" RiffPosition="12.625" Velocity="0" />
      <note Length="0.03125" Pitch="68" RiffPosition="12.71875" Velocity="0" />
      <note Length="0.09375" Pitch="53" RiffPosition="12.75" Velocity="0" />
      <note Length="0.03125" Pitch="53" RiffPosition="12.84375" Velocity="0" />
      <note Length="0.0625" Pitch="56" RiffPosition="12.875" Velocity="0" />
      <note Length="0.0625" Pitch="53" RiffPosition="12.9375" Velocity="0" />
      <note Length="0.125" Pitch="53" RiffPosition="13" Velocity="0" />
      <note Length="0.09375" Pitch="68" RiffPosition="13.125" Velocity="0" />
      <note Length="0.09375" Pitch="68" RiffPosition="13.21875" Velocity="0" />
      <note Length="0.1875" Pitch="53" RiffPosition="13.3125" Velocity="0" />
      <note Length="0.1875" Pitch="53" RiffPosition="13.5" Velocity="0" />
      <note Length="0.0625" Pitch="70" RiffPosition="13.6875" Velocity="0" />
      <note Length="0.0625" Pitch="53" RiffPosition="13.75" Velocity="0" />
      <note Length="0.03125" Pitch="65" RiffPosition="13.8125" Velocity="0" />
      <note Length="0.03125" Pitch="53" RiffPosition="13.84375" Velocity="0" />
      <note Length="0.0625" Pitch="56" RiffPosition="13.875" Velocity="0" />
      <note Length="0.03125" Pitch="53" RiffPosition="13.9375" Velocity="0" />
      <note Length="0.03125" Pitch="65" RiffPosition="13.96875" Velocity="0" />
    </riff>
    <riff IsDrum="False" MidiInstrument="14" Tempo="102" Length="14">
      <note Length="0.0625" Pitch="66" RiffPosition="0" Velocity="0" />
      <note Length="0.0625" Pitch="68" RiffPosition="0.0625" Velocity="0" />
      <note Length="0.0625" Pitch="63" RiffPosition="0.125" Velocity="0" />
      <note Length="0.0625" Pitch="68" RiffPosition="0.1875" Velocity="0" />
      <note Length="0.125" Pitch="63" RiffPosition="0.25" Velocity="0" />
      <note Length="0.0625" Pitch="66" RiffPosition="0.375" Velocity="0" />
      <note Length="0.0625" Pitch="65" RiffPosition="0.4375" Velocity="0" />
      <note Length="0.0625" Pitch="51" RiffPosition="0.5" Velocity="0" />
      <note Length="0.0625" Pitch="68" RiffPosition="0.5625" Velocity="0" />
      <note Length="0.0625" Pitch="68" RiffPosition="0.625" Velocity="0" />
      <note Length="0.0625" Pitch="63" RiffPosition="0.6875" Velocity="0" />
      <note Length="0.25" Pitch="66" RiffPosition="0.75" Velocity="0" />
      <note Length="0.125" Pitch="68" RiffPosition="1" Velocity="0" />
      <note Length="0.25" Pitch="65" RiffPosition="1.125" Velocity="0" />
      <note Length="0.375" Pitch="68" RiffPosition="1.375" Velocity="0" />
      <note Length="0.0625" Pitch="68" RiffPosition="1.75" Velocity="0" />
      <note Length="0.0625" Pitch="68" RiffPosition="1.8125" Velocity="0" />
      <note Length="0.125" Pitch="68" RiffPosition="1.875" Velocity="0" />
      <note Length="0.09375" Pitch="66" RiffPosition="2" Velocity="0" />
      <note Length="0.03125" Pitch="59" RiffPosition="2.09375" Velocity="0" />
      <note Length="0.125" Pitch="63" RiffPosition="2.125" Velocity="0" />
      <note Length="0.0625" Pitch="63" RiffPosition="2.25" Velocity="0" />
      <note Length="0.03125" Pitch="63" RiffPosition="2.3125" Velocity="0" />
      <note Length="0.03125" Pitch="63" RiffPosition="2.34375" Velocity="0" />
      <note Length="0.0625" Pitch="66" RiffPosition="2.375" Velocity="0" />
      <note Length="0.0625" Pitch="65" RiffPosition="2.4375" Velocity="0" />
      <note Length="0.1875" Pitch="51" RiffPosition="2.5" Velocity="0" />
      <note Length="0.1875" Pitch="63" RiffPosition="2.6875" Velocity="0" />
      <note Length="0.0625" Pitch="66" RiffPosition="2.875" Velocity="0" />
      <note Length="0.0625" Pitch="70" RiffPosition="2.9375" Velocity="0" />
      <note Length="0.5" Pitch="68" RiffPosition="3" Velocity="0" />
      <note Length="0.25" Pitch="53" RiffPosition="3.5" Velocity="0" />
      <note Length="0.25" Pitch="68" RiffPosition="3.75" Velocity="0" />
      <note Length="0.0625" Pitch="68" RiffPosition="4" Velocity="0" />
      <note Length="0.0625" Pitch="70" RiffPosition="4.0625" Velocity="0" />
      <note Length="0.0625" Pitch="65" RiffPosition="4.125" Velocity="0" />
      <note Length="0.0625" Pitch="70" RiffPosition="4.1875" Velocity="0" />
      <note Length="0.125" Pitch="65" RiffPosition="4.25" Velocity="0" />
      <note Length="0.0625" Pitch="68" RiffPosition="4.375" Velocity="0" />
      <note Length="0.0625" Pitch="67" RiffPosition="4.4375" Velocity="0" />
      <note Length="0.0625" Pitch="53" RiffPosition="4.5" Velocity="0" />
      <note Length="0.0625" Pitch="70" RiffPosition="4.5625" Velocity="0" />
      <note Length="0.0625" Pitch="70" RiffPosition="4.625" Velocity="0" />
      <note Length="0.0625" Pitch="65" RiffPosition="4.6875" Velocity="0" />
      <note Length="0.25" Pitch="68" RiffPosition="4.75" Velocity="0" />
      <note Length="0.125" Pitch="68" RiffPosition="5" Velocity="0" />
      <note Length="0.25" Pitch="65" RiffPosition="5.125" Velocity="0" />
      <note Length="0.375" Pitch="68" RiffPosition="5.375" Velocity="0" />
      <note Length="0.0625" Pitch="68" RiffPosition="5.75" Velocity="0" />
      <note Length="0.0625" Pitch="68" RiffPosition="5.8125" Velocity="0" />
      <note Length="0.125" Pitch="68" RiffPosition="5.875" Velocity="0" />
      <note Length="0.09375" Pitch="68" RiffPosition="6" Velocity="0" />
      <note Length="0.03125" Pitch="61" RiffPosition="6.09375" Velocity="0" />
      <note Length="0.125" Pitch="65" RiffPosition="6.125" Velocity="0" />
      <note Length="0.0625" Pitch="65" RiffPosition="6.25" Velocity="0" />
      <note Length="0.03125" Pitch="65" RiffPosition="6.3125" Velocity="0" />
      <note Length="0.03125" Pitch="65" RiffPosition="6.34375" Velocity="0" />
      <note Length="0.0625" Pitch="68" RiffPosition="6.375" Velocity="0" />
      <note Length="0.0625" Pitch="67" RiffPosition="6.4375" Velocity="0" />
      <note Length="0.1875" Pitch="53" RiffPosition="6.5" Velocity="0" />
      <note Length="0.1875" Pitch="65" RiffPosition="6.6875" Velocity="0" />
      <note Length="0.0625" Pitch="68" RiffPosition="6.875" Velocity="0" />
      <note Length="0.0625" Pitch="72" RiffPosition="6.9375" Velocity="0" />
      <note Length="0.5" Pitch="68" RiffPosition="7" Velocity="0" />
      <note Length="0.25" Pitch="53" RiffPosition="7.5" Velocity="0" />
      <note Length="0.25" Pitch="68" RiffPosition="7.75" Velocity="0" />
      <note Length="0.0625" Pitch="66" RiffPosition="8" Velocity="47" />
      <note Length="0.0625" Pitch="68" RiffPosition="8.0625" Velocity="6" />
      <note Length="0.0625" Pitch="63" RiffPosition="8.125" Velocity="5" />
      <note Length="0.0625" Pitch="68" RiffPosition="8.1875" Velocity="108" />
      <note Length="0.125" Pitch="63" RiffPosition="8.25" Velocity="29" />
      <note Length="0.0625" Pitch="66" RiffPosition="8.375" Velocity="3" />
      <note Length="0.0625" Pitch="65" RiffPosition="8.4375" Velocity="68" />
      <note Length="0.0625" Pitch="51" RiffPosition="8.5" Velocity="22" />
      <note Length="0.0625" Pitch="68" RiffPosition="8.5625" Velocity="44" />
      <note Length="0.0625" Pitch="68" RiffPosition="8.625" Velocity="26" />
      <note Length="0.0625" Pitch="63" RiffPosition="8.6875" Velocity="75" />
      <note Length="0.25" Pitch="66" RiffPosition="8.75" Velocity="85" />
      <note Length="0.125" Pitch="68" RiffPosition="9" Velocity="54" />
      <note Length="0.25" Pitch="65" RiffPosition="9.125" Velocity="2" />
      <note Length="0.375" Pitch="68" RiffPosition="9.375" Velocity="10" />
      <note Length="0.0625" Pitch="68" RiffPosition="9.75" Velocity="66" />
      <note Length="0.0625" Pitch="68" RiffPosition="9.8125" Velocity="5" />
      <note Length="0.125" Pitch="68" RiffPosition="9.875" Velocity="42" />
      <note Length="0.09375" Pitch="66" RiffPosition="10" Velocity="61" />
      <note Length="0.03125" Pitch="59" RiffPosition="10.09375" Velocity="13" />
      <note Length="0.125" Pitch="63" RiffPosition="10.125" Velocity="17" />
      <note Length="0.0625" Pitch="63" RiffPosition="10.25" Velocity="41" />
      <note Length="0.03125" Pitch="63" RiffPosition="10.3125" Velocity="34" />
      <note Length="0.03125" Pitch="63" RiffPosition="10.34375" Velocity="10" />
      <note Length="0.0625" Pitch="66" RiffPosition="10.375" Velocity="17" />
      <note Length="0.0625" Pitch="65" RiffPosition="10.4375" Velocity="55" />
      <note Length="0.1875" Pitch="51" RiffPosition="10.5" Velocity="8" />
      <note Length="0.1875" Pitch="63" RiffPosition="10.6875" Velocity="63" />
      <note Length="0.0625" Pitch="66" RiffPosition="10.875" Velocity="49" />
      <note Length="0.0625" Pitch="70" RiffPosition="10.9375" Velocity="46" />
      <note Length="0.5" Pitch="69" RiffPosition="11" Velocity="42" />
      <note Length="0.25" Pitch="54" RiffPosition="11.5" Velocity="28" />
      <note Length="0.25" Pitch="69" RiffPosition="11.75" Velocity="80" />
      <note Length="0.0625" Pitch="68" RiffPosition="12" Velocity="0" />
      <note Length="0.0625" Pitch="70" RiffPosition="12.0625" Velocity="0" />
      <note Length="0.0625" Pitch="65" RiffPosition="12.125" Velocity="0" />
      <note Length="0.0625" Pitch="70" RiffPosition="12.1875" Velocity="0" />
      <note Length="0.125" Pitch="65" RiffPosition="12.25" Velocity="0" />
      <note Length="0.0625" Pitch="68" RiffPosition="12.375" Velocity="0" />
      <note Length="0.0625" Pitch="67" RiffPosition="12.4375" Velocity="0" />
      <note Length="0.0625" Pitch="53" RiffPosition="12.5" Velocity="0" />
      <note Length="0.0625" Pitch="70" RiffPosition="12.5625" Velocity="0" />
      <note Length="0.0625" Pitch="70" RiffPosition="12.625" Velocity="0" />
      <note Length="0.0625" Pitch="65" RiffPosition="12.6875" Velocity="0" />
      <note Length="0.25" Pitch="68" RiffPosition="12.75" Velocity="0" />
      <note Length="0.125" Pitch="68" RiffPosition="13" Velocity="0" />
      <note Length="0.25" Pitch="65" RiffPosition="13.125" Velocity="0" />
      <note Length="0.375" Pitch="68" RiffPosition="13.375" Velocity="0" />
      <note Length="0.0625" Pitch="68" RiffPosition="13.75" Velocity="0" />
      <note Length="0.0625" Pitch="68" RiffPosition="13.8125" Velocity="0" />
      <note Length="0.125" Pitch="68" RiffPosition="13.875" Velocity="0" />
    </riff>
    <riff IsDrum="True" MidiInstrument="0" Tempo="78" Length="14">
      <note Length="0.03125" Pitch="39" RiffPosition="0" Velocity="0" />
      <note Length="0.03125" Pitch="39" RiffPosition="0.03125" Velocity="0" />
      <note Length="0.03125" Pitch="39" RiffPosition="0.0625" Velocity="0" />
      <note Length="0.03125" Pitch="39" RiffPosition="0.09375" Velocity="0" />
      <note Length="0.03125" Pitch="39" RiffPosition="0.125" Velocity="0" />
      <note Length="0.03125" Pitch="39" RiffPosition="0.15625" Velocity="0" />
      <note Length="0.03125" Pitch="39" RiffPosition="0.1875" Velocity="0" />
      <note Length="0.03125" Pitch="39" RiffPosition="0.21875" Velocity="0" />
      <note Length="0.03125" Pitch="39" RiffPosition="0.25" Velocity="0" />
      <note Length="0.03125" Pitch="39" RiffPosition="0.28125" Velocity="0" />
      <note Length="0.03125" Pitch="39" RiffPosition="0.3125" Velocity="0" />
      <note Length="0.03125" Pitch="39" RiffPosition="0.34375" Velocity="0" />
      <note Length="0.03125" Pitch="39" RiffPosition="0.375" Velocity="0" />
      <note Length="0.03125" Pitch="39" RiffPosition="0.40625" Velocity="0" />
      <note Length="0.03125" Pitch="39" RiffPosition="0.4375" Velocity="0" />
      <note Length="0.03125" Pitch="39" RiffPosition="0.46875" Velocity="0" />
      <note Length="0.03125" Pitch="39" RiffPosition="0.5" Velocity="0" />
      <note Length="0.03125" Pitch="39" RiffPosition="0.53125" Velocity="0" />
      <note Length="0.03125" Pitch="39" RiffPosition="0.5625" Velocity="0" />
      <note Length="0.03125" Pitch="39" RiffPosition="0.59375" Velocity="0" />
      <note Length="0.03125" Pitch="39" RiffPosition="0.625" Velocity="0" />
      <note Length="0.03125" Pitch="39" RiffPosition="0.65625" Velocity="0" />
      <note Length="0.03125" Pitch="39" RiffPosition="0.6875" Velocity="0" />
      <note Length="0.03125" Pitch="39" RiffPosition="0.71875" Velocity="0" />
      <note Length="0.03125" Pitch="39" RiffPosition="0.75" Velocity="0" />
      <note Length="0.03125" Pitch="39" RiffPosition="0.78125" Velocity="0" />
      <note Length="0.03125" Pitch="39" RiffPosition="0.8125" Velocity="0" />
      <note Length="0.03125" Pitch="39" RiffPosition="0.84375" Velocity="0" />
      <note Length="0.03125" Pitch="39" RiffPosition="0.875" Velocity="0" />
      <note Length="0.03125" Pitch="39" RiffPosition="0.90625" Velocity="0" />
      <note Length="0.03125" Pitch="39" RiffPosition="0.9375" Velocity="0" />
      <note Length="0.03125" Pitch="39" RiffPosition="0.96875" Velocity="0" />
      <note Length="0.03125" Pitch="39" RiffPosition="1" Velocity="0" />
      <note Length="0.03125" Pitch="39" RiffPosition="1.03125" Velocity="0" />
      <note Length="0.03125" Pitch="39" RiffPosition="1.0625" Velocity="0" />
      <note Length="0.03125" Pitch="39" RiffPosition="1.09375" Velocity="0" />
      <note Length="0.03125" Pitch="39" RiffPosition="1.125" Velocity="0" />
      <note Length="0.03125" Pitch="39" RiffPosition="1.15625" Velocity="0" />
      <note Length="0.03125" Pitch="39" RiffPosition="1.1875" Velocity="0" />
      <note Length="0.03125" Pitch="39" RiffPosition="1.21875" Velocity="0" />
      <note Length="0.03125" Pitch="39" RiffPosition="1.25" Velocity="0" />
      <note Length="0.03125" Pitch="39" RiffPosition="1.28125" Velocity="0" />
      <note Length="0.03125" Pitch="39" RiffPosition="1.3125" Velocity="0" />
      <note Length="0.03125" Pitch="39" RiffPosition="1.34375" Velocity="0" />
      <note Length="0.03125" Pitch="39" RiffPosition="1.375" Velocity="0" />
      <note Length="0.03125" Pitch="39" RiffPosition="1.40625" Velocity="0" />
      <note Length="0.03125" Pitch="39" RiffPosition="1.4375" Velocity="0" />
      <note Length="0.03125" Pitch="39" RiffPosition="1.46875" Velocity="0" />
      <note Length="0.03125" Pitch="39" RiffPosition="1.5" Velocity="0" />
      <note Length="0.03125" Pitch="39" RiffPosition="1.53125" Velocity="0" />
      <note Length="0.03125" Pitch="39" RiffPosition="1.5625" Velocity="0" />
      <note Length="0.03125" Pitch="39" RiffPosition="1.59375" Velocity="0" />
      <note Length="0.03125" Pitch="39" RiffPosition="1.625" Velocity="0" />
      <note Length="0.03125" Pitch="39" RiffPosition="1.65625" Velocity="0" />
      <note Length="0.03125" Pitch="39" RiffPosition="1.6875" Velocity="0" />
      <note Length="0.03125" Pitch="39" RiffPosition="1.71875" Velocity="0" />
      <note Length="0.03125" Pitch="39" RiffPosition="1.75" Velocity="0" />
      <note Length="0.03125" Pitch="39" RiffPosition="1.78125" Velocity="0" />
      <note Length="0.03125" Pitch="39" RiffPosition="1.8125" Velocity="0" />
      <note Length="0.03125" Pitch="39" RiffPosition="1.84375" Velocity="0" />
      <note Length="0.03125" Pitch="39" RiffPosition="1.875" Velocity="0" />
      <note Length="0.03125" Pitch="39" RiffPosition="1.90625" Velocity="0" />
      <note Length="0.03125" Pitch="39" RiffPosition="1.9375" Velocity="0" />
      <note Length="0.03125" Pitch="39" RiffPosition="1.96875" Velocity="0" />
      <note Length="0.03125" Pitch="39" RiffPosition="2" Velocity="0" />
      <note Length="0.03125" Pitch="39" RiffPosition="2.03125" Velocity="0" />
      <note Length="0.03125" Pitch="39" RiffPosition="2.0625" Velocity="0" />
      <note Length="0.03125" Pitch="39" RiffPosition="2.09375" Velocity="0" />
      <note Length="0.03125" Pitch="39" RiffPosition="2.125" Velocity="0" />
      <note Length="0.03125" Pitch="39" RiffPosition="2.15625" Velocity="0" />
      <note Length="0.03125" Pitch="39" RiffPosition="2.1875" Velocity="0" />
      <note Length="0.03125" Pitch="39" RiffPosition="2.21875" Velocity="0" />
      <note Length="0.03125" Pitch="39" RiffPosition="2.25" Velocity="0" />
      <note Length="0.03125" Pitch="39" RiffPosition="2.28125" Velocity="0" />
      <note Length="0.03125" Pitch="39" RiffPosition="2.3125" Velocity="0" />
      <note Length="0.03125" Pitch="39" RiffPosition="2.34375" Velocity="0" />
      <note Length="0.03125" Pitch="39" RiffPosition="2.375" Velocity="0" />
      <note Length="0.03125" Pitch="39" RiffPosition="2.40625" Velocity="0" />
      <note Length="0.03125" Pitch="39" RiffPosition="2.4375" Velocity="0" />
      <note Length="0.03125" Pitch="39" RiffPosition="2.46875" Velocity="0" />
      <note Length="0.03125" Pitch="39" RiffPosition="2.5" Velocity="0" />
      <note Length="0.03125" Pitch="39" RiffPosition="2.53125" Velocity="0" />
      <note Length="0.03125" Pitch="39" RiffPosition="2.5625" Velocity="0" />
      <note Length="0.03125" Pitch="39" RiffPosition="2.59375" Velocity="0" />
      <note Length="0.03125" Pitch="39" RiffPosition="2.625" Velocity="0" />
      <note Length="0.03125" Pitch="39" RiffPosition="2.65625" Velocity="0" />
      <note Length="0.03125" Pitch="39" RiffPosition="2.6875" Velocity="0" />
      <note Length="0.03125" Pitch="39" RiffPosition="2.71875" Velocity="0" />
      <note Length="0.03125" Pitch="39" RiffPosition="2.75" Velocity="0" />
      <note Length="0.03125" Pitch="39" RiffPosition="2.78125" Velocity="0" />
      <note Length="0.03125" Pitch="39" RiffPosition="2.8125" Velocity="0" />
      <note Length="0.03125" Pitch="39" RiffPosition="2.84375" Velocity="0" />
      <note Length="0.03125" Pitch="39" RiffPosition="2.875" Velocity="0" />
      <note Length="0.03125" Pitch="39" RiffPosition="2.90625" Velocity="0" />
      <note Length="0.03125" Pitch="39" RiffPosition="2.9375" Velocity="0" />
      <note Length="0.03125" Pitch="39" RiffPosition="2.96875" Velocity="0" />
      <note Length="0.03125" Pitch="39" RiffPosition="3" Velocity="0" />
      <note Length="0.03125" Pitch="39" RiffPosition="3.03125" Velocity="0" />
      <note Length="0.03125" Pitch="39" RiffPosition="3.0625" Velocity="0" />
      <note Length="0.03125" Pitch="39" RiffPosition="3.09375" Velocity="0" />
      <note Length="0.03125" Pitch="39" RiffPosition="3.125" Velocity="0" />
      <note Length="0.03125" Pitch="39" RiffPosition="3.15625" Velocity="0" />
      <note Length="0.03125" Pitch="39" RiffPosition="3.1875" Velocity="0" />
      <note Length="0.03125" Pitch="39" RiffPosition="3.21875" Velocity="0" />
      <note Length="0.03125" Pitch="39" RiffPosition="3.25" Velocity="0" />
      <note Length="0.03125" Pitch="39" RiffPosition="3.28125" Velocity="0" />
      <note Length="0.03125" Pitch="39" RiffPosition="3.3125" Velocity="0" />
      <note Length="0.03125" Pitch="39" RiffPosition="3.34375" Velocity="0" />
      <note Length="0.03125" Pitch="39" RiffPosition="3.375" Velocity="0" />
      <note Length="0.03125" Pitch="39" RiffPosition="3.40625" Velocity="0" />
      <note Length="0.03125" Pitch="39" RiffPosition="3.4375" Velocity="0" />
      <note Length="0.03125" Pitch="39" RiffPosition="3.46875" Velocity="0" />
      <note Length="0.03125" Pitch="39" RiffPosition="3.5" Velocity="0" />
      <note Length="0.03125" Pitch="39" RiffPosition="3.53125" Velocity="0" />
      <note Length="0.03125" Pitch="39" RiffPosition="3.5625" Velocity="0" />
      <note Length="0.03125" Pitch="39" RiffPosition="3.59375" Velocity="0" />
      <note Length="0.03125" Pitch="39" RiffPosition="3.625" Velocity="0" />
      <note Length="0.03125" Pitch="39" RiffPosition="3.65625" Velocity="0" />
      <note Length="0.03125" Pitch="39" RiffPosition="3.6875" Velocity="0" />
      <note Length="0.03125" Pitch="39" RiffPosition="3.71875" Velocity="0" />
      <note Length="0.03125" Pitch="39" RiffPosition="3.75" Velocity="0" />
      <note Length="0.03125" Pitch="39" RiffPosition="3.78125" Velocity="0" />
      <note Length="0.03125" Pitch="39" RiffPosition="3.8125" Velocity="0" />
      <note Length="0.03125" Pitch="39" RiffPosition="3.84375" Velocity="0" />
      <note Length="0.03125" Pitch="39" RiffPosition="3.875" Velocity="0" />
      <note Length="0.03125" Pitch="39" RiffPosition="3.90625" Velocity="0" />
      <note Length="0.03125" Pitch="39" RiffPosition="3.9375" Velocity="0" />
      <note Length="0.03125" Pitch="39" RiffPosition="3.96875" Velocity="0" />
      <note Length="0.03125" Pitch="39" RiffPosition="4" Velocity="0" />
      <note Length="0.03125" Pitch="39" RiffPosition="4.03125" Velocity="0" />
      <note Length="0.03125" Pitch="39" RiffPosition="4.0625" Velocity="0" />
      <note Length="0.03125" Pitch="39" RiffPosition="4.09375" Velocity="0" />
      <note Length="0.03125" Pitch="39" RiffPosition="4.125" Velocity="0" />
      <note Length="0.03125" Pitch="39" RiffPosition="4.15625" Velocity="0" />
      <note Length="0.03125" Pitch="39" RiffPosition="4.1875" Velocity="0" />
      <note Length="0.03125" Pitch="39" RiffPosition="4.21875" Velocity="0" />
      <note Length="0.03125" Pitch="39" RiffPosition="4.25" Velocity="0" />
      <note Length="0.03125" Pitch="39" RiffPosition="4.28125" Velocity="0" />
      <note Length="0.03125" Pitch="39" RiffPosition="4.3125" Velocity="0" />
      <note Length="0.03125" Pitch="39" RiffPosition="4.34375" Velocity="0" />
      <note Length="0.03125" Pitch="39" RiffPosition="4.375" Velocity="0" />
      <note Length="0.03125" Pitch="39" RiffPosition="4.40625" Velocity="0" />
      <note Length="0.03125" Pitch="39" RiffPosition="4.4375" Velocity="0" />
      <note Length="0.03125" Pitch="39" RiffPosition="4.46875" Velocity="0" />
      <note Length="0.03125" Pitch="39" RiffPosition="4.5" Velocity="0" />
      <note Length="0.03125" Pitch="39" RiffPosition="4.53125" Velocity="0" />
      <note Length="0.03125" Pitch="39" RiffPosition="4.5625" Velocity="0" />
      <note Length="0.03125" Pitch="39" RiffPosition="4.59375" Velocity="0" />
      <note Length="0.03125" Pitch="39" RiffPosition="4.625" Velocity="0" />
      <note Length="0.03125" Pitch="39" RiffPosition="4.65625" Velocity="0" />
      <note Length="0.03125" Pitch="39" RiffPosition="4.6875" Velocity="0" />
      <note Length="0.03125" Pitch="39" RiffPosition="4.71875" Velocity="0" />
      <note Length="0.03125" Pitch="39" RiffPosition="4.75" Velocity="0" />
      <note Length="0.03125" Pitch="39" RiffPosition="4.78125" Velocity="0" />
      <note Length="0.03125" Pitch="39" RiffPosition="4.8125" Velocity="0" />
      <note Length="0.03125" Pitch="39" RiffPosition="4.84375" Velocity="0" />
      <note Length="0.03125" Pitch="39" RiffPosition="4.875" Velocity="0" />
      <note Length="0.03125" Pitch="39" RiffPosition="4.90625" Velocity="0" />
      <note Length="0.03125" Pitch="39" RiffPosition="4.9375" Velocity="0" />
      <note Length="0.03125" Pitch="39" RiffPosition="4.96875" Velocity="0" />
      <note Length="0.03125" Pitch="39" RiffPosition="5" Velocity="0" />
      <note Length="0.03125" Pitch="39" RiffPosition="5.03125" Velocity="0" />
      <note Length="0.03125" Pitch="39" RiffPosition="5.0625" Velocity="0" />
      <note Length="0.03125" Pitch="39" RiffPosition="5.09375" Velocity="0" />
      <note Length="0.03125" Pitch="39" RiffPosition="5.125" Velocity="0" />
      <note Length="0.03125" Pitch="39" RiffPosition="5.15625" Velocity="0" />
      <note Length="0.03125" Pitch="39" RiffPosition="5.1875" Velocity="0" />
      <note Length="0.03125" Pitch="39" RiffPosition="5.21875" Velocity="0" />
      <note Length="0.03125" Pitch="39" RiffPosition="5.25" Velocity="0" />
      <note Length="0.03125" Pitch="39" RiffPosition="5.28125" Velocity="0" />
      <note Length="0.03125" Pitch="39" RiffPosition="5.3125" Velocity="0" />
      <note Length="0.03125" Pitch="39" RiffPosition="5.34375" Velocity="0" />
      <note Length="0.03125" Pitch="39" RiffPosition="5.375" Velocity="0" />
      <note Length="0.03125" Pitch="39" RiffPosition="5.40625" Velocity="0" />
      <note Length="0.03125" Pitch="39" RiffPosition="5.4375" Velocity="0" />
      <note Length="0.03125" Pitch="39" RiffPosition="5.46875" Velocity="0" />
      <note Length="0.03125" Pitch="39" RiffPosition="5.5" Velocity="0" />
      <note Length="0.03125" Pitch="39" RiffPosition="5.53125" Velocity="0" />
      <note Length="0.03125" Pitch="39" RiffPosition="5.5625" Velocity="0" />
      <note Length="0.03125" Pitch="39" RiffPosition="5.59375" Velocity="0" />
      <note Length="0.03125" Pitch="39" RiffPosition="5.625" Velocity="0" />
      <note Length="0.03125" Pitch="39" RiffPosition="5.65625" Velocity="0" />
      <note Length="0.03125" Pitch="39" RiffPosition="5.6875" Velocity="0" />
      <note Length="0.03125" Pitch="39" RiffPosition="5.71875" Velocity="0" />
      <note Length="0.03125" Pitch="39" RiffPosition="5.75" Velocity="0" />
      <note Length="0.03125" Pitch="39" RiffPosition="5.78125" Velocity="0" />
      <note Length="0.03125" Pitch="39" RiffPosition="5.8125" Velocity="0" />
      <note Length="0.03125" Pitch="39" RiffPosition="5.84375" Velocity="0" />
      <note Length="0.03125" Pitch="39" RiffPosition="5.875" Velocity="0" />
      <note Length="0.03125" Pitch="39" RiffPosition="5.90625" Velocity="0" />
      <note Length="0.03125" Pitch="39" RiffPosition="5.9375" Velocity="0" />
      <note Length="0.03125" Pitch="39" RiffPosition="5.96875" Velocity="0" />
      <note Length="0.03125" Pitch="39" RiffPosition="6" Velocity="0" />
      <note Length="0.03125" Pitch="39" RiffPosition="6.03125" Velocity="0" />
      <note Length="0.03125" Pitch="39" RiffPosition="6.0625" Velocity="0" />
      <note Length="0.03125" Pitch="39" RiffPosition="6.09375" Velocity="0" />
      <note Length="0.03125" Pitch="39" RiffPosition="6.125" Velocity="0" />
      <note Length="0.03125" Pitch="39" RiffPosition="6.15625" Velocity="0" />
      <note Length="0.03125" Pitch="39" RiffPosition="6.1875" Velocity="0" />
      <note Length="0.03125" Pitch="39" RiffPosition="6.21875" Velocity="0" />
      <note Length="0.03125" Pitch="39" RiffPosition="6.25" Velocity="0" />
      <note Length="0.03125" Pitch="39" RiffPosition="6.28125" Velocity="0" />
      <note Length="0.03125" Pitch="39" RiffPosition="6.3125" Velocity="0" />
      <note Length="0.03125" Pitch="39" RiffPosition="6.34375" Velocity="0" />
      <note Length="0.03125" Pitch="39" RiffPosition="6.375" Velocity="0" />
      <note Length="0.03125" Pitch="39" RiffPosition="6.40625" Velocity="0" />
      <note Length="0.03125" Pitch="39" RiffPosition="6.4375" Velocity="0" />
      <note Length="0.03125" Pitch="39" RiffPosition="6.46875" Velocity="0" />
      <note Length="0.03125" Pitch="39" RiffPosition="6.5" Velocity="0" />
      <note Length="0.03125" Pitch="39" RiffPosition="6.53125" Velocity="0" />
      <note Length="0.03125" Pitch="39" RiffPosition="6.5625" Velocity="0" />
      <note Length="0.03125" Pitch="39" RiffPosition="6.59375" Velocity="0" />
      <note Length="0.03125" Pitch="39" RiffPosition="6.625" Velocity="0" />
      <note Length="0.03125" Pitch="39" RiffPosition="6.65625" Velocity="0" />
      <note Length="0.03125" Pitch="39" RiffPosition="6.6875" Velocity="0" />
      <note Length="0.03125" Pitch="39" RiffPosition="6.71875" Velocity="0" />
      <note Length="0.03125" Pitch="39" RiffPosition="6.75" Velocity="0" />
      <note Length="0.03125" Pitch="39" RiffPosition="6.78125" Velocity="0" />
      <note Length="0.03125" Pitch="39" RiffPosition="6.8125" Velocity="0" />
      <note Length="0.03125" Pitch="39" RiffPosition="6.84375" Velocity="0" />
      <note Length="0.03125" Pitch="39" RiffPosition="6.875" Velocity="0" />
      <note Length="0.03125" Pitch="39" RiffPosition="6.90625" Velocity="0" />
      <note Length="0.03125" Pitch="39" RiffPosition="6.9375" Velocity="0" />
      <note Length="0.03125" Pitch="39" RiffPosition="6.96875" Velocity="0" />
      <note Length="0.03125" Pitch="39" RiffPosition="7" Velocity="0" />
      <note Length="0.03125" Pitch="39" RiffPosition="7.03125" Velocity="0" />
      <note Length="0.03125" Pitch="39" RiffPosition="7.0625" Velocity="0" />
      <note Length="0.03125" Pitch="39" RiffPosition="7.09375" Velocity="0" />
      <note Length="0.03125" Pitch="39" RiffPosition="7.125" Velocity="0" />
      <note Length="0.03125" Pitch="39" RiffPosition="7.15625" Velocity="0" />
      <note Length="0.03125" Pitch="39" RiffPosition="7.1875" Velocity="0" />
      <note Length="0.03125" Pitch="39" RiffPosition="7.21875" Velocity="0" />
      <note Length="0.03125" Pitch="39" RiffPosition="7.25" Velocity="0" />
      <note Length="0.03125" Pitch="39" RiffPosition="7.28125" Velocity="0" />
      <note Length="0.03125" Pitch="39" RiffPosition="7.3125" Velocity="0" />
      <note Length="0.03125" Pitch="39" RiffPosition="7.34375" Velocity="0" />
      <note Length="0.03125" Pitch="39" RiffPosition="7.375" Velocity="0" />
      <note Length="0.03125" Pitch="39" RiffPosition="7.40625" Velocity="0" />
      <note Length="0.03125" Pitch="39" RiffPosition="7.4375" Velocity="0" />
      <note Length="0.03125" Pitch="39" RiffPosition="7.46875" Velocity="0" />
      <note Length="0.03125" Pitch="39" RiffPosition="7.5" Velocity="0" />
      <note Length="0.03125" Pitch="39" RiffPosition="7.53125" Velocity="0" />
      <note Length="0.03125" Pitch="39" RiffPosition="7.5625" Velocity="0" />
      <note Length="0.03125" Pitch="39" RiffPosition="7.59375" Velocity="0" />
      <note Length="0.03125" Pitch="39" RiffPosition="7.625" Velocity="0" />
      <note Length="0.03125" Pitch="39" RiffPosition="7.65625" Velocity="0" />
      <note Length="0.03125" Pitch="39" RiffPosition="7.6875" Velocity="0" />
      <note Length="0.03125" Pitch="39" RiffPosition="7.71875" Velocity="0" />
      <note Length="0.03125" Pitch="39" RiffPosition="7.75" Velocity="0" />
      <note Length="0.03125" Pitch="39" RiffPosition="7.78125" Velocity="0" />
      <note Length="0.03125" Pitch="39" RiffPosition="7.8125" Velocity="0" />
      <note Length="0.03125" Pitch="39" RiffPosition="7.84375" Velocity="0" />
      <note Length="0.03125" Pitch="39" RiffPosition="7.875" Velocity="0" />
      <note Length="0.03125" Pitch="39" RiffPosition="7.90625" Velocity="0" />
      <note Length="0.03125" Pitch="39" RiffPosition="7.9375" Velocity="0" />
      <note Length="0.03125" Pitch="39" RiffPosition="7.96875" Velocity="0" />
      <note Length="0.03125" Pitch="39" RiffPosition="8" Velocity="0" />
      <note Length="0.03125" Pitch="39" RiffPosition="8.03125" Velocity="105" />
      <note Length="0.03125" Pitch="39" RiffPosition="8.0625" Velocity="0" />
      <note Length="0.03125" Pitch="39" RiffPosition="8.09375" Velocity="105" />
      <note Length="0.03125" Pitch="39" RiffPosition="8.125" Velocity="0" />
      <note Length="0.03125" Pitch="39" RiffPosition="8.15625" Velocity="105" />
      <note Length="0.03125" Pitch="39" RiffPosition="8.1875" Velocity="0" />
      <note Length="0.03125" Pitch="39" RiffPosition="8.21875" Velocity="105" />
      <note Length="0.03125" Pitch="39" RiffPosition="8.25" Velocity="0" />
      <note Length="0.03125" Pitch="39" RiffPosition="8.28125" Velocity="105" />
      <note Length="0.03125" Pitch="39" RiffPosition="8.3125" Velocity="0" />
      <note Length="0.03125" Pitch="39" RiffPosition="8.34375" Velocity="105" />
      <note Length="0.03125" Pitch="39" RiffPosition="8.375" Velocity="0" />
      <note Length="0.03125" Pitch="39" RiffPosition="8.40625" Velocity="105" />
      <note Length="0.03125" Pitch="39" RiffPosition="8.4375" Velocity="0" />
      <note Length="0.03125" Pitch="39" RiffPosition="8.46875" Velocity="105" />
      <note Length="0.03125" Pitch="39" RiffPosition="8.5" Velocity="0" />
      <note Length="0.03125" Pitch="39" RiffPosition="8.53125" Velocity="105" />
      <note Length="0.03125" Pitch="39" RiffPosition="8.5625" Velocity="0" />
      <note Length="0.03125" Pitch="39" RiffPosition="8.59375" Velocity="105" />
      <note Length="0.03125" Pitch="39" RiffPosition="8.625" Velocity="0" />
      <note Length="0.03125" Pitch="39" RiffPosition="8.65625" Velocity="105" />
      <note Length="0.03125" Pitch="39" RiffPosition="8.6875" Velocity="0" />
      <note Length="0.03125" Pitch="39" RiffPosition="8.71875" Velocity="105" />
      <note Length="0.03125" Pitch="39" RiffPosition="8.75" Velocity="0" />
      <note Length="0.03125" Pitch="39" RiffPosition="8.78125" Velocity="105" />
      <note Length="0.03125" Pitch="39" RiffPosition="8.8125" Velocity="0" />
      <note Length="0.03125" Pitch="39" RiffPosition="8.84375" Velocity="105" />
      <note Length="0.03125" Pitch="39" RiffPosition="8.875" Velocity="0" />
      <note Length="0.03125" Pitch="39" RiffPosition="8.90625" Velocity="105" />
      <note Length="0.03125" Pitch="39" RiffPosition="8.9375" Velocity="0" />
      <note Length="0.03125" Pitch="39" RiffPosition="8.96875" Velocity="105" />
      <note Length="0.03125" Pitch="39" RiffPosition="9" Velocity="0" />
      <note Length="0.03125" Pitch="39" RiffPosition="9.03125" Velocity="105" />
      <note Length="0.03125" Pitch="39" RiffPosition="9.0625" Velocity="0" />
      <note Length="0.03125" Pitch="39" RiffPosition="9.09375" Velocity="105" />
      <note Length="0.03125" Pitch="39" RiffPosition="9.125" Velocity="0" />
      <note Length="0.03125" Pitch="39" RiffPosition="9.15625" Velocity="105" />
      <note Length="0.03125" Pitch="39" RiffPosition="9.1875" Velocity="0" />
      <note Length="0.03125" Pitch="39" RiffPosition="9.21875" Velocity="105" />
      <note Length="0.03125" Pitch="39" RiffPosition="9.25" Velocity="0" />
      <note Length="0.03125" Pitch="39" RiffPosition="9.28125" Velocity="105" />
      <note Length="0.03125" Pitch="39" RiffPosition="9.3125" Velocity="0" />
      <note Length="0.03125" Pitch="39" RiffPosition="9.34375" Velocity="105" />
      <note Length="0.03125" Pitch="39" RiffPosition="9.375" Velocity="0" />
      <note Length="0.03125" Pitch="39" RiffPosition="9.40625" Velocity="105" />
      <note Length="0.03125" Pitch="39" RiffPosition="9.4375" Velocity="0" />
      <note Length="0.03125" Pitch="39" RiffPosition="9.46875" Velocity="105" />
      <note Length="0.03125" Pitch="39" RiffPosition="9.5" Velocity="0" />
      <note Length="0.03125" Pitch="39" RiffPosition="9.53125" Velocity="105" />
      <note Length="0.03125" Pitch="39" RiffPosition="9.5625" Velocity="0" />
      <note Length="0.03125" Pitch="39" RiffPosition="9.59375" Velocity="105" />
      <note Length="0.03125" Pitch="39" RiffPosition="9.625" Velocity="0" />
      <note Length="0.03125" Pitch="39" RiffPosition="9.65625" Velocity="105" />
      <note Length="0.03125" Pitch="39" RiffPosition="9.6875" Velocity="0" />
      <note Length="0.03125" Pitch="39" RiffPosition="9.71875" Velocity="105" />
      <note Length="0.03125" Pitch="39" RiffPosition="9.75" Velocity="0" />
      <note Length="0.03125" Pitch="39" RiffPosition="9.78125" Velocity="105" />
      <note Length="0.03125" Pitch="39" RiffPosition="9.8125" Velocity="0" />
      <note Length="0.03125" Pitch="39" RiffPosition="9.84375" Velocity="105" />
      <note Length="0.03125" Pitch="39" RiffPosition="9.875" Velocity="0" />
      <note Length="0.03125" Pitch="39" RiffPosition="9.90625" Velocity="105" />
      <note Length="0.03125" Pitch="39" RiffPosition="9.9375" Velocity="0" />
      <note Length="0.03125" Pitch="39" RiffPosition="9.96875" Velocity="105" />
      <note Length="0.03125" Pitch="39" RiffPosition="10" Velocity="0" />
      <note Length="0.03125" Pitch="39" RiffPosition="10.03125" Velocity="105" />
      <note Length="0.03125" Pitch="39" RiffPosition="10.0625" Velocity="0" />
      <note Length="0.03125" Pitch="39" RiffPosition="10.09375" Velocity="105" />
      <note Length="0.03125" Pitch="39" RiffPosition="10.125" Velocity="0" />
      <note Length="0.03125" Pitch="39" RiffPosition="10.15625" Velocity="105" />
      <note Length="0.03125" Pitch="39" RiffPosition="10.1875" Velocity="0" />
      <note Length="0.03125" Pitch="39" RiffPosition="10.21875" Velocity="105" />
      <note Length="0.03125" Pitch="39" RiffPosition="10.25" Velocity="0" />
      <note Length="0.03125" Pitch="39" RiffPosition="10.28125" Velocity="105" />
      <note Length="0.03125" Pitch="39" RiffPosition="10.3125" Velocity="0" />
      <note Length="0.03125" Pitch="39" RiffPosition="10.34375" Velocity="105" />
      <note Length="0.03125" Pitch="39" RiffPosition="10.375" Velocity="0" />
      <note Length="0.03125" Pitch="39" RiffPosition="10.40625" Velocity="105" />
      <note Length="0.03125" Pitch="39" RiffPosition="10.4375" Velocity="0" />
      <note Length="0.03125" Pitch="39" RiffPosition="10.46875" Velocity="105" />
      <note Length="0.03125" Pitch="39" RiffPosition="10.5" Velocity="0" />
      <note Length="0.03125" Pitch="39" RiffPosition="10.53125" Velocity="105" />
      <note Length="0.03125" Pitch="39" RiffPosition="10.5625" Velocity="0" />
      <note Length="0.03125" Pitch="39" RiffPosition="10.59375" Velocity="105" />
      <note Length="0.03125" Pitch="39" RiffPosition="10.625" Velocity="0" />
      <note Length="0.03125" Pitch="39" RiffPosition="10.65625" Velocity="105" />
      <note Length="0.03125" Pitch="39" RiffPosition="10.6875" Velocity="0" />
      <note Length="0.03125" Pitch="39" RiffPosition="10.71875" Velocity="105" />
      <note Length="0.03125" Pitch="39" RiffPosition="10.75" Velocity="0" />
      <note Length="0.03125" Pitch="39" RiffPosition="10.78125" Velocity="105" />
      <note Length="0.03125" Pitch="39" RiffPosition="10.8125" Velocity="0" />
      <note Length="0.03125" Pitch="39" RiffPosition="10.84375" Velocity="105" />
      <note Length="0.03125" Pitch="39" RiffPosition="10.875" Velocity="0" />
      <note Length="0.03125" Pitch="39" RiffPosition="10.90625" Velocity="105" />
      <note Length="0.03125" Pitch="39" RiffPosition="10.9375" Velocity="0" />
      <note Length="0.03125" Pitch="39" RiffPosition="10.96875" Velocity="105" />
      <note Length="0.03125" Pitch="39" RiffPosition="11" Velocity="0" />
      <note Length="0.03125" Pitch="39" RiffPosition="11.03125" Velocity="105" />
      <note Length="0.03125" Pitch="39" RiffPosition="11.0625" Velocity="0" />
      <note Length="0.03125" Pitch="39" RiffPosition="11.09375" Velocity="105" />
      <note Length="0.03125" Pitch="39" RiffPosition="11.125" Velocity="0" />
      <note Length="0.03125" Pitch="39" RiffPosition="11.15625" Velocity="105" />
      <note Length="0.03125" Pitch="39" RiffPosition="11.1875" Velocity="0" />
      <note Length="0.03125" Pitch="39" RiffPosition="11.21875" Velocity="105" />
      <note Length="0.03125" Pitch="39" RiffPosition="11.25" Velocity="0" />
      <note Length="0.03125" Pitch="39" RiffPosition="11.28125" Velocity="105" />
      <note Length="0.03125" Pitch="39" RiffPosition="11.3125" Velocity="0" />
      <note Length="0.03125" Pitch="39" RiffPosition="11.34375" Velocity="105" />
      <note Length="0.03125" Pitch="39" RiffPosition="11.375" Velocity="0" />
      <note Length="0.03125" Pitch="39" RiffPosition="11.40625" Velocity="105" />
      <note Length="0.03125" Pitch="39" RiffPosition="11.4375" Velocity="0" />
      <note Length="0.03125" Pitch="39" RiffPosition="11.46875" Velocity="105" />
      <note Length="0.03125" Pitch="39" RiffPosition="11.5" Velocity="0" />
      <note Length="0.03125" Pitch="39" RiffPosition="11.53125" Velocity="105" />
      <note Length="0.03125" Pitch="39" RiffPosition="11.5625" Velocity="0" />
      <note Length="0.03125" Pitch="39" RiffPosition="11.59375" Velocity="105" />
      <note Length="0.03125" Pitch="39" RiffPosition="11.625" Velocity="0" />
      <note Length="0.03125" Pitch="39" RiffPosition="11.65625" Velocity="105" />
      <note Length="0.03125" Pitch="39" RiffPosition="11.6875" Velocity="0" />
      <note Length="0.03125" Pitch="39" RiffPosition="11.71875" Velocity="105" />
      <note Length="0.03125" Pitch="39" RiffPosition="11.75" Velocity="0" />
      <note Length="0.03125" Pitch="39" RiffPosition="11.78125" Velocity="105" />
      <note Length="0.03125" Pitch="39" RiffPosition="11.8125" Velocity="0" />
      <note Length="0.03125" Pitch="39" RiffPosition="11.84375" Velocity="105" />
      <note Length="0.03125" Pitch="39" RiffPosition="11.875" Velocity="0" />
      <note Length="0.03125" Pitch="39" RiffPosition="11.90625" Velocity="105" />
      <note Length="0.03125" Pitch="39" RiffPosition="11.9375" Velocity="0" />
      <note Length="0.03125" Pitch="39" RiffPosition="11.96875" Velocity="105" />
      <note Length="0.03125" Pitch="39" RiffPosition="12" Velocity="0" />
      <note Length="0.03125" Pitch="39" RiffPosition="12.03125" Velocity="0" />
      <note Length="0.03125" Pitch="39" RiffPosition="12.0625" Velocity="0" />
      <note Length="0.03125" Pitch="39" RiffPosition="12.09375" Velocity="0" />
      <note Length="0.03125" Pitch="39" RiffPosition="12.125" Velocity="0" />
      <note Length="0.03125" Pitch="39" RiffPosition="12.15625" Velocity="0" />
      <note Length="0.03125" Pitch="39" RiffPosition="12.1875" Velocity="0" />
      <note Length="0.03125" Pitch="39" RiffPosition="12.21875" Velocity="0" />
      <note Length="0.03125" Pitch="39" RiffPosition="12.25" Velocity="0" />
      <note Length="0.03125" Pitch="39" RiffPosition="12.28125" Velocity="0" />
      <note Length="0.03125" Pitch="39" RiffPosition="12.3125" Velocity="0" />
      <note Length="0.03125" Pitch="39" RiffPosition="12.34375" Velocity="0" />
      <note Length="0.03125" Pitch="39" RiffPosition="12.375" Velocity="0" />
      <note Length="0.03125" Pitch="39" RiffPosition="12.40625" Velocity="0" />
      <note Length="0.03125" Pitch="39" RiffPosition="12.4375" Velocity="0" />
      <note Length="0.03125" Pitch="39" RiffPosition="12.46875" Velocity="0" />
      <note Length="0.03125" Pitch="39" RiffPosition="12.5" Velocity="0" />
      <note Length="0.03125" Pitch="39" RiffPosition="12.53125" Velocity="0" />
      <note Length="0.03125" Pitch="39" RiffPosition="12.5625" Velocity="0" />
      <note Length="0.03125" Pitch="39" RiffPosition="12.59375" Velocity="0" />
      <note Length="0.03125" Pitch="39" RiffPosition="12.625" Velocity="0" />
      <note Length="0.03125" Pitch="39" RiffPosition="12.65625" Velocity="0" />
      <note Length="0.03125" Pitch="39" RiffPosition="12.6875" Velocity="0" />
      <note Length="0.03125" Pitch="39" RiffPosition="12.71875" Velocity="0" />
      <note Length="0.03125" Pitch="39" RiffPosition="12.75" Velocity="0" />
      <note Length="0.03125" Pitch="39" RiffPosition="12.78125" Velocity="0" />
      <note Length="0.03125" Pitch="39" RiffPosition="12.8125" Velocity="0" />
      <note Length="0.03125" Pitch="39" RiffPosition="12.84375" Velocity="0" />
      <note Length="0.03125" Pitch="39" RiffPosition="12.875" Velocity="0" />
      <note Length="0.03125" Pitch="39" RiffPosition="12.90625" Velocity="0" />
      <note Length="0.03125" Pitch="39" RiffPosition="12.9375" Velocity="0" />
      <note Length="0.03125" Pitch="39" RiffPosition="12.96875" Velocity="0" />
      <note Length="0.03125" Pitch="39" RiffPosition="13" Velocity="0" />
      <note Length="0.03125" Pitch="39" RiffPosition="13.03125" Velocity="0" />
      <note Length="0.03125" Pitch="39" RiffPosition="13.0625" Velocity="0" />
      <note Length="0.03125" Pitch="39" RiffPosition="13.09375" Velocity="0" />
      <note Length="0.03125" Pitch="39" RiffPosition="13.125" Velocity="0" />
      <note Length="0.03125" Pitch="39" RiffPosition="13.15625" Velocity="0" />
      <note Length="0.03125" Pitch="39" RiffPosition="13.1875" Velocity="0" />
      <note Length="0.03125" Pitch="39" RiffPosition="13.21875" Velocity="0" />
      <note Length="0.03125" Pitch="39" RiffPosition="13.25" Velocity="0" />
      <note Length="0.03125" Pitch="39" RiffPosition="13.28125" Velocity="0" />
      <note Length="0.03125" Pitch="39" RiffPosition="13.3125" Velocity="0" />
      <note Length="0.03125" Pitch="39" RiffPosition="13.34375" Velocity="0" />
      <note Length="0.03125" Pitch="39" RiffPosition="13.375" Velocity="0" />
      <note Length="0.03125" Pitch="39" RiffPosition="13.40625" Velocity="0" />
      <note Length="0.03125" Pitch="39" RiffPosition="13.4375" Velocity="0" />
      <note Length="0.03125" Pitch="39" RiffPosition="13.46875" Velocity="0" />
      <note Length="0.03125" Pitch="39" RiffPosition="13.5" Velocity="0" />
      <note Length="0.03125" Pitch="39" RiffPosition="13.53125" Velocity="0" />
      <note Length="0.03125" Pitch="39" RiffPosition="13.5625" Velocity="0" />
      <note Length="0.03125" Pitch="39" RiffPosition="13.59375" Velocity="0" />
      <note Length="0.03125" Pitch="39" RiffPosition="13.625" Velocity="0" />
      <note Length="0.03125" Pitch="39" RiffPosition="13.65625" Velocity="0" />
      <note Length="0.03125" Pitch="39" RiffPosition="13.6875" Velocity="0" />
      <note Length="0.03125" Pitch="39" RiffPosition="13.71875" Velocity="0" />
      <note Length="0.03125" Pitch="39" RiffPosition="13.75" Velocity="0" />
      <note Length="0.03125" Pitch="39" RiffPosition="13.78125" Velocity="0" />
      <note Length="0.03125" Pitch="39" RiffPosition="13.8125" Velocity="0" />
      <note Length="0.03125" Pitch="39" RiffPosition="13.84375" Velocity="0" />
      <note Length="0.03125" Pitch="39" RiffPosition="13.875" Velocity="0" />
      <note Length="0.03125" Pitch="39" RiffPosition="13.90625" Velocity="0" />
      <note Length="0.03125" Pitch="39" RiffPosition="13.9375" Velocity="0" />
      <note Length="0.03125" Pitch="39" RiffPosition="13.96875" Velocity="0" />
    </riff>
  </riffPack>
  <lyrics>
    <line>****** ****** ****** ******</line>
    <line>****** ****** ****** ******</line>
    <line>judgment absolute for ever out of reach</line>
    <line>well open your heart it'll set you free</line>
    <line>when you ape the cops it ain't anarchy</line>
    <line>your morals are just drawn from a book.</line>
    <line>now is the time to defend your ground</line>
    <line>higher positions, race for perfection</line>
    <line>february almost certainly will not last</line>
    <line>now i'm learning there's a reason why</line>
    <line>now is the time to defend your ground</line>
    <line>higher positions, race for perfection</line>
    <line>entrance and live a perfect existence</line>
    <line>blame the party an imperialist regime</line>
    <line>now is the time to defend your ground</line>
    <line>higher positions, race for perfection</line>
    <line>****** ****** ****** ******</line>
    <line>****** ****** ****** ******</line>
    <line>so many choices make us think we need</line>
    <line>torn from the edge of security i fall</line>
    <line>i am the master no one knows exists</line>
    <line>american neurosis breeds a generation</line>
    <line>now is the time to defend your ground</line>
    <line>higher positions, race for perfection</line>
    <line>now is the time to defend your ground</line>
    <line>higher positions, race for perfection</line>
    <line>spiritual warrior, shall face his fate</line>
    <line>****** ****** ****** ******</line>
    <line>****** ****** ****** ******</line>
    <line>****** ****** ****** ******</line>
    <line>****** ****** ****** ******</line>
    <line>****** ****** ****** ******</line>
  </lyrics>
  <lyricsSongFactoryCollection LanguageCode="en">
    <lyricSongFactory BarCount="32" BarCountPerChorus="2">
      <barInfo>
        <bar Intensity="0" LetterCount="37" />
        <bar Intensity="0" LetterCount="16" />
        <bar Intensity="0.5176471" LetterCount="37" />
        <bar Intensity="0.5294118" LetterCount="37" />
        <bar Intensity="0.5411765" LetterCount="37" />
        <bar Intensity="0.5411765" LetterCount="37" />
        <bar Intensity="1" LetterCount="37" />
        <bar Intensity="1" LetterCount="37" />
        <bar Intensity="0.4823529" LetterCount="37" />
        <bar Intensity="0.4705882" LetterCount="37" />
        <bar Intensity="1" LetterCount="37" />
        <bar Intensity="1" LetterCount="37" />
        <bar Intensity="0.4941176" LetterCount="37" />
        <bar Intensity="0.4470588" LetterCount="37" />
        <bar Intensity="1" LetterCount="37" />
        <bar Intensity="1" LetterCount="37" />
        <bar Intensity="0" LetterCount="37" />
        <bar Intensity="0" LetterCount="37" />
        <bar Intensity="0.4588235" LetterCount="37" />
        <bar Intensity="0.4588235" LetterCount="37" />
        <bar Intensity="0.4705882" LetterCount="37" />
        <bar Intensity="0.4470588" LetterCount="37" />
        <bar Intensity="1" LetterCount="37" />
        <bar Intensity="1" LetterCount="37" />
        <bar Intensity="1" LetterCount="37" />
        <bar Intensity="1" LetterCount="37" />
        <bar Intensity="0.4352941" LetterCount="37" />
        <bar Intensity="0" LetterCount="37" />
        <bar Intensity="0" LetterCount="37" />
        <bar Intensity="0" LetterCount="37" />
        <bar Intensity="0" LetterCount="37" />
        <bar Intensity="0" LetterCount="37" />
      </barInfo>
      <themeList>
        <theme>philosophy</theme>
        <theme>activism</theme>
        <theme>metaphysics</theme>
      </themeList>
      <themeBlackList />
    </lyricSongFactory>
    <lyricSongFactory BarCount="26" BarCountPerChorus="2">
      <barInfo>
        <bar Intensity="0" LetterCount="16" />
        <bar Intensity="0" LetterCount="16" />
        <bar Intensity="0" LetterCount="16" />
        <bar Intensity="0" LetterCount="16" />
        <bar Intensity="0" LetterCount="16" />
        <bar Intensity="0" LetterCount="16" />
        <bar Intensity="0" LetterCount="16" />
        <bar Intensity="0" LetterCount="16" />
        <bar Intensity="0" LetterCount="16" />
        <bar Intensity="0" LetterCount="16" />
        <bar Intensity="0" LetterCount="16" />
        <bar Intensity="0" LetterCount="16" />
        <bar Intensity="0" LetterCount="16" />
        <bar Intensity="0" LetterCount="16" />
        <bar Intensity="0" LetterCount="16" />
        <bar Intensity="0" LetterCount="16" />
        <bar Intensity="0" LetterCount="16" />
        <bar Intensity="0" LetterCount="16" />
        <bar Intensity="0" LetterCount="16" />
        <bar Intensity="0" LetterCount="16" />
        <bar Intensity="0" LetterCount="16" />
        <bar Intensity="0" LetterCount="16" />
        <bar Intensity="0" LetterCount="16" />
        <bar Intensity="0" LetterCount="16" />
        <bar Intensity="0" LetterCount="16" />
        <bar Intensity="0" LetterCount="16" />
      </barInfo>
      <themeList>
        <theme>racism</theme>
        <theme>racism</theme>
      </themeList>
      <themeBlackList />
    </lyricSongFactory>
  </lyricsSongFactoryCollection>
  <predefinedGenerator BarCount="26" IsOverrideScale="True" IsOverrideTempo="True" Modulation="0.28" ScaleName="minorPentatonic" Tempo="94" LyricsToMusicPhase="0">
    <predefinedGeneratorTrack MetaRiffPackName="DrumChromaticTerminator">
      <barInfo isOn="False" />
      <barInfo isOn="True" />
      <barInfo isOn="True" />
      <barInfo isOn="True" />
      <barInfo isOn="False" />
      <barInfo isOn="False" />
      <barInfo isOn="True" />
      <barInfo isOn="True" />
      <barInfo isOn="True" />
      <barInfo isOn="True" />
      <barInfo isOn="True" />
      <barInfo isOn="True" />
      <barInfo isOn="True" />
      <barInfo isOn="True" />
      <barInfo isOn="False" />
      <barInfo isOn="False" />
      <barInfo isOn="False" />
      <barInfo isOn="False" />
      <barInfo isOn="False" />
      <barInfo isOn="False" />
      <barInfo isOn="False" />
      <barInfo isOn="False" />
      <barInfo isOn="False" />
      <barInfo isOn="False" />
      <barInfo isOn="False" />
      <barInfo isOn="False" />
      <barInfo isOn="False" />
      <barInfo isOn="False" />
      <barInfo isOn="False" />
      <barInfo isOn="False" />
      <barInfo isOn="False" />
      <barInfo isOn="False" />
    </predefinedGeneratorTrack>
    <predefinedGeneratorTrack MetaRiffPackName="DrumSnareQuad">
      <barInfo isOn="True" />
      <barInfo isOn="True" />
      <barInfo isOn="True" />
      <barInfo isOn="True" />
      <barInfo isOn="False" />
      <barInfo isOn="False" />
      <barInfo isOn="False" />
      <barInfo isOn="False" />
      <barInfo isOn="False" />
      <barInfo isOn="False" />
      <barInfo isOn="False" />
      <barInfo isOn="False" />
      <barInfo isOn="False" />
      <barInfo isOn="False" />
      <barInfo isOn="False" />
      <barInfo isOn="False" />
      <barInfo isOn="False" />
      <barInfo isOn="False" />
      <barInfo isOn="False" />
      <barInfo isOn="False" />
      <barInfo isOn="False" />
      <barInfo isOn="False" />
      <barInfo isOn="False" />
      <barInfo isOn="False" />
      <barInfo isOn="False" />
      <barInfo isOn="False" />
      <barInfo isOn="False" />
      <barInfo isOn="False" />
      <barInfo isOn="False" />
      <barInfo isOn="False" />
      <barInfo isOn="False" />
      <barInfo isOn="False" />
    </predefinedGeneratorTrack>
    <predefinedGeneratorTrack MetaRiffPackName="BassSynth">
      <barInfo isOn="False" />
      <barInfo isOn="False" />
      <barInfo isOn="False" />
      <barInfo isOn="False" />
      <barInfo isOn="True" />
      <barInfo isOn="True" />
      <barInfo isOn="True" />
      <barInfo isOn="True" />
      <barInfo isOn="True" />
      <barInfo isOn="True" />
      <barInfo isOn="True" />
      <barInfo isOn="True" />
      <barInfo isOn="False" />
      <barInfo isOn="False" />
      <barInfo isOn="False" />
      <barInfo isOn="False" />
      <barInfo isOn="False" />
      <barInfo isOn="False" />
      <barInfo isOn="False" />
      <barInfo isOn="False" />
      <barInfo isOn="False" />
      <barInfo isOn="False" />
      <barInfo isOn="False" />
      <barInfo isOn="False" />
      <barInfo isOn="False" />
      <barInfo isOn="False" />
      <barInfo isOn="False" />
      <barInfo isOn="False" />
      <barInfo isOn="False" />
      <barInfo isOn="False" />
      <barInfo isOn="False" />
      <barInfo isOn="False" />
    </predefinedGeneratorTrack>
    <predefinedGeneratorTrack MetaRiffPackName="Pad">
      <barInfo isOn="True" />
      <barInfo isOn="True" />
      <barInfo isOn="True" />
      <barInfo isOn="True" />
      <barInfo isOn="False" />
      <barInfo isOn="False" />
      <barInfo isOn="False" />
      <barInfo isOn="False" />
      <barInfo isOn="False" />
      <barInfo isOn="False" />
      <barInfo isOn="True" />
      <barInfo isOn="True" />
      <barInfo isOn="False" />
      <barInfo isOn="False" />
      <barInfo isOn="False" />
      <barInfo isOn="False" />
      <barInfo isOn="False" />
      <barInfo isOn="False" />
      <barInfo isOn="False" />
      <barInfo isOn="False" />
      <barInfo isOn="False" />
      <barInfo isOn="False" />
      <barInfo isOn="False" />
      <barInfo isOn="False" />
      <barInfo isOn="False" />
      <barInfo isOn="False" />
      <barInfo isOn="False" />
      <barInfo isOn="False" />
      <barInfo isOn="False" />
      <barInfo isOn="False" />
      <barInfo isOn="False" />
      <barInfo isOn="False" />
    </predefinedGeneratorTrack>
    <predefinedGeneratorTrack MetaRiffPackName="GuitarFolkTernary">
      <barInfo isOn="True" />
      <barInfo isOn="True" />
      <barInfo isOn="True" />
      <barInfo isOn="True" />
      <barInfo isOn="True" />
      <barInfo isOn="True" />
      <barInfo isOn="True" />
      <barInfo isOn="True" />
      <barInfo isOn="False" />
      <barInfo isOn="False" />
      <barInfo isOn="False" />
      <barInfo isOn="False" />
      <barInfo isOn="True" />
      <barInfo isOn="True" />
      <barInfo isOn="False" />
      <barInfo isOn="False" />
      <barInfo isOn="False" />
      <barInfo isOn="False" />
      <barInfo isOn="False" />
      <barInfo isOn="False" />
      <barInfo isOn="False" />
      <barInfo isOn="False" />
      <barInfo isOn="False" />
      <barInfo isOn="False" />
      <barInfo isOn="False" />
      <barInfo isOn="False" />
      <barInfo isOn="False" />
      <barInfo isOn="False" />
      <barInfo isOn="False" />
      <barInfo isOn="False" />
      <barInfo isOn="False" />
      <barInfo isOn="False" />
    </predefinedGeneratorTrack>
    <predefinedGeneratorTrack MetaRiffPackName="Church">
      <barInfo isOn="False" />
      <barInfo isOn="False" />
      <barInfo isOn="False" />
      <barInfo isOn="False" />
      <barInfo isOn="False" />
      <barInfo isOn="False" />
      <barInfo isOn="False" />
      <barInfo isOn="False" />
      <barInfo isOn="True" />
      <barInfo isOn="True" />
      <barInfo isOn="True" />
      <barInfo isOn="True" />
      <barInfo isOn="False" />
      <barInfo isOn="False" />
      <barInfo isOn="False" />
      <barInfo isOn="False" />
      <barInfo isOn="False" />
      <barInfo isOn="False" />
      <barInfo isOn="False" />
      <barInfo isOn="False" />
      <barInfo isOn="False" />
      <barInfo isOn="False" />
      <barInfo isOn="False" />
      <barInfo isOn="False" />
      <barInfo isOn="False" />
      <barInfo isOn="False" />
      <barInfo isOn="False" />
      <barInfo isOn="False" />
      <barInfo isOn="False" />
      <barInfo isOn="False" />
      <barInfo isOn="False" />
      <barInfo isOn="False" />
    </predefinedGeneratorTrack>
    <predefinedGeneratorTrack MetaRiffPackName="DrumSnareOcta">
      <barInfo isOn="False" />
      <barInfo isOn="False" />
      <barInfo isOn="False" />
      <barInfo isOn="False" />
      <barInfo isOn="False" />
      <barInfo isOn="False" />
      <barInfo isOn="False" />
      <barInfo isOn="False" />
      <barInfo isOn="True" />
      <barInfo isOn="True" />
      <barInfo isOn="True" />
      <barInfo isOn="True" />
      <barInfo isOn="False" />
      <barInfo isOn="False" />
      <barInfo isOn="False" />
      <barInfo isOn="False" />
      <barInfo isOn="False" />
      <barInfo isOn="False" />
      <barInfo isOn="False" />
      <barInfo isOn="False" />
      <barInfo isOn="False" />
      <barInfo isOn="False" />
      <barInfo isOn="False" />
      <barInfo isOn="False" />
      <barInfo isOn="False" />
      <barInfo isOn="False" />
      <barInfo isOn="False" />
      <barInfo isOn="False" />
      <barInfo isOn="False" />
      <barInfo isOn="False" />
      <barInfo isOn="False" />
      <barInfo isOn="False" />
    </predefinedGeneratorTrack>
  </predefinedGenerator>
</song>