<?xml version="1.0" encoding="UTF-8"?>
<song>
  <riffPack Tempo="96">
    <riff IsDrum="False" MidiInstrument="77" Tempo="104" Length="12">
      <note Length="0.03125" Pitch="57" RiffPosition="0" Velocity="41" />
      <note Length="0.03125" Pitch="72" RiffPosition="0.03125" Velocity="59" />
      <note Length="0.03125" Pitch="69" RiffPosition="0.0625" Velocity="46" />
      <note Length="0.03125" Pitch="65" RiffPosition="0.09375" Velocity="63" />
      <note Length="0.0234375" Pitch="69" RiffPosition="0.125" Velocity="48" />
      <note Length="0.0078125" Pitch="76" RiffPosition="0.1484375" Velocity="46" />
      <note Length="0.046875" Pitch="72" RiffPosition="0.15625" Velocity="47" />
      <note Length="0.046875" Pitch="57" RiffPosition="0.203125" Velocity="57" />
      <note Length="0.03125" Pitch="69" RiffPosition="0.25" Velocity="43" />
      <note Length="0.03125" Pitch="76" RiffPosition="0.28125" Velocity="54" />
      <note Length="0.0625" Pitch="72" RiffPosition="0.3125" Velocity="47" />
      <note Length="0.03125" Pitch="71" RiffPosition="0.375" Velocity="68" />
      <note Length="0.03125" Pitch="72" RiffPosition="0.40625" Velocity="94" />
      <note Length="0.03125" Pitch="69" RiffPosition="0.4375" Velocity="51" />
      <note Length="0.03125" Pitch="57" RiffPosition="0.46875" Velocity="65" />
      <note Length="0.03125" Pitch="69" RiffPosition="0.5" Velocity="51" />
      <note Length="0.03125" Pitch="72" RiffPosition="0.53125" Velocity="58" />
      <note Length="0.03125" Pitch="57" RiffPosition="0.5625" Velocity="72" />
      <note Length="0.03125" Pitch="64" RiffPosition="0.59375" Velocity="67" />
      <note Length="0.0234375" Pitch="69" RiffPosition="0.625" Velocity="53" />
      <note Length="0.0078125" Pitch="69" RiffPosition="0.6484375" Velocity="44" />
      <note Length="0.046875" Pitch="71" RiffPosition="0.65625" Velocity="69" />
      <note Length="0.046875" Pitch="57" RiffPosition="0.703125" Velocity="45" />
      <note Length="0.03125" Pitch="57" RiffPosition="0.75" Velocity="42" />
      <note Length="0.03125" Pitch="72" RiffPosition="0.78125" Velocity="65" />
      <note Length="0.0625" Pitch="57" RiffPosition="0.8125" Velocity="79" />
      <note Length="0.03125" Pitch="57" RiffPosition="0.875" Velocity="85" />
      <note Length="0.03125" Pitch="72" RiffPosition="0.90625" Velocity="53" />
      <note Length="0.03125" Pitch="57" RiffPosition="0.9375" Velocity="55" />
      <note Length="0.03125" Pitch="64" RiffPosition="0.96875" Velocity="46" />
      <note Length="0.03125" Pitch="69" RiffPosition="1" Velocity="46" />
      <note Length="0.03125" Pitch="72" RiffPosition="1.03125" Velocity="51" />
      <note Length="0.03125" Pitch="57" RiffPosition="1.0625" Velocity="44" />
      <note Length="0.03125" Pitch="57" RiffPosition="1.09375" Velocity="55" />
      <note Length="0.0234375" Pitch="69" RiffPosition="1.125" Velocity="42" />
      <note Length="0.0078125" Pitch="72" RiffPosition="1.1484375" Velocity="56" />
      <note Length="0.046875" Pitch="75" RiffPosition="1.15625" Velocity="40" />
      <note Length="0.046875" Pitch="57" RiffPosition="1.203125" Velocity="48" />
      <note Length="0.03125" Pitch="72" RiffPosition="1.25" Velocity="51" />
      <note Length="0.03125" Pitch="72" RiffPosition="1.28125" Velocity="64" />
      <note Length="0.0625" Pitch="71" RiffPosition="1.3125" Velocity="40" />
      <note Length="0.03125" Pitch="69" RiffPosition="1.375" Velocity="78" />
      <note Length="0.03125" Pitch="75" RiffPosition="1.40625" Velocity="86" />
      <note Length="0.03125" Pitch="57" RiffPosition="1.4375" Velocity="61" />
      <note Length="0.03125" Pitch="57" RiffPosition="1.46875" Velocity="75" />
      <note Length="0.03125" Pitch="69" RiffPosition="1.5" Velocity="58" />
      <note Length="0.03125" Pitch="72" RiffPosition="1.53125" Velocity="48" />
      <note Length="0.03125" Pitch="57" RiffPosition="1.5625" Velocity="79" />
      <note Length="0.03125" Pitch="63" RiffPosition="1.59375" Velocity="57" />
      <note Length="0.0234375" Pitch="57" RiffPosition="1.625" Velocity="44" />
      <note Length="0.0078125" Pitch="72" RiffPosition="1.6484375" Velocity="52" />
      <note Length="0.046875" Pitch="72" RiffPosition="1.65625" Velocity="62" />
      <note Length="0.046875" Pitch="65" RiffPosition="1.703125" Velocity="44" />
      <note Length="0.03125" Pitch="57" RiffPosition="1.75" Velocity="49" />
      <note Length="0.03125" Pitch="69" RiffPosition="1.78125" Velocity="56" />
      <note Length="0.0625" Pitch="57" RiffPosition="1.8125" Velocity="87" />
      <note Length="0.03125" Pitch="57" RiffPosition="1.875" Velocity="92" />
      <note Length="0.03125" Pitch="69" RiffPosition="1.90625" Velocity="60" />
      <note Length="0.03125" Pitch="57" RiffPosition="1.9375" Velocity="45" />
      <note Length="0.03125" Pitch="57" RiffPosition="1.96875" Velocity="41" />
      <note Length="0.03125" Pitch="57" RiffPosition="2" Velocity="44" />
      <note Length="0.03125" Pitch="72" RiffPosition="2.03125" Velocity="44" />
      <note Length="0.03125" Pitch="69" RiffPosition="2.0625" Velocity="43" />
      <note Length="0.03125" Pitch="57" RiffPosition="2.09375" Velocity="65" />
      <note Length="0.0234375" Pitch="71" RiffPosition="2.125" Velocity="46" />
      <note Length="0.0078125" Pitch="72" RiffPosition="2.1484375" Velocity="48" />
      <note Length="0.046875" Pitch="72" RiffPosition="2.15625" Velocity="49" />
      <note Length="0.046875" Pitch="57" RiffPosition="2.203125" Velocity="55" />
      <note Length="0.03125" Pitch="71" RiffPosition="2.25" Velocity="41" />
      <note Length="0.03125" Pitch="76" RiffPosition="2.28125" Velocity="56" />
      <note Length="0.0625" Pitch="69" RiffPosition="2.3125" Velocity="49" />
      <note Length="0.03125" Pitch="72" RiffPosition="2.375" Velocity="71" />
      <note Length="0.03125" Pitch="72" RiffPosition="2.40625" Velocity="96" />
      <note Length="0.03125" Pitch="69" RiffPosition="2.4375" Velocity="53" />
      <note Length="0.03125" Pitch="64" RiffPosition="2.46875" Velocity="67" />
      <note Length="0.03125" Pitch="69" RiffPosition="2.5" Velocity="49" />
      <note Length="0.03125" Pitch="72" RiffPosition="2.53125" Velocity="55" />
      <note Length="0.03125" Pitch="57" RiffPosition="2.5625" Velocity="69" />
      <note Length="0.03125" Pitch="65" RiffPosition="2.59375" Velocity="65" />
      <note Length="0.0234375" Pitch="57" RiffPosition="2.625" Velocity="51" />
      <note Length="0.0078125" Pitch="71" RiffPosition="2.6484375" Velocity="42" />
      <note Length="0.046875" Pitch="71" RiffPosition="2.65625" Velocity="71" />
      <note Length="0.046875" Pitch="63" RiffPosition="2.703125" Velocity="43" />
      <note Length="0.03125" Pitch="57" RiffPosition="2.75" Velocity="56" />
      <note Length="0.03125" Pitch="69" RiffPosition="2.78125" Velocity="63" />
      <note Length="0.0625" Pitch="57" RiffPosition="2.8125" Velocity="77" />
      <note Length="0.03125" Pitch="57" RiffPosition="2.875" Velocity="83" />
      <note Length="0.03125" Pitch="72" RiffPosition="2.90625" Velocity="68" />
      <note Length="0.03125" Pitch="69" RiffPosition="2.9375" Velocity="53" />
      <note Length="0.03125" Pitch="64" RiffPosition="2.96875" Velocity="48" />
      <note Length="0.03125" Pitch="69" RiffPosition="3" Velocity="44" />
      <note Length="0.03125" Pitch="72" RiffPosition="3.03125" Velocity="54" />
      <note Length="0.03125" Pitch="69" RiffPosition="3.0625" Velocity="51" />
      <note Length="0.03125" Pitch="57" RiffPosition="3.09375" Velocity="58" />
      <note Length="0.0234375" Pitch="69" RiffPosition="3.125" Velocity="44" />
      <note Length="0.0078125" Pitch="75" RiffPosition="3.1484375" Velocity="41" />
      <note Length="0.046875" Pitch="75" RiffPosition="3.15625" Velocity="42" />
      <note Length="0.046875" Pitch="57" RiffPosition="3.203125" Velocity="45" />
      <note Length="0.03125" Pitch="72" RiffPosition="3.25" Velocity="48" />
      <note Length="0.03125" Pitch="75" RiffPosition="3.28125" Velocity="66" />
      <note Length="0.0625" Pitch="71" RiffPosition="3.3125" Velocity="42" />
      <note Length="0.03125" Pitch="69" RiffPosition="3.375" Velocity="80" />
      <note Length="0.03125" Pitch="75" RiffPosition="3.40625" Velocity="89" />
      <note Length="0.03125" Pitch="57" RiffPosition="3.4375" Velocity="63" />
      <note Length="0.03125" Pitch="57" RiffPosition="3.46875" Velocity="60" />
      <note Length="0.03125" Pitch="57" RiffPosition="3.5" Velocity="56" />
      <note Length="0.03125" Pitch="72" RiffPosition="3.53125" Velocity="46" />
      <note Length="0.03125" Pitch="69" RiffPosition="3.5625" Velocity="77" />
      <note Length="0.03125" Pitch="64" RiffPosition="3.59375" Velocity="55" />
      <note Length="0.0234375" Pitch="57" RiffPosition="3.625" Velocity="59" />
      <note Length="0.0078125" Pitch="72" RiffPosition="3.6484375" Velocity="49" />
      <note Length="0.046875" Pitch="69" RiffPosition="3.65625" Velocity="64" />
      <note Length="0.046875" Pitch="65" RiffPosition="3.703125" Velocity="50" />
      <note Length="0.03125" Pitch="57" RiffPosition="3.75" Velocity="47" />
      <note Length="0.03125" Pitch="71" RiffPosition="3.78125" Velocity="70" />
      <note Length="0.0625" Pitch="57" RiffPosition="3.8125" Velocity="84" />
      <note Length="0.03125" Pitch="57" RiffPosition="3.875" Velocity="90" />
      <note Length="0.03125" Pitch="71" RiffPosition="3.90625" Velocity="58" />
      <note Length="0.03125" Pitch="57" RiffPosition="3.9375" Velocity="60" />
      <note Length="0.03125" Pitch="57" RiffPosition="3.96875" Velocity="41" />
      <note Length="0.03125" Pitch="57" RiffPosition="4" Velocity="46" />
      <note Length="0.03125" Pitch="72" RiffPosition="4.03125" Velocity="46" />
      <note Length="0.03125" Pitch="57" RiffPosition="4.0625" Velocity="41" />
      <note Length="0.03125" Pitch="57" RiffPosition="4.09375" Velocity="67" />
      <note Length="0.0234375" Pitch="71" RiffPosition="4.125" Velocity="44" />
      <note Length="0.0078125" Pitch="72" RiffPosition="4.1484375" Velocity="51" />
      <note Length="0.046875" Pitch="72" RiffPosition="4.15625" Velocity="51" />
      <note Length="0.046875" Pitch="69" RiffPosition="4.203125" Velocity="53" />
      <note Length="0.03125" Pitch="71" RiffPosition="4.25" Velocity="41" />
      <note Length="0.03125" Pitch="76" RiffPosition="4.28125" Velocity="59" />
      <note Length="0.0625" Pitch="69" RiffPosition="4.3125" Velocity="51" />
      <note Length="0.03125" Pitch="69" RiffPosition="4.375" Velocity="73" />
      <note Length="0.03125" Pitch="72" RiffPosition="4.40625" Velocity="98" />
      <note Length="0.03125" Pitch="69" RiffPosition="4.4375" Velocity="55" />
      <note Length="0.03125" Pitch="65" RiffPosition="4.46875" Velocity="70" />
      <note Length="0.03125" Pitch="69" RiffPosition="4.5" Velocity="64" />
      <note Length="0.03125" Pitch="71" RiffPosition="4.53125" Velocity="53" />
      <note Length="0.03125" Pitch="57" RiffPosition="4.5625" Velocity="67" />
      <note Length="0.03125" Pitch="65" RiffPosition="4.59375" Velocity="63" />
      <note Length="0.0234375" Pitch="57" RiffPosition="4.625" Velocity="49" />
      <note Length="0.0078125" Pitch="71" RiffPosition="4.6484375" Velocity="40" />
      <note Length="0.046875" Pitch="72" RiffPosition="4.65625" Velocity="57" />
      <note Length="0.046875" Pitch="64" RiffPosition="4.703125" Velocity="41" />
      <note Length="0.03125" Pitch="57" RiffPosition="4.75" Velocity="54" />
      <note Length="0.03125" Pitch="69" RiffPosition="4.78125" Velocity="61" />
      <note Length="0.0625" Pitch="57" RiffPosition="4.8125" Velocity="92" />
      <note Length="0.03125" Pitch="57" RiffPosition="4.875" Velocity="81" />
      <note Length="0.03125" Pitch="72" RiffPosition="4.90625" Velocity="65" />
      <note Length="0.03125" Pitch="57" RiffPosition="4.9375" Velocity="50" />
      <note Length="0.03125" Pitch="65" RiffPosition="4.96875" Velocity="51" />
      <note Length="0.03125" Pitch="69" RiffPosition="5" Velocity="41" />
      <note Length="0.03125" Pitch="72" RiffPosition="5.03125" Velocity="56" />
      <note Length="0.03125" Pitch="69" RiffPosition="5.0625" Velocity="48" />
      <note Length="0.03125" Pitch="65" RiffPosition="5.09375" Velocity="60" />
      <note Length="0.0234375" Pitch="69" RiffPosition="5.125" Velocity="46" />
      <note Length="0.0078125" Pitch="75" RiffPosition="5.1484375" Velocity="43" />
      <note Length="0.046875" Pitch="75" RiffPosition="5.15625" Velocity="44" />
      <note Length="0.046875" Pitch="57" RiffPosition="5.203125" Velocity="43" />
      <note Length="0.03125" Pitch="69" RiffPosition="5.25" Velocity="46" />
      <note Length="0.03125" Pitch="75" RiffPosition="5.28125" Velocity="68" />
      <note Length="0.0625" Pitch="71" RiffPosition="5.3125" Velocity="44" />
      <note Length="0.03125" Pitch="71" RiffPosition="5.375" Velocity="66" />
      <note Length="0.03125" Pitch="72" RiffPosition="5.40625" Velocity="91" />
      <note Length="0.03125" Pitch="69" RiffPosition="5.4375" Velocity="65" />
      <note Length="0.03125" Pitch="57" RiffPosition="5.46875" Velocity="62" />
      <note Length="0.03125" Pitch="57" RiffPosition="5.5" Velocity="54" />
      <note Length="0.03125" Pitch="72" RiffPosition="5.53125" Velocity="60" />
      <note Length="0.03125" Pitch="69" RiffPosition="5.5625" Velocity="75" />
      <note Length="0.03125" Pitch="64" RiffPosition="5.59375" Velocity="53" />
      <note Length="0.0234375" Pitch="57" RiffPosition="5.625" Velocity="56" />
      <note Length="0.0078125" Pitch="69" RiffPosition="5.6484375" Velocity="47" />
      <note Length="0.046875" Pitch="69" RiffPosition="5.65625" Velocity="66" />
      <note Length="0.046875" Pitch="65" RiffPosition="5.703125" Velocity="48" />
      <note Length="0.03125" Pitch="57" RiffPosition="5.75" Velocity="45" />
      <note Length="0.03125" Pitch="71" RiffPosition="5.78125" Velocity="68" />
      <note Length="0.0625" Pitch="57" RiffPosition="5.8125" Velocity="82" />
      <note Length="0.03125" Pitch="69" RiffPosition="5.875" Velocity="88" />
      <note Length="0.03125" Pitch="71" RiffPosition="5.90625" Velocity="56" />
      <note Length="0.03125" Pitch="57" RiffPosition="5.9375" Velocity="58" />
      <note Length="0.03125" Pitch="63" RiffPosition="5.96875" Velocity="43" />
      <note Length="0.03125" Pitch="69" RiffPosition="6" Velocity="48" />
      <note Length="0.03125" Pitch="72" RiffPosition="6.03125" Velocity="48" />
      <note Length="0.03125" Pitch="57" RiffPosition="6.0625" Velocity="41" />
      <note Length="0.03125" Pitch="57" RiffPosition="6.09375" Velocity="53" />
      <note Length="0.0234375" Pitch="69" RiffPosition="6.125" Velocity="41" />
      <note Length="0.0078125" Pitch="72" RiffPosition="6.1484375" Velocity="53" />
      <note Length="0.046875" Pitch="72" RiffPosition="6.15625" Velocity="54" />
      <note Length="0.046875" Pitch="57" RiffPosition="6.203125" Velocity="50" />
      <note Length="0.03125" Pitch="72" RiffPosition="6.25" Velocity="53" />
      <note Length="0.03125" Pitch="72" RiffPosition="6.28125" Velocity="61" />
      <note Length="0.0625" Pitch="69" RiffPosition="6.3125" Velocity="54" />
      <note Length="0.03125" Pitch="69" RiffPosition="6.375" Velocity="75" />
      <note Length="0.03125" Pitch="72" RiffPosition="6.40625" Velocity="84" />
      <note Length="0.03125" Pitch="69" RiffPosition="6.4375" Velocity="58" />
      <note Length="0.03125" Pitch="65" RiffPosition="6.46875" Velocity="72" />
      <note Length="0.03125" Pitch="69" RiffPosition="6.5" Velocity="61" />
      <note Length="0.03125" Pitch="72" RiffPosition="6.53125" Velocity="51" />
      <note Length="0.03125" Pitch="57" RiffPosition="6.5625" Velocity="82" />
      <note Length="0.03125" Pitch="57" RiffPosition="6.59375" Velocity="60" />
      <note Length="0.0234375" Pitch="57" RiffPosition="6.625" Velocity="47" />
      <note Length="0.0078125" Pitch="72" RiffPosition="6.6484375" Velocity="54" />
      <note Length="0.046875" Pitch="72" RiffPosition="6.65625" Velocity="59" />
      <note Length="0.046875" Pitch="64" RiffPosition="6.703125" Velocity="41" />
      <note Length="0.03125" Pitch="57" RiffPosition="6.75" Velocity="52" />
      <note Length="0.03125" Pitch="69" RiffPosition="6.78125" Velocity="59" />
      <note Length="0.0625" Pitch="57" RiffPosition="6.8125" Velocity="89" />
      <note Length="0.03125" Pitch="57" RiffPosition="6.875" Velocity="79" />
      <note Length="0.03125" Pitch="72" RiffPosition="6.90625" Velocity="63" />
      <note Length="0.03125" Pitch="57" RiffPosition="6.9375" Velocity="48" />
      <note Length="0.03125" Pitch="65" RiffPosition="6.96875" Velocity="44" />
      <note Length="0.03125" Pitch="57" RiffPosition="7" Velocity="41" />
      <note Length="0.03125" Pitch="72" RiffPosition="7.03125" Velocity="58" />
      <note Length="0.03125" Pitch="69" RiffPosition="7.0625" Velocity="46" />
      <note Length="0.03125" Pitch="65" RiffPosition="7.09375" Velocity="62" />
      <note Length="0.0234375" Pitch="69" RiffPosition="7.125" Velocity="49" />
      <note Length="0.0078125" Pitch="75" RiffPosition="7.1484375" Velocity="46" />
      <note Length="0.046875" Pitch="72" RiffPosition="7.15625" Velocity="46" />
      <note Length="0.046875" Pitch="57" RiffPosition="7.203125" Velocity="58" />
      <note Length="0.03125" Pitch="69" RiffPosition="7.25" Velocity="44" />
      <note Length="0.03125" Pitch="76" RiffPosition="7.28125" Velocity="54" />
      <note Length="0.0625" Pitch="72" RiffPosition="7.3125" Velocity="46" />
      <note Length="0.03125" Pitch="71" RiffPosition="7.375" Velocity="68" />
      <note Length="0.03125" Pitch="72" RiffPosition="7.40625" Velocity="93" />
      <note Length="0.03125" Pitch="69" RiffPosition="7.4375" Velocity="50" />
      <note Length="0.03125" Pitch="57" RiffPosition="7.46875" Velocity="65" />
      <note Length="0.03125" Pitch="57" RiffPosition="7.5" Velocity="52" />
      <note Length="0.03125" Pitch="72" RiffPosition="7.53125" Velocity="58" />
      <note Length="0.03125" Pitch="57" RiffPosition="7.5625" Velocity="72" />
      <note Length="0.03125" Pitch="64" RiffPosition="7.59375" Velocity="51" />
      <note Length="0.0234375" Pitch="69" RiffPosition="7.625" Velocity="54" />
      <note Length="0.0078125" Pitch="69" RiffPosition="7.6484375" Velocity="45" />
      <note Length="0.046875" Pitch="71" RiffPosition="7.65625" Velocity="68" />
      <note Length="0.046875" Pitch="57" RiffPosition="7.703125" Velocity="46" />
      <note Length="0.03125" Pitch="57" RiffPosition="7.75" Velocity="42" />
      <note Length="0.03125" Pitch="71" RiffPosition="7.78125" Velocity="66" />
      <note Length="0.0625" Pitch="57" RiffPosition="7.8125" Velocity="80" />
      <note Length="0.03125" Pitch="57" RiffPosition="7.875" Velocity="86" />
      <note Length="0.03125" Pitch="71" RiffPosition="7.90625" Velocity="54" />
      <note Length="0.03125" Pitch="57" RiffPosition="7.9375" Velocity="55" />
      <note Length="0.03125" Pitch="64" RiffPosition="7.96875" Velocity="46" />
      <note Length="0.03125" Pitch="69" RiffPosition="8" Velocity="46" />
      <note Length="0.03125" Pitch="72" RiffPosition="8.03125" Velocity="51" />
      <note Length="0.03125" Pitch="57" RiffPosition="8.0625" Velocity="43" />
      <note Length="0.03125" Pitch="57" RiffPosition="8.09375" Velocity="55" />
      <note Length="0.0234375" Pitch="69" RiffPosition="8.125" Velocity="41" />
      <note Length="0.0078125" Pitch="72" RiffPosition="8.1484375" Velocity="55" />
      <note Length="0.046875" Pitch="72" RiffPosition="8.15625" Velocity="41" />
      <note Length="0.046875" Pitch="57" RiffPosition="8.203125" Velocity="48" />
      <note Length="0.03125" Pitch="72" RiffPosition="8.25" Velocity="51" />
      <note Length="0.03125" Pitch="72" RiffPosition="8.28125" Velocity="63" />
      <note Length="0.0625" Pitch="69" RiffPosition="8.3125" Velocity="41" />
      <note Length="0.03125" Pitch="69" RiffPosition="8.375" Velocity="77" />
      <note Length="0.03125" Pitch="75" RiffPosition="8.40625" Velocity="86" />
      <note Length="0.03125" Pitch="57" RiffPosition="8.4375" Velocity="60" />
      <note Length="0.03125" Pitch="57" RiffPosition="8.46875" Velocity="74" />
      <note Length="0.03125" Pitch="69" RiffPosition="8.5" Velocity="59" />
      <note Length="0.03125" Pitch="72" RiffPosition="8.53125" Velocity="49" />
      <note Length="0.03125" Pitch="57" RiffPosition="8.5625" Velocity="80" />
      <note Length="0.03125" Pitch="63" RiffPosition="8.59375" Velocity="58" />
      <note Length="0.0234375" Pitch="57" RiffPosition="8.625" Velocity="45" />
      <note Length="0.0078125" Pitch="72" RiffPosition="8.6484375" Velocity="52" />
      <note Length="0.046875" Pitch="72" RiffPosition="8.65625" Velocity="61" />
      <note Length="0.046875" Pitch="64" RiffPosition="8.703125" Velocity="44" />
      <note Length="0.03125" Pitch="57" RiffPosition="8.75" Velocity="50" />
      <note Length="0.03125" Pitch="69" RiffPosition="8.78125" Velocity="56" />
      <note Length="0.0625" Pitch="57" RiffPosition="8.8125" Velocity="87" />
      <note Length="0.03125" Pitch="57" RiffPosition="8.875" Velocity="93" />
      <note Length="0.03125" Pitch="72" RiffPosition="8.90625" Velocity="61" />
      <note Length="0.03125" Pitch="57" RiffPosition="8.9375" Velocity="46" />
      <note Length="0.03125" Pitch="57" RiffPosition="8.96875" Velocity="42" />
      <note Length="0.03125" Pitch="57" RiffPosition="9" Velocity="43" />
      <note Length="0.03125" Pitch="72" RiffPosition="9.03125" Velocity="43" />
      <note Length="0.03125" Pitch="69" RiffPosition="9.0625" Velocity="44" />
      <note Length="0.03125" Pitch="57" RiffPosition="9.09375" Velocity="64" />
      <note Length="0.0234375" Pitch="71" RiffPosition="9.125" Velocity="46" />
      <note Length="0.0078125" Pitch="72" RiffPosition="9.1484375" Velocity="48" />
      <note Length="0.046875" Pitch="72" RiffPosition="9.15625" Velocity="49" />
      <note Length="0.046875" Pitch="57" RiffPosition="9.203125" Velocity="55" />
      <note Length="0.03125" Pitch="71" RiffPosition="9.25" Velocity="42" />
      <note Length="0.03125" Pitch="76" RiffPosition="9.28125" Velocity="56" />
      <note Length="0.0625" Pitch="69" RiffPosition="9.3125" Velocity="49" />
      <note Length="0.03125" Pitch="72" RiffPosition="9.375" Velocity="70" />
      <note Length="0.03125" Pitch="72" RiffPosition="9.40625" Velocity="95" />
      <note Length="0.03125" Pitch="69" RiffPosition="9.4375" Velocity="53" />
      <note Length="0.03125" Pitch="64" RiffPosition="9.46875" Velocity="67" />
      <note Length="0.03125" Pitch="69" RiffPosition="9.5" Velocity="50" />
      <note Length="0.03125" Pitch="72" RiffPosition="9.53125" Velocity="56" />
      <note Length="0.03125" Pitch="57" RiffPosition="9.5625" Velocity="70" />
      <note Length="0.03125" Pitch="65" RiffPosition="9.59375" Velocity="65" />
      <note Length="0.0234375" Pitch="57" RiffPosition="9.625" Velocity="52" />
      <note Length="0.0078125" Pitch="71" RiffPosition="9.6484375" Velocity="43" />
      <note Length="0.046875" Pitch="71" RiffPosition="9.65625" Velocity="71" />
      <note Length="0.046875" Pitch="63" RiffPosition="9.703125" Velocity="44" />
      <note Length="0.03125" Pitch="57" RiffPosition="9.75" Velocity="57" />
      <note Length="0.03125" Pitch="72" RiffPosition="9.78125" Velocity="64" />
      <note Length="0.0625" Pitch="57" RiffPosition="9.8125" Velocity="78" />
      <note Length="0.03125" Pitch="57" RiffPosition="9.875" Velocity="84" />
      <note Length="0.03125" Pitch="72" RiffPosition="9.90625" Velocity="68" />
      <note Length="0.03125" Pitch="69" RiffPosition="9.9375" Velocity="53" />
      <note Length="0.03125" Pitch="64" RiffPosition="9.96875" Velocity="48" />
      <note Length="0.03125" Pitch="69" RiffPosition="10" Velocity="44" />
      <note Length="0.03125" Pitch="72" RiffPosition="10.03125" Velocity="53" />
      <note Length="0.03125" Pitch="69" RiffPosition="10.0625" Velocity="46" />
      <note Length="0.03125" Pitch="57" RiffPosition="10.09375" Velocity="57" />
      <note Length="0.0234375" Pitch="69" RiffPosition="10.125" Velocity="43" />
      <note Length="0.0078125" Pitch="72" RiffPosition="10.1484375" Velocity="41" />
      <note Length="0.046875" Pitch="75" RiffPosition="10.15625" Velocity="41" />
      <note Length="0.046875" Pitch="57" RiffPosition="10.203125" Velocity="46" />
      <note Length="0.03125" Pitch="72" RiffPosition="10.25" Velocity="49" />
      <note Length="0.03125" Pitch="75" RiffPosition="10.28125" Velocity="65" />
      <note Length="0.0625" Pitch="71" RiffPosition="10.3125" Velocity="41" />
      <note Length="0.03125" Pitch="69" RiffPosition="10.375" Velocity="80" />
      <note Length="0.03125" Pitch="75" RiffPosition="10.40625" Velocity="88" />
      <note Length="0.03125" Pitch="57" RiffPosition="10.4375" Velocity="62" />
      <note Length="0.03125" Pitch="57" RiffPosition="10.46875" Velocity="60" />
      <note Length="0.03125" Pitch="57" RiffPosition="10.5" Velocity="57" />
      <note Length="0.03125" Pitch="72" RiffPosition="10.53125" Velocity="46" />
      <note Length="0.03125" Pitch="69" RiffPosition="10.5625" Velocity="77" />
      <note Length="0.03125" Pitch="63" RiffPosition="10.59375" Velocity="56" />
      <note Length="0.0234375" Pitch="57" RiffPosition="10.625" Velocity="59" />
      <note Length="0.0078125" Pitch="72" RiffPosition="10.6484375" Velocity="50" />
      <note Length="0.046875" Pitch="72" RiffPosition="10.65625" Velocity="63" />
      <note Length="0.046875" Pitch="65" RiffPosition="10.703125" Velocity="51" />
      <note Length="0.03125" Pitch="57" RiffPosition="10.75" Velocity="47" />
      <note Length="0.03125" Pitch="69" RiffPosition="10.78125" Velocity="71" />
      <note Length="0.0625" Pitch="57" RiffPosition="10.8125" Velocity="85" />
      <note Length="0.03125" Pitch="57" RiffPosition="10.875" Velocity="91" />
      <note Length="0.03125" Pitch="69" RiffPosition="10.90625" Velocity="59" />
      <note Length="0.03125" Pitch="57" RiffPosition="10.9375" Velocity="44" />
      <note Length="0.03125" Pitch="57" RiffPosition="10.96875" Velocity="41" />
      <note Length="0.03125" Pitch="57" RiffPosition="11" Velocity="45" />
      <note Length="0.03125" Pitch="72" RiffPosition="11.03125" Velocity="46" />
      <note Length="0.03125" Pitch="57" RiffPosition="11.0625" Velocity="42" />
      <note Length="0.03125" Pitch="57" RiffPosition="11.09375" Velocity="67" />
      <note Length="0.0234375" Pitch="71" RiffPosition="11.125" Velocity="44" />
      <note Length="0.0078125" Pitch="72" RiffPosition="11.1484375" Velocity="50" />
      <note Length="0.046875" Pitch="72" RiffPosition="11.15625" Velocity="51" />
      <note Length="0.046875" Pitch="69" RiffPosition="11.203125" Velocity="53" />
      <note Length="0.03125" Pitch="71" RiffPosition="11.25" Velocity="41" />
      <note Length="0.03125" Pitch="76" RiffPosition="11.28125" Velocity="58" />
      <note Length="0.0625" Pitch="69" RiffPosition="11.3125" Velocity="51" />
      <note Length="0.03125" Pitch="69" RiffPosition="11.375" Velocity="72" />
      <note Length="0.03125" Pitch="72" RiffPosition="11.40625" Velocity="98" />
      <note Length="0.03125" Pitch="69" RiffPosition="11.4375" Velocity="55" />
      <note Length="0.03125" Pitch="65" RiffPosition="11.46875" Velocity="69" />
      <note Length="0.03125" Pitch="69" RiffPosition="11.5" Velocity="64" />
      <note Length="0.03125" Pitch="72" RiffPosition="11.53125" Velocity="54" />
      <note Length="0.03125" Pitch="57" RiffPosition="11.5625" Velocity="68" />
      <note Length="0.03125" Pitch="65" RiffPosition="11.59375" Velocity="63" />
      <note Length="0.0234375" Pitch="57" RiffPosition="11.625" Velocity="50" />
      <note Length="0.0078125" Pitch="71" RiffPosition="11.6484375" Velocity="41" />
      <note Length="0.046875" Pitch="71" RiffPosition="11.65625" Velocity="56" />
      <note Length="0.046875" Pitch="64" RiffPosition="11.703125" Velocity="41" />
      <note Length="0.03125" Pitch="57" RiffPosition="11.75" Velocity="55" />
      <note Length="0.03125" Pitch="69" RiffPosition="11.78125" Velocity="61" />
      <note Length="0.0625" Pitch="57" RiffPosition="11.8125" Velocity="76" />
      <note Length="0.03125" Pitch="57" RiffPosition="11.875" Velocity="81" />
      <note Length="0.03125" Pitch="72" RiffPosition="11.90625" Velocity="66" />
      <note Length="0.03125" Pitch="57" RiffPosition="11.9375" Velocity="51" />
      <note Length="0.03125" Pitch="65" RiffPosition="11.96875" Velocity="50" />
    </riff>
    <riff IsDrum="False" MidiInstrument="106" Tempo="108" Length="12">
      <note Length="0.046875" Pitch="60" RiffPosition="0" Velocity="36" />
      <note Length="0.046875" Pitch="57" RiffPosition="0.046875" Velocity="66" />
      <note Length="0.09375" Pitch="63" RiffPosition="0.09375" Velocity="34" />
      <note Length="0.03125" Pitch="45" RiffPosition="0.1875" Velocity="35" />
      <note Length="0.0234375" Pitch="57" RiffPosition="0.21875" Velocity="77" />
      <note Length="0.0078125" Pitch="45" RiffPosition="0.2421875" Velocity="81" />
      <note Length="0.046875" Pitch="45" RiffPosition="0.25" Velocity="78" />
      <note Length="0.046875" Pitch="51" RiffPosition="0.296875" Velocity="48" />
      <note Length="0.09375" Pitch="57" RiffPosition="0.34375" Velocity="59" />
      <note Length="0.03125" Pitch="45" RiffPosition="0.4375" Velocity="32" />
      <note Length="0.0234375" Pitch="59" RiffPosition="0.46875" Velocity="46" />
      <note Length="0.0078125" Pitch="63" RiffPosition="0.4921875" Velocity="49" />
      <note Length="0.046875" Pitch="60" RiffPosition="0.5" Velocity="47" />
      <note Length="0.046875" Pitch="45" RiffPosition="0.546875" Velocity="72" />
      <note Length="0.09375" Pitch="63" RiffPosition="0.59375" Velocity="71" />
      <note Length="0.03125" Pitch="45" RiffPosition="0.6875" Velocity="60" />
      <note Length="0.0234375" Pitch="57" RiffPosition="0.71875" Velocity="46" />
      <note Length="0.0078125" Pitch="45" RiffPosition="0.7421875" Velocity="43" />
      <note Length="0.046875" Pitch="45" RiffPosition="0.75" Velocity="55" />
      <note Length="0.046875" Pitch="51" RiffPosition="0.796875" Velocity="45" />
      <note Length="0.09375" Pitch="45" RiffPosition="0.84375" Velocity="46" />
      <note Length="0.03125" Pitch="45" RiffPosition="0.9375" Velocity="55" />
      <note Length="0.0234375" Pitch="60" RiffPosition="0.96875" Velocity="100" />
      <note Length="0.0078125" Pitch="64" RiffPosition="0.9921875" Velocity="61" />
      <note Length="0.046875" Pitch="60" RiffPosition="1" Velocity="59" />
      <note Length="0.046875" Pitch="45" RiffPosition="1.046875" Velocity="71" />
      <note Length="0.09375" Pitch="60" RiffPosition="1.09375" Velocity="49" />
      <note Length="0.03125" Pitch="45" RiffPosition="1.1875" Velocity="37" />
      <note Length="0.0234375" Pitch="57" RiffPosition="1.21875" Velocity="40" />
      <note Length="0.0078125" Pitch="45" RiffPosition="1.2421875" Velocity="59" />
      <note Length="0.046875" Pitch="45" RiffPosition="1.25" Velocity="61" />
      <note Length="0.046875" Pitch="51" RiffPosition="1.296875" Velocity="50" />
      <note Length="0.09375" Pitch="45" RiffPosition="1.34375" Velocity="80" />
      <note Length="0.03125" Pitch="57" RiffPosition="1.4375" Velocity="52" />
      <note Length="0.0234375" Pitch="60" RiffPosition="1.46875" Velocity="55" />
      <note Length="0.0078125" Pitch="63" RiffPosition="1.4921875" Velocity="33" />
      <note Length="0.046875" Pitch="63" RiffPosition="1.5" Velocity="36" />
      <note Length="0.046875" Pitch="57" RiffPosition="1.546875" Velocity="54" />
      <note Length="0.09375" Pitch="60" RiffPosition="1.59375" Velocity="66" />
      <note Length="0.03125" Pitch="45" RiffPosition="1.6875" Velocity="77" />
      <note Length="0.0234375" Pitch="59" RiffPosition="1.71875" Velocity="81" />
      <note Length="0.0078125" Pitch="45" RiffPosition="1.7421875" Velocity="52" />
      <note Length="0.046875" Pitch="45" RiffPosition="1.75" Velocity="82" />
      <note Length="0.046875" Pitch="51" RiffPosition="1.796875" Velocity="37" />
      <note Length="0.09375" Pitch="45" RiffPosition="1.84375" Velocity="34" />
      <note Length="0.03125" Pitch="57" RiffPosition="1.9375" Velocity="53" />
      <note Length="0.0234375" Pitch="59" RiffPosition="1.96875" Velocity="40" />
      <note Length="0.0078125" Pitch="63" RiffPosition="1.9921875" Velocity="37" />
      <note Length="0.046875" Pitch="60" RiffPosition="2" Velocity="39" />
      <note Length="0.046875" Pitch="57" RiffPosition="2.046875" Velocity="69" />
      <note Length="0.09375" Pitch="63" RiffPosition="2.09375" Velocity="31" />
      <note Length="0.03125" Pitch="45" RiffPosition="2.1875" Velocity="32" />
      <note Length="0.0234375" Pitch="57" RiffPosition="2.21875" Velocity="75" />
      <note Length="0.0078125" Pitch="45" RiffPosition="2.2421875" Velocity="78" />
      <note Length="0.046875" Pitch="45" RiffPosition="2.25" Velocity="76" />
      <note Length="0.046875" Pitch="51" RiffPosition="2.296875" Velocity="45" />
      <note Length="0.09375" Pitch="57" RiffPosition="2.34375" Velocity="46" />
      <note Length="0.03125" Pitch="45" RiffPosition="2.4375" Velocity="31" />
      <note Length="0.0234375" Pitch="60" RiffPosition="2.46875" Velocity="75" />
      <note Length="0.0078125" Pitch="63" RiffPosition="2.4921875" Velocity="46" />
      <note Length="0.046875" Pitch="60" RiffPosition="2.5" Velocity="34" />
      <note Length="0.046875" Pitch="45" RiffPosition="2.546875" Velocity="43" />
      <note Length="0.09375" Pitch="63" RiffPosition="2.59375" Velocity="74" />
      <note Length="0.03125" Pitch="45" RiffPosition="2.6875" Velocity="63" />
      <note Length="0.0234375" Pitch="57" RiffPosition="2.71875" Velocity="43" />
      <note Length="0.0078125" Pitch="45" RiffPosition="2.7421875" Velocity="56" />
      <note Length="0.046875" Pitch="45" RiffPosition="2.75" Velocity="58" />
      <note Length="0.046875" Pitch="51" RiffPosition="2.796875" Velocity="42" />
      <note Length="0.09375" Pitch="45" RiffPosition="2.84375" Velocity="48" />
      <note Length="0.03125" Pitch="45" RiffPosition="2.9375" Velocity="52" />
      <note Length="0.0234375" Pitch="60" RiffPosition="2.96875" Velocity="97" />
      <note Length="0.0078125" Pitch="64" RiffPosition="2.9921875" Velocity="58" />
      <note Length="0.046875" Pitch="63" RiffPosition="3" Velocity="56" />
      <note Length="0.046875" Pitch="45" RiffPosition="3.046875" Velocity="68" />
      <note Length="0.09375" Pitch="60" RiffPosition="3.09375" Velocity="52" />
      <note Length="0.03125" Pitch="45" RiffPosition="3.1875" Velocity="52" />
      <note Length="0.0234375" Pitch="59" RiffPosition="3.21875" Velocity="33" />
      <note Length="0.0078125" Pitch="45" RiffPosition="3.2421875" Velocity="62" />
      <note Length="0.046875" Pitch="45" RiffPosition="3.25" Velocity="64" />
      <note Length="0.046875" Pitch="51" RiffPosition="3.296875" Velocity="63" />
      <note Length="0.09375" Pitch="45" RiffPosition="3.34375" Velocity="51" />
      <note Length="0.03125" Pitch="57" RiffPosition="3.4375" Velocity="49" />
      <note Length="0.0234375" Pitch="60" RiffPosition="3.46875" Velocity="52" />
      <note Length="0.0078125" Pitch="63" RiffPosition="3.4921875" Velocity="36" />
      <note Length="0.046875" Pitch="60" RiffPosition="3.5" Velocity="53" />
      <note Length="0.046875" Pitch="57" RiffPosition="3.546875" Velocity="51" />
      <note Length="0.09375" Pitch="60" RiffPosition="3.59375" Velocity="63" />
      <note Length="0.03125" Pitch="45" RiffPosition="3.6875" Velocity="74" />
      <note Length="0.0234375" Pitch="57" RiffPosition="3.71875" Velocity="78" />
      <note Length="0.0078125" Pitch="45" RiffPosition="3.7421875" Velocity="81" />
      <note Length="0.046875" Pitch="45" RiffPosition="3.75" Velocity="79" />
      <note Length="0.046875" Pitch="51" RiffPosition="3.796875" Velocity="40" />
      <note Length="0.09375" Pitch="45" RiffPosition="3.84375" Velocity="31" />
      <note Length="0.03125" Pitch="45" RiffPosition="3.9375" Velocity="56" />
      <note Length="0.0234375" Pitch="59" RiffPosition="3.96875" Velocity="43" />
      <note Length="0.0078125" Pitch="63" RiffPosition="3.9921875" Velocity="39" />
      <note Length="0.046875" Pitch="60" RiffPosition="4" Velocity="42" />
      <note Length="0.046875" Pitch="45" RiffPosition="4.046875" Velocity="72" />
      <note Length="0.09375" Pitch="63" RiffPosition="4.09375" Velocity="42" />
      <note Length="0.03125" Pitch="45" RiffPosition="4.1875" Velocity="31" />
      <note Length="0.0234375" Pitch="57" RiffPosition="4.21875" Velocity="103" />
      <note Length="0.0078125" Pitch="45" RiffPosition="4.2421875" Velocity="75" />
      <note Length="0.046875" Pitch="45" RiffPosition="4.25" Velocity="63" />
      <note Length="0.046875" Pitch="51" RiffPosition="4.296875" Velocity="74" />
      <note Length="0.09375" Pitch="57" RiffPosition="4.34375" Velocity="44" />
      <note Length="0.03125" Pitch="45" RiffPosition="4.4375" Velocity="34" />
      <note Length="0.0234375" Pitch="60" RiffPosition="4.46875" Velocity="72" />
      <note Length="0.0078125" Pitch="63" RiffPosition="4.4921875" Velocity="33" />
      <note Length="0.046875" Pitch="60" RiffPosition="4.5" Velocity="31" />
      <note Length="0.046875" Pitch="45" RiffPosition="4.546875" Velocity="46" />
      <note Length="0.09375" Pitch="60" RiffPosition="4.59375" Velocity="77" />
      <note Length="0.03125" Pitch="45" RiffPosition="4.6875" Velocity="65" />
      <note Length="0.0234375" Pitch="59" RiffPosition="4.71875" Velocity="40" />
      <note Length="0.0078125" Pitch="57" RiffPosition="4.7421875" Velocity="59" />
      <note Length="0.046875" Pitch="45" RiffPosition="4.75" Velocity="61" />
      <note Length="0.046875" Pitch="51" RiffPosition="4.796875" Velocity="39" />
      <note Length="0.09375" Pitch="45" RiffPosition="4.84375" Velocity="51" />
      <note Length="0.03125" Pitch="45" RiffPosition="4.9375" Velocity="81" />
      <note Length="0.0234375" Pitch="60" RiffPosition="4.96875" Velocity="84" />
      <note Length="0.0078125" Pitch="60" RiffPosition="4.9921875" Velocity="56" />
      <note Length="0.046875" Pitch="63" RiffPosition="5" Velocity="53" />
      <note Length="0.046875" Pitch="45" RiffPosition="5.046875" Velocity="55" />
      <note Length="0.09375" Pitch="60" RiffPosition="5.09375" Velocity="37" />
      <note Length="0.03125" Pitch="45" RiffPosition="5.1875" Velocity="49" />
      <note Length="0.0234375" Pitch="59" RiffPosition="5.21875" Velocity="36" />
      <note Length="0.0078125" Pitch="45" RiffPosition="5.2421875" Velocity="65" />
      <note Length="0.046875" Pitch="45" RiffPosition="5.25" Velocity="35" />
      <note Length="0.046875" Pitch="51" RiffPosition="5.296875" Velocity="66" />
      <note Length="0.09375" Pitch="45" RiffPosition="5.34375" Velocity="54" />
      <note Length="0.03125" Pitch="57" RiffPosition="5.4375" Velocity="46" />
      <note Length="0.0234375" Pitch="60" RiffPosition="5.46875" Velocity="49" />
      <note Length="0.0078125" Pitch="63" RiffPosition="5.4921875" Velocity="53" />
      <note Length="0.046875" Pitch="60" RiffPosition="5.5" Velocity="50" />
      <note Length="0.046875" Pitch="57" RiffPosition="5.546875" Velocity="49" />
      <note Length="0.09375" Pitch="60" RiffPosition="5.59375" Velocity="60" />
      <note Length="0.03125" Pitch="45" RiffPosition="5.6875" Velocity="61" />
      <note Length="0.0234375" Pitch="57" RiffPosition="5.71875" Velocity="75" />
      <note Length="0.0078125" Pitch="45" RiffPosition="5.7421875" Velocity="78" />
      <note Length="0.046875" Pitch="45" RiffPosition="5.75" Velocity="76" />
      <note Length="0.046875" Pitch="51" RiffPosition="5.796875" Velocity="43" />
      <note Length="0.09375" Pitch="45" RiffPosition="5.84375" Velocity="42" />
      <note Length="0.03125" Pitch="45" RiffPosition="5.9375" Velocity="59" />
      <note Length="0.0234375" Pitch="60" RiffPosition="5.96875" Velocity="46" />
      <note Length="0.0078125" Pitch="63" RiffPosition="5.9921875" Velocity="42" />
      <note Length="0.046875" Pitch="60" RiffPosition="6" Velocity="54" />
      <note Length="0.046875" Pitch="45" RiffPosition="6.046875" Velocity="43" />
      <note Length="0.09375" Pitch="63" RiffPosition="6.09375" Velocity="45" />
      <note Length="0.03125" Pitch="45" RiffPosition="6.1875" Velocity="34" />
      <note Length="0.0234375" Pitch="57" RiffPosition="6.21875" Velocity="101" />
      <note Length="0.0078125" Pitch="45" RiffPosition="6.2421875" Velocity="62" />
      <note Length="0.046875" Pitch="45" RiffPosition="6.25" Velocity="60" />
      <note Length="0.046875" Pitch="51" RiffPosition="6.296875" Velocity="71" />
      <note Length="0.09375" Pitch="57" RiffPosition="6.34375" Velocity="41" />
      <note Length="0.03125" Pitch="45" RiffPosition="6.4375" Velocity="37" />
      <note Length="0.0234375" Pitch="60" RiffPosition="6.46875" Velocity="69" />
      <note Length="0.0078125" Pitch="63" RiffPosition="6.4921875" Velocity="30" />
      <note Length="0.046875" Pitch="60" RiffPosition="6.5" Velocity="32" />
      <note Length="0.046875" Pitch="45" RiffPosition="6.546875" Velocity="49" />
      <note Length="0.09375" Pitch="60" RiffPosition="6.59375" Velocity="80" />
      <note Length="0.03125" Pitch="45" RiffPosition="6.6875" Velocity="37" />
      <note Length="0.0234375" Pitch="59" RiffPosition="6.71875" Velocity="33" />
      <note Length="0.0078125" Pitch="57" RiffPosition="6.7421875" Velocity="62" />
      <note Length="0.046875" Pitch="45" RiffPosition="6.75" Velocity="64" />
      <note Length="0.046875" Pitch="51" RiffPosition="6.796875" Velocity="34" />
      <note Length="0.09375" Pitch="45" RiffPosition="6.84375" Velocity="38" />
      <note Length="0.03125" Pitch="45" RiffPosition="6.9375" Velocity="78" />
      <note Length="0.0234375" Pitch="60" RiffPosition="6.96875" Velocity="81" />
      <note Length="0.0078125" Pitch="60" RiffPosition="6.9921875" Velocity="53" />
      <note Length="0.046875" Pitch="63" RiffPosition="7" Velocity="82" />
      <note Length="0.046875" Pitch="45" RiffPosition="7.046875" Velocity="52" />
      <note Length="0.09375" Pitch="60" RiffPosition="7.09375" Velocity="35" />
      <note Length="0.03125" Pitch="45" RiffPosition="7.1875" Velocity="46" />
      <note Length="0.0234375" Pitch="59" RiffPosition="7.21875" Velocity="39" />
      <note Length="0.0078125" Pitch="45" RiffPosition="7.2421875" Velocity="36" />
      <note Length="0.046875" Pitch="45" RiffPosition="7.25" Velocity="38" />
      <note Length="0.046875" Pitch="51" RiffPosition="7.296875" Velocity="69" />
      <note Length="0.09375" Pitch="45" RiffPosition="7.34375" Velocity="57" />
      <note Length="0.03125" Pitch="57" RiffPosition="7.4375" Velocity="33" />
      <note Length="0.0234375" Pitch="59" RiffPosition="7.46875" Velocity="46" />
      <note Length="0.0078125" Pitch="63" RiffPosition="7.4921875" Velocity="50" />
      <note Length="0.046875" Pitch="60" RiffPosition="7.5" Velocity="47" />
      <note Length="0.046875" Pitch="57" RiffPosition="7.546875" Velocity="46" />
      <note Length="0.09375" Pitch="63" RiffPosition="7.59375" Velocity="47" />
      <note Length="0.03125" Pitch="45" RiffPosition="7.6875" Velocity="58" />
      <note Length="0.0234375" Pitch="57" RiffPosition="7.71875" Velocity="104" />
      <note Length="0.0078125" Pitch="45" RiffPosition="7.7421875" Velocity="75" />
      <note Length="0.046875" Pitch="45" RiffPosition="7.75" Velocity="63" />
      <note Length="0.046875" Pitch="51" RiffPosition="7.796875" Velocity="46" />
      <note Length="0.09375" Pitch="45" RiffPosition="7.84375" Velocity="45" />
      <note Length="0.03125" Pitch="45" RiffPosition="7.9375" Velocity="62" />
      <note Length="0.0234375" Pitch="60" RiffPosition="7.96875" Velocity="43" />
      <note Length="0.0078125" Pitch="63" RiffPosition="7.9921875" Velocity="55" />
      <note Length="0.046875" Pitch="60" RiffPosition="8" Velocity="57" />
      <note Length="0.046875" Pitch="45" RiffPosition="8.046875" Velocity="46" />
      <note Length="0.09375" Pitch="63" RiffPosition="8.09375" Velocity="48" />
      <note Length="0.03125" Pitch="45" RiffPosition="8.1875" Velocity="36" />
      <note Length="0.0234375" Pitch="57" RiffPosition="8.21875" Velocity="98" />
      <note Length="0.0078125" Pitch="45" RiffPosition="8.2421875" Velocity="59" />
      <note Length="0.046875" Pitch="45" RiffPosition="8.25" Velocity="57" />
      <note Length="0.046875" Pitch="51" RiffPosition="8.296875" Velocity="68" />
      <note Length="0.09375" Pitch="57" RiffPosition="8.34375" Velocity="38" />
      <note Length="0.03125" Pitch="45" RiffPosition="8.4375" Velocity="52" />
      <note Length="0.0234375" Pitch="60" RiffPosition="8.46875" Velocity="56" />
      <note Length="0.0078125" Pitch="64" RiffPosition="8.4921875" Velocity="33" />
      <note Length="0.046875" Pitch="60" RiffPosition="8.5" Velocity="35" />
      <note Length="0.046875" Pitch="45" RiffPosition="8.546875" Velocity="62" />
      <note Length="0.09375" Pitch="60" RiffPosition="8.59375" Velocity="51" />
      <note Length="0.03125" Pitch="45" RiffPosition="8.6875" Velocity="39" />
      <note Length="0.0234375" Pitch="59" RiffPosition="8.71875" Velocity="36" />
      <note Length="0.0078125" Pitch="45" RiffPosition="8.7421875" Velocity="64" />
      <note Length="0.046875" Pitch="45" RiffPosition="8.75" Velocity="35" />
      <note Length="0.046875" Pitch="51" RiffPosition="8.796875" Velocity="37" />
      <note Length="0.09375" Pitch="45" RiffPosition="8.84375" Velocity="35" />
      <note Length="0.03125" Pitch="45" RiffPosition="8.9375" Velocity="75" />
      <note Length="0.0234375" Pitch="60" RiffPosition="8.96875" Velocity="78" />
      <note Length="0.0078125" Pitch="60" RiffPosition="8.9921875" Velocity="82" />
      <note Length="0.046875" Pitch="63" RiffPosition="9" Velocity="79" />
      <note Length="0.046875" Pitch="57" RiffPosition="9.046875" Velocity="49" />
      <note Length="0.09375" Pitch="60" RiffPosition="9.09375" Velocity="32" />
      <note Length="0.03125" Pitch="45" RiffPosition="9.1875" Velocity="33" />
      <note Length="0.0234375" Pitch="59" RiffPosition="9.21875" Velocity="42" />
      <note Length="0.0078125" Pitch="45" RiffPosition="9.2421875" Velocity="39" />
      <note Length="0.046875" Pitch="45" RiffPosition="9.25" Velocity="41" />
      <note Length="0.046875" Pitch="51" RiffPosition="9.296875" Velocity="71" />
      <note Length="0.09375" Pitch="45" RiffPosition="9.34375" Velocity="70" />
      <note Length="0.03125" Pitch="57" RiffPosition="9.4375" Velocity="30" />
      <note Length="0.0234375" Pitch="60" RiffPosition="9.46875" Velocity="75" />
      <note Length="0.0078125" Pitch="63" RiffPosition="9.4921875" Velocity="47" />
      <note Length="0.046875" Pitch="60" RiffPosition="9.5" Velocity="35" />
      <note Length="0.046875" Pitch="57" RiffPosition="9.546875" Velocity="75" />
      <note Length="0.09375" Pitch="63" RiffPosition="9.59375" Velocity="44" />
      <note Length="0.03125" Pitch="45" RiffPosition="9.6875" Velocity="56" />
      <note Length="0.0234375" Pitch="57" RiffPosition="9.71875" Velocity="101" />
      <note Length="0.0078125" Pitch="45" RiffPosition="9.7421875" Velocity="62" />
      <note Length="0.046875" Pitch="45" RiffPosition="9.75" Velocity="60" />
      <note Length="0.046875" Pitch="51" RiffPosition="9.796875" Velocity="43" />
      <note Length="0.09375" Pitch="57" RiffPosition="9.84375" Velocity="48" />
      <note Length="0.03125" Pitch="45" RiffPosition="9.9375" Velocity="65" />
      <note Length="0.0234375" Pitch="60" RiffPosition="9.96875" Velocity="41" />
      <note Length="0.0078125" Pitch="64" RiffPosition="9.9921875" Velocity="58" />
      <note Length="0.046875" Pitch="60" RiffPosition="10" Velocity="60" />
      <note Length="0.046875" Pitch="45" RiffPosition="10.046875" Velocity="49" />
      <note Length="0.09375" Pitch="64" RiffPosition="10.09375" Velocity="51" />
      <note Length="0.03125" Pitch="45" RiffPosition="10.1875" Velocity="52" />
      <note Length="0.0234375" Pitch="57" RiffPosition="10.21875" Velocity="85" />
      <note Length="0.0078125" Pitch="45" RiffPosition="10.2421875" Velocity="56" />
      <note Length="0.046875" Pitch="45" RiffPosition="10.25" Velocity="54" />
      <note Length="0.046875" Pitch="51" RiffPosition="10.296875" Velocity="55" />
      <note Length="0.09375" Pitch="45" RiffPosition="10.34375" Velocity="67" />
      <note Length="0.03125" Pitch="45" RiffPosition="10.4375" Velocity="49" />
      <note Length="0.0234375" Pitch="60" RiffPosition="10.46875" Velocity="53" />
      <note Length="0.0078125" Pitch="64" RiffPosition="10.4921875" Velocity="36" />
      <note Length="0.046875" Pitch="60" RiffPosition="10.5" Velocity="54" />
      <note Length="0.046875" Pitch="45" RiffPosition="10.546875" Velocity="65" />
      <note Length="0.09375" Pitch="60" RiffPosition="10.59375" Velocity="54" />
      <note Length="0.03125" Pitch="45" RiffPosition="10.6875" Velocity="42" />
      <note Length="0.0234375" Pitch="59" RiffPosition="10.71875" Velocity="39" />
      <note Length="0.0078125" Pitch="45" RiffPosition="10.7421875" Velocity="36" />
      <note Length="0.046875" Pitch="45" RiffPosition="10.75" Velocity="38" />
      <note Length="0.046875" Pitch="51" RiffPosition="10.796875" Velocity="39" />
      <note Length="0.09375" Pitch="45" RiffPosition="10.84375" Velocity="32" />
      <note Length="0.03125" Pitch="57" RiffPosition="10.9375" Velocity="62" />
      <note Length="0.0234375" Pitch="60" RiffPosition="10.96875" Velocity="75" />
      <note Length="0.0078125" Pitch="60" RiffPosition="10.9921875" Velocity="79" />
      <note Length="0.046875" Pitch="60" RiffPosition="11" Velocity="77" />
      <note Length="0.046875" Pitch="57" RiffPosition="11.046875" Velocity="46" />
      <note Length="0.09375" Pitch="60" RiffPosition="11.09375" Velocity="41" />
      <note Length="0.03125" Pitch="45" RiffPosition="11.1875" Velocity="30" />
      <note Length="0.0234375" Pitch="57" RiffPosition="11.21875" Velocity="47" />
      <note Length="0.0078125" Pitch="45" RiffPosition="11.2421875" Velocity="42" />
      <note Length="0.046875" Pitch="45" RiffPosition="11.25" Velocity="54" />
      <note Length="0.046875" Pitch="51" RiffPosition="11.296875" Velocity="43" />
      <note Length="0.09375" Pitch="57" RiffPosition="11.34375" Velocity="73" />
      <note Length="0.03125" Pitch="45" RiffPosition="11.4375" Velocity="33" />
      <note Length="0.0234375" Pitch="60" RiffPosition="11.46875" Velocity="72" />
      <note Length="0.0078125" Pitch="63" RiffPosition="11.4921875" Velocity="34" />
      <note Length="0.046875" Pitch="60" RiffPosition="11.5" Velocity="32" />
      <note Length="0.046875" Pitch="45" RiffPosition="11.546875" Velocity="72" />
      <note Length="0.09375" Pitch="63" RiffPosition="11.59375" Velocity="41" />
      <note Length="0.03125" Pitch="45" RiffPosition="11.6875" Velocity="53" />
      <note Length="0.0234375" Pitch="57" RiffPosition="11.71875" Velocity="98" />
      <note Length="0.0078125" Pitch="45" RiffPosition="11.7421875" Velocity="59" />
      <note Length="0.046875" Pitch="45" RiffPosition="11.75" Velocity="57" />
      <note Length="0.046875" Pitch="51" RiffPosition="11.796875" Velocity="40" />
      <note Length="0.09375" Pitch="57" RiffPosition="11.84375" Velocity="51" />
      <note Length="0.03125" Pitch="45" RiffPosition="11.9375" Velocity="36" />
      <note Length="0.0234375" Pitch="60" RiffPosition="11.96875" Velocity="32" />
      <note Length="0.0078125" Pitch="64" RiffPosition="11.9921875" Velocity="61" />
    </riff>
    <riff IsDrum="False" MidiInstrument="92" Tempo="81" Length="12">
      <note Length="1" Pitch="48" RiffPosition="0" Velocity="90" />
      <note Length="1" Pitch="48" RiffPosition="1" Velocity="90" />
      <note Length="2" Pitch="45" RiffPosition="2" Velocity="90" />
      <note Length="0.5" Pitch="41" RiffPosition="4" Velocity="90" />
      <note Length="0.25" Pitch="33" RiffPosition="4.5" Velocity="90" />
      <note Length="0.25" Pitch="33" RiffPosition="4.75" Velocity="90" />
      <note Length="0.75" Pitch="33" RiffPosition="5" Velocity="90" />
      <note Length="0.75" Pitch="45" RiffPosition="5.75" Velocity="90" />
      <note Length="0.75" Pitch="48" RiffPosition="6.5" Velocity="90" />
      <note Length="0.75" Pitch="51" RiffPosition="7.25" Velocity="90" />
      <note Length="1" Pitch="52" RiffPosition="8" Velocity="90" />
      <note Length="1" Pitch="51" RiffPosition="9" Velocity="90" />
      <note Length="2" Pitch="47" RiffPosition="10" Velocity="90" />
    </riff>
    <riff IsDrum="False" MidiInstrument="94" Tempo="122" Length="12">
      <note Length="0.5" Pitch="45" RiffPosition="0" Velocity="90" />
      <note Length="0.5" Pitch="45" RiffPosition="0.5" Velocity="90" />
      <note Length="0.5" Pitch="33" RiffPosition="1" Velocity="90" />
      <note Length="0.5" Pitch="33" RiffPosition="1.5" Velocity="90" />
      <note Length="2" Pitch="33" RiffPosition="2" Velocity="90" />
      <note Length="0.5" Pitch="33" RiffPosition="4" Velocity="90" />
      <note Length="0.5" Pitch="45" RiffPosition="4.5" Velocity="90" />
      <note Length="0.25" Pitch="45" RiffPosition="5" Velocity="90" />
      <note Length="0.75" Pitch="47" RiffPosition="5.25" Velocity="90" />
      <note Length="0.5" Pitch="48" RiffPosition="6" Velocity="90" />
      <note Length="0.5" Pitch="47" RiffPosition="6.5" Velocity="90" />
      <note Length="1" Pitch="45" RiffPosition="7" Velocity="90" />
      <note Length="0.5" Pitch="33" RiffPosition="8" Velocity="90" />
      <note Length="0.5" Pitch="33" RiffPosition="8.5" Velocity="90" />
      <note Length="0.5" Pitch="33" RiffPosition="9" Velocity="90" />
      <note Length="0.5" Pitch="41" RiffPosition="9.5" Velocity="90" />
      <note Length="2" Pitch="40" RiffPosition="10" Velocity="90" />
    </riff>
    <riff IsDrum="True" MidiInstrument="0" Tempo="127" Length="12">
      <note Length="0.0625" Pitch="38" RiffPosition="0" Velocity="0" />
      <note Length="0.0625" Pitch="38" RiffPosition="0.0625" Velocity="105" />
      <note Length="0.0625" Pitch="38" RiffPosition="0.125" Velocity="0" />
      <note Length="0.0625" Pitch="38" RiffPosition="0.1875" Velocity="105" />
      <note Length="0.0625" Pitch="38" RiffPosition="0.25" Velocity="0" />
      <note Length="0.0625" Pitch="38" RiffPosition="0.3125" Velocity="105" />
      <note Length="0.0625" Pitch="38" RiffPosition="0.375" Velocity="0" />
      <note Length="0.0625" Pitch="38" RiffPosition="0.4375" Velocity="105" />
      <note Length="0.0625" Pitch="38" RiffPosition="0.5" Velocity="0" />
      <note Length="0.0625" Pitch="38" RiffPosition="0.5625" Velocity="105" />
      <note Length="0.0625" Pitch="38" RiffPosition="0.625" Velocity="0" />
      <note Length="0.0625" Pitch="38" RiffPosition="0.6875" Velocity="105" />
      <note Length="0.0625" Pitch="38" RiffPosition="0.75" Velocity="0" />
      <note Length="0.0625" Pitch="38" RiffPosition="0.8125" Velocity="105" />
      <note Length="0.0625" Pitch="38" RiffPosition="0.875" Velocity="0" />
      <note Length="0.0625" Pitch="38" RiffPosition="0.9375" Velocity="105" />
      <note Length="0.0625" Pitch="38" RiffPosition="1" Velocity="0" />
      <note Length="0.0625" Pitch="38" RiffPosition="1.0625" Velocity="105" />
      <note Length="0.0625" Pitch="38" RiffPosition="1.125" Velocity="0" />
      <note Length="0.0625" Pitch="38" RiffPosition="1.1875" Velocity="105" />
      <note Length="0.0625" Pitch="38" RiffPosition="1.25" Velocity="0" />
      <note Length="0.0625" Pitch="38" RiffPosition="1.3125" Velocity="105" />
      <note Length="0.0625" Pitch="38" RiffPosition="1.375" Velocity="0" />
      <note Length="0.0625" Pitch="38" RiffPosition="1.4375" Velocity="105" />
      <note Length="0.0625" Pitch="38" RiffPosition="1.5" Velocity="0" />
      <note Length="0.0625" Pitch="38" RiffPosition="1.5625" Velocity="105" />
      <note Length="0.0625" Pitch="38" RiffPosition="1.625" Velocity="0" />
      <note Length="0.0625" Pitch="38" RiffPosition="1.6875" Velocity="105" />
      <note Length="0.0625" Pitch="38" RiffPosition="1.75" Velocity="0" />
      <note Length="0.0625" Pitch="38" RiffPosition="1.8125" Velocity="105" />
      <note Length="0.0625" Pitch="38" RiffPosition="1.875" Velocity="0" />
      <note Length="0.0625" Pitch="38" RiffPosition="1.9375" Velocity="105" />
      <note Length="0.0625" Pitch="38" RiffPosition="2" Velocity="0" />
      <note Length="0.0625" Pitch="38" RiffPosition="2.0625" Velocity="105" />
      <note Length="0.0625" Pitch="38" RiffPosition="2.125" Velocity="0" />
      <note Length="0.0625" Pitch="38" RiffPosition="2.1875" Velocity="105" />
      <note Length="0.0625" Pitch="38" RiffPosition="2.25" Velocity="0" />
      <note Length="0.0625" Pitch="38" RiffPosition="2.3125" Velocity="105" />
      <note Length="0.0625" Pitch="38" RiffPosition="2.375" Velocity="0" />
      <note Length="0.0625" Pitch="38" RiffPosition="2.4375" Velocity="105" />
      <note Length="0.0625" Pitch="38" RiffPosition="2.5" Velocity="0" />
      <note Length="0.0625" Pitch="38" RiffPosition="2.5625" Velocity="105" />
      <note Length="0.0625" Pitch="38" RiffPosition="2.625" Velocity="0" />
      <note Length="0.0625" Pitch="38" RiffPosition="2.6875" Velocity="105" />
      <note Length="0.0625" Pitch="38" RiffPosition="2.75" Velocity="0" />
      <note Length="0.0625" Pitch="38" RiffPosition="2.8125" Velocity="105" />
      <note Length="0.0625" Pitch="38" RiffPosition="2.875" Velocity="0" />
      <note Length="0.0625" Pitch="38" RiffPosition="2.9375" Velocity="105" />
      <note Length="0.0625" Pitch="38" RiffPosition="3" Velocity="0" />
      <note Length="0.0625" Pitch="38" RiffPosition="3.0625" Velocity="105" />
      <note Length="0.0625" Pitch="38" RiffPosition="3.125" Velocity="0" />
      <note Length="0.0625" Pitch="38" RiffPosition="3.1875" Velocity="105" />
      <note Length="0.0625" Pitch="38" RiffPosition="3.25" Velocity="0" />
      <note Length="0.0625" Pitch="38" RiffPosition="3.3125" Velocity="105" />
      <note Length="0.0625" Pitch="38" RiffPosition="3.375" Velocity="0" />
      <note Length="0.0625" Pitch="38" RiffPosition="3.4375" Velocity="105" />
      <note Length="0.0625" Pitch="38" RiffPosition="3.5" Velocity="0" />
      <note Length="0.0625" Pitch="38" RiffPosition="3.5625" Velocity="105" />
      <note Length="0.0625" Pitch="38" RiffPosition="3.625" Velocity="0" />
      <note Length="0.0625" Pitch="38" RiffPosition="3.6875" Velocity="105" />
      <note Length="0.0625" Pitch="38" RiffPosition="3.75" Velocity="0" />
      <note Length="0.0625" Pitch="38" RiffPosition="3.8125" Velocity="105" />
      <note Length="0.0625" Pitch="38" RiffPosition="3.875" Velocity="0" />
      <note Length="0.0625" Pitch="38" RiffPosition="3.9375" Velocity="105" />
      <note Length="0.0625" Pitch="38" RiffPosition="4" Velocity="0" />
      <note Length="0.0625" Pitch="38" RiffPosition="4.0625" Velocity="0" />
      <note Length="0.0625" Pitch="38" RiffPosition="4.125" Velocity="0" />
      <note Length="0.0625" Pitch="38" RiffPosition="4.1875" Velocity="0" />
      <note Length="0.0625" Pitch="38" RiffPosition="4.25" Velocity="0" />
      <note Length="0.0625" Pitch="38" RiffPosition="4.3125" Velocity="0" />
      <note Length="0.0625" Pitch="38" RiffPosition="4.375" Velocity="0" />
      <note Length="0.0625" Pitch="38" RiffPosition="4.4375" Velocity="0" />
      <note Length="0.0625" Pitch="38" RiffPosition="4.5" Velocity="0" />
      <note Length="0.0625" Pitch="38" RiffPosition="4.5625" Velocity="0" />
      <note Length="0.0625" Pitch="38" RiffPosition="4.625" Velocity="0" />
      <note Length="0.0625" Pitch="38" RiffPosition="4.6875" Velocity="0" />
      <note Length="0.0625" Pitch="38" RiffPosition="4.75" Velocity="0" />
      <note Length="0.0625" Pitch="38" RiffPosition="4.8125" Velocity="0" />
      <note Length="0.0625" Pitch="38" RiffPosition="4.875" Velocity="0" />
      <note Length="0.0625" Pitch="38" RiffPosition="4.9375" Velocity="0" />
      <note Length="0.0625" Pitch="38" RiffPosition="5" Velocity="0" />
      <note Length="0.0625" Pitch="38" RiffPosition="5.0625" Velocity="0" />
      <note Length="0.0625" Pitch="38" RiffPosition="5.125" Velocity="0" />
      <note Length="0.0625" Pitch="38" RiffPosition="5.1875" Velocity="0" />
      <note Length="0.0625" Pitch="38" RiffPosition="5.25" Velocity="0" />
      <note Length="0.0625" Pitch="38" RiffPosition="5.3125" Velocity="0" />
      <note Length="0.0625" Pitch="38" RiffPosition="5.375" Velocity="0" />
      <note Length="0.0625" Pitch="38" RiffPosition="5.4375" Velocity="0" />
      <note Length="0.0625" Pitch="38" RiffPosition="5.5" Velocity="0" />
      <note Length="0.0625" Pitch="38" RiffPosition="5.5625" Velocity="0" />
      <note Length="0.0625" Pitch="38" RiffPosition="5.625" Velocity="0" />
      <note Length="0.0625" Pitch="38" RiffPosition="5.6875" Velocity="0" />
      <note Length="0.0625" Pitch="38" RiffPosition="5.75" Velocity="0" />
      <note Length="0.0625" Pitch="38" RiffPosition="5.8125" Velocity="0" />
      <note Length="0.0625" Pitch="38" RiffPosition="5.875" Velocity="0" />
      <note Length="0.0625" Pitch="38" RiffPosition="5.9375" Velocity="0" />
      <note Length="0.0625" Pitch="38" RiffPosition="6" Velocity="0" />
      <note Length="0.0625" Pitch="38" RiffPosition="6.0625" Velocity="0" />
      <note Length="0.0625" Pitch="38" RiffPosition="6.125" Velocity="0" />
      <note Length="0.0625" Pitch="38" RiffPosition="6.1875" Velocity="0" />
      <note Length="0.0625" Pitch="38" RiffPosition="6.25" Velocity="0" />
      <note Length="0.0625" Pitch="38" RiffPosition="6.3125" Velocity="0" />
      <note Length="0.0625" Pitch="38" RiffPosition="6.375" Velocity="0" />
      <note Length="0.0625" Pitch="38" RiffPosition="6.4375" Velocity="0" />
      <note Length="0.0625" Pitch="38" RiffPosition="6.5" Velocity="0" />
      <note Length="0.0625" Pitch="38" RiffPosition="6.5625" Velocity="0" />
      <note Length="0.0625" Pitch="38" RiffPosition="6.625" Velocity="0" />
      <note Length="0.0625" Pitch="38" RiffPosition="6.6875" Velocity="0" />
      <note Length="0.0625" Pitch="38" RiffPosition="6.75" Velocity="0" />
      <note Length="0.0625" Pitch="38" RiffPosition="6.8125" Velocity="0" />
      <note Length="0.0625" Pitch="38" RiffPosition="6.875" Velocity="0" />
      <note Length="0.0625" Pitch="38" RiffPosition="6.9375" Velocity="0" />
      <note Length="0.0625" Pitch="38" RiffPosition="7" Velocity="0" />
      <note Length="0.0625" Pitch="38" RiffPosition="7.0625" Velocity="0" />
      <note Length="0.0625" Pitch="38" RiffPosition="7.125" Velocity="0" />
      <note Length="0.0625" Pitch="38" RiffPosition="7.1875" Velocity="0" />
      <note Length="0.0625" Pitch="38" RiffPosition="7.25" Velocity="0" />
      <note Length="0.0625" Pitch="38" RiffPosition="7.3125" Velocity="0" />
      <note Length="0.0625" Pitch="38" RiffPosition="7.375" Velocity="0" />
      <note Length="0.0625" Pitch="38" RiffPosition="7.4375" Velocity="0" />
      <note Length="0.0625" Pitch="38" RiffPosition="7.5" Velocity="0" />
      <note Length="0.0625" Pitch="38" RiffPosition="7.5625" Velocity="0" />
      <note Length="0.0625" Pitch="38" RiffPosition="7.625" Velocity="0" />
      <note Length="0.0625" Pitch="38" RiffPosition="7.6875" Velocity="0" />
      <note Length="0.0625" Pitch="38" RiffPosition="7.75" Velocity="0" />
      <note Length="0.0625" Pitch="38" RiffPosition="7.8125" Velocity="0" />
      <note Length="0.0625" Pitch="38" RiffPosition="7.875" Velocity="0" />
      <note Length="0.0625" Pitch="38" RiffPosition="7.9375" Velocity="0" />
      <note Length="0.0625" Pitch="38" RiffPosition="8" Velocity="0" />
      <note Length="0.0625" Pitch="38" RiffPosition="8.0625" Velocity="105" />
      <note Length="0.0625" Pitch="38" RiffPosition="8.125" Velocity="0" />
      <note Length="0.0625" Pitch="38" RiffPosition="8.1875" Velocity="105" />
      <note Length="0.0625" Pitch="38" RiffPosition="8.25" Velocity="0" />
      <note Length="0.0625" Pitch="38" RiffPosition="8.3125" Velocity="105" />
      <note Length="0.0625" Pitch="38" RiffPosition="8.375" Velocity="0" />
      <note Length="0.0625" Pitch="38" RiffPosition="8.4375" Velocity="105" />
      <note Length="0.0625" Pitch="38" RiffPosition="8.5" Velocity="0" />
      <note Length="0.0625" Pitch="38" RiffPosition="8.5625" Velocity="105" />
      <note Length="0.0625" Pitch="38" RiffPosition="8.625" Velocity="0" />
      <note Length="0.0625" Pitch="38" RiffPosition="8.6875" Velocity="105" />
      <note Length="0.0625" Pitch="38" RiffPosition="8.75" Velocity="0" />
      <note Length="0.0625" Pitch="38" RiffPosition="8.8125" Velocity="105" />
      <note Length="0.0625" Pitch="38" RiffPosition="8.875" Velocity="0" />
      <note Length="0.0625" Pitch="38" RiffPosition="8.9375" Velocity="105" />
      <note Length="0.0625" Pitch="38" RiffPosition="9" Velocity="0" />
      <note Length="0.0625" Pitch="38" RiffPosition="9.0625" Velocity="105" />
      <note Length="0.0625" Pitch="38" RiffPosition="9.125" Velocity="0" />
      <note Length="0.0625" Pitch="38" RiffPosition="9.1875" Velocity="105" />
      <note Length="0.0625" Pitch="38" RiffPosition="9.25" Velocity="0" />
      <note Length="0.0625" Pitch="38" RiffPosition="9.3125" Velocity="105" />
      <note Length="0.0625" Pitch="38" RiffPosition="9.375" Velocity="0" />
      <note Length="0.0625" Pitch="38" RiffPosition="9.4375" Velocity="105" />
      <note Length="0.0625" Pitch="38" RiffPosition="9.5" Velocity="0" />
      <note Length="0.0625" Pitch="38" RiffPosition="9.5625" Velocity="105" />
      <note Length="0.0625" Pitch="38" RiffPosition="9.625" Velocity="0" />
      <note Length="0.0625" Pitch="38" RiffPosition="9.6875" Velocity="105" />
      <note Length="0.0625" Pitch="38" RiffPosition="9.75" Velocity="0" />
      <note Length="0.0625" Pitch="38" RiffPosition="9.8125" Velocity="105" />
      <note Length="0.0625" Pitch="38" RiffPosition="9.875" Velocity="0" />
      <note Length="0.0625" Pitch="38" RiffPosition="9.9375" Velocity="105" />
      <note Length="0.0625" Pitch="38" RiffPosition="10" Velocity="0" />
      <note Length="0.0625" Pitch="38" RiffPosition="10.0625" Velocity="105" />
      <note Length="0.0625" Pitch="38" RiffPosition="10.125" Velocity="0" />
      <note Length="0.0625" Pitch="38" RiffPosition="10.1875" Velocity="105" />
      <note Length="0.0625" Pitch="38" RiffPosition="10.25" Velocity="0" />
      <note Length="0.0625" Pitch="38" RiffPosition="10.3125" Velocity="105" />
      <note Length="0.0625" Pitch="38" RiffPosition="10.375" Velocity="0" />
      <note Length="0.0625" Pitch="38" RiffPosition="10.4375" Velocity="105" />
      <note Length="0.0625" Pitch="38" RiffPosition="10.5" Velocity="0" />
      <note Length="0.0625" Pitch="38" RiffPosition="10.5625" Velocity="105" />
      <note Length="0.0625" Pitch="38" RiffPosition="10.625" Velocity="0" />
      <note Length="0.0625" Pitch="38" RiffPosition="10.6875" Velocity="105" />
      <note Length="0.0625" Pitch="38" RiffPosition="10.75" Velocity="0" />
      <note Length="0.0625" Pitch="38" RiffPosition="10.8125" Velocity="105" />
      <note Length="0.0625" Pitch="38" RiffPosition="10.875" Velocity="0" />
      <note Length="0.0625" Pitch="38" RiffPosition="10.9375" Velocity="105" />
      <note Length="0.0625" Pitch="38" RiffPosition="11" Velocity="0" />
      <note Length="0.0625" Pitch="38" RiffPosition="11.0625" Velocity="105" />
      <note Length="0.0625" Pitch="38" RiffPosition="11.125" Velocity="0" />
      <note Length="0.0625" Pitch="38" RiffPosition="11.1875" Velocity="105" />
      <note Length="0.0625" Pitch="38" RiffPosition="11.25" Velocity="0" />
      <note Length="0.0625" Pitch="38" RiffPosition="11.3125" Velocity="105" />
      <note Length="0.0625" Pitch="38" RiffPosition="11.375" Velocity="0" />
      <note Length="0.0625" Pitch="38" RiffPosition="11.4375" Velocity="105" />
      <note Length="0.0625" Pitch="38" RiffPosition="11.5" Velocity="0" />
      <note Length="0.0625" Pitch="38" RiffPosition="11.5625" Velocity="105" />
      <note Length="0.0625" Pitch="38" RiffPosition="11.625" Velocity="0" />
      <note Length="0.0625" Pitch="38" RiffPosition="11.6875" Velocity="105" />
      <note Length="0.0625" Pitch="38" RiffPosition="11.75" Velocity="0" />
      <note Length="0.0625" Pitch="38" RiffPosition="11.8125" Velocity="105" />
      <note Length="0.0625" Pitch="38" RiffPosition="11.875" Velocity="0" />
      <note Length="0.0625" Pitch="38" RiffPosition="11.9375" Velocity="105" />
    </riff>
    <riff IsDrum="True" MidiInstrument="0" Tempo="110" Length="12">
      <note Length="0.015625" Pitch="42" RiffPosition="0" Velocity="0" />
      <note Length="0.046875" Pitch="41" RiffPosition="0.015625" Velocity="0" />
      <note Length="0.0625" Pitch="46" RiffPosition="0.0625" Velocity="0" />
      <note Length="0.0625" Pitch="43" RiffPosition="0.125" Velocity="0" />
      <note Length="0.046875" Pitch="43" RiffPosition="0.1875" Velocity="0" />
      <note Length="0.015625" Pitch="44" RiffPosition="0.234375" Velocity="0" />
      <note Length="0.0625" Pitch="44" RiffPosition="0.25" Velocity="0" />
      <note Length="0.03125" Pitch="48" RiffPosition="0.3125" Velocity="0" />
      <note Length="0.03125" Pitch="46" RiffPosition="0.34375" Velocity="0" />
      <note Length="0.0625" Pitch="49" RiffPosition="0.375" Velocity="0" />
      <note Length="0.03125" Pitch="46" RiffPosition="0.4375" Velocity="0" />
      <note Length="0.03125" Pitch="42" RiffPosition="0.46875" Velocity="0" />
      <note Length="0.03125" Pitch="41" RiffPosition="0.5" Velocity="0" />
      <note Length="0.03125" Pitch="36" RiffPosition="0.53125" Velocity="0" />
      <note Length="0.0625" Pitch="34" RiffPosition="0.5625" Velocity="0" />
      <note Length="0.03125" Pitch="41" RiffPosition="0.625" Velocity="0" />
      <note Length="0.03125" Pitch="45" RiffPosition="0.65625" Velocity="0" />
      <note Length="0.015625" Pitch="47" RiffPosition="0.6875" Velocity="0" />
      <note Length="0.046875" Pitch="48" RiffPosition="0.703125" Velocity="0" />
      <note Length="0.015625" Pitch="53" RiffPosition="0.75" Velocity="0" />
      <note Length="0.046875" Pitch="51" RiffPosition="0.765625" Velocity="0" />
      <note Length="0.0625" Pitch="49" RiffPosition="0.8125" Velocity="0" />
      <note Length="0.0625" Pitch="44" RiffPosition="0.875" Velocity="0" />
      <note Length="0.046875" Pitch="42" RiffPosition="0.9375" Velocity="0" />
      <note Length="0.015625" Pitch="40" RiffPosition="0.984375" Velocity="0" />
      <note Length="0.0625" Pitch="39" RiffPosition="1" Velocity="0" />
      <note Length="0.03125" Pitch="44" RiffPosition="1.0625" Velocity="0" />
      <note Length="0.03125" Pitch="45" RiffPosition="1.09375" Velocity="0" />
      <note Length="0.0625" Pitch="44" RiffPosition="1.125" Velocity="0" />
      <note Length="0.03125" Pitch="44" RiffPosition="1.1875" Velocity="0" />
      <note Length="0.03125" Pitch="42" RiffPosition="1.21875" Velocity="0" />
      <note Length="0.03125" Pitch="45" RiffPosition="1.25" Velocity="0" />
      <note Length="0.03125" Pitch="46" RiffPosition="1.28125" Velocity="0" />
      <note Length="0.0625" Pitch="49" RiffPosition="1.3125" Velocity="0" />
      <note Length="0.03125" Pitch="50" RiffPosition="1.375" Velocity="0" />
      <note Length="0.03125" Pitch="48" RiffPosition="1.40625" Velocity="0" />
      <note Length="0.015625" Pitch="44" RiffPosition="1.4375" Velocity="0" />
      <note Length="0.046875" Pitch="45" RiffPosition="1.453125" Velocity="0" />
      <note Length="0.015625" Pitch="38" RiffPosition="1.5" Velocity="0" />
      <note Length="0.046875" Pitch="35" RiffPosition="1.515625" Velocity="0" />
      <note Length="0.0625" Pitch="35" RiffPosition="1.5625" Velocity="0" />
      <note Length="0.0625" Pitch="42" RiffPosition="1.625" Velocity="0" />
      <note Length="0.046875" Pitch="48" RiffPosition="1.6875" Velocity="0" />
      <note Length="0.015625" Pitch="50" RiffPosition="1.734375" Velocity="0" />
      <note Length="0.0625" Pitch="54" RiffPosition="1.75" Velocity="0" />
      <note Length="0.03125" Pitch="50" RiffPosition="1.8125" Velocity="0" />
      <note Length="0.03125" Pitch="45" RiffPosition="1.84375" Velocity="0" />
      <note Length="0.0625" Pitch="41" RiffPosition="1.875" Velocity="0" />
      <note Length="0.03125" Pitch="39" RiffPosition="1.9375" Velocity="0" />
      <note Length="0.03125" Pitch="42" RiffPosition="1.96875" Velocity="0" />
      <note Length="0.03125" Pitch="40" RiffPosition="2" Velocity="0" />
      <note Length="0.03125" Pitch="43" RiffPosition="2.03125" Velocity="0" />
      <note Length="0.0625" Pitch="44" RiffPosition="2.0625" Velocity="0" />
      <note Length="0.03125" Pitch="44" RiffPosition="2.125" Velocity="0" />
      <note Length="0.03125" Pitch="43" RiffPosition="2.15625" Velocity="0" />
      <note Length="0.015625" Pitch="44" RiffPosition="2.1875" Velocity="0" />
      <note Length="0.046875" Pitch="44" RiffPosition="2.203125" Velocity="0" />
      <note Length="0.015625" Pitch="46" RiffPosition="2.25" Velocity="0" />
      <note Length="0.046875" Pitch="47" RiffPosition="2.265625" Velocity="0" />
      <note Length="0.0625" Pitch="46" RiffPosition="2.3125" Velocity="0" />
      <note Length="0.0625" Pitch="47" RiffPosition="2.375" Velocity="0" />
      <note Length="0.046875" Pitch="44" RiffPosition="2.4375" Velocity="0" />
      <note Length="0.015625" Pitch="42" RiffPosition="2.484375" Velocity="0" />
      <note Length="0.0625" Pitch="39" RiffPosition="2.5" Velocity="0" />
      <note Length="0.03125" Pitch="36" RiffPosition="2.5625" Velocity="0" />
      <note Length="0.03125" Pitch="37" RiffPosition="2.59375" Velocity="0" />
      <note Length="0.0625" Pitch="43" RiffPosition="2.625" Velocity="0" />
      <note Length="0.03125" Pitch="49" RiffPosition="2.6875" Velocity="0" />
      <note Length="0.03125" Pitch="51" RiffPosition="2.71875" Velocity="0" />
      <note Length="0.03125" Pitch="51" RiffPosition="2.75" Velocity="0" />
      <note Length="0.03125" Pitch="52" RiffPosition="2.78125" Velocity="0" />
      <note Length="0.0625" Pitch="47" RiffPosition="2.8125" Velocity="0" />
      <note Length="0.03125" Pitch="42" RiffPosition="2.875" Velocity="0" />
      <note Length="0.03125" Pitch="41" RiffPosition="2.90625" Velocity="0" />
      <note Length="0.015625" Pitch="40" RiffPosition="2.9375" Velocity="0" />
      <note Length="0.046875" Pitch="39" RiffPosition="2.953125" Velocity="0" />
      <note Length="0.015625" Pitch="41" RiffPosition="3" Velocity="0" />
      <note Length="0.046875" Pitch="41" RiffPosition="3.015625" Velocity="0" />
      <note Length="0.0625" Pitch="45" RiffPosition="3.0625" Velocity="0" />
      <note Length="0.0625" Pitch="46" RiffPosition="3.125" Velocity="0" />
      <note Length="0.046875" Pitch="42" RiffPosition="3.1875" Velocity="0" />
      <note Length="0.015625" Pitch="43" RiffPosition="3.234375" Velocity="0" />
      <note Length="0.0625" Pitch="44" RiffPosition="3.25" Velocity="0" />
      <note Length="0.03125" Pitch="47" RiffPosition="3.3125" Velocity="0" />
      <note Length="0.03125" Pitch="50" RiffPosition="3.34375" Velocity="0" />
      <note Length="0.0625" Pitch="48" RiffPosition="3.375" Velocity="0" />
      <note Length="0.03125" Pitch="45" RiffPosition="3.4375" Velocity="0" />
      <note Length="0.03125" Pitch="41" RiffPosition="3.46875" Velocity="0" />
      <note Length="0.03125" Pitch="40" RiffPosition="3.5" Velocity="0" />
      <note Length="0.03125" Pitch="35" RiffPosition="3.53125" Velocity="0" />
      <note Length="0.0625" Pitch="37" RiffPosition="3.5625" Velocity="0" />
      <note Length="0.03125" Pitch="40" RiffPosition="3.625" Velocity="0" />
      <note Length="0.03125" Pitch="44" RiffPosition="3.65625" Velocity="0" />
      <note Length="0.015625" Pitch="46" RiffPosition="3.6875" Velocity="0" />
      <note Length="0.046875" Pitch="51" RiffPosition="3.703125" Velocity="0" />
      <note Length="0.015625" Pitch="52" RiffPosition="3.75" Velocity="0" />
      <note Length="0.046875" Pitch="51" RiffPosition="3.765625" Velocity="0" />
      <note Length="0.0625" Pitch="48" RiffPosition="3.8125" Velocity="0" />
      <note Length="0.0625" Pitch="43" RiffPosition="3.875" Velocity="0" />
      <note Length="0.046875" Pitch="41" RiffPosition="3.9375" Velocity="0" />
      <note Length="0.015625" Pitch="39" RiffPosition="3.984375" Velocity="0" />
      <note Length="0.0625" Pitch="42" RiffPosition="4" Velocity="110" />
      <note Length="0.03125" Pitch="43" RiffPosition="4.0625" Velocity="56" />
      <note Length="0.03125" Pitch="45" RiffPosition="4.09375" Velocity="83" />
      <note Length="0.0625" Pitch="44" RiffPosition="4.125" Velocity="107" />
      <note Length="0.03125" Pitch="43" RiffPosition="4.1875" Velocity="61" />
      <note Length="0.03125" Pitch="44" RiffPosition="4.21875" Velocity="45" />
      <note Length="0.03125" Pitch="44" RiffPosition="4.25" Velocity="49" />
      <note Length="0.03125" Pitch="45" RiffPosition="4.28125" Velocity="47" />
      <note Length="0.0625" Pitch="48" RiffPosition="4.3125" Velocity="54" />
      <note Length="0.03125" Pitch="49" RiffPosition="4.375" Velocity="26" />
      <note Length="0.03125" Pitch="47" RiffPosition="4.40625" Velocity="68" />
      <note Length="0.015625" Pitch="46" RiffPosition="4.4375" Velocity="95" />
      <note Length="0.046875" Pitch="44" RiffPosition="4.453125" Velocity="104" />
      <note Length="0.015625" Pitch="37" RiffPosition="4.5" Velocity="107" />
      <note Length="0.046875" Pitch="39" RiffPosition="4.515625" Velocity="0" />
      <note Length="0.0625" Pitch="34" RiffPosition="4.5625" Velocity="58" />
      <note Length="0.0625" Pitch="41" RiffPosition="4.625" Velocity="110" />
      <note Length="0.046875" Pitch="47" RiffPosition="4.6875" Velocity="57" />
      <note Length="0.015625" Pitch="54" RiffPosition="4.734375" Velocity="42" />
      <note Length="0.0625" Pitch="53" RiffPosition="4.75" Velocity="45" />
      <note Length="0.03125" Pitch="49" RiffPosition="4.8125" Velocity="31" />
      <note Length="0.03125" Pitch="44" RiffPosition="4.84375" Velocity="77" />
      <note Length="0.0625" Pitch="44" RiffPosition="4.875" Velocity="46" />
      <note Length="0.03125" Pitch="38" RiffPosition="4.9375" Velocity="0" />
      <note Length="0.03125" Pitch="41" RiffPosition="4.96875" Velocity="118" />
      <note Length="0.03125" Pitch="39" RiffPosition="5" Velocity="0" />
      <note Length="0.03125" Pitch="42" RiffPosition="5.03125" Velocity="46" />
      <note Length="0.0625" Pitch="44" RiffPosition="5.0625" Velocity="55" />
      <note Length="0.03125" Pitch="44" RiffPosition="5.125" Velocity="106" />
      <note Length="0.03125" Pitch="42" RiffPosition="5.15625" Velocity="86" />
      <note Length="0.015625" Pitch="44" RiffPosition="5.1875" Velocity="60" />
      <note Length="0.046875" Pitch="43" RiffPosition="5.203125" Velocity="50" />
      <note Length="0.015625" Pitch="45" RiffPosition="5.25" Velocity="48" />
      <note Length="0.046875" Pitch="46" RiffPosition="5.265625" Velocity="61" />
      <note Length="0.0625" Pitch="49" RiffPosition="5.3125" Velocity="32" />
      <note Length="0.0625" Pitch="46" RiffPosition="5.375" Velocity="49" />
      <note Length="0.046875" Pitch="44" RiffPosition="5.4375" Velocity="96" />
      <note Length="0.015625" Pitch="41" RiffPosition="5.484375" Velocity="122" />
      <note Length="0.0625" Pitch="38" RiffPosition="5.5" Velocity="0" />
      <note Length="0.03125" Pitch="35" RiffPosition="5.5625" Velocity="0" />
      <note Length="0.03125" Pitch="36" RiffPosition="5.59375" Velocity="0" />
      <note Length="0.0625" Pitch="42" RiffPosition="5.625" Velocity="109" />
      <note Length="0.03125" Pitch="48" RiffPosition="5.6875" Velocity="63" />
      <note Length="0.03125" Pitch="50" RiffPosition="5.71875" Velocity="43" />
      <note Length="0.03125" Pitch="54" RiffPosition="5.75" Velocity="44" />
      <note Length="0.03125" Pitch="51" RiffPosition="5.78125" Velocity="45" />
      <note Length="0.0625" Pitch="46" RiffPosition="5.8125" Velocity="56" />
      <note Length="0.03125" Pitch="41" RiffPosition="5.875" Velocity="47" />
      <note Length="0.03125" Pitch="41" RiffPosition="5.90625" Velocity="73" />
      <note Length="0.015625" Pitch="39" RiffPosition="5.9375" Velocity="0" />
      <note Length="0.046875" Pitch="38" RiffPosition="5.953125" Velocity="0" />
      <note Length="0.015625" Pitch="40" RiffPosition="6" Velocity="0" />
      <note Length="0.046875" Pitch="40" RiffPosition="6.015625" Velocity="0" />
      <note Length="0.0625" Pitch="44" RiffPosition="6.0625" Velocity="54" />
      <note Length="0.0625" Pitch="45" RiffPosition="6.125" Velocity="105" />
      <note Length="0.046875" Pitch="45" RiffPosition="6.1875" Velocity="59" />
      <note Length="0.015625" Pitch="42" RiffPosition="6.234375" Velocity="47" />
      <note Length="0.0625" Pitch="43" RiffPosition="6.25" Velocity="47" />
      <note Length="0.03125" Pitch="46" RiffPosition="6.3125" Velocity="58" />
      <note Length="0.03125" Pitch="49" RiffPosition="6.34375" Velocity="43" />
      <note Length="0.0625" Pitch="47" RiffPosition="6.375" Velocity="44" />
      <note Length="0.03125" Pitch="44" RiffPosition="6.4375" Velocity="96" />
      <note Length="0.03125" Pitch="40" RiffPosition="6.46875" Velocity="0" />
      <note Length="0.03125" Pitch="39" RiffPosition="6.5" Velocity="0" />
      <note Length="0.03125" Pitch="34" RiffPosition="6.53125" Velocity="45" />
      <note Length="0.0625" Pitch="36" RiffPosition="6.5625" Velocity="0" />
      <note Length="0.03125" Pitch="43" RiffPosition="6.625" Velocity="108" />
      <note Length="0.03125" Pitch="44" RiffPosition="6.65625" Velocity="82" />
      <note Length="0.015625" Pitch="45" RiffPosition="6.6875" Velocity="62" />
      <note Length="0.046875" Pitch="50" RiffPosition="6.703125" Velocity="46" />
      <note Length="0.015625" Pitch="51" RiffPosition="6.75" Velocity="50" />
      <note Length="0.046875" Pitch="54" RiffPosition="6.765625" Velocity="57" />
      <note Length="0.0625" Pitch="47" RiffPosition="6.8125" Velocity="55" />
      <note Length="0.0625" Pitch="42" RiffPosition="6.875" Velocity="48" />
      <note Length="0.046875" Pitch="40" RiffPosition="6.9375" Velocity="0" />
      <note Length="0.015625" Pitch="42" RiffPosition="6.984375" Velocity="120" />
      <note Length="0.0625" Pitch="42" RiffPosition="7" Velocity="106" />
      <note Length="0.03125" Pitch="45" RiffPosition="7.0625" Velocity="59" />
      <note Length="0.03125" Pitch="44" RiffPosition="7.09375" Velocity="80" />
      <note Length="0.0625" Pitch="46" RiffPosition="7.125" Velocity="104" />
      <note Length="0.03125" Pitch="43" RiffPosition="7.1875" Velocity="58" />
      <note Length="0.03125" Pitch="44" RiffPosition="7.21875" Velocity="42" />
      <note Length="0.03125" Pitch="44" RiffPosition="7.25" Velocity="46" />
      <note Length="0.03125" Pitch="49" RiffPosition="7.28125" Velocity="24" />
      <note Length="0.0625" Pitch="47" RiffPosition="7.3125" Velocity="57" />
      <note Length="0.03125" Pitch="48" RiffPosition="7.375" Velocity="45" />
      <note Length="0.03125" Pitch="47" RiffPosition="7.40625" Velocity="71" />
      <note Length="0.015625" Pitch="46" RiffPosition="7.4375" Velocity="91" />
      <note Length="0.046875" Pitch="44" RiffPosition="7.453125" Velocity="107" />
      <note Length="0.015625" Pitch="40" RiffPosition="7.5" Velocity="0" />
      <note Length="0.046875" Pitch="38" RiffPosition="7.515625" Velocity="0" />
      <note Length="0.0625" Pitch="37" RiffPosition="7.5625" Velocity="55" />
      <note Length="0.0625" Pitch="40" RiffPosition="7.625" Velocity="0" />
      <note Length="0.046875" Pitch="46" RiffPosition="7.6875" Velocity="61" />
      <note Length="0.015625" Pitch="53" RiffPosition="7.734375" Velocity="45" />
      <note Length="0.0625" Pitch="52" RiffPosition="7.75" Velocity="27" />
      <note Length="0.03125" Pitch="48" RiffPosition="7.8125" Velocity="60" />
      <note Length="0.03125" Pitch="44" RiffPosition="7.84375" Velocity="81" />
      <note Length="0.0625" Pitch="43" RiffPosition="7.875" Velocity="49" />
      <note Length="0.03125" Pitch="41" RiffPosition="7.9375" Velocity="95" />
      <note Length="0.03125" Pitch="40" RiffPosition="7.96875" Velocity="0" />
      <note Length="0.03125" Pitch="43" RiffPosition="8" Velocity="107" />
      <note Length="0.03125" Pitch="42" RiffPosition="8.03125" Velocity="49" />
      <note Length="0.0625" Pitch="43" RiffPosition="8.0625" Velocity="58" />
      <note Length="0.03125" Pitch="44" RiffPosition="8.125" Velocity="110" />
      <note Length="0.03125" Pitch="45" RiffPosition="8.15625" Velocity="84" />
      <note Length="0.015625" Pitch="44" RiffPosition="8.1875" Velocity="57" />
      <note Length="0.046875" Pitch="43" RiffPosition="8.203125" Velocity="47" />
      <note Length="0.015625" Pitch="44" RiffPosition="8.25" Velocity="45" />
      <note Length="0.046875" Pitch="45" RiffPosition="8.265625" Velocity="59" />
      <note Length="0.0625" Pitch="48" RiffPosition="8.3125" Velocity="56" />
      <note Length="0.0625" Pitch="50" RiffPosition="8.375" Velocity="46" />
      <note Length="0.046875" Pitch="47" RiffPosition="8.4375" Velocity="92" />
      <note Length="0.015625" Pitch="40" RiffPosition="8.484375" Velocity="0" />
      <note Length="0.0625" Pitch="37" RiffPosition="8.5" Velocity="104" />
      <note Length="0.03125" Pitch="34" RiffPosition="8.5625" Velocity="54" />
      <note Length="0.03125" Pitch="39" RiffPosition="8.59375" Velocity="0" />
      <note Length="0.0625" Pitch="41" RiffPosition="8.625" Velocity="106" />
      <note Length="0.03125" Pitch="47" RiffPosition="8.6875" Velocity="60" />
      <note Length="0.03125" Pitch="49" RiffPosition="8.71875" Velocity="25" />
      <note Length="0.03125" Pitch="53" RiffPosition="8.75" Velocity="48" />
      <note Length="0.03125" Pitch="51" RiffPosition="8.78125" Velocity="48" />
      <note Length="0.0625" Pitch="50" RiffPosition="8.8125" Velocity="59" />
      <note Length="0.03125" Pitch="44" RiffPosition="8.875" Velocity="50" />
      <note Length="0.03125" Pitch="40" RiffPosition="8.90625" Velocity="0" />
      <note Length="0.015625" Pitch="38" RiffPosition="8.9375" Velocity="0" />
      <note Length="0.046875" Pitch="42" RiffPosition="8.953125" Velocity="106" />
      <note Length="0.015625" Pitch="40" RiffPosition="9" Velocity="0" />
      <note Length="0.046875" Pitch="39" RiffPosition="9.015625" Velocity="0" />
      <note Length="0.0625" Pitch="44" RiffPosition="9.0625" Velocity="57" />
      <note Length="0.0625" Pitch="44" RiffPosition="9.125" Velocity="109" />
      <note Length="0.046875" Pitch="44" RiffPosition="9.1875" Velocity="63" />
      <note Length="0.015625" Pitch="41" RiffPosition="9.234375" Velocity="43" />
      <note Length="0.0625" Pitch="45" RiffPosition="9.25" Velocity="44" />
      <note Length="0.03125" Pitch="49" RiffPosition="9.3125" Velocity="30" />
      <note Length="0.03125" Pitch="48" RiffPosition="9.34375" Velocity="83" />
      <note Length="0.0625" Pitch="47" RiffPosition="9.375" Velocity="47" />
      <note Length="0.03125" Pitch="44" RiffPosition="9.4375" Velocity="93" />
      <note Length="0.03125" Pitch="44" RiffPosition="9.46875" Velocity="119" />
      <note Length="0.03125" Pitch="38" RiffPosition="9.5" Velocity="0" />
      <note Length="0.03125" Pitch="38" RiffPosition="9.53125" Velocity="0" />
      <note Length="0.0625" Pitch="36" RiffPosition="9.5625" Velocity="0" />
      <note Length="0.03125" Pitch="42" RiffPosition="9.625" Velocity="105" />
      <note Length="0.03125" Pitch="44" RiffPosition="9.65625" Velocity="85" />
      <note Length="0.015625" Pitch="48" RiffPosition="9.6875" Velocity="59" />
      <note Length="0.046875" Pitch="49" RiffPosition="9.703125" Velocity="27" />
      <note Length="0.015625" Pitch="54" RiffPosition="9.75" Velocity="47" />
      <note Length="0.046875" Pitch="53" RiffPosition="9.765625" Velocity="60" />
      <note Length="0.0625" Pitch="47" RiffPosition="9.8125" Velocity="58" />
      <note Length="0.0625" Pitch="41" RiffPosition="9.875" Velocity="44" />
      <note Length="0.046875" Pitch="39" RiffPosition="9.9375" Velocity="0" />
      <note Length="0.015625" Pitch="41" RiffPosition="9.984375" Velocity="116" />
      <note Length="0.0625" Pitch="41" RiffPosition="10" Velocity="109" />
      <note Length="0.03125" Pitch="44" RiffPosition="10.0625" Velocity="56" />
      <note Length="0.03125" Pitch="44" RiffPosition="10.09375" Velocity="84" />
      <note Length="0.0625" Pitch="45" RiffPosition="10.125" Velocity="108" />
      <note Length="0.03125" Pitch="45" RiffPosition="10.1875" Velocity="62" />
      <note Length="0.03125" Pitch="44" RiffPosition="10.21875" Velocity="44" />
      <note Length="0.03125" Pitch="43" RiffPosition="10.25" Velocity="49" />
      <note Length="0.03125" Pitch="48" RiffPosition="10.28125" Velocity="47" />
      <note Length="0.0625" Pitch="46" RiffPosition="10.3125" Velocity="54" />
      <note Length="0.03125" Pitch="48" RiffPosition="10.375" Velocity="48" />
      <note Length="0.03125" Pitch="50" RiffPosition="10.40625" Velocity="68" />
      <note Length="0.015625" Pitch="45" RiffPosition="10.4375" Velocity="94" />
      <note Length="0.046875" Pitch="43" RiffPosition="10.453125" Velocity="104" />
      <note Length="0.015625" Pitch="40" RiffPosition="10.5" Velocity="0" />
      <note Length="0.046875" Pitch="37" RiffPosition="10.515625" Velocity="93" />
      <note Length="0.0625" Pitch="37" RiffPosition="10.5625" Velocity="59" />
      <note Length="0.0625" Pitch="43" RiffPosition="10.625" Velocity="104" />
      <note Length="0.046875" Pitch="45" RiffPosition="10.6875" Velocity="58" />
      <note Length="0.015625" Pitch="52" RiffPosition="10.734375" Velocity="26" />
      <note Length="0.0625" Pitch="51" RiffPosition="10.75" Velocity="46" />
      <note Length="0.03125" Pitch="48" RiffPosition="10.8125" Velocity="57" />
      <note Length="0.03125" Pitch="47" RiffPosition="10.84375" Velocity="78" />
      <note Length="0.0625" Pitch="42" RiffPosition="10.875" Velocity="45" />
      <note Length="0.03125" Pitch="40" RiffPosition="10.9375" Velocity="0" />
      <note Length="0.03125" Pitch="39" RiffPosition="10.96875" Velocity="0" />
      <note Length="0.03125" Pitch="42" RiffPosition="11" Velocity="110" />
      <note Length="0.03125" Pitch="41" RiffPosition="11.03125" Velocity="46" />
      <note Length="0.0625" Pitch="45" RiffPosition="11.0625" Velocity="55" />
      <note Length="0.03125" Pitch="43" RiffPosition="11.125" Velocity="107" />
      <note Length="0.03125" Pitch="44" RiffPosition="11.15625" Velocity="81" />
      <note Length="0.015625" Pitch="43" RiffPosition="11.1875" Velocity="61" />
      <note Length="0.046875" Pitch="45" RiffPosition="11.203125" Velocity="51" />
      <note Length="0.015625" Pitch="44" RiffPosition="11.25" Velocity="48" />
      <note Length="0.046875" Pitch="44" RiffPosition="11.265625" Velocity="56" />
      <note Length="0.0625" Pitch="47" RiffPosition="11.3125" Velocity="60" />
      <note Length="0.0625" Pitch="49" RiffPosition="11.375" Velocity="27" />
      <note Length="0.046875" Pitch="46" RiffPosition="11.4375" Velocity="95" />
      <note Length="0.015625" Pitch="39" RiffPosition="11.484375" Velocity="0" />
      <note Length="0.0625" Pitch="41" RiffPosition="11.5" Velocity="107" />
      <note Length="0.03125" Pitch="34" RiffPosition="11.5625" Velocity="58" />
      <note Length="0.03125" Pitch="39" RiffPosition="11.59375" Velocity="0" />
      <note Length="0.0625" Pitch="40" RiffPosition="11.625" Velocity="0" />
      <note Length="0.03125" Pitch="47" RiffPosition="11.6875" Velocity="57" />
      <note Length="0.03125" Pitch="52" RiffPosition="11.71875" Velocity="24" />
      <note Length="0.03125" Pitch="52" RiffPosition="11.75" Velocity="25" />
      <note Length="0.03125" Pitch="50" RiffPosition="11.78125" Velocity="45" />
      <note Length="0.0625" Pitch="49" RiffPosition="11.8125" Velocity="31" />
      <note Length="0.03125" Pitch="44" RiffPosition="11.875" Velocity="46" />
      <note Length="0.03125" Pitch="39" RiffPosition="11.90625" Velocity="0" />
      <note Length="0.015625" Pitch="42" RiffPosition="11.9375" Velocity="92" />
      <note Length="0.046875" Pitch="41" RiffPosition="11.953125" Velocity="108" />
    </riff>
    <riff IsDrum="True" MidiInstrument="0" Tempo="122" Length="12">
      <note Length="0.0625" Pitch="52" RiffPosition="0" Velocity="0" />
      <note Length="0.0625" Pitch="54" RiffPosition="0.0625" Velocity="0" />
      <note Length="0.0625" Pitch="44" RiffPosition="0.125" Velocity="0" />
      <note Length="0.015625" Pitch="39" RiffPosition="0.1875" Velocity="0" />
      <note Length="0.046875" Pitch="44" RiffPosition="0.203125" Velocity="0" />
      <note Length="0.03125" Pitch="37" RiffPosition="0.25" Velocity="0" />
      <note Length="0.03125" Pitch="43" RiffPosition="0.28125" Velocity="0" />
      <note Length="0.03125" Pitch="42" RiffPosition="0.3125" Velocity="0" />
      <note Length="0.03125" Pitch="39" RiffPosition="0.34375" Velocity="0" />
      <note Length="0.0625" Pitch="44" RiffPosition="0.375" Velocity="0" />
      <note Length="0.0625" Pitch="46" RiffPosition="0.4375" Velocity="0" />
      <note Length="0.0625" Pitch="48" RiffPosition="0.5" Velocity="0" />
      <note Length="0.0625" Pitch="43" RiffPosition="0.5625" Velocity="0" />
      <note Length="0.03125" Pitch="44" RiffPosition="0.625" Velocity="0" />
      <note Length="0.03125" Pitch="49" RiffPosition="0.65625" Velocity="0" />
      <note Length="0.03125" Pitch="44" RiffPosition="0.6875" Velocity="0" />
      <note Length="0.03125" Pitch="47" RiffPosition="0.71875" Velocity="0" />
      <note Length="0.03125" Pitch="43" RiffPosition="0.75" Velocity="0" />
      <note Length="0.03125" Pitch="36" RiffPosition="0.78125" Velocity="0" />
      <note Length="0.015625" Pitch="38" RiffPosition="0.8125" Velocity="0" />
      <note Length="0.046875" Pitch="37" RiffPosition="0.828125" Velocity="0" />
      <note Length="0.03125" Pitch="41" RiffPosition="0.875" Velocity="0" />
      <note Length="0.03125" Pitch="39" RiffPosition="0.90625" Velocity="0" />
      <note Length="0.03125" Pitch="47" RiffPosition="0.9375" Velocity="0" />
      <note Length="0.03125" Pitch="45" RiffPosition="0.96875" Velocity="0" />
      <note Length="0.0625" Pitch="46" RiffPosition="1" Velocity="0" />
      <note Length="0.0625" Pitch="48" RiffPosition="1.0625" Velocity="0" />
      <note Length="0.0625" Pitch="45" RiffPosition="1.125" Velocity="0" />
      <note Length="0.015625" Pitch="41" RiffPosition="1.1875" Velocity="0" />
      <note Length="0.046875" Pitch="38" RiffPosition="1.203125" Velocity="0" />
      <note Length="0.03125" Pitch="39" RiffPosition="1.25" Velocity="0" />
      <note Length="0.03125" Pitch="37" RiffPosition="1.28125" Velocity="0" />
      <note Length="0.03125" Pitch="44" RiffPosition="1.3125" Velocity="0" />
      <note Length="0.03125" Pitch="41" RiffPosition="1.34375" Velocity="0" />
      <note Length="0.0625" Pitch="46" RiffPosition="1.375" Velocity="0" />
      <note Length="0.0625" Pitch="41" RiffPosition="1.4375" Velocity="0" />
      <note Length="0.0625" Pitch="43" RiffPosition="1.5" Velocity="0" />
      <note Length="0.0625" Pitch="44" RiffPosition="1.5625" Velocity="0" />
      <note Length="0.03125" Pitch="46" RiffPosition="1.625" Velocity="0" />
      <note Length="0.03125" Pitch="44" RiffPosition="1.65625" Velocity="0" />
      <note Length="0.03125" Pitch="46" RiffPosition="1.6875" Velocity="0" />
      <note Length="0.03125" Pitch="42" RiffPosition="1.71875" Velocity="0" />
      <note Length="0.03125" Pitch="44" RiffPosition="1.75" Velocity="0" />
      <note Length="0.03125" Pitch="38" RiffPosition="1.78125" Velocity="0" />
      <note Length="0.015625" Pitch="40" RiffPosition="1.8125" Velocity="0" />
      <note Length="0.046875" Pitch="39" RiffPosition="1.828125" Velocity="0" />
      <note Length="0.03125" Pitch="35" RiffPosition="1.875" Velocity="0" />
      <note Length="0.03125" Pitch="41" RiffPosition="1.90625" Velocity="0" />
      <note Length="0.03125" Pitch="42" RiffPosition="1.9375" Velocity="0" />
      <note Length="0.03125" Pitch="47" RiffPosition="1.96875" Velocity="0" />
      <note Length="0.0625" Pitch="48" RiffPosition="2" Velocity="0" />
      <note Length="0.0625" Pitch="50" RiffPosition="2.0625" Velocity="0" />
      <note Length="0.0625" Pitch="47" RiffPosition="2.125" Velocity="0" />
      <note Length="0.015625" Pitch="43" RiffPosition="2.1875" Velocity="0" />
      <note Length="0.046875" Pitch="41" RiffPosition="2.203125" Velocity="0" />
      <note Length="0.03125" Pitch="41" RiffPosition="2.25" Velocity="0" />
      <note Length="0.03125" Pitch="39" RiffPosition="2.28125" Velocity="0" />
      <note Length="0.03125" Pitch="45" RiffPosition="2.3125" Velocity="0" />
      <note Length="0.03125" Pitch="43" RiffPosition="2.34375" Velocity="0" />
      <note Length="0.0625" Pitch="41" RiffPosition="2.375" Velocity="0" />
      <note Length="0.0625" Pitch="43" RiffPosition="2.4375" Velocity="0" />
      <note Length="0.0625" Pitch="44" RiffPosition="2.5" Velocity="0" />
      <note Length="0.0625" Pitch="46" RiffPosition="2.5625" Velocity="0" />
      <note Length="0.03125" Pitch="48" RiffPosition="2.625" Velocity="0" />
      <note Length="0.03125" Pitch="45" RiffPosition="2.65625" Velocity="0" />
      <note Length="0.03125" Pitch="48" RiffPosition="2.6875" Velocity="0" />
      <note Length="0.03125" Pitch="44" RiffPosition="2.71875" Velocity="0" />
      <note Length="0.03125" Pitch="46" RiffPosition="2.75" Velocity="0" />
      <note Length="0.03125" Pitch="40" RiffPosition="2.78125" Velocity="0" />
      <note Length="0.015625" Pitch="34" RiffPosition="2.8125" Velocity="0" />
      <note Length="0.046875" Pitch="41" RiffPosition="2.828125" Velocity="0" />
      <note Length="0.03125" Pitch="37" RiffPosition="2.875" Velocity="0" />
      <note Length="0.03125" Pitch="43" RiffPosition="2.90625" Velocity="0" />
      <note Length="0.03125" Pitch="44" RiffPosition="2.9375" Velocity="0" />
      <note Length="0.03125" Pitch="50" RiffPosition="2.96875" Velocity="0" />
      <note Length="0.0625" Pitch="50" RiffPosition="3" Velocity="0" />
      <note Length="0.0625" Pitch="52" RiffPosition="3.0625" Velocity="0" />
      <note Length="0.0625" Pitch="49" RiffPosition="3.125" Velocity="0" />
      <note Length="0.015625" Pitch="44" RiffPosition="3.1875" Velocity="0" />
      <note Length="0.046875" Pitch="43" RiffPosition="3.203125" Velocity="0" />
      <note Length="0.03125" Pitch="35" RiffPosition="3.25" Velocity="0" />
      <note Length="0.03125" Pitch="41" RiffPosition="3.28125" Velocity="0" />
      <note Length="0.03125" Pitch="40" RiffPosition="3.3125" Velocity="0" />
      <note Length="0.03125" Pitch="44" RiffPosition="3.34375" Velocity="0" />
      <note Length="0.0625" Pitch="43" RiffPosition="3.375" Velocity="0" />
      <note Length="0.0625" Pitch="44" RiffPosition="3.4375" Velocity="0" />
      <note Length="0.0625" Pitch="46" RiffPosition="3.5" Velocity="0" />
      <note Length="0.0625" Pitch="48" RiffPosition="3.5625" Velocity="0" />
      <note Length="0.03125" Pitch="50" RiffPosition="3.625" Velocity="0" />
      <note Length="0.03125" Pitch="48" RiffPosition="3.65625" Velocity="0" />
      <note Length="0.03125" Pitch="43" RiffPosition="3.6875" Velocity="0" />
      <note Length="0.03125" Pitch="45" RiffPosition="3.71875" Velocity="0" />
      <note Length="0.03125" Pitch="41" RiffPosition="3.75" Velocity="0" />
      <note Length="0.03125" Pitch="43" RiffPosition="3.78125" Velocity="0" />
      <note Length="0.015625" Pitch="37" RiffPosition="3.8125" Velocity="0" />
      <note Length="0.046875" Pitch="35" RiffPosition="3.828125" Velocity="0" />
      <note Length="0.03125" Pitch="39" RiffPosition="3.875" Velocity="0" />
      <note Length="0.03125" Pitch="38" RiffPosition="3.90625" Velocity="0" />
      <note Length="0.03125" Pitch="45" RiffPosition="3.9375" Velocity="0" />
      <note Length="0.03125" Pitch="44" RiffPosition="3.96875" Velocity="0" />
      <note Length="0.0625" Pitch="52" RiffPosition="4" Velocity="47" />
      <note Length="0.0625" Pitch="54" RiffPosition="4.0625" Velocity="83" />
      <note Length="0.0625" Pitch="44" RiffPosition="4.125" Velocity="49" />
      <note Length="0.015625" Pitch="39" RiffPosition="4.1875" Velocity="0" />
      <note Length="0.046875" Pitch="37" RiffPosition="4.203125" Velocity="48" />
      <note Length="0.03125" Pitch="37" RiffPosition="4.25" Velocity="56" />
      <note Length="0.03125" Pitch="44" RiffPosition="4.28125" Velocity="81" />
      <note Length="0.03125" Pitch="42" RiffPosition="4.3125" Velocity="79" />
      <note Length="0.03125" Pitch="40" RiffPosition="4.34375" Velocity="0" />
      <note Length="0.0625" Pitch="44" RiffPosition="4.375" Velocity="61" />
      <note Length="0.0625" Pitch="46" RiffPosition="4.4375" Velocity="79" />
      <note Length="0.0625" Pitch="48" RiffPosition="4.5" Velocity="85" />
      <note Length="0.0625" Pitch="43" RiffPosition="4.5625" Velocity="58" />
      <note Length="0.03125" Pitch="44" RiffPosition="4.625" Velocity="49" />
      <note Length="0.03125" Pitch="50" RiffPosition="4.65625" Velocity="42" />
      <note Length="0.03125" Pitch="44" RiffPosition="4.6875" Velocity="88" />
      <note Length="0.03125" Pitch="47" RiffPosition="4.71875" Velocity="95" />
      <note Length="0.03125" Pitch="43" RiffPosition="4.75" Velocity="85" />
      <note Length="0.03125" Pitch="37" RiffPosition="4.78125" Velocity="60" />
      <note Length="0.015625" Pitch="39" RiffPosition="4.8125" Velocity="0" />
      <note Length="0.046875" Pitch="37" RiffPosition="4.828125" Velocity="90" />
      <note Length="0.03125" Pitch="41" RiffPosition="4.875" Velocity="121" />
      <note Length="0.03125" Pitch="40" RiffPosition="4.90625" Velocity="0" />
      <note Length="0.03125" Pitch="48" RiffPosition="4.9375" Velocity="61" />
      <note Length="0.03125" Pitch="46" RiffPosition="4.96875" Velocity="76" />
      <note Length="0.0625" Pitch="46" RiffPosition="5" Velocity="85" />
      <note Length="0.0625" Pitch="48" RiffPosition="5.0625" Velocity="83" />
      <note Length="0.0625" Pitch="45" RiffPosition="5.125" Velocity="49" />
      <note Length="0.015625" Pitch="42" RiffPosition="5.1875" Velocity="53" />
      <note Length="0.046875" Pitch="39" RiffPosition="5.203125" Velocity="0" />
      <note Length="0.03125" Pitch="40" RiffPosition="5.25" Velocity="0" />
      <note Length="0.03125" Pitch="38" RiffPosition="5.28125" Velocity="0" />
      <note Length="0.03125" Pitch="44" RiffPosition="5.3125" Velocity="79" />
      <note Length="0.03125" Pitch="42" RiffPosition="5.34375" Velocity="96" />
      <note Length="0.0625" Pitch="46" RiffPosition="5.375" Velocity="61" />
      <note Length="0.0625" Pitch="42" RiffPosition="5.4375" Velocity="79" />
      <note Length="0.0625" Pitch="43" RiffPosition="5.5" Velocity="85" />
      <note Length="0.0625" Pitch="45" RiffPosition="5.5625" Velocity="58" />
      <note Length="0.03125" Pitch="46" RiffPosition="5.625" Velocity="49" />
      <note Length="0.03125" Pitch="44" RiffPosition="5.65625" Velocity="42" />
      <note Length="0.03125" Pitch="47" RiffPosition="5.6875" Velocity="88" />
      <note Length="0.03125" Pitch="42" RiffPosition="5.71875" Velocity="95" />
      <note Length="0.03125" Pitch="45" RiffPosition="5.75" Velocity="85" />
      <note Length="0.03125" Pitch="39" RiffPosition="5.78125" Velocity="0" />
      <note Length="0.015625" Pitch="41" RiffPosition="5.8125" Velocity="79" />
      <note Length="0.046875" Pitch="39" RiffPosition="5.828125" Velocity="0" />
      <note Length="0.03125" Pitch="36" RiffPosition="5.875" Velocity="0" />
      <note Length="0.03125" Pitch="42" RiffPosition="5.90625" Velocity="96" />
      <note Length="0.03125" Pitch="43" RiffPosition="5.9375" Velocity="61" />
      <note Length="0.03125" Pitch="48" RiffPosition="5.96875" Velocity="76" />
      <note Length="0.0625" Pitch="48" RiffPosition="6" Velocity="85" />
      <note Length="0.0625" Pitch="50" RiffPosition="6.0625" Velocity="83" />
      <note Length="0.0625" Pitch="47" RiffPosition="6.125" Velocity="49" />
      <note Length="0.015625" Pitch="44" RiffPosition="6.1875" Velocity="53" />
      <note Length="0.046875" Pitch="41" RiffPosition="6.203125" Velocity="48" />
      <note Length="0.03125" Pitch="42" RiffPosition="6.25" Velocity="56" />
      <note Length="0.03125" Pitch="40" RiffPosition="6.28125" Velocity="0" />
      <note Length="0.03125" Pitch="39" RiffPosition="6.3125" Velocity="0" />
      <note Length="0.03125" Pitch="44" RiffPosition="6.34375" Velocity="96" />
      <note Length="0.0625" Pitch="42" RiffPosition="6.375" Velocity="61" />
      <note Length="0.0625" Pitch="44" RiffPosition="6.4375" Velocity="79" />
      <note Length="0.0625" Pitch="45" RiffPosition="6.5" Velocity="85" />
      <note Length="0.0625" Pitch="47" RiffPosition="6.5625" Velocity="58" />
      <note Length="0.03125" Pitch="49" RiffPosition="6.625" Velocity="27" />
      <note Length="0.03125" Pitch="46" RiffPosition="6.65625" Velocity="42" />
      <note Length="0.03125" Pitch="49" RiffPosition="6.6875" Velocity="48" />
      <note Length="0.03125" Pitch="44" RiffPosition="6.71875" Velocity="95" />
      <note Length="0.03125" Pitch="40" RiffPosition="6.75" Velocity="0" />
      <note Length="0.03125" Pitch="41" RiffPosition="6.78125" Velocity="60" />
      <note Length="0.015625" Pitch="35" RiffPosition="6.8125" Velocity="0" />
      <note Length="0.046875" Pitch="41" RiffPosition="6.828125" Velocity="90" />
      <note Length="0.03125" Pitch="38" RiffPosition="6.875" Velocity="0" />
      <note Length="0.03125" Pitch="44" RiffPosition="6.90625" Velocity="96" />
      <note Length="0.03125" Pitch="44" RiffPosition="6.9375" Velocity="61" />
      <note Length="0.03125" Pitch="43" RiffPosition="6.96875" Velocity="76" />
      <note Length="0.0625" Pitch="50" RiffPosition="7" Velocity="85" />
      <note Length="0.0625" Pitch="53" RiffPosition="7.0625" Velocity="83" />
      <note Length="0.0625" Pitch="50" RiffPosition="7.125" Velocity="49" />
      <note Length="0.015625" Pitch="38" RiffPosition="7.1875" Velocity="0" />
      <note Length="0.046875" Pitch="43" RiffPosition="7.203125" Velocity="48" />
      <note Length="0.03125" Pitch="36" RiffPosition="7.25" Velocity="0" />
      <note Length="0.03125" Pitch="42" RiffPosition="7.28125" Velocity="81" />
      <note Length="0.03125" Pitch="41" RiffPosition="7.3125" Velocity="79" />
      <note Length="0.03125" Pitch="45" RiffPosition="7.34375" Velocity="96" />
      <note Length="0.0625" Pitch="44" RiffPosition="7.375" Velocity="61" />
      <note Length="0.0625" Pitch="45" RiffPosition="7.4375" Velocity="79" />
      <note Length="0.0625" Pitch="47" RiffPosition="7.5" Velocity="85" />
      <note Length="0.0625" Pitch="49" RiffPosition="7.5625" Velocity="32" />
      <note Length="0.03125" Pitch="44" RiffPosition="7.625" Velocity="49" />
      <note Length="0.03125" Pitch="48" RiffPosition="7.65625" Velocity="42" />
      <note Length="0.03125" Pitch="44" RiffPosition="7.6875" Velocity="88" />
      <note Length="0.03125" Pitch="46" RiffPosition="7.71875" Velocity="95" />
      <note Length="0.03125" Pitch="42" RiffPosition="7.75" Velocity="85" />
      <note Length="0.03125" Pitch="43" RiffPosition="7.78125" Velocity="60" />
      <note Length="0.015625" Pitch="37" RiffPosition="7.8125" Velocity="79" />
      <note Length="0.046875" Pitch="36" RiffPosition="7.828125" Velocity="0" />
      <note Length="0.03125" Pitch="40" RiffPosition="7.875" Velocity="0" />
      <note Length="0.03125" Pitch="38" RiffPosition="7.90625" Velocity="0" />
      <note Length="0.03125" Pitch="46" RiffPosition="7.9375" Velocity="61" />
      <note Length="0.03125" Pitch="44" RiffPosition="7.96875" Velocity="76" />
      <note Length="0.0625" Pitch="53" RiffPosition="8" Velocity="85" />
      <note Length="0.0625" Pitch="47" RiffPosition="8.0625" Velocity="83" />
      <note Length="0.0625" Pitch="44" RiffPosition="8.125" Velocity="49" />
      <note Length="0.015625" Pitch="40" RiffPosition="8.1875" Velocity="0" />
      <note Length="0.046875" Pitch="37" RiffPosition="8.203125" Velocity="48" />
      <note Length="0.03125" Pitch="38" RiffPosition="8.25" Velocity="0" />
      <note Length="0.03125" Pitch="36" RiffPosition="8.28125" Velocity="0" />
      <note Length="0.03125" Pitch="43" RiffPosition="8.3125" Velocity="79" />
      <note Length="0.03125" Pitch="40" RiffPosition="8.34375" Velocity="0" />
      <note Length="0.0625" Pitch="45" RiffPosition="8.375" Velocity="61" />
      <note Length="0.0625" Pitch="47" RiffPosition="8.4375" Velocity="79" />
      <note Length="0.0625" Pitch="42" RiffPosition="8.5" Velocity="85" />
      <note Length="0.0625" Pitch="44" RiffPosition="8.5625" Velocity="58" />
      <note Length="0.03125" Pitch="45" RiffPosition="8.625" Velocity="49" />
      <note Length="0.03125" Pitch="50" RiffPosition="8.65625" Velocity="42" />
      <note Length="0.03125" Pitch="45" RiffPosition="8.6875" Velocity="88" />
      <note Length="0.03125" Pitch="41" RiffPosition="8.71875" Velocity="95" />
      <note Length="0.03125" Pitch="44" RiffPosition="8.75" Velocity="85" />
      <note Length="0.03125" Pitch="37" RiffPosition="8.78125" Velocity="60" />
      <note Length="0.015625" Pitch="39" RiffPosition="8.8125" Velocity="0" />
      <note Length="0.046875" Pitch="38" RiffPosition="8.828125" Velocity="0" />
      <note Length="0.03125" Pitch="42" RiffPosition="8.875" Velocity="121" />
      <note Length="0.03125" Pitch="40" RiffPosition="8.90625" Velocity="0" />
      <note Length="0.03125" Pitch="41" RiffPosition="8.9375" Velocity="61" />
      <note Length="0.03125" Pitch="46" RiffPosition="8.96875" Velocity="76" />
      <note Length="0.0625" Pitch="47" RiffPosition="9" Velocity="85" />
      <note Length="0.0625" Pitch="49" RiffPosition="9.0625" Velocity="46" />
      <note Length="0.0625" Pitch="46" RiffPosition="9.125" Velocity="49" />
      <note Length="0.015625" Pitch="42" RiffPosition="9.1875" Velocity="53" />
      <note Length="0.046875" Pitch="39" RiffPosition="9.203125" Velocity="0" />
      <note Length="0.03125" Pitch="40" RiffPosition="9.25" Velocity="0" />
      <note Length="0.03125" Pitch="38" RiffPosition="9.28125" Velocity="0" />
      <note Length="0.03125" Pitch="44" RiffPosition="9.3125" Velocity="79" />
      <note Length="0.03125" Pitch="42" RiffPosition="9.34375" Velocity="96" />
      <note Length="0.0625" Pitch="47" RiffPosition="9.375" Velocity="61" />
      <note Length="0.0625" Pitch="42" RiffPosition="9.4375" Velocity="79" />
      <note Length="0.0625" Pitch="44" RiffPosition="9.5" Velocity="85" />
      <note Length="0.0625" Pitch="45" RiffPosition="9.5625" Velocity="58" />
      <note Length="0.03125" Pitch="47" RiffPosition="9.625" Velocity="49" />
      <note Length="0.03125" Pitch="44" RiffPosition="9.65625" Velocity="42" />
      <note Length="0.03125" Pitch="47" RiffPosition="9.6875" Velocity="88" />
      <note Length="0.03125" Pitch="43" RiffPosition="9.71875" Velocity="95" />
      <note Length="0.03125" Pitch="45" RiffPosition="9.75" Velocity="85" />
      <note Length="0.03125" Pitch="39" RiffPosition="9.78125" Velocity="0" />
      <note Length="0.015625" Pitch="41" RiffPosition="9.8125" Velocity="79" />
      <note Length="0.046875" Pitch="40" RiffPosition="9.828125" Velocity="0" />
      <note Length="0.03125" Pitch="36" RiffPosition="9.875" Velocity="0" />
      <note Length="0.03125" Pitch="42" RiffPosition="9.90625" Velocity="96" />
      <note Length="0.03125" Pitch="43" RiffPosition="9.9375" Velocity="61" />
      <note Length="0.03125" Pitch="48" RiffPosition="9.96875" Velocity="76" />
      <note Length="0.0625" Pitch="49" RiffPosition="10" Velocity="47" />
      <note Length="0.0625" Pitch="51" RiffPosition="10.0625" Velocity="83" />
      <note Length="0.0625" Pitch="48" RiffPosition="10.125" Velocity="49" />
      <note Length="0.015625" Pitch="44" RiffPosition="10.1875" Velocity="53" />
      <note Length="0.046875" Pitch="42" RiffPosition="10.203125" Velocity="48" />
      <note Length="0.03125" Pitch="42" RiffPosition="10.25" Velocity="56" />
      <note Length="0.03125" Pitch="40" RiffPosition="10.28125" Velocity="0" />
      <note Length="0.03125" Pitch="39" RiffPosition="10.3125" Velocity="0" />
      <note Length="0.03125" Pitch="44" RiffPosition="10.34375" Velocity="96" />
      <note Length="0.0625" Pitch="42" RiffPosition="10.375" Velocity="61" />
      <note Length="0.0625" Pitch="44" RiffPosition="10.4375" Velocity="79" />
      <note Length="0.0625" Pitch="45" RiffPosition="10.5" Velocity="85" />
      <note Length="0.0625" Pitch="47" RiffPosition="10.5625" Velocity="58" />
      <note Length="0.03125" Pitch="49" RiffPosition="10.625" Velocity="27" />
      <note Length="0.03125" Pitch="46" RiffPosition="10.65625" Velocity="42" />
      <note Length="0.03125" Pitch="49" RiffPosition="10.6875" Velocity="48" />
      <note Length="0.03125" Pitch="44" RiffPosition="10.71875" Velocity="95" />
      <note Length="0.03125" Pitch="40" RiffPosition="10.75" Velocity="0" />
      <note Length="0.03125" Pitch="41" RiffPosition="10.78125" Velocity="60" />
      <note Length="0.015625" Pitch="35" RiffPosition="10.8125" Velocity="0" />
      <note Length="0.046875" Pitch="34" RiffPosition="10.828125" Velocity="90" />
      <note Length="0.03125" Pitch="38" RiffPosition="10.875" Velocity="0" />
      <note Length="0.03125" Pitch="44" RiffPosition="10.90625" Velocity="96" />
      <note Length="0.03125" Pitch="44" RiffPosition="10.9375" Velocity="61" />
      <note Length="0.03125" Pitch="44" RiffPosition="10.96875" Velocity="76" />
      <note Length="0.0625" Pitch="51" RiffPosition="11" Velocity="85" />
      <note Length="0.0625" Pitch="53" RiffPosition="11.0625" Velocity="83" />
      <note Length="0.0625" Pitch="50" RiffPosition="11.125" Velocity="49" />
      <note Length="0.015625" Pitch="38" RiffPosition="11.1875" Velocity="0" />
      <note Length="0.046875" Pitch="44" RiffPosition="11.203125" Velocity="48" />
      <note Length="0.03125" Pitch="36" RiffPosition="11.25" Velocity="0" />
      <note Length="0.03125" Pitch="42" RiffPosition="11.28125" Velocity="81" />
      <note Length="0.03125" Pitch="41" RiffPosition="11.3125" Velocity="79" />
      <note Length="0.03125" Pitch="45" RiffPosition="11.34375" Velocity="96" />
      <note Length="0.0625" Pitch="44" RiffPosition="11.375" Velocity="61" />
      <note Length="0.0625" Pitch="45" RiffPosition="11.4375" Velocity="79" />
      <note Length="0.0625" Pitch="47" RiffPosition="11.5" Velocity="85" />
      <note Length="0.0625" Pitch="49" RiffPosition="11.5625" Velocity="32" />
      <note Length="0.03125" Pitch="44" RiffPosition="11.625" Velocity="49" />
      <note Length="0.03125" Pitch="49" RiffPosition="11.65625" Velocity="23" />
      <note Length="0.03125" Pitch="44" RiffPosition="11.6875" Velocity="88" />
      <note Length="0.03125" Pitch="46" RiffPosition="11.71875" Velocity="95" />
      <note Length="0.03125" Pitch="42" RiffPosition="11.75" Velocity="85" />
      <note Length="0.03125" Pitch="44" RiffPosition="11.78125" Velocity="60" />
      <note Length="0.015625" Pitch="38" RiffPosition="11.8125" Velocity="0" />
      <note Length="0.046875" Pitch="36" RiffPosition="11.828125" Velocity="0" />
      <note Length="0.03125" Pitch="40" RiffPosition="11.875" Velocity="0" />
      <note Length="0.03125" Pitch="39" RiffPosition="11.90625" Velocity="0" />
      <note Length="0.03125" Pitch="46" RiffPosition="11.9375" Velocity="61" />
      <note Length="0.03125" Pitch="45" RiffPosition="11.96875" Velocity="76" />
    </riff>
    <riff IsDrum="True" MidiInstrument="0" Tempo="132" Length="12">
      <note Length="0.0078125" Pitch="46" RiffPosition="0" Velocity="0" />
      <note Length="0.0234375" Pitch="49" RiffPosition="0.0078125" Velocity="0" />
      <note Length="0.03125" Pitch="44" RiffPosition="0.03125" Velocity="0" />
      <note Length="0.03125" Pitch="50" RiffPosition="0.0625" Velocity="0" />
      <note Length="0.03125" Pitch="41" RiffPosition="0.09375" Velocity="0" />
      <note Length="0.015625" Pitch="36" RiffPosition="0.125" Velocity="0" />
      <note Length="0.015625" Pitch="43" RiffPosition="0.140625" Velocity="0" />
      <note Length="0.03125" Pitch="48" RiffPosition="0.15625" Velocity="0" />
      <note Length="0.0104166666666667" Pitch="42" RiffPosition="0.1875" Velocity="0" />
      <note Length="0.0104166666666667" Pitch="44" RiffPosition="0.197916666666667" Velocity="0" />
      <note Length="0.0208333333333333" Pitch="44" RiffPosition="0.208333333333333" Velocity="0" />
      <note Length="0.0208333333333333" Pitch="36" RiffPosition="0.229166666666667" Velocity="0" />
      <note Length="0.0078125" Pitch="43" RiffPosition="0.25" Velocity="0" />
      <note Length="0.0234375" Pitch="45" RiffPosition="0.2578125" Velocity="0" />
      <note Length="0.03125" Pitch="41" RiffPosition="0.28125" Velocity="0" />
      <note Length="0.03125" Pitch="48" RiffPosition="0.3125" Velocity="0" />
      <note Length="0.03125" Pitch="39" RiffPosition="0.34375" Velocity="0" />
      <note Length="0.015625" Pitch="48" RiffPosition="0.375" Velocity="0" />
      <note Length="0.015625" Pitch="41" RiffPosition="0.390625" Velocity="0" />
      <note Length="0.03125" Pitch="45" RiffPosition="0.40625" Velocity="0" />
      <note Length="0.0104166666666667" Pitch="52" RiffPosition="0.4375" Velocity="0" />
      <note Length="0.0104166666666667" Pitch="40" RiffPosition="0.447916666666667" Velocity="0" />
      <note Length="0.0208333333333333" Pitch="42" RiffPosition="0.458333333333333" Velocity="0" />
      <note Length="0.0208333333333333" Pitch="45" RiffPosition="0.479166666666667" Velocity="0" />
      <note Length="0.0078125" Pitch="38" RiffPosition="0.5" Velocity="0" />
      <note Length="0.0234375" Pitch="41" RiffPosition="0.5078125" Velocity="0" />
      <note Length="0.03125" Pitch="49" RiffPosition="0.53125" Velocity="0" />
      <note Length="0.03125" Pitch="43" RiffPosition="0.5625" Velocity="0" />
      <note Length="0.03125" Pitch="46" RiffPosition="0.59375" Velocity="0" />
      <note Length="0.015625" Pitch="42" RiffPosition="0.625" Velocity="0" />
      <note Length="0.015625" Pitch="48" RiffPosition="0.640625" Velocity="0" />
      <note Length="0.03125" Pitch="40" RiffPosition="0.65625" Velocity="0" />
      <note Length="0.0104166666666667" Pitch="47" RiffPosition="0.6875" Velocity="0" />
      <note Length="0.0104166666666667" Pitch="49" RiffPosition="0.697916666666667" Velocity="0" />
      <note Length="0.0208333333333333" Pitch="37" RiffPosition="0.708333333333333" Velocity="0" />
      <note Length="0.0208333333333333" Pitch="42" RiffPosition="0.729166666666667" Velocity="0" />
      <note Length="0.0078125" Pitch="48" RiffPosition="0.75" Velocity="0" />
      <note Length="0.0234375" Pitch="38" RiffPosition="0.7578125" Velocity="0" />
      <note Length="0.03125" Pitch="46" RiffPosition="0.78125" Velocity="0" />
      <note Length="0.03125" Pitch="40" RiffPosition="0.8125" Velocity="0" />
      <note Length="0.03125" Pitch="45" RiffPosition="0.84375" Velocity="0" />
      <note Length="0.015625" Pitch="41" RiffPosition="0.875" Velocity="0" />
      <note Length="0.015625" Pitch="46" RiffPosition="0.890625" Velocity="0" />
      <note Length="0.03125" Pitch="51" RiffPosition="0.90625" Velocity="0" />
      <note Length="0.0104166666666667" Pitch="44" RiffPosition="0.9375" Velocity="0" />
      <note Length="0.0104166666666667" Pitch="45" RiffPosition="0.947916666666667" Velocity="0" />
      <note Length="0.0208333333333333" Pitch="47" RiffPosition="0.958333333333333" Velocity="0" />
      <note Length="0.0208333333333333" Pitch="38" RiffPosition="0.979166666666667" Velocity="0" />
      <note Length="0.0078125" Pitch="44" RiffPosition="1" Velocity="0" />
      <note Length="0.0234375" Pitch="47" RiffPosition="1.0078125" Velocity="0" />
      <note Length="0.03125" Pitch="42" RiffPosition="1.03125" Velocity="0" />
      <note Length="0.03125" Pitch="48" RiffPosition="1.0625" Velocity="0" />
      <note Length="0.03125" Pitch="39" RiffPosition="1.09375" Velocity="0" />
      <note Length="0.015625" Pitch="48" RiffPosition="1.125" Velocity="0" />
      <note Length="0.015625" Pitch="41" RiffPosition="1.140625" Velocity="0" />
      <note Length="0.03125" Pitch="46" RiffPosition="1.15625" Velocity="0" />
      <note Length="0.0104166666666667" Pitch="40" RiffPosition="1.1875" Velocity="0" />
      <note Length="0.0104166666666667" Pitch="42" RiffPosition="1.19791666666667" Velocity="0" />
      <note Length="0.0208333333333333" Pitch="43" RiffPosition="1.20833333333333" Velocity="0" />
      <note Length="0.0208333333333333" Pitch="47" RiffPosition="1.22916666666667" Velocity="0" />
      <note Length="0.0078125" Pitch="41" RiffPosition="1.25" Velocity="0" />
      <note Length="0.0234375" Pitch="44" RiffPosition="1.2578125" Velocity="0" />
      <note Length="0.03125" Pitch="52" RiffPosition="1.28125" Velocity="0" />
      <note Length="0.03125" Pitch="45" RiffPosition="1.3125" Velocity="0" />
      <note Length="0.03125" Pitch="37" RiffPosition="1.34375" Velocity="0" />
      <note Length="0.015625" Pitch="46" RiffPosition="1.375" Velocity="0" />
      <note Length="0.015625" Pitch="52" RiffPosition="1.390625" Velocity="0" />
      <note Length="0.03125" Pitch="44" RiffPosition="1.40625" Velocity="0" />
      <note Length="0.0104166666666667" Pitch="50" RiffPosition="1.4375" Velocity="0" />
      <note Length="0.0104166666666667" Pitch="38" RiffPosition="1.44791666666667" Velocity="0" />
      <note Length="0.0208333333333333" Pitch="40" RiffPosition="1.45833333333333" Velocity="0" />
      <note Length="0.0208333333333333" Pitch="44" RiffPosition="1.47916666666667" Velocity="0" />
      <note Length="0.0078125" Pitch="36" RiffPosition="1.5" Velocity="0" />
      <note Length="0.0234375" Pitch="39" RiffPosition="1.5078125" Velocity="0" />
      <note Length="0.03125" Pitch="47" RiffPosition="1.53125" Velocity="0" />
      <note Length="0.03125" Pitch="41" RiffPosition="1.5625" Velocity="0" />
      <note Length="0.03125" Pitch="44" RiffPosition="1.59375" Velocity="0" />
      <note Length="0.015625" Pitch="40" RiffPosition="1.625" Velocity="0" />
      <note Length="0.015625" Pitch="46" RiffPosition="1.640625" Velocity="0" />
      <note Length="0.03125" Pitch="52" RiffPosition="1.65625" Velocity="0" />
      <note Length="0.0104166666666667" Pitch="45" RiffPosition="1.6875" Velocity="0" />
      <note Length="0.0104166666666667" Pitch="47" RiffPosition="1.69791666666667" Velocity="0" />
      <note Length="0.0208333333333333" Pitch="48" RiffPosition="1.70833333333333" Velocity="0" />
      <note Length="0.0208333333333333" Pitch="40" RiffPosition="1.72916666666667" Velocity="0" />
      <note Length="0.0078125" Pitch="46" RiffPosition="1.75" Velocity="0" />
      <note Length="0.0234375" Pitch="49" RiffPosition="1.7578125" Velocity="0" />
      <note Length="0.03125" Pitch="44" RiffPosition="1.78125" Velocity="0" />
      <note Length="0.03125" Pitch="51" RiffPosition="1.8125" Velocity="0" />
      <note Length="0.03125" Pitch="43" RiffPosition="1.84375" Velocity="0" />
      <note Length="0.015625" Pitch="39" RiffPosition="1.875" Velocity="0" />
      <note Length="0.015625" Pitch="44" RiffPosition="1.890625" Velocity="0" />
      <note Length="0.03125" Pitch="49" RiffPosition="1.90625" Velocity="0" />
      <note Length="0.0104166666666667" Pitch="43" RiffPosition="1.9375" Velocity="0" />
      <note Length="0.0104166666666667" Pitch="44" RiffPosition="1.94791666666667" Velocity="0" />
      <note Length="0.0208333333333333" Pitch="45" RiffPosition="1.95833333333333" Velocity="0" />
      <note Length="0.0208333333333333" Pitch="36" RiffPosition="1.97916666666667" Velocity="0" />
      <note Length="0.0078125" Pitch="42" RiffPosition="2" Velocity="0" />
      <note Length="0.0234375" Pitch="44" RiffPosition="2.0078125" Velocity="0" />
      <note Length="0.03125" Pitch="40" RiffPosition="2.03125" Velocity="0" />
      <note Length="0.03125" Pitch="46" RiffPosition="2.0625" Velocity="0" />
      <note Length="0.03125" Pitch="37" RiffPosition="2.09375" Velocity="0" />
      <note Length="0.015625" Pitch="45" RiffPosition="2.125" Velocity="0" />
      <note Length="0.015625" Pitch="38" RiffPosition="2.140625" Velocity="0" />
      <note Length="0.03125" Pitch="44" RiffPosition="2.15625" Velocity="0" />
      <note Length="0.0104166666666667" Pitch="51" RiffPosition="2.1875" Velocity="0" />
      <note Length="0.0104166666666667" Pitch="39" RiffPosition="2.19791666666667" Velocity="0" />
      <note Length="0.0208333333333333" Pitch="41" RiffPosition="2.20833333333333" Velocity="0" />
      <note Length="0.0208333333333333" Pitch="45" RiffPosition="2.22916666666667" Velocity="0" />
      <note Length="0.0078125" Pitch="39" RiffPosition="2.25" Velocity="0" />
      <note Length="0.0234375" Pitch="42" RiffPosition="2.2578125" Velocity="0" />
      <note Length="0.03125" Pitch="50" RiffPosition="2.28125" Velocity="0" />
      <note Length="0.03125" Pitch="44" RiffPosition="2.3125" Velocity="0" />
      <note Length="0.03125" Pitch="48" RiffPosition="2.34375" Velocity="0" />
      <note Length="0.015625" Pitch="44" RiffPosition="2.375" Velocity="0" />
      <note Length="0.015625" Pitch="50" RiffPosition="2.390625" Velocity="0" />
      <note Length="0.03125" Pitch="42" RiffPosition="2.40625" Velocity="0" />
      <note Length="0.0104166666666667" Pitch="48" RiffPosition="2.4375" Velocity="0" />
      <note Length="0.0104166666666667" Pitch="49" RiffPosition="2.44791666666667" Velocity="0" />
      <note Length="0.0208333333333333" Pitch="38" RiffPosition="2.45833333333333" Velocity="0" />
      <note Length="0.0208333333333333" Pitch="42" RiffPosition="2.47916666666667" Velocity="0" />
      <note Length="0.0078125" Pitch="47" RiffPosition="2.5" Velocity="0" />
      <note Length="0.0234375" Pitch="37" RiffPosition="2.5078125" Velocity="0" />
      <note Length="0.03125" Pitch="45" RiffPosition="2.53125" Velocity="0" />
      <note Length="0.03125" Pitch="38" RiffPosition="2.5625" Velocity="0" />
      <note Length="0.03125" Pitch="43" RiffPosition="2.59375" Velocity="0" />
      <note Length="0.015625" Pitch="38" RiffPosition="2.625" Velocity="0" />
      <note Length="0.015625" Pitch="44" RiffPosition="2.640625" Velocity="0" />
      <note Length="0.03125" Pitch="49" RiffPosition="2.65625" Velocity="0" />
      <note Length="0.0104166666666667" Pitch="44" RiffPosition="2.6875" Velocity="0" />
      <note Length="0.0104166666666667" Pitch="44" RiffPosition="2.69791666666667" Velocity="0" />
      <note Length="0.0208333333333333" Pitch="46" RiffPosition="2.70833333333333" Velocity="0" />
      <note Length="0.0208333333333333" Pitch="37" RiffPosition="2.72916666666667" Velocity="0" />
      <note Length="0.0078125" Pitch="44" RiffPosition="2.75" Velocity="0" />
      <note Length="0.0234375" Pitch="47" RiffPosition="2.7578125" Velocity="0" />
      <note Length="0.03125" Pitch="43" RiffPosition="2.78125" Velocity="0" />
      <note Length="0.03125" Pitch="49" RiffPosition="2.8125" Velocity="0" />
      <note Length="0.03125" Pitch="41" RiffPosition="2.84375" Velocity="0" />
      <note Length="0.015625" Pitch="50" RiffPosition="2.875" Velocity="0" />
      <note Length="0.015625" Pitch="42" RiffPosition="2.890625" Velocity="0" />
      <note Length="0.03125" Pitch="47" RiffPosition="2.90625" Velocity="0" />
      <note Length="0.0104166666666667" Pitch="41" RiffPosition="2.9375" Velocity="0" />
      <note Length="0.0104166666666667" Pitch="42" RiffPosition="2.94791666666667" Velocity="0" />
      <note Length="0.0208333333333333" Pitch="44" RiffPosition="2.95833333333333" Velocity="0" />
      <note Length="0.0208333333333333" Pitch="47" RiffPosition="2.97916666666667" Velocity="0" />
      <note Length="0.0078125" Pitch="40" RiffPosition="3" Velocity="0" />
      <note Length="0.0234375" Pitch="43" RiffPosition="3.0078125" Velocity="0" />
      <note Length="0.03125" Pitch="51" RiffPosition="3.03125" Velocity="0" />
      <note Length="0.03125" Pitch="44" RiffPosition="3.0625" Velocity="0" />
      <note Length="0.03125" Pitch="35" RiffPosition="3.09375" Velocity="0" />
      <note Length="0.015625" Pitch="44" RiffPosition="3.125" Velocity="0" />
      <note Length="0.015625" Pitch="50" RiffPosition="3.140625" Velocity="0" />
      <note Length="0.03125" Pitch="42" RiffPosition="3.15625" Velocity="0" />
      <note Length="0.0104166666666667" Pitch="49" RiffPosition="3.1875" Velocity="0" />
      <note Length="0.0104166666666667" Pitch="37" RiffPosition="3.19791666666667" Velocity="0" />
      <note Length="0.0208333333333333" Pitch="39" RiffPosition="3.20833333333333" Velocity="0" />
      <note Length="0.0208333333333333" Pitch="44" RiffPosition="3.22916666666667" Velocity="0" />
      <note Length="0.0078125" Pitch="36" RiffPosition="3.25" Velocity="0" />
      <note Length="0.0234375" Pitch="40" RiffPosition="3.2578125" Velocity="0" />
      <note Length="0.03125" Pitch="48" RiffPosition="3.28125" Velocity="0" />
      <note Length="0.03125" Pitch="42" RiffPosition="3.3125" Velocity="0" />
      <note Length="0.03125" Pitch="46" RiffPosition="3.34375" Velocity="0" />
      <note Length="0.015625" Pitch="43" RiffPosition="3.375" Velocity="0" />
      <note Length="0.015625" Pitch="48" RiffPosition="3.390625" Velocity="0" />
      <note Length="0.03125" Pitch="53" RiffPosition="3.40625" Velocity="0" />
      <note Length="0.0104166666666667" Pitch="46" RiffPosition="3.4375" Velocity="0" />
      <note Length="0.0104166666666667" Pitch="47" RiffPosition="3.44791666666667" Velocity="0" />
      <note Length="0.0208333333333333" Pitch="49" RiffPosition="3.45833333333333" Velocity="0" />
      <note Length="0.0208333333333333" Pitch="40" RiffPosition="3.47916666666667" Velocity="0" />
      <note Length="0.0078125" Pitch="45" RiffPosition="3.5" Velocity="0" />
      <note Length="0.0234375" Pitch="48" RiffPosition="3.5078125" Velocity="0" />
      <note Length="0.03125" Pitch="44" RiffPosition="3.53125" Velocity="0" />
      <note Length="0.03125" Pitch="50" RiffPosition="3.5625" Velocity="0" />
      <note Length="0.03125" Pitch="41" RiffPosition="3.59375" Velocity="0" />
      <note Length="0.015625" Pitch="36" RiffPosition="3.625" Velocity="0" />
      <note Length="0.015625" Pitch="42" RiffPosition="3.640625" Velocity="0" />
      <note Length="0.03125" Pitch="47" RiffPosition="3.65625" Velocity="0" />
      <note Length="0.0104166666666667" Pitch="42" RiffPosition="3.6875" Velocity="0" />
      <note Length="0.0104166666666667" Pitch="43" RiffPosition="3.69791666666667" Velocity="0" />
      <note Length="0.0208333333333333" Pitch="44" RiffPosition="3.70833333333333" Velocity="0" />
      <note Length="0.0208333333333333" Pitch="35" RiffPosition="3.72916666666667" Velocity="0" />
      <note Length="0.0078125" Pitch="42" RiffPosition="3.75" Velocity="0" />
      <note Length="0.0234375" Pitch="45" RiffPosition="3.7578125" Velocity="0" />
      <note Length="0.03125" Pitch="40" RiffPosition="3.78125" Velocity="0" />
      <note Length="0.03125" Pitch="47" RiffPosition="3.8125" Velocity="0" />
      <note Length="0.03125" Pitch="39" RiffPosition="3.84375" Velocity="0" />
      <note Length="0.015625" Pitch="48" RiffPosition="3.875" Velocity="0" />
      <note Length="0.015625" Pitch="40" RiffPosition="3.890625" Velocity="0" />
      <note Length="0.03125" Pitch="45" RiffPosition="3.90625" Velocity="0" />
      <note Length="0.0104166666666667" Pitch="52" RiffPosition="3.9375" Velocity="0" />
      <note Length="0.0104166666666667" Pitch="40" RiffPosition="3.94791666666667" Velocity="0" />
      <note Length="0.0208333333333333" Pitch="41" RiffPosition="3.95833333333333" Velocity="0" />
      <note Length="0.0208333333333333" Pitch="45" RiffPosition="3.97916666666667" Velocity="0" />
      <note Length="0.0078125" Pitch="38" RiffPosition="4" Velocity="0" />
      <note Length="0.0234375" Pitch="41" RiffPosition="4.0078125" Velocity="86" />
      <note Length="0.03125" Pitch="49" RiffPosition="4.03125" Velocity="47" />
      <note Length="0.03125" Pitch="42" RiffPosition="4.0625" Velocity="52" />
      <note Length="0.03125" Pitch="46" RiffPosition="4.09375" Velocity="64" />
      <note Length="0.015625" Pitch="42" RiffPosition="4.125" Velocity="73" />
      <note Length="0.015625" Pitch="47" RiffPosition="4.140625" Velocity="70" />
      <note Length="0.03125" Pitch="40" RiffPosition="4.15625" Velocity="0" />
      <note Length="0.0104166666666667" Pitch="47" RiffPosition="4.1875" Velocity="58" />
      <note Length="0.0104166666666667" Pitch="48" RiffPosition="4.19791666666667" Velocity="56" />
      <note Length="0.0208333333333333" Pitch="37" RiffPosition="4.20833333333333" Velocity="44" />
      <note Length="0.0208333333333333" Pitch="41" RiffPosition="4.22916666666667" Velocity="65" />
      <note Length="0.0078125" Pitch="48" RiffPosition="4.25" Velocity="64" />
      <note Length="0.0234375" Pitch="37" RiffPosition="4.2578125" Velocity="62" />
      <note Length="0.03125" Pitch="46" RiffPosition="4.28125" Velocity="56" />
      <note Length="0.03125" Pitch="40" RiffPosition="4.3125" Velocity="0" />
      <note Length="0.03125" Pitch="44" RiffPosition="4.34375" Velocity="41" />
      <note Length="0.015625" Pitch="40" RiffPosition="4.375" Velocity="0" />
      <note Length="0.015625" Pitch="45" RiffPosition="4.390625" Velocity="51" />
      <note Length="0.03125" Pitch="51" RiffPosition="4.40625" Velocity="51" />
      <note Length="0.0104166666666667" Pitch="44" RiffPosition="4.4375" Velocity="52" />
      <note Length="0.0104166666666667" Pitch="45" RiffPosition="4.44791666666667" Velocity="52" />
      <note Length="0.0208333333333333" Pitch="47" RiffPosition="4.45833333333333" Velocity="52" />
      <note Length="0.0208333333333333" Pitch="37" RiffPosition="4.47916666666667" Velocity="53" />
      <note Length="0.0078125" Pitch="44" RiffPosition="4.5" Velocity="50" />
      <note Length="0.0234375" Pitch="46" RiffPosition="4.5078125" Velocity="60" />
      <note Length="0.03125" Pitch="41" RiffPosition="4.53125" Velocity="87" />
      <note Length="0.03125" Pitch="47" RiffPosition="4.5625" Velocity="90" />
      <note Length="0.03125" Pitch="39" RiffPosition="4.59375" Velocity="0" />
      <note Length="0.015625" Pitch="47" RiffPosition="4.625" Velocity="64" />
      <note Length="0.015625" Pitch="40" RiffPosition="4.640625" Velocity="0" />
      <note Length="0.03125" Pitch="45" RiffPosition="4.65625" Velocity="59" />
      <note Length="0.0104166666666667" Pitch="40" RiffPosition="4.6875" Velocity="0" />
      <note Length="0.0104166666666667" Pitch="41" RiffPosition="4.69791666666667" Velocity="117" />
      <note Length="0.0208333333333333" Pitch="43" RiffPosition="4.70833333333333" Velocity="122" />
      <note Length="0.0208333333333333" Pitch="46" RiffPosition="4.72916666666667" Velocity="127" />
      <note Length="0.0078125" Pitch="40" RiffPosition="4.75" Velocity="0" />
      <note Length="0.0234375" Pitch="43" RiffPosition="4.7578125" Velocity="91" />
      <note Length="0.03125" Pitch="52" RiffPosition="4.78125" Velocity="32" />
      <note Length="0.03125" Pitch="45" RiffPosition="4.8125" Velocity="65" />
      <note Length="0.03125" Pitch="37" RiffPosition="4.84375" Velocity="108" />
      <note Length="0.015625" Pitch="45" RiffPosition="4.875" Velocity="115" />
      <note Length="0.015625" Pitch="51" RiffPosition="4.890625" Velocity="97" />
      <note Length="0.03125" Pitch="44" RiffPosition="4.90625" Velocity="79" />
      <note Length="0.0104166666666667" Pitch="50" RiffPosition="4.9375" Velocity="42" />
      <note Length="0.0104166666666667" Pitch="38" RiffPosition="4.94791666666667" Velocity="0" />
      <note Length="0.0208333333333333" Pitch="39" RiffPosition="4.95833333333333" Velocity="0" />
      <note Length="0.0208333333333333" Pitch="43" RiffPosition="4.97916666666667" Velocity="86" />
      <note Length="0.0078125" Pitch="49" RiffPosition="5" Velocity="48" />
      <note Length="0.0234375" Pitch="39" RiffPosition="5.0078125" Velocity="0" />
      <note Length="0.03125" Pitch="46" RiffPosition="5.03125" Velocity="86" />
      <note Length="0.03125" Pitch="40" RiffPosition="5.0625" Velocity="0" />
      <note Length="0.03125" Pitch="44" RiffPosition="5.09375" Velocity="64" />
      <note Length="0.015625" Pitch="40" RiffPosition="5.125" Velocity="0" />
      <note Length="0.015625" Pitch="45" RiffPosition="5.140625" Velocity="70" />
      <note Length="0.03125" Pitch="51" RiffPosition="5.15625" Velocity="66" />
      <note Length="0.0104166666666667" Pitch="45" RiffPosition="5.1875" Velocity="58" />
      <note Length="0.0104166666666667" Pitch="46" RiffPosition="5.19791666666667" Velocity="56" />
      <note Length="0.0208333333333333" Pitch="48" RiffPosition="5.20833333333333" Velocity="44" />
      <note Length="0.0208333333333333" Pitch="39" RiffPosition="5.22916666666667" Velocity="0" />
      <note Length="0.0078125" Pitch="45" RiffPosition="5.25" Velocity="64" />
      <note Length="0.0234375" Pitch="49" RiffPosition="5.2578125" Velocity="34" />
      <note Length="0.03125" Pitch="44" RiffPosition="5.28125" Velocity="56" />
      <note Length="0.03125" Pitch="51" RiffPosition="5.3125" Velocity="48" />
      <note Length="0.03125" Pitch="43" RiffPosition="5.34375" Velocity="41" />
      <note Length="0.015625" Pitch="38" RiffPosition="5.375" Velocity="0" />
      <note Length="0.015625" Pitch="44" RiffPosition="5.390625" Velocity="51" />
      <note Length="0.03125" Pitch="49" RiffPosition="5.40625" Velocity="28" />
      <note Length="0.0104166666666667" Pitch="43" RiffPosition="5.4375" Velocity="52" />
      <note Length="0.0104166666666667" Pitch="44" RiffPosition="5.44791666666667" Velocity="52" />
      <note Length="0.0208333333333333" Pitch="44" RiffPosition="5.45833333333333" Velocity="52" />
      <note Length="0.0208333333333333" Pitch="35" RiffPosition="5.47916666666667" Velocity="0" />
      <note Length="0.0078125" Pitch="42" RiffPosition="5.5" Velocity="50" />
      <note Length="0.0234375" Pitch="44" RiffPosition="5.5078125" Velocity="60" />
      <note Length="0.03125" Pitch="39" RiffPosition="5.53125" Velocity="0" />
      <note Length="0.03125" Pitch="45" RiffPosition="5.5625" Velocity="90" />
      <note Length="0.03125" Pitch="37" RiffPosition="5.59375" Velocity="90" />
      <note Length="0.015625" Pitch="45" RiffPosition="5.625" Velocity="64" />
      <note Length="0.015625" Pitch="38" RiffPosition="5.640625" Velocity="0" />
      <note Length="0.03125" Pitch="44" RiffPosition="5.65625" Velocity="59" />
      <note Length="0.0104166666666667" Pitch="51" RiffPosition="5.6875" Velocity="103" />
      <note Length="0.0104166666666667" Pitch="39" RiffPosition="5.69791666666667" Velocity="0" />
      <note Length="0.0208333333333333" Pitch="41" RiffPosition="5.70833333333333" Velocity="122" />
      <note Length="0.0208333333333333" Pitch="44" RiffPosition="5.72916666666667" Velocity="127" />
      <note Length="0.0078125" Pitch="38" RiffPosition="5.75" Velocity="0" />
      <note Length="0.0234375" Pitch="41" RiffPosition="5.7578125" Velocity="91" />
      <note Length="0.03125" Pitch="49" RiffPosition="5.78125" Velocity="32" />
      <note Length="0.03125" Pitch="44" RiffPosition="5.8125" Velocity="65" />
      <note Length="0.03125" Pitch="48" RiffPosition="5.84375" Velocity="108" />
      <note Length="0.015625" Pitch="44" RiffPosition="5.875" Velocity="115" />
      <note Length="0.015625" Pitch="49" RiffPosition="5.890625" Velocity="53" />
      <note Length="0.03125" Pitch="42" RiffPosition="5.90625" Velocity="79" />
      <note Length="0.0104166666666667" Pitch="48" RiffPosition="5.9375" Velocity="42" />
      <note Length="0.0104166666666667" Pitch="49" RiffPosition="5.94791666666667" Velocity="28" />
      <note Length="0.0208333333333333" Pitch="37" RiffPosition="5.95833333333333" Velocity="62" />
      <note Length="0.0208333333333333" Pitch="41" RiffPosition="5.97916666666667" Velocity="86" />
      <note Length="0.0078125" Pitch="47" RiffPosition="6" Velocity="87" />
      <note Length="0.0234375" Pitch="50" RiffPosition="6.0078125" Velocity="86" />
      <note Length="0.03125" Pitch="44" RiffPosition="6.03125" Velocity="86" />
      <note Length="0.03125" Pitch="38" RiffPosition="6.0625" Velocity="0" />
      <note Length="0.03125" Pitch="43" RiffPosition="6.09375" Velocity="64" />
      <note Length="0.015625" Pitch="38" RiffPosition="6.125" Velocity="0" />
      <note Length="0.015625" Pitch="44" RiffPosition="6.140625" Velocity="70" />
      <note Length="0.03125" Pitch="49" RiffPosition="6.15625" Velocity="36" />
      <note Length="0.0104166666666667" Pitch="43" RiffPosition="6.1875" Velocity="58" />
      <note Length="0.0104166666666667" Pitch="44" RiffPosition="6.19791666666667" Velocity="56" />
      <note Length="0.0208333333333333" Pitch="46" RiffPosition="6.20833333333333" Velocity="44" />
      <note Length="0.0208333333333333" Pitch="37" RiffPosition="6.22916666666667" Velocity="65" />
      <note Length="0.0078125" Pitch="44" RiffPosition="6.25" Velocity="64" />
      <note Length="0.0234375" Pitch="46" RiffPosition="6.2578125" Velocity="62" />
      <note Length="0.03125" Pitch="42" RiffPosition="6.28125" Velocity="56" />
      <note Length="0.03125" Pitch="49" RiffPosition="6.3125" Velocity="26" />
      <note Length="0.03125" Pitch="41" RiffPosition="6.34375" Velocity="41" />
      <note Length="0.015625" Pitch="49" RiffPosition="6.375" Velocity="28" />
      <note Length="0.015625" Pitch="42" RiffPosition="6.390625" Velocity="51" />
      <note Length="0.03125" Pitch="47" RiffPosition="6.40625" Velocity="51" />
      <note Length="0.0104166666666667" Pitch="40" RiffPosition="6.4375" Velocity="0" />
      <note Length="0.0104166666666667" Pitch="42" RiffPosition="6.44791666666667" Velocity="52" />
      <note Length="0.0208333333333333" Pitch="43" RiffPosition="6.45833333333333" Velocity="52" />
      <note Length="0.0208333333333333" Pitch="46" RiffPosition="6.47916666666667" Velocity="53" />
      <note Length="0.0078125" Pitch="40" RiffPosition="6.5" Velocity="0" />
      <note Length="0.0234375" Pitch="43" RiffPosition="6.5078125" Velocity="60" />
      <note Length="0.03125" Pitch="50" RiffPosition="6.53125" Velocity="87" />
      <note Length="0.03125" Pitch="44" RiffPosition="6.5625" Velocity="90" />
      <note Length="0.03125" Pitch="34" RiffPosition="6.59375" Velocity="90" />
      <note Length="0.015625" Pitch="44" RiffPosition="6.625" Velocity="64" />
      <note Length="0.015625" Pitch="49" RiffPosition="6.640625" Velocity="23" />
      <note Length="0.03125" Pitch="42" RiffPosition="6.65625" Velocity="59" />
      <note Length="0.0104166666666667" Pitch="49" RiffPosition="6.6875" Velocity="57" />
      <note Length="0.0104166666666667" Pitch="37" RiffPosition="6.69791666666667" Velocity="117" />
      <note Length="0.0208333333333333" Pitch="38" RiffPosition="6.70833333333333" Velocity="0" />
      <note Length="0.0208333333333333" Pitch="43" RiffPosition="6.72916666666667" Velocity="127" />
      <note Length="0.0078125" Pitch="49" RiffPosition="6.75" Velocity="56" />
      <note Length="0.0234375" Pitch="39" RiffPosition="6.7578125" Velocity="0" />
      <note Length="0.03125" Pitch="47" RiffPosition="6.78125" Velocity="58" />
      <note Length="0.03125" Pitch="42" RiffPosition="6.8125" Velocity="65" />
      <note Length="0.03125" Pitch="46" RiffPosition="6.84375" Velocity="108" />
      <note Length="0.015625" Pitch="42" RiffPosition="6.875" Velocity="115" />
      <note Length="0.015625" Pitch="47" RiffPosition="6.890625" Velocity="97" />
      <note Length="0.03125" Pitch="53" RiffPosition="6.90625" Velocity="79" />
      <note Length="0.0104166666666667" Pitch="45" RiffPosition="6.9375" Velocity="42" />
      <note Length="0.0104166666666667" Pitch="47" RiffPosition="6.94791666666667" Velocity="50" />
      <note Length="0.0208333333333333" Pitch="48" RiffPosition="6.95833333333333" Velocity="62" />
      <note Length="0.0208333333333333" Pitch="39" RiffPosition="6.97916666666667" Velocity="0" />
      <note Length="0.0078125" Pitch="45" RiffPosition="7" Velocity="87" />
      <note Length="0.0234375" Pitch="48" RiffPosition="7.0078125" Velocity="86" />
      <note Length="0.03125" Pitch="43" RiffPosition="7.03125" Velocity="86" />
      <note Length="0.03125" Pitch="49" RiffPosition="7.0625" Velocity="29" />
      <note Length="0.03125" Pitch="41" RiffPosition="7.09375" Velocity="64" />
      <note Length="0.015625" Pitch="36" RiffPosition="7.125" Velocity="0" />
      <note Length="0.015625" Pitch="42" RiffPosition="7.140625" Velocity="70" />
      <note Length="0.03125" Pitch="47" RiffPosition="7.15625" Velocity="66" />
      <note Length="0.0104166666666667" Pitch="41" RiffPosition="7.1875" Velocity="58" />
      <note Length="0.0104166666666667" Pitch="43" RiffPosition="7.19791666666667" Velocity="56" />
      <note Length="0.0208333333333333" Pitch="44" RiffPosition="7.20833333333333" Velocity="44" />
      <note Length="0.0208333333333333" Pitch="35" RiffPosition="7.22916666666667" Velocity="0" />
      <note Length="0.0078125" Pitch="42" RiffPosition="7.25" Velocity="64" />
      <note Length="0.0234375" Pitch="44" RiffPosition="7.2578125" Velocity="62" />
      <note Length="0.03125" Pitch="53" RiffPosition="7.28125" Velocity="56" />
      <note Length="0.03125" Pitch="47" RiffPosition="7.3125" Velocity="48" />
      <note Length="0.03125" Pitch="39" RiffPosition="7.34375" Velocity="0" />
      <note Length="0.015625" Pitch="47" RiffPosition="7.375" Velocity="51" />
      <note Length="0.015625" Pitch="40" RiffPosition="7.390625" Velocity="0" />
      <note Length="0.03125" Pitch="45" RiffPosition="7.40625" Velocity="51" />
      <note Length="0.0104166666666667" Pitch="52" RiffPosition="7.4375" Velocity="29" />
      <note Length="0.0104166666666667" Pitch="40" RiffPosition="7.44791666666667" Velocity="0" />
      <note Length="0.0208333333333333" Pitch="41" RiffPosition="7.45833333333333" Velocity="52" />
      <note Length="0.0208333333333333" Pitch="44" RiffPosition="7.47916666666667" Velocity="53" />
      <note Length="0.0078125" Pitch="38" RiffPosition="7.5" Velocity="0" />
      <note Length="0.0234375" Pitch="41" RiffPosition="7.5078125" Velocity="60" />
      <note Length="0.03125" Pitch="48" RiffPosition="7.53125" Velocity="87" />
      <note Length="0.03125" Pitch="42" RiffPosition="7.5625" Velocity="90" />
      <note Length="0.03125" Pitch="46" RiffPosition="7.59375" Velocity="90" />
      <note Length="0.015625" Pitch="42" RiffPosition="7.625" Velocity="64" />
      <note Length="0.015625" Pitch="47" RiffPosition="7.640625" Velocity="42" />
      <note Length="0.03125" Pitch="40" RiffPosition="7.65625" Velocity="0" />
      <note Length="0.0104166666666667" Pitch="46" RiffPosition="7.6875" Velocity="103" />
      <note Length="0.0104166666666667" Pitch="48" RiffPosition="7.69791666666667" Velocity="117" />
      <note Length="0.0208333333333333" Pitch="36" RiffPosition="7.70833333333333" Velocity="0" />
      <note Length="0.0208333333333333" Pitch="41" RiffPosition="7.72916666666667" Velocity="127" />
      <note Length="0.0078125" Pitch="47" RiffPosition="7.75" Velocity="101" />
      <note Length="0.0234375" Pitch="50" RiffPosition="7.7578125" Velocity="91" />
      <note Length="0.03125" Pitch="45" RiffPosition="7.78125" Velocity="58" />
      <note Length="0.03125" Pitch="40" RiffPosition="7.8125" Velocity="0" />
      <note Length="0.03125" Pitch="44" RiffPosition="7.84375" Velocity="108" />
      <note Length="0.015625" Pitch="40" RiffPosition="7.875" Velocity="0" />
      <note Length="0.015625" Pitch="45" RiffPosition="7.890625" Velocity="97" />
      <note Length="0.03125" Pitch="51" RiffPosition="7.90625" Velocity="79" />
      <note Length="0.0104166666666667" Pitch="44" RiffPosition="7.9375" Velocity="42" />
      <note Length="0.0104166666666667" Pitch="45" RiffPosition="7.94791666666667" Velocity="50" />
      <note Length="0.0208333333333333" Pitch="46" RiffPosition="7.95833333333333" Velocity="62" />
      <note Length="0.0208333333333333" Pitch="37" RiffPosition="7.97916666666667" Velocity="86" />
      <note Length="0.0078125" Pitch="44" RiffPosition="8" Velocity="87" />
      <note Length="0.0234375" Pitch="46" RiffPosition="8.0078125" Velocity="86" />
      <note Length="0.03125" Pitch="41" RiffPosition="8.03125" Velocity="86" />
      <note Length="0.03125" Pitch="47" RiffPosition="8.0625" Velocity="52" />
      <note Length="0.03125" Pitch="38" RiffPosition="8.09375" Velocity="0" />
      <note Length="0.015625" Pitch="47" RiffPosition="8.125" Velocity="73" />
      <note Length="0.015625" Pitch="40" RiffPosition="8.140625" Velocity="0" />
      <note Length="0.03125" Pitch="45" RiffPosition="8.15625" Velocity="66" />
      <note Length="0.0104166666666667" Pitch="39" RiffPosition="8.1875" Velocity="0" />
      <note Length="0.0104166666666667" Pitch="41" RiffPosition="8.19791666666667" Velocity="56" />
      <note Length="0.0208333333333333" Pitch="42" RiffPosition="8.20833333333333" Velocity="44" />
      <note Length="0.0208333333333333" Pitch="46" RiffPosition="8.22916666666667" Velocity="65" />
      <note Length="0.0078125" Pitch="40" RiffPosition="8.25" Velocity="0" />
      <note Length="0.0234375" Pitch="43" RiffPosition="8.2578125" Velocity="62" />
      <note Length="0.03125" Pitch="51" RiffPosition="8.28125" Velocity="56" />
      <note Length="0.03125" Pitch="45" RiffPosition="8.3125" Velocity="48" />
      <note Length="0.03125" Pitch="37" RiffPosition="8.34375" Velocity="41" />
      <note Length="0.015625" Pitch="45" RiffPosition="8.375" Velocity="51" />
      <note Length="0.015625" Pitch="51" RiffPosition="8.390625" Velocity="51" />
      <note Length="0.03125" Pitch="43" RiffPosition="8.40625" Velocity="51" />
      <note Length="0.0104166666666667" Pitch="49" RiffPosition="8.4375" Velocity="29" />
      <note Length="0.0104166666666667" Pitch="51" RiffPosition="8.44791666666667" Velocity="52" />
      <note Length="0.0208333333333333" Pitch="39" RiffPosition="8.45833333333333" Velocity="0" />
      <note Length="0.0208333333333333" Pitch="43" RiffPosition="8.47916666666667" Velocity="53" />
      <note Length="0.0078125" Pitch="49" RiffPosition="8.5" Velocity="28" />
      <note Length="0.0234375" Pitch="39" RiffPosition="8.5078125" Velocity="0" />
      <note Length="0.03125" Pitch="46" RiffPosition="8.53125" Velocity="87" />
      <note Length="0.03125" Pitch="40" RiffPosition="8.5625" Velocity="0" />
      <note Length="0.03125" Pitch="44" RiffPosition="8.59375" Velocity="90" />
      <note Length="0.015625" Pitch="40" RiffPosition="8.625" Velocity="0" />
      <note Length="0.015625" Pitch="45" RiffPosition="8.640625" Velocity="42" />
      <note Length="0.03125" Pitch="51" RiffPosition="8.65625" Velocity="59" />
      <note Length="0.0104166666666667" Pitch="44" RiffPosition="8.6875" Velocity="103" />
      <note Length="0.0104166666666667" Pitch="46" RiffPosition="8.69791666666667" Velocity="117" />
      <note Length="0.0208333333333333" Pitch="48" RiffPosition="8.70833333333333" Velocity="122" />
      <note Length="0.0208333333333333" Pitch="39" RiffPosition="8.72916666666667" Velocity="0" />
      <note Length="0.0078125" Pitch="45" RiffPosition="8.75" Velocity="101" />
      <note Length="0.0234375" Pitch="48" RiffPosition="8.7578125" Velocity="91" />
      <note Length="0.03125" Pitch="44" RiffPosition="8.78125" Velocity="58" />
      <note Length="0.03125" Pitch="51" RiffPosition="8.8125" Velocity="65" />
      <note Length="0.03125" Pitch="43" RiffPosition="8.84375" Velocity="108" />
      <note Length="0.015625" Pitch="38" RiffPosition="8.875" Velocity="0" />
      <note Length="0.015625" Pitch="44" RiffPosition="8.890625" Velocity="97" />
      <note Length="0.03125" Pitch="48" RiffPosition="8.90625" Velocity="79" />
      <note Length="0.0104166666666667" Pitch="42" RiffPosition="8.9375" Velocity="42" />
      <note Length="0.0104166666666667" Pitch="44" RiffPosition="8.94791666666667" Velocity="50" />
      <note Length="0.0208333333333333" Pitch="44" RiffPosition="8.95833333333333" Velocity="62" />
      <note Length="0.0208333333333333" Pitch="35" RiffPosition="8.97916666666667" Velocity="0" />
      <note Length="0.0078125" Pitch="42" RiffPosition="9" Velocity="87" />
      <note Length="0.0234375" Pitch="44" RiffPosition="9.0078125" Velocity="86" />
      <note Length="0.03125" Pitch="52" RiffPosition="9.03125" Velocity="47" />
      <note Length="0.03125" Pitch="45" RiffPosition="9.0625" Velocity="52" />
      <note Length="0.03125" Pitch="36" RiffPosition="9.09375" Velocity="0" />
      <note Length="0.015625" Pitch="45" RiffPosition="9.125" Velocity="73" />
      <note Length="0.015625" Pitch="38" RiffPosition="9.140625" Velocity="0" />
      <note Length="0.03125" Pitch="44" RiffPosition="9.15625" Velocity="66" />
      <note Length="0.0104166666666667" Pitch="50" RiffPosition="9.1875" Velocity="58" />
      <note Length="0.0104166666666667" Pitch="39" RiffPosition="9.19791666666667" Velocity="0" />
      <note Length="0.0208333333333333" Pitch="40" RiffPosition="9.20833333333333" Velocity="0" />
      <note Length="0.0208333333333333" Pitch="44" RiffPosition="9.22916666666667" Velocity="65" />
      <note Length="0.0078125" Pitch="38" RiffPosition="9.25" Velocity="0" />
      <note Length="0.0234375" Pitch="41" RiffPosition="9.2578125" Velocity="62" />
      <note Length="0.03125" Pitch="49" RiffPosition="9.28125" Velocity="31" />
      <note Length="0.03125" Pitch="43" RiffPosition="9.3125" Velocity="48" />
      <note Length="0.03125" Pitch="48" RiffPosition="9.34375" Velocity="41" />
      <note Length="0.015625" Pitch="44" RiffPosition="9.375" Velocity="51" />
      <note Length="0.015625" Pitch="49" RiffPosition="9.390625" Velocity="28" />
      <note Length="0.03125" Pitch="41" RiffPosition="9.40625" Velocity="51" />
      <note Length="0.0104166666666667" Pitch="47" RiffPosition="9.4375" Velocity="52" />
      <note Length="0.0104166666666667" Pitch="49" RiffPosition="9.44791666666667" Velocity="29" />
      <note Length="0.0208333333333333" Pitch="37" RiffPosition="9.45833333333333" Velocity="52" />
      <note Length="0.0208333333333333" Pitch="41" RiffPosition="9.47916666666667" Velocity="53" />
      <note Length="0.0078125" Pitch="47" RiffPosition="9.5" Velocity="50" />
      <note Length="0.0234375" Pitch="50" RiffPosition="9.5078125" Velocity="60" />
      <note Length="0.03125" Pitch="44" RiffPosition="9.53125" Velocity="87" />
      <note Length="0.03125" Pitch="51" RiffPosition="9.5625" Velocity="90" />
      <note Length="0.03125" Pitch="42" RiffPosition="9.59375" Velocity="90" />
      <note Length="0.015625" Pitch="37" RiffPosition="9.625" Velocity="64" />
      <note Length="0.015625" Pitch="44" RiffPosition="9.640625" Velocity="42" />
      <note Length="0.03125" Pitch="49" RiffPosition="9.65625" Velocity="32" />
      <note Length="0.0104166666666667" Pitch="43" RiffPosition="9.6875" Velocity="103" />
      <note Length="0.0104166666666667" Pitch="44" RiffPosition="9.69791666666667" Velocity="117" />
      <note Length="0.0208333333333333" Pitch="45" RiffPosition="9.70833333333333" Velocity="122" />
      <note Length="0.0208333333333333" Pitch="37" RiffPosition="9.72916666666667" Velocity="127" />
      <note Length="0.0078125" Pitch="44" RiffPosition="9.75" Velocity="101" />
      <note Length="0.0234375" Pitch="46" RiffPosition="9.7578125" Velocity="91" />
      <note Length="0.03125" Pitch="42" RiffPosition="9.78125" Velocity="58" />
      <note Length="0.03125" Pitch="49" RiffPosition="9.8125" Velocity="36" />
      <note Length="0.03125" Pitch="41" RiffPosition="9.84375" Velocity="108" />
      <note Length="0.015625" Pitch="49" RiffPosition="9.875" Velocity="63" />
      <note Length="0.015625" Pitch="42" RiffPosition="9.890625" Velocity="97" />
      <note Length="0.03125" Pitch="46" RiffPosition="9.90625" Velocity="79" />
      <note Length="0.0104166666666667" Pitch="40" RiffPosition="9.9375" Velocity="0" />
      <note Length="0.0104166666666667" Pitch="41" RiffPosition="9.94791666666667" Velocity="50" />
      <note Length="0.0208333333333333" Pitch="43" RiffPosition="9.95833333333333" Velocity="62" />
      <note Length="0.0208333333333333" Pitch="46" RiffPosition="9.97916666666667" Velocity="86" />
      <note Length="0.0078125" Pitch="39" RiffPosition="10" Velocity="0" />
      <note Length="0.0234375" Pitch="42" RiffPosition="10.0078125" Velocity="86" />
      <note Length="0.03125" Pitch="50" RiffPosition="10.03125" Velocity="86" />
      <note Length="0.03125" Pitch="44" RiffPosition="10.0625" Velocity="52" />
      <note Length="0.03125" Pitch="34" RiffPosition="10.09375" Velocity="64" />
      <note Length="0.015625" Pitch="44" RiffPosition="10.125" Velocity="73" />
      <note Length="0.015625" Pitch="49" RiffPosition="10.140625" Velocity="38" />
      <note Length="0.03125" Pitch="41" RiffPosition="10.15625" Velocity="66" />
      <note Length="0.0104166666666667" Pitch="48" RiffPosition="10.1875" Velocity="58" />
      <note Length="0.0104166666666667" Pitch="50" RiffPosition="10.1979166666667" Velocity="56" />
      <note Length="0.0208333333333333" Pitch="38" RiffPosition="10.2083333333333" Velocity="0" />
      <note Length="0.0208333333333333" Pitch="43" RiffPosition="10.2291666666667" Velocity="65" />
      <note Length="0.0078125" Pitch="49" RiffPosition="10.25" Velocity="35" />
      <note Length="0.0234375" Pitch="39" RiffPosition="10.2578125" Velocity="0" />
      <note Length="0.03125" Pitch="47" RiffPosition="10.28125" Velocity="56" />
      <note Length="0.03125" Pitch="41" RiffPosition="10.3125" Velocity="48" />
      <note Length="0.03125" Pitch="46" RiffPosition="10.34375" Velocity="41" />
      <note Length="0.015625" Pitch="42" RiffPosition="10.375" Velocity="51" />
      <note Length="0.015625" Pitch="47" RiffPosition="10.390625" Velocity="51" />
      <note Length="0.03125" Pitch="52" RiffPosition="10.40625" Velocity="28" />
      <note Length="0.0104166666666667" Pitch="45" RiffPosition="10.4375" Velocity="52" />
      <note Length="0.0104166666666667" Pitch="46" RiffPosition="10.4479166666667" Velocity="52" />
      <note Length="0.0208333333333333" Pitch="48" RiffPosition="10.4583333333333" Velocity="52" />
      <note Length="0.0208333333333333" Pitch="39" RiffPosition="10.4791666666667" Velocity="0" />
      <note Length="0.0078125" Pitch="45" RiffPosition="10.5" Velocity="50" />
      <note Length="0.0234375" Pitch="48" RiffPosition="10.5078125" Velocity="60" />
      <note Length="0.03125" Pitch="43" RiffPosition="10.53125" Velocity="87" />
      <note Length="0.03125" Pitch="49" RiffPosition="10.5625" Velocity="50" />
      <note Length="0.03125" Pitch="40" RiffPosition="10.59375" Velocity="0" />
      <note Length="0.015625" Pitch="35" RiffPosition="10.625" Velocity="0" />
      <note Length="0.015625" Pitch="42" RiffPosition="10.640625" Velocity="42" />
      <note Length="0.03125" Pitch="47" RiffPosition="10.65625" Velocity="59" />
      <note Length="0.0104166666666667" Pitch="41" RiffPosition="10.6875" Velocity="103" />
      <note Length="0.0104166666666667" Pitch="43" RiffPosition="10.6979166666667" Velocity="117" />
      <note Length="0.0208333333333333" Pitch="44" RiffPosition="10.7083333333333" Velocity="122" />
      <note Length="0.0208333333333333" Pitch="48" RiffPosition="10.7291666666667" Velocity="127" />
      <note Length="0.0078125" Pitch="42" RiffPosition="10.75" Velocity="101" />
      <note Length="0.0234375" Pitch="44" RiffPosition="10.7578125" Velocity="91" />
      <note Length="0.03125" Pitch="53" RiffPosition="10.78125" Velocity="58" />
      <note Length="0.03125" Pitch="46" RiffPosition="10.8125" Velocity="65" />
      <note Length="0.03125" Pitch="38" RiffPosition="10.84375" Velocity="0" />
      <note Length="0.015625" Pitch="47" RiffPosition="10.875" Velocity="115" />
      <note Length="0.015625" Pitch="40" RiffPosition="10.890625" Velocity="0" />
      <note Length="0.03125" Pitch="44" RiffPosition="10.90625" Velocity="79" />
      <note Length="0.0104166666666667" Pitch="51" RiffPosition="10.9375" Velocity="42" />
      <note Length="0.0104166666666667" Pitch="39" RiffPosition="10.9479166666667" Velocity="0" />
      <note Length="0.0208333333333333" Pitch="41" RiffPosition="10.9583333333333" Velocity="62" />
      <note Length="0.0208333333333333" Pitch="44" RiffPosition="10.9791666666667" Velocity="86" />
      <note Length="0.0078125" Pitch="37" RiffPosition="11" Velocity="87" />
      <note Length="0.0234375" Pitch="40" RiffPosition="11.0078125" Velocity="0" />
      <note Length="0.03125" Pitch="48" RiffPosition="11.03125" Velocity="86" />
      <note Length="0.03125" Pitch="42" RiffPosition="11.0625" Velocity="52" />
      <note Length="0.03125" Pitch="45" RiffPosition="11.09375" Velocity="64" />
      <note Length="0.015625" Pitch="41" RiffPosition="11.125" Velocity="73" />
      <note Length="0.015625" Pitch="47" RiffPosition="11.140625" Velocity="70" />
      <note Length="0.03125" Pitch="39" RiffPosition="11.15625" Velocity="0" />
      <note Length="0.0104166666666667" Pitch="46" RiffPosition="11.1875" Velocity="58" />
      <note Length="0.0104166666666667" Pitch="48" RiffPosition="11.1979166666667" Velocity="56" />
      <note Length="0.0208333333333333" Pitch="36" RiffPosition="11.2083333333333" Velocity="0" />
      <note Length="0.0208333333333333" Pitch="41" RiffPosition="11.2291666666667" Velocity="65" />
      <note Length="0.0078125" Pitch="47" RiffPosition="11.25" Velocity="64" />
      <note Length="0.0234375" Pitch="50" RiffPosition="11.2578125" Velocity="62" />
      <note Length="0.03125" Pitch="45" RiffPosition="11.28125" Velocity="56" />
      <note Length="0.03125" Pitch="52" RiffPosition="11.3125" Velocity="26" />
      <note Length="0.03125" Pitch="44" RiffPosition="11.34375" Velocity="41" />
      <note Length="0.015625" Pitch="40" RiffPosition="11.375" Velocity="0" />
      <note Length="0.015625" Pitch="45" RiffPosition="11.390625" Velocity="51" />
      <note Length="0.03125" Pitch="50" RiffPosition="11.40625" Velocity="51" />
      <note Length="0.0104166666666667" Pitch="44" RiffPosition="11.4375" Velocity="52" />
      <note Length="0.0104166666666667" Pitch="44" RiffPosition="11.4479166666667" Velocity="52" />
      <note Length="0.0208333333333333" Pitch="46" RiffPosition="11.4583333333333" Velocity="52" />
      <note Length="0.0208333333333333" Pitch="37" RiffPosition="11.4791666666667" Velocity="53" />
      <note Length="0.0078125" Pitch="43" RiffPosition="11.5" Velocity="50" />
      <note Length="0.0234375" Pitch="45" RiffPosition="11.5078125" Velocity="60" />
      <note Length="0.03125" Pitch="41" RiffPosition="11.53125" Velocity="87" />
      <note Length="0.03125" Pitch="47" RiffPosition="11.5625" Velocity="90" />
      <note Length="0.03125" Pitch="38" RiffPosition="11.59375" Velocity="0" />
      <note Length="0.015625" Pitch="46" RiffPosition="11.625" Velocity="64" />
      <note Length="0.015625" Pitch="39" RiffPosition="11.640625" Velocity="0" />
      <note Length="0.03125" Pitch="44" RiffPosition="11.65625" Velocity="59" />
      <note Length="0.0104166666666667" Pitch="39" RiffPosition="11.6875" Velocity="0" />
      <note Length="0.0104166666666667" Pitch="40" RiffPosition="11.6979166666667" Velocity="0" />
      <note Length="0.0208333333333333" Pitch="42" RiffPosition="11.7083333333333" Velocity="122" />
      <note Length="0.0208333333333333" Pitch="46" RiffPosition="11.7291666666667" Velocity="127" />
      <note Length="0.0078125" Pitch="40" RiffPosition="11.75" Velocity="0" />
      <note Length="0.0234375" Pitch="43" RiffPosition="11.7578125" Velocity="91" />
      <note Length="0.03125" Pitch="51" RiffPosition="11.78125" Velocity="58" />
      <note Length="0.03125" Pitch="44" RiffPosition="11.8125" Velocity="65" />
      <note Length="0.03125" Pitch="50" RiffPosition="11.84375" Velocity="108" />
      <note Length="0.015625" Pitch="45" RiffPosition="11.875" Velocity="115" />
      <note Length="0.015625" Pitch="51" RiffPosition="11.890625" Velocity="97" />
      <note Length="0.03125" Pitch="43" RiffPosition="11.90625" Velocity="79" />
      <note Length="0.0104166666666667" Pitch="49" RiffPosition="11.9375" Velocity="23" />
      <note Length="0.0104166666666667" Pitch="50" RiffPosition="11.9479166666667" Velocity="50" />
      <note Length="0.0208333333333333" Pitch="39" RiffPosition="11.9583333333333" Velocity="0" />
      <note Length="0.0208333333333333" Pitch="43" RiffPosition="11.9791666666667" Velocity="86" />
    </riff>
    <riff IsDrum="True" MidiInstrument="0" Tempo="73" Length="12">
      <note Length="0.0208333333333333" Pitch="34" RiffPosition="0" Velocity="0" />
      <note Length="0.0208333333333333" Pitch="34" RiffPosition="0.0208333333333333" Velocity="0" />
      <note Length="0.0208333333333333" Pitch="42" RiffPosition="0.0416666666666667" Velocity="0" />
      <note Length="0.015625" Pitch="43" RiffPosition="0.0625" Velocity="0" />
      <note Length="0.015625" Pitch="50" RiffPosition="0.078125" Velocity="0" />
      <note Length="0.015625" Pitch="51" RiffPosition="0.09375" Velocity="0" />
      <note Length="0.015625" Pitch="51" RiffPosition="0.109375" Velocity="0" />
      <note Length="0.015625" Pitch="52" RiffPosition="0.125" Velocity="0" />
      <note Length="0.015625" Pitch="53" RiffPosition="0.140625" Velocity="0" />
      <note Length="0.0104166666666667" Pitch="53" RiffPosition="0.15625" Velocity="0" />
      <note Length="0.0104166666666667" Pitch="45" RiffPosition="0.166666666666667" Velocity="0" />
      <note Length="0.0104166666666667" Pitch="45" RiffPosition="0.177083333333333" Velocity="0" />
      <note Length="0.015625" Pitch="45" RiffPosition="0.1875" Velocity="0" />
      <note Length="0.015625" Pitch="38" RiffPosition="0.203125" Velocity="0" />
      <note Length="0.0104166666666667" Pitch="38" RiffPosition="0.21875" Velocity="0" />
      <note Length="0.0104166666666667" Pitch="38" RiffPosition="0.229166666666667" Velocity="0" />
      <note Length="0.0104166666666667" Pitch="38" RiffPosition="0.239583333333333" Velocity="0" />
      <note Length="0.015625" Pitch="38" RiffPosition="0.25" Velocity="0" />
      <note Length="0.015625" Pitch="38" RiffPosition="0.265625" Velocity="0" />
      <note Length="0.015625" Pitch="37" RiffPosition="0.28125" Velocity="0" />
      <note Length="0.015625" Pitch="44" RiffPosition="0.296875" Velocity="0" />
      <note Length="0.0208333333333333" Pitch="44" RiffPosition="0.3125" Velocity="0" />
      <note Length="0.0208333333333333" Pitch="52" RiffPosition="0.333333333333333" Velocity="0" />
      <note Length="0.0208333333333333" Pitch="52" RiffPosition="0.354166666666667" Velocity="0" />
      <note Length="0.03125" Pitch="52" RiffPosition="0.375" Velocity="0" />
      <note Length="0.015625" Pitch="52" RiffPosition="0.40625" Velocity="0" />
      <note Length="0.015625" Pitch="44" RiffPosition="0.421875" Velocity="0" />
      <note Length="0.015625" Pitch="44" RiffPosition="0.4375" Velocity="0" />
      <note Length="0.015625" Pitch="37" RiffPosition="0.453125" Velocity="0" />
      <note Length="0.0234375" Pitch="37" RiffPosition="0.46875" Velocity="0" />
      <note Length="0.0078125" Pitch="37" RiffPosition="0.4921875" Velocity="0" />
      <note Length="0.0208333333333333" Pitch="36" RiffPosition="0.5" Velocity="0" />
      <note Length="0.0208333333333333" Pitch="36" RiffPosition="0.520833333333333" Velocity="0" />
      <note Length="0.0208333333333333" Pitch="43" RiffPosition="0.541666666666667" Velocity="0" />
      <note Length="0.015625" Pitch="43" RiffPosition="0.5625" Velocity="0" />
      <note Length="0.015625" Pitch="49" RiffPosition="0.578125" Velocity="0" />
      <note Length="0.015625" Pitch="49" RiffPosition="0.59375" Velocity="0" />
      <note Length="0.015625" Pitch="49" RiffPosition="0.609375" Velocity="0" />
      <note Length="0.015625" Pitch="49" RiffPosition="0.625" Velocity="0" />
      <note Length="0.015625" Pitch="49" RiffPosition="0.640625" Velocity="0" />
      <note Length="0.0104166666666667" Pitch="50" RiffPosition="0.65625" Velocity="0" />
      <note Length="0.0104166666666667" Pitch="43" RiffPosition="0.666666666666667" Velocity="0" />
      <note Length="0.0104166666666667" Pitch="44" RiffPosition="0.677083333333333" Velocity="0" />
      <note Length="0.015625" Pitch="44" RiffPosition="0.6875" Velocity="0" />
      <note Length="0.015625" Pitch="37" RiffPosition="0.703125" Velocity="0" />
      <note Length="0.0104166666666667" Pitch="38" RiffPosition="0.71875" Velocity="0" />
      <note Length="0.0104166666666667" Pitch="38" RiffPosition="0.729166666666667" Velocity="0" />
      <note Length="0.0104166666666667" Pitch="38" RiffPosition="0.739583333333333" Velocity="0" />
      <note Length="0.015625" Pitch="39" RiffPosition="0.75" Velocity="0" />
      <note Length="0.015625" Pitch="39" RiffPosition="0.765625" Velocity="0" />
      <note Length="0.015625" Pitch="40" RiffPosition="0.78125" Velocity="0" />
      <note Length="0.015625" Pitch="47" RiffPosition="0.796875" Velocity="0" />
      <note Length="0.0208333333333333" Pitch="47" RiffPosition="0.8125" Velocity="0" />
      <note Length="0.0208333333333333" Pitch="54" RiffPosition="0.833333333333333" Velocity="0" />
      <note Length="0.0208333333333333" Pitch="54" RiffPosition="0.854166666666667" Velocity="0" />
      <note Length="0.03125" Pitch="53" RiffPosition="0.875" Velocity="0" />
      <note Length="0.015625" Pitch="51" RiffPosition="0.90625" Velocity="0" />
      <note Length="0.015625" Pitch="44" RiffPosition="0.921875" Velocity="0" />
      <note Length="0.015625" Pitch="43" RiffPosition="0.9375" Velocity="0" />
      <note Length="0.015625" Pitch="34" RiffPosition="0.953125" Velocity="0" />
      <note Length="0.0234375" Pitch="34" RiffPosition="0.96875" Velocity="0" />
      <note Length="0.0078125" Pitch="34" RiffPosition="0.9921875" Velocity="0" />
      <note Length="0.0208333333333333" Pitch="34" RiffPosition="1" Velocity="0" />
      <note Length="0.0208333333333333" Pitch="34" RiffPosition="1.02083333333333" Velocity="0" />
      <note Length="0.0208333333333333" Pitch="42" RiffPosition="1.04166666666667" Velocity="0" />
      <note Length="0.015625" Pitch="43" RiffPosition="1.0625" Velocity="0" />
      <note Length="0.015625" Pitch="50" RiffPosition="1.078125" Velocity="0" />
      <note Length="0.015625" Pitch="51" RiffPosition="1.09375" Velocity="0" />
      <note Length="0.015625" Pitch="51" RiffPosition="1.109375" Velocity="0" />
      <note Length="0.015625" Pitch="52" RiffPosition="1.125" Velocity="0" />
      <note Length="0.015625" Pitch="53" RiffPosition="1.140625" Velocity="0" />
      <note Length="0.0104166666666667" Pitch="53" RiffPosition="1.15625" Velocity="0" />
      <note Length="0.0104166666666667" Pitch="45" RiffPosition="1.16666666666667" Velocity="0" />
      <note Length="0.0104166666666667" Pitch="45" RiffPosition="1.17708333333333" Velocity="0" />
      <note Length="0.015625" Pitch="45" RiffPosition="1.1875" Velocity="0" />
      <note Length="0.015625" Pitch="38" RiffPosition="1.203125" Velocity="0" />
      <note Length="0.0104166666666667" Pitch="38" RiffPosition="1.21875" Velocity="0" />
      <note Length="0.0104166666666667" Pitch="38" RiffPosition="1.22916666666667" Velocity="0" />
      <note Length="0.0104166666666667" Pitch="38" RiffPosition="1.23958333333333" Velocity="0" />
      <note Length="0.015625" Pitch="38" RiffPosition="1.25" Velocity="0" />
      <note Length="0.015625" Pitch="38" RiffPosition="1.265625" Velocity="0" />
      <note Length="0.015625" Pitch="37" RiffPosition="1.28125" Velocity="0" />
      <note Length="0.015625" Pitch="44" RiffPosition="1.296875" Velocity="0" />
      <note Length="0.0208333333333333" Pitch="44" RiffPosition="1.3125" Velocity="0" />
      <note Length="0.0208333333333333" Pitch="52" RiffPosition="1.33333333333333" Velocity="0" />
      <note Length="0.0208333333333333" Pitch="52" RiffPosition="1.35416666666667" Velocity="0" />
      <note Length="0.03125" Pitch="52" RiffPosition="1.375" Velocity="0" />
      <note Length="0.015625" Pitch="52" RiffPosition="1.40625" Velocity="0" />
      <note Length="0.015625" Pitch="44" RiffPosition="1.421875" Velocity="0" />
      <note Length="0.015625" Pitch="44" RiffPosition="1.4375" Velocity="0" />
      <note Length="0.015625" Pitch="37" RiffPosition="1.453125" Velocity="0" />
      <note Length="0.0234375" Pitch="37" RiffPosition="1.46875" Velocity="0" />
      <note Length="0.0078125" Pitch="37" RiffPosition="1.4921875" Velocity="0" />
      <note Length="0.0208333333333333" Pitch="36" RiffPosition="1.5" Velocity="0" />
      <note Length="0.0208333333333333" Pitch="36" RiffPosition="1.52083333333333" Velocity="0" />
      <note Length="0.0208333333333333" Pitch="43" RiffPosition="1.54166666666667" Velocity="0" />
      <note Length="0.015625" Pitch="43" RiffPosition="1.5625" Velocity="0" />
      <note Length="0.015625" Pitch="49" RiffPosition="1.578125" Velocity="0" />
      <note Length="0.015625" Pitch="49" RiffPosition="1.59375" Velocity="0" />
      <note Length="0.015625" Pitch="49" RiffPosition="1.609375" Velocity="0" />
      <note Length="0.015625" Pitch="49" RiffPosition="1.625" Velocity="0" />
      <note Length="0.015625" Pitch="49" RiffPosition="1.640625" Velocity="0" />
      <note Length="0.0104166666666667" Pitch="50" RiffPosition="1.65625" Velocity="0" />
      <note Length="0.0104166666666667" Pitch="43" RiffPosition="1.66666666666667" Velocity="0" />
      <note Length="0.0104166666666667" Pitch="44" RiffPosition="1.67708333333333" Velocity="0" />
      <note Length="0.015625" Pitch="44" RiffPosition="1.6875" Velocity="0" />
      <note Length="0.015625" Pitch="37" RiffPosition="1.703125" Velocity="0" />
      <note Length="0.0104166666666667" Pitch="38" RiffPosition="1.71875" Velocity="0" />
      <note Length="0.0104166666666667" Pitch="38" RiffPosition="1.72916666666667" Velocity="0" />
      <note Length="0.0104166666666667" Pitch="38" RiffPosition="1.73958333333333" Velocity="0" />
      <note Length="0.015625" Pitch="39" RiffPosition="1.75" Velocity="0" />
      <note Length="0.015625" Pitch="39" RiffPosition="1.765625" Velocity="0" />
      <note Length="0.015625" Pitch="40" RiffPosition="1.78125" Velocity="0" />
      <note Length="0.015625" Pitch="47" RiffPosition="1.796875" Velocity="0" />
      <note Length="0.0208333333333333" Pitch="47" RiffPosition="1.8125" Velocity="0" />
      <note Length="0.0208333333333333" Pitch="54" RiffPosition="1.83333333333333" Velocity="0" />
      <note Length="0.0208333333333333" Pitch="54" RiffPosition="1.85416666666667" Velocity="0" />
      <note Length="0.03125" Pitch="53" RiffPosition="1.875" Velocity="0" />
      <note Length="0.015625" Pitch="51" RiffPosition="1.90625" Velocity="0" />
      <note Length="0.015625" Pitch="44" RiffPosition="1.921875" Velocity="0" />
      <note Length="0.015625" Pitch="43" RiffPosition="1.9375" Velocity="0" />
      <note Length="0.015625" Pitch="34" RiffPosition="1.953125" Velocity="0" />
      <note Length="0.0234375" Pitch="34" RiffPosition="1.96875" Velocity="0" />
      <note Length="0.0078125" Pitch="34" RiffPosition="1.9921875" Velocity="0" />
      <note Length="0.0208333333333333" Pitch="34" RiffPosition="2" Velocity="0" />
      <note Length="0.0208333333333333" Pitch="34" RiffPosition="2.02083333333333" Velocity="0" />
      <note Length="0.0208333333333333" Pitch="42" RiffPosition="2.04166666666667" Velocity="0" />
      <note Length="0.015625" Pitch="43" RiffPosition="2.0625" Velocity="0" />
      <note Length="0.015625" Pitch="50" RiffPosition="2.078125" Velocity="0" />
      <note Length="0.015625" Pitch="51" RiffPosition="2.09375" Velocity="0" />
      <note Length="0.015625" Pitch="51" RiffPosition="2.109375" Velocity="0" />
      <note Length="0.015625" Pitch="52" RiffPosition="2.125" Velocity="0" />
      <note Length="0.015625" Pitch="53" RiffPosition="2.140625" Velocity="0" />
      <note Length="0.0104166666666667" Pitch="53" RiffPosition="2.15625" Velocity="0" />
      <note Length="0.0104166666666667" Pitch="45" RiffPosition="2.16666666666667" Velocity="0" />
      <note Length="0.0104166666666667" Pitch="45" RiffPosition="2.17708333333333" Velocity="0" />
      <note Length="0.015625" Pitch="45" RiffPosition="2.1875" Velocity="0" />
      <note Length="0.015625" Pitch="38" RiffPosition="2.203125" Velocity="0" />
      <note Length="0.0104166666666667" Pitch="38" RiffPosition="2.21875" Velocity="0" />
      <note Length="0.0104166666666667" Pitch="38" RiffPosition="2.22916666666667" Velocity="0" />
      <note Length="0.0104166666666667" Pitch="38" RiffPosition="2.23958333333333" Velocity="0" />
      <note Length="0.015625" Pitch="38" RiffPosition="2.25" Velocity="0" />
      <note Length="0.015625" Pitch="38" RiffPosition="2.265625" Velocity="0" />
      <note Length="0.015625" Pitch="37" RiffPosition="2.28125" Velocity="0" />
      <note Length="0.015625" Pitch="44" RiffPosition="2.296875" Velocity="0" />
      <note Length="0.0208333333333333" Pitch="44" RiffPosition="2.3125" Velocity="0" />
      <note Length="0.0208333333333333" Pitch="52" RiffPosition="2.33333333333333" Velocity="0" />
      <note Length="0.0208333333333333" Pitch="52" RiffPosition="2.35416666666667" Velocity="0" />
      <note Length="0.03125" Pitch="52" RiffPosition="2.375" Velocity="0" />
      <note Length="0.015625" Pitch="52" RiffPosition="2.40625" Velocity="0" />
      <note Length="0.015625" Pitch="44" RiffPosition="2.421875" Velocity="0" />
      <note Length="0.015625" Pitch="44" RiffPosition="2.4375" Velocity="0" />
      <note Length="0.015625" Pitch="37" RiffPosition="2.453125" Velocity="0" />
      <note Length="0.0234375" Pitch="37" RiffPosition="2.46875" Velocity="0" />
      <note Length="0.0078125" Pitch="37" RiffPosition="2.4921875" Velocity="0" />
      <note Length="0.0208333333333333" Pitch="36" RiffPosition="2.5" Velocity="0" />
      <note Length="0.0208333333333333" Pitch="36" RiffPosition="2.52083333333333" Velocity="0" />
      <note Length="0.0208333333333333" Pitch="43" RiffPosition="2.54166666666667" Velocity="0" />
      <note Length="0.015625" Pitch="43" RiffPosition="2.5625" Velocity="0" />
      <note Length="0.015625" Pitch="49" RiffPosition="2.578125" Velocity="0" />
      <note Length="0.015625" Pitch="49" RiffPosition="2.59375" Velocity="0" />
      <note Length="0.015625" Pitch="49" RiffPosition="2.609375" Velocity="0" />
      <note Length="0.015625" Pitch="49" RiffPosition="2.625" Velocity="0" />
      <note Length="0.015625" Pitch="49" RiffPosition="2.640625" Velocity="0" />
      <note Length="0.0104166666666667" Pitch="50" RiffPosition="2.65625" Velocity="0" />
      <note Length="0.0104166666666667" Pitch="43" RiffPosition="2.66666666666667" Velocity="0" />
      <note Length="0.0104166666666667" Pitch="44" RiffPosition="2.67708333333333" Velocity="0" />
      <note Length="0.015625" Pitch="44" RiffPosition="2.6875" Velocity="0" />
      <note Length="0.015625" Pitch="37" RiffPosition="2.703125" Velocity="0" />
      <note Length="0.0104166666666667" Pitch="38" RiffPosition="2.71875" Velocity="0" />
      <note Length="0.0104166666666667" Pitch="38" RiffPosition="2.72916666666667" Velocity="0" />
      <note Length="0.0104166666666667" Pitch="38" RiffPosition="2.73958333333333" Velocity="0" />
      <note Length="0.015625" Pitch="39" RiffPosition="2.75" Velocity="0" />
      <note Length="0.015625" Pitch="39" RiffPosition="2.765625" Velocity="0" />
      <note Length="0.015625" Pitch="40" RiffPosition="2.78125" Velocity="0" />
      <note Length="0.015625" Pitch="47" RiffPosition="2.796875" Velocity="0" />
      <note Length="0.0208333333333333" Pitch="47" RiffPosition="2.8125" Velocity="0" />
      <note Length="0.0208333333333333" Pitch="54" RiffPosition="2.83333333333333" Velocity="0" />
      <note Length="0.0208333333333333" Pitch="54" RiffPosition="2.85416666666667" Velocity="0" />
      <note Length="0.03125" Pitch="53" RiffPosition="2.875" Velocity="0" />
      <note Length="0.015625" Pitch="51" RiffPosition="2.90625" Velocity="0" />
      <note Length="0.015625" Pitch="44" RiffPosition="2.921875" Velocity="0" />
      <note Length="0.015625" Pitch="43" RiffPosition="2.9375" Velocity="0" />
      <note Length="0.015625" Pitch="34" RiffPosition="2.953125" Velocity="0" />
      <note Length="0.0234375" Pitch="34" RiffPosition="2.96875" Velocity="0" />
      <note Length="0.0078125" Pitch="34" RiffPosition="2.9921875" Velocity="0" />
      <note Length="0.0208333333333333" Pitch="34" RiffPosition="3" Velocity="0" />
      <note Length="0.0208333333333333" Pitch="34" RiffPosition="3.02083333333333" Velocity="0" />
      <note Length="0.0208333333333333" Pitch="42" RiffPosition="3.04166666666667" Velocity="0" />
      <note Length="0.015625" Pitch="43" RiffPosition="3.0625" Velocity="0" />
      <note Length="0.015625" Pitch="50" RiffPosition="3.078125" Velocity="0" />
      <note Length="0.015625" Pitch="51" RiffPosition="3.09375" Velocity="0" />
      <note Length="0.015625" Pitch="51" RiffPosition="3.109375" Velocity="0" />
      <note Length="0.015625" Pitch="52" RiffPosition="3.125" Velocity="0" />
      <note Length="0.015625" Pitch="53" RiffPosition="3.140625" Velocity="0" />
      <note Length="0.0104166666666667" Pitch="53" RiffPosition="3.15625" Velocity="0" />
      <note Length="0.0104166666666667" Pitch="45" RiffPosition="3.16666666666667" Velocity="0" />
      <note Length="0.0104166666666667" Pitch="45" RiffPosition="3.17708333333333" Velocity="0" />
      <note Length="0.015625" Pitch="45" RiffPosition="3.1875" Velocity="0" />
      <note Length="0.015625" Pitch="38" RiffPosition="3.203125" Velocity="0" />
      <note Length="0.0104166666666667" Pitch="38" RiffPosition="3.21875" Velocity="0" />
      <note Length="0.0104166666666667" Pitch="38" RiffPosition="3.22916666666667" Velocity="0" />
      <note Length="0.0104166666666667" Pitch="38" RiffPosition="3.23958333333333" Velocity="0" />
      <note Length="0.015625" Pitch="38" RiffPosition="3.25" Velocity="0" />
      <note Length="0.015625" Pitch="38" RiffPosition="3.265625" Velocity="0" />
      <note Length="0.015625" Pitch="37" RiffPosition="3.28125" Velocity="0" />
      <note Length="0.015625" Pitch="44" RiffPosition="3.296875" Velocity="0" />
      <note Length="0.0208333333333333" Pitch="44" RiffPosition="3.3125" Velocity="0" />
      <note Length="0.0208333333333333" Pitch="52" RiffPosition="3.33333333333333" Velocity="0" />
      <note Length="0.0208333333333333" Pitch="52" RiffPosition="3.35416666666667" Velocity="0" />
      <note Length="0.03125" Pitch="52" RiffPosition="3.375" Velocity="0" />
      <note Length="0.015625" Pitch="52" RiffPosition="3.40625" Velocity="0" />
      <note Length="0.015625" Pitch="44" RiffPosition="3.421875" Velocity="0" />
      <note Length="0.015625" Pitch="44" RiffPosition="3.4375" Velocity="0" />
      <note Length="0.015625" Pitch="37" RiffPosition="3.453125" Velocity="0" />
      <note Length="0.0234375" Pitch="37" RiffPosition="3.46875" Velocity="0" />
      <note Length="0.0078125" Pitch="37" RiffPosition="3.4921875" Velocity="0" />
      <note Length="0.0208333333333333" Pitch="36" RiffPosition="3.5" Velocity="0" />
      <note Length="0.0208333333333333" Pitch="36" RiffPosition="3.52083333333333" Velocity="0" />
      <note Length="0.0208333333333333" Pitch="43" RiffPosition="3.54166666666667" Velocity="0" />
      <note Length="0.015625" Pitch="43" RiffPosition="3.5625" Velocity="0" />
      <note Length="0.015625" Pitch="49" RiffPosition="3.578125" Velocity="0" />
      <note Length="0.015625" Pitch="49" RiffPosition="3.59375" Velocity="0" />
      <note Length="0.015625" Pitch="49" RiffPosition="3.609375" Velocity="0" />
      <note Length="0.015625" Pitch="49" RiffPosition="3.625" Velocity="0" />
      <note Length="0.015625" Pitch="49" RiffPosition="3.640625" Velocity="0" />
      <note Length="0.0104166666666667" Pitch="50" RiffPosition="3.65625" Velocity="0" />
      <note Length="0.0104166666666667" Pitch="43" RiffPosition="3.66666666666667" Velocity="0" />
      <note Length="0.0104166666666667" Pitch="44" RiffPosition="3.67708333333333" Velocity="0" />
      <note Length="0.015625" Pitch="44" RiffPosition="3.6875" Velocity="0" />
      <note Length="0.015625" Pitch="37" RiffPosition="3.703125" Velocity="0" />
      <note Length="0.0104166666666667" Pitch="38" RiffPosition="3.71875" Velocity="0" />
      <note Length="0.0104166666666667" Pitch="38" RiffPosition="3.72916666666667" Velocity="0" />
      <note Length="0.0104166666666667" Pitch="38" RiffPosition="3.73958333333333" Velocity="0" />
      <note Length="0.015625" Pitch="39" RiffPosition="3.75" Velocity="0" />
      <note Length="0.015625" Pitch="39" RiffPosition="3.765625" Velocity="0" />
      <note Length="0.015625" Pitch="40" RiffPosition="3.78125" Velocity="0" />
      <note Length="0.015625" Pitch="47" RiffPosition="3.796875" Velocity="0" />
      <note Length="0.0208333333333333" Pitch="47" RiffPosition="3.8125" Velocity="0" />
      <note Length="0.0208333333333333" Pitch="54" RiffPosition="3.83333333333333" Velocity="0" />
      <note Length="0.0208333333333333" Pitch="54" RiffPosition="3.85416666666667" Velocity="0" />
      <note Length="0.03125" Pitch="53" RiffPosition="3.875" Velocity="0" />
      <note Length="0.015625" Pitch="51" RiffPosition="3.90625" Velocity="0" />
      <note Length="0.015625" Pitch="44" RiffPosition="3.921875" Velocity="0" />
      <note Length="0.015625" Pitch="43" RiffPosition="3.9375" Velocity="0" />
      <note Length="0.015625" Pitch="34" RiffPosition="3.953125" Velocity="0" />
      <note Length="0.0234375" Pitch="34" RiffPosition="3.96875" Velocity="0" />
      <note Length="0.0078125" Pitch="34" RiffPosition="3.9921875" Velocity="0" />
      <note Length="0.0208333333333333" Pitch="34" RiffPosition="4" Velocity="71" />
      <note Length="0.0208333333333333" Pitch="34" RiffPosition="4.02083333333333" Velocity="87" />
      <note Length="0.0208333333333333" Pitch="42" RiffPosition="4.04166666666667" Velocity="76" />
      <note Length="0.015625" Pitch="43" RiffPosition="4.0625" Velocity="69" />
      <note Length="0.015625" Pitch="50" RiffPosition="4.078125" Velocity="43" />
      <note Length="0.015625" Pitch="51" RiffPosition="4.09375" Velocity="56" />
      <note Length="0.015625" Pitch="51" RiffPosition="4.109375" Velocity="40" />
      <note Length="0.015625" Pitch="52" RiffPosition="4.125" Velocity="34" />
      <note Length="0.015625" Pitch="53" RiffPosition="4.140625" Velocity="100" />
      <note Length="0.0104166666666667" Pitch="53" RiffPosition="4.15625" Velocity="119" />
      <note Length="0.0104166666666667" Pitch="45" RiffPosition="4.16666666666667" Velocity="116" />
      <note Length="0.0104166666666667" Pitch="45" RiffPosition="4.17708333333333" Velocity="71" />
      <note Length="0.015625" Pitch="45" RiffPosition="4.1875" Velocity="49" />
      <note Length="0.015625" Pitch="38" RiffPosition="4.203125" Velocity="0" />
      <note Length="0.0104166666666667" Pitch="38" RiffPosition="4.21875" Velocity="0" />
      <note Length="0.0104166666666667" Pitch="38" RiffPosition="4.22916666666667" Velocity="0" />
      <note Length="0.0104166666666667" Pitch="38" RiffPosition="4.23958333333333" Velocity="0" />
      <note Length="0.015625" Pitch="38" RiffPosition="4.25" Velocity="0" />
      <note Length="0.015625" Pitch="38" RiffPosition="4.265625" Velocity="0" />
      <note Length="0.015625" Pitch="37" RiffPosition="4.28125" Velocity="53" />
      <note Length="0.015625" Pitch="44" RiffPosition="4.296875" Velocity="43" />
      <note Length="0.0208333333333333" Pitch="44" RiffPosition="4.3125" Velocity="68" />
      <note Length="0.0208333333333333" Pitch="52" RiffPosition="4.33333333333333" Velocity="59" />
      <note Length="0.0208333333333333" Pitch="52" RiffPosition="4.35416666666667" Velocity="41" />
      <note Length="0.03125" Pitch="52" RiffPosition="4.375" Velocity="25" />
      <note Length="0.015625" Pitch="52" RiffPosition="4.40625" Velocity="67" />
      <note Length="0.015625" Pitch="44" RiffPosition="4.421875" Velocity="112" />
      <note Length="0.015625" Pitch="44" RiffPosition="4.4375" Velocity="64" />
      <note Length="0.015625" Pitch="37" RiffPosition="4.453125" Velocity="48" />
      <note Length="0.0234375" Pitch="37" RiffPosition="4.46875" Velocity="61" />
      <note Length="0.0078125" Pitch="37" RiffPosition="4.4921875" Velocity="53" />
      <note Length="0.0208333333333333" Pitch="36" RiffPosition="4.5" Velocity="0" />
      <note Length="0.0208333333333333" Pitch="36" RiffPosition="4.52083333333333" Velocity="0" />
      <note Length="0.0208333333333333" Pitch="43" RiffPosition="4.54166666666667" Velocity="81" />
      <note Length="0.015625" Pitch="43" RiffPosition="4.5625" Velocity="66" />
      <note Length="0.015625" Pitch="49" RiffPosition="4.578125" Velocity="54" />
      <note Length="0.015625" Pitch="49" RiffPosition="4.59375" Velocity="70" />
      <note Length="0.015625" Pitch="49" RiffPosition="4.609375" Velocity="61" />
      <note Length="0.015625" Pitch="49" RiffPosition="4.625" Velocity="40" />
      <note Length="0.015625" Pitch="49" RiffPosition="4.640625" Velocity="25" />
      <note Length="0.0104166666666667" Pitch="50" RiffPosition="4.65625" Velocity="65" />
      <note Length="0.0104166666666667" Pitch="43" RiffPosition="4.66666666666667" Velocity="61" />
      <note Length="0.0104166666666667" Pitch="44" RiffPosition="4.67708333333333" Velocity="59" />
      <note Length="0.015625" Pitch="44" RiffPosition="4.6875" Velocity="43" />
      <note Length="0.015625" Pitch="37" RiffPosition="4.703125" Velocity="76" />
      <note Length="0.0104166666666667" Pitch="38" RiffPosition="4.71875" Velocity="0" />
      <note Length="0.0104166666666667" Pitch="38" RiffPosition="4.72916666666667" Velocity="0" />
      <note Length="0.0104166666666667" Pitch="38" RiffPosition="4.73958333333333" Velocity="0" />
      <note Length="0.015625" Pitch="39" RiffPosition="4.75" Velocity="0" />
      <note Length="0.015625" Pitch="39" RiffPosition="4.765625" Velocity="0" />
      <note Length="0.015625" Pitch="40" RiffPosition="4.78125" Velocity="0" />
      <note Length="0.015625" Pitch="47" RiffPosition="4.796875" Velocity="107" />
      <note Length="0.0208333333333333" Pitch="47" RiffPosition="4.8125" Velocity="76" />
      <note Length="0.0208333333333333" Pitch="54" RiffPosition="4.83333333333333" Velocity="60" />
      <note Length="0.0208333333333333" Pitch="54" RiffPosition="4.85416666666667" Velocity="87" />
      <note Length="0.03125" Pitch="53" RiffPosition="4.875" Velocity="41" />
      <note Length="0.015625" Pitch="51" RiffPosition="4.90625" Velocity="67" />
      <note Length="0.015625" Pitch="44" RiffPosition="4.921875" Velocity="40" />
      <note Length="0.015625" Pitch="43" RiffPosition="4.9375" Velocity="71" />
      <note Length="0.015625" Pitch="34" RiffPosition="4.953125" Velocity="103" />
      <note Length="0.0234375" Pitch="34" RiffPosition="4.96875" Velocity="115" />
      <note Length="0.0078125" Pitch="34" RiffPosition="4.9921875" Velocity="98" />
      <note Length="0.0208333333333333" Pitch="34" RiffPosition="5" Velocity="78" />
      <note Length="0.0208333333333333" Pitch="34" RiffPosition="5.02083333333333" Velocity="80" />
      <note Length="0.0208333333333333" Pitch="42" RiffPosition="5.04166666666667" Velocity="86" />
      <note Length="0.015625" Pitch="43" RiffPosition="5.0625" Velocity="78" />
      <note Length="0.015625" Pitch="50" RiffPosition="5.078125" Velocity="51" />
      <note Length="0.015625" Pitch="51" RiffPosition="5.09375" Velocity="63" />
      <note Length="0.015625" Pitch="51" RiffPosition="5.109375" Velocity="47" />
      <note Length="0.015625" Pitch="52" RiffPosition="5.125" Velocity="39" />
      <note Length="0.015625" Pitch="53" RiffPosition="5.140625" Velocity="109" />
      <note Length="0.0104166666666667" Pitch="53" RiffPosition="5.15625" Velocity="112" />
      <note Length="0.0104166666666667" Pitch="45" RiffPosition="5.16666666666667" Velocity="108" />
      <note Length="0.0104166666666667" Pitch="45" RiffPosition="5.17708333333333" Velocity="64" />
      <note Length="0.015625" Pitch="45" RiffPosition="5.1875" Velocity="41" />
      <note Length="0.015625" Pitch="38" RiffPosition="5.203125" Velocity="0" />
      <note Length="0.0104166666666667" Pitch="38" RiffPosition="5.21875" Velocity="0" />
      <note Length="0.0104166666666667" Pitch="38" RiffPosition="5.22916666666667" Velocity="0" />
      <note Length="0.0104166666666667" Pitch="38" RiffPosition="5.23958333333333" Velocity="0" />
      <note Length="0.015625" Pitch="38" RiffPosition="5.25" Velocity="0" />
      <note Length="0.015625" Pitch="38" RiffPosition="5.265625" Velocity="0" />
      <note Length="0.015625" Pitch="37" RiffPosition="5.28125" Velocity="62" />
      <note Length="0.015625" Pitch="44" RiffPosition="5.296875" Velocity="52" />
      <note Length="0.0208333333333333" Pitch="44" RiffPosition="5.3125" Velocity="75" />
      <note Length="0.0208333333333333" Pitch="52" RiffPosition="5.33333333333333" Velocity="63" />
      <note Length="0.0208333333333333" Pitch="52" RiffPosition="5.35416666666667" Velocity="46" />
      <note Length="0.03125" Pitch="52" RiffPosition="5.375" Velocity="24" />
      <note Length="0.015625" Pitch="52" RiffPosition="5.40625" Velocity="63" />
      <note Length="0.015625" Pitch="44" RiffPosition="5.421875" Velocity="104" />
      <note Length="0.015625" Pitch="44" RiffPosition="5.4375" Velocity="73" />
      <note Length="0.015625" Pitch="37" RiffPosition="5.453125" Velocity="41" />
      <note Length="0.0234375" Pitch="37" RiffPosition="5.46875" Velocity="51" />
      <note Length="0.0078125" Pitch="37" RiffPosition="5.4921875" Velocity="45" />
      <note Length="0.0208333333333333" Pitch="36" RiffPosition="5.5" Velocity="0" />
      <note Length="0.0208333333333333" Pitch="36" RiffPosition="5.52083333333333" Velocity="0" />
      <note Length="0.0208333333333333" Pitch="43" RiffPosition="5.54166666666667" Velocity="91" />
      <note Length="0.015625" Pitch="43" RiffPosition="5.5625" Velocity="73" />
      <note Length="0.015625" Pitch="49" RiffPosition="5.578125" Velocity="58" />
      <note Length="0.015625" Pitch="49" RiffPosition="5.59375" Velocity="65" />
      <note Length="0.015625" Pitch="49" RiffPosition="5.609375" Velocity="56" />
      <note Length="0.015625" Pitch="49" RiffPosition="5.625" Velocity="35" />
      <note Length="0.015625" Pitch="49" RiffPosition="5.640625" Velocity="23" />
      <note Length="0.0104166666666667" Pitch="50" RiffPosition="5.65625" Velocity="57" />
      <note Length="0.0104166666666667" Pitch="43" RiffPosition="5.66666666666667" Velocity="54" />
      <note Length="0.0104166666666667" Pitch="44" RiffPosition="5.67708333333333" Velocity="68" />
      <note Length="0.015625" Pitch="44" RiffPosition="5.6875" Velocity="46" />
      <note Length="0.015625" Pitch="37" RiffPosition="5.703125" Velocity="66" />
      <note Length="0.0104166666666667" Pitch="38" RiffPosition="5.71875" Velocity="0" />
      <note Length="0.0104166666666667" Pitch="38" RiffPosition="5.72916666666667" Velocity="0" />
      <note Length="0.0104166666666667" Pitch="38" RiffPosition="5.73958333333333" Velocity="0" />
      <note Length="0.015625" Pitch="39" RiffPosition="5.75" Velocity="0" />
      <note Length="0.015625" Pitch="39" RiffPosition="5.765625" Velocity="0" />
      <note Length="0.015625" Pitch="40" RiffPosition="5.78125" Velocity="0" />
      <note Length="0.015625" Pitch="47" RiffPosition="5.796875" Velocity="100" />
      <note Length="0.0208333333333333" Pitch="47" RiffPosition="5.8125" Velocity="69" />
      <note Length="0.0208333333333333" Pitch="54" RiffPosition="5.83333333333333" Velocity="51" />
      <note Length="0.0208333333333333" Pitch="54" RiffPosition="5.85416666666667" Velocity="78" />
      <note Length="0.03125" Pitch="53" RiffPosition="5.875" Velocity="49" />
      <note Length="0.015625" Pitch="51" RiffPosition="5.90625" Velocity="60" />
      <note Length="0.015625" Pitch="44" RiffPosition="5.921875" Velocity="50" />
      <note Length="0.015625" Pitch="43" RiffPosition="5.9375" Velocity="61" />
      <note Length="0.015625" Pitch="34" RiffPosition="5.953125" Velocity="110" />
      <note Length="0.0234375" Pitch="34" RiffPosition="5.96875" Velocity="123" />
      <note Length="0.0078125" Pitch="34" RiffPosition="5.9921875" Velocity="89" />
      <note Length="0.0208333333333333" Pitch="34" RiffPosition="6" Velocity="69" />
      <note Length="0.0208333333333333" Pitch="34" RiffPosition="6.02083333333333" Velocity="89" />
      <note Length="0.0208333333333333" Pitch="42" RiffPosition="6.04166666666667" Velocity="79" />
      <note Length="0.015625" Pitch="43" RiffPosition="6.0625" Velocity="71" />
      <note Length="0.015625" Pitch="50" RiffPosition="6.078125" Velocity="41" />
      <note Length="0.015625" Pitch="51" RiffPosition="6.09375" Velocity="54" />
      <note Length="0.015625" Pitch="51" RiffPosition="6.109375" Velocity="54" />
      <note Length="0.015625" Pitch="52" RiffPosition="6.125" Velocity="35" />
      <note Length="0.015625" Pitch="53" RiffPosition="6.140625" Velocity="102" />
      <note Length="0.0104166666666667" Pitch="53" RiffPosition="6.15625" Velocity="121" />
      <note Length="0.0104166666666667" Pitch="45" RiffPosition="6.16666666666667" Velocity="118" />
      <note Length="0.0104166666666667" Pitch="45" RiffPosition="6.17708333333333" Velocity="73" />
      <note Length="0.015625" Pitch="45" RiffPosition="6.1875" Velocity="46" />
      <note Length="0.015625" Pitch="38" RiffPosition="6.203125" Velocity="0" />
      <note Length="0.0104166666666667" Pitch="38" RiffPosition="6.21875" Velocity="0" />
      <note Length="0.0104166666666667" Pitch="38" RiffPosition="6.22916666666667" Velocity="0" />
      <note Length="0.0104166666666667" Pitch="38" RiffPosition="6.23958333333333" Velocity="0" />
      <note Length="0.015625" Pitch="38" RiffPosition="6.25" Velocity="0" />
      <note Length="0.015625" Pitch="38" RiffPosition="6.265625" Velocity="0" />
      <note Length="0.015625" Pitch="37" RiffPosition="6.28125" Velocity="55" />
      <note Length="0.015625" Pitch="44" RiffPosition="6.296875" Velocity="45" />
      <note Length="0.0208333333333333" Pitch="44" RiffPosition="6.3125" Velocity="66" />
      <note Length="0.0208333333333333" Pitch="52" RiffPosition="6.33333333333333" Velocity="58" />
      <note Length="0.0208333333333333" Pitch="52" RiffPosition="6.35416666666667" Velocity="50" />
      <note Length="0.03125" Pitch="52" RiffPosition="6.375" Velocity="24" />
      <note Length="0.015625" Pitch="52" RiffPosition="6.40625" Velocity="68" />
      <note Length="0.015625" Pitch="44" RiffPosition="6.421875" Velocity="114" />
      <note Length="0.015625" Pitch="44" RiffPosition="6.4375" Velocity="66" />
      <note Length="0.015625" Pitch="37" RiffPosition="6.453125" Velocity="46" />
      <note Length="0.0234375" Pitch="37" RiffPosition="6.46875" Velocity="59" />
      <note Length="0.0078125" Pitch="37" RiffPosition="6.4921875" Velocity="55" />
      <note Length="0.0208333333333333" Pitch="36" RiffPosition="6.5" Velocity="0" />
      <note Length="0.0208333333333333" Pitch="36" RiffPosition="6.52083333333333" Velocity="0" />
      <note Length="0.0208333333333333" Pitch="43" RiffPosition="6.54166666666667" Velocity="83" />
      <note Length="0.015625" Pitch="43" RiffPosition="6.5625" Velocity="64" />
      <note Length="0.015625" Pitch="49" RiffPosition="6.578125" Velocity="53" />
      <note Length="0.015625" Pitch="49" RiffPosition="6.59375" Velocity="69" />
      <note Length="0.015625" Pitch="49" RiffPosition="6.609375" Velocity="60" />
      <note Length="0.015625" Pitch="49" RiffPosition="6.625" Velocity="39" />
      <note Length="0.015625" Pitch="49" RiffPosition="6.640625" Velocity="26" />
      <note Length="0.0104166666666667" Pitch="50" RiffPosition="6.65625" Velocity="67" />
      <note Length="0.0104166666666667" Pitch="43" RiffPosition="6.66666666666667" Velocity="47" />
      <note Length="0.0104166666666667" Pitch="44" RiffPosition="6.67708333333333" Velocity="61" />
      <note Length="0.015625" Pitch="44" RiffPosition="6.6875" Velocity="41" />
      <note Length="0.015625" Pitch="37" RiffPosition="6.703125" Velocity="73" />
      <note Length="0.0104166666666667" Pitch="38" RiffPosition="6.71875" Velocity="0" />
      <note Length="0.0104166666666667" Pitch="38" RiffPosition="6.72916666666667" Velocity="0" />
      <note Length="0.0104166666666667" Pitch="38" RiffPosition="6.73958333333333" Velocity="0" />
      <note Length="0.015625" Pitch="39" RiffPosition="6.75" Velocity="0" />
      <note Length="0.015625" Pitch="39" RiffPosition="6.765625" Velocity="0" />
      <note Length="0.015625" Pitch="40" RiffPosition="6.78125" Velocity="0" />
      <note Length="0.015625" Pitch="47" RiffPosition="6.796875" Velocity="109" />
      <note Length="0.0208333333333333" Pitch="47" RiffPosition="6.8125" Velocity="78" />
      <note Length="0.0208333333333333" Pitch="54" RiffPosition="6.83333333333333" Velocity="58" />
      <note Length="0.0208333333333333" Pitch="54" RiffPosition="6.85416666666667" Velocity="85" />
      <note Length="0.03125" Pitch="53" RiffPosition="6.875" Velocity="41" />
      <note Length="0.015625" Pitch="51" RiffPosition="6.90625" Velocity="52" />
      <note Length="0.015625" Pitch="44" RiffPosition="6.921875" Velocity="43" />
      <note Length="0.015625" Pitch="43" RiffPosition="6.9375" Velocity="68" />
      <note Length="0.015625" Pitch="34" RiffPosition="6.953125" Velocity="101" />
      <note Length="0.0234375" Pitch="34" RiffPosition="6.96875" Velocity="113" />
      <note Length="0.0078125" Pitch="34" RiffPosition="6.9921875" Velocity="96" />
      <note Length="0.0208333333333333" Pitch="34" RiffPosition="7" Velocity="76" />
      <note Length="0.0208333333333333" Pitch="34" RiffPosition="7.02083333333333" Velocity="82" />
      <note Length="0.0208333333333333" Pitch="42" RiffPosition="7.04166666666667" Velocity="88" />
      <note Length="0.015625" Pitch="43" RiffPosition="7.0625" Velocity="64" />
      <note Length="0.015625" Pitch="50" RiffPosition="7.078125" Velocity="49" />
      <note Length="0.015625" Pitch="51" RiffPosition="7.09375" Velocity="61" />
      <note Length="0.015625" Pitch="51" RiffPosition="7.109375" Velocity="45" />
      <note Length="0.015625" Pitch="52" RiffPosition="7.125" Velocity="40" />
      <note Length="0.015625" Pitch="53" RiffPosition="7.140625" Velocity="95" />
      <note Length="0.0104166666666667" Pitch="53" RiffPosition="7.15625" Velocity="114" />
      <note Length="0.0104166666666667" Pitch="45" RiffPosition="7.16666666666667" Velocity="111" />
      <note Length="0.0104166666666667" Pitch="45" RiffPosition="7.17708333333333" Velocity="66" />
      <note Length="0.015625" Pitch="45" RiffPosition="7.1875" Velocity="44" />
      <note Length="0.015625" Pitch="38" RiffPosition="7.203125" Velocity="0" />
      <note Length="0.0104166666666667" Pitch="38" RiffPosition="7.21875" Velocity="0" />
      <note Length="0.0104166666666667" Pitch="38" RiffPosition="7.22916666666667" Velocity="0" />
      <note Length="0.0104166666666667" Pitch="38" RiffPosition="7.23958333333333" Velocity="0" />
      <note Length="0.015625" Pitch="38" RiffPosition="7.25" Velocity="0" />
      <note Length="0.015625" Pitch="38" RiffPosition="7.265625" Velocity="0" />
      <note Length="0.015625" Pitch="37" RiffPosition="7.28125" Velocity="64" />
      <note Length="0.015625" Pitch="44" RiffPosition="7.296875" Velocity="55" />
      <note Length="0.0208333333333333" Pitch="44" RiffPosition="7.3125" Velocity="73" />
      <note Length="0.0208333333333333" Pitch="52" RiffPosition="7.33333333333333" Velocity="62" />
      <note Length="0.0208333333333333" Pitch="52" RiffPosition="7.35416666666667" Velocity="44" />
      <note Length="0.03125" Pitch="52" RiffPosition="7.375" Velocity="25" />
      <note Length="0.015625" Pitch="52" RiffPosition="7.40625" Velocity="64" />
      <note Length="0.015625" Pitch="44" RiffPosition="7.421875" Velocity="107" />
      <note Length="0.015625" Pitch="44" RiffPosition="7.4375" Velocity="76" />
      <note Length="0.015625" Pitch="37" RiffPosition="7.453125" Velocity="43" />
      <note Length="0.0234375" Pitch="37" RiffPosition="7.46875" Velocity="66" />
      <note Length="0.0078125" Pitch="37" RiffPosition="7.4921875" Velocity="48" />
      <note Length="0.0208333333333333" Pitch="36" RiffPosition="7.5" Velocity="0" />
      <note Length="0.0208333333333333" Pitch="36" RiffPosition="7.52083333333333" Velocity="0" />
      <note Length="0.0208333333333333" Pitch="43" RiffPosition="7.54166666666667" Velocity="76" />
      <note Length="0.015625" Pitch="43" RiffPosition="7.5625" Velocity="71" />
      <note Length="0.015625" Pitch="49" RiffPosition="7.578125" Velocity="57" />
      <note Length="0.015625" Pitch="49" RiffPosition="7.59375" Velocity="63" />
      <note Length="0.015625" Pitch="49" RiffPosition="7.609375" Velocity="54" />
      <note Length="0.015625" Pitch="49" RiffPosition="7.625" Velocity="43" />
      <note Length="0.015625" Pitch="49" RiffPosition="7.640625" Velocity="22" />
      <note Length="0.0104166666666667" Pitch="50" RiffPosition="7.65625" Velocity="60" />
      <note Length="0.0104166666666667" Pitch="43" RiffPosition="7.66666666666667" Velocity="56" />
      <note Length="0.0104166666666667" Pitch="44" RiffPosition="7.67708333333333" Velocity="71" />
      <note Length="0.015625" Pitch="44" RiffPosition="7.6875" Velocity="48" />
      <note Length="0.015625" Pitch="37" RiffPosition="7.703125" Velocity="81" />
      <note Length="0.0104166666666667" Pitch="38" RiffPosition="7.71875" Velocity="0" />
      <note Length="0.0104166666666667" Pitch="38" RiffPosition="7.72916666666667" Velocity="0" />
      <note Length="0.0104166666666667" Pitch="38" RiffPosition="7.73958333333333" Velocity="0" />
      <note Length="0.015625" Pitch="39" RiffPosition="7.75" Velocity="0" />
      <note Length="0.015625" Pitch="39" RiffPosition="7.765625" Velocity="0" />
      <note Length="0.015625" Pitch="40" RiffPosition="7.78125" Velocity="0" />
      <note Length="0.015625" Pitch="47" RiffPosition="7.796875" Velocity="102" />
      <note Length="0.0208333333333333" Pitch="47" RiffPosition="7.8125" Velocity="71" />
      <note Length="0.0208333333333333" Pitch="54" RiffPosition="7.83333333333333" Velocity="49" />
      <note Length="0.0208333333333333" Pitch="54" RiffPosition="7.85416666666667" Velocity="76" />
      <note Length="0.03125" Pitch="53" RiffPosition="7.875" Velocity="46" />
      <note Length="0.015625" Pitch="51" RiffPosition="7.90625" Velocity="62" />
      <note Length="0.015625" Pitch="44" RiffPosition="7.921875" Velocity="52" />
      <note Length="0.015625" Pitch="43" RiffPosition="7.9375" Velocity="76" />
      <note Length="0.015625" Pitch="34" RiffPosition="7.953125" Velocity="108" />
      <note Length="0.0234375" Pitch="34" RiffPosition="7.96875" Velocity="120" />
      <note Length="0.0078125" Pitch="34" RiffPosition="7.9921875" Velocity="87" />
      <note Length="0.0208333333333333" Pitch="34" RiffPosition="8" Velocity="66" />
      <note Length="0.0208333333333333" Pitch="34" RiffPosition="8.02083333333333" Velocity="75" />
      <note Length="0.0208333333333333" Pitch="42" RiffPosition="8.04166666666667" Velocity="81" />
      <note Length="0.015625" Pitch="43" RiffPosition="8.0625" Velocity="73" />
      <note Length="0.015625" Pitch="50" RiffPosition="8.078125" Velocity="41" />
      <note Length="0.015625" Pitch="51" RiffPosition="8.09375" Velocity="52" />
      <note Length="0.015625" Pitch="51" RiffPosition="8.109375" Velocity="52" />
      <note Length="0.015625" Pitch="52" RiffPosition="8.125" Velocity="36" />
      <note Length="0.015625" Pitch="53" RiffPosition="8.140625" Velocity="104" />
      <note Length="0.0104166666666667" Pitch="53" RiffPosition="8.15625" Velocity="123" />
      <note Length="0.0104166666666667" Pitch="45" RiffPosition="8.16666666666667" Velocity="120" />
      <note Length="0.0104166666666667" Pitch="45" RiffPosition="8.17708333333333" Velocity="59" />
      <note Length="0.015625" Pitch="45" RiffPosition="8.1875" Velocity="44" />
      <note Length="0.015625" Pitch="38" RiffPosition="8.203125" Velocity="0" />
      <note Length="0.0104166666666667" Pitch="38" RiffPosition="8.21875" Velocity="0" />
      <note Length="0.0104166666666667" Pitch="38" RiffPosition="8.22916666666667" Velocity="0" />
      <note Length="0.0104166666666667" Pitch="38" RiffPosition="8.23958333333333" Velocity="0" />
      <note Length="0.015625" Pitch="38" RiffPosition="8.25" Velocity="0" />
      <note Length="0.015625" Pitch="38" RiffPosition="8.265625" Velocity="0" />
      <note Length="0.015625" Pitch="37" RiffPosition="8.28125" Velocity="57" />
      <note Length="0.015625" Pitch="44" RiffPosition="8.296875" Velocity="47" />
      <note Length="0.0208333333333333" Pitch="44" RiffPosition="8.3125" Velocity="64" />
      <note Length="0.0208333333333333" Pitch="52" RiffPosition="8.33333333333333" Velocity="57" />
      <note Length="0.0208333333333333" Pitch="52" RiffPosition="8.35416666666667" Velocity="48" />
      <note Length="0.03125" Pitch="52" RiffPosition="8.375" Velocity="23" />
      <note Length="0.015625" Pitch="52" RiffPosition="8.40625" Velocity="69" />
      <note Length="0.015625" Pitch="44" RiffPosition="8.421875" Velocity="99" />
      <note Length="0.015625" Pitch="44" RiffPosition="8.4375" Velocity="68" />
      <note Length="0.015625" Pitch="37" RiffPosition="8.453125" Velocity="44" />
      <note Length="0.0234375" Pitch="37" RiffPosition="8.46875" Velocity="56" />
      <note Length="0.0078125" Pitch="37" RiffPosition="8.4921875" Velocity="57" />
      <note Length="0.0208333333333333" Pitch="36" RiffPosition="8.5" Velocity="0" />
      <note Length="0.0208333333333333" Pitch="36" RiffPosition="8.52083333333333" Velocity="0" />
      <note Length="0.0208333333333333" Pitch="43" RiffPosition="8.54166666666667" Velocity="86" />
      <note Length="0.015625" Pitch="43" RiffPosition="8.5625" Velocity="61" />
      <note Length="0.015625" Pitch="49" RiffPosition="8.578125" Velocity="61" />
      <note Length="0.015625" Pitch="49" RiffPosition="8.59375" Velocity="68" />
      <note Length="0.015625" Pitch="49" RiffPosition="8.609375" Velocity="58" />
      <note Length="0.015625" Pitch="49" RiffPosition="8.625" Velocity="38" />
      <note Length="0.015625" Pitch="49" RiffPosition="8.640625" Velocity="28" />
      <note Length="0.0104166666666667" Pitch="50" RiffPosition="8.65625" Velocity="52" />
      <note Length="0.0104166666666667" Pitch="43" RiffPosition="8.66666666666667" Velocity="49" />
      <note Length="0.0104166666666667" Pitch="44" RiffPosition="8.67708333333333" Velocity="63" />
      <note Length="0.015625" Pitch="44" RiffPosition="8.6875" Velocity="41" />
      <note Length="0.015625" Pitch="37" RiffPosition="8.703125" Velocity="71" />
      <note Length="0.0104166666666667" Pitch="38" RiffPosition="8.71875" Velocity="0" />
      <note Length="0.0104166666666667" Pitch="38" RiffPosition="8.72916666666667" Velocity="0" />
      <note Length="0.0104166666666667" Pitch="38" RiffPosition="8.73958333333333" Velocity="0" />
      <note Length="0.015625" Pitch="39" RiffPosition="8.75" Velocity="0" />
      <note Length="0.015625" Pitch="39" RiffPosition="8.765625" Velocity="0" />
      <note Length="0.015625" Pitch="40" RiffPosition="8.78125" Velocity="0" />
      <note Length="0.015625" Pitch="47" RiffPosition="8.796875" Velocity="111" />
      <note Length="0.0208333333333333" Pitch="47" RiffPosition="8.8125" Velocity="63" />
      <note Length="0.0208333333333333" Pitch="54" RiffPosition="8.83333333333333" Velocity="56" />
      <note Length="0.0208333333333333" Pitch="54" RiffPosition="8.85416666666667" Velocity="83" />
      <note Length="0.03125" Pitch="53" RiffPosition="8.875" Velocity="43" />
      <note Length="0.015625" Pitch="51" RiffPosition="8.90625" Velocity="55" />
      <note Length="0.015625" Pitch="44" RiffPosition="8.921875" Velocity="45" />
      <note Length="0.015625" Pitch="43" RiffPosition="8.9375" Velocity="66" />
      <note Length="0.015625" Pitch="34" RiffPosition="8.953125" Velocity="98" />
      <note Length="0.0234375" Pitch="34" RiffPosition="8.96875" Velocity="111" />
      <note Length="0.0078125" Pitch="34" RiffPosition="8.9921875" Velocity="94" />
      <note Length="0.0208333333333333" Pitch="34" RiffPosition="9" Velocity="74" />
      <note Length="0.0208333333333333" Pitch="34" RiffPosition="9.02083333333333" Velocity="84" />
      <note Length="0.0208333333333333" Pitch="42" RiffPosition="9.04166666666667" Velocity="90" />
      <note Length="0.015625" Pitch="43" RiffPosition="9.0625" Velocity="66" />
      <note Length="0.015625" Pitch="50" RiffPosition="9.078125" Velocity="46" />
      <note Length="0.015625" Pitch="51" RiffPosition="9.09375" Velocity="59" />
      <note Length="0.015625" Pitch="51" RiffPosition="9.109375" Velocity="42" />
      <note Length="0.015625" Pitch="52" RiffPosition="9.125" Velocity="41" />
      <note Length="0.015625" Pitch="53" RiffPosition="9.140625" Velocity="97" />
      <note Length="0.0104166666666667" Pitch="53" RiffPosition="9.15625" Velocity="116" />
      <note Length="0.0104166666666667" Pitch="45" RiffPosition="9.16666666666667" Velocity="113" />
      <note Length="0.0104166666666667" Pitch="45" RiffPosition="9.17708333333333" Velocity="68" />
      <note Length="0.015625" Pitch="45" RiffPosition="9.1875" Velocity="46" />
      <note Length="0.015625" Pitch="38" RiffPosition="9.203125" Velocity="0" />
      <note Length="0.0104166666666667" Pitch="38" RiffPosition="9.21875" Velocity="0" />
      <note Length="0.0104166666666667" Pitch="38" RiffPosition="9.22916666666667" Velocity="0" />
      <note Length="0.0104166666666667" Pitch="38" RiffPosition="9.23958333333333" Velocity="0" />
      <note Length="0.015625" Pitch="38" RiffPosition="9.25" Velocity="0" />
      <note Length="0.015625" Pitch="38" RiffPosition="9.265625" Velocity="0" />
      <note Length="0.015625" Pitch="37" RiffPosition="9.28125" Velocity="67" />
      <note Length="0.015625" Pitch="44" RiffPosition="9.296875" Velocity="40" />
      <note Length="0.0208333333333333" Pitch="44" RiffPosition="9.3125" Velocity="71" />
      <note Length="0.0208333333333333" Pitch="52" RiffPosition="9.33333333333333" Velocity="61" />
      <note Length="0.0208333333333333" Pitch="52" RiffPosition="9.35416666666667" Velocity="43" />
      <note Length="0.03125" Pitch="52" RiffPosition="9.375" Velocity="27" />
      <note Length="0.015625" Pitch="52" RiffPosition="9.40625" Velocity="65" />
      <note Length="0.015625" Pitch="44" RiffPosition="9.421875" Velocity="109" />
      <note Length="0.015625" Pitch="44" RiffPosition="9.4375" Velocity="78" />
      <note Length="0.015625" Pitch="37" RiffPosition="9.453125" Velocity="51" />
      <note Length="0.0234375" Pitch="37" RiffPosition="9.46875" Velocity="64" />
      <note Length="0.0078125" Pitch="37" RiffPosition="9.4921875" Velocity="50" />
      <note Length="0.0208333333333333" Pitch="36" RiffPosition="9.5" Velocity="0" />
      <note Length="0.0208333333333333" Pitch="36" RiffPosition="9.52083333333333" Velocity="0" />
      <note Length="0.0208333333333333" Pitch="43" RiffPosition="9.54166666666667" Velocity="78" />
      <note Length="0.015625" Pitch="43" RiffPosition="9.5625" Velocity="69" />
      <note Length="0.015625" Pitch="49" RiffPosition="9.578125" Velocity="56" />
      <note Length="0.015625" Pitch="49" RiffPosition="9.59375" Velocity="62" />
      <note Length="0.015625" Pitch="49" RiffPosition="9.609375" Velocity="63" />
      <note Length="0.015625" Pitch="49" RiffPosition="9.625" Velocity="42" />
      <note Length="0.015625" Pitch="49" RiffPosition="9.640625" Velocity="24" />
      <note Length="0.0104166666666667" Pitch="50" RiffPosition="9.65625" Velocity="62" />
      <note Length="0.0104166666666667" Pitch="43" RiffPosition="9.66666666666667" Velocity="58" />
      <note Length="0.0104166666666667" Pitch="44" RiffPosition="9.67708333333333" Velocity="73" />
      <note Length="0.015625" Pitch="44" RiffPosition="9.6875" Velocity="46" />
      <note Length="0.015625" Pitch="37" RiffPosition="9.703125" Velocity="78" />
      <note Length="0.0104166666666667" Pitch="38" RiffPosition="9.71875" Velocity="0" />
      <note Length="0.0104166666666667" Pitch="38" RiffPosition="9.72916666666667" Velocity="0" />
      <note Length="0.0104166666666667" Pitch="38" RiffPosition="9.73958333333333" Velocity="0" />
      <note Length="0.015625" Pitch="39" RiffPosition="9.75" Velocity="0" />
      <note Length="0.015625" Pitch="39" RiffPosition="9.765625" Velocity="0" />
      <note Length="0.015625" Pitch="40" RiffPosition="9.78125" Velocity="0" />
      <note Length="0.015625" Pitch="47" RiffPosition="9.796875" Velocity="104" />
      <note Length="0.0208333333333333" Pitch="47" RiffPosition="9.8125" Velocity="73" />
      <note Length="0.0208333333333333" Pitch="54" RiffPosition="9.83333333333333" Velocity="46" />
      <note Length="0.0208333333333333" Pitch="54" RiffPosition="9.85416666666667" Velocity="90" />
      <note Length="0.03125" Pitch="53" RiffPosition="9.875" Velocity="44" />
      <note Length="0.015625" Pitch="51" RiffPosition="9.90625" Velocity="64" />
      <note Length="0.015625" Pitch="44" RiffPosition="9.921875" Velocity="54" />
      <note Length="0.015625" Pitch="43" RiffPosition="9.9375" Velocity="73" />
      <note Length="0.015625" Pitch="34" RiffPosition="9.953125" Velocity="106" />
      <note Length="0.0234375" Pitch="34" RiffPosition="9.96875" Velocity="118" />
      <note Length="0.0078125" Pitch="34" RiffPosition="9.9921875" Velocity="85" />
      <note Length="0.0208333333333333" Pitch="34" RiffPosition="10" Velocity="64" />
      <note Length="0.0208333333333333" Pitch="34" RiffPosition="10.0208333333333" Velocity="77" />
      <note Length="0.0208333333333333" Pitch="42" RiffPosition="10.0416666666667" Velocity="83" />
      <note Length="0.015625" Pitch="43" RiffPosition="10.0625" Velocity="75" />
      <note Length="0.015625" Pitch="50" RiffPosition="10.078125" Velocity="43" />
      <note Length="0.015625" Pitch="51" RiffPosition="10.09375" Velocity="66" />
      <note Length="0.015625" Pitch="51" RiffPosition="10.109375" Velocity="50" />
      <note Length="0.015625" Pitch="52" RiffPosition="10.125" Velocity="37" />
      <note Length="0.015625" Pitch="53" RiffPosition="10.140625" Velocity="107" />
      <note Length="0.0104166666666667" Pitch="53" RiffPosition="10.15625" Velocity="126" />
      <note Length="0.0104166666666667" Pitch="45" RiffPosition="10.1666666666667" Velocity="105" />
      <note Length="0.0104166666666667" Pitch="45" RiffPosition="10.1770833333333" Velocity="61" />
      <note Length="0.015625" Pitch="45" RiffPosition="10.1875" Velocity="41" />
      <note Length="0.015625" Pitch="38" RiffPosition="10.203125" Velocity="0" />
      <note Length="0.0104166666666667" Pitch="38" RiffPosition="10.21875" Velocity="0" />
      <note Length="0.0104166666666667" Pitch="38" RiffPosition="10.2291666666667" Velocity="0" />
      <note Length="0.0104166666666667" Pitch="38" RiffPosition="10.2395833333333" Velocity="0" />
      <note Length="0.015625" Pitch="38" RiffPosition="10.25" Velocity="0" />
      <note Length="0.015625" Pitch="38" RiffPosition="10.265625" Velocity="0" />
      <note Length="0.015625" Pitch="37" RiffPosition="10.28125" Velocity="59" />
      <note Length="0.015625" Pitch="44" RiffPosition="10.296875" Velocity="50" />
      <note Length="0.0208333333333333" Pitch="44" RiffPosition="10.3125" Velocity="61" />
      <note Length="0.0208333333333333" Pitch="52" RiffPosition="10.3333333333333" Velocity="64" />
      <note Length="0.0208333333333333" Pitch="52" RiffPosition="10.3541666666667" Velocity="47" />
      <note Length="0.03125" Pitch="52" RiffPosition="10.375" Velocity="23" />
      <note Length="0.015625" Pitch="52" RiffPosition="10.40625" Velocity="61" />
      <note Length="0.015625" Pitch="44" RiffPosition="10.421875" Velocity="102" />
      <note Length="0.015625" Pitch="44" RiffPosition="10.4375" Velocity="71" />
      <note Length="0.015625" Pitch="37" RiffPosition="10.453125" Velocity="42" />
      <note Length="0.0234375" Pitch="37" RiffPosition="10.46875" Velocity="54" />
      <note Length="0.0078125" Pitch="37" RiffPosition="10.4921875" Velocity="43" />
      <note Length="0.0208333333333333" Pitch="36" RiffPosition="10.5" Velocity="0" />
      <note Length="0.0208333333333333" Pitch="36" RiffPosition="10.5208333333333" Velocity="0" />
      <note Length="0.0208333333333333" Pitch="43" RiffPosition="10.5416666666667" Velocity="88" />
      <note Length="0.015625" Pitch="43" RiffPosition="10.5625" Velocity="76" />
      <note Length="0.015625" Pitch="49" RiffPosition="10.578125" Velocity="59" />
      <note Length="0.015625" Pitch="49" RiffPosition="10.59375" Velocity="67" />
      <note Length="0.015625" Pitch="49" RiffPosition="10.609375" Velocity="57" />
      <note Length="0.015625" Pitch="49" RiffPosition="10.625" Velocity="37" />
      <note Length="0.015625" Pitch="49" RiffPosition="10.640625" Velocity="29" />
      <note Length="0.0104166666666667" Pitch="50" RiffPosition="10.65625" Velocity="54" />
      <note Length="0.0104166666666667" Pitch="43" RiffPosition="10.6666666666667" Velocity="51" />
      <note Length="0.0104166666666667" Pitch="44" RiffPosition="10.6770833333333" Velocity="65" />
      <note Length="0.015625" Pitch="44" RiffPosition="10.6875" Velocity="43" />
      <note Length="0.015625" Pitch="37" RiffPosition="10.703125" Velocity="69" />
      <note Length="0.0104166666666667" Pitch="38" RiffPosition="10.71875" Velocity="0" />
      <note Length="0.0104166666666667" Pitch="38" RiffPosition="10.7291666666667" Velocity="0" />
      <note Length="0.0104166666666667" Pitch="38" RiffPosition="10.7395833333333" Velocity="0" />
      <note Length="0.015625" Pitch="39" RiffPosition="10.75" Velocity="0" />
      <note Length="0.015625" Pitch="39" RiffPosition="10.765625" Velocity="0" />
      <note Length="0.015625" Pitch="40" RiffPosition="10.78125" Velocity="0" />
      <note Length="0.015625" Pitch="47" RiffPosition="10.796875" Velocity="113" />
      <note Length="0.0208333333333333" Pitch="47" RiffPosition="10.8125" Velocity="66" />
      <note Length="0.0208333333333333" Pitch="54" RiffPosition="10.8333333333333" Velocity="54" />
      <note Length="0.0208333333333333" Pitch="54" RiffPosition="10.8541666666667" Velocity="81" />
      <note Length="0.03125" Pitch="53" RiffPosition="10.875" Velocity="45" />
      <note Length="0.015625" Pitch="51" RiffPosition="10.90625" Velocity="57" />
      <note Length="0.015625" Pitch="44" RiffPosition="10.921875" Velocity="47" />
      <note Length="0.015625" Pitch="43" RiffPosition="10.9375" Velocity="64" />
      <note Length="0.015625" Pitch="34" RiffPosition="10.953125" Velocity="96" />
      <note Length="0.0234375" Pitch="34" RiffPosition="10.96875" Velocity="125" />
      <note Length="0.0078125" Pitch="34" RiffPosition="10.9921875" Velocity="92" />
      <note Length="0.0208333333333333" Pitch="34" RiffPosition="11" Velocity="71" />
      <note Length="0.0208333333333333" Pitch="34" RiffPosition="11.0208333333333" Velocity="86" />
      <note Length="0.0208333333333333" Pitch="42" RiffPosition="11.0416666666667" Velocity="76" />
      <note Length="0.015625" Pitch="43" RiffPosition="11.0625" Velocity="68" />
      <note Length="0.015625" Pitch="50" RiffPosition="11.078125" Velocity="44" />
      <note Length="0.015625" Pitch="51" RiffPosition="11.09375" Velocity="57" />
      <note Length="0.015625" Pitch="51" RiffPosition="11.109375" Velocity="40" />
      <note Length="0.015625" Pitch="52" RiffPosition="11.125" Velocity="34" />
      <note Length="0.015625" Pitch="53" RiffPosition="11.140625" Velocity="99" />
      <note Length="0.0104166666666667" Pitch="53" RiffPosition="11.15625" Velocity="118" />
      <note Length="0.0104166666666667" Pitch="45" RiffPosition="11.1666666666667" Velocity="115" />
      <note Length="0.0104166666666667" Pitch="45" RiffPosition="11.1770833333333" Velocity="70" />
      <note Length="0.015625" Pitch="45" RiffPosition="11.1875" Velocity="48" />
      <note Length="0.015625" Pitch="38" RiffPosition="11.203125" Velocity="0" />
      <note Length="0.0104166666666667" Pitch="38" RiffPosition="11.21875" Velocity="0" />
      <note Length="0.0104166666666667" Pitch="38" RiffPosition="11.2291666666667" Velocity="0" />
      <note Length="0.0104166666666667" Pitch="38" RiffPosition="11.2395833333333" Velocity="0" />
      <note Length="0.015625" Pitch="38" RiffPosition="11.25" Velocity="0" />
      <note Length="0.015625" Pitch="38" RiffPosition="11.265625" Velocity="0" />
      <note Length="0.015625" Pitch="37" RiffPosition="11.28125" Velocity="52" />
      <note Length="0.015625" Pitch="44" RiffPosition="11.296875" Velocity="42" />
      <note Length="0.0208333333333333" Pitch="44" RiffPosition="11.3125" Velocity="69" />
      <note Length="0.0208333333333333" Pitch="52" RiffPosition="11.3333333333333" Velocity="59" />
      <note Length="0.0208333333333333" Pitch="52" RiffPosition="11.3541666666667" Velocity="42" />
      <note Length="0.03125" Pitch="52" RiffPosition="11.375" Velocity="26" />
      <note Length="0.015625" Pitch="52" RiffPosition="11.40625" Velocity="67" />
      <note Length="0.015625" Pitch="44" RiffPosition="11.421875" Velocity="111" />
      <note Length="0.015625" Pitch="44" RiffPosition="11.4375" Velocity="63" />
      <note Length="0.015625" Pitch="37" RiffPosition="11.453125" Velocity="49" />
      <note Length="0.0234375" Pitch="37" RiffPosition="11.46875" Velocity="61" />
      <note Length="0.0078125" Pitch="37" RiffPosition="11.4921875" Velocity="52" />
      <note Length="0.0208333333333333" Pitch="36" RiffPosition="11.5" Velocity="0" />
      <note Length="0.0208333333333333" Pitch="36" RiffPosition="11.5208333333333" Velocity="0" />
      <note Length="0.0208333333333333" Pitch="43" RiffPosition="11.5416666666667" Velocity="81" />
      <note Length="0.015625" Pitch="43" RiffPosition="11.5625" Velocity="66" />
      <note Length="0.015625" Pitch="49" RiffPosition="11.578125" Velocity="54" />
      <note Length="0.015625" Pitch="49" RiffPosition="11.59375" Velocity="61" />
      <note Length="0.015625" Pitch="49" RiffPosition="11.609375" Velocity="61" />
      <note Length="0.015625" Pitch="49" RiffPosition="11.625" Velocity="41" />
      <note Length="0.015625" Pitch="49" RiffPosition="11.640625" Velocity="25" />
      <note Length="0.0104166666666667" Pitch="50" RiffPosition="11.65625" Velocity="64" />
      <note Length="0.0104166666666667" Pitch="43" RiffPosition="11.6666666666667" Velocity="61" />
      <note Length="0.0104166666666667" Pitch="44" RiffPosition="11.6770833333333" Velocity="58" />
      <note Length="0.015625" Pitch="44" RiffPosition="11.6875" Velocity="44" />
      <note Length="0.015625" Pitch="37" RiffPosition="11.703125" Velocity="76" />
      <note Length="0.0104166666666667" Pitch="38" RiffPosition="11.71875" Velocity="0" />
      <note Length="0.0104166666666667" Pitch="38" RiffPosition="11.7291666666667" Velocity="0" />
      <note Length="0.0104166666666667" Pitch="38" RiffPosition="11.7395833333333" Velocity="0" />
      <note Length="0.015625" Pitch="39" RiffPosition="11.75" Velocity="0" />
      <note Length="0.015625" Pitch="39" RiffPosition="11.765625" Velocity="0" />
      <note Length="0.015625" Pitch="40" RiffPosition="11.78125" Velocity="0" />
      <note Length="0.015625" Pitch="47" RiffPosition="11.796875" Velocity="106" />
      <note Length="0.0208333333333333" Pitch="47" RiffPosition="11.8125" Velocity="75" />
      <note Length="0.0208333333333333" Pitch="54" RiffPosition="11.8333333333333" Velocity="44" />
      <note Length="0.0208333333333333" Pitch="54" RiffPosition="11.8541666666667" Velocity="88" />
      <note Length="0.03125" Pitch="53" RiffPosition="11.875" Velocity="42" />
      <note Length="0.015625" Pitch="51" RiffPosition="11.90625" Velocity="66" />
      <note Length="0.015625" Pitch="44" RiffPosition="11.921875" Velocity="40" />
      <note Length="0.015625" Pitch="43" RiffPosition="11.9375" Velocity="71" />
      <note Length="0.015625" Pitch="34" RiffPosition="11.953125" Velocity="103" />
      <note Length="0.0234375" Pitch="34" RiffPosition="11.96875" Velocity="116" />
      <note Length="0.0078125" Pitch="34" RiffPosition="11.9921875" Velocity="82" />
    </riff>
    <riff IsDrum="True" MidiInstrument="0" Tempo="128" Length="12">
      <note Length="0.0625" Pitch="35" RiffPosition="0" Velocity="127" />
      <note Length="0.0625" Pitch="35" RiffPosition="0.0625" Velocity="127" />
      <note Length="0.0625" Pitch="35" RiffPosition="0.125" Velocity="127" />
      <note Length="0.0625" Pitch="35" RiffPosition="0.1875" Velocity="127" />
      <note Length="0.09375" Pitch="35" RiffPosition="0.25" Velocity="127" />
      <note Length="0.03125" Pitch="35" RiffPosition="0.34375" Velocity="127" />
      <note Length="0.0625" Pitch="35" RiffPosition="0.375" Velocity="127" />
      <note Length="0.0625" Pitch="35" RiffPosition="0.4375" Velocity="127" />
      <note Length="0.0625" Pitch="35" RiffPosition="0.5" Velocity="127" />
      <note Length="0.0625" Pitch="35" RiffPosition="0.5625" Velocity="127" />
      <note Length="0.0625" Pitch="35" RiffPosition="0.625" Velocity="127" />
      <note Length="0.0625" Pitch="35" RiffPosition="0.6875" Velocity="127" />
      <note Length="0.09375" Pitch="35" RiffPosition="0.75" Velocity="127" />
      <note Length="0.03125" Pitch="35" RiffPosition="0.84375" Velocity="127" />
      <note Length="0.0625" Pitch="35" RiffPosition="0.875" Velocity="127" />
      <note Length="0.0625" Pitch="35" RiffPosition="0.9375" Velocity="127" />
      <note Length="0.0625" Pitch="35" RiffPosition="1" Velocity="127" />
      <note Length="0.0625" Pitch="35" RiffPosition="1.0625" Velocity="127" />
      <note Length="0.0625" Pitch="35" RiffPosition="1.125" Velocity="127" />
      <note Length="0.0625" Pitch="35" RiffPosition="1.1875" Velocity="127" />
      <note Length="0.09375" Pitch="35" RiffPosition="1.25" Velocity="127" />
      <note Length="0.03125" Pitch="35" RiffPosition="1.34375" Velocity="127" />
      <note Length="0.0625" Pitch="35" RiffPosition="1.375" Velocity="127" />
      <note Length="0.0625" Pitch="35" RiffPosition="1.4375" Velocity="127" />
      <note Length="0.0625" Pitch="35" RiffPosition="1.5" Velocity="127" />
      <note Length="0.0625" Pitch="35" RiffPosition="1.5625" Velocity="127" />
      <note Length="0.0625" Pitch="35" RiffPosition="1.625" Velocity="127" />
      <note Length="0.0625" Pitch="35" RiffPosition="1.6875" Velocity="127" />
      <note Length="0.09375" Pitch="35" RiffPosition="1.75" Velocity="127" />
      <note Length="0.03125" Pitch="35" RiffPosition="1.84375" Velocity="127" />
      <note Length="0.0625" Pitch="35" RiffPosition="1.875" Velocity="127" />
      <note Length="0.0625" Pitch="35" RiffPosition="1.9375" Velocity="127" />
      <note Length="0.0625" Pitch="35" RiffPosition="2" Velocity="127" />
      <note Length="0.0625" Pitch="35" RiffPosition="2.0625" Velocity="127" />
      <note Length="0.0625" Pitch="35" RiffPosition="2.125" Velocity="127" />
      <note Length="0.0625" Pitch="35" RiffPosition="2.1875" Velocity="127" />
      <note Length="0.09375" Pitch="35" RiffPosition="2.25" Velocity="127" />
      <note Length="0.03125" Pitch="35" RiffPosition="2.34375" Velocity="127" />
      <note Length="0.0625" Pitch="35" RiffPosition="2.375" Velocity="127" />
      <note Length="0.0625" Pitch="35" RiffPosition="2.4375" Velocity="127" />
      <note Length="0.0625" Pitch="35" RiffPosition="2.5" Velocity="127" />
      <note Length="0.0625" Pitch="35" RiffPosition="2.5625" Velocity="127" />
      <note Length="0.0625" Pitch="35" RiffPosition="2.625" Velocity="127" />
      <note Length="0.0625" Pitch="35" RiffPosition="2.6875" Velocity="127" />
      <note Length="0.09375" Pitch="35" RiffPosition="2.75" Velocity="127" />
      <note Length="0.03125" Pitch="35" RiffPosition="2.84375" Velocity="127" />
      <note Length="0.0625" Pitch="35" RiffPosition="2.875" Velocity="127" />
      <note Length="0.0625" Pitch="35" RiffPosition="2.9375" Velocity="127" />
      <note Length="0.0625" Pitch="35" RiffPosition="3" Velocity="127" />
      <note Length="0.0625" Pitch="35" RiffPosition="3.0625" Velocity="127" />
      <note Length="0.0625" Pitch="35" RiffPosition="3.125" Velocity="127" />
      <note Length="0.0625" Pitch="35" RiffPosition="3.1875" Velocity="127" />
      <note Length="0.09375" Pitch="35" RiffPosition="3.25" Velocity="127" />
      <note Length="0.03125" Pitch="35" RiffPosition="3.34375" Velocity="127" />
      <note Length="0.0625" Pitch="35" RiffPosition="3.375" Velocity="127" />
      <note Length="0.0625" Pitch="35" RiffPosition="3.4375" Velocity="127" />
      <note Length="0.0625" Pitch="35" RiffPosition="3.5" Velocity="127" />
      <note Length="0.0625" Pitch="35" RiffPosition="3.5625" Velocity="127" />
      <note Length="0.0625" Pitch="35" RiffPosition="3.625" Velocity="127" />
      <note Length="0.0625" Pitch="35" RiffPosition="3.6875" Velocity="127" />
      <note Length="0.09375" Pitch="35" RiffPosition="3.75" Velocity="127" />
      <note Length="0.03125" Pitch="35" RiffPosition="3.84375" Velocity="127" />
      <note Length="0.0625" Pitch="35" RiffPosition="3.875" Velocity="127" />
      <note Length="0.0625" Pitch="35" RiffPosition="3.9375" Velocity="127" />
      <note Length="0.0625" Pitch="35" RiffPosition="4" Velocity="0" />
      <note Length="0.0625" Pitch="35" RiffPosition="4.0625" Velocity="0" />
      <note Length="0.0625" Pitch="35" RiffPosition="4.125" Velocity="0" />
      <note Length="0.0625" Pitch="35" RiffPosition="4.1875" Velocity="0" />
      <note Length="0.09375" Pitch="35" RiffPosition="4.25" Velocity="0" />
      <note Length="0.03125" Pitch="35" RiffPosition="4.34375" Velocity="0" />
      <note Length="0.0625" Pitch="35" RiffPosition="4.375" Velocity="0" />
      <note Length="0.0625" Pitch="35" RiffPosition="4.4375" Velocity="0" />
      <note Length="0.0625" Pitch="35" RiffPosition="4.5" Velocity="0" />
      <note Length="0.0625" Pitch="35" RiffPosition="4.5625" Velocity="0" />
      <note Length="0.0625" Pitch="35" RiffPosition="4.625" Velocity="0" />
      <note Length="0.0625" Pitch="35" RiffPosition="4.6875" Velocity="0" />
      <note Length="0.09375" Pitch="35" RiffPosition="4.75" Velocity="0" />
      <note Length="0.03125" Pitch="35" RiffPosition="4.84375" Velocity="0" />
      <note Length="0.0625" Pitch="35" RiffPosition="4.875" Velocity="0" />
      <note Length="0.0625" Pitch="35" RiffPosition="4.9375" Velocity="0" />
      <note Length="0.0625" Pitch="35" RiffPosition="5" Velocity="0" />
      <note Length="0.0625" Pitch="35" RiffPosition="5.0625" Velocity="0" />
      <note Length="0.0625" Pitch="35" RiffPosition="5.125" Velocity="0" />
      <note Length="0.0625" Pitch="35" RiffPosition="5.1875" Velocity="0" />
      <note Length="0.09375" Pitch="35" RiffPosition="5.25" Velocity="0" />
      <note Length="0.03125" Pitch="35" RiffPosition="5.34375" Velocity="0" />
      <note Length="0.0625" Pitch="35" RiffPosition="5.375" Velocity="0" />
      <note Length="0.0625" Pitch="35" RiffPosition="5.4375" Velocity="0" />
      <note Length="0.0625" Pitch="35" RiffPosition="5.5" Velocity="0" />
      <note Length="0.0625" Pitch="35" RiffPosition="5.5625" Velocity="0" />
      <note Length="0.0625" Pitch="35" RiffPosition="5.625" Velocity="0" />
      <note Length="0.0625" Pitch="35" RiffPosition="5.6875" Velocity="0" />
      <note Length="0.09375" Pitch="35" RiffPosition="5.75" Velocity="0" />
      <note Length="0.03125" Pitch="35" RiffPosition="5.84375" Velocity="0" />
      <note Length="0.0625" Pitch="35" RiffPosition="5.875" Velocity="0" />
      <note Length="0.0625" Pitch="35" RiffPosition="5.9375" Velocity="0" />
      <note Length="0.0625" Pitch="35" RiffPosition="6" Velocity="0" />
      <note Length="0.0625" Pitch="35" RiffPosition="6.0625" Velocity="0" />
      <note Length="0.0625" Pitch="35" RiffPosition="6.125" Velocity="0" />
      <note Length="0.0625" Pitch="35" RiffPosition="6.1875" Velocity="0" />
      <note Length="0.09375" Pitch="35" RiffPosition="6.25" Velocity="0" />
      <note Length="0.03125" Pitch="35" RiffPosition="6.34375" Velocity="0" />
      <note Length="0.0625" Pitch="35" RiffPosition="6.375" Velocity="0" />
      <note Length="0.0625" Pitch="35" RiffPosition="6.4375" Velocity="0" />
      <note Length="0.0625" Pitch="35" RiffPosition="6.5" Velocity="0" />
      <note Length="0.0625" Pitch="35" RiffPosition="6.5625" Velocity="0" />
      <note Length="0.0625" Pitch="35" RiffPosition="6.625" Velocity="0" />
      <note Length="0.0625" Pitch="35" RiffPosition="6.6875" Velocity="0" />
      <note Length="0.09375" Pitch="35" RiffPosition="6.75" Velocity="0" />
      <note Length="0.03125" Pitch="35" RiffPosition="6.84375" Velocity="0" />
      <note Length="0.0625" Pitch="35" RiffPosition="6.875" Velocity="0" />
      <note Length="0.0625" Pitch="35" RiffPosition="6.9375" Velocity="0" />
      <note Length="0.0625" Pitch="35" RiffPosition="7" Velocity="0" />
      <note Length="0.0625" Pitch="35" RiffPosition="7.0625" Velocity="0" />
      <note Length="0.0625" Pitch="35" RiffPosition="7.125" Velocity="0" />
      <note Length="0.0625" Pitch="35" RiffPosition="7.1875" Velocity="0" />
      <note Length="0.09375" Pitch="35" RiffPosition="7.25" Velocity="0" />
      <note Length="0.03125" Pitch="35" RiffPosition="7.34375" Velocity="0" />
      <note Length="0.0625" Pitch="35" RiffPosition="7.375" Velocity="0" />
      <note Length="0.0625" Pitch="35" RiffPosition="7.4375" Velocity="0" />
      <note Length="0.0625" Pitch="35" RiffPosition="7.5" Velocity="0" />
      <note Length="0.0625" Pitch="35" RiffPosition="7.5625" Velocity="0" />
      <note Length="0.0625" Pitch="35" RiffPosition="7.625" Velocity="0" />
      <note Length="0.0625" Pitch="35" RiffPosition="7.6875" Velocity="0" />
      <note Length="0.09375" Pitch="35" RiffPosition="7.75" Velocity="0" />
      <note Length="0.03125" Pitch="35" RiffPosition="7.84375" Velocity="0" />
      <note Length="0.0625" Pitch="35" RiffPosition="7.875" Velocity="0" />
      <note Length="0.0625" Pitch="35" RiffPosition="7.9375" Velocity="0" />
      <note Length="0.0625" Pitch="35" RiffPosition="8" Velocity="127" />
      <note Length="0.0625" Pitch="35" RiffPosition="8.0625" Velocity="127" />
      <note Length="0.0625" Pitch="35" RiffPosition="8.125" Velocity="127" />
      <note Length="0.0625" Pitch="35" RiffPosition="8.1875" Velocity="127" />
      <note Length="0.09375" Pitch="35" RiffPosition="8.25" Velocity="127" />
      <note Length="0.03125" Pitch="35" RiffPosition="8.34375" Velocity="127" />
      <note Length="0.0625" Pitch="35" RiffPosition="8.375" Velocity="127" />
      <note Length="0.0625" Pitch="35" RiffPosition="8.4375" Velocity="127" />
      <note Length="0.0625" Pitch="35" RiffPosition="8.5" Velocity="127" />
      <note Length="0.0625" Pitch="35" RiffPosition="8.5625" Velocity="127" />
      <note Length="0.0625" Pitch="35" RiffPosition="8.625" Velocity="127" />
      <note Length="0.0625" Pitch="35" RiffPosition="8.6875" Velocity="127" />
      <note Length="0.09375" Pitch="35" RiffPosition="8.75" Velocity="127" />
      <note Length="0.03125" Pitch="35" RiffPosition="8.84375" Velocity="127" />
      <note Length="0.0625" Pitch="35" RiffPosition="8.875" Velocity="127" />
      <note Length="0.0625" Pitch="35" RiffPosition="8.9375" Velocity="127" />
      <note Length="0.0625" Pitch="35" RiffPosition="9" Velocity="127" />
      <note Length="0.0625" Pitch="35" RiffPosition="9.0625" Velocity="127" />
      <note Length="0.0625" Pitch="35" RiffPosition="9.125" Velocity="127" />
      <note Length="0.0625" Pitch="35" RiffPosition="9.1875" Velocity="127" />
      <note Length="0.09375" Pitch="35" RiffPosition="9.25" Velocity="127" />
      <note Length="0.03125" Pitch="35" RiffPosition="9.34375" Velocity="127" />
      <note Length="0.0625" Pitch="35" RiffPosition="9.375" Velocity="127" />
      <note Length="0.0625" Pitch="35" RiffPosition="9.4375" Velocity="127" />
      <note Length="0.0625" Pitch="35" RiffPosition="9.5" Velocity="127" />
      <note Length="0.0625" Pitch="35" RiffPosition="9.5625" Velocity="127" />
      <note Length="0.0625" Pitch="35" RiffPosition="9.625" Velocity="127" />
      <note Length="0.0625" Pitch="35" RiffPosition="9.6875" Velocity="127" />
      <note Length="0.09375" Pitch="35" RiffPosition="9.75" Velocity="127" />
      <note Length="0.03125" Pitch="35" RiffPosition="9.84375" Velocity="127" />
      <note Length="0.0625" Pitch="35" RiffPosition="9.875" Velocity="127" />
      <note Length="0.0625" Pitch="35" RiffPosition="9.9375" Velocity="127" />
      <note Length="0.0625" Pitch="35" RiffPosition="10" Velocity="127" />
      <note Length="0.0625" Pitch="35" RiffPosition="10.0625" Velocity="127" />
      <note Length="0.0625" Pitch="35" RiffPosition="10.125" Velocity="127" />
      <note Length="0.0625" Pitch="35" RiffPosition="10.1875" Velocity="127" />
      <note Length="0.09375" Pitch="35" RiffPosition="10.25" Velocity="127" />
      <note Length="0.03125" Pitch="35" RiffPosition="10.34375" Velocity="127" />
      <note Length="0.0625" Pitch="35" RiffPosition="10.375" Velocity="127" />
      <note Length="0.0625" Pitch="35" RiffPosition="10.4375" Velocity="127" />
      <note Length="0.0625" Pitch="35" RiffPosition="10.5" Velocity="127" />
      <note Length="0.0625" Pitch="35" RiffPosition="10.5625" Velocity="127" />
      <note Length="0.0625" Pitch="35" RiffPosition="10.625" Velocity="127" />
      <note Length="0.0625" Pitch="35" RiffPosition="10.6875" Velocity="127" />
      <note Length="0.09375" Pitch="35" RiffPosition="10.75" Velocity="127" />
      <note Length="0.03125" Pitch="35" RiffPosition="10.84375" Velocity="127" />
      <note Length="0.0625" Pitch="35" RiffPosition="10.875" Velocity="127" />
      <note Length="0.0625" Pitch="35" RiffPosition="10.9375" Velocity="127" />
      <note Length="0.0625" Pitch="35" RiffPosition="11" Velocity="127" />
      <note Length="0.0625" Pitch="35" RiffPosition="11.0625" Velocity="127" />
      <note Length="0.0625" Pitch="35" RiffPosition="11.125" Velocity="127" />
      <note Length="0.0625" Pitch="35" RiffPosition="11.1875" Velocity="127" />
      <note Length="0.09375" Pitch="35" RiffPosition="11.25" Velocity="127" />
      <note Length="0.03125" Pitch="35" RiffPosition="11.34375" Velocity="127" />
      <note Length="0.0625" Pitch="35" RiffPosition="11.375" Velocity="127" />
      <note Length="0.0625" Pitch="35" RiffPosition="11.4375" Velocity="127" />
      <note Length="0.0625" Pitch="35" RiffPosition="11.5" Velocity="127" />
      <note Length="0.0625" Pitch="35" RiffPosition="11.5625" Velocity="127" />
      <note Length="0.0625" Pitch="35" RiffPosition="11.625" Velocity="127" />
      <note Length="0.0625" Pitch="35" RiffPosition="11.6875" Velocity="127" />
      <note Length="0.09375" Pitch="35" RiffPosition="11.75" Velocity="127" />
      <note Length="0.03125" Pitch="35" RiffPosition="11.84375" Velocity="127" />
      <note Length="0.0625" Pitch="35" RiffPosition="11.875" Velocity="127" />
      <note Length="0.0625" Pitch="35" RiffPosition="11.9375" Velocity="127" />
    </riff>
  </riffPack>
  <lyrics>
    <line>****** ****** ****** ******</line>
    <line>****** ****** ****** ******</line>
    <line>****** ****** ****** ******</line>
    <line>****** ****** ****** ******</line>
    <line>****** ****** ****** ******</line>
    <line>****** ****** ****** ******</line>
    <line>****** ****** ****** ******</line>
    <line>****** ****** ****** ******</line>
    <line>****** ****** ****** ******</line>
    <line>****** ****** ****** ******</line>
    <line>****** ****** ****** ******</line>
    <line>****** ****** ****** ******</line>
    <line>****** ****** ****** ******</line>
    <line>****** ****** ****** ******</line>
    <line>****** ****** ****** ******</line>
    <line>****** ****** ****** ******</line>
  </lyrics>
  <lyricsSongFactoryCollection LanguageCode="en">
    <lyricSongFactory BarCount="24" BarCountPerChorus="2">
      <barInfo>
        <bar Intensity="0" LetterCount="16" />
        <bar Intensity="0" LetterCount="16" />
        <bar Intensity="0.1764706" LetterCount="34" />
        <bar Intensity="0.1764706" LetterCount="34" />
        <bar Intensity="1" LetterCount="34" />
        <bar Intensity="1" LetterCount="34" />
        <bar Intensity="0.1764706" LetterCount="34" />
        <bar Intensity="0.1764706" LetterCount="34" />
        <bar Intensity="1" LetterCount="34" />
        <bar Intensity="1" LetterCount="34" />
        <bar Intensity="0" LetterCount="16" />
        <bar Intensity="0" LetterCount="16" />
        <bar Intensity="0" LetterCount="16" />
        <bar Intensity="0" LetterCount="16" />
        <bar Intensity="0.1764706" LetterCount="34" />
        <bar Intensity="0.1764706" LetterCount="34" />
        <bar Intensity="1" LetterCount="16" />
        <bar Intensity="1" LetterCount="16" />
        <bar Intensity="1" LetterCount="16" />
        <bar Intensity="1" LetterCount="16" />
        <bar Intensity="1" LetterCount="16" />
        <bar Intensity="1" LetterCount="16" />
        <bar Intensity="1" LetterCount="16" />
        <bar Intensity="1" LetterCount="16" />
      </barInfo>
      <themeList>
        <theme>philosophy</theme>
        <theme>geek</theme>
        <theme>money</theme>
        <theme>activism</theme>
        <theme>metaphysics</theme>
      </themeList>
      <themeBlackList />
    </lyricSongFactory>
  </lyricsSongFactoryCollection>
  <predefinedGenerator BarCount="24" IsOverrideScale="True" IsOverrideTempo="True" Modulation="0" ScaleName="gypsyPentatonic" Tempo="96" LyricsToMusicPhase="0">
    <predefinedGeneratorTrack MetaRiffPackName="MeditativeJapan">
      <barInfo isOn="True" />
      <barInfo isOn="True" />
      <barInfo isOn="True" />
      <barInfo isOn="True" />
      <barInfo isOn="True" />
      <barInfo isOn="True" />
      <barInfo isOn="True" />
      <barInfo isOn="True" />
      <barInfo isOn="True" />
      <barInfo isOn="True" />
      <barInfo isOn="True" />
      <barInfo isOn="True" />
      <barInfo isOn="False" />
      <barInfo isOn="False" />
      <barInfo isOn="False" />
      <barInfo isOn="False" />
      <barInfo isOn="False" />
      <barInfo isOn="False" />
      <barInfo isOn="False" />
      <barInfo isOn="False" />
      <barInfo isOn="False" />
      <barInfo isOn="False" />
      <barInfo isOn="False" />
      <barInfo isOn="False" />
    </predefinedGeneratorTrack>
    <predefinedGeneratorTrack MetaRiffPackName="DrumSnareQuad">
      <barInfo isOn="True" />
      <barInfo isOn="True" />
      <barInfo isOn="True" />
      <barInfo isOn="True" />
      <barInfo isOn="False" />
      <barInfo isOn="False" />
      <barInfo isOn="False" />
      <barInfo isOn="False" />
      <barInfo isOn="True" />
      <barInfo isOn="True" />
      <barInfo isOn="True" />
      <barInfo isOn="True" />
      <barInfo isOn="False" />
      <barInfo isOn="False" />
      <barInfo isOn="False" />
      <barInfo isOn="False" />
      <barInfo isOn="False" />
      <barInfo isOn="False" />
      <barInfo isOn="False" />
      <barInfo isOn="False" />
      <barInfo isOn="False" />
      <barInfo isOn="False" />
      <barInfo isOn="False" />
      <barInfo isOn="False" />
    </predefinedGeneratorTrack>
    <predefinedGeneratorTrack MetaRiffPackName="DrumTernaryTwo">
      <barInfo isOn="False" />
      <barInfo isOn="False" />
      <barInfo isOn="False" />
      <barInfo isOn="False" />
      <barInfo isOn="True" />
      <barInfo isOn="False" />
      <barInfo isOn="False" />
      <barInfo isOn="True" />
      <barInfo isOn="True" />
      <barInfo isOn="True" />
      <barInfo isOn="True" />
      <barInfo isOn="True" />
      <barInfo isOn="False" />
      <barInfo isOn="False" />
      <barInfo isOn="False" />
      <barInfo isOn="False" />
      <barInfo isOn="False" />
      <barInfo isOn="False" />
      <barInfo isOn="False" />
      <barInfo isOn="False" />
      <barInfo isOn="False" />
      <barInfo isOn="False" />
      <barInfo isOn="False" />
      <barInfo isOn="False" />
    </predefinedGeneratorTrack>
    <predefinedGeneratorTrack MetaRiffPackName="DrumBassBinary">
      <barInfo isOn="True" />
      <barInfo isOn="True" />
      <barInfo isOn="True" />
      <barInfo isOn="True" />
      <barInfo isOn="False" />
      <barInfo isOn="False" />
      <barInfo isOn="False" />
      <barInfo isOn="False" />
      <barInfo isOn="True" />
      <barInfo isOn="True" />
      <barInfo isOn="True" />
      <barInfo isOn="True" />
      <barInfo isOn="False" />
      <barInfo isOn="False" />
      <barInfo isOn="False" />
      <barInfo isOn="False" />
      <barInfo isOn="False" />
      <barInfo isOn="False" />
      <barInfo isOn="False" />
      <barInfo isOn="False" />
      <barInfo isOn="False" />
      <barInfo isOn="False" />
      <barInfo isOn="False" />
      <barInfo isOn="False" />
    </predefinedGeneratorTrack>
  </predefinedGenerator>
</song>