<?xml version="1.0" encoding="UTF-8"?>
<song>
  <riffPack Tempo="102">
    <riff IsDrum="False" MidiInstrument="0" Tempo="145" Length="12">
      <note Length="0.015625" Pitch="42" RiffPosition="0" Velocity="32" />
      <note Length="0.015625" Pitch="71" RiffPosition="0.015625" Velocity="79" />
      <note Length="0.015625" Pitch="59" RiffPosition="0.03125" Velocity="84" />
      <note Length="0.015625" Pitch="50" RiffPosition="0.046875" Velocity="43" />
      <note Length="0.03125" Pitch="57" RiffPosition="0.0625" Velocity="39" />
      <note Length="0.03125" Pitch="37" RiffPosition="0.09375" Velocity="69" />
      <note Length="0.125" Pitch="47" RiffPosition="0.125" Velocity="80" />
      <note Length="0.015625" Pitch="44" RiffPosition="0.25" Velocity="43" />
      <note Length="0.015625" Pitch="54" RiffPosition="0.265625" Velocity="50" />
      <note Length="0.015625" Pitch="54" RiffPosition="0.28125" Velocity="99" />
      <note Length="0.015625" Pitch="54" RiffPosition="0.296875" Velocity="61" />
      <note Length="0.03125" Pitch="54" RiffPosition="0.3125" Velocity="25" />
      <note Length="0.03125" Pitch="54" RiffPosition="0.34375" Velocity="80" />
      <note Length="0.125" Pitch="54" RiffPosition="0.375" Velocity="67" />
      <note Length="0.015625" Pitch="61" RiffPosition="0.5" Velocity="103" />
      <note Length="0.015625" Pitch="42" RiffPosition="0.515625" Velocity="56" />
      <note Length="0.015625" Pitch="33" RiffPosition="0.53125" Velocity="27" />
      <note Length="0.015625" Pitch="54" RiffPosition="0.546875" Velocity="67" />
      <note Length="0.03125" Pitch="47" RiffPosition="0.5625" Velocity="96" />
      <note Length="0.03125" Pitch="57" RiffPosition="0.59375" Velocity="41" />
      <note Length="0.125" Pitch="59" RiffPosition="0.625" Velocity="55" />
      <note Length="0.015625" Pitch="54" RiffPosition="0.75" Velocity="67" />
      <note Length="0.015625" Pitch="45" RiffPosition="0.765625" Velocity="85" />
      <note Length="0.015625" Pitch="42" RiffPosition="0.78125" Velocity="37" />
      <note Length="0.015625" Pitch="44" RiffPosition="0.796875" Velocity="49" />
      <note Length="0.03125" Pitch="54" RiffPosition="0.8125" Velocity="95" />
      <note Length="0.03125" Pitch="47" RiffPosition="0.84375" Velocity="31" />
      <note Length="0.125" Pitch="49" RiffPosition="0.875" Velocity="68" />
      <note Length="0.015625" Pitch="42" RiffPosition="1" Velocity="33" />
      <note Length="0.015625" Pitch="54" RiffPosition="1.015625" Velocity="54" />
      <note Length="0.015625" Pitch="42" RiffPosition="1.03125" Velocity="109" />
      <note Length="0.015625" Pitch="30" RiffPosition="1.046875" Velocity="68" />
      <note Length="0.03125" Pitch="59" RiffPosition="1.0625" Velocity="26" />
      <note Length="0.03125" Pitch="57" RiffPosition="1.09375" Velocity="94" />
      <note Length="0.125" Pitch="38" RiffPosition="1.125" Velocity="55" />
      <note Length="0.015625" Pitch="54" RiffPosition="1.25" Velocity="68" />
      <note Length="0.015625" Pitch="56" RiffPosition="1.265625" Velocity="25" />
      <note Length="0.015625" Pitch="47" RiffPosition="1.28125" Velocity="74" />
      <note Length="0.015625" Pitch="66" RiffPosition="1.296875" Velocity="86" />
      <note Length="0.03125" Pitch="57" RiffPosition="1.3125" Velocity="40" />
      <note Length="0.03125" Pitch="56" RiffPosition="1.34375" Velocity="101" />
      <note Length="0.125" Pitch="54" RiffPosition="1.375" Velocity="42" />
      <note Length="0.015625" Pitch="42" RiffPosition="1.5" Velocity="78" />
      <note Length="0.015625" Pitch="44" RiffPosition="1.515625" Velocity="81" />
      <note Length="0.015625" Pitch="54" RiffPosition="1.53125" Velocity="38" />
      <note Length="0.015625" Pitch="56" RiffPosition="1.546875" Velocity="42" />
      <note Length="0.03125" Pitch="49" RiffPosition="1.5625" Velocity="121" />
      <note Length="0.03125" Pitch="50" RiffPosition="1.59375" Velocity="24" />
      <note Length="0.125" Pitch="61" RiffPosition="1.625" Velocity="80" />
      <note Length="0.015625" Pitch="47" RiffPosition="1.75" Velocity="42" />
      <note Length="0.015625" Pitch="66" RiffPosition="1.765625" Velocity="96" />
      <note Length="0.015625" Pitch="56" RiffPosition="1.78125" Velocity="61" />
      <note Length="0.015625" Pitch="47" RiffPosition="1.796875" Velocity="24" />
      <note Length="0.03125" Pitch="54" RiffPosition="1.8125" Velocity="70" />
      <note Length="0.03125" Pitch="38" RiffPosition="1.84375" Velocity="34" />
      <note Length="0.125" Pitch="42" RiffPosition="1.875" Velocity="113" />
      <note Length="0.015625" Pitch="45" RiffPosition="2" Velocity="58" />
      <note Length="0.015625" Pitch="54" RiffPosition="2.015625" Velocity="29" />
      <note Length="0.015625" Pitch="42" RiffPosition="2.03125" Velocity="72" />
      <note Length="0.015625" Pitch="54" RiffPosition="2.046875" Velocity="93" />
      <note Length="0.03125" Pitch="42" RiffPosition="2.0625" Velocity="51" />
      <note Length="0.03125" Pitch="59" RiffPosition="2.09375" Velocity="119" />
      <note Length="0.125" Pitch="59" RiffPosition="2.125" Velocity="30" />
      <note Length="0.015625" Pitch="66" RiffPosition="2.25" Velocity="113" />
      <note Length="0.015625" Pitch="57" RiffPosition="2.265625" Velocity="40" />
      <note Length="0.015625" Pitch="30" RiffPosition="2.28125" Velocity="49" />
      <note Length="0.015625" Pitch="57" RiffPosition="2.296875" Velocity="95" />
      <note Length="0.03125" Pitch="50" RiffPosition="2.3125" Velocity="65" />
      <note Length="0.03125" Pitch="57" RiffPosition="2.34375" Velocity="76" />
      <note Length="0.125" Pitch="56" RiffPosition="2.375" Velocity="23" />
      <note Length="0.015625" Pitch="54" RiffPosition="2.5" Velocity="53" />
      <note Length="0.015625" Pitch="47" RiffPosition="2.515625" Velocity="100" />
      <note Length="0.015625" Pitch="56" RiffPosition="2.53125" Velocity="63" />
      <note Length="0.015625" Pitch="49" RiffPosition="2.546875" Velocity="22" />
      <note Length="0.03125" Pitch="69" RiffPosition="2.5625" Velocity="60" />
      <note Length="0.03125" Pitch="42" RiffPosition="2.59375" Velocity="49" />
      <note Length="0.125" Pitch="42" RiffPosition="2.625" Velocity="105" />
      <note Length="0.015625" Pitch="49" RiffPosition="2.75" Velocity="23" />
      <note Length="0.015625" Pitch="57" RiffPosition="2.765625" Velocity="71" />
      <note Length="0.015625" Pitch="49" RiffPosition="2.78125" Velocity="119" />
      <note Length="0.015625" Pitch="38" RiffPosition="2.796875" Velocity="41" />
      <note Length="0.03125" Pitch="57" RiffPosition="2.8125" Velocity="45" />
      <note Length="0.03125" Pitch="57" RiffPosition="2.84375" Velocity="59" />
      <note Length="0.125" Pitch="30" RiffPosition="2.875" Velocity="88" />
      <note Length="0.015625" Pitch="66" RiffPosition="3" Velocity="83" />
      <note Length="0.015625" Pitch="54" RiffPosition="3.015625" Velocity="36" />
      <note Length="0.015625" Pitch="47" RiffPosition="3.03125" Velocity="47" />
      <note Length="0.015625" Pitch="54" RiffPosition="3.046875" Velocity="118" />
      <note Length="0.03125" Pitch="42" RiffPosition="3.0625" Velocity="76" />
      <note Length="0.03125" Pitch="42" RiffPosition="3.09375" Velocity="62" />
      <note Length="0.125" Pitch="61" RiffPosition="3.125" Velocity="35" />
      <note Length="0.015625" Pitch="57" RiffPosition="3.25" Velocity="88" />
      <note Length="0.015625" Pitch="50" RiffPosition="3.265625" Velocity="65" />
      <note Length="0.015625" Pitch="69" RiffPosition="3.28125" Velocity="24" />
      <note Length="0.015625" Pitch="61" RiffPosition="3.296875" Velocity="70" />
      <note Length="0.03125" Pitch="42" RiffPosition="3.3125" Velocity="90" />
      <note Length="0.03125" Pitch="42" RiffPosition="3.34375" Velocity="51" />
      <note Length="0.125" Pitch="57" RiffPosition="3.375" Velocity="48" />
      <note Length="0.015625" Pitch="47" RiffPosition="3.5" Velocity="28" />
      <note Length="0.015625" Pitch="38" RiffPosition="3.515625" Velocity="75" />
      <note Length="0.015625" Pitch="57" RiffPosition="3.53125" Velocity="88" />
      <note Length="0.015625" Pitch="50" RiffPosition="3.546875" Velocity="47" />
      <note Length="0.03125" Pitch="59" RiffPosition="3.5625" Velocity="35" />
      <note Length="0.03125" Pitch="44" RiffPosition="3.59375" Velocity="73" />
      <note Length="0.125" Pitch="54" RiffPosition="3.625" Velocity="76" />
      <note Length="0.015625" Pitch="30" RiffPosition="3.75" Velocity="48" />
      <note Length="0.015625" Pitch="59" RiffPosition="3.765625" Velocity="46" />
      <note Length="0.015625" Pitch="50" RiffPosition="3.78125" Velocity="95" />
      <note Length="0.015625" Pitch="57" RiffPosition="3.796875" Velocity="66" />
      <note Length="0.03125" Pitch="50" RiffPosition="3.8125" Velocity="20" />
      <note Length="0.03125" Pitch="61" RiffPosition="3.84375" Velocity="84" />
      <note Length="0.125" Pitch="54" RiffPosition="3.875" Velocity="63" />
      <note Length="0.015625" Pitch="68" RiffPosition="4" Velocity="98" />
      <note Length="0.015625" Pitch="57" RiffPosition="4.015625" Velocity="61" />
      <note Length="0.015625" Pitch="37" RiffPosition="4.03125" Velocity="22" />
      <note Length="0.015625" Pitch="54" RiffPosition="4.046875" Velocity="63" />
      <note Length="0.03125" Pitch="47" RiffPosition="4.0625" Velocity="101" />
      <note Length="0.03125" Pitch="42" RiffPosition="4.09375" Velocity="37" />
      <note Length="0.125" Pitch="42" RiffPosition="4.125" Velocity="60" />
      <note Length="0.015625" Pitch="59" RiffPosition="4.25" Velocity="63" />
      <note Length="0.015625" Pitch="42" RiffPosition="4.265625" Velocity="116" />
      <note Length="0.015625" Pitch="61" RiffPosition="4.28125" Velocity="41" />
      <note Length="0.015625" Pitch="42" RiffPosition="4.296875" Velocity="45" />
      <note Length="0.03125" Pitch="71" RiffPosition="4.3125" Velocity="91" />
      <note Length="0.03125" Pitch="42" RiffPosition="4.34375" Velocity="26" />
      <note Length="0.125" Pitch="42" RiffPosition="4.375" Velocity="73" />
      <note Length="0.015625" Pitch="49" RiffPosition="4.5" Velocity="37" />
      <note Length="0.015625" Pitch="57" RiffPosition="4.515625" Velocity="50" />
      <note Length="0.015625" Pitch="50" RiffPosition="4.53125" Velocity="93" />
      <note Length="0.015625" Pitch="30" RiffPosition="4.546875" Velocity="72" />
      <note Length="0.03125" Pitch="54" RiffPosition="4.5625" Velocity="30" />
      <note Length="0.03125" Pitch="54" RiffPosition="4.59375" Velocity="98" />
      <note Length="0.125" Pitch="47" RiffPosition="4.625" Velocity="51" />
      <note Length="0.015625" Pitch="61" RiffPosition="4.75" Velocity="73" />
      <note Length="0.015625" Pitch="42" RiffPosition="4.765625" Velocity="21" />
      <note Length="0.015625" Pitch="30" RiffPosition="4.78125" Velocity="70" />
      <note Length="0.015625" Pitch="61" RiffPosition="4.796875" Velocity="115" />
      <note Length="0.03125" Pitch="42" RiffPosition="4.8125" Velocity="45" />
      <note Length="0.03125" Pitch="42" RiffPosition="4.84375" Velocity="97" />
      <note Length="0.125" Pitch="54" RiffPosition="4.875" Velocity="38" />
      <note Length="0.015625" Pitch="59" RiffPosition="5" Velocity="0" />
      <note Length="0.015625" Pitch="50" RiffPosition="5.015625" Velocity="0" />
      <note Length="0.015625" Pitch="68" RiffPosition="5.03125" Velocity="0" />
      <note Length="0.015625" Pitch="57" RiffPosition="5.046875" Velocity="0" />
      <note Length="0.03125" Pitch="49" RiffPosition="5.0625" Velocity="0" />
      <note Length="0.03125" Pitch="47" RiffPosition="5.09375" Velocity="0" />
      <note Length="0.125" Pitch="54" RiffPosition="5.125" Velocity="0" />
      <note Length="0.015625" Pitch="42" RiffPosition="5.25" Velocity="0" />
      <note Length="0.015625" Pitch="44" RiffPosition="5.265625" Velocity="0" />
      <note Length="0.015625" Pitch="54" RiffPosition="5.28125" Velocity="0" />
      <note Length="0.015625" Pitch="54" RiffPosition="5.296875" Velocity="0" />
      <note Length="0.03125" Pitch="54" RiffPosition="5.3125" Velocity="0" />
      <note Length="0.03125" Pitch="44" RiffPosition="5.34375" Velocity="0" />
      <note Length="0.125" Pitch="42" RiffPosition="5.375" Velocity="0" />
      <note Length="0.015625" Pitch="30" RiffPosition="5.5" Velocity="0" />
      <note Length="0.015625" Pitch="59" RiffPosition="5.515625" Velocity="0" />
      <note Length="0.015625" Pitch="42" RiffPosition="5.53125" Velocity="0" />
      <note Length="0.015625" Pitch="54" RiffPosition="5.546875" Velocity="0" />
      <note Length="0.03125" Pitch="54" RiffPosition="5.5625" Velocity="0" />
      <note Length="0.03125" Pitch="66" RiffPosition="5.59375" Velocity="0" />
      <note Length="0.125" Pitch="66" RiffPosition="5.625" Velocity="0" />
      <note Length="0.015625" Pitch="54" RiffPosition="5.75" Velocity="0" />
      <note Length="0.015625" Pitch="42" RiffPosition="5.765625" Velocity="0" />
      <note Length="0.015625" Pitch="32" RiffPosition="5.78125" Velocity="0" />
      <note Length="0.015625" Pitch="42" RiffPosition="5.796875" Velocity="0" />
      <note Length="0.03125" Pitch="44" RiffPosition="5.8125" Velocity="0" />
      <note Length="0.03125" Pitch="54" RiffPosition="5.84375" Velocity="0" />
      <note Length="0.125" Pitch="56" RiffPosition="5.875" Velocity="0" />
      <note Length="0.015625" Pitch="54" RiffPosition="6" Velocity="48" />
      <note Length="0.015625" Pitch="42" RiffPosition="6.015625" Velocity="95" />
      <note Length="0.015625" Pitch="59" RiffPosition="6.03125" Velocity="68" />
      <note Length="0.015625" Pitch="50" RiffPosition="6.046875" Velocity="27" />
      <note Length="0.03125" Pitch="68" RiffPosition="6.0625" Velocity="55" />
      <note Length="0.03125" Pitch="49" RiffPosition="6.09375" Velocity="53" />
      <note Length="0.125" Pitch="47" RiffPosition="6.125" Velocity="110" />
      <note Length="0.015625" Pitch="42" RiffPosition="6.25" Velocity="27" />
      <note Length="0.015625" Pitch="54" RiffPosition="6.265625" Velocity="66" />
      <note Length="0.015625" Pitch="54" RiffPosition="6.28125" Velocity="115" />
      <note Length="0.015625" Pitch="47" RiffPosition="6.296875" Velocity="45" />
      <note Length="0.03125" Pitch="66" RiffPosition="6.3125" Velocity="41" />
      <note Length="0.03125" Pitch="54" RiffPosition="6.34375" Velocity="64" />
      <note Length="0.125" Pitch="44" RiffPosition="6.375" Velocity="83" />
      <note Length="0.015625" Pitch="32" RiffPosition="6.5" Velocity="87" />
      <note Length="0.015625" Pitch="42" RiffPosition="6.515625" Velocity="40" />
      <note Length="0.015625" Pitch="44" RiffPosition="6.53125" Velocity="43" />
      <note Length="0.015625" Pitch="54" RiffPosition="6.546875" Velocity="84" />
      <note Length="0.03125" Pitch="56" RiffPosition="6.5625" Velocity="80" />
      <note Length="0.03125" Pitch="57" RiffPosition="6.59375" Velocity="58" />
      <note Length="0.125" Pitch="69" RiffPosition="6.625" Velocity="39" />
      <note Length="0.015625" Pitch="54" RiffPosition="6.75" Velocity="83" />
      <note Length="0.015625" Pitch="45" RiffPosition="6.765625" Velocity="69" />
      <note Length="0.015625" Pitch="54" RiffPosition="6.78125" Velocity="20" />
      <note Length="0.015625" Pitch="54" RiffPosition="6.796875" Velocity="65" />
      <note Length="0.03125" Pitch="45" RiffPosition="6.8125" Velocity="111" />
      <note Length="0.03125" Pitch="47" RiffPosition="6.84375" Velocity="47" />
      <note Length="0.125" Pitch="57" RiffPosition="6.875" Velocity="52" />
      <note Length="0.015625" Pitch="42" RiffPosition="7" Velocity="23" />
      <note Length="0.015625" Pitch="44" RiffPosition="7.015625" Velocity="70" />
      <note Length="0.015625" Pitch="54" RiffPosition="7.03125" Velocity="93" />
      <note Length="0.015625" Pitch="42" RiffPosition="7.046875" Velocity="52" />
      <note Length="0.03125" Pitch="59" RiffPosition="7.0625" Velocity="30" />
      <note Length="0.03125" Pitch="30" RiffPosition="7.09375" Velocity="78" />
      <note Length="0.125" Pitch="49" RiffPosition="7.125" Velocity="71" />
      <note Length="0.015625" Pitch="47" RiffPosition="7.25" Velocity="52" />
      <note Length="0.015625" Pitch="66" RiffPosition="7.265625" Velocity="41" />
      <note Length="0.015625" Pitch="57" RiffPosition="7.28125" Velocity="90" />
      <note Length="0.015625" Pitch="66" RiffPosition="7.296875" Velocity="70" />
      <note Length="0.03125" Pitch="57" RiffPosition="7.3125" Velocity="24" />
      <note Length="0.03125" Pitch="66" RiffPosition="7.34375" Velocity="89" />
      <note Length="0.125" Pitch="35" RiffPosition="7.375" Velocity="58" />
      <note Length="0.015625" Pitch="54" RiffPosition="7.5" Velocity="94" />
      <note Length="0.015625" Pitch="54" RiffPosition="7.515625" Velocity="65" />
      <note Length="0.015625" Pitch="47" RiffPosition="7.53125" Velocity="22" />
      <note Length="0.015625" Pitch="56" RiffPosition="7.546875" Velocity="59" />
      <note Length="0.03125" Pitch="49" RiffPosition="7.5625" Velocity="105" />
      <note Length="0.03125" Pitch="59" RiffPosition="7.59375" Velocity="33" />
      <note Length="0.125" Pitch="61" RiffPosition="7.625" Velocity="64" />
      <note Length="0.015625" Pitch="57" RiffPosition="7.75" Velocity="58" />
      <note Length="0.015625" Pitch="47" RiffPosition="7.765625" Velocity="112" />
      <note Length="0.015625" Pitch="54" RiffPosition="7.78125" Velocity="45" />
      <note Length="0.015625" Pitch="47" RiffPosition="7.796875" Velocity="40" />
      <note Length="0.03125" Pitch="37" RiffPosition="7.8125" Velocity="86" />
      <note Length="0.03125" Pitch="49" RiffPosition="7.84375" Velocity="22" />
      <note Length="0.125" Pitch="50" RiffPosition="7.875" Velocity="77" />
      <note Length="0.015625" Pitch="54" RiffPosition="8" Velocity="41" />
      <note Length="0.015625" Pitch="54" RiffPosition="8.015625" Velocity="45" />
      <note Length="0.015625" Pitch="42" RiffPosition="8.03125" Velocity="88" />
      <note Length="0.015625" Pitch="44" RiffPosition="8.046875" Velocity="77" />
      <note Length="0.03125" Pitch="54" RiffPosition="8.0625" Velocity="35" />
      <note Length="0.03125" Pitch="59" RiffPosition="8.09375" Velocity="103" />
      <note Length="0.125" Pitch="30" RiffPosition="8.125" Velocity="46" />
      <note Length="0.015625" Pitch="37" RiffPosition="8.25" Velocity="77" />
      <note Length="0.015625" Pitch="57" RiffPosition="8.265625" Velocity="24" />
      <note Length="0.015625" Pitch="49" RiffPosition="8.28125" Velocity="65" />
      <note Length="0.015625" Pitch="69" RiffPosition="8.296875" Velocity="111" />
      <note Length="0.03125" Pitch="59" RiffPosition="8.3125" Velocity="49" />
      <note Length="0.03125" Pitch="57" RiffPosition="8.34375" Velocity="92" />
      <note Length="0.125" Pitch="66" RiffPosition="8.375" Velocity="33" />
      <note Length="0.015625" Pitch="54" RiffPosition="8.5" Velocity="69" />
      <note Length="0.015625" Pitch="47" RiffPosition="8.515625" Velocity="90" />
      <note Length="0.015625" Pitch="66" RiffPosition="8.53125" Velocity="47" />
      <note Length="0.015625" Pitch="57" RiffPosition="8.546875" Velocity="34" />
      <note Length="0.03125" Pitch="50" RiffPosition="8.5625" Velocity="76" />
      <note Length="0.03125" Pitch="42" RiffPosition="8.59375" Velocity="32" />
      <note Length="0.125" Pitch="54" RiffPosition="8.625" Velocity="89" />
      <note Length="0.015625" Pitch="49" RiffPosition="8.75" Velocity="33" />
      <note Length="0.015625" Pitch="38" RiffPosition="8.765625" Velocity="87" />
      <note Length="0.015625" Pitch="57" RiffPosition="8.78125" Velocity="70" />
      <note Length="0.015625" Pitch="49" RiffPosition="8.796875" Velocity="25" />
      <note Length="0.03125" Pitch="57" RiffPosition="8.8125" Velocity="61" />
      <note Length="0.03125" Pitch="30" RiffPosition="8.84375" Velocity="43" />
      <note Length="0.125" Pitch="42" RiffPosition="8.875" Velocity="104" />
      <note Length="0.015625" Pitch="47" RiffPosition="9" Velocity="66" />
      <note Length="0.015625" Pitch="66" RiffPosition="9.015625" Velocity="20" />
      <note Length="0.015625" Pitch="54" RiffPosition="9.03125" Velocity="63" />
      <note Length="0.015625" Pitch="54" RiffPosition="9.046875" Velocity="102" />
      <note Length="0.03125" Pitch="42" RiffPosition="9.0625" Velocity="60" />
      <note Length="0.03125" Pitch="54" RiffPosition="9.09375" Velocity="78" />
      <note Length="0.125" Pitch="32" RiffPosition="9.125" Velocity="21" />
      <note Length="0.015625" Pitch="69" RiffPosition="9.25" Velocity="104" />
      <note Length="0.015625" Pitch="59" RiffPosition="9.265625" Velocity="49" />
      <note Length="0.015625" Pitch="42" RiffPosition="9.28125" Velocity="40" />
      <note Length="0.015625" Pitch="59" RiffPosition="9.296875" Velocity="86" />
      <note Length="0.03125" Pitch="42" RiffPosition="9.3125" Velocity="74" />
      <note Length="0.03125" Pitch="59" RiffPosition="9.34375" Velocity="67" />
      <note Length="0.125" Pitch="57" RiffPosition="9.375" Velocity="32" />
      <note Length="0.015625" Pitch="56" RiffPosition="9.5" Velocity="44" />
      <note Length="0.015625" Pitch="49" RiffPosition="9.515625" Velocity="91" />
      <note Length="0.015625" Pitch="57" RiffPosition="9.53125" Velocity="72" />
      <note Length="0.015625" Pitch="50" RiffPosition="9.546875" Velocity="31" />
      <note Length="0.03125" Pitch="30" RiffPosition="9.5625" Velocity="51" />
      <note Length="0.03125" Pitch="42" RiffPosition="9.59375" Velocity="57" />
      <note Length="0.125" Pitch="54" RiffPosition="9.625" Velocity="114" />
      <note Length="0.015625" Pitch="42" RiffPosition="9.75" Velocity="32" />
      <note Length="0.015625" Pitch="59" RiffPosition="9.765625" Velocity="62" />
      <note Length="0.015625" Pitch="50" RiffPosition="9.78125" Velocity="111" />
      <note Length="0.015625" Pitch="30" RiffPosition="9.796875" Velocity="49" />
      <note Length="0.03125" Pitch="59" RiffPosition="9.8125" Velocity="36" />
      <note Length="0.03125" Pitch="59" RiffPosition="9.84375" Velocity="68" />
      <note Length="0.125" Pitch="44" RiffPosition="9.875" Velocity="79" />
      <note Length="0.015625" Pitch="38" RiffPosition="10" Velocity="91" />
      <note Length="0.015625" Pitch="57" RiffPosition="10.015625" Velocity="45" />
      <note Length="0.015625" Pitch="47" RiffPosition="10.03125" Velocity="38" />
      <note Length="0.015625" Pitch="66" RiffPosition="10.046875" Velocity="79" />
      <note Length="0.03125" Pitch="54" RiffPosition="10.0625" Velocity="85" />
      <note Length="0.03125" Pitch="42" RiffPosition="10.09375" Velocity="53" />
      <note Length="0.125" Pitch="54" RiffPosition="10.125" Velocity="44" />
      <note Length="0.015625" Pitch="59" RiffPosition="10.25" Velocity="79" />
      <note Length="0.015625" Pitch="42" RiffPosition="10.265625" Velocity="74" />
      <note Length="0.015625" Pitch="71" RiffPosition="10.28125" Velocity="25" />
      <note Length="0.015625" Pitch="54" RiffPosition="10.296875" Velocity="61" />
      <note Length="0.03125" Pitch="42" RiffPosition="10.3125" Velocity="107" />
      <note Length="0.03125" Pitch="42" RiffPosition="10.34375" Velocity="42" />
      <note Length="0.125" Pitch="59" RiffPosition="10.375" Velocity="56" />
      <note Length="0.015625" Pitch="49" RiffPosition="10.5" Velocity="21" />
      <note Length="0.015625" Pitch="30" RiffPosition="10.515625" Velocity="66" />
      <note Length="0.015625" Pitch="59" RiffPosition="10.53125" Velocity="97" />
      <note Length="0.015625" Pitch="42" RiffPosition="10.546875" Velocity="56" />
      <note Length="0.03125" Pitch="54" RiffPosition="10.5625" Velocity="26" />
      <note Length="0.03125" Pitch="45" RiffPosition="10.59375" Velocity="82" />
      <note Length="0.125" Pitch="56" RiffPosition="10.625" Velocity="67" />
      <note Length="0.015625" Pitch="30" RiffPosition="10.75" Velocity="56" />
      <note Length="0.015625" Pitch="61" RiffPosition="10.765625" Velocity="37" />
      <note Length="0.015625" Pitch="42" RiffPosition="10.78125" Velocity="86" />
      <note Length="0.015625" Pitch="32" RiffPosition="10.796875" Velocity="74" />
      <note Length="0.03125" Pitch="42" RiffPosition="10.8125" Velocity="28" />
      <note Length="0.03125" Pitch="54" RiffPosition="10.84375" Velocity="113" />
      <note Length="0.125" Pitch="35" RiffPosition="10.875" Velocity="54" />
      <note Length="0.015625" Pitch="69" RiffPosition="11" Velocity="0" />
      <note Length="0.015625" Pitch="59" RiffPosition="11.015625" Velocity="0" />
      <note Length="0.015625" Pitch="50" RiffPosition="11.03125" Velocity="0" />
      <note Length="0.015625" Pitch="57" RiffPosition="11.046875" Velocity="0" />
      <note Length="0.03125" Pitch="47" RiffPosition="11.0625" Velocity="0" />
      <note Length="0.03125" Pitch="54" RiffPosition="11.09375" Velocity="0" />
      <note Length="0.125" Pitch="54" RiffPosition="11.125" Velocity="0" />
      <note Length="0.015625" Pitch="54" RiffPosition="11.25" Velocity="0" />
      <note Length="0.015625" Pitch="42" RiffPosition="11.265625" Velocity="0" />
      <note Length="0.015625" Pitch="54" RiffPosition="11.28125" Velocity="0" />
      <note Length="0.015625" Pitch="54" RiffPosition="11.296875" Velocity="0" />
      <note Length="0.03125" Pitch="45" RiffPosition="11.3125" Velocity="0" />
      <note Length="0.03125" Pitch="42" RiffPosition="11.34375" Velocity="0" />
      <note Length="0.125" Pitch="42" RiffPosition="11.375" Velocity="0" />
      <note Length="0.015625" Pitch="42" RiffPosition="11.5" Velocity="0" />
      <note Length="0.015625" Pitch="59" RiffPosition="11.515625" Velocity="0" />
      <note Length="0.015625" Pitch="42" RiffPosition="11.53125" Velocity="0" />
      <note Length="0.015625" Pitch="44" RiffPosition="11.546875" Velocity="0" />
      <note Length="0.03125" Pitch="54" RiffPosition="11.5625" Velocity="0" />
      <note Length="0.03125" Pitch="66" RiffPosition="11.59375" Velocity="0" />
      <note Length="0.125" Pitch="49" RiffPosition="11.625" Velocity="0" />
      <note Length="0.015625" Pitch="33" RiffPosition="11.75" Velocity="0" />
      <note Length="0.015625" Pitch="42" RiffPosition="11.765625" Velocity="0" />
      <note Length="0.015625" Pitch="44" RiffPosition="11.78125" Velocity="0" />
      <note Length="0.015625" Pitch="54" RiffPosition="11.796875" Velocity="0" />
      <note Length="0.03125" Pitch="42" RiffPosition="11.8125" Velocity="0" />
      <note Length="0.03125" Pitch="54" RiffPosition="11.84375" Velocity="0" />
      <note Length="0.125" Pitch="66" RiffPosition="11.875" Velocity="0" />
    </riff>
    <riff IsDrum="False" MidiInstrument="0" Tempo="75" Length="12">
      <note Length="0.03125" Pitch="66" RiffPosition="0" Velocity="42" />
      <note Length="0.03125" Pitch="57" RiffPosition="0.03125" Velocity="85" />
      <note Length="0.0234375" Pitch="42" RiffPosition="0.0625" Velocity="23" />
      <note Length="0.0078125" Pitch="30" RiffPosition="0.0859375" Velocity="86" />
      <note Length="0.0078125" Pitch="45" RiffPosition="0.09375" Velocity="42" />
      <note Length="0.0234375" Pitch="49" RiffPosition="0.1015625" Velocity="42" />
      <note Length="0.015625" Pitch="42" RiffPosition="0.125" Velocity="65" />
      <note Length="0.015625" Pitch="57" RiffPosition="0.140625" Velocity="62" />
      <note Length="0.03125" Pitch="54" RiffPosition="0.15625" Velocity="49" />
      <note Length="0.015625" Pitch="57" RiffPosition="0.1875" Velocity="22" />
      <note Length="0.015625" Pitch="44" RiffPosition="0.203125" Velocity="41" />
      <note Length="0.03125" Pitch="42" RiffPosition="0.21875" Velocity="78" />
      <note Length="0.03125" Pitch="44" RiffPosition="0.25" Velocity="34" />
      <note Length="0.03125" Pitch="37" RiffPosition="0.28125" Velocity="85" />
      <note Length="0.0234375" Pitch="54" RiffPosition="0.3125" Velocity="37" />
      <note Length="0.0078125" Pitch="42" RiffPosition="0.3359375" Velocity="52" />
      <note Length="0.0078125" Pitch="56" RiffPosition="0.34375" Velocity="49" />
      <note Length="0.0234375" Pitch="66" RiffPosition="0.3515625" Velocity="29" />
      <note Length="0.015625" Pitch="50" RiffPosition="0.375" Velocity="45" />
      <note Length="0.015625" Pitch="69" RiffPosition="0.390625" Velocity="23" />
      <note Length="0.03125" Pitch="30" RiffPosition="0.40625" Velocity="39" />
      <note Length="0.015625" Pitch="69" RiffPosition="0.4375" Velocity="55" />
      <note Length="0.015625" Pitch="54" RiffPosition="0.453125" Velocity="32" />
      <note Length="0.03125" Pitch="54" RiffPosition="0.46875" Velocity="33" />
      <note Length="0.03125" Pitch="54" RiffPosition="0.5" Velocity="54" />
      <note Length="0.03125" Pitch="49" RiffPosition="0.53125" Velocity="41" />
      <note Length="0.0234375" Pitch="30" RiffPosition="0.5625" Velocity="95" />
      <note Length="0.0078125" Pitch="42" RiffPosition="0.5859375" Velocity="83" />
      <note Length="0.0078125" Pitch="69" RiffPosition="0.59375" Velocity="46" />
      <note Length="0.0234375" Pitch="42" RiffPosition="0.6015625" Velocity="107" />
      <note Length="0.015625" Pitch="61" RiffPosition="0.625" Velocity="88" />
      <note Length="0.015625" Pitch="33" RiffPosition="0.640625" Velocity="105" />
      <note Length="0.03125" Pitch="42" RiffPosition="0.65625" Velocity="22" />
      <note Length="0.015625" Pitch="47" RiffPosition="0.6875" Velocity="45" />
      <note Length="0.015625" Pitch="54" RiffPosition="0.703125" Velocity="55" />
      <note Length="0.03125" Pitch="30" RiffPosition="0.71875" Velocity="75" />
      <note Length="0.03125" Pitch="66" RiffPosition="0.75" Velocity="56" />
      <note Length="0.03125" Pitch="59" RiffPosition="0.78125" Velocity="30" />
      <note Length="0.0234375" Pitch="42" RiffPosition="0.8125" Velocity="93" />
      <note Length="0.0078125" Pitch="66" RiffPosition="0.8359375" Velocity="107" />
      <note Length="0.0078125" Pitch="47" RiffPosition="0.84375" Velocity="44" />
      <note Length="0.0234375" Pitch="50" RiffPosition="0.8515625" Velocity="79" />
      <note Length="0.015625" Pitch="73" RiffPosition="0.875" Velocity="82" />
      <note Length="0.015625" Pitch="45" RiffPosition="0.890625" Velocity="49" />
      <note Length="0.03125" Pitch="42" RiffPosition="0.90625" Velocity="26" />
      <note Length="0.015625" Pitch="57" RiffPosition="0.9375" Velocity="44" />
      <note Length="0.015625" Pitch="66" RiffPosition="0.953125" Velocity="29" />
      <note Length="0.03125" Pitch="38" RiffPosition="0.96875" Velocity="60" />
      <note Length="0.03125" Pitch="45" RiffPosition="1" Velocity="115" />
      <note Length="0.03125" Pitch="71" RiffPosition="1.03125" Velocity="58" />
      <note Length="0.0234375" Pitch="42" RiffPosition="1.0625" Velocity="90" />
      <note Length="0.0078125" Pitch="42" RiffPosition="1.0859375" Velocity="59" />
      <note Length="0.0078125" Pitch="57" RiffPosition="1.09375" Velocity="24" />
      <note Length="0.0234375" Pitch="59" RiffPosition="1.1015625" Velocity="71" />
      <note Length="0.015625" Pitch="37" RiffPosition="1.125" Velocity="38" />
      <note Length="0.015625" Pitch="56" RiffPosition="1.140625" Velocity="50" />
      <note Length="0.03125" Pitch="44" RiffPosition="1.15625" Velocity="75" />
      <note Length="0.015625" Pitch="69" RiffPosition="1.1875" Velocity="44" />
      <note Length="0.015625" Pitch="44" RiffPosition="1.203125" Velocity="25" />
      <note Length="0.03125" Pitch="50" RiffPosition="1.21875" Velocity="35" />
      <note Length="0.03125" Pitch="54" RiffPosition="1.25" Velocity="60" />
      <note Length="0.03125" Pitch="35" RiffPosition="1.28125" Velocity="28" />
      <note Length="0.0234375" Pitch="66" RiffPosition="1.3125" Velocity="63" />
      <note Length="0.0078125" Pitch="42" RiffPosition="1.3359375" Velocity="78" />
      <note Length="0.0078125" Pitch="69" RiffPosition="1.34375" Velocity="23" />
      <note Length="0.0234375" Pitch="71" RiffPosition="1.3515625" Velocity="55" />
      <note Length="0.015625" Pitch="49" RiffPosition="1.375" Velocity="71" />
      <note Length="0.015625" Pitch="69" RiffPosition="1.390625" Velocity="50" />
      <note Length="0.03125" Pitch="54" RiffPosition="1.40625" Velocity="28" />
      <note Length="0.015625" Pitch="35" RiffPosition="1.4375" Velocity="57" />
      <note Length="0.015625" Pitch="42" RiffPosition="1.453125" Velocity="58" />
      <note Length="0.03125" Pitch="66" RiffPosition="1.46875" Velocity="33" />
      <note Length="0.03125" Pitch="54" RiffPosition="1.5" Velocity="59" />
      <note Length="0.03125" Pitch="47" RiffPosition="1.53125" Velocity="25" />
      <note Length="0.0234375" Pitch="42" RiffPosition="1.5625" Velocity="69" />
      <note Length="0.0078125" Pitch="54" RiffPosition="1.5859375" Velocity="57" />
      <note Length="0.0078125" Pitch="33" RiffPosition="1.59375" Velocity="20" />
      <note Length="0.0234375" Pitch="37" RiffPosition="1.6015625" Velocity="80" />
      <note Length="0.015625" Pitch="66" RiffPosition="1.625" Velocity="62" />
      <note Length="0.015625" Pitch="47" RiffPosition="1.640625" Velocity="79" />
      <note Length="0.03125" Pitch="42" RiffPosition="1.65625" Velocity="94" />
      <note Length="0.015625" Pitch="47" RiffPosition="1.6875" Velocity="21" />
      <note Length="0.015625" Pitch="42" RiffPosition="1.703125" Velocity="29" />
      <note Length="0.03125" Pitch="42" RiffPosition="1.71875" Velocity="38" />
      <note Length="0.03125" Pitch="66" RiffPosition="1.75" Velocity="82" />
      <note Length="0.03125" Pitch="57" RiffPosition="1.78125" Velocity="57" />
      <note Length="0.0234375" Pitch="42" RiffPosition="1.8125" Velocity="119" />
      <note Length="0.0078125" Pitch="30" RiffPosition="1.8359375" Velocity="34" />
      <note Length="0.0078125" Pitch="44" RiffPosition="1.84375" Velocity="70" />
      <note Length="0.0234375" Pitch="49" RiffPosition="1.8515625" Velocity="106" />
      <note Length="0.015625" Pitch="42" RiffPosition="1.875" Velocity="30" />
      <note Length="0.015625" Pitch="57" RiffPosition="1.890625" Velocity="75" />
      <note Length="0.03125" Pitch="54" RiffPosition="1.90625" Velocity="41" />
      <note Length="0.015625" Pitch="57" RiffPosition="1.9375" Velocity="69" />
      <note Length="0.015625" Pitch="44" RiffPosition="1.953125" Velocity="37" />
      <note Length="0.03125" Pitch="42" RiffPosition="1.96875" Velocity="34" />
      <note Length="0.03125" Pitch="44" RiffPosition="2" Velocity="88" />
      <note Length="0.03125" Pitch="37" RiffPosition="2.03125" Velocity="32" />
      <note Length="0.0234375" Pitch="54" RiffPosition="2.0625" Velocity="64" />
      <note Length="0.0078125" Pitch="42" RiffPosition="2.0859375" Velocity="33" />
      <note Length="0.0078125" Pitch="54" RiffPosition="2.09375" Velocity="88" />
      <note Length="0.0234375" Pitch="59" RiffPosition="2.1015625" Velocity="45" />
      <note Length="0.015625" Pitch="50" RiffPosition="2.125" Velocity="28" />
      <note Length="0.015625" Pitch="69" RiffPosition="2.140625" Velocity="24" />
      <note Length="0.03125" Pitch="30" RiffPosition="2.15625" Velocity="37" />
      <note Length="0.015625" Pitch="69" RiffPosition="2.1875" Velocity="70" />
      <note Length="0.015625" Pitch="54" RiffPosition="2.203125" Velocity="52" />
      <note Length="0.03125" Pitch="54" RiffPosition="2.21875" Velocity="32" />
      <note Length="0.03125" Pitch="54" RiffPosition="2.25" Velocity="86" />
      <note Length="0.03125" Pitch="49" RiffPosition="2.28125" Velocity="39" />
      <note Length="0.0234375" Pitch="30" RiffPosition="2.3125" Velocity="49" />
      <note Length="0.0078125" Pitch="42" RiffPosition="2.3359375" Velocity="35" />
      <note Length="0.0078125" Pitch="69" RiffPosition="2.34375" Velocity="43" />
      <note Length="0.0234375" Pitch="50" RiffPosition="2.3515625" Velocity="57" />
      <note Length="0.015625" Pitch="61" RiffPosition="2.375" Velocity="41" />
      <note Length="0.015625" Pitch="33" RiffPosition="2.390625" Velocity="76" />
      <note Length="0.03125" Pitch="42" RiffPosition="2.40625" Velocity="54" />
      <note Length="0.015625" Pitch="47" RiffPosition="2.4375" Velocity="31" />
      <note Length="0.015625" Pitch="42" RiffPosition="2.453125" Velocity="55" />
      <note Length="0.03125" Pitch="30" RiffPosition="2.46875" Velocity="59" />
      <note Length="0.03125" Pitch="42" RiffPosition="2.5" Velocity="33" />
      <note Length="0.03125" Pitch="59" RiffPosition="2.53125" Velocity="87" />
      <note Length="0.0234375" Pitch="30" RiffPosition="2.5625" Velocity="42" />
      <note Length="0.0078125" Pitch="66" RiffPosition="2.5859375" Velocity="31" />
      <note Length="0.0078125" Pitch="47" RiffPosition="2.59375" Velocity="92" />
      <note Length="0.0234375" Pitch="49" RiffPosition="2.6015625" Velocity="54" />
      <note Length="0.015625" Pitch="71" RiffPosition="2.625" Velocity="35" />
      <note Length="0.015625" Pitch="45" RiffPosition="2.640625" Velocity="53" />
      <note Length="0.03125" Pitch="42" RiffPosition="2.65625" Velocity="68" />
      <note Length="0.015625" Pitch="57" RiffPosition="2.6875" Velocity="47" />
      <note Length="0.015625" Pitch="54" RiffPosition="2.703125" Velocity="37" />
      <note Length="0.03125" Pitch="38" RiffPosition="2.71875" Velocity="28" />
      <note Length="0.03125" Pitch="44" RiffPosition="2.75" Velocity="31" />
      <note Length="0.03125" Pitch="71" RiffPosition="2.78125" Velocity="83" />
      <note Length="0.0234375" Pitch="42" RiffPosition="2.8125" Velocity="47" />
      <note Length="0.0078125" Pitch="42" RiffPosition="2.8359375" Velocity="61" />
      <note Length="0.0078125" Pitch="56" RiffPosition="2.84375" Velocity="97" />
      <note Length="0.0234375" Pitch="59" RiffPosition="2.8515625" Velocity="33" />
      <note Length="0.015625" Pitch="37" RiffPosition="2.875" Velocity="36" />
      <note Length="0.015625" Pitch="56" RiffPosition="2.890625" Velocity="37" />
      <note Length="0.03125" Pitch="44" RiffPosition="2.90625" Velocity="67" />
      <note Length="0.015625" Pitch="69" RiffPosition="2.9375" Velocity="42" />
      <note Length="0.015625" Pitch="30" RiffPosition="2.953125" Velocity="76" />
      <note Length="0.03125" Pitch="50" RiffPosition="2.96875" Velocity="107" />
      <note Length="0.03125" Pitch="54" RiffPosition="3" Velocity="62" />
      <note Length="0.03125" Pitch="35" RiffPosition="3.03125" Velocity="105" />
      <note Length="0.0234375" Pitch="66" RiffPosition="3.0625" Velocity="38" />
      <note Length="0.0078125" Pitch="42" RiffPosition="3.0859375" Velocity="33" />
      <note Length="0.0078125" Pitch="68" RiffPosition="3.09375" Velocity="62" />
      <note Length="0.0234375" Pitch="71" RiffPosition="3.1015625" Velocity="22" />
      <note Length="0.015625" Pitch="49" RiffPosition="3.125" Velocity="54" />
      <note Length="0.015625" Pitch="69" RiffPosition="3.140625" Velocity="42" />
      <note Length="0.03125" Pitch="54" RiffPosition="3.15625" Velocity="29" />
      <note Length="0.015625" Pitch="35" RiffPosition="3.1875" Velocity="43" />
      <note Length="0.015625" Pitch="42" RiffPosition="3.203125" Velocity="78" />
      <note Length="0.03125" Pitch="66" RiffPosition="3.21875" Velocity="58" />
      <note Length="0.03125" Pitch="54" RiffPosition="3.25" Velocity="26" />
      <note Length="0.03125" Pitch="47" RiffPosition="3.28125" Velocity="65" />
      <note Length="0.0234375" Pitch="42" RiffPosition="3.3125" Velocity="23" />
      <note Length="0.0078125" Pitch="54" RiffPosition="3.3359375" Velocity="32" />
      <note Length="0.0078125" Pitch="32" RiffPosition="3.34375" Velocity="70" />
      <note Length="0.0234375" Pitch="37" RiffPosition="3.3515625" Velocity="31" />
      <note Length="0.015625" Pitch="59" RiffPosition="3.375" Velocity="25" />
      <note Length="0.015625" Pitch="47" RiffPosition="3.390625" Velocity="37" />
      <note Length="0.03125" Pitch="42" RiffPosition="3.40625" Velocity="59" />
      <note Length="0.015625" Pitch="45" RiffPosition="3.4375" Velocity="35" />
      <note Length="0.015625" Pitch="42" RiffPosition="3.453125" Velocity="29" />
      <note Length="0.03125" Pitch="42" RiffPosition="3.46875" Velocity="53" />
      <note Length="0.03125" Pitch="66" RiffPosition="3.5" Velocity="34" />
      <note Length="0.03125" Pitch="57" RiffPosition="3.53125" Velocity="61" />
      <note Length="0.0234375" Pitch="42" RiffPosition="3.5625" Velocity="24" />
      <note Length="0.0078125" Pitch="30" RiffPosition="3.5859375" Velocity="104" />
      <note Length="0.0078125" Pitch="44" RiffPosition="3.59375" Velocity="66" />
      <note Length="0.0234375" Pitch="49" RiffPosition="3.6015625" Velocity="28" />
      <note Length="0.015625" Pitch="42" RiffPosition="3.625" Velocity="108" />
      <note Length="0.015625" Pitch="57" RiffPosition="3.640625" Velocity="27" />
      <note Length="0.03125" Pitch="54" RiffPosition="3.65625" Velocity="42" />
      <note Length="0.015625" Pitch="56" RiffPosition="3.6875" Velocity="66" />
      <note Length="0.015625" Pitch="44" RiffPosition="3.703125" Velocity="64" />
      <note Length="0.03125" Pitch="42" RiffPosition="3.71875" Velocity="54" />
      <note Length="0.03125" Pitch="44" RiffPosition="3.75" Velocity="35" />
      <note Length="0.03125" Pitch="71" RiffPosition="3.78125" Velocity="109" />
      <note Length="0.0234375" Pitch="54" RiffPosition="3.8125" Velocity="73" />
      <note Length="0.0078125" Pitch="42" RiffPosition="3.8359375" Velocity="87" />
      <note Length="0.0078125" Pitch="54" RiffPosition="3.84375" Velocity="24" />
      <note Length="0.0234375" Pitch="59" RiffPosition="3.8515625" Velocity="59" />
      <note Length="0.015625" Pitch="49" RiffPosition="3.875" Velocity="62" />
      <note Length="0.015625" Pitch="69" RiffPosition="3.890625" Velocity="29" />
      <note Length="0.03125" Pitch="30" RiffPosition="3.90625" Velocity="46" />
      <note Length="0.015625" Pitch="69" RiffPosition="3.9375" Velocity="24" />
      <note Length="0.015625" Pitch="54" RiffPosition="3.953125" Velocity="49" />
      <note Length="0.03125" Pitch="54" RiffPosition="3.96875" Velocity="80" />
      <note Length="0.03125" Pitch="54" RiffPosition="4" Velocity="36" />
      <note Length="0.03125" Pitch="49" RiffPosition="4.03125" Velocity="78" />
      <note Length="0.0234375" Pitch="30" RiffPosition="4.0625" Velocity="110" />
      <note Length="0.0078125" Pitch="42" RiffPosition="4.0859375" Velocity="80" />
      <note Length="0.0078125" Pitch="68" RiffPosition="4.09375" Velocity="36" />
      <note Length="0.0234375" Pitch="50" RiffPosition="4.1015625" Velocity="48" />
      <note Length="0.015625" Pitch="59" RiffPosition="4.125" Velocity="59" />
      <note Length="0.015625" Pitch="33" RiffPosition="4.140625" Velocity="68" />
      <note Length="0.03125" Pitch="42" RiffPosition="4.15625" Velocity="55" />
      <note Length="0.015625" Pitch="47" RiffPosition="4.1875" Velocity="24" />
      <note Length="0.015625" Pitch="42" RiffPosition="4.203125" Velocity="35" />
      <note Length="0.03125" Pitch="73" RiffPosition="4.21875" Velocity="84" />
      <note Length="0.03125" Pitch="42" RiffPosition="4.25" Velocity="40" />
      <note Length="0.03125" Pitch="59" RiffPosition="4.28125" Velocity="48" />
      <note Length="0.0234375" Pitch="30" RiffPosition="4.3125" Velocity="43" />
      <note Length="0.0078125" Pitch="66" RiffPosition="4.3359375" Velocity="58" />
      <note Length="0.0078125" Pitch="45" RiffPosition="4.34375" Velocity="43" />
      <note Length="0.0234375" Pitch="49" RiffPosition="4.3515625" Velocity="35" />
      <note Length="0.015625" Pitch="71" RiffPosition="4.375" Velocity="51" />
      <note Length="0.015625" Pitch="45" RiffPosition="4.390625" Velocity="29" />
      <note Length="0.03125" Pitch="42" RiffPosition="4.40625" Velocity="32" />
      <note Length="0.015625" Pitch="57" RiffPosition="4.4375" Velocity="61" />
      <note Length="0.015625" Pitch="54" RiffPosition="4.453125" Velocity="38" />
      <note Length="0.03125" Pitch="37" RiffPosition="4.46875" Velocity="27" />
      <note Length="0.03125" Pitch="44" RiffPosition="4.5" Velocity="60" />
      <note Length="0.03125" Pitch="71" RiffPosition="4.53125" Velocity="35" />
      <note Length="0.0234375" Pitch="42" RiffPosition="4.5625" Velocity="89" />
      <note Length="0.0078125" Pitch="42" RiffPosition="4.5859375" Velocity="77" />
      <note Length="0.0078125" Pitch="56" RiffPosition="4.59375" Velocity="40" />
      <note Length="0.0234375" Pitch="59" RiffPosition="4.6015625" Velocity="100" />
      <note Length="0.015625" Pitch="37" RiffPosition="4.625" Velocity="82" />
      <note Length="0.015625" Pitch="54" RiffPosition="4.640625" Velocity="99" />
      <note Length="0.03125" Pitch="66" RiffPosition="4.65625" Velocity="25" />
      <note Length="0.015625" Pitch="69" RiffPosition="4.6875" Velocity="39" />
      <note Length="0.015625" Pitch="30" RiffPosition="4.703125" Velocity="49" />
      <note Length="0.03125" Pitch="49" RiffPosition="4.71875" Velocity="81" />
      <note Length="0.03125" Pitch="54" RiffPosition="4.75" Velocity="62" />
      <note Length="0.03125" Pitch="35" RiffPosition="4.78125" Velocity="36" />
      <note Length="0.0234375" Pitch="66" RiffPosition="4.8125" Velocity="99" />
      <note Length="0.0078125" Pitch="42" RiffPosition="4.8359375" Velocity="113" />
      <note Length="0.0078125" Pitch="54" RiffPosition="4.84375" Velocity="50" />
      <note Length="0.0234375" Pitch="71" RiffPosition="4.8515625" Velocity="86" />
      <note Length="0.015625" Pitch="49" RiffPosition="4.875" Velocity="88" />
      <note Length="0.015625" Pitch="69" RiffPosition="4.890625" Velocity="55" />
      <note Length="0.03125" Pitch="42" RiffPosition="4.90625" Velocity="20" />
      <note Length="0.015625" Pitch="33" RiffPosition="4.9375" Velocity="50" />
      <note Length="0.015625" Pitch="42" RiffPosition="4.953125" Velocity="23" />
      <note Length="0.03125" Pitch="66" RiffPosition="4.96875" Velocity="54" />
      <note Length="0.03125" Pitch="54" RiffPosition="5" Velocity="0" />
      <note Length="0.03125" Pitch="47" RiffPosition="5.03125" Velocity="0" />
      <note Length="0.0234375" Pitch="42" RiffPosition="5.0625" Velocity="0" />
      <note Length="0.0078125" Pitch="54" RiffPosition="5.0859375" Velocity="0" />
      <note Length="0.0078125" Pitch="66" RiffPosition="5.09375" Velocity="0" />
      <note Length="0.0234375" Pitch="37" RiffPosition="5.1015625" Velocity="0" />
      <note Length="0.015625" Pitch="59" RiffPosition="5.125" Velocity="0" />
      <note Length="0.015625" Pitch="47" RiffPosition="5.140625" Velocity="0" />
      <note Length="0.03125" Pitch="42" RiffPosition="5.15625" Velocity="0" />
      <note Length="0.015625" Pitch="45" RiffPosition="5.1875" Velocity="0" />
      <note Length="0.015625" Pitch="42" RiffPosition="5.203125" Velocity="0" />
      <note Length="0.03125" Pitch="42" RiffPosition="5.21875" Velocity="0" />
      <note Length="0.03125" Pitch="54" RiffPosition="5.25" Velocity="0" />
      <note Length="0.03125" Pitch="57" RiffPosition="5.28125" Velocity="0" />
      <note Length="0.0234375" Pitch="42" RiffPosition="5.3125" Velocity="0" />
      <note Length="0.0078125" Pitch="30" RiffPosition="5.3359375" Velocity="0" />
      <note Length="0.0078125" Pitch="44" RiffPosition="5.34375" Velocity="0" />
      <note Length="0.0234375" Pitch="47" RiffPosition="5.3515625" Velocity="0" />
      <note Length="0.015625" Pitch="50" RiffPosition="5.375" Velocity="0" />
      <note Length="0.015625" Pitch="57" RiffPosition="5.390625" Velocity="0" />
      <note Length="0.03125" Pitch="54" RiffPosition="5.40625" Velocity="0" />
      <note Length="0.015625" Pitch="56" RiffPosition="5.4375" Velocity="0" />
      <note Length="0.015625" Pitch="44" RiffPosition="5.453125" Velocity="0" />
      <note Length="0.03125" Pitch="50" RiffPosition="5.46875" Velocity="0" />
      <note Length="0.03125" Pitch="30" RiffPosition="5.5" Velocity="0" />
      <note Length="0.03125" Pitch="71" RiffPosition="5.53125" Velocity="0" />
      <note Length="0.0234375" Pitch="54" RiffPosition="5.5625" Velocity="0" />
      <note Length="0.0078125" Pitch="30" RiffPosition="5.5859375" Velocity="0" />
      <note Length="0.0078125" Pitch="54" RiffPosition="5.59375" Velocity="0" />
      <note Length="0.0234375" Pitch="57" RiffPosition="5.6015625" Velocity="0" />
      <note Length="0.015625" Pitch="49" RiffPosition="5.625" Velocity="0" />
      <note Length="0.015625" Pitch="68" RiffPosition="5.640625" Velocity="0" />
      <note Length="0.03125" Pitch="30" RiffPosition="5.65625" Velocity="0" />
      <note Length="0.015625" Pitch="69" RiffPosition="5.6875" Velocity="0" />
      <note Length="0.015625" Pitch="54" RiffPosition="5.703125" Velocity="0" />
      <note Length="0.03125" Pitch="61" RiffPosition="5.71875" Velocity="0" />
      <note Length="0.03125" Pitch="42" RiffPosition="5.75" Velocity="0" />
      <note Length="0.03125" Pitch="49" RiffPosition="5.78125" Velocity="0" />
      <note Length="0.0234375" Pitch="30" RiffPosition="5.8125" Velocity="0" />
      <note Length="0.0078125" Pitch="42" RiffPosition="5.8359375" Velocity="0" />
      <note Length="0.0078125" Pitch="68" RiffPosition="5.84375" Velocity="0" />
      <note Length="0.0234375" Pitch="37" RiffPosition="5.8515625" Velocity="0" />
      <note Length="0.015625" Pitch="59" RiffPosition="5.875" Velocity="0" />
      <note Length="0.015625" Pitch="32" RiffPosition="5.890625" Velocity="0" />
      <note Length="0.03125" Pitch="42" RiffPosition="5.90625" Velocity="0" />
      <note Length="0.015625" Pitch="47" RiffPosition="5.9375" Velocity="0" />
      <note Length="0.015625" Pitch="42" RiffPosition="5.953125" Velocity="0" />
      <note Length="0.03125" Pitch="73" RiffPosition="5.96875" Velocity="0" />
      <note Length="0.03125" Pitch="42" RiffPosition="6" Velocity="82" />
      <note Length="0.03125" Pitch="57" RiffPosition="6.03125" Velocity="26" />
      <note Length="0.0234375" Pitch="38" RiffPosition="6.0625" Velocity="58" />
      <note Length="0.0078125" Pitch="66" RiffPosition="6.0859375" Velocity="27" />
      <note Length="0.0078125" Pitch="45" RiffPosition="6.09375" Velocity="82" />
      <note Length="0.0234375" Pitch="49" RiffPosition="6.1015625" Velocity="38" />
      <note Length="0.015625" Pitch="71" RiffPosition="6.125" Velocity="34" />
      <note Length="0.015625" Pitch="44" RiffPosition="6.140625" Velocity="22" />
      <note Length="0.03125" Pitch="42" RiffPosition="6.15625" Velocity="31" />
      <note Length="0.015625" Pitch="57" RiffPosition="6.1875" Velocity="76" />
      <note Length="0.015625" Pitch="54" RiffPosition="6.203125" Velocity="58" />
      <note Length="0.03125" Pitch="37" RiffPosition="6.21875" Velocity="38" />
      <note Length="0.03125" Pitch="44" RiffPosition="6.25" Velocity="92" />
      <note Length="0.03125" Pitch="69" RiffPosition="6.28125" Velocity="45" />
      <note Length="0.0234375" Pitch="50" RiffPosition="6.3125" Velocity="43" />
      <note Length="0.0078125" Pitch="42" RiffPosition="6.3359375" Velocity="29" />
      <note Length="0.0078125" Pitch="56" RiffPosition="6.34375" Velocity="49" />
      <note Length="0.0234375" Pitch="59" RiffPosition="6.3515625" Velocity="51" />
      <note Length="0.015625" Pitch="37" RiffPosition="6.375" Velocity="35" />
      <note Length="0.015625" Pitch="54" RiffPosition="6.390625" Velocity="57" />
      <note Length="0.03125" Pitch="66" RiffPosition="6.40625" Velocity="60" />
      <note Length="0.015625" Pitch="69" RiffPosition="6.4375" Velocity="25" />
      <note Length="0.015625" Pitch="30" RiffPosition="6.453125" Velocity="49" />
      <note Length="0.03125" Pitch="49" RiffPosition="6.46875" Velocity="66" />
      <note Length="0.03125" Pitch="54" RiffPosition="6.5" Velocity="27" />
      <note Length="0.03125" Pitch="35" RiffPosition="6.53125" Velocity="81" />
      <note Length="0.0234375" Pitch="66" RiffPosition="6.5625" Velocity="36" />
      <note Length="0.0078125" Pitch="42" RiffPosition="6.5859375" Velocity="25" />
      <note Length="0.0078125" Pitch="54" RiffPosition="6.59375" Velocity="86" />
      <note Length="0.0234375" Pitch="71" RiffPosition="6.6015625" Velocity="48" />
      <note Length="0.015625" Pitch="49" RiffPosition="6.625" Velocity="29" />
      <note Length="0.015625" Pitch="68" RiffPosition="6.640625" Velocity="47" />
      <note Length="0.03125" Pitch="42" RiffPosition="6.65625" Velocity="62" />
      <note Length="0.015625" Pitch="33" RiffPosition="6.6875" Velocity="53" />
      <note Length="0.015625" Pitch="42" RiffPosition="6.703125" Velocity="43" />
      <note Length="0.03125" Pitch="66" RiffPosition="6.71875" Velocity="34" />
      <note Length="0.03125" Pitch="42" RiffPosition="6.75" Velocity="25" />
      <note Length="0.03125" Pitch="47" RiffPosition="6.78125" Velocity="89" />
      <note Length="0.0234375" Pitch="42" RiffPosition="6.8125" Velocity="53" />
      <note Length="0.0078125" Pitch="54" RiffPosition="6.8359375" Velocity="67" />
      <note Length="0.0078125" Pitch="66" RiffPosition="6.84375" Velocity="103" />
      <note Length="0.0234375" Pitch="35" RiffPosition="6.8515625" Velocity="39" />
      <note Length="0.015625" Pitch="57" RiffPosition="6.875" Velocity="42" />
      <note Length="0.015625" Pitch="45" RiffPosition="6.890625" Velocity="31" />
      <note Length="0.03125" Pitch="42" RiffPosition="6.90625" Velocity="73" />
      <note Length="0.015625" Pitch="45" RiffPosition="6.9375" Velocity="36" />
      <note Length="0.015625" Pitch="42" RiffPosition="6.953125" Velocity="69" />
      <note Length="0.03125" Pitch="42" RiffPosition="6.96875" Velocity="101" />
      <note Length="0.03125" Pitch="54" RiffPosition="7" Velocity="56" />
      <note Length="0.03125" Pitch="57" RiffPosition="7.03125" Velocity="99" />
      <note Length="0.0234375" Pitch="42" RiffPosition="7.0625" Velocity="31" />
      <note Length="0.0078125" Pitch="30" RiffPosition="7.0859375" Velocity="39" />
      <note Length="0.0078125" Pitch="44" RiffPosition="7.09375" Velocity="56" />
      <note Length="0.0234375" Pitch="47" RiffPosition="7.1015625" Velocity="28" />
      <note Length="0.015625" Pitch="37" RiffPosition="7.125" Velocity="60" />
      <note Length="0.015625" Pitch="56" RiffPosition="7.140625" Velocity="48" />
      <note Length="0.03125" Pitch="54" RiffPosition="7.15625" Velocity="35" />
      <note Length="0.015625" Pitch="56" RiffPosition="7.1875" Velocity="36" />
      <note Length="0.015625" Pitch="66" RiffPosition="7.203125" Velocity="84" />
      <note Length="0.03125" Pitch="50" RiffPosition="7.21875" Velocity="64" />
      <note Length="0.03125" Pitch="30" RiffPosition="7.25" Velocity="20" />
      <note Length="0.03125" Pitch="69" RiffPosition="7.28125" Velocity="71" />
      <note Length="0.0234375" Pitch="54" RiffPosition="7.3125" Velocity="23" />
      <note Length="0.0078125" Pitch="30" RiffPosition="7.3359375" Velocity="38" />
      <note Length="0.0078125" Pitch="54" RiffPosition="7.34375" Velocity="76" />
      <note Length="0.0234375" Pitch="57" RiffPosition="7.3515625" Velocity="25" />
      <note Length="0.015625" Pitch="49" RiffPosition="7.375" Velocity="31" />
      <note Length="0.015625" Pitch="68" RiffPosition="7.390625" Velocity="31" />
      <note Length="0.03125" Pitch="30" RiffPosition="7.40625" Velocity="53" />
      <note Length="0.015625" Pitch="69" RiffPosition="7.4375" Velocity="41" />
      <note Length="0.015625" Pitch="42" RiffPosition="7.453125" Velocity="22" />
      <note Length="0.03125" Pitch="61" RiffPosition="7.46875" Velocity="47" />
      <note Length="0.03125" Pitch="42" RiffPosition="7.5" Velocity="40" />
      <note Length="0.03125" Pitch="47" RiffPosition="7.53125" Velocity="55" />
      <note Length="0.0234375" Pitch="30" RiffPosition="7.5625" Velocity="30" />
      <note Length="0.0078125" Pitch="50" RiffPosition="7.5859375" Velocity="97" />
      <note Length="0.0078125" Pitch="68" RiffPosition="7.59375" Velocity="60" />
      <note Length="0.0234375" Pitch="37" RiffPosition="7.6015625" Velocity="22" />
      <note Length="0.015625" Pitch="59" RiffPosition="7.625" Velocity="102" />
      <note Length="0.015625" Pitch="66" RiffPosition="7.640625" Velocity="20" />
      <note Length="0.03125" Pitch="42" RiffPosition="7.65625" Velocity="36" />
      <note Length="0.015625" Pitch="47" RiffPosition="7.6875" Velocity="59" />
      <note Length="0.015625" Pitch="42" RiffPosition="7.703125" Velocity="69" />
      <note Length="0.03125" Pitch="73" RiffPosition="7.71875" Velocity="61" />
      <note Length="0.03125" Pitch="42" RiffPosition="7.75" Velocity="42" />
      <note Length="0.03125" Pitch="57" RiffPosition="7.78125" Velocity="115" />
      <note Length="0.0234375" Pitch="38" RiffPosition="7.8125" Velocity="79" />
      <note Length="0.0078125" Pitch="66" RiffPosition="7.8359375" Velocity="93" />
      <note Length="0.0078125" Pitch="45" RiffPosition="7.84375" Velocity="30" />
      <note Length="0.0234375" Pitch="49" RiffPosition="7.8515625" Velocity="65" />
      <note Length="0.015625" Pitch="71" RiffPosition="7.875" Velocity="68" />
      <note Length="0.015625" Pitch="44" RiffPosition="7.890625" Velocity="35" />
      <note Length="0.03125" Pitch="42" RiffPosition="7.90625" Velocity="40" />
      <note Length="0.015625" Pitch="57" RiffPosition="7.9375" Velocity="30" />
      <note Length="0.015625" Pitch="54" RiffPosition="7.953125" Velocity="43" />
      <note Length="0.03125" Pitch="37" RiffPosition="7.96875" Velocity="74" />
      <note Length="0.03125" Pitch="44" RiffPosition="8" Velocity="30" />
      <note Length="0.03125" Pitch="69" RiffPosition="8.03125" Velocity="72" />
      <note Length="0.0234375" Pitch="50" RiffPosition="8.0625" Velocity="104" />
      <note Length="0.0078125" Pitch="42" RiffPosition="8.0859375" Velocity="73" />
      <note Length="0.0078125" Pitch="54" RiffPosition="8.09375" Velocity="30" />
      <note Length="0.0234375" Pitch="59" RiffPosition="8.1015625" Velocity="85" />
      <note Length="0.015625" Pitch="35" RiffPosition="8.125" Velocity="52" />
      <note Length="0.015625" Pitch="54" RiffPosition="8.140625" Velocity="74" />
      <note Length="0.03125" Pitch="66" RiffPosition="8.15625" Velocity="61" />
      <note Length="0.015625" Pitch="69" RiffPosition="8.1875" Velocity="30" />
      <note Length="0.015625" Pitch="30" RiffPosition="8.203125" Velocity="29" />
      <note Length="0.03125" Pitch="49" RiffPosition="8.21875" Velocity="90" />
      <note Length="0.03125" Pitch="54" RiffPosition="8.25" Velocity="46" />
      <note Length="0.03125" Pitch="35" RiffPosition="8.28125" Velocity="42" />
      <note Length="0.0234375" Pitch="66" RiffPosition="8.3125" Velocity="49" />
      <note Length="0.0078125" Pitch="42" RiffPosition="8.3359375" Velocity="64" />
      <note Length="0.0078125" Pitch="54" RiffPosition="8.34375" Velocity="37" />
      <note Length="0.0234375" Pitch="71" RiffPosition="8.3515625" Velocity="41" />
      <note Length="0.015625" Pitch="47" RiffPosition="8.375" Velocity="57" />
      <note Length="0.015625" Pitch="68" RiffPosition="8.390625" Velocity="36" />
      <note Length="0.03125" Pitch="42" RiffPosition="8.40625" Velocity="26" />
      <note Length="0.015625" Pitch="33" RiffPosition="8.4375" Velocity="67" />
      <note Length="0.015625" Pitch="42" RiffPosition="8.453125" Velocity="44" />
      <note Length="0.03125" Pitch="66" RiffPosition="8.46875" Velocity="21" />
      <note Length="0.03125" Pitch="42" RiffPosition="8.5" Velocity="73" />
      <note Length="0.03125" Pitch="47" RiffPosition="8.53125" Velocity="29" />
      <note Length="0.0234375" Pitch="42" RiffPosition="8.5625" Velocity="83" />
      <note Length="0.0078125" Pitch="54" RiffPosition="8.5859375" Velocity="71" />
      <note Length="0.0078125" Pitch="66" RiffPosition="8.59375" Velocity="34" />
      <note Length="0.0234375" Pitch="35" RiffPosition="8.6015625" Velocity="94" />
      <note Length="0.015625" Pitch="57" RiffPosition="8.625" Velocity="76" />
      <note Length="0.015625" Pitch="45" RiffPosition="8.640625" Velocity="93" />
      <note Length="0.03125" Pitch="42" RiffPosition="8.65625" Velocity="31" />
      <note Length="0.015625" Pitch="44" RiffPosition="8.6875" Velocity="33" />
      <note Length="0.015625" Pitch="42" RiffPosition="8.703125" Velocity="43" />
      <note Length="0.03125" Pitch="42" RiffPosition="8.71875" Velocity="52" />
      <note Length="0.03125" Pitch="54" RiffPosition="8.75" Velocity="68" />
      <note Length="0.03125" Pitch="57" RiffPosition="8.78125" Velocity="43" />
      <note Length="0.0234375" Pitch="42" RiffPosition="8.8125" Velocity="105" />
      <note Length="0.0078125" Pitch="30" RiffPosition="8.8359375" Velocity="119" />
      <note Length="0.0078125" Pitch="44" RiffPosition="8.84375" Velocity="56" />
      <note Length="0.0234375" Pitch="47" RiffPosition="8.8515625" Velocity="92" />
      <note Length="0.015625" Pitch="37" RiffPosition="8.875" Velocity="95" />
      <note Length="0.015625" Pitch="56" RiffPosition="8.890625" Velocity="61" />
      <note Length="0.03125" Pitch="54" RiffPosition="8.90625" Velocity="27" />
      <note Length="0.015625" Pitch="54" RiffPosition="8.9375" Velocity="83" />
      <note Length="0.015625" Pitch="66" RiffPosition="8.953125" Velocity="23" />
      <note Length="0.03125" Pitch="50" RiffPosition="8.96875" Velocity="48" />
      <note Length="0.03125" Pitch="30" RiffPosition="9" Velocity="102" />
      <note Length="0.03125" Pitch="69" RiffPosition="9.03125" Velocity="46" />
      <note Length="0.0234375" Pitch="54" RiffPosition="9.0625" Velocity="78" />
      <note Length="0.0078125" Pitch="38" RiffPosition="9.0859375" Velocity="47" />
      <note Length="0.0078125" Pitch="54" RiffPosition="9.09375" Velocity="36" />
      <note Length="0.0234375" Pitch="57" RiffPosition="9.1015625" Velocity="59" />
      <note Length="0.015625" Pitch="49" RiffPosition="9.125" Velocity="26" />
      <note Length="0.015625" Pitch="54" RiffPosition="9.140625" Velocity="38" />
      <note Length="0.03125" Pitch="30" RiffPosition="9.15625" Velocity="51" />
      <note Length="0.015625" Pitch="69" RiffPosition="9.1875" Velocity="56" />
      <note Length="0.015625" Pitch="42" RiffPosition="9.203125" Velocity="38" />
      <note Length="0.03125" Pitch="61" RiffPosition="9.21875" Velocity="22" />
      <note Length="0.03125" Pitch="42" RiffPosition="9.25" Velocity="72" />
      <note Length="0.03125" Pitch="47" RiffPosition="9.28125" Velocity="25" />
      <note Length="0.0234375" Pitch="30" RiffPosition="9.3125" Velocity="76" />
      <note Length="0.0078125" Pitch="50" RiffPosition="9.3359375" Velocity="49" />
      <note Length="0.0078125" Pitch="42" RiffPosition="9.34375" Velocity="29" />
      <note Length="0.0234375" Pitch="71" RiffPosition="9.3515625" Velocity="67" />
      <note Length="0.015625" Pitch="59" RiffPosition="9.375" Velocity="55" />
      <note Length="0.015625" Pitch="66" RiffPosition="9.390625" Velocity="62" />
      <note Length="0.03125" Pitch="30" RiffPosition="9.40625" Velocity="40" />
      <note Length="0.015625" Pitch="47" RiffPosition="9.4375" Velocity="45" />
      <note Length="0.015625" Pitch="42" RiffPosition="9.453125" Velocity="70" />
      <note Length="0.03125" Pitch="71" RiffPosition="9.46875" Velocity="45" />
      <note Length="0.03125" Pitch="42" RiffPosition="9.5" Velocity="47" />
      <note Length="0.03125" Pitch="57" RiffPosition="9.53125" Velocity="38" />
      <note Length="0.0234375" Pitch="38" RiffPosition="9.5625" Velocity="56" />
      <note Length="0.0078125" Pitch="66" RiffPosition="9.5859375" Velocity="45" />
      <note Length="0.0078125" Pitch="44" RiffPosition="9.59375" Velocity="106" />
      <note Length="0.0234375" Pitch="49" RiffPosition="9.6015625" Velocity="68" />
      <note Length="0.015625" Pitch="71" RiffPosition="9.625" Velocity="49" />
      <note Length="0.015625" Pitch="44" RiffPosition="9.640625" Velocity="67" />
      <note Length="0.03125" Pitch="42" RiffPosition="9.65625" Velocity="82" />
      <note Length="0.015625" Pitch="56" RiffPosition="9.6875" Velocity="33" />
      <note Length="0.015625" Pitch="54" RiffPosition="9.703125" Velocity="23" />
      <note Length="0.03125" Pitch="37" RiffPosition="9.71875" Velocity="26" />
      <note Length="0.03125" Pitch="44" RiffPosition="9.75" Velocity="94" />
      <note Length="0.03125" Pitch="69" RiffPosition="9.78125" Velocity="69" />
      <note Length="0.0234375" Pitch="50" RiffPosition="9.8125" Velocity="33" />
      <note Length="0.0078125" Pitch="42" RiffPosition="9.8359375" Velocity="47" />
      <note Length="0.0078125" Pitch="54" RiffPosition="9.84375" Velocity="83" />
      <note Length="0.0234375" Pitch="59" RiffPosition="9.8515625" Velocity="118" />
      <note Length="0.015625" Pitch="35" RiffPosition="9.875" Velocity="22" />
      <note Length="0.015625" Pitch="54" RiffPosition="9.890625" Velocity="87" />
      <note Length="0.03125" Pitch="66" RiffPosition="9.90625" Velocity="53" />
      <note Length="0.015625" Pitch="68" RiffPosition="9.9375" Velocity="56" />
      <note Length="0.015625" Pitch="30" RiffPosition="9.953125" Velocity="90" />
      <note Length="0.03125" Pitch="49" RiffPosition="9.96875" Velocity="22" />
      <note Length="0.03125" Pitch="54" RiffPosition="10" Velocity="76" />
      <note Length="0.03125" Pitch="35" RiffPosition="10.03125" Velocity="119" />
      <note Length="0.0234375" Pitch="66" RiffPosition="10.0625" Velocity="52" />
      <note Length="0.0078125" Pitch="42" RiffPosition="10.0859375" Velocity="21" />
      <note Length="0.0078125" Pitch="54" RiffPosition="10.09375" Velocity="76" />
      <note Length="0.0234375" Pitch="71" RiffPosition="10.1015625" Velocity="32" />
      <note Length="0.015625" Pitch="47" RiffPosition="10.125" Velocity="40" />
      <note Length="0.015625" Pitch="68" RiffPosition="10.140625" Velocity="28" />
      <note Length="0.03125" Pitch="42" RiffPosition="10.15625" Velocity="25" />
      <note Length="0.015625" Pitch="32" RiffPosition="10.1875" Velocity="82" />
      <note Length="0.015625" Pitch="42" RiffPosition="10.203125" Velocity="64" />
      <note Length="0.03125" Pitch="59" RiffPosition="10.21875" Velocity="44" />
      <note Length="0.03125" Pitch="42" RiffPosition="10.25" Velocity="40" />
      <note Length="0.03125" Pitch="47" RiffPosition="10.28125" Velocity="51" />
      <note Length="0.0234375" Pitch="42" RiffPosition="10.3125" Velocity="37" />
      <note Length="0.0078125" Pitch="54" RiffPosition="10.3359375" Velocity="22" />
      <note Length="0.0078125" Pitch="66" RiffPosition="10.34375" Velocity="56" />
      <note Length="0.0234375" Pitch="35" RiffPosition="10.3515625" Velocity="45" />
      <note Length="0.015625" Pitch="57" RiffPosition="10.375" Velocity="29" />
      <note Length="0.015625" Pitch="45" RiffPosition="10.390625" Velocity="51" />
      <note Length="0.03125" Pitch="42" RiffPosition="10.40625" Velocity="66" />
      <note Length="0.015625" Pitch="44" RiffPosition="10.4375" Velocity="21" />
      <note Length="0.015625" Pitch="42" RiffPosition="10.453125" Velocity="43" />
      <note Length="0.03125" Pitch="42" RiffPosition="10.46875" Velocity="67" />
      <note Length="0.03125" Pitch="54" RiffPosition="10.5" Velocity="20" />
      <note Length="0.03125" Pitch="56" RiffPosition="10.53125" Velocity="75" />
      <note Length="0.0234375" Pitch="42" RiffPosition="10.5625" Velocity="30" />
      <note Length="0.0078125" Pitch="30" RiffPosition="10.5859375" Velocity="21" />
      <note Length="0.0078125" Pitch="44" RiffPosition="10.59375" Velocity="80" />
      <note Length="0.0234375" Pitch="47" RiffPosition="10.6015625" Velocity="42" />
      <note Length="0.015625" Pitch="71" RiffPosition="10.625" Velocity="23" />
      <note Length="0.015625" Pitch="56" RiffPosition="10.640625" Velocity="41" />
      <note Length="0.03125" Pitch="54" RiffPosition="10.65625" Velocity="56" />
      <note Length="0.015625" Pitch="54" RiffPosition="10.6875" Velocity="80" />
      <note Length="0.015625" Pitch="66" RiffPosition="10.703125" Velocity="50" />
      <note Length="0.03125" Pitch="49" RiffPosition="10.71875" Velocity="40" />
      <note Length="0.03125" Pitch="30" RiffPosition="10.75" Velocity="21" />
      <note Length="0.03125" Pitch="69" RiffPosition="10.78125" Velocity="95" />
      <note Length="0.0234375" Pitch="54" RiffPosition="10.8125" Velocity="59" />
      <note Length="0.0078125" Pitch="38" RiffPosition="10.8359375" Velocity="73" />
      <note Length="0.0078125" Pitch="54" RiffPosition="10.84375" Velocity="109" />
      <note Length="0.0234375" Pitch="57" RiffPosition="10.8515625" Velocity="45" />
      <note Length="0.015625" Pitch="49" RiffPosition="10.875" Velocity="48" />
      <note Length="0.015625" Pitch="54" RiffPosition="10.890625" Velocity="25" />
      <note Length="0.03125" Pitch="30" RiffPosition="10.90625" Velocity="60" />
      <note Length="0.015625" Pitch="68" RiffPosition="10.9375" Velocity="30" />
      <note Length="0.015625" Pitch="42" RiffPosition="10.953125" Velocity="63" />
      <note Length="0.03125" Pitch="59" RiffPosition="10.96875" Velocity="94" />
      <note Length="0.03125" Pitch="42" RiffPosition="11" Velocity="0" />
      <note Length="0.03125" Pitch="47" RiffPosition="11.03125" Velocity="0" />
      <note Length="0.0234375" Pitch="73" RiffPosition="11.0625" Velocity="0" />
      <note Length="0.0078125" Pitch="50" RiffPosition="11.0859375" Velocity="0" />
      <note Length="0.0078125" Pitch="42" RiffPosition="11.09375" Velocity="0" />
      <note Length="0.0234375" Pitch="71" RiffPosition="11.1015625" Velocity="0" />
      <note Length="0.015625" Pitch="59" RiffPosition="11.125" Velocity="0" />
      <note Length="0.015625" Pitch="66" RiffPosition="11.140625" Velocity="0" />
      <note Length="0.03125" Pitch="30" RiffPosition="11.15625" Velocity="0" />
      <note Length="0.015625" Pitch="45" RiffPosition="11.1875" Velocity="0" />
      <note Length="0.015625" Pitch="42" RiffPosition="11.203125" Velocity="0" />
      <note Length="0.03125" Pitch="71" RiffPosition="11.21875" Velocity="0" />
      <note Length="0.03125" Pitch="42" RiffPosition="11.25" Velocity="0" />
      <note Length="0.03125" Pitch="57" RiffPosition="11.28125" Velocity="0" />
      <note Length="0.0234375" Pitch="37" RiffPosition="11.3125" Velocity="0" />
      <note Length="0.0078125" Pitch="66" RiffPosition="11.3359375" Velocity="0" />
      <note Length="0.0078125" Pitch="44" RiffPosition="11.34375" Velocity="0" />
      <note Length="0.0234375" Pitch="49" RiffPosition="11.3515625" Velocity="0" />
      <note Length="0.015625" Pitch="71" RiffPosition="11.375" Velocity="0" />
      <note Length="0.015625" Pitch="44" RiffPosition="11.390625" Velocity="0" />
      <note Length="0.03125" Pitch="42" RiffPosition="11.40625" Velocity="0" />
      <note Length="0.015625" Pitch="56" RiffPosition="11.4375" Velocity="0" />
      <note Length="0.015625" Pitch="54" RiffPosition="11.453125" Velocity="0" />
      <note Length="0.03125" Pitch="37" RiffPosition="11.46875" Velocity="0" />
      <note Length="0.03125" Pitch="66" RiffPosition="11.5" Velocity="0" />
      <note Length="0.03125" Pitch="69" RiffPosition="11.53125" Velocity="0" />
      <note Length="0.0234375" Pitch="49" RiffPosition="11.5625" Velocity="0" />
      <note Length="0.0078125" Pitch="42" RiffPosition="11.5859375" Velocity="0" />
      <note Length="0.0078125" Pitch="54" RiffPosition="11.59375" Velocity="0" />
      <note Length="0.0234375" Pitch="57" RiffPosition="11.6015625" Velocity="0" />
      <note Length="0.015625" Pitch="35" RiffPosition="11.625" Velocity="0" />
      <note Length="0.015625" Pitch="54" RiffPosition="11.640625" Velocity="0" />
      <note Length="0.03125" Pitch="66" RiffPosition="11.65625" Velocity="0" />
      <note Length="0.015625" Pitch="54" RiffPosition="11.6875" Velocity="0" />
      <note Length="0.015625" Pitch="30" RiffPosition="11.703125" Velocity="0" />
      <note Length="0.03125" Pitch="49" RiffPosition="11.71875" Velocity="0" />
      <note Length="0.03125" Pitch="42" RiffPosition="11.75" Velocity="0" />
      <note Length="0.03125" Pitch="33" RiffPosition="11.78125" Velocity="0" />
      <note Length="0.0234375" Pitch="66" RiffPosition="11.8125" Velocity="0" />
      <note Length="0.0078125" Pitch="42" RiffPosition="11.8359375" Velocity="0" />
      <note Length="0.0078125" Pitch="54" RiffPosition="11.84375" Velocity="0" />
      <note Length="0.0234375" Pitch="69" RiffPosition="11.8515625" Velocity="0" />
      <note Length="0.015625" Pitch="47" RiffPosition="11.875" Velocity="0" />
      <note Length="0.015625" Pitch="66" RiffPosition="11.890625" Velocity="0" />
      <note Length="0.03125" Pitch="42" RiffPosition="11.90625" Velocity="0" />
      <note Length="0.015625" Pitch="66" RiffPosition="11.9375" Velocity="0" />
      <note Length="0.015625" Pitch="42" RiffPosition="11.953125" Velocity="0" />
      <note Length="0.03125" Pitch="59" RiffPosition="11.96875" Velocity="0" />
    </riff>
    <riff IsDrum="True" MidiInstrument="0" Tempo="119" Length="12">
      <note Length="0.0625" Pitch="40" RiffPosition="0" Velocity="0" />
      <note Length="0.0625" Pitch="40" RiffPosition="0.0625" Velocity="0" />
      <note Length="0.0625" Pitch="40" RiffPosition="0.125" Velocity="0" />
      <note Length="0.0625" Pitch="40" RiffPosition="0.1875" Velocity="0" />
      <note Length="0.0625" Pitch="40" RiffPosition="0.25" Velocity="0" />
      <note Length="0.0625" Pitch="40" RiffPosition="0.3125" Velocity="0" />
      <note Length="0.0625" Pitch="40" RiffPosition="0.375" Velocity="0" />
      <note Length="0.0625" Pitch="40" RiffPosition="0.4375" Velocity="0" />
      <note Length="0.0625" Pitch="40" RiffPosition="0.5" Velocity="0" />
      <note Length="0.0625" Pitch="40" RiffPosition="0.5625" Velocity="0" />
      <note Length="0.0625" Pitch="40" RiffPosition="0.625" Velocity="0" />
      <note Length="0.0625" Pitch="40" RiffPosition="0.6875" Velocity="0" />
      <note Length="0.0625" Pitch="40" RiffPosition="0.75" Velocity="0" />
      <note Length="0.0625" Pitch="40" RiffPosition="0.8125" Velocity="0" />
      <note Length="0.0625" Pitch="40" RiffPosition="0.875" Velocity="0" />
      <note Length="0.0625" Pitch="40" RiffPosition="0.9375" Velocity="0" />
      <note Length="0.0625" Pitch="40" RiffPosition="1" Velocity="0" />
      <note Length="0.0625" Pitch="40" RiffPosition="1.0625" Velocity="0" />
      <note Length="0.0625" Pitch="40" RiffPosition="1.125" Velocity="0" />
      <note Length="0.0625" Pitch="40" RiffPosition="1.1875" Velocity="0" />
      <note Length="0.0625" Pitch="40" RiffPosition="1.25" Velocity="0" />
      <note Length="0.0625" Pitch="40" RiffPosition="1.3125" Velocity="0" />
      <note Length="0.0625" Pitch="40" RiffPosition="1.375" Velocity="0" />
      <note Length="0.0625" Pitch="40" RiffPosition="1.4375" Velocity="0" />
      <note Length="0.0625" Pitch="40" RiffPosition="1.5" Velocity="0" />
      <note Length="0.0625" Pitch="40" RiffPosition="1.5625" Velocity="0" />
      <note Length="0.0625" Pitch="40" RiffPosition="1.625" Velocity="0" />
      <note Length="0.0625" Pitch="40" RiffPosition="1.6875" Velocity="0" />
      <note Length="0.0625" Pitch="40" RiffPosition="1.75" Velocity="0" />
      <note Length="0.0625" Pitch="40" RiffPosition="1.8125" Velocity="0" />
      <note Length="0.0625" Pitch="40" RiffPosition="1.875" Velocity="0" />
      <note Length="0.0625" Pitch="40" RiffPosition="1.9375" Velocity="0" />
      <note Length="0.0625" Pitch="40" RiffPosition="2" Velocity="0" />
      <note Length="0.0625" Pitch="40" RiffPosition="2.0625" Velocity="0" />
      <note Length="0.0625" Pitch="40" RiffPosition="2.125" Velocity="0" />
      <note Length="0.0625" Pitch="40" RiffPosition="2.1875" Velocity="0" />
      <note Length="0.0625" Pitch="40" RiffPosition="2.25" Velocity="0" />
      <note Length="0.0625" Pitch="40" RiffPosition="2.3125" Velocity="0" />
      <note Length="0.0625" Pitch="40" RiffPosition="2.375" Velocity="0" />
      <note Length="0.0625" Pitch="40" RiffPosition="2.4375" Velocity="0" />
      <note Length="0.0625" Pitch="40" RiffPosition="2.5" Velocity="0" />
      <note Length="0.0625" Pitch="40" RiffPosition="2.5625" Velocity="0" />
      <note Length="0.0625" Pitch="40" RiffPosition="2.625" Velocity="0" />
      <note Length="0.0625" Pitch="40" RiffPosition="2.6875" Velocity="0" />
      <note Length="0.0625" Pitch="40" RiffPosition="2.75" Velocity="0" />
      <note Length="0.0625" Pitch="40" RiffPosition="2.8125" Velocity="0" />
      <note Length="0.0625" Pitch="40" RiffPosition="2.875" Velocity="0" />
      <note Length="0.0625" Pitch="40" RiffPosition="2.9375" Velocity="0" />
      <note Length="0.0625" Pitch="40" RiffPosition="3" Velocity="0" />
      <note Length="0.0625" Pitch="40" RiffPosition="3.0625" Velocity="105" />
      <note Length="0.0625" Pitch="40" RiffPosition="3.125" Velocity="0" />
      <note Length="0.0625" Pitch="40" RiffPosition="3.1875" Velocity="105" />
      <note Length="0.0625" Pitch="40" RiffPosition="3.25" Velocity="0" />
      <note Length="0.0625" Pitch="40" RiffPosition="3.3125" Velocity="105" />
      <note Length="0.0625" Pitch="40" RiffPosition="3.375" Velocity="0" />
      <note Length="0.0625" Pitch="40" RiffPosition="3.4375" Velocity="105" />
      <note Length="0.0625" Pitch="40" RiffPosition="3.5" Velocity="0" />
      <note Length="0.0625" Pitch="40" RiffPosition="3.5625" Velocity="105" />
      <note Length="0.0625" Pitch="40" RiffPosition="3.625" Velocity="0" />
      <note Length="0.0625" Pitch="40" RiffPosition="3.6875" Velocity="105" />
      <note Length="0.0625" Pitch="40" RiffPosition="3.75" Velocity="0" />
      <note Length="0.0625" Pitch="40" RiffPosition="3.8125" Velocity="105" />
      <note Length="0.0625" Pitch="40" RiffPosition="3.875" Velocity="0" />
      <note Length="0.0625" Pitch="40" RiffPosition="3.9375" Velocity="105" />
      <note Length="0.0625" Pitch="40" RiffPosition="4" Velocity="0" />
      <note Length="0.0625" Pitch="40" RiffPosition="4.0625" Velocity="105" />
      <note Length="0.0625" Pitch="40" RiffPosition="4.125" Velocity="0" />
      <note Length="0.0625" Pitch="40" RiffPosition="4.1875" Velocity="105" />
      <note Length="0.0625" Pitch="40" RiffPosition="4.25" Velocity="0" />
      <note Length="0.0625" Pitch="40" RiffPosition="4.3125" Velocity="105" />
      <note Length="0.0625" Pitch="40" RiffPosition="4.375" Velocity="0" />
      <note Length="0.0625" Pitch="40" RiffPosition="4.4375" Velocity="105" />
      <note Length="0.0625" Pitch="40" RiffPosition="4.5" Velocity="0" />
      <note Length="0.0625" Pitch="40" RiffPosition="4.5625" Velocity="105" />
      <note Length="0.0625" Pitch="40" RiffPosition="4.625" Velocity="0" />
      <note Length="0.0625" Pitch="40" RiffPosition="4.6875" Velocity="105" />
      <note Length="0.0625" Pitch="40" RiffPosition="4.75" Velocity="0" />
      <note Length="0.0625" Pitch="40" RiffPosition="4.8125" Velocity="105" />
      <note Length="0.0625" Pitch="40" RiffPosition="4.875" Velocity="0" />
      <note Length="0.0625" Pitch="40" RiffPosition="4.9375" Velocity="105" />
      <note Length="0.0625" Pitch="40" RiffPosition="5" Velocity="0" />
      <note Length="0.0625" Pitch="40" RiffPosition="5.0625" Velocity="105" />
      <note Length="0.0625" Pitch="40" RiffPosition="5.125" Velocity="0" />
      <note Length="0.0625" Pitch="40" RiffPosition="5.1875" Velocity="105" />
      <note Length="0.0625" Pitch="40" RiffPosition="5.25" Velocity="0" />
      <note Length="0.0625" Pitch="40" RiffPosition="5.3125" Velocity="105" />
      <note Length="0.0625" Pitch="40" RiffPosition="5.375" Velocity="0" />
      <note Length="0.0625" Pitch="40" RiffPosition="5.4375" Velocity="105" />
      <note Length="0.0625" Pitch="40" RiffPosition="5.5" Velocity="0" />
      <note Length="0.0625" Pitch="40" RiffPosition="5.5625" Velocity="105" />
      <note Length="0.0625" Pitch="40" RiffPosition="5.625" Velocity="0" />
      <note Length="0.0625" Pitch="40" RiffPosition="5.6875" Velocity="105" />
      <note Length="0.0625" Pitch="40" RiffPosition="5.75" Velocity="0" />
      <note Length="0.0625" Pitch="40" RiffPosition="5.8125" Velocity="105" />
      <note Length="0.0625" Pitch="40" RiffPosition="5.875" Velocity="0" />
      <note Length="0.0625" Pitch="40" RiffPosition="5.9375" Velocity="105" />
      <note Length="0.0625" Pitch="40" RiffPosition="6" Velocity="0" />
      <note Length="0.0625" Pitch="40" RiffPosition="6.0625" Velocity="105" />
      <note Length="0.0625" Pitch="40" RiffPosition="6.125" Velocity="0" />
      <note Length="0.0625" Pitch="40" RiffPosition="6.1875" Velocity="105" />
      <note Length="0.0625" Pitch="40" RiffPosition="6.25" Velocity="0" />
      <note Length="0.0625" Pitch="40" RiffPosition="6.3125" Velocity="105" />
      <note Length="0.0625" Pitch="40" RiffPosition="6.375" Velocity="0" />
      <note Length="0.0625" Pitch="40" RiffPosition="6.4375" Velocity="105" />
      <note Length="0.0625" Pitch="40" RiffPosition="6.5" Velocity="0" />
      <note Length="0.0625" Pitch="40" RiffPosition="6.5625" Velocity="105" />
      <note Length="0.0625" Pitch="40" RiffPosition="6.625" Velocity="0" />
      <note Length="0.0625" Pitch="40" RiffPosition="6.6875" Velocity="105" />
      <note Length="0.0625" Pitch="40" RiffPosition="6.75" Velocity="0" />
      <note Length="0.0625" Pitch="40" RiffPosition="6.8125" Velocity="105" />
      <note Length="0.0625" Pitch="40" RiffPosition="6.875" Velocity="0" />
      <note Length="0.0625" Pitch="40" RiffPosition="6.9375" Velocity="105" />
      <note Length="0.0625" Pitch="40" RiffPosition="7" Velocity="0" />
      <note Length="0.0625" Pitch="40" RiffPosition="7.0625" Velocity="105" />
      <note Length="0.0625" Pitch="40" RiffPosition="7.125" Velocity="0" />
      <note Length="0.0625" Pitch="40" RiffPosition="7.1875" Velocity="105" />
      <note Length="0.0625" Pitch="40" RiffPosition="7.25" Velocity="0" />
      <note Length="0.0625" Pitch="40" RiffPosition="7.3125" Velocity="105" />
      <note Length="0.0625" Pitch="40" RiffPosition="7.375" Velocity="0" />
      <note Length="0.0625" Pitch="40" RiffPosition="7.4375" Velocity="105" />
      <note Length="0.0625" Pitch="40" RiffPosition="7.5" Velocity="0" />
      <note Length="0.0625" Pitch="40" RiffPosition="7.5625" Velocity="105" />
      <note Length="0.0625" Pitch="40" RiffPosition="7.625" Velocity="0" />
      <note Length="0.0625" Pitch="40" RiffPosition="7.6875" Velocity="105" />
      <note Length="0.0625" Pitch="40" RiffPosition="7.75" Velocity="0" />
      <note Length="0.0625" Pitch="40" RiffPosition="7.8125" Velocity="105" />
      <note Length="0.0625" Pitch="40" RiffPosition="7.875" Velocity="0" />
      <note Length="0.0625" Pitch="40" RiffPosition="7.9375" Velocity="105" />
      <note Length="0.0625" Pitch="40" RiffPosition="8" Velocity="0" />
      <note Length="0.0625" Pitch="40" RiffPosition="8.0625" Velocity="105" />
      <note Length="0.0625" Pitch="40" RiffPosition="8.125" Velocity="0" />
      <note Length="0.0625" Pitch="40" RiffPosition="8.1875" Velocity="105" />
      <note Length="0.0625" Pitch="40" RiffPosition="8.25" Velocity="0" />
      <note Length="0.0625" Pitch="40" RiffPosition="8.3125" Velocity="105" />
      <note Length="0.0625" Pitch="40" RiffPosition="8.375" Velocity="0" />
      <note Length="0.0625" Pitch="40" RiffPosition="8.4375" Velocity="105" />
      <note Length="0.0625" Pitch="40" RiffPosition="8.5" Velocity="0" />
      <note Length="0.0625" Pitch="40" RiffPosition="8.5625" Velocity="105" />
      <note Length="0.0625" Pitch="40" RiffPosition="8.625" Velocity="0" />
      <note Length="0.0625" Pitch="40" RiffPosition="8.6875" Velocity="105" />
      <note Length="0.0625" Pitch="40" RiffPosition="8.75" Velocity="0" />
      <note Length="0.0625" Pitch="40" RiffPosition="8.8125" Velocity="105" />
      <note Length="0.0625" Pitch="40" RiffPosition="8.875" Velocity="0" />
      <note Length="0.0625" Pitch="40" RiffPosition="8.9375" Velocity="105" />
      <note Length="0.0625" Pitch="40" RiffPosition="9" Velocity="0" />
      <note Length="0.0625" Pitch="40" RiffPosition="9.0625" Velocity="0" />
      <note Length="0.0625" Pitch="40" RiffPosition="9.125" Velocity="0" />
      <note Length="0.0625" Pitch="40" RiffPosition="9.1875" Velocity="0" />
      <note Length="0.0625" Pitch="40" RiffPosition="9.25" Velocity="0" />
      <note Length="0.0625" Pitch="40" RiffPosition="9.3125" Velocity="0" />
      <note Length="0.0625" Pitch="40" RiffPosition="9.375" Velocity="0" />
      <note Length="0.0625" Pitch="40" RiffPosition="9.4375" Velocity="0" />
      <note Length="0.0625" Pitch="40" RiffPosition="9.5" Velocity="0" />
      <note Length="0.0625" Pitch="40" RiffPosition="9.5625" Velocity="0" />
      <note Length="0.0625" Pitch="40" RiffPosition="9.625" Velocity="0" />
      <note Length="0.0625" Pitch="40" RiffPosition="9.6875" Velocity="0" />
      <note Length="0.0625" Pitch="40" RiffPosition="9.75" Velocity="0" />
      <note Length="0.0625" Pitch="40" RiffPosition="9.8125" Velocity="0" />
      <note Length="0.0625" Pitch="40" RiffPosition="9.875" Velocity="0" />
      <note Length="0.0625" Pitch="40" RiffPosition="9.9375" Velocity="0" />
      <note Length="0.0625" Pitch="40" RiffPosition="10" Velocity="0" />
      <note Length="0.0625" Pitch="40" RiffPosition="10.0625" Velocity="0" />
      <note Length="0.0625" Pitch="40" RiffPosition="10.125" Velocity="0" />
      <note Length="0.0625" Pitch="40" RiffPosition="10.1875" Velocity="0" />
      <note Length="0.0625" Pitch="40" RiffPosition="10.25" Velocity="0" />
      <note Length="0.0625" Pitch="40" RiffPosition="10.3125" Velocity="0" />
      <note Length="0.0625" Pitch="40" RiffPosition="10.375" Velocity="0" />
      <note Length="0.0625" Pitch="40" RiffPosition="10.4375" Velocity="0" />
      <note Length="0.0625" Pitch="40" RiffPosition="10.5" Velocity="0" />
      <note Length="0.0625" Pitch="40" RiffPosition="10.5625" Velocity="0" />
      <note Length="0.0625" Pitch="40" RiffPosition="10.625" Velocity="0" />
      <note Length="0.0625" Pitch="40" RiffPosition="10.6875" Velocity="0" />
      <note Length="0.0625" Pitch="40" RiffPosition="10.75" Velocity="0" />
      <note Length="0.0625" Pitch="40" RiffPosition="10.8125" Velocity="0" />
      <note Length="0.0625" Pitch="40" RiffPosition="10.875" Velocity="0" />
      <note Length="0.0625" Pitch="40" RiffPosition="10.9375" Velocity="0" />
      <note Length="0.0625" Pitch="40" RiffPosition="11" Velocity="0" />
      <note Length="0.0625" Pitch="40" RiffPosition="11.0625" Velocity="105" />
      <note Length="0.0625" Pitch="40" RiffPosition="11.125" Velocity="0" />
      <note Length="0.0625" Pitch="40" RiffPosition="11.1875" Velocity="105" />
      <note Length="0.0625" Pitch="40" RiffPosition="11.25" Velocity="0" />
      <note Length="0.0625" Pitch="40" RiffPosition="11.3125" Velocity="105" />
      <note Length="0.0625" Pitch="40" RiffPosition="11.375" Velocity="0" />
      <note Length="0.0625" Pitch="40" RiffPosition="11.4375" Velocity="105" />
      <note Length="0.0625" Pitch="40" RiffPosition="11.5" Velocity="0" />
      <note Length="0.0625" Pitch="40" RiffPosition="11.5625" Velocity="105" />
      <note Length="0.0625" Pitch="40" RiffPosition="11.625" Velocity="0" />
      <note Length="0.0625" Pitch="40" RiffPosition="11.6875" Velocity="105" />
      <note Length="0.0625" Pitch="40" RiffPosition="11.75" Velocity="0" />
      <note Length="0.0625" Pitch="40" RiffPosition="11.8125" Velocity="105" />
      <note Length="0.0625" Pitch="40" RiffPosition="11.875" Velocity="0" />
      <note Length="0.0625" Pitch="40" RiffPosition="11.9375" Velocity="105" />
    </riff>
    <riff IsDrum="False" MidiInstrument="36" Tempo="101" Length="12">
      <note Length="0.015625" Pitch="45" RiffPosition="0" Velocity="0" />
      <note Length="0.015625" Pitch="45" RiffPosition="0.015625" Velocity="0" />
      <note Length="0.03125" Pitch="30" RiffPosition="0.03125" Velocity="0" />
      <note Length="0.0234375" Pitch="30" RiffPosition="0.0625" Velocity="0" />
      <note Length="0.0078125" Pitch="30" RiffPosition="0.0859375" Velocity="0" />
      <note Length="0.03125" Pitch="30" RiffPosition="0.09375" Velocity="0" />
      <note Length="0.015625" Pitch="30" RiffPosition="0.125" Velocity="0" />
      <note Length="0.015625" Pitch="30" RiffPosition="0.140625" Velocity="0" />
      <note Length="0.03125" Pitch="38" RiffPosition="0.15625" Velocity="0" />
      <note Length="0.0234375" Pitch="30" RiffPosition="0.1875" Velocity="0" />
      <note Length="0.0078125" Pitch="42" RiffPosition="0.2109375" Velocity="0" />
      <note Length="0.03125" Pitch="42" RiffPosition="0.21875" Velocity="0" />
      <note Length="0.015625" Pitch="45" RiffPosition="0.25" Velocity="0" />
      <note Length="0.015625" Pitch="44" RiffPosition="0.265625" Velocity="0" />
      <note Length="0.03125" Pitch="42" RiffPosition="0.28125" Velocity="0" />
      <note Length="0.0234375" Pitch="44" RiffPosition="0.3125" Velocity="0" />
      <note Length="0.0078125" Pitch="45" RiffPosition="0.3359375" Velocity="0" />
      <note Length="0.03125" Pitch="45" RiffPosition="0.34375" Velocity="0" />
      <note Length="0.015625" Pitch="30" RiffPosition="0.375" Velocity="0" />
      <note Length="0.015625" Pitch="30" RiffPosition="0.390625" Velocity="0" />
      <note Length="0.03125" Pitch="37" RiffPosition="0.40625" Velocity="0" />
      <note Length="0.0234375" Pitch="37" RiffPosition="0.4375" Velocity="0" />
      <note Length="0.0078125" Pitch="30" RiffPosition="0.4609375" Velocity="0" />
      <note Length="0.03125" Pitch="30" RiffPosition="0.46875" Velocity="0" />
      <note Length="0.015625" Pitch="30" RiffPosition="0.5" Velocity="0" />
      <note Length="0.015625" Pitch="38" RiffPosition="0.515625" Velocity="0" />
      <note Length="0.03125" Pitch="30" RiffPosition="0.53125" Velocity="0" />
      <note Length="0.0234375" Pitch="30" RiffPosition="0.5625" Velocity="0" />
      <note Length="0.0078125" Pitch="45" RiffPosition="0.5859375" Velocity="0" />
      <note Length="0.03125" Pitch="45" RiffPosition="0.59375" Velocity="0" />
      <note Length="0.015625" Pitch="45" RiffPosition="0.625" Velocity="0" />
      <note Length="0.015625" Pitch="45" RiffPosition="0.640625" Velocity="0" />
      <note Length="0.03125" Pitch="45" RiffPosition="0.65625" Velocity="0" />
      <note Length="0.0234375" Pitch="30" RiffPosition="0.6875" Velocity="0" />
      <note Length="0.0078125" Pitch="42" RiffPosition="0.7109375" Velocity="0" />
      <note Length="0.03125" Pitch="42" RiffPosition="0.71875" Velocity="0" />
      <note Length="0.015625" Pitch="30" RiffPosition="0.75" Velocity="0" />
      <note Length="0.015625" Pitch="30" RiffPosition="0.765625" Velocity="0" />
      <note Length="0.03125" Pitch="30" RiffPosition="0.78125" Velocity="0" />
      <note Length="0.0234375" Pitch="30" RiffPosition="0.8125" Velocity="0" />
      <note Length="0.0078125" Pitch="30" RiffPosition="0.8359375" Velocity="0" />
      <note Length="0.03125" Pitch="30" RiffPosition="0.84375" Velocity="0" />
      <note Length="0.015625" Pitch="42" RiffPosition="0.875" Velocity="0" />
      <note Length="0.015625" Pitch="42" RiffPosition="0.890625" Velocity="0" />
      <note Length="0.03125" Pitch="45" RiffPosition="0.90625" Velocity="0" />
      <note Length="0.0234375" Pitch="45" RiffPosition="0.9375" Velocity="0" />
      <note Length="0.0078125" Pitch="45" RiffPosition="0.9609375" Velocity="0" />
      <note Length="0.03125" Pitch="47" RiffPosition="0.96875" Velocity="0" />
      <note Length="0.015625" Pitch="45" RiffPosition="1" Velocity="0" />
      <note Length="0.015625" Pitch="45" RiffPosition="1.015625" Velocity="0" />
      <note Length="0.03125" Pitch="30" RiffPosition="1.03125" Velocity="0" />
      <note Length="0.0234375" Pitch="30" RiffPosition="1.0625" Velocity="0" />
      <note Length="0.0078125" Pitch="30" RiffPosition="1.0859375" Velocity="0" />
      <note Length="0.03125" Pitch="30" RiffPosition="1.09375" Velocity="0" />
      <note Length="0.015625" Pitch="30" RiffPosition="1.125" Velocity="0" />
      <note Length="0.015625" Pitch="30" RiffPosition="1.140625" Velocity="0" />
      <note Length="0.03125" Pitch="38" RiffPosition="1.15625" Velocity="0" />
      <note Length="0.0234375" Pitch="30" RiffPosition="1.1875" Velocity="0" />
      <note Length="0.0078125" Pitch="42" RiffPosition="1.2109375" Velocity="0" />
      <note Length="0.03125" Pitch="42" RiffPosition="1.21875" Velocity="0" />
      <note Length="0.015625" Pitch="45" RiffPosition="1.25" Velocity="0" />
      <note Length="0.015625" Pitch="44" RiffPosition="1.265625" Velocity="0" />
      <note Length="0.03125" Pitch="42" RiffPosition="1.28125" Velocity="0" />
      <note Length="0.0234375" Pitch="44" RiffPosition="1.3125" Velocity="0" />
      <note Length="0.0078125" Pitch="45" RiffPosition="1.3359375" Velocity="0" />
      <note Length="0.03125" Pitch="45" RiffPosition="1.34375" Velocity="0" />
      <note Length="0.015625" Pitch="30" RiffPosition="1.375" Velocity="0" />
      <note Length="0.015625" Pitch="30" RiffPosition="1.390625" Velocity="0" />
      <note Length="0.03125" Pitch="37" RiffPosition="1.40625" Velocity="0" />
      <note Length="0.0234375" Pitch="37" RiffPosition="1.4375" Velocity="0" />
      <note Length="0.0078125" Pitch="30" RiffPosition="1.4609375" Velocity="0" />
      <note Length="0.03125" Pitch="30" RiffPosition="1.46875" Velocity="0" />
      <note Length="0.015625" Pitch="30" RiffPosition="1.5" Velocity="0" />
      <note Length="0.015625" Pitch="38" RiffPosition="1.515625" Velocity="0" />
      <note Length="0.03125" Pitch="30" RiffPosition="1.53125" Velocity="0" />
      <note Length="0.0234375" Pitch="30" RiffPosition="1.5625" Velocity="0" />
      <note Length="0.0078125" Pitch="45" RiffPosition="1.5859375" Velocity="0" />
      <note Length="0.03125" Pitch="45" RiffPosition="1.59375" Velocity="0" />
      <note Length="0.015625" Pitch="45" RiffPosition="1.625" Velocity="0" />
      <note Length="0.015625" Pitch="45" RiffPosition="1.640625" Velocity="0" />
      <note Length="0.03125" Pitch="45" RiffPosition="1.65625" Velocity="0" />
      <note Length="0.0234375" Pitch="30" RiffPosition="1.6875" Velocity="0" />
      <note Length="0.0078125" Pitch="42" RiffPosition="1.7109375" Velocity="0" />
      <note Length="0.03125" Pitch="42" RiffPosition="1.71875" Velocity="0" />
      <note Length="0.015625" Pitch="30" RiffPosition="1.75" Velocity="0" />
      <note Length="0.015625" Pitch="30" RiffPosition="1.765625" Velocity="0" />
      <note Length="0.03125" Pitch="30" RiffPosition="1.78125" Velocity="0" />
      <note Length="0.0234375" Pitch="30" RiffPosition="1.8125" Velocity="0" />
      <note Length="0.0078125" Pitch="30" RiffPosition="1.8359375" Velocity="0" />
      <note Length="0.03125" Pitch="30" RiffPosition="1.84375" Velocity="0" />
      <note Length="0.015625" Pitch="42" RiffPosition="1.875" Velocity="0" />
      <note Length="0.015625" Pitch="42" RiffPosition="1.890625" Velocity="0" />
      <note Length="0.03125" Pitch="45" RiffPosition="1.90625" Velocity="0" />
      <note Length="0.0234375" Pitch="45" RiffPosition="1.9375" Velocity="0" />
      <note Length="0.0078125" Pitch="45" RiffPosition="1.9609375" Velocity="0" />
      <note Length="0.03125" Pitch="47" RiffPosition="1.96875" Velocity="0" />
      <note Length="0.015625" Pitch="45" RiffPosition="2" Velocity="0" />
      <note Length="0.015625" Pitch="45" RiffPosition="2.015625" Velocity="0" />
      <note Length="0.03125" Pitch="30" RiffPosition="2.03125" Velocity="0" />
      <note Length="0.0234375" Pitch="30" RiffPosition="2.0625" Velocity="0" />
      <note Length="0.0078125" Pitch="30" RiffPosition="2.0859375" Velocity="0" />
      <note Length="0.03125" Pitch="30" RiffPosition="2.09375" Velocity="0" />
      <note Length="0.015625" Pitch="30" RiffPosition="2.125" Velocity="0" />
      <note Length="0.015625" Pitch="30" RiffPosition="2.140625" Velocity="0" />
      <note Length="0.03125" Pitch="38" RiffPosition="2.15625" Velocity="0" />
      <note Length="0.0234375" Pitch="30" RiffPosition="2.1875" Velocity="0" />
      <note Length="0.0078125" Pitch="42" RiffPosition="2.2109375" Velocity="0" />
      <note Length="0.03125" Pitch="42" RiffPosition="2.21875" Velocity="0" />
      <note Length="0.015625" Pitch="45" RiffPosition="2.25" Velocity="0" />
      <note Length="0.015625" Pitch="44" RiffPosition="2.265625" Velocity="0" />
      <note Length="0.03125" Pitch="42" RiffPosition="2.28125" Velocity="0" />
      <note Length="0.0234375" Pitch="44" RiffPosition="2.3125" Velocity="0" />
      <note Length="0.0078125" Pitch="45" RiffPosition="2.3359375" Velocity="0" />
      <note Length="0.03125" Pitch="45" RiffPosition="2.34375" Velocity="0" />
      <note Length="0.015625" Pitch="30" RiffPosition="2.375" Velocity="0" />
      <note Length="0.015625" Pitch="30" RiffPosition="2.390625" Velocity="0" />
      <note Length="0.03125" Pitch="37" RiffPosition="2.40625" Velocity="0" />
      <note Length="0.0234375" Pitch="37" RiffPosition="2.4375" Velocity="0" />
      <note Length="0.0078125" Pitch="30" RiffPosition="2.4609375" Velocity="0" />
      <note Length="0.03125" Pitch="30" RiffPosition="2.46875" Velocity="0" />
      <note Length="0.015625" Pitch="30" RiffPosition="2.5" Velocity="0" />
      <note Length="0.015625" Pitch="38" RiffPosition="2.515625" Velocity="0" />
      <note Length="0.03125" Pitch="30" RiffPosition="2.53125" Velocity="0" />
      <note Length="0.0234375" Pitch="30" RiffPosition="2.5625" Velocity="0" />
      <note Length="0.0078125" Pitch="45" RiffPosition="2.5859375" Velocity="0" />
      <note Length="0.03125" Pitch="45" RiffPosition="2.59375" Velocity="0" />
      <note Length="0.015625" Pitch="45" RiffPosition="2.625" Velocity="0" />
      <note Length="0.015625" Pitch="45" RiffPosition="2.640625" Velocity="0" />
      <note Length="0.03125" Pitch="45" RiffPosition="2.65625" Velocity="0" />
      <note Length="0.0234375" Pitch="30" RiffPosition="2.6875" Velocity="0" />
      <note Length="0.0078125" Pitch="42" RiffPosition="2.7109375" Velocity="0" />
      <note Length="0.03125" Pitch="42" RiffPosition="2.71875" Velocity="0" />
      <note Length="0.015625" Pitch="30" RiffPosition="2.75" Velocity="0" />
      <note Length="0.015625" Pitch="30" RiffPosition="2.765625" Velocity="0" />
      <note Length="0.03125" Pitch="30" RiffPosition="2.78125" Velocity="0" />
      <note Length="0.0234375" Pitch="30" RiffPosition="2.8125" Velocity="0" />
      <note Length="0.0078125" Pitch="30" RiffPosition="2.8359375" Velocity="0" />
      <note Length="0.03125" Pitch="30" RiffPosition="2.84375" Velocity="0" />
      <note Length="0.015625" Pitch="42" RiffPosition="2.875" Velocity="0" />
      <note Length="0.015625" Pitch="42" RiffPosition="2.890625" Velocity="0" />
      <note Length="0.03125" Pitch="45" RiffPosition="2.90625" Velocity="0" />
      <note Length="0.0234375" Pitch="45" RiffPosition="2.9375" Velocity="0" />
      <note Length="0.0078125" Pitch="45" RiffPosition="2.9609375" Velocity="0" />
      <note Length="0.03125" Pitch="47" RiffPosition="2.96875" Velocity="0" />
      <note Length="0.015625" Pitch="45" RiffPosition="3" Velocity="82" />
      <note Length="0.015625" Pitch="45" RiffPosition="3.015625" Velocity="74" />
      <note Length="0.03125" Pitch="30" RiffPosition="3.03125" Velocity="38" />
      <note Length="0.0234375" Pitch="30" RiffPosition="3.0625" Velocity="81" />
      <note Length="0.0078125" Pitch="30" RiffPosition="3.0859375" Velocity="51" />
      <note Length="0.03125" Pitch="30" RiffPosition="3.09375" Velocity="40" />
      <note Length="0.015625" Pitch="30" RiffPosition="3.125" Velocity="100" />
      <note Length="0.015625" Pitch="30" RiffPosition="3.140625" Velocity="70" />
      <note Length="0.03125" Pitch="38" RiffPosition="3.15625" Velocity="36" />
      <note Length="0.0234375" Pitch="30" RiffPosition="3.1875" Velocity="85" />
      <note Length="0.0078125" Pitch="42" RiffPosition="3.2109375" Velocity="56" />
      <note Length="0.03125" Pitch="42" RiffPosition="3.21875" Velocity="48" />
      <note Length="0.015625" Pitch="45" RiffPosition="3.25" Velocity="93" />
      <note Length="0.015625" Pitch="44" RiffPosition="3.265625" Velocity="62" />
      <note Length="0.03125" Pitch="42" RiffPosition="3.28125" Velocity="48" />
      <note Length="0.0234375" Pitch="44" RiffPosition="3.3125" Velocity="96" />
      <note Length="0.0078125" Pitch="45" RiffPosition="3.3359375" Velocity="45" />
      <note Length="0.03125" Pitch="45" RiffPosition="3.34375" Velocity="36" />
      <note Length="0.015625" Pitch="30" RiffPosition="3.375" Velocity="104" />
      <note Length="0.015625" Pitch="30" RiffPosition="3.390625" Velocity="73" />
      <note Length="0.03125" Pitch="37" RiffPosition="3.40625" Velocity="36" />
      <note Length="0.0234375" Pitch="37" RiffPosition="3.4375" Velocity="85" />
      <note Length="0.0078125" Pitch="30" RiffPosition="3.4609375" Velocity="56" />
      <note Length="0.03125" Pitch="30" RiffPosition="3.46875" Velocity="45" />
      <note Length="0.015625" Pitch="30" RiffPosition="3.5" Velocity="93" />
      <note Length="0.015625" Pitch="38" RiffPosition="3.515625" Velocity="62" />
      <note Length="0.03125" Pitch="30" RiffPosition="3.53125" Velocity="45" />
      <note Length="0.0234375" Pitch="30" RiffPosition="3.5625" Velocity="96" />
      <note Length="0.0078125" Pitch="45" RiffPosition="3.5859375" Velocity="45" />
      <note Length="0.03125" Pitch="45" RiffPosition="3.59375" Velocity="36" />
      <note Length="0.015625" Pitch="45" RiffPosition="3.625" Velocity="81" />
      <note Length="0.015625" Pitch="45" RiffPosition="3.640625" Velocity="73" />
      <note Length="0.03125" Pitch="45" RiffPosition="3.65625" Velocity="36" />
      <note Length="0.0234375" Pitch="30" RiffPosition="3.6875" Velocity="107" />
      <note Length="0.0078125" Pitch="42" RiffPosition="3.7109375" Velocity="57" />
      <note Length="0.03125" Pitch="42" RiffPosition="3.71875" Velocity="45" />
      <note Length="0.015625" Pitch="30" RiffPosition="3.75" Velocity="94" />
      <note Length="0.015625" Pitch="30" RiffPosition="3.765625" Velocity="64" />
      <note Length="0.03125" Pitch="30" RiffPosition="3.78125" Velocity="41" />
      <note Length="0.0234375" Pitch="30" RiffPosition="3.8125" Velocity="91" />
      <note Length="0.0078125" Pitch="30" RiffPosition="3.8359375" Velocity="61" />
      <note Length="0.03125" Pitch="30" RiffPosition="3.84375" Velocity="49" />
      <note Length="0.015625" Pitch="42" RiffPosition="3.875" Velocity="90" />
      <note Length="0.015625" Pitch="42" RiffPosition="3.890625" Velocity="60" />
      <note Length="0.03125" Pitch="45" RiffPosition="3.90625" Velocity="46" />
      <note Length="0.0234375" Pitch="45" RiffPosition="3.9375" Velocity="95" />
      <note Length="0.0078125" Pitch="45" RiffPosition="3.9609375" Velocity="43" />
      <note Length="0.03125" Pitch="47" RiffPosition="3.96875" Velocity="38" />
      <note Length="0.015625" Pitch="45" RiffPosition="4" Velocity="85" />
      <note Length="0.015625" Pitch="45" RiffPosition="4.015625" Velocity="78" />
      <note Length="0.03125" Pitch="30" RiffPosition="4.03125" Velocity="42" />
      <note Length="0.0234375" Pitch="30" RiffPosition="4.0625" Velocity="78" />
      <note Length="0.0078125" Pitch="30" RiffPosition="4.0859375" Velocity="48" />
      <note Length="0.03125" Pitch="30" RiffPosition="4.09375" Velocity="36" />
      <note Length="0.015625" Pitch="30" RiffPosition="4.125" Velocity="103" />
      <note Length="0.015625" Pitch="30" RiffPosition="4.140625" Velocity="73" />
      <note Length="0.03125" Pitch="38" RiffPosition="4.15625" Velocity="37" />
      <note Length="0.0234375" Pitch="30" RiffPosition="4.1875" Velocity="82" />
      <note Length="0.0078125" Pitch="42" RiffPosition="4.2109375" Velocity="53" />
      <note Length="0.03125" Pitch="42" RiffPosition="4.21875" Velocity="41" />
      <note Length="0.015625" Pitch="45" RiffPosition="4.25" Velocity="96" />
      <note Length="0.015625" Pitch="44" RiffPosition="4.265625" Velocity="65" />
      <note Length="0.03125" Pitch="42" RiffPosition="4.28125" Velocity="51" />
      <note Length="0.0234375" Pitch="44" RiffPosition="4.3125" Velocity="92" />
      <note Length="0.0078125" Pitch="45" RiffPosition="4.3359375" Velocity="42" />
      <note Length="0.03125" Pitch="45" RiffPosition="4.34375" Velocity="40" />
      <note Length="0.015625" Pitch="30" RiffPosition="4.375" Velocity="85" />
      <note Length="0.015625" Pitch="30" RiffPosition="4.390625" Velocity="76" />
      <note Length="0.03125" Pitch="37" RiffPosition="4.40625" Velocity="40" />
      <note Length="0.0234375" Pitch="37" RiffPosition="4.4375" Velocity="81" />
      <note Length="0.0078125" Pitch="30" RiffPosition="4.4609375" Velocity="53" />
      <note Length="0.03125" Pitch="30" RiffPosition="4.46875" Velocity="42" />
      <note Length="0.015625" Pitch="30" RiffPosition="4.5" Velocity="96" />
      <note Length="0.015625" Pitch="38" RiffPosition="4.515625" Velocity="65" />
      <note Length="0.03125" Pitch="30" RiffPosition="4.53125" Velocity="42" />
      <note Length="0.0234375" Pitch="30" RiffPosition="4.5625" Velocity="93" />
      <note Length="0.0078125" Pitch="45" RiffPosition="4.5859375" Velocity="64" />
      <note Length="0.03125" Pitch="45" RiffPosition="4.59375" Velocity="39" />
      <note Length="0.015625" Pitch="45" RiffPosition="4.625" Velocity="85" />
      <note Length="0.015625" Pitch="45" RiffPosition="4.640625" Velocity="54" />
      <note Length="0.03125" Pitch="45" RiffPosition="4.65625" Velocity="39" />
      <note Length="0.0234375" Pitch="30" RiffPosition="4.6875" Velocity="104" />
      <note Length="0.0078125" Pitch="42" RiffPosition="4.7109375" Velocity="53" />
      <note Length="0.03125" Pitch="42" RiffPosition="4.71875" Velocity="42" />
      <note Length="0.015625" Pitch="30" RiffPosition="4.75" Velocity="76" />
      <note Length="0.015625" Pitch="30" RiffPosition="4.765625" Velocity="68" />
      <note Length="0.03125" Pitch="30" RiffPosition="4.78125" Velocity="38" />
      <note Length="0.0234375" Pitch="30" RiffPosition="4.8125" Velocity="87" />
      <note Length="0.0078125" Pitch="30" RiffPosition="4.8359375" Velocity="58" />
      <note Length="0.03125" Pitch="30" RiffPosition="4.84375" Velocity="46" />
      <note Length="0.015625" Pitch="42" RiffPosition="4.875" Velocity="93" />
      <note Length="0.015625" Pitch="42" RiffPosition="4.890625" Velocity="63" />
      <note Length="0.03125" Pitch="45" RiffPosition="4.90625" Velocity="43" />
      <note Length="0.0234375" Pitch="45" RiffPosition="4.9375" Velocity="92" />
      <note Length="0.0078125" Pitch="45" RiffPosition="4.9609375" Velocity="62" />
      <note Length="0.03125" Pitch="47" RiffPosition="4.96875" Velocity="42" />
      <note Length="0.015625" Pitch="45" RiffPosition="5" Velocity="89" />
      <note Length="0.015625" Pitch="45" RiffPosition="5.015625" Velocity="59" />
      <note Length="0.03125" Pitch="30" RiffPosition="5.03125" Velocity="45" />
      <note Length="0.0234375" Pitch="30" RiffPosition="5.0625" Velocity="97" />
      <note Length="0.0078125" Pitch="30" RiffPosition="5.0859375" Velocity="45" />
      <note Length="0.03125" Pitch="30" RiffPosition="5.09375" Velocity="37" />
      <note Length="0.015625" Pitch="30" RiffPosition="5.125" Velocity="106" />
      <note Length="0.015625" Pitch="30" RiffPosition="5.140625" Velocity="76" />
      <note Length="0.03125" Pitch="38" RiffPosition="5.15625" Velocity="41" />
      <note Length="0.0234375" Pitch="30" RiffPosition="5.1875" Velocity="79" />
      <note Length="0.0078125" Pitch="42" RiffPosition="5.2109375" Velocity="49" />
      <note Length="0.03125" Pitch="42" RiffPosition="5.21875" Velocity="38" />
      <note Length="0.015625" Pitch="45" RiffPosition="5.25" Velocity="100" />
      <note Length="0.015625" Pitch="44" RiffPosition="5.265625" Velocity="69" />
      <note Length="0.03125" Pitch="42" RiffPosition="5.28125" Velocity="38" />
      <note Length="0.0234375" Pitch="44" RiffPosition="5.3125" Velocity="89" />
      <note Length="0.0078125" Pitch="45" RiffPosition="5.3359375" Velocity="38" />
      <note Length="0.03125" Pitch="45" RiffPosition="5.34375" Velocity="43" />
      <note Length="0.015625" Pitch="30" RiffPosition="5.375" Velocity="88" />
      <note Length="0.015625" Pitch="30" RiffPosition="5.390625" Velocity="80" />
      <note Length="0.03125" Pitch="37" RiffPosition="5.40625" Velocity="43" />
      <note Length="0.0234375" Pitch="37" RiffPosition="5.4375" Velocity="100" />
      <note Length="0.0078125" Pitch="30" RiffPosition="5.4609375" Velocity="50" />
      <note Length="0.03125" Pitch="30" RiffPosition="5.46875" Velocity="38" />
      <note Length="0.015625" Pitch="30" RiffPosition="5.5" Velocity="99" />
      <note Length="0.015625" Pitch="38" RiffPosition="5.515625" Velocity="68" />
      <note Length="0.03125" Pitch="30" RiffPosition="5.53125" Velocity="38" />
      <note Length="0.0234375" Pitch="30" RiffPosition="5.5625" Velocity="89" />
      <note Length="0.0078125" Pitch="45" RiffPosition="5.5859375" Velocity="61" />
      <note Length="0.03125" Pitch="45" RiffPosition="5.59375" Velocity="50" />
      <note Length="0.015625" Pitch="45" RiffPosition="5.625" Velocity="88" />
      <note Length="0.015625" Pitch="45" RiffPosition="5.640625" Velocity="57" />
      <note Length="0.03125" Pitch="45" RiffPosition="5.65625" Velocity="43" />
      <note Length="0.0234375" Pitch="30" RiffPosition="5.6875" Velocity="101" />
      <note Length="0.0078125" Pitch="42" RiffPosition="5.7109375" Velocity="50" />
      <note Length="0.03125" Pitch="42" RiffPosition="5.71875" Velocity="38" />
      <note Length="0.015625" Pitch="30" RiffPosition="5.75" Velocity="79" />
      <note Length="0.015625" Pitch="30" RiffPosition="5.765625" Velocity="71" />
      <note Length="0.03125" Pitch="30" RiffPosition="5.78125" Velocity="35" />
      <note Length="0.0234375" Pitch="30" RiffPosition="5.8125" Velocity="106" />
      <note Length="0.0078125" Pitch="30" RiffPosition="5.8359375" Velocity="55" />
      <note Length="0.03125" Pitch="30" RiffPosition="5.84375" Velocity="43" />
      <note Length="0.015625" Pitch="42" RiffPosition="5.875" Velocity="97" />
      <note Length="0.015625" Pitch="42" RiffPosition="5.890625" Velocity="67" />
      <note Length="0.03125" Pitch="45" RiffPosition="5.90625" Velocity="39" />
      <note Length="0.0234375" Pitch="45" RiffPosition="5.9375" Velocity="89" />
      <note Length="0.0078125" Pitch="45" RiffPosition="5.9609375" Velocity="59" />
      <note Length="0.03125" Pitch="47" RiffPosition="5.96875" Velocity="47" />
      <note Length="0.015625" Pitch="45" RiffPosition="6" Velocity="92" />
      <note Length="0.015625" Pitch="45" RiffPosition="6.015625" Velocity="62" />
      <note Length="0.03125" Pitch="30" RiffPosition="6.03125" Velocity="49" />
      <note Length="0.0234375" Pitch="30" RiffPosition="6.0625" Velocity="93" />
      <note Length="0.0078125" Pitch="30" RiffPosition="6.0859375" Velocity="41" />
      <note Length="0.03125" Pitch="30" RiffPosition="6.09375" Velocity="40" />
      <note Length="0.015625" Pitch="30" RiffPosition="6.125" Velocity="88" />
      <note Length="0.015625" Pitch="30" RiffPosition="6.140625" Velocity="80" />
      <note Length="0.03125" Pitch="38" RiffPosition="6.15625" Velocity="44" />
      <note Length="0.0234375" Pitch="30" RiffPosition="6.1875" Velocity="75" />
      <note Length="0.0078125" Pitch="42" RiffPosition="6.2109375" Velocity="46" />
      <note Length="0.03125" Pitch="42" RiffPosition="6.21875" Velocity="35" />
      <note Length="0.015625" Pitch="45" RiffPosition="6.25" Velocity="103" />
      <note Length="0.015625" Pitch="44" RiffPosition="6.265625" Velocity="72" />
      <note Length="0.03125" Pitch="42" RiffPosition="6.28125" Velocity="35" />
      <note Length="0.0234375" Pitch="44" RiffPosition="6.3125" Velocity="86" />
      <note Length="0.0078125" Pitch="45" RiffPosition="6.3359375" Velocity="57" />
      <note Length="0.03125" Pitch="45" RiffPosition="6.34375" Velocity="46" />
      <note Length="0.015625" Pitch="30" RiffPosition="6.375" Velocity="92" />
      <note Length="0.015625" Pitch="30" RiffPosition="6.390625" Velocity="61" />
      <note Length="0.03125" Pitch="37" RiffPosition="6.40625" Velocity="46" />
      <note Length="0.0234375" Pitch="37" RiffPosition="6.4375" Velocity="97" />
      <note Length="0.0078125" Pitch="30" RiffPosition="6.4609375" Velocity="46" />
      <note Length="0.03125" Pitch="30" RiffPosition="6.46875" Velocity="35" />
      <note Length="0.015625" Pitch="30" RiffPosition="6.5" Velocity="80" />
      <note Length="0.015625" Pitch="38" RiffPosition="6.515625" Velocity="72" />
      <note Length="0.03125" Pitch="30" RiffPosition="6.53125" Velocity="35" />
      <note Length="0.0234375" Pitch="30" RiffPosition="6.5625" Velocity="86" />
      <note Length="0.0078125" Pitch="45" RiffPosition="6.5859375" Velocity="58" />
      <note Length="0.03125" Pitch="45" RiffPosition="6.59375" Velocity="46" />
      <note Length="0.015625" Pitch="45" RiffPosition="6.625" Velocity="91" />
      <note Length="0.015625" Pitch="45" RiffPosition="6.640625" Velocity="60" />
      <note Length="0.03125" Pitch="45" RiffPosition="6.65625" Velocity="46" />
      <note Length="0.0234375" Pitch="30" RiffPosition="6.6875" Velocity="97" />
      <note Length="0.0078125" Pitch="42" RiffPosition="6.7109375" Velocity="69" />
      <note Length="0.03125" Pitch="42" RiffPosition="6.71875" Velocity="35" />
      <note Length="0.015625" Pitch="30" RiffPosition="6.75" Velocity="82" />
      <note Length="0.015625" Pitch="30" RiffPosition="6.765625" Velocity="52" />
      <note Length="0.03125" Pitch="30" RiffPosition="6.78125" Velocity="39" />
      <note Length="0.0234375" Pitch="30" RiffPosition="6.8125" Velocity="103" />
      <note Length="0.0078125" Pitch="30" RiffPosition="6.8359375" Velocity="51" />
      <note Length="0.03125" Pitch="30" RiffPosition="6.84375" Velocity="39" />
      <note Length="0.015625" Pitch="42" RiffPosition="6.875" Velocity="100" />
      <note Length="0.015625" Pitch="42" RiffPosition="6.890625" Velocity="70" />
      <note Length="0.03125" Pitch="45" RiffPosition="6.90625" Velocity="36" />
      <note Length="0.0234375" Pitch="45" RiffPosition="6.9375" Velocity="85" />
      <note Length="0.0078125" Pitch="45" RiffPosition="6.9609375" Velocity="56" />
      <note Length="0.03125" Pitch="47" RiffPosition="6.96875" Velocity="44" />
      <note Length="0.015625" Pitch="45" RiffPosition="7" Velocity="95" />
      <note Length="0.015625" Pitch="45" RiffPosition="7.015625" Velocity="65" />
      <note Length="0.03125" Pitch="30" RiffPosition="7.03125" Velocity="40" />
      <note Length="0.0234375" Pitch="30" RiffPosition="7.0625" Velocity="90" />
      <note Length="0.0078125" Pitch="30" RiffPosition="7.0859375" Velocity="60" />
      <note Length="0.03125" Pitch="30" RiffPosition="7.09375" Velocity="44" />
      <note Length="0.015625" Pitch="30" RiffPosition="7.125" Velocity="91" />
      <note Length="0.015625" Pitch="30" RiffPosition="7.140625" Velocity="83" />
      <note Length="0.03125" Pitch="38" RiffPosition="7.15625" Velocity="47" />
      <note Length="0.0234375" Pitch="30" RiffPosition="7.1875" Velocity="94" />
      <note Length="0.0078125" Pitch="42" RiffPosition="7.2109375" Velocity="43" />
      <note Length="0.03125" Pitch="42" RiffPosition="7.21875" Velocity="39" />
      <note Length="0.015625" Pitch="45" RiffPosition="7.25" Velocity="106" />
      <note Length="0.015625" Pitch="44" RiffPosition="7.265625" Velocity="75" />
      <note Length="0.03125" Pitch="42" RiffPosition="7.28125" Velocity="39" />
      <note Length="0.0234375" Pitch="44" RiffPosition="7.3125" Velocity="82" />
      <note Length="0.0078125" Pitch="45" RiffPosition="7.3359375" Velocity="54" />
      <note Length="0.03125" Pitch="45" RiffPosition="7.34375" Velocity="43" />
      <note Length="0.015625" Pitch="30" RiffPosition="7.375" Velocity="95" />
      <note Length="0.015625" Pitch="30" RiffPosition="7.390625" Velocity="64" />
      <note Length="0.03125" Pitch="37" RiffPosition="7.40625" Velocity="50" />
      <note Length="0.0234375" Pitch="37" RiffPosition="7.4375" Velocity="94" />
      <note Length="0.0078125" Pitch="30" RiffPosition="7.4609375" Velocity="43" />
      <note Length="0.03125" Pitch="30" RiffPosition="7.46875" Velocity="38" />
      <note Length="0.015625" Pitch="30" RiffPosition="7.5" Velocity="84" />
      <note Length="0.015625" Pitch="38" RiffPosition="7.515625" Velocity="75" />
      <note Length="0.03125" Pitch="30" RiffPosition="7.53125" Velocity="38" />
      <note Length="0.0234375" Pitch="30" RiffPosition="7.5625" Velocity="105" />
      <note Length="0.0078125" Pitch="45" RiffPosition="7.5859375" Velocity="54" />
      <note Length="0.03125" Pitch="45" RiffPosition="7.59375" Velocity="43" />
      <note Length="0.015625" Pitch="45" RiffPosition="7.625" Velocity="95" />
      <note Length="0.015625" Pitch="45" RiffPosition="7.640625" Velocity="64" />
      <note Length="0.03125" Pitch="45" RiffPosition="7.65625" Velocity="43" />
      <note Length="0.0234375" Pitch="30" RiffPosition="7.6875" Velocity="94" />
      <note Length="0.0078125" Pitch="42" RiffPosition="7.7109375" Velocity="66" />
      <note Length="0.03125" Pitch="42" RiffPosition="7.71875" Velocity="54" />
      <note Length="0.015625" Pitch="30" RiffPosition="7.75" Velocity="86" />
      <note Length="0.015625" Pitch="30" RiffPosition="7.765625" Velocity="56" />
      <note Length="0.03125" Pitch="30" RiffPosition="7.78125" Velocity="42" />
      <note Length="0.0234375" Pitch="30" RiffPosition="7.8125" Velocity="100" />
      <note Length="0.0078125" Pitch="30" RiffPosition="7.8359375" Velocity="48" />
      <note Length="0.03125" Pitch="30" RiffPosition="7.84375" Velocity="36" />
      <note Length="0.015625" Pitch="42" RiffPosition="7.875" Velocity="81" />
      <note Length="0.015625" Pitch="42" RiffPosition="7.890625" Velocity="73" />
      <note Length="0.03125" Pitch="45" RiffPosition="7.90625" Velocity="37" />
      <note Length="0.0234375" Pitch="45" RiffPosition="7.9375" Velocity="82" />
      <note Length="0.0078125" Pitch="45" RiffPosition="7.9609375" Velocity="52" />
      <note Length="0.03125" Pitch="47" RiffPosition="7.96875" Velocity="41" />
      <note Length="0.015625" Pitch="45" RiffPosition="8" Velocity="99" />
      <note Length="0.015625" Pitch="45" RiffPosition="8.015625" Velocity="69" />
      <note Length="0.03125" Pitch="30" RiffPosition="8.03125" Velocity="37" />
      <note Length="0.0234375" Pitch="30" RiffPosition="8.0625" Velocity="86" />
      <note Length="0.0078125" Pitch="30" RiffPosition="8.0859375" Velocity="57" />
      <note Length="0.03125" Pitch="30" RiffPosition="8.09375" Velocity="45" />
      <note Length="0.015625" Pitch="30" RiffPosition="8.125" Velocity="94" />
      <note Length="0.015625" Pitch="30" RiffPosition="8.140625" Velocity="64" />
      <note Length="0.03125" Pitch="38" RiffPosition="8.15625" Velocity="51" />
      <note Length="0.0234375" Pitch="30" RiffPosition="8.1875" Velocity="91" />
      <note Length="0.0078125" Pitch="42" RiffPosition="8.2109375" Velocity="39" />
      <note Length="0.03125" Pitch="42" RiffPosition="8.21875" Velocity="42" />
      <note Length="0.015625" Pitch="45" RiffPosition="8.25" Velocity="87" />
      <note Length="0.015625" Pitch="44" RiffPosition="8.265625" Velocity="79" />
      <note Length="0.03125" Pitch="42" RiffPosition="8.28125" Velocity="42" />
      <note Length="0.0234375" Pitch="44" RiffPosition="8.3125" Velocity="79" />
      <note Length="0.0078125" Pitch="45" RiffPosition="8.3359375" Velocity="51" />
      <note Length="0.03125" Pitch="45" RiffPosition="8.34375" Velocity="39" />
      <note Length="0.015625" Pitch="30" RiffPosition="8.375" Velocity="98" />
      <note Length="0.015625" Pitch="30" RiffPosition="8.390625" Velocity="67" />
      <note Length="0.03125" Pitch="37" RiffPosition="8.40625" Velocity="39" />
      <note Length="0.0234375" Pitch="37" RiffPosition="8.4375" Velocity="90" />
      <note Length="0.0078125" Pitch="30" RiffPosition="8.4609375" Velocity="62" />
      <note Length="0.03125" Pitch="30" RiffPosition="8.46875" Velocity="42" />
      <note Length="0.015625" Pitch="30" RiffPosition="8.5" Velocity="87" />
      <note Length="0.015625" Pitch="38" RiffPosition="8.515625" Velocity="56" />
      <note Length="0.03125" Pitch="30" RiffPosition="8.53125" Velocity="42" />
      <note Length="0.0234375" Pitch="30" RiffPosition="8.5625" Velocity="102" />
      <note Length="0.0078125" Pitch="45" RiffPosition="8.5859375" Velocity="51" />
      <note Length="0.03125" Pitch="45" RiffPosition="8.59375" Velocity="40" />
      <note Length="0.015625" Pitch="45" RiffPosition="8.625" Velocity="98" />
      <note Length="0.015625" Pitch="45" RiffPosition="8.640625" Velocity="67" />
      <note Length="0.03125" Pitch="45" RiffPosition="8.65625" Velocity="40" />
      <note Length="0.0234375" Pitch="30" RiffPosition="8.6875" Velocity="91" />
      <note Length="0.0078125" Pitch="42" RiffPosition="8.7109375" Velocity="62" />
      <note Length="0.03125" Pitch="42" RiffPosition="8.71875" Velocity="50" />
      <note Length="0.015625" Pitch="30" RiffPosition="8.75" Velocity="89" />
      <note Length="0.015625" Pitch="30" RiffPosition="8.765625" Velocity="59" />
      <note Length="0.03125" Pitch="30" RiffPosition="8.78125" Velocity="47" />
      <note Length="0.0234375" Pitch="30" RiffPosition="8.8125" Velocity="96" />
      <note Length="0.0078125" Pitch="30" RiffPosition="8.8359375" Velocity="67" />
      <note Length="0.03125" Pitch="30" RiffPosition="8.84375" Velocity="37" />
      <note Length="0.015625" Pitch="42" RiffPosition="8.875" Velocity="84" />
      <note Length="0.015625" Pitch="42" RiffPosition="8.890625" Velocity="77" />
      <note Length="0.03125" Pitch="45" RiffPosition="8.90625" Velocity="41" />
      <note Length="0.0234375" Pitch="45" RiffPosition="8.9375" Velocity="101" />
      <note Length="0.0078125" Pitch="45" RiffPosition="8.9609375" Velocity="49" />
      <note Length="0.03125" Pitch="47" RiffPosition="8.96875" Velocity="37" />
      <note Length="0.015625" Pitch="45" RiffPosition="9" Velocity="102" />
      <note Length="0.015625" Pitch="45" RiffPosition="9.015625" Velocity="72" />
      <note Length="0.03125" Pitch="30" RiffPosition="9.03125" Velocity="36" />
      <note Length="0.0234375" Pitch="30" RiffPosition="9.0625" Velocity="83" />
      <note Length="0.0078125" Pitch="30" RiffPosition="9.0859375" Velocity="54" />
      <note Length="0.03125" Pitch="30" RiffPosition="9.09375" Velocity="42" />
      <note Length="0.015625" Pitch="30" RiffPosition="9.125" Velocity="98" />
      <note Length="0.015625" Pitch="30" RiffPosition="9.140625" Velocity="68" />
      <note Length="0.03125" Pitch="38" RiffPosition="9.15625" Velocity="54" />
      <note Length="0.0234375" Pitch="30" RiffPosition="9.1875" Velocity="88" />
      <note Length="0.0078125" Pitch="42" RiffPosition="9.2109375" Velocity="36" />
      <note Length="0.03125" Pitch="42" RiffPosition="9.21875" Velocity="45" />
      <note Length="0.015625" Pitch="45" RiffPosition="9.25" Velocity="91" />
      <note Length="0.015625" Pitch="44" RiffPosition="9.265625" Velocity="82" />
      <note Length="0.03125" Pitch="42" RiffPosition="9.28125" Velocity="46" />
      <note Length="0.0234375" Pitch="44" RiffPosition="9.3125" Velocity="98" />
      <note Length="0.0078125" Pitch="45" RiffPosition="9.3359375" Velocity="47" />
      <note Length="0.03125" Pitch="45" RiffPosition="9.34375" Velocity="36" />
      <note Length="0.015625" Pitch="30" RiffPosition="9.375" Velocity="102" />
      <note Length="0.015625" Pitch="30" RiffPosition="9.390625" Velocity="71" />
      <note Length="0.03125" Pitch="37" RiffPosition="9.40625" Velocity="36" />
      <note Length="0.0234375" Pitch="37" RiffPosition="9.4375" Velocity="87" />
      <note Length="0.0078125" Pitch="30" RiffPosition="9.4609375" Velocity="59" />
      <note Length="0.03125" Pitch="30" RiffPosition="9.46875" Velocity="47" />
      <note Length="0.015625" Pitch="30" RiffPosition="9.5" Velocity="90" />
      <note Length="0.015625" Pitch="38" RiffPosition="9.515625" Velocity="60" />
      <note Length="0.03125" Pitch="30" RiffPosition="9.53125" Velocity="45" />
      <note Length="0.0234375" Pitch="30" RiffPosition="9.5625" Velocity="98" />
      <note Length="0.0078125" Pitch="45" RiffPosition="9.5859375" Velocity="48" />
      <note Length="0.03125" Pitch="45" RiffPosition="9.59375" Velocity="36" />
      <note Length="0.015625" Pitch="45" RiffPosition="9.625" Velocity="79" />
      <note Length="0.015625" Pitch="45" RiffPosition="9.640625" Velocity="70" />
      <note Length="0.03125" Pitch="45" RiffPosition="9.65625" Velocity="36" />
      <note Length="0.0234375" Pitch="30" RiffPosition="9.6875" Velocity="87" />
      <note Length="0.0078125" Pitch="42" RiffPosition="9.7109375" Velocity="59" />
      <note Length="0.03125" Pitch="42" RiffPosition="9.71875" Velocity="47" />
      <note Length="0.015625" Pitch="30" RiffPosition="9.75" Velocity="92" />
      <note Length="0.015625" Pitch="30" RiffPosition="9.765625" Velocity="62" />
      <note Length="0.03125" Pitch="30" RiffPosition="9.78125" Velocity="44" />
      <note Length="0.0234375" Pitch="30" RiffPosition="9.8125" Velocity="93" />
      <note Length="0.0078125" Pitch="30" RiffPosition="9.8359375" Velocity="63" />
      <note Length="0.03125" Pitch="30" RiffPosition="9.84375" Velocity="52" />
      <note Length="0.015625" Pitch="42" RiffPosition="9.875" Velocity="88" />
      <note Length="0.015625" Pitch="42" RiffPosition="9.890625" Velocity="58" />
      <note Length="0.03125" Pitch="45" RiffPosition="9.90625" Velocity="44" />
      <note Length="0.0234375" Pitch="45" RiffPosition="9.9375" Velocity="97" />
      <note Length="0.0078125" Pitch="45" RiffPosition="9.9609375" Velocity="46" />
      <note Length="0.03125" Pitch="47" RiffPosition="9.96875" Velocity="36" />
      <note Length="0.015625" Pitch="45" RiffPosition="10" Velocity="83" />
      <note Length="0.015625" Pitch="45" RiffPosition="10.015625" Velocity="75" />
      <note Length="0.03125" Pitch="30" RiffPosition="10.03125" Velocity="40" />
      <note Length="0.0234375" Pitch="30" RiffPosition="10.0625" Velocity="80" />
      <note Length="0.0078125" Pitch="30" RiffPosition="10.0859375" Velocity="50" />
      <note Length="0.03125" Pitch="30" RiffPosition="10.09375" Velocity="38" />
      <note Length="0.015625" Pitch="30" RiffPosition="10.125" Velocity="101" />
      <note Length="0.015625" Pitch="30" RiffPosition="10.140625" Velocity="71" />
      <note Length="0.03125" Pitch="38" RiffPosition="10.15625" Velocity="35" />
      <note Length="0.0234375" Pitch="30" RiffPosition="10.1875" Velocity="84" />
      <note Length="0.0078125" Pitch="42" RiffPosition="10.2109375" Velocity="55" />
      <note Length="0.03125" Pitch="42" RiffPosition="10.21875" Velocity="49" />
      <note Length="0.015625" Pitch="45" RiffPosition="10.25" Velocity="94" />
      <note Length="0.015625" Pitch="44" RiffPosition="10.265625" Velocity="63" />
      <note Length="0.03125" Pitch="42" RiffPosition="10.28125" Velocity="49" />
      <note Length="0.0234375" Pitch="44" RiffPosition="10.3125" Velocity="94" />
      <note Length="0.0078125" Pitch="45" RiffPosition="10.3359375" Velocity="44" />
      <note Length="0.03125" Pitch="45" RiffPosition="10.34375" Velocity="37" />
      <note Length="0.015625" Pitch="30" RiffPosition="10.375" Velocity="83" />
      <note Length="0.015625" Pitch="30" RiffPosition="10.390625" Velocity="74" />
      <note Length="0.03125" Pitch="37" RiffPosition="10.40625" Velocity="38" />
      <note Length="0.0234375" Pitch="37" RiffPosition="10.4375" Velocity="84" />
      <note Length="0.0078125" Pitch="30" RiffPosition="10.4609375" Velocity="55" />
      <note Length="0.03125" Pitch="30" RiffPosition="10.46875" Velocity="44" />
      <note Length="0.015625" Pitch="30" RiffPosition="10.5" Velocity="94" />
      <note Length="0.015625" Pitch="38" RiffPosition="10.515625" Velocity="63" />
      <note Length="0.03125" Pitch="30" RiffPosition="10.53125" Velocity="44" />
      <note Length="0.0234375" Pitch="30" RiffPosition="10.5625" Velocity="95" />
      <note Length="0.0078125" Pitch="45" RiffPosition="10.5859375" Velocity="67" />
      <note Length="0.03125" Pitch="45" RiffPosition="10.59375" Velocity="37" />
      <note Length="0.015625" Pitch="45" RiffPosition="10.625" Velocity="82" />
      <note Length="0.015625" Pitch="45" RiffPosition="10.640625" Velocity="52" />
      <note Length="0.03125" Pitch="45" RiffPosition="10.65625" Velocity="37" />
      <note Length="0.0234375" Pitch="30" RiffPosition="10.6875" Velocity="106" />
      <note Length="0.0078125" Pitch="42" RiffPosition="10.7109375" Velocity="55" />
      <note Length="0.03125" Pitch="42" RiffPosition="10.71875" Velocity="44" />
      <note Length="0.015625" Pitch="30" RiffPosition="10.75" Velocity="96" />
      <note Length="0.015625" Pitch="30" RiffPosition="10.765625" Velocity="66" />
      <note Length="0.03125" Pitch="30" RiffPosition="10.78125" Velocity="40" />
      <note Length="0.0234375" Pitch="30" RiffPosition="10.8125" Velocity="90" />
      <note Length="0.0078125" Pitch="30" RiffPosition="10.8359375" Velocity="60" />
      <note Length="0.03125" Pitch="30" RiffPosition="10.84375" Velocity="48" />
      <note Length="0.015625" Pitch="42" RiffPosition="10.875" Velocity="91" />
      <note Length="0.015625" Pitch="42" RiffPosition="10.890625" Velocity="61" />
      <note Length="0.03125" Pitch="45" RiffPosition="10.90625" Velocity="48" />
      <note Length="0.0234375" Pitch="45" RiffPosition="10.9375" Velocity="94" />
      <note Length="0.0078125" Pitch="45" RiffPosition="10.9609375" Velocity="42" />
      <note Length="0.03125" Pitch="47" RiffPosition="10.96875" Velocity="39" />
      <note Length="0.015625" Pitch="45" RiffPosition="11" Velocity="87" />
      <note Length="0.015625" Pitch="45" RiffPosition="11.015625" Velocity="79" />
      <note Length="0.03125" Pitch="30" RiffPosition="11.03125" Velocity="43" />
      <note Length="0.0234375" Pitch="30" RiffPosition="11.0625" Velocity="99" />
      <note Length="0.0078125" Pitch="30" RiffPosition="11.0859375" Velocity="47" />
      <note Length="0.03125" Pitch="30" RiffPosition="11.09375" Velocity="35" />
      <note Length="0.015625" Pitch="30" RiffPosition="11.125" Velocity="104" />
      <note Length="0.015625" Pitch="30" RiffPosition="11.140625" Velocity="74" />
      <note Length="0.03125" Pitch="38" RiffPosition="11.15625" Velocity="38" />
      <note Length="0.0234375" Pitch="30" RiffPosition="11.1875" Velocity="81" />
      <note Length="0.0078125" Pitch="42" RiffPosition="11.2109375" Velocity="52" />
      <note Length="0.03125" Pitch="42" RiffPosition="11.21875" Velocity="40" />
      <note Length="0.015625" Pitch="45" RiffPosition="11.25" Velocity="97" />
      <note Length="0.015625" Pitch="44" RiffPosition="11.265625" Velocity="67" />
      <note Length="0.03125" Pitch="42" RiffPosition="11.28125" Velocity="52" />
      <note Length="0.0234375" Pitch="44" RiffPosition="11.3125" Velocity="91" />
      <note Length="0.0078125" Pitch="45" RiffPosition="11.3359375" Velocity="41" />
      <note Length="0.03125" Pitch="45" RiffPosition="11.34375" Velocity="41" />
      <note Length="0.015625" Pitch="30" RiffPosition="11.375" Velocity="86" />
      <note Length="0.015625" Pitch="30" RiffPosition="11.390625" Velocity="78" />
      <note Length="0.03125" Pitch="37" RiffPosition="11.40625" Velocity="41" />
      <note Length="0.0234375" Pitch="37" RiffPosition="11.4375" Velocity="80" />
      <note Length="0.0078125" Pitch="30" RiffPosition="11.4609375" Velocity="52" />
      <note Length="0.03125" Pitch="30" RiffPosition="11.46875" Velocity="41" />
      <note Length="0.015625" Pitch="30" RiffPosition="11.5" Velocity="97" />
      <note Length="0.015625" Pitch="38" RiffPosition="11.515625" Velocity="66" />
      <note Length="0.03125" Pitch="30" RiffPosition="11.53125" Velocity="40" />
      <note Length="0.0234375" Pitch="30" RiffPosition="11.5625" Velocity="91" />
      <note Length="0.0078125" Pitch="45" RiffPosition="11.5859375" Velocity="63" />
      <note Length="0.03125" Pitch="45" RiffPosition="11.59375" Velocity="52" />
      <note Length="0.015625" Pitch="45" RiffPosition="11.625" Velocity="86" />
      <note Length="0.015625" Pitch="45" RiffPosition="11.640625" Velocity="55" />
      <note Length="0.03125" Pitch="45" RiffPosition="11.65625" Velocity="41" />
      <note Length="0.0234375" Pitch="30" RiffPosition="11.6875" Velocity="103" />
      <note Length="0.0078125" Pitch="42" RiffPosition="11.7109375" Velocity="52" />
      <note Length="0.03125" Pitch="42" RiffPosition="11.71875" Velocity="40" />
      <note Length="0.015625" Pitch="30" RiffPosition="11.75" Velocity="77" />
      <note Length="0.015625" Pitch="30" RiffPosition="11.765625" Velocity="69" />
      <note Length="0.03125" Pitch="30" RiffPosition="11.78125" Velocity="37" />
      <note Length="0.0234375" Pitch="30" RiffPosition="11.8125" Velocity="86" />
      <note Length="0.0078125" Pitch="30" RiffPosition="11.8359375" Velocity="57" />
      <note Length="0.03125" Pitch="30" RiffPosition="11.84375" Velocity="45" />
      <note Length="0.015625" Pitch="42" RiffPosition="11.875" Velocity="94" />
      <note Length="0.015625" Pitch="42" RiffPosition="11.890625" Velocity="64" />
      <note Length="0.03125" Pitch="45" RiffPosition="11.90625" Velocity="41" />
      <note Length="0.0234375" Pitch="45" RiffPosition="11.9375" Velocity="91" />
      <note Length="0.0078125" Pitch="45" RiffPosition="11.9609375" Velocity="61" />
      <note Length="0.03125" Pitch="47" RiffPosition="11.96875" Velocity="43" />
    </riff>
    <riff IsDrum="False" MidiInstrument="34" Tempo="148" Length="12">
      <note Length="0.03125" Pitch="47" RiffPosition="0" Velocity="0" />
      <note Length="0.015625" Pitch="45" RiffPosition="0.03125" Velocity="0" />
      <note Length="0.015625" Pitch="45" RiffPosition="0.046875" Velocity="0" />
      <note Length="0.015625" Pitch="44" RiffPosition="0.0625" Velocity="0" />
      <note Length="0.015625" Pitch="42" RiffPosition="0.078125" Velocity="0" />
      <note Length="0.03125" Pitch="42" RiffPosition="0.09375" Velocity="0" />
      <note Length="0.03125" Pitch="30" RiffPosition="0.125" Velocity="0" />
      <note Length="0.015625" Pitch="42" RiffPosition="0.15625" Velocity="0" />
      <note Length="0.015625" Pitch="42" RiffPosition="0.171875" Velocity="0" />
      <note Length="0.015625" Pitch="44" RiffPosition="0.1875" Velocity="0" />
      <note Length="0.015625" Pitch="45" RiffPosition="0.203125" Velocity="0" />
      <note Length="0.03125" Pitch="45" RiffPosition="0.21875" Velocity="0" />
      <note Length="0.03125" Pitch="44" RiffPosition="0.25" Velocity="0" />
      <note Length="0.015625" Pitch="42" RiffPosition="0.28125" Velocity="0" />
      <note Length="0.015625" Pitch="30" RiffPosition="0.296875" Velocity="0" />
      <note Length="0.015625" Pitch="30" RiffPosition="0.3125" Velocity="0" />
      <note Length="0.015625" Pitch="30" RiffPosition="0.328125" Velocity="0" />
      <note Length="0.03125" Pitch="30" RiffPosition="0.34375" Velocity="0" />
      <note Length="0.03125" Pitch="30" RiffPosition="0.375" Velocity="0" />
      <note Length="0.015625" Pitch="30" RiffPosition="0.40625" Velocity="0" />
      <note Length="0.015625" Pitch="30" RiffPosition="0.421875" Velocity="0" />
      <note Length="0.015625" Pitch="30" RiffPosition="0.4375" Velocity="0" />
      <note Length="0.015625" Pitch="42" RiffPosition="0.453125" Velocity="0" />
      <note Length="0.03125" Pitch="42" RiffPosition="0.46875" Velocity="0" />
      <note Length="0.03125" Pitch="42" RiffPosition="0.5" Velocity="0" />
      <note Length="0.015625" Pitch="30" RiffPosition="0.53125" Velocity="0" />
      <note Length="0.015625" Pitch="30" RiffPosition="0.546875" Velocity="0" />
      <note Length="0.015625" Pitch="30" RiffPosition="0.5625" Velocity="0" />
      <note Length="0.015625" Pitch="38" RiffPosition="0.578125" Velocity="0" />
      <note Length="0.03125" Pitch="37" RiffPosition="0.59375" Velocity="0" />
      <note Length="0.03125" Pitch="37" RiffPosition="0.625" Velocity="0" />
      <note Length="0.015625" Pitch="38" RiffPosition="0.65625" Velocity="0" />
      <note Length="0.015625" Pitch="30" RiffPosition="0.671875" Velocity="0" />
      <note Length="0.015625" Pitch="30" RiffPosition="0.6875" Velocity="0" />
      <note Length="0.015625" Pitch="42" RiffPosition="0.703125" Velocity="0" />
      <note Length="0.03125" Pitch="42" RiffPosition="0.71875" Velocity="0" />
      <note Length="0.03125" Pitch="45" RiffPosition="0.75" Velocity="0" />
      <note Length="0.015625" Pitch="44" RiffPosition="0.78125" Velocity="0" />
      <note Length="0.015625" Pitch="42" RiffPosition="0.796875" Velocity="0" />
      <note Length="0.015625" Pitch="30" RiffPosition="0.8125" Velocity="0" />
      <note Length="0.015625" Pitch="30" RiffPosition="0.828125" Velocity="0" />
      <note Length="0.03125" Pitch="30" RiffPosition="0.84375" Velocity="0" />
      <note Length="0.03125" Pitch="30" RiffPosition="0.875" Velocity="0" />
      <note Length="0.015625" Pitch="30" RiffPosition="0.90625" Velocity="0" />
      <note Length="0.015625" Pitch="42" RiffPosition="0.921875" Velocity="0" />
      <note Length="0.015625" Pitch="44" RiffPosition="0.9375" Velocity="0" />
      <note Length="0.015625" Pitch="45" RiffPosition="0.953125" Velocity="0" />
      <note Length="0.03125" Pitch="45" RiffPosition="0.96875" Velocity="0" />
      <note Length="0.03125" Pitch="47" RiffPosition="1" Velocity="0" />
      <note Length="0.015625" Pitch="45" RiffPosition="1.03125" Velocity="0" />
      <note Length="0.015625" Pitch="45" RiffPosition="1.046875" Velocity="0" />
      <note Length="0.015625" Pitch="44" RiffPosition="1.0625" Velocity="0" />
      <note Length="0.015625" Pitch="42" RiffPosition="1.078125" Velocity="0" />
      <note Length="0.03125" Pitch="42" RiffPosition="1.09375" Velocity="0" />
      <note Length="0.03125" Pitch="30" RiffPosition="1.125" Velocity="0" />
      <note Length="0.015625" Pitch="42" RiffPosition="1.15625" Velocity="0" />
      <note Length="0.015625" Pitch="42" RiffPosition="1.171875" Velocity="0" />
      <note Length="0.015625" Pitch="44" RiffPosition="1.1875" Velocity="0" />
      <note Length="0.015625" Pitch="45" RiffPosition="1.203125" Velocity="0" />
      <note Length="0.03125" Pitch="45" RiffPosition="1.21875" Velocity="0" />
      <note Length="0.03125" Pitch="44" RiffPosition="1.25" Velocity="0" />
      <note Length="0.015625" Pitch="42" RiffPosition="1.28125" Velocity="0" />
      <note Length="0.015625" Pitch="30" RiffPosition="1.296875" Velocity="0" />
      <note Length="0.015625" Pitch="30" RiffPosition="1.3125" Velocity="0" />
      <note Length="0.015625" Pitch="30" RiffPosition="1.328125" Velocity="0" />
      <note Length="0.03125" Pitch="30" RiffPosition="1.34375" Velocity="0" />
      <note Length="0.03125" Pitch="30" RiffPosition="1.375" Velocity="0" />
      <note Length="0.015625" Pitch="30" RiffPosition="1.40625" Velocity="0" />
      <note Length="0.015625" Pitch="30" RiffPosition="1.421875" Velocity="0" />
      <note Length="0.015625" Pitch="30" RiffPosition="1.4375" Velocity="0" />
      <note Length="0.015625" Pitch="42" RiffPosition="1.453125" Velocity="0" />
      <note Length="0.03125" Pitch="42" RiffPosition="1.46875" Velocity="0" />
      <note Length="0.03125" Pitch="42" RiffPosition="1.5" Velocity="0" />
      <note Length="0.015625" Pitch="30" RiffPosition="1.53125" Velocity="0" />
      <note Length="0.015625" Pitch="30" RiffPosition="1.546875" Velocity="0" />
      <note Length="0.015625" Pitch="30" RiffPosition="1.5625" Velocity="0" />
      <note Length="0.015625" Pitch="38" RiffPosition="1.578125" Velocity="0" />
      <note Length="0.03125" Pitch="37" RiffPosition="1.59375" Velocity="0" />
      <note Length="0.03125" Pitch="37" RiffPosition="1.625" Velocity="0" />
      <note Length="0.015625" Pitch="38" RiffPosition="1.65625" Velocity="0" />
      <note Length="0.015625" Pitch="30" RiffPosition="1.671875" Velocity="0" />
      <note Length="0.015625" Pitch="30" RiffPosition="1.6875" Velocity="0" />
      <note Length="0.015625" Pitch="42" RiffPosition="1.703125" Velocity="0" />
      <note Length="0.03125" Pitch="42" RiffPosition="1.71875" Velocity="0" />
      <note Length="0.03125" Pitch="45" RiffPosition="1.75" Velocity="0" />
      <note Length="0.015625" Pitch="44" RiffPosition="1.78125" Velocity="0" />
      <note Length="0.015625" Pitch="42" RiffPosition="1.796875" Velocity="0" />
      <note Length="0.015625" Pitch="30" RiffPosition="1.8125" Velocity="0" />
      <note Length="0.015625" Pitch="30" RiffPosition="1.828125" Velocity="0" />
      <note Length="0.03125" Pitch="30" RiffPosition="1.84375" Velocity="0" />
      <note Length="0.03125" Pitch="30" RiffPosition="1.875" Velocity="0" />
      <note Length="0.015625" Pitch="30" RiffPosition="1.90625" Velocity="0" />
      <note Length="0.015625" Pitch="42" RiffPosition="1.921875" Velocity="0" />
      <note Length="0.015625" Pitch="44" RiffPosition="1.9375" Velocity="0" />
      <note Length="0.015625" Pitch="45" RiffPosition="1.953125" Velocity="0" />
      <note Length="0.03125" Pitch="45" RiffPosition="1.96875" Velocity="0" />
      <note Length="0.03125" Pitch="47" RiffPosition="2" Velocity="0" />
      <note Length="0.015625" Pitch="45" RiffPosition="2.03125" Velocity="0" />
      <note Length="0.015625" Pitch="45" RiffPosition="2.046875" Velocity="0" />
      <note Length="0.015625" Pitch="44" RiffPosition="2.0625" Velocity="0" />
      <note Length="0.015625" Pitch="42" RiffPosition="2.078125" Velocity="0" />
      <note Length="0.03125" Pitch="42" RiffPosition="2.09375" Velocity="0" />
      <note Length="0.03125" Pitch="30" RiffPosition="2.125" Velocity="0" />
      <note Length="0.015625" Pitch="42" RiffPosition="2.15625" Velocity="0" />
      <note Length="0.015625" Pitch="42" RiffPosition="2.171875" Velocity="0" />
      <note Length="0.015625" Pitch="44" RiffPosition="2.1875" Velocity="0" />
      <note Length="0.015625" Pitch="45" RiffPosition="2.203125" Velocity="0" />
      <note Length="0.03125" Pitch="45" RiffPosition="2.21875" Velocity="0" />
      <note Length="0.03125" Pitch="44" RiffPosition="2.25" Velocity="0" />
      <note Length="0.015625" Pitch="42" RiffPosition="2.28125" Velocity="0" />
      <note Length="0.015625" Pitch="30" RiffPosition="2.296875" Velocity="0" />
      <note Length="0.015625" Pitch="30" RiffPosition="2.3125" Velocity="0" />
      <note Length="0.015625" Pitch="30" RiffPosition="2.328125" Velocity="0" />
      <note Length="0.03125" Pitch="30" RiffPosition="2.34375" Velocity="0" />
      <note Length="0.03125" Pitch="30" RiffPosition="2.375" Velocity="0" />
      <note Length="0.015625" Pitch="30" RiffPosition="2.40625" Velocity="0" />
      <note Length="0.015625" Pitch="30" RiffPosition="2.421875" Velocity="0" />
      <note Length="0.015625" Pitch="30" RiffPosition="2.4375" Velocity="0" />
      <note Length="0.015625" Pitch="42" RiffPosition="2.453125" Velocity="0" />
      <note Length="0.03125" Pitch="42" RiffPosition="2.46875" Velocity="0" />
      <note Length="0.03125" Pitch="42" RiffPosition="2.5" Velocity="0" />
      <note Length="0.015625" Pitch="30" RiffPosition="2.53125" Velocity="0" />
      <note Length="0.015625" Pitch="30" RiffPosition="2.546875" Velocity="0" />
      <note Length="0.015625" Pitch="30" RiffPosition="2.5625" Velocity="0" />
      <note Length="0.015625" Pitch="38" RiffPosition="2.578125" Velocity="0" />
      <note Length="0.03125" Pitch="37" RiffPosition="2.59375" Velocity="0" />
      <note Length="0.03125" Pitch="37" RiffPosition="2.625" Velocity="0" />
      <note Length="0.015625" Pitch="38" RiffPosition="2.65625" Velocity="0" />
      <note Length="0.015625" Pitch="30" RiffPosition="2.671875" Velocity="0" />
      <note Length="0.015625" Pitch="30" RiffPosition="2.6875" Velocity="0" />
      <note Length="0.015625" Pitch="42" RiffPosition="2.703125" Velocity="0" />
      <note Length="0.03125" Pitch="42" RiffPosition="2.71875" Velocity="0" />
      <note Length="0.03125" Pitch="45" RiffPosition="2.75" Velocity="0" />
      <note Length="0.015625" Pitch="44" RiffPosition="2.78125" Velocity="0" />
      <note Length="0.015625" Pitch="42" RiffPosition="2.796875" Velocity="0" />
      <note Length="0.015625" Pitch="30" RiffPosition="2.8125" Velocity="0" />
      <note Length="0.015625" Pitch="30" RiffPosition="2.828125" Velocity="0" />
      <note Length="0.03125" Pitch="30" RiffPosition="2.84375" Velocity="0" />
      <note Length="0.03125" Pitch="30" RiffPosition="2.875" Velocity="0" />
      <note Length="0.015625" Pitch="30" RiffPosition="2.90625" Velocity="0" />
      <note Length="0.015625" Pitch="42" RiffPosition="2.921875" Velocity="0" />
      <note Length="0.015625" Pitch="44" RiffPosition="2.9375" Velocity="0" />
      <note Length="0.015625" Pitch="45" RiffPosition="2.953125" Velocity="0" />
      <note Length="0.03125" Pitch="45" RiffPosition="2.96875" Velocity="0" />
      <note Length="0.03125" Pitch="47" RiffPosition="3" Velocity="49" />
      <note Length="0.015625" Pitch="45" RiffPosition="3.03125" Velocity="78" />
      <note Length="0.015625" Pitch="45" RiffPosition="3.046875" Velocity="82" />
      <note Length="0.015625" Pitch="44" RiffPosition="3.0625" Velocity="36" />
      <note Length="0.015625" Pitch="42" RiffPosition="3.078125" Velocity="106" />
      <note Length="0.03125" Pitch="42" RiffPosition="3.09375" Velocity="101" />
      <note Length="0.03125" Pitch="30" RiffPosition="3.125" Velocity="42" />
      <note Length="0.015625" Pitch="42" RiffPosition="3.15625" Velocity="88" />
      <note Length="0.015625" Pitch="42" RiffPosition="3.171875" Velocity="66" />
      <note Length="0.015625" Pitch="44" RiffPosition="3.1875" Velocity="49" />
      <note Length="0.015625" Pitch="45" RiffPosition="3.203125" Velocity="95" />
      <note Length="0.03125" Pitch="45" RiffPosition="3.21875" Velocity="90" />
      <note Length="0.03125" Pitch="44" RiffPosition="3.25" Velocity="40" />
      <note Length="0.015625" Pitch="42" RiffPosition="3.28125" Velocity="72" />
      <note Length="0.015625" Pitch="30" RiffPosition="3.296875" Velocity="77" />
      <note Length="0.015625" Pitch="30" RiffPosition="3.3125" Velocity="38" />
      <note Length="0.015625" Pitch="30" RiffPosition="3.328125" Velocity="84" />
      <note Length="0.03125" Pitch="30" RiffPosition="3.34375" Velocity="79" />
      <note Length="0.03125" Pitch="30" RiffPosition="3.375" Velocity="51" />
      <note Length="0.015625" Pitch="30" RiffPosition="3.40625" Velocity="84" />
      <note Length="0.015625" Pitch="30" RiffPosition="3.421875" Velocity="88" />
      <note Length="0.015625" Pitch="30" RiffPosition="3.4375" Velocity="43" />
      <note Length="0.015625" Pitch="42" RiffPosition="3.453125" Velocity="72" />
      <note Length="0.03125" Pitch="42" RiffPosition="3.46875" Velocity="68" />
      <note Length="0.03125" Pitch="42" RiffPosition="3.5" Velocity="35" />
      <note Length="0.015625" Pitch="30" RiffPosition="3.53125" Velocity="95" />
      <note Length="0.015625" Pitch="30" RiffPosition="3.546875" Velocity="99" />
      <note Length="0.015625" Pitch="30" RiffPosition="3.5625" Velocity="52" />
      <note Length="0.015625" Pitch="38" RiffPosition="3.578125" Velocity="65" />
      <note Length="0.03125" Pitch="37" RiffPosition="3.59375" Velocity="62" />
      <note Length="0.03125" Pitch="37" RiffPosition="3.625" Velocity="38" />
      <note Length="0.015625" Pitch="38" RiffPosition="3.65625" Velocity="94" />
      <note Length="0.015625" Pitch="30" RiffPosition="3.671875" Velocity="97" />
      <note Length="0.015625" Pitch="30" RiffPosition="3.6875" Velocity="50" />
      <note Length="0.015625" Pitch="42" RiffPosition="3.703125" Velocity="94" />
      <note Length="0.03125" Pitch="42" RiffPosition="3.71875" Velocity="91" />
      <note Length="0.03125" Pitch="45" RiffPosition="3.75" Velocity="36" />
      <note Length="0.015625" Pitch="44" RiffPosition="3.78125" Velocity="93" />
      <note Length="0.015625" Pitch="42" RiffPosition="3.796875" Velocity="96" />
      <note Length="0.015625" Pitch="30" RiffPosition="3.8125" Velocity="48" />
      <note Length="0.015625" Pitch="30" RiffPosition="3.828125" Velocity="95" />
      <note Length="0.03125" Pitch="30" RiffPosition="3.84375" Velocity="92" />
      <note Length="0.03125" Pitch="30" RiffPosition="3.875" Velocity="36" />
      <note Length="0.015625" Pitch="30" RiffPosition="3.90625" Velocity="91" />
      <note Length="0.015625" Pitch="42" RiffPosition="3.921875" Velocity="67" />
      <note Length="0.015625" Pitch="44" RiffPosition="3.9375" Velocity="50" />
      <note Length="0.015625" Pitch="45" RiffPosition="3.953125" Velocity="97" />
      <note Length="0.03125" Pitch="45" RiffPosition="3.96875" Velocity="94" />
      <note Length="0.03125" Pitch="47" RiffPosition="4" Velocity="37" />
      <note Length="0.015625" Pitch="45" RiffPosition="4.03125" Velocity="62" />
      <note Length="0.015625" Pitch="45" RiffPosition="4.046875" Velocity="66" />
      <note Length="0.015625" Pitch="44" RiffPosition="4.0625" Velocity="49" />
      <note Length="0.015625" Pitch="42" RiffPosition="4.078125" Velocity="95" />
      <note Length="0.03125" Pitch="42" RiffPosition="4.09375" Velocity="90" />
      <note Length="0.03125" Pitch="30" RiffPosition="4.125" Velocity="40" />
      <note Length="0.015625" Pitch="42" RiffPosition="4.15625" Velocity="73" />
      <note Length="0.015625" Pitch="42" RiffPosition="4.171875" Velocity="77" />
      <note Length="0.015625" Pitch="44" RiffPosition="4.1875" Velocity="38" />
      <note Length="0.015625" Pitch="45" RiffPosition="4.203125" Velocity="83" />
      <note Length="0.03125" Pitch="45" RiffPosition="4.21875" Velocity="79" />
      <note Length="0.03125" Pitch="44" RiffPosition="4.25" Velocity="46" />
      <note Length="0.015625" Pitch="42" RiffPosition="4.28125" Velocity="84" />
      <note Length="0.015625" Pitch="30" RiffPosition="4.296875" Velocity="89" />
      <note Length="0.015625" Pitch="30" RiffPosition="4.3125" Velocity="43" />
      <note Length="0.015625" Pitch="30" RiffPosition="4.328125" Velocity="72" />
      <note Length="0.03125" Pitch="30" RiffPosition="4.34375" Velocity="94" />
      <note Length="0.03125" Pitch="30" RiffPosition="4.375" Velocity="35" />
      <note Length="0.015625" Pitch="30" RiffPosition="4.40625" Velocity="95" />
      <note Length="0.015625" Pitch="30" RiffPosition="4.421875" Velocity="100" />
      <note Length="0.015625" Pitch="30" RiffPosition="4.4375" Velocity="54" />
      <note Length="0.015625" Pitch="42" RiffPosition="4.453125" Velocity="88" />
      <note Length="0.03125" Pitch="42" RiffPosition="4.46875" Velocity="83" />
      <note Length="0.03125" Pitch="42" RiffPosition="4.5" Velocity="46" />
      <note Length="0.015625" Pitch="30" RiffPosition="4.53125" Velocity="106" />
      <note Length="0.015625" Pitch="30" RiffPosition="4.546875" Velocity="110" />
      <note Length="0.015625" Pitch="30" RiffPosition="4.5625" Velocity="36" />
      <note Length="0.015625" Pitch="38" RiffPosition="4.578125" Velocity="81" />
      <note Length="0.03125" Pitch="37" RiffPosition="4.59375" Velocity="78" />
      <note Length="0.03125" Pitch="37" RiffPosition="4.625" Velocity="49" />
      <note Length="0.015625" Pitch="38" RiffPosition="4.65625" Velocity="79" />
      <note Length="0.015625" Pitch="30" RiffPosition="4.671875" Velocity="82" />
      <note Length="0.015625" Pitch="30" RiffPosition="4.6875" Velocity="35" />
      <note Length="0.015625" Pitch="42" RiffPosition="4.703125" Velocity="82" />
      <note Length="0.03125" Pitch="42" RiffPosition="4.71875" Velocity="79" />
      <note Length="0.03125" Pitch="45" RiffPosition="4.75" Velocity="47" />
      <note Length="0.015625" Pitch="44" RiffPosition="4.78125" Velocity="77" />
      <note Length="0.015625" Pitch="42" RiffPosition="4.796875" Velocity="80" />
      <note Length="0.015625" Pitch="30" RiffPosition="4.8125" Velocity="37" />
      <note Length="0.015625" Pitch="30" RiffPosition="4.828125" Velocity="84" />
      <note Length="0.03125" Pitch="30" RiffPosition="4.84375" Velocity="81" />
      <note Length="0.03125" Pitch="30" RiffPosition="4.875" Velocity="51" />
      <note Length="0.015625" Pitch="30" RiffPosition="4.90625" Velocity="75" />
      <note Length="0.015625" Pitch="42" RiffPosition="4.921875" Velocity="79" />
      <note Length="0.015625" Pitch="44" RiffPosition="4.9375" Velocity="38" />
      <note Length="0.015625" Pitch="45" RiffPosition="4.953125" Velocity="85" />
      <note Length="0.03125" Pitch="45" RiffPosition="4.96875" Velocity="82" />
      <note Length="0.03125" Pitch="47" RiffPosition="5" Velocity="53" />
      <note Length="0.015625" Pitch="45" RiffPosition="5.03125" Velocity="74" />
      <note Length="0.015625" Pitch="45" RiffPosition="5.046875" Velocity="78" />
      <note Length="0.015625" Pitch="44" RiffPosition="5.0625" Velocity="38" />
      <note Length="0.015625" Pitch="42" RiffPosition="5.078125" Velocity="83" />
      <note Length="0.03125" Pitch="42" RiffPosition="5.09375" Velocity="105" />
      <note Length="0.03125" Pitch="30" RiffPosition="5.125" Velocity="46" />
      <note Length="0.015625" Pitch="42" RiffPosition="5.15625" Velocity="84" />
      <note Length="0.015625" Pitch="42" RiffPosition="5.171875" Velocity="89" />
      <note Length="0.015625" Pitch="44" RiffPosition="5.1875" Velocity="53" />
      <note Length="0.015625" Pitch="45" RiffPosition="5.203125" Velocity="99" />
      <note Length="0.03125" Pitch="45" RiffPosition="5.21875" Velocity="94" />
      <note Length="0.03125" Pitch="44" RiffPosition="5.25" Velocity="36" />
      <note Length="0.015625" Pitch="42" RiffPosition="5.28125" Velocity="95" />
      <note Length="0.015625" Pitch="30" RiffPosition="5.296875" Velocity="73" />
      <note Length="0.015625" Pitch="30" RiffPosition="5.3125" Velocity="42" />
      <note Length="0.015625" Pitch="30" RiffPosition="5.328125" Velocity="88" />
      <note Length="0.03125" Pitch="30" RiffPosition="5.34375" Velocity="83" />
      <note Length="0.03125" Pitch="30" RiffPosition="5.375" Velocity="47" />
      <note Length="0.015625" Pitch="30" RiffPosition="5.40625" Velocity="80" />
      <note Length="0.015625" Pitch="30" RiffPosition="5.421875" Velocity="84" />
      <note Length="0.015625" Pitch="30" RiffPosition="5.4375" Velocity="39" />
      <note Length="0.015625" Pitch="42" RiffPosition="5.453125" Velocity="77" />
      <note Length="0.03125" Pitch="42" RiffPosition="5.46875" Velocity="72" />
      <note Length="0.03125" Pitch="42" RiffPosition="5.5" Velocity="58" />
      <note Length="0.015625" Pitch="30" RiffPosition="5.53125" Velocity="91" />
      <note Length="0.015625" Pitch="30" RiffPosition="5.546875" Velocity="95" />
      <note Length="0.015625" Pitch="30" RiffPosition="5.5625" Velocity="48" />
      <note Length="0.015625" Pitch="38" RiffPosition="5.578125" Velocity="69" />
      <note Length="0.03125" Pitch="37" RiffPosition="5.59375" Velocity="66" />
      <note Length="0.03125" Pitch="37" RiffPosition="5.625" Velocity="37" />
      <note Length="0.015625" Pitch="38" RiffPosition="5.65625" Velocity="90" />
      <note Length="0.015625" Pitch="30" RiffPosition="5.671875" Velocity="93" />
      <note Length="0.015625" Pitch="30" RiffPosition="5.6875" Velocity="46" />
      <note Length="0.015625" Pitch="42" RiffPosition="5.703125" Velocity="71" />
      <note Length="0.03125" Pitch="42" RiffPosition="5.71875" Velocity="95" />
      <note Length="0.03125" Pitch="45" RiffPosition="5.75" Velocity="38" />
      <note Length="0.015625" Pitch="44" RiffPosition="5.78125" Velocity="88" />
      <note Length="0.015625" Pitch="42" RiffPosition="5.796875" Velocity="92" />
      <note Length="0.015625" Pitch="30" RiffPosition="5.8125" Velocity="45" />
      <note Length="0.015625" Pitch="30" RiffPosition="5.828125" Velocity="99" />
      <note Length="0.03125" Pitch="30" RiffPosition="5.84375" Velocity="96" />
      <note Length="0.03125" Pitch="30" RiffPosition="5.875" Velocity="40" />
      <note Length="0.015625" Pitch="30" RiffPosition="5.90625" Velocity="87" />
      <note Length="0.015625" Pitch="42" RiffPosition="5.921875" Velocity="90" />
      <note Length="0.015625" Pitch="44" RiffPosition="5.9375" Velocity="54" />
      <note Length="0.015625" Pitch="45" RiffPosition="5.953125" Velocity="101" />
      <note Length="0.03125" Pitch="45" RiffPosition="5.96875" Velocity="98" />
      <note Length="0.03125" Pitch="47" RiffPosition="6" Velocity="41" />
      <note Length="0.015625" Pitch="45" RiffPosition="6.03125" Velocity="85" />
      <note Length="0.015625" Pitch="45" RiffPosition="6.046875" Velocity="62" />
      <note Length="0.015625" Pitch="44" RiffPosition="6.0625" Velocity="53" />
      <note Length="0.015625" Pitch="42" RiffPosition="6.078125" Velocity="99" />
      <note Length="0.03125" Pitch="42" RiffPosition="6.09375" Velocity="94" />
      <note Length="0.03125" Pitch="30" RiffPosition="6.125" Velocity="36" />
      <note Length="0.015625" Pitch="42" RiffPosition="6.15625" Velocity="69" />
      <note Length="0.015625" Pitch="42" RiffPosition="6.171875" Velocity="73" />
      <note Length="0.015625" Pitch="44" RiffPosition="6.1875" Velocity="42" />
      <note Length="0.015625" Pitch="45" RiffPosition="6.203125" Velocity="87" />
      <note Length="0.03125" Pitch="45" RiffPosition="6.21875" Velocity="83" />
      <note Length="0.03125" Pitch="44" RiffPosition="6.25" Velocity="50" />
      <note Length="0.015625" Pitch="42" RiffPosition="6.28125" Velocity="80" />
      <note Length="0.015625" Pitch="30" RiffPosition="6.296875" Velocity="85" />
      <note Length="0.015625" Pitch="30" RiffPosition="6.3125" Velocity="39" />
      <note Length="0.015625" Pitch="30" RiffPosition="6.328125" Velocity="76" />
      <note Length="0.03125" Pitch="30" RiffPosition="6.34375" Velocity="71" />
      <note Length="0.03125" Pitch="30" RiffPosition="6.375" Velocity="39" />
      <note Length="0.015625" Pitch="30" RiffPosition="6.40625" Velocity="91" />
      <note Length="0.015625" Pitch="30" RiffPosition="6.421875" Velocity="96" />
      <note Length="0.015625" Pitch="30" RiffPosition="6.4375" Velocity="50" />
      <note Length="0.015625" Pitch="42" RiffPosition="6.453125" Velocity="65" />
      <note Length="0.03125" Pitch="42" RiffPosition="6.46875" Velocity="87" />
      <note Length="0.03125" Pitch="42" RiffPosition="6.5" Velocity="42" />
      <note Length="0.015625" Pitch="30" RiffPosition="6.53125" Velocity="102" />
      <note Length="0.015625" Pitch="30" RiffPosition="6.546875" Velocity="106" />
      <note Length="0.015625" Pitch="30" RiffPosition="6.5625" Velocity="59" />
      <note Length="0.015625" Pitch="38" RiffPosition="6.578125" Velocity="85" />
      <note Length="0.03125" Pitch="37" RiffPosition="6.59375" Velocity="82" />
      <note Length="0.03125" Pitch="37" RiffPosition="6.625" Velocity="45" />
      <note Length="0.015625" Pitch="38" RiffPosition="6.65625" Velocity="102" />
      <note Length="0.015625" Pitch="30" RiffPosition="6.671875" Velocity="105" />
      <note Length="0.015625" Pitch="30" RiffPosition="6.6875" Velocity="39" />
      <note Length="0.015625" Pitch="42" RiffPosition="6.703125" Velocity="86" />
      <note Length="0.03125" Pitch="42" RiffPosition="6.71875" Velocity="83" />
      <note Length="0.03125" Pitch="45" RiffPosition="6.75" Velocity="43" />
      <note Length="0.015625" Pitch="44" RiffPosition="6.78125" Velocity="73" />
      <note Length="0.015625" Pitch="42" RiffPosition="6.796875" Velocity="76" />
      <note Length="0.015625" Pitch="30" RiffPosition="6.8125" Velocity="41" />
      <note Length="0.015625" Pitch="30" RiffPosition="6.828125" Velocity="88" />
      <note Length="0.03125" Pitch="30" RiffPosition="6.84375" Velocity="85" />
      <note Length="0.03125" Pitch="30" RiffPosition="6.875" Velocity="42" />
      <note Length="0.015625" Pitch="30" RiffPosition="6.90625" Velocity="71" />
      <note Length="0.015625" Pitch="42" RiffPosition="6.921875" Velocity="75" />
      <note Length="0.015625" Pitch="44" RiffPosition="6.9375" Velocity="42" />
      <note Length="0.015625" Pitch="45" RiffPosition="6.953125" Velocity="89" />
      <note Length="0.03125" Pitch="45" RiffPosition="6.96875" Velocity="86" />
      <note Length="0.03125" Pitch="47" RiffPosition="7" Velocity="57" />
      <note Length="0.015625" Pitch="45" RiffPosition="7.03125" Velocity="70" />
      <note Length="0.015625" Pitch="45" RiffPosition="7.046875" Velocity="74" />
      <note Length="0.015625" Pitch="44" RiffPosition="7.0625" Velocity="42" />
      <note Length="0.015625" Pitch="42" RiffPosition="7.078125" Velocity="87" />
      <note Length="0.03125" Pitch="42" RiffPosition="7.09375" Velocity="82" />
      <note Length="0.03125" Pitch="30" RiffPosition="7.125" Velocity="50" />
      <note Length="0.015625" Pitch="42" RiffPosition="7.15625" Velocity="80" />
      <note Length="0.015625" Pitch="42" RiffPosition="7.171875" Velocity="85" />
      <note Length="0.015625" Pitch="44" RiffPosition="7.1875" Velocity="39" />
      <note Length="0.015625" Pitch="45" RiffPosition="7.203125" Velocity="103" />
      <note Length="0.03125" Pitch="45" RiffPosition="7.21875" Velocity="98" />
      <note Length="0.03125" Pitch="44" RiffPosition="7.25" Velocity="38" />
      <note Length="0.015625" Pitch="42" RiffPosition="7.28125" Velocity="91" />
      <note Length="0.015625" Pitch="30" RiffPosition="7.296875" Velocity="96" />
      <note Length="0.015625" Pitch="30" RiffPosition="7.3125" Velocity="46" />
      <note Length="0.015625" Pitch="30" RiffPosition="7.328125" Velocity="92" />
      <note Length="0.03125" Pitch="30" RiffPosition="7.34375" Velocity="87" />
      <note Length="0.03125" Pitch="30" RiffPosition="7.375" Velocity="43" />
      <note Length="0.015625" Pitch="30" RiffPosition="7.40625" Velocity="102" />
      <note Length="0.015625" Pitch="30" RiffPosition="7.421875" Velocity="80" />
      <note Length="0.015625" Pitch="30" RiffPosition="7.4375" Velocity="35" />
      <note Length="0.015625" Pitch="42" RiffPosition="7.453125" Velocity="81" />
      <note Length="0.03125" Pitch="42" RiffPosition="7.46875" Velocity="76" />
      <note Length="0.03125" Pitch="42" RiffPosition="7.5" Velocity="54" />
      <note Length="0.015625" Pitch="30" RiffPosition="7.53125" Velocity="87" />
      <note Length="0.015625" Pitch="30" RiffPosition="7.546875" Velocity="91" />
      <note Length="0.015625" Pitch="30" RiffPosition="7.5625" Velocity="44" />
      <note Length="0.015625" Pitch="38" RiffPosition="7.578125" Velocity="73" />
      <note Length="0.03125" Pitch="37" RiffPosition="7.59375" Velocity="70" />
      <note Length="0.03125" Pitch="37" RiffPosition="7.625" Velocity="56" />
      <note Length="0.015625" Pitch="38" RiffPosition="7.65625" Velocity="86" />
      <note Length="0.015625" Pitch="30" RiffPosition="7.671875" Velocity="89" />
      <note Length="0.015625" Pitch="30" RiffPosition="7.6875" Velocity="42" />
      <note Length="0.015625" Pitch="42" RiffPosition="7.703125" Velocity="75" />
      <note Length="0.03125" Pitch="42" RiffPosition="7.71875" Velocity="72" />
      <note Length="0.03125" Pitch="45" RiffPosition="7.75" Velocity="42" />
      <note Length="0.015625" Pitch="44" RiffPosition="7.78125" Velocity="84" />
      <note Length="0.015625" Pitch="42" RiffPosition="7.796875" Velocity="88" />
      <note Length="0.015625" Pitch="30" RiffPosition="7.8125" Velocity="41" />
      <note Length="0.015625" Pitch="30" RiffPosition="7.828125" Velocity="76" />
      <note Length="0.03125" Pitch="30" RiffPosition="7.84375" Velocity="100" />
      <note Length="0.03125" Pitch="30" RiffPosition="7.875" Velocity="44" />
      <note Length="0.015625" Pitch="30" RiffPosition="7.90625" Velocity="83" />
      <note Length="0.015625" Pitch="42" RiffPosition="7.921875" Velocity="86" />
      <note Length="0.015625" Pitch="44" RiffPosition="7.9375" Velocity="39" />
      <note Length="0.015625" Pitch="45" RiffPosition="7.953125" Velocity="105" />
      <note Length="0.03125" Pitch="45" RiffPosition="7.96875" Velocity="102" />
      <note Length="0.03125" Pitch="47" RiffPosition="8" Velocity="45" />
      <note Length="0.015625" Pitch="45" RiffPosition="8.03125" Velocity="81" />
      <note Length="0.015625" Pitch="45" RiffPosition="8.046875" Velocity="85" />
      <note Length="0.015625" Pitch="44" RiffPosition="8.0625" Velocity="57" />
      <note Length="0.015625" Pitch="42" RiffPosition="8.078125" Velocity="103" />
      <note Length="0.03125" Pitch="42" RiffPosition="8.09375" Velocity="98" />
      <note Length="0.03125" Pitch="30" RiffPosition="8.125" Velocity="38" />
      <note Length="0.015625" Pitch="42" RiffPosition="8.15625" Velocity="92" />
      <note Length="0.015625" Pitch="42" RiffPosition="8.171875" Velocity="69" />
      <note Length="0.015625" Pitch="44" RiffPosition="8.1875" Velocity="46" />
      <note Length="0.015625" Pitch="45" RiffPosition="8.203125" Velocity="91" />
      <note Length="0.03125" Pitch="45" RiffPosition="8.21875" Velocity="87" />
      <note Length="0.03125" Pitch="44" RiffPosition="8.25" Velocity="43" />
      <note Length="0.015625" Pitch="42" RiffPosition="8.28125" Velocity="76" />
      <note Length="0.015625" Pitch="30" RiffPosition="8.296875" Velocity="81" />
      <note Length="0.015625" Pitch="30" RiffPosition="8.3125" Velocity="35" />
      <note Length="0.015625" Pitch="30" RiffPosition="8.328125" Velocity="80" />
      <note Length="0.03125" Pitch="30" RiffPosition="8.34375" Velocity="76" />
      <note Length="0.03125" Pitch="30" RiffPosition="8.375" Velocity="43" />
      <note Length="0.015625" Pitch="30" RiffPosition="8.40625" Velocity="87" />
      <note Length="0.015625" Pitch="30" RiffPosition="8.421875" Velocity="92" />
      <note Length="0.015625" Pitch="30" RiffPosition="8.4375" Velocity="46" />
      <note Length="0.015625" Pitch="42" RiffPosition="8.453125" Velocity="69" />
      <note Length="0.03125" Pitch="42" RiffPosition="8.46875" Velocity="64" />
      <note Length="0.03125" Pitch="42" RiffPosition="8.5" Velocity="38" />
      <note Length="0.015625" Pitch="30" RiffPosition="8.53125" Velocity="98" />
      <note Length="0.015625" Pitch="30" RiffPosition="8.546875" Velocity="102" />
      <note Length="0.015625" Pitch="30" RiffPosition="8.5625" Velocity="55" />
      <note Length="0.015625" Pitch="38" RiffPosition="8.578125" Velocity="62" />
      <note Length="0.03125" Pitch="37" RiffPosition="8.59375" Velocity="86" />
      <note Length="0.03125" Pitch="37" RiffPosition="8.625" Velocity="41" />
      <note Length="0.015625" Pitch="38" RiffPosition="8.65625" Velocity="97" />
      <note Length="0.015625" Pitch="30" RiffPosition="8.671875" Velocity="101" />
      <note Length="0.015625" Pitch="30" RiffPosition="8.6875" Velocity="54" />
      <note Length="0.015625" Pitch="42" RiffPosition="8.703125" Velocity="90" />
      <note Length="0.03125" Pitch="42" RiffPosition="8.71875" Velocity="87" />
      <note Length="0.03125" Pitch="45" RiffPosition="8.75" Velocity="39" />
      <note Length="0.015625" Pitch="44" RiffPosition="8.78125" Velocity="96" />
      <note Length="0.015625" Pitch="42" RiffPosition="8.796875" Velocity="72" />
      <note Length="0.015625" Pitch="30" RiffPosition="8.8125" Velocity="45" />
      <note Length="0.015625" Pitch="30" RiffPosition="8.828125" Velocity="92" />
      <note Length="0.03125" Pitch="30" RiffPosition="8.84375" Velocity="89" />
      <note Length="0.03125" Pitch="30" RiffPosition="8.875" Velocity="38" />
      <note Length="0.015625" Pitch="30" RiffPosition="8.90625" Velocity="67" />
      <note Length="0.015625" Pitch="42" RiffPosition="8.921875" Velocity="70" />
      <note Length="0.015625" Pitch="44" RiffPosition="8.9375" Velocity="47" />
      <note Length="0.015625" Pitch="45" RiffPosition="8.953125" Velocity="94" />
      <note Length="0.03125" Pitch="45" RiffPosition="8.96875" Velocity="90" />
      <note Length="0.03125" Pitch="47" RiffPosition="9" Velocity="36" />
      <note Length="0.015625" Pitch="45" RiffPosition="9.03125" Velocity="66" />
      <note Length="0.015625" Pitch="45" RiffPosition="9.046875" Velocity="70" />
      <note Length="0.015625" Pitch="44" RiffPosition="9.0625" Velocity="46" />
      <note Length="0.015625" Pitch="42" RiffPosition="9.078125" Velocity="91" />
      <note Length="0.03125" Pitch="42" RiffPosition="9.09375" Velocity="86" />
      <note Length="0.03125" Pitch="30" RiffPosition="9.125" Velocity="54" />
      <note Length="0.015625" Pitch="42" RiffPosition="9.15625" Velocity="76" />
      <note Length="0.015625" Pitch="42" RiffPosition="9.171875" Velocity="81" />
      <note Length="0.015625" Pitch="44" RiffPosition="9.1875" Velocity="35" />
      <note Length="0.015625" Pitch="45" RiffPosition="9.203125" Velocity="80" />
      <note Length="0.03125" Pitch="45" RiffPosition="9.21875" Velocity="102" />
      <note Length="0.03125" Pitch="44" RiffPosition="9.25" Velocity="43" />
      <note Length="0.015625" Pitch="42" RiffPosition="9.28125" Velocity="87" />
      <note Length="0.015625" Pitch="30" RiffPosition="9.296875" Velocity="92" />
      <note Length="0.015625" Pitch="30" RiffPosition="9.3125" Velocity="47" />
      <note Length="0.015625" Pitch="30" RiffPosition="9.328125" Velocity="96" />
      <note Length="0.03125" Pitch="30" RiffPosition="9.34375" Velocity="91" />
      <note Length="0.03125" Pitch="30" RiffPosition="9.375" Velocity="39" />
      <note Length="0.015625" Pitch="30" RiffPosition="9.40625" Velocity="98" />
      <note Length="0.015625" Pitch="30" RiffPosition="9.421875" Velocity="103" />
      <note Length="0.015625" Pitch="30" RiffPosition="9.4375" Velocity="39" />
      <note Length="0.015625" Pitch="42" RiffPosition="9.453125" Velocity="85" />
      <note Length="0.03125" Pitch="42" RiffPosition="9.46875" Velocity="80" />
      <note Length="0.03125" Pitch="42" RiffPosition="9.5" Velocity="50" />
      <note Length="0.015625" Pitch="30" RiffPosition="9.53125" Velocity="110" />
      <note Length="0.015625" Pitch="30" RiffPosition="9.546875" Velocity="87" />
      <note Length="0.015625" Pitch="30" RiffPosition="9.5625" Velocity="40" />
      <note Length="0.015625" Pitch="38" RiffPosition="9.578125" Velocity="77" />
      <note Length="0.03125" Pitch="37" RiffPosition="9.59375" Velocity="74" />
      <note Length="0.03125" Pitch="37" RiffPosition="9.625" Velocity="52" />
      <note Length="0.015625" Pitch="38" RiffPosition="9.65625" Velocity="82" />
      <note Length="0.015625" Pitch="30" RiffPosition="9.671875" Velocity="85" />
      <note Length="0.015625" Pitch="30" RiffPosition="9.6875" Velocity="38" />
      <note Length="0.015625" Pitch="42" RiffPosition="9.703125" Velocity="79" />
      <note Length="0.03125" Pitch="42" RiffPosition="9.71875" Velocity="76" />
      <note Length="0.03125" Pitch="45" RiffPosition="9.75" Velocity="46" />
      <note Length="0.015625" Pitch="44" RiffPosition="9.78125" Velocity="80" />
      <note Length="0.015625" Pitch="42" RiffPosition="9.796875" Velocity="84" />
      <note Length="0.015625" Pitch="30" RiffPosition="9.8125" Velocity="37" />
      <note Length="0.015625" Pitch="30" RiffPosition="9.828125" Velocity="80" />
      <note Length="0.03125" Pitch="30" RiffPosition="9.84375" Velocity="77" />
      <note Length="0.03125" Pitch="30" RiffPosition="9.875" Velocity="48" />
      <note Length="0.015625" Pitch="30" RiffPosition="9.90625" Velocity="79" />
      <note Length="0.015625" Pitch="42" RiffPosition="9.921875" Velocity="82" />
      <note Length="0.015625" Pitch="44" RiffPosition="9.9375" Velocity="35" />
      <note Length="0.015625" Pitch="45" RiffPosition="9.953125" Velocity="82" />
      <note Length="0.03125" Pitch="45" RiffPosition="9.96875" Velocity="106" />
      <note Length="0.03125" Pitch="47" RiffPosition="10" Velocity="49" />
      <note Length="0.015625" Pitch="45" RiffPosition="10.03125" Velocity="77" />
      <note Length="0.015625" Pitch="45" RiffPosition="10.046875" Velocity="81" />
      <note Length="0.015625" Pitch="44" RiffPosition="10.0625" Velocity="36" />
      <note Length="0.015625" Pitch="42" RiffPosition="10.078125" Velocity="107" />
      <note Length="0.03125" Pitch="42" RiffPosition="10.09375" Velocity="102" />
      <note Length="0.03125" Pitch="30" RiffPosition="10.125" Velocity="42" />
      <note Length="0.015625" Pitch="42" RiffPosition="10.15625" Velocity="88" />
      <note Length="0.015625" Pitch="42" RiffPosition="10.171875" Velocity="92" />
      <note Length="0.015625" Pitch="44" RiffPosition="10.1875" Velocity="50" />
      <note Length="0.015625" Pitch="45" RiffPosition="10.203125" Velocity="96" />
      <note Length="0.03125" Pitch="45" RiffPosition="10.21875" Velocity="91" />
      <note Length="0.03125" Pitch="44" RiffPosition="10.25" Velocity="39" />
      <note Length="0.015625" Pitch="42" RiffPosition="10.28125" Velocity="72" />
      <note Length="0.015625" Pitch="30" RiffPosition="10.296875" Velocity="76" />
      <note Length="0.015625" Pitch="30" RiffPosition="10.3125" Velocity="39" />
      <note Length="0.015625" Pitch="30" RiffPosition="10.328125" Velocity="84" />
      <note Length="0.03125" Pitch="30" RiffPosition="10.34375" Velocity="80" />
      <note Length="0.03125" Pitch="30" RiffPosition="10.375" Velocity="50" />
      <note Length="0.015625" Pitch="30" RiffPosition="10.40625" Velocity="83" />
      <note Length="0.015625" Pitch="30" RiffPosition="10.421875" Velocity="88" />
      <note Length="0.015625" Pitch="30" RiffPosition="10.4375" Velocity="42" />
      <note Length="0.015625" Pitch="42" RiffPosition="10.453125" Velocity="73" />
      <note Length="0.03125" Pitch="42" RiffPosition="10.46875" Velocity="68" />
      <note Length="0.03125" Pitch="42" RiffPosition="10.5" Velocity="36" />
      <note Length="0.015625" Pitch="30" RiffPosition="10.53125" Velocity="94" />
      <note Length="0.015625" Pitch="30" RiffPosition="10.546875" Velocity="98" />
      <note Length="0.015625" Pitch="30" RiffPosition="10.5625" Velocity="51" />
      <note Length="0.015625" Pitch="38" RiffPosition="10.578125" Velocity="66" />
      <note Length="0.03125" Pitch="37" RiffPosition="10.59375" Velocity="63" />
      <note Length="0.03125" Pitch="37" RiffPosition="10.625" Velocity="37" />
      <note Length="0.015625" Pitch="38" RiffPosition="10.65625" Velocity="93" />
      <note Length="0.015625" Pitch="30" RiffPosition="10.671875" Velocity="97" />
      <note Length="0.015625" Pitch="30" RiffPosition="10.6875" Velocity="50" />
      <note Length="0.015625" Pitch="42" RiffPosition="10.703125" Velocity="67" />
      <note Length="0.03125" Pitch="42" RiffPosition="10.71875" Velocity="91" />
      <note Length="0.03125" Pitch="45" RiffPosition="10.75" Velocity="35" />
      <note Length="0.015625" Pitch="44" RiffPosition="10.78125" Velocity="92" />
      <note Length="0.015625" Pitch="42" RiffPosition="10.796875" Velocity="95" />
      <note Length="0.015625" Pitch="30" RiffPosition="10.8125" Velocity="49" />
      <note Length="0.015625" Pitch="30" RiffPosition="10.828125" Velocity="96" />
      <note Length="0.03125" Pitch="30" RiffPosition="10.84375" Velocity="93" />
      <note Length="0.03125" Pitch="30" RiffPosition="10.875" Velocity="36" />
      <note Length="0.015625" Pitch="30" RiffPosition="10.90625" Velocity="90" />
      <note Length="0.015625" Pitch="42" RiffPosition="10.921875" Velocity="66" />
      <note Length="0.015625" Pitch="44" RiffPosition="10.9375" Velocity="51" />
      <note Length="0.015625" Pitch="45" RiffPosition="10.953125" Velocity="98" />
      <note Length="0.03125" Pitch="45" RiffPosition="10.96875" Velocity="94" />
      <note Length="0.03125" Pitch="47" RiffPosition="11" Velocity="38" />
      <note Length="0.015625" Pitch="45" RiffPosition="11.03125" Velocity="62" />
      <note Length="0.015625" Pitch="45" RiffPosition="11.046875" Velocity="66" />
      <note Length="0.015625" Pitch="44" RiffPosition="11.0625" Velocity="50" />
      <note Length="0.015625" Pitch="42" RiffPosition="11.078125" Velocity="95" />
      <note Length="0.03125" Pitch="42" RiffPosition="11.09375" Velocity="90" />
      <note Length="0.03125" Pitch="30" RiffPosition="11.125" Velocity="39" />
      <note Length="0.015625" Pitch="42" RiffPosition="11.15625" Velocity="72" />
      <note Length="0.015625" Pitch="42" RiffPosition="11.171875" Velocity="77" />
      <note Length="0.015625" Pitch="44" RiffPosition="11.1875" Velocity="39" />
      <note Length="0.015625" Pitch="45" RiffPosition="11.203125" Velocity="84" />
      <note Length="0.03125" Pitch="45" RiffPosition="11.21875" Velocity="79" />
      <note Length="0.03125" Pitch="44" RiffPosition="11.25" Velocity="47" />
      <note Length="0.015625" Pitch="42" RiffPosition="11.28125" Velocity="83" />
      <note Length="0.015625" Pitch="30" RiffPosition="11.296875" Velocity="88" />
      <note Length="0.015625" Pitch="30" RiffPosition="11.3125" Velocity="43" />
      <note Length="0.015625" Pitch="30" RiffPosition="11.328125" Velocity="73" />
      <note Length="0.03125" Pitch="30" RiffPosition="11.34375" Velocity="95" />
      <note Length="0.03125" Pitch="30" RiffPosition="11.375" Velocity="35" />
      <note Length="0.015625" Pitch="30" RiffPosition="11.40625" Velocity="94" />
      <note Length="0.015625" Pitch="30" RiffPosition="11.421875" Velocity="99" />
      <note Length="0.015625" Pitch="30" RiffPosition="11.4375" Velocity="54" />
      <note Length="0.015625" Pitch="42" RiffPosition="11.453125" Velocity="89" />
      <note Length="0.03125" Pitch="42" RiffPosition="11.46875" Velocity="84" />
      <note Length="0.03125" Pitch="42" RiffPosition="11.5" Velocity="46" />
      <note Length="0.015625" Pitch="30" RiffPosition="11.53125" Velocity="106" />
      <note Length="0.015625" Pitch="30" RiffPosition="11.546875" Velocity="110" />
      <note Length="0.015625" Pitch="30" RiffPosition="11.5625" Velocity="36" />
      <note Length="0.015625" Pitch="38" RiffPosition="11.578125" Velocity="81" />
      <note Length="0.03125" Pitch="37" RiffPosition="11.59375" Velocity="78" />
      <note Length="0.03125" Pitch="37" RiffPosition="11.625" Velocity="48" />
      <note Length="0.015625" Pitch="38" RiffPosition="11.65625" Velocity="105" />
      <note Length="0.015625" Pitch="30" RiffPosition="11.671875" Velocity="81" />
      <note Length="0.015625" Pitch="30" RiffPosition="11.6875" Velocity="36" />
      <note Length="0.015625" Pitch="42" RiffPosition="11.703125" Velocity="83" />
      <note Length="0.03125" Pitch="42" RiffPosition="11.71875" Velocity="80" />
      <note Length="0.03125" Pitch="45" RiffPosition="11.75" Velocity="47" />
      <note Length="0.015625" Pitch="44" RiffPosition="11.78125" Velocity="76" />
      <note Length="0.015625" Pitch="42" RiffPosition="11.796875" Velocity="79" />
      <note Length="0.015625" Pitch="30" RiffPosition="11.8125" Velocity="38" />
      <note Length="0.015625" Pitch="30" RiffPosition="11.828125" Velocity="85" />
      <note Length="0.03125" Pitch="30" RiffPosition="11.84375" Velocity="81" />
      <note Length="0.03125" Pitch="30" RiffPosition="11.875" Velocity="52" />
      <note Length="0.015625" Pitch="30" RiffPosition="11.90625" Velocity="75" />
      <note Length="0.015625" Pitch="42" RiffPosition="11.921875" Velocity="78" />
      <note Length="0.015625" Pitch="44" RiffPosition="11.9375" Velocity="39" />
      <note Length="0.015625" Pitch="45" RiffPosition="11.953125" Velocity="86" />
      <note Length="0.03125" Pitch="45" RiffPosition="11.96875" Velocity="83" />
    </riff>
    <riff IsDrum="False" MidiInstrument="106" Tempo="79" Length="12">
      <note Length="0.015625" Pitch="57" RiffPosition="0" Velocity="0" />
      <note Length="0.015625" Pitch="42" RiffPosition="0.015625" Velocity="0" />
      <note Length="0.015625" Pitch="42" RiffPosition="0.03125" Velocity="0" />
      <note Length="0.015625" Pitch="42" RiffPosition="0.046875" Velocity="0" />
      <note Length="0.0625" Pitch="42" RiffPosition="0.0625" Velocity="0" />
      <note Length="0.046875" Pitch="57" RiffPosition="0.125" Velocity="0" />
      <note Length="0.015625" Pitch="42" RiffPosition="0.171875" Velocity="0" />
      <note Length="0.03125" Pitch="42" RiffPosition="0.1875" Velocity="0" />
      <note Length="0.03125" Pitch="57" RiffPosition="0.21875" Velocity="0" />
      <note Length="0.015625" Pitch="57" RiffPosition="0.25" Velocity="0" />
      <note Length="0.015625" Pitch="56" RiffPosition="0.265625" Velocity="0" />
      <note Length="0.015625" Pitch="42" RiffPosition="0.28125" Velocity="0" />
      <note Length="0.015625" Pitch="42" RiffPosition="0.296875" Velocity="0" />
      <note Length="0.0625" Pitch="42" RiffPosition="0.3125" Velocity="0" />
      <note Length="0.046875" Pitch="54" RiffPosition="0.375" Velocity="0" />
      <note Length="0.015625" Pitch="50" RiffPosition="0.421875" Velocity="0" />
      <note Length="0.03125" Pitch="49" RiffPosition="0.4375" Velocity="0" />
      <note Length="0.03125" Pitch="42" RiffPosition="0.46875" Velocity="0" />
      <note Length="0.015625" Pitch="42" RiffPosition="0.5" Velocity="0" />
      <note Length="0.015625" Pitch="49" RiffPosition="0.515625" Velocity="0" />
      <note Length="0.015625" Pitch="47" RiffPosition="0.53125" Velocity="0" />
      <note Length="0.015625" Pitch="47" RiffPosition="0.546875" Velocity="0" />
      <note Length="0.0625" Pitch="47" RiffPosition="0.5625" Velocity="0" />
      <note Length="0.046875" Pitch="54" RiffPosition="0.625" Velocity="0" />
      <note Length="0.015625" Pitch="42" RiffPosition="0.671875" Velocity="0" />
      <note Length="0.03125" Pitch="42" RiffPosition="0.6875" Velocity="0" />
      <note Length="0.03125" Pitch="57" RiffPosition="0.71875" Velocity="0" />
      <note Length="0.015625" Pitch="59" RiffPosition="0.75" Velocity="0" />
      <note Length="0.015625" Pitch="57" RiffPosition="0.765625" Velocity="0" />
      <note Length="0.015625" Pitch="54" RiffPosition="0.78125" Velocity="0" />
      <note Length="0.015625" Pitch="54" RiffPosition="0.796875" Velocity="0" />
      <note Length="0.0625" Pitch="54" RiffPosition="0.8125" Velocity="0" />
      <note Length="0.046875" Pitch="59" RiffPosition="0.875" Velocity="0" />
      <note Length="0.015625" Pitch="42" RiffPosition="0.921875" Velocity="0" />
      <note Length="0.03125" Pitch="42" RiffPosition="0.9375" Velocity="0" />
      <note Length="0.03125" Pitch="57" RiffPosition="0.96875" Velocity="0" />
      <note Length="0.015625" Pitch="57" RiffPosition="1" Velocity="0" />
      <note Length="0.015625" Pitch="42" RiffPosition="1.015625" Velocity="0" />
      <note Length="0.015625" Pitch="42" RiffPosition="1.03125" Velocity="0" />
      <note Length="0.015625" Pitch="42" RiffPosition="1.046875" Velocity="0" />
      <note Length="0.0625" Pitch="42" RiffPosition="1.0625" Velocity="0" />
      <note Length="0.046875" Pitch="56" RiffPosition="1.125" Velocity="0" />
      <note Length="0.015625" Pitch="42" RiffPosition="1.171875" Velocity="0" />
      <note Length="0.03125" Pitch="42" RiffPosition="1.1875" Velocity="0" />
      <note Length="0.03125" Pitch="57" RiffPosition="1.21875" Velocity="0" />
      <note Length="0.015625" Pitch="57" RiffPosition="1.25" Velocity="0" />
      <note Length="0.015625" Pitch="56" RiffPosition="1.265625" Velocity="0" />
      <note Length="0.015625" Pitch="42" RiffPosition="1.28125" Velocity="0" />
      <note Length="0.015625" Pitch="42" RiffPosition="1.296875" Velocity="0" />
      <note Length="0.0625" Pitch="42" RiffPosition="1.3125" Velocity="0" />
      <note Length="0.046875" Pitch="54" RiffPosition="1.375" Velocity="0" />
      <note Length="0.015625" Pitch="49" RiffPosition="1.421875" Velocity="0" />
      <note Length="0.03125" Pitch="49" RiffPosition="1.4375" Velocity="0" />
      <note Length="0.03125" Pitch="42" RiffPosition="1.46875" Velocity="0" />
      <note Length="0.015625" Pitch="42" RiffPosition="1.5" Velocity="0" />
      <note Length="0.015625" Pitch="49" RiffPosition="1.515625" Velocity="0" />
      <note Length="0.015625" Pitch="47" RiffPosition="1.53125" Velocity="0" />
      <note Length="0.015625" Pitch="47" RiffPosition="1.546875" Velocity="0" />
      <note Length="0.0625" Pitch="47" RiffPosition="1.5625" Velocity="0" />
      <note Length="0.046875" Pitch="42" RiffPosition="1.625" Velocity="0" />
      <note Length="0.015625" Pitch="42" RiffPosition="1.671875" Velocity="0" />
      <note Length="0.03125" Pitch="42" RiffPosition="1.6875" Velocity="0" />
      <note Length="0.03125" Pitch="57" RiffPosition="1.71875" Velocity="0" />
      <note Length="0.015625" Pitch="59" RiffPosition="1.75" Velocity="0" />
      <note Length="0.015625" Pitch="57" RiffPosition="1.765625" Velocity="0" />
      <note Length="0.015625" Pitch="54" RiffPosition="1.78125" Velocity="0" />
      <note Length="0.015625" Pitch="56" RiffPosition="1.796875" Velocity="0" />
      <note Length="0.0625" Pitch="56" RiffPosition="1.8125" Velocity="0" />
      <note Length="0.046875" Pitch="59" RiffPosition="1.875" Velocity="0" />
      <note Length="0.015625" Pitch="54" RiffPosition="1.921875" Velocity="0" />
      <note Length="0.03125" Pitch="42" RiffPosition="1.9375" Velocity="0" />
      <note Length="0.03125" Pitch="57" RiffPosition="1.96875" Velocity="0" />
      <note Length="0.015625" Pitch="56" RiffPosition="2" Velocity="40" />
      <note Length="0.015625" Pitch="54" RiffPosition="2.015625" Velocity="50" />
      <note Length="0.015625" Pitch="42" RiffPosition="2.03125" Velocity="90" />
      <note Length="0.015625" Pitch="42" RiffPosition="2.046875" Velocity="73" />
      <note Length="0.0625" Pitch="42" RiffPosition="2.0625" Velocity="39" />
      <note Length="0.046875" Pitch="57" RiffPosition="2.125" Velocity="45" />
      <note Length="0.015625" Pitch="42" RiffPosition="2.171875" Velocity="32" />
      <note Length="0.03125" Pitch="42" RiffPosition="2.1875" Velocity="65" />
      <note Length="0.03125" Pitch="57" RiffPosition="2.21875" Velocity="44" />
      <note Length="0.015625" Pitch="57" RiffPosition="2.25" Velocity="86" />
      <note Length="0.015625" Pitch="54" RiffPosition="2.265625" Velocity="65" />
      <note Length="0.015625" Pitch="42" RiffPosition="2.28125" Velocity="33" />
      <note Length="0.015625" Pitch="42" RiffPosition="2.296875" Velocity="50" />
      <note Length="0.0625" Pitch="42" RiffPosition="2.3125" Velocity="74" />
      <note Length="0.046875" Pitch="54" RiffPosition="2.375" Velocity="63" />
      <note Length="0.015625" Pitch="49" RiffPosition="2.421875" Velocity="36" />
      <note Length="0.03125" Pitch="49" RiffPosition="2.4375" Velocity="49" />
      <note Length="0.03125" Pitch="42" RiffPosition="2.46875" Velocity="75" />
      <note Length="0.015625" Pitch="42" RiffPosition="2.5" Velocity="37" />
      <note Length="0.015625" Pitch="49" RiffPosition="2.515625" Velocity="53" />
      <note Length="0.015625" Pitch="47" RiffPosition="2.53125" Velocity="94" />
      <note Length="0.015625" Pitch="47" RiffPosition="2.546875" Velocity="78" />
      <note Length="0.0625" Pitch="47" RiffPosition="2.5625" Velocity="34" />
      <note Length="0.046875" Pitch="42" RiffPosition="2.625" Velocity="37" />
      <note Length="0.015625" Pitch="42" RiffPosition="2.671875" Velocity="36" />
      <note Length="0.03125" Pitch="42" RiffPosition="2.6875" Velocity="58" />
      <note Length="0.03125" Pitch="57" RiffPosition="2.71875" Velocity="31" />
      <note Length="0.015625" Pitch="59" RiffPosition="2.75" Velocity="82" />
      <note Length="0.015625" Pitch="57" RiffPosition="2.765625" Velocity="61" />
      <note Length="0.015625" Pitch="54" RiffPosition="2.78125" Velocity="30" />
      <note Length="0.015625" Pitch="56" RiffPosition="2.796875" Velocity="66" />
      <note Length="0.0625" Pitch="56" RiffPosition="2.8125" Velocity="91" />
      <note Length="0.046875" Pitch="59" RiffPosition="2.875" Velocity="77" />
      <note Length="0.015625" Pitch="42" RiffPosition="2.921875" Velocity="42" />
      <note Length="0.03125" Pitch="42" RiffPosition="2.9375" Velocity="42" />
      <note Length="0.03125" Pitch="57" RiffPosition="2.96875" Velocity="65" />
      <note Length="0.015625" Pitch="56" RiffPosition="3" Velocity="31" />
      <note Length="0.015625" Pitch="42" RiffPosition="3.015625" Velocity="60" />
      <note Length="0.015625" Pitch="42" RiffPosition="3.03125" Velocity="100" />
      <note Length="0.015625" Pitch="50" RiffPosition="3.046875" Velocity="65" />
      <note Length="0.0625" Pitch="42" RiffPosition="3.0625" Velocity="31" />
      <note Length="0.046875" Pitch="56" RiffPosition="3.125" Velocity="53" />
      <note Length="0.015625" Pitch="42" RiffPosition="3.171875" Velocity="39" />
      <note Length="0.03125" Pitch="42" RiffPosition="3.1875" Velocity="54" />
      <note Length="0.03125" Pitch="57" RiffPosition="3.21875" Velocity="36" />
      <note Length="0.015625" Pitch="57" RiffPosition="3.25" Velocity="76" />
      <note Length="0.015625" Pitch="54" RiffPosition="3.265625" Velocity="54" />
      <note Length="0.015625" Pitch="42" RiffPosition="3.28125" Velocity="41" />
      <note Length="0.015625" Pitch="42" RiffPosition="3.296875" Velocity="58" />
      <note Length="0.0625" Pitch="42" RiffPosition="3.3125" Velocity="82" />
      <note Length="0.046875" Pitch="54" RiffPosition="3.375" Velocity="71" />
      <note Length="0.015625" Pitch="49" RiffPosition="3.421875" Velocity="46" />
      <note Length="0.03125" Pitch="49" RiffPosition="3.4375" Velocity="57" />
      <note Length="0.03125" Pitch="42" RiffPosition="3.46875" Velocity="67" />
      <note Length="0.015625" Pitch="42" RiffPosition="3.5" Velocity="33" />
      <note Length="0.015625" Pitch="49" RiffPosition="3.515625" Velocity="45" />
      <note Length="0.015625" Pitch="47" RiffPosition="3.53125" Velocity="86" />
      <note Length="0.015625" Pitch="47" RiffPosition="3.546875" Velocity="69" />
      <note Length="0.0625" Pitch="47" RiffPosition="3.5625" Velocity="37" />
      <note Length="0.046875" Pitch="54" RiffPosition="3.625" Velocity="45" />
      <note Length="0.015625" Pitch="42" RiffPosition="3.671875" Velocity="32" />
      <note Length="0.03125" Pitch="42" RiffPosition="3.6875" Velocity="66" />
      <note Length="0.03125" Pitch="57" RiffPosition="3.71875" Velocity="41" />
      <note Length="0.015625" Pitch="59" RiffPosition="3.75" Velocity="90" />
      <note Length="0.015625" Pitch="57" RiffPosition="3.765625" Velocity="69" />
      <note Length="0.015625" Pitch="54" RiffPosition="3.78125" Velocity="38" />
      <note Length="0.015625" Pitch="54" RiffPosition="3.796875" Velocity="55" />
      <note Length="0.0625" Pitch="56" RiffPosition="3.8125" Velocity="80" />
      <note Length="0.046875" Pitch="59" RiffPosition="3.875" Velocity="66" />
      <note Length="0.015625" Pitch="54" RiffPosition="3.921875" Velocity="34" />
      <note Length="0.03125" Pitch="42" RiffPosition="3.9375" Velocity="50" />
      <note Length="0.03125" Pitch="57" RiffPosition="3.96875" Velocity="76" />
      <note Length="0.015625" Pitch="56" RiffPosition="4" Velocity="37" />
      <note Length="0.015625" Pitch="42" RiffPosition="4.015625" Velocity="52" />
      <note Length="0.015625" Pitch="42" RiffPosition="4.03125" Velocity="92" />
      <note Length="0.015625" Pitch="42" RiffPosition="4.046875" Velocity="75" />
      <note Length="0.0625" Pitch="42" RiffPosition="4.0625" Velocity="42" />
      <note Length="0.046875" Pitch="56" RiffPosition="4.125" Velocity="42" />
      <note Length="0.015625" Pitch="42" RiffPosition="4.171875" Velocity="31" />
      <note Length="0.03125" Pitch="42" RiffPosition="4.1875" Velocity="62" />
      <note Length="0.03125" Pitch="57" RiffPosition="4.21875" Velocity="46" />
      <note Length="0.015625" Pitch="57" RiffPosition="4.25" Velocity="84" />
      <note Length="0.015625" Pitch="56" RiffPosition="4.265625" Velocity="63" />
      <note Length="0.015625" Pitch="42" RiffPosition="4.28125" Velocity="30" />
      <note Length="0.015625" Pitch="42" RiffPosition="4.296875" Velocity="47" />
      <note Length="0.0625" Pitch="42" RiffPosition="4.3125" Velocity="90" />
      <note Length="0.046875" Pitch="54" RiffPosition="4.375" Velocity="60" />
      <note Length="0.015625" Pitch="49" RiffPosition="4.421875" Velocity="38" />
      <note Length="0.03125" Pitch="49" RiffPosition="4.4375" Velocity="47" />
      <note Length="0.03125" Pitch="42" RiffPosition="4.46875" Velocity="59" />
      <note Length="0.015625" Pitch="42" RiffPosition="4.5" Velocity="35" />
      <note Length="0.015625" Pitch="49" RiffPosition="4.515625" Velocity="55" />
      <note Length="0.015625" Pitch="47" RiffPosition="4.53125" Velocity="96" />
      <note Length="0.015625" Pitch="47" RiffPosition="4.546875" Velocity="61" />
      <note Length="0.0625" Pitch="47" RiffPosition="4.5625" Velocity="32" />
      <note Length="0.046875" Pitch="42" RiffPosition="4.625" Velocity="53" />
      <note Length="0.015625" Pitch="42" RiffPosition="4.671875" Velocity="38" />
      <note Length="0.03125" Pitch="42" RiffPosition="4.6875" Velocity="55" />
      <note Length="0.03125" Pitch="57" RiffPosition="4.71875" Velocity="33" />
      <note Length="0.015625" Pitch="59" RiffPosition="4.75" Velocity="79" />
      <note Length="0.015625" Pitch="57" RiffPosition="4.765625" Velocity="59" />
      <note Length="0.015625" Pitch="56" RiffPosition="4.78125" Velocity="33" />
      <note Length="0.015625" Pitch="56" RiffPosition="4.796875" Velocity="64" />
      <note Length="0.0625" Pitch="54" RiffPosition="4.8125" Velocity="88" />
      <note Length="0.046875" Pitch="59" RiffPosition="4.875" Velocity="74" />
      <note Length="0.015625" Pitch="54" RiffPosition="4.921875" Velocity="44" />
      <note Length="0.03125" Pitch="42" RiffPosition="4.9375" Velocity="40" />
      <note Length="0.03125" Pitch="57" RiffPosition="4.96875" Velocity="68" />
      <note Length="0.015625" Pitch="57" RiffPosition="5" Velocity="33" />
      <note Length="0.015625" Pitch="42" RiffPosition="5.015625" Velocity="63" />
      <note Length="0.015625" Pitch="42" RiffPosition="5.03125" Velocity="84" />
      <note Length="0.015625" Pitch="42" RiffPosition="5.046875" Velocity="67" />
      <note Length="0.0625" Pitch="42" RiffPosition="5.0625" Velocity="34" />
      <note Length="0.046875" Pitch="56" RiffPosition="5.125" Velocity="50" />
      <note Length="0.015625" Pitch="42" RiffPosition="5.171875" Velocity="41" />
      <note Length="0.03125" Pitch="42" RiffPosition="5.1875" Velocity="70" />
      <note Length="0.03125" Pitch="57" RiffPosition="5.21875" Velocity="38" />
      <note Length="0.015625" Pitch="57" RiffPosition="5.25" Velocity="73" />
      <note Length="0.015625" Pitch="54" RiffPosition="5.265625" Velocity="71" />
      <note Length="0.015625" Pitch="42" RiffPosition="5.28125" Velocity="38" />
      <note Length="0.015625" Pitch="54" RiffPosition="5.296875" Velocity="55" />
      <note Length="0.0625" Pitch="42" RiffPosition="5.3125" Velocity="79" />
      <note Length="0.046875" Pitch="54" RiffPosition="5.375" Velocity="68" />
      <note Length="0.015625" Pitch="49" RiffPosition="5.421875" Velocity="30" />
      <note Length="0.03125" Pitch="49" RiffPosition="5.4375" Velocity="55" />
      <note Length="0.03125" Pitch="42" RiffPosition="5.46875" Velocity="70" />
      <note Length="0.015625" Pitch="42" RiffPosition="5.5" Velocity="43" />
      <note Length="0.015625" Pitch="49" RiffPosition="5.515625" Velocity="47" />
      <note Length="0.015625" Pitch="47" RiffPosition="5.53125" Velocity="88" />
      <note Length="0.015625" Pitch="47" RiffPosition="5.546875" Velocity="72" />
      <note Length="0.0625" Pitch="47" RiffPosition="5.5625" Velocity="39" />
      <note Length="0.046875" Pitch="54" RiffPosition="5.625" Velocity="42" />
      <note Length="0.015625" Pitch="42" RiffPosition="5.671875" Velocity="30" />
      <note Length="0.03125" Pitch="42" RiffPosition="5.6875" Velocity="63" />
      <note Length="0.03125" Pitch="57" RiffPosition="5.71875" Velocity="44" />
      <note Length="0.015625" Pitch="59" RiffPosition="5.75" Velocity="87" />
      <note Length="0.015625" Pitch="57" RiffPosition="5.765625" Velocity="67" />
      <note Length="0.015625" Pitch="54" RiffPosition="5.78125" Velocity="35" />
      <note Length="0.015625" Pitch="56" RiffPosition="5.796875" Velocity="53" />
      <note Length="0.0625" Pitch="54" RiffPosition="5.8125" Velocity="78" />
      <note Length="0.046875" Pitch="59" RiffPosition="5.875" Velocity="64" />
      <note Length="0.015625" Pitch="42" RiffPosition="5.921875" Velocity="36" />
      <note Length="0.03125" Pitch="42" RiffPosition="5.9375" Velocity="48" />
      <note Length="0.03125" Pitch="57" RiffPosition="5.96875" Velocity="78" />
      <note Length="0.015625" Pitch="56" RiffPosition="6" Velocity="35" />
      <note Length="0.015625" Pitch="42" RiffPosition="6.015625" Velocity="55" />
      <note Length="0.015625" Pitch="42" RiffPosition="6.03125" Velocity="95" />
      <note Length="0.015625" Pitch="42" RiffPosition="6.046875" Velocity="78" />
      <note Length="0.0625" Pitch="42" RiffPosition="6.0625" Velocity="34" />
      <note Length="0.046875" Pitch="56" RiffPosition="6.125" Velocity="40" />
      <note Length="0.015625" Pitch="42" RiffPosition="6.171875" Velocity="33" />
      <note Length="0.03125" Pitch="42" RiffPosition="6.1875" Velocity="60" />
      <note Length="0.03125" Pitch="57" RiffPosition="6.21875" Velocity="30" />
      <note Length="0.015625" Pitch="57" RiffPosition="6.25" Velocity="81" />
      <note Length="0.015625" Pitch="56" RiffPosition="6.265625" Velocity="60" />
      <note Length="0.015625" Pitch="42" RiffPosition="6.28125" Velocity="32" />
      <note Length="0.015625" Pitch="42" RiffPosition="6.296875" Velocity="63" />
      <note Length="0.0625" Pitch="42" RiffPosition="6.3125" Velocity="88" />
      <note Length="0.046875" Pitch="54" RiffPosition="6.375" Velocity="76" />
      <note Length="0.015625" Pitch="49" RiffPosition="6.421875" Velocity="40" />
      <note Length="0.03125" Pitch="49" RiffPosition="6.4375" Velocity="44" />
      <note Length="0.03125" Pitch="42" RiffPosition="6.46875" Velocity="62" />
      <note Length="0.015625" Pitch="42" RiffPosition="6.5" Velocity="32" />
      <note Length="0.015625" Pitch="49" RiffPosition="6.515625" Velocity="58" />
      <note Length="0.015625" Pitch="47" RiffPosition="6.53125" Velocity="99" />
      <note Length="0.015625" Pitch="47" RiffPosition="6.546875" Velocity="64" />
      <note Length="0.0625" Pitch="47" RiffPosition="6.5625" Velocity="31" />
      <note Length="0.046875" Pitch="42" RiffPosition="6.625" Velocity="50" />
      <note Length="0.015625" Pitch="42" RiffPosition="6.671875" Velocity="41" />
      <note Length="0.03125" Pitch="42" RiffPosition="6.6875" Velocity="53" />
      <note Length="0.03125" Pitch="57" RiffPosition="6.71875" Velocity="36" />
      <note Length="0.015625" Pitch="59" RiffPosition="6.75" Velocity="77" />
      <note Length="0.015625" Pitch="57" RiffPosition="6.765625" Velocity="56" />
      <note Length="0.015625" Pitch="56" RiffPosition="6.78125" Velocity="44" />
      <note Length="0.015625" Pitch="56" RiffPosition="6.796875" Velocity="61" />
      <note Length="0.0625" Pitch="56" RiffPosition="6.8125" Velocity="86" />
      <note Length="0.046875" Pitch="59" RiffPosition="6.875" Velocity="72" />
      <note Length="0.015625" Pitch="42" RiffPosition="6.921875" Velocity="47" />
      <note Length="0.03125" Pitch="42" RiffPosition="6.9375" Velocity="56" />
      <note Length="0.03125" Pitch="57" RiffPosition="6.96875" Velocity="70" />
      <note Length="0.015625" Pitch="57" RiffPosition="7" Velocity="36" />
      <note Length="0.015625" Pitch="42" RiffPosition="7.015625" Velocity="46" />
      <note Length="0.015625" Pitch="42" RiffPosition="7.03125" Velocity="87" />
      <note Length="0.015625" Pitch="42" RiffPosition="7.046875" Velocity="70" />
      <note Length="0.0625" Pitch="42" RiffPosition="7.0625" Velocity="36" />
      <note Length="0.046875" Pitch="56" RiffPosition="7.125" Velocity="48" />
      <note Length="0.015625" Pitch="42" RiffPosition="7.171875" Velocity="35" />
      <note Length="0.03125" Pitch="42" RiffPosition="7.1875" Velocity="68" />
      <note Length="0.03125" Pitch="57" RiffPosition="7.21875" Velocity="40" />
      <note Length="0.015625" Pitch="57" RiffPosition="7.25" Velocity="89" />
      <note Length="0.015625" Pitch="56" RiffPosition="7.265625" Velocity="68" />
      <note Length="0.015625" Pitch="42" RiffPosition="7.28125" Velocity="36" />
      <note Length="0.015625" Pitch="42" RiffPosition="7.296875" Velocity="53" />
      <note Length="0.0625" Pitch="42" RiffPosition="7.3125" Velocity="77" />
      <note Length="0.046875" Pitch="54" RiffPosition="7.375" Velocity="66" />
      <note Length="0.015625" Pitch="49" RiffPosition="7.421875" Velocity="32" />
      <note Length="0.03125" Pitch="49" RiffPosition="7.4375" Velocity="52" />
      <note Length="0.03125" Pitch="42" RiffPosition="7.46875" Velocity="72" />
      <note Length="0.015625" Pitch="42" RiffPosition="7.5" Velocity="40" />
      <note Length="0.015625" Pitch="49" RiffPosition="7.515625" Velocity="50" />
      <note Length="0.015625" Pitch="47" RiffPosition="7.53125" Velocity="91" />
      <note Length="0.015625" Pitch="47" RiffPosition="7.546875" Velocity="74" />
      <note Length="0.0625" Pitch="47" RiffPosition="7.5625" Velocity="41" />
      <note Length="0.046875" Pitch="42" RiffPosition="7.625" Velocity="40" />
      <note Length="0.015625" Pitch="42" RiffPosition="7.671875" Velocity="33" />
      <note Length="0.03125" Pitch="42" RiffPosition="7.6875" Velocity="61" />
      <note Length="0.03125" Pitch="57" RiffPosition="7.71875" Velocity="46" />
      <note Length="0.015625" Pitch="59" RiffPosition="7.75" Velocity="85" />
      <note Length="0.015625" Pitch="57" RiffPosition="7.765625" Velocity="64" />
      <note Length="0.015625" Pitch="54" RiffPosition="7.78125" Velocity="33" />
      <note Length="0.015625" Pitch="56" RiffPosition="7.796875" Velocity="51" />
      <note Length="0.0625" Pitch="54" RiffPosition="7.8125" Velocity="94" />
      <note Length="0.046875" Pitch="59" RiffPosition="7.875" Velocity="61" />
      <note Length="0.015625" Pitch="42" RiffPosition="7.921875" Velocity="39" />
      <note Length="0.03125" Pitch="42" RiffPosition="7.9375" Velocity="45" />
      <note Length="0.03125" Pitch="57" RiffPosition="7.96875" Velocity="62" />
      <note Length="0.015625" Pitch="56" RiffPosition="8" Velocity="32" />
      <note Length="0.015625" Pitch="42" RiffPosition="8.015625" Velocity="57" />
      <note Length="0.015625" Pitch="42" RiffPosition="8.03125" Velocity="97" />
      <note Length="0.015625" Pitch="42" RiffPosition="8.046875" Velocity="62" />
      <note Length="0.0625" Pitch="42" RiffPosition="8.0625" Velocity="32" />
      <note Length="0.046875" Pitch="56" RiffPosition="8.125" Velocity="37" />
      <note Length="0.015625" Pitch="42" RiffPosition="8.171875" Velocity="36" />
      <note Length="0.03125" Pitch="42" RiffPosition="8.1875" Velocity="57" />
      <note Length="0.03125" Pitch="57" RiffPosition="8.21875" Velocity="32" />
      <note Length="0.015625" Pitch="57" RiffPosition="8.25" Velocity="79" />
      <note Length="0.015625" Pitch="56" RiffPosition="8.265625" Velocity="58" />
      <note Length="0.015625" Pitch="54" RiffPosition="8.28125" Velocity="35" />
      <note Length="0.015625" Pitch="42" RiffPosition="8.296875" Velocity="61" />
      <note Length="0.0625" Pitch="42" RiffPosition="8.3125" Velocity="85" />
      <note Length="0.046875" Pitch="54" RiffPosition="8.375" Velocity="74" />
      <note Length="0.015625" Pitch="49" RiffPosition="8.421875" Velocity="43" />
      <note Length="0.03125" Pitch="49" RiffPosition="8.4375" Velocity="42" />
      <note Length="0.03125" Pitch="42" RiffPosition="8.46875" Velocity="64" />
      <note Length="0.015625" Pitch="42" RiffPosition="8.5" Velocity="30" />
      <note Length="0.015625" Pitch="49" RiffPosition="8.515625" Velocity="60" />
      <note Length="0.015625" Pitch="47" RiffPosition="8.53125" Velocity="83" />
      <note Length="0.015625" Pitch="47" RiffPosition="8.546875" Velocity="66" />
      <note Length="0.0625" Pitch="47" RiffPosition="8.5625" Velocity="33" />
      <note Length="0.046875" Pitch="42" RiffPosition="8.625" Velocity="48" />
      <note Length="0.015625" Pitch="42" RiffPosition="8.671875" Velocity="43" />
      <note Length="0.03125" Pitch="42" RiffPosition="8.6875" Velocity="69" />
      <note Length="0.03125" Pitch="57" RiffPosition="8.71875" Velocity="38" />
      <note Length="0.015625" Pitch="59" RiffPosition="8.75" Velocity="74" />
      <note Length="0.015625" Pitch="57" RiffPosition="8.765625" Velocity="72" />
      <note Length="0.015625" Pitch="54" RiffPosition="8.78125" Velocity="41" />
      <note Length="0.015625" Pitch="56" RiffPosition="8.796875" Velocity="59" />
      <note Length="0.0625" Pitch="56" RiffPosition="8.8125" Velocity="83" />
      <note Length="0.046875" Pitch="59" RiffPosition="8.875" Velocity="69" />
      <note Length="0.015625" Pitch="54" RiffPosition="8.921875" Velocity="31" />
      <note Length="0.03125" Pitch="42" RiffPosition="8.9375" Velocity="53" />
      <note Length="0.03125" Pitch="57" RiffPosition="8.96875" Velocity="73" />
      <note Length="0.015625" Pitch="56" RiffPosition="9" Velocity="38" />
      <note Length="0.015625" Pitch="42" RiffPosition="9.015625" Velocity="49" />
      <note Length="0.015625" Pitch="42" RiffPosition="9.03125" Velocity="89" />
      <note Length="0.015625" Pitch="42" RiffPosition="9.046875" Velocity="72" />
      <note Length="0.0625" Pitch="42" RiffPosition="9.0625" Velocity="39" />
      <note Length="0.046875" Pitch="57" RiffPosition="9.125" Velocity="45" />
      <note Length="0.015625" Pitch="42" RiffPosition="9.171875" Velocity="33" />
      <note Length="0.03125" Pitch="42" RiffPosition="9.1875" Velocity="66" />
      <note Length="0.03125" Pitch="57" RiffPosition="9.21875" Velocity="43" />
      <note Length="0.015625" Pitch="57" RiffPosition="9.25" Velocity="87" />
      <note Length="0.015625" Pitch="56" RiffPosition="9.265625" Velocity="66" />
      <note Length="0.015625" Pitch="42" RiffPosition="9.28125" Velocity="34" />
      <note Length="0.015625" Pitch="42" RiffPosition="9.296875" Velocity="50" />
      <note Length="0.0625" Pitch="42" RiffPosition="9.3125" Velocity="75" />
      <note Length="0.046875" Pitch="54" RiffPosition="9.375" Velocity="63" />
      <note Length="0.015625" Pitch="49" RiffPosition="9.421875" Velocity="35" />
      <note Length="0.03125" Pitch="49" RiffPosition="9.4375" Velocity="50" />
      <note Length="0.03125" Pitch="42" RiffPosition="9.46875" Velocity="75" />
      <note Length="0.015625" Pitch="42" RiffPosition="9.5" Velocity="38" />
      <note Length="0.015625" Pitch="49" RiffPosition="9.515625" Velocity="52" />
      <note Length="0.015625" Pitch="47" RiffPosition="9.53125" Velocity="93" />
      <note Length="0.015625" Pitch="47" RiffPosition="9.546875" Velocity="77" />
      <note Length="0.0625" Pitch="47" RiffPosition="9.5625" Velocity="35" />
      <note Length="0.046875" Pitch="42" RiffPosition="9.625" Velocity="37" />
      <note Length="0.015625" Pitch="42" RiffPosition="9.671875" Velocity="35" />
      <note Length="0.03125" Pitch="42" RiffPosition="9.6875" Velocity="58" />
      <note Length="0.03125" Pitch="57" RiffPosition="9.71875" Velocity="30" />
      <note Length="0.015625" Pitch="59" RiffPosition="9.75" Velocity="82" />
      <note Length="0.015625" Pitch="57" RiffPosition="9.765625" Velocity="62" />
      <note Length="0.015625" Pitch="54" RiffPosition="9.78125" Velocity="30" />
      <note Length="0.015625" Pitch="56" RiffPosition="9.796875" Velocity="67" />
      <note Length="0.0625" Pitch="56" RiffPosition="9.8125" Velocity="91" />
      <note Length="0.046875" Pitch="59" RiffPosition="9.875" Velocity="59" />
      <note Length="0.015625" Pitch="42" RiffPosition="9.921875" Velocity="41" />
      <note Length="0.03125" Pitch="42" RiffPosition="9.9375" Velocity="43" />
      <note Length="0.03125" Pitch="57" RiffPosition="9.96875" Velocity="65" />
      <note Length="0.015625" Pitch="57" RiffPosition="10" Velocity="30" />
      <note Length="0.015625" Pitch="42" RiffPosition="10.015625" Velocity="60" />
      <note Length="0.015625" Pitch="42" RiffPosition="10.03125" Velocity="100" />
      <note Length="0.015625" Pitch="50" RiffPosition="10.046875" Velocity="64" />
      <note Length="0.0625" Pitch="42" RiffPosition="10.0625" Velocity="31" />
      <note Length="0.046875" Pitch="56" RiffPosition="10.125" Velocity="53" />
      <note Length="0.015625" Pitch="42" RiffPosition="10.171875" Velocity="38" />
      <note Length="0.03125" Pitch="42" RiffPosition="10.1875" Velocity="55" />
      <note Length="0.03125" Pitch="57" RiffPosition="10.21875" Velocity="35" />
      <note Length="0.015625" Pitch="57" RiffPosition="10.25" Velocity="76" />
      <note Length="0.015625" Pitch="54" RiffPosition="10.265625" Velocity="55" />
      <note Length="0.015625" Pitch="42" RiffPosition="10.28125" Velocity="42" />
      <note Length="0.015625" Pitch="42" RiffPosition="10.296875" Velocity="58" />
      <note Length="0.0625" Pitch="42" RiffPosition="10.3125" Velocity="83" />
      <note Length="0.046875" Pitch="54" RiffPosition="10.375" Velocity="71" />
      <note Length="0.015625" Pitch="49" RiffPosition="10.421875" Velocity="45" />
      <note Length="0.03125" Pitch="49" RiffPosition="10.4375" Velocity="58" />
      <note Length="0.03125" Pitch="42" RiffPosition="10.46875" Velocity="67" />
      <note Length="0.015625" Pitch="42" RiffPosition="10.5" Velocity="33" />
      <note Length="0.015625" Pitch="49" RiffPosition="10.515625" Velocity="44" />
      <note Length="0.015625" Pitch="47" RiffPosition="10.53125" Velocity="85" />
      <note Length="0.015625" Pitch="47" RiffPosition="10.546875" Velocity="69" />
      <note Length="0.0625" Pitch="47" RiffPosition="10.5625" Velocity="36" />
      <note Length="0.046875" Pitch="42" RiffPosition="10.625" Velocity="45" />
      <note Length="0.015625" Pitch="42" RiffPosition="10.671875" Velocity="33" />
      <note Length="0.03125" Pitch="42" RiffPosition="10.6875" Velocity="66" />
      <note Length="0.03125" Pitch="57" RiffPosition="10.71875" Velocity="41" />
      <note Length="0.015625" Pitch="59" RiffPosition="10.75" Velocity="72" />
      <note Length="0.015625" Pitch="57" RiffPosition="10.765625" Velocity="70" />
      <note Length="0.015625" Pitch="54" RiffPosition="10.78125" Velocity="39" />
      <note Length="0.015625" Pitch="54" RiffPosition="10.796875" Velocity="56" />
      <note Length="0.0625" Pitch="56" RiffPosition="10.8125" Velocity="81" />
      <note Length="0.046875" Pitch="59" RiffPosition="10.875" Velocity="67" />
      <note Length="0.015625" Pitch="54" RiffPosition="10.921875" Velocity="33" />
      <note Length="0.03125" Pitch="42" RiffPosition="10.9375" Velocity="51" />
      <note Length="0.03125" Pitch="57" RiffPosition="10.96875" Velocity="75" />
      <note Length="0.015625" Pitch="56" RiffPosition="11" Velocity="38" />
      <note Length="0.015625" Pitch="42" RiffPosition="11.015625" Velocity="51" />
      <note Length="0.015625" Pitch="42" RiffPosition="11.03125" Velocity="92" />
      <note Length="0.015625" Pitch="42" RiffPosition="11.046875" Velocity="75" />
      <note Length="0.0625" Pitch="42" RiffPosition="11.0625" Velocity="41" />
      <note Length="0.046875" Pitch="56" RiffPosition="11.125" Velocity="43" />
      <note Length="0.015625" Pitch="42" RiffPosition="11.171875" Velocity="30" />
      <note Length="0.03125" Pitch="42" RiffPosition="11.1875" Velocity="63" />
      <note Length="0.03125" Pitch="57" RiffPosition="11.21875" Velocity="45" />
      <note Length="0.015625" Pitch="57" RiffPosition="11.25" Velocity="84" />
      <note Length="0.015625" Pitch="56" RiffPosition="11.265625" Velocity="63" />
      <note Length="0.015625" Pitch="42" RiffPosition="11.28125" Velocity="31" />
      <note Length="0.015625" Pitch="42" RiffPosition="11.296875" Velocity="48" />
      <note Length="0.0625" Pitch="42" RiffPosition="11.3125" Velocity="91" />
      <note Length="0.046875" Pitch="54" RiffPosition="11.375" Velocity="61" />
      <note Length="0.015625" Pitch="49" RiffPosition="11.421875" Velocity="37" />
      <note Length="0.03125" Pitch="49" RiffPosition="11.4375" Velocity="47" />
      <note Length="0.03125" Pitch="42" RiffPosition="11.46875" Velocity="59" />
      <note Length="0.015625" Pitch="42" RiffPosition="11.5" Velocity="35" />
      <note Length="0.015625" Pitch="49" RiffPosition="11.515625" Velocity="55" />
      <note Length="0.015625" Pitch="47" RiffPosition="11.53125" Velocity="96" />
      <note Length="0.015625" Pitch="47" RiffPosition="11.546875" Velocity="79" />
      <note Length="0.0625" Pitch="47" RiffPosition="11.5625" Velocity="32" />
      <note Length="0.046875" Pitch="42" RiffPosition="11.625" Velocity="35" />
      <note Length="0.015625" Pitch="42" RiffPosition="11.671875" Velocity="38" />
      <note Length="0.03125" Pitch="42" RiffPosition="11.6875" Velocity="56" />
      <note Length="0.03125" Pitch="57" RiffPosition="11.71875" Velocity="33" />
      <note Length="0.015625" Pitch="59" RiffPosition="11.75" Velocity="80" />
      <note Length="0.015625" Pitch="57" RiffPosition="11.765625" Velocity="59" />
      <note Length="0.015625" Pitch="54" RiffPosition="11.78125" Velocity="32" />
      <note Length="0.015625" Pitch="56" RiffPosition="11.796875" Velocity="64" />
      <note Length="0.0625" Pitch="56" RiffPosition="11.8125" Velocity="89" />
      <note Length="0.046875" Pitch="59" RiffPosition="11.875" Velocity="75" />
      <note Length="0.015625" Pitch="54" RiffPosition="11.921875" Velocity="44" />
      <note Length="0.03125" Pitch="42" RiffPosition="11.9375" Velocity="40" />
      <note Length="0.03125" Pitch="57" RiffPosition="11.96875" Velocity="67" />
    </riff>
    <riff IsDrum="False" MidiInstrument="106" Tempo="87" Length="12">
      <note Length="0.09375" Pitch="61" RiffPosition="0" Velocity="0" />
      <note Length="0.03125" Pitch="56" RiffPosition="0.09375" Velocity="0" />
      <note Length="0.03125" Pitch="54" RiffPosition="0.125" Velocity="0" />
      <note Length="0.03125" Pitch="42" RiffPosition="0.15625" Velocity="0" />
      <note Length="0.015625" Pitch="42" RiffPosition="0.1875" Velocity="0" />
      <note Length="0.015625" Pitch="54" RiffPosition="0.203125" Velocity="0" />
      <note Length="0.03125" Pitch="54" RiffPosition="0.21875" Velocity="0" />
      <note Length="0.09375" Pitch="42" RiffPosition="0.25" Velocity="0" />
      <note Length="0.03125" Pitch="42" RiffPosition="0.34375" Velocity="0" />
      <note Length="0.03125" Pitch="42" RiffPosition="0.375" Velocity="0" />
      <note Length="0.03125" Pitch="54" RiffPosition="0.40625" Velocity="0" />
      <note Length="0.015625" Pitch="57" RiffPosition="0.4375" Velocity="0" />
      <note Length="0.015625" Pitch="59" RiffPosition="0.453125" Velocity="0" />
      <note Length="0.03125" Pitch="54" RiffPosition="0.46875" Velocity="0" />
      <note Length="0.09375" Pitch="61" RiffPosition="0.5" Velocity="0" />
      <note Length="0.03125" Pitch="42" RiffPosition="0.59375" Velocity="0" />
      <note Length="0.03125" Pitch="42" RiffPosition="0.625" Velocity="0" />
      <note Length="0.03125" Pitch="50" RiffPosition="0.65625" Velocity="0" />
      <note Length="0.015625" Pitch="42" RiffPosition="0.6875" Velocity="0" />
      <note Length="0.015625" Pitch="54" RiffPosition="0.703125" Velocity="0" />
      <note Length="0.03125" Pitch="57" RiffPosition="0.71875" Velocity="0" />
      <note Length="0.09375" Pitch="56" RiffPosition="0.75" Velocity="0" />
      <note Length="0.03125" Pitch="42" RiffPosition="0.84375" Velocity="0" />
      <note Length="0.03125" Pitch="42" RiffPosition="0.875" Velocity="0" />
      <note Length="0.03125" Pitch="42" RiffPosition="0.90625" Velocity="0" />
      <note Length="0.015625" Pitch="54" RiffPosition="0.9375" Velocity="0" />
      <note Length="0.015625" Pitch="57" RiffPosition="0.953125" Velocity="0" />
      <note Length="0.03125" Pitch="59" RiffPosition="0.96875" Velocity="0" />
      <note Length="0.09375" Pitch="61" RiffPosition="1" Velocity="0" />
      <note Length="0.03125" Pitch="56" RiffPosition="1.09375" Velocity="0" />
      <note Length="0.03125" Pitch="54" RiffPosition="1.125" Velocity="0" />
      <note Length="0.03125" Pitch="42" RiffPosition="1.15625" Velocity="0" />
      <note Length="0.015625" Pitch="42" RiffPosition="1.1875" Velocity="0" />
      <note Length="0.015625" Pitch="54" RiffPosition="1.203125" Velocity="0" />
      <note Length="0.03125" Pitch="54" RiffPosition="1.21875" Velocity="0" />
      <note Length="0.09375" Pitch="42" RiffPosition="1.25" Velocity="0" />
      <note Length="0.03125" Pitch="42" RiffPosition="1.34375" Velocity="0" />
      <note Length="0.03125" Pitch="42" RiffPosition="1.375" Velocity="0" />
      <note Length="0.03125" Pitch="54" RiffPosition="1.40625" Velocity="0" />
      <note Length="0.015625" Pitch="57" RiffPosition="1.4375" Velocity="0" />
      <note Length="0.015625" Pitch="59" RiffPosition="1.453125" Velocity="0" />
      <note Length="0.03125" Pitch="54" RiffPosition="1.46875" Velocity="0" />
      <note Length="0.09375" Pitch="61" RiffPosition="1.5" Velocity="0" />
      <note Length="0.03125" Pitch="42" RiffPosition="1.59375" Velocity="0" />
      <note Length="0.03125" Pitch="42" RiffPosition="1.625" Velocity="0" />
      <note Length="0.03125" Pitch="50" RiffPosition="1.65625" Velocity="0" />
      <note Length="0.015625" Pitch="42" RiffPosition="1.6875" Velocity="0" />
      <note Length="0.015625" Pitch="54" RiffPosition="1.703125" Velocity="0" />
      <note Length="0.03125" Pitch="57" RiffPosition="1.71875" Velocity="0" />
      <note Length="0.09375" Pitch="56" RiffPosition="1.75" Velocity="0" />
      <note Length="0.03125" Pitch="42" RiffPosition="1.84375" Velocity="0" />
      <note Length="0.03125" Pitch="42" RiffPosition="1.875" Velocity="0" />
      <note Length="0.03125" Pitch="42" RiffPosition="1.90625" Velocity="0" />
      <note Length="0.015625" Pitch="54" RiffPosition="1.9375" Velocity="0" />
      <note Length="0.015625" Pitch="57" RiffPosition="1.953125" Velocity="0" />
      <note Length="0.03125" Pitch="59" RiffPosition="1.96875" Velocity="0" />
      <note Length="0.09375" Pitch="61" RiffPosition="2" Velocity="65" />
      <note Length="0.03125" Pitch="56" RiffPosition="2.09375" Velocity="64" />
      <note Length="0.03125" Pitch="54" RiffPosition="2.125" Velocity="40" />
      <note Length="0.03125" Pitch="42" RiffPosition="2.15625" Velocity="61" />
      <note Length="0.015625" Pitch="42" RiffPosition="2.1875" Velocity="91" />
      <note Length="0.015625" Pitch="54" RiffPosition="2.203125" Velocity="68" />
      <note Length="0.03125" Pitch="54" RiffPosition="2.21875" Velocity="48" />
      <note Length="0.09375" Pitch="42" RiffPosition="2.25" Velocity="67" />
      <note Length="0.03125" Pitch="42" RiffPosition="2.34375" Velocity="67" />
      <note Length="0.03125" Pitch="42" RiffPosition="2.375" Velocity="100" />
      <note Length="0.03125" Pitch="54" RiffPosition="2.40625" Velocity="59" />
      <note Length="0.015625" Pitch="57" RiffPosition="2.4375" Velocity="42" />
      <note Length="0.015625" Pitch="59" RiffPosition="2.453125" Velocity="64" />
      <note Length="0.03125" Pitch="54" RiffPosition="2.46875" Velocity="49" />
      <note Length="0.09375" Pitch="61" RiffPosition="2.5" Velocity="39" />
      <note Length="0.03125" Pitch="42" RiffPosition="2.59375" Velocity="64" />
      <note Length="0.03125" Pitch="42" RiffPosition="2.625" Velocity="46" />
      <note Length="0.03125" Pitch="50" RiffPosition="2.65625" Velocity="35" />
      <note Length="0.015625" Pitch="42" RiffPosition="2.6875" Velocity="64" />
      <note Length="0.015625" Pitch="54" RiffPosition="2.703125" Velocity="41" />
      <note Length="0.03125" Pitch="57" RiffPosition="2.71875" Velocity="39" />
      <note Length="0.09375" Pitch="56" RiffPosition="2.75" Velocity="67" />
      <note Length="0.03125" Pitch="42" RiffPosition="2.84375" Velocity="41" />
      <note Length="0.03125" Pitch="42" RiffPosition="2.875" Velocity="73" />
      <note Length="0.03125" Pitch="42" RiffPosition="2.90625" Velocity="59" />
      <note Length="0.015625" Pitch="54" RiffPosition="2.9375" Velocity="42" />
      <note Length="0.015625" Pitch="57" RiffPosition="2.953125" Velocity="38" />
      <note Length="0.03125" Pitch="59" RiffPosition="2.96875" Velocity="37" />
      <note Length="0.09375" Pitch="61" RiffPosition="3" Velocity="65" />
      <note Length="0.03125" Pitch="56" RiffPosition="3.09375" Velocity="64" />
      <note Length="0.03125" Pitch="54" RiffPosition="3.125" Velocity="41" />
      <note Length="0.03125" Pitch="42" RiffPosition="3.15625" Velocity="62" />
      <note Length="0.015625" Pitch="42" RiffPosition="3.1875" Velocity="91" />
      <note Length="0.015625" Pitch="54" RiffPosition="3.203125" Velocity="67" />
      <note Length="0.03125" Pitch="54" RiffPosition="3.21875" Velocity="48" />
      <note Length="0.09375" Pitch="42" RiffPosition="3.25" Velocity="67" />
      <note Length="0.03125" Pitch="42" RiffPosition="3.34375" Velocity="67" />
      <note Length="0.03125" Pitch="42" RiffPosition="3.375" Velocity="100" />
      <note Length="0.03125" Pitch="54" RiffPosition="3.40625" Velocity="59" />
      <note Length="0.015625" Pitch="57" RiffPosition="3.4375" Velocity="42" />
      <note Length="0.015625" Pitch="59" RiffPosition="3.453125" Velocity="64" />
      <note Length="0.03125" Pitch="54" RiffPosition="3.46875" Velocity="50" />
      <note Length="0.09375" Pitch="61" RiffPosition="3.5" Velocity="40" />
      <note Length="0.03125" Pitch="42" RiffPosition="3.59375" Velocity="64" />
      <note Length="0.03125" Pitch="42" RiffPosition="3.625" Velocity="46" />
      <note Length="0.03125" Pitch="50" RiffPosition="3.65625" Velocity="36" />
      <note Length="0.015625" Pitch="42" RiffPosition="3.6875" Velocity="65" />
      <note Length="0.015625" Pitch="54" RiffPosition="3.703125" Velocity="41" />
      <note Length="0.03125" Pitch="57" RiffPosition="3.71875" Velocity="39" />
      <note Length="0.09375" Pitch="56" RiffPosition="3.75" Velocity="66" />
      <note Length="0.03125" Pitch="42" RiffPosition="3.84375" Velocity="41" />
      <note Length="0.03125" Pitch="42" RiffPosition="3.875" Velocity="73" />
      <note Length="0.03125" Pitch="42" RiffPosition="3.90625" Velocity="59" />
      <note Length="0.015625" Pitch="54" RiffPosition="3.9375" Velocity="41" />
      <note Length="0.015625" Pitch="57" RiffPosition="3.953125" Velocity="38" />
      <note Length="0.03125" Pitch="59" RiffPosition="3.96875" Velocity="37" />
      <note Length="0.09375" Pitch="61" RiffPosition="4" Velocity="66" />
      <note Length="0.03125" Pitch="56" RiffPosition="4.09375" Velocity="65" />
      <note Length="0.03125" Pitch="54" RiffPosition="4.125" Velocity="41" />
      <note Length="0.03125" Pitch="42" RiffPosition="4.15625" Velocity="61" />
      <note Length="0.015625" Pitch="42" RiffPosition="4.1875" Velocity="91" />
      <note Length="0.015625" Pitch="54" RiffPosition="4.203125" Velocity="68" />
      <note Length="0.03125" Pitch="54" RiffPosition="4.21875" Velocity="47" />
      <note Length="0.09375" Pitch="42" RiffPosition="4.25" Velocity="66" />
      <note Length="0.03125" Pitch="42" RiffPosition="4.34375" Velocity="67" />
      <note Length="0.03125" Pitch="42" RiffPosition="4.375" Velocity="100" />
      <note Length="0.03125" Pitch="54" RiffPosition="4.40625" Velocity="59" />
      <note Length="0.015625" Pitch="57" RiffPosition="4.4375" Velocity="41" />
      <note Length="0.015625" Pitch="59" RiffPosition="4.453125" Velocity="63" />
      <note Length="0.03125" Pitch="54" RiffPosition="4.46875" Velocity="50" />
      <note Length="0.09375" Pitch="61" RiffPosition="4.5" Velocity="40" />
      <note Length="0.03125" Pitch="42" RiffPosition="4.59375" Velocity="64" />
      <note Length="0.03125" Pitch="42" RiffPosition="4.625" Velocity="45" />
      <note Length="0.03125" Pitch="50" RiffPosition="4.65625" Velocity="35" />
      <note Length="0.015625" Pitch="42" RiffPosition="4.6875" Velocity="65" />
      <note Length="0.015625" Pitch="54" RiffPosition="4.703125" Velocity="42" />
      <note Length="0.03125" Pitch="57" RiffPosition="4.71875" Velocity="39" />
      <note Length="0.09375" Pitch="56" RiffPosition="4.75" Velocity="66" />
      <note Length="0.03125" Pitch="42" RiffPosition="4.84375" Velocity="40" />
      <note Length="0.03125" Pitch="42" RiffPosition="4.875" Velocity="74" />
      <note Length="0.03125" Pitch="42" RiffPosition="4.90625" Velocity="58" />
      <note Length="0.015625" Pitch="54" RiffPosition="4.9375" Velocity="41" />
      <note Length="0.015625" Pitch="57" RiffPosition="4.953125" Velocity="37" />
      <note Length="0.03125" Pitch="59" RiffPosition="4.96875" Velocity="36" />
      <note Length="0.09375" Pitch="61" RiffPosition="5" Velocity="66" />
      <note Length="0.03125" Pitch="56" RiffPosition="5.09375" Velocity="64" />
      <note Length="0.03125" Pitch="54" RiffPosition="5.125" Velocity="41" />
      <note Length="0.03125" Pitch="42" RiffPosition="5.15625" Velocity="61" />
      <note Length="0.015625" Pitch="42" RiffPosition="5.1875" Velocity="91" />
      <note Length="0.015625" Pitch="54" RiffPosition="5.203125" Velocity="68" />
      <note Length="0.03125" Pitch="54" RiffPosition="5.21875" Velocity="47" />
      <note Length="0.09375" Pitch="42" RiffPosition="5.25" Velocity="67" />
      <note Length="0.03125" Pitch="42" RiffPosition="5.34375" Velocity="66" />
      <note Length="0.03125" Pitch="42" RiffPosition="5.375" Velocity="100" />
      <note Length="0.03125" Pitch="54" RiffPosition="5.40625" Velocity="58" />
      <note Length="0.015625" Pitch="57" RiffPosition="5.4375" Velocity="41" />
      <note Length="0.015625" Pitch="59" RiffPosition="5.453125" Velocity="64" />
      <note Length="0.03125" Pitch="54" RiffPosition="5.46875" Velocity="49" />
      <note Length="0.09375" Pitch="61" RiffPosition="5.5" Velocity="39" />
      <note Length="0.03125" Pitch="42" RiffPosition="5.59375" Velocity="64" />
      <note Length="0.03125" Pitch="42" RiffPosition="5.625" Velocity="45" />
      <note Length="0.03125" Pitch="50" RiffPosition="5.65625" Velocity="35" />
      <note Length="0.015625" Pitch="42" RiffPosition="5.6875" Velocity="64" />
      <note Length="0.015625" Pitch="54" RiffPosition="5.703125" Velocity="42" />
      <note Length="0.03125" Pitch="57" RiffPosition="5.71875" Velocity="39" />
      <note Length="0.09375" Pitch="56" RiffPosition="5.75" Velocity="67" />
      <note Length="0.03125" Pitch="42" RiffPosition="5.84375" Velocity="40" />
      <note Length="0.03125" Pitch="42" RiffPosition="5.875" Velocity="74" />
      <note Length="0.03125" Pitch="42" RiffPosition="5.90625" Velocity="59" />
      <note Length="0.015625" Pitch="54" RiffPosition="5.9375" Velocity="42" />
      <note Length="0.015625" Pitch="57" RiffPosition="5.953125" Velocity="38" />
      <note Length="0.03125" Pitch="59" RiffPosition="5.96875" Velocity="37" />
      <note Length="0.09375" Pitch="61" RiffPosition="6" Velocity="65" />
      <note Length="0.03125" Pitch="56" RiffPosition="6.09375" Velocity="64" />
      <note Length="0.03125" Pitch="54" RiffPosition="6.125" Velocity="40" />
      <note Length="0.03125" Pitch="42" RiffPosition="6.15625" Velocity="62" />
      <note Length="0.015625" Pitch="42" RiffPosition="6.1875" Velocity="91" />
      <note Length="0.015625" Pitch="54" RiffPosition="6.203125" Velocity="67" />
      <note Length="0.03125" Pitch="54" RiffPosition="6.21875" Velocity="48" />
      <note Length="0.09375" Pitch="42" RiffPosition="6.25" Velocity="67" />
      <note Length="0.03125" Pitch="42" RiffPosition="6.34375" Velocity="67" />
      <note Length="0.03125" Pitch="42" RiffPosition="6.375" Velocity="100" />
      <note Length="0.03125" Pitch="54" RiffPosition="6.40625" Velocity="59" />
      <note Length="0.015625" Pitch="57" RiffPosition="6.4375" Velocity="42" />
      <note Length="0.015625" Pitch="59" RiffPosition="6.453125" Velocity="64" />
      <note Length="0.03125" Pitch="54" RiffPosition="6.46875" Velocity="49" />
      <note Length="0.09375" Pitch="61" RiffPosition="6.5" Velocity="39" />
      <note Length="0.03125" Pitch="42" RiffPosition="6.59375" Velocity="64" />
      <note Length="0.03125" Pitch="42" RiffPosition="6.625" Velocity="46" />
      <note Length="0.03125" Pitch="50" RiffPosition="6.65625" Velocity="35" />
      <note Length="0.015625" Pitch="42" RiffPosition="6.6875" Velocity="64" />
      <note Length="0.015625" Pitch="54" RiffPosition="6.703125" Velocity="41" />
      <note Length="0.03125" Pitch="57" RiffPosition="6.71875" Velocity="38" />
      <note Length="0.09375" Pitch="56" RiffPosition="6.75" Velocity="67" />
      <note Length="0.03125" Pitch="42" RiffPosition="6.84375" Velocity="41" />
      <note Length="0.03125" Pitch="42" RiffPosition="6.875" Velocity="73" />
      <note Length="0.03125" Pitch="42" RiffPosition="6.90625" Velocity="59" />
      <note Length="0.015625" Pitch="54" RiffPosition="6.9375" Velocity="42" />
      <note Length="0.015625" Pitch="57" RiffPosition="6.953125" Velocity="38" />
      <note Length="0.03125" Pitch="59" RiffPosition="6.96875" Velocity="37" />
      <note Length="0.09375" Pitch="61" RiffPosition="7" Velocity="66" />
      <note Length="0.03125" Pitch="56" RiffPosition="7.09375" Velocity="64" />
      <note Length="0.03125" Pitch="54" RiffPosition="7.125" Velocity="41" />
      <note Length="0.03125" Pitch="42" RiffPosition="7.15625" Velocity="62" />
      <note Length="0.015625" Pitch="42" RiffPosition="7.1875" Velocity="91" />
      <note Length="0.015625" Pitch="54" RiffPosition="7.203125" Velocity="68" />
      <note Length="0.03125" Pitch="54" RiffPosition="7.21875" Velocity="47" />
      <note Length="0.09375" Pitch="42" RiffPosition="7.25" Velocity="66" />
      <note Length="0.03125" Pitch="42" RiffPosition="7.34375" Velocity="67" />
      <note Length="0.03125" Pitch="42" RiffPosition="7.375" Velocity="100" />
      <note Length="0.03125" Pitch="54" RiffPosition="7.40625" Velocity="59" />
      <note Length="0.015625" Pitch="57" RiffPosition="7.4375" Velocity="41" />
      <note Length="0.015625" Pitch="59" RiffPosition="7.453125" Velocity="64" />
      <note Length="0.03125" Pitch="54" RiffPosition="7.46875" Velocity="50" />
      <note Length="0.09375" Pitch="61" RiffPosition="7.5" Velocity="40" />
      <note Length="0.03125" Pitch="42" RiffPosition="7.59375" Velocity="65" />
      <note Length="0.03125" Pitch="42" RiffPosition="7.625" Velocity="46" />
      <note Length="0.03125" Pitch="50" RiffPosition="7.65625" Velocity="35" />
      <note Length="0.015625" Pitch="42" RiffPosition="7.6875" Velocity="65" />
      <note Length="0.015625" Pitch="54" RiffPosition="7.703125" Velocity="41" />
      <note Length="0.03125" Pitch="57" RiffPosition="7.71875" Velocity="39" />
      <note Length="0.09375" Pitch="56" RiffPosition="7.75" Velocity="66" />
      <note Length="0.03125" Pitch="42" RiffPosition="7.84375" Velocity="40" />
      <note Length="0.03125" Pitch="42" RiffPosition="7.875" Velocity="74" />
      <note Length="0.03125" Pitch="42" RiffPosition="7.90625" Velocity="59" />
      <note Length="0.015625" Pitch="54" RiffPosition="7.9375" Velocity="41" />
      <note Length="0.015625" Pitch="57" RiffPosition="7.953125" Velocity="38" />
      <note Length="0.03125" Pitch="59" RiffPosition="7.96875" Velocity="36" />
      <note Length="0.09375" Pitch="61" RiffPosition="8" Velocity="66" />
      <note Length="0.03125" Pitch="56" RiffPosition="8.09375" Velocity="64" />
      <note Length="0.03125" Pitch="54" RiffPosition="8.125" Velocity="41" />
      <note Length="0.03125" Pitch="42" RiffPosition="8.15625" Velocity="61" />
      <note Length="0.015625" Pitch="42" RiffPosition="8.1875" Velocity="91" />
      <note Length="0.015625" Pitch="54" RiffPosition="8.203125" Velocity="68" />
      <note Length="0.03125" Pitch="54" RiffPosition="8.21875" Velocity="47" />
      <note Length="0.09375" Pitch="42" RiffPosition="8.25" Velocity="66" />
      <note Length="0.03125" Pitch="42" RiffPosition="8.34375" Velocity="67" />
      <note Length="0.03125" Pitch="42" RiffPosition="8.375" Velocity="100" />
      <note Length="0.03125" Pitch="54" RiffPosition="8.40625" Velocity="58" />
      <note Length="0.015625" Pitch="57" RiffPosition="8.4375" Velocity="41" />
      <note Length="0.015625" Pitch="59" RiffPosition="8.453125" Velocity="63" />
      <note Length="0.03125" Pitch="54" RiffPosition="8.46875" Velocity="50" />
      <note Length="0.09375" Pitch="61" RiffPosition="8.5" Velocity="40" />
      <note Length="0.03125" Pitch="42" RiffPosition="8.59375" Velocity="64" />
      <note Length="0.03125" Pitch="42" RiffPosition="8.625" Velocity="45" />
      <note Length="0.03125" Pitch="50" RiffPosition="8.65625" Velocity="35" />
      <note Length="0.015625" Pitch="42" RiffPosition="8.6875" Velocity="65" />
      <note Length="0.015625" Pitch="54" RiffPosition="8.703125" Velocity="42" />
      <note Length="0.03125" Pitch="57" RiffPosition="8.71875" Velocity="39" />
      <note Length="0.09375" Pitch="56" RiffPosition="8.75" Velocity="67" />
      <note Length="0.03125" Pitch="42" RiffPosition="8.84375" Velocity="40" />
      <note Length="0.03125" Pitch="42" RiffPosition="8.875" Velocity="74" />
      <note Length="0.03125" Pitch="42" RiffPosition="8.90625" Velocity="58" />
      <note Length="0.015625" Pitch="54" RiffPosition="8.9375" Velocity="41" />
      <note Length="0.015625" Pitch="57" RiffPosition="8.953125" Velocity="37" />
      <note Length="0.03125" Pitch="59" RiffPosition="8.96875" Velocity="37" />
      <note Length="0.09375" Pitch="61" RiffPosition="9" Velocity="66" />
      <note Length="0.03125" Pitch="56" RiffPosition="9.09375" Velocity="64" />
      <note Length="0.03125" Pitch="54" RiffPosition="9.125" Velocity="41" />
      <note Length="0.03125" Pitch="42" RiffPosition="9.15625" Velocity="61" />
      <note Length="0.015625" Pitch="42" RiffPosition="9.1875" Velocity="90" />
      <note Length="0.015625" Pitch="54" RiffPosition="9.203125" Velocity="68" />
      <note Length="0.03125" Pitch="54" RiffPosition="9.21875" Velocity="47" />
      <note Length="0.09375" Pitch="42" RiffPosition="9.25" Velocity="67" />
      <note Length="0.03125" Pitch="42" RiffPosition="9.34375" Velocity="66" />
      <note Length="0.03125" Pitch="42" RiffPosition="9.375" Velocity="100" />
      <note Length="0.03125" Pitch="54" RiffPosition="9.40625" Velocity="59" />
      <note Length="0.015625" Pitch="57" RiffPosition="9.4375" Velocity="42" />
      <note Length="0.015625" Pitch="59" RiffPosition="9.453125" Velocity="64" />
      <note Length="0.03125" Pitch="54" RiffPosition="9.46875" Velocity="49" />
      <note Length="0.09375" Pitch="61" RiffPosition="9.5" Velocity="39" />
      <note Length="0.03125" Pitch="42" RiffPosition="9.59375" Velocity="64" />
      <note Length="0.03125" Pitch="42" RiffPosition="9.625" Velocity="46" />
      <note Length="0.03125" Pitch="50" RiffPosition="9.65625" Velocity="35" />
      <note Length="0.015625" Pitch="42" RiffPosition="9.6875" Velocity="64" />
      <note Length="0.015625" Pitch="54" RiffPosition="9.703125" Velocity="42" />
      <note Length="0.03125" Pitch="57" RiffPosition="9.71875" Velocity="39" />
      <note Length="0.09375" Pitch="56" RiffPosition="9.75" Velocity="67" />
      <note Length="0.03125" Pitch="42" RiffPosition="9.84375" Velocity="40" />
      <note Length="0.03125" Pitch="42" RiffPosition="9.875" Velocity="74" />
      <note Length="0.03125" Pitch="42" RiffPosition="9.90625" Velocity="59" />
      <note Length="0.015625" Pitch="54" RiffPosition="9.9375" Velocity="42" />
      <note Length="0.015625" Pitch="57" RiffPosition="9.953125" Velocity="38" />
      <note Length="0.03125" Pitch="59" RiffPosition="9.96875" Velocity="37" />
      <note Length="0.09375" Pitch="61" RiffPosition="10" Velocity="65" />
      <note Length="0.03125" Pitch="56" RiffPosition="10.09375" Velocity="64" />
      <note Length="0.03125" Pitch="54" RiffPosition="10.125" Velocity="40" />
      <note Length="0.03125" Pitch="42" RiffPosition="10.15625" Velocity="62" />
      <note Length="0.015625" Pitch="42" RiffPosition="10.1875" Velocity="91" />
      <note Length="0.015625" Pitch="54" RiffPosition="10.203125" Velocity="67" />
      <note Length="0.03125" Pitch="54" RiffPosition="10.21875" Velocity="48" />
      <note Length="0.09375" Pitch="42" RiffPosition="10.25" Velocity="67" />
      <note Length="0.03125" Pitch="42" RiffPosition="10.34375" Velocity="67" />
      <note Length="0.03125" Pitch="42" RiffPosition="10.375" Velocity="100" />
      <note Length="0.03125" Pitch="54" RiffPosition="10.40625" Velocity="59" />
      <note Length="0.015625" Pitch="57" RiffPosition="10.4375" Velocity="42" />
      <note Length="0.015625" Pitch="59" RiffPosition="10.453125" Velocity="64" />
      <note Length="0.03125" Pitch="54" RiffPosition="10.46875" Velocity="49" />
      <note Length="0.09375" Pitch="61" RiffPosition="10.5" Velocity="39" />
      <note Length="0.03125" Pitch="42" RiffPosition="10.59375" Velocity="64" />
      <note Length="0.03125" Pitch="42" RiffPosition="10.625" Velocity="46" />
      <note Length="0.03125" Pitch="50" RiffPosition="10.65625" Velocity="35" />
      <note Length="0.015625" Pitch="42" RiffPosition="10.6875" Velocity="65" />
      <note Length="0.015625" Pitch="54" RiffPosition="10.703125" Velocity="41" />
      <note Length="0.03125" Pitch="57" RiffPosition="10.71875" Velocity="38" />
      <note Length="0.09375" Pitch="56" RiffPosition="10.75" Velocity="67" />
      <note Length="0.03125" Pitch="42" RiffPosition="10.84375" Velocity="41" />
      <note Length="0.03125" Pitch="42" RiffPosition="10.875" Velocity="73" />
      <note Length="0.03125" Pitch="42" RiffPosition="10.90625" Velocity="59" />
      <note Length="0.015625" Pitch="54" RiffPosition="10.9375" Velocity="42" />
      <note Length="0.015625" Pitch="57" RiffPosition="10.953125" Velocity="38" />
      <note Length="0.03125" Pitch="59" RiffPosition="10.96875" Velocity="37" />
      <note Length="0.09375" Pitch="61" RiffPosition="11" Velocity="66" />
      <note Length="0.03125" Pitch="56" RiffPosition="11.09375" Velocity="64" />
      <note Length="0.03125" Pitch="54" RiffPosition="11.125" Velocity="41" />
      <note Length="0.03125" Pitch="42" RiffPosition="11.15625" Velocity="62" />
      <note Length="0.015625" Pitch="42" RiffPosition="11.1875" Velocity="91" />
      <note Length="0.015625" Pitch="54" RiffPosition="11.203125" Velocity="68" />
      <note Length="0.03125" Pitch="54" RiffPosition="11.21875" Velocity="47" />
      <note Length="0.09375" Pitch="42" RiffPosition="11.25" Velocity="66" />
      <note Length="0.03125" Pitch="42" RiffPosition="11.34375" Velocity="67" />
      <note Length="0.03125" Pitch="42" RiffPosition="11.375" Velocity="99" />
      <note Length="0.03125" Pitch="54" RiffPosition="11.40625" Velocity="59" />
      <note Length="0.015625" Pitch="57" RiffPosition="11.4375" Velocity="41" />
      <note Length="0.015625" Pitch="59" RiffPosition="11.453125" Velocity="64" />
      <note Length="0.03125" Pitch="54" RiffPosition="11.46875" Velocity="50" />
      <note Length="0.09375" Pitch="61" RiffPosition="11.5" Velocity="40" />
      <note Length="0.03125" Pitch="42" RiffPosition="11.59375" Velocity="65" />
      <note Length="0.03125" Pitch="42" RiffPosition="11.625" Velocity="45" />
      <note Length="0.03125" Pitch="50" RiffPosition="11.65625" Velocity="35" />
      <note Length="0.015625" Pitch="42" RiffPosition="11.6875" Velocity="65" />
      <note Length="0.015625" Pitch="54" RiffPosition="11.703125" Velocity="41" />
      <note Length="0.03125" Pitch="57" RiffPosition="11.71875" Velocity="39" />
      <note Length="0.09375" Pitch="56" RiffPosition="11.75" Velocity="66" />
      <note Length="0.03125" Pitch="42" RiffPosition="11.84375" Velocity="40" />
      <note Length="0.03125" Pitch="42" RiffPosition="11.875" Velocity="74" />
      <note Length="0.03125" Pitch="42" RiffPosition="11.90625" Velocity="59" />
      <note Length="0.015625" Pitch="54" RiffPosition="11.9375" Velocity="41" />
      <note Length="0.015625" Pitch="57" RiffPosition="11.953125" Velocity="37" />
      <note Length="0.03125" Pitch="59" RiffPosition="11.96875" Velocity="36" />
    </riff>
    <riff IsDrum="False" MidiInstrument="90" Tempo="81" Length="12">
      <note Length="0.25" Pitch="56" RiffPosition="0" Velocity="0" />
      <note Length="0.25" Pitch="54" RiffPosition="0.25" Velocity="0" />
      <note Length="1" Pitch="54" RiffPosition="0.5" Velocity="0" />
      <note Length="0.5" Pitch="42" RiffPosition="1.5" Velocity="0" />
      <note Length="0.5" Pitch="42" RiffPosition="2" Velocity="90" />
      <note Length="1.5" Pitch="50" RiffPosition="2.5" Velocity="90" />
      <note Length="0.5" Pitch="47" RiffPosition="4" Velocity="90" />
      <note Length="0.5" Pitch="47" RiffPosition="4.5" Velocity="90" />
      <note Length="1.5" Pitch="47" RiffPosition="5" Velocity="90" />
      <note Length="1.5" Pitch="49" RiffPosition="6.5" Velocity="90" />
      <note Length="0.25" Pitch="42" RiffPosition="8" Velocity="90" />
      <note Length="0.25" Pitch="42" RiffPosition="8.25" Velocity="90" />
      <note Length="1" Pitch="42" RiffPosition="8.5" Velocity="90" />
      <note Length="0.5" Pitch="56" RiffPosition="9.5" Velocity="90" />
      <note Length="0.5" Pitch="57" RiffPosition="10" Velocity="90" />
      <note Length="1.5" Pitch="57" RiffPosition="10.5" Velocity="90" />
    </riff>
    <riff IsDrum="False" MidiInstrument="92" Tempo="112" Length="12">
      <note Length="1" Pitch="54" RiffPosition="0" Velocity="0" />
      <note Length="1" Pitch="57" RiffPosition="1" Velocity="0" />
      <note Length="1" Pitch="56" RiffPosition="2" Velocity="90" />
      <note Length="1" Pitch="54" RiffPosition="3" Velocity="90" />
      <note Length="0.75" Pitch="42" RiffPosition="4" Velocity="90" />
      <note Length="0.25" Pitch="42" RiffPosition="4.75" Velocity="90" />
      <note Length="1" Pitch="42" RiffPosition="5" Velocity="90" />
      <note Length="1" Pitch="49" RiffPosition="6" Velocity="90" />
      <note Length="0.5" Pitch="42" RiffPosition="7" Velocity="90" />
      <note Length="0.5" Pitch="42" RiffPosition="7.5" Velocity="90" />
      <note Length="1" Pitch="42" RiffPosition="8" Velocity="90" />
      <note Length="1" Pitch="50" RiffPosition="9" Velocity="90" />
      <note Length="1" Pitch="42" RiffPosition="10" Velocity="90" />
      <note Length="1" Pitch="42" RiffPosition="11" Velocity="90" />
    </riff>
    <riff IsDrum="False" MidiInstrument="29" Tempo="99" Length="12">
      <note Length="0.0104166666666667" Pitch="59" RiffPosition="0" Velocity="0" />
      <note Length="0.0104166666666667" Pitch="59" RiffPosition="0.0104166666666667" Velocity="0" />
      <note Length="0.0104166666666667" Pitch="61" RiffPosition="0.0208333333333333" Velocity="0" />
      <note Length="0.0104166666666667" Pitch="61" RiffPosition="0.03125" Velocity="0" />
      <note Length="0.0104166666666667" Pitch="59" RiffPosition="0.0416666666666667" Velocity="0" />
      <note Length="0.0104166666666667" Pitch="57" RiffPosition="0.0520833333333333" Velocity="0" />
      <note Length="0.0208333333333333" Pitch="54" RiffPosition="0.0625" Velocity="0" />
      <note Length="0.0104166666666667" Pitch="42" RiffPosition="0.0833333333333333" Velocity="0" />
      <note Length="0.0104166666666667" Pitch="42" RiffPosition="0.09375" Velocity="0" />
      <note Length="0.0104166666666667" Pitch="54" RiffPosition="0.104166666666667" Velocity="0" />
      <note Length="0.0104166666666667" Pitch="42" RiffPosition="0.114583333333333" Velocity="0" />
      <note Length="0.03125" Pitch="54" RiffPosition="0.125" Velocity="0" />
      <note Length="0.03125" Pitch="42" RiffPosition="0.15625" Velocity="0" />
      <note Length="0.03125" Pitch="42" RiffPosition="0.1875" Velocity="0" />
      <note Length="0.015625" Pitch="54" RiffPosition="0.21875" Velocity="0" />
      <note Length="0.015625" Pitch="59" RiffPosition="0.234375" Velocity="0" />
      <note Length="0.03125" Pitch="54" RiffPosition="0.25" Velocity="0" />
      <note Length="0.03125" Pitch="54" RiffPosition="0.28125" Velocity="0" />
      <note Length="0.0078125" Pitch="56" RiffPosition="0.3125" Velocity="0" />
      <note Length="0.0078125" Pitch="54" RiffPosition="0.3203125" Velocity="0" />
      <note Length="0.015625" Pitch="54" RiffPosition="0.328125" Velocity="0" />
      <note Length="0.015625" Pitch="42" RiffPosition="0.34375" Velocity="0" />
      <note Length="0.015625" Pitch="42" RiffPosition="0.359375" Velocity="0" />
      <note Length="0.0078125" Pitch="42" RiffPosition="0.375" Velocity="0" />
      <note Length="0.0078125" Pitch="42" RiffPosition="0.3828125" Velocity="0" />
      <note Length="0.0078125" Pitch="49" RiffPosition="0.390625" Velocity="0" />
      <note Length="0.0078125" Pitch="49" RiffPosition="0.3984375" Velocity="0" />
      <note Length="0.0104166666666667" Pitch="47" RiffPosition="0.40625" Velocity="0" />
      <note Length="0.0104166666666667" Pitch="44" RiffPosition="0.416666666666667" Velocity="0" />
      <note Length="0.0104166666666667" Pitch="44" RiffPosition="0.427083333333333" Velocity="0" />
      <note Length="0.00390625" Pitch="44" RiffPosition="0.4375" Velocity="0" />
      <note Length="0.01171875" Pitch="44" RiffPosition="0.44140625" Velocity="0" />
      <note Length="0.01171875" Pitch="44" RiffPosition="0.453125" Velocity="0" />
      <note Length="0.00390625" Pitch="45" RiffPosition="0.46484375" Velocity="0" />
      <note Length="0.0078125" Pitch="47" RiffPosition="0.46875" Velocity="0" />
      <note Length="0.0078125" Pitch="49" RiffPosition="0.4765625" Velocity="0" />
      <note Length="0.015625" Pitch="50" RiffPosition="0.484375" Velocity="0" />
      <note Length="0.03125" Pitch="42" RiffPosition="0.5" Velocity="0" />
      <note Length="0.03125" Pitch="57" RiffPosition="0.53125" Velocity="0" />
      <note Length="0.03125" Pitch="54" RiffPosition="0.5625" Velocity="0" />
      <note Length="0.03125" Pitch="42" RiffPosition="0.59375" Velocity="0" />
      <note Length="0.03125" Pitch="56" RiffPosition="0.625" Velocity="0" />
      <note Length="0.03125" Pitch="54" RiffPosition="0.65625" Velocity="0" />
      <note Length="0.03125" Pitch="42" RiffPosition="0.6875" Velocity="0" />
      <note Length="0.03125" Pitch="42" RiffPosition="0.71875" Velocity="0" />
      <note Length="0.015625" Pitch="57" RiffPosition="0.75" Velocity="0" />
      <note Length="0.046875" Pitch="59" RiffPosition="0.765625" Velocity="0" />
      <note Length="0.015625" Pitch="56" RiffPosition="0.8125" Velocity="0" />
      <note Length="0.046875" Pitch="54" RiffPosition="0.828125" Velocity="0" />
      <note Length="0.015625" Pitch="57" RiffPosition="0.875" Velocity="0" />
      <note Length="0.015625" Pitch="57" RiffPosition="0.890625" Velocity="0" />
      <note Length="0.015625" Pitch="56" RiffPosition="0.90625" Velocity="0" />
      <note Length="0.0078125" Pitch="54" RiffPosition="0.921875" Velocity="0" />
      <note Length="0.0078125" Pitch="54" RiffPosition="0.9296875" Velocity="0" />
      <note Length="0.015625" Pitch="42" RiffPosition="0.9375" Velocity="0" />
      <note Length="0.0078125" Pitch="42" RiffPosition="0.953125" Velocity="0" />
      <note Length="0.0078125" Pitch="42" RiffPosition="0.9609375" Velocity="0" />
      <note Length="0.0078125" Pitch="42" RiffPosition="0.96875" Velocity="0" />
      <note Length="0.0078125" Pitch="56" RiffPosition="0.9765625" Velocity="0" />
      <note Length="0.0078125" Pitch="56" RiffPosition="0.984375" Velocity="0" />
      <note Length="0.0078125" Pitch="56" RiffPosition="0.9921875" Velocity="0" />
      <note Length="0.0104166666666667" Pitch="57" RiffPosition="1" Velocity="0" />
      <note Length="0.0104166666666667" Pitch="57" RiffPosition="1.01041666666667" Velocity="0" />
      <note Length="0.0104166666666667" Pitch="57" RiffPosition="1.02083333333333" Velocity="0" />
      <note Length="0.0104166666666667" Pitch="57" RiffPosition="1.03125" Velocity="0" />
      <note Length="0.0104166666666667" Pitch="54" RiffPosition="1.04166666666667" Velocity="0" />
      <note Length="0.0104166666666667" Pitch="42" RiffPosition="1.05208333333333" Velocity="0" />
      <note Length="0.0208333333333333" Pitch="50" RiffPosition="1.0625" Velocity="0" />
      <note Length="0.0104166666666667" Pitch="49" RiffPosition="1.08333333333333" Velocity="0" />
      <note Length="0.0104166666666667" Pitch="47" RiffPosition="1.09375" Velocity="0" />
      <note Length="0.0104166666666667" Pitch="49" RiffPosition="1.10416666666667" Velocity="0" />
      <note Length="0.0104166666666667" Pitch="47" RiffPosition="1.11458333333333" Velocity="0" />
      <note Length="0.03125" Pitch="49" RiffPosition="1.125" Velocity="0" />
      <note Length="0.03125" Pitch="47" RiffPosition="1.15625" Velocity="0" />
      <note Length="0.03125" Pitch="47" RiffPosition="1.1875" Velocity="0" />
      <note Length="0.015625" Pitch="50" RiffPosition="1.21875" Velocity="0" />
      <note Length="0.015625" Pitch="54" RiffPosition="1.234375" Velocity="0" />
      <note Length="0.03125" Pitch="59" RiffPosition="1.25" Velocity="0" />
      <note Length="0.03125" Pitch="54" RiffPosition="1.28125" Velocity="0" />
      <note Length="0.0078125" Pitch="57" RiffPosition="1.3125" Velocity="0" />
      <note Length="0.0078125" Pitch="56" RiffPosition="1.3203125" Velocity="0" />
      <note Length="0.015625" Pitch="54" RiffPosition="1.328125" Velocity="0" />
      <note Length="0.015625" Pitch="54" RiffPosition="1.34375" Velocity="0" />
      <note Length="0.015625" Pitch="54" RiffPosition="1.359375" Velocity="0" />
      <note Length="0.0078125" Pitch="54" RiffPosition="1.375" Velocity="0" />
      <note Length="0.0078125" Pitch="54" RiffPosition="1.3828125" Velocity="0" />
      <note Length="0.0078125" Pitch="42" RiffPosition="1.390625" Velocity="0" />
      <note Length="0.0078125" Pitch="42" RiffPosition="1.3984375" Velocity="0" />
      <note Length="0.0104166666666667" Pitch="42" RiffPosition="1.40625" Velocity="0" />
      <note Length="0.0104166666666667" Pitch="42" RiffPosition="1.41666666666667" Velocity="0" />
      <note Length="0.0104166666666667" Pitch="42" RiffPosition="1.42708333333333" Velocity="0" />
      <note Length="0.00390625" Pitch="50" RiffPosition="1.4375" Velocity="0" />
      <note Length="0.01171875" Pitch="50" RiffPosition="1.44140625" Velocity="0" />
      <note Length="0.01171875" Pitch="42" RiffPosition="1.453125" Velocity="0" />
      <note Length="0.00390625" Pitch="42" RiffPosition="1.46484375" Velocity="0" />
      <note Length="0.0078125" Pitch="42" RiffPosition="1.46875" Velocity="0" />
      <note Length="0.0078125" Pitch="54" RiffPosition="1.4765625" Velocity="0" />
      <note Length="0.015625" Pitch="56" RiffPosition="1.484375" Velocity="0" />
      <note Length="0.03125" Pitch="59" RiffPosition="1.5" Velocity="0" />
      <note Length="0.03125" Pitch="54" RiffPosition="1.53125" Velocity="0" />
      <note Length="0.03125" Pitch="59" RiffPosition="1.5625" Velocity="0" />
      <note Length="0.03125" Pitch="56" RiffPosition="1.59375" Velocity="0" />
      <note Length="0.03125" Pitch="57" RiffPosition="1.625" Velocity="0" />
      <note Length="0.03125" Pitch="42" RiffPosition="1.65625" Velocity="0" />
      <note Length="0.03125" Pitch="49" RiffPosition="1.6875" Velocity="0" />
      <note Length="0.03125" Pitch="49" RiffPosition="1.71875" Velocity="0" />
      <note Length="0.015625" Pitch="42" RiffPosition="1.75" Velocity="0" />
      <note Length="0.046875" Pitch="42" RiffPosition="1.765625" Velocity="0" />
      <note Length="0.015625" Pitch="49" RiffPosition="1.8125" Velocity="0" />
      <note Length="0.046875" Pitch="49" RiffPosition="1.828125" Velocity="0" />
      <note Length="0.015625" Pitch="42" RiffPosition="1.875" Velocity="0" />
      <note Length="0.015625" Pitch="42" RiffPosition="1.890625" Velocity="0" />
      <note Length="0.015625" Pitch="42" RiffPosition="1.90625" Velocity="0" />
      <note Length="0.0078125" Pitch="42" RiffPosition="1.921875" Velocity="0" />
      <note Length="0.0078125" Pitch="42" RiffPosition="1.9296875" Velocity="0" />
      <note Length="0.015625" Pitch="42" RiffPosition="1.9375" Velocity="0" />
      <note Length="0.0078125" Pitch="42" RiffPosition="1.953125" Velocity="0" />
      <note Length="0.0078125" Pitch="42" RiffPosition="1.9609375" Velocity="0" />
      <note Length="0.0078125" Pitch="42" RiffPosition="1.96875" Velocity="0" />
      <note Length="0.0078125" Pitch="56" RiffPosition="1.9765625" Velocity="0" />
      <note Length="0.0078125" Pitch="57" RiffPosition="1.984375" Velocity="0" />
      <note Length="0.0078125" Pitch="57" RiffPosition="1.9921875" Velocity="0" />
      <note Length="0.0104166666666667" Pitch="59" RiffPosition="2" Velocity="0" />
      <note Length="0.0104166666666667" Pitch="59" RiffPosition="2.01041666666667" Velocity="0" />
      <note Length="0.0104166666666667" Pitch="61" RiffPosition="2.02083333333333" Velocity="0" />
      <note Length="0.0104166666666667" Pitch="54" RiffPosition="2.03125" Velocity="0" />
      <note Length="0.0104166666666667" Pitch="59" RiffPosition="2.04166666666667" Velocity="0" />
      <note Length="0.0104166666666667" Pitch="57" RiffPosition="2.05208333333333" Velocity="0" />
      <note Length="0.0208333333333333" Pitch="54" RiffPosition="2.0625" Velocity="0" />
      <note Length="0.0104166666666667" Pitch="42" RiffPosition="2.08333333333333" Velocity="0" />
      <note Length="0.0104166666666667" Pitch="42" RiffPosition="2.09375" Velocity="0" />
      <note Length="0.0104166666666667" Pitch="54" RiffPosition="2.10416666666667" Velocity="0" />
      <note Length="0.0104166666666667" Pitch="42" RiffPosition="2.11458333333333" Velocity="0" />
      <note Length="0.03125" Pitch="54" RiffPosition="2.125" Velocity="0" />
      <note Length="0.03125" Pitch="42" RiffPosition="2.15625" Velocity="0" />
      <note Length="0.03125" Pitch="42" RiffPosition="2.1875" Velocity="0" />
      <note Length="0.015625" Pitch="54" RiffPosition="2.21875" Velocity="0" />
      <note Length="0.015625" Pitch="59" RiffPosition="2.234375" Velocity="0" />
      <note Length="0.03125" Pitch="54" RiffPosition="2.25" Velocity="0" />
      <note Length="0.03125" Pitch="54" RiffPosition="2.28125" Velocity="0" />
      <note Length="0.0078125" Pitch="56" RiffPosition="2.3125" Velocity="0" />
      <note Length="0.0078125" Pitch="54" RiffPosition="2.3203125" Velocity="0" />
      <note Length="0.015625" Pitch="54" RiffPosition="2.328125" Velocity="0" />
      <note Length="0.015625" Pitch="42" RiffPosition="2.34375" Velocity="0" />
      <note Length="0.015625" Pitch="42" RiffPosition="2.359375" Velocity="0" />
      <note Length="0.0078125" Pitch="42" RiffPosition="2.375" Velocity="0" />
      <note Length="0.0078125" Pitch="42" RiffPosition="2.3828125" Velocity="0" />
      <note Length="0.0078125" Pitch="49" RiffPosition="2.390625" Velocity="0" />
      <note Length="0.0078125" Pitch="49" RiffPosition="2.3984375" Velocity="0" />
      <note Length="0.0104166666666667" Pitch="47" RiffPosition="2.40625" Velocity="0" />
      <note Length="0.0104166666666667" Pitch="44" RiffPosition="2.41666666666667" Velocity="0" />
      <note Length="0.0104166666666667" Pitch="45" RiffPosition="2.42708333333333" Velocity="0" />
      <note Length="0.00390625" Pitch="44" RiffPosition="2.4375" Velocity="0" />
      <note Length="0.01171875" Pitch="44" RiffPosition="2.44140625" Velocity="0" />
      <note Length="0.01171875" Pitch="44" RiffPosition="2.453125" Velocity="0" />
      <note Length="0.00390625" Pitch="45" RiffPosition="2.46484375" Velocity="0" />
      <note Length="0.0078125" Pitch="47" RiffPosition="2.46875" Velocity="0" />
      <note Length="0.0078125" Pitch="49" RiffPosition="2.4765625" Velocity="0" />
      <note Length="0.015625" Pitch="49" RiffPosition="2.484375" Velocity="0" />
      <note Length="0.03125" Pitch="42" RiffPosition="2.5" Velocity="0" />
      <note Length="0.03125" Pitch="57" RiffPosition="2.53125" Velocity="0" />
      <note Length="0.03125" Pitch="54" RiffPosition="2.5625" Velocity="0" />
      <note Length="0.03125" Pitch="42" RiffPosition="2.59375" Velocity="0" />
      <note Length="0.03125" Pitch="56" RiffPosition="2.625" Velocity="0" />
      <note Length="0.03125" Pitch="54" RiffPosition="2.65625" Velocity="0" />
      <note Length="0.03125" Pitch="42" RiffPosition="2.6875" Velocity="0" />
      <note Length="0.03125" Pitch="42" RiffPosition="2.71875" Velocity="0" />
      <note Length="0.015625" Pitch="57" RiffPosition="2.75" Velocity="0" />
      <note Length="0.046875" Pitch="59" RiffPosition="2.765625" Velocity="0" />
      <note Length="0.015625" Pitch="54" RiffPosition="2.8125" Velocity="0" />
      <note Length="0.046875" Pitch="54" RiffPosition="2.828125" Velocity="0" />
      <note Length="0.015625" Pitch="57" RiffPosition="2.875" Velocity="0" />
      <note Length="0.015625" Pitch="57" RiffPosition="2.890625" Velocity="0" />
      <note Length="0.015625" Pitch="56" RiffPosition="2.90625" Velocity="0" />
      <note Length="0.0078125" Pitch="54" RiffPosition="2.921875" Velocity="0" />
      <note Length="0.0078125" Pitch="54" RiffPosition="2.9296875" Velocity="0" />
      <note Length="0.015625" Pitch="42" RiffPosition="2.9375" Velocity="0" />
      <note Length="0.0078125" Pitch="42" RiffPosition="2.953125" Velocity="0" />
      <note Length="0.0078125" Pitch="42" RiffPosition="2.9609375" Velocity="0" />
      <note Length="0.0078125" Pitch="42" RiffPosition="2.96875" Velocity="0" />
      <note Length="0.0078125" Pitch="56" RiffPosition="2.9765625" Velocity="0" />
      <note Length="0.0078125" Pitch="56" RiffPosition="2.984375" Velocity="0" />
      <note Length="0.0078125" Pitch="56" RiffPosition="2.9921875" Velocity="0" />
      <note Length="0.0104166666666667" Pitch="57" RiffPosition="3" Velocity="0" />
      <note Length="0.0104166666666667" Pitch="57" RiffPosition="3.01041666666667" Velocity="0" />
      <note Length="0.0104166666666667" Pitch="57" RiffPosition="3.02083333333333" Velocity="0" />
      <note Length="0.0104166666666667" Pitch="57" RiffPosition="3.03125" Velocity="0" />
      <note Length="0.0104166666666667" Pitch="54" RiffPosition="3.04166666666667" Velocity="0" />
      <note Length="0.0104166666666667" Pitch="42" RiffPosition="3.05208333333333" Velocity="0" />
      <note Length="0.0208333333333333" Pitch="42" RiffPosition="3.0625" Velocity="0" />
      <note Length="0.0104166666666667" Pitch="49" RiffPosition="3.08333333333333" Velocity="0" />
      <note Length="0.0104166666666667" Pitch="47" RiffPosition="3.09375" Velocity="0" />
      <note Length="0.0104166666666667" Pitch="49" RiffPosition="3.10416666666666" Velocity="0" />
      <note Length="0.0104166666666667" Pitch="47" RiffPosition="3.11458333333333" Velocity="0" />
      <note Length="0.03125" Pitch="49" RiffPosition="3.125" Velocity="0" />
      <note Length="0.03125" Pitch="47" RiffPosition="3.15625" Velocity="0" />
      <note Length="0.03125" Pitch="47" RiffPosition="3.1875" Velocity="0" />
      <note Length="0.015625" Pitch="50" RiffPosition="3.21875" Velocity="0" />
      <note Length="0.015625" Pitch="54" RiffPosition="3.234375" Velocity="0" />
      <note Length="0.03125" Pitch="59" RiffPosition="3.25" Velocity="0" />
      <note Length="0.03125" Pitch="54" RiffPosition="3.28125" Velocity="0" />
      <note Length="0.0078125" Pitch="57" RiffPosition="3.3125" Velocity="0" />
      <note Length="0.0078125" Pitch="56" RiffPosition="3.3203125" Velocity="0" />
      <note Length="0.015625" Pitch="54" RiffPosition="3.328125" Velocity="0" />
      <note Length="0.015625" Pitch="54" RiffPosition="3.34375" Velocity="0" />
      <note Length="0.015625" Pitch="54" RiffPosition="3.359375" Velocity="0" />
      <note Length="0.0078125" Pitch="54" RiffPosition="3.375" Velocity="0" />
      <note Length="0.0078125" Pitch="54" RiffPosition="3.3828125" Velocity="0" />
      <note Length="0.0078125" Pitch="54" RiffPosition="3.390625" Velocity="0" />
      <note Length="0.0078125" Pitch="42" RiffPosition="3.3984375" Velocity="0" />
      <note Length="0.0104166666666667" Pitch="42" RiffPosition="3.40625" Velocity="0" />
      <note Length="0.0104166666666667" Pitch="50" RiffPosition="3.41666666666666" Velocity="0" />
      <note Length="0.0104166666666667" Pitch="42" RiffPosition="3.42708333333333" Velocity="0" />
      <note Length="0.00390625" Pitch="50" RiffPosition="3.4375" Velocity="0" />
      <note Length="0.01171875" Pitch="50" RiffPosition="3.44140625" Velocity="0" />
      <note Length="0.01171875" Pitch="42" RiffPosition="3.453125" Velocity="0" />
      <note Length="0.00390625" Pitch="42" RiffPosition="3.46484375" Velocity="0" />
      <note Length="0.0078125" Pitch="42" RiffPosition="3.46875" Velocity="0" />
      <note Length="0.0078125" Pitch="54" RiffPosition="3.4765625" Velocity="0" />
      <note Length="0.015625" Pitch="56" RiffPosition="3.484375" Velocity="0" />
      <note Length="0.03125" Pitch="59" RiffPosition="3.5" Velocity="0" />
      <note Length="0.03125" Pitch="54" RiffPosition="3.53125" Velocity="0" />
      <note Length="0.03125" Pitch="59" RiffPosition="3.5625" Velocity="0" />
      <note Length="0.03125" Pitch="56" RiffPosition="3.59375" Velocity="0" />
      <note Length="0.03125" Pitch="57" RiffPosition="3.625" Velocity="0" />
      <note Length="0.03125" Pitch="42" RiffPosition="3.65625" Velocity="0" />
      <note Length="0.03125" Pitch="49" RiffPosition="3.6875" Velocity="0" />
      <note Length="0.03125" Pitch="49" RiffPosition="3.71875" Velocity="0" />
      <note Length="0.015625" Pitch="42" RiffPosition="3.75" Velocity="0" />
      <note Length="0.046875" Pitch="42" RiffPosition="3.765625" Velocity="0" />
      <note Length="0.015625" Pitch="49" RiffPosition="3.8125" Velocity="0" />
      <note Length="0.046875" Pitch="49" RiffPosition="3.828125" Velocity="0" />
      <note Length="0.015625" Pitch="42" RiffPosition="3.875" Velocity="0" />
      <note Length="0.015625" Pitch="42" RiffPosition="3.890625" Velocity="0" />
      <note Length="0.015625" Pitch="42" RiffPosition="3.90625" Velocity="0" />
      <note Length="0.0078125" Pitch="42" RiffPosition="3.921875" Velocity="0" />
      <note Length="0.0078125" Pitch="42" RiffPosition="3.9296875" Velocity="0" />
      <note Length="0.015625" Pitch="42" RiffPosition="3.9375" Velocity="0" />
      <note Length="0.0078125" Pitch="42" RiffPosition="3.953125" Velocity="0" />
      <note Length="0.0078125" Pitch="42" RiffPosition="3.9609375" Velocity="0" />
      <note Length="0.0078125" Pitch="42" RiffPosition="3.96875" Velocity="0" />
      <note Length="0.0078125" Pitch="56" RiffPosition="3.9765625" Velocity="0" />
      <note Length="0.0078125" Pitch="56" RiffPosition="3.984375" Velocity="0" />
      <note Length="0.0078125" Pitch="57" RiffPosition="3.9921875" Velocity="0" />
      <note Length="0.0104166666666667" Pitch="59" RiffPosition="4" Velocity="0" />
      <note Length="0.0104166666666667" Pitch="59" RiffPosition="4.01041666666666" Velocity="0" />
      <note Length="0.0104166666666667" Pitch="61" RiffPosition="4.02083333333333" Velocity="0" />
      <note Length="0.0104166666666667" Pitch="54" RiffPosition="4.03125" Velocity="0" />
      <note Length="0.0104166666666667" Pitch="59" RiffPosition="4.04166666666667" Velocity="0" />
      <note Length="0.0104166666666667" Pitch="57" RiffPosition="4.05208333333333" Velocity="0" />
      <note Length="0.0208333333333333" Pitch="54" RiffPosition="4.0625" Velocity="0" />
      <note Length="0.0104166666666667" Pitch="42" RiffPosition="4.08333333333333" Velocity="0" />
      <note Length="0.0104166666666667" Pitch="42" RiffPosition="4.09375" Velocity="0" />
      <note Length="0.0104166666666667" Pitch="54" RiffPosition="4.10416666666667" Velocity="0" />
      <note Length="0.0104166666666667" Pitch="42" RiffPosition="4.11458333333333" Velocity="0" />
      <note Length="0.03125" Pitch="54" RiffPosition="4.125" Velocity="0" />
      <note Length="0.03125" Pitch="42" RiffPosition="4.15625" Velocity="0" />
      <note Length="0.03125" Pitch="42" RiffPosition="4.1875" Velocity="0" />
      <note Length="0.015625" Pitch="54" RiffPosition="4.21875" Velocity="0" />
      <note Length="0.015625" Pitch="59" RiffPosition="4.234375" Velocity="0" />
      <note Length="0.03125" Pitch="54" RiffPosition="4.25" Velocity="0" />
      <note Length="0.03125" Pitch="54" RiffPosition="4.28125" Velocity="0" />
      <note Length="0.0078125" Pitch="56" RiffPosition="4.3125" Velocity="0" />
      <note Length="0.0078125" Pitch="54" RiffPosition="4.3203125" Velocity="0" />
      <note Length="0.015625" Pitch="54" RiffPosition="4.328125" Velocity="0" />
      <note Length="0.015625" Pitch="42" RiffPosition="4.34375" Velocity="0" />
      <note Length="0.015625" Pitch="42" RiffPosition="4.359375" Velocity="0" />
      <note Length="0.0078125" Pitch="42" RiffPosition="4.375" Velocity="0" />
      <note Length="0.0078125" Pitch="50" RiffPosition="4.3828125" Velocity="0" />
      <note Length="0.0078125" Pitch="49" RiffPosition="4.390625" Velocity="0" />
      <note Length="0.0078125" Pitch="49" RiffPosition="4.3984375" Velocity="0" />
      <note Length="0.0104166666666667" Pitch="47" RiffPosition="4.40625" Velocity="0" />
      <note Length="0.0104166666666667" Pitch="44" RiffPosition="4.41666666666667" Velocity="0" />
      <note Length="0.0104166666666667" Pitch="45" RiffPosition="4.42708333333333" Velocity="0" />
      <note Length="0.00390625" Pitch="44" RiffPosition="4.4375" Velocity="0" />
      <note Length="0.01171875" Pitch="44" RiffPosition="4.44140625" Velocity="0" />
      <note Length="0.01171875" Pitch="44" RiffPosition="4.453125" Velocity="0" />
      <note Length="0.00390625" Pitch="45" RiffPosition="4.46484375" Velocity="0" />
      <note Length="0.0078125" Pitch="45" RiffPosition="4.46875" Velocity="0" />
      <note Length="0.0078125" Pitch="49" RiffPosition="4.4765625" Velocity="0" />
      <note Length="0.015625" Pitch="49" RiffPosition="4.484375" Velocity="0" />
      <note Length="0.03125" Pitch="42" RiffPosition="4.5" Velocity="0" />
      <note Length="0.03125" Pitch="57" RiffPosition="4.53125" Velocity="0" />
      <note Length="0.03125" Pitch="42" RiffPosition="4.5625" Velocity="0" />
      <note Length="0.03125" Pitch="42" RiffPosition="4.59375" Velocity="0" />
      <note Length="0.03125" Pitch="56" RiffPosition="4.625" Velocity="0" />
      <note Length="0.03125" Pitch="54" RiffPosition="4.65625" Velocity="0" />
      <note Length="0.03125" Pitch="42" RiffPosition="4.6875" Velocity="0" />
      <note Length="0.03125" Pitch="42" RiffPosition="4.71875" Velocity="0" />
      <note Length="0.015625" Pitch="57" RiffPosition="4.75" Velocity="0" />
      <note Length="0.046875" Pitch="59" RiffPosition="4.765625" Velocity="0" />
      <note Length="0.015625" Pitch="56" RiffPosition="4.8125" Velocity="0" />
      <note Length="0.046875" Pitch="54" RiffPosition="4.828125" Velocity="0" />
      <note Length="0.015625" Pitch="57" RiffPosition="4.875" Velocity="0" />
      <note Length="0.015625" Pitch="57" RiffPosition="4.890625" Velocity="0" />
      <note Length="0.015625" Pitch="56" RiffPosition="4.90625" Velocity="0" />
      <note Length="0.0078125" Pitch="54" RiffPosition="4.921875" Velocity="0" />
      <note Length="0.0078125" Pitch="54" RiffPosition="4.9296875" Velocity="0" />
      <note Length="0.015625" Pitch="42" RiffPosition="4.9375" Velocity="0" />
      <note Length="0.0078125" Pitch="42" RiffPosition="4.953125" Velocity="0" />
      <note Length="0.0078125" Pitch="42" RiffPosition="4.9609375" Velocity="0" />
      <note Length="0.0078125" Pitch="42" RiffPosition="4.96875" Velocity="0" />
      <note Length="0.0078125" Pitch="56" RiffPosition="4.9765625" Velocity="0" />
      <note Length="0.0078125" Pitch="56" RiffPosition="4.984375" Velocity="0" />
      <note Length="0.0078125" Pitch="56" RiffPosition="4.9921875" Velocity="0" />
      <note Length="0.0104166666666667" Pitch="57" RiffPosition="5" Velocity="61" />
      <note Length="0.0104166666666667" Pitch="57" RiffPosition="5.01041666666667" Velocity="58" />
      <note Length="0.0104166666666667" Pitch="57" RiffPosition="5.02083333333333" Velocity="62" />
      <note Length="0.0104166666666667" Pitch="57" RiffPosition="5.03125" Velocity="60" />
      <note Length="0.0104166666666667" Pitch="54" RiffPosition="5.04166666666667" Velocity="65" />
      <note Length="0.0104166666666667" Pitch="42" RiffPosition="5.05208333333334" Velocity="45" />
      <note Length="0.0208333333333333" Pitch="42" RiffPosition="5.0625" Velocity="67" />
      <note Length="0.0104166666666667" Pitch="49" RiffPosition="5.08333333333334" Velocity="73" />
      <note Length="0.0104166666666667" Pitch="47" RiffPosition="5.09375" Velocity="52" />
      <note Length="0.0104166666666667" Pitch="49" RiffPosition="5.10416666666667" Velocity="55" />
      <note Length="0.0104166666666667" Pitch="47" RiffPosition="5.11458333333334" Velocity="53" />
      <note Length="0.03125" Pitch="49" RiffPosition="5.125" Velocity="56" />
      <note Length="0.03125" Pitch="47" RiffPosition="5.15625" Velocity="55" />
      <note Length="0.03125" Pitch="47" RiffPosition="5.1875" Velocity="75" />
      <note Length="0.015625" Pitch="42" RiffPosition="5.21875" Velocity="90" />
      <note Length="0.015625" Pitch="54" RiffPosition="5.234375" Velocity="65" />
      <note Length="0.03125" Pitch="57" RiffPosition="5.25" Velocity="61" />
      <note Length="0.03125" Pitch="54" RiffPosition="5.28125" Velocity="51" />
      <note Length="0.0078125" Pitch="57" RiffPosition="5.3125" Velocity="70" />
      <note Length="0.0078125" Pitch="56" RiffPosition="5.3203125" Velocity="69" />
      <note Length="0.015625" Pitch="54" RiffPosition="5.328125" Velocity="74" />
      <note Length="0.015625" Pitch="54" RiffPosition="5.34375" Velocity="97" />
      <note Length="0.015625" Pitch="54" RiffPosition="5.359375" Velocity="99" />
      <note Length="0.0078125" Pitch="54" RiffPosition="5.375" Velocity="107" />
      <note Length="0.0078125" Pitch="54" RiffPosition="5.3828125" Velocity="104" />
      <note Length="0.0078125" Pitch="54" RiffPosition="5.390625" Velocity="107" />
      <note Length="0.0078125" Pitch="42" RiffPosition="5.3984375" Velocity="104" />
      <note Length="0.0104166666666667" Pitch="42" RiffPosition="5.40625" Velocity="107" />
      <note Length="0.0104166666666667" Pitch="50" RiffPosition="5.41666666666667" Velocity="109" />
      <note Length="0.0104166666666667" Pitch="42" RiffPosition="5.42708333333334" Velocity="84" />
      <note Length="0.00390625" Pitch="50" RiffPosition="5.4375" Velocity="77" />
      <note Length="0.01171875" Pitch="50" RiffPosition="5.44140625" Velocity="76" />
      <note Length="0.01171875" Pitch="42" RiffPosition="5.453125" Velocity="75" />
      <note Length="0.00390625" Pitch="42" RiffPosition="5.46484375" Velocity="67" />
      <note Length="0.0078125" Pitch="42" RiffPosition="5.46875" Velocity="48" />
      <note Length="0.0078125" Pitch="54" RiffPosition="5.4765625" Velocity="48" />
      <note Length="0.015625" Pitch="56" RiffPosition="5.484375" Velocity="45" />
      <note Length="0.03125" Pitch="59" RiffPosition="5.5" Velocity="52" />
      <note Length="0.03125" Pitch="54" RiffPosition="5.53125" Velocity="57" />
      <note Length="0.03125" Pitch="59" RiffPosition="5.5625" Velocity="61" />
      <note Length="0.03125" Pitch="56" RiffPosition="5.59375" Velocity="39" />
      <note Length="0.03125" Pitch="57" RiffPosition="5.625" Velocity="39" />
      <note Length="0.03125" Pitch="42" RiffPosition="5.65625" Velocity="36" />
      <note Length="0.03125" Pitch="49" RiffPosition="5.6875" Velocity="56" />
      <note Length="0.03125" Pitch="49" RiffPosition="5.71875" Velocity="83" />
      <note Length="0.015625" Pitch="42" RiffPosition="5.75" Velocity="72" />
      <note Length="0.046875" Pitch="42" RiffPosition="5.765625" Velocity="74" />
      <note Length="0.015625" Pitch="49" RiffPosition="5.8125" Velocity="41" />
      <note Length="0.046875" Pitch="49" RiffPosition="5.828125" Velocity="43" />
      <note Length="0.015625" Pitch="42" RiffPosition="5.875" Velocity="53" />
      <note Length="0.015625" Pitch="42" RiffPosition="5.890625" Velocity="55" />
      <note Length="0.015625" Pitch="42" RiffPosition="5.90625" Velocity="58" />
      <note Length="0.0078125" Pitch="42" RiffPosition="5.921875" Velocity="63" />
      <note Length="0.0078125" Pitch="42" RiffPosition="5.9296875" Velocity="50" />
      <note Length="0.015625" Pitch="42" RiffPosition="5.9375" Velocity="49" />
      <note Length="0.0078125" Pitch="42" RiffPosition="5.953125" Velocity="60" />
      <note Length="0.0078125" Pitch="42" RiffPosition="5.9609375" Velocity="60" />
      <note Length="0.0078125" Pitch="42" RiffPosition="5.96875" Velocity="47" />
      <note Length="0.0078125" Pitch="56" RiffPosition="5.9765625" Velocity="46" />
      <note Length="0.0078125" Pitch="56" RiffPosition="5.984375" Velocity="36" />
      <note Length="0.0078125" Pitch="57" RiffPosition="5.9921875" Velocity="41" />
      <note Length="0.0104166666666667" Pitch="59" RiffPosition="6" Velocity="40" />
      <note Length="0.0104166666666667" Pitch="61" RiffPosition="6.01041666666667" Velocity="46" />
      <note Length="0.0104166666666667" Pitch="61" RiffPosition="6.02083333333334" Velocity="46" />
      <note Length="0.0104166666666667" Pitch="54" RiffPosition="6.03125000000001" Velocity="52" />
      <note Length="0.0104166666666667" Pitch="59" RiffPosition="6.04166666666667" Velocity="51" />
      <note Length="0.0104166666666667" Pitch="57" RiffPosition="6.05208333333334" Velocity="74" />
      <note Length="0.0208333333333333" Pitch="54" RiffPosition="6.06250000000001" Velocity="56" />
      <note Length="0.0104166666666667" Pitch="42" RiffPosition="6.08333333333334" Velocity="55" />
      <note Length="0.0104166666666667" Pitch="42" RiffPosition="6.09375000000001" Velocity="73" />
      <note Length="0.0104166666666667" Pitch="54" RiffPosition="6.10416666666667" Velocity="66" />
      <note Length="0.0104166666666667" Pitch="42" RiffPosition="6.11458333333334" Velocity="59" />
      <note Length="0.03125" Pitch="54" RiffPosition="6.12500000000001" Velocity="58" />
      <note Length="0.03125" Pitch="42" RiffPosition="6.15625000000001" Velocity="43" />
      <note Length="0.03125" Pitch="42" RiffPosition="6.18750000000001" Velocity="52" />
      <note Length="0.015625" Pitch="54" RiffPosition="6.21875000000001" Velocity="79" />
      <note Length="0.015625" Pitch="59" RiffPosition="6.23437500000001" Velocity="65" />
      <note Length="0.03125" Pitch="54" RiffPosition="6.25000000000001" Velocity="60" />
      <note Length="0.03125" Pitch="54" RiffPosition="6.28125000000001" Velocity="61" />
      <note Length="0.0078125" Pitch="56" RiffPosition="6.31250000000001" Velocity="49" />
      <note Length="0.0078125" Pitch="54" RiffPosition="6.32031250000001" Velocity="46" />
      <note Length="0.015625" Pitch="54" RiffPosition="6.32812500000001" Velocity="48" />
      <note Length="0.015625" Pitch="42" RiffPosition="6.34375000000001" Velocity="65" />
      <note Length="0.015625" Pitch="42" RiffPosition="6.35937500000001" Velocity="63" />
      <note Length="0.0078125" Pitch="42" RiffPosition="6.37500000000001" Velocity="59" />
      <note Length="0.0078125" Pitch="50" RiffPosition="6.38281250000001" Velocity="59" />
      <note Length="0.0078125" Pitch="49" RiffPosition="6.39062500000001" Velocity="60" />
      <note Length="0.0078125" Pitch="49" RiffPosition="6.39843750000001" Velocity="54" />
      <note Length="0.0104166666666667" Pitch="47" RiffPosition="6.40625000000001" Velocity="54" />
      <note Length="0.0104166666666667" Pitch="44" RiffPosition="6.41666666666667" Velocity="48" />
      <note Length="0.0104166666666667" Pitch="45" RiffPosition="6.42708333333334" Velocity="38" />
      <note Length="0.00390625" Pitch="44" RiffPosition="6.43750000000001" Velocity="41" />
      <note Length="0.01171875" Pitch="44" RiffPosition="6.44140625000001" Velocity="41" />
      <note Length="0.01171875" Pitch="44" RiffPosition="6.45312500000001" Velocity="44" />
      <note Length="0.00390625" Pitch="45" RiffPosition="6.46484375000001" Velocity="41" />
      <note Length="0.0078125" Pitch="45" RiffPosition="6.46875000000001" Velocity="59" />
      <note Length="0.0078125" Pitch="49" RiffPosition="6.47656250000001" Velocity="63" />
      <note Length="0.015625" Pitch="50" RiffPosition="6.48437500000001" Velocity="77" />
      <note Length="0.03125" Pitch="42" RiffPosition="6.50000000000001" Velocity="79" />
      <note Length="0.03125" Pitch="57" RiffPosition="6.53125000000001" Velocity="73" />
      <note Length="0.03125" Pitch="42" RiffPosition="6.56250000000001" Velocity="66" />
      <note Length="0.03125" Pitch="42" RiffPosition="6.59375000000001" Velocity="39" />
      <note Length="0.03125" Pitch="56" RiffPosition="6.62500000000001" Velocity="48" />
      <note Length="0.03125" Pitch="54" RiffPosition="6.65625000000001" Velocity="57" />
      <note Length="0.03125" Pitch="42" RiffPosition="6.68750000000001" Velocity="52" />
      <note Length="0.03125" Pitch="42" RiffPosition="6.71875000000001" Velocity="36" />
      <note Length="0.015625" Pitch="57" RiffPosition="6.75000000000001" Velocity="56" />
      <note Length="0.046875" Pitch="59" RiffPosition="6.76562500000001" Velocity="49" />
      <note Length="0.015625" Pitch="56" RiffPosition="6.81250000000001" Velocity="60" />
      <note Length="0.046875" Pitch="54" RiffPosition="6.82812500000001" Velocity="59" />
      <note Length="0.015625" Pitch="57" RiffPosition="6.87500000000001" Velocity="62" />
      <note Length="0.015625" Pitch="57" RiffPosition="6.89062500000001" Velocity="59" />
      <note Length="0.015625" Pitch="56" RiffPosition="6.90625000000001" Velocity="63" />
      <note Length="0.0078125" Pitch="54" RiffPosition="6.92187500000001" Velocity="62" />
      <note Length="0.0078125" Pitch="54" RiffPosition="6.92968750000001" Velocity="40" />
      <note Length="0.015625" Pitch="42" RiffPosition="6.93750000000001" Velocity="43" />
      <note Length="0.0078125" Pitch="42" RiffPosition="6.95312500000001" Velocity="43" />
      <note Length="0.0078125" Pitch="42" RiffPosition="6.96093750000001" Velocity="46" />
      <note Length="0.0078125" Pitch="54" RiffPosition="6.96875000000001" Velocity="40" />
      <note Length="0.0078125" Pitch="56" RiffPosition="6.97656250000001" Velocity="43" />
      <note Length="0.0078125" Pitch="56" RiffPosition="6.98437500000001" Velocity="56" />
      <note Length="0.0078125" Pitch="56" RiffPosition="6.99218750000001" Velocity="60" />
      <note Length="0.0104166666666667" Pitch="57" RiffPosition="7.00000000000001" Velocity="58" />
      <note Length="0.0104166666666667" Pitch="57" RiffPosition="7.01041666666668" Velocity="61" />
      <note Length="0.0104166666666667" Pitch="57" RiffPosition="7.02083333333334" Velocity="59" />
      <note Length="0.0104166666666667" Pitch="57" RiffPosition="7.03125000000001" Velocity="63" />
      <note Length="0.0104166666666667" Pitch="54" RiffPosition="7.04166666666668" Velocity="61" />
      <note Length="0.0104166666666667" Pitch="42" RiffPosition="7.05208333333334" Velocity="48" />
      <note Length="0.0208333333333333" Pitch="50" RiffPosition="7.06250000000001" Velocity="64" />
      <note Length="0.0104166666666667" Pitch="49" RiffPosition="7.08333333333334" Velocity="70" />
      <note Length="0.0104166666666667" Pitch="47" RiffPosition="7.09375000000001" Velocity="54" />
      <note Length="0.0104166666666667" Pitch="49" RiffPosition="7.10416666666668" Velocity="52" />
      <note Length="0.0104166666666667" Pitch="47" RiffPosition="7.11458333333334" Velocity="56" />
      <note Length="0.03125" Pitch="49" RiffPosition="7.12500000000001" Velocity="53" />
      <note Length="0.03125" Pitch="47" RiffPosition="7.15625000000001" Velocity="58" />
      <note Length="0.03125" Pitch="47" RiffPosition="7.18750000000001" Velocity="71" />
      <note Length="0.015625" Pitch="42" RiffPosition="7.21875000000001" Velocity="87" />
      <note Length="0.015625" Pitch="54" RiffPosition="7.23437500000001" Velocity="68" />
      <note Length="0.03125" Pitch="57" RiffPosition="7.25000000000001" Velocity="64" />
      <note Length="0.03125" Pitch="54" RiffPosition="7.28125000000001" Velocity="48" />
      <note Length="0.0078125" Pitch="56" RiffPosition="7.31250000000001" Velocity="67" />
      <note Length="0.0078125" Pitch="56" RiffPosition="7.32031250000001" Velocity="72" />
      <note Length="0.015625" Pitch="54" RiffPosition="7.32812500000001" Velocity="72" />
      <note Length="0.015625" Pitch="54" RiffPosition="7.34375000000001" Velocity="100" />
      <note Length="0.015625" Pitch="54" RiffPosition="7.35937500000001" Velocity="103" />
      <note Length="0.0078125" Pitch="54" RiffPosition="7.37500000000001" Velocity="104" />
      <note Length="0.0078125" Pitch="54" RiffPosition="7.38281250000001" Velocity="107" />
      <note Length="0.0078125" Pitch="54" RiffPosition="7.39062500000001" Velocity="104" />
      <note Length="0.0078125" Pitch="42" RiffPosition="7.39843750000001" Velocity="107" />
      <note Length="0.0104166666666667" Pitch="42" RiffPosition="7.40625000000001" Velocity="110" />
      <note Length="0.0104166666666667" Pitch="50" RiffPosition="7.41666666666668" Velocity="106" />
      <note Length="0.0104166666666667" Pitch="42" RiffPosition="7.42708333333334" Velocity="81" />
      <note Length="0.00390625" Pitch="50" RiffPosition="7.43750000000001" Velocity="80" />
      <note Length="0.01171875" Pitch="50" RiffPosition="7.44140625000001" Velocity="79" />
      <note Length="0.01171875" Pitch="42" RiffPosition="7.45312500000001" Velocity="72" />
      <note Length="0.00390625" Pitch="42" RiffPosition="7.46484375000001" Velocity="71" />
      <note Length="0.0078125" Pitch="42" RiffPosition="7.46875000000001" Velocity="46" />
      <note Length="0.0078125" Pitch="54" RiffPosition="7.47656250000001" Velocity="45" />
      <note Length="0.015625" Pitch="56" RiffPosition="7.48437500000001" Velocity="42" />
      <note Length="0.03125" Pitch="59" RiffPosition="7.50000000000001" Velocity="49" />
      <note Length="0.03125" Pitch="54" RiffPosition="7.53125000000001" Velocity="60" />
      <note Length="0.03125" Pitch="59" RiffPosition="7.56250000000001" Velocity="57" />
      <note Length="0.03125" Pitch="56" RiffPosition="7.59375000000001" Velocity="41" />
      <note Length="0.03125" Pitch="57" RiffPosition="7.62500000000001" Velocity="36" />
      <note Length="0.03125" Pitch="42" RiffPosition="7.65625000000001" Velocity="37" />
      <note Length="0.03125" Pitch="49" RiffPosition="7.68750000000001" Velocity="59" />
      <note Length="0.03125" Pitch="49" RiffPosition="7.71875000000001" Velocity="80" />
      <note Length="0.015625" Pitch="42" RiffPosition="7.75000000000001" Velocity="75" />
      <note Length="0.046875" Pitch="42" RiffPosition="7.76562500000001" Velocity="77" />
      <note Length="0.015625" Pitch="49" RiffPosition="7.81250000000001" Velocity="44" />
      <note Length="0.046875" Pitch="49" RiffPosition="7.82812500000001" Velocity="45" />
      <note Length="0.015625" Pitch="42" RiffPosition="7.87500000000001" Velocity="50" />
      <note Length="0.015625" Pitch="42" RiffPosition="7.89062500000001" Velocity="52" />
      <note Length="0.015625" Pitch="42" RiffPosition="7.90625000000001" Velocity="56" />
      <note Length="0.0078125" Pitch="42" RiffPosition="7.92187500000001" Velocity="66" />
      <note Length="0.0078125" Pitch="42" RiffPosition="7.92968750000001" Velocity="47" />
      <note Length="0.015625" Pitch="42" RiffPosition="7.93750000000001" Velocity="52" />
      <note Length="0.0078125" Pitch="42" RiffPosition="7.95312500000001" Velocity="58" />
      <note Length="0.0078125" Pitch="42" RiffPosition="7.96093750000001" Velocity="63" />
      <note Length="0.0078125" Pitch="42" RiffPosition="7.96875000000001" Velocity="44" />
      <note Length="0.0078125" Pitch="56" RiffPosition="7.97656250000001" Velocity="50" />
      <note Length="0.0078125" Pitch="56" RiffPosition="7.98437500000001" Velocity="37" />
      <note Length="0.0078125" Pitch="57" RiffPosition="7.99218750000001" Velocity="38" />
      <note Length="0.0104166666666667" Pitch="59" RiffPosition="8.00000000000001" Velocity="43" />
      <note Length="0.0104166666666667" Pitch="61" RiffPosition="8.01041666666668" Velocity="44" />
      <note Length="0.0104166666666667" Pitch="61" RiffPosition="8.02083333333334" Velocity="50" />
      <note Length="0.0104166666666667" Pitch="54" RiffPosition="8.03125000000001" Velocity="49" />
      <note Length="0.0104166666666667" Pitch="59" RiffPosition="8.04166666666668" Velocity="54" />
      <note Length="0.0104166666666667" Pitch="57" RiffPosition="8.05208333333334" Velocity="71" />
      <note Length="0.0208333333333333" Pitch="54" RiffPosition="8.06250000000001" Velocity="59" />
      <note Length="0.0104166666666667" Pitch="42" RiffPosition="8.08333333333334" Velocity="59" />
      <note Length="0.0104166666666667" Pitch="42" RiffPosition="8.09375000000001" Velocity="70" />
      <note Length="0.0104166666666667" Pitch="54" RiffPosition="8.10416666666667" Velocity="63" />
      <note Length="0.0104166666666667" Pitch="42" RiffPosition="8.11458333333334" Velocity="62" />
      <note Length="0.03125" Pitch="54" RiffPosition="8.12500000000001" Velocity="55" />
      <note Length="0.03125" Pitch="54" RiffPosition="8.15625000000001" Velocity="46" />
      <note Length="0.03125" Pitch="42" RiffPosition="8.18750000000001" Velocity="55" />
      <note Length="0.015625" Pitch="54" RiffPosition="8.21875000000001" Velocity="75" />
      <note Length="0.015625" Pitch="59" RiffPosition="8.23437500000001" Velocity="62" />
      <note Length="0.03125" Pitch="54" RiffPosition="8.25000000000001" Velocity="63" />
      <note Length="0.03125" Pitch="54" RiffPosition="8.28125000000001" Velocity="58" />
      <note Length="0.0078125" Pitch="56" RiffPosition="8.31250000000001" Velocity="47" />
      <note Length="0.0078125" Pitch="54" RiffPosition="8.32031250000001" Velocity="49" />
      <note Length="0.015625" Pitch="54" RiffPosition="8.32812500000001" Velocity="46" />
      <note Length="0.015625" Pitch="42" RiffPosition="8.34375000000001" Velocity="62" />
      <note Length="0.015625" Pitch="42" RiffPosition="8.35937500000001" Velocity="66" />
      <note Length="0.0078125" Pitch="42" RiffPosition="8.37500000000001" Velocity="62" />
      <note Length="0.0078125" Pitch="50" RiffPosition="8.38281250000001" Velocity="57" />
      <note Length="0.0078125" Pitch="49" RiffPosition="8.39062500000001" Velocity="57" />
      <note Length="0.0078125" Pitch="49" RiffPosition="8.39843750000001" Velocity="57" />
      <note Length="0.0104166666666667" Pitch="47" RiffPosition="8.40625000000001" Velocity="51" />
      <note Length="0.0104166666666667" Pitch="44" RiffPosition="8.41666666666667" Velocity="51" />
      <note Length="0.0104166666666667" Pitch="45" RiffPosition="8.42708333333334" Velocity="41" />
      <note Length="0.00390625" Pitch="44" RiffPosition="8.4375" Velocity="38" />
      <note Length="0.01171875" Pitch="44" RiffPosition="8.44140625" Velocity="37" />
      <note Length="0.01171875" Pitch="44" RiffPosition="8.453125" Velocity="41" />
      <note Length="0.00390625" Pitch="45" RiffPosition="8.46484375" Velocity="44" />
      <note Length="0.0078125" Pitch="45" RiffPosition="8.46875" Velocity="62" />
      <note Length="0.0078125" Pitch="49" RiffPosition="8.4765625" Velocity="60" />
      <note Length="0.015625" Pitch="50" RiffPosition="8.484375" Velocity="80" />
      <note Length="0.03125" Pitch="42" RiffPosition="8.5" Velocity="75" />
      <note Length="0.03125" Pitch="57" RiffPosition="8.53125" Velocity="75" />
      <note Length="0.03125" Pitch="54" RiffPosition="8.5625" Velocity="69" />
      <note Length="0.03125" Pitch="42" RiffPosition="8.59375" Velocity="36" />
      <note Length="0.03125" Pitch="56" RiffPosition="8.625" Velocity="45" />
      <note Length="0.03125" Pitch="54" RiffPosition="8.65625" Velocity="61" />
      <note Length="0.03125" Pitch="42" RiffPosition="8.6875" Velocity="49" />
      <note Length="0.03125" Pitch="42" RiffPosition="8.71875" Velocity="39" />
      <note Length="0.015625" Pitch="57" RiffPosition="8.75" Velocity="53" />
      <note Length="0.046875" Pitch="59" RiffPosition="8.765625" Velocity="46" />
      <note Length="0.015625" Pitch="56" RiffPosition="8.8125" Velocity="63" />
      <note Length="0.046875" Pitch="54" RiffPosition="8.828125" Velocity="56" />
      <note Length="0.015625" Pitch="57" RiffPosition="8.875" Velocity="65" />
      <note Length="0.015625" Pitch="57" RiffPosition="8.890625" Velocity="62" />
      <note Length="0.015625" Pitch="56" RiffPosition="8.90625" Velocity="60" />
      <note Length="0.0078125" Pitch="54" RiffPosition="8.921875" Velocity="59" />
      <note Length="0.0078125" Pitch="54" RiffPosition="8.9296875" Velocity="43" />
      <note Length="0.015625" Pitch="42" RiffPosition="8.9375" Velocity="46" />
      <note Length="0.0078125" Pitch="42" RiffPosition="8.953125" Velocity="46" />
      <note Length="0.0078125" Pitch="42" RiffPosition="8.9609375" Velocity="43" />
      <note Length="0.0078125" Pitch="42" RiffPosition="8.96875" Velocity="43" />
      <note Length="0.0078125" Pitch="56" RiffPosition="8.9765625" Velocity="40" />
      <note Length="0.0078125" Pitch="56" RiffPosition="8.984375" Velocity="59" />
      <note Length="0.0078125" Pitch="56" RiffPosition="8.9921875" Velocity="57" />
      <note Length="0.0104166666666667" Pitch="57" RiffPosition="9" Velocity="60" />
      <note Length="0.0104166666666667" Pitch="57" RiffPosition="9.01041666666667" Velocity="58" />
      <note Length="0.0104166666666667" Pitch="57" RiffPosition="9.02083333333334" Velocity="61" />
      <note Length="0.0104166666666667" Pitch="57" RiffPosition="9.03125" Velocity="60" />
      <note Length="0.0104166666666667" Pitch="54" RiffPosition="9.04166666666667" Velocity="64" />
      <note Length="0.0104166666666667" Pitch="42" RiffPosition="9.05208333333333" Velocity="45" />
      <note Length="0.0208333333333333" Pitch="50" RiffPosition="9.0625" Velocity="67" />
      <note Length="0.0104166666666667" Pitch="49" RiffPosition="9.08333333333333" Velocity="73" />
      <note Length="0.0104166666666667" Pitch="47" RiffPosition="9.09375" Velocity="51" />
      <note Length="0.0104166666666667" Pitch="49" RiffPosition="9.10416666666667" Velocity="55" />
      <note Length="0.0104166666666667" Pitch="47" RiffPosition="9.11458333333333" Velocity="52" />
      <note Length="0.03125" Pitch="49" RiffPosition="9.125" Velocity="56" />
      <note Length="0.03125" Pitch="47" RiffPosition="9.15625" Velocity="54" />
      <note Length="0.03125" Pitch="47" RiffPosition="9.1875" Velocity="74" />
      <note Length="0.015625" Pitch="42" RiffPosition="9.21875" Velocity="90" />
      <note Length="0.015625" Pitch="54" RiffPosition="9.234375" Velocity="65" />
      <note Length="0.03125" Pitch="57" RiffPosition="9.25" Velocity="61" />
      <note Length="0.03125" Pitch="54" RiffPosition="9.28125" Velocity="51" />
      <note Length="0.0078125" Pitch="56" RiffPosition="9.3125" Velocity="70" />
      <note Length="0.0078125" Pitch="56" RiffPosition="9.3203125" Velocity="70" />
      <note Length="0.015625" Pitch="54" RiffPosition="9.328125" Velocity="75" />
      <note Length="0.015625" Pitch="42" RiffPosition="9.34375" Velocity="97" />
      <note Length="0.015625" Pitch="54" RiffPosition="9.359375" Velocity="100" />
      <note Length="0.0078125" Pitch="54" RiffPosition="9.375" Velocity="107" />
      <note Length="0.0078125" Pitch="54" RiffPosition="9.3828125" Velocity="105" />
      <note Length="0.0078125" Pitch="54" RiffPosition="9.390625" Velocity="108" />
      <note Length="0.0078125" Pitch="42" RiffPosition="9.3984375" Velocity="104" />
      <note Length="0.0104166666666667" Pitch="42" RiffPosition="9.40625" Velocity="107" />
      <note Length="0.0104166666666667" Pitch="50" RiffPosition="9.41666666666666" Velocity="103" />
      <note Length="0.0104166666666667" Pitch="42" RiffPosition="9.42708333333333" Velocity="84" />
      <note Length="0.00390625" Pitch="50" RiffPosition="9.4375" Velocity="77" />
      <note Length="0.01171875" Pitch="50" RiffPosition="9.44140625" Velocity="77" />
      <note Length="0.01171875" Pitch="42" RiffPosition="9.453125" Velocity="75" />
      <note Length="0.00390625" Pitch="42" RiffPosition="9.46484375" Velocity="68" />
      <note Length="0.0078125" Pitch="42" RiffPosition="9.46875" Velocity="49" />
      <note Length="0.0078125" Pitch="54" RiffPosition="9.4765625" Velocity="42" />
      <note Length="0.015625" Pitch="56" RiffPosition="9.484375" Velocity="45" />
      <note Length="0.03125" Pitch="59" RiffPosition="9.5" Velocity="52" />
      <note Length="0.03125" Pitch="54" RiffPosition="9.53125" Velocity="56" />
      <note Length="0.03125" Pitch="57" RiffPosition="9.5625" Velocity="60" />
      <note Length="0.03125" Pitch="56" RiffPosition="9.59375" Velocity="38" />
      <note Length="0.03125" Pitch="57" RiffPosition="9.625" Velocity="39" />
      <note Length="0.03125" Pitch="42" RiffPosition="9.65625" Velocity="40" />
      <note Length="0.03125" Pitch="49" RiffPosition="9.6875" Velocity="56" />
      <note Length="0.03125" Pitch="49" RiffPosition="9.71875" Velocity="82" />
      <note Length="0.015625" Pitch="42" RiffPosition="9.75" Velocity="72" />
      <note Length="0.046875" Pitch="42" RiffPosition="9.765625" Velocity="74" />
      <note Length="0.015625" Pitch="49" RiffPosition="9.8125" Velocity="40" />
      <note Length="0.046875" Pitch="49" RiffPosition="9.828125" Velocity="42" />
      <note Length="0.015625" Pitch="42" RiffPosition="9.875" Velocity="47" />
      <note Length="0.015625" Pitch="42" RiffPosition="9.890625" Velocity="55" />
      <note Length="0.015625" Pitch="42" RiffPosition="9.90625" Velocity="59" />
      <note Length="0.0078125" Pitch="42" RiffPosition="9.921875" Velocity="63" />
      <note Length="0.0078125" Pitch="42" RiffPosition="9.9296875" Velocity="50" />
      <note Length="0.015625" Pitch="42" RiffPosition="9.9375" Velocity="49" />
      <note Length="0.0078125" Pitch="42" RiffPosition="9.953125" Velocity="61" />
      <note Length="0.0078125" Pitch="42" RiffPosition="9.9609375" Velocity="60" />
      <note Length="0.0078125" Pitch="42" RiffPosition="9.96875" Velocity="47" />
      <note Length="0.0078125" Pitch="56" RiffPosition="9.9765625" Velocity="47" />
      <note Length="0.0078125" Pitch="56" RiffPosition="9.984375" Velocity="36" />
      <note Length="0.0078125" Pitch="57" RiffPosition="9.9921875" Velocity="41" />
      <note Length="0.0104166666666667" Pitch="59" RiffPosition="10" Velocity="40" />
      <note Length="0.0104166666666667" Pitch="59" RiffPosition="10.0104166666667" Velocity="47" />
      <note Length="0.0104166666666667" Pitch="61" RiffPosition="10.0208333333333" Velocity="47" />
      <note Length="0.0104166666666667" Pitch="61" RiffPosition="10.03125" Velocity="52" />
      <note Length="0.0104166666666667" Pitch="59" RiffPosition="10.0416666666667" Velocity="51" />
      <note Length="0.0104166666666667" Pitch="57" RiffPosition="10.0520833333333" Velocity="74" />
      <note Length="0.0208333333333333" Pitch="54" RiffPosition="10.0625" Velocity="56" />
      <note Length="0.0104166666666667" Pitch="42" RiffPosition="10.0833333333333" Velocity="56" />
      <note Length="0.0104166666666667" Pitch="42" RiffPosition="10.09375" Velocity="68" />
      <note Length="0.0104166666666667" Pitch="54" RiffPosition="10.1041666666667" Velocity="67" />
      <note Length="0.0104166666666667" Pitch="42" RiffPosition="10.1145833333333" Velocity="59" />
      <note Length="0.03125" Pitch="54" RiffPosition="10.125" Velocity="58" />
      <note Length="0.03125" Pitch="54" RiffPosition="10.15625" Velocity="43" />
      <note Length="0.03125" Pitch="42" RiffPosition="10.1875" Velocity="52" />
      <note Length="0.015625" Pitch="54" RiffPosition="10.21875" Velocity="78" />
      <note Length="0.015625" Pitch="59" RiffPosition="10.234375" Velocity="64" />
      <note Length="0.03125" Pitch="54" RiffPosition="10.25" Velocity="60" />
      <note Length="0.03125" Pitch="54" RiffPosition="10.28125" Velocity="61" />
      <note Length="0.0078125" Pitch="56" RiffPosition="10.3125" Velocity="44" />
      <note Length="0.0078125" Pitch="54" RiffPosition="10.3203125" Velocity="46" />
      <note Length="0.015625" Pitch="54" RiffPosition="10.328125" Velocity="49" />
      <note Length="0.015625" Pitch="42" RiffPosition="10.34375" Velocity="66" />
      <note Length="0.015625" Pitch="42" RiffPosition="10.359375" Velocity="63" />
      <note Length="0.0078125" Pitch="42" RiffPosition="10.375" Velocity="59" />
      <note Length="0.0078125" Pitch="50" RiffPosition="10.3828125" Velocity="60" />
      <note Length="0.0078125" Pitch="50" RiffPosition="10.390625" Velocity="60" />
      <note Length="0.0078125" Pitch="49" RiffPosition="10.3984375" Velocity="54" />
      <note Length="0.0104166666666667" Pitch="47" RiffPosition="10.40625" Velocity="54" />
      <note Length="0.0104166666666667" Pitch="44" RiffPosition="10.4166666666667" Velocity="48" />
      <note Length="0.0104166666666667" Pitch="45" RiffPosition="10.4270833333333" Velocity="38" />
      <note Length="0.00390625" Pitch="44" RiffPosition="10.4375" Velocity="41" />
      <note Length="0.01171875" Pitch="44" RiffPosition="10.44140625" Velocity="40" />
      <note Length="0.01171875" Pitch="44" RiffPosition="10.453125" Velocity="44" />
      <note Length="0.00390625" Pitch="45" RiffPosition="10.46484375" Velocity="41" />
      <note Length="0.0078125" Pitch="47" RiffPosition="10.46875" Velocity="58" />
      <note Length="0.0078125" Pitch="49" RiffPosition="10.4765625" Velocity="63" />
      <note Length="0.015625" Pitch="50" RiffPosition="10.484375" Velocity="77" />
      <note Length="0.03125" Pitch="42" RiffPosition="10.5" Velocity="78" />
      <note Length="0.03125" Pitch="57" RiffPosition="10.53125" Velocity="78" />
      <note Length="0.03125" Pitch="54" RiffPosition="10.5625" Velocity="65" />
      <note Length="0.03125" Pitch="42" RiffPosition="10.59375" Velocity="38" />
      <note Length="0.03125" Pitch="56" RiffPosition="10.625" Velocity="48" />
      <note Length="0.03125" Pitch="54" RiffPosition="10.65625" Velocity="58" />
      <note Length="0.03125" Pitch="42" RiffPosition="10.6875" Velocity="52" />
      <note Length="0.03125" Pitch="42" RiffPosition="10.71875" Velocity="36" />
      <note Length="0.015625" Pitch="57" RiffPosition="10.75" Velocity="50" />
      <note Length="0.046875" Pitch="59" RiffPosition="10.765625" Velocity="49" />
      <note Length="0.015625" Pitch="56" RiffPosition="10.8125" Velocity="60" />
      <note Length="0.046875" Pitch="54" RiffPosition="10.828125" Velocity="59" />
      <note Length="0.015625" Pitch="57" RiffPosition="10.875" Velocity="62" />
      <note Length="0.015625" Pitch="57" RiffPosition="10.890625" Velocity="59" />
      <note Length="0.015625" Pitch="56" RiffPosition="10.90625" Velocity="63" />
      <note Length="0.0078125" Pitch="54" RiffPosition="10.921875" Velocity="62" />
      <note Length="0.0078125" Pitch="54" RiffPosition="10.9296875" Velocity="40" />
      <note Length="0.015625" Pitch="42" RiffPosition="10.9375" Velocity="43" />
      <note Length="0.0078125" Pitch="42" RiffPosition="10.953125" Velocity="43" />
      <note Length="0.0078125" Pitch="42" RiffPosition="10.9609375" Velocity="46" />
      <note Length="0.0078125" Pitch="42" RiffPosition="10.96875" Velocity="46" />
      <note Length="0.0078125" Pitch="56" RiffPosition="10.9765625" Velocity="43" />
      <note Length="0.0078125" Pitch="56" RiffPosition="10.984375" Velocity="56" />
      <note Length="0.0078125" Pitch="56" RiffPosition="10.9921875" Velocity="60" />
      <note Length="0.0104166666666667" Pitch="57" RiffPosition="11" Velocity="57" />
      <note Length="0.0104166666666667" Pitch="57" RiffPosition="11.0104166666667" Velocity="0" />
      <note Length="0.0104166666666667" Pitch="57" RiffPosition="11.0208333333333" Velocity="0" />
      <note Length="0.0104166666666667" Pitch="57" RiffPosition="11.03125" Velocity="0" />
      <note Length="0.0104166666666667" Pitch="54" RiffPosition="11.0416666666667" Velocity="0" />
      <note Length="0.0104166666666667" Pitch="42" RiffPosition="11.0520833333333" Velocity="0" />
      <note Length="0.0208333333333333" Pitch="50" RiffPosition="11.0625" Velocity="0" />
      <note Length="0.0104166666666667" Pitch="49" RiffPosition="11.0833333333333" Velocity="0" />
      <note Length="0.0104166666666667" Pitch="47" RiffPosition="11.09375" Velocity="0" />
      <note Length="0.0104166666666667" Pitch="49" RiffPosition="11.1041666666667" Velocity="0" />
      <note Length="0.0104166666666667" Pitch="47" RiffPosition="11.1145833333333" Velocity="0" />
      <note Length="0.03125" Pitch="49" RiffPosition="11.125" Velocity="0" />
      <note Length="0.03125" Pitch="47" RiffPosition="11.15625" Velocity="0" />
      <note Length="0.03125" Pitch="47" RiffPosition="11.1875" Velocity="0" />
      <note Length="0.015625" Pitch="50" RiffPosition="11.21875" Velocity="0" />
      <note Length="0.015625" Pitch="54" RiffPosition="11.234375" Velocity="0" />
      <note Length="0.03125" Pitch="57" RiffPosition="11.25" Velocity="0" />
      <note Length="0.03125" Pitch="54" RiffPosition="11.28125" Velocity="0" />
      <note Length="0.0078125" Pitch="56" RiffPosition="11.3125" Velocity="0" />
      <note Length="0.0078125" Pitch="56" RiffPosition="11.3203125" Velocity="0" />
      <note Length="0.015625" Pitch="54" RiffPosition="11.328125" Velocity="0" />
      <note Length="0.015625" Pitch="54" RiffPosition="11.34375" Velocity="0" />
      <note Length="0.015625" Pitch="54" RiffPosition="11.359375" Velocity="0" />
      <note Length="0.0078125" Pitch="54" RiffPosition="11.375" Velocity="0" />
      <note Length="0.0078125" Pitch="54" RiffPosition="11.3828125" Velocity="0" />
      <note Length="0.0078125" Pitch="42" RiffPosition="11.390625" Velocity="0" />
      <note Length="0.0078125" Pitch="42" RiffPosition="11.3984375" Velocity="0" />
      <note Length="0.0104166666666667" Pitch="42" RiffPosition="11.40625" Velocity="0" />
      <note Length="0.0104166666666667" Pitch="50" RiffPosition="11.4166666666667" Velocity="0" />
      <note Length="0.0104166666666667" Pitch="42" RiffPosition="11.4270833333333" Velocity="0" />
      <note Length="0.00390625" Pitch="50" RiffPosition="11.4375" Velocity="0" />
      <note Length="0.01171875" Pitch="50" RiffPosition="11.44140625" Velocity="0" />
      <note Length="0.01171875" Pitch="42" RiffPosition="11.453125" Velocity="0" />
      <note Length="0.00390625" Pitch="42" RiffPosition="11.46484375" Velocity="0" />
      <note Length="0.0078125" Pitch="42" RiffPosition="11.46875" Velocity="0" />
      <note Length="0.0078125" Pitch="54" RiffPosition="11.4765625" Velocity="0" />
      <note Length="0.015625" Pitch="56" RiffPosition="11.484375" Velocity="0" />
      <note Length="0.03125" Pitch="59" RiffPosition="11.5" Velocity="0" />
      <note Length="0.03125" Pitch="54" RiffPosition="11.53125" Velocity="0" />
      <note Length="0.03125" Pitch="57" RiffPosition="11.5625" Velocity="0" />
      <note Length="0.03125" Pitch="56" RiffPosition="11.59375" Velocity="0" />
      <note Length="0.03125" Pitch="57" RiffPosition="11.625" Velocity="0" />
      <note Length="0.03125" Pitch="42" RiffPosition="11.65625" Velocity="0" />
      <note Length="0.03125" Pitch="49" RiffPosition="11.6875" Velocity="0" />
      <note Length="0.03125" Pitch="49" RiffPosition="11.71875" Velocity="0" />
      <note Length="0.015625" Pitch="42" RiffPosition="11.75" Velocity="0" />
      <note Length="0.046875" Pitch="42" RiffPosition="11.765625" Velocity="0" />
      <note Length="0.015625" Pitch="49" RiffPosition="11.8125" Velocity="0" />
      <note Length="0.046875" Pitch="49" RiffPosition="11.828125" Velocity="0" />
      <note Length="0.015625" Pitch="42" RiffPosition="11.875" Velocity="0" />
      <note Length="0.015625" Pitch="42" RiffPosition="11.890625" Velocity="0" />
      <note Length="0.015625" Pitch="42" RiffPosition="11.90625" Velocity="0" />
      <note Length="0.0078125" Pitch="42" RiffPosition="11.921875" Velocity="0" />
      <note Length="0.0078125" Pitch="42" RiffPosition="11.9296875" Velocity="0" />
      <note Length="0.015625" Pitch="42" RiffPosition="11.9375" Velocity="0" />
      <note Length="0.0078125" Pitch="42" RiffPosition="11.953125" Velocity="0" />
      <note Length="0.0078125" Pitch="42" RiffPosition="11.9609375" Velocity="0" />
      <note Length="0.0078125" Pitch="42" RiffPosition="11.96875" Velocity="0" />
      <note Length="0.0078125" Pitch="56" RiffPosition="11.9765625" Velocity="0" />
      <note Length="0.0078125" Pitch="57" RiffPosition="11.984375" Velocity="0" />
      <note Length="0.0078125" Pitch="57" RiffPosition="11.9921875" Velocity="0" />
      <note Length="1.77635683940025E-14" Pitch="59" RiffPosition="12" Velocity="0" />
    </riff>
    <riff IsDrum="False" MidiInstrument="29" Tempo="93" Length="12">
      <note Length="0.0833333333333333" Pitch="57" RiffPosition="0" Velocity="0" />
      <note Length="0.0416666666666667" Pitch="42" RiffPosition="0.0833333333333333" Velocity="0" />
      <note Length="0.0416666666666667" Pitch="54" RiffPosition="0.125" Velocity="0" />
      <note Length="0.0416666666666667" Pitch="54" RiffPosition="0.166666666666667" Velocity="0" />
      <note Length="0.0416666666666667" Pitch="42" RiffPosition="0.208333333333333" Velocity="0" />
      <note Length="0.0078125" Pitch="54" RiffPosition="0.25" Velocity="0" />
      <note Length="0.0078125" Pitch="54" RiffPosition="0.2578125" Velocity="0" />
      <note Length="0.015625" Pitch="54" RiffPosition="0.265625" Velocity="0" />
      <note Length="0.09375" Pitch="42" RiffPosition="0.28125" Velocity="0" />
      <note Length="0.0078125" Pitch="42" RiffPosition="0.375" Velocity="0" />
      <note Length="0.0078125" Pitch="56" RiffPosition="0.3828125" Velocity="0" />
      <note Length="0.0234375" Pitch="56" RiffPosition="0.390625" Velocity="0" />
      <note Length="0.0234375" Pitch="42" RiffPosition="0.4140625" Velocity="0" />
      <note Length="0.0234375" Pitch="42" RiffPosition="0.4375" Velocity="0" />
      <note Length="0.0234375" Pitch="42" RiffPosition="0.4609375" Velocity="0" />
      <note Length="0.0078125" Pitch="57" RiffPosition="0.484375" Velocity="0" />
      <note Length="0.0078125" Pitch="54" RiffPosition="0.4921875" Velocity="0" />
      <note Length="0.0208333333333333" Pitch="54" RiffPosition="0.5" Velocity="0" />
      <note Length="0.0208333333333333" Pitch="54" RiffPosition="0.520833333333333" Velocity="0" />
      <note Length="0.0208333333333333" Pitch="59" RiffPosition="0.541666666666667" Velocity="0" />
      <note Length="0.0208333333333333" Pitch="42" RiffPosition="0.5625" Velocity="0" />
      <note Length="0.0208333333333333" Pitch="42" RiffPosition="0.583333333333333" Velocity="0" />
      <note Length="0.0208333333333333" Pitch="54" RiffPosition="0.604166666666667" Velocity="0" />
      <note Length="0.0416666666666667" Pitch="57" RiffPosition="0.625" Velocity="0" />
      <note Length="0.0416666666666667" Pitch="54" RiffPosition="0.666666666666667" Velocity="0" />
      <note Length="0.0416666666666667" Pitch="50" RiffPosition="0.708333333333333" Velocity="0" />
      <note Length="0.0833333333333333" Pitch="57" RiffPosition="0.75" Velocity="0" />
      <note Length="0.0416666666666667" Pitch="50" RiffPosition="0.833333333333333" Velocity="0" />
      <note Length="0.0208333333333333" Pitch="57" RiffPosition="0.875" Velocity="0" />
      <note Length="0.0208333333333333" Pitch="54" RiffPosition="0.895833333333333" Velocity="0" />
      <note Length="0.0208333333333333" Pitch="42" RiffPosition="0.916666666666667" Velocity="0" />
      <note Length="0.0104166666666667" Pitch="44" RiffPosition="0.9375" Velocity="0" />
      <note Length="0.0104166666666667" Pitch="44" RiffPosition="0.947916666666667" Velocity="0" />
      <note Length="0.0104166666666667" Pitch="44" RiffPosition="0.958333333333333" Velocity="0" />
      <note Length="0.0104166666666667" Pitch="44" RiffPosition="0.96875" Velocity="0" />
      <note Length="0.0104166666666667" Pitch="49" RiffPosition="0.979166666666667" Velocity="0" />
      <note Length="0.0104166666666667" Pitch="49" RiffPosition="0.989583333333333" Velocity="0" />
      <note Length="0.0833333333333333" Pitch="42" RiffPosition="1" Velocity="0" />
      <note Length="0.0416666666666667" Pitch="42" RiffPosition="1.08333333333333" Velocity="0" />
      <note Length="0.0416666666666667" Pitch="54" RiffPosition="1.125" Velocity="0" />
      <note Length="0.0416666666666667" Pitch="61" RiffPosition="1.16666666666667" Velocity="0" />
      <note Length="0.0416666666666667" Pitch="54" RiffPosition="1.20833333333333" Velocity="0" />
      <note Length="0.0078125" Pitch="61" RiffPosition="1.25" Velocity="0" />
      <note Length="0.0078125" Pitch="59" RiffPosition="1.2578125" Velocity="0" />
      <note Length="0.015625" Pitch="59" RiffPosition="1.265625" Velocity="0" />
      <note Length="0.09375" Pitch="57" RiffPosition="1.28125" Velocity="0" />
      <note Length="0.0078125" Pitch="56" RiffPosition="1.375" Velocity="0" />
      <note Length="0.0078125" Pitch="56" RiffPosition="1.3828125" Velocity="0" />
      <note Length="0.0234375" Pitch="57" RiffPosition="1.390625" Velocity="0" />
      <note Length="0.0234375" Pitch="42" RiffPosition="1.4140625" Velocity="0" />
      <note Length="0.0234375" Pitch="42" RiffPosition="1.4375" Velocity="0" />
      <note Length="0.0234375" Pitch="42" RiffPosition="1.4609375" Velocity="0" />
      <note Length="0.0078125" Pitch="57" RiffPosition="1.484375" Velocity="0" />
      <note Length="0.0078125" Pitch="57" RiffPosition="1.4921875" Velocity="0" />
      <note Length="0.0208333333333333" Pitch="57" RiffPosition="1.5" Velocity="0" />
      <note Length="0.0208333333333333" Pitch="59" RiffPosition="1.52083333333333" Velocity="0" />
      <note Length="0.0208333333333333" Pitch="54" RiffPosition="1.54166666666667" Velocity="0" />
      <note Length="0.0208333333333333" Pitch="49" RiffPosition="1.5625" Velocity="0" />
      <note Length="0.0208333333333333" Pitch="49" RiffPosition="1.58333333333333" Velocity="0" />
      <note Length="0.0208333333333333" Pitch="50" RiffPosition="1.60416666666667" Velocity="0" />
      <note Length="0.0416666666666667" Pitch="54" RiffPosition="1.625" Velocity="0" />
      <note Length="0.0416666666666667" Pitch="50" RiffPosition="1.66666666666667" Velocity="0" />
      <note Length="0.0416666666666667" Pitch="45" RiffPosition="1.70833333333333" Velocity="0" />
      <note Length="0.0833333333333333" Pitch="57" RiffPosition="1.75" Velocity="0" />
      <note Length="0.0416666666666667" Pitch="54" RiffPosition="1.83333333333333" Velocity="0" />
      <note Length="0.0208333333333333" Pitch="54" RiffPosition="1.875" Velocity="0" />
      <note Length="0.0208333333333333" Pitch="59" RiffPosition="1.89583333333333" Velocity="0" />
      <note Length="0.0208333333333333" Pitch="54" RiffPosition="1.91666666666667" Velocity="0" />
      <note Length="0.0104166666666667" Pitch="49" RiffPosition="1.9375" Velocity="0" />
      <note Length="0.0104166666666667" Pitch="49" RiffPosition="1.94791666666667" Velocity="0" />
      <note Length="0.0104166666666667" Pitch="49" RiffPosition="1.95833333333333" Velocity="0" />
      <note Length="0.0104166666666667" Pitch="49" RiffPosition="1.96875" Velocity="0" />
      <note Length="0.0104166666666667" Pitch="42" RiffPosition="1.97916666666667" Velocity="0" />
      <note Length="0.0104166666666667" Pitch="42" RiffPosition="1.98958333333333" Velocity="0" />
      <note Length="0.0833333333333333" Pitch="57" RiffPosition="2" Velocity="0" />
      <note Length="0.0416666666666667" Pitch="42" RiffPosition="2.08333333333333" Velocity="0" />
      <note Length="0.0416666666666667" Pitch="54" RiffPosition="2.125" Velocity="0" />
      <note Length="0.0416666666666667" Pitch="54" RiffPosition="2.16666666666667" Velocity="0" />
      <note Length="0.0416666666666667" Pitch="42" RiffPosition="2.20833333333333" Velocity="0" />
      <note Length="0.0078125" Pitch="54" RiffPosition="2.25" Velocity="0" />
      <note Length="0.0078125" Pitch="54" RiffPosition="2.2578125" Velocity="0" />
      <note Length="0.015625" Pitch="54" RiffPosition="2.265625" Velocity="0" />
      <note Length="0.09375" Pitch="42" RiffPosition="2.28125" Velocity="0" />
      <note Length="0.0078125" Pitch="42" RiffPosition="2.375" Velocity="0" />
      <note Length="0.0078125" Pitch="57" RiffPosition="2.3828125" Velocity="0" />
      <note Length="0.0234375" Pitch="57" RiffPosition="2.390625" Velocity="0" />
      <note Length="0.0234375" Pitch="42" RiffPosition="2.4140625" Velocity="0" />
      <note Length="0.0234375" Pitch="42" RiffPosition="2.4375" Velocity="0" />
      <note Length="0.0234375" Pitch="42" RiffPosition="2.4609375" Velocity="0" />
      <note Length="0.0078125" Pitch="56" RiffPosition="2.484375" Velocity="0" />
      <note Length="0.0078125" Pitch="54" RiffPosition="2.4921875" Velocity="0" />
      <note Length="0.0208333333333333" Pitch="54" RiffPosition="2.5" Velocity="0" />
      <note Length="0.0208333333333333" Pitch="54" RiffPosition="2.52083333333333" Velocity="0" />
      <note Length="0.0208333333333333" Pitch="61" RiffPosition="2.54166666666667" Velocity="0" />
      <note Length="0.0208333333333333" Pitch="42" RiffPosition="2.5625" Velocity="0" />
      <note Length="0.0208333333333333" Pitch="42" RiffPosition="2.58333333333333" Velocity="0" />
      <note Length="0.0208333333333333" Pitch="54" RiffPosition="2.60416666666667" Velocity="0" />
      <note Length="0.0416666666666667" Pitch="59" RiffPosition="2.625" Velocity="0" />
      <note Length="0.0416666666666667" Pitch="54" RiffPosition="2.66666666666667" Velocity="0" />
      <note Length="0.0416666666666667" Pitch="50" RiffPosition="2.70833333333333" Velocity="0" />
      <note Length="0.0833333333333333" Pitch="57" RiffPosition="2.75" Velocity="0" />
      <note Length="0.0416666666666667" Pitch="49" RiffPosition="2.83333333333333" Velocity="0" />
      <note Length="0.0208333333333333" Pitch="57" RiffPosition="2.875" Velocity="0" />
      <note Length="0.0208333333333333" Pitch="54" RiffPosition="2.89583333333333" Velocity="0" />
      <note Length="0.0208333333333333" Pitch="42" RiffPosition="2.91666666666667" Velocity="0" />
      <note Length="0.0104166666666667" Pitch="44" RiffPosition="2.9375" Velocity="0" />
      <note Length="0.0104166666666667" Pitch="44" RiffPosition="2.94791666666667" Velocity="0" />
      <note Length="0.0104166666666667" Pitch="44" RiffPosition="2.95833333333333" Velocity="0" />
      <note Length="0.0104166666666667" Pitch="44" RiffPosition="2.96875" Velocity="0" />
      <note Length="0.0104166666666667" Pitch="49" RiffPosition="2.97916666666667" Velocity="0" />
      <note Length="0.0104166666666667" Pitch="49" RiffPosition="2.98958333333333" Velocity="0" />
      <note Length="0.0833333333333333" Pitch="42" RiffPosition="3" Velocity="0" />
      <note Length="0.0416666666666667" Pitch="42" RiffPosition="3.08333333333333" Velocity="0" />
      <note Length="0.0416666666666667" Pitch="54" RiffPosition="3.125" Velocity="0" />
      <note Length="0.0416666666666667" Pitch="59" RiffPosition="3.16666666666667" Velocity="0" />
      <note Length="0.0416666666666667" Pitch="54" RiffPosition="3.20833333333333" Velocity="0" />
      <note Length="0.0078125" Pitch="59" RiffPosition="3.25" Velocity="0" />
      <note Length="0.0078125" Pitch="61" RiffPosition="3.2578125" Velocity="0" />
      <note Length="0.015625" Pitch="61" RiffPosition="3.265625" Velocity="0" />
      <note Length="0.09375" Pitch="57" RiffPosition="3.28125" Velocity="0" />
      <note Length="0.0078125" Pitch="56" RiffPosition="3.375" Velocity="0" />
      <note Length="0.0078125" Pitch="57" RiffPosition="3.3828125" Velocity="0" />
      <note Length="0.0234375" Pitch="57" RiffPosition="3.390625" Velocity="0" />
      <note Length="0.0234375" Pitch="42" RiffPosition="3.4140625" Velocity="0" />
      <note Length="0.0234375" Pitch="42" RiffPosition="3.4375" Velocity="0" />
      <note Length="0.0234375" Pitch="42" RiffPosition="3.4609375" Velocity="0" />
      <note Length="0.0078125" Pitch="56" RiffPosition="3.484375" Velocity="0" />
      <note Length="0.0078125" Pitch="57" RiffPosition="3.4921875" Velocity="0" />
      <note Length="0.0208333333333333" Pitch="59" RiffPosition="3.5" Velocity="0" />
      <note Length="0.0208333333333333" Pitch="59" RiffPosition="3.52083333333333" Velocity="0" />
      <note Length="0.0208333333333333" Pitch="54" RiffPosition="3.54166666666667" Velocity="0" />
      <note Length="0.0208333333333333" Pitch="49" RiffPosition="3.5625" Velocity="0" />
      <note Length="0.0208333333333333" Pitch="49" RiffPosition="3.58333333333333" Velocity="0" />
      <note Length="0.0208333333333333" Pitch="50" RiffPosition="3.60416666666667" Velocity="0" />
      <note Length="0.0416666666666667" Pitch="54" RiffPosition="3.625" Velocity="0" />
      <note Length="0.0416666666666667" Pitch="50" RiffPosition="3.66666666666667" Velocity="0" />
      <note Length="0.0416666666666667" Pitch="45" RiffPosition="3.70833333333333" Velocity="0" />
      <note Length="0.0833333333333333" Pitch="57" RiffPosition="3.75" Velocity="0" />
      <note Length="0.0416666666666667" Pitch="54" RiffPosition="3.83333333333333" Velocity="0" />
      <note Length="0.0208333333333333" Pitch="54" RiffPosition="3.875" Velocity="0" />
      <note Length="0.0208333333333333" Pitch="59" RiffPosition="3.89583333333333" Velocity="0" />
      <note Length="0.0208333333333333" Pitch="54" RiffPosition="3.91666666666667" Velocity="0" />
      <note Length="0.0104166666666667" Pitch="49" RiffPosition="3.9375" Velocity="0" />
      <note Length="0.0104166666666667" Pitch="49" RiffPosition="3.94791666666667" Velocity="0" />
      <note Length="0.0104166666666667" Pitch="49" RiffPosition="3.95833333333333" Velocity="0" />
      <note Length="0.0104166666666667" Pitch="49" RiffPosition="3.96875" Velocity="0" />
      <note Length="0.0104166666666667" Pitch="42" RiffPosition="3.97916666666667" Velocity="0" />
      <note Length="0.0104166666666667" Pitch="42" RiffPosition="3.98958333333333" Velocity="0" />
      <note Length="0.0833333333333333" Pitch="57" RiffPosition="4" Velocity="0" />
      <note Length="0.0416666666666667" Pitch="42" RiffPosition="4.08333333333333" Velocity="0" />
      <note Length="0.0416666666666667" Pitch="54" RiffPosition="4.125" Velocity="0" />
      <note Length="0.0416666666666667" Pitch="54" RiffPosition="4.16666666666667" Velocity="0" />
      <note Length="0.0416666666666667" Pitch="42" RiffPosition="4.20833333333333" Velocity="0" />
      <note Length="0.0078125" Pitch="54" RiffPosition="4.25" Velocity="0" />
      <note Length="0.0078125" Pitch="54" RiffPosition="4.2578125" Velocity="0" />
      <note Length="0.015625" Pitch="54" RiffPosition="4.265625" Velocity="0" />
      <note Length="0.09375" Pitch="42" RiffPosition="4.28125" Velocity="0" />
      <note Length="0.0078125" Pitch="42" RiffPosition="4.375" Velocity="0" />
      <note Length="0.0078125" Pitch="57" RiffPosition="4.3828125" Velocity="0" />
      <note Length="0.0234375" Pitch="57" RiffPosition="4.390625" Velocity="0" />
      <note Length="0.0234375" Pitch="42" RiffPosition="4.4140625" Velocity="0" />
      <note Length="0.0234375" Pitch="42" RiffPosition="4.4375" Velocity="0" />
      <note Length="0.0234375" Pitch="42" RiffPosition="4.4609375" Velocity="0" />
      <note Length="0.0078125" Pitch="56" RiffPosition="4.484375" Velocity="0" />
      <note Length="0.0078125" Pitch="54" RiffPosition="4.4921875" Velocity="0" />
      <note Length="0.0208333333333333" Pitch="54" RiffPosition="4.5" Velocity="0" />
      <note Length="0.0208333333333333" Pitch="54" RiffPosition="4.52083333333333" Velocity="0" />
      <note Length="0.0208333333333333" Pitch="59" RiffPosition="4.54166666666667" Velocity="0" />
      <note Length="0.0208333333333333" Pitch="42" RiffPosition="4.5625" Velocity="0" />
      <note Length="0.0208333333333333" Pitch="42" RiffPosition="4.58333333333333" Velocity="0" />
      <note Length="0.0208333333333333" Pitch="54" RiffPosition="4.60416666666667" Velocity="0" />
      <note Length="0.0416666666666667" Pitch="59" RiffPosition="4.625" Velocity="0" />
      <note Length="0.0416666666666667" Pitch="54" RiffPosition="4.66666666666667" Velocity="0" />
      <note Length="0.0416666666666667" Pitch="50" RiffPosition="4.70833333333333" Velocity="0" />
      <note Length="0.0833333333333333" Pitch="57" RiffPosition="4.75" Velocity="0" />
      <note Length="0.0416666666666667" Pitch="49" RiffPosition="4.83333333333333" Velocity="0" />
      <note Length="0.0208333333333333" Pitch="57" RiffPosition="4.875" Velocity="0" />
      <note Length="0.0208333333333333" Pitch="54" RiffPosition="4.89583333333333" Velocity="0" />
      <note Length="0.0208333333333333" Pitch="50" RiffPosition="4.91666666666667" Velocity="0" />
      <note Length="0.0104166666666667" Pitch="44" RiffPosition="4.9375" Velocity="0" />
      <note Length="0.0104166666666667" Pitch="44" RiffPosition="4.94791666666667" Velocity="0" />
      <note Length="0.0104166666666667" Pitch="44" RiffPosition="4.95833333333333" Velocity="0" />
      <note Length="0.0104166666666667" Pitch="44" RiffPosition="4.96875" Velocity="0" />
      <note Length="0.0104166666666667" Pitch="49" RiffPosition="4.97916666666667" Velocity="0" />
      <note Length="0.0104166666666667" Pitch="49" RiffPosition="4.98958333333333" Velocity="0" />
      <note Length="0.0833333333333333" Pitch="42" RiffPosition="5" Velocity="46" />
      <note Length="0.0416666666666667" Pitch="42" RiffPosition="5.08333333333333" Velocity="61" />
      <note Length="0.0416666666666667" Pitch="54" RiffPosition="5.125" Velocity="39" />
      <note Length="0.0416666666666667" Pitch="61" RiffPosition="5.16666666666667" Velocity="75" />
      <note Length="0.0416666666666667" Pitch="56" RiffPosition="5.20833333333333" Velocity="85" />
      <note Length="0.0078125" Pitch="61" RiffPosition="5.25" Velocity="88" />
      <note Length="0.0078125" Pitch="61" RiffPosition="5.2578125" Velocity="86" />
      <note Length="0.015625" Pitch="59" RiffPosition="5.265625" Velocity="84" />
      <note Length="0.09375" Pitch="57" RiffPosition="5.28125" Velocity="79" />
      <note Length="0.0078125" Pitch="56" RiffPosition="5.375" Velocity="58" />
      <note Length="0.0078125" Pitch="57" RiffPosition="5.3828125" Velocity="52" />
      <note Length="0.0234375" Pitch="57" RiffPosition="5.390625" Velocity="46" />
      <note Length="0.0234375" Pitch="42" RiffPosition="5.4140625" Velocity="35" />
      <note Length="0.0234375" Pitch="42" RiffPosition="5.4375" Velocity="41" />
      <note Length="0.0234375" Pitch="42" RiffPosition="5.4609375" Velocity="45" />
      <note Length="0.0078125" Pitch="57" RiffPosition="5.484375" Velocity="38" />
      <note Length="0.0078125" Pitch="59" RiffPosition="5.4921875" Velocity="40" />
      <note Length="0.0208333333333333" Pitch="59" RiffPosition="5.5" Velocity="42" />
      <note Length="0.0208333333333333" Pitch="57" RiffPosition="5.52083333333333" Velocity="47" />
      <note Length="0.0208333333333333" Pitch="54" RiffPosition="5.54166666666667" Velocity="63" />
      <note Length="0.0208333333333333" Pitch="49" RiffPosition="5.5625" Velocity="80" />
      <note Length="0.0208333333333333" Pitch="49" RiffPosition="5.58333333333333" Velocity="98" />
      <note Length="0.0208333333333333" Pitch="50" RiffPosition="5.60416666666667" Velocity="103" />
      <note Length="0.0416666666666667" Pitch="42" RiffPosition="5.625" Velocity="76" />
      <note Length="0.0416666666666667" Pitch="50" RiffPosition="5.66666666666667" Velocity="36" />
      <note Length="0.0416666666666667" Pitch="45" RiffPosition="5.70833333333333" Velocity="48" />
      <note Length="0.0833333333333333" Pitch="57" RiffPosition="5.75" Velocity="71" />
      <note Length="0.0416666666666667" Pitch="54" RiffPosition="5.83333333333333" Velocity="37" />
      <note Length="0.0208333333333333" Pitch="54" RiffPosition="5.875" Velocity="51" />
      <note Length="0.0208333333333333" Pitch="59" RiffPosition="5.89583333333333" Velocity="67" />
      <note Length="0.0208333333333333" Pitch="54" RiffPosition="5.91666666666667" Velocity="71" />
      <note Length="0.0104166666666667" Pitch="49" RiffPosition="5.9375" Velocity="67" />
      <note Length="0.0104166666666667" Pitch="49" RiffPosition="5.94791666666667" Velocity="64" />
      <note Length="0.0104166666666667" Pitch="49" RiffPosition="5.95833333333333" Velocity="62" />
      <note Length="0.0104166666666667" Pitch="50" RiffPosition="5.96875" Velocity="60" />
      <note Length="0.0104166666666667" Pitch="42" RiffPosition="5.97916666666667" Velocity="68" />
      <note Length="0.0104166666666667" Pitch="42" RiffPosition="5.98958333333333" Velocity="66" />
      <note Length="0.0833333333333333" Pitch="57" RiffPosition="6" Velocity="63" />
      <note Length="0.0416666666666667" Pitch="42" RiffPosition="6.08333333333333" Velocity="81" />
      <note Length="0.0416666666666667" Pitch="54" RiffPosition="6.125" Velocity="77" />
      <note Length="0.0416666666666667" Pitch="54" RiffPosition="6.16666666666667" Velocity="52" />
      <note Length="0.0416666666666667" Pitch="42" RiffPosition="6.20833333333333" Velocity="57" />
      <note Length="0.0078125" Pitch="54" RiffPosition="6.25" Velocity="36" />
      <note Length="0.0078125" Pitch="54" RiffPosition="6.2578125" Velocity="36" />
      <note Length="0.015625" Pitch="54" RiffPosition="6.265625" Velocity="37" />
      <note Length="0.09375" Pitch="42" RiffPosition="6.28125" Velocity="39" />
      <note Length="0.0078125" Pitch="42" RiffPosition="6.375" Velocity="57" />
      <note Length="0.0078125" Pitch="57" RiffPosition="6.3828125" Velocity="47" />
      <note Length="0.0234375" Pitch="56" RiffPosition="6.390625" Velocity="37" />
      <note Length="0.0234375" Pitch="42" RiffPosition="6.4140625" Velocity="54" />
      <note Length="0.0234375" Pitch="42" RiffPosition="6.4375" Velocity="59" />
      <note Length="0.0234375" Pitch="42" RiffPosition="6.4609375" Velocity="65" />
      <note Length="0.0078125" Pitch="57" RiffPosition="6.484375" Velocity="82" />
      <note Length="0.0078125" Pitch="54" RiffPosition="6.4921875" Velocity="84" />
      <note Length="0.0208333333333333" Pitch="54" RiffPosition="6.5" Velocity="85" />
      <note Length="0.0208333333333333" Pitch="54" RiffPosition="6.52083333333333" Velocity="89" />
      <note Length="0.0208333333333333" Pitch="59" RiffPosition="6.54166666666667" Velocity="80" />
      <note Length="0.0208333333333333" Pitch="42" RiffPosition="6.5625" Velocity="53" />
      <note Length="0.0208333333333333" Pitch="42" RiffPosition="6.58333333333333" Velocity="44" />
      <note Length="0.0208333333333333" Pitch="54" RiffPosition="6.60416666666667" Velocity="58" />
      <note Length="0.0416666666666667" Pitch="59" RiffPosition="6.625" Velocity="40" />
      <note Length="0.0416666666666667" Pitch="54" RiffPosition="6.66666666666667" Velocity="53" />
      <note Length="0.0416666666666667" Pitch="50" RiffPosition="6.70833333333333" Velocity="46" />
      <note Length="0.0833333333333333" Pitch="57" RiffPosition="6.75" Velocity="51" />
      <note Length="0.0416666666666667" Pitch="49" RiffPosition="6.83333333333333" Velocity="95" />
      <note Length="0.0208333333333333" Pitch="57" RiffPosition="6.875" Velocity="92" />
      <note Length="0.0208333333333333" Pitch="54" RiffPosition="6.89583333333333" Velocity="66" />
      <note Length="0.0208333333333333" Pitch="42" RiffPosition="6.91666666666667" Velocity="53" />
      <note Length="0.0104166666666667" Pitch="44" RiffPosition="6.9375" Velocity="48" />
      <note Length="0.0104166666666667" Pitch="44" RiffPosition="6.94791666666667" Velocity="46" />
      <note Length="0.0104166666666667" Pitch="44" RiffPosition="6.95833333333333" Velocity="43" />
      <note Length="0.0104166666666667" Pitch="44" RiffPosition="6.96875" Velocity="41" />
      <note Length="0.0104166666666667" Pitch="49" RiffPosition="6.97916666666667" Velocity="42" />
      <note Length="0.0104166666666667" Pitch="49" RiffPosition="6.98958333333333" Velocity="44" />
      <note Length="0.0833333333333333" Pitch="42" RiffPosition="7" Velocity="46" />
      <note Length="0.0416666666666667" Pitch="42" RiffPosition="7.08333333333333" Velocity="61" />
      <note Length="0.0416666666666667" Pitch="54" RiffPosition="7.125" Velocity="39" />
      <note Length="0.0416666666666667" Pitch="61" RiffPosition="7.16666666666667" Velocity="75" />
      <note Length="0.0416666666666667" Pitch="56" RiffPosition="7.20833333333334" Velocity="85" />
      <note Length="0.0078125" Pitch="61" RiffPosition="7.25" Velocity="88" />
      <note Length="0.0078125" Pitch="59" RiffPosition="7.2578125" Velocity="86" />
      <note Length="0.015625" Pitch="59" RiffPosition="7.265625" Velocity="84" />
      <note Length="0.09375" Pitch="57" RiffPosition="7.28125" Velocity="79" />
      <note Length="0.0078125" Pitch="56" RiffPosition="7.375" Velocity="58" />
      <note Length="0.0078125" Pitch="56" RiffPosition="7.3828125" Velocity="52" />
      <note Length="0.0234375" Pitch="56" RiffPosition="7.390625" Velocity="46" />
      <note Length="0.0234375" Pitch="42" RiffPosition="7.4140625" Velocity="35" />
      <note Length="0.0234375" Pitch="42" RiffPosition="7.4375" Velocity="41" />
      <note Length="0.0234375" Pitch="42" RiffPosition="7.4609375" Velocity="45" />
      <note Length="0.0078125" Pitch="57" RiffPosition="7.484375" Velocity="38" />
      <note Length="0.0078125" Pitch="57" RiffPosition="7.4921875" Velocity="40" />
      <note Length="0.0208333333333333" Pitch="57" RiffPosition="7.5" Velocity="42" />
      <note Length="0.0208333333333333" Pitch="59" RiffPosition="7.52083333333334" Velocity="47" />
      <note Length="0.0208333333333333" Pitch="54" RiffPosition="7.54166666666667" Velocity="63" />
      <note Length="0.0208333333333333" Pitch="49" RiffPosition="7.5625" Velocity="80" />
      <note Length="0.0208333333333333" Pitch="49" RiffPosition="7.58333333333333" Velocity="98" />
      <note Length="0.0208333333333333" Pitch="50" RiffPosition="7.60416666666667" Velocity="103" />
      <note Length="0.0416666666666667" Pitch="42" RiffPosition="7.625" Velocity="76" />
      <note Length="0.0416666666666667" Pitch="49" RiffPosition="7.66666666666667" Velocity="36" />
      <note Length="0.0416666666666667" Pitch="44" RiffPosition="7.70833333333333" Velocity="48" />
      <note Length="0.0833333333333333" Pitch="57" RiffPosition="7.75" Velocity="71" />
      <note Length="0.0416666666666667" Pitch="54" RiffPosition="7.83333333333333" Velocity="37" />
      <note Length="0.0208333333333333" Pitch="54" RiffPosition="7.875" Velocity="51" />
      <note Length="0.0208333333333333" Pitch="59" RiffPosition="7.89583333333333" Velocity="67" />
      <note Length="0.0208333333333333" Pitch="56" RiffPosition="7.91666666666667" Velocity="71" />
      <note Length="0.0104166666666667" Pitch="49" RiffPosition="7.9375" Velocity="67" />
      <note Length="0.0104166666666667" Pitch="49" RiffPosition="7.94791666666667" Velocity="64" />
      <note Length="0.0104166666666667" Pitch="49" RiffPosition="7.95833333333333" Velocity="62" />
      <note Length="0.0104166666666667" Pitch="49" RiffPosition="7.96875" Velocity="60" />
      <note Length="0.0104166666666667" Pitch="42" RiffPosition="7.97916666666667" Velocity="68" />
      <note Length="0.0104166666666667" Pitch="42" RiffPosition="7.98958333333334" Velocity="66" />
      <note Length="0.0833333333333333" Pitch="57" RiffPosition="8" Velocity="63" />
      <note Length="0.0416666666666667" Pitch="42" RiffPosition="8.08333333333334" Velocity="81" />
      <note Length="0.0416666666666667" Pitch="54" RiffPosition="8.125" Velocity="77" />
      <note Length="0.0416666666666667" Pitch="54" RiffPosition="8.16666666666667" Velocity="52" />
      <note Length="0.0416666666666667" Pitch="42" RiffPosition="8.20833333333333" Velocity="57" />
      <note Length="0.0078125" Pitch="54" RiffPosition="8.25" Velocity="36" />
      <note Length="0.0078125" Pitch="54" RiffPosition="8.2578125" Velocity="36" />
      <note Length="0.015625" Pitch="54" RiffPosition="8.265625" Velocity="37" />
      <note Length="0.09375" Pitch="42" RiffPosition="8.28125" Velocity="39" />
      <note Length="0.0078125" Pitch="42" RiffPosition="8.375" Velocity="57" />
      <note Length="0.0078125" Pitch="56" RiffPosition="8.3828125" Velocity="47" />
      <note Length="0.0234375" Pitch="57" RiffPosition="8.390625" Velocity="37" />
      <note Length="0.0234375" Pitch="42" RiffPosition="8.4140625" Velocity="54" />
      <note Length="0.0234375" Pitch="42" RiffPosition="8.4375" Velocity="59" />
      <note Length="0.0234375" Pitch="42" RiffPosition="8.4609375" Velocity="65" />
      <note Length="0.0078125" Pitch="57" RiffPosition="8.484375" Velocity="82" />
      <note Length="0.0078125" Pitch="54" RiffPosition="8.4921875" Velocity="84" />
      <note Length="0.0208333333333333" Pitch="54" RiffPosition="8.5" Velocity="85" />
      <note Length="0.0208333333333333" Pitch="54" RiffPosition="8.52083333333333" Velocity="89" />
      <note Length="0.0208333333333333" Pitch="59" RiffPosition="8.54166666666667" Velocity="80" />
      <note Length="0.0208333333333333" Pitch="42" RiffPosition="8.5625" Velocity="53" />
      <note Length="0.0208333333333333" Pitch="42" RiffPosition="8.58333333333334" Velocity="44" />
      <note Length="0.0208333333333333" Pitch="54" RiffPosition="8.60416666666667" Velocity="58" />
      <note Length="0.0416666666666667" Pitch="57" RiffPosition="8.625" Velocity="40" />
      <note Length="0.0416666666666667" Pitch="54" RiffPosition="8.66666666666667" Velocity="53" />
      <note Length="0.0416666666666667" Pitch="42" RiffPosition="8.70833333333334" Velocity="46" />
      <note Length="0.0833333333333333" Pitch="57" RiffPosition="8.75" Velocity="51" />
      <note Length="0.0416666666666667" Pitch="50" RiffPosition="8.83333333333334" Velocity="95" />
      <note Length="0.0208333333333333" Pitch="57" RiffPosition="8.875" Velocity="92" />
      <note Length="0.0208333333333333" Pitch="54" RiffPosition="8.89583333333334" Velocity="66" />
      <note Length="0.0208333333333333" Pitch="42" RiffPosition="8.91666666666667" Velocity="53" />
      <note Length="0.0104166666666667" Pitch="44" RiffPosition="8.9375" Velocity="48" />
      <note Length="0.0104166666666667" Pitch="44" RiffPosition="8.94791666666667" Velocity="46" />
      <note Length="0.0104166666666667" Pitch="44" RiffPosition="8.95833333333334" Velocity="43" />
      <note Length="0.0104166666666667" Pitch="44" RiffPosition="8.96875" Velocity="41" />
      <note Length="0.0104166666666667" Pitch="49" RiffPosition="8.97916666666667" Velocity="42" />
      <note Length="0.0104166666666667" Pitch="49" RiffPosition="8.98958333333333" Velocity="44" />
      <note Length="0.0833333333333333" Pitch="42" RiffPosition="9" Velocity="46" />
      <note Length="0.0416666666666667" Pitch="42" RiffPosition="9.08333333333333" Velocity="61" />
      <note Length="0.0416666666666667" Pitch="54" RiffPosition="9.125" Velocity="39" />
      <note Length="0.0416666666666667" Pitch="59" RiffPosition="9.16666666666667" Velocity="75" />
      <note Length="0.0416666666666667" Pitch="54" RiffPosition="9.20833333333333" Velocity="85" />
      <note Length="0.0078125" Pitch="59" RiffPosition="9.25" Velocity="88" />
      <note Length="0.0078125" Pitch="59" RiffPosition="9.2578125" Velocity="86" />
      <note Length="0.015625" Pitch="61" RiffPosition="9.265625" Velocity="84" />
      <note Length="0.09375" Pitch="57" RiffPosition="9.28125" Velocity="79" />
      <note Length="0.0078125" Pitch="56" RiffPosition="9.375" Velocity="58" />
      <note Length="0.0078125" Pitch="56" RiffPosition="9.3828125" Velocity="52" />
      <note Length="0.0234375" Pitch="57" RiffPosition="9.390625" Velocity="46" />
      <note Length="0.0234375" Pitch="42" RiffPosition="9.4140625" Velocity="35" />
      <note Length="0.0234375" Pitch="42" RiffPosition="9.4375" Velocity="41" />
      <note Length="0.0234375" Pitch="42" RiffPosition="9.4609375" Velocity="45" />
      <note Length="0.0078125" Pitch="56" RiffPosition="9.484375" Velocity="38" />
      <note Length="0.0078125" Pitch="57" RiffPosition="9.4921875" Velocity="40" />
      <note Length="0.0208333333333333" Pitch="57" RiffPosition="9.5" Velocity="42" />
      <note Length="0.0208333333333333" Pitch="59" RiffPosition="9.52083333333333" Velocity="47" />
      <note Length="0.0208333333333333" Pitch="54" RiffPosition="9.54166666666667" Velocity="63" />
      <note Length="0.0208333333333333" Pitch="49" RiffPosition="9.5625" Velocity="80" />
      <note Length="0.0208333333333333" Pitch="49" RiffPosition="9.58333333333333" Velocity="98" />
      <note Length="0.0208333333333333" Pitch="50" RiffPosition="9.60416666666667" Velocity="103" />
      <note Length="0.0416666666666667" Pitch="54" RiffPosition="9.625" Velocity="76" />
      <note Length="0.0416666666666667" Pitch="50" RiffPosition="9.66666666666667" Velocity="36" />
      <note Length="0.0416666666666667" Pitch="45" RiffPosition="9.70833333333333" Velocity="48" />
      <note Length="0.0833333333333333" Pitch="57" RiffPosition="9.75" Velocity="71" />
      <note Length="0.0416666666666667" Pitch="54" RiffPosition="9.83333333333333" Velocity="37" />
      <note Length="0.0208333333333333" Pitch="54" RiffPosition="9.875" Velocity="51" />
      <note Length="0.0208333333333333" Pitch="59" RiffPosition="9.89583333333333" Velocity="67" />
      <note Length="0.0208333333333333" Pitch="54" RiffPosition="9.91666666666667" Velocity="71" />
      <note Length="0.0104166666666667" Pitch="49" RiffPosition="9.9375" Velocity="67" />
      <note Length="0.0104166666666667" Pitch="49" RiffPosition="9.94791666666667" Velocity="64" />
      <note Length="0.0104166666666667" Pitch="49" RiffPosition="9.95833333333333" Velocity="62" />
      <note Length="0.0104166666666667" Pitch="49" RiffPosition="9.96875" Velocity="60" />
      <note Length="0.0104166666666667" Pitch="42" RiffPosition="9.97916666666667" Velocity="68" />
      <note Length="0.0104166666666667" Pitch="42" RiffPosition="9.98958333333333" Velocity="66" />
      <note Length="0.0833333333333333" Pitch="57" RiffPosition="10" Velocity="63" />
      <note Length="0.0416666666666667" Pitch="42" RiffPosition="10.0833333333333" Velocity="81" />
      <note Length="0.0416666666666667" Pitch="54" RiffPosition="10.125" Velocity="77" />
      <note Length="0.0416666666666667" Pitch="54" RiffPosition="10.1666666666667" Velocity="52" />
      <note Length="0.0416666666666667" Pitch="42" RiffPosition="10.2083333333333" Velocity="57" />
      <note Length="0.0078125" Pitch="54" RiffPosition="10.25" Velocity="36" />
      <note Length="0.0078125" Pitch="54" RiffPosition="10.2578125" Velocity="36" />
      <note Length="0.015625" Pitch="54" RiffPosition="10.265625" Velocity="37" />
      <note Length="0.09375" Pitch="42" RiffPosition="10.28125" Velocity="39" />
      <note Length="0.0078125" Pitch="42" RiffPosition="10.375" Velocity="57" />
      <note Length="0.0078125" Pitch="57" RiffPosition="10.3828125" Velocity="47" />
      <note Length="0.0234375" Pitch="57" RiffPosition="10.390625" Velocity="37" />
      <note Length="0.0234375" Pitch="42" RiffPosition="10.4140625" Velocity="54" />
      <note Length="0.0234375" Pitch="42" RiffPosition="10.4375" Velocity="59" />
      <note Length="0.0234375" Pitch="42" RiffPosition="10.4609375" Velocity="65" />
      <note Length="0.0078125" Pitch="56" RiffPosition="10.484375" Velocity="82" />
      <note Length="0.0078125" Pitch="54" RiffPosition="10.4921875" Velocity="84" />
      <note Length="0.0208333333333333" Pitch="54" RiffPosition="10.5" Velocity="85" />
      <note Length="0.0208333333333333" Pitch="54" RiffPosition="10.5208333333333" Velocity="89" />
      <note Length="0.0208333333333333" Pitch="61" RiffPosition="10.5416666666667" Velocity="80" />
      <note Length="0.0208333333333333" Pitch="42" RiffPosition="10.5625" Velocity="53" />
      <note Length="0.0208333333333333" Pitch="42" RiffPosition="10.5833333333333" Velocity="44" />
      <note Length="0.0208333333333333" Pitch="54" RiffPosition="10.6041666666667" Velocity="58" />
      <note Length="0.0416666666666667" Pitch="59" RiffPosition="10.625" Velocity="40" />
      <note Length="0.0416666666666667" Pitch="54" RiffPosition="10.6666666666667" Velocity="53" />
      <note Length="0.0416666666666667" Pitch="50" RiffPosition="10.7083333333333" Velocity="46" />
      <note Length="0.0833333333333333" Pitch="57" RiffPosition="10.75" Velocity="51" />
      <note Length="0.0416666666666667" Pitch="49" RiffPosition="10.8333333333333" Velocity="95" />
      <note Length="0.0208333333333333" Pitch="57" RiffPosition="10.875" Velocity="92" />
      <note Length="0.0208333333333333" Pitch="54" RiffPosition="10.8958333333333" Velocity="66" />
      <note Length="0.0208333333333333" Pitch="42" RiffPosition="10.9166666666667" Velocity="53" />
      <note Length="0.0104166666666667" Pitch="44" RiffPosition="10.9375" Velocity="48" />
      <note Length="0.0104166666666667" Pitch="44" RiffPosition="10.9479166666667" Velocity="46" />
      <note Length="0.0104166666666667" Pitch="44" RiffPosition="10.9583333333333" Velocity="43" />
      <note Length="0.0104166666666667" Pitch="44" RiffPosition="10.96875" Velocity="41" />
      <note Length="0.0104166666666667" Pitch="49" RiffPosition="10.9791666666667" Velocity="42" />
      <note Length="0.0104166666666667" Pitch="49" RiffPosition="10.9895833333333" Velocity="44" />
      <note Length="0.0833333333333333" Pitch="42" RiffPosition="11" Velocity="46" />
      <note Length="0.0416666666666667" Pitch="42" RiffPosition="11.0833333333333" Velocity="0" />
      <note Length="0.0416666666666667" Pitch="54" RiffPosition="11.125" Velocity="0" />
      <note Length="0.0416666666666667" Pitch="59" RiffPosition="11.1666666666667" Velocity="0" />
      <note Length="0.0416666666666667" Pitch="54" RiffPosition="11.2083333333333" Velocity="0" />
      <note Length="0.0078125" Pitch="59" RiffPosition="11.25" Velocity="0" />
      <note Length="0.0078125" Pitch="61" RiffPosition="11.2578125" Velocity="0" />
      <note Length="0.015625" Pitch="61" RiffPosition="11.265625" Velocity="0" />
      <note Length="0.09375" Pitch="57" RiffPosition="11.28125" Velocity="0" />
      <note Length="0.0078125" Pitch="57" RiffPosition="11.375" Velocity="0" />
      <note Length="0.0078125" Pitch="57" RiffPosition="11.3828125" Velocity="0" />
      <note Length="0.0234375" Pitch="57" RiffPosition="11.390625" Velocity="0" />
      <note Length="0.0234375" Pitch="42" RiffPosition="11.4140625" Velocity="0" />
      <note Length="0.0234375" Pitch="42" RiffPosition="11.4375" Velocity="0" />
      <note Length="0.0234375" Pitch="42" RiffPosition="11.4609375" Velocity="0" />
      <note Length="0.0078125" Pitch="56" RiffPosition="11.484375" Velocity="0" />
      <note Length="0.0078125" Pitch="57" RiffPosition="11.4921875" Velocity="0" />
      <note Length="0.0208333333333333" Pitch="59" RiffPosition="11.5" Velocity="0" />
      <note Length="0.0208333333333333" Pitch="59" RiffPosition="11.5208333333333" Velocity="0" />
      <note Length="0.0208333333333333" Pitch="54" RiffPosition="11.5416666666667" Velocity="0" />
      <note Length="0.0208333333333333" Pitch="49" RiffPosition="11.5625" Velocity="0" />
      <note Length="0.0208333333333333" Pitch="49" RiffPosition="11.5833333333333" Velocity="0" />
      <note Length="0.0208333333333333" Pitch="50" RiffPosition="11.6041666666667" Velocity="0" />
      <note Length="0.0416666666666667" Pitch="42" RiffPosition="11.625" Velocity="0" />
      <note Length="0.0416666666666667" Pitch="50" RiffPosition="11.6666666666667" Velocity="0" />
      <note Length="0.0416666666666667" Pitch="45" RiffPosition="11.7083333333333" Velocity="0" />
      <note Length="0.0833333333333333" Pitch="57" RiffPosition="11.75" Velocity="0" />
      <note Length="0.0416666666666667" Pitch="54" RiffPosition="11.8333333333333" Velocity="0" />
      <note Length="0.0208333333333333" Pitch="54" RiffPosition="11.875" Velocity="0" />
      <note Length="0.0208333333333333" Pitch="59" RiffPosition="11.8958333333333" Velocity="0" />
      <note Length="0.0208333333333333" Pitch="54" RiffPosition="11.9166666666667" Velocity="0" />
      <note Length="0.0104166666666667" Pitch="49" RiffPosition="11.9375" Velocity="0" />
      <note Length="0.0104166666666667" Pitch="49" RiffPosition="11.9479166666667" Velocity="0" />
      <note Length="0.0104166666666667" Pitch="49" RiffPosition="11.9583333333333" Velocity="0" />
      <note Length="0.0104166666666667" Pitch="49" RiffPosition="11.96875" Velocity="0" />
      <note Length="0.0104166666666667" Pitch="42" RiffPosition="11.9791666666667" Velocity="0" />
      <note Length="0.0104166666666667" Pitch="42" RiffPosition="11.9895833333333" Velocity="0" />
      <note Length="5.32907051820075E-15" Pitch="57" RiffPosition="12" Velocity="0" />
    </riff>
    <riff IsDrum="True" MidiInstrument="0" Tempo="82" Length="12">
      <note Length="0.03125" Pitch="39" RiffPosition="0" Velocity="0" />
      <note Length="0.03125" Pitch="39" RiffPosition="0.03125" Velocity="0" />
      <note Length="0.03125" Pitch="39" RiffPosition="0.0625" Velocity="0" />
      <note Length="0.03125" Pitch="39" RiffPosition="0.09375" Velocity="0" />
      <note Length="0.03125" Pitch="39" RiffPosition="0.125" Velocity="0" />
      <note Length="0.03125" Pitch="39" RiffPosition="0.15625" Velocity="0" />
      <note Length="0.03125" Pitch="39" RiffPosition="0.1875" Velocity="0" />
      <note Length="0.03125" Pitch="39" RiffPosition="0.21875" Velocity="0" />
      <note Length="0.03125" Pitch="39" RiffPosition="0.25" Velocity="0" />
      <note Length="0.03125" Pitch="39" RiffPosition="0.28125" Velocity="0" />
      <note Length="0.03125" Pitch="39" RiffPosition="0.3125" Velocity="0" />
      <note Length="0.03125" Pitch="39" RiffPosition="0.34375" Velocity="0" />
      <note Length="0.03125" Pitch="39" RiffPosition="0.375" Velocity="0" />
      <note Length="0.03125" Pitch="39" RiffPosition="0.40625" Velocity="0" />
      <note Length="0.03125" Pitch="39" RiffPosition="0.4375" Velocity="0" />
      <note Length="0.03125" Pitch="39" RiffPosition="0.46875" Velocity="0" />
      <note Length="0.03125" Pitch="39" RiffPosition="0.5" Velocity="0" />
      <note Length="0.03125" Pitch="39" RiffPosition="0.53125" Velocity="0" />
      <note Length="0.03125" Pitch="39" RiffPosition="0.5625" Velocity="0" />
      <note Length="0.03125" Pitch="39" RiffPosition="0.59375" Velocity="0" />
      <note Length="0.03125" Pitch="39" RiffPosition="0.625" Velocity="0" />
      <note Length="0.03125" Pitch="39" RiffPosition="0.65625" Velocity="0" />
      <note Length="0.03125" Pitch="39" RiffPosition="0.6875" Velocity="0" />
      <note Length="0.03125" Pitch="39" RiffPosition="0.71875" Velocity="0" />
      <note Length="0.03125" Pitch="39" RiffPosition="0.75" Velocity="0" />
      <note Length="0.03125" Pitch="39" RiffPosition="0.78125" Velocity="0" />
      <note Length="0.03125" Pitch="39" RiffPosition="0.8125" Velocity="0" />
      <note Length="0.03125" Pitch="39" RiffPosition="0.84375" Velocity="0" />
      <note Length="0.03125" Pitch="39" RiffPosition="0.875" Velocity="0" />
      <note Length="0.03125" Pitch="39" RiffPosition="0.90625" Velocity="0" />
      <note Length="0.03125" Pitch="39" RiffPosition="0.9375" Velocity="0" />
      <note Length="0.03125" Pitch="39" RiffPosition="0.96875" Velocity="0" />
      <note Length="0.03125" Pitch="39" RiffPosition="1" Velocity="0" />
      <note Length="0.03125" Pitch="39" RiffPosition="1.03125" Velocity="0" />
      <note Length="0.03125" Pitch="39" RiffPosition="1.0625" Velocity="0" />
      <note Length="0.03125" Pitch="39" RiffPosition="1.09375" Velocity="0" />
      <note Length="0.03125" Pitch="39" RiffPosition="1.125" Velocity="0" />
      <note Length="0.03125" Pitch="39" RiffPosition="1.15625" Velocity="0" />
      <note Length="0.03125" Pitch="39" RiffPosition="1.1875" Velocity="0" />
      <note Length="0.03125" Pitch="39" RiffPosition="1.21875" Velocity="0" />
      <note Length="0.03125" Pitch="39" RiffPosition="1.25" Velocity="0" />
      <note Length="0.03125" Pitch="39" RiffPosition="1.28125" Velocity="0" />
      <note Length="0.03125" Pitch="39" RiffPosition="1.3125" Velocity="0" />
      <note Length="0.03125" Pitch="39" RiffPosition="1.34375" Velocity="0" />
      <note Length="0.03125" Pitch="39" RiffPosition="1.375" Velocity="0" />
      <note Length="0.03125" Pitch="39" RiffPosition="1.40625" Velocity="0" />
      <note Length="0.03125" Pitch="39" RiffPosition="1.4375" Velocity="0" />
      <note Length="0.03125" Pitch="39" RiffPosition="1.46875" Velocity="0" />
      <note Length="0.03125" Pitch="39" RiffPosition="1.5" Velocity="0" />
      <note Length="0.03125" Pitch="39" RiffPosition="1.53125" Velocity="0" />
      <note Length="0.03125" Pitch="39" RiffPosition="1.5625" Velocity="0" />
      <note Length="0.03125" Pitch="39" RiffPosition="1.59375" Velocity="0" />
      <note Length="0.03125" Pitch="39" RiffPosition="1.625" Velocity="0" />
      <note Length="0.03125" Pitch="39" RiffPosition="1.65625" Velocity="0" />
      <note Length="0.03125" Pitch="39" RiffPosition="1.6875" Velocity="0" />
      <note Length="0.03125" Pitch="39" RiffPosition="1.71875" Velocity="0" />
      <note Length="0.03125" Pitch="39" RiffPosition="1.75" Velocity="0" />
      <note Length="0.03125" Pitch="39" RiffPosition="1.78125" Velocity="0" />
      <note Length="0.03125" Pitch="39" RiffPosition="1.8125" Velocity="0" />
      <note Length="0.03125" Pitch="39" RiffPosition="1.84375" Velocity="0" />
      <note Length="0.03125" Pitch="39" RiffPosition="1.875" Velocity="0" />
      <note Length="0.03125" Pitch="39" RiffPosition="1.90625" Velocity="0" />
      <note Length="0.03125" Pitch="39" RiffPosition="1.9375" Velocity="0" />
      <note Length="0.03125" Pitch="39" RiffPosition="1.96875" Velocity="0" />
      <note Length="0.03125" Pitch="39" RiffPosition="2" Velocity="0" />
      <note Length="0.03125" Pitch="39" RiffPosition="2.03125" Velocity="0" />
      <note Length="0.03125" Pitch="39" RiffPosition="2.0625" Velocity="0" />
      <note Length="0.03125" Pitch="39" RiffPosition="2.09375" Velocity="0" />
      <note Length="0.03125" Pitch="39" RiffPosition="2.125" Velocity="0" />
      <note Length="0.03125" Pitch="39" RiffPosition="2.15625" Velocity="0" />
      <note Length="0.03125" Pitch="39" RiffPosition="2.1875" Velocity="0" />
      <note Length="0.03125" Pitch="39" RiffPosition="2.21875" Velocity="0" />
      <note Length="0.03125" Pitch="39" RiffPosition="2.25" Velocity="0" />
      <note Length="0.03125" Pitch="39" RiffPosition="2.28125" Velocity="0" />
      <note Length="0.03125" Pitch="39" RiffPosition="2.3125" Velocity="0" />
      <note Length="0.03125" Pitch="39" RiffPosition="2.34375" Velocity="0" />
      <note Length="0.03125" Pitch="39" RiffPosition="2.375" Velocity="0" />
      <note Length="0.03125" Pitch="39" RiffPosition="2.40625" Velocity="0" />
      <note Length="0.03125" Pitch="39" RiffPosition="2.4375" Velocity="0" />
      <note Length="0.03125" Pitch="39" RiffPosition="2.46875" Velocity="0" />
      <note Length="0.03125" Pitch="39" RiffPosition="2.5" Velocity="0" />
      <note Length="0.03125" Pitch="39" RiffPosition="2.53125" Velocity="0" />
      <note Length="0.03125" Pitch="39" RiffPosition="2.5625" Velocity="0" />
      <note Length="0.03125" Pitch="39" RiffPosition="2.59375" Velocity="0" />
      <note Length="0.03125" Pitch="39" RiffPosition="2.625" Velocity="0" />
      <note Length="0.03125" Pitch="39" RiffPosition="2.65625" Velocity="0" />
      <note Length="0.03125" Pitch="39" RiffPosition="2.6875" Velocity="0" />
      <note Length="0.03125" Pitch="39" RiffPosition="2.71875" Velocity="0" />
      <note Length="0.03125" Pitch="39" RiffPosition="2.75" Velocity="0" />
      <note Length="0.03125" Pitch="39" RiffPosition="2.78125" Velocity="0" />
      <note Length="0.03125" Pitch="39" RiffPosition="2.8125" Velocity="0" />
      <note Length="0.03125" Pitch="39" RiffPosition="2.84375" Velocity="0" />
      <note Length="0.03125" Pitch="39" RiffPosition="2.875" Velocity="0" />
      <note Length="0.03125" Pitch="39" RiffPosition="2.90625" Velocity="0" />
      <note Length="0.03125" Pitch="39" RiffPosition="2.9375" Velocity="0" />
      <note Length="0.03125" Pitch="39" RiffPosition="2.96875" Velocity="0" />
      <note Length="0.03125" Pitch="39" RiffPosition="3" Velocity="0" />
      <note Length="0.03125" Pitch="39" RiffPosition="3.03125" Velocity="0" />
      <note Length="0.03125" Pitch="39" RiffPosition="3.0625" Velocity="0" />
      <note Length="0.03125" Pitch="39" RiffPosition="3.09375" Velocity="0" />
      <note Length="0.03125" Pitch="39" RiffPosition="3.125" Velocity="0" />
      <note Length="0.03125" Pitch="39" RiffPosition="3.15625" Velocity="0" />
      <note Length="0.03125" Pitch="39" RiffPosition="3.1875" Velocity="0" />
      <note Length="0.03125" Pitch="39" RiffPosition="3.21875" Velocity="0" />
      <note Length="0.03125" Pitch="39" RiffPosition="3.25" Velocity="0" />
      <note Length="0.03125" Pitch="39" RiffPosition="3.28125" Velocity="0" />
      <note Length="0.03125" Pitch="39" RiffPosition="3.3125" Velocity="0" />
      <note Length="0.03125" Pitch="39" RiffPosition="3.34375" Velocity="0" />
      <note Length="0.03125" Pitch="39" RiffPosition="3.375" Velocity="0" />
      <note Length="0.03125" Pitch="39" RiffPosition="3.40625" Velocity="0" />
      <note Length="0.03125" Pitch="39" RiffPosition="3.4375" Velocity="0" />
      <note Length="0.03125" Pitch="39" RiffPosition="3.46875" Velocity="0" />
      <note Length="0.03125" Pitch="39" RiffPosition="3.5" Velocity="0" />
      <note Length="0.03125" Pitch="39" RiffPosition="3.53125" Velocity="0" />
      <note Length="0.03125" Pitch="39" RiffPosition="3.5625" Velocity="0" />
      <note Length="0.03125" Pitch="39" RiffPosition="3.59375" Velocity="0" />
      <note Length="0.03125" Pitch="39" RiffPosition="3.625" Velocity="0" />
      <note Length="0.03125" Pitch="39" RiffPosition="3.65625" Velocity="0" />
      <note Length="0.03125" Pitch="39" RiffPosition="3.6875" Velocity="0" />
      <note Length="0.03125" Pitch="39" RiffPosition="3.71875" Velocity="0" />
      <note Length="0.03125" Pitch="39" RiffPosition="3.75" Velocity="0" />
      <note Length="0.03125" Pitch="39" RiffPosition="3.78125" Velocity="0" />
      <note Length="0.03125" Pitch="39" RiffPosition="3.8125" Velocity="0" />
      <note Length="0.03125" Pitch="39" RiffPosition="3.84375" Velocity="0" />
      <note Length="0.03125" Pitch="39" RiffPosition="3.875" Velocity="0" />
      <note Length="0.03125" Pitch="39" RiffPosition="3.90625" Velocity="0" />
      <note Length="0.03125" Pitch="39" RiffPosition="3.9375" Velocity="0" />
      <note Length="0.03125" Pitch="39" RiffPosition="3.96875" Velocity="0" />
      <note Length="0.03125" Pitch="39" RiffPosition="4" Velocity="0" />
      <note Length="0.03125" Pitch="39" RiffPosition="4.03125" Velocity="0" />
      <note Length="0.03125" Pitch="39" RiffPosition="4.0625" Velocity="0" />
      <note Length="0.03125" Pitch="39" RiffPosition="4.09375" Velocity="0" />
      <note Length="0.03125" Pitch="39" RiffPosition="4.125" Velocity="0" />
      <note Length="0.03125" Pitch="39" RiffPosition="4.15625" Velocity="0" />
      <note Length="0.03125" Pitch="39" RiffPosition="4.1875" Velocity="0" />
      <note Length="0.03125" Pitch="39" RiffPosition="4.21875" Velocity="0" />
      <note Length="0.03125" Pitch="39" RiffPosition="4.25" Velocity="0" />
      <note Length="0.03125" Pitch="39" RiffPosition="4.28125" Velocity="0" />
      <note Length="0.03125" Pitch="39" RiffPosition="4.3125" Velocity="0" />
      <note Length="0.03125" Pitch="39" RiffPosition="4.34375" Velocity="0" />
      <note Length="0.03125" Pitch="39" RiffPosition="4.375" Velocity="0" />
      <note Length="0.03125" Pitch="39" RiffPosition="4.40625" Velocity="0" />
      <note Length="0.03125" Pitch="39" RiffPosition="4.4375" Velocity="0" />
      <note Length="0.03125" Pitch="39" RiffPosition="4.46875" Velocity="0" />
      <note Length="0.03125" Pitch="39" RiffPosition="4.5" Velocity="0" />
      <note Length="0.03125" Pitch="39" RiffPosition="4.53125" Velocity="0" />
      <note Length="0.03125" Pitch="39" RiffPosition="4.5625" Velocity="0" />
      <note Length="0.03125" Pitch="39" RiffPosition="4.59375" Velocity="0" />
      <note Length="0.03125" Pitch="39" RiffPosition="4.625" Velocity="0" />
      <note Length="0.03125" Pitch="39" RiffPosition="4.65625" Velocity="0" />
      <note Length="0.03125" Pitch="39" RiffPosition="4.6875" Velocity="0" />
      <note Length="0.03125" Pitch="39" RiffPosition="4.71875" Velocity="0" />
      <note Length="0.03125" Pitch="39" RiffPosition="4.75" Velocity="0" />
      <note Length="0.03125" Pitch="39" RiffPosition="4.78125" Velocity="0" />
      <note Length="0.03125" Pitch="39" RiffPosition="4.8125" Velocity="0" />
      <note Length="0.03125" Pitch="39" RiffPosition="4.84375" Velocity="0" />
      <note Length="0.03125" Pitch="39" RiffPosition="4.875" Velocity="0" />
      <note Length="0.03125" Pitch="39" RiffPosition="4.90625" Velocity="0" />
      <note Length="0.03125" Pitch="39" RiffPosition="4.9375" Velocity="0" />
      <note Length="0.03125" Pitch="39" RiffPosition="4.96875" Velocity="0" />
      <note Length="0.03125" Pitch="39" RiffPosition="5" Velocity="0" />
      <note Length="0.03125" Pitch="39" RiffPosition="5.03125" Velocity="0" />
      <note Length="0.03125" Pitch="39" RiffPosition="5.0625" Velocity="0" />
      <note Length="0.03125" Pitch="39" RiffPosition="5.09375" Velocity="0" />
      <note Length="0.03125" Pitch="39" RiffPosition="5.125" Velocity="0" />
      <note Length="0.03125" Pitch="39" RiffPosition="5.15625" Velocity="0" />
      <note Length="0.03125" Pitch="39" RiffPosition="5.1875" Velocity="0" />
      <note Length="0.03125" Pitch="39" RiffPosition="5.21875" Velocity="0" />
      <note Length="0.03125" Pitch="39" RiffPosition="5.25" Velocity="0" />
      <note Length="0.03125" Pitch="39" RiffPosition="5.28125" Velocity="0" />
      <note Length="0.03125" Pitch="39" RiffPosition="5.3125" Velocity="0" />
      <note Length="0.03125" Pitch="39" RiffPosition="5.34375" Velocity="0" />
      <note Length="0.03125" Pitch="39" RiffPosition="5.375" Velocity="0" />
      <note Length="0.03125" Pitch="39" RiffPosition="5.40625" Velocity="0" />
      <note Length="0.03125" Pitch="39" RiffPosition="5.4375" Velocity="0" />
      <note Length="0.03125" Pitch="39" RiffPosition="5.46875" Velocity="0" />
      <note Length="0.03125" Pitch="39" RiffPosition="5.5" Velocity="0" />
      <note Length="0.03125" Pitch="39" RiffPosition="5.53125" Velocity="0" />
      <note Length="0.03125" Pitch="39" RiffPosition="5.5625" Velocity="0" />
      <note Length="0.03125" Pitch="39" RiffPosition="5.59375" Velocity="0" />
      <note Length="0.03125" Pitch="39" RiffPosition="5.625" Velocity="0" />
      <note Length="0.03125" Pitch="39" RiffPosition="5.65625" Velocity="0" />
      <note Length="0.03125" Pitch="39" RiffPosition="5.6875" Velocity="0" />
      <note Length="0.03125" Pitch="39" RiffPosition="5.71875" Velocity="0" />
      <note Length="0.03125" Pitch="39" RiffPosition="5.75" Velocity="0" />
      <note Length="0.03125" Pitch="39" RiffPosition="5.78125" Velocity="0" />
      <note Length="0.03125" Pitch="39" RiffPosition="5.8125" Velocity="0" />
      <note Length="0.03125" Pitch="39" RiffPosition="5.84375" Velocity="0" />
      <note Length="0.03125" Pitch="39" RiffPosition="5.875" Velocity="0" />
      <note Length="0.03125" Pitch="39" RiffPosition="5.90625" Velocity="0" />
      <note Length="0.03125" Pitch="39" RiffPosition="5.9375" Velocity="0" />
      <note Length="0.03125" Pitch="39" RiffPosition="5.96875" Velocity="0" />
      <note Length="0.03125" Pitch="39" RiffPosition="6" Velocity="0" />
      <note Length="0.03125" Pitch="39" RiffPosition="6.03125" Velocity="0" />
      <note Length="0.03125" Pitch="39" RiffPosition="6.0625" Velocity="0" />
      <note Length="0.03125" Pitch="39" RiffPosition="6.09375" Velocity="0" />
      <note Length="0.03125" Pitch="39" RiffPosition="6.125" Velocity="0" />
      <note Length="0.03125" Pitch="39" RiffPosition="6.15625" Velocity="0" />
      <note Length="0.03125" Pitch="39" RiffPosition="6.1875" Velocity="0" />
      <note Length="0.03125" Pitch="39" RiffPosition="6.21875" Velocity="0" />
      <note Length="0.03125" Pitch="39" RiffPosition="6.25" Velocity="0" />
      <note Length="0.03125" Pitch="39" RiffPosition="6.28125" Velocity="0" />
      <note Length="0.03125" Pitch="39" RiffPosition="6.3125" Velocity="0" />
      <note Length="0.03125" Pitch="39" RiffPosition="6.34375" Velocity="0" />
      <note Length="0.03125" Pitch="39" RiffPosition="6.375" Velocity="0" />
      <note Length="0.03125" Pitch="39" RiffPosition="6.40625" Velocity="0" />
      <note Length="0.03125" Pitch="39" RiffPosition="6.4375" Velocity="0" />
      <note Length="0.03125" Pitch="39" RiffPosition="6.46875" Velocity="0" />
      <note Length="0.03125" Pitch="39" RiffPosition="6.5" Velocity="0" />
      <note Length="0.03125" Pitch="39" RiffPosition="6.53125" Velocity="0" />
      <note Length="0.03125" Pitch="39" RiffPosition="6.5625" Velocity="0" />
      <note Length="0.03125" Pitch="39" RiffPosition="6.59375" Velocity="0" />
      <note Length="0.03125" Pitch="39" RiffPosition="6.625" Velocity="0" />
      <note Length="0.03125" Pitch="39" RiffPosition="6.65625" Velocity="0" />
      <note Length="0.03125" Pitch="39" RiffPosition="6.6875" Velocity="0" />
      <note Length="0.03125" Pitch="39" RiffPosition="6.71875" Velocity="0" />
      <note Length="0.03125" Pitch="39" RiffPosition="6.75" Velocity="0" />
      <note Length="0.03125" Pitch="39" RiffPosition="6.78125" Velocity="0" />
      <note Length="0.03125" Pitch="39" RiffPosition="6.8125" Velocity="0" />
      <note Length="0.03125" Pitch="39" RiffPosition="6.84375" Velocity="0" />
      <note Length="0.03125" Pitch="39" RiffPosition="6.875" Velocity="0" />
      <note Length="0.03125" Pitch="39" RiffPosition="6.90625" Velocity="0" />
      <note Length="0.03125" Pitch="39" RiffPosition="6.9375" Velocity="0" />
      <note Length="0.03125" Pitch="39" RiffPosition="6.96875" Velocity="0" />
      <note Length="0.03125" Pitch="39" RiffPosition="7" Velocity="0" />
      <note Length="0.03125" Pitch="39" RiffPosition="7.03125" Velocity="0" />
      <note Length="0.03125" Pitch="39" RiffPosition="7.0625" Velocity="0" />
      <note Length="0.03125" Pitch="39" RiffPosition="7.09375" Velocity="0" />
      <note Length="0.03125" Pitch="39" RiffPosition="7.125" Velocity="0" />
      <note Length="0.03125" Pitch="39" RiffPosition="7.15625" Velocity="0" />
      <note Length="0.03125" Pitch="39" RiffPosition="7.1875" Velocity="0" />
      <note Length="0.03125" Pitch="39" RiffPosition="7.21875" Velocity="0" />
      <note Length="0.03125" Pitch="39" RiffPosition="7.25" Velocity="0" />
      <note Length="0.03125" Pitch="39" RiffPosition="7.28125" Velocity="0" />
      <note Length="0.03125" Pitch="39" RiffPosition="7.3125" Velocity="0" />
      <note Length="0.03125" Pitch="39" RiffPosition="7.34375" Velocity="0" />
      <note Length="0.03125" Pitch="39" RiffPosition="7.375" Velocity="0" />
      <note Length="0.03125" Pitch="39" RiffPosition="7.40625" Velocity="0" />
      <note Length="0.03125" Pitch="39" RiffPosition="7.4375" Velocity="0" />
      <note Length="0.03125" Pitch="39" RiffPosition="7.46875" Velocity="0" />
      <note Length="0.03125" Pitch="39" RiffPosition="7.5" Velocity="0" />
      <note Length="0.03125" Pitch="39" RiffPosition="7.53125" Velocity="0" />
      <note Length="0.03125" Pitch="39" RiffPosition="7.5625" Velocity="0" />
      <note Length="0.03125" Pitch="39" RiffPosition="7.59375" Velocity="0" />
      <note Length="0.03125" Pitch="39" RiffPosition="7.625" Velocity="0" />
      <note Length="0.03125" Pitch="39" RiffPosition="7.65625" Velocity="0" />
      <note Length="0.03125" Pitch="39" RiffPosition="7.6875" Velocity="0" />
      <note Length="0.03125" Pitch="39" RiffPosition="7.71875" Velocity="0" />
      <note Length="0.03125" Pitch="39" RiffPosition="7.75" Velocity="0" />
      <note Length="0.03125" Pitch="39" RiffPosition="7.78125" Velocity="0" />
      <note Length="0.03125" Pitch="39" RiffPosition="7.8125" Velocity="0" />
      <note Length="0.03125" Pitch="39" RiffPosition="7.84375" Velocity="0" />
      <note Length="0.03125" Pitch="39" RiffPosition="7.875" Velocity="0" />
      <note Length="0.03125" Pitch="39" RiffPosition="7.90625" Velocity="0" />
      <note Length="0.03125" Pitch="39" RiffPosition="7.9375" Velocity="0" />
      <note Length="0.03125" Pitch="39" RiffPosition="7.96875" Velocity="0" />
      <note Length="0.03125" Pitch="39" RiffPosition="8" Velocity="0" />
      <note Length="0.03125" Pitch="39" RiffPosition="8.03125" Velocity="0" />
      <note Length="0.03125" Pitch="39" RiffPosition="8.0625" Velocity="0" />
      <note Length="0.03125" Pitch="39" RiffPosition="8.09375" Velocity="0" />
      <note Length="0.03125" Pitch="39" RiffPosition="8.125" Velocity="0" />
      <note Length="0.03125" Pitch="39" RiffPosition="8.15625" Velocity="0" />
      <note Length="0.03125" Pitch="39" RiffPosition="8.1875" Velocity="0" />
      <note Length="0.03125" Pitch="39" RiffPosition="8.21875" Velocity="0" />
      <note Length="0.03125" Pitch="39" RiffPosition="8.25" Velocity="0" />
      <note Length="0.03125" Pitch="39" RiffPosition="8.28125" Velocity="0" />
      <note Length="0.03125" Pitch="39" RiffPosition="8.3125" Velocity="0" />
      <note Length="0.03125" Pitch="39" RiffPosition="8.34375" Velocity="0" />
      <note Length="0.03125" Pitch="39" RiffPosition="8.375" Velocity="0" />
      <note Length="0.03125" Pitch="39" RiffPosition="8.40625" Velocity="0" />
      <note Length="0.03125" Pitch="39" RiffPosition="8.4375" Velocity="0" />
      <note Length="0.03125" Pitch="39" RiffPosition="8.46875" Velocity="0" />
      <note Length="0.03125" Pitch="39" RiffPosition="8.5" Velocity="0" />
      <note Length="0.03125" Pitch="39" RiffPosition="8.53125" Velocity="0" />
      <note Length="0.03125" Pitch="39" RiffPosition="8.5625" Velocity="0" />
      <note Length="0.03125" Pitch="39" RiffPosition="8.59375" Velocity="0" />
      <note Length="0.03125" Pitch="39" RiffPosition="8.625" Velocity="0" />
      <note Length="0.03125" Pitch="39" RiffPosition="8.65625" Velocity="0" />
      <note Length="0.03125" Pitch="39" RiffPosition="8.6875" Velocity="0" />
      <note Length="0.03125" Pitch="39" RiffPosition="8.71875" Velocity="0" />
      <note Length="0.03125" Pitch="39" RiffPosition="8.75" Velocity="0" />
      <note Length="0.03125" Pitch="39" RiffPosition="8.78125" Velocity="0" />
      <note Length="0.03125" Pitch="39" RiffPosition="8.8125" Velocity="0" />
      <note Length="0.03125" Pitch="39" RiffPosition="8.84375" Velocity="0" />
      <note Length="0.03125" Pitch="39" RiffPosition="8.875" Velocity="0" />
      <note Length="0.03125" Pitch="39" RiffPosition="8.90625" Velocity="0" />
      <note Length="0.03125" Pitch="39" RiffPosition="8.9375" Velocity="0" />
      <note Length="0.03125" Pitch="39" RiffPosition="8.96875" Velocity="0" />
      <note Length="0.03125" Pitch="39" RiffPosition="9" Velocity="0" />
      <note Length="0.03125" Pitch="39" RiffPosition="9.03125" Velocity="105" />
      <note Length="0.03125" Pitch="39" RiffPosition="9.0625" Velocity="0" />
      <note Length="0.03125" Pitch="39" RiffPosition="9.09375" Velocity="105" />
      <note Length="0.03125" Pitch="39" RiffPosition="9.125" Velocity="0" />
      <note Length="0.03125" Pitch="39" RiffPosition="9.15625" Velocity="105" />
      <note Length="0.03125" Pitch="39" RiffPosition="9.1875" Velocity="0" />
      <note Length="0.03125" Pitch="39" RiffPosition="9.21875" Velocity="105" />
      <note Length="0.03125" Pitch="39" RiffPosition="9.25" Velocity="0" />
      <note Length="0.03125" Pitch="39" RiffPosition="9.28125" Velocity="105" />
      <note Length="0.03125" Pitch="39" RiffPosition="9.3125" Velocity="0" />
      <note Length="0.03125" Pitch="39" RiffPosition="9.34375" Velocity="105" />
      <note Length="0.03125" Pitch="39" RiffPosition="9.375" Velocity="0" />
      <note Length="0.03125" Pitch="39" RiffPosition="9.40625" Velocity="105" />
      <note Length="0.03125" Pitch="39" RiffPosition="9.4375" Velocity="0" />
      <note Length="0.03125" Pitch="39" RiffPosition="9.46875" Velocity="105" />
      <note Length="0.03125" Pitch="39" RiffPosition="9.5" Velocity="0" />
      <note Length="0.03125" Pitch="39" RiffPosition="9.53125" Velocity="105" />
      <note Length="0.03125" Pitch="39" RiffPosition="9.5625" Velocity="0" />
      <note Length="0.03125" Pitch="39" RiffPosition="9.59375" Velocity="105" />
      <note Length="0.03125" Pitch="39" RiffPosition="9.625" Velocity="0" />
      <note Length="0.03125" Pitch="39" RiffPosition="9.65625" Velocity="105" />
      <note Length="0.03125" Pitch="39" RiffPosition="9.6875" Velocity="0" />
      <note Length="0.03125" Pitch="39" RiffPosition="9.71875" Velocity="105" />
      <note Length="0.03125" Pitch="39" RiffPosition="9.75" Velocity="0" />
      <note Length="0.03125" Pitch="39" RiffPosition="9.78125" Velocity="105" />
      <note Length="0.03125" Pitch="39" RiffPosition="9.8125" Velocity="0" />
      <note Length="0.03125" Pitch="39" RiffPosition="9.84375" Velocity="105" />
      <note Length="0.03125" Pitch="39" RiffPosition="9.875" Velocity="0" />
      <note Length="0.03125" Pitch="39" RiffPosition="9.90625" Velocity="105" />
      <note Length="0.03125" Pitch="39" RiffPosition="9.9375" Velocity="0" />
      <note Length="0.03125" Pitch="39" RiffPosition="9.96875" Velocity="105" />
      <note Length="0.03125" Pitch="39" RiffPosition="10" Velocity="0" />
      <note Length="0.03125" Pitch="39" RiffPosition="10.03125" Velocity="105" />
      <note Length="0.03125" Pitch="39" RiffPosition="10.0625" Velocity="0" />
      <note Length="0.03125" Pitch="39" RiffPosition="10.09375" Velocity="105" />
      <note Length="0.03125" Pitch="39" RiffPosition="10.125" Velocity="0" />
      <note Length="0.03125" Pitch="39" RiffPosition="10.15625" Velocity="105" />
      <note Length="0.03125" Pitch="39" RiffPosition="10.1875" Velocity="0" />
      <note Length="0.03125" Pitch="39" RiffPosition="10.21875" Velocity="105" />
      <note Length="0.03125" Pitch="39" RiffPosition="10.25" Velocity="0" />
      <note Length="0.03125" Pitch="39" RiffPosition="10.28125" Velocity="105" />
      <note Length="0.03125" Pitch="39" RiffPosition="10.3125" Velocity="0" />
      <note Length="0.03125" Pitch="39" RiffPosition="10.34375" Velocity="105" />
      <note Length="0.03125" Pitch="39" RiffPosition="10.375" Velocity="0" />
      <note Length="0.03125" Pitch="39" RiffPosition="10.40625" Velocity="105" />
      <note Length="0.03125" Pitch="39" RiffPosition="10.4375" Velocity="0" />
      <note Length="0.03125" Pitch="39" RiffPosition="10.46875" Velocity="105" />
      <note Length="0.03125" Pitch="39" RiffPosition="10.5" Velocity="0" />
      <note Length="0.03125" Pitch="39" RiffPosition="10.53125" Velocity="105" />
      <note Length="0.03125" Pitch="39" RiffPosition="10.5625" Velocity="0" />
      <note Length="0.03125" Pitch="39" RiffPosition="10.59375" Velocity="105" />
      <note Length="0.03125" Pitch="39" RiffPosition="10.625" Velocity="0" />
      <note Length="0.03125" Pitch="39" RiffPosition="10.65625" Velocity="105" />
      <note Length="0.03125" Pitch="39" RiffPosition="10.6875" Velocity="0" />
      <note Length="0.03125" Pitch="39" RiffPosition="10.71875" Velocity="105" />
      <note Length="0.03125" Pitch="39" RiffPosition="10.75" Velocity="0" />
      <note Length="0.03125" Pitch="39" RiffPosition="10.78125" Velocity="105" />
      <note Length="0.03125" Pitch="39" RiffPosition="10.8125" Velocity="0" />
      <note Length="0.03125" Pitch="39" RiffPosition="10.84375" Velocity="105" />
      <note Length="0.03125" Pitch="39" RiffPosition="10.875" Velocity="0" />
      <note Length="0.03125" Pitch="39" RiffPosition="10.90625" Velocity="105" />
      <note Length="0.03125" Pitch="39" RiffPosition="10.9375" Velocity="0" />
      <note Length="0.03125" Pitch="39" RiffPosition="10.96875" Velocity="105" />
      <note Length="0.03125" Pitch="39" RiffPosition="11" Velocity="0" />
      <note Length="0.03125" Pitch="39" RiffPosition="11.03125" Velocity="0" />
      <note Length="0.03125" Pitch="39" RiffPosition="11.0625" Velocity="0" />
      <note Length="0.03125" Pitch="39" RiffPosition="11.09375" Velocity="0" />
      <note Length="0.03125" Pitch="39" RiffPosition="11.125" Velocity="0" />
      <note Length="0.03125" Pitch="39" RiffPosition="11.15625" Velocity="0" />
      <note Length="0.03125" Pitch="39" RiffPosition="11.1875" Velocity="0" />
      <note Length="0.03125" Pitch="39" RiffPosition="11.21875" Velocity="0" />
      <note Length="0.03125" Pitch="39" RiffPosition="11.25" Velocity="0" />
      <note Length="0.03125" Pitch="39" RiffPosition="11.28125" Velocity="0" />
      <note Length="0.03125" Pitch="39" RiffPosition="11.3125" Velocity="0" />
      <note Length="0.03125" Pitch="39" RiffPosition="11.34375" Velocity="0" />
      <note Length="0.03125" Pitch="39" RiffPosition="11.375" Velocity="0" />
      <note Length="0.03125" Pitch="39" RiffPosition="11.40625" Velocity="0" />
      <note Length="0.03125" Pitch="39" RiffPosition="11.4375" Velocity="0" />
      <note Length="0.03125" Pitch="39" RiffPosition="11.46875" Velocity="0" />
      <note Length="0.03125" Pitch="39" RiffPosition="11.5" Velocity="0" />
      <note Length="0.03125" Pitch="39" RiffPosition="11.53125" Velocity="0" />
      <note Length="0.03125" Pitch="39" RiffPosition="11.5625" Velocity="0" />
      <note Length="0.03125" Pitch="39" RiffPosition="11.59375" Velocity="0" />
      <note Length="0.03125" Pitch="39" RiffPosition="11.625" Velocity="0" />
      <note Length="0.03125" Pitch="39" RiffPosition="11.65625" Velocity="0" />
      <note Length="0.03125" Pitch="39" RiffPosition="11.6875" Velocity="0" />
      <note Length="0.03125" Pitch="39" RiffPosition="11.71875" Velocity="0" />
      <note Length="0.03125" Pitch="39" RiffPosition="11.75" Velocity="0" />
      <note Length="0.03125" Pitch="39" RiffPosition="11.78125" Velocity="0" />
      <note Length="0.03125" Pitch="39" RiffPosition="11.8125" Velocity="0" />
      <note Length="0.03125" Pitch="39" RiffPosition="11.84375" Velocity="0" />
      <note Length="0.03125" Pitch="39" RiffPosition="11.875" Velocity="0" />
      <note Length="0.03125" Pitch="39" RiffPosition="11.90625" Velocity="0" />
      <note Length="0.03125" Pitch="39" RiffPosition="11.9375" Velocity="0" />
      <note Length="0.03125" Pitch="39" RiffPosition="11.96875" Velocity="0" />
    </riff>
    <riff IsDrum="True" MidiInstrument="0" Tempo="140" Length="12">
      <note Length="0.03125" Pitch="36" RiffPosition="0" Velocity="0" />
      <note Length="0.03125" Pitch="36" RiffPosition="0.03125" Velocity="0" />
      <note Length="0.046875" Pitch="36" RiffPosition="0.0625" Velocity="0" />
      <note Length="0.046875" Pitch="36" RiffPosition="0.109375" Velocity="0" />
      <note Length="0.046875" Pitch="36" RiffPosition="0.15625" Velocity="0" />
      <note Length="0.046875" Pitch="36" RiffPosition="0.203125" Velocity="0" />
      <note Length="0.03125" Pitch="36" RiffPosition="0.25" Velocity="0" />
      <note Length="0.015625" Pitch="36" RiffPosition="0.28125" Velocity="0" />
      <note Length="0.015625" Pitch="36" RiffPosition="0.296875" Velocity="0" />
      <note Length="0.03125" Pitch="36" RiffPosition="0.3125" Velocity="0" />
      <note Length="0.0234375" Pitch="36" RiffPosition="0.34375" Velocity="0" />
      <note Length="0.0078125" Pitch="36" RiffPosition="0.3671875" Velocity="0" />
      <note Length="0.03125" Pitch="36" RiffPosition="0.375" Velocity="0" />
      <note Length="0.0078125" Pitch="36" RiffPosition="0.40625" Velocity="0" />
      <note Length="0.0234375" Pitch="36" RiffPosition="0.4140625" Velocity="0" />
      <note Length="0.03125" Pitch="36" RiffPosition="0.4375" Velocity="0" />
      <note Length="0.03125" Pitch="36" RiffPosition="0.46875" Velocity="0" />
      <note Length="0.03125" Pitch="36" RiffPosition="0.5" Velocity="0" />
      <note Length="0.03125" Pitch="36" RiffPosition="0.53125" Velocity="0" />
      <note Length="0.046875" Pitch="36" RiffPosition="0.5625" Velocity="0" />
      <note Length="0.046875" Pitch="36" RiffPosition="0.609375" Velocity="0" />
      <note Length="0.046875" Pitch="36" RiffPosition="0.65625" Velocity="0" />
      <note Length="0.046875" Pitch="36" RiffPosition="0.703125" Velocity="0" />
      <note Length="0.03125" Pitch="36" RiffPosition="0.75" Velocity="0" />
      <note Length="0.015625" Pitch="36" RiffPosition="0.78125" Velocity="0" />
      <note Length="0.015625" Pitch="36" RiffPosition="0.796875" Velocity="0" />
      <note Length="0.03125" Pitch="36" RiffPosition="0.8125" Velocity="0" />
      <note Length="0.0234375" Pitch="36" RiffPosition="0.84375" Velocity="0" />
      <note Length="0.0078125" Pitch="36" RiffPosition="0.8671875" Velocity="0" />
      <note Length="0.03125" Pitch="36" RiffPosition="0.875" Velocity="0" />
      <note Length="0.0078125" Pitch="36" RiffPosition="0.90625" Velocity="0" />
      <note Length="0.0234375" Pitch="36" RiffPosition="0.9140625" Velocity="0" />
      <note Length="0.03125" Pitch="36" RiffPosition="0.9375" Velocity="0" />
      <note Length="0.03125" Pitch="36" RiffPosition="0.96875" Velocity="0" />
      <note Length="0.03125" Pitch="36" RiffPosition="1" Velocity="0" />
      <note Length="0.03125" Pitch="36" RiffPosition="1.03125" Velocity="0" />
      <note Length="0.046875" Pitch="36" RiffPosition="1.0625" Velocity="0" />
      <note Length="0.046875" Pitch="36" RiffPosition="1.109375" Velocity="0" />
      <note Length="0.046875" Pitch="36" RiffPosition="1.15625" Velocity="0" />
      <note Length="0.046875" Pitch="36" RiffPosition="1.203125" Velocity="0" />
      <note Length="0.03125" Pitch="36" RiffPosition="1.25" Velocity="0" />
      <note Length="0.015625" Pitch="36" RiffPosition="1.28125" Velocity="0" />
      <note Length="0.015625" Pitch="36" RiffPosition="1.296875" Velocity="0" />
      <note Length="0.03125" Pitch="36" RiffPosition="1.3125" Velocity="0" />
      <note Length="0.0234375" Pitch="36" RiffPosition="1.34375" Velocity="0" />
      <note Length="0.0078125" Pitch="36" RiffPosition="1.3671875" Velocity="0" />
      <note Length="0.03125" Pitch="36" RiffPosition="1.375" Velocity="0" />
      <note Length="0.0078125" Pitch="36" RiffPosition="1.40625" Velocity="0" />
      <note Length="0.0234375" Pitch="36" RiffPosition="1.4140625" Velocity="0" />
      <note Length="0.03125" Pitch="36" RiffPosition="1.4375" Velocity="0" />
      <note Length="0.03125" Pitch="36" RiffPosition="1.46875" Velocity="0" />
      <note Length="0.03125" Pitch="36" RiffPosition="1.5" Velocity="0" />
      <note Length="0.03125" Pitch="36" RiffPosition="1.53125" Velocity="0" />
      <note Length="0.046875" Pitch="36" RiffPosition="1.5625" Velocity="0" />
      <note Length="0.046875" Pitch="36" RiffPosition="1.609375" Velocity="0" />
      <note Length="0.046875" Pitch="36" RiffPosition="1.65625" Velocity="0" />
      <note Length="0.046875" Pitch="36" RiffPosition="1.703125" Velocity="0" />
      <note Length="0.03125" Pitch="36" RiffPosition="1.75" Velocity="0" />
      <note Length="0.015625" Pitch="36" RiffPosition="1.78125" Velocity="0" />
      <note Length="0.015625" Pitch="36" RiffPosition="1.796875" Velocity="0" />
      <note Length="0.03125" Pitch="36" RiffPosition="1.8125" Velocity="0" />
      <note Length="0.0234375" Pitch="36" RiffPosition="1.84375" Velocity="0" />
      <note Length="0.0078125" Pitch="36" RiffPosition="1.8671875" Velocity="0" />
      <note Length="0.03125" Pitch="36" RiffPosition="1.875" Velocity="0" />
      <note Length="0.0078125" Pitch="36" RiffPosition="1.90625" Velocity="0" />
      <note Length="0.0234375" Pitch="36" RiffPosition="1.9140625" Velocity="0" />
      <note Length="0.03125" Pitch="36" RiffPosition="1.9375" Velocity="0" />
      <note Length="0.03125" Pitch="36" RiffPosition="1.96875" Velocity="0" />
      <note Length="0.03125" Pitch="36" RiffPosition="2" Velocity="0" />
      <note Length="0.03125" Pitch="36" RiffPosition="2.03125" Velocity="0" />
      <note Length="0.046875" Pitch="36" RiffPosition="2.0625" Velocity="0" />
      <note Length="0.046875" Pitch="36" RiffPosition="2.109375" Velocity="0" />
      <note Length="0.046875" Pitch="36" RiffPosition="2.15625" Velocity="0" />
      <note Length="0.046875" Pitch="36" RiffPosition="2.203125" Velocity="0" />
      <note Length="0.03125" Pitch="36" RiffPosition="2.25" Velocity="0" />
      <note Length="0.015625" Pitch="36" RiffPosition="2.28125" Velocity="0" />
      <note Length="0.015625" Pitch="36" RiffPosition="2.296875" Velocity="0" />
      <note Length="0.03125" Pitch="36" RiffPosition="2.3125" Velocity="0" />
      <note Length="0.0234375" Pitch="36" RiffPosition="2.34375" Velocity="0" />
      <note Length="0.0078125" Pitch="36" RiffPosition="2.3671875" Velocity="0" />
      <note Length="0.03125" Pitch="36" RiffPosition="2.375" Velocity="0" />
      <note Length="0.0078125" Pitch="36" RiffPosition="2.40625" Velocity="0" />
      <note Length="0.0234375" Pitch="36" RiffPosition="2.4140625" Velocity="0" />
      <note Length="0.03125" Pitch="36" RiffPosition="2.4375" Velocity="0" />
      <note Length="0.03125" Pitch="36" RiffPosition="2.46875" Velocity="0" />
      <note Length="0.03125" Pitch="36" RiffPosition="2.5" Velocity="0" />
      <note Length="0.03125" Pitch="36" RiffPosition="2.53125" Velocity="0" />
      <note Length="0.046875" Pitch="36" RiffPosition="2.5625" Velocity="0" />
      <note Length="0.046875" Pitch="36" RiffPosition="2.609375" Velocity="0" />
      <note Length="0.046875" Pitch="36" RiffPosition="2.65625" Velocity="0" />
      <note Length="0.046875" Pitch="36" RiffPosition="2.703125" Velocity="0" />
      <note Length="0.03125" Pitch="36" RiffPosition="2.75" Velocity="0" />
      <note Length="0.015625" Pitch="36" RiffPosition="2.78125" Velocity="0" />
      <note Length="0.015625" Pitch="36" RiffPosition="2.796875" Velocity="0" />
      <note Length="0.03125" Pitch="36" RiffPosition="2.8125" Velocity="0" />
      <note Length="0.0234375" Pitch="36" RiffPosition="2.84375" Velocity="0" />
      <note Length="0.0078125" Pitch="36" RiffPosition="2.8671875" Velocity="0" />
      <note Length="0.03125" Pitch="36" RiffPosition="2.875" Velocity="0" />
      <note Length="0.0078125" Pitch="36" RiffPosition="2.90625" Velocity="0" />
      <note Length="0.0234375" Pitch="36" RiffPosition="2.9140625" Velocity="0" />
      <note Length="0.03125" Pitch="36" RiffPosition="2.9375" Velocity="0" />
      <note Length="0.03125" Pitch="36" RiffPosition="2.96875" Velocity="0" />
      <note Length="0.03125" Pitch="36" RiffPosition="3" Velocity="0" />
      <note Length="0.03125" Pitch="36" RiffPosition="3.03125" Velocity="0" />
      <note Length="0.046875" Pitch="36" RiffPosition="3.0625" Velocity="0" />
      <note Length="0.046875" Pitch="36" RiffPosition="3.109375" Velocity="0" />
      <note Length="0.046875" Pitch="36" RiffPosition="3.15625" Velocity="0" />
      <note Length="0.046875" Pitch="36" RiffPosition="3.203125" Velocity="0" />
      <note Length="0.03125" Pitch="36" RiffPosition="3.25" Velocity="0" />
      <note Length="0.015625" Pitch="36" RiffPosition="3.28125" Velocity="0" />
      <note Length="0.015625" Pitch="36" RiffPosition="3.296875" Velocity="0" />
      <note Length="0.03125" Pitch="36" RiffPosition="3.3125" Velocity="0" />
      <note Length="0.0234375" Pitch="36" RiffPosition="3.34375" Velocity="0" />
      <note Length="0.0078125" Pitch="36" RiffPosition="3.3671875" Velocity="0" />
      <note Length="0.03125" Pitch="36" RiffPosition="3.375" Velocity="0" />
      <note Length="0.0078125" Pitch="36" RiffPosition="3.40625" Velocity="0" />
      <note Length="0.0234375" Pitch="36" RiffPosition="3.4140625" Velocity="0" />
      <note Length="0.03125" Pitch="36" RiffPosition="3.4375" Velocity="0" />
      <note Length="0.03125" Pitch="36" RiffPosition="3.46875" Velocity="0" />
      <note Length="0.03125" Pitch="36" RiffPosition="3.5" Velocity="0" />
      <note Length="0.03125" Pitch="36" RiffPosition="3.53125" Velocity="0" />
      <note Length="0.046875" Pitch="36" RiffPosition="3.5625" Velocity="0" />
      <note Length="0.046875" Pitch="36" RiffPosition="3.609375" Velocity="0" />
      <note Length="0.046875" Pitch="36" RiffPosition="3.65625" Velocity="0" />
      <note Length="0.046875" Pitch="36" RiffPosition="3.703125" Velocity="0" />
      <note Length="0.03125" Pitch="36" RiffPosition="3.75" Velocity="0" />
      <note Length="0.015625" Pitch="36" RiffPosition="3.78125" Velocity="0" />
      <note Length="0.015625" Pitch="36" RiffPosition="3.796875" Velocity="0" />
      <note Length="0.03125" Pitch="36" RiffPosition="3.8125" Velocity="0" />
      <note Length="0.0234375" Pitch="36" RiffPosition="3.84375" Velocity="0" />
      <note Length="0.0078125" Pitch="36" RiffPosition="3.8671875" Velocity="0" />
      <note Length="0.03125" Pitch="36" RiffPosition="3.875" Velocity="0" />
      <note Length="0.0078125" Pitch="36" RiffPosition="3.90625" Velocity="0" />
      <note Length="0.0234375" Pitch="36" RiffPosition="3.9140625" Velocity="0" />
      <note Length="0.03125" Pitch="36" RiffPosition="3.9375" Velocity="0" />
      <note Length="0.03125" Pitch="36" RiffPosition="3.96875" Velocity="0" />
      <note Length="0.03125" Pitch="36" RiffPosition="4" Velocity="0" />
      <note Length="0.03125" Pitch="36" RiffPosition="4.03125" Velocity="0" />
      <note Length="0.046875" Pitch="36" RiffPosition="4.0625" Velocity="0" />
      <note Length="0.046875" Pitch="36" RiffPosition="4.109375" Velocity="0" />
      <note Length="0.046875" Pitch="36" RiffPosition="4.15625" Velocity="0" />
      <note Length="0.046875" Pitch="36" RiffPosition="4.203125" Velocity="0" />
      <note Length="0.03125" Pitch="36" RiffPosition="4.25" Velocity="0" />
      <note Length="0.015625" Pitch="36" RiffPosition="4.28125" Velocity="0" />
      <note Length="0.015625" Pitch="36" RiffPosition="4.296875" Velocity="0" />
      <note Length="0.03125" Pitch="36" RiffPosition="4.3125" Velocity="0" />
      <note Length="0.0234375" Pitch="36" RiffPosition="4.34375" Velocity="0" />
      <note Length="0.0078125" Pitch="36" RiffPosition="4.3671875" Velocity="0" />
      <note Length="0.03125" Pitch="36" RiffPosition="4.375" Velocity="0" />
      <note Length="0.0078125" Pitch="36" RiffPosition="4.40625" Velocity="0" />
      <note Length="0.0234375" Pitch="36" RiffPosition="4.4140625" Velocity="0" />
      <note Length="0.03125" Pitch="36" RiffPosition="4.4375" Velocity="0" />
      <note Length="0.03125" Pitch="36" RiffPosition="4.46875" Velocity="0" />
      <note Length="0.03125" Pitch="36" RiffPosition="4.5" Velocity="0" />
      <note Length="0.03125" Pitch="36" RiffPosition="4.53125" Velocity="0" />
      <note Length="0.046875" Pitch="36" RiffPosition="4.5625" Velocity="0" />
      <note Length="0.046875" Pitch="36" RiffPosition="4.609375" Velocity="0" />
      <note Length="0.046875" Pitch="36" RiffPosition="4.65625" Velocity="0" />
      <note Length="0.046875" Pitch="36" RiffPosition="4.703125" Velocity="0" />
      <note Length="0.03125" Pitch="36" RiffPosition="4.75" Velocity="0" />
      <note Length="0.015625" Pitch="36" RiffPosition="4.78125" Velocity="0" />
      <note Length="0.015625" Pitch="36" RiffPosition="4.796875" Velocity="0" />
      <note Length="0.03125" Pitch="36" RiffPosition="4.8125" Velocity="0" />
      <note Length="0.0234375" Pitch="36" RiffPosition="4.84375" Velocity="0" />
      <note Length="0.0078125" Pitch="36" RiffPosition="4.8671875" Velocity="0" />
      <note Length="0.03125" Pitch="36" RiffPosition="4.875" Velocity="0" />
      <note Length="0.0078125" Pitch="36" RiffPosition="4.90625" Velocity="0" />
      <note Length="0.0234375" Pitch="36" RiffPosition="4.9140625" Velocity="0" />
      <note Length="0.03125" Pitch="36" RiffPosition="4.9375" Velocity="0" />
      <note Length="0.03125" Pitch="36" RiffPosition="4.96875" Velocity="0" />
      <note Length="0.03125" Pitch="36" RiffPosition="5" Velocity="0" />
      <note Length="0.03125" Pitch="36" RiffPosition="5.03125" Velocity="0" />
      <note Length="0.046875" Pitch="36" RiffPosition="5.0625" Velocity="0" />
      <note Length="0.046875" Pitch="36" RiffPosition="5.109375" Velocity="0" />
      <note Length="0.046875" Pitch="36" RiffPosition="5.15625" Velocity="0" />
      <note Length="0.046875" Pitch="36" RiffPosition="5.203125" Velocity="0" />
      <note Length="0.03125" Pitch="36" RiffPosition="5.25" Velocity="0" />
      <note Length="0.015625" Pitch="36" RiffPosition="5.28125" Velocity="0" />
      <note Length="0.015625" Pitch="36" RiffPosition="5.296875" Velocity="0" />
      <note Length="0.03125" Pitch="36" RiffPosition="5.3125" Velocity="0" />
      <note Length="0.0234375" Pitch="36" RiffPosition="5.34375" Velocity="0" />
      <note Length="0.0078125" Pitch="36" RiffPosition="5.3671875" Velocity="0" />
      <note Length="0.03125" Pitch="36" RiffPosition="5.375" Velocity="0" />
      <note Length="0.0078125" Pitch="36" RiffPosition="5.40625" Velocity="0" />
      <note Length="0.0234375" Pitch="36" RiffPosition="5.4140625" Velocity="0" />
      <note Length="0.03125" Pitch="36" RiffPosition="5.4375" Velocity="0" />
      <note Length="0.03125" Pitch="36" RiffPosition="5.46875" Velocity="0" />
      <note Length="0.03125" Pitch="36" RiffPosition="5.5" Velocity="0" />
      <note Length="0.03125" Pitch="36" RiffPosition="5.53125" Velocity="0" />
      <note Length="0.046875" Pitch="36" RiffPosition="5.5625" Velocity="0" />
      <note Length="0.046875" Pitch="36" RiffPosition="5.609375" Velocity="0" />
      <note Length="0.046875" Pitch="36" RiffPosition="5.65625" Velocity="0" />
      <note Length="0.046875" Pitch="36" RiffPosition="5.703125" Velocity="0" />
      <note Length="0.03125" Pitch="36" RiffPosition="5.75" Velocity="0" />
      <note Length="0.015625" Pitch="36" RiffPosition="5.78125" Velocity="0" />
      <note Length="0.015625" Pitch="36" RiffPosition="5.796875" Velocity="0" />
      <note Length="0.03125" Pitch="36" RiffPosition="5.8125" Velocity="0" />
      <note Length="0.0234375" Pitch="36" RiffPosition="5.84375" Velocity="0" />
      <note Length="0.0078125" Pitch="36" RiffPosition="5.8671875" Velocity="0" />
      <note Length="0.03125" Pitch="36" RiffPosition="5.875" Velocity="0" />
      <note Length="0.0078125" Pitch="36" RiffPosition="5.90625" Velocity="0" />
      <note Length="0.0234375" Pitch="36" RiffPosition="5.9140625" Velocity="0" />
      <note Length="0.03125" Pitch="36" RiffPosition="5.9375" Velocity="0" />
      <note Length="0.03125" Pitch="36" RiffPosition="5.96875" Velocity="0" />
      <note Length="0.03125" Pitch="36" RiffPosition="6" Velocity="0" />
      <note Length="0.03125" Pitch="36" RiffPosition="6.03125" Velocity="0" />
      <note Length="0.046875" Pitch="36" RiffPosition="6.0625" Velocity="0" />
      <note Length="0.046875" Pitch="36" RiffPosition="6.109375" Velocity="0" />
      <note Length="0.046875" Pitch="36" RiffPosition="6.15625" Velocity="0" />
      <note Length="0.046875" Pitch="36" RiffPosition="6.203125" Velocity="0" />
      <note Length="0.03125" Pitch="36" RiffPosition="6.25" Velocity="0" />
      <note Length="0.015625" Pitch="36" RiffPosition="6.28125" Velocity="0" />
      <note Length="0.015625" Pitch="36" RiffPosition="6.296875" Velocity="0" />
      <note Length="0.03125" Pitch="36" RiffPosition="6.3125" Velocity="0" />
      <note Length="0.0234375" Pitch="36" RiffPosition="6.34375" Velocity="0" />
      <note Length="0.0078125" Pitch="36" RiffPosition="6.3671875" Velocity="0" />
      <note Length="0.03125" Pitch="36" RiffPosition="6.375" Velocity="0" />
      <note Length="0.0078125" Pitch="36" RiffPosition="6.40625" Velocity="0" />
      <note Length="0.0234375" Pitch="36" RiffPosition="6.4140625" Velocity="0" />
      <note Length="0.03125" Pitch="36" RiffPosition="6.4375" Velocity="0" />
      <note Length="0.03125" Pitch="36" RiffPosition="6.46875" Velocity="0" />
      <note Length="0.03125" Pitch="36" RiffPosition="6.5" Velocity="0" />
      <note Length="0.03125" Pitch="36" RiffPosition="6.53125" Velocity="0" />
      <note Length="0.046875" Pitch="36" RiffPosition="6.5625" Velocity="0" />
      <note Length="0.046875" Pitch="36" RiffPosition="6.609375" Velocity="0" />
      <note Length="0.046875" Pitch="36" RiffPosition="6.65625" Velocity="0" />
      <note Length="0.046875" Pitch="36" RiffPosition="6.703125" Velocity="0" />
      <note Length="0.03125" Pitch="36" RiffPosition="6.75" Velocity="0" />
      <note Length="0.015625" Pitch="36" RiffPosition="6.78125" Velocity="0" />
      <note Length="0.015625" Pitch="36" RiffPosition="6.796875" Velocity="0" />
      <note Length="0.03125" Pitch="36" RiffPosition="6.8125" Velocity="0" />
      <note Length="0.0234375" Pitch="36" RiffPosition="6.84375" Velocity="0" />
      <note Length="0.0078125" Pitch="36" RiffPosition="6.8671875" Velocity="0" />
      <note Length="0.03125" Pitch="36" RiffPosition="6.875" Velocity="0" />
      <note Length="0.0078125" Pitch="36" RiffPosition="6.90625" Velocity="0" />
      <note Length="0.0234375" Pitch="36" RiffPosition="6.9140625" Velocity="0" />
      <note Length="0.03125" Pitch="36" RiffPosition="6.9375" Velocity="0" />
      <note Length="0.03125" Pitch="36" RiffPosition="6.96875" Velocity="0" />
      <note Length="0.03125" Pitch="36" RiffPosition="7" Velocity="0" />
      <note Length="0.03125" Pitch="36" RiffPosition="7.03125" Velocity="0" />
      <note Length="0.046875" Pitch="36" RiffPosition="7.0625" Velocity="0" />
      <note Length="0.046875" Pitch="36" RiffPosition="7.109375" Velocity="0" />
      <note Length="0.046875" Pitch="36" RiffPosition="7.15625" Velocity="0" />
      <note Length="0.046875" Pitch="36" RiffPosition="7.203125" Velocity="0" />
      <note Length="0.03125" Pitch="36" RiffPosition="7.25" Velocity="0" />
      <note Length="0.015625" Pitch="36" RiffPosition="7.28125" Velocity="0" />
      <note Length="0.015625" Pitch="36" RiffPosition="7.296875" Velocity="0" />
      <note Length="0.03125" Pitch="36" RiffPosition="7.3125" Velocity="0" />
      <note Length="0.0234375" Pitch="36" RiffPosition="7.34375" Velocity="0" />
      <note Length="0.0078125" Pitch="36" RiffPosition="7.3671875" Velocity="0" />
      <note Length="0.03125" Pitch="36" RiffPosition="7.375" Velocity="0" />
      <note Length="0.0078125" Pitch="36" RiffPosition="7.40625" Velocity="0" />
      <note Length="0.0234375" Pitch="36" RiffPosition="7.4140625" Velocity="0" />
      <note Length="0.03125" Pitch="36" RiffPosition="7.4375" Velocity="0" />
      <note Length="0.03125" Pitch="36" RiffPosition="7.46875" Velocity="0" />
      <note Length="0.03125" Pitch="36" RiffPosition="7.5" Velocity="0" />
      <note Length="0.03125" Pitch="36" RiffPosition="7.53125" Velocity="0" />
      <note Length="0.046875" Pitch="36" RiffPosition="7.5625" Velocity="0" />
      <note Length="0.046875" Pitch="36" RiffPosition="7.609375" Velocity="0" />
      <note Length="0.046875" Pitch="36" RiffPosition="7.65625" Velocity="0" />
      <note Length="0.046875" Pitch="36" RiffPosition="7.703125" Velocity="0" />
      <note Length="0.03125" Pitch="36" RiffPosition="7.75" Velocity="0" />
      <note Length="0.015625" Pitch="36" RiffPosition="7.78125" Velocity="0" />
      <note Length="0.015625" Pitch="36" RiffPosition="7.796875" Velocity="0" />
      <note Length="0.03125" Pitch="36" RiffPosition="7.8125" Velocity="0" />
      <note Length="0.0234375" Pitch="36" RiffPosition="7.84375" Velocity="0" />
      <note Length="0.0078125" Pitch="36" RiffPosition="7.8671875" Velocity="0" />
      <note Length="0.03125" Pitch="36" RiffPosition="7.875" Velocity="0" />
      <note Length="0.0078125" Pitch="36" RiffPosition="7.90625" Velocity="0" />
      <note Length="0.0234375" Pitch="36" RiffPosition="7.9140625" Velocity="0" />
      <note Length="0.03125" Pitch="36" RiffPosition="7.9375" Velocity="0" />
      <note Length="0.03125" Pitch="36" RiffPosition="7.96875" Velocity="0" />
      <note Length="0.03125" Pitch="36" RiffPosition="8" Velocity="0" />
      <note Length="0.03125" Pitch="36" RiffPosition="8.03125" Velocity="0" />
      <note Length="0.046875" Pitch="36" RiffPosition="8.0625" Velocity="0" />
      <note Length="0.046875" Pitch="36" RiffPosition="8.109375" Velocity="0" />
      <note Length="0.046875" Pitch="36" RiffPosition="8.15625" Velocity="0" />
      <note Length="0.046875" Pitch="36" RiffPosition="8.203125" Velocity="0" />
      <note Length="0.03125" Pitch="36" RiffPosition="8.25" Velocity="0" />
      <note Length="0.015625" Pitch="36" RiffPosition="8.28125" Velocity="0" />
      <note Length="0.015625" Pitch="36" RiffPosition="8.296875" Velocity="0" />
      <note Length="0.03125" Pitch="36" RiffPosition="8.3125" Velocity="0" />
      <note Length="0.0234375" Pitch="36" RiffPosition="8.34375" Velocity="0" />
      <note Length="0.0078125" Pitch="36" RiffPosition="8.3671875" Velocity="0" />
      <note Length="0.03125" Pitch="36" RiffPosition="8.375" Velocity="0" />
      <note Length="0.0078125" Pitch="36" RiffPosition="8.40625" Velocity="0" />
      <note Length="0.0234375" Pitch="36" RiffPosition="8.4140625" Velocity="0" />
      <note Length="0.03125" Pitch="36" RiffPosition="8.4375" Velocity="0" />
      <note Length="0.03125" Pitch="36" RiffPosition="8.46875" Velocity="0" />
      <note Length="0.03125" Pitch="36" RiffPosition="8.5" Velocity="0" />
      <note Length="0.03125" Pitch="36" RiffPosition="8.53125" Velocity="0" />
      <note Length="0.046875" Pitch="36" RiffPosition="8.5625" Velocity="0" />
      <note Length="0.046875" Pitch="36" RiffPosition="8.609375" Velocity="0" />
      <note Length="0.046875" Pitch="36" RiffPosition="8.65625" Velocity="0" />
      <note Length="0.046875" Pitch="36" RiffPosition="8.703125" Velocity="0" />
      <note Length="0.03125" Pitch="36" RiffPosition="8.75" Velocity="0" />
      <note Length="0.015625" Pitch="36" RiffPosition="8.78125" Velocity="0" />
      <note Length="0.015625" Pitch="36" RiffPosition="8.796875" Velocity="0" />
      <note Length="0.03125" Pitch="36" RiffPosition="8.8125" Velocity="0" />
      <note Length="0.0234375" Pitch="36" RiffPosition="8.84375" Velocity="0" />
      <note Length="0.0078125" Pitch="36" RiffPosition="8.8671875" Velocity="0" />
      <note Length="0.03125" Pitch="36" RiffPosition="8.875" Velocity="0" />
      <note Length="0.0078125" Pitch="36" RiffPosition="8.90625" Velocity="0" />
      <note Length="0.0234375" Pitch="36" RiffPosition="8.9140625" Velocity="0" />
      <note Length="0.03125" Pitch="36" RiffPosition="8.9375" Velocity="0" />
      <note Length="0.03125" Pitch="36" RiffPosition="8.96875" Velocity="0" />
      <note Length="0.03125" Pitch="36" RiffPosition="9" Velocity="127" />
      <note Length="0.03125" Pitch="36" RiffPosition="9.03125" Velocity="127" />
      <note Length="0.046875" Pitch="36" RiffPosition="9.0625" Velocity="127" />
      <note Length="0.046875" Pitch="36" RiffPosition="9.109375" Velocity="127" />
      <note Length="0.046875" Pitch="36" RiffPosition="9.15625" Velocity="127" />
      <note Length="0.046875" Pitch="36" RiffPosition="9.203125" Velocity="127" />
      <note Length="0.03125" Pitch="36" RiffPosition="9.25" Velocity="127" />
      <note Length="0.015625" Pitch="36" RiffPosition="9.28125" Velocity="127" />
      <note Length="0.015625" Pitch="36" RiffPosition="9.296875" Velocity="127" />
      <note Length="0.03125" Pitch="36" RiffPosition="9.3125" Velocity="127" />
      <note Length="0.0234375" Pitch="36" RiffPosition="9.34375" Velocity="127" />
      <note Length="0.0078125" Pitch="36" RiffPosition="9.3671875" Velocity="127" />
      <note Length="0.03125" Pitch="36" RiffPosition="9.375" Velocity="127" />
      <note Length="0.0078125" Pitch="36" RiffPosition="9.40625" Velocity="127" />
      <note Length="0.0234375" Pitch="36" RiffPosition="9.4140625" Velocity="127" />
      <note Length="0.03125" Pitch="36" RiffPosition="9.4375" Velocity="127" />
      <note Length="0.03125" Pitch="36" RiffPosition="9.46875" Velocity="127" />
      <note Length="0.03125" Pitch="36" RiffPosition="9.5" Velocity="127" />
      <note Length="0.03125" Pitch="36" RiffPosition="9.53125" Velocity="127" />
      <note Length="0.046875" Pitch="36" RiffPosition="9.5625" Velocity="127" />
      <note Length="0.046875" Pitch="36" RiffPosition="9.609375" Velocity="127" />
      <note Length="0.046875" Pitch="36" RiffPosition="9.65625" Velocity="127" />
      <note Length="0.046875" Pitch="36" RiffPosition="9.703125" Velocity="127" />
      <note Length="0.03125" Pitch="36" RiffPosition="9.75" Velocity="127" />
      <note Length="0.015625" Pitch="36" RiffPosition="9.78125" Velocity="127" />
      <note Length="0.015625" Pitch="36" RiffPosition="9.796875" Velocity="127" />
      <note Length="0.03125" Pitch="36" RiffPosition="9.8125" Velocity="127" />
      <note Length="0.0234375" Pitch="36" RiffPosition="9.84375" Velocity="127" />
      <note Length="0.0078125" Pitch="36" RiffPosition="9.8671875" Velocity="127" />
      <note Length="0.03125" Pitch="36" RiffPosition="9.875" Velocity="127" />
      <note Length="0.0078125" Pitch="36" RiffPosition="9.90625" Velocity="127" />
      <note Length="0.0234375" Pitch="36" RiffPosition="9.9140625" Velocity="127" />
      <note Length="0.03125" Pitch="36" RiffPosition="9.9375" Velocity="127" />
      <note Length="0.03125" Pitch="36" RiffPosition="9.96875" Velocity="127" />
      <note Length="0.03125" Pitch="36" RiffPosition="10" Velocity="127" />
      <note Length="0.03125" Pitch="36" RiffPosition="10.03125" Velocity="127" />
      <note Length="0.046875" Pitch="36" RiffPosition="10.0625" Velocity="127" />
      <note Length="0.046875" Pitch="36" RiffPosition="10.109375" Velocity="127" />
      <note Length="0.046875" Pitch="36" RiffPosition="10.15625" Velocity="127" />
      <note Length="0.046875" Pitch="36" RiffPosition="10.203125" Velocity="127" />
      <note Length="0.03125" Pitch="36" RiffPosition="10.25" Velocity="127" />
      <note Length="0.015625" Pitch="36" RiffPosition="10.28125" Velocity="127" />
      <note Length="0.015625" Pitch="36" RiffPosition="10.296875" Velocity="127" />
      <note Length="0.03125" Pitch="36" RiffPosition="10.3125" Velocity="127" />
      <note Length="0.0234375" Pitch="36" RiffPosition="10.34375" Velocity="127" />
      <note Length="0.0078125" Pitch="36" RiffPosition="10.3671875" Velocity="127" />
      <note Length="0.03125" Pitch="36" RiffPosition="10.375" Velocity="127" />
      <note Length="0.0078125" Pitch="36" RiffPosition="10.40625" Velocity="127" />
      <note Length="0.0234375" Pitch="36" RiffPosition="10.4140625" Velocity="127" />
      <note Length="0.03125" Pitch="36" RiffPosition="10.4375" Velocity="127" />
      <note Length="0.03125" Pitch="36" RiffPosition="10.46875" Velocity="127" />
      <note Length="0.03125" Pitch="36" RiffPosition="10.5" Velocity="127" />
      <note Length="0.03125" Pitch="36" RiffPosition="10.53125" Velocity="127" />
      <note Length="0.046875" Pitch="36" RiffPosition="10.5625" Velocity="127" />
      <note Length="0.046875" Pitch="36" RiffPosition="10.609375" Velocity="127" />
      <note Length="0.046875" Pitch="36" RiffPosition="10.65625" Velocity="127" />
      <note Length="0.046875" Pitch="36" RiffPosition="10.703125" Velocity="127" />
      <note Length="0.03125" Pitch="36" RiffPosition="10.75" Velocity="127" />
      <note Length="0.015625" Pitch="36" RiffPosition="10.78125" Velocity="127" />
      <note Length="0.015625" Pitch="36" RiffPosition="10.796875" Velocity="127" />
      <note Length="0.03125" Pitch="36" RiffPosition="10.8125" Velocity="127" />
      <note Length="0.0234375" Pitch="36" RiffPosition="10.84375" Velocity="127" />
      <note Length="0.0078125" Pitch="36" RiffPosition="10.8671875" Velocity="127" />
      <note Length="0.03125" Pitch="36" RiffPosition="10.875" Velocity="127" />
      <note Length="0.0078125" Pitch="36" RiffPosition="10.90625" Velocity="127" />
      <note Length="0.0234375" Pitch="36" RiffPosition="10.9140625" Velocity="127" />
      <note Length="0.03125" Pitch="36" RiffPosition="10.9375" Velocity="127" />
      <note Length="0.03125" Pitch="36" RiffPosition="10.96875" Velocity="127" />
      <note Length="0.03125" Pitch="36" RiffPosition="11" Velocity="0" />
      <note Length="0.03125" Pitch="36" RiffPosition="11.03125" Velocity="0" />
      <note Length="0.046875" Pitch="36" RiffPosition="11.0625" Velocity="0" />
      <note Length="0.046875" Pitch="36" RiffPosition="11.109375" Velocity="0" />
      <note Length="0.046875" Pitch="36" RiffPosition="11.15625" Velocity="0" />
      <note Length="0.046875" Pitch="36" RiffPosition="11.203125" Velocity="0" />
      <note Length="0.03125" Pitch="36" RiffPosition="11.25" Velocity="0" />
      <note Length="0.015625" Pitch="36" RiffPosition="11.28125" Velocity="0" />
      <note Length="0.015625" Pitch="36" RiffPosition="11.296875" Velocity="0" />
      <note Length="0.03125" Pitch="36" RiffPosition="11.3125" Velocity="0" />
      <note Length="0.0234375" Pitch="36" RiffPosition="11.34375" Velocity="0" />
      <note Length="0.0078125" Pitch="36" RiffPosition="11.3671875" Velocity="0" />
      <note Length="0.03125" Pitch="36" RiffPosition="11.375" Velocity="0" />
      <note Length="0.0078125" Pitch="36" RiffPosition="11.40625" Velocity="0" />
      <note Length="0.0234375" Pitch="36" RiffPosition="11.4140625" Velocity="0" />
      <note Length="0.03125" Pitch="36" RiffPosition="11.4375" Velocity="0" />
      <note Length="0.03125" Pitch="36" RiffPosition="11.46875" Velocity="0" />
      <note Length="0.03125" Pitch="36" RiffPosition="11.5" Velocity="0" />
      <note Length="0.03125" Pitch="36" RiffPosition="11.53125" Velocity="0" />
      <note Length="0.046875" Pitch="36" RiffPosition="11.5625" Velocity="0" />
      <note Length="0.046875" Pitch="36" RiffPosition="11.609375" Velocity="0" />
      <note Length="0.046875" Pitch="36" RiffPosition="11.65625" Velocity="0" />
      <note Length="0.046875" Pitch="36" RiffPosition="11.703125" Velocity="0" />
      <note Length="0.03125" Pitch="36" RiffPosition="11.75" Velocity="0" />
      <note Length="0.015625" Pitch="36" RiffPosition="11.78125" Velocity="0" />
      <note Length="0.015625" Pitch="36" RiffPosition="11.796875" Velocity="0" />
      <note Length="0.03125" Pitch="36" RiffPosition="11.8125" Velocity="0" />
      <note Length="0.0234375" Pitch="36" RiffPosition="11.84375" Velocity="0" />
      <note Length="0.0078125" Pitch="36" RiffPosition="11.8671875" Velocity="0" />
      <note Length="0.03125" Pitch="36" RiffPosition="11.875" Velocity="0" />
      <note Length="0.0078125" Pitch="36" RiffPosition="11.90625" Velocity="0" />
      <note Length="0.0234375" Pitch="36" RiffPosition="11.9140625" Velocity="0" />
      <note Length="0.03125" Pitch="36" RiffPosition="11.9375" Velocity="0" />
      <note Length="0.03125" Pitch="36" RiffPosition="11.96875" Velocity="0" />
    </riff>
    <riff IsDrum="True" MidiInstrument="0" Tempo="113" Length="12">
      <note Length="0.0625" Pitch="50" RiffPosition="0" Velocity="0" />
      <note Length="0.03125" Pitch="39" RiffPosition="0.0625" Velocity="0" />
      <note Length="0.03125" Pitch="46" RiffPosition="0.09375" Velocity="0" />
      <note Length="0.03125" Pitch="49" RiffPosition="0.125" Velocity="0" />
      <note Length="0.03125" Pitch="35" RiffPosition="0.15625" Velocity="0" />
      <note Length="0.03125" Pitch="37" RiffPosition="0.1875" Velocity="0" />
      <note Length="0.03125" Pitch="40" RiffPosition="0.21875" Velocity="0" />
      <note Length="0.046875" Pitch="42" RiffPosition="0.25" Velocity="0" />
      <note Length="0.015625" Pitch="42" RiffPosition="0.296875" Velocity="0" />
      <note Length="0.03125" Pitch="41" RiffPosition="0.3125" Velocity="0" />
      <note Length="0.03125" Pitch="48" RiffPosition="0.34375" Velocity="0" />
      <note Length="0.0625" Pitch="45" RiffPosition="0.375" Velocity="0" />
      <note Length="0.03125" Pitch="49" RiffPosition="0.4375" Velocity="0" />
      <note Length="0.03125" Pitch="51" RiffPosition="0.46875" Velocity="0" />
      <note Length="0.0625" Pitch="53" RiffPosition="0.5" Velocity="0" />
      <note Length="0.03125" Pitch="42" RiffPosition="0.5625" Velocity="0" />
      <note Length="0.03125" Pitch="44" RiffPosition="0.59375" Velocity="0" />
      <note Length="0.03125" Pitch="46" RiffPosition="0.625" Velocity="0" />
      <note Length="0.03125" Pitch="38" RiffPosition="0.65625" Velocity="0" />
      <note Length="0.03125" Pitch="35" RiffPosition="0.6875" Velocity="0" />
      <note Length="0.03125" Pitch="43" RiffPosition="0.71875" Velocity="0" />
      <note Length="0.046875" Pitch="40" RiffPosition="0.75" Velocity="0" />
      <note Length="0.015625" Pitch="40" RiffPosition="0.796875" Velocity="0" />
      <note Length="0.03125" Pitch="44" RiffPosition="0.8125" Velocity="0" />
      <note Length="0.03125" Pitch="46" RiffPosition="0.84375" Velocity="0" />
      <note Length="0.0625" Pitch="48" RiffPosition="0.875" Velocity="0" />
      <note Length="0.03125" Pitch="46" RiffPosition="0.9375" Velocity="0" />
      <note Length="0.03125" Pitch="54" RiffPosition="0.96875" Velocity="0" />
      <note Length="0.0625" Pitch="51" RiffPosition="1" Velocity="0" />
      <note Length="0.03125" Pitch="40" RiffPosition="1.0625" Velocity="0" />
      <note Length="0.03125" Pitch="47" RiffPosition="1.09375" Velocity="0" />
      <note Length="0.03125" Pitch="44" RiffPosition="1.125" Velocity="0" />
      <note Length="0.03125" Pitch="36" RiffPosition="1.15625" Velocity="0" />
      <note Length="0.03125" Pitch="38" RiffPosition="1.1875" Velocity="0" />
      <note Length="0.03125" Pitch="41" RiffPosition="1.21875" Velocity="0" />
      <note Length="0.046875" Pitch="43" RiffPosition="1.25" Velocity="0" />
      <note Length="0.015625" Pitch="43" RiffPosition="1.296875" Velocity="0" />
      <note Length="0.03125" Pitch="42" RiffPosition="1.3125" Velocity="0" />
      <note Length="0.03125" Pitch="49" RiffPosition="1.34375" Velocity="0" />
      <note Length="0.0625" Pitch="45" RiffPosition="1.375" Velocity="0" />
      <note Length="0.03125" Pitch="44" RiffPosition="1.4375" Velocity="0" />
      <note Length="0.03125" Pitch="52" RiffPosition="1.46875" Velocity="0" />
      <note Length="0.0625" Pitch="54" RiffPosition="1.5" Velocity="0" />
      <note Length="0.03125" Pitch="43" RiffPosition="1.5625" Velocity="0" />
      <note Length="0.03125" Pitch="45" RiffPosition="1.59375" Velocity="0" />
      <note Length="0.03125" Pitch="47" RiffPosition="1.625" Velocity="0" />
      <note Length="0.03125" Pitch="34" RiffPosition="1.65625" Velocity="0" />
      <note Length="0.03125" Pitch="36" RiffPosition="1.6875" Velocity="0" />
      <note Length="0.03125" Pitch="44" RiffPosition="1.71875" Velocity="0" />
      <note Length="0.046875" Pitch="41" RiffPosition="1.75" Velocity="0" />
      <note Length="0.015625" Pitch="41" RiffPosition="1.796875" Velocity="0" />
      <note Length="0.03125" Pitch="39" RiffPosition="1.8125" Velocity="0" />
      <note Length="0.03125" Pitch="46" RiffPosition="1.84375" Velocity="0" />
      <note Length="0.0625" Pitch="49" RiffPosition="1.875" Velocity="0" />
      <note Length="0.03125" Pitch="47" RiffPosition="1.9375" Velocity="0" />
      <note Length="0.03125" Pitch="50" RiffPosition="1.96875" Velocity="0" />
      <note Length="0.0625" Pitch="52" RiffPosition="2" Velocity="0" />
      <note Length="0.03125" Pitch="41" RiffPosition="2.0625" Velocity="0" />
      <note Length="0.03125" Pitch="48" RiffPosition="2.09375" Velocity="0" />
      <note Length="0.03125" Pitch="45" RiffPosition="2.125" Velocity="0" />
      <note Length="0.03125" Pitch="37" RiffPosition="2.15625" Velocity="0" />
      <note Length="0.03125" Pitch="34" RiffPosition="2.1875" Velocity="0" />
      <note Length="0.03125" Pitch="42" RiffPosition="2.21875" Velocity="0" />
      <note Length="0.046875" Pitch="44" RiffPosition="2.25" Velocity="0" />
      <note Length="0.015625" Pitch="44" RiffPosition="2.296875" Velocity="0" />
      <note Length="0.03125" Pitch="42" RiffPosition="2.3125" Velocity="0" />
      <note Length="0.03125" Pitch="44" RiffPosition="2.34375" Velocity="0" />
      <note Length="0.0625" Pitch="46" RiffPosition="2.375" Velocity="0" />
      <note Length="0.03125" Pitch="45" RiffPosition="2.4375" Velocity="0" />
      <note Length="0.03125" Pitch="53" RiffPosition="2.46875" Velocity="0" />
      <note Length="0.0625" Pitch="50" RiffPosition="2.5" Velocity="0" />
      <note Length="0.03125" Pitch="44" RiffPosition="2.5625" Velocity="0" />
      <note Length="0.03125" Pitch="46" RiffPosition="2.59375" Velocity="0" />
      <note Length="0.03125" Pitch="48" RiffPosition="2.625" Velocity="0" />
      <note Length="0.03125" Pitch="34" RiffPosition="2.65625" Velocity="0" />
      <note Length="0.03125" Pitch="37" RiffPosition="2.6875" Velocity="0" />
      <note Length="0.03125" Pitch="44" RiffPosition="2.71875" Velocity="0" />
      <note Length="0.046875" Pitch="42" RiffPosition="2.75" Velocity="0" />
      <note Length="0.015625" Pitch="42" RiffPosition="2.796875" Velocity="0" />
      <note Length="0.03125" Pitch="40" RiffPosition="2.8125" Velocity="0" />
      <note Length="0.03125" Pitch="47" RiffPosition="2.84375" Velocity="0" />
      <note Length="0.0625" Pitch="44" RiffPosition="2.875" Velocity="0" />
      <note Length="0.03125" Pitch="48" RiffPosition="2.9375" Velocity="0" />
      <note Length="0.03125" Pitch="51" RiffPosition="2.96875" Velocity="0" />
      <note Length="0.0625" Pitch="53" RiffPosition="3" Velocity="0" />
      <note Length="0.03125" Pitch="42" RiffPosition="3.0625" Velocity="0" />
      <note Length="0.03125" Pitch="49" RiffPosition="3.09375" Velocity="0" />
      <note Length="0.03125" Pitch="46" RiffPosition="3.125" Velocity="0" />
      <note Length="0.03125" Pitch="38" RiffPosition="3.15625" Velocity="0" />
      <note Length="0.03125" Pitch="34" RiffPosition="3.1875" Velocity="0" />
      <note Length="0.03125" Pitch="42" RiffPosition="3.21875" Velocity="0" />
      <note Length="0.046875" Pitch="44" RiffPosition="3.25" Velocity="0" />
      <note Length="0.015625" Pitch="39" RiffPosition="3.296875" Velocity="0" />
      <note Length="0.03125" Pitch="43" RiffPosition="3.3125" Velocity="0" />
      <note Length="0.03125" Pitch="45" RiffPosition="3.34375" Velocity="0" />
      <note Length="0.0625" Pitch="47" RiffPosition="3.375" Velocity="0" />
      <note Length="0.03125" Pitch="46" RiffPosition="3.4375" Velocity="0" />
      <note Length="0.03125" Pitch="54" RiffPosition="3.46875" Velocity="0" />
      <note Length="0.0625" Pitch="50" RiffPosition="3.5" Velocity="0" />
      <note Length="0.03125" Pitch="39" RiffPosition="3.5625" Velocity="0" />
      <note Length="0.03125" Pitch="46" RiffPosition="3.59375" Velocity="0" />
      <note Length="0.03125" Pitch="49" RiffPosition="3.625" Velocity="0" />
      <note Length="0.03125" Pitch="35" RiffPosition="3.65625" Velocity="0" />
      <note Length="0.03125" Pitch="37" RiffPosition="3.6875" Velocity="0" />
      <note Length="0.03125" Pitch="40" RiffPosition="3.71875" Velocity="0" />
      <note Length="0.046875" Pitch="42" RiffPosition="3.75" Velocity="0" />
      <note Length="0.015625" Pitch="42" RiffPosition="3.796875" Velocity="0" />
      <note Length="0.03125" Pitch="41" RiffPosition="3.8125" Velocity="0" />
      <note Length="0.03125" Pitch="48" RiffPosition="3.84375" Velocity="0" />
      <note Length="0.0625" Pitch="45" RiffPosition="3.875" Velocity="0" />
      <note Length="0.03125" Pitch="44" RiffPosition="3.9375" Velocity="0" />
      <note Length="0.03125" Pitch="51" RiffPosition="3.96875" Velocity="0" />
      <note Length="0.0625" Pitch="54" RiffPosition="4" Velocity="0" />
      <note Length="0.03125" Pitch="42" RiffPosition="4.0625" Velocity="0" />
      <note Length="0.03125" Pitch="44" RiffPosition="4.09375" Velocity="0" />
      <note Length="0.03125" Pitch="46" RiffPosition="4.125" Velocity="0" />
      <note Length="0.03125" Pitch="38" RiffPosition="4.15625" Velocity="0" />
      <note Length="0.03125" Pitch="35" RiffPosition="4.1875" Velocity="0" />
      <note Length="0.03125" Pitch="43" RiffPosition="4.21875" Velocity="0" />
      <note Length="0.046875" Pitch="40" RiffPosition="4.25" Velocity="0" />
      <note Length="0.015625" Pitch="40" RiffPosition="4.296875" Velocity="0" />
      <note Length="0.03125" Pitch="44" RiffPosition="4.3125" Velocity="0" />
      <note Length="0.03125" Pitch="46" RiffPosition="4.34375" Velocity="0" />
      <note Length="0.0625" Pitch="48" RiffPosition="4.375" Velocity="0" />
      <note Length="0.03125" Pitch="46" RiffPosition="4.4375" Velocity="0" />
      <note Length="0.03125" Pitch="54" RiffPosition="4.46875" Velocity="0" />
      <note Length="0.0625" Pitch="51" RiffPosition="4.5" Velocity="0" />
      <note Length="0.03125" Pitch="40" RiffPosition="4.5625" Velocity="0" />
      <note Length="0.03125" Pitch="47" RiffPosition="4.59375" Velocity="0" />
      <note Length="0.03125" Pitch="44" RiffPosition="4.625" Velocity="0" />
      <note Length="0.03125" Pitch="36" RiffPosition="4.65625" Velocity="0" />
      <note Length="0.03125" Pitch="38" RiffPosition="4.6875" Velocity="0" />
      <note Length="0.03125" Pitch="41" RiffPosition="4.71875" Velocity="0" />
      <note Length="0.046875" Pitch="43" RiffPosition="4.75" Velocity="0" />
      <note Length="0.015625" Pitch="43" RiffPosition="4.796875" Velocity="0" />
      <note Length="0.03125" Pitch="42" RiffPosition="4.8125" Velocity="0" />
      <note Length="0.03125" Pitch="49" RiffPosition="4.84375" Velocity="0" />
      <note Length="0.0625" Pitch="46" RiffPosition="4.875" Velocity="0" />
      <note Length="0.03125" Pitch="44" RiffPosition="4.9375" Velocity="0" />
      <note Length="0.03125" Pitch="52" RiffPosition="4.96875" Velocity="0" />
      <note Length="0.0625" Pitch="54" RiffPosition="5" Velocity="0" />
      <note Length="0.03125" Pitch="43" RiffPosition="5.0625" Velocity="0" />
      <note Length="0.03125" Pitch="45" RiffPosition="5.09375" Velocity="0" />
      <note Length="0.03125" Pitch="47" RiffPosition="5.125" Velocity="0" />
      <note Length="0.03125" Pitch="34" RiffPosition="5.15625" Velocity="0" />
      <note Length="0.03125" Pitch="36" RiffPosition="5.1875" Velocity="0" />
      <note Length="0.03125" Pitch="44" RiffPosition="5.21875" Velocity="0" />
      <note Length="0.046875" Pitch="41" RiffPosition="5.25" Velocity="0" />
      <note Length="0.015625" Pitch="41" RiffPosition="5.296875" Velocity="0" />
      <note Length="0.03125" Pitch="39" RiffPosition="5.3125" Velocity="0" />
      <note Length="0.03125" Pitch="46" RiffPosition="5.34375" Velocity="0" />
      <note Length="0.0625" Pitch="49" RiffPosition="5.375" Velocity="0" />
      <note Length="0.03125" Pitch="47" RiffPosition="5.4375" Velocity="0" />
      <note Length="0.03125" Pitch="50" RiffPosition="5.46875" Velocity="0" />
      <note Length="0.0625" Pitch="52" RiffPosition="5.5" Velocity="0" />
      <note Length="0.03125" Pitch="41" RiffPosition="5.5625" Velocity="0" />
      <note Length="0.03125" Pitch="48" RiffPosition="5.59375" Velocity="0" />
      <note Length="0.03125" Pitch="45" RiffPosition="5.625" Velocity="0" />
      <note Length="0.03125" Pitch="37" RiffPosition="5.65625" Velocity="0" />
      <note Length="0.03125" Pitch="34" RiffPosition="5.6875" Velocity="0" />
      <note Length="0.03125" Pitch="42" RiffPosition="5.71875" Velocity="0" />
      <note Length="0.046875" Pitch="44" RiffPosition="5.75" Velocity="0" />
      <note Length="0.015625" Pitch="44" RiffPosition="5.796875" Velocity="0" />
      <note Length="0.03125" Pitch="42" RiffPosition="5.8125" Velocity="0" />
      <note Length="0.03125" Pitch="44" RiffPosition="5.84375" Velocity="0" />
      <note Length="0.0625" Pitch="46" RiffPosition="5.875" Velocity="0" />
      <note Length="0.03125" Pitch="45" RiffPosition="5.9375" Velocity="0" />
      <note Length="0.03125" Pitch="53" RiffPosition="5.96875" Velocity="0" />
      <note Length="0.0625" Pitch="50" RiffPosition="6" Velocity="0" />
      <note Length="0.03125" Pitch="44" RiffPosition="6.0625" Velocity="0" />
      <note Length="0.03125" Pitch="46" RiffPosition="6.09375" Velocity="0" />
      <note Length="0.03125" Pitch="48" RiffPosition="6.125" Velocity="0" />
      <note Length="0.03125" Pitch="35" RiffPosition="6.15625" Velocity="0" />
      <note Length="0.03125" Pitch="37" RiffPosition="6.1875" Velocity="0" />
      <note Length="0.03125" Pitch="39" RiffPosition="6.21875" Velocity="0" />
      <note Length="0.046875" Pitch="42" RiffPosition="6.25" Velocity="0" />
      <note Length="0.015625" Pitch="42" RiffPosition="6.296875" Velocity="0" />
      <note Length="0.03125" Pitch="40" RiffPosition="6.3125" Velocity="0" />
      <note Length="0.03125" Pitch="47" RiffPosition="6.34375" Velocity="0" />
      <note Length="0.0625" Pitch="44" RiffPosition="6.375" Velocity="0" />
      <note Length="0.03125" Pitch="48" RiffPosition="6.4375" Velocity="0" />
      <note Length="0.03125" Pitch="51" RiffPosition="6.46875" Velocity="0" />
      <note Length="0.0625" Pitch="53" RiffPosition="6.5" Velocity="0" />
      <note Length="0.03125" Pitch="42" RiffPosition="6.5625" Velocity="0" />
      <note Length="0.03125" Pitch="49" RiffPosition="6.59375" Velocity="0" />
      <note Length="0.03125" Pitch="46" RiffPosition="6.625" Velocity="0" />
      <note Length="0.03125" Pitch="38" RiffPosition="6.65625" Velocity="0" />
      <note Length="0.03125" Pitch="34" RiffPosition="6.6875" Velocity="0" />
      <note Length="0.03125" Pitch="43" RiffPosition="6.71875" Velocity="0" />
      <note Length="0.046875" Pitch="44" RiffPosition="6.75" Velocity="0" />
      <note Length="0.015625" Pitch="39" RiffPosition="6.796875" Velocity="0" />
      <note Length="0.03125" Pitch="43" RiffPosition="6.8125" Velocity="0" />
      <note Length="0.03125" Pitch="45" RiffPosition="6.84375" Velocity="0" />
      <note Length="0.0625" Pitch="47" RiffPosition="6.875" Velocity="0" />
      <note Length="0.03125" Pitch="46" RiffPosition="6.9375" Velocity="0" />
      <note Length="0.03125" Pitch="54" RiffPosition="6.96875" Velocity="0" />
      <note Length="0.0625" Pitch="51" RiffPosition="7" Velocity="98" />
      <note Length="0.03125" Pitch="39" RiffPosition="7.0625" Velocity="0" />
      <note Length="0.03125" Pitch="47" RiffPosition="7.09375" Velocity="50" />
      <note Length="0.03125" Pitch="49" RiffPosition="7.125" Velocity="45" />
      <note Length="0.03125" Pitch="35" RiffPosition="7.15625" Velocity="0" />
      <note Length="0.03125" Pitch="38" RiffPosition="7.1875" Velocity="0" />
      <note Length="0.03125" Pitch="40" RiffPosition="7.21875" Velocity="0" />
      <note Length="0.046875" Pitch="43" RiffPosition="7.25" Velocity="104" />
      <note Length="0.015625" Pitch="43" RiffPosition="7.296875" Velocity="62" />
      <note Length="0.03125" Pitch="41" RiffPosition="7.3125" Velocity="54" />
      <note Length="0.03125" Pitch="48" RiffPosition="7.34375" Velocity="77" />
      <note Length="0.0625" Pitch="45" RiffPosition="7.375" Velocity="119" />
      <note Length="0.03125" Pitch="44" RiffPosition="7.4375" Velocity="95" />
      <note Length="0.03125" Pitch="51" RiffPosition="7.46875" Velocity="68" />
      <note Length="0.0625" Pitch="54" RiffPosition="7.5" Velocity="56" />
      <note Length="0.03125" Pitch="43" RiffPosition="7.5625" Velocity="127" />
      <note Length="0.03125" Pitch="44" RiffPosition="7.59375" Velocity="50" />
      <note Length="0.03125" Pitch="46" RiffPosition="7.625" Velocity="82" />
      <note Length="0.03125" Pitch="39" RiffPosition="7.65625" Velocity="0" />
      <note Length="0.03125" Pitch="35" RiffPosition="7.6875" Velocity="0" />
      <note Length="0.03125" Pitch="43" RiffPosition="7.71875" Velocity="74" />
      <note Length="0.046875" Pitch="40" RiffPosition="7.75" Velocity="0" />
      <note Length="0.015625" Pitch="40" RiffPosition="7.796875" Velocity="0" />
      <note Length="0.03125" Pitch="44" RiffPosition="7.8125" Velocity="96" />
      <note Length="0.03125" Pitch="46" RiffPosition="7.84375" Velocity="45" />
      <note Length="0.0625" Pitch="48" RiffPosition="7.875" Velocity="78" />
      <note Length="0.03125" Pitch="46" RiffPosition="7.9375" Velocity="95" />
      <note Length="0.03125" Pitch="49" RiffPosition="7.96875" Velocity="30" />
      <note Length="0.0625" Pitch="51" RiffPosition="8" Velocity="98" />
      <note Length="0.03125" Pitch="40" RiffPosition="8.0625" Velocity="0" />
      <note Length="0.03125" Pitch="47" RiffPosition="8.09375" Velocity="50" />
      <note Length="0.03125" Pitch="44" RiffPosition="8.125" Velocity="82" />
      <note Length="0.03125" Pitch="36" RiffPosition="8.15625" Velocity="0" />
      <note Length="0.03125" Pitch="38" RiffPosition="8.1875" Velocity="0" />
      <note Length="0.03125" Pitch="41" RiffPosition="8.21875" Velocity="48" />
      <note Length="0.046875" Pitch="43" RiffPosition="8.25" Velocity="104" />
      <note Length="0.015625" Pitch="43" RiffPosition="8.296875" Velocity="62" />
      <note Length="0.03125" Pitch="42" RiffPosition="8.3125" Velocity="54" />
      <note Length="0.03125" Pitch="49" RiffPosition="8.34375" Velocity="42" />
      <note Length="0.0625" Pitch="46" RiffPosition="8.375" Velocity="119" />
      <note Length="0.03125" Pitch="44" RiffPosition="8.4375" Velocity="95" />
      <note Length="0.03125" Pitch="52" RiffPosition="8.46875" Velocity="37" />
      <note Length="0.0625" Pitch="49" RiffPosition="8.5" Velocity="31" />
      <note Length="0.03125" Pitch="43" RiffPosition="8.5625" Velocity="127" />
      <note Length="0.03125" Pitch="45" RiffPosition="8.59375" Velocity="50" />
      <note Length="0.03125" Pitch="47" RiffPosition="8.625" Velocity="82" />
      <note Length="0.03125" Pitch="34" RiffPosition="8.65625" Velocity="56" />
      <note Length="0.03125" Pitch="36" RiffPosition="8.6875" Velocity="0" />
      <note Length="0.03125" Pitch="44" RiffPosition="8.71875" Velocity="74" />
      <note Length="0.046875" Pitch="41" RiffPosition="8.75" Velocity="104" />
      <note Length="0.015625" Pitch="41" RiffPosition="8.796875" Velocity="62" />
      <note Length="0.03125" Pitch="39" RiffPosition="8.8125" Velocity="0" />
      <note Length="0.03125" Pitch="47" RiffPosition="8.84375" Velocity="45" />
      <note Length="0.0625" Pitch="49" RiffPosition="8.875" Velocity="43" />
      <note Length="0.03125" Pitch="47" RiffPosition="8.9375" Velocity="95" />
      <note Length="0.03125" Pitch="50" RiffPosition="8.96875" Velocity="54" />
      <note Length="0.0625" Pitch="52" RiffPosition="9" Velocity="54" />
      <note Length="0.03125" Pitch="41" RiffPosition="9.0625" Velocity="85" />
      <note Length="0.03125" Pitch="48" RiffPosition="9.09375" Velocity="50" />
      <note Length="0.03125" Pitch="45" RiffPosition="9.125" Velocity="82" />
      <note Length="0.03125" Pitch="37" RiffPosition="9.15625" Velocity="66" />
      <note Length="0.03125" Pitch="34" RiffPosition="9.1875" Velocity="107" />
      <note Length="0.03125" Pitch="42" RiffPosition="9.21875" Velocity="48" />
      <note Length="0.046875" Pitch="44" RiffPosition="9.25" Velocity="104" />
      <note Length="0.015625" Pitch="44" RiffPosition="9.296875" Velocity="62" />
      <note Length="0.03125" Pitch="43" RiffPosition="9.3125" Velocity="54" />
      <note Length="0.03125" Pitch="44" RiffPosition="9.34375" Velocity="77" />
      <note Length="0.0625" Pitch="47" RiffPosition="9.375" Velocity="119" />
      <note Length="0.03125" Pitch="45" RiffPosition="9.4375" Velocity="95" />
      <note Length="0.03125" Pitch="53" RiffPosition="9.46875" Velocity="68" />
      <note Length="0.0625" Pitch="50" RiffPosition="9.5" Velocity="56" />
      <note Length="0.03125" Pitch="44" RiffPosition="9.5625" Velocity="127" />
      <note Length="0.03125" Pitch="46" RiffPosition="9.59375" Velocity="50" />
      <note Length="0.03125" Pitch="48" RiffPosition="9.625" Velocity="82" />
      <note Length="0.03125" Pitch="35" RiffPosition="9.65625" Velocity="0" />
      <note Length="0.03125" Pitch="37" RiffPosition="9.6875" Velocity="66" />
      <note Length="0.03125" Pitch="40" RiffPosition="9.71875" Velocity="0" />
      <note Length="0.046875" Pitch="42" RiffPosition="9.75" Velocity="104" />
      <note Length="0.015625" Pitch="42" RiffPosition="9.796875" Velocity="62" />
      <note Length="0.03125" Pitch="40" RiffPosition="9.8125" Velocity="0" />
      <note Length="0.03125" Pitch="47" RiffPosition="9.84375" Velocity="45" />
      <note Length="0.0625" Pitch="44" RiffPosition="9.875" Velocity="78" />
      <note Length="0.03125" Pitch="48" RiffPosition="9.9375" Velocity="95" />
      <note Length="0.03125" Pitch="51" RiffPosition="9.96875" Velocity="54" />
      <note Length="0.0625" Pitch="53" RiffPosition="10" Velocity="98" />
      <note Length="0.03125" Pitch="42" RiffPosition="10.0625" Velocity="85" />
      <note Length="0.03125" Pitch="49" RiffPosition="10.09375" Velocity="28" />
      <note Length="0.03125" Pitch="46" RiffPosition="10.125" Velocity="82" />
      <note Length="0.03125" Pitch="38" RiffPosition="10.15625" Velocity="0" />
      <note Length="0.03125" Pitch="35" RiffPosition="10.1875" Velocity="0" />
      <note Length="0.03125" Pitch="43" RiffPosition="10.21875" Velocity="48" />
      <note Length="0.046875" Pitch="40" RiffPosition="10.25" Velocity="0" />
      <note Length="0.015625" Pitch="40" RiffPosition="10.296875" Velocity="0" />
      <note Length="0.03125" Pitch="43" RiffPosition="10.3125" Velocity="54" />
      <note Length="0.03125" Pitch="45" RiffPosition="10.34375" Velocity="77" />
      <note Length="0.0625" Pitch="47" RiffPosition="10.375" Velocity="119" />
      <note Length="0.03125" Pitch="46" RiffPosition="10.4375" Velocity="95" />
      <note Length="0.03125" Pitch="54" RiffPosition="10.46875" Velocity="68" />
      <note Length="0.0625" Pitch="51" RiffPosition="10.5" Velocity="56" />
      <note Length="0.03125" Pitch="40" RiffPosition="10.5625" Velocity="0" />
      <note Length="0.03125" Pitch="47" RiffPosition="10.59375" Velocity="50" />
      <note Length="0.03125" Pitch="49" RiffPosition="10.625" Velocity="45" />
      <note Length="0.03125" Pitch="36" RiffPosition="10.65625" Velocity="0" />
      <note Length="0.03125" Pitch="38" RiffPosition="10.6875" Velocity="0" />
      <note Length="0.03125" Pitch="40" RiffPosition="10.71875" Velocity="0" />
      <note Length="0.046875" Pitch="43" RiffPosition="10.75" Velocity="104" />
      <note Length="0.015625" Pitch="43" RiffPosition="10.796875" Velocity="62" />
      <note Length="0.03125" Pitch="41" RiffPosition="10.8125" Velocity="96" />
      <note Length="0.03125" Pitch="48" RiffPosition="10.84375" Velocity="45" />
      <note Length="0.0625" Pitch="45" RiffPosition="10.875" Velocity="78" />
      <note Length="0.03125" Pitch="44" RiffPosition="10.9375" Velocity="95" />
      <note Length="0.03125" Pitch="52" RiffPosition="10.96875" Velocity="30" />
      <note Length="0.0625" Pitch="54" RiffPosition="11" Velocity="0" />
      <note Length="0.03125" Pitch="43" RiffPosition="11.0625" Velocity="0" />
      <note Length="0.03125" Pitch="44" RiffPosition="11.09375" Velocity="0" />
      <note Length="0.03125" Pitch="47" RiffPosition="11.125" Velocity="0" />
      <note Length="0.03125" Pitch="39" RiffPosition="11.15625" Velocity="0" />
      <note Length="0.03125" Pitch="35" RiffPosition="11.1875" Velocity="0" />
      <note Length="0.03125" Pitch="44" RiffPosition="11.21875" Velocity="0" />
      <note Length="0.046875" Pitch="40" RiffPosition="11.25" Velocity="0" />
      <note Length="0.015625" Pitch="40" RiffPosition="11.296875" Velocity="0" />
      <note Length="0.03125" Pitch="44" RiffPosition="11.3125" Velocity="0" />
      <note Length="0.03125" Pitch="46" RiffPosition="11.34375" Velocity="0" />
      <note Length="0.0625" Pitch="48" RiffPosition="11.375" Velocity="0" />
      <note Length="0.03125" Pitch="47" RiffPosition="11.4375" Velocity="0" />
      <note Length="0.03125" Pitch="49" RiffPosition="11.46875" Velocity="0" />
      <note Length="0.0625" Pitch="52" RiffPosition="11.5" Velocity="0" />
      <note Length="0.03125" Pitch="40" RiffPosition="11.5625" Velocity="0" />
      <note Length="0.03125" Pitch="48" RiffPosition="11.59375" Velocity="0" />
      <note Length="0.03125" Pitch="44" RiffPosition="11.625" Velocity="0" />
      <note Length="0.03125" Pitch="36" RiffPosition="11.65625" Velocity="0" />
      <note Length="0.03125" Pitch="39" RiffPosition="11.6875" Velocity="0" />
      <note Length="0.03125" Pitch="41" RiffPosition="11.71875" Velocity="0" />
      <note Length="0.046875" Pitch="44" RiffPosition="11.75" Velocity="0" />
      <note Length="0.015625" Pitch="44" RiffPosition="11.796875" Velocity="0" />
      <note Length="0.03125" Pitch="42" RiffPosition="11.8125" Velocity="0" />
      <note Length="0.03125" Pitch="49" RiffPosition="11.84375" Velocity="0" />
      <note Length="0.0625" Pitch="46" RiffPosition="11.875" Velocity="0" />
      <note Length="0.03125" Pitch="44" RiffPosition="11.9375" Velocity="0" />
      <note Length="0.03125" Pitch="52" RiffPosition="11.96875" Velocity="0" />
    </riff>
    <riff IsDrum="True" MidiInstrument="0" Tempo="136" Length="12">
      <note Length="0.03125" Pitch="43" RiffPosition="0" Velocity="0" />
      <note Length="0.03125" Pitch="44" RiffPosition="0.03125" Velocity="0" />
      <note Length="0.03125" Pitch="45" RiffPosition="0.0625" Velocity="0" />
      <note Length="0.03125" Pitch="36" RiffPosition="0.09375" Velocity="0" />
      <note Length="0.015625" Pitch="40" RiffPosition="0.125" Velocity="0" />
      <note Length="0.046875" Pitch="48" RiffPosition="0.140625" Velocity="0" />
      <note Length="0.03125" Pitch="48" RiffPosition="0.1875" Velocity="0" />
      <note Length="0.03125" Pitch="52" RiffPosition="0.21875" Velocity="0" />
      <note Length="0.015625" Pitch="43" RiffPosition="0.25" Velocity="0" />
      <note Length="0.046875" Pitch="49" RiffPosition="0.265625" Velocity="0" />
      <note Length="0.03125" Pitch="44" RiffPosition="0.3125" Velocity="0" />
      <note Length="0.03125" Pitch="46" RiffPosition="0.34375" Velocity="0" />
      <note Length="0.0625" Pitch="36" RiffPosition="0.375" Velocity="0" />
      <note Length="0.03125" Pitch="43" RiffPosition="0.4375" Velocity="0" />
      <note Length="0.03125" Pitch="46" RiffPosition="0.46875" Velocity="0" />
      <note Length="0.03125" Pitch="51" RiffPosition="0.5" Velocity="0" />
      <note Length="0.03125" Pitch="43" RiffPosition="0.53125" Velocity="0" />
      <note Length="0.03125" Pitch="45" RiffPosition="0.5625" Velocity="0" />
      <note Length="0.03125" Pitch="47" RiffPosition="0.59375" Velocity="0" />
      <note Length="0.03125" Pitch="47" RiffPosition="0.625" Velocity="0" />
      <note Length="0.03125" Pitch="48" RiffPosition="0.65625" Velocity="0" />
      <note Length="0.0625" Pitch="37" RiffPosition="0.6875" Velocity="0" />
      <note Length="0.03125" Pitch="42" RiffPosition="0.75" Velocity="0" />
      <note Length="0.03125" Pitch="45" RiffPosition="0.78125" Velocity="0" />
      <note Length="0.03125" Pitch="38" RiffPosition="0.8125" Velocity="0" />
      <note Length="0.03125" Pitch="44" RiffPosition="0.84375" Velocity="0" />
      <note Length="0.015625" Pitch="47" RiffPosition="0.875" Velocity="0" />
      <note Length="0.046875" Pitch="43" RiffPosition="0.890625" Velocity="0" />
      <note Length="0.03125" Pitch="52" RiffPosition="0.9375" Velocity="0" />
      <note Length="0.03125" Pitch="41" RiffPosition="0.96875" Velocity="0" />
      <note Length="0.015625" Pitch="42" RiffPosition="1" Velocity="0" />
      <note Length="0.046875" Pitch="47" RiffPosition="1.015625" Velocity="0" />
      <note Length="0.03125" Pitch="44" RiffPosition="1.0625" Velocity="0" />
      <note Length="0.03125" Pitch="46" RiffPosition="1.09375" Velocity="0" />
      <note Length="0.0625" Pitch="39" RiffPosition="1.125" Velocity="0" />
      <note Length="0.03125" Pitch="46" RiffPosition="1.1875" Velocity="0" />
      <note Length="0.03125" Pitch="50" RiffPosition="1.21875" Velocity="0" />
      <note Length="0.03125" Pitch="41" RiffPosition="1.25" Velocity="0" />
      <note Length="0.03125" Pitch="43" RiffPosition="1.28125" Velocity="0" />
      <note Length="0.03125" Pitch="44" RiffPosition="1.3125" Velocity="0" />
      <note Length="0.03125" Pitch="44" RiffPosition="1.34375" Velocity="0" />
      <note Length="0.03125" Pitch="46" RiffPosition="1.375" Velocity="0" />
      <note Length="0.03125" Pitch="37" RiffPosition="1.40625" Velocity="0" />
      <note Length="0.0625" Pitch="41" RiffPosition="1.4375" Velocity="0" />
      <note Length="0.03125" Pitch="49" RiffPosition="1.5" Velocity="0" />
      <note Length="0.03125" Pitch="53" RiffPosition="1.53125" Velocity="0" />
      <note Length="0.03125" Pitch="44" RiffPosition="1.5625" Velocity="0" />
      <note Length="0.03125" Pitch="45" RiffPosition="1.59375" Velocity="0" />
      <note Length="0.015625" Pitch="46" RiffPosition="1.625" Velocity="0" />
      <note Length="0.046875" Pitch="40" RiffPosition="1.640625" Velocity="0" />
      <note Length="0.03125" Pitch="35" RiffPosition="1.6875" Velocity="0" />
      <note Length="0.03125" Pitch="37" RiffPosition="1.71875" Velocity="0" />
      <note Length="0.015625" Pitch="40" RiffPosition="1.75" Velocity="0" />
      <note Length="0.046875" Pitch="36" RiffPosition="1.765625" Velocity="0" />
      <note Length="0.03125" Pitch="49" RiffPosition="1.8125" Velocity="0" />
      <note Length="0.03125" Pitch="42" RiffPosition="1.84375" Velocity="0" />
      <note Length="0.0625" Pitch="45" RiffPosition="1.875" Velocity="0" />
      <note Length="0.03125" Pitch="50" RiffPosition="1.9375" Velocity="0" />
      <note Length="0.03125" Pitch="51" RiffPosition="1.96875" Velocity="0" />
      <note Length="0.03125" Pitch="40" RiffPosition="2" Velocity="0" />
      <note Length="0.03125" Pitch="41" RiffPosition="2.03125" Velocity="0" />
      <note Length="0.03125" Pitch="43" RiffPosition="2.0625" Velocity="0" />
      <note Length="0.03125" Pitch="45" RiffPosition="2.09375" Velocity="0" />
      <note Length="0.03125" Pitch="37" RiffPosition="2.125" Velocity="0" />
      <note Length="0.03125" Pitch="41" RiffPosition="2.15625" Velocity="0" />
      <note Length="0.0625" Pitch="45" RiffPosition="2.1875" Velocity="0" />
      <note Length="0.03125" Pitch="51" RiffPosition="2.25" Velocity="0" />
      <note Length="0.03125" Pitch="41" RiffPosition="2.28125" Velocity="0" />
      <note Length="0.03125" Pitch="42" RiffPosition="2.3125" Velocity="0" />
      <note Length="0.03125" Pitch="43" RiffPosition="2.34375" Velocity="0" />
      <note Length="0.015625" Pitch="44" RiffPosition="2.375" Velocity="0" />
      <note Length="0.046875" Pitch="40" RiffPosition="2.390625" Velocity="0" />
      <note Length="0.03125" Pitch="39" RiffPosition="2.4375" Velocity="0" />
      <note Length="0.03125" Pitch="44" RiffPosition="2.46875" Velocity="0" />
      <note Length="0.015625" Pitch="48" RiffPosition="2.5" Velocity="0" />
      <note Length="0.046875" Pitch="44" RiffPosition="2.515625" Velocity="0" />
      <note Length="0.03125" Pitch="43" RiffPosition="2.5625" Velocity="0" />
      <note Length="0.03125" Pitch="44" RiffPosition="2.59375" Velocity="0" />
      <note Length="0.0625" Pitch="44" RiffPosition="2.625" Velocity="0" />
      <note Length="0.03125" Pitch="45" RiffPosition="2.6875" Velocity="0" />
      <note Length="0.03125" Pitch="35" RiffPosition="2.71875" Velocity="0" />
      <note Length="0.03125" Pitch="38" RiffPosition="2.75" Velocity="0" />
      <note Length="0.03125" Pitch="43" RiffPosition="2.78125" Velocity="0" />
      <note Length="0.03125" Pitch="47" RiffPosition="2.8125" Velocity="0" />
      <note Length="0.03125" Pitch="52" RiffPosition="2.84375" Velocity="0" />
      <note Length="0.03125" Pitch="44" RiffPosition="2.875" Velocity="0" />
      <note Length="0.03125" Pitch="47" RiffPosition="2.90625" Velocity="0" />
      <note Length="0.0625" Pitch="49" RiffPosition="2.9375" Velocity="0" />
      <note Length="0.03125" Pitch="38" RiffPosition="3" Velocity="0" />
      <note Length="0.03125" Pitch="39" RiffPosition="3.03125" Velocity="0" />
      <note Length="0.03125" Pitch="41" RiffPosition="3.0625" Velocity="0" />
      <note Length="0.03125" Pitch="44" RiffPosition="3.09375" Velocity="0" />
      <note Length="0.015625" Pitch="47" RiffPosition="3.125" Velocity="0" />
      <note Length="0.046875" Pitch="44" RiffPosition="3.140625" Velocity="0" />
      <note Length="0.03125" Pitch="44" RiffPosition="3.1875" Velocity="0" />
      <note Length="0.03125" Pitch="47" RiffPosition="3.21875" Velocity="0" />
      <note Length="0.015625" Pitch="49" RiffPosition="3.25" Velocity="0" />
      <note Length="0.046875" Pitch="44" RiffPosition="3.265625" Velocity="0" />
      <note Length="0.03125" Pitch="40" RiffPosition="3.3125" Velocity="0" />
      <note Length="0.03125" Pitch="41" RiffPosition="3.34375" Velocity="0" />
      <note Length="0.0625" Pitch="43" RiffPosition="3.375" Velocity="0" />
      <note Length="0.03125" Pitch="38" RiffPosition="3.4375" Velocity="0" />
      <note Length="0.03125" Pitch="42" RiffPosition="3.46875" Velocity="0" />
      <note Length="0.03125" Pitch="46" RiffPosition="3.5" Velocity="0" />
      <note Length="0.03125" Pitch="50" RiffPosition="3.53125" Velocity="0" />
      <note Length="0.03125" Pitch="53" RiffPosition="3.5625" Velocity="0" />
      <note Length="0.03125" Pitch="43" RiffPosition="3.59375" Velocity="0" />
      <note Length="0.03125" Pitch="43" RiffPosition="3.625" Velocity="0" />
      <note Length="0.03125" Pitch="44" RiffPosition="3.65625" Velocity="0" />
      <note Length="0.0625" Pitch="44" RiffPosition="3.6875" Velocity="0" />
      <note Length="0.03125" Pitch="36" RiffPosition="3.75" Velocity="0" />
      <note Length="0.03125" Pitch="41" RiffPosition="3.78125" Velocity="0" />
      <note Length="0.03125" Pitch="45" RiffPosition="3.8125" Velocity="0" />
      <note Length="0.03125" Pitch="50" RiffPosition="3.84375" Velocity="0" />
      <note Length="0.015625" Pitch="43" RiffPosition="3.875" Velocity="0" />
      <note Length="0.046875" Pitch="50" RiffPosition="3.890625" Velocity="0" />
      <note Length="0.03125" Pitch="47" RiffPosition="3.9375" Velocity="0" />
      <note Length="0.03125" Pitch="48" RiffPosition="3.96875" Velocity="0" />
      <note Length="0.015625" Pitch="48" RiffPosition="4" Velocity="0" />
      <note Length="0.046875" Pitch="43" RiffPosition="4.015625" Velocity="0" />
      <note Length="0.03125" Pitch="39" RiffPosition="4.0625" Velocity="0" />
      <note Length="0.03125" Pitch="42" RiffPosition="4.09375" Velocity="0" />
      <note Length="0.0625" Pitch="45" RiffPosition="4.125" Velocity="0" />
      <note Length="0.03125" Pitch="42" RiffPosition="4.1875" Velocity="0" />
      <note Length="0.03125" Pitch="45" RiffPosition="4.21875" Velocity="0" />
      <note Length="0.03125" Pitch="48" RiffPosition="4.25" Velocity="0" />
      <note Length="0.03125" Pitch="49" RiffPosition="4.28125" Velocity="0" />
      <note Length="0.03125" Pitch="39" RiffPosition="4.3125" Velocity="0" />
      <note Length="0.03125" Pitch="40" RiffPosition="4.34375" Velocity="0" />
      <note Length="0.03125" Pitch="42" RiffPosition="4.375" Velocity="0" />
      <note Length="0.03125" Pitch="44" RiffPosition="4.40625" Velocity="0" />
      <note Length="0.0625" Pitch="48" RiffPosition="4.4375" Velocity="0" />
      <note Length="0.03125" Pitch="44" RiffPosition="4.5" Velocity="0" />
      <note Length="0.03125" Pitch="48" RiffPosition="4.53125" Velocity="0" />
      <note Length="0.03125" Pitch="51" RiffPosition="4.5625" Velocity="0" />
      <note Length="0.03125" Pitch="41" RiffPosition="4.59375" Velocity="0" />
      <note Length="0.015625" Pitch="42" RiffPosition="4.625" Velocity="0" />
      <note Length="0.046875" Pitch="47" RiffPosition="4.640625" Velocity="0" />
      <note Length="0.03125" Pitch="43" RiffPosition="4.6875" Velocity="0" />
      <note Length="0.03125" Pitch="44" RiffPosition="4.71875" Velocity="0" />
      <note Length="0.015625" Pitch="35" RiffPosition="4.75" Velocity="0" />
      <note Length="0.046875" Pitch="43" RiffPosition="4.765625" Velocity="0" />
      <note Length="0.03125" Pitch="44" RiffPosition="4.8125" Velocity="0" />
      <note Length="0.03125" Pitch="49" RiffPosition="4.84375" Velocity="0" />
      <note Length="0.0625" Pitch="53" RiffPosition="4.875" Velocity="0" />
      <note Length="0.03125" Pitch="45" RiffPosition="4.9375" Velocity="0" />
      <note Length="0.03125" Pitch="46" RiffPosition="4.96875" Velocity="0" />
      <note Length="0.03125" Pitch="47" RiffPosition="5" Velocity="0" />
      <note Length="0.03125" Pitch="36" RiffPosition="5.03125" Velocity="0" />
      <note Length="0.03125" Pitch="38" RiffPosition="5.0625" Velocity="0" />
      <note Length="0.03125" Pitch="41" RiffPosition="5.09375" Velocity="0" />
      <note Length="0.03125" Pitch="44" RiffPosition="5.125" Velocity="0" />
      <note Length="0.03125" Pitch="48" RiffPosition="5.15625" Velocity="0" />
      <note Length="0.0625" Pitch="41" RiffPosition="5.1875" Velocity="0" />
      <note Length="0.03125" Pitch="46" RiffPosition="5.25" Velocity="0" />
      <note Length="0.03125" Pitch="48" RiffPosition="5.28125" Velocity="0" />
      <note Length="0.03125" Pitch="49" RiffPosition="5.3125" Velocity="0" />
      <note Length="0.03125" Pitch="38" RiffPosition="5.34375" Velocity="0" />
      <note Length="0.015625" Pitch="40" RiffPosition="5.375" Velocity="0" />
      <note Length="0.046875" Pitch="47" RiffPosition="5.390625" Velocity="0" />
      <note Length="0.03125" Pitch="46" RiffPosition="5.4375" Velocity="0" />
      <note Length="0.03125" Pitch="39" RiffPosition="5.46875" Velocity="0" />
      <note Length="0.015625" Pitch="44" RiffPosition="5.5" Velocity="0" />
      <note Length="0.046875" Pitch="51" RiffPosition="5.515625" Velocity="0" />
      <note Length="0.03125" Pitch="49" RiffPosition="5.5625" Velocity="0" />
      <note Length="0.03125" Pitch="51" RiffPosition="5.59375" Velocity="0" />
      <note Length="0.0625" Pitch="40" RiffPosition="5.625" Velocity="0" />
      <note Length="0.03125" Pitch="41" RiffPosition="5.6875" Velocity="0" />
      <note Length="0.03125" Pitch="43" RiffPosition="5.71875" Velocity="0" />
      <note Length="0.03125" Pitch="45" RiffPosition="5.75" Velocity="0" />
      <note Length="0.03125" Pitch="38" RiffPosition="5.78125" Velocity="0" />
      <note Length="0.03125" Pitch="43" RiffPosition="5.8125" Velocity="0" />
      <note Length="0.03125" Pitch="47" RiffPosition="5.84375" Velocity="0" />
      <note Length="0.03125" Pitch="51" RiffPosition="5.875" Velocity="0" />
      <note Length="0.03125" Pitch="43" RiffPosition="5.90625" Velocity="0" />
      <note Length="0.0625" Pitch="44" RiffPosition="5.9375" Velocity="0" />
      <note Length="0.03125" Pitch="45" RiffPosition="6" Velocity="0" />
      <note Length="0.03125" Pitch="46" RiffPosition="6.03125" Velocity="0" />
      <note Length="0.03125" Pitch="36" RiffPosition="6.0625" Velocity="0" />
      <note Length="0.03125" Pitch="39" RiffPosition="6.09375" Velocity="0" />
      <note Length="0.015625" Pitch="43" RiffPosition="6.125" Velocity="0" />
      <note Length="0.046875" Pitch="39" RiffPosition="6.140625" Velocity="0" />
      <note Length="0.03125" Pitch="51" RiffPosition="6.1875" Velocity="0" />
      <note Length="0.03125" Pitch="43" RiffPosition="6.21875" Velocity="0" />
      <note Length="0.015625" Pitch="44" RiffPosition="6.25" Velocity="0" />
      <note Length="0.046875" Pitch="52" RiffPosition="6.265625" Velocity="0" />
      <note Length="0.03125" Pitch="47" RiffPosition="6.3125" Velocity="0" />
      <note Length="0.03125" Pitch="36" RiffPosition="6.34375" Velocity="0" />
      <note Length="0.0625" Pitch="38" RiffPosition="6.375" Velocity="0" />
      <note Length="0.03125" Pitch="44" RiffPosition="6.4375" Velocity="0" />
      <note Length="0.03125" Pitch="49" RiffPosition="6.46875" Velocity="0" />
      <note Length="0.03125" Pitch="42" RiffPosition="6.5" Velocity="0" />
      <note Length="0.03125" Pitch="45" RiffPosition="6.53125" Velocity="0" />
      <note Length="0.03125" Pitch="48" RiffPosition="6.5625" Velocity="0" />
      <note Length="0.03125" Pitch="49" RiffPosition="6.59375" Velocity="0" />
      <note Length="0.03125" Pitch="50" RiffPosition="6.625" Velocity="0" />
      <note Length="0.03125" Pitch="38" RiffPosition="6.65625" Velocity="0" />
      <note Length="0.0625" Pitch="39" RiffPosition="6.6875" Velocity="0" />
      <note Length="0.03125" Pitch="44" RiffPosition="6.75" Velocity="0" />
      <note Length="0.03125" Pitch="36" RiffPosition="6.78125" Velocity="0" />
      <note Length="0.03125" Pitch="41" RiffPosition="6.8125" Velocity="0" />
      <note Length="0.03125" Pitch="45" RiffPosition="6.84375" Velocity="0" />
      <note Length="0.015625" Pitch="50" RiffPosition="6.875" Velocity="0" />
      <note Length="0.046875" Pitch="45" RiffPosition="6.890625" Velocity="0" />
      <note Length="0.03125" Pitch="43" RiffPosition="6.9375" Velocity="0" />
      <note Length="0.03125" Pitch="44" RiffPosition="6.96875" Velocity="0" />
      <note Length="0.015625" Pitch="44" RiffPosition="7" Velocity="79" />
      <note Length="0.046875" Pitch="38" RiffPosition="7.015625" Velocity="0" />
      <note Length="0.03125" Pitch="46" RiffPosition="7.0625" Velocity="57" />
      <note Length="0.03125" Pitch="37" RiffPosition="7.09375" Velocity="62" />
      <note Length="0.0625" Pitch="41" RiffPosition="7.125" Velocity="67" />
      <note Length="0.03125" Pitch="49" RiffPosition="7.1875" Velocity="46" />
      <note Length="0.03125" Pitch="41" RiffPosition="7.21875" Velocity="85" />
      <note Length="0.03125" Pitch="44" RiffPosition="7.25" Velocity="80" />
      <note Length="0.03125" Pitch="44" RiffPosition="7.28125" Velocity="52" />
      <note Length="0.03125" Pitch="45" RiffPosition="7.3125" Velocity="57" />
      <note Length="0.03125" Pitch="46" RiffPosition="7.34375" Velocity="81" />
      <note Length="0.03125" Pitch="37" RiffPosition="7.375" Velocity="98" />
      <note Length="0.03125" Pitch="40" RiffPosition="7.40625" Velocity="0" />
      <note Length="0.0625" Pitch="44" RiffPosition="7.4375" Velocity="85" />
      <note Length="0.03125" Pitch="52" RiffPosition="7.5" Velocity="42" />
      <note Length="0.03125" Pitch="44" RiffPosition="7.53125" Velocity="71" />
      <note Length="0.03125" Pitch="46" RiffPosition="7.5625" Velocity="64" />
      <note Length="0.03125" Pitch="48" RiffPosition="7.59375" Velocity="45" />
      <note Length="0.015625" Pitch="48" RiffPosition="7.625" Velocity="75" />
      <note Length="0.046875" Pitch="43" RiffPosition="7.640625" Velocity="78" />
      <note Length="0.03125" Pitch="37" RiffPosition="7.6875" Velocity="49" />
      <note Length="0.03125" Pitch="39" RiffPosition="7.71875" Velocity="0" />
      <note Length="0.015625" Pitch="42" RiffPosition="7.75" Velocity="96" />
      <note Length="0.046875" Pitch="38" RiffPosition="7.765625" Velocity="0" />
      <note Length="0.03125" Pitch="39" RiffPosition="7.8125" Velocity="0" />
      <note Length="0.03125" Pitch="44" RiffPosition="7.84375" Velocity="64" />
      <note Length="0.0625" Pitch="48" RiffPosition="7.875" Velocity="67" />
      <note Length="0.03125" Pitch="53" RiffPosition="7.9375" Velocity="124" />
      <note Length="0.03125" Pitch="42" RiffPosition="7.96875" Velocity="112" />
      <note Length="0.03125" Pitch="43" RiffPosition="8" Velocity="79" />
      <note Length="0.03125" Pitch="43" RiffPosition="8.03125" Velocity="51" />
      <note Length="0.03125" Pitch="44" RiffPosition="8.0625" Velocity="57" />
      <note Length="0.03125" Pitch="35" RiffPosition="8.09375" Velocity="0" />
      <note Length="0.03125" Pitch="39" RiffPosition="8.125" Velocity="0" />
      <note Length="0.03125" Pitch="44" RiffPosition="8.15625" Velocity="91" />
      <note Length="0.0625" Pitch="47" RiffPosition="8.1875" Velocity="84" />
      <note Length="0.03125" Pitch="42" RiffPosition="8.25" Velocity="80" />
      <note Length="0.03125" Pitch="43" RiffPosition="8.28125" Velocity="52" />
      <note Length="0.03125" Pitch="44" RiffPosition="8.3125" Velocity="57" />
      <note Length="0.03125" Pitch="45" RiffPosition="8.34375" Velocity="81" />
      <note Length="0.015625" Pitch="47" RiffPosition="8.375" Velocity="98" />
      <note Length="0.046875" Pitch="43" RiffPosition="8.390625" Velocity="95" />
      <note Length="0.03125" Pitch="42" RiffPosition="8.4375" Velocity="85" />
      <note Length="0.03125" Pitch="45" RiffPosition="8.46875" Velocity="41" />
      <note Length="0.015625" Pitch="50" RiffPosition="8.5" Velocity="77" />
      <note Length="0.046875" Pitch="46" RiffPosition="8.515625" Velocity="74" />
      <note Length="0.03125" Pitch="44" RiffPosition="8.5625" Velocity="64" />
      <note Length="0.03125" Pitch="46" RiffPosition="8.59375" Velocity="45" />
      <note Length="0.0625" Pitch="47" RiffPosition="8.625" Velocity="75" />
      <note Length="0.03125" Pitch="36" RiffPosition="8.6875" Velocity="0" />
      <note Length="0.03125" Pitch="38" RiffPosition="8.71875" Velocity="0" />
      <note Length="0.03125" Pitch="41" RiffPosition="8.75" Velocity="96" />
      <note Length="0.03125" Pitch="44" RiffPosition="8.78125" Velocity="102" />
      <note Length="0.03125" Pitch="49" RiffPosition="8.8125" Velocity="60" />
      <note Length="0.03125" Pitch="43" RiffPosition="8.84375" Velocity="64" />
      <note Length="0.03125" Pitch="46" RiffPosition="8.875" Velocity="67" />
      <note Length="0.03125" Pitch="49" RiffPosition="8.90625" Velocity="53" />
      <note Length="0.0625" Pitch="51" RiffPosition="8.9375" Velocity="124" />
      <note Length="0.03125" Pitch="41" RiffPosition="9" Velocity="79" />
      <note Length="0.03125" Pitch="42" RiffPosition="9.03125" Velocity="51" />
      <note Length="0.03125" Pitch="44" RiffPosition="9.0625" Velocity="57" />
      <note Length="0.03125" Pitch="46" RiffPosition="9.09375" Velocity="62" />
      <note Length="0.015625" Pitch="38" RiffPosition="9.125" Velocity="0" />
      <note Length="0.046875" Pitch="45" RiffPosition="9.140625" Velocity="81" />
      <note Length="0.03125" Pitch="46" RiffPosition="9.1875" Velocity="84" />
      <note Length="0.03125" Pitch="49" RiffPosition="9.21875" Velocity="47" />
      <note Length="0.015625" Pitch="52" RiffPosition="9.25" Velocity="44" />
      <note Length="0.046875" Pitch="46" RiffPosition="9.265625" Velocity="66" />
      <note Length="0.03125" Pitch="43" RiffPosition="9.3125" Velocity="57" />
      <note Length="0.03125" Pitch="44" RiffPosition="9.34375" Velocity="81" />
      <note Length="0.0625" Pitch="45" RiffPosition="9.375" Velocity="98" />
      <note Length="0.03125" Pitch="40" RiffPosition="9.4375" Velocity="0" />
      <note Length="0.03125" Pitch="44" RiffPosition="9.46875" Velocity="41" />
      <note Length="0.03125" Pitch="48" RiffPosition="9.5" Velocity="77" />
      <note Length="0.03125" Pitch="53" RiffPosition="9.53125" Velocity="71" />
      <note Length="0.03125" Pitch="44" RiffPosition="9.5625" Velocity="64" />
      <note Length="0.03125" Pitch="44" RiffPosition="9.59375" Velocity="45" />
      <note Length="0.03125" Pitch="45" RiffPosition="9.625" Velocity="75" />
      <note Length="0.03125" Pitch="45" RiffPosition="9.65625" Velocity="77" />
      <note Length="0.0625" Pitch="46" RiffPosition="9.6875" Velocity="49" />
      <note Length="0.03125" Pitch="39" RiffPosition="9.75" Velocity="0" />
      <note Length="0.03125" Pitch="44" RiffPosition="9.78125" Velocity="102" />
      <note Length="0.03125" Pitch="48" RiffPosition="9.8125" Velocity="109" />
      <note Length="0.03125" Pitch="41" RiffPosition="9.84375" Velocity="64" />
      <note Length="0.015625" Pitch="45" RiffPosition="9.875" Velocity="67" />
      <note Length="0.046875" Pitch="53" RiffPosition="9.890625" Velocity="81" />
      <note Length="0.03125" Pitch="50" RiffPosition="9.9375" Velocity="124" />
      <note Length="0.03125" Pitch="50" RiffPosition="9.96875" Velocity="112" />
      <note Length="0.015625" Pitch="39" RiffPosition="10" Velocity="0" />
      <note Length="0.046875" Pitch="45" RiffPosition="10.015625" Velocity="65" />
      <note Length="0.03125" Pitch="42" RiffPosition="10.0625" Velocity="57" />
      <note Length="0.03125" Pitch="44" RiffPosition="10.09375" Velocity="62" />
      <note Length="0.0625" Pitch="48" RiffPosition="10.125" Velocity="67" />
      <note Length="0.03125" Pitch="44" RiffPosition="10.1875" Velocity="84" />
      <note Length="0.03125" Pitch="48" RiffPosition="10.21875" Velocity="85" />
      <note Length="0.03125" Pitch="50" RiffPosition="10.25" Velocity="80" />
      <note Length="0.03125" Pitch="40" RiffPosition="10.28125" Velocity="0" />
      <note Length="0.03125" Pitch="41" RiffPosition="10.3125" Velocity="57" />
      <note Length="0.03125" Pitch="42" RiffPosition="10.34375" Velocity="81" />
      <note Length="0.03125" Pitch="44" RiffPosition="10.375" Velocity="98" />
      <note Length="0.03125" Pitch="46" RiffPosition="10.40625" Velocity="91" />
      <note Length="0.0625" Pitch="38" RiffPosition="10.4375" Velocity="0" />
      <note Length="0.03125" Pitch="47" RiffPosition="10.5" Velocity="77" />
      <note Length="0.03125" Pitch="51" RiffPosition="10.53125" Velocity="71" />
      <note Length="0.03125" Pitch="54" RiffPosition="10.5625" Velocity="64" />
      <note Length="0.03125" Pitch="44" RiffPosition="10.59375" Velocity="45" />
      <note Length="0.015625" Pitch="44" RiffPosition="10.625" Velocity="75" />
      <note Length="0.046875" Pitch="38" RiffPosition="10.640625" Velocity="0" />
      <note Length="0.03125" Pitch="44" RiffPosition="10.6875" Velocity="49" />
      <note Length="0.03125" Pitch="34" RiffPosition="10.71875" Velocity="66" />
      <note Length="0.015625" Pitch="37" RiffPosition="10.75" Velocity="96" />
      <note Length="0.046875" Pitch="45" RiffPosition="10.765625" Velocity="99" />
      <note Length="0.03125" Pitch="46" RiffPosition="10.8125" Velocity="109" />
      <note Length="0.03125" Pitch="51" RiffPosition="10.84375" Velocity="64" />
      <note Length="0.0625" Pitch="44" RiffPosition="10.875" Velocity="67" />
      <note Length="0.03125" Pitch="48" RiffPosition="10.9375" Velocity="124" />
      <note Length="0.03125" Pitch="49" RiffPosition="10.96875" Velocity="62" />
      <note Length="0.03125" Pitch="49" RiffPosition="11" Velocity="0" />
      <note Length="0.03125" Pitch="38" RiffPosition="11.03125" Velocity="0" />
      <note Length="0.03125" Pitch="40" RiffPosition="11.0625" Velocity="0" />
      <note Length="0.03125" Pitch="43" RiffPosition="11.09375" Velocity="0" />
      <note Length="0.03125" Pitch="46" RiffPosition="11.125" Velocity="0" />
      <note Length="0.03125" Pitch="39" RiffPosition="11.15625" Velocity="0" />
      <note Length="0.0625" Pitch="43" RiffPosition="11.1875" Velocity="0" />
      <note Length="0.03125" Pitch="49" RiffPosition="11.25" Velocity="0" />
      <note Length="0.03125" Pitch="50" RiffPosition="11.28125" Velocity="0" />
      <note Length="0.03125" Pitch="39" RiffPosition="11.3125" Velocity="0" />
      <note Length="0.03125" Pitch="41" RiffPosition="11.34375" Velocity="0" />
      <note Length="0.015625" Pitch="43" RiffPosition="11.375" Velocity="0" />
      <note Length="0.046875" Pitch="38" RiffPosition="11.390625" Velocity="0" />
      <note Length="0.03125" Pitch="48" RiffPosition="11.4375" Velocity="0" />
      <note Length="0.03125" Pitch="41" RiffPosition="11.46875" Velocity="0" />
      <note Length="0.015625" Pitch="45" RiffPosition="11.5" Velocity="0" />
      <note Length="0.046875" Pitch="42" RiffPosition="11.515625" Velocity="0" />
      <note Length="0.03125" Pitch="52" RiffPosition="11.5625" Velocity="0" />
      <note Length="0.03125" Pitch="42" RiffPosition="11.59375" Velocity="0" />
      <note Length="0.0625" Pitch="42" RiffPosition="11.625" Velocity="0" />
      <note Length="0.03125" Pitch="43" RiffPosition="11.6875" Velocity="0" />
      <note Length="0.03125" Pitch="44" RiffPosition="11.71875" Velocity="0" />
      <note Length="0.03125" Pitch="36" RiffPosition="11.75" Velocity="0" />
      <note Length="0.03125" Pitch="40" RiffPosition="11.78125" Velocity="0" />
      <note Length="0.03125" Pitch="44" RiffPosition="11.8125" Velocity="0" />
      <note Length="0.03125" Pitch="50" RiffPosition="11.84375" Velocity="0" />
      <note Length="0.03125" Pitch="42" RiffPosition="11.875" Velocity="0" />
      <note Length="0.03125" Pitch="44" RiffPosition="11.90625" Velocity="0" />
      <note Length="0.0625" Pitch="46" RiffPosition="11.9375" Velocity="0" />
    </riff>
  </riffPack>
  <lyrics>
    <line>****** ****** ****** ******</line>
    <line>****** ****** ****** ******</line>
    <line>l.a.'s gunpowder (pow)</line>
    <line>watch the seventh wave</line>
    <line>cause the loving ain't the same</line>
    <line>there is no space between these minor chords</line>
    <line>****** ****** ****** ******</line>
    <line>****** ****** ****** ******</line>
    <line>****** ****** ****** ******</line>
    <line>cause the gal dem want the all night train, yow...</line>
    <line>every hero to the help, i'll be right here waiting</line>
    <line>until it sounded like a (lovely) symphony</line>
    <line>we bare silicosis the fruits of our perseverance</line>
    <line>i hope it stops your precious heart</line>
    <line>i can see you all rocking cause you know when it's live, word</line>
    <line>until it sounded like a (lovely) symphony</line>
    <line>watch the sorcerer awaken, millennium of evil dreams</line>
    <line>i hope it stops your precious heart</line>
    <line>until it sounded like a (lovely) symphony</line>
    <line>i hope it stops your precious heart</line>
    <line>until it sounded like a (lovely) symphony</line>
    <line>i hope it stops your precious heart</line>
    <line>****** ****** ****** ******</line>
    <line>****** ****** ****** ******</line>
    <line>****** ****** ****** ******</line>
    <line>****** ****** ****** ******</line>
    <line>****** ****** ****** ******</line>
    <line>****** ****** ****** ******</line>
  </lyrics>
  <lyricsSongFactoryCollection>
    <lyricSongFactory BarCount="28" BarCountPerChorus="2">
      <barInfo>
        <bar Intensity="0" LetterCount="16" />
        <bar Intensity="0" LetterCount="16" />
        <bar Intensity="0.2" LetterCount="16" />
        <bar Intensity="0.1764706" LetterCount="22" />
        <bar Intensity="0.1647059" LetterCount="30" />
        <bar Intensity="0.1764706" LetterCount="42" />
        <bar Intensity="0" LetterCount="16" />
        <bar Intensity="0" LetterCount="25" />
        <bar Intensity="0" LetterCount="31" />
        <bar Intensity="0.4705882" LetterCount="47" />
        <bar Intensity="0.7764706" LetterCount="48" />
        <bar Intensity="1" LetterCount="35" />
        <bar Intensity="0.8352941" LetterCount="48" />
        <bar Intensity="1" LetterCount="34" />
        <bar Intensity="0.8352941" LetterCount="54" />
        <bar Intensity="1" LetterCount="34" />
        <bar Intensity="0.8235294" LetterCount="50" />
        <bar Intensity="1" LetterCount="41" />
        <bar Intensity="1" LetterCount="44" />
        <bar Intensity="1" LetterCount="39" />
        <bar Intensity="1" LetterCount="46" />
        <bar Intensity="1" LetterCount="46" />
        <bar Intensity="1" LetterCount="38" />
        <bar Intensity="0" LetterCount="39" />
        <bar Intensity="0" LetterCount="51" />
        <bar Intensity="0" LetterCount="51" />
        <bar Intensity="0" LetterCount="51" />
        <bar Intensity="0" LetterCount="51" />
      </barInfo>
      <themeList>
        <theme>nature</theme>
        <theme>fantastic</theme>
        <theme>love</theme>
        <theme>music</theme>
      </themeList>
      <themeBlackList>
        <theme>sex</theme>
        <theme>racism</theme>
        <theme>social</theme>
        <theme>exclamation</theme>
        <theme>swearing</theme>
        <theme>gangsta</theme>
      </themeBlackList>
    </lyricSongFactory>
  </lyricsSongFactoryCollection>
  <predefinedGenerator BarCount="28" IsOverrideScale="True" IsOverrideTempo="True" Modulation="0" ScaleName="minorPentatonic" Tempo="102" LyricsToMusicPhase="0">
    <predefinedGeneratorTrack MetaRiffPackName="PianoClassic">
      <barInfo isOn="True" />
      <barInfo isOn="True" />
      <barInfo isOn="True" />
      <barInfo isOn="True" />
      <barInfo isOn="True" />
      <barInfo isOn="False" />
      <barInfo isOn="True" />
      <barInfo isOn="True" />
      <barInfo isOn="True" />
      <barInfo isOn="True" />
      <barInfo isOn="True" />
      <barInfo isOn="False" />
      <barInfo isOn="False" />
      <barInfo isOn="False" />
      <barInfo isOn="False" />
      <barInfo isOn="False" />
      <barInfo isOn="False" />
      <barInfo isOn="False" />
      <barInfo isOn="False" />
      <barInfo isOn="False" />
      <barInfo isOn="False" />
      <barInfo isOn="False" />
      <barInfo isOn="False" />
      <barInfo isOn="False" />
      <barInfo isOn="False" />
      <barInfo isOn="False" />
      <barInfo isOn="False" />
      <barInfo isOn="False" />
    </predefinedGeneratorTrack>
    <predefinedGeneratorTrack MetaRiffPackName="MeditativeChina">
      <barInfo isOn="False" />
      <barInfo isOn="False" />
      <barInfo isOn="True" />
      <barInfo isOn="True" />
      <barInfo isOn="True" />
      <barInfo isOn="False" />
      <barInfo isOn="False" />
      <barInfo isOn="False" />
      <barInfo isOn="False" />
      <barInfo isOn="False" />
      <barInfo isOn="False" />
      <barInfo isOn="True" />
      <barInfo isOn="False" />
      <barInfo isOn="False" />
      <barInfo isOn="False" />
      <barInfo isOn="False" />
      <barInfo isOn="False" />
      <barInfo isOn="False" />
      <barInfo isOn="False" />
      <barInfo isOn="False" />
      <barInfo isOn="False" />
      <barInfo isOn="False" />
      <barInfo isOn="False" />
      <barInfo isOn="False" />
      <barInfo isOn="False" />
      <barInfo isOn="False" />
      <barInfo isOn="False" />
      <barInfo isOn="False" />
    </predefinedGeneratorTrack>
    <predefinedGeneratorTrack MetaRiffPackName="DrumSnareQuad">
      <barInfo isOn="False" />
      <barInfo isOn="False" />
      <barInfo isOn="False" />
      <barInfo isOn="True" />
      <barInfo isOn="True" />
      <barInfo isOn="True" />
      <barInfo isOn="True" />
      <barInfo isOn="True" />
      <barInfo isOn="True" />
      <barInfo isOn="False" />
      <barInfo isOn="False" />
      <barInfo isOn="True" />
      <barInfo isOn="False" />
      <barInfo isOn="False" />
      <barInfo isOn="False" />
      <barInfo isOn="False" />
      <barInfo isOn="False" />
      <barInfo isOn="False" />
      <barInfo isOn="False" />
      <barInfo isOn="False" />
      <barInfo isOn="False" />
      <barInfo isOn="False" />
      <barInfo isOn="False" />
      <barInfo isOn="False" />
      <barInfo isOn="False" />
      <barInfo isOn="False" />
      <barInfo isOn="False" />
      <barInfo isOn="False" />
    </predefinedGeneratorTrack>
    <predefinedGeneratorTrack MetaRiffPackName="BassSynth">
      <barInfo isOn="False" />
      <barInfo isOn="False" />
      <barInfo isOn="False" />
      <barInfo isOn="True" />
      <barInfo isOn="True" />
      <barInfo isOn="True" />
      <barInfo isOn="True" />
      <barInfo isOn="True" />
      <barInfo isOn="True" />
      <barInfo isOn="True" />
      <barInfo isOn="True" />
      <barInfo isOn="True" />
      <barInfo isOn="False" />
      <barInfo isOn="False" />
      <barInfo isOn="False" />
      <barInfo isOn="False" />
      <barInfo isOn="False" />
      <barInfo isOn="False" />
      <barInfo isOn="False" />
      <barInfo isOn="False" />
      <barInfo isOn="False" />
      <barInfo isOn="False" />
      <barInfo isOn="False" />
      <barInfo isOn="False" />
      <barInfo isOn="False" />
      <barInfo isOn="False" />
      <barInfo isOn="False" />
      <barInfo isOn="False" />
    </predefinedGeneratorTrack>
    <predefinedGeneratorTrack MetaRiffPackName="MeditativeChina">
      <barInfo isOn="False" />
      <barInfo isOn="False" />
      <barInfo isOn="False" />
      <barInfo isOn="False" />
      <barInfo isOn="False" />
      <barInfo isOn="True" />
      <barInfo isOn="True" />
      <barInfo isOn="True" />
      <barInfo isOn="True" />
      <barInfo isOn="True" />
      <barInfo isOn="True" />
      <barInfo isOn="False" />
      <barInfo isOn="False" />
      <barInfo isOn="False" />
      <barInfo isOn="False" />
      <barInfo isOn="False" />
      <barInfo isOn="False" />
      <barInfo isOn="False" />
      <barInfo isOn="False" />
      <barInfo isOn="False" />
      <barInfo isOn="False" />
      <barInfo isOn="False" />
      <barInfo isOn="False" />
      <barInfo isOn="False" />
      <barInfo isOn="False" />
      <barInfo isOn="False" />
      <barInfo isOn="False" />
      <barInfo isOn="False" />
    </predefinedGeneratorTrack>
    <predefinedGeneratorTrack MetaRiffPackName="GuitarMetalBlack">
      <barInfo isOn="False" />
      <barInfo isOn="False" />
      <barInfo isOn="False" />
      <barInfo isOn="False" />
      <barInfo isOn="False" />
      <barInfo isOn="True" />
      <barInfo isOn="True" />
      <barInfo isOn="True" />
      <barInfo isOn="True" />
      <barInfo isOn="True" />
      <barInfo isOn="True" />
      <barInfo isOn="False" />
      <barInfo isOn="False" />
      <barInfo isOn="False" />
      <barInfo isOn="False" />
      <barInfo isOn="False" />
      <barInfo isOn="False" />
      <barInfo isOn="False" />
      <barInfo isOn="False" />
      <barInfo isOn="False" />
      <barInfo isOn="False" />
      <barInfo isOn="False" />
      <barInfo isOn="False" />
      <barInfo isOn="False" />
      <barInfo isOn="False" />
      <barInfo isOn="False" />
      <barInfo isOn="False" />
      <barInfo isOn="False" />
    </predefinedGeneratorTrack>
    <predefinedGeneratorTrack MetaRiffPackName="DrumSnareOcta">
      <barInfo isOn="False" />
      <barInfo isOn="False" />
      <barInfo isOn="False" />
      <barInfo isOn="False" />
      <barInfo isOn="False" />
      <barInfo isOn="False" />
      <barInfo isOn="False" />
      <barInfo isOn="False" />
      <barInfo isOn="False" />
      <barInfo isOn="True" />
      <barInfo isOn="True" />
      <barInfo isOn="False" />
      <barInfo isOn="False" />
      <barInfo isOn="False" />
      <barInfo isOn="False" />
      <barInfo isOn="False" />
      <barInfo isOn="False" />
      <barInfo isOn="False" />
      <barInfo isOn="False" />
      <barInfo isOn="False" />
      <barInfo isOn="False" />
      <barInfo isOn="False" />
      <barInfo isOn="False" />
      <barInfo isOn="False" />
      <barInfo isOn="False" />
      <barInfo isOn="False" />
      <barInfo isOn="False" />
      <barInfo isOn="False" />
    </predefinedGeneratorTrack>
    <predefinedGeneratorTrack MetaRiffPackName="DrumBassQuad">
      <barInfo isOn="False" />
      <barInfo isOn="False" />
      <barInfo isOn="False" />
      <barInfo isOn="False" />
      <barInfo isOn="False" />
      <barInfo isOn="False" />
      <barInfo isOn="False" />
      <barInfo isOn="False" />
      <barInfo isOn="False" />
      <barInfo isOn="True" />
      <barInfo isOn="True" />
      <barInfo isOn="False" />
      <barInfo isOn="False" />
      <barInfo isOn="False" />
      <barInfo isOn="False" />
      <barInfo isOn="False" />
      <barInfo isOn="False" />
      <barInfo isOn="False" />
      <barInfo isOn="False" />
      <barInfo isOn="False" />
      <barInfo isOn="False" />
      <barInfo isOn="False" />
      <barInfo isOn="False" />
      <barInfo isOn="False" />
      <barInfo isOn="False" />
      <barInfo isOn="False" />
      <barInfo isOn="False" />
      <barInfo isOn="False" />
    </predefinedGeneratorTrack>
    <predefinedGeneratorTrack MetaRiffPackName="DrumQuad">
      <barInfo isOn="False" />
      <barInfo isOn="False" />
      <barInfo isOn="False" />
      <barInfo isOn="False" />
      <barInfo isOn="False" />
      <barInfo isOn="False" />
      <barInfo isOn="False" />
      <barInfo isOn="True" />
      <barInfo isOn="True" />
      <barInfo isOn="True" />
      <barInfo isOn="True" />
      <barInfo isOn="False" />
      <barInfo isOn="False" />
      <barInfo isOn="False" />
      <barInfo isOn="False" />
      <barInfo isOn="False" />
      <barInfo isOn="False" />
      <barInfo isOn="False" />
      <barInfo isOn="False" />
      <barInfo isOn="False" />
      <barInfo isOn="False" />
      <barInfo isOn="False" />
      <barInfo isOn="False" />
      <barInfo isOn="False" />
      <barInfo isOn="False" />
      <barInfo isOn="False" />
      <barInfo isOn="False" />
      <barInfo isOn="False" />
    </predefinedGeneratorTrack>
  </predefinedGenerator>
</song>