<?xml version="1.0" encoding="UTF-8"?>
<song>
  <riffPack Tempo="134">
    <riff IsDrum="False" MidiInstrument="0" Tempo="123" Length="14">
      <note Length="0.09375" Pitch="72" RiffPosition="0" Velocity="105" />
      <note Length="0.015625" Pitch="63" RiffPosition="0.09375" Velocity="58" />
      <note Length="0.015625" Pitch="72" RiffPosition="0.109375" Velocity="42" />
      <note Length="0.0625" Pitch="70" RiffPosition="0.125" Velocity="94" />
      <note Length="0.0625" Pitch="38" RiffPosition="0.1875" Velocity="114" />
      <note Length="0.09375" Pitch="67" RiffPosition="0.25" Velocity="89" />
      <note Length="0.015625" Pitch="63" RiffPosition="0.34375" Velocity="48" />
      <note Length="0.015625" Pitch="74" RiffPosition="0.359375" Velocity="57" />
      <note Length="0.0625" Pitch="72" RiffPosition="0.375" Velocity="103" />
      <note Length="0.0625" Pitch="41" RiffPosition="0.4375" Velocity="77" />
      <note Length="0.09375" Pitch="67" RiffPosition="0.5" Velocity="111" />
      <note Length="0.015625" Pitch="60" RiffPosition="0.59375" Velocity="62" />
      <note Length="0.015625" Pitch="72" RiffPosition="0.609375" Velocity="48" />
      <note Length="0.0625" Pitch="70" RiffPosition="0.625" Velocity="90" />
      <note Length="0.0625" Pitch="45" RiffPosition="0.6875" Velocity="118" />
      <note Length="0.09375" Pitch="70" RiffPosition="0.75" Velocity="85" />
      <note Length="0.015625" Pitch="57" RiffPosition="0.84375" Velocity="52" />
      <note Length="0.015625" Pitch="67" RiffPosition="0.859375" Velocity="53" />
      <note Length="0.0625" Pitch="65" RiffPosition="0.875" Velocity="109" />
      <note Length="0.0625" Pitch="41" RiffPosition="0.9375" Velocity="81" />
      <note Length="0.09375" Pitch="72" RiffPosition="1" Velocity="107" />
      <note Length="0.015625" Pitch="63" RiffPosition="1.09375" Velocity="57" />
      <note Length="0.015625" Pitch="72" RiffPosition="1.109375" Velocity="44" />
      <note Length="0.0625" Pitch="70" RiffPosition="1.125" Velocity="85" />
      <note Length="0.0625" Pitch="38" RiffPosition="1.1875" Velocity="112" />
      <note Length="0.09375" Pitch="67" RiffPosition="1.25" Velocity="90" />
      <note Length="0.015625" Pitch="63" RiffPosition="1.34375" Velocity="46" />
      <note Length="0.015625" Pitch="74" RiffPosition="1.359375" Velocity="58" />
      <note Length="0.0625" Pitch="72" RiffPosition="1.375" Velocity="105" />
      <note Length="0.0625" Pitch="41" RiffPosition="1.4375" Velocity="85" />
      <note Length="0.09375" Pitch="67" RiffPosition="1.5" Velocity="112" />
      <note Length="0.015625" Pitch="60" RiffPosition="1.59375" Velocity="61" />
      <note Length="0.015625" Pitch="72" RiffPosition="1.609375" Velocity="49" />
      <note Length="0.0625" Pitch="70" RiffPosition="1.625" Velocity="91" />
      <note Length="0.0625" Pitch="45" RiffPosition="1.6875" Velocity="116" />
      <note Length="0.09375" Pitch="70" RiffPosition="1.75" Velocity="86" />
      <note Length="0.015625" Pitch="57" RiffPosition="1.84375" Velocity="51" />
      <note Length="0.015625" Pitch="67" RiffPosition="1.859375" Velocity="54" />
      <note Length="0.0625" Pitch="65" RiffPosition="1.875" Velocity="110" />
      <note Length="0.0625" Pitch="41" RiffPosition="1.9375" Velocity="79" />
      <note Length="0.09375" Pitch="72" RiffPosition="2" Velocity="108" />
      <note Length="0.015625" Pitch="63" RiffPosition="2.09375" Velocity="55" />
      <note Length="0.015625" Pitch="72" RiffPosition="2.109375" Velocity="45" />
      <note Length="0.0625" Pitch="70" RiffPosition="2.125" Velocity="87" />
      <note Length="0.0625" Pitch="38" RiffPosition="2.1875" Velocity="111" />
      <note Length="0.09375" Pitch="67" RiffPosition="2.25" Velocity="92" />
      <note Length="0.015625" Pitch="63" RiffPosition="2.34375" Velocity="55" />
      <note Length="0.015625" Pitch="74" RiffPosition="2.359375" Velocity="60" />
      <note Length="0.0625" Pitch="72" RiffPosition="2.375" Velocity="106" />
      <note Length="0.0625" Pitch="41" RiffPosition="2.4375" Velocity="83" />
      <note Length="0.09375" Pitch="67" RiffPosition="2.5" Velocity="104" />
      <note Length="0.015625" Pitch="60" RiffPosition="2.59375" Velocity="59" />
      <note Length="0.015625" Pitch="72" RiffPosition="2.609375" Velocity="41" />
      <note Length="0.0625" Pitch="70" RiffPosition="2.625" Velocity="92" />
      <note Length="0.0625" Pitch="45" RiffPosition="2.6875" Velocity="115" />
      <note Length="0.09375" Pitch="70" RiffPosition="2.75" Velocity="88" />
      <note Length="0.015625" Pitch="57" RiffPosition="2.84375" Velocity="49" />
      <note Length="0.015625" Pitch="67" RiffPosition="2.859375" Velocity="56" />
      <note Length="0.0625" Pitch="65" RiffPosition="2.875" Velocity="102" />
      <note Length="0.0625" Pitch="41" RiffPosition="2.9375" Velocity="78" />
      <note Length="0.09375" Pitch="72" RiffPosition="3" Velocity="110" />
      <note Length="0.015625" Pitch="63" RiffPosition="3.09375" Velocity="54" />
      <note Length="0.015625" Pitch="72" RiffPosition="3.109375" Velocity="46" />
      <note Length="0.0625" Pitch="70" RiffPosition="3.125" Velocity="88" />
      <note Length="0.0625" Pitch="38" RiffPosition="3.1875" Velocity="119" />
      <note Length="0.09375" Pitch="67" RiffPosition="3.25" Velocity="93" />
      <note Length="0.015625" Pitch="63" RiffPosition="3.34375" Velocity="53" />
      <note Length="0.015625" Pitch="74" RiffPosition="3.359375" Velocity="61" />
      <note Length="0.0625" Pitch="72" RiffPosition="3.375" Velocity="107" />
      <note Length="0.0625" Pitch="41" RiffPosition="3.4375" Velocity="82" />
      <note Length="0.09375" Pitch="67" RiffPosition="3.5" Velocity="106" />
      <note Length="0.015625" Pitch="60" RiffPosition="3.59375" Velocity="58" />
      <note Length="0.015625" Pitch="72" RiffPosition="3.609375" Velocity="42" />
      <note Length="0.0625" Pitch="70" RiffPosition="3.625" Velocity="94" />
      <note Length="0.0625" Pitch="45" RiffPosition="3.6875" Velocity="113" />
      <note Length="0.09375" Pitch="70" RiffPosition="3.75" Velocity="89" />
      <note Length="0.015625" Pitch="57" RiffPosition="3.84375" Velocity="48" />
      <note Length="0.015625" Pitch="67" RiffPosition="3.859375" Velocity="57" />
      <note Length="0.0625" Pitch="65" RiffPosition="3.875" Velocity="103" />
      <note Length="0.0625" Pitch="41" RiffPosition="3.9375" Velocity="86" />
      <note Length="0.09375" Pitch="72" RiffPosition="4" Velocity="111" />
      <note Length="0.015625" Pitch="63" RiffPosition="4.09375" Velocity="62" />
      <note Length="0.015625" Pitch="72" RiffPosition="4.109375" Velocity="48" />
      <note Length="0.0625" Pitch="70" RiffPosition="4.125" Velocity="90" />
      <note Length="0.0625" Pitch="38" RiffPosition="4.1875" Velocity="117" />
      <note Length="0.09375" Pitch="67" RiffPosition="4.25" Velocity="85" />
      <note Length="0.015625" Pitch="63" RiffPosition="4.34375" Velocity="52" />
      <note Length="0.015625" Pitch="74" RiffPosition="4.359375" Velocity="53" />
      <note Length="0.0625" Pitch="72" RiffPosition="4.375" Velocity="109" />
      <note Length="0.0625" Pitch="41" RiffPosition="4.4375" Velocity="80" />
      <note Length="0.09375" Pitch="67" RiffPosition="4.5" Velocity="107" />
      <note Length="0.015625" Pitch="60" RiffPosition="4.59375" Velocity="56" />
      <note Length="0.015625" Pitch="72" RiffPosition="4.609375" Velocity="44" />
      <note Length="0.0625" Pitch="70" RiffPosition="4.625" Velocity="86" />
      <note Length="0.0625" Pitch="45" RiffPosition="4.6875" Velocity="112" />
      <note Length="0.09375" Pitch="70" RiffPosition="4.75" Velocity="90" />
      <note Length="0.015625" Pitch="57" RiffPosition="4.84375" Velocity="46" />
      <note Length="0.015625" Pitch="67" RiffPosition="4.859375" Velocity="58" />
      <note Length="0.0625" Pitch="65" RiffPosition="4.875" Velocity="105" />
      <note Length="0.0625" Pitch="41" RiffPosition="4.9375" Velocity="84" />
      <note Length="0.09375" Pitch="72" RiffPosition="5" Velocity="112" />
      <note Length="0.015625" Pitch="63" RiffPosition="5.09375" Velocity="60" />
      <note Length="0.015625" Pitch="72" RiffPosition="5.109375" Velocity="49" />
      <note Length="0.0625" Pitch="70" RiffPosition="5.125" Velocity="91" />
      <note Length="0.0625" Pitch="38" RiffPosition="5.1875" Velocity="116" />
      <note Length="0.09375" Pitch="67" RiffPosition="5.25" Velocity="86" />
      <note Length="0.015625" Pitch="63" RiffPosition="5.34375" Velocity="50" />
      <note Length="0.015625" Pitch="74" RiffPosition="5.359375" Velocity="54" />
      <note Length="0.0625" Pitch="72" RiffPosition="5.375" Velocity="110" />
      <note Length="0.0625" Pitch="41" RiffPosition="5.4375" Velocity="79" />
      <note Length="0.09375" Pitch="67" RiffPosition="5.5" Velocity="108" />
      <note Length="0.015625" Pitch="60" RiffPosition="5.59375" Velocity="55" />
      <note Length="0.015625" Pitch="72" RiffPosition="5.609375" Velocity="45" />
      <note Length="0.0625" Pitch="70" RiffPosition="5.625" Velocity="87" />
      <note Length="0.0625" Pitch="45" RiffPosition="5.6875" Velocity="120" />
      <note Length="0.09375" Pitch="70" RiffPosition="5.75" Velocity="92" />
      <note Length="0.015625" Pitch="57" RiffPosition="5.84375" Velocity="54" />
      <note Length="0.015625" Pitch="67" RiffPosition="5.859375" Velocity="60" />
      <note Length="0.0625" Pitch="65" RiffPosition="5.875" Velocity="106" />
      <note Length="0.0625" Pitch="41" RiffPosition="5.9375" Velocity="83" />
      <note Length="0.09375" Pitch="72" RiffPosition="6" Velocity="104" />
      <note Length="0.015625" Pitch="63" RiffPosition="6.09375" Velocity="59" />
      <note Length="0.015625" Pitch="72" RiffPosition="6.109375" Velocity="41" />
      <note Length="0.0625" Pitch="70" RiffPosition="6.125" Velocity="93" />
      <note Length="0.0625" Pitch="38" RiffPosition="6.1875" Velocity="114" />
      <note Length="0.09375" Pitch="67" RiffPosition="6.25" Velocity="88" />
      <note Length="0.015625" Pitch="63" RiffPosition="6.34375" Velocity="49" />
      <note Length="0.015625" Pitch="74" RiffPosition="6.359375" Velocity="56" />
      <note Length="0.0625" Pitch="72" RiffPosition="6.375" Velocity="102" />
      <note Length="0.0625" Pitch="41" RiffPosition="6.4375" Velocity="77" />
      <note Length="0.09375" Pitch="67" RiffPosition="6.5" Velocity="110" />
      <note Length="0.015625" Pitch="60" RiffPosition="6.59375" Velocity="54" />
      <note Length="0.015625" Pitch="72" RiffPosition="6.609375" Velocity="47" />
      <note Length="0.0625" Pitch="70" RiffPosition="6.625" Velocity="89" />
      <note Length="0.0625" Pitch="45" RiffPosition="6.6875" Velocity="119" />
      <note Length="0.09375" Pitch="70" RiffPosition="6.75" Velocity="93" />
      <note Length="0.015625" Pitch="57" RiffPosition="6.84375" Velocity="53" />
      <note Length="0.015625" Pitch="67" RiffPosition="6.859375" Velocity="61" />
      <note Length="0.0625" Pitch="65" RiffPosition="6.875" Velocity="108" />
      <note Length="0.0625" Pitch="41" RiffPosition="6.9375" Velocity="81" />
      <note Length="0.09375" Pitch="72" RiffPosition="7" Velocity="106" />
      <note Length="0.015625" Pitch="63" RiffPosition="7.09375" Velocity="58" />
      <note Length="0.015625" Pitch="72" RiffPosition="7.109375" Velocity="43" />
      <note Length="0.0625" Pitch="70" RiffPosition="7.125" Velocity="94" />
      <note Length="0.0625" Pitch="38" RiffPosition="7.1875" Velocity="113" />
      <note Length="0.09375" Pitch="67" RiffPosition="7.25" Velocity="89" />
      <note Length="0.015625" Pitch="63" RiffPosition="7.34375" Velocity="47" />
      <note Length="0.015625" Pitch="74" RiffPosition="7.359375" Velocity="57" />
      <note Length="0.0625" Pitch="72" RiffPosition="7.375" Velocity="104" />
      <note Length="0.0625" Pitch="41" RiffPosition="7.4375" Velocity="86" />
      <note Length="0.09375" Pitch="67" RiffPosition="7.5" Velocity="111" />
      <note Length="0.015625" Pitch="60" RiffPosition="7.59375" Velocity="62" />
      <note Length="0.015625" Pitch="72" RiffPosition="7.609375" Velocity="48" />
      <note Length="0.0625" Pitch="70" RiffPosition="7.625" Velocity="90" />
      <note Length="0.0625" Pitch="45" RiffPosition="7.6875" Velocity="117" />
      <note Length="0.09375" Pitch="70" RiffPosition="7.75" Velocity="85" />
      <note Length="0.015625" Pitch="57" RiffPosition="7.84375" Velocity="51" />
      <note Length="0.015625" Pitch="67" RiffPosition="7.859375" Velocity="53" />
      <note Length="0.0625" Pitch="65" RiffPosition="7.875" Velocity="109" />
      <note Length="0.0625" Pitch="41" RiffPosition="7.9375" Velocity="80" />
      <note Length="0.09375" Pitch="72" RiffPosition="8" Velocity="0" />
      <note Length="0.015625" Pitch="63" RiffPosition="8.09375" Velocity="0" />
      <note Length="0.015625" Pitch="72" RiffPosition="8.109375" Velocity="0" />
      <note Length="0.0625" Pitch="70" RiffPosition="8.125" Velocity="0" />
      <note Length="0.0625" Pitch="38" RiffPosition="8.1875" Velocity="0" />
      <note Length="0.09375" Pitch="67" RiffPosition="8.25" Velocity="0" />
      <note Length="0.015625" Pitch="63" RiffPosition="8.34375" Velocity="0" />
      <note Length="0.015625" Pitch="74" RiffPosition="8.359375" Velocity="0" />
      <note Length="0.0625" Pitch="72" RiffPosition="8.375" Velocity="0" />
      <note Length="0.0625" Pitch="41" RiffPosition="8.4375" Velocity="0" />
      <note Length="0.09375" Pitch="67" RiffPosition="8.5" Velocity="0" />
      <note Length="0.015625" Pitch="60" RiffPosition="8.59375" Velocity="0" />
      <note Length="0.015625" Pitch="72" RiffPosition="8.609375" Velocity="0" />
      <note Length="0.0625" Pitch="70" RiffPosition="8.625" Velocity="0" />
      <note Length="0.0625" Pitch="45" RiffPosition="8.6875" Velocity="0" />
      <note Length="0.09375" Pitch="70" RiffPosition="8.75" Velocity="0" />
      <note Length="0.015625" Pitch="57" RiffPosition="8.84375" Velocity="0" />
      <note Length="0.015625" Pitch="67" RiffPosition="8.859375" Velocity="0" />
      <note Length="0.0625" Pitch="65" RiffPosition="8.875" Velocity="0" />
      <note Length="0.0625" Pitch="41" RiffPosition="8.9375" Velocity="0" />
      <note Length="0.09375" Pitch="72" RiffPosition="9" Velocity="109" />
      <note Length="0.015625" Pitch="63" RiffPosition="9.09375" Velocity="55" />
      <note Length="0.015625" Pitch="72" RiffPosition="9.109375" Velocity="45" />
      <note Length="0.0625" Pitch="70" RiffPosition="9.125" Velocity="87" />
      <note Length="0.0625" Pitch="38" RiffPosition="9.1875" Velocity="120" />
      <note Length="0.09375" Pitch="67" RiffPosition="9.25" Velocity="92" />
      <note Length="0.015625" Pitch="63" RiffPosition="9.34375" Velocity="54" />
      <note Length="0.015625" Pitch="74" RiffPosition="9.359375" Velocity="60" />
      <note Length="0.0625" Pitch="72" RiffPosition="9.375" Velocity="107" />
      <note Length="0.0625" Pitch="41" RiffPosition="9.4375" Velocity="83" />
      <note Length="0.09375" Pitch="67" RiffPosition="9.5" Velocity="105" />
      <note Length="0.015625" Pitch="60" RiffPosition="9.59375" Velocity="59" />
      <note Length="0.015625" Pitch="72" RiffPosition="9.609375" Velocity="41" />
      <note Length="0.0625" Pitch="70" RiffPosition="9.625" Velocity="93" />
      <note Length="0.0625" Pitch="45" RiffPosition="9.6875" Velocity="114" />
      <note Length="0.09375" Pitch="70" RiffPosition="9.75" Velocity="88" />
      <note Length="0.015625" Pitch="57" RiffPosition="9.84375" Velocity="49" />
      <note Length="0.015625" Pitch="67" RiffPosition="9.859375" Velocity="56" />
      <note Length="0.0625" Pitch="65" RiffPosition="9.875" Velocity="103" />
      <note Length="0.0625" Pitch="41" RiffPosition="9.9375" Velocity="77" />
      <note Length="0.09375" Pitch="72" RiffPosition="10" Velocity="110" />
      <note Length="0.015625" Pitch="63" RiffPosition="10.09375" Velocity="53" />
      <note Length="0.015625" Pitch="72" RiffPosition="10.109375" Velocity="47" />
      <note Length="0.0625" Pitch="70" RiffPosition="10.125" Velocity="89" />
      <note Length="0.0625" Pitch="38" RiffPosition="10.1875" Velocity="118" />
      <note Length="0.09375" Pitch="67" RiffPosition="10.25" Velocity="84" />
      <note Length="0.015625" Pitch="63" RiffPosition="10.34375" Velocity="53" />
      <note Length="0.015625" Pitch="74" RiffPosition="10.359375" Velocity="62" />
      <note Length="0.0625" Pitch="72" RiffPosition="10.375" Velocity="108" />
      <note Length="0.0625" Pitch="41" RiffPosition="10.4375" Velocity="81" />
      <note Length="0.09375" Pitch="67" RiffPosition="10.5" Velocity="106" />
      <note Length="0.015625" Pitch="60" RiffPosition="10.59375" Velocity="57" />
      <note Length="0.015625" Pitch="72" RiffPosition="10.609375" Velocity="43" />
      <note Length="0.0625" Pitch="70" RiffPosition="10.625" Velocity="94" />
      <note Length="0.0625" Pitch="45" RiffPosition="10.6875" Velocity="113" />
      <note Length="0.09375" Pitch="70" RiffPosition="10.75" Velocity="89" />
      <note Length="0.015625" Pitch="57" RiffPosition="10.84375" Velocity="47" />
      <note Length="0.015625" Pitch="67" RiffPosition="10.859375" Velocity="58" />
      <note Length="0.0625" Pitch="65" RiffPosition="10.875" Velocity="104" />
      <note Length="0.0625" Pitch="41" RiffPosition="10.9375" Velocity="85" />
      <note Length="0.09375" Pitch="72" RiffPosition="11" Velocity="112" />
      <note Length="0.015625" Pitch="63" RiffPosition="11.09375" Velocity="61" />
      <note Length="0.015625" Pitch="72" RiffPosition="11.109375" Velocity="48" />
      <note Length="0.0625" Pitch="70" RiffPosition="11.125" Velocity="90" />
      <note Length="0.0625" Pitch="38" RiffPosition="11.1875" Velocity="117" />
      <note Length="0.09375" Pitch="67" RiffPosition="11.25" Velocity="85" />
      <note Length="0.015625" Pitch="63" RiffPosition="11.34375" Velocity="51" />
      <note Length="0.015625" Pitch="74" RiffPosition="11.359375" Velocity="54" />
      <note Length="0.0625" Pitch="72" RiffPosition="11.375" Velocity="109" />
      <note Length="0.0625" Pitch="41" RiffPosition="11.4375" Velocity="80" />
      <note Length="0.09375" Pitch="67" RiffPosition="11.5" Velocity="108" />
      <note Length="0.015625" Pitch="60" RiffPosition="11.59375" Velocity="56" />
      <note Length="0.015625" Pitch="72" RiffPosition="11.609375" Velocity="44" />
      <note Length="0.0625" Pitch="70" RiffPosition="11.625" Velocity="86" />
      <note Length="0.0625" Pitch="45" RiffPosition="11.6875" Velocity="111" />
      <note Length="0.09375" Pitch="70" RiffPosition="11.75" Velocity="91" />
      <note Length="0.015625" Pitch="57" RiffPosition="11.84375" Velocity="46" />
      <note Length="0.015625" Pitch="67" RiffPosition="11.859375" Velocity="59" />
      <note Length="0.0625" Pitch="65" RiffPosition="11.875" Velocity="105" />
      <note Length="0.0625" Pitch="41" RiffPosition="11.9375" Velocity="84" />
      <note Length="0.09375" Pitch="72" RiffPosition="12" Velocity="103" />
      <note Length="0.015625" Pitch="63" RiffPosition="12.09375" Velocity="60" />
      <note Length="0.015625" Pitch="72" RiffPosition="12.109375" Velocity="50" />
      <note Length="0.0625" Pitch="70" RiffPosition="12.125" Velocity="92" />
      <note Length="0.0625" Pitch="38" RiffPosition="12.1875" Velocity="115" />
      <note Length="0.09375" Pitch="67" RiffPosition="12.25" Velocity="87" />
      <note Length="0.015625" Pitch="63" RiffPosition="12.34375" Velocity="50" />
      <note Length="0.015625" Pitch="74" RiffPosition="12.359375" Velocity="55" />
      <note Length="0.0625" Pitch="72" RiffPosition="12.375" Velocity="111" />
      <note Length="0.0625" Pitch="41" RiffPosition="12.4375" Velocity="78" />
      <note Length="0.09375" Pitch="67" RiffPosition="12.5" Velocity="109" />
      <note Length="0.015625" Pitch="60" RiffPosition="12.59375" Velocity="54" />
      <note Length="0.015625" Pitch="72" RiffPosition="12.609375" Velocity="46" />
      <note Length="0.0625" Pitch="70" RiffPosition="12.625" Velocity="88" />
      <note Length="0.0625" Pitch="45" RiffPosition="12.6875" Velocity="119" />
      <note Length="0.09375" Pitch="70" RiffPosition="12.75" Velocity="92" />
      <note Length="0.015625" Pitch="57" RiffPosition="12.84375" Velocity="54" />
      <note Length="0.015625" Pitch="67" RiffPosition="12.859375" Velocity="60" />
      <note Length="0.0625" Pitch="65" RiffPosition="12.875" Velocity="107" />
      <note Length="0.0625" Pitch="41" RiffPosition="12.9375" Velocity="82" />
      <note Length="0.09375" Pitch="72" RiffPosition="13" Velocity="0" />
      <note Length="0.015625" Pitch="63" RiffPosition="13.09375" Velocity="0" />
      <note Length="0.015625" Pitch="72" RiffPosition="13.109375" Velocity="0" />
      <note Length="0.0625" Pitch="70" RiffPosition="13.125" Velocity="0" />
      <note Length="0.0625" Pitch="38" RiffPosition="13.1875" Velocity="0" />
      <note Length="0.09375" Pitch="67" RiffPosition="13.25" Velocity="0" />
      <note Length="0.015625" Pitch="63" RiffPosition="13.34375" Velocity="0" />
      <note Length="0.015625" Pitch="74" RiffPosition="13.359375" Velocity="0" />
      <note Length="0.0625" Pitch="72" RiffPosition="13.375" Velocity="0" />
      <note Length="0.0625" Pitch="41" RiffPosition="13.4375" Velocity="0" />
      <note Length="0.09375" Pitch="67" RiffPosition="13.5" Velocity="0" />
      <note Length="0.015625" Pitch="60" RiffPosition="13.59375" Velocity="0" />
      <note Length="0.015625" Pitch="72" RiffPosition="13.609375" Velocity="0" />
      <note Length="0.0625" Pitch="70" RiffPosition="13.625" Velocity="0" />
      <note Length="0.0625" Pitch="45" RiffPosition="13.6875" Velocity="0" />
      <note Length="0.09375" Pitch="70" RiffPosition="13.75" Velocity="0" />
      <note Length="0.015625" Pitch="57" RiffPosition="13.84375" Velocity="0" />
      <note Length="0.015625" Pitch="67" RiffPosition="13.859375" Velocity="0" />
      <note Length="0.0625" Pitch="65" RiffPosition="13.875" Velocity="0" />
      <note Length="0.0625" Pitch="41" RiffPosition="13.9375" Velocity="0" />
    </riff>
    <riff IsDrum="False" MidiInstrument="0" Tempo="94" Length="14">
      <note Length="0.03125" Pitch="45" RiffPosition="0" Velocity="35" />
      <note Length="0.03125" Pitch="36" RiffPosition="0.03125" Velocity="30" />
      <note Length="0.03125" Pitch="43" RiffPosition="0.0625" Velocity="101" />
      <note Length="0.03125" Pitch="58" RiffPosition="0.09375" Velocity="56" />
      <note Length="0.03125" Pitch="58" RiffPosition="0.125" Velocity="87" />
      <note Length="0.046875" Pitch="48" RiffPosition="0.15625" Velocity="79" />
      <note Length="0.046875" Pitch="58" RiffPosition="0.203125" Velocity="97" />
      <note Length="0.046875" Pitch="65" RiffPosition="0.25" Velocity="117" />
      <note Length="0.046875" Pitch="48" RiffPosition="0.296875" Velocity="69" />
      <note Length="0.015625" Pitch="63" RiffPosition="0.34375" Velocity="21" />
      <note Length="0.015625" Pitch="67" RiffPosition="0.359375" Velocity="43" />
      <note Length="0.03125" Pitch="65" RiffPosition="0.375" Velocity="51" />
      <note Length="0.03125" Pitch="57" RiffPosition="0.40625" Velocity="74" />
      <note Length="0.03125" Pitch="55" RiffPosition="0.4375" Velocity="53" />
      <note Length="0.03125" Pitch="69" RiffPosition="0.46875" Velocity="98" />
      <note Length="0.03125" Pitch="58" RiffPosition="0.5" Velocity="37" />
      <note Length="0.03125" Pitch="45" RiffPosition="0.53125" Velocity="74" />
      <note Length="0.03125" Pitch="43" RiffPosition="0.5625" Velocity="68" />
      <note Length="0.03125" Pitch="50" RiffPosition="0.59375" Velocity="100" />
      <note Length="0.03125" Pitch="45" RiffPosition="0.625" Velocity="55" />
      <note Length="0.046875" Pitch="33" RiffPosition="0.65625" Velocity="47" />
      <note Length="0.046875" Pitch="53" RiffPosition="0.703125" Velocity="53" />
      <note Length="0.046875" Pitch="70" RiffPosition="0.75" Velocity="74" />
      <note Length="0.046875" Pitch="60" RiffPosition="0.796875" Velocity="25" />
      <note Length="0.015625" Pitch="75" RiffPosition="0.84375" Velocity="63" />
      <note Length="0.015625" Pitch="77" RiffPosition="0.859375" Velocity="41" />
      <note Length="0.03125" Pitch="70" RiffPosition="0.875" Velocity="22" />
      <note Length="0.03125" Pitch="55" RiffPosition="0.90625" Velocity="30" />
      <note Length="0.03125" Pitch="45" RiffPosition="0.9375" Velocity="85" />
      <note Length="0.03125" Pitch="55" RiffPosition="0.96875" Velocity="54" />
      <note Length="0.03125" Pitch="45" RiffPosition="1" Velocity="47" />
      <note Length="0.03125" Pitch="36" RiffPosition="1.03125" Velocity="41" />
      <note Length="0.03125" Pitch="43" RiffPosition="1.0625" Velocity="112" />
      <note Length="0.03125" Pitch="58" RiffPosition="1.09375" Velocity="67" />
      <note Length="0.03125" Pitch="58" RiffPosition="1.125" Velocity="99" />
      <note Length="0.046875" Pitch="48" RiffPosition="1.15625" Velocity="26" />
      <note Length="0.046875" Pitch="58" RiffPosition="1.203125" Velocity="86" />
      <note Length="0.046875" Pitch="65" RiffPosition="1.25" Velocity="106" />
      <note Length="0.046875" Pitch="48" RiffPosition="1.296875" Velocity="58" />
      <note Length="0.015625" Pitch="63" RiffPosition="1.34375" Velocity="31" />
      <note Length="0.015625" Pitch="67" RiffPosition="1.359375" Velocity="32" />
      <note Length="0.03125" Pitch="65" RiffPosition="1.375" Velocity="62" />
      <note Length="0.03125" Pitch="57" RiffPosition="1.40625" Velocity="62" />
      <note Length="0.03125" Pitch="55" RiffPosition="1.4375" Velocity="41" />
      <note Length="0.03125" Pitch="69" RiffPosition="1.46875" Velocity="86" />
      <note Length="0.03125" Pitch="58" RiffPosition="1.5" Velocity="26" />
      <note Length="0.03125" Pitch="45" RiffPosition="1.53125" Velocity="85" />
      <note Length="0.03125" Pitch="43" RiffPosition="1.5625" Velocity="80" />
      <note Length="0.03125" Pitch="50" RiffPosition="1.59375" Velocity="111" />
      <note Length="0.03125" Pitch="45" RiffPosition="1.625" Velocity="66" />
      <note Length="0.046875" Pitch="33" RiffPosition="1.65625" Velocity="58" />
      <note Length="0.046875" Pitch="53" RiffPosition="1.703125" Velocity="42" />
      <note Length="0.046875" Pitch="70" RiffPosition="1.75" Velocity="62" />
      <note Length="0.046875" Pitch="60" RiffPosition="1.796875" Velocity="26" />
      <note Length="0.015625" Pitch="75" RiffPosition="1.84375" Velocity="42" />
      <note Length="0.015625" Pitch="77" RiffPosition="1.859375" Velocity="52" />
      <note Length="0.03125" Pitch="70" RiffPosition="1.875" Velocity="30" />
      <note Length="0.03125" Pitch="55" RiffPosition="1.90625" Velocity="22" />
      <note Length="0.03125" Pitch="45" RiffPosition="1.9375" Velocity="74" />
      <note Length="0.03125" Pitch="55" RiffPosition="1.96875" Velocity="42" />
      <note Length="0.03125" Pitch="45" RiffPosition="2" Velocity="58" />
      <note Length="0.03125" Pitch="36" RiffPosition="2.03125" Velocity="53" />
      <note Length="0.03125" Pitch="43" RiffPosition="2.0625" Velocity="124" />
      <note Length="0.03125" Pitch="58" RiffPosition="2.09375" Velocity="79" />
      <note Length="0.03125" Pitch="58" RiffPosition="2.125" Velocity="110" />
      <note Length="0.046875" Pitch="48" RiffPosition="2.15625" Velocity="26" />
      <note Length="0.046875" Pitch="58" RiffPosition="2.203125" Velocity="74" />
      <note Length="0.046875" Pitch="65" RiffPosition="2.25" Velocity="94" />
      <note Length="0.046875" Pitch="48" RiffPosition="2.296875" Velocity="46" />
      <note Length="0.015625" Pitch="63" RiffPosition="2.34375" Velocity="42" />
      <note Length="0.015625" Pitch="67" RiffPosition="2.359375" Velocity="20" />
      <note Length="0.03125" Pitch="65" RiffPosition="2.375" Velocity="43" />
      <note Length="0.03125" Pitch="57" RiffPosition="2.40625" Velocity="51" />
      <note Length="0.03125" Pitch="55" RiffPosition="2.4375" Velocity="30" />
      <note Length="0.03125" Pitch="69" RiffPosition="2.46875" Velocity="75" />
      <note Length="0.03125" Pitch="58" RiffPosition="2.5" Velocity="26" />
      <note Length="0.03125" Pitch="45" RiffPosition="2.53125" Velocity="20" />
      <note Length="0.03125" Pitch="43" RiffPosition="2.5625" Velocity="91" />
      <note Length="0.03125" Pitch="50" RiffPosition="2.59375" Velocity="123" />
      <note Length="0.03125" Pitch="45" RiffPosition="2.625" Velocity="78" />
      <note Length="0.046875" Pitch="33" RiffPosition="2.65625" Velocity="70" />
      <note Length="0.046875" Pitch="53" RiffPosition="2.703125" Velocity="30" />
      <note Length="0.046875" Pitch="70" RiffPosition="2.75" Velocity="127" />
      <note Length="0.046875" Pitch="60" RiffPosition="2.796875" Velocity="79" />
      <note Length="0.015625" Pitch="75" RiffPosition="2.84375" Velocity="30" />
      <note Length="0.015625" Pitch="77" RiffPosition="2.859375" Velocity="64" />
      <note Length="0.03125" Pitch="70" RiffPosition="2.875" Velocity="41" />
      <note Length="0.03125" Pitch="55" RiffPosition="2.90625" Velocity="83" />
      <note Length="0.03125" Pitch="45" RiffPosition="2.9375" Velocity="62" />
      <note Length="0.03125" Pitch="55" RiffPosition="2.96875" Velocity="31" />
      <note Length="0.03125" Pitch="45" RiffPosition="3" Velocity="46" />
      <note Length="0.03125" Pitch="36" RiffPosition="3.03125" Velocity="64" />
      <note Length="0.03125" Pitch="43" RiffPosition="3.0625" Velocity="59" />
      <note Length="0.03125" Pitch="58" RiffPosition="3.09375" Velocity="90" />
      <note Length="0.03125" Pitch="58" RiffPosition="3.125" Velocity="122" />
      <note Length="0.046875" Pitch="48" RiffPosition="3.15625" Velocity="37" />
      <note Length="0.046875" Pitch="58" RiffPosition="3.203125" Velocity="63" />
      <note Length="0.046875" Pitch="65" RiffPosition="3.25" Velocity="83" />
      <note Length="0.046875" Pitch="48" RiffPosition="3.296875" Velocity="35" />
      <note Length="0.015625" Pitch="63" RiffPosition="3.34375" Velocity="54" />
      <note Length="0.015625" Pitch="67" RiffPosition="3.359375" Velocity="31" />
      <note Length="0.03125" Pitch="65" RiffPosition="3.375" Velocity="31" />
      <note Length="0.03125" Pitch="57" RiffPosition="3.40625" Velocity="39" />
      <note Length="0.03125" Pitch="55" RiffPosition="3.4375" Velocity="95" />
      <note Length="0.03125" Pitch="69" RiffPosition="3.46875" Velocity="63" />
      <note Length="0.03125" Pitch="58" RiffPosition="3.5" Velocity="37" />
      <note Length="0.03125" Pitch="45" RiffPosition="3.53125" Velocity="32" />
      <note Length="0.03125" Pitch="43" RiffPosition="3.5625" Velocity="103" />
      <note Length="0.03125" Pitch="50" RiffPosition="3.59375" Velocity="58" />
      <note Length="0.03125" Pitch="45" RiffPosition="3.625" Velocity="89" />
      <note Length="0.046875" Pitch="33" RiffPosition="3.65625" Velocity="81" />
      <note Length="0.046875" Pitch="53" RiffPosition="3.703125" Velocity="95" />
      <note Length="0.046875" Pitch="70" RiffPosition="3.75" Velocity="115" />
      <note Length="0.046875" Pitch="60" RiffPosition="3.796875" Velocity="67" />
      <note Length="0.015625" Pitch="75" RiffPosition="3.84375" Velocity="21" />
      <note Length="0.015625" Pitch="77" RiffPosition="3.859375" Velocity="41" />
      <note Length="0.03125" Pitch="70" RiffPosition="3.875" Velocity="53" />
      <note Length="0.03125" Pitch="55" RiffPosition="3.90625" Velocity="72" />
      <note Length="0.03125" Pitch="45" RiffPosition="3.9375" Velocity="51" />
      <note Length="0.03125" Pitch="55" RiffPosition="3.96875" Velocity="96" />
      <note Length="0.03125" Pitch="45" RiffPosition="4" Velocity="35" />
      <note Length="0.03125" Pitch="36" RiffPosition="4.03125" Velocity="76" />
      <note Length="0.03125" Pitch="43" RiffPosition="4.0625" Velocity="70" />
      <note Length="0.03125" Pitch="58" RiffPosition="4.09375" Velocity="102" />
      <note Length="0.03125" Pitch="58" RiffPosition="4.125" Velocity="57" />
      <note Length="0.046875" Pitch="48" RiffPosition="4.15625" Velocity="49" />
      <note Length="0.046875" Pitch="58" RiffPosition="4.203125" Velocity="51" />
      <note Length="0.046875" Pitch="65" RiffPosition="4.25" Velocity="71" />
      <note Length="0.046875" Pitch="48" RiffPosition="4.296875" Velocity="23" />
      <note Length="0.015625" Pitch="63" RiffPosition="4.34375" Velocity="65" />
      <note Length="0.015625" Pitch="67" RiffPosition="4.359375" Velocity="43" />
      <note Length="0.03125" Pitch="65" RiffPosition="4.375" Velocity="20" />
      <note Length="0.03125" Pitch="57" RiffPosition="4.40625" Velocity="28" />
      <note Length="0.03125" Pitch="55" RiffPosition="4.4375" Velocity="83" />
      <note Length="0.03125" Pitch="69" RiffPosition="4.46875" Velocity="52" />
      <note Length="0.03125" Pitch="58" RiffPosition="4.5" Velocity="67" />
      <note Length="0.03125" Pitch="45" RiffPosition="4.53125" Velocity="43" />
      <note Length="0.03125" Pitch="43" RiffPosition="4.5625" Velocity="114" />
      <note Length="0.03125" Pitch="50" RiffPosition="4.59375" Velocity="69" />
      <note Length="0.03125" Pitch="45" RiffPosition="4.625" Velocity="101" />
      <note Length="0.046875" Pitch="33" RiffPosition="4.65625" Velocity="24" />
      <note Length="0.046875" Pitch="53" RiffPosition="4.703125" Velocity="84" />
      <note Length="0.046875" Pitch="70" RiffPosition="4.75" Velocity="104" />
      <note Length="0.046875" Pitch="60" RiffPosition="4.796875" Velocity="56" />
      <note Length="0.015625" Pitch="75" RiffPosition="4.84375" Velocity="33" />
      <note Length="0.015625" Pitch="77" RiffPosition="4.859375" Velocity="30" />
      <note Length="0.03125" Pitch="70" RiffPosition="4.875" Velocity="64" />
      <note Length="0.03125" Pitch="55" RiffPosition="4.90625" Velocity="60" />
      <note Length="0.03125" Pitch="45" RiffPosition="4.9375" Velocity="39" />
      <note Length="0.03125" Pitch="55" RiffPosition="4.96875" Velocity="84" />
      <note Length="0.03125" Pitch="45" RiffPosition="5" Velocity="23" />
      <note Length="0.03125" Pitch="36" RiffPosition="5.03125" Velocity="29" />
      <note Length="0.03125" Pitch="43" RiffPosition="5.0625" Velocity="82" />
      <note Length="0.03125" Pitch="58" RiffPosition="5.09375" Velocity="113" />
      <note Length="0.03125" Pitch="58" RiffPosition="5.125" Velocity="68" />
      <note Length="0.046875" Pitch="48" RiffPosition="5.15625" Velocity="60" />
      <note Length="0.046875" Pitch="58" RiffPosition="5.203125" Velocity="40" />
      <note Length="0.046875" Pitch="65" RiffPosition="5.25" Velocity="60" />
      <note Length="0.046875" Pitch="48" RiffPosition="5.296875" Velocity="28" />
      <note Length="0.015625" Pitch="63" RiffPosition="5.34375" Velocity="40" />
      <note Length="0.015625" Pitch="67" RiffPosition="5.359375" Velocity="54" />
      <note Length="0.03125" Pitch="65" RiffPosition="5.375" Velocity="32" />
      <note Length="0.03125" Pitch="57" RiffPosition="5.40625" Velocity="24" />
      <note Length="0.03125" Pitch="55" RiffPosition="5.4375" Velocity="72" />
      <note Length="0.03125" Pitch="69" RiffPosition="5.46875" Velocity="40" />
      <note Length="0.03125" Pitch="58" RiffPosition="5.5" Velocity="56" />
      <note Length="0.03125" Pitch="45" RiffPosition="5.53125" Velocity="55" />
      <note Length="0.03125" Pitch="43" RiffPosition="5.5625" Velocity="126" />
      <note Length="0.03125" Pitch="50" RiffPosition="5.59375" Velocity="81" />
      <note Length="0.03125" Pitch="45" RiffPosition="5.625" Velocity="112" />
      <note Length="0.046875" Pitch="33" RiffPosition="5.65625" Velocity="28" />
      <note Length="0.046875" Pitch="53" RiffPosition="5.703125" Velocity="72" />
      <note Length="0.046875" Pitch="70" RiffPosition="5.75" Velocity="92" />
      <note Length="0.046875" Pitch="60" RiffPosition="5.796875" Velocity="44" />
      <note Length="0.015625" Pitch="75" RiffPosition="5.84375" Velocity="44" />
      <note Length="0.015625" Pitch="77" RiffPosition="5.859375" Velocity="22" />
      <note Length="0.03125" Pitch="70" RiffPosition="5.875" Velocity="41" />
      <note Length="0.03125" Pitch="55" RiffPosition="5.90625" Velocity="49" />
      <note Length="0.03125" Pitch="45" RiffPosition="5.9375" Velocity="28" />
      <note Length="0.03125" Pitch="55" RiffPosition="5.96875" Velocity="73" />
      <note Length="0.03125" Pitch="45" RiffPosition="6" Velocity="28" />
      <note Length="0.03125" Pitch="36" RiffPosition="6.03125" Velocity="23" />
      <note Length="0.03125" Pitch="43" RiffPosition="6.0625" Velocity="93" />
      <note Length="0.03125" Pitch="58" RiffPosition="6.09375" Velocity="125" />
      <note Length="0.03125" Pitch="58" RiffPosition="6.125" Velocity="80" />
      <note Length="0.046875" Pitch="48" RiffPosition="6.15625" Velocity="72" />
      <note Length="0.046875" Pitch="58" RiffPosition="6.203125" Velocity="28" />
      <note Length="0.046875" Pitch="65" RiffPosition="6.25" Velocity="125" />
      <note Length="0.046875" Pitch="48" RiffPosition="6.296875" Velocity="76" />
      <note Length="0.015625" Pitch="63" RiffPosition="6.34375" Velocity="28" />
      <note Length="0.015625" Pitch="67" RiffPosition="6.359375" Velocity="66" />
      <note Length="0.03125" Pitch="65" RiffPosition="6.375" Velocity="43" />
      <note Length="0.03125" Pitch="57" RiffPosition="6.40625" Velocity="81" />
      <note Length="0.03125" Pitch="55" RiffPosition="6.4375" Velocity="60" />
      <note Length="0.03125" Pitch="69" RiffPosition="6.46875" Velocity="29" />
      <note Length="0.03125" Pitch="58" RiffPosition="6.5" Velocity="44" />
      <note Length="0.03125" Pitch="45" RiffPosition="6.53125" Velocity="67" />
      <note Length="0.03125" Pitch="43" RiffPosition="6.5625" Velocity="61" />
      <note Length="0.03125" Pitch="50" RiffPosition="6.59375" Velocity="92" />
      <note Length="0.03125" Pitch="45" RiffPosition="6.625" Velocity="124" />
      <note Length="0.046875" Pitch="33" RiffPosition="6.65625" Velocity="39" />
      <note Length="0.046875" Pitch="53" RiffPosition="6.703125" Velocity="61" />
      <note Length="0.046875" Pitch="70" RiffPosition="6.75" Velocity="81" />
      <note Length="0.046875" Pitch="60" RiffPosition="6.796875" Velocity="33" />
      <note Length="0.015625" Pitch="75" RiffPosition="6.84375" Velocity="56" />
      <note Length="0.015625" Pitch="77" RiffPosition="6.859375" Velocity="33" />
      <note Length="0.03125" Pitch="70" RiffPosition="6.875" Velocity="29" />
      <note Length="0.03125" Pitch="55" RiffPosition="6.90625" Velocity="37" />
      <note Length="0.03125" Pitch="45" RiffPosition="6.9375" Velocity="93" />
      <note Length="0.03125" Pitch="55" RiffPosition="6.96875" Velocity="61" />
      <note Length="0.03125" Pitch="45" RiffPosition="7" Velocity="40" />
      <note Length="0.03125" Pitch="36" RiffPosition="7.03125" Velocity="34" />
      <note Length="0.03125" Pitch="43" RiffPosition="7.0625" Velocity="105" />
      <note Length="0.03125" Pitch="58" RiffPosition="7.09375" Velocity="60" />
      <note Length="0.03125" Pitch="58" RiffPosition="7.125" Velocity="91" />
      <note Length="0.046875" Pitch="48" RiffPosition="7.15625" Velocity="83" />
      <note Length="0.046875" Pitch="58" RiffPosition="7.203125" Velocity="93" />
      <note Length="0.046875" Pitch="65" RiffPosition="7.25" Velocity="113" />
      <note Length="0.046875" Pitch="48" RiffPosition="7.296875" Velocity="65" />
      <note Length="0.015625" Pitch="63" RiffPosition="7.34375" Velocity="23" />
      <note Length="0.015625" Pitch="67" RiffPosition="7.359375" Velocity="39" />
      <note Length="0.03125" Pitch="65" RiffPosition="7.375" Velocity="55" />
      <note Length="0.03125" Pitch="57" RiffPosition="7.40625" Velocity="70" />
      <note Length="0.03125" Pitch="55" RiffPosition="7.4375" Velocity="49" />
      <note Length="0.03125" Pitch="69" RiffPosition="7.46875" Velocity="94" />
      <note Length="0.03125" Pitch="58" RiffPosition="7.5" Velocity="33" />
      <note Length="0.03125" Pitch="45" RiffPosition="7.53125" Velocity="78" />
      <note Length="0.03125" Pitch="43" RiffPosition="7.5625" Velocity="73" />
      <note Length="0.03125" Pitch="50" RiffPosition="7.59375" Velocity="104" />
      <note Length="0.03125" Pitch="45" RiffPosition="7.625" Velocity="59" />
      <note Length="0.046875" Pitch="33" RiffPosition="7.65625" Velocity="51" />
      <note Length="0.046875" Pitch="53" RiffPosition="7.703125" Velocity="49" />
      <note Length="0.046875" Pitch="70" RiffPosition="7.75" Velocity="69" />
      <note Length="0.046875" Pitch="60" RiffPosition="7.796875" Velocity="21" />
      <note Length="0.015625" Pitch="75" RiffPosition="7.84375" Velocity="67" />
      <note Length="0.015625" Pitch="77" RiffPosition="7.859375" Velocity="45" />
      <note Length="0.03125" Pitch="70" RiffPosition="7.875" Velocity="22" />
      <note Length="0.03125" Pitch="55" RiffPosition="7.90625" Velocity="26" />
      <note Length="0.03125" Pitch="45" RiffPosition="7.9375" Velocity="81" />
      <note Length="0.03125" Pitch="55" RiffPosition="7.96875" Velocity="50" />
      <note Length="0.03125" Pitch="45" RiffPosition="8" Velocity="0" />
      <note Length="0.03125" Pitch="36" RiffPosition="8.03125" Velocity="0" />
      <note Length="0.03125" Pitch="43" RiffPosition="8.0625" Velocity="0" />
      <note Length="0.03125" Pitch="58" RiffPosition="8.09375" Velocity="0" />
      <note Length="0.03125" Pitch="58" RiffPosition="8.125" Velocity="0" />
      <note Length="0.046875" Pitch="48" RiffPosition="8.15625" Velocity="0" />
      <note Length="0.046875" Pitch="58" RiffPosition="8.203125" Velocity="0" />
      <note Length="0.046875" Pitch="65" RiffPosition="8.25" Velocity="0" />
      <note Length="0.046875" Pitch="48" RiffPosition="8.296875" Velocity="0" />
      <note Length="0.015625" Pitch="63" RiffPosition="8.34375" Velocity="0" />
      <note Length="0.015625" Pitch="67" RiffPosition="8.359375" Velocity="0" />
      <note Length="0.03125" Pitch="65" RiffPosition="8.375" Velocity="0" />
      <note Length="0.03125" Pitch="57" RiffPosition="8.40625" Velocity="0" />
      <note Length="0.03125" Pitch="55" RiffPosition="8.4375" Velocity="0" />
      <note Length="0.03125" Pitch="69" RiffPosition="8.46875" Velocity="0" />
      <note Length="0.03125" Pitch="58" RiffPosition="8.5" Velocity="0" />
      <note Length="0.03125" Pitch="45" RiffPosition="8.53125" Velocity="0" />
      <note Length="0.03125" Pitch="43" RiffPosition="8.5625" Velocity="0" />
      <note Length="0.03125" Pitch="50" RiffPosition="8.59375" Velocity="0" />
      <note Length="0.03125" Pitch="45" RiffPosition="8.625" Velocity="0" />
      <note Length="0.046875" Pitch="33" RiffPosition="8.65625" Velocity="0" />
      <note Length="0.046875" Pitch="53" RiffPosition="8.703125" Velocity="0" />
      <note Length="0.046875" Pitch="70" RiffPosition="8.75" Velocity="0" />
      <note Length="0.046875" Pitch="60" RiffPosition="8.796875" Velocity="0" />
      <note Length="0.015625" Pitch="75" RiffPosition="8.84375" Velocity="0" />
      <note Length="0.015625" Pitch="77" RiffPosition="8.859375" Velocity="0" />
      <note Length="0.03125" Pitch="70" RiffPosition="8.875" Velocity="0" />
      <note Length="0.03125" Pitch="55" RiffPosition="8.90625" Velocity="0" />
      <note Length="0.03125" Pitch="45" RiffPosition="8.9375" Velocity="0" />
      <note Length="0.03125" Pitch="55" RiffPosition="8.96875" Velocity="0" />
      <note Length="0.03125" Pitch="45" RiffPosition="9" Velocity="54" />
      <note Length="0.03125" Pitch="36" RiffPosition="9.03125" Velocity="57" />
      <note Length="0.03125" Pitch="43" RiffPosition="9.0625" Velocity="52" />
      <note Length="0.03125" Pitch="58" RiffPosition="9.09375" Velocity="83" />
      <note Length="0.03125" Pitch="58" RiffPosition="9.125" Velocity="114" />
      <note Length="0.046875" Pitch="48" RiffPosition="9.15625" Velocity="30" />
      <note Length="0.046875" Pitch="58" RiffPosition="9.203125" Velocity="70" />
      <note Length="0.046875" Pitch="65" RiffPosition="9.25" Velocity="90" />
      <note Length="0.046875" Pitch="48" RiffPosition="9.296875" Velocity="42" />
      <note Length="0.015625" Pitch="63" RiffPosition="9.34375" Velocity="46" />
      <note Length="0.015625" Pitch="67" RiffPosition="9.359375" Velocity="24" />
      <note Length="0.03125" Pitch="65" RiffPosition="9.375" Velocity="39" />
      <note Length="0.03125" Pitch="57" RiffPosition="9.40625" Velocity="47" />
      <note Length="0.03125" Pitch="55" RiffPosition="9.4375" Velocity="26" />
      <note Length="0.03125" Pitch="69" RiffPosition="9.46875" Velocity="71" />
      <note Length="0.03125" Pitch="58" RiffPosition="9.5" Velocity="30" />
      <note Length="0.03125" Pitch="45" RiffPosition="9.53125" Velocity="25" />
      <note Length="0.03125" Pitch="43" RiffPosition="9.5625" Velocity="96" />
      <note Length="0.03125" Pitch="50" RiffPosition="9.59375" Velocity="127" />
      <note Length="0.03125" Pitch="45" RiffPosition="9.625" Velocity="82" />
      <note Length="0.046875" Pitch="33" RiffPosition="9.65625" Velocity="74" />
      <note Length="0.046875" Pitch="53" RiffPosition="9.703125" Velocity="26" />
      <note Length="0.046875" Pitch="70" RiffPosition="9.75" Velocity="123" />
      <note Length="0.046875" Pitch="60" RiffPosition="9.796875" Velocity="74" />
      <note Length="0.015625" Pitch="75" RiffPosition="9.84375" Velocity="26" />
      <note Length="0.015625" Pitch="77" RiffPosition="9.859375" Velocity="68" />
      <note Length="0.03125" Pitch="70" RiffPosition="9.875" Velocity="45" />
      <note Length="0.03125" Pitch="55" RiffPosition="9.90625" Velocity="79" />
      <note Length="0.03125" Pitch="45" RiffPosition="9.9375" Velocity="58" />
      <note Length="0.03125" Pitch="55" RiffPosition="9.96875" Velocity="27" />
      <note Length="0.03125" Pitch="45" RiffPosition="10" Velocity="42" />
      <note Length="0.03125" Pitch="36" RiffPosition="10.03125" Velocity="69" />
      <note Length="0.03125" Pitch="43" RiffPosition="10.0625" Velocity="63" />
      <note Length="0.03125" Pitch="58" RiffPosition="10.09375" Velocity="94" />
      <note Length="0.03125" Pitch="58" RiffPosition="10.125" Velocity="126" />
      <note Length="0.046875" Pitch="48" RiffPosition="10.15625" Velocity="41" />
      <note Length="0.046875" Pitch="58" RiffPosition="10.203125" Velocity="59" />
      <note Length="0.046875" Pitch="65" RiffPosition="10.25" Velocity="79" />
      <note Length="0.046875" Pitch="48" RiffPosition="10.296875" Velocity="30" />
      <note Length="0.015625" Pitch="63" RiffPosition="10.34375" Velocity="58" />
      <note Length="0.015625" Pitch="67" RiffPosition="10.359375" Velocity="35" />
      <note Length="0.03125" Pitch="65" RiffPosition="10.375" Velocity="27" />
      <note Length="0.03125" Pitch="57" RiffPosition="10.40625" Velocity="35" />
      <note Length="0.03125" Pitch="55" RiffPosition="10.4375" Velocity="91" />
      <note Length="0.03125" Pitch="69" RiffPosition="10.46875" Velocity="59" />
      <note Length="0.03125" Pitch="58" RiffPosition="10.5" Velocity="42" />
      <note Length="0.03125" Pitch="45" RiffPosition="10.53125" Velocity="36" />
      <note Length="0.03125" Pitch="43" RiffPosition="10.5625" Velocity="107" />
      <note Length="0.03125" Pitch="50" RiffPosition="10.59375" Velocity="62" />
      <note Length="0.03125" Pitch="45" RiffPosition="10.625" Velocity="93" />
      <note Length="0.046875" Pitch="33" RiffPosition="10.65625" Velocity="85" />
      <note Length="0.046875" Pitch="53" RiffPosition="10.703125" Velocity="91" />
      <note Length="0.046875" Pitch="70" RiffPosition="10.75" Velocity="111" />
      <note Length="0.046875" Pitch="60" RiffPosition="10.796875" Velocity="63" />
      <note Length="0.015625" Pitch="75" RiffPosition="10.84375" Velocity="25" />
      <note Length="0.015625" Pitch="77" RiffPosition="10.859375" Velocity="37" />
      <note Length="0.03125" Pitch="70" RiffPosition="10.875" Velocity="57" />
      <note Length="0.03125" Pitch="55" RiffPosition="10.90625" Velocity="68" />
      <note Length="0.03125" Pitch="45" RiffPosition="10.9375" Velocity="47" />
      <note Length="0.03125" Pitch="55" RiffPosition="10.96875" Velocity="92" />
      <note Length="0.03125" Pitch="45" RiffPosition="11" Velocity="31" />
      <note Length="0.03125" Pitch="36" RiffPosition="11.03125" Velocity="80" />
      <note Length="0.03125" Pitch="43" RiffPosition="11.0625" Velocity="75" />
      <note Length="0.03125" Pitch="58" RiffPosition="11.09375" Velocity="106" />
      <note Length="0.03125" Pitch="58" RiffPosition="11.125" Velocity="61" />
      <note Length="0.046875" Pitch="48" RiffPosition="11.15625" Velocity="53" />
      <note Length="0.046875" Pitch="58" RiffPosition="11.203125" Velocity="47" />
      <note Length="0.046875" Pitch="65" RiffPosition="11.25" Velocity="67" />
      <note Length="0.046875" Pitch="48" RiffPosition="11.296875" Velocity="21" />
      <note Length="0.015625" Pitch="63" RiffPosition="11.34375" Velocity="47" />
      <note Length="0.015625" Pitch="67" RiffPosition="11.359375" Velocity="47" />
      <note Length="0.03125" Pitch="65" RiffPosition="11.375" Velocity="24" />
      <note Length="0.03125" Pitch="57" RiffPosition="11.40625" Velocity="24" />
      <note Length="0.03125" Pitch="55" RiffPosition="11.4375" Velocity="79" />
      <note Length="0.03125" Pitch="69" RiffPosition="11.46875" Velocity="48" />
      <note Length="0.03125" Pitch="58" RiffPosition="11.5" Velocity="63" />
      <note Length="0.03125" Pitch="45" RiffPosition="11.53125" Velocity="48" />
      <note Length="0.03125" Pitch="43" RiffPosition="11.5625" Velocity="119" />
      <note Length="0.03125" Pitch="50" RiffPosition="11.59375" Velocity="73" />
      <note Length="0.03125" Pitch="45" RiffPosition="11.625" Velocity="105" />
      <note Length="0.046875" Pitch="33" RiffPosition="11.65625" Velocity="20" />
      <note Length="0.046875" Pitch="53" RiffPosition="11.703125" Velocity="80" />
      <note Length="0.046875" Pitch="70" RiffPosition="11.75" Velocity="100" />
      <note Length="0.046875" Pitch="60" RiffPosition="11.796875" Velocity="51" />
      <note Length="0.015625" Pitch="75" RiffPosition="11.84375" Velocity="37" />
      <note Length="0.015625" Pitch="77" RiffPosition="11.859375" Velocity="26" />
      <note Length="0.03125" Pitch="70" RiffPosition="11.875" Velocity="68" />
      <note Length="0.03125" Pitch="55" RiffPosition="11.90625" Velocity="56" />
      <note Length="0.03125" Pitch="45" RiffPosition="11.9375" Velocity="35" />
      <note Length="0.03125" Pitch="55" RiffPosition="11.96875" Velocity="80" />
      <note Length="0.03125" Pitch="45" RiffPosition="12" Velocity="21" />
      <note Length="0.03125" Pitch="36" RiffPosition="12.03125" Velocity="25" />
      <note Length="0.03125" Pitch="43" RiffPosition="12.0625" Velocity="86" />
      <note Length="0.03125" Pitch="58" RiffPosition="12.09375" Velocity="117" />
      <note Length="0.03125" Pitch="58" RiffPosition="12.125" Velocity="72" />
      <note Length="0.046875" Pitch="48" RiffPosition="12.15625" Velocity="64" />
      <note Length="0.046875" Pitch="58" RiffPosition="12.203125" Velocity="36" />
      <note Length="0.046875" Pitch="65" RiffPosition="12.25" Velocity="56" />
      <note Length="0.046875" Pitch="48" RiffPosition="12.296875" Velocity="84" />
      <note Length="0.015625" Pitch="63" RiffPosition="12.34375" Velocity="35" />
      <note Length="0.015625" Pitch="67" RiffPosition="12.359375" Velocity="58" />
      <note Length="0.03125" Pitch="65" RiffPosition="12.375" Velocity="36" />
      <note Length="0.03125" Pitch="57" RiffPosition="12.40625" Velocity="28" />
      <note Length="0.03125" Pitch="55" RiffPosition="12.4375" Velocity="68" />
      <note Length="0.03125" Pitch="69" RiffPosition="12.46875" Velocity="36" />
      <note Length="0.03125" Pitch="58" RiffPosition="12.5" Velocity="52" />
      <note Length="0.03125" Pitch="45" RiffPosition="12.53125" Velocity="59" />
      <note Length="0.03125" Pitch="43" RiffPosition="12.5625" Velocity="54" />
      <note Length="0.03125" Pitch="50" RiffPosition="12.59375" Velocity="85" />
      <note Length="0.03125" Pitch="45" RiffPosition="12.625" Velocity="116" />
      <note Length="0.046875" Pitch="33" RiffPosition="12.65625" Velocity="32" />
      <note Length="0.046875" Pitch="53" RiffPosition="12.703125" Velocity="68" />
      <note Length="0.046875" Pitch="70" RiffPosition="12.75" Velocity="88" />
      <note Length="0.046875" Pitch="60" RiffPosition="12.796875" Velocity="40" />
      <note Length="0.015625" Pitch="75" RiffPosition="12.84375" Velocity="49" />
      <note Length="0.015625" Pitch="77" RiffPosition="12.859375" Velocity="26" />
      <note Length="0.03125" Pitch="70" RiffPosition="12.875" Velocity="37" />
      <note Length="0.03125" Pitch="55" RiffPosition="12.90625" Velocity="45" />
      <note Length="0.03125" Pitch="45" RiffPosition="12.9375" Velocity="24" />
      <note Length="0.03125" Pitch="55" RiffPosition="12.96875" Velocity="69" />
      <note Length="0.03125" Pitch="45" RiffPosition="13" Velocity="0" />
      <note Length="0.03125" Pitch="36" RiffPosition="13.03125" Velocity="0" />
      <note Length="0.03125" Pitch="43" RiffPosition="13.0625" Velocity="0" />
      <note Length="0.03125" Pitch="58" RiffPosition="13.09375" Velocity="0" />
      <note Length="0.03125" Pitch="58" RiffPosition="13.125" Velocity="0" />
      <note Length="0.046875" Pitch="48" RiffPosition="13.15625" Velocity="0" />
      <note Length="0.046875" Pitch="58" RiffPosition="13.203125" Velocity="0" />
      <note Length="0.046875" Pitch="65" RiffPosition="13.25" Velocity="0" />
      <note Length="0.046875" Pitch="48" RiffPosition="13.296875" Velocity="0" />
      <note Length="0.015625" Pitch="63" RiffPosition="13.34375" Velocity="0" />
      <note Length="0.015625" Pitch="67" RiffPosition="13.359375" Velocity="0" />
      <note Length="0.03125" Pitch="65" RiffPosition="13.375" Velocity="0" />
      <note Length="0.03125" Pitch="57" RiffPosition="13.40625" Velocity="0" />
      <note Length="0.03125" Pitch="55" RiffPosition="13.4375" Velocity="0" />
      <note Length="0.03125" Pitch="69" RiffPosition="13.46875" Velocity="0" />
      <note Length="0.03125" Pitch="58" RiffPosition="13.5" Velocity="0" />
      <note Length="0.03125" Pitch="45" RiffPosition="13.53125" Velocity="0" />
      <note Length="0.03125" Pitch="43" RiffPosition="13.5625" Velocity="0" />
      <note Length="0.03125" Pitch="50" RiffPosition="13.59375" Velocity="0" />
      <note Length="0.03125" Pitch="45" RiffPosition="13.625" Velocity="0" />
      <note Length="0.046875" Pitch="33" RiffPosition="13.65625" Velocity="0" />
      <note Length="0.046875" Pitch="53" RiffPosition="13.703125" Velocity="0" />
      <note Length="0.046875" Pitch="70" RiffPosition="13.75" Velocity="0" />
      <note Length="0.046875" Pitch="60" RiffPosition="13.796875" Velocity="0" />
      <note Length="0.015625" Pitch="75" RiffPosition="13.84375" Velocity="0" />
      <note Length="0.015625" Pitch="77" RiffPosition="13.859375" Velocity="0" />
      <note Length="0.03125" Pitch="70" RiffPosition="13.875" Velocity="0" />
      <note Length="0.03125" Pitch="55" RiffPosition="13.90625" Velocity="0" />
      <note Length="0.03125" Pitch="45" RiffPosition="13.9375" Velocity="0" />
      <note Length="0.03125" Pitch="55" RiffPosition="13.96875" Velocity="0" />
    </riff>
    <riff IsDrum="True" MidiInstrument="0" Tempo="113" Length="14">
      <note Length="0.0625" Pitch="40" RiffPosition="0" Velocity="0" />
      <note Length="0.0625" Pitch="40" RiffPosition="0.0625" Velocity="0" />
      <note Length="0.0625" Pitch="40" RiffPosition="0.125" Velocity="0" />
      <note Length="0.0625" Pitch="40" RiffPosition="0.1875" Velocity="0" />
      <note Length="0.0625" Pitch="40" RiffPosition="0.25" Velocity="0" />
      <note Length="0.0625" Pitch="40" RiffPosition="0.3125" Velocity="0" />
      <note Length="0.0625" Pitch="40" RiffPosition="0.375" Velocity="0" />
      <note Length="0.0625" Pitch="40" RiffPosition="0.4375" Velocity="0" />
      <note Length="0.0625" Pitch="40" RiffPosition="0.5" Velocity="0" />
      <note Length="0.0625" Pitch="40" RiffPosition="0.5625" Velocity="0" />
      <note Length="0.0625" Pitch="40" RiffPosition="0.625" Velocity="0" />
      <note Length="0.0625" Pitch="40" RiffPosition="0.6875" Velocity="0" />
      <note Length="0.0625" Pitch="40" RiffPosition="0.75" Velocity="0" />
      <note Length="0.0625" Pitch="40" RiffPosition="0.8125" Velocity="0" />
      <note Length="0.0625" Pitch="40" RiffPosition="0.875" Velocity="0" />
      <note Length="0.0625" Pitch="40" RiffPosition="0.9375" Velocity="0" />
      <note Length="0.0625" Pitch="40" RiffPosition="1" Velocity="0" />
      <note Length="0.0625" Pitch="40" RiffPosition="1.0625" Velocity="0" />
      <note Length="0.0625" Pitch="40" RiffPosition="1.125" Velocity="0" />
      <note Length="0.0625" Pitch="40" RiffPosition="1.1875" Velocity="0" />
      <note Length="0.0625" Pitch="40" RiffPosition="1.25" Velocity="0" />
      <note Length="0.0625" Pitch="40" RiffPosition="1.3125" Velocity="0" />
      <note Length="0.0625" Pitch="40" RiffPosition="1.375" Velocity="0" />
      <note Length="0.0625" Pitch="40" RiffPosition="1.4375" Velocity="0" />
      <note Length="0.0625" Pitch="40" RiffPosition="1.5" Velocity="0" />
      <note Length="0.0625" Pitch="40" RiffPosition="1.5625" Velocity="0" />
      <note Length="0.0625" Pitch="40" RiffPosition="1.625" Velocity="0" />
      <note Length="0.0625" Pitch="40" RiffPosition="1.6875" Velocity="0" />
      <note Length="0.0625" Pitch="40" RiffPosition="1.75" Velocity="0" />
      <note Length="0.0625" Pitch="40" RiffPosition="1.8125" Velocity="0" />
      <note Length="0.0625" Pitch="40" RiffPosition="1.875" Velocity="0" />
      <note Length="0.0625" Pitch="40" RiffPosition="1.9375" Velocity="0" />
      <note Length="0.0625" Pitch="40" RiffPosition="2" Velocity="0" />
      <note Length="0.0625" Pitch="40" RiffPosition="2.0625" Velocity="0" />
      <note Length="0.0625" Pitch="40" RiffPosition="2.125" Velocity="0" />
      <note Length="0.0625" Pitch="40" RiffPosition="2.1875" Velocity="0" />
      <note Length="0.0625" Pitch="40" RiffPosition="2.25" Velocity="0" />
      <note Length="0.0625" Pitch="40" RiffPosition="2.3125" Velocity="0" />
      <note Length="0.0625" Pitch="40" RiffPosition="2.375" Velocity="0" />
      <note Length="0.0625" Pitch="40" RiffPosition="2.4375" Velocity="0" />
      <note Length="0.0625" Pitch="40" RiffPosition="2.5" Velocity="0" />
      <note Length="0.0625" Pitch="40" RiffPosition="2.5625" Velocity="0" />
      <note Length="0.0625" Pitch="40" RiffPosition="2.625" Velocity="0" />
      <note Length="0.0625" Pitch="40" RiffPosition="2.6875" Velocity="0" />
      <note Length="0.0625" Pitch="40" RiffPosition="2.75" Velocity="0" />
      <note Length="0.0625" Pitch="40" RiffPosition="2.8125" Velocity="0" />
      <note Length="0.0625" Pitch="40" RiffPosition="2.875" Velocity="0" />
      <note Length="0.0625" Pitch="40" RiffPosition="2.9375" Velocity="0" />
      <note Length="0.0625" Pitch="40" RiffPosition="3" Velocity="0" />
      <note Length="0.0625" Pitch="40" RiffPosition="3.0625" Velocity="0" />
      <note Length="0.0625" Pitch="40" RiffPosition="3.125" Velocity="0" />
      <note Length="0.0625" Pitch="40" RiffPosition="3.1875" Velocity="0" />
      <note Length="0.0625" Pitch="40" RiffPosition="3.25" Velocity="0" />
      <note Length="0.0625" Pitch="40" RiffPosition="3.3125" Velocity="0" />
      <note Length="0.0625" Pitch="40" RiffPosition="3.375" Velocity="0" />
      <note Length="0.0625" Pitch="40" RiffPosition="3.4375" Velocity="0" />
      <note Length="0.0625" Pitch="40" RiffPosition="3.5" Velocity="0" />
      <note Length="0.0625" Pitch="40" RiffPosition="3.5625" Velocity="0" />
      <note Length="0.0625" Pitch="40" RiffPosition="3.625" Velocity="0" />
      <note Length="0.0625" Pitch="40" RiffPosition="3.6875" Velocity="0" />
      <note Length="0.0625" Pitch="40" RiffPosition="3.75" Velocity="0" />
      <note Length="0.0625" Pitch="40" RiffPosition="3.8125" Velocity="0" />
      <note Length="0.0625" Pitch="40" RiffPosition="3.875" Velocity="0" />
      <note Length="0.0625" Pitch="40" RiffPosition="3.9375" Velocity="0" />
      <note Length="0.0625" Pitch="40" RiffPosition="4" Velocity="0" />
      <note Length="0.0625" Pitch="40" RiffPosition="4.0625" Velocity="0" />
      <note Length="0.0625" Pitch="40" RiffPosition="4.125" Velocity="0" />
      <note Length="0.0625" Pitch="40" RiffPosition="4.1875" Velocity="0" />
      <note Length="0.0625" Pitch="40" RiffPosition="4.25" Velocity="0" />
      <note Length="0.0625" Pitch="40" RiffPosition="4.3125" Velocity="0" />
      <note Length="0.0625" Pitch="40" RiffPosition="4.375" Velocity="0" />
      <note Length="0.0625" Pitch="40" RiffPosition="4.4375" Velocity="0" />
      <note Length="0.0625" Pitch="40" RiffPosition="4.5" Velocity="0" />
      <note Length="0.0625" Pitch="40" RiffPosition="4.5625" Velocity="0" />
      <note Length="0.0625" Pitch="40" RiffPosition="4.625" Velocity="0" />
      <note Length="0.0625" Pitch="40" RiffPosition="4.6875" Velocity="0" />
      <note Length="0.0625" Pitch="40" RiffPosition="4.75" Velocity="0" />
      <note Length="0.0625" Pitch="40" RiffPosition="4.8125" Velocity="0" />
      <note Length="0.0625" Pitch="40" RiffPosition="4.875" Velocity="0" />
      <note Length="0.0625" Pitch="40" RiffPosition="4.9375" Velocity="0" />
      <note Length="0.0625" Pitch="40" RiffPosition="5" Velocity="0" />
      <note Length="0.0625" Pitch="40" RiffPosition="5.0625" Velocity="105" />
      <note Length="0.0625" Pitch="40" RiffPosition="5.125" Velocity="0" />
      <note Length="0.0625" Pitch="40" RiffPosition="5.1875" Velocity="105" />
      <note Length="0.0625" Pitch="40" RiffPosition="5.25" Velocity="0" />
      <note Length="0.0625" Pitch="40" RiffPosition="5.3125" Velocity="105" />
      <note Length="0.0625" Pitch="40" RiffPosition="5.375" Velocity="0" />
      <note Length="0.0625" Pitch="40" RiffPosition="5.4375" Velocity="105" />
      <note Length="0.0625" Pitch="40" RiffPosition="5.5" Velocity="0" />
      <note Length="0.0625" Pitch="40" RiffPosition="5.5625" Velocity="105" />
      <note Length="0.0625" Pitch="40" RiffPosition="5.625" Velocity="0" />
      <note Length="0.0625" Pitch="40" RiffPosition="5.6875" Velocity="105" />
      <note Length="0.0625" Pitch="40" RiffPosition="5.75" Velocity="0" />
      <note Length="0.0625" Pitch="40" RiffPosition="5.8125" Velocity="105" />
      <note Length="0.0625" Pitch="40" RiffPosition="5.875" Velocity="0" />
      <note Length="0.0625" Pitch="40" RiffPosition="5.9375" Velocity="105" />
      <note Length="0.0625" Pitch="40" RiffPosition="6" Velocity="0" />
      <note Length="0.0625" Pitch="40" RiffPosition="6.0625" Velocity="105" />
      <note Length="0.0625" Pitch="40" RiffPosition="6.125" Velocity="0" />
      <note Length="0.0625" Pitch="40" RiffPosition="6.1875" Velocity="105" />
      <note Length="0.0625" Pitch="40" RiffPosition="6.25" Velocity="0" />
      <note Length="0.0625" Pitch="40" RiffPosition="6.3125" Velocity="105" />
      <note Length="0.0625" Pitch="40" RiffPosition="6.375" Velocity="0" />
      <note Length="0.0625" Pitch="40" RiffPosition="6.4375" Velocity="105" />
      <note Length="0.0625" Pitch="40" RiffPosition="6.5" Velocity="0" />
      <note Length="0.0625" Pitch="40" RiffPosition="6.5625" Velocity="105" />
      <note Length="0.0625" Pitch="40" RiffPosition="6.625" Velocity="0" />
      <note Length="0.0625" Pitch="40" RiffPosition="6.6875" Velocity="105" />
      <note Length="0.0625" Pitch="40" RiffPosition="6.75" Velocity="0" />
      <note Length="0.0625" Pitch="40" RiffPosition="6.8125" Velocity="105" />
      <note Length="0.0625" Pitch="40" RiffPosition="6.875" Velocity="0" />
      <note Length="0.0625" Pitch="40" RiffPosition="6.9375" Velocity="105" />
      <note Length="0.0625" Pitch="40" RiffPosition="7" Velocity="0" />
      <note Length="0.0625" Pitch="40" RiffPosition="7.0625" Velocity="105" />
      <note Length="0.0625" Pitch="40" RiffPosition="7.125" Velocity="0" />
      <note Length="0.0625" Pitch="40" RiffPosition="7.1875" Velocity="105" />
      <note Length="0.0625" Pitch="40" RiffPosition="7.25" Velocity="0" />
      <note Length="0.0625" Pitch="40" RiffPosition="7.3125" Velocity="105" />
      <note Length="0.0625" Pitch="40" RiffPosition="7.375" Velocity="0" />
      <note Length="0.0625" Pitch="40" RiffPosition="7.4375" Velocity="105" />
      <note Length="0.0625" Pitch="40" RiffPosition="7.5" Velocity="0" />
      <note Length="0.0625" Pitch="40" RiffPosition="7.5625" Velocity="105" />
      <note Length="0.0625" Pitch="40" RiffPosition="7.625" Velocity="0" />
      <note Length="0.0625" Pitch="40" RiffPosition="7.6875" Velocity="105" />
      <note Length="0.0625" Pitch="40" RiffPosition="7.75" Velocity="0" />
      <note Length="0.0625" Pitch="40" RiffPosition="7.8125" Velocity="105" />
      <note Length="0.0625" Pitch="40" RiffPosition="7.875" Velocity="0" />
      <note Length="0.0625" Pitch="40" RiffPosition="7.9375" Velocity="105" />
      <note Length="0.0625" Pitch="40" RiffPosition="8" Velocity="0" />
      <note Length="0.0625" Pitch="40" RiffPosition="8.0625" Velocity="105" />
      <note Length="0.0625" Pitch="40" RiffPosition="8.125" Velocity="0" />
      <note Length="0.0625" Pitch="40" RiffPosition="8.1875" Velocity="105" />
      <note Length="0.0625" Pitch="40" RiffPosition="8.25" Velocity="0" />
      <note Length="0.0625" Pitch="40" RiffPosition="8.3125" Velocity="105" />
      <note Length="0.0625" Pitch="40" RiffPosition="8.375" Velocity="0" />
      <note Length="0.0625" Pitch="40" RiffPosition="8.4375" Velocity="105" />
      <note Length="0.0625" Pitch="40" RiffPosition="8.5" Velocity="0" />
      <note Length="0.0625" Pitch="40" RiffPosition="8.5625" Velocity="105" />
      <note Length="0.0625" Pitch="40" RiffPosition="8.625" Velocity="0" />
      <note Length="0.0625" Pitch="40" RiffPosition="8.6875" Velocity="105" />
      <note Length="0.0625" Pitch="40" RiffPosition="8.75" Velocity="0" />
      <note Length="0.0625" Pitch="40" RiffPosition="8.8125" Velocity="105" />
      <note Length="0.0625" Pitch="40" RiffPosition="8.875" Velocity="0" />
      <note Length="0.0625" Pitch="40" RiffPosition="8.9375" Velocity="105" />
      <note Length="0.0625" Pitch="40" RiffPosition="9" Velocity="0" />
      <note Length="0.0625" Pitch="40" RiffPosition="9.0625" Velocity="105" />
      <note Length="0.0625" Pitch="40" RiffPosition="9.125" Velocity="0" />
      <note Length="0.0625" Pitch="40" RiffPosition="9.1875" Velocity="105" />
      <note Length="0.0625" Pitch="40" RiffPosition="9.25" Velocity="0" />
      <note Length="0.0625" Pitch="40" RiffPosition="9.3125" Velocity="105" />
      <note Length="0.0625" Pitch="40" RiffPosition="9.375" Velocity="0" />
      <note Length="0.0625" Pitch="40" RiffPosition="9.4375" Velocity="105" />
      <note Length="0.0625" Pitch="40" RiffPosition="9.5" Velocity="0" />
      <note Length="0.0625" Pitch="40" RiffPosition="9.5625" Velocity="105" />
      <note Length="0.0625" Pitch="40" RiffPosition="9.625" Velocity="0" />
      <note Length="0.0625" Pitch="40" RiffPosition="9.6875" Velocity="105" />
      <note Length="0.0625" Pitch="40" RiffPosition="9.75" Velocity="0" />
      <note Length="0.0625" Pitch="40" RiffPosition="9.8125" Velocity="105" />
      <note Length="0.0625" Pitch="40" RiffPosition="9.875" Velocity="0" />
      <note Length="0.0625" Pitch="40" RiffPosition="9.9375" Velocity="105" />
      <note Length="0.0625" Pitch="40" RiffPosition="10" Velocity="0" />
      <note Length="0.0625" Pitch="40" RiffPosition="10.0625" Velocity="105" />
      <note Length="0.0625" Pitch="40" RiffPosition="10.125" Velocity="0" />
      <note Length="0.0625" Pitch="40" RiffPosition="10.1875" Velocity="105" />
      <note Length="0.0625" Pitch="40" RiffPosition="10.25" Velocity="0" />
      <note Length="0.0625" Pitch="40" RiffPosition="10.3125" Velocity="105" />
      <note Length="0.0625" Pitch="40" RiffPosition="10.375" Velocity="0" />
      <note Length="0.0625" Pitch="40" RiffPosition="10.4375" Velocity="105" />
      <note Length="0.0625" Pitch="40" RiffPosition="10.5" Velocity="0" />
      <note Length="0.0625" Pitch="40" RiffPosition="10.5625" Velocity="105" />
      <note Length="0.0625" Pitch="40" RiffPosition="10.625" Velocity="0" />
      <note Length="0.0625" Pitch="40" RiffPosition="10.6875" Velocity="105" />
      <note Length="0.0625" Pitch="40" RiffPosition="10.75" Velocity="0" />
      <note Length="0.0625" Pitch="40" RiffPosition="10.8125" Velocity="105" />
      <note Length="0.0625" Pitch="40" RiffPosition="10.875" Velocity="0" />
      <note Length="0.0625" Pitch="40" RiffPosition="10.9375" Velocity="105" />
      <note Length="0.0625" Pitch="40" RiffPosition="11" Velocity="0" />
      <note Length="0.0625" Pitch="40" RiffPosition="11.0625" Velocity="0" />
      <note Length="0.0625" Pitch="40" RiffPosition="11.125" Velocity="0" />
      <note Length="0.0625" Pitch="40" RiffPosition="11.1875" Velocity="0" />
      <note Length="0.0625" Pitch="40" RiffPosition="11.25" Velocity="0" />
      <note Length="0.0625" Pitch="40" RiffPosition="11.3125" Velocity="0" />
      <note Length="0.0625" Pitch="40" RiffPosition="11.375" Velocity="0" />
      <note Length="0.0625" Pitch="40" RiffPosition="11.4375" Velocity="0" />
      <note Length="0.0625" Pitch="40" RiffPosition="11.5" Velocity="0" />
      <note Length="0.0625" Pitch="40" RiffPosition="11.5625" Velocity="0" />
      <note Length="0.0625" Pitch="40" RiffPosition="11.625" Velocity="0" />
      <note Length="0.0625" Pitch="40" RiffPosition="11.6875" Velocity="0" />
      <note Length="0.0625" Pitch="40" RiffPosition="11.75" Velocity="0" />
      <note Length="0.0625" Pitch="40" RiffPosition="11.8125" Velocity="0" />
      <note Length="0.0625" Pitch="40" RiffPosition="11.875" Velocity="0" />
      <note Length="0.0625" Pitch="40" RiffPosition="11.9375" Velocity="0" />
      <note Length="0.0625" Pitch="40" RiffPosition="12" Velocity="0" />
      <note Length="0.0625" Pitch="40" RiffPosition="12.0625" Velocity="0" />
      <note Length="0.0625" Pitch="40" RiffPosition="12.125" Velocity="0" />
      <note Length="0.0625" Pitch="40" RiffPosition="12.1875" Velocity="0" />
      <note Length="0.0625" Pitch="40" RiffPosition="12.25" Velocity="0" />
      <note Length="0.0625" Pitch="40" RiffPosition="12.3125" Velocity="0" />
      <note Length="0.0625" Pitch="40" RiffPosition="12.375" Velocity="0" />
      <note Length="0.0625" Pitch="40" RiffPosition="12.4375" Velocity="0" />
      <note Length="0.0625" Pitch="40" RiffPosition="12.5" Velocity="0" />
      <note Length="0.0625" Pitch="40" RiffPosition="12.5625" Velocity="0" />
      <note Length="0.0625" Pitch="40" RiffPosition="12.625" Velocity="0" />
      <note Length="0.0625" Pitch="40" RiffPosition="12.6875" Velocity="0" />
      <note Length="0.0625" Pitch="40" RiffPosition="12.75" Velocity="0" />
      <note Length="0.0625" Pitch="40" RiffPosition="12.8125" Velocity="0" />
      <note Length="0.0625" Pitch="40" RiffPosition="12.875" Velocity="0" />
      <note Length="0.0625" Pitch="40" RiffPosition="12.9375" Velocity="0" />
      <note Length="0.0625" Pitch="40" RiffPosition="13" Velocity="0" />
      <note Length="0.0625" Pitch="40" RiffPosition="13.0625" Velocity="105" />
      <note Length="0.0625" Pitch="40" RiffPosition="13.125" Velocity="0" />
      <note Length="0.0625" Pitch="40" RiffPosition="13.1875" Velocity="105" />
      <note Length="0.0625" Pitch="40" RiffPosition="13.25" Velocity="0" />
      <note Length="0.0625" Pitch="40" RiffPosition="13.3125" Velocity="105" />
      <note Length="0.0625" Pitch="40" RiffPosition="13.375" Velocity="0" />
      <note Length="0.0625" Pitch="40" RiffPosition="13.4375" Velocity="105" />
      <note Length="0.0625" Pitch="40" RiffPosition="13.5" Velocity="0" />
      <note Length="0.0625" Pitch="40" RiffPosition="13.5625" Velocity="105" />
      <note Length="0.0625" Pitch="40" RiffPosition="13.625" Velocity="0" />
      <note Length="0.0625" Pitch="40" RiffPosition="13.6875" Velocity="105" />
      <note Length="0.0625" Pitch="40" RiffPosition="13.75" Velocity="0" />
      <note Length="0.0625" Pitch="40" RiffPosition="13.8125" Velocity="105" />
      <note Length="0.0625" Pitch="40" RiffPosition="13.875" Velocity="0" />
      <note Length="0.0625" Pitch="40" RiffPosition="13.9375" Velocity="105" />
    </riff>
    <riff IsDrum="False" MidiInstrument="34" Tempo="126" Length="14">
      <note Length="0.015625" Pitch="45" RiffPosition="0" Velocity="0" />
      <note Length="0.015625" Pitch="45" RiffPosition="0.015625" Velocity="0" />
      <note Length="0.015625" Pitch="43" RiffPosition="0.03125" Velocity="0" />
      <note Length="0.015625" Pitch="43" RiffPosition="0.046875" Velocity="0" />
      <note Length="0.03125" Pitch="43" RiffPosition="0.0625" Velocity="0" />
      <note Length="0.03125" Pitch="41" RiffPosition="0.09375" Velocity="0" />
      <note Length="0.015625" Pitch="41" RiffPosition="0.125" Velocity="0" />
      <note Length="0.015625" Pitch="41" RiffPosition="0.140625" Velocity="0" />
      <note Length="0.015625" Pitch="43" RiffPosition="0.15625" Velocity="0" />
      <note Length="0.015625" Pitch="43" RiffPosition="0.171875" Velocity="0" />
      <note Length="0.03125" Pitch="45" RiffPosition="0.1875" Velocity="0" />
      <note Length="0.03125" Pitch="48" RiffPosition="0.21875" Velocity="0" />
      <note Length="0.015625" Pitch="48" RiffPosition="0.25" Velocity="0" />
      <note Length="0.015625" Pitch="48" RiffPosition="0.265625" Velocity="0" />
      <note Length="0.015625" Pitch="46" RiffPosition="0.28125" Velocity="0" />
      <note Length="0.015625" Pitch="45" RiffPosition="0.296875" Velocity="0" />
      <note Length="0.03125" Pitch="43" RiffPosition="0.3125" Velocity="0" />
      <note Length="0.03125" Pitch="43" RiffPosition="0.34375" Velocity="0" />
      <note Length="0.015625" Pitch="43" RiffPosition="0.375" Velocity="0" />
      <note Length="0.015625" Pitch="43" RiffPosition="0.390625" Velocity="0" />
      <note Length="0.015625" Pitch="43" RiffPosition="0.40625" Velocity="0" />
      <note Length="0.015625" Pitch="43" RiffPosition="0.421875" Velocity="0" />
      <note Length="0.03125" Pitch="45" RiffPosition="0.4375" Velocity="0" />
      <note Length="0.03125" Pitch="46" RiffPosition="0.46875" Velocity="0" />
      <note Length="0.015625" Pitch="46" RiffPosition="0.5" Velocity="0" />
      <note Length="0.015625" Pitch="46" RiffPosition="0.515625" Velocity="0" />
      <note Length="0.015625" Pitch="43" RiffPosition="0.53125" Velocity="0" />
      <note Length="0.015625" Pitch="43" RiffPosition="0.546875" Velocity="0" />
      <note Length="0.03125" Pitch="43" RiffPosition="0.5625" Velocity="0" />
      <note Length="0.03125" Pitch="41" RiffPosition="0.59375" Velocity="0" />
      <note Length="0.015625" Pitch="39" RiffPosition="0.625" Velocity="0" />
      <note Length="0.015625" Pitch="41" RiffPosition="0.640625" Velocity="0" />
      <note Length="0.015625" Pitch="41" RiffPosition="0.65625" Velocity="0" />
      <note Length="0.015625" Pitch="43" RiffPosition="0.671875" Velocity="0" />
      <note Length="0.03125" Pitch="43" RiffPosition="0.6875" Velocity="0" />
      <note Length="0.03125" Pitch="45" RiffPosition="0.71875" Velocity="0" />
      <note Length="0.015625" Pitch="43" RiffPosition="0.75" Velocity="0" />
      <note Length="0.015625" Pitch="43" RiffPosition="0.765625" Velocity="0" />
      <note Length="0.015625" Pitch="43" RiffPosition="0.78125" Velocity="0" />
      <note Length="0.015625" Pitch="43" RiffPosition="0.796875" Velocity="0" />
      <note Length="0.03125" Pitch="41" RiffPosition="0.8125" Velocity="0" />
      <note Length="0.03125" Pitch="38" RiffPosition="0.84375" Velocity="0" />
      <note Length="0.015625" Pitch="38" RiffPosition="0.875" Velocity="0" />
      <note Length="0.015625" Pitch="39" RiffPosition="0.890625" Velocity="0" />
      <note Length="0.015625" Pitch="41" RiffPosition="0.90625" Velocity="0" />
      <note Length="0.015625" Pitch="43" RiffPosition="0.921875" Velocity="0" />
      <note Length="0.03125" Pitch="43" RiffPosition="0.9375" Velocity="0" />
      <note Length="0.03125" Pitch="45" RiffPosition="0.96875" Velocity="0" />
      <note Length="0.015625" Pitch="45" RiffPosition="1" Velocity="0" />
      <note Length="0.015625" Pitch="45" RiffPosition="1.015625" Velocity="0" />
      <note Length="0.015625" Pitch="43" RiffPosition="1.03125" Velocity="0" />
      <note Length="0.015625" Pitch="43" RiffPosition="1.046875" Velocity="0" />
      <note Length="0.03125" Pitch="43" RiffPosition="1.0625" Velocity="0" />
      <note Length="0.03125" Pitch="41" RiffPosition="1.09375" Velocity="0" />
      <note Length="0.015625" Pitch="41" RiffPosition="1.125" Velocity="0" />
      <note Length="0.015625" Pitch="43" RiffPosition="1.140625" Velocity="0" />
      <note Length="0.015625" Pitch="43" RiffPosition="1.15625" Velocity="0" />
      <note Length="0.015625" Pitch="43" RiffPosition="1.171875" Velocity="0" />
      <note Length="0.03125" Pitch="45" RiffPosition="1.1875" Velocity="0" />
      <note Length="0.03125" Pitch="48" RiffPosition="1.21875" Velocity="0" />
      <note Length="0.015625" Pitch="48" RiffPosition="1.25" Velocity="0" />
      <note Length="0.015625" Pitch="46" RiffPosition="1.265625" Velocity="0" />
      <note Length="0.015625" Pitch="46" RiffPosition="1.28125" Velocity="0" />
      <note Length="0.015625" Pitch="43" RiffPosition="1.296875" Velocity="0" />
      <note Length="0.03125" Pitch="43" RiffPosition="1.3125" Velocity="0" />
      <note Length="0.03125" Pitch="43" RiffPosition="1.34375" Velocity="0" />
      <note Length="0.015625" Pitch="43" RiffPosition="1.375" Velocity="0" />
      <note Length="0.015625" Pitch="43" RiffPosition="1.390625" Velocity="0" />
      <note Length="0.015625" Pitch="43" RiffPosition="1.40625" Velocity="0" />
      <note Length="0.015625" Pitch="43" RiffPosition="1.421875" Velocity="0" />
      <note Length="0.03125" Pitch="45" RiffPosition="1.4375" Velocity="0" />
      <note Length="0.03125" Pitch="46" RiffPosition="1.46875" Velocity="0" />
      <note Length="0.015625" Pitch="46" RiffPosition="1.5" Velocity="0" />
      <note Length="0.015625" Pitch="46" RiffPosition="1.515625" Velocity="0" />
      <note Length="0.015625" Pitch="43" RiffPosition="1.53125" Velocity="0" />
      <note Length="0.015625" Pitch="43" RiffPosition="1.546875" Velocity="0" />
      <note Length="0.03125" Pitch="43" RiffPosition="1.5625" Velocity="0" />
      <note Length="0.03125" Pitch="39" RiffPosition="1.59375" Velocity="0" />
      <note Length="0.015625" Pitch="39" RiffPosition="1.625" Velocity="0" />
      <note Length="0.015625" Pitch="41" RiffPosition="1.640625" Velocity="0" />
      <note Length="0.015625" Pitch="41" RiffPosition="1.65625" Velocity="0" />
      <note Length="0.015625" Pitch="43" RiffPosition="1.671875" Velocity="0" />
      <note Length="0.03125" Pitch="43" RiffPosition="1.6875" Velocity="0" />
      <note Length="0.03125" Pitch="43" RiffPosition="1.71875" Velocity="0" />
      <note Length="0.015625" Pitch="45" RiffPosition="1.75" Velocity="0" />
      <note Length="0.015625" Pitch="43" RiffPosition="1.765625" Velocity="0" />
      <note Length="0.015625" Pitch="43" RiffPosition="1.78125" Velocity="0" />
      <note Length="0.015625" Pitch="43" RiffPosition="1.796875" Velocity="0" />
      <note Length="0.03125" Pitch="41" RiffPosition="1.8125" Velocity="0" />
      <note Length="0.03125" Pitch="38" RiffPosition="1.84375" Velocity="0" />
      <note Length="0.015625" Pitch="38" RiffPosition="1.875" Velocity="0" />
      <note Length="0.015625" Pitch="39" RiffPosition="1.890625" Velocity="0" />
      <note Length="0.015625" Pitch="41" RiffPosition="1.90625" Velocity="0" />
      <note Length="0.015625" Pitch="43" RiffPosition="1.921875" Velocity="0" />
      <note Length="0.03125" Pitch="43" RiffPosition="1.9375" Velocity="0" />
      <note Length="0.03125" Pitch="45" RiffPosition="1.96875" Velocity="0" />
      <note Length="0.015625" Pitch="46" RiffPosition="2" Velocity="0" />
      <note Length="0.015625" Pitch="45" RiffPosition="2.015625" Velocity="0" />
      <note Length="0.015625" Pitch="43" RiffPosition="2.03125" Velocity="0" />
      <note Length="0.015625" Pitch="43" RiffPosition="2.046875" Velocity="0" />
      <note Length="0.03125" Pitch="43" RiffPosition="2.0625" Velocity="0" />
      <note Length="0.03125" Pitch="41" RiffPosition="2.09375" Velocity="0" />
      <note Length="0.015625" Pitch="41" RiffPosition="2.125" Velocity="0" />
      <note Length="0.015625" Pitch="41" RiffPosition="2.140625" Velocity="0" />
      <note Length="0.015625" Pitch="43" RiffPosition="2.15625" Velocity="0" />
      <note Length="0.015625" Pitch="43" RiffPosition="2.171875" Velocity="0" />
      <note Length="0.03125" Pitch="46" RiffPosition="2.1875" Velocity="0" />
      <note Length="0.03125" Pitch="48" RiffPosition="2.21875" Velocity="0" />
      <note Length="0.015625" Pitch="48" RiffPosition="2.25" Velocity="0" />
      <note Length="0.015625" Pitch="46" RiffPosition="2.265625" Velocity="0" />
      <note Length="0.015625" Pitch="46" RiffPosition="2.28125" Velocity="0" />
      <note Length="0.015625" Pitch="45" RiffPosition="2.296875" Velocity="0" />
      <note Length="0.03125" Pitch="43" RiffPosition="2.3125" Velocity="0" />
      <note Length="0.03125" Pitch="43" RiffPosition="2.34375" Velocity="0" />
      <note Length="0.015625" Pitch="41" RiffPosition="2.375" Velocity="0" />
      <note Length="0.015625" Pitch="43" RiffPosition="2.390625" Velocity="0" />
      <note Length="0.015625" Pitch="43" RiffPosition="2.40625" Velocity="0" />
      <note Length="0.015625" Pitch="43" RiffPosition="2.421875" Velocity="0" />
      <note Length="0.03125" Pitch="45" RiffPosition="2.4375" Velocity="0" />
      <note Length="0.03125" Pitch="46" RiffPosition="2.46875" Velocity="0" />
      <note Length="0.015625" Pitch="46" RiffPosition="2.5" Velocity="0" />
      <note Length="0.015625" Pitch="46" RiffPosition="2.515625" Velocity="0" />
      <note Length="0.015625" Pitch="43" RiffPosition="2.53125" Velocity="0" />
      <note Length="0.015625" Pitch="43" RiffPosition="2.546875" Velocity="0" />
      <note Length="0.03125" Pitch="43" RiffPosition="2.5625" Velocity="0" />
      <note Length="0.03125" Pitch="41" RiffPosition="2.59375" Velocity="0" />
      <note Length="0.015625" Pitch="39" RiffPosition="2.625" Velocity="0" />
      <note Length="0.015625" Pitch="41" RiffPosition="2.640625" Velocity="0" />
      <note Length="0.015625" Pitch="41" RiffPosition="2.65625" Velocity="0" />
      <note Length="0.015625" Pitch="43" RiffPosition="2.671875" Velocity="0" />
      <note Length="0.03125" Pitch="43" RiffPosition="2.6875" Velocity="0" />
      <note Length="0.03125" Pitch="45" RiffPosition="2.71875" Velocity="0" />
      <note Length="0.015625" Pitch="43" RiffPosition="2.75" Velocity="0" />
      <note Length="0.015625" Pitch="43" RiffPosition="2.765625" Velocity="0" />
      <note Length="0.015625" Pitch="43" RiffPosition="2.78125" Velocity="0" />
      <note Length="0.015625" Pitch="41" RiffPosition="2.796875" Velocity="0" />
      <note Length="0.03125" Pitch="41" RiffPosition="2.8125" Velocity="0" />
      <note Length="0.03125" Pitch="38" RiffPosition="2.84375" Velocity="0" />
      <note Length="0.015625" Pitch="38" RiffPosition="2.875" Velocity="0" />
      <note Length="0.015625" Pitch="39" RiffPosition="2.890625" Velocity="0" />
      <note Length="0.015625" Pitch="41" RiffPosition="2.90625" Velocity="0" />
      <note Length="0.015625" Pitch="43" RiffPosition="2.921875" Velocity="0" />
      <note Length="0.03125" Pitch="43" RiffPosition="2.9375" Velocity="0" />
      <note Length="0.03125" Pitch="45" RiffPosition="2.96875" Velocity="0" />
      <note Length="0.015625" Pitch="45" RiffPosition="3" Velocity="0" />
      <note Length="0.015625" Pitch="45" RiffPosition="3.015625" Velocity="0" />
      <note Length="0.015625" Pitch="43" RiffPosition="3.03125" Velocity="0" />
      <note Length="0.015625" Pitch="43" RiffPosition="3.046875" Velocity="0" />
      <note Length="0.03125" Pitch="43" RiffPosition="3.0625" Velocity="0" />
      <note Length="0.03125" Pitch="41" RiffPosition="3.09375" Velocity="0" />
      <note Length="0.015625" Pitch="41" RiffPosition="3.125" Velocity="0" />
      <note Length="0.015625" Pitch="43" RiffPosition="3.140625" Velocity="0" />
      <note Length="0.015625" Pitch="43" RiffPosition="3.15625" Velocity="0" />
      <note Length="0.015625" Pitch="43" RiffPosition="3.171875" Velocity="0" />
      <note Length="0.03125" Pitch="45" RiffPosition="3.1875" Velocity="0" />
      <note Length="0.03125" Pitch="48" RiffPosition="3.21875" Velocity="0" />
      <note Length="0.015625" Pitch="48" RiffPosition="3.25" Velocity="0" />
      <note Length="0.015625" Pitch="46" RiffPosition="3.265625" Velocity="0" />
      <note Length="0.015625" Pitch="46" RiffPosition="3.28125" Velocity="0" />
      <note Length="0.015625" Pitch="43" RiffPosition="3.296875" Velocity="0" />
      <note Length="0.03125" Pitch="43" RiffPosition="3.3125" Velocity="0" />
      <note Length="0.03125" Pitch="43" RiffPosition="3.34375" Velocity="0" />
      <note Length="0.015625" Pitch="43" RiffPosition="3.375" Velocity="0" />
      <note Length="0.015625" Pitch="43" RiffPosition="3.390625" Velocity="0" />
      <note Length="0.015625" Pitch="43" RiffPosition="3.40625" Velocity="0" />
      <note Length="0.015625" Pitch="43" RiffPosition="3.421875" Velocity="0" />
      <note Length="0.03125" Pitch="45" RiffPosition="3.4375" Velocity="0" />
      <note Length="0.03125" Pitch="46" RiffPosition="3.46875" Velocity="0" />
      <note Length="0.015625" Pitch="46" RiffPosition="3.5" Velocity="0" />
      <note Length="0.015625" Pitch="46" RiffPosition="3.515625" Velocity="0" />
      <note Length="0.015625" Pitch="43" RiffPosition="3.53125" Velocity="0" />
      <note Length="0.015625" Pitch="43" RiffPosition="3.546875" Velocity="0" />
      <note Length="0.03125" Pitch="43" RiffPosition="3.5625" Velocity="0" />
      <note Length="0.03125" Pitch="39" RiffPosition="3.59375" Velocity="0" />
      <note Length="0.015625" Pitch="39" RiffPosition="3.625" Velocity="0" />
      <note Length="0.015625" Pitch="39" RiffPosition="3.640625" Velocity="0" />
      <note Length="0.015625" Pitch="41" RiffPosition="3.65625" Velocity="0" />
      <note Length="0.015625" Pitch="43" RiffPosition="3.671875" Velocity="0" />
      <note Length="0.03125" Pitch="43" RiffPosition="3.6875" Velocity="0" />
      <note Length="0.03125" Pitch="43" RiffPosition="3.71875" Velocity="0" />
      <note Length="0.015625" Pitch="43" RiffPosition="3.75" Velocity="0" />
      <note Length="0.015625" Pitch="43" RiffPosition="3.765625" Velocity="0" />
      <note Length="0.015625" Pitch="43" RiffPosition="3.78125" Velocity="0" />
      <note Length="0.015625" Pitch="43" RiffPosition="3.796875" Velocity="0" />
      <note Length="0.03125" Pitch="41" RiffPosition="3.8125" Velocity="0" />
      <note Length="0.03125" Pitch="38" RiffPosition="3.84375" Velocity="0" />
      <note Length="0.015625" Pitch="38" RiffPosition="3.875" Velocity="0" />
      <note Length="0.015625" Pitch="39" RiffPosition="3.890625" Velocity="0" />
      <note Length="0.015625" Pitch="41" RiffPosition="3.90625" Velocity="0" />
      <note Length="0.015625" Pitch="43" RiffPosition="3.921875" Velocity="0" />
      <note Length="0.03125" Pitch="43" RiffPosition="3.9375" Velocity="0" />
      <note Length="0.03125" Pitch="45" RiffPosition="3.96875" Velocity="0" />
      <note Length="0.015625" Pitch="46" RiffPosition="4" Velocity="0" />
      <note Length="0.015625" Pitch="45" RiffPosition="4.015625" Velocity="0" />
      <note Length="0.015625" Pitch="43" RiffPosition="4.03125" Velocity="0" />
      <note Length="0.015625" Pitch="43" RiffPosition="4.046875" Velocity="0" />
      <note Length="0.03125" Pitch="43" RiffPosition="4.0625" Velocity="0" />
      <note Length="0.03125" Pitch="41" RiffPosition="4.09375" Velocity="0" />
      <note Length="0.015625" Pitch="41" RiffPosition="4.125" Velocity="0" />
      <note Length="0.015625" Pitch="43" RiffPosition="4.140625" Velocity="0" />
      <note Length="0.015625" Pitch="43" RiffPosition="4.15625" Velocity="0" />
      <note Length="0.015625" Pitch="43" RiffPosition="4.171875" Velocity="0" />
      <note Length="0.03125" Pitch="46" RiffPosition="4.1875" Velocity="0" />
      <note Length="0.03125" Pitch="48" RiffPosition="4.21875" Velocity="0" />
      <note Length="0.015625" Pitch="48" RiffPosition="4.25" Velocity="0" />
      <note Length="0.015625" Pitch="46" RiffPosition="4.265625" Velocity="0" />
      <note Length="0.015625" Pitch="46" RiffPosition="4.28125" Velocity="0" />
      <note Length="0.015625" Pitch="45" RiffPosition="4.296875" Velocity="0" />
      <note Length="0.03125" Pitch="43" RiffPosition="4.3125" Velocity="0" />
      <note Length="0.03125" Pitch="43" RiffPosition="4.34375" Velocity="0" />
      <note Length="0.015625" Pitch="41" RiffPosition="4.375" Velocity="0" />
      <note Length="0.015625" Pitch="43" RiffPosition="4.390625" Velocity="0" />
      <note Length="0.015625" Pitch="43" RiffPosition="4.40625" Velocity="0" />
      <note Length="0.015625" Pitch="43" RiffPosition="4.421875" Velocity="0" />
      <note Length="0.03125" Pitch="45" RiffPosition="4.4375" Velocity="0" />
      <note Length="0.03125" Pitch="46" RiffPosition="4.46875" Velocity="0" />
      <note Length="0.015625" Pitch="46" RiffPosition="4.5" Velocity="0" />
      <note Length="0.015625" Pitch="46" RiffPosition="4.515625" Velocity="0" />
      <note Length="0.015625" Pitch="45" RiffPosition="4.53125" Velocity="0" />
      <note Length="0.015625" Pitch="43" RiffPosition="4.546875" Velocity="0" />
      <note Length="0.03125" Pitch="43" RiffPosition="4.5625" Velocity="0" />
      <note Length="0.03125" Pitch="39" RiffPosition="4.59375" Velocity="0" />
      <note Length="0.015625" Pitch="39" RiffPosition="4.625" Velocity="0" />
      <note Length="0.015625" Pitch="41" RiffPosition="4.640625" Velocity="0" />
      <note Length="0.015625" Pitch="41" RiffPosition="4.65625" Velocity="0" />
      <note Length="0.015625" Pitch="43" RiffPosition="4.671875" Velocity="0" />
      <note Length="0.03125" Pitch="43" RiffPosition="4.6875" Velocity="0" />
      <note Length="0.03125" Pitch="45" RiffPosition="4.71875" Velocity="0" />
      <note Length="0.015625" Pitch="43" RiffPosition="4.75" Velocity="0" />
      <note Length="0.015625" Pitch="43" RiffPosition="4.765625" Velocity="0" />
      <note Length="0.015625" Pitch="43" RiffPosition="4.78125" Velocity="0" />
      <note Length="0.015625" Pitch="43" RiffPosition="4.796875" Velocity="0" />
      <note Length="0.03125" Pitch="41" RiffPosition="4.8125" Velocity="0" />
      <note Length="0.03125" Pitch="38" RiffPosition="4.84375" Velocity="0" />
      <note Length="0.015625" Pitch="38" RiffPosition="4.875" Velocity="0" />
      <note Length="0.015625" Pitch="39" RiffPosition="4.890625" Velocity="0" />
      <note Length="0.015625" Pitch="41" RiffPosition="4.90625" Velocity="0" />
      <note Length="0.015625" Pitch="43" RiffPosition="4.921875" Velocity="0" />
      <note Length="0.03125" Pitch="43" RiffPosition="4.9375" Velocity="0" />
      <note Length="0.03125" Pitch="45" RiffPosition="4.96875" Velocity="0" />
      <note Length="0.015625" Pitch="45" RiffPosition="5" Velocity="64" />
      <note Length="0.015625" Pitch="45" RiffPosition="5.015625" Velocity="50" />
      <note Length="0.015625" Pitch="43" RiffPosition="5.03125" Velocity="79" />
      <note Length="0.015625" Pitch="43" RiffPosition="5.046875" Velocity="65" />
      <note Length="0.03125" Pitch="43" RiffPosition="5.0625" Velocity="51" />
      <note Length="0.03125" Pitch="41" RiffPosition="5.09375" Velocity="65" />
      <note Length="0.015625" Pitch="41" RiffPosition="5.125" Velocity="37" />
      <note Length="0.015625" Pitch="43" RiffPosition="5.140625" Velocity="47" />
      <note Length="0.015625" Pitch="43" RiffPosition="5.15625" Velocity="61" />
      <note Length="0.015625" Pitch="43" RiffPosition="5.171875" Velocity="36" />
      <note Length="0.03125" Pitch="45" RiffPosition="5.1875" Velocity="48" />
      <note Length="0.03125" Pitch="48" RiffPosition="5.21875" Velocity="77" />
      <note Length="0.015625" Pitch="48" RiffPosition="5.25" Velocity="63" />
      <note Length="0.015625" Pitch="46" RiffPosition="5.265625" Velocity="78" />
      <note Length="0.015625" Pitch="46" RiffPosition="5.28125" Velocity="87" />
      <note Length="0.015625" Pitch="45" RiffPosition="5.296875" Velocity="92" />
      <note Length="0.03125" Pitch="43" RiffPosition="5.3125" Velocity="56" />
      <note Length="0.03125" Pitch="43" RiffPosition="5.34375" Velocity="66" />
      <note Length="0.015625" Pitch="43" RiffPosition="5.375" Velocity="77" />
      <note Length="0.015625" Pitch="43" RiffPosition="5.390625" Velocity="39" />
      <note Length="0.015625" Pitch="43" RiffPosition="5.40625" Velocity="44" />
      <note Length="0.015625" Pitch="43" RiffPosition="5.421875" Velocity="49" />
      <note Length="0.03125" Pitch="45" RiffPosition="5.4375" Velocity="54" />
      <note Length="0.03125" Pitch="46" RiffPosition="5.46875" Velocity="48" />
      <note Length="0.015625" Pitch="46" RiffPosition="5.5" Velocity="39" />
      <note Length="0.015625" Pitch="46" RiffPosition="5.515625" Velocity="35" />
      <note Length="0.015625" Pitch="43" RiffPosition="5.53125" Velocity="72" />
      <note Length="0.015625" Pitch="43" RiffPosition="5.546875" Velocity="68" />
      <note Length="0.03125" Pitch="43" RiffPosition="5.5625" Velocity="64" />
      <note Length="0.03125" Pitch="41" RiffPosition="5.59375" Velocity="56" />
      <note Length="0.015625" Pitch="39" RiffPosition="5.625" Velocity="79" />
      <note Length="0.015625" Pitch="41" RiffPosition="5.640625" Velocity="66" />
      <note Length="0.015625" Pitch="41" RiffPosition="5.65625" Velocity="53" />
      <note Length="0.015625" Pitch="43" RiffPosition="5.671875" Velocity="40" />
      <note Length="0.03125" Pitch="43" RiffPosition="5.6875" Velocity="70" />
      <note Length="0.03125" Pitch="43" RiffPosition="5.71875" Velocity="44" />
      <note Length="0.015625" Pitch="43" RiffPosition="5.75" Velocity="61" />
      <note Length="0.015625" Pitch="43" RiffPosition="5.765625" Velocity="48" />
      <note Length="0.015625" Pitch="43" RiffPosition="5.78125" Velocity="35" />
      <note Length="0.015625" Pitch="43" RiffPosition="5.796875" Velocity="47" />
      <note Length="0.03125" Pitch="41" RiffPosition="5.8125" Velocity="60" />
      <note Length="0.03125" Pitch="38" RiffPosition="5.84375" Velocity="44" />
      <note Length="0.015625" Pitch="38" RiffPosition="5.875" Velocity="70" />
      <note Length="0.015625" Pitch="39" RiffPosition="5.890625" Velocity="83" />
      <note Length="0.015625" Pitch="41" RiffPosition="5.90625" Velocity="53" />
      <note Length="0.015625" Pitch="43" RiffPosition="5.921875" Velocity="67" />
      <note Length="0.03125" Pitch="43" RiffPosition="5.9375" Velocity="80" />
      <note Length="0.03125" Pitch="45" RiffPosition="5.96875" Velocity="47" />
      <note Length="0.015625" Pitch="46" RiffPosition="6" Velocity="56" />
      <note Length="0.015625" Pitch="45" RiffPosition="6.015625" Velocity="61" />
      <note Length="0.015625" Pitch="43" RiffPosition="6.03125" Velocity="66" />
      <note Length="0.015625" Pitch="43" RiffPosition="6.046875" Velocity="42" />
      <note Length="0.03125" Pitch="43" RiffPosition="6.0625" Velocity="37" />
      <note Length="0.03125" Pitch="41" RiffPosition="6.09375" Velocity="43" />
      <note Length="0.015625" Pitch="41" RiffPosition="6.125" Velocity="59" />
      <note Length="0.015625" Pitch="43" RiffPosition="6.140625" Velocity="54" />
      <note Length="0.015625" Pitch="43" RiffPosition="6.15625" Velocity="49" />
      <note Length="0.015625" Pitch="43" RiffPosition="6.171875" Velocity="43" />
      <note Length="0.03125" Pitch="45" RiffPosition="6.1875" Velocity="80" />
      <note Length="0.03125" Pitch="48" RiffPosition="6.21875" Velocity="70" />
      <note Length="0.015625" Pitch="48" RiffPosition="6.25" Velocity="59" />
      <note Length="0.015625" Pitch="46" RiffPosition="6.265625" Velocity="96" />
      <note Length="0.015625" Pitch="46" RiffPosition="6.28125" Velocity="85" />
      <note Length="0.015625" Pitch="43" RiffPosition="6.296875" Velocity="71" />
      <note Length="0.03125" Pitch="43" RiffPosition="6.3125" Velocity="57" />
      <note Length="0.03125" Pitch="43" RiffPosition="6.34375" Velocity="70" />
      <note Length="0.015625" Pitch="41" RiffPosition="6.375" Velocity="42" />
      <note Length="0.015625" Pitch="43" RiffPosition="6.390625" Velocity="42" />
      <note Length="0.015625" Pitch="43" RiffPosition="6.40625" Velocity="56" />
      <note Length="0.015625" Pitch="43" RiffPosition="6.421875" Velocity="42" />
      <note Length="0.03125" Pitch="45" RiffPosition="6.4375" Velocity="42" />
      <note Length="0.03125" Pitch="46" RiffPosition="6.46875" Velocity="70" />
      <note Length="0.015625" Pitch="46" RiffPosition="6.5" Velocity="55" />
      <note Length="0.015625" Pitch="46" RiffPosition="6.515625" Velocity="68" />
      <note Length="0.015625" Pitch="45" RiffPosition="6.53125" Velocity="82" />
      <note Length="0.015625" Pitch="43" RiffPosition="6.546875" Velocity="95" />
      <note Length="0.03125" Pitch="43" RiffPosition="6.5625" Velocity="66" />
      <note Length="0.03125" Pitch="39" RiffPosition="6.59375" Velocity="92" />
      <note Length="0.015625" Pitch="39" RiffPosition="6.625" Velocity="65" />
      <note Length="0.015625" Pitch="41" RiffPosition="6.640625" Velocity="69" />
      <note Length="0.015625" Pitch="41" RiffPosition="6.65625" Velocity="73" />
      <note Length="0.015625" Pitch="43" RiffPosition="6.671875" Velocity="77" />
      <note Length="0.03125" Pitch="43" RiffPosition="6.6875" Velocity="81" />
      <note Length="0.03125" Pitch="43" RiffPosition="6.71875" Velocity="46" />
      <note Length="0.015625" Pitch="45" RiffPosition="6.75" Velocity="53" />
      <note Length="0.015625" Pitch="43" RiffPosition="6.765625" Velocity="57" />
      <note Length="0.015625" Pitch="43" RiffPosition="6.78125" Velocity="51" />
      <note Length="0.015625" Pitch="43" RiffPosition="6.796875" Velocity="48" />
      <note Length="0.03125" Pitch="41" RiffPosition="6.8125" Velocity="44" />
      <note Length="0.03125" Pitch="38" RiffPosition="6.84375" Velocity="78" />
      <note Length="0.015625" Pitch="38" RiffPosition="6.875" Velocity="71" />
      <note Length="0.015625" Pitch="39" RiffPosition="6.890625" Velocity="67" />
      <note Length="0.015625" Pitch="41" RiffPosition="6.90625" Velocity="63" />
      <note Length="0.015625" Pitch="43" RiffPosition="6.921875" Velocity="101" />
      <note Length="0.03125" Pitch="43" RiffPosition="6.9375" Velocity="96" />
      <note Length="0.03125" Pitch="45" RiffPosition="6.96875" Velocity="71" />
      <note Length="0.015625" Pitch="45" RiffPosition="7" Velocity="86" />
      <note Length="0.015625" Pitch="45" RiffPosition="7.015625" Velocity="73" />
      <note Length="0.015625" Pitch="43" RiffPosition="7.03125" Velocity="59" />
      <note Length="0.015625" Pitch="43" RiffPosition="7.046875" Velocity="45" />
      <note Length="0.03125" Pitch="43" RiffPosition="7.0625" Velocity="73" />
      <note Length="0.03125" Pitch="41" RiffPosition="7.09375" Velocity="45" />
      <note Length="0.015625" Pitch="41" RiffPosition="7.125" Velocity="53" />
      <note Length="0.015625" Pitch="41" RiffPosition="7.140625" Velocity="45" />
      <note Length="0.015625" Pitch="43" RiffPosition="7.15625" Velocity="39" />
      <note Length="0.015625" Pitch="43" RiffPosition="7.171875" Velocity="53" />
      <note Length="0.03125" Pitch="45" RiffPosition="7.1875" Velocity="68" />
      <note Length="0.03125" Pitch="48" RiffPosition="7.21875" Velocity="54" />
      <note Length="0.015625" Pitch="48" RiffPosition="7.25" Velocity="83" />
      <note Length="0.015625" Pitch="48" RiffPosition="7.265625" Velocity="97" />
      <note Length="0.015625" Pitch="46" RiffPosition="7.28125" Velocity="65" />
      <note Length="0.015625" Pitch="45" RiffPosition="7.296875" Velocity="70" />
      <note Length="0.03125" Pitch="43" RiffPosition="7.3125" Velocity="75" />
      <note Length="0.03125" Pitch="43" RiffPosition="7.34375" Velocity="86" />
      <note Length="0.015625" Pitch="43" RiffPosition="7.375" Velocity="54" />
      <note Length="0.015625" Pitch="43" RiffPosition="7.390625" Velocity="59" />
      <note Length="0.015625" Pitch="43" RiffPosition="7.40625" Velocity="64" />
      <note Length="0.015625" Pitch="43" RiffPosition="7.421875" Velocity="43" />
      <note Length="0.03125" Pitch="45" RiffPosition="7.4375" Velocity="38" />
      <note Length="0.03125" Pitch="46" RiffPosition="7.46875" Velocity="41" />
      <note Length="0.015625" Pitch="46" RiffPosition="7.5" Velocity="61" />
      <note Length="0.015625" Pitch="46" RiffPosition="7.515625" Velocity="57" />
      <note Length="0.015625" Pitch="43" RiffPosition="7.53125" Velocity="53" />
      <note Length="0.015625" Pitch="43" RiffPosition="7.546875" Velocity="48" />
      <note Length="0.03125" Pitch="43" RiffPosition="7.5625" Velocity="44" />
      <note Length="0.03125" Pitch="41" RiffPosition="7.59375" Velocity="78" />
      <note Length="0.015625" Pitch="39" RiffPosition="7.625" Velocity="59" />
      <note Length="0.015625" Pitch="41" RiffPosition="7.640625" Velocity="88" />
      <note Length="0.015625" Pitch="41" RiffPosition="7.65625" Velocity="75" />
      <note Length="0.015625" Pitch="43" RiffPosition="7.671875" Velocity="63" />
      <note Length="0.03125" Pitch="43" RiffPosition="7.6875" Velocity="50" />
      <note Length="0.03125" Pitch="45" RiffPosition="7.71875" Velocity="66" />
      <note Length="0.015625" Pitch="43" RiffPosition="7.75" Velocity="41" />
      <note Length="0.015625" Pitch="43" RiffPosition="7.765625" Velocity="42" />
      <note Length="0.015625" Pitch="43" RiffPosition="7.78125" Velocity="54" />
      <note Length="0.015625" Pitch="43" RiffPosition="7.796875" Velocity="45" />
      <note Length="0.03125" Pitch="41" RiffPosition="7.8125" Velocity="38" />
      <note Length="0.03125" Pitch="38" RiffPosition="7.84375" Velocity="63" />
      <note Length="0.015625" Pitch="38" RiffPosition="7.875" Velocity="47" />
      <note Length="0.015625" Pitch="39" RiffPosition="7.890625" Velocity="60" />
      <note Length="0.015625" Pitch="41" RiffPosition="7.90625" Velocity="73" />
      <note Length="0.015625" Pitch="43" RiffPosition="7.921875" Velocity="86" />
      <note Length="0.03125" Pitch="43" RiffPosition="7.9375" Velocity="57" />
      <note Length="0.03125" Pitch="45" RiffPosition="7.96875" Velocity="67" />
      <note Length="0.015625" Pitch="45" RiffPosition="8" Velocity="76" />
      <note Length="0.015625" Pitch="45" RiffPosition="8.015625" Velocity="39" />
      <note Length="0.015625" Pitch="43" RiffPosition="8.03125" Velocity="43" />
      <note Length="0.015625" Pitch="43" RiffPosition="8.046875" Velocity="48" />
      <note Length="0.03125" Pitch="43" RiffPosition="8.0625" Velocity="53" />
      <note Length="0.03125" Pitch="41" RiffPosition="8.09375" Velocity="49" />
      <note Length="0.015625" Pitch="41" RiffPosition="8.125" Velocity="39" />
      <note Length="0.015625" Pitch="43" RiffPosition="8.140625" Velocity="36" />
      <note Length="0.015625" Pitch="43" RiffPosition="8.15625" Velocity="71" />
      <note Length="0.015625" Pitch="43" RiffPosition="8.171875" Velocity="66" />
      <note Length="0.03125" Pitch="45" RiffPosition="8.1875" Velocity="61" />
      <note Length="0.03125" Pitch="48" RiffPosition="8.21875" Velocity="50" />
      <note Length="0.015625" Pitch="48" RiffPosition="8.25" Velocity="81" />
      <note Length="0.015625" Pitch="46" RiffPosition="8.265625" Velocity="76" />
      <note Length="0.015625" Pitch="46" RiffPosition="8.28125" Velocity="66" />
      <note Length="0.015625" Pitch="43" RiffPosition="8.296875" Velocity="93" />
      <note Length="0.03125" Pitch="43" RiffPosition="8.3125" Velocity="79" />
      <note Length="0.03125" Pitch="43" RiffPosition="8.34375" Velocity="50" />
      <note Length="0.015625" Pitch="43" RiffPosition="8.375" Velocity="64" />
      <note Length="0.015625" Pitch="43" RiffPosition="8.390625" Velocity="50" />
      <note Length="0.015625" Pitch="43" RiffPosition="8.40625" Velocity="36" />
      <note Length="0.015625" Pitch="43" RiffPosition="8.421875" Velocity="48" />
      <note Length="0.03125" Pitch="46" RiffPosition="8.4375" Velocity="62" />
      <note Length="0.03125" Pitch="46" RiffPosition="8.46875" Velocity="47" />
      <note Length="0.015625" Pitch="46" RiffPosition="8.5" Velocity="74" />
      <note Length="0.015625" Pitch="46" RiffPosition="8.515625" Velocity="46" />
      <note Length="0.015625" Pitch="43" RiffPosition="8.53125" Velocity="59" />
      <note Length="0.015625" Pitch="43" RiffPosition="8.546875" Velocity="73" />
      <note Length="0.03125" Pitch="43" RiffPosition="8.5625" Velocity="86" />
      <note Length="0.03125" Pitch="39" RiffPosition="8.59375" Velocity="70" />
      <note Length="0.015625" Pitch="39" RiffPosition="8.625" Velocity="85" />
      <note Length="0.015625" Pitch="39" RiffPosition="8.640625" Velocity="89" />
      <note Length="0.015625" Pitch="41" RiffPosition="8.65625" Velocity="93" />
      <note Length="0.015625" Pitch="43" RiffPosition="8.671875" Velocity="54" />
      <note Length="0.03125" Pitch="43" RiffPosition="8.6875" Velocity="58" />
      <note Length="0.03125" Pitch="43" RiffPosition="8.71875" Velocity="66" />
      <note Length="0.015625" Pitch="45" RiffPosition="8.75" Velocity="39" />
      <note Length="0.015625" Pitch="43" RiffPosition="8.765625" Velocity="35" />
      <note Length="0.015625" Pitch="43" RiffPosition="8.78125" Velocity="38" />
      <note Length="0.015625" Pitch="43" RiffPosition="8.796875" Velocity="42" />
      <note Length="0.03125" Pitch="41" RiffPosition="8.8125" Velocity="66" />
      <note Length="0.03125" Pitch="38" RiffPosition="8.84375" Velocity="59" />
      <note Length="0.015625" Pitch="38" RiffPosition="8.875" Velocity="51" />
      <note Length="0.015625" Pitch="39" RiffPosition="8.890625" Velocity="89" />
      <note Length="0.015625" Pitch="41" RiffPosition="8.90625" Velocity="85" />
      <note Length="0.015625" Pitch="43" RiffPosition="8.921875" Velocity="81" />
      <note Length="0.03125" Pitch="43" RiffPosition="8.9375" Velocity="77" />
      <note Length="0.03125" Pitch="45" RiffPosition="8.96875" Velocity="93" />
      <note Length="0.015625" Pitch="46" RiffPosition="9" Velocity="66" />
      <note Length="0.015625" Pitch="45" RiffPosition="9.015625" Velocity="53" />
      <note Length="0.015625" Pitch="43" RiffPosition="9.03125" Velocity="81" />
      <note Length="0.015625" Pitch="43" RiffPosition="9.046875" Velocity="67" />
      <note Length="0.03125" Pitch="43" RiffPosition="9.0625" Velocity="54" />
      <note Length="0.03125" Pitch="41" RiffPosition="9.09375" Velocity="44" />
      <note Length="0.015625" Pitch="41" RiffPosition="9.125" Velocity="40" />
      <note Length="0.015625" Pitch="41" RiffPosition="9.140625" Velocity="45" />
      <note Length="0.015625" Pitch="43" RiffPosition="9.15625" Velocity="59" />
      <note Length="0.015625" Pitch="43" RiffPosition="9.171875" Velocity="39" />
      <note Length="0.03125" Pitch="46" RiffPosition="9.1875" Velocity="45" />
      <note Length="0.03125" Pitch="48" RiffPosition="9.21875" Velocity="74" />
      <note Length="0.015625" Pitch="48" RiffPosition="9.25" Velocity="61" />
      <note Length="0.015625" Pitch="46" RiffPosition="9.265625" Velocity="75" />
      <note Length="0.015625" Pitch="46" RiffPosition="9.28125" Velocity="85" />
      <note Length="0.015625" Pitch="45" RiffPosition="9.296875" Velocity="90" />
      <note Length="0.03125" Pitch="43" RiffPosition="9.3125" Velocity="95" />
      <note Length="0.03125" Pitch="43" RiffPosition="9.34375" Velocity="64" />
      <note Length="0.015625" Pitch="41" RiffPosition="9.375" Velocity="74" />
      <note Length="0.015625" Pitch="43" RiffPosition="9.390625" Velocity="37" />
      <note Length="0.015625" Pitch="43" RiffPosition="9.40625" Velocity="42" />
      <note Length="0.015625" Pitch="43" RiffPosition="9.421875" Velocity="47" />
      <note Length="0.03125" Pitch="45" RiffPosition="9.4375" Velocity="52" />
      <note Length="0.03125" Pitch="46" RiffPosition="9.46875" Velocity="51" />
      <note Length="0.015625" Pitch="46" RiffPosition="9.5" Velocity="42" />
      <note Length="0.015625" Pitch="46" RiffPosition="9.515625" Velocity="37" />
      <note Length="0.015625" Pitch="45" RiffPosition="9.53125" Velocity="37" />
      <note Length="0.015625" Pitch="43" RiffPosition="9.546875" Velocity="71" />
      <note Length="0.03125" Pitch="43" RiffPosition="9.5625" Velocity="66" />
      <note Length="0.03125" Pitch="39" RiffPosition="9.59375" Velocity="58" />
      <note Length="0.015625" Pitch="39" RiffPosition="9.625" Velocity="81" />
      <note Length="0.015625" Pitch="41" RiffPosition="9.640625" Velocity="69" />
      <note Length="0.015625" Pitch="41" RiffPosition="9.65625" Velocity="56" />
      <note Length="0.015625" Pitch="43" RiffPosition="9.671875" Velocity="43" />
      <note Length="0.03125" Pitch="43" RiffPosition="9.6875" Velocity="72" />
      <note Length="0.03125" Pitch="45" RiffPosition="9.71875" Velocity="47" />
      <note Length="0.015625" Pitch="43" RiffPosition="9.75" Velocity="49" />
      <note Length="0.015625" Pitch="43" RiffPosition="9.765625" Velocity="51" />
      <note Length="0.015625" Pitch="43" RiffPosition="9.78125" Velocity="38" />
      <note Length="0.015625" Pitch="41" RiffPosition="9.796875" Velocity="45" />
      <note Length="0.03125" Pitch="41" RiffPosition="9.8125" Velocity="58" />
      <note Length="0.03125" Pitch="38" RiffPosition="9.84375" Velocity="41" />
      <note Length="0.015625" Pitch="38" RiffPosition="9.875" Velocity="67" />
      <note Length="0.015625" Pitch="39" RiffPosition="9.890625" Velocity="80" />
      <note Length="0.015625" Pitch="41" RiffPosition="9.90625" Velocity="51" />
      <note Length="0.015625" Pitch="43" RiffPosition="9.921875" Velocity="64" />
      <note Length="0.03125" Pitch="43" RiffPosition="9.9375" Velocity="77" />
      <note Length="0.03125" Pitch="45" RiffPosition="9.96875" Velocity="87" />
      <note Length="0.015625" Pitch="45" RiffPosition="10" Velocity="54" />
      <note Length="0.015625" Pitch="45" RiffPosition="10.015625" Velocity="58" />
      <note Length="0.015625" Pitch="43" RiffPosition="10.03125" Velocity="63" />
      <note Length="0.015625" Pitch="43" RiffPosition="10.046875" Velocity="44" />
      <note Length="0.03125" Pitch="43" RiffPosition="10.0625" Velocity="40" />
      <note Length="0.03125" Pitch="41" RiffPosition="10.09375" Velocity="40" />
      <note Length="0.015625" Pitch="41" RiffPosition="10.125" Velocity="62" />
      <note Length="0.015625" Pitch="43" RiffPosition="10.140625" Velocity="57" />
      <note Length="0.015625" Pitch="43" RiffPosition="10.15625" Velocity="51" />
      <note Length="0.015625" Pitch="43" RiffPosition="10.171875" Velocity="46" />
      <note Length="0.03125" Pitch="45" RiffPosition="10.1875" Velocity="41" />
      <note Length="0.03125" Pitch="48" RiffPosition="10.21875" Velocity="72" />
      <note Length="0.015625" Pitch="48" RiffPosition="10.25" Velocity="61" />
      <note Length="0.015625" Pitch="46" RiffPosition="10.265625" Velocity="98" />
      <note Length="0.015625" Pitch="46" RiffPosition="10.28125" Velocity="88" />
      <note Length="0.015625" Pitch="43" RiffPosition="10.296875" Velocity="74" />
      <note Length="0.03125" Pitch="43" RiffPosition="10.3125" Velocity="59" />
      <note Length="0.03125" Pitch="43" RiffPosition="10.34375" Velocity="73" />
      <note Length="0.015625" Pitch="43" RiffPosition="10.375" Velocity="44" />
      <note Length="0.015625" Pitch="43" RiffPosition="10.390625" Velocity="40" />
      <note Length="0.015625" Pitch="43" RiffPosition="10.40625" Velocity="54" />
      <note Length="0.015625" Pitch="43" RiffPosition="10.421875" Velocity="44" />
      <note Length="0.03125" Pitch="45" RiffPosition="10.4375" Velocity="39" />
      <note Length="0.03125" Pitch="46" RiffPosition="10.46875" Velocity="67" />
      <note Length="0.015625" Pitch="46" RiffPosition="10.5" Velocity="52" />
      <note Length="0.015625" Pitch="46" RiffPosition="10.515625" Velocity="66" />
      <note Length="0.015625" Pitch="43" RiffPosition="10.53125" Velocity="79" />
      <note Length="0.015625" Pitch="43" RiffPosition="10.546875" Velocity="92" />
      <note Length="0.03125" Pitch="43" RiffPosition="10.5625" Velocity="63" />
      <note Length="0.03125" Pitch="41" RiffPosition="10.59375" Velocity="90" />
      <note Length="0.015625" Pitch="39" RiffPosition="10.625" Velocity="63" />
      <note Length="0.015625" Pitch="39" RiffPosition="10.640625" Velocity="67" />
      <note Length="0.015625" Pitch="41" RiffPosition="10.65625" Velocity="70" />
      <note Length="0.015625" Pitch="43" RiffPosition="10.671875" Velocity="74" />
      <note Length="0.03125" Pitch="43" RiffPosition="10.6875" Velocity="78" />
      <note Length="0.03125" Pitch="43" RiffPosition="10.71875" Velocity="43" />
      <note Length="0.015625" Pitch="43" RiffPosition="10.75" Velocity="51" />
      <note Length="0.015625" Pitch="43" RiffPosition="10.765625" Velocity="54" />
      <note Length="0.015625" Pitch="43" RiffPosition="10.78125" Velocity="54" />
      <note Length="0.015625" Pitch="43" RiffPosition="10.796875" Velocity="50" />
      <note Length="0.03125" Pitch="41" RiffPosition="10.8125" Velocity="47" />
      <note Length="0.03125" Pitch="38" RiffPosition="10.84375" Velocity="81" />
      <note Length="0.015625" Pitch="38" RiffPosition="10.875" Velocity="73" />
      <note Length="0.015625" Pitch="39" RiffPosition="10.890625" Velocity="69" />
      <note Length="0.015625" Pitch="41" RiffPosition="10.90625" Velocity="65" />
      <note Length="0.015625" Pitch="43" RiffPosition="10.921875" Velocity="103" />
      <note Length="0.03125" Pitch="43" RiffPosition="10.9375" Velocity="99" />
      <note Length="0.03125" Pitch="45" RiffPosition="10.96875" Velocity="74" />
      <note Length="0.015625" Pitch="46" RiffPosition="11" Velocity="89" />
      <note Length="0.015625" Pitch="45" RiffPosition="11.015625" Velocity="75" />
      <note Length="0.015625" Pitch="43" RiffPosition="11.03125" Velocity="61" />
      <note Length="0.015625" Pitch="43" RiffPosition="11.046875" Velocity="48" />
      <note Length="0.03125" Pitch="43" RiffPosition="11.0625" Velocity="76" />
      <note Length="0.03125" Pitch="41" RiffPosition="11.09375" Velocity="48" />
      <note Length="0.015625" Pitch="41" RiffPosition="11.125" Velocity="50" />
      <note Length="0.015625" Pitch="43" RiffPosition="11.140625" Velocity="48" />
      <note Length="0.015625" Pitch="43" RiffPosition="11.15625" Velocity="36" />
      <note Length="0.015625" Pitch="43" RiffPosition="11.171875" Velocity="51" />
      <note Length="0.03125" Pitch="46" RiffPosition="11.1875" Velocity="65" />
      <note Length="0.03125" Pitch="48" RiffPosition="11.21875" Velocity="52" />
      <note Length="0.015625" Pitch="48" RiffPosition="11.25" Velocity="80" />
      <note Length="0.015625" Pitch="46" RiffPosition="11.265625" Velocity="95" />
      <note Length="0.015625" Pitch="46" RiffPosition="11.28125" Velocity="62" />
      <note Length="0.015625" Pitch="45" RiffPosition="11.296875" Velocity="67" />
      <note Length="0.03125" Pitch="43" RiffPosition="11.3125" Velocity="73" />
      <note Length="0.03125" Pitch="43" RiffPosition="11.34375" Velocity="83" />
      <note Length="0.015625" Pitch="41" RiffPosition="11.375" Velocity="52" />
      <note Length="0.015625" Pitch="43" RiffPosition="11.390625" Velocity="57" />
      <note Length="0.015625" Pitch="43" RiffPosition="11.40625" Velocity="62" />
      <note Length="0.015625" Pitch="43" RiffPosition="11.421875" Velocity="67" />
      <note Length="0.03125" Pitch="45" RiffPosition="11.4375" Velocity="41" />
      <note Length="0.03125" Pitch="46" RiffPosition="11.46875" Velocity="39" />
      <note Length="0.015625" Pitch="46" RiffPosition="11.5" Velocity="64" />
      <note Length="0.015625" Pitch="46" RiffPosition="11.515625" Velocity="60" />
      <note Length="0.015625" Pitch="45" RiffPosition="11.53125" Velocity="55" />
      <note Length="0.015625" Pitch="43" RiffPosition="11.546875" Velocity="51" />
      <note Length="0.03125" Pitch="43" RiffPosition="11.5625" Velocity="47" />
      <note Length="0.03125" Pitch="39" RiffPosition="11.59375" Velocity="81" />
      <note Length="0.015625" Pitch="39" RiffPosition="11.625" Velocity="62" />
      <note Length="0.015625" Pitch="41" RiffPosition="11.640625" Velocity="49" />
      <note Length="0.015625" Pitch="41" RiffPosition="11.65625" Velocity="78" />
      <note Length="0.015625" Pitch="43" RiffPosition="11.671875" Velocity="65" />
      <note Length="0.03125" Pitch="43" RiffPosition="11.6875" Velocity="52" />
      <note Length="0.03125" Pitch="45" RiffPosition="11.71875" Velocity="69" />
      <note Length="0.015625" Pitch="45" RiffPosition="11.75" Velocity="44" />
      <note Length="0.015625" Pitch="43" RiffPosition="11.765625" Velocity="39" />
      <note Length="0.015625" Pitch="43" RiffPosition="11.78125" Velocity="52" />
      <note Length="0.015625" Pitch="43" RiffPosition="11.796875" Velocity="48" />
      <note Length="0.03125" Pitch="41" RiffPosition="11.8125" Velocity="35" />
      <note Length="0.03125" Pitch="38" RiffPosition="11.84375" Velocity="61" />
      <note Length="0.015625" Pitch="38" RiffPosition="11.875" Velocity="45" />
      <note Length="0.015625" Pitch="39" RiffPosition="11.890625" Velocity="58" />
      <note Length="0.015625" Pitch="41" RiffPosition="11.90625" Velocity="71" />
      <note Length="0.015625" Pitch="43" RiffPosition="11.921875" Velocity="84" />
      <note Length="0.03125" Pitch="43" RiffPosition="11.9375" Velocity="55" />
      <note Length="0.03125" Pitch="45" RiffPosition="11.96875" Velocity="65" />
      <note Length="0.015625" Pitch="45" RiffPosition="12" Velocity="73" />
      <note Length="0.015625" Pitch="45" RiffPosition="12.015625" Velocity="36" />
      <note Length="0.015625" Pitch="43" RiffPosition="12.03125" Velocity="41" />
      <note Length="0.015625" Pitch="43" RiffPosition="12.046875" Velocity="45" />
      <note Length="0.03125" Pitch="43" RiffPosition="12.0625" Velocity="50" />
      <note Length="0.03125" Pitch="41" RiffPosition="12.09375" Velocity="52" />
      <note Length="0.015625" Pitch="41" RiffPosition="12.125" Velocity="42" />
      <note Length="0.015625" Pitch="41" RiffPosition="12.140625" Velocity="37" />
      <note Length="0.015625" Pitch="43" RiffPosition="12.15625" Velocity="74" />
      <note Length="0.015625" Pitch="43" RiffPosition="12.171875" Velocity="68" />
      <note Length="0.03125" Pitch="45" RiffPosition="12.1875" Velocity="63" />
      <note Length="0.03125" Pitch="48" RiffPosition="12.21875" Velocity="52" />
      <note Length="0.015625" Pitch="48" RiffPosition="12.25" Velocity="84" />
      <note Length="0.015625" Pitch="46" RiffPosition="12.265625" Velocity="78" />
      <note Length="0.015625" Pitch="46" RiffPosition="12.28125" Velocity="68" />
      <note Length="0.015625" Pitch="45" RiffPosition="12.296875" Velocity="54" />
      <note Length="0.03125" Pitch="43" RiffPosition="12.3125" Velocity="82" />
      <note Length="0.03125" Pitch="43" RiffPosition="12.34375" Velocity="53" />
      <note Length="0.015625" Pitch="43" RiffPosition="12.375" Velocity="67" />
      <note Length="0.015625" Pitch="43" RiffPosition="12.390625" Velocity="53" />
      <note Length="0.015625" Pitch="43" RiffPosition="12.40625" Velocity="39" />
      <note Length="0.015625" Pitch="43" RiffPosition="12.421875" Velocity="45" />
      <note Length="0.03125" Pitch="45" RiffPosition="12.4375" Velocity="59" />
      <note Length="0.03125" Pitch="46" RiffPosition="12.46875" Velocity="45" />
      <note Length="0.015625" Pitch="46" RiffPosition="12.5" Velocity="72" />
      <note Length="0.015625" Pitch="46" RiffPosition="12.515625" Velocity="85" />
      <note Length="0.015625" Pitch="43" RiffPosition="12.53125" Velocity="57" />
      <note Length="0.015625" Pitch="43" RiffPosition="12.546875" Velocity="70" />
      <note Length="0.03125" Pitch="43" RiffPosition="12.5625" Velocity="83" />
      <note Length="0.03125" Pitch="41" RiffPosition="12.59375" Velocity="67" />
      <note Length="0.015625" Pitch="39" RiffPosition="12.625" Velocity="82" />
      <note Length="0.015625" Pitch="41" RiffPosition="12.640625" Velocity="86" />
      <note Length="0.015625" Pitch="41" RiffPosition="12.65625" Velocity="90" />
      <note Length="0.015625" Pitch="43" RiffPosition="12.671875" Velocity="52" />
      <note Length="0.03125" Pitch="43" RiffPosition="12.6875" Velocity="56" />
      <note Length="0.03125" Pitch="45" RiffPosition="12.71875" Velocity="63" />
      <note Length="0.015625" Pitch="43" RiffPosition="12.75" Velocity="42" />
      <note Length="0.015625" Pitch="43" RiffPosition="12.765625" Velocity="38" />
      <note Length="0.015625" Pitch="43" RiffPosition="12.78125" Velocity="36" />
      <note Length="0.015625" Pitch="43" RiffPosition="12.796875" Velocity="39" />
      <note Length="0.03125" Pitch="41" RiffPosition="12.8125" Velocity="69" />
      <note Length="0.03125" Pitch="38" RiffPosition="12.84375" Velocity="61" />
      <note Length="0.015625" Pitch="38" RiffPosition="12.875" Velocity="54" />
      <note Length="0.015625" Pitch="39" RiffPosition="12.890625" Velocity="92" />
      <note Length="0.015625" Pitch="41" RiffPosition="12.90625" Velocity="88" />
      <note Length="0.015625" Pitch="43" RiffPosition="12.921875" Velocity="84" />
      <note Length="0.03125" Pitch="43" RiffPosition="12.9375" Velocity="79" />
      <note Length="0.03125" Pitch="45" RiffPosition="12.96875" Velocity="96" />
      <note Length="0.015625" Pitch="46" RiffPosition="13" Velocity="69" />
      <note Length="0.015625" Pitch="45" RiffPosition="13.015625" Velocity="55" />
      <note Length="0.015625" Pitch="43" RiffPosition="13.03125" Velocity="84" />
      <note Length="0.015625" Pitch="43" RiffPosition="13.046875" Velocity="70" />
      <note Length="0.03125" Pitch="43" RiffPosition="13.0625" Velocity="56" />
      <note Length="0.03125" Pitch="41" RiffPosition="13.09375" Velocity="42" />
      <note Length="0.015625" Pitch="41" RiffPosition="13.125" Velocity="42" />
      <note Length="0.015625" Pitch="43" RiffPosition="13.140625" Velocity="42" />
      <note Length="0.015625" Pitch="43" RiffPosition="13.15625" Velocity="56" />
      <note Length="0.015625" Pitch="43" RiffPosition="13.171875" Velocity="70" />
      <note Length="0.03125" Pitch="45" RiffPosition="13.1875" Velocity="43" />
      <note Length="0.03125" Pitch="48" RiffPosition="13.21875" Velocity="71" />
      <note Length="0.015625" Pitch="48" RiffPosition="13.25" Velocity="58" />
      <note Length="0.015625" Pitch="46" RiffPosition="13.265625" Velocity="72" />
      <note Length="0.015625" Pitch="46" RiffPosition="13.28125" Velocity="82" />
      <note Length="0.015625" Pitch="43" RiffPosition="13.296875" Velocity="87" />
      <note Length="0.03125" Pitch="43" RiffPosition="13.3125" Velocity="93" />
      <note Length="0.03125" Pitch="43" RiffPosition="13.34375" Velocity="61" />
      <note Length="0.015625" Pitch="43" RiffPosition="13.375" Velocity="71" />
      <note Length="0.015625" Pitch="43" RiffPosition="13.390625" Velocity="76" />
      <note Length="0.015625" Pitch="43" RiffPosition="13.40625" Velocity="39" />
      <note Length="0.015625" Pitch="43" RiffPosition="13.421875" Velocity="44" />
      <note Length="0.03125" Pitch="45" RiffPosition="13.4375" Velocity="49" />
      <note Length="0.03125" Pitch="46" RiffPosition="13.46875" Velocity="54" />
      <note Length="0.015625" Pitch="46" RiffPosition="13.5" Velocity="44" />
      <note Length="0.015625" Pitch="46" RiffPosition="13.515625" Velocity="40" />
      <note Length="0.015625" Pitch="45" RiffPosition="13.53125" Velocity="35" />
      <note Length="0.015625" Pitch="43" RiffPosition="13.546875" Velocity="73" />
      <note Length="0.03125" Pitch="43" RiffPosition="13.5625" Velocity="69" />
      <note Length="0.03125" Pitch="39" RiffPosition="13.59375" Velocity="61" />
      <note Length="0.015625" Pitch="39" RiffPosition="13.625" Velocity="84" />
      <note Length="0.015625" Pitch="41" RiffPosition="13.640625" Velocity="71" />
      <note Length="0.015625" Pitch="41" RiffPosition="13.65625" Velocity="58" />
      <note Length="0.015625" Pitch="43" RiffPosition="13.671875" Velocity="45" />
      <note Length="0.03125" Pitch="43" RiffPosition="13.6875" Velocity="75" />
      <note Length="0.03125" Pitch="43" RiffPosition="13.71875" Velocity="49" />
      <note Length="0.015625" Pitch="45" RiffPosition="13.75" Velocity="46" />
      <note Length="0.015625" Pitch="43" RiffPosition="13.765625" Velocity="53" />
      <note Length="0.015625" Pitch="43" RiffPosition="13.78125" Velocity="41" />
      <note Length="0.015625" Pitch="43" RiffPosition="13.796875" Velocity="42" />
      <note Length="0.03125" Pitch="41" RiffPosition="13.8125" Velocity="55" />
      <note Length="0.03125" Pitch="38" RiffPosition="13.84375" Velocity="38" />
      <note Length="0.015625" Pitch="38" RiffPosition="13.875" Velocity="64" />
      <note Length="0.015625" Pitch="39" RiffPosition="13.890625" Velocity="77" />
      <note Length="0.015625" Pitch="41" RiffPosition="13.90625" Velocity="48" />
      <note Length="0.015625" Pitch="43" RiffPosition="13.921875" Velocity="61" />
      <note Length="0.03125" Pitch="43" RiffPosition="13.9375" Velocity="75" />
      <note Length="0.03125" Pitch="45" RiffPosition="13.96875" Velocity="84" />
    </riff>
    <riff IsDrum="False" MidiInstrument="34" Tempo="79" Length="14">
      <note Length="0.015625" Pitch="43" RiffPosition="0" Velocity="0" />
      <note Length="0.015625" Pitch="43" RiffPosition="0.015625" Velocity="0" />
      <note Length="0.03125" Pitch="43" RiffPosition="0.03125" Velocity="0" />
      <note Length="0.0234375" Pitch="41" RiffPosition="0.0625" Velocity="0" />
      <note Length="0.0078125" Pitch="41" RiffPosition="0.0859375" Velocity="0" />
      <note Length="0.015625" Pitch="41" RiffPosition="0.09375" Velocity="0" />
      <note Length="0.015625" Pitch="41" RiffPosition="0.109375" Velocity="0" />
      <note Length="0.015625" Pitch="43" RiffPosition="0.125" Velocity="0" />
      <note Length="0.015625" Pitch="43" RiffPosition="0.140625" Velocity="0" />
      <note Length="0.03125" Pitch="43" RiffPosition="0.15625" Velocity="0" />
      <note Length="0.0234375" Pitch="46" RiffPosition="0.1875" Velocity="0" />
      <note Length="0.0078125" Pitch="48" RiffPosition="0.2109375" Velocity="0" />
      <note Length="0.015625" Pitch="48" RiffPosition="0.21875" Velocity="0" />
      <note Length="0.015625" Pitch="46" RiffPosition="0.234375" Velocity="0" />
      <note Length="0.015625" Pitch="46" RiffPosition="0.25" Velocity="0" />
      <note Length="0.015625" Pitch="43" RiffPosition="0.265625" Velocity="0" />
      <note Length="0.03125" Pitch="43" RiffPosition="0.28125" Velocity="0" />
      <note Length="0.0234375" Pitch="41" RiffPosition="0.3125" Velocity="0" />
      <note Length="0.0078125" Pitch="39" RiffPosition="0.3359375" Velocity="0" />
      <note Length="0.015625" Pitch="39" RiffPosition="0.34375" Velocity="0" />
      <note Length="0.015625" Pitch="39" RiffPosition="0.359375" Velocity="0" />
      <note Length="0.015625" Pitch="41" RiffPosition="0.375" Velocity="0" />
      <note Length="0.015625" Pitch="43" RiffPosition="0.390625" Velocity="0" />
      <note Length="0.03125" Pitch="43" RiffPosition="0.40625" Velocity="0" />
      <note Length="0.0234375" Pitch="46" RiffPosition="0.4375" Velocity="0" />
      <note Length="0.0078125" Pitch="48" RiffPosition="0.4609375" Velocity="0" />
      <note Length="0.015625" Pitch="48" RiffPosition="0.46875" Velocity="0" />
      <note Length="0.015625" Pitch="48" RiffPosition="0.484375" Velocity="0" />
      <note Length="0.015625" Pitch="46" RiffPosition="0.5" Velocity="0" />
      <note Length="0.015625" Pitch="46" RiffPosition="0.515625" Velocity="0" />
      <note Length="0.03125" Pitch="43" RiffPosition="0.53125" Velocity="0" />
      <note Length="0.0234375" Pitch="41" RiffPosition="0.5625" Velocity="0" />
      <note Length="0.0078125" Pitch="38" RiffPosition="0.5859375" Velocity="0" />
      <note Length="0.015625" Pitch="38" RiffPosition="0.59375" Velocity="0" />
      <note Length="0.015625" Pitch="38" RiffPosition="0.609375" Velocity="0" />
      <note Length="0.015625" Pitch="38" RiffPosition="0.625" Velocity="0" />
      <note Length="0.015625" Pitch="39" RiffPosition="0.640625" Velocity="0" />
      <note Length="0.03125" Pitch="41" RiffPosition="0.65625" Velocity="0" />
      <note Length="0.0234375" Pitch="43" RiffPosition="0.6875" Velocity="0" />
      <note Length="0.0078125" Pitch="45" RiffPosition="0.7109375" Velocity="0" />
      <note Length="0.015625" Pitch="46" RiffPosition="0.71875" Velocity="0" />
      <note Length="0.015625" Pitch="46" RiffPosition="0.734375" Velocity="0" />
      <note Length="0.015625" Pitch="46" RiffPosition="0.75" Velocity="0" />
      <note Length="0.015625" Pitch="45" RiffPosition="0.765625" Velocity="0" />
      <note Length="0.03125" Pitch="43" RiffPosition="0.78125" Velocity="0" />
      <note Length="0.0234375" Pitch="41" RiffPosition="0.8125" Velocity="0" />
      <note Length="0.0078125" Pitch="41" RiffPosition="0.8359375" Velocity="0" />
      <note Length="0.015625" Pitch="41" RiffPosition="0.84375" Velocity="0" />
      <note Length="0.015625" Pitch="41" RiffPosition="0.859375" Velocity="0" />
      <note Length="0.015625" Pitch="41" RiffPosition="0.875" Velocity="0" />
      <note Length="0.015625" Pitch="41" RiffPosition="0.890625" Velocity="0" />
      <note Length="0.03125" Pitch="43" RiffPosition="0.90625" Velocity="0" />
      <note Length="0.0234375" Pitch="43" RiffPosition="0.9375" Velocity="0" />
      <note Length="0.0078125" Pitch="45" RiffPosition="0.9609375" Velocity="0" />
      <note Length="0.015625" Pitch="45" RiffPosition="0.96875" Velocity="0" />
      <note Length="0.015625" Pitch="45" RiffPosition="0.984375" Velocity="0" />
      <note Length="0.015625" Pitch="43" RiffPosition="1" Velocity="0" />
      <note Length="0.015625" Pitch="43" RiffPosition="1.015625" Velocity="0" />
      <note Length="0.03125" Pitch="43" RiffPosition="1.03125" Velocity="0" />
      <note Length="0.0234375" Pitch="41" RiffPosition="1.0625" Velocity="0" />
      <note Length="0.0078125" Pitch="41" RiffPosition="1.0859375" Velocity="0" />
      <note Length="0.015625" Pitch="41" RiffPosition="1.09375" Velocity="0" />
      <note Length="0.015625" Pitch="41" RiffPosition="1.109375" Velocity="0" />
      <note Length="0.015625" Pitch="43" RiffPosition="1.125" Velocity="0" />
      <note Length="0.015625" Pitch="43" RiffPosition="1.140625" Velocity="0" />
      <note Length="0.03125" Pitch="43" RiffPosition="1.15625" Velocity="0" />
      <note Length="0.0234375" Pitch="46" RiffPosition="1.1875" Velocity="0" />
      <note Length="0.0078125" Pitch="48" RiffPosition="1.2109375" Velocity="0" />
      <note Length="0.015625" Pitch="48" RiffPosition="1.21875" Velocity="0" />
      <note Length="0.015625" Pitch="46" RiffPosition="1.234375" Velocity="0" />
      <note Length="0.015625" Pitch="46" RiffPosition="1.25" Velocity="0" />
      <note Length="0.015625" Pitch="43" RiffPosition="1.265625" Velocity="0" />
      <note Length="0.03125" Pitch="43" RiffPosition="1.28125" Velocity="0" />
      <note Length="0.0234375" Pitch="41" RiffPosition="1.3125" Velocity="0" />
      <note Length="0.0078125" Pitch="39" RiffPosition="1.3359375" Velocity="0" />
      <note Length="0.015625" Pitch="39" RiffPosition="1.34375" Velocity="0" />
      <note Length="0.015625" Pitch="39" RiffPosition="1.359375" Velocity="0" />
      <note Length="0.015625" Pitch="41" RiffPosition="1.375" Velocity="0" />
      <note Length="0.015625" Pitch="43" RiffPosition="1.390625" Velocity="0" />
      <note Length="0.03125" Pitch="43" RiffPosition="1.40625" Velocity="0" />
      <note Length="0.0234375" Pitch="46" RiffPosition="1.4375" Velocity="0" />
      <note Length="0.0078125" Pitch="48" RiffPosition="1.4609375" Velocity="0" />
      <note Length="0.015625" Pitch="48" RiffPosition="1.46875" Velocity="0" />
      <note Length="0.015625" Pitch="48" RiffPosition="1.484375" Velocity="0" />
      <note Length="0.015625" Pitch="46" RiffPosition="1.5" Velocity="0" />
      <note Length="0.015625" Pitch="46" RiffPosition="1.515625" Velocity="0" />
      <note Length="0.03125" Pitch="43" RiffPosition="1.53125" Velocity="0" />
      <note Length="0.0234375" Pitch="41" RiffPosition="1.5625" Velocity="0" />
      <note Length="0.0078125" Pitch="38" RiffPosition="1.5859375" Velocity="0" />
      <note Length="0.015625" Pitch="38" RiffPosition="1.59375" Velocity="0" />
      <note Length="0.015625" Pitch="38" RiffPosition="1.609375" Velocity="0" />
      <note Length="0.015625" Pitch="38" RiffPosition="1.625" Velocity="0" />
      <note Length="0.015625" Pitch="39" RiffPosition="1.640625" Velocity="0" />
      <note Length="0.03125" Pitch="41" RiffPosition="1.65625" Velocity="0" />
      <note Length="0.0234375" Pitch="43" RiffPosition="1.6875" Velocity="0" />
      <note Length="0.0078125" Pitch="45" RiffPosition="1.7109375" Velocity="0" />
      <note Length="0.015625" Pitch="46" RiffPosition="1.71875" Velocity="0" />
      <note Length="0.015625" Pitch="46" RiffPosition="1.734375" Velocity="0" />
      <note Length="0.015625" Pitch="46" RiffPosition="1.75" Velocity="0" />
      <note Length="0.015625" Pitch="45" RiffPosition="1.765625" Velocity="0" />
      <note Length="0.03125" Pitch="43" RiffPosition="1.78125" Velocity="0" />
      <note Length="0.0234375" Pitch="41" RiffPosition="1.8125" Velocity="0" />
      <note Length="0.0078125" Pitch="41" RiffPosition="1.8359375" Velocity="0" />
      <note Length="0.015625" Pitch="41" RiffPosition="1.84375" Velocity="0" />
      <note Length="0.015625" Pitch="41" RiffPosition="1.859375" Velocity="0" />
      <note Length="0.015625" Pitch="41" RiffPosition="1.875" Velocity="0" />
      <note Length="0.015625" Pitch="41" RiffPosition="1.890625" Velocity="0" />
      <note Length="0.03125" Pitch="43" RiffPosition="1.90625" Velocity="0" />
      <note Length="0.0234375" Pitch="43" RiffPosition="1.9375" Velocity="0" />
      <note Length="0.0078125" Pitch="45" RiffPosition="1.9609375" Velocity="0" />
      <note Length="0.015625" Pitch="45" RiffPosition="1.96875" Velocity="0" />
      <note Length="0.015625" Pitch="45" RiffPosition="1.984375" Velocity="0" />
      <note Length="0.015625" Pitch="43" RiffPosition="2" Velocity="0" />
      <note Length="0.015625" Pitch="43" RiffPosition="2.015625" Velocity="0" />
      <note Length="0.03125" Pitch="43" RiffPosition="2.03125" Velocity="0" />
      <note Length="0.0234375" Pitch="41" RiffPosition="2.0625" Velocity="0" />
      <note Length="0.0078125" Pitch="41" RiffPosition="2.0859375" Velocity="0" />
      <note Length="0.015625" Pitch="41" RiffPosition="2.09375" Velocity="0" />
      <note Length="0.015625" Pitch="41" RiffPosition="2.109375" Velocity="0" />
      <note Length="0.015625" Pitch="43" RiffPosition="2.125" Velocity="0" />
      <note Length="0.015625" Pitch="43" RiffPosition="2.140625" Velocity="0" />
      <note Length="0.03125" Pitch="43" RiffPosition="2.15625" Velocity="0" />
      <note Length="0.0234375" Pitch="46" RiffPosition="2.1875" Velocity="0" />
      <note Length="0.0078125" Pitch="48" RiffPosition="2.2109375" Velocity="0" />
      <note Length="0.015625" Pitch="48" RiffPosition="2.21875" Velocity="0" />
      <note Length="0.015625" Pitch="46" RiffPosition="2.234375" Velocity="0" />
      <note Length="0.015625" Pitch="46" RiffPosition="2.25" Velocity="0" />
      <note Length="0.015625" Pitch="43" RiffPosition="2.265625" Velocity="0" />
      <note Length="0.03125" Pitch="43" RiffPosition="2.28125" Velocity="0" />
      <note Length="0.0234375" Pitch="41" RiffPosition="2.3125" Velocity="0" />
      <note Length="0.0078125" Pitch="39" RiffPosition="2.3359375" Velocity="0" />
      <note Length="0.015625" Pitch="39" RiffPosition="2.34375" Velocity="0" />
      <note Length="0.015625" Pitch="39" RiffPosition="2.359375" Velocity="0" />
      <note Length="0.015625" Pitch="41" RiffPosition="2.375" Velocity="0" />
      <note Length="0.015625" Pitch="43" RiffPosition="2.390625" Velocity="0" />
      <note Length="0.03125" Pitch="43" RiffPosition="2.40625" Velocity="0" />
      <note Length="0.0234375" Pitch="46" RiffPosition="2.4375" Velocity="0" />
      <note Length="0.0078125" Pitch="48" RiffPosition="2.4609375" Velocity="0" />
      <note Length="0.015625" Pitch="48" RiffPosition="2.46875" Velocity="0" />
      <note Length="0.015625" Pitch="48" RiffPosition="2.484375" Velocity="0" />
      <note Length="0.015625" Pitch="46" RiffPosition="2.5" Velocity="0" />
      <note Length="0.015625" Pitch="46" RiffPosition="2.515625" Velocity="0" />
      <note Length="0.03125" Pitch="43" RiffPosition="2.53125" Velocity="0" />
      <note Length="0.0234375" Pitch="41" RiffPosition="2.5625" Velocity="0" />
      <note Length="0.0078125" Pitch="38" RiffPosition="2.5859375" Velocity="0" />
      <note Length="0.015625" Pitch="38" RiffPosition="2.59375" Velocity="0" />
      <note Length="0.015625" Pitch="38" RiffPosition="2.609375" Velocity="0" />
      <note Length="0.015625" Pitch="38" RiffPosition="2.625" Velocity="0" />
      <note Length="0.015625" Pitch="39" RiffPosition="2.640625" Velocity="0" />
      <note Length="0.03125" Pitch="41" RiffPosition="2.65625" Velocity="0" />
      <note Length="0.0234375" Pitch="43" RiffPosition="2.6875" Velocity="0" />
      <note Length="0.0078125" Pitch="45" RiffPosition="2.7109375" Velocity="0" />
      <note Length="0.015625" Pitch="46" RiffPosition="2.71875" Velocity="0" />
      <note Length="0.015625" Pitch="46" RiffPosition="2.734375" Velocity="0" />
      <note Length="0.015625" Pitch="46" RiffPosition="2.75" Velocity="0" />
      <note Length="0.015625" Pitch="45" RiffPosition="2.765625" Velocity="0" />
      <note Length="0.03125" Pitch="43" RiffPosition="2.78125" Velocity="0" />
      <note Length="0.0234375" Pitch="41" RiffPosition="2.8125" Velocity="0" />
      <note Length="0.0078125" Pitch="41" RiffPosition="2.8359375" Velocity="0" />
      <note Length="0.015625" Pitch="41" RiffPosition="2.84375" Velocity="0" />
      <note Length="0.015625" Pitch="41" RiffPosition="2.859375" Velocity="0" />
      <note Length="0.015625" Pitch="41" RiffPosition="2.875" Velocity="0" />
      <note Length="0.015625" Pitch="41" RiffPosition="2.890625" Velocity="0" />
      <note Length="0.03125" Pitch="43" RiffPosition="2.90625" Velocity="0" />
      <note Length="0.0234375" Pitch="43" RiffPosition="2.9375" Velocity="0" />
      <note Length="0.0078125" Pitch="45" RiffPosition="2.9609375" Velocity="0" />
      <note Length="0.015625" Pitch="45" RiffPosition="2.96875" Velocity="0" />
      <note Length="0.015625" Pitch="45" RiffPosition="2.984375" Velocity="0" />
      <note Length="0.015625" Pitch="43" RiffPosition="3" Velocity="0" />
      <note Length="0.015625" Pitch="43" RiffPosition="3.015625" Velocity="0" />
      <note Length="0.03125" Pitch="43" RiffPosition="3.03125" Velocity="0" />
      <note Length="0.0234375" Pitch="41" RiffPosition="3.0625" Velocity="0" />
      <note Length="0.0078125" Pitch="41" RiffPosition="3.0859375" Velocity="0" />
      <note Length="0.015625" Pitch="41" RiffPosition="3.09375" Velocity="0" />
      <note Length="0.015625" Pitch="41" RiffPosition="3.109375" Velocity="0" />
      <note Length="0.015625" Pitch="43" RiffPosition="3.125" Velocity="0" />
      <note Length="0.015625" Pitch="43" RiffPosition="3.140625" Velocity="0" />
      <note Length="0.03125" Pitch="43" RiffPosition="3.15625" Velocity="0" />
      <note Length="0.0234375" Pitch="46" RiffPosition="3.1875" Velocity="0" />
      <note Length="0.0078125" Pitch="48" RiffPosition="3.2109375" Velocity="0" />
      <note Length="0.015625" Pitch="48" RiffPosition="3.21875" Velocity="0" />
      <note Length="0.015625" Pitch="46" RiffPosition="3.234375" Velocity="0" />
      <note Length="0.015625" Pitch="46" RiffPosition="3.25" Velocity="0" />
      <note Length="0.015625" Pitch="43" RiffPosition="3.265625" Velocity="0" />
      <note Length="0.03125" Pitch="43" RiffPosition="3.28125" Velocity="0" />
      <note Length="0.0234375" Pitch="41" RiffPosition="3.3125" Velocity="0" />
      <note Length="0.0078125" Pitch="39" RiffPosition="3.3359375" Velocity="0" />
      <note Length="0.015625" Pitch="39" RiffPosition="3.34375" Velocity="0" />
      <note Length="0.015625" Pitch="39" RiffPosition="3.359375" Velocity="0" />
      <note Length="0.015625" Pitch="41" RiffPosition="3.375" Velocity="0" />
      <note Length="0.015625" Pitch="43" RiffPosition="3.390625" Velocity="0" />
      <note Length="0.03125" Pitch="43" RiffPosition="3.40625" Velocity="0" />
      <note Length="0.0234375" Pitch="46" RiffPosition="3.4375" Velocity="0" />
      <note Length="0.0078125" Pitch="48" RiffPosition="3.4609375" Velocity="0" />
      <note Length="0.015625" Pitch="48" RiffPosition="3.46875" Velocity="0" />
      <note Length="0.015625" Pitch="48" RiffPosition="3.484375" Velocity="0" />
      <note Length="0.015625" Pitch="46" RiffPosition="3.5" Velocity="0" />
      <note Length="0.015625" Pitch="46" RiffPosition="3.515625" Velocity="0" />
      <note Length="0.03125" Pitch="43" RiffPosition="3.53125" Velocity="0" />
      <note Length="0.0234375" Pitch="41" RiffPosition="3.5625" Velocity="0" />
      <note Length="0.0078125" Pitch="38" RiffPosition="3.5859375" Velocity="0" />
      <note Length="0.015625" Pitch="38" RiffPosition="3.59375" Velocity="0" />
      <note Length="0.015625" Pitch="38" RiffPosition="3.609375" Velocity="0" />
      <note Length="0.015625" Pitch="38" RiffPosition="3.625" Velocity="0" />
      <note Length="0.015625" Pitch="39" RiffPosition="3.640625" Velocity="0" />
      <note Length="0.03125" Pitch="41" RiffPosition="3.65625" Velocity="0" />
      <note Length="0.0234375" Pitch="43" RiffPosition="3.6875" Velocity="0" />
      <note Length="0.0078125" Pitch="45" RiffPosition="3.7109375" Velocity="0" />
      <note Length="0.015625" Pitch="46" RiffPosition="3.71875" Velocity="0" />
      <note Length="0.015625" Pitch="46" RiffPosition="3.734375" Velocity="0" />
      <note Length="0.015625" Pitch="46" RiffPosition="3.75" Velocity="0" />
      <note Length="0.015625" Pitch="45" RiffPosition="3.765625" Velocity="0" />
      <note Length="0.03125" Pitch="43" RiffPosition="3.78125" Velocity="0" />
      <note Length="0.0234375" Pitch="41" RiffPosition="3.8125" Velocity="0" />
      <note Length="0.0078125" Pitch="41" RiffPosition="3.8359375" Velocity="0" />
      <note Length="0.015625" Pitch="41" RiffPosition="3.84375" Velocity="0" />
      <note Length="0.015625" Pitch="41" RiffPosition="3.859375" Velocity="0" />
      <note Length="0.015625" Pitch="41" RiffPosition="3.875" Velocity="0" />
      <note Length="0.015625" Pitch="41" RiffPosition="3.890625" Velocity="0" />
      <note Length="0.03125" Pitch="43" RiffPosition="3.90625" Velocity="0" />
      <note Length="0.0234375" Pitch="43" RiffPosition="3.9375" Velocity="0" />
      <note Length="0.0078125" Pitch="45" RiffPosition="3.9609375" Velocity="0" />
      <note Length="0.015625" Pitch="45" RiffPosition="3.96875" Velocity="0" />
      <note Length="0.015625" Pitch="45" RiffPosition="3.984375" Velocity="0" />
      <note Length="0.015625" Pitch="43" RiffPosition="4" Velocity="0" />
      <note Length="0.015625" Pitch="43" RiffPosition="4.015625" Velocity="0" />
      <note Length="0.03125" Pitch="43" RiffPosition="4.03125" Velocity="0" />
      <note Length="0.0234375" Pitch="41" RiffPosition="4.0625" Velocity="0" />
      <note Length="0.0078125" Pitch="41" RiffPosition="4.0859375" Velocity="0" />
      <note Length="0.015625" Pitch="41" RiffPosition="4.09375" Velocity="0" />
      <note Length="0.015625" Pitch="41" RiffPosition="4.109375" Velocity="0" />
      <note Length="0.015625" Pitch="43" RiffPosition="4.125" Velocity="0" />
      <note Length="0.015625" Pitch="43" RiffPosition="4.140625" Velocity="0" />
      <note Length="0.03125" Pitch="43" RiffPosition="4.15625" Velocity="0" />
      <note Length="0.0234375" Pitch="46" RiffPosition="4.1875" Velocity="0" />
      <note Length="0.0078125" Pitch="48" RiffPosition="4.2109375" Velocity="0" />
      <note Length="0.015625" Pitch="48" RiffPosition="4.21875" Velocity="0" />
      <note Length="0.015625" Pitch="46" RiffPosition="4.234375" Velocity="0" />
      <note Length="0.015625" Pitch="46" RiffPosition="4.25" Velocity="0" />
      <note Length="0.015625" Pitch="43" RiffPosition="4.265625" Velocity="0" />
      <note Length="0.03125" Pitch="43" RiffPosition="4.28125" Velocity="0" />
      <note Length="0.0234375" Pitch="41" RiffPosition="4.3125" Velocity="0" />
      <note Length="0.0078125" Pitch="39" RiffPosition="4.3359375" Velocity="0" />
      <note Length="0.015625" Pitch="39" RiffPosition="4.34375" Velocity="0" />
      <note Length="0.015625" Pitch="39" RiffPosition="4.359375" Velocity="0" />
      <note Length="0.015625" Pitch="41" RiffPosition="4.375" Velocity="0" />
      <note Length="0.015625" Pitch="43" RiffPosition="4.390625" Velocity="0" />
      <note Length="0.03125" Pitch="43" RiffPosition="4.40625" Velocity="0" />
      <note Length="0.0234375" Pitch="46" RiffPosition="4.4375" Velocity="0" />
      <note Length="0.0078125" Pitch="48" RiffPosition="4.4609375" Velocity="0" />
      <note Length="0.015625" Pitch="48" RiffPosition="4.46875" Velocity="0" />
      <note Length="0.015625" Pitch="48" RiffPosition="4.484375" Velocity="0" />
      <note Length="0.015625" Pitch="46" RiffPosition="4.5" Velocity="0" />
      <note Length="0.015625" Pitch="46" RiffPosition="4.515625" Velocity="0" />
      <note Length="0.03125" Pitch="43" RiffPosition="4.53125" Velocity="0" />
      <note Length="0.0234375" Pitch="41" RiffPosition="4.5625" Velocity="0" />
      <note Length="0.0078125" Pitch="38" RiffPosition="4.5859375" Velocity="0" />
      <note Length="0.015625" Pitch="38" RiffPosition="4.59375" Velocity="0" />
      <note Length="0.015625" Pitch="38" RiffPosition="4.609375" Velocity="0" />
      <note Length="0.015625" Pitch="38" RiffPosition="4.625" Velocity="0" />
      <note Length="0.015625" Pitch="39" RiffPosition="4.640625" Velocity="0" />
      <note Length="0.03125" Pitch="41" RiffPosition="4.65625" Velocity="0" />
      <note Length="0.0234375" Pitch="43" RiffPosition="4.6875" Velocity="0" />
      <note Length="0.0078125" Pitch="45" RiffPosition="4.7109375" Velocity="0" />
      <note Length="0.015625" Pitch="46" RiffPosition="4.71875" Velocity="0" />
      <note Length="0.015625" Pitch="46" RiffPosition="4.734375" Velocity="0" />
      <note Length="0.015625" Pitch="46" RiffPosition="4.75" Velocity="0" />
      <note Length="0.015625" Pitch="45" RiffPosition="4.765625" Velocity="0" />
      <note Length="0.03125" Pitch="43" RiffPosition="4.78125" Velocity="0" />
      <note Length="0.0234375" Pitch="41" RiffPosition="4.8125" Velocity="0" />
      <note Length="0.0078125" Pitch="41" RiffPosition="4.8359375" Velocity="0" />
      <note Length="0.015625" Pitch="41" RiffPosition="4.84375" Velocity="0" />
      <note Length="0.015625" Pitch="41" RiffPosition="4.859375" Velocity="0" />
      <note Length="0.015625" Pitch="41" RiffPosition="4.875" Velocity="0" />
      <note Length="0.015625" Pitch="41" RiffPosition="4.890625" Velocity="0" />
      <note Length="0.03125" Pitch="43" RiffPosition="4.90625" Velocity="0" />
      <note Length="0.0234375" Pitch="43" RiffPosition="4.9375" Velocity="0" />
      <note Length="0.0078125" Pitch="45" RiffPosition="4.9609375" Velocity="0" />
      <note Length="0.015625" Pitch="45" RiffPosition="4.96875" Velocity="0" />
      <note Length="0.015625" Pitch="45" RiffPosition="4.984375" Velocity="0" />
      <note Length="0.015625" Pitch="43" RiffPosition="5" Velocity="74" />
      <note Length="0.015625" Pitch="43" RiffPosition="5.015625" Velocity="64" />
      <note Length="0.03125" Pitch="43" RiffPosition="5.03125" Velocity="54" />
      <note Length="0.0234375" Pitch="41" RiffPosition="5.0625" Velocity="37" />
      <note Length="0.0078125" Pitch="41" RiffPosition="5.0859375" Velocity="41" />
      <note Length="0.015625" Pitch="41" RiffPosition="5.09375" Velocity="59" />
      <note Length="0.015625" Pitch="41" RiffPosition="5.109375" Velocity="48" />
      <note Length="0.015625" Pitch="43" RiffPosition="5.125" Velocity="38" />
      <note Length="0.015625" Pitch="43" RiffPosition="5.140625" Velocity="43" />
      <note Length="0.03125" Pitch="43" RiffPosition="5.15625" Velocity="64" />
      <note Length="0.0234375" Pitch="46" RiffPosition="5.1875" Velocity="41" />
      <note Length="0.0078125" Pitch="48" RiffPosition="5.2109375" Velocity="42" />
      <note Length="0.015625" Pitch="48" RiffPosition="5.21875" Velocity="58" />
      <note Length="0.015625" Pitch="46" RiffPosition="5.234375" Velocity="44" />
      <note Length="0.015625" Pitch="46" RiffPosition="5.25" Velocity="41" />
      <note Length="0.015625" Pitch="43" RiffPosition="5.265625" Velocity="55" />
      <note Length="0.03125" Pitch="43" RiffPosition="5.28125" Velocity="69" />
      <note Length="0.0234375" Pitch="41" RiffPosition="5.3125" Velocity="49" />
      <note Length="0.0078125" Pitch="39" RiffPosition="5.3359375" Velocity="45" />
      <note Length="0.015625" Pitch="39" RiffPosition="5.34375" Velocity="74" />
      <note Length="0.015625" Pitch="39" RiffPosition="5.359375" Velocity="87" />
      <note Length="0.015625" Pitch="41" RiffPosition="5.375" Velocity="52" />
      <note Length="0.015625" Pitch="43" RiffPosition="5.390625" Velocity="64" />
      <note Length="0.03125" Pitch="43" RiffPosition="5.40625" Velocity="76" />
      <note Length="0.0234375" Pitch="46" RiffPosition="5.4375" Velocity="52" />
      <note Length="0.0078125" Pitch="48" RiffPosition="5.4609375" Velocity="91" />
      <note Length="0.015625" Pitch="48" RiffPosition="5.46875" Velocity="73" />
      <note Length="0.015625" Pitch="48" RiffPosition="5.484375" Velocity="84" />
      <note Length="0.015625" Pitch="46" RiffPosition="5.5" Velocity="94" />
      <note Length="0.015625" Pitch="46" RiffPosition="5.515625" Velocity="56" />
      <note Length="0.03125" Pitch="43" RiffPosition="5.53125" Velocity="62" />
      <note Length="0.0234375" Pitch="41" RiffPosition="5.5625" Velocity="72" />
      <note Length="0.0078125" Pitch="38" RiffPosition="5.5859375" Velocity="56" />
      <note Length="0.015625" Pitch="38" RiffPosition="5.59375" Velocity="35" />
      <note Length="0.015625" Pitch="38" RiffPosition="5.609375" Velocity="40" />
      <note Length="0.015625" Pitch="38" RiffPosition="5.625" Velocity="45" />
      <note Length="0.015625" Pitch="39" RiffPosition="5.640625" Velocity="50" />
      <note Length="0.03125" Pitch="41" RiffPosition="5.65625" Velocity="62" />
      <note Length="0.0234375" Pitch="43" RiffPosition="5.6875" Velocity="52" />
      <note Length="0.0078125" Pitch="45" RiffPosition="5.7109375" Velocity="67" />
      <note Length="0.015625" Pitch="46" RiffPosition="5.71875" Velocity="41" />
      <note Length="0.015625" Pitch="46" RiffPosition="5.734375" Velocity="82" />
      <note Length="0.015625" Pitch="46" RiffPosition="5.75" Velocity="76" />
      <note Length="0.015625" Pitch="45" RiffPosition="5.765625" Velocity="70" />
      <note Length="0.03125" Pitch="43" RiffPosition="5.78125" Velocity="64" />
      <note Length="0.0234375" Pitch="41" RiffPosition="5.8125" Velocity="97" />
      <note Length="0.0078125" Pitch="41" RiffPosition="5.8359375" Velocity="63" />
      <note Length="0.015625" Pitch="41" RiffPosition="5.84375" Velocity="83" />
      <note Length="0.015625" Pitch="41" RiffPosition="5.859375" Velocity="71" />
      <note Length="0.015625" Pitch="41" RiffPosition="5.875" Velocity="106" />
      <note Length="0.015625" Pitch="41" RiffPosition="5.890625" Velocity="93" />
      <note Length="0.03125" Pitch="43" RiffPosition="5.90625" Velocity="80" />
      <note Length="0.0234375" Pitch="43" RiffPosition="5.9375" Velocity="53" />
      <note Length="0.0078125" Pitch="45" RiffPosition="5.9609375" Velocity="55" />
      <note Length="0.015625" Pitch="45" RiffPosition="5.96875" Velocity="72" />
      <note Length="0.015625" Pitch="45" RiffPosition="5.984375" Velocity="58" />
      <note Length="0.015625" Pitch="43" RiffPosition="6" Velocity="43" />
      <note Length="0.015625" Pitch="43" RiffPosition="6.015625" Velocity="42" />
      <note Length="0.03125" Pitch="43" RiffPosition="6.03125" Velocity="61" />
      <note Length="0.0234375" Pitch="41" RiffPosition="6.0625" Velocity="39" />
      <note Length="0.0078125" Pitch="41" RiffPosition="6.0859375" Velocity="39" />
      <note Length="0.015625" Pitch="41" RiffPosition="6.09375" Velocity="47" />
      <note Length="0.015625" Pitch="41" RiffPosition="6.109375" Velocity="38" />
      <note Length="0.015625" Pitch="43" RiffPosition="6.125" Velocity="53" />
      <note Length="0.015625" Pitch="43" RiffPosition="6.140625" Velocity="68" />
      <note Length="0.03125" Pitch="43" RiffPosition="6.15625" Velocity="83" />
      <note Length="0.0234375" Pitch="46" RiffPosition="6.1875" Velocity="64" />
      <note Length="0.0078125" Pitch="48" RiffPosition="6.2109375" Velocity="55" />
      <note Length="0.015625" Pitch="48" RiffPosition="6.21875" Velocity="84" />
      <note Length="0.015625" Pitch="46" RiffPosition="6.234375" Velocity="94" />
      <note Length="0.015625" Pitch="46" RiffPosition="6.25" Velocity="57" />
      <note Length="0.015625" Pitch="43" RiffPosition="6.265625" Velocity="66" />
      <note Length="0.03125" Pitch="43" RiffPosition="6.28125" Velocity="75" />
      <note Length="0.0234375" Pitch="41" RiffPosition="6.3125" Velocity="46" />
      <note Length="0.0078125" Pitch="39" RiffPosition="6.3359375" Velocity="82" />
      <note Length="0.015625" Pitch="39" RiffPosition="6.34375" Velocity="63" />
      <note Length="0.015625" Pitch="39" RiffPosition="6.359375" Velocity="70" />
      <note Length="0.015625" Pitch="41" RiffPosition="6.375" Velocity="78" />
      <note Length="0.015625" Pitch="43" RiffPosition="6.390625" Velocity="38" />
      <note Length="0.03125" Pitch="43" RiffPosition="6.40625" Velocity="46" />
      <note Length="0.0234375" Pitch="46" RiffPosition="6.4375" Velocity="59" />
      <note Length="0.0078125" Pitch="48" RiffPosition="6.4609375" Velocity="45" />
      <note Length="0.015625" Pitch="48" RiffPosition="6.46875" Velocity="46" />
      <note Length="0.015625" Pitch="48" RiffPosition="6.484375" Velocity="40" />
      <note Length="0.015625" Pitch="46" RiffPosition="6.5" Velocity="36" />
      <note Length="0.015625" Pitch="46" RiffPosition="6.515625" Velocity="42" />
      <note Length="0.03125" Pitch="43" RiffPosition="6.53125" Velocity="65" />
      <note Length="0.0234375" Pitch="41" RiffPosition="6.5625" Velocity="45" />
      <note Length="0.0078125" Pitch="38" RiffPosition="6.5859375" Velocity="54" />
      <note Length="0.015625" Pitch="38" RiffPosition="6.59375" Velocity="44" />
      <note Length="0.015625" Pitch="38" RiffPosition="6.609375" Velocity="63" />
      <note Length="0.015625" Pitch="38" RiffPosition="6.625" Velocity="53" />
      <note Length="0.015625" Pitch="39" RiffPosition="6.640625" Velocity="44" />
      <note Length="0.03125" Pitch="41" RiffPosition="6.65625" Velocity="36" />
      <note Length="0.0234375" Pitch="43" RiffPosition="6.6875" Velocity="62" />
      <note Length="0.0078125" Pitch="45" RiffPosition="6.7109375" Velocity="70" />
      <note Length="0.015625" Pitch="46" RiffPosition="6.71875" Velocity="41" />
      <note Length="0.015625" Pitch="46" RiffPosition="6.734375" Velocity="39" />
      <note Length="0.015625" Pitch="46" RiffPosition="6.75" Velocity="68" />
      <note Length="0.015625" Pitch="45" RiffPosition="6.765625" Velocity="57" />
      <note Length="0.03125" Pitch="43" RiffPosition="6.78125" Velocity="46" />
      <note Length="0.0234375" Pitch="41" RiffPosition="6.8125" Velocity="47" />
      <note Length="0.0078125" Pitch="41" RiffPosition="6.8359375" Velocity="41" />
      <note Length="0.015625" Pitch="41" RiffPosition="6.84375" Velocity="47" />
      <note Length="0.015625" Pitch="41" RiffPosition="6.859375" Velocity="38" />
      <note Length="0.015625" Pitch="41" RiffPosition="6.875" Velocity="40" />
      <note Length="0.015625" Pitch="41" RiffPosition="6.890625" Velocity="48" />
      <note Length="0.03125" Pitch="43" RiffPosition="6.90625" Velocity="61" />
      <note Length="0.0234375" Pitch="43" RiffPosition="6.9375" Velocity="43" />
      <note Length="0.0078125" Pitch="45" RiffPosition="6.9609375" Velocity="53" />
      <note Length="0.015625" Pitch="45" RiffPosition="6.96875" Velocity="71" />
      <note Length="0.015625" Pitch="45" RiffPosition="6.984375" Velocity="62" />
      <note Length="0.015625" Pitch="43" RiffPosition="7" Velocity="52" />
      <note Length="0.015625" Pitch="43" RiffPosition="7.015625" Velocity="42" />
      <note Length="0.03125" Pitch="43" RiffPosition="7.03125" Velocity="38" />
      <note Length="0.0234375" Pitch="41" RiffPosition="7.0625" Velocity="58" />
      <note Length="0.0078125" Pitch="41" RiffPosition="7.0859375" Velocity="66" />
      <note Length="0.015625" Pitch="41" RiffPosition="7.09375" Velocity="37" />
      <note Length="0.015625" Pitch="41" RiffPosition="7.109375" Velocity="44" />
      <note Length="0.015625" Pitch="43" RiffPosition="7.125" Velocity="63" />
      <note Length="0.015625" Pitch="43" RiffPosition="7.140625" Velocity="52" />
      <note Length="0.03125" Pitch="43" RiffPosition="7.15625" Velocity="42" />
      <note Length="0.0234375" Pitch="46" RiffPosition="7.1875" Velocity="65" />
      <note Length="0.0078125" Pitch="48" RiffPosition="7.2109375" Velocity="50" />
      <note Length="0.015625" Pitch="48" RiffPosition="7.21875" Velocity="36" />
      <note Length="0.015625" Pitch="46" RiffPosition="7.234375" Velocity="48" />
      <note Length="0.015625" Pitch="46" RiffPosition="7.25" Velocity="63" />
      <note Length="0.015625" Pitch="43" RiffPosition="7.265625" Velocity="40" />
      <note Length="0.03125" Pitch="43" RiffPosition="7.28125" Velocity="44" />
      <note Length="0.0234375" Pitch="41" RiffPosition="7.3125" Velocity="71" />
      <note Length="0.0078125" Pitch="39" RiffPosition="7.3359375" Velocity="67" />
      <note Length="0.015625" Pitch="39" RiffPosition="7.34375" Velocity="49" />
      <note Length="0.015625" Pitch="39" RiffPosition="7.359375" Velocity="62" />
      <note Length="0.015625" Pitch="41" RiffPosition="7.375" Velocity="74" />
      <note Length="0.015625" Pitch="43" RiffPosition="7.390625" Velocity="86" />
      <note Length="0.03125" Pitch="43" RiffPosition="7.40625" Velocity="51" />
      <note Length="0.0234375" Pitch="46" RiffPosition="7.4375" Velocity="74" />
      <note Length="0.0078125" Pitch="48" RiffPosition="7.4609375" Velocity="66" />
      <note Length="0.015625" Pitch="48" RiffPosition="7.46875" Velocity="95" />
      <note Length="0.015625" Pitch="48" RiffPosition="7.484375" Velocity="59" />
      <note Length="0.015625" Pitch="46" RiffPosition="7.5" Velocity="69" />
      <note Length="0.015625" Pitch="46" RiffPosition="7.515625" Velocity="78" />
      <note Length="0.03125" Pitch="43" RiffPosition="7.53125" Velocity="84" />
      <note Length="0.0234375" Pitch="41" RiffPosition="7.5625" Velocity="47" />
      <note Length="0.0078125" Pitch="38" RiffPosition="7.5859375" Velocity="39" />
      <note Length="0.015625" Pitch="38" RiffPosition="7.59375" Velocity="57" />
      <note Length="0.015625" Pitch="38" RiffPosition="7.609375" Velocity="62" />
      <note Length="0.015625" Pitch="38" RiffPosition="7.625" Velocity="50" />
      <note Length="0.015625" Pitch="39" RiffPosition="7.640625" Velocity="45" />
      <note Length="0.03125" Pitch="41" RiffPosition="7.65625" Velocity="40" />
      <note Length="0.0234375" Pitch="43" RiffPosition="7.6875" Velocity="40" />
      <note Length="0.0078125" Pitch="45" RiffPosition="7.7109375" Velocity="45" />
      <note Length="0.015625" Pitch="46" RiffPosition="7.71875" Velocity="66" />
      <note Length="0.015625" Pitch="46" RiffPosition="7.734375" Velocity="60" />
      <note Length="0.015625" Pitch="46" RiffPosition="7.75" Velocity="54" />
      <note Length="0.015625" Pitch="45" RiffPosition="7.765625" Velocity="95" />
      <note Length="0.03125" Pitch="43" RiffPosition="7.78125" Velocity="89" />
      <note Length="0.0234375" Pitch="41" RiffPosition="7.8125" Velocity="75" />
      <note Length="0.0078125" Pitch="41" RiffPosition="7.8359375" Velocity="88" />
      <note Length="0.015625" Pitch="41" RiffPosition="7.84375" Velocity="108" />
      <note Length="0.015625" Pitch="41" RiffPosition="7.859375" Velocity="96" />
      <note Length="0.015625" Pitch="41" RiffPosition="7.875" Velocity="84" />
      <note Length="0.015625" Pitch="41" RiffPosition="7.890625" Velocity="71" />
      <note Length="0.03125" Pitch="43" RiffPosition="7.90625" Velocity="58" />
      <note Length="0.0234375" Pitch="43" RiffPosition="7.9375" Velocity="78" />
      <note Length="0.0078125" Pitch="45" RiffPosition="7.9609375" Velocity="80" />
      <note Length="0.015625" Pitch="45" RiffPosition="7.96875" Velocity="50" />
      <note Length="0.015625" Pitch="45" RiffPosition="7.984375" Velocity="83" />
      <note Length="0.015625" Pitch="43" RiffPosition="8" Velocity="68" />
      <note Length="0.015625" Pitch="43" RiffPosition="8.015625" Velocity="53" />
      <note Length="0.03125" Pitch="43" RiffPosition="8.03125" Velocity="39" />
      <note Length="0.0234375" Pitch="41" RiffPosition="8.0625" Velocity="56" />
      <note Length="0.0078125" Pitch="41" RiffPosition="8.0859375" Velocity="61" />
      <note Length="0.015625" Pitch="41" RiffPosition="8.09375" Velocity="45" />
      <note Length="0.015625" Pitch="41" RiffPosition="8.109375" Velocity="60" />
      <note Length="0.015625" Pitch="43" RiffPosition="8.125" Velocity="75" />
      <note Length="0.015625" Pitch="43" RiffPosition="8.140625" Velocity="43" />
      <note Length="0.03125" Pitch="43" RiffPosition="8.15625" Velocity="58" />
      <note Length="0.0234375" Pitch="46" RiffPosition="8.1875" Velocity="86" />
      <note Length="0.0078125" Pitch="48" RiffPosition="8.2109375" Velocity="78" />
      <note Length="0.015625" Pitch="48" RiffPosition="8.21875" Velocity="59" />
      <note Length="0.015625" Pitch="46" RiffPosition="8.234375" Velocity="69" />
      <note Length="0.015625" Pitch="46" RiffPosition="8.25" Velocity="79" />
      <note Length="0.015625" Pitch="43" RiffPosition="8.265625" Velocity="88" />
      <note Length="0.03125" Pitch="43" RiffPosition="8.28125" Velocity="50" />
      <note Length="0.0234375" Pitch="41" RiffPosition="8.3125" Velocity="68" />
      <note Length="0.0078125" Pitch="39" RiffPosition="8.3359375" Velocity="57" />
      <note Length="0.015625" Pitch="39" RiffPosition="8.34375" Velocity="85" />
      <note Length="0.015625" Pitch="39" RiffPosition="8.359375" Velocity="45" />
      <note Length="0.015625" Pitch="41" RiffPosition="8.375" Velocity="53" />
      <note Length="0.015625" Pitch="43" RiffPosition="8.390625" Velocity="60" />
      <note Length="0.03125" Pitch="43" RiffPosition="8.40625" Velocity="68" />
      <note Length="0.0234375" Pitch="46" RiffPosition="8.4375" Velocity="36" />
      <note Length="0.0078125" Pitch="48" RiffPosition="8.4609375" Velocity="50" />
      <note Length="0.015625" Pitch="48" RiffPosition="8.46875" Velocity="46" />
      <note Length="0.015625" Pitch="48" RiffPosition="8.484375" Velocity="52" />
      <note Length="0.015625" Pitch="46" RiffPosition="8.5" Velocity="59" />
      <note Length="0.015625" Pitch="46" RiffPosition="8.515625" Velocity="53" />
      <note Length="0.03125" Pitch="43" RiffPosition="8.53125" Velocity="43" />
      <note Length="0.0234375" Pitch="41" RiffPosition="8.5625" Velocity="47" />
      <note Length="0.0078125" Pitch="38" RiffPosition="8.5859375" Velocity="38" />
      <note Length="0.015625" Pitch="38" RiffPosition="8.59375" Velocity="51" />
      <note Length="0.015625" Pitch="38" RiffPosition="8.609375" Velocity="41" />
      <note Length="0.015625" Pitch="38" RiffPosition="8.625" Velocity="39" />
      <note Length="0.015625" Pitch="39" RiffPosition="8.640625" Velocity="69" />
      <note Length="0.03125" Pitch="41" RiffPosition="8.65625" Velocity="59" />
      <note Length="0.0234375" Pitch="43" RiffPosition="8.6875" Velocity="40" />
      <note Length="0.0078125" Pitch="45" RiffPosition="8.7109375" Velocity="48" />
      <note Length="0.015625" Pitch="46" RiffPosition="8.71875" Velocity="66" />
      <note Length="0.015625" Pitch="46" RiffPosition="8.734375" Velocity="56" />
      <note Length="0.015625" Pitch="46" RiffPosition="8.75" Velocity="46" />
      <note Length="0.015625" Pitch="45" RiffPosition="8.765625" Velocity="35" />
      <note Length="0.03125" Pitch="43" RiffPosition="8.78125" Velocity="46" />
      <note Length="0.0234375" Pitch="41" RiffPosition="8.8125" Velocity="48" />
      <note Length="0.0078125" Pitch="41" RiffPosition="8.8359375" Velocity="54" />
      <note Length="0.015625" Pitch="41" RiffPosition="8.84375" Velocity="45" />
      <note Length="0.015625" Pitch="41" RiffPosition="8.859375" Velocity="63" />
      <note Length="0.015625" Pitch="41" RiffPosition="8.875" Velocity="55" />
      <note Length="0.015625" Pitch="41" RiffPosition="8.890625" Velocity="47" />
      <note Length="0.03125" Pitch="43" RiffPosition="8.90625" Velocity="39" />
      <note Length="0.0234375" Pitch="43" RiffPosition="8.9375" Velocity="68" />
      <note Length="0.0078125" Pitch="45" RiffPosition="8.9609375" Velocity="39" />
      <note Length="0.015625" Pitch="45" RiffPosition="8.96875" Velocity="49" />
      <note Length="0.015625" Pitch="45" RiffPosition="8.984375" Velocity="40" />
      <note Length="0.015625" Pitch="43" RiffPosition="9" Velocity="40" />
      <note Length="0.015625" Pitch="43" RiffPosition="9.015625" Velocity="67" />
      <note Length="0.03125" Pitch="43" RiffPosition="9.03125" Velocity="57" />
      <note Length="0.0234375" Pitch="41" RiffPosition="9.0625" Velocity="36" />
      <note Length="0.0078125" Pitch="41" RiffPosition="9.0859375" Velocity="44" />
      <note Length="0.015625" Pitch="41" RiffPosition="9.09375" Velocity="62" />
      <note Length="0.015625" Pitch="41" RiffPosition="9.109375" Velocity="51" />
      <note Length="0.015625" Pitch="43" RiffPosition="9.125" Velocity="41" />
      <note Length="0.015625" Pitch="43" RiffPosition="9.140625" Velocity="40" />
      <note Length="0.03125" Pitch="43" RiffPosition="9.15625" Velocity="67" />
      <note Length="0.0234375" Pitch="46" RiffPosition="9.1875" Velocity="43" />
      <note Length="0.0078125" Pitch="48" RiffPosition="9.2109375" Velocity="45" />
      <note Length="0.015625" Pitch="48" RiffPosition="9.21875" Velocity="56" />
      <note Length="0.015625" Pitch="46" RiffPosition="9.234375" Velocity="47" />
      <note Length="0.015625" Pitch="46" RiffPosition="9.25" Velocity="38" />
      <note Length="0.015625" Pitch="43" RiffPosition="9.265625" Velocity="52" />
      <note Length="0.03125" Pitch="43" RiffPosition="9.28125" Velocity="66" />
      <note Length="0.0234375" Pitch="41" RiffPosition="9.3125" Velocity="46" />
      <note Length="0.0078125" Pitch="39" RiffPosition="9.3359375" Velocity="42" />
      <note Length="0.015625" Pitch="39" RiffPosition="9.34375" Velocity="72" />
      <note Length="0.015625" Pitch="39" RiffPosition="9.359375" Velocity="84" />
      <note Length="0.015625" Pitch="41" RiffPosition="9.375" Velocity="49" />
      <note Length="0.015625" Pitch="43" RiffPosition="9.390625" Velocity="61" />
      <note Length="0.03125" Pitch="43" RiffPosition="9.40625" Velocity="73" />
      <note Length="0.0234375" Pitch="46" RiffPosition="9.4375" Velocity="96" />
      <note Length="0.0078125" Pitch="48" RiffPosition="9.4609375" Velocity="89" />
      <note Length="0.015625" Pitch="48" RiffPosition="9.46875" Velocity="70" />
      <note Length="0.015625" Pitch="48" RiffPosition="9.484375" Velocity="81" />
      <note Length="0.015625" Pitch="46" RiffPosition="9.5" Velocity="91" />
      <note Length="0.015625" Pitch="46" RiffPosition="9.515625" Velocity="53" />
      <note Length="0.03125" Pitch="43" RiffPosition="9.53125" Velocity="59" />
      <note Length="0.0234375" Pitch="41" RiffPosition="9.5625" Velocity="69" />
      <note Length="0.0078125" Pitch="38" RiffPosition="9.5859375" Velocity="53" />
      <note Length="0.015625" Pitch="38" RiffPosition="9.59375" Velocity="38" />
      <note Length="0.015625" Pitch="38" RiffPosition="9.609375" Velocity="37" />
      <note Length="0.015625" Pitch="38" RiffPosition="9.625" Velocity="42" />
      <note Length="0.015625" Pitch="39" RiffPosition="9.640625" Velocity="47" />
      <note Length="0.03125" Pitch="41" RiffPosition="9.65625" Velocity="52" />
      <note Length="0.0234375" Pitch="43" RiffPosition="9.6875" Velocity="55" />
      <note Length="0.0078125" Pitch="45" RiffPosition="9.7109375" Velocity="70" />
      <note Length="0.015625" Pitch="46" RiffPosition="9.71875" Velocity="44" />
      <note Length="0.015625" Pitch="46" RiffPosition="9.734375" Velocity="85" />
      <note Length="0.015625" Pitch="46" RiffPosition="9.75" Velocity="79" />
      <note Length="0.015625" Pitch="45" RiffPosition="9.765625" Velocity="73" />
      <note Length="0.03125" Pitch="43" RiffPosition="9.78125" Velocity="67" />
      <note Length="0.0234375" Pitch="41" RiffPosition="9.8125" Velocity="100" />
      <note Length="0.0078125" Pitch="41" RiffPosition="9.8359375" Velocity="66" />
      <note Length="0.015625" Pitch="41" RiffPosition="9.84375" Velocity="86" />
      <note Length="0.015625" Pitch="41" RiffPosition="9.859375" Velocity="74" />
      <note Length="0.015625" Pitch="41" RiffPosition="9.875" Velocity="62" />
      <note Length="0.015625" Pitch="41" RiffPosition="9.890625" Velocity="96" />
      <note Length="0.03125" Pitch="43" RiffPosition="9.90625" Velocity="83" />
      <note Length="0.0234375" Pitch="43" RiffPosition="9.9375" Velocity="56" />
      <note Length="0.0078125" Pitch="45" RiffPosition="9.9609375" Velocity="58" />
      <note Length="0.015625" Pitch="45" RiffPosition="9.96875" Velocity="75" />
      <note Length="0.015625" Pitch="45" RiffPosition="9.984375" Velocity="61" />
      <note Length="0.015625" Pitch="43" RiffPosition="10" Velocity="46" />
      <note Length="0.015625" Pitch="43" RiffPosition="10.015625" Velocity="39" />
      <note Length="0.03125" Pitch="43" RiffPosition="10.03125" Velocity="64" />
      <note Length="0.0234375" Pitch="41" RiffPosition="10.0625" Velocity="36" />
      <note Length="0.0078125" Pitch="41" RiffPosition="10.0859375" Velocity="36" />
      <note Length="0.015625" Pitch="41" RiffPosition="10.09375" Velocity="67" />
      <note Length="0.015625" Pitch="41" RiffPosition="10.109375" Velocity="35" />
      <note Length="0.015625" Pitch="43" RiffPosition="10.125" Velocity="50" />
      <note Length="0.015625" Pitch="43" RiffPosition="10.140625" Velocity="65" />
      <note Length="0.03125" Pitch="43" RiffPosition="10.15625" Velocity="80" />
      <note Length="0.0234375" Pitch="46" RiffPosition="10.1875" Velocity="61" />
      <note Length="0.0078125" Pitch="48" RiffPosition="10.2109375" Velocity="53" />
      <note Length="0.015625" Pitch="48" RiffPosition="10.21875" Velocity="81" />
      <note Length="0.015625" Pitch="46" RiffPosition="10.234375" Velocity="91" />
      <note Length="0.015625" Pitch="46" RiffPosition="10.25" Velocity="54" />
      <note Length="0.015625" Pitch="43" RiffPosition="10.265625" Velocity="63" />
      <note Length="0.03125" Pitch="43" RiffPosition="10.28125" Velocity="72" />
      <note Length="0.0234375" Pitch="41" RiffPosition="10.3125" Velocity="90" />
      <note Length="0.0078125" Pitch="39" RiffPosition="10.3359375" Velocity="79" />
      <note Length="0.015625" Pitch="39" RiffPosition="10.34375" Velocity="60" />
      <note Length="0.015625" Pitch="39" RiffPosition="10.359375" Velocity="68" />
      <note Length="0.015625" Pitch="41" RiffPosition="10.375" Velocity="75" />
      <note Length="0.015625" Pitch="43" RiffPosition="10.390625" Velocity="36" />
      <note Length="0.03125" Pitch="43" RiffPosition="10.40625" Velocity="43" />
      <note Length="0.0234375" Pitch="46" RiffPosition="10.4375" Velocity="56" />
      <note Length="0.0078125" Pitch="48" RiffPosition="10.4609375" Velocity="42" />
      <note Length="0.015625" Pitch="48" RiffPosition="10.46875" Velocity="49" />
      <note Length="0.015625" Pitch="48" RiffPosition="10.484375" Velocity="43" />
      <note Length="0.015625" Pitch="46" RiffPosition="10.5" Velocity="37" />
      <note Length="0.015625" Pitch="46" RiffPosition="10.515625" Velocity="40" />
      <note Length="0.03125" Pitch="43" RiffPosition="10.53125" Velocity="50" />
      <note Length="0.0234375" Pitch="41" RiffPosition="10.5625" Velocity="48" />
      <note Length="0.0078125" Pitch="38" RiffPosition="10.5859375" Velocity="57" />
      <note Length="0.015625" Pitch="38" RiffPosition="10.59375" Velocity="41" />
      <note Length="0.015625" Pitch="38" RiffPosition="10.609375" Velocity="66" />
      <note Length="0.015625" Pitch="38" RiffPosition="10.625" Velocity="56" />
      <note Length="0.015625" Pitch="39" RiffPosition="10.640625" Velocity="47" />
      <note Length="0.03125" Pitch="41" RiffPosition="10.65625" Velocity="37" />
      <note Length="0.0234375" Pitch="43" RiffPosition="10.6875" Velocity="64" />
      <note Length="0.0078125" Pitch="45" RiffPosition="10.7109375" Velocity="44" />
      <note Length="0.015625" Pitch="46" RiffPosition="10.71875" Velocity="44" />
      <note Length="0.015625" Pitch="46" RiffPosition="10.734375" Velocity="36" />
      <note Length="0.015625" Pitch="46" RiffPosition="10.75" Velocity="46" />
      <note Length="0.015625" Pitch="45" RiffPosition="10.765625" Velocity="60" />
      <note Length="0.03125" Pitch="43" RiffPosition="10.78125" Velocity="49" />
      <note Length="0.0234375" Pitch="41" RiffPosition="10.8125" Velocity="44" />
      <note Length="0.0078125" Pitch="41" RiffPosition="10.8359375" Velocity="38" />
      <note Length="0.015625" Pitch="41" RiffPosition="10.84375" Velocity="49" />
      <note Length="0.015625" Pitch="41" RiffPosition="10.859375" Velocity="41" />
      <note Length="0.015625" Pitch="41" RiffPosition="10.875" Velocity="37" />
      <note Length="0.015625" Pitch="41" RiffPosition="10.890625" Velocity="45" />
      <note Length="0.03125" Pitch="43" RiffPosition="10.90625" Velocity="64" />
      <note Length="0.0234375" Pitch="43" RiffPosition="10.9375" Velocity="46" />
      <note Length="0.0078125" Pitch="45" RiffPosition="10.9609375" Velocity="56" />
      <note Length="0.015625" Pitch="45" RiffPosition="10.96875" Velocity="43" />
      <note Length="0.015625" Pitch="45" RiffPosition="10.984375" Velocity="65" />
      <note Length="0.015625" Pitch="43" RiffPosition="11" Velocity="55" />
      <note Length="0.015625" Pitch="43" RiffPosition="11.015625" Velocity="45" />
      <note Length="0.03125" Pitch="43" RiffPosition="11.03125" Velocity="35" />
      <note Length="0.0234375" Pitch="41" RiffPosition="11.0625" Velocity="61" />
      <note Length="0.0078125" Pitch="41" RiffPosition="11.0859375" Velocity="69" />
      <note Length="0.015625" Pitch="41" RiffPosition="11.09375" Velocity="40" />
      <note Length="0.015625" Pitch="41" RiffPosition="11.109375" Velocity="41" />
      <note Length="0.015625" Pitch="43" RiffPosition="11.125" Velocity="66" />
      <note Length="0.015625" Pitch="43" RiffPosition="11.140625" Velocity="55" />
      <note Length="0.03125" Pitch="43" RiffPosition="11.15625" Velocity="45" />
      <note Length="0.0234375" Pitch="46" RiffPosition="11.1875" Velocity="68" />
      <note Length="0.0078125" Pitch="48" RiffPosition="11.2109375" Velocity="47" />
      <note Length="0.015625" Pitch="48" RiffPosition="11.21875" Velocity="39" />
      <note Length="0.015625" Pitch="46" RiffPosition="11.234375" Velocity="46" />
      <note Length="0.015625" Pitch="46" RiffPosition="11.25" Velocity="60" />
      <note Length="0.015625" Pitch="43" RiffPosition="11.265625" Velocity="43" />
      <note Length="0.03125" Pitch="43" RiffPosition="11.28125" Velocity="41" />
      <note Length="0.0234375" Pitch="41" RiffPosition="11.3125" Velocity="68" />
      <note Length="0.0078125" Pitch="39" RiffPosition="11.3359375" Velocity="64" />
      <note Length="0.015625" Pitch="39" RiffPosition="11.34375" Velocity="47" />
      <note Length="0.015625" Pitch="39" RiffPosition="11.359375" Velocity="59" />
      <note Length="0.015625" Pitch="41" RiffPosition="11.375" Velocity="71" />
      <note Length="0.015625" Pitch="43" RiffPosition="11.390625" Velocity="83" />
      <note Length="0.03125" Pitch="43" RiffPosition="11.40625" Velocity="48" />
      <note Length="0.0234375" Pitch="46" RiffPosition="11.4375" Velocity="71" />
      <note Length="0.0078125" Pitch="48" RiffPosition="11.4609375" Velocity="64" />
      <note Length="0.015625" Pitch="48" RiffPosition="11.46875" Velocity="92" />
      <note Length="0.015625" Pitch="48" RiffPosition="11.484375" Velocity="56" />
      <note Length="0.015625" Pitch="46" RiffPosition="11.5" Velocity="66" />
      <note Length="0.015625" Pitch="46" RiffPosition="11.515625" Velocity="75" />
      <note Length="0.03125" Pitch="43" RiffPosition="11.53125" Velocity="81" />
      <note Length="0.0234375" Pitch="41" RiffPosition="11.5625" Velocity="44" />
      <note Length="0.0078125" Pitch="38" RiffPosition="11.5859375" Velocity="75" />
      <note Length="0.015625" Pitch="38" RiffPosition="11.59375" Velocity="54" />
      <note Length="0.015625" Pitch="38" RiffPosition="11.609375" Velocity="59" />
      <note Length="0.015625" Pitch="38" RiffPosition="11.625" Velocity="53" />
      <note Length="0.015625" Pitch="39" RiffPosition="11.640625" Velocity="48" />
      <note Length="0.03125" Pitch="41" RiffPosition="11.65625" Velocity="43" />
      <note Length="0.0234375" Pitch="43" RiffPosition="11.6875" Velocity="38" />
      <note Length="0.0078125" Pitch="45" RiffPosition="11.7109375" Velocity="48" />
      <note Length="0.015625" Pitch="46" RiffPosition="11.71875" Velocity="69" />
      <note Length="0.015625" Pitch="46" RiffPosition="11.734375" Velocity="63" />
      <note Length="0.015625" Pitch="46" RiffPosition="11.75" Velocity="57" />
      <note Length="0.015625" Pitch="45" RiffPosition="11.765625" Velocity="51" />
      <note Length="0.03125" Pitch="43" RiffPosition="11.78125" Velocity="92" />
      <note Length="0.0234375" Pitch="41" RiffPosition="11.8125" Velocity="78" />
      <note Length="0.0078125" Pitch="41" RiffPosition="11.8359375" Velocity="91" />
      <note Length="0.015625" Pitch="41" RiffPosition="11.84375" Velocity="111" />
      <note Length="0.015625" Pitch="41" RiffPosition="11.859375" Velocity="99" />
      <note Length="0.015625" Pitch="41" RiffPosition="11.875" Velocity="86" />
      <note Length="0.015625" Pitch="41" RiffPosition="11.890625" Velocity="74" />
      <note Length="0.03125" Pitch="43" RiffPosition="11.90625" Velocity="61" />
      <note Length="0.0234375" Pitch="43" RiffPosition="11.9375" Velocity="81" />
      <note Length="0.0078125" Pitch="45" RiffPosition="11.9609375" Velocity="83" />
      <note Length="0.015625" Pitch="45" RiffPosition="11.96875" Velocity="53" />
      <note Length="0.015625" Pitch="45" RiffPosition="11.984375" Velocity="38" />
      <note Length="0.015625" Pitch="43" RiffPosition="12" Velocity="71" />
      <note Length="0.015625" Pitch="43" RiffPosition="12.015625" Velocity="56" />
      <note Length="0.03125" Pitch="43" RiffPosition="12.03125" Velocity="42" />
      <note Length="0.0234375" Pitch="41" RiffPosition="12.0625" Velocity="59" />
      <note Length="0.0078125" Pitch="41" RiffPosition="12.0859375" Velocity="58" />
      <note Length="0.015625" Pitch="41" RiffPosition="12.09375" Velocity="42" />
      <note Length="0.015625" Pitch="41" RiffPosition="12.109375" Velocity="57" />
      <note Length="0.015625" Pitch="43" RiffPosition="12.125" Velocity="72" />
      <note Length="0.015625" Pitch="43" RiffPosition="12.140625" Velocity="40" />
      <note Length="0.03125" Pitch="43" RiffPosition="12.15625" Velocity="55" />
      <note Length="0.0234375" Pitch="46" RiffPosition="12.1875" Velocity="83" />
      <note Length="0.0078125" Pitch="48" RiffPosition="12.2109375" Velocity="75" />
      <note Length="0.015625" Pitch="48" RiffPosition="12.21875" Velocity="56" />
      <note Length="0.015625" Pitch="46" RiffPosition="12.234375" Velocity="66" />
      <note Length="0.015625" Pitch="46" RiffPosition="12.25" Velocity="76" />
      <note Length="0.015625" Pitch="43" RiffPosition="12.265625" Velocity="85" />
      <note Length="0.03125" Pitch="43" RiffPosition="12.28125" Velocity="47" />
      <note Length="0.0234375" Pitch="41" RiffPosition="12.3125" Velocity="65" />
      <note Length="0.0078125" Pitch="39" RiffPosition="12.3359375" Velocity="54" />
      <note Length="0.015625" Pitch="39" RiffPosition="12.34375" Velocity="82" />
      <note Length="0.015625" Pitch="39" RiffPosition="12.359375" Velocity="43" />
      <note Length="0.015625" Pitch="41" RiffPosition="12.375" Velocity="50" />
      <note Length="0.015625" Pitch="43" RiffPosition="12.390625" Velocity="58" />
      <note Length="0.03125" Pitch="43" RiffPosition="12.40625" Velocity="65" />
      <note Length="0.0234375" Pitch="46" RiffPosition="12.4375" Velocity="39" />
      <note Length="0.0078125" Pitch="48" RiffPosition="12.4609375" Velocity="64" />
      <note Length="0.015625" Pitch="48" RiffPosition="12.46875" Velocity="43" />
      <note Length="0.015625" Pitch="48" RiffPosition="12.484375" Velocity="49" />
      <note Length="0.015625" Pitch="46" RiffPosition="12.5" Velocity="62" />
      <note Length="0.015625" Pitch="46" RiffPosition="12.515625" Velocity="55" />
      <note Length="0.03125" Pitch="43" RiffPosition="12.53125" Velocity="45" />
      <note Length="0.0234375" Pitch="41" RiffPosition="12.5625" Velocity="44" />
      <note Length="0.0078125" Pitch="38" RiffPosition="12.5859375" Velocity="35" />
      <note Length="0.015625" Pitch="38" RiffPosition="12.59375" Velocity="54" />
      <note Length="0.015625" Pitch="38" RiffPosition="12.609375" Velocity="44" />
      <note Length="0.015625" Pitch="38" RiffPosition="12.625" Velocity="36" />
      <note Length="0.015625" Pitch="39" RiffPosition="12.640625" Velocity="45" />
      <note Length="0.03125" Pitch="41" RiffPosition="12.65625" Velocity="62" />
      <note Length="0.0234375" Pitch="43" RiffPosition="12.6875" Velocity="42" />
      <note Length="0.0078125" Pitch="45" RiffPosition="12.7109375" Velocity="51" />
      <note Length="0.015625" Pitch="46" RiffPosition="12.71875" Velocity="69" />
      <note Length="0.015625" Pitch="46" RiffPosition="12.734375" Velocity="59" />
      <note Length="0.015625" Pitch="46" RiffPosition="12.75" Velocity="48" />
      <note Length="0.015625" Pitch="45" RiffPosition="12.765625" Velocity="38" />
      <note Length="0.03125" Pitch="43" RiffPosition="12.78125" Velocity="43" />
      <note Length="0.0234375" Pitch="41" RiffPosition="12.8125" Velocity="51" />
      <note Length="0.0078125" Pitch="41" RiffPosition="12.8359375" Velocity="57" />
      <note Length="0.015625" Pitch="41" RiffPosition="12.84375" Velocity="43" />
      <note Length="0.015625" Pitch="41" RiffPosition="12.859375" Velocity="51" />
      <note Length="0.015625" Pitch="41" RiffPosition="12.875" Velocity="58" />
      <note Length="0.015625" Pitch="41" RiffPosition="12.890625" Velocity="50" />
      <note Length="0.03125" Pitch="43" RiffPosition="12.90625" Velocity="42" />
      <note Length="0.0234375" Pitch="43" RiffPosition="12.9375" Velocity="71" />
      <note Length="0.0078125" Pitch="45" RiffPosition="12.9609375" Velocity="36" />
      <note Length="0.015625" Pitch="45" RiffPosition="12.96875" Velocity="52" />
      <note Length="0.015625" Pitch="45" RiffPosition="12.984375" Velocity="43" />
      <note Length="0.015625" Pitch="43" RiffPosition="13" Velocity="37" />
      <note Length="0.015625" Pitch="43" RiffPosition="13.015625" Velocity="70" />
      <note Length="0.03125" Pitch="43" RiffPosition="13.03125" Velocity="60" />
      <note Length="0.0234375" Pitch="41" RiffPosition="13.0625" Velocity="39" />
      <note Length="0.0078125" Pitch="41" RiffPosition="13.0859375" Velocity="47" />
      <note Length="0.015625" Pitch="41" RiffPosition="13.09375" Velocity="65" />
      <note Length="0.015625" Pitch="41" RiffPosition="13.109375" Velocity="54" />
      <note Length="0.015625" Pitch="43" RiffPosition="13.125" Velocity="44" />
      <note Length="0.015625" Pitch="43" RiffPosition="13.140625" Velocity="37" />
      <note Length="0.03125" Pitch="43" RiffPosition="13.15625" Velocity="70" />
      <note Length="0.0234375" Pitch="46" RiffPosition="13.1875" Velocity="46" />
      <note Length="0.0078125" Pitch="48" RiffPosition="13.2109375" Velocity="48" />
      <note Length="0.015625" Pitch="48" RiffPosition="13.21875" Velocity="53" />
      <note Length="0.015625" Pitch="46" RiffPosition="13.234375" Velocity="49" />
      <note Length="0.015625" Pitch="46" RiffPosition="13.25" Velocity="35" />
      <note Length="0.015625" Pitch="43" RiffPosition="13.265625" Velocity="49" />
      <note Length="0.03125" Pitch="43" RiffPosition="13.28125" Velocity="63" />
      <note Length="0.0234375" Pitch="41" RiffPosition="13.3125" Velocity="43" />
      <note Length="0.0078125" Pitch="39" RiffPosition="13.3359375" Velocity="39" />
      <note Length="0.015625" Pitch="39" RiffPosition="13.34375" Velocity="69" />
      <note Length="0.015625" Pitch="39" RiffPosition="13.359375" Velocity="81" />
      <note Length="0.015625" Pitch="41" RiffPosition="13.375" Velocity="46" />
      <note Length="0.015625" Pitch="43" RiffPosition="13.390625" Velocity="58" />
      <note Length="0.03125" Pitch="43" RiffPosition="13.40625" Velocity="70" />
      <note Length="0.0234375" Pitch="46" RiffPosition="13.4375" Velocity="93" />
      <note Length="0.0078125" Pitch="48" RiffPosition="13.4609375" Velocity="86" />
      <note Length="0.015625" Pitch="48" RiffPosition="13.46875" Velocity="67" />
      <note Length="0.015625" Pitch="48" RiffPosition="13.484375" Velocity="78" />
      <note Length="0.015625" Pitch="46" RiffPosition="13.5" Velocity="88" />
      <note Length="0.015625" Pitch="46" RiffPosition="13.515625" Velocity="97" />
      <note Length="0.03125" Pitch="43" RiffPosition="13.53125" Velocity="56" />
      <note Length="0.0234375" Pitch="41" RiffPosition="13.5625" Velocity="66" />
      <note Length="0.0078125" Pitch="38" RiffPosition="13.5859375" Velocity="50" />
      <note Length="0.015625" Pitch="38" RiffPosition="13.59375" Velocity="41" />
      <note Length="0.015625" Pitch="38" RiffPosition="13.609375" Velocity="36" />
      <note Length="0.015625" Pitch="38" RiffPosition="13.625" Velocity="39" />
      <note Length="0.015625" Pitch="39" RiffPosition="13.640625" Velocity="44" />
      <note Length="0.03125" Pitch="41" RiffPosition="13.65625" Velocity="49" />
      <note Length="0.0234375" Pitch="43" RiffPosition="13.6875" Velocity="57" />
      <note Length="0.0078125" Pitch="45" RiffPosition="13.7109375" Velocity="73" />
      <note Length="0.015625" Pitch="46" RiffPosition="13.71875" Velocity="47" />
      <note Length="0.015625" Pitch="46" RiffPosition="13.734375" Velocity="41" />
      <note Length="0.015625" Pitch="46" RiffPosition="13.75" Velocity="82" />
      <note Length="0.015625" Pitch="45" RiffPosition="13.765625" Velocity="76" />
      <note Length="0.03125" Pitch="43" RiffPosition="13.78125" Velocity="70" />
      <note Length="0.0234375" Pitch="41" RiffPosition="13.8125" Velocity="103" />
      <note Length="0.0078125" Pitch="41" RiffPosition="13.8359375" Velocity="69" />
      <note Length="0.015625" Pitch="41" RiffPosition="13.84375" Velocity="89" />
      <note Length="0.015625" Pitch="41" RiffPosition="13.859375" Velocity="77" />
      <note Length="0.015625" Pitch="41" RiffPosition="13.875" Velocity="64" />
      <note Length="0.015625" Pitch="41" RiffPosition="13.890625" Velocity="99" />
      <note Length="0.03125" Pitch="43" RiffPosition="13.90625" Velocity="86" />
      <note Length="0.0234375" Pitch="43" RiffPosition="13.9375" Velocity="59" />
      <note Length="0.0078125" Pitch="45" RiffPosition="13.9609375" Velocity="61" />
      <note Length="0.015625" Pitch="45" RiffPosition="13.96875" Velocity="78" />
      <note Length="0.015625" Pitch="45" RiffPosition="13.984375" Velocity="63" />
    </riff>
    <riff IsDrum="False" MidiInstrument="106" Tempo="99" Length="14">
      <note Length="0.015625" Pitch="55" RiffPosition="0" Velocity="0" />
      <note Length="0.046875" Pitch="51" RiffPosition="0.015625" Velocity="0" />
      <note Length="0.03125" Pitch="50" RiffPosition="0.0625" Velocity="0" />
      <note Length="0.03125" Pitch="53" RiffPosition="0.09375" Velocity="0" />
      <note Length="0.0625" Pitch="51" RiffPosition="0.125" Velocity="0" />
      <note Length="0.0625" Pitch="55" RiffPosition="0.1875" Velocity="0" />
      <note Length="0.015625" Pitch="55" RiffPosition="0.25" Velocity="0" />
      <note Length="0.046875" Pitch="55" RiffPosition="0.265625" Velocity="0" />
      <note Length="0.03125" Pitch="57" RiffPosition="0.3125" Velocity="0" />
      <note Length="0.03125" Pitch="60" RiffPosition="0.34375" Velocity="0" />
      <note Length="0.0625" Pitch="62" RiffPosition="0.375" Velocity="0" />
      <note Length="0.0625" Pitch="58" RiffPosition="0.4375" Velocity="0" />
      <note Length="0.015625" Pitch="55" RiffPosition="0.5" Velocity="0" />
      <note Length="0.046875" Pitch="55" RiffPosition="0.515625" Velocity="0" />
      <note Length="0.03125" Pitch="50" RiffPosition="0.5625" Velocity="0" />
      <note Length="0.03125" Pitch="50" RiffPosition="0.59375" Velocity="0" />
      <note Length="0.0625" Pitch="48" RiffPosition="0.625" Velocity="0" />
      <note Length="0.0625" Pitch="53" RiffPosition="0.6875" Velocity="0" />
      <note Length="0.015625" Pitch="55" RiffPosition="0.75" Velocity="0" />
      <note Length="0.046875" Pitch="53" RiffPosition="0.765625" Velocity="0" />
      <note Length="0.03125" Pitch="55" RiffPosition="0.8125" Velocity="0" />
      <note Length="0.03125" Pitch="58" RiffPosition="0.84375" Velocity="0" />
      <note Length="0.0625" Pitch="62" RiffPosition="0.875" Velocity="0" />
      <note Length="0.0625" Pitch="62" RiffPosition="0.9375" Velocity="0" />
      <note Length="0.015625" Pitch="58" RiffPosition="1" Velocity="0" />
      <note Length="0.046875" Pitch="55" RiffPosition="1.015625" Velocity="0" />
      <note Length="0.03125" Pitch="55" RiffPosition="1.0625" Velocity="0" />
      <note Length="0.03125" Pitch="53" RiffPosition="1.09375" Velocity="0" />
      <note Length="0.0625" Pitch="51" RiffPosition="1.125" Velocity="0" />
      <note Length="0.0625" Pitch="55" RiffPosition="1.1875" Velocity="0" />
      <note Length="0.015625" Pitch="53" RiffPosition="1.25" Velocity="0" />
      <note Length="0.046875" Pitch="51" RiffPosition="1.265625" Velocity="0" />
      <note Length="0.03125" Pitch="53" RiffPosition="1.3125" Velocity="0" />
      <note Length="0.03125" Pitch="55" RiffPosition="1.34375" Velocity="0" />
      <note Length="0.0625" Pitch="57" RiffPosition="1.375" Velocity="0" />
      <note Length="0.0625" Pitch="58" RiffPosition="1.4375" Velocity="0" />
      <note Length="0.015625" Pitch="55" RiffPosition="1.5" Velocity="0" />
      <note Length="0.046875" Pitch="55" RiffPosition="1.515625" Velocity="0" />
      <note Length="0.03125" Pitch="55" RiffPosition="1.5625" Velocity="0" />
      <note Length="0.03125" Pitch="55" RiffPosition="1.59375" Velocity="0" />
      <note Length="0.0625" Pitch="53" RiffPosition="1.625" Velocity="0" />
      <note Length="0.0625" Pitch="55" RiffPosition="1.6875" Velocity="0" />
      <note Length="0.015625" Pitch="55" RiffPosition="1.75" Velocity="0" />
      <note Length="0.046875" Pitch="53" RiffPosition="1.765625" Velocity="0" />
      <note Length="0.03125" Pitch="55" RiffPosition="1.8125" Velocity="0" />
      <note Length="0.03125" Pitch="58" RiffPosition="1.84375" Velocity="0" />
      <note Length="0.0625" Pitch="57" RiffPosition="1.875" Velocity="0" />
      <note Length="0.0625" Pitch="57" RiffPosition="1.9375" Velocity="0" />
      <note Length="0.015625" Pitch="55" RiffPosition="2" Velocity="0" />
      <note Length="0.046875" Pitch="51" RiffPosition="2.015625" Velocity="0" />
      <note Length="0.03125" Pitch="50" RiffPosition="2.0625" Velocity="0" />
      <note Length="0.03125" Pitch="53" RiffPosition="2.09375" Velocity="0" />
      <note Length="0.0625" Pitch="51" RiffPosition="2.125" Velocity="0" />
      <note Length="0.0625" Pitch="55" RiffPosition="2.1875" Velocity="0" />
      <note Length="0.015625" Pitch="55" RiffPosition="2.25" Velocity="0" />
      <note Length="0.046875" Pitch="55" RiffPosition="2.265625" Velocity="0" />
      <note Length="0.03125" Pitch="57" RiffPosition="2.3125" Velocity="0" />
      <note Length="0.03125" Pitch="60" RiffPosition="2.34375" Velocity="0" />
      <note Length="0.0625" Pitch="62" RiffPosition="2.375" Velocity="0" />
      <note Length="0.0625" Pitch="58" RiffPosition="2.4375" Velocity="0" />
      <note Length="0.015625" Pitch="55" RiffPosition="2.5" Velocity="0" />
      <note Length="0.046875" Pitch="55" RiffPosition="2.515625" Velocity="0" />
      <note Length="0.03125" Pitch="50" RiffPosition="2.5625" Velocity="0" />
      <note Length="0.03125" Pitch="50" RiffPosition="2.59375" Velocity="0" />
      <note Length="0.0625" Pitch="48" RiffPosition="2.625" Velocity="0" />
      <note Length="0.0625" Pitch="53" RiffPosition="2.6875" Velocity="0" />
      <note Length="0.015625" Pitch="55" RiffPosition="2.75" Velocity="0" />
      <note Length="0.046875" Pitch="53" RiffPosition="2.765625" Velocity="0" />
      <note Length="0.03125" Pitch="55" RiffPosition="2.8125" Velocity="0" />
      <note Length="0.03125" Pitch="58" RiffPosition="2.84375" Velocity="0" />
      <note Length="0.0625" Pitch="62" RiffPosition="2.875" Velocity="0" />
      <note Length="0.0625" Pitch="62" RiffPosition="2.9375" Velocity="0" />
      <note Length="0.015625" Pitch="58" RiffPosition="3" Velocity="0" />
      <note Length="0.046875" Pitch="55" RiffPosition="3.015625" Velocity="0" />
      <note Length="0.03125" Pitch="55" RiffPosition="3.0625" Velocity="0" />
      <note Length="0.03125" Pitch="53" RiffPosition="3.09375" Velocity="0" />
      <note Length="0.0625" Pitch="51" RiffPosition="3.125" Velocity="0" />
      <note Length="0.0625" Pitch="55" RiffPosition="3.1875" Velocity="0" />
      <note Length="0.015625" Pitch="53" RiffPosition="3.25" Velocity="0" />
      <note Length="0.046875" Pitch="51" RiffPosition="3.265625" Velocity="0" />
      <note Length="0.03125" Pitch="53" RiffPosition="3.3125" Velocity="0" />
      <note Length="0.03125" Pitch="55" RiffPosition="3.34375" Velocity="0" />
      <note Length="0.0625" Pitch="57" RiffPosition="3.375" Velocity="0" />
      <note Length="0.0625" Pitch="58" RiffPosition="3.4375" Velocity="0" />
      <note Length="0.015625" Pitch="55" RiffPosition="3.5" Velocity="0" />
      <note Length="0.046875" Pitch="55" RiffPosition="3.515625" Velocity="0" />
      <note Length="0.03125" Pitch="55" RiffPosition="3.5625" Velocity="0" />
      <note Length="0.03125" Pitch="55" RiffPosition="3.59375" Velocity="0" />
      <note Length="0.0625" Pitch="53" RiffPosition="3.625" Velocity="0" />
      <note Length="0.0625" Pitch="55" RiffPosition="3.6875" Velocity="0" />
      <note Length="0.015625" Pitch="55" RiffPosition="3.75" Velocity="0" />
      <note Length="0.046875" Pitch="53" RiffPosition="3.765625" Velocity="0" />
      <note Length="0.03125" Pitch="55" RiffPosition="3.8125" Velocity="0" />
      <note Length="0.03125" Pitch="58" RiffPosition="3.84375" Velocity="0" />
      <note Length="0.0625" Pitch="57" RiffPosition="3.875" Velocity="0" />
      <note Length="0.0625" Pitch="57" RiffPosition="3.9375" Velocity="0" />
      <note Length="0.015625" Pitch="55" RiffPosition="4" Velocity="0" />
      <note Length="0.046875" Pitch="51" RiffPosition="4.015625" Velocity="0" />
      <note Length="0.03125" Pitch="50" RiffPosition="4.0625" Velocity="0" />
      <note Length="0.03125" Pitch="53" RiffPosition="4.09375" Velocity="0" />
      <note Length="0.0625" Pitch="51" RiffPosition="4.125" Velocity="0" />
      <note Length="0.0625" Pitch="55" RiffPosition="4.1875" Velocity="0" />
      <note Length="0.015625" Pitch="55" RiffPosition="4.25" Velocity="0" />
      <note Length="0.046875" Pitch="55" RiffPosition="4.265625" Velocity="0" />
      <note Length="0.03125" Pitch="57" RiffPosition="4.3125" Velocity="0" />
      <note Length="0.03125" Pitch="60" RiffPosition="4.34375" Velocity="0" />
      <note Length="0.0625" Pitch="62" RiffPosition="4.375" Velocity="0" />
      <note Length="0.0625" Pitch="58" RiffPosition="4.4375" Velocity="0" />
      <note Length="0.015625" Pitch="55" RiffPosition="4.5" Velocity="0" />
      <note Length="0.046875" Pitch="55" RiffPosition="4.515625" Velocity="0" />
      <note Length="0.03125" Pitch="50" RiffPosition="4.5625" Velocity="0" />
      <note Length="0.03125" Pitch="50" RiffPosition="4.59375" Velocity="0" />
      <note Length="0.0625" Pitch="48" RiffPosition="4.625" Velocity="0" />
      <note Length="0.0625" Pitch="53" RiffPosition="4.6875" Velocity="0" />
      <note Length="0.015625" Pitch="55" RiffPosition="4.75" Velocity="0" />
      <note Length="0.046875" Pitch="53" RiffPosition="4.765625" Velocity="0" />
      <note Length="0.03125" Pitch="55" RiffPosition="4.8125" Velocity="0" />
      <note Length="0.03125" Pitch="58" RiffPosition="4.84375" Velocity="0" />
      <note Length="0.0625" Pitch="62" RiffPosition="4.875" Velocity="0" />
      <note Length="0.0625" Pitch="62" RiffPosition="4.9375" Velocity="0" />
      <note Length="0.015625" Pitch="58" RiffPosition="5" Velocity="0" />
      <note Length="0.046875" Pitch="55" RiffPosition="5.015625" Velocity="0" />
      <note Length="0.03125" Pitch="55" RiffPosition="5.0625" Velocity="0" />
      <note Length="0.03125" Pitch="53" RiffPosition="5.09375" Velocity="0" />
      <note Length="0.0625" Pitch="51" RiffPosition="5.125" Velocity="0" />
      <note Length="0.0625" Pitch="55" RiffPosition="5.1875" Velocity="0" />
      <note Length="0.015625" Pitch="53" RiffPosition="5.25" Velocity="0" />
      <note Length="0.046875" Pitch="51" RiffPosition="5.265625" Velocity="0" />
      <note Length="0.03125" Pitch="53" RiffPosition="5.3125" Velocity="0" />
      <note Length="0.03125" Pitch="55" RiffPosition="5.34375" Velocity="0" />
      <note Length="0.0625" Pitch="57" RiffPosition="5.375" Velocity="0" />
      <note Length="0.0625" Pitch="58" RiffPosition="5.4375" Velocity="0" />
      <note Length="0.015625" Pitch="55" RiffPosition="5.5" Velocity="0" />
      <note Length="0.046875" Pitch="55" RiffPosition="5.515625" Velocity="0" />
      <note Length="0.03125" Pitch="55" RiffPosition="5.5625" Velocity="0" />
      <note Length="0.03125" Pitch="55" RiffPosition="5.59375" Velocity="0" />
      <note Length="0.0625" Pitch="53" RiffPosition="5.625" Velocity="0" />
      <note Length="0.0625" Pitch="55" RiffPosition="5.6875" Velocity="0" />
      <note Length="0.015625" Pitch="55" RiffPosition="5.75" Velocity="0" />
      <note Length="0.046875" Pitch="53" RiffPosition="5.765625" Velocity="0" />
      <note Length="0.03125" Pitch="55" RiffPosition="5.8125" Velocity="0" />
      <note Length="0.03125" Pitch="58" RiffPosition="5.84375" Velocity="0" />
      <note Length="0.0625" Pitch="57" RiffPosition="5.875" Velocity="0" />
      <note Length="0.0625" Pitch="57" RiffPosition="5.9375" Velocity="0" />
      <note Length="0.015625" Pitch="55" RiffPosition="6" Velocity="0" />
      <note Length="0.046875" Pitch="51" RiffPosition="6.015625" Velocity="0" />
      <note Length="0.03125" Pitch="50" RiffPosition="6.0625" Velocity="0" />
      <note Length="0.03125" Pitch="53" RiffPosition="6.09375" Velocity="0" />
      <note Length="0.0625" Pitch="51" RiffPosition="6.125" Velocity="0" />
      <note Length="0.0625" Pitch="55" RiffPosition="6.1875" Velocity="0" />
      <note Length="0.015625" Pitch="55" RiffPosition="6.25" Velocity="0" />
      <note Length="0.046875" Pitch="55" RiffPosition="6.265625" Velocity="0" />
      <note Length="0.03125" Pitch="57" RiffPosition="6.3125" Velocity="0" />
      <note Length="0.03125" Pitch="60" RiffPosition="6.34375" Velocity="0" />
      <note Length="0.0625" Pitch="62" RiffPosition="6.375" Velocity="0" />
      <note Length="0.0625" Pitch="58" RiffPosition="6.4375" Velocity="0" />
      <note Length="0.015625" Pitch="55" RiffPosition="6.5" Velocity="0" />
      <note Length="0.046875" Pitch="55" RiffPosition="6.515625" Velocity="0" />
      <note Length="0.03125" Pitch="50" RiffPosition="6.5625" Velocity="0" />
      <note Length="0.03125" Pitch="50" RiffPosition="6.59375" Velocity="0" />
      <note Length="0.0625" Pitch="48" RiffPosition="6.625" Velocity="0" />
      <note Length="0.0625" Pitch="53" RiffPosition="6.6875" Velocity="0" />
      <note Length="0.015625" Pitch="55" RiffPosition="6.75" Velocity="0" />
      <note Length="0.046875" Pitch="53" RiffPosition="6.765625" Velocity="0" />
      <note Length="0.03125" Pitch="55" RiffPosition="6.8125" Velocity="0" />
      <note Length="0.03125" Pitch="58" RiffPosition="6.84375" Velocity="0" />
      <note Length="0.0625" Pitch="62" RiffPosition="6.875" Velocity="0" />
      <note Length="0.0625" Pitch="62" RiffPosition="6.9375" Velocity="0" />
      <note Length="0.015625" Pitch="58" RiffPosition="7" Velocity="0" />
      <note Length="0.046875" Pitch="55" RiffPosition="7.015625" Velocity="0" />
      <note Length="0.03125" Pitch="55" RiffPosition="7.0625" Velocity="0" />
      <note Length="0.03125" Pitch="53" RiffPosition="7.09375" Velocity="0" />
      <note Length="0.0625" Pitch="51" RiffPosition="7.125" Velocity="0" />
      <note Length="0.0625" Pitch="55" RiffPosition="7.1875" Velocity="0" />
      <note Length="0.015625" Pitch="53" RiffPosition="7.25" Velocity="0" />
      <note Length="0.046875" Pitch="51" RiffPosition="7.265625" Velocity="0" />
      <note Length="0.03125" Pitch="53" RiffPosition="7.3125" Velocity="0" />
      <note Length="0.03125" Pitch="55" RiffPosition="7.34375" Velocity="0" />
      <note Length="0.0625" Pitch="57" RiffPosition="7.375" Velocity="0" />
      <note Length="0.0625" Pitch="58" RiffPosition="7.4375" Velocity="0" />
      <note Length="0.015625" Pitch="55" RiffPosition="7.5" Velocity="0" />
      <note Length="0.046875" Pitch="55" RiffPosition="7.515625" Velocity="0" />
      <note Length="0.03125" Pitch="55" RiffPosition="7.5625" Velocity="0" />
      <note Length="0.03125" Pitch="55" RiffPosition="7.59375" Velocity="0" />
      <note Length="0.0625" Pitch="53" RiffPosition="7.625" Velocity="0" />
      <note Length="0.0625" Pitch="55" RiffPosition="7.6875" Velocity="0" />
      <note Length="0.015625" Pitch="55" RiffPosition="7.75" Velocity="0" />
      <note Length="0.046875" Pitch="53" RiffPosition="7.765625" Velocity="0" />
      <note Length="0.03125" Pitch="55" RiffPosition="7.8125" Velocity="0" />
      <note Length="0.03125" Pitch="58" RiffPosition="7.84375" Velocity="0" />
      <note Length="0.0625" Pitch="57" RiffPosition="7.875" Velocity="0" />
      <note Length="0.0625" Pitch="57" RiffPosition="7.9375" Velocity="0" />
      <note Length="0.015625" Pitch="55" RiffPosition="8" Velocity="59" />
      <note Length="0.046875" Pitch="51" RiffPosition="8.015625" Velocity="69" />
      <note Length="0.03125" Pitch="50" RiffPosition="8.0625" Velocity="60" />
      <note Length="0.03125" Pitch="53" RiffPosition="8.09375" Velocity="47" />
      <note Length="0.0625" Pitch="51" RiffPosition="8.125" Velocity="42" />
      <note Length="0.0625" Pitch="55" RiffPosition="8.1875" Velocity="74" />
      <note Length="0.015625" Pitch="55" RiffPosition="8.25" Velocity="52" />
      <note Length="0.046875" Pitch="55" RiffPosition="8.265625" Velocity="61" />
      <note Length="0.03125" Pitch="57" RiffPosition="8.3125" Velocity="35" />
      <note Length="0.03125" Pitch="60" RiffPosition="8.34375" Velocity="44" />
      <note Length="0.0625" Pitch="62" RiffPosition="8.375" Velocity="82" />
      <note Length="0.0625" Pitch="58" RiffPosition="8.4375" Velocity="36" />
      <note Length="0.015625" Pitch="55" RiffPosition="8.5" Velocity="30" />
      <note Length="0.046875" Pitch="55" RiffPosition="8.515625" Velocity="40" />
      <note Length="0.03125" Pitch="50" RiffPosition="8.5625" Velocity="92" />
      <note Length="0.03125" Pitch="50" RiffPosition="8.59375" Velocity="76" />
      <note Length="0.0625" Pitch="48" RiffPosition="8.625" Velocity="43" />
      <note Length="0.0625" Pitch="53" RiffPosition="8.6875" Velocity="44" />
      <note Length="0.015625" Pitch="55" RiffPosition="8.75" Velocity="82" />
      <note Length="0.046875" Pitch="53" RiffPosition="8.765625" Velocity="91" />
      <note Length="0.03125" Pitch="55" RiffPosition="8.8125" Velocity="34" />
      <note Length="0.03125" Pitch="58" RiffPosition="8.84375" Velocity="45" />
      <note Length="0.0625" Pitch="62" RiffPosition="8.875" Velocity="53" />
      <note Length="0.0625" Pitch="62" RiffPosition="8.9375" Velocity="65" />
      <note Length="0.015625" Pitch="58" RiffPosition="9" Velocity="56" />
      <note Length="0.046875" Pitch="55" RiffPosition="9.015625" Velocity="70" />
      <note Length="0.03125" Pitch="55" RiffPosition="9.0625" Velocity="62" />
      <note Length="0.03125" Pitch="53" RiffPosition="9.09375" Velocity="46" />
      <note Length="0.0625" Pitch="51" RiffPosition="9.125" Velocity="43" />
      <note Length="0.0625" Pitch="55" RiffPosition="9.1875" Velocity="73" />
      <note Length="0.015625" Pitch="53" RiffPosition="9.25" Velocity="53" />
      <note Length="0.046875" Pitch="51" RiffPosition="9.265625" Velocity="62" />
      <note Length="0.03125" Pitch="53" RiffPosition="9.3125" Velocity="34" />
      <note Length="0.03125" Pitch="55" RiffPosition="9.34375" Velocity="45" />
      <note Length="0.0625" Pitch="57" RiffPosition="9.375" Velocity="83" />
      <note Length="0.0625" Pitch="58" RiffPosition="9.4375" Velocity="39" />
      <note Length="0.015625" Pitch="55" RiffPosition="9.5" Velocity="33" />
      <note Length="0.046875" Pitch="55" RiffPosition="9.515625" Velocity="41" />
      <note Length="0.03125" Pitch="55" RiffPosition="9.5625" Velocity="91" />
      <note Length="0.03125" Pitch="55" RiffPosition="9.59375" Velocity="75" />
      <note Length="0.0625" Pitch="53" RiffPosition="9.625" Velocity="44" />
      <note Length="0.0625" Pitch="55" RiffPosition="9.6875" Velocity="43" />
      <note Length="0.015625" Pitch="55" RiffPosition="9.75" Velocity="83" />
      <note Length="0.046875" Pitch="53" RiffPosition="9.765625" Velocity="92" />
      <note Length="0.03125" Pitch="55" RiffPosition="9.8125" Velocity="33" />
      <note Length="0.03125" Pitch="58" RiffPosition="9.84375" Velocity="44" />
      <note Length="0.0625" Pitch="57" RiffPosition="9.875" Velocity="50" />
      <note Length="0.0625" Pitch="57" RiffPosition="9.9375" Velocity="68" />
      <note Length="0.015625" Pitch="55" RiffPosition="10" Velocity="57" />
      <note Length="0.046875" Pitch="51" RiffPosition="10.015625" Velocity="67" />
      <note Length="0.03125" Pitch="50" RiffPosition="10.0625" Velocity="61" />
      <note Length="0.03125" Pitch="53" RiffPosition="10.09375" Velocity="48" />
      <note Length="0.0625" Pitch="51" RiffPosition="10.125" Velocity="44" />
      <note Length="0.0625" Pitch="55" RiffPosition="10.1875" Velocity="72" />
      <note Length="0.015625" Pitch="55" RiffPosition="10.25" Velocity="54" />
      <note Length="0.046875" Pitch="55" RiffPosition="10.265625" Velocity="63" />
      <note Length="0.03125" Pitch="57" RiffPosition="10.3125" Velocity="36" />
      <note Length="0.03125" Pitch="60" RiffPosition="10.34375" Velocity="46" />
      <note Length="0.0625" Pitch="62" RiffPosition="10.375" Velocity="80" />
      <note Length="0.0625" Pitch="58" RiffPosition="10.4375" Velocity="38" />
      <note Length="0.015625" Pitch="55" RiffPosition="10.5" Velocity="32" />
      <note Length="0.046875" Pitch="55" RiffPosition="10.515625" Velocity="38" />
      <note Length="0.03125" Pitch="50" RiffPosition="10.5625" Velocity="90" />
      <note Length="0.03125" Pitch="50" RiffPosition="10.59375" Velocity="77" />
      <note Length="0.0625" Pitch="48" RiffPosition="10.625" Velocity="45" />
      <note Length="0.0625" Pitch="53" RiffPosition="10.6875" Velocity="42" />
      <note Length="0.015625" Pitch="55" RiffPosition="10.75" Velocity="80" />
      <note Length="0.046875" Pitch="53" RiffPosition="10.765625" Velocity="93" />
      <note Length="0.03125" Pitch="55" RiffPosition="10.8125" Velocity="36" />
      <note Length="0.03125" Pitch="58" RiffPosition="10.84375" Velocity="43" />
      <note Length="0.0625" Pitch="62" RiffPosition="10.875" Velocity="51" />
      <note Length="0.0625" Pitch="62" RiffPosition="10.9375" Velocity="67" />
      <note Length="0.015625" Pitch="58" RiffPosition="11" Velocity="58" />
      <note Length="0.046875" Pitch="55" RiffPosition="11.015625" Velocity="68" />
      <note Length="0.03125" Pitch="55" RiffPosition="11.0625" Velocity="60" />
      <note Length="0.03125" Pitch="53" RiffPosition="11.09375" Velocity="47" />
      <note Length="0.0625" Pitch="51" RiffPosition="11.125" Velocity="45" />
      <note Length="0.0625" Pitch="55" RiffPosition="11.1875" Velocity="71" />
      <note Length="0.015625" Pitch="53" RiffPosition="11.25" Velocity="51" />
      <note Length="0.046875" Pitch="51" RiffPosition="11.265625" Velocity="64" />
      <note Length="0.03125" Pitch="53" RiffPosition="11.3125" Velocity="35" />
      <note Length="0.03125" Pitch="55" RiffPosition="11.34375" Velocity="47" />
      <note Length="0.0625" Pitch="57" RiffPosition="11.375" Velocity="81" />
      <note Length="0.0625" Pitch="58" RiffPosition="11.4375" Velocity="37" />
      <note Length="0.015625" Pitch="55" RiffPosition="11.5" Velocity="31" />
      <note Length="0.046875" Pitch="55" RiffPosition="11.515625" Velocity="39" />
      <note Length="0.03125" Pitch="55" RiffPosition="11.5625" Velocity="89" />
      <note Length="0.03125" Pitch="55" RiffPosition="11.59375" Velocity="76" />
      <note Length="0.0625" Pitch="53" RiffPosition="11.625" Velocity="46" />
      <note Length="0.0625" Pitch="55" RiffPosition="11.6875" Velocity="45" />
      <note Length="0.015625" Pitch="55" RiffPosition="11.75" Velocity="81" />
      <note Length="0.046875" Pitch="53" RiffPosition="11.765625" Velocity="90" />
      <note Length="0.03125" Pitch="55" RiffPosition="11.8125" Velocity="35" />
      <note Length="0.03125" Pitch="58" RiffPosition="11.84375" Velocity="42" />
      <note Length="0.0625" Pitch="57" RiffPosition="11.875" Velocity="52" />
      <note Length="0.0625" Pitch="57" RiffPosition="11.9375" Velocity="66" />
      <note Length="0.015625" Pitch="55" RiffPosition="12" Velocity="59" />
      <note Length="0.046875" Pitch="51" RiffPosition="12.015625" Velocity="69" />
      <note Length="0.03125" Pitch="50" RiffPosition="12.0625" Velocity="59" />
      <note Length="0.03125" Pitch="53" RiffPosition="12.09375" Velocity="46" />
      <note Length="0.0625" Pitch="51" RiffPosition="12.125" Velocity="43" />
      <note Length="0.0625" Pitch="55" RiffPosition="12.1875" Velocity="74" />
      <note Length="0.015625" Pitch="55" RiffPosition="12.25" Velocity="52" />
      <note Length="0.046875" Pitch="55" RiffPosition="12.265625" Velocity="61" />
      <note Length="0.03125" Pitch="57" RiffPosition="12.3125" Velocity="34" />
      <note Length="0.03125" Pitch="60" RiffPosition="12.34375" Velocity="44" />
      <note Length="0.0625" Pitch="62" RiffPosition="12.375" Velocity="82" />
      <note Length="0.0625" Pitch="58" RiffPosition="12.4375" Velocity="36" />
      <note Length="0.015625" Pitch="55" RiffPosition="12.5" Velocity="30" />
      <note Length="0.046875" Pitch="55" RiffPosition="12.515625" Velocity="40" />
      <note Length="0.03125" Pitch="50" RiffPosition="12.5625" Velocity="92" />
      <note Length="0.03125" Pitch="50" RiffPosition="12.59375" Velocity="75" />
      <note Length="0.0625" Pitch="48" RiffPosition="12.625" Velocity="43" />
      <note Length="0.0625" Pitch="53" RiffPosition="12.6875" Velocity="44" />
      <note Length="0.015625" Pitch="55" RiffPosition="12.75" Velocity="82" />
      <note Length="0.046875" Pitch="53" RiffPosition="12.765625" Velocity="91" />
      <note Length="0.03125" Pitch="55" RiffPosition="12.8125" Velocity="34" />
      <note Length="0.03125" Pitch="58" RiffPosition="12.84375" Velocity="45" />
      <note Length="0.0625" Pitch="62" RiffPosition="12.875" Velocity="53" />
      <note Length="0.0625" Pitch="62" RiffPosition="12.9375" Velocity="65" />
      <note Length="0.015625" Pitch="58" RiffPosition="13" Velocity="0" />
      <note Length="0.046875" Pitch="55" RiffPosition="13.015625" Velocity="0" />
      <note Length="0.03125" Pitch="55" RiffPosition="13.0625" Velocity="0" />
      <note Length="0.03125" Pitch="53" RiffPosition="13.09375" Velocity="0" />
      <note Length="0.0625" Pitch="51" RiffPosition="13.125" Velocity="0" />
      <note Length="0.0625" Pitch="55" RiffPosition="13.1875" Velocity="0" />
      <note Length="0.015625" Pitch="53" RiffPosition="13.25" Velocity="0" />
      <note Length="0.046875" Pitch="51" RiffPosition="13.265625" Velocity="0" />
      <note Length="0.03125" Pitch="53" RiffPosition="13.3125" Velocity="0" />
      <note Length="0.03125" Pitch="55" RiffPosition="13.34375" Velocity="0" />
      <note Length="0.0625" Pitch="57" RiffPosition="13.375" Velocity="0" />
      <note Length="0.0625" Pitch="58" RiffPosition="13.4375" Velocity="0" />
      <note Length="0.015625" Pitch="55" RiffPosition="13.5" Velocity="0" />
      <note Length="0.046875" Pitch="55" RiffPosition="13.515625" Velocity="0" />
      <note Length="0.03125" Pitch="55" RiffPosition="13.5625" Velocity="0" />
      <note Length="0.03125" Pitch="55" RiffPosition="13.59375" Velocity="0" />
      <note Length="0.0625" Pitch="53" RiffPosition="13.625" Velocity="0" />
      <note Length="0.0625" Pitch="55" RiffPosition="13.6875" Velocity="0" />
      <note Length="0.015625" Pitch="55" RiffPosition="13.75" Velocity="0" />
      <note Length="0.046875" Pitch="53" RiffPosition="13.765625" Velocity="0" />
      <note Length="0.03125" Pitch="55" RiffPosition="13.8125" Velocity="0" />
      <note Length="0.03125" Pitch="58" RiffPosition="13.84375" Velocity="0" />
      <note Length="0.0625" Pitch="57" RiffPosition="13.875" Velocity="0" />
      <note Length="0.0625" Pitch="57" RiffPosition="13.9375" Velocity="0" />
    </riff>
    <riff IsDrum="False" MidiInstrument="106" Tempo="103" Length="14">
      <note Length="0.03125" Pitch="60" RiffPosition="0" Velocity="0" />
      <note Length="0.03125" Pitch="50" RiffPosition="0.03125" Velocity="0" />
      <note Length="0.03125" Pitch="50" RiffPosition="0.0625" Velocity="0" />
      <note Length="0.03125" Pitch="57" RiffPosition="0.09375" Velocity="0" />
      <note Length="0.03125" Pitch="58" RiffPosition="0.125" Velocity="0" />
      <note Length="0.03125" Pitch="50" RiffPosition="0.15625" Velocity="0" />
      <note Length="0.015625" Pitch="50" RiffPosition="0.1875" Velocity="0" />
      <note Length="0.046875" Pitch="55" RiffPosition="0.203125" Velocity="0" />
      <note Length="0.03125" Pitch="58" RiffPosition="0.25" Velocity="0" />
      <note Length="0.03125" Pitch="51" RiffPosition="0.28125" Velocity="0" />
      <note Length="0.03125" Pitch="53" RiffPosition="0.3125" Velocity="0" />
      <note Length="0.03125" Pitch="60" RiffPosition="0.34375" Velocity="0" />
      <note Length="0.03125" Pitch="60" RiffPosition="0.375" Velocity="0" />
      <note Length="0.03125" Pitch="51" RiffPosition="0.40625" Velocity="0" />
      <note Length="0.015625" Pitch="53" RiffPosition="0.4375" Velocity="0" />
      <note Length="0.046875" Pitch="55" RiffPosition="0.453125" Velocity="0" />
      <note Length="0.03125" Pitch="58" RiffPosition="0.5" Velocity="0" />
      <note Length="0.03125" Pitch="51" RiffPosition="0.53125" Velocity="0" />
      <note Length="0.03125" Pitch="48" RiffPosition="0.5625" Velocity="0" />
      <note Length="0.03125" Pitch="58" RiffPosition="0.59375" Velocity="0" />
      <note Length="0.03125" Pitch="58" RiffPosition="0.625" Velocity="0" />
      <note Length="0.03125" Pitch="48" RiffPosition="0.65625" Velocity="0" />
      <note Length="0.015625" Pitch="50" RiffPosition="0.6875" Velocity="0" />
      <note Length="0.046875" Pitch="55" RiffPosition="0.703125" Velocity="0" />
      <note Length="0.03125" Pitch="58" RiffPosition="0.75" Velocity="0" />
      <note Length="0.03125" Pitch="51" RiffPosition="0.78125" Velocity="0" />
      <note Length="0.03125" Pitch="51" RiffPosition="0.8125" Velocity="0" />
      <note Length="0.03125" Pitch="60" RiffPosition="0.84375" Velocity="0" />
      <note Length="0.03125" Pitch="62" RiffPosition="0.875" Velocity="0" />
      <note Length="0.03125" Pitch="53" RiffPosition="0.90625" Velocity="0" />
      <note Length="0.015625" Pitch="53" RiffPosition="0.9375" Velocity="0" />
      <note Length="0.046875" Pitch="57" RiffPosition="0.953125" Velocity="0" />
      <note Length="0.03125" Pitch="58" RiffPosition="1" Velocity="0" />
      <note Length="0.03125" Pitch="53" RiffPosition="1.03125" Velocity="0" />
      <note Length="0.03125" Pitch="50" RiffPosition="1.0625" Velocity="0" />
      <note Length="0.03125" Pitch="58" RiffPosition="1.09375" Velocity="0" />
      <note Length="0.03125" Pitch="57" RiffPosition="1.125" Velocity="0" />
      <note Length="0.03125" Pitch="50" RiffPosition="1.15625" Velocity="0" />
      <note Length="0.015625" Pitch="50" RiffPosition="1.1875" Velocity="0" />
      <note Length="0.046875" Pitch="53" RiffPosition="1.203125" Velocity="0" />
      <note Length="0.03125" Pitch="60" RiffPosition="1.25" Velocity="0" />
      <note Length="0.03125" Pitch="50" RiffPosition="1.28125" Velocity="0" />
      <note Length="0.03125" Pitch="53" RiffPosition="1.3125" Velocity="0" />
      <note Length="0.03125" Pitch="62" RiffPosition="1.34375" Velocity="0" />
      <note Length="0.03125" Pitch="60" RiffPosition="1.375" Velocity="0" />
      <note Length="0.03125" Pitch="53" RiffPosition="1.40625" Velocity="0" />
      <note Length="0.015625" Pitch="51" RiffPosition="1.4375" Velocity="0" />
      <note Length="0.046875" Pitch="55" RiffPosition="1.453125" Velocity="0" />
      <note Length="0.03125" Pitch="60" RiffPosition="1.5" Velocity="0" />
      <note Length="0.03125" Pitch="50" RiffPosition="1.53125" Velocity="0" />
      <note Length="0.03125" Pitch="50" RiffPosition="1.5625" Velocity="0" />
      <note Length="0.03125" Pitch="57" RiffPosition="1.59375" Velocity="0" />
      <note Length="0.03125" Pitch="58" RiffPosition="1.625" Velocity="0" />
      <note Length="0.03125" Pitch="50" RiffPosition="1.65625" Velocity="0" />
      <note Length="0.015625" Pitch="48" RiffPosition="1.6875" Velocity="0" />
      <note Length="0.046875" Pitch="55" RiffPosition="1.703125" Velocity="0" />
      <note Length="0.03125" Pitch="60" RiffPosition="1.75" Velocity="0" />
      <note Length="0.03125" Pitch="50" RiffPosition="1.78125" Velocity="0" />
      <note Length="0.03125" Pitch="53" RiffPosition="1.8125" Velocity="0" />
      <note Length="0.03125" Pitch="60" RiffPosition="1.84375" Velocity="0" />
      <note Length="0.03125" Pitch="60" RiffPosition="1.875" Velocity="0" />
      <note Length="0.03125" Pitch="53" RiffPosition="1.90625" Velocity="0" />
      <note Length="0.015625" Pitch="53" RiffPosition="1.9375" Velocity="0" />
      <note Length="0.046875" Pitch="55" RiffPosition="1.953125" Velocity="0" />
      <note Length="0.03125" Pitch="58" RiffPosition="2" Velocity="0" />
      <note Length="0.03125" Pitch="51" RiffPosition="2.03125" Velocity="0" />
      <note Length="0.03125" Pitch="50" RiffPosition="2.0625" Velocity="0" />
      <note Length="0.03125" Pitch="57" RiffPosition="2.09375" Velocity="0" />
      <note Length="0.03125" Pitch="58" RiffPosition="2.125" Velocity="0" />
      <note Length="0.03125" Pitch="48" RiffPosition="2.15625" Velocity="0" />
      <note Length="0.015625" Pitch="50" RiffPosition="2.1875" Velocity="0" />
      <note Length="0.046875" Pitch="55" RiffPosition="2.203125" Velocity="0" />
      <note Length="0.03125" Pitch="58" RiffPosition="2.25" Velocity="0" />
      <note Length="0.03125" Pitch="51" RiffPosition="2.28125" Velocity="0" />
      <note Length="0.03125" Pitch="51" RiffPosition="2.3125" Velocity="0" />
      <note Length="0.03125" Pitch="60" RiffPosition="2.34375" Velocity="0" />
      <note Length="0.03125" Pitch="62" RiffPosition="2.375" Velocity="0" />
      <note Length="0.03125" Pitch="51" RiffPosition="2.40625" Velocity="0" />
      <note Length="0.015625" Pitch="53" RiffPosition="2.4375" Velocity="0" />
      <note Length="0.046875" Pitch="57" RiffPosition="2.453125" Velocity="0" />
      <note Length="0.03125" Pitch="58" RiffPosition="2.5" Velocity="0" />
      <note Length="0.03125" Pitch="51" RiffPosition="2.53125" Velocity="0" />
      <note Length="0.03125" Pitch="48" RiffPosition="2.5625" Velocity="0" />
      <note Length="0.03125" Pitch="58" RiffPosition="2.59375" Velocity="0" />
      <note Length="0.03125" Pitch="58" RiffPosition="2.625" Velocity="0" />
      <note Length="0.03125" Pitch="50" RiffPosition="2.65625" Velocity="0" />
      <note Length="0.015625" Pitch="50" RiffPosition="2.6875" Velocity="0" />
      <note Length="0.046875" Pitch="55" RiffPosition="2.703125" Velocity="0" />
      <note Length="0.03125" Pitch="58" RiffPosition="2.75" Velocity="0" />
      <note Length="0.03125" Pitch="53" RiffPosition="2.78125" Velocity="0" />
      <note Length="0.03125" Pitch="53" RiffPosition="2.8125" Velocity="0" />
      <note Length="0.03125" Pitch="60" RiffPosition="2.84375" Velocity="0" />
      <note Length="0.03125" Pitch="60" RiffPosition="2.875" Velocity="0" />
      <note Length="0.03125" Pitch="53" RiffPosition="2.90625" Velocity="0" />
      <note Length="0.015625" Pitch="53" RiffPosition="2.9375" Velocity="0" />
      <note Length="0.046875" Pitch="55" RiffPosition="2.953125" Velocity="0" />
      <note Length="0.03125" Pitch="60" RiffPosition="3" Velocity="0" />
      <note Length="0.03125" Pitch="50" RiffPosition="3.03125" Velocity="0" />
      <note Length="0.03125" Pitch="50" RiffPosition="3.0625" Velocity="0" />
      <note Length="0.03125" Pitch="58" RiffPosition="3.09375" Velocity="0" />
      <note Length="0.03125" Pitch="57" RiffPosition="3.125" Velocity="0" />
      <note Length="0.03125" Pitch="50" RiffPosition="3.15625" Velocity="0" />
      <note Length="0.015625" Pitch="48" RiffPosition="3.1875" Velocity="0" />
      <note Length="0.046875" Pitch="53" RiffPosition="3.203125" Velocity="0" />
      <note Length="0.03125" Pitch="60" RiffPosition="3.25" Velocity="0" />
      <note Length="0.03125" Pitch="50" RiffPosition="3.28125" Velocity="0" />
      <note Length="0.03125" Pitch="53" RiffPosition="3.3125" Velocity="0" />
      <note Length="0.03125" Pitch="62" RiffPosition="3.34375" Velocity="0" />
      <note Length="0.03125" Pitch="60" RiffPosition="3.375" Velocity="0" />
      <note Length="0.03125" Pitch="53" RiffPosition="3.40625" Velocity="0" />
      <note Length="0.015625" Pitch="51" RiffPosition="3.4375" Velocity="0" />
      <note Length="0.046875" Pitch="55" RiffPosition="3.453125" Velocity="0" />
      <note Length="0.03125" Pitch="60" RiffPosition="3.5" Velocity="0" />
      <note Length="0.03125" Pitch="50" RiffPosition="3.53125" Velocity="0" />
      <note Length="0.03125" Pitch="50" RiffPosition="3.5625" Velocity="0" />
      <note Length="0.03125" Pitch="57" RiffPosition="3.59375" Velocity="0" />
      <note Length="0.03125" Pitch="58" RiffPosition="3.625" Velocity="0" />
      <note Length="0.03125" Pitch="50" RiffPosition="3.65625" Velocity="0" />
      <note Length="0.015625" Pitch="50" RiffPosition="3.6875" Velocity="0" />
      <note Length="0.046875" Pitch="55" RiffPosition="3.703125" Velocity="0" />
      <note Length="0.03125" Pitch="58" RiffPosition="3.75" Velocity="0" />
      <note Length="0.03125" Pitch="51" RiffPosition="3.78125" Velocity="0" />
      <note Length="0.03125" Pitch="53" RiffPosition="3.8125" Velocity="0" />
      <note Length="0.03125" Pitch="60" RiffPosition="3.84375" Velocity="0" />
      <note Length="0.03125" Pitch="60" RiffPosition="3.875" Velocity="0" />
      <note Length="0.03125" Pitch="51" RiffPosition="3.90625" Velocity="0" />
      <note Length="0.015625" Pitch="53" RiffPosition="3.9375" Velocity="0" />
      <note Length="0.046875" Pitch="55" RiffPosition="3.953125" Velocity="0" />
      <note Length="0.03125" Pitch="58" RiffPosition="4" Velocity="0" />
      <note Length="0.03125" Pitch="51" RiffPosition="4.03125" Velocity="0" />
      <note Length="0.03125" Pitch="48" RiffPosition="4.0625" Velocity="0" />
      <note Length="0.03125" Pitch="58" RiffPosition="4.09375" Velocity="0" />
      <note Length="0.03125" Pitch="58" RiffPosition="4.125" Velocity="0" />
      <note Length="0.03125" Pitch="48" RiffPosition="4.15625" Velocity="0" />
      <note Length="0.015625" Pitch="50" RiffPosition="4.1875" Velocity="0" />
      <note Length="0.046875" Pitch="55" RiffPosition="4.203125" Velocity="0" />
      <note Length="0.03125" Pitch="58" RiffPosition="4.25" Velocity="0" />
      <note Length="0.03125" Pitch="51" RiffPosition="4.28125" Velocity="0" />
      <note Length="0.03125" Pitch="51" RiffPosition="4.3125" Velocity="0" />
      <note Length="0.03125" Pitch="60" RiffPosition="4.34375" Velocity="0" />
      <note Length="0.03125" Pitch="62" RiffPosition="4.375" Velocity="0" />
      <note Length="0.03125" Pitch="53" RiffPosition="4.40625" Velocity="0" />
      <note Length="0.015625" Pitch="53" RiffPosition="4.4375" Velocity="0" />
      <note Length="0.046875" Pitch="57" RiffPosition="4.453125" Velocity="0" />
      <note Length="0.03125" Pitch="58" RiffPosition="4.5" Velocity="0" />
      <note Length="0.03125" Pitch="53" RiffPosition="4.53125" Velocity="0" />
      <note Length="0.03125" Pitch="50" RiffPosition="4.5625" Velocity="0" />
      <note Length="0.03125" Pitch="58" RiffPosition="4.59375" Velocity="0" />
      <note Length="0.03125" Pitch="57" RiffPosition="4.625" Velocity="0" />
      <note Length="0.03125" Pitch="50" RiffPosition="4.65625" Velocity="0" />
      <note Length="0.015625" Pitch="50" RiffPosition="4.6875" Velocity="0" />
      <note Length="0.046875" Pitch="53" RiffPosition="4.703125" Velocity="0" />
      <note Length="0.03125" Pitch="60" RiffPosition="4.75" Velocity="0" />
      <note Length="0.03125" Pitch="50" RiffPosition="4.78125" Velocity="0" />
      <note Length="0.03125" Pitch="53" RiffPosition="4.8125" Velocity="0" />
      <note Length="0.03125" Pitch="62" RiffPosition="4.84375" Velocity="0" />
      <note Length="0.03125" Pitch="60" RiffPosition="4.875" Velocity="0" />
      <note Length="0.03125" Pitch="53" RiffPosition="4.90625" Velocity="0" />
      <note Length="0.015625" Pitch="51" RiffPosition="4.9375" Velocity="0" />
      <note Length="0.046875" Pitch="55" RiffPosition="4.953125" Velocity="0" />
      <note Length="0.03125" Pitch="60" RiffPosition="5" Velocity="0" />
      <note Length="0.03125" Pitch="50" RiffPosition="5.03125" Velocity="0" />
      <note Length="0.03125" Pitch="50" RiffPosition="5.0625" Velocity="0" />
      <note Length="0.03125" Pitch="58" RiffPosition="5.09375" Velocity="0" />
      <note Length="0.03125" Pitch="58" RiffPosition="5.125" Velocity="0" />
      <note Length="0.03125" Pitch="50" RiffPosition="5.15625" Velocity="0" />
      <note Length="0.015625" Pitch="48" RiffPosition="5.1875" Velocity="0" />
      <note Length="0.046875" Pitch="55" RiffPosition="5.203125" Velocity="0" />
      <note Length="0.03125" Pitch="60" RiffPosition="5.25" Velocity="0" />
      <note Length="0.03125" Pitch="50" RiffPosition="5.28125" Velocity="0" />
      <note Length="0.03125" Pitch="53" RiffPosition="5.3125" Velocity="0" />
      <note Length="0.03125" Pitch="60" RiffPosition="5.34375" Velocity="0" />
      <note Length="0.03125" Pitch="60" RiffPosition="5.375" Velocity="0" />
      <note Length="0.03125" Pitch="53" RiffPosition="5.40625" Velocity="0" />
      <note Length="0.015625" Pitch="53" RiffPosition="5.4375" Velocity="0" />
      <note Length="0.046875" Pitch="55" RiffPosition="5.453125" Velocity="0" />
      <note Length="0.03125" Pitch="58" RiffPosition="5.5" Velocity="0" />
      <note Length="0.03125" Pitch="51" RiffPosition="5.53125" Velocity="0" />
      <note Length="0.03125" Pitch="50" RiffPosition="5.5625" Velocity="0" />
      <note Length="0.03125" Pitch="57" RiffPosition="5.59375" Velocity="0" />
      <note Length="0.03125" Pitch="58" RiffPosition="5.625" Velocity="0" />
      <note Length="0.03125" Pitch="48" RiffPosition="5.65625" Velocity="0" />
      <note Length="0.015625" Pitch="50" RiffPosition="5.6875" Velocity="0" />
      <note Length="0.046875" Pitch="55" RiffPosition="5.703125" Velocity="0" />
      <note Length="0.03125" Pitch="58" RiffPosition="5.75" Velocity="0" />
      <note Length="0.03125" Pitch="51" RiffPosition="5.78125" Velocity="0" />
      <note Length="0.03125" Pitch="51" RiffPosition="5.8125" Velocity="0" />
      <note Length="0.03125" Pitch="60" RiffPosition="5.84375" Velocity="0" />
      <note Length="0.03125" Pitch="62" RiffPosition="5.875" Velocity="0" />
      <note Length="0.03125" Pitch="51" RiffPosition="5.90625" Velocity="0" />
      <note Length="0.015625" Pitch="53" RiffPosition="5.9375" Velocity="0" />
      <note Length="0.046875" Pitch="57" RiffPosition="5.953125" Velocity="0" />
      <note Length="0.03125" Pitch="58" RiffPosition="6" Velocity="0" />
      <note Length="0.03125" Pitch="51" RiffPosition="6.03125" Velocity="0" />
      <note Length="0.03125" Pitch="48" RiffPosition="6.0625" Velocity="0" />
      <note Length="0.03125" Pitch="58" RiffPosition="6.09375" Velocity="0" />
      <note Length="0.03125" Pitch="58" RiffPosition="6.125" Velocity="0" />
      <note Length="0.03125" Pitch="50" RiffPosition="6.15625" Velocity="0" />
      <note Length="0.015625" Pitch="50" RiffPosition="6.1875" Velocity="0" />
      <note Length="0.046875" Pitch="55" RiffPosition="6.203125" Velocity="0" />
      <note Length="0.03125" Pitch="58" RiffPosition="6.25" Velocity="0" />
      <note Length="0.03125" Pitch="53" RiffPosition="6.28125" Velocity="0" />
      <note Length="0.03125" Pitch="53" RiffPosition="6.3125" Velocity="0" />
      <note Length="0.03125" Pitch="60" RiffPosition="6.34375" Velocity="0" />
      <note Length="0.03125" Pitch="60" RiffPosition="6.375" Velocity="0" />
      <note Length="0.03125" Pitch="53" RiffPosition="6.40625" Velocity="0" />
      <note Length="0.015625" Pitch="53" RiffPosition="6.4375" Velocity="0" />
      <note Length="0.046875" Pitch="55" RiffPosition="6.453125" Velocity="0" />
      <note Length="0.03125" Pitch="60" RiffPosition="6.5" Velocity="0" />
      <note Length="0.03125" Pitch="50" RiffPosition="6.53125" Velocity="0" />
      <note Length="0.03125" Pitch="50" RiffPosition="6.5625" Velocity="0" />
      <note Length="0.03125" Pitch="58" RiffPosition="6.59375" Velocity="0" />
      <note Length="0.03125" Pitch="57" RiffPosition="6.625" Velocity="0" />
      <note Length="0.03125" Pitch="50" RiffPosition="6.65625" Velocity="0" />
      <note Length="0.015625" Pitch="48" RiffPosition="6.6875" Velocity="0" />
      <note Length="0.046875" Pitch="53" RiffPosition="6.703125" Velocity="0" />
      <note Length="0.03125" Pitch="60" RiffPosition="6.75" Velocity="0" />
      <note Length="0.03125" Pitch="50" RiffPosition="6.78125" Velocity="0" />
      <note Length="0.03125" Pitch="53" RiffPosition="6.8125" Velocity="0" />
      <note Length="0.03125" Pitch="62" RiffPosition="6.84375" Velocity="0" />
      <note Length="0.03125" Pitch="60" RiffPosition="6.875" Velocity="0" />
      <note Length="0.03125" Pitch="53" RiffPosition="6.90625" Velocity="0" />
      <note Length="0.015625" Pitch="51" RiffPosition="6.9375" Velocity="0" />
      <note Length="0.046875" Pitch="55" RiffPosition="6.953125" Velocity="0" />
      <note Length="0.03125" Pitch="60" RiffPosition="7" Velocity="0" />
      <note Length="0.03125" Pitch="50" RiffPosition="7.03125" Velocity="0" />
      <note Length="0.03125" Pitch="50" RiffPosition="7.0625" Velocity="0" />
      <note Length="0.03125" Pitch="57" RiffPosition="7.09375" Velocity="0" />
      <note Length="0.03125" Pitch="58" RiffPosition="7.125" Velocity="0" />
      <note Length="0.03125" Pitch="50" RiffPosition="7.15625" Velocity="0" />
      <note Length="0.015625" Pitch="50" RiffPosition="7.1875" Velocity="0" />
      <note Length="0.046875" Pitch="55" RiffPosition="7.203125" Velocity="0" />
      <note Length="0.03125" Pitch="58" RiffPosition="7.25" Velocity="0" />
      <note Length="0.03125" Pitch="51" RiffPosition="7.28125" Velocity="0" />
      <note Length="0.03125" Pitch="53" RiffPosition="7.3125" Velocity="0" />
      <note Length="0.03125" Pitch="60" RiffPosition="7.34375" Velocity="0" />
      <note Length="0.03125" Pitch="60" RiffPosition="7.375" Velocity="0" />
      <note Length="0.03125" Pitch="51" RiffPosition="7.40625" Velocity="0" />
      <note Length="0.015625" Pitch="53" RiffPosition="7.4375" Velocity="0" />
      <note Length="0.046875" Pitch="55" RiffPosition="7.453125" Velocity="0" />
      <note Length="0.03125" Pitch="58" RiffPosition="7.5" Velocity="0" />
      <note Length="0.03125" Pitch="51" RiffPosition="7.53125" Velocity="0" />
      <note Length="0.03125" Pitch="48" RiffPosition="7.5625" Velocity="0" />
      <note Length="0.03125" Pitch="58" RiffPosition="7.59375" Velocity="0" />
      <note Length="0.03125" Pitch="58" RiffPosition="7.625" Velocity="0" />
      <note Length="0.03125" Pitch="48" RiffPosition="7.65625" Velocity="0" />
      <note Length="0.015625" Pitch="50" RiffPosition="7.6875" Velocity="0" />
      <note Length="0.046875" Pitch="55" RiffPosition="7.703125" Velocity="0" />
      <note Length="0.03125" Pitch="58" RiffPosition="7.75" Velocity="0" />
      <note Length="0.03125" Pitch="51" RiffPosition="7.78125" Velocity="0" />
      <note Length="0.03125" Pitch="51" RiffPosition="7.8125" Velocity="0" />
      <note Length="0.03125" Pitch="60" RiffPosition="7.84375" Velocity="0" />
      <note Length="0.03125" Pitch="62" RiffPosition="7.875" Velocity="0" />
      <note Length="0.03125" Pitch="53" RiffPosition="7.90625" Velocity="0" />
      <note Length="0.015625" Pitch="53" RiffPosition="7.9375" Velocity="0" />
      <note Length="0.046875" Pitch="57" RiffPosition="7.953125" Velocity="0" />
      <note Length="0.03125" Pitch="58" RiffPosition="8" Velocity="71" />
      <note Length="0.03125" Pitch="53" RiffPosition="8.03125" Velocity="67" />
      <note Length="0.03125" Pitch="50" RiffPosition="8.0625" Velocity="90" />
      <note Length="0.03125" Pitch="58" RiffPosition="8.09375" Velocity="98" />
      <note Length="0.03125" Pitch="57" RiffPosition="8.125" Velocity="70" />
      <note Length="0.03125" Pitch="50" RiffPosition="8.15625" Velocity="39" />
      <note Length="0.015625" Pitch="50" RiffPosition="8.1875" Velocity="41" />
      <note Length="0.046875" Pitch="53" RiffPosition="8.203125" Velocity="50" />
      <note Length="0.03125" Pitch="60" RiffPosition="8.25" Velocity="42" />
      <note Length="0.03125" Pitch="50" RiffPosition="8.28125" Velocity="74" />
      <note Length="0.03125" Pitch="53" RiffPosition="8.3125" Velocity="70" />
      <note Length="0.03125" Pitch="62" RiffPosition="8.34375" Velocity="65" />
      <note Length="0.03125" Pitch="60" RiffPosition="8.375" Velocity="91" />
      <note Length="0.03125" Pitch="53" RiffPosition="8.40625" Velocity="103" />
      <note Length="0.015625" Pitch="51" RiffPosition="8.4375" Velocity="64" />
      <note Length="0.046875" Pitch="55" RiffPosition="8.453125" Velocity="49" />
      <note Length="0.03125" Pitch="60" RiffPosition="8.5" Velocity="38" />
      <note Length="0.03125" Pitch="50" RiffPosition="8.53125" Velocity="42" />
      <note Length="0.03125" Pitch="50" RiffPosition="8.5625" Velocity="47" />
      <note Length="0.03125" Pitch="58" RiffPosition="8.59375" Velocity="73" />
      <note Length="0.03125" Pitch="57" RiffPosition="8.625" Velocity="61" />
      <note Length="0.03125" Pitch="50" RiffPosition="8.65625" Velocity="57" />
      <note Length="0.015625" Pitch="48" RiffPosition="8.6875" Velocity="77" />
      <note Length="0.046875" Pitch="55" RiffPosition="8.703125" Velocity="85" />
      <note Length="0.03125" Pitch="60" RiffPosition="8.75" Velocity="62" />
      <note Length="0.03125" Pitch="50" RiffPosition="8.78125" Velocity="30" />
      <note Length="0.03125" Pitch="53" RiffPosition="8.8125" Velocity="34" />
      <note Length="0.03125" Pitch="60" RiffPosition="8.84375" Velocity="39" />
      <note Length="0.03125" Pitch="60" RiffPosition="8.875" Velocity="39" />
      <note Length="0.03125" Pitch="53" RiffPosition="8.90625" Velocity="61" />
      <note Length="0.015625" Pitch="53" RiffPosition="8.9375" Velocity="48" />
      <note Length="0.046875" Pitch="55" RiffPosition="8.953125" Velocity="43" />
      <note Length="0.03125" Pitch="58" RiffPosition="9" Velocity="57" />
      <note Length="0.03125" Pitch="51" RiffPosition="9.03125" Velocity="79" />
      <note Length="0.03125" Pitch="50" RiffPosition="9.0625" Velocity="62" />
      <note Length="0.03125" Pitch="57" RiffPosition="9.09375" Velocity="33" />
      <note Length="0.03125" Pitch="58" RiffPosition="9.125" Velocity="38" />
      <note Length="0.03125" Pitch="48" RiffPosition="9.15625" Velocity="52" />
      <note Length="0.015625" Pitch="50" RiffPosition="9.1875" Velocity="32" />
      <note Length="0.046875" Pitch="55" RiffPosition="9.203125" Velocity="45" />
      <note Length="0.03125" Pitch="58" RiffPosition="9.25" Velocity="30" />
      <note Length="0.03125" Pitch="51" RiffPosition="9.28125" Velocity="44" />
      <note Length="0.03125" Pitch="51" RiffPosition="9.3125" Velocity="46" />
      <note Length="0.03125" Pitch="60" RiffPosition="9.34375" Velocity="68" />
      <note Length="0.03125" Pitch="62" RiffPosition="9.375" Velocity="59" />
      <note Length="0.03125" Pitch="51" RiffPosition="9.40625" Velocity="43" />
      <note Length="0.015625" Pitch="53" RiffPosition="9.4375" Velocity="56" />
      <note Length="0.046875" Pitch="57" RiffPosition="9.453125" Velocity="70" />
      <note Length="0.03125" Pitch="58" RiffPosition="9.5" Velocity="47" />
      <note Length="0.03125" Pitch="51" RiffPosition="9.53125" Velocity="34" />
      <note Length="0.03125" Pitch="48" RiffPosition="9.5625" Velocity="45" />
      <note Length="0.03125" Pitch="58" RiffPosition="9.59375" Velocity="54" />
      <note Length="0.03125" Pitch="58" RiffPosition="9.625" Velocity="35" />
      <note Length="0.03125" Pitch="50" RiffPosition="9.65625" Velocity="65" />
      <note Length="0.015625" Pitch="50" RiffPosition="9.6875" Velocity="63" />
      <note Length="0.046875" Pitch="55" RiffPosition="9.703125" Velocity="54" />
      <note Length="0.03125" Pitch="58" RiffPosition="9.75" Velocity="78" />
      <note Length="0.03125" Pitch="53" RiffPosition="9.78125" Velocity="84" />
      <note Length="0.03125" Pitch="53" RiffPosition="9.8125" Velocity="63" />
      <note Length="0.03125" Pitch="60" RiffPosition="9.84375" Velocity="40" />
      <note Length="0.03125" Pitch="60" RiffPosition="9.875" Velocity="49" />
      <note Length="0.03125" Pitch="53" RiffPosition="9.90625" Velocity="55" />
      <note Length="0.015625" Pitch="53" RiffPosition="9.9375" Velocity="36" />
      <note Length="0.046875" Pitch="55" RiffPosition="9.953125" Velocity="59" />
      <note Length="0.03125" Pitch="60" RiffPosition="10" Velocity="70" />
      <note Length="0.03125" Pitch="50" RiffPosition="10.03125" Velocity="66" />
      <note Length="0.03125" Pitch="50" RiffPosition="10.0625" Velocity="89" />
      <note Length="0.03125" Pitch="58" RiffPosition="10.09375" Velocity="98" />
      <note Length="0.03125" Pitch="57" RiffPosition="10.125" Velocity="69" />
      <note Length="0.03125" Pitch="50" RiffPosition="10.15625" Velocity="39" />
      <note Length="0.015625" Pitch="48" RiffPosition="10.1875" Velocity="41" />
      <note Length="0.046875" Pitch="53" RiffPosition="10.203125" Velocity="49" />
      <note Length="0.03125" Pitch="60" RiffPosition="10.25" Velocity="43" />
      <note Length="0.03125" Pitch="50" RiffPosition="10.28125" Velocity="75" />
      <note Length="0.03125" Pitch="53" RiffPosition="10.3125" Velocity="71" />
      <note Length="0.03125" Pitch="62" RiffPosition="10.34375" Velocity="65" />
      <note Length="0.03125" Pitch="60" RiffPosition="10.375" Velocity="92" />
      <note Length="0.03125" Pitch="53" RiffPosition="10.40625" Velocity="103" />
      <note Length="0.015625" Pitch="51" RiffPosition="10.4375" Velocity="64" />
      <note Length="0.046875" Pitch="55" RiffPosition="10.453125" Velocity="50" />
      <note Length="0.03125" Pitch="60" RiffPosition="10.5" Velocity="38" />
      <note Length="0.03125" Pitch="50" RiffPosition="10.53125" Velocity="42" />
      <note Length="0.03125" Pitch="50" RiffPosition="10.5625" Velocity="46" />
      <note Length="0.03125" Pitch="57" RiffPosition="10.59375" Velocity="72" />
      <note Length="0.03125" Pitch="58" RiffPosition="10.625" Velocity="61" />
      <note Length="0.03125" Pitch="50" RiffPosition="10.65625" Velocity="56" />
      <note Length="0.015625" Pitch="50" RiffPosition="10.6875" Velocity="76" />
      <note Length="0.046875" Pitch="55" RiffPosition="10.703125" Velocity="84" />
      <note Length="0.03125" Pitch="58" RiffPosition="10.75" Velocity="61" />
      <note Length="0.03125" Pitch="51" RiffPosition="10.78125" Velocity="31" />
      <note Length="0.03125" Pitch="53" RiffPosition="10.8125" Velocity="33" />
      <note Length="0.03125" Pitch="60" RiffPosition="10.84375" Velocity="38" />
      <note Length="0.03125" Pitch="60" RiffPosition="10.875" Velocity="39" />
      <note Length="0.03125" Pitch="51" RiffPosition="10.90625" Velocity="62" />
      <note Length="0.015625" Pitch="53" RiffPosition="10.9375" Velocity="49" />
      <note Length="0.046875" Pitch="55" RiffPosition="10.953125" Velocity="43" />
      <note Length="0.03125" Pitch="58" RiffPosition="11" Velocity="58" />
      <note Length="0.03125" Pitch="51" RiffPosition="11.03125" Velocity="79" />
      <note Length="0.03125" Pitch="50" RiffPosition="11.0625" Velocity="62" />
      <note Length="0.03125" Pitch="58" RiffPosition="11.09375" Velocity="32" />
      <note Length="0.03125" Pitch="58" RiffPosition="11.125" Velocity="39" />
      <note Length="0.03125" Pitch="48" RiffPosition="11.15625" Velocity="52" />
      <note Length="0.015625" Pitch="50" RiffPosition="11.1875" Velocity="32" />
      <note Length="0.046875" Pitch="55" RiffPosition="11.203125" Velocity="45" />
      <note Length="0.03125" Pitch="58" RiffPosition="11.25" Velocity="30" />
      <note Length="0.03125" Pitch="51" RiffPosition="11.28125" Velocity="45" />
      <note Length="0.03125" Pitch="51" RiffPosition="11.3125" Velocity="45" />
      <note Length="0.03125" Pitch="60" RiffPosition="11.34375" Velocity="68" />
      <note Length="0.03125" Pitch="62" RiffPosition="11.375" Velocity="59" />
      <note Length="0.03125" Pitch="53" RiffPosition="11.40625" Velocity="42" />
      <note Length="0.015625" Pitch="53" RiffPosition="11.4375" Velocity="55" />
      <note Length="0.046875" Pitch="57" RiffPosition="11.453125" Velocity="69" />
      <note Length="0.03125" Pitch="58" RiffPosition="11.5" Velocity="46" />
      <note Length="0.03125" Pitch="53" RiffPosition="11.53125" Velocity="34" />
      <note Length="0.03125" Pitch="50" RiffPosition="11.5625" Velocity="45" />
      <note Length="0.03125" Pitch="58" RiffPosition="11.59375" Velocity="53" />
      <note Length="0.03125" Pitch="57" RiffPosition="11.625" Velocity="35" />
      <note Length="0.03125" Pitch="50" RiffPosition="11.65625" Velocity="66" />
      <note Length="0.015625" Pitch="50" RiffPosition="11.6875" Velocity="63" />
      <note Length="0.046875" Pitch="53" RiffPosition="11.703125" Velocity="55" />
      <note Length="0.03125" Pitch="60" RiffPosition="11.75" Velocity="70" />
      <note Length="0.03125" Pitch="50" RiffPosition="11.78125" Velocity="85" />
      <note Length="0.03125" Pitch="53" RiffPosition="11.8125" Velocity="63" />
      <note Length="0.03125" Pitch="62" RiffPosition="11.84375" Velocity="41" />
      <note Length="0.03125" Pitch="60" RiffPosition="11.875" Velocity="50" />
      <note Length="0.03125" Pitch="53" RiffPosition="11.90625" Velocity="55" />
      <note Length="0.015625" Pitch="53" RiffPosition="11.9375" Velocity="35" />
      <note Length="0.046875" Pitch="55" RiffPosition="11.953125" Velocity="58" />
      <note Length="0.03125" Pitch="60" RiffPosition="12" Velocity="70" />
      <note Length="0.03125" Pitch="50" RiffPosition="12.03125" Velocity="66" />
      <note Length="0.03125" Pitch="50" RiffPosition="12.0625" Velocity="89" />
      <note Length="0.03125" Pitch="58" RiffPosition="12.09375" Velocity="97" />
      <note Length="0.03125" Pitch="57" RiffPosition="12.125" Velocity="69" />
      <note Length="0.03125" Pitch="50" RiffPosition="12.15625" Velocity="38" />
      <note Length="0.015625" Pitch="48" RiffPosition="12.1875" Velocity="49" />
      <note Length="0.046875" Pitch="55" RiffPosition="12.203125" Velocity="49" />
      <note Length="0.03125" Pitch="60" RiffPosition="12.25" Velocity="43" />
      <note Length="0.03125" Pitch="50" RiffPosition="12.28125" Velocity="75" />
      <note Length="0.03125" Pitch="53" RiffPosition="12.3125" Velocity="71" />
      <note Length="0.03125" Pitch="60" RiffPosition="12.34375" Velocity="66" />
      <note Length="0.03125" Pitch="60" RiffPosition="12.375" Velocity="92" />
      <note Length="0.03125" Pitch="53" RiffPosition="12.40625" Velocity="95" />
      <note Length="0.015625" Pitch="53" RiffPosition="12.4375" Velocity="65" />
      <note Length="0.046875" Pitch="55" RiffPosition="12.453125" Velocity="50" />
      <note Length="0.03125" Pitch="58" RiffPosition="12.5" Velocity="39" />
      <note Length="0.03125" Pitch="50" RiffPosition="12.53125" Velocity="43" />
      <note Length="0.03125" Pitch="50" RiffPosition="12.5625" Velocity="46" />
      <note Length="0.03125" Pitch="57" RiffPosition="12.59375" Velocity="72" />
      <note Length="0.03125" Pitch="58" RiffPosition="12.625" Velocity="69" />
      <note Length="0.03125" Pitch="48" RiffPosition="12.65625" Velocity="56" />
      <note Length="0.015625" Pitch="50" RiffPosition="12.6875" Velocity="76" />
      <note Length="0.046875" Pitch="55" RiffPosition="12.703125" Velocity="84" />
      <note Length="0.03125" Pitch="58" RiffPosition="12.75" Velocity="60" />
      <note Length="0.03125" Pitch="51" RiffPosition="12.78125" Velocity="31" />
      <note Length="0.03125" Pitch="53" RiffPosition="12.8125" Velocity="33" />
      <note Length="0.03125" Pitch="60" RiffPosition="12.84375" Velocity="47" />
      <note Length="0.03125" Pitch="60" RiffPosition="12.875" Velocity="40" />
      <note Length="0.03125" Pitch="51" RiffPosition="12.90625" Velocity="62" />
      <note Length="0.015625" Pitch="53" RiffPosition="12.9375" Velocity="49" />
      <note Length="0.046875" Pitch="57" RiffPosition="12.953125" Velocity="35" />
      <note Length="0.03125" Pitch="58" RiffPosition="13" Velocity="0" />
      <note Length="0.03125" Pitch="51" RiffPosition="13.03125" Velocity="0" />
      <note Length="0.03125" Pitch="48" RiffPosition="13.0625" Velocity="0" />
      <note Length="0.03125" Pitch="58" RiffPosition="13.09375" Velocity="0" />
      <note Length="0.03125" Pitch="58" RiffPosition="13.125" Velocity="0" />
      <note Length="0.03125" Pitch="50" RiffPosition="13.15625" Velocity="0" />
      <note Length="0.015625" Pitch="50" RiffPosition="13.1875" Velocity="0" />
      <note Length="0.046875" Pitch="55" RiffPosition="13.203125" Velocity="0" />
      <note Length="0.03125" Pitch="58" RiffPosition="13.25" Velocity="0" />
      <note Length="0.03125" Pitch="53" RiffPosition="13.28125" Velocity="0" />
      <note Length="0.03125" Pitch="53" RiffPosition="13.3125" Velocity="0" />
      <note Length="0.03125" Pitch="60" RiffPosition="13.34375" Velocity="0" />
      <note Length="0.03125" Pitch="60" RiffPosition="13.375" Velocity="0" />
      <note Length="0.03125" Pitch="53" RiffPosition="13.40625" Velocity="0" />
      <note Length="0.015625" Pitch="53" RiffPosition="13.4375" Velocity="0" />
      <note Length="0.046875" Pitch="55" RiffPosition="13.453125" Velocity="0" />
      <note Length="0.03125" Pitch="60" RiffPosition="13.5" Velocity="0" />
      <note Length="0.03125" Pitch="50" RiffPosition="13.53125" Velocity="0" />
      <note Length="0.03125" Pitch="50" RiffPosition="13.5625" Velocity="0" />
      <note Length="0.03125" Pitch="58" RiffPosition="13.59375" Velocity="0" />
      <note Length="0.03125" Pitch="57" RiffPosition="13.625" Velocity="0" />
      <note Length="0.03125" Pitch="50" RiffPosition="13.65625" Velocity="0" />
      <note Length="0.015625" Pitch="50" RiffPosition="13.6875" Velocity="0" />
      <note Length="0.046875" Pitch="53" RiffPosition="13.703125" Velocity="0" />
      <note Length="0.03125" Pitch="60" RiffPosition="13.75" Velocity="0" />
      <note Length="0.03125" Pitch="50" RiffPosition="13.78125" Velocity="0" />
      <note Length="0.03125" Pitch="53" RiffPosition="13.8125" Velocity="0" />
      <note Length="0.03125" Pitch="62" RiffPosition="13.84375" Velocity="0" />
      <note Length="0.03125" Pitch="60" RiffPosition="13.875" Velocity="0" />
      <note Length="0.03125" Pitch="53" RiffPosition="13.90625" Velocity="0" />
      <note Length="0.015625" Pitch="51" RiffPosition="13.9375" Velocity="0" />
      <note Length="0.046875" Pitch="55" RiffPosition="13.953125" Velocity="0" />
    </riff>
    <riff IsDrum="False" MidiInstrument="89" Tempo="132" Length="14">
      <note Length="1" Pitch="48" RiffPosition="0" Velocity="0" />
      <note Length="1" Pitch="43" RiffPosition="1" Velocity="0" />
      <note Length="1" Pitch="36" RiffPosition="2" Velocity="90" />
      <note Length="1" Pitch="33" RiffPosition="3" Velocity="90" />
      <note Length="0.5" Pitch="36" RiffPosition="4" Velocity="90" />
      <note Length="0.5" Pitch="41" RiffPosition="4.5" Velocity="90" />
      <note Length="0.125" Pitch="43" RiffPosition="5" Velocity="90" />
      <note Length="0.375" Pitch="43" RiffPosition="5.125" Velocity="90" />
      <note Length="0.25" Pitch="46" RiffPosition="5.5" Velocity="90" />
      <note Length="0.25" Pitch="48" RiffPosition="5.75" Velocity="90" />
      <note Length="0.25" Pitch="50" RiffPosition="6" Velocity="90" />
      <note Length="0.25" Pitch="51" RiffPosition="6.25" Velocity="90" />
      <note Length="0.25" Pitch="51" RiffPosition="6.5" Velocity="90" />
      <note Length="0.25" Pitch="51" RiffPosition="6.75" Velocity="90" />
      <note Length="0.5" Pitch="53" RiffPosition="7" Velocity="90" />
      <note Length="0.125" Pitch="51" RiffPosition="7.5" Velocity="90" />
      <note Length="0.375" Pitch="51" RiffPosition="7.625" Velocity="90" />
      <note Length="1" Pitch="48" RiffPosition="8" Velocity="90" />
      <note Length="1" Pitch="43" RiffPosition="9" Velocity="90" />
      <note Length="1" Pitch="38" RiffPosition="10" Velocity="90" />
      <note Length="1" Pitch="33" RiffPosition="11" Velocity="90" />
      <note Length="0.5" Pitch="38" RiffPosition="12" Velocity="90" />
      <note Length="0.5" Pitch="41" RiffPosition="12.5" Velocity="90" />
      <note Length="0.125" Pitch="43" RiffPosition="13" Velocity="90" />
      <note Length="0.375" Pitch="43" RiffPosition="13.125" Velocity="90" />
      <note Length="0.25" Pitch="46" RiffPosition="13.5" Velocity="90" />
      <note Length="0.25" Pitch="48" RiffPosition="13.75" Velocity="90" />
    </riff>
    <riff IsDrum="False" MidiInstrument="94" Tempo="105" Length="14">
      <note Length="3" Pitch="58" RiffPosition="0" Velocity="0" />
      <note Length="1" Pitch="53" RiffPosition="3" Velocity="90" />
      <note Length="0.75" Pitch="51" RiffPosition="4" Velocity="90" />
      <note Length="0.25" Pitch="55" RiffPosition="4.75" Velocity="90" />
      <note Length="1.5" Pitch="55" RiffPosition="5" Velocity="90" />
      <note Length="1.5" Pitch="55" RiffPosition="6.5" Velocity="90" />
      <note Length="3" Pitch="50" RiffPosition="8" Velocity="90" />
      <note Length="1" Pitch="53" RiffPosition="11" Velocity="90" />
      <note Length="0.75" Pitch="60" RiffPosition="12" Velocity="90" />
      <note Length="0.25" Pitch="63" RiffPosition="12.75" Velocity="90" />
      <note Length="1" Pitch="65" RiffPosition="13" Velocity="90" />
    </riff>
    <riff IsDrum="False" MidiInstrument="29" Tempo="98" Length="14">
      <note Length="0.0625" Pitch="57" RiffPosition="0" Velocity="0" />
      <note Length="0.0625" Pitch="55" RiffPosition="0.0625" Velocity="0" />
      <note Length="0.0625" Pitch="51" RiffPosition="0.125" Velocity="0" />
      <note Length="0.0208333333333333" Pitch="55" RiffPosition="0.1875" Velocity="0" />
      <note Length="0.0208333333333333" Pitch="55" RiffPosition="0.208333333333333" Velocity="0" />
      <note Length="0.0208333333333333" Pitch="58" RiffPosition="0.229166666666667" Velocity="0" />
      <note Length="0.0416666666666667" Pitch="57" RiffPosition="0.25" Velocity="0" />
      <note Length="0.0208333333333333" Pitch="55" RiffPosition="0.291666666666667" Velocity="0" />
      <note Length="0.0208333333333333" Pitch="55" RiffPosition="0.3125" Velocity="0" />
      <note Length="0.0416666666666667" Pitch="55" RiffPosition="0.333333333333333" Velocity="0" />
      <note Length="0.0078125" Pitch="53" RiffPosition="0.375" Velocity="0" />
      <note Length="0.0234375" Pitch="53" RiffPosition="0.3828125" Velocity="0" />
      <note Length="0.09375" Pitch="50" RiffPosition="0.40625" Velocity="0" />
      <note Length="0.25" Pitch="55" RiffPosition="0.5" Velocity="0" />
      <note Length="0.25" Pitch="53" RiffPosition="0.75" Velocity="0" />
      <note Length="0.0625" Pitch="55" RiffPosition="1" Velocity="0" />
      <note Length="0.0625" Pitch="51" RiffPosition="1.0625" Velocity="0" />
      <note Length="0.0625" Pitch="48" RiffPosition="1.125" Velocity="0" />
      <note Length="0.0208333333333333" Pitch="55" RiffPosition="1.1875" Velocity="0" />
      <note Length="0.0208333333333333" Pitch="55" RiffPosition="1.20833333333333" Velocity="0" />
      <note Length="0.0208333333333333" Pitch="58" RiffPosition="1.22916666666667" Velocity="0" />
      <note Length="0.0416666666666667" Pitch="58" RiffPosition="1.25" Velocity="0" />
      <note Length="0.0208333333333333" Pitch="60" RiffPosition="1.29166666666667" Velocity="0" />
      <note Length="0.0208333333333333" Pitch="55" RiffPosition="1.3125" Velocity="0" />
      <note Length="0.0416666666666667" Pitch="58" RiffPosition="1.33333333333333" Velocity="0" />
      <note Length="0.0078125" Pitch="55" RiffPosition="1.375" Velocity="0" />
      <note Length="0.0234375" Pitch="57" RiffPosition="1.3828125" Velocity="0" />
      <note Length="0.09375" Pitch="55" RiffPosition="1.40625" Velocity="0" />
      <note Length="0.25" Pitch="58" RiffPosition="1.5" Velocity="0" />
      <note Length="0.25" Pitch="45" RiffPosition="1.75" Velocity="0" />
      <note Length="0.0625" Pitch="58" RiffPosition="2" Velocity="0" />
      <note Length="0.0625" Pitch="55" RiffPosition="2.0625" Velocity="0" />
      <note Length="0.0625" Pitch="53" RiffPosition="2.125" Velocity="0" />
      <note Length="0.0208333333333333" Pitch="53" RiffPosition="2.1875" Velocity="0" />
      <note Length="0.0208333333333333" Pitch="55" RiffPosition="2.20833333333333" Velocity="0" />
      <note Length="0.0208333333333333" Pitch="55" RiffPosition="2.22916666666667" Velocity="0" />
      <note Length="0.0416666666666667" Pitch="58" RiffPosition="2.25" Velocity="0" />
      <note Length="0.0208333333333333" Pitch="55" RiffPosition="2.29166666666667" Velocity="0" />
      <note Length="0.0208333333333333" Pitch="53" RiffPosition="2.3125" Velocity="0" />
      <note Length="0.0416666666666667" Pitch="55" RiffPosition="2.33333333333333" Velocity="0" />
      <note Length="0.0078125" Pitch="55" RiffPosition="2.375" Velocity="0" />
      <note Length="0.0234375" Pitch="55" RiffPosition="2.3828125" Velocity="0" />
      <note Length="0.09375" Pitch="51" RiffPosition="2.40625" Velocity="0" />
      <note Length="0.25" Pitch="55" RiffPosition="2.5" Velocity="0" />
      <note Length="0.25" Pitch="48" RiffPosition="2.75" Velocity="0" />
      <note Length="0.0625" Pitch="55" RiffPosition="3" Velocity="0" />
      <note Length="0.0625" Pitch="53" RiffPosition="3.0625" Velocity="0" />
      <note Length="0.0625" Pitch="48" RiffPosition="3.125" Velocity="0" />
      <note Length="0.0208333333333333" Pitch="53" RiffPosition="3.1875" Velocity="0" />
      <note Length="0.0208333333333333" Pitch="55" RiffPosition="3.20833333333333" Velocity="0" />
      <note Length="0.0208333333333333" Pitch="55" RiffPosition="3.22916666666667" Velocity="0" />
      <note Length="0.0416666666666667" Pitch="58" RiffPosition="3.25" Velocity="0" />
      <note Length="0.0208333333333333" Pitch="60" RiffPosition="3.29166666666667" Velocity="0" />
      <note Length="0.0208333333333333" Pitch="57" RiffPosition="3.3125" Velocity="0" />
      <note Length="0.0416666666666667" Pitch="58" RiffPosition="3.33333333333333" Velocity="0" />
      <note Length="0.0078125" Pitch="58" RiffPosition="3.375" Velocity="0" />
      <note Length="0.0234375" Pitch="55" RiffPosition="3.3828125" Velocity="0" />
      <note Length="0.09375" Pitch="55" RiffPosition="3.40625" Velocity="0" />
      <note Length="0.25" Pitch="60" RiffPosition="3.5" Velocity="0" />
      <note Length="0.25" Pitch="45" RiffPosition="3.75" Velocity="0" />
      <note Length="0.0625" Pitch="58" RiffPosition="4" Velocity="0" />
      <note Length="0.0625" Pitch="53" RiffPosition="4.0625" Velocity="0" />
      <note Length="0.0625" Pitch="53" RiffPosition="4.125" Velocity="0" />
      <note Length="0.0208333333333333" Pitch="53" RiffPosition="4.1875" Velocity="0" />
      <note Length="0.0208333333333333" Pitch="55" RiffPosition="4.20833333333333" Velocity="0" />
      <note Length="0.0208333333333333" Pitch="55" RiffPosition="4.22916666666667" Velocity="0" />
      <note Length="0.0416666666666667" Pitch="58" RiffPosition="4.25" Velocity="0" />
      <note Length="0.0208333333333333" Pitch="58" RiffPosition="4.29166666666667" Velocity="0" />
      <note Length="0.0208333333333333" Pitch="55" RiffPosition="4.3125" Velocity="0" />
      <note Length="0.0416666666666667" Pitch="55" RiffPosition="4.33333333333333" Velocity="0" />
      <note Length="0.0078125" Pitch="55" RiffPosition="4.375" Velocity="0" />
      <note Length="0.0234375" Pitch="51" RiffPosition="4.3828125" Velocity="0" />
      <note Length="0.09375" Pitch="53" RiffPosition="4.40625" Velocity="0" />
      <note Length="0.25" Pitch="53" RiffPosition="4.5" Velocity="0" />
      <note Length="0.25" Pitch="50" RiffPosition="4.75" Velocity="0" />
      <note Length="0.0625" Pitch="55" RiffPosition="5" Velocity="0" />
      <note Length="0.0625" Pitch="48" RiffPosition="5.0625" Velocity="0" />
      <note Length="0.0625" Pitch="50" RiffPosition="5.125" Velocity="0" />
      <note Length="0.0208333333333333" Pitch="55" RiffPosition="5.1875" Velocity="0" />
      <note Length="0.0208333333333333" Pitch="57" RiffPosition="5.20833333333333" Velocity="0" />
      <note Length="0.0208333333333333" Pitch="55" RiffPosition="5.22916666666667" Velocity="0" />
      <note Length="0.0416666666666667" Pitch="60" RiffPosition="5.25" Velocity="0" />
      <note Length="0.0208333333333333" Pitch="58" RiffPosition="5.29166666666667" Velocity="0" />
      <note Length="0.0208333333333333" Pitch="58" RiffPosition="5.3125" Velocity="0" />
      <note Length="0.0416666666666667" Pitch="55" RiffPosition="5.33333333333333" Velocity="0" />
      <note Length="0.0078125" Pitch="55" RiffPosition="5.375" Velocity="0" />
      <note Length="0.0234375" Pitch="55" RiffPosition="5.3828125" Velocity="0" />
      <note Length="0.09375" Pitch="55" RiffPosition="5.40625" Velocity="0" />
      <note Length="0.25" Pitch="57" RiffPosition="5.5" Velocity="0" />
      <note Length="0.25" Pitch="48" RiffPosition="5.75" Velocity="0" />
      <note Length="0.0625" Pitch="60" RiffPosition="6" Velocity="0" />
      <note Length="0.0625" Pitch="53" RiffPosition="6.0625" Velocity="0" />
      <note Length="0.0625" Pitch="55" RiffPosition="6.125" Velocity="0" />
      <note Length="0.0208333333333333" Pitch="55" RiffPosition="6.1875" Velocity="0" />
      <note Length="0.0208333333333333" Pitch="53" RiffPosition="6.20833333333333" Velocity="0" />
      <note Length="0.0208333333333333" Pitch="55" RiffPosition="6.22916666666667" Velocity="0" />
      <note Length="0.0416666666666667" Pitch="55" RiffPosition="6.25" Velocity="0" />
      <note Length="0.0208333333333333" Pitch="55" RiffPosition="6.29166666666667" Velocity="0" />
      <note Length="0.0208333333333333" Pitch="55" RiffPosition="6.3125" Velocity="0" />
      <note Length="0.0416666666666667" Pitch="53" RiffPosition="6.33333333333333" Velocity="0" />
      <note Length="0.0078125" Pitch="53" RiffPosition="6.375" Velocity="0" />
      <note Length="0.0234375" Pitch="53" RiffPosition="6.3828125" Velocity="0" />
      <note Length="0.09375" Pitch="50" RiffPosition="6.40625" Velocity="0" />
      <note Length="0.25" Pitch="55" RiffPosition="6.5" Velocity="0" />
      <note Length="0.25" Pitch="51" RiffPosition="6.75" Velocity="0" />
      <note Length="0.0625" Pitch="57" RiffPosition="7" Velocity="0" />
      <note Length="0.0625" Pitch="50" RiffPosition="7.0625" Velocity="0" />
      <note Length="0.0625" Pitch="46" RiffPosition="7.125" Velocity="0" />
      <note Length="0.0208333333333333" Pitch="55" RiffPosition="7.1875" Velocity="0" />
      <note Length="0.0208333333333333" Pitch="55" RiffPosition="7.20833333333333" Velocity="0" />
      <note Length="0.0208333333333333" Pitch="57" RiffPosition="7.22916666666666" Velocity="0" />
      <note Length="0.0416666666666667" Pitch="55" RiffPosition="7.25" Velocity="0" />
      <note Length="0.0208333333333333" Pitch="58" RiffPosition="7.29166666666666" Velocity="0" />
      <note Length="0.0208333333333333" Pitch="60" RiffPosition="7.3125" Velocity="0" />
      <note Length="0.0416666666666667" Pitch="55" RiffPosition="7.33333333333333" Velocity="0" />
      <note Length="0.0078125" Pitch="55" RiffPosition="7.375" Velocity="0" />
      <note Length="0.0234375" Pitch="55" RiffPosition="7.3828125" Velocity="0" />
      <note Length="0.09375" Pitch="53" RiffPosition="7.40625" Velocity="0" />
      <note Length="0.25" Pitch="58" RiffPosition="7.5" Velocity="0" />
      <note Length="0.25" Pitch="48" RiffPosition="7.75" Velocity="0" />
      <note Length="0.0625" Pitch="55" RiffPosition="8" Velocity="0" />
      <note Length="0.0625" Pitch="55" RiffPosition="8.0625" Velocity="56" />
      <note Length="0.0625" Pitch="51" RiffPosition="8.125" Velocity="41" />
      <note Length="0.0208333333333333" Pitch="55" RiffPosition="8.1875" Velocity="41" />
      <note Length="0.0208333333333333" Pitch="55" RiffPosition="8.20833333333333" Velocity="57" />
      <note Length="0.0208333333333333" Pitch="58" RiffPosition="8.22916666666666" Velocity="44" />
      <note Length="0.0416666666666667" Pitch="57" RiffPosition="8.25" Velocity="48" />
      <note Length="0.0208333333333333" Pitch="55" RiffPosition="8.29166666666666" Velocity="60" />
      <note Length="0.0208333333333333" Pitch="57" RiffPosition="8.3125" Velocity="37" />
      <note Length="0.0416666666666667" Pitch="55" RiffPosition="8.33333333333333" Velocity="51" />
      <note Length="0.0078125" Pitch="55" RiffPosition="8.375" Velocity="37" />
      <note Length="0.0234375" Pitch="53" RiffPosition="8.3828125" Velocity="44" />
      <note Length="0.09375" Pitch="50" RiffPosition="8.40625" Velocity="53" />
      <note Length="0.25" Pitch="55" RiffPosition="8.5" Velocity="45" />
      <note Length="0.25" Pitch="53" RiffPosition="8.75" Velocity="59" />
      <note Length="0.0625" Pitch="55" RiffPosition="9" Velocity="74" />
      <note Length="0.0625" Pitch="51" RiffPosition="9.0625" Velocity="47" />
      <note Length="0.0625" Pitch="48" RiffPosition="9.125" Velocity="59" />
      <note Length="0.0208333333333333" Pitch="55" RiffPosition="9.1875" Velocity="81" />
      <note Length="0.0208333333333333" Pitch="55" RiffPosition="9.20833333333333" Velocity="68" />
      <note Length="0.0208333333333333" Pitch="58" RiffPosition="9.22916666666667" Velocity="73" />
      <note Length="0.0416666666666667" Pitch="58" RiffPosition="9.25" Velocity="88" />
      <note Length="0.0208333333333333" Pitch="58" RiffPosition="9.29166666666667" Velocity="87" />
      <note Length="0.0208333333333333" Pitch="55" RiffPosition="9.3125" Velocity="57" />
      <note Length="0.0416666666666667" Pitch="57" RiffPosition="9.33333333333333" Velocity="39" />
      <note Length="0.0078125" Pitch="55" RiffPosition="9.375" Velocity="36" />
      <note Length="0.0234375" Pitch="57" RiffPosition="9.3828125" Velocity="39" />
      <note Length="0.09375" Pitch="55" RiffPosition="9.40625" Velocity="40" />
      <note Length="0.25" Pitch="60" RiffPosition="9.5" Velocity="90" />
      <note Length="0.25" Pitch="45" RiffPosition="9.75" Velocity="76" />
      <note Length="0.0625" Pitch="58" RiffPosition="10" Velocity="61" />
      <note Length="0.0625" Pitch="55" RiffPosition="10.0625" Velocity="57" />
      <note Length="0.0625" Pitch="53" RiffPosition="10.125" Velocity="41" />
      <note Length="0.0208333333333333" Pitch="53" RiffPosition="10.1875" Velocity="41" />
      <note Length="0.0208333333333333" Pitch="55" RiffPosition="10.2083333333333" Velocity="56" />
      <note Length="0.0208333333333333" Pitch="55" RiffPosition="10.2291666666667" Velocity="45" />
      <note Length="0.0416666666666667" Pitch="58" RiffPosition="10.25" Velocity="47" />
      <note Length="0.0208333333333333" Pitch="55" RiffPosition="10.2916666666667" Velocity="60" />
      <note Length="0.0208333333333333" Pitch="55" RiffPosition="10.3125" Velocity="37" />
      <note Length="0.0416666666666667" Pitch="55" RiffPosition="10.3333333333333" Velocity="51" />
      <note Length="0.0078125" Pitch="55" RiffPosition="10.375" Velocity="37" />
      <note Length="0.0234375" Pitch="55" RiffPosition="10.3828125" Velocity="44" />
      <note Length="0.09375" Pitch="51" RiffPosition="10.40625" Velocity="53" />
      <note Length="0.25" Pitch="55" RiffPosition="10.5" Velocity="45" />
      <note Length="0.25" Pitch="50" RiffPosition="10.75" Velocity="59" />
      <note Length="0.0625" Pitch="55" RiffPosition="11" Velocity="73" />
      <note Length="0.0625" Pitch="48" RiffPosition="11.0625" Velocity="47" />
      <note Length="0.0625" Pitch="50" RiffPosition="11.125" Velocity="59" />
      <note Length="0.0208333333333333" Pitch="53" RiffPosition="11.1875" Velocity="81" />
      <note Length="0.0208333333333333" Pitch="55" RiffPosition="11.2083333333333" Velocity="68" />
      <note Length="0.0208333333333333" Pitch="55" RiffPosition="11.2291666666667" Velocity="73" />
      <note Length="0.0416666666666667" Pitch="58" RiffPosition="11.25" Velocity="88" />
      <note Length="0.0208333333333333" Pitch="60" RiffPosition="11.2916666666667" Velocity="86" />
      <note Length="0.0208333333333333" Pitch="58" RiffPosition="11.3125" Velocity="56" />
      <note Length="0.0416666666666667" Pitch="58" RiffPosition="11.3333333333333" Velocity="39" />
      <note Length="0.0078125" Pitch="58" RiffPosition="11.375" Velocity="35" />
      <note Length="0.0234375" Pitch="55" RiffPosition="11.3828125" Velocity="40" />
      <note Length="0.09375" Pitch="55" RiffPosition="11.40625" Velocity="40" />
      <note Length="0.25" Pitch="55" RiffPosition="11.5" Velocity="90" />
      <note Length="0.25" Pitch="46" RiffPosition="11.75" Velocity="76" />
      <note Length="0.0625" Pitch="58" RiffPosition="12" Velocity="62" />
      <note Length="0.0625" Pitch="53" RiffPosition="12.0625" Velocity="56" />
      <note Length="0.0625" Pitch="55" RiffPosition="12.125" Velocity="41" />
      <note Length="0.0208333333333333" Pitch="55" RiffPosition="12.1875" Velocity="41" />
      <note Length="0.0208333333333333" Pitch="57" RiffPosition="12.2083333333333" Velocity="56" />
      <note Length="0.0208333333333333" Pitch="55" RiffPosition="12.2291666666667" Velocity="44" />
      <note Length="0.0416666666666667" Pitch="60" RiffPosition="12.25" Velocity="47" />
      <note Length="0.0208333333333333" Pitch="58" RiffPosition="12.2916666666667" Velocity="60" />
      <note Length="0.0208333333333333" Pitch="55" RiffPosition="12.3125" Velocity="37" />
      <note Length="0.0416666666666667" Pitch="55" RiffPosition="12.3333333333333" Velocity="51" />
      <note Length="0.0078125" Pitch="50" RiffPosition="12.375" Velocity="37" />
      <note Length="0.0234375" Pitch="51" RiffPosition="12.3828125" Velocity="44" />
      <note Length="0.09375" Pitch="53" RiffPosition="12.40625" Velocity="53" />
      <note Length="0.25" Pitch="53" RiffPosition="12.5" Velocity="45" />
      <note Length="0.25" Pitch="51" RiffPosition="12.75" Velocity="59" />
      <note Length="0.0625" Pitch="55" RiffPosition="13" Velocity="0" />
      <note Length="0.0625" Pitch="50" RiffPosition="13.0625" Velocity="0" />
      <note Length="0.0625" Pitch="50" RiffPosition="13.125" Velocity="0" />
      <note Length="0.0208333333333333" Pitch="55" RiffPosition="13.1875" Velocity="0" />
      <note Length="0.0208333333333333" Pitch="58" RiffPosition="13.2083333333333" Velocity="0" />
      <note Length="0.0208333333333333" Pitch="57" RiffPosition="13.2291666666667" Velocity="0" />
      <note Length="0.0416666666666667" Pitch="55" RiffPosition="13.25" Velocity="0" />
      <note Length="0.0208333333333333" Pitch="57" RiffPosition="13.2916666666667" Velocity="0" />
      <note Length="0.0208333333333333" Pitch="58" RiffPosition="13.3125" Velocity="0" />
      <note Length="0.0416666666666667" Pitch="55" RiffPosition="13.3333333333333" Velocity="0" />
      <note Length="0.0078125" Pitch="55" RiffPosition="13.375" Velocity="0" />
      <note Length="0.0234375" Pitch="55" RiffPosition="13.3828125" Velocity="0" />
      <note Length="0.09375" Pitch="57" RiffPosition="13.40625" Velocity="0" />
      <note Length="0.25" Pitch="57" RiffPosition="13.5" Velocity="0" />
      <note Length="0.249999999999993" Pitch="46" RiffPosition="13.75" Velocity="0" />
    </riff>
    <riff IsDrum="False" MidiInstrument="29" Tempo="87" Length="14">
      <note Length="0.03125" Pitch="51" RiffPosition="0" Velocity="0" />
      <note Length="0.03125" Pitch="55" RiffPosition="0.03125" Velocity="0" />
      <note Length="0.0208333333333333" Pitch="55" RiffPosition="0.0625" Velocity="0" />
      <note Length="0.0208333333333333" Pitch="55" RiffPosition="0.0833333333333333" Velocity="0" />
      <note Length="0.0208333333333333" Pitch="53" RiffPosition="0.104166666666667" Velocity="0" />
      <note Length="0.0208333333333333" Pitch="53" RiffPosition="0.125" Velocity="0" />
      <note Length="0.0208333333333333" Pitch="55" RiffPosition="0.145833333333333" Velocity="0" />
      <note Length="0.0208333333333333" Pitch="55" RiffPosition="0.166666666666667" Velocity="0" />
      <note Length="0.03125" Pitch="55" RiffPosition="0.1875" Velocity="0" />
      <note Length="0.03125" Pitch="55" RiffPosition="0.21875" Velocity="0" />
      <note Length="0.0104166666666667" Pitch="55" RiffPosition="0.25" Velocity="0" />
      <note Length="0.0104166666666667" Pitch="53" RiffPosition="0.260416666666667" Velocity="0" />
      <note Length="0.0104166666666667" Pitch="57" RiffPosition="0.270833333333333" Velocity="0" />
      <note Length="0.015625" Pitch="58" RiffPosition="0.28125" Velocity="0" />
      <note Length="0.015625" Pitch="62" RiffPosition="0.296875" Velocity="0" />
      <note Length="0.015625" Pitch="63" RiffPosition="0.3125" Velocity="0" />
      <note Length="0.015625" Pitch="60" RiffPosition="0.328125" Velocity="0" />
      <note Length="0.015625" Pitch="60" RiffPosition="0.34375" Velocity="0" />
      <note Length="0.015625" Pitch="55" RiffPosition="0.359375" Velocity="0" />
      <note Length="0.0234375" Pitch="53" RiffPosition="0.375" Velocity="0" />
      <note Length="0.0234375" Pitch="53" RiffPosition="0.3984375" Velocity="0" />
      <note Length="0.015625" Pitch="53" RiffPosition="0.421875" Velocity="0" />
      <note Length="0.03125" Pitch="53" RiffPosition="0.4375" Velocity="0" />
      <note Length="0.015625" Pitch="48" RiffPosition="0.46875" Velocity="0" />
      <note Length="0.046875" Pitch="46" RiffPosition="0.484375" Velocity="0" />
      <note Length="0.09375" Pitch="55" RiffPosition="0.53125" Velocity="0" />
      <note Length="0.0234375" Pitch="57" RiffPosition="0.625" Velocity="0" />
      <note Length="0.0234375" Pitch="58" RiffPosition="0.6484375" Velocity="0" />
      <note Length="0.0234375" Pitch="58" RiffPosition="0.671875" Velocity="0" />
      <note Length="0.0234375" Pitch="53" RiffPosition="0.6953125" Velocity="0" />
      <note Length="0.0078125" Pitch="48" RiffPosition="0.71875" Velocity="0" />
      <note Length="0.0078125" Pitch="45" RiffPosition="0.7265625" Velocity="0" />
      <note Length="0.015625" Pitch="45" RiffPosition="0.734375" Velocity="0" />
      <note Length="0.015625" Pitch="46" RiffPosition="0.75" Velocity="0" />
      <note Length="0.015625" Pitch="51" RiffPosition="0.765625" Velocity="0" />
      <note Length="0.015625" Pitch="53" RiffPosition="0.78125" Velocity="0" />
      <note Length="0.015625" Pitch="55" RiffPosition="0.796875" Velocity="0" />
      <note Length="0.0104166666666667" Pitch="57" RiffPosition="0.8125" Velocity="0" />
      <note Length="0.0104166666666667" Pitch="58" RiffPosition="0.822916666666667" Velocity="0" />
      <note Length="0.0104166666666667" Pitch="57" RiffPosition="0.833333333333333" Velocity="0" />
      <note Length="0.015625" Pitch="58" RiffPosition="0.84375" Velocity="0" />
      <note Length="0.015625" Pitch="55" RiffPosition="0.859375" Velocity="0" />
      <note Length="0.03125" Pitch="57" RiffPosition="0.875" Velocity="0" />
      <note Length="0.03125" Pitch="57" RiffPosition="0.90625" Velocity="0" />
      <note Length="0.0234375" Pitch="58" RiffPosition="0.9375" Velocity="0" />
      <note Length="0.0234375" Pitch="55" RiffPosition="0.9609375" Velocity="0" />
      <note Length="0.00390625" Pitch="53" RiffPosition="0.984375" Velocity="0" />
      <note Length="0.01171875" Pitch="53" RiffPosition="0.98828125" Velocity="0" />
      <note Length="0.03125" Pitch="50" RiffPosition="1" Velocity="0" />
      <note Length="0.03125" Pitch="55" RiffPosition="1.03125" Velocity="0" />
      <note Length="0.0208333333333333" Pitch="58" RiffPosition="1.0625" Velocity="0" />
      <note Length="0.0208333333333333" Pitch="55" RiffPosition="1.08333333333333" Velocity="0" />
      <note Length="0.0208333333333333" Pitch="53" RiffPosition="1.10416666666667" Velocity="0" />
      <note Length="0.0208333333333333" Pitch="50" RiffPosition="1.125" Velocity="0" />
      <note Length="0.0208333333333333" Pitch="55" RiffPosition="1.14583333333333" Velocity="0" />
      <note Length="0.0208333333333333" Pitch="55" RiffPosition="1.16666666666667" Velocity="0" />
      <note Length="0.03125" Pitch="55" RiffPosition="1.1875" Velocity="0" />
      <note Length="0.03125" Pitch="53" RiffPosition="1.21875" Velocity="0" />
      <note Length="0.0104166666666667" Pitch="53" RiffPosition="1.25" Velocity="0" />
      <note Length="0.0104166666666667" Pitch="55" RiffPosition="1.26041666666667" Velocity="0" />
      <note Length="0.0104166666666667" Pitch="58" RiffPosition="1.27083333333333" Velocity="0" />
      <note Length="0.015625" Pitch="58" RiffPosition="1.28125" Velocity="0" />
      <note Length="0.015625" Pitch="63" RiffPosition="1.296875" Velocity="0" />
      <note Length="0.015625" Pitch="63" RiffPosition="1.3125" Velocity="0" />
      <note Length="0.015625" Pitch="58" RiffPosition="1.328125" Velocity="0" />
      <note Length="0.015625" Pitch="58" RiffPosition="1.34375" Velocity="0" />
      <note Length="0.015625" Pitch="55" RiffPosition="1.359375" Velocity="0" />
      <note Length="0.0234375" Pitch="53" RiffPosition="1.375" Velocity="0" />
      <note Length="0.0234375" Pitch="55" RiffPosition="1.3984375" Velocity="0" />
      <note Length="0.015625" Pitch="55" RiffPosition="1.421875" Velocity="0" />
      <note Length="0.03125" Pitch="51" RiffPosition="1.4375" Velocity="0" />
      <note Length="0.015625" Pitch="48" RiffPosition="1.46875" Velocity="0" />
      <note Length="0.046875" Pitch="48" RiffPosition="1.484375" Velocity="0" />
      <note Length="0.09375" Pitch="55" RiffPosition="1.53125" Velocity="0" />
      <note Length="0.0234375" Pitch="58" RiffPosition="1.625" Velocity="0" />
      <note Length="0.0234375" Pitch="55" RiffPosition="1.6484375" Velocity="0" />
      <note Length="0.0234375" Pitch="55" RiffPosition="1.671875" Velocity="0" />
      <note Length="0.0234375" Pitch="55" RiffPosition="1.6953125" Velocity="0" />
      <note Length="0.0078125" Pitch="50" RiffPosition="1.71875" Velocity="0" />
      <note Length="0.0078125" Pitch="48" RiffPosition="1.7265625" Velocity="0" />
      <note Length="0.015625" Pitch="48" RiffPosition="1.734375" Velocity="0" />
      <note Length="0.015625" Pitch="45" RiffPosition="1.75" Velocity="0" />
      <note Length="0.015625" Pitch="50" RiffPosition="1.765625" Velocity="0" />
      <note Length="0.015625" Pitch="51" RiffPosition="1.78125" Velocity="0" />
      <note Length="0.015625" Pitch="55" RiffPosition="1.796875" Velocity="0" />
      <note Length="0.0104166666666667" Pitch="58" RiffPosition="1.8125" Velocity="0" />
      <note Length="0.0104166666666667" Pitch="60" RiffPosition="1.82291666666667" Velocity="0" />
      <note Length="0.0104166666666667" Pitch="58" RiffPosition="1.83333333333333" Velocity="0" />
      <note Length="0.015625" Pitch="60" RiffPosition="1.84375" Velocity="0" />
      <note Length="0.015625" Pitch="55" RiffPosition="1.859375" Velocity="0" />
      <note Length="0.03125" Pitch="55" RiffPosition="1.875" Velocity="0" />
      <note Length="0.03125" Pitch="58" RiffPosition="1.90625" Velocity="0" />
      <note Length="0.0234375" Pitch="60" RiffPosition="1.9375" Velocity="0" />
      <note Length="0.0234375" Pitch="55" RiffPosition="1.9609375" Velocity="0" />
      <note Length="0.00390625" Pitch="50" RiffPosition="1.984375" Velocity="0" />
      <note Length="0.01171875" Pitch="50" RiffPosition="1.98828125" Velocity="0" />
      <note Length="0.03125" Pitch="51" RiffPosition="2" Velocity="0" />
      <note Length="0.03125" Pitch="55" RiffPosition="2.03125" Velocity="0" />
      <note Length="0.0208333333333333" Pitch="55" RiffPosition="2.0625" Velocity="0" />
      <note Length="0.0208333333333333" Pitch="55" RiffPosition="2.08333333333333" Velocity="0" />
      <note Length="0.0208333333333333" Pitch="53" RiffPosition="2.10416666666667" Velocity="0" />
      <note Length="0.0208333333333333" Pitch="53" RiffPosition="2.125" Velocity="0" />
      <note Length="0.0208333333333333" Pitch="55" RiffPosition="2.14583333333333" Velocity="0" />
      <note Length="0.0208333333333333" Pitch="55" RiffPosition="2.16666666666667" Velocity="0" />
      <note Length="0.03125" Pitch="55" RiffPosition="2.1875" Velocity="0" />
      <note Length="0.03125" Pitch="55" RiffPosition="2.21875" Velocity="0" />
      <note Length="0.0104166666666667" Pitch="55" RiffPosition="2.25" Velocity="0" />
      <note Length="0.0104166666666667" Pitch="55" RiffPosition="2.26041666666667" Velocity="0" />
      <note Length="0.0104166666666667" Pitch="58" RiffPosition="2.27083333333333" Velocity="0" />
      <note Length="0.015625" Pitch="57" RiffPosition="2.28125" Velocity="0" />
      <note Length="0.015625" Pitch="62" RiffPosition="2.296875" Velocity="0" />
      <note Length="0.015625" Pitch="63" RiffPosition="2.3125" Velocity="0" />
      <note Length="0.015625" Pitch="60" RiffPosition="2.328125" Velocity="0" />
      <note Length="0.015625" Pitch="58" RiffPosition="2.34375" Velocity="0" />
      <note Length="0.015625" Pitch="55" RiffPosition="2.359375" Velocity="0" />
      <note Length="0.0234375" Pitch="55" RiffPosition="2.375" Velocity="0" />
      <note Length="0.0234375" Pitch="53" RiffPosition="2.3984375" Velocity="0" />
      <note Length="0.015625" Pitch="53" RiffPosition="2.421875" Velocity="0" />
      <note Length="0.03125" Pitch="53" RiffPosition="2.4375" Velocity="0" />
      <note Length="0.015625" Pitch="50" RiffPosition="2.46875" Velocity="0" />
      <note Length="0.046875" Pitch="45" RiffPosition="2.484375" Velocity="0" />
      <note Length="0.09375" Pitch="55" RiffPosition="2.53125" Velocity="0" />
      <note Length="0.0234375" Pitch="57" RiffPosition="2.625" Velocity="0" />
      <note Length="0.0234375" Pitch="58" RiffPosition="2.6484375" Velocity="0" />
      <note Length="0.0234375" Pitch="58" RiffPosition="2.671875" Velocity="0" />
      <note Length="0.0234375" Pitch="55" RiffPosition="2.6953125" Velocity="0" />
      <note Length="0.0078125" Pitch="48" RiffPosition="2.71875" Velocity="0" />
      <note Length="0.0078125" Pitch="45" RiffPosition="2.7265625" Velocity="0" />
      <note Length="0.015625" Pitch="45" RiffPosition="2.734375" Velocity="0" />
      <note Length="0.015625" Pitch="46" RiffPosition="2.75" Velocity="0" />
      <note Length="0.015625" Pitch="50" RiffPosition="2.765625" Velocity="0" />
      <note Length="0.015625" Pitch="53" RiffPosition="2.78125" Velocity="0" />
      <note Length="0.015625" Pitch="57" RiffPosition="2.796875" Velocity="0" />
      <note Length="0.0104166666666667" Pitch="57" RiffPosition="2.8125" Velocity="0" />
      <note Length="0.0104166666666667" Pitch="58" RiffPosition="2.82291666666667" Velocity="0" />
      <note Length="0.0104166666666667" Pitch="55" RiffPosition="2.83333333333333" Velocity="0" />
      <note Length="0.015625" Pitch="58" RiffPosition="2.84375" Velocity="0" />
      <note Length="0.015625" Pitch="55" RiffPosition="2.859375" Velocity="0" />
      <note Length="0.03125" Pitch="57" RiffPosition="2.875" Velocity="0" />
      <note Length="0.03125" Pitch="60" RiffPosition="2.90625" Velocity="0" />
      <note Length="0.0234375" Pitch="58" RiffPosition="2.9375" Velocity="0" />
      <note Length="0.0234375" Pitch="55" RiffPosition="2.9609375" Velocity="0" />
      <note Length="0.00390625" Pitch="53" RiffPosition="2.984375" Velocity="0" />
      <note Length="0.01171875" Pitch="53" RiffPosition="2.98828125" Velocity="0" />
      <note Length="0.03125" Pitch="53" RiffPosition="3" Velocity="0" />
      <note Length="0.03125" Pitch="53" RiffPosition="3.03125" Velocity="0" />
      <note Length="0.0208333333333333" Pitch="57" RiffPosition="3.0625" Velocity="0" />
      <note Length="0.0208333333333333" Pitch="55" RiffPosition="3.08333333333333" Velocity="0" />
      <note Length="0.0208333333333333" Pitch="53" RiffPosition="3.10416666666667" Velocity="0" />
      <note Length="0.0208333333333333" Pitch="50" RiffPosition="3.125" Velocity="0" />
      <note Length="0.0208333333333333" Pitch="53" RiffPosition="3.14583333333333" Velocity="0" />
      <note Length="0.0208333333333333" Pitch="55" RiffPosition="3.16666666666667" Velocity="0" />
      <note Length="0.03125" Pitch="55" RiffPosition="3.1875" Velocity="0" />
      <note Length="0.03125" Pitch="55" RiffPosition="3.21875" Velocity="0" />
      <note Length="0.0104166666666667" Pitch="53" RiffPosition="3.25" Velocity="0" />
      <note Length="0.0104166666666667" Pitch="55" RiffPosition="3.26041666666667" Velocity="0" />
      <note Length="0.0104166666666667" Pitch="57" RiffPosition="3.27083333333333" Velocity="0" />
      <note Length="0.015625" Pitch="58" RiffPosition="3.28125" Velocity="0" />
      <note Length="0.015625" Pitch="63" RiffPosition="3.296875" Velocity="0" />
      <note Length="0.015625" Pitch="63" RiffPosition="3.3125" Velocity="0" />
      <note Length="0.015625" Pitch="60" RiffPosition="3.328125" Velocity="0" />
      <note Length="0.015625" Pitch="57" RiffPosition="3.34375" Velocity="0" />
      <note Length="0.015625" Pitch="55" RiffPosition="3.359375" Velocity="0" />
      <note Length="0.0234375" Pitch="53" RiffPosition="3.375" Velocity="0" />
      <note Length="0.0234375" Pitch="53" RiffPosition="3.3984375" Velocity="0" />
      <note Length="0.015625" Pitch="55" RiffPosition="3.421875" Velocity="0" />
      <note Length="0.03125" Pitch="53" RiffPosition="3.4375" Velocity="0" />
      <note Length="0.015625" Pitch="48" RiffPosition="3.46875" Velocity="0" />
      <note Length="0.046875" Pitch="46" RiffPosition="3.484375" Velocity="0" />
      <note Length="0.09375" Pitch="57" RiffPosition="3.53125" Velocity="0" />
      <note Length="0.0234375" Pitch="58" RiffPosition="3.625" Velocity="0" />
      <note Length="0.0234375" Pitch="58" RiffPosition="3.6484375" Velocity="0" />
      <note Length="0.0234375" Pitch="55" RiffPosition="3.671875" Velocity="0" />
      <note Length="0.0234375" Pitch="55" RiffPosition="3.6953125" Velocity="0" />
      <note Length="0.0078125" Pitch="50" RiffPosition="3.71875" Velocity="0" />
      <note Length="0.0078125" Pitch="46" RiffPosition="3.7265625" Velocity="0" />
      <note Length="0.015625" Pitch="46" RiffPosition="3.734375" Velocity="0" />
      <note Length="0.015625" Pitch="48" RiffPosition="3.75" Velocity="0" />
      <note Length="0.015625" Pitch="50" RiffPosition="3.765625" Velocity="0" />
      <note Length="0.015625" Pitch="51" RiffPosition="3.78125" Velocity="0" />
      <note Length="0.015625" Pitch="55" RiffPosition="3.796875" Velocity="0" />
      <note Length="0.0104166666666667" Pitch="58" RiffPosition="3.8125" Velocity="0" />
      <note Length="0.0104166666666667" Pitch="60" RiffPosition="3.82291666666667" Velocity="0" />
      <note Length="0.0104166666666667" Pitch="58" RiffPosition="3.83333333333333" Velocity="0" />
      <note Length="0.015625" Pitch="58" RiffPosition="3.84375" Velocity="0" />
      <note Length="0.015625" Pitch="57" RiffPosition="3.859375" Velocity="0" />
      <note Length="0.03125" Pitch="55" RiffPosition="3.875" Velocity="0" />
      <note Length="0.03125" Pitch="58" RiffPosition="3.90625" Velocity="0" />
      <note Length="0.0234375" Pitch="60" RiffPosition="3.9375" Velocity="0" />
      <note Length="0.0234375" Pitch="55" RiffPosition="3.9609375" Velocity="0" />
      <note Length="0.00390625" Pitch="50" RiffPosition="3.984375" Velocity="0" />
      <note Length="0.01171875" Pitch="50" RiffPosition="3.98828125" Velocity="0" />
      <note Length="0.03125" Pitch="50" RiffPosition="4" Velocity="0" />
      <note Length="0.03125" Pitch="55" RiffPosition="4.03125" Velocity="0" />
      <note Length="0.0208333333333333" Pitch="58" RiffPosition="4.0625" Velocity="0" />
      <note Length="0.0208333333333333" Pitch="55" RiffPosition="4.08333333333333" Velocity="0" />
      <note Length="0.0208333333333333" Pitch="51" RiffPosition="4.10416666666667" Velocity="0" />
      <note Length="0.0208333333333333" Pitch="51" RiffPosition="4.125" Velocity="0" />
      <note Length="0.0208333333333333" Pitch="55" RiffPosition="4.14583333333333" Velocity="0" />
      <note Length="0.0208333333333333" Pitch="57" RiffPosition="4.16666666666667" Velocity="0" />
      <note Length="0.03125" Pitch="55" RiffPosition="4.1875" Velocity="0" />
      <note Length="0.03125" Pitch="55" RiffPosition="4.21875" Velocity="0" />
      <note Length="0.0104166666666667" Pitch="55" RiffPosition="4.25" Velocity="0" />
      <note Length="0.0104166666666667" Pitch="55" RiffPosition="4.26041666666667" Velocity="0" />
      <note Length="0.0104166666666667" Pitch="58" RiffPosition="4.27083333333333" Velocity="0" />
      <note Length="0.015625" Pitch="60" RiffPosition="4.28125" Velocity="0" />
      <note Length="0.015625" Pitch="60" RiffPosition="4.296875" Velocity="0" />
      <note Length="0.015625" Pitch="62" RiffPosition="4.3125" Velocity="0" />
      <note Length="0.015625" Pitch="58" RiffPosition="4.328125" Velocity="0" />
      <note Length="0.015625" Pitch="58" RiffPosition="4.34375" Velocity="0" />
      <note Length="0.015625" Pitch="55" RiffPosition="4.359375" Velocity="0" />
      <note Length="0.0234375" Pitch="55" RiffPosition="4.375" Velocity="0" />
      <note Length="0.0234375" Pitch="51" RiffPosition="4.3984375" Velocity="0" />
      <note Length="0.015625" Pitch="53" RiffPosition="4.421875" Velocity="0" />
      <note Length="0.03125" Pitch="53" RiffPosition="4.4375" Velocity="0" />
      <note Length="0.015625" Pitch="50" RiffPosition="4.46875" Velocity="0" />
      <note Length="0.046875" Pitch="48" RiffPosition="4.484375" Velocity="0" />
      <note Length="0.09375" Pitch="55" RiffPosition="4.53125" Velocity="0" />
      <note Length="0.0234375" Pitch="55" RiffPosition="4.625" Velocity="0" />
      <note Length="0.0234375" Pitch="57" RiffPosition="4.6484375" Velocity="0" />
      <note Length="0.0234375" Pitch="57" RiffPosition="4.671875" Velocity="0" />
      <note Length="0.0234375" Pitch="55" RiffPosition="4.6953125" Velocity="0" />
      <note Length="0.0078125" Pitch="48" RiffPosition="4.71875" Velocity="0" />
      <note Length="0.0078125" Pitch="45" RiffPosition="4.7265625" Velocity="0" />
      <note Length="0.015625" Pitch="45" RiffPosition="4.734375" Velocity="0" />
      <note Length="0.015625" Pitch="45" RiffPosition="4.75" Velocity="0" />
      <note Length="0.015625" Pitch="50" RiffPosition="4.765625" Velocity="0" />
      <note Length="0.015625" Pitch="53" RiffPosition="4.78125" Velocity="0" />
      <note Length="0.015625" Pitch="57" RiffPosition="4.796875" Velocity="0" />
      <note Length="0.0104166666666667" Pitch="58" RiffPosition="4.8125" Velocity="0" />
      <note Length="0.0104166666666667" Pitch="58" RiffPosition="4.82291666666667" Velocity="0" />
      <note Length="0.0104166666666667" Pitch="55" RiffPosition="4.83333333333333" Velocity="0" />
      <note Length="0.015625" Pitch="57" RiffPosition="4.84375" Velocity="0" />
      <note Length="0.015625" Pitch="55" RiffPosition="4.859375" Velocity="0" />
      <note Length="0.03125" Pitch="55" RiffPosition="4.875" Velocity="0" />
      <note Length="0.03125" Pitch="58" RiffPosition="4.90625" Velocity="0" />
      <note Length="0.0234375" Pitch="58" RiffPosition="4.9375" Velocity="0" />
      <note Length="0.0234375" Pitch="55" RiffPosition="4.9609375" Velocity="0" />
      <note Length="0.00390625" Pitch="51" RiffPosition="4.984375" Velocity="0" />
      <note Length="0.01171875" Pitch="51" RiffPosition="4.98828125" Velocity="0" />
      <note Length="0.03125" Pitch="51" RiffPosition="5" Velocity="0" />
      <note Length="0.03125" Pitch="53" RiffPosition="5.03125" Velocity="0" />
      <note Length="0.0208333333333333" Pitch="57" RiffPosition="5.0625" Velocity="0" />
      <note Length="0.0208333333333333" Pitch="55" RiffPosition="5.08333333333333" Velocity="0" />
      <note Length="0.0208333333333333" Pitch="53" RiffPosition="5.10416666666667" Velocity="0" />
      <note Length="0.0208333333333333" Pitch="53" RiffPosition="5.125" Velocity="0" />
      <note Length="0.0208333333333333" Pitch="53" RiffPosition="5.14583333333333" Velocity="0" />
      <note Length="0.0208333333333333" Pitch="55" RiffPosition="5.16666666666667" Velocity="0" />
      <note Length="0.03125" Pitch="55" RiffPosition="5.1875" Velocity="0" />
      <note Length="0.03125" Pitch="55" RiffPosition="5.21875" Velocity="0" />
      <note Length="0.0104166666666667" Pitch="53" RiffPosition="5.25" Velocity="0" />
      <note Length="0.0104166666666667" Pitch="53" RiffPosition="5.26041666666667" Velocity="0" />
      <note Length="0.0104166666666667" Pitch="57" RiffPosition="5.27083333333333" Velocity="0" />
      <note Length="0.015625" Pitch="58" RiffPosition="5.28125" Velocity="0" />
      <note Length="0.015625" Pitch="63" RiffPosition="5.296875" Velocity="0" />
      <note Length="0.015625" Pitch="63" RiffPosition="5.3125" Velocity="0" />
      <note Length="0.015625" Pitch="60" RiffPosition="5.328125" Velocity="0" />
      <note Length="0.015625" Pitch="60" RiffPosition="5.34375" Velocity="0" />
      <note Length="0.015625" Pitch="55" RiffPosition="5.359375" Velocity="0" />
      <note Length="0.0234375" Pitch="53" RiffPosition="5.375" Velocity="0" />
      <note Length="0.0234375" Pitch="53" RiffPosition="5.3984375" Velocity="0" />
      <note Length="0.015625" Pitch="55" RiffPosition="5.421875" Velocity="0" />
      <note Length="0.03125" Pitch="53" RiffPosition="5.4375" Velocity="0" />
      <note Length="0.015625" Pitch="48" RiffPosition="5.46875" Velocity="0" />
      <note Length="0.046875" Pitch="46" RiffPosition="5.484375" Velocity="0" />
      <note Length="0.09375" Pitch="57" RiffPosition="5.53125" Velocity="0" />
      <note Length="0.0234375" Pitch="58" RiffPosition="5.625" Velocity="0" />
      <note Length="0.0234375" Pitch="58" RiffPosition="5.6484375" Velocity="0" />
      <note Length="0.0234375" Pitch="55" RiffPosition="5.671875" Velocity="0" />
      <note Length="0.0234375" Pitch="55" RiffPosition="5.6953125" Velocity="0" />
      <note Length="0.0078125" Pitch="50" RiffPosition="5.71875" Velocity="0" />
      <note Length="0.0078125" Pitch="46" RiffPosition="5.7265625" Velocity="0" />
      <note Length="0.015625" Pitch="46" RiffPosition="5.734375" Velocity="0" />
      <note Length="0.015625" Pitch="48" RiffPosition="5.75" Velocity="0" />
      <note Length="0.015625" Pitch="51" RiffPosition="5.765625" Velocity="0" />
      <note Length="0.015625" Pitch="50" RiffPosition="5.78125" Velocity="0" />
      <note Length="0.015625" Pitch="55" RiffPosition="5.796875" Velocity="0" />
      <note Length="0.0104166666666667" Pitch="58" RiffPosition="5.8125" Velocity="0" />
      <note Length="0.0104166666666667" Pitch="58" RiffPosition="5.82291666666667" Velocity="0" />
      <note Length="0.0104166666666667" Pitch="57" RiffPosition="5.83333333333333" Velocity="0" />
      <note Length="0.015625" Pitch="58" RiffPosition="5.84375" Velocity="0" />
      <note Length="0.015625" Pitch="57" RiffPosition="5.859375" Velocity="0" />
      <note Length="0.03125" Pitch="58" RiffPosition="5.875" Velocity="0" />
      <note Length="0.03125" Pitch="57" RiffPosition="5.90625" Velocity="0" />
      <note Length="0.0234375" Pitch="58" RiffPosition="5.9375" Velocity="0" />
      <note Length="0.0234375" Pitch="55" RiffPosition="5.9609375" Velocity="0" />
      <note Length="0.00390625" Pitch="53" RiffPosition="5.984375" Velocity="0" />
      <note Length="0.01171875" Pitch="50" RiffPosition="5.98828125" Velocity="0" />
      <note Length="0.03125" Pitch="50" RiffPosition="6" Velocity="0" />
      <note Length="0.03125" Pitch="55" RiffPosition="6.03125" Velocity="0" />
      <note Length="0.0208333333333333" Pitch="58" RiffPosition="6.0625" Velocity="0" />
      <note Length="0.0208333333333333" Pitch="55" RiffPosition="6.08333333333333" Velocity="0" />
      <note Length="0.0208333333333333" Pitch="51" RiffPosition="6.10416666666667" Velocity="0" />
      <note Length="0.0208333333333333" Pitch="51" RiffPosition="6.125" Velocity="0" />
      <note Length="0.0208333333333333" Pitch="55" RiffPosition="6.14583333333333" Velocity="0" />
      <note Length="0.0208333333333333" Pitch="55" RiffPosition="6.16666666666667" Velocity="0" />
      <note Length="0.03125" Pitch="57" RiffPosition="6.1875" Velocity="0" />
      <note Length="0.03125" Pitch="53" RiffPosition="6.21875" Velocity="0" />
      <note Length="0.0104166666666667" Pitch="55" RiffPosition="6.25" Velocity="0" />
      <note Length="0.0104166666666667" Pitch="55" RiffPosition="6.26041666666667" Velocity="0" />
      <note Length="0.0104166666666667" Pitch="58" RiffPosition="6.27083333333333" Velocity="0" />
      <note Length="0.015625" Pitch="58" RiffPosition="6.28125" Velocity="0" />
      <note Length="0.015625" Pitch="63" RiffPosition="6.296875" Velocity="0" />
      <note Length="0.015625" Pitch="62" RiffPosition="6.3125" Velocity="0" />
      <note Length="0.015625" Pitch="58" RiffPosition="6.328125" Velocity="0" />
      <note Length="0.015625" Pitch="58" RiffPosition="6.34375" Velocity="0" />
      <note Length="0.015625" Pitch="55" RiffPosition="6.359375" Velocity="0" />
      <note Length="0.0234375" Pitch="53" RiffPosition="6.375" Velocity="0" />
      <note Length="0.0234375" Pitch="55" RiffPosition="6.3984375" Velocity="0" />
      <note Length="0.015625" Pitch="53" RiffPosition="6.421875" Velocity="0" />
      <note Length="0.03125" Pitch="51" RiffPosition="6.4375" Velocity="0" />
      <note Length="0.015625" Pitch="50" RiffPosition="6.46875" Velocity="0" />
      <note Length="0.046875" Pitch="48" RiffPosition="6.484375" Velocity="0" />
      <note Length="0.09375" Pitch="55" RiffPosition="6.53125" Velocity="0" />
      <note Length="0.0234375" Pitch="55" RiffPosition="6.625" Velocity="0" />
      <note Length="0.0234375" Pitch="57" RiffPosition="6.6484375" Velocity="0" />
      <note Length="0.0234375" Pitch="57" RiffPosition="6.671875" Velocity="0" />
      <note Length="0.0234375" Pitch="55" RiffPosition="6.6953125" Velocity="0" />
      <note Length="0.0078125" Pitch="50" RiffPosition="6.71875" Velocity="0" />
      <note Length="0.0078125" Pitch="48" RiffPosition="6.7265625" Velocity="0" />
      <note Length="0.015625" Pitch="45" RiffPosition="6.734375" Velocity="0" />
      <note Length="0.015625" Pitch="45" RiffPosition="6.75" Velocity="0" />
      <note Length="0.015625" Pitch="50" RiffPosition="6.765625" Velocity="0" />
      <note Length="0.015625" Pitch="53" RiffPosition="6.78125" Velocity="0" />
      <note Length="0.015625" Pitch="55" RiffPosition="6.796875" Velocity="0" />
      <note Length="0.0104166666666667" Pitch="58" RiffPosition="6.8125" Velocity="0" />
      <note Length="0.0104166666666667" Pitch="60" RiffPosition="6.82291666666667" Velocity="0" />
      <note Length="0.0104166666666667" Pitch="58" RiffPosition="6.83333333333333" Velocity="0" />
      <note Length="0.015625" Pitch="57" RiffPosition="6.84375" Velocity="0" />
      <note Length="0.015625" Pitch="55" RiffPosition="6.859375" Velocity="0" />
      <note Length="0.03125" Pitch="55" RiffPosition="6.875" Velocity="0" />
      <note Length="0.03125" Pitch="58" RiffPosition="6.90625" Velocity="0" />
      <note Length="0.0234375" Pitch="60" RiffPosition="6.9375" Velocity="0" />
      <note Length="0.0234375" Pitch="55" RiffPosition="6.9609375" Velocity="0" />
      <note Length="0.00390625" Pitch="51" RiffPosition="6.984375" Velocity="0" />
      <note Length="0.01171875" Pitch="51" RiffPosition="6.98828125" Velocity="0" />
      <note Length="0.03125" Pitch="51" RiffPosition="7" Velocity="0" />
      <note Length="0.03125" Pitch="55" RiffPosition="7.03125" Velocity="0" />
      <note Length="0.0208333333333333" Pitch="55" RiffPosition="7.0625" Velocity="0" />
      <note Length="0.0208333333333333" Pitch="55" RiffPosition="7.08333333333333" Velocity="0" />
      <note Length="0.0208333333333333" Pitch="53" RiffPosition="7.10416666666667" Velocity="0" />
      <note Length="0.0208333333333333" Pitch="53" RiffPosition="7.125" Velocity="0" />
      <note Length="0.0208333333333333" Pitch="55" RiffPosition="7.14583333333333" Velocity="0" />
      <note Length="0.0208333333333333" Pitch="55" RiffPosition="7.16666666666667" Velocity="0" />
      <note Length="0.03125" Pitch="55" RiffPosition="7.1875" Velocity="0" />
      <note Length="0.03125" Pitch="55" RiffPosition="7.21875" Velocity="0" />
      <note Length="0.0104166666666667" Pitch="55" RiffPosition="7.25" Velocity="0" />
      <note Length="0.0104166666666667" Pitch="53" RiffPosition="7.26041666666667" Velocity="0" />
      <note Length="0.0104166666666667" Pitch="55" RiffPosition="7.27083333333333" Velocity="0" />
      <note Length="0.015625" Pitch="58" RiffPosition="7.28125" Velocity="0" />
      <note Length="0.015625" Pitch="62" RiffPosition="7.296875" Velocity="0" />
      <note Length="0.015625" Pitch="63" RiffPosition="7.3125" Velocity="0" />
      <note Length="0.015625" Pitch="60" RiffPosition="7.328125" Velocity="0" />
      <note Length="0.015625" Pitch="60" RiffPosition="7.34375" Velocity="0" />
      <note Length="0.015625" Pitch="55" RiffPosition="7.359375" Velocity="0" />
      <note Length="0.0234375" Pitch="53" RiffPosition="7.375" Velocity="0" />
      <note Length="0.0234375" Pitch="53" RiffPosition="7.3984375" Velocity="0" />
      <note Length="0.015625" Pitch="53" RiffPosition="7.421875" Velocity="0" />
      <note Length="0.03125" Pitch="53" RiffPosition="7.4375" Velocity="0" />
      <note Length="0.015625" Pitch="50" RiffPosition="7.46875" Velocity="0" />
      <note Length="0.046875" Pitch="45" RiffPosition="7.484375" Velocity="0" />
      <note Length="0.09375" Pitch="55" RiffPosition="7.53125" Velocity="0" />
      <note Length="0.0234375" Pitch="57" RiffPosition="7.625" Velocity="0" />
      <note Length="0.0234375" Pitch="58" RiffPosition="7.6484375" Velocity="0" />
      <note Length="0.0234375" Pitch="58" RiffPosition="7.671875" Velocity="0" />
      <note Length="0.0234375" Pitch="53" RiffPosition="7.6953125" Velocity="0" />
      <note Length="0.0078125" Pitch="48" RiffPosition="7.71875" Velocity="0" />
      <note Length="0.0078125" Pitch="45" RiffPosition="7.7265625" Velocity="0" />
      <note Length="0.015625" Pitch="45" RiffPosition="7.734375" Velocity="0" />
      <note Length="0.015625" Pitch="46" RiffPosition="7.75" Velocity="0" />
      <note Length="0.015625" Pitch="51" RiffPosition="7.765625" Velocity="0" />
      <note Length="0.015625" Pitch="53" RiffPosition="7.78125" Velocity="0" />
      <note Length="0.015625" Pitch="55" RiffPosition="7.796875" Velocity="0" />
      <note Length="0.0104166666666667" Pitch="57" RiffPosition="7.8125" Velocity="0" />
      <note Length="0.0104166666666667" Pitch="58" RiffPosition="7.82291666666667" Velocity="0" />
      <note Length="0.0104166666666667" Pitch="57" RiffPosition="7.83333333333333" Velocity="0" />
      <note Length="0.015625" Pitch="58" RiffPosition="7.84375" Velocity="0" />
      <note Length="0.015625" Pitch="55" RiffPosition="7.859375" Velocity="0" />
      <note Length="0.03125" Pitch="57" RiffPosition="7.875" Velocity="0" />
      <note Length="0.03125" Pitch="57" RiffPosition="7.90625" Velocity="0" />
      <note Length="0.0234375" Pitch="58" RiffPosition="7.9375" Velocity="0" />
      <note Length="0.0234375" Pitch="55" RiffPosition="7.9609375" Velocity="0" />
      <note Length="0.00390625" Pitch="53" RiffPosition="7.984375" Velocity="0" />
      <note Length="0.01171875" Pitch="53" RiffPosition="7.98828125" Velocity="0" />
      <note Length="0.03125" Pitch="53" RiffPosition="8" Velocity="42" />
      <note Length="0.03125" Pitch="55" RiffPosition="8.03125" Velocity="91" />
      <note Length="0.0208333333333333" Pitch="57" RiffPosition="8.0625" Velocity="86" />
      <note Length="0.0208333333333333" Pitch="55" RiffPosition="8.08333333333333" Velocity="77" />
      <note Length="0.0208333333333333" Pitch="53" RiffPosition="8.10416666666667" Velocity="44" />
      <note Length="0.0208333333333333" Pitch="50" RiffPosition="8.125" Velocity="42" />
      <note Length="0.0208333333333333" Pitch="53" RiffPosition="8.14583333333334" Velocity="44" />
      <note Length="0.0208333333333333" Pitch="55" RiffPosition="8.16666666666667" Velocity="52" />
      <note Length="0.03125" Pitch="55" RiffPosition="8.1875" Velocity="48" />
      <note Length="0.03125" Pitch="53" RiffPosition="8.21875" Velocity="72" />
      <note Length="0.0104166666666667" Pitch="53" RiffPosition="8.25" Velocity="66" />
      <note Length="0.0104166666666667" Pitch="55" RiffPosition="8.26041666666667" Velocity="65" />
      <note Length="0.0104166666666667" Pitch="58" RiffPosition="8.27083333333334" Velocity="66" />
      <note Length="0.015625" Pitch="58" RiffPosition="8.28125" Velocity="42" />
      <note Length="0.015625" Pitch="63" RiffPosition="8.296875" Velocity="59" />
      <note Length="0.015625" Pitch="63" RiffPosition="8.3125" Velocity="58" />
      <note Length="0.015625" Pitch="58" RiffPosition="8.328125" Velocity="37" />
      <note Length="0.015625" Pitch="58" RiffPosition="8.34375" Velocity="62" />
      <note Length="0.015625" Pitch="55" RiffPosition="8.359375" Velocity="68" />
      <note Length="0.0234375" Pitch="53" RiffPosition="8.375" Velocity="82" />
      <note Length="0.0234375" Pitch="55" RiffPosition="8.3984375" Velocity="44" />
      <note Length="0.015625" Pitch="55" RiffPosition="8.421875" Velocity="57" />
      <note Length="0.03125" Pitch="51" RiffPosition="8.4375" Velocity="50" />
      <note Length="0.015625" Pitch="48" RiffPosition="8.46875" Velocity="81" />
      <note Length="0.046875" Pitch="48" RiffPosition="8.484375" Velocity="87" />
      <note Length="0.09375" Pitch="58" RiffPosition="8.53125" Velocity="75" />
      <note Length="0.0234375" Pitch="58" RiffPosition="8.625" Velocity="46" />
      <note Length="0.0234375" Pitch="55" RiffPosition="8.6484375" Velocity="69" />
      <note Length="0.0234375" Pitch="55" RiffPosition="8.671875" Velocity="62" />
      <note Length="0.0234375" Pitch="55" RiffPosition="8.6953125" Velocity="40" />
      <note Length="0.0078125" Pitch="50" RiffPosition="8.71875" Velocity="50" />
      <note Length="0.0078125" Pitch="46" RiffPosition="8.7265625" Velocity="53" />
      <note Length="0.015625" Pitch="48" RiffPosition="8.734375" Velocity="57" />
      <note Length="0.015625" Pitch="45" RiffPosition="8.75" Velocity="55" />
      <note Length="0.015625" Pitch="50" RiffPosition="8.765625" Velocity="61" />
      <note Length="0.015625" Pitch="51" RiffPosition="8.78125" Velocity="43" />
      <note Length="0.015625" Pitch="55" RiffPosition="8.796875" Velocity="41" />
      <note Length="0.0104166666666667" Pitch="58" RiffPosition="8.8125" Velocity="46" />
      <note Length="0.0104166666666667" Pitch="60" RiffPosition="8.82291666666667" Velocity="52" />
      <note Length="0.0104166666666667" Pitch="58" RiffPosition="8.83333333333333" Velocity="57" />
      <note Length="0.015625" Pitch="58" RiffPosition="8.84375" Velocity="85" />
      <note Length="0.015625" Pitch="55" RiffPosition="8.859375" Velocity="86" />
      <note Length="0.03125" Pitch="55" RiffPosition="8.875" Velocity="94" />
      <note Length="0.03125" Pitch="58" RiffPosition="8.90625" Velocity="47" />
      <note Length="0.0234375" Pitch="60" RiffPosition="8.9375" Velocity="61" />
      <note Length="0.0234375" Pitch="55" RiffPosition="8.9609375" Velocity="36" />
      <note Length="0.00390625" Pitch="50" RiffPosition="8.984375" Velocity="59" />
      <note Length="0.01171875" Pitch="50" RiffPosition="8.98828125" Velocity="60" />
      <note Length="0.03125" Pitch="50" RiffPosition="9" Velocity="52" />
      <note Length="0.03125" Pitch="55" RiffPosition="9.03125" Velocity="104" />
      <note Length="0.0208333333333333" Pitch="55" RiffPosition="9.0625" Velocity="99" />
      <note Length="0.0208333333333333" Pitch="55" RiffPosition="9.08333333333333" Velocity="67" />
      <note Length="0.0208333333333333" Pitch="51" RiffPosition="9.10416666666667" Velocity="36" />
      <note Length="0.0208333333333333" Pitch="53" RiffPosition="9.125" Velocity="52" />
      <note Length="0.0208333333333333" Pitch="55" RiffPosition="9.14583333333334" Velocity="57" />
      <note Length="0.0208333333333333" Pitch="57" RiffPosition="9.16666666666667" Velocity="65" />
      <note Length="0.03125" Pitch="55" RiffPosition="9.1875" Velocity="37" />
      <note Length="0.03125" Pitch="55" RiffPosition="9.21875" Velocity="82" />
      <note Length="0.0104166666666667" Pitch="55" RiffPosition="9.25" Velocity="52" />
      <note Length="0.0104166666666667" Pitch="55" RiffPosition="9.26041666666667" Velocity="52" />
      <note Length="0.0104166666666667" Pitch="58" RiffPosition="9.27083333333334" Velocity="52" />
      <note Length="0.015625" Pitch="57" RiffPosition="9.28125" Velocity="42" />
      <note Length="0.015625" Pitch="62" RiffPosition="9.296875" Velocity="49" />
      <note Length="0.015625" Pitch="63" RiffPosition="9.3125" Velocity="48" />
      <note Length="0.015625" Pitch="60" RiffPosition="9.328125" Velocity="47" />
      <note Length="0.015625" Pitch="58" RiffPosition="9.34375" Velocity="48" />
      <note Length="0.015625" Pitch="55" RiffPosition="9.359375" Velocity="54" />
      <note Length="0.0234375" Pitch="55" RiffPosition="9.375" Velocity="68" />
      <note Length="0.0234375" Pitch="53" RiffPosition="9.3984375" Velocity="54" />
      <note Length="0.015625" Pitch="53" RiffPosition="9.421875" Velocity="47" />
      <note Length="0.03125" Pitch="53" RiffPosition="9.4375" Velocity="40" />
      <note Length="0.015625" Pitch="50" RiffPosition="9.46875" Velocity="67" />
      <note Length="0.046875" Pitch="48" RiffPosition="9.484375" Velocity="73" />
      <note Length="0.09375" Pitch="55" RiffPosition="9.53125" Velocity="65" />
      <note Length="0.0234375" Pitch="57" RiffPosition="9.625" Velocity="36" />
      <note Length="0.0234375" Pitch="58" RiffPosition="9.6484375" Velocity="59" />
      <note Length="0.0234375" Pitch="58" RiffPosition="9.671875" Velocity="75" />
      <note Length="0.0234375" Pitch="55" RiffPosition="9.6953125" Velocity="43" />
      <note Length="0.0078125" Pitch="48" RiffPosition="9.71875" Velocity="60" />
      <note Length="0.0078125" Pitch="45" RiffPosition="9.7265625" Velocity="64" />
      <note Length="0.015625" Pitch="45" RiffPosition="9.734375" Velocity="67" />
      <note Length="0.015625" Pitch="46" RiffPosition="9.75" Velocity="65" />
      <note Length="0.015625" Pitch="50" RiffPosition="9.765625" Velocity="71" />
      <note Length="0.015625" Pitch="53" RiffPosition="9.78125" Velocity="41" />
      <note Length="0.015625" Pitch="57" RiffPosition="9.796875" Velocity="42" />
      <note Length="0.0104166666666667" Pitch="57" RiffPosition="9.8125" Velocity="36" />
      <note Length="0.0104166666666667" Pitch="58" RiffPosition="9.82291666666667" Velocity="63" />
      <note Length="0.0104166666666667" Pitch="55" RiffPosition="9.83333333333333" Velocity="67" />
      <note Length="0.015625" Pitch="58" RiffPosition="9.84375" Velocity="95" />
      <note Length="0.015625" Pitch="55" RiffPosition="9.859375" Velocity="96" />
      <note Length="0.03125" Pitch="57" RiffPosition="9.875" Velocity="80" />
      <note Length="0.03125" Pitch="60" RiffPosition="9.90625" Velocity="37" />
      <note Length="0.0234375" Pitch="58" RiffPosition="9.9375" Velocity="51" />
      <note Length="0.0234375" Pitch="55" RiffPosition="9.9609375" Velocity="44" />
      <note Length="0.00390625" Pitch="53" RiffPosition="9.984375" Velocity="46" />
      <note Length="0.01171875" Pitch="53" RiffPosition="9.98828125" Velocity="46" />
      <note Length="0.03125" Pitch="53" RiffPosition="10" Velocity="39" />
      <note Length="0.03125" Pitch="53" RiffPosition="10.03125" Velocity="94" />
      <note Length="0.0208333333333333" Pitch="57" RiffPosition="10.0625" Velocity="89" />
      <note Length="0.0208333333333333" Pitch="55" RiffPosition="10.0833333333333" Velocity="57" />
      <note Length="0.0208333333333333" Pitch="53" RiffPosition="10.1041666666667" Velocity="48" />
      <note Length="0.0208333333333333" Pitch="50" RiffPosition="10.125" Velocity="39" />
      <note Length="0.0208333333333333" Pitch="53" RiffPosition="10.1458333333333" Velocity="47" />
      <note Length="0.0208333333333333" Pitch="55" RiffPosition="10.1666666666667" Velocity="55" />
      <note Length="0.03125" Pitch="55" RiffPosition="10.1875" Velocity="43" />
      <note Length="0.03125" Pitch="55" RiffPosition="10.21875" Velocity="69" />
      <note Length="0.0104166666666667" Pitch="53" RiffPosition="10.25" Velocity="62" />
      <note Length="0.0104166666666667" Pitch="55" RiffPosition="10.2604166666667" Velocity="62" />
      <note Length="0.0104166666666667" Pitch="57" RiffPosition="10.2708333333333" Velocity="62" />
      <note Length="0.015625" Pitch="58" RiffPosition="10.28125" Velocity="38" />
      <note Length="0.015625" Pitch="63" RiffPosition="10.296875" Velocity="39" />
      <note Length="0.015625" Pitch="63" RiffPosition="10.3125" Velocity="62" />
      <note Length="0.015625" Pitch="60" RiffPosition="10.328125" Velocity="37" />
      <note Length="0.015625" Pitch="57" RiffPosition="10.34375" Velocity="58" />
      <note Length="0.015625" Pitch="55" RiffPosition="10.359375" Velocity="64" />
      <note Length="0.0234375" Pitch="53" RiffPosition="10.375" Velocity="79" />
      <note Length="0.0234375" Pitch="53" RiffPosition="10.3984375" Velocity="64" />
      <note Length="0.015625" Pitch="55" RiffPosition="10.421875" Velocity="60" />
      <note Length="0.03125" Pitch="53" RiffPosition="10.4375" Velocity="54" />
      <note Length="0.015625" Pitch="48" RiffPosition="10.46875" Velocity="77" />
      <note Length="0.046875" Pitch="46" RiffPosition="10.484375" Velocity="84" />
      <note Length="0.09375" Pitch="57" RiffPosition="10.53125" Velocity="78" />
      <note Length="0.0234375" Pitch="58" RiffPosition="10.625" Velocity="50" />
      <note Length="0.0234375" Pitch="58" RiffPosition="10.6484375" Velocity="73" />
      <note Length="0.0234375" Pitch="55" RiffPosition="10.671875" Velocity="65" />
      <note Length="0.0234375" Pitch="55" RiffPosition="10.6953125" Velocity="37" />
      <note Length="0.0078125" Pitch="50" RiffPosition="10.71875" Velocity="71" />
      <note Length="0.0078125" Pitch="46" RiffPosition="10.7265625" Velocity="50" />
      <note Length="0.015625" Pitch="46" RiffPosition="10.734375" Velocity="53" />
      <note Length="0.015625" Pitch="48" RiffPosition="10.75" Velocity="52" />
      <note Length="0.015625" Pitch="50" RiffPosition="10.765625" Velocity="57" />
      <note Length="0.015625" Pitch="51" RiffPosition="10.78125" Velocity="39" />
      <note Length="0.015625" Pitch="55" RiffPosition="10.796875" Velocity="38" />
      <note Length="0.0104166666666667" Pitch="58" RiffPosition="10.8125" Velocity="44" />
      <note Length="0.0104166666666667" Pitch="60" RiffPosition="10.8229166666667" Velocity="73" />
      <note Length="0.0104166666666667" Pitch="58" RiffPosition="10.8333333333333" Velocity="53" />
      <note Length="0.015625" Pitch="58" RiffPosition="10.84375" Velocity="82" />
      <note Length="0.015625" Pitch="57" RiffPosition="10.859375" Velocity="82" />
      <note Length="0.03125" Pitch="55" RiffPosition="10.875" Velocity="91" />
      <note Length="0.03125" Pitch="58" RiffPosition="10.90625" Velocity="43" />
      <note Length="0.0234375" Pitch="60" RiffPosition="10.9375" Velocity="65" />
      <note Length="0.0234375" Pitch="55" RiffPosition="10.9609375" Velocity="39" />
      <note Length="0.00390625" Pitch="50" RiffPosition="10.984375" Velocity="56" />
      <note Length="0.01171875" Pitch="50" RiffPosition="10.98828125" Velocity="56" />
      <note Length="0.03125" Pitch="50" RiffPosition="11" Velocity="49" />
      <note Length="0.03125" Pitch="55" RiffPosition="11.03125" Velocity="84" />
      <note Length="0.0208333333333333" Pitch="58" RiffPosition="11.0625" Velocity="103" />
      <note Length="0.0208333333333333" Pitch="55" RiffPosition="11.0833333333333" Velocity="70" />
      <note Length="0.0208333333333333" Pitch="51" RiffPosition="11.1041666666667" Velocity="38" />
      <note Length="0.0208333333333333" Pitch="51" RiffPosition="11.125" Velocity="49" />
      <note Length="0.0208333333333333" Pitch="55" RiffPosition="11.1458333333333" Velocity="37" />
      <note Length="0.0208333333333333" Pitch="57" RiffPosition="11.1666666666667" Velocity="69" />
      <note Length="0.03125" Pitch="55" RiffPosition="11.1875" Velocity="41" />
      <note Length="0.03125" Pitch="55" RiffPosition="11.21875" Velocity="79" />
      <note Length="0.0104166666666667" Pitch="55" RiffPosition="11.25" Velocity="72" />
      <note Length="0.0104166666666667" Pitch="55" RiffPosition="11.2604166666667" Velocity="48" />
      <note Length="0.0104166666666667" Pitch="58" RiffPosition="11.2708333333333" Velocity="48" />
      <note Length="0.015625" Pitch="60" RiffPosition="11.28125" Velocity="45" />
      <note Length="0.015625" Pitch="60" RiffPosition="11.296875" Velocity="52" />
      <note Length="0.015625" Pitch="62" RiffPosition="11.3125" Velocity="52" />
      <note Length="0.015625" Pitch="58" RiffPosition="11.328125" Velocity="43" />
      <note Length="0.015625" Pitch="58" RiffPosition="11.34375" Velocity="68" />
      <note Length="0.015625" Pitch="55" RiffPosition="11.359375" Velocity="51" />
      <note Length="0.0234375" Pitch="55" RiffPosition="11.375" Velocity="65" />
      <note Length="0.0234375" Pitch="51" RiffPosition="11.3984375" Velocity="50" />
      <note Length="0.015625" Pitch="53" RiffPosition="11.421875" Velocity="50" />
      <note Length="0.03125" Pitch="53" RiffPosition="11.4375" Velocity="44" />
      <note Length="0.015625" Pitch="50" RiffPosition="11.46875" Velocity="64" />
      <note Length="0.046875" Pitch="48" RiffPosition="11.484375" Velocity="70" />
      <note Length="0.09375" Pitch="55" RiffPosition="11.53125" Velocity="68" />
      <note Length="0.0234375" Pitch="55" RiffPosition="11.625" Velocity="40" />
      <note Length="0.0234375" Pitch="57" RiffPosition="11.6484375" Velocity="63" />
      <note Length="0.0234375" Pitch="57" RiffPosition="11.671875" Velocity="55" />
      <note Length="0.0234375" Pitch="55" RiffPosition="11.6953125" Velocity="47" />
      <note Length="0.0078125" Pitch="48" RiffPosition="11.71875" Velocity="57" />
      <note Length="0.0078125" Pitch="45" RiffPosition="11.7265625" Velocity="60" />
      <note Length="0.015625" Pitch="45" RiffPosition="11.734375" Velocity="63" />
      <note Length="0.015625" Pitch="45" RiffPosition="11.75" Velocity="62" />
      <note Length="0.015625" Pitch="50" RiffPosition="11.765625" Velocity="67" />
      <note Length="0.015625" Pitch="53" RiffPosition="11.78125" Velocity="49" />
      <note Length="0.015625" Pitch="57" RiffPosition="11.796875" Velocity="46" />
      <note Length="0.0104166666666667" Pitch="58" RiffPosition="11.8125" Velocity="39" />
      <note Length="0.0104166666666667" Pitch="58" RiffPosition="11.8229166666667" Velocity="59" />
      <note Length="0.0104166666666667" Pitch="55" RiffPosition="11.8333333333333" Velocity="63" />
      <note Length="0.015625" Pitch="57" RiffPosition="11.84375" Velocity="92" />
      <note Length="0.015625" Pitch="55" RiffPosition="11.859375" Velocity="92" />
      <note Length="0.03125" Pitch="55" RiffPosition="11.875" Velocity="101" />
      <note Length="0.03125" Pitch="58" RiffPosition="11.90625" Velocity="40" />
      <note Length="0.0234375" Pitch="58" RiffPosition="11.9375" Velocity="55" />
      <note Length="0.0234375" Pitch="55" RiffPosition="11.9609375" Velocity="41" />
      <note Length="0.00390625" Pitch="51" RiffPosition="11.984375" Velocity="66" />
      <note Length="0.01171875" Pitch="51" RiffPosition="11.98828125" Velocity="66" />
      <note Length="0.03125" Pitch="51" RiffPosition="12" Velocity="35" />
      <note Length="0.03125" Pitch="55" RiffPosition="12.03125" Velocity="98" />
      <note Length="0.0208333333333333" Pitch="55" RiffPosition="12.0625" Velocity="93" />
      <note Length="0.0208333333333333" Pitch="55" RiffPosition="12.0833333333333" Velocity="60" />
      <note Length="0.0208333333333333" Pitch="53" RiffPosition="12.1041666666667" Velocity="51" />
      <note Length="0.0208333333333333" Pitch="53" RiffPosition="12.125" Velocity="35" />
      <note Length="0.0208333333333333" Pitch="53" RiffPosition="12.1458333333333" Velocity="51" />
      <note Length="0.0208333333333333" Pitch="55" RiffPosition="12.1666666666667" Velocity="59" />
      <note Length="0.03125" Pitch="55" RiffPosition="12.1875" Velocity="39" />
      <note Length="0.03125" Pitch="55" RiffPosition="12.21875" Velocity="65" />
      <note Length="0.0104166666666667" Pitch="53" RiffPosition="12.25" Velocity="59" />
      <note Length="0.0104166666666667" Pitch="53" RiffPosition="12.2604166666667" Velocity="58" />
      <note Length="0.0104166666666667" Pitch="57" RiffPosition="12.2708333333333" Velocity="59" />
      <note Length="0.015625" Pitch="58" RiffPosition="12.28125" Velocity="35" />
      <note Length="0.015625" Pitch="63" RiffPosition="12.296875" Velocity="42" />
      <note Length="0.015625" Pitch="63" RiffPosition="12.3125" Velocity="42" />
      <note Length="0.015625" Pitch="60" RiffPosition="12.328125" Velocity="41" />
      <note Length="0.015625" Pitch="60" RiffPosition="12.34375" Velocity="54" />
      <note Length="0.015625" Pitch="53" RiffPosition="12.359375" Velocity="61" />
      <note Length="0.0234375" Pitch="53" RiffPosition="12.375" Velocity="75" />
      <note Length="0.0234375" Pitch="53" RiffPosition="12.3984375" Velocity="60" />
      <note Length="0.015625" Pitch="55" RiffPosition="12.421875" Velocity="64" />
      <note Length="0.03125" Pitch="53" RiffPosition="12.4375" Velocity="58" />
      <note Length="0.015625" Pitch="48" RiffPosition="12.46875" Velocity="74" />
      <note Length="0.046875" Pitch="46" RiffPosition="12.484375" Velocity="80" />
      <note Length="0.09375" Pitch="57" RiffPosition="12.53125" Velocity="82" />
      <note Length="0.0234375" Pitch="58" RiffPosition="12.625" Velocity="40" />
      <note Length="0.0234375" Pitch="58" RiffPosition="12.6484375" Velocity="77" />
      <note Length="0.0234375" Pitch="55" RiffPosition="12.671875" Velocity="69" />
      <note Length="0.0234375" Pitch="53" RiffPosition="12.6953125" Velocity="37" />
      <note Length="0.0078125" Pitch="50" RiffPosition="12.71875" Velocity="67" />
      <note Length="0.0078125" Pitch="45" RiffPosition="12.7265625" Velocity="70" />
      <note Length="0.015625" Pitch="46" RiffPosition="12.734375" Velocity="73" />
      <note Length="0.015625" Pitch="46" RiffPosition="12.75" Velocity="48" />
      <note Length="0.015625" Pitch="51" RiffPosition="12.765625" Velocity="54" />
      <note Length="0.015625" Pitch="50" RiffPosition="12.78125" Velocity="36" />
      <note Length="0.015625" Pitch="55" RiffPosition="12.796875" Velocity="36" />
      <note Length="0.0104166666666667" Pitch="57" RiffPosition="12.8125" Velocity="41" />
      <note Length="0.0104166666666667" Pitch="58" RiffPosition="12.8229166666667" Velocity="69" />
      <note Length="0.0104166666666667" Pitch="57" RiffPosition="12.8333333333333" Velocity="73" />
      <note Length="0.015625" Pitch="58" RiffPosition="12.84375" Velocity="102" />
      <note Length="0.015625" Pitch="57" RiffPosition="12.859375" Velocity="79" />
      <note Length="0.03125" Pitch="57" RiffPosition="12.875" Velocity="87" />
      <note Length="0.03125" Pitch="57" RiffPosition="12.90625" Velocity="40" />
      <note Length="0.0234375" Pitch="58" RiffPosition="12.9375" Velocity="44" />
      <note Length="0.0234375" Pitch="55" RiffPosition="12.9609375" Velocity="43" />
      <note Length="0.00390625" Pitch="53" RiffPosition="12.984375" Velocity="52" />
      <note Length="0.01171875" Pitch="50" RiffPosition="12.98828125" Velocity="52" />
      <note Length="0.03125" Pitch="50" RiffPosition="13" Velocity="0" />
      <note Length="0.03125" Pitch="55" RiffPosition="13.03125" Velocity="0" />
      <note Length="0.0208333333333333" Pitch="58" RiffPosition="13.0625" Velocity="0" />
      <note Length="0.0208333333333333" Pitch="55" RiffPosition="13.0833333333333" Velocity="0" />
      <note Length="0.0208333333333333" Pitch="51" RiffPosition="13.1041666666667" Velocity="0" />
      <note Length="0.0208333333333333" Pitch="51" RiffPosition="13.125" Velocity="0" />
      <note Length="0.0208333333333333" Pitch="55" RiffPosition="13.1458333333333" Velocity="0" />
      <note Length="0.0208333333333333" Pitch="55" RiffPosition="13.1666666666667" Velocity="0" />
      <note Length="0.03125" Pitch="57" RiffPosition="13.1875" Velocity="0" />
      <note Length="0.03125" Pitch="53" RiffPosition="13.21875" Velocity="0" />
      <note Length="0.0104166666666667" Pitch="55" RiffPosition="13.25" Velocity="0" />
      <note Length="0.0104166666666667" Pitch="55" RiffPosition="13.2604166666667" Velocity="0" />
      <note Length="0.0104166666666667" Pitch="58" RiffPosition="13.2708333333333" Velocity="0" />
      <note Length="0.015625" Pitch="58" RiffPosition="13.28125" Velocity="0" />
      <note Length="0.015625" Pitch="63" RiffPosition="13.296875" Velocity="0" />
      <note Length="0.015625" Pitch="62" RiffPosition="13.3125" Velocity="0" />
      <note Length="0.015625" Pitch="58" RiffPosition="13.328125" Velocity="0" />
      <note Length="0.015625" Pitch="58" RiffPosition="13.34375" Velocity="0" />
      <note Length="0.015625" Pitch="55" RiffPosition="13.359375" Velocity="0" />
      <note Length="0.0234375" Pitch="53" RiffPosition="13.375" Velocity="0" />
      <note Length="0.0234375" Pitch="55" RiffPosition="13.3984375" Velocity="0" />
      <note Length="0.015625" Pitch="53" RiffPosition="13.421875" Velocity="0" />
      <note Length="0.03125" Pitch="51" RiffPosition="13.4375" Velocity="0" />
      <note Length="0.015625" Pitch="50" RiffPosition="13.46875" Velocity="0" />
      <note Length="0.046875" Pitch="48" RiffPosition="13.484375" Velocity="0" />
      <note Length="0.09375" Pitch="55" RiffPosition="13.53125" Velocity="0" />
      <note Length="0.0234375" Pitch="55" RiffPosition="13.625" Velocity="0" />
      <note Length="0.0234375" Pitch="57" RiffPosition="13.6484375" Velocity="0" />
      <note Length="0.0234375" Pitch="57" RiffPosition="13.671875" Velocity="0" />
      <note Length="0.0234375" Pitch="55" RiffPosition="13.6953125" Velocity="0" />
      <note Length="0.0078125" Pitch="50" RiffPosition="13.71875" Velocity="0" />
      <note Length="0.0078125" Pitch="48" RiffPosition="13.7265625" Velocity="0" />
      <note Length="0.015625" Pitch="45" RiffPosition="13.734375" Velocity="0" />
      <note Length="0.015625" Pitch="45" RiffPosition="13.75" Velocity="0" />
      <note Length="0.015625" Pitch="50" RiffPosition="13.765625" Velocity="0" />
      <note Length="0.015625" Pitch="53" RiffPosition="13.78125" Velocity="0" />
      <note Length="0.015625" Pitch="55" RiffPosition="13.796875" Velocity="0" />
      <note Length="0.0104166666666667" Pitch="58" RiffPosition="13.8125" Velocity="0" />
      <note Length="0.0104166666666667" Pitch="60" RiffPosition="13.8229166666667" Velocity="0" />
      <note Length="0.0104166666666667" Pitch="58" RiffPosition="13.8333333333333" Velocity="0" />
      <note Length="0.015625" Pitch="57" RiffPosition="13.84375" Velocity="0" />
      <note Length="0.015625" Pitch="55" RiffPosition="13.859375" Velocity="0" />
      <note Length="0.03125" Pitch="55" RiffPosition="13.875" Velocity="0" />
      <note Length="0.03125" Pitch="58" RiffPosition="13.90625" Velocity="0" />
      <note Length="0.0234375" Pitch="60" RiffPosition="13.9375" Velocity="0" />
      <note Length="0.0234375" Pitch="55" RiffPosition="13.9609375" Velocity="0" />
      <note Length="0.00390625" Pitch="51" RiffPosition="13.984375" Velocity="0" />
      <note Length="0.01171875" Pitch="51" RiffPosition="13.98828125" Velocity="0" />
    </riff>
    <riff IsDrum="True" MidiInstrument="0" Tempo="132" Length="14">
      <note Length="0.03125" Pitch="40" RiffPosition="0" Velocity="0" />
      <note Length="0.03125" Pitch="40" RiffPosition="0.03125" Velocity="0" />
      <note Length="0.03125" Pitch="40" RiffPosition="0.0625" Velocity="0" />
      <note Length="0.03125" Pitch="40" RiffPosition="0.09375" Velocity="0" />
      <note Length="0.03125" Pitch="40" RiffPosition="0.125" Velocity="0" />
      <note Length="0.03125" Pitch="40" RiffPosition="0.15625" Velocity="0" />
      <note Length="0.03125" Pitch="40" RiffPosition="0.1875" Velocity="0" />
      <note Length="0.03125" Pitch="40" RiffPosition="0.21875" Velocity="0" />
      <note Length="0.03125" Pitch="40" RiffPosition="0.25" Velocity="0" />
      <note Length="0.03125" Pitch="40" RiffPosition="0.28125" Velocity="0" />
      <note Length="0.03125" Pitch="40" RiffPosition="0.3125" Velocity="0" />
      <note Length="0.03125" Pitch="40" RiffPosition="0.34375" Velocity="0" />
      <note Length="0.03125" Pitch="40" RiffPosition="0.375" Velocity="0" />
      <note Length="0.03125" Pitch="40" RiffPosition="0.40625" Velocity="0" />
      <note Length="0.03125" Pitch="40" RiffPosition="0.4375" Velocity="0" />
      <note Length="0.03125" Pitch="40" RiffPosition="0.46875" Velocity="0" />
      <note Length="0.03125" Pitch="40" RiffPosition="0.5" Velocity="0" />
      <note Length="0.03125" Pitch="40" RiffPosition="0.53125" Velocity="0" />
      <note Length="0.03125" Pitch="40" RiffPosition="0.5625" Velocity="0" />
      <note Length="0.03125" Pitch="40" RiffPosition="0.59375" Velocity="0" />
      <note Length="0.03125" Pitch="40" RiffPosition="0.625" Velocity="0" />
      <note Length="0.03125" Pitch="40" RiffPosition="0.65625" Velocity="0" />
      <note Length="0.03125" Pitch="40" RiffPosition="0.6875" Velocity="0" />
      <note Length="0.03125" Pitch="40" RiffPosition="0.71875" Velocity="0" />
      <note Length="0.03125" Pitch="40" RiffPosition="0.75" Velocity="0" />
      <note Length="0.03125" Pitch="40" RiffPosition="0.78125" Velocity="0" />
      <note Length="0.03125" Pitch="40" RiffPosition="0.8125" Velocity="0" />
      <note Length="0.03125" Pitch="40" RiffPosition="0.84375" Velocity="0" />
      <note Length="0.03125" Pitch="40" RiffPosition="0.875" Velocity="0" />
      <note Length="0.03125" Pitch="40" RiffPosition="0.90625" Velocity="0" />
      <note Length="0.03125" Pitch="40" RiffPosition="0.9375" Velocity="0" />
      <note Length="0.03125" Pitch="40" RiffPosition="0.96875" Velocity="0" />
      <note Length="0.03125" Pitch="40" RiffPosition="1" Velocity="0" />
      <note Length="0.03125" Pitch="40" RiffPosition="1.03125" Velocity="0" />
      <note Length="0.03125" Pitch="40" RiffPosition="1.0625" Velocity="0" />
      <note Length="0.03125" Pitch="40" RiffPosition="1.09375" Velocity="0" />
      <note Length="0.03125" Pitch="40" RiffPosition="1.125" Velocity="0" />
      <note Length="0.03125" Pitch="40" RiffPosition="1.15625" Velocity="0" />
      <note Length="0.03125" Pitch="40" RiffPosition="1.1875" Velocity="0" />
      <note Length="0.03125" Pitch="40" RiffPosition="1.21875" Velocity="0" />
      <note Length="0.03125" Pitch="40" RiffPosition="1.25" Velocity="0" />
      <note Length="0.03125" Pitch="40" RiffPosition="1.28125" Velocity="0" />
      <note Length="0.03125" Pitch="40" RiffPosition="1.3125" Velocity="0" />
      <note Length="0.03125" Pitch="40" RiffPosition="1.34375" Velocity="0" />
      <note Length="0.03125" Pitch="40" RiffPosition="1.375" Velocity="0" />
      <note Length="0.03125" Pitch="40" RiffPosition="1.40625" Velocity="0" />
      <note Length="0.03125" Pitch="40" RiffPosition="1.4375" Velocity="0" />
      <note Length="0.03125" Pitch="40" RiffPosition="1.46875" Velocity="0" />
      <note Length="0.03125" Pitch="40" RiffPosition="1.5" Velocity="0" />
      <note Length="0.03125" Pitch="40" RiffPosition="1.53125" Velocity="0" />
      <note Length="0.03125" Pitch="40" RiffPosition="1.5625" Velocity="0" />
      <note Length="0.03125" Pitch="40" RiffPosition="1.59375" Velocity="0" />
      <note Length="0.03125" Pitch="40" RiffPosition="1.625" Velocity="0" />
      <note Length="0.03125" Pitch="40" RiffPosition="1.65625" Velocity="0" />
      <note Length="0.03125" Pitch="40" RiffPosition="1.6875" Velocity="0" />
      <note Length="0.03125" Pitch="40" RiffPosition="1.71875" Velocity="0" />
      <note Length="0.03125" Pitch="40" RiffPosition="1.75" Velocity="0" />
      <note Length="0.03125" Pitch="40" RiffPosition="1.78125" Velocity="0" />
      <note Length="0.03125" Pitch="40" RiffPosition="1.8125" Velocity="0" />
      <note Length="0.03125" Pitch="40" RiffPosition="1.84375" Velocity="0" />
      <note Length="0.03125" Pitch="40" RiffPosition="1.875" Velocity="0" />
      <note Length="0.03125" Pitch="40" RiffPosition="1.90625" Velocity="0" />
      <note Length="0.03125" Pitch="40" RiffPosition="1.9375" Velocity="0" />
      <note Length="0.03125" Pitch="40" RiffPosition="1.96875" Velocity="0" />
      <note Length="0.03125" Pitch="40" RiffPosition="2" Velocity="0" />
      <note Length="0.03125" Pitch="40" RiffPosition="2.03125" Velocity="0" />
      <note Length="0.03125" Pitch="40" RiffPosition="2.0625" Velocity="0" />
      <note Length="0.03125" Pitch="40" RiffPosition="2.09375" Velocity="0" />
      <note Length="0.03125" Pitch="40" RiffPosition="2.125" Velocity="0" />
      <note Length="0.03125" Pitch="40" RiffPosition="2.15625" Velocity="0" />
      <note Length="0.03125" Pitch="40" RiffPosition="2.1875" Velocity="0" />
      <note Length="0.03125" Pitch="40" RiffPosition="2.21875" Velocity="0" />
      <note Length="0.03125" Pitch="40" RiffPosition="2.25" Velocity="0" />
      <note Length="0.03125" Pitch="40" RiffPosition="2.28125" Velocity="0" />
      <note Length="0.03125" Pitch="40" RiffPosition="2.3125" Velocity="0" />
      <note Length="0.03125" Pitch="40" RiffPosition="2.34375" Velocity="0" />
      <note Length="0.03125" Pitch="40" RiffPosition="2.375" Velocity="0" />
      <note Length="0.03125" Pitch="40" RiffPosition="2.40625" Velocity="0" />
      <note Length="0.03125" Pitch="40" RiffPosition="2.4375" Velocity="0" />
      <note Length="0.03125" Pitch="40" RiffPosition="2.46875" Velocity="0" />
      <note Length="0.03125" Pitch="40" RiffPosition="2.5" Velocity="0" />
      <note Length="0.03125" Pitch="40" RiffPosition="2.53125" Velocity="0" />
      <note Length="0.03125" Pitch="40" RiffPosition="2.5625" Velocity="0" />
      <note Length="0.03125" Pitch="40" RiffPosition="2.59375" Velocity="0" />
      <note Length="0.03125" Pitch="40" RiffPosition="2.625" Velocity="0" />
      <note Length="0.03125" Pitch="40" RiffPosition="2.65625" Velocity="0" />
      <note Length="0.03125" Pitch="40" RiffPosition="2.6875" Velocity="0" />
      <note Length="0.03125" Pitch="40" RiffPosition="2.71875" Velocity="0" />
      <note Length="0.03125" Pitch="40" RiffPosition="2.75" Velocity="0" />
      <note Length="0.03125" Pitch="40" RiffPosition="2.78125" Velocity="0" />
      <note Length="0.03125" Pitch="40" RiffPosition="2.8125" Velocity="0" />
      <note Length="0.03125" Pitch="40" RiffPosition="2.84375" Velocity="0" />
      <note Length="0.03125" Pitch="40" RiffPosition="2.875" Velocity="0" />
      <note Length="0.03125" Pitch="40" RiffPosition="2.90625" Velocity="0" />
      <note Length="0.03125" Pitch="40" RiffPosition="2.9375" Velocity="0" />
      <note Length="0.03125" Pitch="40" RiffPosition="2.96875" Velocity="0" />
      <note Length="0.03125" Pitch="40" RiffPosition="3" Velocity="0" />
      <note Length="0.03125" Pitch="40" RiffPosition="3.03125" Velocity="0" />
      <note Length="0.03125" Pitch="40" RiffPosition="3.0625" Velocity="0" />
      <note Length="0.03125" Pitch="40" RiffPosition="3.09375" Velocity="0" />
      <note Length="0.03125" Pitch="40" RiffPosition="3.125" Velocity="0" />
      <note Length="0.03125" Pitch="40" RiffPosition="3.15625" Velocity="0" />
      <note Length="0.03125" Pitch="40" RiffPosition="3.1875" Velocity="0" />
      <note Length="0.03125" Pitch="40" RiffPosition="3.21875" Velocity="0" />
      <note Length="0.03125" Pitch="40" RiffPosition="3.25" Velocity="0" />
      <note Length="0.03125" Pitch="40" RiffPosition="3.28125" Velocity="0" />
      <note Length="0.03125" Pitch="40" RiffPosition="3.3125" Velocity="0" />
      <note Length="0.03125" Pitch="40" RiffPosition="3.34375" Velocity="0" />
      <note Length="0.03125" Pitch="40" RiffPosition="3.375" Velocity="0" />
      <note Length="0.03125" Pitch="40" RiffPosition="3.40625" Velocity="0" />
      <note Length="0.03125" Pitch="40" RiffPosition="3.4375" Velocity="0" />
      <note Length="0.03125" Pitch="40" RiffPosition="3.46875" Velocity="0" />
      <note Length="0.03125" Pitch="40" RiffPosition="3.5" Velocity="0" />
      <note Length="0.03125" Pitch="40" RiffPosition="3.53125" Velocity="0" />
      <note Length="0.03125" Pitch="40" RiffPosition="3.5625" Velocity="0" />
      <note Length="0.03125" Pitch="40" RiffPosition="3.59375" Velocity="0" />
      <note Length="0.03125" Pitch="40" RiffPosition="3.625" Velocity="0" />
      <note Length="0.03125" Pitch="40" RiffPosition="3.65625" Velocity="0" />
      <note Length="0.03125" Pitch="40" RiffPosition="3.6875" Velocity="0" />
      <note Length="0.03125" Pitch="40" RiffPosition="3.71875" Velocity="0" />
      <note Length="0.03125" Pitch="40" RiffPosition="3.75" Velocity="0" />
      <note Length="0.03125" Pitch="40" RiffPosition="3.78125" Velocity="0" />
      <note Length="0.03125" Pitch="40" RiffPosition="3.8125" Velocity="0" />
      <note Length="0.03125" Pitch="40" RiffPosition="3.84375" Velocity="0" />
      <note Length="0.03125" Pitch="40" RiffPosition="3.875" Velocity="0" />
      <note Length="0.03125" Pitch="40" RiffPosition="3.90625" Velocity="0" />
      <note Length="0.03125" Pitch="40" RiffPosition="3.9375" Velocity="0" />
      <note Length="0.03125" Pitch="40" RiffPosition="3.96875" Velocity="0" />
      <note Length="0.03125" Pitch="40" RiffPosition="4" Velocity="0" />
      <note Length="0.03125" Pitch="40" RiffPosition="4.03125" Velocity="0" />
      <note Length="0.03125" Pitch="40" RiffPosition="4.0625" Velocity="0" />
      <note Length="0.03125" Pitch="40" RiffPosition="4.09375" Velocity="0" />
      <note Length="0.03125" Pitch="40" RiffPosition="4.125" Velocity="0" />
      <note Length="0.03125" Pitch="40" RiffPosition="4.15625" Velocity="0" />
      <note Length="0.03125" Pitch="40" RiffPosition="4.1875" Velocity="0" />
      <note Length="0.03125" Pitch="40" RiffPosition="4.21875" Velocity="0" />
      <note Length="0.03125" Pitch="40" RiffPosition="4.25" Velocity="0" />
      <note Length="0.03125" Pitch="40" RiffPosition="4.28125" Velocity="0" />
      <note Length="0.03125" Pitch="40" RiffPosition="4.3125" Velocity="0" />
      <note Length="0.03125" Pitch="40" RiffPosition="4.34375" Velocity="0" />
      <note Length="0.03125" Pitch="40" RiffPosition="4.375" Velocity="0" />
      <note Length="0.03125" Pitch="40" RiffPosition="4.40625" Velocity="0" />
      <note Length="0.03125" Pitch="40" RiffPosition="4.4375" Velocity="0" />
      <note Length="0.03125" Pitch="40" RiffPosition="4.46875" Velocity="0" />
      <note Length="0.03125" Pitch="40" RiffPosition="4.5" Velocity="0" />
      <note Length="0.03125" Pitch="40" RiffPosition="4.53125" Velocity="0" />
      <note Length="0.03125" Pitch="40" RiffPosition="4.5625" Velocity="0" />
      <note Length="0.03125" Pitch="40" RiffPosition="4.59375" Velocity="0" />
      <note Length="0.03125" Pitch="40" RiffPosition="4.625" Velocity="0" />
      <note Length="0.03125" Pitch="40" RiffPosition="4.65625" Velocity="0" />
      <note Length="0.03125" Pitch="40" RiffPosition="4.6875" Velocity="0" />
      <note Length="0.03125" Pitch="40" RiffPosition="4.71875" Velocity="0" />
      <note Length="0.03125" Pitch="40" RiffPosition="4.75" Velocity="0" />
      <note Length="0.03125" Pitch="40" RiffPosition="4.78125" Velocity="0" />
      <note Length="0.03125" Pitch="40" RiffPosition="4.8125" Velocity="0" />
      <note Length="0.03125" Pitch="40" RiffPosition="4.84375" Velocity="0" />
      <note Length="0.03125" Pitch="40" RiffPosition="4.875" Velocity="0" />
      <note Length="0.03125" Pitch="40" RiffPosition="4.90625" Velocity="0" />
      <note Length="0.03125" Pitch="40" RiffPosition="4.9375" Velocity="0" />
      <note Length="0.03125" Pitch="40" RiffPosition="4.96875" Velocity="0" />
      <note Length="0.03125" Pitch="40" RiffPosition="5" Velocity="0" />
      <note Length="0.03125" Pitch="40" RiffPosition="5.03125" Velocity="0" />
      <note Length="0.03125" Pitch="40" RiffPosition="5.0625" Velocity="0" />
      <note Length="0.03125" Pitch="40" RiffPosition="5.09375" Velocity="0" />
      <note Length="0.03125" Pitch="40" RiffPosition="5.125" Velocity="0" />
      <note Length="0.03125" Pitch="40" RiffPosition="5.15625" Velocity="0" />
      <note Length="0.03125" Pitch="40" RiffPosition="5.1875" Velocity="0" />
      <note Length="0.03125" Pitch="40" RiffPosition="5.21875" Velocity="0" />
      <note Length="0.03125" Pitch="40" RiffPosition="5.25" Velocity="0" />
      <note Length="0.03125" Pitch="40" RiffPosition="5.28125" Velocity="0" />
      <note Length="0.03125" Pitch="40" RiffPosition="5.3125" Velocity="0" />
      <note Length="0.03125" Pitch="40" RiffPosition="5.34375" Velocity="0" />
      <note Length="0.03125" Pitch="40" RiffPosition="5.375" Velocity="0" />
      <note Length="0.03125" Pitch="40" RiffPosition="5.40625" Velocity="0" />
      <note Length="0.03125" Pitch="40" RiffPosition="5.4375" Velocity="0" />
      <note Length="0.03125" Pitch="40" RiffPosition="5.46875" Velocity="0" />
      <note Length="0.03125" Pitch="40" RiffPosition="5.5" Velocity="0" />
      <note Length="0.03125" Pitch="40" RiffPosition="5.53125" Velocity="0" />
      <note Length="0.03125" Pitch="40" RiffPosition="5.5625" Velocity="0" />
      <note Length="0.03125" Pitch="40" RiffPosition="5.59375" Velocity="0" />
      <note Length="0.03125" Pitch="40" RiffPosition="5.625" Velocity="0" />
      <note Length="0.03125" Pitch="40" RiffPosition="5.65625" Velocity="0" />
      <note Length="0.03125" Pitch="40" RiffPosition="5.6875" Velocity="0" />
      <note Length="0.03125" Pitch="40" RiffPosition="5.71875" Velocity="0" />
      <note Length="0.03125" Pitch="40" RiffPosition="5.75" Velocity="0" />
      <note Length="0.03125" Pitch="40" RiffPosition="5.78125" Velocity="0" />
      <note Length="0.03125" Pitch="40" RiffPosition="5.8125" Velocity="0" />
      <note Length="0.03125" Pitch="40" RiffPosition="5.84375" Velocity="0" />
      <note Length="0.03125" Pitch="40" RiffPosition="5.875" Velocity="0" />
      <note Length="0.03125" Pitch="40" RiffPosition="5.90625" Velocity="0" />
      <note Length="0.03125" Pitch="40" RiffPosition="5.9375" Velocity="0" />
      <note Length="0.03125" Pitch="40" RiffPosition="5.96875" Velocity="0" />
      <note Length="0.03125" Pitch="40" RiffPosition="6" Velocity="0" />
      <note Length="0.03125" Pitch="40" RiffPosition="6.03125" Velocity="0" />
      <note Length="0.03125" Pitch="40" RiffPosition="6.0625" Velocity="0" />
      <note Length="0.03125" Pitch="40" RiffPosition="6.09375" Velocity="0" />
      <note Length="0.03125" Pitch="40" RiffPosition="6.125" Velocity="0" />
      <note Length="0.03125" Pitch="40" RiffPosition="6.15625" Velocity="0" />
      <note Length="0.03125" Pitch="40" RiffPosition="6.1875" Velocity="0" />
      <note Length="0.03125" Pitch="40" RiffPosition="6.21875" Velocity="0" />
      <note Length="0.03125" Pitch="40" RiffPosition="6.25" Velocity="0" />
      <note Length="0.03125" Pitch="40" RiffPosition="6.28125" Velocity="0" />
      <note Length="0.03125" Pitch="40" RiffPosition="6.3125" Velocity="0" />
      <note Length="0.03125" Pitch="40" RiffPosition="6.34375" Velocity="0" />
      <note Length="0.03125" Pitch="40" RiffPosition="6.375" Velocity="0" />
      <note Length="0.03125" Pitch="40" RiffPosition="6.40625" Velocity="0" />
      <note Length="0.03125" Pitch="40" RiffPosition="6.4375" Velocity="0" />
      <note Length="0.03125" Pitch="40" RiffPosition="6.46875" Velocity="0" />
      <note Length="0.03125" Pitch="40" RiffPosition="6.5" Velocity="0" />
      <note Length="0.03125" Pitch="40" RiffPosition="6.53125" Velocity="0" />
      <note Length="0.03125" Pitch="40" RiffPosition="6.5625" Velocity="0" />
      <note Length="0.03125" Pitch="40" RiffPosition="6.59375" Velocity="0" />
      <note Length="0.03125" Pitch="40" RiffPosition="6.625" Velocity="0" />
      <note Length="0.03125" Pitch="40" RiffPosition="6.65625" Velocity="0" />
      <note Length="0.03125" Pitch="40" RiffPosition="6.6875" Velocity="0" />
      <note Length="0.03125" Pitch="40" RiffPosition="6.71875" Velocity="0" />
      <note Length="0.03125" Pitch="40" RiffPosition="6.75" Velocity="0" />
      <note Length="0.03125" Pitch="40" RiffPosition="6.78125" Velocity="0" />
      <note Length="0.03125" Pitch="40" RiffPosition="6.8125" Velocity="0" />
      <note Length="0.03125" Pitch="40" RiffPosition="6.84375" Velocity="0" />
      <note Length="0.03125" Pitch="40" RiffPosition="6.875" Velocity="0" />
      <note Length="0.03125" Pitch="40" RiffPosition="6.90625" Velocity="0" />
      <note Length="0.03125" Pitch="40" RiffPosition="6.9375" Velocity="0" />
      <note Length="0.03125" Pitch="40" RiffPosition="6.96875" Velocity="0" />
      <note Length="0.03125" Pitch="40" RiffPosition="7" Velocity="0" />
      <note Length="0.03125" Pitch="40" RiffPosition="7.03125" Velocity="0" />
      <note Length="0.03125" Pitch="40" RiffPosition="7.0625" Velocity="0" />
      <note Length="0.03125" Pitch="40" RiffPosition="7.09375" Velocity="0" />
      <note Length="0.03125" Pitch="40" RiffPosition="7.125" Velocity="0" />
      <note Length="0.03125" Pitch="40" RiffPosition="7.15625" Velocity="0" />
      <note Length="0.03125" Pitch="40" RiffPosition="7.1875" Velocity="0" />
      <note Length="0.03125" Pitch="40" RiffPosition="7.21875" Velocity="0" />
      <note Length="0.03125" Pitch="40" RiffPosition="7.25" Velocity="0" />
      <note Length="0.03125" Pitch="40" RiffPosition="7.28125" Velocity="0" />
      <note Length="0.03125" Pitch="40" RiffPosition="7.3125" Velocity="0" />
      <note Length="0.03125" Pitch="40" RiffPosition="7.34375" Velocity="0" />
      <note Length="0.03125" Pitch="40" RiffPosition="7.375" Velocity="0" />
      <note Length="0.03125" Pitch="40" RiffPosition="7.40625" Velocity="0" />
      <note Length="0.03125" Pitch="40" RiffPosition="7.4375" Velocity="0" />
      <note Length="0.03125" Pitch="40" RiffPosition="7.46875" Velocity="0" />
      <note Length="0.03125" Pitch="40" RiffPosition="7.5" Velocity="0" />
      <note Length="0.03125" Pitch="40" RiffPosition="7.53125" Velocity="0" />
      <note Length="0.03125" Pitch="40" RiffPosition="7.5625" Velocity="0" />
      <note Length="0.03125" Pitch="40" RiffPosition="7.59375" Velocity="0" />
      <note Length="0.03125" Pitch="40" RiffPosition="7.625" Velocity="0" />
      <note Length="0.03125" Pitch="40" RiffPosition="7.65625" Velocity="0" />
      <note Length="0.03125" Pitch="40" RiffPosition="7.6875" Velocity="0" />
      <note Length="0.03125" Pitch="40" RiffPosition="7.71875" Velocity="0" />
      <note Length="0.03125" Pitch="40" RiffPosition="7.75" Velocity="0" />
      <note Length="0.03125" Pitch="40" RiffPosition="7.78125" Velocity="0" />
      <note Length="0.03125" Pitch="40" RiffPosition="7.8125" Velocity="0" />
      <note Length="0.03125" Pitch="40" RiffPosition="7.84375" Velocity="0" />
      <note Length="0.03125" Pitch="40" RiffPosition="7.875" Velocity="0" />
      <note Length="0.03125" Pitch="40" RiffPosition="7.90625" Velocity="0" />
      <note Length="0.03125" Pitch="40" RiffPosition="7.9375" Velocity="0" />
      <note Length="0.03125" Pitch="40" RiffPosition="7.96875" Velocity="0" />
      <note Length="0.03125" Pitch="40" RiffPosition="8" Velocity="0" />
      <note Length="0.03125" Pitch="40" RiffPosition="8.03125" Velocity="0" />
      <note Length="0.03125" Pitch="40" RiffPosition="8.0625" Velocity="0" />
      <note Length="0.03125" Pitch="40" RiffPosition="8.09375" Velocity="0" />
      <note Length="0.03125" Pitch="40" RiffPosition="8.125" Velocity="0" />
      <note Length="0.03125" Pitch="40" RiffPosition="8.15625" Velocity="0" />
      <note Length="0.03125" Pitch="40" RiffPosition="8.1875" Velocity="0" />
      <note Length="0.03125" Pitch="40" RiffPosition="8.21875" Velocity="0" />
      <note Length="0.03125" Pitch="40" RiffPosition="8.25" Velocity="0" />
      <note Length="0.03125" Pitch="40" RiffPosition="8.28125" Velocity="0" />
      <note Length="0.03125" Pitch="40" RiffPosition="8.3125" Velocity="0" />
      <note Length="0.03125" Pitch="40" RiffPosition="8.34375" Velocity="0" />
      <note Length="0.03125" Pitch="40" RiffPosition="8.375" Velocity="0" />
      <note Length="0.03125" Pitch="40" RiffPosition="8.40625" Velocity="0" />
      <note Length="0.03125" Pitch="40" RiffPosition="8.4375" Velocity="0" />
      <note Length="0.03125" Pitch="40" RiffPosition="8.46875" Velocity="0" />
      <note Length="0.03125" Pitch="40" RiffPosition="8.5" Velocity="0" />
      <note Length="0.03125" Pitch="40" RiffPosition="8.53125" Velocity="0" />
      <note Length="0.03125" Pitch="40" RiffPosition="8.5625" Velocity="0" />
      <note Length="0.03125" Pitch="40" RiffPosition="8.59375" Velocity="0" />
      <note Length="0.03125" Pitch="40" RiffPosition="8.625" Velocity="0" />
      <note Length="0.03125" Pitch="40" RiffPosition="8.65625" Velocity="0" />
      <note Length="0.03125" Pitch="40" RiffPosition="8.6875" Velocity="0" />
      <note Length="0.03125" Pitch="40" RiffPosition="8.71875" Velocity="0" />
      <note Length="0.03125" Pitch="40" RiffPosition="8.75" Velocity="0" />
      <note Length="0.03125" Pitch="40" RiffPosition="8.78125" Velocity="0" />
      <note Length="0.03125" Pitch="40" RiffPosition="8.8125" Velocity="0" />
      <note Length="0.03125" Pitch="40" RiffPosition="8.84375" Velocity="0" />
      <note Length="0.03125" Pitch="40" RiffPosition="8.875" Velocity="0" />
      <note Length="0.03125" Pitch="40" RiffPosition="8.90625" Velocity="0" />
      <note Length="0.03125" Pitch="40" RiffPosition="8.9375" Velocity="0" />
      <note Length="0.03125" Pitch="40" RiffPosition="8.96875" Velocity="0" />
      <note Length="0.03125" Pitch="40" RiffPosition="9" Velocity="0" />
      <note Length="0.03125" Pitch="40" RiffPosition="9.03125" Velocity="0" />
      <note Length="0.03125" Pitch="40" RiffPosition="9.0625" Velocity="0" />
      <note Length="0.03125" Pitch="40" RiffPosition="9.09375" Velocity="0" />
      <note Length="0.03125" Pitch="40" RiffPosition="9.125" Velocity="0" />
      <note Length="0.03125" Pitch="40" RiffPosition="9.15625" Velocity="0" />
      <note Length="0.03125" Pitch="40" RiffPosition="9.1875" Velocity="0" />
      <note Length="0.03125" Pitch="40" RiffPosition="9.21875" Velocity="0" />
      <note Length="0.03125" Pitch="40" RiffPosition="9.25" Velocity="0" />
      <note Length="0.03125" Pitch="40" RiffPosition="9.28125" Velocity="0" />
      <note Length="0.03125" Pitch="40" RiffPosition="9.3125" Velocity="0" />
      <note Length="0.03125" Pitch="40" RiffPosition="9.34375" Velocity="0" />
      <note Length="0.03125" Pitch="40" RiffPosition="9.375" Velocity="0" />
      <note Length="0.03125" Pitch="40" RiffPosition="9.40625" Velocity="0" />
      <note Length="0.03125" Pitch="40" RiffPosition="9.4375" Velocity="0" />
      <note Length="0.03125" Pitch="40" RiffPosition="9.46875" Velocity="0" />
      <note Length="0.03125" Pitch="40" RiffPosition="9.5" Velocity="0" />
      <note Length="0.03125" Pitch="40" RiffPosition="9.53125" Velocity="0" />
      <note Length="0.03125" Pitch="40" RiffPosition="9.5625" Velocity="0" />
      <note Length="0.03125" Pitch="40" RiffPosition="9.59375" Velocity="0" />
      <note Length="0.03125" Pitch="40" RiffPosition="9.625" Velocity="0" />
      <note Length="0.03125" Pitch="40" RiffPosition="9.65625" Velocity="0" />
      <note Length="0.03125" Pitch="40" RiffPosition="9.6875" Velocity="0" />
      <note Length="0.03125" Pitch="40" RiffPosition="9.71875" Velocity="0" />
      <note Length="0.03125" Pitch="40" RiffPosition="9.75" Velocity="0" />
      <note Length="0.03125" Pitch="40" RiffPosition="9.78125" Velocity="0" />
      <note Length="0.03125" Pitch="40" RiffPosition="9.8125" Velocity="0" />
      <note Length="0.03125" Pitch="40" RiffPosition="9.84375" Velocity="0" />
      <note Length="0.03125" Pitch="40" RiffPosition="9.875" Velocity="0" />
      <note Length="0.03125" Pitch="40" RiffPosition="9.90625" Velocity="0" />
      <note Length="0.03125" Pitch="40" RiffPosition="9.9375" Velocity="0" />
      <note Length="0.03125" Pitch="40" RiffPosition="9.96875" Velocity="0" />
      <note Length="0.03125" Pitch="40" RiffPosition="10" Velocity="0" />
      <note Length="0.03125" Pitch="40" RiffPosition="10.03125" Velocity="0" />
      <note Length="0.03125" Pitch="40" RiffPosition="10.0625" Velocity="0" />
      <note Length="0.03125" Pitch="40" RiffPosition="10.09375" Velocity="0" />
      <note Length="0.03125" Pitch="40" RiffPosition="10.125" Velocity="0" />
      <note Length="0.03125" Pitch="40" RiffPosition="10.15625" Velocity="0" />
      <note Length="0.03125" Pitch="40" RiffPosition="10.1875" Velocity="0" />
      <note Length="0.03125" Pitch="40" RiffPosition="10.21875" Velocity="0" />
      <note Length="0.03125" Pitch="40" RiffPosition="10.25" Velocity="0" />
      <note Length="0.03125" Pitch="40" RiffPosition="10.28125" Velocity="0" />
      <note Length="0.03125" Pitch="40" RiffPosition="10.3125" Velocity="0" />
      <note Length="0.03125" Pitch="40" RiffPosition="10.34375" Velocity="0" />
      <note Length="0.03125" Pitch="40" RiffPosition="10.375" Velocity="0" />
      <note Length="0.03125" Pitch="40" RiffPosition="10.40625" Velocity="0" />
      <note Length="0.03125" Pitch="40" RiffPosition="10.4375" Velocity="0" />
      <note Length="0.03125" Pitch="40" RiffPosition="10.46875" Velocity="0" />
      <note Length="0.03125" Pitch="40" RiffPosition="10.5" Velocity="0" />
      <note Length="0.03125" Pitch="40" RiffPosition="10.53125" Velocity="0" />
      <note Length="0.03125" Pitch="40" RiffPosition="10.5625" Velocity="0" />
      <note Length="0.03125" Pitch="40" RiffPosition="10.59375" Velocity="0" />
      <note Length="0.03125" Pitch="40" RiffPosition="10.625" Velocity="0" />
      <note Length="0.03125" Pitch="40" RiffPosition="10.65625" Velocity="0" />
      <note Length="0.03125" Pitch="40" RiffPosition="10.6875" Velocity="0" />
      <note Length="0.03125" Pitch="40" RiffPosition="10.71875" Velocity="0" />
      <note Length="0.03125" Pitch="40" RiffPosition="10.75" Velocity="0" />
      <note Length="0.03125" Pitch="40" RiffPosition="10.78125" Velocity="0" />
      <note Length="0.03125" Pitch="40" RiffPosition="10.8125" Velocity="0" />
      <note Length="0.03125" Pitch="40" RiffPosition="10.84375" Velocity="0" />
      <note Length="0.03125" Pitch="40" RiffPosition="10.875" Velocity="0" />
      <note Length="0.03125" Pitch="40" RiffPosition="10.90625" Velocity="0" />
      <note Length="0.03125" Pitch="40" RiffPosition="10.9375" Velocity="0" />
      <note Length="0.03125" Pitch="40" RiffPosition="10.96875" Velocity="0" />
      <note Length="0.03125" Pitch="40" RiffPosition="11" Velocity="0" />
      <note Length="0.03125" Pitch="40" RiffPosition="11.03125" Velocity="105" />
      <note Length="0.03125" Pitch="40" RiffPosition="11.0625" Velocity="0" />
      <note Length="0.03125" Pitch="40" RiffPosition="11.09375" Velocity="105" />
      <note Length="0.03125" Pitch="40" RiffPosition="11.125" Velocity="0" />
      <note Length="0.03125" Pitch="40" RiffPosition="11.15625" Velocity="105" />
      <note Length="0.03125" Pitch="40" RiffPosition="11.1875" Velocity="0" />
      <note Length="0.03125" Pitch="40" RiffPosition="11.21875" Velocity="105" />
      <note Length="0.03125" Pitch="40" RiffPosition="11.25" Velocity="0" />
      <note Length="0.03125" Pitch="40" RiffPosition="11.28125" Velocity="105" />
      <note Length="0.03125" Pitch="40" RiffPosition="11.3125" Velocity="0" />
      <note Length="0.03125" Pitch="40" RiffPosition="11.34375" Velocity="105" />
      <note Length="0.03125" Pitch="40" RiffPosition="11.375" Velocity="0" />
      <note Length="0.03125" Pitch="40" RiffPosition="11.40625" Velocity="105" />
      <note Length="0.03125" Pitch="40" RiffPosition="11.4375" Velocity="0" />
      <note Length="0.03125" Pitch="40" RiffPosition="11.46875" Velocity="105" />
      <note Length="0.03125" Pitch="40" RiffPosition="11.5" Velocity="0" />
      <note Length="0.03125" Pitch="40" RiffPosition="11.53125" Velocity="105" />
      <note Length="0.03125" Pitch="40" RiffPosition="11.5625" Velocity="0" />
      <note Length="0.03125" Pitch="40" RiffPosition="11.59375" Velocity="105" />
      <note Length="0.03125" Pitch="40" RiffPosition="11.625" Velocity="0" />
      <note Length="0.03125" Pitch="40" RiffPosition="11.65625" Velocity="105" />
      <note Length="0.03125" Pitch="40" RiffPosition="11.6875" Velocity="0" />
      <note Length="0.03125" Pitch="40" RiffPosition="11.71875" Velocity="105" />
      <note Length="0.03125" Pitch="40" RiffPosition="11.75" Velocity="0" />
      <note Length="0.03125" Pitch="40" RiffPosition="11.78125" Velocity="105" />
      <note Length="0.03125" Pitch="40" RiffPosition="11.8125" Velocity="0" />
      <note Length="0.03125" Pitch="40" RiffPosition="11.84375" Velocity="105" />
      <note Length="0.03125" Pitch="40" RiffPosition="11.875" Velocity="0" />
      <note Length="0.03125" Pitch="40" RiffPosition="11.90625" Velocity="105" />
      <note Length="0.03125" Pitch="40" RiffPosition="11.9375" Velocity="0" />
      <note Length="0.03125" Pitch="40" RiffPosition="11.96875" Velocity="105" />
      <note Length="0.03125" Pitch="40" RiffPosition="12" Velocity="0" />
      <note Length="0.03125" Pitch="40" RiffPosition="12.03125" Velocity="105" />
      <note Length="0.03125" Pitch="40" RiffPosition="12.0625" Velocity="0" />
      <note Length="0.03125" Pitch="40" RiffPosition="12.09375" Velocity="105" />
      <note Length="0.03125" Pitch="40" RiffPosition="12.125" Velocity="0" />
      <note Length="0.03125" Pitch="40" RiffPosition="12.15625" Velocity="105" />
      <note Length="0.03125" Pitch="40" RiffPosition="12.1875" Velocity="0" />
      <note Length="0.03125" Pitch="40" RiffPosition="12.21875" Velocity="105" />
      <note Length="0.03125" Pitch="40" RiffPosition="12.25" Velocity="0" />
      <note Length="0.03125" Pitch="40" RiffPosition="12.28125" Velocity="105" />
      <note Length="0.03125" Pitch="40" RiffPosition="12.3125" Velocity="0" />
      <note Length="0.03125" Pitch="40" RiffPosition="12.34375" Velocity="105" />
      <note Length="0.03125" Pitch="40" RiffPosition="12.375" Velocity="0" />
      <note Length="0.03125" Pitch="40" RiffPosition="12.40625" Velocity="105" />
      <note Length="0.03125" Pitch="40" RiffPosition="12.4375" Velocity="0" />
      <note Length="0.03125" Pitch="40" RiffPosition="12.46875" Velocity="105" />
      <note Length="0.03125" Pitch="40" RiffPosition="12.5" Velocity="0" />
      <note Length="0.03125" Pitch="40" RiffPosition="12.53125" Velocity="105" />
      <note Length="0.03125" Pitch="40" RiffPosition="12.5625" Velocity="0" />
      <note Length="0.03125" Pitch="40" RiffPosition="12.59375" Velocity="105" />
      <note Length="0.03125" Pitch="40" RiffPosition="12.625" Velocity="0" />
      <note Length="0.03125" Pitch="40" RiffPosition="12.65625" Velocity="105" />
      <note Length="0.03125" Pitch="40" RiffPosition="12.6875" Velocity="0" />
      <note Length="0.03125" Pitch="40" RiffPosition="12.71875" Velocity="105" />
      <note Length="0.03125" Pitch="40" RiffPosition="12.75" Velocity="0" />
      <note Length="0.03125" Pitch="40" RiffPosition="12.78125" Velocity="105" />
      <note Length="0.03125" Pitch="40" RiffPosition="12.8125" Velocity="0" />
      <note Length="0.03125" Pitch="40" RiffPosition="12.84375" Velocity="105" />
      <note Length="0.03125" Pitch="40" RiffPosition="12.875" Velocity="0" />
      <note Length="0.03125" Pitch="40" RiffPosition="12.90625" Velocity="105" />
      <note Length="0.03125" Pitch="40" RiffPosition="12.9375" Velocity="0" />
      <note Length="0.03125" Pitch="40" RiffPosition="12.96875" Velocity="105" />
      <note Length="0.03125" Pitch="40" RiffPosition="13" Velocity="0" />
      <note Length="0.03125" Pitch="40" RiffPosition="13.03125" Velocity="0" />
      <note Length="0.03125" Pitch="40" RiffPosition="13.0625" Velocity="0" />
      <note Length="0.03125" Pitch="40" RiffPosition="13.09375" Velocity="0" />
      <note Length="0.03125" Pitch="40" RiffPosition="13.125" Velocity="0" />
      <note Length="0.03125" Pitch="40" RiffPosition="13.15625" Velocity="0" />
      <note Length="0.03125" Pitch="40" RiffPosition="13.1875" Velocity="0" />
      <note Length="0.03125" Pitch="40" RiffPosition="13.21875" Velocity="0" />
      <note Length="0.03125" Pitch="40" RiffPosition="13.25" Velocity="0" />
      <note Length="0.03125" Pitch="40" RiffPosition="13.28125" Velocity="0" />
      <note Length="0.03125" Pitch="40" RiffPosition="13.3125" Velocity="0" />
      <note Length="0.03125" Pitch="40" RiffPosition="13.34375" Velocity="0" />
      <note Length="0.03125" Pitch="40" RiffPosition="13.375" Velocity="0" />
      <note Length="0.03125" Pitch="40" RiffPosition="13.40625" Velocity="0" />
      <note Length="0.03125" Pitch="40" RiffPosition="13.4375" Velocity="0" />
      <note Length="0.03125" Pitch="40" RiffPosition="13.46875" Velocity="0" />
      <note Length="0.03125" Pitch="40" RiffPosition="13.5" Velocity="0" />
      <note Length="0.03125" Pitch="40" RiffPosition="13.53125" Velocity="0" />
      <note Length="0.03125" Pitch="40" RiffPosition="13.5625" Velocity="0" />
      <note Length="0.03125" Pitch="40" RiffPosition="13.59375" Velocity="0" />
      <note Length="0.03125" Pitch="40" RiffPosition="13.625" Velocity="0" />
      <note Length="0.03125" Pitch="40" RiffPosition="13.65625" Velocity="0" />
      <note Length="0.03125" Pitch="40" RiffPosition="13.6875" Velocity="0" />
      <note Length="0.03125" Pitch="40" RiffPosition="13.71875" Velocity="0" />
      <note Length="0.03125" Pitch="40" RiffPosition="13.75" Velocity="0" />
      <note Length="0.03125" Pitch="40" RiffPosition="13.78125" Velocity="0" />
      <note Length="0.03125" Pitch="40" RiffPosition="13.8125" Velocity="0" />
      <note Length="0.03125" Pitch="40" RiffPosition="13.84375" Velocity="0" />
      <note Length="0.03125" Pitch="40" RiffPosition="13.875" Velocity="0" />
      <note Length="0.03125" Pitch="40" RiffPosition="13.90625" Velocity="0" />
      <note Length="0.03125" Pitch="40" RiffPosition="13.9375" Velocity="0" />
      <note Length="0.03125" Pitch="40" RiffPosition="13.96875" Velocity="0" />
    </riff>
    <riff IsDrum="True" MidiInstrument="0" Tempo="135" Length="14">
      <note Length="0.015625" Pitch="36" RiffPosition="0" Velocity="0" />
      <note Length="0.015625" Pitch="36" RiffPosition="0.015625" Velocity="0" />
      <note Length="0.03125" Pitch="36" RiffPosition="0.03125" Velocity="0" />
      <note Length="0.046875" Pitch="36" RiffPosition="0.0625" Velocity="0" />
      <note Length="0.046875" Pitch="36" RiffPosition="0.109375" Velocity="0" />
      <note Length="0.09375" Pitch="36" RiffPosition="0.15625" Velocity="0" />
      <note Length="0.015625" Pitch="36" RiffPosition="0.25" Velocity="0" />
      <note Length="0.015625" Pitch="36" RiffPosition="0.265625" Velocity="0" />
      <note Length="0.03125" Pitch="36" RiffPosition="0.28125" Velocity="0" />
      <note Length="0.046875" Pitch="36" RiffPosition="0.3125" Velocity="0" />
      <note Length="0.046875" Pitch="36" RiffPosition="0.359375" Velocity="0" />
      <note Length="0.09375" Pitch="36" RiffPosition="0.40625" Velocity="0" />
      <note Length="0.015625" Pitch="36" RiffPosition="0.5" Velocity="0" />
      <note Length="0.015625" Pitch="36" RiffPosition="0.515625" Velocity="0" />
      <note Length="0.03125" Pitch="36" RiffPosition="0.53125" Velocity="0" />
      <note Length="0.046875" Pitch="36" RiffPosition="0.5625" Velocity="0" />
      <note Length="0.046875" Pitch="36" RiffPosition="0.609375" Velocity="0" />
      <note Length="0.09375" Pitch="36" RiffPosition="0.65625" Velocity="0" />
      <note Length="0.015625" Pitch="36" RiffPosition="0.75" Velocity="0" />
      <note Length="0.015625" Pitch="36" RiffPosition="0.765625" Velocity="0" />
      <note Length="0.03125" Pitch="36" RiffPosition="0.78125" Velocity="0" />
      <note Length="0.046875" Pitch="36" RiffPosition="0.8125" Velocity="0" />
      <note Length="0.046875" Pitch="36" RiffPosition="0.859375" Velocity="0" />
      <note Length="0.09375" Pitch="36" RiffPosition="0.90625" Velocity="0" />
      <note Length="0.015625" Pitch="36" RiffPosition="1" Velocity="0" />
      <note Length="0.015625" Pitch="36" RiffPosition="1.015625" Velocity="0" />
      <note Length="0.03125" Pitch="36" RiffPosition="1.03125" Velocity="0" />
      <note Length="0.046875" Pitch="36" RiffPosition="1.0625" Velocity="0" />
      <note Length="0.046875" Pitch="36" RiffPosition="1.109375" Velocity="0" />
      <note Length="0.09375" Pitch="36" RiffPosition="1.15625" Velocity="0" />
      <note Length="0.015625" Pitch="36" RiffPosition="1.25" Velocity="0" />
      <note Length="0.015625" Pitch="36" RiffPosition="1.265625" Velocity="0" />
      <note Length="0.03125" Pitch="36" RiffPosition="1.28125" Velocity="0" />
      <note Length="0.046875" Pitch="36" RiffPosition="1.3125" Velocity="0" />
      <note Length="0.046875" Pitch="36" RiffPosition="1.359375" Velocity="0" />
      <note Length="0.09375" Pitch="36" RiffPosition="1.40625" Velocity="0" />
      <note Length="0.015625" Pitch="36" RiffPosition="1.5" Velocity="0" />
      <note Length="0.015625" Pitch="36" RiffPosition="1.515625" Velocity="0" />
      <note Length="0.03125" Pitch="36" RiffPosition="1.53125" Velocity="0" />
      <note Length="0.046875" Pitch="36" RiffPosition="1.5625" Velocity="0" />
      <note Length="0.046875" Pitch="36" RiffPosition="1.609375" Velocity="0" />
      <note Length="0.09375" Pitch="36" RiffPosition="1.65625" Velocity="0" />
      <note Length="0.015625" Pitch="36" RiffPosition="1.75" Velocity="0" />
      <note Length="0.015625" Pitch="36" RiffPosition="1.765625" Velocity="0" />
      <note Length="0.03125" Pitch="36" RiffPosition="1.78125" Velocity="0" />
      <note Length="0.046875" Pitch="36" RiffPosition="1.8125" Velocity="0" />
      <note Length="0.046875" Pitch="36" RiffPosition="1.859375" Velocity="0" />
      <note Length="0.09375" Pitch="36" RiffPosition="1.90625" Velocity="0" />
      <note Length="0.015625" Pitch="36" RiffPosition="2" Velocity="0" />
      <note Length="0.015625" Pitch="36" RiffPosition="2.015625" Velocity="0" />
      <note Length="0.03125" Pitch="36" RiffPosition="2.03125" Velocity="0" />
      <note Length="0.046875" Pitch="36" RiffPosition="2.0625" Velocity="0" />
      <note Length="0.046875" Pitch="36" RiffPosition="2.109375" Velocity="0" />
      <note Length="0.09375" Pitch="36" RiffPosition="2.15625" Velocity="0" />
      <note Length="0.015625" Pitch="36" RiffPosition="2.25" Velocity="0" />
      <note Length="0.015625" Pitch="36" RiffPosition="2.265625" Velocity="0" />
      <note Length="0.03125" Pitch="36" RiffPosition="2.28125" Velocity="0" />
      <note Length="0.046875" Pitch="36" RiffPosition="2.3125" Velocity="0" />
      <note Length="0.046875" Pitch="36" RiffPosition="2.359375" Velocity="0" />
      <note Length="0.09375" Pitch="36" RiffPosition="2.40625" Velocity="0" />
      <note Length="0.015625" Pitch="36" RiffPosition="2.5" Velocity="0" />
      <note Length="0.015625" Pitch="36" RiffPosition="2.515625" Velocity="0" />
      <note Length="0.03125" Pitch="36" RiffPosition="2.53125" Velocity="0" />
      <note Length="0.046875" Pitch="36" RiffPosition="2.5625" Velocity="0" />
      <note Length="0.046875" Pitch="36" RiffPosition="2.609375" Velocity="0" />
      <note Length="0.09375" Pitch="36" RiffPosition="2.65625" Velocity="0" />
      <note Length="0.015625" Pitch="36" RiffPosition="2.75" Velocity="0" />
      <note Length="0.015625" Pitch="36" RiffPosition="2.765625" Velocity="0" />
      <note Length="0.03125" Pitch="36" RiffPosition="2.78125" Velocity="0" />
      <note Length="0.046875" Pitch="36" RiffPosition="2.8125" Velocity="0" />
      <note Length="0.046875" Pitch="36" RiffPosition="2.859375" Velocity="0" />
      <note Length="0.09375" Pitch="36" RiffPosition="2.90625" Velocity="0" />
      <note Length="0.015625" Pitch="36" RiffPosition="3" Velocity="0" />
      <note Length="0.015625" Pitch="36" RiffPosition="3.015625" Velocity="0" />
      <note Length="0.03125" Pitch="36" RiffPosition="3.03125" Velocity="0" />
      <note Length="0.046875" Pitch="36" RiffPosition="3.0625" Velocity="0" />
      <note Length="0.046875" Pitch="36" RiffPosition="3.109375" Velocity="0" />
      <note Length="0.09375" Pitch="36" RiffPosition="3.15625" Velocity="0" />
      <note Length="0.015625" Pitch="36" RiffPosition="3.25" Velocity="0" />
      <note Length="0.015625" Pitch="36" RiffPosition="3.265625" Velocity="0" />
      <note Length="0.03125" Pitch="36" RiffPosition="3.28125" Velocity="0" />
      <note Length="0.046875" Pitch="36" RiffPosition="3.3125" Velocity="0" />
      <note Length="0.046875" Pitch="36" RiffPosition="3.359375" Velocity="0" />
      <note Length="0.09375" Pitch="36" RiffPosition="3.40625" Velocity="0" />
      <note Length="0.015625" Pitch="36" RiffPosition="3.5" Velocity="0" />
      <note Length="0.015625" Pitch="36" RiffPosition="3.515625" Velocity="0" />
      <note Length="0.03125" Pitch="36" RiffPosition="3.53125" Velocity="0" />
      <note Length="0.046875" Pitch="36" RiffPosition="3.5625" Velocity="0" />
      <note Length="0.046875" Pitch="36" RiffPosition="3.609375" Velocity="0" />
      <note Length="0.09375" Pitch="36" RiffPosition="3.65625" Velocity="0" />
      <note Length="0.015625" Pitch="36" RiffPosition="3.75" Velocity="0" />
      <note Length="0.015625" Pitch="36" RiffPosition="3.765625" Velocity="0" />
      <note Length="0.03125" Pitch="36" RiffPosition="3.78125" Velocity="0" />
      <note Length="0.046875" Pitch="36" RiffPosition="3.8125" Velocity="0" />
      <note Length="0.046875" Pitch="36" RiffPosition="3.859375" Velocity="0" />
      <note Length="0.09375" Pitch="36" RiffPosition="3.90625" Velocity="0" />
      <note Length="0.015625" Pitch="36" RiffPosition="4" Velocity="0" />
      <note Length="0.015625" Pitch="36" RiffPosition="4.015625" Velocity="0" />
      <note Length="0.03125" Pitch="36" RiffPosition="4.03125" Velocity="0" />
      <note Length="0.046875" Pitch="36" RiffPosition="4.0625" Velocity="0" />
      <note Length="0.046875" Pitch="36" RiffPosition="4.109375" Velocity="0" />
      <note Length="0.09375" Pitch="36" RiffPosition="4.15625" Velocity="0" />
      <note Length="0.015625" Pitch="36" RiffPosition="4.25" Velocity="0" />
      <note Length="0.015625" Pitch="36" RiffPosition="4.265625" Velocity="0" />
      <note Length="0.03125" Pitch="36" RiffPosition="4.28125" Velocity="0" />
      <note Length="0.046875" Pitch="36" RiffPosition="4.3125" Velocity="0" />
      <note Length="0.046875" Pitch="36" RiffPosition="4.359375" Velocity="0" />
      <note Length="0.09375" Pitch="36" RiffPosition="4.40625" Velocity="0" />
      <note Length="0.015625" Pitch="36" RiffPosition="4.5" Velocity="0" />
      <note Length="0.015625" Pitch="36" RiffPosition="4.515625" Velocity="0" />
      <note Length="0.03125" Pitch="36" RiffPosition="4.53125" Velocity="0" />
      <note Length="0.046875" Pitch="36" RiffPosition="4.5625" Velocity="0" />
      <note Length="0.046875" Pitch="36" RiffPosition="4.609375" Velocity="0" />
      <note Length="0.09375" Pitch="36" RiffPosition="4.65625" Velocity="0" />
      <note Length="0.015625" Pitch="36" RiffPosition="4.75" Velocity="0" />
      <note Length="0.015625" Pitch="36" RiffPosition="4.765625" Velocity="0" />
      <note Length="0.03125" Pitch="36" RiffPosition="4.78125" Velocity="0" />
      <note Length="0.046875" Pitch="36" RiffPosition="4.8125" Velocity="0" />
      <note Length="0.046875" Pitch="36" RiffPosition="4.859375" Velocity="0" />
      <note Length="0.09375" Pitch="36" RiffPosition="4.90625" Velocity="0" />
      <note Length="0.015625" Pitch="36" RiffPosition="5" Velocity="0" />
      <note Length="0.015625" Pitch="36" RiffPosition="5.015625" Velocity="0" />
      <note Length="0.03125" Pitch="36" RiffPosition="5.03125" Velocity="0" />
      <note Length="0.046875" Pitch="36" RiffPosition="5.0625" Velocity="0" />
      <note Length="0.046875" Pitch="36" RiffPosition="5.109375" Velocity="0" />
      <note Length="0.09375" Pitch="36" RiffPosition="5.15625" Velocity="0" />
      <note Length="0.015625" Pitch="36" RiffPosition="5.25" Velocity="0" />
      <note Length="0.015625" Pitch="36" RiffPosition="5.265625" Velocity="0" />
      <note Length="0.03125" Pitch="36" RiffPosition="5.28125" Velocity="0" />
      <note Length="0.046875" Pitch="36" RiffPosition="5.3125" Velocity="0" />
      <note Length="0.046875" Pitch="36" RiffPosition="5.359375" Velocity="0" />
      <note Length="0.09375" Pitch="36" RiffPosition="5.40625" Velocity="0" />
      <note Length="0.015625" Pitch="36" RiffPosition="5.5" Velocity="0" />
      <note Length="0.015625" Pitch="36" RiffPosition="5.515625" Velocity="0" />
      <note Length="0.03125" Pitch="36" RiffPosition="5.53125" Velocity="0" />
      <note Length="0.046875" Pitch="36" RiffPosition="5.5625" Velocity="0" />
      <note Length="0.046875" Pitch="36" RiffPosition="5.609375" Velocity="0" />
      <note Length="0.09375" Pitch="36" RiffPosition="5.65625" Velocity="0" />
      <note Length="0.015625" Pitch="36" RiffPosition="5.75" Velocity="0" />
      <note Length="0.015625" Pitch="36" RiffPosition="5.765625" Velocity="0" />
      <note Length="0.03125" Pitch="36" RiffPosition="5.78125" Velocity="0" />
      <note Length="0.046875" Pitch="36" RiffPosition="5.8125" Velocity="0" />
      <note Length="0.046875" Pitch="36" RiffPosition="5.859375" Velocity="0" />
      <note Length="0.09375" Pitch="36" RiffPosition="5.90625" Velocity="0" />
      <note Length="0.015625" Pitch="36" RiffPosition="6" Velocity="0" />
      <note Length="0.015625" Pitch="36" RiffPosition="6.015625" Velocity="0" />
      <note Length="0.03125" Pitch="36" RiffPosition="6.03125" Velocity="0" />
      <note Length="0.046875" Pitch="36" RiffPosition="6.0625" Velocity="0" />
      <note Length="0.046875" Pitch="36" RiffPosition="6.109375" Velocity="0" />
      <note Length="0.09375" Pitch="36" RiffPosition="6.15625" Velocity="0" />
      <note Length="0.015625" Pitch="36" RiffPosition="6.25" Velocity="0" />
      <note Length="0.015625" Pitch="36" RiffPosition="6.265625" Velocity="0" />
      <note Length="0.03125" Pitch="36" RiffPosition="6.28125" Velocity="0" />
      <note Length="0.046875" Pitch="36" RiffPosition="6.3125" Velocity="0" />
      <note Length="0.046875" Pitch="36" RiffPosition="6.359375" Velocity="0" />
      <note Length="0.09375" Pitch="36" RiffPosition="6.40625" Velocity="0" />
      <note Length="0.015625" Pitch="36" RiffPosition="6.5" Velocity="0" />
      <note Length="0.015625" Pitch="36" RiffPosition="6.515625" Velocity="0" />
      <note Length="0.03125" Pitch="36" RiffPosition="6.53125" Velocity="0" />
      <note Length="0.046875" Pitch="36" RiffPosition="6.5625" Velocity="0" />
      <note Length="0.046875" Pitch="36" RiffPosition="6.609375" Velocity="0" />
      <note Length="0.09375" Pitch="36" RiffPosition="6.65625" Velocity="0" />
      <note Length="0.015625" Pitch="36" RiffPosition="6.75" Velocity="0" />
      <note Length="0.015625" Pitch="36" RiffPosition="6.765625" Velocity="0" />
      <note Length="0.03125" Pitch="36" RiffPosition="6.78125" Velocity="0" />
      <note Length="0.046875" Pitch="36" RiffPosition="6.8125" Velocity="0" />
      <note Length="0.046875" Pitch="36" RiffPosition="6.859375" Velocity="0" />
      <note Length="0.09375" Pitch="36" RiffPosition="6.90625" Velocity="0" />
      <note Length="0.015625" Pitch="36" RiffPosition="7" Velocity="0" />
      <note Length="0.015625" Pitch="36" RiffPosition="7.015625" Velocity="0" />
      <note Length="0.03125" Pitch="36" RiffPosition="7.03125" Velocity="0" />
      <note Length="0.046875" Pitch="36" RiffPosition="7.0625" Velocity="0" />
      <note Length="0.046875" Pitch="36" RiffPosition="7.109375" Velocity="0" />
      <note Length="0.09375" Pitch="36" RiffPosition="7.15625" Velocity="0" />
      <note Length="0.015625" Pitch="36" RiffPosition="7.25" Velocity="0" />
      <note Length="0.015625" Pitch="36" RiffPosition="7.265625" Velocity="0" />
      <note Length="0.03125" Pitch="36" RiffPosition="7.28125" Velocity="0" />
      <note Length="0.046875" Pitch="36" RiffPosition="7.3125" Velocity="0" />
      <note Length="0.046875" Pitch="36" RiffPosition="7.359375" Velocity="0" />
      <note Length="0.09375" Pitch="36" RiffPosition="7.40625" Velocity="0" />
      <note Length="0.015625" Pitch="36" RiffPosition="7.5" Velocity="0" />
      <note Length="0.015625" Pitch="36" RiffPosition="7.515625" Velocity="0" />
      <note Length="0.03125" Pitch="36" RiffPosition="7.53125" Velocity="0" />
      <note Length="0.046875" Pitch="36" RiffPosition="7.5625" Velocity="0" />
      <note Length="0.046875" Pitch="36" RiffPosition="7.609375" Velocity="0" />
      <note Length="0.09375" Pitch="36" RiffPosition="7.65625" Velocity="0" />
      <note Length="0.015625" Pitch="36" RiffPosition="7.75" Velocity="0" />
      <note Length="0.015625" Pitch="36" RiffPosition="7.765625" Velocity="0" />
      <note Length="0.03125" Pitch="36" RiffPosition="7.78125" Velocity="0" />
      <note Length="0.046875" Pitch="36" RiffPosition="7.8125" Velocity="0" />
      <note Length="0.046875" Pitch="36" RiffPosition="7.859375" Velocity="0" />
      <note Length="0.09375" Pitch="36" RiffPosition="7.90625" Velocity="0" />
      <note Length="0.015625" Pitch="36" RiffPosition="8" Velocity="0" />
      <note Length="0.015625" Pitch="36" RiffPosition="8.015625" Velocity="0" />
      <note Length="0.03125" Pitch="36" RiffPosition="8.03125" Velocity="0" />
      <note Length="0.046875" Pitch="36" RiffPosition="8.0625" Velocity="0" />
      <note Length="0.046875" Pitch="36" RiffPosition="8.109375" Velocity="0" />
      <note Length="0.09375" Pitch="36" RiffPosition="8.15625" Velocity="0" />
      <note Length="0.015625" Pitch="36" RiffPosition="8.25" Velocity="0" />
      <note Length="0.015625" Pitch="36" RiffPosition="8.265625" Velocity="0" />
      <note Length="0.03125" Pitch="36" RiffPosition="8.28125" Velocity="0" />
      <note Length="0.046875" Pitch="36" RiffPosition="8.3125" Velocity="0" />
      <note Length="0.046875" Pitch="36" RiffPosition="8.359375" Velocity="0" />
      <note Length="0.09375" Pitch="36" RiffPosition="8.40625" Velocity="0" />
      <note Length="0.015625" Pitch="36" RiffPosition="8.5" Velocity="0" />
      <note Length="0.015625" Pitch="36" RiffPosition="8.515625" Velocity="0" />
      <note Length="0.03125" Pitch="36" RiffPosition="8.53125" Velocity="0" />
      <note Length="0.046875" Pitch="36" RiffPosition="8.5625" Velocity="0" />
      <note Length="0.046875" Pitch="36" RiffPosition="8.609375" Velocity="0" />
      <note Length="0.09375" Pitch="36" RiffPosition="8.65625" Velocity="0" />
      <note Length="0.015625" Pitch="36" RiffPosition="8.75" Velocity="0" />
      <note Length="0.015625" Pitch="36" RiffPosition="8.765625" Velocity="0" />
      <note Length="0.03125" Pitch="36" RiffPosition="8.78125" Velocity="0" />
      <note Length="0.046875" Pitch="36" RiffPosition="8.8125" Velocity="0" />
      <note Length="0.046875" Pitch="36" RiffPosition="8.859375" Velocity="0" />
      <note Length="0.09375" Pitch="36" RiffPosition="8.90625" Velocity="0" />
      <note Length="0.015625" Pitch="36" RiffPosition="9" Velocity="0" />
      <note Length="0.015625" Pitch="36" RiffPosition="9.015625" Velocity="0" />
      <note Length="0.03125" Pitch="36" RiffPosition="9.03125" Velocity="0" />
      <note Length="0.046875" Pitch="36" RiffPosition="9.0625" Velocity="0" />
      <note Length="0.046875" Pitch="36" RiffPosition="9.109375" Velocity="0" />
      <note Length="0.09375" Pitch="36" RiffPosition="9.15625" Velocity="0" />
      <note Length="0.015625" Pitch="36" RiffPosition="9.25" Velocity="0" />
      <note Length="0.015625" Pitch="36" RiffPosition="9.265625" Velocity="0" />
      <note Length="0.03125" Pitch="36" RiffPosition="9.28125" Velocity="0" />
      <note Length="0.046875" Pitch="36" RiffPosition="9.3125" Velocity="0" />
      <note Length="0.046875" Pitch="36" RiffPosition="9.359375" Velocity="0" />
      <note Length="0.09375" Pitch="36" RiffPosition="9.40625" Velocity="0" />
      <note Length="0.015625" Pitch="36" RiffPosition="9.5" Velocity="0" />
      <note Length="0.015625" Pitch="36" RiffPosition="9.515625" Velocity="0" />
      <note Length="0.03125" Pitch="36" RiffPosition="9.53125" Velocity="0" />
      <note Length="0.046875" Pitch="36" RiffPosition="9.5625" Velocity="0" />
      <note Length="0.046875" Pitch="36" RiffPosition="9.609375" Velocity="0" />
      <note Length="0.09375" Pitch="36" RiffPosition="9.65625" Velocity="0" />
      <note Length="0.015625" Pitch="36" RiffPosition="9.75" Velocity="0" />
      <note Length="0.015625" Pitch="36" RiffPosition="9.765625" Velocity="0" />
      <note Length="0.03125" Pitch="36" RiffPosition="9.78125" Velocity="0" />
      <note Length="0.046875" Pitch="36" RiffPosition="9.8125" Velocity="0" />
      <note Length="0.046875" Pitch="36" RiffPosition="9.859375" Velocity="0" />
      <note Length="0.09375" Pitch="36" RiffPosition="9.90625" Velocity="0" />
      <note Length="0.015625" Pitch="36" RiffPosition="10" Velocity="0" />
      <note Length="0.015625" Pitch="36" RiffPosition="10.015625" Velocity="0" />
      <note Length="0.03125" Pitch="36" RiffPosition="10.03125" Velocity="0" />
      <note Length="0.046875" Pitch="36" RiffPosition="10.0625" Velocity="0" />
      <note Length="0.046875" Pitch="36" RiffPosition="10.109375" Velocity="0" />
      <note Length="0.09375" Pitch="36" RiffPosition="10.15625" Velocity="0" />
      <note Length="0.015625" Pitch="36" RiffPosition="10.25" Velocity="0" />
      <note Length="0.015625" Pitch="36" RiffPosition="10.265625" Velocity="0" />
      <note Length="0.03125" Pitch="36" RiffPosition="10.28125" Velocity="0" />
      <note Length="0.046875" Pitch="36" RiffPosition="10.3125" Velocity="0" />
      <note Length="0.046875" Pitch="36" RiffPosition="10.359375" Velocity="0" />
      <note Length="0.09375" Pitch="36" RiffPosition="10.40625" Velocity="0" />
      <note Length="0.015625" Pitch="36" RiffPosition="10.5" Velocity="0" />
      <note Length="0.015625" Pitch="36" RiffPosition="10.515625" Velocity="0" />
      <note Length="0.03125" Pitch="36" RiffPosition="10.53125" Velocity="0" />
      <note Length="0.046875" Pitch="36" RiffPosition="10.5625" Velocity="0" />
      <note Length="0.046875" Pitch="36" RiffPosition="10.609375" Velocity="0" />
      <note Length="0.09375" Pitch="36" RiffPosition="10.65625" Velocity="0" />
      <note Length="0.015625" Pitch="36" RiffPosition="10.75" Velocity="0" />
      <note Length="0.015625" Pitch="36" RiffPosition="10.765625" Velocity="0" />
      <note Length="0.03125" Pitch="36" RiffPosition="10.78125" Velocity="0" />
      <note Length="0.046875" Pitch="36" RiffPosition="10.8125" Velocity="0" />
      <note Length="0.046875" Pitch="36" RiffPosition="10.859375" Velocity="0" />
      <note Length="0.09375" Pitch="36" RiffPosition="10.90625" Velocity="0" />
      <note Length="0.015625" Pitch="36" RiffPosition="11" Velocity="127" />
      <note Length="0.015625" Pitch="36" RiffPosition="11.015625" Velocity="127" />
      <note Length="0.03125" Pitch="36" RiffPosition="11.03125" Velocity="127" />
      <note Length="0.046875" Pitch="36" RiffPosition="11.0625" Velocity="127" />
      <note Length="0.046875" Pitch="36" RiffPosition="11.109375" Velocity="127" />
      <note Length="0.09375" Pitch="36" RiffPosition="11.15625" Velocity="127" />
      <note Length="0.015625" Pitch="36" RiffPosition="11.25" Velocity="127" />
      <note Length="0.015625" Pitch="36" RiffPosition="11.265625" Velocity="127" />
      <note Length="0.03125" Pitch="36" RiffPosition="11.28125" Velocity="127" />
      <note Length="0.046875" Pitch="36" RiffPosition="11.3125" Velocity="127" />
      <note Length="0.046875" Pitch="36" RiffPosition="11.359375" Velocity="127" />
      <note Length="0.09375" Pitch="36" RiffPosition="11.40625" Velocity="127" />
      <note Length="0.015625" Pitch="36" RiffPosition="11.5" Velocity="127" />
      <note Length="0.015625" Pitch="36" RiffPosition="11.515625" Velocity="127" />
      <note Length="0.03125" Pitch="36" RiffPosition="11.53125" Velocity="127" />
      <note Length="0.046875" Pitch="36" RiffPosition="11.5625" Velocity="127" />
      <note Length="0.046875" Pitch="36" RiffPosition="11.609375" Velocity="127" />
      <note Length="0.09375" Pitch="36" RiffPosition="11.65625" Velocity="127" />
      <note Length="0.015625" Pitch="36" RiffPosition="11.75" Velocity="127" />
      <note Length="0.015625" Pitch="36" RiffPosition="11.765625" Velocity="127" />
      <note Length="0.03125" Pitch="36" RiffPosition="11.78125" Velocity="127" />
      <note Length="0.046875" Pitch="36" RiffPosition="11.8125" Velocity="127" />
      <note Length="0.046875" Pitch="36" RiffPosition="11.859375" Velocity="127" />
      <note Length="0.09375" Pitch="36" RiffPosition="11.90625" Velocity="127" />
      <note Length="0.015625" Pitch="36" RiffPosition="12" Velocity="127" />
      <note Length="0.015625" Pitch="36" RiffPosition="12.015625" Velocity="127" />
      <note Length="0.03125" Pitch="36" RiffPosition="12.03125" Velocity="127" />
      <note Length="0.046875" Pitch="36" RiffPosition="12.0625" Velocity="127" />
      <note Length="0.046875" Pitch="36" RiffPosition="12.109375" Velocity="127" />
      <note Length="0.09375" Pitch="36" RiffPosition="12.15625" Velocity="127" />
      <note Length="0.015625" Pitch="36" RiffPosition="12.25" Velocity="127" />
      <note Length="0.015625" Pitch="36" RiffPosition="12.265625" Velocity="127" />
      <note Length="0.03125" Pitch="36" RiffPosition="12.28125" Velocity="127" />
      <note Length="0.046875" Pitch="36" RiffPosition="12.3125" Velocity="127" />
      <note Length="0.046875" Pitch="36" RiffPosition="12.359375" Velocity="127" />
      <note Length="0.09375" Pitch="36" RiffPosition="12.40625" Velocity="127" />
      <note Length="0.015625" Pitch="36" RiffPosition="12.5" Velocity="127" />
      <note Length="0.015625" Pitch="36" RiffPosition="12.515625" Velocity="127" />
      <note Length="0.03125" Pitch="36" RiffPosition="12.53125" Velocity="127" />
      <note Length="0.046875" Pitch="36" RiffPosition="12.5625" Velocity="127" />
      <note Length="0.046875" Pitch="36" RiffPosition="12.609375" Velocity="127" />
      <note Length="0.09375" Pitch="36" RiffPosition="12.65625" Velocity="127" />
      <note Length="0.015625" Pitch="36" RiffPosition="12.75" Velocity="127" />
      <note Length="0.015625" Pitch="36" RiffPosition="12.765625" Velocity="127" />
      <note Length="0.03125" Pitch="36" RiffPosition="12.78125" Velocity="127" />
      <note Length="0.046875" Pitch="36" RiffPosition="12.8125" Velocity="127" />
      <note Length="0.046875" Pitch="36" RiffPosition="12.859375" Velocity="127" />
      <note Length="0.09375" Pitch="36" RiffPosition="12.90625" Velocity="127" />
      <note Length="0.015625" Pitch="36" RiffPosition="13" Velocity="0" />
      <note Length="0.015625" Pitch="36" RiffPosition="13.015625" Velocity="0" />
      <note Length="0.03125" Pitch="36" RiffPosition="13.03125" Velocity="0" />
      <note Length="0.046875" Pitch="36" RiffPosition="13.0625" Velocity="0" />
      <note Length="0.046875" Pitch="36" RiffPosition="13.109375" Velocity="0" />
      <note Length="0.09375" Pitch="36" RiffPosition="13.15625" Velocity="0" />
      <note Length="0.015625" Pitch="36" RiffPosition="13.25" Velocity="0" />
      <note Length="0.015625" Pitch="36" RiffPosition="13.265625" Velocity="0" />
      <note Length="0.03125" Pitch="36" RiffPosition="13.28125" Velocity="0" />
      <note Length="0.046875" Pitch="36" RiffPosition="13.3125" Velocity="0" />
      <note Length="0.046875" Pitch="36" RiffPosition="13.359375" Velocity="0" />
      <note Length="0.09375" Pitch="36" RiffPosition="13.40625" Velocity="0" />
      <note Length="0.015625" Pitch="36" RiffPosition="13.5" Velocity="0" />
      <note Length="0.015625" Pitch="36" RiffPosition="13.515625" Velocity="0" />
      <note Length="0.03125" Pitch="36" RiffPosition="13.53125" Velocity="0" />
      <note Length="0.046875" Pitch="36" RiffPosition="13.5625" Velocity="0" />
      <note Length="0.046875" Pitch="36" RiffPosition="13.609375" Velocity="0" />
      <note Length="0.09375" Pitch="36" RiffPosition="13.65625" Velocity="0" />
      <note Length="0.015625" Pitch="36" RiffPosition="13.75" Velocity="0" />
      <note Length="0.015625" Pitch="36" RiffPosition="13.765625" Velocity="0" />
      <note Length="0.03125" Pitch="36" RiffPosition="13.78125" Velocity="0" />
      <note Length="0.046875" Pitch="36" RiffPosition="13.8125" Velocity="0" />
      <note Length="0.046875" Pitch="36" RiffPosition="13.859375" Velocity="0" />
      <note Length="0.09375" Pitch="36" RiffPosition="13.90625" Velocity="0" />
    </riff>
    <riff IsDrum="True" MidiInstrument="0" Tempo="115" Length="14">
      <note Length="0.03125" Pitch="44" RiffPosition="0" Velocity="0" />
      <note Length="0.03125" Pitch="38" RiffPosition="0.03125" Velocity="0" />
      <note Length="0.03125" Pitch="44" RiffPosition="0.0625" Velocity="0" />
      <note Length="0.03125" Pitch="47" RiffPosition="0.09375" Velocity="0" />
      <note Length="0.0625" Pitch="40" RiffPosition="0.125" Velocity="0" />
      <note Length="0.015625" Pitch="44" RiffPosition="0.1875" Velocity="0" />
      <note Length="0.046875" Pitch="48" RiffPosition="0.203125" Velocity="0" />
      <note Length="0.03125" Pitch="44" RiffPosition="0.25" Velocity="0" />
      <note Length="0.03125" Pitch="40" RiffPosition="0.28125" Velocity="0" />
      <note Length="0.03125" Pitch="46" RiffPosition="0.3125" Velocity="0" />
      <note Length="0.03125" Pitch="51" RiffPosition="0.34375" Velocity="0" />
      <note Length="0.0625" Pitch="43" RiffPosition="0.375" Velocity="0" />
      <note Length="0.015625" Pitch="44" RiffPosition="0.4375" Velocity="0" />
      <note Length="0.046875" Pitch="48" RiffPosition="0.453125" Velocity="0" />
      <note Length="0.03125" Pitch="43" RiffPosition="0.5" Velocity="0" />
      <note Length="0.03125" Pitch="39" RiffPosition="0.53125" Velocity="0" />
      <note Length="0.03125" Pitch="46" RiffPosition="0.5625" Velocity="0" />
      <note Length="0.03125" Pitch="51" RiffPosition="0.59375" Velocity="0" />
      <note Length="0.0625" Pitch="44" RiffPosition="0.625" Velocity="0" />
      <note Length="0.015625" Pitch="44" RiffPosition="0.6875" Velocity="0" />
      <note Length="0.046875" Pitch="47" RiffPosition="0.703125" Velocity="0" />
      <note Length="0.03125" Pitch="40" RiffPosition="0.75" Velocity="0" />
      <note Length="0.03125" Pitch="36" RiffPosition="0.78125" Velocity="0" />
      <note Length="0.03125" Pitch="44" RiffPosition="0.8125" Velocity="0" />
      <note Length="0.03125" Pitch="50" RiffPosition="0.84375" Velocity="0" />
      <note Length="0.0625" Pitch="44" RiffPosition="0.875" Velocity="0" />
      <note Length="0.015625" Pitch="49" RiffPosition="0.9375" Velocity="0" />
      <note Length="0.046875" Pitch="52" RiffPosition="0.953125" Velocity="0" />
      <note Length="0.03125" Pitch="44" RiffPosition="1" Velocity="0" />
      <note Length="0.03125" Pitch="38" RiffPosition="1.03125" Velocity="0" />
      <note Length="0.03125" Pitch="44" RiffPosition="1.0625" Velocity="0" />
      <note Length="0.03125" Pitch="47" RiffPosition="1.09375" Velocity="0" />
      <note Length="0.0625" Pitch="40" RiffPosition="1.125" Velocity="0" />
      <note Length="0.015625" Pitch="44" RiffPosition="1.1875" Velocity="0" />
      <note Length="0.046875" Pitch="48" RiffPosition="1.203125" Velocity="0" />
      <note Length="0.03125" Pitch="44" RiffPosition="1.25" Velocity="0" />
      <note Length="0.03125" Pitch="40" RiffPosition="1.28125" Velocity="0" />
      <note Length="0.03125" Pitch="46" RiffPosition="1.3125" Velocity="0" />
      <note Length="0.03125" Pitch="51" RiffPosition="1.34375" Velocity="0" />
      <note Length="0.0625" Pitch="43" RiffPosition="1.375" Velocity="0" />
      <note Length="0.015625" Pitch="44" RiffPosition="1.4375" Velocity="0" />
      <note Length="0.046875" Pitch="48" RiffPosition="1.453125" Velocity="0" />
      <note Length="0.03125" Pitch="43" RiffPosition="1.5" Velocity="0" />
      <note Length="0.03125" Pitch="39" RiffPosition="1.53125" Velocity="0" />
      <note Length="0.03125" Pitch="46" RiffPosition="1.5625" Velocity="0" />
      <note Length="0.03125" Pitch="51" RiffPosition="1.59375" Velocity="0" />
      <note Length="0.0625" Pitch="44" RiffPosition="1.625" Velocity="0" />
      <note Length="0.015625" Pitch="44" RiffPosition="1.6875" Velocity="0" />
      <note Length="0.046875" Pitch="47" RiffPosition="1.703125" Velocity="0" />
      <note Length="0.03125" Pitch="40" RiffPosition="1.75" Velocity="0" />
      <note Length="0.03125" Pitch="36" RiffPosition="1.78125" Velocity="0" />
      <note Length="0.03125" Pitch="44" RiffPosition="1.8125" Velocity="0" />
      <note Length="0.03125" Pitch="50" RiffPosition="1.84375" Velocity="0" />
      <note Length="0.0625" Pitch="44" RiffPosition="1.875" Velocity="0" />
      <note Length="0.015625" Pitch="49" RiffPosition="1.9375" Velocity="0" />
      <note Length="0.046875" Pitch="52" RiffPosition="1.953125" Velocity="0" />
      <note Length="0.03125" Pitch="44" RiffPosition="2" Velocity="0" />
      <note Length="0.03125" Pitch="38" RiffPosition="2.03125" Velocity="0" />
      <note Length="0.03125" Pitch="44" RiffPosition="2.0625" Velocity="0" />
      <note Length="0.03125" Pitch="47" RiffPosition="2.09375" Velocity="0" />
      <note Length="0.0625" Pitch="40" RiffPosition="2.125" Velocity="0" />
      <note Length="0.015625" Pitch="44" RiffPosition="2.1875" Velocity="0" />
      <note Length="0.046875" Pitch="48" RiffPosition="2.203125" Velocity="0" />
      <note Length="0.03125" Pitch="44" RiffPosition="2.25" Velocity="0" />
      <note Length="0.03125" Pitch="40" RiffPosition="2.28125" Velocity="0" />
      <note Length="0.03125" Pitch="46" RiffPosition="2.3125" Velocity="0" />
      <note Length="0.03125" Pitch="51" RiffPosition="2.34375" Velocity="0" />
      <note Length="0.0625" Pitch="43" RiffPosition="2.375" Velocity="0" />
      <note Length="0.015625" Pitch="44" RiffPosition="2.4375" Velocity="0" />
      <note Length="0.046875" Pitch="48" RiffPosition="2.453125" Velocity="0" />
      <note Length="0.03125" Pitch="43" RiffPosition="2.5" Velocity="0" />
      <note Length="0.03125" Pitch="39" RiffPosition="2.53125" Velocity="0" />
      <note Length="0.03125" Pitch="46" RiffPosition="2.5625" Velocity="0" />
      <note Length="0.03125" Pitch="51" RiffPosition="2.59375" Velocity="0" />
      <note Length="0.0625" Pitch="44" RiffPosition="2.625" Velocity="0" />
      <note Length="0.015625" Pitch="44" RiffPosition="2.6875" Velocity="0" />
      <note Length="0.046875" Pitch="47" RiffPosition="2.703125" Velocity="0" />
      <note Length="0.03125" Pitch="40" RiffPosition="2.75" Velocity="0" />
      <note Length="0.03125" Pitch="36" RiffPosition="2.78125" Velocity="0" />
      <note Length="0.03125" Pitch="44" RiffPosition="2.8125" Velocity="0" />
      <note Length="0.03125" Pitch="50" RiffPosition="2.84375" Velocity="0" />
      <note Length="0.0625" Pitch="44" RiffPosition="2.875" Velocity="0" />
      <note Length="0.015625" Pitch="49" RiffPosition="2.9375" Velocity="0" />
      <note Length="0.046875" Pitch="52" RiffPosition="2.953125" Velocity="0" />
      <note Length="0.03125" Pitch="44" RiffPosition="3" Velocity="0" />
      <note Length="0.03125" Pitch="38" RiffPosition="3.03125" Velocity="0" />
      <note Length="0.03125" Pitch="44" RiffPosition="3.0625" Velocity="0" />
      <note Length="0.03125" Pitch="47" RiffPosition="3.09375" Velocity="0" />
      <note Length="0.0625" Pitch="40" RiffPosition="3.125" Velocity="0" />
      <note Length="0.015625" Pitch="44" RiffPosition="3.1875" Velocity="0" />
      <note Length="0.046875" Pitch="48" RiffPosition="3.203125" Velocity="0" />
      <note Length="0.03125" Pitch="44" RiffPosition="3.25" Velocity="0" />
      <note Length="0.03125" Pitch="40" RiffPosition="3.28125" Velocity="0" />
      <note Length="0.03125" Pitch="46" RiffPosition="3.3125" Velocity="0" />
      <note Length="0.03125" Pitch="51" RiffPosition="3.34375" Velocity="0" />
      <note Length="0.0625" Pitch="43" RiffPosition="3.375" Velocity="0" />
      <note Length="0.015625" Pitch="44" RiffPosition="3.4375" Velocity="0" />
      <note Length="0.046875" Pitch="48" RiffPosition="3.453125" Velocity="0" />
      <note Length="0.03125" Pitch="43" RiffPosition="3.5" Velocity="0" />
      <note Length="0.03125" Pitch="39" RiffPosition="3.53125" Velocity="0" />
      <note Length="0.03125" Pitch="46" RiffPosition="3.5625" Velocity="0" />
      <note Length="0.03125" Pitch="51" RiffPosition="3.59375" Velocity="0" />
      <note Length="0.0625" Pitch="44" RiffPosition="3.625" Velocity="0" />
      <note Length="0.015625" Pitch="44" RiffPosition="3.6875" Velocity="0" />
      <note Length="0.046875" Pitch="47" RiffPosition="3.703125" Velocity="0" />
      <note Length="0.03125" Pitch="40" RiffPosition="3.75" Velocity="0" />
      <note Length="0.03125" Pitch="36" RiffPosition="3.78125" Velocity="0" />
      <note Length="0.03125" Pitch="44" RiffPosition="3.8125" Velocity="0" />
      <note Length="0.03125" Pitch="50" RiffPosition="3.84375" Velocity="0" />
      <note Length="0.0625" Pitch="44" RiffPosition="3.875" Velocity="0" />
      <note Length="0.015625" Pitch="49" RiffPosition="3.9375" Velocity="0" />
      <note Length="0.046875" Pitch="52" RiffPosition="3.953125" Velocity="0" />
      <note Length="0.03125" Pitch="44" RiffPosition="4" Velocity="0" />
      <note Length="0.03125" Pitch="38" RiffPosition="4.03125" Velocity="0" />
      <note Length="0.03125" Pitch="44" RiffPosition="4.0625" Velocity="0" />
      <note Length="0.03125" Pitch="47" RiffPosition="4.09375" Velocity="0" />
      <note Length="0.0625" Pitch="40" RiffPosition="4.125" Velocity="0" />
      <note Length="0.015625" Pitch="44" RiffPosition="4.1875" Velocity="0" />
      <note Length="0.046875" Pitch="48" RiffPosition="4.203125" Velocity="0" />
      <note Length="0.03125" Pitch="44" RiffPosition="4.25" Velocity="0" />
      <note Length="0.03125" Pitch="40" RiffPosition="4.28125" Velocity="0" />
      <note Length="0.03125" Pitch="46" RiffPosition="4.3125" Velocity="0" />
      <note Length="0.03125" Pitch="51" RiffPosition="4.34375" Velocity="0" />
      <note Length="0.0625" Pitch="43" RiffPosition="4.375" Velocity="0" />
      <note Length="0.015625" Pitch="44" RiffPosition="4.4375" Velocity="0" />
      <note Length="0.046875" Pitch="48" RiffPosition="4.453125" Velocity="0" />
      <note Length="0.03125" Pitch="43" RiffPosition="4.5" Velocity="0" />
      <note Length="0.03125" Pitch="39" RiffPosition="4.53125" Velocity="0" />
      <note Length="0.03125" Pitch="46" RiffPosition="4.5625" Velocity="0" />
      <note Length="0.03125" Pitch="51" RiffPosition="4.59375" Velocity="0" />
      <note Length="0.0625" Pitch="44" RiffPosition="4.625" Velocity="0" />
      <note Length="0.015625" Pitch="44" RiffPosition="4.6875" Velocity="0" />
      <note Length="0.046875" Pitch="47" RiffPosition="4.703125" Velocity="0" />
      <note Length="0.03125" Pitch="40" RiffPosition="4.75" Velocity="0" />
      <note Length="0.03125" Pitch="36" RiffPosition="4.78125" Velocity="0" />
      <note Length="0.03125" Pitch="44" RiffPosition="4.8125" Velocity="0" />
      <note Length="0.03125" Pitch="50" RiffPosition="4.84375" Velocity="0" />
      <note Length="0.0625" Pitch="44" RiffPosition="4.875" Velocity="0" />
      <note Length="0.015625" Pitch="49" RiffPosition="4.9375" Velocity="0" />
      <note Length="0.046875" Pitch="52" RiffPosition="4.953125" Velocity="0" />
      <note Length="0.03125" Pitch="44" RiffPosition="5" Velocity="0" />
      <note Length="0.03125" Pitch="38" RiffPosition="5.03125" Velocity="0" />
      <note Length="0.03125" Pitch="44" RiffPosition="5.0625" Velocity="0" />
      <note Length="0.03125" Pitch="47" RiffPosition="5.09375" Velocity="0" />
      <note Length="0.0625" Pitch="40" RiffPosition="5.125" Velocity="0" />
      <note Length="0.015625" Pitch="44" RiffPosition="5.1875" Velocity="0" />
      <note Length="0.046875" Pitch="48" RiffPosition="5.203125" Velocity="0" />
      <note Length="0.03125" Pitch="44" RiffPosition="5.25" Velocity="0" />
      <note Length="0.03125" Pitch="40" RiffPosition="5.28125" Velocity="0" />
      <note Length="0.03125" Pitch="46" RiffPosition="5.3125" Velocity="0" />
      <note Length="0.03125" Pitch="51" RiffPosition="5.34375" Velocity="0" />
      <note Length="0.0625" Pitch="43" RiffPosition="5.375" Velocity="0" />
      <note Length="0.015625" Pitch="44" RiffPosition="5.4375" Velocity="0" />
      <note Length="0.046875" Pitch="48" RiffPosition="5.453125" Velocity="0" />
      <note Length="0.03125" Pitch="43" RiffPosition="5.5" Velocity="0" />
      <note Length="0.03125" Pitch="39" RiffPosition="5.53125" Velocity="0" />
      <note Length="0.03125" Pitch="46" RiffPosition="5.5625" Velocity="0" />
      <note Length="0.03125" Pitch="51" RiffPosition="5.59375" Velocity="0" />
      <note Length="0.0625" Pitch="44" RiffPosition="5.625" Velocity="0" />
      <note Length="0.015625" Pitch="44" RiffPosition="5.6875" Velocity="0" />
      <note Length="0.046875" Pitch="47" RiffPosition="5.703125" Velocity="0" />
      <note Length="0.03125" Pitch="40" RiffPosition="5.75" Velocity="0" />
      <note Length="0.03125" Pitch="36" RiffPosition="5.78125" Velocity="0" />
      <note Length="0.03125" Pitch="44" RiffPosition="5.8125" Velocity="0" />
      <note Length="0.03125" Pitch="50" RiffPosition="5.84375" Velocity="0" />
      <note Length="0.0625" Pitch="44" RiffPosition="5.875" Velocity="0" />
      <note Length="0.015625" Pitch="49" RiffPosition="5.9375" Velocity="0" />
      <note Length="0.046875" Pitch="52" RiffPosition="5.953125" Velocity="0" />
      <note Length="0.03125" Pitch="44" RiffPosition="6" Velocity="0" />
      <note Length="0.03125" Pitch="38" RiffPosition="6.03125" Velocity="0" />
      <note Length="0.03125" Pitch="44" RiffPosition="6.0625" Velocity="0" />
      <note Length="0.03125" Pitch="47" RiffPosition="6.09375" Velocity="0" />
      <note Length="0.0625" Pitch="40" RiffPosition="6.125" Velocity="0" />
      <note Length="0.015625" Pitch="44" RiffPosition="6.1875" Velocity="0" />
      <note Length="0.046875" Pitch="48" RiffPosition="6.203125" Velocity="0" />
      <note Length="0.03125" Pitch="44" RiffPosition="6.25" Velocity="0" />
      <note Length="0.03125" Pitch="40" RiffPosition="6.28125" Velocity="0" />
      <note Length="0.03125" Pitch="46" RiffPosition="6.3125" Velocity="0" />
      <note Length="0.03125" Pitch="51" RiffPosition="6.34375" Velocity="0" />
      <note Length="0.0625" Pitch="43" RiffPosition="6.375" Velocity="0" />
      <note Length="0.015625" Pitch="44" RiffPosition="6.4375" Velocity="0" />
      <note Length="0.046875" Pitch="48" RiffPosition="6.453125" Velocity="0" />
      <note Length="0.03125" Pitch="43" RiffPosition="6.5" Velocity="0" />
      <note Length="0.03125" Pitch="39" RiffPosition="6.53125" Velocity="0" />
      <note Length="0.03125" Pitch="46" RiffPosition="6.5625" Velocity="0" />
      <note Length="0.03125" Pitch="51" RiffPosition="6.59375" Velocity="0" />
      <note Length="0.0625" Pitch="44" RiffPosition="6.625" Velocity="0" />
      <note Length="0.015625" Pitch="44" RiffPosition="6.6875" Velocity="0" />
      <note Length="0.046875" Pitch="47" RiffPosition="6.703125" Velocity="0" />
      <note Length="0.03125" Pitch="40" RiffPosition="6.75" Velocity="0" />
      <note Length="0.03125" Pitch="36" RiffPosition="6.78125" Velocity="0" />
      <note Length="0.03125" Pitch="44" RiffPosition="6.8125" Velocity="0" />
      <note Length="0.03125" Pitch="50" RiffPosition="6.84375" Velocity="0" />
      <note Length="0.0625" Pitch="44" RiffPosition="6.875" Velocity="0" />
      <note Length="0.015625" Pitch="49" RiffPosition="6.9375" Velocity="0" />
      <note Length="0.046875" Pitch="52" RiffPosition="6.953125" Velocity="0" />
      <note Length="0.03125" Pitch="44" RiffPosition="7" Velocity="0" />
      <note Length="0.03125" Pitch="38" RiffPosition="7.03125" Velocity="0" />
      <note Length="0.03125" Pitch="44" RiffPosition="7.0625" Velocity="0" />
      <note Length="0.03125" Pitch="47" RiffPosition="7.09375" Velocity="0" />
      <note Length="0.0625" Pitch="40" RiffPosition="7.125" Velocity="0" />
      <note Length="0.015625" Pitch="44" RiffPosition="7.1875" Velocity="0" />
      <note Length="0.046875" Pitch="48" RiffPosition="7.203125" Velocity="0" />
      <note Length="0.03125" Pitch="44" RiffPosition="7.25" Velocity="0" />
      <note Length="0.03125" Pitch="40" RiffPosition="7.28125" Velocity="0" />
      <note Length="0.03125" Pitch="46" RiffPosition="7.3125" Velocity="0" />
      <note Length="0.03125" Pitch="51" RiffPosition="7.34375" Velocity="0" />
      <note Length="0.0625" Pitch="43" RiffPosition="7.375" Velocity="0" />
      <note Length="0.015625" Pitch="44" RiffPosition="7.4375" Velocity="0" />
      <note Length="0.046875" Pitch="48" RiffPosition="7.453125" Velocity="0" />
      <note Length="0.03125" Pitch="43" RiffPosition="7.5" Velocity="0" />
      <note Length="0.03125" Pitch="39" RiffPosition="7.53125" Velocity="0" />
      <note Length="0.03125" Pitch="46" RiffPosition="7.5625" Velocity="0" />
      <note Length="0.03125" Pitch="51" RiffPosition="7.59375" Velocity="0" />
      <note Length="0.0625" Pitch="44" RiffPosition="7.625" Velocity="0" />
      <note Length="0.015625" Pitch="44" RiffPosition="7.6875" Velocity="0" />
      <note Length="0.046875" Pitch="47" RiffPosition="7.703125" Velocity="0" />
      <note Length="0.03125" Pitch="40" RiffPosition="7.75" Velocity="0" />
      <note Length="0.03125" Pitch="36" RiffPosition="7.78125" Velocity="0" />
      <note Length="0.03125" Pitch="44" RiffPosition="7.8125" Velocity="0" />
      <note Length="0.03125" Pitch="50" RiffPosition="7.84375" Velocity="0" />
      <note Length="0.0625" Pitch="44" RiffPosition="7.875" Velocity="0" />
      <note Length="0.015625" Pitch="49" RiffPosition="7.9375" Velocity="0" />
      <note Length="0.046875" Pitch="52" RiffPosition="7.953125" Velocity="0" />
      <note Length="0.03125" Pitch="44" RiffPosition="8" Velocity="0" />
      <note Length="0.03125" Pitch="38" RiffPosition="8.03125" Velocity="0" />
      <note Length="0.03125" Pitch="44" RiffPosition="8.0625" Velocity="0" />
      <note Length="0.03125" Pitch="47" RiffPosition="8.09375" Velocity="0" />
      <note Length="0.0625" Pitch="40" RiffPosition="8.125" Velocity="0" />
      <note Length="0.015625" Pitch="44" RiffPosition="8.1875" Velocity="0" />
      <note Length="0.046875" Pitch="48" RiffPosition="8.203125" Velocity="0" />
      <note Length="0.03125" Pitch="44" RiffPosition="8.25" Velocity="0" />
      <note Length="0.03125" Pitch="40" RiffPosition="8.28125" Velocity="0" />
      <note Length="0.03125" Pitch="46" RiffPosition="8.3125" Velocity="0" />
      <note Length="0.03125" Pitch="51" RiffPosition="8.34375" Velocity="0" />
      <note Length="0.0625" Pitch="43" RiffPosition="8.375" Velocity="0" />
      <note Length="0.015625" Pitch="44" RiffPosition="8.4375" Velocity="0" />
      <note Length="0.046875" Pitch="48" RiffPosition="8.453125" Velocity="0" />
      <note Length="0.03125" Pitch="43" RiffPosition="8.5" Velocity="0" />
      <note Length="0.03125" Pitch="39" RiffPosition="8.53125" Velocity="0" />
      <note Length="0.03125" Pitch="46" RiffPosition="8.5625" Velocity="0" />
      <note Length="0.03125" Pitch="51" RiffPosition="8.59375" Velocity="0" />
      <note Length="0.0625" Pitch="44" RiffPosition="8.625" Velocity="0" />
      <note Length="0.015625" Pitch="44" RiffPosition="8.6875" Velocity="0" />
      <note Length="0.046875" Pitch="47" RiffPosition="8.703125" Velocity="0" />
      <note Length="0.03125" Pitch="40" RiffPosition="8.75" Velocity="0" />
      <note Length="0.03125" Pitch="36" RiffPosition="8.78125" Velocity="0" />
      <note Length="0.03125" Pitch="44" RiffPosition="8.8125" Velocity="0" />
      <note Length="0.03125" Pitch="50" RiffPosition="8.84375" Velocity="0" />
      <note Length="0.0625" Pitch="44" RiffPosition="8.875" Velocity="0" />
      <note Length="0.015625" Pitch="49" RiffPosition="8.9375" Velocity="0" />
      <note Length="0.046875" Pitch="52" RiffPosition="8.953125" Velocity="0" />
      <note Length="0.03125" Pitch="44" RiffPosition="9" Velocity="102" />
      <note Length="0.03125" Pitch="38" RiffPosition="9.03125" Velocity="0" />
      <note Length="0.03125" Pitch="44" RiffPosition="9.0625" Velocity="82" />
      <note Length="0.03125" Pitch="47" RiffPosition="9.09375" Velocity="53" />
      <note Length="0.0625" Pitch="40" RiffPosition="9.125" Velocity="0" />
      <note Length="0.015625" Pitch="44" RiffPosition="9.1875" Velocity="86" />
      <note Length="0.046875" Pitch="48" RiffPosition="9.203125" Velocity="96" />
      <note Length="0.03125" Pitch="44" RiffPosition="9.25" Velocity="80" />
      <note Length="0.03125" Pitch="40" RiffPosition="9.28125" Velocity="0" />
      <note Length="0.03125" Pitch="46" RiffPosition="9.3125" Velocity="90" />
      <note Length="0.03125" Pitch="51" RiffPosition="9.34375" Velocity="75" />
      <note Length="0.0625" Pitch="43" RiffPosition="9.375" Velocity="70" />
      <note Length="0.015625" Pitch="44" RiffPosition="9.4375" Velocity="90" />
      <note Length="0.046875" Pitch="48" RiffPosition="9.453125" Velocity="101" />
      <note Length="0.03125" Pitch="43" RiffPosition="9.5" Velocity="93" />
      <note Length="0.03125" Pitch="39" RiffPosition="9.53125" Velocity="0" />
      <note Length="0.03125" Pitch="46" RiffPosition="9.5625" Velocity="76" />
      <note Length="0.03125" Pitch="51" RiffPosition="9.59375" Velocity="61" />
      <note Length="0.0625" Pitch="44" RiffPosition="9.625" Velocity="99" />
      <note Length="0.015625" Pitch="44" RiffPosition="9.6875" Velocity="80" />
      <note Length="0.046875" Pitch="47" RiffPosition="9.703125" Velocity="105" />
      <note Length="0.03125" Pitch="40" RiffPosition="9.75" Velocity="0" />
      <note Length="0.03125" Pitch="36" RiffPosition="9.78125" Velocity="0" />
      <note Length="0.03125" Pitch="44" RiffPosition="9.8125" Velocity="98" />
      <note Length="0.03125" Pitch="50" RiffPosition="9.84375" Velocity="69" />
      <note Length="0.0625" Pitch="44" RiffPosition="9.875" Velocity="76" />
      <note Length="0.015625" Pitch="49" RiffPosition="9.9375" Velocity="46" />
      <note Length="0.046875" Pitch="52" RiffPosition="9.953125" Velocity="52" />
      <note Length="0.03125" Pitch="44" RiffPosition="10" Velocity="100" />
      <note Length="0.03125" Pitch="38" RiffPosition="10.03125" Velocity="0" />
      <note Length="0.03125" Pitch="44" RiffPosition="10.0625" Velocity="69" />
      <note Length="0.03125" Pitch="47" RiffPosition="10.09375" Velocity="55" />
      <note Length="0.0625" Pitch="40" RiffPosition="10.125" Velocity="0" />
      <note Length="0.015625" Pitch="44" RiffPosition="10.1875" Velocity="88" />
      <note Length="0.046875" Pitch="48" RiffPosition="10.203125" Velocity="99" />
      <note Length="0.03125" Pitch="44" RiffPosition="10.25" Velocity="77" />
      <note Length="0.03125" Pitch="40" RiffPosition="10.28125" Velocity="0" />
      <note Length="0.03125" Pitch="46" RiffPosition="10.3125" Velocity="92" />
      <note Length="0.03125" Pitch="51" RiffPosition="10.34375" Velocity="77" />
      <note Length="0.0625" Pitch="43" RiffPosition="10.375" Velocity="83" />
      <note Length="0.015625" Pitch="44" RiffPosition="10.4375" Velocity="93" />
      <note Length="0.046875" Pitch="48" RiffPosition="10.453125" Velocity="103" />
      <note Length="0.03125" Pitch="43" RiffPosition="10.5" Velocity="91" />
      <note Length="0.03125" Pitch="39" RiffPosition="10.53125" Velocity="0" />
      <note Length="0.03125" Pitch="46" RiffPosition="10.5625" Velocity="78" />
      <note Length="0.03125" Pitch="51" RiffPosition="10.59375" Velocity="64" />
      <note Length="0.0625" Pitch="44" RiffPosition="10.625" Velocity="97" />
      <note Length="0.015625" Pitch="44" RiffPosition="10.6875" Velocity="82" />
      <note Length="0.046875" Pitch="47" RiffPosition="10.703125" Velocity="107" />
      <note Length="0.03125" Pitch="40" RiffPosition="10.75" Velocity="0" />
      <note Length="0.03125" Pitch="36" RiffPosition="10.78125" Velocity="0" />
      <note Length="0.03125" Pitch="44" RiffPosition="10.8125" Velocity="101" />
      <note Length="0.03125" Pitch="50" RiffPosition="10.84375" Velocity="71" />
      <note Length="0.0625" Pitch="44" RiffPosition="10.875" Velocity="74" />
      <note Length="0.015625" Pitch="49" RiffPosition="10.9375" Velocity="47" />
      <note Length="0.046875" Pitch="52" RiffPosition="10.953125" Velocity="53" />
      <note Length="0.03125" Pitch="44" RiffPosition="11" Velocity="98" />
      <note Length="0.03125" Pitch="38" RiffPosition="11.03125" Velocity="0" />
      <note Length="0.03125" Pitch="44" RiffPosition="11.0625" Velocity="72" />
      <note Length="0.03125" Pitch="47" RiffPosition="11.09375" Velocity="57" />
      <note Length="0.0625" Pitch="40" RiffPosition="11.125" Velocity="0" />
      <note Length="0.015625" Pitch="44" RiffPosition="11.1875" Velocity="90" />
      <note Length="0.046875" Pitch="48" RiffPosition="11.203125" Velocity="101" />
      <note Length="0.03125" Pitch="44" RiffPosition="11.25" Velocity="75" />
      <note Length="0.03125" Pitch="40" RiffPosition="11.28125" Velocity="0" />
      <note Length="0.03125" Pitch="46" RiffPosition="11.3125" Velocity="94" />
      <note Length="0.03125" Pitch="51" RiffPosition="11.34375" Velocity="80" />
      <note Length="0.0625" Pitch="43" RiffPosition="11.375" Velocity="80" />
      <note Length="0.015625" Pitch="44" RiffPosition="11.4375" Velocity="80" />
      <note Length="0.046875" Pitch="48" RiffPosition="11.453125" Velocity="105" />
      <note Length="0.03125" Pitch="43" RiffPosition="11.5" Velocity="89" />
      <note Length="0.03125" Pitch="39" RiffPosition="11.53125" Velocity="0" />
      <note Length="0.03125" Pitch="46" RiffPosition="11.5625" Velocity="80" />
      <note Length="0.03125" Pitch="51" RiffPosition="11.59375" Velocity="51" />
      <note Length="0.0625" Pitch="44" RiffPosition="11.625" Velocity="94" />
      <note Length="0.015625" Pitch="44" RiffPosition="11.6875" Velocity="84" />
      <note Length="0.046875" Pitch="47" RiffPosition="11.703125" Velocity="95" />
      <note Length="0.03125" Pitch="40" RiffPosition="11.75" Velocity="0" />
      <note Length="0.03125" Pitch="36" RiffPosition="11.78125" Velocity="0" />
      <note Length="0.03125" Pitch="44" RiffPosition="11.8125" Velocity="88" />
      <note Length="0.03125" Pitch="50" RiffPosition="11.84375" Velocity="73" />
      <note Length="0.0625" Pitch="44" RiffPosition="11.875" Velocity="72" />
      <note Length="0.015625" Pitch="49" RiffPosition="11.9375" Velocity="48" />
      <note Length="0.046875" Pitch="52" RiffPosition="11.953125" Velocity="54" />
      <note Length="0.03125" Pitch="44" RiffPosition="12" Velocity="95" />
      <note Length="0.03125" Pitch="38" RiffPosition="12.03125" Velocity="0" />
      <note Length="0.03125" Pitch="44" RiffPosition="12.0625" Velocity="74" />
      <note Length="0.03125" Pitch="47" RiffPosition="12.09375" Velocity="59" />
      <note Length="0.0625" Pitch="40" RiffPosition="12.125" Velocity="0" />
      <note Length="0.015625" Pitch="44" RiffPosition="12.1875" Velocity="93" />
      <note Length="0.046875" Pitch="48" RiffPosition="12.203125" Velocity="103" />
      <note Length="0.03125" Pitch="44" RiffPosition="12.25" Velocity="73" />
      <note Length="0.03125" Pitch="40" RiffPosition="12.28125" Velocity="0" />
      <note Length="0.03125" Pitch="46" RiffPosition="12.3125" Velocity="96" />
      <note Length="0.03125" Pitch="51" RiffPosition="12.34375" Velocity="67" />
      <note Length="0.0625" Pitch="43" RiffPosition="12.375" Velocity="78" />
      <note Length="0.015625" Pitch="44" RiffPosition="12.4375" Velocity="82" />
      <note Length="0.046875" Pitch="48" RiffPosition="12.453125" Velocity="108" />
      <note Length="0.03125" Pitch="43" RiffPosition="12.5" Velocity="102" />
      <note Length="0.03125" Pitch="39" RiffPosition="12.53125" Velocity="0" />
      <note Length="0.03125" Pitch="46" RiffPosition="12.5625" Velocity="83" />
      <note Length="0.03125" Pitch="51" RiffPosition="12.59375" Velocity="53" />
      <note Length="0.0625" Pitch="44" RiffPosition="12.625" Velocity="92" />
      <note Length="0.015625" Pitch="44" RiffPosition="12.6875" Velocity="86" />
      <note Length="0.046875" Pitch="47" RiffPosition="12.703125" Velocity="97" />
      <note Length="0.03125" Pitch="40" RiffPosition="12.75" Velocity="0" />
      <note Length="0.03125" Pitch="36" RiffPosition="12.78125" Velocity="0" />
      <note Length="0.03125" Pitch="44" RiffPosition="12.8125" Velocity="90" />
      <note Length="0.03125" Pitch="50" RiffPosition="12.84375" Velocity="76" />
      <note Length="0.0625" Pitch="44" RiffPosition="12.875" Velocity="69" />
      <note Length="0.015625" Pitch="49" RiffPosition="12.9375" Velocity="50" />
      <note Length="0.046875" Pitch="52" RiffPosition="12.953125" Velocity="56" />
      <note Length="0.03125" Pitch="44" RiffPosition="13" Velocity="0" />
      <note Length="0.03125" Pitch="38" RiffPosition="13.03125" Velocity="0" />
      <note Length="0.03125" Pitch="44" RiffPosition="13.0625" Velocity="0" />
      <note Length="0.03125" Pitch="47" RiffPosition="13.09375" Velocity="0" />
      <note Length="0.0625" Pitch="40" RiffPosition="13.125" Velocity="0" />
      <note Length="0.015625" Pitch="44" RiffPosition="13.1875" Velocity="0" />
      <note Length="0.046875" Pitch="48" RiffPosition="13.203125" Velocity="0" />
      <note Length="0.03125" Pitch="44" RiffPosition="13.25" Velocity="0" />
      <note Length="0.03125" Pitch="40" RiffPosition="13.28125" Velocity="0" />
      <note Length="0.03125" Pitch="46" RiffPosition="13.3125" Velocity="0" />
      <note Length="0.03125" Pitch="51" RiffPosition="13.34375" Velocity="0" />
      <note Length="0.0625" Pitch="43" RiffPosition="13.375" Velocity="0" />
      <note Length="0.015625" Pitch="44" RiffPosition="13.4375" Velocity="0" />
      <note Length="0.046875" Pitch="48" RiffPosition="13.453125" Velocity="0" />
      <note Length="0.03125" Pitch="43" RiffPosition="13.5" Velocity="0" />
      <note Length="0.03125" Pitch="39" RiffPosition="13.53125" Velocity="0" />
      <note Length="0.03125" Pitch="46" RiffPosition="13.5625" Velocity="0" />
      <note Length="0.03125" Pitch="51" RiffPosition="13.59375" Velocity="0" />
      <note Length="0.0625" Pitch="44" RiffPosition="13.625" Velocity="0" />
      <note Length="0.015625" Pitch="44" RiffPosition="13.6875" Velocity="0" />
      <note Length="0.046875" Pitch="47" RiffPosition="13.703125" Velocity="0" />
      <note Length="0.03125" Pitch="40" RiffPosition="13.75" Velocity="0" />
      <note Length="0.03125" Pitch="36" RiffPosition="13.78125" Velocity="0" />
      <note Length="0.03125" Pitch="44" RiffPosition="13.8125" Velocity="0" />
      <note Length="0.03125" Pitch="50" RiffPosition="13.84375" Velocity="0" />
      <note Length="0.0625" Pitch="44" RiffPosition="13.875" Velocity="0" />
      <note Length="0.015625" Pitch="49" RiffPosition="13.9375" Velocity="0" />
      <note Length="0.046875" Pitch="52" RiffPosition="13.953125" Velocity="0" />
    </riff>
    <riff IsDrum="True" MidiInstrument="0" Tempo="122" Length="14">
      <note Length="0.03125" Pitch="41" RiffPosition="0" Velocity="0" />
      <note Length="0.03125" Pitch="37" RiffPosition="0.03125" Velocity="0" />
      <note Length="0.03125" Pitch="34" RiffPosition="0.0625" Velocity="0" />
      <note Length="0.03125" Pitch="37" RiffPosition="0.09375" Velocity="0" />
      <note Length="0.03125" Pitch="42" RiffPosition="0.125" Velocity="0" />
      <note Length="0.03125" Pitch="45" RiffPosition="0.15625" Velocity="0" />
      <note Length="0.0625" Pitch="45" RiffPosition="0.1875" Velocity="0" />
      <note Length="0.0625" Pitch="53" RiffPosition="0.25" Velocity="0" />
      <note Length="0.03125" Pitch="45" RiffPosition="0.3125" Velocity="0" />
      <note Length="0.03125" Pitch="44" RiffPosition="0.34375" Velocity="0" />
      <note Length="0.03125" Pitch="44" RiffPosition="0.375" Velocity="0" />
      <note Length="0.03125" Pitch="40" RiffPosition="0.40625" Velocity="0" />
      <note Length="0.03125" Pitch="40" RiffPosition="0.4375" Velocity="0" />
      <note Length="0.03125" Pitch="41" RiffPosition="0.46875" Velocity="0" />
      <note Length="0.03125" Pitch="44" RiffPosition="0.5" Velocity="0" />
      <note Length="0.03125" Pitch="45" RiffPosition="0.53125" Velocity="0" />
      <note Length="0.015625" Pitch="44" RiffPosition="0.5625" Velocity="0" />
      <note Length="0.046875" Pitch="44" RiffPosition="0.578125" Velocity="0" />
      <note Length="0.046875" Pitch="44" RiffPosition="0.625" Velocity="0" />
      <note Length="0.015625" Pitch="41" RiffPosition="0.671875" Velocity="0" />
      <note Length="0.0625" Pitch="39" RiffPosition="0.6875" Velocity="0" />
      <note Length="0.03125" Pitch="44" RiffPosition="0.75" Velocity="0" />
      <note Length="0.03125" Pitch="45" RiffPosition="0.78125" Velocity="0" />
      <note Length="0.03125" Pitch="46" RiffPosition="0.8125" Velocity="0" />
      <note Length="0.03125" Pitch="49" RiffPosition="0.84375" Velocity="0" />
      <note Length="0.03125" Pitch="54" RiffPosition="0.875" Velocity="0" />
      <note Length="0.03125" Pitch="49" RiffPosition="0.90625" Velocity="0" />
      <note Length="0.0625" Pitch="45" RiffPosition="0.9375" Velocity="0" />
      <note Length="0.0625" Pitch="41" RiffPosition="1" Velocity="0" />
      <note Length="0.03125" Pitch="34" RiffPosition="1.0625" Velocity="0" />
      <note Length="0.03125" Pitch="37" RiffPosition="1.09375" Velocity="0" />
      <note Length="0.03125" Pitch="42" RiffPosition="1.125" Velocity="0" />
      <note Length="0.03125" Pitch="45" RiffPosition="1.15625" Velocity="0" />
      <note Length="0.03125" Pitch="45" RiffPosition="1.1875" Velocity="0" />
      <note Length="0.03125" Pitch="52" RiffPosition="1.21875" Velocity="0" />
      <note Length="0.03125" Pitch="53" RiffPosition="1.25" Velocity="0" />
      <note Length="0.03125" Pitch="49" RiffPosition="1.28125" Velocity="0" />
      <note Length="0.015625" Pitch="45" RiffPosition="1.3125" Velocity="0" />
      <note Length="0.046875" Pitch="44" RiffPosition="1.328125" Velocity="0" />
      <note Length="0.046875" Pitch="44" RiffPosition="1.375" Velocity="0" />
      <note Length="0.015625" Pitch="40" RiffPosition="1.421875" Velocity="0" />
      <note Length="0.0625" Pitch="40" RiffPosition="1.4375" Velocity="0" />
      <note Length="0.03125" Pitch="44" RiffPosition="1.5" Velocity="0" />
      <note Length="0.03125" Pitch="45" RiffPosition="1.53125" Velocity="0" />
      <note Length="0.03125" Pitch="44" RiffPosition="1.5625" Velocity="0" />
      <note Length="0.03125" Pitch="44" RiffPosition="1.59375" Velocity="0" />
      <note Length="0.03125" Pitch="44" RiffPosition="1.625" Velocity="0" />
      <note Length="0.03125" Pitch="44" RiffPosition="1.65625" Velocity="0" />
      <note Length="0.0625" Pitch="39" RiffPosition="1.6875" Velocity="0" />
      <note Length="0.0625" Pitch="44" RiffPosition="1.75" Velocity="0" />
      <note Length="0.03125" Pitch="46" RiffPosition="1.8125" Velocity="0" />
      <note Length="0.03125" Pitch="49" RiffPosition="1.84375" Velocity="0" />
      <note Length="0.03125" Pitch="54" RiffPosition="1.875" Velocity="0" />
      <note Length="0.03125" Pitch="49" RiffPosition="1.90625" Velocity="0" />
      <note Length="0.03125" Pitch="45" RiffPosition="1.9375" Velocity="0" />
      <note Length="0.03125" Pitch="41" RiffPosition="1.96875" Velocity="0" />
      <note Length="0.03125" Pitch="41" RiffPosition="2" Velocity="0" />
      <note Length="0.03125" Pitch="37" RiffPosition="2.03125" Velocity="0" />
      <note Length="0.015625" Pitch="34" RiffPosition="2.0625" Velocity="0" />
      <note Length="0.046875" Pitch="35" RiffPosition="2.078125" Velocity="0" />
      <note Length="0.046875" Pitch="42" RiffPosition="2.125" Velocity="0" />
      <note Length="0.015625" Pitch="45" RiffPosition="2.171875" Velocity="0" />
      <note Length="0.0625" Pitch="45" RiffPosition="2.1875" Velocity="0" />
      <note Length="0.03125" Pitch="53" RiffPosition="2.25" Velocity="0" />
      <note Length="0.03125" Pitch="49" RiffPosition="2.28125" Velocity="0" />
      <note Length="0.03125" Pitch="45" RiffPosition="2.3125" Velocity="0" />
      <note Length="0.03125" Pitch="44" RiffPosition="2.34375" Velocity="0" />
      <note Length="0.03125" Pitch="44" RiffPosition="2.375" Velocity="0" />
      <note Length="0.03125" Pitch="40" RiffPosition="2.40625" Velocity="0" />
      <note Length="0.0625" Pitch="40" RiffPosition="2.4375" Velocity="0" />
      <note Length="0.0625" Pitch="44" RiffPosition="2.5" Velocity="0" />
      <note Length="0.03125" Pitch="44" RiffPosition="2.5625" Velocity="0" />
      <note Length="0.03125" Pitch="44" RiffPosition="2.59375" Velocity="0" />
      <note Length="0.03125" Pitch="44" RiffPosition="2.625" Velocity="0" />
      <note Length="0.03125" Pitch="44" RiffPosition="2.65625" Velocity="0" />
      <note Length="0.03125" Pitch="39" RiffPosition="2.6875" Velocity="0" />
      <note Length="0.03125" Pitch="42" RiffPosition="2.71875" Velocity="0" />
      <note Length="0.03125" Pitch="44" RiffPosition="2.75" Velocity="0" />
      <note Length="0.03125" Pitch="45" RiffPosition="2.78125" Velocity="0" />
      <note Length="0.015625" Pitch="46" RiffPosition="2.8125" Velocity="0" />
      <note Length="0.046875" Pitch="47" RiffPosition="2.828125" Velocity="0" />
      <note Length="0.046875" Pitch="54" RiffPosition="2.875" Velocity="0" />
      <note Length="0.015625" Pitch="46" RiffPosition="2.921875" Velocity="0" />
      <note Length="0.0625" Pitch="45" RiffPosition="2.9375" Velocity="0" />
      <note Length="0.03125" Pitch="41" RiffPosition="3" Velocity="0" />
      <note Length="0.03125" Pitch="37" RiffPosition="3.03125" Velocity="0" />
      <note Length="0.03125" Pitch="34" RiffPosition="3.0625" Velocity="0" />
      <note Length="0.03125" Pitch="37" RiffPosition="3.09375" Velocity="0" />
      <note Length="0.03125" Pitch="42" RiffPosition="3.125" Velocity="0" />
      <note Length="0.03125" Pitch="45" RiffPosition="3.15625" Velocity="0" />
      <note Length="0.0625" Pitch="45" RiffPosition="3.1875" Velocity="0" />
      <note Length="0.0625" Pitch="53" RiffPosition="3.25" Velocity="0" />
      <note Length="0.03125" Pitch="45" RiffPosition="3.3125" Velocity="0" />
      <note Length="0.03125" Pitch="44" RiffPosition="3.34375" Velocity="0" />
      <note Length="0.03125" Pitch="44" RiffPosition="3.375" Velocity="0" />
      <note Length="0.03125" Pitch="40" RiffPosition="3.40625" Velocity="0" />
      <note Length="0.03125" Pitch="40" RiffPosition="3.4375" Velocity="0" />
      <note Length="0.03125" Pitch="41" RiffPosition="3.46875" Velocity="0" />
      <note Length="0.03125" Pitch="44" RiffPosition="3.5" Velocity="0" />
      <note Length="0.03125" Pitch="45" RiffPosition="3.53125" Velocity="0" />
      <note Length="0.015625" Pitch="44" RiffPosition="3.5625" Velocity="0" />
      <note Length="0.046875" Pitch="44" RiffPosition="3.578125" Velocity="0" />
      <note Length="0.046875" Pitch="44" RiffPosition="3.625" Velocity="0" />
      <note Length="0.015625" Pitch="41" RiffPosition="3.671875" Velocity="0" />
      <note Length="0.0625" Pitch="39" RiffPosition="3.6875" Velocity="0" />
      <note Length="0.03125" Pitch="44" RiffPosition="3.75" Velocity="0" />
      <note Length="0.03125" Pitch="45" RiffPosition="3.78125" Velocity="0" />
      <note Length="0.03125" Pitch="46" RiffPosition="3.8125" Velocity="0" />
      <note Length="0.03125" Pitch="49" RiffPosition="3.84375" Velocity="0" />
      <note Length="0.03125" Pitch="54" RiffPosition="3.875" Velocity="0" />
      <note Length="0.03125" Pitch="49" RiffPosition="3.90625" Velocity="0" />
      <note Length="0.0625" Pitch="45" RiffPosition="3.9375" Velocity="0" />
      <note Length="0.0625" Pitch="41" RiffPosition="4" Velocity="0" />
      <note Length="0.03125" Pitch="34" RiffPosition="4.0625" Velocity="0" />
      <note Length="0.03125" Pitch="37" RiffPosition="4.09375" Velocity="0" />
      <note Length="0.03125" Pitch="42" RiffPosition="4.125" Velocity="0" />
      <note Length="0.03125" Pitch="45" RiffPosition="4.15625" Velocity="0" />
      <note Length="0.03125" Pitch="45" RiffPosition="4.1875" Velocity="0" />
      <note Length="0.03125" Pitch="52" RiffPosition="4.21875" Velocity="0" />
      <note Length="0.03125" Pitch="53" RiffPosition="4.25" Velocity="0" />
      <note Length="0.03125" Pitch="49" RiffPosition="4.28125" Velocity="0" />
      <note Length="0.015625" Pitch="45" RiffPosition="4.3125" Velocity="0" />
      <note Length="0.046875" Pitch="44" RiffPosition="4.328125" Velocity="0" />
      <note Length="0.046875" Pitch="44" RiffPosition="4.375" Velocity="0" />
      <note Length="0.015625" Pitch="40" RiffPosition="4.421875" Velocity="0" />
      <note Length="0.0625" Pitch="40" RiffPosition="4.4375" Velocity="0" />
      <note Length="0.03125" Pitch="44" RiffPosition="4.5" Velocity="0" />
      <note Length="0.03125" Pitch="45" RiffPosition="4.53125" Velocity="0" />
      <note Length="0.03125" Pitch="44" RiffPosition="4.5625" Velocity="0" />
      <note Length="0.03125" Pitch="44" RiffPosition="4.59375" Velocity="0" />
      <note Length="0.03125" Pitch="44" RiffPosition="4.625" Velocity="0" />
      <note Length="0.03125" Pitch="44" RiffPosition="4.65625" Velocity="0" />
      <note Length="0.0625" Pitch="39" RiffPosition="4.6875" Velocity="0" />
      <note Length="0.0625" Pitch="44" RiffPosition="4.75" Velocity="0" />
      <note Length="0.03125" Pitch="46" RiffPosition="4.8125" Velocity="0" />
      <note Length="0.03125" Pitch="49" RiffPosition="4.84375" Velocity="0" />
      <note Length="0.03125" Pitch="54" RiffPosition="4.875" Velocity="0" />
      <note Length="0.03125" Pitch="49" RiffPosition="4.90625" Velocity="0" />
      <note Length="0.03125" Pitch="45" RiffPosition="4.9375" Velocity="0" />
      <note Length="0.03125" Pitch="41" RiffPosition="4.96875" Velocity="0" />
      <note Length="0.03125" Pitch="41" RiffPosition="5" Velocity="0" />
      <note Length="0.03125" Pitch="37" RiffPosition="5.03125" Velocity="0" />
      <note Length="0.015625" Pitch="34" RiffPosition="5.0625" Velocity="0" />
      <note Length="0.046875" Pitch="35" RiffPosition="5.078125" Velocity="0" />
      <note Length="0.046875" Pitch="42" RiffPosition="5.125" Velocity="0" />
      <note Length="0.015625" Pitch="45" RiffPosition="5.171875" Velocity="0" />
      <note Length="0.0625" Pitch="45" RiffPosition="5.1875" Velocity="0" />
      <note Length="0.03125" Pitch="53" RiffPosition="5.25" Velocity="0" />
      <note Length="0.03125" Pitch="49" RiffPosition="5.28125" Velocity="0" />
      <note Length="0.03125" Pitch="45" RiffPosition="5.3125" Velocity="0" />
      <note Length="0.03125" Pitch="44" RiffPosition="5.34375" Velocity="0" />
      <note Length="0.03125" Pitch="44" RiffPosition="5.375" Velocity="0" />
      <note Length="0.03125" Pitch="40" RiffPosition="5.40625" Velocity="0" />
      <note Length="0.0625" Pitch="40" RiffPosition="5.4375" Velocity="0" />
      <note Length="0.0625" Pitch="44" RiffPosition="5.5" Velocity="0" />
      <note Length="0.03125" Pitch="44" RiffPosition="5.5625" Velocity="0" />
      <note Length="0.03125" Pitch="44" RiffPosition="5.59375" Velocity="0" />
      <note Length="0.03125" Pitch="44" RiffPosition="5.625" Velocity="0" />
      <note Length="0.03125" Pitch="44" RiffPosition="5.65625" Velocity="0" />
      <note Length="0.03125" Pitch="39" RiffPosition="5.6875" Velocity="0" />
      <note Length="0.03125" Pitch="42" RiffPosition="5.71875" Velocity="0" />
      <note Length="0.03125" Pitch="44" RiffPosition="5.75" Velocity="0" />
      <note Length="0.03125" Pitch="45" RiffPosition="5.78125" Velocity="0" />
      <note Length="0.015625" Pitch="46" RiffPosition="5.8125" Velocity="0" />
      <note Length="0.046875" Pitch="47" RiffPosition="5.828125" Velocity="0" />
      <note Length="0.046875" Pitch="54" RiffPosition="5.875" Velocity="0" />
      <note Length="0.015625" Pitch="46" RiffPosition="5.921875" Velocity="0" />
      <note Length="0.0625" Pitch="45" RiffPosition="5.9375" Velocity="0" />
      <note Length="0.03125" Pitch="41" RiffPosition="6" Velocity="0" />
      <note Length="0.03125" Pitch="37" RiffPosition="6.03125" Velocity="0" />
      <note Length="0.03125" Pitch="34" RiffPosition="6.0625" Velocity="0" />
      <note Length="0.03125" Pitch="37" RiffPosition="6.09375" Velocity="0" />
      <note Length="0.03125" Pitch="42" RiffPosition="6.125" Velocity="0" />
      <note Length="0.03125" Pitch="45" RiffPosition="6.15625" Velocity="0" />
      <note Length="0.0625" Pitch="45" RiffPosition="6.1875" Velocity="0" />
      <note Length="0.0625" Pitch="53" RiffPosition="6.25" Velocity="0" />
      <note Length="0.03125" Pitch="45" RiffPosition="6.3125" Velocity="0" />
      <note Length="0.03125" Pitch="44" RiffPosition="6.34375" Velocity="0" />
      <note Length="0.03125" Pitch="44" RiffPosition="6.375" Velocity="0" />
      <note Length="0.03125" Pitch="40" RiffPosition="6.40625" Velocity="0" />
      <note Length="0.03125" Pitch="40" RiffPosition="6.4375" Velocity="0" />
      <note Length="0.03125" Pitch="41" RiffPosition="6.46875" Velocity="0" />
      <note Length="0.03125" Pitch="44" RiffPosition="6.5" Velocity="0" />
      <note Length="0.03125" Pitch="45" RiffPosition="6.53125" Velocity="0" />
      <note Length="0.015625" Pitch="44" RiffPosition="6.5625" Velocity="0" />
      <note Length="0.046875" Pitch="44" RiffPosition="6.578125" Velocity="0" />
      <note Length="0.046875" Pitch="44" RiffPosition="6.625" Velocity="0" />
      <note Length="0.015625" Pitch="41" RiffPosition="6.671875" Velocity="0" />
      <note Length="0.0625" Pitch="39" RiffPosition="6.6875" Velocity="0" />
      <note Length="0.03125" Pitch="44" RiffPosition="6.75" Velocity="0" />
      <note Length="0.03125" Pitch="45" RiffPosition="6.78125" Velocity="0" />
      <note Length="0.03125" Pitch="46" RiffPosition="6.8125" Velocity="0" />
      <note Length="0.03125" Pitch="49" RiffPosition="6.84375" Velocity="0" />
      <note Length="0.03125" Pitch="54" RiffPosition="6.875" Velocity="0" />
      <note Length="0.03125" Pitch="49" RiffPosition="6.90625" Velocity="0" />
      <note Length="0.0625" Pitch="45" RiffPosition="6.9375" Velocity="0" />
      <note Length="0.0625" Pitch="41" RiffPosition="7" Velocity="0" />
      <note Length="0.03125" Pitch="34" RiffPosition="7.0625" Velocity="0" />
      <note Length="0.03125" Pitch="37" RiffPosition="7.09375" Velocity="0" />
      <note Length="0.03125" Pitch="42" RiffPosition="7.125" Velocity="0" />
      <note Length="0.03125" Pitch="45" RiffPosition="7.15625" Velocity="0" />
      <note Length="0.03125" Pitch="45" RiffPosition="7.1875" Velocity="0" />
      <note Length="0.03125" Pitch="52" RiffPosition="7.21875" Velocity="0" />
      <note Length="0.03125" Pitch="53" RiffPosition="7.25" Velocity="0" />
      <note Length="0.03125" Pitch="49" RiffPosition="7.28125" Velocity="0" />
      <note Length="0.015625" Pitch="45" RiffPosition="7.3125" Velocity="0" />
      <note Length="0.046875" Pitch="44" RiffPosition="7.328125" Velocity="0" />
      <note Length="0.046875" Pitch="44" RiffPosition="7.375" Velocity="0" />
      <note Length="0.015625" Pitch="40" RiffPosition="7.421875" Velocity="0" />
      <note Length="0.0625" Pitch="40" RiffPosition="7.4375" Velocity="0" />
      <note Length="0.03125" Pitch="44" RiffPosition="7.5" Velocity="0" />
      <note Length="0.03125" Pitch="45" RiffPosition="7.53125" Velocity="0" />
      <note Length="0.03125" Pitch="44" RiffPosition="7.5625" Velocity="0" />
      <note Length="0.03125" Pitch="44" RiffPosition="7.59375" Velocity="0" />
      <note Length="0.03125" Pitch="44" RiffPosition="7.625" Velocity="0" />
      <note Length="0.03125" Pitch="44" RiffPosition="7.65625" Velocity="0" />
      <note Length="0.0625" Pitch="39" RiffPosition="7.6875" Velocity="0" />
      <note Length="0.0625" Pitch="44" RiffPosition="7.75" Velocity="0" />
      <note Length="0.03125" Pitch="46" RiffPosition="7.8125" Velocity="0" />
      <note Length="0.03125" Pitch="49" RiffPosition="7.84375" Velocity="0" />
      <note Length="0.03125" Pitch="54" RiffPosition="7.875" Velocity="0" />
      <note Length="0.03125" Pitch="49" RiffPosition="7.90625" Velocity="0" />
      <note Length="0.03125" Pitch="45" RiffPosition="7.9375" Velocity="0" />
      <note Length="0.03125" Pitch="41" RiffPosition="7.96875" Velocity="0" />
      <note Length="0.03125" Pitch="41" RiffPosition="8" Velocity="0" />
      <note Length="0.03125" Pitch="37" RiffPosition="8.03125" Velocity="0" />
      <note Length="0.015625" Pitch="34" RiffPosition="8.0625" Velocity="0" />
      <note Length="0.046875" Pitch="35" RiffPosition="8.078125" Velocity="0" />
      <note Length="0.046875" Pitch="42" RiffPosition="8.125" Velocity="0" />
      <note Length="0.015625" Pitch="45" RiffPosition="8.171875" Velocity="0" />
      <note Length="0.0625" Pitch="45" RiffPosition="8.1875" Velocity="0" />
      <note Length="0.03125" Pitch="53" RiffPosition="8.25" Velocity="0" />
      <note Length="0.03125" Pitch="49" RiffPosition="8.28125" Velocity="0" />
      <note Length="0.03125" Pitch="45" RiffPosition="8.3125" Velocity="0" />
      <note Length="0.03125" Pitch="44" RiffPosition="8.34375" Velocity="0" />
      <note Length="0.03125" Pitch="44" RiffPosition="8.375" Velocity="0" />
      <note Length="0.03125" Pitch="40" RiffPosition="8.40625" Velocity="0" />
      <note Length="0.0625" Pitch="40" RiffPosition="8.4375" Velocity="0" />
      <note Length="0.0625" Pitch="44" RiffPosition="8.5" Velocity="0" />
      <note Length="0.03125" Pitch="44" RiffPosition="8.5625" Velocity="0" />
      <note Length="0.03125" Pitch="44" RiffPosition="8.59375" Velocity="0" />
      <note Length="0.03125" Pitch="44" RiffPosition="8.625" Velocity="0" />
      <note Length="0.03125" Pitch="44" RiffPosition="8.65625" Velocity="0" />
      <note Length="0.03125" Pitch="39" RiffPosition="8.6875" Velocity="0" />
      <note Length="0.03125" Pitch="42" RiffPosition="8.71875" Velocity="0" />
      <note Length="0.03125" Pitch="44" RiffPosition="8.75" Velocity="0" />
      <note Length="0.03125" Pitch="45" RiffPosition="8.78125" Velocity="0" />
      <note Length="0.015625" Pitch="46" RiffPosition="8.8125" Velocity="0" />
      <note Length="0.046875" Pitch="47" RiffPosition="8.828125" Velocity="0" />
      <note Length="0.046875" Pitch="54" RiffPosition="8.875" Velocity="0" />
      <note Length="0.015625" Pitch="46" RiffPosition="8.921875" Velocity="0" />
      <note Length="0.0625" Pitch="45" RiffPosition="8.9375" Velocity="0" />
      <note Length="0.03125" Pitch="41" RiffPosition="9" Velocity="107" />
      <note Length="0.03125" Pitch="37" RiffPosition="9.03125" Velocity="120" />
      <note Length="0.03125" Pitch="34" RiffPosition="9.0625" Velocity="57" />
      <note Length="0.03125" Pitch="37" RiffPosition="9.09375" Velocity="72" />
      <note Length="0.03125" Pitch="42" RiffPosition="9.125" Velocity="85" />
      <note Length="0.03125" Pitch="45" RiffPosition="9.15625" Velocity="83" />
      <note Length="0.0625" Pitch="45" RiffPosition="9.1875" Velocity="42" />
      <note Length="0.0625" Pitch="53" RiffPosition="9.25" Velocity="83" />
      <note Length="0.03125" Pitch="45" RiffPosition="9.3125" Velocity="55" />
      <note Length="0.03125" Pitch="44" RiffPosition="9.34375" Velocity="116" />
      <note Length="0.03125" Pitch="44" RiffPosition="9.375" Velocity="117" />
      <note Length="0.03125" Pitch="40" RiffPosition="9.40625" Velocity="0" />
      <note Length="0.03125" Pitch="40" RiffPosition="9.4375" Velocity="0" />
      <note Length="0.03125" Pitch="41" RiffPosition="9.46875" Velocity="114" />
      <note Length="0.03125" Pitch="44" RiffPosition="9.5" Velocity="114" />
      <note Length="0.03125" Pitch="45" RiffPosition="9.53125" Velocity="111" />
      <note Length="0.015625" Pitch="44" RiffPosition="9.5625" Velocity="64" />
      <note Length="0.046875" Pitch="44" RiffPosition="9.578125" Velocity="68" />
      <note Length="0.046875" Pitch="44" RiffPosition="9.625" Velocity="78" />
      <note Length="0.015625" Pitch="41" RiffPosition="9.671875" Velocity="92" />
      <note Length="0.0625" Pitch="39" RiffPosition="9.6875" Velocity="0" />
      <note Length="0.03125" Pitch="44" RiffPosition="9.75" Velocity="73" />
      <note Length="0.03125" Pitch="45" RiffPosition="9.78125" Velocity="79" />
      <note Length="0.03125" Pitch="46" RiffPosition="9.8125" Velocity="65" />
      <note Length="0.03125" Pitch="49" RiffPosition="9.84375" Velocity="60" />
      <note Length="0.03125" Pitch="54" RiffPosition="9.875" Velocity="110" />
      <note Length="0.03125" Pitch="49" RiffPosition="9.90625" Velocity="59" />
      <note Length="0.0625" Pitch="45" RiffPosition="9.9375" Velocity="46" />
      <note Length="0.0625" Pitch="41" RiffPosition="10" Velocity="121" />
      <note Length="0.03125" Pitch="34" RiffPosition="10.0625" Velocity="55" />
      <note Length="0.03125" Pitch="37" RiffPosition="10.09375" Velocity="75" />
      <note Length="0.03125" Pitch="42" RiffPosition="10.125" Velocity="87" />
      <note Length="0.03125" Pitch="45" RiffPosition="10.15625" Velocity="86" />
      <note Length="0.03125" Pitch="45" RiffPosition="10.1875" Velocity="45" />
      <note Length="0.03125" Pitch="52" RiffPosition="10.21875" Velocity="42" />
      <note Length="0.03125" Pitch="53" RiffPosition="10.25" Velocity="80" />
      <note Length="0.03125" Pitch="49" RiffPosition="10.28125" Velocity="38" />
      <note Length="0.015625" Pitch="45" RiffPosition="10.3125" Velocity="58" />
      <note Length="0.046875" Pitch="44" RiffPosition="10.328125" Velocity="68" />
      <note Length="0.046875" Pitch="44" RiffPosition="10.375" Velocity="103" />
      <note Length="0.015625" Pitch="40" RiffPosition="10.421875" Velocity="0" />
      <note Length="0.0625" Pitch="40" RiffPosition="10.4375" Velocity="0" />
      <note Length="0.03125" Pitch="44" RiffPosition="10.5" Velocity="111" />
      <note Length="0.03125" Pitch="45" RiffPosition="10.53125" Velocity="125" />
      <note Length="0.03125" Pitch="44" RiffPosition="10.5625" Velocity="62" />
      <note Length="0.03125" Pitch="44" RiffPosition="10.59375" Velocity="84" />
      <note Length="0.03125" Pitch="44" RiffPosition="10.625" Velocity="80" />
      <note Length="0.03125" Pitch="44" RiffPosition="10.65625" Velocity="95" />
      <note Length="0.0625" Pitch="39" RiffPosition="10.6875" Velocity="0" />
      <note Length="0.0625" Pitch="44" RiffPosition="10.75" Velocity="71" />
      <note Length="0.03125" Pitch="46" RiffPosition="10.8125" Velocity="67" />
      <note Length="0.03125" Pitch="49" RiffPosition="10.84375" Velocity="61" />
      <note Length="0.03125" Pitch="54" RiffPosition="10.875" Velocity="112" />
      <note Length="0.03125" Pitch="49" RiffPosition="10.90625" Velocity="52" />
      <note Length="0.03125" Pitch="45" RiffPosition="10.9375" Velocity="44" />
      <note Length="0.03125" Pitch="41" RiffPosition="10.96875" Velocity="102" />
      <note Length="0.03125" Pitch="41" RiffPosition="11" Velocity="118" />
      <note Length="0.03125" Pitch="37" RiffPosition="11.03125" Velocity="115" />
      <note Length="0.015625" Pitch="34" RiffPosition="11.0625" Velocity="69" />
      <note Length="0.046875" Pitch="35" RiffPosition="11.078125" Velocity="0" />
      <note Length="0.046875" Pitch="42" RiffPosition="11.125" Velocity="90" />
      <note Length="0.015625" Pitch="45" RiffPosition="11.171875" Velocity="88" />
      <note Length="0.0625" Pitch="45" RiffPosition="11.1875" Velocity="47" />
      <note Length="0.03125" Pitch="53" RiffPosition="11.25" Velocity="78" />
      <note Length="0.03125" Pitch="49" RiffPosition="11.28125" Velocity="37" />
      <note Length="0.03125" Pitch="45" RiffPosition="11.3125" Velocity="60" />
      <note Length="0.03125" Pitch="44" RiffPosition="11.34375" Velocity="121" />
      <note Length="0.03125" Pitch="44" RiffPosition="11.375" Velocity="105" />
      <note Length="0.03125" Pitch="40" RiffPosition="11.40625" Velocity="0" />
      <note Length="0.0625" Pitch="40" RiffPosition="11.4375" Velocity="0" />
      <note Length="0.0625" Pitch="44" RiffPosition="11.5" Velocity="109" />
      <note Length="0.03125" Pitch="44" RiffPosition="11.5625" Velocity="59" />
      <note Length="0.03125" Pitch="44" RiffPosition="11.59375" Velocity="70" />
      <note Length="0.03125" Pitch="44" RiffPosition="11.625" Velocity="83" />
      <note Length="0.03125" Pitch="44" RiffPosition="11.65625" Velocity="98" />
      <note Length="0.03125" Pitch="39" RiffPosition="11.6875" Velocity="0" />
      <note Length="0.03125" Pitch="42" RiffPosition="11.71875" Velocity="81" />
      <note Length="0.03125" Pitch="44" RiffPosition="11.75" Velocity="85" />
      <note Length="0.03125" Pitch="45" RiffPosition="11.78125" Velocity="74" />
      <note Length="0.015625" Pitch="46" RiffPosition="11.8125" Velocity="70" />
      <note Length="0.046875" Pitch="47" RiffPosition="11.828125" Velocity="64" />
      <note Length="0.046875" Pitch="54" RiffPosition="11.875" Velocity="115" />
      <note Length="0.015625" Pitch="46" RiffPosition="11.921875" Velocity="104" />
      <note Length="0.0625" Pitch="45" RiffPosition="11.9375" Velocity="41" />
      <note Length="0.03125" Pitch="41" RiffPosition="12" Velocity="116" />
      <note Length="0.03125" Pitch="37" RiffPosition="12.03125" Velocity="113" />
      <note Length="0.03125" Pitch="34" RiffPosition="12.0625" Velocity="66" />
      <note Length="0.03125" Pitch="37" RiffPosition="12.09375" Velocity="80" />
      <note Length="0.03125" Pitch="42" RiffPosition="12.125" Velocity="76" />
      <note Length="0.03125" Pitch="45" RiffPosition="12.15625" Velocity="91" />
      <note Length="0.0625" Pitch="45" RiffPosition="12.1875" Velocity="50" />
      <note Length="0.0625" Pitch="53" RiffPosition="12.25" Velocity="75" />
      <note Length="0.03125" Pitch="45" RiffPosition="12.3125" Velocity="63" />
      <note Length="0.03125" Pitch="44" RiffPosition="12.34375" Velocity="123" />
      <note Length="0.03125" Pitch="44" RiffPosition="12.375" Velocity="108" />
      <note Length="0.03125" Pitch="40" RiffPosition="12.40625" Velocity="0" />
      <note Length="0.03125" Pitch="40" RiffPosition="12.4375" Velocity="0" />
      <note Length="0.03125" Pitch="41" RiffPosition="12.46875" Velocity="106" />
      <note Length="0.03125" Pitch="44" RiffPosition="12.5" Velocity="106" />
      <note Length="0.03125" Pitch="45" RiffPosition="12.53125" Velocity="120" />
      <note Length="0.015625" Pitch="44" RiffPosition="12.5625" Velocity="57" />
      <note Length="0.046875" Pitch="44" RiffPosition="12.578125" Velocity="61" />
      <note Length="0.046875" Pitch="44" RiffPosition="12.625" Velocity="85" />
      <note Length="0.015625" Pitch="41" RiffPosition="12.671875" Velocity="100" />
      <note Length="0.0625" Pitch="39" RiffPosition="12.6875" Velocity="0" />
      <note Length="0.03125" Pitch="44" RiffPosition="12.75" Velocity="82" />
      <note Length="0.03125" Pitch="45" RiffPosition="12.78125" Velocity="72" />
      <note Length="0.03125" Pitch="46" RiffPosition="12.8125" Velocity="56" />
      <note Length="0.03125" Pitch="49" RiffPosition="12.84375" Velocity="64" />
      <note Length="0.03125" Pitch="54" RiffPosition="12.875" Velocity="117" />
      <note Length="0.03125" Pitch="49" RiffPosition="12.90625" Velocity="54" />
      <note Length="0.0625" Pitch="45" RiffPosition="12.9375" Velocity="41" />
      <note Length="0.0625" Pitch="41" RiffPosition="13" Velocity="0" />
      <note Length="0.03125" Pitch="34" RiffPosition="13.0625" Velocity="0" />
      <note Length="0.03125" Pitch="37" RiffPosition="13.09375" Velocity="0" />
      <note Length="0.03125" Pitch="42" RiffPosition="13.125" Velocity="0" />
      <note Length="0.03125" Pitch="45" RiffPosition="13.15625" Velocity="0" />
      <note Length="0.03125" Pitch="45" RiffPosition="13.1875" Velocity="0" />
      <note Length="0.03125" Pitch="52" RiffPosition="13.21875" Velocity="0" />
      <note Length="0.03125" Pitch="53" RiffPosition="13.25" Velocity="0" />
      <note Length="0.03125" Pitch="49" RiffPosition="13.28125" Velocity="0" />
      <note Length="0.015625" Pitch="45" RiffPosition="13.3125" Velocity="0" />
      <note Length="0.046875" Pitch="44" RiffPosition="13.328125" Velocity="0" />
      <note Length="0.046875" Pitch="44" RiffPosition="13.375" Velocity="0" />
      <note Length="0.015625" Pitch="40" RiffPosition="13.421875" Velocity="0" />
      <note Length="0.0625" Pitch="40" RiffPosition="13.4375" Velocity="0" />
      <note Length="0.03125" Pitch="44" RiffPosition="13.5" Velocity="0" />
      <note Length="0.03125" Pitch="45" RiffPosition="13.53125" Velocity="0" />
      <note Length="0.03125" Pitch="44" RiffPosition="13.5625" Velocity="0" />
      <note Length="0.03125" Pitch="44" RiffPosition="13.59375" Velocity="0" />
      <note Length="0.03125" Pitch="44" RiffPosition="13.625" Velocity="0" />
      <note Length="0.03125" Pitch="44" RiffPosition="13.65625" Velocity="0" />
      <note Length="0.0625" Pitch="39" RiffPosition="13.6875" Velocity="0" />
      <note Length="0.0625" Pitch="44" RiffPosition="13.75" Velocity="0" />
      <note Length="0.03125" Pitch="46" RiffPosition="13.8125" Velocity="0" />
      <note Length="0.03125" Pitch="49" RiffPosition="13.84375" Velocity="0" />
      <note Length="0.03125" Pitch="54" RiffPosition="13.875" Velocity="0" />
      <note Length="0.03125" Pitch="49" RiffPosition="13.90625" Velocity="0" />
      <note Length="0.03125" Pitch="45" RiffPosition="13.9375" Velocity="0" />
      <note Length="0.03125" Pitch="41" RiffPosition="13.96875" Velocity="0" />
    </riff>
  </riffPack>
  <lyrics>
    <line>****** ****** ****** ******</line>
    <line>****** ****** ****** ******</line>
    <line>you hide your face in shame</line>
    <line>shifting black turmoils of ghosts</line>
    <line>im begging you im on my knees again</line>
    <line>shifty henry said, for the heaven's sake</line>
    <line>on our own in a danger zone</line>
    <line>for you - i give all my life</line>
    <line>for years you tried to break me</line>
    <line>to damage the bones of his brother.</line>
    <line>****** ****** ****** ******</line>
    <line>****** ****** ****** ******</line>
    <line>****** ****** ****** ******</line>
    <line>****** ****** ****** ******</line>
    <line>****** ****** ****** ******</line>
    <line>shifting shappe, twisting flesh, i've picked their</line>
    <line>to cut open your heart</line>
    <line>they will never be seen.</line>
    <line>they will never rest again</line>
    <line>im feeling you, feeling you</line>
    <line>i guess stoner eyes do see</line>
    <line>they will never be seen.</line>
    <line>im back from suffragette city</line>
    <line>im feeling you, feeling you</line>
    <line>****** ****** ****** ******</line>
    <line>****** ****** ****** ******</line>
    <line>****** ****** ****** ******</line>
    <line>****** ****** ****** ******</line>
  </lyrics>
  <lyricsSongFactoryCollection>
    <lyricSongFactory BarCount="28" BarCountPerChorus="2">
      <barInfo>
        <bar Intensity="0" LetterCount="16" />
        <bar Intensity="0" LetterCount="16" />
        <bar Intensity="0.2" LetterCount="27" />
        <bar Intensity="0.1764706" LetterCount="33" />
        <bar Intensity="0.1647059" LetterCount="35" />
        <bar Intensity="0.1764706" LetterCount="38" />
        <bar Intensity="0.1529412" LetterCount="27" />
        <bar Intensity="0.1882353" LetterCount="27" />
        <bar Intensity="0.2" LetterCount="31" />
        <bar Intensity="0.2352941" LetterCount="34" />
        <bar Intensity="0" LetterCount="16" />
        <bar Intensity="0" LetterCount="16" />
        <bar Intensity="0" LetterCount="16" />
        <bar Intensity="0" LetterCount="16" />
        <bar Intensity="0" LetterCount="16" />
        <bar Intensity="0.2235294" LetterCount="47" />
        <bar Intensity="0.8235294" LetterCount="22" />
        <bar Intensity="1" LetterCount="23" />
        <bar Intensity="0.8235294" LetterCount="26" />
        <bar Intensity="1" LetterCount="26" />
        <bar Intensity="0.8" LetterCount="26" />
        <bar Intensity="1" LetterCount="29" />
        <bar Intensity="0.7764706" LetterCount="29" />
        <bar Intensity="1" LetterCount="27" />
        <bar Intensity="0" LetterCount="16" />
        <bar Intensity="0" LetterCount="16" />
        <bar Intensity="0" LetterCount="16" />
        <bar Intensity="0" LetterCount="16" />
      </barInfo>
      <themeList>
        <theme>nature</theme>
        <theme>fantastic</theme>
        <theme>love</theme>
        <theme>music</theme>
      </themeList>
      <themeBlackList>
        <theme>sex</theme>
        <theme>racism</theme>
        <theme>social</theme>
        <theme>exclamation</theme>
        <theme>swearing</theme>
        <theme>gangsta</theme>
      </themeBlackList>
    </lyricSongFactory>
  </lyricsSongFactoryCollection>
  <predefinedGenerator BarCount="28" IsOverrideScale="True" IsOverrideTempo="True" Modulation="0" ScaleName="minor" Tempo="134" LyricsToMusicPhase="0">
    <predefinedGeneratorTrack MetaRiffPackName="PianoClassic">
      <barInfo isOn="True" />
      <barInfo isOn="True" />
      <barInfo isOn="True" />
      <barInfo isOn="True" />
      <barInfo isOn="True" />
      <barInfo isOn="True" />
      <barInfo isOn="True" />
      <barInfo isOn="True" />
      <barInfo isOn="False" />
      <barInfo isOn="True" />
      <barInfo isOn="True" />
      <barInfo isOn="True" />
      <barInfo isOn="True" />
      <barInfo isOn="False" />
      <barInfo isOn="False" />
      <barInfo isOn="False" />
      <barInfo isOn="False" />
      <barInfo isOn="False" />
      <barInfo isOn="False" />
      <barInfo isOn="False" />
      <barInfo isOn="False" />
      <barInfo isOn="False" />
      <barInfo isOn="False" />
      <barInfo isOn="False" />
      <barInfo isOn="False" />
      <barInfo isOn="False" />
      <barInfo isOn="False" />
      <barInfo isOn="False" />
    </predefinedGeneratorTrack>
    <predefinedGeneratorTrack MetaRiffPackName="Pad">
      <barInfo isOn="False" />
      <barInfo isOn="False" />
      <barInfo isOn="True" />
      <barInfo isOn="True" />
      <barInfo isOn="True" />
      <barInfo isOn="True" />
      <barInfo isOn="True" />
      <barInfo isOn="True" />
      <barInfo isOn="False" />
      <barInfo isOn="False" />
      <barInfo isOn="False" />
      <barInfo isOn="False" />
      <barInfo isOn="False" />
      <barInfo isOn="True" />
      <barInfo isOn="False" />
      <barInfo isOn="False" />
      <barInfo isOn="False" />
      <barInfo isOn="False" />
      <barInfo isOn="False" />
      <barInfo isOn="False" />
      <barInfo isOn="False" />
      <barInfo isOn="False" />
      <barInfo isOn="False" />
      <barInfo isOn="False" />
      <barInfo isOn="False" />
      <barInfo isOn="False" />
      <barInfo isOn="False" />
      <barInfo isOn="False" />
    </predefinedGeneratorTrack>
    <predefinedGeneratorTrack MetaRiffPackName="Pad">
      <barInfo isOn="False" />
      <barInfo isOn="False" />
      <barInfo isOn="False" />
      <barInfo isOn="True" />
      <barInfo isOn="True" />
      <barInfo isOn="False" />
      <barInfo isOn="True" />
      <barInfo isOn="True" />
      <barInfo isOn="False" />
      <barInfo isOn="False" />
      <barInfo isOn="False" />
      <barInfo isOn="False" />
      <barInfo isOn="False" />
      <barInfo isOn="True" />
      <barInfo isOn="False" />
      <barInfo isOn="False" />
      <barInfo isOn="False" />
      <barInfo isOn="False" />
      <barInfo isOn="False" />
      <barInfo isOn="False" />
      <barInfo isOn="False" />
      <barInfo isOn="False" />
      <barInfo isOn="False" />
      <barInfo isOn="False" />
      <barInfo isOn="False" />
      <barInfo isOn="False" />
      <barInfo isOn="False" />
      <barInfo isOn="False" />
    </predefinedGeneratorTrack>
    <predefinedGeneratorTrack MetaRiffPackName="Pad">
      <barInfo isOn="False" />
      <barInfo isOn="False" />
      <barInfo isOn="False" />
      <barInfo isOn="False" />
      <barInfo isOn="True" />
      <barInfo isOn="False" />
      <barInfo isOn="False" />
      <barInfo isOn="True" />
      <barInfo isOn="False" />
      <barInfo isOn="False" />
      <barInfo isOn="False" />
      <barInfo isOn="False" />
      <barInfo isOn="False" />
      <barInfo isOn="True" />
      <barInfo isOn="False" />
      <barInfo isOn="False" />
      <barInfo isOn="False" />
      <barInfo isOn="False" />
      <barInfo isOn="False" />
      <barInfo isOn="False" />
      <barInfo isOn="False" />
      <barInfo isOn="False" />
      <barInfo isOn="False" />
      <barInfo isOn="False" />
      <barInfo isOn="False" />
      <barInfo isOn="False" />
      <barInfo isOn="False" />
      <barInfo isOn="False" />
    </predefinedGeneratorTrack>
    <predefinedGeneratorTrack MetaRiffPackName="DrumSnareQuad">
      <barInfo isOn="False" />
      <barInfo isOn="False" />
      <barInfo isOn="False" />
      <barInfo isOn="False" />
      <barInfo isOn="False" />
      <barInfo isOn="True" />
      <barInfo isOn="True" />
      <barInfo isOn="True" />
      <barInfo isOn="True" />
      <barInfo isOn="True" />
      <barInfo isOn="True" />
      <barInfo isOn="False" />
      <barInfo isOn="False" />
      <barInfo isOn="True" />
      <barInfo isOn="False" />
      <barInfo isOn="False" />
      <barInfo isOn="False" />
      <barInfo isOn="False" />
      <barInfo isOn="False" />
      <barInfo isOn="False" />
      <barInfo isOn="False" />
      <barInfo isOn="False" />
      <barInfo isOn="False" />
      <barInfo isOn="False" />
      <barInfo isOn="False" />
      <barInfo isOn="False" />
      <barInfo isOn="False" />
      <barInfo isOn="False" />
    </predefinedGeneratorTrack>
    <predefinedGeneratorTrack MetaRiffPackName="BassSynth">
      <barInfo isOn="False" />
      <barInfo isOn="False" />
      <barInfo isOn="False" />
      <barInfo isOn="False" />
      <barInfo isOn="False" />
      <barInfo isOn="True" />
      <barInfo isOn="True" />
      <barInfo isOn="True" />
      <barInfo isOn="True" />
      <barInfo isOn="True" />
      <barInfo isOn="True" />
      <barInfo isOn="True" />
      <barInfo isOn="True" />
      <barInfo isOn="True" />
      <barInfo isOn="False" />
      <barInfo isOn="False" />
      <barInfo isOn="False" />
      <barInfo isOn="False" />
      <barInfo isOn="False" />
      <barInfo isOn="False" />
      <barInfo isOn="False" />
      <barInfo isOn="False" />
      <barInfo isOn="False" />
      <barInfo isOn="False" />
      <barInfo isOn="False" />
      <barInfo isOn="False" />
      <barInfo isOn="False" />
      <barInfo isOn="False" />
    </predefinedGeneratorTrack>
    <predefinedGeneratorTrack MetaRiffPackName="MeditativeChina">
      <barInfo isOn="False" />
      <barInfo isOn="False" />
      <barInfo isOn="False" />
      <barInfo isOn="False" />
      <barInfo isOn="False" />
      <barInfo isOn="False" />
      <barInfo isOn="False" />
      <barInfo isOn="False" />
      <barInfo isOn="True" />
      <barInfo isOn="True" />
      <barInfo isOn="True" />
      <barInfo isOn="True" />
      <barInfo isOn="True" />
      <barInfo isOn="False" />
      <barInfo isOn="False" />
      <barInfo isOn="False" />
      <barInfo isOn="False" />
      <barInfo isOn="False" />
      <barInfo isOn="False" />
      <barInfo isOn="False" />
      <barInfo isOn="False" />
      <barInfo isOn="False" />
      <barInfo isOn="False" />
      <barInfo isOn="False" />
      <barInfo isOn="False" />
      <barInfo isOn="False" />
      <barInfo isOn="False" />
      <barInfo isOn="False" />
    </predefinedGeneratorTrack>
    <predefinedGeneratorTrack MetaRiffPackName="GuitarMetalBlack">
      <barInfo isOn="False" />
      <barInfo isOn="False" />
      <barInfo isOn="False" />
      <barInfo isOn="False" />
      <barInfo isOn="False" />
      <barInfo isOn="False" />
      <barInfo isOn="False" />
      <barInfo isOn="False" />
      <barInfo isOn="True" />
      <barInfo isOn="True" />
      <barInfo isOn="True" />
      <barInfo isOn="True" />
      <barInfo isOn="True" />
      <barInfo isOn="False" />
      <barInfo isOn="False" />
      <barInfo isOn="False" />
      <barInfo isOn="False" />
      <barInfo isOn="False" />
      <barInfo isOn="False" />
      <barInfo isOn="False" />
      <barInfo isOn="False" />
      <barInfo isOn="False" />
      <barInfo isOn="False" />
      <barInfo isOn="False" />
      <barInfo isOn="False" />
      <barInfo isOn="False" />
      <barInfo isOn="False" />
      <barInfo isOn="False" />
    </predefinedGeneratorTrack>
    <predefinedGeneratorTrack MetaRiffPackName="DrumSnareOcta">
      <barInfo isOn="False" />
      <barInfo isOn="False" />
      <barInfo isOn="False" />
      <barInfo isOn="False" />
      <barInfo isOn="False" />
      <barInfo isOn="False" />
      <barInfo isOn="False" />
      <barInfo isOn="False" />
      <barInfo isOn="False" />
      <barInfo isOn="False" />
      <barInfo isOn="False" />
      <barInfo isOn="True" />
      <barInfo isOn="True" />
      <barInfo isOn="False" />
      <barInfo isOn="False" />
      <barInfo isOn="False" />
      <barInfo isOn="False" />
      <barInfo isOn="False" />
      <barInfo isOn="False" />
      <barInfo isOn="False" />
      <barInfo isOn="False" />
      <barInfo isOn="False" />
      <barInfo isOn="False" />
      <barInfo isOn="False" />
      <barInfo isOn="False" />
      <barInfo isOn="False" />
      <barInfo isOn="False" />
      <barInfo isOn="False" />
    </predefinedGeneratorTrack>
    <predefinedGeneratorTrack MetaRiffPackName="DrumBassQuad">
      <barInfo isOn="False" />
      <barInfo isOn="False" />
      <barInfo isOn="False" />
      <barInfo isOn="False" />
      <barInfo isOn="False" />
      <barInfo isOn="False" />
      <barInfo isOn="False" />
      <barInfo isOn="False" />
      <barInfo isOn="False" />
      <barInfo isOn="False" />
      <barInfo isOn="False" />
      <barInfo isOn="True" />
      <barInfo isOn="True" />
      <barInfo isOn="False" />
      <barInfo isOn="False" />
      <barInfo isOn="False" />
      <barInfo isOn="False" />
      <barInfo isOn="False" />
      <barInfo isOn="False" />
      <barInfo isOn="False" />
      <barInfo isOn="False" />
      <barInfo isOn="False" />
      <barInfo isOn="False" />
      <barInfo isOn="False" />
      <barInfo isOn="False" />
      <barInfo isOn="False" />
      <barInfo isOn="False" />
      <barInfo isOn="False" />
    </predefinedGeneratorTrack>
    <predefinedGeneratorTrack MetaRiffPackName="DrumQuad">
      <barInfo isOn="False" />
      <barInfo isOn="False" />
      <barInfo isOn="False" />
      <barInfo isOn="False" />
      <barInfo isOn="False" />
      <barInfo isOn="False" />
      <barInfo isOn="False" />
      <barInfo isOn="False" />
      <barInfo isOn="False" />
      <barInfo isOn="True" />
      <barInfo isOn="True" />
      <barInfo isOn="True" />
      <barInfo isOn="True" />
      <barInfo isOn="False" />
      <barInfo isOn="False" />
      <barInfo isOn="False" />
      <barInfo isOn="False" />
      <barInfo isOn="False" />
      <barInfo isOn="False" />
      <barInfo isOn="False" />
      <barInfo isOn="False" />
      <barInfo isOn="False" />
      <barInfo isOn="False" />
      <barInfo isOn="False" />
      <barInfo isOn="False" />
      <barInfo isOn="False" />
      <barInfo isOn="False" />
      <barInfo isOn="False" />
    </predefinedGeneratorTrack>
  </predefinedGenerator>
</song>