<?xml version="1.0" encoding="UTF-8"?>
<song>
  <riffPack Tempo="104">
    <riff IsDrum="False" MidiInstrument="36" Tempo="115" Length="13">
      <note Length="0.0625" Pitch="37" RiffPosition="0" Velocity="57" />
      <note Length="0.046875" Pitch="33" RiffPosition="0.0625" Velocity="74" />
      <note Length="0.015625" Pitch="25" RiffPosition="0.109375" Velocity="39" />
      <note Length="0.0625" Pitch="37" RiffPosition="0.125" Velocity="52" />
      <note Length="0.046875" Pitch="25" RiffPosition="0.1875" Velocity="40" />
      <note Length="0.015625" Pitch="41" RiffPosition="0.234375" Velocity="83" />
      <note Length="0.0625" Pitch="38" RiffPosition="0.25" Velocity="39" />
      <note Length="0.046875" Pitch="25" RiffPosition="0.3125" Velocity="77" />
      <note Length="0.015625" Pitch="25" RiffPosition="0.359375" Velocity="57" />
      <note Length="0.0625" Pitch="25" RiffPosition="0.375" Velocity="67" />
      <note Length="0.046875" Pitch="38" RiffPosition="0.4375" Velocity="92" />
      <note Length="0.015625" Pitch="38" RiffPosition="0.484375" Velocity="62" />
      <note Length="0.0625" Pitch="25" RiffPosition="0.5" Velocity="68" />
      <note Length="0.046875" Pitch="41" RiffPosition="0.5625" Velocity="81" />
      <note Length="0.015625" Pitch="38" RiffPosition="0.609375" Velocity="45" />
      <note Length="0.0625" Pitch="25" RiffPosition="0.625" Velocity="49" />
      <note Length="0.046875" Pitch="25" RiffPosition="0.6875" Velocity="68" />
      <note Length="0.015625" Pitch="37" RiffPosition="0.734375" Velocity="49" />
      <note Length="0.0625" Pitch="25" RiffPosition="0.75" Velocity="44" />
      <note Length="0.046875" Pitch="25" RiffPosition="0.8125" Velocity="85" />
      <note Length="0.015625" Pitch="33" RiffPosition="0.859375" Velocity="59" />
      <note Length="0.0625" Pitch="38" RiffPosition="0.875" Velocity="51" />
      <note Length="0.046875" Pitch="25" RiffPosition="0.9375" Velocity="80" />
      <note Length="0.015625" Pitch="25" RiffPosition="0.984375" Velocity="44" />
      <note Length="0.0625" Pitch="24" RiffPosition="1" Velocity="89" />
      <note Length="0.046875" Pitch="37" RiffPosition="1.0625" Velocity="50" />
      <note Length="0.015625" Pitch="37" RiffPosition="1.109375" Velocity="63" />
      <note Length="0.0625" Pitch="36" RiffPosition="1.125" Velocity="50" />
      <note Length="0.046875" Pitch="37" RiffPosition="1.1875" Velocity="63" />
      <note Length="0.015625" Pitch="37" RiffPosition="1.234375" Velocity="51" />
      <note Length="0.0625" Pitch="37" RiffPosition="1.25" Velocity="63" />
      <note Length="0.046875" Pitch="24" RiffPosition="1.3125" Velocity="45" />
      <note Length="0.015625" Pitch="37" RiffPosition="1.359375" Velocity="81" />
      <note Length="0.0625" Pitch="36" RiffPosition="1.375" Velocity="90" />
      <note Length="0.046875" Pitch="24" RiffPosition="1.4375" Velocity="60" />
      <note Length="0.015625" Pitch="24" RiffPosition="1.484375" Velocity="86" />
      <note Length="0.0625" Pitch="31" RiffPosition="1.5" Velocity="92" />
      <note Length="0.046875" Pitch="36" RiffPosition="1.5625" Velocity="50" />
      <note Length="0.015625" Pitch="24" RiffPosition="1.609375" Velocity="69" />
      <note Length="0.0625" Pitch="24" RiffPosition="1.625" Velocity="73" />
      <note Length="0.046875" Pitch="37" RiffPosition="1.6875" Velocity="44" />
      <note Length="0.015625" Pitch="36" RiffPosition="1.734375" Velocity="80" />
      <note Length="0.0625" Pitch="37" RiffPosition="1.75" Velocity="76" />
      <note Length="0.046875" Pitch="24" RiffPosition="1.8125" Velocity="61" />
      <note Length="0.015625" Pitch="37" RiffPosition="1.859375" Velocity="91" />
      <note Length="0.0625" Pitch="37" RiffPosition="1.875" Velocity="83" />
      <note Length="0.046875" Pitch="24" RiffPosition="1.9375" Velocity="57" />
      <note Length="0.015625" Pitch="40" RiffPosition="1.984375" Velocity="76" />
      <note Length="0.0625" Pitch="37" RiffPosition="2" Velocity="65" />
      <note Length="0.046875" Pitch="24" RiffPosition="2.0625" Velocity="82" />
      <note Length="0.015625" Pitch="24" RiffPosition="2.109375" Velocity="39" />
      <note Length="0.0625" Pitch="32" RiffPosition="2.125" Velocity="44" />
      <note Length="0.046875" Pitch="37" RiffPosition="2.1875" Velocity="39" />
      <note Length="0.015625" Pitch="24" RiffPosition="2.234375" Velocity="74" />
      <note Length="0.0625" Pitch="24" RiffPosition="2.25" Velocity="86" />
      <note Length="0.046875" Pitch="37" RiffPosition="2.3125" Velocity="68" />
      <note Length="0.015625" Pitch="37" RiffPosition="2.359375" Velocity="104" />
      <note Length="0.0625" Pitch="24" RiffPosition="2.375" Velocity="58" />
      <note Length="0.046875" Pitch="24" RiffPosition="2.4375" Velocity="83" />
      <note Length="0.015625" Pitch="37" RiffPosition="2.484375" Velocity="54" />
      <note Length="0.0625" Pitch="37" RiffPosition="2.5" Velocity="60" />
      <note Length="0.046875" Pitch="24" RiffPosition="2.5625" Velocity="73" />
      <note Length="0.015625" Pitch="24" RiffPosition="2.609375" Velocity="37" />
      <note Length="0.0625" Pitch="40" RiffPosition="2.625" Velocity="41" />
      <note Length="0.046875" Pitch="24" RiffPosition="2.6875" Velocity="76" />
      <note Length="0.015625" Pitch="24" RiffPosition="2.734375" Velocity="57" />
      <note Length="0.0625" Pitch="24" RiffPosition="2.75" Velocity="52" />
      <note Length="0.046875" Pitch="24" RiffPosition="2.8125" Velocity="93" />
      <note Length="0.015625" Pitch="24" RiffPosition="2.859375" Velocity="67" />
      <note Length="0.0625" Pitch="24" RiffPosition="2.875" Velocity="60" />
      <note Length="0.046875" Pitch="37" RiffPosition="2.9375" Velocity="89" />
      <note Length="0.015625" Pitch="37" RiffPosition="2.984375" Velocity="53" />
      <note Length="0.0625" Pitch="35" RiffPosition="3" Velocity="0" />
      <note Length="0.046875" Pitch="35" RiffPosition="3.0625" Velocity="0" />
      <note Length="0.015625" Pitch="39" RiffPosition="3.109375" Velocity="0" />
      <note Length="0.0625" Pitch="36" RiffPosition="3.125" Velocity="0" />
      <note Length="0.046875" Pitch="36" RiffPosition="3.1875" Velocity="0" />
      <note Length="0.015625" Pitch="23" RiffPosition="3.234375" Velocity="0" />
      <note Length="0.0625" Pitch="23" RiffPosition="3.25" Velocity="0" />
      <note Length="0.046875" Pitch="36" RiffPosition="3.3125" Velocity="0" />
      <note Length="0.015625" Pitch="23" RiffPosition="3.359375" Velocity="0" />
      <note Length="0.0625" Pitch="31" RiffPosition="3.375" Velocity="0" />
      <note Length="0.046875" Pitch="36" RiffPosition="3.4375" Velocity="0" />
      <note Length="0.015625" Pitch="23" RiffPosition="3.484375" Velocity="0" />
      <note Length="0.0625" Pitch="23" RiffPosition="3.5" Velocity="0" />
      <note Length="0.046875" Pitch="31" RiffPosition="3.5625" Velocity="0" />
      <note Length="0.015625" Pitch="35" RiffPosition="3.609375" Velocity="0" />
      <note Length="0.0625" Pitch="36" RiffPosition="3.625" Velocity="0" />
      <note Length="0.046875" Pitch="23" RiffPosition="3.6875" Velocity="0" />
      <note Length="0.015625" Pitch="36" RiffPosition="3.734375" Velocity="0" />
      <note Length="0.0625" Pitch="39" RiffPosition="3.75" Velocity="0" />
      <note Length="0.046875" Pitch="23" RiffPosition="3.8125" Velocity="0" />
      <note Length="0.015625" Pitch="35" RiffPosition="3.859375" Velocity="0" />
      <note Length="0.0625" Pitch="23" RiffPosition="3.875" Velocity="0" />
      <note Length="0.046875" Pitch="36" RiffPosition="3.9375" Velocity="0" />
      <note Length="0.015625" Pitch="23" RiffPosition="3.984375" Velocity="0" />
      <note Length="0.0625" Pitch="34" RiffPosition="4" Velocity="74" />
      <note Length="0.046875" Pitch="47" RiffPosition="4.0625" Velocity="35" />
      <note Length="0.015625" Pitch="34" RiffPosition="4.109375" Velocity="47" />
      <note Length="0.0625" Pitch="34" RiffPosition="4.125" Velocity="35" />
      <note Length="0.046875" Pitch="34" RiffPosition="4.1875" Velocity="47" />
      <note Length="0.015625" Pitch="47" RiffPosition="4.234375" Velocity="66" />
      <note Length="0.0625" Pitch="34" RiffPosition="4.25" Velocity="78" />
      <note Length="0.046875" Pitch="34" RiffPosition="4.3125" Velocity="60" />
      <note Length="0.015625" Pitch="34" RiffPosition="4.359375" Velocity="96" />
      <note Length="0.0625" Pitch="51" RiffPosition="4.375" Velocity="105" />
      <note Length="0.046875" Pitch="47" RiffPosition="4.4375" Velocity="75" />
      <note Length="0.015625" Pitch="34" RiffPosition="4.484375" Velocity="101" />
      <note Length="0.0625" Pitch="34" RiffPosition="4.5" Velocity="52" />
      <note Length="0.046875" Pitch="47" RiffPosition="4.5625" Velocity="65" />
      <note Length="0.015625" Pitch="34" RiffPosition="4.609375" Velocity="42" />
      <note Length="0.0625" Pitch="34" RiffPosition="4.625" Velocity="38" />
      <note Length="0.046875" Pitch="47" RiffPosition="4.6875" Velocity="41" />
      <note Length="0.015625" Pitch="47" RiffPosition="4.734375" Velocity="65" />
      <note Length="0.0625" Pitch="34" RiffPosition="4.75" Velocity="61" />
      <note Length="0.046875" Pitch="34" RiffPosition="4.8125" Velocity="102" />
      <note Length="0.015625" Pitch="47" RiffPosition="4.859375" Velocity="76" />
      <note Length="0.0625" Pitch="46" RiffPosition="4.875" Velocity="68" />
      <note Length="0.046875" Pitch="34" RiffPosition="4.9375" Velocity="97" />
      <note Length="0.015625" Pitch="34" RiffPosition="4.984375" Velocity="61" />
      <note Length="0.0625" Pitch="34" RiffPosition="5" Velocity="50" />
      <note Length="0.046875" Pitch="47" RiffPosition="5.0625" Velocity="67" />
      <note Length="0.015625" Pitch="34" RiffPosition="5.109375" Velocity="46" />
      <note Length="0.0625" Pitch="34" RiffPosition="5.125" Velocity="59" />
      <note Length="0.046875" Pitch="47" RiffPosition="5.1875" Velocity="46" />
      <note Length="0.015625" Pitch="46" RiffPosition="5.234375" Velocity="36" />
      <note Length="0.0625" Pitch="47" RiffPosition="5.25" Velocity="46" />
      <note Length="0.046875" Pitch="34" RiffPosition="5.3125" Velocity="84" />
      <note Length="0.015625" Pitch="46" RiffPosition="5.359375" Velocity="64" />
      <note Length="0.0625" Pitch="47" RiffPosition="5.375" Velocity="73" />
      <note Length="0.046875" Pitch="34" RiffPosition="5.4375" Velocity="99" />
      <note Length="0.015625" Pitch="46" RiffPosition="5.484375" Velocity="69" />
      <note Length="0.0625" Pitch="47" RiffPosition="5.5" Velocity="75" />
      <note Length="0.046875" Pitch="34" RiffPosition="5.5625" Velocity="37" />
      <note Length="0.015625" Pitch="34" RiffPosition="5.609375" Velocity="52" />
      <note Length="0.0625" Pitch="34" RiffPosition="5.625" Velocity="56" />
      <note Length="0.046875" Pitch="47" RiffPosition="5.6875" Velocity="61" />
      <note Length="0.015625" Pitch="47" RiffPosition="5.734375" Velocity="42" />
      <note Length="0.0625" Pitch="34" RiffPosition="5.75" Velocity="37" />
      <note Length="0.046875" Pitch="50" RiffPosition="5.8125" Velocity="78" />
      <note Length="0.015625" Pitch="47" RiffPosition="5.859375" Velocity="52" />
      <note Length="0.0625" Pitch="46" RiffPosition="5.875" Velocity="100" />
      <note Length="0.046875" Pitch="34" RiffPosition="5.9375" Velocity="73" />
      <note Length="0.015625" Pitch="47" RiffPosition="5.984375" Velocity="93" />
      <note Length="0.0625" Pitch="26" RiffPosition="6" Velocity="0" />
      <note Length="0.046875" Pitch="26" RiffPosition="6.0625" Velocity="0" />
      <note Length="0.015625" Pitch="34" RiffPosition="6.109375" Velocity="0" />
      <note Length="0.0625" Pitch="39" RiffPosition="6.125" Velocity="0" />
      <note Length="0.046875" Pitch="26" RiffPosition="6.1875" Velocity="0" />
      <note Length="0.015625" Pitch="26" RiffPosition="6.234375" Velocity="0" />
      <note Length="0.0625" Pitch="26" RiffPosition="6.25" Velocity="0" />
      <note Length="0.046875" Pitch="39" RiffPosition="6.3125" Velocity="0" />
      <note Length="0.015625" Pitch="26" RiffPosition="6.359375" Velocity="0" />
      <note Length="0.0625" Pitch="38" RiffPosition="6.375" Velocity="0" />
      <note Length="0.046875" Pitch="39" RiffPosition="6.4375" Velocity="0" />
      <note Length="0.015625" Pitch="39" RiffPosition="6.484375" Velocity="0" />
      <note Length="0.0625" Pitch="39" RiffPosition="6.5" Velocity="0" />
      <note Length="0.046875" Pitch="38" RiffPosition="6.5625" Velocity="0" />
      <note Length="0.015625" Pitch="39" RiffPosition="6.609375" Velocity="0" />
      <note Length="0.0625" Pitch="39" RiffPosition="6.625" Velocity="0" />
      <note Length="0.046875" Pitch="26" RiffPosition="6.6875" Velocity="0" />
      <note Length="0.015625" Pitch="26" RiffPosition="6.734375" Velocity="0" />
      <note Length="0.0625" Pitch="33" RiffPosition="6.75" Velocity="0" />
      <note Length="0.046875" Pitch="38" RiffPosition="6.8125" Velocity="0" />
      <note Length="0.015625" Pitch="26" RiffPosition="6.859375" Velocity="0" />
      <note Length="0.0625" Pitch="26" RiffPosition="6.875" Velocity="0" />
      <note Length="0.046875" Pitch="39" RiffPosition="6.9375" Velocity="0" />
      <note Length="0.015625" Pitch="38" RiffPosition="6.984375" Velocity="0" />
      <note Length="0.0625" Pitch="38" RiffPosition="7" Velocity="0" />
      <note Length="0.046875" Pitch="25" RiffPosition="7.0625" Velocity="0" />
      <note Length="0.015625" Pitch="38" RiffPosition="7.109375" Velocity="0" />
      <note Length="0.0625" Pitch="38" RiffPosition="7.125" Velocity="0" />
      <note Length="0.046875" Pitch="25" RiffPosition="7.1875" Velocity="0" />
      <note Length="0.015625" Pitch="38" RiffPosition="7.234375" Velocity="0" />
      <note Length="0.0625" Pitch="38" RiffPosition="7.25" Velocity="0" />
      <note Length="0.046875" Pitch="25" RiffPosition="7.3125" Velocity="0" />
      <note Length="0.015625" Pitch="25" RiffPosition="7.359375" Velocity="0" />
      <note Length="0.0625" Pitch="25" RiffPosition="7.375" Velocity="0" />
      <note Length="0.046875" Pitch="38" RiffPosition="7.4375" Velocity="0" />
      <note Length="0.015625" Pitch="25" RiffPosition="7.484375" Velocity="0" />
      <note Length="0.0625" Pitch="25" RiffPosition="7.5" Velocity="0" />
      <note Length="0.046875" Pitch="38" RiffPosition="7.5625" Velocity="0" />
      <note Length="0.015625" Pitch="38" RiffPosition="7.609375" Velocity="0" />
      <note Length="0.0625" Pitch="25" RiffPosition="7.625" Velocity="0" />
      <note Length="0.046875" Pitch="25" RiffPosition="7.6875" Velocity="0" />
      <note Length="0.015625" Pitch="38" RiffPosition="7.734375" Velocity="0" />
      <note Length="0.0625" Pitch="38" RiffPosition="7.75" Velocity="0" />
      <note Length="0.046875" Pitch="37" RiffPosition="7.8125" Velocity="0" />
      <note Length="0.015625" Pitch="25" RiffPosition="7.859375" Velocity="0" />
      <note Length="0.0625" Pitch="42" RiffPosition="7.875" Velocity="0" />
      <note Length="0.046875" Pitch="37" RiffPosition="7.9375" Velocity="0" />
      <note Length="0.015625" Pitch="25" RiffPosition="7.984375" Velocity="0" />
      <note Length="0.0625" Pitch="24" RiffPosition="8" Velocity="0" />
      <note Length="0.046875" Pitch="36" RiffPosition="8.0625" Velocity="0" />
      <note Length="0.015625" Pitch="24" RiffPosition="8.109375" Velocity="0" />
      <note Length="0.0625" Pitch="24" RiffPosition="8.125" Velocity="0" />
      <note Length="0.046875" Pitch="37" RiffPosition="8.1875" Velocity="0" />
      <note Length="0.015625" Pitch="37" RiffPosition="8.234375" Velocity="0" />
      <note Length="0.0625" Pitch="36" RiffPosition="8.25" Velocity="0" />
      <note Length="0.046875" Pitch="24" RiffPosition="8.3125" Velocity="0" />
      <note Length="0.015625" Pitch="40" RiffPosition="8.359375" Velocity="0" />
      <note Length="0.0625" Pitch="37" RiffPosition="8.375" Velocity="0" />
      <note Length="0.046875" Pitch="37" RiffPosition="8.4375" Velocity="0" />
      <note Length="0.015625" Pitch="24" RiffPosition="8.484375" Velocity="0" />
      <note Length="0.0625" Pitch="24" RiffPosition="8.5" Velocity="0" />
      <note Length="0.046875" Pitch="37" RiffPosition="8.5625" Velocity="0" />
      <note Length="0.015625" Pitch="24" RiffPosition="8.609375" Velocity="0" />
      <note Length="0.0625" Pitch="24" RiffPosition="8.625" Velocity="0" />
      <note Length="0.046875" Pitch="37" RiffPosition="8.6875" Velocity="0" />
      <note Length="0.015625" Pitch="24" RiffPosition="8.734375" Velocity="0" />
      <note Length="0.0625" Pitch="36" RiffPosition="8.75" Velocity="0" />
      <note Length="0.046875" Pitch="32" RiffPosition="8.8125" Velocity="0" />
      <note Length="0.015625" Pitch="24" RiffPosition="8.859375" Velocity="0" />
      <note Length="0.0625" Pitch="37" RiffPosition="8.875" Velocity="0" />
      <note Length="0.046875" Pitch="24" RiffPosition="8.9375" Velocity="0" />
      <note Length="0.015625" Pitch="37" RiffPosition="8.984375" Velocity="0" />
      <note Length="0.0625" Pitch="37" RiffPosition="9" Velocity="67" />
      <note Length="0.046875" Pitch="24" RiffPosition="9.0625" Velocity="84" />
      <note Length="0.015625" Pitch="36" RiffPosition="9.109375" Velocity="41" />
      <note Length="0.0625" Pitch="24" RiffPosition="9.125" Velocity="42" />
      <note Length="0.046875" Pitch="37" RiffPosition="9.1875" Velocity="40" />
      <note Length="0.015625" Pitch="37" RiffPosition="9.234375" Velocity="73" />
      <note Length="0.0625" Pitch="24" RiffPosition="9.25" Velocity="85" />
      <note Length="0.046875" Pitch="37" RiffPosition="9.3125" Velocity="67" />
      <note Length="0.015625" Pitch="36" RiffPosition="9.359375" Velocity="103" />
      <note Length="0.0625" Pitch="24" RiffPosition="9.375" Velocity="57" />
      <note Length="0.046875" Pitch="24" RiffPosition="9.4375" Velocity="82" />
      <note Length="0.015625" Pitch="37" RiffPosition="9.484375" Velocity="53" />
      <note Length="0.0625" Pitch="24" RiffPosition="9.5" Velocity="58" />
      <note Length="0.046875" Pitch="24" RiffPosition="9.5625" Velocity="72" />
      <note Length="0.015625" Pitch="24" RiffPosition="9.609375" Velocity="35" />
      <note Length="0.0625" Pitch="40" RiffPosition="9.625" Velocity="39" />
      <note Length="0.046875" Pitch="36" RiffPosition="9.6875" Velocity="48" />
      <note Length="0.015625" Pitch="24" RiffPosition="9.734375" Velocity="58" />
      <note Length="0.0625" Pitch="24" RiffPosition="9.75" Velocity="54" />
      <note Length="0.046875" Pitch="37" RiffPosition="9.8125" Velocity="95" />
      <note Length="0.015625" Pitch="24" RiffPosition="9.859375" Velocity="69" />
      <note Length="0.0625" Pitch="36" RiffPosition="9.875" Velocity="61" />
      <note Length="0.046875" Pitch="32" RiffPosition="9.9375" Velocity="90" />
      <note Length="0.015625" Pitch="37" RiffPosition="9.984375" Velocity="54" />
      <note Length="0.0625" Pitch="35" RiffPosition="10" Velocity="43" />
      <note Length="0.046875" Pitch="23" RiffPosition="10.0625" Velocity="60" />
      <note Length="0.015625" Pitch="36" RiffPosition="10.109375" Velocity="53" />
      <note Length="0.0625" Pitch="35" RiffPosition="10.125" Velocity="60" />
      <note Length="0.046875" Pitch="23" RiffPosition="10.1875" Velocity="53" />
      <note Length="0.015625" Pitch="23" RiffPosition="10.234375" Velocity="41" />
      <note Length="0.0625" Pitch="31" RiffPosition="10.25" Velocity="53" />
      <note Length="0.046875" Pitch="36" RiffPosition="10.3125" Velocity="91" />
      <note Length="0.015625" Pitch="23" RiffPosition="10.359375" Velocity="71" />
      <note Length="0.0625" Pitch="23" RiffPosition="10.375" Velocity="80" />
      <note Length="0.046875" Pitch="36" RiffPosition="10.4375" Velocity="50" />
      <note Length="0.015625" Pitch="36" RiffPosition="10.484375" Velocity="76" />
      <note Length="0.0625" Pitch="36" RiffPosition="10.5" Velocity="82" />
      <note Length="0.046875" Pitch="23" RiffPosition="10.5625" Velocity="40" />
      <note Length="0.015625" Pitch="36" RiffPosition="10.609375" Velocity="59" />
      <note Length="0.0625" Pitch="36" RiffPosition="10.625" Velocity="63" />
      <note Length="0.046875" Pitch="23" RiffPosition="10.6875" Velocity="54" />
      <note Length="0.015625" Pitch="36" RiffPosition="10.734375" Velocity="35" />
      <note Length="0.0625" Pitch="36" RiffPosition="10.75" Velocity="86" />
      <note Length="0.046875" Pitch="23" RiffPosition="10.8125" Velocity="71" />
      <note Length="0.015625" Pitch="23" RiffPosition="10.859375" Velocity="101" />
      <note Length="0.0625" Pitch="23" RiffPosition="10.875" Velocity="93" />
      <note Length="0.046875" Pitch="36" RiffPosition="10.9375" Velocity="66" />
      <note Length="0.015625" Pitch="35" RiffPosition="10.984375" Velocity="86" />
      <note Length="0.0625" Pitch="34" RiffPosition="11" Velocity="75" />
      <note Length="0.046875" Pitch="50" RiffPosition="11.0625" Velocity="36" />
      <note Length="0.015625" Pitch="47" RiffPosition="11.109375" Velocity="49" />
      <note Length="0.0625" Pitch="46" RiffPosition="11.125" Velocity="36" />
      <note Length="0.046875" Pitch="34" RiffPosition="11.1875" Velocity="49" />
      <note Length="0.015625" Pitch="47" RiffPosition="11.234375" Velocity="65" />
      <note Length="0.0625" Pitch="47" RiffPosition="11.25" Velocity="76" />
      <note Length="0.046875" Pitch="34" RiffPosition="11.3125" Velocity="59" />
      <note Length="0.015625" Pitch="34" RiffPosition="11.359375" Velocity="95" />
      <note Length="0.0625" Pitch="47" RiffPosition="11.375" Velocity="104" />
      <note Length="0.046875" Pitch="34" RiffPosition="11.4375" Velocity="74" />
      <note Length="0.015625" Pitch="34" RiffPosition="11.484375" Velocity="100" />
      <note Length="0.0625" Pitch="34" RiffPosition="11.5" Velocity="50" />
      <note Length="0.046875" Pitch="46" RiffPosition="11.5625" Velocity="63" />
      <note Length="0.015625" Pitch="34" RiffPosition="11.609375" Velocity="43" />
      <note Length="0.0625" Pitch="34" RiffPosition="11.625" Velocity="39" />
      <note Length="0.046875" Pitch="34" RiffPosition="11.6875" Velocity="40" />
      <note Length="0.015625" Pitch="47" RiffPosition="11.734375" Velocity="67" />
      <note Length="0.0625" Pitch="47" RiffPosition="11.75" Velocity="62" />
      <note Length="0.046875" Pitch="46" RiffPosition="11.8125" Velocity="103" />
      <note Length="0.015625" Pitch="50" RiffPosition="11.859375" Velocity="77" />
      <note Length="0.0625" Pitch="47" RiffPosition="11.875" Velocity="70" />
      <note Length="0.046875" Pitch="47" RiffPosition="11.9375" Velocity="98" />
      <note Length="0.015625" Pitch="34" RiffPosition="11.984375" Velocity="62" />
      <note Length="0.0625" Pitch="42" RiffPosition="12" Velocity="0" />
      <note Length="0.046875" Pitch="46" RiffPosition="12.0625" Velocity="0" />
      <note Length="0.015625" Pitch="34" RiffPosition="12.109375" Velocity="0" />
      <note Length="0.0625" Pitch="42" RiffPosition="12.125" Velocity="0" />
      <note Length="0.046875" Pitch="47" RiffPosition="12.1875" Velocity="0" />
      <note Length="0.015625" Pitch="34" RiffPosition="12.234375" Velocity="0" />
      <note Length="0.0625" Pitch="46" RiffPosition="12.25" Velocity="0" />
      <note Length="0.046875" Pitch="34" RiffPosition="12.3125" Velocity="0" />
      <note Length="0.015625" Pitch="47" RiffPosition="12.359375" Velocity="0" />
      <note Length="0.0625" Pitch="47" RiffPosition="12.375" Velocity="0" />
      <note Length="0.046875" Pitch="34" RiffPosition="12.4375" Velocity="0" />
      <note Length="0.015625" Pitch="47" RiffPosition="12.484375" Velocity="0" />
      <note Length="0.0625" Pitch="50" RiffPosition="12.5" Velocity="0" />
      <note Length="0.046875" Pitch="34" RiffPosition="12.5625" Velocity="0" />
      <note Length="0.015625" Pitch="34" RiffPosition="12.609375" Velocity="0" />
      <note Length="0.0625" Pitch="34" RiffPosition="12.625" Velocity="0" />
      <note Length="0.046875" Pitch="47" RiffPosition="12.6875" Velocity="0" />
      <note Length="0.015625" Pitch="34" RiffPosition="12.734375" Velocity="0" />
      <note Length="0.0625" Pitch="34" RiffPosition="12.75" Velocity="0" />
      <note Length="0.046875" Pitch="47" RiffPosition="12.8125" Velocity="0" />
      <note Length="0.015625" Pitch="46" RiffPosition="12.859375" Velocity="0" />
      <note Length="0.0625" Pitch="34" RiffPosition="12.875" Velocity="0" />
      <note Length="0.046875" Pitch="34" RiffPosition="12.9375" Velocity="0" />
      <note Length="0.015625" Pitch="47" RiffPosition="12.984375" Velocity="0" />
    </riff>
    <riff IsDrum="False" MidiInstrument="36" Tempo="139" Length="13">
      <note Length="0.015625" Pitch="32" RiffPosition="0" Velocity="81" />
      <note Length="0.046875" Pitch="33" RiffPosition="0.015625" Velocity="67" />
      <note Length="0.0625" Pitch="25" RiffPosition="0.0625" Velocity="42" />
      <note Length="0.015625" Pitch="38" RiffPosition="0.125" Velocity="74" />
      <note Length="0.046875" Pitch="38" RiffPosition="0.140625" Velocity="59" />
      <note Length="0.0625" Pitch="38" RiffPosition="0.1875" Velocity="35" />
      <note Length="0.015625" Pitch="37" RiffPosition="0.25" Velocity="47" />
      <note Length="0.046875" Pitch="25" RiffPosition="0.265625" Velocity="37" />
      <note Length="0.0625" Pitch="25" RiffPosition="0.3125" Velocity="62" />
      <note Length="0.015625" Pitch="25" RiffPosition="0.375" Velocity="47" />
      <note Length="0.046875" Pitch="25" RiffPosition="0.390625" Velocity="37" />
      <note Length="0.0625" Pitch="37" RiffPosition="0.4375" Velocity="81" />
      <note Length="0.015625" Pitch="25" RiffPosition="0.5" Velocity="55" />
      <note Length="0.046875" Pitch="25" RiffPosition="0.515625" Velocity="40" />
      <note Length="0.0625" Pitch="38" RiffPosition="0.5625" Velocity="42" />
      <note Length="0.015625" Pitch="38" RiffPosition="0.625" Velocity="62" />
      <note Length="0.046875" Pitch="38" RiffPosition="0.640625" Velocity="47" />
      <note Length="0.0625" Pitch="25" RiffPosition="0.6875" Velocity="47" />
      <note Length="0.015625" Pitch="32" RiffPosition="0.75" Velocity="62" />
      <note Length="0.046875" Pitch="25" RiffPosition="0.765625" Velocity="47" />
      <note Length="0.0625" Pitch="25" RiffPosition="0.8125" Velocity="74" />
      <note Length="0.015625" Pitch="42" RiffPosition="0.875" Velocity="35" />
      <note Length="0.046875" Pitch="42" RiffPosition="0.890625" Velocity="76" />
      <note Length="0.0625" Pitch="37" RiffPosition="0.9375" Velocity="81" />
      <note Length="0.015625" Pitch="31" RiffPosition="1" Velocity="42" />
      <note Length="0.046875" Pitch="32" RiffPosition="1.015625" Velocity="57" />
      <note Length="0.0625" Pitch="24" RiffPosition="1.0625" Velocity="81" />
      <note Length="0.015625" Pitch="37" RiffPosition="1.125" Velocity="74" />
      <note Length="0.046875" Pitch="37" RiffPosition="1.140625" Velocity="59" />
      <note Length="0.0625" Pitch="37" RiffPosition="1.1875" Velocity="35" />
      <note Length="0.015625" Pitch="36" RiffPosition="1.25" Velocity="101" />
      <note Length="0.046875" Pitch="24" RiffPosition="1.265625" Velocity="86" />
      <note Length="0.0625" Pitch="24" RiffPosition="1.3125" Velocity="61" />
      <note Length="0.015625" Pitch="24" RiffPosition="1.375" Velocity="101" />
      <note Length="0.046875" Pitch="24" RiffPosition="1.390625" Velocity="86" />
      <note Length="0.0625" Pitch="36" RiffPosition="1.4375" Velocity="42" />
      <note Length="0.015625" Pitch="24" RiffPosition="1.5" Velocity="55" />
      <note Length="0.046875" Pitch="24" RiffPosition="1.515625" Velocity="40" />
      <note Length="0.0625" Pitch="37" RiffPosition="1.5625" Velocity="81" />
      <note Length="0.015625" Pitch="37" RiffPosition="1.625" Velocity="61" />
      <note Length="0.046875" Pitch="37" RiffPosition="1.640625" Velocity="76" />
      <note Length="0.0625" Pitch="24" RiffPosition="1.6875" Velocity="101" />
      <note Length="0.015625" Pitch="31" RiffPosition="1.75" Velocity="61" />
      <note Length="0.046875" Pitch="24" RiffPosition="1.765625" Velocity="76" />
      <note Length="0.0625" Pitch="24" RiffPosition="1.8125" Velocity="74" />
      <note Length="0.015625" Pitch="41" RiffPosition="1.875" Velocity="35" />
      <note Length="0.046875" Pitch="41" RiffPosition="1.890625" Velocity="47" />
      <note Length="0.0625" Pitch="36" RiffPosition="1.9375" Velocity="42" />
      <note Length="0.015625" Pitch="31" RiffPosition="2" Velocity="81" />
      <note Length="0.046875" Pitch="32" RiffPosition="2.015625" Velocity="67" />
      <note Length="0.0625" Pitch="24" RiffPosition="2.0625" Velocity="42" />
      <note Length="0.015625" Pitch="37" RiffPosition="2.125" Velocity="74" />
      <note Length="0.046875" Pitch="37" RiffPosition="2.140625" Velocity="59" />
      <note Length="0.0625" Pitch="37" RiffPosition="2.1875" Velocity="35" />
      <note Length="0.015625" Pitch="36" RiffPosition="2.25" Velocity="47" />
      <note Length="0.046875" Pitch="24" RiffPosition="2.265625" Velocity="37" />
      <note Length="0.0625" Pitch="24" RiffPosition="2.3125" Velocity="62" />
      <note Length="0.015625" Pitch="24" RiffPosition="2.375" Velocity="47" />
      <note Length="0.046875" Pitch="24" RiffPosition="2.390625" Velocity="37" />
      <note Length="0.0625" Pitch="36" RiffPosition="2.4375" Velocity="81" />
      <note Length="0.015625" Pitch="24" RiffPosition="2.5" Velocity="55" />
      <note Length="0.046875" Pitch="24" RiffPosition="2.515625" Velocity="40" />
      <note Length="0.0625" Pitch="37" RiffPosition="2.5625" Velocity="42" />
      <note Length="0.015625" Pitch="37" RiffPosition="2.625" Velocity="62" />
      <note Length="0.046875" Pitch="37" RiffPosition="2.640625" Velocity="47" />
      <note Length="0.0625" Pitch="24" RiffPosition="2.6875" Velocity="47" />
      <note Length="0.015625" Pitch="31" RiffPosition="2.75" Velocity="62" />
      <note Length="0.046875" Pitch="24" RiffPosition="2.765625" Velocity="47" />
      <note Length="0.0625" Pitch="24" RiffPosition="2.8125" Velocity="74" />
      <note Length="0.015625" Pitch="41" RiffPosition="2.875" Velocity="35" />
      <note Length="0.046875" Pitch="41" RiffPosition="2.890625" Velocity="76" />
      <note Length="0.0625" Pitch="36" RiffPosition="2.9375" Velocity="81" />
      <note Length="0.015625" Pitch="30" RiffPosition="3" Velocity="0" />
      <note Length="0.046875" Pitch="31" RiffPosition="3.015625" Velocity="0" />
      <note Length="0.0625" Pitch="23" RiffPosition="3.0625" Velocity="0" />
      <note Length="0.015625" Pitch="36" RiffPosition="3.125" Velocity="0" />
      <note Length="0.046875" Pitch="36" RiffPosition="3.140625" Velocity="0" />
      <note Length="0.0625" Pitch="36" RiffPosition="3.1875" Velocity="0" />
      <note Length="0.015625" Pitch="35" RiffPosition="3.25" Velocity="0" />
      <note Length="0.046875" Pitch="23" RiffPosition="3.265625" Velocity="0" />
      <note Length="0.0625" Pitch="23" RiffPosition="3.3125" Velocity="0" />
      <note Length="0.015625" Pitch="23" RiffPosition="3.375" Velocity="0" />
      <note Length="0.046875" Pitch="23" RiffPosition="3.390625" Velocity="0" />
      <note Length="0.0625" Pitch="35" RiffPosition="3.4375" Velocity="0" />
      <note Length="0.015625" Pitch="23" RiffPosition="3.5" Velocity="0" />
      <note Length="0.046875" Pitch="23" RiffPosition="3.515625" Velocity="0" />
      <note Length="0.0625" Pitch="36" RiffPosition="3.5625" Velocity="0" />
      <note Length="0.015625" Pitch="36" RiffPosition="3.625" Velocity="0" />
      <note Length="0.046875" Pitch="36" RiffPosition="3.640625" Velocity="0" />
      <note Length="0.0625" Pitch="23" RiffPosition="3.6875" Velocity="0" />
      <note Length="0.015625" Pitch="30" RiffPosition="3.75" Velocity="0" />
      <note Length="0.046875" Pitch="23" RiffPosition="3.765625" Velocity="0" />
      <note Length="0.0625" Pitch="23" RiffPosition="3.8125" Velocity="0" />
      <note Length="0.015625" Pitch="40" RiffPosition="3.875" Velocity="0" />
      <note Length="0.046875" Pitch="40" RiffPosition="3.890625" Velocity="0" />
      <note Length="0.0625" Pitch="35" RiffPosition="3.9375" Velocity="0" />
      <note Length="0.015625" Pitch="41" RiffPosition="4" Velocity="81" />
      <note Length="0.046875" Pitch="42" RiffPosition="4.015625" Velocity="67" />
      <note Length="0.0625" Pitch="34" RiffPosition="4.0625" Velocity="42" />
      <note Length="0.015625" Pitch="47" RiffPosition="4.125" Velocity="74" />
      <note Length="0.046875" Pitch="47" RiffPosition="4.140625" Velocity="59" />
      <note Length="0.0625" Pitch="47" RiffPosition="4.1875" Velocity="35" />
      <note Length="0.015625" Pitch="46" RiffPosition="4.25" Velocity="47" />
      <note Length="0.046875" Pitch="34" RiffPosition="4.265625" Velocity="37" />
      <note Length="0.0625" Pitch="34" RiffPosition="4.3125" Velocity="62" />
      <note Length="0.015625" Pitch="34" RiffPosition="4.375" Velocity="47" />
      <note Length="0.046875" Pitch="34" RiffPosition="4.390625" Velocity="37" />
      <note Length="0.0625" Pitch="46" RiffPosition="4.4375" Velocity="81" />
      <note Length="0.015625" Pitch="34" RiffPosition="4.5" Velocity="55" />
      <note Length="0.046875" Pitch="34" RiffPosition="4.515625" Velocity="40" />
      <note Length="0.0625" Pitch="47" RiffPosition="4.5625" Velocity="42" />
      <note Length="0.015625" Pitch="47" RiffPosition="4.625" Velocity="62" />
      <note Length="0.046875" Pitch="47" RiffPosition="4.640625" Velocity="47" />
      <note Length="0.0625" Pitch="34" RiffPosition="4.6875" Velocity="47" />
      <note Length="0.015625" Pitch="41" RiffPosition="4.75" Velocity="62" />
      <note Length="0.046875" Pitch="34" RiffPosition="4.765625" Velocity="47" />
      <note Length="0.0625" Pitch="34" RiffPosition="4.8125" Velocity="74" />
      <note Length="0.015625" Pitch="51" RiffPosition="4.875" Velocity="35" />
      <note Length="0.046875" Pitch="51" RiffPosition="4.890625" Velocity="76" />
      <note Length="0.0625" Pitch="46" RiffPosition="4.9375" Velocity="81" />
      <note Length="0.015625" Pitch="41" RiffPosition="5" Velocity="42" />
      <note Length="0.046875" Pitch="42" RiffPosition="5.015625" Velocity="57" />
      <note Length="0.0625" Pitch="34" RiffPosition="5.0625" Velocity="81" />
      <note Length="0.015625" Pitch="47" RiffPosition="5.125" Velocity="74" />
      <note Length="0.046875" Pitch="47" RiffPosition="5.140625" Velocity="59" />
      <note Length="0.0625" Pitch="47" RiffPosition="5.1875" Velocity="35" />
      <note Length="0.015625" Pitch="46" RiffPosition="5.25" Velocity="101" />
      <note Length="0.046875" Pitch="34" RiffPosition="5.265625" Velocity="86" />
      <note Length="0.0625" Pitch="34" RiffPosition="5.3125" Velocity="61" />
      <note Length="0.015625" Pitch="34" RiffPosition="5.375" Velocity="101" />
      <note Length="0.046875" Pitch="34" RiffPosition="5.390625" Velocity="86" />
      <note Length="0.0625" Pitch="46" RiffPosition="5.4375" Velocity="42" />
      <note Length="0.015625" Pitch="34" RiffPosition="5.5" Velocity="55" />
      <note Length="0.046875" Pitch="34" RiffPosition="5.515625" Velocity="40" />
      <note Length="0.0625" Pitch="47" RiffPosition="5.5625" Velocity="81" />
      <note Length="0.015625" Pitch="47" RiffPosition="5.625" Velocity="61" />
      <note Length="0.046875" Pitch="47" RiffPosition="5.640625" Velocity="76" />
      <note Length="0.0625" Pitch="34" RiffPosition="5.6875" Velocity="101" />
      <note Length="0.015625" Pitch="41" RiffPosition="5.75" Velocity="61" />
      <note Length="0.046875" Pitch="34" RiffPosition="5.765625" Velocity="76" />
      <note Length="0.0625" Pitch="34" RiffPosition="5.8125" Velocity="74" />
      <note Length="0.015625" Pitch="51" RiffPosition="5.875" Velocity="35" />
      <note Length="0.046875" Pitch="51" RiffPosition="5.890625" Velocity="47" />
      <note Length="0.0625" Pitch="46" RiffPosition="5.9375" Velocity="42" />
      <note Length="0.015625" Pitch="33" RiffPosition="6" Velocity="0" />
      <note Length="0.046875" Pitch="34" RiffPosition="6.015625" Velocity="0" />
      <note Length="0.0625" Pitch="26" RiffPosition="6.0625" Velocity="0" />
      <note Length="0.015625" Pitch="39" RiffPosition="6.125" Velocity="0" />
      <note Length="0.046875" Pitch="39" RiffPosition="6.140625" Velocity="0" />
      <note Length="0.0625" Pitch="39" RiffPosition="6.1875" Velocity="0" />
      <note Length="0.015625" Pitch="38" RiffPosition="6.25" Velocity="0" />
      <note Length="0.046875" Pitch="26" RiffPosition="6.265625" Velocity="0" />
      <note Length="0.0625" Pitch="26" RiffPosition="6.3125" Velocity="0" />
      <note Length="0.015625" Pitch="26" RiffPosition="6.375" Velocity="0" />
      <note Length="0.046875" Pitch="26" RiffPosition="6.390625" Velocity="0" />
      <note Length="0.0625" Pitch="38" RiffPosition="6.4375" Velocity="0" />
      <note Length="0.015625" Pitch="26" RiffPosition="6.5" Velocity="0" />
      <note Length="0.046875" Pitch="26" RiffPosition="6.515625" Velocity="0" />
      <note Length="0.0625" Pitch="39" RiffPosition="6.5625" Velocity="0" />
      <note Length="0.015625" Pitch="39" RiffPosition="6.625" Velocity="0" />
      <note Length="0.046875" Pitch="39" RiffPosition="6.640625" Velocity="0" />
      <note Length="0.0625" Pitch="26" RiffPosition="6.6875" Velocity="0" />
      <note Length="0.015625" Pitch="33" RiffPosition="6.75" Velocity="0" />
      <note Length="0.046875" Pitch="26" RiffPosition="6.765625" Velocity="0" />
      <note Length="0.0625" Pitch="26" RiffPosition="6.8125" Velocity="0" />
      <note Length="0.015625" Pitch="43" RiffPosition="6.875" Velocity="0" />
      <note Length="0.046875" Pitch="43" RiffPosition="6.890625" Velocity="0" />
      <note Length="0.0625" Pitch="38" RiffPosition="6.9375" Velocity="0" />
      <note Length="0.015625" Pitch="32" RiffPosition="7" Velocity="0" />
      <note Length="0.046875" Pitch="33" RiffPosition="7.015625" Velocity="0" />
      <note Length="0.0625" Pitch="25" RiffPosition="7.0625" Velocity="0" />
      <note Length="0.015625" Pitch="38" RiffPosition="7.125" Velocity="0" />
      <note Length="0.046875" Pitch="38" RiffPosition="7.140625" Velocity="0" />
      <note Length="0.0625" Pitch="38" RiffPosition="7.1875" Velocity="0" />
      <note Length="0.015625" Pitch="37" RiffPosition="7.25" Velocity="0" />
      <note Length="0.046875" Pitch="25" RiffPosition="7.265625" Velocity="0" />
      <note Length="0.0625" Pitch="25" RiffPosition="7.3125" Velocity="0" />
      <note Length="0.015625" Pitch="25" RiffPosition="7.375" Velocity="0" />
      <note Length="0.046875" Pitch="25" RiffPosition="7.390625" Velocity="0" />
      <note Length="0.0625" Pitch="37" RiffPosition="7.4375" Velocity="0" />
      <note Length="0.015625" Pitch="25" RiffPosition="7.5" Velocity="0" />
      <note Length="0.046875" Pitch="25" RiffPosition="7.515625" Velocity="0" />
      <note Length="0.0625" Pitch="38" RiffPosition="7.5625" Velocity="0" />
      <note Length="0.015625" Pitch="38" RiffPosition="7.625" Velocity="0" />
      <note Length="0.046875" Pitch="38" RiffPosition="7.640625" Velocity="0" />
      <note Length="0.0625" Pitch="25" RiffPosition="7.6875" Velocity="0" />
      <note Length="0.015625" Pitch="32" RiffPosition="7.75" Velocity="0" />
      <note Length="0.046875" Pitch="25" RiffPosition="7.765625" Velocity="0" />
      <note Length="0.0625" Pitch="25" RiffPosition="7.8125" Velocity="0" />
      <note Length="0.015625" Pitch="42" RiffPosition="7.875" Velocity="0" />
      <note Length="0.046875" Pitch="42" RiffPosition="7.890625" Velocity="0" />
      <note Length="0.0625" Pitch="37" RiffPosition="7.9375" Velocity="0" />
      <note Length="0.015625" Pitch="31" RiffPosition="8" Velocity="0" />
      <note Length="0.046875" Pitch="32" RiffPosition="8.015625" Velocity="0" />
      <note Length="0.0625" Pitch="24" RiffPosition="8.0625" Velocity="0" />
      <note Length="0.015625" Pitch="37" RiffPosition="8.125" Velocity="0" />
      <note Length="0.046875" Pitch="37" RiffPosition="8.140625" Velocity="0" />
      <note Length="0.0625" Pitch="37" RiffPosition="8.1875" Velocity="0" />
      <note Length="0.015625" Pitch="36" RiffPosition="8.25" Velocity="0" />
      <note Length="0.046875" Pitch="24" RiffPosition="8.265625" Velocity="0" />
      <note Length="0.0625" Pitch="24" RiffPosition="8.3125" Velocity="0" />
      <note Length="0.015625" Pitch="24" RiffPosition="8.375" Velocity="0" />
      <note Length="0.046875" Pitch="24" RiffPosition="8.390625" Velocity="0" />
      <note Length="0.0625" Pitch="36" RiffPosition="8.4375" Velocity="0" />
      <note Length="0.015625" Pitch="24" RiffPosition="8.5" Velocity="0" />
      <note Length="0.046875" Pitch="24" RiffPosition="8.515625" Velocity="0" />
      <note Length="0.0625" Pitch="37" RiffPosition="8.5625" Velocity="0" />
      <note Length="0.015625" Pitch="37" RiffPosition="8.625" Velocity="0" />
      <note Length="0.046875" Pitch="37" RiffPosition="8.640625" Velocity="0" />
      <note Length="0.0625" Pitch="24" RiffPosition="8.6875" Velocity="0" />
      <note Length="0.015625" Pitch="31" RiffPosition="8.75" Velocity="0" />
      <note Length="0.046875" Pitch="24" RiffPosition="8.765625" Velocity="0" />
      <note Length="0.0625" Pitch="24" RiffPosition="8.8125" Velocity="0" />
      <note Length="0.015625" Pitch="41" RiffPosition="8.875" Velocity="0" />
      <note Length="0.046875" Pitch="41" RiffPosition="8.890625" Velocity="0" />
      <note Length="0.0625" Pitch="36" RiffPosition="8.9375" Velocity="0" />
      <note Length="0.015625" Pitch="31" RiffPosition="9" Velocity="42" />
      <note Length="0.046875" Pitch="32" RiffPosition="9.015625" Velocity="57" />
      <note Length="0.0625" Pitch="24" RiffPosition="9.0625" Velocity="81" />
      <note Length="0.015625" Pitch="37" RiffPosition="9.125" Velocity="74" />
      <note Length="0.046875" Pitch="37" RiffPosition="9.140625" Velocity="59" />
      <note Length="0.0625" Pitch="37" RiffPosition="9.1875" Velocity="35" />
      <note Length="0.015625" Pitch="36" RiffPosition="9.25" Velocity="101" />
      <note Length="0.046875" Pitch="24" RiffPosition="9.265625" Velocity="86" />
      <note Length="0.0625" Pitch="24" RiffPosition="9.3125" Velocity="61" />
      <note Length="0.015625" Pitch="24" RiffPosition="9.375" Velocity="101" />
      <note Length="0.046875" Pitch="24" RiffPosition="9.390625" Velocity="86" />
      <note Length="0.0625" Pitch="36" RiffPosition="9.4375" Velocity="42" />
      <note Length="0.015625" Pitch="24" RiffPosition="9.5" Velocity="55" />
      <note Length="0.046875" Pitch="24" RiffPosition="9.515625" Velocity="40" />
      <note Length="0.0625" Pitch="37" RiffPosition="9.5625" Velocity="81" />
      <note Length="0.015625" Pitch="37" RiffPosition="9.625" Velocity="61" />
      <note Length="0.046875" Pitch="37" RiffPosition="9.640625" Velocity="76" />
      <note Length="0.0625" Pitch="24" RiffPosition="9.6875" Velocity="101" />
      <note Length="0.015625" Pitch="31" RiffPosition="9.75" Velocity="61" />
      <note Length="0.046875" Pitch="24" RiffPosition="9.765625" Velocity="76" />
      <note Length="0.0625" Pitch="24" RiffPosition="9.8125" Velocity="74" />
      <note Length="0.015625" Pitch="41" RiffPosition="9.875" Velocity="35" />
      <note Length="0.046875" Pitch="41" RiffPosition="9.890625" Velocity="47" />
      <note Length="0.0625" Pitch="36" RiffPosition="9.9375" Velocity="42" />
      <note Length="0.015625" Pitch="30" RiffPosition="10" Velocity="81" />
      <note Length="0.046875" Pitch="31" RiffPosition="10.015625" Velocity="67" />
      <note Length="0.0625" Pitch="23" RiffPosition="10.0625" Velocity="42" />
      <note Length="0.015625" Pitch="36" RiffPosition="10.125" Velocity="74" />
      <note Length="0.046875" Pitch="36" RiffPosition="10.140625" Velocity="59" />
      <note Length="0.0625" Pitch="36" RiffPosition="10.1875" Velocity="35" />
      <note Length="0.015625" Pitch="35" RiffPosition="10.25" Velocity="47" />
      <note Length="0.046875" Pitch="23" RiffPosition="10.265625" Velocity="37" />
      <note Length="0.0625" Pitch="23" RiffPosition="10.3125" Velocity="62" />
      <note Length="0.015625" Pitch="23" RiffPosition="10.375" Velocity="47" />
      <note Length="0.046875" Pitch="23" RiffPosition="10.390625" Velocity="37" />
      <note Length="0.0625" Pitch="35" RiffPosition="10.4375" Velocity="81" />
      <note Length="0.015625" Pitch="23" RiffPosition="10.5" Velocity="55" />
      <note Length="0.046875" Pitch="23" RiffPosition="10.515625" Velocity="40" />
      <note Length="0.0625" Pitch="36" RiffPosition="10.5625" Velocity="42" />
      <note Length="0.015625" Pitch="36" RiffPosition="10.625" Velocity="62" />
      <note Length="0.046875" Pitch="36" RiffPosition="10.640625" Velocity="47" />
      <note Length="0.0625" Pitch="23" RiffPosition="10.6875" Velocity="47" />
      <note Length="0.015625" Pitch="30" RiffPosition="10.75" Velocity="62" />
      <note Length="0.046875" Pitch="23" RiffPosition="10.765625" Velocity="47" />
      <note Length="0.0625" Pitch="23" RiffPosition="10.8125" Velocity="74" />
      <note Length="0.015625" Pitch="40" RiffPosition="10.875" Velocity="35" />
      <note Length="0.046875" Pitch="40" RiffPosition="10.890625" Velocity="76" />
      <note Length="0.0625" Pitch="35" RiffPosition="10.9375" Velocity="81" />
      <note Length="0.015625" Pitch="41" RiffPosition="11" Velocity="42" />
      <note Length="0.046875" Pitch="42" RiffPosition="11.015625" Velocity="57" />
      <note Length="0.0625" Pitch="34" RiffPosition="11.0625" Velocity="81" />
      <note Length="0.015625" Pitch="47" RiffPosition="11.125" Velocity="74" />
      <note Length="0.046875" Pitch="47" RiffPosition="11.140625" Velocity="59" />
      <note Length="0.0625" Pitch="47" RiffPosition="11.1875" Velocity="35" />
      <note Length="0.015625" Pitch="46" RiffPosition="11.25" Velocity="101" />
      <note Length="0.046875" Pitch="34" RiffPosition="11.265625" Velocity="86" />
      <note Length="0.0625" Pitch="34" RiffPosition="11.3125" Velocity="61" />
      <note Length="0.015625" Pitch="34" RiffPosition="11.375" Velocity="101" />
      <note Length="0.046875" Pitch="34" RiffPosition="11.390625" Velocity="86" />
      <note Length="0.0625" Pitch="46" RiffPosition="11.4375" Velocity="42" />
      <note Length="0.015625" Pitch="34" RiffPosition="11.5" Velocity="55" />
      <note Length="0.046875" Pitch="34" RiffPosition="11.515625" Velocity="40" />
      <note Length="0.0625" Pitch="47" RiffPosition="11.5625" Velocity="81" />
      <note Length="0.015625" Pitch="47" RiffPosition="11.625" Velocity="61" />
      <note Length="0.046875" Pitch="47" RiffPosition="11.640625" Velocity="76" />
      <note Length="0.0625" Pitch="34" RiffPosition="11.6875" Velocity="101" />
      <note Length="0.015625" Pitch="41" RiffPosition="11.75" Velocity="61" />
      <note Length="0.046875" Pitch="34" RiffPosition="11.765625" Velocity="76" />
      <note Length="0.0625" Pitch="34" RiffPosition="11.8125" Velocity="74" />
      <note Length="0.015625" Pitch="51" RiffPosition="11.875" Velocity="35" />
      <note Length="0.046875" Pitch="51" RiffPosition="11.890625" Velocity="47" />
      <note Length="0.0625" Pitch="46" RiffPosition="11.9375" Velocity="42" />
      <note Length="0.015625" Pitch="41" RiffPosition="12" Velocity="0" />
      <note Length="0.046875" Pitch="42" RiffPosition="12.015625" Velocity="0" />
      <note Length="0.0625" Pitch="34" RiffPosition="12.0625" Velocity="0" />
      <note Length="0.015625" Pitch="47" RiffPosition="12.125" Velocity="0" />
      <note Length="0.046875" Pitch="47" RiffPosition="12.140625" Velocity="0" />
      <note Length="0.0625" Pitch="47" RiffPosition="12.1875" Velocity="0" />
      <note Length="0.015625" Pitch="46" RiffPosition="12.25" Velocity="0" />
      <note Length="0.046875" Pitch="34" RiffPosition="12.265625" Velocity="0" />
      <note Length="0.0625" Pitch="34" RiffPosition="12.3125" Velocity="0" />
      <note Length="0.015625" Pitch="34" RiffPosition="12.375" Velocity="0" />
      <note Length="0.046875" Pitch="34" RiffPosition="12.390625" Velocity="0" />
      <note Length="0.0625" Pitch="46" RiffPosition="12.4375" Velocity="0" />
      <note Length="0.015625" Pitch="34" RiffPosition="12.5" Velocity="0" />
      <note Length="0.046875" Pitch="34" RiffPosition="12.515625" Velocity="0" />
      <note Length="0.0625" Pitch="47" RiffPosition="12.5625" Velocity="0" />
      <note Length="0.015625" Pitch="47" RiffPosition="12.625" Velocity="0" />
      <note Length="0.046875" Pitch="47" RiffPosition="12.640625" Velocity="0" />
      <note Length="0.0625" Pitch="34" RiffPosition="12.6875" Velocity="0" />
      <note Length="0.015625" Pitch="41" RiffPosition="12.75" Velocity="0" />
      <note Length="0.046875" Pitch="34" RiffPosition="12.765625" Velocity="0" />
      <note Length="0.0625" Pitch="34" RiffPosition="12.8125" Velocity="0" />
      <note Length="0.015625" Pitch="51" RiffPosition="12.875" Velocity="0" />
      <note Length="0.046875" Pitch="51" RiffPosition="12.890625" Velocity="0" />
      <note Length="0.0625" Pitch="46" RiffPosition="12.9375" Velocity="0" />
    </riff>
    <riff IsDrum="True" MidiInstrument="0" Tempo="107" Length="13">
      <note Length="0.03125" Pitch="38" RiffPosition="0" Velocity="0" />
      <note Length="0.03125" Pitch="38" RiffPosition="0.03125" Velocity="0" />
      <note Length="0.03125" Pitch="38" RiffPosition="0.0625" Velocity="0" />
      <note Length="0.03125" Pitch="38" RiffPosition="0.09375" Velocity="0" />
      <note Length="0.03125" Pitch="38" RiffPosition="0.125" Velocity="0" />
      <note Length="0.03125" Pitch="38" RiffPosition="0.15625" Velocity="0" />
      <note Length="0.03125" Pitch="38" RiffPosition="0.1875" Velocity="0" />
      <note Length="0.03125" Pitch="38" RiffPosition="0.21875" Velocity="0" />
      <note Length="0.03125" Pitch="38" RiffPosition="0.25" Velocity="0" />
      <note Length="0.03125" Pitch="38" RiffPosition="0.28125" Velocity="0" />
      <note Length="0.03125" Pitch="38" RiffPosition="0.3125" Velocity="0" />
      <note Length="0.03125" Pitch="38" RiffPosition="0.34375" Velocity="0" />
      <note Length="0.03125" Pitch="38" RiffPosition="0.375" Velocity="0" />
      <note Length="0.03125" Pitch="38" RiffPosition="0.40625" Velocity="0" />
      <note Length="0.03125" Pitch="38" RiffPosition="0.4375" Velocity="0" />
      <note Length="0.03125" Pitch="38" RiffPosition="0.46875" Velocity="0" />
      <note Length="0.03125" Pitch="38" RiffPosition="0.5" Velocity="0" />
      <note Length="0.03125" Pitch="38" RiffPosition="0.53125" Velocity="0" />
      <note Length="0.03125" Pitch="38" RiffPosition="0.5625" Velocity="0" />
      <note Length="0.03125" Pitch="38" RiffPosition="0.59375" Velocity="0" />
      <note Length="0.03125" Pitch="38" RiffPosition="0.625" Velocity="0" />
      <note Length="0.03125" Pitch="38" RiffPosition="0.65625" Velocity="0" />
      <note Length="0.03125" Pitch="38" RiffPosition="0.6875" Velocity="0" />
      <note Length="0.03125" Pitch="38" RiffPosition="0.71875" Velocity="0" />
      <note Length="0.03125" Pitch="38" RiffPosition="0.75" Velocity="0" />
      <note Length="0.03125" Pitch="38" RiffPosition="0.78125" Velocity="0" />
      <note Length="0.03125" Pitch="38" RiffPosition="0.8125" Velocity="0" />
      <note Length="0.03125" Pitch="38" RiffPosition="0.84375" Velocity="0" />
      <note Length="0.03125" Pitch="38" RiffPosition="0.875" Velocity="0" />
      <note Length="0.03125" Pitch="38" RiffPosition="0.90625" Velocity="0" />
      <note Length="0.03125" Pitch="38" RiffPosition="0.9375" Velocity="0" />
      <note Length="0.03125" Pitch="38" RiffPosition="0.96875" Velocity="0" />
      <note Length="0.03125" Pitch="38" RiffPosition="1" Velocity="0" />
      <note Length="0.03125" Pitch="38" RiffPosition="1.03125" Velocity="105" />
      <note Length="0.03125" Pitch="38" RiffPosition="1.0625" Velocity="0" />
      <note Length="0.03125" Pitch="38" RiffPosition="1.09375" Velocity="105" />
      <note Length="0.03125" Pitch="38" RiffPosition="1.125" Velocity="0" />
      <note Length="0.03125" Pitch="38" RiffPosition="1.15625" Velocity="105" />
      <note Length="0.03125" Pitch="38" RiffPosition="1.1875" Velocity="0" />
      <note Length="0.03125" Pitch="38" RiffPosition="1.21875" Velocity="105" />
      <note Length="0.03125" Pitch="38" RiffPosition="1.25" Velocity="0" />
      <note Length="0.03125" Pitch="38" RiffPosition="1.28125" Velocity="105" />
      <note Length="0.03125" Pitch="38" RiffPosition="1.3125" Velocity="0" />
      <note Length="0.03125" Pitch="38" RiffPosition="1.34375" Velocity="105" />
      <note Length="0.03125" Pitch="38" RiffPosition="1.375" Velocity="0" />
      <note Length="0.03125" Pitch="38" RiffPosition="1.40625" Velocity="105" />
      <note Length="0.03125" Pitch="38" RiffPosition="1.4375" Velocity="0" />
      <note Length="0.03125" Pitch="38" RiffPosition="1.46875" Velocity="105" />
      <note Length="0.03125" Pitch="38" RiffPosition="1.5" Velocity="0" />
      <note Length="0.03125" Pitch="38" RiffPosition="1.53125" Velocity="105" />
      <note Length="0.03125" Pitch="38" RiffPosition="1.5625" Velocity="0" />
      <note Length="0.03125" Pitch="38" RiffPosition="1.59375" Velocity="105" />
      <note Length="0.03125" Pitch="38" RiffPosition="1.625" Velocity="0" />
      <note Length="0.03125" Pitch="38" RiffPosition="1.65625" Velocity="105" />
      <note Length="0.03125" Pitch="38" RiffPosition="1.6875" Velocity="0" />
      <note Length="0.03125" Pitch="38" RiffPosition="1.71875" Velocity="105" />
      <note Length="0.03125" Pitch="38" RiffPosition="1.75" Velocity="0" />
      <note Length="0.03125" Pitch="38" RiffPosition="1.78125" Velocity="105" />
      <note Length="0.03125" Pitch="38" RiffPosition="1.8125" Velocity="0" />
      <note Length="0.03125" Pitch="38" RiffPosition="1.84375" Velocity="105" />
      <note Length="0.03125" Pitch="38" RiffPosition="1.875" Velocity="0" />
      <note Length="0.03125" Pitch="38" RiffPosition="1.90625" Velocity="105" />
      <note Length="0.03125" Pitch="38" RiffPosition="1.9375" Velocity="0" />
      <note Length="0.03125" Pitch="38" RiffPosition="1.96875" Velocity="105" />
      <note Length="0.03125" Pitch="38" RiffPosition="2" Velocity="0" />
      <note Length="0.03125" Pitch="38" RiffPosition="2.03125" Velocity="105" />
      <note Length="0.03125" Pitch="38" RiffPosition="2.0625" Velocity="0" />
      <note Length="0.03125" Pitch="38" RiffPosition="2.09375" Velocity="105" />
      <note Length="0.03125" Pitch="38" RiffPosition="2.125" Velocity="0" />
      <note Length="0.03125" Pitch="38" RiffPosition="2.15625" Velocity="105" />
      <note Length="0.03125" Pitch="38" RiffPosition="2.1875" Velocity="0" />
      <note Length="0.03125" Pitch="38" RiffPosition="2.21875" Velocity="105" />
      <note Length="0.03125" Pitch="38" RiffPosition="2.25" Velocity="0" />
      <note Length="0.03125" Pitch="38" RiffPosition="2.28125" Velocity="105" />
      <note Length="0.03125" Pitch="38" RiffPosition="2.3125" Velocity="0" />
      <note Length="0.03125" Pitch="38" RiffPosition="2.34375" Velocity="105" />
      <note Length="0.03125" Pitch="38" RiffPosition="2.375" Velocity="0" />
      <note Length="0.03125" Pitch="38" RiffPosition="2.40625" Velocity="105" />
      <note Length="0.03125" Pitch="38" RiffPosition="2.4375" Velocity="0" />
      <note Length="0.03125" Pitch="38" RiffPosition="2.46875" Velocity="105" />
      <note Length="0.03125" Pitch="38" RiffPosition="2.5" Velocity="0" />
      <note Length="0.03125" Pitch="38" RiffPosition="2.53125" Velocity="105" />
      <note Length="0.03125" Pitch="38" RiffPosition="2.5625" Velocity="0" />
      <note Length="0.03125" Pitch="38" RiffPosition="2.59375" Velocity="105" />
      <note Length="0.03125" Pitch="38" RiffPosition="2.625" Velocity="0" />
      <note Length="0.03125" Pitch="38" RiffPosition="2.65625" Velocity="105" />
      <note Length="0.03125" Pitch="38" RiffPosition="2.6875" Velocity="0" />
      <note Length="0.03125" Pitch="38" RiffPosition="2.71875" Velocity="105" />
      <note Length="0.03125" Pitch="38" RiffPosition="2.75" Velocity="0" />
      <note Length="0.03125" Pitch="38" RiffPosition="2.78125" Velocity="105" />
      <note Length="0.03125" Pitch="38" RiffPosition="2.8125" Velocity="0" />
      <note Length="0.03125" Pitch="38" RiffPosition="2.84375" Velocity="105" />
      <note Length="0.03125" Pitch="38" RiffPosition="2.875" Velocity="0" />
      <note Length="0.03125" Pitch="38" RiffPosition="2.90625" Velocity="105" />
      <note Length="0.03125" Pitch="38" RiffPosition="2.9375" Velocity="0" />
      <note Length="0.03125" Pitch="38" RiffPosition="2.96875" Velocity="105" />
      <note Length="0.03125" Pitch="38" RiffPosition="3" Velocity="0" />
      <note Length="0.03125" Pitch="38" RiffPosition="3.03125" Velocity="105" />
      <note Length="0.03125" Pitch="38" RiffPosition="3.0625" Velocity="0" />
      <note Length="0.03125" Pitch="38" RiffPosition="3.09375" Velocity="105" />
      <note Length="0.03125" Pitch="38" RiffPosition="3.125" Velocity="0" />
      <note Length="0.03125" Pitch="38" RiffPosition="3.15625" Velocity="105" />
      <note Length="0.03125" Pitch="38" RiffPosition="3.1875" Velocity="0" />
      <note Length="0.03125" Pitch="38" RiffPosition="3.21875" Velocity="105" />
      <note Length="0.03125" Pitch="38" RiffPosition="3.25" Velocity="0" />
      <note Length="0.03125" Pitch="38" RiffPosition="3.28125" Velocity="105" />
      <note Length="0.03125" Pitch="38" RiffPosition="3.3125" Velocity="0" />
      <note Length="0.03125" Pitch="38" RiffPosition="3.34375" Velocity="105" />
      <note Length="0.03125" Pitch="38" RiffPosition="3.375" Velocity="0" />
      <note Length="0.03125" Pitch="38" RiffPosition="3.40625" Velocity="105" />
      <note Length="0.03125" Pitch="38" RiffPosition="3.4375" Velocity="0" />
      <note Length="0.03125" Pitch="38" RiffPosition="3.46875" Velocity="105" />
      <note Length="0.03125" Pitch="38" RiffPosition="3.5" Velocity="0" />
      <note Length="0.03125" Pitch="38" RiffPosition="3.53125" Velocity="105" />
      <note Length="0.03125" Pitch="38" RiffPosition="3.5625" Velocity="0" />
      <note Length="0.03125" Pitch="38" RiffPosition="3.59375" Velocity="105" />
      <note Length="0.03125" Pitch="38" RiffPosition="3.625" Velocity="0" />
      <note Length="0.03125" Pitch="38" RiffPosition="3.65625" Velocity="105" />
      <note Length="0.03125" Pitch="38" RiffPosition="3.6875" Velocity="0" />
      <note Length="0.03125" Pitch="38" RiffPosition="3.71875" Velocity="105" />
      <note Length="0.03125" Pitch="38" RiffPosition="3.75" Velocity="0" />
      <note Length="0.03125" Pitch="38" RiffPosition="3.78125" Velocity="105" />
      <note Length="0.03125" Pitch="38" RiffPosition="3.8125" Velocity="0" />
      <note Length="0.03125" Pitch="38" RiffPosition="3.84375" Velocity="105" />
      <note Length="0.03125" Pitch="38" RiffPosition="3.875" Velocity="0" />
      <note Length="0.03125" Pitch="38" RiffPosition="3.90625" Velocity="105" />
      <note Length="0.03125" Pitch="38" RiffPosition="3.9375" Velocity="0" />
      <note Length="0.03125" Pitch="38" RiffPosition="3.96875" Velocity="105" />
      <note Length="0.03125" Pitch="38" RiffPosition="4" Velocity="0" />
      <note Length="0.03125" Pitch="38" RiffPosition="4.03125" Velocity="105" />
      <note Length="0.03125" Pitch="38" RiffPosition="4.0625" Velocity="0" />
      <note Length="0.03125" Pitch="38" RiffPosition="4.09375" Velocity="105" />
      <note Length="0.03125" Pitch="38" RiffPosition="4.125" Velocity="0" />
      <note Length="0.03125" Pitch="38" RiffPosition="4.15625" Velocity="105" />
      <note Length="0.03125" Pitch="38" RiffPosition="4.1875" Velocity="0" />
      <note Length="0.03125" Pitch="38" RiffPosition="4.21875" Velocity="105" />
      <note Length="0.03125" Pitch="38" RiffPosition="4.25" Velocity="0" />
      <note Length="0.03125" Pitch="38" RiffPosition="4.28125" Velocity="105" />
      <note Length="0.03125" Pitch="38" RiffPosition="4.3125" Velocity="0" />
      <note Length="0.03125" Pitch="38" RiffPosition="4.34375" Velocity="105" />
      <note Length="0.03125" Pitch="38" RiffPosition="4.375" Velocity="0" />
      <note Length="0.03125" Pitch="38" RiffPosition="4.40625" Velocity="105" />
      <note Length="0.03125" Pitch="38" RiffPosition="4.4375" Velocity="0" />
      <note Length="0.03125" Pitch="38" RiffPosition="4.46875" Velocity="105" />
      <note Length="0.03125" Pitch="38" RiffPosition="4.5" Velocity="0" />
      <note Length="0.03125" Pitch="38" RiffPosition="4.53125" Velocity="105" />
      <note Length="0.03125" Pitch="38" RiffPosition="4.5625" Velocity="0" />
      <note Length="0.03125" Pitch="38" RiffPosition="4.59375" Velocity="105" />
      <note Length="0.03125" Pitch="38" RiffPosition="4.625" Velocity="0" />
      <note Length="0.03125" Pitch="38" RiffPosition="4.65625" Velocity="105" />
      <note Length="0.03125" Pitch="38" RiffPosition="4.6875" Velocity="0" />
      <note Length="0.03125" Pitch="38" RiffPosition="4.71875" Velocity="105" />
      <note Length="0.03125" Pitch="38" RiffPosition="4.75" Velocity="0" />
      <note Length="0.03125" Pitch="38" RiffPosition="4.78125" Velocity="105" />
      <note Length="0.03125" Pitch="38" RiffPosition="4.8125" Velocity="0" />
      <note Length="0.03125" Pitch="38" RiffPosition="4.84375" Velocity="105" />
      <note Length="0.03125" Pitch="38" RiffPosition="4.875" Velocity="0" />
      <note Length="0.03125" Pitch="38" RiffPosition="4.90625" Velocity="105" />
      <note Length="0.03125" Pitch="38" RiffPosition="4.9375" Velocity="0" />
      <note Length="0.03125" Pitch="38" RiffPosition="4.96875" Velocity="105" />
      <note Length="0.03125" Pitch="38" RiffPosition="5" Velocity="0" />
      <note Length="0.03125" Pitch="38" RiffPosition="5.03125" Velocity="105" />
      <note Length="0.03125" Pitch="38" RiffPosition="5.0625" Velocity="0" />
      <note Length="0.03125" Pitch="38" RiffPosition="5.09375" Velocity="105" />
      <note Length="0.03125" Pitch="38" RiffPosition="5.125" Velocity="0" />
      <note Length="0.03125" Pitch="38" RiffPosition="5.15625" Velocity="105" />
      <note Length="0.03125" Pitch="38" RiffPosition="5.1875" Velocity="0" />
      <note Length="0.03125" Pitch="38" RiffPosition="5.21875" Velocity="105" />
      <note Length="0.03125" Pitch="38" RiffPosition="5.25" Velocity="0" />
      <note Length="0.03125" Pitch="38" RiffPosition="5.28125" Velocity="105" />
      <note Length="0.03125" Pitch="38" RiffPosition="5.3125" Velocity="0" />
      <note Length="0.03125" Pitch="38" RiffPosition="5.34375" Velocity="105" />
      <note Length="0.03125" Pitch="38" RiffPosition="5.375" Velocity="0" />
      <note Length="0.03125" Pitch="38" RiffPosition="5.40625" Velocity="105" />
      <note Length="0.03125" Pitch="38" RiffPosition="5.4375" Velocity="0" />
      <note Length="0.03125" Pitch="38" RiffPosition="5.46875" Velocity="105" />
      <note Length="0.03125" Pitch="38" RiffPosition="5.5" Velocity="0" />
      <note Length="0.03125" Pitch="38" RiffPosition="5.53125" Velocity="105" />
      <note Length="0.03125" Pitch="38" RiffPosition="5.5625" Velocity="0" />
      <note Length="0.03125" Pitch="38" RiffPosition="5.59375" Velocity="105" />
      <note Length="0.03125" Pitch="38" RiffPosition="5.625" Velocity="0" />
      <note Length="0.03125" Pitch="38" RiffPosition="5.65625" Velocity="105" />
      <note Length="0.03125" Pitch="38" RiffPosition="5.6875" Velocity="0" />
      <note Length="0.03125" Pitch="38" RiffPosition="5.71875" Velocity="105" />
      <note Length="0.03125" Pitch="38" RiffPosition="5.75" Velocity="0" />
      <note Length="0.03125" Pitch="38" RiffPosition="5.78125" Velocity="105" />
      <note Length="0.03125" Pitch="38" RiffPosition="5.8125" Velocity="0" />
      <note Length="0.03125" Pitch="38" RiffPosition="5.84375" Velocity="105" />
      <note Length="0.03125" Pitch="38" RiffPosition="5.875" Velocity="0" />
      <note Length="0.03125" Pitch="38" RiffPosition="5.90625" Velocity="105" />
      <note Length="0.03125" Pitch="38" RiffPosition="5.9375" Velocity="0" />
      <note Length="0.03125" Pitch="38" RiffPosition="5.96875" Velocity="105" />
      <note Length="0.03125" Pitch="38" RiffPosition="6" Velocity="0" />
      <note Length="0.03125" Pitch="38" RiffPosition="6.03125" Velocity="0" />
      <note Length="0.03125" Pitch="38" RiffPosition="6.0625" Velocity="0" />
      <note Length="0.03125" Pitch="38" RiffPosition="6.09375" Velocity="0" />
      <note Length="0.03125" Pitch="38" RiffPosition="6.125" Velocity="0" />
      <note Length="0.03125" Pitch="38" RiffPosition="6.15625" Velocity="0" />
      <note Length="0.03125" Pitch="38" RiffPosition="6.1875" Velocity="0" />
      <note Length="0.03125" Pitch="38" RiffPosition="6.21875" Velocity="0" />
      <note Length="0.03125" Pitch="38" RiffPosition="6.25" Velocity="0" />
      <note Length="0.03125" Pitch="38" RiffPosition="6.28125" Velocity="0" />
      <note Length="0.03125" Pitch="38" RiffPosition="6.3125" Velocity="0" />
      <note Length="0.03125" Pitch="38" RiffPosition="6.34375" Velocity="0" />
      <note Length="0.03125" Pitch="38" RiffPosition="6.375" Velocity="0" />
      <note Length="0.03125" Pitch="38" RiffPosition="6.40625" Velocity="0" />
      <note Length="0.03125" Pitch="38" RiffPosition="6.4375" Velocity="0" />
      <note Length="0.03125" Pitch="38" RiffPosition="6.46875" Velocity="0" />
      <note Length="0.03125" Pitch="38" RiffPosition="6.5" Velocity="0" />
      <note Length="0.03125" Pitch="38" RiffPosition="6.53125" Velocity="0" />
      <note Length="0.03125" Pitch="38" RiffPosition="6.5625" Velocity="0" />
      <note Length="0.03125" Pitch="38" RiffPosition="6.59375" Velocity="0" />
      <note Length="0.03125" Pitch="38" RiffPosition="6.625" Velocity="0" />
      <note Length="0.03125" Pitch="38" RiffPosition="6.65625" Velocity="0" />
      <note Length="0.03125" Pitch="38" RiffPosition="6.6875" Velocity="0" />
      <note Length="0.03125" Pitch="38" RiffPosition="6.71875" Velocity="0" />
      <note Length="0.03125" Pitch="38" RiffPosition="6.75" Velocity="0" />
      <note Length="0.03125" Pitch="38" RiffPosition="6.78125" Velocity="0" />
      <note Length="0.03125" Pitch="38" RiffPosition="6.8125" Velocity="0" />
      <note Length="0.03125" Pitch="38" RiffPosition="6.84375" Velocity="0" />
      <note Length="0.03125" Pitch="38" RiffPosition="6.875" Velocity="0" />
      <note Length="0.03125" Pitch="38" RiffPosition="6.90625" Velocity="0" />
      <note Length="0.03125" Pitch="38" RiffPosition="6.9375" Velocity="0" />
      <note Length="0.03125" Pitch="38" RiffPosition="6.96875" Velocity="0" />
      <note Length="0.03125" Pitch="38" RiffPosition="7" Velocity="0" />
      <note Length="0.03125" Pitch="38" RiffPosition="7.03125" Velocity="0" />
      <note Length="0.03125" Pitch="38" RiffPosition="7.0625" Velocity="0" />
      <note Length="0.03125" Pitch="38" RiffPosition="7.09375" Velocity="0" />
      <note Length="0.03125" Pitch="38" RiffPosition="7.125" Velocity="0" />
      <note Length="0.03125" Pitch="38" RiffPosition="7.15625" Velocity="0" />
      <note Length="0.03125" Pitch="38" RiffPosition="7.1875" Velocity="0" />
      <note Length="0.03125" Pitch="38" RiffPosition="7.21875" Velocity="0" />
      <note Length="0.03125" Pitch="38" RiffPosition="7.25" Velocity="0" />
      <note Length="0.03125" Pitch="38" RiffPosition="7.28125" Velocity="0" />
      <note Length="0.03125" Pitch="38" RiffPosition="7.3125" Velocity="0" />
      <note Length="0.03125" Pitch="38" RiffPosition="7.34375" Velocity="0" />
      <note Length="0.03125" Pitch="38" RiffPosition="7.375" Velocity="0" />
      <note Length="0.03125" Pitch="38" RiffPosition="7.40625" Velocity="0" />
      <note Length="0.03125" Pitch="38" RiffPosition="7.4375" Velocity="0" />
      <note Length="0.03125" Pitch="38" RiffPosition="7.46875" Velocity="0" />
      <note Length="0.03125" Pitch="38" RiffPosition="7.5" Velocity="0" />
      <note Length="0.03125" Pitch="38" RiffPosition="7.53125" Velocity="0" />
      <note Length="0.03125" Pitch="38" RiffPosition="7.5625" Velocity="0" />
      <note Length="0.03125" Pitch="38" RiffPosition="7.59375" Velocity="0" />
      <note Length="0.03125" Pitch="38" RiffPosition="7.625" Velocity="0" />
      <note Length="0.03125" Pitch="38" RiffPosition="7.65625" Velocity="0" />
      <note Length="0.03125" Pitch="38" RiffPosition="7.6875" Velocity="0" />
      <note Length="0.03125" Pitch="38" RiffPosition="7.71875" Velocity="0" />
      <note Length="0.03125" Pitch="38" RiffPosition="7.75" Velocity="0" />
      <note Length="0.03125" Pitch="38" RiffPosition="7.78125" Velocity="0" />
      <note Length="0.03125" Pitch="38" RiffPosition="7.8125" Velocity="0" />
      <note Length="0.03125" Pitch="38" RiffPosition="7.84375" Velocity="0" />
      <note Length="0.03125" Pitch="38" RiffPosition="7.875" Velocity="0" />
      <note Length="0.03125" Pitch="38" RiffPosition="7.90625" Velocity="0" />
      <note Length="0.03125" Pitch="38" RiffPosition="7.9375" Velocity="0" />
      <note Length="0.03125" Pitch="38" RiffPosition="7.96875" Velocity="0" />
      <note Length="0.03125" Pitch="38" RiffPosition="8" Velocity="0" />
      <note Length="0.03125" Pitch="38" RiffPosition="8.03125" Velocity="0" />
      <note Length="0.03125" Pitch="38" RiffPosition="8.0625" Velocity="0" />
      <note Length="0.03125" Pitch="38" RiffPosition="8.09375" Velocity="0" />
      <note Length="0.03125" Pitch="38" RiffPosition="8.125" Velocity="0" />
      <note Length="0.03125" Pitch="38" RiffPosition="8.15625" Velocity="0" />
      <note Length="0.03125" Pitch="38" RiffPosition="8.1875" Velocity="0" />
      <note Length="0.03125" Pitch="38" RiffPosition="8.21875" Velocity="0" />
      <note Length="0.03125" Pitch="38" RiffPosition="8.25" Velocity="0" />
      <note Length="0.03125" Pitch="38" RiffPosition="8.28125" Velocity="0" />
      <note Length="0.03125" Pitch="38" RiffPosition="8.3125" Velocity="0" />
      <note Length="0.03125" Pitch="38" RiffPosition="8.34375" Velocity="0" />
      <note Length="0.03125" Pitch="38" RiffPosition="8.375" Velocity="0" />
      <note Length="0.03125" Pitch="38" RiffPosition="8.40625" Velocity="0" />
      <note Length="0.03125" Pitch="38" RiffPosition="8.4375" Velocity="0" />
      <note Length="0.03125" Pitch="38" RiffPosition="8.46875" Velocity="0" />
      <note Length="0.03125" Pitch="38" RiffPosition="8.5" Velocity="0" />
      <note Length="0.03125" Pitch="38" RiffPosition="8.53125" Velocity="0" />
      <note Length="0.03125" Pitch="38" RiffPosition="8.5625" Velocity="0" />
      <note Length="0.03125" Pitch="38" RiffPosition="8.59375" Velocity="0" />
      <note Length="0.03125" Pitch="38" RiffPosition="8.625" Velocity="0" />
      <note Length="0.03125" Pitch="38" RiffPosition="8.65625" Velocity="0" />
      <note Length="0.03125" Pitch="38" RiffPosition="8.6875" Velocity="0" />
      <note Length="0.03125" Pitch="38" RiffPosition="8.71875" Velocity="0" />
      <note Length="0.03125" Pitch="38" RiffPosition="8.75" Velocity="0" />
      <note Length="0.03125" Pitch="38" RiffPosition="8.78125" Velocity="0" />
      <note Length="0.03125" Pitch="38" RiffPosition="8.8125" Velocity="0" />
      <note Length="0.03125" Pitch="38" RiffPosition="8.84375" Velocity="0" />
      <note Length="0.03125" Pitch="38" RiffPosition="8.875" Velocity="0" />
      <note Length="0.03125" Pitch="38" RiffPosition="8.90625" Velocity="0" />
      <note Length="0.03125" Pitch="38" RiffPosition="8.9375" Velocity="0" />
      <note Length="0.03125" Pitch="38" RiffPosition="8.96875" Velocity="0" />
      <note Length="0.03125" Pitch="38" RiffPosition="9" Velocity="0" />
      <note Length="0.03125" Pitch="38" RiffPosition="9.03125" Velocity="105" />
      <note Length="0.03125" Pitch="38" RiffPosition="9.0625" Velocity="0" />
      <note Length="0.03125" Pitch="38" RiffPosition="9.09375" Velocity="105" />
      <note Length="0.03125" Pitch="38" RiffPosition="9.125" Velocity="0" />
      <note Length="0.03125" Pitch="38" RiffPosition="9.15625" Velocity="105" />
      <note Length="0.03125" Pitch="38" RiffPosition="9.1875" Velocity="0" />
      <note Length="0.03125" Pitch="38" RiffPosition="9.21875" Velocity="105" />
      <note Length="0.03125" Pitch="38" RiffPosition="9.25" Velocity="0" />
      <note Length="0.03125" Pitch="38" RiffPosition="9.28125" Velocity="105" />
      <note Length="0.03125" Pitch="38" RiffPosition="9.3125" Velocity="0" />
      <note Length="0.03125" Pitch="38" RiffPosition="9.34375" Velocity="105" />
      <note Length="0.03125" Pitch="38" RiffPosition="9.375" Velocity="0" />
      <note Length="0.03125" Pitch="38" RiffPosition="9.40625" Velocity="105" />
      <note Length="0.03125" Pitch="38" RiffPosition="9.4375" Velocity="0" />
      <note Length="0.03125" Pitch="38" RiffPosition="9.46875" Velocity="105" />
      <note Length="0.03125" Pitch="38" RiffPosition="9.5" Velocity="0" />
      <note Length="0.03125" Pitch="38" RiffPosition="9.53125" Velocity="105" />
      <note Length="0.03125" Pitch="38" RiffPosition="9.5625" Velocity="0" />
      <note Length="0.03125" Pitch="38" RiffPosition="9.59375" Velocity="105" />
      <note Length="0.03125" Pitch="38" RiffPosition="9.625" Velocity="0" />
      <note Length="0.03125" Pitch="38" RiffPosition="9.65625" Velocity="105" />
      <note Length="0.03125" Pitch="38" RiffPosition="9.6875" Velocity="0" />
      <note Length="0.03125" Pitch="38" RiffPosition="9.71875" Velocity="105" />
      <note Length="0.03125" Pitch="38" RiffPosition="9.75" Velocity="0" />
      <note Length="0.03125" Pitch="38" RiffPosition="9.78125" Velocity="105" />
      <note Length="0.03125" Pitch="38" RiffPosition="9.8125" Velocity="0" />
      <note Length="0.03125" Pitch="38" RiffPosition="9.84375" Velocity="105" />
      <note Length="0.03125" Pitch="38" RiffPosition="9.875" Velocity="0" />
      <note Length="0.03125" Pitch="38" RiffPosition="9.90625" Velocity="105" />
      <note Length="0.03125" Pitch="38" RiffPosition="9.9375" Velocity="0" />
      <note Length="0.03125" Pitch="38" RiffPosition="9.96875" Velocity="105" />
      <note Length="0.03125" Pitch="38" RiffPosition="10" Velocity="0" />
      <note Length="0.03125" Pitch="38" RiffPosition="10.03125" Velocity="105" />
      <note Length="0.03125" Pitch="38" RiffPosition="10.0625" Velocity="0" />
      <note Length="0.03125" Pitch="38" RiffPosition="10.09375" Velocity="105" />
      <note Length="0.03125" Pitch="38" RiffPosition="10.125" Velocity="0" />
      <note Length="0.03125" Pitch="38" RiffPosition="10.15625" Velocity="105" />
      <note Length="0.03125" Pitch="38" RiffPosition="10.1875" Velocity="0" />
      <note Length="0.03125" Pitch="38" RiffPosition="10.21875" Velocity="105" />
      <note Length="0.03125" Pitch="38" RiffPosition="10.25" Velocity="0" />
      <note Length="0.03125" Pitch="38" RiffPosition="10.28125" Velocity="105" />
      <note Length="0.03125" Pitch="38" RiffPosition="10.3125" Velocity="0" />
      <note Length="0.03125" Pitch="38" RiffPosition="10.34375" Velocity="105" />
      <note Length="0.03125" Pitch="38" RiffPosition="10.375" Velocity="0" />
      <note Length="0.03125" Pitch="38" RiffPosition="10.40625" Velocity="105" />
      <note Length="0.03125" Pitch="38" RiffPosition="10.4375" Velocity="0" />
      <note Length="0.03125" Pitch="38" RiffPosition="10.46875" Velocity="105" />
      <note Length="0.03125" Pitch="38" RiffPosition="10.5" Velocity="0" />
      <note Length="0.03125" Pitch="38" RiffPosition="10.53125" Velocity="105" />
      <note Length="0.03125" Pitch="38" RiffPosition="10.5625" Velocity="0" />
      <note Length="0.03125" Pitch="38" RiffPosition="10.59375" Velocity="105" />
      <note Length="0.03125" Pitch="38" RiffPosition="10.625" Velocity="0" />
      <note Length="0.03125" Pitch="38" RiffPosition="10.65625" Velocity="105" />
      <note Length="0.03125" Pitch="38" RiffPosition="10.6875" Velocity="0" />
      <note Length="0.03125" Pitch="38" RiffPosition="10.71875" Velocity="105" />
      <note Length="0.03125" Pitch="38" RiffPosition="10.75" Velocity="0" />
      <note Length="0.03125" Pitch="38" RiffPosition="10.78125" Velocity="105" />
      <note Length="0.03125" Pitch="38" RiffPosition="10.8125" Velocity="0" />
      <note Length="0.03125" Pitch="38" RiffPosition="10.84375" Velocity="105" />
      <note Length="0.03125" Pitch="38" RiffPosition="10.875" Velocity="0" />
      <note Length="0.03125" Pitch="38" RiffPosition="10.90625" Velocity="105" />
      <note Length="0.03125" Pitch="38" RiffPosition="10.9375" Velocity="0" />
      <note Length="0.03125" Pitch="38" RiffPosition="10.96875" Velocity="105" />
      <note Length="0.03125" Pitch="38" RiffPosition="11" Velocity="0" />
      <note Length="0.03125" Pitch="38" RiffPosition="11.03125" Velocity="0" />
      <note Length="0.03125" Pitch="38" RiffPosition="11.0625" Velocity="0" />
      <note Length="0.03125" Pitch="38" RiffPosition="11.09375" Velocity="0" />
      <note Length="0.03125" Pitch="38" RiffPosition="11.125" Velocity="0" />
      <note Length="0.03125" Pitch="38" RiffPosition="11.15625" Velocity="0" />
      <note Length="0.03125" Pitch="38" RiffPosition="11.1875" Velocity="0" />
      <note Length="0.03125" Pitch="38" RiffPosition="11.21875" Velocity="0" />
      <note Length="0.03125" Pitch="38" RiffPosition="11.25" Velocity="0" />
      <note Length="0.03125" Pitch="38" RiffPosition="11.28125" Velocity="0" />
      <note Length="0.03125" Pitch="38" RiffPosition="11.3125" Velocity="0" />
      <note Length="0.03125" Pitch="38" RiffPosition="11.34375" Velocity="0" />
      <note Length="0.03125" Pitch="38" RiffPosition="11.375" Velocity="0" />
      <note Length="0.03125" Pitch="38" RiffPosition="11.40625" Velocity="0" />
      <note Length="0.03125" Pitch="38" RiffPosition="11.4375" Velocity="0" />
      <note Length="0.03125" Pitch="38" RiffPosition="11.46875" Velocity="0" />
      <note Length="0.03125" Pitch="38" RiffPosition="11.5" Velocity="0" />
      <note Length="0.03125" Pitch="38" RiffPosition="11.53125" Velocity="0" />
      <note Length="0.03125" Pitch="38" RiffPosition="11.5625" Velocity="0" />
      <note Length="0.03125" Pitch="38" RiffPosition="11.59375" Velocity="0" />
      <note Length="0.03125" Pitch="38" RiffPosition="11.625" Velocity="0" />
      <note Length="0.03125" Pitch="38" RiffPosition="11.65625" Velocity="0" />
      <note Length="0.03125" Pitch="38" RiffPosition="11.6875" Velocity="0" />
      <note Length="0.03125" Pitch="38" RiffPosition="11.71875" Velocity="0" />
      <note Length="0.03125" Pitch="38" RiffPosition="11.75" Velocity="0" />
      <note Length="0.03125" Pitch="38" RiffPosition="11.78125" Velocity="0" />
      <note Length="0.03125" Pitch="38" RiffPosition="11.8125" Velocity="0" />
      <note Length="0.03125" Pitch="38" RiffPosition="11.84375" Velocity="0" />
      <note Length="0.03125" Pitch="38" RiffPosition="11.875" Velocity="0" />
      <note Length="0.03125" Pitch="38" RiffPosition="11.90625" Velocity="0" />
      <note Length="0.03125" Pitch="38" RiffPosition="11.9375" Velocity="0" />
      <note Length="0.03125" Pitch="38" RiffPosition="11.96875" Velocity="0" />
      <note Length="0.03125" Pitch="38" RiffPosition="12" Velocity="0" />
      <note Length="0.03125" Pitch="38" RiffPosition="12.03125" Velocity="0" />
      <note Length="0.03125" Pitch="38" RiffPosition="12.0625" Velocity="0" />
      <note Length="0.03125" Pitch="38" RiffPosition="12.09375" Velocity="0" />
      <note Length="0.03125" Pitch="38" RiffPosition="12.125" Velocity="0" />
      <note Length="0.03125" Pitch="38" RiffPosition="12.15625" Velocity="0" />
      <note Length="0.03125" Pitch="38" RiffPosition="12.1875" Velocity="0" />
      <note Length="0.03125" Pitch="38" RiffPosition="12.21875" Velocity="0" />
      <note Length="0.03125" Pitch="38" RiffPosition="12.25" Velocity="0" />
      <note Length="0.03125" Pitch="38" RiffPosition="12.28125" Velocity="0" />
      <note Length="0.03125" Pitch="38" RiffPosition="12.3125" Velocity="0" />
      <note Length="0.03125" Pitch="38" RiffPosition="12.34375" Velocity="0" />
      <note Length="0.03125" Pitch="38" RiffPosition="12.375" Velocity="0" />
      <note Length="0.03125" Pitch="38" RiffPosition="12.40625" Velocity="0" />
      <note Length="0.03125" Pitch="38" RiffPosition="12.4375" Velocity="0" />
      <note Length="0.03125" Pitch="38" RiffPosition="12.46875" Velocity="0" />
      <note Length="0.03125" Pitch="38" RiffPosition="12.5" Velocity="0" />
      <note Length="0.03125" Pitch="38" RiffPosition="12.53125" Velocity="0" />
      <note Length="0.03125" Pitch="38" RiffPosition="12.5625" Velocity="0" />
      <note Length="0.03125" Pitch="38" RiffPosition="12.59375" Velocity="0" />
      <note Length="0.03125" Pitch="38" RiffPosition="12.625" Velocity="0" />
      <note Length="0.03125" Pitch="38" RiffPosition="12.65625" Velocity="0" />
      <note Length="0.03125" Pitch="38" RiffPosition="12.6875" Velocity="0" />
      <note Length="0.03125" Pitch="38" RiffPosition="12.71875" Velocity="0" />
      <note Length="0.03125" Pitch="38" RiffPosition="12.75" Velocity="0" />
      <note Length="0.03125" Pitch="38" RiffPosition="12.78125" Velocity="0" />
      <note Length="0.03125" Pitch="38" RiffPosition="12.8125" Velocity="0" />
      <note Length="0.03125" Pitch="38" RiffPosition="12.84375" Velocity="0" />
      <note Length="0.03125" Pitch="38" RiffPosition="12.875" Velocity="0" />
      <note Length="0.03125" Pitch="38" RiffPosition="12.90625" Velocity="0" />
      <note Length="0.03125" Pitch="38" RiffPosition="12.9375" Velocity="0" />
      <note Length="0.03125" Pitch="38" RiffPosition="12.96875" Velocity="0" />
    </riff>
    <riff IsDrum="False" MidiInstrument="56" Tempo="86" Length="13">
      <note Length="0.03125" Pitch="56" RiffPosition="0" Velocity="0" />
      <note Length="0.03125" Pitch="49" RiffPosition="0.03125" Velocity="0" />
      <note Length="0.03125" Pitch="49" RiffPosition="0.0625" Velocity="0" />
      <note Length="0.03125" Pitch="49" RiffPosition="0.09375" Velocity="0" />
      <note Length="0.0625" Pitch="62" RiffPosition="0.125" Velocity="0" />
      <note Length="0.046875" Pitch="62" RiffPosition="0.1875" Velocity="0" />
      <note Length="0.015625" Pitch="49" RiffPosition="0.234375" Velocity="0" />
      <note Length="0.03125" Pitch="61" RiffPosition="0.25" Velocity="0" />
      <note Length="0.03125" Pitch="62" RiffPosition="0.28125" Velocity="0" />
      <note Length="0.03125" Pitch="62" RiffPosition="0.3125" Velocity="0" />
      <note Length="0.03125" Pitch="49" RiffPosition="0.34375" Velocity="0" />
      <note Length="0.0625" Pitch="61" RiffPosition="0.375" Velocity="0" />
      <note Length="0.046875" Pitch="49" RiffPosition="0.4375" Velocity="0" />
      <note Length="0.015625" Pitch="56" RiffPosition="0.484375" Velocity="0" />
      <note Length="0.03125" Pitch="61" RiffPosition="0.5" Velocity="0" />
      <note Length="0.03125" Pitch="66" RiffPosition="0.53125" Velocity="0" />
      <note Length="0.03125" Pitch="66" RiffPosition="0.5625" Velocity="0" />
      <note Length="0.03125" Pitch="66" RiffPosition="0.59375" Velocity="0" />
      <note Length="0.0625" Pitch="62" RiffPosition="0.625" Velocity="0" />
      <note Length="0.046875" Pitch="56" RiffPosition="0.6875" Velocity="0" />
      <note Length="0.015625" Pitch="53" RiffPosition="0.734375" Velocity="0" />
      <note Length="0.03125" Pitch="56" RiffPosition="0.75" Velocity="0" />
      <note Length="0.03125" Pitch="62" RiffPosition="0.78125" Velocity="0" />
      <note Length="0.03125" Pitch="62" RiffPosition="0.8125" Velocity="0" />
      <note Length="0.03125" Pitch="66" RiffPosition="0.84375" Velocity="0" />
      <note Length="0.0625" Pitch="68" RiffPosition="0.875" Velocity="0" />
      <note Length="0.046875" Pitch="49" RiffPosition="0.9375" Velocity="0" />
      <note Length="0.015625" Pitch="56" RiffPosition="0.984375" Velocity="0" />
      <note Length="0.03125" Pitch="55" RiffPosition="1" Velocity="0" />
      <note Length="0.03125" Pitch="48" RiffPosition="1.03125" Velocity="0" />
      <note Length="0.03125" Pitch="48" RiffPosition="1.0625" Velocity="0" />
      <note Length="0.03125" Pitch="48" RiffPosition="1.09375" Velocity="0" />
      <note Length="0.0625" Pitch="61" RiffPosition="1.125" Velocity="0" />
      <note Length="0.046875" Pitch="61" RiffPosition="1.1875" Velocity="0" />
      <note Length="0.015625" Pitch="48" RiffPosition="1.234375" Velocity="0" />
      <note Length="0.03125" Pitch="60" RiffPosition="1.25" Velocity="0" />
      <note Length="0.03125" Pitch="61" RiffPosition="1.28125" Velocity="0" />
      <note Length="0.03125" Pitch="61" RiffPosition="1.3125" Velocity="0" />
      <note Length="0.03125" Pitch="48" RiffPosition="1.34375" Velocity="0" />
      <note Length="0.0625" Pitch="60" RiffPosition="1.375" Velocity="0" />
      <note Length="0.046875" Pitch="48" RiffPosition="1.4375" Velocity="0" />
      <note Length="0.015625" Pitch="55" RiffPosition="1.484375" Velocity="0" />
      <note Length="0.03125" Pitch="60" RiffPosition="1.5" Velocity="0" />
      <note Length="0.03125" Pitch="65" RiffPosition="1.53125" Velocity="0" />
      <note Length="0.03125" Pitch="65" RiffPosition="1.5625" Velocity="0" />
      <note Length="0.03125" Pitch="65" RiffPosition="1.59375" Velocity="0" />
      <note Length="0.0625" Pitch="61" RiffPosition="1.625" Velocity="0" />
      <note Length="0.046875" Pitch="55" RiffPosition="1.6875" Velocity="0" />
      <note Length="0.015625" Pitch="52" RiffPosition="1.734375" Velocity="0" />
      <note Length="0.03125" Pitch="55" RiffPosition="1.75" Velocity="0" />
      <note Length="0.03125" Pitch="61" RiffPosition="1.78125" Velocity="0" />
      <note Length="0.03125" Pitch="61" RiffPosition="1.8125" Velocity="0" />
      <note Length="0.03125" Pitch="65" RiffPosition="1.84375" Velocity="0" />
      <note Length="0.0625" Pitch="67" RiffPosition="1.875" Velocity="0" />
      <note Length="0.046875" Pitch="48" RiffPosition="1.9375" Velocity="0" />
      <note Length="0.015625" Pitch="55" RiffPosition="1.984375" Velocity="0" />
      <note Length="0.03125" Pitch="55" RiffPosition="2" Velocity="87" />
      <note Length="0.03125" Pitch="48" RiffPosition="2.03125" Velocity="44" />
      <note Length="0.03125" Pitch="48" RiffPosition="2.0625" Velocity="42" />
      <note Length="0.03125" Pitch="48" RiffPosition="2.09375" Velocity="37" />
      <note Length="0.0625" Pitch="61" RiffPosition="2.125" Velocity="39" />
      <note Length="0.046875" Pitch="61" RiffPosition="2.1875" Velocity="90" />
      <note Length="0.015625" Pitch="48" RiffPosition="2.234375" Velocity="74" />
      <note Length="0.03125" Pitch="60" RiffPosition="2.25" Velocity="34" />
      <note Length="0.03125" Pitch="61" RiffPosition="2.28125" Velocity="56" />
      <note Length="0.03125" Pitch="61" RiffPosition="2.3125" Velocity="61" />
      <note Length="0.03125" Pitch="48" RiffPosition="2.34375" Velocity="38" />
      <note Length="0.0625" Pitch="60" RiffPosition="2.375" Velocity="62" />
      <note Length="0.046875" Pitch="48" RiffPosition="2.4375" Velocity="35" />
      <note Length="0.015625" Pitch="55" RiffPosition="2.484375" Velocity="68" />
      <note Length="0.03125" Pitch="60" RiffPosition="2.5" Velocity="80" />
      <note Length="0.03125" Pitch="65" RiffPosition="2.53125" Velocity="54" />
      <note Length="0.03125" Pitch="65" RiffPosition="2.5625" Velocity="32" />
      <note Length="0.03125" Pitch="65" RiffPosition="2.59375" Velocity="30" />
      <note Length="0.0625" Pitch="61" RiffPosition="2.625" Velocity="49" />
      <note Length="0.046875" Pitch="55" RiffPosition="2.6875" Velocity="80" />
      <note Length="0.015625" Pitch="52" RiffPosition="2.734375" Velocity="64" />
      <note Length="0.03125" Pitch="55" RiffPosition="2.75" Velocity="41" />
      <note Length="0.03125" Pitch="61" RiffPosition="2.78125" Velocity="46" />
      <note Length="0.03125" Pitch="61" RiffPosition="2.8125" Velocity="68" />
      <note Length="0.03125" Pitch="65" RiffPosition="2.84375" Velocity="32" />
      <note Length="0.0625" Pitch="67" RiffPosition="2.875" Velocity="55" />
      <note Length="0.046875" Pitch="48" RiffPosition="2.9375" Velocity="45" />
      <note Length="0.015625" Pitch="55" RiffPosition="2.984375" Velocity="60" />
      <note Length="0.03125" Pitch="54" RiffPosition="3" Velocity="90" />
      <note Length="0.03125" Pitch="47" RiffPosition="3.03125" Velocity="47" />
      <note Length="0.03125" Pitch="47" RiffPosition="3.0625" Velocity="39" />
      <note Length="0.03125" Pitch="47" RiffPosition="3.09375" Velocity="40" />
      <note Length="0.0625" Pitch="60" RiffPosition="3.125" Velocity="41" />
      <note Length="0.046875" Pitch="60" RiffPosition="3.1875" Velocity="87" />
      <note Length="0.015625" Pitch="47" RiffPosition="3.234375" Velocity="71" />
      <note Length="0.03125" Pitch="59" RiffPosition="3.25" Velocity="49" />
      <note Length="0.03125" Pitch="60" RiffPosition="3.28125" Velocity="53" />
      <note Length="0.03125" Pitch="60" RiffPosition="3.3125" Velocity="58" />
      <note Length="0.03125" Pitch="47" RiffPosition="3.34375" Velocity="35" />
      <note Length="0.0625" Pitch="59" RiffPosition="3.375" Velocity="65" />
      <note Length="0.046875" Pitch="47" RiffPosition="3.4375" Velocity="38" />
      <note Length="0.015625" Pitch="54" RiffPosition="3.484375" Velocity="70" />
      <note Length="0.03125" Pitch="59" RiffPosition="3.5" Velocity="82" />
      <note Length="0.03125" Pitch="64" RiffPosition="3.53125" Velocity="57" />
      <note Length="0.03125" Pitch="64" RiffPosition="3.5625" Velocity="46" />
      <note Length="0.03125" Pitch="64" RiffPosition="3.59375" Velocity="32" />
      <note Length="0.0625" Pitch="60" RiffPosition="3.625" Velocity="51" />
      <note Length="0.046875" Pitch="54" RiffPosition="3.6875" Velocity="77" />
      <note Length="0.015625" Pitch="51" RiffPosition="3.734375" Velocity="61" />
      <note Length="0.03125" Pitch="54" RiffPosition="3.75" Velocity="39" />
      <note Length="0.03125" Pitch="60" RiffPosition="3.78125" Velocity="61" />
      <note Length="0.03125" Pitch="60" RiffPosition="3.8125" Velocity="65" />
      <note Length="0.03125" Pitch="64" RiffPosition="3.84375" Velocity="35" />
      <note Length="0.0625" Pitch="66" RiffPosition="3.875" Velocity="57" />
      <note Length="0.046875" Pitch="47" RiffPosition="3.9375" Velocity="30" />
      <note Length="0.015625" Pitch="54" RiffPosition="3.984375" Velocity="63" />
      <note Length="0.03125" Pitch="65" RiffPosition="4" Velocity="92" />
      <note Length="0.03125" Pitch="58" RiffPosition="4.03125" Velocity="49" />
      <note Length="0.03125" Pitch="58" RiffPosition="4.0625" Velocity="36" />
      <note Length="0.03125" Pitch="58" RiffPosition="4.09375" Velocity="35" />
      <note Length="0.0625" Pitch="71" RiffPosition="4.125" Velocity="44" />
      <note Length="0.046875" Pitch="71" RiffPosition="4.1875" Velocity="85" />
      <note Length="0.015625" Pitch="58" RiffPosition="4.234375" Velocity="69" />
      <note Length="0.03125" Pitch="70" RiffPosition="4.25" Velocity="46" />
      <note Length="0.03125" Pitch="71" RiffPosition="4.28125" Velocity="51" />
      <note Length="0.03125" Pitch="71" RiffPosition="4.3125" Velocity="73" />
      <note Length="0.03125" Pitch="58" RiffPosition="4.34375" Velocity="33" />
      <note Length="0.0625" Pitch="70" RiffPosition="4.375" Velocity="67" />
      <note Length="0.046875" Pitch="58" RiffPosition="4.4375" Velocity="40" />
      <note Length="0.015625" Pitch="65" RiffPosition="4.484375" Velocity="73" />
      <note Length="0.03125" Pitch="70" RiffPosition="4.5" Velocity="85" />
      <note Length="0.03125" Pitch="75" RiffPosition="4.53125" Velocity="59" />
      <note Length="0.03125" Pitch="75" RiffPosition="4.5625" Velocity="44" />
      <note Length="0.03125" Pitch="75" RiffPosition="4.59375" Velocity="35" />
      <note Length="0.0625" Pitch="71" RiffPosition="4.625" Velocity="37" />
      <note Length="0.046875" Pitch="65" RiffPosition="4.6875" Velocity="75" />
      <note Length="0.015625" Pitch="62" RiffPosition="4.734375" Velocity="76" />
      <note Length="0.03125" Pitch="65" RiffPosition="4.75" Velocity="36" />
      <note Length="0.03125" Pitch="71" RiffPosition="4.78125" Velocity="58" />
      <note Length="0.03125" Pitch="71" RiffPosition="4.8125" Velocity="63" />
      <note Length="0.03125" Pitch="75" RiffPosition="4.84375" Velocity="37" />
      <note Length="0.0625" Pitch="77" RiffPosition="4.875" Velocity="60" />
      <note Length="0.046875" Pitch="58" RiffPosition="4.9375" Velocity="33" />
      <note Length="0.015625" Pitch="65" RiffPosition="4.984375" Velocity="66" />
      <note Length="0.03125" Pitch="65" RiffPosition="5" Velocity="78" />
      <note Length="0.03125" Pitch="58" RiffPosition="5.03125" Velocity="52" />
      <note Length="0.03125" Pitch="58" RiffPosition="5.0625" Velocity="34" />
      <note Length="0.03125" Pitch="58" RiffPosition="5.09375" Velocity="32" />
      <note Length="0.0625" Pitch="71" RiffPosition="5.125" Velocity="47" />
      <note Length="0.046875" Pitch="71" RiffPosition="5.1875" Velocity="82" />
      <note Length="0.015625" Pitch="58" RiffPosition="5.234375" Velocity="66" />
      <note Length="0.03125" Pitch="70" RiffPosition="5.25" Velocity="43" />
      <note Length="0.03125" Pitch="71" RiffPosition="5.28125" Velocity="48" />
      <note Length="0.03125" Pitch="71" RiffPosition="5.3125" Velocity="70" />
      <note Length="0.03125" Pitch="58" RiffPosition="5.34375" Velocity="30" />
      <note Length="0.0625" Pitch="70" RiffPosition="5.375" Velocity="70" />
      <note Length="0.046875" Pitch="58" RiffPosition="5.4375" Velocity="43" />
      <note Length="0.015625" Pitch="65" RiffPosition="5.484375" Velocity="76" />
      <note Length="0.03125" Pitch="70" RiffPosition="5.5" Velocity="88" />
      <note Length="0.03125" Pitch="75" RiffPosition="5.53125" Velocity="44" />
      <note Length="0.03125" Pitch="75" RiffPosition="5.5625" Velocity="41" />
      <note Length="0.03125" Pitch="75" RiffPosition="5.59375" Velocity="38" />
      <note Length="0.0625" Pitch="71" RiffPosition="5.625" Velocity="39" />
      <note Length="0.046875" Pitch="65" RiffPosition="5.6875" Velocity="89" />
      <note Length="0.015625" Pitch="62" RiffPosition="5.734375" Velocity="73" />
      <note Length="0.03125" Pitch="65" RiffPosition="5.75" Velocity="33" />
      <note Length="0.03125" Pitch="71" RiffPosition="5.78125" Velocity="56" />
      <note Length="0.03125" Pitch="71" RiffPosition="5.8125" Velocity="60" />
      <note Length="0.03125" Pitch="75" RiffPosition="5.84375" Velocity="38" />
      <note Length="0.0625" Pitch="77" RiffPosition="5.875" Velocity="62" />
      <note Length="0.046875" Pitch="58" RiffPosition="5.9375" Velocity="36" />
      <note Length="0.015625" Pitch="65" RiffPosition="5.984375" Velocity="68" />
      <note Length="0.03125" Pitch="57" RiffPosition="6" Velocity="0" />
      <note Length="0.03125" Pitch="50" RiffPosition="6.03125" Velocity="0" />
      <note Length="0.03125" Pitch="50" RiffPosition="6.0625" Velocity="0" />
      <note Length="0.03125" Pitch="50" RiffPosition="6.09375" Velocity="0" />
      <note Length="0.0625" Pitch="63" RiffPosition="6.125" Velocity="0" />
      <note Length="0.046875" Pitch="63" RiffPosition="6.1875" Velocity="0" />
      <note Length="0.015625" Pitch="50" RiffPosition="6.234375" Velocity="0" />
      <note Length="0.03125" Pitch="62" RiffPosition="6.25" Velocity="0" />
      <note Length="0.03125" Pitch="63" RiffPosition="6.28125" Velocity="0" />
      <note Length="0.03125" Pitch="63" RiffPosition="6.3125" Velocity="0" />
      <note Length="0.03125" Pitch="50" RiffPosition="6.34375" Velocity="0" />
      <note Length="0.0625" Pitch="62" RiffPosition="6.375" Velocity="0" />
      <note Length="0.046875" Pitch="50" RiffPosition="6.4375" Velocity="0" />
      <note Length="0.015625" Pitch="57" RiffPosition="6.484375" Velocity="0" />
      <note Length="0.03125" Pitch="62" RiffPosition="6.5" Velocity="0" />
      <note Length="0.03125" Pitch="67" RiffPosition="6.53125" Velocity="0" />
      <note Length="0.03125" Pitch="67" RiffPosition="6.5625" Velocity="0" />
      <note Length="0.03125" Pitch="67" RiffPosition="6.59375" Velocity="0" />
      <note Length="0.0625" Pitch="63" RiffPosition="6.625" Velocity="0" />
      <note Length="0.046875" Pitch="57" RiffPosition="6.6875" Velocity="0" />
      <note Length="0.015625" Pitch="54" RiffPosition="6.734375" Velocity="0" />
      <note Length="0.03125" Pitch="57" RiffPosition="6.75" Velocity="0" />
      <note Length="0.03125" Pitch="63" RiffPosition="6.78125" Velocity="0" />
      <note Length="0.03125" Pitch="63" RiffPosition="6.8125" Velocity="0" />
      <note Length="0.03125" Pitch="67" RiffPosition="6.84375" Velocity="0" />
      <note Length="0.0625" Pitch="69" RiffPosition="6.875" Velocity="0" />
      <note Length="0.046875" Pitch="50" RiffPosition="6.9375" Velocity="0" />
      <note Length="0.015625" Pitch="57" RiffPosition="6.984375" Velocity="0" />
      <note Length="0.03125" Pitch="56" RiffPosition="7" Velocity="0" />
      <note Length="0.03125" Pitch="49" RiffPosition="7.03125" Velocity="0" />
      <note Length="0.03125" Pitch="49" RiffPosition="7.0625" Velocity="0" />
      <note Length="0.03125" Pitch="49" RiffPosition="7.09375" Velocity="0" />
      <note Length="0.0625" Pitch="62" RiffPosition="7.125" Velocity="0" />
      <note Length="0.046875" Pitch="62" RiffPosition="7.1875" Velocity="0" />
      <note Length="0.015625" Pitch="49" RiffPosition="7.234375" Velocity="0" />
      <note Length="0.03125" Pitch="61" RiffPosition="7.25" Velocity="0" />
      <note Length="0.03125" Pitch="62" RiffPosition="7.28125" Velocity="0" />
      <note Length="0.03125" Pitch="62" RiffPosition="7.3125" Velocity="0" />
      <note Length="0.03125" Pitch="49" RiffPosition="7.34375" Velocity="0" />
      <note Length="0.0625" Pitch="61" RiffPosition="7.375" Velocity="0" />
      <note Length="0.046875" Pitch="49" RiffPosition="7.4375" Velocity="0" />
      <note Length="0.015625" Pitch="56" RiffPosition="7.484375" Velocity="0" />
      <note Length="0.03125" Pitch="61" RiffPosition="7.5" Velocity="0" />
      <note Length="0.03125" Pitch="66" RiffPosition="7.53125" Velocity="0" />
      <note Length="0.03125" Pitch="66" RiffPosition="7.5625" Velocity="0" />
      <note Length="0.03125" Pitch="66" RiffPosition="7.59375" Velocity="0" />
      <note Length="0.0625" Pitch="62" RiffPosition="7.625" Velocity="0" />
      <note Length="0.046875" Pitch="56" RiffPosition="7.6875" Velocity="0" />
      <note Length="0.015625" Pitch="53" RiffPosition="7.734375" Velocity="0" />
      <note Length="0.03125" Pitch="56" RiffPosition="7.75" Velocity="0" />
      <note Length="0.03125" Pitch="62" RiffPosition="7.78125" Velocity="0" />
      <note Length="0.03125" Pitch="62" RiffPosition="7.8125" Velocity="0" />
      <note Length="0.03125" Pitch="66" RiffPosition="7.84375" Velocity="0" />
      <note Length="0.0625" Pitch="68" RiffPosition="7.875" Velocity="0" />
      <note Length="0.046875" Pitch="49" RiffPosition="7.9375" Velocity="0" />
      <note Length="0.015625" Pitch="56" RiffPosition="7.984375" Velocity="0" />
      <note Length="0.03125" Pitch="55" RiffPosition="8" Velocity="85" />
      <note Length="0.03125" Pitch="48" RiffPosition="8.03125" Velocity="60" />
      <note Length="0.03125" Pitch="48" RiffPosition="8.0625" Velocity="43" />
      <note Length="0.03125" Pitch="48" RiffPosition="8.09375" Velocity="36" />
      <note Length="0.0625" Pitch="61" RiffPosition="8.125" Velocity="37" />
      <note Length="0.046875" Pitch="61" RiffPosition="8.1875" Velocity="74" />
      <note Length="0.015625" Pitch="48" RiffPosition="8.234375" Velocity="75" />
      <note Length="0.03125" Pitch="60" RiffPosition="8.25" Velocity="36" />
      <note Length="0.03125" Pitch="61" RiffPosition="8.28125" Velocity="58" />
      <note Length="0.03125" Pitch="61" RiffPosition="8.3125" Velocity="62" />
      <note Length="0.03125" Pitch="48" RiffPosition="8.34375" Velocity="40" />
      <note Length="0.0625" Pitch="60" RiffPosition="8.375" Velocity="60" />
      <note Length="0.046875" Pitch="48" RiffPosition="8.4375" Velocity="34" />
      <note Length="0.015625" Pitch="55" RiffPosition="8.484375" Velocity="66" />
      <note Length="0.03125" Pitch="60" RiffPosition="8.5" Velocity="78" />
      <note Length="0.03125" Pitch="65" RiffPosition="8.53125" Velocity="52" />
      <note Length="0.03125" Pitch="65" RiffPosition="8.5625" Velocity="33" />
      <note Length="0.03125" Pitch="65" RiffPosition="8.59375" Velocity="32" />
      <note Length="0.0625" Pitch="61" RiffPosition="8.625" Velocity="47" />
      <note Length="0.046875" Pitch="55" RiffPosition="8.6875" Velocity="82" />
      <note Length="0.015625" Pitch="52" RiffPosition="8.734375" Velocity="65" />
      <note Length="0.03125" Pitch="55" RiffPosition="8.75" Velocity="43" />
      <note Length="0.03125" Pitch="61" RiffPosition="8.78125" Velocity="48" />
      <note Length="0.03125" Pitch="61" RiffPosition="8.8125" Velocity="70" />
      <note Length="0.03125" Pitch="65" RiffPosition="8.84375" Velocity="30" />
      <note Length="0.0625" Pitch="67" RiffPosition="8.875" Velocity="53" />
      <note Length="0.046875" Pitch="48" RiffPosition="8.9375" Velocity="44" />
      <note Length="0.015625" Pitch="55" RiffPosition="8.984375" Velocity="76" />
      <note Length="0.03125" Pitch="55" RiffPosition="9" Velocity="88" />
      <note Length="0.03125" Pitch="48" RiffPosition="9.03125" Velocity="45" />
      <note Length="0.03125" Pitch="48" RiffPosition="9.0625" Velocity="41" />
      <note Length="0.03125" Pitch="48" RiffPosition="9.09375" Velocity="38" />
      <note Length="0.0625" Pitch="61" RiffPosition="9.125" Velocity="40" />
      <note Length="0.046875" Pitch="61" RiffPosition="9.1875" Velocity="89" />
      <note Length="0.015625" Pitch="48" RiffPosition="9.234375" Velocity="73" />
      <note Length="0.03125" Pitch="60" RiffPosition="9.25" Velocity="33" />
      <note Length="0.03125" Pitch="61" RiffPosition="9.28125" Velocity="55" />
      <note Length="0.03125" Pitch="61" RiffPosition="9.3125" Velocity="60" />
      <note Length="0.03125" Pitch="48" RiffPosition="9.34375" Velocity="37" />
      <note Length="0.0625" Pitch="60" RiffPosition="9.375" Velocity="63" />
      <note Length="0.046875" Pitch="48" RiffPosition="9.4375" Velocity="36" />
      <note Length="0.015625" Pitch="55" RiffPosition="9.484375" Velocity="69" />
      <note Length="0.03125" Pitch="60" RiffPosition="9.5" Velocity="81" />
      <note Length="0.03125" Pitch="65" RiffPosition="9.53125" Velocity="55" />
      <note Length="0.03125" Pitch="65" RiffPosition="9.5625" Velocity="48" />
      <note Length="0.03125" Pitch="65" RiffPosition="9.59375" Velocity="31" />
      <note Length="0.0625" Pitch="61" RiffPosition="9.625" Velocity="50" />
      <note Length="0.046875" Pitch="55" RiffPosition="9.6875" Velocity="79" />
      <note Length="0.015625" Pitch="52" RiffPosition="9.734375" Velocity="63" />
      <note Length="0.03125" Pitch="55" RiffPosition="9.75" Velocity="40" />
      <note Length="0.03125" Pitch="61" RiffPosition="9.78125" Velocity="45" />
      <note Length="0.03125" Pitch="61" RiffPosition="9.8125" Velocity="67" />
      <note Length="0.03125" Pitch="65" RiffPosition="9.84375" Velocity="33" />
      <note Length="0.0625" Pitch="67" RiffPosition="9.875" Velocity="55" />
      <note Length="0.046875" Pitch="48" RiffPosition="9.9375" Velocity="46" />
      <note Length="0.015625" Pitch="55" RiffPosition="9.984375" Velocity="61" />
      <note Length="0.03125" Pitch="54" RiffPosition="10" Velocity="91" />
      <note Length="0.03125" Pitch="47" RiffPosition="10.03125" Velocity="48" />
      <note Length="0.03125" Pitch="47" RiffPosition="10.0625" Velocity="38" />
      <note Length="0.03125" Pitch="47" RiffPosition="10.09375" Velocity="37" />
      <note Length="0.0625" Pitch="60" RiffPosition="10.125" Velocity="42" />
      <note Length="0.046875" Pitch="60" RiffPosition="10.1875" Velocity="86" />
      <note Length="0.015625" Pitch="47" RiffPosition="10.234375" Velocity="70" />
      <note Length="0.03125" Pitch="59" RiffPosition="10.25" Velocity="48" />
      <note Length="0.03125" Pitch="60" RiffPosition="10.28125" Velocity="52" />
      <note Length="0.03125" Pitch="60" RiffPosition="10.3125" Velocity="57" />
      <note Length="0.03125" Pitch="47" RiffPosition="10.34375" Velocity="35" />
      <note Length="0.0625" Pitch="59" RiffPosition="10.375" Velocity="65" />
      <note Length="0.046875" Pitch="47" RiffPosition="10.4375" Velocity="39" />
      <note Length="0.015625" Pitch="54" RiffPosition="10.484375" Velocity="71" />
      <note Length="0.03125" Pitch="59" RiffPosition="10.5" Velocity="83" />
      <note Length="0.03125" Pitch="64" RiffPosition="10.53125" Velocity="58" />
      <note Length="0.03125" Pitch="64" RiffPosition="10.5625" Velocity="46" />
      <note Length="0.03125" Pitch="64" RiffPosition="10.59375" Velocity="33" />
      <note Length="0.0625" Pitch="60" RiffPosition="10.625" Velocity="35" />
      <note Length="0.046875" Pitch="54" RiffPosition="10.6875" Velocity="76" />
      <note Length="0.015625" Pitch="51" RiffPosition="10.734375" Velocity="60" />
      <note Length="0.03125" Pitch="54" RiffPosition="10.75" Velocity="38" />
      <note Length="0.03125" Pitch="60" RiffPosition="10.78125" Velocity="60" />
      <note Length="0.03125" Pitch="60" RiffPosition="10.8125" Velocity="64" />
      <note Length="0.03125" Pitch="64" RiffPosition="10.84375" Velocity="35" />
      <note Length="0.0625" Pitch="66" RiffPosition="10.875" Velocity="58" />
      <note Length="0.046875" Pitch="47" RiffPosition="10.9375" Velocity="31" />
      <note Length="0.015625" Pitch="54" RiffPosition="10.984375" Velocity="64" />
      <note Length="0.03125" Pitch="65" RiffPosition="11" Velocity="93" />
      <note Length="0.03125" Pitch="58" RiffPosition="11.03125" Velocity="50" />
      <note Length="0.03125" Pitch="58" RiffPosition="11.0625" Velocity="36" />
      <note Length="0.03125" Pitch="58" RiffPosition="11.09375" Velocity="34" />
      <note Length="0.0625" Pitch="71" RiffPosition="11.125" Velocity="45" />
      <note Length="0.046875" Pitch="71" RiffPosition="11.1875" Velocity="84" />
      <note Length="0.015625" Pitch="58" RiffPosition="11.234375" Velocity="68" />
      <note Length="0.03125" Pitch="70" RiffPosition="11.25" Velocity="45" />
      <note Length="0.03125" Pitch="71" RiffPosition="11.28125" Velocity="50" />
      <note Length="0.03125" Pitch="71" RiffPosition="11.3125" Velocity="72" />
      <note Length="0.03125" Pitch="58" RiffPosition="11.34375" Velocity="32" />
      <note Length="0.0625" Pitch="70" RiffPosition="11.375" Velocity="68" />
      <note Length="0.046875" Pitch="58" RiffPosition="11.4375" Velocity="41" />
      <note Length="0.015625" Pitch="65" RiffPosition="11.484375" Velocity="74" />
      <note Length="0.03125" Pitch="70" RiffPosition="11.5" Velocity="86" />
      <note Length="0.03125" Pitch="75" RiffPosition="11.53125" Velocity="60" />
      <note Length="0.03125" Pitch="75" RiffPosition="11.5625" Velocity="43" />
      <note Length="0.03125" Pitch="75" RiffPosition="11.59375" Velocity="36" />
      <note Length="0.0625" Pitch="71" RiffPosition="11.625" Velocity="38" />
      <note Length="0.046875" Pitch="65" RiffPosition="11.6875" Velocity="74" />
      <note Length="0.015625" Pitch="62" RiffPosition="11.734375" Velocity="75" />
      <note Length="0.03125" Pitch="65" RiffPosition="11.75" Velocity="35" />
      <note Length="0.03125" Pitch="71" RiffPosition="11.78125" Velocity="57" />
      <note Length="0.03125" Pitch="71" RiffPosition="11.8125" Velocity="62" />
      <note Length="0.03125" Pitch="75" RiffPosition="11.84375" Velocity="39" />
      <note Length="0.0625" Pitch="77" RiffPosition="11.875" Velocity="61" />
      <note Length="0.046875" Pitch="58" RiffPosition="11.9375" Velocity="34" />
      <note Length="0.015625" Pitch="65" RiffPosition="11.984375" Velocity="66" />
      <note Length="0.03125" Pitch="65" RiffPosition="12" Velocity="78" />
      <note Length="0.03125" Pitch="58" RiffPosition="12.03125" Velocity="53" />
      <note Length="0.03125" Pitch="58" RiffPosition="12.0625" Velocity="33" />
      <note Length="0.03125" Pitch="58" RiffPosition="12.09375" Velocity="31" />
      <note Length="0.0625" Pitch="71" RiffPosition="12.125" Velocity="48" />
      <note Length="0.046875" Pitch="71" RiffPosition="12.1875" Velocity="81" />
      <note Length="0.015625" Pitch="58" RiffPosition="12.234375" Velocity="65" />
      <note Length="0.03125" Pitch="70" RiffPosition="12.25" Velocity="43" />
      <note Length="0.03125" Pitch="71" RiffPosition="12.28125" Velocity="47" />
      <note Length="0.03125" Pitch="71" RiffPosition="12.3125" Velocity="69" />
      <note Length="0.03125" Pitch="58" RiffPosition="12.34375" Velocity="31" />
      <note Length="0.0625" Pitch="70" RiffPosition="12.375" Velocity="53" />
      <note Length="0.046875" Pitch="58" RiffPosition="12.4375" Velocity="44" />
      <note Length="0.015625" Pitch="65" RiffPosition="12.484375" Velocity="76" />
      <note Length="0.03125" Pitch="70" RiffPosition="12.5" Velocity="88" />
      <note Length="0.03125" Pitch="75" RiffPosition="12.53125" Velocity="45" />
      <note Length="0.03125" Pitch="75" RiffPosition="12.5625" Velocity="40" />
      <note Length="0.03125" Pitch="75" RiffPosition="12.59375" Velocity="39" />
      <note Length="0.0625" Pitch="71" RiffPosition="12.625" Velocity="40" />
      <note Length="0.046875" Pitch="65" RiffPosition="12.6875" Velocity="89" />
      <note Length="0.015625" Pitch="62" RiffPosition="12.734375" Velocity="72" />
      <note Length="0.03125" Pitch="65" RiffPosition="12.75" Velocity="33" />
      <note Length="0.03125" Pitch="71" RiffPosition="12.78125" Velocity="55" />
      <note Length="0.03125" Pitch="71" RiffPosition="12.8125" Velocity="59" />
      <note Length="0.03125" Pitch="75" RiffPosition="12.84375" Velocity="37" />
      <note Length="0.0625" Pitch="77" RiffPosition="12.875" Velocity="63" />
      <note Length="0.046875" Pitch="58" RiffPosition="12.9375" Velocity="37" />
      <note Length="0.015625" Pitch="65" RiffPosition="12.984375" Velocity="69" />
    </riff>
    <riff IsDrum="False" MidiInstrument="56" Tempo="141" Length="13">
      <note Length="0.046875" Pitch="49" RiffPosition="0" Velocity="0" />
      <note Length="0.046875" Pitch="49" RiffPosition="0.046875" Velocity="0" />
      <note Length="0.09375" Pitch="62" RiffPosition="0.09375" Velocity="0" />
      <note Length="0.015625" Pitch="66" RiffPosition="0.1875" Velocity="0" />
      <note Length="0.015625" Pitch="61" RiffPosition="0.203125" Velocity="0" />
      <note Length="0.015625" Pitch="61" RiffPosition="0.21875" Velocity="0" />
      <note Length="0.015625" Pitch="65" RiffPosition="0.234375" Velocity="0" />
      <note Length="0.046875" Pitch="49" RiffPosition="0.25" Velocity="0" />
      <note Length="0.046875" Pitch="49" RiffPosition="0.296875" Velocity="0" />
      <note Length="0.09375" Pitch="62" RiffPosition="0.34375" Velocity="0" />
      <note Length="0.015625" Pitch="66" RiffPosition="0.4375" Velocity="0" />
      <note Length="0.015625" Pitch="61" RiffPosition="0.453125" Velocity="0" />
      <note Length="0.015625" Pitch="61" RiffPosition="0.46875" Velocity="0" />
      <note Length="0.015625" Pitch="66" RiffPosition="0.484375" Velocity="0" />
      <note Length="0.046875" Pitch="49" RiffPosition="0.5" Velocity="0" />
      <note Length="0.046875" Pitch="49" RiffPosition="0.546875" Velocity="0" />
      <note Length="0.09375" Pitch="62" RiffPosition="0.59375" Velocity="0" />
      <note Length="0.015625" Pitch="65" RiffPosition="0.6875" Velocity="0" />
      <note Length="0.015625" Pitch="61" RiffPosition="0.703125" Velocity="0" />
      <note Length="0.015625" Pitch="61" RiffPosition="0.71875" Velocity="0" />
      <note Length="0.015625" Pitch="65" RiffPosition="0.734375" Velocity="0" />
      <note Length="0.046875" Pitch="49" RiffPosition="0.75" Velocity="0" />
      <note Length="0.046875" Pitch="49" RiffPosition="0.796875" Velocity="0" />
      <note Length="0.09375" Pitch="62" RiffPosition="0.84375" Velocity="0" />
      <note Length="0.015625" Pitch="65" RiffPosition="0.9375" Velocity="0" />
      <note Length="0.015625" Pitch="61" RiffPosition="0.953125" Velocity="0" />
      <note Length="0.015625" Pitch="61" RiffPosition="0.96875" Velocity="0" />
      <note Length="0.015625" Pitch="65" RiffPosition="0.984375" Velocity="0" />
      <note Length="0.046875" Pitch="48" RiffPosition="1" Velocity="0" />
      <note Length="0.046875" Pitch="48" RiffPosition="1.046875" Velocity="0" />
      <note Length="0.09375" Pitch="61" RiffPosition="1.09375" Velocity="0" />
      <note Length="0.015625" Pitch="65" RiffPosition="1.1875" Velocity="0" />
      <note Length="0.015625" Pitch="60" RiffPosition="1.203125" Velocity="0" />
      <note Length="0.015625" Pitch="60" RiffPosition="1.21875" Velocity="0" />
      <note Length="0.015625" Pitch="64" RiffPosition="1.234375" Velocity="0" />
      <note Length="0.046875" Pitch="48" RiffPosition="1.25" Velocity="0" />
      <note Length="0.046875" Pitch="48" RiffPosition="1.296875" Velocity="0" />
      <note Length="0.09375" Pitch="61" RiffPosition="1.34375" Velocity="0" />
      <note Length="0.015625" Pitch="65" RiffPosition="1.4375" Velocity="0" />
      <note Length="0.015625" Pitch="60" RiffPosition="1.453125" Velocity="0" />
      <note Length="0.015625" Pitch="60" RiffPosition="1.46875" Velocity="0" />
      <note Length="0.015625" Pitch="65" RiffPosition="1.484375" Velocity="0" />
      <note Length="0.046875" Pitch="48" RiffPosition="1.5" Velocity="0" />
      <note Length="0.046875" Pitch="48" RiffPosition="1.546875" Velocity="0" />
      <note Length="0.09375" Pitch="61" RiffPosition="1.59375" Velocity="0" />
      <note Length="0.015625" Pitch="64" RiffPosition="1.6875" Velocity="0" />
      <note Length="0.015625" Pitch="60" RiffPosition="1.703125" Velocity="0" />
      <note Length="0.015625" Pitch="60" RiffPosition="1.71875" Velocity="0" />
      <note Length="0.015625" Pitch="64" RiffPosition="1.734375" Velocity="0" />
      <note Length="0.046875" Pitch="48" RiffPosition="1.75" Velocity="0" />
      <note Length="0.046875" Pitch="48" RiffPosition="1.796875" Velocity="0" />
      <note Length="0.09375" Pitch="61" RiffPosition="1.84375" Velocity="0" />
      <note Length="0.015625" Pitch="64" RiffPosition="1.9375" Velocity="0" />
      <note Length="0.015625" Pitch="60" RiffPosition="1.953125" Velocity="0" />
      <note Length="0.015625" Pitch="60" RiffPosition="1.96875" Velocity="0" />
      <note Length="0.015625" Pitch="64" RiffPosition="1.984375" Velocity="0" />
      <note Length="0.046875" Pitch="48" RiffPosition="2" Velocity="76" />
      <note Length="0.046875" Pitch="48" RiffPosition="2.046875" Velocity="50" />
      <note Length="0.09375" Pitch="61" RiffPosition="2.09375" Velocity="73" />
      <note Length="0.015625" Pitch="65" RiffPosition="2.1875" Velocity="84" />
      <note Length="0.015625" Pitch="60" RiffPosition="2.203125" Velocity="100" />
      <note Length="0.015625" Pitch="60" RiffPosition="2.21875" Velocity="82" />
      <note Length="0.015625" Pitch="64" RiffPosition="2.234375" Velocity="55" />
      <note Length="0.046875" Pitch="48" RiffPosition="2.25" Velocity="36" />
      <note Length="0.046875" Pitch="48" RiffPosition="2.296875" Velocity="46" />
      <note Length="0.09375" Pitch="61" RiffPosition="2.34375" Velocity="40" />
      <note Length="0.015625" Pitch="65" RiffPosition="2.4375" Velocity="32" />
      <note Length="0.015625" Pitch="60" RiffPosition="2.453125" Velocity="56" />
      <note Length="0.015625" Pitch="60" RiffPosition="2.46875" Velocity="52" />
      <note Length="0.015625" Pitch="65" RiffPosition="2.484375" Velocity="30" />
      <note Length="0.046875" Pitch="48" RiffPosition="2.5" Velocity="55" />
      <note Length="0.046875" Pitch="48" RiffPosition="2.546875" Velocity="31" />
      <note Length="0.09375" Pitch="61" RiffPosition="2.59375" Velocity="73" />
      <note Length="0.015625" Pitch="64" RiffPosition="2.6875" Velocity="63" />
      <note Length="0.015625" Pitch="60" RiffPosition="2.703125" Velocity="79" />
      <note Length="0.015625" Pitch="60" RiffPosition="2.71875" Velocity="82" />
      <note Length="0.015625" Pitch="64" RiffPosition="2.734375" Velocity="55" />
      <note Length="0.046875" Pitch="48" RiffPosition="2.75" Velocity="36" />
      <note Length="0.046875" Pitch="48" RiffPosition="2.796875" Velocity="35" />
      <note Length="0.09375" Pitch="61" RiffPosition="2.84375" Velocity="61" />
      <note Length="0.015625" Pitch="64" RiffPosition="2.9375" Velocity="32" />
      <note Length="0.015625" Pitch="60" RiffPosition="2.953125" Velocity="35" />
      <note Length="0.015625" Pitch="60" RiffPosition="2.96875" Velocity="31" />
      <note Length="0.015625" Pitch="64" RiffPosition="2.984375" Velocity="50" />
      <note Length="0.046875" Pitch="47" RiffPosition="3" Velocity="76" />
      <note Length="0.046875" Pitch="47" RiffPosition="3.046875" Velocity="50" />
      <note Length="0.09375" Pitch="60" RiffPosition="3.09375" Velocity="73" />
      <note Length="0.015625" Pitch="64" RiffPosition="3.1875" Velocity="84" />
      <note Length="0.015625" Pitch="59" RiffPosition="3.203125" Velocity="100" />
      <note Length="0.015625" Pitch="59" RiffPosition="3.21875" Velocity="82" />
      <note Length="0.015625" Pitch="63" RiffPosition="3.234375" Velocity="55" />
      <note Length="0.046875" Pitch="47" RiffPosition="3.25" Velocity="36" />
      <note Length="0.046875" Pitch="47" RiffPosition="3.296875" Velocity="46" />
      <note Length="0.09375" Pitch="60" RiffPosition="3.34375" Velocity="40" />
      <note Length="0.015625" Pitch="64" RiffPosition="3.4375" Velocity="32" />
      <note Length="0.015625" Pitch="59" RiffPosition="3.453125" Velocity="56" />
      <note Length="0.015625" Pitch="59" RiffPosition="3.46875" Velocity="52" />
      <note Length="0.015625" Pitch="64" RiffPosition="3.484375" Velocity="30" />
      <note Length="0.046875" Pitch="47" RiffPosition="3.5" Velocity="55" />
      <note Length="0.046875" Pitch="47" RiffPosition="3.546875" Velocity="31" />
      <note Length="0.09375" Pitch="60" RiffPosition="3.59375" Velocity="73" />
      <note Length="0.015625" Pitch="63" RiffPosition="3.6875" Velocity="63" />
      <note Length="0.015625" Pitch="59" RiffPosition="3.703125" Velocity="79" />
      <note Length="0.015625" Pitch="59" RiffPosition="3.71875" Velocity="82" />
      <note Length="0.015625" Pitch="63" RiffPosition="3.734375" Velocity="55" />
      <note Length="0.046875" Pitch="47" RiffPosition="3.75" Velocity="36" />
      <note Length="0.046875" Pitch="47" RiffPosition="3.796875" Velocity="35" />
      <note Length="0.09375" Pitch="60" RiffPosition="3.84375" Velocity="61" />
      <note Length="0.015625" Pitch="63" RiffPosition="3.9375" Velocity="32" />
      <note Length="0.015625" Pitch="59" RiffPosition="3.953125" Velocity="35" />
      <note Length="0.015625" Pitch="59" RiffPosition="3.96875" Velocity="31" />
      <note Length="0.015625" Pitch="63" RiffPosition="3.984375" Velocity="50" />
      <note Length="0.046875" Pitch="58" RiffPosition="4" Velocity="76" />
      <note Length="0.046875" Pitch="58" RiffPosition="4.046875" Velocity="50" />
      <note Length="0.09375" Pitch="71" RiffPosition="4.09375" Velocity="73" />
      <note Length="0.015625" Pitch="75" RiffPosition="4.1875" Velocity="84" />
      <note Length="0.015625" Pitch="70" RiffPosition="4.203125" Velocity="100" />
      <note Length="0.015625" Pitch="70" RiffPosition="4.21875" Velocity="82" />
      <note Length="0.015625" Pitch="74" RiffPosition="4.234375" Velocity="55" />
      <note Length="0.046875" Pitch="58" RiffPosition="4.25" Velocity="36" />
      <note Length="0.046875" Pitch="58" RiffPosition="4.296875" Velocity="46" />
      <note Length="0.09375" Pitch="71" RiffPosition="4.34375" Velocity="40" />
      <note Length="0.015625" Pitch="75" RiffPosition="4.4375" Velocity="32" />
      <note Length="0.015625" Pitch="70" RiffPosition="4.453125" Velocity="56" />
      <note Length="0.015625" Pitch="70" RiffPosition="4.46875" Velocity="52" />
      <note Length="0.015625" Pitch="75" RiffPosition="4.484375" Velocity="30" />
      <note Length="0.046875" Pitch="58" RiffPosition="4.5" Velocity="55" />
      <note Length="0.046875" Pitch="58" RiffPosition="4.546875" Velocity="31" />
      <note Length="0.09375" Pitch="71" RiffPosition="4.59375" Velocity="73" />
      <note Length="0.015625" Pitch="74" RiffPosition="4.6875" Velocity="63" />
      <note Length="0.015625" Pitch="70" RiffPosition="4.703125" Velocity="79" />
      <note Length="0.015625" Pitch="70" RiffPosition="4.71875" Velocity="82" />
      <note Length="0.015625" Pitch="74" RiffPosition="4.734375" Velocity="55" />
      <note Length="0.046875" Pitch="58" RiffPosition="4.75" Velocity="36" />
      <note Length="0.046875" Pitch="58" RiffPosition="4.796875" Velocity="35" />
      <note Length="0.09375" Pitch="71" RiffPosition="4.84375" Velocity="61" />
      <note Length="0.015625" Pitch="74" RiffPosition="4.9375" Velocity="32" />
      <note Length="0.015625" Pitch="70" RiffPosition="4.953125" Velocity="35" />
      <note Length="0.015625" Pitch="70" RiffPosition="4.96875" Velocity="31" />
      <note Length="0.015625" Pitch="74" RiffPosition="4.984375" Velocity="50" />
      <note Length="0.046875" Pitch="58" RiffPosition="5" Velocity="76" />
      <note Length="0.046875" Pitch="58" RiffPosition="5.046875" Velocity="50" />
      <note Length="0.09375" Pitch="71" RiffPosition="5.09375" Velocity="73" />
      <note Length="0.015625" Pitch="75" RiffPosition="5.1875" Velocity="84" />
      <note Length="0.015625" Pitch="70" RiffPosition="5.203125" Velocity="100" />
      <note Length="0.015625" Pitch="70" RiffPosition="5.21875" Velocity="82" />
      <note Length="0.015625" Pitch="74" RiffPosition="5.234375" Velocity="55" />
      <note Length="0.046875" Pitch="58" RiffPosition="5.25" Velocity="36" />
      <note Length="0.046875" Pitch="58" RiffPosition="5.296875" Velocity="46" />
      <note Length="0.09375" Pitch="71" RiffPosition="5.34375" Velocity="40" />
      <note Length="0.015625" Pitch="75" RiffPosition="5.4375" Velocity="32" />
      <note Length="0.015625" Pitch="70" RiffPosition="5.453125" Velocity="56" />
      <note Length="0.015625" Pitch="70" RiffPosition="5.46875" Velocity="52" />
      <note Length="0.015625" Pitch="75" RiffPosition="5.484375" Velocity="30" />
      <note Length="0.046875" Pitch="58" RiffPosition="5.5" Velocity="55" />
      <note Length="0.046875" Pitch="58" RiffPosition="5.546875" Velocity="31" />
      <note Length="0.09375" Pitch="71" RiffPosition="5.59375" Velocity="73" />
      <note Length="0.015625" Pitch="74" RiffPosition="5.6875" Velocity="63" />
      <note Length="0.015625" Pitch="70" RiffPosition="5.703125" Velocity="79" />
      <note Length="0.015625" Pitch="70" RiffPosition="5.71875" Velocity="82" />
      <note Length="0.015625" Pitch="74" RiffPosition="5.734375" Velocity="55" />
      <note Length="0.046875" Pitch="58" RiffPosition="5.75" Velocity="36" />
      <note Length="0.046875" Pitch="58" RiffPosition="5.796875" Velocity="35" />
      <note Length="0.09375" Pitch="71" RiffPosition="5.84375" Velocity="61" />
      <note Length="0.015625" Pitch="74" RiffPosition="5.9375" Velocity="32" />
      <note Length="0.015625" Pitch="70" RiffPosition="5.953125" Velocity="35" />
      <note Length="0.015625" Pitch="70" RiffPosition="5.96875" Velocity="31" />
      <note Length="0.015625" Pitch="74" RiffPosition="5.984375" Velocity="50" />
      <note Length="0.046875" Pitch="50" RiffPosition="6" Velocity="0" />
      <note Length="0.046875" Pitch="50" RiffPosition="6.046875" Velocity="0" />
      <note Length="0.09375" Pitch="63" RiffPosition="6.09375" Velocity="0" />
      <note Length="0.015625" Pitch="67" RiffPosition="6.1875" Velocity="0" />
      <note Length="0.015625" Pitch="62" RiffPosition="6.203125" Velocity="0" />
      <note Length="0.015625" Pitch="62" RiffPosition="6.21875" Velocity="0" />
      <note Length="0.015625" Pitch="66" RiffPosition="6.234375" Velocity="0" />
      <note Length="0.046875" Pitch="50" RiffPosition="6.25" Velocity="0" />
      <note Length="0.046875" Pitch="50" RiffPosition="6.296875" Velocity="0" />
      <note Length="0.09375" Pitch="63" RiffPosition="6.34375" Velocity="0" />
      <note Length="0.015625" Pitch="67" RiffPosition="6.4375" Velocity="0" />
      <note Length="0.015625" Pitch="62" RiffPosition="6.453125" Velocity="0" />
      <note Length="0.015625" Pitch="62" RiffPosition="6.46875" Velocity="0" />
      <note Length="0.015625" Pitch="67" RiffPosition="6.484375" Velocity="0" />
      <note Length="0.046875" Pitch="50" RiffPosition="6.5" Velocity="0" />
      <note Length="0.046875" Pitch="50" RiffPosition="6.546875" Velocity="0" />
      <note Length="0.09375" Pitch="63" RiffPosition="6.59375" Velocity="0" />
      <note Length="0.015625" Pitch="66" RiffPosition="6.6875" Velocity="0" />
      <note Length="0.015625" Pitch="62" RiffPosition="6.703125" Velocity="0" />
      <note Length="0.015625" Pitch="62" RiffPosition="6.71875" Velocity="0" />
      <note Length="0.015625" Pitch="66" RiffPosition="6.734375" Velocity="0" />
      <note Length="0.046875" Pitch="50" RiffPosition="6.75" Velocity="0" />
      <note Length="0.046875" Pitch="50" RiffPosition="6.796875" Velocity="0" />
      <note Length="0.09375" Pitch="63" RiffPosition="6.84375" Velocity="0" />
      <note Length="0.015625" Pitch="66" RiffPosition="6.9375" Velocity="0" />
      <note Length="0.015625" Pitch="62" RiffPosition="6.953125" Velocity="0" />
      <note Length="0.015625" Pitch="62" RiffPosition="6.96875" Velocity="0" />
      <note Length="0.015625" Pitch="66" RiffPosition="6.984375" Velocity="0" />
      <note Length="0.046875" Pitch="49" RiffPosition="7" Velocity="0" />
      <note Length="0.046875" Pitch="49" RiffPosition="7.046875" Velocity="0" />
      <note Length="0.09375" Pitch="62" RiffPosition="7.09375" Velocity="0" />
      <note Length="0.015625" Pitch="66" RiffPosition="7.1875" Velocity="0" />
      <note Length="0.015625" Pitch="61" RiffPosition="7.203125" Velocity="0" />
      <note Length="0.015625" Pitch="61" RiffPosition="7.21875" Velocity="0" />
      <note Length="0.015625" Pitch="65" RiffPosition="7.234375" Velocity="0" />
      <note Length="0.046875" Pitch="49" RiffPosition="7.25" Velocity="0" />
      <note Length="0.046875" Pitch="49" RiffPosition="7.296875" Velocity="0" />
      <note Length="0.09375" Pitch="62" RiffPosition="7.34375" Velocity="0" />
      <note Length="0.015625" Pitch="66" RiffPosition="7.4375" Velocity="0" />
      <note Length="0.015625" Pitch="61" RiffPosition="7.453125" Velocity="0" />
      <note Length="0.015625" Pitch="61" RiffPosition="7.46875" Velocity="0" />
      <note Length="0.015625" Pitch="66" RiffPosition="7.484375" Velocity="0" />
      <note Length="0.046875" Pitch="49" RiffPosition="7.5" Velocity="0" />
      <note Length="0.046875" Pitch="49" RiffPosition="7.546875" Velocity="0" />
      <note Length="0.09375" Pitch="62" RiffPosition="7.59375" Velocity="0" />
      <note Length="0.015625" Pitch="65" RiffPosition="7.6875" Velocity="0" />
      <note Length="0.015625" Pitch="61" RiffPosition="7.703125" Velocity="0" />
      <note Length="0.015625" Pitch="61" RiffPosition="7.71875" Velocity="0" />
      <note Length="0.015625" Pitch="65" RiffPosition="7.734375" Velocity="0" />
      <note Length="0.046875" Pitch="49" RiffPosition="7.75" Velocity="0" />
      <note Length="0.046875" Pitch="49" RiffPosition="7.796875" Velocity="0" />
      <note Length="0.09375" Pitch="62" RiffPosition="7.84375" Velocity="0" />
      <note Length="0.015625" Pitch="65" RiffPosition="7.9375" Velocity="0" />
      <note Length="0.015625" Pitch="61" RiffPosition="7.953125" Velocity="0" />
      <note Length="0.015625" Pitch="61" RiffPosition="7.96875" Velocity="0" />
      <note Length="0.015625" Pitch="65" RiffPosition="7.984375" Velocity="0" />
      <note Length="0.046875" Pitch="48" RiffPosition="8" Velocity="76" />
      <note Length="0.046875" Pitch="48" RiffPosition="8.046875" Velocity="50" />
      <note Length="0.09375" Pitch="61" RiffPosition="8.09375" Velocity="73" />
      <note Length="0.015625" Pitch="65" RiffPosition="8.1875" Velocity="84" />
      <note Length="0.015625" Pitch="60" RiffPosition="8.203125" Velocity="100" />
      <note Length="0.015625" Pitch="60" RiffPosition="8.21875" Velocity="82" />
      <note Length="0.015625" Pitch="64" RiffPosition="8.234375" Velocity="55" />
      <note Length="0.046875" Pitch="48" RiffPosition="8.25" Velocity="36" />
      <note Length="0.046875" Pitch="48" RiffPosition="8.296875" Velocity="46" />
      <note Length="0.09375" Pitch="61" RiffPosition="8.34375" Velocity="40" />
      <note Length="0.015625" Pitch="65" RiffPosition="8.4375" Velocity="32" />
      <note Length="0.015625" Pitch="60" RiffPosition="8.453125" Velocity="56" />
      <note Length="0.015625" Pitch="60" RiffPosition="8.46875" Velocity="52" />
      <note Length="0.015625" Pitch="65" RiffPosition="8.484375" Velocity="30" />
      <note Length="0.046875" Pitch="48" RiffPosition="8.5" Velocity="55" />
      <note Length="0.046875" Pitch="48" RiffPosition="8.546875" Velocity="31" />
      <note Length="0.09375" Pitch="61" RiffPosition="8.59375" Velocity="73" />
      <note Length="0.015625" Pitch="64" RiffPosition="8.6875" Velocity="63" />
      <note Length="0.015625" Pitch="60" RiffPosition="8.703125" Velocity="79" />
      <note Length="0.015625" Pitch="60" RiffPosition="8.71875" Velocity="82" />
      <note Length="0.015625" Pitch="64" RiffPosition="8.734375" Velocity="55" />
      <note Length="0.046875" Pitch="48" RiffPosition="8.75" Velocity="36" />
      <note Length="0.046875" Pitch="48" RiffPosition="8.796875" Velocity="35" />
      <note Length="0.09375" Pitch="61" RiffPosition="8.84375" Velocity="61" />
      <note Length="0.015625" Pitch="64" RiffPosition="8.9375" Velocity="32" />
      <note Length="0.015625" Pitch="60" RiffPosition="8.953125" Velocity="35" />
      <note Length="0.015625" Pitch="60" RiffPosition="8.96875" Velocity="31" />
      <note Length="0.015625" Pitch="64" RiffPosition="8.984375" Velocity="50" />
      <note Length="0.046875" Pitch="48" RiffPosition="9" Velocity="76" />
      <note Length="0.046875" Pitch="48" RiffPosition="9.046875" Velocity="50" />
      <note Length="0.09375" Pitch="61" RiffPosition="9.09375" Velocity="73" />
      <note Length="0.015625" Pitch="65" RiffPosition="9.1875" Velocity="84" />
      <note Length="0.015625" Pitch="60" RiffPosition="9.203125" Velocity="100" />
      <note Length="0.015625" Pitch="60" RiffPosition="9.21875" Velocity="82" />
      <note Length="0.015625" Pitch="64" RiffPosition="9.234375" Velocity="55" />
      <note Length="0.046875" Pitch="48" RiffPosition="9.25" Velocity="36" />
      <note Length="0.046875" Pitch="48" RiffPosition="9.296875" Velocity="46" />
      <note Length="0.09375" Pitch="61" RiffPosition="9.34375" Velocity="40" />
      <note Length="0.015625" Pitch="65" RiffPosition="9.4375" Velocity="32" />
      <note Length="0.015625" Pitch="60" RiffPosition="9.453125" Velocity="56" />
      <note Length="0.015625" Pitch="60" RiffPosition="9.46875" Velocity="52" />
      <note Length="0.015625" Pitch="65" RiffPosition="9.484375" Velocity="30" />
      <note Length="0.046875" Pitch="48" RiffPosition="9.5" Velocity="55" />
      <note Length="0.046875" Pitch="48" RiffPosition="9.546875" Velocity="31" />
      <note Length="0.09375" Pitch="61" RiffPosition="9.59375" Velocity="73" />
      <note Length="0.015625" Pitch="64" RiffPosition="9.6875" Velocity="63" />
      <note Length="0.015625" Pitch="60" RiffPosition="9.703125" Velocity="79" />
      <note Length="0.015625" Pitch="60" RiffPosition="9.71875" Velocity="82" />
      <note Length="0.015625" Pitch="64" RiffPosition="9.734375" Velocity="55" />
      <note Length="0.046875" Pitch="48" RiffPosition="9.75" Velocity="36" />
      <note Length="0.046875" Pitch="48" RiffPosition="9.796875" Velocity="35" />
      <note Length="0.09375" Pitch="61" RiffPosition="9.84375" Velocity="61" />
      <note Length="0.015625" Pitch="64" RiffPosition="9.9375" Velocity="32" />
      <note Length="0.015625" Pitch="60" RiffPosition="9.953125" Velocity="35" />
      <note Length="0.015625" Pitch="60" RiffPosition="9.96875" Velocity="31" />
      <note Length="0.015625" Pitch="64" RiffPosition="9.984375" Velocity="50" />
      <note Length="0.046875" Pitch="47" RiffPosition="10" Velocity="76" />
      <note Length="0.046875" Pitch="47" RiffPosition="10.046875" Velocity="50" />
      <note Length="0.09375" Pitch="60" RiffPosition="10.09375" Velocity="73" />
      <note Length="0.015625" Pitch="64" RiffPosition="10.1875" Velocity="84" />
      <note Length="0.015625" Pitch="59" RiffPosition="10.203125" Velocity="100" />
      <note Length="0.015625" Pitch="59" RiffPosition="10.21875" Velocity="82" />
      <note Length="0.015625" Pitch="63" RiffPosition="10.234375" Velocity="55" />
      <note Length="0.046875" Pitch="47" RiffPosition="10.25" Velocity="36" />
      <note Length="0.046875" Pitch="47" RiffPosition="10.296875" Velocity="46" />
      <note Length="0.09375" Pitch="60" RiffPosition="10.34375" Velocity="40" />
      <note Length="0.015625" Pitch="64" RiffPosition="10.4375" Velocity="32" />
      <note Length="0.015625" Pitch="59" RiffPosition="10.453125" Velocity="56" />
      <note Length="0.015625" Pitch="59" RiffPosition="10.46875" Velocity="52" />
      <note Length="0.015625" Pitch="64" RiffPosition="10.484375" Velocity="30" />
      <note Length="0.046875" Pitch="47" RiffPosition="10.5" Velocity="55" />
      <note Length="0.046875" Pitch="47" RiffPosition="10.546875" Velocity="31" />
      <note Length="0.09375" Pitch="60" RiffPosition="10.59375" Velocity="73" />
      <note Length="0.015625" Pitch="63" RiffPosition="10.6875" Velocity="63" />
      <note Length="0.015625" Pitch="59" RiffPosition="10.703125" Velocity="79" />
      <note Length="0.015625" Pitch="59" RiffPosition="10.71875" Velocity="82" />
      <note Length="0.015625" Pitch="63" RiffPosition="10.734375" Velocity="55" />
      <note Length="0.046875" Pitch="47" RiffPosition="10.75" Velocity="36" />
      <note Length="0.046875" Pitch="47" RiffPosition="10.796875" Velocity="35" />
      <note Length="0.09375" Pitch="60" RiffPosition="10.84375" Velocity="61" />
      <note Length="0.015625" Pitch="63" RiffPosition="10.9375" Velocity="32" />
      <note Length="0.015625" Pitch="59" RiffPosition="10.953125" Velocity="35" />
      <note Length="0.015625" Pitch="59" RiffPosition="10.96875" Velocity="31" />
      <note Length="0.015625" Pitch="63" RiffPosition="10.984375" Velocity="50" />
      <note Length="0.046875" Pitch="58" RiffPosition="11" Velocity="76" />
      <note Length="0.046875" Pitch="58" RiffPosition="11.046875" Velocity="50" />
      <note Length="0.09375" Pitch="71" RiffPosition="11.09375" Velocity="73" />
      <note Length="0.015625" Pitch="75" RiffPosition="11.1875" Velocity="84" />
      <note Length="0.015625" Pitch="70" RiffPosition="11.203125" Velocity="100" />
      <note Length="0.015625" Pitch="70" RiffPosition="11.21875" Velocity="82" />
      <note Length="0.015625" Pitch="74" RiffPosition="11.234375" Velocity="55" />
      <note Length="0.046875" Pitch="58" RiffPosition="11.25" Velocity="36" />
      <note Length="0.046875" Pitch="58" RiffPosition="11.296875" Velocity="46" />
      <note Length="0.09375" Pitch="71" RiffPosition="11.34375" Velocity="40" />
      <note Length="0.015625" Pitch="75" RiffPosition="11.4375" Velocity="32" />
      <note Length="0.015625" Pitch="70" RiffPosition="11.453125" Velocity="56" />
      <note Length="0.015625" Pitch="70" RiffPosition="11.46875" Velocity="52" />
      <note Length="0.015625" Pitch="75" RiffPosition="11.484375" Velocity="30" />
      <note Length="0.046875" Pitch="58" RiffPosition="11.5" Velocity="55" />
      <note Length="0.046875" Pitch="58" RiffPosition="11.546875" Velocity="31" />
      <note Length="0.09375" Pitch="71" RiffPosition="11.59375" Velocity="73" />
      <note Length="0.015625" Pitch="74" RiffPosition="11.6875" Velocity="63" />
      <note Length="0.015625" Pitch="70" RiffPosition="11.703125" Velocity="79" />
      <note Length="0.015625" Pitch="70" RiffPosition="11.71875" Velocity="82" />
      <note Length="0.015625" Pitch="74" RiffPosition="11.734375" Velocity="55" />
      <note Length="0.046875" Pitch="58" RiffPosition="11.75" Velocity="36" />
      <note Length="0.046875" Pitch="58" RiffPosition="11.796875" Velocity="35" />
      <note Length="0.09375" Pitch="71" RiffPosition="11.84375" Velocity="61" />
      <note Length="0.015625" Pitch="74" RiffPosition="11.9375" Velocity="32" />
      <note Length="0.015625" Pitch="70" RiffPosition="11.953125" Velocity="35" />
      <note Length="0.015625" Pitch="70" RiffPosition="11.96875" Velocity="31" />
      <note Length="0.015625" Pitch="74" RiffPosition="11.984375" Velocity="50" />
      <note Length="0.046875" Pitch="58" RiffPosition="12" Velocity="76" />
      <note Length="0.046875" Pitch="58" RiffPosition="12.046875" Velocity="50" />
      <note Length="0.09375" Pitch="71" RiffPosition="12.09375" Velocity="73" />
      <note Length="0.015625" Pitch="75" RiffPosition="12.1875" Velocity="84" />
      <note Length="0.015625" Pitch="70" RiffPosition="12.203125" Velocity="100" />
      <note Length="0.015625" Pitch="70" RiffPosition="12.21875" Velocity="82" />
      <note Length="0.015625" Pitch="74" RiffPosition="12.234375" Velocity="55" />
      <note Length="0.046875" Pitch="58" RiffPosition="12.25" Velocity="36" />
      <note Length="0.046875" Pitch="58" RiffPosition="12.296875" Velocity="46" />
      <note Length="0.09375" Pitch="71" RiffPosition="12.34375" Velocity="40" />
      <note Length="0.015625" Pitch="75" RiffPosition="12.4375" Velocity="32" />
      <note Length="0.015625" Pitch="70" RiffPosition="12.453125" Velocity="56" />
      <note Length="0.015625" Pitch="70" RiffPosition="12.46875" Velocity="52" />
      <note Length="0.015625" Pitch="75" RiffPosition="12.484375" Velocity="30" />
      <note Length="0.046875" Pitch="58" RiffPosition="12.5" Velocity="55" />
      <note Length="0.046875" Pitch="58" RiffPosition="12.546875" Velocity="31" />
      <note Length="0.09375" Pitch="71" RiffPosition="12.59375" Velocity="73" />
      <note Length="0.015625" Pitch="74" RiffPosition="12.6875" Velocity="63" />
      <note Length="0.015625" Pitch="70" RiffPosition="12.703125" Velocity="79" />
      <note Length="0.015625" Pitch="70" RiffPosition="12.71875" Velocity="82" />
      <note Length="0.015625" Pitch="74" RiffPosition="12.734375" Velocity="55" />
      <note Length="0.046875" Pitch="58" RiffPosition="12.75" Velocity="36" />
      <note Length="0.046875" Pitch="58" RiffPosition="12.796875" Velocity="35" />
      <note Length="0.09375" Pitch="71" RiffPosition="12.84375" Velocity="61" />
      <note Length="0.015625" Pitch="74" RiffPosition="12.9375" Velocity="32" />
      <note Length="0.015625" Pitch="70" RiffPosition="12.953125" Velocity="35" />
      <note Length="0.015625" Pitch="70" RiffPosition="12.96875" Velocity="31" />
      <note Length="0.015625" Pitch="74" RiffPosition="12.984375" Velocity="50" />
    </riff>
    <riff IsDrum="False" MidiInstrument="25" Tempo="141" Length="13">
      <note Length="0.046875" Pitch="49" RiffPosition="0" Velocity="39" />
      <note Length="0.046875" Pitch="57" RiffPosition="0.046875" Velocity="78" />
      <note Length="0.0234375" Pitch="66" RiffPosition="0.09375" Velocity="99" />
      <note Length="0.0078125" Pitch="62" RiffPosition="0.1171875" Velocity="121" />
      <note Length="0.0625" Pitch="62" RiffPosition="0.125" Velocity="115" />
      <note Length="0.015625" Pitch="49" RiffPosition="0.1875" Velocity="69" />
      <note Length="0.046875" Pitch="49" RiffPosition="0.203125" Velocity="46" />
      <note Length="0.046875" Pitch="66" RiffPosition="0.25" Velocity="57" />
      <note Length="0.046875" Pitch="68" RiffPosition="0.296875" Velocity="67" />
      <note Length="0.03125" Pitch="62" RiffPosition="0.34375" Velocity="78" />
      <note Length="0.0625" Pitch="66" RiffPosition="0.375" Velocity="68" />
      <note Length="0.015625" Pitch="57" RiffPosition="0.4375" Velocity="45" />
      <note Length="0.046875" Pitch="57" RiffPosition="0.453125" Velocity="64" />
      <note Length="0.046875" Pitch="53" RiffPosition="0.5" Velocity="40" />
      <note Length="0.046875" Pitch="37" RiffPosition="0.546875" Velocity="60" />
      <note Length="0.0234375" Pitch="49" RiffPosition="0.59375" Velocity="81" />
      <note Length="0.0078125" Pitch="61" RiffPosition="0.6171875" Velocity="84" />
      <note Length="0.0625" Pitch="61" RiffPosition="0.625" Velocity="78" />
      <note Length="0.015625" Pitch="61" RiffPosition="0.6875" Velocity="51" />
      <note Length="0.046875" Pitch="61" RiffPosition="0.703125" Velocity="32" />
      <note Length="0.046875" Pitch="73" RiffPosition="0.75" Velocity="76" />
      <note Length="0.046875" Pitch="62" RiffPosition="0.796875" Velocity="67" />
      <note Length="0.03125" Pitch="53" RiffPosition="0.84375" Velocity="60" />
      <note Length="0.0625" Pitch="49" RiffPosition="0.875" Velocity="50" />
      <note Length="0.015625" Pitch="53" RiffPosition="0.9375" Velocity="33" />
      <note Length="0.046875" Pitch="53" RiffPosition="0.953125" Velocity="33" />
      <note Length="0.046875" Pitch="56" RiffPosition="1" Velocity="39" />
      <note Length="0.046875" Pitch="61" RiffPosition="1.046875" Velocity="78" />
      <note Length="0.0234375" Pitch="64" RiffPosition="1.09375" Velocity="99" />
      <note Length="0.0078125" Pitch="60" RiffPosition="1.1171875" Velocity="84" />
      <note Length="0.0625" Pitch="61" RiffPosition="1.125" Velocity="78" />
      <note Length="0.015625" Pitch="61" RiffPosition="1.1875" Velocity="32" />
      <note Length="0.046875" Pitch="61" RiffPosition="1.203125" Velocity="51" />
      <note Length="0.046875" Pitch="64" RiffPosition="1.25" Velocity="94" />
      <note Length="0.046875" Pitch="65" RiffPosition="1.296875" Velocity="104" />
      <note Length="0.03125" Pitch="67" RiffPosition="1.34375" Velocity="78" />
      <note Length="0.0625" Pitch="60" RiffPosition="1.375" Velocity="68" />
      <note Length="0.015625" Pitch="55" RiffPosition="1.4375" Velocity="45" />
      <note Length="0.046875" Pitch="55" RiffPosition="1.453125" Velocity="33" />
      <note Length="0.046875" Pitch="36" RiffPosition="1.5" Velocity="57" />
      <note Length="0.046875" Pitch="49" RiffPosition="1.546875" Velocity="96" />
      <note Length="0.0234375" Pitch="55" RiffPosition="1.59375" Velocity="118" />
      <note Length="0.0078125" Pitch="48" RiffPosition="1.6171875" Velocity="121" />
      <note Length="0.0625" Pitch="48" RiffPosition="1.625" Velocity="115" />
      <note Length="0.015625" Pitch="73" RiffPosition="1.6875" Velocity="51" />
      <note Length="0.046875" Pitch="72" RiffPosition="1.703125" Velocity="32" />
      <note Length="0.046875" Pitch="60" RiffPosition="1.75" Velocity="76" />
      <note Length="0.046875" Pitch="61" RiffPosition="1.796875" Velocity="104" />
      <note Length="0.03125" Pitch="48" RiffPosition="1.84375" Velocity="97" />
      <note Length="0.0625" Pitch="55" RiffPosition="1.875" Velocity="86" />
      <note Length="0.015625" Pitch="49" RiffPosition="1.9375" Velocity="64" />
      <note Length="0.046875" Pitch="52" RiffPosition="1.953125" Velocity="64" />
      <note Length="0.046875" Pitch="61" RiffPosition="2" Velocity="0" />
      <note Length="0.046875" Pitch="60" RiffPosition="2.046875" Velocity="0" />
      <note Length="0.0234375" Pitch="61" RiffPosition="2.09375" Velocity="0" />
      <note Length="0.0078125" Pitch="61" RiffPosition="2.1171875" Velocity="0" />
      <note Length="0.0625" Pitch="48" RiffPosition="2.125" Velocity="0" />
      <note Length="0.015625" Pitch="48" RiffPosition="2.1875" Velocity="0" />
      <note Length="0.046875" Pitch="61" RiffPosition="2.203125" Velocity="0" />
      <note Length="0.046875" Pitch="61" RiffPosition="2.25" Velocity="0" />
      <note Length="0.046875" Pitch="61" RiffPosition="2.296875" Velocity="0" />
      <note Length="0.03125" Pitch="65" RiffPosition="2.34375" Velocity="0" />
      <note Length="0.0625" Pitch="67" RiffPosition="2.375" Velocity="0" />
      <note Length="0.015625" Pitch="55" RiffPosition="2.4375" Velocity="0" />
      <note Length="0.046875" Pitch="52" RiffPosition="2.453125" Velocity="0" />
      <note Length="0.046875" Pitch="52" RiffPosition="2.5" Velocity="0" />
      <note Length="0.046875" Pitch="36" RiffPosition="2.546875" Velocity="0" />
      <note Length="0.0234375" Pitch="53" RiffPosition="2.59375" Velocity="0" />
      <note Length="0.0078125" Pitch="61" RiffPosition="2.6171875" Velocity="0" />
      <note Length="0.0625" Pitch="61" RiffPosition="2.625" Velocity="0" />
      <note Length="0.015625" Pitch="60" RiffPosition="2.6875" Velocity="0" />
      <note Length="0.046875" Pitch="60" RiffPosition="2.703125" Velocity="0" />
      <note Length="0.046875" Pitch="60" RiffPosition="2.75" Velocity="0" />
      <note Length="0.046875" Pitch="60" RiffPosition="2.796875" Velocity="0" />
      <note Length="0.03125" Pitch="48" RiffPosition="2.84375" Velocity="0" />
      <note Length="0.0625" Pitch="56" RiffPosition="2.875" Velocity="0" />
      <note Length="0.015625" Pitch="53" RiffPosition="2.9375" Velocity="0" />
      <note Length="0.046875" Pitch="48" RiffPosition="2.953125" Velocity="0" />
      <note Length="0.046875" Pitch="59" RiffPosition="3" Velocity="0" />
      <note Length="0.046875" Pitch="47" RiffPosition="3.046875" Velocity="0" />
      <note Length="0.0234375" Pitch="64" RiffPosition="3.09375" Velocity="0" />
      <note Length="0.0078125" Pitch="64" RiffPosition="3.1171875" Velocity="0" />
      <note Length="0.0625" Pitch="60" RiffPosition="3.125" Velocity="0" />
      <note Length="0.015625" Pitch="47" RiffPosition="3.1875" Velocity="0" />
      <note Length="0.046875" Pitch="47" RiffPosition="3.203125" Velocity="0" />
      <note Length="0.046875" Pitch="47" RiffPosition="3.25" Velocity="0" />
      <note Length="0.046875" Pitch="64" RiffPosition="3.296875" Velocity="0" />
      <note Length="0.03125" Pitch="60" RiffPosition="3.34375" Velocity="0" />
      <note Length="0.0625" Pitch="64" RiffPosition="3.375" Velocity="0" />
      <note Length="0.015625" Pitch="47" RiffPosition="3.4375" Velocity="0" />
      <note Length="0.046875" Pitch="55" RiffPosition="3.453125" Velocity="0" />
      <note Length="0.046875" Pitch="51" RiffPosition="3.5" Velocity="0" />
      <note Length="0.046875" Pitch="43" RiffPosition="3.546875" Velocity="0" />
      <note Length="0.0234375" Pitch="47" RiffPosition="3.59375" Velocity="0" />
      <note Length="0.0078125" Pitch="59" RiffPosition="3.6171875" Velocity="0" />
      <note Length="0.0625" Pitch="59" RiffPosition="3.625" Velocity="0" />
      <note Length="0.015625" Pitch="59" RiffPosition="3.6875" Velocity="0" />
      <note Length="0.046875" Pitch="59" RiffPosition="3.703125" Velocity="0" />
      <note Length="0.046875" Pitch="72" RiffPosition="3.75" Velocity="0" />
      <note Length="0.046875" Pitch="64" RiffPosition="3.796875" Velocity="0" />
      <note Length="0.03125" Pitch="54" RiffPosition="3.84375" Velocity="0" />
      <note Length="0.0625" Pitch="54" RiffPosition="3.875" Velocity="0" />
      <note Length="0.015625" Pitch="51" RiffPosition="3.9375" Velocity="0" />
      <note Length="0.046875" Pitch="54" RiffPosition="3.953125" Velocity="0" />
      <note Length="0.046875" Pitch="58" RiffPosition="4" Velocity="39" />
      <note Length="0.046875" Pitch="58" RiffPosition="4.046875" Velocity="78" />
      <note Length="0.0234375" Pitch="74" RiffPosition="4.09375" Velocity="99" />
      <note Length="0.0078125" Pitch="71" RiffPosition="4.1171875" Velocity="121" />
      <note Length="0.0625" Pitch="71" RiffPosition="4.125" Velocity="115" />
      <note Length="0.015625" Pitch="58" RiffPosition="4.1875" Velocity="69" />
      <note Length="0.046875" Pitch="58" RiffPosition="4.203125" Velocity="46" />
      <note Length="0.046875" Pitch="71" RiffPosition="4.25" Velocity="57" />
      <note Length="0.046875" Pitch="74" RiffPosition="4.296875" Velocity="67" />
      <note Length="0.03125" Pitch="71" RiffPosition="4.34375" Velocity="78" />
      <note Length="0.0625" Pitch="70" RiffPosition="4.375" Velocity="68" />
      <note Length="0.015625" Pitch="58" RiffPosition="4.4375" Velocity="45" />
      <note Length="0.046875" Pitch="65" RiffPosition="4.453125" Velocity="64" />
      <note Length="0.046875" Pitch="46" RiffPosition="4.5" Velocity="40" />
      <note Length="0.046875" Pitch="62" RiffPosition="4.546875" Velocity="60" />
      <note Length="0.0234375" Pitch="58" RiffPosition="4.59375" Velocity="81" />
      <note Length="0.0078125" Pitch="58" RiffPosition="4.6171875" Velocity="84" />
      <note Length="0.0625" Pitch="71" RiffPosition="4.625" Velocity="78" />
      <note Length="0.015625" Pitch="83" RiffPosition="4.6875" Velocity="51" />
      <note Length="0.046875" Pitch="82" RiffPosition="4.703125" Velocity="32" />
      <note Length="0.046875" Pitch="83" RiffPosition="4.75" Velocity="76" />
      <note Length="0.046875" Pitch="74" RiffPosition="4.796875" Velocity="67" />
      <note Length="0.03125" Pitch="62" RiffPosition="4.84375" Velocity="60" />
      <note Length="0.0625" Pitch="58" RiffPosition="4.875" Velocity="50" />
      <note Length="0.015625" Pitch="59" RiffPosition="4.9375" Velocity="33" />
      <note Length="0.046875" Pitch="62" RiffPosition="4.953125" Velocity="33" />
      <note Length="0.046875" Pitch="58" RiffPosition="5" Velocity="39" />
      <note Length="0.046875" Pitch="70" RiffPosition="5.046875" Velocity="78" />
      <note Length="0.0234375" Pitch="71" RiffPosition="5.09375" Velocity="99" />
      <note Length="0.0078125" Pitch="71" RiffPosition="5.1171875" Velocity="84" />
      <note Length="0.0625" Pitch="58" RiffPosition="5.125" Velocity="78" />
      <note Length="0.015625" Pitch="71" RiffPosition="5.1875" Velocity="32" />
      <note Length="0.046875" Pitch="70" RiffPosition="5.203125" Velocity="51" />
      <note Length="0.046875" Pitch="71" RiffPosition="5.25" Velocity="94" />
      <note Length="0.046875" Pitch="71" RiffPosition="5.296875" Velocity="104" />
      <note Length="0.03125" Pitch="70" RiffPosition="5.34375" Velocity="78" />
      <note Length="0.0625" Pitch="77" RiffPosition="5.375" Velocity="68" />
      <note Length="0.015625" Pitch="65" RiffPosition="5.4375" Velocity="45" />
      <note Length="0.046875" Pitch="62" RiffPosition="5.453125" Velocity="33" />
      <note Length="0.046875" Pitch="65" RiffPosition="5.5" Velocity="57" />
      <note Length="0.046875" Pitch="59" RiffPosition="5.546875" Velocity="96" />
      <note Length="0.0234375" Pitch="66" RiffPosition="5.59375" Velocity="118" />
      <note Length="0.0078125" Pitch="58" RiffPosition="5.6171875" Velocity="121" />
      <note Length="0.0625" Pitch="58" RiffPosition="5.625" Velocity="115" />
      <note Length="0.015625" Pitch="70" RiffPosition="5.6875" Velocity="51" />
      <note Length="0.046875" Pitch="83" RiffPosition="5.703125" Velocity="32" />
      <note Length="0.046875" Pitch="70" RiffPosition="5.75" Velocity="76" />
      <note Length="0.046875" Pitch="71" RiffPosition="5.796875" Velocity="104" />
      <note Length="0.03125" Pitch="66" RiffPosition="5.84375" Velocity="97" />
      <note Length="0.0625" Pitch="66" RiffPosition="5.875" Velocity="86" />
      <note Length="0.015625" Pitch="62" RiffPosition="5.9375" Velocity="64" />
      <note Length="0.046875" Pitch="62" RiffPosition="5.953125" Velocity="64" />
      <note Length="0.046875" Pitch="62" RiffPosition="6" Velocity="0" />
      <note Length="0.046875" Pitch="50" RiffPosition="6.046875" Velocity="0" />
      <note Length="0.0234375" Pitch="62" RiffPosition="6.09375" Velocity="0" />
      <note Length="0.0078125" Pitch="50" RiffPosition="6.1171875" Velocity="0" />
      <note Length="0.0625" Pitch="63" RiffPosition="6.125" Velocity="0" />
      <note Length="0.015625" Pitch="62" RiffPosition="6.1875" Velocity="0" />
      <note Length="0.046875" Pitch="50" RiffPosition="6.203125" Velocity="0" />
      <note Length="0.046875" Pitch="50" RiffPosition="6.25" Velocity="0" />
      <note Length="0.046875" Pitch="62" RiffPosition="6.296875" Velocity="0" />
      <note Length="0.03125" Pitch="67" RiffPosition="6.34375" Velocity="0" />
      <note Length="0.0625" Pitch="69" RiffPosition="6.375" Velocity="0" />
      <note Length="0.015625" Pitch="50" RiffPosition="6.4375" Velocity="0" />
      <note Length="0.046875" Pitch="57" RiffPosition="6.453125" Velocity="0" />
      <note Length="0.046875" Pitch="55" RiffPosition="6.5" Velocity="0" />
      <note Length="0.046875" Pitch="38" RiffPosition="6.546875" Velocity="0" />
      <note Length="0.0234375" Pitch="57" RiffPosition="6.59375" Velocity="0" />
      <note Length="0.0078125" Pitch="63" RiffPosition="6.6171875" Velocity="0" />
      <note Length="0.0625" Pitch="63" RiffPosition="6.625" Velocity="0" />
      <note Length="0.015625" Pitch="62" RiffPosition="6.6875" Velocity="0" />
      <note Length="0.046875" Pitch="62" RiffPosition="6.703125" Velocity="0" />
      <note Length="0.046875" Pitch="62" RiffPosition="6.75" Velocity="0" />
      <note Length="0.046875" Pitch="67" RiffPosition="6.796875" Velocity="0" />
      <note Length="0.03125" Pitch="57" RiffPosition="6.84375" Velocity="0" />
      <note Length="0.0625" Pitch="57" RiffPosition="6.875" Velocity="0" />
      <note Length="0.015625" Pitch="57" RiffPosition="6.9375" Velocity="0" />
      <note Length="0.046875" Pitch="57" RiffPosition="6.953125" Velocity="0" />
      <note Length="0.046875" Pitch="49" RiffPosition="7" Velocity="39" />
      <note Length="0.046875" Pitch="49" RiffPosition="7.046875" Velocity="78" />
      <note Length="0.0234375" Pitch="68" RiffPosition="7.09375" Velocity="99" />
      <note Length="0.0078125" Pitch="62" RiffPosition="7.1171875" Velocity="84" />
      <note Length="0.0625" Pitch="62" RiffPosition="7.125" Velocity="78" />
      <note Length="0.015625" Pitch="49" RiffPosition="7.1875" Velocity="32" />
      <note Length="0.046875" Pitch="49" RiffPosition="7.203125" Velocity="51" />
      <note Length="0.046875" Pitch="66" RiffPosition="7.25" Velocity="94" />
      <note Length="0.046875" Pitch="68" RiffPosition="7.296875" Velocity="104" />
      <note Length="0.03125" Pitch="65" RiffPosition="7.34375" Velocity="78" />
      <note Length="0.0625" Pitch="66" RiffPosition="7.375" Velocity="68" />
      <note Length="0.015625" Pitch="57" RiffPosition="7.4375" Velocity="45" />
      <note Length="0.046875" Pitch="57" RiffPosition="7.453125" Velocity="33" />
      <note Length="0.046875" Pitch="53" RiffPosition="7.5" Velocity="57" />
      <note Length="0.046875" Pitch="37" RiffPosition="7.546875" Velocity="96" />
      <note Length="0.0234375" Pitch="49" RiffPosition="7.59375" Velocity="118" />
      <note Length="0.0078125" Pitch="61" RiffPosition="7.6171875" Velocity="121" />
      <note Length="0.0625" Pitch="62" RiffPosition="7.625" Velocity="115" />
      <note Length="0.015625" Pitch="61" RiffPosition="7.6875" Velocity="51" />
      <note Length="0.046875" Pitch="61" RiffPosition="7.703125" Velocity="32" />
      <note Length="0.046875" Pitch="74" RiffPosition="7.75" Velocity="76" />
      <note Length="0.046875" Pitch="65" RiffPosition="7.796875" Velocity="104" />
      <note Length="0.03125" Pitch="53" RiffPosition="7.84375" Velocity="97" />
      <note Length="0.0625" Pitch="49" RiffPosition="7.875" Velocity="86" />
      <note Length="0.015625" Pitch="53" RiffPosition="7.9375" Velocity="64" />
      <note Length="0.046875" Pitch="53" RiffPosition="7.953125" Velocity="64" />
      <note Length="0.046875" Pitch="48" RiffPosition="8" Velocity="39" />
      <note Length="0.046875" Pitch="61" RiffPosition="8.046875" Velocity="78" />
      <note Length="0.0234375" Pitch="64" RiffPosition="8.09375" Velocity="99" />
      <note Length="0.0078125" Pitch="60" RiffPosition="8.1171875" Velocity="121" />
      <note Length="0.0625" Pitch="48" RiffPosition="8.125" Velocity="115" />
      <note Length="0.015625" Pitch="61" RiffPosition="8.1875" Velocity="69" />
      <note Length="0.046875" Pitch="60" RiffPosition="8.203125" Velocity="46" />
      <note Length="0.046875" Pitch="64" RiffPosition="8.25" Velocity="57" />
      <note Length="0.046875" Pitch="65" RiffPosition="8.296875" Velocity="67" />
      <note Length="0.03125" Pitch="61" RiffPosition="8.34375" Velocity="78" />
      <note Length="0.0625" Pitch="60" RiffPosition="8.375" Velocity="68" />
      <note Length="0.015625" Pitch="55" RiffPosition="8.4375" Velocity="45" />
      <note Length="0.046875" Pitch="55" RiffPosition="8.453125" Velocity="64" />
      <note Length="0.046875" Pitch="49" RiffPosition="8.5" Velocity="40" />
      <note Length="0.046875" Pitch="49" RiffPosition="8.546875" Velocity="60" />
      <note Length="0.0234375" Pitch="56" RiffPosition="8.59375" Velocity="81" />
      <note Length="0.0078125" Pitch="48" RiffPosition="8.6171875" Velocity="84" />
      <note Length="0.0625" Pitch="48" RiffPosition="8.625" Velocity="78" />
      <note Length="0.015625" Pitch="73" RiffPosition="8.6875" Velocity="51" />
      <note Length="0.046875" Pitch="72" RiffPosition="8.703125" Velocity="32" />
      <note Length="0.046875" Pitch="60" RiffPosition="8.75" Velocity="76" />
      <note Length="0.046875" Pitch="61" RiffPosition="8.796875" Velocity="67" />
      <note Length="0.03125" Pitch="48" RiffPosition="8.84375" Velocity="60" />
      <note Length="0.0625" Pitch="56" RiffPosition="8.875" Velocity="50" />
      <note Length="0.015625" Pitch="52" RiffPosition="8.9375" Velocity="33" />
      <note Length="0.046875" Pitch="52" RiffPosition="8.953125" Velocity="33" />
      <note Length="0.046875" Pitch="48" RiffPosition="9" Velocity="39" />
      <note Length="0.046875" Pitch="61" RiffPosition="9.046875" Velocity="78" />
      <note Length="0.0234375" Pitch="61" RiffPosition="9.09375" Velocity="99" />
      <note Length="0.0078125" Pitch="48" RiffPosition="9.1171875" Velocity="84" />
      <note Length="0.0625" Pitch="60" RiffPosition="9.125" Velocity="78" />
      <note Length="0.015625" Pitch="60" RiffPosition="9.1875" Velocity="32" />
      <note Length="0.046875" Pitch="61" RiffPosition="9.203125" Velocity="51" />
      <note Length="0.046875" Pitch="61" RiffPosition="9.25" Velocity="94" />
      <note Length="0.046875" Pitch="61" RiffPosition="9.296875" Velocity="104" />
      <note Length="0.03125" Pitch="65" RiffPosition="9.34375" Velocity="78" />
      <note Length="0.0625" Pitch="67" RiffPosition="9.375" Velocity="68" />
      <note Length="0.015625" Pitch="52" RiffPosition="9.4375" Velocity="45" />
      <note Length="0.046875" Pitch="52" RiffPosition="9.453125" Velocity="33" />
      <note Length="0.046875" Pitch="53" RiffPosition="9.5" Velocity="57" />
      <note Length="0.046875" Pitch="36" RiffPosition="9.546875" Velocity="96" />
      <note Length="0.0234375" Pitch="53" RiffPosition="9.59375" Velocity="118" />
      <note Length="0.0078125" Pitch="48" RiffPosition="9.6171875" Velocity="121" />
      <note Length="0.0625" Pitch="61" RiffPosition="9.625" Velocity="115" />
      <note Length="0.015625" Pitch="60" RiffPosition="9.6875" Velocity="51" />
      <note Length="0.046875" Pitch="60" RiffPosition="9.703125" Velocity="32" />
      <note Length="0.046875" Pitch="60" RiffPosition="9.75" Velocity="76" />
      <note Length="0.046875" Pitch="60" RiffPosition="9.796875" Velocity="104" />
      <note Length="0.03125" Pitch="48" RiffPosition="9.84375" Velocity="97" />
      <note Length="0.0625" Pitch="53" RiffPosition="9.875" Velocity="86" />
      <note Length="0.015625" Pitch="53" RiffPosition="9.9375" Velocity="64" />
      <note Length="0.046875" Pitch="55" RiffPosition="9.953125" Velocity="64" />
      <note Length="0.046875" Pitch="59" RiffPosition="10" Velocity="39" />
      <note Length="0.046875" Pitch="47" RiffPosition="10.046875" Velocity="78" />
      <note Length="0.0234375" Pitch="59" RiffPosition="10.09375" Velocity="99" />
      <note Length="0.0078125" Pitch="64" RiffPosition="10.1171875" Velocity="121" />
      <note Length="0.0625" Pitch="63" RiffPosition="10.125" Velocity="115" />
      <note Length="0.015625" Pitch="47" RiffPosition="10.1875" Velocity="69" />
      <note Length="0.046875" Pitch="47" RiffPosition="10.203125" Velocity="46" />
      <note Length="0.046875" Pitch="59" RiffPosition="10.25" Velocity="57" />
      <note Length="0.046875" Pitch="66" RiffPosition="10.296875" Velocity="67" />
      <note Length="0.03125" Pitch="60" RiffPosition="10.34375" Velocity="78" />
      <note Length="0.0625" Pitch="64" RiffPosition="10.375" Velocity="68" />
      <note Length="0.015625" Pitch="47" RiffPosition="10.4375" Velocity="45" />
      <note Length="0.046875" Pitch="55" RiffPosition="10.453125" Velocity="64" />
      <note Length="0.046875" Pitch="51" RiffPosition="10.5" Velocity="40" />
      <note Length="0.046875" Pitch="35" RiffPosition="10.546875" Velocity="60" />
      <note Length="0.0234375" Pitch="47" RiffPosition="10.59375" Velocity="81" />
      <note Length="0.0078125" Pitch="59" RiffPosition="10.6171875" Velocity="84" />
      <note Length="0.0625" Pitch="59" RiffPosition="10.625" Velocity="78" />
      <note Length="0.015625" Pitch="59" RiffPosition="10.6875" Velocity="51" />
      <note Length="0.046875" Pitch="59" RiffPosition="10.703125" Velocity="32" />
      <note Length="0.046875" Pitch="71" RiffPosition="10.75" Velocity="76" />
      <note Length="0.046875" Pitch="66" RiffPosition="10.796875" Velocity="67" />
      <note Length="0.03125" Pitch="54" RiffPosition="10.84375" Velocity="60" />
      <note Length="0.0625" Pitch="54" RiffPosition="10.875" Velocity="50" />
      <note Length="0.015625" Pitch="51" RiffPosition="10.9375" Velocity="33" />
      <note Length="0.046875" Pitch="54" RiffPosition="10.953125" Velocity="33" />
      <note Length="0.046875" Pitch="58" RiffPosition="11" Velocity="0" />
      <note Length="0.046875" Pitch="58" RiffPosition="11.046875" Velocity="0" />
      <note Length="0.0234375" Pitch="74" RiffPosition="11.09375" Velocity="0" />
      <note Length="0.0078125" Pitch="71" RiffPosition="11.1171875" Velocity="0" />
      <note Length="0.0625" Pitch="71" RiffPosition="11.125" Velocity="0" />
      <note Length="0.015625" Pitch="66" RiffPosition="11.1875" Velocity="0" />
      <note Length="0.046875" Pitch="58" RiffPosition="11.203125" Velocity="0" />
      <note Length="0.046875" Pitch="74" RiffPosition="11.25" Velocity="0" />
      <note Length="0.046875" Pitch="75" RiffPosition="11.296875" Velocity="0" />
      <note Length="0.03125" Pitch="71" RiffPosition="11.34375" Velocity="0" />
      <note Length="0.0625" Pitch="70" RiffPosition="11.375" Velocity="0" />
      <note Length="0.015625" Pitch="58" RiffPosition="11.4375" Velocity="0" />
      <note Length="0.046875" Pitch="65" RiffPosition="11.453125" Velocity="0" />
      <note Length="0.046875" Pitch="46" RiffPosition="11.5" Velocity="0" />
      <note Length="0.046875" Pitch="59" RiffPosition="11.546875" Velocity="0" />
      <note Length="0.0234375" Pitch="58" RiffPosition="11.59375" Velocity="0" />
      <note Length="0.0078125" Pitch="58" RiffPosition="11.6171875" Velocity="0" />
      <note Length="0.0625" Pitch="58" RiffPosition="11.625" Velocity="0" />
      <note Length="0.015625" Pitch="77" RiffPosition="11.6875" Velocity="0" />
      <note Length="0.046875" Pitch="82" RiffPosition="11.703125" Velocity="0" />
      <note Length="0.046875" Pitch="83" RiffPosition="11.75" Velocity="0" />
      <note Length="0.046875" Pitch="74" RiffPosition="11.796875" Velocity="0" />
      <note Length="0.03125" Pitch="63" RiffPosition="11.84375" Velocity="0" />
      <note Length="0.0625" Pitch="58" RiffPosition="11.875" Velocity="0" />
      <note Length="0.015625" Pitch="59" RiffPosition="11.9375" Velocity="0" />
      <note Length="0.046875" Pitch="63" RiffPosition="11.953125" Velocity="0" />
      <note Length="0.046875" Pitch="58" RiffPosition="12" Velocity="0" />
      <note Length="0.046875" Pitch="70" RiffPosition="12.046875" Velocity="0" />
      <note Length="0.0234375" Pitch="71" RiffPosition="12.09375" Velocity="0" />
      <note Length="0.0078125" Pitch="71" RiffPosition="12.1171875" Velocity="0" />
      <note Length="0.0625" Pitch="58" RiffPosition="12.125" Velocity="0" />
      <note Length="0.015625" Pitch="71" RiffPosition="12.1875" Velocity="0" />
      <note Length="0.046875" Pitch="71" RiffPosition="12.203125" Velocity="0" />
      <note Length="0.046875" Pitch="71" RiffPosition="12.25" Velocity="0" />
      <note Length="0.046875" Pitch="71" RiffPosition="12.296875" Velocity="0" />
      <note Length="0.03125" Pitch="70" RiffPosition="12.34375" Velocity="0" />
      <note Length="0.0625" Pitch="77" RiffPosition="12.375" Velocity="0" />
      <note Length="0.015625" Pitch="65" RiffPosition="12.4375" Velocity="0" />
      <note Length="0.046875" Pitch="62" RiffPosition="12.453125" Velocity="0" />
      <note Length="0.046875" Pitch="62" RiffPosition="12.5" Velocity="0" />
      <note Length="0.046875" Pitch="59" RiffPosition="12.546875" Velocity="0" />
      <note Length="0.0234375" Pitch="66" RiffPosition="12.59375" Velocity="0" />
      <note Length="0.0078125" Pitch="58" RiffPosition="12.6171875" Velocity="0" />
      <note Length="0.0625" Pitch="58" RiffPosition="12.625" Velocity="0" />
      <note Length="0.015625" Pitch="70" RiffPosition="12.6875" Velocity="0" />
      <note Length="0.046875" Pitch="83" RiffPosition="12.703125" Velocity="0" />
      <note Length="0.046875" Pitch="70" RiffPosition="12.75" Velocity="0" />
      <note Length="0.046875" Pitch="71" RiffPosition="12.796875" Velocity="0" />
      <note Length="0.03125" Pitch="58" RiffPosition="12.84375" Velocity="0" />
      <note Length="0.0625" Pitch="66" RiffPosition="12.875" Velocity="0" />
      <note Length="0.015625" Pitch="46" RiffPosition="12.9375" Velocity="0" />
      <note Length="0.046875" Pitch="62" RiffPosition="12.953125" Velocity="0" />
    </riff>
    <riff IsDrum="False" MidiInstrument="25" Tempo="80" Length="13">
      <note Length="0.015625" Pitch="61" RiffPosition="0" Velocity="31" />
      <note Length="0.015625" Pitch="62" RiffPosition="0.015625" Velocity="69" />
      <note Length="0.015625" Pitch="49" RiffPosition="0.03125" Velocity="75" />
      <note Length="0.015625" Pitch="57" RiffPosition="0.046875" Velocity="84" />
      <note Length="0.046875" Pitch="53" RiffPosition="0.0625" Velocity="46" />
      <note Length="0.046875" Pitch="56" RiffPosition="0.109375" Velocity="126" />
      <note Length="0.09375" Pitch="57" RiffPosition="0.15625" Velocity="71" />
      <note Length="0.125" Pitch="62" RiffPosition="0.25" Velocity="55" />
      <note Length="0.125" Pitch="62" RiffPosition="0.375" Velocity="73" />
      <note Length="0.015625" Pitch="62" RiffPosition="0.5" Velocity="64" />
      <note Length="0.015625" Pitch="49" RiffPosition="0.515625" Velocity="33" />
      <note Length="0.015625" Pitch="54" RiffPosition="0.53125" Velocity="58" />
      <note Length="0.015625" Pitch="53" RiffPosition="0.546875" Velocity="76" />
      <note Length="0.046875" Pitch="37" RiffPosition="0.5625" Velocity="38" />
      <note Length="0.046875" Pitch="54" RiffPosition="0.609375" Velocity="93" />
      <note Length="0.09375" Pitch="49" RiffPosition="0.65625" Velocity="38" />
      <note Length="0.125" Pitch="61" RiffPosition="0.75" Velocity="47" />
      <note Length="0.125" Pitch="73" RiffPosition="0.875" Velocity="81" />
      <note Length="0.015625" Pitch="60" RiffPosition="1" Velocity="38" />
      <note Length="0.015625" Pitch="61" RiffPosition="1.015625" Velocity="44" />
      <note Length="0.015625" Pitch="48" RiffPosition="1.03125" Velocity="50" />
      <note Length="0.015625" Pitch="55" RiffPosition="1.046875" Velocity="58" />
      <note Length="0.046875" Pitch="52" RiffPosition="1.0625" Velocity="80" />
      <note Length="0.046875" Pitch="53" RiffPosition="1.109375" Velocity="100" />
      <note Length="0.09375" Pitch="55" RiffPosition="1.15625" Velocity="80" />
      <note Length="0.125" Pitch="61" RiffPosition="1.25" Velocity="46" />
      <note Length="0.125" Pitch="61" RiffPosition="1.375" Velocity="98" />
      <note Length="0.015625" Pitch="61" RiffPosition="1.5" Velocity="30" />
      <note Length="0.015625" Pitch="48" RiffPosition="1.515625" Velocity="52" />
      <note Length="0.015625" Pitch="55" RiffPosition="1.53125" Velocity="32" />
      <note Length="0.015625" Pitch="52" RiffPosition="1.546875" Velocity="100" />
      <note Length="0.046875" Pitch="36" RiffPosition="1.5625" Velocity="48" />
      <note Length="0.046875" Pitch="53" RiffPosition="1.609375" Velocity="68" />
      <note Length="0.09375" Pitch="56" RiffPosition="1.65625" Velocity="63" />
      <note Length="0.125" Pitch="67" RiffPosition="1.75" Velocity="38" />
      <note Length="0.125" Pitch="60" RiffPosition="1.875" Velocity="72" />
      <note Length="0.015625" Pitch="60" RiffPosition="2" Velocity="0" />
      <note Length="0.015625" Pitch="61" RiffPosition="2.015625" Velocity="0" />
      <note Length="0.015625" Pitch="48" RiffPosition="2.03125" Velocity="0" />
      <note Length="0.015625" Pitch="56" RiffPosition="2.046875" Velocity="0" />
      <note Length="0.046875" Pitch="52" RiffPosition="2.0625" Velocity="0" />
      <note Length="0.046875" Pitch="55" RiffPosition="2.109375" Velocity="0" />
      <note Length="0.09375" Pitch="56" RiffPosition="2.15625" Velocity="0" />
      <note Length="0.125" Pitch="61" RiffPosition="2.25" Velocity="0" />
      <note Length="0.125" Pitch="61" RiffPosition="2.375" Velocity="0" />
      <note Length="0.015625" Pitch="61" RiffPosition="2.5" Velocity="0" />
      <note Length="0.015625" Pitch="48" RiffPosition="2.515625" Velocity="0" />
      <note Length="0.015625" Pitch="53" RiffPosition="2.53125" Velocity="0" />
      <note Length="0.015625" Pitch="52" RiffPosition="2.546875" Velocity="0" />
      <note Length="0.046875" Pitch="36" RiffPosition="2.5625" Velocity="0" />
      <note Length="0.046875" Pitch="53" RiffPosition="2.609375" Velocity="0" />
      <note Length="0.09375" Pitch="48" RiffPosition="2.65625" Velocity="0" />
      <note Length="0.125" Pitch="60" RiffPosition="2.75" Velocity="0" />
      <note Length="0.125" Pitch="72" RiffPosition="2.875" Velocity="0" />
      <note Length="0.015625" Pitch="59" RiffPosition="3" Velocity="0" />
      <note Length="0.015625" Pitch="60" RiffPosition="3.015625" Velocity="0" />
      <note Length="0.015625" Pitch="47" RiffPosition="3.03125" Velocity="0" />
      <note Length="0.015625" Pitch="54" RiffPosition="3.046875" Velocity="0" />
      <note Length="0.046875" Pitch="51" RiffPosition="3.0625" Velocity="0" />
      <note Length="0.046875" Pitch="52" RiffPosition="3.109375" Velocity="0" />
      <note Length="0.09375" Pitch="54" RiffPosition="3.15625" Velocity="0" />
      <note Length="0.125" Pitch="60" RiffPosition="3.25" Velocity="0" />
      <note Length="0.125" Pitch="60" RiffPosition="3.375" Velocity="0" />
      <note Length="0.015625" Pitch="60" RiffPosition="3.5" Velocity="0" />
      <note Length="0.015625" Pitch="47" RiffPosition="3.515625" Velocity="0" />
      <note Length="0.015625" Pitch="54" RiffPosition="3.53125" Velocity="0" />
      <note Length="0.015625" Pitch="51" RiffPosition="3.546875" Velocity="0" />
      <note Length="0.046875" Pitch="35" RiffPosition="3.5625" Velocity="0" />
      <note Length="0.046875" Pitch="52" RiffPosition="3.609375" Velocity="0" />
      <note Length="0.09375" Pitch="55" RiffPosition="3.65625" Velocity="0" />
      <note Length="0.125" Pitch="66" RiffPosition="3.75" Velocity="0" />
      <note Length="0.125" Pitch="59" RiffPosition="3.875" Velocity="0" />
      <note Length="0.015625" Pitch="70" RiffPosition="4" Velocity="63" />
      <note Length="0.015625" Pitch="71" RiffPosition="4.015625" Velocity="34" />
      <note Length="0.015625" Pitch="58" RiffPosition="4.03125" Velocity="59" />
      <note Length="0.015625" Pitch="66" RiffPosition="4.046875" Velocity="77" />
      <note Length="0.046875" Pitch="62" RiffPosition="4.0625" Velocity="39" />
      <note Length="0.046875" Pitch="65" RiffPosition="4.109375" Velocity="94" />
      <note Length="0.09375" Pitch="66" RiffPosition="4.15625" Velocity="39" />
      <note Length="0.125" Pitch="71" RiffPosition="4.25" Velocity="48" />
      <note Length="0.125" Pitch="71" RiffPosition="4.375" Velocity="80" />
      <note Length="0.015625" Pitch="71" RiffPosition="4.5" Velocity="39" />
      <note Length="0.015625" Pitch="58" RiffPosition="4.515625" Velocity="43" />
      <note Length="0.015625" Pitch="63" RiffPosition="4.53125" Velocity="51" />
      <note Length="0.015625" Pitch="62" RiffPosition="4.546875" Velocity="60" />
      <note Length="0.046875" Pitch="46" RiffPosition="4.5625" Velocity="46" />
      <note Length="0.046875" Pitch="63" RiffPosition="4.609375" Velocity="101" />
      <note Length="0.09375" Pitch="58" RiffPosition="4.65625" Velocity="81" />
      <note Length="0.125" Pitch="70" RiffPosition="4.75" Velocity="44" />
      <note Length="0.125" Pitch="82" RiffPosition="4.875" Velocity="97" />
      <note Length="0.015625" Pitch="70" RiffPosition="5" Velocity="31" />
      <note Length="0.015625" Pitch="71" RiffPosition="5.015625" Velocity="51" />
      <note Length="0.015625" Pitch="58" RiffPosition="5.03125" Velocity="33" />
      <note Length="0.015625" Pitch="65" RiffPosition="5.046875" Velocity="102" />
      <note Length="0.046875" Pitch="62" RiffPosition="5.0625" Velocity="49" />
      <note Length="0.046875" Pitch="63" RiffPosition="5.109375" Velocity="69" />
      <note Length="0.09375" Pitch="65" RiffPosition="5.15625" Velocity="64" />
      <note Length="0.125" Pitch="71" RiffPosition="5.25" Velocity="37" />
      <note Length="0.125" Pitch="71" RiffPosition="5.375" Velocity="71" />
      <note Length="0.015625" Pitch="71" RiffPosition="5.5" Velocity="46" />
      <note Length="0.015625" Pitch="58" RiffPosition="5.515625" Velocity="68" />
      <note Length="0.015625" Pitch="65" RiffPosition="5.53125" Velocity="60" />
      <note Length="0.015625" Pitch="62" RiffPosition="5.546875" Velocity="69" />
      <note Length="0.046875" Pitch="46" RiffPosition="5.5625" Velocity="56" />
      <note Length="0.046875" Pitch="63" RiffPosition="5.609375" Velocity="111" />
      <note Length="0.09375" Pitch="66" RiffPosition="5.65625" Velocity="56" />
      <note Length="0.125" Pitch="77" RiffPosition="5.75" Velocity="70" />
      <note Length="0.125" Pitch="70" RiffPosition="5.875" Velocity="88" />
      <note Length="0.015625" Pitch="62" RiffPosition="6" Velocity="0" />
      <note Length="0.015625" Pitch="63" RiffPosition="6.015625" Velocity="0" />
      <note Length="0.015625" Pitch="50" RiffPosition="6.03125" Velocity="0" />
      <note Length="0.015625" Pitch="58" RiffPosition="6.046875" Velocity="0" />
      <note Length="0.046875" Pitch="54" RiffPosition="6.0625" Velocity="0" />
      <note Length="0.046875" Pitch="57" RiffPosition="6.109375" Velocity="0" />
      <note Length="0.09375" Pitch="58" RiffPosition="6.15625" Velocity="0" />
      <note Length="0.125" Pitch="63" RiffPosition="6.25" Velocity="0" />
      <note Length="0.125" Pitch="63" RiffPosition="6.375" Velocity="0" />
      <note Length="0.015625" Pitch="63" RiffPosition="6.5" Velocity="0" />
      <note Length="0.015625" Pitch="50" RiffPosition="6.515625" Velocity="0" />
      <note Length="0.015625" Pitch="55" RiffPosition="6.53125" Velocity="0" />
      <note Length="0.015625" Pitch="54" RiffPosition="6.546875" Velocity="0" />
      <note Length="0.046875" Pitch="38" RiffPosition="6.5625" Velocity="0" />
      <note Length="0.046875" Pitch="55" RiffPosition="6.609375" Velocity="0" />
      <note Length="0.09375" Pitch="50" RiffPosition="6.65625" Velocity="0" />
      <note Length="0.125" Pitch="62" RiffPosition="6.75" Velocity="0" />
      <note Length="0.125" Pitch="74" RiffPosition="6.875" Velocity="0" />
      <note Length="0.015625" Pitch="61" RiffPosition="7" Velocity="31" />
      <note Length="0.015625" Pitch="62" RiffPosition="7.015625" Velocity="67" />
      <note Length="0.015625" Pitch="49" RiffPosition="7.03125" Velocity="77" />
      <note Length="0.015625" Pitch="56" RiffPosition="7.046875" Velocity="86" />
      <note Length="0.046875" Pitch="53" RiffPosition="7.0625" Velocity="48" />
      <note Length="0.046875" Pitch="54" RiffPosition="7.109375" Velocity="93" />
      <note Length="0.09375" Pitch="56" RiffPosition="7.15625" Velocity="73" />
      <note Length="0.125" Pitch="62" RiffPosition="7.25" Velocity="53" />
      <note Length="0.125" Pitch="62" RiffPosition="7.375" Velocity="71" />
      <note Length="0.015625" Pitch="62" RiffPosition="7.5" Velocity="62" />
      <note Length="0.015625" Pitch="49" RiffPosition="7.515625" Velocity="35" />
      <note Length="0.015625" Pitch="56" RiffPosition="7.53125" Velocity="60" />
      <note Length="0.015625" Pitch="53" RiffPosition="7.546875" Velocity="78" />
      <note Length="0.046875" Pitch="37" RiffPosition="7.5625" Velocity="40" />
      <note Length="0.046875" Pitch="54" RiffPosition="7.609375" Velocity="95" />
      <note Length="0.09375" Pitch="57" RiffPosition="7.65625" Velocity="40" />
      <note Length="0.125" Pitch="68" RiffPosition="7.75" Velocity="49" />
      <note Length="0.125" Pitch="61" RiffPosition="7.875" Velocity="79" />
      <note Length="0.015625" Pitch="60" RiffPosition="8" Velocity="40" />
      <note Length="0.015625" Pitch="61" RiffPosition="8.015625" Velocity="42" />
      <note Length="0.015625" Pitch="48" RiffPosition="8.03125" Velocity="52" />
      <note Length="0.015625" Pitch="56" RiffPosition="8.046875" Velocity="61" />
      <note Length="0.046875" Pitch="52" RiffPosition="8.0625" Velocity="37" />
      <note Length="0.046875" Pitch="55" RiffPosition="8.109375" Velocity="103" />
      <note Length="0.09375" Pitch="56" RiffPosition="8.15625" Velocity="82" />
      <note Length="0.125" Pitch="61" RiffPosition="8.25" Velocity="43" />
      <note Length="0.125" Pitch="61" RiffPosition="8.375" Velocity="96" />
      <note Length="0.015625" Pitch="61" RiffPosition="8.5" Velocity="37" />
      <note Length="0.015625" Pitch="48" RiffPosition="8.515625" Velocity="50" />
      <note Length="0.015625" Pitch="53" RiffPosition="8.53125" Velocity="35" />
      <note Length="0.015625" Pitch="52" RiffPosition="8.546875" Velocity="103" />
      <note Length="0.046875" Pitch="36" RiffPosition="8.5625" Velocity="50" />
      <note Length="0.046875" Pitch="53" RiffPosition="8.609375" Velocity="70" />
      <note Length="0.09375" Pitch="48" RiffPosition="8.65625" Velocity="65" />
      <note Length="0.125" Pitch="60" RiffPosition="8.75" Velocity="36" />
      <note Length="0.125" Pitch="72" RiffPosition="8.875" Velocity="70" />
      <note Length="0.015625" Pitch="60" RiffPosition="9" Velocity="45" />
      <note Length="0.015625" Pitch="61" RiffPosition="9.015625" Velocity="67" />
      <note Length="0.015625" Pitch="48" RiffPosition="9.03125" Velocity="77" />
      <note Length="0.015625" Pitch="55" RiffPosition="9.046875" Velocity="70" />
      <note Length="0.046875" Pitch="52" RiffPosition="9.0625" Velocity="57" />
      <note Length="0.046875" Pitch="53" RiffPosition="9.109375" Velocity="112" />
      <note Length="0.09375" Pitch="55" RiffPosition="9.15625" Velocity="57" />
      <note Length="0.125" Pitch="61" RiffPosition="9.25" Velocity="69" />
      <note Length="0.125" Pitch="61" RiffPosition="9.375" Velocity="87" />
      <note Length="0.015625" Pitch="61" RiffPosition="9.5" Velocity="57" />
      <note Length="0.015625" Pitch="48" RiffPosition="9.515625" Velocity="40" />
      <note Length="0.015625" Pitch="55" RiffPosition="9.53125" Velocity="44" />
      <note Length="0.015625" Pitch="52" RiffPosition="9.546875" Velocity="77" />
      <note Length="0.046875" Pitch="36" RiffPosition="9.5625" Velocity="36" />
      <note Length="0.046875" Pitch="53" RiffPosition="9.609375" Velocity="95" />
      <note Length="0.09375" Pitch="56" RiffPosition="9.65625" Velocity="65" />
      <note Length="0.125" Pitch="67" RiffPosition="9.75" Velocity="33" />
      <note Length="0.125" Pitch="60" RiffPosition="9.875" Velocity="79" />
      <note Length="0.015625" Pitch="59" RiffPosition="10" Velocity="35" />
      <note Length="0.015625" Pitch="60" RiffPosition="10.015625" Velocity="33" />
      <note Length="0.015625" Pitch="47" RiffPosition="10.03125" Velocity="51" />
      <note Length="0.015625" Pitch="55" RiffPosition="10.046875" Velocity="45" />
      <note Length="0.046875" Pitch="51" RiffPosition="10.0625" Velocity="66" />
      <note Length="0.046875" Pitch="54" RiffPosition="10.109375" Velocity="87" />
      <note Length="0.09375" Pitch="55" RiffPosition="10.15625" Velocity="67" />
      <note Length="0.125" Pitch="60" RiffPosition="10.25" Velocity="44" />
      <note Length="0.125" Pitch="60" RiffPosition="10.375" Velocity="53" />
      <note Length="0.015625" Pitch="60" RiffPosition="10.5" Velocity="32" />
      <note Length="0.015625" Pitch="47" RiffPosition="10.515625" Velocity="50" />
      <note Length="0.015625" Pitch="52" RiffPosition="10.53125" Velocity="43" />
      <note Length="0.015625" Pitch="51" RiffPosition="10.546875" Velocity="87" />
      <note Length="0.046875" Pitch="35" RiffPosition="10.5625" Velocity="49" />
      <note Length="0.046875" Pitch="52" RiffPosition="10.609375" Velocity="70" />
      <note Length="0.09375" Pitch="47" RiffPosition="10.65625" Velocity="74" />
      <note Length="0.125" Pitch="59" RiffPosition="10.75" Velocity="52" />
      <note Length="0.125" Pitch="71" RiffPosition="10.875" Velocity="70" />
      <note Length="0.015625" Pitch="70" RiffPosition="11" Velocity="0" />
      <note Length="0.015625" Pitch="71" RiffPosition="11.015625" Velocity="0" />
      <note Length="0.015625" Pitch="58" RiffPosition="11.03125" Velocity="0" />
      <note Length="0.015625" Pitch="65" RiffPosition="11.046875" Velocity="0" />
      <note Length="0.046875" Pitch="62" RiffPosition="11.0625" Velocity="0" />
      <note Length="0.046875" Pitch="63" RiffPosition="11.109375" Velocity="0" />
      <note Length="0.09375" Pitch="65" RiffPosition="11.15625" Velocity="0" />
      <note Length="0.125" Pitch="71" RiffPosition="11.25" Velocity="0" />
      <note Length="0.125" Pitch="71" RiffPosition="11.375" Velocity="0" />
      <note Length="0.015625" Pitch="71" RiffPosition="11.5" Velocity="0" />
      <note Length="0.015625" Pitch="58" RiffPosition="11.515625" Velocity="0" />
      <note Length="0.015625" Pitch="65" RiffPosition="11.53125" Velocity="0" />
      <note Length="0.015625" Pitch="62" RiffPosition="11.546875" Velocity="0" />
      <note Length="0.046875" Pitch="46" RiffPosition="11.5625" Velocity="0" />
      <note Length="0.046875" Pitch="63" RiffPosition="11.609375" Velocity="0" />
      <note Length="0.09375" Pitch="66" RiffPosition="11.65625" Velocity="0" />
      <note Length="0.125" Pitch="77" RiffPosition="11.75" Velocity="0" />
      <note Length="0.125" Pitch="70" RiffPosition="11.875" Velocity="0" />
      <note Length="0.015625" Pitch="70" RiffPosition="12" Velocity="0" />
      <note Length="0.015625" Pitch="71" RiffPosition="12.015625" Velocity="0" />
      <note Length="0.015625" Pitch="58" RiffPosition="12.03125" Velocity="0" />
      <note Length="0.015625" Pitch="66" RiffPosition="12.046875" Velocity="0" />
      <note Length="0.046875" Pitch="62" RiffPosition="12.0625" Velocity="0" />
      <note Length="0.046875" Pitch="65" RiffPosition="12.109375" Velocity="0" />
      <note Length="0.09375" Pitch="66" RiffPosition="12.15625" Velocity="0" />
      <note Length="0.125" Pitch="71" RiffPosition="12.25" Velocity="0" />
      <note Length="0.125" Pitch="71" RiffPosition="12.375" Velocity="0" />
      <note Length="0.015625" Pitch="71" RiffPosition="12.5" Velocity="0" />
      <note Length="0.015625" Pitch="58" RiffPosition="12.515625" Velocity="0" />
      <note Length="0.015625" Pitch="63" RiffPosition="12.53125" Velocity="0" />
      <note Length="0.015625" Pitch="62" RiffPosition="12.546875" Velocity="0" />
      <note Length="0.046875" Pitch="46" RiffPosition="12.5625" Velocity="0" />
      <note Length="0.046875" Pitch="63" RiffPosition="12.609375" Velocity="0" />
      <note Length="0.09375" Pitch="58" RiffPosition="12.65625" Velocity="0" />
      <note Length="0.125" Pitch="70" RiffPosition="12.75" Velocity="0" />
      <note Length="0.125" Pitch="82" RiffPosition="12.875" Velocity="0" />
    </riff>
    <riff IsDrum="True" MidiInstrument="0" Tempo="94" Length="13">
      <note Length="0.015625" Pitch="41" RiffPosition="0" Velocity="0" />
      <note Length="0.046875" Pitch="45" RiffPosition="0.015625" Velocity="0" />
      <note Length="0.046875" Pitch="49" RiffPosition="0.0625" Velocity="0" />
      <note Length="0.015625" Pitch="39" RiffPosition="0.109375" Velocity="0" />
      <note Length="0.0234375" Pitch="43" RiffPosition="0.125" Velocity="0" />
      <note Length="0.0078125" Pitch="48" RiffPosition="0.1484375" Velocity="0" />
      <note Length="0.015625" Pitch="50" RiffPosition="0.15625" Velocity="0" />
      <note Length="0.015625" Pitch="52" RiffPosition="0.171875" Velocity="0" />
      <note Length="0.03125" Pitch="47" RiffPosition="0.1875" Velocity="0" />
      <note Length="0.03125" Pitch="37" RiffPosition="0.21875" Velocity="0" />
      <note Length="0.0234375" Pitch="39" RiffPosition="0.25" Velocity="0" />
      <note Length="0.0234375" Pitch="44" RiffPosition="0.2734375" Velocity="0" />
      <note Length="0.0078125" Pitch="49" RiffPosition="0.296875" Velocity="0" />
      <note Length="0.0078125" Pitch="47" RiffPosition="0.3046875" Velocity="0" />
      <note Length="0.015625" Pitch="45" RiffPosition="0.3125" Velocity="0" />
      <note Length="0.015625" Pitch="42" RiffPosition="0.328125" Velocity="0" />
      <note Length="0.015625" Pitch="38" RiffPosition="0.34375" Velocity="0" />
      <note Length="0.015625" Pitch="37" RiffPosition="0.359375" Velocity="0" />
      <note Length="0.03125" Pitch="42" RiffPosition="0.375" Velocity="0" />
      <note Length="0.03125" Pitch="51" RiffPosition="0.40625" Velocity="0" />
      <note Length="0.03125" Pitch="49" RiffPosition="0.4375" Velocity="0" />
      <note Length="0.03125" Pitch="41" RiffPosition="0.46875" Velocity="0" />
      <note Length="0.0625" Pitch="42" RiffPosition="0.5" Velocity="0" />
      <note Length="0.015625" Pitch="46" RiffPosition="0.5625" Velocity="0" />
      <note Length="0.015625" Pitch="42" RiffPosition="0.578125" Velocity="0" />
      <note Length="0.015625" Pitch="37" RiffPosition="0.59375" Velocity="0" />
      <note Length="0.015625" Pitch="34" RiffPosition="0.609375" Velocity="0" />
      <note Length="0.015625" Pitch="39" RiffPosition="0.625" Velocity="0" />
      <note Length="0.015625" Pitch="44" RiffPosition="0.640625" Velocity="0" />
      <note Length="0.03125" Pitch="48" RiffPosition="0.65625" Velocity="0" />
      <note Length="0.03125" Pitch="47" RiffPosition="0.6875" Velocity="0" />
      <note Length="0.015625" Pitch="40" RiffPosition="0.71875" Velocity="0" />
      <note Length="0.015625" Pitch="38" RiffPosition="0.734375" Velocity="0" />
      <note Length="0.015625" Pitch="43" RiffPosition="0.75" Velocity="0" />
      <note Length="0.046875" Pitch="47" RiffPosition="0.765625" Velocity="0" />
      <note Length="0.046875" Pitch="48" RiffPosition="0.8125" Velocity="0" />
      <note Length="0.015625" Pitch="36" RiffPosition="0.859375" Velocity="0" />
      <note Length="0.0234375" Pitch="40" RiffPosition="0.875" Velocity="0" />
      <note Length="0.0078125" Pitch="45" RiffPosition="0.8984375" Velocity="0" />
      <note Length="0.015625" Pitch="47" RiffPosition="0.90625" Velocity="0" />
      <note Length="0.015625" Pitch="49" RiffPosition="0.921875" Velocity="0" />
      <note Length="0.03125" Pitch="44" RiffPosition="0.9375" Velocity="0" />
      <note Length="0.03125" Pitch="37" RiffPosition="0.96875" Velocity="0" />
      <note Length="0.0234375" Pitch="41" RiffPosition="1" Velocity="0" />
      <note Length="0.0234375" Pitch="47" RiffPosition="1.0234375" Velocity="0" />
      <note Length="0.0078125" Pitch="53" RiffPosition="1.046875" Velocity="0" />
      <note Length="0.0078125" Pitch="51" RiffPosition="1.0546875" Velocity="0" />
      <note Length="0.015625" Pitch="49" RiffPosition="1.0625" Velocity="0" />
      <note Length="0.015625" Pitch="45" RiffPosition="1.078125" Velocity="0" />
      <note Length="0.015625" Pitch="42" RiffPosition="1.09375" Velocity="0" />
      <note Length="0.015625" Pitch="39" RiffPosition="1.109375" Velocity="0" />
      <note Length="0.03125" Pitch="43" RiffPosition="1.125" Velocity="0" />
      <note Length="0.03125" Pitch="50" RiffPosition="1.15625" Velocity="0" />
      <note Length="0.03125" Pitch="47" RiffPosition="1.1875" Velocity="0" />
      <note Length="0.03125" Pitch="37" RiffPosition="1.21875" Velocity="0" />
      <note Length="0.0625" Pitch="39" RiffPosition="1.25" Velocity="0" />
      <note Length="0.015625" Pitch="45" RiffPosition="1.3125" Velocity="0" />
      <note Length="0.015625" Pitch="42" RiffPosition="1.328125" Velocity="0" />
      <note Length="0.015625" Pitch="38" RiffPosition="1.34375" Velocity="0" />
      <note Length="0.015625" Pitch="37" RiffPosition="1.359375" Velocity="0" />
      <note Length="0.015625" Pitch="42" RiffPosition="1.375" Velocity="0" />
      <note Length="0.015625" Pitch="46" RiffPosition="1.390625" Velocity="0" />
      <note Length="0.03125" Pitch="51" RiffPosition="1.40625" Velocity="0" />
      <note Length="0.03125" Pitch="49" RiffPosition="1.4375" Velocity="0" />
      <note Length="0.015625" Pitch="41" RiffPosition="1.46875" Velocity="0" />
      <note Length="0.015625" Pitch="39" RiffPosition="1.484375" Velocity="0" />
      <note Length="0.015625" Pitch="42" RiffPosition="1.5" Velocity="0" />
      <note Length="0.046875" Pitch="45" RiffPosition="1.515625" Velocity="0" />
      <note Length="0.046875" Pitch="46" RiffPosition="1.5625" Velocity="0" />
      <note Length="0.015625" Pitch="34" RiffPosition="1.609375" Velocity="0" />
      <note Length="0.0234375" Pitch="39" RiffPosition="1.625" Velocity="0" />
      <note Length="0.0078125" Pitch="45" RiffPosition="1.6484375" Velocity="0" />
      <note Length="0.015625" Pitch="48" RiffPosition="1.65625" Velocity="0" />
      <note Length="0.015625" Pitch="51" RiffPosition="1.671875" Velocity="0" />
      <note Length="0.03125" Pitch="47" RiffPosition="1.6875" Velocity="0" />
      <note Length="0.03125" Pitch="40" RiffPosition="1.71875" Velocity="0" />
      <note Length="0.0234375" Pitch="43" RiffPosition="1.75" Velocity="0" />
      <note Length="0.0234375" Pitch="49" RiffPosition="1.7734375" Velocity="0" />
      <note Length="0.0078125" Pitch="53" RiffPosition="1.796875" Velocity="0" />
      <note Length="0.0078125" Pitch="50" RiffPosition="1.8046875" Velocity="0" />
      <note Length="0.015625" Pitch="48" RiffPosition="1.8125" Velocity="0" />
      <note Length="0.015625" Pitch="44" RiffPosition="1.828125" Velocity="0" />
      <note Length="0.015625" Pitch="39" RiffPosition="1.84375" Velocity="0" />
      <note Length="0.015625" Pitch="36" RiffPosition="1.859375" Velocity="0" />
      <note Length="0.03125" Pitch="40" RiffPosition="1.875" Velocity="0" />
      <note Length="0.03125" Pitch="47" RiffPosition="1.90625" Velocity="0" />
      <note Length="0.03125" Pitch="44" RiffPosition="1.9375" Velocity="0" />
      <note Length="0.03125" Pitch="37" RiffPosition="1.96875" Velocity="0" />
      <note Length="0.0625" Pitch="41" RiffPosition="2" Velocity="0" />
      <note Length="0.015625" Pitch="49" RiffPosition="2.0625" Velocity="0" />
      <note Length="0.015625" Pitch="45" RiffPosition="2.078125" Velocity="0" />
      <note Length="0.015625" Pitch="42" RiffPosition="2.09375" Velocity="0" />
      <note Length="0.015625" Pitch="39" RiffPosition="2.109375" Velocity="0" />
      <note Length="0.015625" Pitch="43" RiffPosition="2.125" Velocity="0" />
      <note Length="0.015625" Pitch="46" RiffPosition="2.140625" Velocity="0" />
      <note Length="0.03125" Pitch="50" RiffPosition="2.15625" Velocity="0" />
      <note Length="0.03125" Pitch="47" RiffPosition="2.1875" Velocity="0" />
      <note Length="0.015625" Pitch="37" RiffPosition="2.21875" Velocity="0" />
      <note Length="0.015625" Pitch="35" RiffPosition="2.234375" Velocity="0" />
      <note Length="0.015625" Pitch="39" RiffPosition="2.25" Velocity="0" />
      <note Length="0.046875" Pitch="43" RiffPosition="2.265625" Velocity="0" />
      <note Length="0.046875" Pitch="45" RiffPosition="2.3125" Velocity="0" />
      <note Length="0.015625" Pitch="37" RiffPosition="2.359375" Velocity="0" />
      <note Length="0.0234375" Pitch="42" RiffPosition="2.375" Velocity="0" />
      <note Length="0.0078125" Pitch="49" RiffPosition="2.3984375" Velocity="0" />
      <note Length="0.015625" Pitch="51" RiffPosition="2.40625" Velocity="0" />
      <note Length="0.015625" Pitch="53" RiffPosition="2.421875" Velocity="0" />
      <note Length="0.03125" Pitch="49" RiffPosition="2.4375" Velocity="0" />
      <note Length="0.03125" Pitch="41" RiffPosition="2.46875" Velocity="0" />
      <note Length="0.0234375" Pitch="42" RiffPosition="2.5" Velocity="0" />
      <note Length="0.0234375" Pitch="47" RiffPosition="2.5234375" Velocity="0" />
      <note Length="0.0078125" Pitch="50" RiffPosition="2.546875" Velocity="0" />
      <note Length="0.0078125" Pitch="48" RiffPosition="2.5546875" Velocity="0" />
      <note Length="0.015625" Pitch="46" RiffPosition="2.5625" Velocity="0" />
      <note Length="0.015625" Pitch="42" RiffPosition="2.578125" Velocity="0" />
      <note Length="0.015625" Pitch="37" RiffPosition="2.59375" Velocity="0" />
      <note Length="0.015625" Pitch="34" RiffPosition="2.609375" Velocity="0" />
      <note Length="0.03125" Pitch="39" RiffPosition="2.625" Velocity="0" />
      <note Length="0.03125" Pitch="48" RiffPosition="2.65625" Velocity="0" />
      <note Length="0.03125" Pitch="47" RiffPosition="2.6875" Velocity="0" />
      <note Length="0.03125" Pitch="40" RiffPosition="2.71875" Velocity="0" />
      <note Length="0.0625" Pitch="43" RiffPosition="2.75" Velocity="0" />
      <note Length="0.015625" Pitch="48" RiffPosition="2.8125" Velocity="0" />
      <note Length="0.015625" Pitch="44" RiffPosition="2.828125" Velocity="0" />
      <note Length="0.015625" Pitch="39" RiffPosition="2.84375" Velocity="0" />
      <note Length="0.015625" Pitch="36" RiffPosition="2.859375" Velocity="0" />
      <note Length="0.015625" Pitch="40" RiffPosition="2.875" Velocity="0" />
      <note Length="0.015625" Pitch="44" RiffPosition="2.890625" Velocity="0" />
      <note Length="0.03125" Pitch="47" RiffPosition="2.90625" Velocity="0" />
      <note Length="0.03125" Pitch="44" RiffPosition="2.9375" Velocity="0" />
      <note Length="0.015625" Pitch="37" RiffPosition="2.96875" Velocity="0" />
      <note Length="0.015625" Pitch="36" RiffPosition="2.984375" Velocity="0" />
      <note Length="0.015625" Pitch="41" RiffPosition="3" Velocity="0" />
      <note Length="0.046875" Pitch="45" RiffPosition="3.015625" Velocity="0" />
      <note Length="0.046875" Pitch="49" RiffPosition="3.0625" Velocity="0" />
      <note Length="0.015625" Pitch="39" RiffPosition="3.109375" Velocity="0" />
      <note Length="0.0234375" Pitch="43" RiffPosition="3.125" Velocity="0" />
      <note Length="0.0078125" Pitch="48" RiffPosition="3.1484375" Velocity="0" />
      <note Length="0.015625" Pitch="50" RiffPosition="3.15625" Velocity="0" />
      <note Length="0.015625" Pitch="52" RiffPosition="3.171875" Velocity="0" />
      <note Length="0.03125" Pitch="47" RiffPosition="3.1875" Velocity="0" />
      <note Length="0.03125" Pitch="37" RiffPosition="3.21875" Velocity="0" />
      <note Length="0.0234375" Pitch="39" RiffPosition="3.25" Velocity="0" />
      <note Length="0.0234375" Pitch="44" RiffPosition="3.2734375" Velocity="0" />
      <note Length="0.0078125" Pitch="49" RiffPosition="3.296875" Velocity="0" />
      <note Length="0.0078125" Pitch="47" RiffPosition="3.3046875" Velocity="0" />
      <note Length="0.015625" Pitch="45" RiffPosition="3.3125" Velocity="0" />
      <note Length="0.015625" Pitch="42" RiffPosition="3.328125" Velocity="0" />
      <note Length="0.015625" Pitch="38" RiffPosition="3.34375" Velocity="0" />
      <note Length="0.015625" Pitch="37" RiffPosition="3.359375" Velocity="0" />
      <note Length="0.03125" Pitch="42" RiffPosition="3.375" Velocity="0" />
      <note Length="0.03125" Pitch="51" RiffPosition="3.40625" Velocity="0" />
      <note Length="0.03125" Pitch="49" RiffPosition="3.4375" Velocity="0" />
      <note Length="0.03125" Pitch="41" RiffPosition="3.46875" Velocity="0" />
      <note Length="0.0625" Pitch="42" RiffPosition="3.5" Velocity="0" />
      <note Length="0.015625" Pitch="46" RiffPosition="3.5625" Velocity="0" />
      <note Length="0.015625" Pitch="42" RiffPosition="3.578125" Velocity="0" />
      <note Length="0.015625" Pitch="37" RiffPosition="3.59375" Velocity="0" />
      <note Length="0.015625" Pitch="34" RiffPosition="3.609375" Velocity="0" />
      <note Length="0.015625" Pitch="39" RiffPosition="3.625" Velocity="0" />
      <note Length="0.015625" Pitch="44" RiffPosition="3.640625" Velocity="0" />
      <note Length="0.03125" Pitch="48" RiffPosition="3.65625" Velocity="0" />
      <note Length="0.03125" Pitch="47" RiffPosition="3.6875" Velocity="0" />
      <note Length="0.015625" Pitch="40" RiffPosition="3.71875" Velocity="0" />
      <note Length="0.015625" Pitch="38" RiffPosition="3.734375" Velocity="0" />
      <note Length="0.015625" Pitch="43" RiffPosition="3.75" Velocity="0" />
      <note Length="0.046875" Pitch="47" RiffPosition="3.765625" Velocity="0" />
      <note Length="0.046875" Pitch="48" RiffPosition="3.8125" Velocity="0" />
      <note Length="0.015625" Pitch="36" RiffPosition="3.859375" Velocity="0" />
      <note Length="0.0234375" Pitch="40" RiffPosition="3.875" Velocity="0" />
      <note Length="0.0078125" Pitch="45" RiffPosition="3.8984375" Velocity="0" />
      <note Length="0.015625" Pitch="47" RiffPosition="3.90625" Velocity="0" />
      <note Length="0.015625" Pitch="49" RiffPosition="3.921875" Velocity="0" />
      <note Length="0.03125" Pitch="44" RiffPosition="3.9375" Velocity="0" />
      <note Length="0.03125" Pitch="37" RiffPosition="3.96875" Velocity="0" />
      <note Length="0.0234375" Pitch="41" RiffPosition="4" Velocity="0" />
      <note Length="0.0234375" Pitch="47" RiffPosition="4.0234375" Velocity="0" />
      <note Length="0.0078125" Pitch="53" RiffPosition="4.046875" Velocity="0" />
      <note Length="0.0078125" Pitch="51" RiffPosition="4.0546875" Velocity="0" />
      <note Length="0.015625" Pitch="49" RiffPosition="4.0625" Velocity="0" />
      <note Length="0.015625" Pitch="45" RiffPosition="4.078125" Velocity="0" />
      <note Length="0.015625" Pitch="42" RiffPosition="4.09375" Velocity="0" />
      <note Length="0.015625" Pitch="39" RiffPosition="4.109375" Velocity="0" />
      <note Length="0.03125" Pitch="43" RiffPosition="4.125" Velocity="0" />
      <note Length="0.03125" Pitch="50" RiffPosition="4.15625" Velocity="0" />
      <note Length="0.03125" Pitch="47" RiffPosition="4.1875" Velocity="0" />
      <note Length="0.03125" Pitch="37" RiffPosition="4.21875" Velocity="0" />
      <note Length="0.0625" Pitch="39" RiffPosition="4.25" Velocity="0" />
      <note Length="0.015625" Pitch="45" RiffPosition="4.3125" Velocity="0" />
      <note Length="0.015625" Pitch="42" RiffPosition="4.328125" Velocity="0" />
      <note Length="0.015625" Pitch="38" RiffPosition="4.34375" Velocity="0" />
      <note Length="0.015625" Pitch="37" RiffPosition="4.359375" Velocity="0" />
      <note Length="0.015625" Pitch="42" RiffPosition="4.375" Velocity="0" />
      <note Length="0.015625" Pitch="46" RiffPosition="4.390625" Velocity="0" />
      <note Length="0.03125" Pitch="51" RiffPosition="4.40625" Velocity="0" />
      <note Length="0.03125" Pitch="49" RiffPosition="4.4375" Velocity="0" />
      <note Length="0.015625" Pitch="41" RiffPosition="4.46875" Velocity="0" />
      <note Length="0.015625" Pitch="39" RiffPosition="4.484375" Velocity="0" />
      <note Length="0.015625" Pitch="42" RiffPosition="4.5" Velocity="0" />
      <note Length="0.046875" Pitch="45" RiffPosition="4.515625" Velocity="0" />
      <note Length="0.046875" Pitch="46" RiffPosition="4.5625" Velocity="0" />
      <note Length="0.015625" Pitch="34" RiffPosition="4.609375" Velocity="0" />
      <note Length="0.0234375" Pitch="39" RiffPosition="4.625" Velocity="0" />
      <note Length="0.0078125" Pitch="45" RiffPosition="4.6484375" Velocity="0" />
      <note Length="0.015625" Pitch="48" RiffPosition="4.65625" Velocity="0" />
      <note Length="0.015625" Pitch="51" RiffPosition="4.671875" Velocity="0" />
      <note Length="0.03125" Pitch="47" RiffPosition="4.6875" Velocity="0" />
      <note Length="0.03125" Pitch="40" RiffPosition="4.71875" Velocity="0" />
      <note Length="0.0234375" Pitch="43" RiffPosition="4.75" Velocity="0" />
      <note Length="0.0234375" Pitch="49" RiffPosition="4.7734375" Velocity="0" />
      <note Length="0.0078125" Pitch="53" RiffPosition="4.796875" Velocity="0" />
      <note Length="0.0078125" Pitch="50" RiffPosition="4.8046875" Velocity="0" />
      <note Length="0.015625" Pitch="48" RiffPosition="4.8125" Velocity="0" />
      <note Length="0.015625" Pitch="44" RiffPosition="4.828125" Velocity="0" />
      <note Length="0.015625" Pitch="39" RiffPosition="4.84375" Velocity="0" />
      <note Length="0.015625" Pitch="36" RiffPosition="4.859375" Velocity="0" />
      <note Length="0.03125" Pitch="40" RiffPosition="4.875" Velocity="0" />
      <note Length="0.03125" Pitch="47" RiffPosition="4.90625" Velocity="0" />
      <note Length="0.03125" Pitch="44" RiffPosition="4.9375" Velocity="0" />
      <note Length="0.03125" Pitch="37" RiffPosition="4.96875" Velocity="0" />
      <note Length="0.0625" Pitch="41" RiffPosition="5" Velocity="44" />
      <note Length="0.015625" Pitch="49" RiffPosition="5.0625" Velocity="61" />
      <note Length="0.015625" Pitch="45" RiffPosition="5.078125" Velocity="119" />
      <note Length="0.015625" Pitch="42" RiffPosition="5.09375" Velocity="108" />
      <note Length="0.015625" Pitch="39" RiffPosition="5.109375" Velocity="0" />
      <note Length="0.015625" Pitch="43" RiffPosition="5.125" Velocity="61" />
      <note Length="0.015625" Pitch="46" RiffPosition="5.140625" Velocity="48" />
      <note Length="0.03125" Pitch="50" RiffPosition="5.15625" Velocity="90" />
      <note Length="0.03125" Pitch="47" RiffPosition="5.1875" Velocity="84" />
      <note Length="0.015625" Pitch="37" RiffPosition="5.21875" Velocity="96" />
      <note Length="0.015625" Pitch="35" RiffPosition="5.234375" Velocity="0" />
      <note Length="0.015625" Pitch="39" RiffPosition="5.25" Velocity="0" />
      <note Length="0.046875" Pitch="43" RiffPosition="5.265625" Velocity="43" />
      <note Length="0.046875" Pitch="45" RiffPosition="5.3125" Velocity="90" />
      <note Length="0.015625" Pitch="37" RiffPosition="5.359375" Velocity="61" />
      <note Length="0.0234375" Pitch="42" RiffPosition="5.375" Velocity="58" />
      <note Length="0.0078125" Pitch="49" RiffPosition="5.3984375" Velocity="27" />
      <note Length="0.015625" Pitch="51" RiffPosition="5.40625" Velocity="126" />
      <note Length="0.015625" Pitch="53" RiffPosition="5.421875" Velocity="118" />
      <note Length="0.03125" Pitch="49" RiffPosition="5.4375" Velocity="61" />
      <note Length="0.03125" Pitch="41" RiffPosition="5.46875" Velocity="113" />
      <note Length="0.0234375" Pitch="42" RiffPosition="5.5" Velocity="44" />
      <note Length="0.0234375" Pitch="47" RiffPosition="5.5234375" Velocity="43" />
      <note Length="0.0078125" Pitch="50" RiffPosition="5.546875" Velocity="111" />
      <note Length="0.0078125" Pitch="48" RiffPosition="5.5546875" Velocity="115" />
      <note Length="0.015625" Pitch="46" RiffPosition="5.5625" Velocity="119" />
      <note Length="0.015625" Pitch="42" RiffPosition="5.578125" Velocity="108" />
      <note Length="0.015625" Pitch="37" RiffPosition="5.59375" Velocity="116" />
      <note Length="0.015625" Pitch="34" RiffPosition="5.609375" Velocity="61" />
      <note Length="0.03125" Pitch="39" RiffPosition="5.625" Velocity="0" />
      <note Length="0.03125" Pitch="48" RiffPosition="5.65625" Velocity="82" />
      <note Length="0.03125" Pitch="47" RiffPosition="5.6875" Velocity="95" />
      <note Length="0.03125" Pitch="40" RiffPosition="5.71875" Velocity="0" />
      <note Length="0.0625" Pitch="43" RiffPosition="5.75" Velocity="42" />
      <note Length="0.015625" Pitch="48" RiffPosition="5.8125" Velocity="98" />
      <note Length="0.015625" Pitch="44" RiffPosition="5.828125" Velocity="101" />
      <note Length="0.015625" Pitch="39" RiffPosition="5.84375" Velocity="0" />
      <note Length="0.015625" Pitch="36" RiffPosition="5.859375" Velocity="0" />
      <note Length="0.015625" Pitch="40" RiffPosition="5.875" Velocity="0" />
      <note Length="0.015625" Pitch="44" RiffPosition="5.890625" Velocity="64" />
      <note Length="0.03125" Pitch="47" RiffPosition="5.90625" Velocity="118" />
      <note Length="0.03125" Pitch="44" RiffPosition="5.9375" Velocity="121" />
      <note Length="0.015625" Pitch="37" RiffPosition="5.96875" Velocity="105" />
      <note Length="0.015625" Pitch="36" RiffPosition="5.984375" Velocity="0" />
      <note Length="0.015625" Pitch="41" RiffPosition="6" Velocity="47" />
      <note Length="0.046875" Pitch="45" RiffPosition="6.015625" Velocity="41" />
      <note Length="0.046875" Pitch="49" RiffPosition="6.0625" Velocity="59" />
      <note Length="0.015625" Pitch="39" RiffPosition="6.109375" Velocity="0" />
      <note Length="0.0234375" Pitch="43" RiffPosition="6.125" Velocity="58" />
      <note Length="0.0078125" Pitch="48" RiffPosition="6.1484375" Velocity="47" />
      <note Length="0.015625" Pitch="50" RiffPosition="6.15625" Velocity="93" />
      <note Length="0.015625" Pitch="52" RiffPosition="6.171875" Velocity="50" />
      <note Length="0.03125" Pitch="47" RiffPosition="6.1875" Velocity="87" />
      <note Length="0.03125" Pitch="37" RiffPosition="6.21875" Velocity="99" />
      <note Length="0.0234375" Pitch="39" RiffPosition="6.25" Velocity="0" />
      <note Length="0.0234375" Pitch="44" RiffPosition="6.2734375" Velocity="44" />
      <note Length="0.0078125" Pitch="49" RiffPosition="6.296875" Velocity="56" />
      <note Length="0.0078125" Pitch="47" RiffPosition="6.3046875" Velocity="104" />
      <note Length="0.015625" Pitch="45" RiffPosition="6.3125" Velocity="87" />
      <note Length="0.015625" Pitch="42" RiffPosition="6.328125" Velocity="90" />
      <note Length="0.015625" Pitch="38" RiffPosition="6.34375" Velocity="0" />
      <note Length="0.015625" Pitch="37" RiffPosition="6.359375" Velocity="45" />
      <note Length="0.03125" Pitch="42" RiffPosition="6.375" Velocity="61" />
      <note Length="0.03125" Pitch="51" RiffPosition="6.40625" Velocity="110" />
      <note Length="0.03125" Pitch="49" RiffPosition="6.4375" Velocity="62" />
      <note Length="0.03125" Pitch="41" RiffPosition="6.46875" Velocity="116" />
      <note Length="0.0625" Pitch="42" RiffPosition="6.5" Velocity="41" />
      <note Length="0.015625" Pitch="46" RiffPosition="6.5625" Velocity="116" />
      <note Length="0.015625" Pitch="42" RiffPosition="6.578125" Velocity="105" />
      <note Length="0.015625" Pitch="37" RiffPosition="6.59375" Velocity="113" />
      <note Length="0.015625" Pitch="34" RiffPosition="6.609375" Velocity="59" />
      <note Length="0.015625" Pitch="39" RiffPosition="6.625" Velocity="0" />
      <note Length="0.015625" Pitch="44" RiffPosition="6.640625" Velocity="54" />
      <note Length="0.03125" Pitch="48" RiffPosition="6.65625" Velocity="85" />
      <note Length="0.03125" Pitch="47" RiffPosition="6.6875" Velocity="98" />
      <note Length="0.015625" Pitch="40" RiffPosition="6.71875" Velocity="0" />
      <note Length="0.015625" Pitch="38" RiffPosition="6.734375" Velocity="0" />
      <note Length="0.015625" Pitch="43" RiffPosition="6.75" Velocity="41" />
      <note Length="0.046875" Pitch="47" RiffPosition="6.765625" Velocity="42" />
      <note Length="0.046875" Pitch="48" RiffPosition="6.8125" Velocity="95" />
      <note Length="0.015625" Pitch="36" RiffPosition="6.859375" Velocity="0" />
      <note Length="0.0234375" Pitch="40" RiffPosition="6.875" Velocity="0" />
      <note Length="0.0078125" Pitch="45" RiffPosition="6.8984375" Velocity="63" />
      <note Length="0.015625" Pitch="47" RiffPosition="6.90625" Velocity="121" />
      <note Length="0.015625" Pitch="49" RiffPosition="6.921875" Velocity="62" />
      <note Length="0.03125" Pitch="44" RiffPosition="6.9375" Velocity="105" />
      <note Length="0.03125" Pitch="37" RiffPosition="6.96875" Velocity="108" />
      <note Length="0.0234375" Pitch="41" RiffPosition="7" Velocity="49" />
      <note Length="0.0234375" Pitch="47" RiffPosition="7.0234375" Velocity="42" />
      <note Length="0.0078125" Pitch="53" RiffPosition="7.046875" Velocity="116" />
      <note Length="0.0078125" Pitch="51" RiffPosition="7.0546875" Velocity="101" />
      <note Length="0.015625" Pitch="49" RiffPosition="7.0625" Velocity="58" />
      <note Length="0.015625" Pitch="45" RiffPosition="7.078125" Velocity="113" />
      <note Length="0.015625" Pitch="42" RiffPosition="7.09375" Velocity="121" />
      <note Length="0.015625" Pitch="39" RiffPosition="7.109375" Velocity="0" />
      <note Length="0.03125" Pitch="43" RiffPosition="7.125" Velocity="56" />
      <note Length="0.03125" Pitch="50" RiffPosition="7.15625" Velocity="96" />
      <note Length="0.03125" Pitch="47" RiffPosition="7.1875" Velocity="90" />
      <note Length="0.03125" Pitch="37" RiffPosition="7.21875" Velocity="102" />
      <note Length="0.0625" Pitch="39" RiffPosition="7.25" Velocity="0" />
      <note Length="0.015625" Pitch="45" RiffPosition="7.3125" Velocity="103" />
      <note Length="0.015625" Pitch="42" RiffPosition="7.328125" Velocity="87" />
      <note Length="0.015625" Pitch="38" RiffPosition="7.34375" Velocity="0" />
      <note Length="0.015625" Pitch="37" RiffPosition="7.359375" Velocity="48" />
      <note Length="0.015625" Pitch="42" RiffPosition="7.375" Velocity="64" />
      <note Length="0.015625" Pitch="46" RiffPosition="7.390625" Velocity="59" />
      <note Length="0.03125" Pitch="51" RiffPosition="7.40625" Velocity="113" />
      <note Length="0.03125" Pitch="49" RiffPosition="7.4375" Velocity="64" />
      <note Length="0.015625" Pitch="41" RiffPosition="7.46875" Velocity="100" />
      <note Length="0.015625" Pitch="39" RiffPosition="7.484375" Velocity="0" />
      <note Length="0.015625" Pitch="42" RiffPosition="7.5" Velocity="41" />
      <note Length="0.046875" Pitch="45" RiffPosition="7.515625" Velocity="46" />
      <note Length="0.046875" Pitch="46" RiffPosition="7.5625" Velocity="113" />
      <note Length="0.015625" Pitch="34" RiffPosition="7.609375" Velocity="56" />
      <note Length="0.0234375" Pitch="39" RiffPosition="7.625" Velocity="0" />
      <note Length="0.0078125" Pitch="45" RiffPosition="7.6484375" Velocity="52" />
      <note Length="0.015625" Pitch="48" RiffPosition="7.65625" Velocity="88" />
      <note Length="0.015625" Pitch="51" RiffPosition="7.671875" Velocity="85" />
      <note Length="0.03125" Pitch="47" RiffPosition="7.6875" Velocity="100" />
      <note Length="0.03125" Pitch="40" RiffPosition="7.71875" Velocity="0" />
      <note Length="0.0234375" Pitch="43" RiffPosition="7.75" Velocity="44" />
      <note Length="0.0234375" Pitch="49" RiffPosition="7.7734375" Velocity="23" />
      <note Length="0.0078125" Pitch="53" RiffPosition="7.796875" Velocity="89" />
      <note Length="0.0078125" Pitch="50" RiffPosition="7.8046875" Velocity="90" />
      <note Length="0.015625" Pitch="48" RiffPosition="7.8125" Velocity="92" />
      <note Length="0.015625" Pitch="44" RiffPosition="7.828125" Velocity="95" />
      <note Length="0.015625" Pitch="39" RiffPosition="7.84375" Velocity="0" />
      <note Length="0.015625" Pitch="36" RiffPosition="7.859375" Velocity="0" />
      <note Length="0.03125" Pitch="40" RiffPosition="7.875" Velocity="0" />
      <note Length="0.03125" Pitch="47" RiffPosition="7.90625" Velocity="124" />
      <note Length="0.03125" Pitch="44" RiffPosition="7.9375" Velocity="108" />
      <note Length="0.03125" Pitch="37" RiffPosition="7.96875" Velocity="111" />
      <note Length="0.0625" Pitch="41" RiffPosition="8" Velocity="47" />
      <note Length="0.015625" Pitch="49" RiffPosition="8.0625" Velocity="56" />
      <note Length="0.015625" Pitch="45" RiffPosition="8.078125" Velocity="110" />
      <note Length="0.015625" Pitch="42" RiffPosition="8.09375" Velocity="118" />
      <note Length="0.015625" Pitch="39" RiffPosition="8.109375" Velocity="0" />
      <note Length="0.015625" Pitch="43" RiffPosition="8.125" Velocity="53" />
      <note Length="0.015625" Pitch="46" RiffPosition="8.140625" Velocity="59" />
      <note Length="0.03125" Pitch="50" RiffPosition="8.15625" Velocity="80" />
      <note Length="0.03125" Pitch="47" RiffPosition="8.1875" Velocity="92" />
      <note Length="0.015625" Pitch="37" RiffPosition="8.21875" Velocity="105" />
      <note Length="0.015625" Pitch="35" RiffPosition="8.234375" Velocity="0" />
      <note Length="0.015625" Pitch="39" RiffPosition="8.25" Velocity="0" />
      <note Length="0.046875" Pitch="43" RiffPosition="8.265625" Velocity="47" />
      <note Length="0.046875" Pitch="45" RiffPosition="8.3125" Velocity="100" />
      <note Length="0.015625" Pitch="37" RiffPosition="8.359375" Velocity="51" />
      <note Length="0.0234375" Pitch="42" RiffPosition="8.375" Velocity="48" />
      <note Length="0.0078125" Pitch="49" RiffPosition="8.3984375" Velocity="31" />
      <note Length="0.015625" Pitch="51" RiffPosition="8.40625" Velocity="116" />
      <note Length="0.015625" Pitch="53" RiffPosition="8.421875" Velocity="108" />
      <note Length="0.03125" Pitch="49" RiffPosition="8.4375" Velocity="65" />
      <note Length="0.03125" Pitch="41" RiffPosition="8.46875" Velocity="103" />
      <note Length="0.0234375" Pitch="42" RiffPosition="8.5" Velocity="44" />
      <note Length="0.0234375" Pitch="47" RiffPosition="8.5234375" Velocity="48" />
      <note Length="0.0078125" Pitch="50" RiffPosition="8.546875" Velocity="102" />
      <note Length="0.0078125" Pitch="48" RiffPosition="8.5546875" Velocity="106" />
      <note Length="0.015625" Pitch="46" RiffPosition="8.5625" Velocity="110" />
      <note Length="0.015625" Pitch="42" RiffPosition="8.578125" Velocity="118" />
      <note Length="0.015625" Pitch="37" RiffPosition="8.59375" Velocity="107" />
      <note Length="0.015625" Pitch="34" RiffPosition="8.609375" Velocity="53" />
      <note Length="0.03125" Pitch="39" RiffPosition="8.625" Velocity="0" />
      <note Length="0.03125" Pitch="48" RiffPosition="8.65625" Velocity="91" />
      <note Length="0.03125" Pitch="47" RiffPosition="8.6875" Velocity="84" />
      <note Length="0.03125" Pitch="40" RiffPosition="8.71875" Velocity="0" />
      <note Length="0.0625" Pitch="43" RiffPosition="8.75" Velocity="47" />
      <note Length="0.015625" Pitch="48" RiffPosition="8.8125" Velocity="89" />
      <note Length="0.015625" Pitch="44" RiffPosition="8.828125" Velocity="92" />
      <note Length="0.015625" Pitch="39" RiffPosition="8.84375" Velocity="0" />
      <note Length="0.015625" Pitch="36" RiffPosition="8.859375" Velocity="0" />
      <note Length="0.015625" Pitch="40" RiffPosition="8.875" Velocity="0" />
      <note Length="0.015625" Pitch="44" RiffPosition="8.890625" Velocity="53" />
      <note Length="0.03125" Pitch="47" RiffPosition="8.90625" Velocity="126" />
      <note Length="0.03125" Pitch="44" RiffPosition="8.9375" Velocity="111" />
      <note Length="0.015625" Pitch="37" RiffPosition="8.96875" Velocity="114" />
      <note Length="0.015625" Pitch="36" RiffPosition="8.984375" Velocity="0" />
      <note Length="0.015625" Pitch="41" RiffPosition="9" Velocity="44" />
      <note Length="0.046875" Pitch="45" RiffPosition="9.015625" Velocity="47" />
      <note Length="0.046875" Pitch="49" RiffPosition="9.0625" Velocity="65" />
      <note Length="0.015625" Pitch="39" RiffPosition="9.109375" Velocity="0" />
      <note Length="0.0234375" Pitch="43" RiffPosition="9.125" Velocity="50" />
      <note Length="0.0078125" Pitch="48" RiffPosition="9.1484375" Velocity="57" />
      <note Length="0.015625" Pitch="50" RiffPosition="9.15625" Velocity="83" />
      <note Length="0.015625" Pitch="52" RiffPosition="9.171875" Velocity="54" />
      <note Length="0.03125" Pitch="47" RiffPosition="9.1875" Velocity="95" />
      <note Length="0.03125" Pitch="37" RiffPosition="9.21875" Velocity="89" />
      <note Length="0.0234375" Pitch="39" RiffPosition="9.25" Velocity="0" />
      <note Length="0.0234375" Pitch="44" RiffPosition="9.2734375" Velocity="46" />
      <note Length="0.0078125" Pitch="49" RiffPosition="9.296875" Velocity="52" />
      <note Length="0.0078125" Pitch="47" RiffPosition="9.3046875" Velocity="96" />
      <note Length="0.015625" Pitch="45" RiffPosition="9.3125" Velocity="97" />
      <note Length="0.015625" Pitch="42" RiffPosition="9.328125" Velocity="100" />
      <note Length="0.015625" Pitch="38" RiffPosition="9.34375" Velocity="0" />
      <note Length="0.015625" Pitch="37" RiffPosition="9.359375" Velocity="54" />
      <note Length="0.03125" Pitch="42" RiffPosition="9.375" Velocity="51" />
      <note Length="0.03125" Pitch="51" RiffPosition="9.40625" Velocity="118" />
      <note Length="0.03125" Pitch="49" RiffPosition="9.4375" Velocity="67" />
      <note Length="0.03125" Pitch="41" RiffPosition="9.46875" Velocity="106" />
      <note Length="0.0625" Pitch="42" RiffPosition="9.5" Velocity="47" />
      <note Length="0.015625" Pitch="46" RiffPosition="9.5625" Velocity="107" />
      <note Length="0.015625" Pitch="42" RiffPosition="9.578125" Velocity="115" />
      <note Length="0.015625" Pitch="37" RiffPosition="9.59375" Velocity="123" />
      <note Length="0.015625" Pitch="34" RiffPosition="9.609375" Velocity="50" />
      <note Length="0.015625" Pitch="39" RiffPosition="9.625" Velocity="0" />
      <note Length="0.015625" Pitch="44" RiffPosition="9.640625" Velocity="64" />
      <note Length="0.03125" Pitch="48" RiffPosition="9.65625" Velocity="94" />
      <note Length="0.03125" Pitch="47" RiffPosition="9.6875" Velocity="87" />
      <note Length="0.015625" Pitch="40" RiffPosition="9.71875" Velocity="0" />
      <note Length="0.015625" Pitch="38" RiffPosition="9.734375" Velocity="0" />
      <note Length="0.015625" Pitch="43" RiffPosition="9.75" Velocity="49" />
      <note Length="0.046875" Pitch="47" RiffPosition="9.765625" Velocity="47" />
      <note Length="0.046875" Pitch="48" RiffPosition="9.8125" Velocity="86" />
      <note Length="0.015625" Pitch="36" RiffPosition="9.859375" Velocity="0" />
      <note Length="0.0234375" Pitch="40" RiffPosition="9.875" Velocity="0" />
      <note Length="0.0078125" Pitch="45" RiffPosition="9.8984375" Velocity="52" />
      <note Length="0.015625" Pitch="47" RiffPosition="9.90625" Velocity="110" />
      <note Length="0.015625" Pitch="49" RiffPosition="9.921875" Velocity="67" />
      <note Length="0.03125" Pitch="44" RiffPosition="9.9375" Velocity="114" />
      <note Length="0.03125" Pitch="37" RiffPosition="9.96875" Velocity="117" />
      <note Length="0.0234375" Pitch="41" RiffPosition="10" Velocity="41" />
      <note Length="0.0234375" Pitch="47" RiffPosition="10.0234375" Velocity="46" />
      <note Length="0.0078125" Pitch="53" RiffPosition="10.046875" Velocity="108" />
      <note Length="0.0078125" Pitch="51" RiffPosition="10.0546875" Velocity="111" />
      <note Length="0.015625" Pitch="49" RiffPosition="10.0625" Velocity="63" />
      <note Length="0.015625" Pitch="45" RiffPosition="10.078125" Velocity="104" />
      <note Length="0.015625" Pitch="42" RiffPosition="10.09375" Velocity="112" />
      <note Length="0.015625" Pitch="39" RiffPosition="10.109375" Velocity="0" />
      <note Length="0.03125" Pitch="43" RiffPosition="10.125" Velocity="66" />
      <note Length="0.03125" Pitch="50" RiffPosition="10.15625" Velocity="86" />
      <note Length="0.03125" Pitch="47" RiffPosition="10.1875" Velocity="98" />
      <note Length="0.03125" Pitch="37" RiffPosition="10.21875" Velocity="92" />
      <note Length="0.0625" Pitch="39" RiffPosition="10.25" Velocity="0" />
      <note Length="0.015625" Pitch="45" RiffPosition="10.3125" Velocity="94" />
      <note Length="0.015625" Pitch="42" RiffPosition="10.328125" Velocity="98" />
      <note Length="0.015625" Pitch="38" RiffPosition="10.34375" Velocity="0" />
      <note Length="0.015625" Pitch="37" RiffPosition="10.359375" Velocity="57" />
      <note Length="0.015625" Pitch="42" RiffPosition="10.375" Velocity="53" />
      <note Length="0.015625" Pitch="46" RiffPosition="10.390625" Velocity="48" />
      <note Length="0.03125" Pitch="51" RiffPosition="10.40625" Velocity="121" />
      <note Length="0.03125" Pitch="49" RiffPosition="10.4375" Velocity="58" />
      <note Length="0.015625" Pitch="41" RiffPosition="10.46875" Velocity="109" />
      <note Length="0.015625" Pitch="39" RiffPosition="10.484375" Velocity="0" />
      <note Length="0.015625" Pitch="42" RiffPosition="10.5" Velocity="50" />
      <note Length="0.046875" Pitch="45" RiffPosition="10.515625" Velocity="42" />
      <note Length="0.046875" Pitch="46" RiffPosition="10.5625" Velocity="105" />
      <note Length="0.015625" Pitch="34" RiffPosition="10.609375" Velocity="47" />
      <note Length="0.0234375" Pitch="39" RiffPosition="10.625" Velocity="0" />
      <note Length="0.0078125" Pitch="45" RiffPosition="10.6484375" Velocity="63" />
      <note Length="0.015625" Pitch="48" RiffPosition="10.65625" Velocity="78" />
      <note Length="0.015625" Pitch="51" RiffPosition="10.671875" Velocity="93" />
      <note Length="0.03125" Pitch="47" RiffPosition="10.6875" Velocity="90" />
      <note Length="0.03125" Pitch="40" RiffPosition="10.71875" Velocity="0" />
      <note Length="0.0234375" Pitch="43" RiffPosition="10.75" Velocity="46" />
      <note Length="0.0234375" Pitch="49" RiffPosition="10.7734375" Velocity="26" />
      <note Length="0.0078125" Pitch="53" RiffPosition="10.796875" Velocity="99" />
      <note Length="0.0078125" Pitch="50" RiffPosition="10.8046875" Velocity="101" />
      <note Length="0.015625" Pitch="48" RiffPosition="10.8125" Velocity="102" />
      <note Length="0.015625" Pitch="44" RiffPosition="10.828125" Velocity="87" />
      <note Length="0.015625" Pitch="39" RiffPosition="10.84375" Velocity="0" />
      <note Length="0.015625" Pitch="36" RiffPosition="10.859375" Velocity="0" />
      <note Length="0.03125" Pitch="40" RiffPosition="10.875" Velocity="0" />
      <note Length="0.03125" Pitch="47" RiffPosition="10.90625" Velocity="113" />
      <note Length="0.03125" Pitch="44" RiffPosition="10.9375" Velocity="116" />
      <note Length="0.03125" Pitch="37" RiffPosition="10.96875" Velocity="101" />
      <note Length="0.0625" Pitch="41" RiffPosition="11" Velocity="0" />
      <note Length="0.015625" Pitch="49" RiffPosition="11.0625" Velocity="0" />
      <note Length="0.015625" Pitch="45" RiffPosition="11.078125" Velocity="0" />
      <note Length="0.015625" Pitch="42" RiffPosition="11.09375" Velocity="0" />
      <note Length="0.015625" Pitch="39" RiffPosition="11.109375" Velocity="0" />
      <note Length="0.015625" Pitch="43" RiffPosition="11.125" Velocity="0" />
      <note Length="0.015625" Pitch="46" RiffPosition="11.140625" Velocity="0" />
      <note Length="0.03125" Pitch="50" RiffPosition="11.15625" Velocity="0" />
      <note Length="0.03125" Pitch="47" RiffPosition="11.1875" Velocity="0" />
      <note Length="0.015625" Pitch="37" RiffPosition="11.21875" Velocity="0" />
      <note Length="0.015625" Pitch="35" RiffPosition="11.234375" Velocity="0" />
      <note Length="0.015625" Pitch="39" RiffPosition="11.25" Velocity="0" />
      <note Length="0.046875" Pitch="43" RiffPosition="11.265625" Velocity="0" />
      <note Length="0.046875" Pitch="45" RiffPosition="11.3125" Velocity="0" />
      <note Length="0.015625" Pitch="37" RiffPosition="11.359375" Velocity="0" />
      <note Length="0.0234375" Pitch="42" RiffPosition="11.375" Velocity="0" />
      <note Length="0.0078125" Pitch="49" RiffPosition="11.3984375" Velocity="0" />
      <note Length="0.015625" Pitch="51" RiffPosition="11.40625" Velocity="0" />
      <note Length="0.015625" Pitch="53" RiffPosition="11.421875" Velocity="0" />
      <note Length="0.03125" Pitch="49" RiffPosition="11.4375" Velocity="0" />
      <note Length="0.03125" Pitch="41" RiffPosition="11.46875" Velocity="0" />
      <note Length="0.0234375" Pitch="42" RiffPosition="11.5" Velocity="0" />
      <note Length="0.0234375" Pitch="47" RiffPosition="11.5234375" Velocity="0" />
      <note Length="0.0078125" Pitch="50" RiffPosition="11.546875" Velocity="0" />
      <note Length="0.0078125" Pitch="48" RiffPosition="11.5546875" Velocity="0" />
      <note Length="0.015625" Pitch="46" RiffPosition="11.5625" Velocity="0" />
      <note Length="0.015625" Pitch="42" RiffPosition="11.578125" Velocity="0" />
      <note Length="0.015625" Pitch="37" RiffPosition="11.59375" Velocity="0" />
      <note Length="0.015625" Pitch="34" RiffPosition="11.609375" Velocity="0" />
      <note Length="0.03125" Pitch="39" RiffPosition="11.625" Velocity="0" />
      <note Length="0.03125" Pitch="48" RiffPosition="11.65625" Velocity="0" />
      <note Length="0.03125" Pitch="47" RiffPosition="11.6875" Velocity="0" />
      <note Length="0.03125" Pitch="40" RiffPosition="11.71875" Velocity="0" />
      <note Length="0.0625" Pitch="43" RiffPosition="11.75" Velocity="0" />
      <note Length="0.015625" Pitch="48" RiffPosition="11.8125" Velocity="0" />
      <note Length="0.015625" Pitch="44" RiffPosition="11.828125" Velocity="0" />
      <note Length="0.015625" Pitch="39" RiffPosition="11.84375" Velocity="0" />
      <note Length="0.015625" Pitch="36" RiffPosition="11.859375" Velocity="0" />
      <note Length="0.015625" Pitch="40" RiffPosition="11.875" Velocity="0" />
      <note Length="0.015625" Pitch="44" RiffPosition="11.890625" Velocity="0" />
      <note Length="0.03125" Pitch="47" RiffPosition="11.90625" Velocity="0" />
      <note Length="0.03125" Pitch="44" RiffPosition="11.9375" Velocity="0" />
      <note Length="0.015625" Pitch="37" RiffPosition="11.96875" Velocity="0" />
      <note Length="0.015625" Pitch="36" RiffPosition="11.984375" Velocity="0" />
      <note Length="0.015625" Pitch="41" RiffPosition="12" Velocity="0" />
      <note Length="0.046875" Pitch="45" RiffPosition="12.015625" Velocity="0" />
      <note Length="0.046875" Pitch="49" RiffPosition="12.0625" Velocity="0" />
      <note Length="0.015625" Pitch="39" RiffPosition="12.109375" Velocity="0" />
      <note Length="0.0234375" Pitch="43" RiffPosition="12.125" Velocity="0" />
      <note Length="0.0078125" Pitch="48" RiffPosition="12.1484375" Velocity="0" />
      <note Length="0.015625" Pitch="50" RiffPosition="12.15625" Velocity="0" />
      <note Length="0.015625" Pitch="52" RiffPosition="12.171875" Velocity="0" />
      <note Length="0.03125" Pitch="47" RiffPosition="12.1875" Velocity="0" />
      <note Length="0.03125" Pitch="37" RiffPosition="12.21875" Velocity="0" />
      <note Length="0.0234375" Pitch="39" RiffPosition="12.25" Velocity="0" />
      <note Length="0.0234375" Pitch="44" RiffPosition="12.2734375" Velocity="0" />
      <note Length="0.0078125" Pitch="49" RiffPosition="12.296875" Velocity="0" />
      <note Length="0.0078125" Pitch="47" RiffPosition="12.3046875" Velocity="0" />
      <note Length="0.015625" Pitch="45" RiffPosition="12.3125" Velocity="0" />
      <note Length="0.015625" Pitch="42" RiffPosition="12.328125" Velocity="0" />
      <note Length="0.015625" Pitch="38" RiffPosition="12.34375" Velocity="0" />
      <note Length="0.015625" Pitch="37" RiffPosition="12.359375" Velocity="0" />
      <note Length="0.03125" Pitch="42" RiffPosition="12.375" Velocity="0" />
      <note Length="0.03125" Pitch="51" RiffPosition="12.40625" Velocity="0" />
      <note Length="0.03125" Pitch="49" RiffPosition="12.4375" Velocity="0" />
      <note Length="0.03125" Pitch="41" RiffPosition="12.46875" Velocity="0" />
      <note Length="0.0625" Pitch="42" RiffPosition="12.5" Velocity="0" />
      <note Length="0.015625" Pitch="46" RiffPosition="12.5625" Velocity="0" />
      <note Length="0.015625" Pitch="42" RiffPosition="12.578125" Velocity="0" />
      <note Length="0.015625" Pitch="37" RiffPosition="12.59375" Velocity="0" />
      <note Length="0.015625" Pitch="34" RiffPosition="12.609375" Velocity="0" />
      <note Length="0.015625" Pitch="39" RiffPosition="12.625" Velocity="0" />
      <note Length="0.015625" Pitch="44" RiffPosition="12.640625" Velocity="0" />
      <note Length="0.03125" Pitch="48" RiffPosition="12.65625" Velocity="0" />
      <note Length="0.03125" Pitch="47" RiffPosition="12.6875" Velocity="0" />
      <note Length="0.015625" Pitch="40" RiffPosition="12.71875" Velocity="0" />
      <note Length="0.015625" Pitch="38" RiffPosition="12.734375" Velocity="0" />
      <note Length="0.015625" Pitch="43" RiffPosition="12.75" Velocity="0" />
      <note Length="0.046875" Pitch="47" RiffPosition="12.765625" Velocity="0" />
      <note Length="0.046875" Pitch="48" RiffPosition="12.8125" Velocity="0" />
      <note Length="0.015625" Pitch="36" RiffPosition="12.859375" Velocity="0" />
      <note Length="0.0234375" Pitch="40" RiffPosition="12.875" Velocity="0" />
      <note Length="0.0078125" Pitch="45" RiffPosition="12.8984375" Velocity="0" />
      <note Length="0.015625" Pitch="47" RiffPosition="12.90625" Velocity="0" />
      <note Length="0.015625" Pitch="49" RiffPosition="12.921875" Velocity="0" />
      <note Length="0.03125" Pitch="44" RiffPosition="12.9375" Velocity="0" />
      <note Length="0.03125" Pitch="37" RiffPosition="12.96875" Velocity="0" />
    </riff>
    <riff IsDrum="True" MidiInstrument="0" Tempo="107" Length="13">
      <note Length="0.03125" Pitch="44" RiffPosition="0" Velocity="0" />
      <note Length="0.03125" Pitch="44" RiffPosition="0.03125" Velocity="0" />
      <note Length="0.015625" Pitch="39" RiffPosition="0.0625" Velocity="0" />
      <note Length="0.015625" Pitch="40" RiffPosition="0.078125" Velocity="0" />
      <note Length="0.03125" Pitch="40" RiffPosition="0.09375" Velocity="0" />
      <note Length="0.03125" Pitch="47" RiffPosition="0.125" Velocity="0" />
      <note Length="0.0234375" Pitch="48" RiffPosition="0.15625" Velocity="0" />
      <note Length="0.0078125" Pitch="54" RiffPosition="0.1796875" Velocity="0" />
      <note Length="0.01171875" Pitch="54" RiffPosition="0.1875" Velocity="0" />
      <note Length="0.00390625" Pitch="53" RiffPosition="0.19921875" Velocity="0" />
      <note Length="0.015625" Pitch="53" RiffPosition="0.203125" Velocity="0" />
      <note Length="0.03125" Pitch="52" RiffPosition="0.21875" Velocity="0" />
      <note Length="0.03125" Pitch="44" RiffPosition="0.25" Velocity="0" />
      <note Length="0.03125" Pitch="44" RiffPosition="0.28125" Velocity="0" />
      <note Length="0.015625" Pitch="36" RiffPosition="0.3125" Velocity="0" />
      <note Length="0.015625" Pitch="36" RiffPosition="0.328125" Velocity="0" />
      <note Length="0.03125" Pitch="35" RiffPosition="0.34375" Velocity="0" />
      <note Length="0.03125" Pitch="41" RiffPosition="0.375" Velocity="0" />
      <note Length="0.0234375" Pitch="40" RiffPosition="0.40625" Velocity="0" />
      <note Length="0.0078125" Pitch="47" RiffPosition="0.4296875" Velocity="0" />
      <note Length="0.01171875" Pitch="47" RiffPosition="0.4375" Velocity="0" />
      <note Length="0.00390625" Pitch="47" RiffPosition="0.44921875" Velocity="0" />
      <note Length="0.015625" Pitch="47" RiffPosition="0.453125" Velocity="0" />
      <note Length="0.03125" Pitch="48" RiffPosition="0.46875" Velocity="0" />
      <note Length="0.03125" Pitch="44" RiffPosition="0.5" Velocity="0" />
      <note Length="0.03125" Pitch="44" RiffPosition="0.53125" Velocity="0" />
      <note Length="0.015625" Pitch="39" RiffPosition="0.5625" Velocity="0" />
      <note Length="0.015625" Pitch="40" RiffPosition="0.578125" Velocity="0" />
      <note Length="0.03125" Pitch="40" RiffPosition="0.59375" Velocity="0" />
      <note Length="0.03125" Pitch="47" RiffPosition="0.625" Velocity="0" />
      <note Length="0.0234375" Pitch="48" RiffPosition="0.65625" Velocity="0" />
      <note Length="0.0078125" Pitch="54" RiffPosition="0.6796875" Velocity="0" />
      <note Length="0.01171875" Pitch="54" RiffPosition="0.6875" Velocity="0" />
      <note Length="0.00390625" Pitch="53" RiffPosition="0.69921875" Velocity="0" />
      <note Length="0.015625" Pitch="53" RiffPosition="0.703125" Velocity="0" />
      <note Length="0.03125" Pitch="52" RiffPosition="0.71875" Velocity="0" />
      <note Length="0.03125" Pitch="44" RiffPosition="0.75" Velocity="0" />
      <note Length="0.03125" Pitch="44" RiffPosition="0.78125" Velocity="0" />
      <note Length="0.015625" Pitch="36" RiffPosition="0.8125" Velocity="0" />
      <note Length="0.015625" Pitch="36" RiffPosition="0.828125" Velocity="0" />
      <note Length="0.03125" Pitch="35" RiffPosition="0.84375" Velocity="0" />
      <note Length="0.03125" Pitch="41" RiffPosition="0.875" Velocity="0" />
      <note Length="0.0234375" Pitch="40" RiffPosition="0.90625" Velocity="0" />
      <note Length="0.0078125" Pitch="47" RiffPosition="0.9296875" Velocity="0" />
      <note Length="0.01171875" Pitch="47" RiffPosition="0.9375" Velocity="0" />
      <note Length="0.00390625" Pitch="47" RiffPosition="0.94921875" Velocity="0" />
      <note Length="0.015625" Pitch="47" RiffPosition="0.953125" Velocity="0" />
      <note Length="0.03125" Pitch="48" RiffPosition="0.96875" Velocity="0" />
      <note Length="0.03125" Pitch="44" RiffPosition="1" Velocity="0" />
      <note Length="0.03125" Pitch="44" RiffPosition="1.03125" Velocity="0" />
      <note Length="0.015625" Pitch="39" RiffPosition="1.0625" Velocity="0" />
      <note Length="0.015625" Pitch="40" RiffPosition="1.078125" Velocity="0" />
      <note Length="0.03125" Pitch="40" RiffPosition="1.09375" Velocity="0" />
      <note Length="0.03125" Pitch="47" RiffPosition="1.125" Velocity="0" />
      <note Length="0.0234375" Pitch="48" RiffPosition="1.15625" Velocity="0" />
      <note Length="0.0078125" Pitch="54" RiffPosition="1.1796875" Velocity="0" />
      <note Length="0.01171875" Pitch="54" RiffPosition="1.1875" Velocity="0" />
      <note Length="0.00390625" Pitch="53" RiffPosition="1.19921875" Velocity="0" />
      <note Length="0.015625" Pitch="53" RiffPosition="1.203125" Velocity="0" />
      <note Length="0.03125" Pitch="52" RiffPosition="1.21875" Velocity="0" />
      <note Length="0.03125" Pitch="44" RiffPosition="1.25" Velocity="0" />
      <note Length="0.03125" Pitch="44" RiffPosition="1.28125" Velocity="0" />
      <note Length="0.015625" Pitch="36" RiffPosition="1.3125" Velocity="0" />
      <note Length="0.015625" Pitch="36" RiffPosition="1.328125" Velocity="0" />
      <note Length="0.03125" Pitch="35" RiffPosition="1.34375" Velocity="0" />
      <note Length="0.03125" Pitch="41" RiffPosition="1.375" Velocity="0" />
      <note Length="0.0234375" Pitch="40" RiffPosition="1.40625" Velocity="0" />
      <note Length="0.0078125" Pitch="47" RiffPosition="1.4296875" Velocity="0" />
      <note Length="0.01171875" Pitch="47" RiffPosition="1.4375" Velocity="0" />
      <note Length="0.00390625" Pitch="47" RiffPosition="1.44921875" Velocity="0" />
      <note Length="0.015625" Pitch="47" RiffPosition="1.453125" Velocity="0" />
      <note Length="0.03125" Pitch="48" RiffPosition="1.46875" Velocity="0" />
      <note Length="0.03125" Pitch="44" RiffPosition="1.5" Velocity="0" />
      <note Length="0.03125" Pitch="44" RiffPosition="1.53125" Velocity="0" />
      <note Length="0.015625" Pitch="39" RiffPosition="1.5625" Velocity="0" />
      <note Length="0.015625" Pitch="40" RiffPosition="1.578125" Velocity="0" />
      <note Length="0.03125" Pitch="40" RiffPosition="1.59375" Velocity="0" />
      <note Length="0.03125" Pitch="47" RiffPosition="1.625" Velocity="0" />
      <note Length="0.0234375" Pitch="48" RiffPosition="1.65625" Velocity="0" />
      <note Length="0.0078125" Pitch="54" RiffPosition="1.6796875" Velocity="0" />
      <note Length="0.01171875" Pitch="54" RiffPosition="1.6875" Velocity="0" />
      <note Length="0.00390625" Pitch="53" RiffPosition="1.69921875" Velocity="0" />
      <note Length="0.015625" Pitch="53" RiffPosition="1.703125" Velocity="0" />
      <note Length="0.03125" Pitch="52" RiffPosition="1.71875" Velocity="0" />
      <note Length="0.03125" Pitch="44" RiffPosition="1.75" Velocity="0" />
      <note Length="0.03125" Pitch="44" RiffPosition="1.78125" Velocity="0" />
      <note Length="0.015625" Pitch="36" RiffPosition="1.8125" Velocity="0" />
      <note Length="0.015625" Pitch="36" RiffPosition="1.828125" Velocity="0" />
      <note Length="0.03125" Pitch="35" RiffPosition="1.84375" Velocity="0" />
      <note Length="0.03125" Pitch="41" RiffPosition="1.875" Velocity="0" />
      <note Length="0.0234375" Pitch="40" RiffPosition="1.90625" Velocity="0" />
      <note Length="0.0078125" Pitch="47" RiffPosition="1.9296875" Velocity="0" />
      <note Length="0.01171875" Pitch="47" RiffPosition="1.9375" Velocity="0" />
      <note Length="0.00390625" Pitch="47" RiffPosition="1.94921875" Velocity="0" />
      <note Length="0.015625" Pitch="47" RiffPosition="1.953125" Velocity="0" />
      <note Length="0.03125" Pitch="48" RiffPosition="1.96875" Velocity="0" />
      <note Length="0.03125" Pitch="44" RiffPosition="2" Velocity="0" />
      <note Length="0.03125" Pitch="44" RiffPosition="2.03125" Velocity="0" />
      <note Length="0.015625" Pitch="39" RiffPosition="2.0625" Velocity="0" />
      <note Length="0.015625" Pitch="40" RiffPosition="2.078125" Velocity="0" />
      <note Length="0.03125" Pitch="40" RiffPosition="2.09375" Velocity="0" />
      <note Length="0.03125" Pitch="47" RiffPosition="2.125" Velocity="0" />
      <note Length="0.0234375" Pitch="48" RiffPosition="2.15625" Velocity="0" />
      <note Length="0.0078125" Pitch="54" RiffPosition="2.1796875" Velocity="0" />
      <note Length="0.01171875" Pitch="54" RiffPosition="2.1875" Velocity="0" />
      <note Length="0.00390625" Pitch="53" RiffPosition="2.19921875" Velocity="0" />
      <note Length="0.015625" Pitch="53" RiffPosition="2.203125" Velocity="0" />
      <note Length="0.03125" Pitch="52" RiffPosition="2.21875" Velocity="0" />
      <note Length="0.03125" Pitch="44" RiffPosition="2.25" Velocity="0" />
      <note Length="0.03125" Pitch="44" RiffPosition="2.28125" Velocity="0" />
      <note Length="0.015625" Pitch="36" RiffPosition="2.3125" Velocity="0" />
      <note Length="0.015625" Pitch="36" RiffPosition="2.328125" Velocity="0" />
      <note Length="0.03125" Pitch="35" RiffPosition="2.34375" Velocity="0" />
      <note Length="0.03125" Pitch="41" RiffPosition="2.375" Velocity="0" />
      <note Length="0.0234375" Pitch="40" RiffPosition="2.40625" Velocity="0" />
      <note Length="0.0078125" Pitch="47" RiffPosition="2.4296875" Velocity="0" />
      <note Length="0.01171875" Pitch="47" RiffPosition="2.4375" Velocity="0" />
      <note Length="0.00390625" Pitch="47" RiffPosition="2.44921875" Velocity="0" />
      <note Length="0.015625" Pitch="47" RiffPosition="2.453125" Velocity="0" />
      <note Length="0.03125" Pitch="48" RiffPosition="2.46875" Velocity="0" />
      <note Length="0.03125" Pitch="44" RiffPosition="2.5" Velocity="0" />
      <note Length="0.03125" Pitch="44" RiffPosition="2.53125" Velocity="0" />
      <note Length="0.015625" Pitch="39" RiffPosition="2.5625" Velocity="0" />
      <note Length="0.015625" Pitch="40" RiffPosition="2.578125" Velocity="0" />
      <note Length="0.03125" Pitch="40" RiffPosition="2.59375" Velocity="0" />
      <note Length="0.03125" Pitch="47" RiffPosition="2.625" Velocity="0" />
      <note Length="0.0234375" Pitch="48" RiffPosition="2.65625" Velocity="0" />
      <note Length="0.0078125" Pitch="54" RiffPosition="2.6796875" Velocity="0" />
      <note Length="0.01171875" Pitch="54" RiffPosition="2.6875" Velocity="0" />
      <note Length="0.00390625" Pitch="53" RiffPosition="2.69921875" Velocity="0" />
      <note Length="0.015625" Pitch="53" RiffPosition="2.703125" Velocity="0" />
      <note Length="0.03125" Pitch="52" RiffPosition="2.71875" Velocity="0" />
      <note Length="0.03125" Pitch="44" RiffPosition="2.75" Velocity="0" />
      <note Length="0.03125" Pitch="44" RiffPosition="2.78125" Velocity="0" />
      <note Length="0.015625" Pitch="36" RiffPosition="2.8125" Velocity="0" />
      <note Length="0.015625" Pitch="36" RiffPosition="2.828125" Velocity="0" />
      <note Length="0.03125" Pitch="35" RiffPosition="2.84375" Velocity="0" />
      <note Length="0.03125" Pitch="41" RiffPosition="2.875" Velocity="0" />
      <note Length="0.0234375" Pitch="40" RiffPosition="2.90625" Velocity="0" />
      <note Length="0.0078125" Pitch="47" RiffPosition="2.9296875" Velocity="0" />
      <note Length="0.01171875" Pitch="47" RiffPosition="2.9375" Velocity="0" />
      <note Length="0.00390625" Pitch="47" RiffPosition="2.94921875" Velocity="0" />
      <note Length="0.015625" Pitch="47" RiffPosition="2.953125" Velocity="0" />
      <note Length="0.03125" Pitch="48" RiffPosition="2.96875" Velocity="0" />
      <note Length="0.03125" Pitch="44" RiffPosition="3" Velocity="0" />
      <note Length="0.03125" Pitch="44" RiffPosition="3.03125" Velocity="0" />
      <note Length="0.015625" Pitch="39" RiffPosition="3.0625" Velocity="0" />
      <note Length="0.015625" Pitch="40" RiffPosition="3.078125" Velocity="0" />
      <note Length="0.03125" Pitch="40" RiffPosition="3.09375" Velocity="0" />
      <note Length="0.03125" Pitch="47" RiffPosition="3.125" Velocity="0" />
      <note Length="0.0234375" Pitch="48" RiffPosition="3.15625" Velocity="0" />
      <note Length="0.0078125" Pitch="54" RiffPosition="3.1796875" Velocity="0" />
      <note Length="0.01171875" Pitch="54" RiffPosition="3.1875" Velocity="0" />
      <note Length="0.00390625" Pitch="53" RiffPosition="3.19921875" Velocity="0" />
      <note Length="0.015625" Pitch="53" RiffPosition="3.203125" Velocity="0" />
      <note Length="0.03125" Pitch="52" RiffPosition="3.21875" Velocity="0" />
      <note Length="0.03125" Pitch="44" RiffPosition="3.25" Velocity="0" />
      <note Length="0.03125" Pitch="44" RiffPosition="3.28125" Velocity="0" />
      <note Length="0.015625" Pitch="36" RiffPosition="3.3125" Velocity="0" />
      <note Length="0.015625" Pitch="36" RiffPosition="3.328125" Velocity="0" />
      <note Length="0.03125" Pitch="35" RiffPosition="3.34375" Velocity="0" />
      <note Length="0.03125" Pitch="41" RiffPosition="3.375" Velocity="0" />
      <note Length="0.0234375" Pitch="40" RiffPosition="3.40625" Velocity="0" />
      <note Length="0.0078125" Pitch="47" RiffPosition="3.4296875" Velocity="0" />
      <note Length="0.01171875" Pitch="47" RiffPosition="3.4375" Velocity="0" />
      <note Length="0.00390625" Pitch="47" RiffPosition="3.44921875" Velocity="0" />
      <note Length="0.015625" Pitch="47" RiffPosition="3.453125" Velocity="0" />
      <note Length="0.03125" Pitch="48" RiffPosition="3.46875" Velocity="0" />
      <note Length="0.03125" Pitch="44" RiffPosition="3.5" Velocity="0" />
      <note Length="0.03125" Pitch="44" RiffPosition="3.53125" Velocity="0" />
      <note Length="0.015625" Pitch="39" RiffPosition="3.5625" Velocity="0" />
      <note Length="0.015625" Pitch="40" RiffPosition="3.578125" Velocity="0" />
      <note Length="0.03125" Pitch="40" RiffPosition="3.59375" Velocity="0" />
      <note Length="0.03125" Pitch="47" RiffPosition="3.625" Velocity="0" />
      <note Length="0.0234375" Pitch="48" RiffPosition="3.65625" Velocity="0" />
      <note Length="0.0078125" Pitch="54" RiffPosition="3.6796875" Velocity="0" />
      <note Length="0.01171875" Pitch="54" RiffPosition="3.6875" Velocity="0" />
      <note Length="0.00390625" Pitch="53" RiffPosition="3.69921875" Velocity="0" />
      <note Length="0.015625" Pitch="53" RiffPosition="3.703125" Velocity="0" />
      <note Length="0.03125" Pitch="52" RiffPosition="3.71875" Velocity="0" />
      <note Length="0.03125" Pitch="44" RiffPosition="3.75" Velocity="0" />
      <note Length="0.03125" Pitch="44" RiffPosition="3.78125" Velocity="0" />
      <note Length="0.015625" Pitch="36" RiffPosition="3.8125" Velocity="0" />
      <note Length="0.015625" Pitch="36" RiffPosition="3.828125" Velocity="0" />
      <note Length="0.03125" Pitch="35" RiffPosition="3.84375" Velocity="0" />
      <note Length="0.03125" Pitch="41" RiffPosition="3.875" Velocity="0" />
      <note Length="0.0234375" Pitch="40" RiffPosition="3.90625" Velocity="0" />
      <note Length="0.0078125" Pitch="47" RiffPosition="3.9296875" Velocity="0" />
      <note Length="0.01171875" Pitch="47" RiffPosition="3.9375" Velocity="0" />
      <note Length="0.00390625" Pitch="47" RiffPosition="3.94921875" Velocity="0" />
      <note Length="0.015625" Pitch="47" RiffPosition="3.953125" Velocity="0" />
      <note Length="0.03125" Pitch="48" RiffPosition="3.96875" Velocity="0" />
      <note Length="0.03125" Pitch="44" RiffPosition="4" Velocity="0" />
      <note Length="0.03125" Pitch="44" RiffPosition="4.03125" Velocity="0" />
      <note Length="0.015625" Pitch="39" RiffPosition="4.0625" Velocity="0" />
      <note Length="0.015625" Pitch="40" RiffPosition="4.078125" Velocity="0" />
      <note Length="0.03125" Pitch="40" RiffPosition="4.09375" Velocity="0" />
      <note Length="0.03125" Pitch="47" RiffPosition="4.125" Velocity="0" />
      <note Length="0.0234375" Pitch="48" RiffPosition="4.15625" Velocity="0" />
      <note Length="0.0078125" Pitch="54" RiffPosition="4.1796875" Velocity="0" />
      <note Length="0.01171875" Pitch="54" RiffPosition="4.1875" Velocity="0" />
      <note Length="0.00390625" Pitch="53" RiffPosition="4.19921875" Velocity="0" />
      <note Length="0.015625" Pitch="53" RiffPosition="4.203125" Velocity="0" />
      <note Length="0.03125" Pitch="52" RiffPosition="4.21875" Velocity="0" />
      <note Length="0.03125" Pitch="44" RiffPosition="4.25" Velocity="0" />
      <note Length="0.03125" Pitch="44" RiffPosition="4.28125" Velocity="0" />
      <note Length="0.015625" Pitch="36" RiffPosition="4.3125" Velocity="0" />
      <note Length="0.015625" Pitch="36" RiffPosition="4.328125" Velocity="0" />
      <note Length="0.03125" Pitch="35" RiffPosition="4.34375" Velocity="0" />
      <note Length="0.03125" Pitch="41" RiffPosition="4.375" Velocity="0" />
      <note Length="0.0234375" Pitch="40" RiffPosition="4.40625" Velocity="0" />
      <note Length="0.0078125" Pitch="47" RiffPosition="4.4296875" Velocity="0" />
      <note Length="0.01171875" Pitch="47" RiffPosition="4.4375" Velocity="0" />
      <note Length="0.00390625" Pitch="47" RiffPosition="4.44921875" Velocity="0" />
      <note Length="0.015625" Pitch="47" RiffPosition="4.453125" Velocity="0" />
      <note Length="0.03125" Pitch="48" RiffPosition="4.46875" Velocity="0" />
      <note Length="0.03125" Pitch="44" RiffPosition="4.5" Velocity="0" />
      <note Length="0.03125" Pitch="44" RiffPosition="4.53125" Velocity="0" />
      <note Length="0.015625" Pitch="39" RiffPosition="4.5625" Velocity="0" />
      <note Length="0.015625" Pitch="40" RiffPosition="4.578125" Velocity="0" />
      <note Length="0.03125" Pitch="40" RiffPosition="4.59375" Velocity="0" />
      <note Length="0.03125" Pitch="47" RiffPosition="4.625" Velocity="0" />
      <note Length="0.0234375" Pitch="48" RiffPosition="4.65625" Velocity="0" />
      <note Length="0.0078125" Pitch="54" RiffPosition="4.6796875" Velocity="0" />
      <note Length="0.01171875" Pitch="54" RiffPosition="4.6875" Velocity="0" />
      <note Length="0.00390625" Pitch="53" RiffPosition="4.69921875" Velocity="0" />
      <note Length="0.015625" Pitch="53" RiffPosition="4.703125" Velocity="0" />
      <note Length="0.03125" Pitch="52" RiffPosition="4.71875" Velocity="0" />
      <note Length="0.03125" Pitch="44" RiffPosition="4.75" Velocity="0" />
      <note Length="0.03125" Pitch="44" RiffPosition="4.78125" Velocity="0" />
      <note Length="0.015625" Pitch="36" RiffPosition="4.8125" Velocity="0" />
      <note Length="0.015625" Pitch="36" RiffPosition="4.828125" Velocity="0" />
      <note Length="0.03125" Pitch="35" RiffPosition="4.84375" Velocity="0" />
      <note Length="0.03125" Pitch="41" RiffPosition="4.875" Velocity="0" />
      <note Length="0.0234375" Pitch="40" RiffPosition="4.90625" Velocity="0" />
      <note Length="0.0078125" Pitch="47" RiffPosition="4.9296875" Velocity="0" />
      <note Length="0.01171875" Pitch="47" RiffPosition="4.9375" Velocity="0" />
      <note Length="0.00390625" Pitch="47" RiffPosition="4.94921875" Velocity="0" />
      <note Length="0.015625" Pitch="47" RiffPosition="4.953125" Velocity="0" />
      <note Length="0.03125" Pitch="48" RiffPosition="4.96875" Velocity="0" />
      <note Length="0.03125" Pitch="44" RiffPosition="5" Velocity="47" />
      <note Length="0.03125" Pitch="44" RiffPosition="5.03125" Velocity="90" />
      <note Length="0.015625" Pitch="39" RiffPosition="5.0625" Velocity="0" />
      <note Length="0.015625" Pitch="40" RiffPosition="5.078125" Velocity="0" />
      <note Length="0.03125" Pitch="40" RiffPosition="5.09375" Velocity="0" />
      <note Length="0.03125" Pitch="47" RiffPosition="5.125" Velocity="72" />
      <note Length="0.0234375" Pitch="48" RiffPosition="5.15625" Velocity="71" />
      <note Length="0.0078125" Pitch="54" RiffPosition="5.1796875" Velocity="52" />
      <note Length="0.01171875" Pitch="54" RiffPosition="5.1875" Velocity="46" />
      <note Length="0.00390625" Pitch="53" RiffPosition="5.19921875" Velocity="64" />
      <note Length="0.015625" Pitch="53" RiffPosition="5.203125" Velocity="72" />
      <note Length="0.03125" Pitch="52" RiffPosition="5.21875" Velocity="57" />
      <note Length="0.03125" Pitch="44" RiffPosition="5.25" Velocity="67" />
      <note Length="0.03125" Pitch="44" RiffPosition="5.28125" Velocity="81" />
      <note Length="0.015625" Pitch="36" RiffPosition="5.3125" Velocity="0" />
      <note Length="0.015625" Pitch="36" RiffPosition="5.328125" Velocity="0" />
      <note Length="0.03125" Pitch="35" RiffPosition="5.34375" Velocity="0" />
      <note Length="0.03125" Pitch="41" RiffPosition="5.375" Velocity="46" />
      <note Length="0.0234375" Pitch="40" RiffPosition="5.40625" Velocity="0" />
      <note Length="0.0078125" Pitch="47" RiffPosition="5.4296875" Velocity="96" />
      <note Length="0.01171875" Pitch="47" RiffPosition="5.4375" Velocity="79" />
      <note Length="0.00390625" Pitch="47" RiffPosition="5.44921875" Velocity="51" />
      <note Length="0.015625" Pitch="47" RiffPosition="5.453125" Velocity="42" />
      <note Length="0.03125" Pitch="48" RiffPosition="5.46875" Velocity="70" />
      <note Length="0.03125" Pitch="44" RiffPosition="5.5" Velocity="50" />
      <note Length="0.03125" Pitch="44" RiffPosition="5.53125" Velocity="93" />
      <note Length="0.015625" Pitch="39" RiffPosition="5.5625" Velocity="0" />
      <note Length="0.015625" Pitch="40" RiffPosition="5.578125" Velocity="0" />
      <note Length="0.03125" Pitch="40" RiffPosition="5.59375" Velocity="0" />
      <note Length="0.03125" Pitch="47" RiffPosition="5.625" Velocity="68" />
      <note Length="0.0234375" Pitch="48" RiffPosition="5.65625" Velocity="69" />
      <note Length="0.0078125" Pitch="54" RiffPosition="5.6796875" Velocity="55" />
      <note Length="0.01171875" Pitch="54" RiffPosition="5.6875" Velocity="43" />
      <note Length="0.00390625" Pitch="53" RiffPosition="5.69921875" Velocity="67" />
      <note Length="0.015625" Pitch="53" RiffPosition="5.703125" Velocity="75" />
      <note Length="0.03125" Pitch="52" RiffPosition="5.71875" Velocity="58" />
      <note Length="0.03125" Pitch="44" RiffPosition="5.75" Velocity="69" />
      <note Length="0.03125" Pitch="44" RiffPosition="5.78125" Velocity="85" />
      <note Length="0.015625" Pitch="36" RiffPosition="5.8125" Velocity="0" />
      <note Length="0.015625" Pitch="36" RiffPosition="5.828125" Velocity="0" />
      <note Length="0.03125" Pitch="35" RiffPosition="5.84375" Velocity="0" />
      <note Length="0.03125" Pitch="41" RiffPosition="5.875" Velocity="49" />
      <note Length="0.0234375" Pitch="40" RiffPosition="5.90625" Velocity="0" />
      <note Length="0.0078125" Pitch="47" RiffPosition="5.9296875" Velocity="94" />
      <note Length="0.01171875" Pitch="47" RiffPosition="5.9375" Velocity="83" />
      <note Length="0.00390625" Pitch="47" RiffPosition="5.94921875" Velocity="54" />
      <note Length="0.015625" Pitch="47" RiffPosition="5.953125" Velocity="45" />
      <note Length="0.03125" Pitch="48" RiffPosition="5.96875" Velocity="72" />
      <note Length="0.03125" Pitch="44" RiffPosition="6" Velocity="46" />
      <note Length="0.03125" Pitch="44" RiffPosition="6.03125" Velocity="91" />
      <note Length="0.015625" Pitch="39" RiffPosition="6.0625" Velocity="0" />
      <note Length="0.015625" Pitch="40" RiffPosition="6.078125" Velocity="0" />
      <note Length="0.03125" Pitch="40" RiffPosition="6.09375" Velocity="0" />
      <note Length="0.03125" Pitch="47" RiffPosition="6.125" Velocity="71" />
      <note Length="0.0234375" Pitch="48" RiffPosition="6.15625" Velocity="72" />
      <note Length="0.0078125" Pitch="54" RiffPosition="6.1796875" Velocity="52" />
      <note Length="0.01171875" Pitch="54" RiffPosition="6.1875" Velocity="45" />
      <note Length="0.00390625" Pitch="53" RiffPosition="6.19921875" Velocity="63" />
      <note Length="0.015625" Pitch="53" RiffPosition="6.203125" Velocity="71" />
      <note Length="0.03125" Pitch="52" RiffPosition="6.21875" Velocity="57" />
      <note Length="0.03125" Pitch="44" RiffPosition="6.25" Velocity="72" />
      <note Length="0.03125" Pitch="44" RiffPosition="6.28125" Velocity="82" />
      <note Length="0.015625" Pitch="36" RiffPosition="6.3125" Velocity="0" />
      <note Length="0.015625" Pitch="36" RiffPosition="6.328125" Velocity="0" />
      <note Length="0.03125" Pitch="35" RiffPosition="6.34375" Velocity="0" />
      <note Length="0.03125" Pitch="41" RiffPosition="6.375" Velocity="46" />
      <note Length="0.0234375" Pitch="40" RiffPosition="6.40625" Velocity="0" />
      <note Length="0.0078125" Pitch="47" RiffPosition="6.4296875" Velocity="97" />
      <note Length="0.01171875" Pitch="47" RiffPosition="6.4375" Velocity="80" />
      <note Length="0.00390625" Pitch="47" RiffPosition="6.44921875" Velocity="52" />
      <note Length="0.015625" Pitch="47" RiffPosition="6.453125" Velocity="43" />
      <note Length="0.03125" Pitch="48" RiffPosition="6.46875" Velocity="69" />
      <note Length="0.03125" Pitch="44" RiffPosition="6.5" Velocity="49" />
      <note Length="0.03125" Pitch="44" RiffPosition="6.53125" Velocity="94" />
      <note Length="0.015625" Pitch="39" RiffPosition="6.5625" Velocity="0" />
      <note Length="0.015625" Pitch="40" RiffPosition="6.578125" Velocity="0" />
      <note Length="0.03125" Pitch="40" RiffPosition="6.59375" Velocity="0" />
      <note Length="0.03125" Pitch="47" RiffPosition="6.625" Velocity="67" />
      <note Length="0.0234375" Pitch="48" RiffPosition="6.65625" Velocity="70" />
      <note Length="0.0078125" Pitch="54" RiffPosition="6.6796875" Velocity="56" />
      <note Length="0.01171875" Pitch="54" RiffPosition="6.6875" Velocity="42" />
      <note Length="0.00390625" Pitch="53" RiffPosition="6.69921875" Velocity="66" />
      <note Length="0.015625" Pitch="53" RiffPosition="6.703125" Velocity="74" />
      <note Length="0.03125" Pitch="52" RiffPosition="6.71875" Velocity="58" />
      <note Length="0.03125" Pitch="44" RiffPosition="6.75" Velocity="68" />
      <note Length="0.03125" Pitch="44" RiffPosition="6.78125" Velocity="80" />
      <note Length="0.015625" Pitch="36" RiffPosition="6.8125" Velocity="0" />
      <note Length="0.015625" Pitch="36" RiffPosition="6.828125" Velocity="0" />
      <note Length="0.03125" Pitch="35" RiffPosition="6.84375" Velocity="0" />
      <note Length="0.03125" Pitch="41" RiffPosition="6.875" Velocity="48" />
      <note Length="0.0234375" Pitch="40" RiffPosition="6.90625" Velocity="0" />
      <note Length="0.0078125" Pitch="47" RiffPosition="6.9296875" Velocity="95" />
      <note Length="0.01171875" Pitch="47" RiffPosition="6.9375" Velocity="78" />
      <note Length="0.00390625" Pitch="47" RiffPosition="6.94921875" Velocity="55" />
      <note Length="0.015625" Pitch="47" RiffPosition="6.953125" Velocity="46" />
      <note Length="0.03125" Pitch="48" RiffPosition="6.96875" Velocity="72" />
      <note Length="0.03125" Pitch="44" RiffPosition="7" Velocity="45" />
      <note Length="0.03125" Pitch="44" RiffPosition="7.03125" Velocity="92" />
      <note Length="0.015625" Pitch="39" RiffPosition="7.0625" Velocity="0" />
      <note Length="0.015625" Pitch="40" RiffPosition="7.078125" Velocity="0" />
      <note Length="0.03125" Pitch="40" RiffPosition="7.09375" Velocity="0" />
      <note Length="0.03125" Pitch="47" RiffPosition="7.125" Velocity="70" />
      <note Length="0.0234375" Pitch="48" RiffPosition="7.15625" Velocity="73" />
      <note Length="0.0078125" Pitch="54" RiffPosition="7.1796875" Velocity="53" />
      <note Length="0.01171875" Pitch="54" RiffPosition="7.1875" Velocity="44" />
      <note Length="0.00390625" Pitch="53" RiffPosition="7.19921875" Velocity="68" />
      <note Length="0.015625" Pitch="53" RiffPosition="7.203125" Velocity="76" />
      <note Length="0.03125" Pitch="52" RiffPosition="7.21875" Velocity="56" />
      <note Length="0.03125" Pitch="44" RiffPosition="7.25" Velocity="71" />
      <note Length="0.03125" Pitch="44" RiffPosition="7.28125" Velocity="83" />
      <note Length="0.015625" Pitch="36" RiffPosition="7.3125" Velocity="0" />
      <note Length="0.015625" Pitch="36" RiffPosition="7.328125" Velocity="0" />
      <note Length="0.03125" Pitch="35" RiffPosition="7.34375" Velocity="0" />
      <note Length="0.03125" Pitch="41" RiffPosition="7.375" Velocity="45" />
      <note Length="0.0234375" Pitch="40" RiffPosition="7.40625" Velocity="0" />
      <note Length="0.0078125" Pitch="47" RiffPosition="7.4296875" Velocity="98" />
      <note Length="0.01171875" Pitch="47" RiffPosition="7.4375" Velocity="81" />
      <note Length="0.00390625" Pitch="47" RiffPosition="7.44921875" Velocity="53" />
      <note Length="0.015625" Pitch="47" RiffPosition="7.453125" Velocity="44" />
      <note Length="0.03125" Pitch="48" RiffPosition="7.46875" Velocity="74" />
      <note Length="0.03125" Pitch="44" RiffPosition="7.5" Velocity="48" />
      <note Length="0.03125" Pitch="44" RiffPosition="7.53125" Velocity="95" />
      <note Length="0.015625" Pitch="39" RiffPosition="7.5625" Velocity="0" />
      <note Length="0.015625" Pitch="40" RiffPosition="7.578125" Velocity="0" />
      <note Length="0.03125" Pitch="40" RiffPosition="7.59375" Velocity="0" />
      <note Length="0.03125" Pitch="47" RiffPosition="7.625" Velocity="72" />
      <note Length="0.0234375" Pitch="48" RiffPosition="7.65625" Velocity="70" />
      <note Length="0.0078125" Pitch="54" RiffPosition="7.6796875" Velocity="51" />
      <note Length="0.01171875" Pitch="54" RiffPosition="7.6875" Velocity="41" />
      <note Length="0.00390625" Pitch="53" RiffPosition="7.69921875" Velocity="65" />
      <note Length="0.015625" Pitch="53" RiffPosition="7.703125" Velocity="73" />
      <note Length="0.03125" Pitch="52" RiffPosition="7.71875" Velocity="58" />
      <note Length="0.03125" Pitch="44" RiffPosition="7.75" Velocity="67" />
      <note Length="0.03125" Pitch="44" RiffPosition="7.78125" Velocity="81" />
      <note Length="0.015625" Pitch="36" RiffPosition="7.8125" Velocity="0" />
      <note Length="0.015625" Pitch="36" RiffPosition="7.828125" Velocity="0" />
      <note Length="0.03125" Pitch="35" RiffPosition="7.84375" Velocity="0" />
      <note Length="0.03125" Pitch="41" RiffPosition="7.875" Velocity="47" />
      <note Length="0.0234375" Pitch="40" RiffPosition="7.90625" Velocity="0" />
      <note Length="0.0078125" Pitch="47" RiffPosition="7.9296875" Velocity="96" />
      <note Length="0.01171875" Pitch="47" RiffPosition="7.9375" Velocity="79" />
      <note Length="0.00390625" Pitch="47" RiffPosition="7.94921875" Velocity="50" />
      <note Length="0.015625" Pitch="47" RiffPosition="7.953125" Velocity="47" />
      <note Length="0.03125" Pitch="48" RiffPosition="7.96875" Velocity="71" />
      <note Length="0.03125" Pitch="44" RiffPosition="8" Velocity="50" />
      <note Length="0.03125" Pitch="44" RiffPosition="8.03125" Velocity="92" />
      <note Length="0.015625" Pitch="39" RiffPosition="8.0625" Velocity="0" />
      <note Length="0.015625" Pitch="40" RiffPosition="8.078125" Velocity="0" />
      <note Length="0.03125" Pitch="40" RiffPosition="8.09375" Velocity="0" />
      <note Length="0.03125" Pitch="47" RiffPosition="8.125" Velocity="69" />
      <note Length="0.0234375" Pitch="48" RiffPosition="8.15625" Velocity="68" />
      <note Length="0.0078125" Pitch="54" RiffPosition="8.1796875" Velocity="54" />
      <note Length="0.01171875" Pitch="54" RiffPosition="8.1875" Velocity="43" />
      <note Length="0.00390625" Pitch="53" RiffPosition="8.19921875" Velocity="67" />
      <note Length="0.015625" Pitch="53" RiffPosition="8.203125" Velocity="75" />
      <note Length="0.03125" Pitch="52" RiffPosition="8.21875" Velocity="56" />
      <note Length="0.03125" Pitch="44" RiffPosition="8.25" Velocity="70" />
      <note Length="0.03125" Pitch="44" RiffPosition="8.28125" Velocity="84" />
      <note Length="0.015625" Pitch="36" RiffPosition="8.3125" Velocity="0" />
      <note Length="0.015625" Pitch="36" RiffPosition="8.328125" Velocity="0" />
      <note Length="0.03125" Pitch="35" RiffPosition="8.34375" Velocity="0" />
      <note Length="0.03125" Pitch="41" RiffPosition="8.375" Velocity="44" />
      <note Length="0.0234375" Pitch="40" RiffPosition="8.40625" Velocity="0" />
      <note Length="0.0078125" Pitch="47" RiffPosition="8.4296875" Velocity="99" />
      <note Length="0.01171875" Pitch="47" RiffPosition="8.4375" Velocity="82" />
      <note Length="0.00390625" Pitch="47" RiffPosition="8.44921875" Velocity="54" />
      <note Length="0.015625" Pitch="47" RiffPosition="8.453125" Velocity="44" />
      <note Length="0.03125" Pitch="48" RiffPosition="8.46875" Velocity="73" />
      <note Length="0.03125" Pitch="44" RiffPosition="8.5" Velocity="47" />
      <note Length="0.03125" Pitch="44" RiffPosition="8.53125" Velocity="90" />
      <note Length="0.015625" Pitch="39" RiffPosition="8.5625" Velocity="0" />
      <note Length="0.015625" Pitch="40" RiffPosition="8.578125" Velocity="0" />
      <note Length="0.03125" Pitch="40" RiffPosition="8.59375" Velocity="0" />
      <note Length="0.03125" Pitch="47" RiffPosition="8.625" Velocity="72" />
      <note Length="0.0234375" Pitch="48" RiffPosition="8.65625" Velocity="71" />
      <note Length="0.0078125" Pitch="54" RiffPosition="8.6796875" Velocity="52" />
      <note Length="0.01171875" Pitch="54" RiffPosition="8.6875" Velocity="46" />
      <note Length="0.00390625" Pitch="53" RiffPosition="8.69921875" Velocity="64" />
      <note Length="0.015625" Pitch="53" RiffPosition="8.703125" Velocity="72" />
      <note Length="0.03125" Pitch="52" RiffPosition="8.71875" Velocity="57" />
      <note Length="0.03125" Pitch="44" RiffPosition="8.75" Velocity="67" />
      <note Length="0.03125" Pitch="44" RiffPosition="8.78125" Velocity="82" />
      <note Length="0.015625" Pitch="36" RiffPosition="8.8125" Velocity="0" />
      <note Length="0.015625" Pitch="36" RiffPosition="8.828125" Velocity="0" />
      <note Length="0.03125" Pitch="35" RiffPosition="8.84375" Velocity="0" />
      <note Length="0.03125" Pitch="41" RiffPosition="8.875" Velocity="46" />
      <note Length="0.0234375" Pitch="40" RiffPosition="8.90625" Velocity="0" />
      <note Length="0.0078125" Pitch="47" RiffPosition="8.9296875" Velocity="97" />
      <note Length="0.01171875" Pitch="47" RiffPosition="8.9375" Velocity="79" />
      <note Length="0.00390625" Pitch="47" RiffPosition="8.94921875" Velocity="51" />
      <note Length="0.015625" Pitch="47" RiffPosition="8.953125" Velocity="42" />
      <note Length="0.03125" Pitch="48" RiffPosition="8.96875" Velocity="70" />
      <note Length="0.03125" Pitch="44" RiffPosition="9" Velocity="49" />
      <note Length="0.03125" Pitch="44" RiffPosition="9.03125" Velocity="93" />
      <note Length="0.015625" Pitch="39" RiffPosition="9.0625" Velocity="0" />
      <note Length="0.015625" Pitch="40" RiffPosition="9.078125" Velocity="0" />
      <note Length="0.03125" Pitch="40" RiffPosition="9.09375" Velocity="0" />
      <note Length="0.03125" Pitch="47" RiffPosition="9.125" Velocity="68" />
      <note Length="0.0234375" Pitch="48" RiffPosition="9.15625" Velocity="69" />
      <note Length="0.0078125" Pitch="54" RiffPosition="9.1796875" Velocity="55" />
      <note Length="0.01171875" Pitch="54" RiffPosition="9.1875" Velocity="43" />
      <note Length="0.00390625" Pitch="53" RiffPosition="9.19921875" Velocity="66" />
      <note Length="0.015625" Pitch="53" RiffPosition="9.203125" Velocity="74" />
      <note Length="0.03125" Pitch="52" RiffPosition="9.21875" Velocity="58" />
      <note Length="0.03125" Pitch="44" RiffPosition="9.25" Velocity="69" />
      <note Length="0.03125" Pitch="44" RiffPosition="9.28125" Velocity="85" />
      <note Length="0.015625" Pitch="36" RiffPosition="9.3125" Velocity="0" />
      <note Length="0.015625" Pitch="36" RiffPosition="9.328125" Velocity="0" />
      <note Length="0.03125" Pitch="35" RiffPosition="9.34375" Velocity="0" />
      <note Length="0.03125" Pitch="41" RiffPosition="9.375" Velocity="49" />
      <note Length="0.0234375" Pitch="40" RiffPosition="9.40625" Velocity="0" />
      <note Length="0.0078125" Pitch="47" RiffPosition="9.4296875" Velocity="94" />
      <note Length="0.01171875" Pitch="47" RiffPosition="9.4375" Velocity="83" />
      <note Length="0.00390625" Pitch="47" RiffPosition="9.44921875" Velocity="55" />
      <note Length="0.015625" Pitch="47" RiffPosition="9.453125" Velocity="45" />
      <note Length="0.03125" Pitch="48" RiffPosition="9.46875" Velocity="72" />
      <note Length="0.03125" Pitch="44" RiffPosition="9.5" Velocity="46" />
      <note Length="0.03125" Pitch="44" RiffPosition="9.53125" Velocity="91" />
      <note Length="0.015625" Pitch="39" RiffPosition="9.5625" Velocity="0" />
      <note Length="0.015625" Pitch="40" RiffPosition="9.578125" Velocity="0" />
      <note Length="0.03125" Pitch="40" RiffPosition="9.59375" Velocity="0" />
      <note Length="0.03125" Pitch="47" RiffPosition="9.625" Velocity="71" />
      <note Length="0.0234375" Pitch="48" RiffPosition="9.65625" Velocity="72" />
      <note Length="0.0078125" Pitch="54" RiffPosition="9.6796875" Velocity="53" />
      <note Length="0.01171875" Pitch="54" RiffPosition="9.6875" Velocity="45" />
      <note Length="0.00390625" Pitch="53" RiffPosition="9.69921875" Velocity="69" />
      <note Length="0.015625" Pitch="53" RiffPosition="9.703125" Velocity="71" />
      <note Length="0.03125" Pitch="52" RiffPosition="9.71875" Velocity="57" />
      <note Length="0.03125" Pitch="44" RiffPosition="9.75" Velocity="71" />
      <note Length="0.03125" Pitch="44" RiffPosition="9.78125" Velocity="83" />
      <note Length="0.015625" Pitch="36" RiffPosition="9.8125" Velocity="0" />
      <note Length="0.015625" Pitch="36" RiffPosition="9.828125" Velocity="0" />
      <note Length="0.03125" Pitch="35" RiffPosition="9.84375" Velocity="0" />
      <note Length="0.03125" Pitch="41" RiffPosition="9.875" Velocity="45" />
      <note Length="0.0234375" Pitch="40" RiffPosition="9.90625" Velocity="0" />
      <note Length="0.0078125" Pitch="47" RiffPosition="9.9296875" Velocity="97" />
      <note Length="0.01171875" Pitch="47" RiffPosition="9.9375" Velocity="80" />
      <note Length="0.00390625" Pitch="47" RiffPosition="9.94921875" Velocity="52" />
      <note Length="0.015625" Pitch="47" RiffPosition="9.953125" Velocity="43" />
      <note Length="0.03125" Pitch="48" RiffPosition="9.96875" Velocity="69" />
      <note Length="0.03125" Pitch="44" RiffPosition="10" Velocity="49" />
      <note Length="0.03125" Pitch="44" RiffPosition="10.03125" Velocity="94" />
      <note Length="0.015625" Pitch="39" RiffPosition="10.0625" Velocity="0" />
      <note Length="0.015625" Pitch="40" RiffPosition="10.078125" Velocity="0" />
      <note Length="0.03125" Pitch="40" RiffPosition="10.09375" Velocity="0" />
      <note Length="0.03125" Pitch="47" RiffPosition="10.125" Velocity="67" />
      <note Length="0.0234375" Pitch="48" RiffPosition="10.15625" Velocity="70" />
      <note Length="0.0078125" Pitch="54" RiffPosition="10.1796875" Velocity="56" />
      <note Length="0.01171875" Pitch="54" RiffPosition="10.1875" Velocity="42" />
      <note Length="0.00390625" Pitch="53" RiffPosition="10.19921875" Velocity="66" />
      <note Length="0.015625" Pitch="53" RiffPosition="10.203125" Velocity="74" />
      <note Length="0.03125" Pitch="52" RiffPosition="10.21875" Velocity="58" />
      <note Length="0.03125" Pitch="44" RiffPosition="10.25" Velocity="68" />
      <note Length="0.03125" Pitch="44" RiffPosition="10.28125" Velocity="80" />
      <note Length="0.015625" Pitch="36" RiffPosition="10.3125" Velocity="0" />
      <note Length="0.015625" Pitch="36" RiffPosition="10.328125" Velocity="0" />
      <note Length="0.03125" Pitch="35" RiffPosition="10.34375" Velocity="0" />
      <note Length="0.03125" Pitch="41" RiffPosition="10.375" Velocity="48" />
      <note Length="0.0234375" Pitch="40" RiffPosition="10.40625" Velocity="0" />
      <note Length="0.0078125" Pitch="47" RiffPosition="10.4296875" Velocity="95" />
      <note Length="0.01171875" Pitch="47" RiffPosition="10.4375" Velocity="78" />
      <note Length="0.00390625" Pitch="47" RiffPosition="10.44921875" Velocity="55" />
      <note Length="0.015625" Pitch="47" RiffPosition="10.453125" Velocity="46" />
      <note Length="0.03125" Pitch="48" RiffPosition="10.46875" Velocity="71" />
      <note Length="0.03125" Pitch="44" RiffPosition="10.5" Velocity="45" />
      <note Length="0.03125" Pitch="44" RiffPosition="10.53125" Velocity="92" />
      <note Length="0.015625" Pitch="39" RiffPosition="10.5625" Velocity="0" />
      <note Length="0.015625" Pitch="40" RiffPosition="10.578125" Velocity="0" />
      <note Length="0.03125" Pitch="40" RiffPosition="10.59375" Velocity="0" />
      <note Length="0.03125" Pitch="47" RiffPosition="10.625" Velocity="70" />
      <note Length="0.0234375" Pitch="48" RiffPosition="10.65625" Velocity="73" />
      <note Length="0.0078125" Pitch="54" RiffPosition="10.6796875" Velocity="53" />
      <note Length="0.01171875" Pitch="54" RiffPosition="10.6875" Velocity="44" />
      <note Length="0.00390625" Pitch="53" RiffPosition="10.69921875" Velocity="68" />
      <note Length="0.015625" Pitch="53" RiffPosition="10.703125" Velocity="76" />
      <note Length="0.03125" Pitch="52" RiffPosition="10.71875" Velocity="56" />
      <note Length="0.03125" Pitch="44" RiffPosition="10.75" Velocity="71" />
      <note Length="0.03125" Pitch="44" RiffPosition="10.78125" Velocity="83" />
      <note Length="0.015625" Pitch="36" RiffPosition="10.8125" Velocity="0" />
      <note Length="0.015625" Pitch="36" RiffPosition="10.828125" Velocity="0" />
      <note Length="0.03125" Pitch="35" RiffPosition="10.84375" Velocity="0" />
      <note Length="0.03125" Pitch="41" RiffPosition="10.875" Velocity="44" />
      <note Length="0.0234375" Pitch="40" RiffPosition="10.90625" Velocity="0" />
      <note Length="0.0078125" Pitch="47" RiffPosition="10.9296875" Velocity="98" />
      <note Length="0.01171875" Pitch="47" RiffPosition="10.9375" Velocity="81" />
      <note Length="0.00390625" Pitch="47" RiffPosition="10.94921875" Velocity="53" />
      <note Length="0.015625" Pitch="47" RiffPosition="10.953125" Velocity="44" />
      <note Length="0.03125" Pitch="48" RiffPosition="10.96875" Velocity="74" />
      <note Length="0.03125" Pitch="44" RiffPosition="11" Velocity="0" />
      <note Length="0.03125" Pitch="44" RiffPosition="11.03125" Velocity="0" />
      <note Length="0.015625" Pitch="39" RiffPosition="11.0625" Velocity="0" />
      <note Length="0.015625" Pitch="40" RiffPosition="11.078125" Velocity="0" />
      <note Length="0.03125" Pitch="40" RiffPosition="11.09375" Velocity="0" />
      <note Length="0.03125" Pitch="47" RiffPosition="11.125" Velocity="0" />
      <note Length="0.0234375" Pitch="48" RiffPosition="11.15625" Velocity="0" />
      <note Length="0.0078125" Pitch="54" RiffPosition="11.1796875" Velocity="0" />
      <note Length="0.01171875" Pitch="54" RiffPosition="11.1875" Velocity="0" />
      <note Length="0.00390625" Pitch="53" RiffPosition="11.19921875" Velocity="0" />
      <note Length="0.015625" Pitch="53" RiffPosition="11.203125" Velocity="0" />
      <note Length="0.03125" Pitch="52" RiffPosition="11.21875" Velocity="0" />
      <note Length="0.03125" Pitch="44" RiffPosition="11.25" Velocity="0" />
      <note Length="0.03125" Pitch="44" RiffPosition="11.28125" Velocity="0" />
      <note Length="0.015625" Pitch="36" RiffPosition="11.3125" Velocity="0" />
      <note Length="0.015625" Pitch="36" RiffPosition="11.328125" Velocity="0" />
      <note Length="0.03125" Pitch="35" RiffPosition="11.34375" Velocity="0" />
      <note Length="0.03125" Pitch="41" RiffPosition="11.375" Velocity="0" />
      <note Length="0.0234375" Pitch="40" RiffPosition="11.40625" Velocity="0" />
      <note Length="0.0078125" Pitch="47" RiffPosition="11.4296875" Velocity="0" />
      <note Length="0.01171875" Pitch="47" RiffPosition="11.4375" Velocity="0" />
      <note Length="0.00390625" Pitch="47" RiffPosition="11.44921875" Velocity="0" />
      <note Length="0.015625" Pitch="47" RiffPosition="11.453125" Velocity="0" />
      <note Length="0.03125" Pitch="48" RiffPosition="11.46875" Velocity="0" />
      <note Length="0.03125" Pitch="44" RiffPosition="11.5" Velocity="0" />
      <note Length="0.03125" Pitch="44" RiffPosition="11.53125" Velocity="0" />
      <note Length="0.015625" Pitch="39" RiffPosition="11.5625" Velocity="0" />
      <note Length="0.015625" Pitch="40" RiffPosition="11.578125" Velocity="0" />
      <note Length="0.03125" Pitch="40" RiffPosition="11.59375" Velocity="0" />
      <note Length="0.03125" Pitch="47" RiffPosition="11.625" Velocity="0" />
      <note Length="0.0234375" Pitch="48" RiffPosition="11.65625" Velocity="0" />
      <note Length="0.0078125" Pitch="54" RiffPosition="11.6796875" Velocity="0" />
      <note Length="0.01171875" Pitch="54" RiffPosition="11.6875" Velocity="0" />
      <note Length="0.00390625" Pitch="53" RiffPosition="11.69921875" Velocity="0" />
      <note Length="0.015625" Pitch="53" RiffPosition="11.703125" Velocity="0" />
      <note Length="0.03125" Pitch="52" RiffPosition="11.71875" Velocity="0" />
      <note Length="0.03125" Pitch="44" RiffPosition="11.75" Velocity="0" />
      <note Length="0.03125" Pitch="44" RiffPosition="11.78125" Velocity="0" />
      <note Length="0.015625" Pitch="36" RiffPosition="11.8125" Velocity="0" />
      <note Length="0.015625" Pitch="36" RiffPosition="11.828125" Velocity="0" />
      <note Length="0.03125" Pitch="35" RiffPosition="11.84375" Velocity="0" />
      <note Length="0.03125" Pitch="41" RiffPosition="11.875" Velocity="0" />
      <note Length="0.0234375" Pitch="40" RiffPosition="11.90625" Velocity="0" />
      <note Length="0.0078125" Pitch="47" RiffPosition="11.9296875" Velocity="0" />
      <note Length="0.01171875" Pitch="47" RiffPosition="11.9375" Velocity="0" />
      <note Length="0.00390625" Pitch="47" RiffPosition="11.94921875" Velocity="0" />
      <note Length="0.015625" Pitch="47" RiffPosition="11.953125" Velocity="0" />
      <note Length="0.03125" Pitch="48" RiffPosition="11.96875" Velocity="0" />
      <note Length="0.03125" Pitch="44" RiffPosition="12" Velocity="0" />
      <note Length="0.03125" Pitch="44" RiffPosition="12.03125" Velocity="0" />
      <note Length="0.015625" Pitch="39" RiffPosition="12.0625" Velocity="0" />
      <note Length="0.015625" Pitch="40" RiffPosition="12.078125" Velocity="0" />
      <note Length="0.03125" Pitch="40" RiffPosition="12.09375" Velocity="0" />
      <note Length="0.03125" Pitch="47" RiffPosition="12.125" Velocity="0" />
      <note Length="0.0234375" Pitch="48" RiffPosition="12.15625" Velocity="0" />
      <note Length="0.0078125" Pitch="54" RiffPosition="12.1796875" Velocity="0" />
      <note Length="0.01171875" Pitch="54" RiffPosition="12.1875" Velocity="0" />
      <note Length="0.00390625" Pitch="53" RiffPosition="12.19921875" Velocity="0" />
      <note Length="0.015625" Pitch="53" RiffPosition="12.203125" Velocity="0" />
      <note Length="0.03125" Pitch="52" RiffPosition="12.21875" Velocity="0" />
      <note Length="0.03125" Pitch="44" RiffPosition="12.25" Velocity="0" />
      <note Length="0.03125" Pitch="44" RiffPosition="12.28125" Velocity="0" />
      <note Length="0.015625" Pitch="36" RiffPosition="12.3125" Velocity="0" />
      <note Length="0.015625" Pitch="36" RiffPosition="12.328125" Velocity="0" />
      <note Length="0.03125" Pitch="35" RiffPosition="12.34375" Velocity="0" />
      <note Length="0.03125" Pitch="41" RiffPosition="12.375" Velocity="0" />
      <note Length="0.0234375" Pitch="40" RiffPosition="12.40625" Velocity="0" />
      <note Length="0.0078125" Pitch="47" RiffPosition="12.4296875" Velocity="0" />
      <note Length="0.01171875" Pitch="47" RiffPosition="12.4375" Velocity="0" />
      <note Length="0.00390625" Pitch="47" RiffPosition="12.44921875" Velocity="0" />
      <note Length="0.015625" Pitch="47" RiffPosition="12.453125" Velocity="0" />
      <note Length="0.03125" Pitch="48" RiffPosition="12.46875" Velocity="0" />
      <note Length="0.03125" Pitch="44" RiffPosition="12.5" Velocity="0" />
      <note Length="0.03125" Pitch="44" RiffPosition="12.53125" Velocity="0" />
      <note Length="0.015625" Pitch="39" RiffPosition="12.5625" Velocity="0" />
      <note Length="0.015625" Pitch="40" RiffPosition="12.578125" Velocity="0" />
      <note Length="0.03125" Pitch="40" RiffPosition="12.59375" Velocity="0" />
      <note Length="0.03125" Pitch="47" RiffPosition="12.625" Velocity="0" />
      <note Length="0.0234375" Pitch="48" RiffPosition="12.65625" Velocity="0" />
      <note Length="0.0078125" Pitch="54" RiffPosition="12.6796875" Velocity="0" />
      <note Length="0.01171875" Pitch="54" RiffPosition="12.6875" Velocity="0" />
      <note Length="0.00390625" Pitch="53" RiffPosition="12.69921875" Velocity="0" />
      <note Length="0.015625" Pitch="53" RiffPosition="12.703125" Velocity="0" />
      <note Length="0.03125" Pitch="52" RiffPosition="12.71875" Velocity="0" />
      <note Length="0.03125" Pitch="44" RiffPosition="12.75" Velocity="0" />
      <note Length="0.03125" Pitch="44" RiffPosition="12.78125" Velocity="0" />
      <note Length="0.015625" Pitch="36" RiffPosition="12.8125" Velocity="0" />
      <note Length="0.015625" Pitch="36" RiffPosition="12.828125" Velocity="0" />
      <note Length="0.03125" Pitch="35" RiffPosition="12.84375" Velocity="0" />
      <note Length="0.03125" Pitch="41" RiffPosition="12.875" Velocity="0" />
      <note Length="0.0234375" Pitch="40" RiffPosition="12.90625" Velocity="0" />
      <note Length="0.0078125" Pitch="47" RiffPosition="12.9296875" Velocity="0" />
      <note Length="0.01171875" Pitch="47" RiffPosition="12.9375" Velocity="0" />
      <note Length="0.00390625" Pitch="47" RiffPosition="12.94921875" Velocity="0" />
      <note Length="0.015625" Pitch="47" RiffPosition="12.953125" Velocity="0" />
      <note Length="0.03125" Pitch="48" RiffPosition="12.96875" Velocity="0" />
    </riff>
    <riff IsDrum="False" MidiInstrument="24" Tempo="120" Length="13">
      <note Length="0.015625" Pitch="62" RiffPosition="0" Velocity="0" />
      <note Length="0.015625" Pitch="49" RiffPosition="0.015625" Velocity="0" />
      <note Length="0.03125" Pitch="62" RiffPosition="0.03125" Velocity="0" />
      <note Length="0.015625" Pitch="65" RiffPosition="0.0625" Velocity="0" />
      <note Length="0.046875" Pitch="49" RiffPosition="0.078125" Velocity="0" />
      <note Length="0.03125" Pitch="49" RiffPosition="0.125" Velocity="0" />
      <note Length="0.03125" Pitch="56" RiffPosition="0.15625" Velocity="0" />
      <note Length="0.03125" Pitch="49" RiffPosition="0.1875" Velocity="0" />
      <note Length="0.03125" Pitch="56" RiffPosition="0.21875" Velocity="0" />
      <note Length="0.015625" Pitch="61" RiffPosition="0.25" Velocity="0" />
      <note Length="0.015625" Pitch="49" RiffPosition="0.265625" Velocity="0" />
      <note Length="0.03125" Pitch="49" RiffPosition="0.28125" Velocity="0" />
      <note Length="0.015625" Pitch="62" RiffPosition="0.3125" Velocity="0" />
      <note Length="0.046875" Pitch="62" RiffPosition="0.328125" Velocity="0" />
      <note Length="0.03125" Pitch="66" RiffPosition="0.375" Velocity="0" />
      <note Length="0.03125" Pitch="49" RiffPosition="0.40625" Velocity="0" />
      <note Length="0.03125" Pitch="62" RiffPosition="0.4375" Velocity="0" />
      <note Length="0.03125" Pitch="49" RiffPosition="0.46875" Velocity="0" />
      <note Length="0.015625" Pitch="62" RiffPosition="0.5" Velocity="0" />
      <note Length="0.015625" Pitch="49" RiffPosition="0.515625" Velocity="0" />
      <note Length="0.03125" Pitch="61" RiffPosition="0.53125" Velocity="0" />
      <note Length="0.015625" Pitch="62" RiffPosition="0.5625" Velocity="0" />
      <note Length="0.046875" Pitch="62" RiffPosition="0.578125" Velocity="0" />
      <note Length="0.03125" Pitch="49" RiffPosition="0.625" Velocity="0" />
      <note Length="0.03125" Pitch="56" RiffPosition="0.65625" Velocity="0" />
      <note Length="0.03125" Pitch="49" RiffPosition="0.6875" Velocity="0" />
      <note Length="0.03125" Pitch="54" RiffPosition="0.71875" Velocity="0" />
      <note Length="0.015625" Pitch="62" RiffPosition="0.75" Velocity="0" />
      <note Length="0.015625" Pitch="49" RiffPosition="0.765625" Velocity="0" />
      <note Length="0.03125" Pitch="62" RiffPosition="0.78125" Velocity="0" />
      <note Length="0.015625" Pitch="62" RiffPosition="0.8125" Velocity="0" />
      <note Length="0.046875" Pitch="62" RiffPosition="0.828125" Velocity="0" />
      <note Length="0.03125" Pitch="65" RiffPosition="0.875" Velocity="0" />
      <note Length="0.03125" Pitch="62" RiffPosition="0.90625" Velocity="0" />
      <note Length="0.03125" Pitch="62" RiffPosition="0.9375" Velocity="0" />
      <note Length="0.03125" Pitch="49" RiffPosition="0.96875" Velocity="0" />
      <note Length="0.015625" Pitch="61" RiffPosition="1" Velocity="0" />
      <note Length="0.015625" Pitch="60" RiffPosition="1.015625" Velocity="0" />
      <note Length="0.03125" Pitch="48" RiffPosition="1.03125" Velocity="0" />
      <note Length="0.015625" Pitch="61" RiffPosition="1.0625" Velocity="0" />
      <note Length="0.046875" Pitch="60" RiffPosition="1.078125" Velocity="0" />
      <note Length="0.03125" Pitch="48" RiffPosition="1.125" Velocity="0" />
      <note Length="0.03125" Pitch="53" RiffPosition="1.15625" Velocity="0" />
      <note Length="0.03125" Pitch="48" RiffPosition="1.1875" Velocity="0" />
      <note Length="0.03125" Pitch="48" RiffPosition="1.21875" Velocity="0" />
      <note Length="0.015625" Pitch="48" RiffPosition="1.25" Velocity="0" />
      <note Length="0.015625" Pitch="48" RiffPosition="1.265625" Velocity="0" />
      <note Length="0.03125" Pitch="48" RiffPosition="1.28125" Velocity="0" />
      <note Length="0.015625" Pitch="65" RiffPosition="1.3125" Velocity="0" />
      <note Length="0.046875" Pitch="61" RiffPosition="1.328125" Velocity="0" />
      <note Length="0.03125" Pitch="64" RiffPosition="1.375" Velocity="0" />
      <note Length="0.03125" Pitch="60" RiffPosition="1.40625" Velocity="0" />
      <note Length="0.03125" Pitch="61" RiffPosition="1.4375" Velocity="0" />
      <note Length="0.03125" Pitch="48" RiffPosition="1.46875" Velocity="0" />
      <note Length="0.015625" Pitch="61" RiffPosition="1.5" Velocity="0" />
      <note Length="0.015625" Pitch="48" RiffPosition="1.515625" Velocity="0" />
      <note Length="0.03125" Pitch="61" RiffPosition="1.53125" Velocity="0" />
      <note Length="0.015625" Pitch="61" RiffPosition="1.5625" Velocity="0" />
      <note Length="0.046875" Pitch="48" RiffPosition="1.578125" Velocity="0" />
      <note Length="0.03125" Pitch="60" RiffPosition="1.625" Velocity="0" />
      <note Length="0.03125" Pitch="55" RiffPosition="1.65625" Velocity="0" />
      <note Length="0.03125" Pitch="55" RiffPosition="1.6875" Velocity="0" />
      <note Length="0.03125" Pitch="55" RiffPosition="1.71875" Velocity="0" />
      <note Length="0.015625" Pitch="61" RiffPosition="1.75" Velocity="0" />
      <note Length="0.015625" Pitch="56" RiffPosition="1.765625" Velocity="0" />
      <note Length="0.03125" Pitch="60" RiffPosition="1.78125" Velocity="0" />
      <note Length="0.015625" Pitch="64" RiffPosition="1.8125" Velocity="0" />
      <note Length="0.046875" Pitch="61" RiffPosition="1.828125" Velocity="0" />
      <note Length="0.03125" Pitch="61" RiffPosition="1.875" Velocity="0" />
      <note Length="0.03125" Pitch="48" RiffPosition="1.90625" Velocity="0" />
      <note Length="0.03125" Pitch="61" RiffPosition="1.9375" Velocity="0" />
      <note Length="0.03125" Pitch="48" RiffPosition="1.96875" Velocity="0" />
      <note Length="0.015625" Pitch="61" RiffPosition="2" Velocity="0" />
      <note Length="0.015625" Pitch="48" RiffPosition="2.015625" Velocity="0" />
      <note Length="0.03125" Pitch="61" RiffPosition="2.03125" Velocity="0" />
      <note Length="0.015625" Pitch="61" RiffPosition="2.0625" Velocity="0" />
      <note Length="0.046875" Pitch="60" RiffPosition="2.078125" Velocity="0" />
      <note Length="0.03125" Pitch="48" RiffPosition="2.125" Velocity="0" />
      <note Length="0.03125" Pitch="53" RiffPosition="2.15625" Velocity="0" />
      <note Length="0.03125" Pitch="48" RiffPosition="2.1875" Velocity="0" />
      <note Length="0.03125" Pitch="55" RiffPosition="2.21875" Velocity="0" />
      <note Length="0.015625" Pitch="61" RiffPosition="2.25" Velocity="0" />
      <note Length="0.015625" Pitch="48" RiffPosition="2.265625" Velocity="0" />
      <note Length="0.03125" Pitch="61" RiffPosition="2.28125" Velocity="0" />
      <note Length="0.015625" Pitch="61" RiffPosition="2.3125" Velocity="0" />
      <note Length="0.046875" Pitch="61" RiffPosition="2.328125" Velocity="0" />
      <note Length="0.03125" Pitch="64" RiffPosition="2.375" Velocity="0" />
      <note Length="0.03125" Pitch="48" RiffPosition="2.40625" Velocity="0" />
      <note Length="0.03125" Pitch="61" RiffPosition="2.4375" Velocity="0" />
      <note Length="0.03125" Pitch="48" RiffPosition="2.46875" Velocity="0" />
      <note Length="0.015625" Pitch="64" RiffPosition="2.5" Velocity="0" />
      <note Length="0.015625" Pitch="48" RiffPosition="2.515625" Velocity="0" />
      <note Length="0.03125" Pitch="48" RiffPosition="2.53125" Velocity="0" />
      <note Length="0.015625" Pitch="61" RiffPosition="2.5625" Velocity="0" />
      <note Length="0.046875" Pitch="60" RiffPosition="2.578125" Velocity="0" />
      <note Length="0.03125" Pitch="48" RiffPosition="2.625" Velocity="0" />
      <note Length="0.03125" Pitch="53" RiffPosition="2.65625" Velocity="0" />
      <note Length="0.03125" Pitch="48" RiffPosition="2.6875" Velocity="0" />
      <note Length="0.03125" Pitch="55" RiffPosition="2.71875" Velocity="0" />
      <note Length="0.015625" Pitch="60" RiffPosition="2.75" Velocity="0" />
      <note Length="0.015625" Pitch="48" RiffPosition="2.765625" Velocity="0" />
      <note Length="0.03125" Pitch="60" RiffPosition="2.78125" Velocity="0" />
      <note Length="0.015625" Pitch="65" RiffPosition="2.8125" Velocity="0" />
      <note Length="0.046875" Pitch="61" RiffPosition="2.828125" Velocity="0" />
      <note Length="0.03125" Pitch="61" RiffPosition="2.875" Velocity="0" />
      <note Length="0.03125" Pitch="60" RiffPosition="2.90625" Velocity="0" />
      <note Length="0.03125" Pitch="60" RiffPosition="2.9375" Velocity="0" />
      <note Length="0.03125" Pitch="48" RiffPosition="2.96875" Velocity="0" />
      <note Length="0.015625" Pitch="60" RiffPosition="3" Velocity="0" />
      <note Length="0.015625" Pitch="47" RiffPosition="3.015625" Velocity="0" />
      <note Length="0.03125" Pitch="60" RiffPosition="3.03125" Velocity="0" />
      <note Length="0.015625" Pitch="60" RiffPosition="3.0625" Velocity="0" />
      <note Length="0.046875" Pitch="47" RiffPosition="3.078125" Velocity="0" />
      <note Length="0.03125" Pitch="59" RiffPosition="3.125" Velocity="0" />
      <note Length="0.03125" Pitch="51" RiffPosition="3.15625" Velocity="0" />
      <note Length="0.03125" Pitch="55" RiffPosition="3.1875" Velocity="0" />
      <note Length="0.03125" Pitch="55" RiffPosition="3.21875" Velocity="0" />
      <note Length="0.015625" Pitch="47" RiffPosition="3.25" Velocity="0" />
      <note Length="0.015625" Pitch="47" RiffPosition="3.265625" Velocity="0" />
      <note Length="0.03125" Pitch="47" RiffPosition="3.28125" Velocity="0" />
      <note Length="0.015625" Pitch="64" RiffPosition="3.3125" Velocity="0" />
      <note Length="0.046875" Pitch="60" RiffPosition="3.328125" Velocity="0" />
      <note Length="0.03125" Pitch="63" RiffPosition="3.375" Velocity="0" />
      <note Length="0.03125" Pitch="47" RiffPosition="3.40625" Velocity="0" />
      <note Length="0.03125" Pitch="60" RiffPosition="3.4375" Velocity="0" />
      <note Length="0.03125" Pitch="47" RiffPosition="3.46875" Velocity="0" />
      <note Length="0.015625" Pitch="60" RiffPosition="3.5" Velocity="0" />
      <note Length="0.015625" Pitch="47" RiffPosition="3.515625" Velocity="0" />
      <note Length="0.03125" Pitch="60" RiffPosition="3.53125" Velocity="0" />
      <note Length="0.015625" Pitch="63" RiffPosition="3.5625" Velocity="0" />
      <note Length="0.046875" Pitch="47" RiffPosition="3.578125" Velocity="0" />
      <note Length="0.03125" Pitch="47" RiffPosition="3.625" Velocity="0" />
      <note Length="0.03125" Pitch="54" RiffPosition="3.65625" Velocity="0" />
      <note Length="0.03125" Pitch="47" RiffPosition="3.6875" Velocity="0" />
      <note Length="0.03125" Pitch="54" RiffPosition="3.71875" Velocity="0" />
      <note Length="0.015625" Pitch="59" RiffPosition="3.75" Velocity="0" />
      <note Length="0.015625" Pitch="47" RiffPosition="3.765625" Velocity="0" />
      <note Length="0.03125" Pitch="47" RiffPosition="3.78125" Velocity="0" />
      <note Length="0.015625" Pitch="60" RiffPosition="3.8125" Velocity="0" />
      <note Length="0.046875" Pitch="60" RiffPosition="3.828125" Velocity="0" />
      <note Length="0.03125" Pitch="64" RiffPosition="3.875" Velocity="0" />
      <note Length="0.03125" Pitch="47" RiffPosition="3.90625" Velocity="0" />
      <note Length="0.03125" Pitch="60" RiffPosition="3.9375" Velocity="0" />
      <note Length="0.03125" Pitch="47" RiffPosition="3.96875" Velocity="0" />
      <note Length="0.015625" Pitch="71" RiffPosition="4" Velocity="0" />
      <note Length="0.015625" Pitch="58" RiffPosition="4.015625" Velocity="0" />
      <note Length="0.03125" Pitch="70" RiffPosition="4.03125" Velocity="0" />
      <note Length="0.015625" Pitch="71" RiffPosition="4.0625" Velocity="0" />
      <note Length="0.046875" Pitch="71" RiffPosition="4.078125" Velocity="0" />
      <note Length="0.03125" Pitch="58" RiffPosition="4.125" Velocity="0" />
      <note Length="0.03125" Pitch="62" RiffPosition="4.15625" Velocity="0" />
      <note Length="0.03125" Pitch="58" RiffPosition="4.1875" Velocity="0" />
      <note Length="0.03125" Pitch="63" RiffPosition="4.21875" Velocity="0" />
      <note Length="0.015625" Pitch="71" RiffPosition="4.25" Velocity="0" />
      <note Length="0.015625" Pitch="58" RiffPosition="4.265625" Velocity="0" />
      <note Length="0.03125" Pitch="71" RiffPosition="4.28125" Velocity="0" />
      <note Length="0.015625" Pitch="71" RiffPosition="4.3125" Velocity="0" />
      <note Length="0.046875" Pitch="71" RiffPosition="4.328125" Velocity="0" />
      <note Length="0.03125" Pitch="74" RiffPosition="4.375" Velocity="0" />
      <note Length="0.03125" Pitch="71" RiffPosition="4.40625" Velocity="0" />
      <note Length="0.03125" Pitch="71" RiffPosition="4.4375" Velocity="0" />
      <note Length="0.03125" Pitch="58" RiffPosition="4.46875" Velocity="0" />
      <note Length="0.015625" Pitch="71" RiffPosition="4.5" Velocity="0" />
      <note Length="0.015625" Pitch="70" RiffPosition="4.515625" Velocity="0" />
      <note Length="0.03125" Pitch="58" RiffPosition="4.53125" Velocity="0" />
      <note Length="0.015625" Pitch="71" RiffPosition="4.5625" Velocity="0" />
      <note Length="0.046875" Pitch="70" RiffPosition="4.578125" Velocity="0" />
      <note Length="0.03125" Pitch="58" RiffPosition="4.625" Velocity="0" />
      <note Length="0.03125" Pitch="63" RiffPosition="4.65625" Velocity="0" />
      <note Length="0.03125" Pitch="58" RiffPosition="4.6875" Velocity="0" />
      <note Length="0.03125" Pitch="58" RiffPosition="4.71875" Velocity="0" />
      <note Length="0.015625" Pitch="58" RiffPosition="4.75" Velocity="0" />
      <note Length="0.015625" Pitch="58" RiffPosition="4.765625" Velocity="0" />
      <note Length="0.03125" Pitch="58" RiffPosition="4.78125" Velocity="0" />
      <note Length="0.015625" Pitch="75" RiffPosition="4.8125" Velocity="0" />
      <note Length="0.046875" Pitch="71" RiffPosition="4.828125" Velocity="0" />
      <note Length="0.03125" Pitch="74" RiffPosition="4.875" Velocity="0" />
      <note Length="0.03125" Pitch="70" RiffPosition="4.90625" Velocity="0" />
      <note Length="0.03125" Pitch="71" RiffPosition="4.9375" Velocity="0" />
      <note Length="0.03125" Pitch="58" RiffPosition="4.96875" Velocity="0" />
      <note Length="0.015625" Pitch="71" RiffPosition="5" Velocity="0" />
      <note Length="0.015625" Pitch="58" RiffPosition="5.015625" Velocity="0" />
      <note Length="0.03125" Pitch="70" RiffPosition="5.03125" Velocity="0" />
      <note Length="0.015625" Pitch="71" RiffPosition="5.0625" Velocity="0" />
      <note Length="0.046875" Pitch="58" RiffPosition="5.078125" Velocity="0" />
      <note Length="0.03125" Pitch="70" RiffPosition="5.125" Velocity="0" />
      <note Length="0.03125" Pitch="65" RiffPosition="5.15625" Velocity="0" />
      <note Length="0.03125" Pitch="65" RiffPosition="5.1875" Velocity="0" />
      <note Length="0.03125" Pitch="65" RiffPosition="5.21875" Velocity="0" />
      <note Length="0.015625" Pitch="71" RiffPosition="5.25" Velocity="0" />
      <note Length="0.015625" Pitch="58" RiffPosition="5.265625" Velocity="0" />
      <note Length="0.03125" Pitch="70" RiffPosition="5.28125" Velocity="0" />
      <note Length="0.015625" Pitch="74" RiffPosition="5.3125" Velocity="0" />
      <note Length="0.046875" Pitch="71" RiffPosition="5.328125" Velocity="0" />
      <note Length="0.03125" Pitch="71" RiffPosition="5.375" Velocity="0" />
      <note Length="0.03125" Pitch="58" RiffPosition="5.40625" Velocity="0" />
      <note Length="0.03125" Pitch="71" RiffPosition="5.4375" Velocity="0" />
      <note Length="0.03125" Pitch="58" RiffPosition="5.46875" Velocity="0" />
      <note Length="0.015625" Pitch="71" RiffPosition="5.5" Velocity="0" />
      <note Length="0.015625" Pitch="58" RiffPosition="5.515625" Velocity="0" />
      <note Length="0.03125" Pitch="71" RiffPosition="5.53125" Velocity="0" />
      <note Length="0.015625" Pitch="71" RiffPosition="5.5625" Velocity="0" />
      <note Length="0.046875" Pitch="70" RiffPosition="5.578125" Velocity="0" />
      <note Length="0.03125" Pitch="58" RiffPosition="5.625" Velocity="0" />
      <note Length="0.03125" Pitch="63" RiffPosition="5.65625" Velocity="0" />
      <note Length="0.03125" Pitch="58" RiffPosition="5.6875" Velocity="0" />
      <note Length="0.03125" Pitch="65" RiffPosition="5.71875" Velocity="0" />
      <note Length="0.015625" Pitch="71" RiffPosition="5.75" Velocity="0" />
      <note Length="0.015625" Pitch="58" RiffPosition="5.765625" Velocity="0" />
      <note Length="0.03125" Pitch="71" RiffPosition="5.78125" Velocity="0" />
      <note Length="0.015625" Pitch="71" RiffPosition="5.8125" Velocity="0" />
      <note Length="0.046875" Pitch="71" RiffPosition="5.828125" Velocity="0" />
      <note Length="0.03125" Pitch="74" RiffPosition="5.875" Velocity="0" />
      <note Length="0.03125" Pitch="58" RiffPosition="5.90625" Velocity="0" />
      <note Length="0.03125" Pitch="71" RiffPosition="5.9375" Velocity="0" />
      <note Length="0.03125" Pitch="58" RiffPosition="5.96875" Velocity="0" />
      <note Length="0.015625" Pitch="66" RiffPosition="6" Velocity="75" />
      <note Length="0.015625" Pitch="50" RiffPosition="6.015625" Velocity="70" />
      <note Length="0.03125" Pitch="50" RiffPosition="6.03125" Velocity="92" />
      <note Length="0.015625" Pitch="63" RiffPosition="6.0625" Velocity="117" />
      <note Length="0.046875" Pitch="62" RiffPosition="6.078125" Velocity="111" />
      <note Length="0.03125" Pitch="50" RiffPosition="6.125" Velocity="62" />
      <note Length="0.03125" Pitch="55" RiffPosition="6.15625" Velocity="50" />
      <note Length="0.03125" Pitch="50" RiffPosition="6.1875" Velocity="52" />
      <note Length="0.03125" Pitch="57" RiffPosition="6.21875" Velocity="55" />
      <note Length="0.015625" Pitch="62" RiffPosition="6.25" Velocity="111" />
      <note Length="0.015625" Pitch="50" RiffPosition="6.265625" Velocity="102" />
      <note Length="0.03125" Pitch="62" RiffPosition="6.28125" Velocity="106" />
      <note Length="0.015625" Pitch="67" RiffPosition="6.3125" Velocity="81" />
      <note Length="0.046875" Pitch="63" RiffPosition="6.328125" Velocity="100" />
      <note Length="0.03125" Pitch="63" RiffPosition="6.375" Velocity="100" />
      <note Length="0.03125" Pitch="62" RiffPosition="6.40625" Velocity="67" />
      <note Length="0.03125" Pitch="62" RiffPosition="6.4375" Velocity="48" />
      <note Length="0.03125" Pitch="50" RiffPosition="6.46875" Velocity="79" />
      <note Length="0.015625" Pitch="63" RiffPosition="6.5" Velocity="96" />
      <note Length="0.015625" Pitch="50" RiffPosition="6.515625" Velocity="91" />
      <note Length="0.03125" Pitch="63" RiffPosition="6.53125" Velocity="73" />
      <note Length="0.015625" Pitch="63" RiffPosition="6.5625" Velocity="98" />
      <note Length="0.046875" Pitch="50" RiffPosition="6.578125" Velocity="119" />
      <note Length="0.03125" Pitch="62" RiffPosition="6.625" Velocity="83" />
      <note Length="0.03125" Pitch="54" RiffPosition="6.65625" Velocity="57" />
      <note Length="0.03125" Pitch="58" RiffPosition="6.6875" Velocity="47" />
      <note Length="0.03125" Pitch="58" RiffPosition="6.71875" Velocity="61" />
      <note Length="0.015625" Pitch="63" RiffPosition="6.75" Velocity="103" />
      <note Length="0.015625" Pitch="50" RiffPosition="6.765625" Velocity="120" />
      <note Length="0.03125" Pitch="50" RiffPosition="6.78125" Velocity="99" />
      <note Length="0.015625" Pitch="67" RiffPosition="6.8125" Velocity="100" />
      <note Length="0.046875" Pitch="63" RiffPosition="6.828125" Velocity="79" />
      <note Length="0.03125" Pitch="66" RiffPosition="6.875" Velocity="93" />
      <note Length="0.03125" Pitch="50" RiffPosition="6.90625" Velocity="59" />
      <note Length="0.03125" Pitch="63" RiffPosition="6.9375" Velocity="69" />
      <note Length="0.03125" Pitch="50" RiffPosition="6.96875" Velocity="60" />
      <note Length="0.015625" Pitch="62" RiffPosition="7" Velocity="77" />
      <note Length="0.015625" Pitch="49" RiffPosition="7.015625" Velocity="99" />
      <note Length="0.03125" Pitch="62" RiffPosition="7.03125" Velocity="94" />
      <note Length="0.015625" Pitch="65" RiffPosition="7.0625" Velocity="106" />
      <note Length="0.046875" Pitch="49" RiffPosition="7.078125" Velocity="100" />
      <note Length="0.03125" Pitch="49" RiffPosition="7.125" Velocity="64" />
      <note Length="0.03125" Pitch="56" RiffPosition="7.15625" Velocity="52" />
      <note Length="0.03125" Pitch="49" RiffPosition="7.1875" Velocity="41" />
      <note Length="0.03125" Pitch="56" RiffPosition="7.21875" Velocity="53" />
      <note Length="0.015625" Pitch="61" RiffPosition="7.25" Velocity="109" />
      <note Length="0.015625" Pitch="49" RiffPosition="7.265625" Velocity="100" />
      <note Length="0.03125" Pitch="62" RiffPosition="7.28125" Velocity="117" />
      <note Length="0.015625" Pitch="62" RiffPosition="7.3125" Velocity="92" />
      <note Length="0.046875" Pitch="62" RiffPosition="7.328125" Velocity="98" />
      <note Length="0.03125" Pitch="66" RiffPosition="7.375" Velocity="72" />
      <note Length="0.03125" Pitch="49" RiffPosition="7.40625" Velocity="78" />
      <note Length="0.03125" Pitch="62" RiffPosition="7.4375" Velocity="50" />
      <note Length="0.03125" Pitch="49" RiffPosition="7.46875" Velocity="81" />
      <note Length="0.015625" Pitch="62" RiffPosition="7.5" Velocity="85" />
      <note Length="0.015625" Pitch="49" RiffPosition="7.515625" Velocity="80" />
      <note Length="0.03125" Pitch="61" RiffPosition="7.53125" Velocity="102" />
      <note Length="0.015625" Pitch="62" RiffPosition="7.5625" Velocity="100" />
      <note Length="0.046875" Pitch="49" RiffPosition="7.578125" Velocity="121" />
      <note Length="0.03125" Pitch="49" RiffPosition="7.625" Velocity="72" />
      <note Length="0.03125" Pitch="53" RiffPosition="7.65625" Velocity="59" />
      <note Length="0.03125" Pitch="49" RiffPosition="7.6875" Velocity="45" />
      <note Length="0.03125" Pitch="54" RiffPosition="7.71875" Velocity="72" />
      <note Length="0.015625" Pitch="62" RiffPosition="7.75" Velocity="101" />
      <note Length="0.015625" Pitch="49" RiffPosition="7.765625" Velocity="118" />
      <note Length="0.03125" Pitch="62" RiffPosition="7.78125" Velocity="97" />
      <note Length="0.015625" Pitch="62" RiffPosition="7.8125" Velocity="84" />
      <note Length="0.046875" Pitch="62" RiffPosition="7.828125" Velocity="90" />
      <note Length="0.03125" Pitch="65" RiffPosition="7.875" Velocity="91" />
      <note Length="0.03125" Pitch="62" RiffPosition="7.90625" Velocity="57" />
      <note Length="0.03125" Pitch="62" RiffPosition="7.9375" Velocity="58" />
      <note Length="0.03125" Pitch="49" RiffPosition="7.96875" Velocity="89" />
      <note Length="0.015625" Pitch="61" RiffPosition="8" Velocity="79" />
      <note Length="0.015625" Pitch="60" RiffPosition="8.015625" Velocity="88" />
      <note Length="0.03125" Pitch="48" RiffPosition="8.03125" Velocity="83" />
      <note Length="0.015625" Pitch="61" RiffPosition="8.0625" Velocity="108" />
      <note Length="0.046875" Pitch="60" RiffPosition="8.078125" Velocity="102" />
      <note Length="0.03125" Pitch="48" RiffPosition="8.125" Velocity="53" />
      <note Length="0.03125" Pitch="53" RiffPosition="8.15625" Velocity="41" />
      <note Length="0.03125" Pitch="48" RiffPosition="8.1875" Velocity="43" />
      <note Length="0.03125" Pitch="48" RiffPosition="8.21875" Velocity="51" />
      <note Length="0.015625" Pitch="48" RiffPosition="8.25" Velocity="93" />
      <note Length="0.015625" Pitch="48" RiffPosition="8.265625" Velocity="111" />
      <note Length="0.03125" Pitch="48" RiffPosition="8.28125" Velocity="115" />
      <note Length="0.015625" Pitch="65" RiffPosition="8.3125" Velocity="90" />
      <note Length="0.046875" Pitch="61" RiffPosition="8.328125" Velocity="70" />
      <note Length="0.03125" Pitch="64" RiffPosition="8.375" Velocity="83" />
      <note Length="0.03125" Pitch="60" RiffPosition="8.40625" Velocity="49" />
      <note Length="0.03125" Pitch="61" RiffPosition="8.4375" Velocity="52" />
      <note Length="0.03125" Pitch="48" RiffPosition="8.46875" Velocity="70" />
      <note Length="0.015625" Pitch="61" RiffPosition="8.5" Velocity="87" />
      <note Length="0.015625" Pitch="48" RiffPosition="8.515625" Velocity="82" />
      <note Length="0.03125" Pitch="60" RiffPosition="8.53125" Velocity="104" />
      <note Length="0.015625" Pitch="61" RiffPosition="8.5625" Velocity="89" />
      <note Length="0.046875" Pitch="48" RiffPosition="8.578125" Velocity="110" />
      <note Length="0.03125" Pitch="60" RiffPosition="8.625" Velocity="73" />
      <note Length="0.03125" Pitch="55" RiffPosition="8.65625" Velocity="48" />
      <note Length="0.03125" Pitch="55" RiffPosition="8.6875" Velocity="51" />
      <note Length="0.03125" Pitch="55" RiffPosition="8.71875" Velocity="70" />
      <note Length="0.015625" Pitch="61" RiffPosition="8.75" Velocity="99" />
      <note Length="0.015625" Pitch="48" RiffPosition="8.765625" Velocity="103" />
      <note Length="0.03125" Pitch="60" RiffPosition="8.78125" Velocity="108" />
      <note Length="0.015625" Pitch="64" RiffPosition="8.8125" Velocity="82" />
      <note Length="0.046875" Pitch="61" RiffPosition="8.828125" Velocity="88" />
      <note Length="0.03125" Pitch="61" RiffPosition="8.875" Velocity="102" />
      <note Length="0.03125" Pitch="48" RiffPosition="8.90625" Velocity="68" />
      <note Length="0.03125" Pitch="61" RiffPosition="8.9375" Velocity="60" />
      <note Length="0.03125" Pitch="48" RiffPosition="8.96875" Velocity="91" />
      <note Length="0.015625" Pitch="61" RiffPosition="9" Velocity="68" />
      <note Length="0.015625" Pitch="48" RiffPosition="9.015625" Velocity="90" />
      <note Length="0.03125" Pitch="61" RiffPosition="9.03125" Velocity="85" />
      <note Length="0.015625" Pitch="61" RiffPosition="9.0625" Velocity="110" />
      <note Length="0.046875" Pitch="60" RiffPosition="9.078125" Velocity="91" />
      <note Length="0.03125" Pitch="48" RiffPosition="9.125" Velocity="81" />
      <note Length="0.03125" Pitch="53" RiffPosition="9.15625" Velocity="43" />
      <note Length="0.03125" Pitch="48" RiffPosition="9.1875" Velocity="48" />
      <note Length="0.03125" Pitch="55" RiffPosition="9.21875" Velocity="62" />
      <note Length="0.015625" Pitch="61" RiffPosition="9.25" Velocity="91" />
      <note Length="0.015625" Pitch="48" RiffPosition="9.265625" Velocity="109" />
      <note Length="0.03125" Pitch="61" RiffPosition="9.28125" Velocity="87" />
      <note Length="0.015625" Pitch="61" RiffPosition="9.3125" Velocity="101" />
      <note Length="0.046875" Pitch="60" RiffPosition="9.328125" Velocity="81" />
      <note Length="0.03125" Pitch="64" RiffPosition="9.375" Velocity="81" />
      <note Length="0.03125" Pitch="48" RiffPosition="9.40625" Velocity="60" />
      <note Length="0.03125" Pitch="61" RiffPosition="9.4375" Velocity="41" />
      <note Length="0.03125" Pitch="48" RiffPosition="9.46875" Velocity="72" />
      <note Length="0.015625" Pitch="64" RiffPosition="9.5" Velocity="76" />
      <note Length="0.015625" Pitch="48" RiffPosition="9.515625" Velocity="71" />
      <note Length="0.03125" Pitch="48" RiffPosition="9.53125" Velocity="93" />
      <note Length="0.015625" Pitch="61" RiffPosition="9.5625" Velocity="118" />
      <note Length="0.046875" Pitch="60" RiffPosition="9.578125" Velocity="112" />
      <note Length="0.03125" Pitch="48" RiffPosition="9.625" Velocity="63" />
      <note Length="0.03125" Pitch="53" RiffPosition="9.65625" Velocity="50" />
      <note Length="0.03125" Pitch="48" RiffPosition="9.6875" Velocity="53" />
      <note Length="0.03125" Pitch="55" RiffPosition="9.71875" Velocity="55" />
      <note Length="0.015625" Pitch="60" RiffPosition="9.75" Velocity="110" />
      <note Length="0.015625" Pitch="48" RiffPosition="9.765625" Velocity="101" />
      <note Length="0.03125" Pitch="60" RiffPosition="9.78125" Velocity="106" />
      <note Length="0.015625" Pitch="65" RiffPosition="9.8125" Velocity="81" />
      <note Length="0.046875" Pitch="61" RiffPosition="9.828125" Velocity="99" />
      <note Length="0.03125" Pitch="61" RiffPosition="9.875" Velocity="100" />
      <note Length="0.03125" Pitch="60" RiffPosition="9.90625" Velocity="66" />
      <note Length="0.03125" Pitch="60" RiffPosition="9.9375" Velocity="49" />
      <note Length="0.03125" Pitch="48" RiffPosition="9.96875" Velocity="80" />
      <note Length="0.015625" Pitch="60" RiffPosition="10" Velocity="97" />
      <note Length="0.015625" Pitch="47" RiffPosition="10.015625" Velocity="92" />
      <note Length="0.03125" Pitch="60" RiffPosition="10.03125" Velocity="74" />
      <note Length="0.015625" Pitch="60" RiffPosition="10.0625" Velocity="99" />
      <note Length="0.046875" Pitch="47" RiffPosition="10.078125" Velocity="120" />
      <note Length="0.03125" Pitch="47" RiffPosition="10.125" Velocity="83" />
      <note Length="0.03125" Pitch="51" RiffPosition="10.15625" Velocity="58" />
      <note Length="0.03125" Pitch="55" RiffPosition="10.1875" Velocity="46" />
      <note Length="0.03125" Pitch="55" RiffPosition="10.21875" Velocity="61" />
      <note Length="0.015625" Pitch="60" RiffPosition="10.25" Velocity="102" />
      <note Length="0.015625" Pitch="47" RiffPosition="10.265625" Velocity="120" />
      <note Length="0.03125" Pitch="47" RiffPosition="10.28125" Velocity="98" />
      <note Length="0.015625" Pitch="64" RiffPosition="10.3125" Velocity="99" />
      <note Length="0.046875" Pitch="60" RiffPosition="10.328125" Velocity="79" />
      <note Length="0.03125" Pitch="63" RiffPosition="10.375" Velocity="92" />
      <note Length="0.03125" Pitch="47" RiffPosition="10.40625" Velocity="58" />
      <note Length="0.03125" Pitch="60" RiffPosition="10.4375" Velocity="69" />
      <note Length="0.03125" Pitch="47" RiffPosition="10.46875" Velocity="61" />
      <note Length="0.015625" Pitch="60" RiffPosition="10.5" Velocity="78" />
      <note Length="0.015625" Pitch="47" RiffPosition="10.515625" Velocity="99" />
      <note Length="0.03125" Pitch="60" RiffPosition="10.53125" Velocity="95" />
      <note Length="0.015625" Pitch="63" RiffPosition="10.5625" Velocity="107" />
      <note Length="0.046875" Pitch="47" RiffPosition="10.578125" Velocity="101" />
      <note Length="0.03125" Pitch="47" RiffPosition="10.625" Velocity="64" />
      <note Length="0.03125" Pitch="54" RiffPosition="10.65625" Velocity="52" />
      <note Length="0.03125" Pitch="47" RiffPosition="10.6875" Velocity="42" />
      <note Length="0.03125" Pitch="54" RiffPosition="10.71875" Velocity="53" />
      <note Length="0.015625" Pitch="59" RiffPosition="10.75" Velocity="108" />
      <note Length="0.015625" Pitch="47" RiffPosition="10.765625" Velocity="99" />
      <note Length="0.03125" Pitch="60" RiffPosition="10.78125" Velocity="117" />
      <note Length="0.015625" Pitch="60" RiffPosition="10.8125" Velocity="92" />
      <note Length="0.046875" Pitch="60" RiffPosition="10.828125" Velocity="97" />
      <note Length="0.03125" Pitch="64" RiffPosition="10.875" Velocity="71" />
      <note Length="0.03125" Pitch="47" RiffPosition="10.90625" Velocity="77" />
      <note Length="0.03125" Pitch="60" RiffPosition="10.9375" Velocity="51" />
      <note Length="0.03125" Pitch="47" RiffPosition="10.96875" Velocity="82" />
      <note Length="0.015625" Pitch="70" RiffPosition="11" Velocity="86" />
      <note Length="0.015625" Pitch="58" RiffPosition="11.015625" Velocity="81" />
      <note Length="0.03125" Pitch="70" RiffPosition="11.03125" Velocity="103" />
      <note Length="0.015625" Pitch="71" RiffPosition="11.0625" Velocity="101" />
      <note Length="0.046875" Pitch="58" RiffPosition="11.078125" Velocity="122" />
      <note Length="0.03125" Pitch="58" RiffPosition="11.125" Velocity="72" />
      <note Length="0.03125" Pitch="62" RiffPosition="11.15625" Velocity="60" />
      <note Length="0.03125" Pitch="58" RiffPosition="11.1875" Velocity="44" />
      <note Length="0.03125" Pitch="63" RiffPosition="11.21875" Velocity="71" />
      <note Length="0.015625" Pitch="71" RiffPosition="11.25" Velocity="100" />
      <note Length="0.015625" Pitch="58" RiffPosition="11.265625" Velocity="118" />
      <note Length="0.03125" Pitch="71" RiffPosition="11.28125" Velocity="96" />
      <note Length="0.015625" Pitch="75" RiffPosition="11.3125" Velocity="84" />
      <note Length="0.046875" Pitch="71" RiffPosition="11.328125" Velocity="90" />
      <note Length="0.03125" Pitch="74" RiffPosition="11.375" Velocity="90" />
      <note Length="0.03125" Pitch="71" RiffPosition="11.40625" Velocity="56" />
      <note Length="0.03125" Pitch="71" RiffPosition="11.4375" Velocity="58" />
      <note Length="0.03125" Pitch="58" RiffPosition="11.46875" Velocity="90" />
      <note Length="0.015625" Pitch="71" RiffPosition="11.5" Velocity="80" />
      <note Length="0.015625" Pitch="70" RiffPosition="11.515625" Velocity="101" />
      <note Length="0.03125" Pitch="58" RiffPosition="11.53125" Velocity="84" />
      <note Length="0.015625" Pitch="71" RiffPosition="11.5625" Velocity="109" />
      <note Length="0.046875" Pitch="70" RiffPosition="11.578125" Velocity="103" />
      <note Length="0.03125" Pitch="58" RiffPosition="11.625" Velocity="53" />
      <note Length="0.03125" Pitch="63" RiffPosition="11.65625" Velocity="41" />
      <note Length="0.03125" Pitch="58" RiffPosition="11.6875" Velocity="44" />
      <note Length="0.03125" Pitch="58" RiffPosition="11.71875" Velocity="51" />
      <note Length="0.015625" Pitch="58" RiffPosition="11.75" Velocity="92" />
      <note Length="0.015625" Pitch="58" RiffPosition="11.765625" Velocity="110" />
      <note Length="0.03125" Pitch="58" RiffPosition="11.78125" Velocity="115" />
      <note Length="0.015625" Pitch="75" RiffPosition="11.8125" Velocity="90" />
      <note Length="0.046875" Pitch="71" RiffPosition="11.828125" Velocity="69" />
      <note Length="0.03125" Pitch="71" RiffPosition="11.875" Velocity="82" />
      <note Length="0.03125" Pitch="70" RiffPosition="11.90625" Velocity="49" />
      <note Length="0.03125" Pitch="71" RiffPosition="11.9375" Velocity="53" />
      <note Length="0.03125" Pitch="58" RiffPosition="11.96875" Velocity="71" />
      <note Length="0.015625" Pitch="71" RiffPosition="12" Velocity="0" />
      <note Length="0.015625" Pitch="58" RiffPosition="12.015625" Velocity="0" />
      <note Length="0.03125" Pitch="70" RiffPosition="12.03125" Velocity="0" />
      <note Length="0.015625" Pitch="71" RiffPosition="12.0625" Velocity="0" />
      <note Length="0.046875" Pitch="58" RiffPosition="12.078125" Velocity="0" />
      <note Length="0.03125" Pitch="70" RiffPosition="12.125" Velocity="0" />
      <note Length="0.03125" Pitch="65" RiffPosition="12.15625" Velocity="0" />
      <note Length="0.03125" Pitch="65" RiffPosition="12.1875" Velocity="0" />
      <note Length="0.03125" Pitch="65" RiffPosition="12.21875" Velocity="0" />
      <note Length="0.015625" Pitch="71" RiffPosition="12.25" Velocity="0" />
      <note Length="0.015625" Pitch="58" RiffPosition="12.265625" Velocity="0" />
      <note Length="0.03125" Pitch="70" RiffPosition="12.28125" Velocity="0" />
      <note Length="0.015625" Pitch="74" RiffPosition="12.3125" Velocity="0" />
      <note Length="0.046875" Pitch="71" RiffPosition="12.328125" Velocity="0" />
      <note Length="0.03125" Pitch="71" RiffPosition="12.375" Velocity="0" />
      <note Length="0.03125" Pitch="58" RiffPosition="12.40625" Velocity="0" />
      <note Length="0.03125" Pitch="71" RiffPosition="12.4375" Velocity="0" />
      <note Length="0.03125" Pitch="58" RiffPosition="12.46875" Velocity="0" />
      <note Length="0.015625" Pitch="71" RiffPosition="12.5" Velocity="0" />
      <note Length="0.015625" Pitch="58" RiffPosition="12.515625" Velocity="0" />
      <note Length="0.03125" Pitch="71" RiffPosition="12.53125" Velocity="0" />
      <note Length="0.015625" Pitch="71" RiffPosition="12.5625" Velocity="0" />
      <note Length="0.046875" Pitch="70" RiffPosition="12.578125" Velocity="0" />
      <note Length="0.03125" Pitch="58" RiffPosition="12.625" Velocity="0" />
      <note Length="0.03125" Pitch="63" RiffPosition="12.65625" Velocity="0" />
      <note Length="0.03125" Pitch="58" RiffPosition="12.6875" Velocity="0" />
      <note Length="0.03125" Pitch="65" RiffPosition="12.71875" Velocity="0" />
      <note Length="0.015625" Pitch="58" RiffPosition="12.75" Velocity="0" />
      <note Length="0.015625" Pitch="58" RiffPosition="12.765625" Velocity="0" />
      <note Length="0.03125" Pitch="71" RiffPosition="12.78125" Velocity="0" />
      <note Length="0.015625" Pitch="71" RiffPosition="12.8125" Velocity="0" />
      <note Length="0.046875" Pitch="70" RiffPosition="12.828125" Velocity="0" />
      <note Length="0.03125" Pitch="74" RiffPosition="12.875" Velocity="0" />
      <note Length="0.03125" Pitch="58" RiffPosition="12.90625" Velocity="0" />
      <note Length="0.03125" Pitch="71" RiffPosition="12.9375" Velocity="0" />
      <note Length="0.03125" Pitch="58" RiffPosition="12.96875" Velocity="0" />
    </riff>
    <riff IsDrum="False" MidiInstrument="24" Tempo="92" Length="13">
      <note Length="0.03125" Pitch="62" RiffPosition="0" Velocity="0" />
      <note Length="0.03125" Pitch="62" RiffPosition="0.03125" Velocity="0" />
      <note Length="0.03125" Pitch="62" RiffPosition="0.0625" Velocity="0" />
      <note Length="0.03125" Pitch="49" RiffPosition="0.09375" Velocity="0" />
      <note Length="0.046875" Pitch="49" RiffPosition="0.125" Velocity="0" />
      <note Length="0.015625" Pitch="62" RiffPosition="0.171875" Velocity="0" />
      <note Length="0.03125" Pitch="62" RiffPosition="0.1875" Velocity="0" />
      <note Length="0.03125" Pitch="49" RiffPosition="0.21875" Velocity="0" />
      <note Length="0.03125" Pitch="49" RiffPosition="0.25" Velocity="0" />
      <note Length="0.03125" Pitch="62" RiffPosition="0.28125" Velocity="0" />
      <note Length="0.03125" Pitch="61" RiffPosition="0.3125" Velocity="0" />
      <note Length="0.03125" Pitch="49" RiffPosition="0.34375" Velocity="0" />
      <note Length="0.046875" Pitch="49" RiffPosition="0.375" Velocity="0" />
      <note Length="0.015625" Pitch="49" RiffPosition="0.421875" Velocity="0" />
      <note Length="0.03125" Pitch="49" RiffPosition="0.4375" Velocity="0" />
      <note Length="0.03125" Pitch="56" RiffPosition="0.46875" Velocity="0" />
      <note Length="0.03125" Pitch="49" RiffPosition="0.5" Velocity="0" />
      <note Length="0.03125" Pitch="49" RiffPosition="0.53125" Velocity="0" />
      <note Length="0.03125" Pitch="49" RiffPosition="0.5625" Velocity="0" />
      <note Length="0.03125" Pitch="49" RiffPosition="0.59375" Velocity="0" />
      <note Length="0.046875" Pitch="49" RiffPosition="0.625" Velocity="0" />
      <note Length="0.015625" Pitch="66" RiffPosition="0.671875" Velocity="0" />
      <note Length="0.03125" Pitch="65" RiffPosition="0.6875" Velocity="0" />
      <note Length="0.03125" Pitch="62" RiffPosition="0.71875" Velocity="0" />
      <note Length="0.03125" Pitch="62" RiffPosition="0.75" Velocity="0" />
      <note Length="0.03125" Pitch="61" RiffPosition="0.78125" Velocity="0" />
      <note Length="0.03125" Pitch="65" RiffPosition="0.8125" Velocity="0" />
      <note Length="0.03125" Pitch="62" RiffPosition="0.84375" Velocity="0" />
      <note Length="0.046875" Pitch="62" RiffPosition="0.875" Velocity="0" />
      <note Length="0.015625" Pitch="49" RiffPosition="0.921875" Velocity="0" />
      <note Length="0.03125" Pitch="49" RiffPosition="0.9375" Velocity="0" />
      <note Length="0.03125" Pitch="57" RiffPosition="0.96875" Velocity="0" />
      <note Length="0.03125" Pitch="48" RiffPosition="1" Velocity="0" />
      <note Length="0.03125" Pitch="56" RiffPosition="1.03125" Velocity="0" />
      <note Length="0.03125" Pitch="55" RiffPosition="1.0625" Velocity="0" />
      <note Length="0.03125" Pitch="52" RiffPosition="1.09375" Velocity="0" />
      <note Length="0.046875" Pitch="53" RiffPosition="1.125" Velocity="0" />
      <note Length="0.015625" Pitch="61" RiffPosition="1.171875" Velocity="0" />
      <note Length="0.03125" Pitch="61" RiffPosition="1.1875" Velocity="0" />
      <note Length="0.03125" Pitch="48" RiffPosition="1.21875" Velocity="0" />
      <note Length="0.03125" Pitch="48" RiffPosition="1.25" Velocity="0" />
      <note Length="0.03125" Pitch="67" RiffPosition="1.28125" Velocity="0" />
      <note Length="0.03125" Pitch="65" RiffPosition="1.3125" Velocity="0" />
      <note Length="0.03125" Pitch="61" RiffPosition="1.34375" Velocity="0" />
      <note Length="0.046875" Pitch="64" RiffPosition="1.375" Velocity="0" />
      <note Length="0.015625" Pitch="64" RiffPosition="1.421875" Velocity="0" />
      <note Length="0.03125" Pitch="64" RiffPosition="1.4375" Velocity="0" />
      <note Length="0.03125" Pitch="61" RiffPosition="1.46875" Velocity="0" />
      <note Length="0.03125" Pitch="48" RiffPosition="1.5" Velocity="0" />
      <note Length="0.03125" Pitch="48" RiffPosition="1.53125" Velocity="0" />
      <note Length="0.03125" Pitch="48" RiffPosition="1.5625" Velocity="0" />
      <note Length="0.03125" Pitch="52" RiffPosition="1.59375" Velocity="0" />
      <note Length="0.046875" Pitch="53" RiffPosition="1.625" Velocity="0" />
      <note Length="0.015625" Pitch="48" RiffPosition="1.671875" Velocity="0" />
      <note Length="0.03125" Pitch="48" RiffPosition="1.6875" Velocity="0" />
      <note Length="0.03125" Pitch="56" RiffPosition="1.71875" Velocity="0" />
      <note Length="0.03125" Pitch="48" RiffPosition="1.75" Velocity="0" />
      <note Length="0.03125" Pitch="61" RiffPosition="1.78125" Velocity="0" />
      <note Length="0.03125" Pitch="64" RiffPosition="1.8125" Velocity="0" />
      <note Length="0.03125" Pitch="61" RiffPosition="1.84375" Velocity="0" />
      <note Length="0.046875" Pitch="61" RiffPosition="1.875" Velocity="0" />
      <note Length="0.015625" Pitch="65" RiffPosition="1.921875" Velocity="0" />
      <note Length="0.03125" Pitch="64" RiffPosition="1.9375" Velocity="0" />
      <note Length="0.03125" Pitch="61" RiffPosition="1.96875" Velocity="0" />
      <note Length="0.03125" Pitch="61" RiffPosition="2" Velocity="0" />
      <note Length="0.03125" Pitch="61" RiffPosition="2.03125" Velocity="0" />
      <note Length="0.03125" Pitch="61" RiffPosition="2.0625" Velocity="0" />
      <note Length="0.03125" Pitch="48" RiffPosition="2.09375" Velocity="0" />
      <note Length="0.046875" Pitch="48" RiffPosition="2.125" Velocity="0" />
      <note Length="0.015625" Pitch="61" RiffPosition="2.171875" Velocity="0" />
      <note Length="0.03125" Pitch="61" RiffPosition="2.1875" Velocity="0" />
      <note Length="0.03125" Pitch="48" RiffPosition="2.21875" Velocity="0" />
      <note Length="0.03125" Pitch="48" RiffPosition="2.25" Velocity="0" />
      <note Length="0.03125" Pitch="61" RiffPosition="2.28125" Velocity="0" />
      <note Length="0.03125" Pitch="60" RiffPosition="2.3125" Velocity="0" />
      <note Length="0.03125" Pitch="48" RiffPosition="2.34375" Velocity="0" />
      <note Length="0.046875" Pitch="48" RiffPosition="2.375" Velocity="0" />
      <note Length="0.015625" Pitch="48" RiffPosition="2.421875" Velocity="0" />
      <note Length="0.03125" Pitch="48" RiffPosition="2.4375" Velocity="0" />
      <note Length="0.03125" Pitch="55" RiffPosition="2.46875" Velocity="0" />
      <note Length="0.03125" Pitch="48" RiffPosition="2.5" Velocity="0" />
      <note Length="0.03125" Pitch="48" RiffPosition="2.53125" Velocity="0" />
      <note Length="0.03125" Pitch="48" RiffPosition="2.5625" Velocity="0" />
      <note Length="0.03125" Pitch="48" RiffPosition="2.59375" Velocity="0" />
      <note Length="0.046875" Pitch="48" RiffPosition="2.625" Velocity="0" />
      <note Length="0.015625" Pitch="65" RiffPosition="2.671875" Velocity="0" />
      <note Length="0.03125" Pitch="64" RiffPosition="2.6875" Velocity="0" />
      <note Length="0.03125" Pitch="61" RiffPosition="2.71875" Velocity="0" />
      <note Length="0.03125" Pitch="61" RiffPosition="2.75" Velocity="0" />
      <note Length="0.03125" Pitch="60" RiffPosition="2.78125" Velocity="0" />
      <note Length="0.03125" Pitch="64" RiffPosition="2.8125" Velocity="0" />
      <note Length="0.03125" Pitch="61" RiffPosition="2.84375" Velocity="0" />
      <note Length="0.046875" Pitch="61" RiffPosition="2.875" Velocity="0" />
      <note Length="0.015625" Pitch="48" RiffPosition="2.921875" Velocity="0" />
      <note Length="0.03125" Pitch="48" RiffPosition="2.9375" Velocity="0" />
      <note Length="0.03125" Pitch="56" RiffPosition="2.96875" Velocity="0" />
      <note Length="0.03125" Pitch="47" RiffPosition="3" Velocity="0" />
      <note Length="0.03125" Pitch="55" RiffPosition="3.03125" Velocity="0" />
      <note Length="0.03125" Pitch="54" RiffPosition="3.0625" Velocity="0" />
      <note Length="0.03125" Pitch="51" RiffPosition="3.09375" Velocity="0" />
      <note Length="0.046875" Pitch="52" RiffPosition="3.125" Velocity="0" />
      <note Length="0.015625" Pitch="60" RiffPosition="3.171875" Velocity="0" />
      <note Length="0.03125" Pitch="60" RiffPosition="3.1875" Velocity="0" />
      <note Length="0.03125" Pitch="47" RiffPosition="3.21875" Velocity="0" />
      <note Length="0.03125" Pitch="47" RiffPosition="3.25" Velocity="0" />
      <note Length="0.03125" Pitch="66" RiffPosition="3.28125" Velocity="0" />
      <note Length="0.03125" Pitch="64" RiffPosition="3.3125" Velocity="0" />
      <note Length="0.03125" Pitch="60" RiffPosition="3.34375" Velocity="0" />
      <note Length="0.046875" Pitch="63" RiffPosition="3.375" Velocity="0" />
      <note Length="0.015625" Pitch="63" RiffPosition="3.421875" Velocity="0" />
      <note Length="0.03125" Pitch="63" RiffPosition="3.4375" Velocity="0" />
      <note Length="0.03125" Pitch="60" RiffPosition="3.46875" Velocity="0" />
      <note Length="0.03125" Pitch="47" RiffPosition="3.5" Velocity="0" />
      <note Length="0.03125" Pitch="47" RiffPosition="3.53125" Velocity="0" />
      <note Length="0.03125" Pitch="47" RiffPosition="3.5625" Velocity="0" />
      <note Length="0.03125" Pitch="51" RiffPosition="3.59375" Velocity="0" />
      <note Length="0.046875" Pitch="52" RiffPosition="3.625" Velocity="0" />
      <note Length="0.015625" Pitch="47" RiffPosition="3.671875" Velocity="0" />
      <note Length="0.03125" Pitch="47" RiffPosition="3.6875" Velocity="0" />
      <note Length="0.03125" Pitch="55" RiffPosition="3.71875" Velocity="0" />
      <note Length="0.03125" Pitch="47" RiffPosition="3.75" Velocity="0" />
      <note Length="0.03125" Pitch="60" RiffPosition="3.78125" Velocity="0" />
      <note Length="0.03125" Pitch="63" RiffPosition="3.8125" Velocity="0" />
      <note Length="0.03125" Pitch="60" RiffPosition="3.84375" Velocity="0" />
      <note Length="0.046875" Pitch="60" RiffPosition="3.875" Velocity="0" />
      <note Length="0.015625" Pitch="64" RiffPosition="3.921875" Velocity="0" />
      <note Length="0.03125" Pitch="63" RiffPosition="3.9375" Velocity="0" />
      <note Length="0.03125" Pitch="60" RiffPosition="3.96875" Velocity="0" />
      <note Length="0.03125" Pitch="71" RiffPosition="4" Velocity="0" />
      <note Length="0.03125" Pitch="71" RiffPosition="4.03125" Velocity="0" />
      <note Length="0.03125" Pitch="71" RiffPosition="4.0625" Velocity="0" />
      <note Length="0.03125" Pitch="58" RiffPosition="4.09375" Velocity="0" />
      <note Length="0.046875" Pitch="58" RiffPosition="4.125" Velocity="0" />
      <note Length="0.015625" Pitch="71" RiffPosition="4.171875" Velocity="0" />
      <note Length="0.03125" Pitch="71" RiffPosition="4.1875" Velocity="0" />
      <note Length="0.03125" Pitch="58" RiffPosition="4.21875" Velocity="0" />
      <note Length="0.03125" Pitch="58" RiffPosition="4.25" Velocity="0" />
      <note Length="0.03125" Pitch="71" RiffPosition="4.28125" Velocity="0" />
      <note Length="0.03125" Pitch="70" RiffPosition="4.3125" Velocity="0" />
      <note Length="0.03125" Pitch="58" RiffPosition="4.34375" Velocity="0" />
      <note Length="0.046875" Pitch="58" RiffPosition="4.375" Velocity="0" />
      <note Length="0.015625" Pitch="58" RiffPosition="4.421875" Velocity="0" />
      <note Length="0.03125" Pitch="58" RiffPosition="4.4375" Velocity="0" />
      <note Length="0.03125" Pitch="65" RiffPosition="4.46875" Velocity="0" />
      <note Length="0.03125" Pitch="58" RiffPosition="4.5" Velocity="0" />
      <note Length="0.03125" Pitch="58" RiffPosition="4.53125" Velocity="0" />
      <note Length="0.03125" Pitch="58" RiffPosition="4.5625" Velocity="0" />
      <note Length="0.03125" Pitch="58" RiffPosition="4.59375" Velocity="0" />
      <note Length="0.046875" Pitch="58" RiffPosition="4.625" Velocity="0" />
      <note Length="0.015625" Pitch="75" RiffPosition="4.671875" Velocity="0" />
      <note Length="0.03125" Pitch="74" RiffPosition="4.6875" Velocity="0" />
      <note Length="0.03125" Pitch="71" RiffPosition="4.71875" Velocity="0" />
      <note Length="0.03125" Pitch="71" RiffPosition="4.75" Velocity="0" />
      <note Length="0.03125" Pitch="70" RiffPosition="4.78125" Velocity="0" />
      <note Length="0.03125" Pitch="74" RiffPosition="4.8125" Velocity="0" />
      <note Length="0.03125" Pitch="71" RiffPosition="4.84375" Velocity="0" />
      <note Length="0.046875" Pitch="71" RiffPosition="4.875" Velocity="0" />
      <note Length="0.015625" Pitch="58" RiffPosition="4.921875" Velocity="0" />
      <note Length="0.03125" Pitch="58" RiffPosition="4.9375" Velocity="0" />
      <note Length="0.03125" Pitch="66" RiffPosition="4.96875" Velocity="0" />
      <note Length="0.03125" Pitch="58" RiffPosition="5" Velocity="0" />
      <note Length="0.03125" Pitch="66" RiffPosition="5.03125" Velocity="0" />
      <note Length="0.03125" Pitch="65" RiffPosition="5.0625" Velocity="0" />
      <note Length="0.03125" Pitch="62" RiffPosition="5.09375" Velocity="0" />
      <note Length="0.046875" Pitch="63" RiffPosition="5.125" Velocity="0" />
      <note Length="0.015625" Pitch="71" RiffPosition="5.171875" Velocity="0" />
      <note Length="0.03125" Pitch="71" RiffPosition="5.1875" Velocity="0" />
      <note Length="0.03125" Pitch="58" RiffPosition="5.21875" Velocity="0" />
      <note Length="0.03125" Pitch="58" RiffPosition="5.25" Velocity="0" />
      <note Length="0.03125" Pitch="77" RiffPosition="5.28125" Velocity="0" />
      <note Length="0.03125" Pitch="75" RiffPosition="5.3125" Velocity="0" />
      <note Length="0.03125" Pitch="71" RiffPosition="5.34375" Velocity="0" />
      <note Length="0.046875" Pitch="74" RiffPosition="5.375" Velocity="0" />
      <note Length="0.015625" Pitch="74" RiffPosition="5.421875" Velocity="0" />
      <note Length="0.03125" Pitch="74" RiffPosition="5.4375" Velocity="0" />
      <note Length="0.03125" Pitch="71" RiffPosition="5.46875" Velocity="0" />
      <note Length="0.03125" Pitch="58" RiffPosition="5.5" Velocity="0" />
      <note Length="0.03125" Pitch="58" RiffPosition="5.53125" Velocity="0" />
      <note Length="0.03125" Pitch="58" RiffPosition="5.5625" Velocity="0" />
      <note Length="0.03125" Pitch="62" RiffPosition="5.59375" Velocity="0" />
      <note Length="0.046875" Pitch="63" RiffPosition="5.625" Velocity="0" />
      <note Length="0.015625" Pitch="58" RiffPosition="5.671875" Velocity="0" />
      <note Length="0.03125" Pitch="58" RiffPosition="5.6875" Velocity="0" />
      <note Length="0.03125" Pitch="66" RiffPosition="5.71875" Velocity="0" />
      <note Length="0.03125" Pitch="58" RiffPosition="5.75" Velocity="0" />
      <note Length="0.03125" Pitch="71" RiffPosition="5.78125" Velocity="0" />
      <note Length="0.03125" Pitch="74" RiffPosition="5.8125" Velocity="0" />
      <note Length="0.03125" Pitch="71" RiffPosition="5.84375" Velocity="0" />
      <note Length="0.046875" Pitch="71" RiffPosition="5.875" Velocity="0" />
      <note Length="0.015625" Pitch="75" RiffPosition="5.921875" Velocity="0" />
      <note Length="0.03125" Pitch="74" RiffPosition="5.9375" Velocity="0" />
      <note Length="0.03125" Pitch="71" RiffPosition="5.96875" Velocity="0" />
      <note Length="0.03125" Pitch="63" RiffPosition="6" Velocity="42" />
      <note Length="0.03125" Pitch="63" RiffPosition="6.03125" Velocity="77" />
      <note Length="0.03125" Pitch="63" RiffPosition="6.0625" Velocity="66" />
      <note Length="0.03125" Pitch="50" RiffPosition="6.09375" Velocity="55" />
      <note Length="0.046875" Pitch="50" RiffPosition="6.125" Velocity="66" />
      <note Length="0.015625" Pitch="63" RiffPosition="6.171875" Velocity="62" />
      <note Length="0.03125" Pitch="63" RiffPosition="6.1875" Velocity="67" />
      <note Length="0.03125" Pitch="50" RiffPosition="6.21875" Velocity="107" />
      <note Length="0.03125" Pitch="50" RiffPosition="6.25" Velocity="66" />
      <note Length="0.03125" Pitch="63" RiffPosition="6.28125" Velocity="73" />
      <note Length="0.03125" Pitch="62" RiffPosition="6.3125" Velocity="42" />
      <note Length="0.03125" Pitch="50" RiffPosition="6.34375" Velocity="67" />
      <note Length="0.046875" Pitch="50" RiffPosition="6.375" Velocity="125" />
      <note Length="0.015625" Pitch="50" RiffPosition="6.421875" Velocity="101" />
      <note Length="0.03125" Pitch="50" RiffPosition="6.4375" Velocity="95" />
      <note Length="0.03125" Pitch="57" RiffPosition="6.46875" Velocity="56" />
      <note Length="0.03125" Pitch="50" RiffPosition="6.5" Velocity="42" />
      <note Length="0.03125" Pitch="50" RiffPosition="6.53125" Velocity="95" />
      <note Length="0.03125" Pitch="50" RiffPosition="6.5625" Velocity="107" />
      <note Length="0.03125" Pitch="50" RiffPosition="6.59375" Velocity="118" />
      <note Length="0.046875" Pitch="50" RiffPosition="6.625" Velocity="106" />
      <note Length="0.015625" Pitch="67" RiffPosition="6.671875" Velocity="62" />
      <note Length="0.03125" Pitch="66" RiffPosition="6.6875" Velocity="67" />
      <note Length="0.03125" Pitch="63" RiffPosition="6.71875" Velocity="66" />
      <note Length="0.03125" Pitch="63" RiffPosition="6.75" Velocity="107" />
      <note Length="0.03125" Pitch="62" RiffPosition="6.78125" Velocity="100" />
      <note Length="0.03125" Pitch="66" RiffPosition="6.8125" Velocity="42" />
      <note Length="0.03125" Pitch="63" RiffPosition="6.84375" Velocity="67" />
      <note Length="0.046875" Pitch="63" RiffPosition="6.875" Velocity="48" />
      <note Length="0.015625" Pitch="50" RiffPosition="6.921875" Velocity="72" />
      <note Length="0.03125" Pitch="50" RiffPosition="6.9375" Velocity="77" />
      <note Length="0.03125" Pitch="58" RiffPosition="6.96875" Velocity="56" />
      <note Length="0.03125" Pitch="49" RiffPosition="7" Velocity="42" />
      <note Length="0.03125" Pitch="57" RiffPosition="7.03125" Velocity="77" />
      <note Length="0.03125" Pitch="56" RiffPosition="7.0625" Velocity="66" />
      <note Length="0.03125" Pitch="53" RiffPosition="7.09375" Velocity="55" />
      <note Length="0.046875" Pitch="54" RiffPosition="7.125" Velocity="66" />
      <note Length="0.015625" Pitch="62" RiffPosition="7.171875" Velocity="62" />
      <note Length="0.03125" Pitch="62" RiffPosition="7.1875" Velocity="67" />
      <note Length="0.03125" Pitch="49" RiffPosition="7.21875" Velocity="107" />
      <note Length="0.03125" Pitch="49" RiffPosition="7.25" Velocity="66" />
      <note Length="0.03125" Pitch="68" RiffPosition="7.28125" Velocity="73" />
      <note Length="0.03125" Pitch="66" RiffPosition="7.3125" Velocity="42" />
      <note Length="0.03125" Pitch="62" RiffPosition="7.34375" Velocity="67" />
      <note Length="0.046875" Pitch="65" RiffPosition="7.375" Velocity="125" />
      <note Length="0.015625" Pitch="65" RiffPosition="7.421875" Velocity="101" />
      <note Length="0.03125" Pitch="65" RiffPosition="7.4375" Velocity="95" />
      <note Length="0.03125" Pitch="62" RiffPosition="7.46875" Velocity="56" />
      <note Length="0.03125" Pitch="49" RiffPosition="7.5" Velocity="42" />
      <note Length="0.03125" Pitch="49" RiffPosition="7.53125" Velocity="95" />
      <note Length="0.03125" Pitch="49" RiffPosition="7.5625" Velocity="107" />
      <note Length="0.03125" Pitch="53" RiffPosition="7.59375" Velocity="118" />
      <note Length="0.046875" Pitch="54" RiffPosition="7.625" Velocity="106" />
      <note Length="0.015625" Pitch="49" RiffPosition="7.671875" Velocity="62" />
      <note Length="0.03125" Pitch="49" RiffPosition="7.6875" Velocity="67" />
      <note Length="0.03125" Pitch="57" RiffPosition="7.71875" Velocity="66" />
      <note Length="0.03125" Pitch="49" RiffPosition="7.75" Velocity="107" />
      <note Length="0.03125" Pitch="62" RiffPosition="7.78125" Velocity="100" />
      <note Length="0.03125" Pitch="65" RiffPosition="7.8125" Velocity="42" />
      <note Length="0.03125" Pitch="62" RiffPosition="7.84375" Velocity="67" />
      <note Length="0.046875" Pitch="62" RiffPosition="7.875" Velocity="48" />
      <note Length="0.015625" Pitch="66" RiffPosition="7.921875" Velocity="72" />
      <note Length="0.03125" Pitch="65" RiffPosition="7.9375" Velocity="77" />
      <note Length="0.03125" Pitch="62" RiffPosition="7.96875" Velocity="56" />
      <note Length="0.03125" Pitch="61" RiffPosition="8" Velocity="42" />
      <note Length="0.03125" Pitch="61" RiffPosition="8.03125" Velocity="77" />
      <note Length="0.03125" Pitch="61" RiffPosition="8.0625" Velocity="66" />
      <note Length="0.03125" Pitch="48" RiffPosition="8.09375" Velocity="55" />
      <note Length="0.046875" Pitch="48" RiffPosition="8.125" Velocity="66" />
      <note Length="0.015625" Pitch="61" RiffPosition="8.171875" Velocity="62" />
      <note Length="0.03125" Pitch="61" RiffPosition="8.1875" Velocity="67" />
      <note Length="0.03125" Pitch="48" RiffPosition="8.21875" Velocity="107" />
      <note Length="0.03125" Pitch="48" RiffPosition="8.25" Velocity="66" />
      <note Length="0.03125" Pitch="61" RiffPosition="8.28125" Velocity="73" />
      <note Length="0.03125" Pitch="60" RiffPosition="8.3125" Velocity="42" />
      <note Length="0.03125" Pitch="48" RiffPosition="8.34375" Velocity="67" />
      <note Length="0.046875" Pitch="48" RiffPosition="8.375" Velocity="125" />
      <note Length="0.015625" Pitch="48" RiffPosition="8.421875" Velocity="101" />
      <note Length="0.03125" Pitch="48" RiffPosition="8.4375" Velocity="95" />
      <note Length="0.03125" Pitch="55" RiffPosition="8.46875" Velocity="56" />
      <note Length="0.03125" Pitch="48" RiffPosition="8.5" Velocity="42" />
      <note Length="0.03125" Pitch="48" RiffPosition="8.53125" Velocity="95" />
      <note Length="0.03125" Pitch="48" RiffPosition="8.5625" Velocity="107" />
      <note Length="0.03125" Pitch="48" RiffPosition="8.59375" Velocity="118" />
      <note Length="0.046875" Pitch="48" RiffPosition="8.625" Velocity="106" />
      <note Length="0.015625" Pitch="65" RiffPosition="8.671875" Velocity="62" />
      <note Length="0.03125" Pitch="64" RiffPosition="8.6875" Velocity="67" />
      <note Length="0.03125" Pitch="61" RiffPosition="8.71875" Velocity="66" />
      <note Length="0.03125" Pitch="61" RiffPosition="8.75" Velocity="107" />
      <note Length="0.03125" Pitch="60" RiffPosition="8.78125" Velocity="100" />
      <note Length="0.03125" Pitch="64" RiffPosition="8.8125" Velocity="42" />
      <note Length="0.03125" Pitch="61" RiffPosition="8.84375" Velocity="67" />
      <note Length="0.046875" Pitch="61" RiffPosition="8.875" Velocity="48" />
      <note Length="0.015625" Pitch="48" RiffPosition="8.921875" Velocity="72" />
      <note Length="0.03125" Pitch="48" RiffPosition="8.9375" Velocity="77" />
      <note Length="0.03125" Pitch="56" RiffPosition="8.96875" Velocity="56" />
      <note Length="0.03125" Pitch="48" RiffPosition="9" Velocity="42" />
      <note Length="0.03125" Pitch="56" RiffPosition="9.03125" Velocity="77" />
      <note Length="0.03125" Pitch="55" RiffPosition="9.0625" Velocity="66" />
      <note Length="0.03125" Pitch="52" RiffPosition="9.09375" Velocity="55" />
      <note Length="0.046875" Pitch="53" RiffPosition="9.125" Velocity="66" />
      <note Length="0.015625" Pitch="61" RiffPosition="9.171875" Velocity="62" />
      <note Length="0.03125" Pitch="61" RiffPosition="9.1875" Velocity="67" />
      <note Length="0.03125" Pitch="48" RiffPosition="9.21875" Velocity="107" />
      <note Length="0.03125" Pitch="48" RiffPosition="9.25" Velocity="66" />
      <note Length="0.03125" Pitch="67" RiffPosition="9.28125" Velocity="73" />
      <note Length="0.03125" Pitch="65" RiffPosition="9.3125" Velocity="42" />
      <note Length="0.03125" Pitch="61" RiffPosition="9.34375" Velocity="67" />
      <note Length="0.046875" Pitch="64" RiffPosition="9.375" Velocity="125" />
      <note Length="0.015625" Pitch="64" RiffPosition="9.421875" Velocity="101" />
      <note Length="0.03125" Pitch="64" RiffPosition="9.4375" Velocity="95" />
      <note Length="0.03125" Pitch="61" RiffPosition="9.46875" Velocity="56" />
      <note Length="0.03125" Pitch="48" RiffPosition="9.5" Velocity="42" />
      <note Length="0.03125" Pitch="48" RiffPosition="9.53125" Velocity="95" />
      <note Length="0.03125" Pitch="48" RiffPosition="9.5625" Velocity="107" />
      <note Length="0.03125" Pitch="52" RiffPosition="9.59375" Velocity="118" />
      <note Length="0.046875" Pitch="53" RiffPosition="9.625" Velocity="106" />
      <note Length="0.015625" Pitch="48" RiffPosition="9.671875" Velocity="62" />
      <note Length="0.03125" Pitch="48" RiffPosition="9.6875" Velocity="67" />
      <note Length="0.03125" Pitch="56" RiffPosition="9.71875" Velocity="66" />
      <note Length="0.03125" Pitch="48" RiffPosition="9.75" Velocity="107" />
      <note Length="0.03125" Pitch="61" RiffPosition="9.78125" Velocity="100" />
      <note Length="0.03125" Pitch="64" RiffPosition="9.8125" Velocity="42" />
      <note Length="0.03125" Pitch="61" RiffPosition="9.84375" Velocity="67" />
      <note Length="0.046875" Pitch="61" RiffPosition="9.875" Velocity="48" />
      <note Length="0.015625" Pitch="65" RiffPosition="9.921875" Velocity="72" />
      <note Length="0.03125" Pitch="64" RiffPosition="9.9375" Velocity="77" />
      <note Length="0.03125" Pitch="61" RiffPosition="9.96875" Velocity="56" />
      <note Length="0.03125" Pitch="60" RiffPosition="10" Velocity="42" />
      <note Length="0.03125" Pitch="60" RiffPosition="10.03125" Velocity="77" />
      <note Length="0.03125" Pitch="60" RiffPosition="10.0625" Velocity="66" />
      <note Length="0.03125" Pitch="47" RiffPosition="10.09375" Velocity="55" />
      <note Length="0.046875" Pitch="47" RiffPosition="10.125" Velocity="66" />
      <note Length="0.015625" Pitch="60" RiffPosition="10.171875" Velocity="62" />
      <note Length="0.03125" Pitch="60" RiffPosition="10.1875" Velocity="67" />
      <note Length="0.03125" Pitch="47" RiffPosition="10.21875" Velocity="107" />
      <note Length="0.03125" Pitch="47" RiffPosition="10.25" Velocity="66" />
      <note Length="0.03125" Pitch="60" RiffPosition="10.28125" Velocity="73" />
      <note Length="0.03125" Pitch="59" RiffPosition="10.3125" Velocity="42" />
      <note Length="0.03125" Pitch="47" RiffPosition="10.34375" Velocity="67" />
      <note Length="0.046875" Pitch="47" RiffPosition="10.375" Velocity="125" />
      <note Length="0.015625" Pitch="47" RiffPosition="10.421875" Velocity="101" />
      <note Length="0.03125" Pitch="47" RiffPosition="10.4375" Velocity="95" />
      <note Length="0.03125" Pitch="54" RiffPosition="10.46875" Velocity="56" />
      <note Length="0.03125" Pitch="47" RiffPosition="10.5" Velocity="42" />
      <note Length="0.03125" Pitch="47" RiffPosition="10.53125" Velocity="95" />
      <note Length="0.03125" Pitch="47" RiffPosition="10.5625" Velocity="107" />
      <note Length="0.03125" Pitch="47" RiffPosition="10.59375" Velocity="118" />
      <note Length="0.046875" Pitch="47" RiffPosition="10.625" Velocity="106" />
      <note Length="0.015625" Pitch="64" RiffPosition="10.671875" Velocity="62" />
      <note Length="0.03125" Pitch="63" RiffPosition="10.6875" Velocity="67" />
      <note Length="0.03125" Pitch="60" RiffPosition="10.71875" Velocity="66" />
      <note Length="0.03125" Pitch="60" RiffPosition="10.75" Velocity="107" />
      <note Length="0.03125" Pitch="59" RiffPosition="10.78125" Velocity="100" />
      <note Length="0.03125" Pitch="63" RiffPosition="10.8125" Velocity="42" />
      <note Length="0.03125" Pitch="60" RiffPosition="10.84375" Velocity="67" />
      <note Length="0.046875" Pitch="60" RiffPosition="10.875" Velocity="48" />
      <note Length="0.015625" Pitch="47" RiffPosition="10.921875" Velocity="72" />
      <note Length="0.03125" Pitch="47" RiffPosition="10.9375" Velocity="77" />
      <note Length="0.03125" Pitch="55" RiffPosition="10.96875" Velocity="56" />
      <note Length="0.03125" Pitch="58" RiffPosition="11" Velocity="42" />
      <note Length="0.03125" Pitch="66" RiffPosition="11.03125" Velocity="77" />
      <note Length="0.03125" Pitch="65" RiffPosition="11.0625" Velocity="66" />
      <note Length="0.03125" Pitch="62" RiffPosition="11.09375" Velocity="55" />
      <note Length="0.046875" Pitch="63" RiffPosition="11.125" Velocity="66" />
      <note Length="0.015625" Pitch="71" RiffPosition="11.171875" Velocity="62" />
      <note Length="0.03125" Pitch="71" RiffPosition="11.1875" Velocity="67" />
      <note Length="0.03125" Pitch="58" RiffPosition="11.21875" Velocity="107" />
      <note Length="0.03125" Pitch="58" RiffPosition="11.25" Velocity="66" />
      <note Length="0.03125" Pitch="77" RiffPosition="11.28125" Velocity="73" />
      <note Length="0.03125" Pitch="75" RiffPosition="11.3125" Velocity="42" />
      <note Length="0.03125" Pitch="71" RiffPosition="11.34375" Velocity="67" />
      <note Length="0.046875" Pitch="74" RiffPosition="11.375" Velocity="125" />
      <note Length="0.015625" Pitch="74" RiffPosition="11.421875" Velocity="101" />
      <note Length="0.03125" Pitch="74" RiffPosition="11.4375" Velocity="95" />
      <note Length="0.03125" Pitch="71" RiffPosition="11.46875" Velocity="56" />
      <note Length="0.03125" Pitch="58" RiffPosition="11.5" Velocity="42" />
      <note Length="0.03125" Pitch="58" RiffPosition="11.53125" Velocity="95" />
      <note Length="0.03125" Pitch="58" RiffPosition="11.5625" Velocity="107" />
      <note Length="0.03125" Pitch="62" RiffPosition="11.59375" Velocity="118" />
      <note Length="0.046875" Pitch="63" RiffPosition="11.625" Velocity="106" />
      <note Length="0.015625" Pitch="58" RiffPosition="11.671875" Velocity="62" />
      <note Length="0.03125" Pitch="58" RiffPosition="11.6875" Velocity="67" />
      <note Length="0.03125" Pitch="66" RiffPosition="11.71875" Velocity="66" />
      <note Length="0.03125" Pitch="58" RiffPosition="11.75" Velocity="107" />
      <note Length="0.03125" Pitch="71" RiffPosition="11.78125" Velocity="100" />
      <note Length="0.03125" Pitch="74" RiffPosition="11.8125" Velocity="42" />
      <note Length="0.03125" Pitch="71" RiffPosition="11.84375" Velocity="67" />
      <note Length="0.046875" Pitch="71" RiffPosition="11.875" Velocity="48" />
      <note Length="0.015625" Pitch="75" RiffPosition="11.921875" Velocity="72" />
      <note Length="0.03125" Pitch="74" RiffPosition="11.9375" Velocity="77" />
      <note Length="0.03125" Pitch="71" RiffPosition="11.96875" Velocity="56" />
      <note Length="0.03125" Pitch="71" RiffPosition="12" Velocity="0" />
      <note Length="0.03125" Pitch="71" RiffPosition="12.03125" Velocity="0" />
      <note Length="0.03125" Pitch="71" RiffPosition="12.0625" Velocity="0" />
      <note Length="0.03125" Pitch="58" RiffPosition="12.09375" Velocity="0" />
      <note Length="0.046875" Pitch="58" RiffPosition="12.125" Velocity="0" />
      <note Length="0.015625" Pitch="71" RiffPosition="12.171875" Velocity="0" />
      <note Length="0.03125" Pitch="71" RiffPosition="12.1875" Velocity="0" />
      <note Length="0.03125" Pitch="58" RiffPosition="12.21875" Velocity="0" />
      <note Length="0.03125" Pitch="58" RiffPosition="12.25" Velocity="0" />
      <note Length="0.03125" Pitch="71" RiffPosition="12.28125" Velocity="0" />
      <note Length="0.03125" Pitch="70" RiffPosition="12.3125" Velocity="0" />
      <note Length="0.03125" Pitch="58" RiffPosition="12.34375" Velocity="0" />
      <note Length="0.046875" Pitch="58" RiffPosition="12.375" Velocity="0" />
      <note Length="0.015625" Pitch="58" RiffPosition="12.421875" Velocity="0" />
      <note Length="0.03125" Pitch="58" RiffPosition="12.4375" Velocity="0" />
      <note Length="0.03125" Pitch="65" RiffPosition="12.46875" Velocity="0" />
      <note Length="0.03125" Pitch="58" RiffPosition="12.5" Velocity="0" />
      <note Length="0.03125" Pitch="58" RiffPosition="12.53125" Velocity="0" />
      <note Length="0.03125" Pitch="58" RiffPosition="12.5625" Velocity="0" />
      <note Length="0.03125" Pitch="58" RiffPosition="12.59375" Velocity="0" />
      <note Length="0.046875" Pitch="58" RiffPosition="12.625" Velocity="0" />
      <note Length="0.015625" Pitch="75" RiffPosition="12.671875" Velocity="0" />
      <note Length="0.03125" Pitch="74" RiffPosition="12.6875" Velocity="0" />
      <note Length="0.03125" Pitch="71" RiffPosition="12.71875" Velocity="0" />
      <note Length="0.03125" Pitch="71" RiffPosition="12.75" Velocity="0" />
      <note Length="0.03125" Pitch="70" RiffPosition="12.78125" Velocity="0" />
      <note Length="0.03125" Pitch="74" RiffPosition="12.8125" Velocity="0" />
      <note Length="0.03125" Pitch="71" RiffPosition="12.84375" Velocity="0" />
      <note Length="0.046875" Pitch="71" RiffPosition="12.875" Velocity="0" />
      <note Length="0.015625" Pitch="58" RiffPosition="12.921875" Velocity="0" />
      <note Length="0.03125" Pitch="58" RiffPosition="12.9375" Velocity="0" />
      <note Length="0.03125" Pitch="66" RiffPosition="12.96875" Velocity="0" />
    </riff>
    <riff IsDrum="False" MidiInstrument="40" Tempo="110" Length="13">
      <note Length="0.0625" Pitch="49" RiffPosition="0" Velocity="0" />
      <note Length="0.03125" Pitch="62" RiffPosition="0.0625" Velocity="0" />
      <note Length="0.03125" Pitch="66" RiffPosition="0.09375" Velocity="0" />
      <note Length="0.015625" Pitch="65" RiffPosition="0.125" Velocity="0" />
      <note Length="0.046875" Pitch="62" RiffPosition="0.140625" Velocity="0" />
      <note Length="0.03125" Pitch="56" RiffPosition="0.1875" Velocity="0" />
      <note Length="0.03125" Pitch="53" RiffPosition="0.21875" Velocity="0" />
      <note Length="0.0625" Pitch="53" RiffPosition="0.25" Velocity="0" />
      <note Length="0.03125" Pitch="66" RiffPosition="0.3125" Velocity="0" />
      <note Length="0.03125" Pitch="61" RiffPosition="0.34375" Velocity="0" />
      <note Length="0.015625" Pitch="61" RiffPosition="0.375" Velocity="0" />
      <note Length="0.046875" Pitch="68" RiffPosition="0.390625" Velocity="0" />
      <note Length="0.03125" Pitch="49" RiffPosition="0.4375" Velocity="0" />
      <note Length="0.03125" Pitch="53" RiffPosition="0.46875" Velocity="0" />
      <note Length="0.0625" Pitch="53" RiffPosition="0.5" Velocity="0" />
      <note Length="0.03125" Pitch="62" RiffPosition="0.5625" Velocity="0" />
      <note Length="0.03125" Pitch="61" RiffPosition="0.59375" Velocity="0" />
      <note Length="0.015625" Pitch="61" RiffPosition="0.625" Velocity="0" />
      <note Length="0.046875" Pitch="61" RiffPosition="0.640625" Velocity="0" />
      <note Length="0.03125" Pitch="61" RiffPosition="0.6875" Velocity="0" />
      <note Length="0.03125" Pitch="56" RiffPosition="0.71875" Velocity="0" />
      <note Length="0.0625" Pitch="53" RiffPosition="0.75" Velocity="0" />
      <note Length="0.03125" Pitch="49" RiffPosition="0.8125" Velocity="0" />
      <note Length="0.03125" Pitch="62" RiffPosition="0.84375" Velocity="0" />
      <note Length="0.015625" Pitch="66" RiffPosition="0.875" Velocity="0" />
      <note Length="0.046875" Pitch="66" RiffPosition="0.890625" Velocity="0" />
      <note Length="0.03125" Pitch="62" RiffPosition="0.9375" Velocity="0" />
      <note Length="0.03125" Pitch="49" RiffPosition="0.96875" Velocity="0" />
      <note Length="0.0625" Pitch="48" RiffPosition="1" Velocity="0" />
      <note Length="0.03125" Pitch="61" RiffPosition="1.0625" Velocity="0" />
      <note Length="0.03125" Pitch="65" RiffPosition="1.09375" Velocity="0" />
      <note Length="0.015625" Pitch="64" RiffPosition="1.125" Velocity="0" />
      <note Length="0.046875" Pitch="61" RiffPosition="1.140625" Velocity="0" />
      <note Length="0.03125" Pitch="55" RiffPosition="1.1875" Velocity="0" />
      <note Length="0.03125" Pitch="52" RiffPosition="1.21875" Velocity="0" />
      <note Length="0.0625" Pitch="52" RiffPosition="1.25" Velocity="0" />
      <note Length="0.03125" Pitch="65" RiffPosition="1.3125" Velocity="0" />
      <note Length="0.03125" Pitch="60" RiffPosition="1.34375" Velocity="0" />
      <note Length="0.015625" Pitch="60" RiffPosition="1.375" Velocity="0" />
      <note Length="0.046875" Pitch="67" RiffPosition="1.390625" Velocity="0" />
      <note Length="0.03125" Pitch="48" RiffPosition="1.4375" Velocity="0" />
      <note Length="0.03125" Pitch="52" RiffPosition="1.46875" Velocity="0" />
      <note Length="0.0625" Pitch="52" RiffPosition="1.5" Velocity="0" />
      <note Length="0.03125" Pitch="61" RiffPosition="1.5625" Velocity="0" />
      <note Length="0.03125" Pitch="60" RiffPosition="1.59375" Velocity="0" />
      <note Length="0.015625" Pitch="60" RiffPosition="1.625" Velocity="0" />
      <note Length="0.046875" Pitch="60" RiffPosition="1.640625" Velocity="0" />
      <note Length="0.03125" Pitch="60" RiffPosition="1.6875" Velocity="0" />
      <note Length="0.03125" Pitch="55" RiffPosition="1.71875" Velocity="0" />
      <note Length="0.0625" Pitch="52" RiffPosition="1.75" Velocity="0" />
      <note Length="0.03125" Pitch="48" RiffPosition="1.8125" Velocity="0" />
      <note Length="0.03125" Pitch="61" RiffPosition="1.84375" Velocity="0" />
      <note Length="0.015625" Pitch="65" RiffPosition="1.875" Velocity="0" />
      <note Length="0.046875" Pitch="65" RiffPosition="1.890625" Velocity="0" />
      <note Length="0.03125" Pitch="61" RiffPosition="1.9375" Velocity="0" />
      <note Length="0.03125" Pitch="48" RiffPosition="1.96875" Velocity="0" />
      <note Length="0.0625" Pitch="48" RiffPosition="2" Velocity="0" />
      <note Length="0.03125" Pitch="61" RiffPosition="2.0625" Velocity="0" />
      <note Length="0.03125" Pitch="65" RiffPosition="2.09375" Velocity="0" />
      <note Length="0.015625" Pitch="64" RiffPosition="2.125" Velocity="0" />
      <note Length="0.046875" Pitch="61" RiffPosition="2.140625" Velocity="0" />
      <note Length="0.03125" Pitch="55" RiffPosition="2.1875" Velocity="0" />
      <note Length="0.03125" Pitch="52" RiffPosition="2.21875" Velocity="0" />
      <note Length="0.0625" Pitch="52" RiffPosition="2.25" Velocity="0" />
      <note Length="0.03125" Pitch="65" RiffPosition="2.3125" Velocity="0" />
      <note Length="0.03125" Pitch="60" RiffPosition="2.34375" Velocity="0" />
      <note Length="0.015625" Pitch="60" RiffPosition="2.375" Velocity="0" />
      <note Length="0.046875" Pitch="67" RiffPosition="2.390625" Velocity="0" />
      <note Length="0.03125" Pitch="48" RiffPosition="2.4375" Velocity="0" />
      <note Length="0.03125" Pitch="52" RiffPosition="2.46875" Velocity="0" />
      <note Length="0.0625" Pitch="52" RiffPosition="2.5" Velocity="0" />
      <note Length="0.03125" Pitch="61" RiffPosition="2.5625" Velocity="0" />
      <note Length="0.03125" Pitch="60" RiffPosition="2.59375" Velocity="0" />
      <note Length="0.015625" Pitch="60" RiffPosition="2.625" Velocity="0" />
      <note Length="0.046875" Pitch="60" RiffPosition="2.640625" Velocity="0" />
      <note Length="0.03125" Pitch="60" RiffPosition="2.6875" Velocity="0" />
      <note Length="0.03125" Pitch="55" RiffPosition="2.71875" Velocity="0" />
      <note Length="0.0625" Pitch="52" RiffPosition="2.75" Velocity="0" />
      <note Length="0.03125" Pitch="48" RiffPosition="2.8125" Velocity="0" />
      <note Length="0.03125" Pitch="61" RiffPosition="2.84375" Velocity="0" />
      <note Length="0.015625" Pitch="65" RiffPosition="2.875" Velocity="0" />
      <note Length="0.046875" Pitch="65" RiffPosition="2.890625" Velocity="0" />
      <note Length="0.03125" Pitch="61" RiffPosition="2.9375" Velocity="0" />
      <note Length="0.03125" Pitch="48" RiffPosition="2.96875" Velocity="0" />
      <note Length="0.0625" Pitch="47" RiffPosition="3" Velocity="0" />
      <note Length="0.03125" Pitch="60" RiffPosition="3.0625" Velocity="0" />
      <note Length="0.03125" Pitch="64" RiffPosition="3.09375" Velocity="0" />
      <note Length="0.015625" Pitch="63" RiffPosition="3.125" Velocity="0" />
      <note Length="0.046875" Pitch="60" RiffPosition="3.140625" Velocity="0" />
      <note Length="0.03125" Pitch="54" RiffPosition="3.1875" Velocity="0" />
      <note Length="0.03125" Pitch="51" RiffPosition="3.21875" Velocity="0" />
      <note Length="0.0625" Pitch="51" RiffPosition="3.25" Velocity="0" />
      <note Length="0.03125" Pitch="64" RiffPosition="3.3125" Velocity="0" />
      <note Length="0.03125" Pitch="59" RiffPosition="3.34375" Velocity="0" />
      <note Length="0.015625" Pitch="59" RiffPosition="3.375" Velocity="0" />
      <note Length="0.046875" Pitch="66" RiffPosition="3.390625" Velocity="0" />
      <note Length="0.03125" Pitch="47" RiffPosition="3.4375" Velocity="0" />
      <note Length="0.03125" Pitch="51" RiffPosition="3.46875" Velocity="0" />
      <note Length="0.0625" Pitch="51" RiffPosition="3.5" Velocity="0" />
      <note Length="0.03125" Pitch="60" RiffPosition="3.5625" Velocity="0" />
      <note Length="0.03125" Pitch="59" RiffPosition="3.59375" Velocity="0" />
      <note Length="0.015625" Pitch="59" RiffPosition="3.625" Velocity="0" />
      <note Length="0.046875" Pitch="59" RiffPosition="3.640625" Velocity="0" />
      <note Length="0.03125" Pitch="59" RiffPosition="3.6875" Velocity="0" />
      <note Length="0.03125" Pitch="54" RiffPosition="3.71875" Velocity="0" />
      <note Length="0.0625" Pitch="51" RiffPosition="3.75" Velocity="0" />
      <note Length="0.03125" Pitch="47" RiffPosition="3.8125" Velocity="0" />
      <note Length="0.03125" Pitch="60" RiffPosition="3.84375" Velocity="0" />
      <note Length="0.015625" Pitch="64" RiffPosition="3.875" Velocity="0" />
      <note Length="0.046875" Pitch="64" RiffPosition="3.890625" Velocity="0" />
      <note Length="0.03125" Pitch="60" RiffPosition="3.9375" Velocity="0" />
      <note Length="0.03125" Pitch="47" RiffPosition="3.96875" Velocity="0" />
      <note Length="0.0625" Pitch="58" RiffPosition="4" Velocity="0" />
      <note Length="0.03125" Pitch="71" RiffPosition="4.0625" Velocity="0" />
      <note Length="0.03125" Pitch="75" RiffPosition="4.09375" Velocity="0" />
      <note Length="0.015625" Pitch="74" RiffPosition="4.125" Velocity="0" />
      <note Length="0.046875" Pitch="71" RiffPosition="4.140625" Velocity="0" />
      <note Length="0.03125" Pitch="65" RiffPosition="4.1875" Velocity="0" />
      <note Length="0.03125" Pitch="62" RiffPosition="4.21875" Velocity="0" />
      <note Length="0.0625" Pitch="62" RiffPosition="4.25" Velocity="0" />
      <note Length="0.03125" Pitch="75" RiffPosition="4.3125" Velocity="0" />
      <note Length="0.03125" Pitch="70" RiffPosition="4.34375" Velocity="0" />
      <note Length="0.015625" Pitch="70" RiffPosition="4.375" Velocity="0" />
      <note Length="0.046875" Pitch="77" RiffPosition="4.390625" Velocity="0" />
      <note Length="0.03125" Pitch="58" RiffPosition="4.4375" Velocity="0" />
      <note Length="0.03125" Pitch="62" RiffPosition="4.46875" Velocity="0" />
      <note Length="0.0625" Pitch="62" RiffPosition="4.5" Velocity="0" />
      <note Length="0.03125" Pitch="71" RiffPosition="4.5625" Velocity="0" />
      <note Length="0.03125" Pitch="70" RiffPosition="4.59375" Velocity="0" />
      <note Length="0.015625" Pitch="70" RiffPosition="4.625" Velocity="0" />
      <note Length="0.046875" Pitch="70" RiffPosition="4.640625" Velocity="0" />
      <note Length="0.03125" Pitch="70" RiffPosition="4.6875" Velocity="0" />
      <note Length="0.03125" Pitch="65" RiffPosition="4.71875" Velocity="0" />
      <note Length="0.0625" Pitch="62" RiffPosition="4.75" Velocity="0" />
      <note Length="0.03125" Pitch="58" RiffPosition="4.8125" Velocity="0" />
      <note Length="0.03125" Pitch="71" RiffPosition="4.84375" Velocity="0" />
      <note Length="0.015625" Pitch="75" RiffPosition="4.875" Velocity="0" />
      <note Length="0.046875" Pitch="75" RiffPosition="4.890625" Velocity="0" />
      <note Length="0.03125" Pitch="71" RiffPosition="4.9375" Velocity="0" />
      <note Length="0.03125" Pitch="58" RiffPosition="4.96875" Velocity="0" />
      <note Length="0.0625" Pitch="58" RiffPosition="5" Velocity="0" />
      <note Length="0.03125" Pitch="71" RiffPosition="5.0625" Velocity="0" />
      <note Length="0.03125" Pitch="75" RiffPosition="5.09375" Velocity="0" />
      <note Length="0.015625" Pitch="74" RiffPosition="5.125" Velocity="0" />
      <note Length="0.046875" Pitch="71" RiffPosition="5.140625" Velocity="0" />
      <note Length="0.03125" Pitch="65" RiffPosition="5.1875" Velocity="0" />
      <note Length="0.03125" Pitch="62" RiffPosition="5.21875" Velocity="0" />
      <note Length="0.0625" Pitch="62" RiffPosition="5.25" Velocity="0" />
      <note Length="0.03125" Pitch="75" RiffPosition="5.3125" Velocity="0" />
      <note Length="0.03125" Pitch="70" RiffPosition="5.34375" Velocity="0" />
      <note Length="0.015625" Pitch="70" RiffPosition="5.375" Velocity="0" />
      <note Length="0.046875" Pitch="77" RiffPosition="5.390625" Velocity="0" />
      <note Length="0.03125" Pitch="58" RiffPosition="5.4375" Velocity="0" />
      <note Length="0.03125" Pitch="62" RiffPosition="5.46875" Velocity="0" />
      <note Length="0.0625" Pitch="62" RiffPosition="5.5" Velocity="0" />
      <note Length="0.03125" Pitch="71" RiffPosition="5.5625" Velocity="0" />
      <note Length="0.03125" Pitch="70" RiffPosition="5.59375" Velocity="0" />
      <note Length="0.015625" Pitch="70" RiffPosition="5.625" Velocity="0" />
      <note Length="0.046875" Pitch="70" RiffPosition="5.640625" Velocity="0" />
      <note Length="0.03125" Pitch="70" RiffPosition="5.6875" Velocity="0" />
      <note Length="0.03125" Pitch="65" RiffPosition="5.71875" Velocity="0" />
      <note Length="0.0625" Pitch="62" RiffPosition="5.75" Velocity="0" />
      <note Length="0.03125" Pitch="58" RiffPosition="5.8125" Velocity="0" />
      <note Length="0.03125" Pitch="71" RiffPosition="5.84375" Velocity="0" />
      <note Length="0.015625" Pitch="75" RiffPosition="5.875" Velocity="0" />
      <note Length="0.046875" Pitch="75" RiffPosition="5.890625" Velocity="0" />
      <note Length="0.03125" Pitch="71" RiffPosition="5.9375" Velocity="0" />
      <note Length="0.03125" Pitch="58" RiffPosition="5.96875" Velocity="0" />
      <note Length="0.0625" Pitch="50" RiffPosition="6" Velocity="53" />
      <note Length="0.03125" Pitch="63" RiffPosition="6.0625" Velocity="33" />
      <note Length="0.03125" Pitch="67" RiffPosition="6.09375" Velocity="64" />
      <note Length="0.015625" Pitch="66" RiffPosition="6.125" Velocity="36" />
      <note Length="0.046875" Pitch="63" RiffPosition="6.140625" Velocity="38" />
      <note Length="0.03125" Pitch="57" RiffPosition="6.1875" Velocity="39" />
      <note Length="0.03125" Pitch="54" RiffPosition="6.21875" Velocity="62" />
      <note Length="0.0625" Pitch="54" RiffPosition="6.25" Velocity="32" />
      <note Length="0.03125" Pitch="67" RiffPosition="6.3125" Velocity="30" />
      <note Length="0.03125" Pitch="62" RiffPosition="6.34375" Velocity="52" />
      <note Length="0.015625" Pitch="62" RiffPosition="6.375" Velocity="42" />
      <note Length="0.046875" Pitch="69" RiffPosition="6.390625" Velocity="30" />
      <note Length="0.03125" Pitch="50" RiffPosition="6.4375" Velocity="70" />
      <note Length="0.03125" Pitch="54" RiffPosition="6.46875" Velocity="36" />
      <note Length="0.0625" Pitch="54" RiffPosition="6.5" Velocity="52" />
      <note Length="0.03125" Pitch="63" RiffPosition="6.5625" Velocity="30" />
      <note Length="0.03125" Pitch="62" RiffPosition="6.59375" Velocity="64" />
      <note Length="0.015625" Pitch="62" RiffPosition="6.625" Velocity="42" />
      <note Length="0.046875" Pitch="62" RiffPosition="6.640625" Velocity="32" />
      <note Length="0.03125" Pitch="62" RiffPosition="6.6875" Velocity="56" />
      <note Length="0.03125" Pitch="57" RiffPosition="6.71875" Velocity="43" />
      <note Length="0.0625" Pitch="54" RiffPosition="6.75" Velocity="48" />
      <note Length="0.03125" Pitch="50" RiffPosition="6.8125" Velocity="35" />
      <note Length="0.03125" Pitch="63" RiffPosition="6.84375" Velocity="53" />
      <note Length="0.015625" Pitch="67" RiffPosition="6.875" Velocity="79" />
      <note Length="0.046875" Pitch="67" RiffPosition="6.890625" Velocity="34" />
      <note Length="0.03125" Pitch="63" RiffPosition="6.9375" Velocity="68" />
      <note Length="0.03125" Pitch="50" RiffPosition="6.96875" Velocity="44" />
      <note Length="0.0625" Pitch="49" RiffPosition="7" Velocity="38" />
      <note Length="0.03125" Pitch="62" RiffPosition="7.0625" Velocity="48" />
      <note Length="0.03125" Pitch="66" RiffPosition="7.09375" Velocity="38" />
      <note Length="0.015625" Pitch="65" RiffPosition="7.125" Velocity="52" />
      <note Length="0.046875" Pitch="62" RiffPosition="7.140625" Velocity="38" />
      <note Length="0.03125" Pitch="56" RiffPosition="7.1875" Velocity="54" />
      <note Length="0.03125" Pitch="53" RiffPosition="7.21875" Velocity="47" />
      <note Length="0.0625" Pitch="53" RiffPosition="7.25" Velocity="47" />
      <note Length="0.03125" Pitch="66" RiffPosition="7.3125" Velocity="73" />
      <note Length="0.03125" Pitch="61" RiffPosition="7.34375" Velocity="37" />
      <note Length="0.015625" Pitch="61" RiffPosition="7.375" Velocity="60" />
      <note Length="0.046875" Pitch="68" RiffPosition="7.390625" Velocity="45" />
      <note Length="0.03125" Pitch="49" RiffPosition="7.4375" Velocity="55" />
      <note Length="0.03125" Pitch="53" RiffPosition="7.46875" Velocity="51" />
      <note Length="0.0625" Pitch="53" RiffPosition="7.5" Velocity="37" />
      <note Length="0.03125" Pitch="62" RiffPosition="7.5625" Velocity="45" />
      <note Length="0.03125" Pitch="61" RiffPosition="7.59375" Velocity="38" />
      <note Length="0.015625" Pitch="61" RiffPosition="7.625" Velocity="58" />
      <note Length="0.046875" Pitch="61" RiffPosition="7.640625" Velocity="47" />
      <note Length="0.03125" Pitch="61" RiffPosition="7.6875" Velocity="72" />
      <note Length="0.03125" Pitch="56" RiffPosition="7.71875" Velocity="32" />
      <note Length="0.0625" Pitch="53" RiffPosition="7.75" Velocity="54" />
      <note Length="0.03125" Pitch="49" RiffPosition="7.8125" Velocity="68" />
      <note Length="0.03125" Pitch="62" RiffPosition="7.84375" Velocity="38" />
      <note Length="0.015625" Pitch="66" RiffPosition="7.875" Velocity="64" />
      <note Length="0.046875" Pitch="66" RiffPosition="7.890625" Velocity="76" />
      <note Length="0.03125" Pitch="62" RiffPosition="7.9375" Velocity="53" />
      <note Length="0.03125" Pitch="49" RiffPosition="7.96875" Velocity="59" />
      <note Length="0.0625" Pitch="48" RiffPosition="8" Velocity="37" />
      <note Length="0.03125" Pitch="61" RiffPosition="8.0625" Velocity="64" />
      <note Length="0.03125" Pitch="65" RiffPosition="8.09375" Velocity="37" />
      <note Length="0.015625" Pitch="64" RiffPosition="8.125" Velocity="67" />
      <note Length="0.046875" Pitch="61" RiffPosition="8.140625" Velocity="53" />
      <note Length="0.03125" Pitch="55" RiffPosition="8.1875" Velocity="69" />
      <note Length="0.03125" Pitch="52" RiffPosition="8.21875" Velocity="32" />
      <note Length="0.0625" Pitch="52" RiffPosition="8.25" Velocity="55" />
      <note Length="0.03125" Pitch="65" RiffPosition="8.3125" Velocity="57" />
      <note Length="0.03125" Pitch="60" RiffPosition="8.34375" Velocity="38" />
      <note Length="0.015625" Pitch="60" RiffPosition="8.375" Velocity="45" />
      <note Length="0.046875" Pitch="67" RiffPosition="8.390625" Velocity="57" />
      <note Length="0.03125" Pitch="48" RiffPosition="8.4375" Velocity="39" />
      <note Length="0.03125" Pitch="52" RiffPosition="8.46875" Velocity="51" />
      <note Length="0.0625" Pitch="52" RiffPosition="8.5" Velocity="38" />
      <note Length="0.03125" Pitch="61" RiffPosition="8.5625" Velocity="60" />
      <note Length="0.03125" Pitch="60" RiffPosition="8.59375" Velocity="37" />
      <note Length="0.015625" Pitch="60" RiffPosition="8.625" Velocity="73" />
      <note Length="0.046875" Pitch="60" RiffPosition="8.640625" Velocity="62" />
      <note Length="0.03125" Pitch="60" RiffPosition="8.6875" Velocity="31" />
      <note Length="0.03125" Pitch="55" RiffPosition="8.71875" Velocity="47" />
      <note Length="0.0625" Pitch="52" RiffPosition="8.75" Velocity="39" />
      <note Length="0.03125" Pitch="48" RiffPosition="8.8125" Velocity="52" />
      <note Length="0.03125" Pitch="61" RiffPosition="8.84375" Velocity="38" />
      <note Length="0.015625" Pitch="65" RiffPosition="8.875" Velocity="48" />
      <note Length="0.046875" Pitch="65" RiffPosition="8.890625" Velocity="61" />
      <note Length="0.03125" Pitch="61" RiffPosition="8.9375" Velocity="38" />
      <note Length="0.03125" Pitch="48" RiffPosition="8.96875" Velocity="43" />
      <note Length="0.0625" Pitch="48" RiffPosition="9" Velocity="53" />
      <note Length="0.03125" Pitch="61" RiffPosition="9.0625" Velocity="79" />
      <note Length="0.03125" Pitch="65" RiffPosition="9.09375" Velocity="52" />
      <note Length="0.015625" Pitch="64" RiffPosition="9.125" Velocity="35" />
      <note Length="0.046875" Pitch="61" RiffPosition="9.140625" Velocity="68" />
      <note Length="0.03125" Pitch="55" RiffPosition="9.1875" Velocity="33" />
      <note Length="0.03125" Pitch="52" RiffPosition="9.21875" Velocity="43" />
      <note Length="0.0625" Pitch="52" RiffPosition="9.25" Velocity="40" />
      <note Length="0.03125" Pitch="65" RiffPosition="9.3125" Velocity="42" />
      <note Length="0.03125" Pitch="60" RiffPosition="9.34375" Velocity="64" />
      <note Length="0.015625" Pitch="60" RiffPosition="9.375" Velocity="30" />
      <note Length="0.046875" Pitch="67" RiffPosition="9.390625" Velocity="42" />
      <note Length="0.03125" Pitch="48" RiffPosition="9.4375" Velocity="36" />
      <note Length="0.03125" Pitch="52" RiffPosition="9.46875" Velocity="36" />
      <note Length="0.0625" Pitch="52" RiffPosition="9.5" Velocity="54" />
      <note Length="0.03125" Pitch="61" RiffPosition="9.5625" Velocity="42" />
      <note Length="0.03125" Pitch="60" RiffPosition="9.59375" Velocity="52" />
      <note Length="0.015625" Pitch="60" RiffPosition="9.625" Velocity="31" />
      <note Length="0.046875" Pitch="60" RiffPosition="9.640625" Velocity="40" />
      <note Length="0.03125" Pitch="60" RiffPosition="9.6875" Velocity="45" />
      <note Length="0.03125" Pitch="55" RiffPosition="9.71875" Velocity="62" />
      <note Length="0.0625" Pitch="52" RiffPosition="9.75" Velocity="37" />
      <note Length="0.03125" Pitch="48" RiffPosition="9.8125" Velocity="37" />
      <note Length="0.03125" Pitch="61" RiffPosition="9.84375" Velocity="65" />
      <note Length="0.015625" Pitch="65" RiffPosition="9.875" Velocity="33" />
      <note Length="0.046875" Pitch="65" RiffPosition="9.890625" Velocity="46" />
      <note Length="0.03125" Pitch="61" RiffPosition="9.9375" Velocity="38" />
      <note Length="0.03125" Pitch="48" RiffPosition="9.96875" Velocity="32" />
      <note Length="0.0625" Pitch="47" RiffPosition="10" Velocity="50" />
      <note Length="0.03125" Pitch="60" RiffPosition="10.0625" Velocity="37" />
      <note Length="0.03125" Pitch="64" RiffPosition="10.09375" Velocity="68" />
      <note Length="0.015625" Pitch="63" RiffPosition="10.125" Velocity="40" />
      <note Length="0.046875" Pitch="60" RiffPosition="10.140625" Velocity="34" />
      <note Length="0.03125" Pitch="54" RiffPosition="10.1875" Velocity="42" />
      <note Length="0.03125" Pitch="51" RiffPosition="10.21875" Velocity="59" />
      <note Length="0.0625" Pitch="51" RiffPosition="10.25" Velocity="35" />
      <note Length="0.03125" Pitch="64" RiffPosition="10.3125" Velocity="33" />
      <note Length="0.03125" Pitch="59" RiffPosition="10.34375" Velocity="49" />
      <note Length="0.015625" Pitch="59" RiffPosition="10.375" Velocity="46" />
      <note Length="0.046875" Pitch="66" RiffPosition="10.390625" Velocity="33" />
      <note Length="0.03125" Pitch="47" RiffPosition="10.4375" Velocity="66" />
      <note Length="0.03125" Pitch="51" RiffPosition="10.46875" Velocity="39" />
      <note Length="0.0625" Pitch="51" RiffPosition="10.5" Velocity="49" />
      <note Length="0.03125" Pitch="60" RiffPosition="10.5625" Velocity="33" />
      <note Length="0.03125" Pitch="59" RiffPosition="10.59375" Velocity="68" />
      <note Length="0.015625" Pitch="59" RiffPosition="10.625" Velocity="46" />
      <note Length="0.046875" Pitch="59" RiffPosition="10.640625" Velocity="35" />
      <note Length="0.03125" Pitch="59" RiffPosition="10.6875" Velocity="60" />
      <note Length="0.03125" Pitch="54" RiffPosition="10.71875" Velocity="40" />
      <note Length="0.0625" Pitch="51" RiffPosition="10.75" Velocity="52" />
      <note Length="0.03125" Pitch="47" RiffPosition="10.8125" Velocity="38" />
      <note Length="0.03125" Pitch="60" RiffPosition="10.84375" Velocity="49" />
      <note Length="0.015625" Pitch="64" RiffPosition="10.875" Velocity="75" />
      <note Length="0.046875" Pitch="64" RiffPosition="10.890625" Velocity="30" />
      <note Length="0.03125" Pitch="60" RiffPosition="10.9375" Velocity="65" />
      <note Length="0.03125" Pitch="47" RiffPosition="10.96875" Velocity="47" />
      <note Length="0.0625" Pitch="58" RiffPosition="11" Velocity="34" />
      <note Length="0.03125" Pitch="71" RiffPosition="11.0625" Velocity="52" />
      <note Length="0.03125" Pitch="75" RiffPosition="11.09375" Velocity="35" />
      <note Length="0.015625" Pitch="74" RiffPosition="11.125" Velocity="55" />
      <note Length="0.046875" Pitch="71" RiffPosition="11.140625" Velocity="41" />
      <note Length="0.03125" Pitch="65" RiffPosition="11.1875" Velocity="58" />
      <note Length="0.03125" Pitch="62" RiffPosition="11.21875" Velocity="44" />
      <note Length="0.0625" Pitch="62" RiffPosition="11.25" Velocity="50" />
      <note Length="0.03125" Pitch="75" RiffPosition="11.3125" Velocity="69" />
      <note Length="0.03125" Pitch="70" RiffPosition="11.34375" Velocity="33" />
      <note Length="0.015625" Pitch="70" RiffPosition="11.375" Velocity="57" />
      <note Length="0.046875" Pitch="77" RiffPosition="11.390625" Velocity="69" />
      <note Length="0.03125" Pitch="58" RiffPosition="11.4375" Velocity="51" />
      <note Length="0.03125" Pitch="62" RiffPosition="11.46875" Velocity="54" />
      <note Length="0.0625" Pitch="62" RiffPosition="11.5" Velocity="33" />
      <note Length="0.03125" Pitch="71" RiffPosition="11.5625" Velocity="48" />
      <note Length="0.03125" Pitch="70" RiffPosition="11.59375" Velocity="35" />
      <note Length="0.015625" Pitch="70" RiffPosition="11.625" Velocity="61" />
      <note Length="0.046875" Pitch="70" RiffPosition="11.640625" Velocity="51" />
      <note Length="0.03125" Pitch="70" RiffPosition="11.6875" Velocity="75" />
      <note Length="0.03125" Pitch="65" RiffPosition="11.71875" Velocity="35" />
      <note Length="0.0625" Pitch="62" RiffPosition="11.75" Velocity="50" />
      <note Length="0.03125" Pitch="58" RiffPosition="11.8125" Velocity="64" />
      <note Length="0.03125" Pitch="71" RiffPosition="11.84375" Velocity="34" />
      <note Length="0.015625" Pitch="75" RiffPosition="11.875" Velocity="60" />
      <note Length="0.046875" Pitch="75" RiffPosition="11.890625" Velocity="73" />
      <note Length="0.03125" Pitch="71" RiffPosition="11.9375" Velocity="49" />
      <note Length="0.03125" Pitch="58" RiffPosition="11.96875" Velocity="55" />
      <note Length="0.0625" Pitch="58" RiffPosition="12" Velocity="0" />
      <note Length="0.03125" Pitch="71" RiffPosition="12.0625" Velocity="0" />
      <note Length="0.03125" Pitch="75" RiffPosition="12.09375" Velocity="0" />
      <note Length="0.015625" Pitch="74" RiffPosition="12.125" Velocity="0" />
      <note Length="0.046875" Pitch="71" RiffPosition="12.140625" Velocity="0" />
      <note Length="0.03125" Pitch="65" RiffPosition="12.1875" Velocity="0" />
      <note Length="0.03125" Pitch="62" RiffPosition="12.21875" Velocity="0" />
      <note Length="0.0625" Pitch="62" RiffPosition="12.25" Velocity="0" />
      <note Length="0.03125" Pitch="75" RiffPosition="12.3125" Velocity="0" />
      <note Length="0.03125" Pitch="70" RiffPosition="12.34375" Velocity="0" />
      <note Length="0.015625" Pitch="70" RiffPosition="12.375" Velocity="0" />
      <note Length="0.046875" Pitch="77" RiffPosition="12.390625" Velocity="0" />
      <note Length="0.03125" Pitch="58" RiffPosition="12.4375" Velocity="0" />
      <note Length="0.03125" Pitch="62" RiffPosition="12.46875" Velocity="0" />
      <note Length="0.0625" Pitch="62" RiffPosition="12.5" Velocity="0" />
      <note Length="0.03125" Pitch="71" RiffPosition="12.5625" Velocity="0" />
      <note Length="0.03125" Pitch="70" RiffPosition="12.59375" Velocity="0" />
      <note Length="0.015625" Pitch="70" RiffPosition="12.625" Velocity="0" />
      <note Length="0.046875" Pitch="70" RiffPosition="12.640625" Velocity="0" />
      <note Length="0.03125" Pitch="70" RiffPosition="12.6875" Velocity="0" />
      <note Length="0.03125" Pitch="65" RiffPosition="12.71875" Velocity="0" />
      <note Length="0.0625" Pitch="62" RiffPosition="12.75" Velocity="0" />
      <note Length="0.03125" Pitch="58" RiffPosition="12.8125" Velocity="0" />
      <note Length="0.03125" Pitch="71" RiffPosition="12.84375" Velocity="0" />
      <note Length="0.015625" Pitch="75" RiffPosition="12.875" Velocity="0" />
      <note Length="0.046875" Pitch="75" RiffPosition="12.890625" Velocity="0" />
      <note Length="0.03125" Pitch="71" RiffPosition="12.9375" Velocity="0" />
      <note Length="0.03125" Pitch="58" RiffPosition="12.96875" Velocity="0" />
    </riff>
    <riff IsDrum="False" MidiInstrument="40" Tempo="85" Length="13">
      <note Length="0.015625" Pitch="49" RiffPosition="0" Velocity="0" />
      <note Length="0.015625" Pitch="57" RiffPosition="0.015625" Velocity="0" />
      <note Length="0.015625" Pitch="61" RiffPosition="0.03125" Velocity="0" />
      <note Length="0.015625" Pitch="68" RiffPosition="0.046875" Velocity="0" />
      <note Length="0.09375" Pitch="62" RiffPosition="0.0625" Velocity="0" />
      <note Length="0.046875" Pitch="61" RiffPosition="0.15625" Velocity="0" />
      <note Length="0.046875" Pitch="62" RiffPosition="0.203125" Velocity="0" />
      <note Length="0.0625" Pitch="66" RiffPosition="0.25" Velocity="0" />
      <note Length="0.1875" Pitch="56" RiffPosition="0.3125" Velocity="0" />
      <note Length="0.015625" Pitch="61" RiffPosition="0.5" Velocity="0" />
      <note Length="0.015625" Pitch="61" RiffPosition="0.515625" Velocity="0" />
      <note Length="0.015625" Pitch="56" RiffPosition="0.53125" Velocity="0" />
      <note Length="0.015625" Pitch="66" RiffPosition="0.546875" Velocity="0" />
      <note Length="0.09375" Pitch="66" RiffPosition="0.5625" Velocity="0" />
      <note Length="0.046875" Pitch="49" RiffPosition="0.65625" Velocity="0" />
      <note Length="0.046875" Pitch="62" RiffPosition="0.703125" Velocity="0" />
      <note Length="0.0625" Pitch="53" RiffPosition="0.75" Velocity="0" />
      <note Length="0.1875" Pitch="54" RiffPosition="0.8125" Velocity="0" />
      <note Length="0.015625" Pitch="65" RiffPosition="1" Velocity="0" />
      <note Length="0.015625" Pitch="48" RiffPosition="1.015625" Velocity="0" />
      <note Length="0.015625" Pitch="48" RiffPosition="1.03125" Velocity="0" />
      <note Length="0.015625" Pitch="60" RiffPosition="1.046875" Velocity="0" />
      <note Length="0.09375" Pitch="61" RiffPosition="1.0625" Velocity="0" />
      <note Length="0.046875" Pitch="61" RiffPosition="1.15625" Velocity="0" />
      <note Length="0.046875" Pitch="65" RiffPosition="1.203125" Velocity="0" />
      <note Length="0.0625" Pitch="56" RiffPosition="1.25" Velocity="0" />
      <note Length="0.1875" Pitch="48" RiffPosition="1.3125" Velocity="0" />
      <note Length="0.015625" Pitch="61" RiffPosition="1.5" Velocity="0" />
      <note Length="0.015625" Pitch="61" RiffPosition="1.515625" Velocity="0" />
      <note Length="0.015625" Pitch="61" RiffPosition="1.53125" Velocity="0" />
      <note Length="0.015625" Pitch="56" RiffPosition="1.546875" Velocity="0" />
      <note Length="0.09375" Pitch="67" RiffPosition="1.5625" Velocity="0" />
      <note Length="0.046875" Pitch="61" RiffPosition="1.65625" Velocity="0" />
      <note Length="0.046875" Pitch="64" RiffPosition="1.703125" Velocity="0" />
      <note Length="0.0625" Pitch="55" RiffPosition="1.75" Velocity="0" />
      <note Length="0.1875" Pitch="56" RiffPosition="1.8125" Velocity="0" />
      <note Length="0.015625" Pitch="67" RiffPosition="2" Velocity="0" />
      <note Length="0.015625" Pitch="61" RiffPosition="2.015625" Velocity="0" />
      <note Length="0.015625" Pitch="60" RiffPosition="2.03125" Velocity="0" />
      <note Length="0.015625" Pitch="48" RiffPosition="2.046875" Velocity="0" />
      <note Length="0.09375" Pitch="48" RiffPosition="2.0625" Velocity="0" />
      <note Length="0.046875" Pitch="65" RiffPosition="2.15625" Velocity="0" />
      <note Length="0.046875" Pitch="56" RiffPosition="2.203125" Velocity="0" />
      <note Length="0.0625" Pitch="48" RiffPosition="2.25" Velocity="0" />
      <note Length="0.1875" Pitch="48" RiffPosition="2.3125" Velocity="0" />
      <note Length="0.015625" Pitch="53" RiffPosition="2.5" Velocity="0" />
      <note Length="0.015625" Pitch="65" RiffPosition="2.515625" Velocity="0" />
      <note Length="0.015625" Pitch="64" RiffPosition="2.53125" Velocity="0" />
      <note Length="0.015625" Pitch="48" RiffPosition="2.546875" Velocity="0" />
      <note Length="0.09375" Pitch="48" RiffPosition="2.5625" Velocity="0" />
      <note Length="0.046875" Pitch="64" RiffPosition="2.65625" Velocity="0" />
      <note Length="0.046875" Pitch="55" RiffPosition="2.703125" Velocity="0" />
      <note Length="0.0625" Pitch="61" RiffPosition="2.75" Velocity="0" />
      <note Length="0.1875" Pitch="48" RiffPosition="2.8125" Velocity="0" />
      <note Length="0.015625" Pitch="47" RiffPosition="3" Velocity="0" />
      <note Length="0.015625" Pitch="59" RiffPosition="3.015625" Velocity="0" />
      <note Length="0.015625" Pitch="60" RiffPosition="3.03125" Velocity="0" />
      <note Length="0.015625" Pitch="60" RiffPosition="3.046875" Velocity="0" />
      <note Length="0.09375" Pitch="60" RiffPosition="3.0625" Velocity="0" />
      <note Length="0.046875" Pitch="55" RiffPosition="3.15625" Velocity="0" />
      <note Length="0.046875" Pitch="47" RiffPosition="3.203125" Velocity="0" />
      <note Length="0.0625" Pitch="59" RiffPosition="3.25" Velocity="0" />
      <note Length="0.1875" Pitch="60" RiffPosition="3.3125" Velocity="0" />
      <note Length="0.015625" Pitch="55" RiffPosition="3.5" Velocity="0" />
      <note Length="0.015625" Pitch="54" RiffPosition="3.515625" Velocity="0" />
      <note Length="0.015625" Pitch="66" RiffPosition="3.53125" Velocity="0" />
      <note Length="0.015625" Pitch="64" RiffPosition="3.546875" Velocity="0" />
      <note Length="0.09375" Pitch="59" RiffPosition="3.5625" Velocity="0" />
      <note Length="0.046875" Pitch="47" RiffPosition="3.65625" Velocity="0" />
      <note Length="0.046875" Pitch="60" RiffPosition="3.703125" Velocity="0" />
      <note Length="0.0625" Pitch="64" RiffPosition="3.75" Velocity="0" />
      <note Length="0.1875" Pitch="54" RiffPosition="3.8125" Velocity="0" />
      <note Length="0.015625" Pitch="58" RiffPosition="4" Velocity="0" />
      <note Length="0.015625" Pitch="58" RiffPosition="4.015625" Velocity="0" />
      <note Length="0.015625" Pitch="63" RiffPosition="4.03125" Velocity="0" />
      <note Length="0.015625" Pitch="74" RiffPosition="4.046875" Velocity="0" />
      <note Length="0.09375" Pitch="74" RiffPosition="4.0625" Velocity="0" />
      <note Length="0.046875" Pitch="58" RiffPosition="4.15625" Velocity="0" />
      <note Length="0.046875" Pitch="70" RiffPosition="4.203125" Velocity="0" />
      <note Length="0.0625" Pitch="71" RiffPosition="4.25" Velocity="0" />
      <note Length="0.1875" Pitch="62" RiffPosition="4.3125" Velocity="0" />
      <note Length="0.015625" Pitch="74" RiffPosition="4.5" Velocity="0" />
      <note Length="0.015625" Pitch="58" RiffPosition="4.515625" Velocity="0" />
      <note Length="0.015625" Pitch="58" RiffPosition="4.53125" Velocity="0" />
      <note Length="0.015625" Pitch="70" RiffPosition="4.546875" Velocity="0" />
      <note Length="0.09375" Pitch="71" RiffPosition="4.5625" Velocity="0" />
      <note Length="0.046875" Pitch="71" RiffPosition="4.65625" Velocity="0" />
      <note Length="0.046875" Pitch="75" RiffPosition="4.703125" Velocity="0" />
      <note Length="0.0625" Pitch="65" RiffPosition="4.75" Velocity="0" />
      <note Length="0.1875" Pitch="58" RiffPosition="4.8125" Velocity="0" />
      <note Length="0.015625" Pitch="71" RiffPosition="5" Velocity="0" />
      <note Length="0.015625" Pitch="71" RiffPosition="5.015625" Velocity="0" />
      <note Length="0.015625" Pitch="71" RiffPosition="5.03125" Velocity="0" />
      <note Length="0.015625" Pitch="65" RiffPosition="5.046875" Velocity="0" />
      <note Length="0.09375" Pitch="75" RiffPosition="5.0625" Velocity="0" />
      <note Length="0.046875" Pitch="70" RiffPosition="5.15625" Velocity="0" />
      <note Length="0.046875" Pitch="71" RiffPosition="5.203125" Velocity="0" />
      <note Length="0.0625" Pitch="65" RiffPosition="5.25" Velocity="0" />
      <note Length="0.1875" Pitch="65" RiffPosition="5.3125" Velocity="0" />
      <note Length="0.015625" Pitch="75" RiffPosition="5.5" Velocity="0" />
      <note Length="0.015625" Pitch="70" RiffPosition="5.515625" Velocity="0" />
      <note Length="0.015625" Pitch="58" RiffPosition="5.53125" Velocity="0" />
      <note Length="0.015625" Pitch="58" RiffPosition="5.546875" Velocity="0" />
      <note Length="0.09375" Pitch="70" RiffPosition="5.5625" Velocity="0" />
      <note Length="0.046875" Pitch="74" RiffPosition="5.65625" Velocity="0" />
      <note Length="0.046875" Pitch="65" RiffPosition="5.703125" Velocity="0" />
      <note Length="0.0625" Pitch="58" RiffPosition="5.75" Velocity="0" />
      <note Length="0.1875" Pitch="58" RiffPosition="5.8125" Velocity="0" />
      <note Length="0.015625" Pitch="66" RiffPosition="6" Velocity="59" />
      <note Length="0.015625" Pitch="66" RiffPosition="6.015625" Velocity="60" />
      <note Length="0.015625" Pitch="63" RiffPosition="6.03125" Velocity="48" />
      <note Length="0.015625" Pitch="50" RiffPosition="6.046875" Velocity="35" />
      <note Length="0.09375" Pitch="50" RiffPosition="6.0625" Velocity="47" />
      <note Length="0.046875" Pitch="63" RiffPosition="6.15625" Velocity="49" />
      <note Length="0.046875" Pitch="50" RiffPosition="6.203125" Velocity="39" />
      <note Length="0.0625" Pitch="63" RiffPosition="6.25" Velocity="44" />
      <note Length="0.1875" Pitch="50" RiffPosition="6.3125" Velocity="43" />
      <note Length="0.015625" Pitch="50" RiffPosition="6.5" Velocity="67" />
      <note Length="0.015625" Pitch="62" RiffPosition="6.515625" Velocity="55" />
      <note Length="0.015625" Pitch="63" RiffPosition="6.53125" Velocity="42" />
      <note Length="0.015625" Pitch="63" RiffPosition="6.546875" Velocity="43" />
      <note Length="0.09375" Pitch="62" RiffPosition="6.5625" Velocity="39" />
      <note Length="0.046875" Pitch="69" RiffPosition="6.65625" Velocity="41" />
      <note Length="0.046875" Pitch="50" RiffPosition="6.703125" Velocity="46" />
      <note Length="0.0625" Pitch="50" RiffPosition="6.75" Velocity="39" />
      <note Length="0.1875" Pitch="63" RiffPosition="6.8125" Velocity="35" />
      <note Length="0.015625" Pitch="56" RiffPosition="7" Velocity="61" />
      <note Length="0.015625" Pitch="56" RiffPosition="7.015625" Velocity="49" />
      <note Length="0.015625" Pitch="66" RiffPosition="7.03125" Velocity="50" />
      <note Length="0.015625" Pitch="66" RiffPosition="7.046875" Velocity="37" />
      <note Length="0.09375" Pitch="49" RiffPosition="7.0625" Velocity="45" />
      <note Length="0.046875" Pitch="49" RiffPosition="7.15625" Velocity="47" />
      <note Length="0.046875" Pitch="62" RiffPosition="7.203125" Velocity="41" />
      <note Length="0.0625" Pitch="65" RiffPosition="7.25" Velocity="46" />
      <note Length="0.1875" Pitch="66" RiffPosition="7.3125" Velocity="41" />
      <note Length="0.015625" Pitch="49" RiffPosition="7.5" Velocity="69" />
      <note Length="0.015625" Pitch="49" RiffPosition="7.515625" Velocity="57" />
      <note Length="0.015625" Pitch="65" RiffPosition="7.53125" Velocity="44" />
      <note Length="0.015625" Pitch="62" RiffPosition="7.546875" Velocity="31" />
      <note Length="0.09375" Pitch="62" RiffPosition="7.5625" Velocity="37" />
      <note Length="0.046875" Pitch="49" RiffPosition="7.65625" Velocity="52" />
      <note Length="0.046875" Pitch="49" RiffPosition="7.703125" Velocity="35" />
      <note Length="0.0625" Pitch="62" RiffPosition="7.75" Velocity="41" />
      <note Length="0.1875" Pitch="53" RiffPosition="7.8125" Velocity="47" />
      <note Length="0.015625" Pitch="61" RiffPosition="8" Velocity="63" />
      <note Length="0.015625" Pitch="48" RiffPosition="8.015625" Velocity="51" />
      <note Length="0.015625" Pitch="56" RiffPosition="8.03125" Velocity="52" />
      <note Length="0.015625" Pitch="60" RiffPosition="8.046875" Velocity="39" />
      <note Length="0.09375" Pitch="61" RiffPosition="8.0625" Velocity="43" />
      <note Length="0.046875" Pitch="61" RiffPosition="8.15625" Velocity="45" />
      <note Length="0.046875" Pitch="61" RiffPosition="8.203125" Velocity="43" />
      <note Length="0.0625" Pitch="55" RiffPosition="8.25" Velocity="48" />
      <note Length="0.1875" Pitch="55" RiffPosition="8.3125" Velocity="39" />
      <note Length="0.015625" Pitch="61" RiffPosition="8.5" Velocity="58" />
      <note Length="0.015625" Pitch="60" RiffPosition="8.515625" Velocity="59" />
      <note Length="0.015625" Pitch="48" RiffPosition="8.53125" Velocity="46" />
      <note Length="0.015625" Pitch="65" RiffPosition="8.546875" Velocity="33" />
      <note Length="0.09375" Pitch="65" RiffPosition="8.5625" Velocity="35" />
      <note Length="0.046875" Pitch="48" RiffPosition="8.65625" Velocity="50" />
      <note Length="0.046875" Pitch="61" RiffPosition="8.703125" Velocity="37" />
      <note Length="0.0625" Pitch="48" RiffPosition="8.75" Velocity="43" />
      <note Length="0.1875" Pitch="55" RiffPosition="8.8125" Velocity="45" />
      <note Length="0.015625" Pitch="65" RiffPosition="9" Velocity="65" />
      <note Length="0.015625" Pitch="64" RiffPosition="9.015625" Velocity="53" />
      <note Length="0.015625" Pitch="48" RiffPosition="9.03125" Velocity="40" />
      <note Length="0.015625" Pitch="48" RiffPosition="9.046875" Velocity="41" />
      <note Length="0.09375" Pitch="60" RiffPosition="9.0625" Velocity="41" />
      <note Length="0.046875" Pitch="61" RiffPosition="9.15625" Velocity="42" />
      <note Length="0.046875" Pitch="65" RiffPosition="9.203125" Velocity="45" />
      <note Length="0.0625" Pitch="48" RiffPosition="9.25" Velocity="50" />
      <note Length="0.1875" Pitch="48" RiffPosition="9.3125" Velocity="37" />
      <note Length="0.015625" Pitch="61" RiffPosition="9.5" Velocity="60" />
      <note Length="0.015625" Pitch="61" RiffPosition="9.515625" Velocity="61" />
      <note Length="0.015625" Pitch="61" RiffPosition="9.53125" Velocity="48" />
      <note Length="0.015625" Pitch="56" RiffPosition="9.546875" Velocity="36" />
      <note Length="0.09375" Pitch="56" RiffPosition="9.5625" Velocity="46" />
      <note Length="0.046875" Pitch="61" RiffPosition="9.65625" Velocity="48" />
      <note Length="0.046875" Pitch="48" RiffPosition="9.703125" Velocity="39" />
      <note Length="0.0625" Pitch="60" RiffPosition="9.75" Velocity="45" />
      <note Length="0.1875" Pitch="56" RiffPosition="9.8125" Velocity="43" />
      <note Length="0.015625" Pitch="55" RiffPosition="10" Velocity="67" />
      <note Length="0.015625" Pitch="66" RiffPosition="10.015625" Velocity="55" />
      <note Length="0.015625" Pitch="59" RiffPosition="10.03125" Velocity="42" />
      <note Length="0.015625" Pitch="59" RiffPosition="10.046875" Velocity="43" />
      <note Length="0.09375" Pitch="47" RiffPosition="10.0625" Velocity="39" />
      <note Length="0.046875" Pitch="64" RiffPosition="10.15625" Velocity="40" />
      <note Length="0.046875" Pitch="47" RiffPosition="10.203125" Velocity="33" />
      <note Length="0.0625" Pitch="47" RiffPosition="10.25" Velocity="39" />
      <note Length="0.1875" Pitch="59" RiffPosition="10.3125" Velocity="35" />
      <note Length="0.015625" Pitch="47" RiffPosition="10.5" Velocity="62" />
      <note Length="0.015625" Pitch="64" RiffPosition="10.515625" Velocity="49" />
      <note Length="0.015625" Pitch="64" RiffPosition="10.53125" Velocity="50" />
      <note Length="0.015625" Pitch="63" RiffPosition="10.546875" Velocity="38" />
      <note Length="0.09375" Pitch="47" RiffPosition="10.5625" Velocity="44" />
      <note Length="0.046875" Pitch="47" RiffPosition="10.65625" Velocity="46" />
      <note Length="0.046875" Pitch="59" RiffPosition="10.703125" Velocity="41" />
      <note Length="0.0625" Pitch="60" RiffPosition="10.75" Velocity="47" />
      <note Length="0.1875" Pitch="63" RiffPosition="10.8125" Velocity="40" />
      <note Length="0.015625" Pitch="58" RiffPosition="11" Velocity="69" />
      <note Length="0.015625" Pitch="58" RiffPosition="11.015625" Velocity="57" />
      <note Length="0.015625" Pitch="70" RiffPosition="11.03125" Velocity="44" />
      <note Length="0.015625" Pitch="71" RiffPosition="11.046875" Velocity="32" />
      <note Length="0.09375" Pitch="71" RiffPosition="11.0625" Velocity="37" />
      <note Length="0.046875" Pitch="66" RiffPosition="11.15625" Velocity="52" />
      <note Length="0.046875" Pitch="58" RiffPosition="11.203125" Velocity="35" />
      <note Length="0.0625" Pitch="71" RiffPosition="11.25" Velocity="41" />
      <note Length="0.1875" Pitch="71" RiffPosition="11.3125" Velocity="46" />
      <note Length="0.015625" Pitch="71" RiffPosition="11.5" Velocity="64" />
      <note Length="0.015625" Pitch="66" RiffPosition="11.515625" Velocity="51" />
      <note Length="0.015625" Pitch="77" RiffPosition="11.53125" Velocity="52" />
      <note Length="0.015625" Pitch="77" RiffPosition="11.546875" Velocity="40" />
      <note Length="0.09375" Pitch="70" RiffPosition="11.5625" Velocity="42" />
      <note Length="0.046875" Pitch="70" RiffPosition="11.65625" Velocity="44" />
      <note Length="0.046875" Pitch="71" RiffPosition="11.703125" Velocity="43" />
      <note Length="0.0625" Pitch="75" RiffPosition="11.75" Velocity="49" />
      <note Length="0.1875" Pitch="65" RiffPosition="11.8125" Velocity="38" />
      <note Length="0.015625" Pitch="70" RiffPosition="12" Velocity="0" />
      <note Length="0.015625" Pitch="58" RiffPosition="12.015625" Velocity="0" />
      <note Length="0.015625" Pitch="58" RiffPosition="12.03125" Velocity="0" />
      <note Length="0.015625" Pitch="75" RiffPosition="12.046875" Velocity="0" />
      <note Length="0.09375" Pitch="74" RiffPosition="12.0625" Velocity="0" />
      <note Length="0.046875" Pitch="58" RiffPosition="12.15625" Velocity="0" />
      <note Length="0.046875" Pitch="71" RiffPosition="12.203125" Velocity="0" />
      <note Length="0.0625" Pitch="58" RiffPosition="12.25" Velocity="0" />
      <note Length="0.1875" Pitch="63" RiffPosition="12.3125" Velocity="0" />
      <note Length="0.015625" Pitch="74" RiffPosition="12.5" Velocity="0" />
      <note Length="0.015625" Pitch="71" RiffPosition="12.515625" Velocity="0" />
      <note Length="0.015625" Pitch="58" RiffPosition="12.53125" Velocity="0" />
      <note Length="0.015625" Pitch="58" RiffPosition="12.546875" Velocity="0" />
      <note Length="0.09375" Pitch="70" RiffPosition="12.5625" Velocity="0" />
      <note Length="0.046875" Pitch="71" RiffPosition="12.65625" Velocity="0" />
      <note Length="0.046875" Pitch="75" RiffPosition="12.703125" Velocity="0" />
      <note Length="0.0625" Pitch="66" RiffPosition="12.75" Velocity="0" />
      <note Length="0.1875" Pitch="58" RiffPosition="12.8125" Velocity="0" />
    </riff>
    <riff IsDrum="True" MidiInstrument="0" Tempo="86" Length="13">
      <note Length="0.0625" Pitch="38" RiffPosition="0" Velocity="0" />
      <note Length="0.0625" Pitch="38" RiffPosition="0.0625" Velocity="0" />
      <note Length="0.0625" Pitch="38" RiffPosition="0.125" Velocity="0" />
      <note Length="0.0625" Pitch="38" RiffPosition="0.1875" Velocity="0" />
      <note Length="0.0625" Pitch="38" RiffPosition="0.25" Velocity="0" />
      <note Length="0.0625" Pitch="38" RiffPosition="0.3125" Velocity="0" />
      <note Length="0.0625" Pitch="38" RiffPosition="0.375" Velocity="0" />
      <note Length="0.0625" Pitch="38" RiffPosition="0.4375" Velocity="0" />
      <note Length="0.0625" Pitch="38" RiffPosition="0.5" Velocity="0" />
      <note Length="0.0625" Pitch="38" RiffPosition="0.5625" Velocity="0" />
      <note Length="0.0625" Pitch="38" RiffPosition="0.625" Velocity="0" />
      <note Length="0.0625" Pitch="38" RiffPosition="0.6875" Velocity="0" />
      <note Length="0.0625" Pitch="38" RiffPosition="0.75" Velocity="0" />
      <note Length="0.0625" Pitch="38" RiffPosition="0.8125" Velocity="0" />
      <note Length="0.0625" Pitch="38" RiffPosition="0.875" Velocity="0" />
      <note Length="0.0625" Pitch="38" RiffPosition="0.9375" Velocity="0" />
      <note Length="0.0625" Pitch="38" RiffPosition="1" Velocity="0" />
      <note Length="0.0625" Pitch="38" RiffPosition="1.0625" Velocity="0" />
      <note Length="0.0625" Pitch="38" RiffPosition="1.125" Velocity="0" />
      <note Length="0.0625" Pitch="38" RiffPosition="1.1875" Velocity="0" />
      <note Length="0.0625" Pitch="38" RiffPosition="1.25" Velocity="0" />
      <note Length="0.0625" Pitch="38" RiffPosition="1.3125" Velocity="0" />
      <note Length="0.0625" Pitch="38" RiffPosition="1.375" Velocity="0" />
      <note Length="0.0625" Pitch="38" RiffPosition="1.4375" Velocity="0" />
      <note Length="0.0625" Pitch="38" RiffPosition="1.5" Velocity="0" />
      <note Length="0.0625" Pitch="38" RiffPosition="1.5625" Velocity="0" />
      <note Length="0.0625" Pitch="38" RiffPosition="1.625" Velocity="0" />
      <note Length="0.0625" Pitch="38" RiffPosition="1.6875" Velocity="0" />
      <note Length="0.0625" Pitch="38" RiffPosition="1.75" Velocity="0" />
      <note Length="0.0625" Pitch="38" RiffPosition="1.8125" Velocity="0" />
      <note Length="0.0625" Pitch="38" RiffPosition="1.875" Velocity="0" />
      <note Length="0.0625" Pitch="38" RiffPosition="1.9375" Velocity="0" />
      <note Length="0.0625" Pitch="38" RiffPosition="2" Velocity="0" />
      <note Length="0.0625" Pitch="38" RiffPosition="2.0625" Velocity="0" />
      <note Length="0.0625" Pitch="38" RiffPosition="2.125" Velocity="0" />
      <note Length="0.0625" Pitch="38" RiffPosition="2.1875" Velocity="0" />
      <note Length="0.0625" Pitch="38" RiffPosition="2.25" Velocity="0" />
      <note Length="0.0625" Pitch="38" RiffPosition="2.3125" Velocity="0" />
      <note Length="0.0625" Pitch="38" RiffPosition="2.375" Velocity="0" />
      <note Length="0.0625" Pitch="38" RiffPosition="2.4375" Velocity="0" />
      <note Length="0.0625" Pitch="38" RiffPosition="2.5" Velocity="0" />
      <note Length="0.0625" Pitch="38" RiffPosition="2.5625" Velocity="0" />
      <note Length="0.0625" Pitch="38" RiffPosition="2.625" Velocity="0" />
      <note Length="0.0625" Pitch="38" RiffPosition="2.6875" Velocity="0" />
      <note Length="0.0625" Pitch="38" RiffPosition="2.75" Velocity="0" />
      <note Length="0.0625" Pitch="38" RiffPosition="2.8125" Velocity="0" />
      <note Length="0.0625" Pitch="38" RiffPosition="2.875" Velocity="0" />
      <note Length="0.0625" Pitch="38" RiffPosition="2.9375" Velocity="0" />
      <note Length="0.0625" Pitch="38" RiffPosition="3" Velocity="0" />
      <note Length="0.0625" Pitch="38" RiffPosition="3.0625" Velocity="0" />
      <note Length="0.0625" Pitch="38" RiffPosition="3.125" Velocity="0" />
      <note Length="0.0625" Pitch="38" RiffPosition="3.1875" Velocity="0" />
      <note Length="0.0625" Pitch="38" RiffPosition="3.25" Velocity="0" />
      <note Length="0.0625" Pitch="38" RiffPosition="3.3125" Velocity="0" />
      <note Length="0.0625" Pitch="38" RiffPosition="3.375" Velocity="0" />
      <note Length="0.0625" Pitch="38" RiffPosition="3.4375" Velocity="0" />
      <note Length="0.0625" Pitch="38" RiffPosition="3.5" Velocity="0" />
      <note Length="0.0625" Pitch="38" RiffPosition="3.5625" Velocity="0" />
      <note Length="0.0625" Pitch="38" RiffPosition="3.625" Velocity="0" />
      <note Length="0.0625" Pitch="38" RiffPosition="3.6875" Velocity="0" />
      <note Length="0.0625" Pitch="38" RiffPosition="3.75" Velocity="0" />
      <note Length="0.0625" Pitch="38" RiffPosition="3.8125" Velocity="0" />
      <note Length="0.0625" Pitch="38" RiffPosition="3.875" Velocity="0" />
      <note Length="0.0625" Pitch="38" RiffPosition="3.9375" Velocity="0" />
      <note Length="0.0625" Pitch="38" RiffPosition="4" Velocity="0" />
      <note Length="0.0625" Pitch="38" RiffPosition="4.0625" Velocity="0" />
      <note Length="0.0625" Pitch="38" RiffPosition="4.125" Velocity="0" />
      <note Length="0.0625" Pitch="38" RiffPosition="4.1875" Velocity="0" />
      <note Length="0.0625" Pitch="38" RiffPosition="4.25" Velocity="0" />
      <note Length="0.0625" Pitch="38" RiffPosition="4.3125" Velocity="0" />
      <note Length="0.0625" Pitch="38" RiffPosition="4.375" Velocity="0" />
      <note Length="0.0625" Pitch="38" RiffPosition="4.4375" Velocity="0" />
      <note Length="0.0625" Pitch="38" RiffPosition="4.5" Velocity="0" />
      <note Length="0.0625" Pitch="38" RiffPosition="4.5625" Velocity="0" />
      <note Length="0.0625" Pitch="38" RiffPosition="4.625" Velocity="0" />
      <note Length="0.0625" Pitch="38" RiffPosition="4.6875" Velocity="0" />
      <note Length="0.0625" Pitch="38" RiffPosition="4.75" Velocity="0" />
      <note Length="0.0625" Pitch="38" RiffPosition="4.8125" Velocity="0" />
      <note Length="0.0625" Pitch="38" RiffPosition="4.875" Velocity="0" />
      <note Length="0.0625" Pitch="38" RiffPosition="4.9375" Velocity="0" />
      <note Length="0.0625" Pitch="38" RiffPosition="5" Velocity="0" />
      <note Length="0.0625" Pitch="38" RiffPosition="5.0625" Velocity="0" />
      <note Length="0.0625" Pitch="38" RiffPosition="5.125" Velocity="0" />
      <note Length="0.0625" Pitch="38" RiffPosition="5.1875" Velocity="0" />
      <note Length="0.0625" Pitch="38" RiffPosition="5.25" Velocity="0" />
      <note Length="0.0625" Pitch="38" RiffPosition="5.3125" Velocity="0" />
      <note Length="0.0625" Pitch="38" RiffPosition="5.375" Velocity="0" />
      <note Length="0.0625" Pitch="38" RiffPosition="5.4375" Velocity="0" />
      <note Length="0.0625" Pitch="38" RiffPosition="5.5" Velocity="0" />
      <note Length="0.0625" Pitch="38" RiffPosition="5.5625" Velocity="0" />
      <note Length="0.0625" Pitch="38" RiffPosition="5.625" Velocity="0" />
      <note Length="0.0625" Pitch="38" RiffPosition="5.6875" Velocity="0" />
      <note Length="0.0625" Pitch="38" RiffPosition="5.75" Velocity="0" />
      <note Length="0.0625" Pitch="38" RiffPosition="5.8125" Velocity="0" />
      <note Length="0.0625" Pitch="38" RiffPosition="5.875" Velocity="0" />
      <note Length="0.0625" Pitch="38" RiffPosition="5.9375" Velocity="0" />
      <note Length="0.0625" Pitch="38" RiffPosition="6" Velocity="0" />
      <note Length="0.0625" Pitch="38" RiffPosition="6.0625" Velocity="105" />
      <note Length="0.0625" Pitch="38" RiffPosition="6.125" Velocity="0" />
      <note Length="0.0625" Pitch="38" RiffPosition="6.1875" Velocity="105" />
      <note Length="0.0625" Pitch="38" RiffPosition="6.25" Velocity="0" />
      <note Length="0.0625" Pitch="38" RiffPosition="6.3125" Velocity="105" />
      <note Length="0.0625" Pitch="38" RiffPosition="6.375" Velocity="0" />
      <note Length="0.0625" Pitch="38" RiffPosition="6.4375" Velocity="105" />
      <note Length="0.0625" Pitch="38" RiffPosition="6.5" Velocity="0" />
      <note Length="0.0625" Pitch="38" RiffPosition="6.5625" Velocity="105" />
      <note Length="0.0625" Pitch="38" RiffPosition="6.625" Velocity="0" />
      <note Length="0.0625" Pitch="38" RiffPosition="6.6875" Velocity="105" />
      <note Length="0.0625" Pitch="38" RiffPosition="6.75" Velocity="0" />
      <note Length="0.0625" Pitch="38" RiffPosition="6.8125" Velocity="105" />
      <note Length="0.0625" Pitch="38" RiffPosition="6.875" Velocity="0" />
      <note Length="0.0625" Pitch="38" RiffPosition="6.9375" Velocity="105" />
      <note Length="0.0625" Pitch="38" RiffPosition="7" Velocity="0" />
      <note Length="0.0625" Pitch="38" RiffPosition="7.0625" Velocity="105" />
      <note Length="0.0625" Pitch="38" RiffPosition="7.125" Velocity="0" />
      <note Length="0.0625" Pitch="38" RiffPosition="7.1875" Velocity="105" />
      <note Length="0.0625" Pitch="38" RiffPosition="7.25" Velocity="0" />
      <note Length="0.0625" Pitch="38" RiffPosition="7.3125" Velocity="105" />
      <note Length="0.0625" Pitch="38" RiffPosition="7.375" Velocity="0" />
      <note Length="0.0625" Pitch="38" RiffPosition="7.4375" Velocity="105" />
      <note Length="0.0625" Pitch="38" RiffPosition="7.5" Velocity="0" />
      <note Length="0.0625" Pitch="38" RiffPosition="7.5625" Velocity="105" />
      <note Length="0.0625" Pitch="38" RiffPosition="7.625" Velocity="0" />
      <note Length="0.0625" Pitch="38" RiffPosition="7.6875" Velocity="105" />
      <note Length="0.0625" Pitch="38" RiffPosition="7.75" Velocity="0" />
      <note Length="0.0625" Pitch="38" RiffPosition="7.8125" Velocity="105" />
      <note Length="0.0625" Pitch="38" RiffPosition="7.875" Velocity="0" />
      <note Length="0.0625" Pitch="38" RiffPosition="7.9375" Velocity="105" />
      <note Length="0.0625" Pitch="38" RiffPosition="8" Velocity="0" />
      <note Length="0.0625" Pitch="38" RiffPosition="8.0625" Velocity="105" />
      <note Length="0.0625" Pitch="38" RiffPosition="8.125" Velocity="0" />
      <note Length="0.0625" Pitch="38" RiffPosition="8.1875" Velocity="105" />
      <note Length="0.0625" Pitch="38" RiffPosition="8.25" Velocity="0" />
      <note Length="0.0625" Pitch="38" RiffPosition="8.3125" Velocity="105" />
      <note Length="0.0625" Pitch="38" RiffPosition="8.375" Velocity="0" />
      <note Length="0.0625" Pitch="38" RiffPosition="8.4375" Velocity="105" />
      <note Length="0.0625" Pitch="38" RiffPosition="8.5" Velocity="0" />
      <note Length="0.0625" Pitch="38" RiffPosition="8.5625" Velocity="105" />
      <note Length="0.0625" Pitch="38" RiffPosition="8.625" Velocity="0" />
      <note Length="0.0625" Pitch="38" RiffPosition="8.6875" Velocity="105" />
      <note Length="0.0625" Pitch="38" RiffPosition="8.75" Velocity="0" />
      <note Length="0.0625" Pitch="38" RiffPosition="8.8125" Velocity="105" />
      <note Length="0.0625" Pitch="38" RiffPosition="8.875" Velocity="0" />
      <note Length="0.0625" Pitch="38" RiffPosition="8.9375" Velocity="105" />
      <note Length="0.0625" Pitch="38" RiffPosition="9" Velocity="0" />
      <note Length="0.0625" Pitch="38" RiffPosition="9.0625" Velocity="0" />
      <note Length="0.0625" Pitch="38" RiffPosition="9.125" Velocity="0" />
      <note Length="0.0625" Pitch="38" RiffPosition="9.1875" Velocity="0" />
      <note Length="0.0625" Pitch="38" RiffPosition="9.25" Velocity="0" />
      <note Length="0.0625" Pitch="38" RiffPosition="9.3125" Velocity="0" />
      <note Length="0.0625" Pitch="38" RiffPosition="9.375" Velocity="0" />
      <note Length="0.0625" Pitch="38" RiffPosition="9.4375" Velocity="0" />
      <note Length="0.0625" Pitch="38" RiffPosition="9.5" Velocity="0" />
      <note Length="0.0625" Pitch="38" RiffPosition="9.5625" Velocity="0" />
      <note Length="0.0625" Pitch="38" RiffPosition="9.625" Velocity="0" />
      <note Length="0.0625" Pitch="38" RiffPosition="9.6875" Velocity="0" />
      <note Length="0.0625" Pitch="38" RiffPosition="9.75" Velocity="0" />
      <note Length="0.0625" Pitch="38" RiffPosition="9.8125" Velocity="0" />
      <note Length="0.0625" Pitch="38" RiffPosition="9.875" Velocity="0" />
      <note Length="0.0625" Pitch="38" RiffPosition="9.9375" Velocity="0" />
      <note Length="0.0625" Pitch="38" RiffPosition="10" Velocity="0" />
      <note Length="0.0625" Pitch="38" RiffPosition="10.0625" Velocity="0" />
      <note Length="0.0625" Pitch="38" RiffPosition="10.125" Velocity="0" />
      <note Length="0.0625" Pitch="38" RiffPosition="10.1875" Velocity="0" />
      <note Length="0.0625" Pitch="38" RiffPosition="10.25" Velocity="0" />
      <note Length="0.0625" Pitch="38" RiffPosition="10.3125" Velocity="0" />
      <note Length="0.0625" Pitch="38" RiffPosition="10.375" Velocity="0" />
      <note Length="0.0625" Pitch="38" RiffPosition="10.4375" Velocity="0" />
      <note Length="0.0625" Pitch="38" RiffPosition="10.5" Velocity="0" />
      <note Length="0.0625" Pitch="38" RiffPosition="10.5625" Velocity="0" />
      <note Length="0.0625" Pitch="38" RiffPosition="10.625" Velocity="0" />
      <note Length="0.0625" Pitch="38" RiffPosition="10.6875" Velocity="0" />
      <note Length="0.0625" Pitch="38" RiffPosition="10.75" Velocity="0" />
      <note Length="0.0625" Pitch="38" RiffPosition="10.8125" Velocity="0" />
      <note Length="0.0625" Pitch="38" RiffPosition="10.875" Velocity="0" />
      <note Length="0.0625" Pitch="38" RiffPosition="10.9375" Velocity="0" />
      <note Length="0.0625" Pitch="38" RiffPosition="11" Velocity="0" />
      <note Length="0.0625" Pitch="38" RiffPosition="11.0625" Velocity="105" />
      <note Length="0.0625" Pitch="38" RiffPosition="11.125" Velocity="0" />
      <note Length="0.0625" Pitch="38" RiffPosition="11.1875" Velocity="105" />
      <note Length="0.0625" Pitch="38" RiffPosition="11.25" Velocity="0" />
      <note Length="0.0625" Pitch="38" RiffPosition="11.3125" Velocity="105" />
      <note Length="0.0625" Pitch="38" RiffPosition="11.375" Velocity="0" />
      <note Length="0.0625" Pitch="38" RiffPosition="11.4375" Velocity="105" />
      <note Length="0.0625" Pitch="38" RiffPosition="11.5" Velocity="0" />
      <note Length="0.0625" Pitch="38" RiffPosition="11.5625" Velocity="105" />
      <note Length="0.0625" Pitch="38" RiffPosition="11.625" Velocity="0" />
      <note Length="0.0625" Pitch="38" RiffPosition="11.6875" Velocity="105" />
      <note Length="0.0625" Pitch="38" RiffPosition="11.75" Velocity="0" />
      <note Length="0.0625" Pitch="38" RiffPosition="11.8125" Velocity="105" />
      <note Length="0.0625" Pitch="38" RiffPosition="11.875" Velocity="0" />
      <note Length="0.0625" Pitch="38" RiffPosition="11.9375" Velocity="105" />
      <note Length="0.0625" Pitch="38" RiffPosition="12" Velocity="0" />
      <note Length="0.0625" Pitch="38" RiffPosition="12.0625" Velocity="0" />
      <note Length="0.0625" Pitch="38" RiffPosition="12.125" Velocity="0" />
      <note Length="0.0625" Pitch="38" RiffPosition="12.1875" Velocity="0" />
      <note Length="0.0625" Pitch="38" RiffPosition="12.25" Velocity="0" />
      <note Length="0.0625" Pitch="38" RiffPosition="12.3125" Velocity="0" />
      <note Length="0.0625" Pitch="38" RiffPosition="12.375" Velocity="0" />
      <note Length="0.0625" Pitch="38" RiffPosition="12.4375" Velocity="0" />
      <note Length="0.0625" Pitch="38" RiffPosition="12.5" Velocity="0" />
      <note Length="0.0625" Pitch="38" RiffPosition="12.5625" Velocity="0" />
      <note Length="0.0625" Pitch="38" RiffPosition="12.625" Velocity="0" />
      <note Length="0.0625" Pitch="38" RiffPosition="12.6875" Velocity="0" />
      <note Length="0.0625" Pitch="38" RiffPosition="12.75" Velocity="0" />
      <note Length="0.0625" Pitch="38" RiffPosition="12.8125" Velocity="0" />
      <note Length="0.0625" Pitch="38" RiffPosition="12.875" Velocity="0" />
      <note Length="0.0625" Pitch="38" RiffPosition="12.9375" Velocity="0" />
    </riff>
    <riff IsDrum="True" MidiInstrument="0" Tempo="123" Length="13">
      <note Length="0.0625" Pitch="35" RiffPosition="0" Velocity="127" />
      <note Length="0.03125" Pitch="35" RiffPosition="0.0625" Velocity="127" />
      <note Length="0.03125" Pitch="35" RiffPosition="0.09375" Velocity="127" />
      <note Length="0.046875" Pitch="35" RiffPosition="0.125" Velocity="127" />
      <note Length="0.046875" Pitch="35" RiffPosition="0.171875" Velocity="127" />
      <note Length="0.03125" Pitch="35" RiffPosition="0.21875" Velocity="127" />
      <note Length="0.1875" Pitch="35" RiffPosition="0.25" Velocity="127" />
      <note Length="0.015625" Pitch="35" RiffPosition="0.4375" Velocity="127" />
      <note Length="0.015625" Pitch="35" RiffPosition="0.453125" Velocity="127" />
      <note Length="0.0234375" Pitch="35" RiffPosition="0.46875" Velocity="127" />
      <note Length="0.0078125" Pitch="35" RiffPosition="0.4921875" Velocity="127" />
      <note Length="0.0625" Pitch="35" RiffPosition="0.5" Velocity="127" />
      <note Length="0.03125" Pitch="35" RiffPosition="0.5625" Velocity="127" />
      <note Length="0.03125" Pitch="35" RiffPosition="0.59375" Velocity="127" />
      <note Length="0.046875" Pitch="35" RiffPosition="0.625" Velocity="127" />
      <note Length="0.046875" Pitch="35" RiffPosition="0.671875" Velocity="127" />
      <note Length="0.03125" Pitch="35" RiffPosition="0.71875" Velocity="127" />
      <note Length="0.1875" Pitch="35" RiffPosition="0.75" Velocity="127" />
      <note Length="0.015625" Pitch="35" RiffPosition="0.9375" Velocity="127" />
      <note Length="0.015625" Pitch="35" RiffPosition="0.953125" Velocity="127" />
      <note Length="0.0234375" Pitch="35" RiffPosition="0.96875" Velocity="127" />
      <note Length="0.0078125" Pitch="35" RiffPosition="0.9921875" Velocity="127" />
      <note Length="0.0625" Pitch="35" RiffPosition="1" Velocity="127" />
      <note Length="0.03125" Pitch="35" RiffPosition="1.0625" Velocity="127" />
      <note Length="0.03125" Pitch="35" RiffPosition="1.09375" Velocity="127" />
      <note Length="0.046875" Pitch="35" RiffPosition="1.125" Velocity="127" />
      <note Length="0.046875" Pitch="35" RiffPosition="1.171875" Velocity="127" />
      <note Length="0.03125" Pitch="35" RiffPosition="1.21875" Velocity="127" />
      <note Length="0.1875" Pitch="35" RiffPosition="1.25" Velocity="127" />
      <note Length="0.015625" Pitch="35" RiffPosition="1.4375" Velocity="127" />
      <note Length="0.015625" Pitch="35" RiffPosition="1.453125" Velocity="127" />
      <note Length="0.0234375" Pitch="35" RiffPosition="1.46875" Velocity="127" />
      <note Length="0.0078125" Pitch="35" RiffPosition="1.4921875" Velocity="127" />
      <note Length="0.0625" Pitch="35" RiffPosition="1.5" Velocity="127" />
      <note Length="0.03125" Pitch="35" RiffPosition="1.5625" Velocity="127" />
      <note Length="0.03125" Pitch="35" RiffPosition="1.59375" Velocity="127" />
      <note Length="0.046875" Pitch="35" RiffPosition="1.625" Velocity="127" />
      <note Length="0.046875" Pitch="35" RiffPosition="1.671875" Velocity="127" />
      <note Length="0.03125" Pitch="35" RiffPosition="1.71875" Velocity="127" />
      <note Length="0.1875" Pitch="35" RiffPosition="1.75" Velocity="127" />
      <note Length="0.015625" Pitch="35" RiffPosition="1.9375" Velocity="127" />
      <note Length="0.015625" Pitch="35" RiffPosition="1.953125" Velocity="127" />
      <note Length="0.0234375" Pitch="35" RiffPosition="1.96875" Velocity="127" />
      <note Length="0.0078125" Pitch="35" RiffPosition="1.9921875" Velocity="127" />
      <note Length="0.0625" Pitch="35" RiffPosition="2" Velocity="127" />
      <note Length="0.03125" Pitch="35" RiffPosition="2.0625" Velocity="127" />
      <note Length="0.03125" Pitch="35" RiffPosition="2.09375" Velocity="127" />
      <note Length="0.046875" Pitch="35" RiffPosition="2.125" Velocity="127" />
      <note Length="0.046875" Pitch="35" RiffPosition="2.171875" Velocity="127" />
      <note Length="0.03125" Pitch="35" RiffPosition="2.21875" Velocity="127" />
      <note Length="0.1875" Pitch="35" RiffPosition="2.25" Velocity="127" />
      <note Length="0.015625" Pitch="35" RiffPosition="2.4375" Velocity="127" />
      <note Length="0.015625" Pitch="35" RiffPosition="2.453125" Velocity="127" />
      <note Length="0.0234375" Pitch="35" RiffPosition="2.46875" Velocity="127" />
      <note Length="0.0078125" Pitch="35" RiffPosition="2.4921875" Velocity="127" />
      <note Length="0.0625" Pitch="35" RiffPosition="2.5" Velocity="127" />
      <note Length="0.03125" Pitch="35" RiffPosition="2.5625" Velocity="127" />
      <note Length="0.03125" Pitch="35" RiffPosition="2.59375" Velocity="127" />
      <note Length="0.046875" Pitch="35" RiffPosition="2.625" Velocity="127" />
      <note Length="0.046875" Pitch="35" RiffPosition="2.671875" Velocity="127" />
      <note Length="0.03125" Pitch="35" RiffPosition="2.71875" Velocity="127" />
      <note Length="0.1875" Pitch="35" RiffPosition="2.75" Velocity="127" />
      <note Length="0.015625" Pitch="35" RiffPosition="2.9375" Velocity="127" />
      <note Length="0.015625" Pitch="35" RiffPosition="2.953125" Velocity="127" />
      <note Length="0.0234375" Pitch="35" RiffPosition="2.96875" Velocity="127" />
      <note Length="0.0078125" Pitch="35" RiffPosition="2.9921875" Velocity="127" />
      <note Length="0.0625" Pitch="35" RiffPosition="3" Velocity="0" />
      <note Length="0.03125" Pitch="35" RiffPosition="3.0625" Velocity="0" />
      <note Length="0.03125" Pitch="35" RiffPosition="3.09375" Velocity="0" />
      <note Length="0.046875" Pitch="35" RiffPosition="3.125" Velocity="0" />
      <note Length="0.046875" Pitch="35" RiffPosition="3.171875" Velocity="0" />
      <note Length="0.03125" Pitch="35" RiffPosition="3.21875" Velocity="0" />
      <note Length="0.1875" Pitch="35" RiffPosition="3.25" Velocity="0" />
      <note Length="0.015625" Pitch="35" RiffPosition="3.4375" Velocity="0" />
      <note Length="0.015625" Pitch="35" RiffPosition="3.453125" Velocity="0" />
      <note Length="0.0234375" Pitch="35" RiffPosition="3.46875" Velocity="0" />
      <note Length="0.0078125" Pitch="35" RiffPosition="3.4921875" Velocity="0" />
      <note Length="0.0625" Pitch="35" RiffPosition="3.5" Velocity="0" />
      <note Length="0.03125" Pitch="35" RiffPosition="3.5625" Velocity="0" />
      <note Length="0.03125" Pitch="35" RiffPosition="3.59375" Velocity="0" />
      <note Length="0.046875" Pitch="35" RiffPosition="3.625" Velocity="0" />
      <note Length="0.046875" Pitch="35" RiffPosition="3.671875" Velocity="0" />
      <note Length="0.03125" Pitch="35" RiffPosition="3.71875" Velocity="0" />
      <note Length="0.1875" Pitch="35" RiffPosition="3.75" Velocity="0" />
      <note Length="0.015625" Pitch="35" RiffPosition="3.9375" Velocity="0" />
      <note Length="0.015625" Pitch="35" RiffPosition="3.953125" Velocity="0" />
      <note Length="0.0234375" Pitch="35" RiffPosition="3.96875" Velocity="0" />
      <note Length="0.0078125" Pitch="35" RiffPosition="3.9921875" Velocity="0" />
      <note Length="0.0625" Pitch="35" RiffPosition="4" Velocity="127" />
      <note Length="0.03125" Pitch="35" RiffPosition="4.0625" Velocity="127" />
      <note Length="0.03125" Pitch="35" RiffPosition="4.09375" Velocity="127" />
      <note Length="0.046875" Pitch="35" RiffPosition="4.125" Velocity="127" />
      <note Length="0.046875" Pitch="35" RiffPosition="4.171875" Velocity="127" />
      <note Length="0.03125" Pitch="35" RiffPosition="4.21875" Velocity="127" />
      <note Length="0.1875" Pitch="35" RiffPosition="4.25" Velocity="127" />
      <note Length="0.015625" Pitch="35" RiffPosition="4.4375" Velocity="127" />
      <note Length="0.015625" Pitch="35" RiffPosition="4.453125" Velocity="127" />
      <note Length="0.0234375" Pitch="35" RiffPosition="4.46875" Velocity="127" />
      <note Length="0.0078125" Pitch="35" RiffPosition="4.4921875" Velocity="127" />
      <note Length="0.0625" Pitch="35" RiffPosition="4.5" Velocity="127" />
      <note Length="0.03125" Pitch="35" RiffPosition="4.5625" Velocity="127" />
      <note Length="0.03125" Pitch="35" RiffPosition="4.59375" Velocity="127" />
      <note Length="0.046875" Pitch="35" RiffPosition="4.625" Velocity="127" />
      <note Length="0.046875" Pitch="35" RiffPosition="4.671875" Velocity="127" />
      <note Length="0.03125" Pitch="35" RiffPosition="4.71875" Velocity="127" />
      <note Length="0.1875" Pitch="35" RiffPosition="4.75" Velocity="127" />
      <note Length="0.015625" Pitch="35" RiffPosition="4.9375" Velocity="127" />
      <note Length="0.015625" Pitch="35" RiffPosition="4.953125" Velocity="127" />
      <note Length="0.0234375" Pitch="35" RiffPosition="4.96875" Velocity="127" />
      <note Length="0.0078125" Pitch="35" RiffPosition="4.9921875" Velocity="127" />
      <note Length="0.0625" Pitch="35" RiffPosition="5" Velocity="127" />
      <note Length="0.03125" Pitch="35" RiffPosition="5.0625" Velocity="127" />
      <note Length="0.03125" Pitch="35" RiffPosition="5.09375" Velocity="127" />
      <note Length="0.046875" Pitch="35" RiffPosition="5.125" Velocity="127" />
      <note Length="0.046875" Pitch="35" RiffPosition="5.171875" Velocity="127" />
      <note Length="0.03125" Pitch="35" RiffPosition="5.21875" Velocity="127" />
      <note Length="0.1875" Pitch="35" RiffPosition="5.25" Velocity="127" />
      <note Length="0.015625" Pitch="35" RiffPosition="5.4375" Velocity="127" />
      <note Length="0.015625" Pitch="35" RiffPosition="5.453125" Velocity="127" />
      <note Length="0.0234375" Pitch="35" RiffPosition="5.46875" Velocity="127" />
      <note Length="0.0078125" Pitch="35" RiffPosition="5.4921875" Velocity="127" />
      <note Length="0.0625" Pitch="35" RiffPosition="5.5" Velocity="127" />
      <note Length="0.03125" Pitch="35" RiffPosition="5.5625" Velocity="127" />
      <note Length="0.03125" Pitch="35" RiffPosition="5.59375" Velocity="127" />
      <note Length="0.046875" Pitch="35" RiffPosition="5.625" Velocity="127" />
      <note Length="0.046875" Pitch="35" RiffPosition="5.671875" Velocity="127" />
      <note Length="0.03125" Pitch="35" RiffPosition="5.71875" Velocity="127" />
      <note Length="0.1875" Pitch="35" RiffPosition="5.75" Velocity="127" />
      <note Length="0.015625" Pitch="35" RiffPosition="5.9375" Velocity="127" />
      <note Length="0.015625" Pitch="35" RiffPosition="5.953125" Velocity="127" />
      <note Length="0.0234375" Pitch="35" RiffPosition="5.96875" Velocity="127" />
      <note Length="0.0078125" Pitch="35" RiffPosition="5.9921875" Velocity="127" />
      <note Length="0.0625" Pitch="35" RiffPosition="6" Velocity="0" />
      <note Length="0.03125" Pitch="35" RiffPosition="6.0625" Velocity="0" />
      <note Length="0.03125" Pitch="35" RiffPosition="6.09375" Velocity="0" />
      <note Length="0.046875" Pitch="35" RiffPosition="6.125" Velocity="0" />
      <note Length="0.046875" Pitch="35" RiffPosition="6.171875" Velocity="0" />
      <note Length="0.03125" Pitch="35" RiffPosition="6.21875" Velocity="0" />
      <note Length="0.1875" Pitch="35" RiffPosition="6.25" Velocity="0" />
      <note Length="0.015625" Pitch="35" RiffPosition="6.4375" Velocity="0" />
      <note Length="0.015625" Pitch="35" RiffPosition="6.453125" Velocity="0" />
      <note Length="0.0234375" Pitch="35" RiffPosition="6.46875" Velocity="0" />
      <note Length="0.0078125" Pitch="35" RiffPosition="6.4921875" Velocity="0" />
      <note Length="0.0625" Pitch="35" RiffPosition="6.5" Velocity="0" />
      <note Length="0.03125" Pitch="35" RiffPosition="6.5625" Velocity="0" />
      <note Length="0.03125" Pitch="35" RiffPosition="6.59375" Velocity="0" />
      <note Length="0.046875" Pitch="35" RiffPosition="6.625" Velocity="0" />
      <note Length="0.046875" Pitch="35" RiffPosition="6.671875" Velocity="0" />
      <note Length="0.03125" Pitch="35" RiffPosition="6.71875" Velocity="0" />
      <note Length="0.1875" Pitch="35" RiffPosition="6.75" Velocity="0" />
      <note Length="0.015625" Pitch="35" RiffPosition="6.9375" Velocity="0" />
      <note Length="0.015625" Pitch="35" RiffPosition="6.953125" Velocity="0" />
      <note Length="0.0234375" Pitch="35" RiffPosition="6.96875" Velocity="0" />
      <note Length="0.0078125" Pitch="35" RiffPosition="6.9921875" Velocity="0" />
      <note Length="0.0625" Pitch="35" RiffPosition="7" Velocity="0" />
      <note Length="0.03125" Pitch="35" RiffPosition="7.0625" Velocity="0" />
      <note Length="0.03125" Pitch="35" RiffPosition="7.09375" Velocity="0" />
      <note Length="0.046875" Pitch="35" RiffPosition="7.125" Velocity="0" />
      <note Length="0.046875" Pitch="35" RiffPosition="7.171875" Velocity="0" />
      <note Length="0.03125" Pitch="35" RiffPosition="7.21875" Velocity="0" />
      <note Length="0.1875" Pitch="35" RiffPosition="7.25" Velocity="0" />
      <note Length="0.015625" Pitch="35" RiffPosition="7.4375" Velocity="0" />
      <note Length="0.015625" Pitch="35" RiffPosition="7.453125" Velocity="0" />
      <note Length="0.0234375" Pitch="35" RiffPosition="7.46875" Velocity="0" />
      <note Length="0.0078125" Pitch="35" RiffPosition="7.4921875" Velocity="0" />
      <note Length="0.0625" Pitch="35" RiffPosition="7.5" Velocity="0" />
      <note Length="0.03125" Pitch="35" RiffPosition="7.5625" Velocity="0" />
      <note Length="0.03125" Pitch="35" RiffPosition="7.59375" Velocity="0" />
      <note Length="0.046875" Pitch="35" RiffPosition="7.625" Velocity="0" />
      <note Length="0.046875" Pitch="35" RiffPosition="7.671875" Velocity="0" />
      <note Length="0.03125" Pitch="35" RiffPosition="7.71875" Velocity="0" />
      <note Length="0.1875" Pitch="35" RiffPosition="7.75" Velocity="0" />
      <note Length="0.015625" Pitch="35" RiffPosition="7.9375" Velocity="0" />
      <note Length="0.015625" Pitch="35" RiffPosition="7.953125" Velocity="0" />
      <note Length="0.0234375" Pitch="35" RiffPosition="7.96875" Velocity="0" />
      <note Length="0.0078125" Pitch="35" RiffPosition="7.9921875" Velocity="0" />
      <note Length="0.0625" Pitch="35" RiffPosition="8" Velocity="0" />
      <note Length="0.03125" Pitch="35" RiffPosition="8.0625" Velocity="0" />
      <note Length="0.03125" Pitch="35" RiffPosition="8.09375" Velocity="0" />
      <note Length="0.046875" Pitch="35" RiffPosition="8.125" Velocity="0" />
      <note Length="0.046875" Pitch="35" RiffPosition="8.171875" Velocity="0" />
      <note Length="0.03125" Pitch="35" RiffPosition="8.21875" Velocity="0" />
      <note Length="0.1875" Pitch="35" RiffPosition="8.25" Velocity="0" />
      <note Length="0.015625" Pitch="35" RiffPosition="8.4375" Velocity="0" />
      <note Length="0.015625" Pitch="35" RiffPosition="8.453125" Velocity="0" />
      <note Length="0.0234375" Pitch="35" RiffPosition="8.46875" Velocity="0" />
      <note Length="0.0078125" Pitch="35" RiffPosition="8.4921875" Velocity="0" />
      <note Length="0.0625" Pitch="35" RiffPosition="8.5" Velocity="0" />
      <note Length="0.03125" Pitch="35" RiffPosition="8.5625" Velocity="0" />
      <note Length="0.03125" Pitch="35" RiffPosition="8.59375" Velocity="0" />
      <note Length="0.046875" Pitch="35" RiffPosition="8.625" Velocity="0" />
      <note Length="0.046875" Pitch="35" RiffPosition="8.671875" Velocity="0" />
      <note Length="0.03125" Pitch="35" RiffPosition="8.71875" Velocity="0" />
      <note Length="0.1875" Pitch="35" RiffPosition="8.75" Velocity="0" />
      <note Length="0.015625" Pitch="35" RiffPosition="8.9375" Velocity="0" />
      <note Length="0.015625" Pitch="35" RiffPosition="8.953125" Velocity="0" />
      <note Length="0.0234375" Pitch="35" RiffPosition="8.96875" Velocity="0" />
      <note Length="0.0078125" Pitch="35" RiffPosition="8.9921875" Velocity="0" />
      <note Length="0.0625" Pitch="35" RiffPosition="9" Velocity="127" />
      <note Length="0.03125" Pitch="35" RiffPosition="9.0625" Velocity="127" />
      <note Length="0.03125" Pitch="35" RiffPosition="9.09375" Velocity="127" />
      <note Length="0.046875" Pitch="35" RiffPosition="9.125" Velocity="127" />
      <note Length="0.046875" Pitch="35" RiffPosition="9.171875" Velocity="127" />
      <note Length="0.03125" Pitch="35" RiffPosition="9.21875" Velocity="127" />
      <note Length="0.1875" Pitch="35" RiffPosition="9.25" Velocity="127" />
      <note Length="0.015625" Pitch="35" RiffPosition="9.4375" Velocity="127" />
      <note Length="0.015625" Pitch="35" RiffPosition="9.453125" Velocity="127" />
      <note Length="0.0234375" Pitch="35" RiffPosition="9.46875" Velocity="127" />
      <note Length="0.0078125" Pitch="35" RiffPosition="9.4921875" Velocity="127" />
      <note Length="0.0625" Pitch="35" RiffPosition="9.5" Velocity="127" />
      <note Length="0.03125" Pitch="35" RiffPosition="9.5625" Velocity="127" />
      <note Length="0.03125" Pitch="35" RiffPosition="9.59375" Velocity="127" />
      <note Length="0.046875" Pitch="35" RiffPosition="9.625" Velocity="127" />
      <note Length="0.046875" Pitch="35" RiffPosition="9.671875" Velocity="127" />
      <note Length="0.03125" Pitch="35" RiffPosition="9.71875" Velocity="127" />
      <note Length="0.1875" Pitch="35" RiffPosition="9.75" Velocity="127" />
      <note Length="0.015625" Pitch="35" RiffPosition="9.9375" Velocity="127" />
      <note Length="0.015625" Pitch="35" RiffPosition="9.953125" Velocity="127" />
      <note Length="0.0234375" Pitch="35" RiffPosition="9.96875" Velocity="127" />
      <note Length="0.0078125" Pitch="35" RiffPosition="9.9921875" Velocity="127" />
      <note Length="0.0625" Pitch="35" RiffPosition="10" Velocity="127" />
      <note Length="0.03125" Pitch="35" RiffPosition="10.0625" Velocity="127" />
      <note Length="0.03125" Pitch="35" RiffPosition="10.09375" Velocity="127" />
      <note Length="0.046875" Pitch="35" RiffPosition="10.125" Velocity="127" />
      <note Length="0.046875" Pitch="35" RiffPosition="10.171875" Velocity="127" />
      <note Length="0.03125" Pitch="35" RiffPosition="10.21875" Velocity="127" />
      <note Length="0.1875" Pitch="35" RiffPosition="10.25" Velocity="127" />
      <note Length="0.015625" Pitch="35" RiffPosition="10.4375" Velocity="127" />
      <note Length="0.015625" Pitch="35" RiffPosition="10.453125" Velocity="127" />
      <note Length="0.0234375" Pitch="35" RiffPosition="10.46875" Velocity="127" />
      <note Length="0.0078125" Pitch="35" RiffPosition="10.4921875" Velocity="127" />
      <note Length="0.0625" Pitch="35" RiffPosition="10.5" Velocity="127" />
      <note Length="0.03125" Pitch="35" RiffPosition="10.5625" Velocity="127" />
      <note Length="0.03125" Pitch="35" RiffPosition="10.59375" Velocity="127" />
      <note Length="0.046875" Pitch="35" RiffPosition="10.625" Velocity="127" />
      <note Length="0.046875" Pitch="35" RiffPosition="10.671875" Velocity="127" />
      <note Length="0.03125" Pitch="35" RiffPosition="10.71875" Velocity="127" />
      <note Length="0.1875" Pitch="35" RiffPosition="10.75" Velocity="127" />
      <note Length="0.015625" Pitch="35" RiffPosition="10.9375" Velocity="127" />
      <note Length="0.015625" Pitch="35" RiffPosition="10.953125" Velocity="127" />
      <note Length="0.0234375" Pitch="35" RiffPosition="10.96875" Velocity="127" />
      <note Length="0.0078125" Pitch="35" RiffPosition="10.9921875" Velocity="127" />
      <note Length="0.0625" Pitch="35" RiffPosition="11" Velocity="127" />
      <note Length="0.03125" Pitch="35" RiffPosition="11.0625" Velocity="127" />
      <note Length="0.03125" Pitch="35" RiffPosition="11.09375" Velocity="127" />
      <note Length="0.046875" Pitch="35" RiffPosition="11.125" Velocity="127" />
      <note Length="0.046875" Pitch="35" RiffPosition="11.171875" Velocity="127" />
      <note Length="0.03125" Pitch="35" RiffPosition="11.21875" Velocity="127" />
      <note Length="0.1875" Pitch="35" RiffPosition="11.25" Velocity="127" />
      <note Length="0.015625" Pitch="35" RiffPosition="11.4375" Velocity="127" />
      <note Length="0.015625" Pitch="35" RiffPosition="11.453125" Velocity="127" />
      <note Length="0.0234375" Pitch="35" RiffPosition="11.46875" Velocity="127" />
      <note Length="0.0078125" Pitch="35" RiffPosition="11.4921875" Velocity="127" />
      <note Length="0.0625" Pitch="35" RiffPosition="11.5" Velocity="127" />
      <note Length="0.03125" Pitch="35" RiffPosition="11.5625" Velocity="127" />
      <note Length="0.03125" Pitch="35" RiffPosition="11.59375" Velocity="127" />
      <note Length="0.046875" Pitch="35" RiffPosition="11.625" Velocity="127" />
      <note Length="0.046875" Pitch="35" RiffPosition="11.671875" Velocity="127" />
      <note Length="0.03125" Pitch="35" RiffPosition="11.71875" Velocity="127" />
      <note Length="0.1875" Pitch="35" RiffPosition="11.75" Velocity="127" />
      <note Length="0.015625" Pitch="35" RiffPosition="11.9375" Velocity="127" />
      <note Length="0.015625" Pitch="35" RiffPosition="11.953125" Velocity="127" />
      <note Length="0.0234375" Pitch="35" RiffPosition="11.96875" Velocity="127" />
      <note Length="0.0078125" Pitch="35" RiffPosition="11.9921875" Velocity="127" />
      <note Length="0.0625" Pitch="35" RiffPosition="12" Velocity="0" />
      <note Length="0.03125" Pitch="35" RiffPosition="12.0625" Velocity="0" />
      <note Length="0.03125" Pitch="35" RiffPosition="12.09375" Velocity="0" />
      <note Length="0.046875" Pitch="35" RiffPosition="12.125" Velocity="0" />
      <note Length="0.046875" Pitch="35" RiffPosition="12.171875" Velocity="0" />
      <note Length="0.03125" Pitch="35" RiffPosition="12.21875" Velocity="0" />
      <note Length="0.1875" Pitch="35" RiffPosition="12.25" Velocity="0" />
      <note Length="0.015625" Pitch="35" RiffPosition="12.4375" Velocity="0" />
      <note Length="0.015625" Pitch="35" RiffPosition="12.453125" Velocity="0" />
      <note Length="0.0234375" Pitch="35" RiffPosition="12.46875" Velocity="0" />
      <note Length="0.0078125" Pitch="35" RiffPosition="12.4921875" Velocity="0" />
      <note Length="0.0625" Pitch="35" RiffPosition="12.5" Velocity="0" />
      <note Length="0.03125" Pitch="35" RiffPosition="12.5625" Velocity="0" />
      <note Length="0.03125" Pitch="35" RiffPosition="12.59375" Velocity="0" />
      <note Length="0.046875" Pitch="35" RiffPosition="12.625" Velocity="0" />
      <note Length="0.046875" Pitch="35" RiffPosition="12.671875" Velocity="0" />
      <note Length="0.03125" Pitch="35" RiffPosition="12.71875" Velocity="0" />
      <note Length="0.1875" Pitch="35" RiffPosition="12.75" Velocity="0" />
      <note Length="0.015625" Pitch="35" RiffPosition="12.9375" Velocity="0" />
      <note Length="0.015625" Pitch="35" RiffPosition="12.953125" Velocity="0" />
      <note Length="0.0234375" Pitch="35" RiffPosition="12.96875" Velocity="0" />
      <note Length="0.0078125" Pitch="35" RiffPosition="12.9921875" Velocity="0" />
    </riff>
  </riffPack>
  <lyrics>
    <line>****** ****** ****** ******</line>
    <line>****** ****** ****** ******</line>
    <line>cause talk is cheap boy out on the street</line>
    <line>through the infinite eyes of the dark god!!!</line>
    <line>it's burning inside you, it's emotional hell</line>
    <line>i paid for the teacher so i own your soul</line>
    <line>examined closely, understanding all intent.</line>
    <line>i'm hyman roth i make all my partners rich</line>
    <line>living in a lie that is build by ourselves</line>
    <line>now, how much money did you make this year</line>
    <line>inherent tribute to human race's survival</line>
    <line>a limosine feel the rash burn notice that</line>
    <line>mother earth can exist without me and you</line>
    <line>can't escape from the screams and the anger</line>
    <line>****** ****** ****** ******</line>
    <line>****** ****** ****** ******</line>
    <line>****** ****** ****** ******</line>
    <line>****** ****** ****** ******</line>
    <line>examined closely, understanding all intent.</line>
    <line>living in a lie that is build by ourselves</line>
    <line>examined closely, understanding all intent.</line>
    <line>living in a lie that is build by ourselves</line>
    <line>****** ****** ****** ******</line>
    <line>****** ****** ****** ******</line>
    <line>****** ****** ****** ******</line>
    <line>****** ****** ****** ******</line>
    <line>****** ****** ****** ******</line>
    <line>****** ****** ****** ******</line>
  </lyrics>
  <lyricsSongFactoryCollection>
    <lyricSongFactory BarCount="28" BarCountPerChorus="2">
      <barInfo>
        <bar Intensity="0" LetterCount="41" />
        <bar Intensity="0" LetterCount="41" />
        <bar Intensity="0.2705882" LetterCount="41" />
        <bar Intensity="0.2705882" LetterCount="41" />
        <bar Intensity="0.2705882" LetterCount="41" />
        <bar Intensity="0.2705882" LetterCount="41" />
        <bar Intensity="1" LetterCount="41" />
        <bar Intensity="0.5411765" LetterCount="41" />
        <bar Intensity="1" LetterCount="41" />
        <bar Intensity="0.5647059" LetterCount="41" />
        <bar Intensity="0.2352941" LetterCount="41" />
        <bar Intensity="0.2352941" LetterCount="41" />
        <bar Intensity="0.2235294" LetterCount="41" />
        <bar Intensity="0.2" LetterCount="41" />
        <bar Intensity="0" LetterCount="41" />
        <bar Intensity="0" LetterCount="41" />
        <bar Intensity="0" LetterCount="41" />
        <bar Intensity="0" LetterCount="41" />
        <bar Intensity="1" LetterCount="41" />
        <bar Intensity="1" LetterCount="41" />
        <bar Intensity="1" LetterCount="41" />
        <bar Intensity="1" LetterCount="41" />
        <bar Intensity="0" LetterCount="41" />
        <bar Intensity="0" LetterCount="41" />
        <bar Intensity="0" LetterCount="41" />
        <bar Intensity="0" LetterCount="41" />
        <bar Intensity="0" LetterCount="41" />
        <bar Intensity="0" LetterCount="41" />
      </barInfo>
      <themeList>
        <theme>anger</theme>
        <theme>metaphysics</theme>
        <theme>money</theme>
      </themeList>
      <themeBlackList>
        <theme>gangsta</theme>
        <theme>sex</theme>
        <theme>swearing</theme>
      </themeBlackList>
    </lyricSongFactory>
  </lyricsSongFactoryCollection>
  <predefinedGenerator BarCount="28" IsOverrideScale="True" IsOverrideTempo="True" Modulation="1" ScaleName="arabicPentatonic" Tempo="104" LyricsToMusicPhase="0">
    <predefinedGeneratorTrack MetaRiffPackName="BassSynth">
      <barInfo isOn="True" />
      <barInfo isOn="True" />
      <barInfo isOn="True" />
      <barInfo isOn="False" />
      <barInfo isOn="True" />
      <barInfo isOn="True" />
      <barInfo isOn="False" />
      <barInfo isOn="False" />
      <barInfo isOn="False" />
      <barInfo isOn="True" />
      <barInfo isOn="True" />
      <barInfo isOn="True" />
      <barInfo isOn="False" />
      <barInfo isOn="False" />
      <barInfo isOn="False" />
      <barInfo isOn="False" />
      <barInfo isOn="False" />
      <barInfo isOn="False" />
      <barInfo isOn="False" />
      <barInfo isOn="False" />
      <barInfo isOn="False" />
      <barInfo isOn="False" />
      <barInfo isOn="False" />
      <barInfo isOn="False" />
      <barInfo isOn="False" />
      <barInfo isOn="False" />
      <barInfo isOn="False" />
      <barInfo isOn="False" />
    </predefinedGeneratorTrack>
    <predefinedGeneratorTrack MetaRiffPackName="DrumSnareOcta">
      <barInfo isOn="False" />
      <barInfo isOn="True" />
      <barInfo isOn="True" />
      <barInfo isOn="True" />
      <barInfo isOn="True" />
      <barInfo isOn="True" />
      <barInfo isOn="False" />
      <barInfo isOn="False" />
      <barInfo isOn="False" />
      <barInfo isOn="True" />
      <barInfo isOn="True" />
      <barInfo isOn="False" />
      <barInfo isOn="False" />
      <barInfo isOn="False" />
      <barInfo isOn="False" />
      <barInfo isOn="False" />
      <barInfo isOn="False" />
      <barInfo isOn="False" />
      <barInfo isOn="False" />
      <barInfo isOn="False" />
      <barInfo isOn="False" />
      <barInfo isOn="False" />
      <barInfo isOn="False" />
      <barInfo isOn="False" />
      <barInfo isOn="False" />
      <barInfo isOn="False" />
      <barInfo isOn="False" />
      <barInfo isOn="False" />
    </predefinedGeneratorTrack>
    <predefinedGeneratorTrack MetaRiffPackName="TrumpetClassic">
      <barInfo isOn="False" />
      <barInfo isOn="False" />
      <barInfo isOn="True" />
      <barInfo isOn="True" />
      <barInfo isOn="True" />
      <barInfo isOn="True" />
      <barInfo isOn="False" />
      <barInfo isOn="False" />
      <barInfo isOn="True" />
      <barInfo isOn="True" />
      <barInfo isOn="True" />
      <barInfo isOn="True" />
      <barInfo isOn="True" />
      <barInfo isOn="False" />
      <barInfo isOn="False" />
      <barInfo isOn="False" />
      <barInfo isOn="False" />
      <barInfo isOn="False" />
      <barInfo isOn="False" />
      <barInfo isOn="False" />
      <barInfo isOn="False" />
      <barInfo isOn="False" />
      <barInfo isOn="False" />
      <barInfo isOn="False" />
      <barInfo isOn="False" />
      <barInfo isOn="False" />
      <barInfo isOn="False" />
      <barInfo isOn="False" />
    </predefinedGeneratorTrack>
    <predefinedGeneratorTrack MetaRiffPackName="GuitarFolk">
      <barInfo isOn="True" />
      <barInfo isOn="True" />
      <barInfo isOn="False" />
      <barInfo isOn="False" />
      <barInfo isOn="True" />
      <barInfo isOn="True" />
      <barInfo isOn="False" />
      <barInfo isOn="True" />
      <barInfo isOn="True" />
      <barInfo isOn="True" />
      <barInfo isOn="True" />
      <barInfo isOn="False" />
      <barInfo isOn="False" />
      <barInfo isOn="False" />
      <barInfo isOn="False" />
      <barInfo isOn="False" />
      <barInfo isOn="False" />
      <barInfo isOn="False" />
      <barInfo isOn="False" />
      <barInfo isOn="False" />
      <barInfo isOn="False" />
      <barInfo isOn="False" />
      <barInfo isOn="False" />
      <barInfo isOn="False" />
      <barInfo isOn="False" />
      <barInfo isOn="False" />
      <barInfo isOn="False" />
      <barInfo isOn="False" />
    </predefinedGeneratorTrack>
    <predefinedGeneratorTrack MetaRiffPackName="DrumOcta">
      <barInfo isOn="False" />
      <barInfo isOn="False" />
      <barInfo isOn="False" />
      <barInfo isOn="False" />
      <barInfo isOn="False" />
      <barInfo isOn="True" />
      <barInfo isOn="True" />
      <barInfo isOn="True" />
      <barInfo isOn="True" />
      <barInfo isOn="True" />
      <barInfo isOn="True" />
      <barInfo isOn="False" />
      <barInfo isOn="False" />
      <barInfo isOn="False" />
      <barInfo isOn="False" />
      <barInfo isOn="False" />
      <barInfo isOn="False" />
      <barInfo isOn="False" />
      <barInfo isOn="False" />
      <barInfo isOn="False" />
      <barInfo isOn="False" />
      <barInfo isOn="False" />
      <barInfo isOn="False" />
      <barInfo isOn="False" />
      <barInfo isOn="False" />
      <barInfo isOn="False" />
      <barInfo isOn="False" />
      <barInfo isOn="False" />
    </predefinedGeneratorTrack>
    <predefinedGeneratorTrack MetaRiffPackName="Arab">
      <barInfo isOn="False" />
      <barInfo isOn="False" />
      <barInfo isOn="False" />
      <barInfo isOn="False" />
      <barInfo isOn="False" />
      <barInfo isOn="False" />
      <barInfo isOn="True" />
      <barInfo isOn="True" />
      <barInfo isOn="True" />
      <barInfo isOn="True" />
      <barInfo isOn="True" />
      <barInfo isOn="True" />
      <barInfo isOn="False" />
      <barInfo isOn="False" />
      <barInfo isOn="False" />
      <barInfo isOn="False" />
      <barInfo isOn="False" />
      <barInfo isOn="False" />
      <barInfo isOn="False" />
      <barInfo isOn="False" />
      <barInfo isOn="False" />
      <barInfo isOn="False" />
      <barInfo isOn="False" />
      <barInfo isOn="False" />
      <barInfo isOn="False" />
      <barInfo isOn="False" />
      <barInfo isOn="False" />
      <barInfo isOn="False" />
    </predefinedGeneratorTrack>
    <predefinedGeneratorTrack MetaRiffPackName="DrumSnareQuad">
      <barInfo isOn="False" />
      <barInfo isOn="False" />
      <barInfo isOn="False" />
      <barInfo isOn="False" />
      <barInfo isOn="False" />
      <barInfo isOn="False" />
      <barInfo isOn="True" />
      <barInfo isOn="True" />
      <barInfo isOn="True" />
      <barInfo isOn="False" />
      <barInfo isOn="False" />
      <barInfo isOn="True" />
      <barInfo isOn="False" />
      <barInfo isOn="False" />
      <barInfo isOn="False" />
      <barInfo isOn="False" />
      <barInfo isOn="False" />
      <barInfo isOn="False" />
      <barInfo isOn="False" />
      <barInfo isOn="False" />
      <barInfo isOn="False" />
      <barInfo isOn="False" />
      <barInfo isOn="False" />
      <barInfo isOn="False" />
      <barInfo isOn="False" />
      <barInfo isOn="False" />
      <barInfo isOn="False" />
      <barInfo isOn="False" />
    </predefinedGeneratorTrack>
    <predefinedGeneratorTrack MetaRiffPackName="DrumBassQuad">
      <barInfo isOn="True" />
      <barInfo isOn="True" />
      <barInfo isOn="True" />
      <barInfo isOn="False" />
      <barInfo isOn="True" />
      <barInfo isOn="True" />
      <barInfo isOn="False" />
      <barInfo isOn="False" />
      <barInfo isOn="False" />
      <barInfo isOn="True" />
      <barInfo isOn="True" />
      <barInfo isOn="True" />
      <barInfo isOn="False" />
      <barInfo isOn="False" />
      <barInfo isOn="False" />
      <barInfo isOn="False" />
      <barInfo isOn="False" />
      <barInfo isOn="False" />
      <barInfo isOn="False" />
      <barInfo isOn="False" />
      <barInfo isOn="False" />
      <barInfo isOn="False" />
      <barInfo isOn="False" />
      <barInfo isOn="False" />
      <barInfo isOn="False" />
      <barInfo isOn="False" />
      <barInfo isOn="False" />
      <barInfo isOn="False" />
    </predefinedGeneratorTrack>
  </predefinedGenerator>
</song>