<?xml version="1.0" encoding="UTF-8"?>
<song>
  <riffPack Tempo="111">
    <riff IsDrum="False" MidiInstrument="104" Tempo="120" Length="11">
      <note Length="0.03125" Pitch="54" RiffPosition="0" Velocity="70" />
      <note Length="0.03125" Pitch="83" RiffPosition="0.03125" Velocity="65" />
      <note Length="0.015625" Pitch="78" RiffPosition="0.0625" Velocity="63" />
      <note Length="0.046875" Pitch="78" RiffPosition="0.078125" Velocity="38" />
      <note Length="0.0625" Pitch="71" RiffPosition="0.125" Velocity="79" />
      <note Length="0.0625" Pitch="42" RiffPosition="0.1875" Velocity="67" />
      <note Length="0.03125" Pitch="66" RiffPosition="0.25" Velocity="73" />
      <note Length="0.03125" Pitch="83" RiffPosition="0.28125" Velocity="70" />
      <note Length="0.0625" Pitch="78" RiffPosition="0.3125" Velocity="71" />
      <note Length="0.03125" Pitch="61" RiffPosition="0.375" Velocity="68" />
      <note Length="0.03125" Pitch="44" RiffPosition="0.40625" Velocity="78" />
      <note Length="0.046875" Pitch="44" RiffPosition="0.4375" Velocity="79" />
      <note Length="0.015625" Pitch="49" RiffPosition="0.484375" Velocity="79" />
      <note Length="0.03125" Pitch="66" RiffPosition="0.5" Velocity="62" />
      <note Length="0.03125" Pitch="83" RiffPosition="0.53125" Velocity="78" />
      <note Length="0.015625" Pitch="78" RiffPosition="0.5625" Velocity="72" />
      <note Length="0.046875" Pitch="78" RiffPosition="0.578125" Velocity="32" />
      <note Length="0.0625" Pitch="71" RiffPosition="0.625" Velocity="80" />
      <note Length="0.0625" Pitch="42" RiffPosition="0.6875" Velocity="55" />
      <note Length="0.03125" Pitch="54" RiffPosition="0.75" Velocity="78" />
      <note Length="0.03125" Pitch="83" RiffPosition="0.78125" Velocity="70" />
      <note Length="0.0625" Pitch="78" RiffPosition="0.8125" Velocity="76" />
      <note Length="0.03125" Pitch="61" RiffPosition="0.875" Velocity="56" />
      <note Length="0.03125" Pitch="44" RiffPosition="0.90625" Velocity="85" />
      <note Length="0.046875" Pitch="44" RiffPosition="0.9375" Velocity="81" />
      <note Length="0.015625" Pitch="49" RiffPosition="0.984375" Velocity="84" />
      <note Length="0.03125" Pitch="46" RiffPosition="1" Velocity="70" />
      <note Length="0.03125" Pitch="75" RiffPosition="1.03125" Velocity="65" />
      <note Length="0.015625" Pitch="70" RiffPosition="1.0625" Velocity="63" />
      <note Length="0.046875" Pitch="70" RiffPosition="1.078125" Velocity="38" />
      <note Length="0.0625" Pitch="63" RiffPosition="1.125" Velocity="79" />
      <note Length="0.0625" Pitch="34" RiffPosition="1.1875" Velocity="67" />
      <note Length="0.03125" Pitch="58" RiffPosition="1.25" Velocity="73" />
      <note Length="0.03125" Pitch="75" RiffPosition="1.28125" Velocity="70" />
      <note Length="0.0625" Pitch="70" RiffPosition="1.3125" Velocity="71" />
      <note Length="0.03125" Pitch="53" RiffPosition="1.375" Velocity="68" />
      <note Length="0.03125" Pitch="36" RiffPosition="1.40625" Velocity="78" />
      <note Length="0.046875" Pitch="36" RiffPosition="1.4375" Velocity="79" />
      <note Length="0.015625" Pitch="41" RiffPosition="1.484375" Velocity="79" />
      <note Length="0.03125" Pitch="58" RiffPosition="1.5" Velocity="62" />
      <note Length="0.03125" Pitch="75" RiffPosition="1.53125" Velocity="78" />
      <note Length="0.015625" Pitch="70" RiffPosition="1.5625" Velocity="72" />
      <note Length="0.046875" Pitch="70" RiffPosition="1.578125" Velocity="32" />
      <note Length="0.0625" Pitch="63" RiffPosition="1.625" Velocity="80" />
      <note Length="0.0625" Pitch="34" RiffPosition="1.6875" Velocity="55" />
      <note Length="0.03125" Pitch="46" RiffPosition="1.75" Velocity="78" />
      <note Length="0.03125" Pitch="75" RiffPosition="1.78125" Velocity="70" />
      <note Length="0.0625" Pitch="70" RiffPosition="1.8125" Velocity="76" />
      <note Length="0.03125" Pitch="53" RiffPosition="1.875" Velocity="56" />
      <note Length="0.03125" Pitch="36" RiffPosition="1.90625" Velocity="85" />
      <note Length="0.046875" Pitch="36" RiffPosition="1.9375" Velocity="81" />
      <note Length="0.015625" Pitch="41" RiffPosition="1.984375" Velocity="84" />
      <note Length="0.03125" Pitch="66" RiffPosition="2" Velocity="70" />
      <note Length="0.03125" Pitch="83" RiffPosition="2.03125" Velocity="65" />
      <note Length="0.015625" Pitch="78" RiffPosition="2.0625" Velocity="63" />
      <note Length="0.046875" Pitch="78" RiffPosition="2.078125" Velocity="38" />
      <note Length="0.0625" Pitch="71" RiffPosition="2.125" Velocity="79" />
      <note Length="0.0625" Pitch="42" RiffPosition="2.1875" Velocity="67" />
      <note Length="0.03125" Pitch="66" RiffPosition="2.25" Velocity="73" />
      <note Length="0.03125" Pitch="83" RiffPosition="2.28125" Velocity="70" />
      <note Length="0.0625" Pitch="78" RiffPosition="2.3125" Velocity="71" />
      <note Length="0.03125" Pitch="61" RiffPosition="2.375" Velocity="68" />
      <note Length="0.03125" Pitch="44" RiffPosition="2.40625" Velocity="78" />
      <note Length="0.046875" Pitch="44" RiffPosition="2.4375" Velocity="79" />
      <note Length="0.015625" Pitch="49" RiffPosition="2.484375" Velocity="79" />
      <note Length="0.03125" Pitch="54" RiffPosition="2.5" Velocity="62" />
      <note Length="0.03125" Pitch="83" RiffPosition="2.53125" Velocity="78" />
      <note Length="0.015625" Pitch="78" RiffPosition="2.5625" Velocity="72" />
      <note Length="0.046875" Pitch="78" RiffPosition="2.578125" Velocity="32" />
      <note Length="0.0625" Pitch="71" RiffPosition="2.625" Velocity="80" />
      <note Length="0.0625" Pitch="42" RiffPosition="2.6875" Velocity="55" />
      <note Length="0.03125" Pitch="54" RiffPosition="2.75" Velocity="78" />
      <note Length="0.03125" Pitch="83" RiffPosition="2.78125" Velocity="70" />
      <note Length="0.0625" Pitch="78" RiffPosition="2.8125" Velocity="76" />
      <note Length="0.03125" Pitch="61" RiffPosition="2.875" Velocity="56" />
      <note Length="0.03125" Pitch="44" RiffPosition="2.90625" Velocity="85" />
      <note Length="0.046875" Pitch="44" RiffPosition="2.9375" Velocity="81" />
      <note Length="0.015625" Pitch="49" RiffPosition="2.984375" Velocity="84" />
      <note Length="0.03125" Pitch="58" RiffPosition="3" Velocity="70" />
      <note Length="0.03125" Pitch="75" RiffPosition="3.03125" Velocity="65" />
      <note Length="0.015625" Pitch="70" RiffPosition="3.0625" Velocity="63" />
      <note Length="0.046875" Pitch="70" RiffPosition="3.078125" Velocity="38" />
      <note Length="0.0625" Pitch="63" RiffPosition="3.125" Velocity="79" />
      <note Length="0.0625" Pitch="34" RiffPosition="3.1875" Velocity="67" />
      <note Length="0.03125" Pitch="58" RiffPosition="3.25" Velocity="73" />
      <note Length="0.03125" Pitch="75" RiffPosition="3.28125" Velocity="70" />
      <note Length="0.0625" Pitch="70" RiffPosition="3.3125" Velocity="71" />
      <note Length="0.03125" Pitch="53" RiffPosition="3.375" Velocity="68" />
      <note Length="0.03125" Pitch="36" RiffPosition="3.40625" Velocity="78" />
      <note Length="0.046875" Pitch="36" RiffPosition="3.4375" Velocity="79" />
      <note Length="0.015625" Pitch="41" RiffPosition="3.484375" Velocity="79" />
      <note Length="0.03125" Pitch="46" RiffPosition="3.5" Velocity="62" />
      <note Length="0.03125" Pitch="75" RiffPosition="3.53125" Velocity="78" />
      <note Length="0.015625" Pitch="70" RiffPosition="3.5625" Velocity="72" />
      <note Length="0.046875" Pitch="70" RiffPosition="3.578125" Velocity="32" />
      <note Length="0.0625" Pitch="63" RiffPosition="3.625" Velocity="80" />
      <note Length="0.0625" Pitch="34" RiffPosition="3.6875" Velocity="55" />
      <note Length="0.03125" Pitch="58" RiffPosition="3.75" Velocity="78" />
      <note Length="0.03125" Pitch="75" RiffPosition="3.78125" Velocity="70" />
      <note Length="0.0625" Pitch="70" RiffPosition="3.8125" Velocity="76" />
      <note Length="0.03125" Pitch="53" RiffPosition="3.875" Velocity="56" />
      <note Length="0.03125" Pitch="36" RiffPosition="3.90625" Velocity="85" />
      <note Length="0.046875" Pitch="36" RiffPosition="3.9375" Velocity="81" />
      <note Length="0.015625" Pitch="41" RiffPosition="3.984375" Velocity="84" />
      <note Length="0.03125" Pitch="66" RiffPosition="4" Velocity="70" />
      <note Length="0.03125" Pitch="83" RiffPosition="4.03125" Velocity="65" />
      <note Length="0.015625" Pitch="78" RiffPosition="4.0625" Velocity="63" />
      <note Length="0.046875" Pitch="78" RiffPosition="4.078125" Velocity="38" />
      <note Length="0.0625" Pitch="71" RiffPosition="4.125" Velocity="79" />
      <note Length="0.0625" Pitch="42" RiffPosition="4.1875" Velocity="67" />
      <note Length="0.03125" Pitch="54" RiffPosition="4.25" Velocity="73" />
      <note Length="0.03125" Pitch="83" RiffPosition="4.28125" Velocity="70" />
      <note Length="0.0625" Pitch="78" RiffPosition="4.3125" Velocity="71" />
      <note Length="0.03125" Pitch="61" RiffPosition="4.375" Velocity="68" />
      <note Length="0.03125" Pitch="44" RiffPosition="4.40625" Velocity="78" />
      <note Length="0.046875" Pitch="44" RiffPosition="4.4375" Velocity="79" />
      <note Length="0.015625" Pitch="49" RiffPosition="4.484375" Velocity="79" />
      <note Length="0.03125" Pitch="54" RiffPosition="4.5" Velocity="62" />
      <note Length="0.03125" Pitch="83" RiffPosition="4.53125" Velocity="78" />
      <note Length="0.015625" Pitch="78" RiffPosition="4.5625" Velocity="72" />
      <note Length="0.046875" Pitch="78" RiffPosition="4.578125" Velocity="32" />
      <note Length="0.0625" Pitch="71" RiffPosition="4.625" Velocity="80" />
      <note Length="0.0625" Pitch="42" RiffPosition="4.6875" Velocity="55" />
      <note Length="0.03125" Pitch="66" RiffPosition="4.75" Velocity="78" />
      <note Length="0.03125" Pitch="83" RiffPosition="4.78125" Velocity="70" />
      <note Length="0.0625" Pitch="78" RiffPosition="4.8125" Velocity="76" />
      <note Length="0.03125" Pitch="61" RiffPosition="4.875" Velocity="56" />
      <note Length="0.03125" Pitch="44" RiffPosition="4.90625" Velocity="85" />
      <note Length="0.046875" Pitch="44" RiffPosition="4.9375" Velocity="81" />
      <note Length="0.015625" Pitch="49" RiffPosition="4.984375" Velocity="84" />
      <note Length="0.03125" Pitch="46" RiffPosition="5" Velocity="70" />
      <note Length="0.03125" Pitch="75" RiffPosition="5.03125" Velocity="65" />
      <note Length="0.015625" Pitch="70" RiffPosition="5.0625" Velocity="63" />
      <note Length="0.046875" Pitch="70" RiffPosition="5.078125" Velocity="38" />
      <note Length="0.0625" Pitch="63" RiffPosition="5.125" Velocity="79" />
      <note Length="0.0625" Pitch="34" RiffPosition="5.1875" Velocity="67" />
      <note Length="0.03125" Pitch="46" RiffPosition="5.25" Velocity="73" />
      <note Length="0.03125" Pitch="75" RiffPosition="5.28125" Velocity="70" />
      <note Length="0.0625" Pitch="70" RiffPosition="5.3125" Velocity="71" />
      <note Length="0.03125" Pitch="53" RiffPosition="5.375" Velocity="68" />
      <note Length="0.03125" Pitch="36" RiffPosition="5.40625" Velocity="78" />
      <note Length="0.046875" Pitch="36" RiffPosition="5.4375" Velocity="79" />
      <note Length="0.015625" Pitch="41" RiffPosition="5.484375" Velocity="79" />
      <note Length="0.03125" Pitch="58" RiffPosition="5.5" Velocity="62" />
      <note Length="0.03125" Pitch="75" RiffPosition="5.53125" Velocity="78" />
      <note Length="0.015625" Pitch="70" RiffPosition="5.5625" Velocity="72" />
      <note Length="0.046875" Pitch="70" RiffPosition="5.578125" Velocity="32" />
      <note Length="0.0625" Pitch="63" RiffPosition="5.625" Velocity="80" />
      <note Length="0.0625" Pitch="34" RiffPosition="5.6875" Velocity="55" />
      <note Length="0.03125" Pitch="58" RiffPosition="5.75" Velocity="78" />
      <note Length="0.03125" Pitch="75" RiffPosition="5.78125" Velocity="70" />
      <note Length="0.0625" Pitch="70" RiffPosition="5.8125" Velocity="76" />
      <note Length="0.03125" Pitch="53" RiffPosition="5.875" Velocity="56" />
      <note Length="0.03125" Pitch="36" RiffPosition="5.90625" Velocity="85" />
      <note Length="0.046875" Pitch="36" RiffPosition="5.9375" Velocity="81" />
      <note Length="0.015625" Pitch="41" RiffPosition="5.984375" Velocity="84" />
      <note Length="0.03125" Pitch="54" RiffPosition="6" Velocity="70" />
      <note Length="0.03125" Pitch="83" RiffPosition="6.03125" Velocity="65" />
      <note Length="0.015625" Pitch="78" RiffPosition="6.0625" Velocity="63" />
      <note Length="0.046875" Pitch="78" RiffPosition="6.078125" Velocity="38" />
      <note Length="0.0625" Pitch="71" RiffPosition="6.125" Velocity="79" />
      <note Length="0.0625" Pitch="42" RiffPosition="6.1875" Velocity="67" />
      <note Length="0.03125" Pitch="54" RiffPosition="6.25" Velocity="73" />
      <note Length="0.03125" Pitch="83" RiffPosition="6.28125" Velocity="70" />
      <note Length="0.0625" Pitch="78" RiffPosition="6.3125" Velocity="71" />
      <note Length="0.03125" Pitch="61" RiffPosition="6.375" Velocity="68" />
      <note Length="0.03125" Pitch="44" RiffPosition="6.40625" Velocity="78" />
      <note Length="0.046875" Pitch="44" RiffPosition="6.4375" Velocity="79" />
      <note Length="0.015625" Pitch="49" RiffPosition="6.484375" Velocity="79" />
      <note Length="0.03125" Pitch="66" RiffPosition="6.5" Velocity="62" />
      <note Length="0.03125" Pitch="83" RiffPosition="6.53125" Velocity="78" />
      <note Length="0.015625" Pitch="78" RiffPosition="6.5625" Velocity="72" />
      <note Length="0.046875" Pitch="78" RiffPosition="6.578125" Velocity="32" />
      <note Length="0.0625" Pitch="71" RiffPosition="6.625" Velocity="80" />
      <note Length="0.0625" Pitch="42" RiffPosition="6.6875" Velocity="55" />
      <note Length="0.03125" Pitch="54" RiffPosition="6.75" Velocity="78" />
      <note Length="0.03125" Pitch="83" RiffPosition="6.78125" Velocity="70" />
      <note Length="0.0625" Pitch="78" RiffPosition="6.8125" Velocity="76" />
      <note Length="0.03125" Pitch="61" RiffPosition="6.875" Velocity="56" />
      <note Length="0.03125" Pitch="44" RiffPosition="6.90625" Velocity="85" />
      <note Length="0.046875" Pitch="44" RiffPosition="6.9375" Velocity="81" />
      <note Length="0.015625" Pitch="49" RiffPosition="6.984375" Velocity="84" />
      <note Length="0.03125" Pitch="46" RiffPosition="7" Velocity="70" />
      <note Length="0.03125" Pitch="75" RiffPosition="7.03125" Velocity="65" />
      <note Length="0.015625" Pitch="70" RiffPosition="7.0625" Velocity="63" />
      <note Length="0.046875" Pitch="70" RiffPosition="7.078125" Velocity="38" />
      <note Length="0.0625" Pitch="63" RiffPosition="7.125" Velocity="79" />
      <note Length="0.0625" Pitch="34" RiffPosition="7.1875" Velocity="67" />
      <note Length="0.03125" Pitch="58" RiffPosition="7.25" Velocity="73" />
      <note Length="0.03125" Pitch="75" RiffPosition="7.28125" Velocity="70" />
      <note Length="0.0625" Pitch="70" RiffPosition="7.3125" Velocity="71" />
      <note Length="0.03125" Pitch="53" RiffPosition="7.375" Velocity="68" />
      <note Length="0.03125" Pitch="36" RiffPosition="7.40625" Velocity="78" />
      <note Length="0.046875" Pitch="36" RiffPosition="7.4375" Velocity="79" />
      <note Length="0.015625" Pitch="41" RiffPosition="7.484375" Velocity="79" />
      <note Length="0.03125" Pitch="58" RiffPosition="7.5" Velocity="62" />
      <note Length="0.03125" Pitch="75" RiffPosition="7.53125" Velocity="78" />
      <note Length="0.015625" Pitch="70" RiffPosition="7.5625" Velocity="72" />
      <note Length="0.046875" Pitch="70" RiffPosition="7.578125" Velocity="32" />
      <note Length="0.0625" Pitch="63" RiffPosition="7.625" Velocity="80" />
      <note Length="0.0625" Pitch="34" RiffPosition="7.6875" Velocity="55" />
      <note Length="0.03125" Pitch="46" RiffPosition="7.75" Velocity="78" />
      <note Length="0.03125" Pitch="75" RiffPosition="7.78125" Velocity="70" />
      <note Length="0.0625" Pitch="70" RiffPosition="7.8125" Velocity="76" />
      <note Length="0.03125" Pitch="53" RiffPosition="7.875" Velocity="56" />
      <note Length="0.03125" Pitch="36" RiffPosition="7.90625" Velocity="85" />
      <note Length="0.046875" Pitch="36" RiffPosition="7.9375" Velocity="81" />
      <note Length="0.015625" Pitch="41" RiffPosition="7.984375" Velocity="84" />
      <note Length="0.03125" Pitch="54" RiffPosition="8" Velocity="70" />
      <note Length="0.03125" Pitch="83" RiffPosition="8.03125" Velocity="65" />
      <note Length="0.015625" Pitch="78" RiffPosition="8.0625" Velocity="63" />
      <note Length="0.046875" Pitch="78" RiffPosition="8.078125" Velocity="38" />
      <note Length="0.0625" Pitch="71" RiffPosition="8.125" Velocity="79" />
      <note Length="0.0625" Pitch="42" RiffPosition="8.1875" Velocity="67" />
      <note Length="0.03125" Pitch="66" RiffPosition="8.25" Velocity="73" />
      <note Length="0.03125" Pitch="83" RiffPosition="8.28125" Velocity="70" />
      <note Length="0.0625" Pitch="78" RiffPosition="8.3125" Velocity="71" />
      <note Length="0.03125" Pitch="61" RiffPosition="8.375" Velocity="68" />
      <note Length="0.03125" Pitch="44" RiffPosition="8.40625" Velocity="78" />
      <note Length="0.046875" Pitch="44" RiffPosition="8.4375" Velocity="79" />
      <note Length="0.015625" Pitch="49" RiffPosition="8.484375" Velocity="79" />
      <note Length="0.03125" Pitch="54" RiffPosition="8.5" Velocity="62" />
      <note Length="0.03125" Pitch="83" RiffPosition="8.53125" Velocity="78" />
      <note Length="0.015625" Pitch="78" RiffPosition="8.5625" Velocity="72" />
      <note Length="0.046875" Pitch="78" RiffPosition="8.578125" Velocity="32" />
      <note Length="0.0625" Pitch="71" RiffPosition="8.625" Velocity="80" />
      <note Length="0.0625" Pitch="42" RiffPosition="8.6875" Velocity="55" />
      <note Length="0.03125" Pitch="54" RiffPosition="8.75" Velocity="78" />
      <note Length="0.03125" Pitch="83" RiffPosition="8.78125" Velocity="70" />
      <note Length="0.0625" Pitch="78" RiffPosition="8.8125" Velocity="76" />
      <note Length="0.03125" Pitch="61" RiffPosition="8.875" Velocity="56" />
      <note Length="0.03125" Pitch="44" RiffPosition="8.90625" Velocity="85" />
      <note Length="0.046875" Pitch="44" RiffPosition="8.9375" Velocity="81" />
      <note Length="0.015625" Pitch="49" RiffPosition="8.984375" Velocity="84" />
      <note Length="0.03125" Pitch="58" RiffPosition="9" Velocity="0" />
      <note Length="0.03125" Pitch="75" RiffPosition="9.03125" Velocity="0" />
      <note Length="0.015625" Pitch="70" RiffPosition="9.0625" Velocity="0" />
      <note Length="0.046875" Pitch="70" RiffPosition="9.078125" Velocity="0" />
      <note Length="0.0625" Pitch="63" RiffPosition="9.125" Velocity="0" />
      <note Length="0.0625" Pitch="34" RiffPosition="9.1875" Velocity="0" />
      <note Length="0.03125" Pitch="58" RiffPosition="9.25" Velocity="0" />
      <note Length="0.03125" Pitch="75" RiffPosition="9.28125" Velocity="0" />
      <note Length="0.0625" Pitch="70" RiffPosition="9.3125" Velocity="0" />
      <note Length="0.03125" Pitch="53" RiffPosition="9.375" Velocity="0" />
      <note Length="0.03125" Pitch="36" RiffPosition="9.40625" Velocity="0" />
      <note Length="0.046875" Pitch="36" RiffPosition="9.4375" Velocity="0" />
      <note Length="0.015625" Pitch="41" RiffPosition="9.484375" Velocity="0" />
      <note Length="0.03125" Pitch="46" RiffPosition="9.5" Velocity="0" />
      <note Length="0.03125" Pitch="75" RiffPosition="9.53125" Velocity="0" />
      <note Length="0.015625" Pitch="70" RiffPosition="9.5625" Velocity="0" />
      <note Length="0.046875" Pitch="70" RiffPosition="9.578125" Velocity="0" />
      <note Length="0.0625" Pitch="63" RiffPosition="9.625" Velocity="0" />
      <note Length="0.0625" Pitch="34" RiffPosition="9.6875" Velocity="0" />
      <note Length="0.03125" Pitch="46" RiffPosition="9.75" Velocity="0" />
      <note Length="0.03125" Pitch="75" RiffPosition="9.78125" Velocity="0" />
      <note Length="0.0625" Pitch="70" RiffPosition="9.8125" Velocity="0" />
      <note Length="0.03125" Pitch="53" RiffPosition="9.875" Velocity="0" />
      <note Length="0.03125" Pitch="36" RiffPosition="9.90625" Velocity="0" />
      <note Length="0.046875" Pitch="36" RiffPosition="9.9375" Velocity="0" />
      <note Length="0.015625" Pitch="41" RiffPosition="9.984375" Velocity="0" />
      <note Length="0.03125" Pitch="66" RiffPosition="10" Velocity="0" />
      <note Length="0.03125" Pitch="83" RiffPosition="10.03125" Velocity="0" />
      <note Length="0.015625" Pitch="78" RiffPosition="10.0625" Velocity="0" />
      <note Length="0.046875" Pitch="78" RiffPosition="10.078125" Velocity="0" />
      <note Length="0.0625" Pitch="71" RiffPosition="10.125" Velocity="0" />
      <note Length="0.0625" Pitch="42" RiffPosition="10.1875" Velocity="0" />
      <note Length="0.03125" Pitch="54" RiffPosition="10.25" Velocity="0" />
      <note Length="0.03125" Pitch="83" RiffPosition="10.28125" Velocity="0" />
      <note Length="0.0625" Pitch="78" RiffPosition="10.3125" Velocity="0" />
      <note Length="0.03125" Pitch="61" RiffPosition="10.375" Velocity="0" />
      <note Length="0.03125" Pitch="44" RiffPosition="10.40625" Velocity="0" />
      <note Length="0.046875" Pitch="44" RiffPosition="10.4375" Velocity="0" />
      <note Length="0.015625" Pitch="49" RiffPosition="10.484375" Velocity="0" />
      <note Length="0.03125" Pitch="54" RiffPosition="10.5" Velocity="0" />
      <note Length="0.03125" Pitch="83" RiffPosition="10.53125" Velocity="0" />
      <note Length="0.015625" Pitch="78" RiffPosition="10.5625" Velocity="0" />
      <note Length="0.046875" Pitch="78" RiffPosition="10.578125" Velocity="0" />
      <note Length="0.0625" Pitch="71" RiffPosition="10.625" Velocity="0" />
      <note Length="0.0625" Pitch="42" RiffPosition="10.6875" Velocity="0" />
      <note Length="0.03125" Pitch="66" RiffPosition="10.75" Velocity="0" />
      <note Length="0.03125" Pitch="83" RiffPosition="10.78125" Velocity="0" />
      <note Length="0.0625" Pitch="78" RiffPosition="10.8125" Velocity="0" />
      <note Length="0.03125" Pitch="61" RiffPosition="10.875" Velocity="0" />
      <note Length="0.03125" Pitch="44" RiffPosition="10.90625" Velocity="0" />
      <note Length="0.046875" Pitch="44" RiffPosition="10.9375" Velocity="0" />
      <note Length="0.015625" Pitch="49" RiffPosition="10.984375" Velocity="0" />
    </riff>
    <riff IsDrum="False" MidiInstrument="104" Tempo="134" Length="11">
      <note Length="0.0625" Pitch="69" RiffPosition="0" Velocity="60" />
      <note Length="0.0625" Pitch="66" RiffPosition="0.0625" Velocity="73" />
      <note Length="0.125" Pitch="78" RiffPosition="0.125" Velocity="31" />
      <note Length="0.0625" Pitch="71" RiffPosition="0.25" Velocity="62" />
      <note Length="0.0625" Pitch="47" RiffPosition="0.3125" Velocity="65" />
      <note Length="0.046875" Pitch="49" RiffPosition="0.375" Velocity="39" />
      <note Length="0.046875" Pitch="68" RiffPosition="0.421875" Velocity="33" />
      <note Length="0.015625" Pitch="78" RiffPosition="0.46875" Velocity="38" />
      <note Length="0.015625" Pitch="81" RiffPosition="0.484375" Velocity="54" />
      <note Length="0.0625" Pitch="66" RiffPosition="0.5" Velocity="52" />
      <note Length="0.0625" Pitch="78" RiffPosition="0.5625" Velocity="55" />
      <note Length="0.125" Pitch="81" RiffPosition="0.625" Velocity="31" />
      <note Length="0.0625" Pitch="45" RiffPosition="0.75" Velocity="49" />
      <note Length="0.0625" Pitch="50" RiffPosition="0.8125" Velocity="62" />
      <note Length="0.046875" Pitch="56" RiffPosition="0.875" Velocity="39" />
      <note Length="0.046875" Pitch="71" RiffPosition="0.921875" Velocity="44" />
      <note Length="0.015625" Pitch="42" RiffPosition="0.96875" Velocity="38" />
      <note Length="0.015625" Pitch="83" RiffPosition="0.984375" Velocity="58" />
      <note Length="0.0625" Pitch="58" RiffPosition="1" Velocity="60" />
      <note Length="0.0625" Pitch="73" RiffPosition="1.0625" Velocity="73" />
      <note Length="0.125" Pitch="70" RiffPosition="1.125" Velocity="31" />
      <note Length="0.0625" Pitch="42" RiffPosition="1.25" Velocity="62" />
      <note Length="0.0625" Pitch="34" RiffPosition="1.3125" Velocity="65" />
      <note Length="0.046875" Pitch="51" RiffPosition="1.375" Velocity="39" />
      <note Length="0.046875" Pitch="58" RiffPosition="1.421875" Velocity="33" />
      <note Length="0.015625" Pitch="51" RiffPosition="1.46875" Velocity="38" />
      <note Length="0.015625" Pitch="70" RiffPosition="1.484375" Velocity="54" />
      <note Length="0.0625" Pitch="75" RiffPosition="1.5" Velocity="52" />
      <note Length="0.0625" Pitch="70" RiffPosition="1.5625" Velocity="55" />
      <note Length="0.125" Pitch="53" RiffPosition="1.625" Velocity="31" />
      <note Length="0.0625" Pitch="34" RiffPosition="1.75" Velocity="49" />
      <note Length="0.0625" Pitch="51" RiffPosition="1.8125" Velocity="62" />
      <note Length="0.046875" Pitch="46" RiffPosition="1.875" Velocity="39" />
      <note Length="0.046875" Pitch="73" RiffPosition="1.921875" Velocity="44" />
      <note Length="0.015625" Pitch="53" RiffPosition="1.96875" Velocity="38" />
      <note Length="0.015625" Pitch="46" RiffPosition="1.984375" Velocity="58" />
      <note Length="0.0625" Pitch="85" RiffPosition="2" Velocity="60" />
      <note Length="0.0625" Pitch="61" RiffPosition="2.0625" Velocity="73" />
      <note Length="0.125" Pitch="54" RiffPosition="2.125" Velocity="31" />
      <note Length="0.0625" Pitch="59" RiffPosition="2.25" Velocity="62" />
      <note Length="0.0625" Pitch="62" RiffPosition="2.3125" Velocity="65" />
      <note Length="0.046875" Pitch="54" RiffPosition="2.375" Velocity="39" />
      <note Length="0.046875" Pitch="42" RiffPosition="2.421875" Velocity="33" />
      <note Length="0.015625" Pitch="54" RiffPosition="2.46875" Velocity="38" />
      <note Length="0.015625" Pitch="66" RiffPosition="2.484375" Velocity="54" />
      <note Length="0.0625" Pitch="61" RiffPosition="2.5" Velocity="52" />
      <note Length="0.0625" Pitch="54" RiffPosition="2.5625" Velocity="55" />
      <note Length="0.125" Pitch="68" RiffPosition="2.625" Velocity="31" />
      <note Length="0.0625" Pitch="62" RiffPosition="2.75" Velocity="49" />
      <note Length="0.0625" Pitch="66" RiffPosition="2.8125" Velocity="62" />
      <note Length="0.046875" Pitch="69" RiffPosition="2.875" Velocity="39" />
      <note Length="0.046875" Pitch="59" RiffPosition="2.921875" Velocity="44" />
      <note Length="0.015625" Pitch="69" RiffPosition="2.96875" Velocity="38" />
      <note Length="0.015625" Pitch="69" RiffPosition="2.984375" Velocity="58" />
      <note Length="0.0625" Pitch="46" RiffPosition="3" Velocity="60" />
      <note Length="0.0625" Pitch="58" RiffPosition="3.0625" Velocity="73" />
      <note Length="0.125" Pitch="63" RiffPosition="3.125" Velocity="31" />
      <note Length="0.0625" Pitch="46" RiffPosition="3.25" Velocity="62" />
      <note Length="0.0625" Pitch="61" RiffPosition="3.3125" Velocity="65" />
      <note Length="0.046875" Pitch="36" RiffPosition="3.375" Velocity="39" />
      <note Length="0.046875" Pitch="46" RiffPosition="3.421875" Velocity="33" />
      <note Length="0.015625" Pitch="65" RiffPosition="3.46875" Velocity="38" />
      <note Length="0.015625" Pitch="58" RiffPosition="3.484375" Velocity="54" />
      <note Length="0.0625" Pitch="60" RiffPosition="3.5" Velocity="52" />
      <note Length="0.0625" Pitch="65" RiffPosition="3.5625" Velocity="55" />
      <note Length="0.125" Pitch="58" RiffPosition="3.625" Velocity="31" />
      <note Length="0.0625" Pitch="61" RiffPosition="3.75" Velocity="49" />
      <note Length="0.0625" Pitch="36" RiffPosition="3.8125" Velocity="62" />
      <note Length="0.046875" Pitch="41" RiffPosition="3.875" Velocity="39" />
      <note Length="0.046875" Pitch="58" RiffPosition="3.921875" Velocity="44" />
      <note Length="0.015625" Pitch="58" RiffPosition="3.96875" Velocity="38" />
      <note Length="0.015625" Pitch="70" RiffPosition="3.984375" Velocity="58" />
      <note Length="0.0625" Pitch="71" RiffPosition="4" Velocity="60" />
      <note Length="0.0625" Pitch="66" RiffPosition="4.0625" Velocity="73" />
      <note Length="0.125" Pitch="80" RiffPosition="4.125" Velocity="31" />
      <note Length="0.0625" Pitch="44" RiffPosition="4.25" Velocity="62" />
      <note Length="0.0625" Pitch="47" RiffPosition="4.3125" Velocity="65" />
      <note Length="0.046875" Pitch="42" RiffPosition="4.375" Velocity="39" />
      <note Length="0.046875" Pitch="69" RiffPosition="4.421875" Velocity="33" />
      <note Length="0.015625" Pitch="42" RiffPosition="4.46875" Velocity="38" />
      <note Length="0.015625" Pitch="83" RiffPosition="4.484375" Velocity="54" />
      <note Length="0.0625" Pitch="66" RiffPosition="4.5" Velocity="52" />
      <note Length="0.0625" Pitch="81" RiffPosition="4.5625" Velocity="55" />
      <note Length="0.125" Pitch="83" RiffPosition="4.625" Velocity="31" />
      <note Length="0.0625" Pitch="47" RiffPosition="4.75" Velocity="49" />
      <note Length="0.0625" Pitch="42" RiffPosition="4.8125" Velocity="62" />
      <note Length="0.046875" Pitch="57" RiffPosition="4.875" Velocity="39" />
      <note Length="0.046875" Pitch="66" RiffPosition="4.921875" Velocity="44" />
      <note Length="0.015625" Pitch="56" RiffPosition="4.96875" Velocity="38" />
      <note Length="0.015625" Pitch="78" RiffPosition="4.984375" Velocity="58" />
      <note Length="0.0625" Pitch="70" RiffPosition="5" Velocity="60" />
      <note Length="0.0625" Pitch="75" RiffPosition="5.0625" Velocity="73" />
      <note Length="0.125" Pitch="70" RiffPosition="5.125" Velocity="31" />
      <note Length="0.0625" Pitch="34" RiffPosition="5.25" Velocity="62" />
      <note Length="0.0625" Pitch="48" RiffPosition="5.3125" Velocity="65" />
      <note Length="0.046875" Pitch="51" RiffPosition="5.375" Velocity="39" />
      <note Length="0.046875" Pitch="70" RiffPosition="5.421875" Velocity="33" />
      <note Length="0.015625" Pitch="53" RiffPosition="5.46875" Velocity="38" />
      <note Length="0.015625" Pitch="53" RiffPosition="5.484375" Velocity="54" />
      <note Length="0.0625" Pitch="75" RiffPosition="5.5" Velocity="52" />
      <note Length="0.0625" Pitch="70" RiffPosition="5.5625" Velocity="55" />
      <note Length="0.125" Pitch="46" RiffPosition="5.625" Velocity="31" />
      <note Length="0.0625" Pitch="48" RiffPosition="5.75" Velocity="49" />
      <note Length="0.0625" Pitch="53" RiffPosition="5.8125" Velocity="62" />
      <note Length="0.046875" Pitch="46" RiffPosition="5.875" Velocity="39" />
      <note Length="0.046875" Pitch="34" RiffPosition="5.921875" Velocity="44" />
      <note Length="0.015625" Pitch="46" RiffPosition="5.96875" Velocity="38" />
      <note Length="0.015625" Pitch="46" RiffPosition="5.984375" Velocity="58" />
      <note Length="0.0625" Pitch="78" RiffPosition="6" Velocity="60" />
      <note Length="0.0625" Pitch="62" RiffPosition="6.0625" Velocity="73" />
      <note Length="0.125" Pitch="66" RiffPosition="6.125" Velocity="31" />
      <note Length="0.0625" Pitch="61" RiffPosition="6.25" Velocity="62" />
      <note Length="0.0625" Pitch="54" RiffPosition="6.3125" Velocity="65" />
      <note Length="0.046875" Pitch="66" RiffPosition="6.375" Velocity="39" />
      <note Length="0.046875" Pitch="56" RiffPosition="6.421875" Velocity="33" />
      <note Length="0.015625" Pitch="66" RiffPosition="6.46875" Velocity="38" />
      <note Length="0.015625" Pitch="68" RiffPosition="6.484375" Velocity="54" />
      <note Length="0.0625" Pitch="54" RiffPosition="6.5" Velocity="52" />
      <note Length="0.0625" Pitch="66" RiffPosition="6.5625" Velocity="55" />
      <note Length="0.125" Pitch="69" RiffPosition="6.625" Velocity="31" />
      <note Length="0.0625" Pitch="54" RiffPosition="6.75" Velocity="49" />
      <note Length="0.0625" Pitch="68" RiffPosition="6.8125" Velocity="62" />
      <note Length="0.046875" Pitch="71" RiffPosition="6.875" Velocity="39" />
      <note Length="0.046875" Pitch="61" RiffPosition="6.921875" Velocity="44" />
      <note Length="0.015625" Pitch="69" RiffPosition="6.96875" Velocity="38" />
      <note Length="0.015625" Pitch="71" RiffPosition="6.984375" Velocity="58" />
      <note Length="0.0625" Pitch="46" RiffPosition="7" Velocity="60" />
      <note Length="0.0625" Pitch="61" RiffPosition="7.0625" Velocity="73" />
      <note Length="0.125" Pitch="58" RiffPosition="7.125" Velocity="31" />
      <note Length="0.0625" Pitch="58" RiffPosition="7.25" Velocity="62" />
      <note Length="0.0625" Pitch="63" RiffPosition="7.3125" Velocity="65" />
      <note Length="0.046875" Pitch="37" RiffPosition="7.375" Velocity="39" />
      <note Length="0.046875" Pitch="46" RiffPosition="7.421875" Velocity="33" />
      <note Length="0.015625" Pitch="58" RiffPosition="7.46875" Velocity="38" />
      <note Length="0.015625" Pitch="58" RiffPosition="7.484375" Velocity="54" />
      <note Length="0.0625" Pitch="61" RiffPosition="7.5" Velocity="52" />
      <note Length="0.0625" Pitch="58" RiffPosition="7.5625" Velocity="55" />
      <note Length="0.125" Pitch="70" RiffPosition="7.625" Velocity="31" />
      <note Length="0.0625" Pitch="63" RiffPosition="7.75" Velocity="49" />
      <note Length="0.0625" Pitch="39" RiffPosition="7.8125" Velocity="62" />
      <note Length="0.046875" Pitch="34" RiffPosition="7.875" Velocity="39" />
      <note Length="0.046875" Pitch="60" RiffPosition="7.921875" Velocity="44" />
      <note Length="0.015625" Pitch="70" RiffPosition="7.96875" Velocity="38" />
      <note Length="0.015625" Pitch="72" RiffPosition="7.984375" Velocity="58" />
      <note Length="0.0625" Pitch="73" RiffPosition="8" Velocity="60" />
      <note Length="0.0625" Pitch="66" RiffPosition="8.0625" Velocity="73" />
      <note Length="0.125" Pitch="81" RiffPosition="8.125" Velocity="31" />
      <note Length="0.0625" Pitch="47" RiffPosition="8.25" Velocity="62" />
      <note Length="0.0625" Pitch="49" RiffPosition="8.3125" Velocity="65" />
      <note Length="0.046875" Pitch="42" RiffPosition="8.375" Velocity="39" />
      <note Length="0.046875" Pitch="71" RiffPosition="8.421875" Velocity="33" />
      <note Length="0.015625" Pitch="42" RiffPosition="8.46875" Velocity="38" />
      <note Length="0.015625" Pitch="85" RiffPosition="8.484375" Velocity="54" />
      <note Length="0.0625" Pitch="78" RiffPosition="8.5" Velocity="52" />
      <note Length="0.0625" Pitch="83" RiffPosition="8.5625" Velocity="55" />
      <note Length="0.125" Pitch="78" RiffPosition="8.625" Velocity="31" />
      <note Length="0.0625" Pitch="49" RiffPosition="8.75" Velocity="49" />
      <note Length="0.0625" Pitch="42" RiffPosition="8.8125" Velocity="62" />
      <note Length="0.046875" Pitch="59" RiffPosition="8.875" Velocity="39" />
      <note Length="0.046875" Pitch="66" RiffPosition="8.921875" Velocity="44" />
      <note Length="0.015625" Pitch="57" RiffPosition="8.96875" Velocity="38" />
      <note Length="0.015625" Pitch="78" RiffPosition="8.984375" Velocity="58" />
      <note Length="0.0625" Pitch="73" RiffPosition="9" Velocity="0" />
      <note Length="0.0625" Pitch="77" RiffPosition="9.0625" Velocity="0" />
      <note Length="0.125" Pitch="53" RiffPosition="9.125" Velocity="0" />
      <note Length="0.0625" Pitch="34" RiffPosition="9.25" Velocity="0" />
      <note Length="0.0625" Pitch="51" RiffPosition="9.3125" Velocity="0" />
      <note Length="0.046875" Pitch="53" RiffPosition="9.375" Velocity="0" />
      <note Length="0.046875" Pitch="72" RiffPosition="9.421875" Velocity="0" />
      <note Length="0.015625" Pitch="54" RiffPosition="9.46875" Velocity="0" />
      <note Length="0.015625" Pitch="46" RiffPosition="9.484375" Velocity="0" />
      <note Length="0.0625" Pitch="70" RiffPosition="9.5" Velocity="0" />
      <note Length="0.0625" Pitch="53" RiffPosition="9.5625" Velocity="0" />
      <note Length="0.125" Pitch="46" RiffPosition="9.625" Velocity="0" />
      <note Length="0.0625" Pitch="49" RiffPosition="9.75" Velocity="0" />
      <note Length="0.0625" Pitch="54" RiffPosition="9.8125" Velocity="0" />
      <note Length="0.046875" Pitch="58" RiffPosition="9.875" Velocity="0" />
      <note Length="0.046875" Pitch="48" RiffPosition="9.921875" Velocity="0" />
      <note Length="0.015625" Pitch="46" RiffPosition="9.96875" Velocity="0" />
      <note Length="0.015625" Pitch="46" RiffPosition="9.984375" Velocity="0" />
      <note Length="0.0625" Pitch="61" RiffPosition="10" Velocity="0" />
      <note Length="0.0625" Pitch="54" RiffPosition="10.0625" Velocity="0" />
      <note Length="0.125" Pitch="68" RiffPosition="10.125" Velocity="0" />
      <note Length="0.0625" Pitch="62" RiffPosition="10.25" Velocity="0" />
      <note Length="0.0625" Pitch="54" RiffPosition="10.3125" Velocity="0" />
      <note Length="0.046875" Pitch="68" RiffPosition="10.375" Velocity="0" />
      <note Length="0.046875" Pitch="59" RiffPosition="10.421875" Velocity="0" />
      <note Length="0.015625" Pitch="69" RiffPosition="10.46875" Velocity="0" />
      <note Length="0.015625" Pitch="69" RiffPosition="10.484375" Velocity="0" />
      <note Length="0.0625" Pitch="54" RiffPosition="10.5" Velocity="0" />
      <note Length="0.0625" Pitch="68" RiffPosition="10.5625" Velocity="0" />
      <note Length="0.125" Pitch="71" RiffPosition="10.625" Velocity="0" />
      <note Length="0.0625" Pitch="54" RiffPosition="10.75" Velocity="0" />
      <note Length="0.0625" Pitch="69" RiffPosition="10.8125" Velocity="0" />
      <note Length="0.046875" Pitch="45" RiffPosition="10.875" Velocity="0" />
      <note Length="0.046875" Pitch="54" RiffPosition="10.921875" Velocity="0" />
      <note Length="0.015625" Pitch="71" RiffPosition="10.96875" Velocity="0" />
      <note Length="0.015625" Pitch="66" RiffPosition="10.984375" Velocity="0" />
    </riff>
    <riff IsDrum="False" MidiInstrument="34" Tempo="122" Length="11">
      <note Length="0.015625" Pitch="56" RiffPosition="0" Velocity="71" />
      <note Length="0.015625" Pitch="56" RiffPosition="0.015625" Velocity="69" />
      <note Length="0.03125" Pitch="57" RiffPosition="0.03125" Velocity="68" />
      <note Length="0.0078125" Pitch="57" RiffPosition="0.0625" Velocity="38" />
      <note Length="0.0234375" Pitch="57" RiffPosition="0.0703125" Velocity="40" />
      <note Length="0.015625" Pitch="59" RiffPosition="0.09375" Velocity="49" />
      <note Length="0.015625" Pitch="57" RiffPosition="0.109375" Velocity="51" />
      <note Length="0.015625" Pitch="57" RiffPosition="0.125" Velocity="45" />
      <note Length="0.015625" Pitch="57" RiffPosition="0.140625" Velocity="39" />
      <note Length="0.03125" Pitch="56" RiffPosition="0.15625" Velocity="35" />
      <note Length="0.0078125" Pitch="54" RiffPosition="0.1875" Velocity="74" />
      <note Length="0.0234375" Pitch="54" RiffPosition="0.1953125" Velocity="73" />
      <note Length="0.015625" Pitch="54" RiffPosition="0.21875" Velocity="67" />
      <note Length="0.015625" Pitch="42" RiffPosition="0.234375" Velocity="97" />
      <note Length="0.015625" Pitch="42" RiffPosition="0.25" Velocity="89" />
      <note Length="0.015625" Pitch="42" RiffPosition="0.265625" Velocity="80" />
      <note Length="0.03125" Pitch="42" RiffPosition="0.28125" Velocity="71" />
      <note Length="0.0078125" Pitch="42" RiffPosition="0.3125" Velocity="53" />
      <note Length="0.0234375" Pitch="42" RiffPosition="0.3203125" Velocity="57" />
      <note Length="0.015625" Pitch="54" RiffPosition="0.34375" Velocity="66" />
      <note Length="0.015625" Pitch="54" RiffPosition="0.359375" Velocity="105" />
      <note Length="0.015625" Pitch="54" RiffPosition="0.375" Velocity="106" />
      <note Length="0.015625" Pitch="56" RiffPosition="0.390625" Velocity="105" />
      <note Length="0.03125" Pitch="56" RiffPosition="0.40625" Velocity="102" />
      <note Length="0.0078125" Pitch="57" RiffPosition="0.4375" Velocity="55" />
      <note Length="0.0234375" Pitch="56" RiffPosition="0.4453125" Velocity="52" />
      <note Length="0.015625" Pitch="42" RiffPosition="0.46875" Velocity="43" />
      <note Length="0.015625" Pitch="42" RiffPosition="0.484375" Velocity="68" />
      <note Length="0.015625" Pitch="42" RiffPosition="0.5" Velocity="72" />
      <note Length="0.015625" Pitch="42" RiffPosition="0.515625" Velocity="74" />
      <note Length="0.03125" Pitch="42" RiffPosition="0.53125" Velocity="74" />
      <note Length="0.0078125" Pitch="50" RiffPosition="0.5625" Velocity="38" />
      <note Length="0.0234375" Pitch="50" RiffPosition="0.5703125" Velocity="40" />
      <note Length="0.015625" Pitch="49" RiffPosition="0.59375" Velocity="49" />
      <note Length="0.015625" Pitch="50" RiffPosition="0.609375" Velocity="91" />
      <note Length="0.015625" Pitch="50" RiffPosition="0.625" Velocity="98" />
      <note Length="0.015625" Pitch="42" RiffPosition="0.640625" Velocity="103" />
      <note Length="0.03125" Pitch="42" RiffPosition="0.65625" Velocity="107" />
      <note Length="0.0078125" Pitch="42" RiffPosition="0.6875" Velocity="74" />
      <note Length="0.0234375" Pitch="42" RiffPosition="0.6953125" Velocity="73" />
      <note Length="0.015625" Pitch="54" RiffPosition="0.71875" Velocity="67" />
      <note Length="0.015625" Pitch="54" RiffPosition="0.734375" Velocity="45" />
      <note Length="0.015625" Pitch="54" RiffPosition="0.75" Velocity="53" />
      <note Length="0.015625" Pitch="54" RiffPosition="0.765625" Velocity="62" />
      <note Length="0.03125" Pitch="54" RiffPosition="0.78125" Velocity="71" />
      <note Length="0.0078125" Pitch="54" RiffPosition="0.8125" Velocity="53" />
      <note Length="0.0234375" Pitch="54" RiffPosition="0.8203125" Velocity="57" />
      <note Length="0.015625" Pitch="42" RiffPosition="0.84375" Velocity="66" />
      <note Length="0.015625" Pitch="42" RiffPosition="0.859375" Velocity="37" />
      <note Length="0.015625" Pitch="42" RiffPosition="0.875" Velocity="36" />
      <note Length="0.015625" Pitch="42" RiffPosition="0.890625" Velocity="37" />
      <note Length="0.03125" Pitch="42" RiffPosition="0.90625" Velocity="40" />
      <note Length="0.0078125" Pitch="42" RiffPosition="0.9375" Velocity="55" />
      <note Length="0.0234375" Pitch="42" RiffPosition="0.9453125" Velocity="52" />
      <note Length="0.015625" Pitch="54" RiffPosition="0.96875" Velocity="43" />
      <note Length="0.015625" Pitch="54" RiffPosition="0.984375" Velocity="75" />
      <note Length="0.015625" Pitch="46" RiffPosition="1" Velocity="71" />
      <note Length="0.015625" Pitch="48" RiffPosition="1.015625" Velocity="69" />
      <note Length="0.03125" Pitch="49" RiffPosition="1.03125" Velocity="68" />
      <note Length="0.0078125" Pitch="49" RiffPosition="1.0625" Velocity="38" />
      <note Length="0.0234375" Pitch="51" RiffPosition="1.0703125" Velocity="40" />
      <note Length="0.015625" Pitch="51" RiffPosition="1.09375" Velocity="49" />
      <note Length="0.015625" Pitch="49" RiffPosition="1.109375" Velocity="51" />
      <note Length="0.015625" Pitch="49" RiffPosition="1.125" Velocity="45" />
      <note Length="0.015625" Pitch="49" RiffPosition="1.140625" Velocity="39" />
      <note Length="0.03125" Pitch="48" RiffPosition="1.15625" Velocity="35" />
      <note Length="0.0078125" Pitch="46" RiffPosition="1.1875" Velocity="74" />
      <note Length="0.0234375" Pitch="46" RiffPosition="1.1953125" Velocity="73" />
      <note Length="0.015625" Pitch="34" RiffPosition="1.21875" Velocity="67" />
      <note Length="0.015625" Pitch="34" RiffPosition="1.234375" Velocity="97" />
      <note Length="0.015625" Pitch="34" RiffPosition="1.25" Velocity="89" />
      <note Length="0.015625" Pitch="34" RiffPosition="1.265625" Velocity="80" />
      <note Length="0.03125" Pitch="34" RiffPosition="1.28125" Velocity="71" />
      <note Length="0.0078125" Pitch="34" RiffPosition="1.3125" Velocity="53" />
      <note Length="0.0234375" Pitch="34" RiffPosition="1.3203125" Velocity="57" />
      <note Length="0.015625" Pitch="46" RiffPosition="1.34375" Velocity="66" />
      <note Length="0.015625" Pitch="46" RiffPosition="1.359375" Velocity="105" />
      <note Length="0.015625" Pitch="48" RiffPosition="1.375" Velocity="106" />
      <note Length="0.015625" Pitch="48" RiffPosition="1.390625" Velocity="105" />
      <note Length="0.03125" Pitch="49" RiffPosition="1.40625" Velocity="102" />
      <note Length="0.0078125" Pitch="48" RiffPosition="1.4375" Velocity="55" />
      <note Length="0.0234375" Pitch="48" RiffPosition="1.4453125" Velocity="52" />
      <note Length="0.015625" Pitch="34" RiffPosition="1.46875" Velocity="43" />
      <note Length="0.015625" Pitch="34" RiffPosition="1.484375" Velocity="68" />
      <note Length="0.015625" Pitch="34" RiffPosition="1.5" Velocity="72" />
      <note Length="0.015625" Pitch="34" RiffPosition="1.515625" Velocity="74" />
      <note Length="0.03125" Pitch="34" RiffPosition="1.53125" Velocity="74" />
      <note Length="0.0078125" Pitch="42" RiffPosition="1.5625" Velocity="38" />
      <note Length="0.0234375" Pitch="42" RiffPosition="1.5703125" Velocity="40" />
      <note Length="0.015625" Pitch="41" RiffPosition="1.59375" Velocity="49" />
      <note Length="0.015625" Pitch="42" RiffPosition="1.609375" Velocity="91" />
      <note Length="0.015625" Pitch="34" RiffPosition="1.625" Velocity="98" />
      <note Length="0.015625" Pitch="34" RiffPosition="1.640625" Velocity="103" />
      <note Length="0.03125" Pitch="34" RiffPosition="1.65625" Velocity="107" />
      <note Length="0.0078125" Pitch="34" RiffPosition="1.6875" Velocity="74" />
      <note Length="0.0234375" Pitch="34" RiffPosition="1.6953125" Velocity="73" />
      <note Length="0.015625" Pitch="34" RiffPosition="1.71875" Velocity="67" />
      <note Length="0.015625" Pitch="46" RiffPosition="1.734375" Velocity="45" />
      <note Length="0.015625" Pitch="46" RiffPosition="1.75" Velocity="53" />
      <note Length="0.015625" Pitch="46" RiffPosition="1.765625" Velocity="62" />
      <note Length="0.03125" Pitch="46" RiffPosition="1.78125" Velocity="71" />
      <note Length="0.0078125" Pitch="46" RiffPosition="1.8125" Velocity="53" />
      <note Length="0.0234375" Pitch="46" RiffPosition="1.8203125" Velocity="57" />
      <note Length="0.015625" Pitch="34" RiffPosition="1.84375" Velocity="66" />
      <note Length="0.015625" Pitch="34" RiffPosition="1.859375" Velocity="37" />
      <note Length="0.015625" Pitch="34" RiffPosition="1.875" Velocity="36" />
      <note Length="0.015625" Pitch="34" RiffPosition="1.890625" Velocity="37" />
      <note Length="0.03125" Pitch="34" RiffPosition="1.90625" Velocity="40" />
      <note Length="0.0078125" Pitch="34" RiffPosition="1.9375" Velocity="55" />
      <note Length="0.0234375" Pitch="34" RiffPosition="1.9453125" Velocity="52" />
      <note Length="0.015625" Pitch="46" RiffPosition="1.96875" Velocity="43" />
      <note Length="0.015625" Pitch="46" RiffPosition="1.984375" Velocity="75" />
      <note Length="0.015625" Pitch="54" RiffPosition="2" Velocity="0" />
      <note Length="0.015625" Pitch="56" RiffPosition="2.015625" Velocity="0" />
      <note Length="0.03125" Pitch="57" RiffPosition="2.03125" Velocity="0" />
      <note Length="0.0078125" Pitch="57" RiffPosition="2.0625" Velocity="0" />
      <note Length="0.0234375" Pitch="59" RiffPosition="2.0703125" Velocity="0" />
      <note Length="0.015625" Pitch="59" RiffPosition="2.09375" Velocity="0" />
      <note Length="0.015625" Pitch="57" RiffPosition="2.109375" Velocity="0" />
      <note Length="0.015625" Pitch="57" RiffPosition="2.125" Velocity="0" />
      <note Length="0.015625" Pitch="57" RiffPosition="2.140625" Velocity="0" />
      <note Length="0.03125" Pitch="56" RiffPosition="2.15625" Velocity="0" />
      <note Length="0.0078125" Pitch="54" RiffPosition="2.1875" Velocity="0" />
      <note Length="0.0234375" Pitch="54" RiffPosition="2.1953125" Velocity="0" />
      <note Length="0.015625" Pitch="42" RiffPosition="2.21875" Velocity="0" />
      <note Length="0.015625" Pitch="42" RiffPosition="2.234375" Velocity="0" />
      <note Length="0.015625" Pitch="42" RiffPosition="2.25" Velocity="0" />
      <note Length="0.015625" Pitch="42" RiffPosition="2.265625" Velocity="0" />
      <note Length="0.03125" Pitch="42" RiffPosition="2.28125" Velocity="0" />
      <note Length="0.0078125" Pitch="42" RiffPosition="2.3125" Velocity="0" />
      <note Length="0.0234375" Pitch="42" RiffPosition="2.3203125" Velocity="0" />
      <note Length="0.015625" Pitch="54" RiffPosition="2.34375" Velocity="0" />
      <note Length="0.015625" Pitch="54" RiffPosition="2.359375" Velocity="0" />
      <note Length="0.015625" Pitch="54" RiffPosition="2.375" Velocity="0" />
      <note Length="0.015625" Pitch="56" RiffPosition="2.390625" Velocity="0" />
      <note Length="0.03125" Pitch="57" RiffPosition="2.40625" Velocity="0" />
      <note Length="0.0078125" Pitch="56" RiffPosition="2.4375" Velocity="0" />
      <note Length="0.0234375" Pitch="56" RiffPosition="2.4453125" Velocity="0" />
      <note Length="0.015625" Pitch="42" RiffPosition="2.46875" Velocity="0" />
      <note Length="0.015625" Pitch="42" RiffPosition="2.484375" Velocity="0" />
      <note Length="0.015625" Pitch="42" RiffPosition="2.5" Velocity="0" />
      <note Length="0.015625" Pitch="42" RiffPosition="2.515625" Velocity="0" />
      <note Length="0.03125" Pitch="42" RiffPosition="2.53125" Velocity="0" />
      <note Length="0.0078125" Pitch="50" RiffPosition="2.5625" Velocity="0" />
      <note Length="0.0234375" Pitch="49" RiffPosition="2.5703125" Velocity="0" />
      <note Length="0.015625" Pitch="49" RiffPosition="2.59375" Velocity="0" />
      <note Length="0.015625" Pitch="50" RiffPosition="2.609375" Velocity="0" />
      <note Length="0.015625" Pitch="42" RiffPosition="2.625" Velocity="0" />
      <note Length="0.015625" Pitch="42" RiffPosition="2.640625" Velocity="0" />
      <note Length="0.03125" Pitch="42" RiffPosition="2.65625" Velocity="0" />
      <note Length="0.0078125" Pitch="42" RiffPosition="2.6875" Velocity="0" />
      <note Length="0.0234375" Pitch="42" RiffPosition="2.6953125" Velocity="0" />
      <note Length="0.015625" Pitch="54" RiffPosition="2.71875" Velocity="0" />
      <note Length="0.015625" Pitch="54" RiffPosition="2.734375" Velocity="0" />
      <note Length="0.015625" Pitch="54" RiffPosition="2.75" Velocity="0" />
      <note Length="0.015625" Pitch="54" RiffPosition="2.765625" Velocity="0" />
      <note Length="0.03125" Pitch="54" RiffPosition="2.78125" Velocity="0" />
      <note Length="0.0078125" Pitch="54" RiffPosition="2.8125" Velocity="0" />
      <note Length="0.0234375" Pitch="54" RiffPosition="2.8203125" Velocity="0" />
      <note Length="0.015625" Pitch="42" RiffPosition="2.84375" Velocity="0" />
      <note Length="0.015625" Pitch="42" RiffPosition="2.859375" Velocity="0" />
      <note Length="0.015625" Pitch="42" RiffPosition="2.875" Velocity="0" />
      <note Length="0.015625" Pitch="42" RiffPosition="2.890625" Velocity="0" />
      <note Length="0.03125" Pitch="42" RiffPosition="2.90625" Velocity="0" />
      <note Length="0.0078125" Pitch="42" RiffPosition="2.9375" Velocity="0" />
      <note Length="0.0234375" Pitch="42" RiffPosition="2.9453125" Velocity="0" />
      <note Length="0.015625" Pitch="54" RiffPosition="2.96875" Velocity="0" />
      <note Length="0.015625" Pitch="54" RiffPosition="2.984375" Velocity="0" />
      <note Length="0.015625" Pitch="46" RiffPosition="3" Velocity="71" />
      <note Length="0.015625" Pitch="48" RiffPosition="3.015625" Velocity="69" />
      <note Length="0.03125" Pitch="49" RiffPosition="3.03125" Velocity="68" />
      <note Length="0.0078125" Pitch="49" RiffPosition="3.0625" Velocity="38" />
      <note Length="0.0234375" Pitch="49" RiffPosition="3.0703125" Velocity="40" />
      <note Length="0.015625" Pitch="51" RiffPosition="3.09375" Velocity="49" />
      <note Length="0.015625" Pitch="49" RiffPosition="3.109375" Velocity="51" />
      <note Length="0.015625" Pitch="49" RiffPosition="3.125" Velocity="45" />
      <note Length="0.015625" Pitch="49" RiffPosition="3.140625" Velocity="39" />
      <note Length="0.03125" Pitch="48" RiffPosition="3.15625" Velocity="35" />
      <note Length="0.0078125" Pitch="46" RiffPosition="3.1875" Velocity="74" />
      <note Length="0.0234375" Pitch="46" RiffPosition="3.1953125" Velocity="73" />
      <note Length="0.015625" Pitch="34" RiffPosition="3.21875" Velocity="67" />
      <note Length="0.015625" Pitch="34" RiffPosition="3.234375" Velocity="97" />
      <note Length="0.015625" Pitch="34" RiffPosition="3.25" Velocity="89" />
      <note Length="0.015625" Pitch="34" RiffPosition="3.265625" Velocity="80" />
      <note Length="0.03125" Pitch="34" RiffPosition="3.28125" Velocity="71" />
      <note Length="0.0078125" Pitch="34" RiffPosition="3.3125" Velocity="53" />
      <note Length="0.0234375" Pitch="34" RiffPosition="3.3203125" Velocity="57" />
      <note Length="0.015625" Pitch="46" RiffPosition="3.34375" Velocity="66" />
      <note Length="0.015625" Pitch="46" RiffPosition="3.359375" Velocity="105" />
      <note Length="0.015625" Pitch="46" RiffPosition="3.375" Velocity="106" />
      <note Length="0.015625" Pitch="48" RiffPosition="3.390625" Velocity="105" />
      <note Length="0.03125" Pitch="48" RiffPosition="3.40625" Velocity="102" />
      <note Length="0.0078125" Pitch="48" RiffPosition="3.4375" Velocity="55" />
      <note Length="0.0234375" Pitch="48" RiffPosition="3.4453125" Velocity="52" />
      <note Length="0.015625" Pitch="34" RiffPosition="3.46875" Velocity="43" />
      <note Length="0.015625" Pitch="34" RiffPosition="3.484375" Velocity="68" />
      <note Length="0.015625" Pitch="34" RiffPosition="3.5" Velocity="72" />
      <note Length="0.015625" Pitch="34" RiffPosition="3.515625" Velocity="74" />
      <note Length="0.03125" Pitch="34" RiffPosition="3.53125" Velocity="74" />
      <note Length="0.0078125" Pitch="42" RiffPosition="3.5625" Velocity="38" />
      <note Length="0.0234375" Pitch="41" RiffPosition="3.5703125" Velocity="40" />
      <note Length="0.015625" Pitch="41" RiffPosition="3.59375" Velocity="49" />
      <note Length="0.015625" Pitch="42" RiffPosition="3.609375" Velocity="91" />
      <note Length="0.015625" Pitch="42" RiffPosition="3.625" Velocity="98" />
      <note Length="0.015625" Pitch="34" RiffPosition="3.640625" Velocity="103" />
      <note Length="0.03125" Pitch="34" RiffPosition="3.65625" Velocity="107" />
      <note Length="0.0078125" Pitch="34" RiffPosition="3.6875" Velocity="74" />
      <note Length="0.0234375" Pitch="34" RiffPosition="3.6953125" Velocity="73" />
      <note Length="0.015625" Pitch="46" RiffPosition="3.71875" Velocity="67" />
      <note Length="0.015625" Pitch="46" RiffPosition="3.734375" Velocity="45" />
      <note Length="0.015625" Pitch="46" RiffPosition="3.75" Velocity="53" />
      <note Length="0.015625" Pitch="46" RiffPosition="3.765625" Velocity="62" />
      <note Length="0.03125" Pitch="46" RiffPosition="3.78125" Velocity="71" />
      <note Length="0.0078125" Pitch="46" RiffPosition="3.8125" Velocity="53" />
      <note Length="0.0234375" Pitch="46" RiffPosition="3.8203125" Velocity="57" />
      <note Length="0.015625" Pitch="34" RiffPosition="3.84375" Velocity="66" />
      <note Length="0.015625" Pitch="34" RiffPosition="3.859375" Velocity="37" />
      <note Length="0.015625" Pitch="34" RiffPosition="3.875" Velocity="36" />
      <note Length="0.015625" Pitch="34" RiffPosition="3.890625" Velocity="37" />
      <note Length="0.03125" Pitch="34" RiffPosition="3.90625" Velocity="40" />
      <note Length="0.0078125" Pitch="34" RiffPosition="3.9375" Velocity="55" />
      <note Length="0.0234375" Pitch="34" RiffPosition="3.9453125" Velocity="52" />
      <note Length="0.015625" Pitch="46" RiffPosition="3.96875" Velocity="43" />
      <note Length="0.015625" Pitch="46" RiffPosition="3.984375" Velocity="75" />
      <note Length="0.015625" Pitch="56" RiffPosition="4" Velocity="71" />
      <note Length="0.015625" Pitch="56" RiffPosition="4.015625" Velocity="69" />
      <note Length="0.03125" Pitch="57" RiffPosition="4.03125" Velocity="68" />
      <note Length="0.0078125" Pitch="57" RiffPosition="4.0625" Velocity="38" />
      <note Length="0.0234375" Pitch="57" RiffPosition="4.0703125" Velocity="40" />
      <note Length="0.015625" Pitch="59" RiffPosition="4.09375" Velocity="49" />
      <note Length="0.015625" Pitch="57" RiffPosition="4.109375" Velocity="51" />
      <note Length="0.015625" Pitch="57" RiffPosition="4.125" Velocity="45" />
      <note Length="0.015625" Pitch="57" RiffPosition="4.140625" Velocity="39" />
      <note Length="0.03125" Pitch="56" RiffPosition="4.15625" Velocity="35" />
      <note Length="0.0078125" Pitch="54" RiffPosition="4.1875" Velocity="74" />
      <note Length="0.0234375" Pitch="54" RiffPosition="4.1953125" Velocity="73" />
      <note Length="0.015625" Pitch="54" RiffPosition="4.21875" Velocity="67" />
      <note Length="0.015625" Pitch="42" RiffPosition="4.234375" Velocity="97" />
      <note Length="0.015625" Pitch="42" RiffPosition="4.25" Velocity="89" />
      <note Length="0.015625" Pitch="42" RiffPosition="4.265625" Velocity="80" />
      <note Length="0.03125" Pitch="42" RiffPosition="4.28125" Velocity="71" />
      <note Length="0.0078125" Pitch="42" RiffPosition="4.3125" Velocity="53" />
      <note Length="0.0234375" Pitch="42" RiffPosition="4.3203125" Velocity="57" />
      <note Length="0.015625" Pitch="54" RiffPosition="4.34375" Velocity="66" />
      <note Length="0.015625" Pitch="54" RiffPosition="4.359375" Velocity="105" />
      <note Length="0.015625" Pitch="54" RiffPosition="4.375" Velocity="106" />
      <note Length="0.015625" Pitch="56" RiffPosition="4.390625" Velocity="105" />
      <note Length="0.03125" Pitch="56" RiffPosition="4.40625" Velocity="102" />
      <note Length="0.0078125" Pitch="57" RiffPosition="4.4375" Velocity="55" />
      <note Length="0.0234375" Pitch="56" RiffPosition="4.4453125" Velocity="52" />
      <note Length="0.015625" Pitch="42" RiffPosition="4.46875" Velocity="43" />
      <note Length="0.015625" Pitch="42" RiffPosition="4.484375" Velocity="68" />
      <note Length="0.015625" Pitch="42" RiffPosition="4.5" Velocity="72" />
      <note Length="0.015625" Pitch="42" RiffPosition="4.515625" Velocity="74" />
      <note Length="0.03125" Pitch="42" RiffPosition="4.53125" Velocity="74" />
      <note Length="0.0078125" Pitch="50" RiffPosition="4.5625" Velocity="38" />
      <note Length="0.0234375" Pitch="50" RiffPosition="4.5703125" Velocity="40" />
      <note Length="0.015625" Pitch="49" RiffPosition="4.59375" Velocity="49" />
      <note Length="0.015625" Pitch="50" RiffPosition="4.609375" Velocity="91" />
      <note Length="0.015625" Pitch="50" RiffPosition="4.625" Velocity="98" />
      <note Length="0.015625" Pitch="42" RiffPosition="4.640625" Velocity="103" />
      <note Length="0.03125" Pitch="42" RiffPosition="4.65625" Velocity="107" />
      <note Length="0.0078125" Pitch="42" RiffPosition="4.6875" Velocity="74" />
      <note Length="0.0234375" Pitch="42" RiffPosition="4.6953125" Velocity="73" />
      <note Length="0.015625" Pitch="42" RiffPosition="4.71875" Velocity="67" />
      <note Length="0.015625" Pitch="54" RiffPosition="4.734375" Velocity="45" />
      <note Length="0.015625" Pitch="54" RiffPosition="4.75" Velocity="53" />
      <note Length="0.015625" Pitch="54" RiffPosition="4.765625" Velocity="62" />
      <note Length="0.03125" Pitch="54" RiffPosition="4.78125" Velocity="71" />
      <note Length="0.0078125" Pitch="54" RiffPosition="4.8125" Velocity="53" />
      <note Length="0.0234375" Pitch="54" RiffPosition="4.8203125" Velocity="57" />
      <note Length="0.015625" Pitch="42" RiffPosition="4.84375" Velocity="66" />
      <note Length="0.015625" Pitch="42" RiffPosition="4.859375" Velocity="37" />
      <note Length="0.015625" Pitch="42" RiffPosition="4.875" Velocity="36" />
      <note Length="0.015625" Pitch="42" RiffPosition="4.890625" Velocity="37" />
      <note Length="0.03125" Pitch="42" RiffPosition="4.90625" Velocity="40" />
      <note Length="0.0078125" Pitch="42" RiffPosition="4.9375" Velocity="55" />
      <note Length="0.0234375" Pitch="42" RiffPosition="4.9453125" Velocity="52" />
      <note Length="0.015625" Pitch="54" RiffPosition="4.96875" Velocity="43" />
      <note Length="0.015625" Pitch="54" RiffPosition="4.984375" Velocity="75" />
      <note Length="0.015625" Pitch="46" RiffPosition="5" Velocity="71" />
      <note Length="0.015625" Pitch="48" RiffPosition="5.015625" Velocity="69" />
      <note Length="0.03125" Pitch="49" RiffPosition="5.03125" Velocity="68" />
      <note Length="0.0078125" Pitch="49" RiffPosition="5.0625" Velocity="38" />
      <note Length="0.0234375" Pitch="51" RiffPosition="5.0703125" Velocity="40" />
      <note Length="0.015625" Pitch="51" RiffPosition="5.09375" Velocity="49" />
      <note Length="0.015625" Pitch="49" RiffPosition="5.109375" Velocity="51" />
      <note Length="0.015625" Pitch="49" RiffPosition="5.125" Velocity="45" />
      <note Length="0.015625" Pitch="49" RiffPosition="5.140625" Velocity="39" />
      <note Length="0.03125" Pitch="48" RiffPosition="5.15625" Velocity="35" />
      <note Length="0.0078125" Pitch="46" RiffPosition="5.1875" Velocity="74" />
      <note Length="0.0234375" Pitch="46" RiffPosition="5.1953125" Velocity="73" />
      <note Length="0.015625" Pitch="34" RiffPosition="5.21875" Velocity="67" />
      <note Length="0.015625" Pitch="34" RiffPosition="5.234375" Velocity="97" />
      <note Length="0.015625" Pitch="34" RiffPosition="5.25" Velocity="89" />
      <note Length="0.015625" Pitch="34" RiffPosition="5.265625" Velocity="80" />
      <note Length="0.03125" Pitch="34" RiffPosition="5.28125" Velocity="71" />
      <note Length="0.0078125" Pitch="34" RiffPosition="5.3125" Velocity="53" />
      <note Length="0.0234375" Pitch="34" RiffPosition="5.3203125" Velocity="57" />
      <note Length="0.015625" Pitch="46" RiffPosition="5.34375" Velocity="66" />
      <note Length="0.015625" Pitch="46" RiffPosition="5.359375" Velocity="105" />
      <note Length="0.015625" Pitch="46" RiffPosition="5.375" Velocity="106" />
      <note Length="0.015625" Pitch="48" RiffPosition="5.390625" Velocity="105" />
      <note Length="0.03125" Pitch="49" RiffPosition="5.40625" Velocity="102" />
      <note Length="0.0078125" Pitch="48" RiffPosition="5.4375" Velocity="55" />
      <note Length="0.0234375" Pitch="48" RiffPosition="5.4453125" Velocity="52" />
      <note Length="0.015625" Pitch="34" RiffPosition="5.46875" Velocity="43" />
      <note Length="0.015625" Pitch="34" RiffPosition="5.484375" Velocity="68" />
      <note Length="0.015625" Pitch="34" RiffPosition="5.5" Velocity="72" />
      <note Length="0.015625" Pitch="34" RiffPosition="5.515625" Velocity="74" />
      <note Length="0.03125" Pitch="34" RiffPosition="5.53125" Velocity="74" />
      <note Length="0.0078125" Pitch="42" RiffPosition="5.5625" Velocity="38" />
      <note Length="0.0234375" Pitch="42" RiffPosition="5.5703125" Velocity="40" />
      <note Length="0.015625" Pitch="41" RiffPosition="5.59375" Velocity="49" />
      <note Length="0.015625" Pitch="42" RiffPosition="5.609375" Velocity="91" />
      <note Length="0.015625" Pitch="34" RiffPosition="5.625" Velocity="98" />
      <note Length="0.015625" Pitch="34" RiffPosition="5.640625" Velocity="103" />
      <note Length="0.03125" Pitch="34" RiffPosition="5.65625" Velocity="107" />
      <note Length="0.0078125" Pitch="34" RiffPosition="5.6875" Velocity="74" />
      <note Length="0.0234375" Pitch="34" RiffPosition="5.6953125" Velocity="73" />
      <note Length="0.015625" Pitch="34" RiffPosition="5.71875" Velocity="67" />
      <note Length="0.015625" Pitch="46" RiffPosition="5.734375" Velocity="45" />
      <note Length="0.015625" Pitch="46" RiffPosition="5.75" Velocity="53" />
      <note Length="0.015625" Pitch="46" RiffPosition="5.765625" Velocity="62" />
      <note Length="0.03125" Pitch="46" RiffPosition="5.78125" Velocity="71" />
      <note Length="0.0078125" Pitch="46" RiffPosition="5.8125" Velocity="53" />
      <note Length="0.0234375" Pitch="46" RiffPosition="5.8203125" Velocity="57" />
      <note Length="0.015625" Pitch="34" RiffPosition="5.84375" Velocity="66" />
      <note Length="0.015625" Pitch="34" RiffPosition="5.859375" Velocity="37" />
      <note Length="0.015625" Pitch="34" RiffPosition="5.875" Velocity="36" />
      <note Length="0.015625" Pitch="34" RiffPosition="5.890625" Velocity="37" />
      <note Length="0.03125" Pitch="34" RiffPosition="5.90625" Velocity="40" />
      <note Length="0.0078125" Pitch="34" RiffPosition="5.9375" Velocity="55" />
      <note Length="0.0234375" Pitch="34" RiffPosition="5.9453125" Velocity="52" />
      <note Length="0.015625" Pitch="46" RiffPosition="5.96875" Velocity="43" />
      <note Length="0.015625" Pitch="46" RiffPosition="5.984375" Velocity="75" />
      <note Length="0.015625" Pitch="54" RiffPosition="6" Velocity="0" />
      <note Length="0.015625" Pitch="56" RiffPosition="6.015625" Velocity="0" />
      <note Length="0.03125" Pitch="57" RiffPosition="6.03125" Velocity="0" />
      <note Length="0.0078125" Pitch="57" RiffPosition="6.0625" Velocity="0" />
      <note Length="0.0234375" Pitch="59" RiffPosition="6.0703125" Velocity="0" />
      <note Length="0.015625" Pitch="59" RiffPosition="6.09375" Velocity="0" />
      <note Length="0.015625" Pitch="57" RiffPosition="6.109375" Velocity="0" />
      <note Length="0.015625" Pitch="57" RiffPosition="6.125" Velocity="0" />
      <note Length="0.015625" Pitch="57" RiffPosition="6.140625" Velocity="0" />
      <note Length="0.03125" Pitch="56" RiffPosition="6.15625" Velocity="0" />
      <note Length="0.0078125" Pitch="54" RiffPosition="6.1875" Velocity="0" />
      <note Length="0.0234375" Pitch="54" RiffPosition="6.1953125" Velocity="0" />
      <note Length="0.015625" Pitch="42" RiffPosition="6.21875" Velocity="0" />
      <note Length="0.015625" Pitch="42" RiffPosition="6.234375" Velocity="0" />
      <note Length="0.015625" Pitch="42" RiffPosition="6.25" Velocity="0" />
      <note Length="0.015625" Pitch="42" RiffPosition="6.265625" Velocity="0" />
      <note Length="0.03125" Pitch="42" RiffPosition="6.28125" Velocity="0" />
      <note Length="0.0078125" Pitch="42" RiffPosition="6.3125" Velocity="0" />
      <note Length="0.0234375" Pitch="42" RiffPosition="6.3203125" Velocity="0" />
      <note Length="0.015625" Pitch="54" RiffPosition="6.34375" Velocity="0" />
      <note Length="0.015625" Pitch="54" RiffPosition="6.359375" Velocity="0" />
      <note Length="0.015625" Pitch="54" RiffPosition="6.375" Velocity="0" />
      <note Length="0.015625" Pitch="56" RiffPosition="6.390625" Velocity="0" />
      <note Length="0.03125" Pitch="57" RiffPosition="6.40625" Velocity="0" />
      <note Length="0.0078125" Pitch="56" RiffPosition="6.4375" Velocity="0" />
      <note Length="0.0234375" Pitch="56" RiffPosition="6.4453125" Velocity="0" />
      <note Length="0.015625" Pitch="42" RiffPosition="6.46875" Velocity="0" />
      <note Length="0.015625" Pitch="42" RiffPosition="6.484375" Velocity="0" />
      <note Length="0.015625" Pitch="42" RiffPosition="6.5" Velocity="0" />
      <note Length="0.015625" Pitch="42" RiffPosition="6.515625" Velocity="0" />
      <note Length="0.03125" Pitch="42" RiffPosition="6.53125" Velocity="0" />
      <note Length="0.0078125" Pitch="50" RiffPosition="6.5625" Velocity="0" />
      <note Length="0.0234375" Pitch="49" RiffPosition="6.5703125" Velocity="0" />
      <note Length="0.015625" Pitch="49" RiffPosition="6.59375" Velocity="0" />
      <note Length="0.015625" Pitch="50" RiffPosition="6.609375" Velocity="0" />
      <note Length="0.015625" Pitch="42" RiffPosition="6.625" Velocity="0" />
      <note Length="0.015625" Pitch="42" RiffPosition="6.640625" Velocity="0" />
      <note Length="0.03125" Pitch="42" RiffPosition="6.65625" Velocity="0" />
      <note Length="0.0078125" Pitch="42" RiffPosition="6.6875" Velocity="0" />
      <note Length="0.0234375" Pitch="42" RiffPosition="6.6953125" Velocity="0" />
      <note Length="0.015625" Pitch="54" RiffPosition="6.71875" Velocity="0" />
      <note Length="0.015625" Pitch="54" RiffPosition="6.734375" Velocity="0" />
      <note Length="0.015625" Pitch="54" RiffPosition="6.75" Velocity="0" />
      <note Length="0.015625" Pitch="54" RiffPosition="6.765625" Velocity="0" />
      <note Length="0.03125" Pitch="54" RiffPosition="6.78125" Velocity="0" />
      <note Length="0.0078125" Pitch="54" RiffPosition="6.8125" Velocity="0" />
      <note Length="0.0234375" Pitch="54" RiffPosition="6.8203125" Velocity="0" />
      <note Length="0.015625" Pitch="42" RiffPosition="6.84375" Velocity="0" />
      <note Length="0.015625" Pitch="42" RiffPosition="6.859375" Velocity="0" />
      <note Length="0.015625" Pitch="42" RiffPosition="6.875" Velocity="0" />
      <note Length="0.015625" Pitch="42" RiffPosition="6.890625" Velocity="0" />
      <note Length="0.03125" Pitch="42" RiffPosition="6.90625" Velocity="0" />
      <note Length="0.0078125" Pitch="42" RiffPosition="6.9375" Velocity="0" />
      <note Length="0.0234375" Pitch="42" RiffPosition="6.9453125" Velocity="0" />
      <note Length="0.015625" Pitch="54" RiffPosition="6.96875" Velocity="0" />
      <note Length="0.015625" Pitch="54" RiffPosition="6.984375" Velocity="0" />
      <note Length="0.015625" Pitch="48" RiffPosition="7" Velocity="0" />
      <note Length="0.015625" Pitch="48" RiffPosition="7.015625" Velocity="0" />
      <note Length="0.03125" Pitch="49" RiffPosition="7.03125" Velocity="0" />
      <note Length="0.0078125" Pitch="49" RiffPosition="7.0625" Velocity="0" />
      <note Length="0.0234375" Pitch="49" RiffPosition="7.0703125" Velocity="0" />
      <note Length="0.015625" Pitch="51" RiffPosition="7.09375" Velocity="0" />
      <note Length="0.015625" Pitch="49" RiffPosition="7.109375" Velocity="0" />
      <note Length="0.015625" Pitch="49" RiffPosition="7.125" Velocity="0" />
      <note Length="0.015625" Pitch="49" RiffPosition="7.140625" Velocity="0" />
      <note Length="0.03125" Pitch="48" RiffPosition="7.15625" Velocity="0" />
      <note Length="0.0078125" Pitch="46" RiffPosition="7.1875" Velocity="0" />
      <note Length="0.0234375" Pitch="46" RiffPosition="7.1953125" Velocity="0" />
      <note Length="0.015625" Pitch="46" RiffPosition="7.21875" Velocity="0" />
      <note Length="0.015625" Pitch="34" RiffPosition="7.234375" Velocity="0" />
      <note Length="0.015625" Pitch="34" RiffPosition="7.25" Velocity="0" />
      <note Length="0.015625" Pitch="34" RiffPosition="7.265625" Velocity="0" />
      <note Length="0.03125" Pitch="34" RiffPosition="7.28125" Velocity="0" />
      <note Length="0.0078125" Pitch="34" RiffPosition="7.3125" Velocity="0" />
      <note Length="0.0234375" Pitch="34" RiffPosition="7.3203125" Velocity="0" />
      <note Length="0.015625" Pitch="46" RiffPosition="7.34375" Velocity="0" />
      <note Length="0.015625" Pitch="46" RiffPosition="7.359375" Velocity="0" />
      <note Length="0.015625" Pitch="46" RiffPosition="7.375" Velocity="0" />
      <note Length="0.015625" Pitch="48" RiffPosition="7.390625" Velocity="0" />
      <note Length="0.03125" Pitch="48" RiffPosition="7.40625" Velocity="0" />
      <note Length="0.0078125" Pitch="49" RiffPosition="7.4375" Velocity="0" />
      <note Length="0.0234375" Pitch="48" RiffPosition="7.4453125" Velocity="0" />
      <note Length="0.015625" Pitch="34" RiffPosition="7.46875" Velocity="0" />
      <note Length="0.015625" Pitch="34" RiffPosition="7.484375" Velocity="0" />
      <note Length="0.015625" Pitch="34" RiffPosition="7.5" Velocity="0" />
      <note Length="0.015625" Pitch="34" RiffPosition="7.515625" Velocity="0" />
      <note Length="0.03125" Pitch="34" RiffPosition="7.53125" Velocity="0" />
      <note Length="0.0078125" Pitch="42" RiffPosition="7.5625" Velocity="0" />
      <note Length="0.0234375" Pitch="41" RiffPosition="7.5703125" Velocity="0" />
      <note Length="0.015625" Pitch="41" RiffPosition="7.59375" Velocity="0" />
      <note Length="0.015625" Pitch="42" RiffPosition="7.609375" Velocity="0" />
      <note Length="0.015625" Pitch="42" RiffPosition="7.625" Velocity="0" />
      <note Length="0.015625" Pitch="34" RiffPosition="7.640625" Velocity="0" />
      <note Length="0.03125" Pitch="34" RiffPosition="7.65625" Velocity="0" />
      <note Length="0.0078125" Pitch="34" RiffPosition="7.6875" Velocity="0" />
      <note Length="0.0234375" Pitch="34" RiffPosition="7.6953125" Velocity="0" />
      <note Length="0.015625" Pitch="46" RiffPosition="7.71875" Velocity="0" />
      <note Length="0.015625" Pitch="46" RiffPosition="7.734375" Velocity="0" />
      <note Length="0.015625" Pitch="46" RiffPosition="7.75" Velocity="0" />
      <note Length="0.015625" Pitch="46" RiffPosition="7.765625" Velocity="0" />
      <note Length="0.03125" Pitch="46" RiffPosition="7.78125" Velocity="0" />
      <note Length="0.0078125" Pitch="46" RiffPosition="7.8125" Velocity="0" />
      <note Length="0.0234375" Pitch="46" RiffPosition="7.8203125" Velocity="0" />
      <note Length="0.015625" Pitch="34" RiffPosition="7.84375" Velocity="0" />
      <note Length="0.015625" Pitch="34" RiffPosition="7.859375" Velocity="0" />
      <note Length="0.015625" Pitch="34" RiffPosition="7.875" Velocity="0" />
      <note Length="0.015625" Pitch="34" RiffPosition="7.890625" Velocity="0" />
      <note Length="0.03125" Pitch="34" RiffPosition="7.90625" Velocity="0" />
      <note Length="0.0078125" Pitch="34" RiffPosition="7.9375" Velocity="0" />
      <note Length="0.0234375" Pitch="34" RiffPosition="7.9453125" Velocity="0" />
      <note Length="0.015625" Pitch="46" RiffPosition="7.96875" Velocity="0" />
      <note Length="0.015625" Pitch="46" RiffPosition="7.984375" Velocity="0" />
      <note Length="0.015625" Pitch="56" RiffPosition="8" Velocity="71" />
      <note Length="0.015625" Pitch="56" RiffPosition="8.015625" Velocity="69" />
      <note Length="0.03125" Pitch="57" RiffPosition="8.03125" Velocity="68" />
      <note Length="0.0078125" Pitch="57" RiffPosition="8.0625" Velocity="38" />
      <note Length="0.0234375" Pitch="57" RiffPosition="8.0703125" Velocity="40" />
      <note Length="0.015625" Pitch="59" RiffPosition="8.09375" Velocity="49" />
      <note Length="0.015625" Pitch="57" RiffPosition="8.109375" Velocity="51" />
      <note Length="0.015625" Pitch="57" RiffPosition="8.125" Velocity="45" />
      <note Length="0.015625" Pitch="56" RiffPosition="8.140625" Velocity="39" />
      <note Length="0.03125" Pitch="56" RiffPosition="8.15625" Velocity="35" />
      <note Length="0.0078125" Pitch="54" RiffPosition="8.1875" Velocity="74" />
      <note Length="0.0234375" Pitch="54" RiffPosition="8.1953125" Velocity="73" />
      <note Length="0.015625" Pitch="54" RiffPosition="8.21875" Velocity="67" />
      <note Length="0.015625" Pitch="42" RiffPosition="8.234375" Velocity="97" />
      <note Length="0.015625" Pitch="42" RiffPosition="8.25" Velocity="89" />
      <note Length="0.015625" Pitch="42" RiffPosition="8.265625" Velocity="80" />
      <note Length="0.03125" Pitch="42" RiffPosition="8.28125" Velocity="71" />
      <note Length="0.0078125" Pitch="42" RiffPosition="8.3125" Velocity="53" />
      <note Length="0.0234375" Pitch="42" RiffPosition="8.3203125" Velocity="57" />
      <note Length="0.015625" Pitch="54" RiffPosition="8.34375" Velocity="66" />
      <note Length="0.015625" Pitch="54" RiffPosition="8.359375" Velocity="105" />
      <note Length="0.015625" Pitch="54" RiffPosition="8.375" Velocity="106" />
      <note Length="0.015625" Pitch="56" RiffPosition="8.390625" Velocity="105" />
      <note Length="0.03125" Pitch="56" RiffPosition="8.40625" Velocity="102" />
      <note Length="0.0078125" Pitch="57" RiffPosition="8.4375" Velocity="55" />
      <note Length="0.0234375" Pitch="56" RiffPosition="8.4453125" Velocity="52" />
      <note Length="0.015625" Pitch="42" RiffPosition="8.46875" Velocity="43" />
      <note Length="0.015625" Pitch="42" RiffPosition="8.484375" Velocity="68" />
      <note Length="0.015625" Pitch="42" RiffPosition="8.5" Velocity="72" />
      <note Length="0.015625" Pitch="42" RiffPosition="8.515625" Velocity="74" />
      <note Length="0.03125" Pitch="42" RiffPosition="8.53125" Velocity="74" />
      <note Length="0.0078125" Pitch="50" RiffPosition="8.5625" Velocity="38" />
      <note Length="0.0234375" Pitch="50" RiffPosition="8.5703125" Velocity="40" />
      <note Length="0.015625" Pitch="49" RiffPosition="8.59375" Velocity="49" />
      <note Length="0.015625" Pitch="50" RiffPosition="8.609375" Velocity="91" />
      <note Length="0.015625" Pitch="50" RiffPosition="8.625" Velocity="98" />
      <note Length="0.015625" Pitch="42" RiffPosition="8.640625" Velocity="103" />
      <note Length="0.03125" Pitch="42" RiffPosition="8.65625" Velocity="107" />
      <note Length="0.0078125" Pitch="42" RiffPosition="8.6875" Velocity="74" />
      <note Length="0.0234375" Pitch="42" RiffPosition="8.6953125" Velocity="73" />
      <note Length="0.015625" Pitch="42" RiffPosition="8.71875" Velocity="67" />
      <note Length="0.015625" Pitch="54" RiffPosition="8.734375" Velocity="45" />
      <note Length="0.015625" Pitch="54" RiffPosition="8.75" Velocity="53" />
      <note Length="0.015625" Pitch="54" RiffPosition="8.765625" Velocity="62" />
      <note Length="0.03125" Pitch="54" RiffPosition="8.78125" Velocity="71" />
      <note Length="0.0078125" Pitch="54" RiffPosition="8.8125" Velocity="53" />
      <note Length="0.0234375" Pitch="54" RiffPosition="8.8203125" Velocity="57" />
      <note Length="0.015625" Pitch="42" RiffPosition="8.84375" Velocity="66" />
      <note Length="0.015625" Pitch="42" RiffPosition="8.859375" Velocity="37" />
      <note Length="0.015625" Pitch="42" RiffPosition="8.875" Velocity="36" />
      <note Length="0.015625" Pitch="42" RiffPosition="8.890625" Velocity="37" />
      <note Length="0.03125" Pitch="42" RiffPosition="8.90625" Velocity="40" />
      <note Length="0.0078125" Pitch="42" RiffPosition="8.9375" Velocity="55" />
      <note Length="0.0234375" Pitch="42" RiffPosition="8.9453125" Velocity="52" />
      <note Length="0.015625" Pitch="54" RiffPosition="8.96875" Velocity="43" />
      <note Length="0.015625" Pitch="54" RiffPosition="8.984375" Velocity="75" />
      <note Length="0.015625" Pitch="46" RiffPosition="9" Velocity="71" />
      <note Length="0.015625" Pitch="48" RiffPosition="9.015625" Velocity="69" />
      <note Length="0.03125" Pitch="49" RiffPosition="9.03125" Velocity="68" />
      <note Length="0.0078125" Pitch="49" RiffPosition="9.0625" Velocity="38" />
      <note Length="0.0234375" Pitch="51" RiffPosition="9.0703125" Velocity="40" />
      <note Length="0.015625" Pitch="51" RiffPosition="9.09375" Velocity="49" />
      <note Length="0.015625" Pitch="49" RiffPosition="9.109375" Velocity="51" />
      <note Length="0.015625" Pitch="49" RiffPosition="9.125" Velocity="45" />
      <note Length="0.015625" Pitch="49" RiffPosition="9.140625" Velocity="39" />
      <note Length="0.03125" Pitch="48" RiffPosition="9.15625" Velocity="35" />
      <note Length="0.0078125" Pitch="46" RiffPosition="9.1875" Velocity="74" />
      <note Length="0.0234375" Pitch="46" RiffPosition="9.1953125" Velocity="73" />
      <note Length="0.015625" Pitch="34" RiffPosition="9.21875" Velocity="67" />
      <note Length="0.015625" Pitch="34" RiffPosition="9.234375" Velocity="97" />
      <note Length="0.015625" Pitch="34" RiffPosition="9.25" Velocity="89" />
      <note Length="0.015625" Pitch="34" RiffPosition="9.265625" Velocity="80" />
      <note Length="0.03125" Pitch="34" RiffPosition="9.28125" Velocity="71" />
      <note Length="0.0078125" Pitch="34" RiffPosition="9.3125" Velocity="53" />
      <note Length="0.0234375" Pitch="34" RiffPosition="9.3203125" Velocity="57" />
      <note Length="0.015625" Pitch="46" RiffPosition="9.34375" Velocity="66" />
      <note Length="0.015625" Pitch="46" RiffPosition="9.359375" Velocity="105" />
      <note Length="0.015625" Pitch="46" RiffPosition="9.375" Velocity="106" />
      <note Length="0.015625" Pitch="48" RiffPosition="9.390625" Velocity="105" />
      <note Length="0.03125" Pitch="49" RiffPosition="9.40625" Velocity="102" />
      <note Length="0.0078125" Pitch="48" RiffPosition="9.4375" Velocity="55" />
      <note Length="0.0234375" Pitch="48" RiffPosition="9.4453125" Velocity="52" />
      <note Length="0.015625" Pitch="34" RiffPosition="9.46875" Velocity="43" />
      <note Length="0.015625" Pitch="34" RiffPosition="9.484375" Velocity="68" />
      <note Length="0.015625" Pitch="34" RiffPosition="9.5" Velocity="72" />
      <note Length="0.015625" Pitch="34" RiffPosition="9.515625" Velocity="74" />
      <note Length="0.03125" Pitch="34" RiffPosition="9.53125" Velocity="74" />
      <note Length="0.0078125" Pitch="42" RiffPosition="9.5625" Velocity="38" />
      <note Length="0.0234375" Pitch="42" RiffPosition="9.5703125" Velocity="40" />
      <note Length="0.015625" Pitch="41" RiffPosition="9.59375" Velocity="49" />
      <note Length="0.015625" Pitch="42" RiffPosition="9.609375" Velocity="91" />
      <note Length="0.015625" Pitch="34" RiffPosition="9.625" Velocity="98" />
      <note Length="0.015625" Pitch="34" RiffPosition="9.640625" Velocity="103" />
      <note Length="0.03125" Pitch="34" RiffPosition="9.65625" Velocity="107" />
      <note Length="0.0078125" Pitch="34" RiffPosition="9.6875" Velocity="74" />
      <note Length="0.0234375" Pitch="34" RiffPosition="9.6953125" Velocity="73" />
      <note Length="0.015625" Pitch="46" RiffPosition="9.71875" Velocity="67" />
      <note Length="0.015625" Pitch="46" RiffPosition="9.734375" Velocity="45" />
      <note Length="0.015625" Pitch="46" RiffPosition="9.75" Velocity="53" />
      <note Length="0.015625" Pitch="46" RiffPosition="9.765625" Velocity="62" />
      <note Length="0.03125" Pitch="46" RiffPosition="9.78125" Velocity="71" />
      <note Length="0.0078125" Pitch="46" RiffPosition="9.8125" Velocity="53" />
      <note Length="0.0234375" Pitch="46" RiffPosition="9.8203125" Velocity="57" />
      <note Length="0.015625" Pitch="34" RiffPosition="9.84375" Velocity="66" />
      <note Length="0.015625" Pitch="34" RiffPosition="9.859375" Velocity="37" />
      <note Length="0.015625" Pitch="34" RiffPosition="9.875" Velocity="36" />
      <note Length="0.015625" Pitch="34" RiffPosition="9.890625" Velocity="37" />
      <note Length="0.03125" Pitch="34" RiffPosition="9.90625" Velocity="40" />
      <note Length="0.0078125" Pitch="34" RiffPosition="9.9375" Velocity="55" />
      <note Length="0.0234375" Pitch="34" RiffPosition="9.9453125" Velocity="52" />
      <note Length="0.015625" Pitch="46" RiffPosition="9.96875" Velocity="43" />
      <note Length="0.015625" Pitch="46" RiffPosition="9.984375" Velocity="75" />
      <note Length="0.015625" Pitch="54" RiffPosition="10" Velocity="71" />
      <note Length="0.015625" Pitch="56" RiffPosition="10.015625" Velocity="69" />
      <note Length="0.03125" Pitch="56" RiffPosition="10.03125" Velocity="68" />
      <note Length="0.0078125" Pitch="57" RiffPosition="10.0625" Velocity="38" />
      <note Length="0.0234375" Pitch="57" RiffPosition="10.0703125" Velocity="40" />
      <note Length="0.015625" Pitch="59" RiffPosition="10.09375" Velocity="49" />
      <note Length="0.015625" Pitch="59" RiffPosition="10.109375" Velocity="51" />
      <note Length="0.015625" Pitch="57" RiffPosition="10.125" Velocity="45" />
      <note Length="0.015625" Pitch="57" RiffPosition="10.140625" Velocity="39" />
      <note Length="0.03125" Pitch="56" RiffPosition="10.15625" Velocity="35" />
      <note Length="0.0078125" Pitch="54" RiffPosition="10.1875" Velocity="74" />
      <note Length="0.0234375" Pitch="54" RiffPosition="10.1953125" Velocity="73" />
      <note Length="0.015625" Pitch="42" RiffPosition="10.21875" Velocity="67" />
      <note Length="0.015625" Pitch="42" RiffPosition="10.234375" Velocity="97" />
      <note Length="0.015625" Pitch="42" RiffPosition="10.25" Velocity="89" />
      <note Length="0.015625" Pitch="42" RiffPosition="10.265625" Velocity="80" />
      <note Length="0.03125" Pitch="42" RiffPosition="10.28125" Velocity="71" />
      <note Length="0.0078125" Pitch="42" RiffPosition="10.3125" Velocity="53" />
      <note Length="0.0234375" Pitch="42" RiffPosition="10.3203125" Velocity="57" />
      <note Length="0.015625" Pitch="54" RiffPosition="10.34375" Velocity="66" />
      <note Length="0.015625" Pitch="54" RiffPosition="10.359375" Velocity="105" />
      <note Length="0.015625" Pitch="54" RiffPosition="10.375" Velocity="106" />
      <note Length="0.015625" Pitch="56" RiffPosition="10.390625" Velocity="105" />
      <note Length="0.03125" Pitch="57" RiffPosition="10.40625" Velocity="102" />
      <note Length="0.0078125" Pitch="56" RiffPosition="10.4375" Velocity="55" />
      <note Length="0.0234375" Pitch="56" RiffPosition="10.4453125" Velocity="52" />
      <note Length="0.015625" Pitch="42" RiffPosition="10.46875" Velocity="43" />
      <note Length="0.015625" Pitch="42" RiffPosition="10.484375" Velocity="68" />
      <note Length="0.015625" Pitch="42" RiffPosition="10.5" Velocity="72" />
      <note Length="0.015625" Pitch="42" RiffPosition="10.515625" Velocity="74" />
      <note Length="0.03125" Pitch="42" RiffPosition="10.53125" Velocity="74" />
      <note Length="0.0078125" Pitch="50" RiffPosition="10.5625" Velocity="38" />
      <note Length="0.0234375" Pitch="49" RiffPosition="10.5703125" Velocity="40" />
      <note Length="0.015625" Pitch="49" RiffPosition="10.59375" Velocity="49" />
      <note Length="0.015625" Pitch="50" RiffPosition="10.609375" Velocity="91" />
      <note Length="0.015625" Pitch="42" RiffPosition="10.625" Velocity="98" />
      <note Length="0.015625" Pitch="42" RiffPosition="10.640625" Velocity="103" />
      <note Length="0.03125" Pitch="42" RiffPosition="10.65625" Velocity="107" />
      <note Length="0.0078125" Pitch="42" RiffPosition="10.6875" Velocity="74" />
      <note Length="0.0234375" Pitch="42" RiffPosition="10.6953125" Velocity="73" />
      <note Length="0.015625" Pitch="54" RiffPosition="10.71875" Velocity="67" />
      <note Length="0.015625" Pitch="54" RiffPosition="10.734375" Velocity="45" />
      <note Length="0.015625" Pitch="54" RiffPosition="10.75" Velocity="53" />
      <note Length="0.015625" Pitch="54" RiffPosition="10.765625" Velocity="62" />
      <note Length="0.03125" Pitch="54" RiffPosition="10.78125" Velocity="71" />
      <note Length="0.0078125" Pitch="54" RiffPosition="10.8125" Velocity="53" />
      <note Length="0.0234375" Pitch="54" RiffPosition="10.8203125" Velocity="57" />
      <note Length="0.015625" Pitch="42" RiffPosition="10.84375" Velocity="66" />
      <note Length="0.015625" Pitch="42" RiffPosition="10.859375" Velocity="37" />
      <note Length="0.015625" Pitch="42" RiffPosition="10.875" Velocity="36" />
      <note Length="0.015625" Pitch="42" RiffPosition="10.890625" Velocity="37" />
      <note Length="0.03125" Pitch="42" RiffPosition="10.90625" Velocity="40" />
      <note Length="0.0078125" Pitch="42" RiffPosition="10.9375" Velocity="55" />
      <note Length="0.0234375" Pitch="42" RiffPosition="10.9453125" Velocity="52" />
      <note Length="0.015625" Pitch="54" RiffPosition="10.96875" Velocity="43" />
      <note Length="0.015625" Pitch="54" RiffPosition="10.984375" Velocity="75" />
    </riff>
    <riff IsDrum="False" MidiInstrument="36" Tempo="137" Length="11">
      <note Length="0.03125" Pitch="57" RiffPosition="0" Velocity="51" />
      <note Length="0.0234375" Pitch="54" RiffPosition="0.03125" Velocity="95" />
      <note Length="0.0078125" Pitch="42" RiffPosition="0.0546875" Velocity="76" />
      <note Length="0.03125" Pitch="42" RiffPosition="0.0625" Velocity="62" />
      <note Length="0.03125" Pitch="54" RiffPosition="0.09375" Velocity="69" />
      <note Length="0.03125" Pitch="59" RiffPosition="0.125" Velocity="40" />
      <note Length="0.0234375" Pitch="54" RiffPosition="0.15625" Velocity="82" />
      <note Length="0.0078125" Pitch="42" RiffPosition="0.1796875" Velocity="61" />
      <note Length="0.03125" Pitch="42" RiffPosition="0.1875" Velocity="46" />
      <note Length="0.03125" Pitch="56" RiffPosition="0.21875" Velocity="85" />
      <note Length="0.03125" Pitch="59" RiffPosition="0.25" Velocity="47" />
      <note Length="0.0234375" Pitch="54" RiffPosition="0.28125" Velocity="66" />
      <note Length="0.0078125" Pitch="42" RiffPosition="0.3046875" Velocity="46" />
      <note Length="0.03125" Pitch="42" RiffPosition="0.3125" Velocity="60" />
      <note Length="0.03125" Pitch="54" RiffPosition="0.34375" Velocity="97" />
      <note Length="0.03125" Pitch="57" RiffPosition="0.375" Velocity="56" />
      <note Length="0.0234375" Pitch="54" RiffPosition="0.40625" Velocity="37" />
      <note Length="0.0078125" Pitch="42" RiffPosition="0.4296875" Velocity="50" />
      <note Length="0.03125" Pitch="42" RiffPosition="0.4375" Velocity="63" />
      <note Length="0.03125" Pitch="54" RiffPosition="0.46875" Velocity="96" />
      <note Length="0.03125" Pitch="57" RiffPosition="0.5" Velocity="51" />
      <note Length="0.0234375" Pitch="42" RiffPosition="0.53125" Velocity="47" />
      <note Length="0.0078125" Pitch="50" RiffPosition="0.5546875" Velocity="38" />
      <note Length="0.03125" Pitch="50" RiffPosition="0.5625" Velocity="50" />
      <note Length="0.03125" Pitch="42" RiffPosition="0.59375" Velocity="79" />
      <note Length="0.03125" Pitch="56" RiffPosition="0.625" Velocity="54" />
      <note Length="0.0234375" Pitch="42" RiffPosition="0.65625" Velocity="68" />
      <note Length="0.0078125" Pitch="49" RiffPosition="0.6796875" Velocity="55" />
      <note Length="0.03125" Pitch="49" RiffPosition="0.6875" Velocity="43" />
      <note Length="0.03125" Pitch="42" RiffPosition="0.71875" Velocity="78" />
      <note Length="0.03125" Pitch="54" RiffPosition="0.75" Velocity="40" />
      <note Length="0.0234375" Pitch="42" RiffPosition="0.78125" Velocity="92" />
      <note Length="0.0078125" Pitch="49" RiffPosition="0.8046875" Velocity="78" />
      <note Length="0.03125" Pitch="49" RiffPosition="0.8125" Velocity="66" />
      <note Length="0.03125" Pitch="42" RiffPosition="0.84375" Velocity="57" />
      <note Length="0.03125" Pitch="56" RiffPosition="0.875" Velocity="58" />
      <note Length="0.0234375" Pitch="42" RiffPosition="0.90625" Velocity="106" />
      <note Length="0.0078125" Pitch="50" RiffPosition="0.9296875" Velocity="89" />
      <note Length="0.03125" Pitch="42" RiffPosition="0.9375" Velocity="54" />
      <note Length="0.03125" Pitch="54" RiffPosition="0.96875" Velocity="51" />
      <note Length="0.03125" Pitch="49" RiffPosition="1" Velocity="61" />
      <note Length="0.0234375" Pitch="46" RiffPosition="1.03125" Velocity="105" />
      <note Length="0.0078125" Pitch="34" RiffPosition="1.0546875" Velocity="63" />
      <note Length="0.03125" Pitch="34" RiffPosition="1.0625" Velocity="49" />
      <note Length="0.03125" Pitch="46" RiffPosition="1.09375" Velocity="59" />
      <note Length="0.03125" Pitch="51" RiffPosition="1.125" Velocity="49" />
      <note Length="0.0234375" Pitch="46" RiffPosition="1.15625" Velocity="69" />
      <note Length="0.0078125" Pitch="34" RiffPosition="1.1796875" Velocity="48" />
      <note Length="0.03125" Pitch="34" RiffPosition="1.1875" Velocity="36" />
      <note Length="0.03125" Pitch="48" RiffPosition="1.21875" Velocity="75" />
      <note Length="0.03125" Pitch="51" RiffPosition="1.25" Velocity="59" />
      <note Length="0.0234375" Pitch="46" RiffPosition="1.28125" Velocity="53" />
      <note Length="0.0078125" Pitch="34" RiffPosition="1.3046875" Velocity="37" />
      <note Length="0.03125" Pitch="34" RiffPosition="1.3125" Velocity="51" />
      <note Length="0.03125" Pitch="46" RiffPosition="1.34375" Velocity="88" />
      <note Length="0.03125" Pitch="49" RiffPosition="1.375" Velocity="69" />
      <note Length="0.0234375" Pitch="46" RiffPosition="1.40625" Velocity="47" />
      <note Length="0.0078125" Pitch="34" RiffPosition="1.4296875" Velocity="40" />
      <note Length="0.03125" Pitch="34" RiffPosition="1.4375" Velocity="53" />
      <note Length="0.03125" Pitch="46" RiffPosition="1.46875" Velocity="109" />
      <note Length="0.03125" Pitch="49" RiffPosition="1.5" Velocity="64" />
      <note Length="0.0234375" Pitch="34" RiffPosition="1.53125" Velocity="56" />
      <note Length="0.0078125" Pitch="42" RiffPosition="1.5546875" Velocity="42" />
      <note Length="0.03125" Pitch="42" RiffPosition="1.5625" Velocity="40" />
      <note Length="0.03125" Pitch="34" RiffPosition="1.59375" Velocity="92" />
      <note Length="0.03125" Pitch="48" RiffPosition="1.625" Velocity="44" />
      <note Length="0.0234375" Pitch="34" RiffPosition="1.65625" Velocity="78" />
      <note Length="0.0078125" Pitch="41" RiffPosition="1.6796875" Velocity="42" />
      <note Length="0.03125" Pitch="41" RiffPosition="1.6875" Velocity="39" />
      <note Length="0.03125" Pitch="34" RiffPosition="1.71875" Velocity="68" />
      <note Length="0.03125" Pitch="46" RiffPosition="1.75" Velocity="50" />
      <note Length="0.0234375" Pitch="34" RiffPosition="1.78125" Velocity="79" />
      <note Length="0.0078125" Pitch="41" RiffPosition="1.8046875" Velocity="65" />
      <note Length="0.03125" Pitch="41" RiffPosition="1.8125" Velocity="53" />
      <note Length="0.03125" Pitch="34" RiffPosition="1.84375" Velocity="48" />
      <note Length="0.03125" Pitch="48" RiffPosition="1.875" Velocity="67" />
      <note Length="0.0234375" Pitch="34" RiffPosition="1.90625" Velocity="93" />
      <note Length="0.0078125" Pitch="42" RiffPosition="1.9296875" Velocity="76" />
      <note Length="0.03125" Pitch="42" RiffPosition="1.9375" Velocity="63" />
      <note Length="0.03125" Pitch="46" RiffPosition="1.96875" Velocity="41" />
      <note Length="0.03125" Pitch="57" RiffPosition="2" Velocity="0" />
      <note Length="0.0234375" Pitch="54" RiffPosition="2.03125" Velocity="0" />
      <note Length="0.0078125" Pitch="42" RiffPosition="2.0546875" Velocity="0" />
      <note Length="0.03125" Pitch="42" RiffPosition="2.0625" Velocity="0" />
      <note Length="0.03125" Pitch="54" RiffPosition="2.09375" Velocity="0" />
      <note Length="0.03125" Pitch="59" RiffPosition="2.125" Velocity="0" />
      <note Length="0.0234375" Pitch="54" RiffPosition="2.15625" Velocity="0" />
      <note Length="0.0078125" Pitch="42" RiffPosition="2.1796875" Velocity="0" />
      <note Length="0.03125" Pitch="42" RiffPosition="2.1875" Velocity="0" />
      <note Length="0.03125" Pitch="56" RiffPosition="2.21875" Velocity="0" />
      <note Length="0.03125" Pitch="59" RiffPosition="2.25" Velocity="0" />
      <note Length="0.0234375" Pitch="54" RiffPosition="2.28125" Velocity="0" />
      <note Length="0.0078125" Pitch="42" RiffPosition="2.3046875" Velocity="0" />
      <note Length="0.03125" Pitch="42" RiffPosition="2.3125" Velocity="0" />
      <note Length="0.03125" Pitch="54" RiffPosition="2.34375" Velocity="0" />
      <note Length="0.03125" Pitch="57" RiffPosition="2.375" Velocity="0" />
      <note Length="0.0234375" Pitch="54" RiffPosition="2.40625" Velocity="0" />
      <note Length="0.0078125" Pitch="42" RiffPosition="2.4296875" Velocity="0" />
      <note Length="0.03125" Pitch="42" RiffPosition="2.4375" Velocity="0" />
      <note Length="0.03125" Pitch="42" RiffPosition="2.46875" Velocity="0" />
      <note Length="0.03125" Pitch="57" RiffPosition="2.5" Velocity="0" />
      <note Length="0.0234375" Pitch="42" RiffPosition="2.53125" Velocity="0" />
      <note Length="0.0078125" Pitch="50" RiffPosition="2.5546875" Velocity="0" />
      <note Length="0.03125" Pitch="50" RiffPosition="2.5625" Velocity="0" />
      <note Length="0.03125" Pitch="42" RiffPosition="2.59375" Velocity="0" />
      <note Length="0.03125" Pitch="56" RiffPosition="2.625" Velocity="0" />
      <note Length="0.0234375" Pitch="42" RiffPosition="2.65625" Velocity="0" />
      <note Length="0.0078125" Pitch="49" RiffPosition="2.6796875" Velocity="0" />
      <note Length="0.03125" Pitch="49" RiffPosition="2.6875" Velocity="0" />
      <note Length="0.03125" Pitch="42" RiffPosition="2.71875" Velocity="0" />
      <note Length="0.03125" Pitch="56" RiffPosition="2.75" Velocity="0" />
      <note Length="0.0234375" Pitch="42" RiffPosition="2.78125" Velocity="0" />
      <note Length="0.0078125" Pitch="50" RiffPosition="2.8046875" Velocity="0" />
      <note Length="0.03125" Pitch="49" RiffPosition="2.8125" Velocity="0" />
      <note Length="0.03125" Pitch="42" RiffPosition="2.84375" Velocity="0" />
      <note Length="0.03125" Pitch="57" RiffPosition="2.875" Velocity="0" />
      <note Length="0.0234375" Pitch="42" RiffPosition="2.90625" Velocity="0" />
      <note Length="0.0078125" Pitch="42" RiffPosition="2.9296875" Velocity="0" />
      <note Length="0.03125" Pitch="50" RiffPosition="2.9375" Velocity="0" />
      <note Length="0.03125" Pitch="54" RiffPosition="2.96875" Velocity="0" />
      <note Length="0.03125" Pitch="49" RiffPosition="3" Velocity="57" />
      <note Length="0.0234375" Pitch="46" RiffPosition="3.03125" Velocity="101" />
      <note Length="0.0078125" Pitch="34" RiffPosition="3.0546875" Velocity="60" />
      <note Length="0.03125" Pitch="34" RiffPosition="3.0625" Velocity="46" />
      <note Length="0.03125" Pitch="46" RiffPosition="3.09375" Velocity="62" />
      <note Length="0.03125" Pitch="51" RiffPosition="3.125" Velocity="46" />
      <note Length="0.0234375" Pitch="46" RiffPosition="3.15625" Velocity="88" />
      <note Length="0.0078125" Pitch="34" RiffPosition="3.1796875" Velocity="45" />
      <note Length="0.03125" Pitch="34" RiffPosition="3.1875" Velocity="40" />
      <note Length="0.03125" Pitch="48" RiffPosition="3.21875" Velocity="79" />
      <note Length="0.03125" Pitch="51" RiffPosition="3.25" Velocity="41" />
      <note Length="0.0234375" Pitch="46" RiffPosition="3.28125" Velocity="50" />
      <note Length="0.0078125" Pitch="34" RiffPosition="3.3046875" Velocity="40" />
      <note Length="0.03125" Pitch="34" RiffPosition="3.3125" Velocity="54" />
      <note Length="0.03125" Pitch="46" RiffPosition="3.34375" Velocity="91" />
      <note Length="0.03125" Pitch="49" RiffPosition="3.375" Velocity="72" />
      <note Length="0.0234375" Pitch="46" RiffPosition="3.40625" Velocity="43" />
      <note Length="0.0078125" Pitch="34" RiffPosition="3.4296875" Velocity="44" />
      <note Length="0.03125" Pitch="34" RiffPosition="3.4375" Velocity="57" />
      <note Length="0.03125" Pitch="46" RiffPosition="3.46875" Velocity="90" />
      <note Length="0.03125" Pitch="49" RiffPosition="3.5" Velocity="67" />
      <note Length="0.0234375" Pitch="34" RiffPosition="3.53125" Velocity="53" />
      <note Length="0.0078125" Pitch="42" RiffPosition="3.5546875" Velocity="38" />
      <note Length="0.03125" Pitch="42" RiffPosition="3.5625" Velocity="44" />
      <note Length="0.03125" Pitch="34" RiffPosition="3.59375" Velocity="96" />
      <note Length="0.03125" Pitch="48" RiffPosition="3.625" Velocity="48" />
      <note Length="0.0234375" Pitch="34" RiffPosition="3.65625" Velocity="74" />
      <note Length="0.0078125" Pitch="41" RiffPosition="3.6796875" Velocity="61" />
      <note Length="0.03125" Pitch="41" RiffPosition="3.6875" Velocity="50" />
      <note Length="0.03125" Pitch="34" RiffPosition="3.71875" Velocity="71" />
      <note Length="0.03125" Pitch="48" RiffPosition="3.75" Velocity="47" />
      <note Length="0.0234375" Pitch="34" RiffPosition="3.78125" Velocity="98" />
      <note Length="0.0078125" Pitch="42" RiffPosition="3.8046875" Velocity="62" />
      <note Length="0.03125" Pitch="41" RiffPosition="3.8125" Velocity="50" />
      <note Length="0.03125" Pitch="34" RiffPosition="3.84375" Velocity="51" />
      <note Length="0.03125" Pitch="49" RiffPosition="3.875" Velocity="64" />
      <note Length="0.0234375" Pitch="34" RiffPosition="3.90625" Velocity="90" />
      <note Length="0.0078125" Pitch="34" RiffPosition="3.9296875" Velocity="73" />
      <note Length="0.03125" Pitch="42" RiffPosition="3.9375" Velocity="60" />
      <note Length="0.03125" Pitch="46" RiffPosition="3.96875" Velocity="45" />
      <note Length="0.03125" Pitch="57" RiffPosition="4" Velocity="67" />
      <note Length="0.0234375" Pitch="54" RiffPosition="4.03125" Velocity="89" />
      <note Length="0.0078125" Pitch="42" RiffPosition="4.0546875" Velocity="69" />
      <note Length="0.03125" Pitch="42" RiffPosition="4.0625" Velocity="55" />
      <note Length="0.03125" Pitch="54" RiffPosition="4.09375" Velocity="53" />
      <note Length="0.03125" Pitch="59" RiffPosition="4.125" Velocity="37" />
      <note Length="0.0234375" Pitch="54" RiffPosition="4.15625" Velocity="75" />
      <note Length="0.0078125" Pitch="42" RiffPosition="4.1796875" Velocity="54" />
      <note Length="0.03125" Pitch="42" RiffPosition="4.1875" Velocity="40" />
      <note Length="0.03125" Pitch="56" RiffPosition="4.21875" Velocity="69" />
      <note Length="0.03125" Pitch="59" RiffPosition="4.25" Velocity="53" />
      <note Length="0.0234375" Pitch="54" RiffPosition="4.28125" Velocity="59" />
      <note Length="0.0078125" Pitch="42" RiffPosition="4.3046875" Velocity="39" />
      <note Length="0.03125" Pitch="42" RiffPosition="4.3125" Velocity="45" />
      <note Length="0.03125" Pitch="54" RiffPosition="4.34375" Velocity="104" />
      <note Length="0.03125" Pitch="57" RiffPosition="4.375" Velocity="63" />
      <note Length="0.0234375" Pitch="54" RiffPosition="4.40625" Velocity="53" />
      <note Length="0.0078125" Pitch="42" RiffPosition="4.4296875" Velocity="36" />
      <note Length="0.03125" Pitch="42" RiffPosition="4.4375" Velocity="70" />
      <note Length="0.03125" Pitch="54" RiffPosition="4.46875" Velocity="103" />
      <note Length="0.03125" Pitch="57" RiffPosition="4.5" Velocity="58" />
      <note Length="0.0234375" Pitch="42" RiffPosition="4.53125" Velocity="62" />
      <note Length="0.0078125" Pitch="50" RiffPosition="4.5546875" Velocity="45" />
      <note Length="0.03125" Pitch="50" RiffPosition="4.5625" Velocity="57" />
      <note Length="0.03125" Pitch="42" RiffPosition="4.59375" Velocity="86" />
      <note Length="0.03125" Pitch="56" RiffPosition="4.625" Velocity="38" />
      <note Length="0.0234375" Pitch="42" RiffPosition="4.65625" Velocity="62" />
      <note Length="0.0078125" Pitch="49" RiffPosition="4.6796875" Velocity="48" />
      <note Length="0.03125" Pitch="49" RiffPosition="4.6875" Velocity="37" />
      <note Length="0.03125" Pitch="42" RiffPosition="4.71875" Velocity="62" />
      <note Length="0.03125" Pitch="54" RiffPosition="4.75" Velocity="36" />
      <note Length="0.0234375" Pitch="42" RiffPosition="4.78125" Velocity="85" />
      <note Length="0.0078125" Pitch="49" RiffPosition="4.8046875" Velocity="71" />
      <note Length="0.03125" Pitch="49" RiffPosition="4.8125" Velocity="59" />
      <note Length="0.03125" Pitch="42" RiffPosition="4.84375" Velocity="42" />
      <note Length="0.03125" Pitch="57" RiffPosition="4.875" Velocity="51" />
      <note Length="0.0234375" Pitch="42" RiffPosition="4.90625" Velocity="99" />
      <note Length="0.0078125" Pitch="42" RiffPosition="4.9296875" Velocity="83" />
      <note Length="0.03125" Pitch="50" RiffPosition="4.9375" Velocity="70" />
      <note Length="0.03125" Pitch="54" RiffPosition="4.96875" Velocity="57" />
      <note Length="0.03125" Pitch="49" RiffPosition="5" Velocity="54" />
      <note Length="0.0234375" Pitch="46" RiffPosition="5.03125" Velocity="98" />
      <note Length="0.0078125" Pitch="34" RiffPosition="5.0546875" Velocity="78" />
      <note Length="0.03125" Pitch="34" RiffPosition="5.0625" Velocity="65" />
      <note Length="0.03125" Pitch="46" RiffPosition="5.09375" Velocity="66" />
      <note Length="0.03125" Pitch="51" RiffPosition="5.125" Velocity="43" />
      <note Length="0.0234375" Pitch="46" RiffPosition="5.15625" Velocity="84" />
      <note Length="0.0078125" Pitch="34" RiffPosition="5.1796875" Velocity="41" />
      <note Length="0.03125" Pitch="34" RiffPosition="5.1875" Velocity="43" />
      <note Length="0.03125" Pitch="48" RiffPosition="5.21875" Velocity="82" />
      <note Length="0.03125" Pitch="51" RiffPosition="5.25" Velocity="44" />
      <note Length="0.0234375" Pitch="46" RiffPosition="5.28125" Velocity="46" />
      <note Length="0.0078125" Pitch="34" RiffPosition="5.3046875" Velocity="44" />
      <note Length="0.03125" Pitch="34" RiffPosition="5.3125" Velocity="57" />
      <note Length="0.03125" Pitch="46" RiffPosition="5.34375" Velocity="94" />
      <note Length="0.03125" Pitch="49" RiffPosition="5.375" Velocity="53" />
      <note Length="0.0234375" Pitch="46" RiffPosition="5.40625" Velocity="40" />
      <note Length="0.0078125" Pitch="34" RiffPosition="5.4296875" Velocity="47" />
      <note Length="0.03125" Pitch="34" RiffPosition="5.4375" Velocity="60" />
      <note Length="0.03125" Pitch="46" RiffPosition="5.46875" Velocity="93" />
      <note Length="0.03125" Pitch="49" RiffPosition="5.5" Velocity="70" />
      <note Length="0.0234375" Pitch="34" RiffPosition="5.53125" Velocity="49" />
      <note Length="0.0078125" Pitch="42" RiffPosition="5.5546875" Velocity="35" />
      <note Length="0.03125" Pitch="42" RiffPosition="5.5625" Velocity="47" />
      <note Length="0.03125" Pitch="34" RiffPosition="5.59375" Velocity="77" />
      <note Length="0.03125" Pitch="48" RiffPosition="5.625" Velocity="51" />
      <note Length="0.0234375" Pitch="34" RiffPosition="5.65625" Velocity="71" />
      <note Length="0.0078125" Pitch="41" RiffPosition="5.6796875" Velocity="58" />
      <note Length="0.03125" Pitch="41" RiffPosition="5.6875" Velocity="46" />
      <note Length="0.03125" Pitch="34" RiffPosition="5.71875" Velocity="75" />
      <note Length="0.03125" Pitch="46" RiffPosition="5.75" Velocity="43" />
      <note Length="0.0234375" Pitch="34" RiffPosition="5.78125" Velocity="95" />
      <note Length="0.0078125" Pitch="41" RiffPosition="5.8046875" Velocity="81" />
      <note Length="0.03125" Pitch="41" RiffPosition="5.8125" Velocity="46" />
      <note Length="0.03125" Pitch="34" RiffPosition="5.84375" Velocity="55" />
      <note Length="0.03125" Pitch="49" RiffPosition="5.875" Velocity="61" />
      <note Length="0.0234375" Pitch="34" RiffPosition="5.90625" Velocity="109" />
      <note Length="0.0078125" Pitch="34" RiffPosition="5.9296875" Velocity="70" />
      <note Length="0.03125" Pitch="42" RiffPosition="5.9375" Velocity="57" />
      <note Length="0.03125" Pitch="46" RiffPosition="5.96875" Velocity="48" />
      <note Length="0.03125" Pitch="57" RiffPosition="6" Velocity="0" />
      <note Length="0.0234375" Pitch="54" RiffPosition="6.03125" Velocity="0" />
      <note Length="0.0078125" Pitch="42" RiffPosition="6.0546875" Velocity="0" />
      <note Length="0.03125" Pitch="42" RiffPosition="6.0625" Velocity="0" />
      <note Length="0.03125" Pitch="54" RiffPosition="6.09375" Velocity="0" />
      <note Length="0.03125" Pitch="59" RiffPosition="6.125" Velocity="0" />
      <note Length="0.0234375" Pitch="54" RiffPosition="6.15625" Velocity="0" />
      <note Length="0.0078125" Pitch="42" RiffPosition="6.1796875" Velocity="0" />
      <note Length="0.03125" Pitch="42" RiffPosition="6.1875" Velocity="0" />
      <note Length="0.03125" Pitch="56" RiffPosition="6.21875" Velocity="0" />
      <note Length="0.03125" Pitch="59" RiffPosition="6.25" Velocity="0" />
      <note Length="0.0234375" Pitch="54" RiffPosition="6.28125" Velocity="0" />
      <note Length="0.0078125" Pitch="42" RiffPosition="6.3046875" Velocity="0" />
      <note Length="0.03125" Pitch="42" RiffPosition="6.3125" Velocity="0" />
      <note Length="0.03125" Pitch="54" RiffPosition="6.34375" Velocity="0" />
      <note Length="0.03125" Pitch="57" RiffPosition="6.375" Velocity="0" />
      <note Length="0.0234375" Pitch="54" RiffPosition="6.40625" Velocity="0" />
      <note Length="0.0078125" Pitch="42" RiffPosition="6.4296875" Velocity="0" />
      <note Length="0.03125" Pitch="42" RiffPosition="6.4375" Velocity="0" />
      <note Length="0.03125" Pitch="54" RiffPosition="6.46875" Velocity="0" />
      <note Length="0.03125" Pitch="57" RiffPosition="6.5" Velocity="0" />
      <note Length="0.0234375" Pitch="42" RiffPosition="6.53125" Velocity="0" />
      <note Length="0.0078125" Pitch="50" RiffPosition="6.5546875" Velocity="0" />
      <note Length="0.03125" Pitch="50" RiffPosition="6.5625" Velocity="0" />
      <note Length="0.03125" Pitch="42" RiffPosition="6.59375" Velocity="0" />
      <note Length="0.03125" Pitch="56" RiffPosition="6.625" Velocity="0" />
      <note Length="0.0234375" Pitch="42" RiffPosition="6.65625" Velocity="0" />
      <note Length="0.0078125" Pitch="49" RiffPosition="6.6796875" Velocity="0" />
      <note Length="0.03125" Pitch="49" RiffPosition="6.6875" Velocity="0" />
      <note Length="0.03125" Pitch="42" RiffPosition="6.71875" Velocity="0" />
      <note Length="0.03125" Pitch="54" RiffPosition="6.75" Velocity="0" />
      <note Length="0.0234375" Pitch="42" RiffPosition="6.78125" Velocity="0" />
      <note Length="0.0078125" Pitch="49" RiffPosition="6.8046875" Velocity="0" />
      <note Length="0.03125" Pitch="49" RiffPosition="6.8125" Velocity="0" />
      <note Length="0.03125" Pitch="42" RiffPosition="6.84375" Velocity="0" />
      <note Length="0.03125" Pitch="56" RiffPosition="6.875" Velocity="0" />
      <note Length="0.0234375" Pitch="42" RiffPosition="6.90625" Velocity="0" />
      <note Length="0.0078125" Pitch="50" RiffPosition="6.9296875" Velocity="0" />
      <note Length="0.03125" Pitch="42" RiffPosition="6.9375" Velocity="0" />
      <note Length="0.03125" Pitch="54" RiffPosition="6.96875" Velocity="0" />
      <note Length="0.03125" Pitch="49" RiffPosition="7" Velocity="0" />
      <note Length="0.0234375" Pitch="46" RiffPosition="7.03125" Velocity="0" />
      <note Length="0.0078125" Pitch="34" RiffPosition="7.0546875" Velocity="0" />
      <note Length="0.03125" Pitch="34" RiffPosition="7.0625" Velocity="0" />
      <note Length="0.03125" Pitch="46" RiffPosition="7.09375" Velocity="0" />
      <note Length="0.03125" Pitch="51" RiffPosition="7.125" Velocity="0" />
      <note Length="0.0234375" Pitch="46" RiffPosition="7.15625" Velocity="0" />
      <note Length="0.0078125" Pitch="34" RiffPosition="7.1796875" Velocity="0" />
      <note Length="0.03125" Pitch="34" RiffPosition="7.1875" Velocity="0" />
      <note Length="0.03125" Pitch="48" RiffPosition="7.21875" Velocity="0" />
      <note Length="0.03125" Pitch="51" RiffPosition="7.25" Velocity="0" />
      <note Length="0.0234375" Pitch="46" RiffPosition="7.28125" Velocity="0" />
      <note Length="0.0078125" Pitch="34" RiffPosition="7.3046875" Velocity="0" />
      <note Length="0.03125" Pitch="34" RiffPosition="7.3125" Velocity="0" />
      <note Length="0.03125" Pitch="46" RiffPosition="7.34375" Velocity="0" />
      <note Length="0.03125" Pitch="49" RiffPosition="7.375" Velocity="0" />
      <note Length="0.0234375" Pitch="46" RiffPosition="7.40625" Velocity="0" />
      <note Length="0.0078125" Pitch="34" RiffPosition="7.4296875" Velocity="0" />
      <note Length="0.03125" Pitch="34" RiffPosition="7.4375" Velocity="0" />
      <note Length="0.03125" Pitch="46" RiffPosition="7.46875" Velocity="0" />
      <note Length="0.03125" Pitch="49" RiffPosition="7.5" Velocity="0" />
      <note Length="0.0234375" Pitch="34" RiffPosition="7.53125" Velocity="0" />
      <note Length="0.0078125" Pitch="42" RiffPosition="7.5546875" Velocity="0" />
      <note Length="0.03125" Pitch="42" RiffPosition="7.5625" Velocity="0" />
      <note Length="0.03125" Pitch="34" RiffPosition="7.59375" Velocity="0" />
      <note Length="0.03125" Pitch="48" RiffPosition="7.625" Velocity="0" />
      <note Length="0.0234375" Pitch="34" RiffPosition="7.65625" Velocity="0" />
      <note Length="0.0078125" Pitch="41" RiffPosition="7.6796875" Velocity="0" />
      <note Length="0.03125" Pitch="41" RiffPosition="7.6875" Velocity="0" />
      <note Length="0.03125" Pitch="34" RiffPosition="7.71875" Velocity="0" />
      <note Length="0.03125" Pitch="46" RiffPosition="7.75" Velocity="0" />
      <note Length="0.0234375" Pitch="34" RiffPosition="7.78125" Velocity="0" />
      <note Length="0.0078125" Pitch="41" RiffPosition="7.8046875" Velocity="0" />
      <note Length="0.03125" Pitch="41" RiffPosition="7.8125" Velocity="0" />
      <note Length="0.03125" Pitch="34" RiffPosition="7.84375" Velocity="0" />
      <note Length="0.03125" Pitch="48" RiffPosition="7.875" Velocity="0" />
      <note Length="0.0234375" Pitch="34" RiffPosition="7.90625" Velocity="0" />
      <note Length="0.0078125" Pitch="42" RiffPosition="7.9296875" Velocity="0" />
      <note Length="0.03125" Pitch="42" RiffPosition="7.9375" Velocity="0" />
      <note Length="0.03125" Pitch="46" RiffPosition="7.96875" Velocity="0" />
      <note Length="0.03125" Pitch="57" RiffPosition="8" Velocity="60" />
      <note Length="0.0234375" Pitch="54" RiffPosition="8.03125" Velocity="104" />
      <note Length="0.0078125" Pitch="42" RiffPosition="8.0546875" Velocity="62" />
      <note Length="0.03125" Pitch="42" RiffPosition="8.0625" Velocity="48" />
      <note Length="0.03125" Pitch="54" RiffPosition="8.09375" Velocity="60" />
      <note Length="0.03125" Pitch="59" RiffPosition="8.125" Velocity="49" />
      <note Length="0.0234375" Pitch="54" RiffPosition="8.15625" Velocity="68" />
      <note Length="0.0078125" Pitch="42" RiffPosition="8.1796875" Velocity="47" />
      <note Length="0.03125" Pitch="42" RiffPosition="8.1875" Velocity="37" />
      <note Length="0.03125" Pitch="56" RiffPosition="8.21875" Velocity="76" />
      <note Length="0.03125" Pitch="59" RiffPosition="8.25" Velocity="38" />
      <note Length="0.0234375" Pitch="54" RiffPosition="8.28125" Velocity="53" />
      <note Length="0.0078125" Pitch="42" RiffPosition="8.3046875" Velocity="37" />
      <note Length="0.03125" Pitch="42" RiffPosition="8.3125" Velocity="51" />
      <note Length="0.03125" Pitch="54" RiffPosition="8.34375" Velocity="88" />
      <note Length="0.03125" Pitch="57" RiffPosition="8.375" Velocity="70" />
      <note Length="0.0234375" Pitch="54" RiffPosition="8.40625" Velocity="46" />
      <note Length="0.0078125" Pitch="42" RiffPosition="8.4296875" Velocity="41" />
      <note Length="0.03125" Pitch="42" RiffPosition="8.4375" Velocity="54" />
      <note Length="0.03125" Pitch="54" RiffPosition="8.46875" Velocity="109" />
      <note Length="0.03125" Pitch="57" RiffPosition="8.5" Velocity="64" />
      <note Length="0.0234375" Pitch="42" RiffPosition="8.53125" Velocity="55" />
      <note Length="0.0078125" Pitch="50" RiffPosition="8.5546875" Velocity="41" />
      <note Length="0.03125" Pitch="50" RiffPosition="8.5625" Velocity="41" />
      <note Length="0.03125" Pitch="42" RiffPosition="8.59375" Velocity="93" />
      <note Length="0.03125" Pitch="56" RiffPosition="8.625" Velocity="45" />
      <note Length="0.0234375" Pitch="42" RiffPosition="8.65625" Velocity="77" />
      <note Length="0.0078125" Pitch="49" RiffPosition="8.6796875" Velocity="42" />
      <note Length="0.03125" Pitch="49" RiffPosition="8.6875" Velocity="40" />
      <note Length="0.03125" Pitch="42" RiffPosition="8.71875" Velocity="69" />
      <note Length="0.03125" Pitch="56" RiffPosition="8.75" Velocity="49" />
      <note Length="0.0234375" Pitch="42" RiffPosition="8.78125" Velocity="101" />
      <note Length="0.0078125" Pitch="49" RiffPosition="8.8046875" Velocity="64" />
      <note Length="0.03125" Pitch="49" RiffPosition="8.8125" Velocity="52" />
      <note Length="0.03125" Pitch="42" RiffPosition="8.84375" Velocity="49" />
      <note Length="0.03125" Pitch="57" RiffPosition="8.875" Velocity="67" />
      <note Length="0.0234375" Pitch="42" RiffPosition="8.90625" Velocity="93" />
      <note Length="0.0078125" Pitch="50" RiffPosition="8.9296875" Velocity="76" />
      <note Length="0.03125" Pitch="50" RiffPosition="8.9375" Velocity="63" />
      <note Length="0.03125" Pitch="54" RiffPosition="8.96875" Velocity="42" />
      <note Length="0.03125" Pitch="49" RiffPosition="9" Velocity="47" />
      <note Length="0.0234375" Pitch="46" RiffPosition="9.03125" Velocity="91" />
      <note Length="0.0078125" Pitch="34" RiffPosition="9.0546875" Velocity="72" />
      <note Length="0.03125" Pitch="34" RiffPosition="9.0625" Velocity="58" />
      <note Length="0.03125" Pitch="46" RiffPosition="9.09375" Velocity="50" />
      <note Length="0.03125" Pitch="51" RiffPosition="9.125" Velocity="36" />
      <note Length="0.0234375" Pitch="46" RiffPosition="9.15625" Velocity="78" />
      <note Length="0.0078125" Pitch="34" RiffPosition="9.1796875" Velocity="57" />
      <note Length="0.03125" Pitch="34" RiffPosition="9.1875" Velocity="42" />
      <note Length="0.03125" Pitch="48" RiffPosition="9.21875" Velocity="89" />
      <note Length="0.03125" Pitch="51" RiffPosition="9.25" Velocity="51" />
      <note Length="0.0234375" Pitch="46" RiffPosition="9.28125" Velocity="62" />
      <note Length="0.0078125" Pitch="34" RiffPosition="9.3046875" Velocity="42" />
      <note Length="0.03125" Pitch="34" RiffPosition="9.3125" Velocity="64" />
      <note Length="0.03125" Pitch="46" RiffPosition="9.34375" Velocity="101" />
      <note Length="0.03125" Pitch="49" RiffPosition="9.375" Velocity="60" />
      <note Length="0.0234375" Pitch="46" RiffPosition="9.40625" Velocity="56" />
      <note Length="0.0078125" Pitch="34" RiffPosition="9.4296875" Velocity="54" />
      <note Length="0.03125" Pitch="34" RiffPosition="9.4375" Velocity="67" />
      <note Length="0.03125" Pitch="34" RiffPosition="9.46875" Velocity="100" />
      <note Length="0.03125" Pitch="49" RiffPosition="9.5" Velocity="55" />
      <note Length="0.0234375" Pitch="34" RiffPosition="9.53125" Velocity="43" />
      <note Length="0.0078125" Pitch="42" RiffPosition="9.5546875" Velocity="42" />
      <note Length="0.03125" Pitch="42" RiffPosition="9.5625" Velocity="54" />
      <note Length="0.03125" Pitch="34" RiffPosition="9.59375" Velocity="83" />
      <note Length="0.03125" Pitch="48" RiffPosition="9.625" Velocity="36" />
      <note Length="0.0234375" Pitch="34" RiffPosition="9.65625" Velocity="64" />
      <note Length="0.0078125" Pitch="41" RiffPosition="9.6796875" Velocity="51" />
      <note Length="0.03125" Pitch="41" RiffPosition="9.6875" Velocity="39" />
      <note Length="0.03125" Pitch="34" RiffPosition="9.71875" Velocity="59" />
      <note Length="0.03125" Pitch="48" RiffPosition="9.75" Velocity="37" />
      <note Length="0.0234375" Pitch="34" RiffPosition="9.78125" Velocity="88" />
      <note Length="0.0078125" Pitch="42" RiffPosition="9.8046875" Velocity="74" />
      <note Length="0.03125" Pitch="41" RiffPosition="9.8125" Velocity="62" />
      <note Length="0.03125" Pitch="34" RiffPosition="9.84375" Velocity="61" />
      <note Length="0.03125" Pitch="49" RiffPosition="9.875" Velocity="54" />
      <note Length="0.0234375" Pitch="34" RiffPosition="9.90625" Velocity="102" />
      <note Length="0.0078125" Pitch="34" RiffPosition="9.9296875" Velocity="85" />
      <note Length="0.03125" Pitch="42" RiffPosition="9.9375" Velocity="72" />
      <note Length="0.03125" Pitch="46" RiffPosition="9.96875" Velocity="55" />
      <note Length="0.03125" Pitch="57" RiffPosition="10" Velocity="57" />
      <note Length="0.0234375" Pitch="54" RiffPosition="10.03125" Velocity="101" />
      <note Length="0.0078125" Pitch="42" RiffPosition="10.0546875" Velocity="81" />
      <note Length="0.03125" Pitch="42" RiffPosition="10.0625" Velocity="45" />
      <note Length="0.03125" Pitch="54" RiffPosition="10.09375" Velocity="63" />
      <note Length="0.03125" Pitch="59" RiffPosition="10.125" Velocity="45" />
      <note Length="0.0234375" Pitch="54" RiffPosition="10.15625" Velocity="87" />
      <note Length="0.0078125" Pitch="42" RiffPosition="10.1796875" Velocity="44" />
      <note Length="0.03125" Pitch="42" RiffPosition="10.1875" Velocity="40" />
      <note Length="0.03125" Pitch="56" RiffPosition="10.21875" Velocity="79" />
      <note Length="0.03125" Pitch="59" RiffPosition="10.25" Velocity="41" />
      <note Length="0.0234375" Pitch="54" RiffPosition="10.28125" Velocity="49" />
      <note Length="0.0078125" Pitch="42" RiffPosition="10.3046875" Velocity="41" />
      <note Length="0.03125" Pitch="42" RiffPosition="10.3125" Velocity="55" />
      <note Length="0.03125" Pitch="54" RiffPosition="10.34375" Velocity="92" />
      <note Length="0.03125" Pitch="57" RiffPosition="10.375" Velocity="73" />
      <note Length="0.0234375" Pitch="54" RiffPosition="10.40625" Velocity="43" />
      <note Length="0.0078125" Pitch="42" RiffPosition="10.4296875" Velocity="44" />
      <note Length="0.03125" Pitch="42" RiffPosition="10.4375" Velocity="57" />
      <note Length="0.03125" Pitch="54" RiffPosition="10.46875" Velocity="90" />
      <note Length="0.03125" Pitch="57" RiffPosition="10.5" Velocity="68" />
      <note Length="0.0234375" Pitch="42" RiffPosition="10.53125" Velocity="52" />
      <note Length="0.0078125" Pitch="50" RiffPosition="10.5546875" Velocity="38" />
      <note Length="0.03125" Pitch="50" RiffPosition="10.5625" Velocity="44" />
      <note Length="0.03125" Pitch="42" RiffPosition="10.59375" Velocity="96" />
      <note Length="0.03125" Pitch="56" RiffPosition="10.625" Velocity="48" />
      <note Length="0.0234375" Pitch="42" RiffPosition="10.65625" Velocity="74" />
      <note Length="0.0078125" Pitch="49" RiffPosition="10.6796875" Velocity="61" />
      <note Length="0.03125" Pitch="49" RiffPosition="10.6875" Velocity="49" />
      <note Length="0.03125" Pitch="42" RiffPosition="10.71875" Velocity="72" />
      <note Length="0.03125" Pitch="56" RiffPosition="10.75" Velocity="46" />
      <note Length="0.0234375" Pitch="42" RiffPosition="10.78125" Velocity="97" />
      <note Length="0.0078125" Pitch="50" RiffPosition="10.8046875" Velocity="61" />
      <note Length="0.03125" Pitch="49" RiffPosition="10.8125" Velocity="49" />
      <note Length="0.03125" Pitch="42" RiffPosition="10.84375" Velocity="52" />
      <note Length="0.03125" Pitch="57" RiffPosition="10.875" Velocity="63" />
      <note Length="0.0234375" Pitch="42" RiffPosition="10.90625" Velocity="89" />
      <note Length="0.0078125" Pitch="42" RiffPosition="10.9296875" Velocity="73" />
      <note Length="0.03125" Pitch="50" RiffPosition="10.9375" Velocity="60" />
      <note Length="0.03125" Pitch="54" RiffPosition="10.96875" Velocity="45" />
    </riff>
    <riff IsDrum="True" MidiInstrument="0" Tempo="95" Length="11">
      <note Length="0.0625" Pitch="39" RiffPosition="0" Velocity="0" />
      <note Length="0.0625" Pitch="39" RiffPosition="0.0625" Velocity="105" />
      <note Length="0.0625" Pitch="39" RiffPosition="0.125" Velocity="0" />
      <note Length="0.0625" Pitch="39" RiffPosition="0.1875" Velocity="105" />
      <note Length="0.0625" Pitch="39" RiffPosition="0.25" Velocity="0" />
      <note Length="0.0625" Pitch="39" RiffPosition="0.3125" Velocity="105" />
      <note Length="0.0625" Pitch="39" RiffPosition="0.375" Velocity="0" />
      <note Length="0.0625" Pitch="39" RiffPosition="0.4375" Velocity="105" />
      <note Length="0.0625" Pitch="39" RiffPosition="0.5" Velocity="0" />
      <note Length="0.0625" Pitch="39" RiffPosition="0.5625" Velocity="105" />
      <note Length="0.0625" Pitch="39" RiffPosition="0.625" Velocity="0" />
      <note Length="0.0625" Pitch="39" RiffPosition="0.6875" Velocity="105" />
      <note Length="0.0625" Pitch="39" RiffPosition="0.75" Velocity="0" />
      <note Length="0.0625" Pitch="39" RiffPosition="0.8125" Velocity="105" />
      <note Length="0.0625" Pitch="39" RiffPosition="0.875" Velocity="0" />
      <note Length="0.0625" Pitch="39" RiffPosition="0.9375" Velocity="105" />
      <note Length="0.0625" Pitch="39" RiffPosition="1" Velocity="0" />
      <note Length="0.0625" Pitch="39" RiffPosition="1.0625" Velocity="105" />
      <note Length="0.0625" Pitch="39" RiffPosition="1.125" Velocity="0" />
      <note Length="0.0625" Pitch="39" RiffPosition="1.1875" Velocity="105" />
      <note Length="0.0625" Pitch="39" RiffPosition="1.25" Velocity="0" />
      <note Length="0.0625" Pitch="39" RiffPosition="1.3125" Velocity="105" />
      <note Length="0.0625" Pitch="39" RiffPosition="1.375" Velocity="0" />
      <note Length="0.0625" Pitch="39" RiffPosition="1.4375" Velocity="105" />
      <note Length="0.0625" Pitch="39" RiffPosition="1.5" Velocity="0" />
      <note Length="0.0625" Pitch="39" RiffPosition="1.5625" Velocity="105" />
      <note Length="0.0625" Pitch="39" RiffPosition="1.625" Velocity="0" />
      <note Length="0.0625" Pitch="39" RiffPosition="1.6875" Velocity="105" />
      <note Length="0.0625" Pitch="39" RiffPosition="1.75" Velocity="0" />
      <note Length="0.0625" Pitch="39" RiffPosition="1.8125" Velocity="105" />
      <note Length="0.0625" Pitch="39" RiffPosition="1.875" Velocity="0" />
      <note Length="0.0625" Pitch="39" RiffPosition="1.9375" Velocity="105" />
      <note Length="0.0625" Pitch="39" RiffPosition="2" Velocity="0" />
      <note Length="0.0625" Pitch="39" RiffPosition="2.0625" Velocity="105" />
      <note Length="0.0625" Pitch="39" RiffPosition="2.125" Velocity="0" />
      <note Length="0.0625" Pitch="39" RiffPosition="2.1875" Velocity="105" />
      <note Length="0.0625" Pitch="39" RiffPosition="2.25" Velocity="0" />
      <note Length="0.0625" Pitch="39" RiffPosition="2.3125" Velocity="105" />
      <note Length="0.0625" Pitch="39" RiffPosition="2.375" Velocity="0" />
      <note Length="0.0625" Pitch="39" RiffPosition="2.4375" Velocity="105" />
      <note Length="0.0625" Pitch="39" RiffPosition="2.5" Velocity="0" />
      <note Length="0.0625" Pitch="39" RiffPosition="2.5625" Velocity="105" />
      <note Length="0.0625" Pitch="39" RiffPosition="2.625" Velocity="0" />
      <note Length="0.0625" Pitch="39" RiffPosition="2.6875" Velocity="105" />
      <note Length="0.0625" Pitch="39" RiffPosition="2.75" Velocity="0" />
      <note Length="0.0625" Pitch="39" RiffPosition="2.8125" Velocity="105" />
      <note Length="0.0625" Pitch="39" RiffPosition="2.875" Velocity="0" />
      <note Length="0.0625" Pitch="39" RiffPosition="2.9375" Velocity="105" />
      <note Length="0.0625" Pitch="39" RiffPosition="3" Velocity="0" />
      <note Length="0.0625" Pitch="39" RiffPosition="3.0625" Velocity="0" />
      <note Length="0.0625" Pitch="39" RiffPosition="3.125" Velocity="0" />
      <note Length="0.0625" Pitch="39" RiffPosition="3.1875" Velocity="0" />
      <note Length="0.0625" Pitch="39" RiffPosition="3.25" Velocity="0" />
      <note Length="0.0625" Pitch="39" RiffPosition="3.3125" Velocity="0" />
      <note Length="0.0625" Pitch="39" RiffPosition="3.375" Velocity="0" />
      <note Length="0.0625" Pitch="39" RiffPosition="3.4375" Velocity="0" />
      <note Length="0.0625" Pitch="39" RiffPosition="3.5" Velocity="0" />
      <note Length="0.0625" Pitch="39" RiffPosition="3.5625" Velocity="0" />
      <note Length="0.0625" Pitch="39" RiffPosition="3.625" Velocity="0" />
      <note Length="0.0625" Pitch="39" RiffPosition="3.6875" Velocity="0" />
      <note Length="0.0625" Pitch="39" RiffPosition="3.75" Velocity="0" />
      <note Length="0.0625" Pitch="39" RiffPosition="3.8125" Velocity="0" />
      <note Length="0.0625" Pitch="39" RiffPosition="3.875" Velocity="0" />
      <note Length="0.0625" Pitch="39" RiffPosition="3.9375" Velocity="0" />
      <note Length="0.0625" Pitch="39" RiffPosition="4" Velocity="0" />
      <note Length="0.0625" Pitch="39" RiffPosition="4.0625" Velocity="0" />
      <note Length="0.0625" Pitch="39" RiffPosition="4.125" Velocity="0" />
      <note Length="0.0625" Pitch="39" RiffPosition="4.1875" Velocity="0" />
      <note Length="0.0625" Pitch="39" RiffPosition="4.25" Velocity="0" />
      <note Length="0.0625" Pitch="39" RiffPosition="4.3125" Velocity="0" />
      <note Length="0.0625" Pitch="39" RiffPosition="4.375" Velocity="0" />
      <note Length="0.0625" Pitch="39" RiffPosition="4.4375" Velocity="0" />
      <note Length="0.0625" Pitch="39" RiffPosition="4.5" Velocity="0" />
      <note Length="0.0625" Pitch="39" RiffPosition="4.5625" Velocity="0" />
      <note Length="0.0625" Pitch="39" RiffPosition="4.625" Velocity="0" />
      <note Length="0.0625" Pitch="39" RiffPosition="4.6875" Velocity="0" />
      <note Length="0.0625" Pitch="39" RiffPosition="4.75" Velocity="0" />
      <note Length="0.0625" Pitch="39" RiffPosition="4.8125" Velocity="0" />
      <note Length="0.0625" Pitch="39" RiffPosition="4.875" Velocity="0" />
      <note Length="0.0625" Pitch="39" RiffPosition="4.9375" Velocity="0" />
      <note Length="0.0625" Pitch="39" RiffPosition="5" Velocity="0" />
      <note Length="0.0625" Pitch="39" RiffPosition="5.0625" Velocity="0" />
      <note Length="0.0625" Pitch="39" RiffPosition="5.125" Velocity="0" />
      <note Length="0.0625" Pitch="39" RiffPosition="5.1875" Velocity="0" />
      <note Length="0.0625" Pitch="39" RiffPosition="5.25" Velocity="0" />
      <note Length="0.0625" Pitch="39" RiffPosition="5.3125" Velocity="0" />
      <note Length="0.0625" Pitch="39" RiffPosition="5.375" Velocity="0" />
      <note Length="0.0625" Pitch="39" RiffPosition="5.4375" Velocity="0" />
      <note Length="0.0625" Pitch="39" RiffPosition="5.5" Velocity="0" />
      <note Length="0.0625" Pitch="39" RiffPosition="5.5625" Velocity="0" />
      <note Length="0.0625" Pitch="39" RiffPosition="5.625" Velocity="0" />
      <note Length="0.0625" Pitch="39" RiffPosition="5.6875" Velocity="0" />
      <note Length="0.0625" Pitch="39" RiffPosition="5.75" Velocity="0" />
      <note Length="0.0625" Pitch="39" RiffPosition="5.8125" Velocity="0" />
      <note Length="0.0625" Pitch="39" RiffPosition="5.875" Velocity="0" />
      <note Length="0.0625" Pitch="39" RiffPosition="5.9375" Velocity="0" />
      <note Length="0.0625" Pitch="39" RiffPosition="6" Velocity="0" />
      <note Length="0.0625" Pitch="39" RiffPosition="6.0625" Velocity="105" />
      <note Length="0.0625" Pitch="39" RiffPosition="6.125" Velocity="0" />
      <note Length="0.0625" Pitch="39" RiffPosition="6.1875" Velocity="105" />
      <note Length="0.0625" Pitch="39" RiffPosition="6.25" Velocity="0" />
      <note Length="0.0625" Pitch="39" RiffPosition="6.3125" Velocity="105" />
      <note Length="0.0625" Pitch="39" RiffPosition="6.375" Velocity="0" />
      <note Length="0.0625" Pitch="39" RiffPosition="6.4375" Velocity="105" />
      <note Length="0.0625" Pitch="39" RiffPosition="6.5" Velocity="0" />
      <note Length="0.0625" Pitch="39" RiffPosition="6.5625" Velocity="105" />
      <note Length="0.0625" Pitch="39" RiffPosition="6.625" Velocity="0" />
      <note Length="0.0625" Pitch="39" RiffPosition="6.6875" Velocity="105" />
      <note Length="0.0625" Pitch="39" RiffPosition="6.75" Velocity="0" />
      <note Length="0.0625" Pitch="39" RiffPosition="6.8125" Velocity="105" />
      <note Length="0.0625" Pitch="39" RiffPosition="6.875" Velocity="0" />
      <note Length="0.0625" Pitch="39" RiffPosition="6.9375" Velocity="105" />
      <note Length="0.0625" Pitch="39" RiffPosition="7" Velocity="0" />
      <note Length="0.0625" Pitch="39" RiffPosition="7.0625" Velocity="105" />
      <note Length="0.0625" Pitch="39" RiffPosition="7.125" Velocity="0" />
      <note Length="0.0625" Pitch="39" RiffPosition="7.1875" Velocity="105" />
      <note Length="0.0625" Pitch="39" RiffPosition="7.25" Velocity="0" />
      <note Length="0.0625" Pitch="39" RiffPosition="7.3125" Velocity="105" />
      <note Length="0.0625" Pitch="39" RiffPosition="7.375" Velocity="0" />
      <note Length="0.0625" Pitch="39" RiffPosition="7.4375" Velocity="105" />
      <note Length="0.0625" Pitch="39" RiffPosition="7.5" Velocity="0" />
      <note Length="0.0625" Pitch="39" RiffPosition="7.5625" Velocity="105" />
      <note Length="0.0625" Pitch="39" RiffPosition="7.625" Velocity="0" />
      <note Length="0.0625" Pitch="39" RiffPosition="7.6875" Velocity="105" />
      <note Length="0.0625" Pitch="39" RiffPosition="7.75" Velocity="0" />
      <note Length="0.0625" Pitch="39" RiffPosition="7.8125" Velocity="105" />
      <note Length="0.0625" Pitch="39" RiffPosition="7.875" Velocity="0" />
      <note Length="0.0625" Pitch="39" RiffPosition="7.9375" Velocity="105" />
      <note Length="0.0625" Pitch="39" RiffPosition="8" Velocity="0" />
      <note Length="0.0625" Pitch="39" RiffPosition="8.0625" Velocity="105" />
      <note Length="0.0625" Pitch="39" RiffPosition="8.125" Velocity="0" />
      <note Length="0.0625" Pitch="39" RiffPosition="8.1875" Velocity="105" />
      <note Length="0.0625" Pitch="39" RiffPosition="8.25" Velocity="0" />
      <note Length="0.0625" Pitch="39" RiffPosition="8.3125" Velocity="105" />
      <note Length="0.0625" Pitch="39" RiffPosition="8.375" Velocity="0" />
      <note Length="0.0625" Pitch="39" RiffPosition="8.4375" Velocity="105" />
      <note Length="0.0625" Pitch="39" RiffPosition="8.5" Velocity="0" />
      <note Length="0.0625" Pitch="39" RiffPosition="8.5625" Velocity="105" />
      <note Length="0.0625" Pitch="39" RiffPosition="8.625" Velocity="0" />
      <note Length="0.0625" Pitch="39" RiffPosition="8.6875" Velocity="105" />
      <note Length="0.0625" Pitch="39" RiffPosition="8.75" Velocity="0" />
      <note Length="0.0625" Pitch="39" RiffPosition="8.8125" Velocity="105" />
      <note Length="0.0625" Pitch="39" RiffPosition="8.875" Velocity="0" />
      <note Length="0.0625" Pitch="39" RiffPosition="8.9375" Velocity="105" />
      <note Length="0.0625" Pitch="39" RiffPosition="9" Velocity="0" />
      <note Length="0.0625" Pitch="39" RiffPosition="9.0625" Velocity="105" />
      <note Length="0.0625" Pitch="39" RiffPosition="9.125" Velocity="0" />
      <note Length="0.0625" Pitch="39" RiffPosition="9.1875" Velocity="105" />
      <note Length="0.0625" Pitch="39" RiffPosition="9.25" Velocity="0" />
      <note Length="0.0625" Pitch="39" RiffPosition="9.3125" Velocity="105" />
      <note Length="0.0625" Pitch="39" RiffPosition="9.375" Velocity="0" />
      <note Length="0.0625" Pitch="39" RiffPosition="9.4375" Velocity="105" />
      <note Length="0.0625" Pitch="39" RiffPosition="9.5" Velocity="0" />
      <note Length="0.0625" Pitch="39" RiffPosition="9.5625" Velocity="105" />
      <note Length="0.0625" Pitch="39" RiffPosition="9.625" Velocity="0" />
      <note Length="0.0625" Pitch="39" RiffPosition="9.6875" Velocity="105" />
      <note Length="0.0625" Pitch="39" RiffPosition="9.75" Velocity="0" />
      <note Length="0.0625" Pitch="39" RiffPosition="9.8125" Velocity="105" />
      <note Length="0.0625" Pitch="39" RiffPosition="9.875" Velocity="0" />
      <note Length="0.0625" Pitch="39" RiffPosition="9.9375" Velocity="105" />
      <note Length="0.0625" Pitch="39" RiffPosition="10" Velocity="0" />
      <note Length="0.0625" Pitch="39" RiffPosition="10.0625" Velocity="0" />
      <note Length="0.0625" Pitch="39" RiffPosition="10.125" Velocity="0" />
      <note Length="0.0625" Pitch="39" RiffPosition="10.1875" Velocity="0" />
      <note Length="0.0625" Pitch="39" RiffPosition="10.25" Velocity="0" />
      <note Length="0.0625" Pitch="39" RiffPosition="10.3125" Velocity="0" />
      <note Length="0.0625" Pitch="39" RiffPosition="10.375" Velocity="0" />
      <note Length="0.0625" Pitch="39" RiffPosition="10.4375" Velocity="0" />
      <note Length="0.0625" Pitch="39" RiffPosition="10.5" Velocity="0" />
      <note Length="0.0625" Pitch="39" RiffPosition="10.5625" Velocity="0" />
      <note Length="0.0625" Pitch="39" RiffPosition="10.625" Velocity="0" />
      <note Length="0.0625" Pitch="39" RiffPosition="10.6875" Velocity="0" />
      <note Length="0.0625" Pitch="39" RiffPosition="10.75" Velocity="0" />
      <note Length="0.0625" Pitch="39" RiffPosition="10.8125" Velocity="0" />
      <note Length="0.0625" Pitch="39" RiffPosition="10.875" Velocity="0" />
      <note Length="0.0625" Pitch="39" RiffPosition="10.9375" Velocity="0" />
    </riff>
    <riff IsDrum="True" MidiInstrument="0" Tempo="131" Length="11">
      <note Length="0.0625" Pitch="35" RiffPosition="0" Velocity="127" />
      <note Length="0.0625" Pitch="35" RiffPosition="0.0625" Velocity="127" />
      <note Length="0.0625" Pitch="35" RiffPosition="0.125" Velocity="127" />
      <note Length="0.015625" Pitch="35" RiffPosition="0.1875" Velocity="127" />
      <note Length="0.046875" Pitch="35" RiffPosition="0.203125" Velocity="127" />
      <note Length="0.0625" Pitch="35" RiffPosition="0.25" Velocity="127" />
      <note Length="0.0625" Pitch="35" RiffPosition="0.3125" Velocity="127" />
      <note Length="0.0625" Pitch="35" RiffPosition="0.375" Velocity="127" />
      <note Length="0.015625" Pitch="35" RiffPosition="0.4375" Velocity="127" />
      <note Length="0.046875" Pitch="35" RiffPosition="0.453125" Velocity="127" />
      <note Length="0.0625" Pitch="35" RiffPosition="0.5" Velocity="127" />
      <note Length="0.0625" Pitch="35" RiffPosition="0.5625" Velocity="127" />
      <note Length="0.0625" Pitch="35" RiffPosition="0.625" Velocity="127" />
      <note Length="0.015625" Pitch="35" RiffPosition="0.6875" Velocity="127" />
      <note Length="0.046875" Pitch="35" RiffPosition="0.703125" Velocity="127" />
      <note Length="0.0625" Pitch="35" RiffPosition="0.75" Velocity="127" />
      <note Length="0.0625" Pitch="35" RiffPosition="0.8125" Velocity="127" />
      <note Length="0.0625" Pitch="35" RiffPosition="0.875" Velocity="127" />
      <note Length="0.015625" Pitch="35" RiffPosition="0.9375" Velocity="127" />
      <note Length="0.046875" Pitch="35" RiffPosition="0.953125" Velocity="127" />
      <note Length="0.0625" Pitch="35" RiffPosition="1" Velocity="127" />
      <note Length="0.0625" Pitch="35" RiffPosition="1.0625" Velocity="127" />
      <note Length="0.0625" Pitch="35" RiffPosition="1.125" Velocity="127" />
      <note Length="0.015625" Pitch="35" RiffPosition="1.1875" Velocity="127" />
      <note Length="0.046875" Pitch="35" RiffPosition="1.203125" Velocity="127" />
      <note Length="0.0625" Pitch="35" RiffPosition="1.25" Velocity="127" />
      <note Length="0.0625" Pitch="35" RiffPosition="1.3125" Velocity="127" />
      <note Length="0.0625" Pitch="35" RiffPosition="1.375" Velocity="127" />
      <note Length="0.015625" Pitch="35" RiffPosition="1.4375" Velocity="127" />
      <note Length="0.046875" Pitch="35" RiffPosition="1.453125" Velocity="127" />
      <note Length="0.0625" Pitch="35" RiffPosition="1.5" Velocity="127" />
      <note Length="0.0625" Pitch="35" RiffPosition="1.5625" Velocity="127" />
      <note Length="0.0625" Pitch="35" RiffPosition="1.625" Velocity="127" />
      <note Length="0.015625" Pitch="35" RiffPosition="1.6875" Velocity="127" />
      <note Length="0.046875" Pitch="35" RiffPosition="1.703125" Velocity="127" />
      <note Length="0.0625" Pitch="35" RiffPosition="1.75" Velocity="127" />
      <note Length="0.0625" Pitch="35" RiffPosition="1.8125" Velocity="127" />
      <note Length="0.0625" Pitch="35" RiffPosition="1.875" Velocity="127" />
      <note Length="0.015625" Pitch="35" RiffPosition="1.9375" Velocity="127" />
      <note Length="0.046875" Pitch="35" RiffPosition="1.953125" Velocity="127" />
      <note Length="0.0625" Pitch="35" RiffPosition="2" Velocity="127" />
      <note Length="0.0625" Pitch="35" RiffPosition="2.0625" Velocity="127" />
      <note Length="0.0625" Pitch="35" RiffPosition="2.125" Velocity="127" />
      <note Length="0.015625" Pitch="35" RiffPosition="2.1875" Velocity="127" />
      <note Length="0.046875" Pitch="35" RiffPosition="2.203125" Velocity="127" />
      <note Length="0.0625" Pitch="35" RiffPosition="2.25" Velocity="127" />
      <note Length="0.0625" Pitch="35" RiffPosition="2.3125" Velocity="127" />
      <note Length="0.0625" Pitch="35" RiffPosition="2.375" Velocity="127" />
      <note Length="0.015625" Pitch="35" RiffPosition="2.4375" Velocity="127" />
      <note Length="0.046875" Pitch="35" RiffPosition="2.453125" Velocity="127" />
      <note Length="0.0625" Pitch="35" RiffPosition="2.5" Velocity="127" />
      <note Length="0.0625" Pitch="35" RiffPosition="2.5625" Velocity="127" />
      <note Length="0.0625" Pitch="35" RiffPosition="2.625" Velocity="127" />
      <note Length="0.015625" Pitch="35" RiffPosition="2.6875" Velocity="127" />
      <note Length="0.046875" Pitch="35" RiffPosition="2.703125" Velocity="127" />
      <note Length="0.0625" Pitch="35" RiffPosition="2.75" Velocity="127" />
      <note Length="0.0625" Pitch="35" RiffPosition="2.8125" Velocity="127" />
      <note Length="0.0625" Pitch="35" RiffPosition="2.875" Velocity="127" />
      <note Length="0.015625" Pitch="35" RiffPosition="2.9375" Velocity="127" />
      <note Length="0.046875" Pitch="35" RiffPosition="2.953125" Velocity="127" />
      <note Length="0.0625" Pitch="35" RiffPosition="3" Velocity="127" />
      <note Length="0.0625" Pitch="35" RiffPosition="3.0625" Velocity="127" />
      <note Length="0.0625" Pitch="35" RiffPosition="3.125" Velocity="127" />
      <note Length="0.015625" Pitch="35" RiffPosition="3.1875" Velocity="127" />
      <note Length="0.046875" Pitch="35" RiffPosition="3.203125" Velocity="127" />
      <note Length="0.0625" Pitch="35" RiffPosition="3.25" Velocity="127" />
      <note Length="0.0625" Pitch="35" RiffPosition="3.3125" Velocity="127" />
      <note Length="0.0625" Pitch="35" RiffPosition="3.375" Velocity="127" />
      <note Length="0.015625" Pitch="35" RiffPosition="3.4375" Velocity="127" />
      <note Length="0.046875" Pitch="35" RiffPosition="3.453125" Velocity="127" />
      <note Length="0.0625" Pitch="35" RiffPosition="3.5" Velocity="127" />
      <note Length="0.0625" Pitch="35" RiffPosition="3.5625" Velocity="127" />
      <note Length="0.0625" Pitch="35" RiffPosition="3.625" Velocity="127" />
      <note Length="0.015625" Pitch="35" RiffPosition="3.6875" Velocity="127" />
      <note Length="0.046875" Pitch="35" RiffPosition="3.703125" Velocity="127" />
      <note Length="0.0625" Pitch="35" RiffPosition="3.75" Velocity="127" />
      <note Length="0.0625" Pitch="35" RiffPosition="3.8125" Velocity="127" />
      <note Length="0.0625" Pitch="35" RiffPosition="3.875" Velocity="127" />
      <note Length="0.015625" Pitch="35" RiffPosition="3.9375" Velocity="127" />
      <note Length="0.046875" Pitch="35" RiffPosition="3.953125" Velocity="127" />
      <note Length="0.0625" Pitch="35" RiffPosition="4" Velocity="127" />
      <note Length="0.0625" Pitch="35" RiffPosition="4.0625" Velocity="127" />
      <note Length="0.0625" Pitch="35" RiffPosition="4.125" Velocity="127" />
      <note Length="0.015625" Pitch="35" RiffPosition="4.1875" Velocity="127" />
      <note Length="0.046875" Pitch="35" RiffPosition="4.203125" Velocity="127" />
      <note Length="0.0625" Pitch="35" RiffPosition="4.25" Velocity="127" />
      <note Length="0.0625" Pitch="35" RiffPosition="4.3125" Velocity="127" />
      <note Length="0.0625" Pitch="35" RiffPosition="4.375" Velocity="127" />
      <note Length="0.015625" Pitch="35" RiffPosition="4.4375" Velocity="127" />
      <note Length="0.046875" Pitch="35" RiffPosition="4.453125" Velocity="127" />
      <note Length="0.0625" Pitch="35" RiffPosition="4.5" Velocity="127" />
      <note Length="0.0625" Pitch="35" RiffPosition="4.5625" Velocity="127" />
      <note Length="0.0625" Pitch="35" RiffPosition="4.625" Velocity="127" />
      <note Length="0.015625" Pitch="35" RiffPosition="4.6875" Velocity="127" />
      <note Length="0.046875" Pitch="35" RiffPosition="4.703125" Velocity="127" />
      <note Length="0.0625" Pitch="35" RiffPosition="4.75" Velocity="127" />
      <note Length="0.0625" Pitch="35" RiffPosition="4.8125" Velocity="127" />
      <note Length="0.0625" Pitch="35" RiffPosition="4.875" Velocity="127" />
      <note Length="0.015625" Pitch="35" RiffPosition="4.9375" Velocity="127" />
      <note Length="0.046875" Pitch="35" RiffPosition="4.953125" Velocity="127" />
      <note Length="0.0625" Pitch="35" RiffPosition="5" Velocity="127" />
      <note Length="0.0625" Pitch="35" RiffPosition="5.0625" Velocity="127" />
      <note Length="0.0625" Pitch="35" RiffPosition="5.125" Velocity="127" />
      <note Length="0.015625" Pitch="35" RiffPosition="5.1875" Velocity="127" />
      <note Length="0.046875" Pitch="35" RiffPosition="5.203125" Velocity="127" />
      <note Length="0.0625" Pitch="35" RiffPosition="5.25" Velocity="127" />
      <note Length="0.0625" Pitch="35" RiffPosition="5.3125" Velocity="127" />
      <note Length="0.0625" Pitch="35" RiffPosition="5.375" Velocity="127" />
      <note Length="0.015625" Pitch="35" RiffPosition="5.4375" Velocity="127" />
      <note Length="0.046875" Pitch="35" RiffPosition="5.453125" Velocity="127" />
      <note Length="0.0625" Pitch="35" RiffPosition="5.5" Velocity="127" />
      <note Length="0.0625" Pitch="35" RiffPosition="5.5625" Velocity="127" />
      <note Length="0.0625" Pitch="35" RiffPosition="5.625" Velocity="127" />
      <note Length="0.015625" Pitch="35" RiffPosition="5.6875" Velocity="127" />
      <note Length="0.046875" Pitch="35" RiffPosition="5.703125" Velocity="127" />
      <note Length="0.0625" Pitch="35" RiffPosition="5.75" Velocity="127" />
      <note Length="0.0625" Pitch="35" RiffPosition="5.8125" Velocity="127" />
      <note Length="0.0625" Pitch="35" RiffPosition="5.875" Velocity="127" />
      <note Length="0.015625" Pitch="35" RiffPosition="5.9375" Velocity="127" />
      <note Length="0.046875" Pitch="35" RiffPosition="5.953125" Velocity="127" />
      <note Length="0.0625" Pitch="35" RiffPosition="6" Velocity="127" />
      <note Length="0.0625" Pitch="35" RiffPosition="6.0625" Velocity="127" />
      <note Length="0.0625" Pitch="35" RiffPosition="6.125" Velocity="127" />
      <note Length="0.015625" Pitch="35" RiffPosition="6.1875" Velocity="127" />
      <note Length="0.046875" Pitch="35" RiffPosition="6.203125" Velocity="127" />
      <note Length="0.0625" Pitch="35" RiffPosition="6.25" Velocity="127" />
      <note Length="0.0625" Pitch="35" RiffPosition="6.3125" Velocity="127" />
      <note Length="0.0625" Pitch="35" RiffPosition="6.375" Velocity="127" />
      <note Length="0.015625" Pitch="35" RiffPosition="6.4375" Velocity="127" />
      <note Length="0.046875" Pitch="35" RiffPosition="6.453125" Velocity="127" />
      <note Length="0.0625" Pitch="35" RiffPosition="6.5" Velocity="127" />
      <note Length="0.0625" Pitch="35" RiffPosition="6.5625" Velocity="127" />
      <note Length="0.0625" Pitch="35" RiffPosition="6.625" Velocity="127" />
      <note Length="0.015625" Pitch="35" RiffPosition="6.6875" Velocity="127" />
      <note Length="0.046875" Pitch="35" RiffPosition="6.703125" Velocity="127" />
      <note Length="0.0625" Pitch="35" RiffPosition="6.75" Velocity="127" />
      <note Length="0.0625" Pitch="35" RiffPosition="6.8125" Velocity="127" />
      <note Length="0.0625" Pitch="35" RiffPosition="6.875" Velocity="127" />
      <note Length="0.015625" Pitch="35" RiffPosition="6.9375" Velocity="127" />
      <note Length="0.046875" Pitch="35" RiffPosition="6.953125" Velocity="127" />
      <note Length="0.0625" Pitch="35" RiffPosition="7" Velocity="127" />
      <note Length="0.0625" Pitch="35" RiffPosition="7.0625" Velocity="127" />
      <note Length="0.0625" Pitch="35" RiffPosition="7.125" Velocity="127" />
      <note Length="0.015625" Pitch="35" RiffPosition="7.1875" Velocity="127" />
      <note Length="0.046875" Pitch="35" RiffPosition="7.203125" Velocity="127" />
      <note Length="0.0625" Pitch="35" RiffPosition="7.25" Velocity="127" />
      <note Length="0.0625" Pitch="35" RiffPosition="7.3125" Velocity="127" />
      <note Length="0.0625" Pitch="35" RiffPosition="7.375" Velocity="127" />
      <note Length="0.015625" Pitch="35" RiffPosition="7.4375" Velocity="127" />
      <note Length="0.046875" Pitch="35" RiffPosition="7.453125" Velocity="127" />
      <note Length="0.0625" Pitch="35" RiffPosition="7.5" Velocity="127" />
      <note Length="0.0625" Pitch="35" RiffPosition="7.5625" Velocity="127" />
      <note Length="0.0625" Pitch="35" RiffPosition="7.625" Velocity="127" />
      <note Length="0.015625" Pitch="35" RiffPosition="7.6875" Velocity="127" />
      <note Length="0.046875" Pitch="35" RiffPosition="7.703125" Velocity="127" />
      <note Length="0.0625" Pitch="35" RiffPosition="7.75" Velocity="127" />
      <note Length="0.0625" Pitch="35" RiffPosition="7.8125" Velocity="127" />
      <note Length="0.0625" Pitch="35" RiffPosition="7.875" Velocity="127" />
      <note Length="0.015625" Pitch="35" RiffPosition="7.9375" Velocity="127" />
      <note Length="0.046875" Pitch="35" RiffPosition="7.953125" Velocity="127" />
      <note Length="0.0625" Pitch="35" RiffPosition="8" Velocity="127" />
      <note Length="0.0625" Pitch="35" RiffPosition="8.0625" Velocity="127" />
      <note Length="0.0625" Pitch="35" RiffPosition="8.125" Velocity="127" />
      <note Length="0.015625" Pitch="35" RiffPosition="8.1875" Velocity="127" />
      <note Length="0.046875" Pitch="35" RiffPosition="8.203125" Velocity="127" />
      <note Length="0.0625" Pitch="35" RiffPosition="8.25" Velocity="127" />
      <note Length="0.0625" Pitch="35" RiffPosition="8.3125" Velocity="127" />
      <note Length="0.0625" Pitch="35" RiffPosition="8.375" Velocity="127" />
      <note Length="0.015625" Pitch="35" RiffPosition="8.4375" Velocity="127" />
      <note Length="0.046875" Pitch="35" RiffPosition="8.453125" Velocity="127" />
      <note Length="0.0625" Pitch="35" RiffPosition="8.5" Velocity="127" />
      <note Length="0.0625" Pitch="35" RiffPosition="8.5625" Velocity="127" />
      <note Length="0.0625" Pitch="35" RiffPosition="8.625" Velocity="127" />
      <note Length="0.015625" Pitch="35" RiffPosition="8.6875" Velocity="127" />
      <note Length="0.046875" Pitch="35" RiffPosition="8.703125" Velocity="127" />
      <note Length="0.0625" Pitch="35" RiffPosition="8.75" Velocity="127" />
      <note Length="0.0625" Pitch="35" RiffPosition="8.8125" Velocity="127" />
      <note Length="0.0625" Pitch="35" RiffPosition="8.875" Velocity="127" />
      <note Length="0.015625" Pitch="35" RiffPosition="8.9375" Velocity="127" />
      <note Length="0.046875" Pitch="35" RiffPosition="8.953125" Velocity="127" />
      <note Length="0.0625" Pitch="35" RiffPosition="9" Velocity="0" />
      <note Length="0.0625" Pitch="35" RiffPosition="9.0625" Velocity="0" />
      <note Length="0.0625" Pitch="35" RiffPosition="9.125" Velocity="0" />
      <note Length="0.015625" Pitch="35" RiffPosition="9.1875" Velocity="0" />
      <note Length="0.046875" Pitch="35" RiffPosition="9.203125" Velocity="0" />
      <note Length="0.0625" Pitch="35" RiffPosition="9.25" Velocity="0" />
      <note Length="0.0625" Pitch="35" RiffPosition="9.3125" Velocity="0" />
      <note Length="0.0625" Pitch="35" RiffPosition="9.375" Velocity="0" />
      <note Length="0.015625" Pitch="35" RiffPosition="9.4375" Velocity="0" />
      <note Length="0.046875" Pitch="35" RiffPosition="9.453125" Velocity="0" />
      <note Length="0.0625" Pitch="35" RiffPosition="9.5" Velocity="0" />
      <note Length="0.0625" Pitch="35" RiffPosition="9.5625" Velocity="0" />
      <note Length="0.0625" Pitch="35" RiffPosition="9.625" Velocity="0" />
      <note Length="0.015625" Pitch="35" RiffPosition="9.6875" Velocity="0" />
      <note Length="0.046875" Pitch="35" RiffPosition="9.703125" Velocity="0" />
      <note Length="0.0625" Pitch="35" RiffPosition="9.75" Velocity="0" />
      <note Length="0.0625" Pitch="35" RiffPosition="9.8125" Velocity="0" />
      <note Length="0.0625" Pitch="35" RiffPosition="9.875" Velocity="0" />
      <note Length="0.015625" Pitch="35" RiffPosition="9.9375" Velocity="0" />
      <note Length="0.046875" Pitch="35" RiffPosition="9.953125" Velocity="0" />
      <note Length="0.0625" Pitch="35" RiffPosition="10" Velocity="0" />
      <note Length="0.0625" Pitch="35" RiffPosition="10.0625" Velocity="0" />
      <note Length="0.0625" Pitch="35" RiffPosition="10.125" Velocity="0" />
      <note Length="0.015625" Pitch="35" RiffPosition="10.1875" Velocity="0" />
      <note Length="0.046875" Pitch="35" RiffPosition="10.203125" Velocity="0" />
      <note Length="0.0625" Pitch="35" RiffPosition="10.25" Velocity="0" />
      <note Length="0.0625" Pitch="35" RiffPosition="10.3125" Velocity="0" />
      <note Length="0.0625" Pitch="35" RiffPosition="10.375" Velocity="0" />
      <note Length="0.015625" Pitch="35" RiffPosition="10.4375" Velocity="0" />
      <note Length="0.046875" Pitch="35" RiffPosition="10.453125" Velocity="0" />
      <note Length="0.0625" Pitch="35" RiffPosition="10.5" Velocity="0" />
      <note Length="0.0625" Pitch="35" RiffPosition="10.5625" Velocity="0" />
      <note Length="0.0625" Pitch="35" RiffPosition="10.625" Velocity="0" />
      <note Length="0.015625" Pitch="35" RiffPosition="10.6875" Velocity="0" />
      <note Length="0.046875" Pitch="35" RiffPosition="10.703125" Velocity="0" />
      <note Length="0.0625" Pitch="35" RiffPosition="10.75" Velocity="0" />
      <note Length="0.0625" Pitch="35" RiffPosition="10.8125" Velocity="0" />
      <note Length="0.0625" Pitch="35" RiffPosition="10.875" Velocity="0" />
      <note Length="0.015625" Pitch="35" RiffPosition="10.9375" Velocity="0" />
      <note Length="0.046875" Pitch="35" RiffPosition="10.953125" Velocity="0" />
    </riff>
    <riff IsDrum="True" MidiInstrument="0" Tempo="84" Length="11">
      <note Length="0.015625" Pitch="52" RiffPosition="0" Velocity="51" />
      <note Length="0.015625" Pitch="54" RiffPosition="0.015625" Velocity="93" />
      <note Length="0.0078125" Pitch="53" RiffPosition="0.03125" Velocity="111" />
      <note Length="0.0234375" Pitch="52" RiffPosition="0.0390625" Velocity="61" />
      <note Length="0.015625" Pitch="49" RiffPosition="0.0625" Velocity="28" />
      <note Length="0.015625" Pitch="46" RiffPosition="0.078125" Velocity="51" />
      <note Length="0.0078125" Pitch="43" RiffPosition="0.09375" Velocity="51" />
      <note Length="0.0234375" Pitch="42" RiffPosition="0.1015625" Velocity="90" />
      <note Length="0.0625" Pitch="39" RiffPosition="0.125" Velocity="0" />
      <note Length="0.0625" Pitch="38" RiffPosition="0.1875" Velocity="0" />
      <note Length="0.03125" Pitch="47" RiffPosition="0.25" Velocity="90" />
      <note Length="0.03125" Pitch="49" RiffPosition="0.28125" Velocity="50" />
      <note Length="0.015625" Pitch="47" RiffPosition="0.3125" Velocity="48" />
      <note Length="0.015625" Pitch="46" RiffPosition="0.328125" Velocity="48" />
      <note Length="0.0234375" Pitch="44" RiffPosition="0.34375" Velocity="48" />
      <note Length="0.0078125" Pitch="42" RiffPosition="0.3671875" Velocity="74" />
      <note Length="0.015625" Pitch="42" RiffPosition="0.375" Velocity="74" />
      <note Length="0.046875" Pitch="40" RiffPosition="0.390625" Velocity="0" />
      <note Length="0.015625" Pitch="43" RiffPosition="0.4375" Velocity="58" />
      <note Length="0.015625" Pitch="45" RiffPosition="0.453125" Velocity="58" />
      <note Length="0.015625" Pitch="46" RiffPosition="0.46875" Velocity="48" />
      <note Length="0.015625" Pitch="47" RiffPosition="0.484375" Velocity="93" />
      <note Length="0.015625" Pitch="49" RiffPosition="0.5" Velocity="51" />
      <note Length="0.015625" Pitch="51" RiffPosition="0.515625" Velocity="93" />
      <note Length="0.0078125" Pitch="51" RiffPosition="0.53125" Velocity="74" />
      <note Length="0.0234375" Pitch="49" RiffPosition="0.5390625" Velocity="41" />
      <note Length="0.015625" Pitch="46" RiffPosition="0.5625" Velocity="66" />
      <note Length="0.015625" Pitch="44" RiffPosition="0.578125" Velocity="66" />
      <note Length="0.0078125" Pitch="43" RiffPosition="0.59375" Velocity="66" />
      <note Length="0.0234375" Pitch="42" RiffPosition="0.6015625" Velocity="127" />
      <note Length="0.0625" Pitch="39" RiffPosition="0.625" Velocity="0" />
      <note Length="0.0625" Pitch="41" RiffPosition="0.6875" Velocity="58" />
      <note Length="0.03125" Pitch="47" RiffPosition="0.75" Velocity="127" />
      <note Length="0.03125" Pitch="49" RiffPosition="0.78125" Velocity="70" />
      <note Length="0.015625" Pitch="45" RiffPosition="0.8125" Velocity="48" />
      <note Length="0.015625" Pitch="44" RiffPosition="0.828125" Velocity="48" />
      <note Length="0.0234375" Pitch="42" RiffPosition="0.84375" Velocity="48" />
      <note Length="0.0078125" Pitch="39" RiffPosition="0.8671875" Velocity="0" />
      <note Length="0.015625" Pitch="39" RiffPosition="0.875" Velocity="0" />
      <note Length="0.046875" Pitch="37" RiffPosition="0.890625" Velocity="119" />
      <note Length="0.015625" Pitch="43" RiffPosition="0.9375" Velocity="58" />
      <note Length="0.015625" Pitch="45" RiffPosition="0.953125" Velocity="58" />
      <note Length="0.015625" Pitch="48" RiffPosition="0.96875" Velocity="48" />
      <note Length="0.015625" Pitch="50" RiffPosition="0.984375" Velocity="93" />
      <note Length="0.015625" Pitch="52" RiffPosition="1" Velocity="51" />
      <note Length="0.015625" Pitch="54" RiffPosition="1.015625" Velocity="93" />
      <note Length="0.0078125" Pitch="53" RiffPosition="1.03125" Velocity="111" />
      <note Length="0.0234375" Pitch="52" RiffPosition="1.0390625" Velocity="61" />
      <note Length="0.015625" Pitch="49" RiffPosition="1.0625" Velocity="28" />
      <note Length="0.015625" Pitch="46" RiffPosition="1.078125" Velocity="51" />
      <note Length="0.0078125" Pitch="43" RiffPosition="1.09375" Velocity="51" />
      <note Length="0.0234375" Pitch="42" RiffPosition="1.1015625" Velocity="90" />
      <note Length="0.0625" Pitch="39" RiffPosition="1.125" Velocity="0" />
      <note Length="0.0625" Pitch="38" RiffPosition="1.1875" Velocity="0" />
      <note Length="0.03125" Pitch="47" RiffPosition="1.25" Velocity="90" />
      <note Length="0.03125" Pitch="49" RiffPosition="1.28125" Velocity="50" />
      <note Length="0.015625" Pitch="47" RiffPosition="1.3125" Velocity="48" />
      <note Length="0.015625" Pitch="46" RiffPosition="1.328125" Velocity="48" />
      <note Length="0.0234375" Pitch="44" RiffPosition="1.34375" Velocity="48" />
      <note Length="0.0078125" Pitch="42" RiffPosition="1.3671875" Velocity="74" />
      <note Length="0.015625" Pitch="42" RiffPosition="1.375" Velocity="74" />
      <note Length="0.046875" Pitch="40" RiffPosition="1.390625" Velocity="0" />
      <note Length="0.015625" Pitch="43" RiffPosition="1.4375" Velocity="58" />
      <note Length="0.015625" Pitch="45" RiffPosition="1.453125" Velocity="58" />
      <note Length="0.015625" Pitch="46" RiffPosition="1.46875" Velocity="48" />
      <note Length="0.015625" Pitch="47" RiffPosition="1.484375" Velocity="93" />
      <note Length="0.015625" Pitch="49" RiffPosition="1.5" Velocity="51" />
      <note Length="0.015625" Pitch="51" RiffPosition="1.515625" Velocity="93" />
      <note Length="0.0078125" Pitch="51" RiffPosition="1.53125" Velocity="74" />
      <note Length="0.0234375" Pitch="49" RiffPosition="1.5390625" Velocity="41" />
      <note Length="0.015625" Pitch="46" RiffPosition="1.5625" Velocity="66" />
      <note Length="0.015625" Pitch="44" RiffPosition="1.578125" Velocity="66" />
      <note Length="0.0078125" Pitch="43" RiffPosition="1.59375" Velocity="66" />
      <note Length="0.0234375" Pitch="42" RiffPosition="1.6015625" Velocity="127" />
      <note Length="0.0625" Pitch="39" RiffPosition="1.625" Velocity="0" />
      <note Length="0.0625" Pitch="41" RiffPosition="1.6875" Velocity="58" />
      <note Length="0.03125" Pitch="47" RiffPosition="1.75" Velocity="127" />
      <note Length="0.03125" Pitch="49" RiffPosition="1.78125" Velocity="70" />
      <note Length="0.015625" Pitch="45" RiffPosition="1.8125" Velocity="48" />
      <note Length="0.015625" Pitch="44" RiffPosition="1.828125" Velocity="48" />
      <note Length="0.0234375" Pitch="42" RiffPosition="1.84375" Velocity="48" />
      <note Length="0.0078125" Pitch="39" RiffPosition="1.8671875" Velocity="0" />
      <note Length="0.015625" Pitch="39" RiffPosition="1.875" Velocity="0" />
      <note Length="0.046875" Pitch="37" RiffPosition="1.890625" Velocity="119" />
      <note Length="0.015625" Pitch="43" RiffPosition="1.9375" Velocity="58" />
      <note Length="0.015625" Pitch="45" RiffPosition="1.953125" Velocity="58" />
      <note Length="0.015625" Pitch="48" RiffPosition="1.96875" Velocity="48" />
      <note Length="0.015625" Pitch="50" RiffPosition="1.984375" Velocity="93" />
      <note Length="0.015625" Pitch="52" RiffPosition="2" Velocity="51" />
      <note Length="0.015625" Pitch="54" RiffPosition="2.015625" Velocity="93" />
      <note Length="0.0078125" Pitch="53" RiffPosition="2.03125" Velocity="111" />
      <note Length="0.0234375" Pitch="52" RiffPosition="2.0390625" Velocity="61" />
      <note Length="0.015625" Pitch="49" RiffPosition="2.0625" Velocity="28" />
      <note Length="0.015625" Pitch="46" RiffPosition="2.078125" Velocity="51" />
      <note Length="0.0078125" Pitch="43" RiffPosition="2.09375" Velocity="51" />
      <note Length="0.0234375" Pitch="42" RiffPosition="2.1015625" Velocity="90" />
      <note Length="0.0625" Pitch="39" RiffPosition="2.125" Velocity="0" />
      <note Length="0.0625" Pitch="38" RiffPosition="2.1875" Velocity="0" />
      <note Length="0.03125" Pitch="47" RiffPosition="2.25" Velocity="90" />
      <note Length="0.03125" Pitch="49" RiffPosition="2.28125" Velocity="50" />
      <note Length="0.015625" Pitch="47" RiffPosition="2.3125" Velocity="48" />
      <note Length="0.015625" Pitch="46" RiffPosition="2.328125" Velocity="48" />
      <note Length="0.0234375" Pitch="44" RiffPosition="2.34375" Velocity="48" />
      <note Length="0.0078125" Pitch="42" RiffPosition="2.3671875" Velocity="74" />
      <note Length="0.015625" Pitch="42" RiffPosition="2.375" Velocity="74" />
      <note Length="0.046875" Pitch="40" RiffPosition="2.390625" Velocity="0" />
      <note Length="0.015625" Pitch="43" RiffPosition="2.4375" Velocity="58" />
      <note Length="0.015625" Pitch="45" RiffPosition="2.453125" Velocity="58" />
      <note Length="0.015625" Pitch="46" RiffPosition="2.46875" Velocity="48" />
      <note Length="0.015625" Pitch="47" RiffPosition="2.484375" Velocity="93" />
      <note Length="0.015625" Pitch="49" RiffPosition="2.5" Velocity="51" />
      <note Length="0.015625" Pitch="51" RiffPosition="2.515625" Velocity="93" />
      <note Length="0.0078125" Pitch="51" RiffPosition="2.53125" Velocity="74" />
      <note Length="0.0234375" Pitch="49" RiffPosition="2.5390625" Velocity="41" />
      <note Length="0.015625" Pitch="46" RiffPosition="2.5625" Velocity="66" />
      <note Length="0.015625" Pitch="44" RiffPosition="2.578125" Velocity="66" />
      <note Length="0.0078125" Pitch="43" RiffPosition="2.59375" Velocity="66" />
      <note Length="0.0234375" Pitch="42" RiffPosition="2.6015625" Velocity="127" />
      <note Length="0.0625" Pitch="39" RiffPosition="2.625" Velocity="0" />
      <note Length="0.0625" Pitch="41" RiffPosition="2.6875" Velocity="58" />
      <note Length="0.03125" Pitch="47" RiffPosition="2.75" Velocity="127" />
      <note Length="0.03125" Pitch="49" RiffPosition="2.78125" Velocity="70" />
      <note Length="0.015625" Pitch="45" RiffPosition="2.8125" Velocity="48" />
      <note Length="0.015625" Pitch="44" RiffPosition="2.828125" Velocity="48" />
      <note Length="0.0234375" Pitch="42" RiffPosition="2.84375" Velocity="48" />
      <note Length="0.0078125" Pitch="39" RiffPosition="2.8671875" Velocity="0" />
      <note Length="0.015625" Pitch="39" RiffPosition="2.875" Velocity="0" />
      <note Length="0.046875" Pitch="37" RiffPosition="2.890625" Velocity="119" />
      <note Length="0.015625" Pitch="43" RiffPosition="2.9375" Velocity="58" />
      <note Length="0.015625" Pitch="45" RiffPosition="2.953125" Velocity="58" />
      <note Length="0.015625" Pitch="48" RiffPosition="2.96875" Velocity="48" />
      <note Length="0.015625" Pitch="50" RiffPosition="2.984375" Velocity="93" />
      <note Length="0.015625" Pitch="52" RiffPosition="3" Velocity="51" />
      <note Length="0.015625" Pitch="54" RiffPosition="3.015625" Velocity="93" />
      <note Length="0.0078125" Pitch="53" RiffPosition="3.03125" Velocity="111" />
      <note Length="0.0234375" Pitch="52" RiffPosition="3.0390625" Velocity="61" />
      <note Length="0.015625" Pitch="49" RiffPosition="3.0625" Velocity="28" />
      <note Length="0.015625" Pitch="46" RiffPosition="3.078125" Velocity="51" />
      <note Length="0.0078125" Pitch="43" RiffPosition="3.09375" Velocity="51" />
      <note Length="0.0234375" Pitch="42" RiffPosition="3.1015625" Velocity="90" />
      <note Length="0.0625" Pitch="39" RiffPosition="3.125" Velocity="0" />
      <note Length="0.0625" Pitch="38" RiffPosition="3.1875" Velocity="0" />
      <note Length="0.03125" Pitch="47" RiffPosition="3.25" Velocity="90" />
      <note Length="0.03125" Pitch="49" RiffPosition="3.28125" Velocity="50" />
      <note Length="0.015625" Pitch="47" RiffPosition="3.3125" Velocity="48" />
      <note Length="0.015625" Pitch="46" RiffPosition="3.328125" Velocity="48" />
      <note Length="0.0234375" Pitch="44" RiffPosition="3.34375" Velocity="48" />
      <note Length="0.0078125" Pitch="42" RiffPosition="3.3671875" Velocity="74" />
      <note Length="0.015625" Pitch="42" RiffPosition="3.375" Velocity="74" />
      <note Length="0.046875" Pitch="40" RiffPosition="3.390625" Velocity="0" />
      <note Length="0.015625" Pitch="43" RiffPosition="3.4375" Velocity="58" />
      <note Length="0.015625" Pitch="45" RiffPosition="3.453125" Velocity="58" />
      <note Length="0.015625" Pitch="46" RiffPosition="3.46875" Velocity="48" />
      <note Length="0.015625" Pitch="47" RiffPosition="3.484375" Velocity="93" />
      <note Length="0.015625" Pitch="49" RiffPosition="3.5" Velocity="51" />
      <note Length="0.015625" Pitch="51" RiffPosition="3.515625" Velocity="93" />
      <note Length="0.0078125" Pitch="51" RiffPosition="3.53125" Velocity="74" />
      <note Length="0.0234375" Pitch="49" RiffPosition="3.5390625" Velocity="41" />
      <note Length="0.015625" Pitch="46" RiffPosition="3.5625" Velocity="66" />
      <note Length="0.015625" Pitch="44" RiffPosition="3.578125" Velocity="66" />
      <note Length="0.0078125" Pitch="43" RiffPosition="3.59375" Velocity="66" />
      <note Length="0.0234375" Pitch="42" RiffPosition="3.6015625" Velocity="127" />
      <note Length="0.0625" Pitch="39" RiffPosition="3.625" Velocity="0" />
      <note Length="0.0625" Pitch="41" RiffPosition="3.6875" Velocity="58" />
      <note Length="0.03125" Pitch="47" RiffPosition="3.75" Velocity="127" />
      <note Length="0.03125" Pitch="49" RiffPosition="3.78125" Velocity="70" />
      <note Length="0.015625" Pitch="45" RiffPosition="3.8125" Velocity="48" />
      <note Length="0.015625" Pitch="44" RiffPosition="3.828125" Velocity="48" />
      <note Length="0.0234375" Pitch="42" RiffPosition="3.84375" Velocity="48" />
      <note Length="0.0078125" Pitch="39" RiffPosition="3.8671875" Velocity="0" />
      <note Length="0.015625" Pitch="39" RiffPosition="3.875" Velocity="0" />
      <note Length="0.046875" Pitch="37" RiffPosition="3.890625" Velocity="119" />
      <note Length="0.015625" Pitch="43" RiffPosition="3.9375" Velocity="58" />
      <note Length="0.015625" Pitch="45" RiffPosition="3.953125" Velocity="58" />
      <note Length="0.015625" Pitch="48" RiffPosition="3.96875" Velocity="48" />
      <note Length="0.015625" Pitch="50" RiffPosition="3.984375" Velocity="93" />
      <note Length="0.015625" Pitch="52" RiffPosition="4" Velocity="51" />
      <note Length="0.015625" Pitch="54" RiffPosition="4.015625" Velocity="93" />
      <note Length="0.0078125" Pitch="53" RiffPosition="4.03125" Velocity="111" />
      <note Length="0.0234375" Pitch="52" RiffPosition="4.0390625" Velocity="61" />
      <note Length="0.015625" Pitch="49" RiffPosition="4.0625" Velocity="28" />
      <note Length="0.015625" Pitch="46" RiffPosition="4.078125" Velocity="51" />
      <note Length="0.0078125" Pitch="43" RiffPosition="4.09375" Velocity="51" />
      <note Length="0.0234375" Pitch="42" RiffPosition="4.1015625" Velocity="90" />
      <note Length="0.0625" Pitch="39" RiffPosition="4.125" Velocity="0" />
      <note Length="0.0625" Pitch="38" RiffPosition="4.1875" Velocity="0" />
      <note Length="0.03125" Pitch="47" RiffPosition="4.25" Velocity="90" />
      <note Length="0.03125" Pitch="49" RiffPosition="4.28125" Velocity="50" />
      <note Length="0.015625" Pitch="47" RiffPosition="4.3125" Velocity="48" />
      <note Length="0.015625" Pitch="46" RiffPosition="4.328125" Velocity="48" />
      <note Length="0.0234375" Pitch="44" RiffPosition="4.34375" Velocity="48" />
      <note Length="0.0078125" Pitch="42" RiffPosition="4.3671875" Velocity="74" />
      <note Length="0.015625" Pitch="42" RiffPosition="4.375" Velocity="74" />
      <note Length="0.046875" Pitch="40" RiffPosition="4.390625" Velocity="0" />
      <note Length="0.015625" Pitch="43" RiffPosition="4.4375" Velocity="58" />
      <note Length="0.015625" Pitch="45" RiffPosition="4.453125" Velocity="58" />
      <note Length="0.015625" Pitch="46" RiffPosition="4.46875" Velocity="48" />
      <note Length="0.015625" Pitch="47" RiffPosition="4.484375" Velocity="93" />
      <note Length="0.015625" Pitch="49" RiffPosition="4.5" Velocity="51" />
      <note Length="0.015625" Pitch="51" RiffPosition="4.515625" Velocity="93" />
      <note Length="0.0078125" Pitch="51" RiffPosition="4.53125" Velocity="74" />
      <note Length="0.0234375" Pitch="49" RiffPosition="4.5390625" Velocity="41" />
      <note Length="0.015625" Pitch="46" RiffPosition="4.5625" Velocity="66" />
      <note Length="0.015625" Pitch="44" RiffPosition="4.578125" Velocity="66" />
      <note Length="0.0078125" Pitch="43" RiffPosition="4.59375" Velocity="66" />
      <note Length="0.0234375" Pitch="42" RiffPosition="4.6015625" Velocity="127" />
      <note Length="0.0625" Pitch="39" RiffPosition="4.625" Velocity="0" />
      <note Length="0.0625" Pitch="41" RiffPosition="4.6875" Velocity="58" />
      <note Length="0.03125" Pitch="47" RiffPosition="4.75" Velocity="127" />
      <note Length="0.03125" Pitch="49" RiffPosition="4.78125" Velocity="70" />
      <note Length="0.015625" Pitch="45" RiffPosition="4.8125" Velocity="48" />
      <note Length="0.015625" Pitch="44" RiffPosition="4.828125" Velocity="48" />
      <note Length="0.0234375" Pitch="42" RiffPosition="4.84375" Velocity="48" />
      <note Length="0.0078125" Pitch="39" RiffPosition="4.8671875" Velocity="0" />
      <note Length="0.015625" Pitch="39" RiffPosition="4.875" Velocity="0" />
      <note Length="0.046875" Pitch="37" RiffPosition="4.890625" Velocity="119" />
      <note Length="0.015625" Pitch="43" RiffPosition="4.9375" Velocity="58" />
      <note Length="0.015625" Pitch="45" RiffPosition="4.953125" Velocity="58" />
      <note Length="0.015625" Pitch="48" RiffPosition="4.96875" Velocity="48" />
      <note Length="0.015625" Pitch="50" RiffPosition="4.984375" Velocity="93" />
      <note Length="0.015625" Pitch="52" RiffPosition="5" Velocity="51" />
      <note Length="0.015625" Pitch="54" RiffPosition="5.015625" Velocity="93" />
      <note Length="0.0078125" Pitch="53" RiffPosition="5.03125" Velocity="111" />
      <note Length="0.0234375" Pitch="52" RiffPosition="5.0390625" Velocity="61" />
      <note Length="0.015625" Pitch="49" RiffPosition="5.0625" Velocity="28" />
      <note Length="0.015625" Pitch="46" RiffPosition="5.078125" Velocity="51" />
      <note Length="0.0078125" Pitch="43" RiffPosition="5.09375" Velocity="51" />
      <note Length="0.0234375" Pitch="42" RiffPosition="5.1015625" Velocity="90" />
      <note Length="0.0625" Pitch="39" RiffPosition="5.125" Velocity="0" />
      <note Length="0.0625" Pitch="38" RiffPosition="5.1875" Velocity="0" />
      <note Length="0.03125" Pitch="47" RiffPosition="5.25" Velocity="90" />
      <note Length="0.03125" Pitch="49" RiffPosition="5.28125" Velocity="50" />
      <note Length="0.015625" Pitch="47" RiffPosition="5.3125" Velocity="48" />
      <note Length="0.015625" Pitch="46" RiffPosition="5.328125" Velocity="48" />
      <note Length="0.0234375" Pitch="44" RiffPosition="5.34375" Velocity="48" />
      <note Length="0.0078125" Pitch="42" RiffPosition="5.3671875" Velocity="74" />
      <note Length="0.015625" Pitch="42" RiffPosition="5.375" Velocity="74" />
      <note Length="0.046875" Pitch="40" RiffPosition="5.390625" Velocity="0" />
      <note Length="0.015625" Pitch="43" RiffPosition="5.4375" Velocity="58" />
      <note Length="0.015625" Pitch="45" RiffPosition="5.453125" Velocity="58" />
      <note Length="0.015625" Pitch="46" RiffPosition="5.46875" Velocity="48" />
      <note Length="0.015625" Pitch="47" RiffPosition="5.484375" Velocity="93" />
      <note Length="0.015625" Pitch="49" RiffPosition="5.5" Velocity="51" />
      <note Length="0.015625" Pitch="51" RiffPosition="5.515625" Velocity="93" />
      <note Length="0.0078125" Pitch="51" RiffPosition="5.53125" Velocity="74" />
      <note Length="0.0234375" Pitch="49" RiffPosition="5.5390625" Velocity="41" />
      <note Length="0.015625" Pitch="46" RiffPosition="5.5625" Velocity="66" />
      <note Length="0.015625" Pitch="44" RiffPosition="5.578125" Velocity="66" />
      <note Length="0.0078125" Pitch="43" RiffPosition="5.59375" Velocity="66" />
      <note Length="0.0234375" Pitch="42" RiffPosition="5.6015625" Velocity="127" />
      <note Length="0.0625" Pitch="39" RiffPosition="5.625" Velocity="0" />
      <note Length="0.0625" Pitch="41" RiffPosition="5.6875" Velocity="58" />
      <note Length="0.03125" Pitch="47" RiffPosition="5.75" Velocity="127" />
      <note Length="0.03125" Pitch="49" RiffPosition="5.78125" Velocity="70" />
      <note Length="0.015625" Pitch="45" RiffPosition="5.8125" Velocity="48" />
      <note Length="0.015625" Pitch="44" RiffPosition="5.828125" Velocity="48" />
      <note Length="0.0234375" Pitch="42" RiffPosition="5.84375" Velocity="48" />
      <note Length="0.0078125" Pitch="39" RiffPosition="5.8671875" Velocity="0" />
      <note Length="0.015625" Pitch="39" RiffPosition="5.875" Velocity="0" />
      <note Length="0.046875" Pitch="37" RiffPosition="5.890625" Velocity="119" />
      <note Length="0.015625" Pitch="43" RiffPosition="5.9375" Velocity="58" />
      <note Length="0.015625" Pitch="45" RiffPosition="5.953125" Velocity="58" />
      <note Length="0.015625" Pitch="48" RiffPosition="5.96875" Velocity="48" />
      <note Length="0.015625" Pitch="50" RiffPosition="5.984375" Velocity="93" />
      <note Length="0.015625" Pitch="52" RiffPosition="6" Velocity="51" />
      <note Length="0.015625" Pitch="54" RiffPosition="6.015625" Velocity="93" />
      <note Length="0.0078125" Pitch="53" RiffPosition="6.03125" Velocity="111" />
      <note Length="0.0234375" Pitch="52" RiffPosition="6.0390625" Velocity="61" />
      <note Length="0.015625" Pitch="49" RiffPosition="6.0625" Velocity="28" />
      <note Length="0.015625" Pitch="46" RiffPosition="6.078125" Velocity="51" />
      <note Length="0.0078125" Pitch="43" RiffPosition="6.09375" Velocity="51" />
      <note Length="0.0234375" Pitch="42" RiffPosition="6.1015625" Velocity="90" />
      <note Length="0.0625" Pitch="39" RiffPosition="6.125" Velocity="0" />
      <note Length="0.0625" Pitch="38" RiffPosition="6.1875" Velocity="0" />
      <note Length="0.03125" Pitch="47" RiffPosition="6.25" Velocity="90" />
      <note Length="0.03125" Pitch="49" RiffPosition="6.28125" Velocity="50" />
      <note Length="0.015625" Pitch="47" RiffPosition="6.3125" Velocity="48" />
      <note Length="0.015625" Pitch="46" RiffPosition="6.328125" Velocity="48" />
      <note Length="0.0234375" Pitch="44" RiffPosition="6.34375" Velocity="48" />
      <note Length="0.0078125" Pitch="42" RiffPosition="6.3671875" Velocity="74" />
      <note Length="0.015625" Pitch="42" RiffPosition="6.375" Velocity="74" />
      <note Length="0.046875" Pitch="40" RiffPosition="6.390625" Velocity="0" />
      <note Length="0.015625" Pitch="43" RiffPosition="6.4375" Velocity="58" />
      <note Length="0.015625" Pitch="45" RiffPosition="6.453125" Velocity="58" />
      <note Length="0.015625" Pitch="46" RiffPosition="6.46875" Velocity="48" />
      <note Length="0.015625" Pitch="47" RiffPosition="6.484375" Velocity="93" />
      <note Length="0.015625" Pitch="49" RiffPosition="6.5" Velocity="51" />
      <note Length="0.015625" Pitch="51" RiffPosition="6.515625" Velocity="93" />
      <note Length="0.0078125" Pitch="51" RiffPosition="6.53125" Velocity="74" />
      <note Length="0.0234375" Pitch="49" RiffPosition="6.5390625" Velocity="41" />
      <note Length="0.015625" Pitch="46" RiffPosition="6.5625" Velocity="66" />
      <note Length="0.015625" Pitch="44" RiffPosition="6.578125" Velocity="66" />
      <note Length="0.0078125" Pitch="43" RiffPosition="6.59375" Velocity="66" />
      <note Length="0.0234375" Pitch="42" RiffPosition="6.6015625" Velocity="127" />
      <note Length="0.0625" Pitch="39" RiffPosition="6.625" Velocity="0" />
      <note Length="0.0625" Pitch="41" RiffPosition="6.6875" Velocity="58" />
      <note Length="0.03125" Pitch="47" RiffPosition="6.75" Velocity="127" />
      <note Length="0.03125" Pitch="49" RiffPosition="6.78125" Velocity="70" />
      <note Length="0.015625" Pitch="45" RiffPosition="6.8125" Velocity="48" />
      <note Length="0.015625" Pitch="44" RiffPosition="6.828125" Velocity="48" />
      <note Length="0.0234375" Pitch="42" RiffPosition="6.84375" Velocity="48" />
      <note Length="0.0078125" Pitch="39" RiffPosition="6.8671875" Velocity="0" />
      <note Length="0.015625" Pitch="39" RiffPosition="6.875" Velocity="0" />
      <note Length="0.046875" Pitch="37" RiffPosition="6.890625" Velocity="119" />
      <note Length="0.015625" Pitch="43" RiffPosition="6.9375" Velocity="58" />
      <note Length="0.015625" Pitch="45" RiffPosition="6.953125" Velocity="58" />
      <note Length="0.015625" Pitch="48" RiffPosition="6.96875" Velocity="48" />
      <note Length="0.015625" Pitch="50" RiffPosition="6.984375" Velocity="93" />
      <note Length="0.015625" Pitch="52" RiffPosition="7" Velocity="51" />
      <note Length="0.015625" Pitch="54" RiffPosition="7.015625" Velocity="93" />
      <note Length="0.0078125" Pitch="53" RiffPosition="7.03125" Velocity="111" />
      <note Length="0.0234375" Pitch="52" RiffPosition="7.0390625" Velocity="61" />
      <note Length="0.015625" Pitch="49" RiffPosition="7.0625" Velocity="28" />
      <note Length="0.015625" Pitch="46" RiffPosition="7.078125" Velocity="51" />
      <note Length="0.0078125" Pitch="43" RiffPosition="7.09375" Velocity="51" />
      <note Length="0.0234375" Pitch="42" RiffPosition="7.1015625" Velocity="90" />
      <note Length="0.0625" Pitch="39" RiffPosition="7.125" Velocity="0" />
      <note Length="0.0625" Pitch="38" RiffPosition="7.1875" Velocity="0" />
      <note Length="0.03125" Pitch="47" RiffPosition="7.25" Velocity="90" />
      <note Length="0.03125" Pitch="49" RiffPosition="7.28125" Velocity="50" />
      <note Length="0.015625" Pitch="47" RiffPosition="7.3125" Velocity="48" />
      <note Length="0.015625" Pitch="46" RiffPosition="7.328125" Velocity="48" />
      <note Length="0.0234375" Pitch="44" RiffPosition="7.34375" Velocity="48" />
      <note Length="0.0078125" Pitch="42" RiffPosition="7.3671875" Velocity="74" />
      <note Length="0.015625" Pitch="42" RiffPosition="7.375" Velocity="74" />
      <note Length="0.046875" Pitch="40" RiffPosition="7.390625" Velocity="0" />
      <note Length="0.015625" Pitch="43" RiffPosition="7.4375" Velocity="58" />
      <note Length="0.015625" Pitch="45" RiffPosition="7.453125" Velocity="58" />
      <note Length="0.015625" Pitch="46" RiffPosition="7.46875" Velocity="48" />
      <note Length="0.015625" Pitch="47" RiffPosition="7.484375" Velocity="93" />
      <note Length="0.015625" Pitch="49" RiffPosition="7.5" Velocity="51" />
      <note Length="0.015625" Pitch="51" RiffPosition="7.515625" Velocity="93" />
      <note Length="0.0078125" Pitch="51" RiffPosition="7.53125" Velocity="74" />
      <note Length="0.0234375" Pitch="49" RiffPosition="7.5390625" Velocity="41" />
      <note Length="0.015625" Pitch="46" RiffPosition="7.5625" Velocity="66" />
      <note Length="0.015625" Pitch="44" RiffPosition="7.578125" Velocity="66" />
      <note Length="0.0078125" Pitch="43" RiffPosition="7.59375" Velocity="66" />
      <note Length="0.0234375" Pitch="42" RiffPosition="7.6015625" Velocity="127" />
      <note Length="0.0625" Pitch="39" RiffPosition="7.625" Velocity="0" />
      <note Length="0.0625" Pitch="41" RiffPosition="7.6875" Velocity="58" />
      <note Length="0.03125" Pitch="47" RiffPosition="7.75" Velocity="127" />
      <note Length="0.03125" Pitch="49" RiffPosition="7.78125" Velocity="70" />
      <note Length="0.015625" Pitch="45" RiffPosition="7.8125" Velocity="48" />
      <note Length="0.015625" Pitch="44" RiffPosition="7.828125" Velocity="48" />
      <note Length="0.0234375" Pitch="42" RiffPosition="7.84375" Velocity="48" />
      <note Length="0.0078125" Pitch="39" RiffPosition="7.8671875" Velocity="0" />
      <note Length="0.015625" Pitch="39" RiffPosition="7.875" Velocity="0" />
      <note Length="0.046875" Pitch="37" RiffPosition="7.890625" Velocity="119" />
      <note Length="0.015625" Pitch="43" RiffPosition="7.9375" Velocity="58" />
      <note Length="0.015625" Pitch="45" RiffPosition="7.953125" Velocity="58" />
      <note Length="0.015625" Pitch="48" RiffPosition="7.96875" Velocity="48" />
      <note Length="0.015625" Pitch="50" RiffPosition="7.984375" Velocity="93" />
      <note Length="0.015625" Pitch="52" RiffPosition="8" Velocity="51" />
      <note Length="0.015625" Pitch="54" RiffPosition="8.015625" Velocity="93" />
      <note Length="0.0078125" Pitch="53" RiffPosition="8.03125" Velocity="111" />
      <note Length="0.0234375" Pitch="52" RiffPosition="8.0390625" Velocity="61" />
      <note Length="0.015625" Pitch="49" RiffPosition="8.0625" Velocity="28" />
      <note Length="0.015625" Pitch="46" RiffPosition="8.078125" Velocity="51" />
      <note Length="0.0078125" Pitch="43" RiffPosition="8.09375" Velocity="51" />
      <note Length="0.0234375" Pitch="42" RiffPosition="8.1015625" Velocity="90" />
      <note Length="0.0625" Pitch="39" RiffPosition="8.125" Velocity="0" />
      <note Length="0.0625" Pitch="38" RiffPosition="8.1875" Velocity="0" />
      <note Length="0.03125" Pitch="47" RiffPosition="8.25" Velocity="90" />
      <note Length="0.03125" Pitch="49" RiffPosition="8.28125" Velocity="50" />
      <note Length="0.015625" Pitch="47" RiffPosition="8.3125" Velocity="48" />
      <note Length="0.015625" Pitch="46" RiffPosition="8.328125" Velocity="48" />
      <note Length="0.0234375" Pitch="44" RiffPosition="8.34375" Velocity="48" />
      <note Length="0.0078125" Pitch="42" RiffPosition="8.3671875" Velocity="74" />
      <note Length="0.015625" Pitch="42" RiffPosition="8.375" Velocity="74" />
      <note Length="0.046875" Pitch="40" RiffPosition="8.390625" Velocity="0" />
      <note Length="0.015625" Pitch="43" RiffPosition="8.4375" Velocity="58" />
      <note Length="0.015625" Pitch="45" RiffPosition="8.453125" Velocity="58" />
      <note Length="0.015625" Pitch="46" RiffPosition="8.46875" Velocity="48" />
      <note Length="0.015625" Pitch="47" RiffPosition="8.484375" Velocity="93" />
      <note Length="0.015625" Pitch="49" RiffPosition="8.5" Velocity="51" />
      <note Length="0.015625" Pitch="51" RiffPosition="8.515625" Velocity="93" />
      <note Length="0.0078125" Pitch="51" RiffPosition="8.53125" Velocity="74" />
      <note Length="0.0234375" Pitch="49" RiffPosition="8.5390625" Velocity="41" />
      <note Length="0.015625" Pitch="46" RiffPosition="8.5625" Velocity="66" />
      <note Length="0.015625" Pitch="44" RiffPosition="8.578125" Velocity="66" />
      <note Length="0.0078125" Pitch="43" RiffPosition="8.59375" Velocity="66" />
      <note Length="0.0234375" Pitch="42" RiffPosition="8.6015625" Velocity="127" />
      <note Length="0.0625" Pitch="39" RiffPosition="8.625" Velocity="0" />
      <note Length="0.0625" Pitch="41" RiffPosition="8.6875" Velocity="58" />
      <note Length="0.03125" Pitch="47" RiffPosition="8.75" Velocity="127" />
      <note Length="0.03125" Pitch="49" RiffPosition="8.78125" Velocity="70" />
      <note Length="0.015625" Pitch="45" RiffPosition="8.8125" Velocity="48" />
      <note Length="0.015625" Pitch="44" RiffPosition="8.828125" Velocity="48" />
      <note Length="0.0234375" Pitch="42" RiffPosition="8.84375" Velocity="48" />
      <note Length="0.0078125" Pitch="39" RiffPosition="8.8671875" Velocity="0" />
      <note Length="0.015625" Pitch="39" RiffPosition="8.875" Velocity="0" />
      <note Length="0.046875" Pitch="37" RiffPosition="8.890625" Velocity="119" />
      <note Length="0.015625" Pitch="43" RiffPosition="8.9375" Velocity="58" />
      <note Length="0.015625" Pitch="45" RiffPosition="8.953125" Velocity="58" />
      <note Length="0.015625" Pitch="48" RiffPosition="8.96875" Velocity="48" />
      <note Length="0.015625" Pitch="50" RiffPosition="8.984375" Velocity="93" />
      <note Length="0.015625" Pitch="52" RiffPosition="9" Velocity="0" />
      <note Length="0.015625" Pitch="54" RiffPosition="9.015625" Velocity="0" />
      <note Length="0.0078125" Pitch="53" RiffPosition="9.03125" Velocity="0" />
      <note Length="0.0234375" Pitch="52" RiffPosition="9.0390625" Velocity="0" />
      <note Length="0.015625" Pitch="49" RiffPosition="9.0625" Velocity="0" />
      <note Length="0.015625" Pitch="46" RiffPosition="9.078125" Velocity="0" />
      <note Length="0.0078125" Pitch="43" RiffPosition="9.09375" Velocity="0" />
      <note Length="0.0234375" Pitch="42" RiffPosition="9.1015625" Velocity="0" />
      <note Length="0.0625" Pitch="39" RiffPosition="9.125" Velocity="0" />
      <note Length="0.0625" Pitch="38" RiffPosition="9.1875" Velocity="0" />
      <note Length="0.03125" Pitch="47" RiffPosition="9.25" Velocity="0" />
      <note Length="0.03125" Pitch="49" RiffPosition="9.28125" Velocity="0" />
      <note Length="0.015625" Pitch="47" RiffPosition="9.3125" Velocity="0" />
      <note Length="0.015625" Pitch="46" RiffPosition="9.328125" Velocity="0" />
      <note Length="0.0234375" Pitch="44" RiffPosition="9.34375" Velocity="0" />
      <note Length="0.0078125" Pitch="42" RiffPosition="9.3671875" Velocity="0" />
      <note Length="0.015625" Pitch="42" RiffPosition="9.375" Velocity="0" />
      <note Length="0.046875" Pitch="40" RiffPosition="9.390625" Velocity="0" />
      <note Length="0.015625" Pitch="43" RiffPosition="9.4375" Velocity="0" />
      <note Length="0.015625" Pitch="45" RiffPosition="9.453125" Velocity="0" />
      <note Length="0.015625" Pitch="46" RiffPosition="9.46875" Velocity="0" />
      <note Length="0.015625" Pitch="47" RiffPosition="9.484375" Velocity="0" />
      <note Length="0.015625" Pitch="49" RiffPosition="9.5" Velocity="0" />
      <note Length="0.015625" Pitch="51" RiffPosition="9.515625" Velocity="0" />
      <note Length="0.0078125" Pitch="51" RiffPosition="9.53125" Velocity="0" />
      <note Length="0.0234375" Pitch="49" RiffPosition="9.5390625" Velocity="0" />
      <note Length="0.015625" Pitch="46" RiffPosition="9.5625" Velocity="0" />
      <note Length="0.015625" Pitch="44" RiffPosition="9.578125" Velocity="0" />
      <note Length="0.0078125" Pitch="43" RiffPosition="9.59375" Velocity="0" />
      <note Length="0.0234375" Pitch="42" RiffPosition="9.6015625" Velocity="0" />
      <note Length="0.0625" Pitch="39" RiffPosition="9.625" Velocity="0" />
      <note Length="0.0625" Pitch="41" RiffPosition="9.6875" Velocity="0" />
      <note Length="0.03125" Pitch="47" RiffPosition="9.75" Velocity="0" />
      <note Length="0.03125" Pitch="49" RiffPosition="9.78125" Velocity="0" />
      <note Length="0.015625" Pitch="45" RiffPosition="9.8125" Velocity="0" />
      <note Length="0.015625" Pitch="44" RiffPosition="9.828125" Velocity="0" />
      <note Length="0.0234375" Pitch="42" RiffPosition="9.84375" Velocity="0" />
      <note Length="0.0078125" Pitch="39" RiffPosition="9.8671875" Velocity="0" />
      <note Length="0.015625" Pitch="39" RiffPosition="9.875" Velocity="0" />
      <note Length="0.046875" Pitch="37" RiffPosition="9.890625" Velocity="0" />
      <note Length="0.015625" Pitch="43" RiffPosition="9.9375" Velocity="0" />
      <note Length="0.015625" Pitch="45" RiffPosition="9.953125" Velocity="0" />
      <note Length="0.015625" Pitch="48" RiffPosition="9.96875" Velocity="0" />
      <note Length="0.015625" Pitch="50" RiffPosition="9.984375" Velocity="0" />
      <note Length="0.015625" Pitch="52" RiffPosition="10" Velocity="0" />
      <note Length="0.015625" Pitch="54" RiffPosition="10.015625" Velocity="0" />
      <note Length="0.0078125" Pitch="53" RiffPosition="10.03125" Velocity="0" />
      <note Length="0.0234375" Pitch="52" RiffPosition="10.0390625" Velocity="0" />
      <note Length="0.015625" Pitch="49" RiffPosition="10.0625" Velocity="0" />
      <note Length="0.015625" Pitch="46" RiffPosition="10.078125" Velocity="0" />
      <note Length="0.0078125" Pitch="43" RiffPosition="10.09375" Velocity="0" />
      <note Length="0.0234375" Pitch="42" RiffPosition="10.1015625" Velocity="0" />
      <note Length="0.0625" Pitch="39" RiffPosition="10.125" Velocity="0" />
      <note Length="0.0625" Pitch="38" RiffPosition="10.1875" Velocity="0" />
      <note Length="0.03125" Pitch="47" RiffPosition="10.25" Velocity="0" />
      <note Length="0.03125" Pitch="49" RiffPosition="10.28125" Velocity="0" />
      <note Length="0.015625" Pitch="47" RiffPosition="10.3125" Velocity="0" />
      <note Length="0.015625" Pitch="46" RiffPosition="10.328125" Velocity="0" />
      <note Length="0.0234375" Pitch="44" RiffPosition="10.34375" Velocity="0" />
      <note Length="0.0078125" Pitch="42" RiffPosition="10.3671875" Velocity="0" />
      <note Length="0.015625" Pitch="42" RiffPosition="10.375" Velocity="0" />
      <note Length="0.046875" Pitch="40" RiffPosition="10.390625" Velocity="0" />
      <note Length="0.015625" Pitch="43" RiffPosition="10.4375" Velocity="0" />
      <note Length="0.015625" Pitch="45" RiffPosition="10.453125" Velocity="0" />
      <note Length="0.015625" Pitch="46" RiffPosition="10.46875" Velocity="0" />
      <note Length="0.015625" Pitch="47" RiffPosition="10.484375" Velocity="0" />
      <note Length="0.015625" Pitch="49" RiffPosition="10.5" Velocity="0" />
      <note Length="0.015625" Pitch="51" RiffPosition="10.515625" Velocity="0" />
      <note Length="0.0078125" Pitch="51" RiffPosition="10.53125" Velocity="0" />
      <note Length="0.0234375" Pitch="49" RiffPosition="10.5390625" Velocity="0" />
      <note Length="0.015625" Pitch="46" RiffPosition="10.5625" Velocity="0" />
      <note Length="0.015625" Pitch="44" RiffPosition="10.578125" Velocity="0" />
      <note Length="0.0078125" Pitch="43" RiffPosition="10.59375" Velocity="0" />
      <note Length="0.0234375" Pitch="42" RiffPosition="10.6015625" Velocity="0" />
      <note Length="0.0625" Pitch="39" RiffPosition="10.625" Velocity="0" />
      <note Length="0.0625" Pitch="41" RiffPosition="10.6875" Velocity="0" />
      <note Length="0.03125" Pitch="47" RiffPosition="10.75" Velocity="0" />
      <note Length="0.03125" Pitch="49" RiffPosition="10.78125" Velocity="0" />
      <note Length="0.015625" Pitch="45" RiffPosition="10.8125" Velocity="0" />
      <note Length="0.015625" Pitch="44" RiffPosition="10.828125" Velocity="0" />
      <note Length="0.0234375" Pitch="42" RiffPosition="10.84375" Velocity="0" />
      <note Length="0.0078125" Pitch="39" RiffPosition="10.8671875" Velocity="0" />
      <note Length="0.015625" Pitch="39" RiffPosition="10.875" Velocity="0" />
      <note Length="0.046875" Pitch="37" RiffPosition="10.890625" Velocity="0" />
      <note Length="0.015625" Pitch="43" RiffPosition="10.9375" Velocity="0" />
      <note Length="0.015625" Pitch="45" RiffPosition="10.953125" Velocity="0" />
      <note Length="0.015625" Pitch="48" RiffPosition="10.96875" Velocity="0" />
      <note Length="0.015625" Pitch="50" RiffPosition="10.984375" Velocity="0" />
    </riff>
    <riff IsDrum="True" MidiInstrument="0" Tempo="105" Length="11">
      <note Length="0.015625" Pitch="46" RiffPosition="0" Velocity="121" />
      <note Length="0.015625" Pitch="40" RiffPosition="0.015625" Velocity="0" />
      <note Length="0.015625" Pitch="35" RiffPosition="0.03125" Velocity="0" />
      <note Length="0.015625" Pitch="35" RiffPosition="0.046875" Velocity="0" />
      <note Length="0.03125" Pitch="40" RiffPosition="0.0625" Velocity="0" />
      <note Length="0.0234375" Pitch="52" RiffPosition="0.09375" Velocity="69" />
      <note Length="0.0078125" Pitch="51" RiffPosition="0.1171875" Velocity="109" />
      <note Length="0.015625" Pitch="49" RiffPosition="0.125" Velocity="61" />
      <note Length="0.046875" Pitch="43" RiffPosition="0.140625" Velocity="43" />
      <note Length="0.03125" Pitch="43" RiffPosition="0.1875" Velocity="124" />
      <note Length="0.03125" Pitch="54" RiffPosition="0.21875" Velocity="115" />
      <note Length="0.015625" Pitch="49" RiffPosition="0.25" Velocity="65" />
      <note Length="0.015625" Pitch="43" RiffPosition="0.265625" Velocity="46" />
      <note Length="0.015625" Pitch="38" RiffPosition="0.28125" Velocity="0" />
      <note Length="0.015625" Pitch="37" RiffPosition="0.296875" Velocity="117" />
      <note Length="0.03125" Pitch="41" RiffPosition="0.3125" Velocity="108" />
      <note Length="0.0234375" Pitch="51" RiffPosition="0.34375" Velocity="104" />
      <note Length="0.0078125" Pitch="49" RiffPosition="0.3671875" Velocity="63" />
      <note Length="0.015625" Pitch="46" RiffPosition="0.375" Velocity="115" />
      <note Length="0.046875" Pitch="40" RiffPosition="0.390625" Velocity="0" />
      <note Length="0.03125" Pitch="38" RiffPosition="0.4375" Velocity="0" />
      <note Length="0.03125" Pitch="49" RiffPosition="0.46875" Velocity="66" />
      <note Length="0.015625" Pitch="46" RiffPosition="0.5" Velocity="104" />
      <note Length="0.015625" Pitch="40" RiffPosition="0.515625" Velocity="0" />
      <note Length="0.015625" Pitch="35" RiffPosition="0.53125" Velocity="0" />
      <note Length="0.015625" Pitch="35" RiffPosition="0.546875" Velocity="0" />
      <note Length="0.03125" Pitch="40" RiffPosition="0.5625" Velocity="0" />
      <note Length="0.0234375" Pitch="52" RiffPosition="0.59375" Velocity="60" />
      <note Length="0.0078125" Pitch="51" RiffPosition="0.6171875" Velocity="111" />
      <note Length="0.015625" Pitch="49" RiffPosition="0.625" Velocity="66" />
      <note Length="0.046875" Pitch="43" RiffPosition="0.640625" Velocity="47" />
      <note Length="0.03125" Pitch="43" RiffPosition="0.6875" Velocity="114" />
      <note Length="0.03125" Pitch="54" RiffPosition="0.71875" Velocity="117" />
      <note Length="0.015625" Pitch="49" RiffPosition="0.75" Velocity="60" />
      <note Length="0.015625" Pitch="43" RiffPosition="0.765625" Velocity="44" />
      <note Length="0.015625" Pitch="38" RiffPosition="0.78125" Velocity="0" />
      <note Length="0.015625" Pitch="37" RiffPosition="0.796875" Velocity="107" />
      <note Length="0.03125" Pitch="41" RiffPosition="0.8125" Velocity="106" />
      <note Length="0.0234375" Pitch="51" RiffPosition="0.84375" Velocity="114" />
      <note Length="0.0078125" Pitch="49" RiffPosition="0.8671875" Velocity="64" />
      <note Length="0.015625" Pitch="46" RiffPosition="0.875" Velocity="117" />
      <note Length="0.046875" Pitch="40" RiffPosition="0.890625" Velocity="0" />
      <note Length="0.03125" Pitch="38" RiffPosition="0.9375" Velocity="0" />
      <note Length="0.03125" Pitch="49" RiffPosition="0.96875" Velocity="68" />
      <note Length="0.015625" Pitch="46" RiffPosition="1" Velocity="114" />
      <note Length="0.015625" Pitch="40" RiffPosition="1.015625" Velocity="0" />
      <note Length="0.015625" Pitch="35" RiffPosition="1.03125" Velocity="0" />
      <note Length="0.015625" Pitch="35" RiffPosition="1.046875" Velocity="0" />
      <note Length="0.03125" Pitch="40" RiffPosition="1.0625" Velocity="0" />
      <note Length="0.0234375" Pitch="52" RiffPosition="1.09375" Velocity="61" />
      <note Length="0.0078125" Pitch="51" RiffPosition="1.1171875" Velocity="121" />
      <note Length="0.015625" Pitch="49" RiffPosition="1.125" Velocity="67" />
      <note Length="0.046875" Pitch="43" RiffPosition="1.140625" Velocity="50" />
      <note Length="0.03125" Pitch="43" RiffPosition="1.1875" Velocity="112" />
      <note Length="0.03125" Pitch="54" RiffPosition="1.21875" Velocity="108" />
      <note Length="0.015625" Pitch="49" RiffPosition="1.25" Velocity="61" />
      <note Length="0.015625" Pitch="43" RiffPosition="1.265625" Velocity="46" />
      <note Length="0.015625" Pitch="38" RiffPosition="1.28125" Velocity="0" />
      <note Length="0.015625" Pitch="37" RiffPosition="1.296875" Velocity="125" />
      <note Length="0.03125" Pitch="41" RiffPosition="1.3125" Velocity="123" />
      <note Length="0.0234375" Pitch="51" RiffPosition="1.34375" Velocity="116" />
      <note Length="0.0078125" Pitch="49" RiffPosition="1.3671875" Velocity="69" />
      <note Length="0.015625" Pitch="46" RiffPosition="1.375" Velocity="108" />
      <note Length="0.046875" Pitch="40" RiffPosition="1.390625" Velocity="0" />
      <note Length="0.03125" Pitch="38" RiffPosition="1.4375" Velocity="0" />
      <note Length="0.03125" Pitch="49" RiffPosition="1.46875" Velocity="58" />
      <note Length="0.015625" Pitch="46" RiffPosition="1.5" Velocity="116" />
      <note Length="0.015625" Pitch="40" RiffPosition="1.515625" Velocity="0" />
      <note Length="0.015625" Pitch="35" RiffPosition="1.53125" Velocity="0" />
      <note Length="0.015625" Pitch="35" RiffPosition="1.546875" Velocity="0" />
      <note Length="0.03125" Pitch="40" RiffPosition="1.5625" Velocity="0" />
      <note Length="0.0234375" Pitch="52" RiffPosition="1.59375" Velocity="67" />
      <note Length="0.0078125" Pitch="51" RiffPosition="1.6171875" Velocity="104" />
      <note Length="0.015625" Pitch="49" RiffPosition="1.625" Velocity="58" />
      <note Length="0.046875" Pitch="43" RiffPosition="1.640625" Velocity="40" />
      <note Length="0.03125" Pitch="43" RiffPosition="1.6875" Velocity="102" />
      <note Length="0.03125" Pitch="54" RiffPosition="1.71875" Velocity="110" />
      <note Length="0.015625" Pitch="49" RiffPosition="1.75" Velocity="67" />
      <note Length="0.015625" Pitch="43" RiffPosition="1.765625" Velocity="48" />
      <note Length="0.015625" Pitch="38" RiffPosition="1.78125" Velocity="0" />
      <note Length="0.015625" Pitch="37" RiffPosition="1.796875" Velocity="114" />
      <note Length="0.03125" Pitch="41" RiffPosition="1.8125" Velocity="113" />
      <note Length="0.0234375" Pitch="51" RiffPosition="1.84375" Velocity="119" />
      <note Length="0.0078125" Pitch="49" RiffPosition="1.8671875" Velocity="60" />
      <note Length="0.015625" Pitch="46" RiffPosition="1.875" Velocity="110" />
      <note Length="0.046875" Pitch="40" RiffPosition="1.890625" Velocity="0" />
      <note Length="0.03125" Pitch="38" RiffPosition="1.9375" Velocity="0" />
      <note Length="0.03125" Pitch="49" RiffPosition="1.96875" Velocity="63" />
      <note Length="0.015625" Pitch="46" RiffPosition="2" Velocity="118" />
      <note Length="0.015625" Pitch="40" RiffPosition="2.015625" Velocity="0" />
      <note Length="0.015625" Pitch="35" RiffPosition="2.03125" Velocity="0" />
      <note Length="0.015625" Pitch="35" RiffPosition="2.046875" Velocity="0" />
      <note Length="0.03125" Pitch="40" RiffPosition="2.0625" Velocity="0" />
      <note Length="0.0234375" Pitch="52" RiffPosition="2.09375" Velocity="57" />
      <note Length="0.0078125" Pitch="51" RiffPosition="2.1171875" Velocity="114" />
      <note Length="0.015625" Pitch="49" RiffPosition="2.125" Velocity="63" />
      <note Length="0.046875" Pitch="43" RiffPosition="2.140625" Velocity="42" />
      <note Length="0.03125" Pitch="43" RiffPosition="2.1875" Velocity="119" />
      <note Length="0.03125" Pitch="54" RiffPosition="2.21875" Velocity="120" />
      <note Length="0.015625" Pitch="49" RiffPosition="2.25" Velocity="57" />
      <note Length="0.015625" Pitch="43" RiffPosition="2.265625" Velocity="49" />
      <note Length="0.015625" Pitch="38" RiffPosition="2.28125" Velocity="0" />
      <note Length="0.015625" Pitch="37" RiffPosition="2.296875" Velocity="112" />
      <note Length="0.03125" Pitch="41" RiffPosition="2.3125" Velocity="111" />
      <note Length="0.0234375" Pitch="51" RiffPosition="2.34375" Velocity="109" />
      <note Length="0.0078125" Pitch="49" RiffPosition="2.3671875" Velocity="61" />
      <note Length="0.015625" Pitch="46" RiffPosition="2.375" Velocity="120" />
      <note Length="0.046875" Pitch="40" RiffPosition="2.390625" Velocity="0" />
      <note Length="0.03125" Pitch="38" RiffPosition="2.4375" Velocity="0" />
      <note Length="0.03125" Pitch="49" RiffPosition="2.46875" Velocity="64" />
      <note Length="0.015625" Pitch="46" RiffPosition="2.5" Velocity="109" />
      <note Length="0.015625" Pitch="40" RiffPosition="2.515625" Velocity="0" />
      <note Length="0.015625" Pitch="35" RiffPosition="2.53125" Velocity="0" />
      <note Length="0.015625" Pitch="35" RiffPosition="2.546875" Velocity="0" />
      <note Length="0.03125" Pitch="40" RiffPosition="2.5625" Velocity="0" />
      <note Length="0.0234375" Pitch="52" RiffPosition="2.59375" Velocity="63" />
      <note Length="0.0078125" Pitch="51" RiffPosition="2.6171875" Velocity="116" />
      <note Length="0.015625" Pitch="49" RiffPosition="2.625" Velocity="64" />
      <note Length="0.046875" Pitch="43" RiffPosition="2.640625" Velocity="52" />
      <note Length="0.03125" Pitch="43" RiffPosition="2.6875" Velocity="117" />
      <note Length="0.03125" Pitch="54" RiffPosition="2.71875" Velocity="122" />
      <note Length="0.015625" Pitch="49" RiffPosition="2.75" Velocity="63" />
      <note Length="0.015625" Pitch="43" RiffPosition="2.765625" Velocity="41" />
      <note Length="0.015625" Pitch="38" RiffPosition="2.78125" Velocity="0" />
      <note Length="0.015625" Pitch="37" RiffPosition="2.796875" Velocity="110" />
      <note Length="0.03125" Pitch="41" RiffPosition="2.8125" Velocity="120" />
      <note Length="0.0234375" Pitch="51" RiffPosition="2.84375" Velocity="111" />
      <note Length="0.0078125" Pitch="49" RiffPosition="2.8671875" Velocity="67" />
      <note Length="0.015625" Pitch="46" RiffPosition="2.875" Velocity="122" />
      <note Length="0.046875" Pitch="40" RiffPosition="2.890625" Velocity="0" />
      <note Length="0.03125" Pitch="38" RiffPosition="2.9375" Velocity="0" />
      <note Length="0.03125" Pitch="49" RiffPosition="2.96875" Velocity="59" />
      <note Length="0.015625" Pitch="46" RiffPosition="3" Velocity="111" />
      <note Length="0.015625" Pitch="40" RiffPosition="3.015625" Velocity="0" />
      <note Length="0.015625" Pitch="35" RiffPosition="3.03125" Velocity="0" />
      <note Length="0.015625" Pitch="35" RiffPosition="3.046875" Velocity="0" />
      <note Length="0.03125" Pitch="40" RiffPosition="3.0625" Velocity="0" />
      <note Length="0.0234375" Pitch="52" RiffPosition="3.09375" Velocity="64" />
      <note Length="0.0078125" Pitch="51" RiffPosition="3.1171875" Velocity="119" />
      <note Length="0.015625" Pitch="49" RiffPosition="3.125" Velocity="59" />
      <note Length="0.046875" Pitch="43" RiffPosition="3.140625" Velocity="45" />
      <note Length="0.03125" Pitch="43" RiffPosition="3.1875" Velocity="107" />
      <note Length="0.03125" Pitch="54" RiffPosition="3.21875" Velocity="105" />
      <note Length="0.015625" Pitch="49" RiffPosition="3.25" Velocity="64" />
      <note Length="0.015625" Pitch="43" RiffPosition="3.265625" Velocity="43" />
      <note Length="0.015625" Pitch="38" RiffPosition="3.28125" Velocity="0" />
      <note Length="0.015625" Pitch="37" RiffPosition="3.296875" Velocity="120" />
      <note Length="0.03125" Pitch="41" RiffPosition="3.3125" Velocity="118" />
      <note Length="0.0234375" Pitch="51" RiffPosition="3.34375" Velocity="121" />
      <note Length="0.0078125" Pitch="49" RiffPosition="3.3671875" Velocity="57" />
      <note Length="0.015625" Pitch="46" RiffPosition="3.375" Velocity="105" />
      <note Length="0.046875" Pitch="40" RiffPosition="3.390625" Velocity="0" />
      <note Length="0.03125" Pitch="38" RiffPosition="3.4375" Velocity="0" />
      <note Length="0.03125" Pitch="49" RiffPosition="3.46875" Velocity="61" />
      <note Length="0.015625" Pitch="46" RiffPosition="3.5" Velocity="121" />
      <note Length="0.015625" Pitch="40" RiffPosition="3.515625" Velocity="0" />
      <note Length="0.015625" Pitch="35" RiffPosition="3.53125" Velocity="0" />
      <note Length="0.015625" Pitch="35" RiffPosition="3.546875" Velocity="0" />
      <note Length="0.03125" Pitch="40" RiffPosition="3.5625" Velocity="0" />
      <note Length="0.0234375" Pitch="52" RiffPosition="3.59375" Velocity="65" />
      <note Length="0.0078125" Pitch="51" RiffPosition="3.6171875" Velocity="109" />
      <note Length="0.015625" Pitch="49" RiffPosition="3.625" Velocity="61" />
      <note Length="0.046875" Pitch="43" RiffPosition="3.640625" Velocity="43" />
      <note Length="0.03125" Pitch="43" RiffPosition="3.6875" Velocity="124" />
      <note Length="0.03125" Pitch="54" RiffPosition="3.71875" Velocity="115" />
      <note Length="0.015625" Pitch="49" RiffPosition="3.75" Velocity="65" />
      <note Length="0.015625" Pitch="43" RiffPosition="3.765625" Velocity="46" />
      <note Length="0.015625" Pitch="38" RiffPosition="3.78125" Velocity="0" />
      <note Length="0.015625" Pitch="37" RiffPosition="3.796875" Velocity="117" />
      <note Length="0.03125" Pitch="41" RiffPosition="3.8125" Velocity="108" />
      <note Length="0.0234375" Pitch="51" RiffPosition="3.84375" Velocity="104" />
      <note Length="0.0078125" Pitch="49" RiffPosition="3.8671875" Velocity="63" />
      <note Length="0.015625" Pitch="46" RiffPosition="3.875" Velocity="115" />
      <note Length="0.046875" Pitch="40" RiffPosition="3.890625" Velocity="0" />
      <note Length="0.03125" Pitch="38" RiffPosition="3.9375" Velocity="0" />
      <note Length="0.03125" Pitch="49" RiffPosition="3.96875" Velocity="66" />
      <note Length="0.015625" Pitch="46" RiffPosition="4" Velocity="104" />
      <note Length="0.015625" Pitch="40" RiffPosition="4.015625" Velocity="0" />
      <note Length="0.015625" Pitch="35" RiffPosition="4.03125" Velocity="0" />
      <note Length="0.015625" Pitch="35" RiffPosition="4.046875" Velocity="0" />
      <note Length="0.03125" Pitch="40" RiffPosition="4.0625" Velocity="0" />
      <note Length="0.0234375" Pitch="52" RiffPosition="4.09375" Velocity="60" />
      <note Length="0.0078125" Pitch="51" RiffPosition="4.1171875" Velocity="111" />
      <note Length="0.015625" Pitch="49" RiffPosition="4.125" Velocity="62" />
      <note Length="0.046875" Pitch="43" RiffPosition="4.140625" Velocity="47" />
      <note Length="0.03125" Pitch="43" RiffPosition="4.1875" Velocity="114" />
      <note Length="0.03125" Pitch="54" RiffPosition="4.21875" Velocity="117" />
      <note Length="0.015625" Pitch="49" RiffPosition="4.25" Velocity="60" />
      <note Length="0.015625" Pitch="43" RiffPosition="4.265625" Velocity="44" />
      <note Length="0.015625" Pitch="38" RiffPosition="4.28125" Velocity="0" />
      <note Length="0.015625" Pitch="37" RiffPosition="4.296875" Velocity="107" />
      <note Length="0.03125" Pitch="41" RiffPosition="4.3125" Velocity="106" />
      <note Length="0.0234375" Pitch="51" RiffPosition="4.34375" Velocity="114" />
      <note Length="0.0078125" Pitch="49" RiffPosition="4.3671875" Velocity="64" />
      <note Length="0.015625" Pitch="46" RiffPosition="4.375" Velocity="117" />
      <note Length="0.046875" Pitch="40" RiffPosition="4.390625" Velocity="0" />
      <note Length="0.03125" Pitch="38" RiffPosition="4.4375" Velocity="0" />
      <note Length="0.03125" Pitch="49" RiffPosition="4.46875" Velocity="67" />
      <note Length="0.015625" Pitch="46" RiffPosition="4.5" Velocity="114" />
      <note Length="0.015625" Pitch="40" RiffPosition="4.515625" Velocity="0" />
      <note Length="0.015625" Pitch="35" RiffPosition="4.53125" Velocity="0" />
      <note Length="0.015625" Pitch="35" RiffPosition="4.546875" Velocity="0" />
      <note Length="0.03125" Pitch="40" RiffPosition="4.5625" Velocity="0" />
      <note Length="0.0234375" Pitch="52" RiffPosition="4.59375" Velocity="61" />
      <note Length="0.0078125" Pitch="51" RiffPosition="4.6171875" Velocity="121" />
      <note Length="0.015625" Pitch="49" RiffPosition="4.625" Velocity="67" />
      <note Length="0.046875" Pitch="43" RiffPosition="4.640625" Velocity="50" />
      <note Length="0.03125" Pitch="43" RiffPosition="4.6875" Velocity="112" />
      <note Length="0.03125" Pitch="54" RiffPosition="4.71875" Velocity="108" />
      <note Length="0.015625" Pitch="49" RiffPosition="4.75" Velocity="61" />
      <note Length="0.015625" Pitch="43" RiffPosition="4.765625" Velocity="46" />
      <note Length="0.015625" Pitch="38" RiffPosition="4.78125" Velocity="0" />
      <note Length="0.015625" Pitch="37" RiffPosition="4.796875" Velocity="125" />
      <note Length="0.03125" Pitch="41" RiffPosition="4.8125" Velocity="123" />
      <note Length="0.0234375" Pitch="51" RiffPosition="4.84375" Velocity="116" />
      <note Length="0.0078125" Pitch="49" RiffPosition="4.8671875" Velocity="65" />
      <note Length="0.015625" Pitch="46" RiffPosition="4.875" Velocity="108" />
      <note Length="0.046875" Pitch="40" RiffPosition="4.890625" Velocity="0" />
      <note Length="0.03125" Pitch="38" RiffPosition="4.9375" Velocity="0" />
      <note Length="0.03125" Pitch="49" RiffPosition="4.96875" Velocity="58" />
      <note Length="0.015625" Pitch="46" RiffPosition="5" Velocity="116" />
      <note Length="0.015625" Pitch="40" RiffPosition="5.015625" Velocity="0" />
      <note Length="0.015625" Pitch="35" RiffPosition="5.03125" Velocity="0" />
      <note Length="0.015625" Pitch="35" RiffPosition="5.046875" Velocity="0" />
      <note Length="0.03125" Pitch="40" RiffPosition="5.0625" Velocity="0" />
      <note Length="0.0234375" Pitch="52" RiffPosition="5.09375" Velocity="67" />
      <note Length="0.0078125" Pitch="51" RiffPosition="5.1171875" Velocity="104" />
      <note Length="0.015625" Pitch="49" RiffPosition="5.125" Velocity="58" />
      <note Length="0.046875" Pitch="43" RiffPosition="5.140625" Velocity="40" />
      <note Length="0.03125" Pitch="43" RiffPosition="5.1875" Velocity="102" />
      <note Length="0.03125" Pitch="54" RiffPosition="5.21875" Velocity="110" />
      <note Length="0.015625" Pitch="49" RiffPosition="5.25" Velocity="67" />
      <note Length="0.015625" Pitch="43" RiffPosition="5.265625" Velocity="48" />
      <note Length="0.015625" Pitch="38" RiffPosition="5.28125" Velocity="0" />
      <note Length="0.015625" Pitch="37" RiffPosition="5.296875" Velocity="115" />
      <note Length="0.03125" Pitch="41" RiffPosition="5.3125" Velocity="113" />
      <note Length="0.0234375" Pitch="51" RiffPosition="5.34375" Velocity="118" />
      <note Length="0.0078125" Pitch="49" RiffPosition="5.3671875" Velocity="60" />
      <note Length="0.015625" Pitch="46" RiffPosition="5.375" Velocity="110" />
      <note Length="0.046875" Pitch="40" RiffPosition="5.390625" Velocity="0" />
      <note Length="0.03125" Pitch="38" RiffPosition="5.4375" Velocity="0" />
      <note Length="0.03125" Pitch="49" RiffPosition="5.46875" Velocity="63" />
      <note Length="0.015625" Pitch="46" RiffPosition="5.5" Velocity="118" />
      <note Length="0.015625" Pitch="40" RiffPosition="5.515625" Velocity="0" />
      <note Length="0.015625" Pitch="35" RiffPosition="5.53125" Velocity="0" />
      <note Length="0.015625" Pitch="35" RiffPosition="5.546875" Velocity="0" />
      <note Length="0.03125" Pitch="40" RiffPosition="5.5625" Velocity="0" />
      <note Length="0.0234375" Pitch="52" RiffPosition="5.59375" Velocity="57" />
      <note Length="0.0078125" Pitch="51" RiffPosition="5.6171875" Velocity="114" />
      <note Length="0.015625" Pitch="49" RiffPosition="5.625" Velocity="63" />
      <note Length="0.046875" Pitch="43" RiffPosition="5.640625" Velocity="42" />
      <note Length="0.03125" Pitch="43" RiffPosition="5.6875" Velocity="119" />
      <note Length="0.03125" Pitch="54" RiffPosition="5.71875" Velocity="120" />
      <note Length="0.015625" Pitch="49" RiffPosition="5.75" Velocity="57" />
      <note Length="0.015625" Pitch="43" RiffPosition="5.765625" Velocity="49" />
      <note Length="0.015625" Pitch="38" RiffPosition="5.78125" Velocity="0" />
      <note Length="0.015625" Pitch="37" RiffPosition="5.796875" Velocity="112" />
      <note Length="0.03125" Pitch="41" RiffPosition="5.8125" Velocity="111" />
      <note Length="0.0234375" Pitch="51" RiffPosition="5.84375" Velocity="109" />
      <note Length="0.0078125" Pitch="49" RiffPosition="5.8671875" Velocity="61" />
      <note Length="0.015625" Pitch="46" RiffPosition="5.875" Velocity="112" />
      <note Length="0.046875" Pitch="40" RiffPosition="5.890625" Velocity="0" />
      <note Length="0.03125" Pitch="38" RiffPosition="5.9375" Velocity="0" />
      <note Length="0.03125" Pitch="49" RiffPosition="5.96875" Velocity="64" />
      <note Length="0.015625" Pitch="46" RiffPosition="6" Velocity="109" />
      <note Length="0.015625" Pitch="40" RiffPosition="6.015625" Velocity="0" />
      <note Length="0.015625" Pitch="35" RiffPosition="6.03125" Velocity="0" />
      <note Length="0.015625" Pitch="35" RiffPosition="6.046875" Velocity="0" />
      <note Length="0.03125" Pitch="40" RiffPosition="6.0625" Velocity="0" />
      <note Length="0.0234375" Pitch="52" RiffPosition="6.09375" Velocity="63" />
      <note Length="0.0078125" Pitch="51" RiffPosition="6.1171875" Velocity="116" />
      <note Length="0.015625" Pitch="49" RiffPosition="6.125" Velocity="64" />
      <note Length="0.046875" Pitch="43" RiffPosition="6.140625" Velocity="44" />
      <note Length="0.03125" Pitch="43" RiffPosition="6.1875" Velocity="117" />
      <note Length="0.03125" Pitch="54" RiffPosition="6.21875" Velocity="122" />
      <note Length="0.015625" Pitch="49" RiffPosition="6.25" Velocity="63" />
      <note Length="0.015625" Pitch="43" RiffPosition="6.265625" Velocity="41" />
      <note Length="0.015625" Pitch="38" RiffPosition="6.28125" Velocity="0" />
      <note Length="0.015625" Pitch="37" RiffPosition="6.296875" Velocity="110" />
      <note Length="0.03125" Pitch="41" RiffPosition="6.3125" Velocity="120" />
      <note Length="0.0234375" Pitch="51" RiffPosition="6.34375" Velocity="111" />
      <note Length="0.0078125" Pitch="49" RiffPosition="6.3671875" Velocity="67" />
      <note Length="0.015625" Pitch="46" RiffPosition="6.375" Velocity="122" />
      <note Length="0.046875" Pitch="40" RiffPosition="6.390625" Velocity="0" />
      <note Length="0.03125" Pitch="38" RiffPosition="6.4375" Velocity="0" />
      <note Length="0.03125" Pitch="49" RiffPosition="6.46875" Velocity="59" />
      <note Length="0.015625" Pitch="46" RiffPosition="6.5" Velocity="111" />
      <note Length="0.015625" Pitch="40" RiffPosition="6.515625" Velocity="0" />
      <note Length="0.015625" Pitch="35" RiffPosition="6.53125" Velocity="0" />
      <note Length="0.015625" Pitch="35" RiffPosition="6.546875" Velocity="0" />
      <note Length="0.03125" Pitch="40" RiffPosition="6.5625" Velocity="0" />
      <note Length="0.0234375" Pitch="52" RiffPosition="6.59375" Velocity="64" />
      <note Length="0.0078125" Pitch="51" RiffPosition="6.6171875" Velocity="118" />
      <note Length="0.015625" Pitch="49" RiffPosition="6.625" Velocity="59" />
      <note Length="0.046875" Pitch="43" RiffPosition="6.640625" Velocity="45" />
      <note Length="0.03125" Pitch="43" RiffPosition="6.6875" Velocity="107" />
      <note Length="0.03125" Pitch="54" RiffPosition="6.71875" Velocity="105" />
      <note Length="0.015625" Pitch="49" RiffPosition="6.75" Velocity="64" />
      <note Length="0.015625" Pitch="43" RiffPosition="6.765625" Velocity="43" />
      <note Length="0.015625" Pitch="38" RiffPosition="6.78125" Velocity="0" />
      <note Length="0.015625" Pitch="37" RiffPosition="6.796875" Velocity="120" />
      <note Length="0.03125" Pitch="41" RiffPosition="6.8125" Velocity="118" />
      <note Length="0.0234375" Pitch="51" RiffPosition="6.84375" Velocity="121" />
      <note Length="0.0078125" Pitch="49" RiffPosition="6.8671875" Velocity="57" />
      <note Length="0.015625" Pitch="46" RiffPosition="6.875" Velocity="105" />
      <note Length="0.046875" Pitch="40" RiffPosition="6.890625" Velocity="0" />
      <note Length="0.03125" Pitch="38" RiffPosition="6.9375" Velocity="0" />
      <note Length="0.03125" Pitch="49" RiffPosition="6.96875" Velocity="61" />
      <note Length="0.015625" Pitch="46" RiffPosition="7" Velocity="121" />
      <note Length="0.015625" Pitch="40" RiffPosition="7.015625" Velocity="0" />
      <note Length="0.015625" Pitch="35" RiffPosition="7.03125" Velocity="0" />
      <note Length="0.015625" Pitch="35" RiffPosition="7.046875" Velocity="0" />
      <note Length="0.03125" Pitch="40" RiffPosition="7.0625" Velocity="0" />
      <note Length="0.0234375" Pitch="52" RiffPosition="7.09375" Velocity="65" />
      <note Length="0.0078125" Pitch="51" RiffPosition="7.1171875" Velocity="109" />
      <note Length="0.015625" Pitch="49" RiffPosition="7.125" Velocity="61" />
      <note Length="0.046875" Pitch="43" RiffPosition="7.140625" Velocity="43" />
      <note Length="0.03125" Pitch="43" RiffPosition="7.1875" Velocity="124" />
      <note Length="0.03125" Pitch="54" RiffPosition="7.21875" Velocity="115" />
      <note Length="0.015625" Pitch="49" RiffPosition="7.25" Velocity="65" />
      <note Length="0.015625" Pitch="43" RiffPosition="7.265625" Velocity="46" />
      <note Length="0.015625" Pitch="38" RiffPosition="7.28125" Velocity="0" />
      <note Length="0.015625" Pitch="37" RiffPosition="7.296875" Velocity="118" />
      <note Length="0.03125" Pitch="41" RiffPosition="7.3125" Velocity="108" />
      <note Length="0.0234375" Pitch="51" RiffPosition="7.34375" Velocity="104" />
      <note Length="0.0078125" Pitch="49" RiffPosition="7.3671875" Velocity="63" />
      <note Length="0.015625" Pitch="46" RiffPosition="7.375" Velocity="115" />
      <note Length="0.046875" Pitch="40" RiffPosition="7.390625" Velocity="0" />
      <note Length="0.03125" Pitch="38" RiffPosition="7.4375" Velocity="0" />
      <note Length="0.03125" Pitch="49" RiffPosition="7.46875" Velocity="66" />
      <note Length="0.015625" Pitch="46" RiffPosition="7.5" Velocity="123" />
      <note Length="0.015625" Pitch="40" RiffPosition="7.515625" Velocity="0" />
      <note Length="0.015625" Pitch="35" RiffPosition="7.53125" Velocity="0" />
      <note Length="0.015625" Pitch="35" RiffPosition="7.546875" Velocity="0" />
      <note Length="0.03125" Pitch="40" RiffPosition="7.5625" Velocity="0" />
      <note Length="0.0234375" Pitch="52" RiffPosition="7.59375" Velocity="60" />
      <note Length="0.0078125" Pitch="51" RiffPosition="7.6171875" Velocity="111" />
      <note Length="0.015625" Pitch="49" RiffPosition="7.625" Velocity="62" />
      <note Length="0.046875" Pitch="43" RiffPosition="7.640625" Velocity="47" />
      <note Length="0.03125" Pitch="43" RiffPosition="7.6875" Velocity="114" />
      <note Length="0.03125" Pitch="54" RiffPosition="7.71875" Velocity="117" />
      <note Length="0.015625" Pitch="49" RiffPosition="7.75" Velocity="60" />
      <note Length="0.015625" Pitch="43" RiffPosition="7.765625" Velocity="44" />
      <note Length="0.015625" Pitch="38" RiffPosition="7.78125" Velocity="0" />
      <note Length="0.015625" Pitch="37" RiffPosition="7.796875" Velocity="107" />
      <note Length="0.03125" Pitch="41" RiffPosition="7.8125" Velocity="106" />
      <note Length="0.0234375" Pitch="51" RiffPosition="7.84375" Velocity="114" />
      <note Length="0.0078125" Pitch="49" RiffPosition="7.8671875" Velocity="64" />
      <note Length="0.015625" Pitch="46" RiffPosition="7.875" Velocity="117" />
      <note Length="0.046875" Pitch="40" RiffPosition="7.890625" Velocity="0" />
      <note Length="0.03125" Pitch="38" RiffPosition="7.9375" Velocity="0" />
      <note Length="0.03125" Pitch="49" RiffPosition="7.96875" Velocity="67" />
      <note Length="0.015625" Pitch="46" RiffPosition="8" Velocity="114" />
      <note Length="0.015625" Pitch="40" RiffPosition="8.015625" Velocity="0" />
      <note Length="0.015625" Pitch="35" RiffPosition="8.03125" Velocity="0" />
      <note Length="0.015625" Pitch="35" RiffPosition="8.046875" Velocity="0" />
      <note Length="0.03125" Pitch="40" RiffPosition="8.0625" Velocity="0" />
      <note Length="0.0234375" Pitch="52" RiffPosition="8.09375" Velocity="61" />
      <note Length="0.0078125" Pitch="51" RiffPosition="8.1171875" Velocity="121" />
      <note Length="0.015625" Pitch="49" RiffPosition="8.125" Velocity="67" />
      <note Length="0.046875" Pitch="43" RiffPosition="8.140625" Velocity="50" />
      <note Length="0.03125" Pitch="43" RiffPosition="8.1875" Velocity="112" />
      <note Length="0.03125" Pitch="54" RiffPosition="8.21875" Velocity="108" />
      <note Length="0.015625" Pitch="49" RiffPosition="8.25" Velocity="61" />
      <note Length="0.015625" Pitch="43" RiffPosition="8.265625" Velocity="46" />
      <note Length="0.015625" Pitch="38" RiffPosition="8.28125" Velocity="0" />
      <note Length="0.015625" Pitch="37" RiffPosition="8.296875" Velocity="125" />
      <note Length="0.03125" Pitch="41" RiffPosition="8.3125" Velocity="123" />
      <note Length="0.0234375" Pitch="51" RiffPosition="8.34375" Velocity="116" />
      <note Length="0.0078125" Pitch="49" RiffPosition="8.3671875" Velocity="65" />
      <note Length="0.015625" Pitch="46" RiffPosition="8.375" Velocity="127" />
      <note Length="0.046875" Pitch="40" RiffPosition="8.390625" Velocity="0" />
      <note Length="0.03125" Pitch="38" RiffPosition="8.4375" Velocity="0" />
      <note Length="0.03125" Pitch="49" RiffPosition="8.46875" Velocity="58" />
      <note Length="0.015625" Pitch="46" RiffPosition="8.5" Velocity="116" />
      <note Length="0.015625" Pitch="40" RiffPosition="8.515625" Velocity="0" />
      <note Length="0.015625" Pitch="35" RiffPosition="8.53125" Velocity="0" />
      <note Length="0.015625" Pitch="35" RiffPosition="8.546875" Velocity="0" />
      <note Length="0.03125" Pitch="40" RiffPosition="8.5625" Velocity="0" />
      <note Length="0.0234375" Pitch="52" RiffPosition="8.59375" Velocity="67" />
      <note Length="0.0078125" Pitch="51" RiffPosition="8.6171875" Velocity="104" />
      <note Length="0.015625" Pitch="49" RiffPosition="8.625" Velocity="58" />
      <note Length="0.046875" Pitch="43" RiffPosition="8.640625" Velocity="40" />
      <note Length="0.03125" Pitch="43" RiffPosition="8.6875" Velocity="110" />
      <note Length="0.03125" Pitch="54" RiffPosition="8.71875" Velocity="110" />
      <note Length="0.015625" Pitch="49" RiffPosition="8.75" Velocity="67" />
      <note Length="0.015625" Pitch="43" RiffPosition="8.765625" Velocity="48" />
      <note Length="0.015625" Pitch="38" RiffPosition="8.78125" Velocity="0" />
      <note Length="0.015625" Pitch="37" RiffPosition="8.796875" Velocity="115" />
      <note Length="0.03125" Pitch="41" RiffPosition="8.8125" Velocity="113" />
      <note Length="0.0234375" Pitch="51" RiffPosition="8.84375" Velocity="118" />
      <note Length="0.0078125" Pitch="49" RiffPosition="8.8671875" Velocity="60" />
      <note Length="0.015625" Pitch="46" RiffPosition="8.875" Velocity="110" />
      <note Length="0.046875" Pitch="40" RiffPosition="8.890625" Velocity="0" />
      <note Length="0.03125" Pitch="38" RiffPosition="8.9375" Velocity="0" />
      <note Length="0.03125" Pitch="49" RiffPosition="8.96875" Velocity="63" />
      <note Length="0.015625" Pitch="46" RiffPosition="9" Velocity="0" />
      <note Length="0.015625" Pitch="40" RiffPosition="9.015625" Velocity="0" />
      <note Length="0.015625" Pitch="35" RiffPosition="9.03125" Velocity="0" />
      <note Length="0.015625" Pitch="35" RiffPosition="9.046875" Velocity="0" />
      <note Length="0.03125" Pitch="40" RiffPosition="9.0625" Velocity="0" />
      <note Length="0.0234375" Pitch="52" RiffPosition="9.09375" Velocity="0" />
      <note Length="0.0078125" Pitch="51" RiffPosition="9.1171875" Velocity="0" />
      <note Length="0.015625" Pitch="49" RiffPosition="9.125" Velocity="0" />
      <note Length="0.046875" Pitch="43" RiffPosition="9.140625" Velocity="0" />
      <note Length="0.03125" Pitch="43" RiffPosition="9.1875" Velocity="0" />
      <note Length="0.03125" Pitch="54" RiffPosition="9.21875" Velocity="0" />
      <note Length="0.015625" Pitch="49" RiffPosition="9.25" Velocity="0" />
      <note Length="0.015625" Pitch="43" RiffPosition="9.265625" Velocity="0" />
      <note Length="0.015625" Pitch="38" RiffPosition="9.28125" Velocity="0" />
      <note Length="0.015625" Pitch="37" RiffPosition="9.296875" Velocity="0" />
      <note Length="0.03125" Pitch="41" RiffPosition="9.3125" Velocity="0" />
      <note Length="0.0234375" Pitch="51" RiffPosition="9.34375" Velocity="0" />
      <note Length="0.0078125" Pitch="49" RiffPosition="9.3671875" Velocity="0" />
      <note Length="0.015625" Pitch="46" RiffPosition="9.375" Velocity="0" />
      <note Length="0.046875" Pitch="40" RiffPosition="9.390625" Velocity="0" />
      <note Length="0.03125" Pitch="38" RiffPosition="9.4375" Velocity="0" />
      <note Length="0.03125" Pitch="49" RiffPosition="9.46875" Velocity="0" />
      <note Length="0.015625" Pitch="46" RiffPosition="9.5" Velocity="0" />
      <note Length="0.015625" Pitch="40" RiffPosition="9.515625" Velocity="0" />
      <note Length="0.015625" Pitch="35" RiffPosition="9.53125" Velocity="0" />
      <note Length="0.015625" Pitch="35" RiffPosition="9.546875" Velocity="0" />
      <note Length="0.03125" Pitch="40" RiffPosition="9.5625" Velocity="0" />
      <note Length="0.0234375" Pitch="52" RiffPosition="9.59375" Velocity="0" />
      <note Length="0.0078125" Pitch="51" RiffPosition="9.6171875" Velocity="0" />
      <note Length="0.015625" Pitch="49" RiffPosition="9.625" Velocity="0" />
      <note Length="0.046875" Pitch="43" RiffPosition="9.640625" Velocity="0" />
      <note Length="0.03125" Pitch="43" RiffPosition="9.6875" Velocity="0" />
      <note Length="0.03125" Pitch="54" RiffPosition="9.71875" Velocity="0" />
      <note Length="0.015625" Pitch="49" RiffPosition="9.75" Velocity="0" />
      <note Length="0.015625" Pitch="43" RiffPosition="9.765625" Velocity="0" />
      <note Length="0.015625" Pitch="38" RiffPosition="9.78125" Velocity="0" />
      <note Length="0.015625" Pitch="37" RiffPosition="9.796875" Velocity="0" />
      <note Length="0.03125" Pitch="41" RiffPosition="9.8125" Velocity="0" />
      <note Length="0.0234375" Pitch="51" RiffPosition="9.84375" Velocity="0" />
      <note Length="0.0078125" Pitch="49" RiffPosition="9.8671875" Velocity="0" />
      <note Length="0.015625" Pitch="46" RiffPosition="9.875" Velocity="0" />
      <note Length="0.046875" Pitch="40" RiffPosition="9.890625" Velocity="0" />
      <note Length="0.03125" Pitch="38" RiffPosition="9.9375" Velocity="0" />
      <note Length="0.03125" Pitch="49" RiffPosition="9.96875" Velocity="0" />
      <note Length="0.015625" Pitch="46" RiffPosition="10" Velocity="0" />
      <note Length="0.015625" Pitch="40" RiffPosition="10.015625" Velocity="0" />
      <note Length="0.015625" Pitch="35" RiffPosition="10.03125" Velocity="0" />
      <note Length="0.015625" Pitch="35" RiffPosition="10.046875" Velocity="0" />
      <note Length="0.03125" Pitch="40" RiffPosition="10.0625" Velocity="0" />
      <note Length="0.0234375" Pitch="52" RiffPosition="10.09375" Velocity="0" />
      <note Length="0.0078125" Pitch="51" RiffPosition="10.1171875" Velocity="0" />
      <note Length="0.015625" Pitch="49" RiffPosition="10.125" Velocity="0" />
      <note Length="0.046875" Pitch="43" RiffPosition="10.140625" Velocity="0" />
      <note Length="0.03125" Pitch="43" RiffPosition="10.1875" Velocity="0" />
      <note Length="0.03125" Pitch="54" RiffPosition="10.21875" Velocity="0" />
      <note Length="0.015625" Pitch="49" RiffPosition="10.25" Velocity="0" />
      <note Length="0.015625" Pitch="43" RiffPosition="10.265625" Velocity="0" />
      <note Length="0.015625" Pitch="38" RiffPosition="10.28125" Velocity="0" />
      <note Length="0.015625" Pitch="37" RiffPosition="10.296875" Velocity="0" />
      <note Length="0.03125" Pitch="41" RiffPosition="10.3125" Velocity="0" />
      <note Length="0.0234375" Pitch="51" RiffPosition="10.34375" Velocity="0" />
      <note Length="0.0078125" Pitch="49" RiffPosition="10.3671875" Velocity="0" />
      <note Length="0.015625" Pitch="46" RiffPosition="10.375" Velocity="0" />
      <note Length="0.046875" Pitch="40" RiffPosition="10.390625" Velocity="0" />
      <note Length="0.03125" Pitch="38" RiffPosition="10.4375" Velocity="0" />
      <note Length="0.03125" Pitch="49" RiffPosition="10.46875" Velocity="0" />
      <note Length="0.015625" Pitch="46" RiffPosition="10.5" Velocity="0" />
      <note Length="0.015625" Pitch="40" RiffPosition="10.515625" Velocity="0" />
      <note Length="0.015625" Pitch="35" RiffPosition="10.53125" Velocity="0" />
      <note Length="0.015625" Pitch="35" RiffPosition="10.546875" Velocity="0" />
      <note Length="0.03125" Pitch="40" RiffPosition="10.5625" Velocity="0" />
      <note Length="0.0234375" Pitch="52" RiffPosition="10.59375" Velocity="0" />
      <note Length="0.0078125" Pitch="51" RiffPosition="10.6171875" Velocity="0" />
      <note Length="0.015625" Pitch="49" RiffPosition="10.625" Velocity="0" />
      <note Length="0.046875" Pitch="43" RiffPosition="10.640625" Velocity="0" />
      <note Length="0.03125" Pitch="43" RiffPosition="10.6875" Velocity="0" />
      <note Length="0.03125" Pitch="54" RiffPosition="10.71875" Velocity="0" />
      <note Length="0.015625" Pitch="49" RiffPosition="10.75" Velocity="0" />
      <note Length="0.015625" Pitch="43" RiffPosition="10.765625" Velocity="0" />
      <note Length="0.015625" Pitch="38" RiffPosition="10.78125" Velocity="0" />
      <note Length="0.015625" Pitch="37" RiffPosition="10.796875" Velocity="0" />
      <note Length="0.03125" Pitch="41" RiffPosition="10.8125" Velocity="0" />
      <note Length="0.0234375" Pitch="51" RiffPosition="10.84375" Velocity="0" />
      <note Length="0.0078125" Pitch="49" RiffPosition="10.8671875" Velocity="0" />
      <note Length="0.015625" Pitch="46" RiffPosition="10.875" Velocity="0" />
      <note Length="0.046875" Pitch="40" RiffPosition="10.890625" Velocity="0" />
      <note Length="0.03125" Pitch="38" RiffPosition="10.9375" Velocity="0" />
      <note Length="0.03125" Pitch="49" RiffPosition="10.96875" Velocity="0" />
    </riff>
    <riff IsDrum="True" MidiInstrument="0" Tempo="80" Length="11">
      <note Length="0.03125" Pitch="40" RiffPosition="0" Velocity="0" />
      <note Length="0.03125" Pitch="40" RiffPosition="0.03125" Velocity="0" />
      <note Length="0.03125" Pitch="40" RiffPosition="0.0625" Velocity="0" />
      <note Length="0.03125" Pitch="40" RiffPosition="0.09375" Velocity="0" />
      <note Length="0.03125" Pitch="40" RiffPosition="0.125" Velocity="0" />
      <note Length="0.03125" Pitch="40" RiffPosition="0.15625" Velocity="0" />
      <note Length="0.03125" Pitch="40" RiffPosition="0.1875" Velocity="0" />
      <note Length="0.03125" Pitch="40" RiffPosition="0.21875" Velocity="0" />
      <note Length="0.03125" Pitch="40" RiffPosition="0.25" Velocity="0" />
      <note Length="0.03125" Pitch="40" RiffPosition="0.28125" Velocity="0" />
      <note Length="0.03125" Pitch="40" RiffPosition="0.3125" Velocity="0" />
      <note Length="0.03125" Pitch="40" RiffPosition="0.34375" Velocity="0" />
      <note Length="0.03125" Pitch="40" RiffPosition="0.375" Velocity="0" />
      <note Length="0.03125" Pitch="40" RiffPosition="0.40625" Velocity="0" />
      <note Length="0.03125" Pitch="40" RiffPosition="0.4375" Velocity="0" />
      <note Length="0.03125" Pitch="40" RiffPosition="0.46875" Velocity="0" />
      <note Length="0.03125" Pitch="40" RiffPosition="0.5" Velocity="0" />
      <note Length="0.03125" Pitch="40" RiffPosition="0.53125" Velocity="0" />
      <note Length="0.03125" Pitch="40" RiffPosition="0.5625" Velocity="0" />
      <note Length="0.03125" Pitch="40" RiffPosition="0.59375" Velocity="0" />
      <note Length="0.03125" Pitch="40" RiffPosition="0.625" Velocity="0" />
      <note Length="0.03125" Pitch="40" RiffPosition="0.65625" Velocity="0" />
      <note Length="0.03125" Pitch="40" RiffPosition="0.6875" Velocity="0" />
      <note Length="0.03125" Pitch="40" RiffPosition="0.71875" Velocity="0" />
      <note Length="0.03125" Pitch="40" RiffPosition="0.75" Velocity="0" />
      <note Length="0.03125" Pitch="40" RiffPosition="0.78125" Velocity="0" />
      <note Length="0.03125" Pitch="40" RiffPosition="0.8125" Velocity="0" />
      <note Length="0.03125" Pitch="40" RiffPosition="0.84375" Velocity="0" />
      <note Length="0.03125" Pitch="40" RiffPosition="0.875" Velocity="0" />
      <note Length="0.03125" Pitch="40" RiffPosition="0.90625" Velocity="0" />
      <note Length="0.03125" Pitch="40" RiffPosition="0.9375" Velocity="0" />
      <note Length="0.03125" Pitch="40" RiffPosition="0.96875" Velocity="0" />
      <note Length="0.03125" Pitch="40" RiffPosition="1" Velocity="0" />
      <note Length="0.03125" Pitch="40" RiffPosition="1.03125" Velocity="0" />
      <note Length="0.03125" Pitch="40" RiffPosition="1.0625" Velocity="0" />
      <note Length="0.03125" Pitch="40" RiffPosition="1.09375" Velocity="0" />
      <note Length="0.03125" Pitch="40" RiffPosition="1.125" Velocity="0" />
      <note Length="0.03125" Pitch="40" RiffPosition="1.15625" Velocity="0" />
      <note Length="0.03125" Pitch="40" RiffPosition="1.1875" Velocity="0" />
      <note Length="0.03125" Pitch="40" RiffPosition="1.21875" Velocity="0" />
      <note Length="0.03125" Pitch="40" RiffPosition="1.25" Velocity="0" />
      <note Length="0.03125" Pitch="40" RiffPosition="1.28125" Velocity="0" />
      <note Length="0.03125" Pitch="40" RiffPosition="1.3125" Velocity="0" />
      <note Length="0.03125" Pitch="40" RiffPosition="1.34375" Velocity="0" />
      <note Length="0.03125" Pitch="40" RiffPosition="1.375" Velocity="0" />
      <note Length="0.03125" Pitch="40" RiffPosition="1.40625" Velocity="0" />
      <note Length="0.03125" Pitch="40" RiffPosition="1.4375" Velocity="0" />
      <note Length="0.03125" Pitch="40" RiffPosition="1.46875" Velocity="0" />
      <note Length="0.03125" Pitch="40" RiffPosition="1.5" Velocity="0" />
      <note Length="0.03125" Pitch="40" RiffPosition="1.53125" Velocity="0" />
      <note Length="0.03125" Pitch="40" RiffPosition="1.5625" Velocity="0" />
      <note Length="0.03125" Pitch="40" RiffPosition="1.59375" Velocity="0" />
      <note Length="0.03125" Pitch="40" RiffPosition="1.625" Velocity="0" />
      <note Length="0.03125" Pitch="40" RiffPosition="1.65625" Velocity="0" />
      <note Length="0.03125" Pitch="40" RiffPosition="1.6875" Velocity="0" />
      <note Length="0.03125" Pitch="40" RiffPosition="1.71875" Velocity="0" />
      <note Length="0.03125" Pitch="40" RiffPosition="1.75" Velocity="0" />
      <note Length="0.03125" Pitch="40" RiffPosition="1.78125" Velocity="0" />
      <note Length="0.03125" Pitch="40" RiffPosition="1.8125" Velocity="0" />
      <note Length="0.03125" Pitch="40" RiffPosition="1.84375" Velocity="0" />
      <note Length="0.03125" Pitch="40" RiffPosition="1.875" Velocity="0" />
      <note Length="0.03125" Pitch="40" RiffPosition="1.90625" Velocity="0" />
      <note Length="0.03125" Pitch="40" RiffPosition="1.9375" Velocity="0" />
      <note Length="0.03125" Pitch="40" RiffPosition="1.96875" Velocity="0" />
      <note Length="0.03125" Pitch="40" RiffPosition="2" Velocity="0" />
      <note Length="0.03125" Pitch="40" RiffPosition="2.03125" Velocity="0" />
      <note Length="0.03125" Pitch="40" RiffPosition="2.0625" Velocity="0" />
      <note Length="0.03125" Pitch="40" RiffPosition="2.09375" Velocity="0" />
      <note Length="0.03125" Pitch="40" RiffPosition="2.125" Velocity="0" />
      <note Length="0.03125" Pitch="40" RiffPosition="2.15625" Velocity="0" />
      <note Length="0.03125" Pitch="40" RiffPosition="2.1875" Velocity="0" />
      <note Length="0.03125" Pitch="40" RiffPosition="2.21875" Velocity="0" />
      <note Length="0.03125" Pitch="40" RiffPosition="2.25" Velocity="0" />
      <note Length="0.03125" Pitch="40" RiffPosition="2.28125" Velocity="0" />
      <note Length="0.03125" Pitch="40" RiffPosition="2.3125" Velocity="0" />
      <note Length="0.03125" Pitch="40" RiffPosition="2.34375" Velocity="0" />
      <note Length="0.03125" Pitch="40" RiffPosition="2.375" Velocity="0" />
      <note Length="0.03125" Pitch="40" RiffPosition="2.40625" Velocity="0" />
      <note Length="0.03125" Pitch="40" RiffPosition="2.4375" Velocity="0" />
      <note Length="0.03125" Pitch="40" RiffPosition="2.46875" Velocity="0" />
      <note Length="0.03125" Pitch="40" RiffPosition="2.5" Velocity="0" />
      <note Length="0.03125" Pitch="40" RiffPosition="2.53125" Velocity="0" />
      <note Length="0.03125" Pitch="40" RiffPosition="2.5625" Velocity="0" />
      <note Length="0.03125" Pitch="40" RiffPosition="2.59375" Velocity="0" />
      <note Length="0.03125" Pitch="40" RiffPosition="2.625" Velocity="0" />
      <note Length="0.03125" Pitch="40" RiffPosition="2.65625" Velocity="0" />
      <note Length="0.03125" Pitch="40" RiffPosition="2.6875" Velocity="0" />
      <note Length="0.03125" Pitch="40" RiffPosition="2.71875" Velocity="0" />
      <note Length="0.03125" Pitch="40" RiffPosition="2.75" Velocity="0" />
      <note Length="0.03125" Pitch="40" RiffPosition="2.78125" Velocity="0" />
      <note Length="0.03125" Pitch="40" RiffPosition="2.8125" Velocity="0" />
      <note Length="0.03125" Pitch="40" RiffPosition="2.84375" Velocity="0" />
      <note Length="0.03125" Pitch="40" RiffPosition="2.875" Velocity="0" />
      <note Length="0.03125" Pitch="40" RiffPosition="2.90625" Velocity="0" />
      <note Length="0.03125" Pitch="40" RiffPosition="2.9375" Velocity="0" />
      <note Length="0.03125" Pitch="40" RiffPosition="2.96875" Velocity="0" />
      <note Length="0.03125" Pitch="40" RiffPosition="3" Velocity="0" />
      <note Length="0.03125" Pitch="40" RiffPosition="3.03125" Velocity="105" />
      <note Length="0.03125" Pitch="40" RiffPosition="3.0625" Velocity="0" />
      <note Length="0.03125" Pitch="40" RiffPosition="3.09375" Velocity="105" />
      <note Length="0.03125" Pitch="40" RiffPosition="3.125" Velocity="0" />
      <note Length="0.03125" Pitch="40" RiffPosition="3.15625" Velocity="105" />
      <note Length="0.03125" Pitch="40" RiffPosition="3.1875" Velocity="0" />
      <note Length="0.03125" Pitch="40" RiffPosition="3.21875" Velocity="105" />
      <note Length="0.03125" Pitch="40" RiffPosition="3.25" Velocity="0" />
      <note Length="0.03125" Pitch="40" RiffPosition="3.28125" Velocity="105" />
      <note Length="0.03125" Pitch="40" RiffPosition="3.3125" Velocity="0" />
      <note Length="0.03125" Pitch="40" RiffPosition="3.34375" Velocity="105" />
      <note Length="0.03125" Pitch="40" RiffPosition="3.375" Velocity="0" />
      <note Length="0.03125" Pitch="40" RiffPosition="3.40625" Velocity="105" />
      <note Length="0.03125" Pitch="40" RiffPosition="3.4375" Velocity="0" />
      <note Length="0.03125" Pitch="40" RiffPosition="3.46875" Velocity="105" />
      <note Length="0.03125" Pitch="40" RiffPosition="3.5" Velocity="0" />
      <note Length="0.03125" Pitch="40" RiffPosition="3.53125" Velocity="105" />
      <note Length="0.03125" Pitch="40" RiffPosition="3.5625" Velocity="0" />
      <note Length="0.03125" Pitch="40" RiffPosition="3.59375" Velocity="105" />
      <note Length="0.03125" Pitch="40" RiffPosition="3.625" Velocity="0" />
      <note Length="0.03125" Pitch="40" RiffPosition="3.65625" Velocity="105" />
      <note Length="0.03125" Pitch="40" RiffPosition="3.6875" Velocity="0" />
      <note Length="0.03125" Pitch="40" RiffPosition="3.71875" Velocity="105" />
      <note Length="0.03125" Pitch="40" RiffPosition="3.75" Velocity="0" />
      <note Length="0.03125" Pitch="40" RiffPosition="3.78125" Velocity="105" />
      <note Length="0.03125" Pitch="40" RiffPosition="3.8125" Velocity="0" />
      <note Length="0.03125" Pitch="40" RiffPosition="3.84375" Velocity="105" />
      <note Length="0.03125" Pitch="40" RiffPosition="3.875" Velocity="0" />
      <note Length="0.03125" Pitch="40" RiffPosition="3.90625" Velocity="105" />
      <note Length="0.03125" Pitch="40" RiffPosition="3.9375" Velocity="0" />
      <note Length="0.03125" Pitch="40" RiffPosition="3.96875" Velocity="105" />
      <note Length="0.03125" Pitch="40" RiffPosition="4" Velocity="0" />
      <note Length="0.03125" Pitch="40" RiffPosition="4.03125" Velocity="105" />
      <note Length="0.03125" Pitch="40" RiffPosition="4.0625" Velocity="0" />
      <note Length="0.03125" Pitch="40" RiffPosition="4.09375" Velocity="105" />
      <note Length="0.03125" Pitch="40" RiffPosition="4.125" Velocity="0" />
      <note Length="0.03125" Pitch="40" RiffPosition="4.15625" Velocity="105" />
      <note Length="0.03125" Pitch="40" RiffPosition="4.1875" Velocity="0" />
      <note Length="0.03125" Pitch="40" RiffPosition="4.21875" Velocity="105" />
      <note Length="0.03125" Pitch="40" RiffPosition="4.25" Velocity="0" />
      <note Length="0.03125" Pitch="40" RiffPosition="4.28125" Velocity="105" />
      <note Length="0.03125" Pitch="40" RiffPosition="4.3125" Velocity="0" />
      <note Length="0.03125" Pitch="40" RiffPosition="4.34375" Velocity="105" />
      <note Length="0.03125" Pitch="40" RiffPosition="4.375" Velocity="0" />
      <note Length="0.03125" Pitch="40" RiffPosition="4.40625" Velocity="105" />
      <note Length="0.03125" Pitch="40" RiffPosition="4.4375" Velocity="0" />
      <note Length="0.03125" Pitch="40" RiffPosition="4.46875" Velocity="105" />
      <note Length="0.03125" Pitch="40" RiffPosition="4.5" Velocity="0" />
      <note Length="0.03125" Pitch="40" RiffPosition="4.53125" Velocity="105" />
      <note Length="0.03125" Pitch="40" RiffPosition="4.5625" Velocity="0" />
      <note Length="0.03125" Pitch="40" RiffPosition="4.59375" Velocity="105" />
      <note Length="0.03125" Pitch="40" RiffPosition="4.625" Velocity="0" />
      <note Length="0.03125" Pitch="40" RiffPosition="4.65625" Velocity="105" />
      <note Length="0.03125" Pitch="40" RiffPosition="4.6875" Velocity="0" />
      <note Length="0.03125" Pitch="40" RiffPosition="4.71875" Velocity="105" />
      <note Length="0.03125" Pitch="40" RiffPosition="4.75" Velocity="0" />
      <note Length="0.03125" Pitch="40" RiffPosition="4.78125" Velocity="105" />
      <note Length="0.03125" Pitch="40" RiffPosition="4.8125" Velocity="0" />
      <note Length="0.03125" Pitch="40" RiffPosition="4.84375" Velocity="105" />
      <note Length="0.03125" Pitch="40" RiffPosition="4.875" Velocity="0" />
      <note Length="0.03125" Pitch="40" RiffPosition="4.90625" Velocity="105" />
      <note Length="0.03125" Pitch="40" RiffPosition="4.9375" Velocity="0" />
      <note Length="0.03125" Pitch="40" RiffPosition="4.96875" Velocity="105" />
      <note Length="0.03125" Pitch="40" RiffPosition="5" Velocity="0" />
      <note Length="0.03125" Pitch="40" RiffPosition="5.03125" Velocity="105" />
      <note Length="0.03125" Pitch="40" RiffPosition="5.0625" Velocity="0" />
      <note Length="0.03125" Pitch="40" RiffPosition="5.09375" Velocity="105" />
      <note Length="0.03125" Pitch="40" RiffPosition="5.125" Velocity="0" />
      <note Length="0.03125" Pitch="40" RiffPosition="5.15625" Velocity="105" />
      <note Length="0.03125" Pitch="40" RiffPosition="5.1875" Velocity="0" />
      <note Length="0.03125" Pitch="40" RiffPosition="5.21875" Velocity="105" />
      <note Length="0.03125" Pitch="40" RiffPosition="5.25" Velocity="0" />
      <note Length="0.03125" Pitch="40" RiffPosition="5.28125" Velocity="105" />
      <note Length="0.03125" Pitch="40" RiffPosition="5.3125" Velocity="0" />
      <note Length="0.03125" Pitch="40" RiffPosition="5.34375" Velocity="105" />
      <note Length="0.03125" Pitch="40" RiffPosition="5.375" Velocity="0" />
      <note Length="0.03125" Pitch="40" RiffPosition="5.40625" Velocity="105" />
      <note Length="0.03125" Pitch="40" RiffPosition="5.4375" Velocity="0" />
      <note Length="0.03125" Pitch="40" RiffPosition="5.46875" Velocity="105" />
      <note Length="0.03125" Pitch="40" RiffPosition="5.5" Velocity="0" />
      <note Length="0.03125" Pitch="40" RiffPosition="5.53125" Velocity="105" />
      <note Length="0.03125" Pitch="40" RiffPosition="5.5625" Velocity="0" />
      <note Length="0.03125" Pitch="40" RiffPosition="5.59375" Velocity="105" />
      <note Length="0.03125" Pitch="40" RiffPosition="5.625" Velocity="0" />
      <note Length="0.03125" Pitch="40" RiffPosition="5.65625" Velocity="105" />
      <note Length="0.03125" Pitch="40" RiffPosition="5.6875" Velocity="0" />
      <note Length="0.03125" Pitch="40" RiffPosition="5.71875" Velocity="105" />
      <note Length="0.03125" Pitch="40" RiffPosition="5.75" Velocity="0" />
      <note Length="0.03125" Pitch="40" RiffPosition="5.78125" Velocity="105" />
      <note Length="0.03125" Pitch="40" RiffPosition="5.8125" Velocity="0" />
      <note Length="0.03125" Pitch="40" RiffPosition="5.84375" Velocity="105" />
      <note Length="0.03125" Pitch="40" RiffPosition="5.875" Velocity="0" />
      <note Length="0.03125" Pitch="40" RiffPosition="5.90625" Velocity="105" />
      <note Length="0.03125" Pitch="40" RiffPosition="5.9375" Velocity="0" />
      <note Length="0.03125" Pitch="40" RiffPosition="5.96875" Velocity="105" />
      <note Length="0.03125" Pitch="40" RiffPosition="6" Velocity="0" />
      <note Length="0.03125" Pitch="40" RiffPosition="6.03125" Velocity="0" />
      <note Length="0.03125" Pitch="40" RiffPosition="6.0625" Velocity="0" />
      <note Length="0.03125" Pitch="40" RiffPosition="6.09375" Velocity="0" />
      <note Length="0.03125" Pitch="40" RiffPosition="6.125" Velocity="0" />
      <note Length="0.03125" Pitch="40" RiffPosition="6.15625" Velocity="0" />
      <note Length="0.03125" Pitch="40" RiffPosition="6.1875" Velocity="0" />
      <note Length="0.03125" Pitch="40" RiffPosition="6.21875" Velocity="0" />
      <note Length="0.03125" Pitch="40" RiffPosition="6.25" Velocity="0" />
      <note Length="0.03125" Pitch="40" RiffPosition="6.28125" Velocity="0" />
      <note Length="0.03125" Pitch="40" RiffPosition="6.3125" Velocity="0" />
      <note Length="0.03125" Pitch="40" RiffPosition="6.34375" Velocity="0" />
      <note Length="0.03125" Pitch="40" RiffPosition="6.375" Velocity="0" />
      <note Length="0.03125" Pitch="40" RiffPosition="6.40625" Velocity="0" />
      <note Length="0.03125" Pitch="40" RiffPosition="6.4375" Velocity="0" />
      <note Length="0.03125" Pitch="40" RiffPosition="6.46875" Velocity="0" />
      <note Length="0.03125" Pitch="40" RiffPosition="6.5" Velocity="0" />
      <note Length="0.03125" Pitch="40" RiffPosition="6.53125" Velocity="0" />
      <note Length="0.03125" Pitch="40" RiffPosition="6.5625" Velocity="0" />
      <note Length="0.03125" Pitch="40" RiffPosition="6.59375" Velocity="0" />
      <note Length="0.03125" Pitch="40" RiffPosition="6.625" Velocity="0" />
      <note Length="0.03125" Pitch="40" RiffPosition="6.65625" Velocity="0" />
      <note Length="0.03125" Pitch="40" RiffPosition="6.6875" Velocity="0" />
      <note Length="0.03125" Pitch="40" RiffPosition="6.71875" Velocity="0" />
      <note Length="0.03125" Pitch="40" RiffPosition="6.75" Velocity="0" />
      <note Length="0.03125" Pitch="40" RiffPosition="6.78125" Velocity="0" />
      <note Length="0.03125" Pitch="40" RiffPosition="6.8125" Velocity="0" />
      <note Length="0.03125" Pitch="40" RiffPosition="6.84375" Velocity="0" />
      <note Length="0.03125" Pitch="40" RiffPosition="6.875" Velocity="0" />
      <note Length="0.03125" Pitch="40" RiffPosition="6.90625" Velocity="0" />
      <note Length="0.03125" Pitch="40" RiffPosition="6.9375" Velocity="0" />
      <note Length="0.03125" Pitch="40" RiffPosition="6.96875" Velocity="0" />
      <note Length="0.03125" Pitch="40" RiffPosition="7" Velocity="0" />
      <note Length="0.03125" Pitch="40" RiffPosition="7.03125" Velocity="105" />
      <note Length="0.03125" Pitch="40" RiffPosition="7.0625" Velocity="0" />
      <note Length="0.03125" Pitch="40" RiffPosition="7.09375" Velocity="105" />
      <note Length="0.03125" Pitch="40" RiffPosition="7.125" Velocity="0" />
      <note Length="0.03125" Pitch="40" RiffPosition="7.15625" Velocity="105" />
      <note Length="0.03125" Pitch="40" RiffPosition="7.1875" Velocity="0" />
      <note Length="0.03125" Pitch="40" RiffPosition="7.21875" Velocity="105" />
      <note Length="0.03125" Pitch="40" RiffPosition="7.25" Velocity="0" />
      <note Length="0.03125" Pitch="40" RiffPosition="7.28125" Velocity="105" />
      <note Length="0.03125" Pitch="40" RiffPosition="7.3125" Velocity="0" />
      <note Length="0.03125" Pitch="40" RiffPosition="7.34375" Velocity="105" />
      <note Length="0.03125" Pitch="40" RiffPosition="7.375" Velocity="0" />
      <note Length="0.03125" Pitch="40" RiffPosition="7.40625" Velocity="105" />
      <note Length="0.03125" Pitch="40" RiffPosition="7.4375" Velocity="0" />
      <note Length="0.03125" Pitch="40" RiffPosition="7.46875" Velocity="105" />
      <note Length="0.03125" Pitch="40" RiffPosition="7.5" Velocity="0" />
      <note Length="0.03125" Pitch="40" RiffPosition="7.53125" Velocity="105" />
      <note Length="0.03125" Pitch="40" RiffPosition="7.5625" Velocity="0" />
      <note Length="0.03125" Pitch="40" RiffPosition="7.59375" Velocity="105" />
      <note Length="0.03125" Pitch="40" RiffPosition="7.625" Velocity="0" />
      <note Length="0.03125" Pitch="40" RiffPosition="7.65625" Velocity="105" />
      <note Length="0.03125" Pitch="40" RiffPosition="7.6875" Velocity="0" />
      <note Length="0.03125" Pitch="40" RiffPosition="7.71875" Velocity="105" />
      <note Length="0.03125" Pitch="40" RiffPosition="7.75" Velocity="0" />
      <note Length="0.03125" Pitch="40" RiffPosition="7.78125" Velocity="105" />
      <note Length="0.03125" Pitch="40" RiffPosition="7.8125" Velocity="0" />
      <note Length="0.03125" Pitch="40" RiffPosition="7.84375" Velocity="105" />
      <note Length="0.03125" Pitch="40" RiffPosition="7.875" Velocity="0" />
      <note Length="0.03125" Pitch="40" RiffPosition="7.90625" Velocity="105" />
      <note Length="0.03125" Pitch="40" RiffPosition="7.9375" Velocity="0" />
      <note Length="0.03125" Pitch="40" RiffPosition="7.96875" Velocity="105" />
      <note Length="0.03125" Pitch="40" RiffPosition="8" Velocity="0" />
      <note Length="0.03125" Pitch="40" RiffPosition="8.03125" Velocity="105" />
      <note Length="0.03125" Pitch="40" RiffPosition="8.0625" Velocity="0" />
      <note Length="0.03125" Pitch="40" RiffPosition="8.09375" Velocity="105" />
      <note Length="0.03125" Pitch="40" RiffPosition="8.125" Velocity="0" />
      <note Length="0.03125" Pitch="40" RiffPosition="8.15625" Velocity="105" />
      <note Length="0.03125" Pitch="40" RiffPosition="8.1875" Velocity="0" />
      <note Length="0.03125" Pitch="40" RiffPosition="8.21875" Velocity="105" />
      <note Length="0.03125" Pitch="40" RiffPosition="8.25" Velocity="0" />
      <note Length="0.03125" Pitch="40" RiffPosition="8.28125" Velocity="105" />
      <note Length="0.03125" Pitch="40" RiffPosition="8.3125" Velocity="0" />
      <note Length="0.03125" Pitch="40" RiffPosition="8.34375" Velocity="105" />
      <note Length="0.03125" Pitch="40" RiffPosition="8.375" Velocity="0" />
      <note Length="0.03125" Pitch="40" RiffPosition="8.40625" Velocity="105" />
      <note Length="0.03125" Pitch="40" RiffPosition="8.4375" Velocity="0" />
      <note Length="0.03125" Pitch="40" RiffPosition="8.46875" Velocity="105" />
      <note Length="0.03125" Pitch="40" RiffPosition="8.5" Velocity="0" />
      <note Length="0.03125" Pitch="40" RiffPosition="8.53125" Velocity="105" />
      <note Length="0.03125" Pitch="40" RiffPosition="8.5625" Velocity="0" />
      <note Length="0.03125" Pitch="40" RiffPosition="8.59375" Velocity="105" />
      <note Length="0.03125" Pitch="40" RiffPosition="8.625" Velocity="0" />
      <note Length="0.03125" Pitch="40" RiffPosition="8.65625" Velocity="105" />
      <note Length="0.03125" Pitch="40" RiffPosition="8.6875" Velocity="0" />
      <note Length="0.03125" Pitch="40" RiffPosition="8.71875" Velocity="105" />
      <note Length="0.03125" Pitch="40" RiffPosition="8.75" Velocity="0" />
      <note Length="0.03125" Pitch="40" RiffPosition="8.78125" Velocity="105" />
      <note Length="0.03125" Pitch="40" RiffPosition="8.8125" Velocity="0" />
      <note Length="0.03125" Pitch="40" RiffPosition="8.84375" Velocity="105" />
      <note Length="0.03125" Pitch="40" RiffPosition="8.875" Velocity="0" />
      <note Length="0.03125" Pitch="40" RiffPosition="8.90625" Velocity="105" />
      <note Length="0.03125" Pitch="40" RiffPosition="8.9375" Velocity="0" />
      <note Length="0.03125" Pitch="40" RiffPosition="8.96875" Velocity="105" />
      <note Length="0.03125" Pitch="40" RiffPosition="9" Velocity="0" />
      <note Length="0.03125" Pitch="40" RiffPosition="9.03125" Velocity="0" />
      <note Length="0.03125" Pitch="40" RiffPosition="9.0625" Velocity="0" />
      <note Length="0.03125" Pitch="40" RiffPosition="9.09375" Velocity="0" />
      <note Length="0.03125" Pitch="40" RiffPosition="9.125" Velocity="0" />
      <note Length="0.03125" Pitch="40" RiffPosition="9.15625" Velocity="0" />
      <note Length="0.03125" Pitch="40" RiffPosition="9.1875" Velocity="0" />
      <note Length="0.03125" Pitch="40" RiffPosition="9.21875" Velocity="0" />
      <note Length="0.03125" Pitch="40" RiffPosition="9.25" Velocity="0" />
      <note Length="0.03125" Pitch="40" RiffPosition="9.28125" Velocity="0" />
      <note Length="0.03125" Pitch="40" RiffPosition="9.3125" Velocity="0" />
      <note Length="0.03125" Pitch="40" RiffPosition="9.34375" Velocity="0" />
      <note Length="0.03125" Pitch="40" RiffPosition="9.375" Velocity="0" />
      <note Length="0.03125" Pitch="40" RiffPosition="9.40625" Velocity="0" />
      <note Length="0.03125" Pitch="40" RiffPosition="9.4375" Velocity="0" />
      <note Length="0.03125" Pitch="40" RiffPosition="9.46875" Velocity="0" />
      <note Length="0.03125" Pitch="40" RiffPosition="9.5" Velocity="0" />
      <note Length="0.03125" Pitch="40" RiffPosition="9.53125" Velocity="0" />
      <note Length="0.03125" Pitch="40" RiffPosition="9.5625" Velocity="0" />
      <note Length="0.03125" Pitch="40" RiffPosition="9.59375" Velocity="0" />
      <note Length="0.03125" Pitch="40" RiffPosition="9.625" Velocity="0" />
      <note Length="0.03125" Pitch="40" RiffPosition="9.65625" Velocity="0" />
      <note Length="0.03125" Pitch="40" RiffPosition="9.6875" Velocity="0" />
      <note Length="0.03125" Pitch="40" RiffPosition="9.71875" Velocity="0" />
      <note Length="0.03125" Pitch="40" RiffPosition="9.75" Velocity="0" />
      <note Length="0.03125" Pitch="40" RiffPosition="9.78125" Velocity="0" />
      <note Length="0.03125" Pitch="40" RiffPosition="9.8125" Velocity="0" />
      <note Length="0.03125" Pitch="40" RiffPosition="9.84375" Velocity="0" />
      <note Length="0.03125" Pitch="40" RiffPosition="9.875" Velocity="0" />
      <note Length="0.03125" Pitch="40" RiffPosition="9.90625" Velocity="0" />
      <note Length="0.03125" Pitch="40" RiffPosition="9.9375" Velocity="0" />
      <note Length="0.03125" Pitch="40" RiffPosition="9.96875" Velocity="0" />
      <note Length="0.03125" Pitch="40" RiffPosition="10" Velocity="0" />
      <note Length="0.03125" Pitch="40" RiffPosition="10.03125" Velocity="0" />
      <note Length="0.03125" Pitch="40" RiffPosition="10.0625" Velocity="0" />
      <note Length="0.03125" Pitch="40" RiffPosition="10.09375" Velocity="0" />
      <note Length="0.03125" Pitch="40" RiffPosition="10.125" Velocity="0" />
      <note Length="0.03125" Pitch="40" RiffPosition="10.15625" Velocity="0" />
      <note Length="0.03125" Pitch="40" RiffPosition="10.1875" Velocity="0" />
      <note Length="0.03125" Pitch="40" RiffPosition="10.21875" Velocity="0" />
      <note Length="0.03125" Pitch="40" RiffPosition="10.25" Velocity="0" />
      <note Length="0.03125" Pitch="40" RiffPosition="10.28125" Velocity="0" />
      <note Length="0.03125" Pitch="40" RiffPosition="10.3125" Velocity="0" />
      <note Length="0.03125" Pitch="40" RiffPosition="10.34375" Velocity="0" />
      <note Length="0.03125" Pitch="40" RiffPosition="10.375" Velocity="0" />
      <note Length="0.03125" Pitch="40" RiffPosition="10.40625" Velocity="0" />
      <note Length="0.03125" Pitch="40" RiffPosition="10.4375" Velocity="0" />
      <note Length="0.03125" Pitch="40" RiffPosition="10.46875" Velocity="0" />
      <note Length="0.03125" Pitch="40" RiffPosition="10.5" Velocity="0" />
      <note Length="0.03125" Pitch="40" RiffPosition="10.53125" Velocity="0" />
      <note Length="0.03125" Pitch="40" RiffPosition="10.5625" Velocity="0" />
      <note Length="0.03125" Pitch="40" RiffPosition="10.59375" Velocity="0" />
      <note Length="0.03125" Pitch="40" RiffPosition="10.625" Velocity="0" />
      <note Length="0.03125" Pitch="40" RiffPosition="10.65625" Velocity="0" />
      <note Length="0.03125" Pitch="40" RiffPosition="10.6875" Velocity="0" />
      <note Length="0.03125" Pitch="40" RiffPosition="10.71875" Velocity="0" />
      <note Length="0.03125" Pitch="40" RiffPosition="10.75" Velocity="0" />
      <note Length="0.03125" Pitch="40" RiffPosition="10.78125" Velocity="0" />
      <note Length="0.03125" Pitch="40" RiffPosition="10.8125" Velocity="0" />
      <note Length="0.03125" Pitch="40" RiffPosition="10.84375" Velocity="0" />
      <note Length="0.03125" Pitch="40" RiffPosition="10.875" Velocity="0" />
      <note Length="0.03125" Pitch="40" RiffPosition="10.90625" Velocity="0" />
      <note Length="0.03125" Pitch="40" RiffPosition="10.9375" Velocity="0" />
      <note Length="0.03125" Pitch="40" RiffPosition="10.96875" Velocity="0" />
    </riff>
    <riff IsDrum="False" MidiInstrument="46" Tempo="113" Length="11">
      <note Length="0.046875" Pitch="78" RiffPosition="0" Velocity="0" />
      <note Length="0.046875" Pitch="78" RiffPosition="0.046875" Velocity="0" />
      <note Length="0.03125" Pitch="90" RiffPosition="0.09375" Velocity="0" />
      <note Length="0.0625" Pitch="95" RiffPosition="0.125" Velocity="0" />
      <note Length="0.0625" Pitch="95" RiffPosition="0.1875" Velocity="0" />
      <note Length="0.046875" Pitch="90" RiffPosition="0.25" Velocity="0" />
      <note Length="0.015625" Pitch="83" RiffPosition="0.296875" Velocity="0" />
      <note Length="0.015625" Pitch="83" RiffPosition="0.3125" Velocity="0" />
      <note Length="0.046875" Pitch="83" RiffPosition="0.328125" Velocity="0" />
      <note Length="0.0625" Pitch="78" RiffPosition="0.375" Velocity="0" />
      <note Length="0.0625" Pitch="92" RiffPosition="0.4375" Velocity="0" />
      <note Length="0.046875" Pitch="93" RiffPosition="0.5" Velocity="0" />
      <note Length="0.046875" Pitch="78" RiffPosition="0.546875" Velocity="0" />
      <note Length="0.03125" Pitch="78" RiffPosition="0.59375" Velocity="0" />
      <note Length="0.0625" Pitch="90" RiffPosition="0.625" Velocity="0" />
      <note Length="0.0625" Pitch="90" RiffPosition="0.6875" Velocity="0" />
      <note Length="0.046875" Pitch="90" RiffPosition="0.75" Velocity="0" />
      <note Length="0.015625" Pitch="78" RiffPosition="0.796875" Velocity="0" />
      <note Length="0.015625" Pitch="78" RiffPosition="0.8125" Velocity="0" />
      <note Length="0.046875" Pitch="78" RiffPosition="0.828125" Velocity="0" />
      <note Length="0.0625" Pitch="78" RiffPosition="0.875" Velocity="0" />
      <note Length="0.0625" Pitch="78" RiffPosition="0.9375" Velocity="0" />
      <note Length="0.046875" Pitch="70" RiffPosition="1" Velocity="0" />
      <note Length="0.046875" Pitch="70" RiffPosition="1.046875" Velocity="0" />
      <note Length="0.03125" Pitch="82" RiffPosition="1.09375" Velocity="0" />
      <note Length="0.0625" Pitch="87" RiffPosition="1.125" Velocity="0" />
      <note Length="0.0625" Pitch="87" RiffPosition="1.1875" Velocity="0" />
      <note Length="0.046875" Pitch="82" RiffPosition="1.25" Velocity="0" />
      <note Length="0.015625" Pitch="75" RiffPosition="1.296875" Velocity="0" />
      <note Length="0.015625" Pitch="75" RiffPosition="1.3125" Velocity="0" />
      <note Length="0.046875" Pitch="75" RiffPosition="1.328125" Velocity="0" />
      <note Length="0.0625" Pitch="70" RiffPosition="1.375" Velocity="0" />
      <note Length="0.0625" Pitch="84" RiffPosition="1.4375" Velocity="0" />
      <note Length="0.046875" Pitch="85" RiffPosition="1.5" Velocity="0" />
      <note Length="0.046875" Pitch="70" RiffPosition="1.546875" Velocity="0" />
      <note Length="0.03125" Pitch="70" RiffPosition="1.59375" Velocity="0" />
      <note Length="0.0625" Pitch="82" RiffPosition="1.625" Velocity="0" />
      <note Length="0.0625" Pitch="82" RiffPosition="1.6875" Velocity="0" />
      <note Length="0.046875" Pitch="82" RiffPosition="1.75" Velocity="0" />
      <note Length="0.015625" Pitch="70" RiffPosition="1.796875" Velocity="0" />
      <note Length="0.015625" Pitch="70" RiffPosition="1.8125" Velocity="0" />
      <note Length="0.046875" Pitch="70" RiffPosition="1.828125" Velocity="0" />
      <note Length="0.0625" Pitch="70" RiffPosition="1.875" Velocity="0" />
      <note Length="0.0625" Pitch="70" RiffPosition="1.9375" Velocity="0" />
      <note Length="0.046875" Pitch="78" RiffPosition="2" Velocity="0" />
      <note Length="0.046875" Pitch="78" RiffPosition="2.046875" Velocity="0" />
      <note Length="0.03125" Pitch="90" RiffPosition="2.09375" Velocity="0" />
      <note Length="0.0625" Pitch="95" RiffPosition="2.125" Velocity="0" />
      <note Length="0.0625" Pitch="95" RiffPosition="2.1875" Velocity="0" />
      <note Length="0.046875" Pitch="90" RiffPosition="2.25" Velocity="0" />
      <note Length="0.015625" Pitch="83" RiffPosition="2.296875" Velocity="0" />
      <note Length="0.015625" Pitch="83" RiffPosition="2.3125" Velocity="0" />
      <note Length="0.046875" Pitch="83" RiffPosition="2.328125" Velocity="0" />
      <note Length="0.0625" Pitch="78" RiffPosition="2.375" Velocity="0" />
      <note Length="0.0625" Pitch="92" RiffPosition="2.4375" Velocity="0" />
      <note Length="0.046875" Pitch="93" RiffPosition="2.5" Velocity="0" />
      <note Length="0.046875" Pitch="78" RiffPosition="2.546875" Velocity="0" />
      <note Length="0.03125" Pitch="78" RiffPosition="2.59375" Velocity="0" />
      <note Length="0.0625" Pitch="90" RiffPosition="2.625" Velocity="0" />
      <note Length="0.0625" Pitch="90" RiffPosition="2.6875" Velocity="0" />
      <note Length="0.046875" Pitch="90" RiffPosition="2.75" Velocity="0" />
      <note Length="0.015625" Pitch="78" RiffPosition="2.796875" Velocity="0" />
      <note Length="0.015625" Pitch="78" RiffPosition="2.8125" Velocity="0" />
      <note Length="0.046875" Pitch="78" RiffPosition="2.828125" Velocity="0" />
      <note Length="0.0625" Pitch="78" RiffPosition="2.875" Velocity="0" />
      <note Length="0.0625" Pitch="78" RiffPosition="2.9375" Velocity="0" />
      <note Length="0.046875" Pitch="70" RiffPosition="3" Velocity="0" />
      <note Length="0.046875" Pitch="70" RiffPosition="3.046875" Velocity="0" />
      <note Length="0.03125" Pitch="82" RiffPosition="3.09375" Velocity="0" />
      <note Length="0.0625" Pitch="87" RiffPosition="3.125" Velocity="0" />
      <note Length="0.0625" Pitch="87" RiffPosition="3.1875" Velocity="0" />
      <note Length="0.046875" Pitch="82" RiffPosition="3.25" Velocity="0" />
      <note Length="0.015625" Pitch="75" RiffPosition="3.296875" Velocity="0" />
      <note Length="0.015625" Pitch="75" RiffPosition="3.3125" Velocity="0" />
      <note Length="0.046875" Pitch="75" RiffPosition="3.328125" Velocity="0" />
      <note Length="0.0625" Pitch="70" RiffPosition="3.375" Velocity="0" />
      <note Length="0.0625" Pitch="84" RiffPosition="3.4375" Velocity="0" />
      <note Length="0.046875" Pitch="85" RiffPosition="3.5" Velocity="0" />
      <note Length="0.046875" Pitch="70" RiffPosition="3.546875" Velocity="0" />
      <note Length="0.03125" Pitch="70" RiffPosition="3.59375" Velocity="0" />
      <note Length="0.0625" Pitch="82" RiffPosition="3.625" Velocity="0" />
      <note Length="0.0625" Pitch="82" RiffPosition="3.6875" Velocity="0" />
      <note Length="0.046875" Pitch="82" RiffPosition="3.75" Velocity="0" />
      <note Length="0.015625" Pitch="70" RiffPosition="3.796875" Velocity="0" />
      <note Length="0.015625" Pitch="70" RiffPosition="3.8125" Velocity="0" />
      <note Length="0.046875" Pitch="70" RiffPosition="3.828125" Velocity="0" />
      <note Length="0.0625" Pitch="70" RiffPosition="3.875" Velocity="0" />
      <note Length="0.0625" Pitch="70" RiffPosition="3.9375" Velocity="0" />
      <note Length="0.046875" Pitch="78" RiffPosition="4" Velocity="0" />
      <note Length="0.046875" Pitch="78" RiffPosition="4.046875" Velocity="0" />
      <note Length="0.03125" Pitch="90" RiffPosition="4.09375" Velocity="0" />
      <note Length="0.0625" Pitch="95" RiffPosition="4.125" Velocity="0" />
      <note Length="0.0625" Pitch="95" RiffPosition="4.1875" Velocity="0" />
      <note Length="0.046875" Pitch="90" RiffPosition="4.25" Velocity="0" />
      <note Length="0.015625" Pitch="83" RiffPosition="4.296875" Velocity="0" />
      <note Length="0.015625" Pitch="83" RiffPosition="4.3125" Velocity="0" />
      <note Length="0.046875" Pitch="83" RiffPosition="4.328125" Velocity="0" />
      <note Length="0.0625" Pitch="78" RiffPosition="4.375" Velocity="0" />
      <note Length="0.0625" Pitch="92" RiffPosition="4.4375" Velocity="0" />
      <note Length="0.046875" Pitch="93" RiffPosition="4.5" Velocity="0" />
      <note Length="0.046875" Pitch="78" RiffPosition="4.546875" Velocity="0" />
      <note Length="0.03125" Pitch="78" RiffPosition="4.59375" Velocity="0" />
      <note Length="0.0625" Pitch="90" RiffPosition="4.625" Velocity="0" />
      <note Length="0.0625" Pitch="90" RiffPosition="4.6875" Velocity="0" />
      <note Length="0.046875" Pitch="90" RiffPosition="4.75" Velocity="0" />
      <note Length="0.015625" Pitch="78" RiffPosition="4.796875" Velocity="0" />
      <note Length="0.015625" Pitch="78" RiffPosition="4.8125" Velocity="0" />
      <note Length="0.046875" Pitch="78" RiffPosition="4.828125" Velocity="0" />
      <note Length="0.0625" Pitch="78" RiffPosition="4.875" Velocity="0" />
      <note Length="0.0625" Pitch="78" RiffPosition="4.9375" Velocity="0" />
      <note Length="0.046875" Pitch="70" RiffPosition="5" Velocity="0" />
      <note Length="0.046875" Pitch="70" RiffPosition="5.046875" Velocity="0" />
      <note Length="0.03125" Pitch="82" RiffPosition="5.09375" Velocity="0" />
      <note Length="0.0625" Pitch="87" RiffPosition="5.125" Velocity="0" />
      <note Length="0.0625" Pitch="87" RiffPosition="5.1875" Velocity="0" />
      <note Length="0.046875" Pitch="82" RiffPosition="5.25" Velocity="0" />
      <note Length="0.015625" Pitch="75" RiffPosition="5.296875" Velocity="0" />
      <note Length="0.015625" Pitch="75" RiffPosition="5.3125" Velocity="0" />
      <note Length="0.046875" Pitch="75" RiffPosition="5.328125" Velocity="0" />
      <note Length="0.0625" Pitch="70" RiffPosition="5.375" Velocity="0" />
      <note Length="0.0625" Pitch="84" RiffPosition="5.4375" Velocity="0" />
      <note Length="0.046875" Pitch="85" RiffPosition="5.5" Velocity="0" />
      <note Length="0.046875" Pitch="70" RiffPosition="5.546875" Velocity="0" />
      <note Length="0.03125" Pitch="70" RiffPosition="5.59375" Velocity="0" />
      <note Length="0.0625" Pitch="82" RiffPosition="5.625" Velocity="0" />
      <note Length="0.0625" Pitch="82" RiffPosition="5.6875" Velocity="0" />
      <note Length="0.046875" Pitch="82" RiffPosition="5.75" Velocity="0" />
      <note Length="0.015625" Pitch="70" RiffPosition="5.796875" Velocity="0" />
      <note Length="0.015625" Pitch="70" RiffPosition="5.8125" Velocity="0" />
      <note Length="0.046875" Pitch="70" RiffPosition="5.828125" Velocity="0" />
      <note Length="0.0625" Pitch="70" RiffPosition="5.875" Velocity="0" />
      <note Length="0.0625" Pitch="70" RiffPosition="5.9375" Velocity="0" />
      <note Length="0.046875" Pitch="78" RiffPosition="6" Velocity="53" />
      <note Length="0.046875" Pitch="78" RiffPosition="6.046875" Velocity="58" />
      <note Length="0.03125" Pitch="90" RiffPosition="6.09375" Velocity="80" />
      <note Length="0.0625" Pitch="95" RiffPosition="6.125" Velocity="54" />
      <note Length="0.0625" Pitch="95" RiffPosition="6.1875" Velocity="87" />
      <note Length="0.046875" Pitch="90" RiffPosition="6.25" Velocity="76" />
      <note Length="0.015625" Pitch="83" RiffPosition="6.296875" Velocity="66" />
      <note Length="0.015625" Pitch="83" RiffPosition="6.3125" Velocity="43" />
      <note Length="0.046875" Pitch="83" RiffPosition="6.328125" Velocity="44" />
      <note Length="0.0625" Pitch="78" RiffPosition="6.375" Velocity="126" />
      <note Length="0.0625" Pitch="92" RiffPosition="6.4375" Velocity="64" />
      <note Length="0.046875" Pitch="93" RiffPosition="6.5" Velocity="42" />
      <note Length="0.046875" Pitch="78" RiffPosition="6.546875" Velocity="69" />
      <note Length="0.03125" Pitch="78" RiffPosition="6.59375" Velocity="69" />
      <note Length="0.0625" Pitch="90" RiffPosition="6.625" Velocity="65" />
      <note Length="0.0625" Pitch="90" RiffPosition="6.6875" Velocity="41" />
      <note Length="0.046875" Pitch="90" RiffPosition="6.75" Velocity="65" />
      <note Length="0.015625" Pitch="78" RiffPosition="6.796875" Velocity="77" />
      <note Length="0.015625" Pitch="78" RiffPosition="6.8125" Velocity="48" />
      <note Length="0.046875" Pitch="78" RiffPosition="6.828125" Velocity="48" />
      <note Length="0.0625" Pitch="78" RiffPosition="6.875" Velocity="115" />
      <note Length="0.0625" Pitch="78" RiffPosition="6.9375" Velocity="75" />
      <note Length="0.046875" Pitch="70" RiffPosition="7" Velocity="88" />
      <note Length="0.046875" Pitch="70" RiffPosition="7.046875" Velocity="80" />
      <note Length="0.03125" Pitch="82" RiffPosition="7.09375" Velocity="80" />
      <note Length="0.0625" Pitch="87" RiffPosition="7.125" Velocity="54" />
      <note Length="0.0625" Pitch="87" RiffPosition="7.1875" Velocity="52" />
      <note Length="0.046875" Pitch="82" RiffPosition="7.25" Velocity="54" />
      <note Length="0.015625" Pitch="75" RiffPosition="7.296875" Velocity="66" />
      <note Length="0.015625" Pitch="75" RiffPosition="7.3125" Velocity="78" />
      <note Length="0.046875" Pitch="75" RiffPosition="7.328125" Velocity="78" />
      <note Length="0.0625" Pitch="70" RiffPosition="7.375" Velocity="104" />
      <note Length="0.0625" Pitch="84" RiffPosition="7.4375" Velocity="64" />
      <note Length="0.046875" Pitch="85" RiffPosition="7.5" Velocity="76" />
      <note Length="0.046875" Pitch="70" RiffPosition="7.546875" Velocity="69" />
      <note Length="0.03125" Pitch="70" RiffPosition="7.59375" Velocity="91" />
      <note Length="0.0625" Pitch="82" RiffPosition="7.625" Velocity="65" />
      <note Length="0.0625" Pitch="82" RiffPosition="7.6875" Velocity="64" />
      <note Length="0.046875" Pitch="82" RiffPosition="7.75" Velocity="65" />
      <note Length="0.015625" Pitch="70" RiffPosition="7.796875" Velocity="89" />
      <note Length="0.015625" Pitch="70" RiffPosition="7.8125" Velocity="66" />
      <note Length="0.046875" Pitch="70" RiffPosition="7.828125" Velocity="67" />
      <note Length="0.0625" Pitch="70" RiffPosition="7.875" Velocity="92" />
      <note Length="0.0625" Pitch="70" RiffPosition="7.9375" Velocity="75" />
      <note Length="0.046875" Pitch="78" RiffPosition="8" Velocity="65" />
      <note Length="0.046875" Pitch="78" RiffPosition="8.046875" Velocity="80" />
      <note Length="0.03125" Pitch="90" RiffPosition="8.09375" Velocity="103" />
      <note Length="0.0625" Pitch="95" RiffPosition="8.125" Velocity="42" />
      <note Length="0.0625" Pitch="95" RiffPosition="8.1875" Velocity="53" />
      <note Length="0.046875" Pitch="90" RiffPosition="8.25" Velocity="53" />
      <note Length="0.015625" Pitch="83" RiffPosition="8.296875" Velocity="77" />
      <note Length="0.015625" Pitch="83" RiffPosition="8.3125" Velocity="55" />
      <note Length="0.046875" Pitch="83" RiffPosition="8.328125" Velocity="55" />
      <note Length="0.0625" Pitch="78" RiffPosition="8.375" Velocity="103" />
      <note Length="0.0625" Pitch="92" RiffPosition="8.4375" Velocity="52" />
      <note Length="0.046875" Pitch="93" RiffPosition="8.5" Velocity="76" />
      <note Length="0.046875" Pitch="78" RiffPosition="8.546875" Velocity="92" />
      <note Length="0.03125" Pitch="78" RiffPosition="8.59375" Velocity="57" />
      <note Length="0.0625" Pitch="90" RiffPosition="8.625" Velocity="54" />
      <note Length="0.0625" Pitch="90" RiffPosition="8.6875" Velocity="64" />
      <note Length="0.046875" Pitch="90" RiffPosition="8.75" Velocity="76" />
      <note Length="0.015625" Pitch="78" RiffPosition="8.796875" Velocity="88" />
      <note Length="0.015625" Pitch="78" RiffPosition="8.8125" Velocity="66" />
      <note Length="0.046875" Pitch="78" RiffPosition="8.828125" Velocity="44" />
      <note Length="0.0625" Pitch="78" RiffPosition="8.875" Velocity="92" />
      <note Length="0.0625" Pitch="78" RiffPosition="8.9375" Velocity="64" />
      <note Length="0.046875" Pitch="70" RiffPosition="9" Velocity="65" />
      <note Length="0.046875" Pitch="70" RiffPosition="9.046875" Velocity="103" />
      <note Length="0.03125" Pitch="82" RiffPosition="9.09375" Velocity="69" />
      <note Length="0.0625" Pitch="87" RiffPosition="9.125" Velocity="43" />
      <note Length="0.0625" Pitch="87" RiffPosition="9.1875" Velocity="75" />
      <note Length="0.046875" Pitch="82" RiffPosition="9.25" Velocity="65" />
      <note Length="0.015625" Pitch="75" RiffPosition="9.296875" Velocity="77" />
      <note Length="0.015625" Pitch="75" RiffPosition="9.3125" Velocity="55" />
      <note Length="0.046875" Pitch="75" RiffPosition="9.328125" Velocity="55" />
      <note Length="0.0625" Pitch="70" RiffPosition="9.375" Velocity="81" />
      <note Length="0.0625" Pitch="84" RiffPosition="9.4375" Velocity="53" />
      <note Length="0.046875" Pitch="85" RiffPosition="9.5" Velocity="53" />
      <note Length="0.046875" Pitch="70" RiffPosition="9.546875" Velocity="58" />
      <note Length="0.03125" Pitch="70" RiffPosition="9.59375" Velocity="80" />
      <note Length="0.0625" Pitch="82" RiffPosition="9.625" Velocity="54" />
      <note Length="0.0625" Pitch="82" RiffPosition="9.6875" Velocity="87" />
      <note Length="0.046875" Pitch="82" RiffPosition="9.75" Velocity="76" />
      <note Length="0.015625" Pitch="70" RiffPosition="9.796875" Velocity="66" />
      <note Length="0.015625" Pitch="70" RiffPosition="9.8125" Velocity="43" />
      <note Length="0.046875" Pitch="70" RiffPosition="9.828125" Velocity="44" />
      <note Length="0.0625" Pitch="70" RiffPosition="9.875" Velocity="126" />
      <note Length="0.0625" Pitch="70" RiffPosition="9.9375" Velocity="64" />
      <note Length="0.046875" Pitch="78" RiffPosition="10" Velocity="0" />
      <note Length="0.046875" Pitch="78" RiffPosition="10.046875" Velocity="0" />
      <note Length="0.03125" Pitch="90" RiffPosition="10.09375" Velocity="0" />
      <note Length="0.0625" Pitch="95" RiffPosition="10.125" Velocity="0" />
      <note Length="0.0625" Pitch="95" RiffPosition="10.1875" Velocity="0" />
      <note Length="0.046875" Pitch="90" RiffPosition="10.25" Velocity="0" />
      <note Length="0.015625" Pitch="83" RiffPosition="10.296875" Velocity="0" />
      <note Length="0.015625" Pitch="83" RiffPosition="10.3125" Velocity="0" />
      <note Length="0.046875" Pitch="83" RiffPosition="10.328125" Velocity="0" />
      <note Length="0.0625" Pitch="78" RiffPosition="10.375" Velocity="0" />
      <note Length="0.0625" Pitch="92" RiffPosition="10.4375" Velocity="0" />
      <note Length="0.046875" Pitch="93" RiffPosition="10.5" Velocity="0" />
      <note Length="0.046875" Pitch="78" RiffPosition="10.546875" Velocity="0" />
      <note Length="0.03125" Pitch="78" RiffPosition="10.59375" Velocity="0" />
      <note Length="0.0625" Pitch="90" RiffPosition="10.625" Velocity="0" />
      <note Length="0.0625" Pitch="90" RiffPosition="10.6875" Velocity="0" />
      <note Length="0.046875" Pitch="90" RiffPosition="10.75" Velocity="0" />
      <note Length="0.015625" Pitch="78" RiffPosition="10.796875" Velocity="0" />
      <note Length="0.015625" Pitch="78" RiffPosition="10.8125" Velocity="0" />
      <note Length="0.046875" Pitch="78" RiffPosition="10.828125" Velocity="0" />
      <note Length="0.0625" Pitch="78" RiffPosition="10.875" Velocity="0" />
      <note Length="0.0625" Pitch="78" RiffPosition="10.9375" Velocity="0" />
    </riff>
    <riff IsDrum="False" MidiInstrument="46" Tempo="140" Length="11">
      <note Length="0.015625" Pitch="93" RiffPosition="0" Velocity="0" />
      <note Length="0.015625" Pitch="93" RiffPosition="0.015625" Velocity="0" />
      <note Length="0.046875" Pitch="90" RiffPosition="0.03125" Velocity="0" />
      <note Length="0.046875" Pitch="86" RiffPosition="0.078125" Velocity="0" />
      <note Length="0.03125" Pitch="95" RiffPosition="0.125" Velocity="0" />
      <note Length="0.03125" Pitch="93" RiffPosition="0.15625" Velocity="0" />
      <note Length="0.03125" Pitch="78" RiffPosition="0.1875" Velocity="0" />
      <note Length="0.03125" Pitch="90" RiffPosition="0.21875" Velocity="0" />
      <note Length="0.0625" Pitch="95" RiffPosition="0.25" Velocity="0" />
      <note Length="0.0625" Pitch="78" RiffPosition="0.3125" Velocity="0" />
      <note Length="0.0625" Pitch="93" RiffPosition="0.375" Velocity="0" />
      <note Length="0.0625" Pitch="83" RiffPosition="0.4375" Velocity="0" />
      <note Length="0.015625" Pitch="92" RiffPosition="0.5" Velocity="0" />
      <note Length="0.015625" Pitch="92" RiffPosition="0.515625" Velocity="0" />
      <note Length="0.046875" Pitch="90" RiffPosition="0.53125" Velocity="0" />
      <note Length="0.046875" Pitch="85" RiffPosition="0.578125" Velocity="0" />
      <note Length="0.03125" Pitch="93" RiffPosition="0.625" Velocity="0" />
      <note Length="0.03125" Pitch="90" RiffPosition="0.65625" Velocity="0" />
      <note Length="0.03125" Pitch="78" RiffPosition="0.6875" Velocity="0" />
      <note Length="0.03125" Pitch="78" RiffPosition="0.71875" Velocity="0" />
      <note Length="0.0625" Pitch="95" RiffPosition="0.75" Velocity="0" />
      <note Length="0.0625" Pitch="78" RiffPosition="0.8125" Velocity="0" />
      <note Length="0.0625" Pitch="93" RiffPosition="0.875" Velocity="0" />
      <note Length="0.0625" Pitch="86" RiffPosition="0.9375" Velocity="0" />
      <note Length="0.015625" Pitch="82" RiffPosition="1" Velocity="0" />
      <note Length="0.015625" Pitch="82" RiffPosition="1.015625" Velocity="0" />
      <note Length="0.046875" Pitch="70" RiffPosition="1.03125" Velocity="0" />
      <note Length="0.046875" Pitch="75" RiffPosition="1.078125" Velocity="0" />
      <note Length="0.03125" Pitch="87" RiffPosition="1.125" Velocity="0" />
      <note Length="0.03125" Pitch="82" RiffPosition="1.15625" Velocity="0" />
      <note Length="0.03125" Pitch="70" RiffPosition="1.1875" Velocity="0" />
      <note Length="0.03125" Pitch="70" RiffPosition="1.21875" Velocity="0" />
      <note Length="0.0625" Pitch="89" RiffPosition="1.25" Velocity="0" />
      <note Length="0.0625" Pitch="70" RiffPosition="1.3125" Velocity="0" />
      <note Length="0.0625" Pitch="84" RiffPosition="1.375" Velocity="0" />
      <note Length="0.0625" Pitch="78" RiffPosition="1.4375" Velocity="0" />
      <note Length="0.015625" Pitch="82" RiffPosition="1.5" Velocity="0" />
      <note Length="0.015625" Pitch="82" RiffPosition="1.515625" Velocity="0" />
      <note Length="0.046875" Pitch="70" RiffPosition="1.53125" Velocity="0" />
      <note Length="0.046875" Pitch="78" RiffPosition="1.578125" Velocity="0" />
      <note Length="0.03125" Pitch="87" RiffPosition="1.625" Velocity="0" />
      <note Length="0.03125" Pitch="70" RiffPosition="1.65625" Velocity="0" />
      <note Length="0.03125" Pitch="70" RiffPosition="1.6875" Velocity="0" />
      <note Length="0.03125" Pitch="82" RiffPosition="1.71875" Velocity="0" />
      <note Length="0.0625" Pitch="87" RiffPosition="1.75" Velocity="0" />
      <note Length="0.0625" Pitch="70" RiffPosition="1.8125" Velocity="0" />
      <note Length="0.0625" Pitch="82" RiffPosition="1.875" Velocity="0" />
      <note Length="0.0625" Pitch="77" RiffPosition="1.9375" Velocity="0" />
      <note Length="0.015625" Pitch="90" RiffPosition="2" Velocity="0" />
      <note Length="0.015625" Pitch="90" RiffPosition="2.015625" Velocity="0" />
      <note Length="0.046875" Pitch="78" RiffPosition="2.03125" Velocity="0" />
      <note Length="0.046875" Pitch="85" RiffPosition="2.078125" Velocity="0" />
      <note Length="0.03125" Pitch="95" RiffPosition="2.125" Velocity="0" />
      <note Length="0.03125" Pitch="78" RiffPosition="2.15625" Velocity="0" />
      <note Length="0.03125" Pitch="78" RiffPosition="2.1875" Velocity="0" />
      <note Length="0.03125" Pitch="90" RiffPosition="2.21875" Velocity="0" />
      <note Length="0.0625" Pitch="95" RiffPosition="2.25" Velocity="0" />
      <note Length="0.0625" Pitch="86" RiffPosition="2.3125" Velocity="0" />
      <note Length="0.0625" Pitch="93" RiffPosition="2.375" Velocity="0" />
      <note Length="0.0625" Pitch="83" RiffPosition="2.4375" Velocity="0" />
      <note Length="0.015625" Pitch="92" RiffPosition="2.5" Velocity="0" />
      <note Length="0.015625" Pitch="90" RiffPosition="2.515625" Velocity="0" />
      <note Length="0.046875" Pitch="78" RiffPosition="2.53125" Velocity="0" />
      <note Length="0.046875" Pitch="78" RiffPosition="2.578125" Velocity="0" />
      <note Length="0.03125" Pitch="93" RiffPosition="2.625" Velocity="0" />
      <note Length="0.03125" Pitch="78" RiffPosition="2.65625" Velocity="0" />
      <note Length="0.03125" Pitch="78" RiffPosition="2.6875" Velocity="0" />
      <note Length="0.03125" Pitch="92" RiffPosition="2.71875" Velocity="0" />
      <note Length="0.0625" Pitch="95" RiffPosition="2.75" Velocity="0" />
      <note Length="0.0625" Pitch="86" RiffPosition="2.8125" Velocity="0" />
      <note Length="0.0625" Pitch="93" RiffPosition="2.875" Velocity="0" />
      <note Length="0.0625" Pitch="86" RiffPosition="2.9375" Velocity="0" />
      <note Length="0.015625" Pitch="85" RiffPosition="3" Velocity="0" />
      <note Length="0.015625" Pitch="85" RiffPosition="3.015625" Velocity="0" />
      <note Length="0.046875" Pitch="70" RiffPosition="3.03125" Velocity="0" />
      <note Length="0.046875" Pitch="78" RiffPosition="3.078125" Velocity="0" />
      <note Length="0.03125" Pitch="84" RiffPosition="3.125" Velocity="0" />
      <note Length="0.03125" Pitch="85" RiffPosition="3.15625" Velocity="0" />
      <note Length="0.03125" Pitch="70" RiffPosition="3.1875" Velocity="0" />
      <note Length="0.03125" Pitch="82" RiffPosition="3.21875" Velocity="0" />
      <note Length="0.0625" Pitch="85" RiffPosition="3.25" Velocity="0" />
      <note Length="0.0625" Pitch="70" RiffPosition="3.3125" Velocity="0" />
      <note Length="0.0625" Pitch="87" RiffPosition="3.375" Velocity="0" />
      <note Length="0.0625" Pitch="78" RiffPosition="3.4375" Velocity="0" />
      <note Length="0.015625" Pitch="85" RiffPosition="3.5" Velocity="0" />
      <note Length="0.015625" Pitch="85" RiffPosition="3.515625" Velocity="0" />
      <note Length="0.046875" Pitch="70" RiffPosition="3.53125" Velocity="0" />
      <note Length="0.046875" Pitch="78" RiffPosition="3.578125" Velocity="0" />
      <note Length="0.03125" Pitch="82" RiffPosition="3.625" Velocity="0" />
      <note Length="0.03125" Pitch="84" RiffPosition="3.65625" Velocity="0" />
      <note Length="0.03125" Pitch="70" RiffPosition="3.6875" Velocity="0" />
      <note Length="0.03125" Pitch="82" RiffPosition="3.71875" Velocity="0" />
      <note Length="0.0625" Pitch="84" RiffPosition="3.75" Velocity="0" />
      <note Length="0.0625" Pitch="70" RiffPosition="3.8125" Velocity="0" />
      <note Length="0.0625" Pitch="85" RiffPosition="3.875" Velocity="0" />
      <note Length="0.0625" Pitch="77" RiffPosition="3.9375" Velocity="0" />
      <note Length="0.015625" Pitch="93" RiffPosition="4" Velocity="0" />
      <note Length="0.015625" Pitch="93" RiffPosition="4.015625" Velocity="0" />
      <note Length="0.046875" Pitch="90" RiffPosition="4.03125" Velocity="0" />
      <note Length="0.046875" Pitch="85" RiffPosition="4.078125" Velocity="0" />
      <note Length="0.03125" Pitch="93" RiffPosition="4.125" Velocity="0" />
      <note Length="0.03125" Pitch="92" RiffPosition="4.15625" Velocity="0" />
      <note Length="0.03125" Pitch="86" RiffPosition="4.1875" Velocity="0" />
      <note Length="0.03125" Pitch="90" RiffPosition="4.21875" Velocity="0" />
      <note Length="0.0625" Pitch="95" RiffPosition="4.25" Velocity="0" />
      <note Length="0.0625" Pitch="78" RiffPosition="4.3125" Velocity="0" />
      <note Length="0.0625" Pitch="93" RiffPosition="4.375" Velocity="0" />
      <note Length="0.0625" Pitch="86" RiffPosition="4.4375" Velocity="0" />
      <note Length="0.015625" Pitch="90" RiffPosition="4.5" Velocity="0" />
      <note Length="0.015625" Pitch="90" RiffPosition="4.515625" Velocity="0" />
      <note Length="0.046875" Pitch="78" RiffPosition="4.53125" Velocity="0" />
      <note Length="0.046875" Pitch="85" RiffPosition="4.578125" Velocity="0" />
      <note Length="0.03125" Pitch="92" RiffPosition="4.625" Velocity="0" />
      <note Length="0.03125" Pitch="90" RiffPosition="4.65625" Velocity="0" />
      <note Length="0.03125" Pitch="78" RiffPosition="4.6875" Velocity="0" />
      <note Length="0.03125" Pitch="78" RiffPosition="4.71875" Velocity="0" />
      <note Length="0.0625" Pitch="90" RiffPosition="4.75" Velocity="0" />
      <note Length="0.0625" Pitch="78" RiffPosition="4.8125" Velocity="0" />
      <note Length="0.0625" Pitch="93" RiffPosition="4.875" Velocity="0" />
      <note Length="0.0625" Pitch="86" RiffPosition="4.9375" Velocity="0" />
      <note Length="0.015625" Pitch="82" RiffPosition="5" Velocity="0" />
      <note Length="0.015625" Pitch="82" RiffPosition="5.015625" Velocity="0" />
      <note Length="0.046875" Pitch="70" RiffPosition="5.03125" Velocity="0" />
      <note Length="0.046875" Pitch="78" RiffPosition="5.078125" Velocity="0" />
      <note Length="0.03125" Pitch="87" RiffPosition="5.125" Velocity="0" />
      <note Length="0.03125" Pitch="70" RiffPosition="5.15625" Velocity="0" />
      <note Length="0.03125" Pitch="70" RiffPosition="5.1875" Velocity="0" />
      <note Length="0.03125" Pitch="82" RiffPosition="5.21875" Velocity="0" />
      <note Length="0.0625" Pitch="87" RiffPosition="5.25" Velocity="0" />
      <note Length="0.0625" Pitch="70" RiffPosition="5.3125" Velocity="0" />
      <note Length="0.0625" Pitch="84" RiffPosition="5.375" Velocity="0" />
      <note Length="0.0625" Pitch="77" RiffPosition="5.4375" Velocity="0" />
      <note Length="0.015625" Pitch="82" RiffPosition="5.5" Velocity="0" />
      <note Length="0.015625" Pitch="82" RiffPosition="5.515625" Velocity="0" />
      <note Length="0.046875" Pitch="70" RiffPosition="5.53125" Velocity="0" />
      <note Length="0.046875" Pitch="77" RiffPosition="5.578125" Velocity="0" />
      <note Length="0.03125" Pitch="87" RiffPosition="5.625" Velocity="0" />
      <note Length="0.03125" Pitch="70" RiffPosition="5.65625" Velocity="0" />
      <note Length="0.03125" Pitch="70" RiffPosition="5.6875" Velocity="0" />
      <note Length="0.03125" Pitch="70" RiffPosition="5.71875" Velocity="0" />
      <note Length="0.0625" Pitch="87" RiffPosition="5.75" Velocity="0" />
      <note Length="0.0625" Pitch="78" RiffPosition="5.8125" Velocity="0" />
      <note Length="0.0625" Pitch="85" RiffPosition="5.875" Velocity="0" />
      <note Length="0.0625" Pitch="75" RiffPosition="5.9375" Velocity="0" />
      <note Length="0.015625" Pitch="93" RiffPosition="6" Velocity="100" />
      <note Length="0.015625" Pitch="92" RiffPosition="6.015625" Velocity="94" />
      <note Length="0.046875" Pitch="90" RiffPosition="6.03125" Velocity="92" />
      <note Length="0.046875" Pitch="85" RiffPosition="6.078125" Velocity="89" />
      <note Length="0.03125" Pitch="93" RiffPosition="6.125" Velocity="47" />
      <note Length="0.03125" Pitch="78" RiffPosition="6.15625" Velocity="52" />
      <note Length="0.03125" Pitch="78" RiffPosition="6.1875" Velocity="66" />
      <note Length="0.03125" Pitch="93" RiffPosition="6.21875" Velocity="71" />
      <note Length="0.0625" Pitch="95" RiffPosition="6.25" Velocity="85" />
      <note Length="0.0625" Pitch="86" RiffPosition="6.3125" Velocity="89" />
      <note Length="0.0625" Pitch="92" RiffPosition="6.375" Velocity="58" />
      <note Length="0.0625" Pitch="86" RiffPosition="6.4375" Velocity="120" />
      <note Length="0.015625" Pitch="93" RiffPosition="6.5" Velocity="75" />
      <note Length="0.015625" Pitch="90" RiffPosition="6.515625" Velocity="46" />
      <note Length="0.046875" Pitch="78" RiffPosition="6.53125" Velocity="59" />
      <note Length="0.046875" Pitch="78" RiffPosition="6.578125" Velocity="96" />
      <note Length="0.03125" Pitch="92" RiffPosition="6.625" Velocity="84" />
      <note Length="0.03125" Pitch="93" RiffPosition="6.65625" Velocity="43" />
      <note Length="0.03125" Pitch="78" RiffPosition="6.6875" Velocity="70" />
      <note Length="0.03125" Pitch="92" RiffPosition="6.71875" Velocity="110" />
      <note Length="0.0625" Pitch="93" RiffPosition="6.75" Velocity="92" />
      <note Length="0.0625" Pitch="78" RiffPosition="6.8125" Velocity="84" />
      <note Length="0.0625" Pitch="95" RiffPosition="6.875" Velocity="109" />
      <note Length="0.0625" Pitch="86" RiffPosition="6.9375" Velocity="53" />
      <note Length="0.015625" Pitch="85" RiffPosition="7" Velocity="100" />
      <note Length="0.015625" Pitch="85" RiffPosition="7.015625" Velocity="94" />
      <note Length="0.046875" Pitch="70" RiffPosition="7.03125" Velocity="92" />
      <note Length="0.046875" Pitch="78" RiffPosition="7.078125" Velocity="89" />
      <note Length="0.03125" Pitch="82" RiffPosition="7.125" Velocity="47" />
      <note Length="0.03125" Pitch="84" RiffPosition="7.15625" Velocity="52" />
      <note Length="0.03125" Pitch="70" RiffPosition="7.1875" Velocity="66" />
      <note Length="0.03125" Pitch="82" RiffPosition="7.21875" Velocity="71" />
      <note Length="0.0625" Pitch="84" RiffPosition="7.25" Velocity="85" />
      <note Length="0.0625" Pitch="82" RiffPosition="7.3125" Velocity="89" />
      <note Length="0.0625" Pitch="87" RiffPosition="7.375" Velocity="58" />
      <note Length="0.0625" Pitch="77" RiffPosition="7.4375" Velocity="120" />
      <note Length="0.015625" Pitch="85" RiffPosition="7.5" Velocity="75" />
      <note Length="0.015625" Pitch="85" RiffPosition="7.515625" Velocity="46" />
      <note Length="0.046875" Pitch="82" RiffPosition="7.53125" Velocity="59" />
      <note Length="0.046875" Pitch="78" RiffPosition="7.578125" Velocity="96" />
      <note Length="0.03125" Pitch="85" RiffPosition="7.625" Velocity="84" />
      <note Length="0.03125" Pitch="84" RiffPosition="7.65625" Velocity="43" />
      <note Length="0.03125" Pitch="78" RiffPosition="7.6875" Velocity="70" />
      <note Length="0.03125" Pitch="70" RiffPosition="7.71875" Velocity="110" />
      <note Length="0.0625" Pitch="87" RiffPosition="7.75" Velocity="92" />
      <note Length="0.0625" Pitch="70" RiffPosition="7.8125" Velocity="84" />
      <note Length="0.0625" Pitch="85" RiffPosition="7.875" Velocity="109" />
      <note Length="0.0625" Pitch="70" RiffPosition="7.9375" Velocity="53" />
      <note Length="0.015625" Pitch="92" RiffPosition="8" Velocity="100" />
      <note Length="0.015625" Pitch="92" RiffPosition="8.015625" Velocity="94" />
      <note Length="0.046875" Pitch="90" RiffPosition="8.03125" Velocity="92" />
      <note Length="0.046875" Pitch="85" RiffPosition="8.078125" Velocity="89" />
      <note Length="0.03125" Pitch="93" RiffPosition="8.125" Velocity="47" />
      <note Length="0.03125" Pitch="90" RiffPosition="8.15625" Velocity="52" />
      <note Length="0.03125" Pitch="78" RiffPosition="8.1875" Velocity="66" />
      <note Length="0.03125" Pitch="78" RiffPosition="8.21875" Velocity="71" />
      <note Length="0.0625" Pitch="90" RiffPosition="8.25" Velocity="85" />
      <note Length="0.0625" Pitch="78" RiffPosition="8.3125" Velocity="89" />
      <note Length="0.0625" Pitch="92" RiffPosition="8.375" Velocity="58" />
      <note Length="0.0625" Pitch="85" RiffPosition="8.4375" Velocity="120" />
      <note Length="0.015625" Pitch="90" RiffPosition="8.5" Velocity="75" />
      <note Length="0.015625" Pitch="90" RiffPosition="8.515625" Velocity="46" />
      <note Length="0.046875" Pitch="78" RiffPosition="8.53125" Velocity="59" />
      <note Length="0.046875" Pitch="86" RiffPosition="8.578125" Velocity="96" />
      <note Length="0.03125" Pitch="92" RiffPosition="8.625" Velocity="84" />
      <note Length="0.03125" Pitch="90" RiffPosition="8.65625" Velocity="43" />
      <note Length="0.03125" Pitch="78" RiffPosition="8.6875" Velocity="70" />
      <note Length="0.03125" Pitch="78" RiffPosition="8.71875" Velocity="110" />
      <note Length="0.0625" Pitch="97" RiffPosition="8.75" Velocity="92" />
      <note Length="0.0625" Pitch="78" RiffPosition="8.8125" Velocity="84" />
      <note Length="0.0625" Pitch="92" RiffPosition="8.875" Velocity="109" />
      <note Length="0.0625" Pitch="85" RiffPosition="8.9375" Velocity="53" />
      <note Length="0.015625" Pitch="82" RiffPosition="9" Velocity="100" />
      <note Length="0.015625" Pitch="82" RiffPosition="9.015625" Velocity="94" />
      <note Length="0.046875" Pitch="70" RiffPosition="9.03125" Velocity="92" />
      <note Length="0.046875" Pitch="77" RiffPosition="9.078125" Velocity="89" />
      <note Length="0.03125" Pitch="85" RiffPosition="9.125" Velocity="47" />
      <note Length="0.03125" Pitch="70" RiffPosition="9.15625" Velocity="52" />
      <note Length="0.03125" Pitch="70" RiffPosition="9.1875" Velocity="66" />
      <note Length="0.03125" Pitch="70" RiffPosition="9.21875" Velocity="71" />
      <note Length="0.0625" Pitch="87" RiffPosition="9.25" Velocity="85" />
      <note Length="0.0625" Pitch="70" RiffPosition="9.3125" Velocity="89" />
      <note Length="0.0625" Pitch="85" RiffPosition="9.375" Velocity="58" />
      <note Length="0.0625" Pitch="77" RiffPosition="9.4375" Velocity="120" />
      <note Length="0.015625" Pitch="82" RiffPosition="9.5" Velocity="75" />
      <note Length="0.015625" Pitch="85" RiffPosition="9.515625" Velocity="46" />
      <note Length="0.046875" Pitch="82" RiffPosition="9.53125" Velocity="59" />
      <note Length="0.046875" Pitch="77" RiffPosition="9.578125" Velocity="96" />
      <note Length="0.03125" Pitch="85" RiffPosition="9.625" Velocity="84" />
      <note Length="0.03125" Pitch="70" RiffPosition="9.65625" Velocity="43" />
      <note Length="0.03125" Pitch="70" RiffPosition="9.6875" Velocity="70" />
      <note Length="0.03125" Pitch="70" RiffPosition="9.71875" Velocity="110" />
      <note Length="0.0625" Pitch="85" RiffPosition="9.75" Velocity="92" />
      <note Length="0.0625" Pitch="77" RiffPosition="9.8125" Velocity="84" />
      <note Length="0.0625" Pitch="85" RiffPosition="9.875" Velocity="109" />
      <note Length="0.0625" Pitch="75" RiffPosition="9.9375" Velocity="53" />
      <note Length="0.015625" Pitch="95" RiffPosition="10" Velocity="0" />
      <note Length="0.015625" Pitch="90" RiffPosition="10.015625" Velocity="0" />
      <note Length="0.046875" Pitch="78" RiffPosition="10.03125" Velocity="0" />
      <note Length="0.046875" Pitch="78" RiffPosition="10.078125" Velocity="0" />
      <note Length="0.03125" Pitch="93" RiffPosition="10.125" Velocity="0" />
      <note Length="0.03125" Pitch="90" RiffPosition="10.15625" Velocity="0" />
      <note Length="0.03125" Pitch="78" RiffPosition="10.1875" Velocity="0" />
      <note Length="0.03125" Pitch="92" RiffPosition="10.21875" Velocity="0" />
      <note Length="0.0625" Pitch="93" RiffPosition="10.25" Velocity="0" />
      <note Length="0.0625" Pitch="78" RiffPosition="10.3125" Velocity="0" />
      <note Length="0.0625" Pitch="92" RiffPosition="10.375" Velocity="0" />
      <note Length="0.0625" Pitch="85" RiffPosition="10.4375" Velocity="0" />
      <note Length="0.015625" Pitch="93" RiffPosition="10.5" Velocity="0" />
      <note Length="0.015625" Pitch="93" RiffPosition="10.515625" Velocity="0" />
      <note Length="0.046875" Pitch="78" RiffPosition="10.53125" Velocity="0" />
      <note Length="0.046875" Pitch="86" RiffPosition="10.578125" Velocity="0" />
      <note Length="0.03125" Pitch="92" RiffPosition="10.625" Velocity="0" />
      <note Length="0.03125" Pitch="93" RiffPosition="10.65625" Velocity="0" />
      <note Length="0.03125" Pitch="78" RiffPosition="10.6875" Velocity="0" />
      <note Length="0.03125" Pitch="90" RiffPosition="10.71875" Velocity="0" />
      <note Length="0.0625" Pitch="93" RiffPosition="10.75" Velocity="0" />
      <note Length="0.0625" Pitch="78" RiffPosition="10.8125" Velocity="0" />
      <note Length="0.0625" Pitch="95" RiffPosition="10.875" Velocity="0" />
      <note Length="0.0625" Pitch="85" RiffPosition="10.9375" Velocity="0" />
    </riff>
    <riff IsDrum="False" MidiInstrument="94" Tempo="89" Length="11">
      <note Length="1" Pitch="69" RiffPosition="0" Velocity="90" />
      <note Length="1" Pitch="63" RiffPosition="1" Velocity="90" />
      <note Length="1" Pitch="66" RiffPosition="2" Velocity="90" />
      <note Length="1" Pitch="63" RiffPosition="3" Velocity="90" />
      <note Length="1" Pitch="69" RiffPosition="4" Velocity="90" />
      <note Length="0.25" Pitch="60" RiffPosition="5" Velocity="90" />
      <note Length="0.75" Pitch="58" RiffPosition="5.25" Velocity="90" />
      <note Length="0.5" Pitch="66" RiffPosition="6" Velocity="90" />
      <note Length="0.5" Pitch="54" RiffPosition="6.5" Velocity="90" />
      <note Length="1" Pitch="46" RiffPosition="7" Velocity="90" />
      <note Length="1" Pitch="62" RiffPosition="8" Velocity="90" />
      <note Length="1" Pitch="53" RiffPosition="9" Velocity="90" />
      <note Length="1" Pitch="59" RiffPosition="10" Velocity="0" />
    </riff>
    <riff IsDrum="False" MidiInstrument="94" Tempo="99" Length="11">
      <note Length="1" Pitch="54" RiffPosition="0" Velocity="90" />
      <note Length="1" Pitch="46" RiffPosition="1" Velocity="90" />
      <note Length="0.5" Pitch="54" RiffPosition="2" Velocity="90" />
      <note Length="1.5" Pitch="68" RiffPosition="2.5" Velocity="90" />
      <note Length="0.25" Pitch="69" RiffPosition="4" Velocity="90" />
      <note Length="0.25" Pitch="69" RiffPosition="4.25" Velocity="90" />
      <note Length="0.5" Pitch="69" RiffPosition="4.5" Velocity="90" />
      <note Length="1.5" Pitch="61" RiffPosition="5" Velocity="90" />
      <note Length="1.5" Pitch="71" RiffPosition="6.5" Velocity="90" />
      <note Length="1" Pitch="69" RiffPosition="8" Velocity="90" />
      <note Length="1" Pitch="61" RiffPosition="9" Velocity="90" />
      <note Length="0.5" Pitch="69" RiffPosition="10" Velocity="0" />
      <note Length="0.5" Pitch="66" RiffPosition="10.5" Velocity="0" />
    </riff>
    <riff IsDrum="False" MidiInstrument="29" Tempo="141" Length="11">
      <note Length="0.0234375" Pitch="69" RiffPosition="0" Velocity="0" />
      <note Length="0.0234375" Pitch="54" RiffPosition="0.0234375" Velocity="0" />
      <note Length="0.046875" Pitch="54" RiffPosition="0.046875" Velocity="0" />
      <note Length="0.00390625" Pitch="68" RiffPosition="0.09375" Velocity="0" />
      <note Length="0.01171875" Pitch="69" RiffPosition="0.09765625" Velocity="0" />
      <note Length="0.0078125" Pitch="73" RiffPosition="0.109375" Velocity="0" />
      <note Length="0.0078125" Pitch="66" RiffPosition="0.1171875" Velocity="0" />
      <note Length="0.125" Pitch="66" RiffPosition="0.125" Velocity="0" />
      <note Length="0.125" Pitch="66" RiffPosition="0.25" Velocity="0" />
      <note Length="0.0625" Pitch="69" RiffPosition="0.375" Velocity="0" />
      <note Length="0.0625" Pitch="59" RiffPosition="0.4375" Velocity="0" />
      <note Length="0.0234375" Pitch="54" RiffPosition="0.5" Velocity="0" />
      <note Length="0.0234375" Pitch="54" RiffPosition="0.5234375" Velocity="0" />
      <note Length="0.046875" Pitch="56" RiffPosition="0.546875" Velocity="0" />
      <note Length="0.00390625" Pitch="54" RiffPosition="0.59375" Velocity="0" />
      <note Length="0.01171875" Pitch="54" RiffPosition="0.59765625" Velocity="0" />
      <note Length="0.0078125" Pitch="54" RiffPosition="0.609375" Velocity="0" />
      <note Length="0.0078125" Pitch="66" RiffPosition="0.6171875" Velocity="0" />
      <note Length="0.125" Pitch="66" RiffPosition="0.625" Velocity="0" />
      <note Length="0.125" Pitch="66" RiffPosition="0.75" Velocity="0" />
      <note Length="0.0625" Pitch="66" RiffPosition="0.875" Velocity="0" />
      <note Length="0.0625" Pitch="54" RiffPosition="0.9375" Velocity="0" />
      <note Length="0.0234375" Pitch="63" RiffPosition="1" Velocity="0" />
      <note Length="0.0234375" Pitch="46" RiffPosition="1.0234375" Velocity="0" />
      <note Length="0.046875" Pitch="51" RiffPosition="1.046875" Velocity="0" />
      <note Length="0.00390625" Pitch="46" RiffPosition="1.09375" Velocity="0" />
      <note Length="0.01171875" Pitch="46" RiffPosition="1.09765625" Velocity="0" />
      <note Length="0.0078125" Pitch="58" RiffPosition="1.109375" Velocity="0" />
      <note Length="0.0078125" Pitch="60" RiffPosition="1.1171875" Velocity="0" />
      <note Length="0.125" Pitch="46" RiffPosition="1.125" Velocity="0" />
      <note Length="0.125" Pitch="58" RiffPosition="1.25" Velocity="0" />
      <note Length="0.0625" Pitch="63" RiffPosition="1.375" Velocity="0" />
      <note Length="0.0625" Pitch="46" RiffPosition="1.4375" Velocity="0" />
      <note Length="0.0234375" Pitch="58" RiffPosition="1.5" Velocity="0" />
      <note Length="0.0234375" Pitch="60" RiffPosition="1.5234375" Velocity="0" />
      <note Length="0.046875" Pitch="46" RiffPosition="1.546875" Velocity="0" />
      <note Length="0.00390625" Pitch="61" RiffPosition="1.59375" Velocity="0" />
      <note Length="0.01171875" Pitch="63" RiffPosition="1.59765625" Velocity="0" />
      <note Length="0.0078125" Pitch="63" RiffPosition="1.609375" Velocity="0" />
      <note Length="0.0078125" Pitch="65" RiffPosition="1.6171875" Velocity="0" />
      <note Length="0.125" Pitch="63" RiffPosition="1.625" Velocity="0" />
      <note Length="0.125" Pitch="61" RiffPosition="1.75" Velocity="0" />
      <note Length="0.0625" Pitch="60" RiffPosition="1.875" Velocity="0" />
      <note Length="0.0625" Pitch="51" RiffPosition="1.9375" Velocity="0" />
      <note Length="0.0234375" Pitch="68" RiffPosition="2" Velocity="0" />
      <note Length="0.0234375" Pitch="54" RiffPosition="2.0234375" Velocity="0" />
      <note Length="0.046875" Pitch="61" RiffPosition="2.046875" Velocity="0" />
      <note Length="0.00390625" Pitch="68" RiffPosition="2.09375" Velocity="0" />
      <note Length="0.01171875" Pitch="69" RiffPosition="2.09765625" Velocity="0" />
      <note Length="0.0078125" Pitch="66" RiffPosition="2.109375" Velocity="0" />
      <note Length="0.0078125" Pitch="66" RiffPosition="2.1171875" Velocity="0" />
      <note Length="0.125" Pitch="71" RiffPosition="2.125" Velocity="0" />
      <note Length="0.125" Pitch="66" RiffPosition="2.25" Velocity="0" />
      <note Length="0.0625" Pitch="69" RiffPosition="2.375" Velocity="0" />
      <note Length="0.0625" Pitch="57" RiffPosition="2.4375" Velocity="0" />
      <note Length="0.0234375" Pitch="66" RiffPosition="2.5" Velocity="0" />
      <note Length="0.0234375" Pitch="61" RiffPosition="2.5234375" Velocity="0" />
      <note Length="0.046875" Pitch="57" RiffPosition="2.546875" Velocity="0" />
      <note Length="0.00390625" Pitch="54" RiffPosition="2.59375" Velocity="0" />
      <note Length="0.01171875" Pitch="54" RiffPosition="2.59765625" Velocity="0" />
      <note Length="0.0078125" Pitch="66" RiffPosition="2.609375" Velocity="0" />
      <note Length="0.0078125" Pitch="68" RiffPosition="2.6171875" Velocity="0" />
      <note Length="0.125" Pitch="68" RiffPosition="2.625" Velocity="0" />
      <note Length="0.125" Pitch="66" RiffPosition="2.75" Velocity="0" />
      <note Length="0.0625" Pitch="66" RiffPosition="2.875" Velocity="0" />
      <note Length="0.0625" Pitch="54" RiffPosition="2.9375" Velocity="0" />
      <note Length="0.0234375" Pitch="61" RiffPosition="3" Velocity="0" />
      <note Length="0.0234375" Pitch="46" RiffPosition="3.0234375" Velocity="0" />
      <note Length="0.046875" Pitch="51" RiffPosition="3.046875" Velocity="0" />
      <note Length="0.00390625" Pitch="46" RiffPosition="3.09375" Velocity="0" />
      <note Length="0.01171875" Pitch="46" RiffPosition="3.09765625" Velocity="0" />
      <note Length="0.0078125" Pitch="58" RiffPosition="3.109375" Velocity="0" />
      <note Length="0.0078125" Pitch="58" RiffPosition="3.1171875" Velocity="0" />
      <note Length="0.125" Pitch="58" RiffPosition="3.125" Velocity="0" />
      <note Length="0.125" Pitch="58" RiffPosition="3.25" Velocity="0" />
      <note Length="0.0625" Pitch="63" RiffPosition="3.375" Velocity="0" />
      <note Length="0.0625" Pitch="46" RiffPosition="3.4375" Velocity="0" />
      <note Length="0.0234375" Pitch="58" RiffPosition="3.5" Velocity="0" />
      <note Length="0.0234375" Pitch="60" RiffPosition="3.5234375" Velocity="0" />
      <note Length="0.046875" Pitch="46" RiffPosition="3.546875" Velocity="0" />
      <note Length="0.00390625" Pitch="60" RiffPosition="3.59375" Velocity="0" />
      <note Length="0.01171875" Pitch="61" RiffPosition="3.59765625" Velocity="0" />
      <note Length="0.0078125" Pitch="63" RiffPosition="3.609375" Velocity="0" />
      <note Length="0.0078125" Pitch="58" RiffPosition="3.6171875" Velocity="0" />
      <note Length="0.125" Pitch="65" RiffPosition="3.625" Velocity="0" />
      <note Length="0.125" Pitch="60" RiffPosition="3.75" Velocity="0" />
      <note Length="0.0625" Pitch="58" RiffPosition="3.875" Velocity="0" />
      <note Length="0.0625" Pitch="51" RiffPosition="3.9375" Velocity="0" />
      <note Length="0.0234375" Pitch="68" RiffPosition="4" Velocity="0" />
      <note Length="0.0234375" Pitch="66" RiffPosition="4.0234375" Velocity="0" />
      <note Length="0.046875" Pitch="62" RiffPosition="4.046875" Velocity="0" />
      <note Length="0.00390625" Pitch="69" RiffPosition="4.09375" Velocity="0" />
      <note Length="0.01171875" Pitch="69" RiffPosition="4.09765625" Velocity="0" />
      <note Length="0.0078125" Pitch="71" RiffPosition="4.109375" Velocity="0" />
      <note Length="0.0078125" Pitch="73" RiffPosition="4.1171875" Velocity="0" />
      <note Length="0.125" Pitch="73" RiffPosition="4.125" Velocity="0" />
      <note Length="0.125" Pitch="66" RiffPosition="4.25" Velocity="0" />
      <note Length="0.0625" Pitch="69" RiffPosition="4.375" Velocity="0" />
      <note Length="0.0625" Pitch="59" RiffPosition="4.4375" Velocity="0" />
      <note Length="0.0234375" Pitch="66" RiffPosition="4.5" Velocity="0" />
      <note Length="0.0234375" Pitch="61" RiffPosition="4.5234375" Velocity="0" />
      <note Length="0.046875" Pitch="56" RiffPosition="4.546875" Velocity="0" />
      <note Length="0.00390625" Pitch="62" RiffPosition="4.59375" Velocity="0" />
      <note Length="0.01171875" Pitch="54" RiffPosition="4.59765625" Velocity="0" />
      <note Length="0.0078125" Pitch="66" RiffPosition="4.609375" Velocity="0" />
      <note Length="0.0078125" Pitch="69" RiffPosition="4.6171875" Velocity="0" />
      <note Length="0.125" Pitch="69" RiffPosition="4.625" Velocity="0" />
      <note Length="0.125" Pitch="71" RiffPosition="4.75" Velocity="0" />
      <note Length="0.0625" Pitch="66" RiffPosition="4.875" Velocity="0" />
      <note Length="0.0625" Pitch="54" RiffPosition="4.9375" Velocity="0" />
      <note Length="0.0234375" Pitch="61" RiffPosition="5" Velocity="0" />
      <note Length="0.0234375" Pitch="46" RiffPosition="5.0234375" Velocity="0" />
      <note Length="0.046875" Pitch="53" RiffPosition="5.046875" Velocity="0" />
      <note Length="0.00390625" Pitch="46" RiffPosition="5.09375" Velocity="0" />
      <note Length="0.01171875" Pitch="46" RiffPosition="5.09765625" Velocity="0" />
      <note Length="0.0078125" Pitch="46" RiffPosition="5.109375" Velocity="0" />
      <note Length="0.0078125" Pitch="58" RiffPosition="5.1171875" Velocity="0" />
      <note Length="0.125" Pitch="58" RiffPosition="5.125" Velocity="0" />
      <note Length="0.125" Pitch="60" RiffPosition="5.25" Velocity="0" />
      <note Length="0.0625" Pitch="65" RiffPosition="5.375" Velocity="0" />
      <note Length="0.0625" Pitch="46" RiffPosition="5.4375" Velocity="0" />
      <note Length="0.0234375" Pitch="58" RiffPosition="5.5" Velocity="0" />
      <note Length="0.0234375" Pitch="61" RiffPosition="5.5234375" Velocity="0" />
      <note Length="0.046875" Pitch="46" RiffPosition="5.546875" Velocity="0" />
      <note Length="0.00390625" Pitch="61" RiffPosition="5.59375" Velocity="0" />
      <note Length="0.01171875" Pitch="61" RiffPosition="5.59765625" Velocity="0" />
      <note Length="0.0078125" Pitch="65" RiffPosition="5.609375" Velocity="0" />
      <note Length="0.0078125" Pitch="58" RiffPosition="5.6171875" Velocity="0" />
      <note Length="0.125" Pitch="63" RiffPosition="5.625" Velocity="0" />
      <note Length="0.125" Pitch="60" RiffPosition="5.75" Velocity="0" />
      <note Length="0.0625" Pitch="58" RiffPosition="5.875" Velocity="0" />
      <note Length="0.0625" Pitch="53" RiffPosition="5.9375" Velocity="0" />
      <note Length="0.0234375" Pitch="69" RiffPosition="6" Velocity="65" />
      <note Length="0.0234375" Pitch="54" RiffPosition="6.0234375" Velocity="35" />
      <note Length="0.046875" Pitch="54" RiffPosition="6.046875" Velocity="66" />
      <note Length="0.00390625" Pitch="69" RiffPosition="6.09375" Velocity="102" />
      <note Length="0.01171875" Pitch="68" RiffPosition="6.09765625" Velocity="104" />
      <note Length="0.0078125" Pitch="71" RiffPosition="6.109375" Velocity="103" />
      <note Length="0.0078125" Pitch="66" RiffPosition="6.1171875" Velocity="95" />
      <note Length="0.125" Pitch="66" RiffPosition="6.125" Velocity="88" />
      <note Length="0.125" Pitch="66" RiffPosition="6.25" Velocity="94" />
      <note Length="0.0625" Pitch="71" RiffPosition="6.375" Velocity="86" />
      <note Length="0.0625" Pitch="59" RiffPosition="6.4375" Velocity="54" />
      <note Length="0.0234375" Pitch="54" RiffPosition="6.5" Velocity="56" />
      <note Length="0.0234375" Pitch="62" RiffPosition="6.5234375" Velocity="57" />
      <note Length="0.046875" Pitch="56" RiffPosition="6.546875" Velocity="57" />
      <note Length="0.00390625" Pitch="54" RiffPosition="6.59375" Velocity="37" />
      <note Length="0.01171875" Pitch="54" RiffPosition="6.59765625" Velocity="35" />
      <note Length="0.0078125" Pitch="66" RiffPosition="6.609375" Velocity="38" />
      <note Length="0.0078125" Pitch="66" RiffPosition="6.6171875" Velocity="35" />
      <note Length="0.125" Pitch="66" RiffPosition="6.625" Velocity="36" />
      <note Length="0.125" Pitch="73" RiffPosition="6.75" Velocity="45" />
      <note Length="0.0625" Pitch="66" RiffPosition="6.875" Velocity="36" />
      <note Length="0.0625" Pitch="54" RiffPosition="6.9375" Velocity="83" />
      <note Length="0.0234375" Pitch="63" RiffPosition="7" Velocity="61" />
      <note Length="0.0234375" Pitch="46" RiffPosition="7.0234375" Velocity="38" />
      <note Length="0.046875" Pitch="53" RiffPosition="7.046875" Velocity="63" />
      <note Length="0.00390625" Pitch="46" RiffPosition="7.09375" Velocity="101" />
      <note Length="0.01171875" Pitch="46" RiffPosition="7.09765625" Velocity="108" />
      <note Length="0.0078125" Pitch="58" RiffPosition="7.109375" Velocity="104" />
      <note Length="0.0078125" Pitch="60" RiffPosition="7.1171875" Velocity="97" />
      <note Length="0.125" Pitch="58" RiffPosition="7.125" Velocity="90" />
      <note Length="0.125" Pitch="60" RiffPosition="7.25" Velocity="94" />
      <note Length="0.0625" Pitch="63" RiffPosition="7.375" Velocity="83" />
      <note Length="0.0625" Pitch="46" RiffPosition="7.4375" Velocity="55" />
      <note Length="0.0234375" Pitch="65" RiffPosition="7.5" Velocity="56" />
      <note Length="0.0234375" Pitch="61" RiffPosition="7.5234375" Velocity="55" />
      <note Length="0.046875" Pitch="46" RiffPosition="7.546875" Velocity="55" />
      <note Length="0.00390625" Pitch="61" RiffPosition="7.59375" Velocity="40" />
      <note Length="0.01171875" Pitch="63" RiffPosition="7.59765625" Velocity="37" />
      <note Length="0.0078125" Pitch="61" RiffPosition="7.609375" Velocity="35" />
      <note Length="0.0078125" Pitch="63" RiffPosition="7.6171875" Velocity="37" />
      <note Length="0.125" Pitch="63" RiffPosition="7.625" Velocity="38" />
      <note Length="0.125" Pitch="61" RiffPosition="7.75" Velocity="47" />
      <note Length="0.0625" Pitch="58" RiffPosition="7.875" Velocity="40" />
      <note Length="0.0625" Pitch="51" RiffPosition="7.9375" Velocity="86" />
      <note Length="0.0234375" Pitch="69" RiffPosition="8" Velocity="64" />
      <note Length="0.0234375" Pitch="54" RiffPosition="8.0234375" Velocity="36" />
      <note Length="0.046875" Pitch="54" RiffPosition="8.046875" Velocity="62" />
      <note Length="0.00390625" Pitch="66" RiffPosition="8.09375" Velocity="103" />
      <note Length="0.01171875" Pitch="69" RiffPosition="8.09765625" Velocity="105" />
      <note Length="0.0078125" Pitch="73" RiffPosition="8.109375" Velocity="103" />
      <note Length="0.0078125" Pitch="66" RiffPosition="8.1171875" Velocity="96" />
      <note Length="0.125" Pitch="66" RiffPosition="8.125" Velocity="89" />
      <note Length="0.125" Pitch="73" RiffPosition="8.25" Velocity="97" />
      <note Length="0.0625" Pitch="69" RiffPosition="8.375" Velocity="87" />
      <note Length="0.0625" Pitch="61" RiffPosition="8.4375" Velocity="55" />
      <note Length="0.0234375" Pitch="54" RiffPosition="8.5" Velocity="55" />
      <note Length="0.0234375" Pitch="62" RiffPosition="8.5234375" Velocity="56" />
      <note Length="0.046875" Pitch="57" RiffPosition="8.546875" Velocity="58" />
      <note Length="0.00390625" Pitch="54" RiffPosition="8.59375" Velocity="37" />
      <note Length="0.01171875" Pitch="54" RiffPosition="8.59765625" Velocity="36" />
      <note Length="0.0078125" Pitch="54" RiffPosition="8.609375" Velocity="39" />
      <note Length="0.0078125" Pitch="68" RiffPosition="8.6171875" Velocity="36" />
      <note Length="0.125" Pitch="66" RiffPosition="8.625" Velocity="37" />
      <note Length="0.125" Pitch="66" RiffPosition="8.75" Velocity="46" />
      <note Length="0.0625" Pitch="66" RiffPosition="8.875" Velocity="37" />
      <note Length="0.0625" Pitch="54" RiffPosition="8.9375" Velocity="84" />
      <note Length="0.0234375" Pitch="63" RiffPosition="9" Velocity="65" />
      <note Length="0.0234375" Pitch="46" RiffPosition="9.0234375" Velocity="38" />
      <note Length="0.046875" Pitch="51" RiffPosition="9.046875" Velocity="64" />
      <note Length="0.00390625" Pitch="46" RiffPosition="9.09375" Velocity="102" />
      <note Length="0.01171875" Pitch="46" RiffPosition="9.09765625" Velocity="102" />
      <note Length="0.0078125" Pitch="58" RiffPosition="9.109375" Velocity="101" />
      <note Length="0.0078125" Pitch="61" RiffPosition="9.1171875" Velocity="98" />
      <note Length="0.125" Pitch="46" RiffPosition="9.125" Velocity="91" />
      <note Length="0.125" Pitch="58" RiffPosition="9.25" Velocity="94" />
      <note Length="0.0625" Pitch="63" RiffPosition="9.375" Velocity="84" />
      <note Length="0.0625" Pitch="46" RiffPosition="9.4375" Velocity="56" />
      <note Length="0.0234375" Pitch="58" RiffPosition="9.5" Velocity="57" />
      <note Length="0.0234375" Pitch="58" RiffPosition="9.5234375" Velocity="59" />
      <note Length="0.046875" Pitch="46" RiffPosition="9.546875" Velocity="54" />
      <note Length="0.00390625" Pitch="63" RiffPosition="9.59375" Velocity="39" />
      <note Length="0.01171875" Pitch="63" RiffPosition="9.59765625" Velocity="36" />
      <note Length="0.0078125" Pitch="63" RiffPosition="9.609375" Velocity="36" />
      <note Length="0.0078125" Pitch="65" RiffPosition="9.6171875" Velocity="36" />
      <note Length="0.125" Pitch="63" RiffPosition="9.625" Velocity="38" />
      <note Length="0.125" Pitch="61" RiffPosition="9.75" Velocity="48" />
      <note Length="0.0625" Pitch="60" RiffPosition="9.875" Velocity="41" />
      <note Length="0.0625" Pitch="51" RiffPosition="9.9375" Velocity="85" />
      <note Length="0.0234375" Pitch="66" RiffPosition="10" Velocity="0" />
      <note Length="0.0234375" Pitch="54" RiffPosition="10.0234375" Velocity="0" />
      <note Length="0.046875" Pitch="61" RiffPosition="10.046875" Velocity="0" />
      <note Length="0.00390625" Pitch="68" RiffPosition="10.09375" Velocity="0" />
      <note Length="0.01171875" Pitch="69" RiffPosition="10.09765625" Velocity="0" />
      <note Length="0.0078125" Pitch="73" RiffPosition="10.109375" Velocity="0" />
      <note Length="0.0078125" Pitch="73" RiffPosition="10.1171875" Velocity="0" />
      <note Length="0.125" Pitch="73" RiffPosition="10.125" Velocity="0" />
      <note Length="0.125" Pitch="66" RiffPosition="10.25" Velocity="0" />
      <note Length="0.0625" Pitch="69" RiffPosition="10.375" Velocity="0" />
      <note Length="0.0625" Pitch="59" RiffPosition="10.4375" Velocity="0" />
      <note Length="0.0234375" Pitch="66" RiffPosition="10.5" Velocity="0" />
      <note Length="0.0234375" Pitch="61" RiffPosition="10.5234375" Velocity="0" />
      <note Length="0.046875" Pitch="59" RiffPosition="10.546875" Velocity="0" />
      <note Length="0.00390625" Pitch="54" RiffPosition="10.59375" Velocity="0" />
      <note Length="0.01171875" Pitch="54" RiffPosition="10.59765625" Velocity="0" />
      <note Length="0.0078125" Pitch="66" RiffPosition="10.609375" Velocity="0" />
      <note Length="0.0078125" Pitch="69" RiffPosition="10.6171875" Velocity="0" />
      <note Length="0.125" Pitch="68" RiffPosition="10.625" Velocity="0" />
      <note Length="0.125" Pitch="66" RiffPosition="10.75" Velocity="0" />
      <note Length="0.0625" Pitch="66" RiffPosition="10.875" Velocity="0" />
      <note Length="0.0625" Pitch="54" RiffPosition="10.9375" Velocity="0" />
    </riff>
    <riff IsDrum="False" MidiInstrument="29" Tempo="86" Length="11">
      <note Length="0.0234375" Pitch="59" RiffPosition="0" Velocity="0" />
      <note Length="0.0078125" Pitch="59" RiffPosition="0.0234375" Velocity="0" />
      <note Length="0.015625" Pitch="61" RiffPosition="0.03125" Velocity="0" />
      <note Length="0.015625" Pitch="62" RiffPosition="0.046875" Velocity="0" />
      <note Length="0.03125" Pitch="62" RiffPosition="0.0625" Velocity="0" />
      <note Length="0.015625" Pitch="66" RiffPosition="0.09375" Velocity="0" />
      <note Length="0.015625" Pitch="66" RiffPosition="0.109375" Velocity="0" />
      <note Length="0.0625" Pitch="69" RiffPosition="0.125" Velocity="0" />
      <note Length="0.0625" Pitch="68" RiffPosition="0.1875" Velocity="0" />
      <note Length="0.046875" Pitch="66" RiffPosition="0.25" Velocity="0" />
      <note Length="0.015625" Pitch="54" RiffPosition="0.296875" Velocity="0" />
      <note Length="0.03125" Pitch="54" RiffPosition="0.3125" Velocity="0" />
      <note Length="0.015625" Pitch="54" RiffPosition="0.34375" Velocity="0" />
      <note Length="0.015625" Pitch="66" RiffPosition="0.359375" Velocity="0" />
      <note Length="0.03125" Pitch="68" RiffPosition="0.375" Velocity="0" />
      <note Length="0.03125" Pitch="68" RiffPosition="0.40625" Velocity="0" />
      <note Length="0.03125" Pitch="69" RiffPosition="0.4375" Velocity="0" />
      <note Length="0.03125" Pitch="69" RiffPosition="0.46875" Velocity="0" />
      <note Length="0.0234375" Pitch="66" RiffPosition="0.5" Velocity="0" />
      <note Length="0.0078125" Pitch="66" RiffPosition="0.5234375" Velocity="0" />
      <note Length="0.015625" Pitch="66" RiffPosition="0.53125" Velocity="0" />
      <note Length="0.015625" Pitch="54" RiffPosition="0.546875" Velocity="0" />
      <note Length="0.03125" Pitch="54" RiffPosition="0.5625" Velocity="0" />
      <note Length="0.015625" Pitch="54" RiffPosition="0.59375" Velocity="0" />
      <note Length="0.015625" Pitch="62" RiffPosition="0.609375" Velocity="0" />
      <note Length="0.0625" Pitch="61" RiffPosition="0.625" Velocity="0" />
      <note Length="0.0625" Pitch="54" RiffPosition="0.6875" Velocity="0" />
      <note Length="0.046875" Pitch="69" RiffPosition="0.75" Velocity="0" />
      <note Length="0.015625" Pitch="71" RiffPosition="0.796875" Velocity="0" />
      <note Length="0.03125" Pitch="71" RiffPosition="0.8125" Velocity="0" />
      <note Length="0.015625" Pitch="66" RiffPosition="0.84375" Velocity="0" />
      <note Length="0.015625" Pitch="54" RiffPosition="0.859375" Velocity="0" />
      <note Length="0.03125" Pitch="54" RiffPosition="0.875" Velocity="0" />
      <note Length="0.03125" Pitch="54" RiffPosition="0.90625" Velocity="0" />
      <note Length="0.03125" Pitch="59" RiffPosition="0.9375" Velocity="0" />
      <note Length="0.03125" Pitch="59" RiffPosition="0.96875" Velocity="0" />
      <note Length="0.0234375" Pitch="53" RiffPosition="1" Velocity="0" />
      <note Length="0.0078125" Pitch="46" RiffPosition="1.0234375" Velocity="0" />
      <note Length="0.015625" Pitch="46" RiffPosition="1.03125" Velocity="0" />
      <note Length="0.015625" Pitch="58" RiffPosition="1.046875" Velocity="0" />
      <note Length="0.03125" Pitch="58" RiffPosition="1.0625" Velocity="0" />
      <note Length="0.015625" Pitch="63" RiffPosition="1.09375" Velocity="0" />
      <note Length="0.015625" Pitch="65" RiffPosition="1.109375" Velocity="0" />
      <note Length="0.0625" Pitch="58" RiffPosition="1.125" Velocity="0" />
      <note Length="0.0625" Pitch="63" RiffPosition="1.1875" Velocity="0" />
      <note Length="0.046875" Pitch="58" RiffPosition="1.25" Velocity="0" />
      <note Length="0.015625" Pitch="53" RiffPosition="1.296875" Velocity="0" />
      <note Length="0.03125" Pitch="54" RiffPosition="1.3125" Velocity="0" />
      <note Length="0.015625" Pitch="54" RiffPosition="1.34375" Velocity="0" />
      <note Length="0.015625" Pitch="54" RiffPosition="1.359375" Velocity="0" />
      <note Length="0.03125" Pitch="54" RiffPosition="1.375" Velocity="0" />
      <note Length="0.03125" Pitch="46" RiffPosition="1.40625" Velocity="0" />
      <note Length="0.03125" Pitch="46" RiffPosition="1.4375" Velocity="0" />
      <note Length="0.03125" Pitch="58" RiffPosition="1.46875" Velocity="0" />
      <note Length="0.0234375" Pitch="46" RiffPosition="1.5" Velocity="0" />
      <note Length="0.0078125" Pitch="46" RiffPosition="1.5234375" Velocity="0" />
      <note Length="0.015625" Pitch="46" RiffPosition="1.53125" Velocity="0" />
      <note Length="0.015625" Pitch="46" RiffPosition="1.546875" Velocity="0" />
      <note Length="0.03125" Pitch="46" RiffPosition="1.5625" Velocity="0" />
      <note Length="0.015625" Pitch="53" RiffPosition="1.59375" Velocity="0" />
      <note Length="0.015625" Pitch="46" RiffPosition="1.609375" Velocity="0" />
      <note Length="0.0625" Pitch="54" RiffPosition="1.625" Velocity="0" />
      <note Length="0.0625" Pitch="61" RiffPosition="1.6875" Velocity="0" />
      <note Length="0.046875" Pitch="58" RiffPosition="1.75" Velocity="0" />
      <note Length="0.015625" Pitch="58" RiffPosition="1.796875" Velocity="0" />
      <note Length="0.03125" Pitch="65" RiffPosition="1.8125" Velocity="0" />
      <note Length="0.015625" Pitch="63" RiffPosition="1.84375" Velocity="0" />
      <note Length="0.015625" Pitch="60" RiffPosition="1.859375" Velocity="0" />
      <note Length="0.03125" Pitch="58" RiffPosition="1.875" Velocity="0" />
      <note Length="0.03125" Pitch="46" RiffPosition="1.90625" Velocity="0" />
      <note Length="0.03125" Pitch="51" RiffPosition="1.9375" Velocity="0" />
      <note Length="0.03125" Pitch="49" RiffPosition="1.96875" Velocity="0" />
      <note Length="0.0234375" Pitch="59" RiffPosition="2" Velocity="0" />
      <note Length="0.0078125" Pitch="61" RiffPosition="2.0234375" Velocity="0" />
      <note Length="0.015625" Pitch="61" RiffPosition="2.03125" Velocity="0" />
      <note Length="0.015625" Pitch="54" RiffPosition="2.046875" Velocity="0" />
      <note Length="0.03125" Pitch="54" RiffPosition="2.0625" Velocity="0" />
      <note Length="0.015625" Pitch="54" RiffPosition="2.09375" Velocity="0" />
      <note Length="0.015625" Pitch="68" RiffPosition="2.109375" Velocity="0" />
      <note Length="0.0625" Pitch="69" RiffPosition="2.125" Velocity="0" />
      <note Length="0.0625" Pitch="69" RiffPosition="2.1875" Velocity="0" />
      <note Length="0.046875" Pitch="66" RiffPosition="2.25" Velocity="0" />
      <note Length="0.015625" Pitch="54" RiffPosition="2.296875" Velocity="0" />
      <note Length="0.03125" Pitch="54" RiffPosition="2.3125" Velocity="0" />
      <note Length="0.015625" Pitch="54" RiffPosition="2.34375" Velocity="0" />
      <note Length="0.015625" Pitch="66" RiffPosition="2.359375" Velocity="0" />
      <note Length="0.03125" Pitch="66" RiffPosition="2.375" Velocity="0" />
      <note Length="0.03125" Pitch="69" RiffPosition="2.40625" Velocity="0" />
      <note Length="0.03125" Pitch="69" RiffPosition="2.4375" Velocity="0" />
      <note Length="0.03125" Pitch="71" RiffPosition="2.46875" Velocity="0" />
      <note Length="0.0234375" Pitch="68" RiffPosition="2.5" Velocity="0" />
      <note Length="0.0078125" Pitch="66" RiffPosition="2.5234375" Velocity="0" />
      <note Length="0.015625" Pitch="54" RiffPosition="2.53125" Velocity="0" />
      <note Length="0.015625" Pitch="54" RiffPosition="2.546875" Velocity="0" />
      <note Length="0.03125" Pitch="54" RiffPosition="2.5625" Velocity="0" />
      <note Length="0.015625" Pitch="62" RiffPosition="2.59375" Velocity="0" />
      <note Length="0.015625" Pitch="61" RiffPosition="2.609375" Velocity="0" />
      <note Length="0.0625" Pitch="61" RiffPosition="2.625" Velocity="0" />
      <note Length="0.0625" Pitch="54" RiffPosition="2.6875" Velocity="0" />
      <note Length="0.046875" Pitch="68" RiffPosition="2.75" Velocity="0" />
      <note Length="0.015625" Pitch="71" RiffPosition="2.796875" Velocity="0" />
      <note Length="0.03125" Pitch="69" RiffPosition="2.8125" Velocity="0" />
      <note Length="0.015625" Pitch="69" RiffPosition="2.84375" Velocity="0" />
      <note Length="0.015625" Pitch="66" RiffPosition="2.859375" Velocity="0" />
      <note Length="0.03125" Pitch="54" RiffPosition="2.875" Velocity="0" />
      <note Length="0.03125" Pitch="54" RiffPosition="2.90625" Velocity="0" />
      <note Length="0.03125" Pitch="61" RiffPosition="2.9375" Velocity="0" />
      <note Length="0.03125" Pitch="59" RiffPosition="2.96875" Velocity="0" />
      <note Length="0.0234375" Pitch="54" RiffPosition="3" Velocity="0" />
      <note Length="0.0078125" Pitch="46" RiffPosition="3.0234375" Velocity="0" />
      <note Length="0.015625" Pitch="46" RiffPosition="3.03125" Velocity="0" />
      <note Length="0.015625" Pitch="46" RiffPosition="3.046875" Velocity="0" />
      <note Length="0.03125" Pitch="60" RiffPosition="3.0625" Velocity="0" />
      <note Length="0.015625" Pitch="61" RiffPosition="3.09375" Velocity="0" />
      <note Length="0.015625" Pitch="63" RiffPosition="3.109375" Velocity="0" />
      <note Length="0.0625" Pitch="58" RiffPosition="3.125" Velocity="0" />
      <note Length="0.0625" Pitch="63" RiffPosition="3.1875" Velocity="0" />
      <note Length="0.046875" Pitch="46" RiffPosition="3.25" Velocity="0" />
      <note Length="0.015625" Pitch="53" RiffPosition="3.296875" Velocity="0" />
      <note Length="0.03125" Pitch="53" RiffPosition="3.3125" Velocity="0" />
      <note Length="0.015625" Pitch="46" RiffPosition="3.34375" Velocity="0" />
      <note Length="0.015625" Pitch="46" RiffPosition="3.359375" Velocity="0" />
      <note Length="0.03125" Pitch="46" RiffPosition="3.375" Velocity="0" />
      <note Length="0.03125" Pitch="46" RiffPosition="3.40625" Velocity="0" />
      <note Length="0.03125" Pitch="46" RiffPosition="3.4375" Velocity="0" />
      <note Length="0.03125" Pitch="58" RiffPosition="3.46875" Velocity="0" />
      <note Length="0.0234375" Pitch="46" RiffPosition="3.5" Velocity="0" />
      <note Length="0.0078125" Pitch="46" RiffPosition="3.5234375" Velocity="0" />
      <note Length="0.015625" Pitch="46" RiffPosition="3.53125" Velocity="0" />
      <note Length="0.015625" Pitch="46" RiffPosition="3.546875" Velocity="0" />
      <note Length="0.03125" Pitch="46" RiffPosition="3.5625" Velocity="0" />
      <note Length="0.015625" Pitch="46" RiffPosition="3.59375" Velocity="0" />
      <note Length="0.015625" Pitch="54" RiffPosition="3.609375" Velocity="0" />
      <note Length="0.0625" Pitch="54" RiffPosition="3.625" Velocity="0" />
      <note Length="0.0625" Pitch="58" RiffPosition="3.6875" Velocity="0" />
      <note Length="0.046875" Pitch="58" RiffPosition="3.75" Velocity="0" />
      <note Length="0.015625" Pitch="58" RiffPosition="3.796875" Velocity="0" />
      <note Length="0.03125" Pitch="58" RiffPosition="3.8125" Velocity="0" />
      <note Length="0.015625" Pitch="61" RiffPosition="3.84375" Velocity="0" />
      <note Length="0.015625" Pitch="61" RiffPosition="3.859375" Velocity="0" />
      <note Length="0.03125" Pitch="58" RiffPosition="3.875" Velocity="0" />
      <note Length="0.03125" Pitch="46" RiffPosition="3.90625" Velocity="0" />
      <note Length="0.03125" Pitch="53" RiffPosition="3.9375" Velocity="0" />
      <note Length="0.03125" Pitch="48" RiffPosition="3.96875" Velocity="0" />
      <note Length="0.0234375" Pitch="59" RiffPosition="4" Velocity="0" />
      <note Length="0.0078125" Pitch="59" RiffPosition="4.0234375" Velocity="0" />
      <note Length="0.015625" Pitch="61" RiffPosition="4.03125" Velocity="0" />
      <note Length="0.015625" Pitch="61" RiffPosition="4.046875" Velocity="0" />
      <note Length="0.03125" Pitch="54" RiffPosition="4.0625" Velocity="0" />
      <note Length="0.015625" Pitch="66" RiffPosition="4.09375" Velocity="0" />
      <note Length="0.015625" Pitch="68" RiffPosition="4.109375" Velocity="0" />
      <note Length="0.0625" Pitch="69" RiffPosition="4.125" Velocity="0" />
      <note Length="0.0625" Pitch="69" RiffPosition="4.1875" Velocity="0" />
      <note Length="0.046875" Pitch="66" RiffPosition="4.25" Velocity="0" />
      <note Length="0.015625" Pitch="54" RiffPosition="4.296875" Velocity="0" />
      <note Length="0.03125" Pitch="54" RiffPosition="4.3125" Velocity="0" />
      <note Length="0.015625" Pitch="54" RiffPosition="4.34375" Velocity="0" />
      <note Length="0.015625" Pitch="54" RiffPosition="4.359375" Velocity="0" />
      <note Length="0.03125" Pitch="66" RiffPosition="4.375" Velocity="0" />
      <note Length="0.03125" Pitch="68" RiffPosition="4.40625" Velocity="0" />
      <note Length="0.03125" Pitch="71" RiffPosition="4.4375" Velocity="0" />
      <note Length="0.03125" Pitch="71" RiffPosition="4.46875" Velocity="0" />
      <note Length="0.0234375" Pitch="66" RiffPosition="4.5" Velocity="0" />
      <note Length="0.0078125" Pitch="54" RiffPosition="4.5234375" Velocity="0" />
      <note Length="0.015625" Pitch="66" RiffPosition="4.53125" Velocity="0" />
      <note Length="0.015625" Pitch="54" RiffPosition="4.546875" Velocity="0" />
      <note Length="0.03125" Pitch="54" RiffPosition="4.5625" Velocity="0" />
      <note Length="0.015625" Pitch="54" RiffPosition="4.59375" Velocity="0" />
      <note Length="0.015625" Pitch="61" RiffPosition="4.609375" Velocity="0" />
      <note Length="0.0625" Pitch="61" RiffPosition="4.625" Velocity="0" />
      <note Length="0.0625" Pitch="54" RiffPosition="4.6875" Velocity="0" />
      <note Length="0.046875" Pitch="69" RiffPosition="4.75" Velocity="0" />
      <note Length="0.015625" Pitch="69" RiffPosition="4.796875" Velocity="0" />
      <note Length="0.03125" Pitch="71" RiffPosition="4.8125" Velocity="0" />
      <note Length="0.015625" Pitch="66" RiffPosition="4.84375" Velocity="0" />
      <note Length="0.015625" Pitch="54" RiffPosition="4.859375" Velocity="0" />
      <note Length="0.03125" Pitch="66" RiffPosition="4.875" Velocity="0" />
      <note Length="0.03125" Pitch="54" RiffPosition="4.90625" Velocity="0" />
      <note Length="0.03125" Pitch="61" RiffPosition="4.9375" Velocity="0" />
      <note Length="0.03125" Pitch="59" RiffPosition="4.96875" Velocity="0" />
      <note Length="0.0234375" Pitch="53" RiffPosition="5" Velocity="0" />
      <note Length="0.0078125" Pitch="46" RiffPosition="5.0234375" Velocity="0" />
      <note Length="0.015625" Pitch="46" RiffPosition="5.03125" Velocity="0" />
      <note Length="0.015625" Pitch="58" RiffPosition="5.046875" Velocity="0" />
      <note Length="0.03125" Pitch="58" RiffPosition="5.0625" Velocity="0" />
      <note Length="0.015625" Pitch="63" RiffPosition="5.09375" Velocity="0" />
      <note Length="0.015625" Pitch="65" RiffPosition="5.109375" Velocity="0" />
      <note Length="0.0625" Pitch="58" RiffPosition="5.125" Velocity="0" />
      <note Length="0.0625" Pitch="63" RiffPosition="5.1875" Velocity="0" />
      <note Length="0.046875" Pitch="58" RiffPosition="5.25" Velocity="0" />
      <note Length="0.015625" Pitch="53" RiffPosition="5.296875" Velocity="0" />
      <note Length="0.03125" Pitch="46" RiffPosition="5.3125" Velocity="0" />
      <note Length="0.015625" Pitch="54" RiffPosition="5.34375" Velocity="0" />
      <note Length="0.015625" Pitch="54" RiffPosition="5.359375" Velocity="0" />
      <note Length="0.03125" Pitch="54" RiffPosition="5.375" Velocity="0" />
      <note Length="0.03125" Pitch="46" RiffPosition="5.40625" Velocity="0" />
      <note Length="0.03125" Pitch="46" RiffPosition="5.4375" Velocity="0" />
      <note Length="0.03125" Pitch="58" RiffPosition="5.46875" Velocity="0" />
      <note Length="0.0234375" Pitch="46" RiffPosition="5.5" Velocity="0" />
      <note Length="0.0078125" Pitch="46" RiffPosition="5.5234375" Velocity="0" />
      <note Length="0.015625" Pitch="46" RiffPosition="5.53125" Velocity="0" />
      <note Length="0.015625" Pitch="46" RiffPosition="5.546875" Velocity="0" />
      <note Length="0.03125" Pitch="46" RiffPosition="5.5625" Velocity="0" />
      <note Length="0.015625" Pitch="54" RiffPosition="5.59375" Velocity="0" />
      <note Length="0.015625" Pitch="46" RiffPosition="5.609375" Velocity="0" />
      <note Length="0.0625" Pitch="46" RiffPosition="5.625" Velocity="0" />
      <note Length="0.0625" Pitch="61" RiffPosition="5.6875" Velocity="0" />
      <note Length="0.046875" Pitch="58" RiffPosition="5.75" Velocity="0" />
      <note Length="0.015625" Pitch="58" RiffPosition="5.796875" Velocity="0" />
      <note Length="0.03125" Pitch="58" RiffPosition="5.8125" Velocity="0" />
      <note Length="0.015625" Pitch="63" RiffPosition="5.84375" Velocity="0" />
      <note Length="0.015625" Pitch="60" RiffPosition="5.859375" Velocity="0" />
      <note Length="0.03125" Pitch="46" RiffPosition="5.875" Velocity="0" />
      <note Length="0.03125" Pitch="46" RiffPosition="5.90625" Velocity="0" />
      <note Length="0.03125" Pitch="51" RiffPosition="5.9375" Velocity="0" />
      <note Length="0.03125" Pitch="49" RiffPosition="5.96875" Velocity="0" />
      <note Length="0.0234375" Pitch="59" RiffPosition="6" Velocity="46" />
      <note Length="0.0078125" Pitch="61" RiffPosition="6.0234375" Velocity="45" />
      <note Length="0.015625" Pitch="59" RiffPosition="6.03125" Velocity="58" />
      <note Length="0.015625" Pitch="62" RiffPosition="6.046875" Velocity="85" />
      <note Length="0.03125" Pitch="54" RiffPosition="6.0625" Velocity="78" />
      <note Length="0.015625" Pitch="54" RiffPosition="6.09375" Velocity="68" />
      <note Length="0.015625" Pitch="69" RiffPosition="6.109375" Velocity="38" />
      <note Length="0.0625" Pitch="69" RiffPosition="6.125" Velocity="42" />
      <note Length="0.0625" Pitch="69" RiffPosition="6.1875" Velocity="39" />
      <note Length="0.046875" Pitch="54" RiffPosition="6.25" Velocity="88" />
      <note Length="0.015625" Pitch="54" RiffPosition="6.296875" Velocity="42" />
      <note Length="0.03125" Pitch="54" RiffPosition="6.3125" Velocity="56" />
      <note Length="0.015625" Pitch="66" RiffPosition="6.34375" Velocity="40" />
      <note Length="0.015625" Pitch="66" RiffPosition="6.359375" Velocity="46" />
      <note Length="0.03125" Pitch="66" RiffPosition="6.375" Velocity="38" />
      <note Length="0.03125" Pitch="69" RiffPosition="6.40625" Velocity="66" />
      <note Length="0.03125" Pitch="69" RiffPosition="6.4375" Velocity="90" />
      <note Length="0.03125" Pitch="69" RiffPosition="6.46875" Velocity="36" />
      <note Length="0.0234375" Pitch="68" RiffPosition="6.5" Velocity="74" />
      <note Length="0.0078125" Pitch="66" RiffPosition="6.5234375" Velocity="38" />
      <note Length="0.015625" Pitch="54" RiffPosition="6.53125" Velocity="46" />
      <note Length="0.015625" Pitch="66" RiffPosition="6.546875" Velocity="42" />
      <note Length="0.03125" Pitch="54" RiffPosition="6.5625" Velocity="42" />
      <note Length="0.015625" Pitch="62" RiffPosition="6.59375" Velocity="73" />
      <note Length="0.015625" Pitch="61" RiffPosition="6.609375" Velocity="79" />
      <note Length="0.0625" Pitch="62" RiffPosition="6.625" Velocity="69" />
      <note Length="0.0625" Pitch="54" RiffPosition="6.6875" Velocity="68" />
      <note Length="0.046875" Pitch="68" RiffPosition="6.75" Velocity="36" />
      <note Length="0.015625" Pitch="71" RiffPosition="6.796875" Velocity="62" />
      <note Length="0.03125" Pitch="69" RiffPosition="6.8125" Velocity="62" />
      <note Length="0.015625" Pitch="68" RiffPosition="6.84375" Velocity="37" />
      <note Length="0.015625" Pitch="66" RiffPosition="6.859375" Velocity="73" />
      <note Length="0.03125" Pitch="54" RiffPosition="6.875" Velocity="77" />
      <note Length="0.03125" Pitch="62" RiffPosition="6.90625" Velocity="66" />
      <note Length="0.03125" Pitch="61" RiffPosition="6.9375" Velocity="44" />
      <note Length="0.03125" Pitch="59" RiffPosition="6.96875" Velocity="36" />
      <note Length="0.0234375" Pitch="54" RiffPosition="7" Velocity="52" />
      <note Length="0.0078125" Pitch="46" RiffPosition="7.0234375" Velocity="39" />
      <note Length="0.015625" Pitch="46" RiffPosition="7.03125" Velocity="52" />
      <note Length="0.015625" Pitch="46" RiffPosition="7.046875" Velocity="99" />
      <note Length="0.03125" Pitch="61" RiffPosition="7.0625" Velocity="92" />
      <note Length="0.015625" Pitch="63" RiffPosition="7.09375" Velocity="62" />
      <note Length="0.015625" Pitch="63" RiffPosition="7.109375" Velocity="44" />
      <note Length="0.0625" Pitch="63" RiffPosition="7.125" Velocity="48" />
      <note Length="0.0625" Pitch="61" RiffPosition="7.1875" Velocity="45" />
      <note Length="0.046875" Pitch="58" RiffPosition="7.25" Velocity="94" />
      <note Length="0.015625" Pitch="54" RiffPosition="7.296875" Velocity="38" />
      <note Length="0.03125" Pitch="53" RiffPosition="7.3125" Velocity="50" />
      <note Length="0.015625" Pitch="53" RiffPosition="7.34375" Velocity="46" />
      <note Length="0.015625" Pitch="46" RiffPosition="7.359375" Velocity="52" />
      <note Length="0.03125" Pitch="46" RiffPosition="7.375" Velocity="42" />
      <note Length="0.03125" Pitch="46" RiffPosition="7.40625" Velocity="80" />
      <note Length="0.03125" Pitch="46" RiffPosition="7.4375" Velocity="83" />
      <note Length="0.03125" Pitch="58" RiffPosition="7.46875" Velocity="50" />
      <note Length="0.0234375" Pitch="58" RiffPosition="7.5" Velocity="60" />
      <note Length="0.0078125" Pitch="46" RiffPosition="7.5234375" Velocity="38" />
      <note Length="0.015625" Pitch="46" RiffPosition="7.53125" Velocity="39" />
      <note Length="0.015625" Pitch="46" RiffPosition="7.546875" Velocity="36" />
      <note Length="0.03125" Pitch="54" RiffPosition="7.5625" Velocity="36" />
      <note Length="0.015625" Pitch="46" RiffPosition="7.59375" Velocity="59" />
      <note Length="0.015625" Pitch="46" RiffPosition="7.609375" Velocity="65" />
      <note Length="0.0625" Pitch="54" RiffPosition="7.625" Velocity="75" />
      <note Length="0.0625" Pitch="60" RiffPosition="7.6875" Velocity="83" />
      <note Length="0.046875" Pitch="65" RiffPosition="7.75" Velocity="40" />
      <note Length="0.015625" Pitch="58" RiffPosition="7.796875" Velocity="76" />
      <note Length="0.03125" Pitch="58" RiffPosition="7.8125" Velocity="58" />
      <note Length="0.015625" Pitch="61" RiffPosition="7.84375" Velocity="44" />
      <note Length="0.015625" Pitch="61" RiffPosition="7.859375" Velocity="80" />
      <note Length="0.03125" Pitch="58" RiffPosition="7.875" Velocity="83" />
      <note Length="0.03125" Pitch="54" RiffPosition="7.90625" Velocity="52" />
      <note Length="0.03125" Pitch="53" RiffPosition="7.9375" Velocity="41" />
      <note Length="0.03125" Pitch="48" RiffPosition="7.96875" Velocity="42" />
      <note Length="0.0234375" Pitch="56" RiffPosition="8" Velocity="38" />
      <note Length="0.0078125" Pitch="59" RiffPosition="8.0234375" Velocity="53" />
      <note Length="0.015625" Pitch="61" RiffPosition="8.03125" Velocity="66" />
      <note Length="0.015625" Pitch="62" RiffPosition="8.046875" Velocity="92" />
      <note Length="0.03125" Pitch="62" RiffPosition="8.0625" Velocity="86" />
      <note Length="0.015625" Pitch="66" RiffPosition="8.09375" Velocity="37" />
      <note Length="0.015625" Pitch="68" RiffPosition="8.109375" Velocity="40" />
      <note Length="0.0625" Pitch="69" RiffPosition="8.125" Velocity="36" />
      <note Length="0.0625" Pitch="69" RiffPosition="8.1875" Velocity="39" />
      <note Length="0.046875" Pitch="66" RiffPosition="8.25" Velocity="98" />
      <note Length="0.015625" Pitch="54" RiffPosition="8.296875" Velocity="38" />
      <note Length="0.03125" Pitch="54" RiffPosition="8.3125" Velocity="44" />
      <note Length="0.015625" Pitch="54" RiffPosition="8.34375" Velocity="38" />
      <note Length="0.015625" Pitch="54" RiffPosition="8.359375" Velocity="38" />
      <note Length="0.03125" Pitch="68" RiffPosition="8.375" Velocity="48" />
      <note Length="0.03125" Pitch="68" RiffPosition="8.40625" Velocity="74" />
      <note Length="0.03125" Pitch="68" RiffPosition="8.4375" Velocity="97" />
      <note Length="0.03125" Pitch="71" RiffPosition="8.46875" Velocity="43" />
      <note Length="0.0234375" Pitch="66" RiffPosition="8.5" Velocity="66" />
      <note Length="0.0078125" Pitch="66" RiffPosition="8.5234375" Velocity="44" />
      <note Length="0.015625" Pitch="66" RiffPosition="8.53125" Velocity="35" />
      <note Length="0.015625" Pitch="54" RiffPosition="8.546875" Velocity="50" />
      <note Length="0.03125" Pitch="54" RiffPosition="8.5625" Velocity="50" />
      <note Length="0.015625" Pitch="54" RiffPosition="8.59375" Velocity="65" />
      <note Length="0.015625" Pitch="62" RiffPosition="8.609375" Velocity="90" />
      <note Length="0.0625" Pitch="61" RiffPosition="8.625" Velocity="81" />
      <note Length="0.0625" Pitch="54" RiffPosition="8.6875" Velocity="58" />
      <note Length="0.046875" Pitch="69" RiffPosition="8.75" Velocity="44" />
      <note Length="0.015625" Pitch="71" RiffPosition="8.796875" Velocity="70" />
      <note Length="0.03125" Pitch="71" RiffPosition="8.8125" Velocity="51" />
      <note Length="0.015625" Pitch="68" RiffPosition="8.84375" Velocity="50" />
      <note Length="0.015625" Pitch="54" RiffPosition="8.859375" Velocity="65" />
      <note Length="0.03125" Pitch="54" RiffPosition="8.875" Velocity="69" />
      <note Length="0.03125" Pitch="54" RiffPosition="8.90625" Velocity="58" />
      <note Length="0.03125" Pitch="59" RiffPosition="8.9375" Velocity="36" />
      <note Length="0.03125" Pitch="61" RiffPosition="8.96875" Velocity="46" />
      <note Length="0.0234375" Pitch="53" RiffPosition="9" Velocity="44" />
      <note Length="0.0078125" Pitch="46" RiffPosition="9.0234375" Velocity="47" />
      <note Length="0.015625" Pitch="46" RiffPosition="9.03125" Velocity="60" />
      <note Length="0.015625" Pitch="58" RiffPosition="9.046875" Velocity="68" />
      <note Length="0.03125" Pitch="58" RiffPosition="9.0625" Velocity="100" />
      <note Length="0.015625" Pitch="63" RiffPosition="9.09375" Velocity="51" />
      <note Length="0.015625" Pitch="65" RiffPosition="9.109375" Velocity="37" />
      <note Length="0.0625" Pitch="58" RiffPosition="9.125" Velocity="58" />
      <note Length="0.0625" Pitch="63" RiffPosition="9.1875" Velocity="53" />
      <note Length="0.046875" Pitch="58" RiffPosition="9.25" Velocity="105" />
      <note Length="0.015625" Pitch="53" RiffPosition="9.296875" Velocity="46" />
      <note Length="0.03125" Pitch="54" RiffPosition="9.3125" Velocity="58" />
      <note Length="0.015625" Pitch="54" RiffPosition="9.34375" Velocity="38" />
      <note Length="0.015625" Pitch="54" RiffPosition="9.359375" Velocity="45" />
      <note Length="0.03125" Pitch="54" RiffPosition="9.375" Velocity="55" />
      <note Length="0.03125" Pitch="46" RiffPosition="9.40625" Velocity="70" />
      <note Length="0.03125" Pitch="46" RiffPosition="9.4375" Velocity="91" />
      <note Length="0.03125" Pitch="58" RiffPosition="9.46875" Velocity="37" />
      <note Length="0.0234375" Pitch="46" RiffPosition="9.5" Velocity="52" />
      <note Length="0.0078125" Pitch="46" RiffPosition="9.5234375" Velocity="48" />
      <note Length="0.015625" Pitch="46" RiffPosition="9.53125" Velocity="41" />
      <note Length="0.015625" Pitch="46" RiffPosition="9.546875" Velocity="44" />
      <note Length="0.03125" Pitch="46" RiffPosition="9.5625" Velocity="44" />
      <note Length="0.015625" Pitch="54" RiffPosition="9.59375" Velocity="51" />
      <note Length="0.015625" Pitch="46" RiffPosition="9.609375" Velocity="76" />
      <note Length="0.0625" Pitch="46" RiffPosition="9.625" Velocity="67" />
      <note Length="0.0625" Pitch="61" RiffPosition="9.6875" Velocity="52" />
      <note Length="0.046875" Pitch="58" RiffPosition="9.75" Velocity="38" />
      <note Length="0.015625" Pitch="58" RiffPosition="9.796875" Velocity="63" />
      <note Length="0.03125" Pitch="65" RiffPosition="9.8125" Velocity="66" />
      <note Length="0.015625" Pitch="63" RiffPosition="9.84375" Velocity="54" />
      <note Length="0.015625" Pitch="60" RiffPosition="9.859375" Velocity="72" />
      <note Length="0.03125" Pitch="58" RiffPosition="9.875" Velocity="75" />
      <note Length="0.03125" Pitch="46" RiffPosition="9.90625" Velocity="64" />
      <note Length="0.03125" Pitch="51" RiffPosition="9.9375" Velocity="48" />
      <note Length="0.03125" Pitch="51" RiffPosition="9.96875" Velocity="52" />
      <note Length="0.0234375" Pitch="59" RiffPosition="10" Velocity="0" />
      <note Length="0.0078125" Pitch="61" RiffPosition="10.0234375" Velocity="0" />
      <note Length="0.015625" Pitch="61" RiffPosition="10.03125" Velocity="0" />
      <note Length="0.015625" Pitch="54" RiffPosition="10.046875" Velocity="0" />
      <note Length="0.03125" Pitch="54" RiffPosition="10.0625" Velocity="0" />
      <note Length="0.015625" Pitch="54" RiffPosition="10.09375" Velocity="0" />
      <note Length="0.015625" Pitch="66" RiffPosition="10.109375" Velocity="0" />
      <note Length="0.0625" Pitch="71" RiffPosition="10.125" Velocity="0" />
      <note Length="0.0625" Pitch="69" RiffPosition="10.1875" Velocity="0" />
      <note Length="0.046875" Pitch="54" RiffPosition="10.25" Velocity="0" />
      <note Length="0.015625" Pitch="54" RiffPosition="10.296875" Velocity="0" />
      <note Length="0.03125" Pitch="54" RiffPosition="10.3125" Velocity="0" />
      <note Length="0.015625" Pitch="66" RiffPosition="10.34375" Velocity="0" />
      <note Length="0.015625" Pitch="66" RiffPosition="10.359375" Velocity="0" />
      <note Length="0.03125" Pitch="66" RiffPosition="10.375" Velocity="0" />
      <note Length="0.03125" Pitch="69" RiffPosition="10.40625" Velocity="0" />
      <note Length="0.03125" Pitch="69" RiffPosition="10.4375" Velocity="0" />
      <note Length="0.03125" Pitch="69" RiffPosition="10.46875" Velocity="0" />
      <note Length="0.0234375" Pitch="68" RiffPosition="10.5" Velocity="0" />
      <note Length="0.0078125" Pitch="66" RiffPosition="10.5234375" Velocity="0" />
      <note Length="0.015625" Pitch="54" RiffPosition="10.53125" Velocity="0" />
      <note Length="0.015625" Pitch="54" RiffPosition="10.546875" Velocity="0" />
      <note Length="0.03125" Pitch="54" RiffPosition="10.5625" Velocity="0" />
      <note Length="0.015625" Pitch="62" RiffPosition="10.59375" Velocity="0" />
      <note Length="0.015625" Pitch="61" RiffPosition="10.609375" Velocity="0" />
      <note Length="0.0625" Pitch="61" RiffPosition="10.625" Velocity="0" />
      <note Length="0.0625" Pitch="54" RiffPosition="10.6875" Velocity="0" />
      <note Length="0.046875" Pitch="68" RiffPosition="10.75" Velocity="0" />
      <note Length="0.015625" Pitch="71" RiffPosition="10.796875" Velocity="0" />
      <note Length="0.03125" Pitch="69" RiffPosition="10.8125" Velocity="0" />
      <note Length="0.015625" Pitch="69" RiffPosition="10.84375" Velocity="0" />
      <note Length="0.015625" Pitch="66" RiffPosition="10.859375" Velocity="0" />
      <note Length="0.03125" Pitch="54" RiffPosition="10.875" Velocity="0" />
      <note Length="0.03125" Pitch="62" RiffPosition="10.90625" Velocity="0" />
      <note Length="0.03125" Pitch="61" RiffPosition="10.9375" Velocity="0" />
      <note Length="0.03125" Pitch="59" RiffPosition="10.96875" Velocity="0" />
    </riff>
  </riffPack>
  <lyrics>
    <line>****** ****** ****** ******</line>
    <line>****** ****** ****** ******</line>
    <line>whom exists in spirits of fire</line>
    <line>the meaning of this tide of decadence</line>
    <line>no reason to think or do anything</line>
    <line>dusk sets its spirit free</line>
    <line>let the storm reveal the universal word</line>
    <line>war ; stupidity beyond imagination</line>
    <line>no reason to think or do anything</line>
    <line>dusk sets its spirit free</line>
    <line>we must protect world freedom</line>
    <line>i understand mine's a risky plan</line>
    <line>****** ****** ****** ******</line>
    <line>****** ****** ****** ******</line>
    <line>no reason to think or do anything</line>
    <line>dusk sets its spirit free</line>
    <line>no reason to think or do anything</line>
    <line>dusk sets its spirit free</line>
    <line>****** ****** ****** ******</line>
  </lyrics>
  <lyricsSongFactoryCollection>
    <lyricSongFactory BarCount="19" BarCountPerChorus="2">
      <barInfo>
        <bar Intensity="0" LetterCount="16" />
        <bar Intensity="0" LetterCount="16" />
        <bar Intensity="0.5411765" LetterCount="34" />
        <bar Intensity="0.5058824" LetterCount="34" />
        <bar Intensity="1" LetterCount="32" />
        <bar Intensity="1" LetterCount="31" />
        <bar Intensity="0.5411765" LetterCount="33" />
        <bar Intensity="0.5058824" LetterCount="33" />
        <bar Intensity="1" LetterCount="35" />
        <bar Intensity="1" LetterCount="38" />
        <bar Intensity="0.4941176" LetterCount="29" />
        <bar Intensity="0.5294118" LetterCount="31" />
        <bar Intensity="0" LetterCount="16" />
        <bar Intensity="0" LetterCount="16" />
        <bar Intensity="1" LetterCount="51" />
        <bar Intensity="1" LetterCount="48" />
        <bar Intensity="1" LetterCount="46" />
        <bar Intensity="1" LetterCount="50" />
        <bar Intensity="0" LetterCount="16" />
      </barInfo>
      <themeList>
        <theme>activism</theme>
        <theme>philosophy</theme>
        <theme>metaphysics</theme>
        <theme>nature</theme>
        <theme>consciousness</theme>
      </themeList>
      <themeBlackList>
        <theme>sex</theme>
        <theme>racism</theme>
      </themeBlackList>
    </lyricSongFactory>
  </lyricsSongFactoryCollection>
  <predefinedGenerator BarCount="19" IsOverrideScale="True" IsOverrideTempo="True" Modulation="0.2" ScaleName="minorPentatonic" Tempo="111" LyricsToMusicPhase="0">
    <predefinedGeneratorTrack MetaRiffPackName="MeditativeIndia">
      <barInfo isOn="True" />
      <barInfo isOn="True" />
      <barInfo isOn="True" />
      <barInfo isOn="True" />
      <barInfo isOn="True" />
      <barInfo isOn="True" />
      <barInfo isOn="True" />
      <barInfo isOn="True" />
      <barInfo isOn="True" />
      <barInfo isOn="False" />
      <barInfo isOn="False" />
      <barInfo isOn="False" />
      <barInfo isOn="False" />
      <barInfo isOn="False" />
      <barInfo isOn="False" />
      <barInfo isOn="False" />
      <barInfo isOn="False" />
      <barInfo isOn="False" />
      <barInfo isOn="False" />
    </predefinedGeneratorTrack>
    <predefinedGeneratorTrack MetaRiffPackName="BassSynth">
      <barInfo isOn="True" />
      <barInfo isOn="True" />
      <barInfo isOn="False" />
      <barInfo isOn="True" />
      <barInfo isOn="True" />
      <barInfo isOn="True" />
      <barInfo isOn="False" />
      <barInfo isOn="False" />
      <barInfo isOn="True" />
      <barInfo isOn="True" />
      <barInfo isOn="True" />
      <barInfo isOn="False" />
      <barInfo isOn="False" />
      <barInfo isOn="False" />
      <barInfo isOn="False" />
      <barInfo isOn="False" />
      <barInfo isOn="False" />
      <barInfo isOn="False" />
      <barInfo isOn="False" />
    </predefinedGeneratorTrack>
    <predefinedGeneratorTrack MetaRiffPackName="DrumSnareQuad">
      <barInfo isOn="True" />
      <barInfo isOn="True" />
      <barInfo isOn="True" />
      <barInfo isOn="False" />
      <barInfo isOn="False" />
      <barInfo isOn="False" />
      <barInfo isOn="True" />
      <barInfo isOn="True" />
      <barInfo isOn="True" />
      <barInfo isOn="True" />
      <barInfo isOn="False" />
      <barInfo isOn="False" />
      <barInfo isOn="False" />
      <barInfo isOn="False" />
      <barInfo isOn="False" />
      <barInfo isOn="False" />
      <barInfo isOn="False" />
      <barInfo isOn="False" />
      <barInfo isOn="False" />
    </predefinedGeneratorTrack>
    <predefinedGeneratorTrack MetaRiffPackName="DrumBassQuad">
      <barInfo isOn="True" />
      <barInfo isOn="True" />
      <barInfo isOn="True" />
      <barInfo isOn="True" />
      <barInfo isOn="True" />
      <barInfo isOn="True" />
      <barInfo isOn="True" />
      <barInfo isOn="True" />
      <barInfo isOn="True" />
      <barInfo isOn="False" />
      <barInfo isOn="False" />
      <barInfo isOn="False" />
      <barInfo isOn="False" />
      <barInfo isOn="False" />
      <barInfo isOn="False" />
      <barInfo isOn="False" />
      <barInfo isOn="False" />
      <barInfo isOn="False" />
      <barInfo isOn="False" />
    </predefinedGeneratorTrack>
    <predefinedGeneratorTrack MetaRiffPackName="DrumOcta">
      <barInfo isOn="True" />
      <barInfo isOn="True" />
      <barInfo isOn="True" />
      <barInfo isOn="True" />
      <barInfo isOn="True" />
      <barInfo isOn="True" />
      <barInfo isOn="True" />
      <barInfo isOn="True" />
      <barInfo isOn="True" />
      <barInfo isOn="False" />
      <barInfo isOn="False" />
      <barInfo isOn="False" />
      <barInfo isOn="False" />
      <barInfo isOn="False" />
      <barInfo isOn="False" />
      <barInfo isOn="False" />
      <barInfo isOn="False" />
      <barInfo isOn="False" />
      <barInfo isOn="False" />
    </predefinedGeneratorTrack>
    <predefinedGeneratorTrack MetaRiffPackName="DrumSnareOcta">
      <barInfo isOn="False" />
      <barInfo isOn="False" />
      <barInfo isOn="False" />
      <barInfo isOn="True" />
      <barInfo isOn="True" />
      <barInfo isOn="True" />
      <barInfo isOn="False" />
      <barInfo isOn="True" />
      <barInfo isOn="True" />
      <barInfo isOn="False" />
      <barInfo isOn="False" />
      <barInfo isOn="False" />
      <barInfo isOn="False" />
      <barInfo isOn="False" />
      <barInfo isOn="False" />
      <barInfo isOn="False" />
      <barInfo isOn="False" />
      <barInfo isOn="False" />
      <barInfo isOn="False" />
    </predefinedGeneratorTrack>
    <predefinedGeneratorTrack MetaRiffPackName="MeditativeIrish">
      <barInfo isOn="False" />
      <barInfo isOn="False" />
      <barInfo isOn="False" />
      <barInfo isOn="False" />
      <barInfo isOn="False" />
      <barInfo isOn="False" />
      <barInfo isOn="True" />
      <barInfo isOn="True" />
      <barInfo isOn="True" />
      <barInfo isOn="True" />
      <barInfo isOn="False" />
      <barInfo isOn="False" />
      <barInfo isOn="False" />
      <barInfo isOn="False" />
      <barInfo isOn="False" />
      <barInfo isOn="False" />
      <barInfo isOn="False" />
      <barInfo isOn="False" />
      <barInfo isOn="False" />
    </predefinedGeneratorTrack>
    <predefinedGeneratorTrack MetaRiffPackName="GuitarMetalSpeed">
      <barInfo isOn="False" />
      <barInfo isOn="False" />
      <barInfo isOn="False" />
      <barInfo isOn="False" />
      <barInfo isOn="False" />
      <barInfo isOn="False" />
      <barInfo isOn="True" />
      <barInfo isOn="True" />
      <barInfo isOn="True" />
      <barInfo isOn="True" />
      <barInfo isOn="False" />
      <barInfo isOn="False" />
      <barInfo isOn="False" />
      <barInfo isOn="False" />
      <barInfo isOn="False" />
      <barInfo isOn="False" />
      <barInfo isOn="False" />
      <barInfo isOn="False" />
      <barInfo isOn="False" />
    </predefinedGeneratorTrack>
  </predefinedGenerator>
</song>