<?xml version="1.0" encoding="UTF-8"?>
<song>
  <riffPack Tempo="94">
    <riff IsDrum="False" MidiInstrument="117" Tempo="90" Length="14">
      <note Length="0.015625" Pitch="41" RiffPosition="0" Velocity="0" />
      <note Length="0.015625" Pitch="34" RiffPosition="0.015625" Velocity="0" />
      <note Length="0.03125" Pitch="36" RiffPosition="0.03125" Velocity="0" />
      <note Length="0.03125" Pitch="48" RiffPosition="0.0625" Velocity="0" />
      <note Length="0.015625" Pitch="41" RiffPosition="0.09375" Velocity="0" />
      <note Length="0.015625" Pitch="32" RiffPosition="0.109375" Velocity="0" />
      <note Length="0.03125" Pitch="29" RiffPosition="0.125" Velocity="0" />
      <note Length="0.03125" Pitch="41" RiffPosition="0.15625" Velocity="0" />
      <note Length="0.0208333333333333" Pitch="32" RiffPosition="0.1875" Velocity="0" />
      <note Length="0.0208333333333333" Pitch="29" RiffPosition="0.208333333333333" Velocity="0" />
      <note Length="0.0208333333333333" Pitch="41" RiffPosition="0.229166666666667" Velocity="0" />
      <note Length="0.015625" Pitch="41" RiffPosition="0.25" Velocity="0" />
      <note Length="0.015625" Pitch="32" RiffPosition="0.265625" Velocity="0" />
      <note Length="0.03125" Pitch="34" RiffPosition="0.28125" Velocity="0" />
      <note Length="0.03125" Pitch="41" RiffPosition="0.3125" Velocity="0" />
      <note Length="0.015625" Pitch="29" RiffPosition="0.34375" Velocity="0" />
      <note Length="0.015625" Pitch="34" RiffPosition="0.359375" Velocity="0" />
      <note Length="0.03125" Pitch="41" RiffPosition="0.375" Velocity="0" />
      <note Length="0.03125" Pitch="46" RiffPosition="0.40625" Velocity="0" />
      <note Length="0.0208333333333333" Pitch="34" RiffPosition="0.4375" Velocity="0" />
      <note Length="0.0208333333333333" Pitch="29" RiffPosition="0.458333333333333" Velocity="0" />
      <note Length="0.0208333333333333" Pitch="48" RiffPosition="0.479166666666667" Velocity="0" />
      <note Length="0.015625" Pitch="29" RiffPosition="0.5" Velocity="0" />
      <note Length="0.015625" Pitch="34" RiffPosition="0.515625" Velocity="0" />
      <note Length="0.03125" Pitch="36" RiffPosition="0.53125" Velocity="0" />
      <note Length="0.03125" Pitch="46" RiffPosition="0.5625" Velocity="0" />
      <note Length="0.015625" Pitch="41" RiffPosition="0.59375" Velocity="0" />
      <note Length="0.015625" Pitch="36" RiffPosition="0.609375" Velocity="0" />
      <note Length="0.03125" Pitch="29" RiffPosition="0.625" Velocity="0" />
      <note Length="0.03125" Pitch="41" RiffPosition="0.65625" Velocity="0" />
      <note Length="0.0208333333333333" Pitch="36" RiffPosition="0.6875" Velocity="0" />
      <note Length="0.0208333333333333" Pitch="41" RiffPosition="0.708333333333333" Velocity="0" />
      <note Length="0.0208333333333333" Pitch="41" RiffPosition="0.729166666666667" Velocity="0" />
      <note Length="0.015625" Pitch="41" RiffPosition="0.75" Velocity="0" />
      <note Length="0.015625" Pitch="32" RiffPosition="0.765625" Velocity="0" />
      <note Length="0.03125" Pitch="32" RiffPosition="0.78125" Velocity="0" />
      <note Length="0.03125" Pitch="41" RiffPosition="0.8125" Velocity="0" />
      <note Length="0.015625" Pitch="29" RiffPosition="0.84375" Velocity="0" />
      <note Length="0.015625" Pitch="34" RiffPosition="0.859375" Velocity="0" />
      <note Length="0.03125" Pitch="41" RiffPosition="0.875" Velocity="0" />
      <note Length="0.03125" Pitch="41" RiffPosition="0.90625" Velocity="0" />
      <note Length="0.0208333333333333" Pitch="34" RiffPosition="0.9375" Velocity="0" />
      <note Length="0.0208333333333333" Pitch="29" RiffPosition="0.958333333333333" Velocity="0" />
      <note Length="0.0208333333333333" Pitch="48" RiffPosition="0.979166666666667" Velocity="0" />
      <note Length="0.015625" Pitch="33" RiffPosition="1" Velocity="79" />
      <note Length="0.015625" Pitch="38" RiffPosition="1.015625" Velocity="82" />
      <note Length="0.03125" Pitch="38" RiffPosition="1.03125" Velocity="18" />
      <note Length="0.03125" Pitch="50" RiffPosition="1.0625" Velocity="123" />
      <note Length="0.015625" Pitch="45" RiffPosition="1.09375" Velocity="26" />
      <note Length="0.015625" Pitch="40" RiffPosition="1.109375" Velocity="118" />
      <note Length="0.03125" Pitch="45" RiffPosition="1.125" Velocity="79" />
      <note Length="0.03125" Pitch="52" RiffPosition="1.15625" Velocity="69" />
      <note Length="0.0208333333333333" Pitch="40" RiffPosition="1.1875" Velocity="36" />
      <note Length="0.0208333333333333" Pitch="45" RiffPosition="1.20833333333333" Velocity="18" />
      <note Length="0.0208333333333333" Pitch="45" RiffPosition="1.22916666666667" Velocity="18" />
      <note Length="0.015625" Pitch="45" RiffPosition="1.25" Velocity="79" />
      <note Length="0.015625" Pitch="40" RiffPosition="1.265625" Velocity="82" />
      <note Length="0.03125" Pitch="36" RiffPosition="1.28125" Velocity="18" />
      <note Length="0.03125" Pitch="45" RiffPosition="1.3125" Velocity="123" />
      <note Length="0.015625" Pitch="45" RiffPosition="1.34375" Velocity="26" />
      <note Length="0.015625" Pitch="36" RiffPosition="1.359375" Velocity="118" />
      <note Length="0.03125" Pitch="33" RiffPosition="1.375" Velocity="79" />
      <note Length="0.03125" Pitch="45" RiffPosition="1.40625" Velocity="69" />
      <note Length="0.0208333333333333" Pitch="38" RiffPosition="1.4375" Velocity="36" />
      <note Length="0.0208333333333333" Pitch="33" RiffPosition="1.45833333333333" Velocity="18" />
      <note Length="0.0208333333333333" Pitch="50" RiffPosition="1.47916666666667" Velocity="18" />
      <note Length="0.015625" Pitch="33" RiffPosition="1.5" Velocity="79" />
      <note Length="0.015625" Pitch="38" RiffPosition="1.515625" Velocity="82" />
      <note Length="0.03125" Pitch="38" RiffPosition="1.53125" Velocity="18" />
      <note Length="0.03125" Pitch="45" RiffPosition="1.5625" Velocity="123" />
      <note Length="0.015625" Pitch="33" RiffPosition="1.59375" Velocity="26" />
      <note Length="0.015625" Pitch="38" RiffPosition="1.609375" Velocity="118" />
      <note Length="0.03125" Pitch="45" RiffPosition="1.625" Velocity="79" />
      <note Length="0.03125" Pitch="50" RiffPosition="1.65625" Velocity="69" />
      <note Length="0.0208333333333333" Pitch="38" RiffPosition="1.6875" Velocity="36" />
      <note Length="0.0208333333333333" Pitch="45" RiffPosition="1.70833333333333" Velocity="18" />
      <note Length="0.0208333333333333" Pitch="45" RiffPosition="1.72916666666667" Velocity="18" />
      <note Length="0.015625" Pitch="45" RiffPosition="1.75" Velocity="79" />
      <note Length="0.015625" Pitch="40" RiffPosition="1.765625" Velocity="82" />
      <note Length="0.03125" Pitch="40" RiffPosition="1.78125" Velocity="18" />
      <note Length="0.03125" Pitch="52" RiffPosition="1.8125" Velocity="123" />
      <note Length="0.015625" Pitch="45" RiffPosition="1.84375" Velocity="26" />
      <note Length="0.015625" Pitch="36" RiffPosition="1.859375" Velocity="118" />
      <note Length="0.03125" Pitch="33" RiffPosition="1.875" Velocity="79" />
      <note Length="0.03125" Pitch="45" RiffPosition="1.90625" Velocity="69" />
      <note Length="0.0208333333333333" Pitch="36" RiffPosition="1.9375" Velocity="36" />
      <note Length="0.0208333333333333" Pitch="33" RiffPosition="1.95833333333333" Velocity="18" />
      <note Length="0.0208333333333333" Pitch="50" RiffPosition="1.97916666666667" Velocity="18" />
      <note Length="0.015625" Pitch="45" RiffPosition="2" Velocity="79" />
      <note Length="0.015625" Pitch="33" RiffPosition="2.015625" Velocity="82" />
      <note Length="0.03125" Pitch="35" RiffPosition="2.03125" Velocity="18" />
      <note Length="0.03125" Pitch="42" RiffPosition="2.0625" Velocity="123" />
      <note Length="0.015625" Pitch="30" RiffPosition="2.09375" Velocity="26" />
      <note Length="0.015625" Pitch="35" RiffPosition="2.109375" Velocity="118" />
      <note Length="0.03125" Pitch="42" RiffPosition="2.125" Velocity="79" />
      <note Length="0.03125" Pitch="47" RiffPosition="2.15625" Velocity="69" />
      <note Length="0.0208333333333333" Pitch="35" RiffPosition="2.1875" Velocity="36" />
      <note Length="0.0208333333333333" Pitch="42" RiffPosition="2.20833333333333" Velocity="18" />
      <note Length="0.0208333333333333" Pitch="49" RiffPosition="2.22916666666667" Velocity="18" />
      <note Length="0.015625" Pitch="30" RiffPosition="2.25" Velocity="79" />
      <note Length="0.015625" Pitch="35" RiffPosition="2.265625" Velocity="82" />
      <note Length="0.03125" Pitch="37" RiffPosition="2.28125" Velocity="18" />
      <note Length="0.03125" Pitch="49" RiffPosition="2.3125" Velocity="123" />
      <note Length="0.015625" Pitch="42" RiffPosition="2.34375" Velocity="26" />
      <note Length="0.015625" Pitch="37" RiffPosition="2.359375" Velocity="118" />
      <note Length="0.03125" Pitch="30" RiffPosition="2.375" Velocity="79" />
      <note Length="0.03125" Pitch="42" RiffPosition="2.40625" Velocity="69" />
      <note Length="0.0208333333333333" Pitch="37" RiffPosition="2.4375" Velocity="36" />
      <note Length="0.0208333333333333" Pitch="42" RiffPosition="2.45833333333333" Velocity="18" />
      <note Length="0.0208333333333333" Pitch="42" RiffPosition="2.47916666666667" Velocity="18" />
      <note Length="0.015625" Pitch="42" RiffPosition="2.5" Velocity="79" />
      <note Length="0.015625" Pitch="33" RiffPosition="2.515625" Velocity="82" />
      <note Length="0.03125" Pitch="35" RiffPosition="2.53125" Velocity="18" />
      <note Length="0.03125" Pitch="42" RiffPosition="2.5625" Velocity="123" />
      <note Length="0.015625" Pitch="30" RiffPosition="2.59375" Velocity="26" />
      <note Length="0.015625" Pitch="35" RiffPosition="2.609375" Velocity="118" />
      <note Length="0.03125" Pitch="42" RiffPosition="2.625" Velocity="79" />
      <note Length="0.03125" Pitch="42" RiffPosition="2.65625" Velocity="69" />
      <note Length="0.0208333333333333" Pitch="35" RiffPosition="2.6875" Velocity="36" />
      <note Length="0.0208333333333333" Pitch="30" RiffPosition="2.70833333333333" Velocity="18" />
      <note Length="0.0208333333333333" Pitch="49" RiffPosition="2.72916666666667" Velocity="18" />
      <note Length="0.015625" Pitch="30" RiffPosition="2.75" Velocity="79" />
      <note Length="0.015625" Pitch="35" RiffPosition="2.765625" Velocity="82" />
      <note Length="0.03125" Pitch="35" RiffPosition="2.78125" Velocity="18" />
      <note Length="0.03125" Pitch="47" RiffPosition="2.8125" Velocity="123" />
      <note Length="0.015625" Pitch="42" RiffPosition="2.84375" Velocity="26" />
      <note Length="0.015625" Pitch="37" RiffPosition="2.859375" Velocity="118" />
      <note Length="0.03125" Pitch="30" RiffPosition="2.875" Velocity="79" />
      <note Length="0.03125" Pitch="49" RiffPosition="2.90625" Velocity="69" />
      <note Length="0.0208333333333333" Pitch="37" RiffPosition="2.9375" Velocity="36" />
      <note Length="0.0208333333333333" Pitch="42" RiffPosition="2.95833333333333" Velocity="18" />
      <note Length="0.0208333333333333" Pitch="42" RiffPosition="2.97916666666667" Velocity="18" />
      <note Length="0.015625" Pitch="35" RiffPosition="3" Velocity="79" />
      <note Length="0.015625" Pitch="30" RiffPosition="3.015625" Velocity="82" />
      <note Length="0.03125" Pitch="26" RiffPosition="3.03125" Velocity="18" />
      <note Length="0.03125" Pitch="35" RiffPosition="3.0625" Velocity="123" />
      <note Length="0.015625" Pitch="23" RiffPosition="3.09375" Velocity="26" />
      <note Length="0.015625" Pitch="26" RiffPosition="3.109375" Velocity="118" />
      <note Length="0.03125" Pitch="23" RiffPosition="3.125" Velocity="79" />
      <note Length="0.03125" Pitch="35" RiffPosition="3.15625" Velocity="69" />
      <note Length="0.0208333333333333" Pitch="28" RiffPosition="3.1875" Velocity="36" />
      <note Length="0.0208333333333333" Pitch="23" RiffPosition="3.20833333333333" Velocity="18" />
      <note Length="0.0208333333333333" Pitch="40" RiffPosition="3.22916666666667" Velocity="18" />
      <note Length="0.015625" Pitch="23" RiffPosition="3.25" Velocity="79" />
      <note Length="0.015625" Pitch="28" RiffPosition="3.265625" Velocity="82" />
      <note Length="0.03125" Pitch="28" RiffPosition="3.28125" Velocity="18" />
      <note Length="0.03125" Pitch="40" RiffPosition="3.3125" Velocity="123" />
      <note Length="0.015625" Pitch="23" RiffPosition="3.34375" Velocity="26" />
      <note Length="0.015625" Pitch="28" RiffPosition="3.359375" Velocity="118" />
      <note Length="0.03125" Pitch="35" RiffPosition="3.375" Velocity="79" />
      <note Length="0.03125" Pitch="42" RiffPosition="3.40625" Velocity="69" />
      <note Length="0.0208333333333333" Pitch="28" RiffPosition="3.4375" Velocity="36" />
      <note Length="0.0208333333333333" Pitch="35" RiffPosition="3.45833333333333" Velocity="18" />
      <note Length="0.0208333333333333" Pitch="35" RiffPosition="3.47916666666667" Velocity="18" />
      <note Length="0.015625" Pitch="35" RiffPosition="3.5" Velocity="79" />
      <note Length="0.015625" Pitch="30" RiffPosition="3.515625" Velocity="82" />
      <note Length="0.03125" Pitch="26" RiffPosition="3.53125" Velocity="18" />
      <note Length="0.03125" Pitch="42" RiffPosition="3.5625" Velocity="123" />
      <note Length="0.015625" Pitch="35" RiffPosition="3.59375" Velocity="26" />
      <note Length="0.015625" Pitch="26" RiffPosition="3.609375" Velocity="118" />
      <note Length="0.03125" Pitch="23" RiffPosition="3.625" Velocity="79" />
      <note Length="0.03125" Pitch="35" RiffPosition="3.65625" Velocity="69" />
      <note Length="0.0208333333333333" Pitch="26" RiffPosition="3.6875" Velocity="36" />
      <note Length="0.0208333333333333" Pitch="23" RiffPosition="3.70833333333334" Velocity="18" />
      <note Length="0.0208333333333333" Pitch="40" RiffPosition="3.72916666666667" Velocity="18" />
      <note Length="0.015625" Pitch="23" RiffPosition="3.75" Velocity="79" />
      <note Length="0.015625" Pitch="26" RiffPosition="3.765625" Velocity="82" />
      <note Length="0.03125" Pitch="28" RiffPosition="3.78125" Velocity="18" />
      <note Length="0.03125" Pitch="35" RiffPosition="3.8125" Velocity="123" />
      <note Length="0.015625" Pitch="23" RiffPosition="3.84375" Velocity="26" />
      <note Length="0.015625" Pitch="28" RiffPosition="3.859375" Velocity="118" />
      <note Length="0.03125" Pitch="35" RiffPosition="3.875" Velocity="79" />
      <note Length="0.03125" Pitch="40" RiffPosition="3.90625" Velocity="69" />
      <note Length="0.0208333333333333" Pitch="28" RiffPosition="3.9375" Velocity="36" />
      <note Length="0.0208333333333333" Pitch="35" RiffPosition="3.95833333333334" Velocity="18" />
      <note Length="0.0208333333333333" Pitch="42" RiffPosition="3.97916666666667" Velocity="18" />
      <note Length="0.015625" Pitch="30" RiffPosition="4" Velocity="0" />
      <note Length="0.015625" Pitch="35" RiffPosition="4.015625" Velocity="0" />
      <note Length="0.03125" Pitch="37" RiffPosition="4.03125" Velocity="0" />
      <note Length="0.03125" Pitch="49" RiffPosition="4.0625" Velocity="0" />
      <note Length="0.015625" Pitch="42" RiffPosition="4.09375" Velocity="0" />
      <note Length="0.015625" Pitch="37" RiffPosition="4.109375" Velocity="0" />
      <note Length="0.03125" Pitch="30" RiffPosition="4.125" Velocity="0" />
      <note Length="0.03125" Pitch="42" RiffPosition="4.15625" Velocity="0" />
      <note Length="0.0208333333333333" Pitch="33" RiffPosition="4.1875" Velocity="0" />
      <note Length="0.0208333333333333" Pitch="42" RiffPosition="4.20833333333334" Velocity="0" />
      <note Length="0.0208333333333333" Pitch="42" RiffPosition="4.22916666666667" Velocity="0" />
      <note Length="0.015625" Pitch="42" RiffPosition="4.25" Velocity="0" />
      <note Length="0.015625" Pitch="33" RiffPosition="4.265625" Velocity="0" />
      <note Length="0.03125" Pitch="35" RiffPosition="4.28125" Velocity="0" />
      <note Length="0.03125" Pitch="42" RiffPosition="4.3125" Velocity="0" />
      <note Length="0.015625" Pitch="30" RiffPosition="4.34375" Velocity="0" />
      <note Length="0.015625" Pitch="35" RiffPosition="4.359375" Velocity="0" />
      <note Length="0.03125" Pitch="42" RiffPosition="4.375" Velocity="0" />
      <note Length="0.03125" Pitch="47" RiffPosition="4.40625" Velocity="0" />
      <note Length="0.0208333333333333" Pitch="35" RiffPosition="4.4375" Velocity="0" />
      <note Length="0.0208333333333333" Pitch="30" RiffPosition="4.45833333333333" Velocity="0" />
      <note Length="0.0208333333333333" Pitch="49" RiffPosition="4.47916666666667" Velocity="0" />
      <note Length="0.015625" Pitch="30" RiffPosition="4.5" Velocity="0" />
      <note Length="0.015625" Pitch="35" RiffPosition="4.515625" Velocity="0" />
      <note Length="0.03125" Pitch="37" RiffPosition="4.53125" Velocity="0" />
      <note Length="0.03125" Pitch="47" RiffPosition="4.5625" Velocity="0" />
      <note Length="0.015625" Pitch="42" RiffPosition="4.59375" Velocity="0" />
      <note Length="0.015625" Pitch="37" RiffPosition="4.609375" Velocity="0" />
      <note Length="0.03125" Pitch="30" RiffPosition="4.625" Velocity="0" />
      <note Length="0.03125" Pitch="49" RiffPosition="4.65625" Velocity="0" />
      <note Length="0.0208333333333333" Pitch="37" RiffPosition="4.6875" Velocity="0" />
      <note Length="0.0208333333333333" Pitch="42" RiffPosition="4.70833333333333" Velocity="0" />
      <note Length="0.0208333333333333" Pitch="42" RiffPosition="4.72916666666667" Velocity="0" />
      <note Length="0.015625" Pitch="42" RiffPosition="4.75" Velocity="0" />
      <note Length="0.015625" Pitch="37" RiffPosition="4.765625" Velocity="0" />
      <note Length="0.03125" Pitch="33" RiffPosition="4.78125" Velocity="0" />
      <note Length="0.03125" Pitch="42" RiffPosition="4.8125" Velocity="0" />
      <note Length="0.015625" Pitch="30" RiffPosition="4.84375" Velocity="0" />
      <note Length="0.015625" Pitch="35" RiffPosition="4.859375" Velocity="0" />
      <note Length="0.03125" Pitch="30" RiffPosition="4.875" Velocity="0" />
      <note Length="0.03125" Pitch="42" RiffPosition="4.90625" Velocity="0" />
      <note Length="0.0208333333333333" Pitch="35" RiffPosition="4.9375" Velocity="0" />
      <note Length="0.0208333333333333" Pitch="30" RiffPosition="4.95833333333333" Velocity="0" />
      <note Length="0.0208333333333333" Pitch="47" RiffPosition="4.97916666666667" Velocity="0" />
      <note Length="0.015625" Pitch="30" RiffPosition="5" Velocity="0" />
      <note Length="0.015625" Pitch="28" RiffPosition="5.015625" Velocity="0" />
      <note Length="0.03125" Pitch="28" RiffPosition="5.03125" Velocity="0" />
      <note Length="0.03125" Pitch="40" RiffPosition="5.0625" Velocity="0" />
      <note Length="0.015625" Pitch="23" RiffPosition="5.09375" Velocity="0" />
      <note Length="0.015625" Pitch="28" RiffPosition="5.109375" Velocity="0" />
      <note Length="0.03125" Pitch="35" RiffPosition="5.125" Velocity="0" />
      <note Length="0.03125" Pitch="42" RiffPosition="5.15625" Velocity="0" />
      <note Length="0.0208333333333333" Pitch="30" RiffPosition="5.1875" Velocity="0" />
      <note Length="0.0208333333333333" Pitch="35" RiffPosition="5.20833333333333" Velocity="0" />
      <note Length="0.0208333333333333" Pitch="35" RiffPosition="5.22916666666667" Velocity="0" />
      <note Length="0.015625" Pitch="35" RiffPosition="5.25" Velocity="0" />
      <note Length="0.015625" Pitch="30" RiffPosition="5.265625" Velocity="0" />
      <note Length="0.03125" Pitch="26" RiffPosition="5.28125" Velocity="0" />
      <note Length="0.03125" Pitch="42" RiffPosition="5.3125" Velocity="0" />
      <note Length="0.015625" Pitch="35" RiffPosition="5.34375" Velocity="0" />
      <note Length="0.015625" Pitch="26" RiffPosition="5.359375" Velocity="0" />
      <note Length="0.03125" Pitch="23" RiffPosition="5.375" Velocity="0" />
      <note Length="0.03125" Pitch="35" RiffPosition="5.40625" Velocity="0" />
      <note Length="0.0208333333333333" Pitch="26" RiffPosition="5.4375" Velocity="0" />
      <note Length="0.0208333333333333" Pitch="23" RiffPosition="5.45833333333333" Velocity="0" />
      <note Length="0.0208333333333333" Pitch="40" RiffPosition="5.47916666666666" Velocity="0" />
      <note Length="0.015625" Pitch="23" RiffPosition="5.5" Velocity="0" />
      <note Length="0.015625" Pitch="28" RiffPosition="5.515625" Velocity="0" />
      <note Length="0.03125" Pitch="28" RiffPosition="5.53125" Velocity="0" />
      <note Length="0.03125" Pitch="35" RiffPosition="5.5625" Velocity="0" />
      <note Length="0.015625" Pitch="23" RiffPosition="5.59375" Velocity="0" />
      <note Length="0.015625" Pitch="28" RiffPosition="5.609375" Velocity="0" />
      <note Length="0.03125" Pitch="35" RiffPosition="5.625" Velocity="0" />
      <note Length="0.03125" Pitch="40" RiffPosition="5.65625" Velocity="0" />
      <note Length="0.0208333333333333" Pitch="28" RiffPosition="5.6875" Velocity="0" />
      <note Length="0.0208333333333333" Pitch="35" RiffPosition="5.70833333333333" Velocity="0" />
      <note Length="0.0208333333333333" Pitch="35" RiffPosition="5.72916666666666" Velocity="0" />
      <note Length="0.015625" Pitch="23" RiffPosition="5.75" Velocity="0" />
      <note Length="0.015625" Pitch="28" RiffPosition="5.765625" Velocity="0" />
      <note Length="0.03125" Pitch="30" RiffPosition="5.78125" Velocity="0" />
      <note Length="0.03125" Pitch="42" RiffPosition="5.8125" Velocity="0" />
      <note Length="0.015625" Pitch="35" RiffPosition="5.84375" Velocity="0" />
      <note Length="0.015625" Pitch="30" RiffPosition="5.859375" Velocity="0" />
      <note Length="0.03125" Pitch="23" RiffPosition="5.875" Velocity="0" />
      <note Length="0.03125" Pitch="35" RiffPosition="5.90625" Velocity="0" />
      <note Length="0.0208333333333333" Pitch="26" RiffPosition="5.9375" Velocity="0" />
      <note Length="0.0208333333333333" Pitch="23" RiffPosition="5.95833333333333" Velocity="0" />
      <note Length="0.0208333333333333" Pitch="35" RiffPosition="5.97916666666666" Velocity="0" />
      <note Length="0.015625" Pitch="35" RiffPosition="6" Velocity="0" />
      <note Length="0.015625" Pitch="32" RiffPosition="6.015625" Velocity="82" />
      <note Length="0.03125" Pitch="34" RiffPosition="6.03125" Velocity="18" />
      <note Length="0.03125" Pitch="41" RiffPosition="6.0625" Velocity="123" />
      <note Length="0.015625" Pitch="29" RiffPosition="6.09375" Velocity="26" />
      <note Length="0.015625" Pitch="34" RiffPosition="6.109375" Velocity="118" />
      <note Length="0.03125" Pitch="41" RiffPosition="6.125" Velocity="79" />
      <note Length="0.03125" Pitch="46" RiffPosition="6.15625" Velocity="69" />
      <note Length="0.0208333333333333" Pitch="34" RiffPosition="6.1875" Velocity="36" />
      <note Length="0.0208333333333333" Pitch="29" RiffPosition="6.20833333333333" Velocity="18" />
      <note Length="0.0208333333333333" Pitch="48" RiffPosition="6.22916666666666" Velocity="18" />
      <note Length="0.015625" Pitch="29" RiffPosition="6.24999999999999" Velocity="79" />
      <note Length="0.015625" Pitch="34" RiffPosition="6.26562499999999" Velocity="82" />
      <note Length="0.03125" Pitch="36" RiffPosition="6.28124999999999" Velocity="18" />
      <note Length="0.03125" Pitch="46" RiffPosition="6.31249999999999" Velocity="123" />
      <note Length="0.015625" Pitch="41" RiffPosition="6.34374999999999" Velocity="26" />
      <note Length="0.015625" Pitch="36" RiffPosition="6.35937499999999" Velocity="118" />
      <note Length="0.03125" Pitch="29" RiffPosition="6.37499999999999" Velocity="79" />
      <note Length="0.03125" Pitch="48" RiffPosition="6.40624999999999" Velocity="69" />
      <note Length="0.0208333333333333" Pitch="36" RiffPosition="6.43749999999999" Velocity="36" />
      <note Length="0.0208333333333333" Pitch="41" RiffPosition="6.45833333333333" Velocity="18" />
      <note Length="0.0208333333333333" Pitch="41" RiffPosition="6.47916666666666" Velocity="18" />
      <note Length="0.015625" Pitch="41" RiffPosition="6.49999999999999" Velocity="79" />
      <note Length="0.015625" Pitch="32" RiffPosition="6.51562499999999" Velocity="82" />
      <note Length="0.03125" Pitch="32" RiffPosition="6.53124999999999" Velocity="18" />
      <note Length="0.03125" Pitch="41" RiffPosition="6.56249999999999" Velocity="123" />
      <note Length="0.015625" Pitch="29" RiffPosition="6.59374999999999" Velocity="26" />
      <note Length="0.015625" Pitch="34" RiffPosition="6.60937499999999" Velocity="118" />
      <note Length="0.03125" Pitch="41" RiffPosition="6.62499999999999" Velocity="79" />
      <note Length="0.03125" Pitch="41" RiffPosition="6.65624999999999" Velocity="69" />
      <note Length="0.0208333333333333" Pitch="34" RiffPosition="6.68749999999999" Velocity="36" />
      <note Length="0.0208333333333333" Pitch="29" RiffPosition="6.70833333333333" Velocity="18" />
      <note Length="0.0208333333333333" Pitch="48" RiffPosition="6.72916666666666" Velocity="18" />
      <note Length="0.015625" Pitch="29" RiffPosition="6.74999999999999" Velocity="79" />
      <note Length="0.015625" Pitch="34" RiffPosition="6.76562499999999" Velocity="82" />
      <note Length="0.03125" Pitch="34" RiffPosition="6.78124999999999" Velocity="18" />
      <note Length="0.03125" Pitch="46" RiffPosition="6.81249999999999" Velocity="123" />
      <note Length="0.015625" Pitch="41" RiffPosition="6.84374999999999" Velocity="26" />
      <note Length="0.015625" Pitch="34" RiffPosition="6.85937499999999" Velocity="118" />
      <note Length="0.03125" Pitch="41" RiffPosition="6.87499999999999" Velocity="79" />
      <note Length="0.03125" Pitch="48" RiffPosition="6.90624999999999" Velocity="69" />
      <note Length="0.0208333333333333" Pitch="36" RiffPosition="6.93749999999999" Velocity="36" />
      <note Length="0.0208333333333333" Pitch="41" RiffPosition="6.95833333333333" Velocity="18" />
      <note Length="0.0208333333333333" Pitch="41" RiffPosition="6.97916666666666" Velocity="18" />
      <note Length="0.015625" Pitch="41" RiffPosition="6.99999999999999" Velocity="79" />
      <note Length="0.015625" Pitch="29" RiffPosition="7.01562499999999" Velocity="82" />
      <note Length="0.03125" Pitch="25" RiffPosition="7.03124999999999" Velocity="18" />
      <note Length="0.03125" Pitch="34" RiffPosition="7.06249999999999" Velocity="123" />
      <note Length="0.015625" Pitch="34" RiffPosition="7.09374999999999" Velocity="26" />
      <note Length="0.015625" Pitch="25" RiffPosition="7.10937499999999" Velocity="118" />
      <note Length="0.03125" Pitch="22" RiffPosition="7.12499999999999" Velocity="79" />
      <note Length="0.03125" Pitch="34" RiffPosition="7.15624999999999" Velocity="69" />
      <note Length="0.0208333333333333" Pitch="25" RiffPosition="7.18749999999999" Velocity="36" />
      <note Length="0.0208333333333333" Pitch="22" RiffPosition="7.20833333333333" Velocity="18" />
      <note Length="0.0208333333333333" Pitch="39" RiffPosition="7.22916666666666" Velocity="18" />
      <note Length="0.015625" Pitch="22" RiffPosition="7.24999999999999" Velocity="79" />
      <note Length="0.015625" Pitch="27" RiffPosition="7.26562499999999" Velocity="82" />
      <note Length="0.03125" Pitch="27" RiffPosition="7.28124999999999" Velocity="18" />
      <note Length="0.03125" Pitch="34" RiffPosition="7.31249999999999" Velocity="123" />
      <note Length="0.015625" Pitch="22" RiffPosition="7.34374999999999" Velocity="26" />
      <note Length="0.015625" Pitch="27" RiffPosition="7.35937499999999" Velocity="118" />
      <note Length="0.03125" Pitch="34" RiffPosition="7.37499999999999" Velocity="79" />
      <note Length="0.03125" Pitch="39" RiffPosition="7.40624999999999" Velocity="69" />
      <note Length="0.0208333333333333" Pitch="27" RiffPosition="7.43749999999999" Velocity="36" />
      <note Length="0.0208333333333333" Pitch="34" RiffPosition="7.45833333333332" Velocity="18" />
      <note Length="0.0208333333333333" Pitch="34" RiffPosition="7.47916666666666" Velocity="18" />
      <note Length="0.015625" Pitch="34" RiffPosition="7.49999999999999" Velocity="79" />
      <note Length="0.015625" Pitch="29" RiffPosition="7.51562499999999" Velocity="82" />
      <note Length="0.03125" Pitch="29" RiffPosition="7.53124999999999" Velocity="18" />
      <note Length="0.03125" Pitch="41" RiffPosition="7.56249999999999" Velocity="123" />
      <note Length="0.015625" Pitch="34" RiffPosition="7.59374999999999" Velocity="26" />
      <note Length="0.015625" Pitch="25" RiffPosition="7.60937499999999" Velocity="118" />
      <note Length="0.03125" Pitch="22" RiffPosition="7.62499999999999" Velocity="79" />
      <note Length="0.03125" Pitch="34" RiffPosition="7.65624999999999" Velocity="69" />
      <note Length="0.0208333333333333" Pitch="25" RiffPosition="7.68749999999999" Velocity="36" />
      <note Length="0.0208333333333333" Pitch="22" RiffPosition="7.70833333333332" Velocity="18" />
      <note Length="0.0208333333333333" Pitch="39" RiffPosition="7.72916666666666" Velocity="18" />
      <note Length="0.015625" Pitch="34" RiffPosition="7.74999999999999" Velocity="79" />
      <note Length="0.015625" Pitch="25" RiffPosition="7.76562499999999" Velocity="82" />
      <note Length="0.03125" Pitch="27" RiffPosition="7.78124999999999" Velocity="18" />
      <note Length="0.03125" Pitch="34" RiffPosition="7.81249999999999" Velocity="123" />
      <note Length="0.015625" Pitch="22" RiffPosition="7.84374999999999" Velocity="26" />
      <note Length="0.015625" Pitch="27" RiffPosition="7.85937499999999" Velocity="118" />
      <note Length="0.03125" Pitch="34" RiffPosition="7.87499999999999" Velocity="79" />
      <note Length="0.03125" Pitch="39" RiffPosition="7.90624999999999" Velocity="69" />
      <note Length="0.0208333333333333" Pitch="27" RiffPosition="7.93749999999999" Velocity="36" />
      <note Length="0.0208333333333333" Pitch="22" RiffPosition="7.95833333333332" Velocity="18" />
      <note Length="0.0208333333333333" Pitch="41" RiffPosition="7.97916666666666" Velocity="18" />
      <note Length="0.015625" Pitch="22" RiffPosition="7.99999999999999" Velocity="79" />
      <note Length="0.015625" Pitch="34" RiffPosition="8.01562499999999" Velocity="82" />
      <note Length="0.03125" Pitch="36" RiffPosition="8.03124999999999" Velocity="18" />
      <note Length="0.03125" Pitch="46" RiffPosition="8.06249999999999" Velocity="123" />
      <note Length="0.015625" Pitch="41" RiffPosition="8.09374999999999" Velocity="26" />
      <note Length="0.015625" Pitch="36" RiffPosition="8.10937499999999" Velocity="118" />
      <note Length="0.03125" Pitch="29" RiffPosition="8.12499999999999" Velocity="79" />
      <note Length="0.03125" Pitch="41" RiffPosition="8.15624999999999" Velocity="69" />
      <note Length="0.0208333333333333" Pitch="36" RiffPosition="8.18749999999999" Velocity="36" />
      <note Length="0.0208333333333333" Pitch="41" RiffPosition="8.20833333333332" Velocity="18" />
      <note Length="0.0208333333333333" Pitch="41" RiffPosition="8.22916666666666" Velocity="18" />
      <note Length="0.015625" Pitch="41" RiffPosition="8.24999999999999" Velocity="79" />
      <note Length="0.015625" Pitch="32" RiffPosition="8.26562499999999" Velocity="82" />
      <note Length="0.03125" Pitch="34" RiffPosition="8.28124999999999" Velocity="18" />
      <note Length="0.03125" Pitch="41" RiffPosition="8.31249999999999" Velocity="123" />
      <note Length="0.015625" Pitch="29" RiffPosition="8.34374999999999" Velocity="26" />
      <note Length="0.015625" Pitch="34" RiffPosition="8.35937499999999" Velocity="118" />
      <note Length="0.03125" Pitch="41" RiffPosition="8.37499999999999" Velocity="79" />
      <note Length="0.03125" Pitch="41" RiffPosition="8.40624999999999" Velocity="69" />
      <note Length="0.0208333333333333" Pitch="34" RiffPosition="8.43749999999999" Velocity="36" />
      <note Length="0.0208333333333333" Pitch="29" RiffPosition="8.45833333333333" Velocity="18" />
      <note Length="0.0208333333333333" Pitch="48" RiffPosition="8.47916666666666" Velocity="18" />
      <note Length="0.015625" Pitch="29" RiffPosition="8.49999999999999" Velocity="79" />
      <note Length="0.015625" Pitch="34" RiffPosition="8.51562499999999" Velocity="82" />
      <note Length="0.03125" Pitch="34" RiffPosition="8.53124999999999" Velocity="18" />
      <note Length="0.03125" Pitch="46" RiffPosition="8.56249999999999" Velocity="123" />
      <note Length="0.015625" Pitch="41" RiffPosition="8.59374999999999" Velocity="26" />
      <note Length="0.015625" Pitch="36" RiffPosition="8.60937499999999" Velocity="118" />
      <note Length="0.03125" Pitch="41" RiffPosition="8.62499999999999" Velocity="79" />
      <note Length="0.03125" Pitch="48" RiffPosition="8.65624999999999" Velocity="69" />
      <note Length="0.0208333333333333" Pitch="36" RiffPosition="8.68749999999999" Velocity="36" />
      <note Length="0.0208333333333333" Pitch="41" RiffPosition="8.70833333333333" Velocity="18" />
      <note Length="0.0208333333333333" Pitch="41" RiffPosition="8.72916666666666" Velocity="18" />
      <note Length="0.015625" Pitch="41" RiffPosition="8.74999999999999" Velocity="79" />
      <note Length="0.015625" Pitch="36" RiffPosition="8.76562499999999" Velocity="82" />
      <note Length="0.03125" Pitch="32" RiffPosition="8.78124999999999" Velocity="18" />
      <note Length="0.03125" Pitch="41" RiffPosition="8.81249999999999" Velocity="123" />
      <note Length="0.015625" Pitch="41" RiffPosition="8.84374999999999" Velocity="26" />
      <note Length="0.015625" Pitch="32" RiffPosition="8.85937499999999" Velocity="118" />
      <note Length="0.03125" Pitch="29" RiffPosition="8.87499999999999" Velocity="79" />
      <note Length="0.03125" Pitch="41" RiffPosition="8.90624999999999" Velocity="69" />
      <note Length="0.0208333333333333" Pitch="34" RiffPosition="8.93749999999999" Velocity="36" />
      <note Length="0.0208333333333333" Pitch="29" RiffPosition="8.95833333333333" Velocity="18" />
      <note Length="0.0208333333333333" Pitch="46" RiffPosition="8.97916666666666" Velocity="18" />
      <note Length="0.015625" Pitch="29" RiffPosition="9" Velocity="79" />
      <note Length="0.015625" Pitch="27" RiffPosition="9.015625" Velocity="82" />
      <note Length="0.03125" Pitch="27" RiffPosition="9.03125" Velocity="18" />
      <note Length="0.03125" Pitch="34" RiffPosition="9.0625" Velocity="123" />
      <note Length="0.015625" Pitch="22" RiffPosition="9.09375" Velocity="26" />
      <note Length="0.015625" Pitch="27" RiffPosition="9.109375" Velocity="118" />
      <note Length="0.03125" Pitch="34" RiffPosition="9.125" Velocity="79" />
      <note Length="0.03125" Pitch="41" RiffPosition="9.15625" Velocity="69" />
      <note Length="0.0208333333333333" Pitch="27" RiffPosition="9.1875" Velocity="36" />
      <note Length="0.0208333333333333" Pitch="34" RiffPosition="9.20833333333333" Velocity="18" />
      <note Length="0.0208333333333333" Pitch="34" RiffPosition="9.22916666666666" Velocity="18" />
      <note Length="0.015625" Pitch="34" RiffPosition="9.25" Velocity="79" />
      <note Length="0.015625" Pitch="29" RiffPosition="9.265625" Velocity="82" />
      <note Length="0.03125" Pitch="29" RiffPosition="9.28125" Velocity="18" />
      <note Length="0.03125" Pitch="41" RiffPosition="9.3125" Velocity="123" />
      <note Length="0.015625" Pitch="34" RiffPosition="9.34375" Velocity="26" />
      <note Length="0.015625" Pitch="25" RiffPosition="9.359375" Velocity="118" />
      <note Length="0.03125" Pitch="22" RiffPosition="9.375" Velocity="79" />
      <note Length="0.03125" Pitch="34" RiffPosition="9.40625" Velocity="69" />
      <note Length="0.0208333333333333" Pitch="25" RiffPosition="9.4375" Velocity="36" />
      <note Length="0.0208333333333333" Pitch="22" RiffPosition="9.45833333333333" Velocity="18" />
      <note Length="0.0208333333333333" Pitch="39" RiffPosition="9.47916666666667" Velocity="18" />
      <note Length="0.015625" Pitch="36" RiffPosition="9.5" Velocity="79" />
      <note Length="0.015625" Pitch="25" RiffPosition="9.515625" Velocity="82" />
      <note Length="0.03125" Pitch="27" RiffPosition="9.53125" Velocity="18" />
      <note Length="0.03125" Pitch="34" RiffPosition="9.5625" Velocity="123" />
      <note Length="0.015625" Pitch="22" RiffPosition="9.59375" Velocity="26" />
      <note Length="0.015625" Pitch="27" RiffPosition="9.609375" Velocity="118" />
      <note Length="0.03125" Pitch="34" RiffPosition="9.625" Velocity="79" />
      <note Length="0.03125" Pitch="39" RiffPosition="9.65625" Velocity="69" />
      <note Length="0.0208333333333333" Pitch="27" RiffPosition="9.6875" Velocity="36" />
      <note Length="0.0208333333333333" Pitch="34" RiffPosition="9.70833333333333" Velocity="18" />
      <note Length="0.0208333333333333" Pitch="41" RiffPosition="9.72916666666667" Velocity="18" />
      <note Length="0.015625" Pitch="22" RiffPosition="9.75" Velocity="79" />
      <note Length="0.015625" Pitch="27" RiffPosition="9.765625" Velocity="82" />
      <note Length="0.03125" Pitch="29" RiffPosition="9.78125" Velocity="18" />
      <note Length="0.03125" Pitch="41" RiffPosition="9.8125" Velocity="123" />
      <note Length="0.015625" Pitch="34" RiffPosition="9.84375" Velocity="26" />
      <note Length="0.015625" Pitch="29" RiffPosition="9.859375" Velocity="118" />
      <note Length="0.03125" Pitch="22" RiffPosition="9.875" Velocity="79" />
      <note Length="0.03125" Pitch="34" RiffPosition="9.90625" Velocity="69" />
      <note Length="0.0208333333333333" Pitch="25" RiffPosition="9.9375" Velocity="36" />
      <note Length="0.0208333333333333" Pitch="34" RiffPosition="9.95833333333334" Velocity="18" />
      <note Length="0.0208333333333333" Pitch="34" RiffPosition="9.97916666666667" Velocity="18" />
      <note Length="0.015625" Pitch="43" RiffPosition="10" Velocity="79" />
      <note Length="0.015625" Pitch="34" RiffPosition="10.015625" Velocity="82" />
      <note Length="0.03125" Pitch="36" RiffPosition="10.03125" Velocity="18" />
      <note Length="0.03125" Pitch="43" RiffPosition="10.0625" Velocity="123" />
      <note Length="0.015625" Pitch="31" RiffPosition="10.09375" Velocity="26" />
      <note Length="0.015625" Pitch="36" RiffPosition="10.109375" Velocity="118" />
      <note Length="0.03125" Pitch="43" RiffPosition="10.125" Velocity="79" />
      <note Length="0.03125" Pitch="48" RiffPosition="10.15625" Velocity="69" />
      <note Length="0.0208333333333333" Pitch="36" RiffPosition="10.1875" Velocity="36" />
      <note Length="0.0208333333333333" Pitch="31" RiffPosition="10.2083333333333" Velocity="18" />
      <note Length="0.0208333333333333" Pitch="50" RiffPosition="10.2291666666667" Velocity="18" />
      <note Length="0.015625" Pitch="31" RiffPosition="10.25" Velocity="79" />
      <note Length="0.015625" Pitch="36" RiffPosition="10.265625" Velocity="82" />
      <note Length="0.03125" Pitch="36" RiffPosition="10.28125" Velocity="18" />
      <note Length="0.03125" Pitch="48" RiffPosition="10.3125" Velocity="123" />
      <note Length="0.015625" Pitch="43" RiffPosition="10.34375" Velocity="26" />
      <note Length="0.015625" Pitch="38" RiffPosition="10.359375" Velocity="118" />
      <note Length="0.03125" Pitch="31" RiffPosition="10.375" Velocity="79" />
      <note Length="0.03125" Pitch="50" RiffPosition="10.40625" Velocity="69" />
      <note Length="0.0208333333333333" Pitch="38" RiffPosition="10.4375" Velocity="36" />
      <note Length="0.0208333333333333" Pitch="43" RiffPosition="10.4583333333333" Velocity="18" />
      <note Length="0.0208333333333333" Pitch="43" RiffPosition="10.4791666666667" Velocity="18" />
      <note Length="0.015625" Pitch="43" RiffPosition="10.5" Velocity="79" />
      <note Length="0.015625" Pitch="38" RiffPosition="10.515625" Velocity="82" />
      <note Length="0.03125" Pitch="34" RiffPosition="10.53125" Velocity="18" />
      <note Length="0.03125" Pitch="43" RiffPosition="10.5625" Velocity="123" />
      <note Length="0.015625" Pitch="31" RiffPosition="10.59375" Velocity="26" />
      <note Length="0.015625" Pitch="34" RiffPosition="10.609375" Velocity="118" />
      <note Length="0.03125" Pitch="31" RiffPosition="10.625" Velocity="79" />
      <note Length="0.03125" Pitch="43" RiffPosition="10.65625" Velocity="69" />
      <note Length="0.0208333333333333" Pitch="36" RiffPosition="10.6875" Velocity="36" />
      <note Length="0.0208333333333333" Pitch="31" RiffPosition="10.7083333333333" Velocity="18" />
      <note Length="0.0208333333333333" Pitch="48" RiffPosition="10.7291666666667" Velocity="18" />
      <note Length="0.015625" Pitch="31" RiffPosition="10.75" Velocity="79" />
      <note Length="0.015625" Pitch="36" RiffPosition="10.765625" Velocity="82" />
      <note Length="0.03125" Pitch="36" RiffPosition="10.78125" Velocity="18" />
      <note Length="0.03125" Pitch="48" RiffPosition="10.8125" Velocity="123" />
      <note Length="0.015625" Pitch="31" RiffPosition="10.84375" Velocity="26" />
      <note Length="0.015625" Pitch="36" RiffPosition="10.859375" Velocity="118" />
      <note Length="0.03125" Pitch="43" RiffPosition="10.875" Velocity="79" />
      <note Length="0.03125" Pitch="50" RiffPosition="10.90625" Velocity="69" />
      <note Length="0.0208333333333333" Pitch="36" RiffPosition="10.9375" Velocity="36" />
      <note Length="0.0208333333333333" Pitch="43" RiffPosition="10.9583333333333" Velocity="18" />
      <note Length="0.0208333333333333" Pitch="43" RiffPosition="10.9791666666667" Velocity="18" />
      <note Length="0.015625" Pitch="34" RiffPosition="11" Velocity="79" />
      <note Length="0.015625" Pitch="29" RiffPosition="11.015625" Velocity="82" />
      <note Length="0.03125" Pitch="25" RiffPosition="11.03125" Velocity="18" />
      <note Length="0.03125" Pitch="41" RiffPosition="11.0625" Velocity="123" />
      <note Length="0.015625" Pitch="34" RiffPosition="11.09375" Velocity="26" />
      <note Length="0.015625" Pitch="25" RiffPosition="11.109375" Velocity="118" />
      <note Length="0.03125" Pitch="22" RiffPosition="11.125" Velocity="79" />
      <note Length="0.03125" Pitch="34" RiffPosition="11.15625" Velocity="69" />
      <note Length="0.0208333333333333" Pitch="25" RiffPosition="11.1875" Velocity="36" />
      <note Length="0.0208333333333333" Pitch="22" RiffPosition="11.2083333333333" Velocity="18" />
      <note Length="0.0208333333333333" Pitch="39" RiffPosition="11.2291666666667" Velocity="18" />
      <note Length="0.015625" Pitch="22" RiffPosition="11.25" Velocity="79" />
      <note Length="0.015625" Pitch="25" RiffPosition="11.265625" Velocity="82" />
      <note Length="0.03125" Pitch="27" RiffPosition="11.28125" Velocity="18" />
      <note Length="0.03125" Pitch="34" RiffPosition="11.3125" Velocity="123" />
      <note Length="0.015625" Pitch="22" RiffPosition="11.34375" Velocity="26" />
      <note Length="0.015625" Pitch="27" RiffPosition="11.359375" Velocity="118" />
      <note Length="0.03125" Pitch="34" RiffPosition="11.375" Velocity="79" />
      <note Length="0.03125" Pitch="39" RiffPosition="11.40625" Velocity="69" />
      <note Length="0.0208333333333333" Pitch="27" RiffPosition="11.4375" Velocity="36" />
      <note Length="0.0208333333333333" Pitch="34" RiffPosition="11.4583333333333" Velocity="18" />
      <note Length="0.0208333333333333" Pitch="41" RiffPosition="11.4791666666667" Velocity="18" />
      <note Length="0.015625" Pitch="22" RiffPosition="11.5" Velocity="79" />
      <note Length="0.015625" Pitch="27" RiffPosition="11.515625" Velocity="82" />
      <note Length="0.03125" Pitch="29" RiffPosition="11.53125" Velocity="18" />
      <note Length="0.03125" Pitch="41" RiffPosition="11.5625" Velocity="123" />
      <note Length="0.015625" Pitch="34" RiffPosition="11.59375" Velocity="26" />
      <note Length="0.015625" Pitch="29" RiffPosition="11.609375" Velocity="118" />
      <note Length="0.03125" Pitch="22" RiffPosition="11.625" Velocity="79" />
      <note Length="0.03125" Pitch="34" RiffPosition="11.65625" Velocity="69" />
      <note Length="0.0208333333333333" Pitch="25" RiffPosition="11.6875" Velocity="36" />
      <note Length="0.0208333333333333" Pitch="34" RiffPosition="11.7083333333333" Velocity="18" />
      <note Length="0.0208333333333333" Pitch="34" RiffPosition="11.7291666666667" Velocity="18" />
      <note Length="0.015625" Pitch="34" RiffPosition="11.75" Velocity="79" />
      <note Length="0.015625" Pitch="25" RiffPosition="11.765625" Velocity="82" />
      <note Length="0.03125" Pitch="27" RiffPosition="11.78125" Velocity="18" />
      <note Length="0.03125" Pitch="34" RiffPosition="11.8125" Velocity="123" />
      <note Length="0.015625" Pitch="22" RiffPosition="11.84375" Velocity="26" />
      <note Length="0.015625" Pitch="27" RiffPosition="11.859375" Velocity="118" />
      <note Length="0.03125" Pitch="34" RiffPosition="11.875" Velocity="79" />
      <note Length="0.03125" Pitch="39" RiffPosition="11.90625" Velocity="69" />
      <note Length="0.0208333333333333" Pitch="27" RiffPosition="11.9375" Velocity="36" />
      <note Length="0.0208333333333333" Pitch="22" RiffPosition="11.9583333333333" Velocity="18" />
      <note Length="0.0208333333333333" Pitch="41" RiffPosition="11.9791666666667" Velocity="18" />
      <note Length="0.015625" Pitch="31" RiffPosition="12" Velocity="79" />
      <note Length="0.015625" Pitch="36" RiffPosition="12.015625" Velocity="82" />
      <note Length="0.03125" Pitch="38" RiffPosition="12.03125" Velocity="18" />
      <note Length="0.03125" Pitch="48" RiffPosition="12.0625" Velocity="123" />
      <note Length="0.015625" Pitch="43" RiffPosition="12.09375" Velocity="26" />
      <note Length="0.015625" Pitch="38" RiffPosition="12.109375" Velocity="118" />
      <note Length="0.03125" Pitch="31" RiffPosition="12.125" Velocity="79" />
      <note Length="0.03125" Pitch="50" RiffPosition="12.15625" Velocity="69" />
      <note Length="0.0208333333333333" Pitch="38" RiffPosition="12.1875" Velocity="36" />
      <note Length="0.0208333333333333" Pitch="43" RiffPosition="12.2083333333334" Velocity="18" />
      <note Length="0.0208333333333333" Pitch="43" RiffPosition="12.2291666666667" Velocity="18" />
      <note Length="0.015625" Pitch="43" RiffPosition="12.25" Velocity="79" />
      <note Length="0.015625" Pitch="38" RiffPosition="12.265625" Velocity="82" />
      <note Length="0.03125" Pitch="34" RiffPosition="12.28125" Velocity="18" />
      <note Length="0.03125" Pitch="43" RiffPosition="12.3125" Velocity="123" />
      <note Length="0.015625" Pitch="31" RiffPosition="12.34375" Velocity="26" />
      <note Length="0.015625" Pitch="36" RiffPosition="12.359375" Velocity="118" />
      <note Length="0.03125" Pitch="31" RiffPosition="12.375" Velocity="79" />
      <note Length="0.03125" Pitch="43" RiffPosition="12.40625" Velocity="69" />
      <note Length="0.0208333333333333" Pitch="36" RiffPosition="12.4375" Velocity="36" />
      <note Length="0.0208333333333333" Pitch="31" RiffPosition="12.4583333333334" Velocity="18" />
      <note Length="0.0208333333333333" Pitch="48" RiffPosition="12.4791666666667" Velocity="18" />
      <note Length="0.015625" Pitch="31" RiffPosition="12.5" Velocity="79" />
      <note Length="0.015625" Pitch="36" RiffPosition="12.515625" Velocity="82" />
      <note Length="0.03125" Pitch="36" RiffPosition="12.53125" Velocity="18" />
      <note Length="0.03125" Pitch="48" RiffPosition="12.5625" Velocity="123" />
      <note Length="0.015625" Pitch="31" RiffPosition="12.59375" Velocity="26" />
      <note Length="0.015625" Pitch="36" RiffPosition="12.609375" Velocity="118" />
      <note Length="0.03125" Pitch="43" RiffPosition="12.625" Velocity="79" />
      <note Length="0.03125" Pitch="50" RiffPosition="12.65625" Velocity="69" />
      <note Length="0.0208333333333333" Pitch="38" RiffPosition="12.6875" Velocity="36" />
      <note Length="0.0208333333333333" Pitch="43" RiffPosition="12.7083333333334" Velocity="18" />
      <note Length="0.0208333333333333" Pitch="43" RiffPosition="12.7291666666667" Velocity="18" />
      <note Length="0.015625" Pitch="43" RiffPosition="12.75" Velocity="79" />
      <note Length="0.015625" Pitch="38" RiffPosition="12.765625" Velocity="82" />
      <note Length="0.03125" Pitch="34" RiffPosition="12.78125" Velocity="18" />
      <note Length="0.03125" Pitch="50" RiffPosition="12.8125" Velocity="123" />
      <note Length="0.015625" Pitch="43" RiffPosition="12.84375" Velocity="26" />
      <note Length="0.015625" Pitch="34" RiffPosition="12.859375" Velocity="118" />
      <note Length="0.03125" Pitch="31" RiffPosition="12.875" Velocity="79" />
      <note Length="0.03125" Pitch="43" RiffPosition="12.90625" Velocity="69" />
      <note Length="0.0208333333333333" Pitch="34" RiffPosition="12.9375" Velocity="36" />
      <note Length="0.0208333333333333" Pitch="31" RiffPosition="12.9583333333334" Velocity="18" />
      <note Length="0.0208333333333333" Pitch="48" RiffPosition="12.9791666666667" Velocity="18" />
      <note Length="0.015625" Pitch="33" RiffPosition="13" Velocity="79" />
      <note Length="0.015625" Pitch="38" RiffPosition="13.015625" Velocity="82" />
      <note Length="0.03125" Pitch="38" RiffPosition="13.03125" Velocity="18" />
      <note Length="0.03125" Pitch="45" RiffPosition="13.0625" Velocity="123" />
      <note Length="0.015625" Pitch="33" RiffPosition="13.09375" Velocity="26" />
      <note Length="0.015625" Pitch="38" RiffPosition="13.109375" Velocity="118" />
      <note Length="0.03125" Pitch="45" RiffPosition="13.125" Velocity="79" />
      <note Length="0.03125" Pitch="50" RiffPosition="13.15625" Velocity="69" />
      <note Length="0.0208333333333333" Pitch="38" RiffPosition="13.1875" Velocity="36" />
      <note Length="0.0208333333333333" Pitch="45" RiffPosition="13.2083333333334" Velocity="18" />
      <note Length="0.0208333333333333" Pitch="45" RiffPosition="13.2291666666667" Velocity="18" />
      <note Length="0.015625" Pitch="33" RiffPosition="13.25" Velocity="79" />
      <note Length="0.015625" Pitch="38" RiffPosition="13.265625" Velocity="82" />
      <note Length="0.03125" Pitch="40" RiffPosition="13.28125" Velocity="18" />
      <note Length="0.03125" Pitch="52" RiffPosition="13.3125" Velocity="123" />
      <note Length="0.015625" Pitch="45" RiffPosition="13.34375" Velocity="26" />
      <note Length="0.015625" Pitch="40" RiffPosition="13.359375" Velocity="118" />
      <note Length="0.03125" Pitch="33" RiffPosition="13.375" Velocity="79" />
      <note Length="0.03125" Pitch="45" RiffPosition="13.40625" Velocity="69" />
      <note Length="0.0208333333333333" Pitch="36" RiffPosition="13.4375" Velocity="36" />
      <note Length="0.0208333333333333" Pitch="33" RiffPosition="13.4583333333334" Velocity="18" />
      <note Length="0.0208333333333333" Pitch="45" RiffPosition="13.4791666666667" Velocity="18" />
      <note Length="0.015625" Pitch="45" RiffPosition="13.5" Velocity="79" />
      <note Length="0.015625" Pitch="36" RiffPosition="13.515625" Velocity="82" />
      <note Length="0.03125" Pitch="38" RiffPosition="13.53125" Velocity="18" />
      <note Length="0.03125" Pitch="45" RiffPosition="13.5625" Velocity="123" />
      <note Length="0.015625" Pitch="33" RiffPosition="13.59375" Velocity="26" />
      <note Length="0.015625" Pitch="38" RiffPosition="13.609375" Velocity="118" />
      <note Length="0.03125" Pitch="45" RiffPosition="13.625" Velocity="79" />
      <note Length="0.03125" Pitch="50" RiffPosition="13.65625" Velocity="69" />
      <note Length="0.0208333333333333" Pitch="38" RiffPosition="13.6875" Velocity="36" />
      <note Length="0.0208333333333333" Pitch="33" RiffPosition="13.7083333333334" Velocity="18" />
      <note Length="0.0208333333333333" Pitch="52" RiffPosition="13.7291666666667" Velocity="18" />
      <note Length="0.015625" Pitch="33" RiffPosition="13.75" Velocity="79" />
      <note Length="0.015625" Pitch="38" RiffPosition="13.765625" Velocity="82" />
      <note Length="0.03125" Pitch="40" RiffPosition="13.78125" Velocity="18" />
      <note Length="0.03125" Pitch="50" RiffPosition="13.8125" Velocity="123" />
      <note Length="0.015625" Pitch="45" RiffPosition="13.84375" Velocity="26" />
      <note Length="0.015625" Pitch="40" RiffPosition="13.859375" Velocity="118" />
      <note Length="0.03125" Pitch="33" RiffPosition="13.875" Velocity="79" />
      <note Length="0.03125" Pitch="45" RiffPosition="13.90625" Velocity="69" />
      <note Length="0.0208333333333333" Pitch="40" RiffPosition="13.9375" Velocity="36" />
      <note Length="0.0208333333333333" Pitch="45" RiffPosition="13.9583333333334" Velocity="18" />
      <note Length="0.020833333333302" Pitch="45" RiffPosition="13.9791666666667" Velocity="18" />
    </riff>
    <riff IsDrum="False" MidiInstrument="117" Tempo="90" Length="14">
      <note Length="0.0078125" Pitch="36" RiffPosition="0" Velocity="0" />
      <note Length="0.0234375" Pitch="34" RiffPosition="0.0078125" Velocity="0" />
      <note Length="0.015625" Pitch="41" RiffPosition="0.03125" Velocity="0" />
      <note Length="0.015625" Pitch="44" RiffPosition="0.046875" Velocity="0" />
      <note Length="0.03125" Pitch="41" RiffPosition="0.0625" Velocity="0" />
      <note Length="0.03125" Pitch="44" RiffPosition="0.09375" Velocity="0" />
      <note Length="0.0416666666666667" Pitch="43" RiffPosition="0.125" Velocity="0" />
      <note Length="0.0208333333333333" Pitch="36" RiffPosition="0.166666666666667" Velocity="0" />
      <note Length="0.0208333333333333" Pitch="41" RiffPosition="0.1875" Velocity="0" />
      <note Length="0.0208333333333333" Pitch="41" RiffPosition="0.208333333333333" Velocity="0" />
      <note Length="0.0208333333333333" Pitch="41" RiffPosition="0.229166666666667" Velocity="0" />
      <note Length="0.0078125" Pitch="36" RiffPosition="0.25" Velocity="0" />
      <note Length="0.0234375" Pitch="34" RiffPosition="0.2578125" Velocity="0" />
      <note Length="0.015625" Pitch="41" RiffPosition="0.28125" Velocity="0" />
      <note Length="0.015625" Pitch="44" RiffPosition="0.296875" Velocity="0" />
      <note Length="0.03125" Pitch="41" RiffPosition="0.3125" Velocity="0" />
      <note Length="0.03125" Pitch="44" RiffPosition="0.34375" Velocity="0" />
      <note Length="0.0416666666666667" Pitch="43" RiffPosition="0.375" Velocity="0" />
      <note Length="0.0208333333333333" Pitch="36" RiffPosition="0.416666666666667" Velocity="0" />
      <note Length="0.0208333333333333" Pitch="41" RiffPosition="0.4375" Velocity="0" />
      <note Length="0.0208333333333333" Pitch="41" RiffPosition="0.458333333333333" Velocity="0" />
      <note Length="0.0208333333333333" Pitch="41" RiffPosition="0.479166666666667" Velocity="0" />
      <note Length="0.0078125" Pitch="36" RiffPosition="0.5" Velocity="0" />
      <note Length="0.0234375" Pitch="34" RiffPosition="0.5078125" Velocity="0" />
      <note Length="0.015625" Pitch="41" RiffPosition="0.53125" Velocity="0" />
      <note Length="0.015625" Pitch="44" RiffPosition="0.546875" Velocity="0" />
      <note Length="0.03125" Pitch="41" RiffPosition="0.5625" Velocity="0" />
      <note Length="0.03125" Pitch="44" RiffPosition="0.59375" Velocity="0" />
      <note Length="0.0416666666666667" Pitch="43" RiffPosition="0.625" Velocity="0" />
      <note Length="0.0208333333333333" Pitch="36" RiffPosition="0.666666666666667" Velocity="0" />
      <note Length="0.0208333333333333" Pitch="41" RiffPosition="0.6875" Velocity="0" />
      <note Length="0.0208333333333333" Pitch="41" RiffPosition="0.708333333333333" Velocity="0" />
      <note Length="0.0208333333333333" Pitch="41" RiffPosition="0.729166666666667" Velocity="0" />
      <note Length="0.0078125" Pitch="36" RiffPosition="0.75" Velocity="0" />
      <note Length="0.0234375" Pitch="34" RiffPosition="0.7578125" Velocity="0" />
      <note Length="0.015625" Pitch="41" RiffPosition="0.78125" Velocity="0" />
      <note Length="0.015625" Pitch="44" RiffPosition="0.796875" Velocity="0" />
      <note Length="0.03125" Pitch="41" RiffPosition="0.8125" Velocity="0" />
      <note Length="0.03125" Pitch="44" RiffPosition="0.84375" Velocity="0" />
      <note Length="0.0416666666666667" Pitch="43" RiffPosition="0.875" Velocity="0" />
      <note Length="0.0208333333333333" Pitch="36" RiffPosition="0.916666666666667" Velocity="0" />
      <note Length="0.0208333333333333" Pitch="41" RiffPosition="0.9375" Velocity="0" />
      <note Length="0.0208333333333333" Pitch="41" RiffPosition="0.958333333333333" Velocity="0" />
      <note Length="0.0208333333333333" Pitch="41" RiffPosition="0.979166666666667" Velocity="0" />
      <note Length="0.0078125" Pitch="40" RiffPosition="1" Velocity="127" />
      <note Length="0.0234375" Pitch="38" RiffPosition="1.0078125" Velocity="127" />
      <note Length="0.015625" Pitch="45" RiffPosition="1.03125" Velocity="94" />
      <note Length="0.015625" Pitch="48" RiffPosition="1.046875" Velocity="33" />
      <note Length="0.03125" Pitch="45" RiffPosition="1.0625" Velocity="94" />
      <note Length="0.03125" Pitch="48" RiffPosition="1.09375" Velocity="61" />
      <note Length="0.0416666666666667" Pitch="47" RiffPosition="1.125" Velocity="61" />
      <note Length="0.0208333333333333" Pitch="40" RiffPosition="1.16666666666667" Velocity="33" />
      <note Length="0.0208333333333333" Pitch="45" RiffPosition="1.1875" Velocity="94" />
      <note Length="0.0208333333333333" Pitch="45" RiffPosition="1.20833333333333" Velocity="127" />
      <note Length="0.0208333333333333" Pitch="45" RiffPosition="1.22916666666667" Velocity="0" />
      <note Length="0.0078125" Pitch="40" RiffPosition="1.25" Velocity="127" />
      <note Length="0.0234375" Pitch="38" RiffPosition="1.2578125" Velocity="127" />
      <note Length="0.015625" Pitch="45" RiffPosition="1.28125" Velocity="94" />
      <note Length="0.015625" Pitch="48" RiffPosition="1.296875" Velocity="33" />
      <note Length="0.03125" Pitch="45" RiffPosition="1.3125" Velocity="94" />
      <note Length="0.03125" Pitch="48" RiffPosition="1.34375" Velocity="61" />
      <note Length="0.0416666666666667" Pitch="47" RiffPosition="1.375" Velocity="61" />
      <note Length="0.0208333333333333" Pitch="40" RiffPosition="1.41666666666667" Velocity="33" />
      <note Length="0.0208333333333333" Pitch="45" RiffPosition="1.4375" Velocity="94" />
      <note Length="0.0208333333333333" Pitch="45" RiffPosition="1.45833333333333" Velocity="127" />
      <note Length="0.0208333333333333" Pitch="45" RiffPosition="1.47916666666667" Velocity="0" />
      <note Length="0.0078125" Pitch="40" RiffPosition="1.5" Velocity="127" />
      <note Length="0.0234375" Pitch="38" RiffPosition="1.5078125" Velocity="127" />
      <note Length="0.015625" Pitch="45" RiffPosition="1.53125" Velocity="94" />
      <note Length="0.015625" Pitch="48" RiffPosition="1.546875" Velocity="33" />
      <note Length="0.03125" Pitch="45" RiffPosition="1.5625" Velocity="94" />
      <note Length="0.03125" Pitch="48" RiffPosition="1.59375" Velocity="61" />
      <note Length="0.0416666666666667" Pitch="47" RiffPosition="1.625" Velocity="61" />
      <note Length="0.0208333333333333" Pitch="40" RiffPosition="1.66666666666667" Velocity="33" />
      <note Length="0.0208333333333333" Pitch="45" RiffPosition="1.6875" Velocity="94" />
      <note Length="0.0208333333333333" Pitch="45" RiffPosition="1.70833333333333" Velocity="127" />
      <note Length="0.0208333333333333" Pitch="45" RiffPosition="1.72916666666667" Velocity="0" />
      <note Length="0.0078125" Pitch="40" RiffPosition="1.75" Velocity="127" />
      <note Length="0.0234375" Pitch="38" RiffPosition="1.7578125" Velocity="127" />
      <note Length="0.015625" Pitch="45" RiffPosition="1.78125" Velocity="94" />
      <note Length="0.015625" Pitch="48" RiffPosition="1.796875" Velocity="33" />
      <note Length="0.03125" Pitch="45" RiffPosition="1.8125" Velocity="94" />
      <note Length="0.03125" Pitch="48" RiffPosition="1.84375" Velocity="61" />
      <note Length="0.0416666666666667" Pitch="47" RiffPosition="1.875" Velocity="61" />
      <note Length="0.0208333333333333" Pitch="40" RiffPosition="1.91666666666667" Velocity="33" />
      <note Length="0.0208333333333333" Pitch="45" RiffPosition="1.9375" Velocity="94" />
      <note Length="0.0208333333333333" Pitch="45" RiffPosition="1.95833333333333" Velocity="127" />
      <note Length="0.0208333333333333" Pitch="45" RiffPosition="1.97916666666667" Velocity="0" />
      <note Length="0.0078125" Pitch="40" RiffPosition="2" Velocity="127" />
      <note Length="0.0234375" Pitch="35" RiffPosition="2.0078125" Velocity="127" />
      <note Length="0.015625" Pitch="42" RiffPosition="2.03125" Velocity="94" />
      <note Length="0.015625" Pitch="45" RiffPosition="2.046875" Velocity="33" />
      <note Length="0.03125" Pitch="42" RiffPosition="2.0625" Velocity="94" />
      <note Length="0.03125" Pitch="45" RiffPosition="2.09375" Velocity="61" />
      <note Length="0.0416666666666667" Pitch="44" RiffPosition="2.125" Velocity="61" />
      <note Length="0.0208333333333333" Pitch="37" RiffPosition="2.16666666666667" Velocity="33" />
      <note Length="0.0208333333333333" Pitch="42" RiffPosition="2.1875" Velocity="94" />
      <note Length="0.0208333333333333" Pitch="42" RiffPosition="2.20833333333333" Velocity="127" />
      <note Length="0.0208333333333333" Pitch="42" RiffPosition="2.22916666666667" Velocity="0" />
      <note Length="0.0078125" Pitch="37" RiffPosition="2.25" Velocity="127" />
      <note Length="0.0234375" Pitch="35" RiffPosition="2.2578125" Velocity="127" />
      <note Length="0.015625" Pitch="42" RiffPosition="2.28125" Velocity="94" />
      <note Length="0.015625" Pitch="45" RiffPosition="2.296875" Velocity="33" />
      <note Length="0.03125" Pitch="42" RiffPosition="2.3125" Velocity="94" />
      <note Length="0.03125" Pitch="45" RiffPosition="2.34375" Velocity="61" />
      <note Length="0.0416666666666667" Pitch="44" RiffPosition="2.375" Velocity="61" />
      <note Length="0.0208333333333333" Pitch="37" RiffPosition="2.41666666666667" Velocity="33" />
      <note Length="0.0208333333333333" Pitch="42" RiffPosition="2.4375" Velocity="94" />
      <note Length="0.0208333333333333" Pitch="42" RiffPosition="2.45833333333333" Velocity="127" />
      <note Length="0.0208333333333333" Pitch="42" RiffPosition="2.47916666666667" Velocity="0" />
      <note Length="0.0078125" Pitch="37" RiffPosition="2.5" Velocity="127" />
      <note Length="0.0234375" Pitch="35" RiffPosition="2.5078125" Velocity="127" />
      <note Length="0.015625" Pitch="42" RiffPosition="2.53125" Velocity="94" />
      <note Length="0.015625" Pitch="45" RiffPosition="2.546875" Velocity="33" />
      <note Length="0.03125" Pitch="42" RiffPosition="2.5625" Velocity="94" />
      <note Length="0.03125" Pitch="45" RiffPosition="2.59375" Velocity="61" />
      <note Length="0.0416666666666667" Pitch="44" RiffPosition="2.625" Velocity="61" />
      <note Length="0.0208333333333333" Pitch="37" RiffPosition="2.66666666666667" Velocity="33" />
      <note Length="0.0208333333333333" Pitch="42" RiffPosition="2.6875" Velocity="94" />
      <note Length="0.0208333333333333" Pitch="42" RiffPosition="2.70833333333333" Velocity="127" />
      <note Length="0.0208333333333333" Pitch="42" RiffPosition="2.72916666666667" Velocity="0" />
      <note Length="0.0078125" Pitch="37" RiffPosition="2.75" Velocity="127" />
      <note Length="0.0234375" Pitch="35" RiffPosition="2.7578125" Velocity="127" />
      <note Length="0.015625" Pitch="42" RiffPosition="2.78125" Velocity="94" />
      <note Length="0.015625" Pitch="45" RiffPosition="2.796875" Velocity="33" />
      <note Length="0.03125" Pitch="42" RiffPosition="2.8125" Velocity="94" />
      <note Length="0.03125" Pitch="45" RiffPosition="2.84375" Velocity="61" />
      <note Length="0.0416666666666667" Pitch="44" RiffPosition="2.875" Velocity="61" />
      <note Length="0.0208333333333333" Pitch="37" RiffPosition="2.91666666666667" Velocity="33" />
      <note Length="0.0208333333333333" Pitch="42" RiffPosition="2.9375" Velocity="94" />
      <note Length="0.0208333333333333" Pitch="42" RiffPosition="2.95833333333333" Velocity="127" />
      <note Length="0.0208333333333333" Pitch="42" RiffPosition="2.97916666666667" Velocity="0" />
      <note Length="0.0078125" Pitch="30" RiffPosition="3" Velocity="127" />
      <note Length="0.0234375" Pitch="28" RiffPosition="3.0078125" Velocity="127" />
      <note Length="0.015625" Pitch="35" RiffPosition="3.03125" Velocity="94" />
      <note Length="0.015625" Pitch="38" RiffPosition="3.046875" Velocity="33" />
      <note Length="0.03125" Pitch="35" RiffPosition="3.0625" Velocity="94" />
      <note Length="0.03125" Pitch="38" RiffPosition="3.09375" Velocity="61" />
      <note Length="0.0416666666666667" Pitch="37" RiffPosition="3.125" Velocity="61" />
      <note Length="0.0208333333333333" Pitch="30" RiffPosition="3.16666666666667" Velocity="33" />
      <note Length="0.0208333333333333" Pitch="35" RiffPosition="3.1875" Velocity="94" />
      <note Length="0.0208333333333333" Pitch="35" RiffPosition="3.20833333333333" Velocity="127" />
      <note Length="0.0208333333333333" Pitch="35" RiffPosition="3.22916666666667" Velocity="0" />
      <note Length="0.0078125" Pitch="30" RiffPosition="3.25" Velocity="127" />
      <note Length="0.0234375" Pitch="28" RiffPosition="3.2578125" Velocity="127" />
      <note Length="0.015625" Pitch="35" RiffPosition="3.28125" Velocity="94" />
      <note Length="0.015625" Pitch="38" RiffPosition="3.296875" Velocity="33" />
      <note Length="0.03125" Pitch="35" RiffPosition="3.3125" Velocity="94" />
      <note Length="0.03125" Pitch="38" RiffPosition="3.34375" Velocity="61" />
      <note Length="0.0416666666666667" Pitch="37" RiffPosition="3.375" Velocity="61" />
      <note Length="0.0208333333333333" Pitch="30" RiffPosition="3.41666666666667" Velocity="33" />
      <note Length="0.0208333333333333" Pitch="35" RiffPosition="3.4375" Velocity="94" />
      <note Length="0.0208333333333333" Pitch="35" RiffPosition="3.45833333333333" Velocity="127" />
      <note Length="0.0208333333333333" Pitch="35" RiffPosition="3.47916666666667" Velocity="0" />
      <note Length="0.0078125" Pitch="30" RiffPosition="3.5" Velocity="127" />
      <note Length="0.0234375" Pitch="28" RiffPosition="3.5078125" Velocity="127" />
      <note Length="0.015625" Pitch="35" RiffPosition="3.53125" Velocity="94" />
      <note Length="0.015625" Pitch="38" RiffPosition="3.546875" Velocity="33" />
      <note Length="0.03125" Pitch="35" RiffPosition="3.5625" Velocity="94" />
      <note Length="0.03125" Pitch="38" RiffPosition="3.59375" Velocity="61" />
      <note Length="0.0416666666666667" Pitch="37" RiffPosition="3.625" Velocity="61" />
      <note Length="0.0208333333333333" Pitch="30" RiffPosition="3.66666666666667" Velocity="33" />
      <note Length="0.0208333333333333" Pitch="35" RiffPosition="3.6875" Velocity="94" />
      <note Length="0.0208333333333333" Pitch="35" RiffPosition="3.70833333333334" Velocity="127" />
      <note Length="0.0208333333333333" Pitch="35" RiffPosition="3.72916666666667" Velocity="0" />
      <note Length="0.0078125" Pitch="30" RiffPosition="3.75" Velocity="127" />
      <note Length="0.0234375" Pitch="28" RiffPosition="3.7578125" Velocity="127" />
      <note Length="0.015625" Pitch="35" RiffPosition="3.78125" Velocity="94" />
      <note Length="0.015625" Pitch="38" RiffPosition="3.796875" Velocity="33" />
      <note Length="0.03125" Pitch="35" RiffPosition="3.8125" Velocity="94" />
      <note Length="0.03125" Pitch="38" RiffPosition="3.84375" Velocity="61" />
      <note Length="0.0416666666666667" Pitch="37" RiffPosition="3.875" Velocity="61" />
      <note Length="0.0208333333333333" Pitch="30" RiffPosition="3.91666666666667" Velocity="33" />
      <note Length="0.0208333333333333" Pitch="35" RiffPosition="3.9375" Velocity="94" />
      <note Length="0.0208333333333333" Pitch="35" RiffPosition="3.95833333333334" Velocity="127" />
      <note Length="0.0208333333333333" Pitch="35" RiffPosition="3.97916666666667" Velocity="0" />
      <note Length="0.0078125" Pitch="37" RiffPosition="4" Velocity="0" />
      <note Length="0.0234375" Pitch="35" RiffPosition="4.0078125" Velocity="0" />
      <note Length="0.015625" Pitch="42" RiffPosition="4.03125" Velocity="0" />
      <note Length="0.015625" Pitch="45" RiffPosition="4.046875" Velocity="0" />
      <note Length="0.03125" Pitch="42" RiffPosition="4.0625" Velocity="0" />
      <note Length="0.03125" Pitch="45" RiffPosition="4.09375" Velocity="0" />
      <note Length="0.0416666666666667" Pitch="44" RiffPosition="4.125" Velocity="0" />
      <note Length="0.0208333333333333" Pitch="37" RiffPosition="4.16666666666667" Velocity="0" />
      <note Length="0.0208333333333333" Pitch="42" RiffPosition="4.1875" Velocity="0" />
      <note Length="0.0208333333333333" Pitch="42" RiffPosition="4.20833333333334" Velocity="0" />
      <note Length="0.0208333333333333" Pitch="42" RiffPosition="4.22916666666667" Velocity="0" />
      <note Length="0.0078125" Pitch="37" RiffPosition="4.25" Velocity="0" />
      <note Length="0.0234375" Pitch="35" RiffPosition="4.2578125" Velocity="0" />
      <note Length="0.015625" Pitch="42" RiffPosition="4.28125" Velocity="0" />
      <note Length="0.015625" Pitch="45" RiffPosition="4.296875" Velocity="0" />
      <note Length="0.03125" Pitch="42" RiffPosition="4.3125" Velocity="0" />
      <note Length="0.03125" Pitch="45" RiffPosition="4.34375" Velocity="0" />
      <note Length="0.0416666666666667" Pitch="44" RiffPosition="4.375" Velocity="0" />
      <note Length="0.0208333333333333" Pitch="37" RiffPosition="4.41666666666667" Velocity="0" />
      <note Length="0.0208333333333333" Pitch="42" RiffPosition="4.4375" Velocity="0" />
      <note Length="0.0208333333333333" Pitch="42" RiffPosition="4.45833333333333" Velocity="0" />
      <note Length="0.0208333333333333" Pitch="42" RiffPosition="4.47916666666667" Velocity="0" />
      <note Length="0.0078125" Pitch="37" RiffPosition="4.5" Velocity="0" />
      <note Length="0.0234375" Pitch="35" RiffPosition="4.5078125" Velocity="0" />
      <note Length="0.015625" Pitch="42" RiffPosition="4.53125" Velocity="0" />
      <note Length="0.015625" Pitch="45" RiffPosition="4.546875" Velocity="0" />
      <note Length="0.03125" Pitch="42" RiffPosition="4.5625" Velocity="0" />
      <note Length="0.03125" Pitch="45" RiffPosition="4.59375" Velocity="0" />
      <note Length="0.0416666666666667" Pitch="44" RiffPosition="4.625" Velocity="0" />
      <note Length="0.0208333333333333" Pitch="37" RiffPosition="4.66666666666667" Velocity="0" />
      <note Length="0.0208333333333333" Pitch="42" RiffPosition="4.6875" Velocity="0" />
      <note Length="0.0208333333333333" Pitch="42" RiffPosition="4.70833333333333" Velocity="0" />
      <note Length="0.0208333333333333" Pitch="42" RiffPosition="4.72916666666667" Velocity="0" />
      <note Length="0.0078125" Pitch="37" RiffPosition="4.75" Velocity="0" />
      <note Length="0.0234375" Pitch="35" RiffPosition="4.7578125" Velocity="0" />
      <note Length="0.015625" Pitch="42" RiffPosition="4.78125" Velocity="0" />
      <note Length="0.015625" Pitch="45" RiffPosition="4.796875" Velocity="0" />
      <note Length="0.03125" Pitch="42" RiffPosition="4.8125" Velocity="0" />
      <note Length="0.03125" Pitch="45" RiffPosition="4.84375" Velocity="0" />
      <note Length="0.0416666666666667" Pitch="44" RiffPosition="4.875" Velocity="0" />
      <note Length="0.0208333333333333" Pitch="37" RiffPosition="4.91666666666667" Velocity="0" />
      <note Length="0.0208333333333333" Pitch="42" RiffPosition="4.9375" Velocity="0" />
      <note Length="0.0208333333333333" Pitch="42" RiffPosition="4.95833333333333" Velocity="0" />
      <note Length="0.0208333333333333" Pitch="42" RiffPosition="4.97916666666667" Velocity="0" />
      <note Length="0.0078125" Pitch="37" RiffPosition="5" Velocity="0" />
      <note Length="0.0234375" Pitch="28" RiffPosition="5.0078125" Velocity="0" />
      <note Length="0.015625" Pitch="35" RiffPosition="5.03125" Velocity="0" />
      <note Length="0.015625" Pitch="38" RiffPosition="5.046875" Velocity="0" />
      <note Length="0.03125" Pitch="35" RiffPosition="5.0625" Velocity="0" />
      <note Length="0.03125" Pitch="38" RiffPosition="5.09375" Velocity="0" />
      <note Length="0.0416666666666667" Pitch="37" RiffPosition="5.125" Velocity="0" />
      <note Length="0.0208333333333333" Pitch="30" RiffPosition="5.16666666666667" Velocity="0" />
      <note Length="0.0208333333333333" Pitch="35" RiffPosition="5.1875" Velocity="0" />
      <note Length="0.0208333333333333" Pitch="35" RiffPosition="5.20833333333333" Velocity="0" />
      <note Length="0.0208333333333333" Pitch="35" RiffPosition="5.22916666666667" Velocity="0" />
      <note Length="0.0078125" Pitch="30" RiffPosition="5.25" Velocity="0" />
      <note Length="0.0234375" Pitch="28" RiffPosition="5.2578125" Velocity="0" />
      <note Length="0.015625" Pitch="35" RiffPosition="5.28125" Velocity="0" />
      <note Length="0.015625" Pitch="38" RiffPosition="5.296875" Velocity="0" />
      <note Length="0.03125" Pitch="35" RiffPosition="5.3125" Velocity="0" />
      <note Length="0.03125" Pitch="38" RiffPosition="5.34375" Velocity="0" />
      <note Length="0.0416666666666667" Pitch="37" RiffPosition="5.375" Velocity="0" />
      <note Length="0.0208333333333333" Pitch="30" RiffPosition="5.41666666666667" Velocity="0" />
      <note Length="0.0208333333333333" Pitch="35" RiffPosition="5.4375" Velocity="0" />
      <note Length="0.0208333333333333" Pitch="35" RiffPosition="5.45833333333333" Velocity="0" />
      <note Length="0.0208333333333333" Pitch="35" RiffPosition="5.47916666666666" Velocity="0" />
      <note Length="0.0078125" Pitch="30" RiffPosition="5.5" Velocity="0" />
      <note Length="0.0234375" Pitch="28" RiffPosition="5.5078125" Velocity="0" />
      <note Length="0.015625" Pitch="35" RiffPosition="5.53125" Velocity="0" />
      <note Length="0.015625" Pitch="38" RiffPosition="5.546875" Velocity="0" />
      <note Length="0.03125" Pitch="35" RiffPosition="5.5625" Velocity="0" />
      <note Length="0.03125" Pitch="38" RiffPosition="5.59375" Velocity="0" />
      <note Length="0.0416666666666667" Pitch="37" RiffPosition="5.625" Velocity="0" />
      <note Length="0.0208333333333333" Pitch="30" RiffPosition="5.66666666666666" Velocity="0" />
      <note Length="0.0208333333333333" Pitch="35" RiffPosition="5.6875" Velocity="0" />
      <note Length="0.0208333333333333" Pitch="35" RiffPosition="5.70833333333333" Velocity="0" />
      <note Length="0.0208333333333333" Pitch="35" RiffPosition="5.72916666666666" Velocity="0" />
      <note Length="0.0078125" Pitch="30" RiffPosition="5.75" Velocity="0" />
      <note Length="0.0234375" Pitch="28" RiffPosition="5.7578125" Velocity="0" />
      <note Length="0.015625" Pitch="35" RiffPosition="5.78125" Velocity="0" />
      <note Length="0.015625" Pitch="38" RiffPosition="5.796875" Velocity="0" />
      <note Length="0.03125" Pitch="35" RiffPosition="5.8125" Velocity="0" />
      <note Length="0.03125" Pitch="38" RiffPosition="5.84375" Velocity="0" />
      <note Length="0.0416666666666667" Pitch="37" RiffPosition="5.875" Velocity="0" />
      <note Length="0.0208333333333333" Pitch="30" RiffPosition="5.91666666666666" Velocity="0" />
      <note Length="0.0208333333333333" Pitch="35" RiffPosition="5.9375" Velocity="0" />
      <note Length="0.0208333333333333" Pitch="35" RiffPosition="5.95833333333333" Velocity="0" />
      <note Length="0.0208333333333333" Pitch="35" RiffPosition="5.97916666666666" Velocity="0" />
      <note Length="0.0078125" Pitch="30" RiffPosition="6" Velocity="0" />
      <note Length="0.0234375" Pitch="34" RiffPosition="6.0078125" Velocity="127" />
      <note Length="0.015625" Pitch="41" RiffPosition="6.03125" Velocity="94" />
      <note Length="0.015625" Pitch="44" RiffPosition="6.046875" Velocity="33" />
      <note Length="0.03125" Pitch="41" RiffPosition="6.0625" Velocity="94" />
      <note Length="0.03125" Pitch="44" RiffPosition="6.09375" Velocity="61" />
      <note Length="0.0416666666666667" Pitch="43" RiffPosition="6.125" Velocity="61" />
      <note Length="0.0208333333333333" Pitch="36" RiffPosition="6.16666666666666" Velocity="33" />
      <note Length="0.0208333333333333" Pitch="41" RiffPosition="6.1875" Velocity="94" />
      <note Length="0.0208333333333333" Pitch="41" RiffPosition="6.20833333333333" Velocity="127" />
      <note Length="0.0208333333333333" Pitch="41" RiffPosition="6.22916666666666" Velocity="0" />
      <note Length="0.0078125" Pitch="36" RiffPosition="6.24999999999999" Velocity="127" />
      <note Length="0.0234375" Pitch="34" RiffPosition="6.25781249999999" Velocity="127" />
      <note Length="0.015625" Pitch="41" RiffPosition="6.28124999999999" Velocity="94" />
      <note Length="0.015625" Pitch="44" RiffPosition="6.29687499999999" Velocity="33" />
      <note Length="0.03125" Pitch="41" RiffPosition="6.31249999999999" Velocity="94" />
      <note Length="0.03125" Pitch="44" RiffPosition="6.34374999999999" Velocity="61" />
      <note Length="0.0416666666666667" Pitch="43" RiffPosition="6.37499999999999" Velocity="61" />
      <note Length="0.0208333333333333" Pitch="36" RiffPosition="6.41666666666666" Velocity="33" />
      <note Length="0.0208333333333333" Pitch="41" RiffPosition="6.43749999999999" Velocity="94" />
      <note Length="0.0208333333333333" Pitch="41" RiffPosition="6.45833333333333" Velocity="127" />
      <note Length="0.0208333333333333" Pitch="41" RiffPosition="6.47916666666666" Velocity="0" />
      <note Length="0.0078125" Pitch="36" RiffPosition="6.49999999999999" Velocity="127" />
      <note Length="0.0234375" Pitch="34" RiffPosition="6.50781249999999" Velocity="127" />
      <note Length="0.015625" Pitch="41" RiffPosition="6.53124999999999" Velocity="94" />
      <note Length="0.015625" Pitch="44" RiffPosition="6.54687499999999" Velocity="33" />
      <note Length="0.03125" Pitch="41" RiffPosition="6.56249999999999" Velocity="94" />
      <note Length="0.03125" Pitch="44" RiffPosition="6.59374999999999" Velocity="61" />
      <note Length="0.0416666666666667" Pitch="43" RiffPosition="6.62499999999999" Velocity="61" />
      <note Length="0.0208333333333333" Pitch="36" RiffPosition="6.66666666666666" Velocity="33" />
      <note Length="0.0208333333333333" Pitch="41" RiffPosition="6.68749999999999" Velocity="94" />
      <note Length="0.0208333333333333" Pitch="41" RiffPosition="6.70833333333333" Velocity="127" />
      <note Length="0.0208333333333333" Pitch="41" RiffPosition="6.72916666666666" Velocity="0" />
      <note Length="0.0078125" Pitch="36" RiffPosition="6.74999999999999" Velocity="127" />
      <note Length="0.0234375" Pitch="34" RiffPosition="6.75781249999999" Velocity="127" />
      <note Length="0.015625" Pitch="41" RiffPosition="6.78124999999999" Velocity="94" />
      <note Length="0.015625" Pitch="44" RiffPosition="6.79687499999999" Velocity="33" />
      <note Length="0.03125" Pitch="41" RiffPosition="6.81249999999999" Velocity="94" />
      <note Length="0.03125" Pitch="44" RiffPosition="6.84374999999999" Velocity="61" />
      <note Length="0.0416666666666667" Pitch="43" RiffPosition="6.87499999999999" Velocity="61" />
      <note Length="0.0208333333333333" Pitch="36" RiffPosition="6.91666666666666" Velocity="33" />
      <note Length="0.0208333333333333" Pitch="41" RiffPosition="6.93749999999999" Velocity="94" />
      <note Length="0.0208333333333333" Pitch="41" RiffPosition="6.95833333333333" Velocity="127" />
      <note Length="0.0208333333333333" Pitch="41" RiffPosition="6.97916666666666" Velocity="0" />
      <note Length="0.0078125" Pitch="36" RiffPosition="6.99999999999999" Velocity="127" />
      <note Length="0.0234375" Pitch="27" RiffPosition="7.00781249999999" Velocity="127" />
      <note Length="0.015625" Pitch="34" RiffPosition="7.03124999999999" Velocity="94" />
      <note Length="0.015625" Pitch="37" RiffPosition="7.04687499999999" Velocity="33" />
      <note Length="0.03125" Pitch="34" RiffPosition="7.06249999999999" Velocity="94" />
      <note Length="0.03125" Pitch="37" RiffPosition="7.09374999999999" Velocity="61" />
      <note Length="0.0416666666666667" Pitch="36" RiffPosition="7.12499999999999" Velocity="61" />
      <note Length="0.0208333333333333" Pitch="29" RiffPosition="7.16666666666666" Velocity="33" />
      <note Length="0.0208333333333333" Pitch="34" RiffPosition="7.18749999999999" Velocity="94" />
      <note Length="0.0208333333333333" Pitch="34" RiffPosition="7.20833333333333" Velocity="127" />
      <note Length="0.0208333333333333" Pitch="34" RiffPosition="7.22916666666666" Velocity="0" />
      <note Length="0.0078125" Pitch="29" RiffPosition="7.24999999999999" Velocity="127" />
      <note Length="0.0234375" Pitch="27" RiffPosition="7.25781249999999" Velocity="127" />
      <note Length="0.015625" Pitch="34" RiffPosition="7.28124999999999" Velocity="94" />
      <note Length="0.015625" Pitch="37" RiffPosition="7.29687499999999" Velocity="33" />
      <note Length="0.03125" Pitch="34" RiffPosition="7.31249999999999" Velocity="94" />
      <note Length="0.03125" Pitch="37" RiffPosition="7.34374999999999" Velocity="61" />
      <note Length="0.0416666666666667" Pitch="36" RiffPosition="7.37499999999999" Velocity="61" />
      <note Length="0.0208333333333333" Pitch="29" RiffPosition="7.41666666666666" Velocity="33" />
      <note Length="0.0208333333333333" Pitch="34" RiffPosition="7.43749999999999" Velocity="94" />
      <note Length="0.0208333333333333" Pitch="34" RiffPosition="7.45833333333332" Velocity="127" />
      <note Length="0.0208333333333333" Pitch="34" RiffPosition="7.47916666666666" Velocity="0" />
      <note Length="0.0078125" Pitch="29" RiffPosition="7.49999999999999" Velocity="127" />
      <note Length="0.0234375" Pitch="27" RiffPosition="7.50781249999999" Velocity="127" />
      <note Length="0.015625" Pitch="34" RiffPosition="7.53124999999999" Velocity="94" />
      <note Length="0.015625" Pitch="37" RiffPosition="7.54687499999999" Velocity="33" />
      <note Length="0.03125" Pitch="34" RiffPosition="7.56249999999999" Velocity="94" />
      <note Length="0.03125" Pitch="37" RiffPosition="7.59374999999999" Velocity="61" />
      <note Length="0.0416666666666667" Pitch="36" RiffPosition="7.62499999999999" Velocity="61" />
      <note Length="0.0208333333333333" Pitch="29" RiffPosition="7.66666666666666" Velocity="33" />
      <note Length="0.0208333333333333" Pitch="34" RiffPosition="7.68749999999999" Velocity="94" />
      <note Length="0.0208333333333333" Pitch="34" RiffPosition="7.70833333333332" Velocity="127" />
      <note Length="0.0208333333333333" Pitch="34" RiffPosition="7.72916666666666" Velocity="0" />
      <note Length="0.0078125" Pitch="29" RiffPosition="7.74999999999999" Velocity="127" />
      <note Length="0.0234375" Pitch="27" RiffPosition="7.75781249999999" Velocity="127" />
      <note Length="0.015625" Pitch="34" RiffPosition="7.78124999999999" Velocity="94" />
      <note Length="0.015625" Pitch="37" RiffPosition="7.79687499999999" Velocity="33" />
      <note Length="0.03125" Pitch="34" RiffPosition="7.81249999999999" Velocity="94" />
      <note Length="0.03125" Pitch="37" RiffPosition="7.84374999999999" Velocity="61" />
      <note Length="0.0416666666666667" Pitch="36" RiffPosition="7.87499999999999" Velocity="61" />
      <note Length="0.0208333333333333" Pitch="29" RiffPosition="7.91666666666666" Velocity="33" />
      <note Length="0.0208333333333333" Pitch="34" RiffPosition="7.93749999999999" Velocity="94" />
      <note Length="0.0208333333333333" Pitch="34" RiffPosition="7.95833333333332" Velocity="127" />
      <note Length="0.0208333333333333" Pitch="34" RiffPosition="7.97916666666666" Velocity="0" />
      <note Length="0.0078125" Pitch="29" RiffPosition="7.99999999999999" Velocity="127" />
      <note Length="0.0234375" Pitch="34" RiffPosition="8.00781249999999" Velocity="127" />
      <note Length="0.015625" Pitch="41" RiffPosition="8.03124999999999" Velocity="94" />
      <note Length="0.015625" Pitch="44" RiffPosition="8.04687499999999" Velocity="33" />
      <note Length="0.03125" Pitch="41" RiffPosition="8.06249999999999" Velocity="94" />
      <note Length="0.03125" Pitch="44" RiffPosition="8.09374999999999" Velocity="61" />
      <note Length="0.0416666666666667" Pitch="43" RiffPosition="8.12499999999999" Velocity="61" />
      <note Length="0.0208333333333333" Pitch="36" RiffPosition="8.16666666666666" Velocity="33" />
      <note Length="0.0208333333333333" Pitch="41" RiffPosition="8.18749999999999" Velocity="94" />
      <note Length="0.0208333333333333" Pitch="41" RiffPosition="8.20833333333332" Velocity="127" />
      <note Length="0.0208333333333333" Pitch="41" RiffPosition="8.22916666666666" Velocity="0" />
      <note Length="0.0078125" Pitch="36" RiffPosition="8.24999999999999" Velocity="127" />
      <note Length="0.0234375" Pitch="34" RiffPosition="8.25781249999999" Velocity="127" />
      <note Length="0.015625" Pitch="41" RiffPosition="8.28124999999999" Velocity="94" />
      <note Length="0.015625" Pitch="44" RiffPosition="8.29687499999999" Velocity="33" />
      <note Length="0.03125" Pitch="41" RiffPosition="8.31249999999999" Velocity="94" />
      <note Length="0.03125" Pitch="44" RiffPosition="8.34374999999999" Velocity="61" />
      <note Length="0.0416666666666667" Pitch="43" RiffPosition="8.37499999999999" Velocity="61" />
      <note Length="0.0208333333333333" Pitch="36" RiffPosition="8.41666666666666" Velocity="33" />
      <note Length="0.0208333333333333" Pitch="41" RiffPosition="8.43749999999999" Velocity="94" />
      <note Length="0.0208333333333333" Pitch="41" RiffPosition="8.45833333333333" Velocity="127" />
      <note Length="0.0208333333333333" Pitch="41" RiffPosition="8.47916666666666" Velocity="0" />
      <note Length="0.0078125" Pitch="36" RiffPosition="8.49999999999999" Velocity="127" />
      <note Length="0.0234375" Pitch="34" RiffPosition="8.50781249999999" Velocity="127" />
      <note Length="0.015625" Pitch="41" RiffPosition="8.53124999999999" Velocity="94" />
      <note Length="0.015625" Pitch="44" RiffPosition="8.54687499999999" Velocity="33" />
      <note Length="0.03125" Pitch="41" RiffPosition="8.56249999999999" Velocity="94" />
      <note Length="0.03125" Pitch="44" RiffPosition="8.59374999999999" Velocity="61" />
      <note Length="0.0416666666666667" Pitch="43" RiffPosition="8.62499999999999" Velocity="61" />
      <note Length="0.0208333333333333" Pitch="36" RiffPosition="8.66666666666666" Velocity="33" />
      <note Length="0.0208333333333333" Pitch="41" RiffPosition="8.68749999999999" Velocity="94" />
      <note Length="0.0208333333333333" Pitch="41" RiffPosition="8.70833333333333" Velocity="127" />
      <note Length="0.0208333333333333" Pitch="41" RiffPosition="8.72916666666666" Velocity="0" />
      <note Length="0.0078125" Pitch="36" RiffPosition="8.74999999999999" Velocity="127" />
      <note Length="0.0234375" Pitch="34" RiffPosition="8.75781249999999" Velocity="127" />
      <note Length="0.015625" Pitch="41" RiffPosition="8.78124999999999" Velocity="94" />
      <note Length="0.015625" Pitch="44" RiffPosition="8.79687499999999" Velocity="33" />
      <note Length="0.03125" Pitch="41" RiffPosition="8.81249999999999" Velocity="94" />
      <note Length="0.03125" Pitch="44" RiffPosition="8.84374999999999" Velocity="61" />
      <note Length="0.0416666666666667" Pitch="43" RiffPosition="8.87499999999999" Velocity="61" />
      <note Length="0.0208333333333333" Pitch="36" RiffPosition="8.91666666666666" Velocity="33" />
      <note Length="0.0208333333333333" Pitch="41" RiffPosition="8.93749999999999" Velocity="94" />
      <note Length="0.0208333333333333" Pitch="41" RiffPosition="8.95833333333333" Velocity="127" />
      <note Length="0.0208333333333333" Pitch="41" RiffPosition="8.97916666666666" Velocity="0" />
      <note Length="0.0078125" Pitch="36" RiffPosition="9" Velocity="127" />
      <note Length="0.0234375" Pitch="27" RiffPosition="9.0078125" Velocity="127" />
      <note Length="0.015625" Pitch="34" RiffPosition="9.03125" Velocity="94" />
      <note Length="0.015625" Pitch="37" RiffPosition="9.046875" Velocity="33" />
      <note Length="0.03125" Pitch="34" RiffPosition="9.0625" Velocity="94" />
      <note Length="0.03125" Pitch="37" RiffPosition="9.09375" Velocity="61" />
      <note Length="0.0416666666666667" Pitch="36" RiffPosition="9.125" Velocity="61" />
      <note Length="0.0208333333333333" Pitch="29" RiffPosition="9.16666666666666" Velocity="33" />
      <note Length="0.0208333333333333" Pitch="34" RiffPosition="9.1875" Velocity="94" />
      <note Length="0.0208333333333333" Pitch="34" RiffPosition="9.20833333333333" Velocity="127" />
      <note Length="0.0208333333333333" Pitch="34" RiffPosition="9.22916666666666" Velocity="0" />
      <note Length="0.0078125" Pitch="29" RiffPosition="9.25" Velocity="127" />
      <note Length="0.0234375" Pitch="27" RiffPosition="9.2578125" Velocity="127" />
      <note Length="0.015625" Pitch="34" RiffPosition="9.28125" Velocity="94" />
      <note Length="0.015625" Pitch="37" RiffPosition="9.296875" Velocity="33" />
      <note Length="0.03125" Pitch="34" RiffPosition="9.3125" Velocity="94" />
      <note Length="0.03125" Pitch="37" RiffPosition="9.34375" Velocity="61" />
      <note Length="0.0416666666666667" Pitch="36" RiffPosition="9.375" Velocity="61" />
      <note Length="0.0208333333333333" Pitch="29" RiffPosition="9.41666666666666" Velocity="33" />
      <note Length="0.0208333333333333" Pitch="34" RiffPosition="9.4375" Velocity="94" />
      <note Length="0.0208333333333333" Pitch="34" RiffPosition="9.45833333333333" Velocity="127" />
      <note Length="0.0208333333333333" Pitch="34" RiffPosition="9.47916666666667" Velocity="0" />
      <note Length="0.0078125" Pitch="29" RiffPosition="9.5" Velocity="127" />
      <note Length="0.0234375" Pitch="27" RiffPosition="9.5078125" Velocity="127" />
      <note Length="0.015625" Pitch="34" RiffPosition="9.53125" Velocity="94" />
      <note Length="0.015625" Pitch="37" RiffPosition="9.546875" Velocity="33" />
      <note Length="0.03125" Pitch="34" RiffPosition="9.5625" Velocity="94" />
      <note Length="0.03125" Pitch="37" RiffPosition="9.59375" Velocity="61" />
      <note Length="0.0416666666666667" Pitch="36" RiffPosition="9.625" Velocity="61" />
      <note Length="0.0208333333333333" Pitch="29" RiffPosition="9.66666666666667" Velocity="33" />
      <note Length="0.0208333333333333" Pitch="34" RiffPosition="9.6875" Velocity="94" />
      <note Length="0.0208333333333333" Pitch="34" RiffPosition="9.70833333333333" Velocity="127" />
      <note Length="0.0208333333333333" Pitch="34" RiffPosition="9.72916666666667" Velocity="0" />
      <note Length="0.0078125" Pitch="29" RiffPosition="9.75" Velocity="127" />
      <note Length="0.0234375" Pitch="27" RiffPosition="9.7578125" Velocity="127" />
      <note Length="0.015625" Pitch="34" RiffPosition="9.78125" Velocity="94" />
      <note Length="0.015625" Pitch="37" RiffPosition="9.796875" Velocity="33" />
      <note Length="0.03125" Pitch="34" RiffPosition="9.8125" Velocity="94" />
      <note Length="0.03125" Pitch="37" RiffPosition="9.84375" Velocity="61" />
      <note Length="0.0416666666666667" Pitch="36" RiffPosition="9.875" Velocity="61" />
      <note Length="0.0208333333333333" Pitch="29" RiffPosition="9.91666666666667" Velocity="33" />
      <note Length="0.0208333333333333" Pitch="34" RiffPosition="9.9375" Velocity="94" />
      <note Length="0.0208333333333333" Pitch="34" RiffPosition="9.95833333333334" Velocity="127" />
      <note Length="0.0208333333333333" Pitch="34" RiffPosition="9.97916666666667" Velocity="0" />
      <note Length="0.0078125" Pitch="38" RiffPosition="10" Velocity="127" />
      <note Length="0.0234375" Pitch="36" RiffPosition="10.0078125" Velocity="127" />
      <note Length="0.015625" Pitch="43" RiffPosition="10.03125" Velocity="94" />
      <note Length="0.015625" Pitch="46" RiffPosition="10.046875" Velocity="33" />
      <note Length="0.03125" Pitch="43" RiffPosition="10.0625" Velocity="94" />
      <note Length="0.03125" Pitch="46" RiffPosition="10.09375" Velocity="61" />
      <note Length="0.0416666666666667" Pitch="45" RiffPosition="10.125" Velocity="61" />
      <note Length="0.0208333333333333" Pitch="38" RiffPosition="10.1666666666667" Velocity="33" />
      <note Length="0.0208333333333333" Pitch="43" RiffPosition="10.1875" Velocity="94" />
      <note Length="0.0208333333333333" Pitch="43" RiffPosition="10.2083333333333" Velocity="127" />
      <note Length="0.0208333333333333" Pitch="43" RiffPosition="10.2291666666667" Velocity="0" />
      <note Length="0.0078125" Pitch="38" RiffPosition="10.25" Velocity="127" />
      <note Length="0.0234375" Pitch="36" RiffPosition="10.2578125" Velocity="127" />
      <note Length="0.015625" Pitch="43" RiffPosition="10.28125" Velocity="94" />
      <note Length="0.015625" Pitch="46" RiffPosition="10.296875" Velocity="33" />
      <note Length="0.03125" Pitch="43" RiffPosition="10.3125" Velocity="94" />
      <note Length="0.03125" Pitch="46" RiffPosition="10.34375" Velocity="61" />
      <note Length="0.0416666666666667" Pitch="45" RiffPosition="10.375" Velocity="61" />
      <note Length="0.0208333333333333" Pitch="38" RiffPosition="10.4166666666667" Velocity="33" />
      <note Length="0.0208333333333333" Pitch="43" RiffPosition="10.4375" Velocity="94" />
      <note Length="0.0208333333333333" Pitch="43" RiffPosition="10.4583333333333" Velocity="127" />
      <note Length="0.0208333333333333" Pitch="43" RiffPosition="10.4791666666667" Velocity="0" />
      <note Length="0.0078125" Pitch="38" RiffPosition="10.5" Velocity="127" />
      <note Length="0.0234375" Pitch="36" RiffPosition="10.5078125" Velocity="127" />
      <note Length="0.015625" Pitch="43" RiffPosition="10.53125" Velocity="94" />
      <note Length="0.015625" Pitch="46" RiffPosition="10.546875" Velocity="33" />
      <note Length="0.03125" Pitch="43" RiffPosition="10.5625" Velocity="94" />
      <note Length="0.03125" Pitch="46" RiffPosition="10.59375" Velocity="61" />
      <note Length="0.0416666666666667" Pitch="45" RiffPosition="10.625" Velocity="61" />
      <note Length="0.0208333333333333" Pitch="38" RiffPosition="10.6666666666667" Velocity="33" />
      <note Length="0.0208333333333333" Pitch="43" RiffPosition="10.6875" Velocity="94" />
      <note Length="0.0208333333333333" Pitch="43" RiffPosition="10.7083333333333" Velocity="127" />
      <note Length="0.0208333333333333" Pitch="43" RiffPosition="10.7291666666667" Velocity="0" />
      <note Length="0.0078125" Pitch="38" RiffPosition="10.75" Velocity="127" />
      <note Length="0.0234375" Pitch="36" RiffPosition="10.7578125" Velocity="127" />
      <note Length="0.015625" Pitch="43" RiffPosition="10.78125" Velocity="94" />
      <note Length="0.015625" Pitch="46" RiffPosition="10.796875" Velocity="33" />
      <note Length="0.03125" Pitch="43" RiffPosition="10.8125" Velocity="94" />
      <note Length="0.03125" Pitch="46" RiffPosition="10.84375" Velocity="61" />
      <note Length="0.0416666666666667" Pitch="45" RiffPosition="10.875" Velocity="61" />
      <note Length="0.0208333333333333" Pitch="38" RiffPosition="10.9166666666667" Velocity="33" />
      <note Length="0.0208333333333333" Pitch="43" RiffPosition="10.9375" Velocity="94" />
      <note Length="0.0208333333333333" Pitch="43" RiffPosition="10.9583333333333" Velocity="127" />
      <note Length="0.0208333333333333" Pitch="43" RiffPosition="10.9791666666667" Velocity="0" />
      <note Length="0.0078125" Pitch="29" RiffPosition="11" Velocity="127" />
      <note Length="0.0234375" Pitch="27" RiffPosition="11.0078125" Velocity="127" />
      <note Length="0.015625" Pitch="34" RiffPosition="11.03125" Velocity="94" />
      <note Length="0.015625" Pitch="37" RiffPosition="11.046875" Velocity="33" />
      <note Length="0.03125" Pitch="34" RiffPosition="11.0625" Velocity="94" />
      <note Length="0.03125" Pitch="37" RiffPosition="11.09375" Velocity="61" />
      <note Length="0.0416666666666667" Pitch="36" RiffPosition="11.125" Velocity="61" />
      <note Length="0.0208333333333333" Pitch="29" RiffPosition="11.1666666666667" Velocity="33" />
      <note Length="0.0208333333333333" Pitch="34" RiffPosition="11.1875" Velocity="94" />
      <note Length="0.0208333333333333" Pitch="34" RiffPosition="11.2083333333333" Velocity="127" />
      <note Length="0.0208333333333333" Pitch="34" RiffPosition="11.2291666666667" Velocity="0" />
      <note Length="0.0078125" Pitch="29" RiffPosition="11.25" Velocity="127" />
      <note Length="0.0234375" Pitch="27" RiffPosition="11.2578125" Velocity="127" />
      <note Length="0.015625" Pitch="34" RiffPosition="11.28125" Velocity="94" />
      <note Length="0.015625" Pitch="37" RiffPosition="11.296875" Velocity="33" />
      <note Length="0.03125" Pitch="34" RiffPosition="11.3125" Velocity="94" />
      <note Length="0.03125" Pitch="37" RiffPosition="11.34375" Velocity="61" />
      <note Length="0.0416666666666667" Pitch="36" RiffPosition="11.375" Velocity="61" />
      <note Length="0.0208333333333333" Pitch="29" RiffPosition="11.4166666666667" Velocity="33" />
      <note Length="0.0208333333333333" Pitch="34" RiffPosition="11.4375" Velocity="94" />
      <note Length="0.0208333333333333" Pitch="34" RiffPosition="11.4583333333333" Velocity="127" />
      <note Length="0.0208333333333333" Pitch="34" RiffPosition="11.4791666666667" Velocity="0" />
      <note Length="0.0078125" Pitch="29" RiffPosition="11.5" Velocity="127" />
      <note Length="0.0234375" Pitch="27" RiffPosition="11.5078125" Velocity="127" />
      <note Length="0.015625" Pitch="34" RiffPosition="11.53125" Velocity="94" />
      <note Length="0.015625" Pitch="37" RiffPosition="11.546875" Velocity="33" />
      <note Length="0.03125" Pitch="34" RiffPosition="11.5625" Velocity="94" />
      <note Length="0.03125" Pitch="37" RiffPosition="11.59375" Velocity="61" />
      <note Length="0.0416666666666667" Pitch="36" RiffPosition="11.625" Velocity="61" />
      <note Length="0.0208333333333333" Pitch="29" RiffPosition="11.6666666666667" Velocity="33" />
      <note Length="0.0208333333333333" Pitch="34" RiffPosition="11.6875" Velocity="94" />
      <note Length="0.0208333333333333" Pitch="34" RiffPosition="11.7083333333333" Velocity="127" />
      <note Length="0.0208333333333333" Pitch="34" RiffPosition="11.7291666666667" Velocity="0" />
      <note Length="0.0078125" Pitch="29" RiffPosition="11.75" Velocity="127" />
      <note Length="0.0234375" Pitch="27" RiffPosition="11.7578125" Velocity="127" />
      <note Length="0.015625" Pitch="34" RiffPosition="11.78125" Velocity="94" />
      <note Length="0.015625" Pitch="37" RiffPosition="11.796875" Velocity="33" />
      <note Length="0.03125" Pitch="34" RiffPosition="11.8125" Velocity="94" />
      <note Length="0.03125" Pitch="37" RiffPosition="11.84375" Velocity="61" />
      <note Length="0.0416666666666667" Pitch="36" RiffPosition="11.875" Velocity="61" />
      <note Length="0.0208333333333333" Pitch="29" RiffPosition="11.9166666666667" Velocity="33" />
      <note Length="0.0208333333333333" Pitch="34" RiffPosition="11.9375" Velocity="94" />
      <note Length="0.0208333333333333" Pitch="34" RiffPosition="11.9583333333333" Velocity="127" />
      <note Length="0.0208333333333333" Pitch="34" RiffPosition="11.9791666666667" Velocity="0" />
      <note Length="0.0078125" Pitch="38" RiffPosition="12" Velocity="127" />
      <note Length="0.0234375" Pitch="36" RiffPosition="12.0078125" Velocity="127" />
      <note Length="0.015625" Pitch="43" RiffPosition="12.03125" Velocity="94" />
      <note Length="0.015625" Pitch="46" RiffPosition="12.046875" Velocity="33" />
      <note Length="0.03125" Pitch="43" RiffPosition="12.0625" Velocity="94" />
      <note Length="0.03125" Pitch="46" RiffPosition="12.09375" Velocity="61" />
      <note Length="0.0416666666666667" Pitch="45" RiffPosition="12.125" Velocity="61" />
      <note Length="0.0208333333333333" Pitch="38" RiffPosition="12.1666666666667" Velocity="33" />
      <note Length="0.0208333333333333" Pitch="43" RiffPosition="12.1875" Velocity="94" />
      <note Length="0.0208333333333333" Pitch="43" RiffPosition="12.2083333333334" Velocity="127" />
      <note Length="0.0208333333333333" Pitch="43" RiffPosition="12.2291666666667" Velocity="0" />
      <note Length="0.0078125" Pitch="38" RiffPosition="12.25" Velocity="127" />
      <note Length="0.0234375" Pitch="36" RiffPosition="12.2578125" Velocity="127" />
      <note Length="0.015625" Pitch="43" RiffPosition="12.28125" Velocity="94" />
      <note Length="0.015625" Pitch="46" RiffPosition="12.296875" Velocity="33" />
      <note Length="0.03125" Pitch="43" RiffPosition="12.3125" Velocity="94" />
      <note Length="0.03125" Pitch="46" RiffPosition="12.34375" Velocity="61" />
      <note Length="0.0416666666666667" Pitch="45" RiffPosition="12.375" Velocity="61" />
      <note Length="0.0208333333333333" Pitch="38" RiffPosition="12.4166666666667" Velocity="33" />
      <note Length="0.0208333333333333" Pitch="43" RiffPosition="12.4375" Velocity="94" />
      <note Length="0.0208333333333333" Pitch="43" RiffPosition="12.4583333333334" Velocity="127" />
      <note Length="0.0208333333333333" Pitch="43" RiffPosition="12.4791666666667" Velocity="0" />
      <note Length="0.0078125" Pitch="38" RiffPosition="12.5" Velocity="127" />
      <note Length="0.0234375" Pitch="36" RiffPosition="12.5078125" Velocity="127" />
      <note Length="0.015625" Pitch="43" RiffPosition="12.53125" Velocity="94" />
      <note Length="0.015625" Pitch="46" RiffPosition="12.546875" Velocity="33" />
      <note Length="0.03125" Pitch="43" RiffPosition="12.5625" Velocity="94" />
      <note Length="0.03125" Pitch="46" RiffPosition="12.59375" Velocity="61" />
      <note Length="0.0416666666666667" Pitch="45" RiffPosition="12.625" Velocity="61" />
      <note Length="0.0208333333333333" Pitch="38" RiffPosition="12.6666666666667" Velocity="33" />
      <note Length="0.0208333333333333" Pitch="43" RiffPosition="12.6875" Velocity="94" />
      <note Length="0.0208333333333333" Pitch="43" RiffPosition="12.7083333333334" Velocity="127" />
      <note Length="0.0208333333333333" Pitch="43" RiffPosition="12.7291666666667" Velocity="0" />
      <note Length="0.0078125" Pitch="38" RiffPosition="12.75" Velocity="127" />
      <note Length="0.0234375" Pitch="36" RiffPosition="12.7578125" Velocity="127" />
      <note Length="0.015625" Pitch="43" RiffPosition="12.78125" Velocity="94" />
      <note Length="0.015625" Pitch="46" RiffPosition="12.796875" Velocity="33" />
      <note Length="0.03125" Pitch="43" RiffPosition="12.8125" Velocity="94" />
      <note Length="0.03125" Pitch="46" RiffPosition="12.84375" Velocity="61" />
      <note Length="0.0416666666666667" Pitch="45" RiffPosition="12.875" Velocity="61" />
      <note Length="0.0208333333333333" Pitch="38" RiffPosition="12.9166666666667" Velocity="33" />
      <note Length="0.0208333333333333" Pitch="43" RiffPosition="12.9375" Velocity="94" />
      <note Length="0.0208333333333333" Pitch="43" RiffPosition="12.9583333333334" Velocity="127" />
      <note Length="0.0208333333333333" Pitch="43" RiffPosition="12.9791666666667" Velocity="0" />
      <note Length="0.0078125" Pitch="40" RiffPosition="13" Velocity="127" />
      <note Length="0.0234375" Pitch="38" RiffPosition="13.0078125" Velocity="127" />
      <note Length="0.015625" Pitch="45" RiffPosition="13.03125" Velocity="94" />
      <note Length="0.015625" Pitch="48" RiffPosition="13.046875" Velocity="33" />
      <note Length="0.03125" Pitch="45" RiffPosition="13.0625" Velocity="94" />
      <note Length="0.03125" Pitch="48" RiffPosition="13.09375" Velocity="61" />
      <note Length="0.0416666666666667" Pitch="47" RiffPosition="13.125" Velocity="61" />
      <note Length="0.0208333333333333" Pitch="40" RiffPosition="13.1666666666667" Velocity="33" />
      <note Length="0.0208333333333333" Pitch="45" RiffPosition="13.1875" Velocity="94" />
      <note Length="0.0208333333333333" Pitch="45" RiffPosition="13.2083333333334" Velocity="127" />
      <note Length="0.0208333333333333" Pitch="45" RiffPosition="13.2291666666667" Velocity="0" />
      <note Length="0.0078125" Pitch="40" RiffPosition="13.25" Velocity="127" />
      <note Length="0.0234375" Pitch="38" RiffPosition="13.2578125" Velocity="127" />
      <note Length="0.015625" Pitch="45" RiffPosition="13.28125" Velocity="94" />
      <note Length="0.015625" Pitch="48" RiffPosition="13.296875" Velocity="33" />
      <note Length="0.03125" Pitch="45" RiffPosition="13.3125" Velocity="94" />
      <note Length="0.03125" Pitch="48" RiffPosition="13.34375" Velocity="61" />
      <note Length="0.0416666666666667" Pitch="47" RiffPosition="13.375" Velocity="61" />
      <note Length="0.0208333333333333" Pitch="40" RiffPosition="13.4166666666667" Velocity="33" />
      <note Length="0.0208333333333333" Pitch="45" RiffPosition="13.4375" Velocity="94" />
      <note Length="0.0208333333333333" Pitch="45" RiffPosition="13.4583333333334" Velocity="127" />
      <note Length="0.0208333333333333" Pitch="45" RiffPosition="13.4791666666667" Velocity="0" />
      <note Length="0.0078125" Pitch="40" RiffPosition="13.5" Velocity="127" />
      <note Length="0.0234375" Pitch="38" RiffPosition="13.5078125" Velocity="127" />
      <note Length="0.015625" Pitch="45" RiffPosition="13.53125" Velocity="94" />
      <note Length="0.015625" Pitch="48" RiffPosition="13.546875" Velocity="33" />
      <note Length="0.03125" Pitch="45" RiffPosition="13.5625" Velocity="94" />
      <note Length="0.03125" Pitch="48" RiffPosition="13.59375" Velocity="61" />
      <note Length="0.0416666666666667" Pitch="47" RiffPosition="13.625" Velocity="61" />
      <note Length="0.0208333333333333" Pitch="40" RiffPosition="13.6666666666667" Velocity="33" />
      <note Length="0.0208333333333333" Pitch="45" RiffPosition="13.6875" Velocity="94" />
      <note Length="0.0208333333333333" Pitch="45" RiffPosition="13.7083333333334" Velocity="127" />
      <note Length="0.0208333333333333" Pitch="45" RiffPosition="13.7291666666667" Velocity="0" />
      <note Length="0.0078125" Pitch="40" RiffPosition="13.75" Velocity="127" />
      <note Length="0.0234375" Pitch="38" RiffPosition="13.7578125" Velocity="127" />
      <note Length="0.015625" Pitch="45" RiffPosition="13.78125" Velocity="94" />
      <note Length="0.015625" Pitch="48" RiffPosition="13.796875" Velocity="33" />
      <note Length="0.03125" Pitch="45" RiffPosition="13.8125" Velocity="94" />
      <note Length="0.03125" Pitch="48" RiffPosition="13.84375" Velocity="61" />
      <note Length="0.0416666666666667" Pitch="47" RiffPosition="13.875" Velocity="61" />
      <note Length="0.0208333333333333" Pitch="40" RiffPosition="13.9166666666667" Velocity="33" />
      <note Length="0.0208333333333333" Pitch="45" RiffPosition="13.9375" Velocity="94" />
      <note Length="0.0208333333333333" Pitch="45" RiffPosition="13.9583333333334" Velocity="127" />
      <note Length="0.020833333333302" Pitch="45" RiffPosition="13.9791666666667" Velocity="0" />
    </riff>
    <riff IsDrum="True" MidiInstrument="0" Tempo="123" Length="14">
      <note Length="0.0625" Pitch="39" RiffPosition="0" Velocity="0" />
      <note Length="0.0625" Pitch="39" RiffPosition="0.0625" Velocity="105" />
      <note Length="0.0625" Pitch="39" RiffPosition="0.125" Velocity="0" />
      <note Length="0.0625" Pitch="39" RiffPosition="0.1875" Velocity="105" />
      <note Length="0.0625" Pitch="39" RiffPosition="0.25" Velocity="0" />
      <note Length="0.0625" Pitch="39" RiffPosition="0.3125" Velocity="105" />
      <note Length="0.0625" Pitch="39" RiffPosition="0.375" Velocity="0" />
      <note Length="0.0625" Pitch="39" RiffPosition="0.4375" Velocity="105" />
      <note Length="0.0625" Pitch="39" RiffPosition="0.5" Velocity="0" />
      <note Length="0.0625" Pitch="39" RiffPosition="0.5625" Velocity="105" />
      <note Length="0.0625" Pitch="39" RiffPosition="0.625" Velocity="0" />
      <note Length="0.0625" Pitch="39" RiffPosition="0.6875" Velocity="105" />
      <note Length="0.0625" Pitch="39" RiffPosition="0.75" Velocity="0" />
      <note Length="0.0625" Pitch="39" RiffPosition="0.8125" Velocity="105" />
      <note Length="0.0625" Pitch="39" RiffPosition="0.875" Velocity="0" />
      <note Length="0.0625" Pitch="39" RiffPosition="0.9375" Velocity="105" />
      <note Length="0.0625" Pitch="39" RiffPosition="1" Velocity="0" />
      <note Length="0.0625" Pitch="39" RiffPosition="1.0625" Velocity="105" />
      <note Length="0.0625" Pitch="39" RiffPosition="1.125" Velocity="0" />
      <note Length="0.0625" Pitch="39" RiffPosition="1.1875" Velocity="105" />
      <note Length="0.0625" Pitch="39" RiffPosition="1.25" Velocity="0" />
      <note Length="0.0625" Pitch="39" RiffPosition="1.3125" Velocity="105" />
      <note Length="0.0625" Pitch="39" RiffPosition="1.375" Velocity="0" />
      <note Length="0.0625" Pitch="39" RiffPosition="1.4375" Velocity="105" />
      <note Length="0.0625" Pitch="39" RiffPosition="1.5" Velocity="0" />
      <note Length="0.0625" Pitch="39" RiffPosition="1.5625" Velocity="105" />
      <note Length="0.0625" Pitch="39" RiffPosition="1.625" Velocity="0" />
      <note Length="0.0625" Pitch="39" RiffPosition="1.6875" Velocity="105" />
      <note Length="0.0625" Pitch="39" RiffPosition="1.75" Velocity="0" />
      <note Length="0.0625" Pitch="39" RiffPosition="1.8125" Velocity="105" />
      <note Length="0.0625" Pitch="39" RiffPosition="1.875" Velocity="0" />
      <note Length="0.0625" Pitch="39" RiffPosition="1.9375" Velocity="105" />
      <note Length="0.0625" Pitch="39" RiffPosition="2" Velocity="0" />
      <note Length="0.0625" Pitch="39" RiffPosition="2.0625" Velocity="105" />
      <note Length="0.0625" Pitch="39" RiffPosition="2.125" Velocity="0" />
      <note Length="0.0625" Pitch="39" RiffPosition="2.1875" Velocity="105" />
      <note Length="0.0625" Pitch="39" RiffPosition="2.25" Velocity="0" />
      <note Length="0.0625" Pitch="39" RiffPosition="2.3125" Velocity="105" />
      <note Length="0.0625" Pitch="39" RiffPosition="2.375" Velocity="0" />
      <note Length="0.0625" Pitch="39" RiffPosition="2.4375" Velocity="105" />
      <note Length="0.0625" Pitch="39" RiffPosition="2.5" Velocity="0" />
      <note Length="0.0625" Pitch="39" RiffPosition="2.5625" Velocity="105" />
      <note Length="0.0625" Pitch="39" RiffPosition="2.625" Velocity="0" />
      <note Length="0.0625" Pitch="39" RiffPosition="2.6875" Velocity="105" />
      <note Length="0.0625" Pitch="39" RiffPosition="2.75" Velocity="0" />
      <note Length="0.0625" Pitch="39" RiffPosition="2.8125" Velocity="105" />
      <note Length="0.0625" Pitch="39" RiffPosition="2.875" Velocity="0" />
      <note Length="0.0625" Pitch="39" RiffPosition="2.9375" Velocity="105" />
      <note Length="0.0625" Pitch="39" RiffPosition="3" Velocity="0" />
      <note Length="0.0625" Pitch="39" RiffPosition="3.0625" Velocity="105" />
      <note Length="0.0625" Pitch="39" RiffPosition="3.125" Velocity="0" />
      <note Length="0.0625" Pitch="39" RiffPosition="3.1875" Velocity="105" />
      <note Length="0.0625" Pitch="39" RiffPosition="3.25" Velocity="0" />
      <note Length="0.0625" Pitch="39" RiffPosition="3.3125" Velocity="105" />
      <note Length="0.0625" Pitch="39" RiffPosition="3.375" Velocity="0" />
      <note Length="0.0625" Pitch="39" RiffPosition="3.4375" Velocity="105" />
      <note Length="0.0625" Pitch="39" RiffPosition="3.5" Velocity="0" />
      <note Length="0.0625" Pitch="39" RiffPosition="3.5625" Velocity="105" />
      <note Length="0.0625" Pitch="39" RiffPosition="3.625" Velocity="0" />
      <note Length="0.0625" Pitch="39" RiffPosition="3.6875" Velocity="105" />
      <note Length="0.0625" Pitch="39" RiffPosition="3.75" Velocity="0" />
      <note Length="0.0625" Pitch="39" RiffPosition="3.8125" Velocity="105" />
      <note Length="0.0625" Pitch="39" RiffPosition="3.875" Velocity="0" />
      <note Length="0.0625" Pitch="39" RiffPosition="3.9375" Velocity="105" />
      <note Length="0.0625" Pitch="39" RiffPosition="4" Velocity="0" />
      <note Length="0.0625" Pitch="39" RiffPosition="4.0625" Velocity="0" />
      <note Length="0.0625" Pitch="39" RiffPosition="4.125" Velocity="0" />
      <note Length="0.0625" Pitch="39" RiffPosition="4.1875" Velocity="0" />
      <note Length="0.0625" Pitch="39" RiffPosition="4.25" Velocity="0" />
      <note Length="0.0625" Pitch="39" RiffPosition="4.3125" Velocity="0" />
      <note Length="0.0625" Pitch="39" RiffPosition="4.375" Velocity="0" />
      <note Length="0.0625" Pitch="39" RiffPosition="4.4375" Velocity="0" />
      <note Length="0.0625" Pitch="39" RiffPosition="4.5" Velocity="0" />
      <note Length="0.0625" Pitch="39" RiffPosition="4.5625" Velocity="0" />
      <note Length="0.0625" Pitch="39" RiffPosition="4.625" Velocity="0" />
      <note Length="0.0625" Pitch="39" RiffPosition="4.6875" Velocity="0" />
      <note Length="0.0625" Pitch="39" RiffPosition="4.75" Velocity="0" />
      <note Length="0.0625" Pitch="39" RiffPosition="4.8125" Velocity="0" />
      <note Length="0.0625" Pitch="39" RiffPosition="4.875" Velocity="0" />
      <note Length="0.0625" Pitch="39" RiffPosition="4.9375" Velocity="0" />
      <note Length="0.0625" Pitch="39" RiffPosition="5" Velocity="0" />
      <note Length="0.0625" Pitch="39" RiffPosition="5.0625" Velocity="0" />
      <note Length="0.0625" Pitch="39" RiffPosition="5.125" Velocity="0" />
      <note Length="0.0625" Pitch="39" RiffPosition="5.1875" Velocity="0" />
      <note Length="0.0625" Pitch="39" RiffPosition="5.25" Velocity="0" />
      <note Length="0.0625" Pitch="39" RiffPosition="5.3125" Velocity="0" />
      <note Length="0.0625" Pitch="39" RiffPosition="5.375" Velocity="0" />
      <note Length="0.0625" Pitch="39" RiffPosition="5.4375" Velocity="0" />
      <note Length="0.0625" Pitch="39" RiffPosition="5.5" Velocity="0" />
      <note Length="0.0625" Pitch="39" RiffPosition="5.5625" Velocity="0" />
      <note Length="0.0625" Pitch="39" RiffPosition="5.625" Velocity="0" />
      <note Length="0.0625" Pitch="39" RiffPosition="5.6875" Velocity="0" />
      <note Length="0.0625" Pitch="39" RiffPosition="5.75" Velocity="0" />
      <note Length="0.0625" Pitch="39" RiffPosition="5.8125" Velocity="0" />
      <note Length="0.0625" Pitch="39" RiffPosition="5.875" Velocity="0" />
      <note Length="0.0625" Pitch="39" RiffPosition="5.9375" Velocity="0" />
      <note Length="0.0625" Pitch="39" RiffPosition="6" Velocity="0" />
      <note Length="0.0625" Pitch="39" RiffPosition="6.0625" Velocity="0" />
      <note Length="0.0625" Pitch="39" RiffPosition="6.125" Velocity="0" />
      <note Length="0.0625" Pitch="39" RiffPosition="6.1875" Velocity="0" />
      <note Length="0.0625" Pitch="39" RiffPosition="6.25" Velocity="0" />
      <note Length="0.0625" Pitch="39" RiffPosition="6.3125" Velocity="0" />
      <note Length="0.0625" Pitch="39" RiffPosition="6.375" Velocity="0" />
      <note Length="0.0625" Pitch="39" RiffPosition="6.4375" Velocity="0" />
      <note Length="0.0625" Pitch="39" RiffPosition="6.5" Velocity="0" />
      <note Length="0.0625" Pitch="39" RiffPosition="6.5625" Velocity="0" />
      <note Length="0.0625" Pitch="39" RiffPosition="6.625" Velocity="0" />
      <note Length="0.0625" Pitch="39" RiffPosition="6.6875" Velocity="0" />
      <note Length="0.0625" Pitch="39" RiffPosition="6.75" Velocity="0" />
      <note Length="0.0625" Pitch="39" RiffPosition="6.8125" Velocity="0" />
      <note Length="0.0625" Pitch="39" RiffPosition="6.875" Velocity="0" />
      <note Length="0.0625" Pitch="39" RiffPosition="6.9375" Velocity="0" />
      <note Length="0.0625" Pitch="39" RiffPosition="7" Velocity="0" />
      <note Length="0.0625" Pitch="39" RiffPosition="7.0625" Velocity="0" />
      <note Length="0.0625" Pitch="39" RiffPosition="7.125" Velocity="0" />
      <note Length="0.0625" Pitch="39" RiffPosition="7.1875" Velocity="0" />
      <note Length="0.0625" Pitch="39" RiffPosition="7.25" Velocity="0" />
      <note Length="0.0625" Pitch="39" RiffPosition="7.3125" Velocity="0" />
      <note Length="0.0625" Pitch="39" RiffPosition="7.375" Velocity="0" />
      <note Length="0.0625" Pitch="39" RiffPosition="7.4375" Velocity="0" />
      <note Length="0.0625" Pitch="39" RiffPosition="7.5" Velocity="0" />
      <note Length="0.0625" Pitch="39" RiffPosition="7.5625" Velocity="0" />
      <note Length="0.0625" Pitch="39" RiffPosition="7.625" Velocity="0" />
      <note Length="0.0625" Pitch="39" RiffPosition="7.6875" Velocity="0" />
      <note Length="0.0625" Pitch="39" RiffPosition="7.75" Velocity="0" />
      <note Length="0.0625" Pitch="39" RiffPosition="7.8125" Velocity="0" />
      <note Length="0.0625" Pitch="39" RiffPosition="7.875" Velocity="0" />
      <note Length="0.0625" Pitch="39" RiffPosition="7.9375" Velocity="0" />
      <note Length="0.0625" Pitch="39" RiffPosition="8" Velocity="0" />
      <note Length="0.0625" Pitch="39" RiffPosition="8.0625" Velocity="0" />
      <note Length="0.0625" Pitch="39" RiffPosition="8.125" Velocity="0" />
      <note Length="0.0625" Pitch="39" RiffPosition="8.1875" Velocity="0" />
      <note Length="0.0625" Pitch="39" RiffPosition="8.25" Velocity="0" />
      <note Length="0.0625" Pitch="39" RiffPosition="8.3125" Velocity="0" />
      <note Length="0.0625" Pitch="39" RiffPosition="8.375" Velocity="0" />
      <note Length="0.0625" Pitch="39" RiffPosition="8.4375" Velocity="0" />
      <note Length="0.0625" Pitch="39" RiffPosition="8.5" Velocity="0" />
      <note Length="0.0625" Pitch="39" RiffPosition="8.5625" Velocity="0" />
      <note Length="0.0625" Pitch="39" RiffPosition="8.625" Velocity="0" />
      <note Length="0.0625" Pitch="39" RiffPosition="8.6875" Velocity="0" />
      <note Length="0.0625" Pitch="39" RiffPosition="8.75" Velocity="0" />
      <note Length="0.0625" Pitch="39" RiffPosition="8.8125" Velocity="0" />
      <note Length="0.0625" Pitch="39" RiffPosition="8.875" Velocity="0" />
      <note Length="0.0625" Pitch="39" RiffPosition="8.9375" Velocity="0" />
      <note Length="0.0625" Pitch="39" RiffPosition="9" Velocity="0" />
      <note Length="0.0625" Pitch="39" RiffPosition="9.0625" Velocity="0" />
      <note Length="0.0625" Pitch="39" RiffPosition="9.125" Velocity="0" />
      <note Length="0.0625" Pitch="39" RiffPosition="9.1875" Velocity="0" />
      <note Length="0.0625" Pitch="39" RiffPosition="9.25" Velocity="0" />
      <note Length="0.0625" Pitch="39" RiffPosition="9.3125" Velocity="0" />
      <note Length="0.0625" Pitch="39" RiffPosition="9.375" Velocity="0" />
      <note Length="0.0625" Pitch="39" RiffPosition="9.4375" Velocity="0" />
      <note Length="0.0625" Pitch="39" RiffPosition="9.5" Velocity="0" />
      <note Length="0.0625" Pitch="39" RiffPosition="9.5625" Velocity="0" />
      <note Length="0.0625" Pitch="39" RiffPosition="9.625" Velocity="0" />
      <note Length="0.0625" Pitch="39" RiffPosition="9.6875" Velocity="0" />
      <note Length="0.0625" Pitch="39" RiffPosition="9.75" Velocity="0" />
      <note Length="0.0625" Pitch="39" RiffPosition="9.8125" Velocity="0" />
      <note Length="0.0625" Pitch="39" RiffPosition="9.875" Velocity="0" />
      <note Length="0.0625" Pitch="39" RiffPosition="9.9375" Velocity="0" />
      <note Length="0.0625" Pitch="39" RiffPosition="10" Velocity="0" />
      <note Length="0.0625" Pitch="39" RiffPosition="10.0625" Velocity="0" />
      <note Length="0.0625" Pitch="39" RiffPosition="10.125" Velocity="0" />
      <note Length="0.0625" Pitch="39" RiffPosition="10.1875" Velocity="0" />
      <note Length="0.0625" Pitch="39" RiffPosition="10.25" Velocity="0" />
      <note Length="0.0625" Pitch="39" RiffPosition="10.3125" Velocity="0" />
      <note Length="0.0625" Pitch="39" RiffPosition="10.375" Velocity="0" />
      <note Length="0.0625" Pitch="39" RiffPosition="10.4375" Velocity="0" />
      <note Length="0.0625" Pitch="39" RiffPosition="10.5" Velocity="0" />
      <note Length="0.0625" Pitch="39" RiffPosition="10.5625" Velocity="0" />
      <note Length="0.0625" Pitch="39" RiffPosition="10.625" Velocity="0" />
      <note Length="0.0625" Pitch="39" RiffPosition="10.6875" Velocity="0" />
      <note Length="0.0625" Pitch="39" RiffPosition="10.75" Velocity="0" />
      <note Length="0.0625" Pitch="39" RiffPosition="10.8125" Velocity="0" />
      <note Length="0.0625" Pitch="39" RiffPosition="10.875" Velocity="0" />
      <note Length="0.0625" Pitch="39" RiffPosition="10.9375" Velocity="0" />
      <note Length="0.0625" Pitch="39" RiffPosition="11" Velocity="0" />
      <note Length="0.0625" Pitch="39" RiffPosition="11.0625" Velocity="0" />
      <note Length="0.0625" Pitch="39" RiffPosition="11.125" Velocity="0" />
      <note Length="0.0625" Pitch="39" RiffPosition="11.1875" Velocity="0" />
      <note Length="0.0625" Pitch="39" RiffPosition="11.25" Velocity="0" />
      <note Length="0.0625" Pitch="39" RiffPosition="11.3125" Velocity="0" />
      <note Length="0.0625" Pitch="39" RiffPosition="11.375" Velocity="0" />
      <note Length="0.0625" Pitch="39" RiffPosition="11.4375" Velocity="0" />
      <note Length="0.0625" Pitch="39" RiffPosition="11.5" Velocity="0" />
      <note Length="0.0625" Pitch="39" RiffPosition="11.5625" Velocity="0" />
      <note Length="0.0625" Pitch="39" RiffPosition="11.625" Velocity="0" />
      <note Length="0.0625" Pitch="39" RiffPosition="11.6875" Velocity="0" />
      <note Length="0.0625" Pitch="39" RiffPosition="11.75" Velocity="0" />
      <note Length="0.0625" Pitch="39" RiffPosition="11.8125" Velocity="0" />
      <note Length="0.0625" Pitch="39" RiffPosition="11.875" Velocity="0" />
      <note Length="0.0625" Pitch="39" RiffPosition="11.9375" Velocity="0" />
      <note Length="0.0625" Pitch="39" RiffPosition="12" Velocity="0" />
      <note Length="0.0625" Pitch="39" RiffPosition="12.0625" Velocity="0" />
      <note Length="0.0625" Pitch="39" RiffPosition="12.125" Velocity="0" />
      <note Length="0.0625" Pitch="39" RiffPosition="12.1875" Velocity="0" />
      <note Length="0.0625" Pitch="39" RiffPosition="12.25" Velocity="0" />
      <note Length="0.0625" Pitch="39" RiffPosition="12.3125" Velocity="0" />
      <note Length="0.0625" Pitch="39" RiffPosition="12.375" Velocity="0" />
      <note Length="0.0625" Pitch="39" RiffPosition="12.4375" Velocity="0" />
      <note Length="0.0625" Pitch="39" RiffPosition="12.5" Velocity="0" />
      <note Length="0.0625" Pitch="39" RiffPosition="12.5625" Velocity="0" />
      <note Length="0.0625" Pitch="39" RiffPosition="12.625" Velocity="0" />
      <note Length="0.0625" Pitch="39" RiffPosition="12.6875" Velocity="0" />
      <note Length="0.0625" Pitch="39" RiffPosition="12.75" Velocity="0" />
      <note Length="0.0625" Pitch="39" RiffPosition="12.8125" Velocity="0" />
      <note Length="0.0625" Pitch="39" RiffPosition="12.875" Velocity="0" />
      <note Length="0.0625" Pitch="39" RiffPosition="12.9375" Velocity="0" />
      <note Length="0.0625" Pitch="39" RiffPosition="13" Velocity="0" />
      <note Length="0.0625" Pitch="39" RiffPosition="13.0625" Velocity="0" />
      <note Length="0.0625" Pitch="39" RiffPosition="13.125" Velocity="0" />
      <note Length="0.0625" Pitch="39" RiffPosition="13.1875" Velocity="0" />
      <note Length="0.0625" Pitch="39" RiffPosition="13.25" Velocity="0" />
      <note Length="0.0625" Pitch="39" RiffPosition="13.3125" Velocity="0" />
      <note Length="0.0625" Pitch="39" RiffPosition="13.375" Velocity="0" />
      <note Length="0.0625" Pitch="39" RiffPosition="13.4375" Velocity="0" />
      <note Length="0.0625" Pitch="39" RiffPosition="13.5" Velocity="0" />
      <note Length="0.0625" Pitch="39" RiffPosition="13.5625" Velocity="0" />
      <note Length="0.0625" Pitch="39" RiffPosition="13.625" Velocity="0" />
      <note Length="0.0625" Pitch="39" RiffPosition="13.6875" Velocity="0" />
      <note Length="0.0625" Pitch="39" RiffPosition="13.75" Velocity="0" />
      <note Length="0.0625" Pitch="39" RiffPosition="13.8125" Velocity="0" />
      <note Length="0.0625" Pitch="39" RiffPosition="13.875" Velocity="0" />
      <note Length="0.0625" Pitch="39" RiffPosition="13.9375" Velocity="0" />
    </riff>
    <riff IsDrum="False" MidiInstrument="34" Tempo="100" Length="14">
      <note Length="0.0234375" Pitch="46" RiffPosition="0" Velocity="0" />
      <note Length="0.0078125" Pitch="46" RiffPosition="0.0234375" Velocity="0" />
      <note Length="0.0078125" Pitch="46" RiffPosition="0.03125" Velocity="0" />
      <note Length="0.0234375" Pitch="46" RiffPosition="0.0390625" Velocity="0" />
      <note Length="0.015625" Pitch="41" RiffPosition="0.0625" Velocity="0" />
      <note Length="0.015625" Pitch="41" RiffPosition="0.078125" Velocity="0" />
      <note Length="0.03125" Pitch="41" RiffPosition="0.09375" Velocity="0" />
      <note Length="0.0234375" Pitch="29" RiffPosition="0.125" Velocity="0" />
      <note Length="0.0078125" Pitch="29" RiffPosition="0.1484375" Velocity="0" />
      <note Length="0.0078125" Pitch="29" RiffPosition="0.15625" Velocity="0" />
      <note Length="0.0234375" Pitch="29" RiffPosition="0.1640625" Velocity="0" />
      <note Length="0.015625" Pitch="41" RiffPosition="0.1875" Velocity="0" />
      <note Length="0.015625" Pitch="41" RiffPosition="0.203125" Velocity="0" />
      <note Length="0.03125" Pitch="41" RiffPosition="0.21875" Velocity="0" />
      <note Length="0.0234375" Pitch="46" RiffPosition="0.25" Velocity="0" />
      <note Length="0.0078125" Pitch="46" RiffPosition="0.2734375" Velocity="0" />
      <note Length="0.0078125" Pitch="46" RiffPosition="0.28125" Velocity="0" />
      <note Length="0.0234375" Pitch="44" RiffPosition="0.2890625" Velocity="0" />
      <note Length="0.015625" Pitch="41" RiffPosition="0.3125" Velocity="0" />
      <note Length="0.015625" Pitch="41" RiffPosition="0.328125" Velocity="0" />
      <note Length="0.03125" Pitch="41" RiffPosition="0.34375" Velocity="0" />
      <note Length="0.0234375" Pitch="37" RiffPosition="0.375" Velocity="0" />
      <note Length="0.0078125" Pitch="37" RiffPosition="0.3984375" Velocity="0" />
      <note Length="0.0078125" Pitch="37" RiffPosition="0.40625" Velocity="0" />
      <note Length="0.0234375" Pitch="37" RiffPosition="0.4140625" Velocity="0" />
      <note Length="0.015625" Pitch="29" RiffPosition="0.4375" Velocity="0" />
      <note Length="0.015625" Pitch="29" RiffPosition="0.453125" Velocity="0" />
      <note Length="0.03125" Pitch="29" RiffPosition="0.46875" Velocity="0" />
      <note Length="0.0234375" Pitch="44" RiffPosition="0.5" Velocity="0" />
      <note Length="0.0078125" Pitch="44" RiffPosition="0.5234375" Velocity="0" />
      <note Length="0.0078125" Pitch="44" RiffPosition="0.53125" Velocity="0" />
      <note Length="0.0234375" Pitch="44" RiffPosition="0.5390625" Velocity="0" />
      <note Length="0.015625" Pitch="29" RiffPosition="0.5625" Velocity="0" />
      <note Length="0.015625" Pitch="29" RiffPosition="0.578125" Velocity="0" />
      <note Length="0.03125" Pitch="29" RiffPosition="0.59375" Velocity="0" />
      <note Length="0.0234375" Pitch="36" RiffPosition="0.625" Velocity="0" />
      <note Length="0.0078125" Pitch="36" RiffPosition="0.6484375" Velocity="0" />
      <note Length="0.0078125" Pitch="36" RiffPosition="0.65625" Velocity="0" />
      <note Length="0.0234375" Pitch="36" RiffPosition="0.6640625" Velocity="0" />
      <note Length="0.015625" Pitch="29" RiffPosition="0.6875" Velocity="0" />
      <note Length="0.015625" Pitch="29" RiffPosition="0.703125" Velocity="0" />
      <note Length="0.03125" Pitch="29" RiffPosition="0.71875" Velocity="0" />
      <note Length="0.0234375" Pitch="44" RiffPosition="0.75" Velocity="0" />
      <note Length="0.0078125" Pitch="44" RiffPosition="0.7734375" Velocity="0" />
      <note Length="0.0078125" Pitch="44" RiffPosition="0.78125" Velocity="0" />
      <note Length="0.0234375" Pitch="44" RiffPosition="0.7890625" Velocity="0" />
      <note Length="0.015625" Pitch="29" RiffPosition="0.8125" Velocity="0" />
      <note Length="0.015625" Pitch="29" RiffPosition="0.828125" Velocity="0" />
      <note Length="0.03125" Pitch="29" RiffPosition="0.84375" Velocity="0" />
      <note Length="0.0234375" Pitch="37" RiffPosition="0.875" Velocity="0" />
      <note Length="0.0078125" Pitch="37" RiffPosition="0.8984375" Velocity="0" />
      <note Length="0.0078125" Pitch="37" RiffPosition="0.90625" Velocity="0" />
      <note Length="0.0234375" Pitch="37" RiffPosition="0.9140625" Velocity="0" />
      <note Length="0.015625" Pitch="41" RiffPosition="0.9375" Velocity="0" />
      <note Length="0.015625" Pitch="41" RiffPosition="0.953125" Velocity="0" />
      <note Length="0.03125" Pitch="41" RiffPosition="0.96875" Velocity="0" />
      <note Length="0.0234375" Pitch="50" RiffPosition="1" Velocity="0" />
      <note Length="0.0078125" Pitch="50" RiffPosition="1.0234375" Velocity="0" />
      <note Length="0.0078125" Pitch="50" RiffPosition="1.03125" Velocity="0" />
      <note Length="0.0234375" Pitch="50" RiffPosition="1.0390625" Velocity="0" />
      <note Length="0.015625" Pitch="45" RiffPosition="1.0625" Velocity="0" />
      <note Length="0.015625" Pitch="45" RiffPosition="1.078125" Velocity="0" />
      <note Length="0.03125" Pitch="45" RiffPosition="1.09375" Velocity="0" />
      <note Length="0.0234375" Pitch="33" RiffPosition="1.125" Velocity="0" />
      <note Length="0.0078125" Pitch="33" RiffPosition="1.1484375" Velocity="0" />
      <note Length="0.0078125" Pitch="33" RiffPosition="1.15625" Velocity="0" />
      <note Length="0.0234375" Pitch="33" RiffPosition="1.1640625" Velocity="0" />
      <note Length="0.015625" Pitch="45" RiffPosition="1.1875" Velocity="0" />
      <note Length="0.015625" Pitch="45" RiffPosition="1.203125" Velocity="0" />
      <note Length="0.03125" Pitch="45" RiffPosition="1.21875" Velocity="0" />
      <note Length="0.0234375" Pitch="50" RiffPosition="1.25" Velocity="0" />
      <note Length="0.0078125" Pitch="50" RiffPosition="1.2734375" Velocity="0" />
      <note Length="0.0078125" Pitch="50" RiffPosition="1.28125" Velocity="0" />
      <note Length="0.0234375" Pitch="48" RiffPosition="1.2890625" Velocity="0" />
      <note Length="0.015625" Pitch="45" RiffPosition="1.3125" Velocity="0" />
      <note Length="0.015625" Pitch="45" RiffPosition="1.328125" Velocity="0" />
      <note Length="0.03125" Pitch="45" RiffPosition="1.34375" Velocity="0" />
      <note Length="0.0234375" Pitch="41" RiffPosition="1.375" Velocity="0" />
      <note Length="0.0078125" Pitch="41" RiffPosition="1.3984375" Velocity="0" />
      <note Length="0.0078125" Pitch="41" RiffPosition="1.40625" Velocity="0" />
      <note Length="0.0234375" Pitch="41" RiffPosition="1.4140625" Velocity="0" />
      <note Length="0.015625" Pitch="33" RiffPosition="1.4375" Velocity="0" />
      <note Length="0.015625" Pitch="33" RiffPosition="1.453125" Velocity="0" />
      <note Length="0.03125" Pitch="33" RiffPosition="1.46875" Velocity="0" />
      <note Length="0.0234375" Pitch="48" RiffPosition="1.5" Velocity="0" />
      <note Length="0.0078125" Pitch="48" RiffPosition="1.5234375" Velocity="0" />
      <note Length="0.0078125" Pitch="48" RiffPosition="1.53125" Velocity="0" />
      <note Length="0.0234375" Pitch="48" RiffPosition="1.5390625" Velocity="0" />
      <note Length="0.015625" Pitch="33" RiffPosition="1.5625" Velocity="0" />
      <note Length="0.015625" Pitch="33" RiffPosition="1.578125" Velocity="0" />
      <note Length="0.03125" Pitch="33" RiffPosition="1.59375" Velocity="0" />
      <note Length="0.0234375" Pitch="40" RiffPosition="1.625" Velocity="0" />
      <note Length="0.0078125" Pitch="40" RiffPosition="1.6484375" Velocity="0" />
      <note Length="0.0078125" Pitch="40" RiffPosition="1.65625" Velocity="0" />
      <note Length="0.0234375" Pitch="40" RiffPosition="1.6640625" Velocity="0" />
      <note Length="0.015625" Pitch="33" RiffPosition="1.6875" Velocity="0" />
      <note Length="0.015625" Pitch="33" RiffPosition="1.703125" Velocity="0" />
      <note Length="0.03125" Pitch="33" RiffPosition="1.71875" Velocity="0" />
      <note Length="0.0234375" Pitch="48" RiffPosition="1.75" Velocity="0" />
      <note Length="0.0078125" Pitch="48" RiffPosition="1.7734375" Velocity="0" />
      <note Length="0.0078125" Pitch="48" RiffPosition="1.78125" Velocity="0" />
      <note Length="0.0234375" Pitch="48" RiffPosition="1.7890625" Velocity="0" />
      <note Length="0.015625" Pitch="33" RiffPosition="1.8125" Velocity="0" />
      <note Length="0.015625" Pitch="33" RiffPosition="1.828125" Velocity="0" />
      <note Length="0.03125" Pitch="33" RiffPosition="1.84375" Velocity="0" />
      <note Length="0.0234375" Pitch="41" RiffPosition="1.875" Velocity="0" />
      <note Length="0.0078125" Pitch="41" RiffPosition="1.8984375" Velocity="0" />
      <note Length="0.0078125" Pitch="41" RiffPosition="1.90625" Velocity="0" />
      <note Length="0.0234375" Pitch="41" RiffPosition="1.9140625" Velocity="0" />
      <note Length="0.015625" Pitch="45" RiffPosition="1.9375" Velocity="0" />
      <note Length="0.015625" Pitch="45" RiffPosition="1.953125" Velocity="0" />
      <note Length="0.03125" Pitch="45" RiffPosition="1.96875" Velocity="0" />
      <note Length="0.0234375" Pitch="47" RiffPosition="2" Velocity="0" />
      <note Length="0.0078125" Pitch="47" RiffPosition="2.0234375" Velocity="0" />
      <note Length="0.0078125" Pitch="47" RiffPosition="2.03125" Velocity="0" />
      <note Length="0.0234375" Pitch="47" RiffPosition="2.0390625" Velocity="0" />
      <note Length="0.015625" Pitch="42" RiffPosition="2.0625" Velocity="0" />
      <note Length="0.015625" Pitch="42" RiffPosition="2.078125" Velocity="0" />
      <note Length="0.03125" Pitch="42" RiffPosition="2.09375" Velocity="0" />
      <note Length="0.0234375" Pitch="30" RiffPosition="2.125" Velocity="0" />
      <note Length="0.0078125" Pitch="30" RiffPosition="2.1484375" Velocity="0" />
      <note Length="0.0078125" Pitch="30" RiffPosition="2.15625" Velocity="0" />
      <note Length="0.0234375" Pitch="30" RiffPosition="2.1640625" Velocity="0" />
      <note Length="0.015625" Pitch="42" RiffPosition="2.1875" Velocity="0" />
      <note Length="0.015625" Pitch="42" RiffPosition="2.203125" Velocity="0" />
      <note Length="0.03125" Pitch="42" RiffPosition="2.21875" Velocity="0" />
      <note Length="0.0234375" Pitch="47" RiffPosition="2.25" Velocity="0" />
      <note Length="0.0078125" Pitch="47" RiffPosition="2.2734375" Velocity="0" />
      <note Length="0.0078125" Pitch="47" RiffPosition="2.28125" Velocity="0" />
      <note Length="0.0234375" Pitch="45" RiffPosition="2.2890625" Velocity="0" />
      <note Length="0.015625" Pitch="42" RiffPosition="2.3125" Velocity="0" />
      <note Length="0.015625" Pitch="42" RiffPosition="2.328125" Velocity="0" />
      <note Length="0.03125" Pitch="42" RiffPosition="2.34375" Velocity="0" />
      <note Length="0.0234375" Pitch="38" RiffPosition="2.375" Velocity="0" />
      <note Length="0.0078125" Pitch="38" RiffPosition="2.3984375" Velocity="0" />
      <note Length="0.0078125" Pitch="38" RiffPosition="2.40625" Velocity="0" />
      <note Length="0.0234375" Pitch="38" RiffPosition="2.4140625" Velocity="0" />
      <note Length="0.015625" Pitch="30" RiffPosition="2.4375" Velocity="0" />
      <note Length="0.015625" Pitch="30" RiffPosition="2.453125" Velocity="0" />
      <note Length="0.03125" Pitch="30" RiffPosition="2.46875" Velocity="0" />
      <note Length="0.0234375" Pitch="45" RiffPosition="2.5" Velocity="0" />
      <note Length="0.0078125" Pitch="45" RiffPosition="2.5234375" Velocity="0" />
      <note Length="0.0078125" Pitch="45" RiffPosition="2.53125" Velocity="0" />
      <note Length="0.0234375" Pitch="45" RiffPosition="2.5390625" Velocity="0" />
      <note Length="0.015625" Pitch="30" RiffPosition="2.5625" Velocity="0" />
      <note Length="0.015625" Pitch="30" RiffPosition="2.578125" Velocity="0" />
      <note Length="0.03125" Pitch="30" RiffPosition="2.59375" Velocity="0" />
      <note Length="0.0234375" Pitch="37" RiffPosition="2.625" Velocity="0" />
      <note Length="0.0078125" Pitch="37" RiffPosition="2.6484375" Velocity="0" />
      <note Length="0.0078125" Pitch="37" RiffPosition="2.65625" Velocity="0" />
      <note Length="0.0234375" Pitch="37" RiffPosition="2.6640625" Velocity="0" />
      <note Length="0.015625" Pitch="30" RiffPosition="2.6875" Velocity="0" />
      <note Length="0.015625" Pitch="30" RiffPosition="2.703125" Velocity="0" />
      <note Length="0.03125" Pitch="30" RiffPosition="2.71875" Velocity="0" />
      <note Length="0.0234375" Pitch="45" RiffPosition="2.75" Velocity="0" />
      <note Length="0.0078125" Pitch="45" RiffPosition="2.7734375" Velocity="0" />
      <note Length="0.0078125" Pitch="45" RiffPosition="2.78125" Velocity="0" />
      <note Length="0.0234375" Pitch="45" RiffPosition="2.7890625" Velocity="0" />
      <note Length="0.015625" Pitch="30" RiffPosition="2.8125" Velocity="0" />
      <note Length="0.015625" Pitch="30" RiffPosition="2.828125" Velocity="0" />
      <note Length="0.03125" Pitch="30" RiffPosition="2.84375" Velocity="0" />
      <note Length="0.0234375" Pitch="38" RiffPosition="2.875" Velocity="0" />
      <note Length="0.0078125" Pitch="38" RiffPosition="2.8984375" Velocity="0" />
      <note Length="0.0078125" Pitch="38" RiffPosition="2.90625" Velocity="0" />
      <note Length="0.0234375" Pitch="38" RiffPosition="2.9140625" Velocity="0" />
      <note Length="0.015625" Pitch="42" RiffPosition="2.9375" Velocity="0" />
      <note Length="0.015625" Pitch="42" RiffPosition="2.953125" Velocity="0" />
      <note Length="0.03125" Pitch="42" RiffPosition="2.96875" Velocity="0" />
      <note Length="0.0234375" Pitch="40" RiffPosition="3" Velocity="0" />
      <note Length="0.0078125" Pitch="40" RiffPosition="3.0234375" Velocity="0" />
      <note Length="0.0078125" Pitch="40" RiffPosition="3.03125" Velocity="0" />
      <note Length="0.0234375" Pitch="40" RiffPosition="3.0390625" Velocity="0" />
      <note Length="0.015625" Pitch="35" RiffPosition="3.0625" Velocity="0" />
      <note Length="0.015625" Pitch="35" RiffPosition="3.078125" Velocity="0" />
      <note Length="0.03125" Pitch="35" RiffPosition="3.09375" Velocity="0" />
      <note Length="0.0234375" Pitch="23" RiffPosition="3.125" Velocity="0" />
      <note Length="0.0078125" Pitch="23" RiffPosition="3.1484375" Velocity="0" />
      <note Length="0.0078125" Pitch="23" RiffPosition="3.15625" Velocity="0" />
      <note Length="0.0234375" Pitch="23" RiffPosition="3.1640625" Velocity="0" />
      <note Length="0.015625" Pitch="35" RiffPosition="3.1875" Velocity="0" />
      <note Length="0.015625" Pitch="35" RiffPosition="3.203125" Velocity="0" />
      <note Length="0.03125" Pitch="35" RiffPosition="3.21875" Velocity="0" />
      <note Length="0.0234375" Pitch="40" RiffPosition="3.25" Velocity="0" />
      <note Length="0.0078125" Pitch="40" RiffPosition="3.2734375" Velocity="0" />
      <note Length="0.0078125" Pitch="40" RiffPosition="3.28125" Velocity="0" />
      <note Length="0.0234375" Pitch="38" RiffPosition="3.2890625" Velocity="0" />
      <note Length="0.015625" Pitch="35" RiffPosition="3.3125" Velocity="0" />
      <note Length="0.015625" Pitch="35" RiffPosition="3.328125" Velocity="0" />
      <note Length="0.03125" Pitch="35" RiffPosition="3.34375" Velocity="0" />
      <note Length="0.0234375" Pitch="31" RiffPosition="3.375" Velocity="0" />
      <note Length="0.0078125" Pitch="31" RiffPosition="3.3984375" Velocity="0" />
      <note Length="0.0078125" Pitch="31" RiffPosition="3.40625" Velocity="0" />
      <note Length="0.0234375" Pitch="31" RiffPosition="3.4140625" Velocity="0" />
      <note Length="0.015625" Pitch="23" RiffPosition="3.4375" Velocity="0" />
      <note Length="0.015625" Pitch="23" RiffPosition="3.453125" Velocity="0" />
      <note Length="0.03125" Pitch="23" RiffPosition="3.46875" Velocity="0" />
      <note Length="0.0234375" Pitch="38" RiffPosition="3.5" Velocity="0" />
      <note Length="0.0078125" Pitch="38" RiffPosition="3.5234375" Velocity="0" />
      <note Length="0.0078125" Pitch="38" RiffPosition="3.53125" Velocity="0" />
      <note Length="0.0234375" Pitch="38" RiffPosition="3.5390625" Velocity="0" />
      <note Length="0.015625" Pitch="23" RiffPosition="3.5625" Velocity="0" />
      <note Length="0.015625" Pitch="23" RiffPosition="3.578125" Velocity="0" />
      <note Length="0.03125" Pitch="23" RiffPosition="3.59375" Velocity="0" />
      <note Length="0.0234375" Pitch="30" RiffPosition="3.625" Velocity="0" />
      <note Length="0.0078125" Pitch="30" RiffPosition="3.6484375" Velocity="0" />
      <note Length="0.0078125" Pitch="30" RiffPosition="3.65625" Velocity="0" />
      <note Length="0.0234375" Pitch="30" RiffPosition="3.6640625" Velocity="0" />
      <note Length="0.015625" Pitch="23" RiffPosition="3.6875" Velocity="0" />
      <note Length="0.015625" Pitch="23" RiffPosition="3.703125" Velocity="0" />
      <note Length="0.03125" Pitch="23" RiffPosition="3.71875" Velocity="0" />
      <note Length="0.0234375" Pitch="38" RiffPosition="3.75" Velocity="0" />
      <note Length="0.0078125" Pitch="38" RiffPosition="3.7734375" Velocity="0" />
      <note Length="0.0078125" Pitch="38" RiffPosition="3.78125" Velocity="0" />
      <note Length="0.0234375" Pitch="38" RiffPosition="3.7890625" Velocity="0" />
      <note Length="0.015625" Pitch="23" RiffPosition="3.8125" Velocity="0" />
      <note Length="0.015625" Pitch="23" RiffPosition="3.828125" Velocity="0" />
      <note Length="0.03125" Pitch="23" RiffPosition="3.84375" Velocity="0" />
      <note Length="0.0234375" Pitch="31" RiffPosition="3.875" Velocity="0" />
      <note Length="0.0078125" Pitch="31" RiffPosition="3.8984375" Velocity="0" />
      <note Length="0.0078125" Pitch="31" RiffPosition="3.90625" Velocity="0" />
      <note Length="0.0234375" Pitch="31" RiffPosition="3.9140625" Velocity="0" />
      <note Length="0.015625" Pitch="35" RiffPosition="3.9375" Velocity="0" />
      <note Length="0.015625" Pitch="35" RiffPosition="3.953125" Velocity="0" />
      <note Length="0.03125" Pitch="35" RiffPosition="3.96875" Velocity="0" />
      <note Length="0.0234375" Pitch="47" RiffPosition="4" Velocity="51" />
      <note Length="0.0078125" Pitch="47" RiffPosition="4.0234375" Velocity="36" />
      <note Length="0.0078125" Pitch="47" RiffPosition="4.03125" Velocity="67" />
      <note Length="0.0234375" Pitch="47" RiffPosition="4.0390625" Velocity="38" />
      <note Length="0.015625" Pitch="42" RiffPosition="4.0625" Velocity="75" />
      <note Length="0.015625" Pitch="42" RiffPosition="4.078125" Velocity="45" />
      <note Length="0.03125" Pitch="42" RiffPosition="4.09375" Velocity="43" />
      <note Length="0.0234375" Pitch="30" RiffPosition="4.125" Velocity="100" />
      <note Length="0.0078125" Pitch="30" RiffPosition="4.1484375" Velocity="55" />
      <note Length="0.0078125" Pitch="30" RiffPosition="4.15625" Velocity="51" />
      <note Length="0.0234375" Pitch="30" RiffPosition="4.1640625" Velocity="86" />
      <note Length="0.015625" Pitch="42" RiffPosition="4.1875" Velocity="67" />
      <note Length="0.015625" Pitch="42" RiffPosition="4.203125" Velocity="67" />
      <note Length="0.03125" Pitch="42" RiffPosition="4.21875" Velocity="66" />
      <note Length="0.0234375" Pitch="47" RiffPosition="4.25" Velocity="58" />
      <note Length="0.0078125" Pitch="47" RiffPosition="4.2734375" Velocity="46" />
      <note Length="0.0078125" Pitch="47" RiffPosition="4.28125" Velocity="80" />
      <note Length="0.0234375" Pitch="45" RiffPosition="4.2890625" Velocity="77" />
      <note Length="0.015625" Pitch="42" RiffPosition="4.3125" Velocity="43" />
      <note Length="0.015625" Pitch="42" RiffPosition="4.328125" Velocity="44" />
      <note Length="0.03125" Pitch="42" RiffPosition="4.34375" Velocity="42" />
      <note Length="0.0234375" Pitch="38" RiffPosition="4.375" Velocity="41" />
      <note Length="0.0078125" Pitch="38" RiffPosition="4.3984375" Velocity="48" />
      <note Length="0.0078125" Pitch="38" RiffPosition="4.40625" Velocity="56" />
      <note Length="0.0234375" Pitch="38" RiffPosition="4.4140625" Velocity="49" />
      <note Length="0.015625" Pitch="30" RiffPosition="4.4375" Velocity="55" />
      <note Length="0.015625" Pitch="30" RiffPosition="4.453125" Velocity="68" />
      <note Length="0.03125" Pitch="30" RiffPosition="4.46875" Velocity="69" />
      <note Length="0.0234375" Pitch="45" RiffPosition="4.5" Velocity="54" />
      <note Length="0.0078125" Pitch="45" RiffPosition="4.5234375" Velocity="50" />
      <note Length="0.0078125" Pitch="45" RiffPosition="4.53125" Velocity="55" />
      <note Length="0.0234375" Pitch="45" RiffPosition="4.5390625" Velocity="49" />
      <note Length="0.015625" Pitch="30" RiffPosition="4.5625" Velocity="39" />
      <note Length="0.015625" Pitch="30" RiffPosition="4.578125" Velocity="40" />
      <note Length="0.03125" Pitch="30" RiffPosition="4.59375" Velocity="41" />
      <note Length="0.0234375" Pitch="37" RiffPosition="4.625" Velocity="45" />
      <note Length="0.0078125" Pitch="37" RiffPosition="4.6484375" Velocity="61" />
      <note Length="0.0078125" Pitch="37" RiffPosition="4.65625" Velocity="44" />
      <note Length="0.0234375" Pitch="37" RiffPosition="4.6640625" Velocity="45" />
      <note Length="0.015625" Pitch="30" RiffPosition="4.6875" Velocity="76" />
      <note Length="0.015625" Pitch="30" RiffPosition="4.703125" Velocity="65" />
      <note Length="0.03125" Pitch="30" RiffPosition="4.71875" Velocity="56" />
      <note Length="0.0234375" Pitch="45" RiffPosition="4.75" Velocity="52" />
      <note Length="0.0078125" Pitch="45" RiffPosition="4.7734375" Velocity="67" />
      <note Length="0.0078125" Pitch="45" RiffPosition="4.78125" Velocity="38" />
      <note Length="0.0234375" Pitch="45" RiffPosition="4.7890625" Velocity="66" />
      <note Length="0.015625" Pitch="30" RiffPosition="4.8125" Velocity="42" />
      <note Length="0.015625" Pitch="30" RiffPosition="4.828125" Velocity="79" />
      <note Length="0.03125" Pitch="30" RiffPosition="4.84375" Velocity="62" />
      <note Length="0.0234375" Pitch="38" RiffPosition="4.875" Velocity="57" />
      <note Length="0.0078125" Pitch="38" RiffPosition="4.8984375" Velocity="51" />
      <note Length="0.0078125" Pitch="38" RiffPosition="4.90625" Velocity="53" />
      <note Length="0.0234375" Pitch="38" RiffPosition="4.9140625" Velocity="53" />
      <note Length="0.015625" Pitch="42" RiffPosition="4.9375" Velocity="38" />
      <note Length="0.015625" Pitch="42" RiffPosition="4.953125" Velocity="39" />
      <note Length="0.03125" Pitch="42" RiffPosition="4.96875" Velocity="41" />
      <note Length="0.0234375" Pitch="40" RiffPosition="5" Velocity="62" />
      <note Length="0.0078125" Pitch="40" RiffPosition="5.0234375" Velocity="99" />
      <note Length="0.0078125" Pitch="40" RiffPosition="5.03125" Velocity="57" />
      <note Length="0.0234375" Pitch="40" RiffPosition="5.0390625" Velocity="48" />
      <note Length="0.015625" Pitch="35" RiffPosition="5.0625" Velocity="86" />
      <note Length="0.015625" Pitch="35" RiffPosition="5.078125" Velocity="88" />
      <note Length="0.03125" Pitch="35" RiffPosition="5.09375" Velocity="37" />
      <note Length="0.0234375" Pitch="23" RiffPosition="5.125" Velocity="41" />
      <note Length="0.0078125" Pitch="23" RiffPosition="5.1484375" Velocity="44" />
      <note Length="0.0078125" Pitch="23" RiffPosition="5.15625" Velocity="61" />
      <note Length="0.0234375" Pitch="23" RiffPosition="5.1640625" Velocity="42" />
      <note Length="0.015625" Pitch="35" RiffPosition="5.1875" Velocity="61" />
      <note Length="0.015625" Pitch="35" RiffPosition="5.203125" Velocity="62" />
      <note Length="0.03125" Pitch="35" RiffPosition="5.21875" Velocity="77" />
      <note Length="0.0234375" Pitch="40" RiffPosition="5.25" Velocity="47" />
      <note Length="0.0078125" Pitch="40" RiffPosition="5.2734375" Velocity="56" />
      <note Length="0.0078125" Pitch="40" RiffPosition="5.28125" Velocity="91" />
      <note Length="0.0234375" Pitch="38" RiffPosition="5.2890625" Velocity="56" />
      <note Length="0.015625" Pitch="35" RiffPosition="5.3125" Velocity="37" />
      <note Length="0.015625" Pitch="35" RiffPosition="5.328125" Velocity="36" />
      <note Length="0.03125" Pitch="35" RiffPosition="5.34375" Velocity="36" />
      <note Length="0.0234375" Pitch="31" RiffPosition="5.375" Velocity="51" />
      <note Length="0.0078125" Pitch="31" RiffPosition="5.3984375" Velocity="85" />
      <note Length="0.0078125" Pitch="31" RiffPosition="5.40625" Velocity="73" />
      <note Length="0.0234375" Pitch="31" RiffPosition="5.4140625" Velocity="38" />
      <note Length="0.015625" Pitch="23" RiffPosition="5.4375" Velocity="65" />
      <note Length="0.015625" Pitch="23" RiffPosition="5.453125" Velocity="58" />
      <note Length="0.03125" Pitch="23" RiffPosition="5.46875" Velocity="58" />
      <note Length="0.0234375" Pitch="38" RiffPosition="5.5" Velocity="79" />
      <note Length="0.0078125" Pitch="38" RiffPosition="5.5234375" Velocity="79" />
      <note Length="0.0078125" Pitch="38" RiffPosition="5.53125" Velocity="44" />
      <note Length="0.0234375" Pitch="38" RiffPosition="5.5390625" Velocity="60" />
      <note Length="0.015625" Pitch="23" RiffPosition="5.5625" Velocity="98" />
      <note Length="0.015625" Pitch="23" RiffPosition="5.578125" Velocity="40" />
      <note Length="0.03125" Pitch="23" RiffPosition="5.59375" Velocity="40" />
      <note Length="0.0234375" Pitch="30" RiffPosition="5.625" Velocity="84" />
      <note Length="0.0078125" Pitch="30" RiffPosition="5.6484375" Velocity="50" />
      <note Length="0.0078125" Pitch="30" RiffPosition="5.65625" Velocity="54" />
      <note Length="0.0234375" Pitch="30" RiffPosition="5.6640625" Velocity="51" />
      <note Length="0.015625" Pitch="23" RiffPosition="5.6875" Velocity="66" />
      <note Length="0.015625" Pitch="23" RiffPosition="5.703125" Velocity="64" />
      <note Length="0.03125" Pitch="23" RiffPosition="5.71875" Velocity="46" />
      <note Length="0.0234375" Pitch="38" RiffPosition="5.75" Velocity="42" />
      <note Length="0.0078125" Pitch="38" RiffPosition="5.7734375" Velocity="57" />
      <note Length="0.0078125" Pitch="38" RiffPosition="5.78125" Velocity="91" />
      <note Length="0.0234375" Pitch="38" RiffPosition="5.7890625" Velocity="55" />
      <note Length="0.015625" Pitch="23" RiffPosition="5.8125" Velocity="52" />
      <note Length="0.015625" Pitch="23" RiffPosition="5.828125" Velocity="68" />
      <note Length="0.03125" Pitch="23" RiffPosition="5.84375" Velocity="66" />
      <note Length="0.0234375" Pitch="31" RiffPosition="5.875" Velocity="76" />
      <note Length="0.0078125" Pitch="31" RiffPosition="5.8984375" Velocity="61" />
      <note Length="0.0078125" Pitch="31" RiffPosition="5.90625" Velocity="42" />
      <note Length="0.0234375" Pitch="31" RiffPosition="5.9140625" Velocity="63" />
      <note Length="0.015625" Pitch="35" RiffPosition="5.9375" Velocity="48" />
      <note Length="0.015625" Pitch="35" RiffPosition="5.953125" Velocity="50" />
      <note Length="0.03125" Pitch="35" RiffPosition="5.96875" Velocity="52" />
      <note Length="0.0234375" Pitch="46" RiffPosition="6" Velocity="67" />
      <note Length="0.0078125" Pitch="46" RiffPosition="6.0234375" Velocity="40" />
      <note Length="0.0078125" Pitch="46" RiffPosition="6.03125" Velocity="76" />
      <note Length="0.0234375" Pitch="46" RiffPosition="6.0390625" Velocity="80" />
      <note Length="0.015625" Pitch="41" RiffPosition="6.0625" Velocity="43" />
      <note Length="0.015625" Pitch="41" RiffPosition="6.078125" Velocity="98" />
      <note Length="0.03125" Pitch="41" RiffPosition="6.09375" Velocity="48" />
      <note Length="0.0234375" Pitch="29" RiffPosition="6.125" Velocity="51" />
      <note Length="0.0078125" Pitch="29" RiffPosition="6.1484375" Velocity="36" />
      <note Length="0.0078125" Pitch="29" RiffPosition="6.15625" Velocity="72" />
      <note Length="0.0234375" Pitch="29" RiffPosition="6.1640625" Velocity="38" />
      <note Length="0.015625" Pitch="41" RiffPosition="6.1875" Velocity="72" />
      <note Length="0.015625" Pitch="41" RiffPosition="6.203125" Velocity="51" />
      <note Length="0.03125" Pitch="41" RiffPosition="6.21875" Velocity="52" />
      <note Length="0.0234375" Pitch="46" RiffPosition="6.25" Velocity="37" />
      <note Length="0.0078125" Pitch="46" RiffPosition="6.2734375" Velocity="67" />
      <note Length="0.0078125" Pitch="46" RiffPosition="6.28125" Velocity="38" />
      <note Length="0.0234375" Pitch="44" RiffPosition="6.2890625" Velocity="66" />
      <note Length="0.015625" Pitch="41" RiffPosition="6.3125" Velocity="47" />
      <note Length="0.015625" Pitch="41" RiffPosition="6.328125" Velocity="47" />
      <note Length="0.03125" Pitch="41" RiffPosition="6.34375" Velocity="46" />
      <note Length="0.0234375" Pitch="37" RiffPosition="6.375" Velocity="62" />
      <note Length="0.0078125" Pitch="37" RiffPosition="6.3984375" Velocity="44" />
      <note Length="0.0078125" Pitch="37" RiffPosition="6.40625" Velocity="60" />
      <note Length="0.0234375" Pitch="37" RiffPosition="6.4140625" Velocity="42" />
      <note Length="0.015625" Pitch="29" RiffPosition="6.4375" Velocity="63" />
      <note Length="0.015625" Pitch="29" RiffPosition="6.453125" Velocity="75" />
      <note Length="0.03125" Pitch="29" RiffPosition="6.46875" Velocity="48" />
      <note Length="0.0234375" Pitch="44" RiffPosition="6.5" Velocity="49" />
      <note Length="0.0078125" Pitch="44" RiffPosition="6.5234375" Velocity="68" />
      <note Length="0.0078125" Pitch="44" RiffPosition="6.53125" Velocity="36" />
      <note Length="0.0234375" Pitch="44" RiffPosition="6.5390625" Velocity="69" />
      <note Length="0.015625" Pitch="29" RiffPosition="6.5625" Velocity="35" />
      <note Length="0.015625" Pitch="29" RiffPosition="6.578125" Velocity="88" />
      <note Length="0.03125" Pitch="29" RiffPosition="6.59375" Velocity="50" />
      <note Length="0.0234375" Pitch="36" RiffPosition="6.625" Velocity="73" />
      <note Length="0.0078125" Pitch="36" RiffPosition="6.6484375" Velocity="40" />
      <note Length="0.0078125" Pitch="36" RiffPosition="6.65625" Velocity="75" />
      <note Length="0.0234375" Pitch="36" RiffPosition="6.6640625" Velocity="40" />
      <note Length="0.015625" Pitch="29" RiffPosition="6.6875" Velocity="56" />
      <note Length="0.015625" Pitch="29" RiffPosition="6.703125" Velocity="54" />
      <note Length="0.03125" Pitch="29" RiffPosition="6.71875" Velocity="52" />
      <note Length="0.0234375" Pitch="44" RiffPosition="6.75" Velocity="39" />
      <note Length="0.0078125" Pitch="44" RiffPosition="6.7734375" Velocity="76" />
      <note Length="0.0078125" Pitch="44" RiffPosition="6.78125" Velocity="80" />
      <note Length="0.0234375" Pitch="44" RiffPosition="6.7890625" Velocity="45" />
      <note Length="0.015625" Pitch="29" RiffPosition="6.8125" Velocity="63" />
      <note Length="0.015625" Pitch="29" RiffPosition="6.828125" Velocity="65" />
      <note Length="0.03125" Pitch="29" RiffPosition="6.84375" Velocity="56" />
      <note Length="0.0234375" Pitch="37" RiffPosition="6.875" Velocity="52" />
      <note Length="0.0078125" Pitch="37" RiffPosition="6.8984375" Velocity="67" />
      <note Length="0.0078125" Pitch="37" RiffPosition="6.90625" Velocity="38" />
      <note Length="0.0234375" Pitch="37" RiffPosition="6.9140625" Velocity="66" />
      <note Length="0.015625" Pitch="41" RiffPosition="6.9375" Velocity="42" />
      <note Length="0.015625" Pitch="41" RiffPosition="6.953125" Velocity="60" />
      <note Length="0.03125" Pitch="41" RiffPosition="6.96875" Velocity="62" />
      <note Length="0.0234375" Pitch="39" RiffPosition="7" Velocity="57" />
      <note Length="0.0078125" Pitch="39" RiffPosition="7.0234375" Velocity="51" />
      <note Length="0.0078125" Pitch="39" RiffPosition="7.03125" Velocity="86" />
      <note Length="0.0234375" Pitch="39" RiffPosition="7.0390625" Velocity="53" />
      <note Length="0.015625" Pitch="34" RiffPosition="7.0625" Velocity="38" />
      <note Length="0.015625" Pitch="34" RiffPosition="7.078125" Velocity="39" />
      <note Length="0.03125" Pitch="34" RiffPosition="7.09375" Velocity="41" />
      <note Length="0.0234375" Pitch="22" RiffPosition="7.125" Velocity="62" />
      <note Length="0.0078125" Pitch="22" RiffPosition="7.1484375" Velocity="99" />
      <note Length="0.0078125" Pitch="22" RiffPosition="7.15625" Velocity="57" />
      <note Length="0.0234375" Pitch="22" RiffPosition="7.1640625" Velocity="48" />
      <note Length="0.015625" Pitch="34" RiffPosition="7.1875" Velocity="82" />
      <note Length="0.015625" Pitch="34" RiffPosition="7.203125" Velocity="41" />
      <note Length="0.03125" Pitch="34" RiffPosition="7.21875" Velocity="42" />
      <note Length="0.0234375" Pitch="39" RiffPosition="7.25" Velocity="96" />
      <note Length="0.0078125" Pitch="39" RiffPosition="7.2734375" Velocity="62" />
      <note Length="0.0078125" Pitch="39" RiffPosition="7.28125" Velocity="42" />
      <note Length="0.0234375" Pitch="37" RiffPosition="7.2890625" Velocity="77" />
      <note Length="0.015625" Pitch="34" RiffPosition="7.3125" Velocity="81" />
      <note Length="0.015625" Pitch="34" RiffPosition="7.328125" Velocity="57" />
      <note Length="0.03125" Pitch="34" RiffPosition="7.34375" Velocity="57" />
      <note Length="0.0234375" Pitch="30" RiffPosition="7.375" Velocity="67" />
      <note Length="0.0078125" Pitch="30" RiffPosition="7.3984375" Velocity="37" />
      <note Length="0.0078125" Pitch="30" RiffPosition="7.40625" Velocity="71" />
      <note Length="0.0234375" Pitch="30" RiffPosition="7.4140625" Velocity="36" />
      <note Length="0.015625" Pitch="22" RiffPosition="7.4375" Velocity="53" />
      <note Length="0.015625" Pitch="22" RiffPosition="7.453125" Velocity="54" />
      <note Length="0.03125" Pitch="22" RiffPosition="7.46875" Velocity="38" />
      <note Length="0.0234375" Pitch="37" RiffPosition="7.5" Velocity="39" />
      <note Length="0.0078125" Pitch="37" RiffPosition="7.5234375" Velocity="58" />
      <note Length="0.0078125" Pitch="37" RiffPosition="7.53125" Velocity="93" />
      <note Length="0.0234375" Pitch="37" RiffPosition="7.5390625" Velocity="58" />
      <note Length="0.015625" Pitch="22" RiffPosition="7.5625" Velocity="45" />
      <note Length="0.015625" Pitch="22" RiffPosition="7.578125" Velocity="78" />
      <note Length="0.03125" Pitch="22" RiffPosition="7.59375" Velocity="78" />
      <note Length="0.0234375" Pitch="29" RiffPosition="7.625" Velocity="60" />
      <note Length="0.0078125" Pitch="29" RiffPosition="7.6484375" Velocity="41" />
      <note Length="0.0078125" Pitch="29" RiffPosition="7.65625" Velocity="64" />
      <note Length="0.0234375" Pitch="29" RiffPosition="7.6640625" Velocity="40" />
      <note Length="0.015625" Pitch="22" RiffPosition="7.6875" Velocity="45" />
      <note Length="0.015625" Pitch="22" RiffPosition="7.703125" Velocity="43" />
      <note Length="0.03125" Pitch="22" RiffPosition="7.71875" Velocity="41" />
      <note Length="0.0234375" Pitch="37" RiffPosition="7.75" Velocity="90" />
      <note Length="0.0078125" Pitch="37" RiffPosition="7.7734375" Velocity="53" />
      <note Length="0.0078125" Pitch="37" RiffPosition="7.78125" Velocity="53" />
      <note Length="0.0234375" Pitch="37" RiffPosition="7.7890625" Velocity="36" />
      <note Length="0.015625" Pitch="22" RiffPosition="7.8125" Velocity="66" />
      <note Length="0.015625" Pitch="22" RiffPosition="7.828125" Velocity="75" />
      <note Length="0.03125" Pitch="22" RiffPosition="7.84375" Velocity="46" />
      <note Length="0.0234375" Pitch="30" RiffPosition="7.875" Velocity="42" />
      <note Length="0.0078125" Pitch="30" RiffPosition="7.8984375" Velocity="57" />
      <note Length="0.0078125" Pitch="30" RiffPosition="7.90625" Velocity="49" />
      <note Length="0.0234375" Pitch="30" RiffPosition="7.9140625" Velocity="55" />
      <note Length="0.015625" Pitch="34" RiffPosition="7.9375" Velocity="52" />
      <note Length="0.015625" Pitch="34" RiffPosition="7.953125" Velocity="68" />
      <note Length="0.03125" Pitch="34" RiffPosition="7.96875" Velocity="66" />
      <note Length="0.0234375" Pitch="46" RiffPosition="8" Velocity="46" />
      <note Length="0.0078125" Pitch="46" RiffPosition="8.0234375" Velocity="61" />
      <note Length="0.0078125" Pitch="46" RiffPosition="8.03125" Velocity="42" />
      <note Length="0.0234375" Pitch="46" RiffPosition="8.0390625" Velocity="63" />
      <note Length="0.015625" Pitch="41" RiffPosition="8.0625" Velocity="48" />
      <note Length="0.015625" Pitch="41" RiffPosition="8.078125" Velocity="50" />
      <note Length="0.03125" Pitch="41" RiffPosition="8.09375" Velocity="52" />
      <note Length="0.0234375" Pitch="29" RiffPosition="8.125" Velocity="72" />
      <note Length="0.0078125" Pitch="29" RiffPosition="8.1484375" Velocity="40" />
      <note Length="0.0078125" Pitch="29" RiffPosition="8.15625" Velocity="76" />
      <note Length="0.0234375" Pitch="29" RiffPosition="8.1640625" Velocity="59" />
      <note Length="0.015625" Pitch="41" RiffPosition="8.1875" Velocity="47" />
      <note Length="0.015625" Pitch="41" RiffPosition="8.203125" Velocity="92" />
      <note Length="0.03125" Pitch="41" RiffPosition="8.21875" Velocity="39" />
      <note Length="0.0234375" Pitch="46" RiffPosition="8.25" Velocity="38" />
      <note Length="0.0078125" Pitch="46" RiffPosition="8.2734375" Velocity="51" />
      <note Length="0.0078125" Pitch="46" RiffPosition="8.28125" Velocity="53" />
      <note Length="0.0234375" Pitch="44" RiffPosition="8.2890625" Velocity="52" />
      <note Length="0.015625" Pitch="41" RiffPosition="8.3125" Velocity="52" />
      <note Length="0.015625" Pitch="41" RiffPosition="8.328125" Velocity="71" />
      <note Length="0.03125" Pitch="41" RiffPosition="8.34375" Velocity="67" />
      <note Length="0.0234375" Pitch="37" RiffPosition="8.375" Velocity="57" />
      <note Length="0.0078125" Pitch="37" RiffPosition="8.3984375" Velocity="47" />
      <note Length="0.0078125" Pitch="37" RiffPosition="8.40625" Velocity="58" />
      <note Length="0.0234375" Pitch="37" RiffPosition="8.4140625" Velocity="46" />
      <note Length="0.015625" Pitch="29" RiffPosition="8.4375" Velocity="42" />
      <note Length="0.015625" Pitch="29" RiffPosition="8.453125" Velocity="43" />
      <note Length="0.03125" Pitch="29" RiffPosition="8.46875" Velocity="44" />
      <note Length="0.0234375" Pitch="44" RiffPosition="8.5" Velocity="42" />
      <note Length="0.0078125" Pitch="44" RiffPosition="8.5234375" Velocity="75" />
      <note Length="0.0078125" Pitch="44" RiffPosition="8.53125" Velocity="82" />
      <note Length="0.0234375" Pitch="44" RiffPosition="8.5390625" Velocity="48" />
      <note Length="0.015625" Pitch="29" RiffPosition="8.5625" Velocity="56" />
      <note Length="0.015625" Pitch="29" RiffPosition="8.578125" Velocity="55" />
      <note Length="0.03125" Pitch="29" RiffPosition="8.59375" Velocity="68" />
      <note Length="0.0234375" Pitch="36" RiffPosition="8.625" Velocity="69" />
      <note Length="0.0078125" Pitch="36" RiffPosition="8.6484375" Velocity="88" />
      <note Length="0.0078125" Pitch="36" RiffPosition="8.65625" Velocity="54" />
      <note Length="0.0234375" Pitch="36" RiffPosition="8.6640625" Velocity="51" />
      <note Length="0.015625" Pitch="29" RiffPosition="8.6875" Velocity="51" />
      <note Length="0.015625" Pitch="29" RiffPosition="8.703125" Velocity="37" />
      <note Length="0.03125" Pitch="29" RiffPosition="8.71875" Velocity="39" />
      <note Length="0.0234375" Pitch="44" RiffPosition="8.75" Velocity="80" />
      <note Length="0.0078125" Pitch="44" RiffPosition="8.7734375" Velocity="42" />
      <note Length="0.0078125" Pitch="44" RiffPosition="8.78125" Velocity="63" />
      <note Length="0.0234375" Pitch="44" RiffPosition="8.7890625" Velocity="40" />
      <note Length="0.015625" Pitch="29" RiffPosition="8.8125" Velocity="55" />
      <note Length="0.015625" Pitch="29" RiffPosition="8.828125" Velocity="54" />
      <note Length="0.03125" Pitch="29" RiffPosition="8.84375" Velocity="52" />
      <note Length="0.0234375" Pitch="37" RiffPosition="8.875" Velocity="39" />
      <note Length="0.0078125" Pitch="37" RiffPosition="8.8984375" Velocity="76" />
      <note Length="0.0078125" Pitch="37" RiffPosition="8.90625" Velocity="80" />
      <note Length="0.0234375" Pitch="37" RiffPosition="8.9140625" Velocity="45" />
      <note Length="0.015625" Pitch="41" RiffPosition="8.9375" Velocity="63" />
      <note Length="0.015625" Pitch="41" RiffPosition="8.953125" Velocity="65" />
      <note Length="0.03125" Pitch="41" RiffPosition="8.96875" Velocity="56" />
      <note Length="0.0234375" Pitch="39" RiffPosition="9" Velocity="87" />
      <note Length="0.0078125" Pitch="39" RiffPosition="9.0234375" Velocity="67" />
      <note Length="0.0078125" Pitch="39" RiffPosition="9.03125" Velocity="38" />
      <note Length="0.0234375" Pitch="39" RiffPosition="9.0390625" Velocity="74" />
      <note Length="0.015625" Pitch="34" RiffPosition="9.0625" Velocity="81" />
      <note Length="0.015625" Pitch="34" RiffPosition="9.078125" Velocity="60" />
      <note Length="0.03125" Pitch="34" RiffPosition="9.09375" Velocity="62" />
      <note Length="0.0234375" Pitch="22" RiffPosition="9.125" Velocity="56" />
      <note Length="0.0078125" Pitch="22" RiffPosition="9.1484375" Velocity="51" />
      <note Length="0.0078125" Pitch="22" RiffPosition="9.15625" Velocity="86" />
      <note Length="0.0234375" Pitch="22" RiffPosition="9.1640625" Velocity="53" />
      <note Length="0.015625" Pitch="34" RiffPosition="9.1875" Velocity="36" />
      <note Length="0.015625" Pitch="34" RiffPosition="9.203125" Velocity="37" />
      <note Length="0.03125" Pitch="34" RiffPosition="9.21875" Velocity="102" />
      <note Length="0.0234375" Pitch="39" RiffPosition="9.25" Velocity="48" />
      <note Length="0.0078125" Pitch="39" RiffPosition="9.2734375" Velocity="41" />
      <note Length="0.0078125" Pitch="39" RiffPosition="9.28125" Velocity="76" />
      <note Length="0.0234375" Pitch="37" RiffPosition="9.2890625" Velocity="41" />
      <note Length="0.015625" Pitch="34" RiffPosition="9.3125" Velocity="62" />
      <note Length="0.015625" Pitch="34" RiffPosition="9.328125" Velocity="61" />
      <note Length="0.03125" Pitch="34" RiffPosition="9.34375" Velocity="62" />
      <note Length="0.0234375" Pitch="30" RiffPosition="9.375" Velocity="76" />
      <note Length="0.0078125" Pitch="30" RiffPosition="9.3984375" Velocity="57" />
      <note Length="0.0078125" Pitch="30" RiffPosition="9.40625" Velocity="47" />
      <note Length="0.0234375" Pitch="30" RiffPosition="9.4140625" Velocity="57" />
      <note Length="0.015625" Pitch="22" RiffPosition="9.4375" Velocity="38" />
      <note Length="0.015625" Pitch="22" RiffPosition="9.453125" Velocity="37" />
      <note Length="0.03125" Pitch="22" RiffPosition="9.46875" Velocity="37" />
      <note Length="0.0234375" Pitch="37" RiffPosition="9.5" Velocity="52" />
      <note Length="0.0078125" Pitch="37" RiffPosition="9.5234375" Velocity="53" />
      <note Length="0.0078125" Pitch="37" RiffPosition="9.53125" Velocity="51" />
      <note Length="0.0234375" Pitch="37" RiffPosition="9.5390625" Velocity="37" />
      <note Length="0.015625" Pitch="22" RiffPosition="9.5625" Velocity="73" />
      <note Length="0.015625" Pitch="22" RiffPosition="9.578125" Velocity="66" />
      <note Length="0.03125" Pitch="22" RiffPosition="9.59375" Velocity="57" />
      <note Length="0.0234375" Pitch="29" RiffPosition="9.625" Velocity="59" />
      <note Length="0.0078125" Pitch="29" RiffPosition="9.6484375" Velocity="78" />
      <note Length="0.0078125" Pitch="29" RiffPosition="9.65625" Velocity="43" />
      <note Length="0.0234375" Pitch="29" RiffPosition="9.6640625" Velocity="78" />
      <note Length="0.015625" Pitch="22" RiffPosition="9.6875" Velocity="41" />
      <note Length="0.015625" Pitch="22" RiffPosition="9.703125" Velocity="91" />
      <note Length="0.03125" Pitch="22" RiffPosition="9.71875" Velocity="50" />
      <note Length="0.0234375" Pitch="37" RiffPosition="9.75" Velocity="69" />
      <note Length="0.0078125" Pitch="37" RiffPosition="9.7734375" Velocity="38" />
      <note Length="0.0078125" Pitch="37" RiffPosition="9.78125" Velocity="65" />
      <note Length="0.0234375" Pitch="37" RiffPosition="9.7890625" Velocity="40" />
      <note Length="0.015625" Pitch="22" RiffPosition="9.8125" Velocity="45" />
      <note Length="0.015625" Pitch="22" RiffPosition="9.828125" Velocity="43" />
      <note Length="0.03125" Pitch="22" RiffPosition="9.84375" Velocity="41" />
      <note Length="0.0234375" Pitch="30" RiffPosition="9.875" Velocity="49" />
      <note Length="0.0078125" Pitch="30" RiffPosition="9.8984375" Velocity="53" />
      <note Length="0.0078125" Pitch="30" RiffPosition="9.90625" Velocity="53" />
      <note Length="0.0234375" Pitch="30" RiffPosition="9.9140625" Velocity="36" />
      <note Length="0.015625" Pitch="34" RiffPosition="9.9375" Velocity="73" />
      <note Length="0.015625" Pitch="34" RiffPosition="9.953125" Velocity="75" />
      <note Length="0.03125" Pitch="34" RiffPosition="9.96875" Velocity="46" />
      <note Length="0.0234375" Pitch="48" RiffPosition="10" Velocity="42" />
      <note Length="0.0078125" Pitch="48" RiffPosition="10.0234375" Velocity="57" />
      <note Length="0.0078125" Pitch="48" RiffPosition="10.03125" Velocity="49" />
      <note Length="0.0234375" Pitch="48" RiffPosition="10.0390625" Velocity="55" />
      <note Length="0.015625" Pitch="43" RiffPosition="10.0625" Velocity="52" />
      <note Length="0.015625" Pitch="43" RiffPosition="10.078125" Velocity="68" />
      <note Length="0.03125" Pitch="43" RiffPosition="10.09375" Velocity="73" />
      <note Length="0.0234375" Pitch="31" RiffPosition="10.125" Velocity="46" />
      <note Length="0.0078125" Pitch="31" RiffPosition="10.1484375" Velocity="61" />
      <note Length="0.0078125" Pitch="31" RiffPosition="10.15625" Velocity="97" />
      <note Length="0.0234375" Pitch="31" RiffPosition="10.1640625" Velocity="63" />
      <note Length="0.015625" Pitch="43" RiffPosition="10.1875" Velocity="44" />
      <note Length="0.015625" Pitch="43" RiffPosition="10.203125" Velocity="44" />
      <note Length="0.03125" Pitch="43" RiffPosition="10.21875" Velocity="43" />
      <note Length="0.0234375" Pitch="48" RiffPosition="10.25" Velocity="58" />
      <note Length="0.0078125" Pitch="48" RiffPosition="10.2734375" Velocity="92" />
      <note Length="0.0078125" Pitch="48" RiffPosition="10.28125" Velocity="65" />
      <note Length="0.0234375" Pitch="46" RiffPosition="10.2890625" Velocity="39" />
      <note Length="0.015625" Pitch="43" RiffPosition="10.3125" Velocity="73" />
      <note Length="0.015625" Pitch="43" RiffPosition="10.328125" Velocity="72" />
      <note Length="0.03125" Pitch="43" RiffPosition="10.34375" Velocity="51" />
      <note Length="0.0234375" Pitch="39" RiffPosition="10.375" Velocity="87" />
      <note Length="0.0078125" Pitch="39" RiffPosition="10.3984375" Velocity="71" />
      <note Length="0.0078125" Pitch="39" RiffPosition="10.40625" Velocity="37" />
      <note Length="0.0234375" Pitch="39" RiffPosition="10.4140625" Velocity="67" />
      <note Length="0.015625" Pitch="31" RiffPosition="10.4375" Velocity="38" />
      <note Length="0.015625" Pitch="31" RiffPosition="10.453125" Velocity="48" />
      <note Length="0.03125" Pitch="31" RiffPosition="10.46875" Velocity="47" />
      <note Length="0.0234375" Pitch="46" RiffPosition="10.5" Velocity="77" />
      <note Length="0.0078125" Pitch="46" RiffPosition="10.5234375" Velocity="43" />
      <note Length="0.0078125" Pitch="46" RiffPosition="10.53125" Velocity="61" />
      <note Length="0.0234375" Pitch="46" RiffPosition="10.5390625" Velocity="44" />
      <note Length="0.015625" Pitch="31" RiffPosition="10.5625" Velocity="62" />
      <note Length="0.015625" Pitch="31" RiffPosition="10.578125" Velocity="63" />
      <note Length="0.03125" Pitch="31" RiffPosition="10.59375" Velocity="75" />
      <note Length="0.0234375" Pitch="38" RiffPosition="10.625" Velocity="48" />
      <note Length="0.0078125" Pitch="38" RiffPosition="10.6484375" Velocity="55" />
      <note Length="0.0078125" Pitch="38" RiffPosition="10.65625" Velocity="102" />
      <note Length="0.0234375" Pitch="38" RiffPosition="10.6640625" Velocity="68" />
      <note Length="0.015625" Pitch="31" RiffPosition="10.6875" Velocity="40" />
      <note Length="0.015625" Pitch="31" RiffPosition="10.703125" Velocity="42" />
      <note Length="0.03125" Pitch="31" RiffPosition="10.71875" Velocity="79" />
      <note Length="0.0234375" Pitch="46" RiffPosition="10.75" Velocity="64" />
      <note Length="0.0078125" Pitch="46" RiffPosition="10.7734375" Velocity="90" />
      <note Length="0.0078125" Pitch="46" RiffPosition="10.78125" Velocity="55" />
      <note Length="0.0234375" Pitch="46" RiffPosition="10.7890625" Velocity="51" />
      <note Length="0.015625" Pitch="31" RiffPosition="10.8125" Velocity="35" />
      <note Length="0.015625" Pitch="31" RiffPosition="10.828125" Velocity="37" />
      <note Length="0.03125" Pitch="31" RiffPosition="10.84375" Velocity="39" />
      <note Length="0.0234375" Pitch="39" RiffPosition="10.875" Velocity="80" />
      <note Length="0.0078125" Pitch="39" RiffPosition="10.8984375" Velocity="42" />
      <note Length="0.0078125" Pitch="39" RiffPosition="10.90625" Velocity="63" />
      <note Length="0.0234375" Pitch="39" RiffPosition="10.9140625" Velocity="40" />
      <note Length="0.015625" Pitch="43" RiffPosition="10.9375" Velocity="55" />
      <note Length="0.015625" Pitch="43" RiffPosition="10.953125" Velocity="54" />
      <note Length="0.03125" Pitch="43" RiffPosition="10.96875" Velocity="87" />
      <note Length="0.0234375" Pitch="39" RiffPosition="11" Velocity="39" />
      <note Length="0.0078125" Pitch="39" RiffPosition="11.0234375" Velocity="46" />
      <note Length="0.0078125" Pitch="39" RiffPosition="11.03125" Velocity="59" />
      <note Length="0.0234375" Pitch="39" RiffPosition="11.0390625" Velocity="45" />
      <note Length="0.015625" Pitch="34" RiffPosition="11.0625" Velocity="63" />
      <note Length="0.015625" Pitch="34" RiffPosition="11.078125" Velocity="58" />
      <note Length="0.03125" Pitch="34" RiffPosition="11.09375" Velocity="56" />
      <note Length="0.0234375" Pitch="22" RiffPosition="11.125" Velocity="87" />
      <note Length="0.0078125" Pitch="22" RiffPosition="11.1484375" Velocity="72" />
      <note Length="0.0078125" Pitch="22" RiffPosition="11.15625" Velocity="38" />
      <note Length="0.0234375" Pitch="22" RiffPosition="11.1640625" Velocity="74" />
      <note Length="0.015625" Pitch="34" RiffPosition="11.1875" Velocity="55" />
      <note Length="0.015625" Pitch="34" RiffPosition="11.203125" Velocity="54" />
      <note Length="0.03125" Pitch="34" RiffPosition="11.21875" Velocity="54" />
      <note Length="0.0234375" Pitch="39" RiffPosition="11.25" Velocity="69" />
      <note Length="0.0078125" Pitch="39" RiffPosition="11.2734375" Velocity="37" />
      <note Length="0.0078125" Pitch="39" RiffPosition="11.28125" Velocity="68" />
      <note Length="0.0234375" Pitch="37" RiffPosition="11.2890625" Velocity="49" />
      <note Length="0.015625" Pitch="34" RiffPosition="11.3125" Velocity="56" />
      <note Length="0.015625" Pitch="34" RiffPosition="11.328125" Velocity="82" />
      <note Length="0.03125" Pitch="34" RiffPosition="11.34375" Velocity="41" />
      <note Length="0.0234375" Pitch="30" RiffPosition="11.375" Velocity="42" />
      <note Length="0.0078125" Pitch="30" RiffPosition="11.3984375" Velocity="61" />
      <note Length="0.0078125" Pitch="30" RiffPosition="11.40625" Velocity="43" />
      <note Length="0.0234375" Pitch="30" RiffPosition="11.4140625" Velocity="61" />
      <note Length="0.015625" Pitch="22" RiffPosition="11.4375" Velocity="42" />
      <note Length="0.015625" Pitch="22" RiffPosition="11.453125" Velocity="81" />
      <note Length="0.03125" Pitch="22" RiffPosition="11.46875" Velocity="58" />
      <note Length="0.0234375" Pitch="37" RiffPosition="11.5" Velocity="56" />
      <note Length="0.0078125" Pitch="37" RiffPosition="11.5234375" Velocity="38" />
      <note Length="0.0078125" Pitch="37" RiffPosition="11.53125" Velocity="67" />
      <note Length="0.0234375" Pitch="37" RiffPosition="11.5390625" Velocity="37" />
      <note Length="0.015625" Pitch="22" RiffPosition="11.5625" Velocity="52" />
      <note Length="0.015625" Pitch="22" RiffPosition="11.578125" Velocity="53" />
      <note Length="0.03125" Pitch="22" RiffPosition="11.59375" Velocity="53" />
      <note Length="0.0234375" Pitch="29" RiffPosition="11.625" Velocity="38" />
      <note Length="0.0078125" Pitch="29" RiffPosition="11.6484375" Velocity="66" />
      <note Length="0.0078125" Pitch="29" RiffPosition="11.65625" Velocity="39" />
      <note Length="0.0234375" Pitch="29" RiffPosition="11.6640625" Velocity="57" />
      <note Length="0.015625" Pitch="22" RiffPosition="11.6875" Velocity="50" />
      <note Length="0.015625" Pitch="22" RiffPosition="11.703125" Velocity="52" />
      <note Length="0.03125" Pitch="22" RiffPosition="11.71875" Velocity="69" />
      <note Length="0.0234375" Pitch="37" RiffPosition="11.75" Velocity="65" />
      <note Length="0.0078125" Pitch="37" RiffPosition="11.7734375" Velocity="80" />
      <note Length="0.0078125" Pitch="37" RiffPosition="11.78125" Velocity="44" />
      <note Length="0.0234375" Pitch="37" RiffPosition="11.7890625" Velocity="78" />
      <note Length="0.015625" Pitch="22" RiffPosition="11.8125" Velocity="41" />
      <note Length="0.015625" Pitch="22" RiffPosition="11.828125" Velocity="91" />
      <note Length="0.03125" Pitch="22" RiffPosition="11.84375" Velocity="50" />
      <note Length="0.0234375" Pitch="30" RiffPosition="11.875" Velocity="69" />
      <note Length="0.0078125" Pitch="30" RiffPosition="11.8984375" Velocity="38" />
      <note Length="0.0078125" Pitch="30" RiffPosition="11.90625" Velocity="74" />
      <note Length="0.0234375" Pitch="30" RiffPosition="11.9140625" Velocity="40" />
      <note Length="0.015625" Pitch="34" RiffPosition="11.9375" Velocity="45" />
      <note Length="0.015625" Pitch="34" RiffPosition="11.953125" Velocity="43" />
      <note Length="0.03125" Pitch="34" RiffPosition="11.96875" Velocity="41" />
      <note Length="0.0234375" Pitch="48" RiffPosition="12" Velocity="0" />
      <note Length="0.0078125" Pitch="48" RiffPosition="12.0234375" Velocity="0" />
      <note Length="0.0078125" Pitch="48" RiffPosition="12.03125" Velocity="0" />
      <note Length="0.0234375" Pitch="48" RiffPosition="12.0390625" Velocity="0" />
      <note Length="0.015625" Pitch="43" RiffPosition="12.0625" Velocity="0" />
      <note Length="0.015625" Pitch="43" RiffPosition="12.078125" Velocity="0" />
      <note Length="0.03125" Pitch="43" RiffPosition="12.09375" Velocity="0" />
      <note Length="0.0234375" Pitch="31" RiffPosition="12.125" Velocity="0" />
      <note Length="0.0078125" Pitch="31" RiffPosition="12.1484375" Velocity="0" />
      <note Length="0.0078125" Pitch="31" RiffPosition="12.15625" Velocity="0" />
      <note Length="0.0234375" Pitch="31" RiffPosition="12.1640625" Velocity="0" />
      <note Length="0.015625" Pitch="43" RiffPosition="12.1875" Velocity="0" />
      <note Length="0.015625" Pitch="43" RiffPosition="12.203125" Velocity="0" />
      <note Length="0.03125" Pitch="43" RiffPosition="12.21875" Velocity="0" />
      <note Length="0.0234375" Pitch="48" RiffPosition="12.25" Velocity="0" />
      <note Length="0.0078125" Pitch="48" RiffPosition="12.2734375" Velocity="0" />
      <note Length="0.0078125" Pitch="48" RiffPosition="12.28125" Velocity="0" />
      <note Length="0.0234375" Pitch="46" RiffPosition="12.2890625" Velocity="0" />
      <note Length="0.015625" Pitch="43" RiffPosition="12.3125" Velocity="0" />
      <note Length="0.015625" Pitch="43" RiffPosition="12.328125" Velocity="0" />
      <note Length="0.03125" Pitch="43" RiffPosition="12.34375" Velocity="0" />
      <note Length="0.0234375" Pitch="39" RiffPosition="12.375" Velocity="0" />
      <note Length="0.0078125" Pitch="39" RiffPosition="12.3984375" Velocity="0" />
      <note Length="0.0078125" Pitch="39" RiffPosition="12.40625" Velocity="0" />
      <note Length="0.0234375" Pitch="39" RiffPosition="12.4140625" Velocity="0" />
      <note Length="0.015625" Pitch="31" RiffPosition="12.4375" Velocity="0" />
      <note Length="0.015625" Pitch="31" RiffPosition="12.453125" Velocity="0" />
      <note Length="0.03125" Pitch="31" RiffPosition="12.46875" Velocity="0" />
      <note Length="0.0234375" Pitch="46" RiffPosition="12.5" Velocity="0" />
      <note Length="0.0078125" Pitch="46" RiffPosition="12.5234375" Velocity="0" />
      <note Length="0.0078125" Pitch="46" RiffPosition="12.53125" Velocity="0" />
      <note Length="0.0234375" Pitch="46" RiffPosition="12.5390625" Velocity="0" />
      <note Length="0.015625" Pitch="31" RiffPosition="12.5625" Velocity="0" />
      <note Length="0.015625" Pitch="31" RiffPosition="12.578125" Velocity="0" />
      <note Length="0.03125" Pitch="31" RiffPosition="12.59375" Velocity="0" />
      <note Length="0.0234375" Pitch="38" RiffPosition="12.625" Velocity="0" />
      <note Length="0.0078125" Pitch="38" RiffPosition="12.6484375" Velocity="0" />
      <note Length="0.0078125" Pitch="38" RiffPosition="12.65625" Velocity="0" />
      <note Length="0.0234375" Pitch="38" RiffPosition="12.6640625" Velocity="0" />
      <note Length="0.015625" Pitch="31" RiffPosition="12.6875" Velocity="0" />
      <note Length="0.015625" Pitch="31" RiffPosition="12.703125" Velocity="0" />
      <note Length="0.03125" Pitch="31" RiffPosition="12.71875" Velocity="0" />
      <note Length="0.0234375" Pitch="46" RiffPosition="12.75" Velocity="0" />
      <note Length="0.0078125" Pitch="46" RiffPosition="12.7734375" Velocity="0" />
      <note Length="0.0078125" Pitch="46" RiffPosition="12.78125" Velocity="0" />
      <note Length="0.0234375" Pitch="46" RiffPosition="12.7890625" Velocity="0" />
      <note Length="0.015625" Pitch="31" RiffPosition="12.8125" Velocity="0" />
      <note Length="0.015625" Pitch="31" RiffPosition="12.828125" Velocity="0" />
      <note Length="0.03125" Pitch="31" RiffPosition="12.84375" Velocity="0" />
      <note Length="0.0234375" Pitch="39" RiffPosition="12.875" Velocity="0" />
      <note Length="0.0078125" Pitch="39" RiffPosition="12.8984375" Velocity="0" />
      <note Length="0.0078125" Pitch="39" RiffPosition="12.90625" Velocity="0" />
      <note Length="0.0234375" Pitch="39" RiffPosition="12.9140625" Velocity="0" />
      <note Length="0.015625" Pitch="43" RiffPosition="12.9375" Velocity="0" />
      <note Length="0.015625" Pitch="43" RiffPosition="12.953125" Velocity="0" />
      <note Length="0.03125" Pitch="43" RiffPosition="12.96875" Velocity="0" />
      <note Length="0.0234375" Pitch="50" RiffPosition="13" Velocity="0" />
      <note Length="0.0078125" Pitch="50" RiffPosition="13.0234375" Velocity="0" />
      <note Length="0.0078125" Pitch="50" RiffPosition="13.03125" Velocity="0" />
      <note Length="0.0234375" Pitch="50" RiffPosition="13.0390625" Velocity="0" />
      <note Length="0.015625" Pitch="45" RiffPosition="13.0625" Velocity="0" />
      <note Length="0.015625" Pitch="45" RiffPosition="13.078125" Velocity="0" />
      <note Length="0.03125" Pitch="45" RiffPosition="13.09375" Velocity="0" />
      <note Length="0.0234375" Pitch="33" RiffPosition="13.125" Velocity="0" />
      <note Length="0.0078125" Pitch="33" RiffPosition="13.1484375" Velocity="0" />
      <note Length="0.0078125" Pitch="33" RiffPosition="13.15625" Velocity="0" />
      <note Length="0.0234375" Pitch="33" RiffPosition="13.1640625" Velocity="0" />
      <note Length="0.015625" Pitch="45" RiffPosition="13.1875" Velocity="0" />
      <note Length="0.015625" Pitch="45" RiffPosition="13.203125" Velocity="0" />
      <note Length="0.03125" Pitch="45" RiffPosition="13.21875" Velocity="0" />
      <note Length="0.0234375" Pitch="50" RiffPosition="13.25" Velocity="0" />
      <note Length="0.0078125" Pitch="50" RiffPosition="13.2734375" Velocity="0" />
      <note Length="0.0078125" Pitch="50" RiffPosition="13.28125" Velocity="0" />
      <note Length="0.0234375" Pitch="48" RiffPosition="13.2890625" Velocity="0" />
      <note Length="0.015625" Pitch="45" RiffPosition="13.3125" Velocity="0" />
      <note Length="0.015625" Pitch="45" RiffPosition="13.328125" Velocity="0" />
      <note Length="0.03125" Pitch="45" RiffPosition="13.34375" Velocity="0" />
      <note Length="0.0234375" Pitch="41" RiffPosition="13.375" Velocity="0" />
      <note Length="0.0078125" Pitch="41" RiffPosition="13.3984375" Velocity="0" />
      <note Length="0.0078125" Pitch="41" RiffPosition="13.40625" Velocity="0" />
      <note Length="0.0234375" Pitch="41" RiffPosition="13.4140625" Velocity="0" />
      <note Length="0.015625" Pitch="33" RiffPosition="13.4375" Velocity="0" />
      <note Length="0.015625" Pitch="33" RiffPosition="13.453125" Velocity="0" />
      <note Length="0.03125" Pitch="33" RiffPosition="13.46875" Velocity="0" />
      <note Length="0.0234375" Pitch="48" RiffPosition="13.5" Velocity="0" />
      <note Length="0.0078125" Pitch="48" RiffPosition="13.5234375" Velocity="0" />
      <note Length="0.0078125" Pitch="48" RiffPosition="13.53125" Velocity="0" />
      <note Length="0.0234375" Pitch="48" RiffPosition="13.5390625" Velocity="0" />
      <note Length="0.015625" Pitch="33" RiffPosition="13.5625" Velocity="0" />
      <note Length="0.015625" Pitch="33" RiffPosition="13.578125" Velocity="0" />
      <note Length="0.03125" Pitch="33" RiffPosition="13.59375" Velocity="0" />
      <note Length="0.0234375" Pitch="40" RiffPosition="13.625" Velocity="0" />
      <note Length="0.0078125" Pitch="40" RiffPosition="13.6484375" Velocity="0" />
      <note Length="0.0078125" Pitch="40" RiffPosition="13.65625" Velocity="0" />
      <note Length="0.0234375" Pitch="40" RiffPosition="13.6640625" Velocity="0" />
      <note Length="0.015625" Pitch="33" RiffPosition="13.6875" Velocity="0" />
      <note Length="0.015625" Pitch="33" RiffPosition="13.703125" Velocity="0" />
      <note Length="0.03125" Pitch="33" RiffPosition="13.71875" Velocity="0" />
      <note Length="0.0234375" Pitch="48" RiffPosition="13.75" Velocity="0" />
      <note Length="0.0078125" Pitch="48" RiffPosition="13.7734375" Velocity="0" />
      <note Length="0.0078125" Pitch="48" RiffPosition="13.78125" Velocity="0" />
      <note Length="0.0234375" Pitch="48" RiffPosition="13.7890625" Velocity="0" />
      <note Length="0.015625" Pitch="33" RiffPosition="13.8125" Velocity="0" />
      <note Length="0.015625" Pitch="33" RiffPosition="13.828125" Velocity="0" />
      <note Length="0.03125" Pitch="33" RiffPosition="13.84375" Velocity="0" />
      <note Length="0.0234375" Pitch="41" RiffPosition="13.875" Velocity="0" />
      <note Length="0.0078125" Pitch="41" RiffPosition="13.8984375" Velocity="0" />
      <note Length="0.0078125" Pitch="41" RiffPosition="13.90625" Velocity="0" />
      <note Length="0.0234375" Pitch="41" RiffPosition="13.9140625" Velocity="0" />
      <note Length="0.015625" Pitch="45" RiffPosition="13.9375" Velocity="0" />
      <note Length="0.015625" Pitch="45" RiffPosition="13.953125" Velocity="0" />
      <note Length="0.03125" Pitch="45" RiffPosition="13.96875" Velocity="0" />
    </riff>
    <riff IsDrum="False" MidiInstrument="34" Tempo="144" Length="14">
      <note Length="0.0234375" Pitch="36" RiffPosition="0" Velocity="0" />
      <note Length="0.0078125" Pitch="36" RiffPosition="0.0234375" Velocity="0" />
      <note Length="0.03125" Pitch="36" RiffPosition="0.03125" Velocity="0" />
      <note Length="0.015625" Pitch="29" RiffPosition="0.0625" Velocity="0" />
      <note Length="0.015625" Pitch="29" RiffPosition="0.078125" Velocity="0" />
      <note Length="0.015625" Pitch="29" RiffPosition="0.09375" Velocity="0" />
      <note Length="0.015625" Pitch="41" RiffPosition="0.109375" Velocity="0" />
      <note Length="0.0234375" Pitch="43" RiffPosition="0.125" Velocity="0" />
      <note Length="0.0078125" Pitch="44" RiffPosition="0.1484375" Velocity="0" />
      <note Length="0.03125" Pitch="44" RiffPosition="0.15625" Velocity="0" />
      <note Length="0.015625" Pitch="43" RiffPosition="0.1875" Velocity="0" />
      <note Length="0.015625" Pitch="41" RiffPosition="0.203125" Velocity="0" />
      <note Length="0.015625" Pitch="29" RiffPosition="0.21875" Velocity="0" />
      <note Length="0.015625" Pitch="29" RiffPosition="0.234375" Velocity="0" />
      <note Length="0.0234375" Pitch="29" RiffPosition="0.25" Velocity="0" />
      <note Length="0.0078125" Pitch="29" RiffPosition="0.2734375" Velocity="0" />
      <note Length="0.03125" Pitch="29" RiffPosition="0.28125" Velocity="0" />
      <note Length="0.015625" Pitch="29" RiffPosition="0.3125" Velocity="0" />
      <note Length="0.015625" Pitch="29" RiffPosition="0.328125" Velocity="0" />
      <note Length="0.015625" Pitch="29" RiffPosition="0.34375" Velocity="0" />
      <note Length="0.015625" Pitch="41" RiffPosition="0.359375" Velocity="0" />
      <note Length="0.0234375" Pitch="41" RiffPosition="0.375" Velocity="0" />
      <note Length="0.0078125" Pitch="43" RiffPosition="0.3984375" Velocity="0" />
      <note Length="0.03125" Pitch="43" RiffPosition="0.40625" Velocity="0" />
      <note Length="0.015625" Pitch="43" RiffPosition="0.4375" Velocity="0" />
      <note Length="0.015625" Pitch="43" RiffPosition="0.453125" Velocity="0" />
      <note Length="0.015625" Pitch="41" RiffPosition="0.46875" Velocity="0" />
      <note Length="0.015625" Pitch="41" RiffPosition="0.484375" Velocity="0" />
      <note Length="0.0234375" Pitch="41" RiffPosition="0.5" Velocity="0" />
      <note Length="0.0078125" Pitch="29" RiffPosition="0.5234375" Velocity="0" />
      <note Length="0.03125" Pitch="29" RiffPosition="0.53125" Velocity="0" />
      <note Length="0.015625" Pitch="41" RiffPosition="0.5625" Velocity="0" />
      <note Length="0.015625" Pitch="41" RiffPosition="0.578125" Velocity="0" />
      <note Length="0.015625" Pitch="41" RiffPosition="0.59375" Velocity="0" />
      <note Length="0.015625" Pitch="43" RiffPosition="0.609375" Velocity="0" />
      <note Length="0.0234375" Pitch="43" RiffPosition="0.625" Velocity="0" />
      <note Length="0.0078125" Pitch="43" RiffPosition="0.6484375" Velocity="0" />
      <note Length="0.03125" Pitch="43" RiffPosition="0.65625" Velocity="0" />
      <note Length="0.015625" Pitch="41" RiffPosition="0.6875" Velocity="0" />
      <note Length="0.015625" Pitch="29" RiffPosition="0.703125" Velocity="0" />
      <note Length="0.015625" Pitch="29" RiffPosition="0.71875" Velocity="0" />
      <note Length="0.015625" Pitch="29" RiffPosition="0.734375" Velocity="0" />
      <note Length="0.0234375" Pitch="29" RiffPosition="0.75" Velocity="0" />
      <note Length="0.0078125" Pitch="29" RiffPosition="0.7734375" Velocity="0" />
      <note Length="0.03125" Pitch="29" RiffPosition="0.78125" Velocity="0" />
      <note Length="0.015625" Pitch="29" RiffPosition="0.8125" Velocity="0" />
      <note Length="0.015625" Pitch="41" RiffPosition="0.828125" Velocity="0" />
      <note Length="0.015625" Pitch="43" RiffPosition="0.84375" Velocity="0" />
      <note Length="0.015625" Pitch="44" RiffPosition="0.859375" Velocity="0" />
      <note Length="0.0234375" Pitch="44" RiffPosition="0.875" Velocity="0" />
      <note Length="0.0078125" Pitch="44" RiffPosition="0.8984375" Velocity="0" />
      <note Length="0.03125" Pitch="44" RiffPosition="0.90625" Velocity="0" />
      <note Length="0.015625" Pitch="41" RiffPosition="0.9375" Velocity="0" />
      <note Length="0.015625" Pitch="29" RiffPosition="0.953125" Velocity="0" />
      <note Length="0.015625" Pitch="29" RiffPosition="0.96875" Velocity="0" />
      <note Length="0.015625" Pitch="37" RiffPosition="0.984375" Velocity="0" />
      <note Length="0.0234375" Pitch="40" RiffPosition="1" Velocity="0" />
      <note Length="0.0078125" Pitch="40" RiffPosition="1.0234375" Velocity="0" />
      <note Length="0.03125" Pitch="40" RiffPosition="1.03125" Velocity="0" />
      <note Length="0.015625" Pitch="33" RiffPosition="1.0625" Velocity="0" />
      <note Length="0.015625" Pitch="33" RiffPosition="1.078125" Velocity="0" />
      <note Length="0.015625" Pitch="33" RiffPosition="1.09375" Velocity="0" />
      <note Length="0.015625" Pitch="45" RiffPosition="1.109375" Velocity="0" />
      <note Length="0.0234375" Pitch="47" RiffPosition="1.125" Velocity="0" />
      <note Length="0.0078125" Pitch="48" RiffPosition="1.1484375" Velocity="0" />
      <note Length="0.03125" Pitch="48" RiffPosition="1.15625" Velocity="0" />
      <note Length="0.015625" Pitch="47" RiffPosition="1.1875" Velocity="0" />
      <note Length="0.015625" Pitch="45" RiffPosition="1.203125" Velocity="0" />
      <note Length="0.015625" Pitch="33" RiffPosition="1.21875" Velocity="0" />
      <note Length="0.015625" Pitch="33" RiffPosition="1.234375" Velocity="0" />
      <note Length="0.0234375" Pitch="33" RiffPosition="1.25" Velocity="0" />
      <note Length="0.0078125" Pitch="33" RiffPosition="1.2734375" Velocity="0" />
      <note Length="0.03125" Pitch="33" RiffPosition="1.28125" Velocity="0" />
      <note Length="0.015625" Pitch="33" RiffPosition="1.3125" Velocity="0" />
      <note Length="0.015625" Pitch="33" RiffPosition="1.328125" Velocity="0" />
      <note Length="0.015625" Pitch="33" RiffPosition="1.34375" Velocity="0" />
      <note Length="0.015625" Pitch="45" RiffPosition="1.359375" Velocity="0" />
      <note Length="0.0234375" Pitch="45" RiffPosition="1.375" Velocity="0" />
      <note Length="0.0078125" Pitch="47" RiffPosition="1.3984375" Velocity="0" />
      <note Length="0.03125" Pitch="47" RiffPosition="1.40625" Velocity="0" />
      <note Length="0.015625" Pitch="47" RiffPosition="1.4375" Velocity="0" />
      <note Length="0.015625" Pitch="47" RiffPosition="1.453125" Velocity="0" />
      <note Length="0.015625" Pitch="45" RiffPosition="1.46875" Velocity="0" />
      <note Length="0.015625" Pitch="45" RiffPosition="1.484375" Velocity="0" />
      <note Length="0.0234375" Pitch="45" RiffPosition="1.5" Velocity="0" />
      <note Length="0.0078125" Pitch="33" RiffPosition="1.5234375" Velocity="0" />
      <note Length="0.03125" Pitch="33" RiffPosition="1.53125" Velocity="0" />
      <note Length="0.015625" Pitch="45" RiffPosition="1.5625" Velocity="0" />
      <note Length="0.015625" Pitch="45" RiffPosition="1.578125" Velocity="0" />
      <note Length="0.015625" Pitch="45" RiffPosition="1.59375" Velocity="0" />
      <note Length="0.015625" Pitch="47" RiffPosition="1.609375" Velocity="0" />
      <note Length="0.0234375" Pitch="47" RiffPosition="1.625" Velocity="0" />
      <note Length="0.0078125" Pitch="47" RiffPosition="1.6484375" Velocity="0" />
      <note Length="0.03125" Pitch="47" RiffPosition="1.65625" Velocity="0" />
      <note Length="0.015625" Pitch="45" RiffPosition="1.6875" Velocity="0" />
      <note Length="0.015625" Pitch="33" RiffPosition="1.703125" Velocity="0" />
      <note Length="0.015625" Pitch="33" RiffPosition="1.71875" Velocity="0" />
      <note Length="0.015625" Pitch="33" RiffPosition="1.734375" Velocity="0" />
      <note Length="0.0234375" Pitch="33" RiffPosition="1.75" Velocity="0" />
      <note Length="0.0078125" Pitch="33" RiffPosition="1.7734375" Velocity="0" />
      <note Length="0.03125" Pitch="33" RiffPosition="1.78125" Velocity="0" />
      <note Length="0.015625" Pitch="33" RiffPosition="1.8125" Velocity="0" />
      <note Length="0.015625" Pitch="45" RiffPosition="1.828125" Velocity="0" />
      <note Length="0.015625" Pitch="47" RiffPosition="1.84375" Velocity="0" />
      <note Length="0.015625" Pitch="48" RiffPosition="1.859375" Velocity="0" />
      <note Length="0.0234375" Pitch="48" RiffPosition="1.875" Velocity="0" />
      <note Length="0.0078125" Pitch="48" RiffPosition="1.8984375" Velocity="0" />
      <note Length="0.03125" Pitch="48" RiffPosition="1.90625" Velocity="0" />
      <note Length="0.015625" Pitch="45" RiffPosition="1.9375" Velocity="0" />
      <note Length="0.015625" Pitch="33" RiffPosition="1.953125" Velocity="0" />
      <note Length="0.015625" Pitch="33" RiffPosition="1.96875" Velocity="0" />
      <note Length="0.015625" Pitch="41" RiffPosition="1.984375" Velocity="0" />
      <note Length="0.0234375" Pitch="37" RiffPosition="2" Velocity="0" />
      <note Length="0.0078125" Pitch="37" RiffPosition="2.0234375" Velocity="0" />
      <note Length="0.03125" Pitch="37" RiffPosition="2.03125" Velocity="0" />
      <note Length="0.015625" Pitch="30" RiffPosition="2.0625" Velocity="0" />
      <note Length="0.015625" Pitch="30" RiffPosition="2.078125" Velocity="0" />
      <note Length="0.015625" Pitch="30" RiffPosition="2.09375" Velocity="0" />
      <note Length="0.015625" Pitch="42" RiffPosition="2.109375" Velocity="0" />
      <note Length="0.0234375" Pitch="44" RiffPosition="2.125" Velocity="0" />
      <note Length="0.0078125" Pitch="45" RiffPosition="2.1484375" Velocity="0" />
      <note Length="0.03125" Pitch="45" RiffPosition="2.15625" Velocity="0" />
      <note Length="0.015625" Pitch="44" RiffPosition="2.1875" Velocity="0" />
      <note Length="0.015625" Pitch="42" RiffPosition="2.203125" Velocity="0" />
      <note Length="0.015625" Pitch="30" RiffPosition="2.21875" Velocity="0" />
      <note Length="0.015625" Pitch="30" RiffPosition="2.234375" Velocity="0" />
      <note Length="0.0234375" Pitch="30" RiffPosition="2.25" Velocity="0" />
      <note Length="0.0078125" Pitch="30" RiffPosition="2.2734375" Velocity="0" />
      <note Length="0.03125" Pitch="30" RiffPosition="2.28125" Velocity="0" />
      <note Length="0.015625" Pitch="30" RiffPosition="2.3125" Velocity="0" />
      <note Length="0.015625" Pitch="30" RiffPosition="2.328125" Velocity="0" />
      <note Length="0.015625" Pitch="30" RiffPosition="2.34375" Velocity="0" />
      <note Length="0.015625" Pitch="42" RiffPosition="2.359375" Velocity="0" />
      <note Length="0.0234375" Pitch="42" RiffPosition="2.375" Velocity="0" />
      <note Length="0.0078125" Pitch="44" RiffPosition="2.3984375" Velocity="0" />
      <note Length="0.03125" Pitch="44" RiffPosition="2.40625" Velocity="0" />
      <note Length="0.015625" Pitch="44" RiffPosition="2.4375" Velocity="0" />
      <note Length="0.015625" Pitch="44" RiffPosition="2.453125" Velocity="0" />
      <note Length="0.015625" Pitch="42" RiffPosition="2.46875" Velocity="0" />
      <note Length="0.015625" Pitch="42" RiffPosition="2.484375" Velocity="0" />
      <note Length="0.0234375" Pitch="42" RiffPosition="2.5" Velocity="0" />
      <note Length="0.0078125" Pitch="30" RiffPosition="2.5234375" Velocity="0" />
      <note Length="0.03125" Pitch="30" RiffPosition="2.53125" Velocity="0" />
      <note Length="0.015625" Pitch="42" RiffPosition="2.5625" Velocity="0" />
      <note Length="0.015625" Pitch="42" RiffPosition="2.578125" Velocity="0" />
      <note Length="0.015625" Pitch="42" RiffPosition="2.59375" Velocity="0" />
      <note Length="0.015625" Pitch="44" RiffPosition="2.609375" Velocity="0" />
      <note Length="0.0234375" Pitch="44" RiffPosition="2.625" Velocity="0" />
      <note Length="0.0078125" Pitch="44" RiffPosition="2.6484375" Velocity="0" />
      <note Length="0.03125" Pitch="44" RiffPosition="2.65625" Velocity="0" />
      <note Length="0.015625" Pitch="42" RiffPosition="2.6875" Velocity="0" />
      <note Length="0.015625" Pitch="30" RiffPosition="2.703125" Velocity="0" />
      <note Length="0.015625" Pitch="30" RiffPosition="2.71875" Velocity="0" />
      <note Length="0.015625" Pitch="30" RiffPosition="2.734375" Velocity="0" />
      <note Length="0.0234375" Pitch="30" RiffPosition="2.75" Velocity="0" />
      <note Length="0.0078125" Pitch="30" RiffPosition="2.7734375" Velocity="0" />
      <note Length="0.03125" Pitch="30" RiffPosition="2.78125" Velocity="0" />
      <note Length="0.015625" Pitch="30" RiffPosition="2.8125" Velocity="0" />
      <note Length="0.015625" Pitch="42" RiffPosition="2.828125" Velocity="0" />
      <note Length="0.015625" Pitch="44" RiffPosition="2.84375" Velocity="0" />
      <note Length="0.015625" Pitch="45" RiffPosition="2.859375" Velocity="0" />
      <note Length="0.0234375" Pitch="45" RiffPosition="2.875" Velocity="0" />
      <note Length="0.0078125" Pitch="45" RiffPosition="2.8984375" Velocity="0" />
      <note Length="0.03125" Pitch="45" RiffPosition="2.90625" Velocity="0" />
      <note Length="0.015625" Pitch="42" RiffPosition="2.9375" Velocity="0" />
      <note Length="0.015625" Pitch="30" RiffPosition="2.953125" Velocity="0" />
      <note Length="0.015625" Pitch="30" RiffPosition="2.96875" Velocity="0" />
      <note Length="0.015625" Pitch="38" RiffPosition="2.984375" Velocity="0" />
      <note Length="0.0234375" Pitch="30" RiffPosition="3" Velocity="0" />
      <note Length="0.0078125" Pitch="30" RiffPosition="3.0234375" Velocity="0" />
      <note Length="0.03125" Pitch="30" RiffPosition="3.03125" Velocity="0" />
      <note Length="0.015625" Pitch="23" RiffPosition="3.0625" Velocity="0" />
      <note Length="0.015625" Pitch="23" RiffPosition="3.078125" Velocity="0" />
      <note Length="0.015625" Pitch="23" RiffPosition="3.09375" Velocity="0" />
      <note Length="0.015625" Pitch="35" RiffPosition="3.109375" Velocity="0" />
      <note Length="0.0234375" Pitch="37" RiffPosition="3.125" Velocity="0" />
      <note Length="0.0078125" Pitch="38" RiffPosition="3.1484375" Velocity="0" />
      <note Length="0.03125" Pitch="38" RiffPosition="3.15625" Velocity="0" />
      <note Length="0.015625" Pitch="37" RiffPosition="3.1875" Velocity="0" />
      <note Length="0.015625" Pitch="35" RiffPosition="3.203125" Velocity="0" />
      <note Length="0.015625" Pitch="23" RiffPosition="3.21875" Velocity="0" />
      <note Length="0.015625" Pitch="23" RiffPosition="3.234375" Velocity="0" />
      <note Length="0.0234375" Pitch="23" RiffPosition="3.25" Velocity="0" />
      <note Length="0.0078125" Pitch="23" RiffPosition="3.2734375" Velocity="0" />
      <note Length="0.03125" Pitch="23" RiffPosition="3.28125" Velocity="0" />
      <note Length="0.015625" Pitch="23" RiffPosition="3.3125" Velocity="0" />
      <note Length="0.015625" Pitch="23" RiffPosition="3.328125" Velocity="0" />
      <note Length="0.015625" Pitch="23" RiffPosition="3.34375" Velocity="0" />
      <note Length="0.015625" Pitch="35" RiffPosition="3.359375" Velocity="0" />
      <note Length="0.0234375" Pitch="35" RiffPosition="3.375" Velocity="0" />
      <note Length="0.0078125" Pitch="37" RiffPosition="3.3984375" Velocity="0" />
      <note Length="0.03125" Pitch="37" RiffPosition="3.40625" Velocity="0" />
      <note Length="0.015625" Pitch="37" RiffPosition="3.4375" Velocity="0" />
      <note Length="0.015625" Pitch="37" RiffPosition="3.453125" Velocity="0" />
      <note Length="0.015625" Pitch="35" RiffPosition="3.46875" Velocity="0" />
      <note Length="0.015625" Pitch="35" RiffPosition="3.484375" Velocity="0" />
      <note Length="0.0234375" Pitch="35" RiffPosition="3.5" Velocity="0" />
      <note Length="0.0078125" Pitch="23" RiffPosition="3.5234375" Velocity="0" />
      <note Length="0.03125" Pitch="23" RiffPosition="3.53125" Velocity="0" />
      <note Length="0.015625" Pitch="35" RiffPosition="3.5625" Velocity="0" />
      <note Length="0.015625" Pitch="35" RiffPosition="3.578125" Velocity="0" />
      <note Length="0.015625" Pitch="35" RiffPosition="3.59375" Velocity="0" />
      <note Length="0.015625" Pitch="37" RiffPosition="3.609375" Velocity="0" />
      <note Length="0.0234375" Pitch="37" RiffPosition="3.625" Velocity="0" />
      <note Length="0.0078125" Pitch="37" RiffPosition="3.6484375" Velocity="0" />
      <note Length="0.03125" Pitch="37" RiffPosition="3.65625" Velocity="0" />
      <note Length="0.015625" Pitch="35" RiffPosition="3.6875" Velocity="0" />
      <note Length="0.015625" Pitch="23" RiffPosition="3.703125" Velocity="0" />
      <note Length="0.015625" Pitch="23" RiffPosition="3.71875" Velocity="0" />
      <note Length="0.015625" Pitch="23" RiffPosition="3.734375" Velocity="0" />
      <note Length="0.0234375" Pitch="23" RiffPosition="3.75" Velocity="0" />
      <note Length="0.0078125" Pitch="23" RiffPosition="3.7734375" Velocity="0" />
      <note Length="0.03125" Pitch="23" RiffPosition="3.78125" Velocity="0" />
      <note Length="0.015625" Pitch="23" RiffPosition="3.8125" Velocity="0" />
      <note Length="0.015625" Pitch="35" RiffPosition="3.828125" Velocity="0" />
      <note Length="0.015625" Pitch="37" RiffPosition="3.84375" Velocity="0" />
      <note Length="0.015625" Pitch="38" RiffPosition="3.859375" Velocity="0" />
      <note Length="0.0234375" Pitch="38" RiffPosition="3.875" Velocity="0" />
      <note Length="0.0078125" Pitch="38" RiffPosition="3.8984375" Velocity="0" />
      <note Length="0.03125" Pitch="38" RiffPosition="3.90625" Velocity="0" />
      <note Length="0.015625" Pitch="35" RiffPosition="3.9375" Velocity="0" />
      <note Length="0.015625" Pitch="23" RiffPosition="3.953125" Velocity="0" />
      <note Length="0.015625" Pitch="23" RiffPosition="3.96875" Velocity="0" />
      <note Length="0.015625" Pitch="31" RiffPosition="3.984375" Velocity="0" />
      <note Length="0.0234375" Pitch="37" RiffPosition="4" Velocity="60" />
      <note Length="0.0078125" Pitch="37" RiffPosition="4.0234375" Velocity="36" />
      <note Length="0.03125" Pitch="37" RiffPosition="4.03125" Velocity="44" />
      <note Length="0.015625" Pitch="30" RiffPosition="4.0625" Velocity="87" />
      <note Length="0.015625" Pitch="30" RiffPosition="4.078125" Velocity="81" />
      <note Length="0.015625" Pitch="30" RiffPosition="4.09375" Velocity="70" />
      <note Length="0.015625" Pitch="42" RiffPosition="4.109375" Velocity="61" />
      <note Length="0.0234375" Pitch="44" RiffPosition="4.125" Velocity="61" />
      <note Length="0.0078125" Pitch="45" RiffPosition="4.1484375" Velocity="78" />
      <note Length="0.03125" Pitch="45" RiffPosition="4.15625" Velocity="85" />
      <note Length="0.015625" Pitch="44" RiffPosition="4.1875" Velocity="93" />
      <note Length="0.015625" Pitch="42" RiffPosition="4.203125" Velocity="101" />
      <note Length="0.015625" Pitch="30" RiffPosition="4.21875" Velocity="82" />
      <note Length="0.015625" Pitch="30" RiffPosition="4.234375" Velocity="65" />
      <note Length="0.0234375" Pitch="30" RiffPosition="4.25" Velocity="56" />
      <note Length="0.0078125" Pitch="30" RiffPosition="4.2734375" Velocity="61" />
      <note Length="0.03125" Pitch="30" RiffPosition="4.28125" Velocity="65" />
      <note Length="0.015625" Pitch="30" RiffPosition="4.3125" Velocity="60" />
      <note Length="0.015625" Pitch="30" RiffPosition="4.328125" Velocity="41" />
      <note Length="0.015625" Pitch="30" RiffPosition="4.34375" Velocity="53" />
      <note Length="0.015625" Pitch="42" RiffPosition="4.359375" Velocity="53" />
      <note Length="0.0234375" Pitch="42" RiffPosition="4.375" Velocity="63" />
      <note Length="0.0078125" Pitch="44" RiffPosition="4.3984375" Velocity="60" />
      <note Length="0.03125" Pitch="44" RiffPosition="4.40625" Velocity="56" />
      <note Length="0.015625" Pitch="44" RiffPosition="4.4375" Velocity="58" />
      <note Length="0.015625" Pitch="44" RiffPosition="4.453125" Velocity="73" />
      <note Length="0.015625" Pitch="42" RiffPosition="4.46875" Velocity="92" />
      <note Length="0.015625" Pitch="42" RiffPosition="4.484375" Velocity="107" />
      <note Length="0.0234375" Pitch="42" RiffPosition="4.5" Velocity="112" />
      <note Length="0.0078125" Pitch="30" RiffPosition="4.5234375" Velocity="77" />
      <note Length="0.03125" Pitch="30" RiffPosition="4.53125" Velocity="70" />
      <note Length="0.015625" Pitch="42" RiffPosition="4.5625" Velocity="55" />
      <note Length="0.015625" Pitch="42" RiffPosition="4.578125" Velocity="62" />
      <note Length="0.015625" Pitch="42" RiffPosition="4.59375" Velocity="73" />
      <note Length="0.015625" Pitch="44" RiffPosition="4.609375" Velocity="81" />
      <note Length="0.0234375" Pitch="44" RiffPosition="4.625" Velocity="78" />
      <note Length="0.0078125" Pitch="44" RiffPosition="4.6484375" Velocity="54" />
      <note Length="0.03125" Pitch="44" RiffPosition="4.65625" Velocity="44" />
      <note Length="0.015625" Pitch="42" RiffPosition="4.6875" Velocity="70" />
      <note Length="0.015625" Pitch="30" RiffPosition="4.703125" Velocity="66" />
      <note Length="0.015625" Pitch="30" RiffPosition="4.71875" Velocity="56" />
      <note Length="0.015625" Pitch="30" RiffPosition="4.734375" Velocity="49" />
      <note Length="0.0234375" Pitch="30" RiffPosition="4.75" Velocity="51" />
      <note Length="0.0078125" Pitch="30" RiffPosition="4.7734375" Velocity="72" />
      <note Length="0.03125" Pitch="30" RiffPosition="4.78125" Velocity="80" />
      <note Length="0.015625" Pitch="30" RiffPosition="4.8125" Velocity="94" />
      <note Length="0.015625" Pitch="42" RiffPosition="4.828125" Velocity="84" />
      <note Length="0.015625" Pitch="44" RiffPosition="4.84375" Velocity="88" />
      <note Length="0.015625" Pitch="45" RiffPosition="4.859375" Velocity="74" />
      <note Length="0.0234375" Pitch="45" RiffPosition="4.875" Velocity="68" />
      <note Length="0.0078125" Pitch="45" RiffPosition="4.8984375" Velocity="76" />
      <note Length="0.03125" Pitch="45" RiffPosition="4.90625" Velocity="81" />
      <note Length="0.015625" Pitch="42" RiffPosition="4.9375" Velocity="79" />
      <note Length="0.015625" Pitch="30" RiffPosition="4.953125" Velocity="62" />
      <note Length="0.015625" Pitch="30" RiffPosition="4.96875" Velocity="38" />
      <note Length="0.015625" Pitch="38" RiffPosition="4.984375" Velocity="52" />
      <note Length="0.0234375" Pitch="30" RiffPosition="5" Velocity="43" />
      <note Length="0.0078125" Pitch="30" RiffPosition="5.0234375" Velocity="40" />
      <note Length="0.03125" Pitch="30" RiffPosition="5.03125" Velocity="37" />
      <note Length="0.015625" Pitch="23" RiffPosition="5.0625" Velocity="42" />
      <note Length="0.015625" Pitch="23" RiffPosition="5.078125" Velocity="59" />
      <note Length="0.015625" Pitch="23" RiffPosition="5.09375" Velocity="81" />
      <note Length="0.015625" Pitch="35" RiffPosition="5.109375" Velocity="99" />
      <note Length="0.0234375" Pitch="37" RiffPosition="5.125" Velocity="106" />
      <note Length="0.0078125" Pitch="38" RiffPosition="5.1484375" Velocity="96" />
      <note Length="0.03125" Pitch="38" RiffPosition="5.15625" Velocity="69" />
      <note Length="0.015625" Pitch="37" RiffPosition="5.1875" Velocity="60" />
      <note Length="0.015625" Pitch="35" RiffPosition="5.203125" Velocity="70" />
      <note Length="0.015625" Pitch="23" RiffPosition="5.21875" Velocity="84" />
      <note Length="0.015625" Pitch="23" RiffPosition="5.234375" Velocity="93" />
      <note Length="0.0234375" Pitch="23" RiffPosition="5.25" Velocity="92" />
      <note Length="0.0078125" Pitch="23" RiffPosition="5.2734375" Velocity="70" />
      <note Length="0.03125" Pitch="23" RiffPosition="5.28125" Velocity="61" />
      <note Length="0.015625" Pitch="23" RiffPosition="5.3125" Velocity="52" />
      <note Length="0.015625" Pitch="23" RiffPosition="5.328125" Velocity="48" />
      <note Length="0.015625" Pitch="23" RiffPosition="5.34375" Velocity="39" />
      <note Length="0.015625" Pitch="35" RiffPosition="5.359375" Velocity="37" />
      <note Length="0.0234375" Pitch="35" RiffPosition="5.375" Velocity="36" />
      <note Length="0.0078125" Pitch="37" RiffPosition="5.3984375" Velocity="59" />
      <note Length="0.03125" Pitch="37" RiffPosition="5.40625" Velocity="69" />
      <note Length="0.015625" Pitch="37" RiffPosition="5.4375" Velocity="88" />
      <note Length="0.015625" Pitch="37" RiffPosition="5.453125" Velocity="80" />
      <note Length="0.015625" Pitch="35" RiffPosition="5.46875" Velocity="67" />
      <note Length="0.015625" Pitch="35" RiffPosition="5.484375" Velocity="76" />
      <note Length="0.0234375" Pitch="35" RiffPosition="5.5" Velocity="73" />
      <note Length="0.0078125" Pitch="23" RiffPosition="5.5234375" Velocity="85" />
      <note Length="0.03125" Pitch="23" RiffPosition="5.53125" Velocity="91" />
      <note Length="0.015625" Pitch="35" RiffPosition="5.5625" Velocity="94" />
      <note Length="0.015625" Pitch="35" RiffPosition="5.578125" Velocity="78" />
      <note Length="0.015625" Pitch="35" RiffPosition="5.59375" Velocity="57" />
      <note Length="0.015625" Pitch="37" RiffPosition="5.609375" Velocity="37" />
      <note Length="0.0234375" Pitch="37" RiffPosition="5.625" Velocity="43" />
      <note Length="0.0078125" Pitch="37" RiffPosition="5.6484375" Velocity="51" />
      <note Length="0.03125" Pitch="37" RiffPosition="5.65625" Velocity="54" />
      <note Length="0.015625" Pitch="35" RiffPosition="5.6875" Velocity="48" />
      <note Length="0.015625" Pitch="23" RiffPosition="5.703125" Velocity="41" />
      <note Length="0.015625" Pitch="23" RiffPosition="5.71875" Velocity="64" />
      <note Length="0.015625" Pitch="23" RiffPosition="5.734375" Velocity="84" />
      <note Length="0.0234375" Pitch="23" RiffPosition="5.75" Velocity="93" />
      <note Length="0.0078125" Pitch="23" RiffPosition="5.7734375" Velocity="87" />
      <note Length="0.03125" Pitch="23" RiffPosition="5.78125" Velocity="82" />
      <note Length="0.015625" Pitch="23" RiffPosition="5.8125" Velocity="58" />
      <note Length="0.015625" Pitch="35" RiffPosition="5.828125" Velocity="71" />
      <note Length="0.015625" Pitch="37" RiffPosition="5.84375" Velocity="87" />
      <note Length="0.015625" Pitch="38" RiffPosition="5.859375" Velocity="100" />
      <note Length="0.0234375" Pitch="38" RiffPosition="5.875" Velocity="101" />
      <note Length="0.0078125" Pitch="38" RiffPosition="5.8984375" Velocity="83" />
      <note Length="0.03125" Pitch="38" RiffPosition="5.90625" Velocity="74" />
      <note Length="0.015625" Pitch="35" RiffPosition="5.9375" Velocity="55" />
      <note Length="0.015625" Pitch="23" RiffPosition="5.953125" Velocity="39" />
      <note Length="0.015625" Pitch="23" RiffPosition="5.96875" Velocity="49" />
      <note Length="0.015625" Pitch="31" RiffPosition="5.984375" Velocity="55" />
      <note Length="0.0234375" Pitch="36" RiffPosition="6" Velocity="51" />
      <note Length="0.0078125" Pitch="36" RiffPosition="6.0234375" Velocity="43" />
      <note Length="0.03125" Pitch="36" RiffPosition="6.03125" Velocity="53" />
      <note Length="0.015625" Pitch="29" RiffPosition="6.0625" Velocity="75" />
      <note Length="0.015625" Pitch="29" RiffPosition="6.078125" Velocity="70" />
      <note Length="0.015625" Pitch="29" RiffPosition="6.09375" Velocity="59" />
      <note Length="0.015625" Pitch="41" RiffPosition="6.109375" Velocity="70" />
      <note Length="0.0234375" Pitch="43" RiffPosition="6.125" Velocity="70" />
      <note Length="0.0078125" Pitch="44" RiffPosition="6.1484375" Velocity="87" />
      <note Length="0.03125" Pitch="44" RiffPosition="6.15625" Velocity="94" />
      <note Length="0.015625" Pitch="43" RiffPosition="6.1875" Velocity="102" />
      <note Length="0.015625" Pitch="41" RiffPosition="6.203125" Velocity="89" />
      <note Length="0.015625" Pitch="29" RiffPosition="6.21875" Velocity="70" />
      <note Length="0.015625" Pitch="29" RiffPosition="6.234375" Velocity="53" />
      <note Length="0.0234375" Pitch="29" RiffPosition="6.25" Velocity="45" />
      <note Length="0.0078125" Pitch="29" RiffPosition="6.2734375" Velocity="70" />
      <note Length="0.03125" Pitch="29" RiffPosition="6.28125" Velocity="74" />
      <note Length="0.015625" Pitch="29" RiffPosition="6.3125" Velocity="69" />
      <note Length="0.015625" Pitch="29" RiffPosition="6.328125" Velocity="50" />
      <note Length="0.015625" Pitch="29" RiffPosition="6.34375" Velocity="44" />
      <note Length="0.015625" Pitch="41" RiffPosition="6.359375" Velocity="64" />
      <note Length="0.0234375" Pitch="41" RiffPosition="6.375" Velocity="75" />
      <note Length="0.0078125" Pitch="43" RiffPosition="6.3984375" Velocity="71" />
      <note Length="0.03125" Pitch="43" RiffPosition="6.40625" Velocity="68" />
      <note Length="0.015625" Pitch="43" RiffPosition="6.4375" Velocity="49" />
      <note Length="0.015625" Pitch="43" RiffPosition="6.453125" Velocity="64" />
      <note Length="0.015625" Pitch="41" RiffPosition="6.46875" Velocity="83" />
      <note Length="0.015625" Pitch="41" RiffPosition="6.484375" Velocity="98" />
      <note Length="0.0234375" Pitch="41" RiffPosition="6.5" Velocity="103" />
      <note Length="0.0078125" Pitch="29" RiffPosition="6.5234375" Velocity="88" />
      <note Length="0.03125" Pitch="29" RiffPosition="6.53125" Velocity="81" />
      <note Length="0.015625" Pitch="41" RiffPosition="6.5625" Velocity="66" />
      <note Length="0.015625" Pitch="41" RiffPosition="6.578125" Velocity="73" />
      <note Length="0.015625" Pitch="41" RiffPosition="6.59375" Velocity="64" />
      <note Length="0.015625" Pitch="43" RiffPosition="6.609375" Velocity="72" />
      <note Length="0.0234375" Pitch="43" RiffPosition="6.625" Velocity="69" />
      <note Length="0.0078125" Pitch="43" RiffPosition="6.6484375" Velocity="45" />
      <note Length="0.03125" Pitch="43" RiffPosition="6.65625" Velocity="35" />
      <note Length="0.015625" Pitch="41" RiffPosition="6.6875" Velocity="58" />
      <note Length="0.015625" Pitch="29" RiffPosition="6.703125" Velocity="54" />
      <note Length="0.015625" Pitch="29" RiffPosition="6.71875" Velocity="45" />
      <note Length="0.015625" Pitch="29" RiffPosition="6.734375" Velocity="38" />
      <note Length="0.0234375" Pitch="29" RiffPosition="6.75" Velocity="60" />
      <note Length="0.0078125" Pitch="29" RiffPosition="6.7734375" Velocity="81" />
      <note Length="0.03125" Pitch="29" RiffPosition="6.78125" Velocity="89" />
      <note Length="0.015625" Pitch="29" RiffPosition="6.8125" Velocity="103" />
      <note Length="0.015625" Pitch="41" RiffPosition="6.828125" Velocity="93" />
      <note Length="0.015625" Pitch="43" RiffPosition="6.84375" Velocity="77" />
      <note Length="0.015625" Pitch="44" RiffPosition="6.859375" Velocity="62" />
      <note Length="0.0234375" Pitch="44" RiffPosition="6.875" Velocity="57" />
      <note Length="0.0078125" Pitch="44" RiffPosition="6.8984375" Velocity="65" />
      <note Length="0.03125" Pitch="44" RiffPosition="6.90625" Velocity="90" />
      <note Length="0.015625" Pitch="41" RiffPosition="6.9375" Velocity="88" />
      <note Length="0.015625" Pitch="29" RiffPosition="6.953125" Velocity="70" />
      <note Length="0.015625" Pitch="29" RiffPosition="6.96875" Velocity="47" />
      <note Length="0.015625" Pitch="37" RiffPosition="6.984375" Velocity="43" />
      <note Length="0.0234375" Pitch="29" RiffPosition="7" Velocity="54" />
      <note Length="0.0078125" Pitch="29" RiffPosition="7.0234375" Velocity="52" />
      <note Length="0.03125" Pitch="29" RiffPosition="7.03125" Velocity="49" />
      <note Length="0.015625" Pitch="22" RiffPosition="7.0625" Velocity="37" />
      <note Length="0.015625" Pitch="22" RiffPosition="7.078125" Velocity="50" />
      <note Length="0.015625" Pitch="22" RiffPosition="7.09375" Velocity="72" />
      <note Length="0.015625" Pitch="34" RiffPosition="7.109375" Velocity="90" />
      <note Length="0.0234375" Pitch="36" RiffPosition="7.125" Velocity="97" />
      <note Length="0.0078125" Pitch="37" RiffPosition="7.1484375" Velocity="87" />
      <note Length="0.03125" Pitch="37" RiffPosition="7.15625" Velocity="81" />
      <note Length="0.015625" Pitch="36" RiffPosition="7.1875" Velocity="72" />
      <note Length="0.015625" Pitch="34" RiffPosition="7.203125" Velocity="81" />
      <note Length="0.015625" Pitch="22" RiffPosition="7.21875" Velocity="95" />
      <note Length="0.015625" Pitch="22" RiffPosition="7.234375" Velocity="84" />
      <note Length="0.0234375" Pitch="22" RiffPosition="7.25" Velocity="83" />
      <note Length="0.0078125" Pitch="22" RiffPosition="7.2734375" Velocity="62" />
      <note Length="0.03125" Pitch="22" RiffPosition="7.28125" Velocity="52" />
      <note Length="0.015625" Pitch="22" RiffPosition="7.3125" Velocity="40" />
      <note Length="0.015625" Pitch="22" RiffPosition="7.328125" Velocity="37" />
      <note Length="0.015625" Pitch="22" RiffPosition="7.34375" Velocity="43" />
      <note Length="0.015625" Pitch="34" RiffPosition="7.359375" Velocity="49" />
      <note Length="0.0234375" Pitch="34" RiffPosition="7.375" Velocity="45" />
      <note Length="0.0078125" Pitch="36" RiffPosition="7.3984375" Velocity="68" />
      <note Length="0.03125" Pitch="36" RiffPosition="7.40625" Velocity="78" />
      <note Length="0.015625" Pitch="36" RiffPosition="7.4375" Velocity="97" />
      <note Length="0.015625" Pitch="36" RiffPosition="7.453125" Velocity="89" />
      <note Length="0.015625" Pitch="34" RiffPosition="7.46875" Velocity="76" />
      <note Length="0.015625" Pitch="34" RiffPosition="7.484375" Velocity="64" />
      <note Length="0.0234375" Pitch="34" RiffPosition="7.5" Velocity="61" />
      <note Length="0.0078125" Pitch="22" RiffPosition="7.5234375" Velocity="74" />
      <note Length="0.03125" Pitch="22" RiffPosition="7.53125" Velocity="79" />
      <note Length="0.015625" Pitch="34" RiffPosition="7.5625" Velocity="103" />
      <note Length="0.015625" Pitch="34" RiffPosition="7.578125" Velocity="87" />
      <note Length="0.015625" Pitch="34" RiffPosition="7.59375" Velocity="66" />
      <note Length="0.015625" Pitch="36" RiffPosition="7.609375" Velocity="46" />
      <note Length="0.0234375" Pitch="36" RiffPosition="7.625" Velocity="36" />
      <note Length="0.0078125" Pitch="36" RiffPosition="7.6484375" Velocity="39" />
      <note Length="0.03125" Pitch="36" RiffPosition="7.65625" Velocity="42" />
      <note Length="0.015625" Pitch="34" RiffPosition="7.6875" Velocity="36" />
      <note Length="0.015625" Pitch="22" RiffPosition="7.703125" Velocity="38" />
      <note Length="0.015625" Pitch="22" RiffPosition="7.71875" Velocity="55" />
      <note Length="0.015625" Pitch="22" RiffPosition="7.734375" Velocity="75" />
      <note Length="0.0234375" Pitch="22" RiffPosition="7.75" Velocity="84" />
      <note Length="0.0078125" Pitch="22" RiffPosition="7.7734375" Velocity="78" />
      <note Length="0.03125" Pitch="22" RiffPosition="7.78125" Velocity="73" />
      <note Length="0.015625" Pitch="22" RiffPosition="7.8125" Velocity="70" />
      <note Length="0.015625" Pitch="34" RiffPosition="7.828125" Velocity="82" />
      <note Length="0.015625" Pitch="36" RiffPosition="7.84375" Velocity="99" />
      <note Length="0.015625" Pitch="37" RiffPosition="7.859375" Velocity="91" />
      <note Length="0.0234375" Pitch="37" RiffPosition="7.875" Velocity="92" />
      <note Length="0.0078125" Pitch="37" RiffPosition="7.8984375" Velocity="74" />
      <note Length="0.03125" Pitch="37" RiffPosition="7.90625" Velocity="65" />
      <note Length="0.015625" Pitch="34" RiffPosition="7.9375" Velocity="46" />
      <note Length="0.015625" Pitch="22" RiffPosition="7.953125" Velocity="51" />
      <note Length="0.015625" Pitch="22" RiffPosition="7.96875" Velocity="61" />
      <note Length="0.015625" Pitch="30" RiffPosition="7.984375" Velocity="67" />
      <note Length="0.0234375" Pitch="36" RiffPosition="8" Velocity="63" />
      <note Length="0.0078125" Pitch="36" RiffPosition="8.0234375" Velocity="52" />
      <note Length="0.03125" Pitch="36" RiffPosition="8.03125" Velocity="62" />
      <note Length="0.015625" Pitch="29" RiffPosition="8.0625" Velocity="84" />
      <note Length="0.015625" Pitch="29" RiffPosition="8.078125" Velocity="79" />
      <note Length="0.015625" Pitch="29" RiffPosition="8.09375" Velocity="67" />
      <note Length="0.015625" Pitch="41" RiffPosition="8.109375" Velocity="58" />
      <note Length="0.0234375" Pitch="43" RiffPosition="8.125" Velocity="58" />
      <note Length="0.0078125" Pitch="44" RiffPosition="8.1484375" Velocity="75" />
      <note Length="0.03125" Pitch="44" RiffPosition="8.15625" Velocity="82" />
      <note Length="0.015625" Pitch="43" RiffPosition="8.1875" Velocity="111" />
      <note Length="0.015625" Pitch="41" RiffPosition="8.203125" Velocity="98" />
      <note Length="0.015625" Pitch="29" RiffPosition="8.21875" Velocity="79" />
      <note Length="0.015625" Pitch="29" RiffPosition="8.234375" Velocity="62" />
      <note Length="0.0234375" Pitch="29" RiffPosition="8.25" Velocity="54" />
      <note Length="0.0078125" Pitch="29" RiffPosition="8.2734375" Velocity="59" />
      <note Length="0.03125" Pitch="29" RiffPosition="8.28125" Velocity="62" />
      <note Length="0.015625" Pitch="29" RiffPosition="8.3125" Velocity="57" />
      <note Length="0.015625" Pitch="29" RiffPosition="8.328125" Velocity="39" />
      <note Length="0.015625" Pitch="29" RiffPosition="8.34375" Velocity="35" />
      <note Length="0.015625" Pitch="41" RiffPosition="8.359375" Velocity="55" />
      <note Length="0.0234375" Pitch="41" RiffPosition="8.375" Velocity="66" />
      <note Length="0.0078125" Pitch="43" RiffPosition="8.3984375" Velocity="62" />
      <note Length="0.03125" Pitch="43" RiffPosition="8.40625" Velocity="59" />
      <note Length="0.015625" Pitch="43" RiffPosition="8.4375" Velocity="60" />
      <note Length="0.015625" Pitch="43" RiffPosition="8.453125" Velocity="75" />
      <note Length="0.015625" Pitch="41" RiffPosition="8.46875" Velocity="95" />
      <note Length="0.015625" Pitch="41" RiffPosition="8.484375" Velocity="110" />
      <note Length="0.0234375" Pitch="41" RiffPosition="8.5" Velocity="94" />
      <note Length="0.0078125" Pitch="29" RiffPosition="8.5234375" Velocity="80" />
      <note Length="0.03125" Pitch="29" RiffPosition="8.53125" Velocity="72" />
      <note Length="0.015625" Pitch="41" RiffPosition="8.5625" Velocity="58" />
      <note Length="0.015625" Pitch="41" RiffPosition="8.578125" Velocity="64" />
      <note Length="0.015625" Pitch="41" RiffPosition="8.59375" Velocity="76" />
      <note Length="0.015625" Pitch="43" RiffPosition="8.609375" Velocity="83" />
      <note Length="0.0234375" Pitch="43" RiffPosition="8.625" Velocity="81" />
      <note Length="0.0078125" Pitch="43" RiffPosition="8.6484375" Velocity="57" />
      <note Length="0.03125" Pitch="43" RiffPosition="8.65625" Velocity="44" />
      <note Length="0.015625" Pitch="41" RiffPosition="8.6875" Velocity="67" />
      <note Length="0.015625" Pitch="29" RiffPosition="8.703125" Velocity="63" />
      <note Length="0.015625" Pitch="29" RiffPosition="8.71875" Velocity="53" />
      <note Length="0.015625" Pitch="29" RiffPosition="8.734375" Velocity="46" />
      <note Length="0.0234375" Pitch="29" RiffPosition="8.75" Velocity="49" />
      <note Length="0.0078125" Pitch="29" RiffPosition="8.7734375" Velocity="69" />
      <note Length="0.03125" Pitch="29" RiffPosition="8.78125" Velocity="77" />
      <note Length="0.015625" Pitch="29" RiffPosition="8.8125" Velocity="112" />
      <note Length="0.015625" Pitch="41" RiffPosition="8.828125" Velocity="102" />
      <note Length="0.015625" Pitch="43" RiffPosition="8.84375" Velocity="85" />
      <note Length="0.015625" Pitch="44" RiffPosition="8.859375" Velocity="71" />
      <note Length="0.0234375" Pitch="44" RiffPosition="8.875" Velocity="65" />
      <note Length="0.0078125" Pitch="44" RiffPosition="8.8984375" Velocity="74" />
      <note Length="0.03125" Pitch="44" RiffPosition="8.90625" Velocity="78" />
      <note Length="0.015625" Pitch="41" RiffPosition="8.9375" Velocity="76" />
      <note Length="0.015625" Pitch="29" RiffPosition="8.953125" Velocity="59" />
      <note Length="0.015625" Pitch="29" RiffPosition="8.96875" Velocity="36" />
      <note Length="0.015625" Pitch="37" RiffPosition="8.984375" Velocity="36" />
      <note Length="0.0234375" Pitch="29" RiffPosition="9" Velocity="45" />
      <note Length="0.0078125" Pitch="29" RiffPosition="9.0234375" Velocity="43" />
      <note Length="0.03125" Pitch="29" RiffPosition="9.03125" Velocity="40" />
      <note Length="0.015625" Pitch="22" RiffPosition="9.0625" Velocity="45" />
      <note Length="0.015625" Pitch="22" RiffPosition="9.078125" Velocity="62" />
      <note Length="0.015625" Pitch="22" RiffPosition="9.09375" Velocity="84" />
      <note Length="0.015625" Pitch="34" RiffPosition="9.109375" Velocity="101" />
      <note Length="0.0234375" Pitch="36" RiffPosition="9.125" Velocity="108" />
      <note Length="0.0078125" Pitch="37" RiffPosition="9.1484375" Velocity="78" />
      <note Length="0.03125" Pitch="37" RiffPosition="9.15625" Velocity="72" />
      <note Length="0.015625" Pitch="36" RiffPosition="9.1875" Velocity="63" />
      <note Length="0.015625" Pitch="34" RiffPosition="9.203125" Velocity="72" />
      <note Length="0.015625" Pitch="22" RiffPosition="9.21875" Velocity="86" />
      <note Length="0.015625" Pitch="22" RiffPosition="9.234375" Velocity="96" />
      <note Length="0.0234375" Pitch="22" RiffPosition="9.25" Velocity="95" />
      <note Length="0.0078125" Pitch="22" RiffPosition="9.2734375" Velocity="73" />
      <note Length="0.03125" Pitch="22" RiffPosition="9.28125" Velocity="64" />
      <note Length="0.015625" Pitch="22" RiffPosition="9.3125" Velocity="49" />
      <note Length="0.015625" Pitch="22" RiffPosition="9.328125" Velocity="45" />
      <note Length="0.015625" Pitch="22" RiffPosition="9.34375" Velocity="36" />
      <note Length="0.015625" Pitch="34" RiffPosition="9.359375" Velocity="40" />
      <note Length="0.0234375" Pitch="34" RiffPosition="9.375" Velocity="36" />
      <note Length="0.0078125" Pitch="36" RiffPosition="9.3984375" Velocity="57" />
      <note Length="0.03125" Pitch="36" RiffPosition="9.40625" Velocity="66" />
      <note Length="0.015625" Pitch="36" RiffPosition="9.4375" Velocity="85" />
      <note Length="0.015625" Pitch="36" RiffPosition="9.453125" Velocity="98" />
      <note Length="0.015625" Pitch="34" RiffPosition="9.46875" Velocity="84" />
      <note Length="0.015625" Pitch="34" RiffPosition="9.484375" Velocity="73" />
      <note Length="0.0234375" Pitch="34" RiffPosition="9.5" Velocity="70" />
      <note Length="0.0078125" Pitch="22" RiffPosition="9.5234375" Velocity="83" />
      <note Length="0.03125" Pitch="22" RiffPosition="9.53125" Velocity="88" />
      <note Length="0.015625" Pitch="34" RiffPosition="9.5625" Velocity="91" />
      <note Length="0.015625" Pitch="34" RiffPosition="9.578125" Velocity="76" />
      <note Length="0.015625" Pitch="34" RiffPosition="9.59375" Velocity="54" />
      <note Length="0.015625" Pitch="36" RiffPosition="9.609375" Velocity="55" />
      <note Length="0.0234375" Pitch="36" RiffPosition="9.625" Velocity="45" />
      <note Length="0.0078125" Pitch="36" RiffPosition="9.6484375" Velocity="48" />
      <note Length="0.03125" Pitch="36" RiffPosition="9.65625" Velocity="51" />
      <note Length="0.015625" Pitch="34" RiffPosition="9.6875" Velocity="45" />
      <note Length="0.015625" Pitch="22" RiffPosition="9.703125" Velocity="43" />
      <note Length="0.015625" Pitch="22" RiffPosition="9.71875" Velocity="67" />
      <note Length="0.015625" Pitch="22" RiffPosition="9.734375" Velocity="86" />
      <note Length="0.0234375" Pitch="22" RiffPosition="9.75" Velocity="96" />
      <note Length="0.0078125" Pitch="22" RiffPosition="9.7734375" Velocity="69" />
      <note Length="0.03125" Pitch="22" RiffPosition="9.78125" Velocity="64" />
      <note Length="0.015625" Pitch="22" RiffPosition="9.8125" Velocity="61" />
      <note Length="0.015625" Pitch="34" RiffPosition="9.828125" Velocity="73" />
      <note Length="0.015625" Pitch="36" RiffPosition="9.84375" Velocity="90" />
      <note Length="0.015625" Pitch="37" RiffPosition="9.859375" Velocity="102" />
      <note Length="0.0234375" Pitch="37" RiffPosition="9.875" Velocity="104" />
      <note Length="0.0078125" Pitch="37" RiffPosition="9.8984375" Velocity="85" />
      <note Length="0.03125" Pitch="37" RiffPosition="9.90625" Velocity="77" />
      <note Length="0.015625" Pitch="34" RiffPosition="9.9375" Velocity="37" />
      <note Length="0.015625" Pitch="22" RiffPosition="9.953125" Velocity="42" />
      <note Length="0.015625" Pitch="22" RiffPosition="9.96875" Velocity="52" />
      <note Length="0.015625" Pitch="30" RiffPosition="9.984375" Velocity="58" />
      <note Length="0.0234375" Pitch="38" RiffPosition="10" Velocity="54" />
      <note Length="0.0078125" Pitch="38" RiffPosition="10.0234375" Velocity="40" />
      <note Length="0.03125" Pitch="38" RiffPosition="10.03125" Velocity="50" />
      <note Length="0.015625" Pitch="31" RiffPosition="10.0625" Velocity="72" />
      <note Length="0.015625" Pitch="31" RiffPosition="10.078125" Velocity="67" />
      <note Length="0.015625" Pitch="31" RiffPosition="10.09375" Velocity="76" />
      <note Length="0.015625" Pitch="43" RiffPosition="10.109375" Velocity="67" />
      <note Length="0.0234375" Pitch="45" RiffPosition="10.125" Velocity="67" />
      <note Length="0.0078125" Pitch="46" RiffPosition="10.1484375" Velocity="84" />
      <note Length="0.03125" Pitch="46" RiffPosition="10.15625" Velocity="91" />
      <note Length="0.015625" Pitch="45" RiffPosition="10.1875" Velocity="100" />
      <note Length="0.015625" Pitch="43" RiffPosition="10.203125" Velocity="87" />
      <note Length="0.015625" Pitch="31" RiffPosition="10.21875" Velocity="67" />
      <note Length="0.015625" Pitch="31" RiffPosition="10.234375" Velocity="50" />
      <note Length="0.0234375" Pitch="31" RiffPosition="10.25" Velocity="63" />
      <note Length="0.0078125" Pitch="31" RiffPosition="10.2734375" Velocity="67" />
      <note Length="0.03125" Pitch="31" RiffPosition="10.28125" Velocity="71" />
      <note Length="0.015625" Pitch="31" RiffPosition="10.3125" Velocity="66" />
      <note Length="0.015625" Pitch="31" RiffPosition="10.328125" Velocity="48" />
      <note Length="0.015625" Pitch="31" RiffPosition="10.34375" Velocity="46" />
      <note Length="0.015625" Pitch="43" RiffPosition="10.359375" Velocity="67" />
      <note Length="0.0234375" Pitch="43" RiffPosition="10.375" Velocity="78" />
      <note Length="0.0078125" Pitch="45" RiffPosition="10.3984375" Velocity="74" />
      <note Length="0.03125" Pitch="45" RiffPosition="10.40625" Velocity="50" />
      <note Length="0.015625" Pitch="45" RiffPosition="10.4375" Velocity="51" />
      <note Length="0.015625" Pitch="45" RiffPosition="10.453125" Velocity="66" />
      <note Length="0.015625" Pitch="43" RiffPosition="10.46875" Velocity="86" />
      <note Length="0.015625" Pitch="43" RiffPosition="10.484375" Velocity="101" />
      <note Length="0.0234375" Pitch="43" RiffPosition="10.5" Velocity="105" />
      <note Length="0.0078125" Pitch="31" RiffPosition="10.5234375" Velocity="91" />
      <note Length="0.03125" Pitch="31" RiffPosition="10.53125" Velocity="84" />
      <note Length="0.015625" Pitch="43" RiffPosition="10.5625" Velocity="69" />
      <note Length="0.015625" Pitch="43" RiffPosition="10.578125" Velocity="56" />
      <note Length="0.015625" Pitch="43" RiffPosition="10.59375" Velocity="67" />
      <note Length="0.015625" Pitch="45" RiffPosition="10.609375" Velocity="75" />
      <note Length="0.0234375" Pitch="45" RiffPosition="10.625" Velocity="72" />
      <note Length="0.0078125" Pitch="45" RiffPosition="10.6484375" Velocity="48" />
      <note Length="0.03125" Pitch="45" RiffPosition="10.65625" Velocity="38" />
      <note Length="0.015625" Pitch="43" RiffPosition="10.6875" Velocity="56" />
      <note Length="0.015625" Pitch="31" RiffPosition="10.703125" Velocity="52" />
      <note Length="0.015625" Pitch="31" RiffPosition="10.71875" Velocity="42" />
      <note Length="0.015625" Pitch="31" RiffPosition="10.734375" Velocity="55" />
      <note Length="0.0234375" Pitch="31" RiffPosition="10.75" Velocity="57" />
      <note Length="0.0078125" Pitch="31" RiffPosition="10.7734375" Velocity="78" />
      <note Length="0.03125" Pitch="31" RiffPosition="10.78125" Velocity="86" />
      <note Length="0.015625" Pitch="31" RiffPosition="10.8125" Velocity="101" />
      <note Length="0.015625" Pitch="43" RiffPosition="10.828125" Velocity="90" />
      <note Length="0.015625" Pitch="45" RiffPosition="10.84375" Velocity="74" />
      <note Length="0.015625" Pitch="46" RiffPosition="10.859375" Velocity="59" />
      <note Length="0.0234375" Pitch="46" RiffPosition="10.875" Velocity="54" />
      <note Length="0.0078125" Pitch="46" RiffPosition="10.8984375" Velocity="83" />
      <note Length="0.03125" Pitch="46" RiffPosition="10.90625" Velocity="87" />
      <note Length="0.015625" Pitch="43" RiffPosition="10.9375" Velocity="85" />
      <note Length="0.015625" Pitch="31" RiffPosition="10.953125" Velocity="68" />
      <note Length="0.015625" Pitch="31" RiffPosition="10.96875" Velocity="44" />
      <note Length="0.015625" Pitch="39" RiffPosition="10.984375" Velocity="46" />
      <note Length="0.0234375" Pitch="29" RiffPosition="11" Velocity="57" />
      <note Length="0.0078125" Pitch="29" RiffPosition="11.0234375" Velocity="55" />
      <note Length="0.03125" Pitch="29" RiffPosition="11.03125" Velocity="52" />
      <note Length="0.015625" Pitch="22" RiffPosition="11.0625" Velocity="36" />
      <note Length="0.015625" Pitch="22" RiffPosition="11.078125" Velocity="53" />
      <note Length="0.015625" Pitch="22" RiffPosition="11.09375" Velocity="75" />
      <note Length="0.015625" Pitch="34" RiffPosition="11.109375" Velocity="92" />
      <note Length="0.0234375" Pitch="36" RiffPosition="11.125" Velocity="100" />
      <note Length="0.0078125" Pitch="37" RiffPosition="11.1484375" Velocity="90" />
      <note Length="0.03125" Pitch="37" RiffPosition="11.15625" Velocity="84" />
      <note Length="0.015625" Pitch="36" RiffPosition="11.1875" Velocity="75" />
      <note Length="0.015625" Pitch="34" RiffPosition="11.203125" Velocity="64" />
      <note Length="0.015625" Pitch="22" RiffPosition="11.21875" Velocity="77" />
      <note Length="0.015625" Pitch="22" RiffPosition="11.234375" Velocity="87" />
      <note Length="0.0234375" Pitch="22" RiffPosition="11.25" Velocity="86" />
      <note Length="0.0078125" Pitch="22" RiffPosition="11.2734375" Velocity="64" />
      <note Length="0.03125" Pitch="22" RiffPosition="11.28125" Velocity="55" />
      <note Length="0.015625" Pitch="22" RiffPosition="11.3125" Velocity="38" />
      <note Length="0.015625" Pitch="22" RiffPosition="11.328125" Velocity="36" />
      <note Length="0.015625" Pitch="22" RiffPosition="11.34375" Velocity="45" />
      <note Length="0.015625" Pitch="34" RiffPosition="11.359375" Velocity="39" />
      <note Length="0.0234375" Pitch="34" RiffPosition="11.375" Velocity="42" />
      <note Length="0.0078125" Pitch="36" RiffPosition="11.3984375" Velocity="66" />
      <note Length="0.03125" Pitch="36" RiffPosition="11.40625" Velocity="75" />
      <note Length="0.015625" Pitch="36" RiffPosition="11.4375" Velocity="94" />
      <note Length="0.015625" Pitch="36" RiffPosition="11.453125" Velocity="87" />
      <note Length="0.015625" Pitch="34" RiffPosition="11.46875" Velocity="73" />
      <note Length="0.015625" Pitch="34" RiffPosition="11.484375" Velocity="61" />
      <note Length="0.0234375" Pitch="34" RiffPosition="11.5" Velocity="59" />
      <note Length="0.0078125" Pitch="22" RiffPosition="11.5234375" Velocity="91" />
      <note Length="0.03125" Pitch="22" RiffPosition="11.53125" Velocity="97" />
      <note Length="0.015625" Pitch="34" RiffPosition="11.5625" Velocity="100" />
      <note Length="0.015625" Pitch="34" RiffPosition="11.578125" Velocity="85" />
      <note Length="0.015625" Pitch="34" RiffPosition="11.59375" Velocity="63" />
      <note Length="0.015625" Pitch="36" RiffPosition="11.609375" Velocity="44" />
      <note Length="0.0234375" Pitch="36" RiffPosition="11.625" Velocity="36" />
      <note Length="0.0078125" Pitch="36" RiffPosition="11.6484375" Velocity="36" />
      <note Length="0.03125" Pitch="36" RiffPosition="11.65625" Velocity="39" />
      <note Length="0.015625" Pitch="34" RiffPosition="11.6875" Velocity="54" />
      <note Length="0.015625" Pitch="22" RiffPosition="11.703125" Velocity="36" />
      <note Length="0.015625" Pitch="22" RiffPosition="11.71875" Velocity="58" />
      <note Length="0.015625" Pitch="22" RiffPosition="11.734375" Velocity="77" />
      <note Length="0.0234375" Pitch="22" RiffPosition="11.75" Velocity="87" />
      <note Length="0.0078125" Pitch="22" RiffPosition="11.7734375" Velocity="81" />
      <note Length="0.03125" Pitch="22" RiffPosition="11.78125" Velocity="76" />
      <note Length="0.015625" Pitch="22" RiffPosition="11.8125" Velocity="73" />
      <note Length="0.015625" Pitch="34" RiffPosition="11.828125" Velocity="85" />
      <note Length="0.015625" Pitch="36" RiffPosition="11.84375" Velocity="81" />
      <note Length="0.015625" Pitch="37" RiffPosition="11.859375" Velocity="93" />
      <note Length="0.0234375" Pitch="37" RiffPosition="11.875" Velocity="95" />
      <note Length="0.0078125" Pitch="37" RiffPosition="11.8984375" Velocity="76" />
      <note Length="0.03125" Pitch="37" RiffPosition="11.90625" Velocity="68" />
      <note Length="0.015625" Pitch="34" RiffPosition="11.9375" Velocity="48" />
      <note Length="0.015625" Pitch="22" RiffPosition="11.953125" Velocity="53" />
      <note Length="0.015625" Pitch="22" RiffPosition="11.96875" Velocity="63" />
      <note Length="0.015625" Pitch="30" RiffPosition="11.984375" Velocity="70" />
      <note Length="0.0234375" Pitch="38" RiffPosition="12" Velocity="0" />
      <note Length="0.0078125" Pitch="38" RiffPosition="12.0234375" Velocity="0" />
      <note Length="0.03125" Pitch="38" RiffPosition="12.03125" Velocity="0" />
      <note Length="0.015625" Pitch="31" RiffPosition="12.0625" Velocity="0" />
      <note Length="0.015625" Pitch="31" RiffPosition="12.078125" Velocity="0" />
      <note Length="0.015625" Pitch="31" RiffPosition="12.09375" Velocity="0" />
      <note Length="0.015625" Pitch="43" RiffPosition="12.109375" Velocity="0" />
      <note Length="0.0234375" Pitch="45" RiffPosition="12.125" Velocity="0" />
      <note Length="0.0078125" Pitch="46" RiffPosition="12.1484375" Velocity="0" />
      <note Length="0.03125" Pitch="46" RiffPosition="12.15625" Velocity="0" />
      <note Length="0.015625" Pitch="45" RiffPosition="12.1875" Velocity="0" />
      <note Length="0.015625" Pitch="43" RiffPosition="12.203125" Velocity="0" />
      <note Length="0.015625" Pitch="31" RiffPosition="12.21875" Velocity="0" />
      <note Length="0.015625" Pitch="31" RiffPosition="12.234375" Velocity="0" />
      <note Length="0.0234375" Pitch="31" RiffPosition="12.25" Velocity="0" />
      <note Length="0.0078125" Pitch="31" RiffPosition="12.2734375" Velocity="0" />
      <note Length="0.03125" Pitch="31" RiffPosition="12.28125" Velocity="0" />
      <note Length="0.015625" Pitch="31" RiffPosition="12.3125" Velocity="0" />
      <note Length="0.015625" Pitch="31" RiffPosition="12.328125" Velocity="0" />
      <note Length="0.015625" Pitch="31" RiffPosition="12.34375" Velocity="0" />
      <note Length="0.015625" Pitch="43" RiffPosition="12.359375" Velocity="0" />
      <note Length="0.0234375" Pitch="43" RiffPosition="12.375" Velocity="0" />
      <note Length="0.0078125" Pitch="45" RiffPosition="12.3984375" Velocity="0" />
      <note Length="0.03125" Pitch="45" RiffPosition="12.40625" Velocity="0" />
      <note Length="0.015625" Pitch="45" RiffPosition="12.4375" Velocity="0" />
      <note Length="0.015625" Pitch="45" RiffPosition="12.453125" Velocity="0" />
      <note Length="0.015625" Pitch="43" RiffPosition="12.46875" Velocity="0" />
      <note Length="0.015625" Pitch="43" RiffPosition="12.484375" Velocity="0" />
      <note Length="0.0234375" Pitch="43" RiffPosition="12.5" Velocity="0" />
      <note Length="0.0078125" Pitch="31" RiffPosition="12.5234375" Velocity="0" />
      <note Length="0.03125" Pitch="31" RiffPosition="12.53125" Velocity="0" />
      <note Length="0.015625" Pitch="43" RiffPosition="12.5625" Velocity="0" />
      <note Length="0.015625" Pitch="43" RiffPosition="12.578125" Velocity="0" />
      <note Length="0.015625" Pitch="43" RiffPosition="12.59375" Velocity="0" />
      <note Length="0.015625" Pitch="45" RiffPosition="12.609375" Velocity="0" />
      <note Length="0.0234375" Pitch="45" RiffPosition="12.625" Velocity="0" />
      <note Length="0.0078125" Pitch="45" RiffPosition="12.6484375" Velocity="0" />
      <note Length="0.03125" Pitch="45" RiffPosition="12.65625" Velocity="0" />
      <note Length="0.015625" Pitch="43" RiffPosition="12.6875" Velocity="0" />
      <note Length="0.015625" Pitch="31" RiffPosition="12.703125" Velocity="0" />
      <note Length="0.015625" Pitch="31" RiffPosition="12.71875" Velocity="0" />
      <note Length="0.015625" Pitch="31" RiffPosition="12.734375" Velocity="0" />
      <note Length="0.0234375" Pitch="31" RiffPosition="12.75" Velocity="0" />
      <note Length="0.0078125" Pitch="31" RiffPosition="12.7734375" Velocity="0" />
      <note Length="0.03125" Pitch="31" RiffPosition="12.78125" Velocity="0" />
      <note Length="0.015625" Pitch="31" RiffPosition="12.8125" Velocity="0" />
      <note Length="0.015625" Pitch="43" RiffPosition="12.828125" Velocity="0" />
      <note Length="0.015625" Pitch="45" RiffPosition="12.84375" Velocity="0" />
      <note Length="0.015625" Pitch="46" RiffPosition="12.859375" Velocity="0" />
      <note Length="0.0234375" Pitch="46" RiffPosition="12.875" Velocity="0" />
      <note Length="0.0078125" Pitch="46" RiffPosition="12.8984375" Velocity="0" />
      <note Length="0.03125" Pitch="46" RiffPosition="12.90625" Velocity="0" />
      <note Length="0.015625" Pitch="43" RiffPosition="12.9375" Velocity="0" />
      <note Length="0.015625" Pitch="31" RiffPosition="12.953125" Velocity="0" />
      <note Length="0.015625" Pitch="31" RiffPosition="12.96875" Velocity="0" />
      <note Length="0.015625" Pitch="39" RiffPosition="12.984375" Velocity="0" />
      <note Length="0.0234375" Pitch="40" RiffPosition="13" Velocity="0" />
      <note Length="0.0078125" Pitch="40" RiffPosition="13.0234375" Velocity="0" />
      <note Length="0.03125" Pitch="40" RiffPosition="13.03125" Velocity="0" />
      <note Length="0.015625" Pitch="33" RiffPosition="13.0625" Velocity="0" />
      <note Length="0.015625" Pitch="33" RiffPosition="13.078125" Velocity="0" />
      <note Length="0.015625" Pitch="33" RiffPosition="13.09375" Velocity="0" />
      <note Length="0.015625" Pitch="45" RiffPosition="13.109375" Velocity="0" />
      <note Length="0.0234375" Pitch="47" RiffPosition="13.125" Velocity="0" />
      <note Length="0.0078125" Pitch="48" RiffPosition="13.1484375" Velocity="0" />
      <note Length="0.03125" Pitch="48" RiffPosition="13.15625" Velocity="0" />
      <note Length="0.015625" Pitch="47" RiffPosition="13.1875" Velocity="0" />
      <note Length="0.015625" Pitch="45" RiffPosition="13.203125" Velocity="0" />
      <note Length="0.015625" Pitch="33" RiffPosition="13.21875" Velocity="0" />
      <note Length="0.015625" Pitch="33" RiffPosition="13.234375" Velocity="0" />
      <note Length="0.0234375" Pitch="33" RiffPosition="13.25" Velocity="0" />
      <note Length="0.0078125" Pitch="33" RiffPosition="13.2734375" Velocity="0" />
      <note Length="0.03125" Pitch="33" RiffPosition="13.28125" Velocity="0" />
      <note Length="0.015625" Pitch="33" RiffPosition="13.3125" Velocity="0" />
      <note Length="0.015625" Pitch="33" RiffPosition="13.328125" Velocity="0" />
      <note Length="0.015625" Pitch="33" RiffPosition="13.34375" Velocity="0" />
      <note Length="0.015625" Pitch="45" RiffPosition="13.359375" Velocity="0" />
      <note Length="0.0234375" Pitch="45" RiffPosition="13.375" Velocity="0" />
      <note Length="0.0078125" Pitch="47" RiffPosition="13.3984375" Velocity="0" />
      <note Length="0.03125" Pitch="47" RiffPosition="13.40625" Velocity="0" />
      <note Length="0.015625" Pitch="47" RiffPosition="13.4375" Velocity="0" />
      <note Length="0.015625" Pitch="47" RiffPosition="13.453125" Velocity="0" />
      <note Length="0.015625" Pitch="45" RiffPosition="13.46875" Velocity="0" />
      <note Length="0.015625" Pitch="45" RiffPosition="13.484375" Velocity="0" />
      <note Length="0.0234375" Pitch="45" RiffPosition="13.5" Velocity="0" />
      <note Length="0.0078125" Pitch="33" RiffPosition="13.5234375" Velocity="0" />
      <note Length="0.03125" Pitch="33" RiffPosition="13.53125" Velocity="0" />
      <note Length="0.015625" Pitch="45" RiffPosition="13.5625" Velocity="0" />
      <note Length="0.015625" Pitch="45" RiffPosition="13.578125" Velocity="0" />
      <note Length="0.015625" Pitch="45" RiffPosition="13.59375" Velocity="0" />
      <note Length="0.015625" Pitch="47" RiffPosition="13.609375" Velocity="0" />
      <note Length="0.0234375" Pitch="47" RiffPosition="13.625" Velocity="0" />
      <note Length="0.0078125" Pitch="47" RiffPosition="13.6484375" Velocity="0" />
      <note Length="0.03125" Pitch="47" RiffPosition="13.65625" Velocity="0" />
      <note Length="0.015625" Pitch="45" RiffPosition="13.6875" Velocity="0" />
      <note Length="0.015625" Pitch="33" RiffPosition="13.703125" Velocity="0" />
      <note Length="0.015625" Pitch="33" RiffPosition="13.71875" Velocity="0" />
      <note Length="0.015625" Pitch="33" RiffPosition="13.734375" Velocity="0" />
      <note Length="0.0234375" Pitch="33" RiffPosition="13.75" Velocity="0" />
      <note Length="0.0078125" Pitch="33" RiffPosition="13.7734375" Velocity="0" />
      <note Length="0.03125" Pitch="33" RiffPosition="13.78125" Velocity="0" />
      <note Length="0.015625" Pitch="33" RiffPosition="13.8125" Velocity="0" />
      <note Length="0.015625" Pitch="45" RiffPosition="13.828125" Velocity="0" />
      <note Length="0.015625" Pitch="47" RiffPosition="13.84375" Velocity="0" />
      <note Length="0.015625" Pitch="48" RiffPosition="13.859375" Velocity="0" />
      <note Length="0.0234375" Pitch="48" RiffPosition="13.875" Velocity="0" />
      <note Length="0.0078125" Pitch="48" RiffPosition="13.8984375" Velocity="0" />
      <note Length="0.03125" Pitch="48" RiffPosition="13.90625" Velocity="0" />
      <note Length="0.015625" Pitch="45" RiffPosition="13.9375" Velocity="0" />
      <note Length="0.015625" Pitch="33" RiffPosition="13.953125" Velocity="0" />
      <note Length="0.015625" Pitch="33" RiffPosition="13.96875" Velocity="0" />
      <note Length="0.015625" Pitch="41" RiffPosition="13.984375" Velocity="0" />
    </riff>
    <riff IsDrum="False" MidiInstrument="88" Tempo="99" Length="14">
      <note Length="0.25" Pitch="37" RiffPosition="0" Velocity="90" />
      <note Length="0.75" Pitch="37" RiffPosition="0.25" Velocity="90" />
      <note Length="3" Pitch="40" RiffPosition="1" Velocity="90" />
      <note Length="2" Pitch="30" RiffPosition="4" Velocity="0" />
      <note Length="1" Pitch="41" RiffPosition="6" Velocity="0" />
      <note Length="1" Pitch="36" RiffPosition="7" Velocity="0" />
      <note Length="0.25" Pitch="44" RiffPosition="8" Velocity="0" />
      <note Length="0.75" Pitch="44" RiffPosition="8.25" Velocity="0" />
      <note Length="3" Pitch="39" RiffPosition="9" Velocity="0" />
      <note Length="2" Pitch="45" RiffPosition="12" Velocity="0" />
    </riff>
    <riff IsDrum="False" MidiInstrument="92" Tempo="92" Length="14">
      <note Length="1.5" Pitch="41" RiffPosition="0" Velocity="90" />
      <note Length="0.5" Pitch="45" RiffPosition="1.5" Velocity="90" />
      <note Length="1" Pitch="42" RiffPosition="2" Velocity="90" />
      <note Length="1" Pitch="42" RiffPosition="3" Velocity="90" />
      <note Length="0.25" Pitch="42" RiffPosition="4" Velocity="0" />
      <note Length="0.75" Pitch="42" RiffPosition="4.25" Velocity="0" />
      <note Length="1" Pitch="43" RiffPosition="5" Velocity="0" />
      <note Length="0.5" Pitch="41" RiffPosition="6" Velocity="0" />
      <note Length="0.5" Pitch="41" RiffPosition="6.5" Velocity="0" />
      <note Length="1" Pitch="34" RiffPosition="7" Velocity="0" />
      <note Length="1.5" Pitch="41" RiffPosition="8" Velocity="0" />
      <note Length="0.5" Pitch="46" RiffPosition="9.5" Velocity="0" />
      <note Length="1" Pitch="55" RiffPosition="10" Velocity="90" />
      <note Length="1" Pitch="51" RiffPosition="11" Velocity="90" />
      <note Length="0.25" Pitch="58" RiffPosition="12" Velocity="0" />
      <note Length="0.75" Pitch="57" RiffPosition="12.25" Velocity="0" />
      <note Length="1" Pitch="57" RiffPosition="13" Velocity="0" />
    </riff>
    <riff IsDrum="False" MidiInstrument="6" Tempo="142" Length="14">
      <note Length="0.125" Pitch="29" RiffPosition="0" Velocity="35" />
      <note Length="0.125" Pitch="68" RiffPosition="0.125" Velocity="36" />
      <note Length="0.0625" Pitch="34" RiffPosition="0.25" Velocity="54" />
      <note Length="0.046875" Pitch="29" RiffPosition="0.3125" Velocity="25" />
      <note Length="0.015625" Pitch="58" RiffPosition="0.359375" Velocity="69" />
      <note Length="0.015625" Pitch="65" RiffPosition="0.375" Velocity="33" />
      <note Length="0.046875" Pitch="65" RiffPosition="0.390625" Velocity="45" />
      <note Length="0.03125" Pitch="65" RiffPosition="0.4375" Velocity="24" />
      <note Length="0.03125" Pitch="55" RiffPosition="0.46875" Velocity="89" />
      <note Length="0.125" Pitch="29" RiffPosition="0.5" Velocity="28" />
      <note Length="0.125" Pitch="53" RiffPosition="0.625" Velocity="86" />
      <note Length="0.0625" Pitch="48" RiffPosition="0.75" Velocity="52" />
      <note Length="0.046875" Pitch="43" RiffPosition="0.8125" Velocity="27" />
      <note Length="0.015625" Pitch="53" RiffPosition="0.859375" Velocity="73" />
      <note Length="0.015625" Pitch="65" RiffPosition="0.875" Velocity="45" />
      <note Length="0.046875" Pitch="53" RiffPosition="0.890625" Velocity="24" />
      <note Length="0.03125" Pitch="53" RiffPosition="0.9375" Velocity="69" />
      <note Length="0.03125" Pitch="41" RiffPosition="0.96875" Velocity="38" />
      <note Length="0.125" Pitch="33" RiffPosition="1" Velocity="73" />
      <note Length="0.125" Pitch="72" RiffPosition="1.125" Velocity="109" />
      <note Length="0.0625" Pitch="38" RiffPosition="1.25" Velocity="24" />
      <note Length="0.046875" Pitch="33" RiffPosition="1.3125" Velocity="63" />
      <note Length="0.015625" Pitch="62" RiffPosition="1.359375" Velocity="107" />
      <note Length="0.015625" Pitch="69" RiffPosition="1.375" Velocity="71" />
      <note Length="0.046875" Pitch="69" RiffPosition="1.390625" Velocity="33" />
      <note Length="0.03125" Pitch="69" RiffPosition="1.4375" Velocity="63" />
      <note Length="0.03125" Pitch="59" RiffPosition="1.46875" Velocity="50" />
      <note Length="0.125" Pitch="33" RiffPosition="1.5" Velocity="66" />
      <note Length="0.125" Pitch="57" RiffPosition="1.625" Velocity="59" />
      <note Length="0.0625" Pitch="52" RiffPosition="1.75" Velocity="26" />
      <note Length="0.046875" Pitch="47" RiffPosition="1.8125" Velocity="51" />
      <note Length="0.015625" Pitch="57" RiffPosition="1.859375" Velocity="73" />
      <note Length="0.015625" Pitch="69" RiffPosition="1.875" Velocity="83" />
      <note Length="0.046875" Pitch="57" RiffPosition="1.890625" Velocity="55" />
      <note Length="0.03125" Pitch="57" RiffPosition="1.9375" Velocity="107" />
      <note Length="0.03125" Pitch="45" RiffPosition="1.96875" Velocity="40" />
      <note Length="0.125" Pitch="30" RiffPosition="2" Velocity="72" />
      <note Length="0.125" Pitch="69" RiffPosition="2.125" Velocity="71" />
      <note Length="0.0625" Pitch="35" RiffPosition="2.25" Velocity="62" />
      <note Length="0.046875" Pitch="30" RiffPosition="2.3125" Velocity="101" />
      <note Length="0.015625" Pitch="59" RiffPosition="2.359375" Velocity="38" />
      <note Length="0.015625" Pitch="66" RiffPosition="2.375" Velocity="109" />
      <note Length="0.046875" Pitch="66" RiffPosition="2.390625" Velocity="71" />
      <note Length="0.03125" Pitch="66" RiffPosition="2.4375" Velocity="83" />
      <note Length="0.03125" Pitch="56" RiffPosition="2.46875" Velocity="28" />
      <note Length="0.125" Pitch="30" RiffPosition="2.5" Velocity="80" />
      <note Length="0.125" Pitch="54" RiffPosition="2.625" Velocity="21" />
      <note Length="0.0625" Pitch="49" RiffPosition="2.75" Velocity="65" />
      <note Length="0.046875" Pitch="44" RiffPosition="2.8125" Velocity="89" />
      <note Length="0.015625" Pitch="54" RiffPosition="2.859375" Velocity="35" />
      <note Length="0.015625" Pitch="66" RiffPosition="2.875" Velocity="63" />
      <note Length="0.046875" Pitch="54" RiffPosition="2.890625" Velocity="93" />
      <note Length="0.03125" Pitch="54" RiffPosition="2.9375" Velocity="38" />
      <note Length="0.03125" Pitch="42" RiffPosition="2.96875" Velocity="78" />
      <note Length="0.125" Pitch="23" RiffPosition="3" Velocity="34" />
      <note Length="0.125" Pitch="62" RiffPosition="3.125" Velocity="33" />
      <note Length="0.0625" Pitch="28" RiffPosition="3.25" Velocity="101" />
      <note Length="0.046875" Pitch="23" RiffPosition="3.3125" Velocity="44" />
      <note Length="0.015625" Pitch="52" RiffPosition="3.359375" Velocity="40" />
      <note Length="0.015625" Pitch="59" RiffPosition="3.375" Velocity="37" />
      <note Length="0.046875" Pitch="59" RiffPosition="3.390625" Velocity="74" />
      <note Length="0.03125" Pitch="59" RiffPosition="3.4375" Velocity="45" />
      <note Length="0.03125" Pitch="49" RiffPosition="3.46875" Velocity="66" />
      <note Length="0.125" Pitch="23" RiffPosition="3.5" Velocity="42" />
      <note Length="0.125" Pitch="47" RiffPosition="3.625" Velocity="57" />
      <note Length="0.0625" Pitch="42" RiffPosition="3.75" Velocity="81" />
      <note Length="0.046875" Pitch="37" RiffPosition="3.8125" Velocity="56" />
      <note Length="0.015625" Pitch="47" RiffPosition="3.859375" Velocity="43" />
      <note Length="0.015625" Pitch="59" RiffPosition="3.875" Velocity="25" />
      <note Length="0.046875" Pitch="47" RiffPosition="3.890625" Velocity="53" />
      <note Length="0.03125" Pitch="47" RiffPosition="3.9375" Velocity="40" />
      <note Length="0.03125" Pitch="35" RiffPosition="3.96875" Velocity="67" />
      <note Length="0.125" Pitch="30" RiffPosition="4" Velocity="44" />
      <note Length="0.125" Pitch="69" RiffPosition="4.125" Velocity="45" />
      <note Length="0.0625" Pitch="35" RiffPosition="4.25" Velocity="45" />
      <note Length="0.046875" Pitch="30" RiffPosition="4.3125" Velocity="34" />
      <note Length="0.015625" Pitch="59" RiffPosition="4.359375" Velocity="78" />
      <note Length="0.015625" Pitch="66" RiffPosition="4.375" Velocity="42" />
      <note Length="0.046875" Pitch="66" RiffPosition="4.390625" Velocity="36" />
      <note Length="0.03125" Pitch="66" RiffPosition="4.4375" Velocity="33" />
      <note Length="0.03125" Pitch="56" RiffPosition="4.46875" Velocity="80" />
      <note Length="0.125" Pitch="30" RiffPosition="4.5" Velocity="36" />
      <note Length="0.125" Pitch="54" RiffPosition="4.625" Velocity="89" />
      <note Length="0.0625" Pitch="49" RiffPosition="4.75" Velocity="43" />
      <note Length="0.046875" Pitch="44" RiffPosition="4.8125" Velocity="22" />
      <note Length="0.015625" Pitch="54" RiffPosition="4.859375" Velocity="82" />
      <note Length="0.015625" Pitch="66" RiffPosition="4.875" Velocity="54" />
      <note Length="0.046875" Pitch="54" RiffPosition="4.890625" Velocity="25" />
      <note Length="0.03125" Pitch="54" RiffPosition="4.9375" Velocity="78" />
      <note Length="0.03125" Pitch="42" RiffPosition="4.96875" Velocity="29" />
      <note Length="0.125" Pitch="23" RiffPosition="5" Velocity="82" />
      <note Length="0.125" Pitch="62" RiffPosition="5.125" Velocity="100" />
      <note Length="0.0625" Pitch="28" RiffPosition="5.25" Velocity="33" />
      <note Length="0.046875" Pitch="23" RiffPosition="5.3125" Velocity="72" />
      <note Length="0.015625" Pitch="52" RiffPosition="5.359375" Velocity="116" />
      <note Length="0.015625" Pitch="59" RiffPosition="5.375" Velocity="80" />
      <note Length="0.046875" Pitch="59" RiffPosition="5.390625" Velocity="42" />
      <note Length="0.03125" Pitch="59" RiffPosition="5.4375" Velocity="71" />
      <note Length="0.03125" Pitch="49" RiffPosition="5.46875" Velocity="42" />
      <note Length="0.125" Pitch="23" RiffPosition="5.5" Velocity="109" />
      <note Length="0.125" Pitch="47" RiffPosition="5.625" Velocity="50" />
      <note Length="0.0625" Pitch="42" RiffPosition="5.75" Velocity="35" />
      <note Length="0.046875" Pitch="37" RiffPosition="5.8125" Velocity="60" />
      <note Length="0.015625" Pitch="47" RiffPosition="5.859375" Velocity="64" />
      <note Length="0.015625" Pitch="59" RiffPosition="5.875" Velocity="92" />
      <note Length="0.046875" Pitch="47" RiffPosition="5.890625" Velocity="63" />
      <note Length="0.03125" Pitch="47" RiffPosition="5.9375" Velocity="67" />
      <note Length="0.03125" Pitch="35" RiffPosition="5.96875" Velocity="49" />
      <note Length="0.125" Pitch="29" RiffPosition="6" Velocity="63" />
      <note Length="0.125" Pitch="68" RiffPosition="6.125" Velocity="62" />
      <note Length="0.0625" Pitch="34" RiffPosition="6.25" Velocity="71" />
      <note Length="0.046875" Pitch="29" RiffPosition="6.3125" Velocity="110" />
      <note Length="0.015625" Pitch="58" RiffPosition="6.359375" Velocity="29" />
      <note Length="0.015625" Pitch="65" RiffPosition="6.375" Velocity="66" />
      <note Length="0.046875" Pitch="65" RiffPosition="6.390625" Velocity="80" />
      <note Length="0.03125" Pitch="65" RiffPosition="6.4375" Velocity="74" />
      <note Length="0.03125" Pitch="55" RiffPosition="6.46875" Velocity="37" />
      <note Length="0.125" Pitch="29" RiffPosition="6.5" Velocity="71" />
      <note Length="0.125" Pitch="53" RiffPosition="6.625" Velocity="28" />
      <note Length="0.0625" Pitch="48" RiffPosition="6.75" Velocity="74" />
      <note Length="0.046875" Pitch="43" RiffPosition="6.8125" Velocity="86" />
      <note Length="0.015625" Pitch="53" RiffPosition="6.859375" Velocity="26" />
      <note Length="0.015625" Pitch="65" RiffPosition="6.875" Velocity="54" />
      <note Length="0.046875" Pitch="53" RiffPosition="6.890625" Velocity="102" />
      <note Length="0.03125" Pitch="53" RiffPosition="6.9375" Velocity="29" />
      <note Length="0.03125" Pitch="41" RiffPosition="6.96875" Velocity="87" />
      <note Length="0.125" Pitch="22" RiffPosition="7" Velocity="25" />
      <note Length="0.125" Pitch="61" RiffPosition="7.125" Velocity="24" />
      <note Length="0.0625" Pitch="27" RiffPosition="7.25" Velocity="74" />
      <note Length="0.046875" Pitch="22" RiffPosition="7.3125" Velocity="35" />
      <note Length="0.015625" Pitch="51" RiffPosition="7.359375" Velocity="49" />
      <note Length="0.015625" Pitch="58" RiffPosition="7.375" Velocity="28" />
      <note Length="0.046875" Pitch="58" RiffPosition="7.390625" Velocity="65" />
      <note Length="0.03125" Pitch="58" RiffPosition="7.4375" Velocity="36" />
      <note Length="0.03125" Pitch="48" RiffPosition="7.46875" Velocity="75" />
      <note Length="0.125" Pitch="22" RiffPosition="7.5" Velocity="33" />
      <note Length="0.125" Pitch="46" RiffPosition="7.625" Velocity="66" />
      <note Length="0.0625" Pitch="41" RiffPosition="7.75" Velocity="72" />
      <note Length="0.046875" Pitch="36" RiffPosition="7.8125" Velocity="47" />
      <note Length="0.015625" Pitch="46" RiffPosition="7.859375" Velocity="52" />
      <note Length="0.015625" Pitch="58" RiffPosition="7.875" Velocity="24" />
      <note Length="0.046875" Pitch="46" RiffPosition="7.890625" Velocity="44" />
      <note Length="0.03125" Pitch="46" RiffPosition="7.9375" Velocity="49" />
      <note Length="0.03125" Pitch="34" RiffPosition="7.96875" Velocity="58" />
      <note Length="0.125" Pitch="29" RiffPosition="8" Velocity="0" />
      <note Length="0.125" Pitch="68" RiffPosition="8.125" Velocity="0" />
      <note Length="0.0625" Pitch="34" RiffPosition="8.25" Velocity="0" />
      <note Length="0.046875" Pitch="29" RiffPosition="8.3125" Velocity="0" />
      <note Length="0.015625" Pitch="58" RiffPosition="8.359375" Velocity="0" />
      <note Length="0.015625" Pitch="65" RiffPosition="8.375" Velocity="0" />
      <note Length="0.046875" Pitch="65" RiffPosition="8.390625" Velocity="0" />
      <note Length="0.03125" Pitch="65" RiffPosition="8.4375" Velocity="0" />
      <note Length="0.03125" Pitch="55" RiffPosition="8.46875" Velocity="0" />
      <note Length="0.125" Pitch="29" RiffPosition="8.5" Velocity="0" />
      <note Length="0.125" Pitch="53" RiffPosition="8.625" Velocity="0" />
      <note Length="0.0625" Pitch="48" RiffPosition="8.75" Velocity="0" />
      <note Length="0.046875" Pitch="43" RiffPosition="8.8125" Velocity="0" />
      <note Length="0.015625" Pitch="53" RiffPosition="8.859375" Velocity="0" />
      <note Length="0.015625" Pitch="65" RiffPosition="8.875" Velocity="0" />
      <note Length="0.046875" Pitch="53" RiffPosition="8.890625" Velocity="0" />
      <note Length="0.03125" Pitch="53" RiffPosition="8.9375" Velocity="0" />
      <note Length="0.03125" Pitch="41" RiffPosition="8.96875" Velocity="0" />
      <note Length="0.125" Pitch="22" RiffPosition="9" Velocity="0" />
      <note Length="0.125" Pitch="61" RiffPosition="9.125" Velocity="0" />
      <note Length="0.0625" Pitch="27" RiffPosition="9.25" Velocity="0" />
      <note Length="0.046875" Pitch="22" RiffPosition="9.3125" Velocity="0" />
      <note Length="0.015625" Pitch="51" RiffPosition="9.359375" Velocity="0" />
      <note Length="0.015625" Pitch="58" RiffPosition="9.375" Velocity="0" />
      <note Length="0.046875" Pitch="58" RiffPosition="9.390625" Velocity="0" />
      <note Length="0.03125" Pitch="58" RiffPosition="9.4375" Velocity="0" />
      <note Length="0.03125" Pitch="48" RiffPosition="9.46875" Velocity="0" />
      <note Length="0.125" Pitch="22" RiffPosition="9.5" Velocity="0" />
      <note Length="0.125" Pitch="46" RiffPosition="9.625" Velocity="0" />
      <note Length="0.0625" Pitch="41" RiffPosition="9.75" Velocity="0" />
      <note Length="0.046875" Pitch="36" RiffPosition="9.8125" Velocity="0" />
      <note Length="0.015625" Pitch="46" RiffPosition="9.859375" Velocity="0" />
      <note Length="0.015625" Pitch="58" RiffPosition="9.875" Velocity="0" />
      <note Length="0.046875" Pitch="46" RiffPosition="9.890625" Velocity="0" />
      <note Length="0.03125" Pitch="46" RiffPosition="9.9375" Velocity="0" />
      <note Length="0.03125" Pitch="34" RiffPosition="9.96875" Velocity="0" />
      <note Length="0.125" Pitch="31" RiffPosition="10" Velocity="0" />
      <note Length="0.125" Pitch="70" RiffPosition="10.125" Velocity="0" />
      <note Length="0.0625" Pitch="36" RiffPosition="10.25" Velocity="0" />
      <note Length="0.046875" Pitch="31" RiffPosition="10.3125" Velocity="0" />
      <note Length="0.015625" Pitch="60" RiffPosition="10.359375" Velocity="0" />
      <note Length="0.015625" Pitch="67" RiffPosition="10.375" Velocity="0" />
      <note Length="0.046875" Pitch="67" RiffPosition="10.390625" Velocity="0" />
      <note Length="0.03125" Pitch="67" RiffPosition="10.4375" Velocity="0" />
      <note Length="0.03125" Pitch="57" RiffPosition="10.46875" Velocity="0" />
      <note Length="0.125" Pitch="31" RiffPosition="10.5" Velocity="0" />
      <note Length="0.125" Pitch="55" RiffPosition="10.625" Velocity="0" />
      <note Length="0.0625" Pitch="50" RiffPosition="10.75" Velocity="0" />
      <note Length="0.046875" Pitch="45" RiffPosition="10.8125" Velocity="0" />
      <note Length="0.015625" Pitch="55" RiffPosition="10.859375" Velocity="0" />
      <note Length="0.015625" Pitch="67" RiffPosition="10.875" Velocity="0" />
      <note Length="0.046875" Pitch="55" RiffPosition="10.890625" Velocity="0" />
      <note Length="0.03125" Pitch="55" RiffPosition="10.9375" Velocity="0" />
      <note Length="0.03125" Pitch="43" RiffPosition="10.96875" Velocity="0" />
      <note Length="0.125" Pitch="22" RiffPosition="11" Velocity="0" />
      <note Length="0.125" Pitch="61" RiffPosition="11.125" Velocity="0" />
      <note Length="0.0625" Pitch="27" RiffPosition="11.25" Velocity="0" />
      <note Length="0.046875" Pitch="22" RiffPosition="11.3125" Velocity="0" />
      <note Length="0.015625" Pitch="51" RiffPosition="11.359375" Velocity="0" />
      <note Length="0.015625" Pitch="58" RiffPosition="11.375" Velocity="0" />
      <note Length="0.046875" Pitch="58" RiffPosition="11.390625" Velocity="0" />
      <note Length="0.03125" Pitch="58" RiffPosition="11.4375" Velocity="0" />
      <note Length="0.03125" Pitch="48" RiffPosition="11.46875" Velocity="0" />
      <note Length="0.125" Pitch="22" RiffPosition="11.5" Velocity="0" />
      <note Length="0.125" Pitch="46" RiffPosition="11.625" Velocity="0" />
      <note Length="0.0625" Pitch="41" RiffPosition="11.75" Velocity="0" />
      <note Length="0.046875" Pitch="36" RiffPosition="11.8125" Velocity="0" />
      <note Length="0.015625" Pitch="46" RiffPosition="11.859375" Velocity="0" />
      <note Length="0.015625" Pitch="58" RiffPosition="11.875" Velocity="0" />
      <note Length="0.046875" Pitch="46" RiffPosition="11.890625" Velocity="0" />
      <note Length="0.03125" Pitch="46" RiffPosition="11.9375" Velocity="0" />
      <note Length="0.03125" Pitch="34" RiffPosition="11.96875" Velocity="0" />
      <note Length="0.125" Pitch="31" RiffPosition="12" Velocity="62" />
      <note Length="0.125" Pitch="70" RiffPosition="12.125" Velocity="121" />
      <note Length="0.0625" Pitch="36" RiffPosition="12.25" Velocity="27" />
      <note Length="0.046875" Pitch="31" RiffPosition="12.3125" Velocity="52" />
      <note Length="0.015625" Pitch="60" RiffPosition="12.359375" Velocity="96" />
      <note Length="0.015625" Pitch="67" RiffPosition="12.375" Velocity="59" />
      <note Length="0.046875" Pitch="67" RiffPosition="12.390625" Velocity="22" />
      <note Length="0.03125" Pitch="67" RiffPosition="12.4375" Velocity="51" />
      <note Length="0.03125" Pitch="57" RiffPosition="12.46875" Velocity="62" />
      <note Length="0.125" Pitch="31" RiffPosition="12.5" Velocity="54" />
      <note Length="0.125" Pitch="55" RiffPosition="12.625" Velocity="71" />
      <note Length="0.0625" Pitch="50" RiffPosition="12.75" Velocity="25" />
      <note Length="0.046875" Pitch="45" RiffPosition="12.8125" Velocity="40" />
      <note Length="0.015625" Pitch="55" RiffPosition="12.859375" Velocity="99" />
      <note Length="0.015625" Pitch="67" RiffPosition="12.875" Velocity="71" />
      <note Length="0.046875" Pitch="55" RiffPosition="12.890625" Velocity="43" />
      <note Length="0.03125" Pitch="55" RiffPosition="12.9375" Velocity="96" />
      <note Length="0.03125" Pitch="43" RiffPosition="12.96875" Velocity="29" />
      <note Length="0.125" Pitch="33" RiffPosition="13" Velocity="84" />
      <note Length="0.125" Pitch="72" RiffPosition="13.125" Velocity="83" />
      <note Length="0.0625" Pitch="38" RiffPosition="13.25" Velocity="51" />
      <note Length="0.046875" Pitch="33" RiffPosition="13.3125" Velocity="90" />
      <note Length="0.015625" Pitch="62" RiffPosition="13.359375" Velocity="50" />
      <note Length="0.015625" Pitch="69" RiffPosition="13.375" Velocity="98" />
      <note Length="0.046875" Pitch="69" RiffPosition="13.390625" Velocity="60" />
      <note Length="0.03125" Pitch="69" RiffPosition="13.4375" Velocity="94" />
      <note Length="0.03125" Pitch="59" RiffPosition="13.46875" Velocity="24" />
      <note Length="0.125" Pitch="33" RiffPosition="13.5" Velocity="91" />
      <note Length="0.125" Pitch="57" RiffPosition="13.625" Velocity="33" />
      <note Length="0.0625" Pitch="52" RiffPosition="13.75" Velocity="53" />
      <note Length="0.046875" Pitch="47" RiffPosition="13.8125" Velocity="78" />
      <note Length="0.015625" Pitch="57" RiffPosition="13.859375" Velocity="46" />
      <note Length="0.015625" Pitch="69" RiffPosition="13.875" Velocity="74" />
      <note Length="0.046875" Pitch="57" RiffPosition="13.890625" Velocity="81" />
      <note Length="0.03125" Pitch="57" RiffPosition="13.9375" Velocity="50" />
      <note Length="0.03125" Pitch="45" RiffPosition="13.96875" Velocity="67" />
    </riff>
    <riff IsDrum="False" MidiInstrument="6" Tempo="133" Length="14">
      <note Length="0.03125" Pitch="53" RiffPosition="0" Velocity="32" />
      <note Length="0.03125" Pitch="65" RiffPosition="0.03125" Velocity="95" />
      <note Length="0.03125" Pitch="55" RiffPosition="0.0625" Velocity="33" />
      <note Length="0.03125" Pitch="29" RiffPosition="0.09375" Velocity="96" />
      <note Length="0.015625" Pitch="56" RiffPosition="0.125" Velocity="30" />
      <note Length="0.015625" Pitch="70" RiffPosition="0.140625" Velocity="74" />
      <note Length="0.0078125" Pitch="68" RiffPosition="0.15625" Velocity="94" />
      <note Length="0.0234375" Pitch="68" RiffPosition="0.1640625" Velocity="63" />
      <note Length="0.0625" Pitch="41" RiffPosition="0.1875" Velocity="43" />
      <note Length="0.03125" Pitch="41" RiffPosition="0.25" Velocity="22" />
      <note Length="0.03125" Pitch="70" RiffPosition="0.28125" Velocity="86" />
      <note Length="0.03125" Pitch="41" RiffPosition="0.3125" Velocity="30" />
      <note Length="0.03125" Pitch="29" RiffPosition="0.34375" Velocity="84" />
      <note Length="0.015625" Pitch="55" RiffPosition="0.375" Velocity="43" />
      <note Length="0.015625" Pitch="65" RiffPosition="0.390625" Velocity="95" />
      <note Length="0.0078125" Pitch="65" RiffPosition="0.40625" Velocity="115" />
      <note Length="0.0234375" Pitch="65" RiffPosition="0.4140625" Velocity="93" />
      <note Length="0.0625" Pitch="56" RiffPosition="0.4375" Velocity="28" />
      <note Length="0.03125" Pitch="41" RiffPosition="0.5" Velocity="32" />
      <note Length="0.03125" Pitch="65" RiffPosition="0.53125" Velocity="95" />
      <note Length="0.03125" Pitch="49" RiffPosition="0.5625" Velocity="52" />
      <note Length="0.03125" Pitch="34" RiffPosition="0.59375" Velocity="115" />
      <note Length="0.015625" Pitch="41" RiffPosition="0.625" Velocity="28" />
      <note Length="0.015625" Pitch="70" RiffPosition="0.640625" Velocity="55" />
      <note Length="0.0078125" Pitch="72" RiffPosition="0.65625" Velocity="75" />
      <note Length="0.0234375" Pitch="65" RiffPosition="0.6640625" Velocity="63" />
      <note Length="0.0625" Pitch="53" RiffPosition="0.6875" Velocity="43" />
      <note Length="0.03125" Pitch="58" RiffPosition="0.75" Velocity="41" />
      <note Length="0.03125" Pitch="72" RiffPosition="0.78125" Velocity="104" />
      <note Length="0.03125" Pitch="53" RiffPosition="0.8125" Velocity="28" />
      <note Length="0.03125" Pitch="31" RiffPosition="0.84375" Velocity="84" />
      <note Length="0.015625" Pitch="49" RiffPosition="0.875" Velocity="43" />
      <note Length="0.015625" Pitch="67" RiffPosition="0.890625" Velocity="77" />
      <note Length="0.0078125" Pitch="68" RiffPosition="0.90625" Velocity="96" />
      <note Length="0.0234375" Pitch="68" RiffPosition="0.9140625" Velocity="75" />
      <note Length="0.0625" Pitch="49" RiffPosition="0.9375" Velocity="30" />
      <note Length="0.03125" Pitch="60" RiffPosition="1" Velocity="32" />
      <note Length="0.03125" Pitch="69" RiffPosition="1.03125" Velocity="95" />
      <note Length="0.03125" Pitch="62" RiffPosition="1.0625" Velocity="33" />
      <note Length="0.03125" Pitch="33" RiffPosition="1.09375" Velocity="96" />
      <note Length="0.015625" Pitch="57" RiffPosition="1.125" Velocity="30" />
      <note Length="0.015625" Pitch="76" RiffPosition="1.140625" Velocity="74" />
      <note Length="0.0078125" Pitch="76" RiffPosition="1.15625" Velocity="94" />
      <note Length="0.0234375" Pitch="71" RiffPosition="1.1640625" Velocity="63" />
      <note Length="0.0625" Pitch="45" RiffPosition="1.1875" Velocity="43" />
      <note Length="0.03125" Pitch="52" RiffPosition="1.25" Velocity="22" />
      <note Length="0.03125" Pitch="72" RiffPosition="1.28125" Velocity="86" />
      <note Length="0.03125" Pitch="57" RiffPosition="1.3125" Velocity="30" />
      <note Length="0.03125" Pitch="41" RiffPosition="1.34375" Velocity="84" />
      <note Length="0.015625" Pitch="60" RiffPosition="1.375" Velocity="43" />
      <note Length="0.015625" Pitch="69" RiffPosition="1.390625" Velocity="95" />
      <note Length="0.0078125" Pitch="69" RiffPosition="1.40625" Velocity="115" />
      <note Length="0.0234375" Pitch="69" RiffPosition="1.4140625" Velocity="93" />
      <note Length="0.0625" Pitch="59" RiffPosition="1.4375" Velocity="28" />
      <note Length="0.03125" Pitch="45" RiffPosition="1.5" Velocity="32" />
      <note Length="0.03125" Pitch="72" RiffPosition="1.53125" Velocity="95" />
      <note Length="0.03125" Pitch="52" RiffPosition="1.5625" Velocity="52" />
      <note Length="0.03125" Pitch="36" RiffPosition="1.59375" Velocity="115" />
      <note Length="0.015625" Pitch="45" RiffPosition="1.625" Velocity="28" />
      <note Length="0.015625" Pitch="72" RiffPosition="1.640625" Velocity="55" />
      <note Length="0.0078125" Pitch="74" RiffPosition="1.65625" Velocity="75" />
      <note Length="0.0234375" Pitch="74" RiffPosition="1.6640625" Velocity="63" />
      <note Length="0.0625" Pitch="60" RiffPosition="1.6875" Velocity="43" />
      <note Length="0.03125" Pitch="60" RiffPosition="1.75" Velocity="41" />
      <note Length="0.03125" Pitch="69" RiffPosition="1.78125" Velocity="104" />
      <note Length="0.03125" Pitch="45" RiffPosition="1.8125" Velocity="28" />
      <note Length="0.03125" Pitch="38" RiffPosition="1.84375" Velocity="84" />
      <note Length="0.015625" Pitch="45" RiffPosition="1.875" Velocity="43" />
      <note Length="0.015625" Pitch="69" RiffPosition="1.890625" Velocity="77" />
      <note Length="0.0078125" Pitch="69" RiffPosition="1.90625" Velocity="96" />
      <note Length="0.0234375" Pitch="69" RiffPosition="1.9140625" Velocity="75" />
      <note Length="0.0625" Pitch="45" RiffPosition="1.9375" Velocity="30" />
      <note Length="0.03125" Pitch="54" RiffPosition="2" Velocity="32" />
      <note Length="0.03125" Pitch="66" RiffPosition="2.03125" Velocity="95" />
      <note Length="0.03125" Pitch="57" RiffPosition="2.0625" Velocity="33" />
      <note Length="0.03125" Pitch="30" RiffPosition="2.09375" Velocity="96" />
      <note Length="0.015625" Pitch="54" RiffPosition="2.125" Velocity="30" />
      <note Length="0.015625" Pitch="71" RiffPosition="2.140625" Velocity="74" />
      <note Length="0.0078125" Pitch="71" RiffPosition="2.15625" Velocity="94" />
      <note Length="0.0234375" Pitch="71" RiffPosition="2.1640625" Velocity="63" />
      <note Length="0.0625" Pitch="42" RiffPosition="2.1875" Velocity="43" />
      <note Length="0.03125" Pitch="42" RiffPosition="2.25" Velocity="22" />
      <note Length="0.03125" Pitch="66" RiffPosition="2.28125" Velocity="86" />
      <note Length="0.03125" Pitch="42" RiffPosition="2.3125" Velocity="30" />
      <note Length="0.03125" Pitch="30" RiffPosition="2.34375" Velocity="84" />
      <note Length="0.015625" Pitch="56" RiffPosition="2.375" Velocity="43" />
      <note Length="0.015625" Pitch="66" RiffPosition="2.390625" Velocity="95" />
      <note Length="0.0078125" Pitch="66" RiffPosition="2.40625" Velocity="115" />
      <note Length="0.0234375" Pitch="66" RiffPosition="2.4140625" Velocity="93" />
      <note Length="0.0625" Pitch="54" RiffPosition="2.4375" Velocity="28" />
      <note Length="0.03125" Pitch="42" RiffPosition="2.5" Velocity="32" />
      <note Length="0.03125" Pitch="66" RiffPosition="2.53125" Velocity="95" />
      <note Length="0.03125" Pitch="42" RiffPosition="2.5625" Velocity="52" />
      <note Length="0.03125" Pitch="32" RiffPosition="2.59375" Velocity="115" />
      <note Length="0.015625" Pitch="42" RiffPosition="2.625" Velocity="28" />
      <note Length="0.015625" Pitch="71" RiffPosition="2.640625" Velocity="55" />
      <note Length="0.0078125" Pitch="73" RiffPosition="2.65625" Velocity="75" />
      <note Length="0.0234375" Pitch="66" RiffPosition="2.6640625" Velocity="63" />
      <note Length="0.0625" Pitch="54" RiffPosition="2.6875" Velocity="43" />
      <note Length="0.03125" Pitch="59" RiffPosition="2.75" Velocity="41" />
      <note Length="0.03125" Pitch="73" RiffPosition="2.78125" Velocity="104" />
      <note Length="0.03125" Pitch="54" RiffPosition="2.8125" Velocity="28" />
      <note Length="0.03125" Pitch="33" RiffPosition="2.84375" Velocity="84" />
      <note Length="0.015625" Pitch="42" RiffPosition="2.875" Velocity="43" />
      <note Length="0.015625" Pitch="68" RiffPosition="2.890625" Velocity="77" />
      <note Length="0.0078125" Pitch="69" RiffPosition="2.90625" Velocity="96" />
      <note Length="0.0234375" Pitch="66" RiffPosition="2.9140625" Velocity="75" />
      <note Length="0.0625" Pitch="42" RiffPosition="2.9375" Velocity="30" />
      <note Length="0.03125" Pitch="35" RiffPosition="3" Velocity="32" />
      <note Length="0.03125" Pitch="59" RiffPosition="3.03125" Velocity="95" />
      <note Length="0.03125" Pitch="52" RiffPosition="3.0625" Velocity="33" />
      <note Length="0.03125" Pitch="23" RiffPosition="3.09375" Velocity="96" />
      <note Length="0.015625" Pitch="49" RiffPosition="3.125" Velocity="30" />
      <note Length="0.015625" Pitch="59" RiffPosition="3.140625" Velocity="74" />
      <note Length="0.0078125" Pitch="62" RiffPosition="3.15625" Velocity="94" />
      <note Length="0.0234375" Pitch="62" RiffPosition="3.1640625" Velocity="63" />
      <note Length="0.0625" Pitch="35" RiffPosition="3.1875" Velocity="43" />
      <note Length="0.03125" Pitch="43" RiffPosition="3.25" Velocity="22" />
      <note Length="0.03125" Pitch="62" RiffPosition="3.28125" Velocity="86" />
      <note Length="0.03125" Pitch="35" RiffPosition="3.3125" Velocity="30" />
      <note Length="0.03125" Pitch="31" RiffPosition="3.34375" Velocity="84" />
      <note Length="0.015625" Pitch="50" RiffPosition="3.375" Velocity="43" />
      <note Length="0.015625" Pitch="66" RiffPosition="3.390625" Velocity="95" />
      <note Length="0.0078125" Pitch="59" RiffPosition="3.40625" Velocity="115" />
      <note Length="0.0234375" Pitch="59" RiffPosition="3.4140625" Velocity="93" />
      <note Length="0.0625" Pitch="50" RiffPosition="3.4375" Velocity="28" />
      <note Length="0.03125" Pitch="35" RiffPosition="3.5" Velocity="32" />
      <note Length="0.03125" Pitch="62" RiffPosition="3.53125" Velocity="95" />
      <note Length="0.03125" Pitch="42" RiffPosition="3.5625" Velocity="52" />
      <note Length="0.03125" Pitch="26" RiffPosition="3.59375" Velocity="115" />
      <note Length="0.015625" Pitch="47" RiffPosition="3.625" Velocity="28" />
      <note Length="0.015625" Pitch="62" RiffPosition="3.640625" Velocity="55" />
      <note Length="0.0078125" Pitch="64" RiffPosition="3.65625" Velocity="75" />
      <note Length="0.0234375" Pitch="64" RiffPosition="3.6640625" Velocity="63" />
      <note Length="0.0625" Pitch="50" RiffPosition="3.6875" Velocity="43" />
      <note Length="0.03125" Pitch="50" RiffPosition="3.75" Velocity="41" />
      <note Length="0.03125" Pitch="59" RiffPosition="3.78125" Velocity="104" />
      <note Length="0.03125" Pitch="35" RiffPosition="3.8125" Velocity="28" />
      <note Length="0.03125" Pitch="28" RiffPosition="3.84375" Velocity="84" />
      <note Length="0.015625" Pitch="42" RiffPosition="3.875" Velocity="43" />
      <note Length="0.015625" Pitch="59" RiffPosition="3.890625" Velocity="77" />
      <note Length="0.0078125" Pitch="59" RiffPosition="3.90625" Velocity="96" />
      <note Length="0.0234375" Pitch="61" RiffPosition="3.9140625" Velocity="75" />
      <note Length="0.0625" Pitch="35" RiffPosition="3.9375" Velocity="30" />
      <note Length="0.03125" Pitch="56" RiffPosition="4" Velocity="32" />
      <note Length="0.03125" Pitch="73" RiffPosition="4.03125" Velocity="95" />
      <note Length="0.03125" Pitch="57" RiffPosition="4.0625" Velocity="33" />
      <note Length="0.03125" Pitch="30" RiffPosition="4.09375" Velocity="96" />
      <note Length="0.015625" Pitch="54" RiffPosition="4.125" Velocity="30" />
      <note Length="0.015625" Pitch="71" RiffPosition="4.140625" Velocity="74" />
      <note Length="0.0078125" Pitch="71" RiffPosition="4.15625" Velocity="94" />
      <note Length="0.0234375" Pitch="71" RiffPosition="4.1640625" Velocity="63" />
      <note Length="0.0625" Pitch="50" RiffPosition="4.1875" Velocity="43" />
      <note Length="0.03125" Pitch="42" RiffPosition="4.25" Velocity="22" />
      <note Length="0.03125" Pitch="68" RiffPosition="4.28125" Velocity="86" />
      <note Length="0.03125" Pitch="54" RiffPosition="4.3125" Velocity="30" />
      <note Length="0.03125" Pitch="30" RiffPosition="4.34375" Velocity="84" />
      <note Length="0.015625" Pitch="57" RiffPosition="4.375" Velocity="43" />
      <note Length="0.015625" Pitch="66" RiffPosition="4.390625" Velocity="95" />
      <note Length="0.0078125" Pitch="66" RiffPosition="4.40625" Velocity="115" />
      <note Length="0.0234375" Pitch="66" RiffPosition="4.4140625" Velocity="93" />
      <note Length="0.0625" Pitch="54" RiffPosition="4.4375" Velocity="28" />
      <note Length="0.03125" Pitch="54" RiffPosition="4.5" Velocity="32" />
      <note Length="0.03125" Pitch="68" RiffPosition="4.53125" Velocity="95" />
      <note Length="0.03125" Pitch="42" RiffPosition="4.5625" Velocity="52" />
      <note Length="0.03125" Pitch="32" RiffPosition="4.59375" Velocity="115" />
      <note Length="0.015625" Pitch="42" RiffPosition="4.625" Velocity="28" />
      <note Length="0.015625" Pitch="71" RiffPosition="4.640625" Velocity="55" />
      <note Length="0.0078125" Pitch="66" RiffPosition="4.65625" Velocity="75" />
      <note Length="0.0234375" Pitch="71" RiffPosition="4.6640625" Velocity="63" />
      <note Length="0.0625" Pitch="54" RiffPosition="4.6875" Velocity="43" />
      <note Length="0.03125" Pitch="56" RiffPosition="4.75" Velocity="41" />
      <note Length="0.03125" Pitch="66" RiffPosition="4.78125" Velocity="104" />
      <note Length="0.03125" Pitch="54" RiffPosition="4.8125" Velocity="28" />
      <note Length="0.03125" Pitch="35" RiffPosition="4.84375" Velocity="84" />
      <note Length="0.015625" Pitch="42" RiffPosition="4.875" Velocity="43" />
      <note Length="0.015625" Pitch="69" RiffPosition="4.890625" Velocity="77" />
      <note Length="0.0078125" Pitch="66" RiffPosition="4.90625" Velocity="96" />
      <note Length="0.0234375" Pitch="66" RiffPosition="4.9140625" Velocity="75" />
      <note Length="0.0625" Pitch="42" RiffPosition="4.9375" Velocity="30" />
      <note Length="0.03125" Pitch="47" RiffPosition="5" Velocity="32" />
      <note Length="0.03125" Pitch="59" RiffPosition="5.03125" Velocity="95" />
      <note Length="0.03125" Pitch="49" RiffPosition="5.0625" Velocity="33" />
      <note Length="0.03125" Pitch="23" RiffPosition="5.09375" Velocity="96" />
      <note Length="0.015625" Pitch="49" RiffPosition="5.125" Velocity="30" />
      <note Length="0.015625" Pitch="62" RiffPosition="5.140625" Velocity="74" />
      <note Length="0.0078125" Pitch="62" RiffPosition="5.15625" Velocity="94" />
      <note Length="0.0234375" Pitch="62" RiffPosition="5.1640625" Velocity="63" />
      <note Length="0.0625" Pitch="35" RiffPosition="5.1875" Velocity="43" />
      <note Length="0.03125" Pitch="43" RiffPosition="5.25" Velocity="22" />
      <note Length="0.03125" Pitch="62" RiffPosition="5.28125" Velocity="86" />
      <note Length="0.03125" Pitch="35" RiffPosition="5.3125" Velocity="30" />
      <note Length="0.03125" Pitch="23" RiffPosition="5.34375" Velocity="84" />
      <note Length="0.015625" Pitch="52" RiffPosition="5.375" Velocity="43" />
      <note Length="0.015625" Pitch="59" RiffPosition="5.390625" Velocity="95" />
      <note Length="0.0078125" Pitch="59" RiffPosition="5.40625" Velocity="115" />
      <note Length="0.0234375" Pitch="59" RiffPosition="5.4140625" Velocity="93" />
      <note Length="0.0625" Pitch="50" RiffPosition="5.4375" Velocity="28" />
      <note Length="0.03125" Pitch="35" RiffPosition="5.5" Velocity="32" />
      <note Length="0.03125" Pitch="62" RiffPosition="5.53125" Velocity="95" />
      <note Length="0.03125" Pitch="43" RiffPosition="5.5625" Velocity="52" />
      <note Length="0.03125" Pitch="28" RiffPosition="5.59375" Velocity="115" />
      <note Length="0.015625" Pitch="35" RiffPosition="5.625" Velocity="28" />
      <note Length="0.015625" Pitch="62" RiffPosition="5.640625" Velocity="55" />
      <note Length="0.0078125" Pitch="64" RiffPosition="5.65625" Velocity="75" />
      <note Length="0.0234375" Pitch="66" RiffPosition="5.6640625" Velocity="63" />
      <note Length="0.0625" Pitch="50" RiffPosition="5.6875" Velocity="43" />
      <note Length="0.03125" Pitch="50" RiffPosition="5.75" Velocity="41" />
      <note Length="0.03125" Pitch="64" RiffPosition="5.78125" Velocity="104" />
      <note Length="0.03125" Pitch="35" RiffPosition="5.8125" Velocity="28" />
      <note Length="0.03125" Pitch="30" RiffPosition="5.84375" Velocity="84" />
      <note Length="0.015625" Pitch="43" RiffPosition="5.875" Velocity="43" />
      <note Length="0.015625" Pitch="59" RiffPosition="5.890625" Velocity="77" />
      <note Length="0.0078125" Pitch="61" RiffPosition="5.90625" Velocity="96" />
      <note Length="0.0234375" Pitch="62" RiffPosition="5.9140625" Velocity="75" />
      <note Length="0.0625" Pitch="43" RiffPosition="5.9375" Velocity="30" />
      <note Length="0.03125" Pitch="55" RiffPosition="6" Velocity="32" />
      <note Length="0.03125" Pitch="72" RiffPosition="6.03125" Velocity="95" />
      <note Length="0.03125" Pitch="56" RiffPosition="6.0625" Velocity="33" />
      <note Length="0.03125" Pitch="29" RiffPosition="6.09375" Velocity="96" />
      <note Length="0.015625" Pitch="53" RiffPosition="6.125" Velocity="30" />
      <note Length="0.015625" Pitch="70" RiffPosition="6.140625" Velocity="74" />
      <note Length="0.0078125" Pitch="70" RiffPosition="6.15625" Velocity="94" />
      <note Length="0.0234375" Pitch="70" RiffPosition="6.1640625" Velocity="63" />
      <note Length="0.0625" Pitch="49" RiffPosition="6.1875" Velocity="43" />
      <note Length="0.03125" Pitch="41" RiffPosition="6.25" Velocity="22" />
      <note Length="0.03125" Pitch="67" RiffPosition="6.28125" Velocity="86" />
      <note Length="0.03125" Pitch="53" RiffPosition="6.3125" Velocity="30" />
      <note Length="0.03125" Pitch="36" RiffPosition="6.34375" Velocity="84" />
      <note Length="0.015625" Pitch="56" RiffPosition="6.375" Velocity="43" />
      <note Length="0.015625" Pitch="65" RiffPosition="6.390625" Velocity="95" />
      <note Length="0.0078125" Pitch="65" RiffPosition="6.40625" Velocity="115" />
      <note Length="0.0234375" Pitch="72" RiffPosition="6.4140625" Velocity="93" />
      <note Length="0.0625" Pitch="55" RiffPosition="6.4375" Velocity="28" />
      <note Length="0.03125" Pitch="41" RiffPosition="6.5" Velocity="32" />
      <note Length="0.03125" Pitch="67" RiffPosition="6.53125" Velocity="95" />
      <note Length="0.03125" Pitch="41" RiffPosition="6.5625" Velocity="52" />
      <note Length="0.03125" Pitch="31" RiffPosition="6.59375" Velocity="115" />
      <note Length="0.015625" Pitch="41" RiffPosition="6.625" Velocity="28" />
      <note Length="0.015625" Pitch="70" RiffPosition="6.640625" Velocity="55" />
      <note Length="0.0078125" Pitch="68" RiffPosition="6.65625" Velocity="75" />
      <note Length="0.0234375" Pitch="70" RiffPosition="6.6640625" Velocity="63" />
      <note Length="0.0625" Pitch="55" RiffPosition="6.6875" Velocity="43" />
      <note Length="0.03125" Pitch="55" RiffPosition="6.75" Velocity="41" />
      <note Length="0.03125" Pitch="65" RiffPosition="6.78125" Velocity="104" />
      <note Length="0.03125" Pitch="41" RiffPosition="6.8125" Velocity="28" />
      <note Length="0.03125" Pitch="34" RiffPosition="6.84375" Velocity="84" />
      <note Length="0.015625" Pitch="41" RiffPosition="6.875" Velocity="43" />
      <note Length="0.015625" Pitch="68" RiffPosition="6.890625" Velocity="77" />
      <note Length="0.0078125" Pitch="65" RiffPosition="6.90625" Velocity="96" />
      <note Length="0.0234375" Pitch="65" RiffPosition="6.9140625" Velocity="75" />
      <note Length="0.0625" Pitch="41" RiffPosition="6.9375" Velocity="30" />
      <note Length="0.03125" Pitch="46" RiffPosition="7" Velocity="32" />
      <note Length="0.03125" Pitch="58" RiffPosition="7.03125" Velocity="95" />
      <note Length="0.03125" Pitch="48" RiffPosition="7.0625" Velocity="33" />
      <note Length="0.03125" Pitch="22" RiffPosition="7.09375" Velocity="96" />
      <note Length="0.015625" Pitch="49" RiffPosition="7.125" Velocity="30" />
      <note Length="0.015625" Pitch="61" RiffPosition="7.140625" Velocity="74" />
      <note Length="0.0078125" Pitch="61" RiffPosition="7.15625" Velocity="94" />
      <note Length="0.0234375" Pitch="61" RiffPosition="7.1640625" Velocity="63" />
      <note Length="0.0625" Pitch="34" RiffPosition="7.1875" Velocity="43" />
      <note Length="0.03125" Pitch="34" RiffPosition="7.25" Velocity="22" />
      <note Length="0.03125" Pitch="63" RiffPosition="7.28125" Velocity="86" />
      <note Length="0.03125" Pitch="34" RiffPosition="7.3125" Velocity="30" />
      <note Length="0.03125" Pitch="22" RiffPosition="7.34375" Velocity="84" />
      <note Length="0.015625" Pitch="46" RiffPosition="7.375" Velocity="43" />
      <note Length="0.015625" Pitch="58" RiffPosition="7.390625" Velocity="95" />
      <note Length="0.0078125" Pitch="58" RiffPosition="7.40625" Velocity="115" />
      <note Length="0.0234375" Pitch="58" RiffPosition="7.4140625" Velocity="93" />
      <note Length="0.0625" Pitch="49" RiffPosition="7.4375" Velocity="28" />
      <note Length="0.03125" Pitch="34" RiffPosition="7.5" Velocity="32" />
      <note Length="0.03125" Pitch="58" RiffPosition="7.53125" Velocity="95" />
      <note Length="0.03125" Pitch="42" RiffPosition="7.5625" Velocity="52" />
      <note Length="0.03125" Pitch="27" RiffPosition="7.59375" Velocity="115" />
      <note Length="0.015625" Pitch="34" RiffPosition="7.625" Velocity="28" />
      <note Length="0.015625" Pitch="63" RiffPosition="7.640625" Velocity="55" />
      <note Length="0.0078125" Pitch="65" RiffPosition="7.65625" Velocity="75" />
      <note Length="0.0234375" Pitch="58" RiffPosition="7.6640625" Velocity="63" />
      <note Length="0.0625" Pitch="46" RiffPosition="7.6875" Velocity="43" />
      <note Length="0.03125" Pitch="51" RiffPosition="7.75" Velocity="41" />
      <note Length="0.03125" Pitch="63" RiffPosition="7.78125" Velocity="104" />
      <note Length="0.03125" Pitch="46" RiffPosition="7.8125" Velocity="28" />
      <note Length="0.03125" Pitch="29" RiffPosition="7.84375" Velocity="84" />
      <note Length="0.015625" Pitch="42" RiffPosition="7.875" Velocity="43" />
      <note Length="0.015625" Pitch="60" RiffPosition="7.890625" Velocity="77" />
      <note Length="0.0078125" Pitch="61" RiffPosition="7.90625" Velocity="96" />
      <note Length="0.0234375" Pitch="61" RiffPosition="7.9140625" Velocity="75" />
      <note Length="0.0625" Pitch="42" RiffPosition="7.9375" Velocity="30" />
      <note Length="0.03125" Pitch="56" RiffPosition="8" Velocity="0" />
      <note Length="0.03125" Pitch="65" RiffPosition="8.03125" Velocity="0" />
      <note Length="0.03125" Pitch="56" RiffPosition="8.0625" Velocity="0" />
      <note Length="0.03125" Pitch="37" RiffPosition="8.09375" Velocity="0" />
      <note Length="0.015625" Pitch="53" RiffPosition="8.125" Velocity="0" />
      <note Length="0.015625" Pitch="72" RiffPosition="8.140625" Velocity="0" />
      <note Length="0.0078125" Pitch="70" RiffPosition="8.15625" Velocity="0" />
      <note Length="0.0234375" Pitch="67" RiffPosition="8.1640625" Velocity="0" />
      <note Length="0.0625" Pitch="41" RiffPosition="8.1875" Velocity="0" />
      <note Length="0.03125" Pitch="48" RiffPosition="8.25" Velocity="0" />
      <note Length="0.03125" Pitch="68" RiffPosition="8.28125" Velocity="0" />
      <note Length="0.03125" Pitch="53" RiffPosition="8.3125" Velocity="0" />
      <note Length="0.03125" Pitch="37" RiffPosition="8.34375" Velocity="0" />
      <note Length="0.015625" Pitch="56" RiffPosition="8.375" Velocity="0" />
      <note Length="0.015625" Pitch="65" RiffPosition="8.390625" Velocity="0" />
      <note Length="0.0078125" Pitch="65" RiffPosition="8.40625" Velocity="0" />
      <note Length="0.0234375" Pitch="65" RiffPosition="8.4140625" Velocity="0" />
      <note Length="0.0625" Pitch="55" RiffPosition="8.4375" Velocity="0" />
      <note Length="0.03125" Pitch="41" RiffPosition="8.5" Velocity="0" />
      <note Length="0.03125" Pitch="68" RiffPosition="8.53125" Velocity="0" />
      <note Length="0.03125" Pitch="48" RiffPosition="8.5625" Velocity="0" />
      <note Length="0.03125" Pitch="32" RiffPosition="8.59375" Velocity="0" />
      <note Length="0.015625" Pitch="41" RiffPosition="8.625" Velocity="0" />
      <note Length="0.015625" Pitch="72" RiffPosition="8.640625" Velocity="0" />
      <note Length="0.0078125" Pitch="70" RiffPosition="8.65625" Velocity="0" />
      <note Length="0.0234375" Pitch="70" RiffPosition="8.6640625" Velocity="0" />
      <note Length="0.0625" Pitch="56" RiffPosition="8.6875" Velocity="0" />
      <note Length="0.03125" Pitch="56" RiffPosition="8.75" Velocity="0" />
      <note Length="0.03125" Pitch="65" RiffPosition="8.78125" Velocity="0" />
      <note Length="0.03125" Pitch="41" RiffPosition="8.8125" Velocity="0" />
      <note Length="0.03125" Pitch="34" RiffPosition="8.84375" Velocity="0" />
      <note Length="0.015625" Pitch="41" RiffPosition="8.875" Velocity="0" />
      <note Length="0.015625" Pitch="65" RiffPosition="8.890625" Velocity="0" />
      <note Length="0.0078125" Pitch="65" RiffPosition="8.90625" Velocity="0" />
      <note Length="0.0234375" Pitch="65" RiffPosition="8.9140625" Velocity="0" />
      <note Length="0.0625" Pitch="41" RiffPosition="8.9375" Velocity="0" />
      <note Length="0.03125" Pitch="46" RiffPosition="9" Velocity="0" />
      <note Length="0.03125" Pitch="58" RiffPosition="9.03125" Velocity="0" />
      <note Length="0.03125" Pitch="49" RiffPosition="9.0625" Velocity="0" />
      <note Length="0.03125" Pitch="22" RiffPosition="9.09375" Velocity="0" />
      <note Length="0.015625" Pitch="34" RiffPosition="9.125" Velocity="0" />
      <note Length="0.015625" Pitch="63" RiffPosition="9.140625" Velocity="0" />
      <note Length="0.0078125" Pitch="63" RiffPosition="9.15625" Velocity="0" />
      <note Length="0.0234375" Pitch="61" RiffPosition="9.1640625" Velocity="0" />
      <note Length="0.0625" Pitch="34" RiffPosition="9.1875" Velocity="0" />
      <note Length="0.03125" Pitch="34" RiffPosition="9.25" Velocity="0" />
      <note Length="0.03125" Pitch="58" RiffPosition="9.28125" Velocity="0" />
      <note Length="0.03125" Pitch="34" RiffPosition="9.3125" Velocity="0" />
      <note Length="0.03125" Pitch="22" RiffPosition="9.34375" Velocity="0" />
      <note Length="0.015625" Pitch="48" RiffPosition="9.375" Velocity="0" />
      <note Length="0.015625" Pitch="58" RiffPosition="9.390625" Velocity="0" />
      <note Length="0.0078125" Pitch="58" RiffPosition="9.40625" Velocity="0" />
      <note Length="0.0234375" Pitch="58" RiffPosition="9.4140625" Velocity="0" />
      <note Length="0.0625" Pitch="46" RiffPosition="9.4375" Velocity="0" />
      <note Length="0.03125" Pitch="34" RiffPosition="9.5" Velocity="0" />
      <note Length="0.03125" Pitch="58" RiffPosition="9.53125" Velocity="0" />
      <note Length="0.03125" Pitch="34" RiffPosition="9.5625" Velocity="0" />
      <note Length="0.03125" Pitch="27" RiffPosition="9.59375" Velocity="0" />
      <note Length="0.015625" Pitch="34" RiffPosition="9.625" Velocity="0" />
      <note Length="0.015625" Pitch="63" RiffPosition="9.640625" Velocity="0" />
      <note Length="0.0078125" Pitch="65" RiffPosition="9.65625" Velocity="0" />
      <note Length="0.0234375" Pitch="58" RiffPosition="9.6640625" Velocity="0" />
      <note Length="0.0625" Pitch="46" RiffPosition="9.6875" Velocity="0" />
      <note Length="0.03125" Pitch="51" RiffPosition="9.75" Velocity="0" />
      <note Length="0.03125" Pitch="65" RiffPosition="9.78125" Velocity="0" />
      <note Length="0.03125" Pitch="46" RiffPosition="9.8125" Velocity="0" />
      <note Length="0.03125" Pitch="25" RiffPosition="9.84375" Velocity="0" />
      <note Length="0.015625" Pitch="34" RiffPosition="9.875" Velocity="0" />
      <note Length="0.015625" Pitch="60" RiffPosition="9.890625" Velocity="0" />
      <note Length="0.0078125" Pitch="61" RiffPosition="9.90625" Velocity="0" />
      <note Length="0.0234375" Pitch="61" RiffPosition="9.9140625" Velocity="0" />
      <note Length="0.0625" Pitch="34" RiffPosition="9.9375" Velocity="0" />
      <note Length="0.03125" Pitch="43" RiffPosition="10" Velocity="0" />
      <note Length="0.03125" Pitch="67" RiffPosition="10.03125" Velocity="0" />
      <note Length="0.03125" Pitch="60" RiffPosition="10.0625" Velocity="0" />
      <note Length="0.03125" Pitch="31" RiffPosition="10.09375" Velocity="0" />
      <note Length="0.015625" Pitch="57" RiffPosition="10.125" Velocity="0" />
      <note Length="0.015625" Pitch="74" RiffPosition="10.140625" Velocity="0" />
      <note Length="0.0078125" Pitch="70" RiffPosition="10.15625" Velocity="0" />
      <note Length="0.0234375" Pitch="70" RiffPosition="10.1640625" Velocity="0" />
      <note Length="0.0625" Pitch="43" RiffPosition="10.1875" Velocity="0" />
      <note Length="0.03125" Pitch="51" RiffPosition="10.25" Velocity="0" />
      <note Length="0.03125" Pitch="70" RiffPosition="10.28125" Velocity="0" />
      <note Length="0.03125" Pitch="55" RiffPosition="10.3125" Velocity="0" />
      <note Length="0.03125" Pitch="39" RiffPosition="10.34375" Velocity="0" />
      <note Length="0.015625" Pitch="58" RiffPosition="10.375" Velocity="0" />
      <note Length="0.015625" Pitch="67" RiffPosition="10.390625" Velocity="0" />
      <note Length="0.0078125" Pitch="67" RiffPosition="10.40625" Velocity="0" />
      <note Length="0.0234375" Pitch="67" RiffPosition="10.4140625" Velocity="0" />
      <note Length="0.0625" Pitch="58" RiffPosition="10.4375" Velocity="0" />
      <note Length="0.03125" Pitch="43" RiffPosition="10.5" Velocity="0" />
      <note Length="0.03125" Pitch="70" RiffPosition="10.53125" Velocity="0" />
      <note Length="0.03125" Pitch="50" RiffPosition="10.5625" Velocity="0" />
      <note Length="0.03125" Pitch="34" RiffPosition="10.59375" Velocity="0" />
      <note Length="0.015625" Pitch="55" RiffPosition="10.625" Velocity="0" />
      <note Length="0.015625" Pitch="70" RiffPosition="10.640625" Velocity="0" />
      <note Length="0.0078125" Pitch="72" RiffPosition="10.65625" Velocity="0" />
      <note Length="0.0234375" Pitch="72" RiffPosition="10.6640625" Velocity="0" />
      <note Length="0.0625" Pitch="58" RiffPosition="10.6875" Velocity="0" />
      <note Length="0.03125" Pitch="58" RiffPosition="10.75" Velocity="0" />
      <note Length="0.03125" Pitch="67" RiffPosition="10.78125" Velocity="0" />
      <note Length="0.03125" Pitch="43" RiffPosition="10.8125" Velocity="0" />
      <note Length="0.03125" Pitch="36" RiffPosition="10.84375" Velocity="0" />
      <note Length="0.015625" Pitch="50" RiffPosition="10.875" Velocity="0" />
      <note Length="0.015625" Pitch="67" RiffPosition="10.890625" Velocity="0" />
      <note Length="0.0078125" Pitch="67" RiffPosition="10.90625" Velocity="0" />
      <note Length="0.0234375" Pitch="69" RiffPosition="10.9140625" Velocity="0" />
      <note Length="0.0625" Pitch="43" RiffPosition="10.9375" Velocity="0" />
      <note Length="0.03125" Pitch="46" RiffPosition="11" Velocity="0" />
      <note Length="0.03125" Pitch="65" RiffPosition="11.03125" Velocity="0" />
      <note Length="0.03125" Pitch="49" RiffPosition="11.0625" Velocity="0" />
      <note Length="0.03125" Pitch="22" RiffPosition="11.09375" Velocity="0" />
      <note Length="0.015625" Pitch="46" RiffPosition="11.125" Velocity="0" />
      <note Length="0.015625" Pitch="63" RiffPosition="11.140625" Velocity="0" />
      <note Length="0.0078125" Pitch="63" RiffPosition="11.15625" Velocity="0" />
      <note Length="0.0234375" Pitch="63" RiffPosition="11.1640625" Velocity="0" />
      <note Length="0.0625" Pitch="34" RiffPosition="11.1875" Velocity="0" />
      <note Length="0.03125" Pitch="34" RiffPosition="11.25" Velocity="0" />
      <note Length="0.03125" Pitch="60" RiffPosition="11.28125" Velocity="0" />
      <note Length="0.03125" Pitch="46" RiffPosition="11.3125" Velocity="0" />
      <note Length="0.03125" Pitch="22" RiffPosition="11.34375" Velocity="0" />
      <note Length="0.015625" Pitch="49" RiffPosition="11.375" Velocity="0" />
      <note Length="0.015625" Pitch="58" RiffPosition="11.390625" Velocity="0" />
      <note Length="0.0078125" Pitch="58" RiffPosition="11.40625" Velocity="0" />
      <note Length="0.0234375" Pitch="58" RiffPosition="11.4140625" Velocity="0" />
      <note Length="0.0625" Pitch="46" RiffPosition="11.4375" Velocity="0" />
      <note Length="0.03125" Pitch="46" RiffPosition="11.5" Velocity="0" />
      <note Length="0.03125" Pitch="58" RiffPosition="11.53125" Velocity="0" />
      <note Length="0.03125" Pitch="34" RiffPosition="11.5625" Velocity="0" />
      <note Length="0.03125" Pitch="24" RiffPosition="11.59375" Velocity="0" />
      <note Length="0.015625" Pitch="34" RiffPosition="11.625" Velocity="0" />
      <note Length="0.015625" Pitch="63" RiffPosition="11.640625" Velocity="0" />
      <note Length="0.0078125" Pitch="58" RiffPosition="11.65625" Velocity="0" />
      <note Length="0.0234375" Pitch="58" RiffPosition="11.6640625" Velocity="0" />
      <note Length="0.0625" Pitch="46" RiffPosition="11.6875" Velocity="0" />
      <note Length="0.03125" Pitch="46" RiffPosition="11.75" Velocity="0" />
      <note Length="0.03125" Pitch="58" RiffPosition="11.78125" Velocity="0" />
      <note Length="0.03125" Pitch="46" RiffPosition="11.8125" Velocity="0" />
      <note Length="0.03125" Pitch="25" RiffPosition="11.84375" Velocity="0" />
      <note Length="0.015625" Pitch="34" RiffPosition="11.875" Velocity="0" />
      <note Length="0.015625" Pitch="61" RiffPosition="11.890625" Velocity="0" />
      <note Length="0.0078125" Pitch="46" RiffPosition="11.90625" Velocity="0" />
      <note Length="0.0234375" Pitch="58" RiffPosition="11.9140625" Velocity="0" />
      <note Length="0.0625" Pitch="34" RiffPosition="11.9375" Velocity="0" />
      <note Length="0.03125" Pitch="55" RiffPosition="12" Velocity="32" />
      <note Length="0.03125" Pitch="67" RiffPosition="12.03125" Velocity="95" />
      <note Length="0.03125" Pitch="60" RiffPosition="12.0625" Velocity="33" />
      <note Length="0.03125" Pitch="31" RiffPosition="12.09375" Velocity="96" />
      <note Length="0.015625" Pitch="57" RiffPosition="12.125" Velocity="30" />
      <note Length="0.015625" Pitch="67" RiffPosition="12.140625" Velocity="74" />
      <note Length="0.0078125" Pitch="70" RiffPosition="12.15625" Velocity="94" />
      <note Length="0.0234375" Pitch="70" RiffPosition="12.1640625" Velocity="63" />
      <note Length="0.0625" Pitch="43" RiffPosition="12.1875" Velocity="43" />
      <note Length="0.03125" Pitch="51" RiffPosition="12.25" Velocity="22" />
      <note Length="0.03125" Pitch="70" RiffPosition="12.28125" Velocity="86" />
      <note Length="0.03125" Pitch="43" RiffPosition="12.3125" Velocity="30" />
      <note Length="0.03125" Pitch="31" RiffPosition="12.34375" Velocity="84" />
      <note Length="0.015625" Pitch="60" RiffPosition="12.375" Velocity="43" />
      <note Length="0.015625" Pitch="67" RiffPosition="12.390625" Velocity="95" />
      <note Length="0.0078125" Pitch="67" RiffPosition="12.40625" Velocity="115" />
      <note Length="0.0234375" Pitch="67" RiffPosition="12.4140625" Velocity="93" />
      <note Length="0.0625" Pitch="58" RiffPosition="12.4375" Velocity="28" />
      <note Length="0.03125" Pitch="43" RiffPosition="12.5" Velocity="32" />
      <note Length="0.03125" Pitch="70" RiffPosition="12.53125" Velocity="95" />
      <note Length="0.03125" Pitch="51" RiffPosition="12.5625" Velocity="52" />
      <note Length="0.03125" Pitch="36" RiffPosition="12.59375" Velocity="115" />
      <note Length="0.015625" Pitch="43" RiffPosition="12.625" Velocity="28" />
      <note Length="0.015625" Pitch="70" RiffPosition="12.640625" Velocity="55" />
      <note Length="0.0078125" Pitch="72" RiffPosition="12.65625" Velocity="75" />
      <note Length="0.0234375" Pitch="74" RiffPosition="12.6640625" Velocity="63" />
      <note Length="0.0625" Pitch="58" RiffPosition="12.6875" Velocity="43" />
      <note Length="0.03125" Pitch="58" RiffPosition="12.75" Velocity="41" />
      <note Length="0.03125" Pitch="72" RiffPosition="12.78125" Velocity="104" />
      <note Length="0.03125" Pitch="43" RiffPosition="12.8125" Velocity="28" />
      <note Length="0.03125" Pitch="38" RiffPosition="12.84375" Velocity="84" />
      <note Length="0.015625" Pitch="51" RiffPosition="12.875" Velocity="43" />
      <note Length="0.015625" Pitch="67" RiffPosition="12.890625" Velocity="77" />
      <note Length="0.0078125" Pitch="69" RiffPosition="12.90625" Velocity="96" />
      <note Length="0.0234375" Pitch="69" RiffPosition="12.9140625" Velocity="75" />
      <note Length="0.0625" Pitch="43" RiffPosition="12.9375" Velocity="30" />
      <note Length="0.03125" Pitch="59" RiffPosition="13" Velocity="32" />
      <note Length="0.03125" Pitch="76" RiffPosition="13.03125" Velocity="95" />
      <note Length="0.03125" Pitch="60" RiffPosition="13.0625" Velocity="33" />
      <note Length="0.03125" Pitch="33" RiffPosition="13.09375" Velocity="96" />
      <note Length="0.015625" Pitch="57" RiffPosition="13.125" Velocity="30" />
      <note Length="0.015625" Pitch="74" RiffPosition="13.140625" Velocity="74" />
      <note Length="0.0078125" Pitch="74" RiffPosition="13.15625" Velocity="94" />
      <note Length="0.0234375" Pitch="74" RiffPosition="13.1640625" Velocity="63" />
      <note Length="0.0625" Pitch="53" RiffPosition="13.1875" Velocity="43" />
      <note Length="0.03125" Pitch="45" RiffPosition="13.25" Velocity="22" />
      <note Length="0.03125" Pitch="71" RiffPosition="13.28125" Velocity="86" />
      <note Length="0.03125" Pitch="57" RiffPosition="13.3125" Velocity="30" />
      <note Length="0.03125" Pitch="40" RiffPosition="13.34375" Velocity="84" />
      <note Length="0.015625" Pitch="60" RiffPosition="13.375" Velocity="43" />
      <note Length="0.015625" Pitch="69" RiffPosition="13.390625" Velocity="95" />
      <note Length="0.0078125" Pitch="69" RiffPosition="13.40625" Velocity="115" />
      <note Length="0.0234375" Pitch="69" RiffPosition="13.4140625" Velocity="93" />
      <note Length="0.0625" Pitch="57" RiffPosition="13.4375" Velocity="28" />
      <note Length="0.03125" Pitch="45" RiffPosition="13.5" Velocity="32" />
      <note Length="0.03125" Pitch="71" RiffPosition="13.53125" Velocity="95" />
      <note Length="0.03125" Pitch="45" RiffPosition="13.5625" Velocity="52" />
      <note Length="0.03125" Pitch="35" RiffPosition="13.59375" Velocity="115" />
      <note Length="0.015625" Pitch="45" RiffPosition="13.625" Velocity="28" />
      <note Length="0.015625" Pitch="74" RiffPosition="13.640625" Velocity="55" />
      <note Length="0.0078125" Pitch="72" RiffPosition="13.65625" Velocity="75" />
      <note Length="0.0234375" Pitch="74" RiffPosition="13.6640625" Velocity="63" />
      <note Length="0.0625" Pitch="59" RiffPosition="13.6875" Velocity="43" />
      <note Length="0.03125" Pitch="59" RiffPosition="13.75" Velocity="41" />
      <note Length="0.03125" Pitch="69" RiffPosition="13.78125" Velocity="104" />
      <note Length="0.03125" Pitch="59" RiffPosition="13.8125" Velocity="28" />
      <note Length="0.03125" Pitch="38" RiffPosition="13.84375" Velocity="84" />
      <note Length="0.015625" Pitch="45" RiffPosition="13.875" Velocity="43" />
      <note Length="0.015625" Pitch="72" RiffPosition="13.890625" Velocity="77" />
      <note Length="0.0078125" Pitch="69" RiffPosition="13.90625" Velocity="96" />
      <note Length="0.0234375" Pitch="69" RiffPosition="13.9140625" Velocity="75" />
      <note Length="0.0625" Pitch="45" RiffPosition="13.9375" Velocity="30" />
    </riff>
    <riff IsDrum="False" MidiInstrument="0" Tempo="83" Length="14">
      <note Length="0.03125" Pitch="53" RiffPosition="0" Velocity="0" />
      <note Length="0.03125" Pitch="65" RiffPosition="0.03125" Velocity="0" />
      <note Length="0.015625" Pitch="41" RiffPosition="0.0625" Velocity="0" />
      <note Length="0.046875" Pitch="53" RiffPosition="0.078125" Velocity="0" />
      <note Length="0.0625" Pitch="41" RiffPosition="0.125" Velocity="0" />
      <note Length="0.03125" Pitch="41" RiffPosition="0.1875" Velocity="0" />
      <note Length="0.015625" Pitch="31" RiffPosition="0.21875" Velocity="0" />
      <note Length="0.015625" Pitch="31" RiffPosition="0.234375" Velocity="0" />
      <note Length="0.03125" Pitch="53" RiffPosition="0.25" Velocity="0" />
      <note Length="0.03125" Pitch="65" RiffPosition="0.28125" Velocity="0" />
      <note Length="0.015625" Pitch="53" RiffPosition="0.3125" Velocity="0" />
      <note Length="0.046875" Pitch="53" RiffPosition="0.328125" Velocity="0" />
      <note Length="0.0625" Pitch="41" RiffPosition="0.375" Velocity="0" />
      <note Length="0.03125" Pitch="41" RiffPosition="0.4375" Velocity="0" />
      <note Length="0.015625" Pitch="31" RiffPosition="0.46875" Velocity="0" />
      <note Length="0.015625" Pitch="31" RiffPosition="0.484375" Velocity="0" />
      <note Length="0.03125" Pitch="53" RiffPosition="0.5" Velocity="0" />
      <note Length="0.03125" Pitch="65" RiffPosition="0.53125" Velocity="0" />
      <note Length="0.015625" Pitch="53" RiffPosition="0.5625" Velocity="0" />
      <note Length="0.046875" Pitch="53" RiffPosition="0.578125" Velocity="0" />
      <note Length="0.0625" Pitch="53" RiffPosition="0.625" Velocity="0" />
      <note Length="0.03125" Pitch="41" RiffPosition="0.6875" Velocity="0" />
      <note Length="0.015625" Pitch="31" RiffPosition="0.71875" Velocity="0" />
      <note Length="0.015625" Pitch="32" RiffPosition="0.734375" Velocity="0" />
      <note Length="0.03125" Pitch="41" RiffPosition="0.75" Velocity="0" />
      <note Length="0.03125" Pitch="65" RiffPosition="0.78125" Velocity="0" />
      <note Length="0.015625" Pitch="53" RiffPosition="0.8125" Velocity="0" />
      <note Length="0.046875" Pitch="41" RiffPosition="0.828125" Velocity="0" />
      <note Length="0.0625" Pitch="53" RiffPosition="0.875" Velocity="0" />
      <note Length="0.03125" Pitch="53" RiffPosition="0.9375" Velocity="0" />
      <note Length="0.015625" Pitch="32" RiffPosition="0.96875" Velocity="0" />
      <note Length="0.015625" Pitch="31" RiffPosition="0.984375" Velocity="0" />
      <note Length="0.03125" Pitch="45" RiffPosition="1" Velocity="0" />
      <note Length="0.03125" Pitch="69" RiffPosition="1.03125" Velocity="0" />
      <note Length="0.015625" Pitch="45" RiffPosition="1.0625" Velocity="0" />
      <note Length="0.046875" Pitch="45" RiffPosition="1.078125" Velocity="0" />
      <note Length="0.0625" Pitch="57" RiffPosition="1.125" Velocity="0" />
      <note Length="0.03125" Pitch="57" RiffPosition="1.1875" Velocity="0" />
      <note Length="0.015625" Pitch="35" RiffPosition="1.21875" Velocity="0" />
      <note Length="0.015625" Pitch="35" RiffPosition="1.234375" Velocity="0" />
      <note Length="0.03125" Pitch="45" RiffPosition="1.25" Velocity="0" />
      <note Length="0.03125" Pitch="69" RiffPosition="1.28125" Velocity="0" />
      <note Length="0.015625" Pitch="45" RiffPosition="1.3125" Velocity="0" />
      <note Length="0.046875" Pitch="45" RiffPosition="1.328125" Velocity="0" />
      <note Length="0.0625" Pitch="57" RiffPosition="1.375" Velocity="0" />
      <note Length="0.03125" Pitch="57" RiffPosition="1.4375" Velocity="0" />
      <note Length="0.015625" Pitch="35" RiffPosition="1.46875" Velocity="0" />
      <note Length="0.015625" Pitch="35" RiffPosition="1.484375" Velocity="0" />
      <note Length="0.03125" Pitch="57" RiffPosition="1.5" Velocity="0" />
      <note Length="0.03125" Pitch="69" RiffPosition="1.53125" Velocity="0" />
      <note Length="0.015625" Pitch="45" RiffPosition="1.5625" Velocity="0" />
      <note Length="0.046875" Pitch="57" RiffPosition="1.578125" Velocity="0" />
      <note Length="0.0625" Pitch="45" RiffPosition="1.625" Velocity="0" />
      <note Length="0.03125" Pitch="57" RiffPosition="1.6875" Velocity="0" />
      <note Length="0.015625" Pitch="35" RiffPosition="1.71875" Velocity="0" />
      <note Length="0.015625" Pitch="35" RiffPosition="1.734375" Velocity="0" />
      <note Length="0.03125" Pitch="57" RiffPosition="1.75" Velocity="0" />
      <note Length="0.03125" Pitch="69" RiffPosition="1.78125" Velocity="0" />
      <note Length="0.015625" Pitch="45" RiffPosition="1.8125" Velocity="0" />
      <note Length="0.046875" Pitch="57" RiffPosition="1.828125" Velocity="0" />
      <note Length="0.0625" Pitch="45" RiffPosition="1.875" Velocity="0" />
      <note Length="0.03125" Pitch="45" RiffPosition="1.9375" Velocity="0" />
      <note Length="0.015625" Pitch="35" RiffPosition="1.96875" Velocity="0" />
      <note Length="0.015625" Pitch="35" RiffPosition="1.984375" Velocity="0" />
      <note Length="0.03125" Pitch="54" RiffPosition="2" Velocity="0" />
      <note Length="0.03125" Pitch="66" RiffPosition="2.03125" Velocity="0" />
      <note Length="0.015625" Pitch="54" RiffPosition="2.0625" Velocity="0" />
      <note Length="0.046875" Pitch="54" RiffPosition="2.078125" Velocity="0" />
      <note Length="0.0625" Pitch="42" RiffPosition="2.125" Velocity="0" />
      <note Length="0.03125" Pitch="42" RiffPosition="2.1875" Velocity="0" />
      <note Length="0.015625" Pitch="32" RiffPosition="2.21875" Velocity="0" />
      <note Length="0.015625" Pitch="32" RiffPosition="2.234375" Velocity="0" />
      <note Length="0.03125" Pitch="54" RiffPosition="2.25" Velocity="0" />
      <note Length="0.03125" Pitch="66" RiffPosition="2.28125" Velocity="0" />
      <note Length="0.015625" Pitch="54" RiffPosition="2.3125" Velocity="0" />
      <note Length="0.046875" Pitch="54" RiffPosition="2.328125" Velocity="0" />
      <note Length="0.0625" Pitch="54" RiffPosition="2.375" Velocity="0" />
      <note Length="0.03125" Pitch="42" RiffPosition="2.4375" Velocity="0" />
      <note Length="0.015625" Pitch="32" RiffPosition="2.46875" Velocity="0" />
      <note Length="0.015625" Pitch="32" RiffPosition="2.484375" Velocity="0" />
      <note Length="0.03125" Pitch="42" RiffPosition="2.5" Velocity="0" />
      <note Length="0.03125" Pitch="66" RiffPosition="2.53125" Velocity="0" />
      <note Length="0.015625" Pitch="54" RiffPosition="2.5625" Velocity="0" />
      <note Length="0.046875" Pitch="42" RiffPosition="2.578125" Velocity="0" />
      <note Length="0.0625" Pitch="54" RiffPosition="2.625" Velocity="0" />
      <note Length="0.03125" Pitch="54" RiffPosition="2.6875" Velocity="0" />
      <note Length="0.015625" Pitch="32" RiffPosition="2.71875" Velocity="0" />
      <note Length="0.015625" Pitch="32" RiffPosition="2.734375" Velocity="0" />
      <note Length="0.03125" Pitch="42" RiffPosition="2.75" Velocity="0" />
      <note Length="0.03125" Pitch="66" RiffPosition="2.78125" Velocity="0" />
      <note Length="0.015625" Pitch="42" RiffPosition="2.8125" Velocity="0" />
      <note Length="0.046875" Pitch="42" RiffPosition="2.828125" Velocity="0" />
      <note Length="0.0625" Pitch="54" RiffPosition="2.875" Velocity="0" />
      <note Length="0.03125" Pitch="54" RiffPosition="2.9375" Velocity="0" />
      <note Length="0.015625" Pitch="32" RiffPosition="2.96875" Velocity="0" />
      <note Length="0.015625" Pitch="32" RiffPosition="2.984375" Velocity="0" />
      <note Length="0.03125" Pitch="35" RiffPosition="3" Velocity="0" />
      <note Length="0.03125" Pitch="59" RiffPosition="3.03125" Velocity="0" />
      <note Length="0.015625" Pitch="35" RiffPosition="3.0625" Velocity="0" />
      <note Length="0.046875" Pitch="35" RiffPosition="3.078125" Velocity="0" />
      <note Length="0.0625" Pitch="47" RiffPosition="3.125" Velocity="0" />
      <note Length="0.03125" Pitch="47" RiffPosition="3.1875" Velocity="0" />
      <note Length="0.015625" Pitch="25" RiffPosition="3.21875" Velocity="0" />
      <note Length="0.015625" Pitch="25" RiffPosition="3.234375" Velocity="0" />
      <note Length="0.03125" Pitch="47" RiffPosition="3.25" Velocity="0" />
      <note Length="0.03125" Pitch="59" RiffPosition="3.28125" Velocity="0" />
      <note Length="0.015625" Pitch="35" RiffPosition="3.3125" Velocity="0" />
      <note Length="0.046875" Pitch="47" RiffPosition="3.328125" Velocity="0" />
      <note Length="0.0625" Pitch="35" RiffPosition="3.375" Velocity="0" />
      <note Length="0.03125" Pitch="47" RiffPosition="3.4375" Velocity="0" />
      <note Length="0.015625" Pitch="25" RiffPosition="3.46875" Velocity="0" />
      <note Length="0.015625" Pitch="25" RiffPosition="3.484375" Velocity="0" />
      <note Length="0.03125" Pitch="47" RiffPosition="3.5" Velocity="0" />
      <note Length="0.03125" Pitch="59" RiffPosition="3.53125" Velocity="0" />
      <note Length="0.015625" Pitch="35" RiffPosition="3.5625" Velocity="0" />
      <note Length="0.046875" Pitch="47" RiffPosition="3.578125" Velocity="0" />
      <note Length="0.0625" Pitch="35" RiffPosition="3.625" Velocity="0" />
      <note Length="0.03125" Pitch="35" RiffPosition="3.6875" Velocity="0" />
      <note Length="0.015625" Pitch="25" RiffPosition="3.71875" Velocity="0" />
      <note Length="0.015625" Pitch="25" RiffPosition="3.734375" Velocity="0" />
      <note Length="0.03125" Pitch="47" RiffPosition="3.75" Velocity="0" />
      <note Length="0.03125" Pitch="59" RiffPosition="3.78125" Velocity="0" />
      <note Length="0.015625" Pitch="47" RiffPosition="3.8125" Velocity="0" />
      <note Length="0.046875" Pitch="47" RiffPosition="3.828125" Velocity="0" />
      <note Length="0.0625" Pitch="35" RiffPosition="3.875" Velocity="0" />
      <note Length="0.03125" Pitch="35" RiffPosition="3.9375" Velocity="0" />
      <note Length="0.015625" Pitch="25" RiffPosition="3.96875" Velocity="0" />
      <note Length="0.015625" Pitch="25" RiffPosition="3.984375" Velocity="0" />
      <note Length="0.03125" Pitch="54" RiffPosition="4" Velocity="0" />
      <note Length="0.03125" Pitch="66" RiffPosition="4.03125" Velocity="0" />
      <note Length="0.015625" Pitch="54" RiffPosition="4.0625" Velocity="0" />
      <note Length="0.046875" Pitch="54" RiffPosition="4.078125" Velocity="0" />
      <note Length="0.0625" Pitch="42" RiffPosition="4.125" Velocity="0" />
      <note Length="0.03125" Pitch="42" RiffPosition="4.1875" Velocity="0" />
      <note Length="0.015625" Pitch="32" RiffPosition="4.21875" Velocity="0" />
      <note Length="0.015625" Pitch="33" RiffPosition="4.234375" Velocity="0" />
      <note Length="0.03125" Pitch="42" RiffPosition="4.25" Velocity="0" />
      <note Length="0.03125" Pitch="66" RiffPosition="4.28125" Velocity="0" />
      <note Length="0.015625" Pitch="54" RiffPosition="4.3125" Velocity="0" />
      <note Length="0.046875" Pitch="42" RiffPosition="4.328125" Velocity="0" />
      <note Length="0.0625" Pitch="54" RiffPosition="4.375" Velocity="0" />
      <note Length="0.03125" Pitch="42" RiffPosition="4.4375" Velocity="0" />
      <note Length="0.015625" Pitch="32" RiffPosition="4.46875" Velocity="0" />
      <note Length="0.015625" Pitch="32" RiffPosition="4.484375" Velocity="0" />
      <note Length="0.03125" Pitch="42" RiffPosition="4.5" Velocity="0" />
      <note Length="0.03125" Pitch="66" RiffPosition="4.53125" Velocity="0" />
      <note Length="0.015625" Pitch="42" RiffPosition="4.5625" Velocity="0" />
      <note Length="0.046875" Pitch="42" RiffPosition="4.578125" Velocity="0" />
      <note Length="0.0625" Pitch="54" RiffPosition="4.625" Velocity="0" />
      <note Length="0.03125" Pitch="54" RiffPosition="4.6875" Velocity="0" />
      <note Length="0.015625" Pitch="32" RiffPosition="4.71875" Velocity="0" />
      <note Length="0.015625" Pitch="32" RiffPosition="4.734375" Velocity="0" />
      <note Length="0.03125" Pitch="42" RiffPosition="4.75" Velocity="0" />
      <note Length="0.03125" Pitch="66" RiffPosition="4.78125" Velocity="0" />
      <note Length="0.015625" Pitch="42" RiffPosition="4.8125" Velocity="0" />
      <note Length="0.046875" Pitch="42" RiffPosition="4.828125" Velocity="0" />
      <note Length="0.0625" Pitch="54" RiffPosition="4.875" Velocity="0" />
      <note Length="0.03125" Pitch="54" RiffPosition="4.9375" Velocity="0" />
      <note Length="0.015625" Pitch="32" RiffPosition="4.96875" Velocity="0" />
      <note Length="0.015625" Pitch="32" RiffPosition="4.984375" Velocity="0" />
      <note Length="0.03125" Pitch="47" RiffPosition="5" Velocity="0" />
      <note Length="0.03125" Pitch="59" RiffPosition="5.03125" Velocity="0" />
      <note Length="0.015625" Pitch="35" RiffPosition="5.0625" Velocity="0" />
      <note Length="0.046875" Pitch="47" RiffPosition="5.078125" Velocity="0" />
      <note Length="0.0625" Pitch="35" RiffPosition="5.125" Velocity="0" />
      <note Length="0.03125" Pitch="47" RiffPosition="5.1875" Velocity="0" />
      <note Length="0.015625" Pitch="25" RiffPosition="5.21875" Velocity="0" />
      <note Length="0.015625" Pitch="25" RiffPosition="5.234375" Velocity="0" />
      <note Length="0.03125" Pitch="47" RiffPosition="5.25" Velocity="0" />
      <note Length="0.03125" Pitch="59" RiffPosition="5.28125" Velocity="0" />
      <note Length="0.015625" Pitch="47" RiffPosition="5.3125" Velocity="0" />
      <note Length="0.046875" Pitch="47" RiffPosition="5.328125" Velocity="0" />
      <note Length="0.0625" Pitch="35" RiffPosition="5.375" Velocity="0" />
      <note Length="0.03125" Pitch="35" RiffPosition="5.4375" Velocity="0" />
      <note Length="0.015625" Pitch="25" RiffPosition="5.46875" Velocity="0" />
      <note Length="0.015625" Pitch="25" RiffPosition="5.484375" Velocity="0" />
      <note Length="0.03125" Pitch="47" RiffPosition="5.5" Velocity="0" />
      <note Length="0.03125" Pitch="59" RiffPosition="5.53125" Velocity="0" />
      <note Length="0.015625" Pitch="47" RiffPosition="5.5625" Velocity="0" />
      <note Length="0.046875" Pitch="47" RiffPosition="5.578125" Velocity="0" />
      <note Length="0.0625" Pitch="35" RiffPosition="5.625" Velocity="0" />
      <note Length="0.03125" Pitch="35" RiffPosition="5.6875" Velocity="0" />
      <note Length="0.015625" Pitch="25" RiffPosition="5.71875" Velocity="0" />
      <note Length="0.015625" Pitch="25" RiffPosition="5.734375" Velocity="0" />
      <note Length="0.03125" Pitch="47" RiffPosition="5.75" Velocity="0" />
      <note Length="0.03125" Pitch="59" RiffPosition="5.78125" Velocity="0" />
      <note Length="0.015625" Pitch="47" RiffPosition="5.8125" Velocity="0" />
      <note Length="0.046875" Pitch="47" RiffPosition="5.828125" Velocity="0" />
      <note Length="0.0625" Pitch="47" RiffPosition="5.875" Velocity="0" />
      <note Length="0.03125" Pitch="35" RiffPosition="5.9375" Velocity="0" />
      <note Length="0.015625" Pitch="25" RiffPosition="5.96875" Velocity="0" />
      <note Length="0.015625" Pitch="26" RiffPosition="5.984375" Velocity="0" />
      <note Length="0.03125" Pitch="41" RiffPosition="6" Velocity="0" />
      <note Length="0.03125" Pitch="65" RiffPosition="6.03125" Velocity="0" />
      <note Length="0.015625" Pitch="53" RiffPosition="6.0625" Velocity="0" />
      <note Length="0.046875" Pitch="41" RiffPosition="6.078125" Velocity="0" />
      <note Length="0.0625" Pitch="53" RiffPosition="6.125" Velocity="0" />
      <note Length="0.03125" Pitch="41" RiffPosition="6.1875" Velocity="0" />
      <note Length="0.015625" Pitch="31" RiffPosition="6.21875" Velocity="0" />
      <note Length="0.015625" Pitch="31" RiffPosition="6.234375" Velocity="0" />
      <note Length="0.03125" Pitch="41" RiffPosition="6.25" Velocity="0" />
      <note Length="0.03125" Pitch="65" RiffPosition="6.28125" Velocity="0" />
      <note Length="0.015625" Pitch="41" RiffPosition="6.3125" Velocity="0" />
      <note Length="0.046875" Pitch="41" RiffPosition="6.328125" Velocity="0" />
      <note Length="0.0625" Pitch="53" RiffPosition="6.375" Velocity="0" />
      <note Length="0.03125" Pitch="53" RiffPosition="6.4375" Velocity="0" />
      <note Length="0.015625" Pitch="32" RiffPosition="6.46875" Velocity="0" />
      <note Length="0.015625" Pitch="31" RiffPosition="6.484375" Velocity="0" />
      <note Length="0.03125" Pitch="41" RiffPosition="6.5" Velocity="0" />
      <note Length="0.03125" Pitch="65" RiffPosition="6.53125" Velocity="0" />
      <note Length="0.015625" Pitch="41" RiffPosition="6.5625" Velocity="0" />
      <note Length="0.046875" Pitch="41" RiffPosition="6.578125" Velocity="0" />
      <note Length="0.0625" Pitch="53" RiffPosition="6.625" Velocity="0" />
      <note Length="0.03125" Pitch="53" RiffPosition="6.6875" Velocity="0" />
      <note Length="0.015625" Pitch="31" RiffPosition="6.71875" Velocity="0" />
      <note Length="0.015625" Pitch="31" RiffPosition="6.734375" Velocity="0" />
      <note Length="0.03125" Pitch="53" RiffPosition="6.75" Velocity="0" />
      <note Length="0.03125" Pitch="65" RiffPosition="6.78125" Velocity="0" />
      <note Length="0.015625" Pitch="41" RiffPosition="6.8125" Velocity="0" />
      <note Length="0.046875" Pitch="41" RiffPosition="6.828125" Velocity="0" />
      <note Length="0.0625" Pitch="41" RiffPosition="6.875" Velocity="0" />
      <note Length="0.03125" Pitch="53" RiffPosition="6.9375" Velocity="0" />
      <note Length="0.015625" Pitch="31" RiffPosition="6.96875" Velocity="0" />
      <note Length="0.015625" Pitch="31" RiffPosition="6.984375" Velocity="0" />
      <note Length="0.03125" Pitch="46" RiffPosition="7" Velocity="0" />
      <note Length="0.03125" Pitch="58" RiffPosition="7.03125" Velocity="0" />
      <note Length="0.015625" Pitch="34" RiffPosition="7.0625" Velocity="0" />
      <note Length="0.046875" Pitch="46" RiffPosition="7.078125" Velocity="0" />
      <note Length="0.0625" Pitch="34" RiffPosition="7.125" Velocity="0" />
      <note Length="0.03125" Pitch="34" RiffPosition="7.1875" Velocity="0" />
      <note Length="0.015625" Pitch="24" RiffPosition="7.21875" Velocity="0" />
      <note Length="0.015625" Pitch="24" RiffPosition="7.234375" Velocity="0" />
      <note Length="0.03125" Pitch="46" RiffPosition="7.25" Velocity="0" />
      <note Length="0.03125" Pitch="58" RiffPosition="7.28125" Velocity="0" />
      <note Length="0.015625" Pitch="46" RiffPosition="7.3125" Velocity="0" />
      <note Length="0.046875" Pitch="46" RiffPosition="7.328125" Velocity="0" />
      <note Length="0.0625" Pitch="34" RiffPosition="7.375" Velocity="0" />
      <note Length="0.03125" Pitch="34" RiffPosition="7.4375" Velocity="0" />
      <note Length="0.015625" Pitch="24" RiffPosition="7.46875" Velocity="0" />
      <note Length="0.015625" Pitch="24" RiffPosition="7.484375" Velocity="0" />
      <note Length="0.03125" Pitch="46" RiffPosition="7.5" Velocity="0" />
      <note Length="0.03125" Pitch="58" RiffPosition="7.53125" Velocity="0" />
      <note Length="0.015625" Pitch="46" RiffPosition="7.5625" Velocity="0" />
      <note Length="0.046875" Pitch="46" RiffPosition="7.578125" Velocity="0" />
      <note Length="0.0625" Pitch="46" RiffPosition="7.625" Velocity="0" />
      <note Length="0.03125" Pitch="34" RiffPosition="7.6875" Velocity="0" />
      <note Length="0.015625" Pitch="24" RiffPosition="7.71875" Velocity="0" />
      <note Length="0.015625" Pitch="24" RiffPosition="7.734375" Velocity="0" />
      <note Length="0.03125" Pitch="34" RiffPosition="7.75" Velocity="0" />
      <note Length="0.03125" Pitch="58" RiffPosition="7.78125" Velocity="0" />
      <note Length="0.015625" Pitch="46" RiffPosition="7.8125" Velocity="0" />
      <note Length="0.046875" Pitch="34" RiffPosition="7.828125" Velocity="0" />
      <note Length="0.0625" Pitch="46" RiffPosition="7.875" Velocity="0" />
      <note Length="0.03125" Pitch="46" RiffPosition="7.9375" Velocity="0" />
      <note Length="0.015625" Pitch="24" RiffPosition="7.96875" Velocity="0" />
      <note Length="0.015625" Pitch="24" RiffPosition="7.984375" Velocity="0" />
      <note Length="0.03125" Pitch="41" RiffPosition="8" Velocity="31" />
      <note Length="0.03125" Pitch="65" RiffPosition="8.03125" Velocity="34" />
      <note Length="0.015625" Pitch="41" RiffPosition="8.0625" Velocity="35" />
      <note Length="0.046875" Pitch="41" RiffPosition="8.078125" Velocity="66" />
      <note Length="0.0625" Pitch="53" RiffPosition="8.125" Velocity="94" />
      <note Length="0.03125" Pitch="53" RiffPosition="8.1875" Velocity="35" />
      <note Length="0.015625" Pitch="32" RiffPosition="8.21875" Velocity="63" />
      <note Length="0.015625" Pitch="31" RiffPosition="8.234375" Velocity="43" />
      <note Length="0.03125" Pitch="41" RiffPosition="8.25" Velocity="22" />
      <note Length="0.03125" Pitch="65" RiffPosition="8.28125" Velocity="47" />
      <note Length="0.015625" Pitch="41" RiffPosition="8.3125" Velocity="38" />
      <note Length="0.046875" Pitch="41" RiffPosition="8.328125" Velocity="22" />
      <note Length="0.0625" Pitch="53" RiffPosition="8.375" Velocity="51" />
      <note Length="0.03125" Pitch="53" RiffPosition="8.4375" Velocity="21" />
      <note Length="0.015625" Pitch="31" RiffPosition="8.46875" Velocity="22" />
      <note Length="0.015625" Pitch="31" RiffPosition="8.484375" Velocity="25" />
      <note Length="0.03125" Pitch="41" RiffPosition="8.5" Velocity="59" />
      <note Length="0.03125" Pitch="65" RiffPosition="8.53125" Velocity="43" />
      <note Length="0.015625" Pitch="41" RiffPosition="8.5625" Velocity="34" />
      <note Length="0.046875" Pitch="53" RiffPosition="8.578125" Velocity="68" />
      <note Length="0.0625" Pitch="41" RiffPosition="8.625" Velocity="41" />
      <note Length="0.03125" Pitch="53" RiffPosition="8.6875" Velocity="72" />
      <note Length="0.015625" Pitch="31" RiffPosition="8.71875" Velocity="81" />
      <note Length="0.015625" Pitch="31" RiffPosition="8.734375" Velocity="101" />
      <note Length="0.03125" Pitch="53" RiffPosition="8.75" Velocity="56" />
      <note Length="0.03125" Pitch="65" RiffPosition="8.78125" Velocity="31" />
      <note Length="0.015625" Pitch="41" RiffPosition="8.8125" Velocity="39" />
      <note Length="0.046875" Pitch="53" RiffPosition="8.828125" Velocity="46" />
      <note Length="0.0625" Pitch="41" RiffPosition="8.875" Velocity="83" />
      <note Length="0.03125" Pitch="41" RiffPosition="8.9375" Velocity="114" />
      <note Length="0.015625" Pitch="31" RiffPosition="8.96875" Velocity="52" />
      <note Length="0.015625" Pitch="31" RiffPosition="8.984375" Velocity="53" />
      <note Length="0.03125" Pitch="46" RiffPosition="9" Velocity="22" />
      <note Length="0.03125" Pitch="58" RiffPosition="9.03125" Velocity="26" />
      <note Length="0.015625" Pitch="46" RiffPosition="9.0625" Velocity="44" />
      <note Length="0.046875" Pitch="46" RiffPosition="9.078125" Velocity="75" />
      <note Length="0.0625" Pitch="34" RiffPosition="9.125" Velocity="103" />
      <note Length="0.03125" Pitch="34" RiffPosition="9.1875" Velocity="44" />
      <note Length="0.015625" Pitch="24" RiffPosition="9.21875" Velocity="54" />
      <note Length="0.015625" Pitch="24" RiffPosition="9.234375" Velocity="34" />
      <note Length="0.03125" Pitch="46" RiffPosition="9.25" Velocity="27" />
      <note Length="0.03125" Pitch="58" RiffPosition="9.28125" Velocity="38" />
      <note Length="0.015625" Pitch="46" RiffPosition="9.3125" Velocity="29" />
      <note Length="0.046875" Pitch="46" RiffPosition="9.328125" Velocity="31" />
      <note Length="0.0625" Pitch="46" RiffPosition="9.375" Velocity="45" />
      <note Length="0.03125" Pitch="34" RiffPosition="9.4375" Velocity="30" />
      <note Length="0.015625" Pitch="24" RiffPosition="9.46875" Velocity="26" />
      <note Length="0.015625" Pitch="24" RiffPosition="9.484375" Velocity="24" />
      <note Length="0.03125" Pitch="34" RiffPosition="9.5" Velocity="50" />
      <note Length="0.03125" Pitch="58" RiffPosition="9.53125" Velocity="52" />
      <note Length="0.015625" Pitch="46" RiffPosition="9.5625" Velocity="25" />
      <note Length="0.046875" Pitch="34" RiffPosition="9.578125" Velocity="60" />
      <note Length="0.0625" Pitch="46" RiffPosition="9.625" Velocity="32" />
      <note Length="0.03125" Pitch="34" RiffPosition="9.6875" Velocity="81" />
      <note Length="0.015625" Pitch="24" RiffPosition="9.71875" Velocity="89" />
      <note Length="0.015625" Pitch="24" RiffPosition="9.734375" Velocity="44" />
      <note Length="0.03125" Pitch="34" RiffPosition="9.75" Velocity="65" />
      <note Length="0.03125" Pitch="58" RiffPosition="9.78125" Velocity="40" />
      <note Length="0.015625" Pitch="34" RiffPosition="9.8125" Velocity="58" />
      <note Length="0.046875" Pitch="34" RiffPosition="9.828125" Velocity="37" />
      <note Length="0.0625" Pitch="46" RiffPosition="9.875" Velocity="75" />
      <note Length="0.03125" Pitch="46" RiffPosition="9.9375" Velocity="105" />
      <note Length="0.015625" Pitch="25" RiffPosition="9.96875" Velocity="43" />
      <note Length="0.015625" Pitch="24" RiffPosition="9.984375" Velocity="44" />
      <note Length="0.03125" Pitch="43" RiffPosition="10" Velocity="27" />
      <note Length="0.03125" Pitch="67" RiffPosition="10.03125" Velocity="23" />
      <note Length="0.015625" Pitch="43" RiffPosition="10.0625" Velocity="53" />
      <note Length="0.046875" Pitch="43" RiffPosition="10.078125" Velocity="84" />
      <note Length="0.0625" Pitch="55" RiffPosition="10.125" Velocity="111" />
      <note Length="0.03125" Pitch="55" RiffPosition="10.1875" Velocity="52" />
      <note Length="0.015625" Pitch="33" RiffPosition="10.21875" Velocity="46" />
      <note Length="0.015625" Pitch="33" RiffPosition="10.234375" Velocity="25" />
      <note Length="0.03125" Pitch="55" RiffPosition="10.25" Velocity="70" />
      <note Length="0.03125" Pitch="67" RiffPosition="10.28125" Velocity="29" />
      <note Length="0.015625" Pitch="43" RiffPosition="10.3125" Velocity="21" />
      <note Length="0.046875" Pitch="55" RiffPosition="10.328125" Velocity="66" />
      <note Length="0.0625" Pitch="43" RiffPosition="10.375" Velocity="37" />
      <note Length="0.03125" Pitch="55" RiffPosition="10.4375" Velocity="39" />
      <note Length="0.015625" Pitch="33" RiffPosition="10.46875" Velocity="35" />
      <note Length="0.015625" Pitch="33" RiffPosition="10.484375" Velocity="33" />
      <note Length="0.03125" Pitch="55" RiffPosition="10.5" Velocity="42" />
      <note Length="0.03125" Pitch="67" RiffPosition="10.53125" Velocity="45" />
      <note Length="0.015625" Pitch="43" RiffPosition="10.5625" Velocity="24" />
      <note Length="0.046875" Pitch="55" RiffPosition="10.578125" Velocity="51" />
      <note Length="0.0625" Pitch="43" RiffPosition="10.625" Velocity="24" />
      <note Length="0.03125" Pitch="43" RiffPosition="10.6875" Velocity="24" />
      <note Length="0.015625" Pitch="33" RiffPosition="10.71875" Velocity="98" />
      <note Length="0.015625" Pitch="33" RiffPosition="10.734375" Velocity="53" />
      <note Length="0.03125" Pitch="55" RiffPosition="10.75" Velocity="73" />
      <note Length="0.03125" Pitch="67" RiffPosition="10.78125" Velocity="49" />
      <note Length="0.015625" Pitch="55" RiffPosition="10.8125" Velocity="49" />
      <note Length="0.046875" Pitch="55" RiffPosition="10.828125" Velocity="29" />
      <note Length="0.0625" Pitch="43" RiffPosition="10.875" Velocity="66" />
      <note Length="0.03125" Pitch="43" RiffPosition="10.9375" Velocity="96" />
      <note Length="0.015625" Pitch="33" RiffPosition="10.96875" Velocity="100" />
      <note Length="0.015625" Pitch="33" RiffPosition="10.984375" Velocity="36" />
      <note Length="0.03125" Pitch="46" RiffPosition="11" Velocity="35" />
      <note Length="0.03125" Pitch="58" RiffPosition="11.03125" Velocity="32" />
      <note Length="0.015625" Pitch="46" RiffPosition="11.0625" Velocity="62" />
      <note Length="0.046875" Pitch="46" RiffPosition="11.078125" Velocity="92" />
      <note Length="0.0625" Pitch="34" RiffPosition="11.125" Velocity="54" />
      <note Length="0.03125" Pitch="34" RiffPosition="11.1875" Velocity="61" />
      <note Length="0.015625" Pitch="24" RiffPosition="11.21875" Velocity="37" />
      <note Length="0.015625" Pitch="24" RiffPosition="11.234375" Velocity="24" />
      <note Length="0.03125" Pitch="34" RiffPosition="11.25" Velocity="61" />
      <note Length="0.03125" Pitch="58" RiffPosition="11.28125" Velocity="21" />
      <note Length="0.015625" Pitch="46" RiffPosition="11.3125" Velocity="28" />
      <note Length="0.046875" Pitch="34" RiffPosition="11.328125" Velocity="57" />
      <note Length="0.0625" Pitch="46" RiffPosition="11.375" Velocity="28" />
      <note Length="0.03125" Pitch="34" RiffPosition="11.4375" Velocity="47" />
      <note Length="0.015625" Pitch="24" RiffPosition="11.46875" Velocity="44" />
      <note Length="0.015625" Pitch="24" RiffPosition="11.484375" Velocity="64" />
      <note Length="0.03125" Pitch="34" RiffPosition="11.5" Velocity="33" />
      <note Length="0.03125" Pitch="58" RiffPosition="11.53125" Velocity="37" />
      <note Length="0.015625" Pitch="34" RiffPosition="11.5625" Velocity="73" />
      <note Length="0.046875" Pitch="34" RiffPosition="11.578125" Velocity="42" />
      <note Length="0.0625" Pitch="46" RiffPosition="11.625" Velocity="25" />
      <note Length="0.03125" Pitch="46" RiffPosition="11.6875" Velocity="32" />
      <note Length="0.015625" Pitch="25" RiffPosition="11.71875" Velocity="107" />
      <note Length="0.015625" Pitch="24" RiffPosition="11.734375" Velocity="62" />
      <note Length="0.03125" Pitch="34" RiffPosition="11.75" Velocity="82" />
      <note Length="0.03125" Pitch="58" RiffPosition="11.78125" Velocity="57" />
      <note Length="0.015625" Pitch="34" RiffPosition="11.8125" Velocity="40" />
      <note Length="0.046875" Pitch="34" RiffPosition="11.828125" Velocity="20" />
      <note Length="0.0625" Pitch="46" RiffPosition="11.875" Velocity="57" />
      <note Length="0.03125" Pitch="46" RiffPosition="11.9375" Velocity="88" />
      <note Length="0.015625" Pitch="24" RiffPosition="11.96875" Velocity="91" />
      <note Length="0.015625" Pitch="24" RiffPosition="11.984375" Velocity="27" />
      <note Length="0.03125" Pitch="55" RiffPosition="12" Velocity="0" />
      <note Length="0.03125" Pitch="67" RiffPosition="12.03125" Velocity="0" />
      <note Length="0.015625" Pitch="43" RiffPosition="12.0625" Velocity="0" />
      <note Length="0.046875" Pitch="43" RiffPosition="12.078125" Velocity="0" />
      <note Length="0.0625" Pitch="43" RiffPosition="12.125" Velocity="0" />
      <note Length="0.03125" Pitch="55" RiffPosition="12.1875" Velocity="0" />
      <note Length="0.015625" Pitch="33" RiffPosition="12.21875" Velocity="0" />
      <note Length="0.015625" Pitch="33" RiffPosition="12.234375" Velocity="0" />
      <note Length="0.03125" Pitch="55" RiffPosition="12.25" Velocity="0" />
      <note Length="0.03125" Pitch="67" RiffPosition="12.28125" Velocity="0" />
      <note Length="0.015625" Pitch="43" RiffPosition="12.3125" Velocity="0" />
      <note Length="0.046875" Pitch="55" RiffPosition="12.328125" Velocity="0" />
      <note Length="0.0625" Pitch="43" RiffPosition="12.375" Velocity="0" />
      <note Length="0.03125" Pitch="43" RiffPosition="12.4375" Velocity="0" />
      <note Length="0.015625" Pitch="33" RiffPosition="12.46875" Velocity="0" />
      <note Length="0.015625" Pitch="33" RiffPosition="12.484375" Velocity="0" />
      <note Length="0.03125" Pitch="55" RiffPosition="12.5" Velocity="0" />
      <note Length="0.03125" Pitch="67" RiffPosition="12.53125" Velocity="0" />
      <note Length="0.015625" Pitch="55" RiffPosition="12.5625" Velocity="0" />
      <note Length="0.046875" Pitch="55" RiffPosition="12.578125" Velocity="0" />
      <note Length="0.0625" Pitch="43" RiffPosition="12.625" Velocity="0" />
      <note Length="0.03125" Pitch="43" RiffPosition="12.6875" Velocity="0" />
      <note Length="0.015625" Pitch="33" RiffPosition="12.71875" Velocity="0" />
      <note Length="0.015625" Pitch="33" RiffPosition="12.734375" Velocity="0" />
      <note Length="0.03125" Pitch="55" RiffPosition="12.75" Velocity="0" />
      <note Length="0.03125" Pitch="67" RiffPosition="12.78125" Velocity="0" />
      <note Length="0.015625" Pitch="55" RiffPosition="12.8125" Velocity="0" />
      <note Length="0.046875" Pitch="55" RiffPosition="12.828125" Velocity="0" />
      <note Length="0.0625" Pitch="43" RiffPosition="12.875" Velocity="0" />
      <note Length="0.03125" Pitch="43" RiffPosition="12.9375" Velocity="0" />
      <note Length="0.015625" Pitch="33" RiffPosition="12.96875" Velocity="0" />
      <note Length="0.015625" Pitch="34" RiffPosition="12.984375" Velocity="0" />
      <note Length="0.03125" Pitch="45" RiffPosition="13" Velocity="0" />
      <note Length="0.03125" Pitch="69" RiffPosition="13.03125" Velocity="0" />
      <note Length="0.015625" Pitch="57" RiffPosition="13.0625" Velocity="0" />
      <note Length="0.046875" Pitch="45" RiffPosition="13.078125" Velocity="0" />
      <note Length="0.0625" Pitch="57" RiffPosition="13.125" Velocity="0" />
      <note Length="0.03125" Pitch="45" RiffPosition="13.1875" Velocity="0" />
      <note Length="0.015625" Pitch="35" RiffPosition="13.21875" Velocity="0" />
      <note Length="0.015625" Pitch="35" RiffPosition="13.234375" Velocity="0" />
      <note Length="0.03125" Pitch="45" RiffPosition="13.25" Velocity="0" />
      <note Length="0.03125" Pitch="69" RiffPosition="13.28125" Velocity="0" />
      <note Length="0.015625" Pitch="57" RiffPosition="13.3125" Velocity="0" />
      <note Length="0.046875" Pitch="45" RiffPosition="13.328125" Velocity="0" />
      <note Length="0.0625" Pitch="57" RiffPosition="13.375" Velocity="0" />
      <note Length="0.03125" Pitch="57" RiffPosition="13.4375" Velocity="0" />
      <note Length="0.015625" Pitch="36" RiffPosition="13.46875" Velocity="0" />
      <note Length="0.015625" Pitch="35" RiffPosition="13.484375" Velocity="0" />
      <note Length="0.03125" Pitch="45" RiffPosition="13.5" Velocity="0" />
      <note Length="0.03125" Pitch="69" RiffPosition="13.53125" Velocity="0" />
      <note Length="0.015625" Pitch="45" RiffPosition="13.5625" Velocity="0" />
      <note Length="0.046875" Pitch="45" RiffPosition="13.578125" Velocity="0" />
      <note Length="0.0625" Pitch="57" RiffPosition="13.625" Velocity="0" />
      <note Length="0.03125" Pitch="57" RiffPosition="13.6875" Velocity="0" />
      <note Length="0.015625" Pitch="35" RiffPosition="13.71875" Velocity="0" />
      <note Length="0.015625" Pitch="35" RiffPosition="13.734375" Velocity="0" />
      <note Length="0.03125" Pitch="45" RiffPosition="13.75" Velocity="0" />
      <note Length="0.03125" Pitch="69" RiffPosition="13.78125" Velocity="0" />
      <note Length="0.015625" Pitch="45" RiffPosition="13.8125" Velocity="0" />
      <note Length="0.046875" Pitch="45" RiffPosition="13.828125" Velocity="0" />
      <note Length="0.0625" Pitch="45" RiffPosition="13.875" Velocity="0" />
      <note Length="0.03125" Pitch="57" RiffPosition="13.9375" Velocity="0" />
      <note Length="0.015625" Pitch="35" RiffPosition="13.96875" Velocity="0" />
      <note Length="0.015625" Pitch="35" RiffPosition="13.984375" Velocity="0" />
    </riff>
    <riff IsDrum="False" MidiInstrument="0" Tempo="121" Length="14">
      <note Length="0.0625" Pitch="41" RiffPosition="0" Velocity="0" />
      <note Length="0.0625" Pitch="41" RiffPosition="0.0625" Velocity="0" />
      <note Length="0.0234375" Pitch="65" RiffPosition="0.125" Velocity="0" />
      <note Length="0.0078125" Pitch="53" RiffPosition="0.1484375" Velocity="0" />
      <note Length="0.0625" Pitch="56" RiffPosition="0.15625" Velocity="0" />
      <note Length="0.015625" Pitch="43" RiffPosition="0.21875" Velocity="0" />
      <note Length="0.015625" Pitch="43" RiffPosition="0.234375" Velocity="0" />
      <note Length="0.0625" Pitch="31" RiffPosition="0.25" Velocity="0" />
      <note Length="0.0625" Pitch="37" RiffPosition="0.3125" Velocity="0" />
      <note Length="0.0234375" Pitch="70" RiffPosition="0.375" Velocity="0" />
      <note Length="0.0078125" Pitch="70" RiffPosition="0.3984375" Velocity="0" />
      <note Length="0.0625" Pitch="65" RiffPosition="0.40625" Velocity="0" />
      <note Length="0.015625" Pitch="58" RiffPosition="0.46875" Velocity="0" />
      <note Length="0.015625" Pitch="56" RiffPosition="0.484375" Velocity="0" />
      <note Length="0.0625" Pitch="43" RiffPosition="0.5" Velocity="0" />
      <note Length="0.0625" Pitch="29" RiffPosition="0.5625" Velocity="0" />
      <note Length="0.0234375" Pitch="65" RiffPosition="0.625" Velocity="0" />
      <note Length="0.0078125" Pitch="68" RiffPosition="0.6484375" Velocity="0" />
      <note Length="0.0625" Pitch="53" RiffPosition="0.65625" Velocity="0" />
      <note Length="0.015625" Pitch="41" RiffPosition="0.71875" Velocity="0" />
      <note Length="0.015625" Pitch="41" RiffPosition="0.734375" Velocity="0" />
      <note Length="0.0625" Pitch="29" RiffPosition="0.75" Velocity="0" />
      <note Length="0.0625" Pitch="34" RiffPosition="0.8125" Velocity="0" />
      <note Length="0.0234375" Pitch="58" RiffPosition="0.875" Velocity="0" />
      <note Length="0.0078125" Pitch="60" RiffPosition="0.8984375" Velocity="0" />
      <note Length="0.0625" Pitch="65" RiffPosition="0.90625" Velocity="0" />
      <note Length="0.015625" Pitch="60" RiffPosition="0.96875" Velocity="0" />
      <note Length="0.015625" Pitch="53" RiffPosition="0.984375" Velocity="0" />
      <note Length="0.0625" Pitch="45" RiffPosition="1" Velocity="0" />
      <note Length="0.0625" Pitch="45" RiffPosition="1.0625" Velocity="0" />
      <note Length="0.0234375" Pitch="69" RiffPosition="1.125" Velocity="0" />
      <note Length="0.0078125" Pitch="57" RiffPosition="1.1484375" Velocity="0" />
      <note Length="0.0625" Pitch="60" RiffPosition="1.15625" Velocity="0" />
      <note Length="0.015625" Pitch="47" RiffPosition="1.21875" Velocity="0" />
      <note Length="0.015625" Pitch="47" RiffPosition="1.234375" Velocity="0" />
      <note Length="0.0625" Pitch="35" RiffPosition="1.25" Velocity="0" />
      <note Length="0.0625" Pitch="41" RiffPosition="1.3125" Velocity="0" />
      <note Length="0.0234375" Pitch="74" RiffPosition="1.375" Velocity="0" />
      <note Length="0.0078125" Pitch="74" RiffPosition="1.3984375" Velocity="0" />
      <note Length="0.0625" Pitch="69" RiffPosition="1.40625" Velocity="0" />
      <note Length="0.015625" Pitch="62" RiffPosition="1.46875" Velocity="0" />
      <note Length="0.015625" Pitch="60" RiffPosition="1.484375" Velocity="0" />
      <note Length="0.0625" Pitch="47" RiffPosition="1.5" Velocity="0" />
      <note Length="0.0625" Pitch="33" RiffPosition="1.5625" Velocity="0" />
      <note Length="0.0234375" Pitch="69" RiffPosition="1.625" Velocity="0" />
      <note Length="0.0078125" Pitch="72" RiffPosition="1.6484375" Velocity="0" />
      <note Length="0.0625" Pitch="57" RiffPosition="1.65625" Velocity="0" />
      <note Length="0.015625" Pitch="45" RiffPosition="1.71875" Velocity="0" />
      <note Length="0.015625" Pitch="45" RiffPosition="1.734375" Velocity="0" />
      <note Length="0.0625" Pitch="33" RiffPosition="1.75" Velocity="0" />
      <note Length="0.0625" Pitch="38" RiffPosition="1.8125" Velocity="0" />
      <note Length="0.0234375" Pitch="62" RiffPosition="1.875" Velocity="0" />
      <note Length="0.0078125" Pitch="64" RiffPosition="1.8984375" Velocity="0" />
      <note Length="0.0625" Pitch="69" RiffPosition="1.90625" Velocity="0" />
      <note Length="0.015625" Pitch="64" RiffPosition="1.96875" Velocity="0" />
      <note Length="0.015625" Pitch="57" RiffPosition="1.984375" Velocity="0" />
      <note Length="0.0625" Pitch="42" RiffPosition="2" Velocity="0" />
      <note Length="0.0625" Pitch="42" RiffPosition="2.0625" Velocity="0" />
      <note Length="0.0234375" Pitch="66" RiffPosition="2.125" Velocity="0" />
      <note Length="0.0078125" Pitch="54" RiffPosition="2.1484375" Velocity="0" />
      <note Length="0.0625" Pitch="57" RiffPosition="2.15625" Velocity="0" />
      <note Length="0.015625" Pitch="44" RiffPosition="2.21875" Velocity="0" />
      <note Length="0.015625" Pitch="44" RiffPosition="2.234375" Velocity="0" />
      <note Length="0.0625" Pitch="32" RiffPosition="2.25" Velocity="0" />
      <note Length="0.0625" Pitch="38" RiffPosition="2.3125" Velocity="0" />
      <note Length="0.0234375" Pitch="71" RiffPosition="2.375" Velocity="0" />
      <note Length="0.0078125" Pitch="71" RiffPosition="2.3984375" Velocity="0" />
      <note Length="0.0625" Pitch="66" RiffPosition="2.40625" Velocity="0" />
      <note Length="0.015625" Pitch="59" RiffPosition="2.46875" Velocity="0" />
      <note Length="0.015625" Pitch="57" RiffPosition="2.484375" Velocity="0" />
      <note Length="0.0625" Pitch="44" RiffPosition="2.5" Velocity="0" />
      <note Length="0.0625" Pitch="30" RiffPosition="2.5625" Velocity="0" />
      <note Length="0.0234375" Pitch="66" RiffPosition="2.625" Velocity="0" />
      <note Length="0.0078125" Pitch="69" RiffPosition="2.6484375" Velocity="0" />
      <note Length="0.0625" Pitch="54" RiffPosition="2.65625" Velocity="0" />
      <note Length="0.015625" Pitch="42" RiffPosition="2.71875" Velocity="0" />
      <note Length="0.015625" Pitch="42" RiffPosition="2.734375" Velocity="0" />
      <note Length="0.0625" Pitch="30" RiffPosition="2.75" Velocity="0" />
      <note Length="0.0625" Pitch="35" RiffPosition="2.8125" Velocity="0" />
      <note Length="0.0234375" Pitch="59" RiffPosition="2.875" Velocity="0" />
      <note Length="0.0078125" Pitch="61" RiffPosition="2.8984375" Velocity="0" />
      <note Length="0.0625" Pitch="66" RiffPosition="2.90625" Velocity="0" />
      <note Length="0.015625" Pitch="61" RiffPosition="2.96875" Velocity="0" />
      <note Length="0.015625" Pitch="54" RiffPosition="2.984375" Velocity="0" />
      <note Length="0.0625" Pitch="35" RiffPosition="3" Velocity="0" />
      <note Length="0.0625" Pitch="35" RiffPosition="3.0625" Velocity="0" />
      <note Length="0.0234375" Pitch="59" RiffPosition="3.125" Velocity="0" />
      <note Length="0.0078125" Pitch="47" RiffPosition="3.1484375" Velocity="0" />
      <note Length="0.0625" Pitch="50" RiffPosition="3.15625" Velocity="0" />
      <note Length="0.015625" Pitch="37" RiffPosition="3.21875" Velocity="0" />
      <note Length="0.015625" Pitch="37" RiffPosition="3.234375" Velocity="0" />
      <note Length="0.0625" Pitch="25" RiffPosition="3.25" Velocity="0" />
      <note Length="0.0625" Pitch="31" RiffPosition="3.3125" Velocity="0" />
      <note Length="0.0234375" Pitch="64" RiffPosition="3.375" Velocity="0" />
      <note Length="0.0078125" Pitch="64" RiffPosition="3.3984375" Velocity="0" />
      <note Length="0.0625" Pitch="59" RiffPosition="3.40625" Velocity="0" />
      <note Length="0.015625" Pitch="52" RiffPosition="3.46875" Velocity="0" />
      <note Length="0.015625" Pitch="50" RiffPosition="3.484375" Velocity="0" />
      <note Length="0.0625" Pitch="37" RiffPosition="3.5" Velocity="0" />
      <note Length="0.0625" Pitch="23" RiffPosition="3.5625" Velocity="0" />
      <note Length="0.0234375" Pitch="59" RiffPosition="3.625" Velocity="0" />
      <note Length="0.0078125" Pitch="62" RiffPosition="3.6484375" Velocity="0" />
      <note Length="0.0625" Pitch="47" RiffPosition="3.65625" Velocity="0" />
      <note Length="0.015625" Pitch="35" RiffPosition="3.71875" Velocity="0" />
      <note Length="0.015625" Pitch="35" RiffPosition="3.734375" Velocity="0" />
      <note Length="0.0625" Pitch="23" RiffPosition="3.75" Velocity="0" />
      <note Length="0.0625" Pitch="28" RiffPosition="3.8125" Velocity="0" />
      <note Length="0.0234375" Pitch="52" RiffPosition="3.875" Velocity="0" />
      <note Length="0.0078125" Pitch="54" RiffPosition="3.8984375" Velocity="0" />
      <note Length="0.0625" Pitch="59" RiffPosition="3.90625" Velocity="0" />
      <note Length="0.015625" Pitch="54" RiffPosition="3.96875" Velocity="0" />
      <note Length="0.015625" Pitch="47" RiffPosition="3.984375" Velocity="0" />
      <note Length="0.0625" Pitch="42" RiffPosition="4" Velocity="0" />
      <note Length="0.0625" Pitch="42" RiffPosition="4.0625" Velocity="0" />
      <note Length="0.0234375" Pitch="66" RiffPosition="4.125" Velocity="0" />
      <note Length="0.0078125" Pitch="54" RiffPosition="4.1484375" Velocity="0" />
      <note Length="0.0625" Pitch="57" RiffPosition="4.15625" Velocity="0" />
      <note Length="0.015625" Pitch="44" RiffPosition="4.21875" Velocity="0" />
      <note Length="0.015625" Pitch="44" RiffPosition="4.234375" Velocity="0" />
      <note Length="0.0625" Pitch="32" RiffPosition="4.25" Velocity="0" />
      <note Length="0.0625" Pitch="38" RiffPosition="4.3125" Velocity="0" />
      <note Length="0.0234375" Pitch="71" RiffPosition="4.375" Velocity="0" />
      <note Length="0.0078125" Pitch="71" RiffPosition="4.3984375" Velocity="0" />
      <note Length="0.0625" Pitch="66" RiffPosition="4.40625" Velocity="0" />
      <note Length="0.015625" Pitch="59" RiffPosition="4.46875" Velocity="0" />
      <note Length="0.015625" Pitch="57" RiffPosition="4.484375" Velocity="0" />
      <note Length="0.0625" Pitch="44" RiffPosition="4.5" Velocity="0" />
      <note Length="0.0625" Pitch="30" RiffPosition="4.5625" Velocity="0" />
      <note Length="0.0234375" Pitch="66" RiffPosition="4.625" Velocity="0" />
      <note Length="0.0078125" Pitch="69" RiffPosition="4.6484375" Velocity="0" />
      <note Length="0.0625" Pitch="54" RiffPosition="4.65625" Velocity="0" />
      <note Length="0.015625" Pitch="42" RiffPosition="4.71875" Velocity="0" />
      <note Length="0.015625" Pitch="42" RiffPosition="4.734375" Velocity="0" />
      <note Length="0.0625" Pitch="30" RiffPosition="4.75" Velocity="0" />
      <note Length="0.0625" Pitch="35" RiffPosition="4.8125" Velocity="0" />
      <note Length="0.0234375" Pitch="59" RiffPosition="4.875" Velocity="0" />
      <note Length="0.0078125" Pitch="61" RiffPosition="4.8984375" Velocity="0" />
      <note Length="0.0625" Pitch="66" RiffPosition="4.90625" Velocity="0" />
      <note Length="0.015625" Pitch="61" RiffPosition="4.96875" Velocity="0" />
      <note Length="0.015625" Pitch="54" RiffPosition="4.984375" Velocity="0" />
      <note Length="0.0625" Pitch="35" RiffPosition="5" Velocity="0" />
      <note Length="0.0625" Pitch="35" RiffPosition="5.0625" Velocity="0" />
      <note Length="0.0234375" Pitch="59" RiffPosition="5.125" Velocity="0" />
      <note Length="0.0078125" Pitch="47" RiffPosition="5.1484375" Velocity="0" />
      <note Length="0.0625" Pitch="50" RiffPosition="5.15625" Velocity="0" />
      <note Length="0.015625" Pitch="37" RiffPosition="5.21875" Velocity="0" />
      <note Length="0.015625" Pitch="37" RiffPosition="5.234375" Velocity="0" />
      <note Length="0.0625" Pitch="25" RiffPosition="5.25" Velocity="0" />
      <note Length="0.0625" Pitch="31" RiffPosition="5.3125" Velocity="0" />
      <note Length="0.0234375" Pitch="64" RiffPosition="5.375" Velocity="0" />
      <note Length="0.0078125" Pitch="64" RiffPosition="5.3984375" Velocity="0" />
      <note Length="0.0625" Pitch="59" RiffPosition="5.40625" Velocity="0" />
      <note Length="0.015625" Pitch="52" RiffPosition="5.46875" Velocity="0" />
      <note Length="0.015625" Pitch="50" RiffPosition="5.484375" Velocity="0" />
      <note Length="0.0625" Pitch="37" RiffPosition="5.5" Velocity="0" />
      <note Length="0.0625" Pitch="23" RiffPosition="5.5625" Velocity="0" />
      <note Length="0.0234375" Pitch="59" RiffPosition="5.625" Velocity="0" />
      <note Length="0.0078125" Pitch="62" RiffPosition="5.6484375" Velocity="0" />
      <note Length="0.0625" Pitch="47" RiffPosition="5.65625" Velocity="0" />
      <note Length="0.015625" Pitch="35" RiffPosition="5.71875" Velocity="0" />
      <note Length="0.015625" Pitch="35" RiffPosition="5.734375" Velocity="0" />
      <note Length="0.0625" Pitch="23" RiffPosition="5.75" Velocity="0" />
      <note Length="0.0625" Pitch="28" RiffPosition="5.8125" Velocity="0" />
      <note Length="0.0234375" Pitch="52" RiffPosition="5.875" Velocity="0" />
      <note Length="0.0078125" Pitch="54" RiffPosition="5.8984375" Velocity="0" />
      <note Length="0.0625" Pitch="59" RiffPosition="5.90625" Velocity="0" />
      <note Length="0.015625" Pitch="54" RiffPosition="5.96875" Velocity="0" />
      <note Length="0.015625" Pitch="47" RiffPosition="5.984375" Velocity="0" />
      <note Length="0.0625" Pitch="41" RiffPosition="6" Velocity="0" />
      <note Length="0.0625" Pitch="41" RiffPosition="6.0625" Velocity="0" />
      <note Length="0.0234375" Pitch="65" RiffPosition="6.125" Velocity="0" />
      <note Length="0.0078125" Pitch="53" RiffPosition="6.1484375" Velocity="0" />
      <note Length="0.0625" Pitch="56" RiffPosition="6.15625" Velocity="0" />
      <note Length="0.015625" Pitch="43" RiffPosition="6.21875" Velocity="0" />
      <note Length="0.015625" Pitch="43" RiffPosition="6.234375" Velocity="0" />
      <note Length="0.0625" Pitch="31" RiffPosition="6.25" Velocity="0" />
      <note Length="0.0625" Pitch="37" RiffPosition="6.3125" Velocity="0" />
      <note Length="0.0234375" Pitch="70" RiffPosition="6.375" Velocity="0" />
      <note Length="0.0078125" Pitch="70" RiffPosition="6.3984375" Velocity="0" />
      <note Length="0.0625" Pitch="65" RiffPosition="6.40625" Velocity="0" />
      <note Length="0.015625" Pitch="58" RiffPosition="6.46875" Velocity="0" />
      <note Length="0.015625" Pitch="56" RiffPosition="6.484375" Velocity="0" />
      <note Length="0.0625" Pitch="43" RiffPosition="6.5" Velocity="0" />
      <note Length="0.0625" Pitch="29" RiffPosition="6.5625" Velocity="0" />
      <note Length="0.0234375" Pitch="65" RiffPosition="6.625" Velocity="0" />
      <note Length="0.0078125" Pitch="68" RiffPosition="6.6484375" Velocity="0" />
      <note Length="0.0625" Pitch="53" RiffPosition="6.65625" Velocity="0" />
      <note Length="0.015625" Pitch="41" RiffPosition="6.71875" Velocity="0" />
      <note Length="0.015625" Pitch="41" RiffPosition="6.734375" Velocity="0" />
      <note Length="0.0625" Pitch="29" RiffPosition="6.75" Velocity="0" />
      <note Length="0.0625" Pitch="34" RiffPosition="6.8125" Velocity="0" />
      <note Length="0.0234375" Pitch="58" RiffPosition="6.875" Velocity="0" />
      <note Length="0.0078125" Pitch="60" RiffPosition="6.8984375" Velocity="0" />
      <note Length="0.0625" Pitch="65" RiffPosition="6.90625" Velocity="0" />
      <note Length="0.015625" Pitch="60" RiffPosition="6.96875" Velocity="0" />
      <note Length="0.015625" Pitch="53" RiffPosition="6.984375" Velocity="0" />
      <note Length="0.0625" Pitch="34" RiffPosition="7" Velocity="0" />
      <note Length="0.0625" Pitch="34" RiffPosition="7.0625" Velocity="0" />
      <note Length="0.0234375" Pitch="58" RiffPosition="7.125" Velocity="0" />
      <note Length="0.0078125" Pitch="46" RiffPosition="7.1484375" Velocity="0" />
      <note Length="0.0625" Pitch="49" RiffPosition="7.15625" Velocity="0" />
      <note Length="0.015625" Pitch="36" RiffPosition="7.21875" Velocity="0" />
      <note Length="0.015625" Pitch="36" RiffPosition="7.234375" Velocity="0" />
      <note Length="0.0625" Pitch="24" RiffPosition="7.25" Velocity="0" />
      <note Length="0.0625" Pitch="30" RiffPosition="7.3125" Velocity="0" />
      <note Length="0.0234375" Pitch="63" RiffPosition="7.375" Velocity="0" />
      <note Length="0.0078125" Pitch="63" RiffPosition="7.3984375" Velocity="0" />
      <note Length="0.0625" Pitch="58" RiffPosition="7.40625" Velocity="0" />
      <note Length="0.015625" Pitch="51" RiffPosition="7.46875" Velocity="0" />
      <note Length="0.015625" Pitch="49" RiffPosition="7.484375" Velocity="0" />
      <note Length="0.0625" Pitch="36" RiffPosition="7.5" Velocity="0" />
      <note Length="0.0625" Pitch="22" RiffPosition="7.5625" Velocity="0" />
      <note Length="0.0234375" Pitch="58" RiffPosition="7.625" Velocity="0" />
      <note Length="0.0078125" Pitch="61" RiffPosition="7.6484375" Velocity="0" />
      <note Length="0.0625" Pitch="46" RiffPosition="7.65625" Velocity="0" />
      <note Length="0.015625" Pitch="34" RiffPosition="7.71875" Velocity="0" />
      <note Length="0.015625" Pitch="34" RiffPosition="7.734375" Velocity="0" />
      <note Length="0.0625" Pitch="22" RiffPosition="7.75" Velocity="0" />
      <note Length="0.0625" Pitch="27" RiffPosition="7.8125" Velocity="0" />
      <note Length="0.0234375" Pitch="51" RiffPosition="7.875" Velocity="0" />
      <note Length="0.0078125" Pitch="53" RiffPosition="7.8984375" Velocity="0" />
      <note Length="0.0625" Pitch="58" RiffPosition="7.90625" Velocity="0" />
      <note Length="0.015625" Pitch="53" RiffPosition="7.96875" Velocity="0" />
      <note Length="0.015625" Pitch="46" RiffPosition="7.984375" Velocity="0" />
      <note Length="0.0625" Pitch="41" RiffPosition="8" Velocity="26" />
      <note Length="0.0625" Pitch="41" RiffPosition="8.0625" Velocity="49" />
      <note Length="0.0234375" Pitch="65" RiffPosition="8.125" Velocity="49" />
      <note Length="0.0078125" Pitch="53" RiffPosition="8.1484375" Velocity="41" />
      <note Length="0.0625" Pitch="56" RiffPosition="8.15625" Velocity="38" />
      <note Length="0.015625" Pitch="43" RiffPosition="8.21875" Velocity="74" />
      <note Length="0.015625" Pitch="43" RiffPosition="8.234375" Velocity="67" />
      <note Length="0.0625" Pitch="31" RiffPosition="8.25" Velocity="46" />
      <note Length="0.0625" Pitch="37" RiffPosition="8.3125" Velocity="127" />
      <note Length="0.0234375" Pitch="70" RiffPosition="8.375" Velocity="33" />
      <note Length="0.0078125" Pitch="70" RiffPosition="8.3984375" Velocity="22" />
      <note Length="0.0625" Pitch="65" RiffPosition="8.40625" Velocity="22" />
      <note Length="0.015625" Pitch="58" RiffPosition="8.46875" Velocity="106" />
      <note Length="0.015625" Pitch="56" RiffPosition="8.484375" Velocity="108" />
      <note Length="0.0625" Pitch="43" RiffPosition="8.5" Velocity="43" />
      <note Length="0.0625" Pitch="29" RiffPosition="8.5625" Velocity="64" />
      <note Length="0.0234375" Pitch="65" RiffPosition="8.625" Velocity="22" />
      <note Length="0.0078125" Pitch="68" RiffPosition="8.6484375" Velocity="22" />
      <note Length="0.0625" Pitch="53" RiffPosition="8.65625" Velocity="22" />
      <note Length="0.015625" Pitch="41" RiffPosition="8.71875" Velocity="83" />
      <note Length="0.015625" Pitch="41" RiffPosition="8.734375" Velocity="83" />
      <note Length="0.0625" Pitch="29" RiffPosition="8.75" Velocity="23" />
      <note Length="0.0625" Pitch="34" RiffPosition="8.8125" Velocity="103" />
      <note Length="0.0234375" Pitch="58" RiffPosition="8.875" Velocity="37" />
      <note Length="0.0078125" Pitch="60" RiffPosition="8.8984375" Velocity="37" />
      <note Length="0.0625" Pitch="65" RiffPosition="8.90625" Velocity="37" />
      <note Length="0.015625" Pitch="60" RiffPosition="8.96875" Velocity="80" />
      <note Length="0.015625" Pitch="53" RiffPosition="8.984375" Velocity="85" />
      <note Length="0.0625" Pitch="34" RiffPosition="9" Velocity="26" />
      <note Length="0.0625" Pitch="34" RiffPosition="9.0625" Velocity="49" />
      <note Length="0.0234375" Pitch="58" RiffPosition="9.125" Velocity="49" />
      <note Length="0.0078125" Pitch="46" RiffPosition="9.1484375" Velocity="41" />
      <note Length="0.0625" Pitch="49" RiffPosition="9.15625" Velocity="38" />
      <note Length="0.015625" Pitch="36" RiffPosition="9.21875" Velocity="74" />
      <note Length="0.015625" Pitch="36" RiffPosition="9.234375" Velocity="67" />
      <note Length="0.0625" Pitch="24" RiffPosition="9.25" Velocity="46" />
      <note Length="0.0625" Pitch="30" RiffPosition="9.3125" Velocity="127" />
      <note Length="0.0234375" Pitch="63" RiffPosition="9.375" Velocity="33" />
      <note Length="0.0078125" Pitch="63" RiffPosition="9.3984375" Velocity="22" />
      <note Length="0.0625" Pitch="58" RiffPosition="9.40625" Velocity="22" />
      <note Length="0.015625" Pitch="51" RiffPosition="9.46875" Velocity="106" />
      <note Length="0.015625" Pitch="49" RiffPosition="9.484375" Velocity="108" />
      <note Length="0.0625" Pitch="36" RiffPosition="9.5" Velocity="43" />
      <note Length="0.0625" Pitch="22" RiffPosition="9.5625" Velocity="64" />
      <note Length="0.0234375" Pitch="58" RiffPosition="9.625" Velocity="22" />
      <note Length="0.0078125" Pitch="61" RiffPosition="9.6484375" Velocity="22" />
      <note Length="0.0625" Pitch="46" RiffPosition="9.65625" Velocity="22" />
      <note Length="0.015625" Pitch="34" RiffPosition="9.71875" Velocity="83" />
      <note Length="0.015625" Pitch="34" RiffPosition="9.734375" Velocity="83" />
      <note Length="0.0625" Pitch="22" RiffPosition="9.75" Velocity="23" />
      <note Length="0.0625" Pitch="27" RiffPosition="9.8125" Velocity="103" />
      <note Length="0.0234375" Pitch="51" RiffPosition="9.875" Velocity="37" />
      <note Length="0.0078125" Pitch="53" RiffPosition="9.8984375" Velocity="37" />
      <note Length="0.0625" Pitch="58" RiffPosition="9.90625" Velocity="37" />
      <note Length="0.015625" Pitch="53" RiffPosition="9.96875" Velocity="80" />
      <note Length="0.015625" Pitch="46" RiffPosition="9.984375" Velocity="85" />
      <note Length="0.0625" Pitch="43" RiffPosition="10" Velocity="26" />
      <note Length="0.0625" Pitch="43" RiffPosition="10.0625" Velocity="49" />
      <note Length="0.0234375" Pitch="67" RiffPosition="10.125" Velocity="49" />
      <note Length="0.0078125" Pitch="55" RiffPosition="10.1484375" Velocity="41" />
      <note Length="0.0625" Pitch="58" RiffPosition="10.15625" Velocity="38" />
      <note Length="0.015625" Pitch="45" RiffPosition="10.21875" Velocity="74" />
      <note Length="0.015625" Pitch="45" RiffPosition="10.234375" Velocity="67" />
      <note Length="0.0625" Pitch="33" RiffPosition="10.25" Velocity="46" />
      <note Length="0.0625" Pitch="39" RiffPosition="10.3125" Velocity="127" />
      <note Length="0.0234375" Pitch="72" RiffPosition="10.375" Velocity="33" />
      <note Length="0.0078125" Pitch="72" RiffPosition="10.3984375" Velocity="22" />
      <note Length="0.0625" Pitch="67" RiffPosition="10.40625" Velocity="22" />
      <note Length="0.015625" Pitch="60" RiffPosition="10.46875" Velocity="106" />
      <note Length="0.015625" Pitch="58" RiffPosition="10.484375" Velocity="108" />
      <note Length="0.0625" Pitch="45" RiffPosition="10.5" Velocity="43" />
      <note Length="0.0625" Pitch="31" RiffPosition="10.5625" Velocity="64" />
      <note Length="0.0234375" Pitch="67" RiffPosition="10.625" Velocity="22" />
      <note Length="0.0078125" Pitch="70" RiffPosition="10.6484375" Velocity="22" />
      <note Length="0.0625" Pitch="55" RiffPosition="10.65625" Velocity="22" />
      <note Length="0.015625" Pitch="43" RiffPosition="10.71875" Velocity="83" />
      <note Length="0.015625" Pitch="43" RiffPosition="10.734375" Velocity="83" />
      <note Length="0.0625" Pitch="31" RiffPosition="10.75" Velocity="23" />
      <note Length="0.0625" Pitch="36" RiffPosition="10.8125" Velocity="103" />
      <note Length="0.0234375" Pitch="60" RiffPosition="10.875" Velocity="37" />
      <note Length="0.0078125" Pitch="62" RiffPosition="10.8984375" Velocity="37" />
      <note Length="0.0625" Pitch="67" RiffPosition="10.90625" Velocity="37" />
      <note Length="0.015625" Pitch="62" RiffPosition="10.96875" Velocity="80" />
      <note Length="0.015625" Pitch="55" RiffPosition="10.984375" Velocity="85" />
      <note Length="0.0625" Pitch="34" RiffPosition="11" Velocity="26" />
      <note Length="0.0625" Pitch="34" RiffPosition="11.0625" Velocity="49" />
      <note Length="0.0234375" Pitch="58" RiffPosition="11.125" Velocity="49" />
      <note Length="0.0078125" Pitch="46" RiffPosition="11.1484375" Velocity="41" />
      <note Length="0.0625" Pitch="49" RiffPosition="11.15625" Velocity="38" />
      <note Length="0.015625" Pitch="36" RiffPosition="11.21875" Velocity="74" />
      <note Length="0.015625" Pitch="36" RiffPosition="11.234375" Velocity="67" />
      <note Length="0.0625" Pitch="24" RiffPosition="11.25" Velocity="46" />
      <note Length="0.0625" Pitch="30" RiffPosition="11.3125" Velocity="127" />
      <note Length="0.0234375" Pitch="63" RiffPosition="11.375" Velocity="33" />
      <note Length="0.0078125" Pitch="63" RiffPosition="11.3984375" Velocity="22" />
      <note Length="0.0625" Pitch="58" RiffPosition="11.40625" Velocity="22" />
      <note Length="0.015625" Pitch="51" RiffPosition="11.46875" Velocity="106" />
      <note Length="0.015625" Pitch="49" RiffPosition="11.484375" Velocity="108" />
      <note Length="0.0625" Pitch="36" RiffPosition="11.5" Velocity="43" />
      <note Length="0.0625" Pitch="22" RiffPosition="11.5625" Velocity="64" />
      <note Length="0.0234375" Pitch="58" RiffPosition="11.625" Velocity="22" />
      <note Length="0.0078125" Pitch="61" RiffPosition="11.6484375" Velocity="22" />
      <note Length="0.0625" Pitch="46" RiffPosition="11.65625" Velocity="22" />
      <note Length="0.015625" Pitch="34" RiffPosition="11.71875" Velocity="83" />
      <note Length="0.015625" Pitch="34" RiffPosition="11.734375" Velocity="83" />
      <note Length="0.0625" Pitch="22" RiffPosition="11.75" Velocity="23" />
      <note Length="0.0625" Pitch="27" RiffPosition="11.8125" Velocity="103" />
      <note Length="0.0234375" Pitch="51" RiffPosition="11.875" Velocity="37" />
      <note Length="0.0078125" Pitch="53" RiffPosition="11.8984375" Velocity="37" />
      <note Length="0.0625" Pitch="58" RiffPosition="11.90625" Velocity="37" />
      <note Length="0.015625" Pitch="53" RiffPosition="11.96875" Velocity="80" />
      <note Length="0.015625" Pitch="46" RiffPosition="11.984375" Velocity="85" />
      <note Length="0.0625" Pitch="43" RiffPosition="12" Velocity="0" />
      <note Length="0.0625" Pitch="43" RiffPosition="12.0625" Velocity="0" />
      <note Length="0.0234375" Pitch="67" RiffPosition="12.125" Velocity="0" />
      <note Length="0.0078125" Pitch="55" RiffPosition="12.1484375" Velocity="0" />
      <note Length="0.0625" Pitch="58" RiffPosition="12.15625" Velocity="0" />
      <note Length="0.015625" Pitch="45" RiffPosition="12.21875" Velocity="0" />
      <note Length="0.015625" Pitch="45" RiffPosition="12.234375" Velocity="0" />
      <note Length="0.0625" Pitch="33" RiffPosition="12.25" Velocity="0" />
      <note Length="0.0625" Pitch="39" RiffPosition="12.3125" Velocity="0" />
      <note Length="0.0234375" Pitch="72" RiffPosition="12.375" Velocity="0" />
      <note Length="0.0078125" Pitch="72" RiffPosition="12.3984375" Velocity="0" />
      <note Length="0.0625" Pitch="67" RiffPosition="12.40625" Velocity="0" />
      <note Length="0.015625" Pitch="60" RiffPosition="12.46875" Velocity="0" />
      <note Length="0.015625" Pitch="58" RiffPosition="12.484375" Velocity="0" />
      <note Length="0.0625" Pitch="45" RiffPosition="12.5" Velocity="0" />
      <note Length="0.0625" Pitch="31" RiffPosition="12.5625" Velocity="0" />
      <note Length="0.0234375" Pitch="67" RiffPosition="12.625" Velocity="0" />
      <note Length="0.0078125" Pitch="70" RiffPosition="12.6484375" Velocity="0" />
      <note Length="0.0625" Pitch="55" RiffPosition="12.65625" Velocity="0" />
      <note Length="0.015625" Pitch="43" RiffPosition="12.71875" Velocity="0" />
      <note Length="0.015625" Pitch="43" RiffPosition="12.734375" Velocity="0" />
      <note Length="0.0625" Pitch="31" RiffPosition="12.75" Velocity="0" />
      <note Length="0.0625" Pitch="36" RiffPosition="12.8125" Velocity="0" />
      <note Length="0.0234375" Pitch="60" RiffPosition="12.875" Velocity="0" />
      <note Length="0.0078125" Pitch="62" RiffPosition="12.8984375" Velocity="0" />
      <note Length="0.0625" Pitch="67" RiffPosition="12.90625" Velocity="0" />
      <note Length="0.015625" Pitch="62" RiffPosition="12.96875" Velocity="0" />
      <note Length="0.015625" Pitch="55" RiffPosition="12.984375" Velocity="0" />
      <note Length="0.0625" Pitch="45" RiffPosition="13" Velocity="0" />
      <note Length="0.0625" Pitch="45" RiffPosition="13.0625" Velocity="0" />
      <note Length="0.0234375" Pitch="69" RiffPosition="13.125" Velocity="0" />
      <note Length="0.0078125" Pitch="57" RiffPosition="13.1484375" Velocity="0" />
      <note Length="0.0625" Pitch="60" RiffPosition="13.15625" Velocity="0" />
      <note Length="0.015625" Pitch="47" RiffPosition="13.21875" Velocity="0" />
      <note Length="0.015625" Pitch="47" RiffPosition="13.234375" Velocity="0" />
      <note Length="0.0625" Pitch="35" RiffPosition="13.25" Velocity="0" />
      <note Length="0.0625" Pitch="41" RiffPosition="13.3125" Velocity="0" />
      <note Length="0.0234375" Pitch="74" RiffPosition="13.375" Velocity="0" />
      <note Length="0.0078125" Pitch="74" RiffPosition="13.3984375" Velocity="0" />
      <note Length="0.0625" Pitch="69" RiffPosition="13.40625" Velocity="0" />
      <note Length="0.015625" Pitch="62" RiffPosition="13.46875" Velocity="0" />
      <note Length="0.015625" Pitch="60" RiffPosition="13.484375" Velocity="0" />
      <note Length="0.0625" Pitch="47" RiffPosition="13.5" Velocity="0" />
      <note Length="0.0625" Pitch="33" RiffPosition="13.5625" Velocity="0" />
      <note Length="0.0234375" Pitch="69" RiffPosition="13.625" Velocity="0" />
      <note Length="0.0078125" Pitch="72" RiffPosition="13.6484375" Velocity="0" />
      <note Length="0.0625" Pitch="57" RiffPosition="13.65625" Velocity="0" />
      <note Length="0.015625" Pitch="45" RiffPosition="13.71875" Velocity="0" />
      <note Length="0.015625" Pitch="45" RiffPosition="13.734375" Velocity="0" />
      <note Length="0.0625" Pitch="33" RiffPosition="13.75" Velocity="0" />
      <note Length="0.0625" Pitch="38" RiffPosition="13.8125" Velocity="0" />
      <note Length="0.0234375" Pitch="62" RiffPosition="13.875" Velocity="0" />
      <note Length="0.0078125" Pitch="64" RiffPosition="13.8984375" Velocity="0" />
      <note Length="0.0625" Pitch="69" RiffPosition="13.90625" Velocity="0" />
      <note Length="0.015625" Pitch="64" RiffPosition="13.96875" Velocity="0" />
      <note Length="0.015625" Pitch="57" RiffPosition="13.984375" Velocity="0" />
    </riff>
    <riff IsDrum="True" MidiInstrument="0" Tempo="101" Length="14">
      <note Length="0.03125" Pitch="38" RiffPosition="0" Velocity="0" />
      <note Length="0.03125" Pitch="38" RiffPosition="0.03125" Velocity="0" />
      <note Length="0.03125" Pitch="38" RiffPosition="0.0625" Velocity="0" />
      <note Length="0.03125" Pitch="38" RiffPosition="0.09375" Velocity="0" />
      <note Length="0.03125" Pitch="38" RiffPosition="0.125" Velocity="0" />
      <note Length="0.03125" Pitch="38" RiffPosition="0.15625" Velocity="0" />
      <note Length="0.03125" Pitch="38" RiffPosition="0.1875" Velocity="0" />
      <note Length="0.03125" Pitch="38" RiffPosition="0.21875" Velocity="0" />
      <note Length="0.03125" Pitch="38" RiffPosition="0.25" Velocity="0" />
      <note Length="0.03125" Pitch="38" RiffPosition="0.28125" Velocity="0" />
      <note Length="0.03125" Pitch="38" RiffPosition="0.3125" Velocity="0" />
      <note Length="0.03125" Pitch="38" RiffPosition="0.34375" Velocity="0" />
      <note Length="0.03125" Pitch="38" RiffPosition="0.375" Velocity="0" />
      <note Length="0.03125" Pitch="38" RiffPosition="0.40625" Velocity="0" />
      <note Length="0.03125" Pitch="38" RiffPosition="0.4375" Velocity="0" />
      <note Length="0.03125" Pitch="38" RiffPosition="0.46875" Velocity="0" />
      <note Length="0.03125" Pitch="38" RiffPosition="0.5" Velocity="0" />
      <note Length="0.03125" Pitch="38" RiffPosition="0.53125" Velocity="0" />
      <note Length="0.03125" Pitch="38" RiffPosition="0.5625" Velocity="0" />
      <note Length="0.03125" Pitch="38" RiffPosition="0.59375" Velocity="0" />
      <note Length="0.03125" Pitch="38" RiffPosition="0.625" Velocity="0" />
      <note Length="0.03125" Pitch="38" RiffPosition="0.65625" Velocity="0" />
      <note Length="0.03125" Pitch="38" RiffPosition="0.6875" Velocity="0" />
      <note Length="0.03125" Pitch="38" RiffPosition="0.71875" Velocity="0" />
      <note Length="0.03125" Pitch="38" RiffPosition="0.75" Velocity="0" />
      <note Length="0.03125" Pitch="38" RiffPosition="0.78125" Velocity="0" />
      <note Length="0.03125" Pitch="38" RiffPosition="0.8125" Velocity="0" />
      <note Length="0.03125" Pitch="38" RiffPosition="0.84375" Velocity="0" />
      <note Length="0.03125" Pitch="38" RiffPosition="0.875" Velocity="0" />
      <note Length="0.03125" Pitch="38" RiffPosition="0.90625" Velocity="0" />
      <note Length="0.03125" Pitch="38" RiffPosition="0.9375" Velocity="0" />
      <note Length="0.03125" Pitch="38" RiffPosition="0.96875" Velocity="0" />
      <note Length="0.03125" Pitch="38" RiffPosition="1" Velocity="0" />
      <note Length="0.03125" Pitch="38" RiffPosition="1.03125" Velocity="0" />
      <note Length="0.03125" Pitch="38" RiffPosition="1.0625" Velocity="0" />
      <note Length="0.03125" Pitch="38" RiffPosition="1.09375" Velocity="0" />
      <note Length="0.03125" Pitch="38" RiffPosition="1.125" Velocity="0" />
      <note Length="0.03125" Pitch="38" RiffPosition="1.15625" Velocity="0" />
      <note Length="0.03125" Pitch="38" RiffPosition="1.1875" Velocity="0" />
      <note Length="0.03125" Pitch="38" RiffPosition="1.21875" Velocity="0" />
      <note Length="0.03125" Pitch="38" RiffPosition="1.25" Velocity="0" />
      <note Length="0.03125" Pitch="38" RiffPosition="1.28125" Velocity="0" />
      <note Length="0.03125" Pitch="38" RiffPosition="1.3125" Velocity="0" />
      <note Length="0.03125" Pitch="38" RiffPosition="1.34375" Velocity="0" />
      <note Length="0.03125" Pitch="38" RiffPosition="1.375" Velocity="0" />
      <note Length="0.03125" Pitch="38" RiffPosition="1.40625" Velocity="0" />
      <note Length="0.03125" Pitch="38" RiffPosition="1.4375" Velocity="0" />
      <note Length="0.03125" Pitch="38" RiffPosition="1.46875" Velocity="0" />
      <note Length="0.03125" Pitch="38" RiffPosition="1.5" Velocity="0" />
      <note Length="0.03125" Pitch="38" RiffPosition="1.53125" Velocity="0" />
      <note Length="0.03125" Pitch="38" RiffPosition="1.5625" Velocity="0" />
      <note Length="0.03125" Pitch="38" RiffPosition="1.59375" Velocity="0" />
      <note Length="0.03125" Pitch="38" RiffPosition="1.625" Velocity="0" />
      <note Length="0.03125" Pitch="38" RiffPosition="1.65625" Velocity="0" />
      <note Length="0.03125" Pitch="38" RiffPosition="1.6875" Velocity="0" />
      <note Length="0.03125" Pitch="38" RiffPosition="1.71875" Velocity="0" />
      <note Length="0.03125" Pitch="38" RiffPosition="1.75" Velocity="0" />
      <note Length="0.03125" Pitch="38" RiffPosition="1.78125" Velocity="0" />
      <note Length="0.03125" Pitch="38" RiffPosition="1.8125" Velocity="0" />
      <note Length="0.03125" Pitch="38" RiffPosition="1.84375" Velocity="0" />
      <note Length="0.03125" Pitch="38" RiffPosition="1.875" Velocity="0" />
      <note Length="0.03125" Pitch="38" RiffPosition="1.90625" Velocity="0" />
      <note Length="0.03125" Pitch="38" RiffPosition="1.9375" Velocity="0" />
      <note Length="0.03125" Pitch="38" RiffPosition="1.96875" Velocity="0" />
      <note Length="0.03125" Pitch="38" RiffPosition="2" Velocity="0" />
      <note Length="0.03125" Pitch="38" RiffPosition="2.03125" Velocity="0" />
      <note Length="0.03125" Pitch="38" RiffPosition="2.0625" Velocity="0" />
      <note Length="0.03125" Pitch="38" RiffPosition="2.09375" Velocity="0" />
      <note Length="0.03125" Pitch="38" RiffPosition="2.125" Velocity="0" />
      <note Length="0.03125" Pitch="38" RiffPosition="2.15625" Velocity="0" />
      <note Length="0.03125" Pitch="38" RiffPosition="2.1875" Velocity="0" />
      <note Length="0.03125" Pitch="38" RiffPosition="2.21875" Velocity="0" />
      <note Length="0.03125" Pitch="38" RiffPosition="2.25" Velocity="0" />
      <note Length="0.03125" Pitch="38" RiffPosition="2.28125" Velocity="0" />
      <note Length="0.03125" Pitch="38" RiffPosition="2.3125" Velocity="0" />
      <note Length="0.03125" Pitch="38" RiffPosition="2.34375" Velocity="0" />
      <note Length="0.03125" Pitch="38" RiffPosition="2.375" Velocity="0" />
      <note Length="0.03125" Pitch="38" RiffPosition="2.40625" Velocity="0" />
      <note Length="0.03125" Pitch="38" RiffPosition="2.4375" Velocity="0" />
      <note Length="0.03125" Pitch="38" RiffPosition="2.46875" Velocity="0" />
      <note Length="0.03125" Pitch="38" RiffPosition="2.5" Velocity="0" />
      <note Length="0.03125" Pitch="38" RiffPosition="2.53125" Velocity="0" />
      <note Length="0.03125" Pitch="38" RiffPosition="2.5625" Velocity="0" />
      <note Length="0.03125" Pitch="38" RiffPosition="2.59375" Velocity="0" />
      <note Length="0.03125" Pitch="38" RiffPosition="2.625" Velocity="0" />
      <note Length="0.03125" Pitch="38" RiffPosition="2.65625" Velocity="0" />
      <note Length="0.03125" Pitch="38" RiffPosition="2.6875" Velocity="0" />
      <note Length="0.03125" Pitch="38" RiffPosition="2.71875" Velocity="0" />
      <note Length="0.03125" Pitch="38" RiffPosition="2.75" Velocity="0" />
      <note Length="0.03125" Pitch="38" RiffPosition="2.78125" Velocity="0" />
      <note Length="0.03125" Pitch="38" RiffPosition="2.8125" Velocity="0" />
      <note Length="0.03125" Pitch="38" RiffPosition="2.84375" Velocity="0" />
      <note Length="0.03125" Pitch="38" RiffPosition="2.875" Velocity="0" />
      <note Length="0.03125" Pitch="38" RiffPosition="2.90625" Velocity="0" />
      <note Length="0.03125" Pitch="38" RiffPosition="2.9375" Velocity="0" />
      <note Length="0.03125" Pitch="38" RiffPosition="2.96875" Velocity="0" />
      <note Length="0.03125" Pitch="38" RiffPosition="3" Velocity="0" />
      <note Length="0.03125" Pitch="38" RiffPosition="3.03125" Velocity="0" />
      <note Length="0.03125" Pitch="38" RiffPosition="3.0625" Velocity="0" />
      <note Length="0.03125" Pitch="38" RiffPosition="3.09375" Velocity="0" />
      <note Length="0.03125" Pitch="38" RiffPosition="3.125" Velocity="0" />
      <note Length="0.03125" Pitch="38" RiffPosition="3.15625" Velocity="0" />
      <note Length="0.03125" Pitch="38" RiffPosition="3.1875" Velocity="0" />
      <note Length="0.03125" Pitch="38" RiffPosition="3.21875" Velocity="0" />
      <note Length="0.03125" Pitch="38" RiffPosition="3.25" Velocity="0" />
      <note Length="0.03125" Pitch="38" RiffPosition="3.28125" Velocity="0" />
      <note Length="0.03125" Pitch="38" RiffPosition="3.3125" Velocity="0" />
      <note Length="0.03125" Pitch="38" RiffPosition="3.34375" Velocity="0" />
      <note Length="0.03125" Pitch="38" RiffPosition="3.375" Velocity="0" />
      <note Length="0.03125" Pitch="38" RiffPosition="3.40625" Velocity="0" />
      <note Length="0.03125" Pitch="38" RiffPosition="3.4375" Velocity="0" />
      <note Length="0.03125" Pitch="38" RiffPosition="3.46875" Velocity="0" />
      <note Length="0.03125" Pitch="38" RiffPosition="3.5" Velocity="0" />
      <note Length="0.03125" Pitch="38" RiffPosition="3.53125" Velocity="0" />
      <note Length="0.03125" Pitch="38" RiffPosition="3.5625" Velocity="0" />
      <note Length="0.03125" Pitch="38" RiffPosition="3.59375" Velocity="0" />
      <note Length="0.03125" Pitch="38" RiffPosition="3.625" Velocity="0" />
      <note Length="0.03125" Pitch="38" RiffPosition="3.65625" Velocity="0" />
      <note Length="0.03125" Pitch="38" RiffPosition="3.6875" Velocity="0" />
      <note Length="0.03125" Pitch="38" RiffPosition="3.71875" Velocity="0" />
      <note Length="0.03125" Pitch="38" RiffPosition="3.75" Velocity="0" />
      <note Length="0.03125" Pitch="38" RiffPosition="3.78125" Velocity="0" />
      <note Length="0.03125" Pitch="38" RiffPosition="3.8125" Velocity="0" />
      <note Length="0.03125" Pitch="38" RiffPosition="3.84375" Velocity="0" />
      <note Length="0.03125" Pitch="38" RiffPosition="3.875" Velocity="0" />
      <note Length="0.03125" Pitch="38" RiffPosition="3.90625" Velocity="0" />
      <note Length="0.03125" Pitch="38" RiffPosition="3.9375" Velocity="0" />
      <note Length="0.03125" Pitch="38" RiffPosition="3.96875" Velocity="0" />
      <note Length="0.03125" Pitch="38" RiffPosition="4" Velocity="0" />
      <note Length="0.03125" Pitch="38" RiffPosition="4.03125" Velocity="0" />
      <note Length="0.03125" Pitch="38" RiffPosition="4.0625" Velocity="0" />
      <note Length="0.03125" Pitch="38" RiffPosition="4.09375" Velocity="0" />
      <note Length="0.03125" Pitch="38" RiffPosition="4.125" Velocity="0" />
      <note Length="0.03125" Pitch="38" RiffPosition="4.15625" Velocity="0" />
      <note Length="0.03125" Pitch="38" RiffPosition="4.1875" Velocity="0" />
      <note Length="0.03125" Pitch="38" RiffPosition="4.21875" Velocity="0" />
      <note Length="0.03125" Pitch="38" RiffPosition="4.25" Velocity="0" />
      <note Length="0.03125" Pitch="38" RiffPosition="4.28125" Velocity="0" />
      <note Length="0.03125" Pitch="38" RiffPosition="4.3125" Velocity="0" />
      <note Length="0.03125" Pitch="38" RiffPosition="4.34375" Velocity="0" />
      <note Length="0.03125" Pitch="38" RiffPosition="4.375" Velocity="0" />
      <note Length="0.03125" Pitch="38" RiffPosition="4.40625" Velocity="0" />
      <note Length="0.03125" Pitch="38" RiffPosition="4.4375" Velocity="0" />
      <note Length="0.03125" Pitch="38" RiffPosition="4.46875" Velocity="0" />
      <note Length="0.03125" Pitch="38" RiffPosition="4.5" Velocity="0" />
      <note Length="0.03125" Pitch="38" RiffPosition="4.53125" Velocity="0" />
      <note Length="0.03125" Pitch="38" RiffPosition="4.5625" Velocity="0" />
      <note Length="0.03125" Pitch="38" RiffPosition="4.59375" Velocity="0" />
      <note Length="0.03125" Pitch="38" RiffPosition="4.625" Velocity="0" />
      <note Length="0.03125" Pitch="38" RiffPosition="4.65625" Velocity="0" />
      <note Length="0.03125" Pitch="38" RiffPosition="4.6875" Velocity="0" />
      <note Length="0.03125" Pitch="38" RiffPosition="4.71875" Velocity="0" />
      <note Length="0.03125" Pitch="38" RiffPosition="4.75" Velocity="0" />
      <note Length="0.03125" Pitch="38" RiffPosition="4.78125" Velocity="0" />
      <note Length="0.03125" Pitch="38" RiffPosition="4.8125" Velocity="0" />
      <note Length="0.03125" Pitch="38" RiffPosition="4.84375" Velocity="0" />
      <note Length="0.03125" Pitch="38" RiffPosition="4.875" Velocity="0" />
      <note Length="0.03125" Pitch="38" RiffPosition="4.90625" Velocity="0" />
      <note Length="0.03125" Pitch="38" RiffPosition="4.9375" Velocity="0" />
      <note Length="0.03125" Pitch="38" RiffPosition="4.96875" Velocity="0" />
      <note Length="0.03125" Pitch="38" RiffPosition="5" Velocity="0" />
      <note Length="0.03125" Pitch="38" RiffPosition="5.03125" Velocity="0" />
      <note Length="0.03125" Pitch="38" RiffPosition="5.0625" Velocity="0" />
      <note Length="0.03125" Pitch="38" RiffPosition="5.09375" Velocity="0" />
      <note Length="0.03125" Pitch="38" RiffPosition="5.125" Velocity="0" />
      <note Length="0.03125" Pitch="38" RiffPosition="5.15625" Velocity="0" />
      <note Length="0.03125" Pitch="38" RiffPosition="5.1875" Velocity="0" />
      <note Length="0.03125" Pitch="38" RiffPosition="5.21875" Velocity="0" />
      <note Length="0.03125" Pitch="38" RiffPosition="5.25" Velocity="0" />
      <note Length="0.03125" Pitch="38" RiffPosition="5.28125" Velocity="0" />
      <note Length="0.03125" Pitch="38" RiffPosition="5.3125" Velocity="0" />
      <note Length="0.03125" Pitch="38" RiffPosition="5.34375" Velocity="0" />
      <note Length="0.03125" Pitch="38" RiffPosition="5.375" Velocity="0" />
      <note Length="0.03125" Pitch="38" RiffPosition="5.40625" Velocity="0" />
      <note Length="0.03125" Pitch="38" RiffPosition="5.4375" Velocity="0" />
      <note Length="0.03125" Pitch="38" RiffPosition="5.46875" Velocity="0" />
      <note Length="0.03125" Pitch="38" RiffPosition="5.5" Velocity="0" />
      <note Length="0.03125" Pitch="38" RiffPosition="5.53125" Velocity="0" />
      <note Length="0.03125" Pitch="38" RiffPosition="5.5625" Velocity="0" />
      <note Length="0.03125" Pitch="38" RiffPosition="5.59375" Velocity="0" />
      <note Length="0.03125" Pitch="38" RiffPosition="5.625" Velocity="0" />
      <note Length="0.03125" Pitch="38" RiffPosition="5.65625" Velocity="0" />
      <note Length="0.03125" Pitch="38" RiffPosition="5.6875" Velocity="0" />
      <note Length="0.03125" Pitch="38" RiffPosition="5.71875" Velocity="0" />
      <note Length="0.03125" Pitch="38" RiffPosition="5.75" Velocity="0" />
      <note Length="0.03125" Pitch="38" RiffPosition="5.78125" Velocity="0" />
      <note Length="0.03125" Pitch="38" RiffPosition="5.8125" Velocity="0" />
      <note Length="0.03125" Pitch="38" RiffPosition="5.84375" Velocity="0" />
      <note Length="0.03125" Pitch="38" RiffPosition="5.875" Velocity="0" />
      <note Length="0.03125" Pitch="38" RiffPosition="5.90625" Velocity="0" />
      <note Length="0.03125" Pitch="38" RiffPosition="5.9375" Velocity="0" />
      <note Length="0.03125" Pitch="38" RiffPosition="5.96875" Velocity="0" />
      <note Length="0.03125" Pitch="38" RiffPosition="6" Velocity="0" />
      <note Length="0.03125" Pitch="38" RiffPosition="6.03125" Velocity="0" />
      <note Length="0.03125" Pitch="38" RiffPosition="6.0625" Velocity="0" />
      <note Length="0.03125" Pitch="38" RiffPosition="6.09375" Velocity="0" />
      <note Length="0.03125" Pitch="38" RiffPosition="6.125" Velocity="0" />
      <note Length="0.03125" Pitch="38" RiffPosition="6.15625" Velocity="0" />
      <note Length="0.03125" Pitch="38" RiffPosition="6.1875" Velocity="0" />
      <note Length="0.03125" Pitch="38" RiffPosition="6.21875" Velocity="0" />
      <note Length="0.03125" Pitch="38" RiffPosition="6.25" Velocity="0" />
      <note Length="0.03125" Pitch="38" RiffPosition="6.28125" Velocity="0" />
      <note Length="0.03125" Pitch="38" RiffPosition="6.3125" Velocity="0" />
      <note Length="0.03125" Pitch="38" RiffPosition="6.34375" Velocity="0" />
      <note Length="0.03125" Pitch="38" RiffPosition="6.375" Velocity="0" />
      <note Length="0.03125" Pitch="38" RiffPosition="6.40625" Velocity="0" />
      <note Length="0.03125" Pitch="38" RiffPosition="6.4375" Velocity="0" />
      <note Length="0.03125" Pitch="38" RiffPosition="6.46875" Velocity="0" />
      <note Length="0.03125" Pitch="38" RiffPosition="6.5" Velocity="0" />
      <note Length="0.03125" Pitch="38" RiffPosition="6.53125" Velocity="0" />
      <note Length="0.03125" Pitch="38" RiffPosition="6.5625" Velocity="0" />
      <note Length="0.03125" Pitch="38" RiffPosition="6.59375" Velocity="0" />
      <note Length="0.03125" Pitch="38" RiffPosition="6.625" Velocity="0" />
      <note Length="0.03125" Pitch="38" RiffPosition="6.65625" Velocity="0" />
      <note Length="0.03125" Pitch="38" RiffPosition="6.6875" Velocity="0" />
      <note Length="0.03125" Pitch="38" RiffPosition="6.71875" Velocity="0" />
      <note Length="0.03125" Pitch="38" RiffPosition="6.75" Velocity="0" />
      <note Length="0.03125" Pitch="38" RiffPosition="6.78125" Velocity="0" />
      <note Length="0.03125" Pitch="38" RiffPosition="6.8125" Velocity="0" />
      <note Length="0.03125" Pitch="38" RiffPosition="6.84375" Velocity="0" />
      <note Length="0.03125" Pitch="38" RiffPosition="6.875" Velocity="0" />
      <note Length="0.03125" Pitch="38" RiffPosition="6.90625" Velocity="0" />
      <note Length="0.03125" Pitch="38" RiffPosition="6.9375" Velocity="0" />
      <note Length="0.03125" Pitch="38" RiffPosition="6.96875" Velocity="0" />
      <note Length="0.03125" Pitch="38" RiffPosition="7" Velocity="0" />
      <note Length="0.03125" Pitch="38" RiffPosition="7.03125" Velocity="0" />
      <note Length="0.03125" Pitch="38" RiffPosition="7.0625" Velocity="0" />
      <note Length="0.03125" Pitch="38" RiffPosition="7.09375" Velocity="0" />
      <note Length="0.03125" Pitch="38" RiffPosition="7.125" Velocity="0" />
      <note Length="0.03125" Pitch="38" RiffPosition="7.15625" Velocity="0" />
      <note Length="0.03125" Pitch="38" RiffPosition="7.1875" Velocity="0" />
      <note Length="0.03125" Pitch="38" RiffPosition="7.21875" Velocity="0" />
      <note Length="0.03125" Pitch="38" RiffPosition="7.25" Velocity="0" />
      <note Length="0.03125" Pitch="38" RiffPosition="7.28125" Velocity="0" />
      <note Length="0.03125" Pitch="38" RiffPosition="7.3125" Velocity="0" />
      <note Length="0.03125" Pitch="38" RiffPosition="7.34375" Velocity="0" />
      <note Length="0.03125" Pitch="38" RiffPosition="7.375" Velocity="0" />
      <note Length="0.03125" Pitch="38" RiffPosition="7.40625" Velocity="0" />
      <note Length="0.03125" Pitch="38" RiffPosition="7.4375" Velocity="0" />
      <note Length="0.03125" Pitch="38" RiffPosition="7.46875" Velocity="0" />
      <note Length="0.03125" Pitch="38" RiffPosition="7.5" Velocity="0" />
      <note Length="0.03125" Pitch="38" RiffPosition="7.53125" Velocity="0" />
      <note Length="0.03125" Pitch="38" RiffPosition="7.5625" Velocity="0" />
      <note Length="0.03125" Pitch="38" RiffPosition="7.59375" Velocity="0" />
      <note Length="0.03125" Pitch="38" RiffPosition="7.625" Velocity="0" />
      <note Length="0.03125" Pitch="38" RiffPosition="7.65625" Velocity="0" />
      <note Length="0.03125" Pitch="38" RiffPosition="7.6875" Velocity="0" />
      <note Length="0.03125" Pitch="38" RiffPosition="7.71875" Velocity="0" />
      <note Length="0.03125" Pitch="38" RiffPosition="7.75" Velocity="0" />
      <note Length="0.03125" Pitch="38" RiffPosition="7.78125" Velocity="0" />
      <note Length="0.03125" Pitch="38" RiffPosition="7.8125" Velocity="0" />
      <note Length="0.03125" Pitch="38" RiffPosition="7.84375" Velocity="0" />
      <note Length="0.03125" Pitch="38" RiffPosition="7.875" Velocity="0" />
      <note Length="0.03125" Pitch="38" RiffPosition="7.90625" Velocity="0" />
      <note Length="0.03125" Pitch="38" RiffPosition="7.9375" Velocity="0" />
      <note Length="0.03125" Pitch="38" RiffPosition="7.96875" Velocity="0" />
      <note Length="0.03125" Pitch="38" RiffPosition="8" Velocity="0" />
      <note Length="0.03125" Pitch="38" RiffPosition="8.03125" Velocity="105" />
      <note Length="0.03125" Pitch="38" RiffPosition="8.0625" Velocity="0" />
      <note Length="0.03125" Pitch="38" RiffPosition="8.09375" Velocity="105" />
      <note Length="0.03125" Pitch="38" RiffPosition="8.125" Velocity="0" />
      <note Length="0.03125" Pitch="38" RiffPosition="8.15625" Velocity="105" />
      <note Length="0.03125" Pitch="38" RiffPosition="8.1875" Velocity="0" />
      <note Length="0.03125" Pitch="38" RiffPosition="8.21875" Velocity="105" />
      <note Length="0.03125" Pitch="38" RiffPosition="8.25" Velocity="0" />
      <note Length="0.03125" Pitch="38" RiffPosition="8.28125" Velocity="105" />
      <note Length="0.03125" Pitch="38" RiffPosition="8.3125" Velocity="0" />
      <note Length="0.03125" Pitch="38" RiffPosition="8.34375" Velocity="105" />
      <note Length="0.03125" Pitch="38" RiffPosition="8.375" Velocity="0" />
      <note Length="0.03125" Pitch="38" RiffPosition="8.40625" Velocity="105" />
      <note Length="0.03125" Pitch="38" RiffPosition="8.4375" Velocity="0" />
      <note Length="0.03125" Pitch="38" RiffPosition="8.46875" Velocity="105" />
      <note Length="0.03125" Pitch="38" RiffPosition="8.5" Velocity="0" />
      <note Length="0.03125" Pitch="38" RiffPosition="8.53125" Velocity="105" />
      <note Length="0.03125" Pitch="38" RiffPosition="8.5625" Velocity="0" />
      <note Length="0.03125" Pitch="38" RiffPosition="8.59375" Velocity="105" />
      <note Length="0.03125" Pitch="38" RiffPosition="8.625" Velocity="0" />
      <note Length="0.03125" Pitch="38" RiffPosition="8.65625" Velocity="105" />
      <note Length="0.03125" Pitch="38" RiffPosition="8.6875" Velocity="0" />
      <note Length="0.03125" Pitch="38" RiffPosition="8.71875" Velocity="105" />
      <note Length="0.03125" Pitch="38" RiffPosition="8.75" Velocity="0" />
      <note Length="0.03125" Pitch="38" RiffPosition="8.78125" Velocity="105" />
      <note Length="0.03125" Pitch="38" RiffPosition="8.8125" Velocity="0" />
      <note Length="0.03125" Pitch="38" RiffPosition="8.84375" Velocity="105" />
      <note Length="0.03125" Pitch="38" RiffPosition="8.875" Velocity="0" />
      <note Length="0.03125" Pitch="38" RiffPosition="8.90625" Velocity="105" />
      <note Length="0.03125" Pitch="38" RiffPosition="8.9375" Velocity="0" />
      <note Length="0.03125" Pitch="38" RiffPosition="8.96875" Velocity="105" />
      <note Length="0.03125" Pitch="38" RiffPosition="9" Velocity="0" />
      <note Length="0.03125" Pitch="38" RiffPosition="9.03125" Velocity="105" />
      <note Length="0.03125" Pitch="38" RiffPosition="9.0625" Velocity="0" />
      <note Length="0.03125" Pitch="38" RiffPosition="9.09375" Velocity="105" />
      <note Length="0.03125" Pitch="38" RiffPosition="9.125" Velocity="0" />
      <note Length="0.03125" Pitch="38" RiffPosition="9.15625" Velocity="105" />
      <note Length="0.03125" Pitch="38" RiffPosition="9.1875" Velocity="0" />
      <note Length="0.03125" Pitch="38" RiffPosition="9.21875" Velocity="105" />
      <note Length="0.03125" Pitch="38" RiffPosition="9.25" Velocity="0" />
      <note Length="0.03125" Pitch="38" RiffPosition="9.28125" Velocity="105" />
      <note Length="0.03125" Pitch="38" RiffPosition="9.3125" Velocity="0" />
      <note Length="0.03125" Pitch="38" RiffPosition="9.34375" Velocity="105" />
      <note Length="0.03125" Pitch="38" RiffPosition="9.375" Velocity="0" />
      <note Length="0.03125" Pitch="38" RiffPosition="9.40625" Velocity="105" />
      <note Length="0.03125" Pitch="38" RiffPosition="9.4375" Velocity="0" />
      <note Length="0.03125" Pitch="38" RiffPosition="9.46875" Velocity="105" />
      <note Length="0.03125" Pitch="38" RiffPosition="9.5" Velocity="0" />
      <note Length="0.03125" Pitch="38" RiffPosition="9.53125" Velocity="105" />
      <note Length="0.03125" Pitch="38" RiffPosition="9.5625" Velocity="0" />
      <note Length="0.03125" Pitch="38" RiffPosition="9.59375" Velocity="105" />
      <note Length="0.03125" Pitch="38" RiffPosition="9.625" Velocity="0" />
      <note Length="0.03125" Pitch="38" RiffPosition="9.65625" Velocity="105" />
      <note Length="0.03125" Pitch="38" RiffPosition="9.6875" Velocity="0" />
      <note Length="0.03125" Pitch="38" RiffPosition="9.71875" Velocity="105" />
      <note Length="0.03125" Pitch="38" RiffPosition="9.75" Velocity="0" />
      <note Length="0.03125" Pitch="38" RiffPosition="9.78125" Velocity="105" />
      <note Length="0.03125" Pitch="38" RiffPosition="9.8125" Velocity="0" />
      <note Length="0.03125" Pitch="38" RiffPosition="9.84375" Velocity="105" />
      <note Length="0.03125" Pitch="38" RiffPosition="9.875" Velocity="0" />
      <note Length="0.03125" Pitch="38" RiffPosition="9.90625" Velocity="105" />
      <note Length="0.03125" Pitch="38" RiffPosition="9.9375" Velocity="0" />
      <note Length="0.03125" Pitch="38" RiffPosition="9.96875" Velocity="105" />
      <note Length="0.03125" Pitch="38" RiffPosition="10" Velocity="0" />
      <note Length="0.03125" Pitch="38" RiffPosition="10.03125" Velocity="105" />
      <note Length="0.03125" Pitch="38" RiffPosition="10.0625" Velocity="0" />
      <note Length="0.03125" Pitch="38" RiffPosition="10.09375" Velocity="105" />
      <note Length="0.03125" Pitch="38" RiffPosition="10.125" Velocity="0" />
      <note Length="0.03125" Pitch="38" RiffPosition="10.15625" Velocity="105" />
      <note Length="0.03125" Pitch="38" RiffPosition="10.1875" Velocity="0" />
      <note Length="0.03125" Pitch="38" RiffPosition="10.21875" Velocity="105" />
      <note Length="0.03125" Pitch="38" RiffPosition="10.25" Velocity="0" />
      <note Length="0.03125" Pitch="38" RiffPosition="10.28125" Velocity="105" />
      <note Length="0.03125" Pitch="38" RiffPosition="10.3125" Velocity="0" />
      <note Length="0.03125" Pitch="38" RiffPosition="10.34375" Velocity="105" />
      <note Length="0.03125" Pitch="38" RiffPosition="10.375" Velocity="0" />
      <note Length="0.03125" Pitch="38" RiffPosition="10.40625" Velocity="105" />
      <note Length="0.03125" Pitch="38" RiffPosition="10.4375" Velocity="0" />
      <note Length="0.03125" Pitch="38" RiffPosition="10.46875" Velocity="105" />
      <note Length="0.03125" Pitch="38" RiffPosition="10.5" Velocity="0" />
      <note Length="0.03125" Pitch="38" RiffPosition="10.53125" Velocity="105" />
      <note Length="0.03125" Pitch="38" RiffPosition="10.5625" Velocity="0" />
      <note Length="0.03125" Pitch="38" RiffPosition="10.59375" Velocity="105" />
      <note Length="0.03125" Pitch="38" RiffPosition="10.625" Velocity="0" />
      <note Length="0.03125" Pitch="38" RiffPosition="10.65625" Velocity="105" />
      <note Length="0.03125" Pitch="38" RiffPosition="10.6875" Velocity="0" />
      <note Length="0.03125" Pitch="38" RiffPosition="10.71875" Velocity="105" />
      <note Length="0.03125" Pitch="38" RiffPosition="10.75" Velocity="0" />
      <note Length="0.03125" Pitch="38" RiffPosition="10.78125" Velocity="105" />
      <note Length="0.03125" Pitch="38" RiffPosition="10.8125" Velocity="0" />
      <note Length="0.03125" Pitch="38" RiffPosition="10.84375" Velocity="105" />
      <note Length="0.03125" Pitch="38" RiffPosition="10.875" Velocity="0" />
      <note Length="0.03125" Pitch="38" RiffPosition="10.90625" Velocity="105" />
      <note Length="0.03125" Pitch="38" RiffPosition="10.9375" Velocity="0" />
      <note Length="0.03125" Pitch="38" RiffPosition="10.96875" Velocity="105" />
      <note Length="0.03125" Pitch="38" RiffPosition="11" Velocity="0" />
      <note Length="0.03125" Pitch="38" RiffPosition="11.03125" Velocity="105" />
      <note Length="0.03125" Pitch="38" RiffPosition="11.0625" Velocity="0" />
      <note Length="0.03125" Pitch="38" RiffPosition="11.09375" Velocity="105" />
      <note Length="0.03125" Pitch="38" RiffPosition="11.125" Velocity="0" />
      <note Length="0.03125" Pitch="38" RiffPosition="11.15625" Velocity="105" />
      <note Length="0.03125" Pitch="38" RiffPosition="11.1875" Velocity="0" />
      <note Length="0.03125" Pitch="38" RiffPosition="11.21875" Velocity="105" />
      <note Length="0.03125" Pitch="38" RiffPosition="11.25" Velocity="0" />
      <note Length="0.03125" Pitch="38" RiffPosition="11.28125" Velocity="105" />
      <note Length="0.03125" Pitch="38" RiffPosition="11.3125" Velocity="0" />
      <note Length="0.03125" Pitch="38" RiffPosition="11.34375" Velocity="105" />
      <note Length="0.03125" Pitch="38" RiffPosition="11.375" Velocity="0" />
      <note Length="0.03125" Pitch="38" RiffPosition="11.40625" Velocity="105" />
      <note Length="0.03125" Pitch="38" RiffPosition="11.4375" Velocity="0" />
      <note Length="0.03125" Pitch="38" RiffPosition="11.46875" Velocity="105" />
      <note Length="0.03125" Pitch="38" RiffPosition="11.5" Velocity="0" />
      <note Length="0.03125" Pitch="38" RiffPosition="11.53125" Velocity="105" />
      <note Length="0.03125" Pitch="38" RiffPosition="11.5625" Velocity="0" />
      <note Length="0.03125" Pitch="38" RiffPosition="11.59375" Velocity="105" />
      <note Length="0.03125" Pitch="38" RiffPosition="11.625" Velocity="0" />
      <note Length="0.03125" Pitch="38" RiffPosition="11.65625" Velocity="105" />
      <note Length="0.03125" Pitch="38" RiffPosition="11.6875" Velocity="0" />
      <note Length="0.03125" Pitch="38" RiffPosition="11.71875" Velocity="105" />
      <note Length="0.03125" Pitch="38" RiffPosition="11.75" Velocity="0" />
      <note Length="0.03125" Pitch="38" RiffPosition="11.78125" Velocity="105" />
      <note Length="0.03125" Pitch="38" RiffPosition="11.8125" Velocity="0" />
      <note Length="0.03125" Pitch="38" RiffPosition="11.84375" Velocity="105" />
      <note Length="0.03125" Pitch="38" RiffPosition="11.875" Velocity="0" />
      <note Length="0.03125" Pitch="38" RiffPosition="11.90625" Velocity="105" />
      <note Length="0.03125" Pitch="38" RiffPosition="11.9375" Velocity="0" />
      <note Length="0.03125" Pitch="38" RiffPosition="11.96875" Velocity="105" />
      <note Length="0.03125" Pitch="38" RiffPosition="12" Velocity="0" />
      <note Length="0.03125" Pitch="38" RiffPosition="12.03125" Velocity="0" />
      <note Length="0.03125" Pitch="38" RiffPosition="12.0625" Velocity="0" />
      <note Length="0.03125" Pitch="38" RiffPosition="12.09375" Velocity="0" />
      <note Length="0.03125" Pitch="38" RiffPosition="12.125" Velocity="0" />
      <note Length="0.03125" Pitch="38" RiffPosition="12.15625" Velocity="0" />
      <note Length="0.03125" Pitch="38" RiffPosition="12.1875" Velocity="0" />
      <note Length="0.03125" Pitch="38" RiffPosition="12.21875" Velocity="0" />
      <note Length="0.03125" Pitch="38" RiffPosition="12.25" Velocity="0" />
      <note Length="0.03125" Pitch="38" RiffPosition="12.28125" Velocity="0" />
      <note Length="0.03125" Pitch="38" RiffPosition="12.3125" Velocity="0" />
      <note Length="0.03125" Pitch="38" RiffPosition="12.34375" Velocity="0" />
      <note Length="0.03125" Pitch="38" RiffPosition="12.375" Velocity="0" />
      <note Length="0.03125" Pitch="38" RiffPosition="12.40625" Velocity="0" />
      <note Length="0.03125" Pitch="38" RiffPosition="12.4375" Velocity="0" />
      <note Length="0.03125" Pitch="38" RiffPosition="12.46875" Velocity="0" />
      <note Length="0.03125" Pitch="38" RiffPosition="12.5" Velocity="0" />
      <note Length="0.03125" Pitch="38" RiffPosition="12.53125" Velocity="0" />
      <note Length="0.03125" Pitch="38" RiffPosition="12.5625" Velocity="0" />
      <note Length="0.03125" Pitch="38" RiffPosition="12.59375" Velocity="0" />
      <note Length="0.03125" Pitch="38" RiffPosition="12.625" Velocity="0" />
      <note Length="0.03125" Pitch="38" RiffPosition="12.65625" Velocity="0" />
      <note Length="0.03125" Pitch="38" RiffPosition="12.6875" Velocity="0" />
      <note Length="0.03125" Pitch="38" RiffPosition="12.71875" Velocity="0" />
      <note Length="0.03125" Pitch="38" RiffPosition="12.75" Velocity="0" />
      <note Length="0.03125" Pitch="38" RiffPosition="12.78125" Velocity="0" />
      <note Length="0.03125" Pitch="38" RiffPosition="12.8125" Velocity="0" />
      <note Length="0.03125" Pitch="38" RiffPosition="12.84375" Velocity="0" />
      <note Length="0.03125" Pitch="38" RiffPosition="12.875" Velocity="0" />
      <note Length="0.03125" Pitch="38" RiffPosition="12.90625" Velocity="0" />
      <note Length="0.03125" Pitch="38" RiffPosition="12.9375" Velocity="0" />
      <note Length="0.03125" Pitch="38" RiffPosition="12.96875" Velocity="0" />
      <note Length="0.03125" Pitch="38" RiffPosition="13" Velocity="0" />
      <note Length="0.03125" Pitch="38" RiffPosition="13.03125" Velocity="0" />
      <note Length="0.03125" Pitch="38" RiffPosition="13.0625" Velocity="0" />
      <note Length="0.03125" Pitch="38" RiffPosition="13.09375" Velocity="0" />
      <note Length="0.03125" Pitch="38" RiffPosition="13.125" Velocity="0" />
      <note Length="0.03125" Pitch="38" RiffPosition="13.15625" Velocity="0" />
      <note Length="0.03125" Pitch="38" RiffPosition="13.1875" Velocity="0" />
      <note Length="0.03125" Pitch="38" RiffPosition="13.21875" Velocity="0" />
      <note Length="0.03125" Pitch="38" RiffPosition="13.25" Velocity="0" />
      <note Length="0.03125" Pitch="38" RiffPosition="13.28125" Velocity="0" />
      <note Length="0.03125" Pitch="38" RiffPosition="13.3125" Velocity="0" />
      <note Length="0.03125" Pitch="38" RiffPosition="13.34375" Velocity="0" />
      <note Length="0.03125" Pitch="38" RiffPosition="13.375" Velocity="0" />
      <note Length="0.03125" Pitch="38" RiffPosition="13.40625" Velocity="0" />
      <note Length="0.03125" Pitch="38" RiffPosition="13.4375" Velocity="0" />
      <note Length="0.03125" Pitch="38" RiffPosition="13.46875" Velocity="0" />
      <note Length="0.03125" Pitch="38" RiffPosition="13.5" Velocity="0" />
      <note Length="0.03125" Pitch="38" RiffPosition="13.53125" Velocity="0" />
      <note Length="0.03125" Pitch="38" RiffPosition="13.5625" Velocity="0" />
      <note Length="0.03125" Pitch="38" RiffPosition="13.59375" Velocity="0" />
      <note Length="0.03125" Pitch="38" RiffPosition="13.625" Velocity="0" />
      <note Length="0.03125" Pitch="38" RiffPosition="13.65625" Velocity="0" />
      <note Length="0.03125" Pitch="38" RiffPosition="13.6875" Velocity="0" />
      <note Length="0.03125" Pitch="38" RiffPosition="13.71875" Velocity="0" />
      <note Length="0.03125" Pitch="38" RiffPosition="13.75" Velocity="0" />
      <note Length="0.03125" Pitch="38" RiffPosition="13.78125" Velocity="0" />
      <note Length="0.03125" Pitch="38" RiffPosition="13.8125" Velocity="0" />
      <note Length="0.03125" Pitch="38" RiffPosition="13.84375" Velocity="0" />
      <note Length="0.03125" Pitch="38" RiffPosition="13.875" Velocity="0" />
      <note Length="0.03125" Pitch="38" RiffPosition="13.90625" Velocity="0" />
      <note Length="0.03125" Pitch="38" RiffPosition="13.9375" Velocity="0" />
      <note Length="0.03125" Pitch="38" RiffPosition="13.96875" Velocity="0" />
    </riff>
  </riffPack>
  <lyrics>
    <line>****** ****** ****** ******</line>
    <line>****** ****** ****** ******</line>
    <line>the seed born of ancient philosophy</line>
    <line>the bourgeois conception of democracy</line>
    <line>no time passed, our victory is eternal</line>
    <line>dark scenarios constructed on fates dime</line>
    <line>universal chaos in the realm of time</line>
    <line>you don't know now but that's the plan</line>
    <line>the sirens howl a short infinity</line>
    <line>the youth to the textbook wasteland</line>
    <line>universal chaos in the realm of time</line>
    <line>you don't know now but that's the plan</line>
    <line>no tomorrow will ease my oppression</line>
    <line>blamed, i'm paying for a wrong decision</line>
    <line>universal chaos in the realm of time</line>
    <line>you don't know now but that's the plan</line>
    <line>****** ****** ****** ******</line>
    <line>****** ****** ****** ******</line>
    <line>rich man, poor man, read the headlines</line>
    <line>i have become the ruler of the afterlife</line>
    <line>do you feel destiny or are you lying,</line>
    <line>we hold our rebel banners up with pride</line>
    <line>universal chaos in the realm of time</line>
    <line>you don't know now but that's the plan</line>
    <line>universal chaos in the realm of time</line>
    <line>you don't know now but that's the plan</line>
    <line>your revolution will not be televised</line>
    <line>****** ****** ****** ******</line>
    <line>****** ****** ****** ******</line>
    <line>****** ****** ****** ******</line>
    <line>****** ****** ****** ******</line>
    <line>****** ****** ****** ******</line>
  </lyrics>
  <lyricsSongFactoryCollection LanguageCode="en">
    <lyricSongFactory BarCount="32" BarCountPerChorus="2">
      <barInfo>
        <bar Intensity="0" LetterCount="37" />
        <bar Intensity="0" LetterCount="16" />
        <bar Intensity="0.5176471" LetterCount="37" />
        <bar Intensity="0.5294118" LetterCount="37" />
        <bar Intensity="0.5411765" LetterCount="37" />
        <bar Intensity="0.5411765" LetterCount="37" />
        <bar Intensity="1" LetterCount="37" />
        <bar Intensity="1" LetterCount="37" />
        <bar Intensity="0.4823529" LetterCount="37" />
        <bar Intensity="0.4705882" LetterCount="37" />
        <bar Intensity="1" LetterCount="37" />
        <bar Intensity="1" LetterCount="37" />
        <bar Intensity="0.4941176" LetterCount="37" />
        <bar Intensity="0.4470588" LetterCount="37" />
        <bar Intensity="1" LetterCount="37" />
        <bar Intensity="1" LetterCount="37" />
        <bar Intensity="0" LetterCount="37" />
        <bar Intensity="0" LetterCount="37" />
        <bar Intensity="0.4588235" LetterCount="37" />
        <bar Intensity="0.4588235" LetterCount="37" />
        <bar Intensity="0.4705882" LetterCount="37" />
        <bar Intensity="0.4470588" LetterCount="37" />
        <bar Intensity="1" LetterCount="37" />
        <bar Intensity="1" LetterCount="37" />
        <bar Intensity="1" LetterCount="37" />
        <bar Intensity="1" LetterCount="37" />
        <bar Intensity="0.4352941" LetterCount="37" />
        <bar Intensity="0" LetterCount="37" />
        <bar Intensity="0" LetterCount="37" />
        <bar Intensity="0" LetterCount="37" />
        <bar Intensity="0" LetterCount="37" />
        <bar Intensity="0" LetterCount="37" />
      </barInfo>
      <themeList>
        <theme>philosophy</theme>
        <theme>activism</theme>
        <theme>metaphysics</theme>
      </themeList>
      <themeBlackList />
    </lyricSongFactory>
    <lyricSongFactory BarCount="26" BarCountPerChorus="2">
      <barInfo>
        <bar Intensity="0" LetterCount="16" />
        <bar Intensity="0" LetterCount="16" />
        <bar Intensity="0" LetterCount="16" />
        <bar Intensity="0" LetterCount="16" />
        <bar Intensity="0" LetterCount="16" />
        <bar Intensity="0" LetterCount="16" />
        <bar Intensity="0" LetterCount="16" />
        <bar Intensity="0" LetterCount="16" />
        <bar Intensity="0" LetterCount="16" />
        <bar Intensity="0" LetterCount="16" />
        <bar Intensity="0" LetterCount="16" />
        <bar Intensity="0" LetterCount="16" />
        <bar Intensity="0" LetterCount="16" />
        <bar Intensity="0" LetterCount="16" />
        <bar Intensity="0" LetterCount="16" />
        <bar Intensity="0" LetterCount="16" />
        <bar Intensity="0" LetterCount="16" />
        <bar Intensity="0" LetterCount="16" />
        <bar Intensity="0" LetterCount="16" />
        <bar Intensity="0" LetterCount="16" />
        <bar Intensity="0" LetterCount="16" />
        <bar Intensity="0" LetterCount="16" />
        <bar Intensity="0" LetterCount="16" />
        <bar Intensity="0" LetterCount="16" />
        <bar Intensity="0" LetterCount="16" />
        <bar Intensity="0" LetterCount="16" />
      </barInfo>
      <themeList>
        <theme>racism</theme>
        <theme>racism</theme>
      </themeList>
      <themeBlackList />
    </lyricSongFactory>
  </lyricsSongFactoryCollection>
  <predefinedGenerator BarCount="26" IsOverrideScale="True" IsOverrideTempo="True" Modulation="0.28" ScaleName="minorPentatonic" Tempo="94" LyricsToMusicPhase="0">
    <predefinedGeneratorTrack MetaRiffPackName="DrumChromaticTerminator">
      <barInfo isOn="False" />
      <barInfo isOn="True" />
      <barInfo isOn="True" />
      <barInfo isOn="True" />
      <barInfo isOn="False" />
      <barInfo isOn="False" />
      <barInfo isOn="True" />
      <barInfo isOn="True" />
      <barInfo isOn="True" />
      <barInfo isOn="True" />
      <barInfo isOn="True" />
      <barInfo isOn="True" />
      <barInfo isOn="True" />
      <barInfo isOn="True" />
      <barInfo isOn="False" />
      <barInfo isOn="False" />
      <barInfo isOn="False" />
      <barInfo isOn="False" />
      <barInfo isOn="False" />
      <barInfo isOn="False" />
      <barInfo isOn="False" />
      <barInfo isOn="False" />
      <barInfo isOn="False" />
      <barInfo isOn="False" />
      <barInfo isOn="False" />
      <barInfo isOn="False" />
      <barInfo isOn="False" />
      <barInfo isOn="False" />
      <barInfo isOn="False" />
      <barInfo isOn="False" />
      <barInfo isOn="False" />
      <barInfo isOn="False" />
    </predefinedGeneratorTrack>
    <predefinedGeneratorTrack MetaRiffPackName="DrumSnareQuad">
      <barInfo isOn="True" />
      <barInfo isOn="True" />
      <barInfo isOn="True" />
      <barInfo isOn="True" />
      <barInfo isOn="False" />
      <barInfo isOn="False" />
      <barInfo isOn="False" />
      <barInfo isOn="False" />
      <barInfo isOn="False" />
      <barInfo isOn="False" />
      <barInfo isOn="False" />
      <barInfo isOn="False" />
      <barInfo isOn="False" />
      <barInfo isOn="False" />
      <barInfo isOn="False" />
      <barInfo isOn="False" />
      <barInfo isOn="False" />
      <barInfo isOn="False" />
      <barInfo isOn="False" />
      <barInfo isOn="False" />
      <barInfo isOn="False" />
      <barInfo isOn="False" />
      <barInfo isOn="False" />
      <barInfo isOn="False" />
      <barInfo isOn="False" />
      <barInfo isOn="False" />
      <barInfo isOn="False" />
      <barInfo isOn="False" />
      <barInfo isOn="False" />
      <barInfo isOn="False" />
      <barInfo isOn="False" />
      <barInfo isOn="False" />
    </predefinedGeneratorTrack>
    <predefinedGeneratorTrack MetaRiffPackName="BassSynth">
      <barInfo isOn="False" />
      <barInfo isOn="False" />
      <barInfo isOn="False" />
      <barInfo isOn="False" />
      <barInfo isOn="True" />
      <barInfo isOn="True" />
      <barInfo isOn="True" />
      <barInfo isOn="True" />
      <barInfo isOn="True" />
      <barInfo isOn="True" />
      <barInfo isOn="True" />
      <barInfo isOn="True" />
      <barInfo isOn="False" />
      <barInfo isOn="False" />
      <barInfo isOn="False" />
      <barInfo isOn="False" />
      <barInfo isOn="False" />
      <barInfo isOn="False" />
      <barInfo isOn="False" />
      <barInfo isOn="False" />
      <barInfo isOn="False" />
      <barInfo isOn="False" />
      <barInfo isOn="False" />
      <barInfo isOn="False" />
      <barInfo isOn="False" />
      <barInfo isOn="False" />
      <barInfo isOn="False" />
      <barInfo isOn="False" />
      <barInfo isOn="False" />
      <barInfo isOn="False" />
      <barInfo isOn="False" />
      <barInfo isOn="False" />
    </predefinedGeneratorTrack>
    <predefinedGeneratorTrack MetaRiffPackName="Pad">
      <barInfo isOn="True" />
      <barInfo isOn="True" />
      <barInfo isOn="True" />
      <barInfo isOn="True" />
      <barInfo isOn="False" />
      <barInfo isOn="False" />
      <barInfo isOn="False" />
      <barInfo isOn="False" />
      <barInfo isOn="False" />
      <barInfo isOn="False" />
      <barInfo isOn="True" />
      <barInfo isOn="True" />
      <barInfo isOn="False" />
      <barInfo isOn="False" />
      <barInfo isOn="False" />
      <barInfo isOn="False" />
      <barInfo isOn="False" />
      <barInfo isOn="False" />
      <barInfo isOn="False" />
      <barInfo isOn="False" />
      <barInfo isOn="False" />
      <barInfo isOn="False" />
      <barInfo isOn="False" />
      <barInfo isOn="False" />
      <barInfo isOn="False" />
      <barInfo isOn="False" />
      <barInfo isOn="False" />
      <barInfo isOn="False" />
      <barInfo isOn="False" />
      <barInfo isOn="False" />
      <barInfo isOn="False" />
      <barInfo isOn="False" />
    </predefinedGeneratorTrack>
    <predefinedGeneratorTrack MetaRiffPackName="Harpsichord">
      <barInfo isOn="True" />
      <barInfo isOn="True" />
      <barInfo isOn="True" />
      <barInfo isOn="True" />
      <barInfo isOn="True" />
      <barInfo isOn="True" />
      <barInfo isOn="True" />
      <barInfo isOn="True" />
      <barInfo isOn="False" />
      <barInfo isOn="False" />
      <barInfo isOn="False" />
      <barInfo isOn="False" />
      <barInfo isOn="True" />
      <barInfo isOn="True" />
      <barInfo isOn="False" />
      <barInfo isOn="False" />
      <barInfo isOn="False" />
      <barInfo isOn="False" />
      <barInfo isOn="False" />
      <barInfo isOn="False" />
      <barInfo isOn="False" />
      <barInfo isOn="False" />
      <barInfo isOn="False" />
      <barInfo isOn="False" />
      <barInfo isOn="False" />
      <barInfo isOn="False" />
      <barInfo isOn="False" />
      <barInfo isOn="False" />
      <barInfo isOn="False" />
      <barInfo isOn="False" />
      <barInfo isOn="False" />
      <barInfo isOn="False" />
    </predefinedGeneratorTrack>
    <predefinedGeneratorTrack MetaRiffPackName="PianoClassic">
      <barInfo isOn="False" />
      <barInfo isOn="False" />
      <barInfo isOn="False" />
      <barInfo isOn="False" />
      <barInfo isOn="False" />
      <barInfo isOn="False" />
      <barInfo isOn="False" />
      <barInfo isOn="False" />
      <barInfo isOn="True" />
      <barInfo isOn="True" />
      <barInfo isOn="True" />
      <barInfo isOn="True" />
      <barInfo isOn="False" />
      <barInfo isOn="False" />
      <barInfo isOn="False" />
      <barInfo isOn="False" />
      <barInfo isOn="False" />
      <barInfo isOn="False" />
      <barInfo isOn="False" />
      <barInfo isOn="False" />
      <barInfo isOn="False" />
      <barInfo isOn="False" />
      <barInfo isOn="False" />
      <barInfo isOn="False" />
      <barInfo isOn="False" />
      <barInfo isOn="False" />
      <barInfo isOn="False" />
      <barInfo isOn="False" />
      <barInfo isOn="False" />
      <barInfo isOn="False" />
      <barInfo isOn="False" />
      <barInfo isOn="False" />
    </predefinedGeneratorTrack>
    <predefinedGeneratorTrack MetaRiffPackName="DrumSnareOcta">
      <barInfo isOn="False" />
      <barInfo isOn="False" />
      <barInfo isOn="False" />
      <barInfo isOn="False" />
      <barInfo isOn="False" />
      <barInfo isOn="False" />
      <barInfo isOn="False" />
      <barInfo isOn="False" />
      <barInfo isOn="True" />
      <barInfo isOn="True" />
      <barInfo isOn="True" />
      <barInfo isOn="True" />
      <barInfo isOn="False" />
      <barInfo isOn="False" />
      <barInfo isOn="False" />
      <barInfo isOn="False" />
      <barInfo isOn="False" />
      <barInfo isOn="False" />
      <barInfo isOn="False" />
      <barInfo isOn="False" />
      <barInfo isOn="False" />
      <barInfo isOn="False" />
      <barInfo isOn="False" />
      <barInfo isOn="False" />
      <barInfo isOn="False" />
      <barInfo isOn="False" />
      <barInfo isOn="False" />
      <barInfo isOn="False" />
      <barInfo isOn="False" />
      <barInfo isOn="False" />
      <barInfo isOn="False" />
      <barInfo isOn="False" />
    </predefinedGeneratorTrack>
  </predefinedGenerator>
</song>