<?xml version="1.0" encoding="UTF-8"?>
<song>
  <riffPack Tempo="82">
    <riff IsDrum="False" MidiInstrument="0" Tempo="90" Length="14">
      <note Length="0.03125" Pitch="77" RiffPosition="0" Velocity="52" />
      <note Length="0.03125" Pitch="80" RiffPosition="0.03125" Velocity="35" />
      <note Length="0.0078125" Pitch="70" RiffPosition="0.0625" Velocity="35" />
      <note Length="0.0234375" Pitch="61" RiffPosition="0.0703125" Velocity="40" />
      <note Length="0.015625" Pitch="49" RiffPosition="0.09375" Velocity="54" />
      <note Length="0.015625" Pitch="41" RiffPosition="0.109375" Velocity="60" />
      <note Length="0.0625" Pitch="44" RiffPosition="0.125" Velocity="65" />
      <note Length="0.015625" Pitch="53" RiffPosition="0.1875" Velocity="63" />
      <note Length="0.015625" Pitch="82" RiffPosition="0.203125" Velocity="57" />
      <note Length="0.03125" Pitch="77" RiffPosition="0.21875" Velocity="42" />
      <note Length="0.046875" Pitch="82" RiffPosition="0.25" Velocity="21" />
      <note Length="0.015625" Pitch="53" RiffPosition="0.296875" Velocity="25" />
      <note Length="0.03125" Pitch="67" RiffPosition="0.3125" Velocity="23" />
      <note Length="0.03125" Pitch="46" RiffPosition="0.34375" Velocity="36" />
      <note Length="0.046875" Pitch="41" RiffPosition="0.375" Velocity="41" />
      <note Length="0.015625" Pitch="68" RiffPosition="0.421875" Velocity="28" />
      <note Length="0.0234375" Pitch="61" RiffPosition="0.4375" Velocity="51" />
      <note Length="0.0078125" Pitch="82" RiffPosition="0.4609375" Velocity="75" />
      <note Length="0.03125" Pitch="84" RiffPosition="0.46875" Velocity="80" />
      <note Length="0.03125" Pitch="79" RiffPosition="0.5" Velocity="94" />
      <note Length="0.03125" Pitch="77" RiffPosition="0.53125" Velocity="101" />
      <note Length="0.0078125" Pitch="53" RiffPosition="0.5625" Velocity="72" />
      <note Length="0.0234375" Pitch="65" RiffPosition="0.5703125" Velocity="63" />
      <note Length="0.015625" Pitch="43" RiffPosition="0.59375" Velocity="32" />
      <note Length="0.015625" Pitch="46" RiffPosition="0.609375" Velocity="31" />
      <note Length="0.0625" Pitch="49" RiffPosition="0.625" Velocity="56" />
      <note Length="0.015625" Pitch="67" RiffPosition="0.6875" Velocity="123" />
      <note Length="0.015625" Pitch="65" RiffPosition="0.703125" Velocity="125" />
      <note Length="0.03125" Pitch="80" RiffPosition="0.71875" Velocity="111" />
      <note Length="0.046875" Pitch="77" RiffPosition="0.75" Velocity="74" />
      <note Length="0.015625" Pitch="68" RiffPosition="0.796875" Velocity="22" />
      <note Length="0.03125" Pitch="61" RiffPosition="0.8125" Velocity="35" />
      <note Length="0.03125" Pitch="41" RiffPosition="0.84375" Velocity="56" />
      <note Length="0.046875" Pitch="46" RiffPosition="0.875" Velocity="68" />
      <note Length="0.015625" Pitch="53" RiffPosition="0.921875" Velocity="79" />
      <note Length="0.0234375" Pitch="65" RiffPosition="0.9375" Velocity="86" />
      <note Length="0.0078125" Pitch="77" RiffPosition="0.9609375" Velocity="81" />
      <note Length="0.03125" Pitch="77" RiffPosition="0.96875" Velocity="75" />
      <note Length="0.03125" Pitch="84" RiffPosition="1" Velocity="52" />
      <note Length="0.03125" Pitch="79" RiffPosition="1,03125" Velocity="35" />
      <note Length="0.0078125" Pitch="68" RiffPosition="1,0625" Velocity="35" />
      <note Length="0.0234375" Pitch="70" RiffPosition="1,0703125" Velocity="40" />
      <note Length="0.015625" Pitch="48" RiffPosition="1,09375" Velocity="54" />
      <note Length="0.015625" Pitch="41" RiffPosition="1,109375" Velocity="60" />
      <note Length="0.0625" Pitch="43" RiffPosition="1,125" Velocity="65" />
      <note Length="0.015625" Pitch="61" RiffPosition="1,1875" Velocity="63" />
      <note Length="0.015625" Pitch="80" RiffPosition="1,203125" Velocity="57" />
      <note Length="0.03125" Pitch="77" RiffPosition="1,21875" Velocity="42" />
      <note Length="0.046875" Pitch="80" RiffPosition="1,25" Velocity="21" />
      <note Length="0.015625" Pitch="53" RiffPosition="1,296875" Velocity="25" />
      <note Length="0.03125" Pitch="65" RiffPosition="1,3125" Velocity="23" />
      <note Length="0.03125" Pitch="44" RiffPosition="1,34375" Velocity="36" />
      <note Length="0.046875" Pitch="41" RiffPosition="1,375" Velocity="41" />
      <note Length="0.015625" Pitch="65" RiffPosition="1,421875" Velocity="28" />
      <note Length="0.0234375" Pitch="70" RiffPosition="1,4375" Velocity="51" />
      <note Length="0.0078125" Pitch="80" RiffPosition="1,4609375" Velocity="75" />
      <note Length="0.03125" Pitch="82" RiffPosition="1,46875" Velocity="80" />
      <note Length="0.03125" Pitch="77" RiffPosition="1,5" Velocity="94" />
      <note Length="0.03125" Pitch="77" RiffPosition="1,53125" Velocity="101" />
      <note Length="0.0078125" Pitch="53" RiffPosition="1,5625" Velocity="72" />
      <note Length="0.0234375" Pitch="53" RiffPosition="1,5703125" Velocity="63" />
      <note Length="0.015625" Pitch="41" RiffPosition="1,59375" Velocity="32" />
      <note Length="0.015625" Pitch="44" RiffPosition="1,609375" Velocity="31" />
      <note Length="0.0625" Pitch="48" RiffPosition="1,625" Velocity="56" />
      <note Length="0.015625" Pitch="65" RiffPosition="1,6875" Velocity="123" />
      <note Length="0.015625" Pitch="77" RiffPosition="1,703125" Velocity="125" />
      <note Length="0.03125" Pitch="77" RiffPosition="1,71875" Velocity="111" />
      <note Length="0.046875" Pitch="77" RiffPosition="1,75" Velocity="74" />
      <note Length="0.015625" Pitch="65" RiffPosition="1,796875" Velocity="22" />
      <note Length="0.03125" Pitch="70" RiffPosition="1,8125" Velocity="35" />
      <note Length="0.03125" Pitch="49" RiffPosition="1,84375" Velocity="56" />
      <note Length="0.046875" Pitch="44" RiffPosition="1,875" Velocity="68" />
      <note Length="0.015625" Pitch="60" RiffPosition="1,921875" Velocity="79" />
      <note Length="0.0234375" Pitch="53" RiffPosition="1,9375" Velocity="86" />
      <note Length="0.0078125" Pitch="77" RiffPosition="1,9609375" Velocity="81" />
      <note Length="0.03125" Pitch="77" RiffPosition="1,96875" Velocity="75" />
      <note Length="0.03125" Pitch="82" RiffPosition="2" Velocity="52" />
      <note Length="0.03125" Pitch="77" RiffPosition="2.03125" Velocity="35" />
      <note Length="0.0078125" Pitch="67" RiffPosition="2.0625" Velocity="35" />
      <note Length="0.0234375" Pitch="68" RiffPosition="2.0703125" Velocity="40" />
      <note Length="0.015625" Pitch="46" RiffPosition="2.09375" Velocity="54" />
      <note Length="0.015625" Pitch="49" RiffPosition="2.109375" Velocity="60" />
      <note Length="0.0625" Pitch="41" RiffPosition="2.125" Velocity="65" />
      <note Length="0.015625" Pitch="60" RiffPosition="2.1875" Velocity="63" />
      <note Length="0.015625" Pitch="79" RiffPosition="2.203125" Velocity="57" />
      <note Length="0.03125" Pitch="82" RiffPosition="2.21875" Velocity="42" />
      <note Length="0.046875" Pitch="77" RiffPosition="2.25" Velocity="21" />
      <note Length="0.015625" Pitch="60" RiffPosition="2.296875" Velocity="25" />
      <note Length="0.03125" Pitch="53" RiffPosition="2.3125" Velocity="23" />
      <note Length="0.03125" Pitch="55" RiffPosition="2.34375" Velocity="36" />
      <note Length="0.046875" Pitch="49" RiffPosition="2.375" Velocity="41" />
      <note Length="0.015625" Pitch="65" RiffPosition="2.421875" Velocity="28" />
      <note Length="0.0234375" Pitch="68" RiffPosition="2.4375" Velocity="51" />
      <note Length="0.0078125" Pitch="79" RiffPosition="2.4609375" Velocity="75" />
      <note Length="0.03125" Pitch="80" RiffPosition="2.46875" Velocity="80" />
      <note Length="0.03125" Pitch="77" RiffPosition="2.5" Velocity="94" />
      <note Length="0.03125" Pitch="82" RiffPosition="2.53125" Velocity="101" />
      <note Length="0.0078125" Pitch="61" RiffPosition="2.5625" Velocity="72" />
      <note Length="0.0234375" Pitch="53" RiffPosition="2.5703125" Velocity="63" />
      <note Length="0.015625" Pitch="41" RiffPosition="2.59375" Velocity="32" />
      <note Length="0.015625" Pitch="43" RiffPosition="2.609375" Velocity="31" />
      <note Length="0.0625" Pitch="46" RiffPosition="2.625" Velocity="56" />
      <note Length="0.015625" Pitch="53" RiffPosition="2.6875" Velocity="123" />
      <note Length="0.015625" Pitch="77" RiffPosition="2.703125" Velocity="125" />
      <note Length="0.03125" Pitch="65" RiffPosition="2.71875" Velocity="111" />
      <note Length="0.046875" Pitch="82" RiffPosition="2.75" Velocity="74" />
      <note Length="0.015625" Pitch="65" RiffPosition="2.796875" Velocity="22" />
      <note Length="0.03125" Pitch="68" RiffPosition="2.8125" Velocity="35" />
      <note Length="0.03125" Pitch="48" RiffPosition="2.84375" Velocity="56" />
      <note Length="0.046875" Pitch="43" RiffPosition="2.875" Velocity="68" />
      <note Length="0.015625" Pitch="70" RiffPosition="2.921875" Velocity="79" />
      <note Length="0.0234375" Pitch="53" RiffPosition="2.9375" Velocity="86" />
      <note Length="0.0078125" Pitch="84" RiffPosition="2.9609375" Velocity="81" />
      <note Length="0.03125" Pitch="77" RiffPosition="2.96875" Velocity="75" />
      <note Length="0.03125" Pitch="80" RiffPosition="3" Velocity="52" />
      <note Length="0.03125" Pitch="77" RiffPosition="3.03125" Velocity="35" />
      <note Length="0.0078125" Pitch="65" RiffPosition="3.0625" Velocity="35" />
      <note Length="0.0234375" Pitch="67" RiffPosition="3.0703125" Velocity="40" />
      <note Length="0.015625" Pitch="44" RiffPosition="3.09375" Velocity="54" />
      <note Length="0.015625" Pitch="48" RiffPosition="3.109375" Velocity="60" />
      <note Length="0.0625" Pitch="41" RiffPosition="3.125" Velocity="65" />
      <note Length="0.015625" Pitch="68" RiffPosition="3.1875" Velocity="63" />
      <note Length="0.015625" Pitch="77" RiffPosition="3.203125" Velocity="57" />
      <note Length="0.03125" Pitch="80" RiffPosition="3.21875" Velocity="42" />
      <note Length="0.046875" Pitch="65" RiffPosition="3.25" Velocity="21" />
      <note Length="0.015625" Pitch="70" RiffPosition="3.296875" Velocity="25" />
      <note Length="0.03125" Pitch="53" RiffPosition="3.3125" Velocity="23" />
      <note Length="0.03125" Pitch="41" RiffPosition="3.34375" Velocity="36" />
      <note Length="0.046875" Pitch="48" RiffPosition="3.375" Velocity="41" />
      <note Length="0.015625" Pitch="53" RiffPosition="3.421875" Velocity="28" />
      <note Length="0.0234375" Pitch="65" RiffPosition="3.4375" Velocity="51" />
      <note Length="0.0078125" Pitch="77" RiffPosition="3.4609375" Velocity="75" />
      <note Length="0.03125" Pitch="79" RiffPosition="3.46875" Velocity="80" />
      <note Length="0.03125" Pitch="77" RiffPosition="3.5" Velocity="94" />
      <note Length="0.03125" Pitch="80" RiffPosition="3.53125" Velocity="101" />
      <note Length="0.0078125" Pitch="70" RiffPosition="3.5625" Velocity="72" />
      <note Length="0.0234375" Pitch="61" RiffPosition="3.5703125" Velocity="63" />
      <note Length="0.015625" Pitch="49" RiffPosition="3.59375" Velocity="32" />
      <note Length="0.015625" Pitch="41" RiffPosition="3.609375" Velocity="31" />
      <note Length="0.0625" Pitch="44" RiffPosition="3.625" Velocity="56" />
      <note Length="0.015625" Pitch="53" RiffPosition="3.6875" Velocity="123" />
      <note Length="0.015625" Pitch="82" RiffPosition="3.703125" Velocity="125" />
      <note Length="0.03125" Pitch="77" RiffPosition="3.71875" Velocity="111" />
      <note Length="0.046875" Pitch="80" RiffPosition="3.75" Velocity="74" />
      <note Length="0.015625" Pitch="53" RiffPosition="3.796875" Velocity="22" />
      <note Length="0.03125" Pitch="65" RiffPosition="3.8125" Velocity="35" />
      <note Length="0.03125" Pitch="46" RiffPosition="3.84375" Velocity="56" />
      <note Length="0.046875" Pitch="41" RiffPosition="3.875" Velocity="68" />
      <note Length="0.015625" Pitch="68" RiffPosition="3.921875" Velocity="79" />
      <note Length="0.0234375" Pitch="60" RiffPosition="3.9375" Velocity="86" />
      <note Length="0.0078125" Pitch="82" RiffPosition="3.9609375" Velocity="81" />
      <note Length="0.03125" Pitch="84" RiffPosition="3.96875" Velocity="75" />
      <note Length="0.03125" Pitch="79" RiffPosition="4" Velocity="52" />
      <note Length="0.03125" Pitch="77" RiffPosition="4.03125" Velocity="35" />
      <note Length="0.0078125" Pitch="53" RiffPosition="4.0625" Velocity="35" />
      <note Length="0.0234375" Pitch="65" RiffPosition="4.0703125" Velocity="40" />
      <note Length="0.015625" Pitch="55" RiffPosition="4.09375" Velocity="54" />
      <note Length="0.015625" Pitch="46" RiffPosition="4.109375" Velocity="60" />
      <note Length="0.0625" Pitch="49" RiffPosition="4.125" Velocity="65" />
      <note Length="0.015625" Pitch="67" RiffPosition="4.1875" Velocity="63" />
      <note Length="0.015625" Pitch="65" RiffPosition="4.203125" Velocity="57" />
      <note Length="0.03125" Pitch="79" RiffPosition="4.21875" Velocity="42" />
      <note Length="0.046875" Pitch="77" RiffPosition="4.25" Velocity="21" />
      <note Length="0.015625" Pitch="68" RiffPosition="4.296875" Velocity="25" />
      <note Length="0.03125" Pitch="60" RiffPosition="4.3125" Velocity="23" />
      <note Length="0.03125" Pitch="41" RiffPosition="4.34375" Velocity="36" />
      <note Length="0.046875" Pitch="46" RiffPosition="4.375" Velocity="41" />
      <note Length="0.015625" Pitch="53" RiffPosition="4.421875" Velocity="28" />
      <note Length="0.0234375" Pitch="65" RiffPosition="4.4375" Velocity="51" />
      <note Length="0.0078125" Pitch="77" RiffPosition="4.4609375" Velocity="75" />
      <note Length="0.03125" Pitch="77" RiffPosition="4.46875" Velocity="80" />
      <note Length="0.03125" Pitch="84" RiffPosition="4.5" Velocity="94" />
      <note Length="0.03125" Pitch="79" RiffPosition="4.53125" Velocity="101" />
      <note Length="0.0078125" Pitch="68" RiffPosition="4.5625" Velocity="72" />
      <note Length="0.0234375" Pitch="70" RiffPosition="4.5703125" Velocity="63" />
      <note Length="0.015625" Pitch="48" RiffPosition="4.59375" Velocity="32" />
      <note Length="0.015625" Pitch="41" RiffPosition="4.609375" Velocity="31" />
      <note Length="0.0625" Pitch="43" RiffPosition="4.625" Velocity="56" />
      <note Length="0.015625" Pitch="61" RiffPosition="4.6875" Velocity="123" />
      <note Length="0.015625" Pitch="80" RiffPosition="4.703125" Velocity="125" />
      <note Length="0.03125" Pitch="84" RiffPosition="4.71875" Velocity="111" />
      <note Length="0.046875" Pitch="79" RiffPosition="4.75" Velocity="74" />
      <note Length="0.015625" Pitch="53" RiffPosition="4.796875" Velocity="22" />
      <note Length="0.03125" Pitch="65" RiffPosition="4.8125" Velocity="35" />
      <note Length="0.03125" Pitch="44" RiffPosition="4.84375" Velocity="56" />
      <note Length="0.046875" Pitch="41" RiffPosition="4.875" Velocity="68" />
      <note Length="0.015625" Pitch="65" RiffPosition="4.921875" Velocity="79" />
      <note Length="0.0234375" Pitch="70" RiffPosition="4.9375" Velocity="86" />
      <note Length="0.0078125" Pitch="80" RiffPosition="4.9609375" Velocity="81" />
      <note Length="0.03125" Pitch="82" RiffPosition="4.96875" Velocity="75" />
      <note Length="0.03125" Pitch="77" RiffPosition="5" Velocity="52" />
      <note Length="0.03125" Pitch="84" RiffPosition="5.03125" Velocity="35" />
      <note Length="0.0078125" Pitch="53" RiffPosition="5.0625" Velocity="35" />
      <note Length="0.0234375" Pitch="53" RiffPosition="5.0703125" Velocity="40" />
      <note Length="0.015625" Pitch="41" RiffPosition="5.09375" Velocity="54" />
      <note Length="0.015625" Pitch="44" RiffPosition="5.109375" Velocity="60" />
      <note Length="0.0625" Pitch="48" RiffPosition="5.125" Velocity="65" />
      <note Length="0.015625" Pitch="65" RiffPosition="5.1875" Velocity="63" />
      <note Length="0.015625" Pitch="77" RiffPosition="5.203125" Velocity="57" />
      <note Length="0.03125" Pitch="77" RiffPosition="5.21875" Velocity="42" />
      <note Length="0.046875" Pitch="77" RiffPosition="5.25" Velocity="21" />
      <note Length="0.015625" Pitch="65" RiffPosition="5.296875" Velocity="25" />
      <note Length="0.03125" Pitch="70" RiffPosition="5.3125" Velocity="23" />
      <note Length="0.03125" Pitch="49" RiffPosition="5.34375" Velocity="36" />
      <note Length="0.046875" Pitch="44" RiffPosition="5.375" Velocity="41" />
      <note Length="0.015625" Pitch="60" RiffPosition="5.421875" Velocity="28" />
      <note Length="0.0234375" Pitch="53" RiffPosition="5.4375" Velocity="51" />
      <note Length="0.0078125" Pitch="77" RiffPosition="5.4609375" Velocity="75" />
      <note Length="0.03125" Pitch="77" RiffPosition="5.46875" Velocity="80" />
      <note Length="0.03125" Pitch="82" RiffPosition="5.5" Velocity="94" />
      <note Length="0.03125" Pitch="77" RiffPosition="5.53125" Velocity="101" />
      <note Length="0.0078125" Pitch="67" RiffPosition="5.5625" Velocity="72" />
      <note Length="0.0234375" Pitch="68" RiffPosition="5.5703125" Velocity="63" />
      <note Length="0.015625" Pitch="46" RiffPosition="5.59375" Velocity="32" />
      <note Length="0.015625" Pitch="49" RiffPosition="5.609375" Velocity="31" />
      <note Length="0.0625" Pitch="41" RiffPosition="5.625" Velocity="56" />
      <note Length="0.015625" Pitch="60" RiffPosition="5.6875" Velocity="123" />
      <note Length="0.015625" Pitch="79" RiffPosition="5.703125" Velocity="125" />
      <note Length="0.03125" Pitch="82" RiffPosition="5.71875" Velocity="111" />
      <note Length="0.046875" Pitch="77" RiffPosition="5.75" Velocity="74" />
      <note Length="0.015625" Pitch="60" RiffPosition="5.796875" Velocity="22" />
      <note Length="0.03125" Pitch="53" RiffPosition="5.8125" Velocity="35" />
      <note Length="0.03125" Pitch="55" RiffPosition="5.84375" Velocity="56" />
      <note Length="0.046875" Pitch="49" RiffPosition="5.875" Velocity="68" />
      <note Length="0.015625" Pitch="53" RiffPosition="5.921875" Velocity="79" />
      <note Length="0.0234375" Pitch="68" RiffPosition="5.9375" Velocity="86" />
      <note Length="0.0078125" Pitch="79" RiffPosition="5.9609375" Velocity="81" />
      <note Length="0.03125" Pitch="80" RiffPosition="5.96875" Velocity="75" />
      <note Length="0.03125" Pitch="77" RiffPosition="6" Velocity="52" />
      <note Length="0.03125" Pitch="82" RiffPosition="6.03125" Velocity="35" />
      <note Length="0.0078125" Pitch="61" RiffPosition="6.0625" Velocity="35" />
      <note Length="0.0234375" Pitch="53" RiffPosition="6.0703125" Velocity="40" />
      <note Length="0.015625" Pitch="41" RiffPosition="6.09375" Velocity="54" />
      <note Length="0.015625" Pitch="55" RiffPosition="6.109375" Velocity="60" />
      <note Length="0.0625" Pitch="46" RiffPosition="6.125" Velocity="65" />
      <note Length="0.015625" Pitch="53" RiffPosition="6.1875" Velocity="63" />
      <note Length="0.015625" Pitch="84" RiffPosition="6.203125" Velocity="57" />
      <note Length="0.03125" Pitch="65" RiffPosition="6.21875" Velocity="42" />
      <note Length="0.046875" Pitch="82" RiffPosition="6.25" Velocity="21" />
      <note Length="0.015625" Pitch="53" RiffPosition="6.296875" Velocity="25" />
      <note Length="0.03125" Pitch="68" RiffPosition="6.3125" Velocity="23" />
      <note Length="0.03125" Pitch="48" RiffPosition="6.34375" Velocity="36" />
      <note Length="0.046875" Pitch="55" RiffPosition="6.375" Velocity="41" />
      <note Length="0.015625" Pitch="68" RiffPosition="6.421875" Velocity="28" />
      <note Length="0.0234375" Pitch="53" RiffPosition="6.4375" Velocity="51" />
      <note Length="0.0078125" Pitch="84" RiffPosition="6.4609375" Velocity="75" />
      <note Length="0.03125" Pitch="77" RiffPosition="6.46875" Velocity="80" />
      <note Length="0.03125" Pitch="80" RiffPosition="6.5" Velocity="94" />
      <note Length="0.03125" Pitch="77" RiffPosition="6.53125" Velocity="101" />
      <note Length="0.0078125" Pitch="65" RiffPosition="6.5625" Velocity="72" />
      <note Length="0.0234375" Pitch="67" RiffPosition="6.5703125" Velocity="63" />
      <note Length="0.015625" Pitch="44" RiffPosition="6.59375" Velocity="32" />
      <note Length="0.015625" Pitch="48" RiffPosition="6.609375" Velocity="31" />
      <note Length="0.0625" Pitch="41" RiffPosition="6.625" Velocity="56" />
      <note Length="0.015625" Pitch="68" RiffPosition="6.6875" Velocity="123" />
      <note Length="0.015625" Pitch="77" RiffPosition="6.703125" Velocity="125" />
      <note Length="0.03125" Pitch="80" RiffPosition="6.71875" Velocity="111" />
      <note Length="0.046875" Pitch="65" RiffPosition="6.75" Velocity="74" />
      <note Length="0.015625" Pitch="68" RiffPosition="6.796875" Velocity="22" />
      <note Length="0.03125" Pitch="53" RiffPosition="6.8125" Velocity="35" />
      <note Length="0.03125" Pitch="41" RiffPosition="6.84375" Velocity="56" />
      <note Length="0.046875" Pitch="48" RiffPosition="6.875" Velocity="68" />
      <note Length="0.015625" Pitch="53" RiffPosition="6.921875" Velocity="79" />
      <note Length="0.0234375" Pitch="65" RiffPosition="6.9375" Velocity="86" />
      <note Length="0.0078125" Pitch="77" RiffPosition="6.9609375" Velocity="81" />
      <note Length="0.03125" Pitch="79" RiffPosition="6.96875" Velocity="75" />
      <note Length="0.03125" Pitch="77" RiffPosition="7" Velocity="52" />
      <note Length="0.03125" Pitch="80" RiffPosition="7.03125" Velocity="35" />
      <note Length="0.0078125" Pitch="70" RiffPosition="7.0625" Velocity="35" />
      <note Length="0.0234375" Pitch="61" RiffPosition="7.0703125" Velocity="40" />
      <note Length="0.015625" Pitch="49" RiffPosition="7.09375" Velocity="54" />
      <note Length="0.015625" Pitch="41" RiffPosition="7.109375" Velocity="60" />
      <note Length="0.0625" Pitch="43" RiffPosition="7.125" Velocity="65" />
      <note Length="0.015625" Pitch="53" RiffPosition="7.1875" Velocity="63" />
      <note Length="0.015625" Pitch="82" RiffPosition="7.203125" Velocity="57" />
      <note Length="0.03125" Pitch="77" RiffPosition="7.21875" Velocity="42" />
      <note Length="0.046875" Pitch="80" RiffPosition="7.25" Velocity="21" />
      <note Length="0.015625" Pitch="53" RiffPosition="7.296875" Velocity="25" />
      <note Length="0.03125" Pitch="65" RiffPosition="7.3125" Velocity="23" />
      <note Length="0.03125" Pitch="46" RiffPosition="7.34375" Velocity="36" />
      <note Length="0.046875" Pitch="41" RiffPosition="7.375" Velocity="41" />
      <note Length="0.015625" Pitch="68" RiffPosition="7.421875" Velocity="28" />
      <note Length="0.0234375" Pitch="60" RiffPosition="7.4375" Velocity="51" />
      <note Length="0.0078125" Pitch="82" RiffPosition="7.4609375" Velocity="75" />
      <note Length="0.03125" Pitch="84" RiffPosition="7.46875" Velocity="80" />
      <note Length="0.03125" Pitch="79" RiffPosition="7.5" Velocity="94" />
      <note Length="0.03125" Pitch="77" RiffPosition="7.53125" Velocity="101" />
      <note Length="0.0078125" Pitch="53" RiffPosition="7.5625" Velocity="72" />
      <note Length="0.0234375" Pitch="65" RiffPosition="7.5703125" Velocity="63" />
      <note Length="0.015625" Pitch="55" RiffPosition="7.59375" Velocity="32" />
      <note Length="0.015625" Pitch="46" RiffPosition="7.609375" Velocity="31" />
      <note Length="0.0625" Pitch="49" RiffPosition="7.625" Velocity="56" />
      <note Length="0.015625" Pitch="67" RiffPosition="7.6875" Velocity="123" />
      <note Length="0.015625" Pitch="65" RiffPosition="7.703125" Velocity="125" />
      <note Length="0.03125" Pitch="79" RiffPosition="7.71875" Velocity="111" />
      <note Length="0.046875" Pitch="77" RiffPosition="7.75" Velocity="74" />
      <note Length="0.015625" Pitch="68" RiffPosition="7.796875" Velocity="22" />
      <note Length="0.03125" Pitch="60" RiffPosition="7.8125" Velocity="35" />
      <note Length="0.03125" Pitch="41" RiffPosition="7.84375" Velocity="56" />
      <note Length="0.046875" Pitch="46" RiffPosition="7.875" Velocity="68" />
      <note Length="0.015625" Pitch="53" RiffPosition="7.921875" Velocity="79" />
      <note Length="0.0234375" Pitch="53" RiffPosition="7.9375" Velocity="86" />
      <note Length="0.0078125" Pitch="77" RiffPosition="7.9609375" Velocity="81" />
      <note Length="0.03125" Pitch="77" RiffPosition="7.96875" Velocity="75" />
      <note Length="0.03125" Pitch="84" RiffPosition="8" Velocity="0" />
      <note Length="0.03125" Pitch="79" RiffPosition="8.03125" Velocity="0" />
      <note Length="0.0078125" Pitch="68" RiffPosition="8.0625" Velocity="0" />
      <note Length="0.0234375" Pitch="70" RiffPosition="8.0703125" Velocity="0" />
      <note Length="0.015625" Pitch="48" RiffPosition="8.09375" Velocity="0" />
      <note Length="0.015625" Pitch="41" RiffPosition="8.109375" Velocity="0" />
      <note Length="0.0625" Pitch="55" RiffPosition="8.125" Velocity="0" />
      <note Length="0.015625" Pitch="61" RiffPosition="8.1875" Velocity="0" />
      <note Length="0.015625" Pitch="80" RiffPosition="8.203125" Velocity="0" />
      <note Length="0.03125" Pitch="84" RiffPosition="8.21875" Velocity="0" />
      <note Length="0.046875" Pitch="79" RiffPosition="8.25" Velocity="0" />
      <note Length="0.015625" Pitch="53" RiffPosition="8.296875" Velocity="0" />
      <note Length="0.03125" Pitch="53" RiffPosition="8.3125" Velocity="0" />
      <note Length="0.03125" Pitch="43" RiffPosition="8.34375" Velocity="0" />
      <note Length="0.046875" Pitch="41" RiffPosition="8.375" Velocity="0" />
      <note Length="0.015625" Pitch="65" RiffPosition="8.421875" Velocity="0" />
      <note Length="0.0234375" Pitch="68" RiffPosition="8.4375" Velocity="0" />
      <note Length="0.0078125" Pitch="80" RiffPosition="8.4609375" Velocity="0" />
      <note Length="0.03125" Pitch="82" RiffPosition="8.46875" Velocity="0" />
      <note Length="0.03125" Pitch="77" RiffPosition="8.5" Velocity="0" />
      <note Length="0.03125" Pitch="84" RiffPosition="8.53125" Velocity="0" />
      <note Length="0.0078125" Pitch="53" RiffPosition="8.5625" Velocity="0" />
      <note Length="0.0234375" Pitch="53" RiffPosition="8.5703125" Velocity="0" />
      <note Length="0.015625" Pitch="41" RiffPosition="8.59375" Velocity="0" />
      <note Length="0.015625" Pitch="43" RiffPosition="8.609375" Velocity="0" />
      <note Length="0.0625" Pitch="48" RiffPosition="8.625" Velocity="0" />
      <note Length="0.015625" Pitch="65" RiffPosition="8.6875" Velocity="0" />
      <note Length="0.015625" Pitch="77" RiffPosition="8.703125" Velocity="0" />
      <note Length="0.03125" Pitch="77" RiffPosition="8.71875" Velocity="0" />
      <note Length="0.046875" Pitch="84" RiffPosition="8.75" Velocity="0" />
      <note Length="0.015625" Pitch="65" RiffPosition="8.796875" Velocity="0" />
      <note Length="0.03125" Pitch="68" RiffPosition="8.8125" Velocity="0" />
      <note Length="0.03125" Pitch="48" RiffPosition="8.84375" Velocity="0" />
      <note Length="0.046875" Pitch="44" RiffPosition="8.875" Velocity="0" />
      <note Length="0.015625" Pitch="70" RiffPosition="8.921875" Velocity="0" />
      <note Length="0.0234375" Pitch="53" RiffPosition="8.9375" Velocity="0" />
      <note Length="0.0078125" Pitch="77" RiffPosition="8.9609375" Velocity="0" />
      <note Length="0.03125" Pitch="77" RiffPosition="8.96875" Velocity="0" />
      <note Length="0.03125" Pitch="82" RiffPosition="9" Velocity="52" />
      <note Length="0.03125" Pitch="77" RiffPosition="9.03125" Velocity="35" />
      <note Length="0.0078125" Pitch="67" RiffPosition="9.0625" Velocity="35" />
      <note Length="0.0234375" Pitch="68" RiffPosition="9.0703125" Velocity="40" />
      <note Length="0.015625" Pitch="46" RiffPosition="9.09375" Velocity="54" />
      <note Length="0.015625" Pitch="48" RiffPosition="9.109375" Velocity="60" />
      <note Length="0.0625" Pitch="41" RiffPosition="9.125" Velocity="65" />
      <note Length="0.015625" Pitch="60" RiffPosition="9.1875" Velocity="63" />
      <note Length="0.015625" Pitch="79" RiffPosition="9.203125" Velocity="57" />
      <note Length="0.03125" Pitch="82" RiffPosition="9.21875" Velocity="42" />
      <note Length="0.046875" Pitch="77" RiffPosition="9.25" Velocity="21" />
      <note Length="0.015625" Pitch="60" RiffPosition="9.296875" Velocity="25" />
      <note Length="0.03125" Pitch="53" RiffPosition="9.3125" Velocity="23" />
      <note Length="0.03125" Pitch="55" RiffPosition="9.34375" Velocity="36" />
      <note Length="0.046875" Pitch="49" RiffPosition="9.375" Velocity="41" />
      <note Length="0.015625" Pitch="53" RiffPosition="9.421875" Velocity="28" />
      <note Length="0.0234375" Pitch="68" RiffPosition="9.4375" Velocity="51" />
      <note Length="0.0078125" Pitch="77" RiffPosition="9.4609375" Velocity="75" />
      <note Length="0.03125" Pitch="80" RiffPosition="9.46875" Velocity="80" />
      <note Length="0.03125" Pitch="77" RiffPosition="9.5" Velocity="94" />
      <note Length="0.03125" Pitch="82" RiffPosition="9.53125" Velocity="101" />
      <note Length="0.0078125" Pitch="61" RiffPosition="9.5625" Velocity="72" />
      <note Length="0.0234375" Pitch="53" RiffPosition="9.5703125" Velocity="63" />
      <note Length="0.015625" Pitch="41" RiffPosition="9.59375" Velocity="32" />
      <note Length="0.015625" Pitch="55" RiffPosition="9.609375" Velocity="31" />
      <note Length="0.0625" Pitch="46" RiffPosition="9.625" Velocity="56" />
      <note Length="0.015625" Pitch="53" RiffPosition="9.6875" Velocity="123" />
      <note Length="0.015625" Pitch="84" RiffPosition="9.703125" Velocity="125" />
      <note Length="0.03125" Pitch="65" RiffPosition="9.71875" Velocity="111" />
      <note Length="0.046875" Pitch="82" RiffPosition="9.75" Velocity="74" />
      <note Length="0.015625" Pitch="53" RiffPosition="9.796875" Velocity="22" />
      <note Length="0.03125" Pitch="68" RiffPosition="9.8125" Velocity="35" />
      <note Length="0.03125" Pitch="48" RiffPosition="9.84375" Velocity="56" />
      <note Length="0.046875" Pitch="55" RiffPosition="9.875" Velocity="68" />
      <note Length="0.015625" Pitch="68" RiffPosition="9.921875" Velocity="79" />
      <note Length="0.0234375" Pitch="53" RiffPosition="9.9375" Velocity="86" />
      <note Length="0.0078125" Pitch="82" RiffPosition="9.9609375" Velocity="81" />
      <note Length="0.03125" Pitch="77" RiffPosition="9.96875" Velocity="75" />
      <note Length="0.03125" Pitch="80" RiffPosition="10" Velocity="52" />
      <note Length="0.03125" Pitch="77" RiffPosition="10.03125" Velocity="35" />
      <note Length="0.0078125" Pitch="65" RiffPosition="10.0625" Velocity="35" />
      <note Length="0.0234375" Pitch="65" RiffPosition="10.0703125" Velocity="40" />
      <note Length="0.015625" Pitch="43" RiffPosition="10.09375" Velocity="54" />
      <note Length="0.015625" Pitch="48" RiffPosition="10.109375" Velocity="60" />
      <note Length="0.0625" Pitch="41" RiffPosition="10.125" Velocity="65" />
      <note Length="0.015625" Pitch="68" RiffPosition="10.1875" Velocity="63" />
      <note Length="0.015625" Pitch="77" RiffPosition="10.203125" Velocity="57" />
      <note Length="0.03125" Pitch="80" RiffPosition="10.21875" Velocity="42" />
      <note Length="0.046875" Pitch="65" RiffPosition="10.25" Velocity="21" />
      <note Length="0.015625" Pitch="68" RiffPosition="10.296875" Velocity="25" />
      <note Length="0.03125" Pitch="53" RiffPosition="10.3125" Velocity="23" />
      <note Length="0.03125" Pitch="41" RiffPosition="10.34375" Velocity="36" />
      <note Length="0.046875" Pitch="48" RiffPosition="10.375" Velocity="41" />
      <note Length="0.015625" Pitch="53" RiffPosition="10.421875" Velocity="28" />
      <note Length="0.0234375" Pitch="65" RiffPosition="10.4375" Velocity="51" />
      <note Length="0.0078125" Pitch="65" RiffPosition="10.4609375" Velocity="75" />
      <note Length="0.03125" Pitch="77" RiffPosition="10.46875" Velocity="80" />
      <note Length="0.03125" Pitch="77" RiffPosition="10.5" Velocity="94" />
      <note Length="0.03125" Pitch="80" RiffPosition="10.53125" Velocity="101" />
      <note Length="0.0078125" Pitch="70" RiffPosition="10.5625" Velocity="72" />
      <note Length="0.0234375" Pitch="60" RiffPosition="10.5703125" Velocity="63" />
      <note Length="0.015625" Pitch="48" RiffPosition="10.59375" Velocity="32" />
      <note Length="0.015625" Pitch="41" RiffPosition="10.609375" Velocity="31" />
      <note Length="0.0625" Pitch="43" RiffPosition="10.625" Velocity="56" />
      <note Length="0.015625" Pitch="53" RiffPosition="10.6875" Velocity="123" />
      <note Length="0.015625" Pitch="82" RiffPosition="10.703125" Velocity="125" />
      <note Length="0.03125" Pitch="77" RiffPosition="10.71875" Velocity="111" />
      <note Length="0.046875" Pitch="80" RiffPosition="10.75" Velocity="74" />
      <note Length="0.015625" Pitch="53" RiffPosition="10.796875" Velocity="22" />
      <note Length="0.03125" Pitch="65" RiffPosition="10.8125" Velocity="35" />
      <note Length="0.03125" Pitch="46" RiffPosition="10.84375" Velocity="56" />
      <note Length="0.046875" Pitch="41" RiffPosition="10.875" Velocity="68" />
      <note Length="0.015625" Pitch="67" RiffPosition="10.921875" Velocity="79" />
      <note Length="0.0234375" Pitch="70" RiffPosition="10.9375" Velocity="86" />
      <note Length="0.0078125" Pitch="82" RiffPosition="10.9609375" Velocity="81" />
      <note Length="0.03125" Pitch="82" RiffPosition="10.96875" Velocity="75" />
      <note Length="0.03125" Pitch="77" RiffPosition="11" Velocity="52" />
      <note Length="0.03125" Pitch="77" RiffPosition="11,03125" Velocity="35" />
      <note Length="0.0078125" Pitch="53" RiffPosition="11,0625" Velocity="35" />
      <note Length="0.0234375" Pitch="65" RiffPosition="11,0703125" Velocity="40" />
      <note Length="0.015625" Pitch="41" RiffPosition="11,09375" Velocity="54" />
      <note Length="0.015625" Pitch="46" RiffPosition="11,109375" Velocity="60" />
      <note Length="0.0625" Pitch="48" RiffPosition="11,125" Velocity="65" />
      <note Length="0.015625" Pitch="65" RiffPosition="11,1875" Velocity="63" />
      <note Length="0.015625" Pitch="77" RiffPosition="11,203125" Velocity="57" />
      <note Length="0.03125" Pitch="79" RiffPosition="11,21875" Velocity="42" />
      <note Length="0.046875" Pitch="77" RiffPosition="11,25" Velocity="21" />
      <note Length="0.015625" Pitch="67" RiffPosition="11,296875" Velocity="25" />
      <note Length="0.03125" Pitch="60" RiffPosition="11,3125" Velocity="23" />
      <note Length="0.03125" Pitch="41" RiffPosition="11,34375" Velocity="36" />
      <note Length="0.046875" Pitch="46" RiffPosition="11,375" Velocity="41" />
      <note Length="0.015625" Pitch="61" RiffPosition="11,421875" Velocity="28" />
      <note Length="0.0234375" Pitch="53" RiffPosition="11,4375" Velocity="51" />
      <note Length="0.0078125" Pitch="77" RiffPosition="11,4609375" Velocity="75" />
      <note Length="0.03125" Pitch="65" RiffPosition="11,46875" Velocity="80" />
      <note Length="0.03125" Pitch="84" RiffPosition="11,5" Velocity="94" />
      <note Length="0.03125" Pitch="77" RiffPosition="11,53125" Velocity="101" />
      <note Length="0.0078125" Pitch="68" RiffPosition="11,5625" Velocity="72" />
      <note Length="0.0234375" Pitch="70" RiffPosition="11,5703125" Velocity="63" />
      <note Length="0.015625" Pitch="48" RiffPosition="11,59375" Velocity="32" />
      <note Length="0.015625" Pitch="41" RiffPosition="11,609375" Velocity="31" />
      <note Length="0.0625" Pitch="41" RiffPosition="11,625" Velocity="56" />
      <note Length="0.015625" Pitch="60" RiffPosition="11,6875" Velocity="123" />
      <note Length="0.015625" Pitch="80" RiffPosition="11,703125" Velocity="125" />
      <note Length="0.03125" Pitch="84" RiffPosition="11,71875" Velocity="111" />
      <note Length="0.046875" Pitch="79" RiffPosition="11,75" Velocity="74" />
      <note Length="0.015625" Pitch="61" RiffPosition="11,796875" Velocity="22" />
      <note Length="0.03125" Pitch="53" RiffPosition="11,8125" Velocity="35" />
      <note Length="0.03125" Pitch="43" RiffPosition="11,84375" Velocity="56" />
      <note Length="0.046875" Pitch="41" RiffPosition="11,875" Velocity="68" />
      <note Length="0.015625" Pitch="65" RiffPosition="11,921875" Velocity="79" />
      <note Length="0.0234375" Pitch="68" RiffPosition="11,9375" Velocity="86" />
      <note Length="0.0078125" Pitch="80" RiffPosition="11,9609375" Velocity="81" />
      <note Length="0.03125" Pitch="82" RiffPosition="11,96875" Velocity="75" />
      <note Length="0.03125" Pitch="77" RiffPosition="12" Velocity="52" />
      <note Length="0.03125" Pitch="84" RiffPosition="12.03125" Velocity="35" />
      <note Length="0.0078125" Pitch="53" RiffPosition="12.0625" Velocity="35" />
      <note Length="0.0234375" Pitch="53" RiffPosition="12.0703125" Velocity="40" />
      <note Length="0.015625" Pitch="41" RiffPosition="12.09375" Velocity="54" />
      <note Length="0.015625" Pitch="43" RiffPosition="12.109375" Velocity="60" />
      <note Length="0.0625" Pitch="46" RiffPosition="12.125" Velocity="65" />
      <note Length="0.015625" Pitch="65" RiffPosition="12.1875" Velocity="63" />
      <note Length="0.015625" Pitch="77" RiffPosition="12.203125" Velocity="57" />
      <note Length="0.03125" Pitch="77" RiffPosition="12.21875" Velocity="42" />
      <note Length="0.046875" Pitch="84" RiffPosition="12.25" Velocity="21" />
      <note Length="0.015625" Pitch="65" RiffPosition="12.296875" Velocity="25" />
      <note Length="0.03125" Pitch="68" RiffPosition="12.3125" Velocity="23" />
      <note Length="0.03125" Pitch="48" RiffPosition="12.34375" Velocity="36" />
      <note Length="0.046875" Pitch="43" RiffPosition="12.375" Velocity="41" />
      <note Length="0.015625" Pitch="70" RiffPosition="12.421875" Velocity="28" />
      <note Length="0.0234375" Pitch="53" RiffPosition="12.4375" Velocity="51" />
      <note Length="0.0078125" Pitch="77" RiffPosition="12.4609375" Velocity="75" />
      <note Length="0.03125" Pitch="77" RiffPosition="12.46875" Velocity="80" />
      <note Length="0.03125" Pitch="82" RiffPosition="12.5" Velocity="94" />
      <note Length="0.03125" Pitch="77" RiffPosition="12.53125" Velocity="101" />
      <note Length="0.0078125" Pitch="65" RiffPosition="12.5625" Velocity="72" />
      <note Length="0.0234375" Pitch="68" RiffPosition="12.5703125" Velocity="63" />
      <note Length="0.015625" Pitch="46" RiffPosition="12.59375" Velocity="32" />
      <note Length="0.015625" Pitch="48" RiffPosition="12.609375" Velocity="31" />
      <note Length="0.0625" Pitch="41" RiffPosition="12.625" Velocity="56" />
      <note Length="0.015625" Pitch="70" RiffPosition="12.6875" Velocity="123" />
      <note Length="0.015625" Pitch="77" RiffPosition="12.703125" Velocity="125" />
      <note Length="0.03125" Pitch="82" RiffPosition="12.71875" Velocity="111" />
      <note Length="0.046875" Pitch="77" RiffPosition="12.75" Velocity="74" />
      <note Length="0.015625" Pitch="60" RiffPosition="12.796875" Velocity="22" />
      <note Length="0.03125" Pitch="53" RiffPosition="12.8125" Velocity="35" />
      <note Length="0.03125" Pitch="41" RiffPosition="12.84375" Velocity="56" />
      <note Length="0.046875" Pitch="48" RiffPosition="12.875" Velocity="68" />
      <note Length="0.015625" Pitch="53" RiffPosition="12.921875" Velocity="79" />
      <note Length="0.0234375" Pitch="67" RiffPosition="12.9375" Velocity="86" />
      <note Length="0.0078125" Pitch="77" RiffPosition="12.9609375" Velocity="81" />
      <note Length="0.03125" Pitch="80" RiffPosition="12.96875" Velocity="75" />
      <note Length="0.03125" Pitch="77" RiffPosition="13" Velocity="0" />
      <note Length="0.03125" Pitch="82" RiffPosition="13.03125" Velocity="0" />
      <note Length="0.0078125" Pitch="60" RiffPosition="13.0625" Velocity="0" />
      <note Length="0.0234375" Pitch="53" RiffPosition="13.0703125" Velocity="0" />
      <note Length="0.015625" Pitch="41" RiffPosition="13.09375" Velocity="0" />
      <note Length="0.015625" Pitch="41" RiffPosition="13.109375" Velocity="0" />
      <note Length="0.0625" Pitch="46" RiffPosition="13.125" Velocity="0" />
      <note Length="0.015625" Pitch="53" RiffPosition="13.1875" Velocity="0" />
      <note Length="0.015625" Pitch="84" RiffPosition="13.203125" Velocity="0" />
      <note Length="0.03125" Pitch="77" RiffPosition="13.21875" Velocity="0" />
      <note Length="0.046875" Pitch="82" RiffPosition="13.25" Velocity="0" />
      <note Length="0.015625" Pitch="53" RiffPosition="13.296875" Velocity="0" />
      <note Length="0.03125" Pitch="67" RiffPosition="13.3125" Velocity="0" />
      <note Length="0.03125" Pitch="46" RiffPosition="13.34375" Velocity="0" />
      <note Length="0.046875" Pitch="55" RiffPosition="13.375" Velocity="0" />
      <note Length="0.015625" Pitch="68" RiffPosition="13.421875" Velocity="0" />
      <note Length="0.0234375" Pitch="61" RiffPosition="13.4375" Velocity="0" />
      <note Length="0.0078125" Pitch="82" RiffPosition="13.4609375" Velocity="0" />
      <note Length="0.03125" Pitch="77" RiffPosition="13.46875" Velocity="0" />
      <note Length="0.03125" Pitch="80" RiffPosition="13.5" Velocity="0" />
      <note Length="0.03125" Pitch="77" RiffPosition="13.53125" Velocity="0" />
      <note Length="0.0078125" Pitch="53" RiffPosition="13.5625" Velocity="0" />
      <note Length="0.0234375" Pitch="65" RiffPosition="13.5703125" Velocity="0" />
      <note Length="0.015625" Pitch="43" RiffPosition="13.59375" Velocity="0" />
      <note Length="0.015625" Pitch="46" RiffPosition="13.609375" Velocity="0" />
      <note Length="0.0625" Pitch="41" RiffPosition="13.625" Velocity="0" />
      <note Length="0.015625" Pitch="68" RiffPosition="13.6875" Velocity="0" />
      <note Length="0.015625" Pitch="77" RiffPosition="13.703125" Velocity="0" />
      <note Length="0.03125" Pitch="80" RiffPosition="13.71875" Velocity="0" />
      <note Length="0.046875" Pitch="65" RiffPosition="13.75" Velocity="0" />
      <note Length="0.015625" Pitch="68" RiffPosition="13.796875" Velocity="0" />
      <note Length="0.03125" Pitch="61" RiffPosition="13.8125" Velocity="0" />
      <note Length="0.03125" Pitch="41" RiffPosition="13.84375" Velocity="0" />
      <note Length="0.046875" Pitch="48" RiffPosition="13.875" Velocity="0" />
      <note Length="0.015625" Pitch="53" RiffPosition="13.921875" Velocity="0" />
      <note Length="0.0234375" Pitch="65" RiffPosition="13.9375" Velocity="0" />
      <note Length="0.0078125" Pitch="77" RiffPosition="13.9609375" Velocity="0" />
      <note Length="0.03125" Pitch="77" RiffPosition="13.96875" Velocity="0" />
    </riff>
    <riff IsDrum="False" MidiInstrument="0" Tempo="144" Length="14">
      <note Length="0.09375" Pitch="53" RiffPosition="0" Velocity="28" />
      <note Length="0.0625" Pitch="80" RiffPosition="0.09375" Velocity="57" />
      <note Length="0.03125" Pitch="65" RiffPosition="0.15625" Velocity="26" />
      <note Length="0.03125" Pitch="53" RiffPosition="0.1875" Velocity="21" />
      <note Length="0.015625" Pitch="49" RiffPosition="0.21875" Velocity="25" />
      <note Length="0.015625" Pitch="44" RiffPosition="0.234375" Velocity="47" />
      <note Length="0.09375" Pitch="43" RiffPosition="0.25" Velocity="43" />
      <note Length="0.0625" Pitch="67" RiffPosition="0.34375" Velocity="72" />
      <note Length="0.03125" Pitch="80" RiffPosition="0.40625" Velocity="30" />
      <note Length="0.03125" Pitch="77" RiffPosition="0.4375" Velocity="96" />
      <note Length="0.015625" Pitch="68" RiffPosition="0.46875" Velocity="30" />
      <note Length="0.015625" Pitch="65" RiffPosition="0.484375" Velocity="31" />
      <note Length="0.09375" Pitch="53" RiffPosition="0.5" Velocity="74" />
      <note Length="0.0625" Pitch="65" RiffPosition="0.59375" Velocity="45" />
      <note Length="0.03125" Pitch="70" RiffPosition="0.65625" Velocity="88" />
      <note Length="0.03125" Pitch="67" RiffPosition="0.6875" Velocity="39" />
      <note Length="0.015625" Pitch="61" RiffPosition="0.71875" Velocity="45" />
      <note Length="0.015625" Pitch="60" RiffPosition="0.734375" Velocity="24" />
      <note Length="0.09375" Pitch="58" RiffPosition="0.75" Velocity="59" />
      <note Length="0.0625" Pitch="53" RiffPosition="0.84375" Velocity="30" />
      <note Length="0.03125" Pitch="67" RiffPosition="0.90625" Velocity="72" />
      <note Length="0.03125" Pitch="53" RiffPosition="0.9375" Velocity="54" />
      <note Length="0.015625" Pitch="53" RiffPosition="0.96875" Velocity="72" />
      <note Length="0.015625" Pitch="53" RiffPosition="0.984375" Velocity="40" />
      <note Length="0.09375" Pitch="53" RiffPosition="1" Velocity="43" />
      <note Length="0.0625" Pitch="80" RiffPosition="1,09375" Velocity="105" />
      <note Length="0.03125" Pitch="65" RiffPosition="1,15625" Velocity="57" />
      <note Length="0.03125" Pitch="53" RiffPosition="1,1875" Velocity="63" />
      <note Length="0.015625" Pitch="49" RiffPosition="1,21875" Velocity="56" />
      <note Length="0.015625" Pitch="44" RiffPosition="1,234375" Velocity="78" />
      <note Length="0.09375" Pitch="43" RiffPosition="1,25" Velocity="91" />
      <note Length="0.0625" Pitch="67" RiffPosition="1,34375" Velocity="28" />
      <note Length="0.03125" Pitch="80" RiffPosition="1,40625" Velocity="78" />
      <note Length="0.03125" Pitch="77" RiffPosition="1,4375" Velocity="48" />
      <note Length="0.015625" Pitch="68" RiffPosition="1,46875" Velocity="41" />
      <note Length="0.015625" Pitch="65" RiffPosition="1,484375" Velocity="57" />
      <note Length="0.09375" Pitch="53" RiffPosition="1,5" Velocity="26" />
      <note Length="0.0625" Pitch="65" RiffPosition="1,59375" Velocity="43" />
      <note Length="0.03125" Pitch="70" RiffPosition="1,65625" Velocity="39" />
      <note Length="0.03125" Pitch="67" RiffPosition="1,6875" Velocity="32" />
      <note Length="0.015625" Pitch="61" RiffPosition="1,71875" Velocity="118" />
      <note Length="0.015625" Pitch="60" RiffPosition="1,734375" Velocity="73" />
      <note Length="0.09375" Pitch="58" RiffPosition="1,75" Velocity="30" />
      <note Length="0.0625" Pitch="53" RiffPosition="1,84375" Velocity="59" />
      <note Length="0.03125" Pitch="67" RiffPosition="1,90625" Velocity="24" />
      <note Length="0.03125" Pitch="53" RiffPosition="1,9375" Velocity="23" />
      <note Length="0.015625" Pitch="53" RiffPosition="1,96875" Velocity="23" />
      <note Length="0.015625" Pitch="53" RiffPosition="1,984375" Velocity="45" />
      <note Length="0.09375" Pitch="53" RiffPosition="2" Velocity="45" />
      <note Length="0.0625" Pitch="80" RiffPosition="2.09375" Velocity="74" />
      <note Length="0.03125" Pitch="65" RiffPosition="2.15625" Velocity="31" />
      <note Length="0.03125" Pitch="53" RiffPosition="2.1875" Velocity="94" />
      <note Length="0.015625" Pitch="49" RiffPosition="2.21875" Velocity="32" />
      <note Length="0.015625" Pitch="44" RiffPosition="2.234375" Velocity="29" />
      <note Length="0.09375" Pitch="43" RiffPosition="2.25" Velocity="72" />
      <note Length="0.0625" Pitch="67" RiffPosition="2.34375" Velocity="43" />
      <note Length="0.03125" Pitch="80" RiffPosition="2.40625" Velocity="86" />
      <note Length="0.03125" Pitch="77" RiffPosition="2.4375" Velocity="79" />
      <note Length="0.015625" Pitch="68" RiffPosition="2.46875" Velocity="47" />
      <note Length="0.015625" Pitch="65" RiffPosition="2.484375" Velocity="26" />
      <note Length="0.09375" Pitch="53" RiffPosition="2.5" Velocity="57" />
      <note Length="0.0625" Pitch="65" RiffPosition="2.59375" Velocity="28" />
      <note Length="0.03125" Pitch="70" RiffPosition="2.65625" Velocity="70" />
      <note Length="0.03125" Pitch="67" RiffPosition="2.6875" Velocity="56" />
      <note Length="0.015625" Pitch="61" RiffPosition="2.71875" Velocity="70" />
      <note Length="0.015625" Pitch="60" RiffPosition="2.734375" Velocity="42" />
      <note Length="0.09375" Pitch="58" RiffPosition="2.75" Velocity="41" />
      <note Length="0.0625" Pitch="53" RiffPosition="2.84375" Velocity="107" />
      <note Length="0.03125" Pitch="67" RiffPosition="2.90625" Velocity="55" />
      <note Length="0.03125" Pitch="53" RiffPosition="2.9375" Velocity="61" />
      <note Length="0.015625" Pitch="53" RiffPosition="2.96875" Velocity="54" />
      <note Length="0.015625" Pitch="53" RiffPosition="2.984375" Velocity="76" />
      <note Length="0.09375" Pitch="53" RiffPosition="3" Velocity="93" />
      <note Length="0.0625" Pitch="80" RiffPosition="3.09375" Velocity="30" />
      <note Length="0.03125" Pitch="65" RiffPosition="3.15625" Velocity="80" />
      <note Length="0.03125" Pitch="53" RiffPosition="3.1875" Velocity="46" />
      <note Length="0.015625" Pitch="49" RiffPosition="3.21875" Velocity="39" />
      <note Length="0.015625" Pitch="44" RiffPosition="3.234375" Velocity="59" />
      <note Length="0.09375" Pitch="43" RiffPosition="3.25" Velocity="24" />
      <note Length="0.0625" Pitch="67" RiffPosition="3.34375" Velocity="45" />
      <note Length="0.03125" Pitch="80" RiffPosition="3.40625" Velocity="37" />
      <note Length="0.03125" Pitch="77" RiffPosition="3.4375" Velocity="30" />
      <note Length="0.015625" Pitch="68" RiffPosition="3.46875" Velocity="116" />
      <note Length="0.015625" Pitch="65" RiffPosition="3.484375" Velocity="74" />
      <note Length="0.09375" Pitch="53" RiffPosition="3.5" Velocity="32" />
      <note Length="0.0625" Pitch="65" RiffPosition="3.59375" Velocity="61" />
      <note Length="0.03125" Pitch="70" RiffPosition="3.65625" Velocity="22" />
      <note Length="0.03125" Pitch="67" RiffPosition="3.6875" Velocity="25" />
      <note Length="0.015625" Pitch="61" RiffPosition="3.71875" Velocity="21" />
      <note Length="0.015625" Pitch="60" RiffPosition="3.734375" Velocity="43" />
      <note Length="0.09375" Pitch="58" RiffPosition="3.75" Velocity="47" />
      <note Length="0.0625" Pitch="53" RiffPosition="3.84375" Velocity="56" />
      <note Length="0.03125" Pitch="67" RiffPosition="3.90625" Velocity="33" />
      <note Length="0.03125" Pitch="53" RiffPosition="3.9375" Velocity="92" />
      <note Length="0.015625" Pitch="53" RiffPosition="3.96875" Velocity="34" />
      <note Length="0.015625" Pitch="53" RiffPosition="3.984375" Velocity="27" />
      <note Length="0.09375" Pitch="53" RiffPosition="4" Velocity="70" />
      <note Length="0.0625" Pitch="80" RiffPosition="4.09375" Velocity="41" />
      <note Length="0.03125" Pitch="65" RiffPosition="4.15625" Velocity="84" />
      <note Length="0.03125" Pitch="53" RiffPosition="4.1875" Velocity="77" />
      <note Length="0.015625" Pitch="49" RiffPosition="4.21875" Velocity="49" />
      <note Length="0.015625" Pitch="44" RiffPosition="4.234375" Velocity="28" />
      <note Length="0.09375" Pitch="43" RiffPosition="4.25" Velocity="55" />
      <note Length="0.0625" Pitch="67" RiffPosition="4.34375" Velocity="26" />
      <note Length="0.03125" Pitch="80" RiffPosition="4.40625" Velocity="68" />
      <note Length="0.03125" Pitch="77" RiffPosition="4.4375" Velocity="58" />
      <note Length="0.015625" Pitch="68" RiffPosition="4.46875" Velocity="68" />
      <note Length="0.015625" Pitch="65" RiffPosition="4.484375" Velocity="44" />
      <note Length="0.09375" Pitch="53" RiffPosition="4.5" Velocity="39" />
      <note Length="0.0625" Pitch="65" RiffPosition="4.59375" Velocity="109" />
      <note Length="0.03125" Pitch="70" RiffPosition="4.65625" Velocity="53" />
      <note Length="0.03125" Pitch="67" RiffPosition="4.6875" Velocity="59" />
      <note Length="0.015625" Pitch="61" RiffPosition="4.71875" Velocity="52" />
      <note Length="0.015625" Pitch="60" RiffPosition="4.734375" Velocity="74" />
      <note Length="0.09375" Pitch="58" RiffPosition="4.75" Velocity="95" />
      <note Length="0.0625" Pitch="53" RiffPosition="4.84375" Velocity="32" />
      <note Length="0.03125" Pitch="67" RiffPosition="4.90625" Velocity="82" />
      <note Length="0.03125" Pitch="53" RiffPosition="4.9375" Velocity="44" />
      <note Length="0.015625" Pitch="53" RiffPosition="4.96875" Velocity="37" />
      <note Length="0.015625" Pitch="53" RiffPosition="4.984375" Velocity="58" />
      <note Length="0.09375" Pitch="53" RiffPosition="5" Velocity="22" />
      <note Length="0.0625" Pitch="80" RiffPosition="5.09375" Velocity="47" />
      <note Length="0.03125" Pitch="65" RiffPosition="5.15625" Velocity="35" />
      <note Length="0.03125" Pitch="53" RiffPosition="5.1875" Velocity="29" />
      <note Length="0.015625" Pitch="49" RiffPosition="5.21875" Velocity="114" />
      <note Length="0.015625" Pitch="44" RiffPosition="5.234375" Velocity="76" />
      <note Length="0.09375" Pitch="43" RiffPosition="5.25" Velocity="34" />
      <note Length="0.0625" Pitch="67" RiffPosition="5.34375" Velocity="63" />
      <note Length="0.03125" Pitch="80" RiffPosition="5.40625" Velocity="20" />
      <note Length="0.03125" Pitch="77" RiffPosition="5.4375" Velocity="27" />
      <note Length="0.015625" Pitch="68" RiffPosition="5.46875" Velocity="20" />
      <note Length="0.015625" Pitch="65" RiffPosition="5.484375" Velocity="41" />
      <note Length="0.09375" Pitch="53" RiffPosition="5.5" Velocity="49" />
      <note Length="0.0625" Pitch="65" RiffPosition="5.59375" Velocity="55" />
      <note Length="0.03125" Pitch="70" RiffPosition="5.65625" Velocity="35" />
      <note Length="0.03125" Pitch="67" RiffPosition="5.6875" Velocity="90" />
      <note Length="0.015625" Pitch="61" RiffPosition="5.71875" Velocity="36" />
      <note Length="0.015625" Pitch="60" RiffPosition="5.734375" Velocity="25" />
      <note Length="0.09375" Pitch="58" RiffPosition="5.75" Velocity="68" />
      <note Length="0.0625" Pitch="53" RiffPosition="5.84375" Velocity="39" />
      <note Length="0.03125" Pitch="67" RiffPosition="5.90625" Velocity="82" />
      <note Length="0.03125" Pitch="53" RiffPosition="5.9375" Velocity="75" />
      <note Length="0.015625" Pitch="53" RiffPosition="5.96875" Velocity="51" />
      <note Length="0.015625" Pitch="53" RiffPosition="5.984375" Velocity="30" />
      <note Length="0.09375" Pitch="53" RiffPosition="6" Velocity="53" />
      <note Length="0.0625" Pitch="80" RiffPosition="6.09375" Velocity="24" />
      <note Length="0.03125" Pitch="65" RiffPosition="6.15625" Velocity="66" />
      <note Length="0.03125" Pitch="53" RiffPosition="6.1875" Velocity="60" />
      <note Length="0.015625" Pitch="49" RiffPosition="6.21875" Velocity="66" />
      <note Length="0.015625" Pitch="44" RiffPosition="6.234375" Velocity="45" />
      <note Length="0.09375" Pitch="43" RiffPosition="6.25" Velocity="37" />
      <note Length="0.0625" Pitch="67" RiffPosition="6.34375" Velocity="111" />
      <note Length="0.03125" Pitch="80" RiffPosition="6.40625" Velocity="51" />
      <note Length="0.03125" Pitch="77" RiffPosition="6.4375" Velocity="57" />
      <note Length="0.015625" Pitch="68" RiffPosition="6.46875" Velocity="51" />
      <note Length="0.015625" Pitch="65" RiffPosition="6.484375" Velocity="72" />
      <note Length="0.09375" Pitch="53" RiffPosition="6.5" Velocity="97" />
      <note Length="0.0625" Pitch="65" RiffPosition="6.59375" Velocity="34" />
      <note Length="0.03125" Pitch="70" RiffPosition="6.65625" Velocity="84" />
      <note Length="0.03125" Pitch="67" RiffPosition="6.6875" Velocity="42" />
      <note Length="0.015625" Pitch="61" RiffPosition="6.71875" Velocity="35" />
      <note Length="0.015625" Pitch="60" RiffPosition="6.734375" Velocity="56" />
      <note Length="0.09375" Pitch="58" RiffPosition="6.75" Velocity="20" />
      <note Length="0.0625" Pitch="53" RiffPosition="6.84375" Velocity="49" />
      <note Length="0.03125" Pitch="67" RiffPosition="6.90625" Velocity="34" />
      <note Length="0.03125" Pitch="53" RiffPosition="6.9375" Velocity="27" />
      <note Length="0.015625" Pitch="53" RiffPosition="6.96875" Velocity="112" />
      <note Length="0.015625" Pitch="53" RiffPosition="6.984375" Velocity="78" />
      <note Length="0.09375" Pitch="53" RiffPosition="7" Velocity="36" />
      <note Length="0.0625" Pitch="80" RiffPosition="7.09375" Velocity="65" />
      <note Length="0.03125" Pitch="65" RiffPosition="7.15625" Velocity="22" />
      <note Length="0.03125" Pitch="53" RiffPosition="7.1875" Velocity="29" />
      <note Length="0.015625" Pitch="49" RiffPosition="7.21875" Velocity="22" />
      <note Length="0.015625" Pitch="44" RiffPosition="7.234375" Velocity="39" />
      <note Length="0.09375" Pitch="43" RiffPosition="7.25" Velocity="51" />
      <note Length="0.0625" Pitch="67" RiffPosition="7.34375" Velocity="53" />
      <note Length="0.03125" Pitch="80" RiffPosition="7.40625" Velocity="37" />
      <note Length="0.03125" Pitch="77" RiffPosition="7.4375" Velocity="88" />
      <note Length="0.015625" Pitch="68" RiffPosition="7.46875" Velocity="38" />
      <note Length="0.015625" Pitch="65" RiffPosition="7.484375" Velocity="23" />
      <note Length="0.09375" Pitch="53" RiffPosition="7.5" Velocity="66" />
      <note Length="0.0625" Pitch="65" RiffPosition="7.59375" Velocity="37" />
      <note Length="0.03125" Pitch="70" RiffPosition="7.65625" Velocity="80" />
      <note Length="0.03125" Pitch="67" RiffPosition="7.6875" Velocity="73" />
      <note Length="0.015625" Pitch="61" RiffPosition="7.71875" Velocity="53" />
      <note Length="0.015625" Pitch="60" RiffPosition="7.734375" Velocity="32" />
      <note Length="0.09375" Pitch="58" RiffPosition="7.75" Velocity="51" />
      <note Length="0.0625" Pitch="53" RiffPosition="7.84375" Velocity="22" />
      <note Length="0.03125" Pitch="67" RiffPosition="7.90625" Velocity="65" />
      <note Length="0.03125" Pitch="53" RiffPosition="7.9375" Velocity="62" />
      <note Length="0.015625" Pitch="53" RiffPosition="7.96875" Velocity="64" />
      <note Length="0.015625" Pitch="53" RiffPosition="7.984375" Velocity="47" />
      <note Length="0.09375" Pitch="53" RiffPosition="8" Velocity="0" />
      <note Length="0.0625" Pitch="80" RiffPosition="8.09375" Velocity="0" />
      <note Length="0.03125" Pitch="65" RiffPosition="8.15625" Velocity="0" />
      <note Length="0.03125" Pitch="53" RiffPosition="8.1875" Velocity="0" />
      <note Length="0.015625" Pitch="49" RiffPosition="8.21875" Velocity="0" />
      <note Length="0.015625" Pitch="44" RiffPosition="8.234375" Velocity="0" />
      <note Length="0.09375" Pitch="43" RiffPosition="8.25" Velocity="0" />
      <note Length="0.0625" Pitch="67" RiffPosition="8.34375" Velocity="0" />
      <note Length="0.03125" Pitch="80" RiffPosition="8.40625" Velocity="0" />
      <note Length="0.03125" Pitch="77" RiffPosition="8.4375" Velocity="0" />
      <note Length="0.015625" Pitch="68" RiffPosition="8.46875" Velocity="0" />
      <note Length="0.015625" Pitch="65" RiffPosition="8.484375" Velocity="0" />
      <note Length="0.09375" Pitch="53" RiffPosition="8.5" Velocity="0" />
      <note Length="0.0625" Pitch="65" RiffPosition="8.59375" Velocity="0" />
      <note Length="0.03125" Pitch="70" RiffPosition="8.65625" Velocity="0" />
      <note Length="0.03125" Pitch="67" RiffPosition="8.6875" Velocity="0" />
      <note Length="0.015625" Pitch="61" RiffPosition="8.71875" Velocity="0" />
      <note Length="0.015625" Pitch="60" RiffPosition="8.734375" Velocity="0" />
      <note Length="0.09375" Pitch="58" RiffPosition="8.75" Velocity="0" />
      <note Length="0.0625" Pitch="53" RiffPosition="8.84375" Velocity="0" />
      <note Length="0.03125" Pitch="67" RiffPosition="8.90625" Velocity="0" />
      <note Length="0.03125" Pitch="53" RiffPosition="8.9375" Velocity="0" />
      <note Length="0.015625" Pitch="53" RiffPosition="8.96875" Velocity="0" />
      <note Length="0.015625" Pitch="53" RiffPosition="8.984375" Velocity="0" />
      <note Length="0.09375" Pitch="53" RiffPosition="9" Velocity="53" />
      <note Length="0.0625" Pitch="80" RiffPosition="9.09375" Velocity="51" />
      <note Length="0.03125" Pitch="65" RiffPosition="9.15625" Velocity="39" />
      <note Length="0.03125" Pitch="53" RiffPosition="9.1875" Velocity="86" />
      <note Length="0.015625" Pitch="49" RiffPosition="9.21875" Velocity="40" />
      <note Length="0.015625" Pitch="44" RiffPosition="9.234375" Velocity="21" />
      <note Length="0.09375" Pitch="43" RiffPosition="9.25" Velocity="64" />
      <note Length="0.0625" Pitch="67" RiffPosition="9.34375" Velocity="35" />
      <note Length="0.03125" Pitch="80" RiffPosition="9.40625" Velocity="78" />
      <note Length="0.03125" Pitch="77" RiffPosition="9.4375" Velocity="71" />
      <note Length="0.015625" Pitch="68" RiffPosition="9.46875" Velocity="55" />
      <note Length="0.015625" Pitch="65" RiffPosition="9.484375" Velocity="34" />
      <note Length="0.09375" Pitch="53" RiffPosition="9.5" Velocity="49" />
      <note Length="0.0625" Pitch="65" RiffPosition="9.59375" Velocity="20" />
      <note Length="0.03125" Pitch="70" RiffPosition="9.65625" Velocity="63" />
      <note Length="0.03125" Pitch="67" RiffPosition="9.6875" Velocity="64" />
      <note Length="0.015625" Pitch="61" RiffPosition="9.71875" Velocity="62" />
      <note Length="0.015625" Pitch="60" RiffPosition="9.734375" Velocity="49" />
      <note Length="0.09375" Pitch="58" RiffPosition="9.75" Velocity="34" />
      <note Length="0.0625" Pitch="53" RiffPosition="9.84375" Velocity="115" />
      <note Length="0.03125" Pitch="67" RiffPosition="9.90625" Velocity="47" />
      <note Length="0.03125" Pitch="53" RiffPosition="9.9375" Velocity="54" />
      <note Length="0.015625" Pitch="53" RiffPosition="9.96875" Velocity="47" />
      <note Length="0.015625" Pitch="53" RiffPosition="9.984375" Velocity="68" />
      <note Length="0.09375" Pitch="53" RiffPosition="10" Velocity="101" />
      <note Length="0.0625" Pitch="80" RiffPosition="10.09375" Velocity="38" />
      <note Length="0.03125" Pitch="65" RiffPosition="10.15625" Velocity="124" />
      <note Length="0.03125" Pitch="53" RiffPosition="10.1875" Velocity="38" />
      <note Length="0.015625" Pitch="49" RiffPosition="10.21875" Velocity="31" />
      <note Length="0.015625" Pitch="44" RiffPosition="10.234375" Velocity="52" />
      <note Length="0.09375" Pitch="43" RiffPosition="10.25" Velocity="24" />
      <note Length="0.0625" Pitch="67" RiffPosition="10.34375" Velocity="53" />
      <note Length="0.03125" Pitch="80" RiffPosition="10.40625" Velocity="30" />
      <note Length="0.03125" Pitch="77" RiffPosition="10.4375" Velocity="23" />
      <note Length="0.015625" Pitch="68" RiffPosition="10.46875" Velocity="108" />
      <note Length="0.015625" Pitch="65" RiffPosition="10.484375" Velocity="82" />
      <note Length="0.09375" Pitch="53" RiffPosition="10.5" Velocity="39" />
      <note Length="0.0625" Pitch="65" RiffPosition="10.59375" Velocity="68" />
      <note Length="0.03125" Pitch="70" RiffPosition="10.65625" Velocity="26" />
      <note Length="0.03125" Pitch="67" RiffPosition="10.6875" Velocity="100" />
      <note Length="0.015625" Pitch="61" RiffPosition="10.71875" Velocity="26" />
      <note Length="0.015625" Pitch="60" RiffPosition="10.734375" Velocity="35" />
      <note Length="0.09375" Pitch="58" RiffPosition="10.75" Velocity="55" />
      <note Length="0.0625" Pitch="53" RiffPosition="10.84375" Velocity="49" />
      <note Length="0.03125" Pitch="67" RiffPosition="10.90625" Velocity="41" />
      <note Length="0.03125" Pitch="53" RiffPosition="10.9375" Velocity="85" />
      <note Length="0.015625" Pitch="53" RiffPosition="10.96875" Velocity="42" />
      <note Length="0.015625" Pitch="53" RiffPosition="10.984375" Velocity="20" />
      <note Length="0.09375" Pitch="53" RiffPosition="11" Velocity="62" />
      <note Length="0.0625" Pitch="80" RiffPosition="11,09375" Velocity="33" />
      <note Length="0.03125" Pitch="65" RiffPosition="11,15625" Velocity="76" />
      <note Length="0.03125" Pitch="53" RiffPosition="11,1875" Velocity="69" />
      <note Length="0.015625" Pitch="49" RiffPosition="11,21875" Velocity="57" />
      <note Length="0.015625" Pitch="44" RiffPosition="11,234375" Velocity="36" />
      <note Length="0.09375" Pitch="43" RiffPosition="11,25" Velocity="47" />
      <note Length="0.0625" Pitch="67" RiffPosition="11,34375" Velocity="22" />
      <note Length="0.03125" Pitch="80" RiffPosition="11,40625" Velocity="61" />
      <note Length="0.03125" Pitch="77" RiffPosition="11,4375" Velocity="66" />
      <note Length="0.015625" Pitch="68" RiffPosition="11,46875" Velocity="60" />
      <note Length="0.015625" Pitch="65" RiffPosition="11,484375" Velocity="51" />
      <note Length="0.09375" Pitch="53" RiffPosition="11,5" Velocity="32" />
      <note Length="0.0625" Pitch="65" RiffPosition="11,59375" Velocity="117" />
      <note Length="0.03125" Pitch="70" RiffPosition="11,65625" Velocity="45" />
      <note Length="0.03125" Pitch="67" RiffPosition="11,6875" Velocity="52" />
      <note Length="0.015625" Pitch="61" RiffPosition="11,71875" Velocity="45" />
      <note Length="0.015625" Pitch="60" RiffPosition="11,734375" Velocity="66" />
      <note Length="0.09375" Pitch="58" RiffPosition="11,75" Velocity="103" />
      <note Length="0.0625" Pitch="53" RiffPosition="11,84375" Velocity="40" />
      <note Length="0.03125" Pitch="67" RiffPosition="11,90625" Velocity="122" />
      <note Length="0.03125" Pitch="53" RiffPosition="11,9375" Velocity="36" />
      <note Length="0.015625" Pitch="53" RiffPosition="11,96875" Velocity="29" />
      <note Length="0.015625" Pitch="53" RiffPosition="11,984375" Velocity="51" />
      <note Length="0.09375" Pitch="53" RiffPosition="12" Velocity="26" />
      <note Length="0.0625" Pitch="80" RiffPosition="12.09375" Velocity="55" />
      <note Length="0.03125" Pitch="65" RiffPosition="12.15625" Velocity="28" />
      <note Length="0.03125" Pitch="53" RiffPosition="12.1875" Velocity="21" />
      <note Length="0.015625" Pitch="49" RiffPosition="12.21875" Velocity="106" />
      <note Length="0.015625" Pitch="44" RiffPosition="12.234375" Velocity="84" />
      <note Length="0.09375" Pitch="43" RiffPosition="12.25" Velocity="41" />
      <note Length="0.0625" Pitch="67" RiffPosition="12.34375" Velocity="70" />
      <note Length="0.03125" Pitch="80" RiffPosition="12.40625" Velocity="28" />
      <note Length="0.03125" Pitch="77" RiffPosition="12.4375" Velocity="98" />
      <note Length="0.015625" Pitch="68" RiffPosition="12.46875" Velocity="28" />
      <note Length="0.015625" Pitch="65" RiffPosition="12.484375" Velocity="33" />
      <note Length="0.09375" Pitch="53" RiffPosition="12.5" Velocity="57" />
      <note Length="0.0625" Pitch="65" RiffPosition="12.59375" Velocity="47" />
      <note Length="0.03125" Pitch="70" RiffPosition="12.65625" Velocity="43" />
      <note Length="0.03125" Pitch="67" RiffPosition="12.6875" Velocity="83" />
      <note Length="0.015625" Pitch="61" RiffPosition="12.71875" Velocity="44" />
      <note Length="0.015625" Pitch="60" RiffPosition="12.734375" Velocity="22" />
      <note Length="0.09375" Pitch="58" RiffPosition="12.75" Velocity="60" />
      <note Length="0.0625" Pitch="53" RiffPosition="12.84375" Velocity="31" />
      <note Length="0.03125" Pitch="67" RiffPosition="12.90625" Velocity="74" />
      <note Length="0.03125" Pitch="53" RiffPosition="12.9375" Velocity="67" />
      <note Length="0.015625" Pitch="53" RiffPosition="12.96875" Velocity="74" />
      <note Length="0.015625" Pitch="53" RiffPosition="12.984375" Velocity="38" />
      <note Length="0.09375" Pitch="53" RiffPosition="13" Velocity="0" />
      <note Length="0.0625" Pitch="80" RiffPosition="13.09375" Velocity="0" />
      <note Length="0.03125" Pitch="65" RiffPosition="13.15625" Velocity="0" />
      <note Length="0.03125" Pitch="53" RiffPosition="13.1875" Velocity="0" />
      <note Length="0.015625" Pitch="49" RiffPosition="13.21875" Velocity="0" />
      <note Length="0.015625" Pitch="44" RiffPosition="13.234375" Velocity="0" />
      <note Length="0.09375" Pitch="43" RiffPosition="13.25" Velocity="0" />
      <note Length="0.0625" Pitch="67" RiffPosition="13.34375" Velocity="0" />
      <note Length="0.03125" Pitch="80" RiffPosition="13.40625" Velocity="0" />
      <note Length="0.03125" Pitch="77" RiffPosition="13.4375" Velocity="0" />
      <note Length="0.015625" Pitch="68" RiffPosition="13.46875" Velocity="0" />
      <note Length="0.015625" Pitch="65" RiffPosition="13.484375" Velocity="0" />
      <note Length="0.09375" Pitch="53" RiffPosition="13.5" Velocity="0" />
      <note Length="0.0625" Pitch="65" RiffPosition="13.59375" Velocity="0" />
      <note Length="0.03125" Pitch="70" RiffPosition="13.65625" Velocity="0" />
      <note Length="0.03125" Pitch="67" RiffPosition="13.6875" Velocity="0" />
      <note Length="0.015625" Pitch="61" RiffPosition="13.71875" Velocity="0" />
      <note Length="0.015625" Pitch="60" RiffPosition="13.734375" Velocity="0" />
      <note Length="0.09375" Pitch="58" RiffPosition="13.75" Velocity="0" />
      <note Length="0.0625" Pitch="53" RiffPosition="13.84375" Velocity="0" />
      <note Length="0.03125" Pitch="67" RiffPosition="13.90625" Velocity="0" />
      <note Length="0.03125" Pitch="53" RiffPosition="13.9375" Velocity="0" />
      <note Length="0.015625" Pitch="53" RiffPosition="13.96875" Velocity="0" />
      <note Length="0.015625" Pitch="53" RiffPosition="13.984375" Velocity="0" />
    </riff>
    <riff IsDrum="True" MidiInstrument="0" Tempo="120" Length="14">
      <note Length="0.0625" Pitch="40" RiffPosition="0" Velocity="0" />
      <note Length="0.0625" Pitch="40" RiffPosition="0.0625" Velocity="0" />
      <note Length="0.0625" Pitch="40" RiffPosition="0.125" Velocity="0" />
      <note Length="0.0625" Pitch="40" RiffPosition="0.1875" Velocity="0" />
      <note Length="0.0625" Pitch="40" RiffPosition="0.25" Velocity="0" />
      <note Length="0.0625" Pitch="40" RiffPosition="0.3125" Velocity="0" />
      <note Length="0.0625" Pitch="40" RiffPosition="0.375" Velocity="0" />
      <note Length="0.0625" Pitch="40" RiffPosition="0.4375" Velocity="0" />
      <note Length="0.0625" Pitch="40" RiffPosition="0.5" Velocity="0" />
      <note Length="0.0625" Pitch="40" RiffPosition="0.5625" Velocity="0" />
      <note Length="0.0625" Pitch="40" RiffPosition="0.625" Velocity="0" />
      <note Length="0.0625" Pitch="40" RiffPosition="0.6875" Velocity="0" />
      <note Length="0.0625" Pitch="40" RiffPosition="0.75" Velocity="0" />
      <note Length="0.0625" Pitch="40" RiffPosition="0.8125" Velocity="0" />
      <note Length="0.0625" Pitch="40" RiffPosition="0.875" Velocity="0" />
      <note Length="0.0625" Pitch="40" RiffPosition="0.9375" Velocity="0" />
      <note Length="0.0625" Pitch="40" RiffPosition="1" Velocity="0" />
      <note Length="0.0625" Pitch="40" RiffPosition="1,0625" Velocity="0" />
      <note Length="0.0625" Pitch="40" RiffPosition="1,125" Velocity="0" />
      <note Length="0.0625" Pitch="40" RiffPosition="1,1875" Velocity="0" />
      <note Length="0.0625" Pitch="40" RiffPosition="1,25" Velocity="0" />
      <note Length="0.0625" Pitch="40" RiffPosition="1,3125" Velocity="0" />
      <note Length="0.0625" Pitch="40" RiffPosition="1,375" Velocity="0" />
      <note Length="0.0625" Pitch="40" RiffPosition="1,4375" Velocity="0" />
      <note Length="0.0625" Pitch="40" RiffPosition="1,5" Velocity="0" />
      <note Length="0.0625" Pitch="40" RiffPosition="1,5625" Velocity="0" />
      <note Length="0.0625" Pitch="40" RiffPosition="1,625" Velocity="0" />
      <note Length="0.0625" Pitch="40" RiffPosition="1,6875" Velocity="0" />
      <note Length="0.0625" Pitch="40" RiffPosition="1,75" Velocity="0" />
      <note Length="0.0625" Pitch="40" RiffPosition="1,8125" Velocity="0" />
      <note Length="0.0625" Pitch="40" RiffPosition="1,875" Velocity="0" />
      <note Length="0.0625" Pitch="40" RiffPosition="1,9375" Velocity="0" />
      <note Length="0.0625" Pitch="40" RiffPosition="2" Velocity="0" />
      <note Length="0.0625" Pitch="40" RiffPosition="2.0625" Velocity="0" />
      <note Length="0.0625" Pitch="40" RiffPosition="2.125" Velocity="0" />
      <note Length="0.0625" Pitch="40" RiffPosition="2.1875" Velocity="0" />
      <note Length="0.0625" Pitch="40" RiffPosition="2.25" Velocity="0" />
      <note Length="0.0625" Pitch="40" RiffPosition="2.3125" Velocity="0" />
      <note Length="0.0625" Pitch="40" RiffPosition="2.375" Velocity="0" />
      <note Length="0.0625" Pitch="40" RiffPosition="2.4375" Velocity="0" />
      <note Length="0.0625" Pitch="40" RiffPosition="2.5" Velocity="0" />
      <note Length="0.0625" Pitch="40" RiffPosition="2.5625" Velocity="0" />
      <note Length="0.0625" Pitch="40" RiffPosition="2.625" Velocity="0" />
      <note Length="0.0625" Pitch="40" RiffPosition="2.6875" Velocity="0" />
      <note Length="0.0625" Pitch="40" RiffPosition="2.75" Velocity="0" />
      <note Length="0.0625" Pitch="40" RiffPosition="2.8125" Velocity="0" />
      <note Length="0.0625" Pitch="40" RiffPosition="2.875" Velocity="0" />
      <note Length="0.0625" Pitch="40" RiffPosition="2.9375" Velocity="0" />
      <note Length="0.0625" Pitch="40" RiffPosition="3" Velocity="0" />
      <note Length="0.0625" Pitch="40" RiffPosition="3.0625" Velocity="0" />
      <note Length="0.0625" Pitch="40" RiffPosition="3.125" Velocity="0" />
      <note Length="0.0625" Pitch="40" RiffPosition="3.1875" Velocity="0" />
      <note Length="0.0625" Pitch="40" RiffPosition="3.25" Velocity="0" />
      <note Length="0.0625" Pitch="40" RiffPosition="3.3125" Velocity="0" />
      <note Length="0.0625" Pitch="40" RiffPosition="3.375" Velocity="0" />
      <note Length="0.0625" Pitch="40" RiffPosition="3.4375" Velocity="0" />
      <note Length="0.0625" Pitch="40" RiffPosition="3.5" Velocity="0" />
      <note Length="0.0625" Pitch="40" RiffPosition="3.5625" Velocity="0" />
      <note Length="0.0625" Pitch="40" RiffPosition="3.625" Velocity="0" />
      <note Length="0.0625" Pitch="40" RiffPosition="3.6875" Velocity="0" />
      <note Length="0.0625" Pitch="40" RiffPosition="3.75" Velocity="0" />
      <note Length="0.0625" Pitch="40" RiffPosition="3.8125" Velocity="0" />
      <note Length="0.0625" Pitch="40" RiffPosition="3.875" Velocity="0" />
      <note Length="0.0625" Pitch="40" RiffPosition="3.9375" Velocity="0" />
      <note Length="0.0625" Pitch="40" RiffPosition="4" Velocity="0" />
      <note Length="0.0625" Pitch="40" RiffPosition="4.0625" Velocity="0" />
      <note Length="0.0625" Pitch="40" RiffPosition="4.125" Velocity="0" />
      <note Length="0.0625" Pitch="40" RiffPosition="4.1875" Velocity="0" />
      <note Length="0.0625" Pitch="40" RiffPosition="4.25" Velocity="0" />
      <note Length="0.0625" Pitch="40" RiffPosition="4.3125" Velocity="0" />
      <note Length="0.0625" Pitch="40" RiffPosition="4.375" Velocity="0" />
      <note Length="0.0625" Pitch="40" RiffPosition="4.4375" Velocity="0" />
      <note Length="0.0625" Pitch="40" RiffPosition="4.5" Velocity="0" />
      <note Length="0.0625" Pitch="40" RiffPosition="4.5625" Velocity="0" />
      <note Length="0.0625" Pitch="40" RiffPosition="4.625" Velocity="0" />
      <note Length="0.0625" Pitch="40" RiffPosition="4.6875" Velocity="0" />
      <note Length="0.0625" Pitch="40" RiffPosition="4.75" Velocity="0" />
      <note Length="0.0625" Pitch="40" RiffPosition="4.8125" Velocity="0" />
      <note Length="0.0625" Pitch="40" RiffPosition="4.875" Velocity="0" />
      <note Length="0.0625" Pitch="40" RiffPosition="4.9375" Velocity="0" />
      <note Length="0.0625" Pitch="40" RiffPosition="5" Velocity="0" />
      <note Length="0.0625" Pitch="40" RiffPosition="5.0625" Velocity="105" />
      <note Length="0.0625" Pitch="40" RiffPosition="5.125" Velocity="0" />
      <note Length="0.0625" Pitch="40" RiffPosition="5.1875" Velocity="105" />
      <note Length="0.0625" Pitch="40" RiffPosition="5.25" Velocity="0" />
      <note Length="0.0625" Pitch="40" RiffPosition="5.3125" Velocity="105" />
      <note Length="0.0625" Pitch="40" RiffPosition="5.375" Velocity="0" />
      <note Length="0.0625" Pitch="40" RiffPosition="5.4375" Velocity="105" />
      <note Length="0.0625" Pitch="40" RiffPosition="5.5" Velocity="0" />
      <note Length="0.0625" Pitch="40" RiffPosition="5.5625" Velocity="105" />
      <note Length="0.0625" Pitch="40" RiffPosition="5.625" Velocity="0" />
      <note Length="0.0625" Pitch="40" RiffPosition="5.6875" Velocity="105" />
      <note Length="0.0625" Pitch="40" RiffPosition="5.75" Velocity="0" />
      <note Length="0.0625" Pitch="40" RiffPosition="5.8125" Velocity="105" />
      <note Length="0.0625" Pitch="40" RiffPosition="5.875" Velocity="0" />
      <note Length="0.0625" Pitch="40" RiffPosition="5.9375" Velocity="105" />
      <note Length="0.0625" Pitch="40" RiffPosition="6" Velocity="0" />
      <note Length="0.0625" Pitch="40" RiffPosition="6.0625" Velocity="105" />
      <note Length="0.0625" Pitch="40" RiffPosition="6.125" Velocity="0" />
      <note Length="0.0625" Pitch="40" RiffPosition="6.1875" Velocity="105" />
      <note Length="0.0625" Pitch="40" RiffPosition="6.25" Velocity="0" />
      <note Length="0.0625" Pitch="40" RiffPosition="6.3125" Velocity="105" />
      <note Length="0.0625" Pitch="40" RiffPosition="6.375" Velocity="0" />
      <note Length="0.0625" Pitch="40" RiffPosition="6.4375" Velocity="105" />
      <note Length="0.0625" Pitch="40" RiffPosition="6.5" Velocity="0" />
      <note Length="0.0625" Pitch="40" RiffPosition="6.5625" Velocity="105" />
      <note Length="0.0625" Pitch="40" RiffPosition="6.625" Velocity="0" />
      <note Length="0.0625" Pitch="40" RiffPosition="6.6875" Velocity="105" />
      <note Length="0.0625" Pitch="40" RiffPosition="6.75" Velocity="0" />
      <note Length="0.0625" Pitch="40" RiffPosition="6.8125" Velocity="105" />
      <note Length="0.0625" Pitch="40" RiffPosition="6.875" Velocity="0" />
      <note Length="0.0625" Pitch="40" RiffPosition="6.9375" Velocity="105" />
      <note Length="0.0625" Pitch="40" RiffPosition="7" Velocity="0" />
      <note Length="0.0625" Pitch="40" RiffPosition="7.0625" Velocity="105" />
      <note Length="0.0625" Pitch="40" RiffPosition="7.125" Velocity="0" />
      <note Length="0.0625" Pitch="40" RiffPosition="7.1875" Velocity="105" />
      <note Length="0.0625" Pitch="40" RiffPosition="7.25" Velocity="0" />
      <note Length="0.0625" Pitch="40" RiffPosition="7.3125" Velocity="105" />
      <note Length="0.0625" Pitch="40" RiffPosition="7.375" Velocity="0" />
      <note Length="0.0625" Pitch="40" RiffPosition="7.4375" Velocity="105" />
      <note Length="0.0625" Pitch="40" RiffPosition="7.5" Velocity="0" />
      <note Length="0.0625" Pitch="40" RiffPosition="7.5625" Velocity="105" />
      <note Length="0.0625" Pitch="40" RiffPosition="7.625" Velocity="0" />
      <note Length="0.0625" Pitch="40" RiffPosition="7.6875" Velocity="105" />
      <note Length="0.0625" Pitch="40" RiffPosition="7.75" Velocity="0" />
      <note Length="0.0625" Pitch="40" RiffPosition="7.8125" Velocity="105" />
      <note Length="0.0625" Pitch="40" RiffPosition="7.875" Velocity="0" />
      <note Length="0.0625" Pitch="40" RiffPosition="7.9375" Velocity="105" />
      <note Length="0.0625" Pitch="40" RiffPosition="8" Velocity="0" />
      <note Length="0.0625" Pitch="40" RiffPosition="8.0625" Velocity="105" />
      <note Length="0.0625" Pitch="40" RiffPosition="8.125" Velocity="0" />
      <note Length="0.0625" Pitch="40" RiffPosition="8.1875" Velocity="105" />
      <note Length="0.0625" Pitch="40" RiffPosition="8.25" Velocity="0" />
      <note Length="0.0625" Pitch="40" RiffPosition="8.3125" Velocity="105" />
      <note Length="0.0625" Pitch="40" RiffPosition="8.375" Velocity="0" />
      <note Length="0.0625" Pitch="40" RiffPosition="8.4375" Velocity="105" />
      <note Length="0.0625" Pitch="40" RiffPosition="8.5" Velocity="0" />
      <note Length="0.0625" Pitch="40" RiffPosition="8.5625" Velocity="105" />
      <note Length="0.0625" Pitch="40" RiffPosition="8.625" Velocity="0" />
      <note Length="0.0625" Pitch="40" RiffPosition="8.6875" Velocity="105" />
      <note Length="0.0625" Pitch="40" RiffPosition="8.75" Velocity="0" />
      <note Length="0.0625" Pitch="40" RiffPosition="8.8125" Velocity="105" />
      <note Length="0.0625" Pitch="40" RiffPosition="8.875" Velocity="0" />
      <note Length="0.0625" Pitch="40" RiffPosition="8.9375" Velocity="105" />
      <note Length="0.0625" Pitch="40" RiffPosition="9" Velocity="0" />
      <note Length="0.0625" Pitch="40" RiffPosition="9.0625" Velocity="105" />
      <note Length="0.0625" Pitch="40" RiffPosition="9.125" Velocity="0" />
      <note Length="0.0625" Pitch="40" RiffPosition="9.1875" Velocity="105" />
      <note Length="0.0625" Pitch="40" RiffPosition="9.25" Velocity="0" />
      <note Length="0.0625" Pitch="40" RiffPosition="9.3125" Velocity="105" />
      <note Length="0.0625" Pitch="40" RiffPosition="9.375" Velocity="0" />
      <note Length="0.0625" Pitch="40" RiffPosition="9.4375" Velocity="105" />
      <note Length="0.0625" Pitch="40" RiffPosition="9.5" Velocity="0" />
      <note Length="0.0625" Pitch="40" RiffPosition="9.5625" Velocity="105" />
      <note Length="0.0625" Pitch="40" RiffPosition="9.625" Velocity="0" />
      <note Length="0.0625" Pitch="40" RiffPosition="9.6875" Velocity="105" />
      <note Length="0.0625" Pitch="40" RiffPosition="9.75" Velocity="0" />
      <note Length="0.0625" Pitch="40" RiffPosition="9.8125" Velocity="105" />
      <note Length="0.0625" Pitch="40" RiffPosition="9.875" Velocity="0" />
      <note Length="0.0625" Pitch="40" RiffPosition="9.9375" Velocity="105" />
      <note Length="0.0625" Pitch="40" RiffPosition="10" Velocity="0" />
      <note Length="0.0625" Pitch="40" RiffPosition="10.0625" Velocity="105" />
      <note Length="0.0625" Pitch="40" RiffPosition="10.125" Velocity="0" />
      <note Length="0.0625" Pitch="40" RiffPosition="10.1875" Velocity="105" />
      <note Length="0.0625" Pitch="40" RiffPosition="10.25" Velocity="0" />
      <note Length="0.0625" Pitch="40" RiffPosition="10.3125" Velocity="105" />
      <note Length="0.0625" Pitch="40" RiffPosition="10.375" Velocity="0" />
      <note Length="0.0625" Pitch="40" RiffPosition="10.4375" Velocity="105" />
      <note Length="0.0625" Pitch="40" RiffPosition="10.5" Velocity="0" />
      <note Length="0.0625" Pitch="40" RiffPosition="10.5625" Velocity="105" />
      <note Length="0.0625" Pitch="40" RiffPosition="10.625" Velocity="0" />
      <note Length="0.0625" Pitch="40" RiffPosition="10.6875" Velocity="105" />
      <note Length="0.0625" Pitch="40" RiffPosition="10.75" Velocity="0" />
      <note Length="0.0625" Pitch="40" RiffPosition="10.8125" Velocity="105" />
      <note Length="0.0625" Pitch="40" RiffPosition="10.875" Velocity="0" />
      <note Length="0.0625" Pitch="40" RiffPosition="10.9375" Velocity="105" />
      <note Length="0.0625" Pitch="40" RiffPosition="11" Velocity="0" />
      <note Length="0.0625" Pitch="40" RiffPosition="11,0625" Velocity="0" />
      <note Length="0.0625" Pitch="40" RiffPosition="11,125" Velocity="0" />
      <note Length="0.0625" Pitch="40" RiffPosition="11,1875" Velocity="0" />
      <note Length="0.0625" Pitch="40" RiffPosition="11,25" Velocity="0" />
      <note Length="0.0625" Pitch="40" RiffPosition="11,3125" Velocity="0" />
      <note Length="0.0625" Pitch="40" RiffPosition="11,375" Velocity="0" />
      <note Length="0.0625" Pitch="40" RiffPosition="11,4375" Velocity="0" />
      <note Length="0.0625" Pitch="40" RiffPosition="11,5" Velocity="0" />
      <note Length="0.0625" Pitch="40" RiffPosition="11,5625" Velocity="0" />
      <note Length="0.0625" Pitch="40" RiffPosition="11,625" Velocity="0" />
      <note Length="0.0625" Pitch="40" RiffPosition="11,6875" Velocity="0" />
      <note Length="0.0625" Pitch="40" RiffPosition="11,75" Velocity="0" />
      <note Length="0.0625" Pitch="40" RiffPosition="11,8125" Velocity="0" />
      <note Length="0.0625" Pitch="40" RiffPosition="11,875" Velocity="0" />
      <note Length="0.0625" Pitch="40" RiffPosition="11,9375" Velocity="0" />
      <note Length="0.0625" Pitch="40" RiffPosition="12" Velocity="0" />
      <note Length="0.0625" Pitch="40" RiffPosition="12.0625" Velocity="0" />
      <note Length="0.0625" Pitch="40" RiffPosition="12.125" Velocity="0" />
      <note Length="0.0625" Pitch="40" RiffPosition="12.1875" Velocity="0" />
      <note Length="0.0625" Pitch="40" RiffPosition="12.25" Velocity="0" />
      <note Length="0.0625" Pitch="40" RiffPosition="12.3125" Velocity="0" />
      <note Length="0.0625" Pitch="40" RiffPosition="12.375" Velocity="0" />
      <note Length="0.0625" Pitch="40" RiffPosition="12.4375" Velocity="0" />
      <note Length="0.0625" Pitch="40" RiffPosition="12.5" Velocity="0" />
      <note Length="0.0625" Pitch="40" RiffPosition="12.5625" Velocity="0" />
      <note Length="0.0625" Pitch="40" RiffPosition="12.625" Velocity="0" />
      <note Length="0.0625" Pitch="40" RiffPosition="12.6875" Velocity="0" />
      <note Length="0.0625" Pitch="40" RiffPosition="12.75" Velocity="0" />
      <note Length="0.0625" Pitch="40" RiffPosition="12.8125" Velocity="0" />
      <note Length="0.0625" Pitch="40" RiffPosition="12.875" Velocity="0" />
      <note Length="0.0625" Pitch="40" RiffPosition="12.9375" Velocity="0" />
      <note Length="0.0625" Pitch="40" RiffPosition="13" Velocity="0" />
      <note Length="0.0625" Pitch="40" RiffPosition="13.0625" Velocity="105" />
      <note Length="0.0625" Pitch="40" RiffPosition="13.125" Velocity="0" />
      <note Length="0.0625" Pitch="40" RiffPosition="13.1875" Velocity="105" />
      <note Length="0.0625" Pitch="40" RiffPosition="13.25" Velocity="0" />
      <note Length="0.0625" Pitch="40" RiffPosition="13.3125" Velocity="105" />
      <note Length="0.0625" Pitch="40" RiffPosition="13.375" Velocity="0" />
      <note Length="0.0625" Pitch="40" RiffPosition="13.4375" Velocity="105" />
      <note Length="0.0625" Pitch="40" RiffPosition="13.5" Velocity="0" />
      <note Length="0.0625" Pitch="40" RiffPosition="13.5625" Velocity="105" />
      <note Length="0.0625" Pitch="40" RiffPosition="13.625" Velocity="0" />
      <note Length="0.0625" Pitch="40" RiffPosition="13.6875" Velocity="105" />
      <note Length="0.0625" Pitch="40" RiffPosition="13.75" Velocity="0" />
      <note Length="0.0625" Pitch="40" RiffPosition="13.8125" Velocity="105" />
      <note Length="0.0625" Pitch="40" RiffPosition="13.875" Velocity="0" />
      <note Length="0.0625" Pitch="40" RiffPosition="13.9375" Velocity="105" />
    </riff>
    <riff IsDrum="False" MidiInstrument="34" Tempo="80" Length="14">
      <note Length="0.015625" Pitch="49" RiffPosition="0" Velocity="0" />
      <note Length="0.015625" Pitch="48" RiffPosition="0.015625" Velocity="0" />
      <note Length="0.0078125" Pitch="49" RiffPosition="0.03125" Velocity="0" />
      <note Length="0.0234375" Pitch="49" RiffPosition="0.0390625" Velocity="0" />
      <note Length="0.015625" Pitch="41" RiffPosition="0.0625" Velocity="0" />
      <note Length="0.046875" Pitch="41" RiffPosition="0.078125" Velocity="0" />
      <note Length="0.015625" Pitch="53" RiffPosition="0.125" Velocity="0" />
      <note Length="0.015625" Pitch="55" RiffPosition="0.140625" Velocity="0" />
      <note Length="0.0078125" Pitch="53" RiffPosition="0.15625" Velocity="0" />
      <note Length="0.0234375" Pitch="53" RiffPosition="0.1640625" Velocity="0" />
      <note Length="0.015625" Pitch="41" RiffPosition="0.1875" Velocity="0" />
      <note Length="0.046875" Pitch="41" RiffPosition="0.203125" Velocity="0" />
      <note Length="0.015625" Pitch="49" RiffPosition="0.25" Velocity="0" />
      <note Length="0.015625" Pitch="48" RiffPosition="0.265625" Velocity="0" />
      <note Length="0.0078125" Pitch="41" RiffPosition="0.28125" Velocity="0" />
      <note Length="0.0234375" Pitch="41" RiffPosition="0.2890625" Velocity="0" />
      <note Length="0.015625" Pitch="41" RiffPosition="0.3125" Velocity="0" />
      <note Length="0.046875" Pitch="41" RiffPosition="0.328125" Velocity="0" />
      <note Length="0.015625" Pitch="56" RiffPosition="0.375" Velocity="0" />
      <note Length="0.015625" Pitch="56" RiffPosition="0.390625" Velocity="0" />
      <note Length="0.0078125" Pitch="56" RiffPosition="0.40625" Velocity="0" />
      <note Length="0.0234375" Pitch="56" RiffPosition="0.4140625" Velocity="0" />
      <note Length="0.015625" Pitch="53" RiffPosition="0.4375" Velocity="0" />
      <note Length="0.046875" Pitch="53" RiffPosition="0.453125" Velocity="0" />
      <note Length="0.015625" Pitch="41" RiffPosition="0.5" Velocity="0" />
      <note Length="0.015625" Pitch="41" RiffPosition="0.515625" Velocity="0" />
      <note Length="0.0078125" Pitch="41" RiffPosition="0.53125" Velocity="0" />
      <note Length="0.0234375" Pitch="41" RiffPosition="0.5390625" Velocity="0" />
      <note Length="0.015625" Pitch="53" RiffPosition="0.5625" Velocity="0" />
      <note Length="0.046875" Pitch="53" RiffPosition="0.578125" Velocity="0" />
      <note Length="0.015625" Pitch="56" RiffPosition="0.625" Velocity="0" />
      <note Length="0.015625" Pitch="58" RiffPosition="0.640625" Velocity="0" />
      <note Length="0.0078125" Pitch="56" RiffPosition="0.65625" Velocity="0" />
      <note Length="0.0234375" Pitch="56" RiffPosition="0.6640625" Velocity="0" />
      <note Length="0.015625" Pitch="55" RiffPosition="0.6875" Velocity="0" />
      <note Length="0.046875" Pitch="53" RiffPosition="0.703125" Velocity="0" />
      <note Length="0.015625" Pitch="41" RiffPosition="0.75" Velocity="0" />
      <note Length="0.015625" Pitch="41" RiffPosition="0.765625" Velocity="0" />
      <note Length="0.0078125" Pitch="41" RiffPosition="0.78125" Velocity="0" />
      <note Length="0.0234375" Pitch="41" RiffPosition="0.7890625" Velocity="0" />
      <note Length="0.015625" Pitch="41" RiffPosition="0.8125" Velocity="0" />
      <note Length="0.046875" Pitch="53" RiffPosition="0.828125" Velocity="0" />
      <note Length="0.015625" Pitch="56" RiffPosition="0.875" Velocity="0" />
      <note Length="0.015625" Pitch="56" RiffPosition="0.890625" Velocity="0" />
      <note Length="0.0078125" Pitch="55" RiffPosition="0.90625" Velocity="0" />
      <note Length="0.0234375" Pitch="55" RiffPosition="0.9140625" Velocity="0" />
      <note Length="0.015625" Pitch="53" RiffPosition="0.9375" Velocity="0" />
      <note Length="0.046875" Pitch="41" RiffPosition="0.953125" Velocity="0" />
      <note Length="0.015625" Pitch="49" RiffPosition="1" Velocity="0" />
      <note Length="0.015625" Pitch="48" RiffPosition="1,015625" Velocity="0" />
      <note Length="0.0078125" Pitch="49" RiffPosition="1,03125" Velocity="0" />
      <note Length="0.0234375" Pitch="49" RiffPosition="1,0390625" Velocity="0" />
      <note Length="0.015625" Pitch="41" RiffPosition="1,0625" Velocity="0" />
      <note Length="0.046875" Pitch="41" RiffPosition="1,078125" Velocity="0" />
      <note Length="0.015625" Pitch="53" RiffPosition="1,125" Velocity="0" />
      <note Length="0.015625" Pitch="55" RiffPosition="1,140625" Velocity="0" />
      <note Length="0.0078125" Pitch="53" RiffPosition="1,15625" Velocity="0" />
      <note Length="0.0234375" Pitch="53" RiffPosition="1,1640625" Velocity="0" />
      <note Length="0.015625" Pitch="41" RiffPosition="1,1875" Velocity="0" />
      <note Length="0.046875" Pitch="41" RiffPosition="1,203125" Velocity="0" />
      <note Length="0.015625" Pitch="49" RiffPosition="1,25" Velocity="0" />
      <note Length="0.015625" Pitch="48" RiffPosition="1,265625" Velocity="0" />
      <note Length="0.0078125" Pitch="41" RiffPosition="1,28125" Velocity="0" />
      <note Length="0.0234375" Pitch="41" RiffPosition="1,2890625" Velocity="0" />
      <note Length="0.015625" Pitch="41" RiffPosition="1,3125" Velocity="0" />
      <note Length="0.046875" Pitch="41" RiffPosition="1,328125" Velocity="0" />
      <note Length="0.015625" Pitch="56" RiffPosition="1,375" Velocity="0" />
      <note Length="0.015625" Pitch="56" RiffPosition="1,390625" Velocity="0" />
      <note Length="0.0078125" Pitch="56" RiffPosition="1,40625" Velocity="0" />
      <note Length="0.0234375" Pitch="56" RiffPosition="1,4140625" Velocity="0" />
      <note Length="0.015625" Pitch="53" RiffPosition="1,4375" Velocity="0" />
      <note Length="0.046875" Pitch="53" RiffPosition="1,453125" Velocity="0" />
      <note Length="0.015625" Pitch="41" RiffPosition="1,5" Velocity="0" />
      <note Length="0.015625" Pitch="41" RiffPosition="1,515625" Velocity="0" />
      <note Length="0.0078125" Pitch="41" RiffPosition="1,53125" Velocity="0" />
      <note Length="0.0234375" Pitch="41" RiffPosition="1,5390625" Velocity="0" />
      <note Length="0.015625" Pitch="53" RiffPosition="1,5625" Velocity="0" />
      <note Length="0.046875" Pitch="53" RiffPosition="1,578125" Velocity="0" />
      <note Length="0.015625" Pitch="56" RiffPosition="1,625" Velocity="0" />
      <note Length="0.015625" Pitch="58" RiffPosition="1,640625" Velocity="0" />
      <note Length="0.0078125" Pitch="56" RiffPosition="1,65625" Velocity="0" />
      <note Length="0.0234375" Pitch="56" RiffPosition="1,6640625" Velocity="0" />
      <note Length="0.015625" Pitch="55" RiffPosition="1,6875" Velocity="0" />
      <note Length="0.046875" Pitch="53" RiffPosition="1,703125" Velocity="0" />
      <note Length="0.015625" Pitch="41" RiffPosition="1,75" Velocity="0" />
      <note Length="0.015625" Pitch="41" RiffPosition="1,765625" Velocity="0" />
      <note Length="0.0078125" Pitch="41" RiffPosition="1,78125" Velocity="0" />
      <note Length="0.0234375" Pitch="41" RiffPosition="1,7890625" Velocity="0" />
      <note Length="0.015625" Pitch="41" RiffPosition="1,8125" Velocity="0" />
      <note Length="0.046875" Pitch="53" RiffPosition="1,828125" Velocity="0" />
      <note Length="0.015625" Pitch="56" RiffPosition="1,875" Velocity="0" />
      <note Length="0.015625" Pitch="56" RiffPosition="1,890625" Velocity="0" />
      <note Length="0.0078125" Pitch="55" RiffPosition="1,90625" Velocity="0" />
      <note Length="0.0234375" Pitch="55" RiffPosition="1,9140625" Velocity="0" />
      <note Length="0.015625" Pitch="53" RiffPosition="1,9375" Velocity="0" />
      <note Length="0.046875" Pitch="41" RiffPosition="1,953125" Velocity="0" />
      <note Length="0.015625" Pitch="49" RiffPosition="2" Velocity="0" />
      <note Length="0.015625" Pitch="48" RiffPosition="2.015625" Velocity="0" />
      <note Length="0.0078125" Pitch="49" RiffPosition="2.03125" Velocity="0" />
      <note Length="0.0234375" Pitch="49" RiffPosition="2.0390625" Velocity="0" />
      <note Length="0.015625" Pitch="41" RiffPosition="2.0625" Velocity="0" />
      <note Length="0.046875" Pitch="41" RiffPosition="2.078125" Velocity="0" />
      <note Length="0.015625" Pitch="53" RiffPosition="2.125" Velocity="0" />
      <note Length="0.015625" Pitch="55" RiffPosition="2.140625" Velocity="0" />
      <note Length="0.0078125" Pitch="53" RiffPosition="2.15625" Velocity="0" />
      <note Length="0.0234375" Pitch="53" RiffPosition="2.1640625" Velocity="0" />
      <note Length="0.015625" Pitch="41" RiffPosition="2.1875" Velocity="0" />
      <note Length="0.046875" Pitch="41" RiffPosition="2.203125" Velocity="0" />
      <note Length="0.015625" Pitch="49" RiffPosition="2.25" Velocity="0" />
      <note Length="0.015625" Pitch="48" RiffPosition="2.265625" Velocity="0" />
      <note Length="0.0078125" Pitch="41" RiffPosition="2.28125" Velocity="0" />
      <note Length="0.0234375" Pitch="41" RiffPosition="2.2890625" Velocity="0" />
      <note Length="0.015625" Pitch="41" RiffPosition="2.3125" Velocity="0" />
      <note Length="0.046875" Pitch="41" RiffPosition="2.328125" Velocity="0" />
      <note Length="0.015625" Pitch="56" RiffPosition="2.375" Velocity="0" />
      <note Length="0.015625" Pitch="56" RiffPosition="2.390625" Velocity="0" />
      <note Length="0.0078125" Pitch="56" RiffPosition="2.40625" Velocity="0" />
      <note Length="0.0234375" Pitch="56" RiffPosition="2.4140625" Velocity="0" />
      <note Length="0.015625" Pitch="53" RiffPosition="2.4375" Velocity="0" />
      <note Length="0.046875" Pitch="53" RiffPosition="2.453125" Velocity="0" />
      <note Length="0.015625" Pitch="41" RiffPosition="2.5" Velocity="0" />
      <note Length="0.015625" Pitch="41" RiffPosition="2.515625" Velocity="0" />
      <note Length="0.0078125" Pitch="41" RiffPosition="2.53125" Velocity="0" />
      <note Length="0.0234375" Pitch="41" RiffPosition="2.5390625" Velocity="0" />
      <note Length="0.015625" Pitch="53" RiffPosition="2.5625" Velocity="0" />
      <note Length="0.046875" Pitch="53" RiffPosition="2.578125" Velocity="0" />
      <note Length="0.015625" Pitch="56" RiffPosition="2.625" Velocity="0" />
      <note Length="0.015625" Pitch="58" RiffPosition="2.640625" Velocity="0" />
      <note Length="0.0078125" Pitch="56" RiffPosition="2.65625" Velocity="0" />
      <note Length="0.0234375" Pitch="56" RiffPosition="2.6640625" Velocity="0" />
      <note Length="0.015625" Pitch="55" RiffPosition="2.6875" Velocity="0" />
      <note Length="0.046875" Pitch="53" RiffPosition="2.703125" Velocity="0" />
      <note Length="0.015625" Pitch="41" RiffPosition="2.75" Velocity="0" />
      <note Length="0.015625" Pitch="41" RiffPosition="2.765625" Velocity="0" />
      <note Length="0.0078125" Pitch="41" RiffPosition="2.78125" Velocity="0" />
      <note Length="0.0234375" Pitch="41" RiffPosition="2.7890625" Velocity="0" />
      <note Length="0.015625" Pitch="41" RiffPosition="2.8125" Velocity="0" />
      <note Length="0.046875" Pitch="53" RiffPosition="2.828125" Velocity="0" />
      <note Length="0.015625" Pitch="56" RiffPosition="2.875" Velocity="0" />
      <note Length="0.015625" Pitch="56" RiffPosition="2.890625" Velocity="0" />
      <note Length="0.0078125" Pitch="55" RiffPosition="2.90625" Velocity="0" />
      <note Length="0.0234375" Pitch="55" RiffPosition="2.9140625" Velocity="0" />
      <note Length="0.015625" Pitch="53" RiffPosition="2.9375" Velocity="0" />
      <note Length="0.046875" Pitch="41" RiffPosition="2.953125" Velocity="0" />
      <note Length="0.015625" Pitch="49" RiffPosition="3" Velocity="0" />
      <note Length="0.015625" Pitch="48" RiffPosition="3.015625" Velocity="0" />
      <note Length="0.0078125" Pitch="49" RiffPosition="3.03125" Velocity="0" />
      <note Length="0.0234375" Pitch="49" RiffPosition="3.0390625" Velocity="0" />
      <note Length="0.015625" Pitch="41" RiffPosition="3.0625" Velocity="0" />
      <note Length="0.046875" Pitch="41" RiffPosition="3.078125" Velocity="0" />
      <note Length="0.015625" Pitch="53" RiffPosition="3.125" Velocity="0" />
      <note Length="0.015625" Pitch="55" RiffPosition="3.140625" Velocity="0" />
      <note Length="0.0078125" Pitch="53" RiffPosition="3.15625" Velocity="0" />
      <note Length="0.0234375" Pitch="53" RiffPosition="3.1640625" Velocity="0" />
      <note Length="0.015625" Pitch="41" RiffPosition="3.1875" Velocity="0" />
      <note Length="0.046875" Pitch="41" RiffPosition="3.203125" Velocity="0" />
      <note Length="0.015625" Pitch="49" RiffPosition="3.25" Velocity="0" />
      <note Length="0.015625" Pitch="48" RiffPosition="3.265625" Velocity="0" />
      <note Length="0.0078125" Pitch="41" RiffPosition="3.28125" Velocity="0" />
      <note Length="0.0234375" Pitch="41" RiffPosition="3.2890625" Velocity="0" />
      <note Length="0.015625" Pitch="41" RiffPosition="3.3125" Velocity="0" />
      <note Length="0.046875" Pitch="41" RiffPosition="3.328125" Velocity="0" />
      <note Length="0.015625" Pitch="56" RiffPosition="3.375" Velocity="0" />
      <note Length="0.015625" Pitch="56" RiffPosition="3.390625" Velocity="0" />
      <note Length="0.0078125" Pitch="56" RiffPosition="3.40625" Velocity="0" />
      <note Length="0.0234375" Pitch="56" RiffPosition="3.4140625" Velocity="0" />
      <note Length="0.015625" Pitch="53" RiffPosition="3.4375" Velocity="0" />
      <note Length="0.046875" Pitch="53" RiffPosition="3.453125" Velocity="0" />
      <note Length="0.015625" Pitch="41" RiffPosition="3.5" Velocity="0" />
      <note Length="0.015625" Pitch="41" RiffPosition="3.515625" Velocity="0" />
      <note Length="0.0078125" Pitch="41" RiffPosition="3.53125" Velocity="0" />
      <note Length="0.0234375" Pitch="41" RiffPosition="3.5390625" Velocity="0" />
      <note Length="0.015625" Pitch="53" RiffPosition="3.5625" Velocity="0" />
      <note Length="0.046875" Pitch="53" RiffPosition="3.578125" Velocity="0" />
      <note Length="0.015625" Pitch="56" RiffPosition="3.625" Velocity="0" />
      <note Length="0.015625" Pitch="58" RiffPosition="3.640625" Velocity="0" />
      <note Length="0.0078125" Pitch="56" RiffPosition="3.65625" Velocity="0" />
      <note Length="0.0234375" Pitch="56" RiffPosition="3.6640625" Velocity="0" />
      <note Length="0.015625" Pitch="55" RiffPosition="3.6875" Velocity="0" />
      <note Length="0.046875" Pitch="53" RiffPosition="3.703125" Velocity="0" />
      <note Length="0.015625" Pitch="41" RiffPosition="3.75" Velocity="0" />
      <note Length="0.015625" Pitch="41" RiffPosition="3.765625" Velocity="0" />
      <note Length="0.0078125" Pitch="41" RiffPosition="3.78125" Velocity="0" />
      <note Length="0.0234375" Pitch="41" RiffPosition="3.7890625" Velocity="0" />
      <note Length="0.015625" Pitch="41" RiffPosition="3.8125" Velocity="0" />
      <note Length="0.046875" Pitch="53" RiffPosition="3.828125" Velocity="0" />
      <note Length="0.015625" Pitch="56" RiffPosition="3.875" Velocity="0" />
      <note Length="0.015625" Pitch="56" RiffPosition="3.890625" Velocity="0" />
      <note Length="0.0078125" Pitch="55" RiffPosition="3.90625" Velocity="0" />
      <note Length="0.0234375" Pitch="55" RiffPosition="3.9140625" Velocity="0" />
      <note Length="0.015625" Pitch="53" RiffPosition="3.9375" Velocity="0" />
      <note Length="0.046875" Pitch="41" RiffPosition="3.953125" Velocity="0" />
      <note Length="0.015625" Pitch="49" RiffPosition="4" Velocity="0" />
      <note Length="0.015625" Pitch="48" RiffPosition="4.015625" Velocity="0" />
      <note Length="0.0078125" Pitch="49" RiffPosition="4.03125" Velocity="0" />
      <note Length="0.0234375" Pitch="49" RiffPosition="4.0390625" Velocity="0" />
      <note Length="0.015625" Pitch="41" RiffPosition="4.0625" Velocity="0" />
      <note Length="0.046875" Pitch="41" RiffPosition="4.078125" Velocity="0" />
      <note Length="0.015625" Pitch="53" RiffPosition="4.125" Velocity="0" />
      <note Length="0.015625" Pitch="55" RiffPosition="4.140625" Velocity="0" />
      <note Length="0.0078125" Pitch="53" RiffPosition="4.15625" Velocity="0" />
      <note Length="0.0234375" Pitch="53" RiffPosition="4.1640625" Velocity="0" />
      <note Length="0.015625" Pitch="41" RiffPosition="4.1875" Velocity="0" />
      <note Length="0.046875" Pitch="41" RiffPosition="4.203125" Velocity="0" />
      <note Length="0.015625" Pitch="49" RiffPosition="4.25" Velocity="0" />
      <note Length="0.015625" Pitch="48" RiffPosition="4.265625" Velocity="0" />
      <note Length="0.0078125" Pitch="41" RiffPosition="4.28125" Velocity="0" />
      <note Length="0.0234375" Pitch="41" RiffPosition="4.2890625" Velocity="0" />
      <note Length="0.015625" Pitch="41" RiffPosition="4.3125" Velocity="0" />
      <note Length="0.046875" Pitch="41" RiffPosition="4.328125" Velocity="0" />
      <note Length="0.015625" Pitch="56" RiffPosition="4.375" Velocity="0" />
      <note Length="0.015625" Pitch="56" RiffPosition="4.390625" Velocity="0" />
      <note Length="0.0078125" Pitch="56" RiffPosition="4.40625" Velocity="0" />
      <note Length="0.0234375" Pitch="56" RiffPosition="4.4140625" Velocity="0" />
      <note Length="0.015625" Pitch="53" RiffPosition="4.4375" Velocity="0" />
      <note Length="0.046875" Pitch="53" RiffPosition="4.453125" Velocity="0" />
      <note Length="0.015625" Pitch="41" RiffPosition="4.5" Velocity="0" />
      <note Length="0.015625" Pitch="41" RiffPosition="4.515625" Velocity="0" />
      <note Length="0.0078125" Pitch="41" RiffPosition="4.53125" Velocity="0" />
      <note Length="0.0234375" Pitch="41" RiffPosition="4.5390625" Velocity="0" />
      <note Length="0.015625" Pitch="53" RiffPosition="4.5625" Velocity="0" />
      <note Length="0.046875" Pitch="53" RiffPosition="4.578125" Velocity="0" />
      <note Length="0.015625" Pitch="56" RiffPosition="4.625" Velocity="0" />
      <note Length="0.015625" Pitch="58" RiffPosition="4.640625" Velocity="0" />
      <note Length="0.0078125" Pitch="56" RiffPosition="4.65625" Velocity="0" />
      <note Length="0.0234375" Pitch="56" RiffPosition="4.6640625" Velocity="0" />
      <note Length="0.015625" Pitch="55" RiffPosition="4.6875" Velocity="0" />
      <note Length="0.046875" Pitch="53" RiffPosition="4.703125" Velocity="0" />
      <note Length="0.015625" Pitch="41" RiffPosition="4.75" Velocity="0" />
      <note Length="0.015625" Pitch="41" RiffPosition="4.765625" Velocity="0" />
      <note Length="0.0078125" Pitch="41" RiffPosition="4.78125" Velocity="0" />
      <note Length="0.0234375" Pitch="41" RiffPosition="4.7890625" Velocity="0" />
      <note Length="0.015625" Pitch="41" RiffPosition="4.8125" Velocity="0" />
      <note Length="0.046875" Pitch="53" RiffPosition="4.828125" Velocity="0" />
      <note Length="0.015625" Pitch="56" RiffPosition="4.875" Velocity="0" />
      <note Length="0.015625" Pitch="56" RiffPosition="4.890625" Velocity="0" />
      <note Length="0.0078125" Pitch="55" RiffPosition="4.90625" Velocity="0" />
      <note Length="0.0234375" Pitch="55" RiffPosition="4.9140625" Velocity="0" />
      <note Length="0.015625" Pitch="53" RiffPosition="4.9375" Velocity="0" />
      <note Length="0.046875" Pitch="41" RiffPosition="4.953125" Velocity="0" />
      <note Length="0.015625" Pitch="49" RiffPosition="5" Velocity="84" />
      <note Length="0.015625" Pitch="48" RiffPosition="5.015625" Velocity="66" />
      <note Length="0.0078125" Pitch="49" RiffPosition="5.03125" Velocity="46" />
      <note Length="0.0234375" Pitch="49" RiffPosition="5.0390625" Velocity="48" />
      <note Length="0.015625" Pitch="41" RiffPosition="5.0625" Velocity="67" />
      <note Length="0.046875" Pitch="41" RiffPosition="5.078125" Velocity="70" />
      <note Length="0.015625" Pitch="53" RiffPosition="5.125" Velocity="77" />
      <note Length="0.015625" Pitch="55" RiffPosition="5.140625" Velocity="65" />
      <note Length="0.0078125" Pitch="53" RiffPosition="5.15625" Velocity="66" />
      <note Length="0.0234375" Pitch="53" RiffPosition="5.1640625" Velocity="66" />
      <note Length="0.015625" Pitch="41" RiffPosition="5.1875" Velocity="52" />
      <note Length="0.046875" Pitch="41" RiffPosition="5.203125" Velocity="88" />
      <note Length="0.015625" Pitch="49" RiffPosition="5.25" Velocity="80" />
      <note Length="0.015625" Pitch="48" RiffPosition="5.265625" Velocity="89" />
      <note Length="0.0078125" Pitch="41" RiffPosition="5.28125" Velocity="85" />
      <note Length="0.0234375" Pitch="41" RiffPosition="5.2890625" Velocity="83" />
      <note Length="0.015625" Pitch="41" RiffPosition="5.3125" Velocity="90" />
      <note Length="0.046875" Pitch="41" RiffPosition="5.328125" Velocity="85" />
      <note Length="0.015625" Pitch="56" RiffPosition="5.375" Velocity="72" />
      <note Length="0.015625" Pitch="56" RiffPosition="5.390625" Velocity="55" />
      <note Length="0.0078125" Pitch="56" RiffPosition="5.40625" Velocity="52" />
      <note Length="0.0234375" Pitch="56" RiffPosition="5.4140625" Velocity="50" />
      <note Length="0.015625" Pitch="53" RiffPosition="5.4375" Velocity="37" />
      <note Length="0.046875" Pitch="53" RiffPosition="5.453125" Velocity="39" />
      <note Length="0.015625" Pitch="41" RiffPosition="5.5" Velocity="42" />
      <note Length="0.015625" Pitch="41" RiffPosition="5.515625" Velocity="42" />
      <note Length="0.0078125" Pitch="41" RiffPosition="5.53125" Velocity="64" />
      <note Length="0.0234375" Pitch="41" RiffPosition="5.5390625" Velocity="63" />
      <note Length="0.015625" Pitch="53" RiffPosition="5.5625" Velocity="46" />
      <note Length="0.046875" Pitch="53" RiffPosition="5.578125" Velocity="43" />
      <note Length="0.015625" Pitch="56" RiffPosition="5.625" Velocity="38" />
      <note Length="0.015625" Pitch="58" RiffPosition="5.640625" Velocity="41" />
      <note Length="0.0078125" Pitch="56" RiffPosition="5.65625" Velocity="36" />
      <note Length="0.0234375" Pitch="56" RiffPosition="5.6640625" Velocity="36" />
      <note Length="0.015625" Pitch="55" RiffPosition="5.6875" Velocity="40" />
      <note Length="0.046875" Pitch="53" RiffPosition="5.703125" Velocity="74" />
      <note Length="0.015625" Pitch="41" RiffPosition="5.75" Velocity="63" />
      <note Length="0.015625" Pitch="41" RiffPosition="5.765625" Velocity="47" />
      <note Length="0.0078125" Pitch="41" RiffPosition="5.78125" Velocity="44" />
      <note Length="0.0234375" Pitch="41" RiffPosition="5.7890625" Velocity="44" />
      <note Length="0.015625" Pitch="41" RiffPosition="5.8125" Velocity="41" />
      <note Length="0.046875" Pitch="53" RiffPosition="5.828125" Velocity="42" />
      <note Length="0.015625" Pitch="56" RiffPosition="5.875" Velocity="38" />
      <note Length="0.015625" Pitch="56" RiffPosition="5.890625" Velocity="47" />
      <note Length="0.0078125" Pitch="55" RiffPosition="5.90625" Velocity="50" />
      <note Length="0.0234375" Pitch="55" RiffPosition="5.9140625" Velocity="51" />
      <note Length="0.015625" Pitch="53" RiffPosition="5.9375" Velocity="70" />
      <note Length="0.046875" Pitch="41" RiffPosition="5.953125" Velocity="74" />
      <note Length="0.015625" Pitch="49" RiffPosition="6" Velocity="87" />
      <note Length="0.015625" Pitch="48" RiffPosition="6.015625" Velocity="79" />
      <note Length="0.0078125" Pitch="49" RiffPosition="6.03125" Velocity="46" />
      <note Length="0.0234375" Pitch="49" RiffPosition="6.0390625" Velocity="48" />
      <note Length="0.015625" Pitch="41" RiffPosition="6.0625" Velocity="40" />
      <note Length="0.046875" Pitch="41" RiffPosition="6.078125" Velocity="44" />
      <note Length="0.015625" Pitch="53" RiffPosition="6.125" Velocity="51" />
      <note Length="0.015625" Pitch="55" RiffPosition="6.140625" Velocity="65" />
      <note Length="0.0078125" Pitch="53" RiffPosition="6.15625" Velocity="66" />
      <note Length="0.0234375" Pitch="53" RiffPosition="6.1640625" Velocity="66" />
      <note Length="0.015625" Pitch="41" RiffPosition="6.1875" Velocity="78" />
      <note Length="0.046875" Pitch="41" RiffPosition="6.203125" Velocity="39" />
      <note Length="0.015625" Pitch="49" RiffPosition="6.25" Velocity="39" />
      <note Length="0.015625" Pitch="48" RiffPosition="6.265625" Velocity="56" />
      <note Length="0.0078125" Pitch="41" RiffPosition="6.28125" Velocity="60" />
      <note Length="0.0234375" Pitch="41" RiffPosition="6.2890625" Velocity="62" />
      <note Length="0.015625" Pitch="41" RiffPosition="6.3125" Velocity="81" />
      <note Length="0.046875" Pitch="41" RiffPosition="6.328125" Velocity="86" />
      <note Length="0.015625" Pitch="56" RiffPosition="6.375" Velocity="99" />
      <note Length="0.015625" Pitch="56" RiffPosition="6.390625" Velocity="90" />
      <note Length="0.0078125" Pitch="56" RiffPosition="6.40625" Velocity="93" />
      <note Length="0.0234375" Pitch="56" RiffPosition="6.4140625" Velocity="95" />
      <note Length="0.015625" Pitch="53" RiffPosition="6.4375" Velocity="86" />
      <note Length="0.046875" Pitch="53" RiffPosition="6.453125" Velocity="88" />
      <note Length="0.015625" Pitch="41" RiffPosition="6.5" Velocity="90" />
      <note Length="0.015625" Pitch="41" RiffPosition="6.515625" Velocity="103" />
      <note Length="0.0078125" Pitch="41" RiffPosition="6.53125" Velocity="64" />
      <note Length="0.0234375" Pitch="41" RiffPosition="6.5390625" Velocity="63" />
      <note Length="0.015625" Pitch="53" RiffPosition="6.5625" Velocity="73" />
      <note Length="0.046875" Pitch="53" RiffPosition="6.578125" Velocity="70" />
      <note Length="0.015625" Pitch="56" RiffPosition="6.625" Velocity="58" />
      <note Length="0.015625" Pitch="58" RiffPosition="6.640625" Velocity="41" />
      <note Length="0.0078125" Pitch="56" RiffPosition="6.65625" Velocity="36" />
      <note Length="0.0234375" Pitch="56" RiffPosition="6.6640625" Velocity="36" />
      <note Length="0.015625" Pitch="55" RiffPosition="6.6875" Velocity="56" />
      <note Length="0.046875" Pitch="53" RiffPosition="6.703125" Velocity="98" />
      <note Length="0.015625" Pitch="41" RiffPosition="6.75" Velocity="109" />
      <note Length="0.015625" Pitch="41" RiffPosition="6.765625" Velocity="98" />
      <note Length="0.0078125" Pitch="41" RiffPosition="6.78125" Velocity="100" />
      <note Length="0.0234375" Pitch="41" RiffPosition="6.7890625" Velocity="101" />
      <note Length="0.015625" Pitch="41" RiffPosition="6.8125" Velocity="90" />
      <note Length="0.046875" Pitch="53" RiffPosition="6.828125" Velocity="90" />
      <note Length="0.015625" Pitch="56" RiffPosition="6.875" Velocity="87" />
      <note Length="0.015625" Pitch="56" RiffPosition="6.890625" Velocity="98" />
      <note Length="0.0078125" Pitch="55" RiffPosition="6.90625" Velocity="95" />
      <note Length="0.0234375" Pitch="55" RiffPosition="6.9140625" Velocity="93" />
      <note Length="0.015625" Pitch="53" RiffPosition="6.9375" Velocity="101" />
      <note Length="0.046875" Pitch="41" RiffPosition="6.953125" Velocity="97" />
      <note Length="0.015625" Pitch="49" RiffPosition="7" Velocity="84" />
      <note Length="0.015625" Pitch="48" RiffPosition="7.015625" Velocity="66" />
      <note Length="0.0078125" Pitch="49" RiffPosition="7.03125" Velocity="46" />
      <note Length="0.0234375" Pitch="49" RiffPosition="7.0390625" Velocity="48" />
      <note Length="0.015625" Pitch="41" RiffPosition="7.0625" Velocity="67" />
      <note Length="0.046875" Pitch="41" RiffPosition="7.078125" Velocity="70" />
      <note Length="0.015625" Pitch="53" RiffPosition="7.125" Velocity="77" />
      <note Length="0.015625" Pitch="55" RiffPosition="7.140625" Velocity="65" />
      <note Length="0.0078125" Pitch="53" RiffPosition="7.15625" Velocity="66" />
      <note Length="0.0234375" Pitch="53" RiffPosition="7.1640625" Velocity="66" />
      <note Length="0.015625" Pitch="41" RiffPosition="7.1875" Velocity="52" />
      <note Length="0.046875" Pitch="41" RiffPosition="7.203125" Velocity="88" />
      <note Length="0.015625" Pitch="49" RiffPosition="7.25" Velocity="80" />
      <note Length="0.015625" Pitch="48" RiffPosition="7.265625" Velocity="89" />
      <note Length="0.0078125" Pitch="41" RiffPosition="7.28125" Velocity="85" />
      <note Length="0.0234375" Pitch="41" RiffPosition="7.2890625" Velocity="83" />
      <note Length="0.015625" Pitch="41" RiffPosition="7.3125" Velocity="90" />
      <note Length="0.046875" Pitch="41" RiffPosition="7.328125" Velocity="85" />
      <note Length="0.015625" Pitch="56" RiffPosition="7.375" Velocity="72" />
      <note Length="0.015625" Pitch="56" RiffPosition="7.390625" Velocity="55" />
      <note Length="0.0078125" Pitch="56" RiffPosition="7.40625" Velocity="52" />
      <note Length="0.0234375" Pitch="56" RiffPosition="7.4140625" Velocity="50" />
      <note Length="0.015625" Pitch="53" RiffPosition="7.4375" Velocity="37" />
      <note Length="0.046875" Pitch="53" RiffPosition="7.453125" Velocity="39" />
      <note Length="0.015625" Pitch="41" RiffPosition="7.5" Velocity="42" />
      <note Length="0.015625" Pitch="41" RiffPosition="7.515625" Velocity="42" />
      <note Length="0.0078125" Pitch="41" RiffPosition="7.53125" Velocity="64" />
      <note Length="0.0234375" Pitch="41" RiffPosition="7.5390625" Velocity="63" />
      <note Length="0.015625" Pitch="53" RiffPosition="7.5625" Velocity="46" />
      <note Length="0.046875" Pitch="53" RiffPosition="7.578125" Velocity="43" />
      <note Length="0.015625" Pitch="56" RiffPosition="7.625" Velocity="38" />
      <note Length="0.015625" Pitch="58" RiffPosition="7.640625" Velocity="41" />
      <note Length="0.0078125" Pitch="56" RiffPosition="7.65625" Velocity="36" />
      <note Length="0.0234375" Pitch="56" RiffPosition="7.6640625" Velocity="36" />
      <note Length="0.015625" Pitch="55" RiffPosition="7.6875" Velocity="40" />
      <note Length="0.046875" Pitch="53" RiffPosition="7.703125" Velocity="74" />
      <note Length="0.015625" Pitch="41" RiffPosition="7.75" Velocity="63" />
      <note Length="0.015625" Pitch="41" RiffPosition="7.765625" Velocity="47" />
      <note Length="0.0078125" Pitch="41" RiffPosition="7.78125" Velocity="44" />
      <note Length="0.0234375" Pitch="41" RiffPosition="7.7890625" Velocity="44" />
      <note Length="0.015625" Pitch="41" RiffPosition="7.8125" Velocity="41" />
      <note Length="0.046875" Pitch="53" RiffPosition="7.828125" Velocity="42" />
      <note Length="0.015625" Pitch="56" RiffPosition="7.875" Velocity="38" />
      <note Length="0.015625" Pitch="56" RiffPosition="7.890625" Velocity="47" />
      <note Length="0.0078125" Pitch="55" RiffPosition="7.90625" Velocity="50" />
      <note Length="0.0234375" Pitch="55" RiffPosition="7.9140625" Velocity="51" />
      <note Length="0.015625" Pitch="53" RiffPosition="7.9375" Velocity="70" />
      <note Length="0.046875" Pitch="41" RiffPosition="7.953125" Velocity="74" />
      <note Length="0.015625" Pitch="49" RiffPosition="8" Velocity="87" />
      <note Length="0.015625" Pitch="48" RiffPosition="8.015625" Velocity="79" />
      <note Length="0.0078125" Pitch="49" RiffPosition="8.03125" Velocity="46" />
      <note Length="0.0234375" Pitch="49" RiffPosition="8.0390625" Velocity="48" />
      <note Length="0.015625" Pitch="41" RiffPosition="8.0625" Velocity="40" />
      <note Length="0.046875" Pitch="41" RiffPosition="8.078125" Velocity="44" />
      <note Length="0.015625" Pitch="53" RiffPosition="8.125" Velocity="51" />
      <note Length="0.015625" Pitch="55" RiffPosition="8.140625" Velocity="65" />
      <note Length="0.0078125" Pitch="53" RiffPosition="8.15625" Velocity="66" />
      <note Length="0.0234375" Pitch="53" RiffPosition="8.1640625" Velocity="66" />
      <note Length="0.015625" Pitch="41" RiffPosition="8.1875" Velocity="78" />
      <note Length="0.046875" Pitch="41" RiffPosition="8.203125" Velocity="39" />
      <note Length="0.015625" Pitch="49" RiffPosition="8.25" Velocity="39" />
      <note Length="0.015625" Pitch="48" RiffPosition="8.265625" Velocity="56" />
      <note Length="0.0078125" Pitch="41" RiffPosition="8.28125" Velocity="60" />
      <note Length="0.0234375" Pitch="41" RiffPosition="8.2890625" Velocity="62" />
      <note Length="0.015625" Pitch="41" RiffPosition="8.3125" Velocity="81" />
      <note Length="0.046875" Pitch="41" RiffPosition="8.328125" Velocity="86" />
      <note Length="0.015625" Pitch="56" RiffPosition="8.375" Velocity="99" />
      <note Length="0.015625" Pitch="56" RiffPosition="8.390625" Velocity="90" />
      <note Length="0.0078125" Pitch="56" RiffPosition="8.40625" Velocity="93" />
      <note Length="0.0234375" Pitch="56" RiffPosition="8.4140625" Velocity="95" />
      <note Length="0.015625" Pitch="53" RiffPosition="8.4375" Velocity="86" />
      <note Length="0.046875" Pitch="53" RiffPosition="8.453125" Velocity="88" />
      <note Length="0.015625" Pitch="41" RiffPosition="8.5" Velocity="90" />
      <note Length="0.015625" Pitch="41" RiffPosition="8.515625" Velocity="103" />
      <note Length="0.0078125" Pitch="41" RiffPosition="8.53125" Velocity="64" />
      <note Length="0.0234375" Pitch="41" RiffPosition="8.5390625" Velocity="63" />
      <note Length="0.015625" Pitch="53" RiffPosition="8.5625" Velocity="73" />
      <note Length="0.046875" Pitch="53" RiffPosition="8.578125" Velocity="70" />
      <note Length="0.015625" Pitch="56" RiffPosition="8.625" Velocity="58" />
      <note Length="0.015625" Pitch="58" RiffPosition="8.640625" Velocity="41" />
      <note Length="0.0078125" Pitch="56" RiffPosition="8.65625" Velocity="36" />
      <note Length="0.0234375" Pitch="56" RiffPosition="8.6640625" Velocity="36" />
      <note Length="0.015625" Pitch="55" RiffPosition="8.6875" Velocity="56" />
      <note Length="0.046875" Pitch="53" RiffPosition="8.703125" Velocity="98" />
      <note Length="0.015625" Pitch="41" RiffPosition="8.75" Velocity="109" />
      <note Length="0.015625" Pitch="41" RiffPosition="8.765625" Velocity="98" />
      <note Length="0.0078125" Pitch="41" RiffPosition="8.78125" Velocity="100" />
      <note Length="0.0234375" Pitch="41" RiffPosition="8.7890625" Velocity="101" />
      <note Length="0.015625" Pitch="41" RiffPosition="8.8125" Velocity="90" />
      <note Length="0.046875" Pitch="53" RiffPosition="8.828125" Velocity="90" />
      <note Length="0.015625" Pitch="56" RiffPosition="8.875" Velocity="87" />
      <note Length="0.015625" Pitch="56" RiffPosition="8.890625" Velocity="98" />
      <note Length="0.0078125" Pitch="55" RiffPosition="8.90625" Velocity="95" />
      <note Length="0.0234375" Pitch="55" RiffPosition="8.9140625" Velocity="93" />
      <note Length="0.015625" Pitch="53" RiffPosition="8.9375" Velocity="101" />
      <note Length="0.046875" Pitch="41" RiffPosition="8.953125" Velocity="97" />
      <note Length="0.015625" Pitch="49" RiffPosition="9" Velocity="84" />
      <note Length="0.015625" Pitch="48" RiffPosition="9.015625" Velocity="66" />
      <note Length="0.0078125" Pitch="49" RiffPosition="9.03125" Velocity="46" />
      <note Length="0.0234375" Pitch="49" RiffPosition="9.0390625" Velocity="48" />
      <note Length="0.015625" Pitch="41" RiffPosition="9.0625" Velocity="67" />
      <note Length="0.046875" Pitch="41" RiffPosition="9.078125" Velocity="70" />
      <note Length="0.015625" Pitch="53" RiffPosition="9.125" Velocity="77" />
      <note Length="0.015625" Pitch="55" RiffPosition="9.140625" Velocity="65" />
      <note Length="0.0078125" Pitch="53" RiffPosition="9.15625" Velocity="66" />
      <note Length="0.0234375" Pitch="53" RiffPosition="9.1640625" Velocity="66" />
      <note Length="0.015625" Pitch="41" RiffPosition="9.1875" Velocity="52" />
      <note Length="0.046875" Pitch="41" RiffPosition="9.203125" Velocity="88" />
      <note Length="0.015625" Pitch="49" RiffPosition="9.25" Velocity="80" />
      <note Length="0.015625" Pitch="48" RiffPosition="9.265625" Velocity="89" />
      <note Length="0.0078125" Pitch="41" RiffPosition="9.28125" Velocity="85" />
      <note Length="0.0234375" Pitch="41" RiffPosition="9.2890625" Velocity="83" />
      <note Length="0.015625" Pitch="41" RiffPosition="9.3125" Velocity="90" />
      <note Length="0.046875" Pitch="41" RiffPosition="9.328125" Velocity="85" />
      <note Length="0.015625" Pitch="56" RiffPosition="9.375" Velocity="72" />
      <note Length="0.015625" Pitch="56" RiffPosition="9.390625" Velocity="55" />
      <note Length="0.0078125" Pitch="56" RiffPosition="9.40625" Velocity="52" />
      <note Length="0.0234375" Pitch="56" RiffPosition="9.4140625" Velocity="50" />
      <note Length="0.015625" Pitch="53" RiffPosition="9.4375" Velocity="37" />
      <note Length="0.046875" Pitch="53" RiffPosition="9.453125" Velocity="39" />
      <note Length="0.015625" Pitch="41" RiffPosition="9.5" Velocity="42" />
      <note Length="0.015625" Pitch="41" RiffPosition="9.515625" Velocity="42" />
      <note Length="0.0078125" Pitch="41" RiffPosition="9.53125" Velocity="64" />
      <note Length="0.0234375" Pitch="41" RiffPosition="9.5390625" Velocity="63" />
      <note Length="0.015625" Pitch="53" RiffPosition="9.5625" Velocity="46" />
      <note Length="0.046875" Pitch="53" RiffPosition="9.578125" Velocity="43" />
      <note Length="0.015625" Pitch="56" RiffPosition="9.625" Velocity="38" />
      <note Length="0.015625" Pitch="58" RiffPosition="9.640625" Velocity="41" />
      <note Length="0.0078125" Pitch="56" RiffPosition="9.65625" Velocity="36" />
      <note Length="0.0234375" Pitch="56" RiffPosition="9.6640625" Velocity="36" />
      <note Length="0.015625" Pitch="55" RiffPosition="9.6875" Velocity="40" />
      <note Length="0.046875" Pitch="53" RiffPosition="9.703125" Velocity="74" />
      <note Length="0.015625" Pitch="41" RiffPosition="9.75" Velocity="63" />
      <note Length="0.015625" Pitch="41" RiffPosition="9.765625" Velocity="47" />
      <note Length="0.0078125" Pitch="41" RiffPosition="9.78125" Velocity="44" />
      <note Length="0.0234375" Pitch="41" RiffPosition="9.7890625" Velocity="44" />
      <note Length="0.015625" Pitch="41" RiffPosition="9.8125" Velocity="41" />
      <note Length="0.046875" Pitch="53" RiffPosition="9.828125" Velocity="42" />
      <note Length="0.015625" Pitch="56" RiffPosition="9.875" Velocity="38" />
      <note Length="0.015625" Pitch="56" RiffPosition="9.890625" Velocity="47" />
      <note Length="0.0078125" Pitch="55" RiffPosition="9.90625" Velocity="50" />
      <note Length="0.0234375" Pitch="55" RiffPosition="9.9140625" Velocity="51" />
      <note Length="0.015625" Pitch="53" RiffPosition="9.9375" Velocity="70" />
      <note Length="0.046875" Pitch="41" RiffPosition="9.953125" Velocity="74" />
      <note Length="0.015625" Pitch="49" RiffPosition="10" Velocity="87" />
      <note Length="0.015625" Pitch="48" RiffPosition="10.015625" Velocity="79" />
      <note Length="0.0078125" Pitch="49" RiffPosition="10.03125" Velocity="46" />
      <note Length="0.0234375" Pitch="49" RiffPosition="10.0390625" Velocity="48" />
      <note Length="0.015625" Pitch="41" RiffPosition="10.0625" Velocity="40" />
      <note Length="0.046875" Pitch="41" RiffPosition="10.078125" Velocity="44" />
      <note Length="0.015625" Pitch="53" RiffPosition="10.125" Velocity="51" />
      <note Length="0.015625" Pitch="55" RiffPosition="10.140625" Velocity="65" />
      <note Length="0.0078125" Pitch="53" RiffPosition="10.15625" Velocity="66" />
      <note Length="0.0234375" Pitch="53" RiffPosition="10.1640625" Velocity="66" />
      <note Length="0.015625" Pitch="41" RiffPosition="10.1875" Velocity="78" />
      <note Length="0.046875" Pitch="41" RiffPosition="10.203125" Velocity="39" />
      <note Length="0.015625" Pitch="49" RiffPosition="10.25" Velocity="39" />
      <note Length="0.015625" Pitch="48" RiffPosition="10.265625" Velocity="56" />
      <note Length="0.0078125" Pitch="41" RiffPosition="10.28125" Velocity="60" />
      <note Length="0.0234375" Pitch="41" RiffPosition="10.2890625" Velocity="62" />
      <note Length="0.015625" Pitch="41" RiffPosition="10.3125" Velocity="81" />
      <note Length="0.046875" Pitch="41" RiffPosition="10.328125" Velocity="86" />
      <note Length="0.015625" Pitch="56" RiffPosition="10.375" Velocity="99" />
      <note Length="0.015625" Pitch="56" RiffPosition="10.390625" Velocity="90" />
      <note Length="0.0078125" Pitch="56" RiffPosition="10.40625" Velocity="93" />
      <note Length="0.0234375" Pitch="56" RiffPosition="10.4140625" Velocity="95" />
      <note Length="0.015625" Pitch="53" RiffPosition="10.4375" Velocity="86" />
      <note Length="0.046875" Pitch="53" RiffPosition="10.453125" Velocity="88" />
      <note Length="0.015625" Pitch="41" RiffPosition="10.5" Velocity="90" />
      <note Length="0.015625" Pitch="41" RiffPosition="10.515625" Velocity="103" />
      <note Length="0.0078125" Pitch="41" RiffPosition="10.53125" Velocity="64" />
      <note Length="0.0234375" Pitch="41" RiffPosition="10.5390625" Velocity="63" />
      <note Length="0.015625" Pitch="53" RiffPosition="10.5625" Velocity="73" />
      <note Length="0.046875" Pitch="53" RiffPosition="10.578125" Velocity="70" />
      <note Length="0.015625" Pitch="56" RiffPosition="10.625" Velocity="58" />
      <note Length="0.015625" Pitch="58" RiffPosition="10.640625" Velocity="41" />
      <note Length="0.0078125" Pitch="56" RiffPosition="10.65625" Velocity="36" />
      <note Length="0.0234375" Pitch="56" RiffPosition="10.6640625" Velocity="36" />
      <note Length="0.015625" Pitch="55" RiffPosition="10.6875" Velocity="56" />
      <note Length="0.046875" Pitch="53" RiffPosition="10.703125" Velocity="98" />
      <note Length="0.015625" Pitch="41" RiffPosition="10.75" Velocity="109" />
      <note Length="0.015625" Pitch="41" RiffPosition="10.765625" Velocity="98" />
      <note Length="0.0078125" Pitch="41" RiffPosition="10.78125" Velocity="100" />
      <note Length="0.0234375" Pitch="41" RiffPosition="10.7890625" Velocity="101" />
      <note Length="0.015625" Pitch="41" RiffPosition="10.8125" Velocity="90" />
      <note Length="0.046875" Pitch="53" RiffPosition="10.828125" Velocity="90" />
      <note Length="0.015625" Pitch="56" RiffPosition="10.875" Velocity="87" />
      <note Length="0.015625" Pitch="56" RiffPosition="10.890625" Velocity="98" />
      <note Length="0.0078125" Pitch="55" RiffPosition="10.90625" Velocity="95" />
      <note Length="0.0234375" Pitch="55" RiffPosition="10.9140625" Velocity="93" />
      <note Length="0.015625" Pitch="53" RiffPosition="10.9375" Velocity="101" />
      <note Length="0.046875" Pitch="41" RiffPosition="10.953125" Velocity="97" />
      <note Length="0.015625" Pitch="49" RiffPosition="11" Velocity="84" />
      <note Length="0.015625" Pitch="48" RiffPosition="11,015625" Velocity="66" />
      <note Length="0.0078125" Pitch="49" RiffPosition="11,03125" Velocity="46" />
      <note Length="0.0234375" Pitch="49" RiffPosition="11,0390625" Velocity="48" />
      <note Length="0.015625" Pitch="41" RiffPosition="11,0625" Velocity="67" />
      <note Length="0.046875" Pitch="41" RiffPosition="11,078125" Velocity="70" />
      <note Length="0.015625" Pitch="53" RiffPosition="11,125" Velocity="77" />
      <note Length="0.015625" Pitch="55" RiffPosition="11,140625" Velocity="65" />
      <note Length="0.0078125" Pitch="53" RiffPosition="11,15625" Velocity="66" />
      <note Length="0.0234375" Pitch="53" RiffPosition="11,1640625" Velocity="66" />
      <note Length="0.015625" Pitch="41" RiffPosition="11,1875" Velocity="52" />
      <note Length="0.046875" Pitch="41" RiffPosition="11,203125" Velocity="88" />
      <note Length="0.015625" Pitch="49" RiffPosition="11,25" Velocity="80" />
      <note Length="0.015625" Pitch="48" RiffPosition="11,265625" Velocity="89" />
      <note Length="0.0078125" Pitch="41" RiffPosition="11,28125" Velocity="85" />
      <note Length="0.0234375" Pitch="41" RiffPosition="11,2890625" Velocity="83" />
      <note Length="0.015625" Pitch="41" RiffPosition="11,3125" Velocity="90" />
      <note Length="0.046875" Pitch="41" RiffPosition="11,328125" Velocity="85" />
      <note Length="0.015625" Pitch="56" RiffPosition="11,375" Velocity="72" />
      <note Length="0.015625" Pitch="56" RiffPosition="11,390625" Velocity="55" />
      <note Length="0.0078125" Pitch="56" RiffPosition="11,40625" Velocity="52" />
      <note Length="0.0234375" Pitch="56" RiffPosition="11,4140625" Velocity="50" />
      <note Length="0.015625" Pitch="53" RiffPosition="11,4375" Velocity="37" />
      <note Length="0.046875" Pitch="53" RiffPosition="11,453125" Velocity="39" />
      <note Length="0.015625" Pitch="41" RiffPosition="11,5" Velocity="42" />
      <note Length="0.015625" Pitch="41" RiffPosition="11,515625" Velocity="42" />
      <note Length="0.0078125" Pitch="41" RiffPosition="11,53125" Velocity="64" />
      <note Length="0.0234375" Pitch="41" RiffPosition="11,5390625" Velocity="63" />
      <note Length="0.015625" Pitch="53" RiffPosition="11,5625" Velocity="46" />
      <note Length="0.046875" Pitch="53" RiffPosition="11,578125" Velocity="43" />
      <note Length="0.015625" Pitch="56" RiffPosition="11,625" Velocity="38" />
      <note Length="0.015625" Pitch="58" RiffPosition="11,640625" Velocity="41" />
      <note Length="0.0078125" Pitch="56" RiffPosition="11,65625" Velocity="36" />
      <note Length="0.0234375" Pitch="56" RiffPosition="11,6640625" Velocity="36" />
      <note Length="0.015625" Pitch="55" RiffPosition="11,6875" Velocity="40" />
      <note Length="0.046875" Pitch="53" RiffPosition="11,703125" Velocity="74" />
      <note Length="0.015625" Pitch="41" RiffPosition="11,75" Velocity="63" />
      <note Length="0.015625" Pitch="41" RiffPosition="11,765625" Velocity="47" />
      <note Length="0.0078125" Pitch="41" RiffPosition="11,78125" Velocity="44" />
      <note Length="0.0234375" Pitch="41" RiffPosition="11,7890625" Velocity="44" />
      <note Length="0.015625" Pitch="41" RiffPosition="11,8125" Velocity="41" />
      <note Length="0.046875" Pitch="53" RiffPosition="11,828125" Velocity="42" />
      <note Length="0.015625" Pitch="56" RiffPosition="11,875" Velocity="38" />
      <note Length="0.015625" Pitch="56" RiffPosition="11,890625" Velocity="47" />
      <note Length="0.0078125" Pitch="55" RiffPosition="11,90625" Velocity="50" />
      <note Length="0.0234375" Pitch="55" RiffPosition="11,9140625" Velocity="51" />
      <note Length="0.015625" Pitch="53" RiffPosition="11,9375" Velocity="70" />
      <note Length="0.046875" Pitch="41" RiffPosition="11,953125" Velocity="74" />
      <note Length="0.015625" Pitch="49" RiffPosition="12" Velocity="87" />
      <note Length="0.015625" Pitch="48" RiffPosition="12.015625" Velocity="79" />
      <note Length="0.0078125" Pitch="49" RiffPosition="12.03125" Velocity="46" />
      <note Length="0.0234375" Pitch="49" RiffPosition="12.0390625" Velocity="48" />
      <note Length="0.015625" Pitch="41" RiffPosition="12.0625" Velocity="40" />
      <note Length="0.046875" Pitch="41" RiffPosition="12.078125" Velocity="44" />
      <note Length="0.015625" Pitch="53" RiffPosition="12.125" Velocity="51" />
      <note Length="0.015625" Pitch="55" RiffPosition="12.140625" Velocity="65" />
      <note Length="0.0078125" Pitch="53" RiffPosition="12.15625" Velocity="66" />
      <note Length="0.0234375" Pitch="53" RiffPosition="12.1640625" Velocity="66" />
      <note Length="0.015625" Pitch="41" RiffPosition="12.1875" Velocity="78" />
      <note Length="0.046875" Pitch="41" RiffPosition="12.203125" Velocity="39" />
      <note Length="0.015625" Pitch="49" RiffPosition="12.25" Velocity="39" />
      <note Length="0.015625" Pitch="48" RiffPosition="12.265625" Velocity="56" />
      <note Length="0.0078125" Pitch="41" RiffPosition="12.28125" Velocity="60" />
      <note Length="0.0234375" Pitch="41" RiffPosition="12.2890625" Velocity="62" />
      <note Length="0.015625" Pitch="41" RiffPosition="12.3125" Velocity="81" />
      <note Length="0.046875" Pitch="41" RiffPosition="12.328125" Velocity="86" />
      <note Length="0.015625" Pitch="56" RiffPosition="12.375" Velocity="99" />
      <note Length="0.015625" Pitch="56" RiffPosition="12.390625" Velocity="90" />
      <note Length="0.0078125" Pitch="56" RiffPosition="12.40625" Velocity="93" />
      <note Length="0.0234375" Pitch="56" RiffPosition="12.4140625" Velocity="95" />
      <note Length="0.015625" Pitch="53" RiffPosition="12.4375" Velocity="86" />
      <note Length="0.046875" Pitch="53" RiffPosition="12.453125" Velocity="88" />
      <note Length="0.015625" Pitch="41" RiffPosition="12.5" Velocity="90" />
      <note Length="0.015625" Pitch="41" RiffPosition="12.515625" Velocity="103" />
      <note Length="0.0078125" Pitch="41" RiffPosition="12.53125" Velocity="64" />
      <note Length="0.0234375" Pitch="41" RiffPosition="12.5390625" Velocity="63" />
      <note Length="0.015625" Pitch="53" RiffPosition="12.5625" Velocity="73" />
      <note Length="0.046875" Pitch="53" RiffPosition="12.578125" Velocity="70" />
      <note Length="0.015625" Pitch="56" RiffPosition="12.625" Velocity="58" />
      <note Length="0.015625" Pitch="58" RiffPosition="12.640625" Velocity="41" />
      <note Length="0.0078125" Pitch="56" RiffPosition="12.65625" Velocity="36" />
      <note Length="0.0234375" Pitch="56" RiffPosition="12.6640625" Velocity="36" />
      <note Length="0.015625" Pitch="55" RiffPosition="12.6875" Velocity="56" />
      <note Length="0.046875" Pitch="53" RiffPosition="12.703125" Velocity="98" />
      <note Length="0.015625" Pitch="41" RiffPosition="12.75" Velocity="109" />
      <note Length="0.015625" Pitch="41" RiffPosition="12.765625" Velocity="98" />
      <note Length="0.0078125" Pitch="41" RiffPosition="12.78125" Velocity="100" />
      <note Length="0.0234375" Pitch="41" RiffPosition="12.7890625" Velocity="101" />
      <note Length="0.015625" Pitch="41" RiffPosition="12.8125" Velocity="90" />
      <note Length="0.046875" Pitch="53" RiffPosition="12.828125" Velocity="90" />
      <note Length="0.015625" Pitch="56" RiffPosition="12.875" Velocity="87" />
      <note Length="0.015625" Pitch="56" RiffPosition="12.890625" Velocity="98" />
      <note Length="0.0078125" Pitch="55" RiffPosition="12.90625" Velocity="95" />
      <note Length="0.0234375" Pitch="55" RiffPosition="12.9140625" Velocity="93" />
      <note Length="0.015625" Pitch="53" RiffPosition="12.9375" Velocity="101" />
      <note Length="0.046875" Pitch="41" RiffPosition="12.953125" Velocity="97" />
      <note Length="0.015625" Pitch="49" RiffPosition="13" Velocity="84" />
      <note Length="0.015625" Pitch="48" RiffPosition="13.015625" Velocity="66" />
      <note Length="0.0078125" Pitch="49" RiffPosition="13.03125" Velocity="46" />
      <note Length="0.0234375" Pitch="49" RiffPosition="13.0390625" Velocity="48" />
      <note Length="0.015625" Pitch="41" RiffPosition="13.0625" Velocity="67" />
      <note Length="0.046875" Pitch="41" RiffPosition="13.078125" Velocity="70" />
      <note Length="0.015625" Pitch="53" RiffPosition="13.125" Velocity="77" />
      <note Length="0.015625" Pitch="55" RiffPosition="13.140625" Velocity="65" />
      <note Length="0.0078125" Pitch="53" RiffPosition="13.15625" Velocity="66" />
      <note Length="0.0234375" Pitch="53" RiffPosition="13.1640625" Velocity="66" />
      <note Length="0.015625" Pitch="41" RiffPosition="13.1875" Velocity="52" />
      <note Length="0.046875" Pitch="41" RiffPosition="13.203125" Velocity="88" />
      <note Length="0.015625" Pitch="49" RiffPosition="13.25" Velocity="80" />
      <note Length="0.015625" Pitch="48" RiffPosition="13.265625" Velocity="89" />
      <note Length="0.0078125" Pitch="41" RiffPosition="13.28125" Velocity="85" />
      <note Length="0.0234375" Pitch="41" RiffPosition="13.2890625" Velocity="83" />
      <note Length="0.015625" Pitch="41" RiffPosition="13.3125" Velocity="90" />
      <note Length="0.046875" Pitch="41" RiffPosition="13.328125" Velocity="85" />
      <note Length="0.015625" Pitch="56" RiffPosition="13.375" Velocity="72" />
      <note Length="0.015625" Pitch="56" RiffPosition="13.390625" Velocity="55" />
      <note Length="0.0078125" Pitch="56" RiffPosition="13.40625" Velocity="52" />
      <note Length="0.0234375" Pitch="56" RiffPosition="13.4140625" Velocity="50" />
      <note Length="0.015625" Pitch="53" RiffPosition="13.4375" Velocity="37" />
      <note Length="0.046875" Pitch="53" RiffPosition="13.453125" Velocity="39" />
      <note Length="0.015625" Pitch="41" RiffPosition="13.5" Velocity="42" />
      <note Length="0.015625" Pitch="41" RiffPosition="13.515625" Velocity="42" />
      <note Length="0.0078125" Pitch="41" RiffPosition="13.53125" Velocity="64" />
      <note Length="0.0234375" Pitch="41" RiffPosition="13.5390625" Velocity="63" />
      <note Length="0.015625" Pitch="53" RiffPosition="13.5625" Velocity="46" />
      <note Length="0.046875" Pitch="53" RiffPosition="13.578125" Velocity="43" />
      <note Length="0.015625" Pitch="56" RiffPosition="13.625" Velocity="38" />
      <note Length="0.015625" Pitch="58" RiffPosition="13.640625" Velocity="41" />
      <note Length="0.0078125" Pitch="56" RiffPosition="13.65625" Velocity="36" />
      <note Length="0.0234375" Pitch="56" RiffPosition="13.6640625" Velocity="36" />
      <note Length="0.015625" Pitch="55" RiffPosition="13.6875" Velocity="40" />
      <note Length="0.046875" Pitch="53" RiffPosition="13.703125" Velocity="74" />
      <note Length="0.015625" Pitch="41" RiffPosition="13.75" Velocity="63" />
      <note Length="0.015625" Pitch="41" RiffPosition="13.765625" Velocity="47" />
      <note Length="0.0078125" Pitch="41" RiffPosition="13.78125" Velocity="44" />
      <note Length="0.0234375" Pitch="41" RiffPosition="13.7890625" Velocity="44" />
      <note Length="0.015625" Pitch="41" RiffPosition="13.8125" Velocity="41" />
      <note Length="0.046875" Pitch="53" RiffPosition="13.828125" Velocity="42" />
      <note Length="0.015625" Pitch="56" RiffPosition="13.875" Velocity="38" />
      <note Length="0.015625" Pitch="56" RiffPosition="13.890625" Velocity="47" />
      <note Length="0.0078125" Pitch="55" RiffPosition="13.90625" Velocity="50" />
      <note Length="0.0234375" Pitch="55" RiffPosition="13.9140625" Velocity="51" />
      <note Length="0.015625" Pitch="53" RiffPosition="13.9375" Velocity="70" />
      <note Length="0.046875" Pitch="41" RiffPosition="13.953125" Velocity="74" />
    </riff>
    <riff IsDrum="False" MidiInstrument="36" Tempo="132" Length="14">
      <note Length="0.015625" Pitch="58" RiffPosition="0" Velocity="0" />
      <note Length="0.015625" Pitch="56" RiffPosition="0.015625" Velocity="0" />
      <note Length="0.015625" Pitch="58" RiffPosition="0.03125" Velocity="0" />
      <note Length="0.015625" Pitch="55" RiffPosition="0.046875" Velocity="0" />
      <note Length="0.0625" Pitch="56" RiffPosition="0.0625" Velocity="0" />
      <note Length="0.015625" Pitch="41" RiffPosition="0.125" Velocity="0" />
      <note Length="0.015625" Pitch="41" RiffPosition="0.140625" Velocity="0" />
      <note Length="0.015625" Pitch="41" RiffPosition="0.15625" Velocity="0" />
      <note Length="0.015625" Pitch="41" RiffPosition="0.171875" Velocity="0" />
      <note Length="0.0625" Pitch="41" RiffPosition="0.1875" Velocity="0" />
      <note Length="0.015625" Pitch="41" RiffPosition="0.25" Velocity="0" />
      <note Length="0.015625" Pitch="53" RiffPosition="0.265625" Velocity="0" />
      <note Length="0.015625" Pitch="41" RiffPosition="0.28125" Velocity="0" />
      <note Length="0.015625" Pitch="53" RiffPosition="0.296875" Velocity="0" />
      <note Length="0.0625" Pitch="55" RiffPosition="0.3125" Velocity="0" />
      <note Length="0.015625" Pitch="53" RiffPosition="0.375" Velocity="0" />
      <note Length="0.015625" Pitch="55" RiffPosition="0.390625" Velocity="0" />
      <note Length="0.015625" Pitch="41" RiffPosition="0.40625" Velocity="0" />
      <note Length="0.015625" Pitch="41" RiffPosition="0.421875" Velocity="0" />
      <note Length="0.0625" Pitch="53" RiffPosition="0.4375" Velocity="0" />
      <note Length="0.015625" Pitch="49" RiffPosition="0.5" Velocity="0" />
      <note Length="0.015625" Pitch="41" RiffPosition="0.515625" Velocity="0" />
      <note Length="0.015625" Pitch="49" RiffPosition="0.53125" Velocity="0" />
      <note Length="0.015625" Pitch="41" RiffPosition="0.546875" Velocity="0" />
      <note Length="0.0625" Pitch="49" RiffPosition="0.5625" Velocity="0" />
      <note Length="0.015625" Pitch="53" RiffPosition="0.625" Velocity="0" />
      <note Length="0.015625" Pitch="53" RiffPosition="0.640625" Velocity="0" />
      <note Length="0.015625" Pitch="55" RiffPosition="0.65625" Velocity="0" />
      <note Length="0.015625" Pitch="56" RiffPosition="0.671875" Velocity="0" />
      <note Length="0.0625" Pitch="55" RiffPosition="0.6875" Velocity="0" />
      <note Length="0.015625" Pitch="53" RiffPosition="0.75" Velocity="0" />
      <note Length="0.015625" Pitch="41" RiffPosition="0.765625" Velocity="0" />
      <note Length="0.015625" Pitch="41" RiffPosition="0.78125" Velocity="0" />
      <note Length="0.015625" Pitch="41" RiffPosition="0.796875" Velocity="0" />
      <note Length="0.0625" Pitch="41" RiffPosition="0.8125" Velocity="0" />
      <note Length="0.015625" Pitch="41" RiffPosition="0.875" Velocity="0" />
      <note Length="0.015625" Pitch="41" RiffPosition="0.890625" Velocity="0" />
      <note Length="0.015625" Pitch="53" RiffPosition="0.90625" Velocity="0" />
      <note Length="0.015625" Pitch="41" RiffPosition="0.921875" Velocity="0" />
      <note Length="0.0625" Pitch="53" RiffPosition="0.9375" Velocity="0" />
      <note Length="0.015625" Pitch="56" RiffPosition="1" Velocity="0" />
      <note Length="0.015625" Pitch="56" RiffPosition="1,015625" Velocity="0" />
      <note Length="0.015625" Pitch="58" RiffPosition="1,03125" Velocity="0" />
      <note Length="0.015625" Pitch="56" RiffPosition="1,046875" Velocity="0" />
      <note Length="0.0625" Pitch="56" RiffPosition="1,0625" Velocity="0" />
      <note Length="0.015625" Pitch="41" RiffPosition="1,125" Velocity="0" />
      <note Length="0.015625" Pitch="41" RiffPosition="1,140625" Velocity="0" />
      <note Length="0.015625" Pitch="49" RiffPosition="1,15625" Velocity="0" />
      <note Length="0.015625" Pitch="41" RiffPosition="1,171875" Velocity="0" />
      <note Length="0.0625" Pitch="41" RiffPosition="1,1875" Velocity="0" />
      <note Length="0.015625" Pitch="41" RiffPosition="1,25" Velocity="0" />
      <note Length="0.015625" Pitch="53" RiffPosition="1,265625" Velocity="0" />
      <note Length="0.015625" Pitch="53" RiffPosition="1,28125" Velocity="0" />
      <note Length="0.015625" Pitch="53" RiffPosition="1,296875" Velocity="0" />
      <note Length="0.0625" Pitch="56" RiffPosition="1,3125" Velocity="0" />
      <note Length="0.015625" Pitch="55" RiffPosition="1,375" Velocity="0" />
      <note Length="0.015625" Pitch="55" RiffPosition="1,390625" Velocity="0" />
      <note Length="0.015625" Pitch="41" RiffPosition="1,40625" Velocity="0" />
      <note Length="0.015625" Pitch="53" RiffPosition="1,421875" Velocity="0" />
      <note Length="0.0625" Pitch="41" RiffPosition="1,4375" Velocity="0" />
      <note Length="0.015625" Pitch="41" RiffPosition="1,5" Velocity="0" />
      <note Length="0.015625" Pitch="48" RiffPosition="1,515625" Velocity="0" />
      <note Length="0.015625" Pitch="49" RiffPosition="1,53125" Velocity="0" />
      <note Length="0.015625" Pitch="41" RiffPosition="1,546875" Velocity="0" />
      <note Length="0.0625" Pitch="41" RiffPosition="1,5625" Velocity="0" />
      <note Length="0.015625" Pitch="53" RiffPosition="1,625" Velocity="0" />
      <note Length="0.015625" Pitch="53" RiffPosition="1,640625" Velocity="0" />
      <note Length="0.015625" Pitch="56" RiffPosition="1,65625" Velocity="0" />
      <note Length="0.015625" Pitch="53" RiffPosition="1,671875" Velocity="0" />
      <note Length="0.0625" Pitch="56" RiffPosition="1,6875" Velocity="0" />
      <note Length="0.015625" Pitch="55" RiffPosition="1,75" Velocity="0" />
      <note Length="0.015625" Pitch="41" RiffPosition="1,765625" Velocity="0" />
      <note Length="0.015625" Pitch="41" RiffPosition="1,78125" Velocity="0" />
      <note Length="0.015625" Pitch="41" RiffPosition="1,796875" Velocity="0" />
      <note Length="0.0625" Pitch="41" RiffPosition="1,8125" Velocity="0" />
      <note Length="0.015625" Pitch="41" RiffPosition="1,875" Velocity="0" />
      <note Length="0.015625" Pitch="41" RiffPosition="1,890625" Velocity="0" />
      <note Length="0.015625" Pitch="53" RiffPosition="1,90625" Velocity="0" />
      <note Length="0.015625" Pitch="41" RiffPosition="1,921875" Velocity="0" />
      <note Length="0.0625" Pitch="55" RiffPosition="1,9375" Velocity="0" />
      <note Length="0.015625" Pitch="56" RiffPosition="2" Velocity="0" />
      <note Length="0.015625" Pitch="56" RiffPosition="2.015625" Velocity="0" />
      <note Length="0.015625" Pitch="55" RiffPosition="2.03125" Velocity="0" />
      <note Length="0.015625" Pitch="56" RiffPosition="2.046875" Velocity="0" />
      <note Length="0.0625" Pitch="56" RiffPosition="2.0625" Velocity="0" />
      <note Length="0.015625" Pitch="41" RiffPosition="2.125" Velocity="0" />
      <note Length="0.015625" Pitch="41" RiffPosition="2.140625" Velocity="0" />
      <note Length="0.015625" Pitch="49" RiffPosition="2.15625" Velocity="0" />
      <note Length="0.015625" Pitch="41" RiffPosition="2.171875" Velocity="0" />
      <note Length="0.0625" Pitch="41" RiffPosition="2.1875" Velocity="0" />
      <note Length="0.015625" Pitch="41" RiffPosition="2.25" Velocity="0" />
      <note Length="0.015625" Pitch="53" RiffPosition="2.265625" Velocity="0" />
      <note Length="0.015625" Pitch="53" RiffPosition="2.28125" Velocity="0" />
      <note Length="0.015625" Pitch="53" RiffPosition="2.296875" Velocity="0" />
      <note Length="0.0625" Pitch="53" RiffPosition="2.3125" Velocity="0" />
      <note Length="0.015625" Pitch="55" RiffPosition="2.375" Velocity="0" />
      <note Length="0.015625" Pitch="41" RiffPosition="2.390625" Velocity="0" />
      <note Length="0.015625" Pitch="53" RiffPosition="2.40625" Velocity="0" />
      <note Length="0.015625" Pitch="53" RiffPosition="2.421875" Velocity="0" />
      <note Length="0.0625" Pitch="41" RiffPosition="2.4375" Velocity="0" />
      <note Length="0.015625" Pitch="41" RiffPosition="2.5" Velocity="0" />
      <note Length="0.015625" Pitch="48" RiffPosition="2.515625" Velocity="0" />
      <note Length="0.015625" Pitch="41" RiffPosition="2.53125" Velocity="0" />
      <note Length="0.015625" Pitch="41" RiffPosition="2.546875" Velocity="0" />
      <note Length="0.0625" Pitch="41" RiffPosition="2.5625" Velocity="0" />
      <note Length="0.015625" Pitch="55" RiffPosition="2.625" Velocity="0" />
      <note Length="0.015625" Pitch="53" RiffPosition="2.640625" Velocity="0" />
      <note Length="0.015625" Pitch="56" RiffPosition="2.65625" Velocity="0" />
      <note Length="0.015625" Pitch="55" RiffPosition="2.671875" Velocity="0" />
      <note Length="0.0625" Pitch="56" RiffPosition="2.6875" Velocity="0" />
      <note Length="0.015625" Pitch="41" RiffPosition="2.75" Velocity="0" />
      <note Length="0.015625" Pitch="41" RiffPosition="2.765625" Velocity="0" />
      <note Length="0.015625" Pitch="53" RiffPosition="2.78125" Velocity="0" />
      <note Length="0.015625" Pitch="41" RiffPosition="2.796875" Velocity="0" />
      <note Length="0.0625" Pitch="41" RiffPosition="2.8125" Velocity="0" />
      <note Length="0.015625" Pitch="41" RiffPosition="2.875" Velocity="0" />
      <note Length="0.015625" Pitch="41" RiffPosition="2.890625" Velocity="0" />
      <note Length="0.015625" Pitch="41" RiffPosition="2.90625" Velocity="0" />
      <note Length="0.015625" Pitch="53" RiffPosition="2.921875" Velocity="0" />
      <note Length="0.0625" Pitch="55" RiffPosition="2.9375" Velocity="0" />
      <note Length="0.015625" Pitch="56" RiffPosition="3" Velocity="0" />
      <note Length="0.015625" Pitch="58" RiffPosition="3.015625" Velocity="0" />
      <note Length="0.015625" Pitch="56" RiffPosition="3.03125" Velocity="0" />
      <note Length="0.015625" Pitch="56" RiffPosition="3.046875" Velocity="0" />
      <note Length="0.0625" Pitch="56" RiffPosition="3.0625" Velocity="0" />
      <note Length="0.015625" Pitch="41" RiffPosition="3.125" Velocity="0" />
      <note Length="0.015625" Pitch="41" RiffPosition="3.140625" Velocity="0" />
      <note Length="0.015625" Pitch="41" RiffPosition="3.15625" Velocity="0" />
      <note Length="0.015625" Pitch="41" RiffPosition="3.171875" Velocity="0" />
      <note Length="0.0625" Pitch="49" RiffPosition="3.1875" Velocity="0" />
      <note Length="0.015625" Pitch="41" RiffPosition="3.25" Velocity="0" />
      <note Length="0.015625" Pitch="41" RiffPosition="3.265625" Velocity="0" />
      <note Length="0.015625" Pitch="53" RiffPosition="3.28125" Velocity="0" />
      <note Length="0.015625" Pitch="53" RiffPosition="3.296875" Velocity="0" />
      <note Length="0.0625" Pitch="53" RiffPosition="3.3125" Velocity="0" />
      <note Length="0.015625" Pitch="55" RiffPosition="3.375" Velocity="0" />
      <note Length="0.015625" Pitch="53" RiffPosition="3.390625" Velocity="0" />
      <note Length="0.015625" Pitch="53" RiffPosition="3.40625" Velocity="0" />
      <note Length="0.015625" Pitch="53" RiffPosition="3.421875" Velocity="0" />
      <note Length="0.0625" Pitch="41" RiffPosition="3.4375" Velocity="0" />
      <note Length="0.015625" Pitch="41" RiffPosition="3.5" Velocity="0" />
      <note Length="0.015625" Pitch="49" RiffPosition="3.515625" Velocity="0" />
      <note Length="0.015625" Pitch="41" RiffPosition="3.53125" Velocity="0" />
      <note Length="0.015625" Pitch="48" RiffPosition="3.546875" Velocity="0" />
      <note Length="0.0625" Pitch="41" RiffPosition="3.5625" Velocity="0" />
      <note Length="0.015625" Pitch="41" RiffPosition="3.625" Velocity="0" />
      <note Length="0.015625" Pitch="55" RiffPosition="3.640625" Velocity="0" />
      <note Length="0.015625" Pitch="56" RiffPosition="3.65625" Velocity="0" />
      <note Length="0.015625" Pitch="55" RiffPosition="3.671875" Velocity="0" />
      <note Length="0.0625" Pitch="56" RiffPosition="3.6875" Velocity="0" />
      <note Length="0.015625" Pitch="53" RiffPosition="3.75" Velocity="0" />
      <note Length="0.015625" Pitch="53" RiffPosition="3.765625" Velocity="0" />
      <note Length="0.015625" Pitch="41" RiffPosition="3.78125" Velocity="0" />
      <note Length="0.015625" Pitch="41" RiffPosition="3.796875" Velocity="0" />
      <note Length="0.0625" Pitch="41" RiffPosition="3.8125" Velocity="0" />
      <note Length="0.015625" Pitch="41" RiffPosition="3.875" Velocity="0" />
      <note Length="0.015625" Pitch="41" RiffPosition="3.890625" Velocity="0" />
      <note Length="0.015625" Pitch="41" RiffPosition="3.90625" Velocity="0" />
      <note Length="0.015625" Pitch="53" RiffPosition="3.921875" Velocity="0" />
      <note Length="0.0625" Pitch="55" RiffPosition="3.9375" Velocity="0" />
      <note Length="0.015625" Pitch="56" RiffPosition="4" Velocity="0" />
      <note Length="0.015625" Pitch="58" RiffPosition="4.015625" Velocity="0" />
      <note Length="0.015625" Pitch="56" RiffPosition="4.03125" Velocity="0" />
      <note Length="0.015625" Pitch="56" RiffPosition="4.046875" Velocity="0" />
      <note Length="0.0625" Pitch="53" RiffPosition="4.0625" Velocity="0" />
      <note Length="0.015625" Pitch="41" RiffPosition="4.125" Velocity="0" />
      <note Length="0.015625" Pitch="41" RiffPosition="4.140625" Velocity="0" />
      <note Length="0.015625" Pitch="41" RiffPosition="4.15625" Velocity="0" />
      <note Length="0.015625" Pitch="41" RiffPosition="4.171875" Velocity="0" />
      <note Length="0.0625" Pitch="49" RiffPosition="4.1875" Velocity="0" />
      <note Length="0.015625" Pitch="53" RiffPosition="4.25" Velocity="0" />
      <note Length="0.015625" Pitch="41" RiffPosition="4.265625" Velocity="0" />
      <note Length="0.015625" Pitch="53" RiffPosition="4.28125" Velocity="0" />
      <note Length="0.015625" Pitch="55" RiffPosition="4.296875" Velocity="0" />
      <note Length="0.0625" Pitch="53" RiffPosition="4.3125" Velocity="0" />
      <note Length="0.015625" Pitch="56" RiffPosition="4.375" Velocity="0" />
      <note Length="0.015625" Pitch="53" RiffPosition="4.390625" Velocity="0" />
      <note Length="0.015625" Pitch="53" RiffPosition="4.40625" Velocity="0" />
      <note Length="0.015625" Pitch="41" RiffPosition="4.421875" Velocity="0" />
      <note Length="0.0625" Pitch="41" RiffPosition="4.4375" Velocity="0" />
      <note Length="0.015625" Pitch="48" RiffPosition="4.5" Velocity="0" />
      <note Length="0.015625" Pitch="49" RiffPosition="4.515625" Velocity="0" />
      <note Length="0.015625" Pitch="41" RiffPosition="4.53125" Velocity="0" />
      <note Length="0.015625" Pitch="49" RiffPosition="4.546875" Velocity="0" />
      <note Length="0.0625" Pitch="41" RiffPosition="4.5625" Velocity="0" />
      <note Length="0.015625" Pitch="41" RiffPosition="4.625" Velocity="0" />
      <note Length="0.015625" Pitch="55" RiffPosition="4.640625" Velocity="0" />
      <note Length="0.015625" Pitch="53" RiffPosition="4.65625" Velocity="0" />
      <note Length="0.015625" Pitch="56" RiffPosition="4.671875" Velocity="0" />
      <note Length="0.0625" Pitch="56" RiffPosition="4.6875" Velocity="0" />
      <note Length="0.015625" Pitch="53" RiffPosition="4.75" Velocity="0" />
      <note Length="0.015625" Pitch="53" RiffPosition="4.765625" Velocity="0" />
      <note Length="0.015625" Pitch="41" RiffPosition="4.78125" Velocity="0" />
      <note Length="0.015625" Pitch="41" RiffPosition="4.796875" Velocity="0" />
      <note Length="0.0625" Pitch="41" RiffPosition="4.8125" Velocity="0" />
      <note Length="0.015625" Pitch="41" RiffPosition="4.875" Velocity="0" />
      <note Length="0.015625" Pitch="41" RiffPosition="4.890625" Velocity="0" />
      <note Length="0.015625" Pitch="41" RiffPosition="4.90625" Velocity="0" />
      <note Length="0.015625" Pitch="53" RiffPosition="4.921875" Velocity="0" />
      <note Length="0.0625" Pitch="53" RiffPosition="4.9375" Velocity="0" />
      <note Length="0.015625" Pitch="56" RiffPosition="5" Velocity="91" />
      <note Length="0.015625" Pitch="55" RiffPosition="5.015625" Velocity="97" />
      <note Length="0.015625" Pitch="56" RiffPosition="5.03125" Velocity="78" />
      <note Length="0.015625" Pitch="56" RiffPosition="5.046875" Velocity="54" />
      <note Length="0.0625" Pitch="55" RiffPosition="5.0625" Velocity="60" />
      <note Length="0.015625" Pitch="53" RiffPosition="5.125" Velocity="74" />
      <note Length="0.015625" Pitch="41" RiffPosition="5.140625" Velocity="67" />
      <note Length="0.015625" Pitch="41" RiffPosition="5.15625" Velocity="61" />
      <note Length="0.015625" Pitch="41" RiffPosition="5.171875" Velocity="54" />
      <note Length="0.0625" Pitch="41" RiffPosition="5.1875" Velocity="49" />
      <note Length="0.015625" Pitch="53" RiffPosition="5.25" Velocity="70" />
      <note Length="0.015625" Pitch="41" RiffPosition="5.265625" Velocity="57" />
      <note Length="0.015625" Pitch="53" RiffPosition="5.28125" Velocity="51" />
      <note Length="0.015625" Pitch="41" RiffPosition="5.296875" Velocity="44" />
      <note Length="0.0625" Pitch="53" RiffPosition="5.3125" Velocity="37" />
      <note Length="0.015625" Pitch="53" RiffPosition="5.375" Velocity="68" />
      <note Length="0.015625" Pitch="53" RiffPosition="5.390625" Velocity="61" />
      <note Length="0.015625" Pitch="53" RiffPosition="5.40625" Velocity="55" />
      <note Length="0.015625" Pitch="41" RiffPosition="5.421875" Velocity="105" />
      <note Length="0.0625" Pitch="41" RiffPosition="5.4375" Velocity="99" />
      <note Length="0.015625" Pitch="48" RiffPosition="5.5" Velocity="103" />
      <note Length="0.015625" Pitch="49" RiffPosition="5.515625" Velocity="96" />
      <note Length="0.015625" Pitch="41" RiffPosition="5.53125" Velocity="64" />
      <note Length="0.015625" Pitch="49" RiffPosition="5.546875" Velocity="57" />
      <note Length="0.0625" Pitch="41" RiffPosition="5.5625" Velocity="81" />
      <note Length="0.015625" Pitch="53" RiffPosition="5.625" Velocity="75" />
      <note Length="0.015625" Pitch="56" RiffPosition="5.640625" Velocity="51" />
      <note Length="0.015625" Pitch="53" RiffPosition="5.65625" Velocity="58" />
      <note Length="0.015625" Pitch="56" RiffPosition="5.671875" Velocity="64" />
      <note Length="0.0625" Pitch="56" RiffPosition="5.6875" Velocity="44" />
      <note Length="0.015625" Pitch="53" RiffPosition="5.75" Velocity="56" />
      <note Length="0.015625" Pitch="53" RiffPosition="5.765625" Velocity="54" />
      <note Length="0.015625" Pitch="41" RiffPosition="5.78125" Velocity="40" />
      <note Length="0.015625" Pitch="41" RiffPosition="5.796875" Velocity="37" />
      <note Length="0.0625" Pitch="41" RiffPosition="5.8125" Velocity="43" />
      <note Length="0.015625" Pitch="41" RiffPosition="5.875" Velocity="65" />
      <note Length="0.015625" Pitch="41" RiffPosition="5.890625" Velocity="72" />
      <note Length="0.015625" Pitch="41" RiffPosition="5.90625" Velocity="78" />
      <note Length="0.015625" Pitch="53" RiffPosition="5.921875" Velocity="80" />
      <note Length="0.0625" Pitch="53" RiffPosition="5.9375" Velocity="87" />
      <note Length="0.015625" Pitch="58" RiffPosition="6" Velocity="83" />
      <note Length="0.015625" Pitch="56" RiffPosition="6.015625" Velocity="89" />
      <note Length="0.015625" Pitch="56" RiffPosition="6.03125" Velocity="69" />
      <note Length="0.015625" Pitch="58" RiffPosition="6.046875" Velocity="76" />
      <note Length="0.0625" Pitch="55" RiffPosition="6.0625" Velocity="83" />
      <note Length="0.015625" Pitch="53" RiffPosition="6.125" Velocity="51" />
      <note Length="0.015625" Pitch="41" RiffPosition="6.140625" Velocity="76" />
      <note Length="0.015625" Pitch="41" RiffPosition="6.15625" Velocity="69" />
      <note Length="0.015625" Pitch="49" RiffPosition="6.171875" Velocity="62" />
      <note Length="0.0625" Pitch="41" RiffPosition="6.1875" Velocity="40" />
      <note Length="0.015625" Pitch="41" RiffPosition="6.25" Velocity="62" />
      <note Length="0.015625" Pitch="41" RiffPosition="6.265625" Velocity="35" />
      <note Length="0.015625" Pitch="55" RiffPosition="6.28125" Velocity="42" />
      <note Length="0.015625" Pitch="53" RiffPosition="6.296875" Velocity="52" />
      <note Length="0.0625" Pitch="55" RiffPosition="6.3125" Velocity="46" />
      <note Length="0.015625" Pitch="53" RiffPosition="6.375" Velocity="76" />
      <note Length="0.015625" Pitch="53" RiffPosition="6.390625" Velocity="70" />
      <note Length="0.015625" Pitch="55" RiffPosition="6.40625" Velocity="63" />
      <note Length="0.015625" Pitch="41" RiffPosition="6.421875" Velocity="83" />
      <note Length="0.0625" Pitch="41" RiffPosition="6.4375" Velocity="107" />
      <note Length="0.015625" Pitch="49" RiffPosition="6.5" Velocity="80" />
      <note Length="0.015625" Pitch="41" RiffPosition="6.515625" Velocity="104" />
      <note Length="0.015625" Pitch="48" RiffPosition="6.53125" Velocity="72" />
      <note Length="0.015625" Pitch="41" RiffPosition="6.546875" Velocity="65" />
      <note Length="0.0625" Pitch="41" RiffPosition="6.5625" Velocity="59" />
      <note Length="0.015625" Pitch="53" RiffPosition="6.625" Velocity="67" />
      <note Length="0.015625" Pitch="56" RiffPosition="6.640625" Velocity="73" />
      <note Length="0.015625" Pitch="55" RiffPosition="6.65625" Velocity="49" />
      <note Length="0.015625" Pitch="56" RiffPosition="6.671875" Velocity="56" />
      <note Length="0.0625" Pitch="53" RiffPosition="6.6875" Velocity="36" />
      <note Length="0.015625" Pitch="53" RiffPosition="6.75" Velocity="64" />
      <note Length="0.015625" Pitch="41" RiffPosition="6.765625" Velocity="46" />
      <note Length="0.015625" Pitch="41" RiffPosition="6.78125" Velocity="53" />
      <note Length="0.015625" Pitch="53" RiffPosition="6.796875" Velocity="42" />
      <note Length="0.0625" Pitch="41" RiffPosition="6.8125" Velocity="35" />
      <note Length="0.015625" Pitch="41" RiffPosition="6.875" Velocity="57" />
      <note Length="0.015625" Pitch="41" RiffPosition="6.890625" Velocity="63" />
      <note Length="0.015625" Pitch="41" RiffPosition="6.90625" Velocity="70" />
      <note Length="0.015625" Pitch="53" RiffPosition="6.921875" Velocity="103" />
      <note Length="0.0625" Pitch="53" RiffPosition="6.9375" Velocity="109" />
      <note Length="0.015625" Pitch="58" RiffPosition="7" Velocity="105" />
      <note Length="0.015625" Pitch="56" RiffPosition="7.015625" Velocity="81" />
      <note Length="0.015625" Pitch="56" RiffPosition="7.03125" Velocity="61" />
      <note Length="0.015625" Pitch="55" RiffPosition="7.046875" Velocity="68" />
      <note Length="0.0625" Pitch="56" RiffPosition="7.0625" Velocity="75" />
      <note Length="0.015625" Pitch="41" RiffPosition="7.125" Velocity="60" />
      <note Length="0.015625" Pitch="41" RiffPosition="7.140625" Velocity="53" />
      <note Length="0.015625" Pitch="41" RiffPosition="7.15625" Velocity="46" />
      <note Length="0.015625" Pitch="49" RiffPosition="7.171875" Velocity="70" />
      <note Length="0.0625" Pitch="41" RiffPosition="7.1875" Velocity="38" />
      <note Length="0.015625" Pitch="41" RiffPosition="7.25" Velocity="54" />
      <note Length="0.015625" Pitch="53" RiffPosition="7.265625" Velocity="43" />
      <note Length="0.015625" Pitch="55" RiffPosition="7.28125" Velocity="36" />
      <note Length="0.015625" Pitch="53" RiffPosition="7.296875" Velocity="40" />
      <note Length="0.0625" Pitch="55" RiffPosition="7.3125" Velocity="54" />
      <note Length="0.015625" Pitch="53" RiffPosition="7.375" Velocity="54" />
      <note Length="0.015625" Pitch="55" RiffPosition="7.390625" Velocity="78" />
      <note Length="0.015625" Pitch="41" RiffPosition="7.40625" Velocity="71" />
      <note Length="0.015625" Pitch="41" RiffPosition="7.421875" Velocity="91" />
      <note Length="0.0625" Pitch="41" RiffPosition="7.4375" Velocity="84" />
      <note Length="0.015625" Pitch="49" RiffPosition="7.5" Velocity="88" />
      <note Length="0.015625" Pitch="41" RiffPosition="7.515625" Velocity="82" />
      <note Length="0.015625" Pitch="48" RiffPosition="7.53125" Velocity="80" />
      <note Length="0.015625" Pitch="41" RiffPosition="7.546875" Velocity="73" />
      <note Length="0.0625" Pitch="49" RiffPosition="7.5625" Velocity="67" />
      <note Length="0.015625" Pitch="53" RiffPosition="7.625" Velocity="59" />
      <note Length="0.015625" Pitch="53" RiffPosition="7.640625" Velocity="65" />
      <note Length="0.015625" Pitch="55" RiffPosition="7.65625" Velocity="72" />
      <note Length="0.015625" Pitch="56" RiffPosition="7.671875" Velocity="48" />
      <note Length="0.0625" Pitch="55" RiffPosition="7.6875" Velocity="42" />
      <note Length="0.015625" Pitch="53" RiffPosition="7.75" Velocity="72" />
      <note Length="0.015625" Pitch="41" RiffPosition="7.765625" Velocity="38" />
      <note Length="0.015625" Pitch="41" RiffPosition="7.78125" Velocity="44" />
      <note Length="0.015625" Pitch="53" RiffPosition="7.796875" Velocity="51" />
      <note Length="0.0625" Pitch="41" RiffPosition="7.8125" Velocity="58" />
      <note Length="0.015625" Pitch="41" RiffPosition="7.875" Velocity="79" />
      <note Length="0.015625" Pitch="41" RiffPosition="7.890625" Velocity="55" />
      <note Length="0.015625" Pitch="53" RiffPosition="7.90625" Velocity="62" />
      <note Length="0.015625" Pitch="41" RiffPosition="7.921875" Velocity="95" />
      <note Length="0.0625" Pitch="53" RiffPosition="7.9375" Velocity="101" />
      <note Length="0.015625" Pitch="55" RiffPosition="8" Velocity="97" />
      <note Length="0.015625" Pitch="56" RiffPosition="8.015625" Velocity="103" />
      <note Length="0.015625" Pitch="58" RiffPosition="8.03125" Velocity="84" />
      <note Length="0.015625" Pitch="55" RiffPosition="8.046875" Velocity="60" />
      <note Length="0.0625" Pitch="56" RiffPosition="8.0625" Velocity="66" />
      <note Length="0.015625" Pitch="41" RiffPosition="8.125" Velocity="68" />
      <note Length="0.015625" Pitch="41" RiffPosition="8.140625" Velocity="61" />
      <note Length="0.015625" Pitch="41" RiffPosition="8.15625" Velocity="55" />
      <note Length="0.015625" Pitch="41" RiffPosition="8.171875" Velocity="48" />
      <note Length="0.0625" Pitch="41" RiffPosition="8.1875" Velocity="46" />
      <note Length="0.015625" Pitch="41" RiffPosition="8.25" Velocity="46" />
      <note Length="0.015625" Pitch="53" RiffPosition="8.265625" Velocity="51" />
      <note Length="0.015625" Pitch="41" RiffPosition="8.28125" Velocity="44" />
      <note Length="0.015625" Pitch="53" RiffPosition="8.296875" Velocity="38" />
      <note Length="0.0625" Pitch="55" RiffPosition="8.3125" Velocity="39" />
      <note Length="0.015625" Pitch="53" RiffPosition="8.375" Velocity="62" />
      <note Length="0.015625" Pitch="55" RiffPosition="8.390625" Velocity="55" />
      <note Length="0.015625" Pitch="41" RiffPosition="8.40625" Velocity="79" />
      <note Length="0.015625" Pitch="53" RiffPosition="8.421875" Velocity="99" />
      <note Length="0.0625" Pitch="41" RiffPosition="8.4375" Velocity="92" />
      <note Length="0.015625" Pitch="41" RiffPosition="8.5" Velocity="97" />
      <note Length="0.015625" Pitch="48" RiffPosition="8.515625" Velocity="90" />
      <note Length="0.015625" Pitch="49" RiffPosition="8.53125" Velocity="57" />
      <note Length="0.015625" Pitch="41" RiffPosition="8.546875" Velocity="81" />
      <note Length="0.0625" Pitch="49" RiffPosition="8.5625" Velocity="75" />
      <note Length="0.015625" Pitch="53" RiffPosition="8.625" Velocity="51" />
      <note Length="0.015625" Pitch="53" RiffPosition="8.640625" Velocity="57" />
      <note Length="0.015625" Pitch="56" RiffPosition="8.65625" Velocity="64" />
      <note Length="0.015625" Pitch="56" RiffPosition="8.671875" Velocity="70" />
      <note Length="0.0625" Pitch="55" RiffPosition="8.6875" Velocity="50" />
      <note Length="0.015625" Pitch="55" RiffPosition="8.75" Velocity="50" />
      <note Length="0.015625" Pitch="41" RiffPosition="8.765625" Velocity="40" />
      <note Length="0.015625" Pitch="41" RiffPosition="8.78125" Velocity="36" />
      <note Length="0.015625" Pitch="41" RiffPosition="8.796875" Velocity="43" />
      <note Length="0.0625" Pitch="41" RiffPosition="8.8125" Velocity="49" />
      <note Length="0.015625" Pitch="41" RiffPosition="8.875" Velocity="71" />
      <note Length="0.015625" Pitch="41" RiffPosition="8.890625" Velocity="78" />
      <note Length="0.015625" Pitch="53" RiffPosition="8.90625" Velocity="54" />
      <note Length="0.015625" Pitch="41" RiffPosition="8.921875" Velocity="87" />
      <note Length="0.0625" Pitch="53" RiffPosition="8.9375" Velocity="93" />
      <note Length="0.015625" Pitch="56" RiffPosition="9" Velocity="89" />
      <note Length="0.015625" Pitch="56" RiffPosition="9.015625" Velocity="95" />
      <note Length="0.015625" Pitch="58" RiffPosition="9.03125" Velocity="76" />
      <note Length="0.015625" Pitch="56" RiffPosition="9.046875" Velocity="82" />
      <note Length="0.0625" Pitch="56" RiffPosition="9.0625" Velocity="58" />
      <note Length="0.015625" Pitch="41" RiffPosition="9.125" Velocity="76" />
      <note Length="0.015625" Pitch="41" RiffPosition="9.140625" Velocity="69" />
      <note Length="0.015625" Pitch="49" RiffPosition="9.15625" Velocity="63" />
      <note Length="0.015625" Pitch="41" RiffPosition="9.171875" Velocity="56" />
      <note Length="0.0625" Pitch="41" RiffPosition="9.1875" Velocity="47" />
      <note Length="0.015625" Pitch="41" RiffPosition="9.25" Velocity="69" />
      <note Length="0.015625" Pitch="53" RiffPosition="9.265625" Velocity="42" />
      <note Length="0.015625" Pitch="53" RiffPosition="9.28125" Velocity="53" />
      <note Length="0.015625" Pitch="53" RiffPosition="9.296875" Velocity="46" />
      <note Length="0.0625" Pitch="53" RiffPosition="9.3125" Velocity="39" />
      <note Length="0.015625" Pitch="55" RiffPosition="9.375" Velocity="70" />
      <note Length="0.015625" Pitch="55" RiffPosition="9.390625" Velocity="63" />
      <note Length="0.015625" Pitch="53" RiffPosition="9.40625" Velocity="57" />
      <note Length="0.015625" Pitch="53" RiffPosition="9.421875" Velocity="107" />
      <note Length="0.0625" Pitch="41" RiffPosition="9.4375" Velocity="100" />
      <note Length="0.015625" Pitch="41" RiffPosition="9.5" Velocity="105" />
      <note Length="0.015625" Pitch="48" RiffPosition="9.515625" Velocity="98" />
      <note Length="0.015625" Pitch="49" RiffPosition="9.53125" Velocity="65" />
      <note Length="0.015625" Pitch="41" RiffPosition="9.546875" Velocity="59" />
      <note Length="0.0625" Pitch="41" RiffPosition="9.5625" Velocity="83" />
      <note Length="0.015625" Pitch="53" RiffPosition="9.625" Velocity="73" />
      <note Length="0.015625" Pitch="53" RiffPosition="9.640625" Velocity="49" />
      <note Length="0.015625" Pitch="56" RiffPosition="9.65625" Velocity="56" />
      <note Length="0.015625" Pitch="53" RiffPosition="9.671875" Velocity="62" />
      <note Length="0.0625" Pitch="56" RiffPosition="9.6875" Velocity="43" />
      <note Length="0.015625" Pitch="41" RiffPosition="9.75" Velocity="58" />
      <note Length="0.015625" Pitch="41" RiffPosition="9.765625" Velocity="52" />
      <note Length="0.015625" Pitch="41" RiffPosition="9.78125" Velocity="42" />
      <note Length="0.015625" Pitch="41" RiffPosition="9.796875" Velocity="35" />
      <note Length="0.0625" Pitch="41" RiffPosition="9.8125" Velocity="41" />
      <note Length="0.015625" Pitch="41" RiffPosition="9.875" Velocity="63" />
      <note Length="0.015625" Pitch="41" RiffPosition="9.890625" Velocity="70" />
      <note Length="0.015625" Pitch="53" RiffPosition="9.90625" Velocity="76" />
      <note Length="0.015625" Pitch="41" RiffPosition="9.921875" Velocity="109" />
      <note Length="0.0625" Pitch="55" RiffPosition="9.9375" Velocity="85" />
      <note Length="0.015625" Pitch="56" RiffPosition="10" Velocity="81" />
      <note Length="0.015625" Pitch="58" RiffPosition="10.015625" Velocity="87" />
      <note Length="0.015625" Pitch="55" RiffPosition="10.03125" Velocity="68" />
      <note Length="0.015625" Pitch="56" RiffPosition="10.046875" Velocity="74" />
      <note Length="0.0625" Pitch="56" RiffPosition="10.0625" Velocity="81" />
      <note Length="0.015625" Pitch="41" RiffPosition="10.125" Velocity="53" />
      <note Length="0.015625" Pitch="41" RiffPosition="10.140625" Velocity="47" />
      <note Length="0.015625" Pitch="41" RiffPosition="10.15625" Velocity="71" />
      <note Length="0.015625" Pitch="41" RiffPosition="10.171875" Velocity="64" />
      <note Length="0.0625" Pitch="49" RiffPosition="10.1875" Velocity="39" />
      <note Length="0.015625" Pitch="41" RiffPosition="10.25" Velocity="60" />
      <note Length="0.015625" Pitch="53" RiffPosition="10.265625" Velocity="37" />
      <note Length="0.015625" Pitch="53" RiffPosition="10.28125" Velocity="40" />
      <note Length="0.015625" Pitch="53" RiffPosition="10.296875" Velocity="54" />
      <note Length="0.0625" Pitch="53" RiffPosition="10.3125" Velocity="48" />
      <note Length="0.015625" Pitch="55" RiffPosition="10.375" Velocity="78" />
      <note Length="0.015625" Pitch="53" RiffPosition="10.390625" Velocity="71" />
      <note Length="0.015625" Pitch="53" RiffPosition="10.40625" Velocity="65" />
      <note Length="0.015625" Pitch="53" RiffPosition="10.421875" Velocity="84" />
      <note Length="0.0625" Pitch="41" RiffPosition="10.4375" Velocity="109" />
      <note Length="0.015625" Pitch="41" RiffPosition="10.5" Velocity="82" />
      <note Length="0.015625" Pitch="48" RiffPosition="10.515625" Velocity="106" />
      <note Length="0.015625" Pitch="41" RiffPosition="10.53125" Velocity="74" />
      <note Length="0.015625" Pitch="48" RiffPosition="10.546875" Velocity="67" />
      <note Length="0.0625" Pitch="41" RiffPosition="10.5625" Velocity="60" />
      <note Length="0.015625" Pitch="41" RiffPosition="10.625" Velocity="65" />
      <note Length="0.015625" Pitch="55" RiffPosition="10.640625" Velocity="72" />
      <note Length="0.015625" Pitch="56" RiffPosition="10.65625" Velocity="47" />
      <note Length="0.015625" Pitch="55" RiffPosition="10.671875" Velocity="54" />
      <note Length="0.0625" Pitch="56" RiffPosition="10.6875" Velocity="36" />
      <note Length="0.015625" Pitch="41" RiffPosition="10.75" Velocity="66" />
      <note Length="0.015625" Pitch="53" RiffPosition="10.765625" Velocity="44" />
      <note Length="0.015625" Pitch="53" RiffPosition="10.78125" Velocity="51" />
      <note Length="0.015625" Pitch="41" RiffPosition="10.796875" Velocity="57" />
      <note Length="0.0625" Pitch="41" RiffPosition="10.8125" Velocity="37" />
      <note Length="0.015625" Pitch="41" RiffPosition="10.875" Velocity="55" />
      <note Length="0.015625" Pitch="41" RiffPosition="10.890625" Velocity="62" />
      <note Length="0.015625" Pitch="41" RiffPosition="10.90625" Velocity="68" />
      <note Length="0.015625" Pitch="53" RiffPosition="10.921875" Velocity="101" />
      <note Length="0.0625" Pitch="55" RiffPosition="10.9375" Velocity="107" />
      <note Length="0.015625" Pitch="56" RiffPosition="11" Velocity="103" />
      <note Length="0.015625" Pitch="58" RiffPosition="11,015625" Velocity="110" />
      <note Length="0.015625" Pitch="56" RiffPosition="11,03125" Velocity="59" />
      <note Length="0.015625" Pitch="56" RiffPosition="11,046875" Velocity="66" />
      <note Length="0.0625" Pitch="53" RiffPosition="11,0625" Velocity="73" />
      <note Length="0.015625" Pitch="41" RiffPosition="11,125" Velocity="61" />
      <note Length="0.015625" Pitch="41" RiffPosition="11,140625" Velocity="55" />
      <note Length="0.015625" Pitch="41" RiffPosition="11,15625" Velocity="48" />
      <note Length="0.015625" Pitch="41" RiffPosition="11,171875" Velocity="72" />
      <note Length="0.0625" Pitch="49" RiffPosition="11,1875" Velocity="40" />
      <note Length="0.015625" Pitch="41" RiffPosition="11,25" Velocity="52" />
      <note Length="0.015625" Pitch="41" RiffPosition="11,265625" Velocity="45" />
      <note Length="0.015625" Pitch="53" RiffPosition="11,28125" Velocity="38" />
      <note Length="0.015625" Pitch="55" RiffPosition="11,296875" Velocity="38" />
      <note Length="0.0625" Pitch="53" RiffPosition="11,3125" Velocity="56" />
      <note Length="0.015625" Pitch="56" RiffPosition="11,375" Velocity="56" />
      <note Length="0.015625" Pitch="53" RiffPosition="11,390625" Velocity="80" />
      <note Length="0.015625" Pitch="53" RiffPosition="11,40625" Velocity="73" />
      <note Length="0.015625" Pitch="41" RiffPosition="11,421875" Velocity="93" />
      <note Length="0.0625" Pitch="41" RiffPosition="11,4375" Velocity="86" />
      <note Length="0.015625" Pitch="48" RiffPosition="11,5" Velocity="90" />
      <note Length="0.015625" Pitch="49" RiffPosition="11,515625" Velocity="84" />
      <note Length="0.015625" Pitch="41" RiffPosition="11,53125" Velocity="82" />
      <note Length="0.015625" Pitch="49" RiffPosition="11,546875" Velocity="75" />
      <note Length="0.0625" Pitch="41" RiffPosition="11,5625" Velocity="69" />
      <note Length="0.015625" Pitch="41" RiffPosition="11,625" Velocity="57" />
      <note Length="0.015625" Pitch="55" RiffPosition="11,640625" Velocity="63" />
      <note Length="0.015625" Pitch="56" RiffPosition="11,65625" Velocity="70" />
      <note Length="0.015625" Pitch="55" RiffPosition="11,671875" Velocity="46" />
      <note Length="0.0625" Pitch="56" RiffPosition="11,6875" Velocity="44" />
      <note Length="0.015625" Pitch="53" RiffPosition="11,75" Velocity="74" />
      <note Length="0.015625" Pitch="53" RiffPosition="11,765625" Velocity="36" />
      <note Length="0.015625" Pitch="41" RiffPosition="11,78125" Velocity="42" />
      <note Length="0.015625" Pitch="41" RiffPosition="11,796875" Velocity="49" />
      <note Length="0.0625" Pitch="41" RiffPosition="11,8125" Velocity="56" />
      <note Length="0.015625" Pitch="41" RiffPosition="11,875" Velocity="77" />
      <note Length="0.015625" Pitch="41" RiffPosition="11,890625" Velocity="53" />
      <note Length="0.015625" Pitch="41" RiffPosition="11,90625" Velocity="60" />
      <note Length="0.015625" Pitch="53" RiffPosition="11,921875" Velocity="93" />
      <note Length="0.0625" Pitch="41" RiffPosition="11,9375" Velocity="99" />
      <note Length="0.015625" Pitch="56" RiffPosition="12" Velocity="95" />
      <note Length="0.015625" Pitch="58" RiffPosition="12.015625" Velocity="102" />
      <note Length="0.015625" Pitch="56" RiffPosition="12.03125" Velocity="82" />
      <note Length="0.015625" Pitch="56" RiffPosition="12.046875" Velocity="58" />
      <note Length="0.0625" Pitch="55" RiffPosition="12.0625" Velocity="64" />
      <note Length="0.015625" Pitch="53" RiffPosition="12.125" Velocity="70" />
      <note Length="0.015625" Pitch="41" RiffPosition="12.140625" Velocity="63" />
      <note Length="0.015625" Pitch="41" RiffPosition="12.15625" Velocity="56" />
      <note Length="0.015625" Pitch="41" RiffPosition="12.171875" Velocity="50" />
      <note Length="0.0625" Pitch="49" RiffPosition="12.1875" Velocity="48" />
      <note Length="0.015625" Pitch="53" RiffPosition="12.25" Velocity="75" />
      <note Length="0.015625" Pitch="41" RiffPosition="12.265625" Velocity="53" />
      <note Length="0.015625" Pitch="53" RiffPosition="12.28125" Velocity="46" />
      <note Length="0.015625" Pitch="41" RiffPosition="12.296875" Velocity="40" />
      <note Length="0.0625" Pitch="53" RiffPosition="12.3125" Velocity="37" />
      <note Length="0.015625" Pitch="53" RiffPosition="12.375" Velocity="64" />
      <note Length="0.015625" Pitch="53" RiffPosition="12.390625" Velocity="57" />
      <note Length="0.015625" Pitch="53" RiffPosition="12.40625" Velocity="81" />
      <note Length="0.015625" Pitch="41" RiffPosition="12.421875" Velocity="101" />
      <note Length="0.0625" Pitch="41" RiffPosition="12.4375" Velocity="94" />
      <note Length="0.015625" Pitch="48" RiffPosition="12.5" Velocity="99" />
      <note Length="0.015625" Pitch="49" RiffPosition="12.515625" Velocity="92" />
      <note Length="0.015625" Pitch="41" RiffPosition="12.53125" Velocity="59" />
      <note Length="0.015625" Pitch="49" RiffPosition="12.546875" Velocity="83" />
      <note Length="0.0625" Pitch="41" RiffPosition="12.5625" Velocity="77" />
      <note Length="0.015625" Pitch="41" RiffPosition="12.625" Velocity="49" />
      <note Length="0.015625" Pitch="56" RiffPosition="12.640625" Velocity="55" />
      <note Length="0.015625" Pitch="53" RiffPosition="12.65625" Velocity="62" />
      <note Length="0.015625" Pitch="56" RiffPosition="12.671875" Velocity="68" />
      <note Length="0.0625" Pitch="56" RiffPosition="12.6875" Velocity="49" />
      <note Length="0.015625" Pitch="53" RiffPosition="12.75" Velocity="52" />
      <note Length="0.015625" Pitch="53" RiffPosition="12.765625" Velocity="42" />
      <note Length="0.015625" Pitch="41" RiffPosition="12.78125" Velocity="36" />
      <note Length="0.015625" Pitch="41" RiffPosition="12.796875" Velocity="41" />
      <note Length="0.0625" Pitch="41" RiffPosition="12.8125" Velocity="47" />
      <note Length="0.015625" Pitch="41" RiffPosition="12.875" Velocity="69" />
      <note Length="0.015625" Pitch="53" RiffPosition="12.890625" Velocity="76" />
      <note Length="0.015625" Pitch="41" RiffPosition="12.90625" Velocity="83" />
      <note Length="0.015625" Pitch="53" RiffPosition="12.921875" Velocity="85" />
      <note Length="0.0625" Pitch="53" RiffPosition="12.9375" Velocity="91" />
      <note Length="0.015625" Pitch="56" RiffPosition="13" Velocity="87" />
      <note Length="0.015625" Pitch="56" RiffPosition="13.015625" Velocity="93" />
      <note Length="0.015625" Pitch="56" RiffPosition="13.03125" Velocity="74" />
      <note Length="0.015625" Pitch="58" RiffPosition="13.046875" Velocity="80" />
      <note Length="0.0625" Pitch="55" RiffPosition="13.0625" Velocity="56" />
      <note Length="0.015625" Pitch="53" RiffPosition="13.125" Velocity="47" />
      <note Length="0.015625" Pitch="41" RiffPosition="13.140625" Velocity="71" />
      <note Length="0.015625" Pitch="41" RiffPosition="13.15625" Velocity="65" />
      <note Length="0.015625" Pitch="49" RiffPosition="13.171875" Velocity="58" />
      <note Length="0.0625" Pitch="41" RiffPosition="13.1875" Velocity="45" />
      <note Length="0.015625" Pitch="53" RiffPosition="13.25" Velocity="67" />
      <note Length="0.015625" Pitch="41" RiffPosition="13.265625" Velocity="40" />
      <note Length="0.015625" Pitch="53" RiffPosition="13.28125" Velocity="54" />
      <note Length="0.015625" Pitch="41" RiffPosition="13.296875" Velocity="48" />
      <note Length="0.0625" Pitch="53" RiffPosition="13.3125" Velocity="41" />
      <note Length="0.015625" Pitch="53" RiffPosition="13.375" Velocity="72" />
      <note Length="0.015625" Pitch="53" RiffPosition="13.390625" Velocity="65" />
      <note Length="0.015625" Pitch="53" RiffPosition="13.40625" Velocity="59" />
      <note Length="0.015625" Pitch="41" RiffPosition="13.421875" Velocity="109" />
      <note Length="0.0625" Pitch="41" RiffPosition="13.4375" Velocity="102" />
      <note Length="0.015625" Pitch="48" RiffPosition="13.5" Velocity="107" />
      <note Length="0.015625" Pitch="41" RiffPosition="13.515625" Velocity="100" />
      <note Length="0.015625" Pitch="48" RiffPosition="13.53125" Velocity="67" />
      <note Length="0.015625" Pitch="41" RiffPosition="13.546875" Velocity="61" />
      <note Length="0.0625" Pitch="41" RiffPosition="13.5625" Velocity="54" />
      <note Length="0.015625" Pitch="53" RiffPosition="13.625" Velocity="71" />
      <note Length="0.015625" Pitch="56" RiffPosition="13.640625" Velocity="47" />
      <note Length="0.015625" Pitch="55" RiffPosition="13.65625" Velocity="54" />
      <note Length="0.015625" Pitch="56" RiffPosition="13.671875" Velocity="60" />
      <note Length="0.0625" Pitch="56" RiffPosition="13.6875" Velocity="41" />
      <note Length="0.015625" Pitch="53" RiffPosition="13.75" Velocity="60" />
      <note Length="0.015625" Pitch="53" RiffPosition="13.765625" Velocity="50" />
      <note Length="0.015625" Pitch="41" RiffPosition="13.78125" Velocity="57" />
      <note Length="0.015625" Pitch="41" RiffPosition="13.796875" Velocity="37" />
      <note Length="0.0625" Pitch="41" RiffPosition="13.8125" Velocity="39" />
      <note Length="0.015625" Pitch="41" RiffPosition="13.875" Velocity="61" />
      <note Length="0.015625" Pitch="41" RiffPosition="13.890625" Velocity="68" />
      <note Length="0.015625" Pitch="41" RiffPosition="13.90625" Velocity="74" />
      <note Length="0.015625" Pitch="53" RiffPosition="13.921875" Velocity="107" />
      <note Length="0.0625" Pitch="53" RiffPosition="13.9375" Velocity="83" />
    </riff>
    <riff IsDrum="False" MidiInstrument="106" Tempo="78" Length="14">
      <note Length="0.015625" Pitch="65" RiffPosition="0" Velocity="0" />
      <note Length="0.015625" Pitch="67" RiffPosition="0.015625" Velocity="0" />
      <note Length="0.03125" Pitch="68" RiffPosition="0.03125" Velocity="0" />
      <note Length="0.015625" Pitch="67" RiffPosition="0.0625" Velocity="0" />
      <note Length="0.046875" Pitch="67" RiffPosition="0.078125" Velocity="0" />
      <note Length="0.015625" Pitch="65" RiffPosition="0.125" Velocity="0" />
      <note Length="0.015625" Pitch="67" RiffPosition="0.140625" Velocity="0" />
      <note Length="0.015625" Pitch="53" RiffPosition="0.15625" Velocity="0" />
      <note Length="0.015625" Pitch="53" RiffPosition="0.171875" Velocity="0" />
      <note Length="0.03125" Pitch="53" RiffPosition="0.1875" Velocity="0" />
      <note Length="0.03125" Pitch="61" RiffPosition="0.21875" Velocity="0" />
      <note Length="0.015625" Pitch="53" RiffPosition="0.25" Velocity="0" />
      <note Length="0.015625" Pitch="53" RiffPosition="0.265625" Velocity="0" />
      <note Length="0.03125" Pitch="53" RiffPosition="0.28125" Velocity="0" />
      <note Length="0.015625" Pitch="58" RiffPosition="0.3125" Velocity="0" />
      <note Length="0.046875" Pitch="58" RiffPosition="0.328125" Velocity="0" />
      <note Length="0.015625" Pitch="60" RiffPosition="0.375" Velocity="0" />
      <note Length="0.015625" Pitch="61" RiffPosition="0.390625" Velocity="0" />
      <note Length="0.015625" Pitch="53" RiffPosition="0.40625" Velocity="0" />
      <note Length="0.015625" Pitch="60" RiffPosition="0.421875" Velocity="0" />
      <note Length="0.03125" Pitch="60" RiffPosition="0.4375" Velocity="0" />
      <note Length="0.03125" Pitch="53" RiffPosition="0.46875" Velocity="0" />
      <note Length="0.015625" Pitch="65" RiffPosition="0.5" Velocity="0" />
      <note Length="0.015625" Pitch="68" RiffPosition="0.515625" Velocity="0" />
      <note Length="0.03125" Pitch="67" RiffPosition="0.53125" Velocity="0" />
      <note Length="0.015625" Pitch="68" RiffPosition="0.5625" Velocity="0" />
      <note Length="0.046875" Pitch="65" RiffPosition="0.578125" Velocity="0" />
      <note Length="0.015625" Pitch="65" RiffPosition="0.625" Velocity="0" />
      <note Length="0.015625" Pitch="70" RiffPosition="0.640625" Velocity="0" />
      <note Length="0.015625" Pitch="72" RiffPosition="0.65625" Velocity="0" />
      <note Length="0.015625" Pitch="72" RiffPosition="0.671875" Velocity="0" />
      <note Length="0.03125" Pitch="68" RiffPosition="0.6875" Velocity="0" />
      <note Length="0.03125" Pitch="68" RiffPosition="0.71875" Velocity="0" />
      <note Length="0.015625" Pitch="65" RiffPosition="0.75" Velocity="0" />
      <note Length="0.015625" Pitch="68" RiffPosition="0.765625" Velocity="0" />
      <note Length="0.03125" Pitch="68" RiffPosition="0.78125" Velocity="0" />
      <note Length="0.015625" Pitch="65" RiffPosition="0.8125" Velocity="0" />
      <note Length="0.046875" Pitch="53" RiffPosition="0.828125" Velocity="0" />
      <note Length="0.015625" Pitch="65" RiffPosition="0.875" Velocity="0" />
      <note Length="0.015625" Pitch="67" RiffPosition="0.890625" Velocity="0" />
      <note Length="0.015625" Pitch="65" RiffPosition="0.90625" Velocity="0" />
      <note Length="0.015625" Pitch="65" RiffPosition="0.921875" Velocity="0" />
      <note Length="0.03125" Pitch="67" RiffPosition="0.9375" Velocity="0" />
      <note Length="0.03125" Pitch="53" RiffPosition="0.96875" Velocity="0" />
      <note Length="0.015625" Pitch="53" RiffPosition="1" Velocity="0" />
      <note Length="0.015625" Pitch="67" RiffPosition="1,015625" Velocity="0" />
      <note Length="0.03125" Pitch="68" RiffPosition="1,03125" Velocity="0" />
      <note Length="0.015625" Pitch="65" RiffPosition="1,0625" Velocity="0" />
      <note Length="0.046875" Pitch="65" RiffPosition="1,078125" Velocity="0" />
      <note Length="0.015625" Pitch="65" RiffPosition="1,125" Velocity="0" />
      <note Length="0.015625" Pitch="67" RiffPosition="1,140625" Velocity="0" />
      <note Length="0.015625" Pitch="53" RiffPosition="1,15625" Velocity="0" />
      <note Length="0.015625" Pitch="53" RiffPosition="1,171875" Velocity="0" />
      <note Length="0.03125" Pitch="53" RiffPosition="1,1875" Velocity="0" />
      <note Length="0.03125" Pitch="61" RiffPosition="1,21875" Velocity="0" />
      <note Length="0.015625" Pitch="53" RiffPosition="1,25" Velocity="0" />
      <note Length="0.015625" Pitch="61" RiffPosition="1,265625" Velocity="0" />
      <note Length="0.03125" Pitch="61" RiffPosition="1,28125" Velocity="0" />
      <note Length="0.015625" Pitch="61" RiffPosition="1,3125" Velocity="0" />
      <note Length="0.046875" Pitch="58" RiffPosition="1,328125" Velocity="0" />
      <note Length="0.015625" Pitch="58" RiffPosition="1,375" Velocity="0" />
      <note Length="0.015625" Pitch="60" RiffPosition="1,390625" Velocity="0" />
      <note Length="0.015625" Pitch="53" RiffPosition="1,40625" Velocity="0" />
      <note Length="0.015625" Pitch="60" RiffPosition="1,421875" Velocity="0" />
      <note Length="0.03125" Pitch="60" RiffPosition="1,4375" Velocity="0" />
      <note Length="0.03125" Pitch="53" RiffPosition="1,46875" Velocity="0" />
      <note Length="0.015625" Pitch="65" RiffPosition="1,5" Velocity="0" />
      <note Length="0.015625" Pitch="68" RiffPosition="1,515625" Velocity="0" />
      <note Length="0.03125" Pitch="65" RiffPosition="1,53125" Velocity="0" />
      <note Length="0.015625" Pitch="68" RiffPosition="1,5625" Velocity="0" />
      <note Length="0.046875" Pitch="68" RiffPosition="1,578125" Velocity="0" />
      <note Length="0.015625" Pitch="72" RiffPosition="1,625" Velocity="0" />
      <note Length="0.015625" Pitch="70" RiffPosition="1,640625" Velocity="0" />
      <note Length="0.015625" Pitch="70" RiffPosition="1,65625" Velocity="0" />
      <note Length="0.015625" Pitch="70" RiffPosition="1,671875" Velocity="0" />
      <note Length="0.03125" Pitch="68" RiffPosition="1,6875" Velocity="0" />
      <note Length="0.03125" Pitch="67" RiffPosition="1,71875" Velocity="0" />
      <note Length="0.015625" Pitch="65" RiffPosition="1,75" Velocity="0" />
      <note Length="0.015625" Pitch="67" RiffPosition="1,765625" Velocity="0" />
      <note Length="0.03125" Pitch="68" RiffPosition="1,78125" Velocity="0" />
      <note Length="0.015625" Pitch="53" RiffPosition="1,8125" Velocity="0" />
      <note Length="0.046875" Pitch="53" RiffPosition="1,828125" Velocity="0" />
      <note Length="0.015625" Pitch="65" RiffPosition="1,875" Velocity="0" />
      <note Length="0.015625" Pitch="67" RiffPosition="1,890625" Velocity="0" />
      <note Length="0.015625" Pitch="65" RiffPosition="1,90625" Velocity="0" />
      <note Length="0.015625" Pitch="65" RiffPosition="1,921875" Velocity="0" />
      <note Length="0.03125" Pitch="65" RiffPosition="1,9375" Velocity="0" />
      <note Length="0.03125" Pitch="53" RiffPosition="1,96875" Velocity="0" />
      <note Length="0.015625" Pitch="67" RiffPosition="2" Velocity="0" />
      <note Length="0.015625" Pitch="65" RiffPosition="2.015625" Velocity="0" />
      <note Length="0.03125" Pitch="68" RiffPosition="2.03125" Velocity="0" />
      <note Length="0.015625" Pitch="65" RiffPosition="2.0625" Velocity="0" />
      <note Length="0.046875" Pitch="65" RiffPosition="2.078125" Velocity="0" />
      <note Length="0.015625" Pitch="53" RiffPosition="2.125" Velocity="0" />
      <note Length="0.015625" Pitch="65" RiffPosition="2.140625" Velocity="0" />
      <note Length="0.015625" Pitch="67" RiffPosition="2.15625" Velocity="0" />
      <note Length="0.015625" Pitch="53" RiffPosition="2.171875" Velocity="0" />
      <note Length="0.03125" Pitch="53" RiffPosition="2.1875" Velocity="0" />
      <note Length="0.03125" Pitch="60" RiffPosition="2.21875" Velocity="0" />
      <note Length="0.015625" Pitch="53" RiffPosition="2.25" Velocity="0" />
      <note Length="0.015625" Pitch="53" RiffPosition="2.265625" Velocity="0" />
      <note Length="0.03125" Pitch="61" RiffPosition="2.28125" Velocity="0" />
      <note Length="0.015625" Pitch="60" RiffPosition="2.3125" Velocity="0" />
      <note Length="0.046875" Pitch="58" RiffPosition="2.328125" Velocity="0" />
      <note Length="0.015625" Pitch="61" RiffPosition="2.375" Velocity="0" />
      <note Length="0.015625" Pitch="60" RiffPosition="2.390625" Velocity="0" />
      <note Length="0.015625" Pitch="61" RiffPosition="2.40625" Velocity="0" />
      <note Length="0.015625" Pitch="53" RiffPosition="2.421875" Velocity="0" />
      <note Length="0.03125" Pitch="60" RiffPosition="2.4375" Velocity="0" />
      <note Length="0.03125" Pitch="53" RiffPosition="2.46875" Velocity="0" />
      <note Length="0.015625" Pitch="65" RiffPosition="2.5" Velocity="0" />
      <note Length="0.015625" Pitch="68" RiffPosition="2.515625" Velocity="0" />
      <note Length="0.03125" Pitch="68" RiffPosition="2.53125" Velocity="0" />
      <note Length="0.015625" Pitch="67" RiffPosition="2.5625" Velocity="0" />
      <note Length="0.046875" Pitch="67" RiffPosition="2.578125" Velocity="0" />
      <note Length="0.015625" Pitch="72" RiffPosition="2.625" Velocity="0" />
      <note Length="0.015625" Pitch="65" RiffPosition="2.640625" Velocity="0" />
      <note Length="0.015625" Pitch="70" RiffPosition="2.65625" Velocity="0" />
      <note Length="0.015625" Pitch="70" RiffPosition="2.671875" Velocity="0" />
      <note Length="0.03125" Pitch="70" RiffPosition="2.6875" Velocity="0" />
      <note Length="0.03125" Pitch="67" RiffPosition="2.71875" Velocity="0" />
      <note Length="0.015625" Pitch="65" RiffPosition="2.75" Velocity="0" />
      <note Length="0.015625" Pitch="67" RiffPosition="2.765625" Velocity="0" />
      <note Length="0.03125" Pitch="67" RiffPosition="2.78125" Velocity="0" />
      <note Length="0.015625" Pitch="53" RiffPosition="2.8125" Velocity="0" />
      <note Length="0.046875" Pitch="53" RiffPosition="2.828125" Velocity="0" />
      <note Length="0.015625" Pitch="53" RiffPosition="2.875" Velocity="0" />
      <note Length="0.015625" Pitch="65" RiffPosition="2.890625" Velocity="0" />
      <note Length="0.015625" Pitch="67" RiffPosition="2.90625" Velocity="0" />
      <note Length="0.015625" Pitch="65" RiffPosition="2.921875" Velocity="0" />
      <note Length="0.03125" Pitch="65" RiffPosition="2.9375" Velocity="0" />
      <note Length="0.03125" Pitch="53" RiffPosition="2.96875" Velocity="0" />
      <note Length="0.015625" Pitch="65" RiffPosition="3" Velocity="0" />
      <note Length="0.015625" Pitch="65" RiffPosition="3.015625" Velocity="0" />
      <note Length="0.03125" Pitch="67" RiffPosition="3.03125" Velocity="0" />
      <note Length="0.015625" Pitch="68" RiffPosition="3.0625" Velocity="0" />
      <note Length="0.046875" Pitch="65" RiffPosition="3.078125" Velocity="0" />
      <note Length="0.015625" Pitch="53" RiffPosition="3.125" Velocity="0" />
      <note Length="0.015625" Pitch="65" RiffPosition="3.140625" Velocity="0" />
      <note Length="0.015625" Pitch="65" RiffPosition="3.15625" Velocity="0" />
      <note Length="0.015625" Pitch="65" RiffPosition="3.171875" Velocity="0" />
      <note Length="0.03125" Pitch="53" RiffPosition="3.1875" Velocity="0" />
      <note Length="0.03125" Pitch="53" RiffPosition="3.21875" Velocity="0" />
      <note Length="0.015625" Pitch="53" RiffPosition="3.25" Velocity="0" />
      <note Length="0.015625" Pitch="53" RiffPosition="3.265625" Velocity="0" />
      <note Length="0.03125" Pitch="60" RiffPosition="3.28125" Velocity="0" />
      <note Length="0.015625" Pitch="60" RiffPosition="3.3125" Velocity="0" />
      <note Length="0.046875" Pitch="60" RiffPosition="3.328125" Velocity="0" />
      <note Length="0.015625" Pitch="60" RiffPosition="3.375" Velocity="0" />
      <note Length="0.015625" Pitch="60" RiffPosition="3.390625" Velocity="0" />
      <note Length="0.015625" Pitch="61" RiffPosition="3.40625" Velocity="0" />
      <note Length="0.015625" Pitch="61" RiffPosition="3.421875" Velocity="0" />
      <note Length="0.03125" Pitch="60" RiffPosition="3.4375" Velocity="0" />
      <note Length="0.03125" Pitch="53" RiffPosition="3.46875" Velocity="0" />
      <note Length="0.015625" Pitch="53" RiffPosition="3.5" Velocity="0" />
      <note Length="0.015625" Pitch="67" RiffPosition="3.515625" Velocity="0" />
      <note Length="0.03125" Pitch="68" RiffPosition="3.53125" Velocity="0" />
      <note Length="0.015625" Pitch="67" RiffPosition="3.5625" Velocity="0" />
      <note Length="0.046875" Pitch="67" RiffPosition="3.578125" Velocity="0" />
      <note Length="0.015625" Pitch="70" RiffPosition="3.625" Velocity="0" />
      <note Length="0.015625" Pitch="65" RiffPosition="3.640625" Velocity="0" />
      <note Length="0.015625" Pitch="70" RiffPosition="3.65625" Velocity="0" />
      <note Length="0.015625" Pitch="70" RiffPosition="3.671875" Velocity="0" />
      <note Length="0.03125" Pitch="70" RiffPosition="3.6875" Velocity="0" />
      <note Length="0.03125" Pitch="65" RiffPosition="3.71875" Velocity="0" />
      <note Length="0.015625" Pitch="68" RiffPosition="3.75" Velocity="0" />
      <note Length="0.015625" Pitch="65" RiffPosition="3.765625" Velocity="0" />
      <note Length="0.03125" Pitch="67" RiffPosition="3.78125" Velocity="0" />
      <note Length="0.015625" Pitch="53" RiffPosition="3.8125" Velocity="0" />
      <note Length="0.046875" Pitch="53" RiffPosition="3.828125" Velocity="0" />
      <note Length="0.015625" Pitch="53" RiffPosition="3.875" Velocity="0" />
      <note Length="0.015625" Pitch="65" RiffPosition="3.890625" Velocity="0" />
      <note Length="0.015625" Pitch="67" RiffPosition="3.90625" Velocity="0" />
      <note Length="0.015625" Pitch="65" RiffPosition="3.921875" Velocity="0" />
      <note Length="0.03125" Pitch="65" RiffPosition="3.9375" Velocity="0" />
      <note Length="0.03125" Pitch="53" RiffPosition="3.96875" Velocity="0" />
      <note Length="0.015625" Pitch="65" RiffPosition="4" Velocity="0" />
      <note Length="0.015625" Pitch="68" RiffPosition="4.015625" Velocity="0" />
      <note Length="0.03125" Pitch="67" RiffPosition="4.03125" Velocity="0" />
      <note Length="0.015625" Pitch="68" RiffPosition="4.0625" Velocity="0" />
      <note Length="0.046875" Pitch="65" RiffPosition="4.078125" Velocity="0" />
      <note Length="0.015625" Pitch="65" RiffPosition="4.125" Velocity="0" />
      <note Length="0.015625" Pitch="65" RiffPosition="4.140625" Velocity="0" />
      <note Length="0.015625" Pitch="65" RiffPosition="4.15625" Velocity="0" />
      <note Length="0.015625" Pitch="65" RiffPosition="4.171875" Velocity="0" />
      <note Length="0.03125" Pitch="53" RiffPosition="4.1875" Velocity="0" />
      <note Length="0.03125" Pitch="53" RiffPosition="4.21875" Velocity="0" />
      <note Length="0.015625" Pitch="61" RiffPosition="4.25" Velocity="0" />
      <note Length="0.015625" Pitch="53" RiffPosition="4.265625" Velocity="0" />
      <note Length="0.03125" Pitch="53" RiffPosition="4.28125" Velocity="0" />
      <note Length="0.015625" Pitch="60" RiffPosition="4.3125" Velocity="0" />
      <note Length="0.046875" Pitch="60" RiffPosition="4.328125" Velocity="0" />
      <note Length="0.015625" Pitch="60" RiffPosition="4.375" Velocity="0" />
      <note Length="0.015625" Pitch="53" RiffPosition="4.390625" Velocity="0" />
      <note Length="0.015625" Pitch="60" RiffPosition="4.40625" Velocity="0" />
      <note Length="0.015625" Pitch="61" RiffPosition="4.421875" Velocity="0" />
      <note Length="0.03125" Pitch="53" RiffPosition="4.4375" Velocity="0" />
      <note Length="0.03125" Pitch="53" RiffPosition="4.46875" Velocity="0" />
      <note Length="0.015625" Pitch="53" RiffPosition="4.5" Velocity="0" />
      <note Length="0.015625" Pitch="67" RiffPosition="4.515625" Velocity="0" />
      <note Length="0.03125" Pitch="68" RiffPosition="4.53125" Velocity="0" />
      <note Length="0.015625" Pitch="65" RiffPosition="4.5625" Velocity="0" />
      <note Length="0.046875" Pitch="65" RiffPosition="4.578125" Velocity="0" />
      <note Length="0.015625" Pitch="70" RiffPosition="4.625" Velocity="0" />
      <note Length="0.015625" Pitch="72" RiffPosition="4.640625" Velocity="0" />
      <note Length="0.015625" Pitch="65" RiffPosition="4.65625" Velocity="0" />
      <note Length="0.015625" Pitch="70" RiffPosition="4.671875" Velocity="0" />
      <note Length="0.03125" Pitch="68" RiffPosition="4.6875" Velocity="0" />
      <note Length="0.03125" Pitch="65" RiffPosition="4.71875" Velocity="0" />
      <note Length="0.015625" Pitch="68" RiffPosition="4.75" Velocity="0" />
      <note Length="0.015625" Pitch="65" RiffPosition="4.765625" Velocity="0" />
      <note Length="0.03125" Pitch="65" RiffPosition="4.78125" Velocity="0" />
      <note Length="0.015625" Pitch="65" RiffPosition="4.8125" Velocity="0" />
      <note Length="0.046875" Pitch="53" RiffPosition="4.828125" Velocity="0" />
      <note Length="0.015625" Pitch="53" RiffPosition="4.875" Velocity="0" />
      <note Length="0.015625" Pitch="65" RiffPosition="4.890625" Velocity="0" />
      <note Length="0.015625" Pitch="65" RiffPosition="4.90625" Velocity="0" />
      <note Length="0.015625" Pitch="67" RiffPosition="4.921875" Velocity="0" />
      <note Length="0.03125" Pitch="65" RiffPosition="4.9375" Velocity="0" />
      <note Length="0.03125" Pitch="53" RiffPosition="4.96875" Velocity="0" />
      <note Length="0.015625" Pitch="65" RiffPosition="5" Velocity="0" />
      <note Length="0.015625" Pitch="68" RiffPosition="5.015625" Velocity="0" />
      <note Length="0.03125" Pitch="65" RiffPosition="5.03125" Velocity="0" />
      <note Length="0.015625" Pitch="68" RiffPosition="5.0625" Velocity="0" />
      <note Length="0.046875" Pitch="68" RiffPosition="5.078125" Velocity="0" />
      <note Length="0.015625" Pitch="65" RiffPosition="5.125" Velocity="0" />
      <note Length="0.015625" Pitch="65" RiffPosition="5.140625" Velocity="0" />
      <note Length="0.015625" Pitch="65" RiffPosition="5.15625" Velocity="0" />
      <note Length="0.015625" Pitch="65" RiffPosition="5.171875" Velocity="0" />
      <note Length="0.03125" Pitch="65" RiffPosition="5.1875" Velocity="0" />
      <note Length="0.03125" Pitch="53" RiffPosition="5.21875" Velocity="0" />
      <note Length="0.015625" Pitch="61" RiffPosition="5.25" Velocity="0" />
      <note Length="0.015625" Pitch="53" RiffPosition="5.265625" Velocity="0" />
      <note Length="0.03125" Pitch="53" RiffPosition="5.28125" Velocity="0" />
      <note Length="0.015625" Pitch="60" RiffPosition="5.3125" Velocity="0" />
      <note Length="0.046875" Pitch="58" RiffPosition="5.328125" Velocity="0" />
      <note Length="0.015625" Pitch="60" RiffPosition="5.375" Velocity="0" />
      <note Length="0.015625" Pitch="53" RiffPosition="5.390625" Velocity="0" />
      <note Length="0.015625" Pitch="60" RiffPosition="5.40625" Velocity="0" />
      <note Length="0.015625" Pitch="60" RiffPosition="5.421875" Velocity="0" />
      <note Length="0.03125" Pitch="61" RiffPosition="5.4375" Velocity="0" />
      <note Length="0.03125" Pitch="53" RiffPosition="5.46875" Velocity="0" />
      <note Length="0.015625" Pitch="67" RiffPosition="5.5" Velocity="0" />
      <note Length="0.015625" Pitch="65" RiffPosition="5.515625" Velocity="0" />
      <note Length="0.03125" Pitch="68" RiffPosition="5.53125" Velocity="0" />
      <note Length="0.015625" Pitch="65" RiffPosition="5.5625" Velocity="0" />
      <note Length="0.046875" Pitch="65" RiffPosition="5.578125" Velocity="0" />
      <note Length="0.015625" Pitch="70" RiffPosition="5.625" Velocity="0" />
      <note Length="0.015625" Pitch="72" RiffPosition="5.640625" Velocity="0" />
      <note Length="0.015625" Pitch="65" RiffPosition="5.65625" Velocity="0" />
      <note Length="0.015625" Pitch="68" RiffPosition="5.671875" Velocity="0" />
      <note Length="0.03125" Pitch="68" RiffPosition="5.6875" Velocity="0" />
      <note Length="0.03125" Pitch="65" RiffPosition="5.71875" Velocity="0" />
      <note Length="0.015625" Pitch="67" RiffPosition="5.75" Velocity="0" />
      <note Length="0.015625" Pitch="68" RiffPosition="5.765625" Velocity="0" />
      <note Length="0.03125" Pitch="65" RiffPosition="5.78125" Velocity="0" />
      <note Length="0.015625" Pitch="65" RiffPosition="5.8125" Velocity="0" />
      <note Length="0.046875" Pitch="53" RiffPosition="5.828125" Velocity="0" />
      <note Length="0.015625" Pitch="65" RiffPosition="5.875" Velocity="0" />
      <note Length="0.015625" Pitch="65" RiffPosition="5.890625" Velocity="0" />
      <note Length="0.015625" Pitch="65" RiffPosition="5.90625" Velocity="0" />
      <note Length="0.015625" Pitch="67" RiffPosition="5.921875" Velocity="0" />
      <note Length="0.03125" Pitch="53" RiffPosition="5.9375" Velocity="0" />
      <note Length="0.03125" Pitch="53" RiffPosition="5.96875" Velocity="0" />
      <note Length="0.015625" Pitch="65" RiffPosition="6" Velocity="0" />
      <note Length="0.015625" Pitch="67" RiffPosition="6.015625" Velocity="0" />
      <note Length="0.03125" Pitch="68" RiffPosition="6.03125" Velocity="0" />
      <note Length="0.015625" Pitch="67" RiffPosition="6.0625" Velocity="0" />
      <note Length="0.046875" Pitch="67" RiffPosition="6.078125" Velocity="0" />
      <note Length="0.015625" Pitch="65" RiffPosition="6.125" Velocity="0" />
      <note Length="0.015625" Pitch="67" RiffPosition="6.140625" Velocity="0" />
      <note Length="0.015625" Pitch="65" RiffPosition="6.15625" Velocity="0" />
      <note Length="0.015625" Pitch="53" RiffPosition="6.171875" Velocity="0" />
      <note Length="0.03125" Pitch="53" RiffPosition="6.1875" Velocity="0" />
      <note Length="0.03125" Pitch="53" RiffPosition="6.21875" Velocity="0" />
      <note Length="0.015625" Pitch="60" RiffPosition="6.25" Velocity="0" />
      <note Length="0.015625" Pitch="53" RiffPosition="6.265625" Velocity="0" />
      <note Length="0.03125" Pitch="53" RiffPosition="6.28125" Velocity="0" />
      <note Length="0.015625" Pitch="60" RiffPosition="6.3125" Velocity="0" />
      <note Length="0.046875" Pitch="58" RiffPosition="6.328125" Velocity="0" />
      <note Length="0.015625" Pitch="60" RiffPosition="6.375" Velocity="0" />
      <note Length="0.015625" Pitch="61" RiffPosition="6.390625" Velocity="0" />
      <note Length="0.015625" Pitch="53" RiffPosition="6.40625" Velocity="0" />
      <note Length="0.015625" Pitch="60" RiffPosition="6.421875" Velocity="0" />
      <note Length="0.03125" Pitch="61" RiffPosition="6.4375" Velocity="0" />
      <note Length="0.03125" Pitch="53" RiffPosition="6.46875" Velocity="0" />
      <note Length="0.015625" Pitch="65" RiffPosition="6.5" Velocity="0" />
      <note Length="0.015625" Pitch="65" RiffPosition="6.515625" Velocity="0" />
      <note Length="0.03125" Pitch="67" RiffPosition="6.53125" Velocity="0" />
      <note Length="0.015625" Pitch="68" RiffPosition="6.5625" Velocity="0" />
      <note Length="0.046875" Pitch="65" RiffPosition="6.578125" Velocity="0" />
      <note Length="0.015625" Pitch="70" RiffPosition="6.625" Velocity="0" />
      <note Length="0.015625" Pitch="72" RiffPosition="6.640625" Velocity="0" />
      <note Length="0.015625" Pitch="72" RiffPosition="6.65625" Velocity="0" />
      <note Length="0.015625" Pitch="72" RiffPosition="6.671875" Velocity="0" />
      <note Length="0.03125" Pitch="68" RiffPosition="6.6875" Velocity="0" />
      <note Length="0.03125" Pitch="68" RiffPosition="6.71875" Velocity="0" />
      <note Length="0.015625" Pitch="67" RiffPosition="6.75" Velocity="0" />
      <note Length="0.015625" Pitch="68" RiffPosition="6.765625" Velocity="0" />
      <note Length="0.03125" Pitch="65" RiffPosition="6.78125" Velocity="0" />
      <note Length="0.015625" Pitch="65" RiffPosition="6.8125" Velocity="0" />
      <note Length="0.046875" Pitch="53" RiffPosition="6.828125" Velocity="0" />
      <note Length="0.015625" Pitch="65" RiffPosition="6.875" Velocity="0" />
      <note Length="0.015625" Pitch="53" RiffPosition="6.890625" Velocity="0" />
      <note Length="0.015625" Pitch="65" RiffPosition="6.90625" Velocity="0" />
      <note Length="0.015625" Pitch="65" RiffPosition="6.921875" Velocity="0" />
      <note Length="0.03125" Pitch="67" RiffPosition="6.9375" Velocity="0" />
      <note Length="0.03125" Pitch="53" RiffPosition="6.96875" Velocity="0" />
      <note Length="0.015625" Pitch="53" RiffPosition="7" Velocity="0" />
      <note Length="0.015625" Pitch="67" RiffPosition="7.015625" Velocity="0" />
      <note Length="0.03125" Pitch="68" RiffPosition="7.03125" Velocity="0" />
      <note Length="0.015625" Pitch="67" RiffPosition="7.0625" Velocity="0" />
      <note Length="0.046875" Pitch="67" RiffPosition="7.078125" Velocity="0" />
      <note Length="0.015625" Pitch="65" RiffPosition="7.125" Velocity="0" />
      <note Length="0.015625" Pitch="67" RiffPosition="7.140625" Velocity="0" />
      <note Length="0.015625" Pitch="53" RiffPosition="7.15625" Velocity="0" />
      <note Length="0.015625" Pitch="53" RiffPosition="7.171875" Velocity="0" />
      <note Length="0.03125" Pitch="53" RiffPosition="7.1875" Velocity="0" />
      <note Length="0.03125" Pitch="61" RiffPosition="7.21875" Velocity="0" />
      <note Length="0.015625" Pitch="53" RiffPosition="7.25" Velocity="0" />
      <note Length="0.015625" Pitch="61" RiffPosition="7.265625" Velocity="0" />
      <note Length="0.03125" Pitch="53" RiffPosition="7.28125" Velocity="0" />
      <note Length="0.015625" Pitch="58" RiffPosition="7.3125" Velocity="0" />
      <note Length="0.046875" Pitch="58" RiffPosition="7.328125" Velocity="0" />
      <note Length="0.015625" Pitch="58" RiffPosition="7.375" Velocity="0" />
      <note Length="0.015625" Pitch="61" RiffPosition="7.390625" Velocity="0" />
      <note Length="0.015625" Pitch="53" RiffPosition="7.40625" Velocity="0" />
      <note Length="0.015625" Pitch="60" RiffPosition="7.421875" Velocity="0" />
      <note Length="0.03125" Pitch="60" RiffPosition="7.4375" Velocity="0" />
      <note Length="0.03125" Pitch="53" RiffPosition="7.46875" Velocity="0" />
      <note Length="0.015625" Pitch="65" RiffPosition="7.5" Velocity="0" />
      <note Length="0.015625" Pitch="68" RiffPosition="7.515625" Velocity="0" />
      <note Length="0.03125" Pitch="67" RiffPosition="7.53125" Velocity="0" />
      <note Length="0.015625" Pitch="68" RiffPosition="7.5625" Velocity="0" />
      <note Length="0.046875" Pitch="65" RiffPosition="7.578125" Velocity="0" />
      <note Length="0.015625" Pitch="72" RiffPosition="7.625" Velocity="0" />
      <note Length="0.015625" Pitch="70" RiffPosition="7.640625" Velocity="0" />
      <note Length="0.015625" Pitch="72" RiffPosition="7.65625" Velocity="0" />
      <note Length="0.015625" Pitch="70" RiffPosition="7.671875" Velocity="0" />
      <note Length="0.03125" Pitch="68" RiffPosition="7.6875" Velocity="0" />
      <note Length="0.03125" Pitch="68" RiffPosition="7.71875" Velocity="0" />
      <note Length="0.015625" Pitch="65" RiffPosition="7.75" Velocity="0" />
      <note Length="0.015625" Pitch="68" RiffPosition="7.765625" Velocity="0" />
      <note Length="0.03125" Pitch="68" RiffPosition="7.78125" Velocity="0" />
      <note Length="0.015625" Pitch="53" RiffPosition="7.8125" Velocity="0" />
      <note Length="0.046875" Pitch="53" RiffPosition="7.828125" Velocity="0" />
      <note Length="0.015625" Pitch="65" RiffPosition="7.875" Velocity="0" />
      <note Length="0.015625" Pitch="67" RiffPosition="7.890625" Velocity="0" />
      <note Length="0.015625" Pitch="65" RiffPosition="7.90625" Velocity="0" />
      <note Length="0.015625" Pitch="65" RiffPosition="7.921875" Velocity="0" />
      <note Length="0.03125" Pitch="67" RiffPosition="7.9375" Velocity="0" />
      <note Length="0.03125" Pitch="53" RiffPosition="7.96875" Velocity="0" />
      <note Length="0.015625" Pitch="53" RiffPosition="8" Velocity="31" />
      <note Length="0.015625" Pitch="67" RiffPosition="8.015625" Velocity="72" />
      <note Length="0.03125" Pitch="68" RiffPosition="8.03125" Velocity="45" />
      <note Length="0.015625" Pitch="65" RiffPosition="8.0625" Velocity="44" />
      <note Length="0.046875" Pitch="65" RiffPosition="8.078125" Velocity="50" />
      <note Length="0.015625" Pitch="65" RiffPosition="8.125" Velocity="66" />
      <note Length="0.015625" Pitch="65" RiffPosition="8.140625" Velocity="38" />
      <note Length="0.015625" Pitch="67" RiffPosition="8.15625" Velocity="52" />
      <note Length="0.015625" Pitch="53" RiffPosition="8.171875" Velocity="73" />
      <note Length="0.03125" Pitch="53" RiffPosition="8.1875" Velocity="32" />
      <note Length="0.03125" Pitch="61" RiffPosition="8.21875" Velocity="47" />
      <note Length="0.015625" Pitch="53" RiffPosition="8.25" Velocity="33" />
      <note Length="0.015625" Pitch="61" RiffPosition="8.265625" Velocity="74" />
      <note Length="0.03125" Pitch="61" RiffPosition="8.28125" Velocity="47" />
      <note Length="0.015625" Pitch="61" RiffPosition="8.3125" Velocity="35" />
      <note Length="0.046875" Pitch="58" RiffPosition="8.328125" Velocity="73" />
      <note Length="0.015625" Pitch="58" RiffPosition="8.375" Velocity="32" />
      <note Length="0.015625" Pitch="60" RiffPosition="8.390625" Velocity="72" />
      <note Length="0.015625" Pitch="61" RiffPosition="8.40625" Velocity="41" />
      <note Length="0.015625" Pitch="53" RiffPosition="8.421875" Velocity="44" />
      <note Length="0.03125" Pitch="60" RiffPosition="8.4375" Velocity="50" />
      <note Length="0.03125" Pitch="53" RiffPosition="8.46875" Velocity="33" />
      <note Length="0.015625" Pitch="65" RiffPosition="8.5" Velocity="41" />
      <note Length="0.015625" Pitch="68" RiffPosition="8.515625" Velocity="74" />
      <note Length="0.03125" Pitch="65" RiffPosition="8.53125" Velocity="50" />
      <note Length="0.015625" Pitch="68" RiffPosition="8.5625" Velocity="37" />
      <note Length="0.046875" Pitch="68" RiffPosition="8.578125" Velocity="65" />
      <note Length="0.015625" Pitch="72" RiffPosition="8.625" Velocity="46" />
      <note Length="0.015625" Pitch="70" RiffPosition="8.640625" Velocity="51" />
      <note Length="0.015625" Pitch="70" RiffPosition="8.65625" Velocity="31" />
      <note Length="0.015625" Pitch="70" RiffPosition="8.671875" Velocity="60" />
      <note Length="0.03125" Pitch="70" RiffPosition="8.6875" Velocity="52" />
      <note Length="0.03125" Pitch="67" RiffPosition="8.71875" Velocity="34" />
      <note Length="0.015625" Pitch="65" RiffPosition="8.75" Velocity="53" />
      <note Length="0.015625" Pitch="67" RiffPosition="8.765625" Velocity="54" />
      <note Length="0.03125" Pitch="67" RiffPosition="8.78125" Velocity="31" />
      <note Length="0.015625" Pitch="53" RiffPosition="8.8125" Velocity="48" />
      <note Length="0.046875" Pitch="53" RiffPosition="8.828125" Velocity="93" />
      <note Length="0.015625" Pitch="53" RiffPosition="8.875" Velocity="41" />
      <note Length="0.015625" Pitch="67" RiffPosition="8.890625" Velocity="79" />
      <note Length="0.015625" Pitch="65" RiffPosition="8.90625" Velocity="55" />
      <note Length="0.015625" Pitch="65" RiffPosition="8.921875" Velocity="74" />
      <note Length="0.03125" Pitch="65" RiffPosition="8.9375" Velocity="32" />
      <note Length="0.03125" Pitch="53" RiffPosition="8.96875" Velocity="36" />
      <note Length="0.015625" Pitch="65" RiffPosition="9" Velocity="55" />
      <note Length="0.015625" Pitch="65" RiffPosition="9.015625" Velocity="45" />
      <note Length="0.03125" Pitch="67" RiffPosition="9.03125" Velocity="48" />
      <note Length="0.015625" Pitch="65" RiffPosition="9.0625" Velocity="33" />
      <note Length="0.046875" Pitch="65" RiffPosition="9.078125" Velocity="62" />
      <note Length="0.015625" Pitch="53" RiffPosition="9.125" Velocity="44" />
      <note Length="0.015625" Pitch="65" RiffPosition="9.140625" Velocity="60" />
      <note Length="0.015625" Pitch="65" RiffPosition="9.15625" Velocity="31" />
      <note Length="0.015625" Pitch="53" RiffPosition="9.171875" Velocity="89" />
      <note Length="0.03125" Pitch="53" RiffPosition="9.1875" Velocity="43" />
      <note Length="0.03125" Pitch="53" RiffPosition="9.21875" Velocity="35" />
      <note Length="0.015625" Pitch="53" RiffPosition="9.25" Velocity="38" />
      <note Length="0.015625" Pitch="53" RiffPosition="9.265625" Velocity="69" />
      <note Length="0.03125" Pitch="61" RiffPosition="9.28125" Velocity="42" />
      <note Length="0.015625" Pitch="60" RiffPosition="9.3125" Velocity="60" />
      <note Length="0.046875" Pitch="58" RiffPosition="9.328125" Velocity="68" />
      <note Length="0.015625" Pitch="61" RiffPosition="9.375" Velocity="62" />
      <note Length="0.015625" Pitch="60" RiffPosition="9.390625" Velocity="98" />
      <note Length="0.015625" Pitch="61" RiffPosition="9.40625" Velocity="36" />
      <note Length="0.015625" Pitch="53" RiffPosition="9.421875" Velocity="49" />
      <note Length="0.03125" Pitch="60" RiffPosition="9.4375" Velocity="46" />
      <note Length="0.03125" Pitch="53" RiffPosition="9.46875" Velocity="49" />
      <note Length="0.015625" Pitch="65" RiffPosition="9.5" Velocity="35" />
      <note Length="0.015625" Pitch="67" RiffPosition="9.515625" Velocity="58" />
      <note Length="0.03125" Pitch="68" RiffPosition="9.53125" Velocity="32" />
      <note Length="0.015625" Pitch="67" RiffPosition="9.5625" Velocity="63" />
      <note Length="0.046875" Pitch="67" RiffPosition="9.578125" Velocity="39" />
      <note Length="0.015625" Pitch="70" RiffPosition="9.625" Velocity="34" />
      <note Length="0.015625" Pitch="65" RiffPosition="9.640625" Velocity="35" />
      <note Length="0.015625" Pitch="70" RiffPosition="9.65625" Velocity="57" />
      <note Length="0.015625" Pitch="70" RiffPosition="9.671875" Velocity="86" />
      <note Length="0.03125" Pitch="70" RiffPosition="9.6875" Velocity="41" />
      <note Length="0.03125" Pitch="67" RiffPosition="9.71875" Velocity="60" />
      <note Length="0.015625" Pitch="68" RiffPosition="9.75" Velocity="41" />
      <note Length="0.015625" Pitch="67" RiffPosition="9.765625" Velocity="66" />
      <note Length="0.03125" Pitch="67" RiffPosition="9.78125" Velocity="51" />
      <note Length="0.015625" Pitch="53" RiffPosition="9.8125" Velocity="32" />
      <note Length="0.046875" Pitch="53" RiffPosition="9.828125" Velocity="71" />
      <note Length="0.015625" Pitch="53" RiffPosition="9.875" Velocity="34" />
      <note Length="0.015625" Pitch="65" RiffPosition="9.890625" Velocity="75" />
      <note Length="0.015625" Pitch="67" RiffPosition="9.90625" Velocity="43" />
      <note Length="0.015625" Pitch="65" RiffPosition="9.921875" Velocity="41" />
      <note Length="0.03125" Pitch="65" RiffPosition="9.9375" Velocity="61" />
      <note Length="0.03125" Pitch="53" RiffPosition="9.96875" Velocity="31" />
      <note Length="0.015625" Pitch="65" RiffPosition="10" Velocity="38" />
      <note Length="0.015625" Pitch="68" RiffPosition="10.015625" Velocity="78" />
      <note Length="0.03125" Pitch="67" RiffPosition="10.03125" Velocity="45" />
      <note Length="0.015625" Pitch="68" RiffPosition="10.0625" Velocity="37" />
      <note Length="0.046875" Pitch="65" RiffPosition="10.078125" Velocity="57" />
      <note Length="0.015625" Pitch="53" RiffPosition="10.125" Velocity="59" />
      <note Length="0.015625" Pitch="65" RiffPosition="10.140625" Velocity="45" />
      <note Length="0.015625" Pitch="65" RiffPosition="10.15625" Velocity="45" />
      <note Length="0.015625" Pitch="65" RiffPosition="10.171875" Velocity="66" />
      <note Length="0.03125" Pitch="53" RiffPosition="10.1875" Velocity="32" />
      <note Length="0.03125" Pitch="53" RiffPosition="10.21875" Velocity="40" />
      <note Length="0.015625" Pitch="53" RiffPosition="10.25" Velocity="34" />
      <note Length="0.015625" Pitch="53" RiffPosition="10.265625" Velocity="74" />
      <note Length="0.03125" Pitch="60" RiffPosition="10.28125" Velocity="44" />
      <note Length="0.015625" Pitch="60" RiffPosition="10.3125" Velocity="34" />
      <note Length="0.046875" Pitch="60" RiffPosition="10.328125" Velocity="80" />
      <note Length="0.015625" Pitch="60" RiffPosition="10.375" Velocity="35" />
      <note Length="0.015625" Pitch="60" RiffPosition="10.390625" Velocity="71" />
      <note Length="0.015625" Pitch="60" RiffPosition="10.40625" Velocity="48" />
      <note Length="0.015625" Pitch="61" RiffPosition="10.421875" Velocity="44" />
      <note Length="0.03125" Pitch="53" RiffPosition="10.4375" Velocity="40" />
      <note Length="0.03125" Pitch="53" RiffPosition="10.46875" Velocity="33" />
      <note Length="0.015625" Pitch="53" RiffPosition="10.5" Velocity="48" />
      <note Length="0.015625" Pitch="67" RiffPosition="10.515625" Velocity="43" />
      <note Length="0.03125" Pitch="68" RiffPosition="10.53125" Velocity="43" />
      <note Length="0.015625" Pitch="67" RiffPosition="10.5625" Velocity="30" />
      <note Length="0.046875" Pitch="67" RiffPosition="10.578125" Velocity="72" />
      <note Length="0.015625" Pitch="70" RiffPosition="10.625" Velocity="46" />
      <note Length="0.015625" Pitch="65" RiffPosition="10.640625" Velocity="58" />
      <note Length="0.015625" Pitch="70" RiffPosition="10.65625" Velocity="36" />
      <note Length="0.015625" Pitch="70" RiffPosition="10.671875" Velocity="91" />
      <note Length="0.03125" Pitch="70" RiffPosition="10.6875" Velocity="46" />
      <note Length="0.03125" Pitch="65" RiffPosition="10.71875" Velocity="33" />
      <note Length="0.015625" Pitch="68" RiffPosition="10.75" Velocity="45" />
      <note Length="0.015625" Pitch="65" RiffPosition="10.765625" Velocity="61" />
      <note Length="0.03125" Pitch="67" RiffPosition="10.78125" Velocity="31" />
      <note Length="0.015625" Pitch="53" RiffPosition="10.8125" Velocity="55" />
      <note Length="0.046875" Pitch="53" RiffPosition="10.828125" Velocity="93" />
      <note Length="0.015625" Pitch="53" RiffPosition="10.875" Velocity="48" />
      <note Length="0.015625" Pitch="65" RiffPosition="10.890625" Velocity="86" />
      <note Length="0.015625" Pitch="67" RiffPosition="10.90625" Velocity="55" />
      <note Length="0.015625" Pitch="53" RiffPosition="10.921875" Velocity="67" />
      <note Length="0.03125" Pitch="65" RiffPosition="10.9375" Velocity="35" />
      <note Length="0.03125" Pitch="53" RiffPosition="10.96875" Velocity="43" />
      <note Length="0.015625" Pitch="65" RiffPosition="11" Velocity="48" />
      <note Length="0.015625" Pitch="68" RiffPosition="11,015625" Velocity="52" />
      <note Length="0.03125" Pitch="67" RiffPosition="11,03125" Velocity="41" />
      <note Length="0.015625" Pitch="68" RiffPosition="11,0625" Velocity="33" />
      <note Length="0.046875" Pitch="65" RiffPosition="11,078125" Velocity="31" />
      <note Length="0.015625" Pitch="65" RiffPosition="11,125" Velocity="37" />
      <note Length="0.015625" Pitch="65" RiffPosition="11,140625" Velocity="60" />
      <note Length="0.015625" Pitch="65" RiffPosition="11,15625" Velocity="60" />
      <note Length="0.015625" Pitch="65" RiffPosition="11,171875" Velocity="82" />
      <note Length="0.03125" Pitch="53" RiffPosition="11,1875" Velocity="43" />
      <note Length="0.03125" Pitch="53" RiffPosition="11,21875" Velocity="35" />
      <note Length="0.015625" Pitch="61" RiffPosition="11,25" Velocity="31" />
      <note Length="0.015625" Pitch="53" RiffPosition="11,265625" Velocity="69" />
      <note Length="0.03125" Pitch="53" RiffPosition="11,28125" Velocity="49" />
      <note Length="0.015625" Pitch="60" RiffPosition="11,3125" Velocity="30" />
      <note Length="0.046875" Pitch="60" RiffPosition="11,328125" Velocity="75" />
      <note Length="0.015625" Pitch="60" RiffPosition="11,375" Velocity="68" />
      <note Length="0.015625" Pitch="53" RiffPosition="11,390625" Velocity="67" />
      <note Length="0.015625" Pitch="60" RiffPosition="11,40625" Velocity="43" />
      <note Length="0.015625" Pitch="61" RiffPosition="11,421875" Velocity="49" />
      <note Length="0.03125" Pitch="61" RiffPosition="11,4375" Velocity="53" />
      <note Length="0.03125" Pitch="53" RiffPosition="11,46875" Velocity="42" />
      <note Length="0.015625" Pitch="67" RiffPosition="11,5" Velocity="35" />
      <note Length="0.015625" Pitch="65" RiffPosition="11,515625" Velocity="65" />
      <note Length="0.03125" Pitch="68" RiffPosition="11,53125" Velocity="39" />
      <note Length="0.015625" Pitch="65" RiffPosition="11,5625" Velocity="56" />
      <note Length="0.046875" Pitch="65" RiffPosition="11,578125" Velocity="38" />
      <note Length="0.015625" Pitch="70" RiffPosition="11,625" Velocity="72" />
      <note Length="0.015625" Pitch="72" RiffPosition="11,640625" Velocity="32" />
      <note Length="0.015625" Pitch="65" RiffPosition="11,65625" Velocity="58" />
      <note Length="0.015625" Pitch="70" RiffPosition="11,671875" Velocity="79" />
      <note Length="0.03125" Pitch="68" RiffPosition="11,6875" Velocity="34" />
      <note Length="0.03125" Pitch="65" RiffPosition="11,71875" Velocity="53" />
      <note Length="0.015625" Pitch="68" RiffPosition="11,75" Velocity="34" />
      <note Length="0.015625" Pitch="68" RiffPosition="11,765625" Velocity="73" />
      <note Length="0.03125" Pitch="65" RiffPosition="11,78125" Velocity="51" />
      <note Length="0.015625" Pitch="65" RiffPosition="11,8125" Velocity="39" />
      <note Length="0.046875" Pitch="53" RiffPosition="11,828125" Velocity="78" />
      <note Length="0.015625" Pitch="53" RiffPosition="11,875" Velocity="33" />
      <note Length="0.015625" Pitch="65" RiffPosition="11,890625" Velocity="82" />
      <note Length="0.015625" Pitch="65" RiffPosition="11,90625" Velocity="50" />
      <note Length="0.015625" Pitch="67" RiffPosition="11,921875" Velocity="34" />
      <note Length="0.03125" Pitch="65" RiffPosition="11,9375" Velocity="60" />
      <note Length="0.03125" Pitch="53" RiffPosition="11,96875" Velocity="38" />
      <note Length="0.015625" Pitch="65" RiffPosition="12" Velocity="45" />
      <note Length="0.015625" Pitch="68" RiffPosition="12.015625" Velocity="78" />
      <note Length="0.03125" Pitch="68" RiffPosition="12.03125" Velocity="46" />
      <note Length="0.015625" Pitch="67" RiffPosition="12.0625" Velocity="38" />
      <note Length="0.046875" Pitch="68" RiffPosition="12.078125" Velocity="64" />
      <note Length="0.015625" Pitch="65" RiffPosition="12.125" Velocity="52" />
      <note Length="0.015625" Pitch="65" RiffPosition="12.140625" Velocity="45" />
      <note Length="0.015625" Pitch="65" RiffPosition="12.15625" Velocity="38" />
      <note Length="0.015625" Pitch="65" RiffPosition="12.171875" Velocity="59" />
      <note Length="0.03125" Pitch="53" RiffPosition="12.1875" Velocity="59" />
      <note Length="0.03125" Pitch="53" RiffPosition="12.21875" Velocity="40" />
      <note Length="0.015625" Pitch="61" RiffPosition="12.25" Velocity="41" />
      <note Length="0.015625" Pitch="53" RiffPosition="12.265625" Velocity="43" />
      <note Length="0.03125" Pitch="53" RiffPosition="12.28125" Velocity="37" />
      <note Length="0.015625" Pitch="60" RiffPosition="12.3125" Velocity="41" />
      <note Length="0.046875" Pitch="58" RiffPosition="12.328125" Velocity="87" />
      <note Length="0.015625" Pitch="60" RiffPosition="12.375" Velocity="35" />
      <note Length="0.015625" Pitch="61" RiffPosition="12.390625" Velocity="78" />
      <note Length="0.015625" Pitch="60" RiffPosition="12.40625" Velocity="55" />
      <note Length="0.015625" Pitch="60" RiffPosition="12.421875" Velocity="75" />
      <note Length="0.03125" Pitch="61" RiffPosition="12.4375" Velocity="33" />
      <note Length="0.03125" Pitch="53" RiffPosition="12.46875" Velocity="40" />
      <note Length="0.015625" Pitch="65" RiffPosition="12.5" Velocity="47" />
      <note Length="0.015625" Pitch="65" RiffPosition="12.515625" Velocity="50" />
      <note Length="0.03125" Pitch="67" RiffPosition="12.53125" Velocity="44" />
      <note Length="0.015625" Pitch="65" RiffPosition="12.5625" Velocity="37" />
      <note Length="0.046875" Pitch="65" RiffPosition="12.578125" Velocity="71" />
      <note Length="0.015625" Pitch="70" RiffPosition="12.625" Velocity="39" />
      <note Length="0.015625" Pitch="72" RiffPosition="12.640625" Velocity="65" />
      <note Length="0.015625" Pitch="72" RiffPosition="12.65625" Velocity="35" />
      <note Length="0.015625" Pitch="68" RiffPosition="12.671875" Velocity="84" />
      <note Length="0.03125" Pitch="68" RiffPosition="12.6875" Velocity="39" />
      <note Length="0.03125" Pitch="68" RiffPosition="12.71875" Velocity="40" />
      <note Length="0.015625" Pitch="67" RiffPosition="12.75" Velocity="38" />
      <note Length="0.015625" Pitch="68" RiffPosition="12.765625" Velocity="68" />
      <note Length="0.03125" Pitch="65" RiffPosition="12.78125" Velocity="36" />
      <note Length="0.015625" Pitch="65" RiffPosition="12.8125" Velocity="54" />
      <note Length="0.046875" Pitch="53" RiffPosition="12.828125" Velocity="62" />
      <note Length="0.015625" Pitch="65" RiffPosition="12.875" Velocity="55" />
      <note Length="0.015625" Pitch="65" RiffPosition="12.890625" Velocity="86" />
      <note Length="0.015625" Pitch="65" RiffPosition="12.90625" Velocity="36" />
      <note Length="0.015625" Pitch="67" RiffPosition="12.921875" Velocity="60" />
      <note Length="0.03125" Pitch="53" RiffPosition="12.9375" Velocity="34" />
      <note Length="0.03125" Pitch="53" RiffPosition="12.96875" Velocity="42" />
      <note Length="0.015625" Pitch="65" RiffPosition="13" Velocity="0" />
      <note Length="0.015625" Pitch="67" RiffPosition="13.015625" Velocity="0" />
      <note Length="0.03125" Pitch="68" RiffPosition="13.03125" Velocity="0" />
      <note Length="0.015625" Pitch="67" RiffPosition="13.0625" Velocity="0" />
      <note Length="0.046875" Pitch="67" RiffPosition="13.078125" Velocity="0" />
      <note Length="0.015625" Pitch="65" RiffPosition="13.125" Velocity="0" />
      <note Length="0.015625" Pitch="67" RiffPosition="13.140625" Velocity="0" />
      <note Length="0.015625" Pitch="65" RiffPosition="13.15625" Velocity="0" />
      <note Length="0.015625" Pitch="53" RiffPosition="13.171875" Velocity="0" />
      <note Length="0.03125" Pitch="53" RiffPosition="13.1875" Velocity="0" />
      <note Length="0.03125" Pitch="53" RiffPosition="13.21875" Velocity="0" />
      <note Length="0.015625" Pitch="53" RiffPosition="13.25" Velocity="0" />
      <note Length="0.015625" Pitch="53" RiffPosition="13.265625" Velocity="0" />
      <note Length="0.03125" Pitch="53" RiffPosition="13.28125" Velocity="0" />
      <note Length="0.015625" Pitch="58" RiffPosition="13.3125" Velocity="0" />
      <note Length="0.046875" Pitch="58" RiffPosition="13.328125" Velocity="0" />
      <note Length="0.015625" Pitch="60" RiffPosition="13.375" Velocity="0" />
      <note Length="0.015625" Pitch="61" RiffPosition="13.390625" Velocity="0" />
      <note Length="0.015625" Pitch="53" RiffPosition="13.40625" Velocity="0" />
      <note Length="0.015625" Pitch="60" RiffPosition="13.421875" Velocity="0" />
      <note Length="0.03125" Pitch="60" RiffPosition="13.4375" Velocity="0" />
      <note Length="0.03125" Pitch="53" RiffPosition="13.46875" Velocity="0" />
      <note Length="0.015625" Pitch="65" RiffPosition="13.5" Velocity="0" />
      <note Length="0.015625" Pitch="68" RiffPosition="13.515625" Velocity="0" />
      <note Length="0.03125" Pitch="67" RiffPosition="13.53125" Velocity="0" />
      <note Length="0.015625" Pitch="68" RiffPosition="13.5625" Velocity="0" />
      <note Length="0.046875" Pitch="65" RiffPosition="13.578125" Velocity="0" />
      <note Length="0.015625" Pitch="70" RiffPosition="13.625" Velocity="0" />
      <note Length="0.015625" Pitch="70" RiffPosition="13.640625" Velocity="0" />
      <note Length="0.015625" Pitch="72" RiffPosition="13.65625" Velocity="0" />
      <note Length="0.015625" Pitch="72" RiffPosition="13.671875" Velocity="0" />
      <note Length="0.03125" Pitch="68" RiffPosition="13.6875" Velocity="0" />
      <note Length="0.03125" Pitch="68" RiffPosition="13.71875" Velocity="0" />
      <note Length="0.015625" Pitch="67" RiffPosition="13.75" Velocity="0" />
      <note Length="0.015625" Pitch="68" RiffPosition="13.765625" Velocity="0" />
      <note Length="0.03125" Pitch="68" RiffPosition="13.78125" Velocity="0" />
      <note Length="0.015625" Pitch="65" RiffPosition="13.8125" Velocity="0" />
      <note Length="0.046875" Pitch="53" RiffPosition="13.828125" Velocity="0" />
      <note Length="0.015625" Pitch="65" RiffPosition="13.875" Velocity="0" />
      <note Length="0.015625" Pitch="53" RiffPosition="13.890625" Velocity="0" />
      <note Length="0.015625" Pitch="65" RiffPosition="13.90625" Velocity="0" />
      <note Length="0.015625" Pitch="65" RiffPosition="13.921875" Velocity="0" />
      <note Length="0.03125" Pitch="67" RiffPosition="13.9375" Velocity="0" />
      <note Length="0.03125" Pitch="53" RiffPosition="13.96875" Velocity="0" />
    </riff>
    <riff IsDrum="False" MidiInstrument="106" Tempo="96" Length="14">
      <note Length="0.03125" Pitch="60" RiffPosition="0" Velocity="0" />
      <note Length="0.03125" Pitch="65" RiffPosition="0.03125" Velocity="0" />
      <note Length="0.03125" Pitch="68" RiffPosition="0.0625" Velocity="0" />
      <note Length="0.015625" Pitch="53" RiffPosition="0.09375" Velocity="0" />
      <note Length="0.015625" Pitch="65" RiffPosition="0.109375" Velocity="0" />
      <note Length="0.03125" Pitch="53" RiffPosition="0.125" Velocity="0" />
      <note Length="0.03125" Pitch="65" RiffPosition="0.15625" Velocity="0" />
      <note Length="0.0078125" Pitch="65" RiffPosition="0.1875" Velocity="0" />
      <note Length="0.0234375" Pitch="72" RiffPosition="0.1953125" Velocity="0" />
      <note Length="0.015625" Pitch="67" RiffPosition="0.21875" Velocity="0" />
      <note Length="0.015625" Pitch="53" RiffPosition="0.234375" Velocity="0" />
      <note Length="0.03125" Pitch="61" RiffPosition="0.25" Velocity="0" />
      <note Length="0.03125" Pitch="65" RiffPosition="0.28125" Velocity="0" />
      <note Length="0.03125" Pitch="65" RiffPosition="0.3125" Velocity="0" />
      <note Length="0.015625" Pitch="53" RiffPosition="0.34375" Velocity="0" />
      <note Length="0.015625" Pitch="53" RiffPosition="0.359375" Velocity="0" />
      <note Length="0.03125" Pitch="60" RiffPosition="0.375" Velocity="0" />
      <note Length="0.03125" Pitch="53" RiffPosition="0.40625" Velocity="0" />
      <note Length="0.0078125" Pitch="67" RiffPosition="0.4375" Velocity="0" />
      <note Length="0.0234375" Pitch="67" RiffPosition="0.4453125" Velocity="0" />
      <note Length="0.015625" Pitch="53" RiffPosition="0.46875" Velocity="0" />
      <note Length="0.015625" Pitch="53" RiffPosition="0.484375" Velocity="0" />
      <note Length="0.03125" Pitch="53" RiffPosition="0.5" Velocity="0" />
      <note Length="0.03125" Pitch="65" RiffPosition="0.53125" Velocity="0" />
      <note Length="0.03125" Pitch="68" RiffPosition="0.5625" Velocity="0" />
      <note Length="0.015625" Pitch="68" RiffPosition="0.59375" Velocity="0" />
      <note Length="0.015625" Pitch="65" RiffPosition="0.609375" Velocity="0" />
      <note Length="0.03125" Pitch="53" RiffPosition="0.625" Velocity="0" />
      <note Length="0.03125" Pitch="68" RiffPosition="0.65625" Velocity="0" />
      <note Length="0.0078125" Pitch="68" RiffPosition="0.6875" Velocity="0" />
      <note Length="0.0234375" Pitch="68" RiffPosition="0.6953125" Velocity="0" />
      <note Length="0.015625" Pitch="53" RiffPosition="0.71875" Velocity="0" />
      <note Length="0.015625" Pitch="61" RiffPosition="0.734375" Velocity="0" />
      <note Length="0.03125" Pitch="53" RiffPosition="0.75" Velocity="0" />
      <note Length="0.03125" Pitch="53" RiffPosition="0.78125" Velocity="0" />
      <note Length="0.03125" Pitch="65" RiffPosition="0.8125" Velocity="0" />
      <note Length="0.015625" Pitch="65" RiffPosition="0.84375" Velocity="0" />
      <note Length="0.015625" Pitch="53" RiffPosition="0.859375" Velocity="0" />
      <note Length="0.03125" Pitch="60" RiffPosition="0.875" Velocity="0" />
      <note Length="0.03125" Pitch="65" RiffPosition="0.90625" Velocity="0" />
      <note Length="0.0078125" Pitch="65" RiffPosition="0.9375" Velocity="0" />
      <note Length="0.0234375" Pitch="65" RiffPosition="0.9453125" Velocity="0" />
      <note Length="0.015625" Pitch="61" RiffPosition="0.96875" Velocity="0" />
      <note Length="0.015625" Pitch="53" RiffPosition="0.984375" Velocity="0" />
      <note Length="0.03125" Pitch="53" RiffPosition="1" Velocity="0" />
      <note Length="0.03125" Pitch="53" RiffPosition="1,03125" Velocity="0" />
      <note Length="0.03125" Pitch="70" RiffPosition="1,0625" Velocity="0" />
      <note Length="0.015625" Pitch="65" RiffPosition="1,09375" Velocity="0" />
      <note Length="0.015625" Pitch="53" RiffPosition="1,109375" Velocity="0" />
      <note Length="0.03125" Pitch="53" RiffPosition="1,125" Velocity="0" />
      <note Length="0.03125" Pitch="68" RiffPosition="1,15625" Velocity="0" />
      <note Length="0.0078125" Pitch="70" RiffPosition="1,1875" Velocity="0" />
      <note Length="0.0234375" Pitch="68" RiffPosition="1,1953125" Velocity="0" />
      <note Length="0.015625" Pitch="68" RiffPosition="1,21875" Velocity="0" />
      <note Length="0.015625" Pitch="65" RiffPosition="1,234375" Velocity="0" />
      <note Length="0.03125" Pitch="53" RiffPosition="1,25" Velocity="0" />
      <note Length="0.03125" Pitch="53" RiffPosition="1,28125" Velocity="0" />
      <note Length="0.03125" Pitch="67" RiffPosition="1,3125" Velocity="0" />
      <note Length="0.015625" Pitch="53" RiffPosition="1,34375" Velocity="0" />
      <note Length="0.015625" Pitch="60" RiffPosition="1,359375" Velocity="0" />
      <note Length="0.03125" Pitch="53" RiffPosition="1,375" Velocity="0" />
      <note Length="0.03125" Pitch="53" RiffPosition="1,40625" Velocity="0" />
      <note Length="0.0078125" Pitch="65" RiffPosition="1,4375" Velocity="0" />
      <note Length="0.0234375" Pitch="53" RiffPosition="1,4453125" Velocity="0" />
      <note Length="0.015625" Pitch="65" RiffPosition="1,46875" Velocity="0" />
      <note Length="0.015625" Pitch="53" RiffPosition="1,484375" Velocity="0" />
      <note Length="0.03125" Pitch="53" RiffPosition="1,5" Velocity="0" />
      <note Length="0.03125" Pitch="53" RiffPosition="1,53125" Velocity="0" />
      <note Length="0.03125" Pitch="70" RiffPosition="1,5625" Velocity="0" />
      <note Length="0.015625" Pitch="65" RiffPosition="1,59375" Velocity="0" />
      <note Length="0.015625" Pitch="53" RiffPosition="1,609375" Velocity="0" />
      <note Length="0.03125" Pitch="53" RiffPosition="1,625" Velocity="0" />
      <note Length="0.03125" Pitch="65" RiffPosition="1,65625" Velocity="0" />
      <note Length="0.0078125" Pitch="65" RiffPosition="1,6875" Velocity="0" />
      <note Length="0.0234375" Pitch="70" RiffPosition="1,6953125" Velocity="0" />
      <note Length="0.015625" Pitch="65" RiffPosition="1,71875" Velocity="0" />
      <note Length="0.015625" Pitch="53" RiffPosition="1,734375" Velocity="0" />
      <note Length="0.03125" Pitch="61" RiffPosition="1,75" Velocity="0" />
      <note Length="0.03125" Pitch="65" RiffPosition="1,78125" Velocity="0" />
      <note Length="0.03125" Pitch="67" RiffPosition="1,8125" Velocity="0" />
      <note Length="0.015625" Pitch="53" RiffPosition="1,84375" Velocity="0" />
      <note Length="0.015625" Pitch="53" RiffPosition="1,859375" Velocity="0" />
      <note Length="0.03125" Pitch="53" RiffPosition="1,875" Velocity="0" />
      <note Length="0.03125" Pitch="53" RiffPosition="1,90625" Velocity="0" />
      <note Length="0.0078125" Pitch="68" RiffPosition="1,9375" Velocity="0" />
      <note Length="0.0234375" Pitch="67" RiffPosition="1,9453125" Velocity="0" />
      <note Length="0.015625" Pitch="53" RiffPosition="1,96875" Velocity="0" />
      <note Length="0.015625" Pitch="53" RiffPosition="1,984375" Velocity="0" />
      <note Length="0.03125" Pitch="60" RiffPosition="2" Velocity="0" />
      <note Length="0.03125" Pitch="53" RiffPosition="2.03125" Velocity="0" />
      <note Length="0.03125" Pitch="68" RiffPosition="2.0625" Velocity="0" />
      <note Length="0.015625" Pitch="68" RiffPosition="2.09375" Velocity="0" />
      <note Length="0.015625" Pitch="65" RiffPosition="2.109375" Velocity="0" />
      <note Length="0.03125" Pitch="53" RiffPosition="2.125" Velocity="0" />
      <note Length="0.03125" Pitch="65" RiffPosition="2.15625" Velocity="0" />
      <note Length="0.0078125" Pitch="72" RiffPosition="2.1875" Velocity="0" />
      <note Length="0.0234375" Pitch="70" RiffPosition="2.1953125" Velocity="0" />
      <note Length="0.015625" Pitch="65" RiffPosition="2.21875" Velocity="0" />
      <note Length="0.015625" Pitch="53" RiffPosition="2.234375" Velocity="0" />
      <note Length="0.03125" Pitch="53" RiffPosition="2.25" Velocity="0" />
      <note Length="0.03125" Pitch="65" RiffPosition="2.28125" Velocity="0" />
      <note Length="0.03125" Pitch="53" RiffPosition="2.3125" Velocity="0" />
      <note Length="0.015625" Pitch="53" RiffPosition="2.34375" Velocity="0" />
      <note Length="0.015625" Pitch="61" RiffPosition="2.359375" Velocity="0" />
      <note Length="0.03125" Pitch="60" RiffPosition="2.375" Velocity="0" />
      <note Length="0.03125" Pitch="61" RiffPosition="2.40625" Velocity="0" />
      <note Length="0.0078125" Pitch="67" RiffPosition="2.4375" Velocity="0" />
      <note Length="0.0234375" Pitch="65" RiffPosition="2.4453125" Velocity="0" />
      <note Length="0.015625" Pitch="53" RiffPosition="2.46875" Velocity="0" />
      <note Length="0.015625" Pitch="53" RiffPosition="2.484375" Velocity="0" />
      <note Length="0.03125" Pitch="53" RiffPosition="2.5" Velocity="0" />
      <note Length="0.03125" Pitch="65" RiffPosition="2.53125" Velocity="0" />
      <note Length="0.03125" Pitch="68" RiffPosition="2.5625" Velocity="0" />
      <note Length="0.015625" Pitch="67" RiffPosition="2.59375" Velocity="0" />
      <note Length="0.015625" Pitch="53" RiffPosition="2.609375" Velocity="0" />
      <note Length="0.03125" Pitch="53" RiffPosition="2.625" Velocity="0" />
      <note Length="0.03125" Pitch="67" RiffPosition="2.65625" Velocity="0" />
      <note Length="0.0078125" Pitch="68" RiffPosition="2.6875" Velocity="0" />
      <note Length="0.0234375" Pitch="68" RiffPosition="2.6953125" Velocity="0" />
      <note Length="0.015625" Pitch="53" RiffPosition="2.71875" Velocity="0" />
      <note Length="0.015625" Pitch="53" RiffPosition="2.734375" Velocity="0" />
      <note Length="0.03125" Pitch="53" RiffPosition="2.75" Velocity="0" />
      <note Length="0.03125" Pitch="53" RiffPosition="2.78125" Velocity="0" />
      <note Length="0.03125" Pitch="68" RiffPosition="2.8125" Velocity="0" />
      <note Length="0.015625" Pitch="53" RiffPosition="2.84375" Velocity="0" />
      <note Length="0.015625" Pitch="53" RiffPosition="2.859375" Velocity="0" />
      <note Length="0.03125" Pitch="60" RiffPosition="2.875" Velocity="0" />
      <note Length="0.03125" Pitch="53" RiffPosition="2.90625" Velocity="0" />
      <note Length="0.0078125" Pitch="65" RiffPosition="2.9375" Velocity="0" />
      <note Length="0.0234375" Pitch="65" RiffPosition="2.9453125" Velocity="0" />
      <note Length="0.015625" Pitch="65" RiffPosition="2.96875" Velocity="0" />
      <note Length="0.015625" Pitch="53" RiffPosition="2.984375" Velocity="0" />
      <note Length="0.03125" Pitch="61" RiffPosition="3" Velocity="0" />
      <note Length="0.03125" Pitch="53" RiffPosition="3.03125" Velocity="0" />
      <note Length="0.03125" Pitch="70" RiffPosition="3.0625" Velocity="0" />
      <note Length="0.015625" Pitch="65" RiffPosition="3.09375" Velocity="0" />
      <note Length="0.015625" Pitch="53" RiffPosition="3.109375" Velocity="0" />
      <note Length="0.03125" Pitch="65" RiffPosition="3.125" Velocity="0" />
      <note Length="0.03125" Pitch="67" RiffPosition="3.15625" Velocity="0" />
      <note Length="0.0078125" Pitch="68" RiffPosition="3.1875" Velocity="0" />
      <note Length="0.0234375" Pitch="68" RiffPosition="3.1953125" Velocity="0" />
      <note Length="0.015625" Pitch="68" RiffPosition="3.21875" Velocity="0" />
      <note Length="0.015625" Pitch="53" RiffPosition="3.234375" Velocity="0" />
      <note Length="0.03125" Pitch="53" RiffPosition="3.25" Velocity="0" />
      <note Length="0.03125" Pitch="53" RiffPosition="3.28125" Velocity="0" />
      <note Length="0.03125" Pitch="65" RiffPosition="3.3125" Velocity="0" />
      <note Length="0.015625" Pitch="61" RiffPosition="3.34375" Velocity="0" />
      <note Length="0.015625" Pitch="60" RiffPosition="3.359375" Velocity="0" />
      <note Length="0.03125" Pitch="61" RiffPosition="3.375" Velocity="0" />
      <note Length="0.03125" Pitch="53" RiffPosition="3.40625" Velocity="0" />
      <note Length="0.0078125" Pitch="53" RiffPosition="3.4375" Velocity="0" />
      <note Length="0.0234375" Pitch="68" RiffPosition="3.4453125" Velocity="0" />
      <note Length="0.015625" Pitch="53" RiffPosition="3.46875" Velocity="0" />
      <note Length="0.015625" Pitch="53" RiffPosition="3.484375" Velocity="0" />
      <note Length="0.03125" Pitch="53" RiffPosition="3.5" Velocity="0" />
      <note Length="0.03125" Pitch="67" RiffPosition="3.53125" Velocity="0" />
      <note Length="0.03125" Pitch="70" RiffPosition="3.5625" Velocity="0" />
      <note Length="0.015625" Pitch="53" RiffPosition="3.59375" Velocity="0" />
      <note Length="0.015625" Pitch="65" RiffPosition="3.609375" Velocity="0" />
      <note Length="0.03125" Pitch="53" RiffPosition="3.625" Velocity="0" />
      <note Length="0.03125" Pitch="53" RiffPosition="3.65625" Velocity="0" />
      <note Length="0.0078125" Pitch="70" RiffPosition="3.6875" Velocity="0" />
      <note Length="0.0234375" Pitch="70" RiffPosition="3.6953125" Velocity="0" />
      <note Length="0.015625" Pitch="65" RiffPosition="3.71875" Velocity="0" />
      <note Length="0.015625" Pitch="53" RiffPosition="3.734375" Velocity="0" />
      <note Length="0.03125" Pitch="60" RiffPosition="3.75" Velocity="0" />
      <note Length="0.03125" Pitch="65" RiffPosition="3.78125" Velocity="0" />
      <note Length="0.03125" Pitch="65" RiffPosition="3.8125" Velocity="0" />
      <note Length="0.015625" Pitch="65" RiffPosition="3.84375" Velocity="0" />
      <note Length="0.015625" Pitch="53" RiffPosition="3.859375" Velocity="0" />
      <note Length="0.03125" Pitch="53" RiffPosition="3.875" Velocity="0" />
      <note Length="0.03125" Pitch="53" RiffPosition="3.90625" Velocity="0" />
      <note Length="0.0078125" Pitch="67" RiffPosition="3.9375" Velocity="0" />
      <note Length="0.0234375" Pitch="67" RiffPosition="3.9453125" Velocity="0" />
      <note Length="0.015625" Pitch="53" RiffPosition="3.96875" Velocity="0" />
      <note Length="0.015625" Pitch="53" RiffPosition="3.984375" Velocity="0" />
      <note Length="0.03125" Pitch="53" RiffPosition="4" Velocity="0" />
      <note Length="0.03125" Pitch="53" RiffPosition="4.03125" Velocity="0" />
      <note Length="0.03125" Pitch="67" RiffPosition="4.0625" Velocity="0" />
      <note Length="0.015625" Pitch="68" RiffPosition="4.09375" Velocity="0" />
      <note Length="0.015625" Pitch="65" RiffPosition="4.109375" Velocity="0" />
      <note Length="0.03125" Pitch="53" RiffPosition="4.125" Velocity="0" />
      <note Length="0.03125" Pitch="65" RiffPosition="4.15625" Velocity="0" />
      <note Length="0.0078125" Pitch="70" RiffPosition="4.1875" Velocity="0" />
      <note Length="0.0234375" Pitch="70" RiffPosition="4.1953125" Velocity="0" />
      <note Length="0.015625" Pitch="65" RiffPosition="4.21875" Velocity="0" />
      <note Length="0.015625" Pitch="53" RiffPosition="4.234375" Velocity="0" />
      <note Length="0.03125" Pitch="53" RiffPosition="4.25" Velocity="0" />
      <note Length="0.03125" Pitch="53" RiffPosition="4.28125" Velocity="0" />
      <note Length="0.03125" Pitch="53" RiffPosition="4.3125" Velocity="0" />
      <note Length="0.015625" Pitch="53" RiffPosition="4.34375" Velocity="0" />
      <note Length="0.015625" Pitch="61" RiffPosition="4.359375" Velocity="0" />
      <note Length="0.03125" Pitch="58" RiffPosition="4.375" Velocity="0" />
      <note Length="0.03125" Pitch="53" RiffPosition="4.40625" Velocity="0" />
      <note Length="0.0078125" Pitch="65" RiffPosition="4.4375" Velocity="0" />
      <note Length="0.0234375" Pitch="65" RiffPosition="4.4453125" Velocity="0" />
      <note Length="0.015625" Pitch="53" RiffPosition="4.46875" Velocity="0" />
      <note Length="0.015625" Pitch="65" RiffPosition="4.484375" Velocity="0" />
      <note Length="0.03125" Pitch="53" RiffPosition="4.5" Velocity="0" />
      <note Length="0.03125" Pitch="65" RiffPosition="4.53125" Velocity="0" />
      <note Length="0.03125" Pitch="72" RiffPosition="4.5625" Velocity="0" />
      <note Length="0.015625" Pitch="67" RiffPosition="4.59375" Velocity="0" />
      <note Length="0.015625" Pitch="53" RiffPosition="4.609375" Velocity="0" />
      <note Length="0.03125" Pitch="53" RiffPosition="4.625" Velocity="0" />
      <note Length="0.03125" Pitch="65" RiffPosition="4.65625" Velocity="0" />
      <note Length="0.0078125" Pitch="68" RiffPosition="4.6875" Velocity="0" />
      <note Length="0.0234375" Pitch="67" RiffPosition="4.6953125" Velocity="0" />
      <note Length="0.015625" Pitch="68" RiffPosition="4.71875" Velocity="0" />
      <note Length="0.015625" Pitch="53" RiffPosition="4.734375" Velocity="0" />
      <note Length="0.03125" Pitch="53" RiffPosition="4.75" Velocity="0" />
      <note Length="0.03125" Pitch="53" RiffPosition="4.78125" Velocity="0" />
      <note Length="0.03125" Pitch="68" RiffPosition="4.8125" Velocity="0" />
      <note Length="0.015625" Pitch="53" RiffPosition="4.84375" Velocity="0" />
      <note Length="0.015625" Pitch="53" RiffPosition="4.859375" Velocity="0" />
      <note Length="0.03125" Pitch="53" RiffPosition="4.875" Velocity="0" />
      <note Length="0.03125" Pitch="53" RiffPosition="4.90625" Velocity="0" />
      <note Length="0.0078125" Pitch="65" RiffPosition="4.9375" Velocity="0" />
      <note Length="0.0234375" Pitch="53" RiffPosition="4.9453125" Velocity="0" />
      <note Length="0.015625" Pitch="53" RiffPosition="4.96875" Velocity="0" />
      <note Length="0.015625" Pitch="53" RiffPosition="4.984375" Velocity="0" />
      <note Length="0.03125" Pitch="61" RiffPosition="5" Velocity="0" />
      <note Length="0.03125" Pitch="53" RiffPosition="5.03125" Velocity="0" />
      <note Length="0.03125" Pitch="70" RiffPosition="5.0625" Velocity="0" />
      <note Length="0.015625" Pitch="65" RiffPosition="5.09375" Velocity="0" />
      <note Length="0.015625" Pitch="53" RiffPosition="5.109375" Velocity="0" />
      <note Length="0.03125" Pitch="65" RiffPosition="5.125" Velocity="0" />
      <note Length="0.03125" Pitch="67" RiffPosition="5.15625" Velocity="0" />
      <note Length="0.0078125" Pitch="68" RiffPosition="5.1875" Velocity="0" />
      <note Length="0.0234375" Pitch="65" RiffPosition="5.1953125" Velocity="0" />
      <note Length="0.015625" Pitch="68" RiffPosition="5.21875" Velocity="0" />
      <note Length="0.015625" Pitch="53" RiffPosition="5.234375" Velocity="0" />
      <note Length="0.03125" Pitch="61" RiffPosition="5.25" Velocity="0" />
      <note Length="0.03125" Pitch="65" RiffPosition="5.28125" Velocity="0" />
      <note Length="0.03125" Pitch="65" RiffPosition="5.3125" Velocity="0" />
      <note Length="0.015625" Pitch="61" RiffPosition="5.34375" Velocity="0" />
      <note Length="0.015625" Pitch="53" RiffPosition="5.359375" Velocity="0" />
      <note Length="0.03125" Pitch="60" RiffPosition="5.375" Velocity="0" />
      <note Length="0.03125" Pitch="53" RiffPosition="5.40625" Velocity="0" />
      <note Length="0.0078125" Pitch="68" RiffPosition="5.4375" Velocity="0" />
      <note Length="0.0234375" Pitch="68" RiffPosition="5.4453125" Velocity="0" />
      <note Length="0.015625" Pitch="53" RiffPosition="5.46875" Velocity="0" />
      <note Length="0.015625" Pitch="53" RiffPosition="5.484375" Velocity="0" />
      <note Length="0.03125" Pitch="61" RiffPosition="5.5" Velocity="0" />
      <note Length="0.03125" Pitch="67" RiffPosition="5.53125" Velocity="0" />
      <note Length="0.03125" Pitch="68" RiffPosition="5.5625" Velocity="0" />
      <note Length="0.015625" Pitch="68" RiffPosition="5.59375" Velocity="0" />
      <note Length="0.015625" Pitch="65" RiffPosition="5.609375" Velocity="0" />
      <note Length="0.03125" Pitch="53" RiffPosition="5.625" Velocity="0" />
      <note Length="0.03125" Pitch="53" RiffPosition="5.65625" Velocity="0" />
      <note Length="0.0078125" Pitch="70" RiffPosition="5.6875" Velocity="0" />
      <note Length="0.0234375" Pitch="68" RiffPosition="5.6953125" Velocity="0" />
      <note Length="0.015625" Pitch="65" RiffPosition="5.71875" Velocity="0" />
      <note Length="0.015625" Pitch="53" RiffPosition="5.734375" Velocity="0" />
      <note Length="0.03125" Pitch="53" RiffPosition="5.75" Velocity="0" />
      <note Length="0.03125" Pitch="65" RiffPosition="5.78125" Velocity="0" />
      <note Length="0.03125" Pitch="65" RiffPosition="5.8125" Velocity="0" />
      <note Length="0.015625" Pitch="65" RiffPosition="5.84375" Velocity="0" />
      <note Length="0.015625" Pitch="53" RiffPosition="5.859375" Velocity="0" />
      <note Length="0.03125" Pitch="61" RiffPosition="5.875" Velocity="0" />
      <note Length="0.03125" Pitch="53" RiffPosition="5.90625" Velocity="0" />
      <note Length="0.0078125" Pitch="67" RiffPosition="5.9375" Velocity="0" />
      <note Length="0.0234375" Pitch="65" RiffPosition="5.9453125" Velocity="0" />
      <note Length="0.015625" Pitch="53" RiffPosition="5.96875" Velocity="0" />
      <note Length="0.015625" Pitch="61" RiffPosition="5.984375" Velocity="0" />
      <note Length="0.03125" Pitch="53" RiffPosition="6" Velocity="0" />
      <note Length="0.03125" Pitch="53" RiffPosition="6.03125" Velocity="0" />
      <note Length="0.03125" Pitch="67" RiffPosition="6.0625" Velocity="0" />
      <note Length="0.015625" Pitch="67" RiffPosition="6.09375" Velocity="0" />
      <note Length="0.015625" Pitch="65" RiffPosition="6.109375" Velocity="0" />
      <note Length="0.03125" Pitch="53" RiffPosition="6.125" Velocity="0" />
      <note Length="0.03125" Pitch="68" RiffPosition="6.15625" Velocity="0" />
      <note Length="0.0078125" Pitch="70" RiffPosition="6.1875" Velocity="0" />
      <note Length="0.0234375" Pitch="70" RiffPosition="6.1953125" Velocity="0" />
      <note Length="0.015625" Pitch="65" RiffPosition="6.21875" Velocity="0" />
      <note Length="0.015625" Pitch="65" RiffPosition="6.234375" Velocity="0" />
      <note Length="0.03125" Pitch="53" RiffPosition="6.25" Velocity="0" />
      <note Length="0.03125" Pitch="53" RiffPosition="6.28125" Velocity="0" />
      <note Length="0.03125" Pitch="68" RiffPosition="6.3125" Velocity="0" />
      <note Length="0.015625" Pitch="53" RiffPosition="6.34375" Velocity="0" />
      <note Length="0.015625" Pitch="60" RiffPosition="6.359375" Velocity="0" />
      <note Length="0.03125" Pitch="58" RiffPosition="6.375" Velocity="0" />
      <note Length="0.03125" Pitch="53" RiffPosition="6.40625" Velocity="0" />
      <note Length="0.0078125" Pitch="65" RiffPosition="6.4375" Velocity="0" />
      <note Length="0.0234375" Pitch="65" RiffPosition="6.4453125" Velocity="0" />
      <note Length="0.015625" Pitch="65" RiffPosition="6.46875" Velocity="0" />
      <note Length="0.015625" Pitch="65" RiffPosition="6.484375" Velocity="0" />
      <note Length="0.03125" Pitch="53" RiffPosition="6.5" Velocity="0" />
      <note Length="0.03125" Pitch="53" RiffPosition="6.53125" Velocity="0" />
      <note Length="0.03125" Pitch="72" RiffPosition="6.5625" Velocity="0" />
      <note Length="0.015625" Pitch="65" RiffPosition="6.59375" Velocity="0" />
      <note Length="0.015625" Pitch="53" RiffPosition="6.609375" Velocity="0" />
      <note Length="0.03125" Pitch="65" RiffPosition="6.625" Velocity="0" />
      <note Length="0.03125" Pitch="65" RiffPosition="6.65625" Velocity="0" />
      <note Length="0.0078125" Pitch="67" RiffPosition="6.6875" Velocity="0" />
      <note Length="0.0234375" Pitch="65" RiffPosition="6.6953125" Velocity="0" />
      <note Length="0.015625" Pitch="67" RiffPosition="6.71875" Velocity="0" />
      <note Length="0.015625" Pitch="53" RiffPosition="6.734375" Velocity="0" />
      <note Length="0.03125" Pitch="61" RiffPosition="6.75" Velocity="0" />
      <note Length="0.03125" Pitch="53" RiffPosition="6.78125" Velocity="0" />
      <note Length="0.03125" Pitch="67" RiffPosition="6.8125" Velocity="0" />
      <note Length="0.015625" Pitch="53" RiffPosition="6.84375" Velocity="0" />
      <note Length="0.015625" Pitch="61" RiffPosition="6.859375" Velocity="0" />
      <note Length="0.03125" Pitch="53" RiffPosition="6.875" Velocity="0" />
      <note Length="0.03125" Pitch="53" RiffPosition="6.90625" Velocity="0" />
      <note Length="0.0078125" Pitch="53" RiffPosition="6.9375" Velocity="0" />
      <note Length="0.0234375" Pitch="68" RiffPosition="6.9453125" Velocity="0" />
      <note Length="0.015625" Pitch="53" RiffPosition="6.96875" Velocity="0" />
      <note Length="0.015625" Pitch="53" RiffPosition="6.984375" Velocity="0" />
      <note Length="0.03125" Pitch="60" RiffPosition="7" Velocity="0" />
      <note Length="0.03125" Pitch="65" RiffPosition="7.03125" Velocity="0" />
      <note Length="0.03125" Pitch="68" RiffPosition="7.0625" Velocity="0" />
      <note Length="0.015625" Pitch="53" RiffPosition="7.09375" Velocity="0" />
      <note Length="0.015625" Pitch="67" RiffPosition="7.109375" Velocity="0" />
      <note Length="0.03125" Pitch="53" RiffPosition="7.125" Velocity="0" />
      <note Length="0.03125" Pitch="65" RiffPosition="7.15625" Velocity="0" />
      <note Length="0.0078125" Pitch="65" RiffPosition="7.1875" Velocity="0" />
      <note Length="0.0234375" Pitch="72" RiffPosition="7.1953125" Velocity="0" />
      <note Length="0.015625" Pitch="67" RiffPosition="7.21875" Velocity="0" />
      <note Length="0.015625" Pitch="53" RiffPosition="7.234375" Velocity="0" />
      <note Length="0.03125" Pitch="61" RiffPosition="7.25" Velocity="0" />
      <note Length="0.03125" Pitch="65" RiffPosition="7.28125" Velocity="0" />
      <note Length="0.03125" Pitch="65" RiffPosition="7.3125" Velocity="0" />
      <note Length="0.015625" Pitch="53" RiffPosition="7.34375" Velocity="0" />
      <note Length="0.015625" Pitch="53" RiffPosition="7.359375" Velocity="0" />
      <note Length="0.03125" Pitch="60" RiffPosition="7.375" Velocity="0" />
      <note Length="0.03125" Pitch="53" RiffPosition="7.40625" Velocity="0" />
      <note Length="0.0078125" Pitch="68" RiffPosition="7.4375" Velocity="0" />
      <note Length="0.0234375" Pitch="67" RiffPosition="7.4453125" Velocity="0" />
      <note Length="0.015625" Pitch="53" RiffPosition="7.46875" Velocity="0" />
      <note Length="0.015625" Pitch="53" RiffPosition="7.484375" Velocity="0" />
      <note Length="0.03125" Pitch="65" RiffPosition="7.5" Velocity="0" />
      <note Length="0.03125" Pitch="65" RiffPosition="7.53125" Velocity="0" />
      <note Length="0.03125" Pitch="68" RiffPosition="7.5625" Velocity="0" />
      <note Length="0.015625" Pitch="68" RiffPosition="7.59375" Velocity="0" />
      <note Length="0.015625" Pitch="65" RiffPosition="7.609375" Velocity="0" />
      <note Length="0.03125" Pitch="53" RiffPosition="7.625" Velocity="0" />
      <note Length="0.03125" Pitch="53" RiffPosition="7.65625" Velocity="0" />
      <note Length="0.0078125" Pitch="68" RiffPosition="7.6875" Velocity="0" />
      <note Length="0.0234375" Pitch="68" RiffPosition="7.6953125" Velocity="0" />
      <note Length="0.015625" Pitch="53" RiffPosition="7.71875" Velocity="0" />
      <note Length="0.015625" Pitch="61" RiffPosition="7.734375" Velocity="0" />
      <note Length="0.03125" Pitch="53" RiffPosition="7.75" Velocity="0" />
      <note Length="0.03125" Pitch="53" RiffPosition="7.78125" Velocity="0" />
      <note Length="0.03125" Pitch="65" RiffPosition="7.8125" Velocity="0" />
      <note Length="0.015625" Pitch="65" RiffPosition="7.84375" Velocity="0" />
      <note Length="0.015625" Pitch="53" RiffPosition="7.859375" Velocity="0" />
      <note Length="0.03125" Pitch="60" RiffPosition="7.875" Velocity="0" />
      <note Length="0.03125" Pitch="65" RiffPosition="7.90625" Velocity="0" />
      <note Length="0.0078125" Pitch="65" RiffPosition="7.9375" Velocity="0" />
      <note Length="0.0234375" Pitch="65" RiffPosition="7.9453125" Velocity="0" />
      <note Length="0.015625" Pitch="61" RiffPosition="7.96875" Velocity="0" />
      <note Length="0.015625" Pitch="53" RiffPosition="7.984375" Velocity="0" />
      <note Length="0.03125" Pitch="53" RiffPosition="8" Velocity="31" />
      <note Length="0.03125" Pitch="53" RiffPosition="8.03125" Velocity="61" />
      <note Length="0.03125" Pitch="70" RiffPosition="8.0625" Velocity="72" />
      <note Length="0.015625" Pitch="65" RiffPosition="8.09375" Velocity="53" />
      <note Length="0.015625" Pitch="53" RiffPosition="8.109375" Velocity="32" />
      <note Length="0.03125" Pitch="53" RiffPosition="8.125" Velocity="35" />
      <note Length="0.03125" Pitch="68" RiffPosition="8.15625" Velocity="52" />
      <note Length="0.0078125" Pitch="70" RiffPosition="8.1875" Velocity="50" />
      <note Length="0.0234375" Pitch="68" RiffPosition="8.1953125" Velocity="42" />
      <note Length="0.015625" Pitch="68" RiffPosition="8.21875" Velocity="62" />
      <note Length="0.015625" Pitch="65" RiffPosition="8.234375" Velocity="78" />
      <note Length="0.03125" Pitch="53" RiffPosition="8.25" Velocity="73" />
      <note Length="0.03125" Pitch="53" RiffPosition="8.28125" Velocity="50" />
      <note Length="0.03125" Pitch="67" RiffPosition="8.3125" Velocity="47" />
      <note Length="0.015625" Pitch="53" RiffPosition="8.34375" Velocity="93" />
      <note Length="0.015625" Pitch="60" RiffPosition="8.359375" Velocity="101" />
      <note Length="0.03125" Pitch="58" RiffPosition="8.375" Velocity="95" />
      <note Length="0.03125" Pitch="53" RiffPosition="8.40625" Velocity="53" />
      <note Length="0.0078125" Pitch="65" RiffPosition="8.4375" Velocity="37" />
      <note Length="0.0234375" Pitch="53" RiffPosition="8.4453125" Velocity="40" />
      <note Length="0.015625" Pitch="65" RiffPosition="8.46875" Velocity="56" />
      <note Length="0.015625" Pitch="53" RiffPosition="8.484375" Velocity="63" />
      <note Length="0.03125" Pitch="53" RiffPosition="8.5" Velocity="57" />
      <note Length="0.03125" Pitch="53" RiffPosition="8.53125" Velocity="45" />
      <note Length="0.03125" Pitch="70" RiffPosition="8.5625" Velocity="75" />
      <note Length="0.015625" Pitch="65" RiffPosition="8.59375" Velocity="55" />
      <note Length="0.015625" Pitch="53" RiffPosition="8.609375" Velocity="43" />
      <note Length="0.03125" Pitch="53" RiffPosition="8.625" Velocity="43" />
      <note Length="0.03125" Pitch="65" RiffPosition="8.65625" Velocity="66" />
      <note Length="0.0078125" Pitch="65" RiffPosition="8.6875" Velocity="89" />
      <note Length="0.0234375" Pitch="70" RiffPosition="8.6953125" Velocity="76" />
      <note Length="0.015625" Pitch="65" RiffPosition="8.71875" Velocity="57" />
      <note Length="0.015625" Pitch="53" RiffPosition="8.734375" Velocity="37" />
      <note Length="0.03125" Pitch="61" RiffPosition="8.75" Velocity="41" />
      <note Length="0.03125" Pitch="67" RiffPosition="8.78125" Velocity="58" />
      <note Length="0.03125" Pitch="67" RiffPosition="8.8125" Velocity="56" />
      <note Length="0.015625" Pitch="53" RiffPosition="8.84375" Velocity="36" />
      <note Length="0.015625" Pitch="53" RiffPosition="8.859375" Velocity="53" />
      <note Length="0.03125" Pitch="53" RiffPosition="8.875" Velocity="43" />
      <note Length="0.03125" Pitch="53" RiffPosition="8.90625" Velocity="33" />
      <note Length="0.0078125" Pitch="68" RiffPosition="8.9375" Velocity="44" />
      <note Length="0.0234375" Pitch="68" RiffPosition="8.9453125" Velocity="39" />
      <note Length="0.015625" Pitch="53" RiffPosition="8.96875" Velocity="35" />
      <note Length="0.015625" Pitch="53" RiffPosition="8.984375" Velocity="51" />
      <note Length="0.03125" Pitch="60" RiffPosition="9" Velocity="55" />
      <note Length="0.03125" Pitch="65" RiffPosition="9.03125" Velocity="35" />
      <note Length="0.03125" Pitch="68" RiffPosition="9.0625" Velocity="45" />
      <note Length="0.015625" Pitch="68" RiffPosition="9.09375" Velocity="40" />
      <note Length="0.015625" Pitch="65" RiffPosition="9.109375" Velocity="54" />
      <note Length="0.03125" Pitch="53" RiffPosition="9.125" Velocity="51" />
      <note Length="0.03125" Pitch="65" RiffPosition="9.15625" Velocity="34" />
      <note Length="0.0078125" Pitch="72" RiffPosition="9.1875" Velocity="36" />
      <note Length="0.0234375" Pitch="72" RiffPosition="9.1953125" Velocity="44" />
      <note Length="0.015625" Pitch="67" RiffPosition="9.21875" Velocity="61" />
      <note Length="0.015625" Pitch="53" RiffPosition="9.234375" Velocity="77" />
      <note Length="0.03125" Pitch="60" RiffPosition="9.25" Velocity="78" />
      <note Length="0.03125" Pitch="65" RiffPosition="9.28125" Velocity="49" />
      <note Length="0.03125" Pitch="53" RiffPosition="9.3125" Velocity="46" />
      <note Length="0.015625" Pitch="53" RiffPosition="9.34375" Velocity="65" />
      <note Length="0.015625" Pitch="53" RiffPosition="9.359375" Velocity="73" />
      <note Length="0.03125" Pitch="60" RiffPosition="9.375" Velocity="67" />
      <note Length="0.03125" Pitch="61" RiffPosition="9.40625" Velocity="35" />
      <note Length="0.0078125" Pitch="67" RiffPosition="9.4375" Velocity="51" />
      <note Length="0.0234375" Pitch="65" RiffPosition="9.4453125" Velocity="48" />
      <note Length="0.015625" Pitch="53" RiffPosition="9.46875" Velocity="32" />
      <note Length="0.015625" Pitch="53" RiffPosition="9.484375" Velocity="35" />
      <note Length="0.03125" Pitch="53" RiffPosition="9.5" Velocity="31" />
      <note Length="0.03125" Pitch="65" RiffPosition="9.53125" Velocity="66" />
      <note Length="0.03125" Pitch="68" RiffPosition="9.5625" Velocity="76" />
      <note Length="0.015625" Pitch="67" RiffPosition="9.59375" Velocity="56" />
      <note Length="0.015625" Pitch="53" RiffPosition="9.609375" Velocity="38" />
      <note Length="0.03125" Pitch="53" RiffPosition="9.625" Velocity="44" />
      <note Length="0.03125" Pitch="67" RiffPosition="9.65625" Velocity="66" />
      <note Length="0.0078125" Pitch="68" RiffPosition="9.6875" Velocity="57" />
      <note Length="0.0234375" Pitch="68" RiffPosition="9.6953125" Velocity="50" />
      <note Length="0.015625" Pitch="53" RiffPosition="9.71875" Velocity="30" />
      <note Length="0.015625" Pitch="53" RiffPosition="9.734375" Velocity="49" />
      <note Length="0.03125" Pitch="53" RiffPosition="9.75" Velocity="45" />
      <note Length="0.03125" Pitch="53" RiffPosition="9.78125" Velocity="32" />
      <note Length="0.03125" Pitch="68" RiffPosition="9.8125" Velocity="30" />
      <note Length="0.015625" Pitch="53" RiffPosition="9.84375" Velocity="62" />
      <note Length="0.015625" Pitch="53" RiffPosition="9.859375" Velocity="79" />
      <note Length="0.03125" Pitch="60" RiffPosition="9.875" Velocity="70" />
      <note Length="0.03125" Pitch="53" RiffPosition="9.90625" Velocity="34" />
      <note Length="0.0078125" Pitch="65" RiffPosition="9.9375" Velocity="45" />
      <note Length="0.0234375" Pitch="65" RiffPosition="9.9453125" Velocity="40" />
      <note Length="0.015625" Pitch="65" RiffPosition="9.96875" Velocity="41" />
      <note Length="0.015625" Pitch="53" RiffPosition="9.984375" Velocity="50" />
      <note Length="0.03125" Pitch="53" RiffPosition="10" Velocity="33" />
      <note Length="0.03125" Pitch="53" RiffPosition="10.03125" Velocity="63" />
      <note Length="0.03125" Pitch="70" RiffPosition="10.0625" Velocity="73" />
      <note Length="0.015625" Pitch="65" RiffPosition="10.09375" Velocity="48" />
      <note Length="0.015625" Pitch="53" RiffPosition="10.109375" Velocity="34" />
      <note Length="0.03125" Pitch="53" RiffPosition="10.125" Velocity="30" />
      <note Length="0.03125" Pitch="68" RiffPosition="10.15625" Velocity="54" />
      <note Length="0.0078125" Pitch="70" RiffPosition="10.1875" Velocity="52" />
      <note Length="0.0234375" Pitch="68" RiffPosition="10.1953125" Velocity="44" />
      <note Length="0.015625" Pitch="68" RiffPosition="10.21875" Velocity="60" />
      <note Length="0.015625" Pitch="53" RiffPosition="10.234375" Velocity="76" />
      <note Length="0.03125" Pitch="53" RiffPosition="10.25" Velocity="78" />
      <note Length="0.03125" Pitch="53" RiffPosition="10.28125" Velocity="49" />
      <note Length="0.03125" Pitch="65" RiffPosition="10.3125" Velocity="45" />
      <note Length="0.015625" Pitch="53" RiffPosition="10.34375" Velocity="91" />
      <note Length="0.015625" Pitch="60" RiffPosition="10.359375" Velocity="99" />
      <note Length="0.03125" Pitch="61" RiffPosition="10.375" Velocity="93" />
      <note Length="0.03125" Pitch="53" RiffPosition="10.40625" Velocity="58" />
      <note Length="0.0078125" Pitch="53" RiffPosition="10.4375" Velocity="35" />
      <note Length="0.0234375" Pitch="68" RiffPosition="10.4453125" Velocity="45" />
      <note Length="0.015625" Pitch="53" RiffPosition="10.46875" Velocity="55" />
      <note Length="0.015625" Pitch="53" RiffPosition="10.484375" Velocity="68" />
      <note Length="0.03125" Pitch="53" RiffPosition="10.5" Velocity="55" />
      <note Length="0.03125" Pitch="68" RiffPosition="10.53125" Velocity="40" />
      <note Length="0.03125" Pitch="70" RiffPosition="10.5625" Velocity="70" />
      <note Length="0.015625" Pitch="65" RiffPosition="10.59375" Velocity="57" />
      <note Length="0.015625" Pitch="67" RiffPosition="10.609375" Velocity="39" />
      <note Length="0.03125" Pitch="53" RiffPosition="10.625" Velocity="45" />
      <note Length="0.03125" Pitch="65" RiffPosition="10.65625" Velocity="67" />
      <note Length="0.0078125" Pitch="70" RiffPosition="10.6875" Velocity="85" />
      <note Length="0.0234375" Pitch="70" RiffPosition="10.6953125" Velocity="78" />
      <note Length="0.015625" Pitch="65" RiffPosition="10.71875" Velocity="58" />
      <note Length="0.015625" Pitch="53" RiffPosition="10.734375" Velocity="39" />
      <note Length="0.03125" Pitch="60" RiffPosition="10.75" Velocity="43" />
      <note Length="0.03125" Pitch="65" RiffPosition="10.78125" Velocity="60" />
      <note Length="0.03125" Pitch="65" RiffPosition="10.8125" Velocity="58" />
      <note Length="0.015625" Pitch="65" RiffPosition="10.84375" Velocity="40" />
      <note Length="0.015625" Pitch="53" RiffPosition="10.859375" Velocity="51" />
      <note Length="0.03125" Pitch="53" RiffPosition="10.875" Velocity="42" />
      <note Length="0.03125" Pitch="53" RiffPosition="10.90625" Velocity="35" />
      <note Length="0.0078125" Pitch="68" RiffPosition="10.9375" Velocity="45" />
      <note Length="0.0234375" Pitch="67" RiffPosition="10.9453125" Velocity="41" />
      <note Length="0.015625" Pitch="53" RiffPosition="10.96875" Velocity="40" />
      <note Length="0.015625" Pitch="53" RiffPosition="10.984375" Velocity="49" />
      <note Length="0.03125" Pitch="60" RiffPosition="11" Velocity="60" />
      <note Length="0.03125" Pitch="53" RiffPosition="11,03125" Velocity="36" />
      <note Length="0.03125" Pitch="68" RiffPosition="11,0625" Velocity="47" />
      <note Length="0.015625" Pitch="68" RiffPosition="11,09375" Velocity="38" />
      <note Length="0.015625" Pitch="65" RiffPosition="11,109375" Velocity="53" />
      <note Length="0.03125" Pitch="53" RiffPosition="11,125" Velocity="56" />
      <note Length="0.03125" Pitch="65" RiffPosition="11,15625" Velocity="33" />
      <note Length="0.0078125" Pitch="72" RiffPosition="11,1875" Velocity="35" />
      <note Length="0.0234375" Pitch="70" RiffPosition="11,1953125" Velocity="43" />
      <note Length="0.015625" Pitch="65" RiffPosition="11,21875" Velocity="59" />
      <note Length="0.015625" Pitch="53" RiffPosition="11,234375" Velocity="75" />
      <note Length="0.03125" Pitch="53" RiffPosition="11,25" Velocity="77" />
      <note Length="0.03125" Pitch="53" RiffPosition="11,28125" Velocity="54" />
      <note Length="0.03125" Pitch="53" RiffPosition="11,3125" Velocity="44" />
      <note Length="0.015625" Pitch="53" RiffPosition="11,34375" Velocity="63" />
      <note Length="0.015625" Pitch="61" RiffPosition="11,359375" Velocity="77" />
      <note Length="0.03125" Pitch="60" RiffPosition="11,375" Velocity="65" />
      <note Length="0.03125" Pitch="53" RiffPosition="11,40625" Velocity="30" />
      <note Length="0.0078125" Pitch="65" RiffPosition="11,4375" Velocity="47" />
      <note Length="0.0234375" Pitch="65" RiffPosition="11,4453125" Velocity="43" />
      <note Length="0.015625" Pitch="53" RiffPosition="11,46875" Velocity="33" />
      <note Length="0.015625" Pitch="65" RiffPosition="11,484375" Velocity="40" />
      <note Length="0.03125" Pitch="53" RiffPosition="11,5" Velocity="33" />
      <note Length="0.03125" Pitch="65" RiffPosition="11,53125" Velocity="68" />
      <note Length="0.03125" Pitch="72" RiffPosition="11,5625" Velocity="71" />
      <note Length="0.015625" Pitch="67" RiffPosition="11,59375" Velocity="58" />
      <note Length="0.015625" Pitch="53" RiffPosition="11,609375" Velocity="40" />
      <note Length="0.03125" Pitch="53" RiffPosition="11,625" Velocity="46" />
      <note Length="0.03125" Pitch="67" RiffPosition="11,65625" Velocity="68" />
      <note Length="0.0078125" Pitch="68" RiffPosition="11,6875" Velocity="58" />
      <note Length="0.0234375" Pitch="67" RiffPosition="11,6953125" Velocity="52" />
      <note Length="0.015625" Pitch="68" RiffPosition="11,71875" Velocity="34" />
      <note Length="0.015625" Pitch="53" RiffPosition="11,734375" Velocity="47" />
      <note Length="0.03125" Pitch="53" RiffPosition="11,75" Velocity="43" />
      <note Length="0.03125" Pitch="53" RiffPosition="11,78125" Velocity="34" />
      <note Length="0.03125" Pitch="68" RiffPosition="11,8125" Velocity="32" />
      <note Length="0.015625" Pitch="53" RiffPosition="11,84375" Velocity="67" />
      <note Length="0.015625" Pitch="53" RiffPosition="11,859375" Velocity="78" />
      <note Length="0.03125" Pitch="60" RiffPosition="11,875" Velocity="74" />
      <note Length="0.03125" Pitch="53" RiffPosition="11,90625" Velocity="35" />
      <note Length="0.0078125" Pitch="65" RiffPosition="11,9375" Velocity="46" />
      <note Length="0.0234375" Pitch="53" RiffPosition="11,9453125" Velocity="41" />
      <note Length="0.015625" Pitch="53" RiffPosition="11,96875" Velocity="39" />
      <note Length="0.015625" Pitch="53" RiffPosition="11,984375" Velocity="49" />
      <note Length="0.03125" Pitch="61" RiffPosition="12" Velocity="32" />
      <note Length="0.03125" Pitch="53" RiffPosition="12.03125" Velocity="64" />
      <note Length="0.03125" Pitch="70" RiffPosition="12.0625" Velocity="75" />
      <note Length="0.015625" Pitch="65" RiffPosition="12.09375" Velocity="50" />
      <note Length="0.015625" Pitch="53" RiffPosition="12.109375" Velocity="35" />
      <note Length="0.03125" Pitch="65" RiffPosition="12.125" Velocity="32" />
      <note Length="0.03125" Pitch="67" RiffPosition="12.15625" Velocity="49" />
      <note Length="0.0078125" Pitch="68" RiffPosition="12.1875" Velocity="53" />
      <note Length="0.0234375" Pitch="65" RiffPosition="12.1953125" Velocity="39" />
      <note Length="0.015625" Pitch="68" RiffPosition="12.21875" Velocity="58" />
      <note Length="0.015625" Pitch="53" RiffPosition="12.234375" Velocity="81" />
      <note Length="0.03125" Pitch="53" RiffPosition="12.25" Velocity="76" />
      <note Length="0.03125" Pitch="65" RiffPosition="12.28125" Velocity="53" />
      <note Length="0.03125" Pitch="65" RiffPosition="12.3125" Velocity="50" />
      <note Length="0.015625" Pitch="61" RiffPosition="12.34375" Velocity="89" />
      <note Length="0.015625" Pitch="53" RiffPosition="12.359375" Velocity="104" />
      <note Length="0.03125" Pitch="61" RiffPosition="12.375" Velocity="92" />
      <note Length="0.03125" Pitch="53" RiffPosition="12.40625" Velocity="56" />
      <note Length="0.0078125" Pitch="68" RiffPosition="12.4375" Velocity="40" />
      <note Length="0.0234375" Pitch="68" RiffPosition="12.4453125" Velocity="43" />
      <note Length="0.015625" Pitch="53" RiffPosition="12.46875" Velocity="53" />
      <note Length="0.015625" Pitch="53" RiffPosition="12.484375" Velocity="66" />
      <note Length="0.03125" Pitch="61" RiffPosition="12.5" Velocity="54" />
      <note Length="0.03125" Pitch="67" RiffPosition="12.53125" Velocity="42" />
      <note Length="0.03125" Pitch="70" RiffPosition="12.5625" Velocity="72" />
      <note Length="0.015625" Pitch="68" RiffPosition="12.59375" Velocity="52" />
      <note Length="0.015625" Pitch="65" RiffPosition="12.609375" Velocity="41" />
      <note Length="0.03125" Pitch="53" RiffPosition="12.625" Velocity="46" />
      <note Length="0.03125" Pitch="53" RiffPosition="12.65625" Velocity="69" />
      <note Length="0.0078125" Pitch="70" RiffPosition="12.6875" Velocity="86" />
      <note Length="0.0234375" Pitch="68" RiffPosition="12.6953125" Velocity="80" />
      <note Length="0.015625" Pitch="65" RiffPosition="12.71875" Velocity="54" />
      <note Length="0.015625" Pitch="53" RiffPosition="12.734375" Velocity="41" />
      <note Length="0.03125" Pitch="60" RiffPosition="12.75" Velocity="38" />
      <note Length="0.03125" Pitch="65" RiffPosition="12.78125" Velocity="62" />
      <note Length="0.03125" Pitch="65" RiffPosition="12.8125" Velocity="60" />
      <note Length="0.015625" Pitch="65" RiffPosition="12.84375" Velocity="38" />
      <note Length="0.015625" Pitch="53" RiffPosition="12.859375" Velocity="49" />
      <note Length="0.03125" Pitch="61" RiffPosition="12.875" Velocity="46" />
      <note Length="0.03125" Pitch="53" RiffPosition="12.90625" Velocity="36" />
      <note Length="0.0078125" Pitch="67" RiffPosition="12.9375" Velocity="47" />
      <note Length="0.0234375" Pitch="65" RiffPosition="12.9453125" Velocity="42" />
      <note Length="0.015625" Pitch="53" RiffPosition="12.96875" Velocity="38" />
      <note Length="0.015625" Pitch="61" RiffPosition="12.984375" Velocity="48" />
      <note Length="0.03125" Pitch="53" RiffPosition="13" Velocity="0" />
      <note Length="0.03125" Pitch="53" RiffPosition="13.03125" Velocity="0" />
      <note Length="0.03125" Pitch="67" RiffPosition="13.0625" Velocity="0" />
      <note Length="0.015625" Pitch="67" RiffPosition="13.09375" Velocity="0" />
      <note Length="0.015625" Pitch="65" RiffPosition="13.109375" Velocity="0" />
      <note Length="0.03125" Pitch="53" RiffPosition="13.125" Velocity="0" />
      <note Length="0.03125" Pitch="68" RiffPosition="13.15625" Velocity="0" />
      <note Length="0.0078125" Pitch="70" RiffPosition="13.1875" Velocity="0" />
      <note Length="0.0234375" Pitch="70" RiffPosition="13.1953125" Velocity="0" />
      <note Length="0.015625" Pitch="65" RiffPosition="13.21875" Velocity="0" />
      <note Length="0.015625" Pitch="65" RiffPosition="13.234375" Velocity="0" />
      <note Length="0.03125" Pitch="53" RiffPosition="13.25" Velocity="0" />
      <note Length="0.03125" Pitch="53" RiffPosition="13.28125" Velocity="0" />
      <note Length="0.03125" Pitch="68" RiffPosition="13.3125" Velocity="0" />
      <note Length="0.015625" Pitch="53" RiffPosition="13.34375" Velocity="0" />
      <note Length="0.015625" Pitch="60" RiffPosition="13.359375" Velocity="0" />
      <note Length="0.03125" Pitch="58" RiffPosition="13.375" Velocity="0" />
      <note Length="0.03125" Pitch="53" RiffPosition="13.40625" Velocity="0" />
      <note Length="0.0078125" Pitch="65" RiffPosition="13.4375" Velocity="0" />
      <note Length="0.0234375" Pitch="65" RiffPosition="13.4453125" Velocity="0" />
      <note Length="0.015625" Pitch="65" RiffPosition="13.46875" Velocity="0" />
      <note Length="0.015625" Pitch="65" RiffPosition="13.484375" Velocity="0" />
      <note Length="0.03125" Pitch="53" RiffPosition="13.5" Velocity="0" />
      <note Length="0.03125" Pitch="53" RiffPosition="13.53125" Velocity="0" />
      <note Length="0.03125" Pitch="72" RiffPosition="13.5625" Velocity="0" />
      <note Length="0.015625" Pitch="65" RiffPosition="13.59375" Velocity="0" />
      <note Length="0.015625" Pitch="53" RiffPosition="13.609375" Velocity="0" />
      <note Length="0.03125" Pitch="61" RiffPosition="13.625" Velocity="0" />
      <note Length="0.03125" Pitch="65" RiffPosition="13.65625" Velocity="0" />
      <note Length="0.0078125" Pitch="67" RiffPosition="13.6875" Velocity="0" />
      <note Length="0.0234375" Pitch="67" RiffPosition="13.6953125" Velocity="0" />
      <note Length="0.015625" Pitch="67" RiffPosition="13.71875" Velocity="0" />
      <note Length="0.015625" Pitch="53" RiffPosition="13.734375" Velocity="0" />
      <note Length="0.03125" Pitch="53" RiffPosition="13.75" Velocity="0" />
      <note Length="0.03125" Pitch="53" RiffPosition="13.78125" Velocity="0" />
      <note Length="0.03125" Pitch="68" RiffPosition="13.8125" Velocity="0" />
      <note Length="0.015625" Pitch="53" RiffPosition="13.84375" Velocity="0" />
      <note Length="0.015625" Pitch="61" RiffPosition="13.859375" Velocity="0" />
      <note Length="0.03125" Pitch="53" RiffPosition="13.875" Velocity="0" />
      <note Length="0.03125" Pitch="53" RiffPosition="13.90625" Velocity="0" />
      <note Length="0.0078125" Pitch="53" RiffPosition="13.9375" Velocity="0" />
      <note Length="0.0234375" Pitch="53" RiffPosition="13.9453125" Velocity="0" />
      <note Length="0.015625" Pitch="53" RiffPosition="13.96875" Velocity="0" />
      <note Length="0.015625" Pitch="53" RiffPosition="13.984375" Velocity="0" />
    </riff>
    <riff IsDrum="False" MidiInstrument="93" Tempo="130" Length="14">
      <note Length="0.5" Pitch="58" RiffPosition="0" Velocity="0" />
      <note Length="0.5" Pitch="58" RiffPosition="0.5" Velocity="0" />
      <note Length="0.5" Pitch="56" RiffPosition="1" Velocity="0" />
      <note Length="0.5" Pitch="58" RiffPosition="1,5" Velocity="0" />
      <note Length="0.5" Pitch="56" RiffPosition="2" Velocity="90" />
      <note Length="0.5" Pitch="58" RiffPosition="2.5" Velocity="90" />
      <note Length="1" Pitch="65" RiffPosition="3" Velocity="90" />
      <note Length="0.5" Pitch="65" RiffPosition="4" Velocity="90" />
      <note Length="0.5" Pitch="53" RiffPosition="4.5" Velocity="90" />
      <note Length="1" Pitch="53" RiffPosition="5" Velocity="90" />
      <note Length="0.25" Pitch="53" RiffPosition="6" Velocity="90" />
      <note Length="0.25" Pitch="53" RiffPosition="6.25" Velocity="90" />
      <note Length="0.25" Pitch="65" RiffPosition="6.5" Velocity="90" />
      <note Length="0.25" Pitch="65" RiffPosition="6.75" Velocity="90" />
      <note Length="0.25" Pitch="53" RiffPosition="7" Velocity="90" />
      <note Length="0.75" Pitch="53" RiffPosition="7.25" Velocity="90" />
      <note Length="0.5" Pitch="65" RiffPosition="8" Velocity="90" />
      <note Length="0.5" Pitch="72" RiffPosition="8.5" Velocity="90" />
      <note Length="0.5" Pitch="65" RiffPosition="9" Velocity="90" />
      <note Length="0.5" Pitch="65" RiffPosition="9.5" Velocity="90" />
      <note Length="0.5" Pitch="65" RiffPosition="10" Velocity="90" />
      <note Length="0.5" Pitch="65" RiffPosition="10.5" Velocity="90" />
      <note Length="1" Pitch="72" RiffPosition="11" Velocity="90" />
      <note Length="0.5" Pitch="65" RiffPosition="12" Velocity="90" />
      <note Length="0.5" Pitch="65" RiffPosition="12.5" Velocity="90" />
      <note Length="1" Pitch="65" RiffPosition="13" Velocity="90" />
    </riff>
    <riff IsDrum="False" MidiInstrument="91" Tempo="139" Length="14">
      <note Length="0.75" Pitch="58" RiffPosition="0" Velocity="0" />
      <note Length="0.25" Pitch="60" RiffPosition="0.75" Velocity="0" />
      <note Length="0.5" Pitch="60" RiffPosition="1" Velocity="0" />
      <note Length="0.5" Pitch="56" RiffPosition="1,5" Velocity="0" />
      <note Length="0.5" Pitch="55" RiffPosition="2" Velocity="90" />
      <note Length="0.5" Pitch="41" RiffPosition="2.5" Velocity="90" />
      <note Length="0.5" Pitch="49" RiffPosition="3" Velocity="90" />
      <note Length="0.5" Pitch="46" RiffPosition="3.5" Velocity="90" />
      <note Length="0.75" Pitch="44" RiffPosition="4" Velocity="90" />
      <note Length="0.25" Pitch="29" RiffPosition="4.75" Velocity="90" />
      <note Length="3" Pitch="43" RiffPosition="5" Velocity="90" />
      <note Length="0.75" Pitch="58" RiffPosition="8" Velocity="90" />
      <note Length="0.25" Pitch="60" RiffPosition="8.75" Velocity="90" />
      <note Length="0.5" Pitch="60" RiffPosition="9" Velocity="90" />
      <note Length="0.5" Pitch="70" RiffPosition="9.5" Velocity="90" />
      <note Length="0.5" Pitch="68" RiffPosition="10" Velocity="90" />
      <note Length="0.5" Pitch="65" RiffPosition="10.5" Velocity="90" />
      <note Length="0.5" Pitch="53" RiffPosition="11" Velocity="90" />
      <note Length="0.5" Pitch="61" RiffPosition="11,5" Velocity="90" />
      <note Length="0.75" Pitch="58" RiffPosition="12" Velocity="90" />
      <note Length="0.25" Pitch="56" RiffPosition="12.75" Velocity="90" />
      <note Length="1" Pitch="58" RiffPosition="13" Velocity="90" />
    </riff>
    <riff IsDrum="False" MidiInstrument="29" Tempo="99" Length="14">
      <note Length="0.0416666666666667" Pitch="58" RiffPosition="0" Velocity="0" />
      <note Length="0.0416666666666667" Pitch="53" RiffPosition="0.0416666666666667" Velocity="0" />
      <note Length="0.0104166666666667" Pitch="68" RiffPosition="0.0833333333333333" Velocity="0" />
      <note Length="0.0104166666666667" Pitch="70" RiffPosition="0.09375" Velocity="0" />
      <note Length="0.0104166666666667" Pitch="65" RiffPosition="0.104166666666667" Velocity="0" />
      <note Length="0.0104166666666667" Pitch="65" RiffPosition="0.114583333333333" Velocity="0" />
      <note Length="0.0104166666666667" Pitch="65" RiffPosition="0.125" Velocity="0" />
      <note Length="0.0104166666666667" Pitch="65" RiffPosition="0.135416666666667" Velocity="0" />
      <note Length="0.0104166666666667" Pitch="70" RiffPosition="0.145833333333333" Velocity="0" />
      <note Length="0.0104166666666667" Pitch="68" RiffPosition="0.15625" Velocity="0" />
      <note Length="0.0104166666666667" Pitch="65" RiffPosition="0.166666666666667" Velocity="0" />
      <note Length="0.0104166666666667" Pitch="53" RiffPosition="0.177083333333333" Velocity="0" />
      <note Length="0.0104166666666667" Pitch="53" RiffPosition="0.1875" Velocity="0" />
      <note Length="0.0104166666666667" Pitch="60" RiffPosition="0.197916666666667" Velocity="0" />
      <note Length="0.0208333333333333" Pitch="60" RiffPosition="0.208333333333333" Velocity="0" />
      <note Length="0.0104166666666667" Pitch="60" RiffPosition="0.229166666666667" Velocity="0" />
      <note Length="0.0104166666666667" Pitch="60" RiffPosition="0.239583333333333" Velocity="0" />
      <note Length="0.0104166666666667" Pitch="60" RiffPosition="0.25" Velocity="0" />
      <note Length="0.0104166666666667" Pitch="60" RiffPosition="0.260416666666667" Velocity="0" />
      <note Length="0.0104166666666667" Pitch="58" RiffPosition="0.270833333333333" Velocity="0" />
      <note Length="0.0104166666666667" Pitch="58" RiffPosition="0.28125" Velocity="0" />
      <note Length="0.0104166666666667" Pitch="58" RiffPosition="0.291666666666667" Velocity="0" />
      <note Length="0.0104166666666667" Pitch="60" RiffPosition="0.302083333333333" Velocity="0" />
      <note Length="0.0104166666666667" Pitch="53" RiffPosition="0.3125" Velocity="0" />
      <note Length="0.0104166666666667" Pitch="65" RiffPosition="0.322916666666667" Velocity="0" />
      <note Length="0.0104166666666667" Pitch="68" RiffPosition="0.333333333333333" Velocity="0" />
      <note Length="0.0104166666666667" Pitch="68" RiffPosition="0.34375" Velocity="0" />
      <note Length="0.0104166666666667" Pitch="72" RiffPosition="0.354166666666667" Velocity="0" />
      <note Length="0.0104166666666667" Pitch="65" RiffPosition="0.364583333333333" Velocity="0" />
      <note Length="0.0208333333333333" Pitch="65" RiffPosition="0.375" Velocity="0" />
      <note Length="0.0104166666666667" Pitch="72" RiffPosition="0.395833333333333" Velocity="0" />
      <note Length="0.0104166666666667" Pitch="70" RiffPosition="0.40625" Velocity="0" />
      <note Length="0.0104166666666667" Pitch="68" RiffPosition="0.416666666666667" Velocity="0" />
      <note Length="0.0104166666666667" Pitch="68" RiffPosition="0.427083333333333" Velocity="0" />
      <note Length="0.0104166666666667" Pitch="70" RiffPosition="0.4375" Velocity="0" />
      <note Length="0.0104166666666667" Pitch="68" RiffPosition="0.447916666666667" Velocity="0" />
      <note Length="0.0104166666666667" Pitch="70" RiffPosition="0.458333333333334" Velocity="0" />
      <note Length="0.0104166666666667" Pitch="68" RiffPosition="0.46875" Velocity="0" />
      <note Length="0.0104166666666667" Pitch="68" RiffPosition="0.479166666666667" Velocity="0" />
      <note Length="0.0104166666666667" Pitch="65" RiffPosition="0.489583333333334" Velocity="0" />
      <note Length="0.0208333333333333" Pitch="65" RiffPosition="0.5" Velocity="0" />
      <note Length="0.0208333333333333" Pitch="53" RiffPosition="0.520833333333334" Velocity="0" />
      <note Length="0.0208333333333333" Pitch="53" RiffPosition="0.541666666666667" Velocity="0" />
      <note Length="0.0625" Pitch="53" RiffPosition="0.5625" Velocity="0" />
      <note Length="0.01171875" Pitch="60" RiffPosition="0.625" Velocity="0" />
      <note Length="0.01171875" Pitch="60" RiffPosition="0.63671875" Velocity="0" />
      <note Length="0.0078125" Pitch="60" RiffPosition="0.6484375" Velocity="0" />
      <note Length="0.0078125" Pitch="60" RiffPosition="0.65625" Velocity="0" />
      <note Length="0.0078125" Pitch="60" RiffPosition="0.6640625" Velocity="0" />
      <note Length="0.0078125" Pitch="58" RiffPosition="0.671875" Velocity="0" />
      <note Length="0.0078125" Pitch="58" RiffPosition="0.6796875" Velocity="0" />
      <note Length="0.0104166666666667" Pitch="58" RiffPosition="0.6875" Velocity="0" />
      <note Length="0.0104166666666667" Pitch="58" RiffPosition="0.697916666666667" Velocity="0" />
      <note Length="0.0104166666666667" Pitch="60" RiffPosition="0.708333333333334" Velocity="0" />
      <note Length="0.03125" Pitch="61" RiffPosition="0.71875" Velocity="0" />
      <note Length="0.0104166666666667" Pitch="65" RiffPosition="0.75" Velocity="0" />
      <note Length="0.0104166666666667" Pitch="68" RiffPosition="0.760416666666667" Velocity="0" />
      <note Length="0.0104166666666667" Pitch="68" RiffPosition="0.770833333333333" Velocity="0" />
      <note Length="0.0104166666666667" Pitch="72" RiffPosition="0.78125" Velocity="0" />
      <note Length="0.0104166666666667" Pitch="65" RiffPosition="0.791666666666667" Velocity="0" />
      <note Length="0.0104166666666667" Pitch="65" RiffPosition="0.802083333333333" Velocity="0" />
      <note Length="0.0104166666666667" Pitch="65" RiffPosition="0.8125" Velocity="0" />
      <note Length="0.0104166666666667" Pitch="65" RiffPosition="0.822916666666667" Velocity="0" />
      <note Length="0.0104166666666667" Pitch="65" RiffPosition="0.833333333333333" Velocity="0" />
      <note Length="0.0104166666666667" Pitch="65" RiffPosition="0.84375" Velocity="0" />
      <note Length="0.0104166666666667" Pitch="65" RiffPosition="0.854166666666667" Velocity="0" />
      <note Length="0.0104166666666667" Pitch="65" RiffPosition="0.864583333333333" Velocity="0" />
      <note Length="0.0104166666666667" Pitch="65" RiffPosition="0.875" Velocity="0" />
      <note Length="0.0104166666666667" Pitch="70" RiffPosition="0.885416666666666" Velocity="0" />
      <note Length="0.0104166666666667" Pitch="68" RiffPosition="0.895833333333333" Velocity="0" />
      <note Length="0.0104166666666667" Pitch="65" RiffPosition="0.90625" Velocity="0" />
      <note Length="0.0104166666666667" Pitch="53" RiffPosition="0.916666666666666" Velocity="0" />
      <note Length="0.0104166666666667" Pitch="60" RiffPosition="0.927083333333333" Velocity="0" />
      <note Length="0.0104166666666667" Pitch="58" RiffPosition="0.9375" Velocity="0" />
      <note Length="0.0104166666666667" Pitch="55" RiffPosition="0.947916666666666" Velocity="0" />
      <note Length="0.0104166666666667" Pitch="55" RiffPosition="0.958333333333333" Velocity="0" />
      <note Length="0.0104166666666667" Pitch="56" RiffPosition="0.968749999999999" Velocity="0" />
      <note Length="0.0104166666666667" Pitch="58" RiffPosition="0.979166666666666" Velocity="0" />
      <note Length="0.0104166666666667" Pitch="58" RiffPosition="0.989583333333333" Velocity="0" />
      <note Length="0.0416666666666667" Pitch="60" RiffPosition="0.999999999999999" Velocity="0" />
      <note Length="0.0416666666666667" Pitch="53" RiffPosition="1,04166666666667" Velocity="0" />
      <note Length="0.0104166666666667" Pitch="70" RiffPosition="1,08333333333333" Velocity="0" />
      <note Length="0.0104166666666667" Pitch="70" RiffPosition="1,09375" Velocity="0" />
      <note Length="0.0104166666666667" Pitch="65" RiffPosition="1,10416666666667" Velocity="0" />
      <note Length="0.0104166666666667" Pitch="65" RiffPosition="1,11458333333333" Velocity="0" />
      <note Length="0.0104166666666667" Pitch="65" RiffPosition="1,125" Velocity="0" />
      <note Length="0.0104166666666667" Pitch="65" RiffPosition="1,13541666666667" Velocity="0" />
      <note Length="0.0104166666666667" Pitch="68" RiffPosition="1,14583333333333" Velocity="0" />
      <note Length="0.0104166666666667" Pitch="67" RiffPosition="1,15625" Velocity="0" />
      <note Length="0.0104166666666667" Pitch="53" RiffPosition="1,16666666666667" Velocity="0" />
      <note Length="0.0104166666666667" Pitch="53" RiffPosition="1,17708333333333" Velocity="0" />
      <note Length="0.0104166666666667" Pitch="53" RiffPosition="1,1875" Velocity="0" />
      <note Length="0.0104166666666667" Pitch="61" RiffPosition="1,19791666666667" Velocity="0" />
      <note Length="0.0208333333333333" Pitch="60" RiffPosition="1,20833333333333" Velocity="0" />
      <note Length="0.0104166666666667" Pitch="60" RiffPosition="1,22916666666667" Velocity="0" />
      <note Length="0.0104166666666667" Pitch="60" RiffPosition="1,23958333333333" Velocity="0" />
      <note Length="0.0104166666666667" Pitch="60" RiffPosition="1,25" Velocity="0" />
      <note Length="0.0104166666666667" Pitch="60" RiffPosition="1,26041666666667" Velocity="0" />
      <note Length="0.0104166666666667" Pitch="58" RiffPosition="1,27083333333333" Velocity="0" />
      <note Length="0.0104166666666667" Pitch="60" RiffPosition="1,28125" Velocity="0" />
      <note Length="0.0104166666666667" Pitch="58" RiffPosition="1,29166666666667" Velocity="0" />
      <note Length="0.0104166666666667" Pitch="61" RiffPosition="1,30208333333333" Velocity="0" />
      <note Length="0.0104166666666667" Pitch="53" RiffPosition="1,3125" Velocity="0" />
      <note Length="0.0104166666666667" Pitch="53" RiffPosition="1,32291666666667" Velocity="0" />
      <note Length="0.0104166666666667" Pitch="67" RiffPosition="1,33333333333333" Velocity="0" />
      <note Length="0.0104166666666667" Pitch="68" RiffPosition="1,34375" Velocity="0" />
      <note Length="0.0104166666666667" Pitch="70" RiffPosition="1,35416666666667" Velocity="0" />
      <note Length="0.0104166666666667" Pitch="72" RiffPosition="1,36458333333333" Velocity="0" />
      <note Length="0.0208333333333333" Pitch="72" RiffPosition="1,375" Velocity="0" />
      <note Length="0.0104166666666667" Pitch="72" RiffPosition="1,39583333333333" Velocity="0" />
      <note Length="0.0104166666666667" Pitch="72" RiffPosition="1,40625" Velocity="0" />
      <note Length="0.0104166666666667" Pitch="70" RiffPosition="1,41666666666667" Velocity="0" />
      <note Length="0.0104166666666667" Pitch="70" RiffPosition="1,42708333333333" Velocity="0" />
      <note Length="0.0104166666666667" Pitch="68" RiffPosition="1,4375" Velocity="0" />
      <note Length="0.0104166666666667" Pitch="68" RiffPosition="1,44791666666667" Velocity="0" />
      <note Length="0.0104166666666667" Pitch="70" RiffPosition="1,45833333333334" Velocity="0" />
      <note Length="0.0104166666666667" Pitch="68" RiffPosition="1,46875" Velocity="0" />
      <note Length="0.0104166666666667" Pitch="67" RiffPosition="1,47916666666667" Velocity="0" />
      <note Length="0.0104166666666667" Pitch="67" RiffPosition="1,48958333333334" Velocity="0" />
      <note Length="0.0208333333333333" Pitch="65" RiffPosition="1,5" Velocity="0" />
      <note Length="0.0208333333333333" Pitch="53" RiffPosition="1,52083333333334" Velocity="0" />
      <note Length="0.0208333333333333" Pitch="53" RiffPosition="1,54166666666667" Velocity="0" />
      <note Length="0.0625" Pitch="53" RiffPosition="1,5625" Velocity="0" />
      <note Length="0.01171875" Pitch="60" RiffPosition="1,625" Velocity="0" />
      <note Length="0.01171875" Pitch="60" RiffPosition="1,63671875" Velocity="0" />
      <note Length="0.0078125" Pitch="60" RiffPosition="1,6484375" Velocity="0" />
      <note Length="0.0078125" Pitch="60" RiffPosition="1,65625" Velocity="0" />
      <note Length="0.0078125" Pitch="60" RiffPosition="1,6640625" Velocity="0" />
      <note Length="0.0078125" Pitch="58" RiffPosition="1,671875" Velocity="0" />
      <note Length="0.0078125" Pitch="58" RiffPosition="1,6796875" Velocity="0" />
      <note Length="0.0104166666666667" Pitch="58" RiffPosition="1,6875" Velocity="0" />
      <note Length="0.0104166666666667" Pitch="58" RiffPosition="1,69791666666667" Velocity="0" />
      <note Length="0.0104166666666667" Pitch="61" RiffPosition="1,70833333333334" Velocity="0" />
      <note Length="0.03125" Pitch="61" RiffPosition="1,71875" Velocity="0" />
      <note Length="0.0104166666666667" Pitch="65" RiffPosition="1,75" Velocity="0" />
      <note Length="0.0104166666666667" Pitch="68" RiffPosition="1,76041666666667" Velocity="0" />
      <note Length="0.0104166666666667" Pitch="68" RiffPosition="1,77083333333334" Velocity="0" />
      <note Length="0.0104166666666667" Pitch="70" RiffPosition="1,78125" Velocity="0" />
      <note Length="0.0104166666666667" Pitch="72" RiffPosition="1,79166666666667" Velocity="0" />
      <note Length="0.0104166666666667" Pitch="65" RiffPosition="1,80208333333334" Velocity="0" />
      <note Length="0.0104166666666667" Pitch="65" RiffPosition="1,8125" Velocity="0" />
      <note Length="0.0104166666666667" Pitch="65" RiffPosition="1,82291666666667" Velocity="0" />
      <note Length="0.0104166666666667" Pitch="65" RiffPosition="1,83333333333334" Velocity="0" />
      <note Length="0.0104166666666667" Pitch="65" RiffPosition="1,84375" Velocity="0" />
      <note Length="0.0104166666666667" Pitch="65" RiffPosition="1,85416666666667" Velocity="0" />
      <note Length="0.0104166666666667" Pitch="65" RiffPosition="1,86458333333334" Velocity="0" />
      <note Length="0.0104166666666667" Pitch="65" RiffPosition="1,875" Velocity="0" />
      <note Length="0.0104166666666667" Pitch="70" RiffPosition="1,88541666666667" Velocity="0" />
      <note Length="0.0104166666666667" Pitch="67" RiffPosition="1,89583333333334" Velocity="0" />
      <note Length="0.0104166666666667" Pitch="65" RiffPosition="1,90625" Velocity="0" />
      <note Length="0.0104166666666667" Pitch="53" RiffPosition="1,91666666666667" Velocity="0" />
      <note Length="0.0104166666666667" Pitch="61" RiffPosition="1,92708333333334" Velocity="0" />
      <note Length="0.0104166666666667" Pitch="60" RiffPosition="1,9375" Velocity="0" />
      <note Length="0.0104166666666667" Pitch="56" RiffPosition="1,94791666666667" Velocity="0" />
      <note Length="0.0104166666666667" Pitch="55" RiffPosition="1,95833333333334" Velocity="0" />
      <note Length="0.0104166666666667" Pitch="55" RiffPosition="1,96875" Velocity="0" />
      <note Length="0.0104166666666667" Pitch="58" RiffPosition="1,97916666666667" Velocity="0" />
      <note Length="0.0104166666666667" Pitch="58" RiffPosition="1,98958333333334" Velocity="0" />
      <note Length="0.0416666666666667" Pitch="58" RiffPosition="2" Velocity="0" />
      <note Length="0.0416666666666667" Pitch="53" RiffPosition="2.04166666666667" Velocity="0" />
      <note Length="0.0104166666666667" Pitch="70" RiffPosition="2.08333333333334" Velocity="0" />
      <note Length="0.0104166666666667" Pitch="70" RiffPosition="2.09375" Velocity="0" />
      <note Length="0.0104166666666667" Pitch="65" RiffPosition="2.10416666666667" Velocity="0" />
      <note Length="0.0104166666666667" Pitch="65" RiffPosition="2.11458333333334" Velocity="0" />
      <note Length="0.0104166666666667" Pitch="65" RiffPosition="2.125" Velocity="0" />
      <note Length="0.0104166666666667" Pitch="65" RiffPosition="2.13541666666667" Velocity="0" />
      <note Length="0.0104166666666667" Pitch="70" RiffPosition="2.14583333333334" Velocity="0" />
      <note Length="0.0104166666666667" Pitch="68" RiffPosition="2.15625" Velocity="0" />
      <note Length="0.0104166666666667" Pitch="65" RiffPosition="2.16666666666667" Velocity="0" />
      <note Length="0.0104166666666667" Pitch="53" RiffPosition="2.17708333333334" Velocity="0" />
      <note Length="0.0104166666666667" Pitch="53" RiffPosition="2.1875" Velocity="0" />
      <note Length="0.0104166666666667" Pitch="60" RiffPosition="2.19791666666667" Velocity="0" />
      <note Length="0.0208333333333333" Pitch="60" RiffPosition="2.20833333333333" Velocity="0" />
      <note Length="0.0104166666666667" Pitch="60" RiffPosition="2.22916666666667" Velocity="0" />
      <note Length="0.0104166666666667" Pitch="60" RiffPosition="2.23958333333333" Velocity="0" />
      <note Length="0.0104166666666667" Pitch="60" RiffPosition="2.25" Velocity="0" />
      <note Length="0.0104166666666667" Pitch="60" RiffPosition="2.26041666666667" Velocity="0" />
      <note Length="0.0104166666666667" Pitch="58" RiffPosition="2.27083333333333" Velocity="0" />
      <note Length="0.0104166666666667" Pitch="60" RiffPosition="2.28125" Velocity="0" />
      <note Length="0.0104166666666667" Pitch="58" RiffPosition="2.29166666666667" Velocity="0" />
      <note Length="0.0104166666666667" Pitch="60" RiffPosition="2.30208333333333" Velocity="0" />
      <note Length="0.0104166666666667" Pitch="53" RiffPosition="2.3125" Velocity="0" />
      <note Length="0.0104166666666667" Pitch="53" RiffPosition="2.32291666666667" Velocity="0" />
      <note Length="0.0104166666666667" Pitch="67" RiffPosition="2.33333333333333" Velocity="0" />
      <note Length="0.0104166666666667" Pitch="70" RiffPosition="2.34375" Velocity="0" />
      <note Length="0.0104166666666667" Pitch="72" RiffPosition="2.35416666666667" Velocity="0" />
      <note Length="0.0104166666666667" Pitch="65" RiffPosition="2.36458333333333" Velocity="0" />
      <note Length="0.0208333333333333" Pitch="65" RiffPosition="2.375" Velocity="0" />
      <note Length="0.0104166666666667" Pitch="72" RiffPosition="2.39583333333333" Velocity="0" />
      <note Length="0.0104166666666667" Pitch="70" RiffPosition="2.40625" Velocity="0" />
      <note Length="0.0104166666666667" Pitch="70" RiffPosition="2.41666666666667" Velocity="0" />
      <note Length="0.0104166666666667" Pitch="68" RiffPosition="2.42708333333333" Velocity="0" />
      <note Length="0.0104166666666667" Pitch="68" RiffPosition="2.4375" Velocity="0" />
      <note Length="0.0104166666666667" Pitch="68" RiffPosition="2.44791666666667" Velocity="0" />
      <note Length="0.0104166666666667" Pitch="70" RiffPosition="2.45833333333333" Velocity="0" />
      <note Length="0.0104166666666667" Pitch="68" RiffPosition="2.46875" Velocity="0" />
      <note Length="0.0104166666666667" Pitch="68" RiffPosition="2.47916666666667" Velocity="0" />
      <note Length="0.0104166666666667" Pitch="65" RiffPosition="2.48958333333333" Velocity="0" />
      <note Length="0.0208333333333333" Pitch="65" RiffPosition="2.5" Velocity="0" />
      <note Length="0.0208333333333333" Pitch="53" RiffPosition="2.52083333333333" Velocity="0" />
      <note Length="0.0208333333333333" Pitch="53" RiffPosition="2.54166666666667" Velocity="0" />
      <note Length="0.0625" Pitch="53" RiffPosition="2.5625" Velocity="0" />
      <note Length="0.01171875" Pitch="60" RiffPosition="2.625" Velocity="0" />
      <note Length="0.01171875" Pitch="60" RiffPosition="2.63671875" Velocity="0" />
      <note Length="0.0078125" Pitch="60" RiffPosition="2.6484375" Velocity="0" />
      <note Length="0.0078125" Pitch="58" RiffPosition="2.65625" Velocity="0" />
      <note Length="0.0078125" Pitch="60" RiffPosition="2.6640625" Velocity="0" />
      <note Length="0.0078125" Pitch="58" RiffPosition="2.671875" Velocity="0" />
      <note Length="0.0078125" Pitch="58" RiffPosition="2.6796875" Velocity="0" />
      <note Length="0.0104166666666667" Pitch="58" RiffPosition="2.6875" Velocity="0" />
      <note Length="0.0104166666666667" Pitch="58" RiffPosition="2.69791666666667" Velocity="0" />
      <note Length="0.0104166666666667" Pitch="60" RiffPosition="2.70833333333333" Velocity="0" />
      <note Length="0.03125" Pitch="61" RiffPosition="2.71875" Velocity="0" />
      <note Length="0.0104166666666667" Pitch="65" RiffPosition="2.75" Velocity="0" />
      <note Length="0.0104166666666667" Pitch="67" RiffPosition="2.76041666666666" Velocity="0" />
      <note Length="0.0104166666666667" Pitch="68" RiffPosition="2.77083333333333" Velocity="0" />
      <note Length="0.0104166666666667" Pitch="72" RiffPosition="2.78125" Velocity="0" />
      <note Length="0.0104166666666667" Pitch="65" RiffPosition="2.79166666666666" Velocity="0" />
      <note Length="0.0104166666666667" Pitch="65" RiffPosition="2.80208333333333" Velocity="0" />
      <note Length="0.0104166666666667" Pitch="65" RiffPosition="2.8125" Velocity="0" />
      <note Length="0.0104166666666667" Pitch="65" RiffPosition="2.82291666666666" Velocity="0" />
      <note Length="0.0104166666666667" Pitch="65" RiffPosition="2.83333333333333" Velocity="0" />
      <note Length="0.0104166666666667" Pitch="65" RiffPosition="2.84375" Velocity="0" />
      <note Length="0.0104166666666667" Pitch="65" RiffPosition="2.85416666666666" Velocity="0" />
      <note Length="0.0104166666666667" Pitch="65" RiffPosition="2.86458333333333" Velocity="0" />
      <note Length="0.0104166666666667" Pitch="65" RiffPosition="2.875" Velocity="0" />
      <note Length="0.0104166666666667" Pitch="72" RiffPosition="2.88541666666666" Velocity="0" />
      <note Length="0.0104166666666667" Pitch="68" RiffPosition="2.89583333333333" Velocity="0" />
      <note Length="0.0104166666666667" Pitch="65" RiffPosition="2.90625" Velocity="0" />
      <note Length="0.0104166666666667" Pitch="53" RiffPosition="2.91666666666666" Velocity="0" />
      <note Length="0.0104166666666667" Pitch="61" RiffPosition="2.92708333333333" Velocity="0" />
      <note Length="0.0104166666666667" Pitch="58" RiffPosition="2.9375" Velocity="0" />
      <note Length="0.0104166666666667" Pitch="56" RiffPosition="2.94791666666666" Velocity="0" />
      <note Length="0.0104166666666667" Pitch="55" RiffPosition="2.95833333333333" Velocity="0" />
      <note Length="0.0104166666666667" Pitch="55" RiffPosition="2.96875" Velocity="0" />
      <note Length="0.0104166666666667" Pitch="58" RiffPosition="2.97916666666666" Velocity="0" />
      <note Length="0.0104166666666667" Pitch="58" RiffPosition="2.98958333333333" Velocity="0" />
      <note Length="0.0416666666666667" Pitch="60" RiffPosition="2.99999999999999" Velocity="0" />
      <note Length="0.0416666666666667" Pitch="53" RiffPosition="3.04166666666666" Velocity="0" />
      <note Length="0.0104166666666667" Pitch="70" RiffPosition="3.08333333333333" Velocity="0" />
      <note Length="0.0104166666666667" Pitch="70" RiffPosition="3.09374999999999" Velocity="0" />
      <note Length="0.0104166666666667" Pitch="65" RiffPosition="3.10416666666666" Velocity="0" />
      <note Length="0.0104166666666667" Pitch="65" RiffPosition="3.11458333333333" Velocity="0" />
      <note Length="0.0104166666666667" Pitch="65" RiffPosition="3.12499999999999" Velocity="0" />
      <note Length="0.0104166666666667" Pitch="65" RiffPosition="3.13541666666666" Velocity="0" />
      <note Length="0.0104166666666667" Pitch="70" RiffPosition="3.14583333333333" Velocity="0" />
      <note Length="0.0104166666666667" Pitch="68" RiffPosition="3.15624999999999" Velocity="0" />
      <note Length="0.0104166666666667" Pitch="53" RiffPosition="3.16666666666666" Velocity="0" />
      <note Length="0.0104166666666667" Pitch="53" RiffPosition="3.17708333333333" Velocity="0" />
      <note Length="0.0104166666666667" Pitch="53" RiffPosition="3.18749999999999" Velocity="0" />
      <note Length="0.0104166666666667" Pitch="61" RiffPosition="3.19791666666666" Velocity="0" />
      <note Length="0.0208333333333333" Pitch="60" RiffPosition="3.20833333333333" Velocity="0" />
      <note Length="0.0104166666666667" Pitch="60" RiffPosition="3.22916666666666" Velocity="0" />
      <note Length="0.0104166666666667" Pitch="60" RiffPosition="3.23958333333333" Velocity="0" />
      <note Length="0.0104166666666667" Pitch="60" RiffPosition="3.24999999999999" Velocity="0" />
      <note Length="0.0104166666666667" Pitch="60" RiffPosition="3.26041666666666" Velocity="0" />
      <note Length="0.0104166666666667" Pitch="58" RiffPosition="3.27083333333333" Velocity="0" />
      <note Length="0.0104166666666667" Pitch="58" RiffPosition="3.28124999999999" Velocity="0" />
      <note Length="0.0104166666666667" Pitch="58" RiffPosition="3.29166666666666" Velocity="0" />
      <note Length="0.0104166666666667" Pitch="61" RiffPosition="3.30208333333333" Velocity="0" />
      <note Length="0.0104166666666667" Pitch="53" RiffPosition="3.31249999999999" Velocity="0" />
      <note Length="0.0104166666666667" Pitch="53" RiffPosition="3.32291666666666" Velocity="0" />
      <note Length="0.0104166666666667" Pitch="67" RiffPosition="3.33333333333332" Velocity="0" />
      <note Length="0.0104166666666667" Pitch="68" RiffPosition="3.34374999999999" Velocity="0" />
      <note Length="0.0104166666666667" Pitch="70" RiffPosition="3.35416666666666" Velocity="0" />
      <note Length="0.0104166666666667" Pitch="72" RiffPosition="3.36458333333332" Velocity="0" />
      <note Length="0.0208333333333333" Pitch="65" RiffPosition="3.37499999999999" Velocity="0" />
      <note Length="0.0104166666666667" Pitch="70" RiffPosition="3.39583333333332" Velocity="0" />
      <note Length="0.0104166666666667" Pitch="72" RiffPosition="3.40624999999999" Velocity="0" />
      <note Length="0.0104166666666667" Pitch="70" RiffPosition="3.41666666666666" Velocity="0" />
      <note Length="0.0104166666666667" Pitch="70" RiffPosition="3.42708333333332" Velocity="0" />
      <note Length="0.0104166666666667" Pitch="68" RiffPosition="3.43749999999999" Velocity="0" />
      <note Length="0.0104166666666667" Pitch="68" RiffPosition="3.44791666666666" Velocity="0" />
      <note Length="0.0104166666666667" Pitch="70" RiffPosition="3.45833333333332" Velocity="0" />
      <note Length="0.0104166666666667" Pitch="68" RiffPosition="3.46874999999999" Velocity="0" />
      <note Length="0.0104166666666667" Pitch="67" RiffPosition="3.47916666666666" Velocity="0" />
      <note Length="0.0104166666666667" Pitch="65" RiffPosition="3.48958333333332" Velocity="0" />
      <note Length="0.0208333333333333" Pitch="65" RiffPosition="3.49999999999999" Velocity="0" />
      <note Length="0.0208333333333333" Pitch="53" RiffPosition="3.52083333333332" Velocity="0" />
      <note Length="0.0208333333333333" Pitch="53" RiffPosition="3.54166666666666" Velocity="0" />
      <note Length="0.0625" Pitch="53" RiffPosition="3.56249999999999" Velocity="0" />
      <note Length="0.01171875" Pitch="60" RiffPosition="3.62499999999999" Velocity="0" />
      <note Length="0.01171875" Pitch="61" RiffPosition="3.63671874999999" Velocity="0" />
      <note Length="0.0078125" Pitch="60" RiffPosition="3.64843749999999" Velocity="0" />
      <note Length="0.0078125" Pitch="60" RiffPosition="3.65624999999999" Velocity="0" />
      <note Length="0.0078125" Pitch="60" RiffPosition="3.66406249999999" Velocity="0" />
      <note Length="0.0078125" Pitch="58" RiffPosition="3.67187499999999" Velocity="0" />
      <note Length="0.0078125" Pitch="58" RiffPosition="3.67968749999999" Velocity="0" />
      <note Length="0.0104166666666667" Pitch="58" RiffPosition="3.68749999999999" Velocity="0" />
      <note Length="0.0104166666666667" Pitch="58" RiffPosition="3.69791666666666" Velocity="0" />
      <note Length="0.0104166666666667" Pitch="60" RiffPosition="3.70833333333332" Velocity="0" />
      <note Length="0.03125" Pitch="53" RiffPosition="3.71874999999999" Velocity="0" />
      <note Length="0.0104166666666667" Pitch="65" RiffPosition="3.74999999999999" Velocity="0" />
      <note Length="0.0104166666666667" Pitch="68" RiffPosition="3.76041666666666" Velocity="0" />
      <note Length="0.0104166666666667" Pitch="68" RiffPosition="3.77083333333332" Velocity="0" />
      <note Length="0.0104166666666667" Pitch="70" RiffPosition="3.78124999999999" Velocity="0" />
      <note Length="0.0104166666666667" Pitch="72" RiffPosition="3.79166666666666" Velocity="0" />
      <note Length="0.0104166666666667" Pitch="65" RiffPosition="3.80208333333332" Velocity="0" />
      <note Length="0.0104166666666667" Pitch="65" RiffPosition="3.81249999999999" Velocity="0" />
      <note Length="0.0104166666666667" Pitch="65" RiffPosition="3.82291666666666" Velocity="0" />
      <note Length="0.0104166666666667" Pitch="65" RiffPosition="3.83333333333332" Velocity="0" />
      <note Length="0.0104166666666667" Pitch="65" RiffPosition="3.84374999999999" Velocity="0" />
      <note Length="0.0104166666666667" Pitch="65" RiffPosition="3.85416666666665" Velocity="0" />
      <note Length="0.0104166666666667" Pitch="65" RiffPosition="3.86458333333332" Velocity="0" />
      <note Length="0.0104166666666667" Pitch="65" RiffPosition="3.87499999999999" Velocity="0" />
      <note Length="0.0104166666666667" Pitch="70" RiffPosition="3.88541666666665" Velocity="0" />
      <note Length="0.0104166666666667" Pitch="68" RiffPosition="3.89583333333332" Velocity="0" />
      <note Length="0.0104166666666667" Pitch="65" RiffPosition="3.90624999999999" Velocity="0" />
      <note Length="0.0104166666666667" Pitch="53" RiffPosition="3.91666666666665" Velocity="0" />
      <note Length="0.0104166666666667" Pitch="60" RiffPosition="3.92708333333332" Velocity="0" />
      <note Length="0.0104166666666667" Pitch="60" RiffPosition="3.93749999999999" Velocity="0" />
      <note Length="0.0104166666666667" Pitch="56" RiffPosition="3.94791666666665" Velocity="0" />
      <note Length="0.0104166666666667" Pitch="55" RiffPosition="3.95833333333332" Velocity="0" />
      <note Length="0.0104166666666667" Pitch="55" RiffPosition="3.96874999999999" Velocity="0" />
      <note Length="0.0104166666666667" Pitch="58" RiffPosition="3.97916666666665" Velocity="0" />
      <note Length="0.0104166666666667" Pitch="58" RiffPosition="3.98958333333332" Velocity="0" />
      <note Length="0.0416666666666667" Pitch="58" RiffPosition="3.99999999999999" Velocity="0" />
      <note Length="0.0416666666666667" Pitch="53" RiffPosition="4.04166666666665" Velocity="0" />
      <note Length="0.0104166666666667" Pitch="70" RiffPosition="4.08333333333332" Velocity="0" />
      <note Length="0.0104166666666667" Pitch="70" RiffPosition="4.09374999999999" Velocity="0" />
      <note Length="0.0104166666666667" Pitch="65" RiffPosition="4.10416666666665" Velocity="0" />
      <note Length="0.0104166666666667" Pitch="65" RiffPosition="4.11458333333332" Velocity="0" />
      <note Length="0.0104166666666667" Pitch="65" RiffPosition="4.12499999999999" Velocity="0" />
      <note Length="0.0104166666666667" Pitch="72" RiffPosition="4.13541666666665" Velocity="0" />
      <note Length="0.0104166666666667" Pitch="70" RiffPosition="4.14583333333332" Velocity="0" />
      <note Length="0.0104166666666667" Pitch="68" RiffPosition="4.15624999999999" Velocity="0" />
      <note Length="0.0104166666666667" Pitch="65" RiffPosition="4.16666666666666" Velocity="0" />
      <note Length="0.0104166666666667" Pitch="53" RiffPosition="4.17708333333332" Velocity="0" />
      <note Length="0.0104166666666667" Pitch="53" RiffPosition="4.18749999999999" Velocity="0" />
      <note Length="0.0104166666666667" Pitch="60" RiffPosition="4.19791666666666" Velocity="0" />
      <note Length="0.0208333333333333" Pitch="60" RiffPosition="4.20833333333332" Velocity="0" />
      <note Length="0.0104166666666667" Pitch="60" RiffPosition="4.22916666666666" Velocity="0" />
      <note Length="0.0104166666666667" Pitch="58" RiffPosition="4.23958333333332" Velocity="0" />
      <note Length="0.0104166666666667" Pitch="60" RiffPosition="4.24999999999999" Velocity="0" />
      <note Length="0.0104166666666667" Pitch="60" RiffPosition="4.26041666666666" Velocity="0" />
      <note Length="0.0104166666666667" Pitch="58" RiffPosition="4.27083333333332" Velocity="0" />
      <note Length="0.0104166666666667" Pitch="60" RiffPosition="4.28124999999999" Velocity="0" />
      <note Length="0.0104166666666667" Pitch="58" RiffPosition="4.29166666666666" Velocity="0" />
      <note Length="0.0104166666666667" Pitch="61" RiffPosition="4.30208333333333" Velocity="0" />
      <note Length="0.0104166666666667" Pitch="53" RiffPosition="4.31249999999999" Velocity="0" />
      <note Length="0.0104166666666667" Pitch="53" RiffPosition="4.32291666666666" Velocity="0" />
      <note Length="0.0104166666666667" Pitch="67" RiffPosition="4.33333333333333" Velocity="0" />
      <note Length="0.0104166666666667" Pitch="68" RiffPosition="4.34374999999999" Velocity="0" />
      <note Length="0.0104166666666667" Pitch="70" RiffPosition="4.35416666666666" Velocity="0" />
      <note Length="0.0104166666666667" Pitch="65" RiffPosition="4.36458333333333" Velocity="0" />
      <note Length="0.0208333333333333" Pitch="65" RiffPosition="4.37499999999999" Velocity="0" />
      <note Length="0.0104166666666667" Pitch="72" RiffPosition="4.39583333333333" Velocity="0" />
      <note Length="0.0104166666666667" Pitch="72" RiffPosition="4.40624999999999" Velocity="0" />
      <note Length="0.0104166666666667" Pitch="70" RiffPosition="4.41666666666666" Velocity="0" />
      <note Length="0.0104166666666667" Pitch="68" RiffPosition="4.42708333333333" Velocity="0" />
      <note Length="0.0104166666666667" Pitch="68" RiffPosition="4.43749999999999" Velocity="0" />
      <note Length="0.0104166666666667" Pitch="68" RiffPosition="4.44791666666666" Velocity="0" />
      <note Length="0.0104166666666667" Pitch="68" RiffPosition="4.45833333333333" Velocity="0" />
      <note Length="0.0104166666666667" Pitch="68" RiffPosition="4.46875" Velocity="0" />
      <note Length="0.0104166666666667" Pitch="68" RiffPosition="4.47916666666666" Velocity="0" />
      <note Length="0.0104166666666667" Pitch="67" RiffPosition="4.48958333333333" Velocity="0" />
      <note Length="0.0208333333333333" Pitch="65" RiffPosition="4.5" Velocity="0" />
      <note Length="0.0208333333333333" Pitch="53" RiffPosition="4.52083333333333" Velocity="0" />
      <note Length="0.0208333333333333" Pitch="53" RiffPosition="4.54166666666666" Velocity="0" />
      <note Length="0.0625" Pitch="53" RiffPosition="4.5625" Velocity="0" />
      <note Length="0.01171875" Pitch="60" RiffPosition="4.625" Velocity="0" />
      <note Length="0.01171875" Pitch="60" RiffPosition="4.63671875" Velocity="0" />
      <note Length="0.0078125" Pitch="60" RiffPosition="4.6484375" Velocity="0" />
      <note Length="0.0078125" Pitch="60" RiffPosition="4.65625" Velocity="0" />
      <note Length="0.0078125" Pitch="60" RiffPosition="4.6640625" Velocity="0" />
      <note Length="0.0078125" Pitch="58" RiffPosition="4.671875" Velocity="0" />
      <note Length="0.0078125" Pitch="58" RiffPosition="4.6796875" Velocity="0" />
      <note Length="0.0104166666666667" Pitch="58" RiffPosition="4.6875" Velocity="0" />
      <note Length="0.0104166666666667" Pitch="60" RiffPosition="4.69791666666666" Velocity="0" />
      <note Length="0.0104166666666667" Pitch="60" RiffPosition="4.70833333333333" Velocity="0" />
      <note Length="0.03125" Pitch="61" RiffPosition="4.71875" Velocity="0" />
      <note Length="0.0104166666666667" Pitch="65" RiffPosition="4.75" Velocity="0" />
      <note Length="0.0104166666666667" Pitch="67" RiffPosition="4.76041666666666" Velocity="0" />
      <note Length="0.0104166666666667" Pitch="68" RiffPosition="4.77083333333333" Velocity="0" />
      <note Length="0.0104166666666667" Pitch="72" RiffPosition="4.78125" Velocity="0" />
      <note Length="0.0104166666666667" Pitch="65" RiffPosition="4.79166666666666" Velocity="0" />
      <note Length="0.0104166666666667" Pitch="65" RiffPosition="4.80208333333333" Velocity="0" />
      <note Length="0.0104166666666667" Pitch="65" RiffPosition="4.8125" Velocity="0" />
      <note Length="0.0104166666666667" Pitch="65" RiffPosition="4.82291666666667" Velocity="0" />
      <note Length="0.0104166666666667" Pitch="65" RiffPosition="4.83333333333333" Velocity="0" />
      <note Length="0.0104166666666667" Pitch="65" RiffPosition="4.84375" Velocity="0" />
      <note Length="0.0104166666666667" Pitch="65" RiffPosition="4.85416666666667" Velocity="0" />
      <note Length="0.0104166666666667" Pitch="65" RiffPosition="4.86458333333333" Velocity="0" />
      <note Length="0.0104166666666667" Pitch="72" RiffPosition="4.875" Velocity="0" />
      <note Length="0.0104166666666667" Pitch="72" RiffPosition="4.88541666666667" Velocity="0" />
      <note Length="0.0104166666666667" Pitch="68" RiffPosition="4.89583333333333" Velocity="0" />
      <note Length="0.0104166666666667" Pitch="65" RiffPosition="4.90625" Velocity="0" />
      <note Length="0.0104166666666667" Pitch="53" RiffPosition="4.91666666666667" Velocity="0" />
      <note Length="0.0104166666666667" Pitch="61" RiffPosition="4.92708333333333" Velocity="0" />
      <note Length="0.0104166666666667" Pitch="58" RiffPosition="4.9375" Velocity="0" />
      <note Length="0.0104166666666667" Pitch="56" RiffPosition="4.94791666666667" Velocity="0" />
      <note Length="0.0104166666666667" Pitch="55" RiffPosition="4.95833333333334" Velocity="0" />
      <note Length="0.0104166666666667" Pitch="55" RiffPosition="4.96875" Velocity="0" />
      <note Length="0.0104166666666667" Pitch="56" RiffPosition="4.97916666666667" Velocity="0" />
      <note Length="0.0104166666666667" Pitch="58" RiffPosition="4.98958333333334" Velocity="0" />
      <note Length="0.0416666666666667" Pitch="60" RiffPosition="5" Velocity="0" />
      <note Length="0.0416666666666667" Pitch="53" RiffPosition="5.04166666666667" Velocity="0" />
      <note Length="0.0104166666666667" Pitch="68" RiffPosition="5.08333333333334" Velocity="0" />
      <note Length="0.0104166666666667" Pitch="70" RiffPosition="5.09375" Velocity="0" />
      <note Length="0.0104166666666667" Pitch="65" RiffPosition="5.10416666666667" Velocity="0" />
      <note Length="0.0104166666666667" Pitch="65" RiffPosition="5.11458333333334" Velocity="0" />
      <note Length="0.0104166666666667" Pitch="65" RiffPosition="5.12500000000001" Velocity="0" />
      <note Length="0.0104166666666667" Pitch="65" RiffPosition="5.13541666666667" Velocity="0" />
      <note Length="0.0104166666666667" Pitch="70" RiffPosition="5.14583333333334" Velocity="0" />
      <note Length="0.0104166666666667" Pitch="68" RiffPosition="5.15625000000001" Velocity="0" />
      <note Length="0.0104166666666667" Pitch="53" RiffPosition="5.16666666666667" Velocity="0" />
      <note Length="0.0104166666666667" Pitch="53" RiffPosition="5.17708333333334" Velocity="0" />
      <note Length="0.0104166666666667" Pitch="61" RiffPosition="5.18750000000001" Velocity="0" />
      <note Length="0.0104166666666667" Pitch="60" RiffPosition="5.19791666666667" Velocity="0" />
      <note Length="0.0208333333333333" Pitch="61" RiffPosition="5.20833333333334" Velocity="0" />
      <note Length="0.0104166666666667" Pitch="60" RiffPosition="5.22916666666667" Velocity="0" />
      <note Length="0.0104166666666667" Pitch="60" RiffPosition="5.23958333333334" Velocity="0" />
      <note Length="0.0104166666666667" Pitch="60" RiffPosition="5.25000000000001" Velocity="0" />
      <note Length="0.0104166666666667" Pitch="60" RiffPosition="5.26041666666668" Velocity="0" />
      <note Length="0.0104166666666667" Pitch="58" RiffPosition="5.27083333333334" Velocity="0" />
      <note Length="0.0104166666666667" Pitch="58" RiffPosition="5.28125000000001" Velocity="0" />
      <note Length="0.0104166666666667" Pitch="58" RiffPosition="5.29166666666668" Velocity="0" />
      <note Length="0.0104166666666667" Pitch="60" RiffPosition="5.30208333333334" Velocity="0" />
      <note Length="0.0104166666666667" Pitch="53" RiffPosition="5.31250000000001" Velocity="0" />
      <note Length="0.0104166666666667" Pitch="65" RiffPosition="5.32291666666668" Velocity="0" />
      <note Length="0.0104166666666667" Pitch="68" RiffPosition="5.33333333333334" Velocity="0" />
      <note Length="0.0104166666666667" Pitch="68" RiffPosition="5.34375000000001" Velocity="0" />
      <note Length="0.0104166666666667" Pitch="72" RiffPosition="5.35416666666668" Velocity="0" />
      <note Length="0.0104166666666667" Pitch="72" RiffPosition="5.36458333333334" Velocity="0" />
      <note Length="0.0208333333333333" Pitch="65" RiffPosition="5.37500000000001" Velocity="0" />
      <note Length="0.0104166666666667" Pitch="70" RiffPosition="5.39583333333334" Velocity="0" />
      <note Length="0.0104166666666667" Pitch="70" RiffPosition="5.40625000000001" Velocity="0" />
      <note Length="0.0104166666666667" Pitch="70" RiffPosition="5.41666666666668" Velocity="0" />
      <note Length="0.0104166666666667" Pitch="70" RiffPosition="5.42708333333335" Velocity="0" />
      <note Length="0.0104166666666667" Pitch="68" RiffPosition="5.43750000000001" Velocity="0" />
      <note Length="0.0104166666666667" Pitch="68" RiffPosition="5.44791666666668" Velocity="0" />
      <note Length="0.0104166666666667" Pitch="70" RiffPosition="5.45833333333335" Velocity="0" />
      <note Length="0.0104166666666667" Pitch="68" RiffPosition="5.46875000000001" Velocity="0" />
      <note Length="0.0104166666666667" Pitch="68" RiffPosition="5.47916666666668" Velocity="0" />
      <note Length="0.0104166666666667" Pitch="65" RiffPosition="5.48958333333335" Velocity="0" />
      <note Length="0.0208333333333333" Pitch="65" RiffPosition="5.50000000000001" Velocity="0" />
      <note Length="0.0208333333333333" Pitch="53" RiffPosition="5.52083333333335" Velocity="0" />
      <note Length="0.0208333333333333" Pitch="53" RiffPosition="5.54166666666668" Velocity="0" />
      <note Length="0.0625" Pitch="53" RiffPosition="5.56250000000001" Velocity="0" />
      <note Length="0.01171875" Pitch="60" RiffPosition="5.62500000000001" Velocity="0" />
      <note Length="0.01171875" Pitch="61" RiffPosition="5.63671875000001" Velocity="0" />
      <note Length="0.0078125" Pitch="60" RiffPosition="5.64843750000001" Velocity="0" />
      <note Length="0.0078125" Pitch="60" RiffPosition="5.65625000000001" Velocity="0" />
      <note Length="0.0078125" Pitch="60" RiffPosition="5.66406250000001" Velocity="0" />
      <note Length="0.0078125" Pitch="58" RiffPosition="5.67187500000001" Velocity="0" />
      <note Length="0.0078125" Pitch="58" RiffPosition="5.67968750000001" Velocity="0" />
      <note Length="0.0104166666666667" Pitch="58" RiffPosition="5.68750000000001" Velocity="0" />
      <note Length="0.0104166666666667" Pitch="58" RiffPosition="5.69791666666668" Velocity="0" />
      <note Length="0.0104166666666667" Pitch="60" RiffPosition="5.70833333333335" Velocity="0" />
      <note Length="0.03125" Pitch="61" RiffPosition="5.71875000000001" Velocity="0" />
      <note Length="0.0104166666666667" Pitch="65" RiffPosition="5.75000000000001" Velocity="0" />
      <note Length="0.0104166666666667" Pitch="68" RiffPosition="5.76041666666668" Velocity="0" />
      <note Length="0.0104166666666667" Pitch="68" RiffPosition="5.77083333333335" Velocity="0" />
      <note Length="0.0104166666666667" Pitch="70" RiffPosition="5.78125000000002" Velocity="0" />
      <note Length="0.0104166666666667" Pitch="65" RiffPosition="5.79166666666668" Velocity="0" />
      <note Length="0.0104166666666667" Pitch="65" RiffPosition="5.80208333333335" Velocity="0" />
      <note Length="0.0104166666666667" Pitch="65" RiffPosition="5.81250000000002" Velocity="0" />
      <note Length="0.0104166666666667" Pitch="65" RiffPosition="5.82291666666668" Velocity="0" />
      <note Length="0.0104166666666667" Pitch="65" RiffPosition="5.83333333333335" Velocity="0" />
      <note Length="0.0104166666666667" Pitch="65" RiffPosition="5.84375000000002" Velocity="0" />
      <note Length="0.0104166666666667" Pitch="65" RiffPosition="5.85416666666668" Velocity="0" />
      <note Length="0.0104166666666667" Pitch="65" RiffPosition="5.86458333333335" Velocity="0" />
      <note Length="0.0104166666666667" Pitch="65" RiffPosition="5.87500000000002" Velocity="0" />
      <note Length="0.0104166666666667" Pitch="70" RiffPosition="5.88541666666668" Velocity="0" />
      <note Length="0.0104166666666667" Pitch="68" RiffPosition="5.89583333333335" Velocity="0" />
      <note Length="0.0104166666666667" Pitch="65" RiffPosition="5.90625000000002" Velocity="0" />
      <note Length="0.0104166666666667" Pitch="53" RiffPosition="5.91666666666669" Velocity="0" />
      <note Length="0.0104166666666667" Pitch="60" RiffPosition="5.92708333333335" Velocity="0" />
      <note Length="0.0104166666666667" Pitch="58" RiffPosition="5.93750000000002" Velocity="0" />
      <note Length="0.0104166666666667" Pitch="58" RiffPosition="5.94791666666669" Velocity="0" />
      <note Length="0.0104166666666667" Pitch="56" RiffPosition="5.95833333333335" Velocity="0" />
      <note Length="0.0104166666666667" Pitch="56" RiffPosition="5.96875000000002" Velocity="0" />
      <note Length="0.0104166666666667" Pitch="58" RiffPosition="5.97916666666669" Velocity="0" />
      <note Length="0.0104166666666667" Pitch="58" RiffPosition="5.98958333333335" Velocity="0" />
      <note Length="0.0416666666666667" Pitch="60" RiffPosition="6.00000000000002" Velocity="0" />
      <note Length="0.0416666666666667" Pitch="53" RiffPosition="6.04166666666669" Velocity="0" />
      <note Length="0.0104166666666667" Pitch="70" RiffPosition="6.08333333333336" Velocity="0" />
      <note Length="0.0104166666666667" Pitch="70" RiffPosition="6.09375000000002" Velocity="0" />
      <note Length="0.0104166666666667" Pitch="65" RiffPosition="6.10416666666669" Velocity="0" />
      <note Length="0.0104166666666667" Pitch="65" RiffPosition="6.11458333333336" Velocity="0" />
      <note Length="0.0104166666666667" Pitch="65" RiffPosition="6.12500000000002" Velocity="0" />
      <note Length="0.0104166666666667" Pitch="65" RiffPosition="6.13541666666669" Velocity="0" />
      <note Length="0.0104166666666667" Pitch="68" RiffPosition="6.14583333333336" Velocity="0" />
      <note Length="0.0104166666666667" Pitch="67" RiffPosition="6.15625000000002" Velocity="0" />
      <note Length="0.0104166666666667" Pitch="65" RiffPosition="6.16666666666669" Velocity="0" />
      <note Length="0.0104166666666667" Pitch="53" RiffPosition="6.17708333333336" Velocity="0" />
      <note Length="0.0104166666666667" Pitch="53" RiffPosition="6.18750000000002" Velocity="0" />
      <note Length="0.0104166666666667" Pitch="60" RiffPosition="6.19791666666669" Velocity="0" />
      <note Length="0.0208333333333333" Pitch="60" RiffPosition="6.20833333333336" Velocity="0" />
      <note Length="0.0104166666666667" Pitch="60" RiffPosition="6.22916666666669" Velocity="0" />
      <note Length="0.0104166666666667" Pitch="60" RiffPosition="6.23958333333336" Velocity="0" />
      <note Length="0.0104166666666667" Pitch="58" RiffPosition="6.25000000000003" Velocity="0" />
      <note Length="0.0104166666666667" Pitch="58" RiffPosition="6.26041666666669" Velocity="0" />
      <note Length="0.0104166666666667" Pitch="60" RiffPosition="6.27083333333336" Velocity="0" />
      <note Length="0.0104166666666667" Pitch="60" RiffPosition="6.28125000000003" Velocity="0" />
      <note Length="0.0104166666666667" Pitch="58" RiffPosition="6.29166666666669" Velocity="0" />
      <note Length="0.0104166666666667" Pitch="61" RiffPosition="6.30208333333336" Velocity="0" />
      <note Length="0.0104166666666667" Pitch="53" RiffPosition="6.31250000000003" Velocity="0" />
      <note Length="0.0104166666666667" Pitch="53" RiffPosition="6.32291666666669" Velocity="0" />
      <note Length="0.0104166666666667" Pitch="67" RiffPosition="6.33333333333336" Velocity="0" />
      <note Length="0.0104166666666667" Pitch="68" RiffPosition="6.34375000000003" Velocity="0" />
      <note Length="0.0104166666666667" Pitch="70" RiffPosition="6.3541666666667" Velocity="0" />
      <note Length="0.0104166666666667" Pitch="72" RiffPosition="6.36458333333336" Velocity="0" />
      <note Length="0.0208333333333333" Pitch="65" RiffPosition="6.37500000000003" Velocity="0" />
      <note Length="0.0104166666666667" Pitch="72" RiffPosition="6.39583333333336" Velocity="0" />
      <note Length="0.0104166666666667" Pitch="72" RiffPosition="6.40625000000003" Velocity="0" />
      <note Length="0.0104166666666667" Pitch="70" RiffPosition="6.4166666666667" Velocity="0" />
      <note Length="0.0104166666666667" Pitch="68" RiffPosition="6.42708333333336" Velocity="0" />
      <note Length="0.0104166666666667" Pitch="68" RiffPosition="6.43750000000003" Velocity="0" />
      <note Length="0.0104166666666667" Pitch="68" RiffPosition="6.4479166666667" Velocity="0" />
      <note Length="0.0104166666666667" Pitch="68" RiffPosition="6.45833333333336" Velocity="0" />
      <note Length="0.0104166666666667" Pitch="67" RiffPosition="6.46875000000003" Velocity="0" />
      <note Length="0.0104166666666667" Pitch="68" RiffPosition="6.4791666666667" Velocity="0" />
      <note Length="0.0104166666666667" Pitch="67" RiffPosition="6.48958333333337" Velocity="0" />
      <note Length="0.0208333333333333" Pitch="65" RiffPosition="6.50000000000003" Velocity="0" />
      <note Length="0.0208333333333333" Pitch="53" RiffPosition="6.52083333333337" Velocity="0" />
      <note Length="0.0208333333333333" Pitch="53" RiffPosition="6.5416666666667" Velocity="0" />
      <note Length="0.0625" Pitch="53" RiffPosition="6.56250000000003" Velocity="0" />
      <note Length="0.01171875" Pitch="60" RiffPosition="6.62500000000003" Velocity="0" />
      <note Length="0.01171875" Pitch="60" RiffPosition="6.63671875000003" Velocity="0" />
      <note Length="0.0078125" Pitch="60" RiffPosition="6.64843750000003" Velocity="0" />
      <note Length="0.0078125" Pitch="60" RiffPosition="6.65625000000003" Velocity="0" />
      <note Length="0.0078125" Pitch="60" RiffPosition="6.66406250000003" Velocity="0" />
      <note Length="0.0078125" Pitch="58" RiffPosition="6.67187500000003" Velocity="0" />
      <note Length="0.0078125" Pitch="58" RiffPosition="6.67968750000003" Velocity="0" />
      <note Length="0.0104166666666667" Pitch="58" RiffPosition="6.68750000000003" Velocity="0" />
      <note Length="0.0104166666666667" Pitch="60" RiffPosition="6.6979166666667" Velocity="0" />
      <note Length="0.0104166666666667" Pitch="61" RiffPosition="6.70833333333337" Velocity="0" />
      <note Length="0.03125" Pitch="61" RiffPosition="6.71875000000003" Velocity="0" />
      <note Length="0.0104166666666667" Pitch="65" RiffPosition="6.75000000000003" Velocity="0" />
      <note Length="0.0104166666666667" Pitch="68" RiffPosition="6.7604166666667" Velocity="0" />
      <note Length="0.0104166666666667" Pitch="68" RiffPosition="6.77083333333337" Velocity="0" />
      <note Length="0.0104166666666667" Pitch="70" RiffPosition="6.78125000000003" Velocity="0" />
      <note Length="0.0104166666666667" Pitch="72" RiffPosition="6.7916666666667" Velocity="0" />
      <note Length="0.0104166666666667" Pitch="65" RiffPosition="6.80208333333337" Velocity="0" />
      <note Length="0.0104166666666667" Pitch="65" RiffPosition="6.81250000000003" Velocity="0" />
      <note Length="0.0104166666666667" Pitch="65" RiffPosition="6.8229166666667" Velocity="0" />
      <note Length="0.0104166666666667" Pitch="65" RiffPosition="6.83333333333337" Velocity="0" />
      <note Length="0.0104166666666667" Pitch="65" RiffPosition="6.84375000000003" Velocity="0" />
      <note Length="0.0104166666666667" Pitch="65" RiffPosition="6.8541666666667" Velocity="0" />
      <note Length="0.0104166666666667" Pitch="65" RiffPosition="6.86458333333337" Velocity="0" />
      <note Length="0.0104166666666667" Pitch="65" RiffPosition="6.87500000000004" Velocity="0" />
      <note Length="0.0104166666666667" Pitch="70" RiffPosition="6.8854166666667" Velocity="0" />
      <note Length="0.0104166666666667" Pitch="67" RiffPosition="6.89583333333337" Velocity="0" />
      <note Length="0.0104166666666667" Pitch="65" RiffPosition="6.90625000000004" Velocity="0" />
      <note Length="0.0104166666666667" Pitch="53" RiffPosition="6.9166666666667" Velocity="0" />
      <note Length="0.0104166666666667" Pitch="61" RiffPosition="6.92708333333337" Velocity="0" />
      <note Length="0.0104166666666667" Pitch="58" RiffPosition="6.93750000000004" Velocity="0" />
      <note Length="0.0104166666666667" Pitch="56" RiffPosition="6.9479166666667" Velocity="0" />
      <note Length="0.0104166666666667" Pitch="55" RiffPosition="6.95833333333337" Velocity="0" />
      <note Length="0.0104166666666667" Pitch="55" RiffPosition="6.96875000000004" Velocity="0" />
      <note Length="0.0104166666666667" Pitch="58" RiffPosition="6.97916666666671" Velocity="0" />
      <note Length="0.0104166666666667" Pitch="58" RiffPosition="6.98958333333337" Velocity="0" />
      <note Length="0.0416666666666667" Pitch="58" RiffPosition="7.00000000000004" Velocity="0" />
      <note Length="0.0416666666666667" Pitch="53" RiffPosition="7.04166666666671" Velocity="0" />
      <note Length="0.0104166666666667" Pitch="68" RiffPosition="7.08333333333337" Velocity="0" />
      <note Length="0.0104166666666667" Pitch="70" RiffPosition="7.09375000000004" Velocity="0" />
      <note Length="0.0104166666666667" Pitch="65" RiffPosition="7.10416666666671" Velocity="0" />
      <note Length="0.0104166666666667" Pitch="65" RiffPosition="7.11458333333337" Velocity="0" />
      <note Length="0.0104166666666667" Pitch="65" RiffPosition="7.12500000000004" Velocity="0" />
      <note Length="0.0104166666666667" Pitch="65" RiffPosition="7.13541666666671" Velocity="0" />
      <note Length="0.0104166666666667" Pitch="70" RiffPosition="7.14583333333337" Velocity="0" />
      <note Length="0.0104166666666667" Pitch="68" RiffPosition="7.15625000000004" Velocity="0" />
      <note Length="0.0104166666666667" Pitch="65" RiffPosition="7.16666666666671" Velocity="0" />
      <note Length="0.0104166666666667" Pitch="53" RiffPosition="7.17708333333338" Velocity="0" />
      <note Length="0.0104166666666667" Pitch="53" RiffPosition="7.18750000000004" Velocity="0" />
      <note Length="0.0104166666666667" Pitch="60" RiffPosition="7.19791666666671" Velocity="0" />
      <note Length="0.0208333333333333" Pitch="60" RiffPosition="7.20833333333338" Velocity="0" />
      <note Length="0.0104166666666667" Pitch="60" RiffPosition="7.22916666666671" Velocity="0" />
      <note Length="0.0104166666666667" Pitch="60" RiffPosition="7.23958333333338" Velocity="0" />
      <note Length="0.0104166666666667" Pitch="60" RiffPosition="7.25000000000004" Velocity="0" />
      <note Length="0.0104166666666667" Pitch="60" RiffPosition="7.26041666666671" Velocity="0" />
      <note Length="0.0104166666666667" Pitch="58" RiffPosition="7.27083333333338" Velocity="0" />
      <note Length="0.0104166666666667" Pitch="60" RiffPosition="7.28125000000004" Velocity="0" />
      <note Length="0.0104166666666667" Pitch="58" RiffPosition="7.29166666666671" Velocity="0" />
      <note Length="0.0104166666666667" Pitch="60" RiffPosition="7.30208333333338" Velocity="0" />
      <note Length="0.0104166666666667" Pitch="53" RiffPosition="7.31250000000005" Velocity="0" />
      <note Length="0.0104166666666667" Pitch="53" RiffPosition="7.32291666666671" Velocity="0" />
      <note Length="0.0104166666666667" Pitch="68" RiffPosition="7.33333333333338" Velocity="0" />
      <note Length="0.0104166666666667" Pitch="68" RiffPosition="7.34375000000005" Velocity="0" />
      <note Length="0.0104166666666667" Pitch="72" RiffPosition="7.35416666666671" Velocity="0" />
      <note Length="0.0104166666666667" Pitch="65" RiffPosition="7.36458333333338" Velocity="0" />
      <note Length="0.0208333333333333" Pitch="65" RiffPosition="7.37500000000005" Velocity="0" />
      <note Length="0.0104166666666667" Pitch="72" RiffPosition="7.39583333333338" Velocity="0" />
      <note Length="0.0104166666666667" Pitch="70" RiffPosition="7.40625000000005" Velocity="0" />
      <note Length="0.0104166666666667" Pitch="68" RiffPosition="7.41666666666671" Velocity="0" />
      <note Length="0.0104166666666667" Pitch="68" RiffPosition="7.42708333333338" Velocity="0" />
      <note Length="0.0104166666666667" Pitch="70" RiffPosition="7.43750000000005" Velocity="0" />
      <note Length="0.0104166666666667" Pitch="68" RiffPosition="7.44791666666671" Velocity="0" />
      <note Length="0.0104166666666667" Pitch="70" RiffPosition="7.45833333333338" Velocity="0" />
      <note Length="0.0104166666666667" Pitch="68" RiffPosition="7.46875000000005" Velocity="0" />
      <note Length="0.0104166666666667" Pitch="68" RiffPosition="7.47916666666672" Velocity="0" />
      <note Length="0.0104166666666667" Pitch="65" RiffPosition="7.48958333333338" Velocity="0" />
      <note Length="0.0208333333333333" Pitch="65" RiffPosition="7.50000000000005" Velocity="0" />
      <note Length="0.0208333333333333" Pitch="53" RiffPosition="7.52083333333338" Velocity="0" />
      <note Length="0.0208333333333333" Pitch="53" RiffPosition="7.54166666666672" Velocity="0" />
      <note Length="0.0625" Pitch="53" RiffPosition="7.56250000000005" Velocity="0" />
      <note Length="0.01171875" Pitch="60" RiffPosition="7.62500000000005" Velocity="0" />
      <note Length="0.01171875" Pitch="60" RiffPosition="7.63671875000005" Velocity="0" />
      <note Length="0.0078125" Pitch="60" RiffPosition="7.64843750000005" Velocity="0" />
      <note Length="0.0078125" Pitch="60" RiffPosition="7.65625000000005" Velocity="0" />
      <note Length="0.0078125" Pitch="60" RiffPosition="7.66406250000005" Velocity="0" />
      <note Length="0.0078125" Pitch="58" RiffPosition="7.67187500000005" Velocity="0" />
      <note Length="0.0078125" Pitch="58" RiffPosition="7.67968750000005" Velocity="0" />
      <note Length="0.0104166666666667" Pitch="58" RiffPosition="7.68750000000005" Velocity="0" />
      <note Length="0.0104166666666667" Pitch="58" RiffPosition="7.69791666666672" Velocity="0" />
      <note Length="0.0104166666666667" Pitch="60" RiffPosition="7.70833333333338" Velocity="0" />
      <note Length="0.03125" Pitch="61" RiffPosition="7.71875000000005" Velocity="0" />
      <note Length="0.0104166666666667" Pitch="65" RiffPosition="7.75000000000005" Velocity="0" />
      <note Length="0.0104166666666667" Pitch="68" RiffPosition="7.76041666666672" Velocity="0" />
      <note Length="0.0104166666666667" Pitch="68" RiffPosition="7.77083333333338" Velocity="0" />
      <note Length="0.0104166666666667" Pitch="72" RiffPosition="7.78125000000005" Velocity="0" />
      <note Length="0.0104166666666667" Pitch="65" RiffPosition="7.79166666666672" Velocity="0" />
      <note Length="0.0104166666666667" Pitch="65" RiffPosition="7.80208333333338" Velocity="0" />
      <note Length="0.0104166666666667" Pitch="65" RiffPosition="7.81250000000005" Velocity="0" />
      <note Length="0.0104166666666667" Pitch="65" RiffPosition="7.82291666666672" Velocity="0" />
      <note Length="0.0104166666666667" Pitch="65" RiffPosition="7.83333333333339" Velocity="0" />
      <note Length="0.0104166666666667" Pitch="65" RiffPosition="7.84375000000005" Velocity="0" />
      <note Length="0.0104166666666667" Pitch="65" RiffPosition="7.85416666666672" Velocity="0" />
      <note Length="0.0104166666666667" Pitch="65" RiffPosition="7.86458333333339" Velocity="0" />
      <note Length="0.0104166666666667" Pitch="65" RiffPosition="7.87500000000005" Velocity="0" />
      <note Length="0.0104166666666667" Pitch="70" RiffPosition="7.88541666666672" Velocity="0" />
      <note Length="0.0104166666666667" Pitch="68" RiffPosition="7.89583333333339" Velocity="0" />
      <note Length="0.0104166666666667" Pitch="65" RiffPosition="7.90625000000005" Velocity="0" />
      <note Length="0.0104166666666667" Pitch="53" RiffPosition="7.91666666666672" Velocity="0" />
      <note Length="0.0104166666666667" Pitch="60" RiffPosition="7.92708333333339" Velocity="0" />
      <note Length="0.0104166666666667" Pitch="58" RiffPosition="7.93750000000006" Velocity="0" />
      <note Length="0.0104166666666667" Pitch="55" RiffPosition="7.94791666666672" Velocity="0" />
      <note Length="0.0104166666666667" Pitch="55" RiffPosition="7.95833333333339" Velocity="0" />
      <note Length="0.0104166666666667" Pitch="56" RiffPosition="7.96875000000006" Velocity="0" />
      <note Length="0.0104166666666667" Pitch="58" RiffPosition="7.97916666666672" Velocity="0" />
      <note Length="0.0104166666666667" Pitch="58" RiffPosition="7.98958333333339" Velocity="0" />
      <note Length="0.0416666666666667" Pitch="60" RiffPosition="8.00000000000006" Velocity="102" />
      <note Length="0.0416666666666667" Pitch="53" RiffPosition="8.04166666666672" Velocity="75" />
      <note Length="0.0104166666666667" Pitch="70" RiffPosition="8.08333333333339" Velocity="42" />
      <note Length="0.0104166666666667" Pitch="70" RiffPosition="8.09375000000006" Velocity="35" />
      <note Length="0.0104166666666667" Pitch="65" RiffPosition="8.10416666666672" Velocity="42" />
      <note Length="0.0104166666666667" Pitch="65" RiffPosition="8.11458333333339" Velocity="55" />
      <note Length="0.0104166666666667" Pitch="65" RiffPosition="8.12500000000005" Velocity="35" />
      <note Length="0.0104166666666667" Pitch="65" RiffPosition="8.13541666666672" Velocity="35" />
      <note Length="0.0104166666666667" Pitch="70" RiffPosition="8.14583333333339" Velocity="35" />
      <note Length="0.0104166666666667" Pitch="67" RiffPosition="8.15625000000005" Velocity="62" />
      <note Length="0.0104166666666667" Pitch="53" RiffPosition="8.16666666666672" Velocity="62" />
      <note Length="0.0104166666666667" Pitch="53" RiffPosition="8.17708333333338" Velocity="110" />
      <note Length="0.0104166666666667" Pitch="53" RiffPosition="8.18750000000005" Velocity="110" />
      <note Length="0.0104166666666667" Pitch="61" RiffPosition="8.19791666666672" Velocity="110" />
      <note Length="0.0208333333333333" Pitch="60" RiffPosition="8.20833333333338" Velocity="90" />
      <note Length="0.0104166666666667" Pitch="60" RiffPosition="8.22916666666672" Velocity="63" />
      <note Length="0.0104166666666667" Pitch="60" RiffPosition="8.23958333333338" Velocity="36" />
      <note Length="0.0104166666666667" Pitch="60" RiffPosition="8.25000000000005" Velocity="54" />
      <note Length="0.0104166666666667" Pitch="60" RiffPosition="8.26041666666671" Velocity="54" />
      <note Length="0.0104166666666667" Pitch="58" RiffPosition="8.27083333333338" Velocity="54" />
      <note Length="0.0104166666666667" Pitch="60" RiffPosition="8.28125000000005" Velocity="43" />
      <note Length="0.0104166666666667" Pitch="58" RiffPosition="8.29166666666671" Velocity="43" />
      <note Length="0.0104166666666667" Pitch="61" RiffPosition="8.30208333333338" Velocity="71" />
      <note Length="0.0104166666666667" Pitch="53" RiffPosition="8.31250000000004" Velocity="70" />
      <note Length="0.0104166666666667" Pitch="53" RiffPosition="8.32291666666671" Velocity="63" />
      <note Length="0.0104166666666667" Pitch="67" RiffPosition="8.33333333333338" Velocity="82" />
      <note Length="0.0104166666666667" Pitch="68" RiffPosition="8.34375000000004" Velocity="35" />
      <note Length="0.0104166666666667" Pitch="70" RiffPosition="8.35416666666671" Velocity="35" />
      <note Length="0.0104166666666667" Pitch="72" RiffPosition="8.36458333333337" Velocity="63" />
      <note Length="0.0208333333333333" Pitch="72" RiffPosition="8.37500000000004" Velocity="43" />
      <note Length="0.0104166666666667" Pitch="72" RiffPosition="8.39583333333337" Velocity="43" />
      <note Length="0.0104166666666667" Pitch="72" RiffPosition="8.40625000000004" Velocity="54" />
      <note Length="0.0104166666666667" Pitch="70" RiffPosition="8.41666666666671" Velocity="54" />
      <note Length="0.0104166666666667" Pitch="70" RiffPosition="8.42708333333337" Velocity="62" />
      <note Length="0.0104166666666667" Pitch="68" RiffPosition="8.43750000000004" Velocity="54" />
      <note Length="0.0104166666666667" Pitch="68" RiffPosition="8.44791666666671" Velocity="54" />
      <note Length="0.0104166666666667" Pitch="70" RiffPosition="8.45833333333337" Velocity="35" />
      <note Length="0.0104166666666667" Pitch="68" RiffPosition="8.46875000000004" Velocity="63" />
      <note Length="0.0104166666666667" Pitch="67" RiffPosition="8.4791666666667" Velocity="63" />
      <note Length="0.0104166666666667" Pitch="65" RiffPosition="8.48958333333337" Velocity="90" />
      <note Length="0.0208333333333333" Pitch="65" RiffPosition="8.50000000000004" Velocity="110" />
      <note Length="0.0208333333333333" Pitch="53" RiffPosition="8.52083333333337" Velocity="109" />
      <note Length="0.0208333333333333" Pitch="53" RiffPosition="8.5416666666667" Velocity="82" />
      <note Length="0.0625" Pitch="53" RiffPosition="8.56250000000004" Velocity="54" />
      <note Length="0.01171875" Pitch="60" RiffPosition="8.62500000000004" Velocity="50" />
      <note Length="0.01171875" Pitch="60" RiffPosition="8.63671875000004" Velocity="50" />
      <note Length="0.0078125" Pitch="60" RiffPosition="8.64843750000004" Velocity="50" />
      <note Length="0.0078125" Pitch="60" RiffPosition="8.65625000000004" Velocity="55" />
      <note Length="0.0078125" Pitch="60" RiffPosition="8.66406250000004" Velocity="55" />
      <note Length="0.0078125" Pitch="58" RiffPosition="8.67187500000004" Velocity="54" />
      <note Length="0.0078125" Pitch="58" RiffPosition="8.67968750000004" Velocity="102" />
      <note Length="0.0104166666666667" Pitch="58" RiffPosition="8.68750000000004" Velocity="102" />
      <note Length="0.0104166666666667" Pitch="58" RiffPosition="8.6979166666667" Velocity="102" />
      <note Length="0.0104166666666667" Pitch="61" RiffPosition="8.70833333333337" Velocity="82" />
      <note Length="0.03125" Pitch="61" RiffPosition="8.71875000000004" Velocity="55" />
      <note Length="0.0104166666666667" Pitch="65" RiffPosition="8.75000000000004" Velocity="63" />
      <note Length="0.0104166666666667" Pitch="68" RiffPosition="8.7604166666667" Velocity="63" />
      <note Length="0.0104166666666667" Pitch="68" RiffPosition="8.77083333333337" Velocity="55" />
      <note Length="0.0104166666666667" Pitch="70" RiffPosition="8.78125000000003" Velocity="43" />
      <note Length="0.0104166666666667" Pitch="72" RiffPosition="8.7916666666667" Velocity="43" />
      <note Length="0.0104166666666667" Pitch="65" RiffPosition="8.80208333333337" Velocity="70" />
      <note Length="0.0104166666666667" Pitch="65" RiffPosition="8.81250000000003" Velocity="70" />
      <note Length="0.0104166666666667" Pitch="65" RiffPosition="8.8229166666667" Velocity="70" />
      <note Length="0.0104166666666667" Pitch="65" RiffPosition="8.83333333333336" Velocity="90" />
      <note Length="0.0104166666666667" Pitch="65" RiffPosition="8.84375000000003" Velocity="43" />
      <note Length="0.0104166666666667" Pitch="65" RiffPosition="8.8541666666667" Velocity="43" />
      <note Length="0.0104166666666667" Pitch="65" RiffPosition="8.86458333333336" Velocity="54" />
      <note Length="0.0104166666666667" Pitch="65" RiffPosition="8.87500000000003" Velocity="35" />
      <note Length="0.0104166666666667" Pitch="70" RiffPosition="8.88541666666669" Velocity="35" />
      <note Length="0.0104166666666667" Pitch="67" RiffPosition="8.89583333333336" Velocity="35" />
      <note Length="0.0104166666666667" Pitch="65" RiffPosition="8.90625000000003" Velocity="63" />
      <note Length="0.0104166666666667" Pitch="53" RiffPosition="8.91666666666669" Velocity="63" />
      <note Length="0.0104166666666667" Pitch="61" RiffPosition="8.92708333333336" Velocity="70" />
      <note Length="0.0104166666666667" Pitch="60" RiffPosition="8.93750000000002" Velocity="70" />
      <note Length="0.0104166666666667" Pitch="56" RiffPosition="8.94791666666669" Velocity="70" />
      <note Length="0.0104166666666667" Pitch="55" RiffPosition="8.95833333333336" Velocity="50" />
      <note Length="0.0104166666666667" Pitch="55" RiffPosition="8.96875000000002" Velocity="47" />
      <note Length="0.0104166666666667" Pitch="58" RiffPosition="8.97916666666669" Velocity="47" />
      <note Length="0.0104166666666667" Pitch="58" RiffPosition="8.98958333333336" Velocity="82" />
      <note Length="0.0416666666666667" Pitch="58" RiffPosition="9.00000000000002" Velocity="102" />
      <note Length="0.0416666666666667" Pitch="53" RiffPosition="9.04166666666669" Velocity="75" />
      <note Length="0.0104166666666667" Pitch="70" RiffPosition="9.08333333333335" Velocity="42" />
      <note Length="0.0104166666666667" Pitch="70" RiffPosition="9.09375000000002" Velocity="35" />
      <note Length="0.0104166666666667" Pitch="65" RiffPosition="9.10416666666669" Velocity="43" />
      <note Length="0.0104166666666667" Pitch="65" RiffPosition="9.11458333333335" Velocity="70" />
      <note Length="0.0104166666666667" Pitch="65" RiffPosition="9.12500000000002" Velocity="51" />
      <note Length="0.0104166666666667" Pitch="65" RiffPosition="9.13541666666668" Velocity="51" />
      <note Length="0.0104166666666667" Pitch="70" RiffPosition="9.14583333333335" Velocity="51" />
      <note Length="0.0104166666666667" Pitch="68" RiffPosition="9.15625000000002" Velocity="47" />
      <note Length="0.0104166666666667" Pitch="65" RiffPosition="9.16666666666668" Velocity="47" />
      <note Length="0.0104166666666667" Pitch="53" RiffPosition="9.17708333333335" Velocity="95" />
      <note Length="0.0104166666666667" Pitch="53" RiffPosition="9.18750000000001" Velocity="95" />
      <note Length="0.0104166666666667" Pitch="60" RiffPosition="9.19791666666668" Velocity="95" />
      <note Length="0.0208333333333333" Pitch="60" RiffPosition="9.20833333333335" Velocity="75" />
      <note Length="0.0104166666666667" Pitch="60" RiffPosition="9.22916666666668" Velocity="48" />
      <note Length="0.0104166666666667" Pitch="60" RiffPosition="9.23958333333335" Velocity="50" />
      <note Length="0.0104166666666667" Pitch="60" RiffPosition="9.25000000000001" Velocity="69" />
      <note Length="0.0104166666666667" Pitch="60" RiffPosition="9.26041666666668" Velocity="69" />
      <note Length="0.0104166666666667" Pitch="58" RiffPosition="9.27083333333334" Velocity="69" />
      <note Length="0.0104166666666667" Pitch="60" RiffPosition="9.28125000000001" Velocity="42" />
      <note Length="0.0104166666666667" Pitch="58" RiffPosition="9.29166666666668" Velocity="42" />
      <note Length="0.0104166666666667" Pitch="60" RiffPosition="9.30208333333334" Velocity="55" />
      <note Length="0.0104166666666667" Pitch="53" RiffPosition="9.31250000000001" Velocity="55" />
      <note Length="0.0104166666666667" Pitch="53" RiffPosition="9.32291666666668" Velocity="63" />
      <note Length="0.0104166666666667" Pitch="67" RiffPosition="9.33333333333334" Velocity="82" />
      <note Length="0.0104166666666667" Pitch="70" RiffPosition="9.34375000000001" Velocity="35" />
      <note Length="0.0104166666666667" Pitch="72" RiffPosition="9.35416666666667" Velocity="35" />
      <note Length="0.0104166666666667" Pitch="65" RiffPosition="9.36458333333334" Velocity="63" />
      <note Length="0.0208333333333333" Pitch="65" RiffPosition="9.37500000000001" Velocity="43" />
      <note Length="0.0104166666666667" Pitch="72" RiffPosition="9.39583333333334" Velocity="43" />
      <note Length="0.0104166666666667" Pitch="70" RiffPosition="9.40625000000001" Velocity="54" />
      <note Length="0.0104166666666667" Pitch="70" RiffPosition="9.41666666666667" Velocity="54" />
      <note Length="0.0104166666666667" Pitch="68" RiffPosition="9.42708333333334" Velocity="62" />
      <note Length="0.0104166666666667" Pitch="68" RiffPosition="9.4375" Velocity="69" />
      <note Length="0.0104166666666667" Pitch="68" RiffPosition="9.44791666666667" Velocity="70" />
      <note Length="0.0104166666666667" Pitch="70" RiffPosition="9.45833333333334" Velocity="50" />
      <note Length="0.0104166666666667" Pitch="68" RiffPosition="9.46875" Velocity="47" />
      <note Length="0.0104166666666667" Pitch="68" RiffPosition="9.47916666666667" Velocity="47" />
      <note Length="0.0104166666666667" Pitch="67" RiffPosition="9.48958333333333" Velocity="75" />
      <note Length="0.0208333333333333" Pitch="65" RiffPosition="9.5" Velocity="94" />
      <note Length="0.0208333333333333" Pitch="53" RiffPosition="9.52083333333333" Velocity="94" />
      <note Length="0.0208333333333333" Pitch="53" RiffPosition="9.54166666666667" Velocity="67" />
      <note Length="0.0625" Pitch="53" RiffPosition="9.5625" Velocity="39" />
      <note Length="0.01171875" Pitch="60" RiffPosition="9.625" Velocity="35" />
      <note Length="0.01171875" Pitch="60" RiffPosition="9.63671875" Velocity="35" />
      <note Length="0.0078125" Pitch="60" RiffPosition="9.6484375" Velocity="35" />
      <note Length="0.0078125" Pitch="60" RiffPosition="9.65625" Velocity="55" />
      <note Length="0.0078125" Pitch="60" RiffPosition="9.6640625" Velocity="55" />
      <note Length="0.0078125" Pitch="58" RiffPosition="9.671875" Velocity="54" />
      <note Length="0.0078125" Pitch="58" RiffPosition="9.6796875" Velocity="102" />
      <note Length="0.0104166666666667" Pitch="58" RiffPosition="9.6875" Velocity="102" />
      <note Length="0.0104166666666667" Pitch="58" RiffPosition="9.69791666666667" Velocity="102" />
      <note Length="0.0104166666666667" Pitch="60" RiffPosition="9.70833333333333" Velocity="82" />
      <note Length="0.03125" Pitch="61" RiffPosition="9.71875" Velocity="55" />
      <note Length="0.0104166666666667" Pitch="65" RiffPosition="9.75" Velocity="63" />
      <note Length="0.0104166666666667" Pitch="67" RiffPosition="9.76041666666667" Velocity="63" />
      <note Length="0.0104166666666667" Pitch="70" RiffPosition="9.77083333333333" Velocity="70" />
      <note Length="0.0104166666666667" Pitch="72" RiffPosition="9.78125" Velocity="43" />
      <note Length="0.0104166666666667" Pitch="65" RiffPosition="9.79166666666666" Velocity="43" />
      <note Length="0.0104166666666667" Pitch="65" RiffPosition="9.80208333333333" Velocity="55" />
      <note Length="0.0104166666666667" Pitch="65" RiffPosition="9.8125" Velocity="55" />
      <note Length="0.0104166666666667" Pitch="65" RiffPosition="9.82291666666666" Velocity="55" />
      <note Length="0.0104166666666667" Pitch="65" RiffPosition="9.83333333333333" Velocity="75" />
      <note Length="0.0104166666666667" Pitch="65" RiffPosition="9.84374999999999" Velocity="42" />
      <note Length="0.0104166666666667" Pitch="65" RiffPosition="9.85416666666666" Velocity="42" />
      <note Length="0.0104166666666667" Pitch="65" RiffPosition="9.86458333333333" Velocity="70" />
      <note Length="0.0104166666666667" Pitch="65" RiffPosition="9.87499999999999" Velocity="50" />
      <note Length="0.0104166666666667" Pitch="72" RiffPosition="9.88541666666666" Velocity="50" />
      <note Length="0.0104166666666667" Pitch="68" RiffPosition="9.89583333333333" Velocity="50" />
      <note Length="0.0104166666666667" Pitch="65" RiffPosition="9.90624999999999" Velocity="47" />
      <note Length="0.0104166666666667" Pitch="53" RiffPosition="9.91666666666666" Velocity="47" />
      <note Length="0.0104166666666667" Pitch="61" RiffPosition="9.92708333333332" Velocity="55" />
      <note Length="0.0104166666666667" Pitch="58" RiffPosition="9.93749999999999" Velocity="55" />
      <note Length="0.0104166666666667" Pitch="56" RiffPosition="9.94791666666666" Velocity="55" />
      <note Length="0.0104166666666667" Pitch="55" RiffPosition="9.95833333333332" Velocity="35" />
      <note Length="0.0104166666666667" Pitch="55" RiffPosition="9.96874999999999" Velocity="62" />
      <note Length="0.0104166666666667" Pitch="58" RiffPosition="9.97916666666665" Velocity="63" />
      <note Length="0.0104166666666667" Pitch="58" RiffPosition="9.98958333333332" Velocity="82" />
      <note Length="0.0416666666666667" Pitch="60" RiffPosition="9.99999999999999" Velocity="102" />
      <note Length="0.0416666666666667" Pitch="53" RiffPosition="10.0416666666667" Velocity="75" />
      <note Length="0.0104166666666667" Pitch="68" RiffPosition="10.0833333333333" Velocity="42" />
      <note Length="0.0104166666666667" Pitch="70" RiffPosition="10.09375" Velocity="35" />
      <note Length="0.0104166666666667" Pitch="65" RiffPosition="10.1041666666667" Velocity="42" />
      <note Length="0.0104166666666667" Pitch="65" RiffPosition="10.1145833333333" Velocity="55" />
      <note Length="0.0104166666666667" Pitch="65" RiffPosition="10.125" Velocity="35" />
      <note Length="0.0104166666666667" Pitch="65" RiffPosition="10.1354166666666" Velocity="35" />
      <note Length="0.0104166666666667" Pitch="70" RiffPosition="10.1458333333333" Velocity="35" />
      <note Length="0.0104166666666667" Pitch="68" RiffPosition="10.15625" Velocity="62" />
      <note Length="0.0104166666666667" Pitch="53" RiffPosition="10.1666666666666" Velocity="62" />
      <note Length="0.0104166666666667" Pitch="53" RiffPosition="10.1770833333333" Velocity="110" />
      <note Length="0.0104166666666667" Pitch="61" RiffPosition="10.1875" Velocity="110" />
      <note Length="0.0104166666666667" Pitch="61" RiffPosition="10.1979166666666" Velocity="110" />
      <note Length="0.0208333333333333" Pitch="60" RiffPosition="10.2083333333333" Velocity="90" />
      <note Length="0.0104166666666667" Pitch="60" RiffPosition="10.2291666666666" Velocity="63" />
      <note Length="0.0104166666666667" Pitch="60" RiffPosition="10.2395833333333" Velocity="36" />
      <note Length="0.0104166666666667" Pitch="60" RiffPosition="10.25" Velocity="54" />
      <note Length="0.0104166666666667" Pitch="60" RiffPosition="10.2604166666666" Velocity="54" />
      <note Length="0.0104166666666667" Pitch="58" RiffPosition="10.2708333333333" Velocity="54" />
      <note Length="0.0104166666666667" Pitch="58" RiffPosition="10.28125" Velocity="43" />
      <note Length="0.0104166666666667" Pitch="58" RiffPosition="10.2916666666666" Velocity="43" />
      <note Length="0.0104166666666667" Pitch="61" RiffPosition="10.3020833333333" Velocity="71" />
      <note Length="0.0104166666666667" Pitch="53" RiffPosition="10.3125" Velocity="70" />
      <note Length="0.0104166666666667" Pitch="53" RiffPosition="10.3229166666666" Velocity="63" />
      <note Length="0.0104166666666667" Pitch="68" RiffPosition="10.3333333333333" Velocity="82" />
      <note Length="0.0104166666666667" Pitch="68" RiffPosition="10.34375" Velocity="35" />
      <note Length="0.0104166666666667" Pitch="70" RiffPosition="10.3541666666666" Velocity="35" />
      <note Length="0.0104166666666667" Pitch="72" RiffPosition="10.3645833333333" Velocity="63" />
      <note Length="0.0208333333333333" Pitch="65" RiffPosition="10.375" Velocity="43" />
      <note Length="0.0104166666666667" Pitch="70" RiffPosition="10.3958333333333" Velocity="43" />
      <note Length="0.0104166666666667" Pitch="72" RiffPosition="10.40625" Velocity="54" />
      <note Length="0.0104166666666667" Pitch="70" RiffPosition="10.4166666666666" Velocity="54" />
      <note Length="0.0104166666666667" Pitch="70" RiffPosition="10.4270833333333" Velocity="62" />
      <note Length="0.0104166666666667" Pitch="68" RiffPosition="10.4375" Velocity="54" />
      <note Length="0.0104166666666667" Pitch="68" RiffPosition="10.4479166666666" Velocity="54" />
      <note Length="0.0104166666666667" Pitch="70" RiffPosition="10.4583333333333" Velocity="35" />
      <note Length="0.0104166666666667" Pitch="68" RiffPosition="10.46875" Velocity="63" />
      <note Length="0.0104166666666667" Pitch="67" RiffPosition="10.4791666666666" Velocity="63" />
      <note Length="0.0104166666666667" Pitch="65" RiffPosition="10.4895833333333" Velocity="90" />
      <note Length="0.0208333333333333" Pitch="65" RiffPosition="10.5" Velocity="110" />
      <note Length="0.0208333333333333" Pitch="53" RiffPosition="10.5208333333333" Velocity="109" />
      <note Length="0.0208333333333333" Pitch="53" RiffPosition="10.5416666666666" Velocity="82" />
      <note Length="0.0625" Pitch="53" RiffPosition="10.5625" Velocity="54" />
      <note Length="0.01171875" Pitch="60" RiffPosition="10.625" Velocity="50" />
      <note Length="0.01171875" Pitch="61" RiffPosition="10.63671875" Velocity="50" />
      <note Length="0.0078125" Pitch="60" RiffPosition="10.6484375" Velocity="50" />
      <note Length="0.0078125" Pitch="60" RiffPosition="10.65625" Velocity="55" />
      <note Length="0.0078125" Pitch="60" RiffPosition="10.6640625" Velocity="55" />
      <note Length="0.0078125" Pitch="58" RiffPosition="10.671875" Velocity="54" />
      <note Length="0.0078125" Pitch="58" RiffPosition="10.6796875" Velocity="102" />
      <note Length="0.0104166666666667" Pitch="58" RiffPosition="10.6875" Velocity="102" />
      <note Length="0.0104166666666667" Pitch="58" RiffPosition="10.6979166666666" Velocity="102" />
      <note Length="0.0104166666666667" Pitch="60" RiffPosition="10.7083333333333" Velocity="82" />
      <note Length="0.03125" Pitch="60" RiffPosition="10.71875" Velocity="55" />
      <note Length="0.0104166666666667" Pitch="65" RiffPosition="10.75" Velocity="63" />
      <note Length="0.0104166666666667" Pitch="68" RiffPosition="10.7604166666666" Velocity="63" />
      <note Length="0.0104166666666667" Pitch="68" RiffPosition="10.7708333333333" Velocity="55" />
      <note Length="0.0104166666666667" Pitch="70" RiffPosition="10.78125" Velocity="43" />
      <note Length="0.0104166666666667" Pitch="72" RiffPosition="10.7916666666666" Velocity="43" />
      <note Length="0.0104166666666667" Pitch="65" RiffPosition="10.8020833333333" Velocity="70" />
      <note Length="0.0104166666666667" Pitch="65" RiffPosition="10.8125" Velocity="70" />
      <note Length="0.0104166666666667" Pitch="65" RiffPosition="10.8229166666666" Velocity="70" />
      <note Length="0.0104166666666667" Pitch="65" RiffPosition="10.8333333333333" Velocity="90" />
      <note Length="0.0104166666666667" Pitch="65" RiffPosition="10.84375" Velocity="43" />
      <note Length="0.0104166666666667" Pitch="65" RiffPosition="10.8541666666666" Velocity="43" />
      <note Length="0.0104166666666667" Pitch="65" RiffPosition="10.8645833333333" Velocity="54" />
      <note Length="0.0104166666666667" Pitch="65" RiffPosition="10.875" Velocity="35" />
      <note Length="0.0104166666666667" Pitch="70" RiffPosition="10.8854166666666" Velocity="35" />
      <note Length="0.0104166666666667" Pitch="68" RiffPosition="10.8958333333333" Velocity="35" />
      <note Length="0.0104166666666667" Pitch="65" RiffPosition="10.90625" Velocity="63" />
      <note Length="0.0104166666666667" Pitch="53" RiffPosition="10.9166666666666" Velocity="63" />
      <note Length="0.0104166666666667" Pitch="60" RiffPosition="10.9270833333333" Velocity="70" />
      <note Length="0.0104166666666667" Pitch="60" RiffPosition="10.9375" Velocity="70" />
      <note Length="0.0104166666666667" Pitch="56" RiffPosition="10.9479166666666" Velocity="70" />
      <note Length="0.0104166666666667" Pitch="55" RiffPosition="10.9583333333333" Velocity="50" />
      <note Length="0.0104166666666667" Pitch="55" RiffPosition="10.96875" Velocity="47" />
      <note Length="0.0104166666666667" Pitch="58" RiffPosition="10.9791666666666" Velocity="47" />
      <note Length="0.0104166666666667" Pitch="58" RiffPosition="10.9895833333333" Velocity="82" />
      <note Length="0.0416666666666667" Pitch="58" RiffPosition="11" Velocity="102" />
      <note Length="0.0416666666666667" Pitch="53" RiffPosition="11,0416666666666" Velocity="75" />
      <note Length="0.0104166666666667" Pitch="70" RiffPosition="11,0833333333333" Velocity="42" />
      <note Length="0.0104166666666667" Pitch="70" RiffPosition="11,0937499999999" Velocity="35" />
      <note Length="0.0104166666666667" Pitch="65" RiffPosition="11,1041666666666" Velocity="43" />
      <note Length="0.0104166666666667" Pitch="65" RiffPosition="11,1145833333333" Velocity="70" />
      <note Length="0.0104166666666667" Pitch="65" RiffPosition="11,1249999999999" Velocity="51" />
      <note Length="0.0104166666666667" Pitch="72" RiffPosition="11,1354166666666" Velocity="51" />
      <note Length="0.0104166666666667" Pitch="70" RiffPosition="11,1458333333333" Velocity="51" />
      <note Length="0.0104166666666667" Pitch="68" RiffPosition="11,1562499999999" Velocity="47" />
      <note Length="0.0104166666666667" Pitch="65" RiffPosition="11,1666666666666" Velocity="47" />
      <note Length="0.0104166666666667" Pitch="53" RiffPosition="11,1770833333333" Velocity="95" />
      <note Length="0.0104166666666667" Pitch="53" RiffPosition="11,1874999999999" Velocity="95" />
      <note Length="0.0104166666666667" Pitch="60" RiffPosition="11,1979166666666" Velocity="95" />
      <note Length="0.0208333333333333" Pitch="60" RiffPosition="11,2083333333333" Velocity="75" />
      <note Length="0.0104166666666667" Pitch="60" RiffPosition="11,2291666666666" Velocity="48" />
      <note Length="0.0104166666666667" Pitch="60" RiffPosition="11,2395833333333" Velocity="50" />
      <note Length="0.0104166666666667" Pitch="58" RiffPosition="11,2499999999999" Velocity="69" />
      <note Length="0.0104166666666667" Pitch="60" RiffPosition="11,2604166666666" Velocity="69" />
      <note Length="0.0104166666666667" Pitch="60" RiffPosition="11,2708333333333" Velocity="69" />
      <note Length="0.0104166666666667" Pitch="60" RiffPosition="11,2812499999999" Velocity="42" />
      <note Length="0.0104166666666667" Pitch="58" RiffPosition="11,2916666666666" Velocity="42" />
      <note Length="0.0104166666666667" Pitch="61" RiffPosition="11,3020833333333" Velocity="55" />
      <note Length="0.0104166666666667" Pitch="53" RiffPosition="11,3124999999999" Velocity="55" />
      <note Length="0.0104166666666667" Pitch="53" RiffPosition="11,3229166666666" Velocity="63" />
      <note Length="0.0104166666666667" Pitch="67" RiffPosition="11,3333333333333" Velocity="82" />
      <note Length="0.0104166666666667" Pitch="68" RiffPosition="11,3437499999999" Velocity="35" />
      <note Length="0.0104166666666667" Pitch="70" RiffPosition="11,3541666666666" Velocity="35" />
      <note Length="0.0104166666666667" Pitch="65" RiffPosition="11,3645833333333" Velocity="63" />
      <note Length="0.0208333333333333" Pitch="65" RiffPosition="11,3749999999999" Velocity="43" />
      <note Length="0.0104166666666667" Pitch="72" RiffPosition="11,3958333333333" Velocity="43" />
      <note Length="0.0104166666666667" Pitch="72" RiffPosition="11,4062499999999" Velocity="54" />
      <note Length="0.0104166666666667" Pitch="70" RiffPosition="11,4166666666666" Velocity="54" />
      <note Length="0.0104166666666667" Pitch="68" RiffPosition="11,4270833333333" Velocity="62" />
      <note Length="0.0104166666666667" Pitch="68" RiffPosition="11,4374999999999" Velocity="69" />
      <note Length="0.0104166666666667" Pitch="68" RiffPosition="11,4479166666666" Velocity="70" />
      <note Length="0.0104166666666667" Pitch="68" RiffPosition="11,4583333333333" Velocity="50" />
      <note Length="0.0104166666666667" Pitch="68" RiffPosition="11,4687499999999" Velocity="47" />
      <note Length="0.0104166666666667" Pitch="68" RiffPosition="11,4791666666666" Velocity="47" />
      <note Length="0.0104166666666667" Pitch="67" RiffPosition="11,4895833333333" Velocity="75" />
      <note Length="0.0208333333333333" Pitch="65" RiffPosition="11,4999999999999" Velocity="94" />
      <note Length="0.0208333333333333" Pitch="53" RiffPosition="11,5208333333333" Velocity="94" />
      <note Length="0.0208333333333333" Pitch="53" RiffPosition="11,5416666666666" Velocity="67" />
      <note Length="0.0625" Pitch="53" RiffPosition="11,5624999999999" Velocity="39" />
      <note Length="0.01171875" Pitch="60" RiffPosition="11,6249999999999" Velocity="35" />
      <note Length="0.01171875" Pitch="60" RiffPosition="11,6367187499999" Velocity="35" />
      <note Length="0.0078125" Pitch="60" RiffPosition="11,6484374999999" Velocity="35" />
      <note Length="0.0078125" Pitch="60" RiffPosition="11,6562499999999" Velocity="55" />
      <note Length="0.0078125" Pitch="60" RiffPosition="11,6640624999999" Velocity="55" />
      <note Length="0.0078125" Pitch="58" RiffPosition="11,6718749999999" Velocity="54" />
      <note Length="0.0078125" Pitch="58" RiffPosition="11,6796874999999" Velocity="102" />
      <note Length="0.0104166666666667" Pitch="58" RiffPosition="11,6874999999999" Velocity="102" />
      <note Length="0.0104166666666667" Pitch="60" RiffPosition="11,6979166666666" Velocity="102" />
      <note Length="0.0104166666666667" Pitch="60" RiffPosition="11,7083333333333" Velocity="82" />
      <note Length="0.03125" Pitch="61" RiffPosition="11,7187499999999" Velocity="55" />
      <note Length="0.0104166666666667" Pitch="65" RiffPosition="11,7499999999999" Velocity="63" />
      <note Length="0.0104166666666667" Pitch="68" RiffPosition="11,7604166666666" Velocity="63" />
      <note Length="0.0104166666666667" Pitch="68" RiffPosition="11,7708333333333" Velocity="70" />
      <note Length="0.0104166666666667" Pitch="70" RiffPosition="11,7812499999999" Velocity="43" />
      <note Length="0.0104166666666667" Pitch="65" RiffPosition="11,7916666666666" Velocity="43" />
      <note Length="0.0104166666666667" Pitch="65" RiffPosition="11,8020833333333" Velocity="55" />
      <note Length="0.0104166666666667" Pitch="65" RiffPosition="11,8124999999999" Velocity="55" />
      <note Length="0.0104166666666667" Pitch="65" RiffPosition="11,8229166666666" Velocity="55" />
      <note Length="0.0104166666666667" Pitch="65" RiffPosition="11,8333333333333" Velocity="75" />
      <note Length="0.0104166666666667" Pitch="65" RiffPosition="11,8437499999999" Velocity="42" />
      <note Length="0.0104166666666667" Pitch="65" RiffPosition="11,8541666666666" Velocity="42" />
      <note Length="0.0104166666666667" Pitch="65" RiffPosition="11,8645833333333" Velocity="70" />
      <note Length="0.0104166666666667" Pitch="72" RiffPosition="11,8749999999999" Velocity="50" />
      <note Length="0.0104166666666667" Pitch="70" RiffPosition="11,8854166666666" Velocity="50" />
      <note Length="0.0104166666666667" Pitch="68" RiffPosition="11,8958333333333" Velocity="50" />
      <note Length="0.0104166666666667" Pitch="65" RiffPosition="11,9062499999999" Velocity="47" />
      <note Length="0.0104166666666667" Pitch="53" RiffPosition="11,9166666666666" Velocity="47" />
      <note Length="0.0104166666666667" Pitch="61" RiffPosition="11,9270833333333" Velocity="55" />
      <note Length="0.0104166666666667" Pitch="58" RiffPosition="11,9374999999999" Velocity="55" />
      <note Length="0.0104166666666667" Pitch="56" RiffPosition="11,9479166666666" Velocity="55" />
      <note Length="0.0104166666666667" Pitch="55" RiffPosition="11,9583333333333" Velocity="35" />
      <note Length="0.0104166666666667" Pitch="55" RiffPosition="11,9687499999999" Velocity="62" />
      <note Length="0.0104166666666667" Pitch="56" RiffPosition="11,9791666666666" Velocity="63" />
      <note Length="0.0104166666666667" Pitch="58" RiffPosition="11,9895833333332" Velocity="82" />
      <note Length="0.0416666666666667" Pitch="60" RiffPosition="11,9999999999999" Velocity="102" />
      <note Length="0.0416666666666667" Pitch="53" RiffPosition="12.0416666666666" Velocity="75" />
      <note Length="0.0104166666666667" Pitch="68" RiffPosition="12.0833333333332" Velocity="42" />
      <note Length="0.0104166666666667" Pitch="70" RiffPosition="12.0937499999999" Velocity="35" />
      <note Length="0.0104166666666667" Pitch="65" RiffPosition="12.1041666666666" Velocity="42" />
      <note Length="0.0104166666666667" Pitch="65" RiffPosition="12.1145833333332" Velocity="55" />
      <note Length="0.0104166666666667" Pitch="65" RiffPosition="12.1249999999999" Velocity="35" />
      <note Length="0.0104166666666667" Pitch="65" RiffPosition="12.1354166666666" Velocity="35" />
      <note Length="0.0104166666666667" Pitch="70" RiffPosition="12.1458333333332" Velocity="35" />
      <note Length="0.0104166666666667" Pitch="68" RiffPosition="12.1562499999999" Velocity="62" />
      <note Length="0.0104166666666667" Pitch="53" RiffPosition="12.1666666666666" Velocity="62" />
      <note Length="0.0104166666666667" Pitch="53" RiffPosition="12.1770833333332" Velocity="110" />
      <note Length="0.0104166666666667" Pitch="61" RiffPosition="12.1874999999999" Velocity="110" />
      <note Length="0.0104166666666667" Pitch="60" RiffPosition="12.1979166666666" Velocity="110" />
      <note Length="0.0208333333333333" Pitch="61" RiffPosition="12.2083333333332" Velocity="90" />
      <note Length="0.0104166666666667" Pitch="60" RiffPosition="12.2291666666666" Velocity="63" />
      <note Length="0.0104166666666667" Pitch="60" RiffPosition="12.2395833333332" Velocity="36" />
      <note Length="0.0104166666666667" Pitch="60" RiffPosition="12.2499999999999" Velocity="54" />
      <note Length="0.0104166666666667" Pitch="60" RiffPosition="12.2604166666666" Velocity="54" />
      <note Length="0.0104166666666667" Pitch="58" RiffPosition="12.2708333333332" Velocity="54" />
      <note Length="0.0104166666666667" Pitch="58" RiffPosition="12.2812499999999" Velocity="43" />
      <note Length="0.0104166666666667" Pitch="58" RiffPosition="12.2916666666666" Velocity="43" />
      <note Length="0.0104166666666667" Pitch="60" RiffPosition="12.3020833333332" Velocity="71" />
      <note Length="0.0104166666666667" Pitch="53" RiffPosition="12.3124999999999" Velocity="70" />
      <note Length="0.0104166666666667" Pitch="65" RiffPosition="12.3229166666666" Velocity="63" />
      <note Length="0.0104166666666667" Pitch="68" RiffPosition="12.3333333333332" Velocity="82" />
      <note Length="0.0104166666666667" Pitch="68" RiffPosition="12.3437499999999" Velocity="35" />
      <note Length="0.0104166666666667" Pitch="72" RiffPosition="12.3541666666666" Velocity="35" />
      <note Length="0.0104166666666667" Pitch="72" RiffPosition="12.3645833333332" Velocity="63" />
      <note Length="0.0208333333333333" Pitch="65" RiffPosition="12.3749999999999" Velocity="43" />
      <note Length="0.0104166666666667" Pitch="70" RiffPosition="12.3958333333332" Velocity="43" />
      <note Length="0.0104166666666667" Pitch="70" RiffPosition="12.4062499999999" Velocity="54" />
      <note Length="0.0104166666666667" Pitch="68" RiffPosition="12.4166666666666" Velocity="54" />
      <note Length="0.0104166666666667" Pitch="70" RiffPosition="12.4270833333332" Velocity="62" />
      <note Length="0.0104166666666667" Pitch="68" RiffPosition="12.4374999999999" Velocity="54" />
      <note Length="0.0104166666666667" Pitch="68" RiffPosition="12.4479166666666" Velocity="54" />
      <note Length="0.0104166666666667" Pitch="70" RiffPosition="12.4583333333332" Velocity="35" />
      <note Length="0.0104166666666667" Pitch="68" RiffPosition="12.4687499999999" Velocity="63" />
      <note Length="0.0104166666666667" Pitch="68" RiffPosition="12.4791666666666" Velocity="63" />
      <note Length="0.0104166666666667" Pitch="65" RiffPosition="12.4895833333332" Velocity="90" />
      <note Length="0.0208333333333333" Pitch="65" RiffPosition="12.4999999999999" Velocity="110" />
      <note Length="0.0208333333333333" Pitch="53" RiffPosition="12.5208333333332" Velocity="109" />
      <note Length="0.0208333333333333" Pitch="53" RiffPosition="12.5416666666666" Velocity="82" />
      <note Length="0.0625" Pitch="53" RiffPosition="12.5624999999999" Velocity="54" />
      <note Length="0.01171875" Pitch="60" RiffPosition="12.6249999999999" Velocity="50" />
      <note Length="0.01171875" Pitch="61" RiffPosition="12.6367187499999" Velocity="50" />
      <note Length="0.0078125" Pitch="60" RiffPosition="12.6484374999999" Velocity="50" />
      <note Length="0.0078125" Pitch="60" RiffPosition="12.6562499999999" Velocity="55" />
      <note Length="0.0078125" Pitch="60" RiffPosition="12.6640624999999" Velocity="55" />
      <note Length="0.0078125" Pitch="58" RiffPosition="12.6718749999999" Velocity="54" />
      <note Length="0.0078125" Pitch="58" RiffPosition="12.6796874999999" Velocity="102" />
      <note Length="0.0104166666666667" Pitch="58" RiffPosition="12.6874999999999" Velocity="102" />
      <note Length="0.0104166666666667" Pitch="58" RiffPosition="12.6979166666666" Velocity="102" />
      <note Length="0.0104166666666667" Pitch="60" RiffPosition="12.7083333333332" Velocity="82" />
      <note Length="0.03125" Pitch="61" RiffPosition="12.7187499999999" Velocity="55" />
      <note Length="0.0104166666666667" Pitch="65" RiffPosition="12.7499999999999" Velocity="63" />
      <note Length="0.0104166666666667" Pitch="68" RiffPosition="12.7604166666666" Velocity="63" />
      <note Length="0.0104166666666667" Pitch="68" RiffPosition="12.7708333333332" Velocity="55" />
      <note Length="0.0104166666666667" Pitch="72" RiffPosition="12.7812499999999" Velocity="43" />
      <note Length="0.0104166666666667" Pitch="65" RiffPosition="12.7916666666666" Velocity="43" />
      <note Length="0.0104166666666667" Pitch="65" RiffPosition="12.8020833333332" Velocity="70" />
      <note Length="0.0104166666666667" Pitch="65" RiffPosition="12.8124999999999" Velocity="70" />
      <note Length="0.0104166666666667" Pitch="65" RiffPosition="12.8229166666666" Velocity="70" />
      <note Length="0.0104166666666667" Pitch="65" RiffPosition="12.8333333333332" Velocity="90" />
      <note Length="0.0104166666666667" Pitch="65" RiffPosition="12.8437499999999" Velocity="43" />
      <note Length="0.0104166666666667" Pitch="65" RiffPosition="12.8541666666666" Velocity="43" />
      <note Length="0.0104166666666667" Pitch="65" RiffPosition="12.8645833333332" Velocity="54" />
      <note Length="0.0104166666666667" Pitch="65" RiffPosition="12.8749999999999" Velocity="35" />
      <note Length="0.0104166666666667" Pitch="70" RiffPosition="12.8854166666666" Velocity="35" />
      <note Length="0.0104166666666667" Pitch="68" RiffPosition="12.8958333333332" Velocity="35" />
      <note Length="0.0104166666666667" Pitch="65" RiffPosition="12.9062499999999" Velocity="63" />
      <note Length="0.0104166666666667" Pitch="53" RiffPosition="12.9166666666666" Velocity="63" />
      <note Length="0.0104166666666667" Pitch="60" RiffPosition="12.9270833333332" Velocity="70" />
      <note Length="0.0104166666666667" Pitch="58" RiffPosition="12.9374999999999" Velocity="70" />
      <note Length="0.0104166666666667" Pitch="55" RiffPosition="12.9479166666665" Velocity="70" />
      <note Length="0.0104166666666667" Pitch="56" RiffPosition="12.9583333333332" Velocity="50" />
      <note Length="0.0104166666666667" Pitch="56" RiffPosition="12.9687499999999" Velocity="47" />
      <note Length="0.0104166666666667" Pitch="58" RiffPosition="12.9791666666665" Velocity="47" />
      <note Length="0.0104166666666667" Pitch="58" RiffPosition="12.9895833333332" Velocity="82" />
      <note Length="0.0416666666666667" Pitch="60" RiffPosition="12.9999999999999" Velocity="102" />
      <note Length="0.0416666666666667" Pitch="53" RiffPosition="13.0416666666665" Velocity="0" />
      <note Length="0.0104166666666667" Pitch="70" RiffPosition="13.0833333333332" Velocity="0" />
      <note Length="0.0104166666666667" Pitch="70" RiffPosition="13.0937499999999" Velocity="0" />
      <note Length="0.0104166666666667" Pitch="65" RiffPosition="13.1041666666665" Velocity="0" />
      <note Length="0.0104166666666667" Pitch="65" RiffPosition="13.1145833333332" Velocity="0" />
      <note Length="0.0104166666666667" Pitch="65" RiffPosition="13.1249999999999" Velocity="0" />
      <note Length="0.0104166666666667" Pitch="65" RiffPosition="13.1354166666665" Velocity="0" />
      <note Length="0.0104166666666667" Pitch="68" RiffPosition="13.1458333333332" Velocity="0" />
      <note Length="0.0104166666666667" Pitch="67" RiffPosition="13.1562499999999" Velocity="0" />
      <note Length="0.0104166666666667" Pitch="65" RiffPosition="13.1666666666665" Velocity="0" />
      <note Length="0.0104166666666667" Pitch="53" RiffPosition="13.1770833333332" Velocity="0" />
      <note Length="0.0104166666666667" Pitch="53" RiffPosition="13.1874999999999" Velocity="0" />
      <note Length="0.0104166666666667" Pitch="60" RiffPosition="13.1979166666665" Velocity="0" />
      <note Length="0.0208333333333333" Pitch="60" RiffPosition="13.2083333333332" Velocity="0" />
      <note Length="0.0104166666666667" Pitch="60" RiffPosition="13.2291666666665" Velocity="0" />
      <note Length="0.0104166666666667" Pitch="60" RiffPosition="13.2395833333332" Velocity="0" />
      <note Length="0.0104166666666667" Pitch="58" RiffPosition="13.2499999999999" Velocity="0" />
      <note Length="0.0104166666666667" Pitch="58" RiffPosition="13.2604166666665" Velocity="0" />
      <note Length="0.0104166666666667" Pitch="60" RiffPosition="13.2708333333332" Velocity="0" />
      <note Length="0.0104166666666667" Pitch="60" RiffPosition="13.2812499999999" Velocity="0" />
      <note Length="0.0104166666666667" Pitch="58" RiffPosition="13.2916666666665" Velocity="0" />
      <note Length="0.0104166666666667" Pitch="61" RiffPosition="13.3020833333332" Velocity="0" />
      <note Length="0.0104166666666667" Pitch="53" RiffPosition="13.3124999999999" Velocity="0" />
      <note Length="0.0104166666666667" Pitch="53" RiffPosition="13.3229166666665" Velocity="0" />
      <note Length="0.0104166666666667" Pitch="67" RiffPosition="13.3333333333332" Velocity="0" />
      <note Length="0.0104166666666667" Pitch="68" RiffPosition="13.3437499999999" Velocity="0" />
      <note Length="0.0104166666666667" Pitch="70" RiffPosition="13.3541666666665" Velocity="0" />
      <note Length="0.0104166666666667" Pitch="72" RiffPosition="13.3645833333332" Velocity="0" />
      <note Length="0.0208333333333333" Pitch="65" RiffPosition="13.3749999999999" Velocity="0" />
      <note Length="0.0104166666666667" Pitch="72" RiffPosition="13.3958333333332" Velocity="0" />
      <note Length="0.0104166666666667" Pitch="72" RiffPosition="13.4062499999999" Velocity="0" />
      <note Length="0.0104166666666667" Pitch="70" RiffPosition="13.4166666666665" Velocity="0" />
      <note Length="0.0104166666666667" Pitch="68" RiffPosition="13.4270833333332" Velocity="0" />
      <note Length="0.0104166666666667" Pitch="68" RiffPosition="13.4374999999999" Velocity="0" />
      <note Length="0.0104166666666667" Pitch="68" RiffPosition="13.4479166666665" Velocity="0" />
      <note Length="0.0104166666666667" Pitch="68" RiffPosition="13.4583333333332" Velocity="0" />
      <note Length="0.0104166666666667" Pitch="67" RiffPosition="13.4687499999999" Velocity="0" />
      <note Length="0.0104166666666667" Pitch="68" RiffPosition="13.4791666666665" Velocity="0" />
      <note Length="0.0104166666666667" Pitch="67" RiffPosition="13.4895833333332" Velocity="0" />
      <note Length="0.0208333333333333" Pitch="65" RiffPosition="13.4999999999999" Velocity="0" />
      <note Length="0.0208333333333333" Pitch="53" RiffPosition="13.5208333333332" Velocity="0" />
      <note Length="0.0208333333333333" Pitch="53" RiffPosition="13.5416666666665" Velocity="0" />
      <note Length="0.0625" Pitch="53" RiffPosition="13.5624999999999" Velocity="0" />
      <note Length="0.01171875" Pitch="60" RiffPosition="13.6249999999999" Velocity="0" />
      <note Length="0.01171875" Pitch="60" RiffPosition="13.6367187499999" Velocity="0" />
      <note Length="0.0078125" Pitch="60" RiffPosition="13.6484374999999" Velocity="0" />
      <note Length="0.0078125" Pitch="60" RiffPosition="13.6562499999999" Velocity="0" />
      <note Length="0.0078125" Pitch="60" RiffPosition="13.6640624999999" Velocity="0" />
      <note Length="0.0078125" Pitch="58" RiffPosition="13.6718749999999" Velocity="0" />
      <note Length="0.0078125" Pitch="58" RiffPosition="13.6796874999999" Velocity="0" />
      <note Length="0.0104166666666667" Pitch="58" RiffPosition="13.6874999999999" Velocity="0" />
      <note Length="0.0104166666666667" Pitch="60" RiffPosition="13.6979166666665" Velocity="0" />
      <note Length="0.0104166666666667" Pitch="61" RiffPosition="13.7083333333332" Velocity="0" />
      <note Length="0.03125" Pitch="61" RiffPosition="13.7187499999999" Velocity="0" />
      <note Length="0.0104166666666667" Pitch="65" RiffPosition="13.7499999999999" Velocity="0" />
      <note Length="0.0104166666666667" Pitch="68" RiffPosition="13.7604166666665" Velocity="0" />
      <note Length="0.0104166666666667" Pitch="68" RiffPosition="13.7708333333332" Velocity="0" />
      <note Length="0.0104166666666667" Pitch="70" RiffPosition="13.7812499999999" Velocity="0" />
      <note Length="0.0104166666666667" Pitch="72" RiffPosition="13.7916666666665" Velocity="0" />
      <note Length="0.0104166666666667" Pitch="65" RiffPosition="13.8020833333332" Velocity="0" />
      <note Length="0.0104166666666667" Pitch="65" RiffPosition="13.8124999999999" Velocity="0" />
      <note Length="0.0104166666666667" Pitch="65" RiffPosition="13.8229166666665" Velocity="0" />
      <note Length="0.0104166666666667" Pitch="65" RiffPosition="13.8333333333332" Velocity="0" />
      <note Length="0.0104166666666667" Pitch="65" RiffPosition="13.8437499999999" Velocity="0" />
      <note Length="0.0104166666666667" Pitch="65" RiffPosition="13.8541666666665" Velocity="0" />
      <note Length="0.0104166666666667" Pitch="65" RiffPosition="13.8645833333332" Velocity="0" />
      <note Length="0.0104166666666667" Pitch="65" RiffPosition="13.8749999999999" Velocity="0" />
      <note Length="0.0104166666666667" Pitch="70" RiffPosition="13.8854166666665" Velocity="0" />
      <note Length="0.0104166666666667" Pitch="67" RiffPosition="13.8958333333332" Velocity="0" />
      <note Length="0.0104166666666667" Pitch="65" RiffPosition="13.9062499999998" Velocity="0" />
      <note Length="0.0104166666666667" Pitch="53" RiffPosition="13.9166666666665" Velocity="0" />
      <note Length="0.0104166666666667" Pitch="61" RiffPosition="13.9270833333332" Velocity="0" />
      <note Length="0.0104166666666667" Pitch="58" RiffPosition="13.9374999999998" Velocity="0" />
      <note Length="0.0104166666666667" Pitch="56" RiffPosition="13.9479166666665" Velocity="0" />
      <note Length="0.0104166666666667" Pitch="55" RiffPosition="13.9583333333332" Velocity="0" />
      <note Length="0.0104166666666667" Pitch="55" RiffPosition="13.9687499999998" Velocity="0" />
      <note Length="0.0104166666666667" Pitch="58" RiffPosition="13.9791666666665" Velocity="0" />
      <note Length="0.0104166666666667" Pitch="58" RiffPosition="13.9895833333332" Velocity="0" />
      <note Length="1,56319401867222E-13" Pitch="58" RiffPosition="13.9999999999998" Velocity="0" />
    </riff>
    <riff IsDrum="False" MidiInstrument="29" Tempo="105" Length="14">
      <note Length="0.015625" Pitch="53" RiffPosition="0" Velocity="0" />
      <note Length="0.015625" Pitch="53" RiffPosition="0.015625" Velocity="0" />
      <note Length="0.015625" Pitch="56" RiffPosition="0.03125" Velocity="0" />
      <note Length="0.015625" Pitch="56" RiffPosition="0.046875" Velocity="0" />
      <note Length="0.015625" Pitch="53" RiffPosition="0.0625" Velocity="0" />
      <note Length="0.015625" Pitch="65" RiffPosition="0.078125" Velocity="0" />
      <note Length="0.015625" Pitch="53" RiffPosition="0.09375" Velocity="0" />
      <note Length="0.015625" Pitch="53" RiffPosition="0.109375" Velocity="0" />
      <note Length="0.0208333333333333" Pitch="67" RiffPosition="0.125" Velocity="0" />
      <note Length="0.0208333333333333" Pitch="65" RiffPosition="0.145833333333333" Velocity="0" />
      <note Length="0.0416666666666667" Pitch="70" RiffPosition="0.166666666666667" Velocity="0" />
      <note Length="0.0208333333333333" Pitch="53" RiffPosition="0.208333333333333" Velocity="0" />
      <note Length="0.0208333333333333" Pitch="53" RiffPosition="0.229166666666667" Velocity="0" />
      <note Length="0.0833333333333333" Pitch="60" RiffPosition="0.25" Velocity="0" />
      <note Length="0.0208333333333333" Pitch="53" RiffPosition="0.333333333333333" Velocity="0" />
      <note Length="0.0208333333333333" Pitch="53" RiffPosition="0.354166666666667" Velocity="0" />
      <note Length="0.0208333333333333" Pitch="68" RiffPosition="0.375" Velocity="0" />
      <note Length="0.0208333333333333" Pitch="65" RiffPosition="0.395833333333333" Velocity="0" />
      <note Length="0.0416666666666667" Pitch="70" RiffPosition="0.416666666666667" Velocity="0" />
      <note Length="0.0416666666666667" Pitch="65" RiffPosition="0.458333333333333" Velocity="0" />
      <note Length="0.0625" Pitch="65" RiffPosition="0.5" Velocity="0" />
      <note Length="0.0234375" Pitch="58" RiffPosition="0.5625" Velocity="0" />
      <note Length="0.01171875" Pitch="53" RiffPosition="0.5859375" Velocity="0" />
      <note Length="0.01171875" Pitch="65" RiffPosition="0.59765625" Velocity="0" />
      <note Length="0.0078125" Pitch="67" RiffPosition="0.609375" Velocity="0" />
      <note Length="0.0078125" Pitch="65" RiffPosition="0.6171875" Velocity="0" />
      <note Length="0.015625" Pitch="53" RiffPosition="0.625" Velocity="0" />
      <note Length="0.015625" Pitch="70" RiffPosition="0.640625" Velocity="0" />
      <note Length="0.015625" Pitch="65" RiffPosition="0.65625" Velocity="0" />
      <note Length="0.03125" Pitch="68" RiffPosition="0.671875" Velocity="0" />
      <note Length="0.015625" Pitch="67" RiffPosition="0.703125" Velocity="0" />
      <note Length="0.0234375" Pitch="68" RiffPosition="0.71875" Velocity="0" />
      <note Length="0.0234375" Pitch="61" RiffPosition="0.7421875" Velocity="0" />
      <note Length="0.0234375" Pitch="61" RiffPosition="0.765625" Velocity="0" />
      <note Length="0.0234375" Pitch="58" RiffPosition="0.7890625" Velocity="0" />
      <note Length="0.046875" Pitch="53" RiffPosition="0.8125" Velocity="0" />
      <note Length="0.0234375" Pitch="67" RiffPosition="0.859375" Velocity="0" />
      <note Length="0.0234375" Pitch="65" RiffPosition="0.8828125" Velocity="0" />
      <note Length="0.03125" Pitch="70" RiffPosition="0.90625" Velocity="0" />
      <note Length="0.03125" Pitch="70" RiffPosition="0.9375" Velocity="0" />
      <note Length="0.0104166666666667" Pitch="65" RiffPosition="0.96875" Velocity="0" />
      <note Length="0.0104166666666667" Pitch="68" RiffPosition="0.979166666666667" Velocity="0" />
      <note Length="0.0104166666666667" Pitch="53" RiffPosition="0.989583333333333" Velocity="0" />
      <note Length="0.015625" Pitch="60" RiffPosition="1" Velocity="0" />
      <note Length="0.015625" Pitch="53" RiffPosition="1,015625" Velocity="0" />
      <note Length="0.015625" Pitch="53" RiffPosition="1,03125" Velocity="0" />
      <note Length="0.015625" Pitch="56" RiffPosition="1,046875" Velocity="0" />
      <note Length="0.015625" Pitch="60" RiffPosition="1,0625" Velocity="0" />
      <note Length="0.015625" Pitch="53" RiffPosition="1,078125" Velocity="0" />
      <note Length="0.015625" Pitch="53" RiffPosition="1,09375" Velocity="0" />
      <note Length="0.015625" Pitch="65" RiffPosition="1,109375" Velocity="0" />
      <note Length="0.0208333333333333" Pitch="67" RiffPosition="1,125" Velocity="0" />
      <note Length="0.0208333333333333" Pitch="67" RiffPosition="1,14583333333333" Velocity="0" />
      <note Length="0.0416666666666667" Pitch="70" RiffPosition="1,16666666666667" Velocity="0" />
      <note Length="0.0208333333333333" Pitch="65" RiffPosition="1,20833333333333" Velocity="0" />
      <note Length="0.0208333333333333" Pitch="65" RiffPosition="1,22916666666667" Velocity="0" />
      <note Length="0.0833333333333333" Pitch="65" RiffPosition="1,25" Velocity="0" />
      <note Length="0.0208333333333333" Pitch="53" RiffPosition="1,33333333333333" Velocity="0" />
      <note Length="0.0208333333333333" Pitch="68" RiffPosition="1,35416666666667" Velocity="0" />
      <note Length="0.0208333333333333" Pitch="68" RiffPosition="1,375" Velocity="0" />
      <note Length="0.0208333333333333" Pitch="65" RiffPosition="1,39583333333333" Velocity="0" />
      <note Length="0.0416666666666667" Pitch="72" RiffPosition="1,41666666666667" Velocity="0" />
      <note Length="0.0416666666666667" Pitch="68" RiffPosition="1,45833333333333" Velocity="0" />
      <note Length="0.0625" Pitch="53" RiffPosition="1,5" Velocity="0" />
      <note Length="0.0234375" Pitch="53" RiffPosition="1,5625" Velocity="0" />
      <note Length="0.01171875" Pitch="53" RiffPosition="1,5859375" Velocity="0" />
      <note Length="0.01171875" Pitch="53" RiffPosition="1,59765625" Velocity="0" />
      <note Length="0.0078125" Pitch="67" RiffPosition="1,609375" Velocity="0" />
      <note Length="0.0078125" Pitch="65" RiffPosition="1,6171875" Velocity="0" />
      <note Length="0.015625" Pitch="65" RiffPosition="1,625" Velocity="0" />
      <note Length="0.015625" Pitch="67" RiffPosition="1,640625" Velocity="0" />
      <note Length="0.015625" Pitch="70" RiffPosition="1,65625" Velocity="0" />
      <note Length="0.03125" Pitch="65" RiffPosition="1,671875" Velocity="0" />
      <note Length="0.015625" Pitch="65" RiffPosition="1,703125" Velocity="0" />
      <note Length="0.0234375" Pitch="65" RiffPosition="1,71875" Velocity="0" />
      <note Length="0.0234375" Pitch="53" RiffPosition="1,7421875" Velocity="0" />
      <note Length="0.0234375" Pitch="53" RiffPosition="1,765625" Velocity="0" />
      <note Length="0.0234375" Pitch="58" RiffPosition="1,7890625" Velocity="0" />
      <note Length="0.046875" Pitch="53" RiffPosition="1,8125" Velocity="0" />
      <note Length="0.0234375" Pitch="53" RiffPosition="1,859375" Velocity="0" />
      <note Length="0.0234375" Pitch="70" RiffPosition="1,8828125" Velocity="0" />
      <note Length="0.03125" Pitch="70" RiffPosition="1,90625" Velocity="0" />
      <note Length="0.03125" Pitch="70" RiffPosition="1,9375" Velocity="0" />
      <note Length="0.0104166666666667" Pitch="67" RiffPosition="1,96875" Velocity="0" />
      <note Length="0.0104166666666667" Pitch="65" RiffPosition="1,97916666666667" Velocity="0" />
      <note Length="0.0104166666666667" Pitch="67" RiffPosition="1,98958333333333" Velocity="0" />
      <note Length="0.015625" Pitch="61" RiffPosition="2" Velocity="0" />
      <note Length="0.015625" Pitch="60" RiffPosition="2.015625" Velocity="0" />
      <note Length="0.015625" Pitch="61" RiffPosition="2.03125" Velocity="0" />
      <note Length="0.015625" Pitch="53" RiffPosition="2.046875" Velocity="0" />
      <note Length="0.015625" Pitch="60" RiffPosition="2.0625" Velocity="0" />
      <note Length="0.015625" Pitch="53" RiffPosition="2.078125" Velocity="0" />
      <note Length="0.015625" Pitch="53" RiffPosition="2.09375" Velocity="0" />
      <note Length="0.015625" Pitch="53" RiffPosition="2.109375" Velocity="0" />
      <note Length="0.0208333333333333" Pitch="67" RiffPosition="2.125" Velocity="0" />
      <note Length="0.0208333333333333" Pitch="72" RiffPosition="2.14583333333333" Velocity="0" />
      <note Length="0.0416666666666667" Pitch="70" RiffPosition="2.16666666666667" Velocity="0" />
      <note Length="0.0208333333333333" Pitch="65" RiffPosition="2.20833333333333" Velocity="0" />
      <note Length="0.0208333333333333" Pitch="65" RiffPosition="2.22916666666667" Velocity="0" />
      <note Length="0.0833333333333333" Pitch="53" RiffPosition="2.25" Velocity="0" />
      <note Length="0.0208333333333333" Pitch="61" RiffPosition="2.33333333333333" Velocity="0" />
      <note Length="0.0208333333333333" Pitch="53" RiffPosition="2.35416666666667" Velocity="0" />
      <note Length="0.0208333333333333" Pitch="53" RiffPosition="2.375" Velocity="0" />
      <note Length="0.0208333333333333" Pitch="68" RiffPosition="2.39583333333333" Velocity="0" />
      <note Length="0.0416666666666667" Pitch="65" RiffPosition="2.41666666666667" Velocity="0" />
      <note Length="0.0416666666666667" Pitch="67" RiffPosition="2.45833333333333" Velocity="0" />
      <note Length="0.0625" Pitch="53" RiffPosition="2.5" Velocity="0" />
      <note Length="0.0234375" Pitch="53" RiffPosition="2.5625" Velocity="0" />
      <note Length="0.01171875" Pitch="53" RiffPosition="2.5859375" Velocity="0" />
      <note Length="0.01171875" Pitch="53" RiffPosition="2.59765625" Velocity="0" />
      <note Length="0.0078125" Pitch="68" RiffPosition="2.609375" Velocity="0" />
      <note Length="0.0078125" Pitch="67" RiffPosition="2.6171875" Velocity="0" />
      <note Length="0.015625" Pitch="70" RiffPosition="2.625" Velocity="0" />
      <note Length="0.015625" Pitch="67" RiffPosition="2.640625" Velocity="0" />
      <note Length="0.015625" Pitch="68" RiffPosition="2.65625" Velocity="0" />
      <note Length="0.03125" Pitch="70" RiffPosition="2.671875" Velocity="0" />
      <note Length="0.015625" Pitch="67" RiffPosition="2.703125" Velocity="0" />
      <note Length="0.0234375" Pitch="65" RiffPosition="2.71875" Velocity="0" />
      <note Length="0.0234375" Pitch="53" RiffPosition="2.7421875" Velocity="0" />
      <note Length="0.0234375" Pitch="53" RiffPosition="2.765625" Velocity="0" />
      <note Length="0.0234375" Pitch="53" RiffPosition="2.7890625" Velocity="0" />
      <note Length="0.046875" Pitch="60" RiffPosition="2.8125" Velocity="0" />
      <note Length="0.0234375" Pitch="53" RiffPosition="2.859375" Velocity="0" />
      <note Length="0.0234375" Pitch="70" RiffPosition="2.8828125" Velocity="0" />
      <note Length="0.03125" Pitch="70" RiffPosition="2.90625" Velocity="0" />
      <note Length="0.03125" Pitch="70" RiffPosition="2.9375" Velocity="0" />
      <note Length="0.0104166666666667" Pitch="67" RiffPosition="2.96875" Velocity="0" />
      <note Length="0.0104166666666667" Pitch="65" RiffPosition="2.97916666666667" Velocity="0" />
      <note Length="0.0104166666666667" Pitch="53" RiffPosition="2.98958333333333" Velocity="0" />
      <note Length="0.015625" Pitch="53" RiffPosition="3" Velocity="0" />
      <note Length="0.015625" Pitch="60" RiffPosition="3.015625" Velocity="0" />
      <note Length="0.015625" Pitch="58" RiffPosition="3.03125" Velocity="0" />
      <note Length="0.015625" Pitch="53" RiffPosition="3.046875" Velocity="0" />
      <note Length="0.015625" Pitch="60" RiffPosition="3.0625" Velocity="0" />
      <note Length="0.015625" Pitch="53" RiffPosition="3.078125" Velocity="0" />
      <note Length="0.015625" Pitch="53" RiffPosition="3.09375" Velocity="0" />
      <note Length="0.015625" Pitch="53" RiffPosition="3.109375" Velocity="0" />
      <note Length="0.0208333333333333" Pitch="68" RiffPosition="3.125" Velocity="0" />
      <note Length="0.0208333333333333" Pitch="72" RiffPosition="3.14583333333333" Velocity="0" />
      <note Length="0.0416666666666667" Pitch="72" RiffPosition="3.16666666666667" Velocity="0" />
      <note Length="0.0208333333333333" Pitch="65" RiffPosition="3.20833333333333" Velocity="0" />
      <note Length="0.0208333333333333" Pitch="53" RiffPosition="3.22916666666667" Velocity="0" />
      <note Length="0.0833333333333333" Pitch="53" RiffPosition="3.25" Velocity="0" />
      <note Length="0.0208333333333333" Pitch="61" RiffPosition="3.33333333333333" Velocity="0" />
      <note Length="0.0208333333333333" Pitch="65" RiffPosition="3.35416666666667" Velocity="0" />
      <note Length="0.0208333333333333" Pitch="65" RiffPosition="3.375" Velocity="0" />
      <note Length="0.0208333333333333" Pitch="68" RiffPosition="3.39583333333333" Velocity="0" />
      <note Length="0.0416666666666667" Pitch="65" RiffPosition="3.41666666666667" Velocity="0" />
      <note Length="0.0416666666666667" Pitch="68" RiffPosition="3.45833333333333" Velocity="0" />
      <note Length="0.0625" Pitch="53" RiffPosition="3.5" Velocity="0" />
      <note Length="0.0234375" Pitch="53" RiffPosition="3.5625" Velocity="0" />
      <note Length="0.01171875" Pitch="60" RiffPosition="3.5859375" Velocity="0" />
      <note Length="0.01171875" Pitch="53" RiffPosition="3.59765625" Velocity="0" />
      <note Length="0.0078125" Pitch="53" RiffPosition="3.609375" Velocity="0" />
      <note Length="0.0078125" Pitch="67" RiffPosition="3.6171875" Velocity="0" />
      <note Length="0.015625" Pitch="70" RiffPosition="3.625" Velocity="0" />
      <note Length="0.015625" Pitch="68" RiffPosition="3.640625" Velocity="0" />
      <note Length="0.015625" Pitch="70" RiffPosition="3.65625" Velocity="0" />
      <note Length="0.03125" Pitch="70" RiffPosition="3.671875" Velocity="0" />
      <note Length="0.015625" Pitch="67" RiffPosition="3.703125" Velocity="0" />
      <note Length="0.0234375" Pitch="65" RiffPosition="3.71875" Velocity="0" />
      <note Length="0.0234375" Pitch="65" RiffPosition="3.7421875" Velocity="0" />
      <note Length="0.0234375" Pitch="58" RiffPosition="3.765625" Velocity="0" />
      <note Length="0.0234375" Pitch="60" RiffPosition="3.7890625" Velocity="0" />
      <note Length="0.046875" Pitch="60" RiffPosition="3.8125" Velocity="0" />
      <note Length="0.0234375" Pitch="65" RiffPosition="3.859375" Velocity="0" />
      <note Length="0.0234375" Pitch="70" RiffPosition="3.8828125" Velocity="0" />
      <note Length="0.03125" Pitch="68" RiffPosition="3.90625" Velocity="0" />
      <note Length="0.03125" Pitch="70" RiffPosition="3.9375" Velocity="0" />
      <note Length="0.0104166666666667" Pitch="53" RiffPosition="3.96875" Velocity="0" />
      <note Length="0.0104166666666667" Pitch="65" RiffPosition="3.97916666666667" Velocity="0" />
      <note Length="0.0104166666666667" Pitch="53" RiffPosition="3.98958333333333" Velocity="0" />
      <note Length="0.015625" Pitch="65" RiffPosition="4" Velocity="0" />
      <note Length="0.015625" Pitch="60" RiffPosition="4.015625" Velocity="0" />
      <note Length="0.015625" Pitch="58" RiffPosition="4.03125" Velocity="0" />
      <note Length="0.015625" Pitch="58" RiffPosition="4.046875" Velocity="0" />
      <note Length="0.015625" Pitch="53" RiffPosition="4.0625" Velocity="0" />
      <note Length="0.015625" Pitch="53" RiffPosition="4.078125" Velocity="0" />
      <note Length="0.015625" Pitch="53" RiffPosition="4.09375" Velocity="0" />
      <note Length="0.015625" Pitch="67" RiffPosition="4.109375" Velocity="0" />
      <note Length="0.0208333333333333" Pitch="53" RiffPosition="4.125" Velocity="0" />
      <note Length="0.0208333333333333" Pitch="68" RiffPosition="4.14583333333333" Velocity="0" />
      <note Length="0.0416666666666667" Pitch="72" RiffPosition="4.16666666666667" Velocity="0" />
      <note Length="0.0208333333333333" Pitch="67" RiffPosition="4.20833333333333" Velocity="0" />
      <note Length="0.0208333333333333" Pitch="53" RiffPosition="4.22916666666667" Velocity="0" />
      <note Length="0.0833333333333333" Pitch="53" RiffPosition="4.25" Velocity="0" />
      <note Length="0.0208333333333333" Pitch="53" RiffPosition="4.33333333333333" Velocity="0" />
      <note Length="0.0208333333333333" Pitch="65" RiffPosition="4.35416666666667" Velocity="0" />
      <note Length="0.0208333333333333" Pitch="70" RiffPosition="4.375" Velocity="0" />
      <note Length="0.0208333333333333" Pitch="70" RiffPosition="4.39583333333333" Velocity="0" />
      <note Length="0.0416666666666667" Pitch="65" RiffPosition="4.41666666666667" Velocity="0" />
      <note Length="0.0416666666666667" Pitch="68" RiffPosition="4.45833333333333" Velocity="0" />
      <note Length="0.0625" Pitch="53" RiffPosition="4.5" Velocity="0" />
      <note Length="0.0234375" Pitch="58" RiffPosition="4.5625" Velocity="0" />
      <note Length="0.01171875" Pitch="53" RiffPosition="4.5859375" Velocity="0" />
      <note Length="0.01171875" Pitch="53" RiffPosition="4.59765625" Velocity="0" />
      <note Length="0.0078125" Pitch="53" RiffPosition="4.609375" Velocity="0" />
      <note Length="0.0078125" Pitch="68" RiffPosition="4.6171875" Velocity="0" />
      <note Length="0.015625" Pitch="67" RiffPosition="4.625" Velocity="0" />
      <note Length="0.015625" Pitch="68" RiffPosition="4.640625" Velocity="0" />
      <note Length="0.015625" Pitch="70" RiffPosition="4.65625" Velocity="0" />
      <note Length="0.03125" Pitch="70" RiffPosition="4.671875" Velocity="0" />
      <note Length="0.015625" Pitch="53" RiffPosition="4.703125" Velocity="0" />
      <note Length="0.0234375" Pitch="65" RiffPosition="4.71875" Velocity="0" />
      <note Length="0.0234375" Pitch="53" RiffPosition="4.7421875" Velocity="0" />
      <note Length="0.0234375" Pitch="58" RiffPosition="4.765625" Velocity="0" />
      <note Length="0.0234375" Pitch="58" RiffPosition="4.7890625" Velocity="0" />
      <note Length="0.046875" Pitch="60" RiffPosition="4.8125" Velocity="0" />
      <note Length="0.0234375" Pitch="53" RiffPosition="4.859375" Velocity="0" />
      <note Length="0.0234375" Pitch="67" RiffPosition="4.8828125" Velocity="0" />
      <note Length="0.03125" Pitch="65" RiffPosition="4.90625" Velocity="0" />
      <note Length="0.03125" Pitch="70" RiffPosition="4.9375" Velocity="0" />
      <note Length="0.0104166666666667" Pitch="53" RiffPosition="4.96875" Velocity="0" />
      <note Length="0.0104166666666667" Pitch="53" RiffPosition="4.97916666666667" Velocity="0" />
      <note Length="0.0104166666666667" Pitch="53" RiffPosition="4.98958333333333" Velocity="0" />
      <note Length="0.015625" Pitch="53" RiffPosition="5" Velocity="0" />
      <note Length="0.015625" Pitch="53" RiffPosition="5.015625" Velocity="0" />
      <note Length="0.015625" Pitch="60" RiffPosition="5.03125" Velocity="0" />
      <note Length="0.015625" Pitch="60" RiffPosition="5.046875" Velocity="0" />
      <note Length="0.015625" Pitch="53" RiffPosition="5.0625" Velocity="0" />
      <note Length="0.015625" Pitch="60" RiffPosition="5.078125" Velocity="0" />
      <note Length="0.015625" Pitch="53" RiffPosition="5.09375" Velocity="0" />
      <note Length="0.015625" Pitch="67" RiffPosition="5.109375" Velocity="0" />
      <note Length="0.0208333333333333" Pitch="53" RiffPosition="5.125" Velocity="0" />
      <note Length="0.0208333333333333" Pitch="68" RiffPosition="5.14583333333333" Velocity="0" />
      <note Length="0.0416666666666667" Pitch="65" RiffPosition="5.16666666666667" Velocity="0" />
      <note Length="0.0208333333333333" Pitch="67" RiffPosition="5.20833333333333" Velocity="0" />
      <note Length="0.0208333333333333" Pitch="67" RiffPosition="5.22916666666667" Velocity="0" />
      <note Length="0.0833333333333333" Pitch="53" RiffPosition="5.25" Velocity="0" />
      <note Length="0.0208333333333333" Pitch="65" RiffPosition="5.33333333333333" Velocity="0" />
      <note Length="0.0208333333333333" Pitch="65" RiffPosition="5.35416666666667" Velocity="0" />
      <note Length="0.0208333333333333" Pitch="70" RiffPosition="5.375" Velocity="0" />
      <note Length="0.0208333333333333" Pitch="70" RiffPosition="5.39583333333333" Velocity="0" />
      <note Length="0.0416666666666667" Pitch="70" RiffPosition="5.41666666666666" Velocity="0" />
      <note Length="0.0416666666666667" Pitch="65" RiffPosition="5.45833333333333" Velocity="0" />
      <note Length="0.0625" Pitch="60" RiffPosition="5.5" Velocity="0" />
      <note Length="0.0234375" Pitch="60" RiffPosition="5.5625" Velocity="0" />
      <note Length="0.01171875" Pitch="53" RiffPosition="5.5859375" Velocity="0" />
      <note Length="0.01171875" Pitch="65" RiffPosition="5.59765625" Velocity="0" />
      <note Length="0.0078125" Pitch="53" RiffPosition="5.609375" Velocity="0" />
      <note Length="0.0078125" Pitch="53" RiffPosition="5.6171875" Velocity="0" />
      <note Length="0.015625" Pitch="67" RiffPosition="5.625" Velocity="0" />
      <note Length="0.015625" Pitch="68" RiffPosition="5.640625" Velocity="0" />
      <note Length="0.015625" Pitch="67" RiffPosition="5.65625" Velocity="0" />
      <note Length="0.03125" Pitch="72" RiffPosition="5.671875" Velocity="0" />
      <note Length="0.015625" Pitch="68" RiffPosition="5.703125" Velocity="0" />
      <note Length="0.0234375" Pitch="53" RiffPosition="5.71875" Velocity="0" />
      <note Length="0.0234375" Pitch="53" RiffPosition="5.7421875" Velocity="0" />
      <note Length="0.0234375" Pitch="60" RiffPosition="5.765625" Velocity="0" />
      <note Length="0.0234375" Pitch="60" RiffPosition="5.7890625" Velocity="0" />
      <note Length="0.046875" Pitch="53" RiffPosition="5.8125" Velocity="0" />
      <note Length="0.0234375" Pitch="65" RiffPosition="5.859375" Velocity="0" />
      <note Length="0.0234375" Pitch="67" RiffPosition="5.8828125" Velocity="0" />
      <note Length="0.03125" Pitch="65" RiffPosition="5.90625" Velocity="0" />
      <note Length="0.03125" Pitch="67" RiffPosition="5.9375" Velocity="0" />
      <note Length="0.0104166666666667" Pitch="68" RiffPosition="5.96875" Velocity="0" />
      <note Length="0.0104166666666667" Pitch="53" RiffPosition="5.97916666666667" Velocity="0" />
      <note Length="0.0104166666666667" Pitch="53" RiffPosition="5.98958333333333" Velocity="0" />
      <note Length="0.015625" Pitch="53" RiffPosition="6" Velocity="0" />
      <note Length="0.015625" Pitch="53" RiffPosition="6.015625" Velocity="0" />
      <note Length="0.015625" Pitch="60" RiffPosition="6.03125" Velocity="0" />
      <note Length="0.015625" Pitch="60" RiffPosition="6.046875" Velocity="0" />
      <note Length="0.015625" Pitch="61" RiffPosition="6.0625" Velocity="0" />
      <note Length="0.015625" Pitch="53" RiffPosition="6.078125" Velocity="0" />
      <note Length="0.015625" Pitch="53" RiffPosition="6.09375" Velocity="0" />
      <note Length="0.015625" Pitch="67" RiffPosition="6.109375" Velocity="0" />
      <note Length="0.0208333333333333" Pitch="70" RiffPosition="6.125" Velocity="0" />
      <note Length="0.0208333333333333" Pitch="68" RiffPosition="6.14583333333333" Velocity="0" />
      <note Length="0.0416666666666667" Pitch="65" RiffPosition="6.16666666666667" Velocity="0" />
      <note Length="0.0208333333333333" Pitch="68" RiffPosition="6.20833333333333" Velocity="0" />
      <note Length="0.0208333333333333" Pitch="67" RiffPosition="6.22916666666667" Velocity="0" />
      <note Length="0.0833333333333333" Pitch="53" RiffPosition="6.25" Velocity="0" />
      <note Length="0.0208333333333333" Pitch="53" RiffPosition="6.33333333333333" Velocity="0" />
      <note Length="0.0208333333333333" Pitch="53" RiffPosition="6.35416666666666" Velocity="0" />
      <note Length="0.0208333333333333" Pitch="65" RiffPosition="6.375" Velocity="0" />
      <note Length="0.0208333333333333" Pitch="70" RiffPosition="6.39583333333333" Velocity="0" />
      <note Length="0.0416666666666667" Pitch="70" RiffPosition="6.41666666666666" Velocity="0" />
      <note Length="0.0416666666666667" Pitch="53" RiffPosition="6.45833333333333" Velocity="0" />
      <note Length="0.0625" Pitch="53" RiffPosition="6.5" Velocity="0" />
      <note Length="0.0234375" Pitch="60" RiffPosition="6.5625" Velocity="0" />
      <note Length="0.01171875" Pitch="53" RiffPosition="6.5859375" Velocity="0" />
      <note Length="0.01171875" Pitch="65" RiffPosition="6.59765625" Velocity="0" />
      <note Length="0.0078125" Pitch="70" RiffPosition="6.609375" Velocity="0" />
      <note Length="0.0078125" Pitch="53" RiffPosition="6.6171875" Velocity="0" />
      <note Length="0.015625" Pitch="67" RiffPosition="6.625" Velocity="0" />
      <note Length="0.015625" Pitch="70" RiffPosition="6.640625" Velocity="0" />
      <note Length="0.015625" Pitch="72" RiffPosition="6.65625" Velocity="0" />
      <note Length="0.03125" Pitch="67" RiffPosition="6.671875" Velocity="0" />
      <note Length="0.015625" Pitch="68" RiffPosition="6.703125" Velocity="0" />
      <note Length="0.0234375" Pitch="53" RiffPosition="6.71875" Velocity="0" />
      <note Length="0.0234375" Pitch="53" RiffPosition="6.7421875" Velocity="0" />
      <note Length="0.0234375" Pitch="53" RiffPosition="6.765625" Velocity="0" />
      <note Length="0.0234375" Pitch="55" RiffPosition="6.7890625" Velocity="0" />
      <note Length="0.046875" Pitch="61" RiffPosition="6.8125" Velocity="0" />
      <note Length="0.0234375" Pitch="67" RiffPosition="6.859375" Velocity="0" />
      <note Length="0.0234375" Pitch="67" RiffPosition="6.8828125" Velocity="0" />
      <note Length="0.03125" Pitch="65" RiffPosition="6.90625" Velocity="0" />
      <note Length="0.03125" Pitch="68" RiffPosition="6.9375" Velocity="0" />
      <note Length="0.0104166666666667" Pitch="65" RiffPosition="6.96875" Velocity="0" />
      <note Length="0.0104166666666667" Pitch="67" RiffPosition="6.97916666666666" Velocity="0" />
      <note Length="0.0104166666666667" Pitch="61" RiffPosition="6.98958333333333" Velocity="0" />
      <note Length="0.015625" Pitch="53" RiffPosition="7" Velocity="0" />
      <note Length="0.015625" Pitch="61" RiffPosition="7.015625" Velocity="0" />
      <note Length="0.015625" Pitch="60" RiffPosition="7.03125" Velocity="0" />
      <note Length="0.015625" Pitch="60" RiffPosition="7.046875" Velocity="0" />
      <note Length="0.015625" Pitch="53" RiffPosition="7.0625" Velocity="0" />
      <note Length="0.015625" Pitch="53" RiffPosition="7.078125" Velocity="0" />
      <note Length="0.015625" Pitch="53" RiffPosition="7.09375" Velocity="0" />
      <note Length="0.015625" Pitch="53" RiffPosition="7.109375" Velocity="0" />
      <note Length="0.0208333333333333" Pitch="70" RiffPosition="7.125" Velocity="0" />
      <note Length="0.0208333333333333" Pitch="68" RiffPosition="7.14583333333333" Velocity="0" />
      <note Length="0.0416666666666667" Pitch="70" RiffPosition="7.16666666666666" Velocity="0" />
      <note Length="0.0208333333333333" Pitch="53" RiffPosition="7.20833333333333" Velocity="0" />
      <note Length="0.0208333333333333" Pitch="53" RiffPosition="7.22916666666666" Velocity="0" />
      <note Length="0.0833333333333333" Pitch="60" RiffPosition="7.25" Velocity="0" />
      <note Length="0.0208333333333333" Pitch="53" RiffPosition="7.33333333333333" Velocity="0" />
      <note Length="0.0208333333333333" Pitch="53" RiffPosition="7.35416666666666" Velocity="0" />
      <note Length="0.0208333333333333" Pitch="67" RiffPosition="7.375" Velocity="0" />
      <note Length="0.0208333333333333" Pitch="72" RiffPosition="7.39583333333333" Velocity="0" />
      <note Length="0.0416666666666667" Pitch="70" RiffPosition="7.41666666666666" Velocity="0" />
      <note Length="0.0416666666666667" Pitch="70" RiffPosition="7.45833333333333" Velocity="0" />
      <note Length="0.0625" Pitch="65" RiffPosition="7.5" Velocity="0" />
      <note Length="0.0234375" Pitch="53" RiffPosition="7.5625" Velocity="0" />
      <note Length="0.01171875" Pitch="53" RiffPosition="7.5859375" Velocity="0" />
      <note Length="0.01171875" Pitch="65" RiffPosition="7.59765625" Velocity="0" />
      <note Length="0.0078125" Pitch="65" RiffPosition="7.609375" Velocity="0" />
      <note Length="0.0078125" Pitch="70" RiffPosition="7.6171875" Velocity="0" />
      <note Length="0.015625" Pitch="53" RiffPosition="7.625" Velocity="0" />
      <note Length="0.015625" Pitch="68" RiffPosition="7.640625" Velocity="0" />
      <note Length="0.015625" Pitch="72" RiffPosition="7.65625" Velocity="0" />
      <note Length="0.03125" Pitch="68" RiffPosition="7.671875" Velocity="0" />
      <note Length="0.015625" Pitch="70" RiffPosition="7.703125" Velocity="0" />
      <note Length="0.0234375" Pitch="68" RiffPosition="7.71875" Velocity="0" />
      <note Length="0.0234375" Pitch="53" RiffPosition="7.7421875" Velocity="0" />
      <note Length="0.0234375" Pitch="60" RiffPosition="7.765625" Velocity="0" />
      <note Length="0.0234375" Pitch="56" RiffPosition="7.7890625" Velocity="0" />
      <note Length="0.046875" Pitch="53" RiffPosition="7.8125" Velocity="0" />
      <note Length="0.0234375" Pitch="67" RiffPosition="7.859375" Velocity="0" />
      <note Length="0.0234375" Pitch="65" RiffPosition="7.8828125" Velocity="0" />
      <note Length="0.03125" Pitch="70" RiffPosition="7.90625" Velocity="0" />
      <note Length="0.03125" Pitch="68" RiffPosition="7.9375" Velocity="0" />
      <note Length="0.0104166666666667" Pitch="65" RiffPosition="7.96875" Velocity="0" />
      <note Length="0.0104166666666667" Pitch="67" RiffPosition="7.97916666666666" Velocity="0" />
      <note Length="0.0104166666666667" Pitch="61" RiffPosition="7.98958333333333" Velocity="0" />
      <note Length="0.015625" Pitch="53" RiffPosition="8" Velocity="0" />
      <note Length="0.015625" Pitch="53" RiffPosition="8.015625" Velocity="40" />
      <note Length="0.015625" Pitch="61" RiffPosition="8.03125" Velocity="46" />
      <note Length="0.015625" Pitch="56" RiffPosition="8.046875" Velocity="52" />
      <note Length="0.015625" Pitch="58" RiffPosition="8.0625" Velocity="56" />
      <note Length="0.015625" Pitch="53" RiffPosition="8.078125" Velocity="58" />
      <note Length="0.015625" Pitch="65" RiffPosition="8.09375" Velocity="58" />
      <note Length="0.015625" Pitch="53" RiffPosition="8.109375" Velocity="58" />
      <note Length="0.0208333333333333" Pitch="67" RiffPosition="8.125" Velocity="61" />
      <note Length="0.0208333333333333" Pitch="70" RiffPosition="8.14583333333333" Velocity="73" />
      <note Length="0.0416666666666667" Pitch="68" RiffPosition="8.16666666666666" Velocity="89" />
      <note Length="0.0208333333333333" Pitch="53" RiffPosition="8.20833333333333" Velocity="102" />
      <note Length="0.0208333333333333" Pitch="53" RiffPosition="8.22916666666666" Velocity="88" />
      <note Length="0.0833333333333333" Pitch="53" RiffPosition="8.25" Velocity="67" />
      <note Length="0.0208333333333333" Pitch="53" RiffPosition="8.33333333333333" Velocity="72" />
      <note Length="0.0208333333333333" Pitch="68" RiffPosition="8.35416666666667" Velocity="83" />
      <note Length="0.0208333333333333" Pitch="67" RiffPosition="8.375" Velocity="87" />
      <note Length="0.0208333333333333" Pitch="72" RiffPosition="8.39583333333333" Velocity="79" />
      <note Length="0.0416666666666667" Pitch="70" RiffPosition="8.41666666666667" Velocity="63" />
      <note Length="0.0416666666666667" Pitch="70" RiffPosition="8.45833333333333" Velocity="39" />
      <note Length="0.0625" Pitch="61" RiffPosition="8.5" Velocity="38" />
      <note Length="0.0234375" Pitch="61" RiffPosition="8.5625" Velocity="47" />
      <note Length="0.01171875" Pitch="61" RiffPosition="8.5859375" Velocity="54" />
      <note Length="0.01171875" Pitch="65" RiffPosition="8.59765625" Velocity="58" />
      <note Length="0.0078125" Pitch="65" RiffPosition="8.609375" Velocity="61" />
      <note Length="0.0078125" Pitch="68" RiffPosition="8.6171875" Velocity="63" />
      <note Length="0.015625" Pitch="68" RiffPosition="8.625" Velocity="64" />
      <note Length="0.015625" Pitch="65" RiffPosition="8.640625" Velocity="61" />
      <note Length="0.015625" Pitch="65" RiffPosition="8.65625" Velocity="53" />
      <note Length="0.03125" Pitch="65" RiffPosition="8.671875" Velocity="38" />
      <note Length="0.015625" Pitch="65" RiffPosition="8.703125" Velocity="55" />
      <note Length="0.0234375" Pitch="53" RiffPosition="8.71875" Velocity="59" />
      <note Length="0.0234375" Pitch="61" RiffPosition="8.7421875" Velocity="57" />
      <note Length="0.0234375" Pitch="61" RiffPosition="8.765625" Velocity="53" />
      <note Length="0.0234375" Pitch="56" RiffPosition="8.7890625" Velocity="51" />
      <note Length="0.046875" Pitch="61" RiffPosition="8.8125" Velocity="51" />
      <note Length="0.0234375" Pitch="53" RiffPosition="8.859375" Velocity="36" />
      <note Length="0.0234375" Pitch="70" RiffPosition="8.8828125" Velocity="40" />
      <note Length="0.03125" Pitch="70" RiffPosition="8.90625" Velocity="36" />
      <note Length="0.03125" Pitch="68" RiffPosition="8.9375" Velocity="53" />
      <note Length="0.0104166666666667" Pitch="65" RiffPosition="8.96875" Velocity="58" />
      <note Length="0.0104166666666667" Pitch="53" RiffPosition="8.97916666666667" Velocity="56" />
      <note Length="0.0104166666666667" Pitch="65" RiffPosition="8.98958333333333" Velocity="52" />
      <note Length="0.015625" Pitch="60" RiffPosition="9" Velocity="50" />
      <note Length="0.015625" Pitch="53" RiffPosition="9.015625" Velocity="48" />
      <note Length="0.015625" Pitch="61" RiffPosition="9.03125" Velocity="47" />
      <note Length="0.015625" Pitch="61" RiffPosition="9.046875" Velocity="46" />
      <note Length="0.015625" Pitch="60" RiffPosition="9.0625" Velocity="43" />
      <note Length="0.015625" Pitch="61" RiffPosition="9.078125" Velocity="38" />
      <note Length="0.015625" Pitch="67" RiffPosition="9.09375" Velocity="39" />
      <note Length="0.015625" Pitch="65" RiffPosition="9.109375" Velocity="46" />
      <note Length="0.0208333333333333" Pitch="65" RiffPosition="9.125" Velocity="49" />
      <note Length="0.0208333333333333" Pitch="70" RiffPosition="9.14583333333333" Velocity="47" />
      <note Length="0.0416666666666667" Pitch="70" RiffPosition="9.16666666666667" Velocity="40" />
      <note Length="0.0208333333333333" Pitch="70" RiffPosition="9.20833333333333" Velocity="39" />
      <note Length="0.0208333333333333" Pitch="53" RiffPosition="9.22916666666667" Velocity="44" />
      <note Length="0.0833333333333333" Pitch="53" RiffPosition="9.25" Velocity="55" />
      <note Length="0.0208333333333333" Pitch="53" RiffPosition="9.33333333333333" Velocity="87" />
      <note Length="0.0208333333333333" Pitch="67" RiffPosition="9.35416666666667" Velocity="89" />
      <note Length="0.0208333333333333" Pitch="53" RiffPosition="9.375" Velocity="83" />
      <note Length="0.0208333333333333" Pitch="68" RiffPosition="9.39583333333334" Velocity="67" />
      <note Length="0.0416666666666667" Pitch="65" RiffPosition="9.41666666666667" Velocity="40" />
      <note Length="0.0416666666666667" Pitch="65" RiffPosition="9.45833333333334" Velocity="80" />
      <note Length="0.0625" Pitch="53" RiffPosition="9.5" Velocity="98" />
      <note Length="0.0234375" Pitch="61" RiffPosition="9.5625" Velocity="84" />
      <note Length="0.01171875" Pitch="53" RiffPosition="9.5859375" Velocity="68" />
      <note Length="0.01171875" Pitch="53" RiffPosition="9.59765625" Velocity="58" />
      <note Length="0.0078125" Pitch="67" RiffPosition="9.609375" Velocity="49" />
      <note Length="0.0078125" Pitch="65" RiffPosition="9.6171875" Velocity="44" />
      <note Length="0.015625" Pitch="70" RiffPosition="9.625" Velocity="40" />
      <note Length="0.015625" Pitch="67" RiffPosition="9.640625" Velocity="36" />
      <note Length="0.015625" Pitch="68" RiffPosition="9.65625" Velocity="37" />
      <note Length="0.03125" Pitch="65" RiffPosition="9.671875" Velocity="44" />
      <note Length="0.015625" Pitch="65" RiffPosition="9.703125" Velocity="54" />
      <note Length="0.0234375" Pitch="65" RiffPosition="9.71875" Velocity="51" />
      <note Length="0.0234375" Pitch="53" RiffPosition="9.7421875" Velocity="38" />
      <note Length="0.0234375" Pitch="61" RiffPosition="9.765625" Velocity="46" />
      <note Length="0.0234375" Pitch="61" RiffPosition="9.7890625" Velocity="58" />
      <note Length="0.046875" Pitch="53" RiffPosition="9.8125" Velocity="69" />
      <note Length="0.0234375" Pitch="53" RiffPosition="9.859375" Velocity="105" />
      <note Length="0.0234375" Pitch="68" RiffPosition="9.8828125" Velocity="107" />
      <note Length="0.03125" Pitch="70" RiffPosition="9.90625" Velocity="91" />
      <note Length="0.03125" Pitch="70" RiffPosition="9.9375" Velocity="60" />
      <note Length="0.0104166666666667" Pitch="65" RiffPosition="9.96875" Velocity="41" />
      <note Length="0.0104166666666667" Pitch="53" RiffPosition="9.97916666666667" Velocity="39" />
      <note Length="0.0104166666666667" Pitch="65" RiffPosition="9.98958333333333" Velocity="38" />
      <note Length="0.015625" Pitch="53" RiffPosition="10" Velocity="35" />
      <note Length="0.015625" Pitch="60" RiffPosition="10.015625" Velocity="40" />
      <note Length="0.015625" Pitch="61" RiffPosition="10.03125" Velocity="46" />
      <note Length="0.015625" Pitch="53" RiffPosition="10.046875" Velocity="52" />
      <note Length="0.015625" Pitch="60" RiffPosition="10.0625" Velocity="56" />
      <note Length="0.015625" Pitch="61" RiffPosition="10.078125" Velocity="58" />
      <note Length="0.015625" Pitch="53" RiffPosition="10.09375" Velocity="58" />
      <note Length="0.015625" Pitch="68" RiffPosition="10.109375" Velocity="58" />
      <note Length="0.0208333333333333" Pitch="67" RiffPosition="10.125" Velocity="61" />
      <note Length="0.0208333333333333" Pitch="72" RiffPosition="10.1458333333333" Velocity="73" />
      <note Length="0.0416666666666667" Pitch="70" RiffPosition="10.1666666666667" Velocity="89" />
      <note Length="0.0208333333333333" Pitch="68" RiffPosition="10.2083333333333" Velocity="102" />
      <note Length="0.0208333333333333" Pitch="53" RiffPosition="10.2291666666667" Velocity="88" />
      <note Length="0.0833333333333333" Pitch="53" RiffPosition="10.25" Velocity="67" />
      <note Length="0.0208333333333333" Pitch="61" RiffPosition="10.3333333333333" Velocity="72" />
      <note Length="0.0208333333333333" Pitch="53" RiffPosition="10.3541666666667" Velocity="83" />
      <note Length="0.0208333333333333" Pitch="68" RiffPosition="10.375" Velocity="87" />
      <note Length="0.0208333333333333" Pitch="68" RiffPosition="10.3958333333333" Velocity="79" />
      <note Length="0.0416666666666667" Pitch="65" RiffPosition="10.4166666666667" Velocity="63" />
      <note Length="0.0416666666666667" Pitch="67" RiffPosition="10.4583333333333" Velocity="39" />
      <note Length="0.0625" Pitch="53" RiffPosition="10.5" Velocity="38" />
      <note Length="0.0234375" Pitch="53" RiffPosition="10.5625" Velocity="47" />
      <note Length="0.01171875" Pitch="67" RiffPosition="10.5859375" Velocity="54" />
      <note Length="0.01171875" Pitch="53" RiffPosition="10.59765625" Velocity="58" />
      <note Length="0.0078125" Pitch="53" RiffPosition="10.609375" Velocity="61" />
      <note Length="0.0078125" Pitch="65" RiffPosition="10.6171875" Velocity="63" />
      <note Length="0.015625" Pitch="68" RiffPosition="10.625" Velocity="64" />
      <note Length="0.015625" Pitch="72" RiffPosition="10.640625" Velocity="61" />
      <note Length="0.015625" Pitch="68" RiffPosition="10.65625" Velocity="53" />
      <note Length="0.03125" Pitch="70" RiffPosition="10.671875" Velocity="38" />
      <note Length="0.015625" Pitch="65" RiffPosition="10.703125" Velocity="55" />
      <note Length="0.0234375" Pitch="65" RiffPosition="10.71875" Velocity="59" />
      <note Length="0.0234375" Pitch="65" RiffPosition="10.7421875" Velocity="57" />
      <note Length="0.0234375" Pitch="53" RiffPosition="10.765625" Velocity="53" />
      <note Length="0.0234375" Pitch="58" RiffPosition="10.7890625" Velocity="51" />
      <note Length="0.046875" Pitch="58" RiffPosition="10.8125" Velocity="51" />
      <note Length="0.0234375" Pitch="53" RiffPosition="10.859375" Velocity="36" />
      <note Length="0.0234375" Pitch="70" RiffPosition="10.8828125" Velocity="40" />
      <note Length="0.03125" Pitch="65" RiffPosition="10.90625" Velocity="36" />
      <note Length="0.03125" Pitch="70" RiffPosition="10.9375" Velocity="53" />
      <note Length="0.0104166666666667" Pitch="53" RiffPosition="10.96875" Velocity="58" />
      <note Length="0.0104166666666667" Pitch="65" RiffPosition="10.9791666666667" Velocity="56" />
      <note Length="0.0104166666666667" Pitch="53" RiffPosition="10.9895833333333" Velocity="52" />
      <note Length="0.015625" Pitch="53" RiffPosition="11" Velocity="50" />
      <note Length="0.015625" Pitch="60" RiffPosition="11,015625" Velocity="48" />
      <note Length="0.015625" Pitch="58" RiffPosition="11,03125" Velocity="47" />
      <note Length="0.015625" Pitch="58" RiffPosition="11,046875" Velocity="46" />
      <note Length="0.015625" Pitch="53" RiffPosition="11,0625" Velocity="43" />
      <note Length="0.015625" Pitch="53" RiffPosition="11,078125" Velocity="38" />
      <note Length="0.015625" Pitch="53" RiffPosition="11,09375" Velocity="39" />
      <note Length="0.015625" Pitch="65" RiffPosition="11,109375" Velocity="46" />
      <note Length="0.0208333333333333" Pitch="68" RiffPosition="11,125" Velocity="49" />
      <note Length="0.0208333333333333" Pitch="67" RiffPosition="11,1458333333333" Velocity="47" />
      <note Length="0.0416666666666667" Pitch="72" RiffPosition="11,1666666666667" Velocity="40" />
      <note Length="0.0208333333333333" Pitch="65" RiffPosition="11,2083333333333" Velocity="39" />
      <note Length="0.0208333333333333" Pitch="53" RiffPosition="11,2291666666667" Velocity="44" />
      <note Length="0.0833333333333333" Pitch="61" RiffPosition="11,25" Velocity="55" />
      <note Length="0.0208333333333333" Pitch="61" RiffPosition="11,3333333333333" Velocity="87" />
      <note Length="0.0208333333333333" Pitch="53" RiffPosition="11,3541666666667" Velocity="89" />
      <note Length="0.0208333333333333" Pitch="68" RiffPosition="11,375" Velocity="83" />
      <note Length="0.0208333333333333" Pitch="68" RiffPosition="11,3958333333333" Velocity="67" />
      <note Length="0.0416666666666667" Pitch="65" RiffPosition="11,4166666666667" Velocity="40" />
      <note Length="0.0416666666666667" Pitch="67" RiffPosition="11,4583333333333" Velocity="80" />
      <note Length="0.0625" Pitch="53" RiffPosition="11,5" Velocity="98" />
      <note Length="0.0234375" Pitch="61" RiffPosition="11,5625" Velocity="84" />
      <note Length="0.01171875" Pitch="53" RiffPosition="11,5859375" Velocity="68" />
      <note Length="0.01171875" Pitch="53" RiffPosition="11,59765625" Velocity="58" />
      <note Length="0.0078125" Pitch="53" RiffPosition="11,609375" Velocity="49" />
      <note Length="0.0078125" Pitch="67" RiffPosition="11,6171875" Velocity="44" />
      <note Length="0.015625" Pitch="65" RiffPosition="11,625" Velocity="40" />
      <note Length="0.015625" Pitch="72" RiffPosition="11,640625" Velocity="36" />
      <note Length="0.015625" Pitch="70" RiffPosition="11,65625" Velocity="37" />
      <note Length="0.03125" Pitch="70" RiffPosition="11,671875" Velocity="44" />
      <note Length="0.015625" Pitch="53" RiffPosition="11,703125" Velocity="54" />
      <note Length="0.0234375" Pitch="65" RiffPosition="11,71875" Velocity="51" />
      <note Length="0.0234375" Pitch="65" RiffPosition="11,7421875" Velocity="38" />
      <note Length="0.0234375" Pitch="58" RiffPosition="11,765625" Velocity="46" />
      <note Length="0.0234375" Pitch="58" RiffPosition="11,7890625" Velocity="58" />
      <note Length="0.046875" Pitch="60" RiffPosition="11,8125" Velocity="69" />
      <note Length="0.0234375" Pitch="70" RiffPosition="11,859375" Velocity="105" />
      <note Length="0.0234375" Pitch="65" RiffPosition="11,8828125" Velocity="107" />
      <note Length="0.03125" Pitch="72" RiffPosition="11,90625" Velocity="91" />
      <note Length="0.03125" Pitch="70" RiffPosition="11,9375" Velocity="60" />
      <note Length="0.0104166666666667" Pitch="53" RiffPosition="11,96875" Velocity="41" />
      <note Length="0.0104166666666667" Pitch="53" RiffPosition="11,9791666666667" Velocity="39" />
      <note Length="0.0104166666666667" Pitch="53" RiffPosition="11,9895833333333" Velocity="38" />
      <note Length="0.015625" Pitch="53" RiffPosition="12" Velocity="35" />
      <note Length="0.015625" Pitch="53" RiffPosition="12.015625" Velocity="40" />
      <note Length="0.015625" Pitch="58" RiffPosition="12.03125" Velocity="46" />
      <note Length="0.015625" Pitch="58" RiffPosition="12.046875" Velocity="52" />
      <note Length="0.015625" Pitch="61" RiffPosition="12.0625" Velocity="56" />
      <note Length="0.015625" Pitch="53" RiffPosition="12.078125" Velocity="58" />
      <note Length="0.015625" Pitch="53" RiffPosition="12.09375" Velocity="58" />
      <note Length="0.015625" Pitch="65" RiffPosition="12.109375" Velocity="58" />
      <note Length="0.0208333333333333" Pitch="68" RiffPosition="12.125" Velocity="61" />
      <note Length="0.0208333333333333" Pitch="68" RiffPosition="12.1458333333333" Velocity="73" />
      <note Length="0.0416666666666667" Pitch="72" RiffPosition="12.1666666666667" Velocity="89" />
      <note Length="0.0208333333333333" Pitch="65" RiffPosition="12.2083333333333" Velocity="102" />
      <note Length="0.0208333333333333" Pitch="65" RiffPosition="12.2291666666667" Velocity="88" />
      <note Length="0.0833333333333333" Pitch="53" RiffPosition="12.25" Velocity="67" />
      <note Length="0.0208333333333333" Pitch="65" RiffPosition="12.3333333333333" Velocity="72" />
      <note Length="0.0208333333333333" Pitch="65" RiffPosition="12.3541666666667" Velocity="83" />
      <note Length="0.0208333333333333" Pitch="70" RiffPosition="12.375" Velocity="87" />
      <note Length="0.0208333333333333" Pitch="70" RiffPosition="12.3958333333333" Velocity="79" />
      <note Length="0.0416666666666667" Pitch="65" RiffPosition="12.4166666666667" Velocity="63" />
      <note Length="0.0416666666666667" Pitch="68" RiffPosition="12.4583333333333" Velocity="39" />
      <note Length="0.0625" Pitch="60" RiffPosition="12.5" Velocity="38" />
      <note Length="0.0234375" Pitch="58" RiffPosition="12.5625" Velocity="47" />
      <note Length="0.01171875" Pitch="53" RiffPosition="12.5859375" Velocity="54" />
      <note Length="0.01171875" Pitch="68" RiffPosition="12.59765625" Velocity="58" />
      <note Length="0.0078125" Pitch="53" RiffPosition="12.609375" Velocity="61" />
      <note Length="0.0078125" Pitch="65" RiffPosition="12.6171875" Velocity="63" />
      <note Length="0.015625" Pitch="65" RiffPosition="12.625" Velocity="64" />
      <note Length="0.015625" Pitch="68" RiffPosition="12.640625" Velocity="61" />
      <note Length="0.015625" Pitch="65" RiffPosition="12.65625" Velocity="53" />
      <note Length="0.03125" Pitch="70" RiffPosition="12.671875" Velocity="38" />
      <note Length="0.015625" Pitch="68" RiffPosition="12.703125" Velocity="55" />
      <note Length="0.0234375" Pitch="53" RiffPosition="12.71875" Velocity="59" />
      <note Length="0.0234375" Pitch="53" RiffPosition="12.7421875" Velocity="57" />
      <note Length="0.0234375" Pitch="58" RiffPosition="12.765625" Velocity="53" />
      <note Length="0.0234375" Pitch="58" RiffPosition="12.7890625" Velocity="51" />
      <note Length="0.046875" Pitch="53" RiffPosition="12.8125" Velocity="51" />
      <note Length="0.0234375" Pitch="65" RiffPosition="12.859375" Velocity="36" />
      <note Length="0.0234375" Pitch="67" RiffPosition="12.8828125" Velocity="40" />
      <note Length="0.03125" Pitch="65" RiffPosition="12.90625" Velocity="36" />
      <note Length="0.03125" Pitch="65" RiffPosition="12.9375" Velocity="53" />
      <note Length="0.0104166666666667" Pitch="68" RiffPosition="12.96875" Velocity="58" />
      <note Length="0.0104166666666667" Pitch="53" RiffPosition="12.9791666666667" Velocity="56" />
      <note Length="0.0104166666666667" Pitch="53" RiffPosition="12.9895833333333" Velocity="52" />
      <note Length="0.015625" Pitch="53" RiffPosition="13" Velocity="0" />
      <note Length="0.015625" Pitch="61" RiffPosition="13.015625" Velocity="0" />
      <note Length="0.015625" Pitch="60" RiffPosition="13.03125" Velocity="0" />
      <note Length="0.015625" Pitch="58" RiffPosition="13.046875" Velocity="0" />
      <note Length="0.015625" Pitch="61" RiffPosition="13.0625" Velocity="0" />
      <note Length="0.015625" Pitch="53" RiffPosition="13.078125" Velocity="0" />
      <note Length="0.015625" Pitch="53" RiffPosition="13.09375" Velocity="0" />
      <note Length="0.015625" Pitch="67" RiffPosition="13.109375" Velocity="0" />
      <note Length="0.0208333333333333" Pitch="68" RiffPosition="13.125" Velocity="0" />
      <note Length="0.0208333333333333" Pitch="68" RiffPosition="13.1458333333333" Velocity="0" />
      <note Length="0.0416666666666667" Pitch="72" RiffPosition="13.1666666666667" Velocity="0" />
      <note Length="0.0208333333333333" Pitch="67" RiffPosition="13.2083333333333" Velocity="0" />
      <note Length="0.0208333333333333" Pitch="67" RiffPosition="13.2291666666667" Velocity="0" />
      <note Length="0.0833333333333333" Pitch="61" RiffPosition="13.25" Velocity="0" />
      <note Length="0.0208333333333333" Pitch="65" RiffPosition="13.3333333333333" Velocity="0" />
      <note Length="0.0208333333333333" Pitch="53" RiffPosition="13.3541666666667" Velocity="0" />
      <note Length="0.0208333333333333" Pitch="65" RiffPosition="13.375" Velocity="0" />
      <note Length="0.0208333333333333" Pitch="70" RiffPosition="13.3958333333333" Velocity="0" />
      <note Length="0.0416666666666667" Pitch="70" RiffPosition="13.4166666666667" Velocity="0" />
      <note Length="0.0416666666666667" Pitch="65" RiffPosition="13.4583333333333" Velocity="0" />
      <note Length="0.0625" Pitch="53" RiffPosition="13.5" Velocity="0" />
      <note Length="0.0234375" Pitch="60" RiffPosition="13.5625" Velocity="0" />
      <note Length="0.01171875" Pitch="53" RiffPosition="13.5859375" Velocity="0" />
      <note Length="0.01171875" Pitch="53" RiffPosition="13.59765625" Velocity="0" />
      <note Length="0.0078125" Pitch="68" RiffPosition="13.609375" Velocity="0" />
      <note Length="0.0078125" Pitch="53" RiffPosition="13.6171875" Velocity="0" />
      <note Length="0.015625" Pitch="67" RiffPosition="13.625" Velocity="0" />
      <note Length="0.015625" Pitch="68" RiffPosition="13.640625" Velocity="0" />
      <note Length="0.015625" Pitch="72" RiffPosition="13.65625" Velocity="0" />
      <note Length="0.03125" Pitch="72" RiffPosition="13.671875" Velocity="0" />
      <note Length="0.015625" Pitch="68" RiffPosition="13.703125" Velocity="0" />
      <note Length="0.0234375" Pitch="53" RiffPosition="13.71875" Velocity="0" />
      <note Length="0.0234375" Pitch="53" RiffPosition="13.7421875" Velocity="0" />
      <note Length="0.0234375" Pitch="53" RiffPosition="13.765625" Velocity="0" />
      <note Length="0.0234375" Pitch="58" RiffPosition="13.7890625" Velocity="0" />
      <note Length="0.046875" Pitch="60" RiffPosition="13.8125" Velocity="0" />
      <note Length="0.0234375" Pitch="65" RiffPosition="13.859375" Velocity="0" />
      <note Length="0.0234375" Pitch="67" RiffPosition="13.8828125" Velocity="0" />
      <note Length="0.03125" Pitch="72" RiffPosition="13.90625" Velocity="0" />
      <note Length="0.03125" Pitch="67" RiffPosition="13.9375" Velocity="0" />
      <note Length="0.0104166666666667" Pitch="68" RiffPosition="13.96875" Velocity="0" />
      <note Length="0.0104166666666667" Pitch="67" RiffPosition="13.9791666666667" Velocity="0" />
      <note Length="0.010416666666659" Pitch="53" RiffPosition="13.9895833333333" Velocity="0" />
    </riff>
    <riff IsDrum="True" MidiInstrument="0" Tempo="139" Length="14">
      <note Length="0.03125" Pitch="38" RiffPosition="0" Velocity="0" />
      <note Length="0.03125" Pitch="38" RiffPosition="0.03125" Velocity="0" />
      <note Length="0.03125" Pitch="38" RiffPosition="0.0625" Velocity="0" />
      <note Length="0.03125" Pitch="38" RiffPosition="0.09375" Velocity="0" />
      <note Length="0.03125" Pitch="38" RiffPosition="0.125" Velocity="0" />
      <note Length="0.03125" Pitch="38" RiffPosition="0.15625" Velocity="0" />
      <note Length="0.03125" Pitch="38" RiffPosition="0.1875" Velocity="0" />
      <note Length="0.03125" Pitch="38" RiffPosition="0.21875" Velocity="0" />
      <note Length="0.03125" Pitch="38" RiffPosition="0.25" Velocity="0" />
      <note Length="0.03125" Pitch="38" RiffPosition="0.28125" Velocity="0" />
      <note Length="0.03125" Pitch="38" RiffPosition="0.3125" Velocity="0" />
      <note Length="0.03125" Pitch="38" RiffPosition="0.34375" Velocity="0" />
      <note Length="0.03125" Pitch="38" RiffPosition="0.375" Velocity="0" />
      <note Length="0.03125" Pitch="38" RiffPosition="0.40625" Velocity="0" />
      <note Length="0.03125" Pitch="38" RiffPosition="0.4375" Velocity="0" />
      <note Length="0.03125" Pitch="38" RiffPosition="0.46875" Velocity="0" />
      <note Length="0.03125" Pitch="38" RiffPosition="0.5" Velocity="0" />
      <note Length="0.03125" Pitch="38" RiffPosition="0.53125" Velocity="0" />
      <note Length="0.03125" Pitch="38" RiffPosition="0.5625" Velocity="0" />
      <note Length="0.03125" Pitch="38" RiffPosition="0.59375" Velocity="0" />
      <note Length="0.03125" Pitch="38" RiffPosition="0.625" Velocity="0" />
      <note Length="0.03125" Pitch="38" RiffPosition="0.65625" Velocity="0" />
      <note Length="0.03125" Pitch="38" RiffPosition="0.6875" Velocity="0" />
      <note Length="0.03125" Pitch="38" RiffPosition="0.71875" Velocity="0" />
      <note Length="0.03125" Pitch="38" RiffPosition="0.75" Velocity="0" />
      <note Length="0.03125" Pitch="38" RiffPosition="0.78125" Velocity="0" />
      <note Length="0.03125" Pitch="38" RiffPosition="0.8125" Velocity="0" />
      <note Length="0.03125" Pitch="38" RiffPosition="0.84375" Velocity="0" />
      <note Length="0.03125" Pitch="38" RiffPosition="0.875" Velocity="0" />
      <note Length="0.03125" Pitch="38" RiffPosition="0.90625" Velocity="0" />
      <note Length="0.03125" Pitch="38" RiffPosition="0.9375" Velocity="0" />
      <note Length="0.03125" Pitch="38" RiffPosition="0.96875" Velocity="0" />
      <note Length="0.03125" Pitch="38" RiffPosition="1" Velocity="0" />
      <note Length="0.03125" Pitch="38" RiffPosition="1,03125" Velocity="0" />
      <note Length="0.03125" Pitch="38" RiffPosition="1,0625" Velocity="0" />
      <note Length="0.03125" Pitch="38" RiffPosition="1,09375" Velocity="0" />
      <note Length="0.03125" Pitch="38" RiffPosition="1,125" Velocity="0" />
      <note Length="0.03125" Pitch="38" RiffPosition="1,15625" Velocity="0" />
      <note Length="0.03125" Pitch="38" RiffPosition="1,1875" Velocity="0" />
      <note Length="0.03125" Pitch="38" RiffPosition="1,21875" Velocity="0" />
      <note Length="0.03125" Pitch="38" RiffPosition="1,25" Velocity="0" />
      <note Length="0.03125" Pitch="38" RiffPosition="1,28125" Velocity="0" />
      <note Length="0.03125" Pitch="38" RiffPosition="1,3125" Velocity="0" />
      <note Length="0.03125" Pitch="38" RiffPosition="1,34375" Velocity="0" />
      <note Length="0.03125" Pitch="38" RiffPosition="1,375" Velocity="0" />
      <note Length="0.03125" Pitch="38" RiffPosition="1,40625" Velocity="0" />
      <note Length="0.03125" Pitch="38" RiffPosition="1,4375" Velocity="0" />
      <note Length="0.03125" Pitch="38" RiffPosition="1,46875" Velocity="0" />
      <note Length="0.03125" Pitch="38" RiffPosition="1,5" Velocity="0" />
      <note Length="0.03125" Pitch="38" RiffPosition="1,53125" Velocity="0" />
      <note Length="0.03125" Pitch="38" RiffPosition="1,5625" Velocity="0" />
      <note Length="0.03125" Pitch="38" RiffPosition="1,59375" Velocity="0" />
      <note Length="0.03125" Pitch="38" RiffPosition="1,625" Velocity="0" />
      <note Length="0.03125" Pitch="38" RiffPosition="1,65625" Velocity="0" />
      <note Length="0.03125" Pitch="38" RiffPosition="1,6875" Velocity="0" />
      <note Length="0.03125" Pitch="38" RiffPosition="1,71875" Velocity="0" />
      <note Length="0.03125" Pitch="38" RiffPosition="1,75" Velocity="0" />
      <note Length="0.03125" Pitch="38" RiffPosition="1,78125" Velocity="0" />
      <note Length="0.03125" Pitch="38" RiffPosition="1,8125" Velocity="0" />
      <note Length="0.03125" Pitch="38" RiffPosition="1,84375" Velocity="0" />
      <note Length="0.03125" Pitch="38" RiffPosition="1,875" Velocity="0" />
      <note Length="0.03125" Pitch="38" RiffPosition="1,90625" Velocity="0" />
      <note Length="0.03125" Pitch="38" RiffPosition="1,9375" Velocity="0" />
      <note Length="0.03125" Pitch="38" RiffPosition="1,96875" Velocity="0" />
      <note Length="0.03125" Pitch="38" RiffPosition="2" Velocity="0" />
      <note Length="0.03125" Pitch="38" RiffPosition="2.03125" Velocity="0" />
      <note Length="0.03125" Pitch="38" RiffPosition="2.0625" Velocity="0" />
      <note Length="0.03125" Pitch="38" RiffPosition="2.09375" Velocity="0" />
      <note Length="0.03125" Pitch="38" RiffPosition="2.125" Velocity="0" />
      <note Length="0.03125" Pitch="38" RiffPosition="2.15625" Velocity="0" />
      <note Length="0.03125" Pitch="38" RiffPosition="2.1875" Velocity="0" />
      <note Length="0.03125" Pitch="38" RiffPosition="2.21875" Velocity="0" />
      <note Length="0.03125" Pitch="38" RiffPosition="2.25" Velocity="0" />
      <note Length="0.03125" Pitch="38" RiffPosition="2.28125" Velocity="0" />
      <note Length="0.03125" Pitch="38" RiffPosition="2.3125" Velocity="0" />
      <note Length="0.03125" Pitch="38" RiffPosition="2.34375" Velocity="0" />
      <note Length="0.03125" Pitch="38" RiffPosition="2.375" Velocity="0" />
      <note Length="0.03125" Pitch="38" RiffPosition="2.40625" Velocity="0" />
      <note Length="0.03125" Pitch="38" RiffPosition="2.4375" Velocity="0" />
      <note Length="0.03125" Pitch="38" RiffPosition="2.46875" Velocity="0" />
      <note Length="0.03125" Pitch="38" RiffPosition="2.5" Velocity="0" />
      <note Length="0.03125" Pitch="38" RiffPosition="2.53125" Velocity="0" />
      <note Length="0.03125" Pitch="38" RiffPosition="2.5625" Velocity="0" />
      <note Length="0.03125" Pitch="38" RiffPosition="2.59375" Velocity="0" />
      <note Length="0.03125" Pitch="38" RiffPosition="2.625" Velocity="0" />
      <note Length="0.03125" Pitch="38" RiffPosition="2.65625" Velocity="0" />
      <note Length="0.03125" Pitch="38" RiffPosition="2.6875" Velocity="0" />
      <note Length="0.03125" Pitch="38" RiffPosition="2.71875" Velocity="0" />
      <note Length="0.03125" Pitch="38" RiffPosition="2.75" Velocity="0" />
      <note Length="0.03125" Pitch="38" RiffPosition="2.78125" Velocity="0" />
      <note Length="0.03125" Pitch="38" RiffPosition="2.8125" Velocity="0" />
      <note Length="0.03125" Pitch="38" RiffPosition="2.84375" Velocity="0" />
      <note Length="0.03125" Pitch="38" RiffPosition="2.875" Velocity="0" />
      <note Length="0.03125" Pitch="38" RiffPosition="2.90625" Velocity="0" />
      <note Length="0.03125" Pitch="38" RiffPosition="2.9375" Velocity="0" />
      <note Length="0.03125" Pitch="38" RiffPosition="2.96875" Velocity="0" />
      <note Length="0.03125" Pitch="38" RiffPosition="3" Velocity="0" />
      <note Length="0.03125" Pitch="38" RiffPosition="3.03125" Velocity="0" />
      <note Length="0.03125" Pitch="38" RiffPosition="3.0625" Velocity="0" />
      <note Length="0.03125" Pitch="38" RiffPosition="3.09375" Velocity="0" />
      <note Length="0.03125" Pitch="38" RiffPosition="3.125" Velocity="0" />
      <note Length="0.03125" Pitch="38" RiffPosition="3.15625" Velocity="0" />
      <note Length="0.03125" Pitch="38" RiffPosition="3.1875" Velocity="0" />
      <note Length="0.03125" Pitch="38" RiffPosition="3.21875" Velocity="0" />
      <note Length="0.03125" Pitch="38" RiffPosition="3.25" Velocity="0" />
      <note Length="0.03125" Pitch="38" RiffPosition="3.28125" Velocity="0" />
      <note Length="0.03125" Pitch="38" RiffPosition="3.3125" Velocity="0" />
      <note Length="0.03125" Pitch="38" RiffPosition="3.34375" Velocity="0" />
      <note Length="0.03125" Pitch="38" RiffPosition="3.375" Velocity="0" />
      <note Length="0.03125" Pitch="38" RiffPosition="3.40625" Velocity="0" />
      <note Length="0.03125" Pitch="38" RiffPosition="3.4375" Velocity="0" />
      <note Length="0.03125" Pitch="38" RiffPosition="3.46875" Velocity="0" />
      <note Length="0.03125" Pitch="38" RiffPosition="3.5" Velocity="0" />
      <note Length="0.03125" Pitch="38" RiffPosition="3.53125" Velocity="0" />
      <note Length="0.03125" Pitch="38" RiffPosition="3.5625" Velocity="0" />
      <note Length="0.03125" Pitch="38" RiffPosition="3.59375" Velocity="0" />
      <note Length="0.03125" Pitch="38" RiffPosition="3.625" Velocity="0" />
      <note Length="0.03125" Pitch="38" RiffPosition="3.65625" Velocity="0" />
      <note Length="0.03125" Pitch="38" RiffPosition="3.6875" Velocity="0" />
      <note Length="0.03125" Pitch="38" RiffPosition="3.71875" Velocity="0" />
      <note Length="0.03125" Pitch="38" RiffPosition="3.75" Velocity="0" />
      <note Length="0.03125" Pitch="38" RiffPosition="3.78125" Velocity="0" />
      <note Length="0.03125" Pitch="38" RiffPosition="3.8125" Velocity="0" />
      <note Length="0.03125" Pitch="38" RiffPosition="3.84375" Velocity="0" />
      <note Length="0.03125" Pitch="38" RiffPosition="3.875" Velocity="0" />
      <note Length="0.03125" Pitch="38" RiffPosition="3.90625" Velocity="0" />
      <note Length="0.03125" Pitch="38" RiffPosition="3.9375" Velocity="0" />
      <note Length="0.03125" Pitch="38" RiffPosition="3.96875" Velocity="0" />
      <note Length="0.03125" Pitch="38" RiffPosition="4" Velocity="0" />
      <note Length="0.03125" Pitch="38" RiffPosition="4.03125" Velocity="0" />
      <note Length="0.03125" Pitch="38" RiffPosition="4.0625" Velocity="0" />
      <note Length="0.03125" Pitch="38" RiffPosition="4.09375" Velocity="0" />
      <note Length="0.03125" Pitch="38" RiffPosition="4.125" Velocity="0" />
      <note Length="0.03125" Pitch="38" RiffPosition="4.15625" Velocity="0" />
      <note Length="0.03125" Pitch="38" RiffPosition="4.1875" Velocity="0" />
      <note Length="0.03125" Pitch="38" RiffPosition="4.21875" Velocity="0" />
      <note Length="0.03125" Pitch="38" RiffPosition="4.25" Velocity="0" />
      <note Length="0.03125" Pitch="38" RiffPosition="4.28125" Velocity="0" />
      <note Length="0.03125" Pitch="38" RiffPosition="4.3125" Velocity="0" />
      <note Length="0.03125" Pitch="38" RiffPosition="4.34375" Velocity="0" />
      <note Length="0.03125" Pitch="38" RiffPosition="4.375" Velocity="0" />
      <note Length="0.03125" Pitch="38" RiffPosition="4.40625" Velocity="0" />
      <note Length="0.03125" Pitch="38" RiffPosition="4.4375" Velocity="0" />
      <note Length="0.03125" Pitch="38" RiffPosition="4.46875" Velocity="0" />
      <note Length="0.03125" Pitch="38" RiffPosition="4.5" Velocity="0" />
      <note Length="0.03125" Pitch="38" RiffPosition="4.53125" Velocity="0" />
      <note Length="0.03125" Pitch="38" RiffPosition="4.5625" Velocity="0" />
      <note Length="0.03125" Pitch="38" RiffPosition="4.59375" Velocity="0" />
      <note Length="0.03125" Pitch="38" RiffPosition="4.625" Velocity="0" />
      <note Length="0.03125" Pitch="38" RiffPosition="4.65625" Velocity="0" />
      <note Length="0.03125" Pitch="38" RiffPosition="4.6875" Velocity="0" />
      <note Length="0.03125" Pitch="38" RiffPosition="4.71875" Velocity="0" />
      <note Length="0.03125" Pitch="38" RiffPosition="4.75" Velocity="0" />
      <note Length="0.03125" Pitch="38" RiffPosition="4.78125" Velocity="0" />
      <note Length="0.03125" Pitch="38" RiffPosition="4.8125" Velocity="0" />
      <note Length="0.03125" Pitch="38" RiffPosition="4.84375" Velocity="0" />
      <note Length="0.03125" Pitch="38" RiffPosition="4.875" Velocity="0" />
      <note Length="0.03125" Pitch="38" RiffPosition="4.90625" Velocity="0" />
      <note Length="0.03125" Pitch="38" RiffPosition="4.9375" Velocity="0" />
      <note Length="0.03125" Pitch="38" RiffPosition="4.96875" Velocity="0" />
      <note Length="0.03125" Pitch="38" RiffPosition="5" Velocity="0" />
      <note Length="0.03125" Pitch="38" RiffPosition="5.03125" Velocity="0" />
      <note Length="0.03125" Pitch="38" RiffPosition="5.0625" Velocity="0" />
      <note Length="0.03125" Pitch="38" RiffPosition="5.09375" Velocity="0" />
      <note Length="0.03125" Pitch="38" RiffPosition="5.125" Velocity="0" />
      <note Length="0.03125" Pitch="38" RiffPosition="5.15625" Velocity="0" />
      <note Length="0.03125" Pitch="38" RiffPosition="5.1875" Velocity="0" />
      <note Length="0.03125" Pitch="38" RiffPosition="5.21875" Velocity="0" />
      <note Length="0.03125" Pitch="38" RiffPosition="5.25" Velocity="0" />
      <note Length="0.03125" Pitch="38" RiffPosition="5.28125" Velocity="0" />
      <note Length="0.03125" Pitch="38" RiffPosition="5.3125" Velocity="0" />
      <note Length="0.03125" Pitch="38" RiffPosition="5.34375" Velocity="0" />
      <note Length="0.03125" Pitch="38" RiffPosition="5.375" Velocity="0" />
      <note Length="0.03125" Pitch="38" RiffPosition="5.40625" Velocity="0" />
      <note Length="0.03125" Pitch="38" RiffPosition="5.4375" Velocity="0" />
      <note Length="0.03125" Pitch="38" RiffPosition="5.46875" Velocity="0" />
      <note Length="0.03125" Pitch="38" RiffPosition="5.5" Velocity="0" />
      <note Length="0.03125" Pitch="38" RiffPosition="5.53125" Velocity="0" />
      <note Length="0.03125" Pitch="38" RiffPosition="5.5625" Velocity="0" />
      <note Length="0.03125" Pitch="38" RiffPosition="5.59375" Velocity="0" />
      <note Length="0.03125" Pitch="38" RiffPosition="5.625" Velocity="0" />
      <note Length="0.03125" Pitch="38" RiffPosition="5.65625" Velocity="0" />
      <note Length="0.03125" Pitch="38" RiffPosition="5.6875" Velocity="0" />
      <note Length="0.03125" Pitch="38" RiffPosition="5.71875" Velocity="0" />
      <note Length="0.03125" Pitch="38" RiffPosition="5.75" Velocity="0" />
      <note Length="0.03125" Pitch="38" RiffPosition="5.78125" Velocity="0" />
      <note Length="0.03125" Pitch="38" RiffPosition="5.8125" Velocity="0" />
      <note Length="0.03125" Pitch="38" RiffPosition="5.84375" Velocity="0" />
      <note Length="0.03125" Pitch="38" RiffPosition="5.875" Velocity="0" />
      <note Length="0.03125" Pitch="38" RiffPosition="5.90625" Velocity="0" />
      <note Length="0.03125" Pitch="38" RiffPosition="5.9375" Velocity="0" />
      <note Length="0.03125" Pitch="38" RiffPosition="5.96875" Velocity="0" />
      <note Length="0.03125" Pitch="38" RiffPosition="6" Velocity="0" />
      <note Length="0.03125" Pitch="38" RiffPosition="6.03125" Velocity="0" />
      <note Length="0.03125" Pitch="38" RiffPosition="6.0625" Velocity="0" />
      <note Length="0.03125" Pitch="38" RiffPosition="6.09375" Velocity="0" />
      <note Length="0.03125" Pitch="38" RiffPosition="6.125" Velocity="0" />
      <note Length="0.03125" Pitch="38" RiffPosition="6.15625" Velocity="0" />
      <note Length="0.03125" Pitch="38" RiffPosition="6.1875" Velocity="0" />
      <note Length="0.03125" Pitch="38" RiffPosition="6.21875" Velocity="0" />
      <note Length="0.03125" Pitch="38" RiffPosition="6.25" Velocity="0" />
      <note Length="0.03125" Pitch="38" RiffPosition="6.28125" Velocity="0" />
      <note Length="0.03125" Pitch="38" RiffPosition="6.3125" Velocity="0" />
      <note Length="0.03125" Pitch="38" RiffPosition="6.34375" Velocity="0" />
      <note Length="0.03125" Pitch="38" RiffPosition="6.375" Velocity="0" />
      <note Length="0.03125" Pitch="38" RiffPosition="6.40625" Velocity="0" />
      <note Length="0.03125" Pitch="38" RiffPosition="6.4375" Velocity="0" />
      <note Length="0.03125" Pitch="38" RiffPosition="6.46875" Velocity="0" />
      <note Length="0.03125" Pitch="38" RiffPosition="6.5" Velocity="0" />
      <note Length="0.03125" Pitch="38" RiffPosition="6.53125" Velocity="0" />
      <note Length="0.03125" Pitch="38" RiffPosition="6.5625" Velocity="0" />
      <note Length="0.03125" Pitch="38" RiffPosition="6.59375" Velocity="0" />
      <note Length="0.03125" Pitch="38" RiffPosition="6.625" Velocity="0" />
      <note Length="0.03125" Pitch="38" RiffPosition="6.65625" Velocity="0" />
      <note Length="0.03125" Pitch="38" RiffPosition="6.6875" Velocity="0" />
      <note Length="0.03125" Pitch="38" RiffPosition="6.71875" Velocity="0" />
      <note Length="0.03125" Pitch="38" RiffPosition="6.75" Velocity="0" />
      <note Length="0.03125" Pitch="38" RiffPosition="6.78125" Velocity="0" />
      <note Length="0.03125" Pitch="38" RiffPosition="6.8125" Velocity="0" />
      <note Length="0.03125" Pitch="38" RiffPosition="6.84375" Velocity="0" />
      <note Length="0.03125" Pitch="38" RiffPosition="6.875" Velocity="0" />
      <note Length="0.03125" Pitch="38" RiffPosition="6.90625" Velocity="0" />
      <note Length="0.03125" Pitch="38" RiffPosition="6.9375" Velocity="0" />
      <note Length="0.03125" Pitch="38" RiffPosition="6.96875" Velocity="0" />
      <note Length="0.03125" Pitch="38" RiffPosition="7" Velocity="0" />
      <note Length="0.03125" Pitch="38" RiffPosition="7.03125" Velocity="0" />
      <note Length="0.03125" Pitch="38" RiffPosition="7.0625" Velocity="0" />
      <note Length="0.03125" Pitch="38" RiffPosition="7.09375" Velocity="0" />
      <note Length="0.03125" Pitch="38" RiffPosition="7.125" Velocity="0" />
      <note Length="0.03125" Pitch="38" RiffPosition="7.15625" Velocity="0" />
      <note Length="0.03125" Pitch="38" RiffPosition="7.1875" Velocity="0" />
      <note Length="0.03125" Pitch="38" RiffPosition="7.21875" Velocity="0" />
      <note Length="0.03125" Pitch="38" RiffPosition="7.25" Velocity="0" />
      <note Length="0.03125" Pitch="38" RiffPosition="7.28125" Velocity="0" />
      <note Length="0.03125" Pitch="38" RiffPosition="7.3125" Velocity="0" />
      <note Length="0.03125" Pitch="38" RiffPosition="7.34375" Velocity="0" />
      <note Length="0.03125" Pitch="38" RiffPosition="7.375" Velocity="0" />
      <note Length="0.03125" Pitch="38" RiffPosition="7.40625" Velocity="0" />
      <note Length="0.03125" Pitch="38" RiffPosition="7.4375" Velocity="0" />
      <note Length="0.03125" Pitch="38" RiffPosition="7.46875" Velocity="0" />
      <note Length="0.03125" Pitch="38" RiffPosition="7.5" Velocity="0" />
      <note Length="0.03125" Pitch="38" RiffPosition="7.53125" Velocity="0" />
      <note Length="0.03125" Pitch="38" RiffPosition="7.5625" Velocity="0" />
      <note Length="0.03125" Pitch="38" RiffPosition="7.59375" Velocity="0" />
      <note Length="0.03125" Pitch="38" RiffPosition="7.625" Velocity="0" />
      <note Length="0.03125" Pitch="38" RiffPosition="7.65625" Velocity="0" />
      <note Length="0.03125" Pitch="38" RiffPosition="7.6875" Velocity="0" />
      <note Length="0.03125" Pitch="38" RiffPosition="7.71875" Velocity="0" />
      <note Length="0.03125" Pitch="38" RiffPosition="7.75" Velocity="0" />
      <note Length="0.03125" Pitch="38" RiffPosition="7.78125" Velocity="0" />
      <note Length="0.03125" Pitch="38" RiffPosition="7.8125" Velocity="0" />
      <note Length="0.03125" Pitch="38" RiffPosition="7.84375" Velocity="0" />
      <note Length="0.03125" Pitch="38" RiffPosition="7.875" Velocity="0" />
      <note Length="0.03125" Pitch="38" RiffPosition="7.90625" Velocity="0" />
      <note Length="0.03125" Pitch="38" RiffPosition="7.9375" Velocity="0" />
      <note Length="0.03125" Pitch="38" RiffPosition="7.96875" Velocity="0" />
      <note Length="0.03125" Pitch="38" RiffPosition="8" Velocity="0" />
      <note Length="0.03125" Pitch="38" RiffPosition="8.03125" Velocity="0" />
      <note Length="0.03125" Pitch="38" RiffPosition="8.0625" Velocity="0" />
      <note Length="0.03125" Pitch="38" RiffPosition="8.09375" Velocity="0" />
      <note Length="0.03125" Pitch="38" RiffPosition="8.125" Velocity="0" />
      <note Length="0.03125" Pitch="38" RiffPosition="8.15625" Velocity="0" />
      <note Length="0.03125" Pitch="38" RiffPosition="8.1875" Velocity="0" />
      <note Length="0.03125" Pitch="38" RiffPosition="8.21875" Velocity="0" />
      <note Length="0.03125" Pitch="38" RiffPosition="8.25" Velocity="0" />
      <note Length="0.03125" Pitch="38" RiffPosition="8.28125" Velocity="0" />
      <note Length="0.03125" Pitch="38" RiffPosition="8.3125" Velocity="0" />
      <note Length="0.03125" Pitch="38" RiffPosition="8.34375" Velocity="0" />
      <note Length="0.03125" Pitch="38" RiffPosition="8.375" Velocity="0" />
      <note Length="0.03125" Pitch="38" RiffPosition="8.40625" Velocity="0" />
      <note Length="0.03125" Pitch="38" RiffPosition="8.4375" Velocity="0" />
      <note Length="0.03125" Pitch="38" RiffPosition="8.46875" Velocity="0" />
      <note Length="0.03125" Pitch="38" RiffPosition="8.5" Velocity="0" />
      <note Length="0.03125" Pitch="38" RiffPosition="8.53125" Velocity="0" />
      <note Length="0.03125" Pitch="38" RiffPosition="8.5625" Velocity="0" />
      <note Length="0.03125" Pitch="38" RiffPosition="8.59375" Velocity="0" />
      <note Length="0.03125" Pitch="38" RiffPosition="8.625" Velocity="0" />
      <note Length="0.03125" Pitch="38" RiffPosition="8.65625" Velocity="0" />
      <note Length="0.03125" Pitch="38" RiffPosition="8.6875" Velocity="0" />
      <note Length="0.03125" Pitch="38" RiffPosition="8.71875" Velocity="0" />
      <note Length="0.03125" Pitch="38" RiffPosition="8.75" Velocity="0" />
      <note Length="0.03125" Pitch="38" RiffPosition="8.78125" Velocity="0" />
      <note Length="0.03125" Pitch="38" RiffPosition="8.8125" Velocity="0" />
      <note Length="0.03125" Pitch="38" RiffPosition="8.84375" Velocity="0" />
      <note Length="0.03125" Pitch="38" RiffPosition="8.875" Velocity="0" />
      <note Length="0.03125" Pitch="38" RiffPosition="8.90625" Velocity="0" />
      <note Length="0.03125" Pitch="38" RiffPosition="8.9375" Velocity="0" />
      <note Length="0.03125" Pitch="38" RiffPosition="8.96875" Velocity="0" />
      <note Length="0.03125" Pitch="38" RiffPosition="9" Velocity="0" />
      <note Length="0.03125" Pitch="38" RiffPosition="9.03125" Velocity="0" />
      <note Length="0.03125" Pitch="38" RiffPosition="9.0625" Velocity="0" />
      <note Length="0.03125" Pitch="38" RiffPosition="9.09375" Velocity="0" />
      <note Length="0.03125" Pitch="38" RiffPosition="9.125" Velocity="0" />
      <note Length="0.03125" Pitch="38" RiffPosition="9.15625" Velocity="0" />
      <note Length="0.03125" Pitch="38" RiffPosition="9.1875" Velocity="0" />
      <note Length="0.03125" Pitch="38" RiffPosition="9.21875" Velocity="0" />
      <note Length="0.03125" Pitch="38" RiffPosition="9.25" Velocity="0" />
      <note Length="0.03125" Pitch="38" RiffPosition="9.28125" Velocity="0" />
      <note Length="0.03125" Pitch="38" RiffPosition="9.3125" Velocity="0" />
      <note Length="0.03125" Pitch="38" RiffPosition="9.34375" Velocity="0" />
      <note Length="0.03125" Pitch="38" RiffPosition="9.375" Velocity="0" />
      <note Length="0.03125" Pitch="38" RiffPosition="9.40625" Velocity="0" />
      <note Length="0.03125" Pitch="38" RiffPosition="9.4375" Velocity="0" />
      <note Length="0.03125" Pitch="38" RiffPosition="9.46875" Velocity="0" />
      <note Length="0.03125" Pitch="38" RiffPosition="9.5" Velocity="0" />
      <note Length="0.03125" Pitch="38" RiffPosition="9.53125" Velocity="0" />
      <note Length="0.03125" Pitch="38" RiffPosition="9.5625" Velocity="0" />
      <note Length="0.03125" Pitch="38" RiffPosition="9.59375" Velocity="0" />
      <note Length="0.03125" Pitch="38" RiffPosition="9.625" Velocity="0" />
      <note Length="0.03125" Pitch="38" RiffPosition="9.65625" Velocity="0" />
      <note Length="0.03125" Pitch="38" RiffPosition="9.6875" Velocity="0" />
      <note Length="0.03125" Pitch="38" RiffPosition="9.71875" Velocity="0" />
      <note Length="0.03125" Pitch="38" RiffPosition="9.75" Velocity="0" />
      <note Length="0.03125" Pitch="38" RiffPosition="9.78125" Velocity="0" />
      <note Length="0.03125" Pitch="38" RiffPosition="9.8125" Velocity="0" />
      <note Length="0.03125" Pitch="38" RiffPosition="9.84375" Velocity="0" />
      <note Length="0.03125" Pitch="38" RiffPosition="9.875" Velocity="0" />
      <note Length="0.03125" Pitch="38" RiffPosition="9.90625" Velocity="0" />
      <note Length="0.03125" Pitch="38" RiffPosition="9.9375" Velocity="0" />
      <note Length="0.03125" Pitch="38" RiffPosition="9.96875" Velocity="0" />
      <note Length="0.03125" Pitch="38" RiffPosition="10" Velocity="0" />
      <note Length="0.03125" Pitch="38" RiffPosition="10.03125" Velocity="0" />
      <note Length="0.03125" Pitch="38" RiffPosition="10.0625" Velocity="0" />
      <note Length="0.03125" Pitch="38" RiffPosition="10.09375" Velocity="0" />
      <note Length="0.03125" Pitch="38" RiffPosition="10.125" Velocity="0" />
      <note Length="0.03125" Pitch="38" RiffPosition="10.15625" Velocity="0" />
      <note Length="0.03125" Pitch="38" RiffPosition="10.1875" Velocity="0" />
      <note Length="0.03125" Pitch="38" RiffPosition="10.21875" Velocity="0" />
      <note Length="0.03125" Pitch="38" RiffPosition="10.25" Velocity="0" />
      <note Length="0.03125" Pitch="38" RiffPosition="10.28125" Velocity="0" />
      <note Length="0.03125" Pitch="38" RiffPosition="10.3125" Velocity="0" />
      <note Length="0.03125" Pitch="38" RiffPosition="10.34375" Velocity="0" />
      <note Length="0.03125" Pitch="38" RiffPosition="10.375" Velocity="0" />
      <note Length="0.03125" Pitch="38" RiffPosition="10.40625" Velocity="0" />
      <note Length="0.03125" Pitch="38" RiffPosition="10.4375" Velocity="0" />
      <note Length="0.03125" Pitch="38" RiffPosition="10.46875" Velocity="0" />
      <note Length="0.03125" Pitch="38" RiffPosition="10.5" Velocity="0" />
      <note Length="0.03125" Pitch="38" RiffPosition="10.53125" Velocity="0" />
      <note Length="0.03125" Pitch="38" RiffPosition="10.5625" Velocity="0" />
      <note Length="0.03125" Pitch="38" RiffPosition="10.59375" Velocity="0" />
      <note Length="0.03125" Pitch="38" RiffPosition="10.625" Velocity="0" />
      <note Length="0.03125" Pitch="38" RiffPosition="10.65625" Velocity="0" />
      <note Length="0.03125" Pitch="38" RiffPosition="10.6875" Velocity="0" />
      <note Length="0.03125" Pitch="38" RiffPosition="10.71875" Velocity="0" />
      <note Length="0.03125" Pitch="38" RiffPosition="10.75" Velocity="0" />
      <note Length="0.03125" Pitch="38" RiffPosition="10.78125" Velocity="0" />
      <note Length="0.03125" Pitch="38" RiffPosition="10.8125" Velocity="0" />
      <note Length="0.03125" Pitch="38" RiffPosition="10.84375" Velocity="0" />
      <note Length="0.03125" Pitch="38" RiffPosition="10.875" Velocity="0" />
      <note Length="0.03125" Pitch="38" RiffPosition="10.90625" Velocity="0" />
      <note Length="0.03125" Pitch="38" RiffPosition="10.9375" Velocity="0" />
      <note Length="0.03125" Pitch="38" RiffPosition="10.96875" Velocity="0" />
      <note Length="0.03125" Pitch="38" RiffPosition="11" Velocity="0" />
      <note Length="0.03125" Pitch="38" RiffPosition="11,03125" Velocity="105" />
      <note Length="0.03125" Pitch="38" RiffPosition="11,0625" Velocity="0" />
      <note Length="0.03125" Pitch="38" RiffPosition="11,09375" Velocity="105" />
      <note Length="0.03125" Pitch="38" RiffPosition="11,125" Velocity="0" />
      <note Length="0.03125" Pitch="38" RiffPosition="11,15625" Velocity="105" />
      <note Length="0.03125" Pitch="38" RiffPosition="11,1875" Velocity="0" />
      <note Length="0.03125" Pitch="38" RiffPosition="11,21875" Velocity="105" />
      <note Length="0.03125" Pitch="38" RiffPosition="11,25" Velocity="0" />
      <note Length="0.03125" Pitch="38" RiffPosition="11,28125" Velocity="105" />
      <note Length="0.03125" Pitch="38" RiffPosition="11,3125" Velocity="0" />
      <note Length="0.03125" Pitch="38" RiffPosition="11,34375" Velocity="105" />
      <note Length="0.03125" Pitch="38" RiffPosition="11,375" Velocity="0" />
      <note Length="0.03125" Pitch="38" RiffPosition="11,40625" Velocity="105" />
      <note Length="0.03125" Pitch="38" RiffPosition="11,4375" Velocity="0" />
      <note Length="0.03125" Pitch="38" RiffPosition="11,46875" Velocity="105" />
      <note Length="0.03125" Pitch="38" RiffPosition="11,5" Velocity="0" />
      <note Length="0.03125" Pitch="38" RiffPosition="11,53125" Velocity="105" />
      <note Length="0.03125" Pitch="38" RiffPosition="11,5625" Velocity="0" />
      <note Length="0.03125" Pitch="38" RiffPosition="11,59375" Velocity="105" />
      <note Length="0.03125" Pitch="38" RiffPosition="11,625" Velocity="0" />
      <note Length="0.03125" Pitch="38" RiffPosition="11,65625" Velocity="105" />
      <note Length="0.03125" Pitch="38" RiffPosition="11,6875" Velocity="0" />
      <note Length="0.03125" Pitch="38" RiffPosition="11,71875" Velocity="105" />
      <note Length="0.03125" Pitch="38" RiffPosition="11,75" Velocity="0" />
      <note Length="0.03125" Pitch="38" RiffPosition="11,78125" Velocity="105" />
      <note Length="0.03125" Pitch="38" RiffPosition="11,8125" Velocity="0" />
      <note Length="0.03125" Pitch="38" RiffPosition="11,84375" Velocity="105" />
      <note Length="0.03125" Pitch="38" RiffPosition="11,875" Velocity="0" />
      <note Length="0.03125" Pitch="38" RiffPosition="11,90625" Velocity="105" />
      <note Length="0.03125" Pitch="38" RiffPosition="11,9375" Velocity="0" />
      <note Length="0.03125" Pitch="38" RiffPosition="11,96875" Velocity="105" />
      <note Length="0.03125" Pitch="38" RiffPosition="12" Velocity="0" />
      <note Length="0.03125" Pitch="38" RiffPosition="12.03125" Velocity="105" />
      <note Length="0.03125" Pitch="38" RiffPosition="12.0625" Velocity="0" />
      <note Length="0.03125" Pitch="38" RiffPosition="12.09375" Velocity="105" />
      <note Length="0.03125" Pitch="38" RiffPosition="12.125" Velocity="0" />
      <note Length="0.03125" Pitch="38" RiffPosition="12.15625" Velocity="105" />
      <note Length="0.03125" Pitch="38" RiffPosition="12.1875" Velocity="0" />
      <note Length="0.03125" Pitch="38" RiffPosition="12.21875" Velocity="105" />
      <note Length="0.03125" Pitch="38" RiffPosition="12.25" Velocity="0" />
      <note Length="0.03125" Pitch="38" RiffPosition="12.28125" Velocity="105" />
      <note Length="0.03125" Pitch="38" RiffPosition="12.3125" Velocity="0" />
      <note Length="0.03125" Pitch="38" RiffPosition="12.34375" Velocity="105" />
      <note Length="0.03125" Pitch="38" RiffPosition="12.375" Velocity="0" />
      <note Length="0.03125" Pitch="38" RiffPosition="12.40625" Velocity="105" />
      <note Length="0.03125" Pitch="38" RiffPosition="12.4375" Velocity="0" />
      <note Length="0.03125" Pitch="38" RiffPosition="12.46875" Velocity="105" />
      <note Length="0.03125" Pitch="38" RiffPosition="12.5" Velocity="0" />
      <note Length="0.03125" Pitch="38" RiffPosition="12.53125" Velocity="105" />
      <note Length="0.03125" Pitch="38" RiffPosition="12.5625" Velocity="0" />
      <note Length="0.03125" Pitch="38" RiffPosition="12.59375" Velocity="105" />
      <note Length="0.03125" Pitch="38" RiffPosition="12.625" Velocity="0" />
      <note Length="0.03125" Pitch="38" RiffPosition="12.65625" Velocity="105" />
      <note Length="0.03125" Pitch="38" RiffPosition="12.6875" Velocity="0" />
      <note Length="0.03125" Pitch="38" RiffPosition="12.71875" Velocity="105" />
      <note Length="0.03125" Pitch="38" RiffPosition="12.75" Velocity="0" />
      <note Length="0.03125" Pitch="38" RiffPosition="12.78125" Velocity="105" />
      <note Length="0.03125" Pitch="38" RiffPosition="12.8125" Velocity="0" />
      <note Length="0.03125" Pitch="38" RiffPosition="12.84375" Velocity="105" />
      <note Length="0.03125" Pitch="38" RiffPosition="12.875" Velocity="0" />
      <note Length="0.03125" Pitch="38" RiffPosition="12.90625" Velocity="105" />
      <note Length="0.03125" Pitch="38" RiffPosition="12.9375" Velocity="0" />
      <note Length="0.03125" Pitch="38" RiffPosition="12.96875" Velocity="105" />
      <note Length="0.03125" Pitch="38" RiffPosition="13" Velocity="0" />
      <note Length="0.03125" Pitch="38" RiffPosition="13.03125" Velocity="0" />
      <note Length="0.03125" Pitch="38" RiffPosition="13.0625" Velocity="0" />
      <note Length="0.03125" Pitch="38" RiffPosition="13.09375" Velocity="0" />
      <note Length="0.03125" Pitch="38" RiffPosition="13.125" Velocity="0" />
      <note Length="0.03125" Pitch="38" RiffPosition="13.15625" Velocity="0" />
      <note Length="0.03125" Pitch="38" RiffPosition="13.1875" Velocity="0" />
      <note Length="0.03125" Pitch="38" RiffPosition="13.21875" Velocity="0" />
      <note Length="0.03125" Pitch="38" RiffPosition="13.25" Velocity="0" />
      <note Length="0.03125" Pitch="38" RiffPosition="13.28125" Velocity="0" />
      <note Length="0.03125" Pitch="38" RiffPosition="13.3125" Velocity="0" />
      <note Length="0.03125" Pitch="38" RiffPosition="13.34375" Velocity="0" />
      <note Length="0.03125" Pitch="38" RiffPosition="13.375" Velocity="0" />
      <note Length="0.03125" Pitch="38" RiffPosition="13.40625" Velocity="0" />
      <note Length="0.03125" Pitch="38" RiffPosition="13.4375" Velocity="0" />
      <note Length="0.03125" Pitch="38" RiffPosition="13.46875" Velocity="0" />
      <note Length="0.03125" Pitch="38" RiffPosition="13.5" Velocity="0" />
      <note Length="0.03125" Pitch="38" RiffPosition="13.53125" Velocity="0" />
      <note Length="0.03125" Pitch="38" RiffPosition="13.5625" Velocity="0" />
      <note Length="0.03125" Pitch="38" RiffPosition="13.59375" Velocity="0" />
      <note Length="0.03125" Pitch="38" RiffPosition="13.625" Velocity="0" />
      <note Length="0.03125" Pitch="38" RiffPosition="13.65625" Velocity="0" />
      <note Length="0.03125" Pitch="38" RiffPosition="13.6875" Velocity="0" />
      <note Length="0.03125" Pitch="38" RiffPosition="13.71875" Velocity="0" />
      <note Length="0.03125" Pitch="38" RiffPosition="13.75" Velocity="0" />
      <note Length="0.03125" Pitch="38" RiffPosition="13.78125" Velocity="0" />
      <note Length="0.03125" Pitch="38" RiffPosition="13.8125" Velocity="0" />
      <note Length="0.03125" Pitch="38" RiffPosition="13.84375" Velocity="0" />
      <note Length="0.03125" Pitch="38" RiffPosition="13.875" Velocity="0" />
      <note Length="0.03125" Pitch="38" RiffPosition="13.90625" Velocity="0" />
      <note Length="0.03125" Pitch="38" RiffPosition="13.9375" Velocity="0" />
      <note Length="0.03125" Pitch="38" RiffPosition="13.96875" Velocity="0" />
    </riff>
    <riff IsDrum="True" MidiInstrument="0" Tempo="108" Length="14">
      <note Length="0.03125" Pitch="35" RiffPosition="0" Velocity="0" />
      <note Length="0.03125" Pitch="35" RiffPosition="0.03125" Velocity="0" />
      <note Length="0.046875" Pitch="35" RiffPosition="0.0625" Velocity="0" />
      <note Length="0.046875" Pitch="35" RiffPosition="0.109375" Velocity="0" />
      <note Length="0.09375" Pitch="35" RiffPosition="0.15625" Velocity="0" />
      <note Length="0.09375" Pitch="35" RiffPosition="0.25" Velocity="0" />
      <note Length="0.09375" Pitch="35" RiffPosition="0.34375" Velocity="0" />
      <note Length="0.015625" Pitch="35" RiffPosition="0.4375" Velocity="0" />
      <note Length="0.015625" Pitch="35" RiffPosition="0.453125" Velocity="0" />
      <note Length="0.015625" Pitch="35" RiffPosition="0.46875" Velocity="0" />
      <note Length="0.015625" Pitch="35" RiffPosition="0.484375" Velocity="0" />
      <note Length="0.03125" Pitch="35" RiffPosition="0.5" Velocity="0" />
      <note Length="0.03125" Pitch="35" RiffPosition="0.53125" Velocity="0" />
      <note Length="0.046875" Pitch="35" RiffPosition="0.5625" Velocity="0" />
      <note Length="0.046875" Pitch="35" RiffPosition="0.609375" Velocity="0" />
      <note Length="0.09375" Pitch="35" RiffPosition="0.65625" Velocity="0" />
      <note Length="0.09375" Pitch="35" RiffPosition="0.75" Velocity="0" />
      <note Length="0.09375" Pitch="35" RiffPosition="0.84375" Velocity="0" />
      <note Length="0.015625" Pitch="35" RiffPosition="0.9375" Velocity="0" />
      <note Length="0.015625" Pitch="35" RiffPosition="0.953125" Velocity="0" />
      <note Length="0.015625" Pitch="35" RiffPosition="0.96875" Velocity="0" />
      <note Length="0.015625" Pitch="35" RiffPosition="0.984375" Velocity="0" />
      <note Length="0.03125" Pitch="35" RiffPosition="1" Velocity="0" />
      <note Length="0.03125" Pitch="35" RiffPosition="1,03125" Velocity="0" />
      <note Length="0.046875" Pitch="35" RiffPosition="1,0625" Velocity="0" />
      <note Length="0.046875" Pitch="35" RiffPosition="1,109375" Velocity="0" />
      <note Length="0.09375" Pitch="35" RiffPosition="1,15625" Velocity="0" />
      <note Length="0.09375" Pitch="35" RiffPosition="1,25" Velocity="0" />
      <note Length="0.09375" Pitch="35" RiffPosition="1,34375" Velocity="0" />
      <note Length="0.015625" Pitch="35" RiffPosition="1,4375" Velocity="0" />
      <note Length="0.015625" Pitch="35" RiffPosition="1,453125" Velocity="0" />
      <note Length="0.015625" Pitch="35" RiffPosition="1,46875" Velocity="0" />
      <note Length="0.015625" Pitch="35" RiffPosition="1,484375" Velocity="0" />
      <note Length="0.03125" Pitch="35" RiffPosition="1,5" Velocity="0" />
      <note Length="0.03125" Pitch="35" RiffPosition="1,53125" Velocity="0" />
      <note Length="0.046875" Pitch="35" RiffPosition="1,5625" Velocity="0" />
      <note Length="0.046875" Pitch="35" RiffPosition="1,609375" Velocity="0" />
      <note Length="0.09375" Pitch="35" RiffPosition="1,65625" Velocity="0" />
      <note Length="0.09375" Pitch="35" RiffPosition="1,75" Velocity="0" />
      <note Length="0.09375" Pitch="35" RiffPosition="1,84375" Velocity="0" />
      <note Length="0.015625" Pitch="35" RiffPosition="1,9375" Velocity="0" />
      <note Length="0.015625" Pitch="35" RiffPosition="1,953125" Velocity="0" />
      <note Length="0.015625" Pitch="35" RiffPosition="1,96875" Velocity="0" />
      <note Length="0.015625" Pitch="35" RiffPosition="1,984375" Velocity="0" />
      <note Length="0.03125" Pitch="35" RiffPosition="2" Velocity="0" />
      <note Length="0.03125" Pitch="35" RiffPosition="2.03125" Velocity="0" />
      <note Length="0.046875" Pitch="35" RiffPosition="2.0625" Velocity="0" />
      <note Length="0.046875" Pitch="35" RiffPosition="2.109375" Velocity="0" />
      <note Length="0.09375" Pitch="35" RiffPosition="2.15625" Velocity="0" />
      <note Length="0.09375" Pitch="35" RiffPosition="2.25" Velocity="0" />
      <note Length="0.09375" Pitch="35" RiffPosition="2.34375" Velocity="0" />
      <note Length="0.015625" Pitch="35" RiffPosition="2.4375" Velocity="0" />
      <note Length="0.015625" Pitch="35" RiffPosition="2.453125" Velocity="0" />
      <note Length="0.015625" Pitch="35" RiffPosition="2.46875" Velocity="0" />
      <note Length="0.015625" Pitch="35" RiffPosition="2.484375" Velocity="0" />
      <note Length="0.03125" Pitch="35" RiffPosition="2.5" Velocity="0" />
      <note Length="0.03125" Pitch="35" RiffPosition="2.53125" Velocity="0" />
      <note Length="0.046875" Pitch="35" RiffPosition="2.5625" Velocity="0" />
      <note Length="0.046875" Pitch="35" RiffPosition="2.609375" Velocity="0" />
      <note Length="0.09375" Pitch="35" RiffPosition="2.65625" Velocity="0" />
      <note Length="0.09375" Pitch="35" RiffPosition="2.75" Velocity="0" />
      <note Length="0.09375" Pitch="35" RiffPosition="2.84375" Velocity="0" />
      <note Length="0.015625" Pitch="35" RiffPosition="2.9375" Velocity="0" />
      <note Length="0.015625" Pitch="35" RiffPosition="2.953125" Velocity="0" />
      <note Length="0.015625" Pitch="35" RiffPosition="2.96875" Velocity="0" />
      <note Length="0.015625" Pitch="35" RiffPosition="2.984375" Velocity="0" />
      <note Length="0.03125" Pitch="35" RiffPosition="3" Velocity="0" />
      <note Length="0.03125" Pitch="35" RiffPosition="3.03125" Velocity="0" />
      <note Length="0.046875" Pitch="35" RiffPosition="3.0625" Velocity="0" />
      <note Length="0.046875" Pitch="35" RiffPosition="3.109375" Velocity="0" />
      <note Length="0.09375" Pitch="35" RiffPosition="3.15625" Velocity="0" />
      <note Length="0.09375" Pitch="35" RiffPosition="3.25" Velocity="0" />
      <note Length="0.09375" Pitch="35" RiffPosition="3.34375" Velocity="0" />
      <note Length="0.015625" Pitch="35" RiffPosition="3.4375" Velocity="0" />
      <note Length="0.015625" Pitch="35" RiffPosition="3.453125" Velocity="0" />
      <note Length="0.015625" Pitch="35" RiffPosition="3.46875" Velocity="0" />
      <note Length="0.015625" Pitch="35" RiffPosition="3.484375" Velocity="0" />
      <note Length="0.03125" Pitch="35" RiffPosition="3.5" Velocity="0" />
      <note Length="0.03125" Pitch="35" RiffPosition="3.53125" Velocity="0" />
      <note Length="0.046875" Pitch="35" RiffPosition="3.5625" Velocity="0" />
      <note Length="0.046875" Pitch="35" RiffPosition="3.609375" Velocity="0" />
      <note Length="0.09375" Pitch="35" RiffPosition="3.65625" Velocity="0" />
      <note Length="0.09375" Pitch="35" RiffPosition="3.75" Velocity="0" />
      <note Length="0.09375" Pitch="35" RiffPosition="3.84375" Velocity="0" />
      <note Length="0.015625" Pitch="35" RiffPosition="3.9375" Velocity="0" />
      <note Length="0.015625" Pitch="35" RiffPosition="3.953125" Velocity="0" />
      <note Length="0.015625" Pitch="35" RiffPosition="3.96875" Velocity="0" />
      <note Length="0.015625" Pitch="35" RiffPosition="3.984375" Velocity="0" />
      <note Length="0.03125" Pitch="35" RiffPosition="4" Velocity="0" />
      <note Length="0.03125" Pitch="35" RiffPosition="4.03125" Velocity="0" />
      <note Length="0.046875" Pitch="35" RiffPosition="4.0625" Velocity="0" />
      <note Length="0.046875" Pitch="35" RiffPosition="4.109375" Velocity="0" />
      <note Length="0.09375" Pitch="35" RiffPosition="4.15625" Velocity="0" />
      <note Length="0.09375" Pitch="35" RiffPosition="4.25" Velocity="0" />
      <note Length="0.09375" Pitch="35" RiffPosition="4.34375" Velocity="0" />
      <note Length="0.015625" Pitch="35" RiffPosition="4.4375" Velocity="0" />
      <note Length="0.015625" Pitch="35" RiffPosition="4.453125" Velocity="0" />
      <note Length="0.015625" Pitch="35" RiffPosition="4.46875" Velocity="0" />
      <note Length="0.015625" Pitch="35" RiffPosition="4.484375" Velocity="0" />
      <note Length="0.03125" Pitch="35" RiffPosition="4.5" Velocity="0" />
      <note Length="0.03125" Pitch="35" RiffPosition="4.53125" Velocity="0" />
      <note Length="0.046875" Pitch="35" RiffPosition="4.5625" Velocity="0" />
      <note Length="0.046875" Pitch="35" RiffPosition="4.609375" Velocity="0" />
      <note Length="0.09375" Pitch="35" RiffPosition="4.65625" Velocity="0" />
      <note Length="0.09375" Pitch="35" RiffPosition="4.75" Velocity="0" />
      <note Length="0.09375" Pitch="35" RiffPosition="4.84375" Velocity="0" />
      <note Length="0.015625" Pitch="35" RiffPosition="4.9375" Velocity="0" />
      <note Length="0.015625" Pitch="35" RiffPosition="4.953125" Velocity="0" />
      <note Length="0.015625" Pitch="35" RiffPosition="4.96875" Velocity="0" />
      <note Length="0.015625" Pitch="35" RiffPosition="4.984375" Velocity="0" />
      <note Length="0.03125" Pitch="35" RiffPosition="5" Velocity="0" />
      <note Length="0.03125" Pitch="35" RiffPosition="5.03125" Velocity="0" />
      <note Length="0.046875" Pitch="35" RiffPosition="5.0625" Velocity="0" />
      <note Length="0.046875" Pitch="35" RiffPosition="5.109375" Velocity="0" />
      <note Length="0.09375" Pitch="35" RiffPosition="5.15625" Velocity="0" />
      <note Length="0.09375" Pitch="35" RiffPosition="5.25" Velocity="0" />
      <note Length="0.09375" Pitch="35" RiffPosition="5.34375" Velocity="0" />
      <note Length="0.015625" Pitch="35" RiffPosition="5.4375" Velocity="0" />
      <note Length="0.015625" Pitch="35" RiffPosition="5.453125" Velocity="0" />
      <note Length="0.015625" Pitch="35" RiffPosition="5.46875" Velocity="0" />
      <note Length="0.015625" Pitch="35" RiffPosition="5.484375" Velocity="0" />
      <note Length="0.03125" Pitch="35" RiffPosition="5.5" Velocity="0" />
      <note Length="0.03125" Pitch="35" RiffPosition="5.53125" Velocity="0" />
      <note Length="0.046875" Pitch="35" RiffPosition="5.5625" Velocity="0" />
      <note Length="0.046875" Pitch="35" RiffPosition="5.609375" Velocity="0" />
      <note Length="0.09375" Pitch="35" RiffPosition="5.65625" Velocity="0" />
      <note Length="0.09375" Pitch="35" RiffPosition="5.75" Velocity="0" />
      <note Length="0.09375" Pitch="35" RiffPosition="5.84375" Velocity="0" />
      <note Length="0.015625" Pitch="35" RiffPosition="5.9375" Velocity="0" />
      <note Length="0.015625" Pitch="35" RiffPosition="5.953125" Velocity="0" />
      <note Length="0.015625" Pitch="35" RiffPosition="5.96875" Velocity="0" />
      <note Length="0.015625" Pitch="35" RiffPosition="5.984375" Velocity="0" />
      <note Length="0.03125" Pitch="35" RiffPosition="6" Velocity="0" />
      <note Length="0.03125" Pitch="35" RiffPosition="6.03125" Velocity="0" />
      <note Length="0.046875" Pitch="35" RiffPosition="6.0625" Velocity="0" />
      <note Length="0.046875" Pitch="35" RiffPosition="6.109375" Velocity="0" />
      <note Length="0.09375" Pitch="35" RiffPosition="6.15625" Velocity="0" />
      <note Length="0.09375" Pitch="35" RiffPosition="6.25" Velocity="0" />
      <note Length="0.09375" Pitch="35" RiffPosition="6.34375" Velocity="0" />
      <note Length="0.015625" Pitch="35" RiffPosition="6.4375" Velocity="0" />
      <note Length="0.015625" Pitch="35" RiffPosition="6.453125" Velocity="0" />
      <note Length="0.015625" Pitch="35" RiffPosition="6.46875" Velocity="0" />
      <note Length="0.015625" Pitch="35" RiffPosition="6.484375" Velocity="0" />
      <note Length="0.03125" Pitch="35" RiffPosition="6.5" Velocity="0" />
      <note Length="0.03125" Pitch="35" RiffPosition="6.53125" Velocity="0" />
      <note Length="0.046875" Pitch="35" RiffPosition="6.5625" Velocity="0" />
      <note Length="0.046875" Pitch="35" RiffPosition="6.609375" Velocity="0" />
      <note Length="0.09375" Pitch="35" RiffPosition="6.65625" Velocity="0" />
      <note Length="0.09375" Pitch="35" RiffPosition="6.75" Velocity="0" />
      <note Length="0.09375" Pitch="35" RiffPosition="6.84375" Velocity="0" />
      <note Length="0.015625" Pitch="35" RiffPosition="6.9375" Velocity="0" />
      <note Length="0.015625" Pitch="35" RiffPosition="6.953125" Velocity="0" />
      <note Length="0.015625" Pitch="35" RiffPosition="6.96875" Velocity="0" />
      <note Length="0.015625" Pitch="35" RiffPosition="6.984375" Velocity="0" />
      <note Length="0.03125" Pitch="35" RiffPosition="7" Velocity="0" />
      <note Length="0.03125" Pitch="35" RiffPosition="7.03125" Velocity="0" />
      <note Length="0.046875" Pitch="35" RiffPosition="7.0625" Velocity="0" />
      <note Length="0.046875" Pitch="35" RiffPosition="7.109375" Velocity="0" />
      <note Length="0.09375" Pitch="35" RiffPosition="7.15625" Velocity="0" />
      <note Length="0.09375" Pitch="35" RiffPosition="7.25" Velocity="0" />
      <note Length="0.09375" Pitch="35" RiffPosition="7.34375" Velocity="0" />
      <note Length="0.015625" Pitch="35" RiffPosition="7.4375" Velocity="0" />
      <note Length="0.015625" Pitch="35" RiffPosition="7.453125" Velocity="0" />
      <note Length="0.015625" Pitch="35" RiffPosition="7.46875" Velocity="0" />
      <note Length="0.015625" Pitch="35" RiffPosition="7.484375" Velocity="0" />
      <note Length="0.03125" Pitch="35" RiffPosition="7.5" Velocity="0" />
      <note Length="0.03125" Pitch="35" RiffPosition="7.53125" Velocity="0" />
      <note Length="0.046875" Pitch="35" RiffPosition="7.5625" Velocity="0" />
      <note Length="0.046875" Pitch="35" RiffPosition="7.609375" Velocity="0" />
      <note Length="0.09375" Pitch="35" RiffPosition="7.65625" Velocity="0" />
      <note Length="0.09375" Pitch="35" RiffPosition="7.75" Velocity="0" />
      <note Length="0.09375" Pitch="35" RiffPosition="7.84375" Velocity="0" />
      <note Length="0.015625" Pitch="35" RiffPosition="7.9375" Velocity="0" />
      <note Length="0.015625" Pitch="35" RiffPosition="7.953125" Velocity="0" />
      <note Length="0.015625" Pitch="35" RiffPosition="7.96875" Velocity="0" />
      <note Length="0.015625" Pitch="35" RiffPosition="7.984375" Velocity="0" />
      <note Length="0.03125" Pitch="35" RiffPosition="8" Velocity="0" />
      <note Length="0.03125" Pitch="35" RiffPosition="8.03125" Velocity="0" />
      <note Length="0.046875" Pitch="35" RiffPosition="8.0625" Velocity="0" />
      <note Length="0.046875" Pitch="35" RiffPosition="8.109375" Velocity="0" />
      <note Length="0.09375" Pitch="35" RiffPosition="8.15625" Velocity="0" />
      <note Length="0.09375" Pitch="35" RiffPosition="8.25" Velocity="0" />
      <note Length="0.09375" Pitch="35" RiffPosition="8.34375" Velocity="0" />
      <note Length="0.015625" Pitch="35" RiffPosition="8.4375" Velocity="0" />
      <note Length="0.015625" Pitch="35" RiffPosition="8.453125" Velocity="0" />
      <note Length="0.015625" Pitch="35" RiffPosition="8.46875" Velocity="0" />
      <note Length="0.015625" Pitch="35" RiffPosition="8.484375" Velocity="0" />
      <note Length="0.03125" Pitch="35" RiffPosition="8.5" Velocity="0" />
      <note Length="0.03125" Pitch="35" RiffPosition="8.53125" Velocity="0" />
      <note Length="0.046875" Pitch="35" RiffPosition="8.5625" Velocity="0" />
      <note Length="0.046875" Pitch="35" RiffPosition="8.609375" Velocity="0" />
      <note Length="0.09375" Pitch="35" RiffPosition="8.65625" Velocity="0" />
      <note Length="0.09375" Pitch="35" RiffPosition="8.75" Velocity="0" />
      <note Length="0.09375" Pitch="35" RiffPosition="8.84375" Velocity="0" />
      <note Length="0.015625" Pitch="35" RiffPosition="8.9375" Velocity="0" />
      <note Length="0.015625" Pitch="35" RiffPosition="8.953125" Velocity="0" />
      <note Length="0.015625" Pitch="35" RiffPosition="8.96875" Velocity="0" />
      <note Length="0.015625" Pitch="35" RiffPosition="8.984375" Velocity="0" />
      <note Length="0.03125" Pitch="35" RiffPosition="9" Velocity="0" />
      <note Length="0.03125" Pitch="35" RiffPosition="9.03125" Velocity="0" />
      <note Length="0.046875" Pitch="35" RiffPosition="9.0625" Velocity="0" />
      <note Length="0.046875" Pitch="35" RiffPosition="9.109375" Velocity="0" />
      <note Length="0.09375" Pitch="35" RiffPosition="9.15625" Velocity="0" />
      <note Length="0.09375" Pitch="35" RiffPosition="9.25" Velocity="0" />
      <note Length="0.09375" Pitch="35" RiffPosition="9.34375" Velocity="0" />
      <note Length="0.015625" Pitch="35" RiffPosition="9.4375" Velocity="0" />
      <note Length="0.015625" Pitch="35" RiffPosition="9.453125" Velocity="0" />
      <note Length="0.015625" Pitch="35" RiffPosition="9.46875" Velocity="0" />
      <note Length="0.015625" Pitch="35" RiffPosition="9.484375" Velocity="0" />
      <note Length="0.03125" Pitch="35" RiffPosition="9.5" Velocity="0" />
      <note Length="0.03125" Pitch="35" RiffPosition="9.53125" Velocity="0" />
      <note Length="0.046875" Pitch="35" RiffPosition="9.5625" Velocity="0" />
      <note Length="0.046875" Pitch="35" RiffPosition="9.609375" Velocity="0" />
      <note Length="0.09375" Pitch="35" RiffPosition="9.65625" Velocity="0" />
      <note Length="0.09375" Pitch="35" RiffPosition="9.75" Velocity="0" />
      <note Length="0.09375" Pitch="35" RiffPosition="9.84375" Velocity="0" />
      <note Length="0.015625" Pitch="35" RiffPosition="9.9375" Velocity="0" />
      <note Length="0.015625" Pitch="35" RiffPosition="9.953125" Velocity="0" />
      <note Length="0.015625" Pitch="35" RiffPosition="9.96875" Velocity="0" />
      <note Length="0.015625" Pitch="35" RiffPosition="9.984375" Velocity="0" />
      <note Length="0.03125" Pitch="35" RiffPosition="10" Velocity="0" />
      <note Length="0.03125" Pitch="35" RiffPosition="10.03125" Velocity="0" />
      <note Length="0.046875" Pitch="35" RiffPosition="10.0625" Velocity="0" />
      <note Length="0.046875" Pitch="35" RiffPosition="10.109375" Velocity="0" />
      <note Length="0.09375" Pitch="35" RiffPosition="10.15625" Velocity="0" />
      <note Length="0.09375" Pitch="35" RiffPosition="10.25" Velocity="0" />
      <note Length="0.09375" Pitch="35" RiffPosition="10.34375" Velocity="0" />
      <note Length="0.015625" Pitch="35" RiffPosition="10.4375" Velocity="0" />
      <note Length="0.015625" Pitch="35" RiffPosition="10.453125" Velocity="0" />
      <note Length="0.015625" Pitch="35" RiffPosition="10.46875" Velocity="0" />
      <note Length="0.015625" Pitch="35" RiffPosition="10.484375" Velocity="0" />
      <note Length="0.03125" Pitch="35" RiffPosition="10.5" Velocity="0" />
      <note Length="0.03125" Pitch="35" RiffPosition="10.53125" Velocity="0" />
      <note Length="0.046875" Pitch="35" RiffPosition="10.5625" Velocity="0" />
      <note Length="0.046875" Pitch="35" RiffPosition="10.609375" Velocity="0" />
      <note Length="0.09375" Pitch="35" RiffPosition="10.65625" Velocity="0" />
      <note Length="0.09375" Pitch="35" RiffPosition="10.75" Velocity="0" />
      <note Length="0.09375" Pitch="35" RiffPosition="10.84375" Velocity="0" />
      <note Length="0.015625" Pitch="35" RiffPosition="10.9375" Velocity="0" />
      <note Length="0.015625" Pitch="35" RiffPosition="10.953125" Velocity="0" />
      <note Length="0.015625" Pitch="35" RiffPosition="10.96875" Velocity="0" />
      <note Length="0.015625" Pitch="35" RiffPosition="10.984375" Velocity="0" />
      <note Length="0.03125" Pitch="35" RiffPosition="11" Velocity="127" />
      <note Length="0.03125" Pitch="35" RiffPosition="11,03125" Velocity="127" />
      <note Length="0.046875" Pitch="35" RiffPosition="11,0625" Velocity="127" />
      <note Length="0.046875" Pitch="35" RiffPosition="11,109375" Velocity="127" />
      <note Length="0.09375" Pitch="35" RiffPosition="11,15625" Velocity="127" />
      <note Length="0.09375" Pitch="35" RiffPosition="11,25" Velocity="127" />
      <note Length="0.09375" Pitch="35" RiffPosition="11,34375" Velocity="127" />
      <note Length="0.015625" Pitch="35" RiffPosition="11,4375" Velocity="127" />
      <note Length="0.015625" Pitch="35" RiffPosition="11,453125" Velocity="127" />
      <note Length="0.015625" Pitch="35" RiffPosition="11,46875" Velocity="127" />
      <note Length="0.015625" Pitch="35" RiffPosition="11,484375" Velocity="127" />
      <note Length="0.03125" Pitch="35" RiffPosition="11,5" Velocity="127" />
      <note Length="0.03125" Pitch="35" RiffPosition="11,53125" Velocity="127" />
      <note Length="0.046875" Pitch="35" RiffPosition="11,5625" Velocity="127" />
      <note Length="0.046875" Pitch="35" RiffPosition="11,609375" Velocity="127" />
      <note Length="0.09375" Pitch="35" RiffPosition="11,65625" Velocity="127" />
      <note Length="0.09375" Pitch="35" RiffPosition="11,75" Velocity="127" />
      <note Length="0.09375" Pitch="35" RiffPosition="11,84375" Velocity="127" />
      <note Length="0.015625" Pitch="35" RiffPosition="11,9375" Velocity="127" />
      <note Length="0.015625" Pitch="35" RiffPosition="11,953125" Velocity="127" />
      <note Length="0.015625" Pitch="35" RiffPosition="11,96875" Velocity="127" />
      <note Length="0.015625" Pitch="35" RiffPosition="11,984375" Velocity="127" />
      <note Length="0.03125" Pitch="35" RiffPosition="12" Velocity="127" />
      <note Length="0.03125" Pitch="35" RiffPosition="12.03125" Velocity="127" />
      <note Length="0.046875" Pitch="35" RiffPosition="12.0625" Velocity="127" />
      <note Length="0.046875" Pitch="35" RiffPosition="12.109375" Velocity="127" />
      <note Length="0.09375" Pitch="35" RiffPosition="12.15625" Velocity="127" />
      <note Length="0.09375" Pitch="35" RiffPosition="12.25" Velocity="127" />
      <note Length="0.09375" Pitch="35" RiffPosition="12.34375" Velocity="127" />
      <note Length="0.015625" Pitch="35" RiffPosition="12.4375" Velocity="127" />
      <note Length="0.015625" Pitch="35" RiffPosition="12.453125" Velocity="127" />
      <note Length="0.015625" Pitch="35" RiffPosition="12.46875" Velocity="127" />
      <note Length="0.015625" Pitch="35" RiffPosition="12.484375" Velocity="127" />
      <note Length="0.03125" Pitch="35" RiffPosition="12.5" Velocity="127" />
      <note Length="0.03125" Pitch="35" RiffPosition="12.53125" Velocity="127" />
      <note Length="0.046875" Pitch="35" RiffPosition="12.5625" Velocity="127" />
      <note Length="0.046875" Pitch="35" RiffPosition="12.609375" Velocity="127" />
      <note Length="0.09375" Pitch="35" RiffPosition="12.65625" Velocity="127" />
      <note Length="0.09375" Pitch="35" RiffPosition="12.75" Velocity="127" />
      <note Length="0.09375" Pitch="35" RiffPosition="12.84375" Velocity="127" />
      <note Length="0.015625" Pitch="35" RiffPosition="12.9375" Velocity="127" />
      <note Length="0.015625" Pitch="35" RiffPosition="12.953125" Velocity="127" />
      <note Length="0.015625" Pitch="35" RiffPosition="12.96875" Velocity="127" />
      <note Length="0.015625" Pitch="35" RiffPosition="12.984375" Velocity="127" />
      <note Length="0.03125" Pitch="35" RiffPosition="13" Velocity="0" />
      <note Length="0.03125" Pitch="35" RiffPosition="13.03125" Velocity="0" />
      <note Length="0.046875" Pitch="35" RiffPosition="13.0625" Velocity="0" />
      <note Length="0.046875" Pitch="35" RiffPosition="13.109375" Velocity="0" />
      <note Length="0.09375" Pitch="35" RiffPosition="13.15625" Velocity="0" />
      <note Length="0.09375" Pitch="35" RiffPosition="13.25" Velocity="0" />
      <note Length="0.09375" Pitch="35" RiffPosition="13.34375" Velocity="0" />
      <note Length="0.015625" Pitch="35" RiffPosition="13.4375" Velocity="0" />
      <note Length="0.015625" Pitch="35" RiffPosition="13.453125" Velocity="0" />
      <note Length="0.015625" Pitch="35" RiffPosition="13.46875" Velocity="0" />
      <note Length="0.015625" Pitch="35" RiffPosition="13.484375" Velocity="0" />
      <note Length="0.03125" Pitch="35" RiffPosition="13.5" Velocity="0" />
      <note Length="0.03125" Pitch="35" RiffPosition="13.53125" Velocity="0" />
      <note Length="0.046875" Pitch="35" RiffPosition="13.5625" Velocity="0" />
      <note Length="0.046875" Pitch="35" RiffPosition="13.609375" Velocity="0" />
      <note Length="0.09375" Pitch="35" RiffPosition="13.65625" Velocity="0" />
      <note Length="0.09375" Pitch="35" RiffPosition="13.75" Velocity="0" />
      <note Length="0.09375" Pitch="35" RiffPosition="13.84375" Velocity="0" />
      <note Length="0.015625" Pitch="35" RiffPosition="13.9375" Velocity="0" />
      <note Length="0.015625" Pitch="35" RiffPosition="13.953125" Velocity="0" />
      <note Length="0.015625" Pitch="35" RiffPosition="13.96875" Velocity="0" />
      <note Length="0.015625" Pitch="35" RiffPosition="13.984375" Velocity="0" />
    </riff>
    <riff IsDrum="True" MidiInstrument="0" Tempo="115" Length="14">
      <note Length="0.03125" Pitch="54" RiffPosition="0" Velocity="0" />
      <note Length="0.03125" Pitch="51" RiffPosition="0.03125" Velocity="0" />
      <note Length="0.03125" Pitch="49" RiffPosition="0.0625" Velocity="0" />
      <note Length="0.03125" Pitch="45" RiffPosition="0.09375" Velocity="0" />
      <note Length="0.03125" Pitch="43" RiffPosition="0.125" Velocity="0" />
      <note Length="0.03125" Pitch="38" RiffPosition="0.15625" Velocity="0" />
      <note Length="0.0625" Pitch="38" RiffPosition="0.1875" Velocity="0" />
      <note Length="0.015625" Pitch="39" RiffPosition="0.25" Velocity="0" />
      <note Length="0.046875" Pitch="40" RiffPosition="0.265625" Velocity="0" />
      <note Length="0.03125" Pitch="43" RiffPosition="0.3125" Velocity="0" />
      <note Length="0.03125" Pitch="44" RiffPosition="0.34375" Velocity="0" />
      <note Length="0.03125" Pitch="44" RiffPosition="0.375" Velocity="0" />
      <note Length="0.03125" Pitch="45" RiffPosition="0.40625" Velocity="0" />
      <note Length="0.03125" Pitch="47" RiffPosition="0.4375" Velocity="0" />
      <note Length="0.03125" Pitch="45" RiffPosition="0.46875" Velocity="0" />
      <note Length="0.03125" Pitch="46" RiffPosition="0.5" Velocity="0" />
      <note Length="0.03125" Pitch="46" RiffPosition="0.53125" Velocity="0" />
      <note Length="0.03125" Pitch="47" RiffPosition="0.5625" Velocity="0" />
      <note Length="0.03125" Pitch="46" RiffPosition="0.59375" Velocity="0" />
      <note Length="0.0625" Pitch="46" RiffPosition="0.625" Velocity="0" />
      <note Length="0.03125" Pitch="43" RiffPosition="0.6875" Velocity="0" />
      <note Length="0.03125" Pitch="41" RiffPosition="0.71875" Velocity="0" />
      <note Length="0.03125" Pitch="38" RiffPosition="0.75" Velocity="0" />
      <note Length="0.03125" Pitch="37" RiffPosition="0.78125" Velocity="0" />
      <note Length="0.03125" Pitch="35" RiffPosition="0.8125" Velocity="0" />
      <note Length="0.03125" Pitch="38" RiffPosition="0.84375" Velocity="0" />
      <note Length="0.0625" Pitch="43" RiffPosition="0.875" Velocity="0" />
      <note Length="0.03125" Pitch="49" RiffPosition="0.9375" Velocity="0" />
      <note Length="0.03125" Pitch="51" RiffPosition="0.96875" Velocity="0" />
      <note Length="0.03125" Pitch="53" RiffPosition="1" Velocity="0" />
      <note Length="0.03125" Pitch="50" RiffPosition="1,03125" Velocity="0" />
      <note Length="0.03125" Pitch="49" RiffPosition="1,0625" Velocity="0" />
      <note Length="0.03125" Pitch="46" RiffPosition="1,09375" Velocity="0" />
      <note Length="0.03125" Pitch="42" RiffPosition="1,125" Velocity="0" />
      <note Length="0.03125" Pitch="39" RiffPosition="1,15625" Velocity="0" />
      <note Length="0.0625" Pitch="37" RiffPosition="1,1875" Velocity="0" />
      <note Length="0.015625" Pitch="38" RiffPosition="1,25" Velocity="0" />
      <note Length="0.046875" Pitch="39" RiffPosition="1,265625" Velocity="0" />
      <note Length="0.03125" Pitch="44" RiffPosition="1,3125" Velocity="0" />
      <note Length="0.03125" Pitch="44" RiffPosition="1,34375" Velocity="0" />
      <note Length="0.03125" Pitch="45" RiffPosition="1,375" Velocity="0" />
      <note Length="0.03125" Pitch="45" RiffPosition="1,40625" Velocity="0" />
      <note Length="0.03125" Pitch="46" RiffPosition="1,4375" Velocity="0" />
      <note Length="0.03125" Pitch="45" RiffPosition="1,46875" Velocity="0" />
      <note Length="0.03125" Pitch="45" RiffPosition="1,5" Velocity="0" />
      <note Length="0.03125" Pitch="48" RiffPosition="1,53125" Velocity="0" />
      <note Length="0.03125" Pitch="47" RiffPosition="1,5625" Velocity="0" />
      <note Length="0.03125" Pitch="48" RiffPosition="1,59375" Velocity="0" />
      <note Length="0.0625" Pitch="46" RiffPosition="1,625" Velocity="0" />
      <note Length="0.03125" Pitch="43" RiffPosition="1,6875" Velocity="0" />
      <note Length="0.03125" Pitch="41" RiffPosition="1,71875" Velocity="0" />
      <note Length="0.03125" Pitch="39" RiffPosition="1,75" Velocity="0" />
      <note Length="0.03125" Pitch="37" RiffPosition="1,78125" Velocity="0" />
      <note Length="0.03125" Pitch="37" RiffPosition="1,8125" Velocity="0" />
      <note Length="0.03125" Pitch="38" RiffPosition="1,84375" Velocity="0" />
      <note Length="0.0625" Pitch="42" RiffPosition="1,875" Velocity="0" />
      <note Length="0.03125" Pitch="49" RiffPosition="1,9375" Velocity="0" />
      <note Length="0.03125" Pitch="53" RiffPosition="1,96875" Velocity="0" />
      <note Length="0.03125" Pitch="53" RiffPosition="2" Velocity="0" />
      <note Length="0.03125" Pitch="52" RiffPosition="2.03125" Velocity="0" />
      <note Length="0.03125" Pitch="48" RiffPosition="2.0625" Velocity="0" />
      <note Length="0.03125" Pitch="46" RiffPosition="2.09375" Velocity="0" />
      <note Length="0.03125" Pitch="42" RiffPosition="2.125" Velocity="0" />
      <note Length="0.03125" Pitch="39" RiffPosition="2.15625" Velocity="0" />
      <note Length="0.0625" Pitch="39" RiffPosition="2.1875" Velocity="0" />
      <note Length="0.015625" Pitch="40" RiffPosition="2.25" Velocity="0" />
      <note Length="0.046875" Pitch="41" RiffPosition="2.265625" Velocity="0" />
      <note Length="0.03125" Pitch="44" RiffPosition="2.3125" Velocity="0" />
      <note Length="0.03125" Pitch="44" RiffPosition="2.34375" Velocity="0" />
      <note Length="0.03125" Pitch="45" RiffPosition="2.375" Velocity="0" />
      <note Length="0.03125" Pitch="46" RiffPosition="2.40625" Velocity="0" />
      <note Length="0.03125" Pitch="46" RiffPosition="2.4375" Velocity="0" />
      <note Length="0.03125" Pitch="46" RiffPosition="2.46875" Velocity="0" />
      <note Length="0.03125" Pitch="45" RiffPosition="2.5" Velocity="0" />
      <note Length="0.03125" Pitch="47" RiffPosition="2.53125" Velocity="0" />
      <note Length="0.03125" Pitch="46" RiffPosition="2.5625" Velocity="0" />
      <note Length="0.03125" Pitch="47" RiffPosition="2.59375" Velocity="0" />
      <note Length="0.0625" Pitch="47" RiffPosition="2.625" Velocity="0" />
      <note Length="0.03125" Pitch="44" RiffPosition="2.6875" Velocity="0" />
      <note Length="0.03125" Pitch="40" RiffPosition="2.71875" Velocity="0" />
      <note Length="0.03125" Pitch="39" RiffPosition="2.75" Velocity="0" />
      <note Length="0.03125" Pitch="36" RiffPosition="2.78125" Velocity="0" />
      <note Length="0.03125" Pitch="36" RiffPosition="2.8125" Velocity="0" />
      <note Length="0.03125" Pitch="39" RiffPosition="2.84375" Velocity="0" />
      <note Length="0.0625" Pitch="42" RiffPosition="2.875" Velocity="0" />
      <note Length="0.03125" Pitch="48" RiffPosition="2.9375" Velocity="0" />
      <note Length="0.03125" Pitch="52" RiffPosition="2.96875" Velocity="0" />
      <note Length="0.03125" Pitch="52" RiffPosition="3" Velocity="0" />
      <note Length="0.03125" Pitch="51" RiffPosition="3.03125" Velocity="0" />
      <note Length="0.03125" Pitch="50" RiffPosition="3.0625" Velocity="0" />
      <note Length="0.03125" Pitch="45" RiffPosition="3.09375" Velocity="0" />
      <note Length="0.03125" Pitch="43" RiffPosition="3.125" Velocity="0" />
      <note Length="0.03125" Pitch="38" RiffPosition="3.15625" Velocity="0" />
      <note Length="0.0625" Pitch="38" RiffPosition="3.1875" Velocity="0" />
      <note Length="0.015625" Pitch="39" RiffPosition="3.25" Velocity="0" />
      <note Length="0.046875" Pitch="40" RiffPosition="3.265625" Velocity="0" />
      <note Length="0.03125" Pitch="43" RiffPosition="3.3125" Velocity="0" />
      <note Length="0.03125" Pitch="45" RiffPosition="3.34375" Velocity="0" />
      <note Length="0.03125" Pitch="44" RiffPosition="3.375" Velocity="0" />
      <note Length="0.03125" Pitch="46" RiffPosition="3.40625" Velocity="0" />
      <note Length="0.03125" Pitch="45" RiffPosition="3.4375" Velocity="0" />
      <note Length="0.03125" Pitch="46" RiffPosition="3.46875" Velocity="0" />
      <note Length="0.03125" Pitch="46" RiffPosition="3.5" Velocity="0" />
      <note Length="0.03125" Pitch="46" RiffPosition="3.53125" Velocity="0" />
      <note Length="0.03125" Pitch="48" RiffPosition="3.5625" Velocity="0" />
      <note Length="0.03125" Pitch="46" RiffPosition="3.59375" Velocity="0" />
      <note Length="0.0625" Pitch="47" RiffPosition="3.625" Velocity="0" />
      <note Length="0.03125" Pitch="44" RiffPosition="3.6875" Velocity="0" />
      <note Length="0.03125" Pitch="42" RiffPosition="3.71875" Velocity="0" />
      <note Length="0.03125" Pitch="38" RiffPosition="3.75" Velocity="0" />
      <note Length="0.03125" Pitch="38" RiffPosition="3.78125" Velocity="0" />
      <note Length="0.03125" Pitch="36" RiffPosition="3.8125" Velocity="0" />
      <note Length="0.03125" Pitch="39" RiffPosition="3.84375" Velocity="0" />
      <note Length="0.0625" Pitch="41" RiffPosition="3.875" Velocity="0" />
      <note Length="0.03125" Pitch="50" RiffPosition="3.9375" Velocity="0" />
      <note Length="0.03125" Pitch="51" RiffPosition="3.96875" Velocity="0" />
      <note Length="0.03125" Pitch="54" RiffPosition="4" Velocity="0" />
      <note Length="0.03125" Pitch="51" RiffPosition="4.03125" Velocity="0" />
      <note Length="0.03125" Pitch="49" RiffPosition="4.0625" Velocity="0" />
      <note Length="0.03125" Pitch="44" RiffPosition="4.09375" Velocity="0" />
      <note Length="0.03125" Pitch="43" RiffPosition="4.125" Velocity="0" />
      <note Length="0.03125" Pitch="40" RiffPosition="4.15625" Velocity="0" />
      <note Length="0.0625" Pitch="38" RiffPosition="4.1875" Velocity="0" />
      <note Length="0.015625" Pitch="38" RiffPosition="4.25" Velocity="0" />
      <note Length="0.046875" Pitch="40" RiffPosition="4.265625" Velocity="0" />
      <note Length="0.03125" Pitch="43" RiffPosition="4.3125" Velocity="0" />
      <note Length="0.03125" Pitch="44" RiffPosition="4.34375" Velocity="0" />
      <note Length="0.03125" Pitch="46" RiffPosition="4.375" Velocity="0" />
      <note Length="0.03125" Pitch="45" RiffPosition="4.40625" Velocity="0" />
      <note Length="0.03125" Pitch="47" RiffPosition="4.4375" Velocity="0" />
      <note Length="0.03125" Pitch="45" RiffPosition="4.46875" Velocity="0" />
      <note Length="0.03125" Pitch="46" RiffPosition="4.5" Velocity="0" />
      <note Length="0.03125" Pitch="46" RiffPosition="4.53125" Velocity="0" />
      <note Length="0.03125" Pitch="47" RiffPosition="4.5625" Velocity="0" />
      <note Length="0.03125" Pitch="48" RiffPosition="4.59375" Velocity="0" />
      <note Length="0.0625" Pitch="46" RiffPosition="4.625" Velocity="0" />
      <note Length="0.03125" Pitch="43" RiffPosition="4.6875" Velocity="0" />
      <note Length="0.03125" Pitch="41" RiffPosition="4.71875" Velocity="0" />
      <note Length="0.03125" Pitch="37" RiffPosition="4.75" Velocity="0" />
      <note Length="0.03125" Pitch="37" RiffPosition="4.78125" Velocity="0" />
      <note Length="0.03125" Pitch="38" RiffPosition="4.8125" Velocity="0" />
      <note Length="0.03125" Pitch="38" RiffPosition="4.84375" Velocity="0" />
      <note Length="0.0625" Pitch="43" RiffPosition="4.875" Velocity="0" />
      <note Length="0.03125" Pitch="49" RiffPosition="4.9375" Velocity="0" />
      <note Length="0.03125" Pitch="51" RiffPosition="4.96875" Velocity="0" />
      <note Length="0.03125" Pitch="53" RiffPosition="5" Velocity="0" />
      <note Length="0.03125" Pitch="52" RiffPosition="5.03125" Velocity="0" />
      <note Length="0.03125" Pitch="49" RiffPosition="5.0625" Velocity="0" />
      <note Length="0.03125" Pitch="46" RiffPosition="5.09375" Velocity="0" />
      <note Length="0.03125" Pitch="42" RiffPosition="5.125" Velocity="0" />
      <note Length="0.03125" Pitch="39" RiffPosition="5.15625" Velocity="0" />
      <note Length="0.0625" Pitch="37" RiffPosition="5.1875" Velocity="0" />
      <note Length="0.015625" Pitch="40" RiffPosition="5.25" Velocity="0" />
      <note Length="0.046875" Pitch="39" RiffPosition="5.265625" Velocity="0" />
      <note Length="0.03125" Pitch="44" RiffPosition="5.3125" Velocity="0" />
      <note Length="0.03125" Pitch="44" RiffPosition="5.34375" Velocity="0" />
      <note Length="0.03125" Pitch="45" RiffPosition="5.375" Velocity="0" />
      <note Length="0.03125" Pitch="45" RiffPosition="5.40625" Velocity="0" />
      <note Length="0.03125" Pitch="46" RiffPosition="5.4375" Velocity="0" />
      <note Length="0.03125" Pitch="47" RiffPosition="5.46875" Velocity="0" />
      <note Length="0.03125" Pitch="45" RiffPosition="5.5" Velocity="0" />
      <note Length="0.03125" Pitch="48" RiffPosition="5.53125" Velocity="0" />
      <note Length="0.03125" Pitch="47" RiffPosition="5.5625" Velocity="0" />
      <note Length="0.03125" Pitch="48" RiffPosition="5.59375" Velocity="0" />
      <note Length="0.0625" Pitch="46" RiffPosition="5.625" Velocity="0" />
      <note Length="0.03125" Pitch="44" RiffPosition="5.6875" Velocity="0" />
      <note Length="0.03125" Pitch="40" RiffPosition="5.71875" Velocity="0" />
      <note Length="0.03125" Pitch="39" RiffPosition="5.75" Velocity="0" />
      <note Length="0.03125" Pitch="36" RiffPosition="5.78125" Velocity="0" />
      <note Length="0.03125" Pitch="37" RiffPosition="5.8125" Velocity="0" />
      <note Length="0.03125" Pitch="38" RiffPosition="5.84375" Velocity="0" />
      <note Length="0.0625" Pitch="42" RiffPosition="5.875" Velocity="0" />
      <note Length="0.03125" Pitch="48" RiffPosition="5.9375" Velocity="0" />
      <note Length="0.03125" Pitch="52" RiffPosition="5.96875" Velocity="0" />
      <note Length="0.03125" Pitch="53" RiffPosition="6" Velocity="0" />
      <note Length="0.03125" Pitch="52" RiffPosition="6.03125" Velocity="0" />
      <note Length="0.03125" Pitch="48" RiffPosition="6.0625" Velocity="0" />
      <note Length="0.03125" Pitch="46" RiffPosition="6.09375" Velocity="0" />
      <note Length="0.03125" Pitch="44" RiffPosition="6.125" Velocity="0" />
      <note Length="0.03125" Pitch="39" RiffPosition="6.15625" Velocity="0" />
      <note Length="0.0625" Pitch="39" RiffPosition="6.1875" Velocity="0" />
      <note Length="0.015625" Pitch="39" RiffPosition="6.25" Velocity="0" />
      <note Length="0.046875" Pitch="41" RiffPosition="6.265625" Velocity="0" />
      <note Length="0.03125" Pitch="44" RiffPosition="6.3125" Velocity="0" />
      <note Length="0.03125" Pitch="44" RiffPosition="6.34375" Velocity="0" />
      <note Length="0.03125" Pitch="45" RiffPosition="6.375" Velocity="0" />
      <note Length="0.03125" Pitch="46" RiffPosition="6.40625" Velocity="0" />
      <note Length="0.03125" Pitch="45" RiffPosition="6.4375" Velocity="0" />
      <note Length="0.03125" Pitch="46" RiffPosition="6.46875" Velocity="0" />
      <note Length="0.03125" Pitch="45" RiffPosition="6.5" Velocity="0" />
      <note Length="0.03125" Pitch="47" RiffPosition="6.53125" Velocity="0" />
      <note Length="0.03125" Pitch="46" RiffPosition="6.5625" Velocity="0" />
      <note Length="0.03125" Pitch="47" RiffPosition="6.59375" Velocity="0" />
      <note Length="0.0625" Pitch="47" RiffPosition="6.625" Velocity="0" />
      <note Length="0.03125" Pitch="44" RiffPosition="6.6875" Velocity="0" />
      <note Length="0.03125" Pitch="40" RiffPosition="6.71875" Velocity="0" />
      <note Length="0.03125" Pitch="39" RiffPosition="6.75" Velocity="0" />
      <note Length="0.03125" Pitch="36" RiffPosition="6.78125" Velocity="0" />
      <note Length="0.03125" Pitch="36" RiffPosition="6.8125" Velocity="0" />
      <note Length="0.03125" Pitch="39" RiffPosition="6.84375" Velocity="0" />
      <note Length="0.0625" Pitch="42" RiffPosition="6.875" Velocity="0" />
      <note Length="0.03125" Pitch="48" RiffPosition="6.9375" Velocity="0" />
      <note Length="0.03125" Pitch="52" RiffPosition="6.96875" Velocity="0" />
      <note Length="0.03125" Pitch="52" RiffPosition="7" Velocity="0" />
      <note Length="0.03125" Pitch="51" RiffPosition="7.03125" Velocity="0" />
      <note Length="0.03125" Pitch="50" RiffPosition="7.0625" Velocity="0" />
      <note Length="0.03125" Pitch="45" RiffPosition="7.09375" Velocity="0" />
      <note Length="0.03125" Pitch="43" RiffPosition="7.125" Velocity="0" />
      <note Length="0.03125" Pitch="38" RiffPosition="7.15625" Velocity="0" />
      <note Length="0.0625" Pitch="38" RiffPosition="7.1875" Velocity="0" />
      <note Length="0.015625" Pitch="39" RiffPosition="7.25" Velocity="0" />
      <note Length="0.046875" Pitch="40" RiffPosition="7.265625" Velocity="0" />
      <note Length="0.03125" Pitch="43" RiffPosition="7.3125" Velocity="0" />
      <note Length="0.03125" Pitch="45" RiffPosition="7.34375" Velocity="0" />
      <note Length="0.03125" Pitch="44" RiffPosition="7.375" Velocity="0" />
      <note Length="0.03125" Pitch="46" RiffPosition="7.40625" Velocity="0" />
      <note Length="0.03125" Pitch="45" RiffPosition="7.4375" Velocity="0" />
      <note Length="0.03125" Pitch="46" RiffPosition="7.46875" Velocity="0" />
      <note Length="0.03125" Pitch="46" RiffPosition="7.5" Velocity="0" />
      <note Length="0.03125" Pitch="46" RiffPosition="7.53125" Velocity="0" />
      <note Length="0.03125" Pitch="48" RiffPosition="7.5625" Velocity="0" />
      <note Length="0.03125" Pitch="46" RiffPosition="7.59375" Velocity="0" />
      <note Length="0.0625" Pitch="47" RiffPosition="7.625" Velocity="0" />
      <note Length="0.03125" Pitch="44" RiffPosition="7.6875" Velocity="0" />
      <note Length="0.03125" Pitch="41" RiffPosition="7.71875" Velocity="0" />
      <note Length="0.03125" Pitch="38" RiffPosition="7.75" Velocity="0" />
      <note Length="0.03125" Pitch="38" RiffPosition="7.78125" Velocity="0" />
      <note Length="0.03125" Pitch="36" RiffPosition="7.8125" Velocity="0" />
      <note Length="0.03125" Pitch="39" RiffPosition="7.84375" Velocity="0" />
      <note Length="0.0625" Pitch="41" RiffPosition="7.875" Velocity="0" />
      <note Length="0.03125" Pitch="49" RiffPosition="7.9375" Velocity="0" />
      <note Length="0.03125" Pitch="51" RiffPosition="7.96875" Velocity="0" />
      <note Length="0.03125" Pitch="54" RiffPosition="8" Velocity="0" />
      <note Length="0.03125" Pitch="51" RiffPosition="8.03125" Velocity="0" />
      <note Length="0.03125" Pitch="49" RiffPosition="8.0625" Velocity="0" />
      <note Length="0.03125" Pitch="44" RiffPosition="8.09375" Velocity="0" />
      <note Length="0.03125" Pitch="43" RiffPosition="8.125" Velocity="0" />
      <note Length="0.03125" Pitch="40" RiffPosition="8.15625" Velocity="0" />
      <note Length="0.0625" Pitch="38" RiffPosition="8.1875" Velocity="0" />
      <note Length="0.015625" Pitch="38" RiffPosition="8.25" Velocity="0" />
      <note Length="0.046875" Pitch="40" RiffPosition="8.265625" Velocity="0" />
      <note Length="0.03125" Pitch="42" RiffPosition="8.3125" Velocity="0" />
      <note Length="0.03125" Pitch="44" RiffPosition="8.34375" Velocity="0" />
      <note Length="0.03125" Pitch="46" RiffPosition="8.375" Velocity="0" />
      <note Length="0.03125" Pitch="45" RiffPosition="8.40625" Velocity="0" />
      <note Length="0.03125" Pitch="46" RiffPosition="8.4375" Velocity="0" />
      <note Length="0.03125" Pitch="45" RiffPosition="8.46875" Velocity="0" />
      <note Length="0.03125" Pitch="46" RiffPosition="8.5" Velocity="0" />
      <note Length="0.03125" Pitch="46" RiffPosition="8.53125" Velocity="0" />
      <note Length="0.03125" Pitch="47" RiffPosition="8.5625" Velocity="0" />
      <note Length="0.03125" Pitch="48" RiffPosition="8.59375" Velocity="0" />
      <note Length="0.0625" Pitch="46" RiffPosition="8.625" Velocity="0" />
      <note Length="0.03125" Pitch="43" RiffPosition="8.6875" Velocity="0" />
      <note Length="0.03125" Pitch="41" RiffPosition="8.71875" Velocity="0" />
      <note Length="0.03125" Pitch="37" RiffPosition="8.75" Velocity="0" />
      <note Length="0.03125" Pitch="37" RiffPosition="8.78125" Velocity="0" />
      <note Length="0.03125" Pitch="37" RiffPosition="8.8125" Velocity="0" />
      <note Length="0.03125" Pitch="38" RiffPosition="8.84375" Velocity="0" />
      <note Length="0.0625" Pitch="43" RiffPosition="8.875" Velocity="0" />
      <note Length="0.03125" Pitch="49" RiffPosition="8.9375" Velocity="0" />
      <note Length="0.03125" Pitch="51" RiffPosition="8.96875" Velocity="0" />
      <note Length="0.03125" Pitch="53" RiffPosition="9" Velocity="50" />
      <note Length="0.03125" Pitch="52" RiffPosition="9.03125" Velocity="36" />
      <note Length="0.03125" Pitch="48" RiffPosition="9.0625" Velocity="70" />
      <note Length="0.03125" Pitch="46" RiffPosition="9.09375" Velocity="87" />
      <note Length="0.03125" Pitch="42" RiffPosition="9.125" Velocity="52" />
      <note Length="0.03125" Pitch="39" RiffPosition="9.15625" Velocity="0" />
      <note Length="0.0625" Pitch="37" RiffPosition="9.1875" Velocity="55" />
      <note Length="0.015625" Pitch="40" RiffPosition="9.25" Velocity="0" />
      <note Length="0.046875" Pitch="39" RiffPosition="9.265625" Velocity="0" />
      <note Length="0.03125" Pitch="44" RiffPosition="9.3125" Velocity="61" />
      <note Length="0.03125" Pitch="44" RiffPosition="9.34375" Velocity="44" />
      <note Length="0.03125" Pitch="45" RiffPosition="9.375" Velocity="85" />
      <note Length="0.03125" Pitch="44" RiffPosition="9.40625" Velocity="114" />
      <note Length="0.03125" Pitch="46" RiffPosition="9.4375" Velocity="97" />
      <note Length="0.03125" Pitch="47" RiffPosition="9.46875" Velocity="80" />
      <note Length="0.03125" Pitch="45" RiffPosition="9.5" Velocity="60" />
      <note Length="0.03125" Pitch="47" RiffPosition="9.53125" Velocity="119" />
      <note Length="0.03125" Pitch="47" RiffPosition="9.5625" Velocity="123" />
      <note Length="0.03125" Pitch="47" RiffPosition="9.59375" Velocity="115" />
      <note Length="0.0625" Pitch="46" RiffPosition="9.625" Velocity="56" />
      <note Length="0.03125" Pitch="44" RiffPosition="9.6875" Velocity="101" />
      <note Length="0.03125" Pitch="40" RiffPosition="9.71875" Velocity="0" />
      <note Length="0.03125" Pitch="39" RiffPosition="9.75" Velocity="0" />
      <note Length="0.03125" Pitch="36" RiffPosition="9.78125" Velocity="0" />
      <note Length="0.03125" Pitch="37" RiffPosition="9.8125" Velocity="74" />
      <note Length="0.03125" Pitch="37" RiffPosition="9.84375" Velocity="82" />
      <note Length="0.0625" Pitch="42" RiffPosition="9.875" Velocity="57" />
      <note Length="0.03125" Pitch="48" RiffPosition="9.9375" Velocity="77" />
      <note Length="0.03125" Pitch="52" RiffPosition="9.96875" Velocity="46" />
      <note Length="0.03125" Pitch="53" RiffPosition="10" Velocity="50" />
      <note Length="0.03125" Pitch="52" RiffPosition="10.03125" Velocity="36" />
      <note Length="0.03125" Pitch="48" RiffPosition="10.0625" Velocity="70" />
      <note Length="0.03125" Pitch="45" RiffPosition="10.09375" Velocity="87" />
      <note Length="0.03125" Pitch="44" RiffPosition="10.125" Velocity="52" />
      <note Length="0.03125" Pitch="38" RiffPosition="10.15625" Velocity="0" />
      <note Length="0.0625" Pitch="39" RiffPosition="10.1875" Velocity="0" />
      <note Length="0.015625" Pitch="39" RiffPosition="10.25" Velocity="0" />
      <note Length="0.046875" Pitch="41" RiffPosition="10.265625" Velocity="45" />
      <note Length="0.03125" Pitch="44" RiffPosition="10.3125" Velocity="61" />
      <note Length="0.03125" Pitch="45" RiffPosition="10.34375" Velocity="44" />
      <note Length="0.03125" Pitch="44" RiffPosition="10.375" Velocity="85" />
      <note Length="0.03125" Pitch="46" RiffPosition="10.40625" Velocity="114" />
      <note Length="0.03125" Pitch="45" RiffPosition="10.4375" Velocity="97" />
      <note Length="0.03125" Pitch="46" RiffPosition="10.46875" Velocity="80" />
      <note Length="0.03125" Pitch="44" RiffPosition="10.5" Velocity="60" />
      <note Length="0.03125" Pitch="47" RiffPosition="10.53125" Velocity="119" />
      <note Length="0.03125" Pitch="48" RiffPosition="10.5625" Velocity="123" />
      <note Length="0.03125" Pitch="47" RiffPosition="10.59375" Velocity="115" />
      <note Length="0.0625" Pitch="47" RiffPosition="10.625" Velocity="56" />
      <note Length="0.03125" Pitch="44" RiffPosition="10.6875" Velocity="101" />
      <note Length="0.03125" Pitch="40" RiffPosition="10.71875" Velocity="0" />
      <note Length="0.03125" Pitch="38" RiffPosition="10.75" Velocity="0" />
      <note Length="0.03125" Pitch="38" RiffPosition="10.78125" Velocity="0" />
      <note Length="0.03125" Pitch="36" RiffPosition="10.8125" Velocity="0" />
      <note Length="0.03125" Pitch="39" RiffPosition="10.84375" Velocity="0" />
      <note Length="0.0625" Pitch="42" RiffPosition="10.875" Velocity="57" />
      <note Length="0.03125" Pitch="48" RiffPosition="10.9375" Velocity="77" />
      <note Length="0.03125" Pitch="52" RiffPosition="10.96875" Velocity="46" />
      <note Length="0.03125" Pitch="54" RiffPosition="11" Velocity="50" />
      <note Length="0.03125" Pitch="51" RiffPosition="11,03125" Velocity="65" />
      <note Length="0.03125" Pitch="49" RiffPosition="11,0625" Velocity="38" />
      <note Length="0.03125" Pitch="45" RiffPosition="11,09375" Velocity="87" />
      <note Length="0.03125" Pitch="43" RiffPosition="11,125" Velocity="52" />
      <note Length="0.03125" Pitch="38" RiffPosition="11,15625" Velocity="0" />
      <note Length="0.0625" Pitch="38" RiffPosition="11,1875" Velocity="0" />
      <note Length="0.015625" Pitch="39" RiffPosition="11,25" Velocity="0" />
      <note Length="0.046875" Pitch="40" RiffPosition="11,265625" Velocity="0" />
      <note Length="0.03125" Pitch="43" RiffPosition="11,3125" Velocity="61" />
      <note Length="0.03125" Pitch="45" RiffPosition="11,34375" Velocity="44" />
      <note Length="0.03125" Pitch="44" RiffPosition="11,375" Velocity="85" />
      <note Length="0.03125" Pitch="46" RiffPosition="11,40625" Velocity="114" />
      <note Length="0.03125" Pitch="47" RiffPosition="11,4375" Velocity="97" />
      <note Length="0.03125" Pitch="45" RiffPosition="11,46875" Velocity="80" />
      <note Length="0.03125" Pitch="46" RiffPosition="11,5" Velocity="60" />
      <note Length="0.03125" Pitch="46" RiffPosition="11,53125" Velocity="119" />
      <note Length="0.03125" Pitch="48" RiffPosition="11,5625" Velocity="123" />
      <note Length="0.03125" Pitch="46" RiffPosition="11,59375" Velocity="115" />
      <note Length="0.0625" Pitch="47" RiffPosition="11,625" Velocity="56" />
      <note Length="0.03125" Pitch="43" RiffPosition="11,6875" Velocity="101" />
      <note Length="0.03125" Pitch="41" RiffPosition="11,71875" Velocity="113" />
      <note Length="0.03125" Pitch="38" RiffPosition="11,75" Velocity="0" />
      <note Length="0.03125" Pitch="37" RiffPosition="11,78125" Velocity="67" />
      <note Length="0.03125" Pitch="36" RiffPosition="11,8125" Velocity="0" />
      <note Length="0.03125" Pitch="38" RiffPosition="11,84375" Velocity="0" />
      <note Length="0.0625" Pitch="43" RiffPosition="11,875" Velocity="57" />
      <note Length="0.03125" Pitch="49" RiffPosition="11,9375" Velocity="42" />
      <note Length="0.03125" Pitch="51" RiffPosition="11,96875" Velocity="84" />
      <note Length="0.03125" Pitch="54" RiffPosition="12" Velocity="50" />
      <note Length="0.03125" Pitch="51" RiffPosition="12.03125" Velocity="65" />
      <note Length="0.03125" Pitch="49" RiffPosition="12.0625" Velocity="38" />
      <note Length="0.03125" Pitch="46" RiffPosition="12.09375" Velocity="87" />
      <note Length="0.03125" Pitch="42" RiffPosition="12.125" Velocity="52" />
      <note Length="0.03125" Pitch="39" RiffPosition="12.15625" Velocity="0" />
      <note Length="0.0625" Pitch="37" RiffPosition="12.1875" Velocity="55" />
      <note Length="0.015625" Pitch="38" RiffPosition="12.25" Velocity="0" />
      <note Length="0.046875" Pitch="39" RiffPosition="12.265625" Velocity="0" />
      <note Length="0.03125" Pitch="44" RiffPosition="12.3125" Velocity="61" />
      <note Length="0.03125" Pitch="44" RiffPosition="12.34375" Velocity="44" />
      <note Length="0.03125" Pitch="46" RiffPosition="12.375" Velocity="85" />
      <note Length="0.03125" Pitch="45" RiffPosition="12.40625" Velocity="114" />
      <note Length="0.03125" Pitch="46" RiffPosition="12.4375" Velocity="97" />
      <note Length="0.03125" Pitch="45" RiffPosition="12.46875" Velocity="80" />
      <note Length="0.03125" Pitch="46" RiffPosition="12.5" Velocity="60" />
      <note Length="0.03125" Pitch="48" RiffPosition="12.53125" Velocity="119" />
      <note Length="0.03125" Pitch="47" RiffPosition="12.5625" Velocity="123" />
      <note Length="0.03125" Pitch="48" RiffPosition="12.59375" Velocity="115" />
      <note Length="0.0625" Pitch="46" RiffPosition="12.625" Velocity="56" />
      <note Length="0.03125" Pitch="43" RiffPosition="12.6875" Velocity="101" />
      <note Length="0.03125" Pitch="41" RiffPosition="12.71875" Velocity="113" />
      <note Length="0.03125" Pitch="39" RiffPosition="12.75" Velocity="0" />
      <note Length="0.03125" Pitch="37" RiffPosition="12.78125" Velocity="67" />
      <note Length="0.03125" Pitch="37" RiffPosition="12.8125" Velocity="74" />
      <note Length="0.03125" Pitch="38" RiffPosition="12.84375" Velocity="0" />
      <note Length="0.0625" Pitch="43" RiffPosition="12.875" Velocity="57" />
      <note Length="0.03125" Pitch="49" RiffPosition="12.9375" Velocity="42" />
      <note Length="0.03125" Pitch="53" RiffPosition="12.96875" Velocity="84" />
      <note Length="0.03125" Pitch="53" RiffPosition="13" Velocity="0" />
      <note Length="0.03125" Pitch="52" RiffPosition="13.03125" Velocity="0" />
      <note Length="0.03125" Pitch="48" RiffPosition="13.0625" Velocity="0" />
      <note Length="0.03125" Pitch="46" RiffPosition="13.09375" Velocity="0" />
      <note Length="0.03125" Pitch="42" RiffPosition="13.125" Velocity="0" />
      <note Length="0.03125" Pitch="39" RiffPosition="13.15625" Velocity="0" />
      <note Length="0.0625" Pitch="39" RiffPosition="13.1875" Velocity="0" />
      <note Length="0.015625" Pitch="40" RiffPosition="13.25" Velocity="0" />
      <note Length="0.046875" Pitch="39" RiffPosition="13.265625" Velocity="0" />
      <note Length="0.03125" Pitch="44" RiffPosition="13.3125" Velocity="0" />
      <note Length="0.03125" Pitch="44" RiffPosition="13.34375" Velocity="0" />
      <note Length="0.03125" Pitch="45" RiffPosition="13.375" Velocity="0" />
      <note Length="0.03125" Pitch="44" RiffPosition="13.40625" Velocity="0" />
      <note Length="0.03125" Pitch="46" RiffPosition="13.4375" Velocity="0" />
      <note Length="0.03125" Pitch="47" RiffPosition="13.46875" Velocity="0" />
      <note Length="0.03125" Pitch="45" RiffPosition="13.5" Velocity="0" />
      <note Length="0.03125" Pitch="47" RiffPosition="13.53125" Velocity="0" />
      <note Length="0.03125" Pitch="46" RiffPosition="13.5625" Velocity="0" />
      <note Length="0.03125" Pitch="47" RiffPosition="13.59375" Velocity="0" />
      <note Length="0.0625" Pitch="45" RiffPosition="13.625" Velocity="0" />
      <note Length="0.03125" Pitch="44" RiffPosition="13.6875" Velocity="0" />
      <note Length="0.03125" Pitch="40" RiffPosition="13.71875" Velocity="0" />
      <note Length="0.03125" Pitch="39" RiffPosition="13.75" Velocity="0" />
      <note Length="0.03125" Pitch="36" RiffPosition="13.78125" Velocity="0" />
      <note Length="0.03125" Pitch="37" RiffPosition="13.8125" Velocity="0" />
      <note Length="0.03125" Pitch="37" RiffPosition="13.84375" Velocity="0" />
      <note Length="0.0625" Pitch="42" RiffPosition="13.875" Velocity="0" />
      <note Length="0.03125" Pitch="48" RiffPosition="13.9375" Velocity="0" />
      <note Length="0.03125" Pitch="52" RiffPosition="13.96875" Velocity="0" />
    </riff>
    <riff IsDrum="True" MidiInstrument="0" Tempo="110" Length="14">
      <note Length="0.03125" Pitch="42" RiffPosition="0" Velocity="0" />
      <note Length="0.03125" Pitch="47" RiffPosition="0.03125" Velocity="0" />
      <note Length="0.0625" Pitch="50" RiffPosition="0.0625" Velocity="0" />
      <note Length="0.046875" Pitch="45" RiffPosition="0.125" Velocity="0" />
      <note Length="0.015625" Pitch="41" RiffPosition="0.171875" Velocity="0" />
      <note Length="0.03125" Pitch="36" RiffPosition="0.1875" Velocity="0" />
      <note Length="0.03125" Pitch="40" RiffPosition="0.21875" Velocity="0" />
      <note Length="0.03125" Pitch="42" RiffPosition="0.25" Velocity="0" />
      <note Length="0.03125" Pitch="45" RiffPosition="0.28125" Velocity="0" />
      <note Length="0.0625" Pitch="49" RiffPosition="0.3125" Velocity="0" />
      <note Length="0.046875" Pitch="45" RiffPosition="0.375" Velocity="0" />
      <note Length="0.015625" Pitch="43" RiffPosition="0.421875" Velocity="0" />
      <note Length="0.03125" Pitch="41" RiffPosition="0.4375" Velocity="0" />
      <note Length="0.03125" Pitch="44" RiffPosition="0.46875" Velocity="0" />
      <note Length="0.03125" Pitch="46" RiffPosition="0.5" Velocity="0" />
      <note Length="0.03125" Pitch="47" RiffPosition="0.53125" Velocity="0" />
      <note Length="0.0625" Pitch="50" RiffPosition="0.5625" Velocity="0" />
      <note Length="0.046875" Pitch="41" RiffPosition="0.625" Velocity="0" />
      <note Length="0.015625" Pitch="35" RiffPosition="0.671875" Velocity="0" />
      <note Length="0.03125" Pitch="36" RiffPosition="0.6875" Velocity="0" />
      <note Length="0.03125" Pitch="40" RiffPosition="0.71875" Velocity="0" />
      <note Length="0.03125" Pitch="46" RiffPosition="0.75" Velocity="0" />
      <note Length="0.03125" Pitch="50" RiffPosition="0.78125" Velocity="0" />
      <note Length="0.0625" Pitch="54" RiffPosition="0.8125" Velocity="0" />
      <note Length="0.046875" Pitch="45" RiffPosition="0.875" Velocity="0" />
      <note Length="0.015625" Pitch="37" RiffPosition="0.921875" Velocity="0" />
      <note Length="0.03125" Pitch="35" RiffPosition="0.9375" Velocity="0" />
      <note Length="0.03125" Pitch="38" RiffPosition="0.96875" Velocity="0" />
      <note Length="0.03125" Pitch="42" RiffPosition="1" Velocity="0" />
      <note Length="0.03125" Pitch="47" RiffPosition="1,03125" Velocity="0" />
      <note Length="0.0625" Pitch="50" RiffPosition="1,0625" Velocity="0" />
      <note Length="0.046875" Pitch="45" RiffPosition="1,125" Velocity="0" />
      <note Length="0.015625" Pitch="41" RiffPosition="1,171875" Velocity="0" />
      <note Length="0.03125" Pitch="36" RiffPosition="1,1875" Velocity="0" />
      <note Length="0.03125" Pitch="40" RiffPosition="1,21875" Velocity="0" />
      <note Length="0.03125" Pitch="42" RiffPosition="1,25" Velocity="0" />
      <note Length="0.03125" Pitch="45" RiffPosition="1,28125" Velocity="0" />
      <note Length="0.0625" Pitch="49" RiffPosition="1,3125" Velocity="0" />
      <note Length="0.046875" Pitch="45" RiffPosition="1,375" Velocity="0" />
      <note Length="0.015625" Pitch="43" RiffPosition="1,421875" Velocity="0" />
      <note Length="0.03125" Pitch="41" RiffPosition="1,4375" Velocity="0" />
      <note Length="0.03125" Pitch="44" RiffPosition="1,46875" Velocity="0" />
      <note Length="0.03125" Pitch="46" RiffPosition="1,5" Velocity="0" />
      <note Length="0.03125" Pitch="47" RiffPosition="1,53125" Velocity="0" />
      <note Length="0.0625" Pitch="50" RiffPosition="1,5625" Velocity="0" />
      <note Length="0.046875" Pitch="41" RiffPosition="1,625" Velocity="0" />
      <note Length="0.015625" Pitch="35" RiffPosition="1,671875" Velocity="0" />
      <note Length="0.03125" Pitch="36" RiffPosition="1,6875" Velocity="0" />
      <note Length="0.03125" Pitch="40" RiffPosition="1,71875" Velocity="0" />
      <note Length="0.03125" Pitch="46" RiffPosition="1,75" Velocity="0" />
      <note Length="0.03125" Pitch="50" RiffPosition="1,78125" Velocity="0" />
      <note Length="0.0625" Pitch="54" RiffPosition="1,8125" Velocity="0" />
      <note Length="0.046875" Pitch="45" RiffPosition="1,875" Velocity="0" />
      <note Length="0.015625" Pitch="37" RiffPosition="1,921875" Velocity="0" />
      <note Length="0.03125" Pitch="35" RiffPosition="1,9375" Velocity="0" />
      <note Length="0.03125" Pitch="38" RiffPosition="1,96875" Velocity="0" />
      <note Length="0.03125" Pitch="42" RiffPosition="2" Velocity="0" />
      <note Length="0.03125" Pitch="47" RiffPosition="2.03125" Velocity="0" />
      <note Length="0.0625" Pitch="50" RiffPosition="2.0625" Velocity="0" />
      <note Length="0.046875" Pitch="45" RiffPosition="2.125" Velocity="0" />
      <note Length="0.015625" Pitch="41" RiffPosition="2.171875" Velocity="0" />
      <note Length="0.03125" Pitch="36" RiffPosition="2.1875" Velocity="0" />
      <note Length="0.03125" Pitch="40" RiffPosition="2.21875" Velocity="0" />
      <note Length="0.03125" Pitch="42" RiffPosition="2.25" Velocity="0" />
      <note Length="0.03125" Pitch="45" RiffPosition="2.28125" Velocity="0" />
      <note Length="0.0625" Pitch="49" RiffPosition="2.3125" Velocity="0" />
      <note Length="0.046875" Pitch="45" RiffPosition="2.375" Velocity="0" />
      <note Length="0.015625" Pitch="43" RiffPosition="2.421875" Velocity="0" />
      <note Length="0.03125" Pitch="41" RiffPosition="2.4375" Velocity="0" />
      <note Length="0.03125" Pitch="44" RiffPosition="2.46875" Velocity="0" />
      <note Length="0.03125" Pitch="46" RiffPosition="2.5" Velocity="0" />
      <note Length="0.03125" Pitch="47" RiffPosition="2.53125" Velocity="0" />
      <note Length="0.0625" Pitch="50" RiffPosition="2.5625" Velocity="0" />
      <note Length="0.046875" Pitch="41" RiffPosition="2.625" Velocity="0" />
      <note Length="0.015625" Pitch="35" RiffPosition="2.671875" Velocity="0" />
      <note Length="0.03125" Pitch="36" RiffPosition="2.6875" Velocity="0" />
      <note Length="0.03125" Pitch="40" RiffPosition="2.71875" Velocity="0" />
      <note Length="0.03125" Pitch="46" RiffPosition="2.75" Velocity="0" />
      <note Length="0.03125" Pitch="50" RiffPosition="2.78125" Velocity="0" />
      <note Length="0.0625" Pitch="54" RiffPosition="2.8125" Velocity="0" />
      <note Length="0.046875" Pitch="45" RiffPosition="2.875" Velocity="0" />
      <note Length="0.015625" Pitch="37" RiffPosition="2.921875" Velocity="0" />
      <note Length="0.03125" Pitch="35" RiffPosition="2.9375" Velocity="0" />
      <note Length="0.03125" Pitch="38" RiffPosition="2.96875" Velocity="0" />
      <note Length="0.03125" Pitch="42" RiffPosition="3" Velocity="0" />
      <note Length="0.03125" Pitch="47" RiffPosition="3.03125" Velocity="0" />
      <note Length="0.0625" Pitch="50" RiffPosition="3.0625" Velocity="0" />
      <note Length="0.046875" Pitch="45" RiffPosition="3.125" Velocity="0" />
      <note Length="0.015625" Pitch="41" RiffPosition="3.171875" Velocity="0" />
      <note Length="0.03125" Pitch="36" RiffPosition="3.1875" Velocity="0" />
      <note Length="0.03125" Pitch="40" RiffPosition="3.21875" Velocity="0" />
      <note Length="0.03125" Pitch="42" RiffPosition="3.25" Velocity="0" />
      <note Length="0.03125" Pitch="45" RiffPosition="3.28125" Velocity="0" />
      <note Length="0.0625" Pitch="49" RiffPosition="3.3125" Velocity="0" />
      <note Length="0.046875" Pitch="45" RiffPosition="3.375" Velocity="0" />
      <note Length="0.015625" Pitch="43" RiffPosition="3.421875" Velocity="0" />
      <note Length="0.03125" Pitch="41" RiffPosition="3.4375" Velocity="0" />
      <note Length="0.03125" Pitch="44" RiffPosition="3.46875" Velocity="0" />
      <note Length="0.03125" Pitch="46" RiffPosition="3.5" Velocity="0" />
      <note Length="0.03125" Pitch="47" RiffPosition="3.53125" Velocity="0" />
      <note Length="0.0625" Pitch="50" RiffPosition="3.5625" Velocity="0" />
      <note Length="0.046875" Pitch="41" RiffPosition="3.625" Velocity="0" />
      <note Length="0.015625" Pitch="35" RiffPosition="3.671875" Velocity="0" />
      <note Length="0.03125" Pitch="36" RiffPosition="3.6875" Velocity="0" />
      <note Length="0.03125" Pitch="40" RiffPosition="3.71875" Velocity="0" />
      <note Length="0.03125" Pitch="46" RiffPosition="3.75" Velocity="0" />
      <note Length="0.03125" Pitch="50" RiffPosition="3.78125" Velocity="0" />
      <note Length="0.0625" Pitch="54" RiffPosition="3.8125" Velocity="0" />
      <note Length="0.046875" Pitch="45" RiffPosition="3.875" Velocity="0" />
      <note Length="0.015625" Pitch="37" RiffPosition="3.921875" Velocity="0" />
      <note Length="0.03125" Pitch="35" RiffPosition="3.9375" Velocity="0" />
      <note Length="0.03125" Pitch="38" RiffPosition="3.96875" Velocity="0" />
      <note Length="0.03125" Pitch="42" RiffPosition="4" Velocity="0" />
      <note Length="0.03125" Pitch="47" RiffPosition="4.03125" Velocity="0" />
      <note Length="0.0625" Pitch="50" RiffPosition="4.0625" Velocity="0" />
      <note Length="0.046875" Pitch="45" RiffPosition="4.125" Velocity="0" />
      <note Length="0.015625" Pitch="41" RiffPosition="4.171875" Velocity="0" />
      <note Length="0.03125" Pitch="36" RiffPosition="4.1875" Velocity="0" />
      <note Length="0.03125" Pitch="40" RiffPosition="4.21875" Velocity="0" />
      <note Length="0.03125" Pitch="42" RiffPosition="4.25" Velocity="0" />
      <note Length="0.03125" Pitch="45" RiffPosition="4.28125" Velocity="0" />
      <note Length="0.0625" Pitch="49" RiffPosition="4.3125" Velocity="0" />
      <note Length="0.046875" Pitch="45" RiffPosition="4.375" Velocity="0" />
      <note Length="0.015625" Pitch="43" RiffPosition="4.421875" Velocity="0" />
      <note Length="0.03125" Pitch="41" RiffPosition="4.4375" Velocity="0" />
      <note Length="0.03125" Pitch="44" RiffPosition="4.46875" Velocity="0" />
      <note Length="0.03125" Pitch="46" RiffPosition="4.5" Velocity="0" />
      <note Length="0.03125" Pitch="47" RiffPosition="4.53125" Velocity="0" />
      <note Length="0.0625" Pitch="50" RiffPosition="4.5625" Velocity="0" />
      <note Length="0.046875" Pitch="41" RiffPosition="4.625" Velocity="0" />
      <note Length="0.015625" Pitch="35" RiffPosition="4.671875" Velocity="0" />
      <note Length="0.03125" Pitch="36" RiffPosition="4.6875" Velocity="0" />
      <note Length="0.03125" Pitch="40" RiffPosition="4.71875" Velocity="0" />
      <note Length="0.03125" Pitch="46" RiffPosition="4.75" Velocity="0" />
      <note Length="0.03125" Pitch="50" RiffPosition="4.78125" Velocity="0" />
      <note Length="0.0625" Pitch="54" RiffPosition="4.8125" Velocity="0" />
      <note Length="0.046875" Pitch="45" RiffPosition="4.875" Velocity="0" />
      <note Length="0.015625" Pitch="37" RiffPosition="4.921875" Velocity="0" />
      <note Length="0.03125" Pitch="35" RiffPosition="4.9375" Velocity="0" />
      <note Length="0.03125" Pitch="38" RiffPosition="4.96875" Velocity="0" />
      <note Length="0.03125" Pitch="42" RiffPosition="5" Velocity="0" />
      <note Length="0.03125" Pitch="47" RiffPosition="5.03125" Velocity="0" />
      <note Length="0.0625" Pitch="50" RiffPosition="5.0625" Velocity="0" />
      <note Length="0.046875" Pitch="45" RiffPosition="5.125" Velocity="0" />
      <note Length="0.015625" Pitch="41" RiffPosition="5.171875" Velocity="0" />
      <note Length="0.03125" Pitch="36" RiffPosition="5.1875" Velocity="0" />
      <note Length="0.03125" Pitch="40" RiffPosition="5.21875" Velocity="0" />
      <note Length="0.03125" Pitch="42" RiffPosition="5.25" Velocity="0" />
      <note Length="0.03125" Pitch="45" RiffPosition="5.28125" Velocity="0" />
      <note Length="0.0625" Pitch="49" RiffPosition="5.3125" Velocity="0" />
      <note Length="0.046875" Pitch="45" RiffPosition="5.375" Velocity="0" />
      <note Length="0.015625" Pitch="43" RiffPosition="5.421875" Velocity="0" />
      <note Length="0.03125" Pitch="41" RiffPosition="5.4375" Velocity="0" />
      <note Length="0.03125" Pitch="44" RiffPosition="5.46875" Velocity="0" />
      <note Length="0.03125" Pitch="46" RiffPosition="5.5" Velocity="0" />
      <note Length="0.03125" Pitch="47" RiffPosition="5.53125" Velocity="0" />
      <note Length="0.0625" Pitch="50" RiffPosition="5.5625" Velocity="0" />
      <note Length="0.046875" Pitch="41" RiffPosition="5.625" Velocity="0" />
      <note Length="0.015625" Pitch="35" RiffPosition="5.671875" Velocity="0" />
      <note Length="0.03125" Pitch="36" RiffPosition="5.6875" Velocity="0" />
      <note Length="0.03125" Pitch="40" RiffPosition="5.71875" Velocity="0" />
      <note Length="0.03125" Pitch="46" RiffPosition="5.75" Velocity="0" />
      <note Length="0.03125" Pitch="50" RiffPosition="5.78125" Velocity="0" />
      <note Length="0.0625" Pitch="54" RiffPosition="5.8125" Velocity="0" />
      <note Length="0.046875" Pitch="45" RiffPosition="5.875" Velocity="0" />
      <note Length="0.015625" Pitch="37" RiffPosition="5.921875" Velocity="0" />
      <note Length="0.03125" Pitch="35" RiffPosition="5.9375" Velocity="0" />
      <note Length="0.03125" Pitch="38" RiffPosition="5.96875" Velocity="0" />
      <note Length="0.03125" Pitch="42" RiffPosition="6" Velocity="0" />
      <note Length="0.03125" Pitch="47" RiffPosition="6.03125" Velocity="0" />
      <note Length="0.0625" Pitch="50" RiffPosition="6.0625" Velocity="0" />
      <note Length="0.046875" Pitch="45" RiffPosition="6.125" Velocity="0" />
      <note Length="0.015625" Pitch="41" RiffPosition="6.171875" Velocity="0" />
      <note Length="0.03125" Pitch="36" RiffPosition="6.1875" Velocity="0" />
      <note Length="0.03125" Pitch="40" RiffPosition="6.21875" Velocity="0" />
      <note Length="0.03125" Pitch="42" RiffPosition="6.25" Velocity="0" />
      <note Length="0.03125" Pitch="45" RiffPosition="6.28125" Velocity="0" />
      <note Length="0.0625" Pitch="49" RiffPosition="6.3125" Velocity="0" />
      <note Length="0.046875" Pitch="45" RiffPosition="6.375" Velocity="0" />
      <note Length="0.015625" Pitch="43" RiffPosition="6.421875" Velocity="0" />
      <note Length="0.03125" Pitch="41" RiffPosition="6.4375" Velocity="0" />
      <note Length="0.03125" Pitch="44" RiffPosition="6.46875" Velocity="0" />
      <note Length="0.03125" Pitch="46" RiffPosition="6.5" Velocity="0" />
      <note Length="0.03125" Pitch="47" RiffPosition="6.53125" Velocity="0" />
      <note Length="0.0625" Pitch="50" RiffPosition="6.5625" Velocity="0" />
      <note Length="0.046875" Pitch="41" RiffPosition="6.625" Velocity="0" />
      <note Length="0.015625" Pitch="35" RiffPosition="6.671875" Velocity="0" />
      <note Length="0.03125" Pitch="36" RiffPosition="6.6875" Velocity="0" />
      <note Length="0.03125" Pitch="40" RiffPosition="6.71875" Velocity="0" />
      <note Length="0.03125" Pitch="46" RiffPosition="6.75" Velocity="0" />
      <note Length="0.03125" Pitch="50" RiffPosition="6.78125" Velocity="0" />
      <note Length="0.0625" Pitch="54" RiffPosition="6.8125" Velocity="0" />
      <note Length="0.046875" Pitch="45" RiffPosition="6.875" Velocity="0" />
      <note Length="0.015625" Pitch="37" RiffPosition="6.921875" Velocity="0" />
      <note Length="0.03125" Pitch="35" RiffPosition="6.9375" Velocity="0" />
      <note Length="0.03125" Pitch="38" RiffPosition="6.96875" Velocity="0" />
      <note Length="0.03125" Pitch="42" RiffPosition="7" Velocity="0" />
      <note Length="0.03125" Pitch="47" RiffPosition="7.03125" Velocity="0" />
      <note Length="0.0625" Pitch="50" RiffPosition="7.0625" Velocity="0" />
      <note Length="0.046875" Pitch="45" RiffPosition="7.125" Velocity="0" />
      <note Length="0.015625" Pitch="41" RiffPosition="7.171875" Velocity="0" />
      <note Length="0.03125" Pitch="36" RiffPosition="7.1875" Velocity="0" />
      <note Length="0.03125" Pitch="40" RiffPosition="7.21875" Velocity="0" />
      <note Length="0.03125" Pitch="42" RiffPosition="7.25" Velocity="0" />
      <note Length="0.03125" Pitch="45" RiffPosition="7.28125" Velocity="0" />
      <note Length="0.0625" Pitch="49" RiffPosition="7.3125" Velocity="0" />
      <note Length="0.046875" Pitch="45" RiffPosition="7.375" Velocity="0" />
      <note Length="0.015625" Pitch="43" RiffPosition="7.421875" Velocity="0" />
      <note Length="0.03125" Pitch="41" RiffPosition="7.4375" Velocity="0" />
      <note Length="0.03125" Pitch="44" RiffPosition="7.46875" Velocity="0" />
      <note Length="0.03125" Pitch="46" RiffPosition="7.5" Velocity="0" />
      <note Length="0.03125" Pitch="47" RiffPosition="7.53125" Velocity="0" />
      <note Length="0.0625" Pitch="50" RiffPosition="7.5625" Velocity="0" />
      <note Length="0.046875" Pitch="41" RiffPosition="7.625" Velocity="0" />
      <note Length="0.015625" Pitch="35" RiffPosition="7.671875" Velocity="0" />
      <note Length="0.03125" Pitch="36" RiffPosition="7.6875" Velocity="0" />
      <note Length="0.03125" Pitch="40" RiffPosition="7.71875" Velocity="0" />
      <note Length="0.03125" Pitch="46" RiffPosition="7.75" Velocity="0" />
      <note Length="0.03125" Pitch="50" RiffPosition="7.78125" Velocity="0" />
      <note Length="0.0625" Pitch="54" RiffPosition="7.8125" Velocity="0" />
      <note Length="0.046875" Pitch="45" RiffPosition="7.875" Velocity="0" />
      <note Length="0.015625" Pitch="37" RiffPosition="7.921875" Velocity="0" />
      <note Length="0.03125" Pitch="35" RiffPosition="7.9375" Velocity="0" />
      <note Length="0.03125" Pitch="38" RiffPosition="7.96875" Velocity="0" />
      <note Length="0.03125" Pitch="42" RiffPosition="8" Velocity="0" />
      <note Length="0.03125" Pitch="47" RiffPosition="8.03125" Velocity="0" />
      <note Length="0.0625" Pitch="50" RiffPosition="8.0625" Velocity="0" />
      <note Length="0.046875" Pitch="45" RiffPosition="8.125" Velocity="0" />
      <note Length="0.015625" Pitch="41" RiffPosition="8.171875" Velocity="0" />
      <note Length="0.03125" Pitch="36" RiffPosition="8.1875" Velocity="0" />
      <note Length="0.03125" Pitch="40" RiffPosition="8.21875" Velocity="0" />
      <note Length="0.03125" Pitch="42" RiffPosition="8.25" Velocity="0" />
      <note Length="0.03125" Pitch="45" RiffPosition="8.28125" Velocity="0" />
      <note Length="0.0625" Pitch="49" RiffPosition="8.3125" Velocity="0" />
      <note Length="0.046875" Pitch="45" RiffPosition="8.375" Velocity="0" />
      <note Length="0.015625" Pitch="43" RiffPosition="8.421875" Velocity="0" />
      <note Length="0.03125" Pitch="41" RiffPosition="8.4375" Velocity="0" />
      <note Length="0.03125" Pitch="44" RiffPosition="8.46875" Velocity="0" />
      <note Length="0.03125" Pitch="46" RiffPosition="8.5" Velocity="0" />
      <note Length="0.03125" Pitch="47" RiffPosition="8.53125" Velocity="0" />
      <note Length="0.0625" Pitch="50" RiffPosition="8.5625" Velocity="0" />
      <note Length="0.046875" Pitch="41" RiffPosition="8.625" Velocity="0" />
      <note Length="0.015625" Pitch="35" RiffPosition="8.671875" Velocity="0" />
      <note Length="0.03125" Pitch="36" RiffPosition="8.6875" Velocity="0" />
      <note Length="0.03125" Pitch="40" RiffPosition="8.71875" Velocity="0" />
      <note Length="0.03125" Pitch="46" RiffPosition="8.75" Velocity="0" />
      <note Length="0.03125" Pitch="50" RiffPosition="8.78125" Velocity="0" />
      <note Length="0.0625" Pitch="54" RiffPosition="8.8125" Velocity="0" />
      <note Length="0.046875" Pitch="45" RiffPosition="8.875" Velocity="0" />
      <note Length="0.015625" Pitch="37" RiffPosition="8.921875" Velocity="0" />
      <note Length="0.03125" Pitch="35" RiffPosition="8.9375" Velocity="0" />
      <note Length="0.03125" Pitch="38" RiffPosition="8.96875" Velocity="0" />
      <note Length="0.03125" Pitch="42" RiffPosition="9" Velocity="66" />
      <note Length="0.03125" Pitch="47" RiffPosition="9.03125" Velocity="94" />
      <note Length="0.0625" Pitch="50" RiffPosition="9.0625" Velocity="60" />
      <note Length="0.046875" Pitch="45" RiffPosition="9.125" Velocity="73" />
      <note Length="0.015625" Pitch="41" RiffPosition="9.171875" Velocity="46" />
      <note Length="0.03125" Pitch="36" RiffPosition="9.1875" Velocity="0" />
      <note Length="0.03125" Pitch="40" RiffPosition="9.21875" Velocity="0" />
      <note Length="0.03125" Pitch="42" RiffPosition="9.25" Velocity="71" />
      <note Length="0.03125" Pitch="45" RiffPosition="9.28125" Velocity="75" />
      <note Length="0.0625" Pitch="49" RiffPosition="9.3125" Velocity="42" />
      <note Length="0.046875" Pitch="45" RiffPosition="9.375" Velocity="88" />
      <note Length="0.015625" Pitch="43" RiffPosition="9.421875" Velocity="74" />
      <note Length="0.03125" Pitch="41" RiffPosition="9.4375" Velocity="53" />
      <note Length="0.03125" Pitch="44" RiffPosition="9.46875" Velocity="83" />
      <note Length="0.03125" Pitch="46" RiffPosition="9.5" Velocity="47" />
      <note Length="0.03125" Pitch="47" RiffPosition="9.53125" Velocity="72" />
      <note Length="0.0625" Pitch="50" RiffPosition="9.5625" Velocity="94" />
      <note Length="0.046875" Pitch="41" RiffPosition="9.625" Velocity="89" />
      <note Length="0.015625" Pitch="35" RiffPosition="9.671875" Velocity="0" />
      <note Length="0.03125" Pitch="36" RiffPosition="9.6875" Velocity="0" />
      <note Length="0.03125" Pitch="40" RiffPosition="9.71875" Velocity="0" />
      <note Length="0.03125" Pitch="46" RiffPosition="9.75" Velocity="44" />
      <note Length="0.03125" Pitch="50" RiffPosition="9.78125" Velocity="102" />
      <note Length="0.0625" Pitch="54" RiffPosition="9.8125" Velocity="98" />
      <note Length="0.046875" Pitch="45" RiffPosition="9.875" Velocity="49" />
      <note Length="0.015625" Pitch="37" RiffPosition="9.921875" Velocity="48" />
      <note Length="0.03125" Pitch="35" RiffPosition="9.9375" Velocity="0" />
      <note Length="0.03125" Pitch="38" RiffPosition="9.96875" Velocity="0" />
      <note Length="0.03125" Pitch="42" RiffPosition="10" Velocity="58" />
      <note Length="0.03125" Pitch="47" RiffPosition="10.03125" Velocity="85" />
      <note Length="0.0625" Pitch="50" RiffPosition="10.0625" Velocity="115" />
      <note Length="0.046875" Pitch="45" RiffPosition="10.125" Velocity="65" />
      <note Length="0.015625" Pitch="41" RiffPosition="10.171875" Velocity="43" />
      <note Length="0.03125" Pitch="36" RiffPosition="10.1875" Velocity="0" />
      <note Length="0.03125" Pitch="40" RiffPosition="10.21875" Velocity="0" />
      <note Length="0.03125" Pitch="42" RiffPosition="10.25" Velocity="80" />
      <note Length="0.03125" Pitch="45" RiffPosition="10.28125" Velocity="83" />
      <note Length="0.0625" Pitch="49" RiffPosition="10.3125" Velocity="47" />
      <note Length="0.046875" Pitch="45" RiffPosition="10.375" Velocity="97" />
      <note Length="0.015625" Pitch="43" RiffPosition="10.421875" Velocity="61" />
      <note Length="0.03125" Pitch="41" RiffPosition="10.4375" Velocity="44" />
      <note Length="0.03125" Pitch="44" RiffPosition="10.46875" Velocity="74" />
      <note Length="0.03125" Pitch="46" RiffPosition="10.5" Velocity="102" />
      <note Length="0.03125" Pitch="47" RiffPosition="10.53125" Velocity="63" />
      <note Length="0.0625" Pitch="50" RiffPosition="10.5625" Velocity="86" />
      <note Length="0.046875" Pitch="41" RiffPosition="10.625" Velocity="81" />
      <note Length="0.015625" Pitch="35" RiffPosition="10.671875" Velocity="0" />
      <note Length="0.03125" Pitch="36" RiffPosition="10.6875" Velocity="0" />
      <note Length="0.03125" Pitch="40" RiffPosition="10.71875" Velocity="0" />
      <note Length="0.03125" Pitch="46" RiffPosition="10.75" Velocity="53" />
      <note Length="0.03125" Pitch="50" RiffPosition="10.78125" Velocity="47" />
      <note Length="0.0625" Pitch="54" RiffPosition="10.8125" Velocity="106" />
      <note Length="0.046875" Pitch="45" RiffPosition="10.875" Velocity="58" />
      <note Length="0.015625" Pitch="37" RiffPosition="10.921875" Velocity="57" />
      <note Length="0.03125" Pitch="35" RiffPosition="10.9375" Velocity="0" />
      <note Length="0.03125" Pitch="38" RiffPosition="10.96875" Velocity="0" />
      <note Length="0.03125" Pitch="42" RiffPosition="11" Velocity="49" />
      <note Length="0.03125" Pitch="47" RiffPosition="11,03125" Velocity="77" />
      <note Length="0.0625" Pitch="50" RiffPosition="11,0625" Velocity="107" />
      <note Length="0.046875" Pitch="45" RiffPosition="11,125" Velocity="56" />
      <note Length="0.015625" Pitch="41" RiffPosition="11,171875" Velocity="51" />
      <note Length="0.03125" Pitch="36" RiffPosition="11,1875" Velocity="0" />
      <note Length="0.03125" Pitch="40" RiffPosition="11,21875" Velocity="0" />
      <note Length="0.03125" Pitch="42" RiffPosition="11,25" Velocity="88" />
      <note Length="0.03125" Pitch="45" RiffPosition="11,28125" Velocity="92" />
      <note Length="0.0625" Pitch="49" RiffPosition="11,3125" Velocity="52" />
      <note Length="0.046875" Pitch="45" RiffPosition="11,375" Velocity="42" />
      <note Length="0.015625" Pitch="43" RiffPosition="11,421875" Velocity="52" />
      <note Length="0.03125" Pitch="41" RiffPosition="11,4375" Velocity="44" />
      <note Length="0.03125" Pitch="44" RiffPosition="11,46875" Velocity="66" />
      <note Length="0.03125" Pitch="46" RiffPosition="11,5" Velocity="93" />
      <note Length="0.03125" Pitch="47" RiffPosition="11,53125" Velocity="55" />
      <note Length="0.0625" Pitch="50" RiffPosition="11,5625" Velocity="77" />
      <note Length="0.046875" Pitch="41" RiffPosition="11,625" Velocity="72" />
      <note Length="0.015625" Pitch="35" RiffPosition="11,671875" Velocity="0" />
      <note Length="0.03125" Pitch="36" RiffPosition="11,6875" Velocity="0" />
      <note Length="0.03125" Pitch="40" RiffPosition="11,71875" Velocity="0" />
      <note Length="0.03125" Pitch="46" RiffPosition="11,75" Velocity="61" />
      <note Length="0.03125" Pitch="50" RiffPosition="11,78125" Velocity="55" />
      <note Length="0.0625" Pitch="54" RiffPosition="11,8125" Velocity="51" />
      <note Length="0.046875" Pitch="45" RiffPosition="11,875" Velocity="66" />
      <note Length="0.015625" Pitch="37" RiffPosition="11,921875" Velocity="65" />
      <note Length="0.03125" Pitch="35" RiffPosition="11,9375" Velocity="0" />
      <note Length="0.03125" Pitch="38" RiffPosition="11,96875" Velocity="0" />
      <note Length="0.03125" Pitch="42" RiffPosition="12" Velocity="41" />
      <note Length="0.03125" Pitch="47" RiffPosition="12.03125" Velocity="68" />
      <note Length="0.0625" Pitch="50" RiffPosition="12.0625" Velocity="98" />
      <note Length="0.046875" Pitch="45" RiffPosition="12.125" Velocity="48" />
      <note Length="0.015625" Pitch="41" RiffPosition="12.171875" Velocity="84" />
      <note Length="0.03125" Pitch="36" RiffPosition="12.1875" Velocity="0" />
      <note Length="0.03125" Pitch="40" RiffPosition="12.21875" Velocity="0" />
      <note Length="0.03125" Pitch="42" RiffPosition="12.25" Velocity="47" />
      <note Length="0.03125" Pitch="45" RiffPosition="12.28125" Velocity="100" />
      <note Length="0.0625" Pitch="49" RiffPosition="12.3125" Velocity="56" />
      <note Length="0.046875" Pitch="45" RiffPosition="12.375" Velocity="50" />
      <note Length="0.015625" Pitch="43" RiffPosition="12.421875" Velocity="44" />
      <note Length="0.03125" Pitch="41" RiffPosition="12.4375" Velocity="52" />
      <note Length="0.03125" Pitch="44" RiffPosition="12.46875" Velocity="57" />
      <note Length="0.03125" Pitch="46" RiffPosition="12.5" Velocity="85" />
      <note Length="0.03125" Pitch="47" RiffPosition="12.53125" Velocity="110" />
      <note Length="0.0625" Pitch="50" RiffPosition="12.5625" Velocity="69" />
      <note Length="0.046875" Pitch="41" RiffPosition="12.625" Velocity="64" />
      <note Length="0.015625" Pitch="35" RiffPosition="12.671875" Velocity="0" />
      <note Length="0.03125" Pitch="36" RiffPosition="12.6875" Velocity="0" />
      <note Length="0.03125" Pitch="40" RiffPosition="12.71875" Velocity="0" />
      <note Length="0.03125" Pitch="46" RiffPosition="12.75" Velocity="69" />
      <note Length="0.03125" Pitch="50" RiffPosition="12.78125" Velocity="64" />
      <note Length="0.0625" Pitch="54" RiffPosition="12.8125" Velocity="60" />
      <note Length="0.046875" Pitch="45" RiffPosition="12.875" Velocity="74" />
      <note Length="0.015625" Pitch="37" RiffPosition="12.921875" Velocity="73" />
      <note Length="0.03125" Pitch="35" RiffPosition="12.9375" Velocity="0" />
      <note Length="0.03125" Pitch="38" RiffPosition="12.96875" Velocity="0" />
      <note Length="0.03125" Pitch="42" RiffPosition="13" Velocity="0" />
      <note Length="0.03125" Pitch="47" RiffPosition="13.03125" Velocity="0" />
      <note Length="0.0625" Pitch="50" RiffPosition="13.0625" Velocity="0" />
      <note Length="0.046875" Pitch="45" RiffPosition="13.125" Velocity="0" />
      <note Length="0.015625" Pitch="41" RiffPosition="13.171875" Velocity="0" />
      <note Length="0.03125" Pitch="36" RiffPosition="13.1875" Velocity="0" />
      <note Length="0.03125" Pitch="40" RiffPosition="13.21875" Velocity="0" />
      <note Length="0.03125" Pitch="42" RiffPosition="13.25" Velocity="0" />
      <note Length="0.03125" Pitch="45" RiffPosition="13.28125" Velocity="0" />
      <note Length="0.0625" Pitch="49" RiffPosition="13.3125" Velocity="0" />
      <note Length="0.046875" Pitch="45" RiffPosition="13.375" Velocity="0" />
      <note Length="0.015625" Pitch="43" RiffPosition="13.421875" Velocity="0" />
      <note Length="0.03125" Pitch="41" RiffPosition="13.4375" Velocity="0" />
      <note Length="0.03125" Pitch="44" RiffPosition="13.46875" Velocity="0" />
      <note Length="0.03125" Pitch="46" RiffPosition="13.5" Velocity="0" />
      <note Length="0.03125" Pitch="47" RiffPosition="13.53125" Velocity="0" />
      <note Length="0.0625" Pitch="50" RiffPosition="13.5625" Velocity="0" />
      <note Length="0.046875" Pitch="41" RiffPosition="13.625" Velocity="0" />
      <note Length="0.015625" Pitch="35" RiffPosition="13.671875" Velocity="0" />
      <note Length="0.03125" Pitch="36" RiffPosition="13.6875" Velocity="0" />
      <note Length="0.03125" Pitch="40" RiffPosition="13.71875" Velocity="0" />
      <note Length="0.03125" Pitch="46" RiffPosition="13.75" Velocity="0" />
      <note Length="0.03125" Pitch="50" RiffPosition="13.78125" Velocity="0" />
      <note Length="0.0625" Pitch="54" RiffPosition="13.8125" Velocity="0" />
      <note Length="0.046875" Pitch="45" RiffPosition="13.875" Velocity="0" />
      <note Length="0.015625" Pitch="37" RiffPosition="13.921875" Velocity="0" />
      <note Length="0.03125" Pitch="35" RiffPosition="13.9375" Velocity="0" />
      <note Length="0.03125" Pitch="38" RiffPosition="13.96875" Velocity="0" />
    </riff>
  </riffPack>
  <lyrics>
    <line>****** ****** ****** ******</line>
    <line>****** ****** ****** ******</line>
    <line>for you and they never will</line>
    <line>im bett mit chips und knabbereien</line>
    <line>for yellow and red ones (war is over)</line>
    <line>leave me alone, can't you leave me alone,</line>
    <line>to darkness his powers fade</line>
    <line>shiite dies to pick a fight,</line>
    <line>to curse my death with morality</line>
    <line>to darkness and gave me the powers</line>
    <line>****** ****** ****** ******</line>
    <line>****** ****** ****** ******</line>
    <line>****** ****** ****** ******</line>
    <line>****** ****** ****** ******</line>
    <line>****** ****** ****** ******</line>
    <line>what a stupid world! yeah, this is just beautiful</line>
    <line>they will last forever</line>
    <line>to cure your evil minds</line>
    <line>with sadistic inclinations</line>
    <line>to cut your tongue of hate</line>
    <line>to cut the stream of blood</line>
    <line>to cure your evil minds</line>
    <line>they will never keep us quiet</line>
    <line>to cut your tongue of hate</line>
    <line>****** ****** ****** ******</line>
    <line>****** ****** ****** ******</line>
    <line>****** ****** ****** ******</line>
    <line>****** ****** ****** ******</line>
  </lyrics>
  <lyricsSongFactoryCollection>
    <lyricSongFactory BarCount="28" BarCountPerChorus="2">
      <barInfo>
        <bar Intensity="0" LetterCount="16" />
        <bar Intensity="0" LetterCount="16" />
        <bar Intensity="0.2" LetterCount="27" />
        <bar Intensity="0.1764706" LetterCount="33" />
        <bar Intensity="0.1647059" LetterCount="35" />
        <bar Intensity="0.1764706" LetterCount="38" />
        <bar Intensity="0.1529412" LetterCount="27" />
        <bar Intensity="0.1882353" LetterCount="27" />
        <bar Intensity="0.2" LetterCount="31" />
        <bar Intensity="0.2352941" LetterCount="34" />
        <bar Intensity="0" LetterCount="16" />
        <bar Intensity="0" LetterCount="16" />
        <bar Intensity="0" LetterCount="16" />
        <bar Intensity="0" LetterCount="16" />
        <bar Intensity="0" LetterCount="16" />
        <bar Intensity="0.4117647" LetterCount="47" />
        <bar Intensity="0.8235294" LetterCount="22" />
        <bar Intensity="1" LetterCount="23" />
        <bar Intensity="0.8235294" LetterCount="26" />
        <bar Intensity="1" LetterCount="26" />
        <bar Intensity="0.8" LetterCount="26" />
        <bar Intensity="1" LetterCount="29" />
        <bar Intensity="0.7764706" LetterCount="29" />
        <bar Intensity="1" LetterCount="27" />
        <bar Intensity="0" LetterCount="16" />
        <bar Intensity="0" LetterCount="16" />
        <bar Intensity="0" LetterCount="16" />
        <bar Intensity="0" LetterCount="16" />
      </barInfo>
      <themeList>
        <theme>nature</theme>
        <theme>fantastic</theme>
        <theme>love</theme>
        <theme>music</theme>
      </themeList>
      <themeBlackList>
        <theme>sex</theme>
        <theme>racism</theme>
        <theme>social</theme>
        <theme>exclamation</theme>
        <theme>swearing</theme>
        <theme>gangsta</theme>
      </themeBlackList>
    </lyricSongFactory>
  </lyricsSongFactoryCollection>
  <predefinedGenerator BarCount="28" IsOverrideScale="True" IsOverrideTempo="True" Modulation="0" ScaleName="minorPentatonic" Tempo="82" LyricsToMusicPhase="0">
    <predefinedGeneratorTrack MetaRiffPackName="PianoClassic">
      <barInfo isOn="True" />
      <barInfo isOn="True" />
      <barInfo isOn="True" />
      <barInfo isOn="True" />
      <barInfo isOn="True" />
      <barInfo isOn="True" />
      <barInfo isOn="True" />
      <barInfo isOn="True" />
      <barInfo isOn="False" />
      <barInfo isOn="True" />
      <barInfo isOn="True" />
      <barInfo isOn="True" />
      <barInfo isOn="True" />
      <barInfo isOn="False" />
      <barInfo isOn="False" />
      <barInfo isOn="False" />
      <barInfo isOn="False" />
      <barInfo isOn="False" />
      <barInfo isOn="False" />
      <barInfo isOn="False" />
      <barInfo isOn="False" />
      <barInfo isOn="False" />
      <barInfo isOn="False" />
      <barInfo isOn="False" />
      <barInfo isOn="False" />
      <barInfo isOn="False" />
      <barInfo isOn="False" />
      <barInfo isOn="False" />
    </predefinedGeneratorTrack>
    <predefinedGeneratorTrack MetaRiffPackName="Pad">
      <barInfo isOn="False" />
      <barInfo isOn="False" />
      <barInfo isOn="True" />
      <barInfo isOn="True" />
      <barInfo isOn="True" />
      <barInfo isOn="True" />
      <barInfo isOn="True" />
      <barInfo isOn="True" />
      <barInfo isOn="False" />
      <barInfo isOn="False" />
      <barInfo isOn="False" />
      <barInfo isOn="False" />
      <barInfo isOn="False" />
      <barInfo isOn="True" />
      <barInfo isOn="False" />
      <barInfo isOn="False" />
      <barInfo isOn="False" />
      <barInfo isOn="False" />
      <barInfo isOn="False" />
      <barInfo isOn="False" />
      <barInfo isOn="False" />
      <barInfo isOn="False" />
      <barInfo isOn="False" />
      <barInfo isOn="False" />
      <barInfo isOn="False" />
      <barInfo isOn="False" />
      <barInfo isOn="False" />
      <barInfo isOn="False" />
    </predefinedGeneratorTrack>
    <predefinedGeneratorTrack MetaRiffPackName="Pad">
      <barInfo isOn="False" />
      <barInfo isOn="False" />
      <barInfo isOn="False" />
      <barInfo isOn="True" />
      <barInfo isOn="True" />
      <barInfo isOn="False" />
      <barInfo isOn="True" />
      <barInfo isOn="True" />
      <barInfo isOn="False" />
      <barInfo isOn="False" />
      <barInfo isOn="False" />
      <barInfo isOn="False" />
      <barInfo isOn="False" />
      <barInfo isOn="True" />
      <barInfo isOn="False" />
      <barInfo isOn="False" />
      <barInfo isOn="False" />
      <barInfo isOn="False" />
      <barInfo isOn="False" />
      <barInfo isOn="False" />
      <barInfo isOn="False" />
      <barInfo isOn="False" />
      <barInfo isOn="False" />
      <barInfo isOn="False" />
      <barInfo isOn="False" />
      <barInfo isOn="False" />
      <barInfo isOn="False" />
      <barInfo isOn="False" />
    </predefinedGeneratorTrack>
    <predefinedGeneratorTrack MetaRiffPackName="Pad">
      <barInfo isOn="False" />
      <barInfo isOn="False" />
      <barInfo isOn="False" />
      <barInfo isOn="False" />
      <barInfo isOn="True" />
      <barInfo isOn="False" />
      <barInfo isOn="False" />
      <barInfo isOn="True" />
      <barInfo isOn="False" />
      <barInfo isOn="False" />
      <barInfo isOn="False" />
      <barInfo isOn="False" />
      <barInfo isOn="False" />
      <barInfo isOn="True" />
      <barInfo isOn="False" />
      <barInfo isOn="False" />
      <barInfo isOn="False" />
      <barInfo isOn="False" />
      <barInfo isOn="False" />
      <barInfo isOn="False" />
      <barInfo isOn="False" />
      <barInfo isOn="False" />
      <barInfo isOn="False" />
      <barInfo isOn="False" />
      <barInfo isOn="False" />
      <barInfo isOn="False" />
      <barInfo isOn="False" />
      <barInfo isOn="False" />
    </predefinedGeneratorTrack>
    <predefinedGeneratorTrack MetaRiffPackName="DrumSnareQuad">
      <barInfo isOn="False" />
      <barInfo isOn="False" />
      <barInfo isOn="False" />
      <barInfo isOn="False" />
      <barInfo isOn="False" />
      <barInfo isOn="True" />
      <barInfo isOn="True" />
      <barInfo isOn="True" />
      <barInfo isOn="True" />
      <barInfo isOn="True" />
      <barInfo isOn="True" />
      <barInfo isOn="False" />
      <barInfo isOn="False" />
      <barInfo isOn="True" />
      <barInfo isOn="False" />
      <barInfo isOn="False" />
      <barInfo isOn="False" />
      <barInfo isOn="False" />
      <barInfo isOn="False" />
      <barInfo isOn="False" />
      <barInfo isOn="False" />
      <barInfo isOn="False" />
      <barInfo isOn="False" />
      <barInfo isOn="False" />
      <barInfo isOn="False" />
      <barInfo isOn="False" />
      <barInfo isOn="False" />
      <barInfo isOn="False" />
    </predefinedGeneratorTrack>
    <predefinedGeneratorTrack MetaRiffPackName="BassSynth">
      <barInfo isOn="False" />
      <barInfo isOn="False" />
      <barInfo isOn="False" />
      <barInfo isOn="False" />
      <barInfo isOn="False" />
      <barInfo isOn="True" />
      <barInfo isOn="True" />
      <barInfo isOn="True" />
      <barInfo isOn="True" />
      <barInfo isOn="True" />
      <barInfo isOn="True" />
      <barInfo isOn="True" />
      <barInfo isOn="True" />
      <barInfo isOn="True" />
      <barInfo isOn="False" />
      <barInfo isOn="False" />
      <barInfo isOn="False" />
      <barInfo isOn="False" />
      <barInfo isOn="False" />
      <barInfo isOn="False" />
      <barInfo isOn="False" />
      <barInfo isOn="False" />
      <barInfo isOn="False" />
      <barInfo isOn="False" />
      <barInfo isOn="False" />
      <barInfo isOn="False" />
      <barInfo isOn="False" />
      <barInfo isOn="False" />
    </predefinedGeneratorTrack>
    <predefinedGeneratorTrack MetaRiffPackName="MeditativeChina">
      <barInfo isOn="False" />
      <barInfo isOn="False" />
      <barInfo isOn="False" />
      <barInfo isOn="False" />
      <barInfo isOn="False" />
      <barInfo isOn="False" />
      <barInfo isOn="False" />
      <barInfo isOn="False" />
      <barInfo isOn="True" />
      <barInfo isOn="True" />
      <barInfo isOn="True" />
      <barInfo isOn="True" />
      <barInfo isOn="True" />
      <barInfo isOn="False" />
      <barInfo isOn="False" />
      <barInfo isOn="False" />
      <barInfo isOn="False" />
      <barInfo isOn="False" />
      <barInfo isOn="False" />
      <barInfo isOn="False" />
      <barInfo isOn="False" />
      <barInfo isOn="False" />
      <barInfo isOn="False" />
      <barInfo isOn="False" />
      <barInfo isOn="False" />
      <barInfo isOn="False" />
      <barInfo isOn="False" />
      <barInfo isOn="False" />
    </predefinedGeneratorTrack>
    <predefinedGeneratorTrack MetaRiffPackName="GuitarMetalBlack">
      <barInfo isOn="False" />
      <barInfo isOn="False" />
      <barInfo isOn="False" />
      <barInfo isOn="False" />
      <barInfo isOn="False" />
      <barInfo isOn="False" />
      <barInfo isOn="False" />
      <barInfo isOn="False" />
      <barInfo isOn="True" />
      <barInfo isOn="True" />
      <barInfo isOn="True" />
      <barInfo isOn="True" />
      <barInfo isOn="True" />
      <barInfo isOn="False" />
      <barInfo isOn="False" />
      <barInfo isOn="False" />
      <barInfo isOn="False" />
      <barInfo isOn="False" />
      <barInfo isOn="False" />
      <barInfo isOn="False" />
      <barInfo isOn="False" />
      <barInfo isOn="False" />
      <barInfo isOn="False" />
      <barInfo isOn="False" />
      <barInfo isOn="False" />
      <barInfo isOn="False" />
      <barInfo isOn="False" />
      <barInfo isOn="False" />
    </predefinedGeneratorTrack>
    <predefinedGeneratorTrack MetaRiffPackName="DrumSnareOcta">
      <barInfo isOn="False" />
      <barInfo isOn="False" />
      <barInfo isOn="False" />
      <barInfo isOn="False" />
      <barInfo isOn="False" />
      <barInfo isOn="False" />
      <barInfo isOn="False" />
      <barInfo isOn="False" />
      <barInfo isOn="False" />
      <barInfo isOn="False" />
      <barInfo isOn="False" />
      <barInfo isOn="True" />
      <barInfo isOn="True" />
      <barInfo isOn="False" />
      <barInfo isOn="False" />
      <barInfo isOn="False" />
      <barInfo isOn="False" />
      <barInfo isOn="False" />
      <barInfo isOn="False" />
      <barInfo isOn="False" />
      <barInfo isOn="False" />
      <barInfo isOn="False" />
      <barInfo isOn="False" />
      <barInfo isOn="False" />
      <barInfo isOn="False" />
      <barInfo isOn="False" />
      <barInfo isOn="False" />
      <barInfo isOn="False" />
    </predefinedGeneratorTrack>
    <predefinedGeneratorTrack MetaRiffPackName="DrumBassQuad">
      <barInfo isOn="False" />
      <barInfo isOn="False" />
      <barInfo isOn="False" />
      <barInfo isOn="False" />
      <barInfo isOn="False" />
      <barInfo isOn="False" />
      <barInfo isOn="False" />
      <barInfo isOn="False" />
      <barInfo isOn="False" />
      <barInfo isOn="False" />
      <barInfo isOn="False" />
      <barInfo isOn="True" />
      <barInfo isOn="True" />
      <barInfo isOn="False" />
      <barInfo isOn="False" />
      <barInfo isOn="False" />
      <barInfo isOn="False" />
      <barInfo isOn="False" />
      <barInfo isOn="False" />
      <barInfo isOn="False" />
      <barInfo isOn="False" />
      <barInfo isOn="False" />
      <barInfo isOn="False" />
      <barInfo isOn="False" />
      <barInfo isOn="False" />
      <barInfo isOn="False" />
      <barInfo isOn="False" />
      <barInfo isOn="False" />
    </predefinedGeneratorTrack>
    <predefinedGeneratorTrack MetaRiffPackName="DrumQuad">
      <barInfo isOn="False" />
      <barInfo isOn="False" />
      <barInfo isOn="False" />
      <barInfo isOn="False" />
      <barInfo isOn="False" />
      <barInfo isOn="False" />
      <barInfo isOn="False" />
      <barInfo isOn="False" />
      <barInfo isOn="False" />
      <barInfo isOn="True" />
      <barInfo isOn="True" />
      <barInfo isOn="True" />
      <barInfo isOn="True" />
      <barInfo isOn="False" />
      <barInfo isOn="False" />
      <barInfo isOn="False" />
      <barInfo isOn="False" />
      <barInfo isOn="False" />
      <barInfo isOn="False" />
      <barInfo isOn="False" />
      <barInfo isOn="False" />
      <barInfo isOn="False" />
      <barInfo isOn="False" />
      <barInfo isOn="False" />
      <barInfo isOn="False" />
      <barInfo isOn="False" />
      <barInfo isOn="False" />
      <barInfo isOn="False" />
    </predefinedGeneratorTrack>
  </predefinedGenerator>
</song>